{
    "track_id": "Golvellius - Valley of Doom (FM) - 13 - Horizontal Scrolling Cave",
    "mood": "happy",
    "instruments": {
        "Trumpet": [
            {
                "start_time": 0.038636363636363635,
                "end_time": 0.27045454545454545,
                "pitch": 58,
                "velocity": 64,
                "duration": 0.2318181818181818,
                "tempo": 120.0
            },
            {
                "start_time": 0.3886363636363636,
                "end_time": 0.634090909090909,
                "pitch": 58,
                "velocity": 64,
                "duration": 0.24545454545454543,
                "tempo": 120.0
            },
            {
                "start_time": 0.7568181818181818,
                "end_time": 0.9931818181818182,
                "pitch": 57,
                "velocity": 64,
                "duration": 0.23636363636363633,
                "tempo": 120.0
            },
            {
                "start_time": 1.1090909090909091,
                "end_time": 1.3590909090909091,
                "pitch": 53,
                "velocity": 64,
                "duration": 0.25,
                "tempo": 120.0
            },
            {
                "start_time": 1.4931818181818182,
                "end_time": 1.7227272727272727,
                "pitch": 55,
                "velocity": 64,
                "duration": 0.2295454545454545,
                "tempo": 120.0
            },
            {
                "start_time": 1.8454545454545455,
                "end_time": 1.9136363636363636,
                "pitch": 53,
                "velocity": 64,
                "duration": 0.06818181818181812,
                "tempo": 120.0
            },
            {
                "start_time": 2.0318181818181817,
                "end_time": 2.2613636363636362,
                "pitch": 55,
                "velocity": 64,
                "duration": 0.2295454545454545,
                "tempo": 120.0
            },
            {
                "start_time": 2.3863636363636362,
                "end_time": 2.434090909090909,
                "pitch": 52,
                "velocity": 64,
                "duration": 0.04772727272727284,
                "tempo": 120.0
            },
            {
                "start_time": 2.561363636363636,
                "end_time": 2.5977272727272727,
                "pitch": 52,
                "velocity": 64,
                "duration": 0.0363636363636366,
                "tempo": 120.0
            },
            {
                "start_time": 2.725,
                "end_time": 2.7977272727272724,
                "pitch": 55,
                "velocity": 64,
                "duration": 0.07272727272727231,
                "tempo": 120.0
            },
            {
                "start_time": 2.943181818181818,
                "end_time": 3.168181818181818,
                "pitch": 58,
                "velocity": 64,
                "duration": 0.2250000000000001,
                "tempo": 120.0
            },
            {
                "start_time": 3.2886363636363636,
                "end_time": 3.5318181818181817,
                "pitch": 58,
                "velocity": 64,
                "duration": 0.24318181818181817,
                "tempo": 120.0
            },
            {
                "start_time": 3.645454545454545,
                "end_time": 3.8909090909090907,
                "pitch": 57,
                "velocity": 64,
                "duration": 0.2454545454545456,
                "tempo": 120.0
            },
            {
                "start_time": 4.031818181818181,
                "end_time": 4.256818181818182,
                "pitch": 53,
                "velocity": 64,
                "duration": 0.22500000000000053,
                "tempo": 120.0
            },
            {
                "start_time": 4.393181818181818,
                "end_time": 4.627272727272727,
                "pitch": 55,
                "velocity": 64,
                "duration": 0.23409090909090935,
                "tempo": 120.0
            },
            {
                "start_time": 4.745454545454545,
                "end_time": 4.795454545454545,
                "pitch": 53,
                "velocity": 64,
                "duration": 0.04999999999999982,
                "tempo": 120.0
            },
            {
                "start_time": 4.911363636363636,
                "end_time": 5.161363636363636,
                "pitch": 55,
                "velocity": 64,
                "duration": 0.25,
                "tempo": 120.0
            },
            {
                "start_time": 5.290909090909091,
                "end_time": 5.322727272727272,
                "pitch": 53,
                "velocity": 64,
                "duration": 0.0318181818181813,
                "tempo": 120.0
            },
            {
                "start_time": 5.452272727272727,
                "end_time": 5.504545454545454,
                "pitch": 55,
                "velocity": 64,
                "duration": 0.052272727272726804,
                "tempo": 120.0
            },
            {
                "start_time": 5.6454545454545455,
                "end_time": 5.699999999999999,
                "pitch": 53,
                "velocity": 64,
                "duration": 0.054545454545453786,
                "tempo": 120.0
            },
            {
                "start_time": 5.838636363636363,
                "end_time": 7.138636363636364,
                "pitch": 55,
                "velocity": 64,
                "duration": 1.3000000000000007,
                "tempo": 120.0
            },
            {
                "start_time": 7.452272727272727,
                "end_time": 7.502272727272727,
                "pitch": 62,
                "velocity": 64,
                "duration": 0.04999999999999982,
                "tempo": 120.0
            },
            {
                "start_time": 7.622727272727272,
                "end_time": 7.6909090909090905,
                "pitch": 62,
                "velocity": 64,
                "duration": 0.06818181818181834,
                "tempo": 120.0
            },
            {
                "start_time": 7.824999999999999,
                "end_time": 7.875,
                "pitch": 62,
                "velocity": 64,
                "duration": 0.05000000000000071,
                "tempo": 120.0
            },
            {
                "start_time": 8.009090909090908,
                "end_time": 8.043181818181818,
                "pitch": 62,
                "velocity": 64,
                "duration": 0.03409090909091006,
                "tempo": 120.0
            },
            {
                "start_time": 8.184090909090909,
                "end_time": 8.236363636363636,
                "pitch": 62,
                "velocity": 64,
                "duration": 0.05227272727272769,
                "tempo": 120.0
            },
            {
                "start_time": 8.377272727272727,
                "end_time": 8.427272727272728,
                "pitch": 62,
                "velocity": 64,
                "duration": 0.05000000000000071,
                "tempo": 120.0
            },
            {
                "start_time": 8.545454545454545,
                "end_time": 8.595454545454546,
                "pitch": 62,
                "velocity": 64,
                "duration": 0.05000000000000071,
                "tempo": 120.0
            },
            {
                "start_time": 8.729545454545454,
                "end_time": 8.963636363636363,
                "pitch": 58,
                "velocity": 64,
                "duration": 0.23409090909090935,
                "tempo": 120.0
            },
            {
                "start_time": 9.079545454545453,
                "end_time": 9.320454545454545,
                "pitch": 58,
                "velocity": 64,
                "duration": 0.24090909090909207,
                "tempo": 120.0
            },
            {
                "start_time": 9.44090909090909,
                "end_time": 9.674999999999999,
                "pitch": 57,
                "velocity": 64,
                "duration": 0.23409090909090935,
                "tempo": 120.0
            },
            {
                "start_time": 9.790909090909091,
                "end_time": 10.043181818181818,
                "pitch": 53,
                "velocity": 64,
                "duration": 0.252272727272727,
                "tempo": 120.0
            },
            {
                "start_time": 10.174999999999999,
                "end_time": 10.404545454545454,
                "pitch": 55,
                "velocity": 64,
                "duration": 0.22954545454545539,
                "tempo": 120.0
            },
            {
                "start_time": 10.529545454545454,
                "end_time": 10.595454545454546,
                "pitch": 53,
                "velocity": 64,
                "duration": 0.06590909090909136,
                "tempo": 120.0
            },
            {
                "start_time": 10.713636363636363,
                "end_time": 10.945454545454545,
                "pitch": 55,
                "velocity": 64,
                "duration": 0.23181818181818237,
                "tempo": 120.0
            },
            {
                "start_time": 11.075,
                "end_time": 11.125,
                "pitch": 52,
                "velocity": 64,
                "duration": 0.05000000000000071,
                "tempo": 120.0
            },
            {
                "start_time": 11.254545454545454,
                "end_time": 11.288636363636362,
                "pitch": 52,
                "velocity": 64,
                "duration": 0.034090909090908283,
                "tempo": 120.0
            },
            {
                "start_time": 11.413636363636362,
                "end_time": 11.48409090909091,
                "pitch": 55,
                "velocity": 64,
                "duration": 0.0704545454545471,
                "tempo": 120.0
            },
            {
                "start_time": 11.625,
                "end_time": 11.847727272727273,
                "pitch": 58,
                "velocity": 64,
                "duration": 0.22272727272727266,
                "tempo": 120.0
            },
            {
                "start_time": 11.968181818181817,
                "end_time": 12.220454545454546,
                "pitch": 58,
                "velocity": 64,
                "duration": 0.25227272727272876,
                "tempo": 120.0
            },
            {
                "start_time": 12.336363636363636,
                "end_time": 12.577272727272726,
                "pitch": 57,
                "velocity": 64,
                "duration": 0.2409090909090903,
                "tempo": 120.0
            },
            {
                "start_time": 12.71590909090909,
                "end_time": 12.938636363636363,
                "pitch": 53,
                "velocity": 64,
                "duration": 0.22272727272727266,
                "tempo": 120.0
            },
            {
                "start_time": 13.077272727272726,
                "end_time": 13.311363636363636,
                "pitch": 55,
                "velocity": 64,
                "duration": 0.23409090909090935,
                "tempo": 120.0
            },
            {
                "start_time": 13.427272727272726,
                "end_time": 13.479545454545454,
                "pitch": 53,
                "velocity": 64,
                "duration": 0.05227272727272769,
                "tempo": 120.0
            },
            {
                "start_time": 13.6,
                "end_time": 13.854545454545454,
                "pitch": 55,
                "velocity": 64,
                "duration": 0.25454545454545396,
                "tempo": 120.0
            },
            {
                "start_time": 13.984090909090908,
                "end_time": 14.01590909090909,
                "pitch": 55,
                "velocity": 64,
                "duration": 0.03181818181818308,
                "tempo": 120.0
            },
            {
                "start_time": 14.145454545454545,
                "end_time": 14.197727272727272,
                "pitch": 62,
                "velocity": 64,
                "duration": 0.05227272727272769,
                "tempo": 120.0
            },
            {
                "start_time": 14.334090909090909,
                "end_time": 14.386363636363635,
                "pitch": 55,
                "velocity": 64,
                "duration": 0.052272727272725916,
                "tempo": 120.0
            },
            {
                "start_time": 14.524999999999999,
                "end_time": 17.272727272727273,
                "pitch": 55,
                "velocity": 64,
                "duration": 2.747727272727275,
                "tempo": 120.0
            },
            {
                "start_time": 17.413636363636364,
                "end_time": 18.349999999999998,
                "pitch": 55,
                "velocity": 64,
                "duration": 0.9363636363636338,
                "tempo": 120.0
            },
            {
                "start_time": 18.46590909090909,
                "end_time": 18.724999999999998,
                "pitch": 55,
                "velocity": 64,
                "duration": 0.25909090909090793,
                "tempo": 120.0
            },
            {
                "start_time": 18.861363636363635,
                "end_time": 19.62272727272727,
                "pitch": 57,
                "velocity": 64,
                "duration": 0.7613636363636367,
                "tempo": 120.0
            },
            {
                "start_time": 19.75681818181818,
                "end_time": 19.80681818181818,
                "pitch": 58,
                "velocity": 64,
                "duration": 0.05000000000000071,
                "tempo": 120.0
            },
            {
                "start_time": 19.94090909090909,
                "end_time": 19.974999999999998,
                "pitch": 60,
                "velocity": 64,
                "duration": 0.03409090909090651,
                "tempo": 120.0
            },
            {
                "start_time": 20.099999999999998,
                "end_time": 20.170454545454543,
                "pitch": 62,
                "velocity": 64,
                "duration": 0.07045454545454533,
                "tempo": 120.0
            },
            {
                "start_time": 20.311363636363634,
                "end_time": 21.252272727272725,
                "pitch": 60,
                "velocity": 64,
                "duration": 0.9409090909090914,
                "tempo": 120.0
            },
            {
                "start_time": 21.39090909090909,
                "end_time": 21.620454545454546,
                "pitch": 57,
                "velocity": 64,
                "duration": 0.22954545454545539,
                "tempo": 120.0
            },
            {
                "start_time": 21.761363636363637,
                "end_time": 22.529545454545453,
                "pitch": 53,
                "velocity": 64,
                "duration": 0.7681818181818159,
                "tempo": 120.0
            },
            {
                "start_time": 22.663636363636364,
                "end_time": 22.69772727272727,
                "pitch": 53,
                "velocity": 64,
                "duration": 0.03409090909090651,
                "tempo": 120.0
            },
            {
                "start_time": 22.829545454545453,
                "end_time": 22.88181818181818,
                "pitch": 55,
                "velocity": 64,
                "duration": 0.052272727272725916,
                "tempo": 120.0
            },
            {
                "start_time": 23.020454545454545,
                "end_time": 23.070454545454545,
                "pitch": 55,
                "velocity": 64,
                "duration": 0.05000000000000071,
                "tempo": 120.0
            },
            {
                "start_time": 23.209090909090907,
                "end_time": 24.511363636363637,
                "pitch": 59,
                "velocity": 64,
                "duration": 1.3022727272727295,
                "tempo": 120.0
            },
            {
                "start_time": 24.827272727272724,
                "end_time": 24.879545454545454,
                "pitch": 62,
                "velocity": 64,
                "duration": 0.05227272727272947,
                "tempo": 120.0
            },
            {
                "start_time": 25.002272727272725,
                "end_time": 25.070454545454545,
                "pitch": 62,
                "velocity": 64,
                "duration": 0.06818181818182012,
                "tempo": 120.0
            },
            {
                "start_time": 25.204545454545453,
                "end_time": 25.254545454545454,
                "pitch": 62,
                "velocity": 64,
                "duration": 0.05000000000000071,
                "tempo": 120.0
            },
            {
                "start_time": 25.388636363636362,
                "end_time": 25.422727272727272,
                "pitch": 62,
                "velocity": 64,
                "duration": 0.03409090909091006,
                "tempo": 120.0
            },
            {
                "start_time": 25.563636363636363,
                "end_time": 25.61590909090909,
                "pitch": 62,
                "velocity": 64,
                "duration": 0.052272727272725916,
                "tempo": 120.0
            },
            {
                "start_time": 25.75681818181818,
                "end_time": 25.80909090909091,
                "pitch": 62,
                "velocity": 64,
                "duration": 0.05227272727272947,
                "tempo": 120.0
            },
            {
                "start_time": 25.924999999999997,
                "end_time": 25.974999999999998,
                "pitch": 62,
                "velocity": 64,
                "duration": 0.05000000000000071,
                "tempo": 120.0
            },
            {
                "start_time": 26.10909090909091,
                "end_time": 26.343181818181815,
                "pitch": 67,
                "velocity": 64,
                "duration": 0.2340909090909058,
                "tempo": 120.0
            },
            {
                "start_time": 26.459090909090907,
                "end_time": 26.7,
                "pitch": 65,
                "velocity": 64,
                "duration": 0.24090909090909207,
                "tempo": 120.0
            },
            {
                "start_time": 26.820454545454545,
                "end_time": 27.054545454545455,
                "pitch": 62,
                "velocity": 64,
                "duration": 0.23409090909090935,
                "tempo": 120.0
            },
            {
                "start_time": 27.172727272727272,
                "end_time": 27.422727272727272,
                "pitch": 60,
                "velocity": 64,
                "duration": 0.25,
                "tempo": 120.0
            },
            {
                "start_time": 27.55681818181818,
                "end_time": 27.59090909090909,
                "pitch": 67,
                "velocity": 64,
                "duration": 0.03409090909091006,
                "tempo": 120.0
            },
            {
                "start_time": 27.711363636363636,
                "end_time": 27.727272727272727,
                "pitch": 55,
                "velocity": 64,
                "duration": 0.01590909090909065,
                "tempo": 120.0
            },
            {
                "start_time": 27.727272727272727,
                "end_time": 27.968181818181815,
                "pitch": 65,
                "velocity": 64,
                "duration": 0.24090909090908852,
                "tempo": 120.0
            },
            {
                "start_time": 28.084090909090907,
                "end_time": 28.315909090909088,
                "pitch": 62,
                "velocity": 64,
                "duration": 0.2318181818181806,
                "tempo": 120.0
            },
            {
                "start_time": 28.445454545454545,
                "end_time": 28.495454545454542,
                "pitch": 60,
                "velocity": 64,
                "duration": 0.04999999999999716,
                "tempo": 120.0
            },
            {
                "start_time": 28.625,
                "end_time": 28.661363636363635,
                "pitch": 58,
                "velocity": 64,
                "duration": 0.036363636363635266,
                "tempo": 120.0
            },
            {
                "start_time": 28.78863636363636,
                "end_time": 28.861363636363635,
                "pitch": 55,
                "velocity": 64,
                "duration": 0.07272727272727408,
                "tempo": 120.0
            },
            {
                "start_time": 29.00681818181818,
                "end_time": 29.23181818181818,
                "pitch": 67,
                "velocity": 64,
                "duration": 0.22500000000000142,
                "tempo": 120.0
            },
            {
                "start_time": 29.352272727272727,
                "end_time": 29.595454545454544,
                "pitch": 65,
                "velocity": 64,
                "duration": 0.24318181818181728,
                "tempo": 120.0
            },
            {
                "start_time": 29.709090909090907,
                "end_time": 29.954545454545453,
                "pitch": 62,
                "velocity": 64,
                "duration": 0.24545454545454604,
                "tempo": 120.0
            },
            {
                "start_time": 30.095454545454544,
                "end_time": 30.313636363636363,
                "pitch": 60,
                "velocity": 64,
                "duration": 0.2181818181818187,
                "tempo": 120.0
            },
            {
                "start_time": 30.445454545454545,
                "end_time": 30.49772727272727,
                "pitch": 67,
                "velocity": 64,
                "duration": 0.052272727272725916,
                "tempo": 120.0
            },
            {
                "start_time": 30.636363636363633,
                "end_time": 30.85681818181818,
                "pitch": 65,
                "velocity": 64,
                "duration": 0.22045454545454746,
                "tempo": 120.0
            },
            {
                "start_time": 30.970454545454544,
                "end_time": 31.21590909090909,
                "pitch": 62,
                "velocity": 64,
                "duration": 0.24545454545454604,
                "tempo": 120.0
            },
            {
                "start_time": 31.347727272727273,
                "end_time": 31.38181818181818,
                "pitch": 60,
                "velocity": 64,
                "duration": 0.03409090909090651,
                "tempo": 120.0
            },
            {
                "start_time": 31.51590909090909,
                "end_time": 31.568181818181817,
                "pitch": 58,
                "velocity": 64,
                "duration": 0.052272727272725916,
                "tempo": 120.0
            },
            {
                "start_time": 31.709090909090907,
                "end_time": 31.761363636363633,
                "pitch": 55,
                "velocity": 64,
                "duration": 0.052272727272725916,
                "tempo": 120.0
            }
        ],
        "Flute": [
            {
                "start_time": 0.038636363636363635,
                "end_time": 0.27045454545454545,
                "pitch": 70,
                "velocity": 64,
                "duration": 0.2318181818181818,
                "tempo": 120.0
            },
            {
                "start_time": 0.3886363636363636,
                "end_time": 0.634090909090909,
                "pitch": 70,
                "velocity": 64,
                "duration": 0.24545454545454543,
                "tempo": 120.0
            },
            {
                "start_time": 0.7749999999999999,
                "end_time": 0.825,
                "pitch": 67,
                "velocity": 64,
                "duration": 0.050000000000000044,
                "tempo": 120.0
            },
            {
                "start_time": 0.825,
                "end_time": 0.959090909090909,
                "pitch": 67,
                "velocity": 64,
                "duration": 0.13409090909090904,
                "tempo": 120.0
            },
            {
                "start_time": 0.959090909090909,
                "end_time": 0.9931818181818182,
                "pitch": 67,
                "velocity": 64,
                "duration": 0.03409090909090917,
                "tempo": 120.0
            },
            {
                "start_time": 1.125,
                "end_time": 1.3590909090909091,
                "pitch": 65,
                "velocity": 64,
                "duration": 0.23409090909090913,
                "tempo": 120.0
            },
            {
                "start_time": 1.4931818181818182,
                "end_time": 1.5454545454545454,
                "pitch": 67,
                "velocity": 64,
                "duration": 0.05227272727272725,
                "tempo": 120.0
            },
            {
                "start_time": 1.5454545454545454,
                "end_time": 1.6863636363636363,
                "pitch": 67,
                "velocity": 64,
                "duration": 0.14090909090909087,
                "tempo": 120.0
            },
            {
                "start_time": 1.6863636363636363,
                "end_time": 1.7227272727272727,
                "pitch": 67,
                "velocity": 64,
                "duration": 0.036363636363636376,
                "tempo": 120.0
            },
            {
                "start_time": 1.8636363636363635,
                "end_time": 1.9136363636363636,
                "pitch": 65,
                "velocity": 64,
                "duration": 0.050000000000000044,
                "tempo": 120.0
            },
            {
                "start_time": 2.047727272727273,
                "end_time": 2.0977272727272727,
                "pitch": 67,
                "velocity": 64,
                "duration": 0.04999999999999982,
                "tempo": 120.0
            },
            {
                "start_time": 2.0977272727272727,
                "end_time": 2.2295454545454545,
                "pitch": 67,
                "velocity": 64,
                "duration": 0.13181818181818183,
                "tempo": 120.0
            },
            {
                "start_time": 2.2295454545454545,
                "end_time": 2.2613636363636362,
                "pitch": 67,
                "velocity": 64,
                "duration": 0.031818181818181746,
                "tempo": 120.0
            },
            {
                "start_time": 2.3863636363636362,
                "end_time": 2.434090909090909,
                "pitch": 64,
                "velocity": 64,
                "duration": 0.04772727272727284,
                "tempo": 120.0
            },
            {
                "start_time": 2.561363636363636,
                "end_time": 2.5977272727272727,
                "pitch": 64,
                "velocity": 64,
                "duration": 0.0363636363636366,
                "tempo": 120.0
            },
            {
                "start_time": 2.743181818181818,
                "end_time": 2.7977272727272724,
                "pitch": 67,
                "velocity": 64,
                "duration": 0.05454545454545423,
                "tempo": 120.0
            },
            {
                "start_time": 2.943181818181818,
                "end_time": 3.168181818181818,
                "pitch": 70,
                "velocity": 64,
                "duration": 0.2250000000000001,
                "tempo": 120.0
            },
            {
                "start_time": 3.2886363636363636,
                "end_time": 3.5318181818181817,
                "pitch": 70,
                "velocity": 64,
                "duration": 0.24318181818181817,
                "tempo": 120.0
            },
            {
                "start_time": 3.645454545454545,
                "end_time": 3.715909090909091,
                "pitch": 67,
                "velocity": 64,
                "duration": 0.07045454545454577,
                "tempo": 120.0
            },
            {
                "start_time": 3.715909090909091,
                "end_time": 3.8568181818181815,
                "pitch": 67,
                "velocity": 64,
                "duration": 0.14090909090909065,
                "tempo": 120.0
            },
            {
                "start_time": 3.8568181818181815,
                "end_time": 3.8909090909090907,
                "pitch": 67,
                "velocity": 64,
                "duration": 0.03409090909090917,
                "tempo": 120.0
            },
            {
                "start_time": 4.031818181818181,
                "end_time": 4.256818181818182,
                "pitch": 65,
                "velocity": 64,
                "duration": 0.22500000000000053,
                "tempo": 120.0
            },
            {
                "start_time": 4.393181818181818,
                "end_time": 4.443181818181818,
                "pitch": 67,
                "velocity": 64,
                "duration": 0.05000000000000071,
                "tempo": 120.0
            },
            {
                "start_time": 4.443181818181818,
                "end_time": 4.577272727272727,
                "pitch": 67,
                "velocity": 64,
                "duration": 0.13409090909090882,
                "tempo": 120.0
            },
            {
                "start_time": 4.577272727272727,
                "end_time": 4.627272727272727,
                "pitch": 67,
                "velocity": 64,
                "duration": 0.04999999999999982,
                "tempo": 120.0
            },
            {
                "start_time": 4.745454545454545,
                "end_time": 4.795454545454545,
                "pitch": 65,
                "velocity": 64,
                "duration": 0.04999999999999982,
                "tempo": 120.0
            },
            {
                "start_time": 4.929545454545455,
                "end_time": 4.9795454545454545,
                "pitch": 67,
                "velocity": 64,
                "duration": 0.04999999999999982,
                "tempo": 120.0
            },
            {
                "start_time": 4.9795454545454545,
                "end_time": 5.111363636363636,
                "pitch": 67,
                "velocity": 64,
                "duration": 0.13181818181818183,
                "tempo": 120.0
            },
            {
                "start_time": 5.111363636363636,
                "end_time": 5.161363636363636,
                "pitch": 67,
                "velocity": 64,
                "duration": 0.04999999999999982,
                "tempo": 120.0
            },
            {
                "start_time": 5.290909090909091,
                "end_time": 5.322727272727272,
                "pitch": 65,
                "velocity": 64,
                "duration": 0.0318181818181813,
                "tempo": 120.0
            },
            {
                "start_time": 5.452272727272727,
                "end_time": 5.504545454545454,
                "pitch": 67,
                "velocity": 64,
                "duration": 0.052272727272726804,
                "tempo": 120.0
            },
            {
                "start_time": 5.6454545454545455,
                "end_time": 5.699999999999999,
                "pitch": 67,
                "velocity": 64,
                "duration": 0.054545454545453786,
                "tempo": 120.0
            },
            {
                "start_time": 5.838636363636363,
                "end_time": 5.888636363636364,
                "pitch": 67,
                "velocity": 64,
                "duration": 0.05000000000000071,
                "tempo": 120.0
            },
            {
                "start_time": 5.888636363636364,
                "end_time": 6.0227272727272725,
                "pitch": 67,
                "velocity": 64,
                "duration": 0.13409090909090882,
                "tempo": 120.0
            },
            {
                "start_time": 6.0227272727272725,
                "end_time": 6.156818181818181,
                "pitch": 67,
                "velocity": 64,
                "duration": 0.13409090909090882,
                "tempo": 120.0
            },
            {
                "start_time": 6.156818181818181,
                "end_time": 6.290909090909091,
                "pitch": 67,
                "velocity": 64,
                "duration": 0.1340909090909097,
                "tempo": 120.0
            },
            {
                "start_time": 6.290909090909091,
                "end_time": 6.425,
                "pitch": 67,
                "velocity": 64,
                "duration": 0.13409090909090882,
                "tempo": 120.0
            },
            {
                "start_time": 6.425,
                "end_time": 6.556818181818182,
                "pitch": 67,
                "velocity": 64,
                "duration": 0.13181818181818183,
                "tempo": 120.0
            },
            {
                "start_time": 6.556818181818182,
                "end_time": 6.6909090909090905,
                "pitch": 67,
                "velocity": 64,
                "duration": 0.13409090909090882,
                "tempo": 120.0
            },
            {
                "start_time": 6.6909090909090905,
                "end_time": 6.824999999999999,
                "pitch": 67,
                "velocity": 64,
                "duration": 0.13409090909090882,
                "tempo": 120.0
            },
            {
                "start_time": 6.824999999999999,
                "end_time": 6.961363636363636,
                "pitch": 67,
                "velocity": 64,
                "duration": 0.1363636363636367,
                "tempo": 120.0
            },
            {
                "start_time": 6.961363636363636,
                "end_time": 7.102272727272727,
                "pitch": 67,
                "velocity": 64,
                "duration": 0.14090909090909065,
                "tempo": 120.0
            },
            {
                "start_time": 7.102272727272727,
                "end_time": 7.138636363636364,
                "pitch": 67,
                "velocity": 64,
                "duration": 0.03636363636363704,
                "tempo": 120.0
            },
            {
                "start_time": 7.468181818181818,
                "end_time": 7.502272727272727,
                "pitch": 74,
                "velocity": 64,
                "duration": 0.03409090909090917,
                "tempo": 120.0
            },
            {
                "start_time": 7.640909090909091,
                "end_time": 7.6909090909090905,
                "pitch": 74,
                "velocity": 64,
                "duration": 0.04999999999999982,
                "tempo": 120.0
            },
            {
                "start_time": 7.824999999999999,
                "end_time": 7.875,
                "pitch": 74,
                "velocity": 64,
                "duration": 0.05000000000000071,
                "tempo": 120.0
            },
            {
                "start_time": 8.009090909090908,
                "end_time": 8.043181818181818,
                "pitch": 74,
                "velocity": 64,
                "duration": 0.03409090909091006,
                "tempo": 120.0
            },
            {
                "start_time": 8.184090909090909,
                "end_time": 8.236363636363636,
                "pitch": 74,
                "velocity": 64,
                "duration": 0.05227272727272769,
                "tempo": 120.0
            },
            {
                "start_time": 8.377272727272727,
                "end_time": 8.427272727272728,
                "pitch": 74,
                "velocity": 64,
                "duration": 0.05000000000000071,
                "tempo": 120.0
            },
            {
                "start_time": 8.561363636363636,
                "end_time": 8.595454545454546,
                "pitch": 74,
                "velocity": 64,
                "duration": 0.03409090909091006,
                "tempo": 120.0
            },
            {
                "start_time": 8.729545454545454,
                "end_time": 8.963636363636363,
                "pitch": 70,
                "velocity": 64,
                "duration": 0.23409090909090935,
                "tempo": 120.0
            },
            {
                "start_time": 9.079545454545453,
                "end_time": 9.320454545454545,
                "pitch": 70,
                "velocity": 64,
                "duration": 0.24090909090909207,
                "tempo": 120.0
            },
            {
                "start_time": 9.456818181818182,
                "end_time": 9.509090909090908,
                "pitch": 67,
                "velocity": 64,
                "duration": 0.052272727272725916,
                "tempo": 120.0
            },
            {
                "start_time": 9.509090909090908,
                "end_time": 9.64090909090909,
                "pitch": 67,
                "velocity": 64,
                "duration": 0.13181818181818272,
                "tempo": 120.0
            },
            {
                "start_time": 9.64090909090909,
                "end_time": 9.674999999999999,
                "pitch": 67,
                "velocity": 64,
                "duration": 0.034090909090908283,
                "tempo": 120.0
            },
            {
                "start_time": 9.809090909090909,
                "end_time": 10.043181818181818,
                "pitch": 65,
                "velocity": 64,
                "duration": 0.23409090909090935,
                "tempo": 120.0
            },
            {
                "start_time": 10.174999999999999,
                "end_time": 10.229545454545454,
                "pitch": 67,
                "velocity": 64,
                "duration": 0.054545454545454675,
                "tempo": 120.0
            },
            {
                "start_time": 10.229545454545454,
                "end_time": 10.370454545454544,
                "pitch": 67,
                "velocity": 64,
                "duration": 0.14090909090909065,
                "tempo": 120.0
            },
            {
                "start_time": 10.370454545454544,
                "end_time": 10.404545454545454,
                "pitch": 67,
                "velocity": 64,
                "duration": 0.03409090909091006,
                "tempo": 120.0
            },
            {
                "start_time": 10.545454545454545,
                "end_time": 10.595454545454546,
                "pitch": 65,
                "velocity": 64,
                "duration": 0.05000000000000071,
                "tempo": 120.0
            },
            {
                "start_time": 10.729545454545454,
                "end_time": 10.779545454545454,
                "pitch": 67,
                "velocity": 64,
                "duration": 0.05000000000000071,
                "tempo": 120.0
            },
            {
                "start_time": 10.779545454545454,
                "end_time": 10.913636363636362,
                "pitch": 67,
                "velocity": 64,
                "duration": 0.13409090909090793,
                "tempo": 120.0
            },
            {
                "start_time": 10.913636363636362,
                "end_time": 10.945454545454545,
                "pitch": 67,
                "velocity": 64,
                "duration": 0.03181818181818308,
                "tempo": 120.0
            },
            {
                "start_time": 11.075,
                "end_time": 11.125,
                "pitch": 64,
                "velocity": 64,
                "duration": 0.05000000000000071,
                "tempo": 120.0
            },
            {
                "start_time": 11.254545454545454,
                "end_time": 11.288636363636362,
                "pitch": 64,
                "velocity": 64,
                "duration": 0.034090909090908283,
                "tempo": 120.0
            },
            {
                "start_time": 11.431818181818182,
                "end_time": 11.48409090909091,
                "pitch": 67,
                "velocity": 64,
                "duration": 0.05227272727272769,
                "tempo": 120.0
            },
            {
                "start_time": 11.625,
                "end_time": 11.847727272727273,
                "pitch": 70,
                "velocity": 64,
                "duration": 0.22272727272727266,
                "tempo": 120.0
            },
            {
                "start_time": 11.968181818181817,
                "end_time": 12.220454545454546,
                "pitch": 70,
                "velocity": 64,
                "duration": 0.25227272727272876,
                "tempo": 120.0
            },
            {
                "start_time": 12.336363636363636,
                "end_time": 12.404545454545454,
                "pitch": 67,
                "velocity": 64,
                "duration": 0.06818181818181834,
                "tempo": 120.0
            },
            {
                "start_time": 12.404545454545454,
                "end_time": 12.543181818181818,
                "pitch": 67,
                "velocity": 64,
                "duration": 0.13863636363636367,
                "tempo": 120.0
            },
            {
                "start_time": 12.543181818181818,
                "end_time": 12.577272727272726,
                "pitch": 67,
                "velocity": 64,
                "duration": 0.034090909090908283,
                "tempo": 120.0
            },
            {
                "start_time": 12.71590909090909,
                "end_time": 12.938636363636363,
                "pitch": 65,
                "velocity": 64,
                "duration": 0.22272727272727266,
                "tempo": 120.0
            },
            {
                "start_time": 13.077272727272726,
                "end_time": 13.127272727272727,
                "pitch": 67,
                "velocity": 64,
                "duration": 0.05000000000000071,
                "tempo": 120.0
            },
            {
                "start_time": 13.127272727272727,
                "end_time": 13.261363636363635,
                "pitch": 67,
                "velocity": 64,
                "duration": 0.13409090909090793,
                "tempo": 120.0
            },
            {
                "start_time": 13.261363636363635,
                "end_time": 13.311363636363636,
                "pitch": 67,
                "velocity": 64,
                "duration": 0.05000000000000071,
                "tempo": 120.0
            },
            {
                "start_time": 13.427272727272726,
                "end_time": 13.479545454545454,
                "pitch": 65,
                "velocity": 64,
                "duration": 0.05227272727272769,
                "tempo": 120.0
            },
            {
                "start_time": 13.61590909090909,
                "end_time": 13.668181818181818,
                "pitch": 67,
                "velocity": 64,
                "duration": 0.05227272727272769,
                "tempo": 120.0
            },
            {
                "start_time": 13.668181818181818,
                "end_time": 13.804545454545455,
                "pitch": 67,
                "velocity": 64,
                "duration": 0.1363636363636367,
                "tempo": 120.0
            },
            {
                "start_time": 13.804545454545455,
                "end_time": 13.854545454545454,
                "pitch": 67,
                "velocity": 64,
                "duration": 0.049999999999998934,
                "tempo": 120.0
            },
            {
                "start_time": 14.145454545454545,
                "end_time": 14.197727272727272,
                "pitch": 74,
                "velocity": 64,
                "duration": 0.05227272727272769,
                "tempo": 120.0
            },
            {
                "start_time": 14.334090909090909,
                "end_time": 14.386363636363635,
                "pitch": 67,
                "velocity": 64,
                "duration": 0.052272727272725916,
                "tempo": 120.0
            },
            {
                "start_time": 14.524999999999999,
                "end_time": 14.575,
                "pitch": 67,
                "velocity": 64,
                "duration": 0.05000000000000071,
                "tempo": 120.0
            },
            {
                "start_time": 14.575,
                "end_time": 14.713636363636363,
                "pitch": 67,
                "velocity": 64,
                "duration": 0.13863636363636367,
                "tempo": 120.0
            },
            {
                "start_time": 14.713636363636363,
                "end_time": 14.85,
                "pitch": 67,
                "velocity": 64,
                "duration": 0.1363636363636367,
                "tempo": 120.0
            },
            {
                "start_time": 14.85,
                "end_time": 14.98181818181818,
                "pitch": 67,
                "velocity": 64,
                "duration": 0.13181818181818095,
                "tempo": 120.0
            },
            {
                "start_time": 14.98181818181818,
                "end_time": 15.111363636363636,
                "pitch": 67,
                "velocity": 64,
                "duration": 0.12954545454545574,
                "tempo": 120.0
            },
            {
                "start_time": 15.111363636363636,
                "end_time": 15.243181818181817,
                "pitch": 67,
                "velocity": 64,
                "duration": 0.13181818181818095,
                "tempo": 120.0
            },
            {
                "start_time": 15.243181818181817,
                "end_time": 15.375,
                "pitch": 67,
                "velocity": 64,
                "duration": 0.13181818181818272,
                "tempo": 120.0
            },
            {
                "start_time": 15.375,
                "end_time": 15.509090909090908,
                "pitch": 67,
                "velocity": 64,
                "duration": 0.13409090909090793,
                "tempo": 120.0
            },
            {
                "start_time": 15.509090909090908,
                "end_time": 15.647727272727272,
                "pitch": 67,
                "velocity": 64,
                "duration": 0.13863636363636367,
                "tempo": 120.0
            },
            {
                "start_time": 15.647727272727272,
                "end_time": 15.788636363636362,
                "pitch": 67,
                "velocity": 64,
                "duration": 0.14090909090909065,
                "tempo": 120.0
            },
            {
                "start_time": 15.788636363636362,
                "end_time": 15.929545454545453,
                "pitch": 67,
                "velocity": 64,
                "duration": 0.14090909090909065,
                "tempo": 120.0
            },
            {
                "start_time": 15.929545454545453,
                "end_time": 16.068181818181817,
                "pitch": 67,
                "velocity": 64,
                "duration": 0.13863636363636367,
                "tempo": 120.0
            },
            {
                "start_time": 16.068181818181817,
                "end_time": 16.204545454545453,
                "pitch": 67,
                "velocity": 64,
                "duration": 0.1363636363636367,
                "tempo": 120.0
            },
            {
                "start_time": 16.204545454545453,
                "end_time": 16.34090909090909,
                "pitch": 67,
                "velocity": 64,
                "duration": 0.1363636363636367,
                "tempo": 120.0
            },
            {
                "start_time": 16.34090909090909,
                "end_time": 16.470454545454544,
                "pitch": 67,
                "velocity": 64,
                "duration": 0.12954545454545396,
                "tempo": 120.0
            },
            {
                "start_time": 16.470454545454544,
                "end_time": 16.599999999999998,
                "pitch": 67,
                "velocity": 64,
                "duration": 0.12954545454545396,
                "tempo": 120.0
            },
            {
                "start_time": 16.599999999999998,
                "end_time": 16.73409090909091,
                "pitch": 67,
                "velocity": 64,
                "duration": 0.13409090909091148,
                "tempo": 120.0
            },
            {
                "start_time": 16.73409090909091,
                "end_time": 16.87272727272727,
                "pitch": 67,
                "velocity": 64,
                "duration": 0.1386363636363619,
                "tempo": 120.0
            },
            {
                "start_time": 16.87272727272727,
                "end_time": 17.009090909090908,
                "pitch": 67,
                "velocity": 64,
                "duration": 0.1363636363636367,
                "tempo": 120.0
            },
            {
                "start_time": 17.009090909090908,
                "end_time": 17.15,
                "pitch": 67,
                "velocity": 64,
                "duration": 0.14090909090909065,
                "tempo": 120.0
            },
            {
                "start_time": 17.15,
                "end_time": 17.272727272727273,
                "pitch": 67,
                "velocity": 64,
                "duration": 0.1227272727272748,
                "tempo": 120.0
            },
            {
                "start_time": 17.413636363636364,
                "end_time": 17.46363636363636,
                "pitch": 67,
                "velocity": 64,
                "duration": 0.04999999999999716,
                "tempo": 120.0
            },
            {
                "start_time": 17.46363636363636,
                "end_time": 17.597727272727273,
                "pitch": 67,
                "velocity": 64,
                "duration": 0.13409090909091148,
                "tempo": 120.0
            },
            {
                "start_time": 17.597727272727273,
                "end_time": 17.73181818181818,
                "pitch": 67,
                "velocity": 64,
                "duration": 0.13409090909090793,
                "tempo": 120.0
            },
            {
                "start_time": 17.73181818181818,
                "end_time": 17.86590909090909,
                "pitch": 67,
                "velocity": 64,
                "duration": 0.13409090909090793,
                "tempo": 120.0
            },
            {
                "start_time": 17.86590909090909,
                "end_time": 18.0,
                "pitch": 67,
                "velocity": 64,
                "duration": 0.13409090909091148,
                "tempo": 120.0
            },
            {
                "start_time": 18.0,
                "end_time": 18.13181818181818,
                "pitch": 67,
                "velocity": 64,
                "duration": 0.13181818181817917,
                "tempo": 120.0
            },
            {
                "start_time": 18.13181818181818,
                "end_time": 18.26590909090909,
                "pitch": 67,
                "velocity": 64,
                "duration": 0.13409090909091148,
                "tempo": 120.0
            },
            {
                "start_time": 18.26590909090909,
                "end_time": 18.349999999999998,
                "pitch": 67,
                "velocity": 64,
                "duration": 0.08409090909090722,
                "tempo": 120.0
            },
            {
                "start_time": 18.48409090909091,
                "end_time": 18.552272727272726,
                "pitch": 67,
                "velocity": 64,
                "duration": 0.06818181818181657,
                "tempo": 120.0
            },
            {
                "start_time": 18.552272727272726,
                "end_time": 18.724999999999998,
                "pitch": 69,
                "velocity": 64,
                "duration": 0.17272727272727195,
                "tempo": 120.0
            },
            {
                "start_time": 18.861363636363635,
                "end_time": 19.62272727272727,
                "pitch": 69,
                "velocity": 64,
                "duration": 0.7613636363636367,
                "tempo": 120.0
            },
            {
                "start_time": 19.75681818181818,
                "end_time": 19.80681818181818,
                "pitch": 70,
                "velocity": 64,
                "duration": 0.05000000000000071,
                "tempo": 120.0
            },
            {
                "start_time": 19.94090909090909,
                "end_time": 19.974999999999998,
                "pitch": 72,
                "velocity": 64,
                "duration": 0.03409090909090651,
                "tempo": 120.0
            },
            {
                "start_time": 20.11590909090909,
                "end_time": 20.170454545454543,
                "pitch": 74,
                "velocity": 64,
                "duration": 0.054545454545454675,
                "tempo": 120.0
            },
            {
                "start_time": 20.311363636363634,
                "end_time": 21.252272727272725,
                "pitch": 72,
                "velocity": 64,
                "duration": 0.9409090909090914,
                "tempo": 120.0
            },
            {
                "start_time": 21.39090909090909,
                "end_time": 21.620454545454546,
                "pitch": 69,
                "velocity": 64,
                "duration": 0.22954545454545539,
                "tempo": 120.0
            },
            {
                "start_time": 21.761363636363637,
                "end_time": 22.529545454545453,
                "pitch": 65,
                "velocity": 64,
                "duration": 0.7681818181818159,
                "tempo": 120.0
            },
            {
                "start_time": 22.663636363636364,
                "end_time": 22.69772727272727,
                "pitch": 65,
                "velocity": 64,
                "duration": 0.03409090909090651,
                "tempo": 120.0
            },
            {
                "start_time": 22.829545454545453,
                "end_time": 22.88181818181818,
                "pitch": 67,
                "velocity": 64,
                "duration": 0.052272727272725916,
                "tempo": 120.0
            },
            {
                "start_time": 23.020454545454545,
                "end_time": 23.070454545454545,
                "pitch": 69,
                "velocity": 64,
                "duration": 0.05000000000000071,
                "tempo": 120.0
            },
            {
                "start_time": 23.209090909090907,
                "end_time": 24.511363636363637,
                "pitch": 71,
                "velocity": 64,
                "duration": 1.3022727272727295,
                "tempo": 120.0
            },
            {
                "start_time": 24.84318181818182,
                "end_time": 24.879545454545454,
                "pitch": 74,
                "velocity": 64,
                "duration": 0.036363636363635266,
                "tempo": 120.0
            },
            {
                "start_time": 25.020454545454545,
                "end_time": 25.070454545454545,
                "pitch": 74,
                "velocity": 64,
                "duration": 0.05000000000000071,
                "tempo": 120.0
            },
            {
                "start_time": 25.204545454545453,
                "end_time": 25.254545454545454,
                "pitch": 74,
                "velocity": 64,
                "duration": 0.05000000000000071,
                "tempo": 120.0
            },
            {
                "start_time": 25.388636363636362,
                "end_time": 25.422727272727272,
                "pitch": 74,
                "velocity": 64,
                "duration": 0.03409090909091006,
                "tempo": 120.0
            },
            {
                "start_time": 25.563636363636363,
                "end_time": 25.61590909090909,
                "pitch": 74,
                "velocity": 64,
                "duration": 0.052272727272725916,
                "tempo": 120.0
            },
            {
                "start_time": 25.75681818181818,
                "end_time": 25.80909090909091,
                "pitch": 74,
                "velocity": 64,
                "duration": 0.05227272727272947,
                "tempo": 120.0
            },
            {
                "start_time": 25.94090909090909,
                "end_time": 25.974999999999998,
                "pitch": 74,
                "velocity": 64,
                "duration": 0.03409090909090651,
                "tempo": 120.0
            },
            {
                "start_time": 26.10909090909091,
                "end_time": 26.159090909090907,
                "pitch": 79,
                "velocity": 64,
                "duration": 0.04999999999999716,
                "tempo": 120.0
            },
            {
                "start_time": 26.159090909090907,
                "end_time": 26.293181818181818,
                "pitch": 79,
                "velocity": 64,
                "duration": 0.13409090909091148,
                "tempo": 120.0
            },
            {
                "start_time": 26.293181818181818,
                "end_time": 26.343181818181815,
                "pitch": 79,
                "velocity": 64,
                "duration": 0.04999999999999716,
                "tempo": 120.0
            },
            {
                "start_time": 26.459090909090907,
                "end_time": 26.7,
                "pitch": 77,
                "velocity": 64,
                "duration": 0.24090909090909207,
                "tempo": 120.0
            },
            {
                "start_time": 26.83863636363636,
                "end_time": 27.054545454545455,
                "pitch": 74,
                "velocity": 64,
                "duration": 0.2159090909090935,
                "tempo": 120.0
            },
            {
                "start_time": 27.188636363636363,
                "end_time": 27.422727272727272,
                "pitch": 72,
                "velocity": 64,
                "duration": 0.23409090909090935,
                "tempo": 120.0
            },
            {
                "start_time": 27.55681818181818,
                "end_time": 27.59090909090909,
                "pitch": 79,
                "velocity": 64,
                "duration": 0.03409090909091006,
                "tempo": 120.0
            },
            {
                "start_time": 27.727272727272727,
                "end_time": 27.968181818181815,
                "pitch": 79,
                "velocity": 64,
                "duration": 0.24090909090908852,
                "tempo": 120.0
            },
            {
                "start_time": 28.099999999999998,
                "end_time": 28.315909090909088,
                "pitch": 74,
                "velocity": 64,
                "duration": 0.21590909090908994,
                "tempo": 120.0
            },
            {
                "start_time": 28.445454545454545,
                "end_time": 28.495454545454542,
                "pitch": 72,
                "velocity": 64,
                "duration": 0.04999999999999716,
                "tempo": 120.0
            },
            {
                "start_time": 28.625,
                "end_time": 28.661363636363635,
                "pitch": 70,
                "velocity": 64,
                "duration": 0.036363636363635266,
                "tempo": 120.0
            },
            {
                "start_time": 28.80681818181818,
                "end_time": 28.861363636363635,
                "pitch": 67,
                "velocity": 64,
                "duration": 0.054545454545454675,
                "tempo": 120.0
            },
            {
                "start_time": 29.00681818181818,
                "end_time": 29.05909090909091,
                "pitch": 79,
                "velocity": 64,
                "duration": 0.05227272727272947,
                "tempo": 120.0
            },
            {
                "start_time": 29.05909090909091,
                "end_time": 29.19772727272727,
                "pitch": 79,
                "velocity": 64,
                "duration": 0.1386363636363619,
                "tempo": 120.0
            },
            {
                "start_time": 29.19772727272727,
                "end_time": 29.23181818181818,
                "pitch": 79,
                "velocity": 64,
                "duration": 0.03409090909091006,
                "tempo": 120.0
            },
            {
                "start_time": 29.352272727272727,
                "end_time": 29.595454545454544,
                "pitch": 77,
                "velocity": 64,
                "duration": 0.24318181818181728,
                "tempo": 120.0
            },
            {
                "start_time": 29.709090909090907,
                "end_time": 29.954545454545453,
                "pitch": 74,
                "velocity": 64,
                "duration": 0.24545454545454604,
                "tempo": 120.0
            },
            {
                "start_time": 30.095454545454544,
                "end_time": 30.313636363636363,
                "pitch": 72,
                "velocity": 64,
                "duration": 0.2181818181818187,
                "tempo": 120.0
            },
            {
                "start_time": 30.445454545454545,
                "end_time": 30.49772727272727,
                "pitch": 79,
                "velocity": 64,
                "duration": 0.052272727272725916,
                "tempo": 120.0
            },
            {
                "start_time": 30.636363636363633,
                "end_time": 30.85681818181818,
                "pitch": 79,
                "velocity": 64,
                "duration": 0.22045454545454746,
                "tempo": 120.0
            },
            {
                "start_time": 30.986363636363635,
                "end_time": 31.21590909090909,
                "pitch": 74,
                "velocity": 64,
                "duration": 0.22954545454545539,
                "tempo": 120.0
            },
            {
                "start_time": 31.347727272727273,
                "end_time": 31.38181818181818,
                "pitch": 72,
                "velocity": 64,
                "duration": 0.03409090909090651,
                "tempo": 120.0
            },
            {
                "start_time": 31.51590909090909,
                "end_time": 31.568181818181817,
                "pitch": 70,
                "velocity": 64,
                "duration": 0.052272727272725916,
                "tempo": 120.0
            },
            {
                "start_time": 31.709090909090907,
                "end_time": 31.761363636363633,
                "pitch": 67,
                "velocity": 64,
                "duration": 0.052272727272725916,
                "tempo": 120.0
            }
        ],
        "Acoustic Bass": [
            {
                "start_time": 0.038636363636363635,
                "end_time": 0.20454545454545453,
                "pitch": 36,
                "velocity": 51,
                "duration": 0.1659090909090909,
                "tempo": 120.0
            },
            {
                "start_time": 0.20454545454545453,
                "end_time": 0.40454545454545454,
                "pitch": 48,
                "velocity": 51,
                "duration": 0.2,
                "tempo": 120.0
            },
            {
                "start_time": 0.40454545454545454,
                "end_time": 0.5636363636363636,
                "pitch": 36,
                "velocity": 51,
                "duration": 0.15909090909090906,
                "tempo": 120.0
            },
            {
                "start_time": 0.5636363636363636,
                "end_time": 0.7749999999999999,
                "pitch": 48,
                "velocity": 51,
                "duration": 0.2113636363636363,
                "tempo": 120.0
            },
            {
                "start_time": 0.7749999999999999,
                "end_time": 0.9431818181818181,
                "pitch": 36,
                "velocity": 51,
                "duration": 0.1681818181818182,
                "tempo": 120.0
            },
            {
                "start_time": 0.9431818181818181,
                "end_time": 1.125,
                "pitch": 48,
                "velocity": 51,
                "duration": 0.18181818181818188,
                "tempo": 120.0
            },
            {
                "start_time": 1.125,
                "end_time": 1.2931818181818182,
                "pitch": 36,
                "velocity": 51,
                "duration": 0.1681818181818182,
                "tempo": 120.0
            },
            {
                "start_time": 1.2931818181818182,
                "end_time": 1.4931818181818182,
                "pitch": 48,
                "velocity": 51,
                "duration": 0.19999999999999996,
                "tempo": 120.0
            },
            {
                "start_time": 1.4931818181818182,
                "end_time": 1.6522727272727271,
                "pitch": 36,
                "velocity": 51,
                "duration": 0.15909090909090895,
                "tempo": 120.0
            },
            {
                "start_time": 1.6522727272727271,
                "end_time": 1.8636363636363635,
                "pitch": 48,
                "velocity": 51,
                "duration": 0.21136363636363642,
                "tempo": 120.0
            },
            {
                "start_time": 1.8636363636363635,
                "end_time": 2.047727272727273,
                "pitch": 36,
                "velocity": 51,
                "duration": 0.1840909090909093,
                "tempo": 120.0
            },
            {
                "start_time": 2.047727272727273,
                "end_time": 2.1977272727272728,
                "pitch": 48,
                "velocity": 51,
                "duration": 0.1499999999999999,
                "tempo": 120.0
            },
            {
                "start_time": 2.1977272727272728,
                "end_time": 2.3863636363636362,
                "pitch": 36,
                "velocity": 51,
                "duration": 0.1886363636363635,
                "tempo": 120.0
            },
            {
                "start_time": 2.3863636363636362,
                "end_time": 2.561363636363636,
                "pitch": 48,
                "velocity": 51,
                "duration": 0.17499999999999982,
                "tempo": 120.0
            },
            {
                "start_time": 2.561363636363636,
                "end_time": 2.743181818181818,
                "pitch": 36,
                "velocity": 51,
                "duration": 0.1818181818181821,
                "tempo": 120.0
            },
            {
                "start_time": 2.743181818181818,
                "end_time": 2.943181818181818,
                "pitch": 48,
                "velocity": 51,
                "duration": 0.19999999999999973,
                "tempo": 120.0
            },
            {
                "start_time": 2.943181818181818,
                "end_time": 3.1159090909090907,
                "pitch": 36,
                "velocity": 51,
                "duration": 0.17272727272727284,
                "tempo": 120.0
            },
            {
                "start_time": 3.1159090909090907,
                "end_time": 3.3045454545454542,
                "pitch": 48,
                "velocity": 51,
                "duration": 0.1886363636363635,
                "tempo": 120.0
            },
            {
                "start_time": 3.3045454545454542,
                "end_time": 3.468181818181818,
                "pitch": 36,
                "velocity": 51,
                "duration": 0.16363636363636358,
                "tempo": 120.0
            },
            {
                "start_time": 3.468181818181818,
                "end_time": 3.661363636363636,
                "pitch": 48,
                "velocity": 51,
                "duration": 0.19318181818181834,
                "tempo": 120.0
            },
            {
                "start_time": 3.661363636363636,
                "end_time": 3.8204545454545453,
                "pitch": 36,
                "velocity": 51,
                "duration": 0.15909090909090917,
                "tempo": 120.0
            },
            {
                "start_time": 3.8204545454545453,
                "end_time": 4.031818181818181,
                "pitch": 48,
                "velocity": 51,
                "duration": 0.21136363636363598,
                "tempo": 120.0
            },
            {
                "start_time": 4.031818181818181,
                "end_time": 4.204545454545454,
                "pitch": 36,
                "velocity": 51,
                "duration": 0.17272727272727284,
                "tempo": 120.0
            },
            {
                "start_time": 4.204545454545454,
                "end_time": 4.393181818181818,
                "pitch": 48,
                "velocity": 51,
                "duration": 0.1886363636363635,
                "tempo": 120.0
            },
            {
                "start_time": 4.393181818181818,
                "end_time": 4.5613636363636365,
                "pitch": 36,
                "velocity": 51,
                "duration": 0.16818181818181888,
                "tempo": 120.0
            },
            {
                "start_time": 4.5613636363636365,
                "end_time": 4.745454545454545,
                "pitch": 48,
                "velocity": 51,
                "duration": 0.18409090909090864,
                "tempo": 120.0
            },
            {
                "start_time": 4.745454545454545,
                "end_time": 4.929545454545455,
                "pitch": 36,
                "velocity": 51,
                "duration": 0.18409090909090953,
                "tempo": 120.0
            },
            {
                "start_time": 4.929545454545455,
                "end_time": 5.095454545454545,
                "pitch": 48,
                "velocity": 51,
                "duration": 0.16590909090909012,
                "tempo": 120.0
            },
            {
                "start_time": 5.095454545454545,
                "end_time": 5.290909090909091,
                "pitch": 36,
                "velocity": 51,
                "duration": 0.1954545454545462,
                "tempo": 120.0
            },
            {
                "start_time": 5.290909090909091,
                "end_time": 5.452272727272727,
                "pitch": 48,
                "velocity": 51,
                "duration": 0.16136363636363615,
                "tempo": 120.0
            },
            {
                "start_time": 5.452272727272727,
                "end_time": 5.6454545454545455,
                "pitch": 36,
                "velocity": 51,
                "duration": 0.19318181818181834,
                "tempo": 120.0
            },
            {
                "start_time": 5.6454545454545455,
                "end_time": 5.838636363636363,
                "pitch": 48,
                "velocity": 51,
                "duration": 0.19318181818181746,
                "tempo": 120.0
            },
            {
                "start_time": 5.838636363636363,
                "end_time": 5.99090909090909,
                "pitch": 43,
                "velocity": 51,
                "duration": 0.15227272727272734,
                "tempo": 120.0
            },
            {
                "start_time": 5.99090909090909,
                "end_time": 6.172727272727273,
                "pitch": 55,
                "velocity": 51,
                "duration": 0.18181818181818254,
                "tempo": 120.0
            },
            {
                "start_time": 6.172727272727273,
                "end_time": 6.3568181818181815,
                "pitch": 43,
                "velocity": 51,
                "duration": 0.18409090909090864,
                "tempo": 120.0
            },
            {
                "start_time": 6.3568181818181815,
                "end_time": 6.5249999999999995,
                "pitch": 55,
                "velocity": 51,
                "duration": 0.168181818181818,
                "tempo": 120.0
            },
            {
                "start_time": 6.5249999999999995,
                "end_time": 6.709090909090909,
                "pitch": 43,
                "velocity": 51,
                "duration": 0.18409090909090953,
                "tempo": 120.0
            },
            {
                "start_time": 6.709090909090909,
                "end_time": 6.890909090909091,
                "pitch": 55,
                "velocity": 51,
                "duration": 0.18181818181818166,
                "tempo": 120.0
            },
            {
                "start_time": 6.890909090909091,
                "end_time": 7.0681818181818175,
                "pitch": 43,
                "velocity": 51,
                "duration": 0.1772727272727268,
                "tempo": 120.0
            },
            {
                "start_time": 7.0681818181818175,
                "end_time": 7.279545454545454,
                "pitch": 55,
                "velocity": 51,
                "duration": 0.21136363636363686,
                "tempo": 120.0
            },
            {
                "start_time": 7.279545454545454,
                "end_time": 7.468181818181818,
                "pitch": 43,
                "velocity": 51,
                "duration": 0.1886363636363635,
                "tempo": 120.0
            },
            {
                "start_time": 7.468181818181818,
                "end_time": 7.640909090909091,
                "pitch": 55,
                "velocity": 51,
                "duration": 0.17272727272727284,
                "tempo": 120.0
            },
            {
                "start_time": 7.640909090909091,
                "end_time": 7.824999999999999,
                "pitch": 43,
                "velocity": 51,
                "duration": 0.18409090909090864,
                "tempo": 120.0
            },
            {
                "start_time": 7.824999999999999,
                "end_time": 8.009090909090908,
                "pitch": 55,
                "velocity": 51,
                "duration": 0.18409090909090864,
                "tempo": 120.0
            },
            {
                "start_time": 8.009090909090908,
                "end_time": 8.184090909090909,
                "pitch": 43,
                "velocity": 51,
                "duration": 0.1750000000000007,
                "tempo": 120.0
            },
            {
                "start_time": 8.184090909090909,
                "end_time": 8.377272727272727,
                "pitch": 55,
                "velocity": 51,
                "duration": 0.19318181818181834,
                "tempo": 120.0
            },
            {
                "start_time": 8.377272727272727,
                "end_time": 8.561363636363636,
                "pitch": 43,
                "velocity": 51,
                "duration": 0.18409090909090864,
                "tempo": 120.0
            },
            {
                "start_time": 8.561363636363636,
                "end_time": 8.729545454545454,
                "pitch": 55,
                "velocity": 51,
                "duration": 0.168181818181818,
                "tempo": 120.0
            },
            {
                "start_time": 8.729545454545454,
                "end_time": 8.895454545454545,
                "pitch": 36,
                "velocity": 51,
                "duration": 0.165909090909091,
                "tempo": 120.0
            },
            {
                "start_time": 8.895454545454545,
                "end_time": 9.097727272727273,
                "pitch": 48,
                "velocity": 51,
                "duration": 0.20227272727272805,
                "tempo": 120.0
            },
            {
                "start_time": 9.097727272727273,
                "end_time": 9.252272727272727,
                "pitch": 36,
                "velocity": 51,
                "duration": 0.15454545454545432,
                "tempo": 120.0
            },
            {
                "start_time": 9.252272727272727,
                "end_time": 9.456818181818182,
                "pitch": 48,
                "velocity": 51,
                "duration": 0.20454545454545503,
                "tempo": 120.0
            },
            {
                "start_time": 9.456818181818182,
                "end_time": 9.625,
                "pitch": 36,
                "velocity": 51,
                "duration": 0.168181818181818,
                "tempo": 120.0
            },
            {
                "start_time": 9.625,
                "end_time": 9.809090909090909,
                "pitch": 48,
                "velocity": 51,
                "duration": 0.18409090909090864,
                "tempo": 120.0
            },
            {
                "start_time": 9.809090909090909,
                "end_time": 9.975,
                "pitch": 36,
                "velocity": 51,
                "duration": 0.165909090909091,
                "tempo": 120.0
            },
            {
                "start_time": 9.975,
                "end_time": 10.174999999999999,
                "pitch": 48,
                "velocity": 51,
                "duration": 0.1999999999999993,
                "tempo": 120.0
            },
            {
                "start_time": 10.174999999999999,
                "end_time": 10.334090909090909,
                "pitch": 36,
                "velocity": 51,
                "duration": 0.15909090909091006,
                "tempo": 120.0
            },
            {
                "start_time": 10.334090909090909,
                "end_time": 10.545454545454545,
                "pitch": 48,
                "velocity": 51,
                "duration": 0.21136363636363598,
                "tempo": 120.0
            },
            {
                "start_time": 10.545454545454545,
                "end_time": 10.729545454545454,
                "pitch": 36,
                "velocity": 51,
                "duration": 0.18409090909090864,
                "tempo": 120.0
            },
            {
                "start_time": 10.729545454545454,
                "end_time": 10.879545454545454,
                "pitch": 48,
                "velocity": 51,
                "duration": 0.15000000000000036,
                "tempo": 120.0
            },
            {
                "start_time": 10.879545454545454,
                "end_time": 11.075,
                "pitch": 36,
                "velocity": 51,
                "duration": 0.19545454545454533,
                "tempo": 120.0
            },
            {
                "start_time": 11.075,
                "end_time": 11.254545454545454,
                "pitch": 48,
                "velocity": 51,
                "duration": 0.17954545454545467,
                "tempo": 120.0
            },
            {
                "start_time": 11.254545454545454,
                "end_time": 11.431818181818182,
                "pitch": 36,
                "velocity": 51,
                "duration": 0.1772727272727277,
                "tempo": 120.0
            },
            {
                "start_time": 11.431818181818182,
                "end_time": 11.625,
                "pitch": 48,
                "velocity": 51,
                "duration": 0.19318181818181834,
                "tempo": 120.0
            },
            {
                "start_time": 11.625,
                "end_time": 11.797727272727272,
                "pitch": 36,
                "velocity": 51,
                "duration": 0.17272727272727195,
                "tempo": 120.0
            },
            {
                "start_time": 11.797727272727272,
                "end_time": 11.986363636363636,
                "pitch": 48,
                "velocity": 51,
                "duration": 0.18863636363636438,
                "tempo": 120.0
            },
            {
                "start_time": 11.986363636363636,
                "end_time": 12.152272727272727,
                "pitch": 36,
                "velocity": 51,
                "duration": 0.165909090909091,
                "tempo": 120.0
            },
            {
                "start_time": 12.152272727272727,
                "end_time": 12.354545454545454,
                "pitch": 48,
                "velocity": 51,
                "duration": 0.20227272727272627,
                "tempo": 120.0
            },
            {
                "start_time": 12.354545454545454,
                "end_time": 12.509090909090908,
                "pitch": 36,
                "velocity": 51,
                "duration": 0.15454545454545432,
                "tempo": 120.0
            },
            {
                "start_time": 12.509090909090908,
                "end_time": 12.71590909090909,
                "pitch": 48,
                "velocity": 51,
                "duration": 0.206818181818182,
                "tempo": 120.0
            },
            {
                "start_time": 12.71590909090909,
                "end_time": 12.886363636363635,
                "pitch": 36,
                "velocity": 51,
                "duration": 0.17045454545454497,
                "tempo": 120.0
            },
            {
                "start_time": 12.886363636363635,
                "end_time": 13.077272727272726,
                "pitch": 48,
                "velocity": 51,
                "duration": 0.19090909090909136,
                "tempo": 120.0
            },
            {
                "start_time": 13.077272727272726,
                "end_time": 13.243181818181817,
                "pitch": 36,
                "velocity": 51,
                "duration": 0.165909090909091,
                "tempo": 120.0
            },
            {
                "start_time": 13.243181818181817,
                "end_time": 13.427272727272726,
                "pitch": 48,
                "velocity": 51,
                "duration": 0.18409090909090864,
                "tempo": 120.0
            },
            {
                "start_time": 13.427272727272726,
                "end_time": 13.61590909090909,
                "pitch": 36,
                "velocity": 51,
                "duration": 0.18863636363636438,
                "tempo": 120.0
            },
            {
                "start_time": 13.61590909090909,
                "end_time": 13.788636363636362,
                "pitch": 48,
                "velocity": 51,
                "duration": 0.17272727272727195,
                "tempo": 120.0
            },
            {
                "start_time": 13.788636363636362,
                "end_time": 13.984090909090908,
                "pitch": 36,
                "velocity": 51,
                "duration": 0.19545454545454533,
                "tempo": 120.0
            },
            {
                "start_time": 13.984090909090908,
                "end_time": 14.145454545454545,
                "pitch": 48,
                "velocity": 51,
                "duration": 0.16136363636363704,
                "tempo": 120.0
            },
            {
                "start_time": 14.145454545454545,
                "end_time": 14.334090909090909,
                "pitch": 36,
                "velocity": 51,
                "duration": 0.18863636363636438,
                "tempo": 120.0
            },
            {
                "start_time": 14.334090909090909,
                "end_time": 14.524999999999999,
                "pitch": 48,
                "velocity": 51,
                "duration": 0.19090909090908958,
                "tempo": 120.0
            },
            {
                "start_time": 14.524999999999999,
                "end_time": 14.679545454545455,
                "pitch": 43,
                "velocity": 51,
                "duration": 0.1545454545454561,
                "tempo": 120.0
            },
            {
                "start_time": 14.679545454545455,
                "end_time": 14.868181818181817,
                "pitch": 55,
                "velocity": 51,
                "duration": 0.1886363636363626,
                "tempo": 120.0
            },
            {
                "start_time": 14.868181818181817,
                "end_time": 15.047727272727272,
                "pitch": 43,
                "velocity": 51,
                "duration": 0.17954545454545467,
                "tempo": 120.0
            },
            {
                "start_time": 15.047727272727272,
                "end_time": 15.209090909090909,
                "pitch": 55,
                "velocity": 51,
                "duration": 0.16136363636363704,
                "tempo": 120.0
            },
            {
                "start_time": 15.209090909090909,
                "end_time": 15.393181818181818,
                "pitch": 43,
                "velocity": 51,
                "duration": 0.18409090909090864,
                "tempo": 120.0
            },
            {
                "start_time": 15.393181818181818,
                "end_time": 15.577272727272726,
                "pitch": 55,
                "velocity": 51,
                "duration": 0.18409090909090864,
                "tempo": 120.0
            },
            {
                "start_time": 15.577272727272726,
                "end_time": 15.752272727272727,
                "pitch": 43,
                "velocity": 51,
                "duration": 0.1750000000000007,
                "tempo": 120.0
            },
            {
                "start_time": 15.752272727272727,
                "end_time": 15.963636363636363,
                "pitch": 55,
                "velocity": 51,
                "duration": 0.21136363636363598,
                "tempo": 120.0
            },
            {
                "start_time": 15.963636363636363,
                "end_time": 16.136363636363637,
                "pitch": 43,
                "velocity": 51,
                "duration": 0.17272727272727373,
                "tempo": 120.0
            },
            {
                "start_time": 16.136363636363637,
                "end_time": 16.30909090909091,
                "pitch": 55,
                "velocity": 51,
                "duration": 0.17272727272727195,
                "tempo": 120.0
            },
            {
                "start_time": 16.30909090909091,
                "end_time": 16.486363636363635,
                "pitch": 43,
                "velocity": 51,
                "duration": 0.17727272727272592,
                "tempo": 120.0
            },
            {
                "start_time": 16.486363636363635,
                "end_time": 16.66590909090909,
                "pitch": 55,
                "velocity": 51,
                "duration": 0.17954545454545467,
                "tempo": 120.0
            },
            {
                "start_time": 16.66590909090909,
                "end_time": 16.83863636363636,
                "pitch": 43,
                "velocity": 51,
                "duration": 0.17272727272727195,
                "tempo": 120.0
            },
            {
                "start_time": 16.83863636363636,
                "end_time": 17.027272727272727,
                "pitch": 55,
                "velocity": 51,
                "duration": 0.18863636363636616,
                "tempo": 120.0
            },
            {
                "start_time": 17.027272727272727,
                "end_time": 17.220454545454544,
                "pitch": 43,
                "velocity": 51,
                "duration": 0.19318181818181657,
                "tempo": 120.0
            },
            {
                "start_time": 17.220454545454544,
                "end_time": 17.413636363636364,
                "pitch": 55,
                "velocity": 51,
                "duration": 0.19318181818182012,
                "tempo": 120.0
            },
            {
                "start_time": 17.413636363636364,
                "end_time": 17.581818181818182,
                "pitch": 39,
                "velocity": 51,
                "duration": 0.168181818181818,
                "tempo": 120.0
            },
            {
                "start_time": 17.581818181818182,
                "end_time": 17.76590909090909,
                "pitch": 51,
                "velocity": 51,
                "duration": 0.18409090909090864,
                "tempo": 120.0
            },
            {
                "start_time": 17.76590909090909,
                "end_time": 17.93181818181818,
                "pitch": 39,
                "velocity": 51,
                "duration": 0.16590909090908923,
                "tempo": 120.0
            },
            {
                "start_time": 17.93181818181818,
                "end_time": 18.11590909090909,
                "pitch": 51,
                "velocity": 51,
                "duration": 0.18409090909090864,
                "tempo": 120.0
            },
            {
                "start_time": 18.11590909090909,
                "end_time": 18.3,
                "pitch": 39,
                "velocity": 51,
                "duration": 0.1840909090909122,
                "tempo": 120.0
            },
            {
                "start_time": 18.3,
                "end_time": 18.48409090909091,
                "pitch": 51,
                "velocity": 51,
                "duration": 0.18409090909090864,
                "tempo": 120.0
            },
            {
                "start_time": 18.48409090909091,
                "end_time": 18.65681818181818,
                "pitch": 39,
                "velocity": 51,
                "duration": 0.17272727272727195,
                "tempo": 120.0
            },
            {
                "start_time": 18.65681818181818,
                "end_time": 18.861363636363635,
                "pitch": 51,
                "velocity": 51,
                "duration": 0.20454545454545325,
                "tempo": 120.0
            },
            {
                "start_time": 18.861363636363635,
                "end_time": 19.020454545454545,
                "pitch": 39,
                "velocity": 51,
                "duration": 0.15909090909091006,
                "tempo": 120.0
            },
            {
                "start_time": 19.020454545454545,
                "end_time": 19.21590909090909,
                "pitch": 51,
                "velocity": 51,
                "duration": 0.19545454545454533,
                "tempo": 120.0
            },
            {
                "start_time": 19.21590909090909,
                "end_time": 19.393181818181816,
                "pitch": 39,
                "velocity": 51,
                "duration": 0.17727272727272592,
                "tempo": 120.0
            },
            {
                "start_time": 19.393181818181816,
                "end_time": 19.55681818181818,
                "pitch": 51,
                "velocity": 51,
                "duration": 0.16363636363636402,
                "tempo": 120.0
            },
            {
                "start_time": 19.55681818181818,
                "end_time": 19.75681818181818,
                "pitch": 39,
                "velocity": 51,
                "duration": 0.1999999999999993,
                "tempo": 120.0
            },
            {
                "start_time": 19.75681818181818,
                "end_time": 19.94090909090909,
                "pitch": 51,
                "velocity": 51,
                "duration": 0.1840909090909122,
                "tempo": 120.0
            },
            {
                "start_time": 19.94090909090909,
                "end_time": 20.11590909090909,
                "pitch": 39,
                "velocity": 51,
                "duration": 0.17499999999999716,
                "tempo": 120.0
            },
            {
                "start_time": 20.11590909090909,
                "end_time": 20.311363636363634,
                "pitch": 51,
                "velocity": 51,
                "duration": 0.19545454545454533,
                "tempo": 120.0
            },
            {
                "start_time": 20.311363636363634,
                "end_time": 20.48181818181818,
                "pitch": 41,
                "velocity": 51,
                "duration": 0.17045454545454675,
                "tempo": 120.0
            },
            {
                "start_time": 20.48181818181818,
                "end_time": 20.654545454545453,
                "pitch": 53,
                "velocity": 51,
                "duration": 0.17272727272727195,
                "tempo": 120.0
            },
            {
                "start_time": 20.654545454545453,
                "end_time": 20.834090909090907,
                "pitch": 41,
                "velocity": 51,
                "duration": 0.17954545454545467,
                "tempo": 120.0
            },
            {
                "start_time": 20.834090909090907,
                "end_time": 21.011363636363637,
                "pitch": 53,
                "velocity": 51,
                "duration": 0.17727272727272947,
                "tempo": 120.0
            },
            {
                "start_time": 21.011363636363637,
                "end_time": 21.18409090909091,
                "pitch": 41,
                "velocity": 51,
                "duration": 0.17272727272727195,
                "tempo": 120.0
            },
            {
                "start_time": 21.18409090909091,
                "end_time": 21.39090909090909,
                "pitch": 53,
                "velocity": 51,
                "duration": 0.206818181818182,
                "tempo": 120.0
            },
            {
                "start_time": 21.39090909090909,
                "end_time": 21.568181818181817,
                "pitch": 41,
                "velocity": 51,
                "duration": 0.17727272727272592,
                "tempo": 120.0
            },
            {
                "start_time": 21.568181818181817,
                "end_time": 21.761363636363637,
                "pitch": 53,
                "velocity": 51,
                "duration": 0.19318181818182012,
                "tempo": 120.0
            },
            {
                "start_time": 21.761363636363637,
                "end_time": 21.927272727272726,
                "pitch": 41,
                "velocity": 51,
                "duration": 0.16590909090908923,
                "tempo": 120.0
            },
            {
                "start_time": 21.927272727272726,
                "end_time": 22.111363636363635,
                "pitch": 53,
                "velocity": 51,
                "duration": 0.18409090909090864,
                "tempo": 120.0
            },
            {
                "start_time": 22.111363636363635,
                "end_time": 22.279545454545453,
                "pitch": 41,
                "velocity": 51,
                "duration": 0.168181818181818,
                "tempo": 120.0
            },
            {
                "start_time": 22.279545454545453,
                "end_time": 22.46363636363636,
                "pitch": 53,
                "velocity": 51,
                "duration": 0.18409090909090864,
                "tempo": 120.0
            },
            {
                "start_time": 22.46363636363636,
                "end_time": 22.663636363636364,
                "pitch": 41,
                "velocity": 51,
                "duration": 0.20000000000000284,
                "tempo": 120.0
            },
            {
                "start_time": 22.663636363636364,
                "end_time": 22.829545454545453,
                "pitch": 53,
                "velocity": 51,
                "duration": 0.16590909090908923,
                "tempo": 120.0
            },
            {
                "start_time": 22.829545454545453,
                "end_time": 23.020454545454545,
                "pitch": 41,
                "velocity": 51,
                "duration": 0.19090909090909136,
                "tempo": 120.0
            },
            {
                "start_time": 23.020454545454545,
                "end_time": 23.209090909090907,
                "pitch": 53,
                "velocity": 51,
                "duration": 0.1886363636363626,
                "tempo": 120.0
            },
            {
                "start_time": 23.209090909090907,
                "end_time": 23.35909090909091,
                "pitch": 43,
                "velocity": 51,
                "duration": 0.15000000000000213,
                "tempo": 120.0
            },
            {
                "start_time": 23.35909090909091,
                "end_time": 23.543181818181818,
                "pitch": 55,
                "velocity": 51,
                "duration": 0.18409090909090864,
                "tempo": 120.0
            },
            {
                "start_time": 23.543181818181818,
                "end_time": 23.724999999999998,
                "pitch": 43,
                "velocity": 51,
                "duration": 0.18181818181817988,
                "tempo": 120.0
            },
            {
                "start_time": 23.724999999999998,
                "end_time": 23.893181818181816,
                "pitch": 55,
                "velocity": 51,
                "duration": 0.168181818181818,
                "tempo": 120.0
            },
            {
                "start_time": 23.893181818181816,
                "end_time": 24.081818181818182,
                "pitch": 43,
                "velocity": 51,
                "duration": 0.18863636363636616,
                "tempo": 120.0
            },
            {
                "start_time": 24.081818181818182,
                "end_time": 24.270454545454545,
                "pitch": 55,
                "velocity": 51,
                "duration": 0.1886363636363626,
                "tempo": 120.0
            },
            {
                "start_time": 24.270454545454545,
                "end_time": 24.443181818181817,
                "pitch": 43,
                "velocity": 51,
                "duration": 0.17272727272727195,
                "tempo": 120.0
            },
            {
                "start_time": 24.443181818181817,
                "end_time": 24.65,
                "pitch": 55,
                "velocity": 51,
                "duration": 0.206818181818182,
                "tempo": 120.0
            },
            {
                "start_time": 24.65,
                "end_time": 24.84318181818182,
                "pitch": 43,
                "velocity": 51,
                "duration": 0.19318181818182012,
                "tempo": 120.0
            },
            {
                "start_time": 24.84318181818182,
                "end_time": 25.020454545454545,
                "pitch": 55,
                "velocity": 51,
                "duration": 0.17727272727272592,
                "tempo": 120.0
            },
            {
                "start_time": 25.020454545454545,
                "end_time": 25.204545454545453,
                "pitch": 43,
                "velocity": 51,
                "duration": 0.18409090909090864,
                "tempo": 120.0
            },
            {
                "start_time": 25.204545454545453,
                "end_time": 25.388636363636362,
                "pitch": 55,
                "velocity": 51,
                "duration": 0.18409090909090864,
                "tempo": 120.0
            },
            {
                "start_time": 25.388636363636362,
                "end_time": 25.563636363636363,
                "pitch": 43,
                "velocity": 51,
                "duration": 0.1750000000000007,
                "tempo": 120.0
            },
            {
                "start_time": 25.563636363636363,
                "end_time": 25.75681818181818,
                "pitch": 55,
                "velocity": 51,
                "duration": 0.19318181818181657,
                "tempo": 120.0
            },
            {
                "start_time": 25.75681818181818,
                "end_time": 25.94090909090909,
                "pitch": 43,
                "velocity": 51,
                "duration": 0.1840909090909122,
                "tempo": 120.0
            },
            {
                "start_time": 25.94090909090909,
                "end_time": 26.10909090909091,
                "pitch": 55,
                "velocity": 51,
                "duration": 0.168181818181818,
                "tempo": 120.0
            },
            {
                "start_time": 26.10909090909091,
                "end_time": 26.275,
                "pitch": 43,
                "velocity": 51,
                "duration": 0.16590909090908923,
                "tempo": 120.0
            },
            {
                "start_time": 26.275,
                "end_time": 26.477272727272727,
                "pitch": 55,
                "velocity": 51,
                "duration": 0.20227272727272805,
                "tempo": 120.0
            },
            {
                "start_time": 26.477272727272727,
                "end_time": 26.63181818181818,
                "pitch": 43,
                "velocity": 51,
                "duration": 0.15454545454545254,
                "tempo": 120.0
            },
            {
                "start_time": 26.63181818181818,
                "end_time": 26.83863636363636,
                "pitch": 55,
                "velocity": 51,
                "duration": 0.206818181818182,
                "tempo": 120.0
            },
            {
                "start_time": 26.83863636363636,
                "end_time": 27.004545454545454,
                "pitch": 43,
                "velocity": 51,
                "duration": 0.16590909090909278,
                "tempo": 120.0
            },
            {
                "start_time": 27.004545454545454,
                "end_time": 27.188636363636363,
                "pitch": 55,
                "velocity": 51,
                "duration": 0.18409090909090864,
                "tempo": 120.0
            },
            {
                "start_time": 27.188636363636363,
                "end_time": 27.354545454545452,
                "pitch": 43,
                "velocity": 51,
                "duration": 0.16590909090908923,
                "tempo": 120.0
            },
            {
                "start_time": 27.354545454545452,
                "end_time": 27.55681818181818,
                "pitch": 55,
                "velocity": 51,
                "duration": 0.20227272727272805,
                "tempo": 120.0
            },
            {
                "start_time": 27.55681818181818,
                "end_time": 27.727272727272727,
                "pitch": 43,
                "velocity": 51,
                "duration": 0.17045454545454675,
                "tempo": 120.0
            },
            {
                "start_time": 27.727272727272727,
                "end_time": 27.9,
                "pitch": 55,
                "velocity": 51,
                "duration": 0.17272727272727195,
                "tempo": 120.0
            },
            {
                "start_time": 27.9,
                "end_time": 28.099999999999998,
                "pitch": 43,
                "velocity": 51,
                "duration": 0.1999999999999993,
                "tempo": 120.0
            },
            {
                "start_time": 28.099999999999998,
                "end_time": 28.252272727272725,
                "pitch": 55,
                "velocity": 51,
                "duration": 0.15227272727272734,
                "tempo": 120.0
            },
            {
                "start_time": 28.252272727272725,
                "end_time": 28.445454545454545,
                "pitch": 43,
                "velocity": 51,
                "duration": 0.19318181818182012,
                "tempo": 120.0
            },
            {
                "start_time": 28.445454545454545,
                "end_time": 28.625,
                "pitch": 55,
                "velocity": 51,
                "duration": 0.17954545454545467,
                "tempo": 120.0
            },
            {
                "start_time": 28.625,
                "end_time": 28.80681818181818,
                "pitch": 43,
                "velocity": 51,
                "duration": 0.18181818181817988,
                "tempo": 120.0
            },
            {
                "start_time": 28.80681818181818,
                "end_time": 29.00681818181818,
                "pitch": 55,
                "velocity": 51,
                "duration": 0.1999999999999993,
                "tempo": 120.0
            },
            {
                "start_time": 29.00681818181818,
                "end_time": 29.179545454545455,
                "pitch": 43,
                "velocity": 51,
                "duration": 0.1727272727272755,
                "tempo": 120.0
            },
            {
                "start_time": 29.179545454545455,
                "end_time": 29.368181818181817,
                "pitch": 55,
                "velocity": 51,
                "duration": 0.1886363636363626,
                "tempo": 120.0
            },
            {
                "start_time": 29.368181818181817,
                "end_time": 29.53181818181818,
                "pitch": 43,
                "velocity": 51,
                "duration": 0.16363636363636402,
                "tempo": 120.0
            },
            {
                "start_time": 29.53181818181818,
                "end_time": 29.724999999999998,
                "pitch": 55,
                "velocity": 51,
                "duration": 0.19318181818181657,
                "tempo": 120.0
            },
            {
                "start_time": 29.724999999999998,
                "end_time": 29.884090909090908,
                "pitch": 43,
                "velocity": 51,
                "duration": 0.15909090909091006,
                "tempo": 120.0
            },
            {
                "start_time": 29.884090909090908,
                "end_time": 30.095454545454544,
                "pitch": 55,
                "velocity": 51,
                "duration": 0.21136363636363598,
                "tempo": 120.0
            },
            {
                "start_time": 30.095454545454544,
                "end_time": 30.263636363636362,
                "pitch": 43,
                "velocity": 51,
                "duration": 0.168181818181818,
                "tempo": 120.0
            },
            {
                "start_time": 30.263636363636362,
                "end_time": 30.445454545454545,
                "pitch": 55,
                "velocity": 51,
                "duration": 0.18181818181818343,
                "tempo": 120.0
            },
            {
                "start_time": 30.445454545454545,
                "end_time": 30.636363636363633,
                "pitch": 43,
                "velocity": 51,
                "duration": 0.1909090909090878,
                "tempo": 120.0
            },
            {
                "start_time": 30.636363636363633,
                "end_time": 30.80681818181818,
                "pitch": 55,
                "velocity": 51,
                "duration": 0.17045454545454675,
                "tempo": 120.0
            },
            {
                "start_time": 30.80681818181818,
                "end_time": 30.986363636363635,
                "pitch": 43,
                "velocity": 51,
                "duration": 0.17954545454545467,
                "tempo": 120.0
            },
            {
                "start_time": 30.986363636363635,
                "end_time": 31.14772727272727,
                "pitch": 55,
                "velocity": 51,
                "duration": 0.16136363636363527,
                "tempo": 120.0
            },
            {
                "start_time": 31.14772727272727,
                "end_time": 31.347727272727273,
                "pitch": 43,
                "velocity": 51,
                "duration": 0.20000000000000284,
                "tempo": 120.0
            },
            {
                "start_time": 31.347727272727273,
                "end_time": 31.51590909090909,
                "pitch": 55,
                "velocity": 51,
                "duration": 0.168181818181818,
                "tempo": 120.0
            },
            {
                "start_time": 31.51590909090909,
                "end_time": 31.709090909090907,
                "pitch": 43,
                "velocity": 51,
                "duration": 0.19318181818181657,
                "tempo": 120.0
            },
            {
                "start_time": 31.709090909090907,
                "end_time": 31.904545454545453,
                "pitch": 55,
                "velocity": 51,
                "duration": 0.19545454545454533,
                "tempo": 120.0
            }
        ]
    }
}