{
    "track_id": "Maze Hunter 3-D (FM) - 02 - Metal Area",
    "mood": "happy",
    "instruments": {
        "Church Organ": [
            {
                "start_time": 0.004545454545454545,
                "end_time": 1.784090909090909,
                "pitch": 74,
                "velocity": 64,
                "duration": 1.7795454545454543,
                "tempo": 120.0
            },
            {
                "start_time": 1.7999999999999998,
                "end_time": 2.3863636363636362,
                "pitch": 74,
                "velocity": 64,
                "duration": 0.5863636363636364,
                "tempo": 120.0
            },
            {
                "start_time": 2.4045454545454543,
                "end_time": 4.193181818181818,
                "pitch": 69,
                "velocity": 64,
                "duration": 1.788636363636364,
                "tempo": 120.0
            },
            {
                "start_time": 4.209090909090909,
                "end_time": 4.345454545454546,
                "pitch": 76,
                "velocity": 64,
                "duration": 0.1363636363636367,
                "tempo": 120.0
            },
            {
                "start_time": 4.363636363636363,
                "end_time": 4.502272727272727,
                "pitch": 74,
                "velocity": 64,
                "duration": 0.13863636363636367,
                "tempo": 120.0
            },
            {
                "start_time": 4.518181818181818,
                "end_time": 4.6477272727272725,
                "pitch": 71,
                "velocity": 64,
                "duration": 0.12954545454545485,
                "tempo": 120.0
            },
            {
                "start_time": 4.663636363636363,
                "end_time": 6.597727272727273,
                "pitch": 64,
                "velocity": 64,
                "duration": 1.9340909090909095,
                "tempo": 120.0
            },
            {
                "start_time": 6.613636363636363,
                "end_time": 7.047727272727272,
                "pitch": 66,
                "velocity": 64,
                "duration": 0.43409090909090864,
                "tempo": 120.0
            },
            {
                "start_time": 7.0636363636363635,
                "end_time": 9.002272727272727,
                "pitch": 66,
                "velocity": 64,
                "duration": 1.9386363636363635,
                "tempo": 120.0
            },
            {
                "start_time": 9.018181818181818,
                "end_time": 9.604545454545454,
                "pitch": 69,
                "velocity": 64,
                "duration": 0.586363636363636,
                "tempo": 120.0
            },
            {
                "start_time": 9.620454545454544,
                "end_time": 11.409090909090908,
                "pitch": 73,
                "velocity": 64,
                "duration": 1.788636363636364,
                "tempo": 120.0
            },
            {
                "start_time": 11.424999999999999,
                "end_time": 12.009090909090908,
                "pitch": 76,
                "velocity": 64,
                "duration": 0.584090909090909,
                "tempo": 120.0
            },
            {
                "start_time": 12.024999999999999,
                "end_time": 13.81590909090909,
                "pitch": 71,
                "velocity": 64,
                "duration": 1.790909090909091,
                "tempo": 120.0
            },
            {
                "start_time": 13.831818181818182,
                "end_time": 14.268181818181818,
                "pitch": 69,
                "velocity": 64,
                "duration": 0.4363636363636356,
                "tempo": 120.0
            },
            {
                "start_time": 14.284090909090908,
                "end_time": 16.222727272727273,
                "pitch": 76,
                "velocity": 64,
                "duration": 1.9386363636363644,
                "tempo": 120.0
            },
            {
                "start_time": 16.238636363636363,
                "end_time": 16.522727272727273,
                "pitch": 76,
                "velocity": 64,
                "duration": 0.28409090909091006,
                "tempo": 120.0
            },
            {
                "start_time": 16.538636363636364,
                "end_time": 16.672727272727272,
                "pitch": 74,
                "velocity": 64,
                "duration": 0.13409090909090793,
                "tempo": 120.0
            },
            {
                "start_time": 16.688636363636363,
                "end_time": 19.23181818181818,
                "pitch": 73,
                "velocity": 64,
                "duration": 2.543181818181818,
                "tempo": 120.0
            },
            {
                "start_time": 19.25,
                "end_time": 21.04090909090909,
                "pitch": 74,
                "velocity": 64,
                "duration": 1.7909090909090892,
                "tempo": 120.0
            },
            {
                "start_time": 21.05681818181818,
                "end_time": 21.643181818181816,
                "pitch": 74,
                "velocity": 64,
                "duration": 0.586363636363636,
                "tempo": 120.0
            },
            {
                "start_time": 21.659090909090907,
                "end_time": 23.44772727272727,
                "pitch": 69,
                "velocity": 64,
                "duration": 1.788636363636364,
                "tempo": 120.0
            },
            {
                "start_time": 23.46590909090909,
                "end_time": 23.597727272727273,
                "pitch": 76,
                "velocity": 64,
                "duration": 0.13181818181818272,
                "tempo": 120.0
            },
            {
                "start_time": 23.61590909090909,
                "end_time": 23.74772727272727,
                "pitch": 74,
                "velocity": 64,
                "duration": 0.13181818181818272,
                "tempo": 120.0
            },
            {
                "start_time": 23.76590909090909,
                "end_time": 23.9,
                "pitch": 71,
                "velocity": 64,
                "duration": 0.13409090909090793,
                "tempo": 120.0
            },
            {
                "start_time": 23.91590909090909,
                "end_time": 25.85681818181818,
                "pitch": 64,
                "velocity": 64,
                "duration": 1.9409090909090914,
                "tempo": 120.0
            },
            {
                "start_time": 25.875,
                "end_time": 26.30909090909091,
                "pitch": 66,
                "velocity": 64,
                "duration": 0.43409090909090864,
                "tempo": 120.0
            },
            {
                "start_time": 26.327272727272724,
                "end_time": 28.26590909090909,
                "pitch": 66,
                "velocity": 64,
                "duration": 1.9386363636363662,
                "tempo": 120.0
            },
            {
                "start_time": 28.28181818181818,
                "end_time": 28.868181818181817,
                "pitch": 69,
                "velocity": 64,
                "duration": 0.586363636363636,
                "tempo": 120.0
            },
            {
                "start_time": 28.884090909090908,
                "end_time": 30.674999999999997,
                "pitch": 73,
                "velocity": 64,
                "duration": 1.7909090909090892,
                "tempo": 120.0
            },
            {
                "start_time": 30.690909090909088,
                "end_time": 31.277272727272727,
                "pitch": 76,
                "velocity": 64,
                "duration": 0.5863636363636395,
                "tempo": 120.0
            },
            {
                "start_time": 31.293181818181818,
                "end_time": 33.08409090909091,
                "pitch": 71,
                "velocity": 64,
                "duration": 1.7909090909090928,
                "tempo": 120.0
            },
            {
                "start_time": 33.1,
                "end_time": 33.53181818181818,
                "pitch": 69,
                "velocity": 64,
                "duration": 0.4318181818181799,
                "tempo": 120.0
            },
            {
                "start_time": 33.55,
                "end_time": 35.48863636363636,
                "pitch": 76,
                "velocity": 64,
                "duration": 1.9386363636363626,
                "tempo": 120.0
            },
            {
                "start_time": 35.50454545454545,
                "end_time": 35.78636363636363,
                "pitch": 76,
                "velocity": 64,
                "duration": 0.2818181818181813,
                "tempo": 120.0
            },
            {
                "start_time": 35.804545454545455,
                "end_time": 35.93863636363636,
                "pitch": 74,
                "velocity": 64,
                "duration": 0.13409090909090793,
                "tempo": 120.0
            },
            {
                "start_time": 35.95454545454545,
                "end_time": 38.49318181818182,
                "pitch": 73,
                "velocity": 64,
                "duration": 2.538636363636364,
                "tempo": 120.0
            },
            {
                "start_time": 38.51136363636363,
                "end_time": 39.39545454545454,
                "pitch": 67,
                "velocity": 64,
                "duration": 0.8840909090909079,
                "tempo": 120.0
            },
            {
                "start_time": 39.41136363636363,
                "end_time": 40.9,
                "pitch": 78,
                "velocity": 64,
                "duration": 1.4886363636363669,
                "tempo": 120.0
            },
            {
                "start_time": 40.91590909090909,
                "end_time": 41.81136363636364,
                "pitch": 69,
                "velocity": 64,
                "duration": 0.8954545454545482,
                "tempo": 120.0
            },
            {
                "start_time": 41.82727272727273,
                "end_time": 43.304545454545455,
                "pitch": 78,
                "velocity": 64,
                "duration": 1.4772727272727266,
                "tempo": 120.0
            },
            {
                "start_time": 43.32272727272727,
                "end_time": 44.209090909090904,
                "pitch": 71,
                "velocity": 64,
                "duration": 0.8863636363636331,
                "tempo": 120.0
            },
            {
                "start_time": 44.224999999999994,
                "end_time": 46.42045454545455,
                "pitch": 78,
                "velocity": 64,
                "duration": 2.1954545454545524,
                "tempo": 120.0
            },
            {
                "start_time": 48.143181818181816,
                "end_time": 49.02954545454545,
                "pitch": 67,
                "velocity": 64,
                "duration": 0.8863636363636331,
                "tempo": 120.0
            },
            {
                "start_time": 49.04545454545454,
                "end_time": 50.53181818181818,
                "pitch": 78,
                "velocity": 64,
                "duration": 1.4863636363636417,
                "tempo": 120.0
            },
            {
                "start_time": 50.55,
                "end_time": 51.434090909090905,
                "pitch": 69,
                "velocity": 64,
                "duration": 0.8840909090909079,
                "tempo": 120.0
            },
            {
                "start_time": 51.45227272727273,
                "end_time": 52.929545454545455,
                "pitch": 78,
                "velocity": 64,
                "duration": 1.4772727272727266,
                "tempo": 120.0
            },
            {
                "start_time": 52.94772727272727,
                "end_time": 53.83181818181818,
                "pitch": 71,
                "velocity": 64,
                "duration": 0.8840909090909079,
                "tempo": 120.0
            },
            {
                "start_time": 53.84772727272727,
                "end_time": 56.03636363636363,
                "pitch": 78,
                "velocity": 64,
                "duration": 2.1886363636363626,
                "tempo": 120.0
            }
        ],
        "Acoustic Bass": [
            {
                "start_time": 0.022727272727272728,
                "end_time": 0.1409090909090909,
                "pitch": 35,
                "velocity": 64,
                "duration": 0.11818181818181817,
                "tempo": 120.0
            },
            {
                "start_time": 0.1568181818181818,
                "end_time": 0.8909090909090909,
                "pitch": 35,
                "velocity": 64,
                "duration": 0.7340909090909091,
                "tempo": 120.0
            },
            {
                "start_time": 0.9090909090909091,
                "end_time": 1.0363636363636364,
                "pitch": 35,
                "velocity": 64,
                "duration": 0.12727272727272732,
                "tempo": 120.0
            },
            {
                "start_time": 1.0545454545454545,
                "end_time": 1.134090909090909,
                "pitch": 35,
                "velocity": 64,
                "duration": 0.07954545454545459,
                "tempo": 120.0
            },
            {
                "start_time": 1.7999999999999998,
                "end_time": 1.934090909090909,
                "pitch": 30,
                "velocity": 64,
                "duration": 0.13409090909090926,
                "tempo": 120.0
            },
            {
                "start_time": 1.9522727272727272,
                "end_time": 2.0863636363636364,
                "pitch": 33,
                "velocity": 64,
                "duration": 0.13409090909090926,
                "tempo": 120.0
            },
            {
                "start_time": 2.102272727272727,
                "end_time": 2.3863636363636362,
                "pitch": 30,
                "velocity": 64,
                "duration": 0.28409090909090917,
                "tempo": 120.0
            },
            {
                "start_time": 2.4045454545454543,
                "end_time": 2.536363636363636,
                "pitch": 35,
                "velocity": 64,
                "duration": 0.13181818181818183,
                "tempo": 120.0
            },
            {
                "start_time": 2.5545454545454542,
                "end_time": 2.6363636363636362,
                "pitch": 35,
                "velocity": 64,
                "duration": 0.08181818181818201,
                "tempo": 120.0
            },
            {
                "start_time": 3.315909090909091,
                "end_time": 3.4454545454545453,
                "pitch": 35,
                "velocity": 64,
                "duration": 0.1295454545454544,
                "tempo": 120.0
            },
            {
                "start_time": 3.461363636363636,
                "end_time": 3.543181818181818,
                "pitch": 35,
                "velocity": 64,
                "duration": 0.08181818181818201,
                "tempo": 120.0
            },
            {
                "start_time": 4.209090909090909,
                "end_time": 4.345454545454546,
                "pitch": 30,
                "velocity": 64,
                "duration": 0.1363636363636367,
                "tempo": 120.0
            },
            {
                "start_time": 4.363636363636363,
                "end_time": 4.502272727272727,
                "pitch": 33,
                "velocity": 64,
                "duration": 0.13863636363636367,
                "tempo": 120.0
            },
            {
                "start_time": 4.518181818181818,
                "end_time": 4.793181818181818,
                "pitch": 28,
                "velocity": 64,
                "duration": 0.27500000000000036,
                "tempo": 120.0
            },
            {
                "start_time": 4.809090909090909,
                "end_time": 4.943181818181818,
                "pitch": 35,
                "velocity": 64,
                "duration": 0.1340909090909097,
                "tempo": 120.0
            },
            {
                "start_time": 4.959090909090909,
                "end_time": 5.704545454545454,
                "pitch": 35,
                "velocity": 64,
                "duration": 0.7454545454545451,
                "tempo": 120.0
            },
            {
                "start_time": 5.720454545454545,
                "end_time": 5.85,
                "pitch": 35,
                "velocity": 64,
                "duration": 0.12954545454545485,
                "tempo": 120.0
            },
            {
                "start_time": 5.86590909090909,
                "end_time": 5.947727272727272,
                "pitch": 35,
                "velocity": 64,
                "duration": 0.08181818181818201,
                "tempo": 120.0
            },
            {
                "start_time": 6.613636363636363,
                "end_time": 6.747727272727272,
                "pitch": 30,
                "velocity": 64,
                "duration": 0.13409090909090882,
                "tempo": 120.0
            },
            {
                "start_time": 6.763636363636364,
                "end_time": 6.8977272727272725,
                "pitch": 33,
                "velocity": 64,
                "duration": 0.13409090909090882,
                "tempo": 120.0
            },
            {
                "start_time": 6.913636363636363,
                "end_time": 7.197727272727272,
                "pitch": 30,
                "velocity": 64,
                "duration": 0.28409090909090917,
                "tempo": 120.0
            },
            {
                "start_time": 7.215909090909091,
                "end_time": 7.347727272727273,
                "pitch": 35,
                "velocity": 64,
                "duration": 0.13181818181818183,
                "tempo": 120.0
            },
            {
                "start_time": 7.36590909090909,
                "end_time": 7.447727272727272,
                "pitch": 35,
                "velocity": 64,
                "duration": 0.08181818181818201,
                "tempo": 120.0
            },
            {
                "start_time": 8.125,
                "end_time": 8.254545454545454,
                "pitch": 35,
                "velocity": 64,
                "duration": 0.12954545454545396,
                "tempo": 120.0
            },
            {
                "start_time": 8.270454545454545,
                "end_time": 8.352272727272727,
                "pitch": 35,
                "velocity": 64,
                "duration": 0.08181818181818201,
                "tempo": 120.0
            },
            {
                "start_time": 9.018181818181818,
                "end_time": 9.156818181818181,
                "pitch": 30,
                "velocity": 64,
                "duration": 0.13863636363636367,
                "tempo": 120.0
            },
            {
                "start_time": 9.172727272727272,
                "end_time": 9.311363636363636,
                "pitch": 33,
                "velocity": 64,
                "duration": 0.13863636363636367,
                "tempo": 120.0
            },
            {
                "start_time": 9.327272727272726,
                "end_time": 9.604545454545454,
                "pitch": 28,
                "velocity": 64,
                "duration": 0.27727272727272734,
                "tempo": 120.0
            },
            {
                "start_time": 9.620454545454544,
                "end_time": 9.752272727272727,
                "pitch": 35,
                "velocity": 64,
                "duration": 0.13181818181818272,
                "tempo": 120.0
            },
            {
                "start_time": 9.770454545454545,
                "end_time": 10.513636363636364,
                "pitch": 35,
                "velocity": 64,
                "duration": 0.743181818181819,
                "tempo": 120.0
            },
            {
                "start_time": 10.531818181818181,
                "end_time": 10.661363636363635,
                "pitch": 35,
                "velocity": 64,
                "duration": 0.12954545454545396,
                "tempo": 120.0
            },
            {
                "start_time": 10.677272727272726,
                "end_time": 10.759090909090908,
                "pitch": 35,
                "velocity": 64,
                "duration": 0.08181818181818201,
                "tempo": 120.0
            },
            {
                "start_time": 11.424999999999999,
                "end_time": 11.561363636363636,
                "pitch": 30,
                "velocity": 64,
                "duration": 0.1363636363636367,
                "tempo": 120.0
            },
            {
                "start_time": 11.579545454545453,
                "end_time": 11.718181818181817,
                "pitch": 33,
                "velocity": 64,
                "duration": 0.13863636363636367,
                "tempo": 120.0
            },
            {
                "start_time": 11.73409090909091,
                "end_time": 12.009090909090908,
                "pitch": 30,
                "velocity": 64,
                "duration": 0.2749999999999986,
                "tempo": 120.0
            },
            {
                "start_time": 12.024999999999999,
                "end_time": 12.159090909090908,
                "pitch": 35,
                "velocity": 64,
                "duration": 0.1340909090909097,
                "tempo": 120.0
            },
            {
                "start_time": 12.177272727272726,
                "end_time": 12.261363636363635,
                "pitch": 35,
                "velocity": 64,
                "duration": 0.084090909090909,
                "tempo": 120.0
            },
            {
                "start_time": 12.938636363636363,
                "end_time": 13.068181818181818,
                "pitch": 35,
                "velocity": 64,
                "duration": 0.12954545454545574,
                "tempo": 120.0
            },
            {
                "start_time": 13.084090909090909,
                "end_time": 13.165909090909091,
                "pitch": 35,
                "velocity": 64,
                "duration": 0.08181818181818201,
                "tempo": 120.0
            },
            {
                "start_time": 13.831818181818182,
                "end_time": 13.96590909090909,
                "pitch": 30,
                "velocity": 64,
                "duration": 0.13409090909090793,
                "tempo": 120.0
            },
            {
                "start_time": 13.984090909090908,
                "end_time": 14.118181818181817,
                "pitch": 33,
                "velocity": 64,
                "duration": 0.1340909090909097,
                "tempo": 120.0
            },
            {
                "start_time": 14.134090909090908,
                "end_time": 14.418181818181818,
                "pitch": 28,
                "velocity": 64,
                "duration": 0.28409090909091006,
                "tempo": 120.0
            },
            {
                "start_time": 14.434090909090909,
                "end_time": 14.568181818181818,
                "pitch": 35,
                "velocity": 64,
                "duration": 0.1340909090909097,
                "tempo": 120.0
            },
            {
                "start_time": 14.584090909090909,
                "end_time": 15.329545454545453,
                "pitch": 35,
                "velocity": 64,
                "duration": 0.7454545454545443,
                "tempo": 120.0
            },
            {
                "start_time": 15.345454545454544,
                "end_time": 15.475,
                "pitch": 35,
                "velocity": 64,
                "duration": 0.12954545454545574,
                "tempo": 120.0
            },
            {
                "start_time": 15.49090909090909,
                "end_time": 15.572727272727272,
                "pitch": 35,
                "velocity": 64,
                "duration": 0.08181818181818201,
                "tempo": 120.0
            },
            {
                "start_time": 16.238636363636363,
                "end_time": 16.37272727272727,
                "pitch": 30,
                "velocity": 64,
                "duration": 0.13409090909090793,
                "tempo": 120.0
            },
            {
                "start_time": 16.388636363636362,
                "end_time": 16.522727272727273,
                "pitch": 33,
                "velocity": 64,
                "duration": 0.13409090909091148,
                "tempo": 120.0
            },
            {
                "start_time": 16.538636363636364,
                "end_time": 16.82272727272727,
                "pitch": 30,
                "velocity": 64,
                "duration": 0.2840909090909065,
                "tempo": 120.0
            },
            {
                "start_time": 16.84090909090909,
                "end_time": 16.974999999999998,
                "pitch": 35,
                "velocity": 64,
                "duration": 0.13409090909090793,
                "tempo": 120.0
            },
            {
                "start_time": 16.99090909090909,
                "end_time": 17.075,
                "pitch": 35,
                "velocity": 64,
                "duration": 0.08409090909091077,
                "tempo": 120.0
            },
            {
                "start_time": 17.743181818181817,
                "end_time": 17.877272727272725,
                "pitch": 35,
                "velocity": 64,
                "duration": 0.13409090909090793,
                "tempo": 120.0
            },
            {
                "start_time": 17.893181818181816,
                "end_time": 17.977272727272727,
                "pitch": 35,
                "velocity": 64,
                "duration": 0.08409090909091077,
                "tempo": 120.0
            },
            {
                "start_time": 18.647727272727273,
                "end_time": 18.78181818181818,
                "pitch": 30,
                "velocity": 64,
                "duration": 0.13409090909090793,
                "tempo": 120.0
            },
            {
                "start_time": 18.797727272727272,
                "end_time": 18.93181818181818,
                "pitch": 33,
                "velocity": 64,
                "duration": 0.13409090909090793,
                "tempo": 120.0
            },
            {
                "start_time": 18.95,
                "end_time": 19.23181818181818,
                "pitch": 28,
                "velocity": 64,
                "duration": 0.2818181818181813,
                "tempo": 120.0
            },
            {
                "start_time": 19.25,
                "end_time": 19.384090909090908,
                "pitch": 35,
                "velocity": 64,
                "duration": 0.13409090909090793,
                "tempo": 120.0
            },
            {
                "start_time": 19.4,
                "end_time": 20.136363636363637,
                "pitch": 35,
                "velocity": 64,
                "duration": 0.7363636363636381,
                "tempo": 120.0
            },
            {
                "start_time": 20.154545454545453,
                "end_time": 20.288636363636364,
                "pitch": 35,
                "velocity": 64,
                "duration": 0.13409090909091148,
                "tempo": 120.0
            },
            {
                "start_time": 20.304545454545455,
                "end_time": 20.388636363636362,
                "pitch": 35,
                "velocity": 64,
                "duration": 0.08409090909090722,
                "tempo": 120.0
            },
            {
                "start_time": 21.05681818181818,
                "end_time": 21.19090909090909,
                "pitch": 30,
                "velocity": 64,
                "duration": 0.13409090909091148,
                "tempo": 120.0
            },
            {
                "start_time": 21.206818181818182,
                "end_time": 21.34090909090909,
                "pitch": 33,
                "velocity": 64,
                "duration": 0.13409090909090793,
                "tempo": 120.0
            },
            {
                "start_time": 21.35909090909091,
                "end_time": 21.643181818181816,
                "pitch": 30,
                "velocity": 64,
                "duration": 0.2840909090909065,
                "tempo": 120.0
            },
            {
                "start_time": 21.659090909090907,
                "end_time": 21.793181818181818,
                "pitch": 35,
                "velocity": 64,
                "duration": 0.13409090909091148,
                "tempo": 120.0
            },
            {
                "start_time": 21.811363636363634,
                "end_time": 21.895454545454545,
                "pitch": 35,
                "velocity": 64,
                "duration": 0.08409090909091077,
                "tempo": 120.0
            },
            {
                "start_time": 22.57272727272727,
                "end_time": 22.702272727272724,
                "pitch": 35,
                "velocity": 64,
                "duration": 0.12954545454545396,
                "tempo": 120.0
            },
            {
                "start_time": 22.71818181818182,
                "end_time": 22.797727272727272,
                "pitch": 35,
                "velocity": 64,
                "duration": 0.07954545454545325,
                "tempo": 120.0
            },
            {
                "start_time": 23.46590909090909,
                "end_time": 23.597727272727273,
                "pitch": 30,
                "velocity": 64,
                "duration": 0.13181818181818272,
                "tempo": 120.0
            },
            {
                "start_time": 23.61590909090909,
                "end_time": 23.74772727272727,
                "pitch": 33,
                "velocity": 64,
                "duration": 0.13181818181818272,
                "tempo": 120.0
            },
            {
                "start_time": 23.76590909090909,
                "end_time": 24.049999999999997,
                "pitch": 28,
                "velocity": 64,
                "duration": 0.2840909090909065,
                "tempo": 120.0
            },
            {
                "start_time": 24.06590909090909,
                "end_time": 24.2,
                "pitch": 35,
                "velocity": 64,
                "duration": 0.13409090909090793,
                "tempo": 120.0
            },
            {
                "start_time": 24.21818181818182,
                "end_time": 24.96363636363636,
                "pitch": 35,
                "velocity": 64,
                "duration": 0.7454545454545425,
                "tempo": 120.0
            },
            {
                "start_time": 24.979545454545452,
                "end_time": 25.10909090909091,
                "pitch": 35,
                "velocity": 64,
                "duration": 0.12954545454545752,
                "tempo": 120.0
            },
            {
                "start_time": 25.125,
                "end_time": 25.206818181818182,
                "pitch": 35,
                "velocity": 64,
                "duration": 0.08181818181818201,
                "tempo": 120.0
            },
            {
                "start_time": 25.875,
                "end_time": 26.009090909090908,
                "pitch": 30,
                "velocity": 64,
                "duration": 0.13409090909090793,
                "tempo": 120.0
            },
            {
                "start_time": 26.025,
                "end_time": 26.159090909090907,
                "pitch": 33,
                "velocity": 64,
                "duration": 0.13409090909090793,
                "tempo": 120.0
            },
            {
                "start_time": 26.174999999999997,
                "end_time": 26.461363636363636,
                "pitch": 30,
                "velocity": 64,
                "duration": 0.2863636363636388,
                "tempo": 120.0
            },
            {
                "start_time": 26.477272727272727,
                "end_time": 26.611363636363635,
                "pitch": 35,
                "velocity": 64,
                "duration": 0.13409090909090793,
                "tempo": 120.0
            },
            {
                "start_time": 26.627272727272725,
                "end_time": 26.711363636363636,
                "pitch": 35,
                "velocity": 64,
                "duration": 0.08409090909091077,
                "tempo": 120.0
            },
            {
                "start_time": 27.388636363636362,
                "end_time": 27.518181818181816,
                "pitch": 35,
                "velocity": 64,
                "duration": 0.12954545454545396,
                "tempo": 120.0
            },
            {
                "start_time": 27.534090909090907,
                "end_time": 27.61590909090909,
                "pitch": 35,
                "velocity": 64,
                "duration": 0.08181818181818201,
                "tempo": 120.0
            },
            {
                "start_time": 28.28181818181818,
                "end_time": 28.41590909090909,
                "pitch": 30,
                "velocity": 64,
                "duration": 0.13409090909090793,
                "tempo": 120.0
            },
            {
                "start_time": 28.43181818181818,
                "end_time": 28.565909090909088,
                "pitch": 33,
                "velocity": 64,
                "duration": 0.13409090909090793,
                "tempo": 120.0
            },
            {
                "start_time": 28.584090909090907,
                "end_time": 28.868181818181817,
                "pitch": 28,
                "velocity": 64,
                "duration": 0.28409090909091006,
                "tempo": 120.0
            },
            {
                "start_time": 28.884090909090908,
                "end_time": 29.018181818181816,
                "pitch": 35,
                "velocity": 64,
                "duration": 0.13409090909090793,
                "tempo": 120.0
            },
            {
                "start_time": 29.036363636363635,
                "end_time": 29.770454545454545,
                "pitch": 35,
                "velocity": 64,
                "duration": 0.7340909090909093,
                "tempo": 120.0
            },
            {
                "start_time": 29.78863636363636,
                "end_time": 29.922727272727272,
                "pitch": 35,
                "velocity": 64,
                "duration": 0.13409090909091148,
                "tempo": 120.0
            },
            {
                "start_time": 29.938636363636363,
                "end_time": 30.02272727272727,
                "pitch": 35,
                "velocity": 64,
                "duration": 0.08409090909090722,
                "tempo": 120.0
            },
            {
                "start_time": 30.690909090909088,
                "end_time": 30.829545454545453,
                "pitch": 30,
                "velocity": 64,
                "duration": 0.13863636363636545,
                "tempo": 120.0
            },
            {
                "start_time": 30.845454545454544,
                "end_time": 30.98409090909091,
                "pitch": 33,
                "velocity": 64,
                "duration": 0.13863636363636545,
                "tempo": 120.0
            },
            {
                "start_time": 31.002272727272725,
                "end_time": 31.277272727272727,
                "pitch": 30,
                "velocity": 64,
                "duration": 0.27500000000000213,
                "tempo": 120.0
            },
            {
                "start_time": 31.293181818181818,
                "end_time": 31.427272727272726,
                "pitch": 35,
                "velocity": 64,
                "duration": 0.13409090909090793,
                "tempo": 120.0
            },
            {
                "start_time": 31.443181818181817,
                "end_time": 31.527272727272727,
                "pitch": 35,
                "velocity": 64,
                "duration": 0.08409090909091077,
                "tempo": 120.0
            },
            {
                "start_time": 32.20681818181818,
                "end_time": 32.336363636363636,
                "pitch": 35,
                "velocity": 64,
                "duration": 0.12954545454545752,
                "tempo": 120.0
            },
            {
                "start_time": 32.35227272727273,
                "end_time": 32.434090909090905,
                "pitch": 35,
                "velocity": 64,
                "duration": 0.08181818181817846,
                "tempo": 120.0
            },
            {
                "start_time": 33.1,
                "end_time": 33.23181818181818,
                "pitch": 30,
                "velocity": 64,
                "duration": 0.13181818181817562,
                "tempo": 120.0
            },
            {
                "start_time": 33.25,
                "end_time": 33.38181818181818,
                "pitch": 33,
                "velocity": 64,
                "duration": 0.13181818181818272,
                "tempo": 120.0
            },
            {
                "start_time": 33.4,
                "end_time": 33.68181818181818,
                "pitch": 28,
                "velocity": 64,
                "duration": 0.2818181818181813,
                "tempo": 120.0
            },
            {
                "start_time": 33.699999999999996,
                "end_time": 33.83409090909091,
                "pitch": 35,
                "velocity": 64,
                "duration": 0.13409090909091503,
                "tempo": 120.0
            },
            {
                "start_time": 33.85,
                "end_time": 34.59318181818182,
                "pitch": 35,
                "velocity": 64,
                "duration": 0.7431818181818173,
                "tempo": 120.0
            },
            {
                "start_time": 34.611363636363635,
                "end_time": 34.74090909090909,
                "pitch": 35,
                "velocity": 64,
                "duration": 0.12954545454545752,
                "tempo": 120.0
            },
            {
                "start_time": 34.75681818181818,
                "end_time": 34.83863636363636,
                "pitch": 35,
                "velocity": 64,
                "duration": 0.08181818181817846,
                "tempo": 120.0
            },
            {
                "start_time": 35.50454545454545,
                "end_time": 35.63636363636363,
                "pitch": 30,
                "velocity": 64,
                "duration": 0.13181818181818272,
                "tempo": 120.0
            },
            {
                "start_time": 35.654545454545456,
                "end_time": 35.78636363636363,
                "pitch": 33,
                "velocity": 64,
                "duration": 0.13181818181817562,
                "tempo": 120.0
            },
            {
                "start_time": 35.804545454545455,
                "end_time": 36.08863636363636,
                "pitch": 30,
                "velocity": 64,
                "duration": 0.2840909090909065,
                "tempo": 120.0
            },
            {
                "start_time": 36.10454545454545,
                "end_time": 36.23863636363636,
                "pitch": 35,
                "velocity": 64,
                "duration": 0.13409090909090793,
                "tempo": 120.0
            },
            {
                "start_time": 36.25454545454545,
                "end_time": 36.33863636363636,
                "pitch": 35,
                "velocity": 64,
                "duration": 0.08409090909091077,
                "tempo": 120.0
            },
            {
                "start_time": 37.00681818181818,
                "end_time": 37.14090909090909,
                "pitch": 35,
                "velocity": 64,
                "duration": 0.13409090909090793,
                "tempo": 120.0
            },
            {
                "start_time": 37.15681818181818,
                "end_time": 37.24090909090909,
                "pitch": 35,
                "velocity": 64,
                "duration": 0.08409090909091077,
                "tempo": 120.0
            },
            {
                "start_time": 37.90909090909091,
                "end_time": 38.04545454545455,
                "pitch": 30,
                "velocity": 64,
                "duration": 0.13636363636364024,
                "tempo": 120.0
            },
            {
                "start_time": 38.06363636363636,
                "end_time": 38.20227272727273,
                "pitch": 33,
                "velocity": 64,
                "duration": 0.13863636363636545,
                "tempo": 120.0
            },
            {
                "start_time": 38.21818181818182,
                "end_time": 38.49318181818182,
                "pitch": 28,
                "velocity": 64,
                "duration": 0.2749999999999986,
                "tempo": 120.0
            },
            {
                "start_time": 38.51136363636363,
                "end_time": 38.94772727272727,
                "pitch": 31,
                "velocity": 64,
                "duration": 0.4363636363636374,
                "tempo": 120.0
            },
            {
                "start_time": 38.965909090909086,
                "end_time": 39.25,
                "pitch": 43,
                "velocity": 64,
                "duration": 0.2840909090909136,
                "tempo": 120.0
            },
            {
                "start_time": 39.26590909090909,
                "end_time": 39.39545454545454,
                "pitch": 36,
                "velocity": 64,
                "duration": 0.1295454545454504,
                "tempo": 120.0
            },
            {
                "start_time": 39.41136363636363,
                "end_time": 39.55,
                "pitch": 37,
                "velocity": 64,
                "duration": 0.13863636363636545,
                "tempo": 120.0
            },
            {
                "start_time": 39.56818181818181,
                "end_time": 40.00681818181818,
                "pitch": 38,
                "velocity": 64,
                "duration": 0.4386363636363697,
                "tempo": 120.0
            },
            {
                "start_time": 40.02272727272727,
                "end_time": 40.30681818181818,
                "pitch": 33,
                "velocity": 64,
                "duration": 0.2840909090909065,
                "tempo": 120.0
            },
            {
                "start_time": 40.32272727272727,
                "end_time": 40.60681818181818,
                "pitch": 31,
                "velocity": 64,
                "duration": 0.2840909090909065,
                "tempo": 120.0
            },
            {
                "start_time": 40.625,
                "end_time": 40.65681818181818,
                "pitch": 32,
                "velocity": 64,
                "duration": 0.0318181818181813,
                "tempo": 120.0
            },
            {
                "start_time": 40.67272727272727,
                "end_time": 41.04772727272727,
                "pitch": 33,
                "velocity": 64,
                "duration": 0.375,
                "tempo": 120.0
            },
            {
                "start_time": 41.06590909090909,
                "end_time": 41.35,
                "pitch": 45,
                "velocity": 64,
                "duration": 0.2840909090909136,
                "tempo": 120.0
            },
            {
                "start_time": 41.36590909090909,
                "end_time": 41.5,
                "pitch": 38,
                "velocity": 64,
                "duration": 0.13409090909090793,
                "tempo": 120.0
            },
            {
                "start_time": 41.51590909090909,
                "end_time": 41.65454545454545,
                "pitch": 39,
                "velocity": 64,
                "duration": 0.13863636363635834,
                "tempo": 120.0
            },
            {
                "start_time": 41.67272727272727,
                "end_time": 42.10227272727273,
                "pitch": 40,
                "velocity": 64,
                "duration": 0.4295454545454547,
                "tempo": 120.0
            },
            {
                "start_time": 42.11818181818182,
                "end_time": 42.25681818181818,
                "pitch": 28,
                "velocity": 64,
                "duration": 0.13863636363636545,
                "tempo": 120.0
            },
            {
                "start_time": 42.27272727272727,
                "end_time": 42.41136363636363,
                "pitch": 30,
                "velocity": 64,
                "duration": 0.13863636363635834,
                "tempo": 120.0
            },
            {
                "start_time": 42.429545454545455,
                "end_time": 43.00454545454545,
                "pitch": 28,
                "velocity": 64,
                "duration": 0.5749999999999957,
                "tempo": 120.0
            },
            {
                "start_time": 43.02272727272727,
                "end_time": 43.91590909090909,
                "pitch": 35,
                "velocity": 64,
                "duration": 0.8931818181818159,
                "tempo": 120.0
            },
            {
                "start_time": 43.934090909090905,
                "end_time": 44.06363636363636,
                "pitch": 35,
                "velocity": 64,
                "duration": 0.12954545454545752,
                "tempo": 120.0
            },
            {
                "start_time": 44.07954545454545,
                "end_time": 44.209090909090904,
                "pitch": 35,
                "velocity": 64,
                "duration": 0.1295454545454504,
                "tempo": 120.0
            },
            {
                "start_time": 44.224999999999994,
                "end_time": 44.36363636363636,
                "pitch": 35,
                "velocity": 64,
                "duration": 0.13863636363636545,
                "tempo": 120.0
            },
            {
                "start_time": 44.37954545454545,
                "end_time": 44.518181818181816,
                "pitch": 35,
                "velocity": 64,
                "duration": 0.13863636363636545,
                "tempo": 120.0
            },
            {
                "start_time": 44.53636363636363,
                "end_time": 44.663636363636364,
                "pitch": 35,
                "velocity": 64,
                "duration": 0.1272727272727323,
                "tempo": 120.0
            },
            {
                "start_time": 44.68181818181818,
                "end_time": 44.81136363636364,
                "pitch": 36,
                "velocity": 64,
                "duration": 0.12954545454545752,
                "tempo": 120.0
            },
            {
                "start_time": 44.82727272727273,
                "end_time": 45.111363636363635,
                "pitch": 35,
                "velocity": 64,
                "duration": 0.2840909090909065,
                "tempo": 120.0
            },
            {
                "start_time": 45.127272727272725,
                "end_time": 45.26136363636363,
                "pitch": 35,
                "velocity": 64,
                "duration": 0.13409090909090793,
                "tempo": 120.0
            },
            {
                "start_time": 45.277272727272724,
                "end_time": 45.56136363636364,
                "pitch": 35,
                "velocity": 64,
                "duration": 0.2840909090909136,
                "tempo": 120.0
            },
            {
                "start_time": 45.57727272727273,
                "end_time": 45.711363636363636,
                "pitch": 35,
                "velocity": 64,
                "duration": 0.13409090909090793,
                "tempo": 120.0
            },
            {
                "start_time": 45.72727272727273,
                "end_time": 46.02045454545454,
                "pitch": 35,
                "velocity": 64,
                "duration": 0.29318181818181444,
                "tempo": 120.0
            },
            {
                "start_time": 46.038636363636364,
                "end_time": 46.17272727272727,
                "pitch": 38,
                "velocity": 64,
                "duration": 0.13409090909090793,
                "tempo": 120.0
            },
            {
                "start_time": 46.18863636363636,
                "end_time": 46.46818181818182,
                "pitch": 35,
                "velocity": 64,
                "duration": 0.2795454545454561,
                "tempo": 120.0
            },
            {
                "start_time": 46.48409090909091,
                "end_time": 46.61363636363636,
                "pitch": 38,
                "velocity": 64,
                "duration": 0.1295454545454504,
                "tempo": 120.0
            },
            {
                "start_time": 46.62954545454545,
                "end_time": 46.768181818181816,
                "pitch": 35,
                "velocity": 64,
                "duration": 0.13863636363636545,
                "tempo": 120.0
            },
            {
                "start_time": 46.78409090909091,
                "end_time": 46.92272727272727,
                "pitch": 35,
                "velocity": 64,
                "duration": 0.13863636363636545,
                "tempo": 120.0
            },
            {
                "start_time": 46.94090909090909,
                "end_time": 47.070454545454545,
                "pitch": 38,
                "velocity": 64,
                "duration": 0.12954545454545752,
                "tempo": 120.0
            },
            {
                "start_time": 47.086363636363636,
                "end_time": 47.215909090909086,
                "pitch": 35,
                "velocity": 64,
                "duration": 0.1295454545454504,
                "tempo": 120.0
            },
            {
                "start_time": 47.23181818181818,
                "end_time": 47.36590909090909,
                "pitch": 35,
                "velocity": 64,
                "duration": 0.13409090909091503,
                "tempo": 120.0
            },
            {
                "start_time": 47.38181818181818,
                "end_time": 47.51590909090909,
                "pitch": 36,
                "velocity": 64,
                "duration": 0.13409090909090793,
                "tempo": 120.0
            },
            {
                "start_time": 47.53409090909091,
                "end_time": 47.66590909090909,
                "pitch": 38,
                "velocity": 64,
                "duration": 0.13181818181818272,
                "tempo": 120.0
            },
            {
                "start_time": 47.684090909090905,
                "end_time": 47.970454545454544,
                "pitch": 35,
                "velocity": 64,
                "duration": 0.2863636363636388,
                "tempo": 120.0
            },
            {
                "start_time": 47.98863636363636,
                "end_time": 48.127272727272725,
                "pitch": 33,
                "velocity": 64,
                "duration": 0.13863636363636545,
                "tempo": 120.0
            },
            {
                "start_time": 48.143181818181816,
                "end_time": 48.57272727272727,
                "pitch": 31,
                "velocity": 64,
                "duration": 0.4295454545454547,
                "tempo": 120.0
            },
            {
                "start_time": 48.58863636363636,
                "end_time": 48.87272727272727,
                "pitch": 43,
                "velocity": 64,
                "duration": 0.2840909090909065,
                "tempo": 120.0
            },
            {
                "start_time": 48.89090909090909,
                "end_time": 49.02954545454545,
                "pitch": 36,
                "velocity": 64,
                "duration": 0.13863636363635834,
                "tempo": 120.0
            },
            {
                "start_time": 49.04545454545454,
                "end_time": 49.179545454545455,
                "pitch": 37,
                "velocity": 64,
                "duration": 0.13409090909091503,
                "tempo": 120.0
            },
            {
                "start_time": 49.195454545454545,
                "end_time": 49.63181818181818,
                "pitch": 38,
                "velocity": 64,
                "duration": 0.4363636363636374,
                "tempo": 120.0
            },
            {
                "start_time": 49.64772727272727,
                "end_time": 49.93181818181818,
                "pitch": 33,
                "velocity": 64,
                "duration": 0.2840909090909065,
                "tempo": 120.0
            },
            {
                "start_time": 49.94772727272727,
                "end_time": 50.23181818181818,
                "pitch": 31,
                "velocity": 64,
                "duration": 0.2840909090909065,
                "tempo": 120.0
            },
            {
                "start_time": 50.25,
                "end_time": 50.28181818181818,
                "pitch": 32,
                "velocity": 64,
                "duration": 0.0318181818181813,
                "tempo": 120.0
            },
            {
                "start_time": 50.3,
                "end_time": 50.67727272727272,
                "pitch": 33,
                "velocity": 64,
                "duration": 0.3772727272727252,
                "tempo": 120.0
            },
            {
                "start_time": 50.695454545454545,
                "end_time": 50.974999999999994,
                "pitch": 45,
                "velocity": 64,
                "duration": 0.279545454545449,
                "tempo": 120.0
            },
            {
                "start_time": 50.990909090909085,
                "end_time": 51.125,
                "pitch": 38,
                "velocity": 64,
                "duration": 0.13409090909091503,
                "tempo": 120.0
            },
            {
                "start_time": 51.14090909090909,
                "end_time": 51.27954545454545,
                "pitch": 39,
                "velocity": 64,
                "duration": 0.13863636363635834,
                "tempo": 120.0
            },
            {
                "start_time": 51.29772727272727,
                "end_time": 51.72727272727273,
                "pitch": 40,
                "velocity": 64,
                "duration": 0.4295454545454547,
                "tempo": 120.0
            },
            {
                "start_time": 51.74318181818182,
                "end_time": 51.88181818181818,
                "pitch": 28,
                "velocity": 64,
                "duration": 0.13863636363636545,
                "tempo": 120.0
            },
            {
                "start_time": 51.89772727272727,
                "end_time": 52.03636363636363,
                "pitch": 30,
                "velocity": 64,
                "duration": 0.13863636363635834,
                "tempo": 120.0
            },
            {
                "start_time": 52.054545454545455,
                "end_time": 52.62954545454545,
                "pitch": 28,
                "velocity": 64,
                "duration": 0.5749999999999957,
                "tempo": 120.0
            },
            {
                "start_time": 52.64772727272727,
                "end_time": 53.54090909090909,
                "pitch": 35,
                "velocity": 64,
                "duration": 0.8931818181818159,
                "tempo": 120.0
            },
            {
                "start_time": 53.55681818181818,
                "end_time": 53.68636363636363,
                "pitch": 35,
                "velocity": 64,
                "duration": 0.1295454545454504,
                "tempo": 120.0
            },
            {
                "start_time": 53.70227272727273,
                "end_time": 53.83181818181818,
                "pitch": 35,
                "velocity": 64,
                "duration": 0.1295454545454504,
                "tempo": 120.0
            },
            {
                "start_time": 53.84772727272727,
                "end_time": 53.986363636363635,
                "pitch": 35,
                "velocity": 64,
                "duration": 0.13863636363636545,
                "tempo": 120.0
            },
            {
                "start_time": 54.002272727272725,
                "end_time": 54.14090909090909,
                "pitch": 35,
                "velocity": 64,
                "duration": 0.13863636363636545,
                "tempo": 120.0
            },
            {
                "start_time": 54.15909090909091,
                "end_time": 54.288636363636364,
                "pitch": 35,
                "velocity": 64,
                "duration": 0.12954545454545752,
                "tempo": 120.0
            },
            {
                "start_time": 54.304545454545455,
                "end_time": 54.434090909090905,
                "pitch": 36,
                "velocity": 64,
                "duration": 0.1295454545454504,
                "tempo": 120.0
            },
            {
                "start_time": 54.449999999999996,
                "end_time": 54.73409090909091,
                "pitch": 35,
                "velocity": 64,
                "duration": 0.2840909090909136,
                "tempo": 120.0
            },
            {
                "start_time": 54.75,
                "end_time": 54.88409090909091,
                "pitch": 35,
                "velocity": 64,
                "duration": 0.13409090909090793,
                "tempo": 120.0
            },
            {
                "start_time": 54.9,
                "end_time": 55.184090909090905,
                "pitch": 35,
                "velocity": 64,
                "duration": 0.2840909090909065,
                "tempo": 120.0
            },
            {
                "start_time": 55.20227272727273,
                "end_time": 55.334090909090904,
                "pitch": 35,
                "velocity": 64,
                "duration": 0.13181818181817562,
                "tempo": 120.0
            },
            {
                "start_time": 55.35227272727273,
                "end_time": 55.64545454545454,
                "pitch": 35,
                "velocity": 64,
                "duration": 0.29318181818181444,
                "tempo": 120.0
            },
            {
                "start_time": 55.66136363636363,
                "end_time": 55.79090909090909,
                "pitch": 38,
                "velocity": 64,
                "duration": 0.12954545454545752,
                "tempo": 120.0
            },
            {
                "start_time": 55.80681818181818,
                "end_time": 56.086363636363636,
                "pitch": 35,
                "velocity": 64,
                "duration": 0.2795454545454561,
                "tempo": 120.0
            },
            {
                "start_time": 56.10227272727273,
                "end_time": 56.236363636363635,
                "pitch": 38,
                "velocity": 64,
                "duration": 0.13409090909090793,
                "tempo": 120.0
            },
            {
                "start_time": 56.252272727272725,
                "end_time": 56.38636363636363,
                "pitch": 35,
                "velocity": 64,
                "duration": 0.13409090909090793,
                "tempo": 120.0
            },
            {
                "start_time": 56.40454545454545,
                "end_time": 56.538636363636364,
                "pitch": 35,
                "velocity": 64,
                "duration": 0.13409090909091503,
                "tempo": 120.0
            },
            {
                "start_time": 56.554545454545455,
                "end_time": 56.68863636363636,
                "pitch": 38,
                "velocity": 64,
                "duration": 0.13409090909090793,
                "tempo": 120.0
            },
            {
                "start_time": 56.70454545454545,
                "end_time": 56.83863636363636,
                "pitch": 35,
                "velocity": 64,
                "duration": 0.13409090909090793,
                "tempo": 120.0
            },
            {
                "start_time": 56.85454545454545,
                "end_time": 56.98863636363636,
                "pitch": 35,
                "velocity": 64,
                "duration": 0.13409090909090793,
                "tempo": 120.0
            },
            {
                "start_time": 57.00454545454545,
                "end_time": 57.13863636363636,
                "pitch": 36,
                "velocity": 64,
                "duration": 0.13409090909090793,
                "tempo": 120.0
            },
            {
                "start_time": 57.15681818181818,
                "end_time": 57.288636363636364,
                "pitch": 38,
                "velocity": 64,
                "duration": 0.13181818181818272,
                "tempo": 120.0
            },
            {
                "start_time": 57.30681818181818,
                "end_time": 57.58863636363636,
                "pitch": 35,
                "velocity": 64,
                "duration": 0.2818181818181813,
                "tempo": 120.0
            },
            {
                "start_time": 57.60681818181818,
                "end_time": 57.63863636363636,
                "pitch": 33,
                "velocity": 64,
                "duration": 0.0318181818181813,
                "tempo": 120.0
            }
        ],
        "Lead 2 (sawtooth)": [
            {
                "start_time": 0.3068181818181818,
                "end_time": 0.43636363636363634,
                "pitch": 69,
                "velocity": 40,
                "duration": 0.12954545454545452,
                "tempo": 120.0
            },
            {
                "start_time": 0.45227272727272727,
                "end_time": 0.5340909090909091,
                "pitch": 69,
                "velocity": 40,
                "duration": 0.08181818181818179,
                "tempo": 120.0
            },
            {
                "start_time": 1.509090909090909,
                "end_time": 1.6386363636363634,
                "pitch": 74,
                "velocity": 40,
                "duration": 0.1295454545454544,
                "tempo": 120.0
            },
            {
                "start_time": 1.6545454545454545,
                "end_time": 2.0863636363636364,
                "pitch": 74,
                "velocity": 40,
                "duration": 0.4318181818181819,
                "tempo": 120.0
            },
            {
                "start_time": 2.102272727272727,
                "end_time": 2.2363636363636363,
                "pitch": 73,
                "velocity": 40,
                "duration": 0.13409090909090926,
                "tempo": 120.0
            },
            {
                "start_time": 2.252272727272727,
                "end_time": 2.686363636363636,
                "pitch": 73,
                "velocity": 40,
                "duration": 0.4340909090909091,
                "tempo": 120.0
            },
            {
                "start_time": 2.7045454545454546,
                "end_time": 2.8386363636363634,
                "pitch": 69,
                "velocity": 40,
                "duration": 0.13409090909090882,
                "tempo": 120.0
            },
            {
                "start_time": 2.8545454545454545,
                "end_time": 2.9386363636363635,
                "pitch": 69,
                "velocity": 40,
                "duration": 0.084090909090909,
                "tempo": 120.0
            },
            {
                "start_time": 3.918181818181818,
                "end_time": 4.047727272727273,
                "pitch": 76,
                "velocity": 40,
                "duration": 0.12954545454545485,
                "tempo": 120.0
            },
            {
                "start_time": 4.0636363636363635,
                "end_time": 4.502272727272727,
                "pitch": 76,
                "velocity": 40,
                "duration": 0.4386363636363635,
                "tempo": 120.0
            },
            {
                "start_time": 4.518181818181818,
                "end_time": 4.6477272727272725,
                "pitch": 73,
                "velocity": 40,
                "duration": 0.12954545454545485,
                "tempo": 120.0
            },
            {
                "start_time": 4.663636363636363,
                "end_time": 5.093181818181818,
                "pitch": 73,
                "velocity": 40,
                "duration": 0.4295454545454547,
                "tempo": 120.0
            },
            {
                "start_time": 5.1090909090909085,
                "end_time": 5.243181818181818,
                "pitch": 69,
                "velocity": 40,
                "duration": 0.1340909090909097,
                "tempo": 120.0
            },
            {
                "start_time": 5.259090909090909,
                "end_time": 5.343181818181818,
                "pitch": 69,
                "velocity": 40,
                "duration": 0.084090909090909,
                "tempo": 120.0
            },
            {
                "start_time": 6.322727272727272,
                "end_time": 6.452272727272727,
                "pitch": 74,
                "velocity": 40,
                "duration": 0.12954545454545485,
                "tempo": 120.0
            },
            {
                "start_time": 6.468181818181818,
                "end_time": 6.8977272727272725,
                "pitch": 74,
                "velocity": 40,
                "duration": 0.4295454545454547,
                "tempo": 120.0
            },
            {
                "start_time": 6.913636363636363,
                "end_time": 7.047727272727272,
                "pitch": 73,
                "velocity": 40,
                "duration": 0.13409090909090882,
                "tempo": 120.0
            },
            {
                "start_time": 7.0636363636363635,
                "end_time": 7.497727272727272,
                "pitch": 73,
                "velocity": 40,
                "duration": 0.43409090909090864,
                "tempo": 120.0
            },
            {
                "start_time": 7.515909090909091,
                "end_time": 7.6477272727272725,
                "pitch": 69,
                "velocity": 40,
                "duration": 0.13181818181818183,
                "tempo": 120.0
            },
            {
                "start_time": 7.66590909090909,
                "end_time": 7.747727272727272,
                "pitch": 69,
                "velocity": 40,
                "duration": 0.08181818181818201,
                "tempo": 120.0
            },
            {
                "start_time": 8.727272727272727,
                "end_time": 8.85681818181818,
                "pitch": 71,
                "velocity": 40,
                "duration": 0.12954545454545396,
                "tempo": 120.0
            },
            {
                "start_time": 8.872727272727273,
                "end_time": 8.952272727272726,
                "pitch": 71,
                "velocity": 40,
                "duration": 0.07954545454545325,
                "tempo": 120.0
            },
            {
                "start_time": 9.920454545454545,
                "end_time": 10.054545454545455,
                "pitch": 69,
                "velocity": 40,
                "duration": 0.1340909090909097,
                "tempo": 120.0
            },
            {
                "start_time": 10.070454545454545,
                "end_time": 10.154545454545454,
                "pitch": 69,
                "velocity": 40,
                "duration": 0.084090909090909,
                "tempo": 120.0
            },
            {
                "start_time": 11.134090909090908,
                "end_time": 11.263636363636364,
                "pitch": 74,
                "velocity": 40,
                "duration": 0.12954545454545574,
                "tempo": 120.0
            },
            {
                "start_time": 11.279545454545454,
                "end_time": 11.718181818181817,
                "pitch": 74,
                "velocity": 40,
                "duration": 0.4386363636363626,
                "tempo": 120.0
            },
            {
                "start_time": 11.73409090909091,
                "end_time": 11.863636363636363,
                "pitch": 73,
                "velocity": 40,
                "duration": 0.12954545454545396,
                "tempo": 120.0
            },
            {
                "start_time": 11.879545454545454,
                "end_time": 12.311363636363636,
                "pitch": 73,
                "velocity": 40,
                "duration": 0.43181818181818166,
                "tempo": 120.0
            },
            {
                "start_time": 12.327272727272726,
                "end_time": 12.461363636363636,
                "pitch": 69,
                "velocity": 40,
                "duration": 0.1340909090909097,
                "tempo": 120.0
            },
            {
                "start_time": 12.477272727272727,
                "end_time": 12.561363636363636,
                "pitch": 69,
                "velocity": 40,
                "duration": 0.084090909090909,
                "tempo": 120.0
            },
            {
                "start_time": 13.540909090909091,
                "end_time": 13.670454545454545,
                "pitch": 76,
                "velocity": 40,
                "duration": 0.12954545454545396,
                "tempo": 120.0
            },
            {
                "start_time": 13.686363636363636,
                "end_time": 14.118181818181817,
                "pitch": 76,
                "velocity": 40,
                "duration": 0.43181818181818166,
                "tempo": 120.0
            },
            {
                "start_time": 14.134090909090908,
                "end_time": 14.268181818181818,
                "pitch": 73,
                "velocity": 40,
                "duration": 0.1340909090909097,
                "tempo": 120.0
            },
            {
                "start_time": 14.284090909090908,
                "end_time": 14.718181818181817,
                "pitch": 73,
                "velocity": 40,
                "duration": 0.43409090909090864,
                "tempo": 120.0
            },
            {
                "start_time": 14.736363636363636,
                "end_time": 14.868181818181817,
                "pitch": 69,
                "velocity": 40,
                "duration": 0.13181818181818095,
                "tempo": 120.0
            },
            {
                "start_time": 14.886363636363635,
                "end_time": 14.968181818181817,
                "pitch": 69,
                "velocity": 40,
                "duration": 0.08181818181818201,
                "tempo": 120.0
            },
            {
                "start_time": 15.936363636363636,
                "end_time": 16.070454545454545,
                "pitch": 74,
                "velocity": 40,
                "duration": 0.1340909090909097,
                "tempo": 120.0
            },
            {
                "start_time": 16.08863636363636,
                "end_time": 16.522727272727273,
                "pitch": 74,
                "velocity": 40,
                "duration": 0.4340909090909122,
                "tempo": 120.0
            },
            {
                "start_time": 16.538636363636364,
                "end_time": 16.672727272727272,
                "pitch": 73,
                "velocity": 40,
                "duration": 0.13409090909090793,
                "tempo": 120.0
            },
            {
                "start_time": 16.688636363636363,
                "end_time": 17.125,
                "pitch": 73,
                "velocity": 40,
                "duration": 0.4363636363636374,
                "tempo": 120.0
            },
            {
                "start_time": 17.14090909090909,
                "end_time": 17.275,
                "pitch": 69,
                "velocity": 40,
                "duration": 0.13409090909090793,
                "tempo": 120.0
            },
            {
                "start_time": 17.293181818181818,
                "end_time": 17.377272727272725,
                "pitch": 69,
                "velocity": 40,
                "duration": 0.08409090909090722,
                "tempo": 120.0
            },
            {
                "start_time": 18.345454545454544,
                "end_time": 18.479545454545455,
                "pitch": 71,
                "velocity": 40,
                "duration": 0.13409090909091148,
                "tempo": 120.0
            },
            {
                "start_time": 18.49772727272727,
                "end_time": 18.581818181818182,
                "pitch": 71,
                "velocity": 40,
                "duration": 0.08409090909091077,
                "tempo": 120.0
            },
            {
                "start_time": 19.55,
                "end_time": 19.68409090909091,
                "pitch": 69,
                "velocity": 40,
                "duration": 0.13409090909090793,
                "tempo": 120.0
            },
            {
                "start_time": 19.702272727272728,
                "end_time": 19.786363636363635,
                "pitch": 69,
                "velocity": 40,
                "duration": 0.08409090909090722,
                "tempo": 120.0
            },
            {
                "start_time": 20.76590909090909,
                "end_time": 20.895454545454545,
                "pitch": 74,
                "velocity": 40,
                "duration": 0.12954545454545396,
                "tempo": 120.0
            },
            {
                "start_time": 20.911363636363635,
                "end_time": 21.34090909090909,
                "pitch": 74,
                "velocity": 40,
                "duration": 0.4295454545454547,
                "tempo": 120.0
            },
            {
                "start_time": 21.35909090909091,
                "end_time": 21.493181818181817,
                "pitch": 73,
                "velocity": 40,
                "duration": 0.13409090909090793,
                "tempo": 120.0
            },
            {
                "start_time": 21.509090909090908,
                "end_time": 21.945454545454545,
                "pitch": 73,
                "velocity": 40,
                "duration": 0.4363636363636374,
                "tempo": 120.0
            },
            {
                "start_time": 21.961363636363636,
                "end_time": 22.095454545454544,
                "pitch": 69,
                "velocity": 40,
                "duration": 0.13409090909090793,
                "tempo": 120.0
            },
            {
                "start_time": 22.111363636363635,
                "end_time": 22.195454545454545,
                "pitch": 69,
                "velocity": 40,
                "duration": 0.08409090909091077,
                "tempo": 120.0
            },
            {
                "start_time": 23.172727272727272,
                "end_time": 23.302272727272726,
                "pitch": 76,
                "velocity": 40,
                "duration": 0.12954545454545396,
                "tempo": 120.0
            },
            {
                "start_time": 23.318181818181817,
                "end_time": 23.74772727272727,
                "pitch": 76,
                "velocity": 40,
                "duration": 0.4295454545454547,
                "tempo": 120.0
            },
            {
                "start_time": 23.76590909090909,
                "end_time": 23.9,
                "pitch": 73,
                "velocity": 40,
                "duration": 0.13409090909090793,
                "tempo": 120.0
            },
            {
                "start_time": 23.91590909090909,
                "end_time": 24.352272727272727,
                "pitch": 73,
                "velocity": 40,
                "duration": 0.4363636363636374,
                "tempo": 120.0
            },
            {
                "start_time": 24.368181818181817,
                "end_time": 24.502272727272725,
                "pitch": 69,
                "velocity": 40,
                "duration": 0.13409090909090793,
                "tempo": 120.0
            },
            {
                "start_time": 24.518181818181816,
                "end_time": 24.602272727272727,
                "pitch": 69,
                "velocity": 40,
                "duration": 0.08409090909091077,
                "tempo": 120.0
            },
            {
                "start_time": 25.57272727272727,
                "end_time": 25.706818181818182,
                "pitch": 74,
                "velocity": 40,
                "duration": 0.13409090909091148,
                "tempo": 120.0
            },
            {
                "start_time": 25.722727272727273,
                "end_time": 26.159090909090907,
                "pitch": 74,
                "velocity": 40,
                "duration": 0.43636363636363384,
                "tempo": 120.0
            },
            {
                "start_time": 26.174999999999997,
                "end_time": 26.30909090909091,
                "pitch": 73,
                "velocity": 40,
                "duration": 0.13409090909091148,
                "tempo": 120.0
            },
            {
                "start_time": 26.327272727272724,
                "end_time": 26.761363636363637,
                "pitch": 73,
                "velocity": 40,
                "duration": 0.4340909090909122,
                "tempo": 120.0
            },
            {
                "start_time": 26.777272727272727,
                "end_time": 26.911363636363635,
                "pitch": 69,
                "velocity": 40,
                "duration": 0.13409090909090793,
                "tempo": 120.0
            },
            {
                "start_time": 26.927272727272726,
                "end_time": 27.011363636363637,
                "pitch": 69,
                "velocity": 40,
                "duration": 0.08409090909091077,
                "tempo": 120.0
            },
            {
                "start_time": 27.98181818181818,
                "end_time": 28.11590909090909,
                "pitch": 71,
                "velocity": 40,
                "duration": 0.13409090909090793,
                "tempo": 120.0
            },
            {
                "start_time": 28.13181818181818,
                "end_time": 28.21590909090909,
                "pitch": 71,
                "velocity": 40,
                "duration": 0.08409090909091077,
                "tempo": 120.0
            },
            {
                "start_time": 29.186363636363634,
                "end_time": 29.320454545454545,
                "pitch": 69,
                "velocity": 40,
                "duration": 0.13409090909091148,
                "tempo": 120.0
            },
            {
                "start_time": 29.336363636363636,
                "end_time": 29.420454545454543,
                "pitch": 69,
                "velocity": 40,
                "duration": 0.08409090909090722,
                "tempo": 120.0
            },
            {
                "start_time": 30.4,
                "end_time": 30.529545454545453,
                "pitch": 74,
                "velocity": 40,
                "duration": 0.12954545454545396,
                "tempo": 120.0
            },
            {
                "start_time": 30.545454545454543,
                "end_time": 30.98409090909091,
                "pitch": 74,
                "velocity": 40,
                "duration": 0.43863636363636616,
                "tempo": 120.0
            },
            {
                "start_time": 31.002272727272725,
                "end_time": 31.13181818181818,
                "pitch": 73,
                "velocity": 40,
                "duration": 0.12954545454545396,
                "tempo": 120.0
            },
            {
                "start_time": 31.14772727272727,
                "end_time": 31.577272727272724,
                "pitch": 73,
                "velocity": 40,
                "duration": 0.4295454545454547,
                "tempo": 120.0
            },
            {
                "start_time": 31.595454545454544,
                "end_time": 31.729545454545452,
                "pitch": 69,
                "velocity": 40,
                "duration": 0.13409090909090793,
                "tempo": 120.0
            },
            {
                "start_time": 31.745454545454542,
                "end_time": 31.829545454545453,
                "pitch": 69,
                "velocity": 40,
                "duration": 0.08409090909091077,
                "tempo": 120.0
            },
            {
                "start_time": 32.80681818181818,
                "end_time": 32.93636363636364,
                "pitch": 76,
                "velocity": 40,
                "duration": 0.12954545454545752,
                "tempo": 120.0
            },
            {
                "start_time": 32.95454545454545,
                "end_time": 33.38181818181818,
                "pitch": 76,
                "velocity": 40,
                "duration": 0.42727272727272947,
                "tempo": 120.0
            },
            {
                "start_time": 33.4,
                "end_time": 33.53181818181818,
                "pitch": 73,
                "velocity": 40,
                "duration": 0.13181818181818272,
                "tempo": 120.0
            },
            {
                "start_time": 33.55,
                "end_time": 33.98409090909091,
                "pitch": 73,
                "velocity": 40,
                "duration": 0.4340909090909122,
                "tempo": 120.0
            },
            {
                "start_time": 34.0,
                "end_time": 34.13409090909091,
                "pitch": 69,
                "velocity": 40,
                "duration": 0.13409090909090793,
                "tempo": 120.0
            },
            {
                "start_time": 34.15,
                "end_time": 34.23409090909091,
                "pitch": 69,
                "velocity": 40,
                "duration": 0.08409090909091077,
                "tempo": 120.0
            },
            {
                "start_time": 35.21363636363636,
                "end_time": 35.34318181818182,
                "pitch": 74,
                "velocity": 40,
                "duration": 0.12954545454545752,
                "tempo": 120.0
            },
            {
                "start_time": 35.35909090909091,
                "end_time": 35.78636363636363,
                "pitch": 74,
                "velocity": 40,
                "duration": 0.42727272727272236,
                "tempo": 120.0
            },
            {
                "start_time": 35.804545454545455,
                "end_time": 35.93863636363636,
                "pitch": 73,
                "velocity": 40,
                "duration": 0.13409090909090793,
                "tempo": 120.0
            },
            {
                "start_time": 35.95454545454545,
                "end_time": 36.38863636363636,
                "pitch": 73,
                "velocity": 40,
                "duration": 0.4340909090909051,
                "tempo": 120.0
            },
            {
                "start_time": 36.404545454545456,
                "end_time": 36.538636363636364,
                "pitch": 69,
                "velocity": 40,
                "duration": 0.13409090909090793,
                "tempo": 120.0
            },
            {
                "start_time": 36.554545454545455,
                "end_time": 36.63863636363636,
                "pitch": 69,
                "velocity": 40,
                "duration": 0.08409090909090366,
                "tempo": 120.0
            },
            {
                "start_time": 37.60909090909091,
                "end_time": 37.74090909090909,
                "pitch": 71,
                "velocity": 40,
                "duration": 0.13181818181818272,
                "tempo": 120.0
            },
            {
                "start_time": 37.75909090909091,
                "end_time": 37.840909090909086,
                "pitch": 71,
                "velocity": 40,
                "duration": 0.08181818181817846,
                "tempo": 120.0
            },
            {
                "start_time": 38.51136363636363,
                "end_time": 38.643181818181816,
                "pitch": 55,
                "velocity": 40,
                "duration": 0.13181818181818272,
                "tempo": 120.0
            },
            {
                "start_time": 38.66136363636363,
                "end_time": 38.793181818181814,
                "pitch": 66,
                "velocity": 40,
                "duration": 0.13181818181818272,
                "tempo": 120.0
            },
            {
                "start_time": 38.81136363636364,
                "end_time": 38.94772727272727,
                "pitch": 62,
                "velocity": 40,
                "duration": 0.13636363636363313,
                "tempo": 120.0
            },
            {
                "start_time": 38.965909090909086,
                "end_time": 39.10454545454545,
                "pitch": 61,
                "velocity": 40,
                "duration": 0.13863636363636545,
                "tempo": 120.0
            },
            {
                "start_time": 39.12045454545454,
                "end_time": 39.25,
                "pitch": 69,
                "velocity": 40,
                "duration": 0.12954545454545752,
                "tempo": 120.0
            },
            {
                "start_time": 39.26590909090909,
                "end_time": 39.39545454545454,
                "pitch": 66,
                "velocity": 40,
                "duration": 0.1295454545454504,
                "tempo": 120.0
            },
            {
                "start_time": 39.41136363636363,
                "end_time": 39.55,
                "pitch": 71,
                "velocity": 40,
                "duration": 0.13863636363636545,
                "tempo": 120.0
            },
            {
                "start_time": 39.56818181818181,
                "end_time": 39.70454545454545,
                "pitch": 62,
                "velocity": 40,
                "duration": 0.13636363636364024,
                "tempo": 120.0
            },
            {
                "start_time": 39.72272727272727,
                "end_time": 39.85681818181818,
                "pitch": 57,
                "velocity": 40,
                "duration": 0.13409090909090793,
                "tempo": 120.0
            },
            {
                "start_time": 39.87272727272727,
                "end_time": 40.00681818181818,
                "pitch": 67,
                "velocity": 40,
                "duration": 0.13409090909091503,
                "tempo": 120.0
            },
            {
                "start_time": 40.02272727272727,
                "end_time": 40.15681818181818,
                "pitch": 71,
                "velocity": 40,
                "duration": 0.13409090909090793,
                "tempo": 120.0
            },
            {
                "start_time": 40.17272727272727,
                "end_time": 40.30681818181818,
                "pitch": 66,
                "velocity": 40,
                "duration": 0.13409090909090793,
                "tempo": 120.0
            },
            {
                "start_time": 40.32272727272727,
                "end_time": 40.45681818181818,
                "pitch": 62,
                "velocity": 40,
                "duration": 0.13409090909090793,
                "tempo": 120.0
            },
            {
                "start_time": 40.47272727272727,
                "end_time": 40.60681818181818,
                "pitch": 71,
                "velocity": 40,
                "duration": 0.13409090909090793,
                "tempo": 120.0
            },
            {
                "start_time": 40.625,
                "end_time": 40.75454545454545,
                "pitch": 67,
                "velocity": 40,
                "duration": 0.1295454545454504,
                "tempo": 120.0
            },
            {
                "start_time": 40.77045454545454,
                "end_time": 40.9,
                "pitch": 66,
                "velocity": 40,
                "duration": 0.12954545454545752,
                "tempo": 120.0
            },
            {
                "start_time": 40.91590909090909,
                "end_time": 41.04772727272727,
                "pitch": 57,
                "velocity": 40,
                "duration": 0.13181818181818272,
                "tempo": 120.0
            },
            {
                "start_time": 41.06590909090909,
                "end_time": 41.19772727272727,
                "pitch": 69,
                "velocity": 40,
                "duration": 0.13181818181818272,
                "tempo": 120.0
            },
            {
                "start_time": 41.215909090909086,
                "end_time": 41.35,
                "pitch": 61,
                "velocity": 40,
                "duration": 0.13409090909091503,
                "tempo": 120.0
            },
            {
                "start_time": 41.36590909090909,
                "end_time": 41.5,
                "pitch": 68,
                "velocity": 40,
                "duration": 0.13409090909090793,
                "tempo": 120.0
            },
            {
                "start_time": 41.51590909090909,
                "end_time": 41.65454545454545,
                "pitch": 61,
                "velocity": 40,
                "duration": 0.13863636363635834,
                "tempo": 120.0
            },
            {
                "start_time": 41.67272727272727,
                "end_time": 41.81136363636364,
                "pitch": 66,
                "velocity": 40,
                "duration": 0.13863636363636545,
                "tempo": 120.0
            },
            {
                "start_time": 41.82727272727273,
                "end_time": 41.95681818181818,
                "pitch": 71,
                "velocity": 40,
                "duration": 0.1295454545454504,
                "tempo": 120.0
            },
            {
                "start_time": 41.97272727272727,
                "end_time": 42.10227272727273,
                "pitch": 69,
                "velocity": 40,
                "duration": 0.12954545454545752,
                "tempo": 120.0
            },
            {
                "start_time": 42.11818181818182,
                "end_time": 42.25681818181818,
                "pitch": 64,
                "velocity": 40,
                "duration": 0.13863636363636545,
                "tempo": 120.0
            },
            {
                "start_time": 42.27272727272727,
                "end_time": 42.41136363636363,
                "pitch": 61,
                "velocity": 40,
                "duration": 0.13863636363635834,
                "tempo": 120.0
            },
            {
                "start_time": 42.429545454545455,
                "end_time": 42.559090909090905,
                "pitch": 73,
                "velocity": 40,
                "duration": 0.1295454545454504,
                "tempo": 120.0
            },
            {
                "start_time": 42.574999999999996,
                "end_time": 42.70454545454545,
                "pitch": 69,
                "velocity": 40,
                "duration": 0.12954545454545752,
                "tempo": 120.0
            },
            {
                "start_time": 42.720454545454544,
                "end_time": 42.85454545454545,
                "pitch": 64,
                "velocity": 40,
                "duration": 0.13409090909090793,
                "tempo": 120.0
            },
            {
                "start_time": 42.87045454545454,
                "end_time": 43.00454545454545,
                "pitch": 61,
                "velocity": 40,
                "duration": 0.13409090909090793,
                "tempo": 120.0
            },
            {
                "start_time": 43.02272727272727,
                "end_time": 43.15454545454545,
                "pitch": 69,
                "velocity": 40,
                "duration": 0.13181818181817562,
                "tempo": 120.0
            },
            {
                "start_time": 43.17272727272727,
                "end_time": 43.304545454545455,
                "pitch": 65,
                "velocity": 40,
                "duration": 0.13181818181818272,
                "tempo": 120.0
            },
            {
                "start_time": 43.32272727272727,
                "end_time": 43.60681818181818,
                "pitch": 59,
                "velocity": 40,
                "duration": 0.2840909090909065,
                "tempo": 120.0
            },
            {
                "start_time": 43.62272727272727,
                "end_time": 43.76136363636363,
                "pitch": 71,
                "velocity": 40,
                "duration": 0.13863636363636545,
                "tempo": 120.0
            },
            {
                "start_time": 43.77954545454545,
                "end_time": 44.06363636363636,
                "pitch": 59,
                "velocity": 40,
                "duration": 0.2840909090909136,
                "tempo": 120.0
            },
            {
                "start_time": 44.07954545454545,
                "end_time": 44.209090909090904,
                "pitch": 69,
                "velocity": 40,
                "duration": 0.1295454545454504,
                "tempo": 120.0
            },
            {
                "start_time": 44.224999999999994,
                "end_time": 44.518181818181816,
                "pitch": 59,
                "velocity": 40,
                "duration": 0.29318181818182154,
                "tempo": 120.0
            },
            {
                "start_time": 44.53636363636363,
                "end_time": 44.663636363636364,
                "pitch": 67,
                "velocity": 40,
                "duration": 0.1272727272727323,
                "tempo": 120.0
            },
            {
                "start_time": 44.68181818181818,
                "end_time": 44.961363636363636,
                "pitch": 59,
                "velocity": 40,
                "duration": 0.2795454545454561,
                "tempo": 120.0
            },
            {
                "start_time": 44.97727272727273,
                "end_time": 45.111363636363635,
                "pitch": 66,
                "velocity": 40,
                "duration": 0.13409090909090793,
                "tempo": 120.0
            },
            {
                "start_time": 45.127272727272725,
                "end_time": 45.26136363636363,
                "pitch": 59,
                "velocity": 40,
                "duration": 0.13409090909090793,
                "tempo": 120.0
            },
            {
                "start_time": 45.277272727272724,
                "end_time": 45.41136363636363,
                "pitch": 61,
                "velocity": 40,
                "duration": 0.13409090909090793,
                "tempo": 120.0
            },
            {
                "start_time": 45.42727272727272,
                "end_time": 45.56136363636364,
                "pitch": 62,
                "velocity": 40,
                "duration": 0.13409090909091503,
                "tempo": 120.0
            },
            {
                "start_time": 45.57727272727273,
                "end_time": 45.711363636363636,
                "pitch": 64,
                "velocity": 40,
                "duration": 0.13409090909090793,
                "tempo": 120.0
            },
            {
                "start_time": 45.72727272727273,
                "end_time": 46.02045454545454,
                "pitch": 59,
                "velocity": 40,
                "duration": 0.29318181818181444,
                "tempo": 120.0
            },
            {
                "start_time": 46.038636363636364,
                "end_time": 46.17272727272727,
                "pitch": 73,
                "velocity": 40,
                "duration": 0.13409090909090793,
                "tempo": 120.0
            },
            {
                "start_time": 46.18863636363636,
                "end_time": 46.46818181818182,
                "pitch": 59,
                "velocity": 40,
                "duration": 0.2795454545454561,
                "tempo": 120.0
            },
            {
                "start_time": 46.48409090909091,
                "end_time": 46.61363636363636,
                "pitch": 71,
                "velocity": 40,
                "duration": 0.1295454545454504,
                "tempo": 120.0
            },
            {
                "start_time": 46.62954545454545,
                "end_time": 46.92272727272727,
                "pitch": 59,
                "velocity": 40,
                "duration": 0.29318181818182154,
                "tempo": 120.0
            },
            {
                "start_time": 46.94090909090909,
                "end_time": 47.070454545454545,
                "pitch": 69,
                "velocity": 40,
                "duration": 0.12954545454545752,
                "tempo": 120.0
            },
            {
                "start_time": 47.086363636363636,
                "end_time": 47.31590909090909,
                "pitch": 59,
                "velocity": 40,
                "duration": 0.22954545454545183,
                "tempo": 120.0
            },
            {
                "start_time": 47.33181818181818,
                "end_time": 47.51590909090909,
                "pitch": 67,
                "velocity": 40,
                "duration": 0.1840909090909122,
                "tempo": 120.0
            },
            {
                "start_time": 47.53409090909091,
                "end_time": 47.66590909090909,
                "pitch": 62,
                "velocity": 40,
                "duration": 0.13181818181818272,
                "tempo": 120.0
            },
            {
                "start_time": 47.684090909090905,
                "end_time": 47.970454545454544,
                "pitch": 64,
                "velocity": 40,
                "duration": 0.2863636363636388,
                "tempo": 120.0
            },
            {
                "start_time": 47.98863636363636,
                "end_time": 48.127272727272725,
                "pitch": 69,
                "velocity": 40,
                "duration": 0.13863636363636545,
                "tempo": 120.0
            },
            {
                "start_time": 48.143181818181816,
                "end_time": 48.277272727272724,
                "pitch": 55,
                "velocity": 40,
                "duration": 0.13409090909090793,
                "tempo": 120.0
            },
            {
                "start_time": 48.293181818181814,
                "end_time": 48.42727272727272,
                "pitch": 66,
                "velocity": 40,
                "duration": 0.13409090909090793,
                "tempo": 120.0
            },
            {
                "start_time": 48.44318181818181,
                "end_time": 48.57272727272727,
                "pitch": 62,
                "velocity": 40,
                "duration": 0.12954545454545752,
                "tempo": 120.0
            },
            {
                "start_time": 48.58863636363636,
                "end_time": 48.71818181818182,
                "pitch": 61,
                "velocity": 40,
                "duration": 0.12954545454545752,
                "tempo": 120.0
            },
            {
                "start_time": 48.736363636363635,
                "end_time": 48.87272727272727,
                "pitch": 69,
                "velocity": 40,
                "duration": 0.13636363636363313,
                "tempo": 120.0
            },
            {
                "start_time": 48.89090909090909,
                "end_time": 49.02954545454545,
                "pitch": 66,
                "velocity": 40,
                "duration": 0.13863636363635834,
                "tempo": 120.0
            },
            {
                "start_time": 49.04545454545454,
                "end_time": 49.179545454545455,
                "pitch": 71,
                "velocity": 40,
                "duration": 0.13409090909091503,
                "tempo": 120.0
            },
            {
                "start_time": 49.195454545454545,
                "end_time": 49.32954545454545,
                "pitch": 62,
                "velocity": 40,
                "duration": 0.13409090909090793,
                "tempo": 120.0
            },
            {
                "start_time": 49.345454545454544,
                "end_time": 49.47954545454545,
                "pitch": 57,
                "velocity": 40,
                "duration": 0.13409090909090793,
                "tempo": 120.0
            },
            {
                "start_time": 49.49772727272727,
                "end_time": 49.63181818181818,
                "pitch": 67,
                "velocity": 40,
                "duration": 0.13409090909091503,
                "tempo": 120.0
            },
            {
                "start_time": 49.64772727272727,
                "end_time": 49.78181818181818,
                "pitch": 71,
                "velocity": 40,
                "duration": 0.13409090909090793,
                "tempo": 120.0
            },
            {
                "start_time": 49.79772727272727,
                "end_time": 49.93181818181818,
                "pitch": 66,
                "velocity": 40,
                "duration": 0.13409090909090793,
                "tempo": 120.0
            },
            {
                "start_time": 49.94772727272727,
                "end_time": 50.08181818181818,
                "pitch": 62,
                "velocity": 40,
                "duration": 0.13409090909090793,
                "tempo": 120.0
            },
            {
                "start_time": 50.09772727272727,
                "end_time": 50.23181818181818,
                "pitch": 71,
                "velocity": 40,
                "duration": 0.13409090909090793,
                "tempo": 120.0
            },
            {
                "start_time": 50.25,
                "end_time": 50.38181818181818,
                "pitch": 67,
                "velocity": 40,
                "duration": 0.13181818181818272,
                "tempo": 120.0
            },
            {
                "start_time": 50.4,
                "end_time": 50.53181818181818,
                "pitch": 66,
                "velocity": 40,
                "duration": 0.13181818181818272,
                "tempo": 120.0
            },
            {
                "start_time": 50.55,
                "end_time": 50.67727272727272,
                "pitch": 57,
                "velocity": 40,
                "duration": 0.1272727272727252,
                "tempo": 120.0
            },
            {
                "start_time": 50.695454545454545,
                "end_time": 50.824999999999996,
                "pitch": 69,
                "velocity": 40,
                "duration": 0.1295454545454504,
                "tempo": 120.0
            },
            {
                "start_time": 50.840909090909086,
                "end_time": 50.974999999999994,
                "pitch": 61,
                "velocity": 40,
                "duration": 0.13409090909090793,
                "tempo": 120.0
            },
            {
                "start_time": 50.990909090909085,
                "end_time": 51.125,
                "pitch": 68,
                "velocity": 40,
                "duration": 0.13409090909091503,
                "tempo": 120.0
            },
            {
                "start_time": 51.14090909090909,
                "end_time": 51.27954545454545,
                "pitch": 61,
                "velocity": 40,
                "duration": 0.13863636363635834,
                "tempo": 120.0
            },
            {
                "start_time": 51.29772727272727,
                "end_time": 51.434090909090905,
                "pitch": 66,
                "velocity": 40,
                "duration": 0.13636363636363313,
                "tempo": 120.0
            },
            {
                "start_time": 51.45227272727273,
                "end_time": 51.58181818181818,
                "pitch": 71,
                "velocity": 40,
                "duration": 0.1295454545454504,
                "tempo": 120.0
            },
            {
                "start_time": 51.59772727272727,
                "end_time": 51.72727272727273,
                "pitch": 69,
                "velocity": 40,
                "duration": 0.12954545454545752,
                "tempo": 120.0
            },
            {
                "start_time": 51.74318181818182,
                "end_time": 51.88181818181818,
                "pitch": 64,
                "velocity": 40,
                "duration": 0.13863636363636545,
                "tempo": 120.0
            },
            {
                "start_time": 51.89772727272727,
                "end_time": 52.03636363636363,
                "pitch": 61,
                "velocity": 40,
                "duration": 0.13863636363635834,
                "tempo": 120.0
            },
            {
                "start_time": 52.054545454545455,
                "end_time": 52.184090909090905,
                "pitch": 73,
                "velocity": 40,
                "duration": 0.1295454545454504,
                "tempo": 120.0
            },
            {
                "start_time": 52.199999999999996,
                "end_time": 52.32954545454545,
                "pitch": 69,
                "velocity": 40,
                "duration": 0.12954545454545752,
                "tempo": 120.0
            },
            {
                "start_time": 52.345454545454544,
                "end_time": 52.47954545454545,
                "pitch": 64,
                "velocity": 40,
                "duration": 0.13409090909090793,
                "tempo": 120.0
            },
            {
                "start_time": 52.49545454545454,
                "end_time": 52.62954545454545,
                "pitch": 61,
                "velocity": 40,
                "duration": 0.13409090909090793,
                "tempo": 120.0
            },
            {
                "start_time": 52.64772727272727,
                "end_time": 52.77954545454545,
                "pitch": 69,
                "velocity": 40,
                "duration": 0.13181818181817562,
                "tempo": 120.0
            },
            {
                "start_time": 52.79772727272727,
                "end_time": 52.929545454545455,
                "pitch": 65,
                "velocity": 40,
                "duration": 0.13181818181818272,
                "tempo": 120.0
            },
            {
                "start_time": 52.94772727272727,
                "end_time": 53.22954545454545,
                "pitch": 59,
                "velocity": 40,
                "duration": 0.2818181818181813,
                "tempo": 120.0
            },
            {
                "start_time": 53.24772727272727,
                "end_time": 53.38409090909091,
                "pitch": 71,
                "velocity": 40,
                "duration": 0.13636363636364024,
                "tempo": 120.0
            },
            {
                "start_time": 53.402272727272724,
                "end_time": 53.68636363636363,
                "pitch": 59,
                "velocity": 40,
                "duration": 0.2840909090909065,
                "tempo": 120.0
            },
            {
                "start_time": 53.70227272727273,
                "end_time": 53.83181818181818,
                "pitch": 69,
                "velocity": 40,
                "duration": 0.1295454545454504,
                "tempo": 120.0
            },
            {
                "start_time": 53.84772727272727,
                "end_time": 54.14090909090909,
                "pitch": 59,
                "velocity": 40,
                "duration": 0.29318181818182154,
                "tempo": 120.0
            },
            {
                "start_time": 54.15909090909091,
                "end_time": 54.288636363636364,
                "pitch": 67,
                "velocity": 40,
                "duration": 0.12954545454545752,
                "tempo": 120.0
            },
            {
                "start_time": 54.304545454545455,
                "end_time": 54.584090909090904,
                "pitch": 59,
                "velocity": 40,
                "duration": 0.279545454545449,
                "tempo": 120.0
            },
            {
                "start_time": 54.599999999999994,
                "end_time": 54.73409090909091,
                "pitch": 66,
                "velocity": 40,
                "duration": 0.13409090909091503,
                "tempo": 120.0
            },
            {
                "start_time": 54.75,
                "end_time": 54.88409090909091,
                "pitch": 59,
                "velocity": 40,
                "duration": 0.13409090909090793,
                "tempo": 120.0
            },
            {
                "start_time": 54.9,
                "end_time": 55.03409090909091,
                "pitch": 61,
                "velocity": 40,
                "duration": 0.13409090909090793,
                "tempo": 120.0
            },
            {
                "start_time": 55.05227272727272,
                "end_time": 55.184090909090905,
                "pitch": 62,
                "velocity": 40,
                "duration": 0.13181818181818272,
                "tempo": 120.0
            },
            {
                "start_time": 55.20227272727273,
                "end_time": 55.334090909090904,
                "pitch": 64,
                "velocity": 40,
                "duration": 0.13181818181817562,
                "tempo": 120.0
            },
            {
                "start_time": 55.35227272727273,
                "end_time": 55.64545454545454,
                "pitch": 59,
                "velocity": 40,
                "duration": 0.29318181818181444,
                "tempo": 120.0
            },
            {
                "start_time": 55.66136363636363,
                "end_time": 55.79090909090909,
                "pitch": 73,
                "velocity": 40,
                "duration": 0.12954545454545752,
                "tempo": 120.0
            },
            {
                "start_time": 55.80681818181818,
                "end_time": 56.086363636363636,
                "pitch": 59,
                "velocity": 40,
                "duration": 0.2795454545454561,
                "tempo": 120.0
            },
            {
                "start_time": 56.10227272727273,
                "end_time": 56.236363636363635,
                "pitch": 71,
                "velocity": 40,
                "duration": 0.13409090909090793,
                "tempo": 120.0
            },
            {
                "start_time": 56.252272727272725,
                "end_time": 56.538636363636364,
                "pitch": 59,
                "velocity": 40,
                "duration": 0.2863636363636388,
                "tempo": 120.0
            },
            {
                "start_time": 56.554545454545455,
                "end_time": 56.68863636363636,
                "pitch": 69,
                "velocity": 40,
                "duration": 0.13409090909090793,
                "tempo": 120.0
            },
            {
                "start_time": 56.70454545454545,
                "end_time": 56.98863636363636,
                "pitch": 59,
                "velocity": 40,
                "duration": 0.2840909090909065,
                "tempo": 120.0
            },
            {
                "start_time": 57.00454545454545,
                "end_time": 57.13863636363636,
                "pitch": 67,
                "velocity": 40,
                "duration": 0.13409090909090793,
                "tempo": 120.0
            },
            {
                "start_time": 57.15681818181818,
                "end_time": 57.288636363636364,
                "pitch": 62,
                "velocity": 40,
                "duration": 0.13181818181818272,
                "tempo": 120.0
            },
            {
                "start_time": 57.30681818181818,
                "end_time": 57.58863636363636,
                "pitch": 64,
                "velocity": 40,
                "duration": 0.2818181818181813,
                "tempo": 120.0
            },
            {
                "start_time": 57.60681818181818,
                "end_time": 57.74318181818182,
                "pitch": 69,
                "velocity": 40,
                "duration": 0.13636363636364024,
                "tempo": 120.0
            }
        ],
        "Vibraphone": [
            {
                "start_time": 0.1568181818181818,
                "end_time": 0.48409090909090907,
                "pitch": 68,
                "velocity": 40,
                "duration": 0.32727272727272727,
                "tempo": 120.0
            },
            {
                "start_time": 1.6545454545454545,
                "end_time": 2.0863636363636364,
                "pitch": 71,
                "velocity": 40,
                "duration": 0.4318181818181819,
                "tempo": 120.0
            },
            {
                "start_time": 2.102272727272727,
                "end_time": 2.3863636363636362,
                "pitch": 73,
                "velocity": 40,
                "duration": 0.28409090909090917,
                "tempo": 120.0
            },
            {
                "start_time": 2.4045454545454543,
                "end_time": 2.5863636363636364,
                "pitch": 71,
                "velocity": 40,
                "duration": 0.1818181818181821,
                "tempo": 120.0
            },
            {
                "start_time": 3.315909090909091,
                "end_time": 3.9,
                "pitch": 68,
                "velocity": 40,
                "duration": 0.584090909090909,
                "tempo": 120.0
            },
            {
                "start_time": 3.918181818181818,
                "end_time": 4.502272727272727,
                "pitch": 66,
                "velocity": 40,
                "duration": 0.584090909090909,
                "tempo": 120.0
            },
            {
                "start_time": 4.518181818181818,
                "end_time": 4.793181818181818,
                "pitch": 68,
                "velocity": 40,
                "duration": 0.27500000000000036,
                "tempo": 120.0
            },
            {
                "start_time": 4.809090909090909,
                "end_time": 6.304545454545455,
                "pitch": 68,
                "velocity": 40,
                "duration": 1.495454545454546,
                "tempo": 120.0
            },
            {
                "start_time": 6.322727272727272,
                "end_time": 6.8977272727272725,
                "pitch": 71,
                "velocity": 40,
                "duration": 0.5750000000000002,
                "tempo": 120.0
            },
            {
                "start_time": 6.913636363636363,
                "end_time": 7.197727272727272,
                "pitch": 73,
                "velocity": 40,
                "duration": 0.28409090909090917,
                "tempo": 120.0
            },
            {
                "start_time": 7.215909090909091,
                "end_time": 8.10909090909091,
                "pitch": 71,
                "velocity": 40,
                "duration": 0.8931818181818185,
                "tempo": 120.0
            },
            {
                "start_time": 8.125,
                "end_time": 8.709090909090909,
                "pitch": 68,
                "velocity": 40,
                "duration": 0.584090909090909,
                "tempo": 120.0
            },
            {
                "start_time": 8.727272727272727,
                "end_time": 9.311363636363636,
                "pitch": 66,
                "velocity": 40,
                "duration": 0.584090909090909,
                "tempo": 120.0
            },
            {
                "start_time": 9.327272727272726,
                "end_time": 9.604545454545454,
                "pitch": 68,
                "velocity": 40,
                "duration": 0.27727272727272734,
                "tempo": 120.0
            },
            {
                "start_time": 9.620454545454544,
                "end_time": 9.802272727272726,
                "pitch": 68,
                "velocity": 40,
                "duration": 0.18181818181818166,
                "tempo": 120.0
            },
            {
                "start_time": 11.134090909090908,
                "end_time": 11.561363636363636,
                "pitch": 73,
                "velocity": 40,
                "duration": 0.4272727272727277,
                "tempo": 120.0
            },
            {
                "start_time": 11.579545454545453,
                "end_time": 12.009090909090908,
                "pitch": 71,
                "velocity": 40,
                "duration": 0.4295454545454547,
                "tempo": 120.0
            },
            {
                "start_time": 12.024999999999999,
                "end_time": 12.818181818181818,
                "pitch": 68,
                "velocity": 40,
                "duration": 0.7931818181818198,
                "tempo": 120.0
            },
            {
                "start_time": 13.540909090909091,
                "end_time": 13.96590909090909,
                "pitch": 64,
                "velocity": 40,
                "duration": 0.42499999999999893,
                "tempo": 120.0
            },
            {
                "start_time": 13.984090909090908,
                "end_time": 14.568181818181818,
                "pitch": 66,
                "velocity": 40,
                "duration": 0.5840909090909108,
                "tempo": 120.0
            },
            {
                "start_time": 14.584090909090909,
                "end_time": 15.377272727272727,
                "pitch": 68,
                "velocity": 40,
                "duration": 0.793181818181818,
                "tempo": 120.0
            },
            {
                "start_time": 16.08863636363636,
                "end_time": 16.522727272727273,
                "pitch": 73,
                "velocity": 40,
                "duration": 0.4340909090909122,
                "tempo": 120.0
            },
            {
                "start_time": 16.538636363636364,
                "end_time": 16.82272727272727,
                "pitch": 71,
                "velocity": 40,
                "duration": 0.2840909090909065,
                "tempo": 120.0
            },
            {
                "start_time": 16.84090909090909,
                "end_time": 19.384090909090908,
                "pitch": 68,
                "velocity": 40,
                "duration": 2.543181818181818,
                "tempo": 120.0
            },
            {
                "start_time": 19.4,
                "end_time": 19.73409090909091,
                "pitch": 68,
                "velocity": 40,
                "duration": 0.33409090909091077,
                "tempo": 120.0
            },
            {
                "start_time": 20.911363636363635,
                "end_time": 21.34090909090909,
                "pitch": 71,
                "velocity": 40,
                "duration": 0.4295454545454547,
                "tempo": 120.0
            },
            {
                "start_time": 21.35909090909091,
                "end_time": 21.643181818181816,
                "pitch": 73,
                "velocity": 40,
                "duration": 0.2840909090909065,
                "tempo": 120.0
            },
            {
                "start_time": 21.659090909090907,
                "end_time": 21.845454545454544,
                "pitch": 71,
                "velocity": 40,
                "duration": 0.1863636363636374,
                "tempo": 120.0
            },
            {
                "start_time": 22.57272727272727,
                "end_time": 23.15681818181818,
                "pitch": 68,
                "velocity": 40,
                "duration": 0.5840909090909108,
                "tempo": 120.0
            },
            {
                "start_time": 23.172727272727272,
                "end_time": 23.74772727272727,
                "pitch": 66,
                "velocity": 40,
                "duration": 0.5749999999999993,
                "tempo": 120.0
            },
            {
                "start_time": 23.76590909090909,
                "end_time": 24.049999999999997,
                "pitch": 68,
                "velocity": 40,
                "duration": 0.2840909090909065,
                "tempo": 120.0
            },
            {
                "start_time": 24.06590909090909,
                "end_time": 25.55681818181818,
                "pitch": 68,
                "velocity": 40,
                "duration": 1.4909090909090885,
                "tempo": 120.0
            },
            {
                "start_time": 25.57272727272727,
                "end_time": 26.159090909090907,
                "pitch": 71,
                "velocity": 40,
                "duration": 0.586363636363636,
                "tempo": 120.0
            },
            {
                "start_time": 26.174999999999997,
                "end_time": 26.461363636363636,
                "pitch": 73,
                "velocity": 40,
                "duration": 0.2863636363636388,
                "tempo": 120.0
            },
            {
                "start_time": 26.477272727272727,
                "end_time": 27.37272727272727,
                "pitch": 71,
                "velocity": 40,
                "duration": 0.8954545454545446,
                "tempo": 120.0
            },
            {
                "start_time": 27.388636363636362,
                "end_time": 27.96590909090909,
                "pitch": 68,
                "velocity": 40,
                "duration": 0.577272727272728,
                "tempo": 120.0
            },
            {
                "start_time": 27.98181818181818,
                "end_time": 28.565909090909088,
                "pitch": 66,
                "velocity": 40,
                "duration": 0.5840909090909072,
                "tempo": 120.0
            },
            {
                "start_time": 28.584090909090907,
                "end_time": 28.868181818181817,
                "pitch": 68,
                "velocity": 40,
                "duration": 0.28409090909091006,
                "tempo": 120.0
            },
            {
                "start_time": 28.884090909090908,
                "end_time": 29.070454545454545,
                "pitch": 68,
                "velocity": 40,
                "duration": 0.1863636363636374,
                "tempo": 120.0
            },
            {
                "start_time": 30.4,
                "end_time": 30.829545454545453,
                "pitch": 73,
                "velocity": 40,
                "duration": 0.4295454545454547,
                "tempo": 120.0
            },
            {
                "start_time": 30.845454545454544,
                "end_time": 31.277272727272727,
                "pitch": 71,
                "velocity": 40,
                "duration": 0.43181818181818343,
                "tempo": 120.0
            },
            {
                "start_time": 31.293181818181818,
                "end_time": 32.086363636363636,
                "pitch": 68,
                "velocity": 40,
                "duration": 0.793181818181818,
                "tempo": 120.0
            },
            {
                "start_time": 32.80681818181818,
                "end_time": 33.23181818181818,
                "pitch": 64,
                "velocity": 40,
                "duration": 0.42499999999999716,
                "tempo": 120.0
            },
            {
                "start_time": 33.25,
                "end_time": 33.83409090909091,
                "pitch": 66,
                "velocity": 40,
                "duration": 0.5840909090909108,
                "tempo": 120.0
            },
            {
                "start_time": 33.85,
                "end_time": 34.643181818181816,
                "pitch": 68,
                "velocity": 40,
                "duration": 0.7931818181818144,
                "tempo": 120.0
            },
            {
                "start_time": 35.35909090909091,
                "end_time": 35.78636363636363,
                "pitch": 73,
                "velocity": 40,
                "duration": 0.42727272727272236,
                "tempo": 120.0
            },
            {
                "start_time": 35.804545454545455,
                "end_time": 36.08863636363636,
                "pitch": 71,
                "velocity": 40,
                "duration": 0.2840909090909065,
                "tempo": 120.0
            },
            {
                "start_time": 36.10454545454545,
                "end_time": 38.49318181818182,
                "pitch": 68,
                "velocity": 40,
                "duration": 2.3886363636363654,
                "tempo": 120.0
            }
        ]
    }
}