{
    "track_id": "Maze Hunter 3-D (FM) - 06 - Blaze Area",
    "mood": "happy",
    "instruments": {
        "Violin": [
            {
                "start_time": 0.0,
                "end_time": 0.029545454545454545,
                "pitch": 76,
                "velocity": 101,
                "duration": 0.029545454545454545,
                "tempo": 120.0
            },
            {
                "start_time": 0.06136363636363636,
                "end_time": 0.12727272727272726,
                "pitch": 86,
                "velocity": 101,
                "duration": 0.06590909090909089,
                "tempo": 120.0
            },
            {
                "start_time": 0.16136363636363635,
                "end_time": 0.22499999999999998,
                "pitch": 88,
                "velocity": 101,
                "duration": 0.06363636363636363,
                "tempo": 120.0
            },
            {
                "start_time": 0.2590909090909091,
                "end_time": 0.3227272727272727,
                "pitch": 83,
                "velocity": 101,
                "duration": 0.0636363636363636,
                "tempo": 120.0
            },
            {
                "start_time": 0.3568181818181818,
                "end_time": 0.42272727272727273,
                "pitch": 86,
                "velocity": 101,
                "duration": 0.06590909090909092,
                "tempo": 120.0
            },
            {
                "start_time": 0.45454545454545453,
                "end_time": 0.5227272727272727,
                "pitch": 83,
                "velocity": 101,
                "duration": 0.06818181818181818,
                "tempo": 120.0
            },
            {
                "start_time": 0.5568181818181818,
                "end_time": 0.625,
                "pitch": 81,
                "velocity": 101,
                "duration": 0.06818181818181823,
                "tempo": 120.0
            },
            {
                "start_time": 0.6590909090909091,
                "end_time": 1.1272727272727272,
                "pitch": 83,
                "velocity": 101,
                "duration": 0.46818181818181814,
                "tempo": 120.0
            },
            {
                "start_time": 1.159090909090909,
                "end_time": 1.4249999999999998,
                "pitch": 76,
                "velocity": 101,
                "duration": 0.2659090909090909,
                "tempo": 120.0
            },
            {
                "start_time": 1.4568181818181818,
                "end_time": 1.525,
                "pitch": 77,
                "velocity": 101,
                "duration": 0.06818181818181812,
                "tempo": 120.0
            },
            {
                "start_time": 1.5568181818181817,
                "end_time": 1.7249999999999999,
                "pitch": 74,
                "velocity": 101,
                "duration": 0.1681818181818182,
                "tempo": 120.0
            },
            {
                "start_time": 1.759090909090909,
                "end_time": 2.4272727272727272,
                "pitch": 83,
                "velocity": 101,
                "duration": 0.6681818181818182,
                "tempo": 120.0
            },
            {
                "start_time": 2.459090909090909,
                "end_time": 2.8363636363636364,
                "pitch": 76,
                "velocity": 101,
                "duration": 0.3772727272727274,
                "tempo": 120.0
            },
            {
                "start_time": 2.870454545454545,
                "end_time": 3.131818181818182,
                "pitch": 67,
                "velocity": 101,
                "duration": 0.2613636363636367,
                "tempo": 120.0
            },
            {
                "start_time": 3.1636363636363636,
                "end_time": 4.727272727272727,
                "pitch": 74,
                "velocity": 101,
                "duration": 1.563636363636363,
                "tempo": 120.0
            },
            {
                "start_time": 4.759090909090909,
                "end_time": 4.825,
                "pitch": 76,
                "velocity": 101,
                "duration": 0.06590909090909136,
                "tempo": 120.0
            },
            {
                "start_time": 4.8568181818181815,
                "end_time": 4.927272727272727,
                "pitch": 75,
                "velocity": 101,
                "duration": 0.07045454545454533,
                "tempo": 120.0
            },
            {
                "start_time": 4.963636363636363,
                "end_time": 5.034090909090909,
                "pitch": 74,
                "velocity": 101,
                "duration": 0.07045454545454621,
                "tempo": 120.0
            },
            {
                "start_time": 5.068181818181818,
                "end_time": 5.138636363636364,
                "pitch": 73,
                "velocity": 101,
                "duration": 0.07045454545454533,
                "tempo": 120.0
            },
            {
                "start_time": 5.175,
                "end_time": 5.245454545454545,
                "pitch": 72,
                "velocity": 101,
                "duration": 0.07045454545454533,
                "tempo": 120.0
            },
            {
                "start_time": 5.279545454545454,
                "end_time": 5.345454545454545,
                "pitch": 71,
                "velocity": 101,
                "duration": 0.06590909090909047,
                "tempo": 120.0
            },
            {
                "start_time": 5.377272727272727,
                "end_time": 5.540909090909091,
                "pitch": 69,
                "velocity": 101,
                "duration": 0.16363636363636402,
                "tempo": 120.0
            },
            {
                "start_time": 5.572727272727272,
                "end_time": 6.340909090909091,
                "pitch": 71,
                "velocity": 101,
                "duration": 0.7681818181818185,
                "tempo": 120.0
            },
            {
                "start_time": 6.375,
                "end_time": 6.4409090909090905,
                "pitch": 76,
                "velocity": 101,
                "duration": 0.06590909090909047,
                "tempo": 120.0
            },
            {
                "start_time": 6.475,
                "end_time": 6.540909090909091,
                "pitch": 86,
                "velocity": 101,
                "duration": 0.06590909090909136,
                "tempo": 120.0
            },
            {
                "start_time": 6.574999999999999,
                "end_time": 6.643181818181818,
                "pitch": 88,
                "velocity": 101,
                "duration": 0.06818181818181834,
                "tempo": 120.0
            },
            {
                "start_time": 6.675,
                "end_time": 6.743181818181818,
                "pitch": 83,
                "velocity": 101,
                "duration": 0.06818181818181834,
                "tempo": 120.0
            },
            {
                "start_time": 6.777272727272727,
                "end_time": 6.843181818181818,
                "pitch": 86,
                "velocity": 101,
                "duration": 0.06590909090909047,
                "tempo": 120.0
            },
            {
                "start_time": 6.877272727272727,
                "end_time": 6.945454545454545,
                "pitch": 83,
                "velocity": 101,
                "duration": 0.06818181818181834,
                "tempo": 120.0
            },
            {
                "start_time": 6.9795454545454545,
                "end_time": 7.047727272727272,
                "pitch": 81,
                "velocity": 101,
                "duration": 0.06818181818181746,
                "tempo": 120.0
            },
            {
                "start_time": 7.081818181818181,
                "end_time": 7.55,
                "pitch": 83,
                "velocity": 101,
                "duration": 0.4681818181818187,
                "tempo": 120.0
            },
            {
                "start_time": 7.581818181818181,
                "end_time": 7.847727272727273,
                "pitch": 76,
                "velocity": 101,
                "duration": 0.26590909090909154,
                "tempo": 120.0
            },
            {
                "start_time": 7.881818181818182,
                "end_time": 7.947727272727272,
                "pitch": 77,
                "velocity": 101,
                "duration": 0.06590909090909047,
                "tempo": 120.0
            },
            {
                "start_time": 7.9818181818181815,
                "end_time": 8.15,
                "pitch": 74,
                "velocity": 101,
                "duration": 0.16818181818181888,
                "tempo": 120.0
            },
            {
                "start_time": 8.186363636363636,
                "end_time": 8.820454545454545,
                "pitch": 83,
                "velocity": 101,
                "duration": 0.6340909090909097,
                "tempo": 120.0
            },
            {
                "start_time": 8.852272727272727,
                "end_time": 9.261363636363637,
                "pitch": 76,
                "velocity": 101,
                "duration": 0.40909090909091006,
                "tempo": 120.0
            },
            {
                "start_time": 9.295454545454545,
                "end_time": 9.556818181818182,
                "pitch": 67,
                "velocity": 101,
                "duration": 0.2613636363636367,
                "tempo": 120.0
            },
            {
                "start_time": 9.59090909090909,
                "end_time": 11.154545454545454,
                "pitch": 74,
                "velocity": 101,
                "duration": 1.5636363636363644,
                "tempo": 120.0
            },
            {
                "start_time": 11.188636363636363,
                "end_time": 11.25,
                "pitch": 76,
                "velocity": 101,
                "duration": 0.0613636363636374,
                "tempo": 120.0
            },
            {
                "start_time": 11.279545454545454,
                "end_time": 11.338636363636363,
                "pitch": 75,
                "velocity": 101,
                "duration": 0.05909090909090864,
                "tempo": 120.0
            },
            {
                "start_time": 11.368181818181817,
                "end_time": 11.424999999999999,
                "pitch": 74,
                "velocity": 101,
                "duration": 0.05681818181818166,
                "tempo": 120.0
            },
            {
                "start_time": 11.454545454545453,
                "end_time": 11.513636363636364,
                "pitch": 73,
                "velocity": 101,
                "duration": 0.059090909090910415,
                "tempo": 120.0
            },
            {
                "start_time": 11.543181818181818,
                "end_time": 11.604545454545454,
                "pitch": 72,
                "velocity": 101,
                "duration": 0.06136363636363562,
                "tempo": 120.0
            },
            {
                "start_time": 11.634090909090908,
                "end_time": 11.695454545454545,
                "pitch": 71,
                "velocity": 101,
                "duration": 0.0613636363636374,
                "tempo": 120.0
            },
            {
                "start_time": 11.727272727272727,
                "end_time": 11.881818181818181,
                "pitch": 69,
                "velocity": 101,
                "duration": 0.15454545454545432,
                "tempo": 120.0
            },
            {
                "start_time": 11.913636363636362,
                "end_time": 12.681818181818182,
                "pitch": 71,
                "velocity": 101,
                "duration": 0.7681818181818194,
                "tempo": 120.0
            },
            {
                "start_time": 12.713636363636363,
                "end_time": 12.98181818181818,
                "pitch": 72,
                "velocity": 101,
                "duration": 0.26818181818181763,
                "tempo": 120.0
            },
            {
                "start_time": 13.01590909090909,
                "end_time": 13.279545454545454,
                "pitch": 72,
                "velocity": 101,
                "duration": 0.26363636363636367,
                "tempo": 120.0
            },
            {
                "start_time": 13.313636363636363,
                "end_time": 13.477272727272727,
                "pitch": 69,
                "velocity": 101,
                "duration": 0.16363636363636402,
                "tempo": 120.0
            },
            {
                "start_time": 13.509090909090908,
                "end_time": 13.788636363636362,
                "pitch": 67,
                "velocity": 101,
                "duration": 0.2795454545454543,
                "tempo": 120.0
            },
            {
                "start_time": 13.825,
                "end_time": 14.088636363636363,
                "pitch": 67,
                "velocity": 101,
                "duration": 0.26363636363636367,
                "tempo": 120.0
            },
            {
                "start_time": 14.120454545454544,
                "end_time": 14.279545454545454,
                "pitch": 69,
                "velocity": 101,
                "duration": 0.15909090909091006,
                "tempo": 120.0
            },
            {
                "start_time": 14.311363636363636,
                "end_time": 14.586363636363636,
                "pitch": 71,
                "velocity": 101,
                "duration": 0.27500000000000036,
                "tempo": 120.0
            },
            {
                "start_time": 14.620454545454544,
                "end_time": 14.688636363636363,
                "pitch": 71,
                "velocity": 101,
                "duration": 0.06818181818181834,
                "tempo": 120.0
            },
            {
                "start_time": 14.722727272727273,
                "end_time": 15.886363636363635,
                "pitch": 71,
                "velocity": 101,
                "duration": 1.1636363636363622,
                "tempo": 120.0
            },
            {
                "start_time": 15.918181818181818,
                "end_time": 16.302272727272726,
                "pitch": 74,
                "velocity": 101,
                "duration": 0.38409090909090793,
                "tempo": 120.0
            },
            {
                "start_time": 16.33863636363636,
                "end_time": 16.502272727272725,
                "pitch": 74,
                "velocity": 101,
                "duration": 0.16363636363636402,
                "tempo": 120.0
            },
            {
                "start_time": 16.53409090909091,
                "end_time": 16.69772727272727,
                "pitch": 71,
                "velocity": 101,
                "duration": 0.16363636363636047,
                "tempo": 120.0
            },
            {
                "start_time": 16.73181818181818,
                "end_time": 17.097727272727273,
                "pitch": 79,
                "velocity": 101,
                "duration": 0.36590909090909207,
                "tempo": 120.0
            },
            {
                "start_time": 17.131818181818183,
                "end_time": 17.5,
                "pitch": 77,
                "velocity": 101,
                "duration": 0.3681818181818173,
                "tempo": 120.0
            },
            {
                "start_time": 17.534090909090907,
                "end_time": 19.070454545454545,
                "pitch": 81,
                "velocity": 101,
                "duration": 1.5363636363636388,
                "tempo": 120.0
            },
            {
                "start_time": 19.136363636363637,
                "end_time": 19.202272727272728,
                "pitch": 76,
                "velocity": 101,
                "duration": 0.06590909090909136,
                "tempo": 120.0
            },
            {
                "start_time": 19.23409090909091,
                "end_time": 19.3,
                "pitch": 86,
                "velocity": 101,
                "duration": 0.06590909090909136,
                "tempo": 120.0
            },
            {
                "start_time": 19.331818181818182,
                "end_time": 19.397727272727273,
                "pitch": 88,
                "velocity": 101,
                "duration": 0.06590909090909136,
                "tempo": 120.0
            },
            {
                "start_time": 19.43181818181818,
                "end_time": 19.495454545454546,
                "pitch": 83,
                "velocity": 101,
                "duration": 0.06363636363636616,
                "tempo": 120.0
            },
            {
                "start_time": 19.529545454545453,
                "end_time": 19.595454545454544,
                "pitch": 86,
                "velocity": 101,
                "duration": 0.06590909090909136,
                "tempo": 120.0
            },
            {
                "start_time": 19.629545454545454,
                "end_time": 19.695454545454545,
                "pitch": 83,
                "velocity": 101,
                "duration": 0.06590909090909136,
                "tempo": 120.0
            },
            {
                "start_time": 19.729545454545452,
                "end_time": 19.795454545454543,
                "pitch": 81,
                "velocity": 101,
                "duration": 0.06590909090909136,
                "tempo": 120.0
            },
            {
                "start_time": 19.829545454545453,
                "end_time": 20.329545454545453,
                "pitch": 83,
                "velocity": 101,
                "duration": 0.5,
                "tempo": 120.0
            },
            {
                "start_time": 20.36590909090909,
                "end_time": 20.668181818181818,
                "pitch": 76,
                "velocity": 101,
                "duration": 0.30227272727272947,
                "tempo": 120.0
            },
            {
                "start_time": 20.706818181818182,
                "end_time": 20.784090909090907,
                "pitch": 77,
                "velocity": 101,
                "duration": 0.0772727272727245,
                "tempo": 120.0
            },
            {
                "start_time": 20.82272727272727,
                "end_time": 21.00681818181818,
                "pitch": 74,
                "velocity": 101,
                "duration": 0.18409090909090864,
                "tempo": 120.0
            },
            {
                "start_time": 21.04090909090909,
                "end_time": 21.709090909090907,
                "pitch": 83,
                "velocity": 101,
                "duration": 0.668181818181818,
                "tempo": 120.0
            },
            {
                "start_time": 21.743181818181817,
                "end_time": 22.118181818181817,
                "pitch": 76,
                "velocity": 101,
                "duration": 0.375,
                "tempo": 120.0
            },
            {
                "start_time": 22.152272727272727,
                "end_time": 22.413636363636364,
                "pitch": 67,
                "velocity": 101,
                "duration": 0.2613636363636367,
                "tempo": 120.0
            },
            {
                "start_time": 22.44772727272727,
                "end_time": 24.011363636363637,
                "pitch": 74,
                "velocity": 101,
                "duration": 1.5636363636363662,
                "tempo": 120.0
            },
            {
                "start_time": 24.045454545454543,
                "end_time": 24.10909090909091,
                "pitch": 76,
                "velocity": 101,
                "duration": 0.06363636363636616,
                "tempo": 120.0
            },
            {
                "start_time": 24.143181818181816,
                "end_time": 24.211363636363636,
                "pitch": 75,
                "velocity": 101,
                "duration": 0.06818181818182012,
                "tempo": 120.0
            },
            {
                "start_time": 24.24772727272727,
                "end_time": 24.318181818181817,
                "pitch": 74,
                "velocity": 101,
                "duration": 0.07045454545454533,
                "tempo": 120.0
            },
            {
                "start_time": 24.352272727272727,
                "end_time": 24.422727272727272,
                "pitch": 73,
                "velocity": 101,
                "duration": 0.07045454545454533,
                "tempo": 120.0
            },
            {
                "start_time": 24.459090909090907,
                "end_time": 24.529545454545453,
                "pitch": 72,
                "velocity": 101,
                "duration": 0.07045454545454533,
                "tempo": 120.0
            },
            {
                "start_time": 24.563636363636363,
                "end_time": 24.63181818181818,
                "pitch": 71,
                "velocity": 101,
                "duration": 0.06818181818181657,
                "tempo": 120.0
            },
            {
                "start_time": 24.66590909090909,
                "end_time": 24.831818181818182,
                "pitch": 69,
                "velocity": 101,
                "duration": 0.16590909090909278,
                "tempo": 120.0
            },
            {
                "start_time": 24.86590909090909,
                "end_time": 25.625,
                "pitch": 71,
                "velocity": 101,
                "duration": 0.7590909090909115,
                "tempo": 120.0
            },
            {
                "start_time": 25.659090909090907,
                "end_time": 25.727272727272727,
                "pitch": 76,
                "velocity": 101,
                "duration": 0.06818181818182012,
                "tempo": 120.0
            },
            {
                "start_time": 25.759090909090908,
                "end_time": 25.827272727272724,
                "pitch": 86,
                "velocity": 101,
                "duration": 0.06818181818181657,
                "tempo": 120.0
            },
            {
                "start_time": 25.861363636363635,
                "end_time": 25.93181818181818,
                "pitch": 88,
                "velocity": 101,
                "duration": 0.07045454545454533,
                "tempo": 120.0
            },
            {
                "start_time": 25.96590909090909,
                "end_time": 26.034090909090907,
                "pitch": 83,
                "velocity": 101,
                "duration": 0.06818181818181657,
                "tempo": 120.0
            },
            {
                "start_time": 26.068181818181817,
                "end_time": 26.136363636363637,
                "pitch": 86,
                "velocity": 101,
                "duration": 0.06818181818182012,
                "tempo": 120.0
            },
            {
                "start_time": 26.170454545454543,
                "end_time": 26.236363636363635,
                "pitch": 83,
                "velocity": 101,
                "duration": 0.06590909090909136,
                "tempo": 120.0
            },
            {
                "start_time": 26.268181818181816,
                "end_time": 26.334090909090907,
                "pitch": 81,
                "velocity": 101,
                "duration": 0.06590909090909136,
                "tempo": 120.0
            },
            {
                "start_time": 26.36590909090909,
                "end_time": 26.831818181818182,
                "pitch": 83,
                "velocity": 101,
                "duration": 0.4659090909090935,
                "tempo": 120.0
            },
            {
                "start_time": 26.863636363636363,
                "end_time": 27.13181818181818,
                "pitch": 76,
                "velocity": 101,
                "duration": 0.26818181818181586,
                "tempo": 120.0
            },
            {
                "start_time": 27.16590909090909,
                "end_time": 27.23181818181818,
                "pitch": 77,
                "velocity": 101,
                "duration": 0.06590909090909136,
                "tempo": 120.0
            },
            {
                "start_time": 27.26590909090909,
                "end_time": 27.43409090909091,
                "pitch": 74,
                "velocity": 101,
                "duration": 0.168181818181818,
                "tempo": 120.0
            },
            {
                "start_time": 27.468181818181815,
                "end_time": 28.102272727272727,
                "pitch": 83,
                "velocity": 101,
                "duration": 0.6340909090909115,
                "tempo": 120.0
            },
            {
                "start_time": 28.136363636363637,
                "end_time": 28.534090909090907,
                "pitch": 76,
                "velocity": 101,
                "duration": 0.3977272727272698,
                "tempo": 120.0
            },
            {
                "start_time": 28.568181818181817,
                "end_time": 28.836363636363636,
                "pitch": 67,
                "velocity": 101,
                "duration": 0.2681818181818194,
                "tempo": 120.0
            },
            {
                "start_time": 28.870454545454542,
                "end_time": 30.427272727272726,
                "pitch": 74,
                "velocity": 101,
                "duration": 1.5568181818181834,
                "tempo": 120.0
            },
            {
                "start_time": 30.459090909090907,
                "end_time": 30.520454545454545,
                "pitch": 76,
                "velocity": 101,
                "duration": 0.0613636363636374,
                "tempo": 120.0
            },
            {
                "start_time": 30.549999999999997,
                "end_time": 30.60909090909091,
                "pitch": 75,
                "velocity": 101,
                "duration": 0.05909090909091219,
                "tempo": 120.0
            },
            {
                "start_time": 30.638636363636362,
                "end_time": 30.695454545454545,
                "pitch": 74,
                "velocity": 101,
                "duration": 0.05681818181818343,
                "tempo": 120.0
            },
            {
                "start_time": 30.724999999999998,
                "end_time": 30.784090909090907,
                "pitch": 73,
                "velocity": 101,
                "duration": 0.05909090909090864,
                "tempo": 120.0
            },
            {
                "start_time": 30.813636363636363,
                "end_time": 30.877272727272725,
                "pitch": 72,
                "velocity": 101,
                "duration": 0.0636363636363626,
                "tempo": 120.0
            },
            {
                "start_time": 30.909090909090907,
                "end_time": 30.972727272727273,
                "pitch": 71,
                "velocity": 101,
                "duration": 0.06363636363636616,
                "tempo": 120.0
            },
            {
                "start_time": 31.004545454545454,
                "end_time": 31.16363636363636,
                "pitch": 69,
                "velocity": 101,
                "duration": 0.1590909090909065,
                "tempo": 120.0
            },
            {
                "start_time": 31.195454545454545,
                "end_time": 31.96363636363636,
                "pitch": 71,
                "velocity": 101,
                "duration": 0.7681818181818159,
                "tempo": 120.0
            },
            {
                "start_time": 31.99772727272727,
                "end_time": 32.95909090909091,
                "pitch": 81,
                "velocity": 101,
                "duration": 0.9613636363636395,
                "tempo": 120.0
            },
            {
                "start_time": 32.99318181818182,
                "end_time": 33.13181818181818,
                "pitch": 79,
                "velocity": 101,
                "duration": 0.13863636363636545,
                "tempo": 120.0
            },
            {
                "start_time": 33.16590909090909,
                "end_time": 33.36363636363636,
                "pitch": 81,
                "velocity": 101,
                "duration": 0.19772727272727053,
                "tempo": 120.0
            },
            {
                "start_time": 33.39545454545454,
                "end_time": 33.559090909090905,
                "pitch": 74,
                "velocity": 101,
                "duration": 0.16363636363636402,
                "tempo": 120.0
            },
            {
                "start_time": 33.590909090909086,
                "end_time": 34.17272727272727,
                "pitch": 76,
                "velocity": 101,
                "duration": 0.5818181818181856,
                "tempo": 120.0
            },
            {
                "start_time": 34.20454545454545,
                "end_time": 34.56590909090909,
                "pitch": 77,
                "velocity": 101,
                "duration": 0.36136363636363455,
                "tempo": 120.0
            },
            {
                "start_time": 34.6,
                "end_time": 34.77045454545454,
                "pitch": 76,
                "velocity": 101,
                "duration": 0.17045454545453964,
                "tempo": 120.0
            },
            {
                "start_time": 34.804545454545455,
                "end_time": 35.175,
                "pitch": 72,
                "velocity": 101,
                "duration": 0.3704545454545425,
                "tempo": 120.0
            },
            {
                "start_time": 35.20681818181818,
                "end_time": 35.50909090909091,
                "pitch": 74,
                "velocity": 101,
                "duration": 0.30227272727272947,
                "tempo": 120.0
            },
            {
                "start_time": 36.0,
                "end_time": 36.77045454545454,
                "pitch": 67,
                "velocity": 101,
                "duration": 0.7704545454545411,
                "tempo": 120.0
            },
            {
                "start_time": 36.80227272727272,
                "end_time": 37.98181818181818,
                "pitch": 69,
                "velocity": 101,
                "duration": 1.1795454545454547,
                "tempo": 120.0
            },
            {
                "start_time": 38.01590909090909,
                "end_time": 38.08409090909091,
                "pitch": 72,
                "velocity": 101,
                "duration": 0.06818181818182012,
                "tempo": 120.0
            },
            {
                "start_time": 38.11818181818182,
                "end_time": 38.18636363636364,
                "pitch": 74,
                "velocity": 101,
                "duration": 0.06818181818182012,
                "tempo": 120.0
            },
            {
                "start_time": 38.220454545454544,
                "end_time": 38.393181818181816,
                "pitch": 72,
                "velocity": 101,
                "duration": 0.17272727272727195,
                "tempo": 120.0
            },
            {
                "start_time": 38.42727272727272,
                "end_time": 38.98181818181818,
                "pitch": 79,
                "velocity": 101,
                "duration": 0.5545454545454547,
                "tempo": 120.0
            },
            {
                "start_time": 39.01590909090909,
                "end_time": 39.08181818181818,
                "pitch": 77,
                "velocity": 101,
                "duration": 0.06590909090908781,
                "tempo": 120.0
            },
            {
                "start_time": 39.11363636363636,
                "end_time": 39.59772727272727,
                "pitch": 76,
                "velocity": 101,
                "duration": 0.48409090909090935,
                "tempo": 120.0
            },
            {
                "start_time": 39.63181818181818,
                "end_time": 39.79090909090909,
                "pitch": 74,
                "velocity": 101,
                "duration": 0.1590909090909065,
                "tempo": 120.0
            },
            {
                "start_time": 39.82272727272727,
                "end_time": 39.98181818181818,
                "pitch": 72,
                "velocity": 101,
                "duration": 0.1590909090909065,
                "tempo": 120.0
            },
            {
                "start_time": 40.01363636363636,
                "end_time": 40.58863636363636,
                "pitch": 77,
                "velocity": 101,
                "duration": 0.5750000000000028,
                "tempo": 120.0
            },
            {
                "start_time": 40.62045454545454,
                "end_time": 40.78409090909091,
                "pitch": 76,
                "velocity": 101,
                "duration": 0.16363636363636402,
                "tempo": 120.0
            },
            {
                "start_time": 40.81818181818181,
                "end_time": 40.98863636363636,
                "pitch": 74,
                "velocity": 101,
                "duration": 0.17045454545454675,
                "tempo": 120.0
            },
            {
                "start_time": 41.02272727272727,
                "end_time": 41.19318181818181,
                "pitch": 72,
                "velocity": 101,
                "duration": 0.17045454545453964,
                "tempo": 120.0
            },
            {
                "start_time": 41.22727272727273,
                "end_time": 41.293181818181814,
                "pitch": 74,
                "velocity": 101,
                "duration": 0.06590909090908781,
                "tempo": 120.0
            },
            {
                "start_time": 41.324999999999996,
                "end_time": 41.586363636363636,
                "pitch": 77,
                "velocity": 101,
                "duration": 0.26136363636364024,
                "tempo": 120.0
            },
            {
                "start_time": 41.62045454545454,
                "end_time": 42.39772727272727,
                "pitch": 76,
                "velocity": 101,
                "duration": 0.7772727272727309,
                "tempo": 120.0
            },
            {
                "start_time": 42.429545454545455,
                "end_time": 43.1,
                "pitch": 72,
                "velocity": 101,
                "duration": 0.6704545454545467,
                "tempo": 120.0
            },
            {
                "start_time": 43.13181818181818,
                "end_time": 43.199999999999996,
                "pitch": 71,
                "velocity": 101,
                "duration": 0.06818181818181301,
                "tempo": 120.0
            },
            {
                "start_time": 43.23409090909091,
                "end_time": 44.80227272727272,
                "pitch": 69,
                "velocity": 101,
                "duration": 1.568181818181813,
                "tempo": 120.0
            },
            {
                "start_time": 44.836363636363636,
                "end_time": 45.402272727272724,
                "pitch": 79,
                "velocity": 101,
                "duration": 0.5659090909090878,
                "tempo": 120.0
            },
            {
                "start_time": 45.434090909090905,
                "end_time": 45.5,
                "pitch": 77,
                "velocity": 101,
                "duration": 0.06590909090909491,
                "tempo": 120.0
            },
            {
                "start_time": 45.53181818181818,
                "end_time": 45.59772727272727,
                "pitch": 76,
                "velocity": 101,
                "duration": 0.06590909090908781,
                "tempo": 120.0
            },
            {
                "start_time": 45.63181818181818,
                "end_time": 46.211363636363636,
                "pitch": 74,
                "velocity": 101,
                "duration": 0.5795454545454533,
                "tempo": 120.0
            },
            {
                "start_time": 46.24318181818182,
                "end_time": 46.402272727272724,
                "pitch": 72,
                "velocity": 101,
                "duration": 0.1590909090909065,
                "tempo": 120.0
            },
            {
                "start_time": 46.434090909090905,
                "end_time": 46.60909090909091,
                "pitch": 74,
                "velocity": 101,
                "duration": 0.17500000000000426,
                "tempo": 120.0
            },
            {
                "start_time": 46.643181818181816,
                "end_time": 47.018181818181816,
                "pitch": 76,
                "velocity": 101,
                "duration": 0.375,
                "tempo": 120.0
            },
            {
                "start_time": 47.05227272727272,
                "end_time": 47.61363636363636,
                "pitch": 69,
                "velocity": 101,
                "duration": 0.5613636363636374,
                "tempo": 120.0
            },
            {
                "start_time": 47.64772727272727,
                "end_time": 47.71363636363636,
                "pitch": 65,
                "velocity": 101,
                "duration": 0.06590909090908781,
                "tempo": 120.0
            },
            {
                "start_time": 47.74772727272727,
                "end_time": 47.81363636363636,
                "pitch": 67,
                "velocity": 101,
                "duration": 0.06590909090909491,
                "tempo": 120.0
            },
            {
                "start_time": 47.84772727272727,
                "end_time": 47.913636363636364,
                "pitch": 69,
                "velocity": 101,
                "duration": 0.06590909090909491,
                "tempo": 120.0
            },
            {
                "start_time": 47.94772727272727,
                "end_time": 48.211363636363636,
                "pitch": 72,
                "velocity": 101,
                "duration": 0.26363636363636545,
                "tempo": 120.0
            },
            {
                "start_time": 48.24318181818182,
                "end_time": 48.40681818181818,
                "pitch": 69,
                "velocity": 101,
                "duration": 0.16363636363636402,
                "tempo": 120.0
            },
            {
                "start_time": 48.43863636363636,
                "end_time": 48.71363636363636,
                "pitch": 79,
                "velocity": 101,
                "duration": 0.2749999999999986,
                "tempo": 120.0
            },
            {
                "start_time": 48.74772727272727,
                "end_time": 49.018181818181816,
                "pitch": 77,
                "velocity": 101,
                "duration": 0.27045454545454817,
                "tempo": 120.0
            },
            {
                "start_time": 49.05227272727272,
                "end_time": 49.220454545454544,
                "pitch": 76,
                "velocity": 101,
                "duration": 0.16818181818182154,
                "tempo": 120.0
            },
            {
                "start_time": 49.252272727272725,
                "end_time": 50.413636363636364,
                "pitch": 74,
                "velocity": 101,
                "duration": 1.1613636363636388,
                "tempo": 120.0
            },
            {
                "start_time": 50.44772727272727,
                "end_time": 51.22727272727273,
                "pitch": 79,
                "velocity": 101,
                "duration": 0.7795454545454561,
                "tempo": 120.0
            }
        ],
        "Electric Guitar (clean)": [
            {
                "start_time": 0.0,
                "end_time": 0.029545454545454545,
                "pitch": 28,
                "velocity": 32,
                "duration": 0.029545454545454545,
                "tempo": 120.0
            },
            {
                "start_time": 0.06136363636363636,
                "end_time": 0.12727272727272726,
                "pitch": 38,
                "velocity": 32,
                "duration": 0.06590909090909089,
                "tempo": 120.0
            },
            {
                "start_time": 0.16136363636363635,
                "end_time": 0.22499999999999998,
                "pitch": 40,
                "velocity": 32,
                "duration": 0.06363636363636363,
                "tempo": 120.0
            },
            {
                "start_time": 0.2590909090909091,
                "end_time": 0.3227272727272727,
                "pitch": 35,
                "velocity": 32,
                "duration": 0.0636363636363636,
                "tempo": 120.0
            },
            {
                "start_time": 0.3568181818181818,
                "end_time": 0.42272727272727273,
                "pitch": 38,
                "velocity": 32,
                "duration": 0.06590909090909092,
                "tempo": 120.0
            },
            {
                "start_time": 0.45454545454545453,
                "end_time": 0.5227272727272727,
                "pitch": 35,
                "velocity": 32,
                "duration": 0.06818181818181818,
                "tempo": 120.0
            },
            {
                "start_time": 0.5568181818181818,
                "end_time": 0.625,
                "pitch": 33,
                "velocity": 32,
                "duration": 0.06818181818181823,
                "tempo": 120.0
            },
            {
                "start_time": 0.6590909090909091,
                "end_time": 1.1272727272727272,
                "pitch": 35,
                "velocity": 32,
                "duration": 0.46818181818181814,
                "tempo": 120.0
            },
            {
                "start_time": 1.159090909090909,
                "end_time": 1.4249999999999998,
                "pitch": 31,
                "velocity": 32,
                "duration": 0.2659090909090909,
                "tempo": 120.0
            },
            {
                "start_time": 1.4568181818181818,
                "end_time": 1.525,
                "pitch": 33,
                "velocity": 32,
                "duration": 0.06818181818181812,
                "tempo": 120.0
            },
            {
                "start_time": 1.5568181818181817,
                "end_time": 1.625,
                "pitch": 29,
                "velocity": 32,
                "duration": 0.06818181818181834,
                "tempo": 120.0
            },
            {
                "start_time": 1.6568181818181817,
                "end_time": 1.7249999999999999,
                "pitch": 31,
                "velocity": 32,
                "duration": 0.06818181818181812,
                "tempo": 120.0
            },
            {
                "start_time": 1.759090909090909,
                "end_time": 2.4272727272727272,
                "pitch": 38,
                "velocity": 32,
                "duration": 0.6681818181818182,
                "tempo": 120.0
            },
            {
                "start_time": 2.459090909090909,
                "end_time": 2.8363636363636364,
                "pitch": 38,
                "velocity": 32,
                "duration": 0.3772727272727274,
                "tempo": 120.0
            },
            {
                "start_time": 2.870454545454545,
                "end_time": 3.131818181818182,
                "pitch": 36,
                "velocity": 32,
                "duration": 0.2613636363636367,
                "tempo": 120.0
            },
            {
                "start_time": 3.1636363636363636,
                "end_time": 4.727272727272727,
                "pitch": 35,
                "velocity": 32,
                "duration": 1.563636363636363,
                "tempo": 120.0
            },
            {
                "start_time": 4.759090909090909,
                "end_time": 4.825,
                "pitch": 40,
                "velocity": 32,
                "duration": 0.06590909090909136,
                "tempo": 120.0
            },
            {
                "start_time": 4.8568181818181815,
                "end_time": 4.927272727272727,
                "pitch": 39,
                "velocity": 32,
                "duration": 0.07045454545454533,
                "tempo": 120.0
            },
            {
                "start_time": 4.963636363636363,
                "end_time": 4.997727272727272,
                "pitch": 38,
                "velocity": 32,
                "duration": 0.03409090909090917,
                "tempo": 120.0
            },
            {
                "start_time": 5.034090909090909,
                "end_time": 5.138636363636364,
                "pitch": 37,
                "velocity": 32,
                "duration": 0.1045454545454545,
                "tempo": 120.0
            },
            {
                "start_time": 5.175,
                "end_time": 5.245454545454545,
                "pitch": 36,
                "velocity": 32,
                "duration": 0.07045454545454533,
                "tempo": 120.0
            },
            {
                "start_time": 5.279545454545454,
                "end_time": 5.345454545454545,
                "pitch": 35,
                "velocity": 32,
                "duration": 0.06590909090909047,
                "tempo": 120.0
            },
            {
                "start_time": 5.377272727272727,
                "end_time": 5.540909090909091,
                "pitch": 39,
                "velocity": 32,
                "duration": 0.16363636363636402,
                "tempo": 120.0
            },
            {
                "start_time": 5.572727272727272,
                "end_time": 5.738636363636363,
                "pitch": 31,
                "velocity": 32,
                "duration": 0.165909090909091,
                "tempo": 120.0
            },
            {
                "start_time": 5.7727272727272725,
                "end_time": 5.9409090909090905,
                "pitch": 28,
                "velocity": 32,
                "duration": 0.168181818181818,
                "tempo": 120.0
            },
            {
                "start_time": 5.972727272727273,
                "end_time": 6.040909090909091,
                "pitch": 26,
                "velocity": 32,
                "duration": 0.06818181818181834,
                "tempo": 120.0
            },
            {
                "start_time": 6.074999999999999,
                "end_time": 6.340909090909091,
                "pitch": 28,
                "velocity": 32,
                "duration": 0.26590909090909154,
                "tempo": 120.0
            },
            {
                "start_time": 6.375,
                "end_time": 6.4409090909090905,
                "pitch": 28,
                "velocity": 32,
                "duration": 0.06590909090909047,
                "tempo": 120.0
            },
            {
                "start_time": 6.475,
                "end_time": 6.540909090909091,
                "pitch": 38,
                "velocity": 32,
                "duration": 0.06590909090909136,
                "tempo": 120.0
            },
            {
                "start_time": 6.574999999999999,
                "end_time": 6.643181818181818,
                "pitch": 40,
                "velocity": 32,
                "duration": 0.06818181818181834,
                "tempo": 120.0
            },
            {
                "start_time": 6.675,
                "end_time": 6.743181818181818,
                "pitch": 35,
                "velocity": 32,
                "duration": 0.06818181818181834,
                "tempo": 120.0
            },
            {
                "start_time": 6.777272727272727,
                "end_time": 6.843181818181818,
                "pitch": 38,
                "velocity": 32,
                "duration": 0.06590909090909047,
                "tempo": 120.0
            },
            {
                "start_time": 6.877272727272727,
                "end_time": 6.945454545454545,
                "pitch": 35,
                "velocity": 32,
                "duration": 0.06818181818181834,
                "tempo": 120.0
            },
            {
                "start_time": 6.9795454545454545,
                "end_time": 7.047727272727272,
                "pitch": 33,
                "velocity": 32,
                "duration": 0.06818181818181746,
                "tempo": 120.0
            },
            {
                "start_time": 7.081818181818181,
                "end_time": 7.55,
                "pitch": 35,
                "velocity": 32,
                "duration": 0.4681818181818187,
                "tempo": 120.0
            },
            {
                "start_time": 7.581818181818181,
                "end_time": 7.847727272727273,
                "pitch": 31,
                "velocity": 32,
                "duration": 0.26590909090909154,
                "tempo": 120.0
            },
            {
                "start_time": 7.881818181818182,
                "end_time": 7.947727272727272,
                "pitch": 33,
                "velocity": 32,
                "duration": 0.06590909090909047,
                "tempo": 120.0
            },
            {
                "start_time": 7.9818181818181815,
                "end_time": 8.049999999999999,
                "pitch": 29,
                "velocity": 32,
                "duration": 0.06818181818181746,
                "tempo": 120.0
            },
            {
                "start_time": 8.081818181818182,
                "end_time": 8.15,
                "pitch": 31,
                "velocity": 32,
                "duration": 0.06818181818181834,
                "tempo": 120.0
            },
            {
                "start_time": 8.186363636363636,
                "end_time": 8.852272727272727,
                "pitch": 38,
                "velocity": 32,
                "duration": 0.665909090909091,
                "tempo": 120.0
            },
            {
                "start_time": 8.886363636363637,
                "end_time": 9.261363636363637,
                "pitch": 38,
                "velocity": 32,
                "duration": 0.375,
                "tempo": 120.0
            },
            {
                "start_time": 9.295454545454545,
                "end_time": 9.556818181818182,
                "pitch": 36,
                "velocity": 32,
                "duration": 0.2613636363636367,
                "tempo": 120.0
            },
            {
                "start_time": 9.59090909090909,
                "end_time": 11.154545454545454,
                "pitch": 35,
                "velocity": 32,
                "duration": 1.5636363636363644,
                "tempo": 120.0
            },
            {
                "start_time": 11.188636363636363,
                "end_time": 11.25,
                "pitch": 40,
                "velocity": 32,
                "duration": 0.0613636363636374,
                "tempo": 120.0
            },
            {
                "start_time": 11.279545454545454,
                "end_time": 11.338636363636363,
                "pitch": 39,
                "velocity": 32,
                "duration": 0.05909090909090864,
                "tempo": 120.0
            },
            {
                "start_time": 11.368181818181817,
                "end_time": 11.424999999999999,
                "pitch": 38,
                "velocity": 32,
                "duration": 0.05681818181818166,
                "tempo": 120.0
            },
            {
                "start_time": 11.454545454545453,
                "end_time": 11.513636363636364,
                "pitch": 37,
                "velocity": 32,
                "duration": 0.059090909090910415,
                "tempo": 120.0
            },
            {
                "start_time": 11.543181818181818,
                "end_time": 11.604545454545454,
                "pitch": 36,
                "velocity": 32,
                "duration": 0.06136363636363562,
                "tempo": 120.0
            },
            {
                "start_time": 11.634090909090908,
                "end_time": 11.695454545454545,
                "pitch": 35,
                "velocity": 32,
                "duration": 0.0613636363636374,
                "tempo": 120.0
            },
            {
                "start_time": 11.727272727272727,
                "end_time": 11.881818181818181,
                "pitch": 39,
                "velocity": 32,
                "duration": 0.15454545454545432,
                "tempo": 120.0
            },
            {
                "start_time": 11.913636363636362,
                "end_time": 12.081818181818182,
                "pitch": 31,
                "velocity": 32,
                "duration": 0.16818181818181976,
                "tempo": 120.0
            },
            {
                "start_time": 12.11590909090909,
                "end_time": 12.288636363636362,
                "pitch": 28,
                "velocity": 32,
                "duration": 0.17272727272727195,
                "tempo": 120.0
            },
            {
                "start_time": 12.322727272727272,
                "end_time": 12.388636363636364,
                "pitch": 26,
                "velocity": 32,
                "duration": 0.06590909090909136,
                "tempo": 120.0
            },
            {
                "start_time": 12.420454545454545,
                "end_time": 12.681818181818182,
                "pitch": 28,
                "velocity": 32,
                "duration": 0.2613636363636367,
                "tempo": 120.0
            },
            {
                "start_time": 12.713636363636363,
                "end_time": 12.98181818181818,
                "pitch": 29,
                "velocity": 32,
                "duration": 0.26818181818181763,
                "tempo": 120.0
            },
            {
                "start_time": 13.01590909090909,
                "end_time": 13.377272727272727,
                "pitch": 41,
                "velocity": 32,
                "duration": 0.36136363636363633,
                "tempo": 120.0
            },
            {
                "start_time": 13.411363636363635,
                "end_time": 13.477272727272727,
                "pitch": 28,
                "velocity": 32,
                "duration": 0.06590909090909136,
                "tempo": 120.0
            },
            {
                "start_time": 13.509090909090908,
                "end_time": 13.788636363636362,
                "pitch": 31,
                "velocity": 32,
                "duration": 0.2795454545454543,
                "tempo": 120.0
            },
            {
                "start_time": 13.825,
                "end_time": 14.088636363636363,
                "pitch": 43,
                "velocity": 32,
                "duration": 0.26363636363636367,
                "tempo": 120.0
            },
            {
                "start_time": 14.120454545454544,
                "end_time": 14.279545454545454,
                "pitch": 31,
                "velocity": 32,
                "duration": 0.15909090909091006,
                "tempo": 120.0
            },
            {
                "start_time": 14.311363636363636,
                "end_time": 15.5,
                "pitch": 33,
                "velocity": 32,
                "duration": 1.1886363636363644,
                "tempo": 120.0
            },
            {
                "start_time": 15.536363636363635,
                "end_time": 15.790909090909091,
                "pitch": 40,
                "velocity": 32,
                "duration": 0.25454545454545574,
                "tempo": 120.0
            },
            {
                "start_time": 15.822727272727272,
                "end_time": 15.886363636363635,
                "pitch": 38,
                "velocity": 32,
                "duration": 0.0636363636363626,
                "tempo": 120.0
            },
            {
                "start_time": 15.918181818181818,
                "end_time": 16.161363636363635,
                "pitch": 45,
                "velocity": 32,
                "duration": 0.24318181818181728,
                "tempo": 120.0
            },
            {
                "start_time": 16.19772727272727,
                "end_time": 16.302272727272726,
                "pitch": 33,
                "velocity": 32,
                "duration": 0.10454545454545539,
                "tempo": 120.0
            },
            {
                "start_time": 16.33863636363636,
                "end_time": 16.404545454545453,
                "pitch": 45,
                "velocity": 32,
                "duration": 0.06590909090909136,
                "tempo": 120.0
            },
            {
                "start_time": 16.436363636363634,
                "end_time": 16.502272727272725,
                "pitch": 35,
                "velocity": 32,
                "duration": 0.06590909090909136,
                "tempo": 120.0
            },
            {
                "start_time": 16.53409090909091,
                "end_time": 16.599999999999998,
                "pitch": 47,
                "velocity": 32,
                "duration": 0.06590909090908781,
                "tempo": 120.0
            },
            {
                "start_time": 16.634090909090908,
                "end_time": 16.69772727272727,
                "pitch": 36,
                "velocity": 32,
                "duration": 0.0636363636363626,
                "tempo": 120.0
            },
            {
                "start_time": 16.73181818181818,
                "end_time": 17.097727272727273,
                "pitch": 48,
                "velocity": 32,
                "duration": 0.36590909090909207,
                "tempo": 120.0
            },
            {
                "start_time": 17.131818181818183,
                "end_time": 17.297727272727272,
                "pitch": 47,
                "velocity": 32,
                "duration": 0.16590909090908923,
                "tempo": 120.0
            },
            {
                "start_time": 17.331818181818182,
                "end_time": 17.5,
                "pitch": 41,
                "velocity": 32,
                "duration": 0.168181818181818,
                "tempo": 120.0
            },
            {
                "start_time": 17.534090909090907,
                "end_time": 18.46363636363636,
                "pitch": 43,
                "velocity": 32,
                "duration": 0.9295454545454547,
                "tempo": 120.0
            },
            {
                "start_time": 18.49772727272727,
                "end_time": 18.702272727272728,
                "pitch": 50,
                "velocity": 32,
                "duration": 0.2045454545454568,
                "tempo": 120.0
            },
            {
                "start_time": 18.736363636363635,
                "end_time": 18.904545454545453,
                "pitch": 38,
                "velocity": 32,
                "duration": 0.168181818181818,
                "tempo": 120.0
            },
            {
                "start_time": 18.936363636363634,
                "end_time": 19.036363636363635,
                "pitch": 40,
                "velocity": 32,
                "duration": 0.10000000000000142,
                "tempo": 120.0
            },
            {
                "start_time": 19.136363636363637,
                "end_time": 19.202272727272728,
                "pitch": 28,
                "velocity": 32,
                "duration": 0.06590909090909136,
                "tempo": 120.0
            },
            {
                "start_time": 19.23409090909091,
                "end_time": 19.3,
                "pitch": 38,
                "velocity": 32,
                "duration": 0.06590909090909136,
                "tempo": 120.0
            },
            {
                "start_time": 19.331818181818182,
                "end_time": 19.397727272727273,
                "pitch": 40,
                "velocity": 32,
                "duration": 0.06590909090909136,
                "tempo": 120.0
            },
            {
                "start_time": 19.43181818181818,
                "end_time": 19.495454545454546,
                "pitch": 35,
                "velocity": 32,
                "duration": 0.06363636363636616,
                "tempo": 120.0
            },
            {
                "start_time": 19.529545454545453,
                "end_time": 19.595454545454544,
                "pitch": 38,
                "velocity": 32,
                "duration": 0.06590909090909136,
                "tempo": 120.0
            },
            {
                "start_time": 19.629545454545454,
                "end_time": 19.695454545454545,
                "pitch": 35,
                "velocity": 32,
                "duration": 0.06590909090909136,
                "tempo": 120.0
            },
            {
                "start_time": 19.729545454545452,
                "end_time": 19.795454545454543,
                "pitch": 33,
                "velocity": 32,
                "duration": 0.06590909090909136,
                "tempo": 120.0
            },
            {
                "start_time": 19.829545454545453,
                "end_time": 20.329545454545453,
                "pitch": 35,
                "velocity": 32,
                "duration": 0.5,
                "tempo": 120.0
            },
            {
                "start_time": 20.36590909090909,
                "end_time": 20.668181818181818,
                "pitch": 31,
                "velocity": 32,
                "duration": 0.30227272727272947,
                "tempo": 120.0
            },
            {
                "start_time": 20.706818181818182,
                "end_time": 20.784090909090907,
                "pitch": 33,
                "velocity": 32,
                "duration": 0.0772727272727245,
                "tempo": 120.0
            },
            {
                "start_time": 20.82272727272727,
                "end_time": 20.9,
                "pitch": 29,
                "velocity": 32,
                "duration": 0.07727272727272805,
                "tempo": 120.0
            },
            {
                "start_time": 20.938636363636363,
                "end_time": 21.00681818181818,
                "pitch": 31,
                "velocity": 32,
                "duration": 0.06818181818181657,
                "tempo": 120.0
            },
            {
                "start_time": 21.04090909090909,
                "end_time": 21.709090909090907,
                "pitch": 38,
                "velocity": 32,
                "duration": 0.668181818181818,
                "tempo": 120.0
            },
            {
                "start_time": 21.743181818181817,
                "end_time": 22.118181818181817,
                "pitch": 38,
                "velocity": 32,
                "duration": 0.375,
                "tempo": 120.0
            },
            {
                "start_time": 22.152272727272727,
                "end_time": 22.413636363636364,
                "pitch": 36,
                "velocity": 32,
                "duration": 0.2613636363636367,
                "tempo": 120.0
            },
            {
                "start_time": 22.44772727272727,
                "end_time": 24.011363636363637,
                "pitch": 35,
                "velocity": 32,
                "duration": 1.5636363636363662,
                "tempo": 120.0
            },
            {
                "start_time": 24.045454545454543,
                "end_time": 24.10909090909091,
                "pitch": 40,
                "velocity": 32,
                "duration": 0.06363636363636616,
                "tempo": 120.0
            },
            {
                "start_time": 24.143181818181816,
                "end_time": 24.211363636363636,
                "pitch": 39,
                "velocity": 32,
                "duration": 0.06818181818182012,
                "tempo": 120.0
            },
            {
                "start_time": 24.24772727272727,
                "end_time": 24.28181818181818,
                "pitch": 38,
                "velocity": 32,
                "duration": 0.03409090909091006,
                "tempo": 120.0
            },
            {
                "start_time": 24.318181818181817,
                "end_time": 24.422727272727272,
                "pitch": 37,
                "velocity": 32,
                "duration": 0.10454545454545539,
                "tempo": 120.0
            },
            {
                "start_time": 24.459090909090907,
                "end_time": 24.529545454545453,
                "pitch": 36,
                "velocity": 32,
                "duration": 0.07045454545454533,
                "tempo": 120.0
            },
            {
                "start_time": 24.563636363636363,
                "end_time": 24.63181818181818,
                "pitch": 35,
                "velocity": 32,
                "duration": 0.06818181818181657,
                "tempo": 120.0
            },
            {
                "start_time": 24.66590909090909,
                "end_time": 24.831818181818182,
                "pitch": 39,
                "velocity": 32,
                "duration": 0.16590909090909278,
                "tempo": 120.0
            },
            {
                "start_time": 24.86590909090909,
                "end_time": 25.029545454545453,
                "pitch": 31,
                "velocity": 32,
                "duration": 0.16363636363636402,
                "tempo": 120.0
            },
            {
                "start_time": 25.063636363636363,
                "end_time": 25.227272727272727,
                "pitch": 28,
                "velocity": 32,
                "duration": 0.16363636363636402,
                "tempo": 120.0
            },
            {
                "start_time": 25.259090909090908,
                "end_time": 25.325,
                "pitch": 26,
                "velocity": 32,
                "duration": 0.06590909090909136,
                "tempo": 120.0
            },
            {
                "start_time": 25.35681818181818,
                "end_time": 25.625,
                "pitch": 28,
                "velocity": 32,
                "duration": 0.2681818181818194,
                "tempo": 120.0
            },
            {
                "start_time": 25.659090909090907,
                "end_time": 25.727272727272727,
                "pitch": 28,
                "velocity": 32,
                "duration": 0.06818181818182012,
                "tempo": 120.0
            },
            {
                "start_time": 25.759090909090908,
                "end_time": 25.827272727272724,
                "pitch": 38,
                "velocity": 32,
                "duration": 0.06818181818181657,
                "tempo": 120.0
            },
            {
                "start_time": 25.861363636363635,
                "end_time": 25.93181818181818,
                "pitch": 40,
                "velocity": 32,
                "duration": 0.07045454545454533,
                "tempo": 120.0
            },
            {
                "start_time": 25.96590909090909,
                "end_time": 26.034090909090907,
                "pitch": 35,
                "velocity": 32,
                "duration": 0.06818181818181657,
                "tempo": 120.0
            },
            {
                "start_time": 26.068181818181817,
                "end_time": 26.136363636363637,
                "pitch": 38,
                "velocity": 32,
                "duration": 0.06818181818182012,
                "tempo": 120.0
            },
            {
                "start_time": 26.170454545454543,
                "end_time": 26.236363636363635,
                "pitch": 35,
                "velocity": 32,
                "duration": 0.06590909090909136,
                "tempo": 120.0
            },
            {
                "start_time": 26.268181818181816,
                "end_time": 26.334090909090907,
                "pitch": 33,
                "velocity": 32,
                "duration": 0.06590909090909136,
                "tempo": 120.0
            },
            {
                "start_time": 26.36590909090909,
                "end_time": 26.831818181818182,
                "pitch": 35,
                "velocity": 32,
                "duration": 0.4659090909090935,
                "tempo": 120.0
            },
            {
                "start_time": 26.863636363636363,
                "end_time": 27.13181818181818,
                "pitch": 31,
                "velocity": 32,
                "duration": 0.26818181818181586,
                "tempo": 120.0
            },
            {
                "start_time": 27.16590909090909,
                "end_time": 27.23181818181818,
                "pitch": 33,
                "velocity": 32,
                "duration": 0.06590909090909136,
                "tempo": 120.0
            },
            {
                "start_time": 27.26590909090909,
                "end_time": 27.331818181818182,
                "pitch": 29,
                "velocity": 32,
                "duration": 0.06590909090909136,
                "tempo": 120.0
            },
            {
                "start_time": 27.36590909090909,
                "end_time": 27.43409090909091,
                "pitch": 31,
                "velocity": 32,
                "duration": 0.06818181818182012,
                "tempo": 120.0
            },
            {
                "start_time": 27.468181818181815,
                "end_time": 28.136363636363637,
                "pitch": 38,
                "velocity": 32,
                "duration": 0.6681818181818215,
                "tempo": 120.0
            },
            {
                "start_time": 28.168181818181818,
                "end_time": 28.534090909090907,
                "pitch": 38,
                "velocity": 32,
                "duration": 0.3659090909090885,
                "tempo": 120.0
            },
            {
                "start_time": 28.568181818181817,
                "end_time": 28.836363636363636,
                "pitch": 36,
                "velocity": 32,
                "duration": 0.2681818181818194,
                "tempo": 120.0
            },
            {
                "start_time": 28.870454545454542,
                "end_time": 30.427272727272726,
                "pitch": 35,
                "velocity": 32,
                "duration": 1.5568181818181834,
                "tempo": 120.0
            },
            {
                "start_time": 30.459090909090907,
                "end_time": 30.520454545454545,
                "pitch": 40,
                "velocity": 32,
                "duration": 0.0613636363636374,
                "tempo": 120.0
            },
            {
                "start_time": 30.549999999999997,
                "end_time": 30.60909090909091,
                "pitch": 39,
                "velocity": 32,
                "duration": 0.05909090909091219,
                "tempo": 120.0
            },
            {
                "start_time": 30.638636363636362,
                "end_time": 30.695454545454545,
                "pitch": 38,
                "velocity": 32,
                "duration": 0.05681818181818343,
                "tempo": 120.0
            },
            {
                "start_time": 30.724999999999998,
                "end_time": 30.784090909090907,
                "pitch": 37,
                "velocity": 32,
                "duration": 0.05909090909090864,
                "tempo": 120.0
            },
            {
                "start_time": 30.813636363636363,
                "end_time": 30.877272727272725,
                "pitch": 36,
                "velocity": 32,
                "duration": 0.0636363636363626,
                "tempo": 120.0
            },
            {
                "start_time": 30.909090909090907,
                "end_time": 30.972727272727273,
                "pitch": 35,
                "velocity": 32,
                "duration": 0.06363636363636616,
                "tempo": 120.0
            },
            {
                "start_time": 31.004545454545454,
                "end_time": 31.16363636363636,
                "pitch": 39,
                "velocity": 32,
                "duration": 0.1590909090909065,
                "tempo": 120.0
            },
            {
                "start_time": 31.195454545454545,
                "end_time": 31.363636363636363,
                "pitch": 31,
                "velocity": 32,
                "duration": 0.168181818181818,
                "tempo": 120.0
            },
            {
                "start_time": 31.4,
                "end_time": 31.570454545454545,
                "pitch": 28,
                "velocity": 32,
                "duration": 0.17045454545454675,
                "tempo": 120.0
            },
            {
                "start_time": 31.604545454545452,
                "end_time": 31.670454545454543,
                "pitch": 26,
                "velocity": 32,
                "duration": 0.06590909090909136,
                "tempo": 120.0
            },
            {
                "start_time": 31.702272727272724,
                "end_time": 31.96363636363636,
                "pitch": 28,
                "velocity": 32,
                "duration": 0.2613636363636367,
                "tempo": 120.0
            },
            {
                "start_time": 31.99772727272727,
                "end_time": 32.263636363636365,
                "pitch": 29,
                "velocity": 32,
                "duration": 0.2659090909090942,
                "tempo": 120.0
            },
            {
                "start_time": 32.29772727272727,
                "end_time": 32.65909090909091,
                "pitch": 41,
                "velocity": 32,
                "duration": 0.36136363636363455,
                "tempo": 120.0
            },
            {
                "start_time": 32.69090909090909,
                "end_time": 32.75681818181818,
                "pitch": 28,
                "velocity": 32,
                "duration": 0.06590909090909491,
                "tempo": 120.0
            },
            {
                "start_time": 32.788636363636364,
                "end_time": 33.06363636363636,
                "pitch": 31,
                "velocity": 32,
                "duration": 0.2749999999999986,
                "tempo": 120.0
            },
            {
                "start_time": 33.09772727272727,
                "end_time": 33.36363636363636,
                "pitch": 43,
                "velocity": 32,
                "duration": 0.26590909090909065,
                "tempo": 120.0
            },
            {
                "start_time": 33.39545454545454,
                "end_time": 33.559090909090905,
                "pitch": 31,
                "velocity": 32,
                "duration": 0.16363636363636402,
                "tempo": 120.0
            },
            {
                "start_time": 33.590909090909086,
                "end_time": 34.77045454545454,
                "pitch": 33,
                "velocity": 32,
                "duration": 1.1795454545454547,
                "tempo": 120.0
            },
            {
                "start_time": 34.804545454545455,
                "end_time": 35.07272727272727,
                "pitch": 40,
                "velocity": 32,
                "duration": 0.26818181818181586,
                "tempo": 120.0
            },
            {
                "start_time": 35.10681818181818,
                "end_time": 35.175,
                "pitch": 38,
                "velocity": 32,
                "duration": 0.06818181818182012,
                "tempo": 120.0
            },
            {
                "start_time": 35.20681818181818,
                "end_time": 35.44090909090909,
                "pitch": 45,
                "velocity": 32,
                "duration": 0.23409090909090935,
                "tempo": 120.0
            },
            {
                "start_time": 35.475,
                "end_time": 35.574999999999996,
                "pitch": 33,
                "velocity": 32,
                "duration": 0.09999999999999432,
                "tempo": 120.0
            },
            {
                "start_time": 35.60681818181818,
                "end_time": 35.67272727272727,
                "pitch": 45,
                "velocity": 32,
                "duration": 0.06590909090909491,
                "tempo": 120.0
            },
            {
                "start_time": 35.70681818181818,
                "end_time": 35.77045454545454,
                "pitch": 35,
                "velocity": 32,
                "duration": 0.0636363636363626,
                "tempo": 120.0
            },
            {
                "start_time": 35.804545454545455,
                "end_time": 35.87045454545454,
                "pitch": 47,
                "velocity": 32,
                "duration": 0.06590909090908781,
                "tempo": 120.0
            },
            {
                "start_time": 35.902272727272724,
                "end_time": 35.96818181818182,
                "pitch": 36,
                "velocity": 32,
                "duration": 0.06590909090909491,
                "tempo": 120.0
            },
            {
                "start_time": 36.0,
                "end_time": 36.377272727272725,
                "pitch": 48,
                "velocity": 32,
                "duration": 0.3772727272727252,
                "tempo": 120.0
            },
            {
                "start_time": 36.41136363636363,
                "end_time": 36.574999999999996,
                "pitch": 47,
                "velocity": 32,
                "duration": 0.16363636363636402,
                "tempo": 120.0
            },
            {
                "start_time": 36.60681818181818,
                "end_time": 36.77045454545454,
                "pitch": 41,
                "velocity": 32,
                "duration": 0.16363636363636402,
                "tempo": 120.0
            },
            {
                "start_time": 36.80227272727272,
                "end_time": 37.74090909090909,
                "pitch": 43,
                "velocity": 32,
                "duration": 0.9386363636363697,
                "tempo": 120.0
            },
            {
                "start_time": 37.777272727272724,
                "end_time": 37.98181818181818,
                "pitch": 50,
                "velocity": 32,
                "duration": 0.20454545454545325,
                "tempo": 120.0
            },
            {
                "start_time": 38.01590909090909,
                "end_time": 38.18636363636364,
                "pitch": 38,
                "velocity": 32,
                "duration": 0.17045454545454675,
                "tempo": 120.0
            },
            {
                "start_time": 38.220454545454544,
                "end_time": 38.324999999999996,
                "pitch": 40,
                "velocity": 32,
                "duration": 0.10454545454545183,
                "tempo": 120.0
            },
            {
                "start_time": 38.42727272727272,
                "end_time": 38.68863636363636,
                "pitch": 29,
                "velocity": 32,
                "duration": 0.26136363636364024,
                "tempo": 120.0
            },
            {
                "start_time": 38.720454545454544,
                "end_time": 39.08181818181818,
                "pitch": 41,
                "velocity": 32,
                "duration": 0.36136363636363455,
                "tempo": 120.0
            },
            {
                "start_time": 39.11363636363636,
                "end_time": 39.179545454545455,
                "pitch": 28,
                "velocity": 32,
                "duration": 0.06590909090909491,
                "tempo": 120.0
            },
            {
                "start_time": 39.211363636363636,
                "end_time": 39.49090909090909,
                "pitch": 31,
                "velocity": 32,
                "duration": 0.2795454545454561,
                "tempo": 120.0
            },
            {
                "start_time": 39.527272727272724,
                "end_time": 39.79090909090909,
                "pitch": 43,
                "velocity": 32,
                "duration": 0.26363636363636545,
                "tempo": 120.0
            },
            {
                "start_time": 39.82272727272727,
                "end_time": 39.98181818181818,
                "pitch": 31,
                "velocity": 32,
                "duration": 0.1590909090909065,
                "tempo": 120.0
            },
            {
                "start_time": 40.01363636363636,
                "end_time": 41.19318181818181,
                "pitch": 33,
                "velocity": 32,
                "duration": 1.1795454545454547,
                "tempo": 120.0
            },
            {
                "start_time": 41.22727272727273,
                "end_time": 41.48863636363636,
                "pitch": 40,
                "velocity": 32,
                "duration": 0.26136363636363313,
                "tempo": 120.0
            },
            {
                "start_time": 41.52272727272727,
                "end_time": 41.586363636363636,
                "pitch": 38,
                "velocity": 32,
                "duration": 0.0636363636363626,
                "tempo": 120.0
            },
            {
                "start_time": 41.62045454545454,
                "end_time": 41.85909090909091,
                "pitch": 45,
                "velocity": 32,
                "duration": 0.23863636363636687,
                "tempo": 120.0
            },
            {
                "start_time": 41.893181818181816,
                "end_time": 41.99545454545454,
                "pitch": 33,
                "velocity": 32,
                "duration": 0.10227272727272663,
                "tempo": 120.0
            },
            {
                "start_time": 42.02954545454545,
                "end_time": 42.09772727272727,
                "pitch": 45,
                "velocity": 32,
                "duration": 0.06818181818182012,
                "tempo": 120.0
            },
            {
                "start_time": 42.12954545454545,
                "end_time": 42.19772727272727,
                "pitch": 35,
                "velocity": 32,
                "duration": 0.06818181818182012,
                "tempo": 120.0
            },
            {
                "start_time": 42.22954545454545,
                "end_time": 42.29772727272727,
                "pitch": 47,
                "velocity": 32,
                "duration": 0.06818181818182012,
                "tempo": 120.0
            },
            {
                "start_time": 42.32954545454545,
                "end_time": 42.39772727272727,
                "pitch": 36,
                "velocity": 32,
                "duration": 0.06818181818182012,
                "tempo": 120.0
            },
            {
                "start_time": 42.429545454545455,
                "end_time": 42.79772727272727,
                "pitch": 48,
                "velocity": 32,
                "duration": 0.3681818181818173,
                "tempo": 120.0
            },
            {
                "start_time": 42.82954545454545,
                "end_time": 42.99772727272727,
                "pitch": 47,
                "velocity": 32,
                "duration": 0.16818181818181444,
                "tempo": 120.0
            },
            {
                "start_time": 43.03181818181818,
                "end_time": 43.199999999999996,
                "pitch": 41,
                "velocity": 32,
                "duration": 0.16818181818181444,
                "tempo": 120.0
            },
            {
                "start_time": 43.23409090909091,
                "end_time": 44.16136363636363,
                "pitch": 43,
                "velocity": 32,
                "duration": 0.9272727272727224,
                "tempo": 120.0
            },
            {
                "start_time": 44.195454545454545,
                "end_time": 44.402272727272724,
                "pitch": 50,
                "velocity": 32,
                "duration": 0.20681818181817846,
                "tempo": 120.0
            },
            {
                "start_time": 44.43636363636364,
                "end_time": 44.60227272727273,
                "pitch": 38,
                "velocity": 32,
                "duration": 0.16590909090908923,
                "tempo": 120.0
            },
            {
                "start_time": 44.63636363636363,
                "end_time": 44.736363636363635,
                "pitch": 40,
                "velocity": 32,
                "duration": 0.10000000000000142,
                "tempo": 120.0
            },
            {
                "start_time": 44.836363636363636,
                "end_time": 45.10454545454545,
                "pitch": 29,
                "velocity": 32,
                "duration": 0.26818181818181586,
                "tempo": 120.0
            },
            {
                "start_time": 45.13863636363636,
                "end_time": 45.5,
                "pitch": 41,
                "velocity": 32,
                "duration": 0.36136363636364166,
                "tempo": 120.0
            },
            {
                "start_time": 45.53181818181818,
                "end_time": 45.59772727272727,
                "pitch": 28,
                "velocity": 32,
                "duration": 0.06590909090908781,
                "tempo": 120.0
            },
            {
                "start_time": 45.63181818181818,
                "end_time": 45.91136363636363,
                "pitch": 31,
                "velocity": 32,
                "duration": 0.279545454545449,
                "tempo": 120.0
            },
            {
                "start_time": 45.945454545454545,
                "end_time": 46.211363636363636,
                "pitch": 43,
                "velocity": 32,
                "duration": 0.26590909090909065,
                "tempo": 120.0
            },
            {
                "start_time": 46.24318181818182,
                "end_time": 46.402272727272724,
                "pitch": 31,
                "velocity": 32,
                "duration": 0.1590909090909065,
                "tempo": 120.0
            },
            {
                "start_time": 46.434090909090905,
                "end_time": 47.61363636363636,
                "pitch": 33,
                "velocity": 32,
                "duration": 1.1795454545454547,
                "tempo": 120.0
            },
            {
                "start_time": 47.64772727272727,
                "end_time": 47.913636363636364,
                "pitch": 40,
                "velocity": 32,
                "duration": 0.26590909090909065,
                "tempo": 120.0
            },
            {
                "start_time": 47.94772727272727,
                "end_time": 48.01363636363636,
                "pitch": 38,
                "velocity": 32,
                "duration": 0.06590909090908781,
                "tempo": 120.0
            },
            {
                "start_time": 48.04772727272727,
                "end_time": 48.275,
                "pitch": 45,
                "velocity": 32,
                "duration": 0.22727272727272663,
                "tempo": 120.0
            },
            {
                "start_time": 48.309090909090905,
                "end_time": 48.40681818181818,
                "pitch": 33,
                "velocity": 32,
                "duration": 0.09772727272727622,
                "tempo": 120.0
            },
            {
                "start_time": 48.43863636363636,
                "end_time": 48.50681818181818,
                "pitch": 45,
                "velocity": 32,
                "duration": 0.06818181818182012,
                "tempo": 120.0
            },
            {
                "start_time": 48.54090909090909,
                "end_time": 48.611363636363635,
                "pitch": 35,
                "velocity": 32,
                "duration": 0.07045454545454533,
                "tempo": 120.0
            },
            {
                "start_time": 48.64545454545454,
                "end_time": 48.71363636363636,
                "pitch": 47,
                "velocity": 32,
                "duration": 0.06818181818182012,
                "tempo": 120.0
            },
            {
                "start_time": 48.74772727272727,
                "end_time": 48.81590909090909,
                "pitch": 36,
                "velocity": 32,
                "duration": 0.06818181818182012,
                "tempo": 120.0
            },
            {
                "start_time": 48.849999999999994,
                "end_time": 49.220454545454544,
                "pitch": 48,
                "velocity": 32,
                "duration": 0.3704545454545496,
                "tempo": 120.0
            },
            {
                "start_time": 49.252272727272725,
                "end_time": 49.41590909090909,
                "pitch": 47,
                "velocity": 32,
                "duration": 0.16363636363636402,
                "tempo": 120.0
            },
            {
                "start_time": 49.449999999999996,
                "end_time": 49.611363636363635,
                "pitch": 41,
                "velocity": 32,
                "duration": 0.16136363636363882,
                "tempo": 120.0
            },
            {
                "start_time": 49.64545454545454,
                "end_time": 50.584090909090904,
                "pitch": 43,
                "velocity": 32,
                "duration": 0.9386363636363626,
                "tempo": 120.0
            },
            {
                "start_time": 50.61818181818182,
                "end_time": 50.824999999999996,
                "pitch": 50,
                "velocity": 32,
                "duration": 0.20681818181817846,
                "tempo": 120.0
            },
            {
                "start_time": 50.85909090909091,
                "end_time": 51.027272727272724,
                "pitch": 38,
                "velocity": 32,
                "duration": 0.16818181818181444,
                "tempo": 120.0
            },
            {
                "start_time": 51.059090909090905,
                "end_time": 51.16136363636363,
                "pitch": 40,
                "velocity": 32,
                "duration": 0.10227272727272663,
                "tempo": 120.0
            }
        ],
        "Church Organ": [
            {
                "start_time": 0.0,
                "end_time": 0.029545454545454545,
                "pitch": 76,
                "velocity": 51,
                "duration": 0.029545454545454545,
                "tempo": 120.0
            },
            {
                "start_time": 0.06136363636363636,
                "end_time": 0.12727272727272726,
                "pitch": 86,
                "velocity": 51,
                "duration": 0.06590909090909089,
                "tempo": 120.0
            },
            {
                "start_time": 0.16136363636363635,
                "end_time": 0.22499999999999998,
                "pitch": 88,
                "velocity": 51,
                "duration": 0.06363636363636363,
                "tempo": 120.0
            },
            {
                "start_time": 0.2590909090909091,
                "end_time": 0.3227272727272727,
                "pitch": 83,
                "velocity": 51,
                "duration": 0.0636363636363636,
                "tempo": 120.0
            },
            {
                "start_time": 0.3568181818181818,
                "end_time": 0.42272727272727273,
                "pitch": 86,
                "velocity": 51,
                "duration": 0.06590909090909092,
                "tempo": 120.0
            },
            {
                "start_time": 0.45454545454545453,
                "end_time": 0.5227272727272727,
                "pitch": 83,
                "velocity": 51,
                "duration": 0.06818181818181818,
                "tempo": 120.0
            },
            {
                "start_time": 0.5568181818181818,
                "end_time": 0.625,
                "pitch": 81,
                "velocity": 51,
                "duration": 0.06818181818181823,
                "tempo": 120.0
            },
            {
                "start_time": 0.6590909090909091,
                "end_time": 1.093181818181818,
                "pitch": 83,
                "velocity": 51,
                "duration": 0.43409090909090897,
                "tempo": 120.0
            },
            {
                "start_time": 1.1272727272727272,
                "end_time": 1.4249999999999998,
                "pitch": 79,
                "velocity": 51,
                "duration": 0.2977272727272726,
                "tempo": 120.0
            },
            {
                "start_time": 1.4568181818181818,
                "end_time": 1.525,
                "pitch": 81,
                "velocity": 51,
                "duration": 0.06818181818181812,
                "tempo": 120.0
            },
            {
                "start_time": 1.5568181818181817,
                "end_time": 1.690909090909091,
                "pitch": 77,
                "velocity": 51,
                "duration": 0.13409090909090926,
                "tempo": 120.0
            },
            {
                "start_time": 1.7249999999999999,
                "end_time": 2.4272727272727272,
                "pitch": 86,
                "velocity": 51,
                "duration": 0.7022727272727274,
                "tempo": 120.0
            },
            {
                "start_time": 2.459090909090909,
                "end_time": 2.8363636363636364,
                "pitch": 71,
                "velocity": 51,
                "duration": 0.3772727272727274,
                "tempo": 120.0
            },
            {
                "start_time": 2.870454545454545,
                "end_time": 3.131818181818182,
                "pitch": 71,
                "velocity": 51,
                "duration": 0.2613636363636367,
                "tempo": 120.0
            },
            {
                "start_time": 3.1636363636363636,
                "end_time": 4.727272727272727,
                "pitch": 71,
                "velocity": 51,
                "duration": 1.563636363636363,
                "tempo": 120.0
            },
            {
                "start_time": 4.759090909090909,
                "end_time": 4.825,
                "pitch": 76,
                "velocity": 51,
                "duration": 0.06590909090909136,
                "tempo": 120.0
            },
            {
                "start_time": 4.8568181818181815,
                "end_time": 4.927272727272727,
                "pitch": 75,
                "velocity": 51,
                "duration": 0.07045454545454533,
                "tempo": 120.0
            },
            {
                "start_time": 4.963636363636363,
                "end_time": 5.034090909090909,
                "pitch": 74,
                "velocity": 51,
                "duration": 0.07045454545454621,
                "tempo": 120.0
            },
            {
                "start_time": 5.068181818181818,
                "end_time": 5.138636363636364,
                "pitch": 73,
                "velocity": 51,
                "duration": 0.07045454545454533,
                "tempo": 120.0
            },
            {
                "start_time": 5.175,
                "end_time": 5.245454545454545,
                "pitch": 72,
                "velocity": 51,
                "duration": 0.07045454545454533,
                "tempo": 120.0
            },
            {
                "start_time": 5.279545454545454,
                "end_time": 5.345454545454545,
                "pitch": 71,
                "velocity": 51,
                "duration": 0.06590909090909047,
                "tempo": 120.0
            },
            {
                "start_time": 5.377272727272727,
                "end_time": 5.540909090909091,
                "pitch": 69,
                "velocity": 51,
                "duration": 0.16363636363636402,
                "tempo": 120.0
            },
            {
                "start_time": 5.572727272727272,
                "end_time": 6.340909090909091,
                "pitch": 79,
                "velocity": 51,
                "duration": 0.7681818181818185,
                "tempo": 120.0
            },
            {
                "start_time": 6.375,
                "end_time": 6.4409090909090905,
                "pitch": 76,
                "velocity": 51,
                "duration": 0.06590909090909047,
                "tempo": 120.0
            },
            {
                "start_time": 6.475,
                "end_time": 6.540909090909091,
                "pitch": 86,
                "velocity": 51,
                "duration": 0.06590909090909136,
                "tempo": 120.0
            },
            {
                "start_time": 6.574999999999999,
                "end_time": 6.643181818181818,
                "pitch": 88,
                "velocity": 51,
                "duration": 0.06818181818181834,
                "tempo": 120.0
            },
            {
                "start_time": 6.675,
                "end_time": 6.743181818181818,
                "pitch": 83,
                "velocity": 51,
                "duration": 0.06818181818181834,
                "tempo": 120.0
            },
            {
                "start_time": 6.777272727272727,
                "end_time": 6.843181818181818,
                "pitch": 86,
                "velocity": 51,
                "duration": 0.06590909090909047,
                "tempo": 120.0
            },
            {
                "start_time": 6.877272727272727,
                "end_time": 6.945454545454545,
                "pitch": 83,
                "velocity": 51,
                "duration": 0.06818181818181834,
                "tempo": 120.0
            },
            {
                "start_time": 6.9795454545454545,
                "end_time": 7.047727272727272,
                "pitch": 81,
                "velocity": 51,
                "duration": 0.06818181818181746,
                "tempo": 120.0
            },
            {
                "start_time": 7.081818181818181,
                "end_time": 7.55,
                "pitch": 83,
                "velocity": 51,
                "duration": 0.4681818181818187,
                "tempo": 120.0
            },
            {
                "start_time": 7.581818181818181,
                "end_time": 7.847727272727273,
                "pitch": 79,
                "velocity": 51,
                "duration": 0.26590909090909154,
                "tempo": 120.0
            },
            {
                "start_time": 7.881818181818182,
                "end_time": 7.947727272727272,
                "pitch": 81,
                "velocity": 51,
                "duration": 0.06590909090909047,
                "tempo": 120.0
            },
            {
                "start_time": 7.9818181818181815,
                "end_time": 8.15,
                "pitch": 77,
                "velocity": 51,
                "duration": 0.16818181818181888,
                "tempo": 120.0
            },
            {
                "start_time": 8.186363636363636,
                "end_time": 8.852272727272727,
                "pitch": 86,
                "velocity": 51,
                "duration": 0.665909090909091,
                "tempo": 120.0
            },
            {
                "start_time": 8.886363636363637,
                "end_time": 9.261363636363637,
                "pitch": 71,
                "velocity": 51,
                "duration": 0.375,
                "tempo": 120.0
            },
            {
                "start_time": 9.295454545454545,
                "end_time": 9.556818181818182,
                "pitch": 71,
                "velocity": 51,
                "duration": 0.2613636363636367,
                "tempo": 120.0
            },
            {
                "start_time": 9.59090909090909,
                "end_time": 11.154545454545454,
                "pitch": 71,
                "velocity": 51,
                "duration": 1.5636363636363644,
                "tempo": 120.0
            },
            {
                "start_time": 11.188636363636363,
                "end_time": 11.25,
                "pitch": 76,
                "velocity": 51,
                "duration": 0.0613636363636374,
                "tempo": 120.0
            },
            {
                "start_time": 11.279545454545454,
                "end_time": 11.338636363636363,
                "pitch": 75,
                "velocity": 51,
                "duration": 0.05909090909090864,
                "tempo": 120.0
            },
            {
                "start_time": 11.368181818181817,
                "end_time": 11.424999999999999,
                "pitch": 74,
                "velocity": 51,
                "duration": 0.05681818181818166,
                "tempo": 120.0
            },
            {
                "start_time": 11.454545454545453,
                "end_time": 11.513636363636364,
                "pitch": 73,
                "velocity": 51,
                "duration": 0.059090909090910415,
                "tempo": 120.0
            },
            {
                "start_time": 11.543181818181818,
                "end_time": 11.572727272727272,
                "pitch": 72,
                "velocity": 51,
                "duration": 0.02954545454545432,
                "tempo": 120.0
            },
            {
                "start_time": 11.604545454545454,
                "end_time": 11.695454545454545,
                "pitch": 71,
                "velocity": 51,
                "duration": 0.09090909090909172,
                "tempo": 120.0
            },
            {
                "start_time": 11.727272727272727,
                "end_time": 11.881818181818181,
                "pitch": 69,
                "velocity": 51,
                "duration": 0.15454545454545432,
                "tempo": 120.0
            },
            {
                "start_time": 11.913636363636362,
                "end_time": 12.681818181818182,
                "pitch": 79,
                "velocity": 51,
                "duration": 0.7681818181818194,
                "tempo": 120.0
            },
            {
                "start_time": 12.713636363636363,
                "end_time": 12.98181818181818,
                "pitch": 77,
                "velocity": 51,
                "duration": 0.26818181818181763,
                "tempo": 120.0
            },
            {
                "start_time": 13.01590909090909,
                "end_time": 13.279545454545454,
                "pitch": 77,
                "velocity": 51,
                "duration": 0.26363636363636367,
                "tempo": 120.0
            },
            {
                "start_time": 13.313636363636363,
                "end_time": 13.477272727272727,
                "pitch": 69,
                "velocity": 51,
                "duration": 0.16363636363636402,
                "tempo": 120.0
            },
            {
                "start_time": 13.509090909090908,
                "end_time": 13.788636363636362,
                "pitch": 79,
                "velocity": 51,
                "duration": 0.2795454545454543,
                "tempo": 120.0
            },
            {
                "start_time": 13.825,
                "end_time": 14.088636363636363,
                "pitch": 79,
                "velocity": 51,
                "duration": 0.26363636363636367,
                "tempo": 120.0
            },
            {
                "start_time": 14.120454545454544,
                "end_time": 14.279545454545454,
                "pitch": 71,
                "velocity": 51,
                "duration": 0.15909090909091006,
                "tempo": 120.0
            },
            {
                "start_time": 14.311363636363636,
                "end_time": 14.586363636363636,
                "pitch": 81,
                "velocity": 51,
                "duration": 0.27500000000000036,
                "tempo": 120.0
            },
            {
                "start_time": 14.620454545454544,
                "end_time": 14.688636363636363,
                "pitch": 81,
                "velocity": 51,
                "duration": 0.06818181818181834,
                "tempo": 120.0
            },
            {
                "start_time": 14.722727272727273,
                "end_time": 15.886363636363635,
                "pitch": 81,
                "velocity": 51,
                "duration": 1.1636363636363622,
                "tempo": 120.0
            },
            {
                "start_time": 15.918181818181818,
                "end_time": 16.302272727272726,
                "pitch": 81,
                "velocity": 51,
                "duration": 0.38409090909090793,
                "tempo": 120.0
            },
            {
                "start_time": 16.33863636363636,
                "end_time": 16.502272727272725,
                "pitch": 81,
                "velocity": 51,
                "duration": 0.16363636363636402,
                "tempo": 120.0
            },
            {
                "start_time": 16.53409090909091,
                "end_time": 16.69772727272727,
                "pitch": 71,
                "velocity": 51,
                "duration": 0.16363636363636047,
                "tempo": 120.0
            },
            {
                "start_time": 16.73181818181818,
                "end_time": 17.097727272727273,
                "pitch": 72,
                "velocity": 51,
                "duration": 0.36590909090909207,
                "tempo": 120.0
            },
            {
                "start_time": 17.131818181818183,
                "end_time": 17.5,
                "pitch": 74,
                "velocity": 51,
                "duration": 0.3681818181818173,
                "tempo": 120.0
            },
            {
                "start_time": 17.534090909090907,
                "end_time": 19.070454545454545,
                "pitch": 76,
                "velocity": 51,
                "duration": 1.5363636363636388,
                "tempo": 120.0
            },
            {
                "start_time": 19.136363636363637,
                "end_time": 19.202272727272728,
                "pitch": 76,
                "velocity": 51,
                "duration": 0.06590909090909136,
                "tempo": 120.0
            },
            {
                "start_time": 19.23409090909091,
                "end_time": 19.3,
                "pitch": 86,
                "velocity": 51,
                "duration": 0.06590909090909136,
                "tempo": 120.0
            },
            {
                "start_time": 19.331818181818182,
                "end_time": 19.397727272727273,
                "pitch": 88,
                "velocity": 51,
                "duration": 0.06590909090909136,
                "tempo": 120.0
            },
            {
                "start_time": 19.43181818181818,
                "end_time": 19.495454545454546,
                "pitch": 83,
                "velocity": 51,
                "duration": 0.06363636363636616,
                "tempo": 120.0
            },
            {
                "start_time": 19.529545454545453,
                "end_time": 19.595454545454544,
                "pitch": 86,
                "velocity": 51,
                "duration": 0.06590909090909136,
                "tempo": 120.0
            },
            {
                "start_time": 19.629545454545454,
                "end_time": 19.695454545454545,
                "pitch": 83,
                "velocity": 51,
                "duration": 0.06590909090909136,
                "tempo": 120.0
            },
            {
                "start_time": 19.729545454545452,
                "end_time": 19.795454545454543,
                "pitch": 81,
                "velocity": 51,
                "duration": 0.06590909090909136,
                "tempo": 120.0
            },
            {
                "start_time": 19.829545454545453,
                "end_time": 20.293181818181818,
                "pitch": 83,
                "velocity": 51,
                "duration": 0.46363636363636473,
                "tempo": 120.0
            },
            {
                "start_time": 20.329545454545453,
                "end_time": 20.668181818181818,
                "pitch": 79,
                "velocity": 51,
                "duration": 0.33863636363636473,
                "tempo": 120.0
            },
            {
                "start_time": 20.706818181818182,
                "end_time": 20.784090909090907,
                "pitch": 81,
                "velocity": 51,
                "duration": 0.0772727272727245,
                "tempo": 120.0
            },
            {
                "start_time": 20.82272727272727,
                "end_time": 20.972727272727273,
                "pitch": 77,
                "velocity": 51,
                "duration": 0.15000000000000213,
                "tempo": 120.0
            },
            {
                "start_time": 21.00681818181818,
                "end_time": 21.709090909090907,
                "pitch": 86,
                "velocity": 51,
                "duration": 0.702272727272728,
                "tempo": 120.0
            },
            {
                "start_time": 21.743181818181817,
                "end_time": 22.118181818181817,
                "pitch": 71,
                "velocity": 51,
                "duration": 0.375,
                "tempo": 120.0
            },
            {
                "start_time": 22.152272727272727,
                "end_time": 22.413636363636364,
                "pitch": 71,
                "velocity": 51,
                "duration": 0.2613636363636367,
                "tempo": 120.0
            },
            {
                "start_time": 22.44772727272727,
                "end_time": 24.011363636363637,
                "pitch": 71,
                "velocity": 51,
                "duration": 1.5636363636363662,
                "tempo": 120.0
            },
            {
                "start_time": 24.045454545454543,
                "end_time": 24.10909090909091,
                "pitch": 76,
                "velocity": 51,
                "duration": 0.06363636363636616,
                "tempo": 120.0
            },
            {
                "start_time": 24.143181818181816,
                "end_time": 24.211363636363636,
                "pitch": 75,
                "velocity": 51,
                "duration": 0.06818181818182012,
                "tempo": 120.0
            },
            {
                "start_time": 24.24772727272727,
                "end_time": 24.318181818181817,
                "pitch": 74,
                "velocity": 51,
                "duration": 0.07045454545454533,
                "tempo": 120.0
            },
            {
                "start_time": 24.352272727272727,
                "end_time": 24.422727272727272,
                "pitch": 73,
                "velocity": 51,
                "duration": 0.07045454545454533,
                "tempo": 120.0
            },
            {
                "start_time": 24.459090909090907,
                "end_time": 24.529545454545453,
                "pitch": 72,
                "velocity": 51,
                "duration": 0.07045454545454533,
                "tempo": 120.0
            },
            {
                "start_time": 24.563636363636363,
                "end_time": 24.63181818181818,
                "pitch": 71,
                "velocity": 51,
                "duration": 0.06818181818181657,
                "tempo": 120.0
            },
            {
                "start_time": 24.66590909090909,
                "end_time": 24.831818181818182,
                "pitch": 69,
                "velocity": 51,
                "duration": 0.16590909090909278,
                "tempo": 120.0
            },
            {
                "start_time": 24.86590909090909,
                "end_time": 25.625,
                "pitch": 79,
                "velocity": 51,
                "duration": 0.7590909090909115,
                "tempo": 120.0
            },
            {
                "start_time": 25.659090909090907,
                "end_time": 25.727272727272727,
                "pitch": 76,
                "velocity": 51,
                "duration": 0.06818181818182012,
                "tempo": 120.0
            },
            {
                "start_time": 25.759090909090908,
                "end_time": 25.827272727272724,
                "pitch": 86,
                "velocity": 51,
                "duration": 0.06818181818181657,
                "tempo": 120.0
            },
            {
                "start_time": 25.861363636363635,
                "end_time": 25.93181818181818,
                "pitch": 88,
                "velocity": 51,
                "duration": 0.07045454545454533,
                "tempo": 120.0
            },
            {
                "start_time": 25.96590909090909,
                "end_time": 26.034090909090907,
                "pitch": 83,
                "velocity": 51,
                "duration": 0.06818181818181657,
                "tempo": 120.0
            },
            {
                "start_time": 26.068181818181817,
                "end_time": 26.136363636363637,
                "pitch": 86,
                "velocity": 51,
                "duration": 0.06818181818182012,
                "tempo": 120.0
            },
            {
                "start_time": 26.170454545454543,
                "end_time": 26.236363636363635,
                "pitch": 83,
                "velocity": 51,
                "duration": 0.06590909090909136,
                "tempo": 120.0
            },
            {
                "start_time": 26.268181818181816,
                "end_time": 26.334090909090907,
                "pitch": 81,
                "velocity": 51,
                "duration": 0.06590909090909136,
                "tempo": 120.0
            },
            {
                "start_time": 26.36590909090909,
                "end_time": 26.831818181818182,
                "pitch": 83,
                "velocity": 51,
                "duration": 0.4659090909090935,
                "tempo": 120.0
            },
            {
                "start_time": 26.863636363636363,
                "end_time": 27.13181818181818,
                "pitch": 79,
                "velocity": 51,
                "duration": 0.26818181818181586,
                "tempo": 120.0
            },
            {
                "start_time": 27.16590909090909,
                "end_time": 27.23181818181818,
                "pitch": 81,
                "velocity": 51,
                "duration": 0.06590909090909136,
                "tempo": 120.0
            },
            {
                "start_time": 27.26590909090909,
                "end_time": 27.43409090909091,
                "pitch": 77,
                "velocity": 51,
                "duration": 0.168181818181818,
                "tempo": 120.0
            },
            {
                "start_time": 27.468181818181815,
                "end_time": 28.136363636363637,
                "pitch": 86,
                "velocity": 51,
                "duration": 0.6681818181818215,
                "tempo": 120.0
            },
            {
                "start_time": 28.168181818181818,
                "end_time": 28.534090909090907,
                "pitch": 71,
                "velocity": 51,
                "duration": 0.3659090909090885,
                "tempo": 120.0
            },
            {
                "start_time": 28.568181818181817,
                "end_time": 28.836363636363636,
                "pitch": 71,
                "velocity": 51,
                "duration": 0.2681818181818194,
                "tempo": 120.0
            },
            {
                "start_time": 28.870454545454542,
                "end_time": 30.427272727272726,
                "pitch": 71,
                "velocity": 51,
                "duration": 1.5568181818181834,
                "tempo": 120.0
            },
            {
                "start_time": 30.459090909090907,
                "end_time": 30.520454545454545,
                "pitch": 76,
                "velocity": 51,
                "duration": 0.0613636363636374,
                "tempo": 120.0
            },
            {
                "start_time": 30.549999999999997,
                "end_time": 30.60909090909091,
                "pitch": 75,
                "velocity": 51,
                "duration": 0.05909090909091219,
                "tempo": 120.0
            },
            {
                "start_time": 30.638636363636362,
                "end_time": 30.695454545454545,
                "pitch": 74,
                "velocity": 51,
                "duration": 0.05681818181818343,
                "tempo": 120.0
            },
            {
                "start_time": 30.724999999999998,
                "end_time": 30.784090909090907,
                "pitch": 73,
                "velocity": 51,
                "duration": 0.05909090909090864,
                "tempo": 120.0
            },
            {
                "start_time": 30.813636363636363,
                "end_time": 30.845454545454544,
                "pitch": 72,
                "velocity": 51,
                "duration": 0.0318181818181813,
                "tempo": 120.0
            },
            {
                "start_time": 30.877272727272725,
                "end_time": 30.972727272727273,
                "pitch": 71,
                "velocity": 51,
                "duration": 0.09545454545454746,
                "tempo": 120.0
            },
            {
                "start_time": 31.004545454545454,
                "end_time": 31.16363636363636,
                "pitch": 69,
                "velocity": 51,
                "duration": 0.1590909090909065,
                "tempo": 120.0
            },
            {
                "start_time": 31.195454545454545,
                "end_time": 31.96363636363636,
                "pitch": 79,
                "velocity": 51,
                "duration": 0.7681818181818159,
                "tempo": 120.0
            },
            {
                "start_time": 31.99772727272727,
                "end_time": 32.263636363636365,
                "pitch": 77,
                "velocity": 51,
                "duration": 0.2659090909090942,
                "tempo": 120.0
            },
            {
                "start_time": 32.29772727272727,
                "end_time": 32.559090909090905,
                "pitch": 77,
                "velocity": 51,
                "duration": 0.26136363636363313,
                "tempo": 120.0
            },
            {
                "start_time": 32.59318181818182,
                "end_time": 32.75681818181818,
                "pitch": 69,
                "velocity": 51,
                "duration": 0.16363636363636402,
                "tempo": 120.0
            },
            {
                "start_time": 32.788636363636364,
                "end_time": 33.06363636363636,
                "pitch": 79,
                "velocity": 51,
                "duration": 0.2749999999999986,
                "tempo": 120.0
            },
            {
                "start_time": 33.09772727272727,
                "end_time": 33.36363636363636,
                "pitch": 79,
                "velocity": 51,
                "duration": 0.26590909090909065,
                "tempo": 120.0
            },
            {
                "start_time": 33.39545454545454,
                "end_time": 33.559090909090905,
                "pitch": 71,
                "velocity": 51,
                "duration": 0.16363636363636402,
                "tempo": 120.0
            },
            {
                "start_time": 33.590909090909086,
                "end_time": 33.87272727272727,
                "pitch": 81,
                "velocity": 51,
                "duration": 0.2818181818181813,
                "tempo": 120.0
            },
            {
                "start_time": 33.90681818181818,
                "end_time": 33.97727272727273,
                "pitch": 81,
                "velocity": 51,
                "duration": 0.07045454545454533,
                "tempo": 120.0
            },
            {
                "start_time": 34.01136363636363,
                "end_time": 35.175,
                "pitch": 81,
                "velocity": 51,
                "duration": 1.163636363636364,
                "tempo": 120.0
            },
            {
                "start_time": 35.20681818181818,
                "end_time": 35.574999999999996,
                "pitch": 81,
                "velocity": 51,
                "duration": 0.3681818181818173,
                "tempo": 120.0
            },
            {
                "start_time": 35.60681818181818,
                "end_time": 35.77045454545454,
                "pitch": 81,
                "velocity": 51,
                "duration": 0.16363636363636402,
                "tempo": 120.0
            },
            {
                "start_time": 35.804545454545455,
                "end_time": 35.96818181818182,
                "pitch": 71,
                "velocity": 51,
                "duration": 0.16363636363636402,
                "tempo": 120.0
            },
            {
                "start_time": 36.0,
                "end_time": 36.377272727272725,
                "pitch": 72,
                "velocity": 51,
                "duration": 0.3772727272727252,
                "tempo": 120.0
            },
            {
                "start_time": 36.41136363636363,
                "end_time": 36.77045454545454,
                "pitch": 74,
                "velocity": 51,
                "duration": 0.35909090909090935,
                "tempo": 120.0
            },
            {
                "start_time": 36.80227272727272,
                "end_time": 38.35909090909091,
                "pitch": 76,
                "velocity": 51,
                "duration": 1.556818181818187,
                "tempo": 120.0
            },
            {
                "start_time": 38.42727272727272,
                "end_time": 38.68863636363636,
                "pitch": 77,
                "velocity": 51,
                "duration": 0.26136363636364024,
                "tempo": 120.0
            },
            {
                "start_time": 38.720454545454544,
                "end_time": 38.98181818181818,
                "pitch": 77,
                "velocity": 51,
                "duration": 0.26136363636363313,
                "tempo": 120.0
            },
            {
                "start_time": 39.01590909090909,
                "end_time": 39.179545454545455,
                "pitch": 69,
                "velocity": 51,
                "duration": 0.16363636363636402,
                "tempo": 120.0
            },
            {
                "start_time": 39.211363636363636,
                "end_time": 39.49090909090909,
                "pitch": 79,
                "velocity": 51,
                "duration": 0.2795454545454561,
                "tempo": 120.0
            },
            {
                "start_time": 39.527272727272724,
                "end_time": 39.79090909090909,
                "pitch": 79,
                "velocity": 51,
                "duration": 0.26363636363636545,
                "tempo": 120.0
            },
            {
                "start_time": 39.82272727272727,
                "end_time": 39.98181818181818,
                "pitch": 71,
                "velocity": 51,
                "duration": 0.1590909090909065,
                "tempo": 120.0
            },
            {
                "start_time": 40.01363636363636,
                "end_time": 40.288636363636364,
                "pitch": 81,
                "velocity": 51,
                "duration": 0.2750000000000057,
                "tempo": 120.0
            },
            {
                "start_time": 40.32272727272727,
                "end_time": 40.39090909090909,
                "pitch": 81,
                "velocity": 51,
                "duration": 0.06818181818182012,
                "tempo": 120.0
            },
            {
                "start_time": 40.425,
                "end_time": 41.586363636363636,
                "pitch": 81,
                "velocity": 51,
                "duration": 1.1613636363636388,
                "tempo": 120.0
            },
            {
                "start_time": 41.62045454545454,
                "end_time": 41.99545454545454,
                "pitch": 81,
                "velocity": 51,
                "duration": 0.375,
                "tempo": 120.0
            },
            {
                "start_time": 42.02954545454545,
                "end_time": 42.19772727272727,
                "pitch": 81,
                "velocity": 51,
                "duration": 0.16818181818182154,
                "tempo": 120.0
            },
            {
                "start_time": 42.22954545454545,
                "end_time": 42.39772727272727,
                "pitch": 71,
                "velocity": 51,
                "duration": 0.16818181818182154,
                "tempo": 120.0
            },
            {
                "start_time": 42.429545454545455,
                "end_time": 42.79772727272727,
                "pitch": 72,
                "velocity": 51,
                "duration": 0.3681818181818173,
                "tempo": 120.0
            },
            {
                "start_time": 42.82954545454545,
                "end_time": 43.199999999999996,
                "pitch": 74,
                "velocity": 51,
                "duration": 0.3704545454545425,
                "tempo": 120.0
            },
            {
                "start_time": 43.23409090909091,
                "end_time": 44.77045454545454,
                "pitch": 76,
                "velocity": 51,
                "duration": 1.5363636363636317,
                "tempo": 120.0
            },
            {
                "start_time": 44.836363636363636,
                "end_time": 45.10454545454545,
                "pitch": 77,
                "velocity": 51,
                "duration": 0.26818181818181586,
                "tempo": 120.0
            },
            {
                "start_time": 45.13863636363636,
                "end_time": 45.402272727272724,
                "pitch": 77,
                "velocity": 51,
                "duration": 0.26363636363636545,
                "tempo": 120.0
            },
            {
                "start_time": 45.434090909090905,
                "end_time": 45.59772727272727,
                "pitch": 69,
                "velocity": 51,
                "duration": 0.16363636363636402,
                "tempo": 120.0
            },
            {
                "start_time": 45.63181818181818,
                "end_time": 45.91136363636363,
                "pitch": 79,
                "velocity": 51,
                "duration": 0.279545454545449,
                "tempo": 120.0
            },
            {
                "start_time": 45.945454545454545,
                "end_time": 46.211363636363636,
                "pitch": 79,
                "velocity": 51,
                "duration": 0.26590909090909065,
                "tempo": 120.0
            },
            {
                "start_time": 46.24318181818182,
                "end_time": 46.402272727272724,
                "pitch": 71,
                "velocity": 51,
                "duration": 0.1590909090909065,
                "tempo": 120.0
            },
            {
                "start_time": 46.434090909090905,
                "end_time": 46.71363636363636,
                "pitch": 81,
                "velocity": 51,
                "duration": 0.2795454545454561,
                "tempo": 120.0
            },
            {
                "start_time": 46.75,
                "end_time": 46.820454545454545,
                "pitch": 81,
                "velocity": 51,
                "duration": 0.07045454545454533,
                "tempo": 120.0
            },
            {
                "start_time": 46.85454545454545,
                "end_time": 48.01363636363636,
                "pitch": 81,
                "velocity": 51,
                "duration": 1.1590909090909065,
                "tempo": 120.0
            },
            {
                "start_time": 48.04772727272727,
                "end_time": 48.40681818181818,
                "pitch": 81,
                "velocity": 51,
                "duration": 0.35909090909090935,
                "tempo": 120.0
            },
            {
                "start_time": 48.43863636363636,
                "end_time": 48.611363636363635,
                "pitch": 81,
                "velocity": 51,
                "duration": 0.17272727272727195,
                "tempo": 120.0
            },
            {
                "start_time": 48.64545454545454,
                "end_time": 48.81590909090909,
                "pitch": 71,
                "velocity": 51,
                "duration": 0.17045454545454675,
                "tempo": 120.0
            },
            {
                "start_time": 48.849999999999994,
                "end_time": 49.220454545454544,
                "pitch": 72,
                "velocity": 51,
                "duration": 0.3704545454545496,
                "tempo": 120.0
            },
            {
                "start_time": 49.252272727272725,
                "end_time": 49.611363636363635,
                "pitch": 74,
                "velocity": 51,
                "duration": 0.35909090909090935,
                "tempo": 120.0
            },
            {
                "start_time": 49.64545454545454,
                "end_time": 51.19318181818181,
                "pitch": 76,
                "velocity": 51,
                "duration": 1.547727272727272,
                "tempo": 120.0
            }
        ]
    }
}