{
    "track_id": "Maze Hunter 3-D (FM) - 05 - Ice Area",
    "mood": "happy",
    "instruments": {
        "Oboe": [
            {
                "start_time": 6.3977272727272725,
                "end_time": 32.14090909090909,
                "pitch": 74,
                "velocity": 64,
                "duration": 25.743181818181817,
                "tempo": 120.0
            },
            {
                "start_time": 32.15909090909091,
                "end_time": 32.20909090909091,
                "pitch": 51,
                "velocity": 64,
                "duration": 0.05000000000000426,
                "tempo": 120.0
            },
            {
                "start_time": 32.225,
                "end_time": 33.05227272727272,
                "pitch": 52,
                "velocity": 64,
                "duration": 0.8272727272727209,
                "tempo": 120.0
            },
            {
                "start_time": 33.06818181818182,
                "end_time": 33.31363636363636,
                "pitch": 51,
                "velocity": 64,
                "duration": 0.24545454545454248,
                "tempo": 120.0
            },
            {
                "start_time": 33.32954545454545,
                "end_time": 33.679545454545455,
                "pitch": 50,
                "velocity": 64,
                "duration": 0.3500000000000014,
                "tempo": 120.0
            },
            {
                "start_time": 33.69772727272727,
                "end_time": 34.68181818181818,
                "pitch": 57,
                "velocity": 64,
                "duration": 0.9840909090909093,
                "tempo": 120.0
            },
            {
                "start_time": 34.69772727272727,
                "end_time": 34.88409090909091,
                "pitch": 59,
                "velocity": 64,
                "duration": 0.1863636363636374,
                "tempo": 120.0
            },
            {
                "start_time": 34.9,
                "end_time": 35.11590909090909,
                "pitch": 60,
                "velocity": 64,
                "duration": 0.2159090909090935,
                "tempo": 120.0
            },
            {
                "start_time": 35.13409090909091,
                "end_time": 35.28409090909091,
                "pitch": 62,
                "velocity": 64,
                "duration": 0.14999999999999858,
                "tempo": 120.0
            },
            {
                "start_time": 35.3,
                "end_time": 35.38409090909091,
                "pitch": 62,
                "velocity": 64,
                "duration": 0.08409090909091077,
                "tempo": 120.0
            },
            {
                "start_time": 35.4,
                "end_time": 35.41590909090909,
                "pitch": 63,
                "velocity": 64,
                "duration": 0.01590909090909065,
                "tempo": 120.0
            },
            {
                "start_time": 35.434090909090905,
                "end_time": 36.25681818181818,
                "pitch": 64,
                "velocity": 64,
                "duration": 0.8227272727272776,
                "tempo": 120.0
            },
            {
                "start_time": 36.27272727272727,
                "end_time": 36.29090909090909,
                "pitch": 64,
                "velocity": 64,
                "duration": 0.018181818181815856,
                "tempo": 120.0
            },
            {
                "start_time": 36.30681818181818,
                "end_time": 36.68636363636364,
                "pitch": 65,
                "velocity": 64,
                "duration": 0.3795454545454575,
                "tempo": 120.0
            },
            {
                "start_time": 36.70454545454545,
                "end_time": 36.720454545454544,
                "pitch": 63,
                "velocity": 64,
                "duration": 0.01590909090909065,
                "tempo": 120.0
            },
            {
                "start_time": 36.73863636363636,
                "end_time": 36.92272727272727,
                "pitch": 64,
                "velocity": 64,
                "duration": 0.1840909090909122,
                "tempo": 120.0
            },
            {
                "start_time": 36.93863636363636,
                "end_time": 37.16136363636363,
                "pitch": 67,
                "velocity": 64,
                "duration": 0.2227272727272691,
                "tempo": 120.0
            },
            {
                "start_time": 37.179545454545455,
                "end_time": 37.46363636363636,
                "pitch": 65,
                "velocity": 64,
                "duration": 0.2840909090909065,
                "tempo": 120.0
            },
            {
                "start_time": 37.47954545454545,
                "end_time": 37.49545454545454,
                "pitch": 65,
                "velocity": 64,
                "duration": 0.01590909090909065,
                "tempo": 120.0
            },
            {
                "start_time": 37.51136363636363,
                "end_time": 37.69090909090909,
                "pitch": 64,
                "velocity": 64,
                "duration": 0.17954545454545467,
                "tempo": 120.0
            },
            {
                "start_time": 37.70909090909091,
                "end_time": 37.725,
                "pitch": 62,
                "velocity": 64,
                "duration": 0.01590909090909065,
                "tempo": 120.0
            },
            {
                "start_time": 37.74090909090909,
                "end_time": 37.99090909090909,
                "pitch": 62,
                "velocity": 64,
                "duration": 0.25,
                "tempo": 120.0
            },
            {
                "start_time": 38.00909090909091,
                "end_time": 38.25909090909091,
                "pitch": 60,
                "velocity": 64,
                "duration": 0.25,
                "tempo": 120.0
            },
            {
                "start_time": 38.275,
                "end_time": 38.29090909090909,
                "pitch": 62,
                "velocity": 64,
                "duration": 0.01590909090909065,
                "tempo": 120.0
            },
            {
                "start_time": 38.309090909090905,
                "end_time": 38.35909090909091,
                "pitch": 67,
                "velocity": 64,
                "duration": 0.05000000000000426,
                "tempo": 120.0
            },
            {
                "start_time": 38.375,
                "end_time": 38.49090909090909,
                "pitch": 60,
                "velocity": 64,
                "duration": 0.11590909090909207,
                "tempo": 120.0
            },
            {
                "start_time": 38.50909090909091,
                "end_time": 39.46818181818182,
                "pitch": 65,
                "velocity": 64,
                "duration": 0.9590909090909108,
                "tempo": 120.0
            },
            {
                "start_time": 39.48409090909091,
                "end_time": 39.502272727272725,
                "pitch": 65,
                "velocity": 64,
                "duration": 0.018181818181815856,
                "tempo": 120.0
            },
            {
                "start_time": 39.518181818181816,
                "end_time": 39.56590909090909,
                "pitch": 64,
                "velocity": 64,
                "duration": 0.04772727272727195,
                "tempo": 120.0
            },
            {
                "start_time": 39.584090909090904,
                "end_time": 39.69772727272727,
                "pitch": 65,
                "velocity": 64,
                "duration": 0.11363636363636687,
                "tempo": 120.0
            },
            {
                "start_time": 39.71363636363636,
                "end_time": 39.89772727272727,
                "pitch": 67,
                "velocity": 64,
                "duration": 0.1840909090909122,
                "tempo": 120.0
            },
            {
                "start_time": 39.913636363636364,
                "end_time": 39.99772727272727,
                "pitch": 65,
                "velocity": 64,
                "duration": 0.08409090909090366,
                "tempo": 120.0
            },
            {
                "start_time": 40.01363636363636,
                "end_time": 40.06363636363636,
                "pitch": 64,
                "velocity": 64,
                "duration": 0.05000000000000426,
                "tempo": 120.0
            },
            {
                "start_time": 40.07954545454545,
                "end_time": 40.09772727272727,
                "pitch": 60,
                "velocity": 64,
                "duration": 0.018181818181815856,
                "tempo": 120.0
            },
            {
                "start_time": 40.11363636363636,
                "end_time": 40.336363636363636,
                "pitch": 62,
                "velocity": 64,
                "duration": 0.22272727272727622,
                "tempo": 120.0
            },
            {
                "start_time": 40.35227272727273,
                "end_time": 40.736363636363635,
                "pitch": 62,
                "velocity": 64,
                "duration": 0.38409090909090793,
                "tempo": 120.0
            },
            {
                "start_time": 40.752272727272725,
                "end_time": 41.1,
                "pitch": 60,
                "velocity": 64,
                "duration": 0.3477272727272762,
                "tempo": 120.0
            },
            {
                "start_time": 41.11590909090909,
                "end_time": 41.23409090909091,
                "pitch": 55,
                "velocity": 64,
                "duration": 0.11818181818181728,
                "tempo": 120.0
            },
            {
                "start_time": 41.25,
                "end_time": 41.334090909090904,
                "pitch": 57,
                "velocity": 64,
                "duration": 0.08409090909090366,
                "tempo": 120.0
            },
            {
                "start_time": 41.35,
                "end_time": 41.43636363636364,
                "pitch": 58,
                "velocity": 64,
                "duration": 0.08636363636363598,
                "tempo": 120.0
            },
            {
                "start_time": 41.45454545454545,
                "end_time": 41.50454545454545,
                "pitch": 60,
                "velocity": 64,
                "duration": 0.04999999999999716,
                "tempo": 120.0
            },
            {
                "start_time": 41.52272727272727,
                "end_time": 41.60681818181818,
                "pitch": 62,
                "velocity": 64,
                "duration": 0.08409090909090366,
                "tempo": 120.0
            },
            {
                "start_time": 41.625,
                "end_time": 41.711363636363636,
                "pitch": 64,
                "velocity": 64,
                "duration": 0.08636363636363598,
                "tempo": 120.0
            },
            {
                "start_time": 41.72727272727273,
                "end_time": 41.875,
                "pitch": 59,
                "velocity": 64,
                "duration": 0.14772727272727337,
                "tempo": 120.0
            },
            {
                "start_time": 42.320454545454545,
                "end_time": 42.336363636363636,
                "pitch": 65,
                "velocity": 64,
                "duration": 0.01590909090909065,
                "tempo": 120.0
            },
            {
                "start_time": 42.35227272727273,
                "end_time": 42.73863636363636,
                "pitch": 64,
                "velocity": 64,
                "duration": 0.38636363636363313,
                "tempo": 120.0
            },
            {
                "start_time": 42.75454545454545,
                "end_time": 42.93863636363636,
                "pitch": 62,
                "velocity": 64,
                "duration": 0.1840909090909122,
                "tempo": 120.0
            },
            {
                "start_time": 42.95454545454545,
                "end_time": 43.23863636363636,
                "pitch": 60,
                "velocity": 64,
                "duration": 0.2840909090909065,
                "tempo": 120.0
            },
            {
                "start_time": 43.25454545454545,
                "end_time": 43.304545454545455,
                "pitch": 60,
                "velocity": 64,
                "duration": 0.05000000000000426,
                "tempo": 120.0
            },
            {
                "start_time": 43.32272727272727,
                "end_time": 44.309090909090905,
                "pitch": 67,
                "velocity": 64,
                "duration": 0.9863636363636346,
                "tempo": 120.0
            },
            {
                "start_time": 44.324999999999996,
                "end_time": 44.877272727272725,
                "pitch": 65,
                "velocity": 64,
                "duration": 0.5522727272727295,
                "tempo": 120.0
            }
        ],
        "Vibraphone": [
            {
                "start_time": 0.0,
                "end_time": 0.16818181818181818,
                "pitch": 64,
                "velocity": 40,
                "duration": 0.16818181818181818,
                "tempo": 120.0
            },
            {
                "start_time": 0.18409090909090908,
                "end_time": 0.36818181818181817,
                "pitch": 64,
                "velocity": 40,
                "duration": 0.18409090909090908,
                "tempo": 120.0
            },
            {
                "start_time": 0.3840909090909091,
                "end_time": 0.5681818181818181,
                "pitch": 64,
                "velocity": 40,
                "duration": 0.18409090909090903,
                "tempo": 120.0
            },
            {
                "start_time": 0.5840909090909091,
                "end_time": 0.7681818181818182,
                "pitch": 64,
                "velocity": 40,
                "duration": 0.18409090909090908,
                "tempo": 120.0
            },
            {
                "start_time": 0.7840909090909091,
                "end_time": 0.9681818181818181,
                "pitch": 64,
                "velocity": 40,
                "duration": 0.18409090909090908,
                "tempo": 120.0
            },
            {
                "start_time": 0.984090909090909,
                "end_time": 1.1681818181818182,
                "pitch": 64,
                "velocity": 40,
                "duration": 0.1840909090909092,
                "tempo": 120.0
            },
            {
                "start_time": 1.184090909090909,
                "end_time": 1.3681818181818182,
                "pitch": 64,
                "velocity": 40,
                "duration": 0.18409090909090908,
                "tempo": 120.0
            },
            {
                "start_time": 1.384090909090909,
                "end_time": 1.5681818181818181,
                "pitch": 64,
                "velocity": 40,
                "duration": 0.18409090909090908,
                "tempo": 120.0
            },
            {
                "start_time": 1.584090909090909,
                "end_time": 1.7727272727272727,
                "pitch": 64,
                "velocity": 40,
                "duration": 0.1886363636363637,
                "tempo": 120.0
            },
            {
                "start_time": 1.7886363636363636,
                "end_time": 1.977272727272727,
                "pitch": 64,
                "velocity": 40,
                "duration": 0.1886363636363635,
                "tempo": 120.0
            },
            {
                "start_time": 1.9954545454545454,
                "end_time": 2.175,
                "pitch": 64,
                "velocity": 40,
                "duration": 0.17954545454545445,
                "tempo": 120.0
            },
            {
                "start_time": 2.190909090909091,
                "end_time": 2.370454545454545,
                "pitch": 64,
                "velocity": 40,
                "duration": 0.17954545454545423,
                "tempo": 120.0
            },
            {
                "start_time": 2.3863636363636362,
                "end_time": 2.5704545454545453,
                "pitch": 64,
                "velocity": 40,
                "duration": 0.18409090909090908,
                "tempo": 120.0
            },
            {
                "start_time": 2.5863636363636364,
                "end_time": 2.7704545454545455,
                "pitch": 64,
                "velocity": 40,
                "duration": 0.18409090909090908,
                "tempo": 120.0
            },
            {
                "start_time": 2.786363636363636,
                "end_time": 2.9704545454545452,
                "pitch": 64,
                "velocity": 40,
                "duration": 0.18409090909090908,
                "tempo": 120.0
            },
            {
                "start_time": 2.9863636363636363,
                "end_time": 3.1704545454545454,
                "pitch": 64,
                "velocity": 40,
                "duration": 0.18409090909090908,
                "tempo": 120.0
            },
            {
                "start_time": 3.186363636363636,
                "end_time": 3.370454545454545,
                "pitch": 64,
                "velocity": 40,
                "duration": 0.18409090909090908,
                "tempo": 120.0
            },
            {
                "start_time": 3.3886363636363637,
                "end_time": 3.5727272727272728,
                "pitch": 64,
                "velocity": 40,
                "duration": 0.18409090909090908,
                "tempo": 120.0
            },
            {
                "start_time": 3.5886363636363634,
                "end_time": 3.7727272727272725,
                "pitch": 64,
                "velocity": 40,
                "duration": 0.18409090909090908,
                "tempo": 120.0
            },
            {
                "start_time": 3.7886363636363636,
                "end_time": 3.9727272727272727,
                "pitch": 64,
                "velocity": 40,
                "duration": 0.18409090909090908,
                "tempo": 120.0
            },
            {
                "start_time": 3.9886363636363633,
                "end_time": 4.172727272727273,
                "pitch": 64,
                "velocity": 40,
                "duration": 0.18409090909090953,
                "tempo": 120.0
            },
            {
                "start_time": 4.1886363636363635,
                "end_time": 4.372727272727272,
                "pitch": 64,
                "velocity": 40,
                "duration": 0.18409090909090864,
                "tempo": 120.0
            },
            {
                "start_time": 4.388636363636364,
                "end_time": 4.572727272727272,
                "pitch": 64,
                "velocity": 40,
                "duration": 0.18409090909090864,
                "tempo": 120.0
            },
            {
                "start_time": 4.588636363636364,
                "end_time": 4.7727272727272725,
                "pitch": 64,
                "velocity": 40,
                "duration": 0.18409090909090864,
                "tempo": 120.0
            },
            {
                "start_time": 4.788636363636363,
                "end_time": 4.975,
                "pitch": 64,
                "velocity": 40,
                "duration": 0.1863636363636365,
                "tempo": 120.0
            },
            {
                "start_time": 4.99090909090909,
                "end_time": 5.175,
                "pitch": 64,
                "velocity": 40,
                "duration": 0.18409090909090953,
                "tempo": 120.0
            },
            {
                "start_time": 5.193181818181818,
                "end_time": 5.375,
                "pitch": 64,
                "velocity": 40,
                "duration": 0.18181818181818166,
                "tempo": 120.0
            },
            {
                "start_time": 5.393181818181818,
                "end_time": 5.574999999999999,
                "pitch": 64,
                "velocity": 40,
                "duration": 0.18181818181818166,
                "tempo": 120.0
            },
            {
                "start_time": 5.593181818181818,
                "end_time": 5.777272727272727,
                "pitch": 64,
                "velocity": 40,
                "duration": 0.18409090909090953,
                "tempo": 120.0
            },
            {
                "start_time": 5.793181818181818,
                "end_time": 5.977272727272727,
                "pitch": 64,
                "velocity": 40,
                "duration": 0.18409090909090864,
                "tempo": 120.0
            },
            {
                "start_time": 5.995454545454545,
                "end_time": 6.179545454545455,
                "pitch": 67,
                "velocity": 40,
                "duration": 0.18409090909090953,
                "tempo": 120.0
            },
            {
                "start_time": 6.195454545454545,
                "end_time": 6.381818181818182,
                "pitch": 64,
                "velocity": 40,
                "duration": 0.1863636363636365,
                "tempo": 120.0
            },
            {
                "start_time": 6.3977272727272725,
                "end_time": 6.581818181818181,
                "pitch": 64,
                "velocity": 40,
                "duration": 0.18409090909090864,
                "tempo": 120.0
            },
            {
                "start_time": 6.597727272727273,
                "end_time": 6.781818181818181,
                "pitch": 64,
                "velocity": 40,
                "duration": 0.18409090909090864,
                "tempo": 120.0
            },
            {
                "start_time": 6.797727272727273,
                "end_time": 6.9818181818181815,
                "pitch": 64,
                "velocity": 40,
                "duration": 0.18409090909090864,
                "tempo": 120.0
            },
            {
                "start_time": 7.0,
                "end_time": 7.184090909090909,
                "pitch": 64,
                "velocity": 40,
                "duration": 0.18409090909090864,
                "tempo": 120.0
            },
            {
                "start_time": 7.199999999999999,
                "end_time": 7.384090909090909,
                "pitch": 64,
                "velocity": 40,
                "duration": 0.18409090909090953,
                "tempo": 120.0
            },
            {
                "start_time": 7.3999999999999995,
                "end_time": 7.584090909090909,
                "pitch": 64,
                "velocity": 40,
                "duration": 0.18409090909090953,
                "tempo": 120.0
            },
            {
                "start_time": 7.6,
                "end_time": 7.784090909090908,
                "pitch": 64,
                "velocity": 40,
                "duration": 0.18409090909090864,
                "tempo": 120.0
            },
            {
                "start_time": 7.802272727272727,
                "end_time": 7.986363636363636,
                "pitch": 64,
                "velocity": 40,
                "duration": 0.18409090909090953,
                "tempo": 120.0
            },
            {
                "start_time": 8.002272727272727,
                "end_time": 8.190909090909091,
                "pitch": 64,
                "velocity": 40,
                "duration": 0.18863636363636438,
                "tempo": 120.0
            },
            {
                "start_time": 8.209090909090909,
                "end_time": 8.397727272727272,
                "pitch": 64,
                "velocity": 40,
                "duration": 0.1886363636363626,
                "tempo": 120.0
            },
            {
                "start_time": 8.413636363636364,
                "end_time": 8.597727272727273,
                "pitch": 64,
                "velocity": 40,
                "duration": 0.18409090909090864,
                "tempo": 120.0
            },
            {
                "start_time": 8.61590909090909,
                "end_time": 8.799999999999999,
                "pitch": 64,
                "velocity": 40,
                "duration": 0.18409090909090864,
                "tempo": 120.0
            },
            {
                "start_time": 8.815909090909091,
                "end_time": 8.995454545454544,
                "pitch": 64,
                "velocity": 40,
                "duration": 0.1795454545454529,
                "tempo": 120.0
            },
            {
                "start_time": 9.013636363636364,
                "end_time": 9.193181818181818,
                "pitch": 64,
                "velocity": 40,
                "duration": 0.17954545454545467,
                "tempo": 120.0
            },
            {
                "start_time": 9.209090909090909,
                "end_time": 9.393181818181818,
                "pitch": 64,
                "velocity": 40,
                "duration": 0.18409090909090864,
                "tempo": 120.0
            },
            {
                "start_time": 9.409090909090908,
                "end_time": 9.595454545454546,
                "pitch": 64,
                "velocity": 40,
                "duration": 0.1863636363636374,
                "tempo": 120.0
            },
            {
                "start_time": 9.611363636363636,
                "end_time": 9.795454545454545,
                "pitch": 64,
                "velocity": 40,
                "duration": 0.18409090909090864,
                "tempo": 120.0
            },
            {
                "start_time": 9.813636363636363,
                "end_time": 9.997727272727273,
                "pitch": 64,
                "velocity": 40,
                "duration": 0.18409090909091042,
                "tempo": 120.0
            },
            {
                "start_time": 10.013636363636364,
                "end_time": 10.197727272727272,
                "pitch": 64,
                "velocity": 40,
                "duration": 0.18409090909090864,
                "tempo": 120.0
            },
            {
                "start_time": 10.21590909090909,
                "end_time": 10.4,
                "pitch": 64,
                "velocity": 40,
                "duration": 0.18409090909091042,
                "tempo": 120.0
            },
            {
                "start_time": 10.415909090909091,
                "end_time": 10.602272727272727,
                "pitch": 64,
                "velocity": 40,
                "duration": 0.18636363636363562,
                "tempo": 120.0
            },
            {
                "start_time": 10.618181818181817,
                "end_time": 10.802272727272726,
                "pitch": 64,
                "velocity": 40,
                "duration": 0.18409090909090864,
                "tempo": 120.0
            },
            {
                "start_time": 10.820454545454545,
                "end_time": 11.002272727272727,
                "pitch": 64,
                "velocity": 40,
                "duration": 0.18181818181818166,
                "tempo": 120.0
            },
            {
                "start_time": 11.020454545454545,
                "end_time": 11.202272727272726,
                "pitch": 64,
                "velocity": 40,
                "duration": 0.18181818181818166,
                "tempo": 120.0
            },
            {
                "start_time": 11.220454545454546,
                "end_time": 11.406818181818181,
                "pitch": 64,
                "velocity": 40,
                "duration": 0.18636363636363562,
                "tempo": 120.0
            },
            {
                "start_time": 11.424999999999999,
                "end_time": 11.613636363636363,
                "pitch": 64,
                "velocity": 40,
                "duration": 0.18863636363636438,
                "tempo": 120.0
            },
            {
                "start_time": 11.629545454545454,
                "end_time": 11.809090909090909,
                "pitch": 64,
                "velocity": 40,
                "duration": 0.17954545454545467,
                "tempo": 120.0
            },
            {
                "start_time": 11.827272727272726,
                "end_time": 12.006818181818181,
                "pitch": 64,
                "velocity": 40,
                "duration": 0.17954545454545467,
                "tempo": 120.0
            },
            {
                "start_time": 12.022727272727272,
                "end_time": 12.206818181818182,
                "pitch": 64,
                "velocity": 40,
                "duration": 0.18409090909091042,
                "tempo": 120.0
            },
            {
                "start_time": 12.222727272727273,
                "end_time": 12.409090909090908,
                "pitch": 64,
                "velocity": 40,
                "duration": 0.18636363636363562,
                "tempo": 120.0
            },
            {
                "start_time": 12.424999999999999,
                "end_time": 12.60909090909091,
                "pitch": 67,
                "velocity": 40,
                "duration": 0.18409090909091042,
                "tempo": 120.0
            },
            {
                "start_time": 12.627272727272727,
                "end_time": 12.811363636363636,
                "pitch": 64,
                "velocity": 40,
                "duration": 0.18409090909090864,
                "tempo": 120.0
            },
            {
                "start_time": 12.827272727272726,
                "end_time": 13.011363636363635,
                "pitch": 64,
                "velocity": 40,
                "duration": 0.18409090909090864,
                "tempo": 120.0
            },
            {
                "start_time": 13.027272727272727,
                "end_time": 13.211363636363636,
                "pitch": 64,
                "velocity": 40,
                "duration": 0.18409090909090864,
                "tempo": 120.0
            },
            {
                "start_time": 13.227272727272727,
                "end_time": 13.411363636363635,
                "pitch": 64,
                "velocity": 40,
                "duration": 0.18409090909090864,
                "tempo": 120.0
            },
            {
                "start_time": 13.429545454545455,
                "end_time": 13.81590909090909,
                "pitch": 64,
                "velocity": 40,
                "duration": 0.3863636363636349,
                "tempo": 120.0
            },
            {
                "start_time": 13.831818181818182,
                "end_time": 14.01590909090909,
                "pitch": 64,
                "velocity": 40,
                "duration": 0.18409090909090864,
                "tempo": 120.0
            },
            {
                "start_time": 14.034090909090908,
                "end_time": 14.218181818181817,
                "pitch": 62,
                "velocity": 40,
                "duration": 0.18409090909090864,
                "tempo": 120.0
            },
            {
                "start_time": 14.234090909090908,
                "end_time": 14.620454545454544,
                "pitch": 64,
                "velocity": 40,
                "duration": 0.3863636363636367,
                "tempo": 120.0
            },
            {
                "start_time": 14.636363636363635,
                "end_time": 14.822727272727272,
                "pitch": 64,
                "velocity": 40,
                "duration": 0.1863636363636374,
                "tempo": 120.0
            },
            {
                "start_time": 14.838636363636363,
                "end_time": 15.23181818181818,
                "pitch": 64,
                "velocity": 40,
                "duration": 0.39318181818181763,
                "tempo": 120.0
            },
            {
                "start_time": 15.25,
                "end_time": 15.625,
                "pitch": 64,
                "velocity": 40,
                "duration": 0.375,
                "tempo": 120.0
            },
            {
                "start_time": 15.64090909090909,
                "end_time": 15.825,
                "pitch": 64,
                "velocity": 40,
                "duration": 0.18409090909090864,
                "tempo": 120.0
            },
            {
                "start_time": 15.843181818181817,
                "end_time": 16.027272727272727,
                "pitch": 64,
                "velocity": 40,
                "duration": 0.18409090909091042,
                "tempo": 120.0
            },
            {
                "start_time": 16.043181818181818,
                "end_time": 16.229545454545455,
                "pitch": 64,
                "velocity": 40,
                "duration": 0.1863636363636374,
                "tempo": 120.0
            },
            {
                "start_time": 16.245454545454546,
                "end_time": 16.395454545454545,
                "pitch": 64,
                "velocity": 40,
                "duration": 0.14999999999999858,
                "tempo": 120.0
            },
            {
                "start_time": 16.413636363636364,
                "end_time": 16.629545454545454,
                "pitch": 64,
                "velocity": 40,
                "duration": 0.21590909090908994,
                "tempo": 120.0
            },
            {
                "start_time": 16.647727272727273,
                "end_time": 16.829545454545453,
                "pitch": 64,
                "velocity": 40,
                "duration": 0.18181818181817988,
                "tempo": 120.0
            },
            {
                "start_time": 16.847727272727273,
                "end_time": 17.03181818181818,
                "pitch": 64,
                "velocity": 40,
                "duration": 0.18409090909090864,
                "tempo": 120.0
            },
            {
                "start_time": 17.047727272727272,
                "end_time": 17.23181818181818,
                "pitch": 64,
                "velocity": 40,
                "duration": 0.18409090909090864,
                "tempo": 120.0
            },
            {
                "start_time": 17.25,
                "end_time": 17.43181818181818,
                "pitch": 62,
                "velocity": 40,
                "duration": 0.18181818181817988,
                "tempo": 120.0
            },
            {
                "start_time": 17.45,
                "end_time": 17.631818181818183,
                "pitch": 64,
                "velocity": 40,
                "duration": 0.18181818181818343,
                "tempo": 120.0
            },
            {
                "start_time": 17.65,
                "end_time": 18.043181818181818,
                "pitch": 62,
                "velocity": 40,
                "duration": 0.3931818181818194,
                "tempo": 120.0
            },
            {
                "start_time": 18.05909090909091,
                "end_time": 18.077272727272728,
                "pitch": 64,
                "velocity": 40,
                "duration": 0.01818181818181941,
                "tempo": 120.0
            },
            {
                "start_time": 18.65681818181818,
                "end_time": 19.238636363636363,
                "pitch": 67,
                "velocity": 40,
                "duration": 0.581818181818182,
                "tempo": 120.0
            },
            {
                "start_time": 19.254545454545454,
                "end_time": 19.438636363636363,
                "pitch": 64,
                "velocity": 40,
                "duration": 0.18409090909090864,
                "tempo": 120.0
            },
            {
                "start_time": 19.454545454545453,
                "end_time": 19.638636363636362,
                "pitch": 64,
                "velocity": 40,
                "duration": 0.18409090909090864,
                "tempo": 120.0
            },
            {
                "start_time": 19.654545454545453,
                "end_time": 19.83863636363636,
                "pitch": 64,
                "velocity": 40,
                "duration": 0.18409090909090864,
                "tempo": 120.0
            },
            {
                "start_time": 19.854545454545452,
                "end_time": 20.038636363636364,
                "pitch": 64,
                "velocity": 40,
                "duration": 0.1840909090909122,
                "tempo": 120.0
            },
            {
                "start_time": 20.054545454545455,
                "end_time": 20.24090909090909,
                "pitch": 64,
                "velocity": 40,
                "duration": 0.18636363636363384,
                "tempo": 120.0
            },
            {
                "start_time": 20.25681818181818,
                "end_time": 20.44090909090909,
                "pitch": 64,
                "velocity": 40,
                "duration": 0.1840909090909122,
                "tempo": 120.0
            },
            {
                "start_time": 20.456818181818182,
                "end_time": 20.64090909090909,
                "pitch": 64,
                "velocity": 40,
                "duration": 0.18409090909090864,
                "tempo": 120.0
            },
            {
                "start_time": 20.65681818181818,
                "end_time": 20.84090909090909,
                "pitch": 64,
                "velocity": 40,
                "duration": 0.18409090909090864,
                "tempo": 120.0
            },
            {
                "start_time": 20.85681818181818,
                "end_time": 21.045454545454543,
                "pitch": 64,
                "velocity": 40,
                "duration": 0.1886363636363626,
                "tempo": 120.0
            },
            {
                "start_time": 21.063636363636363,
                "end_time": 21.252272727272725,
                "pitch": 64,
                "velocity": 40,
                "duration": 0.1886363636363626,
                "tempo": 120.0
            },
            {
                "start_time": 21.268181818181816,
                "end_time": 21.452272727272724,
                "pitch": 64,
                "velocity": 40,
                "duration": 0.18409090909090864,
                "tempo": 120.0
            },
            {
                "start_time": 21.470454545454544,
                "end_time": 21.654545454545453,
                "pitch": 64,
                "velocity": 40,
                "duration": 0.18409090909090864,
                "tempo": 120.0
            },
            {
                "start_time": 21.670454545454543,
                "end_time": 21.852272727272727,
                "pitch": 64,
                "velocity": 40,
                "duration": 0.18181818181818343,
                "tempo": 120.0
            },
            {
                "start_time": 21.868181818181817,
                "end_time": 22.047727272727272,
                "pitch": 64,
                "velocity": 40,
                "duration": 0.17954545454545467,
                "tempo": 120.0
            },
            {
                "start_time": 22.063636363636363,
                "end_time": 22.24772727272727,
                "pitch": 64,
                "velocity": 40,
                "duration": 0.18409090909090864,
                "tempo": 120.0
            },
            {
                "start_time": 22.26590909090909,
                "end_time": 22.45,
                "pitch": 64,
                "velocity": 40,
                "duration": 0.18409090909090864,
                "tempo": 120.0
            },
            {
                "start_time": 22.46590909090909,
                "end_time": 22.65,
                "pitch": 64,
                "velocity": 40,
                "duration": 0.18409090909090864,
                "tempo": 120.0
            },
            {
                "start_time": 22.66590909090909,
                "end_time": 22.849999999999998,
                "pitch": 64,
                "velocity": 40,
                "duration": 0.18409090909090864,
                "tempo": 120.0
            },
            {
                "start_time": 22.86590909090909,
                "end_time": 23.049999999999997,
                "pitch": 64,
                "velocity": 40,
                "duration": 0.18409090909090864,
                "tempo": 120.0
            },
            {
                "start_time": 23.068181818181817,
                "end_time": 23.252272727272725,
                "pitch": 64,
                "velocity": 40,
                "duration": 0.18409090909090864,
                "tempo": 120.0
            },
            {
                "start_time": 23.268181818181816,
                "end_time": 23.452272727272724,
                "pitch": 64,
                "velocity": 40,
                "duration": 0.18409090909090864,
                "tempo": 120.0
            },
            {
                "start_time": 23.46818181818182,
                "end_time": 23.652272727272727,
                "pitch": 64,
                "velocity": 40,
                "duration": 0.18409090909090864,
                "tempo": 120.0
            },
            {
                "start_time": 23.668181818181818,
                "end_time": 23.852272727272727,
                "pitch": 64,
                "velocity": 40,
                "duration": 0.18409090909090864,
                "tempo": 120.0
            },
            {
                "start_time": 23.868181818181817,
                "end_time": 24.052272727272726,
                "pitch": 64,
                "velocity": 40,
                "duration": 0.18409090909090864,
                "tempo": 120.0
            },
            {
                "start_time": 24.068181818181817,
                "end_time": 24.254545454545454,
                "pitch": 64,
                "velocity": 40,
                "duration": 0.1863636363636374,
                "tempo": 120.0
            },
            {
                "start_time": 24.270454545454545,
                "end_time": 24.454545454545453,
                "pitch": 64,
                "velocity": 40,
                "duration": 0.18409090909090864,
                "tempo": 120.0
            },
            {
                "start_time": 24.472727272727273,
                "end_time": 24.654545454545453,
                "pitch": 64,
                "velocity": 40,
                "duration": 0.18181818181817988,
                "tempo": 120.0
            },
            {
                "start_time": 24.672727272727272,
                "end_time": 24.854545454545452,
                "pitch": 64,
                "velocity": 40,
                "duration": 0.18181818181817988,
                "tempo": 120.0
            },
            {
                "start_time": 24.87272727272727,
                "end_time": 25.05681818181818,
                "pitch": 64,
                "velocity": 40,
                "duration": 0.18409090909090864,
                "tempo": 120.0
            },
            {
                "start_time": 25.07272727272727,
                "end_time": 25.25681818181818,
                "pitch": 64,
                "velocity": 40,
                "duration": 0.18409090909090864,
                "tempo": 120.0
            },
            {
                "start_time": 25.275,
                "end_time": 25.456818181818182,
                "pitch": 67,
                "velocity": 40,
                "duration": 0.18181818181818343,
                "tempo": 120.0
            },
            {
                "start_time": 25.474999999999998,
                "end_time": 25.65681818181818,
                "pitch": 64,
                "velocity": 40,
                "duration": 0.18181818181818343,
                "tempo": 120.0
            },
            {
                "start_time": 25.674999999999997,
                "end_time": 25.85681818181818,
                "pitch": 64,
                "velocity": 40,
                "duration": 0.18181818181818343,
                "tempo": 120.0
            },
            {
                "start_time": 25.875,
                "end_time": 26.05681818181818,
                "pitch": 64,
                "velocity": 40,
                "duration": 0.18181818181817988,
                "tempo": 120.0
            },
            {
                "start_time": 26.075,
                "end_time": 26.259090909090908,
                "pitch": 64,
                "velocity": 40,
                "duration": 0.18409090909090864,
                "tempo": 120.0
            },
            {
                "start_time": 26.275,
                "end_time": 26.661363636363635,
                "pitch": 64,
                "velocity": 40,
                "duration": 0.3863636363636367,
                "tempo": 120.0
            },
            {
                "start_time": 26.677272727272726,
                "end_time": 26.861363636363635,
                "pitch": 64,
                "velocity": 40,
                "duration": 0.18409090909090864,
                "tempo": 120.0
            },
            {
                "start_time": 26.877272727272725,
                "end_time": 27.061363636363634,
                "pitch": 62,
                "velocity": 40,
                "duration": 0.18409090909090864,
                "tempo": 120.0
            },
            {
                "start_time": 27.079545454545453,
                "end_time": 27.468181818181815,
                "pitch": 64,
                "velocity": 40,
                "duration": 0.3886363636363619,
                "tempo": 120.0
            },
            {
                "start_time": 27.48409090909091,
                "end_time": 27.672727272727272,
                "pitch": 64,
                "velocity": 40,
                "duration": 0.1886363636363626,
                "tempo": 120.0
            },
            {
                "start_time": 27.690909090909088,
                "end_time": 28.075,
                "pitch": 64,
                "velocity": 40,
                "duration": 0.3840909090909115,
                "tempo": 120.0
            },
            {
                "start_time": 28.09090909090909,
                "end_time": 28.46590909090909,
                "pitch": 64,
                "velocity": 40,
                "duration": 0.375,
                "tempo": 120.0
            },
            {
                "start_time": 28.48181818181818,
                "end_time": 28.66590909090909,
                "pitch": 64,
                "velocity": 40,
                "duration": 0.18409090909090864,
                "tempo": 120.0
            },
            {
                "start_time": 28.68181818181818,
                "end_time": 28.86590909090909,
                "pitch": 64,
                "velocity": 40,
                "duration": 0.18409090909090864,
                "tempo": 120.0
            },
            {
                "start_time": 28.884090909090908,
                "end_time": 29.068181818181817,
                "pitch": 64,
                "velocity": 40,
                "duration": 0.18409090909090864,
                "tempo": 120.0
            },
            {
                "start_time": 29.084090909090907,
                "end_time": 29.236363636363635,
                "pitch": 64,
                "velocity": 40,
                "duration": 0.15227272727272734,
                "tempo": 120.0
            },
            {
                "start_time": 29.252272727272725,
                "end_time": 29.468181818181815,
                "pitch": 64,
                "velocity": 40,
                "duration": 0.21590909090908994,
                "tempo": 120.0
            },
            {
                "start_time": 29.486363636363635,
                "end_time": 29.668181818181818,
                "pitch": 64,
                "velocity": 40,
                "duration": 0.18181818181818343,
                "tempo": 120.0
            },
            {
                "start_time": 29.686363636363634,
                "end_time": 29.868181818181817,
                "pitch": 64,
                "velocity": 40,
                "duration": 0.18181818181818343,
                "tempo": 120.0
            },
            {
                "start_time": 29.886363636363637,
                "end_time": 30.068181818181817,
                "pitch": 64,
                "velocity": 40,
                "duration": 0.18181818181817988,
                "tempo": 120.0
            },
            {
                "start_time": 30.086363636363636,
                "end_time": 30.270454545454545,
                "pitch": 62,
                "velocity": 40,
                "duration": 0.18409090909090864,
                "tempo": 120.0
            },
            {
                "start_time": 30.286363636363635,
                "end_time": 30.470454545454544,
                "pitch": 64,
                "velocity": 40,
                "duration": 0.18409090909090864,
                "tempo": 120.0
            },
            {
                "start_time": 30.488636363636363,
                "end_time": 30.88181818181818,
                "pitch": 62,
                "velocity": 40,
                "duration": 0.39318181818181586,
                "tempo": 120.0
            },
            {
                "start_time": 30.9,
                "end_time": 30.91590909090909,
                "pitch": 64,
                "velocity": 40,
                "duration": 0.01590909090909065,
                "tempo": 120.0
            },
            {
                "start_time": 31.495454545454542,
                "end_time": 32.074999999999996,
                "pitch": 67,
                "velocity": 40,
                "duration": 0.5795454545454533,
                "tempo": 120.0
            },
            {
                "start_time": 32.090909090909086,
                "end_time": 32.275,
                "pitch": 58,
                "velocity": 40,
                "duration": 0.1840909090909122,
                "tempo": 120.0
            },
            {
                "start_time": 32.293181818181814,
                "end_time": 32.47727272727273,
                "pitch": 58,
                "velocity": 40,
                "duration": 0.1840909090909122,
                "tempo": 120.0
            },
            {
                "start_time": 32.49318181818182,
                "end_time": 32.68181818181818,
                "pitch": 58,
                "velocity": 40,
                "duration": 0.1886363636363626,
                "tempo": 120.0
            },
            {
                "start_time": 32.699999999999996,
                "end_time": 32.888636363636365,
                "pitch": 58,
                "velocity": 40,
                "duration": 0.1886363636363697,
                "tempo": 120.0
            },
            {
                "start_time": 32.904545454545456,
                "end_time": 33.08409090909091,
                "pitch": 58,
                "velocity": 40,
                "duration": 0.17954545454545467,
                "tempo": 120.0
            },
            {
                "start_time": 33.1,
                "end_time": 33.279545454545456,
                "pitch": 58,
                "velocity": 40,
                "duration": 0.17954545454545467,
                "tempo": 120.0
            },
            {
                "start_time": 33.29772727272727,
                "end_time": 33.47954545454545,
                "pitch": 58,
                "velocity": 40,
                "duration": 0.18181818181817988,
                "tempo": 120.0
            },
            {
                "start_time": 33.49772727272727,
                "end_time": 33.679545454545455,
                "pitch": 58,
                "velocity": 40,
                "duration": 0.18181818181818699,
                "tempo": 120.0
            },
            {
                "start_time": 33.69772727272727,
                "end_time": 33.87954545454545,
                "pitch": 57,
                "velocity": 40,
                "duration": 0.18181818181817988,
                "tempo": 120.0
            },
            {
                "start_time": 33.89772727272727,
                "end_time": 34.07954545454545,
                "pitch": 57,
                "velocity": 40,
                "duration": 0.18181818181817988,
                "tempo": 120.0
            },
            {
                "start_time": 34.09772727272727,
                "end_time": 34.279545454545456,
                "pitch": 57,
                "velocity": 40,
                "duration": 0.18181818181818699,
                "tempo": 120.0
            },
            {
                "start_time": 34.29772727272727,
                "end_time": 34.47954545454545,
                "pitch": 57,
                "velocity": 40,
                "duration": 0.18181818181817988,
                "tempo": 120.0
            },
            {
                "start_time": 34.49772727272727,
                "end_time": 34.68181818181818,
                "pitch": 57,
                "velocity": 40,
                "duration": 0.1840909090909122,
                "tempo": 120.0
            },
            {
                "start_time": 34.69772727272727,
                "end_time": 34.88409090909091,
                "pitch": 57,
                "velocity": 40,
                "duration": 0.1863636363636374,
                "tempo": 120.0
            },
            {
                "start_time": 34.9,
                "end_time": 35.08409090909091,
                "pitch": 57,
                "velocity": 40,
                "duration": 0.1840909090909122,
                "tempo": 120.0
            },
            {
                "start_time": 35.1,
                "end_time": 35.28409090909091,
                "pitch": 57,
                "velocity": 40,
                "duration": 0.18409090909090509,
                "tempo": 120.0
            },
            {
                "start_time": 35.3,
                "end_time": 35.48409090909091,
                "pitch": 56,
                "velocity": 40,
                "duration": 0.1840909090909122,
                "tempo": 120.0
            },
            {
                "start_time": 35.5,
                "end_time": 35.684090909090905,
                "pitch": 56,
                "velocity": 40,
                "duration": 0.18409090909090509,
                "tempo": 120.0
            },
            {
                "start_time": 35.699999999999996,
                "end_time": 35.888636363636365,
                "pitch": 56,
                "velocity": 40,
                "duration": 0.1886363636363697,
                "tempo": 120.0
            },
            {
                "start_time": 35.904545454545456,
                "end_time": 36.09318181818182,
                "pitch": 56,
                "velocity": 40,
                "duration": 0.1886363636363626,
                "tempo": 120.0
            },
            {
                "start_time": 36.111363636363635,
                "end_time": 36.29090909090909,
                "pitch": 56,
                "velocity": 40,
                "duration": 0.17954545454545467,
                "tempo": 120.0
            },
            {
                "start_time": 36.30681818181818,
                "end_time": 36.486363636363635,
                "pitch": 56,
                "velocity": 40,
                "duration": 0.17954545454545467,
                "tempo": 120.0
            },
            {
                "start_time": 36.502272727272725,
                "end_time": 36.68636363636364,
                "pitch": 56,
                "velocity": 40,
                "duration": 0.1840909090909122,
                "tempo": 120.0
            },
            {
                "start_time": 36.70454545454545,
                "end_time": 36.88863636363636,
                "pitch": 56,
                "velocity": 40,
                "duration": 0.18409090909090509,
                "tempo": 120.0
            },
            {
                "start_time": 36.904545454545456,
                "end_time": 37.09318181818182,
                "pitch": 55,
                "velocity": 40,
                "duration": 0.1886363636363626,
                "tempo": 120.0
            },
            {
                "start_time": 37.111363636363635,
                "end_time": 37.3,
                "pitch": 55,
                "velocity": 40,
                "duration": 0.1886363636363626,
                "tempo": 120.0
            },
            {
                "start_time": 37.31590909090909,
                "end_time": 37.49545454545454,
                "pitch": 55,
                "velocity": 40,
                "duration": 0.17954545454545467,
                "tempo": 120.0
            },
            {
                "start_time": 37.51136363636363,
                "end_time": 37.69090909090909,
                "pitch": 55,
                "velocity": 40,
                "duration": 0.17954545454545467,
                "tempo": 120.0
            },
            {
                "start_time": 37.70909090909091,
                "end_time": 37.89090909090909,
                "pitch": 55,
                "velocity": 40,
                "duration": 0.18181818181817988,
                "tempo": 120.0
            },
            {
                "start_time": 37.90909090909091,
                "end_time": 38.090909090909086,
                "pitch": 55,
                "velocity": 40,
                "duration": 0.18181818181817988,
                "tempo": 120.0
            },
            {
                "start_time": 38.10909090909091,
                "end_time": 38.29090909090909,
                "pitch": 55,
                "velocity": 40,
                "duration": 0.18181818181817988,
                "tempo": 120.0
            },
            {
                "start_time": 38.309090909090905,
                "end_time": 38.49090909090909,
                "pitch": 55,
                "velocity": 40,
                "duration": 0.18181818181818699,
                "tempo": 120.0
            },
            {
                "start_time": 38.50909090909091,
                "end_time": 38.69318181818181,
                "pitch": 58,
                "velocity": 40,
                "duration": 0.18409090909090509,
                "tempo": 120.0
            },
            {
                "start_time": 38.709090909090904,
                "end_time": 38.893181818181816,
                "pitch": 58,
                "velocity": 40,
                "duration": 0.1840909090909122,
                "tempo": 120.0
            },
            {
                "start_time": 38.91136363636363,
                "end_time": 39.1,
                "pitch": 58,
                "velocity": 40,
                "duration": 0.1886363636363697,
                "tempo": 120.0
            },
            {
                "start_time": 39.11590909090909,
                "end_time": 39.304545454545455,
                "pitch": 58,
                "velocity": 40,
                "duration": 0.1886363636363626,
                "tempo": 120.0
            },
            {
                "start_time": 39.320454545454545,
                "end_time": 39.502272727272725,
                "pitch": 58,
                "velocity": 40,
                "duration": 0.18181818181817988,
                "tempo": 120.0
            },
            {
                "start_time": 39.518181818181816,
                "end_time": 39.69772727272727,
                "pitch": 58,
                "velocity": 40,
                "duration": 0.17954545454545467,
                "tempo": 120.0
            },
            {
                "start_time": 39.71363636363636,
                "end_time": 39.89772727272727,
                "pitch": 58,
                "velocity": 40,
                "duration": 0.1840909090909122,
                "tempo": 120.0
            },
            {
                "start_time": 39.913636363636364,
                "end_time": 40.09772727272727,
                "pitch": 58,
                "velocity": 40,
                "duration": 0.18409090909090509,
                "tempo": 120.0
            },
            {
                "start_time": 40.11363636363636,
                "end_time": 40.30227272727272,
                "pitch": 57,
                "velocity": 40,
                "duration": 0.1886363636363626,
                "tempo": 120.0
            },
            {
                "start_time": 40.31818181818181,
                "end_time": 40.50681818181818,
                "pitch": 57,
                "velocity": 40,
                "duration": 0.1886363636363697,
                "tempo": 120.0
            },
            {
                "start_time": 40.525,
                "end_time": 40.70454545454545,
                "pitch": 57,
                "velocity": 40,
                "duration": 0.17954545454545467,
                "tempo": 120.0
            },
            {
                "start_time": 40.720454545454544,
                "end_time": 40.9,
                "pitch": 57,
                "velocity": 40,
                "duration": 0.17954545454545467,
                "tempo": 120.0
            },
            {
                "start_time": 40.91590909090909,
                "end_time": 41.1,
                "pitch": 57,
                "velocity": 40,
                "duration": 0.1840909090909122,
                "tempo": 120.0
            },
            {
                "start_time": 41.11590909090909,
                "end_time": 41.3,
                "pitch": 57,
                "velocity": 40,
                "duration": 0.18409090909090509,
                "tempo": 120.0
            },
            {
                "start_time": 41.31590909090909,
                "end_time": 41.50454545454545,
                "pitch": 57,
                "velocity": 40,
                "duration": 0.1886363636363626,
                "tempo": 120.0
            },
            {
                "start_time": 41.52272727272727,
                "end_time": 41.711363636363636,
                "pitch": 57,
                "velocity": 40,
                "duration": 0.1886363636363626,
                "tempo": 120.0
            },
            {
                "start_time": 41.72727272727273,
                "end_time": 41.90681818181818,
                "pitch": 56,
                "velocity": 40,
                "duration": 0.17954545454545467,
                "tempo": 120.0
            },
            {
                "start_time": 41.92272727272727,
                "end_time": 42.10227272727273,
                "pitch": 56,
                "velocity": 40,
                "duration": 0.17954545454545467,
                "tempo": 120.0
            },
            {
                "start_time": 42.12045454545454,
                "end_time": 42.30227272727272,
                "pitch": 56,
                "velocity": 40,
                "duration": 0.18181818181817988,
                "tempo": 120.0
            },
            {
                "start_time": 42.320454545454545,
                "end_time": 42.502272727272725,
                "pitch": 56,
                "velocity": 40,
                "duration": 0.18181818181817988,
                "tempo": 120.0
            },
            {
                "start_time": 42.52045454545454,
                "end_time": 42.70454545454545,
                "pitch": 56,
                "velocity": 40,
                "duration": 0.1840909090909122,
                "tempo": 120.0
            },
            {
                "start_time": 42.720454545454544,
                "end_time": 42.90454545454545,
                "pitch": 56,
                "velocity": 40,
                "duration": 0.18409090909090509,
                "tempo": 120.0
            },
            {
                "start_time": 42.92272727272727,
                "end_time": 43.10454545454545,
                "pitch": 56,
                "velocity": 40,
                "duration": 0.18181818181817988,
                "tempo": 120.0
            },
            {
                "start_time": 43.12272727272727,
                "end_time": 43.304545454545455,
                "pitch": 56,
                "velocity": 40,
                "duration": 0.18181818181818699,
                "tempo": 120.0
            },
            {
                "start_time": 43.32272727272727,
                "end_time": 43.51136363636363,
                "pitch": 55,
                "velocity": 40,
                "duration": 0.1886363636363626,
                "tempo": 120.0
            },
            {
                "start_time": 43.527272727272724,
                "end_time": 43.715909090909086,
                "pitch": 55,
                "velocity": 40,
                "duration": 0.1886363636363626,
                "tempo": 120.0
            },
            {
                "start_time": 43.73181818181818,
                "end_time": 43.913636363636364,
                "pitch": 55,
                "velocity": 40,
                "duration": 0.18181818181818699,
                "tempo": 120.0
            },
            {
                "start_time": 43.929545454545455,
                "end_time": 44.10909090909091,
                "pitch": 55,
                "velocity": 40,
                "duration": 0.17954545454545467,
                "tempo": 120.0
            },
            {
                "start_time": 44.125,
                "end_time": 44.309090909090905,
                "pitch": 55,
                "velocity": 40,
                "duration": 0.18409090909090509,
                "tempo": 120.0
            },
            {
                "start_time": 44.324999999999996,
                "end_time": 44.50909090909091,
                "pitch": 55,
                "velocity": 40,
                "duration": 0.1840909090909122,
                "tempo": 120.0
            },
            {
                "start_time": 44.525,
                "end_time": 44.709090909090904,
                "pitch": 55,
                "velocity": 40,
                "duration": 0.18409090909090509,
                "tempo": 120.0
            },
            {
                "start_time": 44.72727272727273,
                "end_time": 44.92727272727272,
                "pitch": 55,
                "velocity": 40,
                "duration": 0.19999999999999574,
                "tempo": 120.0
            }
        ],
        "Acoustic Bass": [
            {
                "start_time": 0.0,
                "end_time": 0.16818181818181818,
                "pitch": 31,
                "velocity": 51,
                "duration": 0.16818181818181818,
                "tempo": 120.0
            },
            {
                "start_time": 0.18409090909090908,
                "end_time": 0.36818181818181817,
                "pitch": 31,
                "velocity": 51,
                "duration": 0.18409090909090908,
                "tempo": 120.0
            },
            {
                "start_time": 0.3840909090909091,
                "end_time": 0.5681818181818181,
                "pitch": 38,
                "velocity": 51,
                "duration": 0.18409090909090903,
                "tempo": 120.0
            },
            {
                "start_time": 0.5840909090909091,
                "end_time": 0.9681818181818181,
                "pitch": 36,
                "velocity": 51,
                "duration": 0.38409090909090904,
                "tempo": 120.0
            },
            {
                "start_time": 0.984090909090909,
                "end_time": 1.1681818181818182,
                "pitch": 35,
                "velocity": 51,
                "duration": 0.1840909090909092,
                "tempo": 120.0
            },
            {
                "start_time": 1.184090909090909,
                "end_time": 1.3681818181818182,
                "pitch": 36,
                "velocity": 51,
                "duration": 0.18409090909090908,
                "tempo": 120.0
            },
            {
                "start_time": 1.384090909090909,
                "end_time": 1.5681818181818181,
                "pitch": 38,
                "velocity": 51,
                "duration": 0.18409090909090908,
                "tempo": 120.0
            },
            {
                "start_time": 1.584090909090909,
                "end_time": 1.977272727272727,
                "pitch": 31,
                "velocity": 51,
                "duration": 0.3931818181818181,
                "tempo": 120.0
            },
            {
                "start_time": 1.9954545454545454,
                "end_time": 2.175,
                "pitch": 38,
                "velocity": 51,
                "duration": 0.17954545454545445,
                "tempo": 120.0
            },
            {
                "start_time": 2.190909090909091,
                "end_time": 2.5704545454545453,
                "pitch": 36,
                "velocity": 51,
                "duration": 0.3795454545454544,
                "tempo": 120.0
            },
            {
                "start_time": 2.5863636363636364,
                "end_time": 2.7704545454545455,
                "pitch": 35,
                "velocity": 51,
                "duration": 0.18409090909090908,
                "tempo": 120.0
            },
            {
                "start_time": 2.786363636363636,
                "end_time": 2.9704545454545452,
                "pitch": 36,
                "velocity": 51,
                "duration": 0.18409090909090908,
                "tempo": 120.0
            },
            {
                "start_time": 2.9863636363636363,
                "end_time": 3.1704545454545454,
                "pitch": 38,
                "velocity": 51,
                "duration": 0.18409090909090908,
                "tempo": 120.0
            },
            {
                "start_time": 3.186363636363636,
                "end_time": 3.5727272727272728,
                "pitch": 29,
                "velocity": 51,
                "duration": 0.3863636363636367,
                "tempo": 120.0
            },
            {
                "start_time": 3.5886363636363634,
                "end_time": 3.7727272727272725,
                "pitch": 40,
                "velocity": 51,
                "duration": 0.18409090909090908,
                "tempo": 120.0
            },
            {
                "start_time": 3.7886363636363636,
                "end_time": 4.372727272727272,
                "pitch": 38,
                "velocity": 51,
                "duration": 0.5840909090909085,
                "tempo": 120.0
            },
            {
                "start_time": 4.388636363636364,
                "end_time": 4.572727272727272,
                "pitch": 36,
                "velocity": 51,
                "duration": 0.18409090909090864,
                "tempo": 120.0
            },
            {
                "start_time": 4.588636363636364,
                "end_time": 5.375,
                "pitch": 35,
                "velocity": 51,
                "duration": 0.7863636363636362,
                "tempo": 120.0
            },
            {
                "start_time": 5.393181818181818,
                "end_time": 5.475,
                "pitch": 35,
                "velocity": 51,
                "duration": 0.08181818181818201,
                "tempo": 120.0
            },
            {
                "start_time": 5.493181818181818,
                "end_time": 5.574999999999999,
                "pitch": 36,
                "velocity": 51,
                "duration": 0.08181818181818112,
                "tempo": 120.0
            },
            {
                "start_time": 5.593181818181818,
                "end_time": 5.777272727272727,
                "pitch": 38,
                "velocity": 51,
                "duration": 0.18409090909090953,
                "tempo": 120.0
            },
            {
                "start_time": 5.793181818181818,
                "end_time": 5.977272727272727,
                "pitch": 38,
                "velocity": 51,
                "duration": 0.18409090909090864,
                "tempo": 120.0
            },
            {
                "start_time": 5.995454545454545,
                "end_time": 6.381818181818182,
                "pitch": 35,
                "velocity": 51,
                "duration": 0.3863636363636367,
                "tempo": 120.0
            },
            {
                "start_time": 6.3977272727272725,
                "end_time": 6.581818181818181,
                "pitch": 31,
                "velocity": 51,
                "duration": 0.18409090909090864,
                "tempo": 120.0
            },
            {
                "start_time": 6.597727272727273,
                "end_time": 6.781818181818181,
                "pitch": 31,
                "velocity": 51,
                "duration": 0.18409090909090864,
                "tempo": 120.0
            },
            {
                "start_time": 6.797727272727273,
                "end_time": 6.9818181818181815,
                "pitch": 38,
                "velocity": 51,
                "duration": 0.18409090909090864,
                "tempo": 120.0
            },
            {
                "start_time": 7.0,
                "end_time": 7.384090909090909,
                "pitch": 36,
                "velocity": 51,
                "duration": 0.3840909090909088,
                "tempo": 120.0
            },
            {
                "start_time": 7.3999999999999995,
                "end_time": 7.584090909090909,
                "pitch": 35,
                "velocity": 51,
                "duration": 0.18409090909090953,
                "tempo": 120.0
            },
            {
                "start_time": 7.6,
                "end_time": 7.784090909090908,
                "pitch": 36,
                "velocity": 51,
                "duration": 0.18409090909090864,
                "tempo": 120.0
            },
            {
                "start_time": 7.802272727272727,
                "end_time": 7.986363636363636,
                "pitch": 38,
                "velocity": 51,
                "duration": 0.18409090909090953,
                "tempo": 120.0
            },
            {
                "start_time": 8.002272727272727,
                "end_time": 8.397727272727272,
                "pitch": 31,
                "velocity": 51,
                "duration": 0.3954545454545446,
                "tempo": 120.0
            },
            {
                "start_time": 8.413636363636364,
                "end_time": 8.597727272727273,
                "pitch": 38,
                "velocity": 51,
                "duration": 0.18409090909090864,
                "tempo": 120.0
            },
            {
                "start_time": 8.61590909090909,
                "end_time": 8.995454545454544,
                "pitch": 36,
                "velocity": 51,
                "duration": 0.37954545454545396,
                "tempo": 120.0
            },
            {
                "start_time": 9.013636363636364,
                "end_time": 9.193181818181818,
                "pitch": 35,
                "velocity": 51,
                "duration": 0.17954545454545467,
                "tempo": 120.0
            },
            {
                "start_time": 9.209090909090909,
                "end_time": 9.35909090909091,
                "pitch": 36,
                "velocity": 51,
                "duration": 0.15000000000000036,
                "tempo": 120.0
            },
            {
                "start_time": 9.377272727272727,
                "end_time": 9.595454545454546,
                "pitch": 38,
                "velocity": 51,
                "duration": 0.2181818181818187,
                "tempo": 120.0
            },
            {
                "start_time": 9.611363636363636,
                "end_time": 9.997727272727273,
                "pitch": 29,
                "velocity": 51,
                "duration": 0.3863636363636367,
                "tempo": 120.0
            },
            {
                "start_time": 10.013636363636364,
                "end_time": 10.197727272727272,
                "pitch": 40,
                "velocity": 51,
                "duration": 0.18409090909090864,
                "tempo": 120.0
            },
            {
                "start_time": 10.21590909090909,
                "end_time": 10.802272727272726,
                "pitch": 38,
                "velocity": 51,
                "duration": 0.586363636363636,
                "tempo": 120.0
            },
            {
                "start_time": 10.820454545454545,
                "end_time": 11.002272727272727,
                "pitch": 36,
                "velocity": 51,
                "duration": 0.18181818181818166,
                "tempo": 120.0
            },
            {
                "start_time": 11.020454545454545,
                "end_time": 11.777272727272727,
                "pitch": 35,
                "velocity": 51,
                "duration": 0.7568181818181827,
                "tempo": 120.0
            },
            {
                "start_time": 11.793181818181818,
                "end_time": 11.906818181818181,
                "pitch": 35,
                "velocity": 51,
                "duration": 0.11363636363636331,
                "tempo": 120.0
            },
            {
                "start_time": 11.924999999999999,
                "end_time": 12.006818181818181,
                "pitch": 36,
                "velocity": 51,
                "duration": 0.08181818181818201,
                "tempo": 120.0
            },
            {
                "start_time": 12.022727272727272,
                "end_time": 12.206818181818182,
                "pitch": 38,
                "velocity": 51,
                "duration": 0.18409090909091042,
                "tempo": 120.0
            },
            {
                "start_time": 12.222727272727273,
                "end_time": 12.409090909090908,
                "pitch": 36,
                "velocity": 51,
                "duration": 0.18636363636363562,
                "tempo": 120.0
            },
            {
                "start_time": 12.424999999999999,
                "end_time": 12.811363636363636,
                "pitch": 35,
                "velocity": 51,
                "duration": 0.3863636363636367,
                "tempo": 120.0
            },
            {
                "start_time": 12.827272727272726,
                "end_time": 13.011363636363635,
                "pitch": 31,
                "velocity": 51,
                "duration": 0.18409090909090864,
                "tempo": 120.0
            },
            {
                "start_time": 13.027272727272727,
                "end_time": 13.211363636363636,
                "pitch": 31,
                "velocity": 51,
                "duration": 0.18409090909090864,
                "tempo": 120.0
            },
            {
                "start_time": 13.227272727272727,
                "end_time": 13.411363636363635,
                "pitch": 38,
                "velocity": 51,
                "duration": 0.18409090909090864,
                "tempo": 120.0
            },
            {
                "start_time": 13.429545454545455,
                "end_time": 13.81590909090909,
                "pitch": 36,
                "velocity": 51,
                "duration": 0.3863636363636349,
                "tempo": 120.0
            },
            {
                "start_time": 13.831818181818182,
                "end_time": 14.01590909090909,
                "pitch": 35,
                "velocity": 51,
                "duration": 0.18409090909090864,
                "tempo": 120.0
            },
            {
                "start_time": 14.034090909090908,
                "end_time": 14.418181818181818,
                "pitch": 36,
                "velocity": 51,
                "duration": 0.3840909090909097,
                "tempo": 120.0
            },
            {
                "start_time": 14.436363636363636,
                "end_time": 14.620454545454544,
                "pitch": 31,
                "velocity": 51,
                "duration": 0.18409090909090864,
                "tempo": 120.0
            },
            {
                "start_time": 14.636363636363635,
                "end_time": 14.822727272727272,
                "pitch": 31,
                "velocity": 51,
                "duration": 0.1863636363636374,
                "tempo": 120.0
            },
            {
                "start_time": 14.838636363636363,
                "end_time": 15.027272727272727,
                "pitch": 38,
                "velocity": 51,
                "duration": 0.18863636363636438,
                "tempo": 120.0
            },
            {
                "start_time": 15.043181818181818,
                "end_time": 15.429545454545455,
                "pitch": 36,
                "velocity": 51,
                "duration": 0.3863636363636367,
                "tempo": 120.0
            },
            {
                "start_time": 15.445454545454545,
                "end_time": 15.625,
                "pitch": 35,
                "velocity": 51,
                "duration": 0.17954545454545467,
                "tempo": 120.0
            },
            {
                "start_time": 15.64090909090909,
                "end_time": 15.825,
                "pitch": 36,
                "velocity": 51,
                "duration": 0.18409090909090864,
                "tempo": 120.0
            },
            {
                "start_time": 15.843181818181817,
                "end_time": 16.027272727272727,
                "pitch": 38,
                "velocity": 51,
                "duration": 0.18409090909091042,
                "tempo": 120.0
            },
            {
                "start_time": 16.043181818181818,
                "end_time": 16.229545454545455,
                "pitch": 29,
                "velocity": 51,
                "duration": 0.1863636363636374,
                "tempo": 120.0
            },
            {
                "start_time": 16.245454545454546,
                "end_time": 16.429545454545455,
                "pitch": 29,
                "velocity": 51,
                "duration": 0.18409090909090864,
                "tempo": 120.0
            },
            {
                "start_time": 16.44772727272727,
                "end_time": 16.629545454545454,
                "pitch": 40,
                "velocity": 51,
                "duration": 0.18181818181818343,
                "tempo": 120.0
            },
            {
                "start_time": 16.647727272727273,
                "end_time": 17.03181818181818,
                "pitch": 38,
                "velocity": 51,
                "duration": 0.38409090909090793,
                "tempo": 120.0
            },
            {
                "start_time": 17.047727272727272,
                "end_time": 17.23181818181818,
                "pitch": 40,
                "velocity": 51,
                "duration": 0.18409090909090864,
                "tempo": 120.0
            },
            {
                "start_time": 17.25,
                "end_time": 17.43181818181818,
                "pitch": 41,
                "velocity": 51,
                "duration": 0.18181818181817988,
                "tempo": 120.0
            },
            {
                "start_time": 17.45,
                "end_time": 17.631818181818183,
                "pitch": 43,
                "velocity": 51,
                "duration": 0.18181818181818343,
                "tempo": 120.0
            },
            {
                "start_time": 17.65,
                "end_time": 18.043181818181818,
                "pitch": 38,
                "velocity": 51,
                "duration": 0.3931818181818194,
                "tempo": 120.0
            },
            {
                "start_time": 18.05909090909091,
                "end_time": 18.211363636363636,
                "pitch": 40,
                "velocity": 51,
                "duration": 0.15227272727272734,
                "tempo": 120.0
            },
            {
                "start_time": 18.65681818181818,
                "end_time": 19.238636363636363,
                "pitch": 38,
                "velocity": 51,
                "duration": 0.581818181818182,
                "tempo": 120.0
            },
            {
                "start_time": 19.254545454545454,
                "end_time": 19.438636363636363,
                "pitch": 31,
                "velocity": 51,
                "duration": 0.18409090909090864,
                "tempo": 120.0
            },
            {
                "start_time": 19.454545454545453,
                "end_time": 19.638636363636362,
                "pitch": 31,
                "velocity": 51,
                "duration": 0.18409090909090864,
                "tempo": 120.0
            },
            {
                "start_time": 19.654545454545453,
                "end_time": 19.83863636363636,
                "pitch": 38,
                "velocity": 51,
                "duration": 0.18409090909090864,
                "tempo": 120.0
            },
            {
                "start_time": 19.854545454545452,
                "end_time": 20.24090909090909,
                "pitch": 36,
                "velocity": 51,
                "duration": 0.3863636363636367,
                "tempo": 120.0
            },
            {
                "start_time": 20.25681818181818,
                "end_time": 20.44090909090909,
                "pitch": 35,
                "velocity": 51,
                "duration": 0.1840909090909122,
                "tempo": 120.0
            },
            {
                "start_time": 20.456818181818182,
                "end_time": 20.64090909090909,
                "pitch": 36,
                "velocity": 51,
                "duration": 0.18409090909090864,
                "tempo": 120.0
            },
            {
                "start_time": 20.65681818181818,
                "end_time": 20.84090909090909,
                "pitch": 38,
                "velocity": 51,
                "duration": 0.18409090909090864,
                "tempo": 120.0
            },
            {
                "start_time": 20.85681818181818,
                "end_time": 21.252272727272725,
                "pitch": 31,
                "velocity": 51,
                "duration": 0.3954545454545446,
                "tempo": 120.0
            },
            {
                "start_time": 21.268181818181816,
                "end_time": 21.452272727272724,
                "pitch": 38,
                "velocity": 51,
                "duration": 0.18409090909090864,
                "tempo": 120.0
            },
            {
                "start_time": 21.470454545454544,
                "end_time": 21.852272727272727,
                "pitch": 36,
                "velocity": 51,
                "duration": 0.3818181818181827,
                "tempo": 120.0
            },
            {
                "start_time": 21.868181818181817,
                "end_time": 22.047727272727272,
                "pitch": 35,
                "velocity": 51,
                "duration": 0.17954545454545467,
                "tempo": 120.0
            },
            {
                "start_time": 22.063636363636363,
                "end_time": 22.21363636363636,
                "pitch": 36,
                "velocity": 51,
                "duration": 0.14999999999999858,
                "tempo": 120.0
            },
            {
                "start_time": 22.23181818181818,
                "end_time": 22.45,
                "pitch": 38,
                "velocity": 51,
                "duration": 0.2181818181818187,
                "tempo": 120.0
            },
            {
                "start_time": 22.46590909090909,
                "end_time": 22.849999999999998,
                "pitch": 29,
                "velocity": 51,
                "duration": 0.38409090909090793,
                "tempo": 120.0
            },
            {
                "start_time": 22.86590909090909,
                "end_time": 23.049999999999997,
                "pitch": 40,
                "velocity": 51,
                "duration": 0.18409090909090864,
                "tempo": 120.0
            },
            {
                "start_time": 23.068181818181817,
                "end_time": 23.652272727272727,
                "pitch": 38,
                "velocity": 51,
                "duration": 0.5840909090909108,
                "tempo": 120.0
            },
            {
                "start_time": 23.668181818181818,
                "end_time": 23.852272727272727,
                "pitch": 36,
                "velocity": 51,
                "duration": 0.18409090909090864,
                "tempo": 120.0
            },
            {
                "start_time": 23.868181818181817,
                "end_time": 24.62272727272727,
                "pitch": 35,
                "velocity": 51,
                "duration": 0.754545454545454,
                "tempo": 120.0
            },
            {
                "start_time": 24.638636363636362,
                "end_time": 24.754545454545454,
                "pitch": 35,
                "velocity": 51,
                "duration": 0.11590909090909207,
                "tempo": 120.0
            },
            {
                "start_time": 24.77272727272727,
                "end_time": 24.854545454545452,
                "pitch": 36,
                "velocity": 51,
                "duration": 0.08181818181818201,
                "tempo": 120.0
            },
            {
                "start_time": 24.87272727272727,
                "end_time": 25.05681818181818,
                "pitch": 38,
                "velocity": 51,
                "duration": 0.18409090909090864,
                "tempo": 120.0
            },
            {
                "start_time": 25.07272727272727,
                "end_time": 25.25681818181818,
                "pitch": 36,
                "velocity": 51,
                "duration": 0.18409090909090864,
                "tempo": 120.0
            },
            {
                "start_time": 25.275,
                "end_time": 25.65681818181818,
                "pitch": 35,
                "velocity": 51,
                "duration": 0.3818181818181827,
                "tempo": 120.0
            },
            {
                "start_time": 25.674999999999997,
                "end_time": 25.85681818181818,
                "pitch": 31,
                "velocity": 51,
                "duration": 0.18181818181818343,
                "tempo": 120.0
            },
            {
                "start_time": 25.875,
                "end_time": 26.05681818181818,
                "pitch": 31,
                "velocity": 51,
                "duration": 0.18181818181817988,
                "tempo": 120.0
            },
            {
                "start_time": 26.075,
                "end_time": 26.259090909090908,
                "pitch": 38,
                "velocity": 51,
                "duration": 0.18409090909090864,
                "tempo": 120.0
            },
            {
                "start_time": 26.275,
                "end_time": 26.661363636363635,
                "pitch": 36,
                "velocity": 51,
                "duration": 0.3863636363636367,
                "tempo": 120.0
            },
            {
                "start_time": 26.677272727272726,
                "end_time": 26.861363636363635,
                "pitch": 35,
                "velocity": 51,
                "duration": 0.18409090909090864,
                "tempo": 120.0
            },
            {
                "start_time": 26.877272727272725,
                "end_time": 27.263636363636362,
                "pitch": 36,
                "velocity": 51,
                "duration": 0.3863636363636367,
                "tempo": 120.0
            },
            {
                "start_time": 27.279545454545453,
                "end_time": 27.468181818181815,
                "pitch": 31,
                "velocity": 51,
                "duration": 0.1886363636363626,
                "tempo": 120.0
            },
            {
                "start_time": 27.48409090909091,
                "end_time": 27.672727272727272,
                "pitch": 31,
                "velocity": 51,
                "duration": 0.1886363636363626,
                "tempo": 120.0
            },
            {
                "start_time": 27.690909090909088,
                "end_time": 27.875,
                "pitch": 38,
                "velocity": 51,
                "duration": 0.1840909090909122,
                "tempo": 120.0
            },
            {
                "start_time": 27.89090909090909,
                "end_time": 28.270454545454545,
                "pitch": 36,
                "velocity": 51,
                "duration": 0.37954545454545396,
                "tempo": 120.0
            },
            {
                "start_time": 28.286363636363635,
                "end_time": 28.46590909090909,
                "pitch": 35,
                "velocity": 51,
                "duration": 0.17954545454545467,
                "tempo": 120.0
            },
            {
                "start_time": 28.48181818181818,
                "end_time": 28.66590909090909,
                "pitch": 36,
                "velocity": 51,
                "duration": 0.18409090909090864,
                "tempo": 120.0
            },
            {
                "start_time": 28.68181818181818,
                "end_time": 28.86590909090909,
                "pitch": 38,
                "velocity": 51,
                "duration": 0.18409090909090864,
                "tempo": 120.0
            },
            {
                "start_time": 28.884090909090908,
                "end_time": 29.068181818181817,
                "pitch": 29,
                "velocity": 51,
                "duration": 0.18409090909090864,
                "tempo": 120.0
            },
            {
                "start_time": 29.084090909090907,
                "end_time": 29.268181818181816,
                "pitch": 29,
                "velocity": 51,
                "duration": 0.18409090909090864,
                "tempo": 120.0
            },
            {
                "start_time": 29.286363636363635,
                "end_time": 29.468181818181815,
                "pitch": 40,
                "velocity": 51,
                "duration": 0.18181818181817988,
                "tempo": 120.0
            },
            {
                "start_time": 29.486363636363635,
                "end_time": 29.868181818181817,
                "pitch": 38,
                "velocity": 51,
                "duration": 0.3818181818181827,
                "tempo": 120.0
            },
            {
                "start_time": 29.886363636363637,
                "end_time": 30.068181818181817,
                "pitch": 40,
                "velocity": 51,
                "duration": 0.18181818181817988,
                "tempo": 120.0
            },
            {
                "start_time": 30.086363636363636,
                "end_time": 30.270454545454545,
                "pitch": 41,
                "velocity": 51,
                "duration": 0.18409090909090864,
                "tempo": 120.0
            },
            {
                "start_time": 30.286363636363635,
                "end_time": 30.470454545454544,
                "pitch": 43,
                "velocity": 51,
                "duration": 0.18409090909090864,
                "tempo": 120.0
            },
            {
                "start_time": 30.488636363636363,
                "end_time": 30.88181818181818,
                "pitch": 38,
                "velocity": 51,
                "duration": 0.39318181818181586,
                "tempo": 120.0
            },
            {
                "start_time": 30.9,
                "end_time": 31.049999999999997,
                "pitch": 40,
                "velocity": 51,
                "duration": 0.14999999999999858,
                "tempo": 120.0
            },
            {
                "start_time": 31.495454545454542,
                "end_time": 32.074999999999996,
                "pitch": 38,
                "velocity": 51,
                "duration": 0.5795454545454533,
                "tempo": 120.0
            },
            {
                "start_time": 32.090909090909086,
                "end_time": 33.08409090909091,
                "pitch": 34,
                "velocity": 51,
                "duration": 0.9931818181818244,
                "tempo": 120.0
            },
            {
                "start_time": 33.1,
                "end_time": 33.279545454545456,
                "pitch": 38,
                "velocity": 51,
                "duration": 0.17954545454545467,
                "tempo": 120.0
            },
            {
                "start_time": 33.29772727272727,
                "end_time": 33.679545454545455,
                "pitch": 43,
                "velocity": 51,
                "duration": 0.3818181818181827,
                "tempo": 120.0
            },
            {
                "start_time": 33.69772727272727,
                "end_time": 34.68181818181818,
                "pitch": 33,
                "velocity": 51,
                "duration": 0.9840909090909093,
                "tempo": 120.0
            },
            {
                "start_time": 34.69772727272727,
                "end_time": 35.08409090909091,
                "pitch": 43,
                "velocity": 51,
                "duration": 0.38636363636364024,
                "tempo": 120.0
            },
            {
                "start_time": 35.1,
                "end_time": 35.28409090909091,
                "pitch": 41,
                "velocity": 51,
                "duration": 0.18409090909090509,
                "tempo": 120.0
            },
            {
                "start_time": 35.3,
                "end_time": 36.29090909090909,
                "pitch": 32,
                "velocity": 51,
                "duration": 0.9909090909090921,
                "tempo": 120.0
            },
            {
                "start_time": 36.30681818181818,
                "end_time": 36.68636363636364,
                "pitch": 45,
                "velocity": 51,
                "duration": 0.3795454545454575,
                "tempo": 120.0
            },
            {
                "start_time": 36.70454545454545,
                "end_time": 36.88863636363636,
                "pitch": 32,
                "velocity": 51,
                "duration": 0.18409090909090509,
                "tempo": 120.0
            },
            {
                "start_time": 36.904545454545456,
                "end_time": 38.49090909090909,
                "pitch": 43,
                "velocity": 51,
                "duration": 1.586363636363636,
                "tempo": 120.0
            },
            {
                "start_time": 38.50909090909091,
                "end_time": 39.502272727272725,
                "pitch": 34,
                "velocity": 51,
                "duration": 0.9931818181818173,
                "tempo": 120.0
            },
            {
                "start_time": 39.518181818181816,
                "end_time": 39.69772727272727,
                "pitch": 41,
                "velocity": 51,
                "duration": 0.17954545454545467,
                "tempo": 120.0
            },
            {
                "start_time": 39.71363636363636,
                "end_time": 39.89772727272727,
                "pitch": 43,
                "velocity": 51,
                "duration": 0.1840909090909122,
                "tempo": 120.0
            },
            {
                "start_time": 39.913636363636364,
                "end_time": 40.09772727272727,
                "pitch": 45,
                "velocity": 51,
                "duration": 0.18409090909090509,
                "tempo": 120.0
            },
            {
                "start_time": 40.11363636363636,
                "end_time": 40.77045454545454,
                "pitch": 33,
                "velocity": 51,
                "duration": 0.6568181818181813,
                "tempo": 120.0
            },
            {
                "start_time": 40.78636363636363,
                "end_time": 41.3,
                "pitch": 33,
                "velocity": 51,
                "duration": 0.5136363636363654,
                "tempo": 120.0
            },
            {
                "start_time": 41.31590909090909,
                "end_time": 41.50454545454545,
                "pitch": 38,
                "velocity": 51,
                "duration": 0.1886363636363626,
                "tempo": 120.0
            },
            {
                "start_time": 41.52272727272727,
                "end_time": 41.711363636363636,
                "pitch": 40,
                "velocity": 51,
                "duration": 0.1886363636363626,
                "tempo": 120.0
            },
            {
                "start_time": 41.72727272727273,
                "end_time": 42.70454545454545,
                "pitch": 32,
                "velocity": 51,
                "duration": 0.9772727272727266,
                "tempo": 120.0
            },
            {
                "start_time": 42.720454545454544,
                "end_time": 43.10454545454545,
                "pitch": 43,
                "velocity": 51,
                "duration": 0.38409090909090793,
                "tempo": 120.0
            },
            {
                "start_time": 43.12272727272727,
                "end_time": 43.304545454545455,
                "pitch": 41,
                "velocity": 51,
                "duration": 0.18181818181818699,
                "tempo": 120.0
            },
            {
                "start_time": 43.32272727272727,
                "end_time": 44.309090909090905,
                "pitch": 31,
                "velocity": 51,
                "duration": 0.9863636363636346,
                "tempo": 120.0
            },
            {
                "start_time": 44.324999999999996,
                "end_time": 44.709090909090904,
                "pitch": 40,
                "velocity": 51,
                "duration": 0.38409090909090793,
                "tempo": 120.0
            }
        ],
        "Trumpet": [
            {
                "start_time": 0.0,
                "end_time": 0.06818181818181818,
                "pitch": 45,
                "velocity": 51,
                "duration": 0.06818181818181818,
                "tempo": 120.0
            },
            {
                "start_time": 0.5840909090909091,
                "end_time": 0.6681818181818181,
                "pitch": 45,
                "velocity": 51,
                "duration": 0.084090909090909,
                "tempo": 120.0
            },
            {
                "start_time": 1.184090909090909,
                "end_time": 1.5681818181818181,
                "pitch": 45,
                "velocity": 51,
                "duration": 0.38409090909090904,
                "tempo": 120.0
            },
            {
                "start_time": 1.584090909090909,
                "end_time": 1.6704545454545454,
                "pitch": 45,
                "velocity": 51,
                "duration": 0.08636363636363642,
                "tempo": 120.0
            },
            {
                "start_time": 2.190909090909091,
                "end_time": 2.2727272727272725,
                "pitch": 45,
                "velocity": 51,
                "duration": 0.08181818181818157,
                "tempo": 120.0
            },
            {
                "start_time": 2.786363636363636,
                "end_time": 3.1704545454545454,
                "pitch": 45,
                "velocity": 51,
                "duration": 0.38409090909090926,
                "tempo": 120.0
            },
            {
                "start_time": 3.186363636363636,
                "end_time": 3.2704545454545455,
                "pitch": 47,
                "velocity": 51,
                "duration": 0.08409090909090944,
                "tempo": 120.0
            },
            {
                "start_time": 3.7886363636363636,
                "end_time": 3.8727272727272726,
                "pitch": 47,
                "velocity": 51,
                "duration": 0.084090909090909,
                "tempo": 120.0
            },
            {
                "start_time": 4.388636363636364,
                "end_time": 4.7727272727272725,
                "pitch": 47,
                "velocity": 51,
                "duration": 0.3840909090909088,
                "tempo": 120.0
            },
            {
                "start_time": 4.788636363636363,
                "end_time": 4.872727272727272,
                "pitch": 47,
                "velocity": 51,
                "duration": 0.084090909090909,
                "tempo": 120.0
            },
            {
                "start_time": 5.393181818181818,
                "end_time": 5.475,
                "pitch": 47,
                "velocity": 51,
                "duration": 0.08181818181818201,
                "tempo": 120.0
            },
            {
                "start_time": 5.995454545454545,
                "end_time": 6.381818181818182,
                "pitch": 47,
                "velocity": 51,
                "duration": 0.3863636363636367,
                "tempo": 120.0
            },
            {
                "start_time": 6.3977272727272725,
                "end_time": 6.4818181818181815,
                "pitch": 45,
                "velocity": 51,
                "duration": 0.084090909090909,
                "tempo": 120.0
            },
            {
                "start_time": 7.0,
                "end_time": 7.081818181818181,
                "pitch": 45,
                "velocity": 51,
                "duration": 0.08181818181818112,
                "tempo": 120.0
            },
            {
                "start_time": 7.6,
                "end_time": 7.986363636363636,
                "pitch": 45,
                "velocity": 51,
                "duration": 0.3863636363636367,
                "tempo": 120.0
            },
            {
                "start_time": 8.002272727272727,
                "end_time": 8.088636363636363,
                "pitch": 45,
                "velocity": 51,
                "duration": 0.08636363636363598,
                "tempo": 120.0
            },
            {
                "start_time": 8.61590909090909,
                "end_time": 8.7,
                "pitch": 45,
                "velocity": 51,
                "duration": 0.084090909090909,
                "tempo": 120.0
            },
            {
                "start_time": 9.209090909090909,
                "end_time": 9.595454545454546,
                "pitch": 45,
                "velocity": 51,
                "duration": 0.3863636363636367,
                "tempo": 120.0
            },
            {
                "start_time": 9.611363636363636,
                "end_time": 9.695454545454545,
                "pitch": 47,
                "velocity": 51,
                "duration": 0.084090909090909,
                "tempo": 120.0
            },
            {
                "start_time": 10.21590909090909,
                "end_time": 10.299999999999999,
                "pitch": 47,
                "velocity": 51,
                "duration": 0.084090909090909,
                "tempo": 120.0
            },
            {
                "start_time": 10.820454545454545,
                "end_time": 11.202272727272726,
                "pitch": 47,
                "velocity": 51,
                "duration": 0.38181818181818095,
                "tempo": 120.0
            },
            {
                "start_time": 11.220454545454546,
                "end_time": 11.304545454545455,
                "pitch": 47,
                "velocity": 51,
                "duration": 0.084090909090909,
                "tempo": 120.0
            },
            {
                "start_time": 11.827272727272726,
                "end_time": 11.906818181818181,
                "pitch": 47,
                "velocity": 51,
                "duration": 0.07954545454545503,
                "tempo": 120.0
            },
            {
                "start_time": 12.424999999999999,
                "end_time": 12.811363636363636,
                "pitch": 47,
                "velocity": 51,
                "duration": 0.3863636363636367,
                "tempo": 120.0
            },
            {
                "start_time": 12.827272727272726,
                "end_time": 12.911363636363635,
                "pitch": 45,
                "velocity": 51,
                "duration": 0.084090909090909,
                "tempo": 120.0
            },
            {
                "start_time": 13.429545454545455,
                "end_time": 13.81590909090909,
                "pitch": 45,
                "velocity": 51,
                "duration": 0.3863636363636349,
                "tempo": 120.0
            },
            {
                "start_time": 13.831818181818182,
                "end_time": 14.01590909090909,
                "pitch": 45,
                "velocity": 51,
                "duration": 0.18409090909090864,
                "tempo": 120.0
            },
            {
                "start_time": 14.034090909090908,
                "end_time": 14.218181818181817,
                "pitch": 45,
                "velocity": 51,
                "duration": 0.18409090909090864,
                "tempo": 120.0
            },
            {
                "start_time": 14.234090909090908,
                "end_time": 14.620454545454544,
                "pitch": 45,
                "velocity": 51,
                "duration": 0.3863636363636367,
                "tempo": 120.0
            },
            {
                "start_time": 14.636363636363635,
                "end_time": 14.822727272727272,
                "pitch": 45,
                "velocity": 51,
                "duration": 0.1863636363636374,
                "tempo": 120.0
            },
            {
                "start_time": 14.838636363636363,
                "end_time": 15.23181818181818,
                "pitch": 45,
                "velocity": 51,
                "duration": 0.39318181818181763,
                "tempo": 120.0
            },
            {
                "start_time": 15.25,
                "end_time": 15.593181818181817,
                "pitch": 45,
                "velocity": 51,
                "duration": 0.3431818181818169,
                "tempo": 120.0
            },
            {
                "start_time": 15.609090909090908,
                "end_time": 16.027272727272727,
                "pitch": 45,
                "velocity": 51,
                "duration": 0.41818181818181976,
                "tempo": 120.0
            },
            {
                "start_time": 16.043181818181818,
                "end_time": 16.095454545454544,
                "pitch": 47,
                "velocity": 51,
                "duration": 0.052272727272725916,
                "tempo": 120.0
            },
            {
                "start_time": 16.647727272727273,
                "end_time": 16.69772727272727,
                "pitch": 47,
                "velocity": 51,
                "duration": 0.04999999999999716,
                "tempo": 120.0
            },
            {
                "start_time": 17.25,
                "end_time": 17.43181818181818,
                "pitch": 47,
                "velocity": 51,
                "duration": 0.18181818181817988,
                "tempo": 120.0
            },
            {
                "start_time": 17.45,
                "end_time": 17.631818181818183,
                "pitch": 47,
                "velocity": 51,
                "duration": 0.18181818181818343,
                "tempo": 120.0
            },
            {
                "start_time": 17.65,
                "end_time": 18.043181818181818,
                "pitch": 47,
                "velocity": 51,
                "duration": 0.3931818181818194,
                "tempo": 120.0
            },
            {
                "start_time": 18.05909090909091,
                "end_time": 18.111363636363635,
                "pitch": 47,
                "velocity": 51,
                "duration": 0.052272727272725916,
                "tempo": 120.0
            },
            {
                "start_time": 18.65681818181818,
                "end_time": 19.238636363636363,
                "pitch": 47,
                "velocity": 51,
                "duration": 0.581818181818182,
                "tempo": 120.0
            },
            {
                "start_time": 19.254545454545454,
                "end_time": 19.33863636363636,
                "pitch": 45,
                "velocity": 51,
                "duration": 0.08409090909090722,
                "tempo": 120.0
            },
            {
                "start_time": 19.854545454545452,
                "end_time": 19.938636363636363,
                "pitch": 45,
                "velocity": 51,
                "duration": 0.08409090909091077,
                "tempo": 120.0
            },
            {
                "start_time": 20.456818181818182,
                "end_time": 20.84090909090909,
                "pitch": 45,
                "velocity": 51,
                "duration": 0.38409090909090793,
                "tempo": 120.0
            },
            {
                "start_time": 20.85681818181818,
                "end_time": 20.943181818181817,
                "pitch": 45,
                "velocity": 51,
                "duration": 0.08636363636363598,
                "tempo": 120.0
            },
            {
                "start_time": 21.470454545454544,
                "end_time": 21.554545454545455,
                "pitch": 45,
                "velocity": 51,
                "duration": 0.08409090909091077,
                "tempo": 120.0
            },
            {
                "start_time": 22.063636363636363,
                "end_time": 22.45,
                "pitch": 45,
                "velocity": 51,
                "duration": 0.3863636363636367,
                "tempo": 120.0
            },
            {
                "start_time": 22.46590909090909,
                "end_time": 22.549999999999997,
                "pitch": 47,
                "velocity": 51,
                "duration": 0.08409090909090722,
                "tempo": 120.0
            },
            {
                "start_time": 23.068181818181817,
                "end_time": 23.152272727272727,
                "pitch": 47,
                "velocity": 51,
                "duration": 0.08409090909091077,
                "tempo": 120.0
            },
            {
                "start_time": 23.668181818181818,
                "end_time": 24.052272727272726,
                "pitch": 47,
                "velocity": 51,
                "duration": 0.38409090909090793,
                "tempo": 120.0
            },
            {
                "start_time": 24.068181818181817,
                "end_time": 24.152272727272727,
                "pitch": 47,
                "velocity": 51,
                "duration": 0.08409090909091077,
                "tempo": 120.0
            },
            {
                "start_time": 24.672727272727272,
                "end_time": 24.754545454545454,
                "pitch": 47,
                "velocity": 51,
                "duration": 0.08181818181818201,
                "tempo": 120.0
            },
            {
                "start_time": 25.275,
                "end_time": 25.65681818181818,
                "pitch": 47,
                "velocity": 51,
                "duration": 0.3818181818181827,
                "tempo": 120.0
            },
            {
                "start_time": 25.674999999999997,
                "end_time": 25.75681818181818,
                "pitch": 45,
                "velocity": 51,
                "duration": 0.08181818181818201,
                "tempo": 120.0
            },
            {
                "start_time": 26.275,
                "end_time": 26.661363636363635,
                "pitch": 45,
                "velocity": 51,
                "duration": 0.3863636363636367,
                "tempo": 120.0
            },
            {
                "start_time": 26.677272727272726,
                "end_time": 26.861363636363635,
                "pitch": 45,
                "velocity": 51,
                "duration": 0.18409090909090864,
                "tempo": 120.0
            },
            {
                "start_time": 26.877272727272725,
                "end_time": 27.061363636363634,
                "pitch": 45,
                "velocity": 51,
                "duration": 0.18409090909090864,
                "tempo": 120.0
            },
            {
                "start_time": 27.079545454545453,
                "end_time": 27.468181818181815,
                "pitch": 45,
                "velocity": 51,
                "duration": 0.3886363636363619,
                "tempo": 120.0
            },
            {
                "start_time": 27.48409090909091,
                "end_time": 27.672727272727272,
                "pitch": 45,
                "velocity": 51,
                "duration": 0.1886363636363626,
                "tempo": 120.0
            },
            {
                "start_time": 27.690909090909088,
                "end_time": 28.075,
                "pitch": 45,
                "velocity": 51,
                "duration": 0.3840909090909115,
                "tempo": 120.0
            },
            {
                "start_time": 28.09090909090909,
                "end_time": 28.43409090909091,
                "pitch": 45,
                "velocity": 51,
                "duration": 0.3431818181818187,
                "tempo": 120.0
            },
            {
                "start_time": 28.45,
                "end_time": 28.86590909090909,
                "pitch": 45,
                "velocity": 51,
                "duration": 0.41590909090908923,
                "tempo": 120.0
            },
            {
                "start_time": 28.884090909090908,
                "end_time": 28.93409090909091,
                "pitch": 47,
                "velocity": 51,
                "duration": 0.05000000000000071,
                "tempo": 120.0
            },
            {
                "start_time": 29.486363636363635,
                "end_time": 29.536363636363635,
                "pitch": 47,
                "velocity": 51,
                "duration": 0.05000000000000071,
                "tempo": 120.0
            },
            {
                "start_time": 30.086363636363636,
                "end_time": 30.270454545454545,
                "pitch": 47,
                "velocity": 51,
                "duration": 0.18409090909090864,
                "tempo": 120.0
            },
            {
                "start_time": 30.286363636363635,
                "end_time": 30.470454545454544,
                "pitch": 47,
                "velocity": 51,
                "duration": 0.18409090909090864,
                "tempo": 120.0
            },
            {
                "start_time": 30.488636363636363,
                "end_time": 30.88181818181818,
                "pitch": 47,
                "velocity": 51,
                "duration": 0.39318181818181586,
                "tempo": 120.0
            },
            {
                "start_time": 30.9,
                "end_time": 30.95,
                "pitch": 47,
                "velocity": 51,
                "duration": 0.05000000000000071,
                "tempo": 120.0
            },
            {
                "start_time": 31.495454545454542,
                "end_time": 32.074999999999996,
                "pitch": 47,
                "velocity": 51,
                "duration": 0.5795454545454533,
                "tempo": 120.0
            },
            {
                "start_time": 32.090909090909086,
                "end_time": 32.275,
                "pitch": 62,
                "velocity": 51,
                "duration": 0.1840909090909122,
                "tempo": 120.0
            },
            {
                "start_time": 32.293181818181814,
                "end_time": 32.47727272727273,
                "pitch": 62,
                "velocity": 51,
                "duration": 0.1840909090909122,
                "tempo": 120.0
            },
            {
                "start_time": 32.49318181818182,
                "end_time": 32.68181818181818,
                "pitch": 62,
                "velocity": 51,
                "duration": 0.1886363636363626,
                "tempo": 120.0
            },
            {
                "start_time": 32.699999999999996,
                "end_time": 32.888636363636365,
                "pitch": 62,
                "velocity": 51,
                "duration": 0.1886363636363697,
                "tempo": 120.0
            },
            {
                "start_time": 32.904545454545456,
                "end_time": 33.08409090909091,
                "pitch": 62,
                "velocity": 51,
                "duration": 0.17954545454545467,
                "tempo": 120.0
            },
            {
                "start_time": 33.1,
                "end_time": 33.279545454545456,
                "pitch": 62,
                "velocity": 51,
                "duration": 0.17954545454545467,
                "tempo": 120.0
            },
            {
                "start_time": 33.29772727272727,
                "end_time": 33.47954545454545,
                "pitch": 62,
                "velocity": 51,
                "duration": 0.18181818181817988,
                "tempo": 120.0
            },
            {
                "start_time": 33.49772727272727,
                "end_time": 33.679545454545455,
                "pitch": 62,
                "velocity": 51,
                "duration": 0.18181818181818699,
                "tempo": 120.0
            },
            {
                "start_time": 33.69772727272727,
                "end_time": 33.87954545454545,
                "pitch": 62,
                "velocity": 51,
                "duration": 0.18181818181817988,
                "tempo": 120.0
            },
            {
                "start_time": 33.89772727272727,
                "end_time": 34.07954545454545,
                "pitch": 62,
                "velocity": 51,
                "duration": 0.18181818181817988,
                "tempo": 120.0
            },
            {
                "start_time": 34.09772727272727,
                "end_time": 34.279545454545456,
                "pitch": 62,
                "velocity": 51,
                "duration": 0.18181818181818699,
                "tempo": 120.0
            },
            {
                "start_time": 34.29772727272727,
                "end_time": 34.47954545454545,
                "pitch": 62,
                "velocity": 51,
                "duration": 0.18181818181817988,
                "tempo": 120.0
            },
            {
                "start_time": 34.49772727272727,
                "end_time": 34.68181818181818,
                "pitch": 62,
                "velocity": 51,
                "duration": 0.1840909090909122,
                "tempo": 120.0
            },
            {
                "start_time": 34.69772727272727,
                "end_time": 34.88409090909091,
                "pitch": 62,
                "velocity": 51,
                "duration": 0.1863636363636374,
                "tempo": 120.0
            },
            {
                "start_time": 34.9,
                "end_time": 35.08409090909091,
                "pitch": 62,
                "velocity": 51,
                "duration": 0.1840909090909122,
                "tempo": 120.0
            },
            {
                "start_time": 35.1,
                "end_time": 35.28409090909091,
                "pitch": 62,
                "velocity": 51,
                "duration": 0.18409090909090509,
                "tempo": 120.0
            },
            {
                "start_time": 35.3,
                "end_time": 35.48409090909091,
                "pitch": 64,
                "velocity": 51,
                "duration": 0.1840909090909122,
                "tempo": 120.0
            },
            {
                "start_time": 35.5,
                "end_time": 35.684090909090905,
                "pitch": 64,
                "velocity": 51,
                "duration": 0.18409090909090509,
                "tempo": 120.0
            },
            {
                "start_time": 35.699999999999996,
                "end_time": 35.888636363636365,
                "pitch": 64,
                "velocity": 51,
                "duration": 0.1886363636363697,
                "tempo": 120.0
            },
            {
                "start_time": 35.904545454545456,
                "end_time": 36.09318181818182,
                "pitch": 64,
                "velocity": 51,
                "duration": 0.1886363636363626,
                "tempo": 120.0
            },
            {
                "start_time": 36.111363636363635,
                "end_time": 36.29090909090909,
                "pitch": 64,
                "velocity": 51,
                "duration": 0.17954545454545467,
                "tempo": 120.0
            },
            {
                "start_time": 36.30681818181818,
                "end_time": 36.486363636363635,
                "pitch": 64,
                "velocity": 51,
                "duration": 0.17954545454545467,
                "tempo": 120.0
            },
            {
                "start_time": 36.502272727272725,
                "end_time": 36.68636363636364,
                "pitch": 64,
                "velocity": 51,
                "duration": 0.1840909090909122,
                "tempo": 120.0
            },
            {
                "start_time": 36.70454545454545,
                "end_time": 36.88863636363636,
                "pitch": 64,
                "velocity": 51,
                "duration": 0.18409090909090509,
                "tempo": 120.0
            },
            {
                "start_time": 36.904545454545456,
                "end_time": 37.09318181818182,
                "pitch": 62,
                "velocity": 51,
                "duration": 0.1886363636363626,
                "tempo": 120.0
            },
            {
                "start_time": 37.111363636363635,
                "end_time": 37.3,
                "pitch": 62,
                "velocity": 51,
                "duration": 0.1886363636363626,
                "tempo": 120.0
            },
            {
                "start_time": 37.31590909090909,
                "end_time": 37.49545454545454,
                "pitch": 62,
                "velocity": 51,
                "duration": 0.17954545454545467,
                "tempo": 120.0
            },
            {
                "start_time": 37.51136363636363,
                "end_time": 37.69090909090909,
                "pitch": 62,
                "velocity": 51,
                "duration": 0.17954545454545467,
                "tempo": 120.0
            },
            {
                "start_time": 37.70909090909091,
                "end_time": 37.89090909090909,
                "pitch": 62,
                "velocity": 51,
                "duration": 0.18181818181817988,
                "tempo": 120.0
            },
            {
                "start_time": 37.90909090909091,
                "end_time": 38.090909090909086,
                "pitch": 62,
                "velocity": 51,
                "duration": 0.18181818181817988,
                "tempo": 120.0
            },
            {
                "start_time": 38.10909090909091,
                "end_time": 38.29090909090909,
                "pitch": 62,
                "velocity": 51,
                "duration": 0.18181818181817988,
                "tempo": 120.0
            },
            {
                "start_time": 38.309090909090905,
                "end_time": 38.49090909090909,
                "pitch": 62,
                "velocity": 51,
                "duration": 0.18181818181818699,
                "tempo": 120.0
            },
            {
                "start_time": 38.50909090909091,
                "end_time": 38.69318181818181,
                "pitch": 62,
                "velocity": 51,
                "duration": 0.18409090909090509,
                "tempo": 120.0
            },
            {
                "start_time": 38.709090909090904,
                "end_time": 38.893181818181816,
                "pitch": 62,
                "velocity": 51,
                "duration": 0.1840909090909122,
                "tempo": 120.0
            },
            {
                "start_time": 38.91136363636363,
                "end_time": 39.1,
                "pitch": 62,
                "velocity": 51,
                "duration": 0.1886363636363697,
                "tempo": 120.0
            },
            {
                "start_time": 39.11590909090909,
                "end_time": 39.304545454545455,
                "pitch": 62,
                "velocity": 51,
                "duration": 0.1886363636363626,
                "tempo": 120.0
            },
            {
                "start_time": 39.320454545454545,
                "end_time": 39.502272727272725,
                "pitch": 62,
                "velocity": 51,
                "duration": 0.18181818181817988,
                "tempo": 120.0
            },
            {
                "start_time": 39.518181818181816,
                "end_time": 39.69772727272727,
                "pitch": 62,
                "velocity": 51,
                "duration": 0.17954545454545467,
                "tempo": 120.0
            },
            {
                "start_time": 39.71363636363636,
                "end_time": 39.89772727272727,
                "pitch": 62,
                "velocity": 51,
                "duration": 0.1840909090909122,
                "tempo": 120.0
            },
            {
                "start_time": 39.913636363636364,
                "end_time": 40.09772727272727,
                "pitch": 62,
                "velocity": 51,
                "duration": 0.18409090909090509,
                "tempo": 120.0
            },
            {
                "start_time": 40.11363636363636,
                "end_time": 40.30227272727272,
                "pitch": 62,
                "velocity": 51,
                "duration": 0.1886363636363626,
                "tempo": 120.0
            },
            {
                "start_time": 40.31818181818181,
                "end_time": 40.50681818181818,
                "pitch": 62,
                "velocity": 51,
                "duration": 0.1886363636363697,
                "tempo": 120.0
            },
            {
                "start_time": 40.525,
                "end_time": 40.70454545454545,
                "pitch": 62,
                "velocity": 51,
                "duration": 0.17954545454545467,
                "tempo": 120.0
            },
            {
                "start_time": 40.720454545454544,
                "end_time": 40.9,
                "pitch": 62,
                "velocity": 51,
                "duration": 0.17954545454545467,
                "tempo": 120.0
            },
            {
                "start_time": 40.91590909090909,
                "end_time": 41.1,
                "pitch": 62,
                "velocity": 51,
                "duration": 0.1840909090909122,
                "tempo": 120.0
            },
            {
                "start_time": 41.11590909090909,
                "end_time": 41.3,
                "pitch": 62,
                "velocity": 51,
                "duration": 0.18409090909090509,
                "tempo": 120.0
            },
            {
                "start_time": 41.31590909090909,
                "end_time": 41.50454545454545,
                "pitch": 62,
                "velocity": 51,
                "duration": 0.1886363636363626,
                "tempo": 120.0
            },
            {
                "start_time": 41.52272727272727,
                "end_time": 41.711363636363636,
                "pitch": 62,
                "velocity": 51,
                "duration": 0.1886363636363626,
                "tempo": 120.0
            },
            {
                "start_time": 41.72727272727273,
                "end_time": 41.90681818181818,
                "pitch": 64,
                "velocity": 51,
                "duration": 0.17954545454545467,
                "tempo": 120.0
            },
            {
                "start_time": 41.92272727272727,
                "end_time": 42.070454545454545,
                "pitch": 64,
                "velocity": 51,
                "duration": 0.14772727272727337,
                "tempo": 120.0
            },
            {
                "start_time": 42.086363636363636,
                "end_time": 42.30227272727272,
                "pitch": 64,
                "velocity": 51,
                "duration": 0.2159090909090864,
                "tempo": 120.0
            },
            {
                "start_time": 42.320454545454545,
                "end_time": 42.502272727272725,
                "pitch": 64,
                "velocity": 51,
                "duration": 0.18181818181817988,
                "tempo": 120.0
            },
            {
                "start_time": 42.52045454545454,
                "end_time": 42.70454545454545,
                "pitch": 64,
                "velocity": 51,
                "duration": 0.1840909090909122,
                "tempo": 120.0
            },
            {
                "start_time": 42.720454545454544,
                "end_time": 42.90454545454545,
                "pitch": 64,
                "velocity": 51,
                "duration": 0.18409090909090509,
                "tempo": 120.0
            },
            {
                "start_time": 42.92272727272727,
                "end_time": 43.07272727272727,
                "pitch": 64,
                "velocity": 51,
                "duration": 0.14999999999999858,
                "tempo": 120.0
            },
            {
                "start_time": 43.08863636363636,
                "end_time": 43.304545454545455,
                "pitch": 64,
                "velocity": 51,
                "duration": 0.2159090909090935,
                "tempo": 120.0
            },
            {
                "start_time": 43.32272727272727,
                "end_time": 43.51136363636363,
                "pitch": 62,
                "velocity": 51,
                "duration": 0.1886363636363626,
                "tempo": 120.0
            },
            {
                "start_time": 43.527272727272724,
                "end_time": 43.715909090909086,
                "pitch": 62,
                "velocity": 51,
                "duration": 0.1886363636363626,
                "tempo": 120.0
            },
            {
                "start_time": 43.73181818181818,
                "end_time": 43.913636363636364,
                "pitch": 62,
                "velocity": 51,
                "duration": 0.18181818181818699,
                "tempo": 120.0
            },
            {
                "start_time": 43.929545454545455,
                "end_time": 44.10909090909091,
                "pitch": 62,
                "velocity": 51,
                "duration": 0.17954545454545467,
                "tempo": 120.0
            },
            {
                "start_time": 44.125,
                "end_time": 44.309090909090905,
                "pitch": 62,
                "velocity": 51,
                "duration": 0.18409090909090509,
                "tempo": 120.0
            },
            {
                "start_time": 44.324999999999996,
                "end_time": 44.50909090909091,
                "pitch": 62,
                "velocity": 51,
                "duration": 0.1840909090909122,
                "tempo": 120.0
            },
            {
                "start_time": 44.525,
                "end_time": 44.709090909090904,
                "pitch": 62,
                "velocity": 51,
                "duration": 0.18409090909090509,
                "tempo": 120.0
            },
            {
                "start_time": 44.72727272727273,
                "end_time": 44.777272727272724,
                "pitch": 62,
                "velocity": 51,
                "duration": 0.04999999999999716,
                "tempo": 120.0
            }
        ]
    }
}