{
    "track_id": "Maze Hunter 3-D (FM) - 01 - Title Screen",
    "mood": "happy",
    "instruments": {
        "Vibraphone": [
            {
                "start_time": 0.13636363636363635,
                "end_time": 0.20227272727272727,
                "pitch": 79,
                "velocity": 51,
                "duration": 0.06590909090909092,
                "tempo": 120.0
            },
            {
                "start_time": 0.22045454545454543,
                "end_time": 0.2863636363636364,
                "pitch": 72,
                "velocity": 51,
                "duration": 0.06590909090909094,
                "tempo": 120.0
            },
            {
                "start_time": 0.3045454545454545,
                "end_time": 0.36818181818181817,
                "pitch": 86,
                "velocity": 51,
                "duration": 0.06363636363636366,
                "tempo": 120.0
            },
            {
                "start_time": 0.38636363636363635,
                "end_time": 0.44999999999999996,
                "pitch": 79,
                "velocity": 51,
                "duration": 0.0636363636363636,
                "tempo": 120.0
            },
            {
                "start_time": 0.4659090909090909,
                "end_time": 0.5318181818181817,
                "pitch": 72,
                "velocity": 51,
                "duration": 0.06590909090909086,
                "tempo": 120.0
            },
            {
                "start_time": 0.5477272727272727,
                "end_time": 0.6113636363636363,
                "pitch": 86,
                "velocity": 51,
                "duration": 0.0636363636363636,
                "tempo": 120.0
            },
            {
                "start_time": 0.6295454545454545,
                "end_time": 0.6954545454545454,
                "pitch": 79,
                "velocity": 51,
                "duration": 0.06590909090909092,
                "tempo": 120.0
            },
            {
                "start_time": 0.7113636363636363,
                "end_time": 0.7795454545454545,
                "pitch": 72,
                "velocity": 51,
                "duration": 0.06818181818181823,
                "tempo": 120.0
            },
            {
                "start_time": 0.7954545454545454,
                "end_time": 0.8613636363636363,
                "pitch": 86,
                "velocity": 51,
                "duration": 0.06590909090909092,
                "tempo": 120.0
            },
            {
                "start_time": 0.8795454545454545,
                "end_time": 0.9454545454545454,
                "pitch": 79,
                "velocity": 51,
                "duration": 0.06590909090909092,
                "tempo": 120.0
            },
            {
                "start_time": 0.9636363636363636,
                "end_time": 1.0295454545454545,
                "pitch": 72,
                "velocity": 51,
                "duration": 0.06590909090909092,
                "tempo": 120.0
            },
            {
                "start_time": 1.0454545454545454,
                "end_time": 1.1136363636363635,
                "pitch": 86,
                "velocity": 51,
                "duration": 0.06818181818181812,
                "tempo": 120.0
            },
            {
                "start_time": 1.1295454545454544,
                "end_time": 1.1977272727272728,
                "pitch": 79,
                "velocity": 51,
                "duration": 0.06818181818181834,
                "tempo": 120.0
            },
            {
                "start_time": 1.2136363636363636,
                "end_time": 1.2818181818181817,
                "pitch": 72,
                "velocity": 51,
                "duration": 0.06818181818181812,
                "tempo": 120.0
            },
            {
                "start_time": 1.2977272727272726,
                "end_time": 1.3659090909090907,
                "pitch": 79,
                "velocity": 51,
                "duration": 0.06818181818181812,
                "tempo": 120.0
            },
            {
                "start_time": 1.384090909090909,
                "end_time": 1.4522727272727272,
                "pitch": 86,
                "velocity": 51,
                "duration": 0.06818181818181812,
                "tempo": 120.0
            },
            {
                "start_time": 1.4704545454545455,
                "end_time": 1.5386363636363636,
                "pitch": 79,
                "velocity": 51,
                "duration": 0.06818181818181812,
                "tempo": 120.0
            },
            {
                "start_time": 1.5545454545454545,
                "end_time": 1.625,
                "pitch": 72,
                "velocity": 51,
                "duration": 0.07045454545454555,
                "tempo": 120.0
            },
            {
                "start_time": 1.6409090909090909,
                "end_time": 1.709090909090909,
                "pitch": 86,
                "velocity": 51,
                "duration": 0.06818181818181812,
                "tempo": 120.0
            },
            {
                "start_time": 1.7249999999999999,
                "end_time": 1.793181818181818,
                "pitch": 79,
                "velocity": 51,
                "duration": 0.06818181818181812,
                "tempo": 120.0
            },
            {
                "start_time": 1.809090909090909,
                "end_time": 1.8772727272727272,
                "pitch": 72,
                "velocity": 51,
                "duration": 0.06818181818181812,
                "tempo": 120.0
            },
            {
                "start_time": 1.893181818181818,
                "end_time": 1.9613636363636362,
                "pitch": 86,
                "velocity": 51,
                "duration": 0.06818181818181812,
                "tempo": 120.0
            },
            {
                "start_time": 1.977272727272727,
                "end_time": 2.043181818181818,
                "pitch": 79,
                "velocity": 51,
                "duration": 0.06590909090909092,
                "tempo": 120.0
            },
            {
                "start_time": 2.061363636363636,
                "end_time": 2.127272727272727,
                "pitch": 72,
                "velocity": 51,
                "duration": 0.06590909090909092,
                "tempo": 120.0
            },
            {
                "start_time": 2.1454545454545455,
                "end_time": 2.2113636363636364,
                "pitch": 86,
                "velocity": 51,
                "duration": 0.06590909090909092,
                "tempo": 120.0
            },
            {
                "start_time": 2.227272727272727,
                "end_time": 2.2954545454545454,
                "pitch": 79,
                "velocity": 51,
                "duration": 0.06818181818181834,
                "tempo": 120.0
            },
            {
                "start_time": 2.311363636363636,
                "end_time": 2.3795454545454544,
                "pitch": 72,
                "velocity": 51,
                "duration": 0.06818181818181834,
                "tempo": 120.0
            },
            {
                "start_time": 2.3977272727272725,
                "end_time": 2.465909090909091,
                "pitch": 86,
                "velocity": 51,
                "duration": 0.06818181818181834,
                "tempo": 120.0
            },
            {
                "start_time": 2.484090909090909,
                "end_time": 2.5522727272727272,
                "pitch": 79,
                "velocity": 51,
                "duration": 0.06818181818181834,
                "tempo": 120.0
            },
            {
                "start_time": 2.5704545454545453,
                "end_time": 2.6386363636363637,
                "pitch": 72,
                "velocity": 51,
                "duration": 0.06818181818181834,
                "tempo": 120.0
            },
            {
                "start_time": 2.6568181818181817,
                "end_time": 2.7227272727272727,
                "pitch": 79,
                "velocity": 51,
                "duration": 0.06590909090909092,
                "tempo": 120.0
            },
            {
                "start_time": 2.7409090909090907,
                "end_time": 2.8068181818181817,
                "pitch": 86,
                "velocity": 51,
                "duration": 0.06590909090909092,
                "tempo": 120.0
            },
            {
                "start_time": 2.8227272727272728,
                "end_time": 2.8909090909090907,
                "pitch": 79,
                "velocity": 51,
                "duration": 0.0681818181818179,
                "tempo": 120.0
            },
            {
                "start_time": 2.9068181818181817,
                "end_time": 2.9749999999999996,
                "pitch": 72,
                "velocity": 51,
                "duration": 0.0681818181818179,
                "tempo": 120.0
            },
            {
                "start_time": 2.9909090909090907,
                "end_time": 3.0749999999999997,
                "pitch": 86,
                "velocity": 51,
                "duration": 0.084090909090909,
                "tempo": 120.0
            },
            {
                "start_time": 3.090909090909091,
                "end_time": 3.1590909090909087,
                "pitch": 79,
                "velocity": 51,
                "duration": 0.0681818181818179,
                "tempo": 120.0
            },
            {
                "start_time": 3.175,
                "end_time": 3.243181818181818,
                "pitch": 72,
                "velocity": 51,
                "duration": 0.06818181818181834,
                "tempo": 120.0
            },
            {
                "start_time": 3.259090909090909,
                "end_time": 3.3249999999999997,
                "pitch": 86,
                "velocity": 51,
                "duration": 0.06590909090909092,
                "tempo": 120.0
            },
            {
                "start_time": 3.343181818181818,
                "end_time": 3.4136363636363636,
                "pitch": 79,
                "velocity": 51,
                "duration": 0.07045454545454577,
                "tempo": 120.0
            },
            {
                "start_time": 3.4318181818181817,
                "end_time": 3.502272727272727,
                "pitch": 72,
                "velocity": 51,
                "duration": 0.07045454545454533,
                "tempo": 120.0
            },
            {
                "start_time": 3.5204545454545455,
                "end_time": 3.590909090909091,
                "pitch": 86,
                "velocity": 51,
                "duration": 0.07045454545454533,
                "tempo": 120.0
            },
            {
                "start_time": 3.609090909090909,
                "end_time": 3.6795454545454542,
                "pitch": 79,
                "velocity": 51,
                "duration": 0.07045454545454533,
                "tempo": 120.0
            },
            {
                "start_time": 3.6977272727272728,
                "end_time": 3.7636363636363637,
                "pitch": 72,
                "velocity": 51,
                "duration": 0.06590909090909092,
                "tempo": 120.0
            },
            {
                "start_time": 3.7818181818181817,
                "end_time": 3.8477272727272727,
                "pitch": 86,
                "velocity": 51,
                "duration": 0.06590909090909092,
                "tempo": 120.0
            },
            {
                "start_time": 3.8636363636363633,
                "end_time": 3.9318181818181817,
                "pitch": 79,
                "velocity": 51,
                "duration": 0.06818181818181834,
                "tempo": 120.0
            },
            {
                "start_time": 3.9477272727272728,
                "end_time": 4.015909090909091,
                "pitch": 72,
                "velocity": 51,
                "duration": 0.0681818181818179,
                "tempo": 120.0
            },
            {
                "start_time": 4.031818181818181,
                "end_time": 4.1,
                "pitch": 79,
                "velocity": 51,
                "duration": 0.06818181818181834,
                "tempo": 120.0
            },
            {
                "start_time": 4.118181818181818,
                "end_time": 4.1863636363636365,
                "pitch": 86,
                "velocity": 51,
                "duration": 0.06818181818181834,
                "tempo": 120.0
            },
            {
                "start_time": 4.204545454545454,
                "end_time": 4.2727272727272725,
                "pitch": 79,
                "velocity": 51,
                "duration": 0.06818181818181834,
                "tempo": 120.0
            },
            {
                "start_time": 4.290909090909091,
                "end_time": 4.3590909090909085,
                "pitch": 72,
                "velocity": 51,
                "duration": 0.06818181818181746,
                "tempo": 120.0
            },
            {
                "start_time": 4.375,
                "end_time": 4.443181818181818,
                "pitch": 86,
                "velocity": 51,
                "duration": 0.06818181818181834,
                "tempo": 120.0
            },
            {
                "start_time": 4.459090909090909,
                "end_time": 4.527272727272727,
                "pitch": 79,
                "velocity": 51,
                "duration": 0.06818181818181834,
                "tempo": 120.0
            },
            {
                "start_time": 4.543181818181818,
                "end_time": 4.611363636363636,
                "pitch": 72,
                "velocity": 51,
                "duration": 0.06818181818181834,
                "tempo": 120.0
            },
            {
                "start_time": 4.627272727272727,
                "end_time": 4.695454545454545,
                "pitch": 86,
                "velocity": 51,
                "duration": 0.06818181818181834,
                "tempo": 120.0
            },
            {
                "start_time": 4.711363636363636,
                "end_time": 4.777272727272727,
                "pitch": 79,
                "velocity": 51,
                "duration": 0.06590909090909136,
                "tempo": 120.0
            },
            {
                "start_time": 4.795454545454545,
                "end_time": 4.861363636363636,
                "pitch": 72,
                "velocity": 51,
                "duration": 0.06590909090909136,
                "tempo": 120.0
            },
            {
                "start_time": 4.879545454545454,
                "end_time": 4.945454545454545,
                "pitch": 86,
                "velocity": 51,
                "duration": 0.06590909090909136,
                "tempo": 120.0
            },
            {
                "start_time": 4.961363636363636,
                "end_time": 5.029545454545454,
                "pitch": 79,
                "velocity": 51,
                "duration": 0.06818181818181834,
                "tempo": 120.0
            },
            {
                "start_time": 5.045454545454545,
                "end_time": 5.113636363636363,
                "pitch": 72,
                "velocity": 51,
                "duration": 0.06818181818181834,
                "tempo": 120.0
            },
            {
                "start_time": 5.131818181818182,
                "end_time": 5.2,
                "pitch": 86,
                "velocity": 51,
                "duration": 0.06818181818181834,
                "tempo": 120.0
            },
            {
                "start_time": 5.218181818181818,
                "end_time": 5.286363636363636,
                "pitch": 79,
                "velocity": 51,
                "duration": 0.06818181818181834,
                "tempo": 120.0
            },
            {
                "start_time": 5.304545454545455,
                "end_time": 5.372727272727272,
                "pitch": 72,
                "velocity": 51,
                "duration": 0.06818181818181746,
                "tempo": 120.0
            },
            {
                "start_time": 5.406818181818181,
                "end_time": 5.8977272727272725,
                "pitch": 66,
                "velocity": 51,
                "duration": 0.4909090909090912,
                "tempo": 120.0
            },
            {
                "start_time": 5.913636363636363,
                "end_time": 6.7749999999999995,
                "pitch": 55,
                "velocity": 51,
                "duration": 0.8613636363636363,
                "tempo": 120.0
            },
            {
                "start_time": 6.793181818181818,
                "end_time": 7.277272727272727,
                "pitch": 66,
                "velocity": 51,
                "duration": 0.48409090909090935,
                "tempo": 120.0
            },
            {
                "start_time": 7.295454545454545,
                "end_time": 8.125,
                "pitch": 55,
                "velocity": 51,
                "duration": 0.829545454545455,
                "tempo": 120.0
            },
            {
                "start_time": 8.14090909090909,
                "end_time": 8.631818181818181,
                "pitch": 64,
                "velocity": 51,
                "duration": 0.4909090909090903,
                "tempo": 120.0
            },
            {
                "start_time": 8.647727272727272,
                "end_time": 9.5,
                "pitch": 53,
                "velocity": 51,
                "duration": 0.8522727272727284,
                "tempo": 120.0
            },
            {
                "start_time": 9.518181818181818,
                "end_time": 10.01590909090909,
                "pitch": 64,
                "velocity": 51,
                "duration": 0.497727272727273,
                "tempo": 120.0
            },
            {
                "start_time": 10.034090909090908,
                "end_time": 10.85909090909091,
                "pitch": 53,
                "velocity": 51,
                "duration": 0.8250000000000011,
                "tempo": 120.0
            },
            {
                "start_time": 10.875,
                "end_time": 12.186363636363636,
                "pitch": 64,
                "velocity": 51,
                "duration": 1.3113636363636356,
                "tempo": 120.0
            }
        ],
        "Electric Guitar (clean)": [
            {
                "start_time": 5.574999999999999,
                "end_time": 5.725,
                "pitch": 40,
                "velocity": 51,
                "duration": 0.15000000000000036,
                "tempo": 120.0
            },
            {
                "start_time": 5.743181818181818,
                "end_time": 5.8977272727272725,
                "pitch": 40,
                "velocity": 51,
                "duration": 0.15454545454545432,
                "tempo": 120.0
            },
            {
                "start_time": 5.913636363636363,
                "end_time": 6.0681818181818175,
                "pitch": 40,
                "velocity": 51,
                "duration": 0.15454545454545432,
                "tempo": 120.0
            },
            {
                "start_time": 6.086363636363636,
                "end_time": 6.254545454545454,
                "pitch": 40,
                "velocity": 51,
                "duration": 0.168181818181818,
                "tempo": 120.0
            },
            {
                "start_time": 6.2704545454545455,
                "end_time": 6.420454545454545,
                "pitch": 40,
                "velocity": 51,
                "duration": 0.14999999999999947,
                "tempo": 120.0
            },
            {
                "start_time": 6.4386363636363635,
                "end_time": 6.597727272727273,
                "pitch": 40,
                "velocity": 51,
                "duration": 0.15909090909090917,
                "tempo": 120.0
            },
            {
                "start_time": 6.61590909090909,
                "end_time": 6.7749999999999995,
                "pitch": 35,
                "velocity": 51,
                "duration": 0.15909090909090917,
                "tempo": 120.0
            },
            {
                "start_time": 6.793181818181818,
                "end_time": 6.9431818181818175,
                "pitch": 39,
                "velocity": 51,
                "duration": 0.14999999999999947,
                "tempo": 120.0
            },
            {
                "start_time": 6.959090909090909,
                "end_time": 7.111363636363636,
                "pitch": 39,
                "velocity": 51,
                "duration": 0.15227272727272734,
                "tempo": 120.0
            },
            {
                "start_time": 7.127272727272727,
                "end_time": 7.277272727272727,
                "pitch": 39,
                "velocity": 51,
                "duration": 0.15000000000000036,
                "tempo": 120.0
            },
            {
                "start_time": 7.295454545454545,
                "end_time": 7.445454545454545,
                "pitch": 39,
                "velocity": 51,
                "duration": 0.15000000000000036,
                "tempo": 120.0
            },
            {
                "start_time": 7.461363636363636,
                "end_time": 7.613636363636363,
                "pitch": 39,
                "velocity": 51,
                "duration": 0.15227272727272734,
                "tempo": 120.0
            },
            {
                "start_time": 7.629545454545454,
                "end_time": 7.779545454545454,
                "pitch": 39,
                "velocity": 51,
                "duration": 0.15000000000000036,
                "tempo": 120.0
            },
            {
                "start_time": 7.797727272727272,
                "end_time": 7.952272727272727,
                "pitch": 39,
                "velocity": 51,
                "duration": 0.1545454545454552,
                "tempo": 120.0
            },
            {
                "start_time": 7.970454545454545,
                "end_time": 8.125,
                "pitch": 39,
                "velocity": 51,
                "duration": 0.1545454545454552,
                "tempo": 120.0
            },
            {
                "start_time": 8.14090909090909,
                "end_time": 8.293181818181818,
                "pitch": 38,
                "velocity": 51,
                "duration": 0.15227272727272734,
                "tempo": 120.0
            },
            {
                "start_time": 8.309090909090909,
                "end_time": 8.459090909090909,
                "pitch": 38,
                "velocity": 51,
                "duration": 0.15000000000000036,
                "tempo": 120.0
            },
            {
                "start_time": 8.477272727272727,
                "end_time": 8.631818181818181,
                "pitch": 38,
                "velocity": 51,
                "duration": 0.15454545454545432,
                "tempo": 120.0
            },
            {
                "start_time": 8.647727272727272,
                "end_time": 8.804545454545455,
                "pitch": 38,
                "velocity": 51,
                "duration": 0.15681818181818308,
                "tempo": 120.0
            },
            {
                "start_time": 8.820454545454545,
                "end_time": 8.970454545454546,
                "pitch": 38,
                "velocity": 51,
                "duration": 0.15000000000000036,
                "tempo": 120.0
            },
            {
                "start_time": 8.988636363636363,
                "end_time": 9.138636363636364,
                "pitch": 38,
                "velocity": 51,
                "duration": 0.15000000000000036,
                "tempo": 120.0
            },
            {
                "start_time": 9.154545454545454,
                "end_time": 9.327272727272726,
                "pitch": 38,
                "velocity": 51,
                "duration": 0.17272727272727195,
                "tempo": 120.0
            },
            {
                "start_time": 9.345454545454546,
                "end_time": 9.5,
                "pitch": 33,
                "velocity": 51,
                "duration": 0.15454545454545432,
                "tempo": 120.0
            },
            {
                "start_time": 9.518181818181818,
                "end_time": 9.672727272727272,
                "pitch": 37,
                "velocity": 51,
                "duration": 0.15454545454545432,
                "tempo": 120.0
            },
            {
                "start_time": 9.688636363636363,
                "end_time": 9.845454545454546,
                "pitch": 37,
                "velocity": 51,
                "duration": 0.15681818181818308,
                "tempo": 120.0
            },
            {
                "start_time": 9.861363636363636,
                "end_time": 10.01590909090909,
                "pitch": 37,
                "velocity": 51,
                "duration": 0.15454545454545432,
                "tempo": 120.0
            },
            {
                "start_time": 10.034090909090908,
                "end_time": 10.188636363636363,
                "pitch": 37,
                "velocity": 51,
                "duration": 0.15454545454545432,
                "tempo": 120.0
            },
            {
                "start_time": 10.206818181818182,
                "end_time": 10.35681818181818,
                "pitch": 37,
                "velocity": 51,
                "duration": 0.14999999999999858,
                "tempo": 120.0
            },
            {
                "start_time": 10.372727272727273,
                "end_time": 10.525,
                "pitch": 37,
                "velocity": 51,
                "duration": 0.15227272727272734,
                "tempo": 120.0
            },
            {
                "start_time": 10.540909090909091,
                "end_time": 10.69090909090909,
                "pitch": 37,
                "velocity": 51,
                "duration": 0.14999999999999858,
                "tempo": 120.0
            },
            {
                "start_time": 10.709090909090909,
                "end_time": 10.85909090909091,
                "pitch": 37,
                "velocity": 51,
                "duration": 0.15000000000000036,
                "tempo": 120.0
            },
            {
                "start_time": 10.875,
                "end_time": 12.186363636363636,
                "pitch": 36,
                "velocity": 51,
                "duration": 1.3113636363636356,
                "tempo": 120.0
            }
        ],
        "Acoustic Grand Piano": [
            {
                "start_time": 0.06818181818181818,
                "end_time": 5.640909090909091,
                "pitch": 86,
                "velocity": 32,
                "duration": 5.572727272727272,
                "tempo": 120.0
            },
            {
                "start_time": 5.659090909090909,
                "end_time": 5.8113636363636365,
                "pitch": 62,
                "velocity": 32,
                "duration": 0.15227272727272734,
                "tempo": 120.0
            },
            {
                "start_time": 5.827272727272727,
                "end_time": 5.9840909090909085,
                "pitch": 66,
                "velocity": 32,
                "duration": 0.1568181818181813,
                "tempo": 120.0
            },
            {
                "start_time": 6.0,
                "end_time": 6.170454545454545,
                "pitch": 59,
                "velocity": 32,
                "duration": 0.17045454545454497,
                "tempo": 120.0
            },
            {
                "start_time": 6.186363636363636,
                "end_time": 6.338636363636363,
                "pitch": 62,
                "velocity": 32,
                "duration": 0.15227272727272734,
                "tempo": 120.0
            },
            {
                "start_time": 6.3545454545454545,
                "end_time": 6.509090909090909,
                "pitch": 66,
                "velocity": 32,
                "duration": 0.15454545454545432,
                "tempo": 120.0
            },
            {
                "start_time": 6.527272727272727,
                "end_time": 6.686363636363636,
                "pitch": 52,
                "velocity": 32,
                "duration": 0.15909090909090828,
                "tempo": 120.0
            },
            {
                "start_time": 6.704545454545454,
                "end_time": 6.8590909090909085,
                "pitch": 55,
                "velocity": 32,
                "duration": 0.15454545454545432,
                "tempo": 120.0
            },
            {
                "start_time": 6.877272727272727,
                "end_time": 7.027272727272727,
                "pitch": 61,
                "velocity": 32,
                "duration": 0.15000000000000036,
                "tempo": 120.0
            },
            {
                "start_time": 7.043181818181818,
                "end_time": 7.1931818181818175,
                "pitch": 66,
                "velocity": 32,
                "duration": 0.14999999999999947,
                "tempo": 120.0
            },
            {
                "start_time": 7.211363636363636,
                "end_time": 7.361363636363636,
                "pitch": 61,
                "velocity": 32,
                "duration": 0.15000000000000036,
                "tempo": 120.0
            },
            {
                "start_time": 7.379545454545454,
                "end_time": 7.529545454545454,
                "pitch": 52,
                "velocity": 32,
                "duration": 0.15000000000000036,
                "tempo": 120.0
            },
            {
                "start_time": 7.545454545454545,
                "end_time": 7.697727272727272,
                "pitch": 54,
                "velocity": 32,
                "duration": 0.15227272727272734,
                "tempo": 120.0
            },
            {
                "start_time": 7.713636363636363,
                "end_time": 7.86590909090909,
                "pitch": 66,
                "velocity": 32,
                "duration": 0.15227272727272734,
                "tempo": 120.0
            },
            {
                "start_time": 7.884090909090909,
                "end_time": 8.038636363636364,
                "pitch": 61,
                "velocity": 32,
                "duration": 0.1545454545454552,
                "tempo": 120.0
            },
            {
                "start_time": 8.054545454545455,
                "end_time": 8.209090909090909,
                "pitch": 55,
                "velocity": 32,
                "duration": 0.15454545454545432,
                "tempo": 120.0
            },
            {
                "start_time": 8.225,
                "end_time": 8.375,
                "pitch": 53,
                "velocity": 32,
                "duration": 0.15000000000000036,
                "tempo": 120.0
            },
            {
                "start_time": 8.393181818181818,
                "end_time": 8.545454545454545,
                "pitch": 60,
                "velocity": 32,
                "duration": 0.15227272727272734,
                "tempo": 120.0
            },
            {
                "start_time": 8.563636363636363,
                "end_time": 8.718181818181817,
                "pitch": 64,
                "velocity": 32,
                "duration": 0.15454545454545432,
                "tempo": 120.0
            },
            {
                "start_time": 8.73409090909091,
                "end_time": 8.888636363636364,
                "pitch": 57,
                "velocity": 32,
                "duration": 0.15454545454545432,
                "tempo": 120.0
            },
            {
                "start_time": 8.904545454545454,
                "end_time": 9.054545454545455,
                "pitch": 60,
                "velocity": 32,
                "duration": 0.15000000000000036,
                "tempo": 120.0
            },
            {
                "start_time": 9.072727272727272,
                "end_time": 9.24090909090909,
                "pitch": 64,
                "velocity": 32,
                "duration": 0.168181818181818,
                "tempo": 120.0
            },
            {
                "start_time": 9.259090909090908,
                "end_time": 9.413636363636364,
                "pitch": 50,
                "velocity": 32,
                "duration": 0.1545454545454561,
                "tempo": 120.0
            },
            {
                "start_time": 9.431818181818182,
                "end_time": 9.586363636363636,
                "pitch": 53,
                "velocity": 32,
                "duration": 0.15454545454545432,
                "tempo": 120.0
            },
            {
                "start_time": 9.602272727272727,
                "end_time": 9.759090909090908,
                "pitch": 59,
                "velocity": 32,
                "duration": 0.1568181818181813,
                "tempo": 120.0
            },
            {
                "start_time": 9.775,
                "end_time": 9.929545454545455,
                "pitch": 64,
                "velocity": 32,
                "duration": 0.15454545454545432,
                "tempo": 120.0
            },
            {
                "start_time": 9.947727272727272,
                "end_time": 10.102272727272727,
                "pitch": 59,
                "velocity": 32,
                "duration": 0.15454545454545432,
                "tempo": 120.0
            },
            {
                "start_time": 10.120454545454544,
                "end_time": 10.272727272727272,
                "pitch": 50,
                "velocity": 32,
                "duration": 0.15227272727272734,
                "tempo": 120.0
            },
            {
                "start_time": 10.288636363636364,
                "end_time": 10.44090909090909,
                "pitch": 52,
                "velocity": 32,
                "duration": 0.15227272727272556,
                "tempo": 120.0
            },
            {
                "start_time": 10.456818181818182,
                "end_time": 10.60681818181818,
                "pitch": 64,
                "velocity": 32,
                "duration": 0.14999999999999858,
                "tempo": 120.0
            },
            {
                "start_time": 10.625,
                "end_time": 10.775,
                "pitch": 59,
                "velocity": 32,
                "duration": 0.15000000000000036,
                "tempo": 120.0
            },
            {
                "start_time": 10.790909090909091,
                "end_time": 10.945454545454545,
                "pitch": 53,
                "velocity": 32,
                "duration": 0.15454545454545432,
                "tempo": 120.0
            },
            {
                "start_time": 10.961363636363636,
                "end_time": 12.284090909090908,
                "pitch": 57,
                "velocity": 32,
                "duration": 1.3227272727272723,
                "tempo": 120.0
            }
        ]
    }
}