{
    "track_id": "Maze Hunter 3-D (FM) - 08 - Game Over",
    "mood": "happy",
    "instruments": {
        "Acoustic Grand Piano": [
            {
                "start_time": 0.1318181818181818,
                "end_time": 0.20909090909090908,
                "pitch": 67,
                "velocity": 32,
                "duration": 0.07727272727272727,
                "tempo": 120.0
            },
            {
                "start_time": 0.2409090909090909,
                "end_time": 0.33409090909090905,
                "pitch": 65,
                "velocity": 32,
                "duration": 0.09318181818181814,
                "tempo": 120.0
            },
            {
                "start_time": 0.3659090909090909,
                "end_time": 0.45909090909090905,
                "pitch": 70,
                "velocity": 32,
                "duration": 0.09318181818181814,
                "tempo": 120.0
            },
            {
                "start_time": 0.4886363636363636,
                "end_time": 0.5818181818181818,
                "pitch": 75,
                "velocity": 32,
                "duration": 0.0931818181818182,
                "tempo": 120.0
            },
            {
                "start_time": 0.6136363636363636,
                "end_time": 0.7068181818181818,
                "pitch": 80,
                "velocity": 32,
                "duration": 0.09318181818181814,
                "tempo": 120.0
            },
            {
                "start_time": 0.7386363636363636,
                "end_time": 0.8318181818181818,
                "pitch": 72,
                "velocity": 32,
                "duration": 0.09318181818181814,
                "tempo": 120.0
            },
            {
                "start_time": 0.8636363636363636,
                "end_time": 2.1545454545454543,
                "pitch": 79,
                "velocity": 32,
                "duration": 1.2909090909090906,
                "tempo": 120.0
            }
        ],
        "Electric Guitar (clean)": [
            {
                "start_time": 0.01818181818181818,
                "end_time": 0.06363636363636363,
                "pitch": 31,
                "velocity": 51,
                "duration": 0.04545454545454545,
                "tempo": 120.0
            },
            {
                "start_time": 0.08636363636363636,
                "end_time": 0.15454545454545454,
                "pitch": 38,
                "velocity": 51,
                "duration": 0.06818181818181818,
                "tempo": 120.0
            },
            {
                "start_time": 0.17954545454545454,
                "end_time": 0.2727272727272727,
                "pitch": 35,
                "velocity": 51,
                "duration": 0.09318181818181817,
                "tempo": 120.0
            },
            {
                "start_time": 0.30227272727272725,
                "end_time": 0.39545454545454545,
                "pitch": 38,
                "velocity": 51,
                "duration": 0.0931818181818182,
                "tempo": 120.0
            },
            {
                "start_time": 0.42727272727272725,
                "end_time": 0.5204545454545454,
                "pitch": 39,
                "velocity": 51,
                "duration": 0.09318181818181814,
                "tempo": 120.0
            },
            {
                "start_time": 0.5522727272727272,
                "end_time": 0.6454545454545454,
                "pitch": 31,
                "velocity": 51,
                "duration": 0.09318181818181814,
                "tempo": 120.0
            },
            {
                "start_time": 0.6772727272727272,
                "end_time": 1.8068181818181817,
                "pitch": 36,
                "velocity": 51,
                "duration": 1.1295454545454544,
                "tempo": 120.0
            }
        ],
        "Vibraphone": [
            {
                "start_time": 0.04090909090909091,
                "end_time": 0.10909090909090909,
                "pitch": 80,
                "velocity": 32,
                "duration": 0.06818181818181818,
                "tempo": 120.0
            },
            {
                "start_time": 0.1318181818181818,
                "end_time": 0.20909090909090908,
                "pitch": 80,
                "velocity": 32,
                "duration": 0.07727272727272727,
                "tempo": 120.0
            },
            {
                "start_time": 0.2409090909090909,
                "end_time": 0.33409090909090905,
                "pitch": 79,
                "velocity": 32,
                "duration": 0.09318181818181814,
                "tempo": 120.0
            },
            {
                "start_time": 0.3659090909090909,
                "end_time": 0.45909090909090905,
                "pitch": 80,
                "velocity": 32,
                "duration": 0.09318181818181814,
                "tempo": 120.0
            },
            {
                "start_time": 0.4886363636363636,
                "end_time": 0.5818181818181818,
                "pitch": 80,
                "velocity": 32,
                "duration": 0.0931818181818182,
                "tempo": 120.0
            },
            {
                "start_time": 0.6136363636363636,
                "end_time": 0.7068181818181818,
                "pitch": 79,
                "velocity": 32,
                "duration": 0.09318181818181814,
                "tempo": 120.0
            },
            {
                "start_time": 0.7386363636363636,
                "end_time": 2.0113636363636362,
                "pitch": 72,
                "velocity": 32,
                "duration": 1.2727272727272725,
                "tempo": 120.0
            }
        ]
    }
}