{
    "track_id": "Megumi Rescue (FM) - 04 - Perfect",
    "mood": "happy",
    "instruments": {
        "Clarinet": [
            {
                "start_time": 0.00909090909090909,
                "end_time": 0.09318181818181817,
                "pitch": 67,
                "velocity": 64,
                "duration": 0.08409090909090908,
                "tempo": 120.0
            },
            {
                "start_time": 0.10909090909090909,
                "end_time": 0.1431818181818182,
                "pitch": 67,
                "velocity": 64,
                "duration": 0.0340909090909091,
                "tempo": 120.0
            },
            {
                "start_time": 0.1590909090909091,
                "end_time": 0.19318181818181818,
                "pitch": 67,
                "velocity": 64,
                "duration": 0.03409090909090909,
                "tempo": 120.0
            },
            {
                "start_time": 0.20909090909090908,
                "end_time": 0.29318181818181815,
                "pitch": 67,
                "velocity": 64,
                "duration": 0.08409090909090908,
                "tempo": 120.0
            },
            {
                "start_time": 0.3090909090909091,
                "end_time": 0.3931818181818182,
                "pitch": 72,
                "velocity": 64,
                "duration": 0.0840909090909091,
                "tempo": 120.0
            },
            {
                "start_time": 0.40909090909090906,
                "end_time": 0.49318181818181817,
                "pitch": 72,
                "velocity": 64,
                "duration": 0.0840909090909091,
                "tempo": 120.0
            },
            {
                "start_time": 0.509090909090909,
                "end_time": 0.5931818181818181,
                "pitch": 72,
                "velocity": 64,
                "duration": 0.0840909090909091,
                "tempo": 120.0
            },
            {
                "start_time": 0.609090909090909,
                "end_time": 0.6931818181818181,
                "pitch": 76,
                "velocity": 64,
                "duration": 0.0840909090909091,
                "tempo": 120.0
            },
            {
                "start_time": 0.7090909090909091,
                "end_time": 0.7931818181818181,
                "pitch": 72,
                "velocity": 64,
                "duration": 0.084090909090909,
                "tempo": 120.0
            },
            {
                "start_time": 0.8090909090909091,
                "end_time": 0.8931818181818182,
                "pitch": 76,
                "velocity": 64,
                "duration": 0.0840909090909091,
                "tempo": 120.0
            },
            {
                "start_time": 0.9090909090909091,
                "end_time": 1.793181818181818,
                "pitch": 79,
                "velocity": 64,
                "duration": 0.8840909090909089,
                "tempo": 120.0
            }
        ],
        "Acoustic Bass": [
            {
                "start_time": 0.00909090909090909,
                "end_time": 0.19318181818181818,
                "pitch": 36,
                "velocity": 51,
                "duration": 0.18409090909090908,
                "tempo": 120.0
            },
            {
                "start_time": 0.20909090909090908,
                "end_time": 0.29318181818181815,
                "pitch": 43,
                "velocity": 51,
                "duration": 0.08409090909090908,
                "tempo": 120.0
            },
            {
                "start_time": 0.3090909090909091,
                "end_time": 0.5931818181818181,
                "pitch": 36,
                "velocity": 51,
                "duration": 0.28409090909090906,
                "tempo": 120.0
            },
            {
                "start_time": 0.609090909090909,
                "end_time": 0.8931818181818182,
                "pitch": 37,
                "velocity": 51,
                "duration": 0.28409090909090917,
                "tempo": 120.0
            },
            {
                "start_time": 0.9090909090909091,
                "end_time": 1.793181818181818,
                "pitch": 36,
                "velocity": 51,
                "duration": 0.8840909090909089,
                "tempo": 120.0
            }
        ],
        "Acoustic Grand Piano": [
            {
                "start_time": 0.00909090909090909,
                "end_time": 0.04318181818181818,
                "pitch": 52,
                "velocity": 40,
                "duration": 0.03409090909090909,
                "tempo": 120.0
            },
            {
                "start_time": 0.05909090909090909,
                "end_time": 0.09318181818181817,
                "pitch": 55,
                "velocity": 40,
                "duration": 0.03409090909090908,
                "tempo": 120.0
            },
            {
                "start_time": 0.10909090909090909,
                "end_time": 0.1431818181818182,
                "pitch": 59,
                "velocity": 40,
                "duration": 0.0340909090909091,
                "tempo": 120.0
            },
            {
                "start_time": 0.1590909090909091,
                "end_time": 0.19318181818181818,
                "pitch": 60,
                "velocity": 40,
                "duration": 0.03409090909090909,
                "tempo": 120.0
            },
            {
                "start_time": 0.20909090909090908,
                "end_time": 0.24318181818181817,
                "pitch": 62,
                "velocity": 40,
                "duration": 0.03409090909090909,
                "tempo": 120.0
            },
            {
                "start_time": 0.2590909090909091,
                "end_time": 0.29318181818181815,
                "pitch": 65,
                "velocity": 40,
                "duration": 0.03409090909090906,
                "tempo": 120.0
            },
            {
                "start_time": 0.3090909090909091,
                "end_time": 0.34318181818181814,
                "pitch": 52,
                "velocity": 40,
                "duration": 0.03409090909090906,
                "tempo": 120.0
            },
            {
                "start_time": 0.35909090909090907,
                "end_time": 0.3931818181818182,
                "pitch": 60,
                "velocity": 40,
                "duration": 0.034090909090909116,
                "tempo": 120.0
            },
            {
                "start_time": 0.40909090909090906,
                "end_time": 0.4431818181818182,
                "pitch": 64,
                "velocity": 40,
                "duration": 0.034090909090909116,
                "tempo": 120.0
            },
            {
                "start_time": 0.45909090909090905,
                "end_time": 0.49318181818181817,
                "pitch": 65,
                "velocity": 40,
                "duration": 0.034090909090909116,
                "tempo": 120.0
            },
            {
                "start_time": 0.509090909090909,
                "end_time": 0.5431818181818182,
                "pitch": 67,
                "velocity": 40,
                "duration": 0.03409090909090917,
                "tempo": 120.0
            },
            {
                "start_time": 0.5590909090909091,
                "end_time": 0.5931818181818181,
                "pitch": 71,
                "velocity": 40,
                "duration": 0.03409090909090906,
                "tempo": 120.0
            },
            {
                "start_time": 0.609090909090909,
                "end_time": 0.6431818181818182,
                "pitch": 55,
                "velocity": 40,
                "duration": 0.03409090909090917,
                "tempo": 120.0
            },
            {
                "start_time": 0.6590909090909091,
                "end_time": 0.6931818181818181,
                "pitch": 67,
                "velocity": 40,
                "duration": 0.03409090909090906,
                "tempo": 120.0
            },
            {
                "start_time": 0.7090909090909091,
                "end_time": 0.7431818181818182,
                "pitch": 71,
                "velocity": 40,
                "duration": 0.03409090909090906,
                "tempo": 120.0
            },
            {
                "start_time": 0.759090909090909,
                "end_time": 0.7931818181818181,
                "pitch": 72,
                "velocity": 40,
                "duration": 0.03409090909090906,
                "tempo": 120.0
            },
            {
                "start_time": 0.8090909090909091,
                "end_time": 0.8431818181818181,
                "pitch": 74,
                "velocity": 40,
                "duration": 0.03409090909090906,
                "tempo": 120.0
            },
            {
                "start_time": 0.859090909090909,
                "end_time": 0.8931818181818182,
                "pitch": 77,
                "velocity": 40,
                "duration": 0.03409090909090917,
                "tempo": 120.0
            },
            {
                "start_time": 0.9090909090909091,
                "end_time": 1.793181818181818,
                "pitch": 76,
                "velocity": 40,
                "duration": 0.8840909090909089,
                "tempo": 120.0
            }
        ]
    }
}