{
    "track_id": "Megumi Rescue (FM) - 07 - Rounds 11-20",
    "mood": "happy",
    "instruments": {
        "Clarinet": [
            {
                "start_time": 0.004545454545454545,
                "end_time": 0.19772727272727272,
                "pitch": 55,
                "velocity": 64,
                "duration": 0.19318181818181818,
                "tempo": 120.0
            },
            {
                "start_time": 0.21363636363636362,
                "end_time": 0.31136363636363634,
                "pitch": 52,
                "velocity": 64,
                "duration": 0.09772727272727272,
                "tempo": 120.0
            },
            {
                "start_time": 0.32954545454545453,
                "end_time": 0.5386363636363636,
                "pitch": 55,
                "velocity": 64,
                "duration": 0.20909090909090905,
                "tempo": 120.0
            },
            {
                "start_time": 0.5545454545454546,
                "end_time": 0.634090909090909,
                "pitch": 52,
                "velocity": 64,
                "duration": 0.07954545454545447,
                "tempo": 120.0
            },
            {
                "start_time": 0.6681818181818181,
                "end_time": 1.0818181818181818,
                "pitch": 55,
                "velocity": 64,
                "duration": 0.4136363636363637,
                "tempo": 120.0
            },
            {
                "start_time": 1.0977272727272727,
                "end_time": 1.3068181818181817,
                "pitch": 60,
                "velocity": 64,
                "duration": 0.209090909090909,
                "tempo": 120.0
            },
            {
                "start_time": 1.3227272727272728,
                "end_time": 1.5272727272727271,
                "pitch": 59,
                "velocity": 64,
                "duration": 0.20454545454545436,
                "tempo": 120.0
            },
            {
                "start_time": 1.5454545454545454,
                "end_time": 1.768181818181818,
                "pitch": 52,
                "velocity": 64,
                "duration": 0.22272727272727266,
                "tempo": 120.0
            },
            {
                "start_time": 1.784090909090909,
                "end_time": 2.002272727272727,
                "pitch": 56,
                "velocity": 64,
                "duration": 0.21818181818181803,
                "tempo": 120.0
            },
            {
                "start_time": 2.0204545454545455,
                "end_time": 2.120454545454545,
                "pitch": 52,
                "velocity": 64,
                "duration": 0.09999999999999964,
                "tempo": 120.0
            },
            {
                "start_time": 2.1363636363636362,
                "end_time": 2.3363636363636364,
                "pitch": 56,
                "velocity": 64,
                "duration": 0.20000000000000018,
                "tempo": 120.0
            },
            {
                "start_time": 2.3545454545454545,
                "end_time": 2.4545454545454546,
                "pitch": 52,
                "velocity": 64,
                "duration": 0.10000000000000009,
                "tempo": 120.0
            },
            {
                "start_time": 2.4704545454545452,
                "end_time": 2.918181818181818,
                "pitch": 56,
                "velocity": 64,
                "duration": 0.44772727272727275,
                "tempo": 120.0
            },
            {
                "start_time": 2.934090909090909,
                "end_time": 3.1295454545454544,
                "pitch": 60,
                "velocity": 64,
                "duration": 0.19545454545454533,
                "tempo": 120.0
            },
            {
                "start_time": 3.1477272727272725,
                "end_time": 3.359090909090909,
                "pitch": 59,
                "velocity": 64,
                "duration": 0.21136363636363642,
                "tempo": 120.0
            },
            {
                "start_time": 3.375,
                "end_time": 3.5886363636363634,
                "pitch": 52,
                "velocity": 64,
                "duration": 0.2136363636363634,
                "tempo": 120.0
            },
            {
                "start_time": 3.6045454545454545,
                "end_time": 3.809090909090909,
                "pitch": 57,
                "velocity": 64,
                "duration": 0.20454545454545459,
                "tempo": 120.0
            },
            {
                "start_time": 3.843181818181818,
                "end_time": 3.9295454545454542,
                "pitch": 52,
                "velocity": 64,
                "duration": 0.08636363636363642,
                "tempo": 120.0
            },
            {
                "start_time": 3.9477272727272728,
                "end_time": 4.165909090909091,
                "pitch": 57,
                "velocity": 64,
                "duration": 0.21818181818181825,
                "tempo": 120.0
            },
            {
                "start_time": 4.181818181818182,
                "end_time": 4.279545454545454,
                "pitch": 52,
                "velocity": 64,
                "duration": 0.09772727272727266,
                "tempo": 120.0
            },
            {
                "start_time": 4.295454545454545,
                "end_time": 4.725,
                "pitch": 57,
                "velocity": 64,
                "duration": 0.4295454545454547,
                "tempo": 120.0
            },
            {
                "start_time": 4.743181818181818,
                "end_time": 4.959090909090909,
                "pitch": 64,
                "velocity": 64,
                "duration": 0.21590909090909083,
                "tempo": 120.0
            },
            {
                "start_time": 4.977272727272727,
                "end_time": 5.1886363636363635,
                "pitch": 62,
                "velocity": 64,
                "duration": 0.21136363636363686,
                "tempo": 120.0
            },
            {
                "start_time": 5.204545454545454,
                "end_time": 5.402272727272727,
                "pitch": 57,
                "velocity": 64,
                "duration": 0.1977272727272732,
                "tempo": 120.0
            },
            {
                "start_time": 5.434090909090909,
                "end_time": 6.1090909090909085,
                "pitch": 57,
                "velocity": 64,
                "duration": 0.6749999999999998,
                "tempo": 120.0
            },
            {
                "start_time": 6.125,
                "end_time": 6.206818181818181,
                "pitch": 59,
                "velocity": 64,
                "duration": 0.08181818181818112,
                "tempo": 120.0
            },
            {
                "start_time": 6.238636363636363,
                "end_time": 6.320454545454545,
                "pitch": 57,
                "velocity": 64,
                "duration": 0.08181818181818201,
                "tempo": 120.0
            },
            {
                "start_time": 6.338636363636363,
                "end_time": 7.24090909090909,
                "pitch": 55,
                "velocity": 64,
                "duration": 0.9022727272727273,
                "tempo": 120.0
            },
            {
                "start_time": 7.256818181818182,
                "end_time": 7.470454545454545,
                "pitch": 55,
                "velocity": 64,
                "duration": 0.21363636363636296,
                "tempo": 120.0
            },
            {
                "start_time": 7.486363636363636,
                "end_time": 7.584090909090909,
                "pitch": 52,
                "velocity": 64,
                "duration": 0.09772727272727266,
                "tempo": 120.0
            },
            {
                "start_time": 7.602272727272727,
                "end_time": 7.8,
                "pitch": 55,
                "velocity": 64,
                "duration": 0.1977272727272732,
                "tempo": 120.0
            },
            {
                "start_time": 7.831818181818181,
                "end_time": 7.91590909090909,
                "pitch": 52,
                "velocity": 64,
                "duration": 0.084090909090909,
                "tempo": 120.0
            },
            {
                "start_time": 7.934090909090909,
                "end_time": 8.379545454545454,
                "pitch": 55,
                "velocity": 64,
                "duration": 0.4454545454545453,
                "tempo": 120.0
            },
            {
                "start_time": 8.395454545454545,
                "end_time": 8.593181818181817,
                "pitch": 60,
                "velocity": 64,
                "duration": 0.1977272727272723,
                "tempo": 120.0
            },
            {
                "start_time": 8.625,
                "end_time": 8.829545454545453,
                "pitch": 59,
                "velocity": 64,
                "duration": 0.20454545454545325,
                "tempo": 120.0
            },
            {
                "start_time": 8.847727272727273,
                "end_time": 9.070454545454545,
                "pitch": 52,
                "velocity": 64,
                "duration": 0.22272727272727266,
                "tempo": 120.0
            },
            {
                "start_time": 9.086363636363636,
                "end_time": 9.304545454545455,
                "pitch": 56,
                "velocity": 64,
                "duration": 0.2181818181818187,
                "tempo": 120.0
            },
            {
                "start_time": 9.322727272727272,
                "end_time": 9.404545454545454,
                "pitch": 52,
                "velocity": 64,
                "duration": 0.08181818181818201,
                "tempo": 120.0
            },
            {
                "start_time": 9.438636363636363,
                "end_time": 9.636363636363637,
                "pitch": 56,
                "velocity": 64,
                "duration": 0.19772727272727408,
                "tempo": 120.0
            },
            {
                "start_time": 9.652272727272727,
                "end_time": 9.747727272727273,
                "pitch": 52,
                "velocity": 64,
                "duration": 0.09545454545454568,
                "tempo": 120.0
            },
            {
                "start_time": 9.763636363636364,
                "end_time": 10.188636363636363,
                "pitch": 56,
                "velocity": 64,
                "duration": 0.42499999999999893,
                "tempo": 120.0
            },
            {
                "start_time": 10.220454545454546,
                "end_time": 10.422727272727272,
                "pitch": 64,
                "velocity": 64,
                "duration": 0.20227272727272627,
                "tempo": 120.0
            },
            {
                "start_time": 10.438636363636363,
                "end_time": 10.656818181818181,
                "pitch": 62,
                "velocity": 64,
                "duration": 0.2181818181818187,
                "tempo": 120.0
            },
            {
                "start_time": 10.672727272727272,
                "end_time": 10.89090909090909,
                "pitch": 56,
                "velocity": 64,
                "duration": 0.2181818181818187,
                "tempo": 120.0
            },
            {
                "start_time": 10.906818181818181,
                "end_time": 11.113636363636363,
                "pitch": 57,
                "velocity": 64,
                "duration": 0.206818181818182,
                "tempo": 120.0
            },
            {
                "start_time": 11.129545454545454,
                "end_time": 11.23181818181818,
                "pitch": 52,
                "velocity": 64,
                "duration": 0.10227272727272663,
                "tempo": 120.0
            },
            {
                "start_time": 11.25,
                "end_time": 11.46590909090909,
                "pitch": 57,
                "velocity": 64,
                "duration": 0.21590909090908994,
                "tempo": 120.0
            },
            {
                "start_time": 11.48181818181818,
                "end_time": 11.577272727272726,
                "pitch": 52,
                "velocity": 64,
                "duration": 0.09545454545454568,
                "tempo": 120.0
            },
            {
                "start_time": 11.593181818181817,
                "end_time": 12.022727272727272,
                "pitch": 57,
                "velocity": 64,
                "duration": 0.4295454545454547,
                "tempo": 120.0
            },
            {
                "start_time": 12.038636363636362,
                "end_time": 12.261363636363635,
                "pitch": 65,
                "velocity": 64,
                "duration": 0.22272727272727266,
                "tempo": 120.0
            },
            {
                "start_time": 12.279545454545454,
                "end_time": 12.49090909090909,
                "pitch": 64,
                "velocity": 64,
                "duration": 0.21136363636363598,
                "tempo": 120.0
            },
            {
                "start_time": 12.509090909090908,
                "end_time": 12.704545454545453,
                "pitch": 60,
                "velocity": 64,
                "duration": 0.19545454545454533,
                "tempo": 120.0
            },
            {
                "start_time": 12.720454545454546,
                "end_time": 13.622727272727271,
                "pitch": 62,
                "velocity": 64,
                "duration": 0.9022727272727256,
                "tempo": 120.0
            },
            {
                "start_time": 13.64090909090909,
                "end_time": 14.072727272727272,
                "pitch": 62,
                "velocity": 64,
                "duration": 0.43181818181818166,
                "tempo": 120.0
            },
            {
                "start_time": 14.088636363636363,
                "end_time": 14.534090909090908,
                "pitch": 62,
                "velocity": 64,
                "duration": 0.4454545454545453,
                "tempo": 120.0
            },
            {
                "start_time": 14.549999999999999,
                "end_time": 14.834090909090909,
                "pitch": 64,
                "velocity": 64,
                "duration": 0.28409090909091006,
                "tempo": 120.0
            },
            {
                "start_time": 14.852272727272727,
                "end_time": 15.220454545454544,
                "pitch": 64,
                "velocity": 64,
                "duration": 0.3681818181818173,
                "tempo": 120.0
            },
            {
                "start_time": 15.236363636363636,
                "end_time": 15.568181818181817,
                "pitch": 64,
                "velocity": 64,
                "duration": 0.33181818181818024,
                "tempo": 120.0
            },
            {
                "start_time": 15.584090909090909,
                "end_time": 15.684090909090909,
                "pitch": 64,
                "velocity": 64,
                "duration": 0.09999999999999964,
                "tempo": 120.0
            },
            {
                "start_time": 15.7,
                "end_time": 15.895454545454545,
                "pitch": 65,
                "velocity": 64,
                "duration": 0.19545454545454533,
                "tempo": 120.0
            },
            {
                "start_time": 15.911363636363635,
                "end_time": 16.125,
                "pitch": 64,
                "velocity": 64,
                "duration": 0.21363636363636473,
                "tempo": 120.0
            },
            {
                "start_time": 16.14090909090909,
                "end_time": 16.354545454545455,
                "pitch": 64,
                "velocity": 64,
                "duration": 0.21363636363636473,
                "tempo": 120.0
            },
            {
                "start_time": 16.370454545454546,
                "end_time": 16.654545454545453,
                "pitch": 64,
                "velocity": 64,
                "duration": 0.2840909090909065,
                "tempo": 120.0
            },
            {
                "start_time": 16.670454545454543,
                "end_time": 17.034090909090907,
                "pitch": 64,
                "velocity": 64,
                "duration": 0.3636363636363633,
                "tempo": 120.0
            },
            {
                "start_time": 17.05,
                "end_time": 17.36590909090909,
                "pitch": 64,
                "velocity": 64,
                "duration": 0.3159090909090878,
                "tempo": 120.0
            },
            {
                "start_time": 17.4,
                "end_time": 17.48409090909091,
                "pitch": 64,
                "velocity": 64,
                "duration": 0.08409090909091077,
                "tempo": 120.0
            },
            {
                "start_time": 17.502272727272725,
                "end_time": 17.724999999999998,
                "pitch": 65,
                "velocity": 64,
                "duration": 0.22272727272727266,
                "tempo": 120.0
            },
            {
                "start_time": 17.74090909090909,
                "end_time": 17.954545454545453,
                "pitch": 64,
                "velocity": 64,
                "duration": 0.21363636363636473,
                "tempo": 120.0
            },
            {
                "start_time": 17.970454545454544,
                "end_time": 18.16590909090909,
                "pitch": 64,
                "velocity": 64,
                "duration": 0.19545454545454533,
                "tempo": 120.0
            },
            {
                "start_time": 18.2,
                "end_time": 18.49090909090909,
                "pitch": 63,
                "velocity": 64,
                "duration": 0.29090909090908923,
                "tempo": 120.0
            },
            {
                "start_time": 18.50681818181818,
                "end_time": 18.875,
                "pitch": 63,
                "velocity": 64,
                "duration": 0.36818181818182083,
                "tempo": 120.0
            },
            {
                "start_time": 18.89090909090909,
                "end_time": 19.202272727272728,
                "pitch": 63,
                "velocity": 64,
                "duration": 0.3113636363636374,
                "tempo": 120.0
            },
            {
                "start_time": 19.21818181818182,
                "end_time": 19.31590909090909,
                "pitch": 63,
                "velocity": 64,
                "duration": 0.09772727272727266,
                "tempo": 120.0
            },
            {
                "start_time": 19.331818181818182,
                "end_time": 19.545454545454543,
                "pitch": 65,
                "velocity": 64,
                "duration": 0.21363636363636118,
                "tempo": 120.0
            },
            {
                "start_time": 19.561363636363634,
                "end_time": 19.761363636363637,
                "pitch": 67,
                "velocity": 64,
                "duration": 0.20000000000000284,
                "tempo": 120.0
            },
            {
                "start_time": 19.795454545454543,
                "end_time": 19.995454545454546,
                "pitch": 65,
                "velocity": 64,
                "duration": 0.20000000000000284,
                "tempo": 120.0
            },
            {
                "start_time": 20.013636363636362,
                "end_time": 20.91590909090909,
                "pitch": 63,
                "velocity": 64,
                "duration": 0.9022727272727273,
                "tempo": 120.0
            },
            {
                "start_time": 20.93181818181818,
                "end_time": 21.836363636363636,
                "pitch": 62,
                "velocity": 64,
                "duration": 0.9045454545454561,
                "tempo": 120.0
            },
            {
                "start_time": 21.852272727272727,
                "end_time": 22.13181818181818,
                "pitch": 55,
                "velocity": 64,
                "duration": 0.27954545454545254,
                "tempo": 120.0
            },
            {
                "start_time": 22.147727272727273,
                "end_time": 22.50681818181818,
                "pitch": 64,
                "velocity": 64,
                "duration": 0.3590909090909058,
                "tempo": 120.0
            },
            {
                "start_time": 22.522727272727273,
                "end_time": 22.854545454545452,
                "pitch": 64,
                "velocity": 64,
                "duration": 0.33181818181817846,
                "tempo": 120.0
            },
            {
                "start_time": 22.87272727272727,
                "end_time": 22.956818181818182,
                "pitch": 64,
                "velocity": 64,
                "duration": 0.08409090909091077,
                "tempo": 120.0
            },
            {
                "start_time": 22.99090909090909,
                "end_time": 23.19772727272727,
                "pitch": 65,
                "velocity": 64,
                "duration": 0.206818181818182,
                "tempo": 120.0
            },
            {
                "start_time": 23.21363636363636,
                "end_time": 23.422727272727272,
                "pitch": 64,
                "velocity": 64,
                "duration": 0.20909090909091077,
                "tempo": 120.0
            },
            {
                "start_time": 23.438636363636363,
                "end_time": 23.645454545454545,
                "pitch": 64,
                "velocity": 64,
                "duration": 0.206818181818182,
                "tempo": 120.0
            },
            {
                "start_time": 23.661363636363635,
                "end_time": 23.952272727272724,
                "pitch": 53,
                "velocity": 64,
                "duration": 0.29090909090908923,
                "tempo": 120.0
            },
            {
                "start_time": 23.970454545454544,
                "end_time": 24.336363636363636,
                "pitch": 65,
                "velocity": 64,
                "duration": 0.36590909090909207,
                "tempo": 120.0
            },
            {
                "start_time": 24.352272727272727,
                "end_time": 24.668181818181818,
                "pitch": 65,
                "velocity": 64,
                "duration": 0.31590909090909136,
                "tempo": 120.0
            },
            {
                "start_time": 24.68409090909091,
                "end_time": 24.786363636363635,
                "pitch": 65,
                "velocity": 64,
                "duration": 0.10227272727272663,
                "tempo": 120.0
            },
            {
                "start_time": 24.804545454545455,
                "end_time": 25.027272727272727,
                "pitch": 64,
                "velocity": 64,
                "duration": 0.22272727272727266,
                "tempo": 120.0
            },
            {
                "start_time": 25.043181818181818,
                "end_time": 25.25681818181818,
                "pitch": 65,
                "velocity": 64,
                "duration": 0.21363636363636118,
                "tempo": 120.0
            },
            {
                "start_time": 25.27272727272727,
                "end_time": 25.470454545454544,
                "pitch": 65,
                "velocity": 64,
                "duration": 0.19772727272727408,
                "tempo": 120.0
            },
            {
                "start_time": 25.486363636363635,
                "end_time": 25.779545454545453,
                "pitch": 55,
                "velocity": 64,
                "duration": 0.293181818181818,
                "tempo": 120.0
            },
            {
                "start_time": 25.795454545454543,
                "end_time": 26.14772727272727,
                "pitch": 63,
                "velocity": 64,
                "duration": 0.3522727272727266,
                "tempo": 120.0
            },
            {
                "start_time": 26.18181818181818,
                "end_time": 26.504545454545454,
                "pitch": 63,
                "velocity": 64,
                "duration": 0.3227272727272741,
                "tempo": 120.0
            },
            {
                "start_time": 26.520454545454545,
                "end_time": 26.618181818181817,
                "pitch": 63,
                "velocity": 64,
                "duration": 0.09772727272727266,
                "tempo": 120.0
            },
            {
                "start_time": 26.634090909090908,
                "end_time": 26.847727272727273,
                "pitch": 65,
                "velocity": 64,
                "duration": 0.21363636363636473,
                "tempo": 120.0
            },
            {
                "start_time": 26.863636363636363,
                "end_time": 27.063636363636363,
                "pitch": 67,
                "velocity": 64,
                "duration": 0.1999999999999993,
                "tempo": 120.0
            },
            {
                "start_time": 27.081818181818182,
                "end_time": 27.297727272727272,
                "pitch": 65,
                "velocity": 64,
                "duration": 0.21590909090908994,
                "tempo": 120.0
            },
            {
                "start_time": 27.315909090909088,
                "end_time": 28.218181818181815,
                "pitch": 63,
                "velocity": 64,
                "duration": 0.9022727272727273,
                "tempo": 120.0
            },
            {
                "start_time": 28.23409090909091,
                "end_time": 29.129545454545454,
                "pitch": 62,
                "velocity": 64,
                "duration": 0.8954545454545446,
                "tempo": 120.0
            }
        ],
        "Acoustic Bass": [
            {
                "start_time": 0.004545454545454545,
                "end_time": 0.19772727272727272,
                "pitch": 48,
                "velocity": 51,
                "duration": 0.19318181818181818,
                "tempo": 120.0
            },
            {
                "start_time": 0.21363636363636362,
                "end_time": 0.42727272727272725,
                "pitch": 55,
                "velocity": 51,
                "duration": 0.21363636363636362,
                "tempo": 120.0
            },
            {
                "start_time": 0.4431818181818182,
                "end_time": 0.634090909090909,
                "pitch": 48,
                "velocity": 51,
                "duration": 0.19090909090909086,
                "tempo": 120.0
            },
            {
                "start_time": 0.6681818181818181,
                "end_time": 0.859090909090909,
                "pitch": 55,
                "velocity": 51,
                "duration": 0.19090909090909092,
                "tempo": 120.0
            },
            {
                "start_time": 0.875,
                "end_time": 1.0818181818181818,
                "pitch": 48,
                "velocity": 51,
                "duration": 0.2068181818181818,
                "tempo": 120.0
            },
            {
                "start_time": 1.0977272727272727,
                "end_time": 1.3068181818181817,
                "pitch": 55,
                "velocity": 51,
                "duration": 0.209090909090909,
                "tempo": 120.0
            },
            {
                "start_time": 1.3227272727272728,
                "end_time": 1.5272727272727271,
                "pitch": 48,
                "velocity": 51,
                "duration": 0.20454545454545436,
                "tempo": 120.0
            },
            {
                "start_time": 1.5454545454545454,
                "end_time": 1.768181818181818,
                "pitch": 55,
                "velocity": 51,
                "duration": 0.22272727272727266,
                "tempo": 120.0
            },
            {
                "start_time": 1.784090909090909,
                "end_time": 2.002272727272727,
                "pitch": 48,
                "velocity": 51,
                "duration": 0.21818181818181803,
                "tempo": 120.0
            },
            {
                "start_time": 2.0204545454545455,
                "end_time": 2.2204545454545452,
                "pitch": 56,
                "velocity": 51,
                "duration": 0.19999999999999973,
                "tempo": 120.0
            },
            {
                "start_time": 2.2545454545454544,
                "end_time": 2.4545454545454546,
                "pitch": 48,
                "velocity": 51,
                "duration": 0.20000000000000018,
                "tempo": 120.0
            },
            {
                "start_time": 2.4704545454545452,
                "end_time": 2.6886363636363635,
                "pitch": 56,
                "velocity": 51,
                "duration": 0.21818181818181825,
                "tempo": 120.0
            },
            {
                "start_time": 2.7045454545454546,
                "end_time": 2.918181818181818,
                "pitch": 48,
                "velocity": 51,
                "duration": 0.2136363636363634,
                "tempo": 120.0
            },
            {
                "start_time": 2.934090909090909,
                "end_time": 3.1295454545454544,
                "pitch": 56,
                "velocity": 51,
                "duration": 0.19545454545454533,
                "tempo": 120.0
            },
            {
                "start_time": 3.1477272727272725,
                "end_time": 3.359090909090909,
                "pitch": 48,
                "velocity": 51,
                "duration": 0.21136363636363642,
                "tempo": 120.0
            },
            {
                "start_time": 3.375,
                "end_time": 3.5886363636363634,
                "pitch": 56,
                "velocity": 51,
                "duration": 0.2136363636363634,
                "tempo": 120.0
            },
            {
                "start_time": 3.6045454545454545,
                "end_time": 3.809090909090909,
                "pitch": 48,
                "velocity": 51,
                "duration": 0.20454545454545459,
                "tempo": 120.0
            },
            {
                "start_time": 3.843181818181818,
                "end_time": 4.05,
                "pitch": 57,
                "velocity": 51,
                "duration": 0.206818181818182,
                "tempo": 120.0
            },
            {
                "start_time": 4.0659090909090905,
                "end_time": 4.279545454545454,
                "pitch": 48,
                "velocity": 51,
                "duration": 0.21363636363636385,
                "tempo": 120.0
            },
            {
                "start_time": 4.295454545454545,
                "end_time": 4.509090909090909,
                "pitch": 57,
                "velocity": 51,
                "duration": 0.21363636363636385,
                "tempo": 120.0
            },
            {
                "start_time": 4.5249999999999995,
                "end_time": 4.725,
                "pitch": 48,
                "velocity": 51,
                "duration": 0.20000000000000018,
                "tempo": 120.0
            },
            {
                "start_time": 4.743181818181818,
                "end_time": 4.959090909090909,
                "pitch": 57,
                "velocity": 51,
                "duration": 0.21590909090909083,
                "tempo": 120.0
            },
            {
                "start_time": 4.977272727272727,
                "end_time": 5.1886363636363635,
                "pitch": 48,
                "velocity": 51,
                "duration": 0.21136363636363686,
                "tempo": 120.0
            },
            {
                "start_time": 5.204545454545454,
                "end_time": 5.402272727272727,
                "pitch": 57,
                "velocity": 51,
                "duration": 0.1977272727272732,
                "tempo": 120.0
            },
            {
                "start_time": 5.434090909090909,
                "end_time": 5.638636363636364,
                "pitch": 55,
                "velocity": 51,
                "duration": 0.20454545454545503,
                "tempo": 120.0
            },
            {
                "start_time": 5.656818181818181,
                "end_time": 5.879545454545454,
                "pitch": 59,
                "velocity": 51,
                "duration": 0.22272727272727266,
                "tempo": 120.0
            },
            {
                "start_time": 5.8954545454545455,
                "end_time": 6.1090909090909085,
                "pitch": 55,
                "velocity": 51,
                "duration": 0.21363636363636296,
                "tempo": 120.0
            },
            {
                "start_time": 6.125,
                "end_time": 6.320454545454545,
                "pitch": 59,
                "velocity": 51,
                "duration": 0.19545454545454533,
                "tempo": 120.0
            },
            {
                "start_time": 6.338636363636363,
                "end_time": 6.55,
                "pitch": 50,
                "velocity": 51,
                "duration": 0.21136363636363686,
                "tempo": 120.0
            },
            {
                "start_time": 6.5659090909090905,
                "end_time": 6.779545454545454,
                "pitch": 55,
                "velocity": 51,
                "duration": 0.21363636363636385,
                "tempo": 120.0
            },
            {
                "start_time": 6.795454545454545,
                "end_time": 7.0,
                "pitch": 47,
                "velocity": 51,
                "duration": 0.20454545454545503,
                "tempo": 120.0
            },
            {
                "start_time": 7.034090909090909,
                "end_time": 7.24090909090909,
                "pitch": 50,
                "velocity": 51,
                "duration": 0.20681818181818112,
                "tempo": 120.0
            },
            {
                "start_time": 7.256818181818182,
                "end_time": 7.470454545454545,
                "pitch": 48,
                "velocity": 51,
                "duration": 0.21363636363636296,
                "tempo": 120.0
            },
            {
                "start_time": 7.486363636363636,
                "end_time": 7.699999999999999,
                "pitch": 55,
                "velocity": 51,
                "duration": 0.21363636363636296,
                "tempo": 120.0
            },
            {
                "start_time": 7.715909090909091,
                "end_time": 7.91590909090909,
                "pitch": 48,
                "velocity": 51,
                "duration": 0.1999999999999993,
                "tempo": 120.0
            },
            {
                "start_time": 7.934090909090909,
                "end_time": 8.15,
                "pitch": 55,
                "velocity": 51,
                "duration": 0.21590909090909172,
                "tempo": 120.0
            },
            {
                "start_time": 8.168181818181818,
                "end_time": 8.379545454545454,
                "pitch": 48,
                "velocity": 51,
                "duration": 0.21136363636363598,
                "tempo": 120.0
            },
            {
                "start_time": 8.395454545454545,
                "end_time": 8.593181818181817,
                "pitch": 55,
                "velocity": 51,
                "duration": 0.1977272727272723,
                "tempo": 120.0
            },
            {
                "start_time": 8.625,
                "end_time": 8.829545454545453,
                "pitch": 48,
                "velocity": 51,
                "duration": 0.20454545454545325,
                "tempo": 120.0
            },
            {
                "start_time": 8.847727272727273,
                "end_time": 9.070454545454545,
                "pitch": 55,
                "velocity": 51,
                "duration": 0.22272727272727266,
                "tempo": 120.0
            },
            {
                "start_time": 9.086363636363636,
                "end_time": 9.304545454545455,
                "pitch": 48,
                "velocity": 51,
                "duration": 0.2181818181818187,
                "tempo": 120.0
            },
            {
                "start_time": 9.322727272727272,
                "end_time": 9.522727272727272,
                "pitch": 56,
                "velocity": 51,
                "duration": 0.1999999999999993,
                "tempo": 120.0
            },
            {
                "start_time": 9.538636363636364,
                "end_time": 9.747727272727273,
                "pitch": 48,
                "velocity": 51,
                "duration": 0.209090909090909,
                "tempo": 120.0
            },
            {
                "start_time": 9.763636363636364,
                "end_time": 9.970454545454546,
                "pitch": 56,
                "velocity": 51,
                "duration": 0.206818181818182,
                "tempo": 120.0
            },
            {
                "start_time": 9.986363636363636,
                "end_time": 10.188636363636363,
                "pitch": 48,
                "velocity": 51,
                "duration": 0.20227272727272627,
                "tempo": 120.0
            },
            {
                "start_time": 10.220454545454546,
                "end_time": 10.422727272727272,
                "pitch": 56,
                "velocity": 51,
                "duration": 0.20227272727272627,
                "tempo": 120.0
            },
            {
                "start_time": 10.438636363636363,
                "end_time": 10.656818181818181,
                "pitch": 48,
                "velocity": 51,
                "duration": 0.2181818181818187,
                "tempo": 120.0
            },
            {
                "start_time": 10.672727272727272,
                "end_time": 10.89090909090909,
                "pitch": 56,
                "velocity": 51,
                "duration": 0.2181818181818187,
                "tempo": 120.0
            },
            {
                "start_time": 10.906818181818181,
                "end_time": 11.113636363636363,
                "pitch": 53,
                "velocity": 51,
                "duration": 0.206818181818182,
                "tempo": 120.0
            },
            {
                "start_time": 11.129545454545454,
                "end_time": 11.352272727272727,
                "pitch": 57,
                "velocity": 51,
                "duration": 0.22272727272727266,
                "tempo": 120.0
            },
            {
                "start_time": 11.370454545454544,
                "end_time": 11.577272727272726,
                "pitch": 48,
                "velocity": 51,
                "duration": 0.206818181818182,
                "tempo": 120.0
            },
            {
                "start_time": 11.593181818181817,
                "end_time": 11.784090909090908,
                "pitch": 57,
                "velocity": 51,
                "duration": 0.19090909090909136,
                "tempo": 120.0
            },
            {
                "start_time": 11.818181818181818,
                "end_time": 12.022727272727272,
                "pitch": 53,
                "velocity": 51,
                "duration": 0.20454545454545325,
                "tempo": 120.0
            },
            {
                "start_time": 12.038636363636362,
                "end_time": 12.261363636363635,
                "pitch": 57,
                "velocity": 51,
                "duration": 0.22272727272727266,
                "tempo": 120.0
            },
            {
                "start_time": 12.279545454545454,
                "end_time": 12.49090909090909,
                "pitch": 48,
                "velocity": 51,
                "duration": 0.21136363636363598,
                "tempo": 120.0
            },
            {
                "start_time": 12.509090909090908,
                "end_time": 12.704545454545453,
                "pitch": 53,
                "velocity": 51,
                "duration": 0.19545454545454533,
                "tempo": 120.0
            },
            {
                "start_time": 12.720454545454546,
                "end_time": 12.938636363636363,
                "pitch": 55,
                "velocity": 51,
                "duration": 0.21818181818181692,
                "tempo": 120.0
            },
            {
                "start_time": 12.954545454545453,
                "end_time": 13.172727272727272,
                "pitch": 59,
                "velocity": 51,
                "duration": 0.2181818181818187,
                "tempo": 120.0
            },
            {
                "start_time": 13.188636363636363,
                "end_time": 13.388636363636364,
                "pitch": 55,
                "velocity": 51,
                "duration": 0.20000000000000107,
                "tempo": 120.0
            },
            {
                "start_time": 13.422727272727272,
                "end_time": 13.622727272727271,
                "pitch": 59,
                "velocity": 51,
                "duration": 0.1999999999999993,
                "tempo": 120.0
            },
            {
                "start_time": 13.64090909090909,
                "end_time": 13.847727272727273,
                "pitch": 50,
                "velocity": 51,
                "duration": 0.206818181818182,
                "tempo": 120.0
            },
            {
                "start_time": 13.863636363636363,
                "end_time": 14.072727272727272,
                "pitch": 55,
                "velocity": 51,
                "duration": 0.209090909090909,
                "tempo": 120.0
            },
            {
                "start_time": 14.088636363636363,
                "end_time": 14.293181818181818,
                "pitch": 47,
                "velocity": 51,
                "duration": 0.20454545454545503,
                "tempo": 120.0
            },
            {
                "start_time": 14.311363636363636,
                "end_time": 14.534090909090908,
                "pitch": 50,
                "velocity": 51,
                "duration": 0.22272727272727266,
                "tempo": 120.0
            },
            {
                "start_time": 14.549999999999999,
                "end_time": 14.768181818181818,
                "pitch": 48,
                "velocity": 51,
                "duration": 0.2181818181818187,
                "tempo": 120.0
            },
            {
                "start_time": 14.784090909090908,
                "end_time": 14.986363636363636,
                "pitch": 55,
                "velocity": 51,
                "duration": 0.20227272727272805,
                "tempo": 120.0
            },
            {
                "start_time": 15.018181818181818,
                "end_time": 15.220454545454544,
                "pitch": 48,
                "velocity": 51,
                "duration": 0.20227272727272627,
                "tempo": 120.0
            },
            {
                "start_time": 15.236363636363636,
                "end_time": 15.454545454545453,
                "pitch": 55,
                "velocity": 51,
                "duration": 0.21818181818181692,
                "tempo": 120.0
            },
            {
                "start_time": 15.470454545454544,
                "end_time": 15.684090909090909,
                "pitch": 48,
                "velocity": 51,
                "duration": 0.21363636363636473,
                "tempo": 120.0
            },
            {
                "start_time": 15.7,
                "end_time": 15.895454545454545,
                "pitch": 55,
                "velocity": 51,
                "duration": 0.19545454545454533,
                "tempo": 120.0
            },
            {
                "start_time": 15.911363636363635,
                "end_time": 16.125,
                "pitch": 48,
                "velocity": 51,
                "duration": 0.21363636363636473,
                "tempo": 120.0
            },
            {
                "start_time": 16.14090909090909,
                "end_time": 16.354545454545455,
                "pitch": 55,
                "velocity": 51,
                "duration": 0.21363636363636473,
                "tempo": 120.0
            },
            {
                "start_time": 16.370454545454546,
                "end_time": 16.570454545454545,
                "pitch": 46,
                "velocity": 51,
                "duration": 0.1999999999999993,
                "tempo": 120.0
            },
            {
                "start_time": 16.604545454545455,
                "end_time": 16.804545454545455,
                "pitch": 53,
                "velocity": 51,
                "duration": 0.1999999999999993,
                "tempo": 120.0
            },
            {
                "start_time": 16.820454545454545,
                "end_time": 17.034090909090907,
                "pitch": 46,
                "velocity": 51,
                "duration": 0.21363636363636118,
                "tempo": 120.0
            },
            {
                "start_time": 17.05,
                "end_time": 17.263636363636362,
                "pitch": 53,
                "velocity": 51,
                "duration": 0.21363636363636118,
                "tempo": 120.0
            },
            {
                "start_time": 17.279545454545453,
                "end_time": 17.48409090909091,
                "pitch": 46,
                "velocity": 51,
                "duration": 0.2045454545454568,
                "tempo": 120.0
            },
            {
                "start_time": 17.502272727272725,
                "end_time": 17.724999999999998,
                "pitch": 53,
                "velocity": 51,
                "duration": 0.22272727272727266,
                "tempo": 120.0
            },
            {
                "start_time": 17.74090909090909,
                "end_time": 17.954545454545453,
                "pitch": 46,
                "velocity": 51,
                "duration": 0.21363636363636473,
                "tempo": 120.0
            },
            {
                "start_time": 17.970454545454544,
                "end_time": 18.16590909090909,
                "pitch": 53,
                "velocity": 51,
                "duration": 0.19545454545454533,
                "tempo": 120.0
            },
            {
                "start_time": 18.2,
                "end_time": 18.404545454545453,
                "pitch": 44,
                "velocity": 51,
                "duration": 0.20454545454545325,
                "tempo": 120.0
            },
            {
                "start_time": 18.422727272727272,
                "end_time": 18.645454545454545,
                "pitch": 51,
                "velocity": 51,
                "duration": 0.22272727272727266,
                "tempo": 120.0
            },
            {
                "start_time": 18.661363636363635,
                "end_time": 18.875,
                "pitch": 44,
                "velocity": 51,
                "duration": 0.21363636363636473,
                "tempo": 120.0
            },
            {
                "start_time": 18.89090909090909,
                "end_time": 19.086363636363636,
                "pitch": 51,
                "velocity": 51,
                "duration": 0.19545454545454533,
                "tempo": 120.0
            },
            {
                "start_time": 19.102272727272727,
                "end_time": 19.31590909090909,
                "pitch": 44,
                "velocity": 51,
                "duration": 0.21363636363636473,
                "tempo": 120.0
            },
            {
                "start_time": 19.331818181818182,
                "end_time": 19.545454545454543,
                "pitch": 51,
                "velocity": 51,
                "duration": 0.21363636363636118,
                "tempo": 120.0
            },
            {
                "start_time": 19.561363636363634,
                "end_time": 19.761363636363637,
                "pitch": 44,
                "velocity": 51,
                "duration": 0.20000000000000284,
                "tempo": 120.0
            },
            {
                "start_time": 19.795454545454543,
                "end_time": 19.995454545454546,
                "pitch": 51,
                "velocity": 51,
                "duration": 0.20000000000000284,
                "tempo": 120.0
            },
            {
                "start_time": 20.013636363636362,
                "end_time": 20.224999999999998,
                "pitch": 43,
                "velocity": 51,
                "duration": 0.21136363636363598,
                "tempo": 120.0
            },
            {
                "start_time": 20.24090909090909,
                "end_time": 20.454545454545453,
                "pitch": 50,
                "velocity": 51,
                "duration": 0.21363636363636473,
                "tempo": 120.0
            },
            {
                "start_time": 20.470454545454544,
                "end_time": 20.675,
                "pitch": 43,
                "velocity": 51,
                "duration": 0.2045454545454568,
                "tempo": 120.0
            },
            {
                "start_time": 20.693181818181817,
                "end_time": 20.91590909090909,
                "pitch": 50,
                "velocity": 51,
                "duration": 0.22272727272727266,
                "tempo": 120.0
            },
            {
                "start_time": 20.93181818181818,
                "end_time": 21.15,
                "pitch": 43,
                "velocity": 51,
                "duration": 0.2181818181818187,
                "tempo": 120.0
            },
            {
                "start_time": 21.168181818181818,
                "end_time": 21.368181818181817,
                "pitch": 50,
                "velocity": 51,
                "duration": 0.1999999999999993,
                "tempo": 120.0
            },
            {
                "start_time": 21.402272727272727,
                "end_time": 21.602272727272727,
                "pitch": 43,
                "velocity": 51,
                "duration": 0.1999999999999993,
                "tempo": 120.0
            },
            {
                "start_time": 21.618181818181817,
                "end_time": 21.836363636363636,
                "pitch": 50,
                "velocity": 51,
                "duration": 0.2181818181818187,
                "tempo": 120.0
            },
            {
                "start_time": 21.852272727272727,
                "end_time": 22.06590909090909,
                "pitch": 48,
                "velocity": 51,
                "duration": 0.21363636363636473,
                "tempo": 120.0
            },
            {
                "start_time": 22.081818181818182,
                "end_time": 22.277272727272727,
                "pitch": 55,
                "velocity": 51,
                "duration": 0.19545454545454533,
                "tempo": 120.0
            },
            {
                "start_time": 22.295454545454543,
                "end_time": 22.50681818181818,
                "pitch": 48,
                "velocity": 51,
                "duration": 0.21136363636363598,
                "tempo": 120.0
            },
            {
                "start_time": 22.522727272727273,
                "end_time": 22.736363636363635,
                "pitch": 55,
                "velocity": 51,
                "duration": 0.21363636363636118,
                "tempo": 120.0
            },
            {
                "start_time": 22.752272727272725,
                "end_time": 22.956818181818182,
                "pitch": 48,
                "velocity": 51,
                "duration": 0.2045454545454568,
                "tempo": 120.0
            },
            {
                "start_time": 22.99090909090909,
                "end_time": 23.19772727272727,
                "pitch": 55,
                "velocity": 51,
                "duration": 0.206818181818182,
                "tempo": 120.0
            },
            {
                "start_time": 23.21363636363636,
                "end_time": 23.422727272727272,
                "pitch": 48,
                "velocity": 51,
                "duration": 0.20909090909091077,
                "tempo": 120.0
            },
            {
                "start_time": 23.438636363636363,
                "end_time": 23.645454545454545,
                "pitch": 55,
                "velocity": 51,
                "duration": 0.206818181818182,
                "tempo": 120.0
            },
            {
                "start_time": 23.661363636363635,
                "end_time": 23.868181818181817,
                "pitch": 46,
                "velocity": 51,
                "duration": 0.206818181818182,
                "tempo": 120.0
            },
            {
                "start_time": 23.884090909090908,
                "end_time": 24.10681818181818,
                "pitch": 53,
                "velocity": 51,
                "duration": 0.22272727272727266,
                "tempo": 120.0
            },
            {
                "start_time": 24.125,
                "end_time": 24.336363636363636,
                "pitch": 46,
                "velocity": 51,
                "duration": 0.21136363636363598,
                "tempo": 120.0
            },
            {
                "start_time": 24.352272727272727,
                "end_time": 24.549999999999997,
                "pitch": 53,
                "velocity": 51,
                "duration": 0.19772727272727053,
                "tempo": 120.0
            },
            {
                "start_time": 24.581818181818182,
                "end_time": 24.786363636363635,
                "pitch": 46,
                "velocity": 51,
                "duration": 0.20454545454545325,
                "tempo": 120.0
            },
            {
                "start_time": 24.804545454545455,
                "end_time": 25.027272727272727,
                "pitch": 53,
                "velocity": 51,
                "duration": 0.22272727272727266,
                "tempo": 120.0
            },
            {
                "start_time": 25.043181818181818,
                "end_time": 25.25681818181818,
                "pitch": 46,
                "velocity": 51,
                "duration": 0.21363636363636118,
                "tempo": 120.0
            },
            {
                "start_time": 25.27272727272727,
                "end_time": 25.470454545454544,
                "pitch": 53,
                "velocity": 51,
                "duration": 0.19772727272727408,
                "tempo": 120.0
            },
            {
                "start_time": 25.486363636363635,
                "end_time": 25.69772727272727,
                "pitch": 44,
                "velocity": 51,
                "duration": 0.21136363636363598,
                "tempo": 120.0
            },
            {
                "start_time": 25.71363636363636,
                "end_time": 25.927272727272726,
                "pitch": 51,
                "velocity": 51,
                "duration": 0.21363636363636473,
                "tempo": 120.0
            },
            {
                "start_time": 25.943181818181817,
                "end_time": 26.14772727272727,
                "pitch": 44,
                "velocity": 51,
                "duration": 0.20454545454545325,
                "tempo": 120.0
            },
            {
                "start_time": 26.18181818181818,
                "end_time": 26.388636363636362,
                "pitch": 51,
                "velocity": 51,
                "duration": 0.206818181818182,
                "tempo": 120.0
            },
            {
                "start_time": 26.404545454545453,
                "end_time": 26.618181818181817,
                "pitch": 44,
                "velocity": 51,
                "duration": 0.21363636363636473,
                "tempo": 120.0
            },
            {
                "start_time": 26.634090909090908,
                "end_time": 26.847727272727273,
                "pitch": 51,
                "velocity": 51,
                "duration": 0.21363636363636473,
                "tempo": 120.0
            },
            {
                "start_time": 26.863636363636363,
                "end_time": 27.063636363636363,
                "pitch": 44,
                "velocity": 51,
                "duration": 0.1999999999999993,
                "tempo": 120.0
            },
            {
                "start_time": 27.081818181818182,
                "end_time": 27.297727272727272,
                "pitch": 51,
                "velocity": 51,
                "duration": 0.21590909090908994,
                "tempo": 120.0
            },
            {
                "start_time": 27.315909090909088,
                "end_time": 27.527272727272727,
                "pitch": 43,
                "velocity": 51,
                "duration": 0.21136363636363953,
                "tempo": 120.0
            },
            {
                "start_time": 27.543181818181818,
                "end_time": 27.74090909090909,
                "pitch": 50,
                "velocity": 51,
                "duration": 0.19772727272727053,
                "tempo": 120.0
            },
            {
                "start_time": 27.77272727272727,
                "end_time": 27.977272727272727,
                "pitch": 43,
                "velocity": 51,
                "duration": 0.2045454545454568,
                "tempo": 120.0
            },
            {
                "start_time": 27.995454545454542,
                "end_time": 28.218181818181815,
                "pitch": 50,
                "velocity": 51,
                "duration": 0.22272727272727266,
                "tempo": 120.0
            },
            {
                "start_time": 28.23409090909091,
                "end_time": 28.44772727272727,
                "pitch": 43,
                "velocity": 51,
                "duration": 0.21363636363636118,
                "tempo": 120.0
            },
            {
                "start_time": 28.46363636363636,
                "end_time": 28.661363636363635,
                "pitch": 50,
                "velocity": 51,
                "duration": 0.19772727272727408,
                "tempo": 120.0
            },
            {
                "start_time": 28.677272727272726,
                "end_time": 28.775,
                "pitch": 43,
                "velocity": 51,
                "duration": 0.09772727272727266,
                "tempo": 120.0
            },
            {
                "start_time": 28.79090909090909,
                "end_time": 28.888636363636362,
                "pitch": 47,
                "velocity": 51,
                "duration": 0.09772727272727266,
                "tempo": 120.0
            },
            {
                "start_time": 28.90681818181818,
                "end_time": 29.004545454545454,
                "pitch": 50,
                "velocity": 51,
                "duration": 0.09772727272727266,
                "tempo": 120.0
            },
            {
                "start_time": 29.020454545454545,
                "end_time": 29.129545454545454,
                "pitch": 53,
                "velocity": 51,
                "duration": 0.10909090909090935,
                "tempo": 120.0
            }
        ],
        "Vibraphone": [
            {
                "start_time": 0.004545454545454545,
                "end_time": 1.3068181818181817,
                "pitch": 64,
                "velocity": 40,
                "duration": 1.302272727272727,
                "tempo": 120.0
            },
            {
                "start_time": 1.3227272727272728,
                "end_time": 1.768181818181818,
                "pitch": 65,
                "velocity": 40,
                "duration": 0.4454545454545453,
                "tempo": 120.0
            },
            {
                "start_time": 1.784090909090909,
                "end_time": 3.1295454545454544,
                "pitch": 64,
                "velocity": 40,
                "duration": 1.3454545454545455,
                "tempo": 120.0
            },
            {
                "start_time": 3.1477272727272725,
                "end_time": 3.5886363636363634,
                "pitch": 65,
                "velocity": 40,
                "duration": 0.4409090909090909,
                "tempo": 120.0
            },
            {
                "start_time": 3.6045454545454545,
                "end_time": 4.959090909090909,
                "pitch": 64,
                "velocity": 40,
                "duration": 1.3545454545454545,
                "tempo": 120.0
            },
            {
                "start_time": 4.977272727272727,
                "end_time": 5.402272727272727,
                "pitch": 65,
                "velocity": 40,
                "duration": 0.4250000000000007,
                "tempo": 120.0
            },
            {
                "start_time": 5.434090909090909,
                "end_time": 6.320454545454545,
                "pitch": 67,
                "velocity": 40,
                "duration": 0.8863636363636367,
                "tempo": 120.0
            },
            {
                "start_time": 6.338636363636363,
                "end_time": 7.24090909090909,
                "pitch": 65,
                "velocity": 40,
                "duration": 0.9022727272727273,
                "tempo": 120.0
            },
            {
                "start_time": 7.256818181818182,
                "end_time": 8.593181818181817,
                "pitch": 64,
                "velocity": 40,
                "duration": 1.336363636363635,
                "tempo": 120.0
            },
            {
                "start_time": 8.625,
                "end_time": 9.070454545454545,
                "pitch": 65,
                "velocity": 40,
                "duration": 0.4454545454545453,
                "tempo": 120.0
            },
            {
                "start_time": 9.086363636363636,
                "end_time": 10.422727272727272,
                "pitch": 64,
                "velocity": 40,
                "duration": 1.336363636363636,
                "tempo": 120.0
            },
            {
                "start_time": 10.438636363636363,
                "end_time": 10.89090909090909,
                "pitch": 65,
                "velocity": 40,
                "duration": 0.45227272727272805,
                "tempo": 120.0
            },
            {
                "start_time": 10.906818181818181,
                "end_time": 12.261363636363635,
                "pitch": 64,
                "velocity": 40,
                "duration": 1.3545454545454536,
                "tempo": 120.0
            },
            {
                "start_time": 12.279545454545454,
                "end_time": 12.704545454545453,
                "pitch": 65,
                "velocity": 40,
                "duration": 0.42499999999999893,
                "tempo": 120.0
            },
            {
                "start_time": 12.720454545454546,
                "end_time": 13.622727272727271,
                "pitch": 59,
                "velocity": 40,
                "duration": 0.9022727272727256,
                "tempo": 120.0
            },
            {
                "start_time": 13.64090909090909,
                "end_time": 14.072727272727272,
                "pitch": 57,
                "velocity": 40,
                "duration": 0.43181818181818166,
                "tempo": 120.0
            },
            {
                "start_time": 14.088636363636363,
                "end_time": 14.534090909090908,
                "pitch": 55,
                "velocity": 40,
                "duration": 0.4454545454545453,
                "tempo": 120.0
            },
            {
                "start_time": 14.549999999999999,
                "end_time": 14.834090909090909,
                "pitch": 60,
                "velocity": 40,
                "duration": 0.28409090909091006,
                "tempo": 120.0
            },
            {
                "start_time": 14.852272727272727,
                "end_time": 15.220454545454544,
                "pitch": 60,
                "velocity": 40,
                "duration": 0.3681818181818173,
                "tempo": 120.0
            },
            {
                "start_time": 15.236363636363636,
                "end_time": 15.568181818181817,
                "pitch": 60,
                "velocity": 40,
                "duration": 0.33181818181818024,
                "tempo": 120.0
            },
            {
                "start_time": 15.584090909090909,
                "end_time": 15.684090909090909,
                "pitch": 60,
                "velocity": 40,
                "duration": 0.09999999999999964,
                "tempo": 120.0
            },
            {
                "start_time": 15.7,
                "end_time": 15.895454545454545,
                "pitch": 62,
                "velocity": 40,
                "duration": 0.19545454545454533,
                "tempo": 120.0
            },
            {
                "start_time": 15.911363636363635,
                "end_time": 16.125,
                "pitch": 60,
                "velocity": 40,
                "duration": 0.21363636363636473,
                "tempo": 120.0
            },
            {
                "start_time": 16.14090909090909,
                "end_time": 16.354545454545455,
                "pitch": 60,
                "velocity": 40,
                "duration": 0.21363636363636473,
                "tempo": 120.0
            },
            {
                "start_time": 16.370454545454546,
                "end_time": 16.654545454545453,
                "pitch": 60,
                "velocity": 40,
                "duration": 0.2840909090909065,
                "tempo": 120.0
            },
            {
                "start_time": 16.670454545454543,
                "end_time": 17.034090909090907,
                "pitch": 60,
                "velocity": 40,
                "duration": 0.3636363636363633,
                "tempo": 120.0
            },
            {
                "start_time": 17.05,
                "end_time": 17.36590909090909,
                "pitch": 60,
                "velocity": 40,
                "duration": 0.3159090909090878,
                "tempo": 120.0
            },
            {
                "start_time": 17.4,
                "end_time": 17.48409090909091,
                "pitch": 60,
                "velocity": 40,
                "duration": 0.08409090909091077,
                "tempo": 120.0
            },
            {
                "start_time": 17.502272727272725,
                "end_time": 17.724999999999998,
                "pitch": 62,
                "velocity": 40,
                "duration": 0.22272727272727266,
                "tempo": 120.0
            },
            {
                "start_time": 17.74090909090909,
                "end_time": 17.954545454545453,
                "pitch": 60,
                "velocity": 40,
                "duration": 0.21363636363636473,
                "tempo": 120.0
            },
            {
                "start_time": 17.970454545454544,
                "end_time": 18.16590909090909,
                "pitch": 60,
                "velocity": 40,
                "duration": 0.19545454545454533,
                "tempo": 120.0
            },
            {
                "start_time": 18.2,
                "end_time": 18.49090909090909,
                "pitch": 60,
                "velocity": 40,
                "duration": 0.29090909090908923,
                "tempo": 120.0
            },
            {
                "start_time": 18.50681818181818,
                "end_time": 18.875,
                "pitch": 60,
                "velocity": 40,
                "duration": 0.36818181818182083,
                "tempo": 120.0
            },
            {
                "start_time": 18.89090909090909,
                "end_time": 19.202272727272728,
                "pitch": 60,
                "velocity": 40,
                "duration": 0.3113636363636374,
                "tempo": 120.0
            },
            {
                "start_time": 19.21818181818182,
                "end_time": 19.31590909090909,
                "pitch": 60,
                "velocity": 40,
                "duration": 0.09772727272727266,
                "tempo": 120.0
            },
            {
                "start_time": 19.331818181818182,
                "end_time": 19.545454545454543,
                "pitch": 62,
                "velocity": 40,
                "duration": 0.21363636363636118,
                "tempo": 120.0
            },
            {
                "start_time": 19.561363636363634,
                "end_time": 19.761363636363637,
                "pitch": 64,
                "velocity": 40,
                "duration": 0.20000000000000284,
                "tempo": 120.0
            },
            {
                "start_time": 19.795454545454543,
                "end_time": 19.995454545454546,
                "pitch": 62,
                "velocity": 40,
                "duration": 0.20000000000000284,
                "tempo": 120.0
            },
            {
                "start_time": 20.013636363636362,
                "end_time": 20.91590909090909,
                "pitch": 60,
                "velocity": 40,
                "duration": 0.9022727272727273,
                "tempo": 120.0
            },
            {
                "start_time": 20.93181818181818,
                "end_time": 21.836363636363636,
                "pitch": 59,
                "velocity": 40,
                "duration": 0.9045454545454561,
                "tempo": 120.0
            },
            {
                "start_time": 21.852272727272727,
                "end_time": 22.13181818181818,
                "pitch": 52,
                "velocity": 40,
                "duration": 0.27954545454545254,
                "tempo": 120.0
            },
            {
                "start_time": 22.147727272727273,
                "end_time": 22.50681818181818,
                "pitch": 60,
                "velocity": 40,
                "duration": 0.3590909090909058,
                "tempo": 120.0
            },
            {
                "start_time": 22.522727272727273,
                "end_time": 22.854545454545452,
                "pitch": 60,
                "velocity": 40,
                "duration": 0.33181818181817846,
                "tempo": 120.0
            },
            {
                "start_time": 22.87272727272727,
                "end_time": 22.956818181818182,
                "pitch": 60,
                "velocity": 40,
                "duration": 0.08409090909091077,
                "tempo": 120.0
            },
            {
                "start_time": 22.99090909090909,
                "end_time": 23.19772727272727,
                "pitch": 62,
                "velocity": 40,
                "duration": 0.206818181818182,
                "tempo": 120.0
            },
            {
                "start_time": 23.21363636363636,
                "end_time": 23.422727272727272,
                "pitch": 60,
                "velocity": 40,
                "duration": 0.20909090909091077,
                "tempo": 120.0
            },
            {
                "start_time": 23.438636363636363,
                "end_time": 23.645454545454545,
                "pitch": 60,
                "velocity": 40,
                "duration": 0.206818181818182,
                "tempo": 120.0
            },
            {
                "start_time": 23.661363636363635,
                "end_time": 23.952272727272724,
                "pitch": 50,
                "velocity": 40,
                "duration": 0.29090909090908923,
                "tempo": 120.0
            },
            {
                "start_time": 23.970454545454544,
                "end_time": 24.336363636363636,
                "pitch": 62,
                "velocity": 40,
                "duration": 0.36590909090909207,
                "tempo": 120.0
            },
            {
                "start_time": 24.352272727272727,
                "end_time": 24.668181818181818,
                "pitch": 62,
                "velocity": 40,
                "duration": 0.31590909090909136,
                "tempo": 120.0
            },
            {
                "start_time": 24.68409090909091,
                "end_time": 24.786363636363635,
                "pitch": 62,
                "velocity": 40,
                "duration": 0.10227272727272663,
                "tempo": 120.0
            },
            {
                "start_time": 24.804545454545455,
                "end_time": 25.027272727272727,
                "pitch": 60,
                "velocity": 40,
                "duration": 0.22272727272727266,
                "tempo": 120.0
            },
            {
                "start_time": 25.043181818181818,
                "end_time": 25.25681818181818,
                "pitch": 62,
                "velocity": 40,
                "duration": 0.21363636363636118,
                "tempo": 120.0
            },
            {
                "start_time": 25.27272727272727,
                "end_time": 25.470454545454544,
                "pitch": 62,
                "velocity": 40,
                "duration": 0.19772727272727408,
                "tempo": 120.0
            },
            {
                "start_time": 25.486363636363635,
                "end_time": 25.779545454545453,
                "pitch": 52,
                "velocity": 40,
                "duration": 0.293181818181818,
                "tempo": 120.0
            },
            {
                "start_time": 25.795454545454543,
                "end_time": 26.14772727272727,
                "pitch": 60,
                "velocity": 40,
                "duration": 0.3522727272727266,
                "tempo": 120.0
            },
            {
                "start_time": 26.18181818181818,
                "end_time": 26.504545454545454,
                "pitch": 60,
                "velocity": 40,
                "duration": 0.3227272727272741,
                "tempo": 120.0
            },
            {
                "start_time": 26.520454545454545,
                "end_time": 26.618181818181817,
                "pitch": 60,
                "velocity": 40,
                "duration": 0.09772727272727266,
                "tempo": 120.0
            },
            {
                "start_time": 26.634090909090908,
                "end_time": 26.847727272727273,
                "pitch": 62,
                "velocity": 40,
                "duration": 0.21363636363636473,
                "tempo": 120.0
            },
            {
                "start_time": 26.863636363636363,
                "end_time": 27.063636363636363,
                "pitch": 64,
                "velocity": 40,
                "duration": 0.1999999999999993,
                "tempo": 120.0
            },
            {
                "start_time": 27.081818181818182,
                "end_time": 27.297727272727272,
                "pitch": 62,
                "velocity": 40,
                "duration": 0.21590909090908994,
                "tempo": 120.0
            },
            {
                "start_time": 27.315909090909088,
                "end_time": 28.218181818181815,
                "pitch": 60,
                "velocity": 40,
                "duration": 0.9022727272727273,
                "tempo": 120.0
            },
            {
                "start_time": 28.23409090909091,
                "end_time": 28.661363636363635,
                "pitch": 59,
                "velocity": 40,
                "duration": 0.4272727272727259,
                "tempo": 120.0
            },
            {
                "start_time": 28.677272727272726,
                "end_time": 29.129545454545454,
                "pitch": 53,
                "velocity": 40,
                "duration": 0.45227272727272805,
                "tempo": 120.0
            }
        ]
    }
}