{
    "track_id": "Megumi Rescue (FM) - 02 - Rounds 1-10",
    "mood": "happy",
    "instruments": {
        "French Horn": [
            {
                "start_time": 0.004545454545454545,
                "end_time": 0.2545454545454545,
                "pitch": 64,
                "velocity": 64,
                "duration": 0.24999999999999997,
                "tempo": 120.0
            },
            {
                "start_time": 0.2727272727272727,
                "end_time": 0.3886363636363636,
                "pitch": 67,
                "velocity": 64,
                "duration": 0.1159090909090909,
                "tempo": 120.0
            },
            {
                "start_time": 0.40454545454545454,
                "end_time": 0.65,
                "pitch": 69,
                "velocity": 64,
                "duration": 0.24545454545454548,
                "tempo": 120.0
            },
            {
                "start_time": 0.6659090909090909,
                "end_time": 0.7818181818181817,
                "pitch": 64,
                "velocity": 64,
                "duration": 0.11590909090909085,
                "tempo": 120.0
            },
            {
                "start_time": 0.7977272727272727,
                "end_time": 1.05,
                "pitch": 67,
                "velocity": 64,
                "duration": 0.2522727272727273,
                "tempo": 120.0
            },
            {
                "start_time": 1.065909090909091,
                "end_time": 1.184090909090909,
                "pitch": 69,
                "velocity": 64,
                "duration": 0.11818181818181817,
                "tempo": 120.0
            },
            {
                "start_time": 1.2,
                "end_time": 1.45,
                "pitch": 64,
                "velocity": 64,
                "duration": 0.25,
                "tempo": 120.0
            },
            {
                "start_time": 1.4659090909090908,
                "end_time": 1.584090909090909,
                "pitch": 67,
                "velocity": 64,
                "duration": 0.11818181818181817,
                "tempo": 120.0
            },
            {
                "start_time": 1.5999999999999999,
                "end_time": 1.8522727272727273,
                "pitch": 70,
                "velocity": 64,
                "duration": 0.2522727272727274,
                "tempo": 120.0
            },
            {
                "start_time": 1.8681818181818182,
                "end_time": 2.252272727272727,
                "pitch": 70,
                "velocity": 64,
                "duration": 0.3840909090909088,
                "tempo": 120.0
            },
            {
                "start_time": 2.2704545454545455,
                "end_time": 2.6545454545454543,
                "pitch": 70,
                "velocity": 64,
                "duration": 0.3840909090909088,
                "tempo": 120.0
            },
            {
                "start_time": 2.6704545454545454,
                "end_time": 2.7886363636363636,
                "pitch": 69,
                "velocity": 64,
                "duration": 0.11818181818181817,
                "tempo": 120.0
            },
            {
                "start_time": 2.8045454545454542,
                "end_time": 3.0545454545454542,
                "pitch": 67,
                "velocity": 64,
                "duration": 0.25,
                "tempo": 120.0
            },
            {
                "start_time": 3.0727272727272728,
                "end_time": 3.1886363636363635,
                "pitch": 69,
                "velocity": 64,
                "duration": 0.11590909090909074,
                "tempo": 120.0
            },
            {
                "start_time": 3.2045454545454546,
                "end_time": 3.4545454545454546,
                "pitch": 69,
                "velocity": 64,
                "duration": 0.25,
                "tempo": 120.0
            },
            {
                "start_time": 3.4727272727272727,
                "end_time": 3.5886363636363634,
                "pitch": 72,
                "velocity": 64,
                "duration": 0.11590909090909074,
                "tempo": 120.0
            },
            {
                "start_time": 3.6045454545454545,
                "end_time": 3.8545454545454545,
                "pitch": 74,
                "velocity": 64,
                "duration": 0.25,
                "tempo": 120.0
            },
            {
                "start_time": 3.8727272727272726,
                "end_time": 3.9886363636363633,
                "pitch": 69,
                "velocity": 64,
                "duration": 0.11590909090909074,
                "tempo": 120.0
            },
            {
                "start_time": 4.004545454545454,
                "end_time": 4.254545454545454,
                "pitch": 72,
                "velocity": 64,
                "duration": 0.25,
                "tempo": 120.0
            },
            {
                "start_time": 4.2727272727272725,
                "end_time": 4.388636363636364,
                "pitch": 74,
                "velocity": 64,
                "duration": 0.11590909090909118,
                "tempo": 120.0
            },
            {
                "start_time": 4.404545454545454,
                "end_time": 4.656818181818181,
                "pitch": 69,
                "velocity": 64,
                "duration": 0.252272727272727,
                "tempo": 120.0
            },
            {
                "start_time": 4.675,
                "end_time": 4.790909090909091,
                "pitch": 72,
                "velocity": 64,
                "duration": 0.11590909090909118,
                "tempo": 120.0
            },
            {
                "start_time": 4.809090909090909,
                "end_time": 5.059090909090909,
                "pitch": 75,
                "velocity": 64,
                "duration": 0.25,
                "tempo": 120.0
            },
            {
                "start_time": 5.075,
                "end_time": 5.459090909090909,
                "pitch": 75,
                "velocity": 64,
                "duration": 0.3840909090909088,
                "tempo": 120.0
            },
            {
                "start_time": 5.477272727272727,
                "end_time": 5.863636363636363,
                "pitch": 75,
                "velocity": 64,
                "duration": 0.3863636363636367,
                "tempo": 120.0
            },
            {
                "start_time": 5.879545454545454,
                "end_time": 5.997727272727272,
                "pitch": 74,
                "velocity": 64,
                "duration": 0.11818181818181817,
                "tempo": 120.0
            },
            {
                "start_time": 6.013636363636364,
                "end_time": 6.263636363636364,
                "pitch": 72,
                "velocity": 64,
                "duration": 0.25,
                "tempo": 120.0
            },
            {
                "start_time": 6.279545454545454,
                "end_time": 6.3977272727272725,
                "pitch": 74,
                "velocity": 64,
                "duration": 0.11818181818181817,
                "tempo": 120.0
            },
            {
                "start_time": 6.413636363636363,
                "end_time": 6.597727272727273,
                "pitch": 72,
                "velocity": 64,
                "duration": 0.18409090909090953,
                "tempo": 120.0
            },
            {
                "start_time": 6.8159090909090905,
                "end_time": 7.0659090909090905,
                "pitch": 67,
                "velocity": 64,
                "duration": 0.25,
                "tempo": 120.0
            },
            {
                "start_time": 7.081818181818181,
                "end_time": 7.468181818181818,
                "pitch": 69,
                "velocity": 64,
                "duration": 0.3863636363636367,
                "tempo": 120.0
            },
            {
                "start_time": 7.4840909090909085,
                "end_time": 7.602272727272727,
                "pitch": 67,
                "velocity": 64,
                "duration": 0.11818181818181817,
                "tempo": 120.0
            },
            {
                "start_time": 7.618181818181818,
                "end_time": 8.004545454545454,
                "pitch": 69,
                "velocity": 64,
                "duration": 0.3863636363636358,
                "tempo": 120.0
            },
            {
                "start_time": 8.020454545454545,
                "end_time": 8.204545454545455,
                "pitch": 70,
                "velocity": 64,
                "duration": 0.18409090909091042,
                "tempo": 120.0
            },
            {
                "start_time": 8.422727272727272,
                "end_time": 8.672727272727272,
                "pitch": 65,
                "velocity": 64,
                "duration": 0.25,
                "tempo": 120.0
            },
            {
                "start_time": 8.690909090909091,
                "end_time": 9.075,
                "pitch": 67,
                "velocity": 64,
                "duration": 0.38409090909090793,
                "tempo": 120.0
            },
            {
                "start_time": 9.093181818181817,
                "end_time": 9.209090909090909,
                "pitch": 65,
                "velocity": 64,
                "duration": 0.11590909090909207,
                "tempo": 120.0
            },
            {
                "start_time": 9.227272727272727,
                "end_time": 9.613636363636363,
                "pitch": 67,
                "velocity": 64,
                "duration": 0.3863636363636367,
                "tempo": 120.0
            },
            {
                "start_time": 9.629545454545454,
                "end_time": 9.879545454545454,
                "pitch": 69,
                "velocity": 64,
                "duration": 0.25,
                "tempo": 120.0
            },
            {
                "start_time": 9.895454545454545,
                "end_time": 10.013636363636364,
                "pitch": 72,
                "velocity": 64,
                "duration": 0.11818181818181905,
                "tempo": 120.0
            },
            {
                "start_time": 10.029545454545454,
                "end_time": 10.281818181818181,
                "pitch": 74,
                "velocity": 64,
                "duration": 0.252272727272727,
                "tempo": 120.0
            },
            {
                "start_time": 10.297727272727272,
                "end_time": 10.415909090909091,
                "pitch": 72,
                "velocity": 64,
                "duration": 0.11818181818181905,
                "tempo": 120.0
            },
            {
                "start_time": 10.431818181818182,
                "end_time": 10.684090909090909,
                "pitch": 74,
                "velocity": 64,
                "duration": 0.252272727272727,
                "tempo": 120.0
            },
            {
                "start_time": 10.7,
                "end_time": 11.220454545454546,
                "pitch": 76,
                "velocity": 64,
                "duration": 0.5204545454545464,
                "tempo": 120.0
            },
            {
                "start_time": 11.238636363636363,
                "end_time": 11.622727272727273,
                "pitch": 72,
                "velocity": 64,
                "duration": 0.3840909090909097,
                "tempo": 120.0
            },
            {
                "start_time": 12.040909090909091,
                "end_time": 12.825,
                "pitch": 70,
                "velocity": 64,
                "duration": 0.7840909090909083,
                "tempo": 120.0
            },
            {
                "start_time": 12.843181818181817,
                "end_time": 13.027272727272727,
                "pitch": 69,
                "velocity": 64,
                "duration": 0.18409090909091042,
                "tempo": 120.0
            },
            {
                "start_time": 13.245454545454544,
                "end_time": 13.497727272727271,
                "pitch": 77,
                "velocity": 64,
                "duration": 0.252272727272727,
                "tempo": 120.0
            },
            {
                "start_time": 13.513636363636364,
                "end_time": 13.631818181818181,
                "pitch": 74,
                "velocity": 64,
                "duration": 0.11818181818181728,
                "tempo": 120.0
            },
            {
                "start_time": 13.915909090909091,
                "end_time": 14.031818181818181,
                "pitch": 72,
                "velocity": 64,
                "duration": 0.1159090909090903,
                "tempo": 120.0
            },
            {
                "start_time": 14.047727272727272,
                "end_time": 14.434090909090909,
                "pitch": 74,
                "velocity": 64,
                "duration": 0.3863636363636367,
                "tempo": 120.0
            },
            {
                "start_time": 14.452272727272726,
                "end_time": 14.636363636363635,
                "pitch": 69,
                "velocity": 64,
                "duration": 0.18409090909090864,
                "tempo": 120.0
            },
            {
                "start_time": 14.854545454545454,
                "end_time": 15.10681818181818,
                "pitch": 77,
                "velocity": 64,
                "duration": 0.252272727272727,
                "tempo": 120.0
            },
            {
                "start_time": 15.122727272727271,
                "end_time": 15.24090909090909,
                "pitch": 74,
                "velocity": 64,
                "duration": 0.11818181818181905,
                "tempo": 120.0
            },
            {
                "start_time": 15.524999999999999,
                "end_time": 15.643181818181818,
                "pitch": 72,
                "velocity": 64,
                "duration": 0.11818181818181905,
                "tempo": 120.0
            },
            {
                "start_time": 15.659090909090908,
                "end_time": 16.043181818181818,
                "pitch": 74,
                "velocity": 64,
                "duration": 0.3840909090909097,
                "tempo": 120.0
            },
            {
                "start_time": 16.05909090909091,
                "end_time": 16.311363636363634,
                "pitch": 67,
                "velocity": 64,
                "duration": 0.2522727272727252,
                "tempo": 120.0
            },
            {
                "start_time": 16.327272727272728,
                "end_time": 16.445454545454545,
                "pitch": 72,
                "velocity": 64,
                "duration": 0.11818181818181728,
                "tempo": 120.0
            },
            {
                "start_time": 16.729545454545455,
                "end_time": 16.845454545454544,
                "pitch": 67,
                "velocity": 64,
                "duration": 0.11590909090908852,
                "tempo": 120.0
            },
            {
                "start_time": 16.861363636363635,
                "end_time": 17.045454545454543,
                "pitch": 72,
                "velocity": 64,
                "duration": 0.18409090909090864,
                "tempo": 120.0
            },
            {
                "start_time": 17.261363636363637,
                "end_time": 17.513636363636362,
                "pitch": 76,
                "velocity": 64,
                "duration": 0.2522727272727252,
                "tempo": 120.0
            },
            {
                "start_time": 17.529545454545453,
                "end_time": 17.647727272727273,
                "pitch": 72,
                "velocity": 64,
                "duration": 0.11818181818182083,
                "tempo": 120.0
            },
            {
                "start_time": 17.925,
                "end_time": 18.04090909090909,
                "pitch": 77,
                "velocity": 64,
                "duration": 0.11590909090908852,
                "tempo": 120.0
            },
            {
                "start_time": 18.05681818181818,
                "end_time": 18.245454545454546,
                "pitch": 72,
                "velocity": 64,
                "duration": 0.18863636363636616,
                "tempo": 120.0
            },
            {
                "start_time": 18.46818181818182,
                "end_time": 18.849999999999998,
                "pitch": 67,
                "velocity": 64,
                "duration": 0.38181818181817917,
                "tempo": 120.0
            },
            {
                "start_time": 19.268181818181816,
                "end_time": 19.44772727272727,
                "pitch": 69,
                "velocity": 64,
                "duration": 0.17954545454545467,
                "tempo": 120.0
            },
            {
                "start_time": 19.659090909090907,
                "end_time": 19.91590909090909,
                "pitch": 77,
                "velocity": 64,
                "duration": 0.2568181818181827,
                "tempo": 120.0
            },
            {
                "start_time": 19.93409090909091,
                "end_time": 20.052272727272726,
                "pitch": 74,
                "velocity": 64,
                "duration": 0.11818181818181728,
                "tempo": 120.0
            },
            {
                "start_time": 20.33863636363636,
                "end_time": 20.456818181818182,
                "pitch": 72,
                "velocity": 64,
                "duration": 0.11818181818182083,
                "tempo": 120.0
            },
            {
                "start_time": 20.472727272727273,
                "end_time": 20.85681818181818,
                "pitch": 74,
                "velocity": 64,
                "duration": 0.38409090909090793,
                "tempo": 120.0
            },
            {
                "start_time": 20.87272727272727,
                "end_time": 21.05681818181818,
                "pitch": 69,
                "velocity": 64,
                "duration": 0.18409090909090864,
                "tempo": 120.0
            },
            {
                "start_time": 21.272727272727273,
                "end_time": 21.525,
                "pitch": 77,
                "velocity": 64,
                "duration": 0.2522727272727252,
                "tempo": 120.0
            },
            {
                "start_time": 21.54090909090909,
                "end_time": 21.659090909090907,
                "pitch": 74,
                "velocity": 64,
                "duration": 0.11818181818181728,
                "tempo": 120.0
            },
            {
                "start_time": 21.943181818181817,
                "end_time": 22.05909090909091,
                "pitch": 72,
                "velocity": 64,
                "duration": 0.11590909090909207,
                "tempo": 120.0
            },
            {
                "start_time": 22.075,
                "end_time": 22.461363636363636,
                "pitch": 74,
                "velocity": 64,
                "duration": 0.3863636363636367,
                "tempo": 120.0
            },
            {
                "start_time": 22.479545454545452,
                "end_time": 22.661363636363635,
                "pitch": 71,
                "velocity": 64,
                "duration": 0.18181818181818343,
                "tempo": 120.0
            },
            {
                "start_time": 22.879545454545454,
                "end_time": 23.061363636363634,
                "pitch": 71,
                "velocity": 64,
                "duration": 0.18181818181817988,
                "tempo": 120.0
            },
            {
                "start_time": 23.279545454545453,
                "end_time": 23.46363636363636,
                "pitch": 72,
                "velocity": 64,
                "duration": 0.18409090909090864,
                "tempo": 120.0
            },
            {
                "start_time": 23.68181818181818,
                "end_time": 23.93181818181818,
                "pitch": 73,
                "velocity": 64,
                "duration": 0.25,
                "tempo": 120.0
            },
            {
                "start_time": 23.94772727272727,
                "end_time": 24.063636363636363,
                "pitch": 74,
                "velocity": 64,
                "duration": 0.11590909090909207,
                "tempo": 120.0
            },
            {
                "start_time": 24.884090909090908,
                "end_time": 25.679545454545455,
                "pitch": 75,
                "velocity": 64,
                "duration": 0.7954545454545467,
                "tempo": 120.0
            },
            {
                "start_time": 25.69772727272727,
                "end_time": 25.936363636363634,
                "pitch": 64,
                "velocity": 64,
                "duration": 0.2386363636363633,
                "tempo": 120.0
            },
            {
                "start_time": 25.952272727272724,
                "end_time": 26.063636363636363,
                "pitch": 67,
                "velocity": 64,
                "duration": 0.11136363636363811,
                "tempo": 120.0
            },
            {
                "start_time": 26.079545454545453,
                "end_time": 26.336363636363636,
                "pitch": 69,
                "velocity": 64,
                "duration": 0.2568181818181827,
                "tempo": 120.0
            },
            {
                "start_time": 26.352272727272727,
                "end_time": 26.472727272727273,
                "pitch": 64,
                "velocity": 64,
                "duration": 0.12045454545454604,
                "tempo": 120.0
            },
            {
                "start_time": 26.488636363636363,
                "end_time": 26.73409090909091,
                "pitch": 67,
                "velocity": 64,
                "duration": 0.24545454545454604,
                "tempo": 120.0
            },
            {
                "start_time": 26.75,
                "end_time": 26.86590909090909,
                "pitch": 69,
                "velocity": 64,
                "duration": 0.11590909090908852,
                "tempo": 120.0
            },
            {
                "start_time": 26.88181818181818,
                "end_time": 27.138636363636362,
                "pitch": 64,
                "velocity": 64,
                "duration": 0.2568181818181827,
                "tempo": 120.0
            },
            {
                "start_time": 27.154545454545453,
                "end_time": 27.275,
                "pitch": 67,
                "velocity": 64,
                "duration": 0.12045454545454604,
                "tempo": 120.0
            },
            {
                "start_time": 27.293181818181818,
                "end_time": 27.536363636363635,
                "pitch": 70,
                "velocity": 64,
                "duration": 0.24318181818181728,
                "tempo": 120.0
            },
            {
                "start_time": 27.554545454545455,
                "end_time": 27.940909090909088,
                "pitch": 70,
                "velocity": 64,
                "duration": 0.38636363636363313,
                "tempo": 120.0
            },
            {
                "start_time": 27.959090909090907,
                "end_time": 28.347727272727273,
                "pitch": 70,
                "velocity": 64,
                "duration": 0.38863636363636545,
                "tempo": 120.0
            },
            {
                "start_time": 28.363636363636363,
                "end_time": 28.48181818181818,
                "pitch": 69,
                "velocity": 64,
                "duration": 0.11818181818181728,
                "tempo": 120.0
            },
            {
                "start_time": 28.49772727272727,
                "end_time": 28.74772727272727,
                "pitch": 67,
                "velocity": 64,
                "duration": 0.25,
                "tempo": 120.0
            },
            {
                "start_time": 28.763636363636362,
                "end_time": 28.88181818181818,
                "pitch": 69,
                "velocity": 64,
                "duration": 0.11818181818181728,
                "tempo": 120.0
            },
            {
                "start_time": 28.89772727272727,
                "end_time": 29.14772727272727,
                "pitch": 69,
                "velocity": 64,
                "duration": 0.25,
                "tempo": 120.0
            },
            {
                "start_time": 29.16363636363636,
                "end_time": 29.28181818181818,
                "pitch": 72,
                "velocity": 64,
                "duration": 0.11818181818182083,
                "tempo": 120.0
            },
            {
                "start_time": 29.297727272727272,
                "end_time": 29.549999999999997,
                "pitch": 74,
                "velocity": 64,
                "duration": 0.2522727272727252,
                "tempo": 120.0
            },
            {
                "start_time": 29.565909090909088,
                "end_time": 29.68409090909091,
                "pitch": 69,
                "velocity": 64,
                "duration": 0.11818181818182083,
                "tempo": 120.0
            },
            {
                "start_time": 29.7,
                "end_time": 29.95,
                "pitch": 72,
                "velocity": 64,
                "duration": 0.25,
                "tempo": 120.0
            },
            {
                "start_time": 29.968181818181815,
                "end_time": 30.084090909090907,
                "pitch": 74,
                "velocity": 64,
                "duration": 0.11590909090909207,
                "tempo": 120.0
            },
            {
                "start_time": 30.099999999999998,
                "end_time": 30.352272727272727,
                "pitch": 69,
                "velocity": 64,
                "duration": 0.25227272727272876,
                "tempo": 120.0
            },
            {
                "start_time": 30.368181818181817,
                "end_time": 30.486363636363635,
                "pitch": 72,
                "velocity": 64,
                "duration": 0.11818181818181728,
                "tempo": 120.0
            },
            {
                "start_time": 30.502272727272725,
                "end_time": 30.752272727272725,
                "pitch": 75,
                "velocity": 64,
                "duration": 0.25,
                "tempo": 120.0
            },
            {
                "start_time": 30.770454545454545,
                "end_time": 31.152272727272727,
                "pitch": 75,
                "velocity": 64,
                "duration": 0.3818181818181827,
                "tempo": 120.0
            },
            {
                "start_time": 31.170454545454543,
                "end_time": 31.554545454545455,
                "pitch": 75,
                "velocity": 64,
                "duration": 0.3840909090909115,
                "tempo": 120.0
            },
            {
                "start_time": 31.57272727272727,
                "end_time": 31.688636363636363,
                "pitch": 74,
                "velocity": 64,
                "duration": 0.11590909090909207,
                "tempo": 120.0
            },
            {
                "start_time": 31.706818181818182,
                "end_time": 31.956818181818182,
                "pitch": 72,
                "velocity": 64,
                "duration": 0.25,
                "tempo": 120.0
            },
            {
                "start_time": 31.972727272727273,
                "end_time": 32.08863636363636,
                "pitch": 74,
                "velocity": 64,
                "duration": 0.11590909090908852,
                "tempo": 120.0
            },
            {
                "start_time": 32.10681818181818,
                "end_time": 32.288636363636364,
                "pitch": 72,
                "velocity": 64,
                "duration": 0.18181818181818699,
                "tempo": 120.0
            },
            {
                "start_time": 32.50681818181818,
                "end_time": 32.75681818181818,
                "pitch": 67,
                "velocity": 64,
                "duration": 0.25,
                "tempo": 120.0
            },
            {
                "start_time": 32.77272727272727,
                "end_time": 33.15681818181818,
                "pitch": 69,
                "velocity": 64,
                "duration": 0.38409090909090793,
                "tempo": 120.0
            },
            {
                "start_time": 33.175,
                "end_time": 33.29090909090909,
                "pitch": 67,
                "velocity": 64,
                "duration": 0.11590909090909207,
                "tempo": 120.0
            },
            {
                "start_time": 33.309090909090905,
                "end_time": 33.69090909090909,
                "pitch": 69,
                "velocity": 64,
                "duration": 0.3818181818181827,
                "tempo": 120.0
            },
            {
                "start_time": 33.70909090909091,
                "end_time": 33.89090909090909,
                "pitch": 70,
                "velocity": 64,
                "duration": 0.18181818181817988,
                "tempo": 120.0
            },
            {
                "start_time": 34.10909090909091,
                "end_time": 34.35909090909091,
                "pitch": 65,
                "velocity": 64,
                "duration": 0.25,
                "tempo": 120.0
            },
            {
                "start_time": 34.375,
                "end_time": 34.75909090909091,
                "pitch": 67,
                "velocity": 64,
                "duration": 0.38409090909090793,
                "tempo": 120.0
            },
            {
                "start_time": 34.775,
                "end_time": 34.89090909090909,
                "pitch": 65,
                "velocity": 64,
                "duration": 0.11590909090909207,
                "tempo": 120.0
            },
            {
                "start_time": 34.90909090909091,
                "end_time": 35.29545454545455,
                "pitch": 67,
                "velocity": 64,
                "duration": 0.38636363636364024,
                "tempo": 120.0
            },
            {
                "start_time": 35.31136363636364,
                "end_time": 35.56136363636364,
                "pitch": 69,
                "velocity": 64,
                "duration": 0.25,
                "tempo": 120.0
            },
            {
                "start_time": 35.57727272727273,
                "end_time": 35.695454545454545,
                "pitch": 72,
                "velocity": 64,
                "duration": 0.11818181818181728,
                "tempo": 120.0
            },
            {
                "start_time": 35.711363636363636,
                "end_time": 35.961363636363636,
                "pitch": 74,
                "velocity": 64,
                "duration": 0.25,
                "tempo": 120.0
            },
            {
                "start_time": 35.97727272727273,
                "end_time": 36.095454545454544,
                "pitch": 72,
                "velocity": 64,
                "duration": 0.11818181818181728,
                "tempo": 120.0
            },
            {
                "start_time": 36.111363636363635,
                "end_time": 36.361363636363635,
                "pitch": 74,
                "velocity": 64,
                "duration": 0.25,
                "tempo": 120.0
            },
            {
                "start_time": 36.377272727272725,
                "end_time": 36.89545454545454,
                "pitch": 76,
                "velocity": 64,
                "duration": 0.5181818181818159,
                "tempo": 120.0
            },
            {
                "start_time": 36.91136363636363,
                "end_time": 37.69772727272727,
                "pitch": 72,
                "velocity": 64,
                "duration": 0.7863636363636388,
                "tempo": 120.0
            }
        ],
        "Acoustic Bass": [
            {
                "start_time": 0.004545454545454545,
                "end_time": 0.3886363636363636,
                "pitch": 48,
                "velocity": 51,
                "duration": 0.3840909090909091,
                "tempo": 120.0
            },
            {
                "start_time": 0.6022727272727273,
                "end_time": 0.7818181818181817,
                "pitch": 48,
                "velocity": 51,
                "duration": 0.17954545454545445,
                "tempo": 120.0
            },
            {
                "start_time": 0.7977272727272727,
                "end_time": 1.184090909090909,
                "pitch": 48,
                "velocity": 51,
                "duration": 0.38636363636363635,
                "tempo": 120.0
            },
            {
                "start_time": 1.5999999999999999,
                "end_time": 1.9863636363636363,
                "pitch": 48,
                "velocity": 51,
                "duration": 0.38636363636363646,
                "tempo": 120.0
            },
            {
                "start_time": 2.202272727272727,
                "end_time": 2.286363636363636,
                "pitch": 48,
                "velocity": 51,
                "duration": 0.084090909090909,
                "tempo": 120.0
            },
            {
                "start_time": 2.3022727272727272,
                "end_time": 2.3863636363636362,
                "pitch": 48,
                "velocity": 51,
                "duration": 0.084090909090909,
                "tempo": 120.0
            },
            {
                "start_time": 2.4022727272727273,
                "end_time": 2.5863636363636364,
                "pitch": 48,
                "velocity": 51,
                "duration": 0.18409090909090908,
                "tempo": 120.0
            },
            {
                "start_time": 2.6045454545454545,
                "end_time": 2.9886363636363633,
                "pitch": 48,
                "velocity": 51,
                "duration": 0.3840909090909088,
                "tempo": 120.0
            },
            {
                "start_time": 3.0045454545454544,
                "end_time": 3.1886363636363635,
                "pitch": 48,
                "velocity": 51,
                "duration": 0.18409090909090908,
                "tempo": 120.0
            },
            {
                "start_time": 3.2045454545454546,
                "end_time": 3.5886363636363634,
                "pitch": 41,
                "velocity": 51,
                "duration": 0.3840909090909088,
                "tempo": 120.0
            },
            {
                "start_time": 3.8045454545454542,
                "end_time": 3.9886363636363633,
                "pitch": 41,
                "velocity": 51,
                "duration": 0.18409090909090908,
                "tempo": 120.0
            },
            {
                "start_time": 4.004545454545454,
                "end_time": 4.388636363636364,
                "pitch": 41,
                "velocity": 51,
                "duration": 0.3840909090909097,
                "tempo": 120.0
            },
            {
                "start_time": 4.6068181818181815,
                "end_time": 4.6909090909090905,
                "pitch": 41,
                "velocity": 51,
                "duration": 0.084090909090909,
                "tempo": 120.0
            },
            {
                "start_time": 4.706818181818182,
                "end_time": 4.790909090909091,
                "pitch": 41,
                "velocity": 51,
                "duration": 0.084090909090909,
                "tempo": 120.0
            },
            {
                "start_time": 4.809090909090909,
                "end_time": 5.1909090909090905,
                "pitch": 41,
                "velocity": 51,
                "duration": 0.38181818181818183,
                "tempo": 120.0
            },
            {
                "start_time": 5.409090909090909,
                "end_time": 5.593181818181818,
                "pitch": 41,
                "velocity": 51,
                "duration": 0.18409090909090864,
                "tempo": 120.0
            },
            {
                "start_time": 5.611363636363636,
                "end_time": 5.795454545454545,
                "pitch": 41,
                "velocity": 51,
                "duration": 0.18409090909090864,
                "tempo": 120.0
            },
            {
                "start_time": 5.8113636363636365,
                "end_time": 6.197727272727272,
                "pitch": 41,
                "velocity": 51,
                "duration": 0.3863636363636358,
                "tempo": 120.0
            },
            {
                "start_time": 6.213636363636363,
                "end_time": 6.3977272727272725,
                "pitch": 41,
                "velocity": 51,
                "duration": 0.18409090909090953,
                "tempo": 120.0
            },
            {
                "start_time": 6.413636363636363,
                "end_time": 6.8,
                "pitch": 48,
                "velocity": 51,
                "duration": 0.3863636363636367,
                "tempo": 120.0
            },
            {
                "start_time": 7.015909090909091,
                "end_time": 7.1,
                "pitch": 48,
                "velocity": 51,
                "duration": 0.084090909090909,
                "tempo": 120.0
            },
            {
                "start_time": 7.11590909090909,
                "end_time": 7.199999999999999,
                "pitch": 48,
                "velocity": 51,
                "duration": 0.084090909090909,
                "tempo": 120.0
            },
            {
                "start_time": 7.215909090909091,
                "end_time": 7.3999999999999995,
                "pitch": 48,
                "velocity": 51,
                "duration": 0.18409090909090864,
                "tempo": 120.0
            },
            {
                "start_time": 7.418181818181818,
                "end_time": 7.804545454545454,
                "pitch": 48,
                "velocity": 51,
                "duration": 0.3863636363636358,
                "tempo": 120.0
            },
            {
                "start_time": 7.820454545454545,
                "end_time": 8.004545454545454,
                "pitch": 48,
                "velocity": 51,
                "duration": 0.18409090909090864,
                "tempo": 120.0
            },
            {
                "start_time": 8.020454545454545,
                "end_time": 8.404545454545454,
                "pitch": 46,
                "velocity": 51,
                "duration": 0.3840909090909097,
                "tempo": 120.0
            },
            {
                "start_time": 8.622727272727273,
                "end_time": 8.706818181818182,
                "pitch": 46,
                "velocity": 51,
                "duration": 0.084090909090909,
                "tempo": 120.0
            },
            {
                "start_time": 8.722727272727273,
                "end_time": 8.806818181818182,
                "pitch": 46,
                "velocity": 51,
                "duration": 0.084090909090909,
                "tempo": 120.0
            },
            {
                "start_time": 8.825,
                "end_time": 9.009090909090908,
                "pitch": 46,
                "velocity": 51,
                "duration": 0.18409090909090864,
                "tempo": 120.0
            },
            {
                "start_time": 9.025,
                "end_time": 9.411363636363635,
                "pitch": 46,
                "velocity": 51,
                "duration": 0.3863636363636349,
                "tempo": 120.0
            },
            {
                "start_time": 9.427272727272728,
                "end_time": 9.613636363636363,
                "pitch": 46,
                "velocity": 51,
                "duration": 0.18636363636363562,
                "tempo": 120.0
            },
            {
                "start_time": 9.629545454545454,
                "end_time": 10.013636363636364,
                "pitch": 41,
                "velocity": 51,
                "duration": 0.3840909090909097,
                "tempo": 120.0
            },
            {
                "start_time": 10.23181818181818,
                "end_time": 10.415909090909091,
                "pitch": 41,
                "velocity": 51,
                "duration": 0.18409090909091042,
                "tempo": 120.0
            },
            {
                "start_time": 10.431818181818182,
                "end_time": 10.61590909090909,
                "pitch": 43,
                "velocity": 51,
                "duration": 0.18409090909090864,
                "tempo": 120.0
            },
            {
                "start_time": 10.634090909090908,
                "end_time": 11.020454545454545,
                "pitch": 43,
                "velocity": 51,
                "duration": 0.3863636363636367,
                "tempo": 120.0
            },
            {
                "start_time": 11.036363636363635,
                "end_time": 11.220454545454546,
                "pitch": 43,
                "velocity": 51,
                "duration": 0.18409090909091042,
                "tempo": 120.0
            },
            {
                "start_time": 11.238636363636363,
                "end_time": 11.622727272727273,
                "pitch": 48,
                "velocity": 51,
                "duration": 0.3840909090909097,
                "tempo": 120.0
            },
            {
                "start_time": 11.84090909090909,
                "end_time": 12.220454545454546,
                "pitch": 48,
                "velocity": 51,
                "duration": 0.37954545454545574,
                "tempo": 120.0
            },
            {
                "start_time": 12.236363636363636,
                "end_time": 12.415909090909091,
                "pitch": 48,
                "velocity": 51,
                "duration": 0.17954545454545467,
                "tempo": 120.0
            },
            {
                "start_time": 12.431818181818182,
                "end_time": 12.620454545454544,
                "pitch": 50,
                "velocity": 51,
                "duration": 0.1886363636363626,
                "tempo": 120.0
            },
            {
                "start_time": 12.638636363636364,
                "end_time": 12.825,
                "pitch": 48,
                "velocity": 51,
                "duration": 0.18636363636363562,
                "tempo": 120.0
            },
            {
                "start_time": 12.843181818181817,
                "end_time": 13.027272727272727,
                "pitch": 41,
                "velocity": 51,
                "duration": 0.18409090909091042,
                "tempo": 120.0
            },
            {
                "start_time": 13.045454545454545,
                "end_time": 13.229545454545454,
                "pitch": 41,
                "velocity": 51,
                "duration": 0.18409090909090864,
                "tempo": 120.0
            },
            {
                "start_time": 13.245454545454544,
                "end_time": 13.429545454545455,
                "pitch": 41,
                "velocity": 51,
                "duration": 0.18409090909091042,
                "tempo": 120.0
            },
            {
                "start_time": 13.447727272727272,
                "end_time": 13.531818181818181,
                "pitch": 41,
                "velocity": 51,
                "duration": 0.084090909090909,
                "tempo": 120.0
            },
            {
                "start_time": 13.547727272727272,
                "end_time": 13.73181818181818,
                "pitch": 41,
                "velocity": 51,
                "duration": 0.18409090909090864,
                "tempo": 120.0
            },
            {
                "start_time": 13.747727272727271,
                "end_time": 13.831818181818182,
                "pitch": 41,
                "velocity": 51,
                "duration": 0.08409090909091077,
                "tempo": 120.0
            },
            {
                "start_time": 13.847727272727273,
                "end_time": 14.031818181818181,
                "pitch": 41,
                "velocity": 51,
                "duration": 0.18409090909090864,
                "tempo": 120.0
            },
            {
                "start_time": 14.047727272727272,
                "end_time": 14.234090909090908,
                "pitch": 41,
                "velocity": 51,
                "duration": 0.18636363636363562,
                "tempo": 120.0
            },
            {
                "start_time": 14.25,
                "end_time": 14.434090909090909,
                "pitch": 41,
                "velocity": 51,
                "duration": 0.18409090909090864,
                "tempo": 120.0
            },
            {
                "start_time": 14.452272727272726,
                "end_time": 14.636363636363635,
                "pitch": 41,
                "velocity": 51,
                "duration": 0.18409090909090864,
                "tempo": 120.0
            },
            {
                "start_time": 14.652272727272727,
                "end_time": 14.836363636363636,
                "pitch": 41,
                "velocity": 51,
                "duration": 0.18409090909090864,
                "tempo": 120.0
            },
            {
                "start_time": 14.854545454545454,
                "end_time": 15.038636363636362,
                "pitch": 41,
                "velocity": 51,
                "duration": 0.18409090909090864,
                "tempo": 120.0
            },
            {
                "start_time": 15.054545454545455,
                "end_time": 15.138636363636364,
                "pitch": 41,
                "velocity": 51,
                "duration": 0.084090909090909,
                "tempo": 120.0
            },
            {
                "start_time": 15.156818181818181,
                "end_time": 15.34090909090909,
                "pitch": 41,
                "velocity": 51,
                "duration": 0.18409090909090864,
                "tempo": 120.0
            },
            {
                "start_time": 15.35681818181818,
                "end_time": 15.44090909090909,
                "pitch": 41,
                "velocity": 51,
                "duration": 0.084090909090909,
                "tempo": 120.0
            },
            {
                "start_time": 15.459090909090909,
                "end_time": 15.643181818181818,
                "pitch": 41,
                "velocity": 51,
                "duration": 0.18409090909090864,
                "tempo": 120.0
            },
            {
                "start_time": 15.659090909090908,
                "end_time": 15.843181818181817,
                "pitch": 41,
                "velocity": 51,
                "duration": 0.18409090909090864,
                "tempo": 120.0
            },
            {
                "start_time": 15.859090909090908,
                "end_time": 16.043181818181818,
                "pitch": 41,
                "velocity": 51,
                "duration": 0.18409090909091042,
                "tempo": 120.0
            },
            {
                "start_time": 16.05909090909091,
                "end_time": 16.243181818181817,
                "pitch": 48,
                "velocity": 51,
                "duration": 0.18409090909090864,
                "tempo": 120.0
            },
            {
                "start_time": 16.261363636363637,
                "end_time": 16.445454545454545,
                "pitch": 48,
                "velocity": 51,
                "duration": 0.18409090909090864,
                "tempo": 120.0
            },
            {
                "start_time": 16.461363636363636,
                "end_time": 16.645454545454545,
                "pitch": 48,
                "velocity": 51,
                "duration": 0.18409090909090864,
                "tempo": 120.0
            },
            {
                "start_time": 16.661363636363635,
                "end_time": 16.745454545454546,
                "pitch": 48,
                "velocity": 51,
                "duration": 0.08409090909091077,
                "tempo": 120.0
            },
            {
                "start_time": 16.761363636363637,
                "end_time": 16.945454545454545,
                "pitch": 48,
                "velocity": 51,
                "duration": 0.18409090909090864,
                "tempo": 120.0
            },
            {
                "start_time": 16.961363636363636,
                "end_time": 17.045454545454543,
                "pitch": 48,
                "velocity": 51,
                "duration": 0.08409090909090722,
                "tempo": 120.0
            },
            {
                "start_time": 17.061363636363634,
                "end_time": 17.245454545454546,
                "pitch": 48,
                "velocity": 51,
                "duration": 0.1840909090909122,
                "tempo": 120.0
            },
            {
                "start_time": 17.261363636363637,
                "end_time": 17.44772727272727,
                "pitch": 48,
                "velocity": 51,
                "duration": 0.18636363636363384,
                "tempo": 120.0
            },
            {
                "start_time": 17.46363636363636,
                "end_time": 17.647727272727273,
                "pitch": 48,
                "velocity": 51,
                "duration": 0.1840909090909122,
                "tempo": 120.0
            },
            {
                "start_time": 17.663636363636364,
                "end_time": 17.845454545454544,
                "pitch": 48,
                "velocity": 51,
                "duration": 0.18181818181817988,
                "tempo": 120.0
            },
            {
                "start_time": 17.861363636363635,
                "end_time": 18.04090909090909,
                "pitch": 48,
                "velocity": 51,
                "duration": 0.17954545454545467,
                "tempo": 120.0
            },
            {
                "start_time": 18.05681818181818,
                "end_time": 18.245454545454546,
                "pitch": 48,
                "velocity": 51,
                "duration": 0.18863636363636616,
                "tempo": 120.0
            },
            {
                "start_time": 18.261363636363637,
                "end_time": 18.347727272727273,
                "pitch": 48,
                "velocity": 51,
                "duration": 0.08636363636363598,
                "tempo": 120.0
            },
            {
                "start_time": 18.36590909090909,
                "end_time": 18.55,
                "pitch": 48,
                "velocity": 51,
                "duration": 0.1840909090909122,
                "tempo": 120.0
            },
            {
                "start_time": 18.568181818181817,
                "end_time": 18.65,
                "pitch": 48,
                "velocity": 51,
                "duration": 0.08181818181818201,
                "tempo": 120.0
            },
            {
                "start_time": 18.668181818181818,
                "end_time": 18.849999999999998,
                "pitch": 48,
                "velocity": 51,
                "duration": 0.18181818181817988,
                "tempo": 120.0
            },
            {
                "start_time": 18.868181818181817,
                "end_time": 19.05,
                "pitch": 55,
                "velocity": 51,
                "duration": 0.18181818181818343,
                "tempo": 120.0
            },
            {
                "start_time": 19.068181818181817,
                "end_time": 19.25,
                "pitch": 48,
                "velocity": 51,
                "duration": 0.18181818181818343,
                "tempo": 120.0
            },
            {
                "start_time": 19.268181818181816,
                "end_time": 19.44772727272727,
                "pitch": 41,
                "velocity": 51,
                "duration": 0.17954545454545467,
                "tempo": 120.0
            },
            {
                "start_time": 19.46363636363636,
                "end_time": 19.643181818181816,
                "pitch": 41,
                "velocity": 51,
                "duration": 0.17954545454545467,
                "tempo": 120.0
            },
            {
                "start_time": 19.659090909090907,
                "end_time": 19.847727272727273,
                "pitch": 41,
                "velocity": 51,
                "duration": 0.18863636363636616,
                "tempo": 120.0
            },
            {
                "start_time": 19.86590909090909,
                "end_time": 19.95,
                "pitch": 41,
                "velocity": 51,
                "duration": 0.08409090909091077,
                "tempo": 120.0
            },
            {
                "start_time": 19.96818181818182,
                "end_time": 20.154545454545453,
                "pitch": 41,
                "velocity": 51,
                "duration": 0.18636363636363384,
                "tempo": 120.0
            },
            {
                "start_time": 20.170454545454543,
                "end_time": 20.254545454545454,
                "pitch": 41,
                "velocity": 51,
                "duration": 0.08409090909091077,
                "tempo": 120.0
            },
            {
                "start_time": 20.272727272727273,
                "end_time": 20.456818181818182,
                "pitch": 41,
                "velocity": 51,
                "duration": 0.18409090909090864,
                "tempo": 120.0
            },
            {
                "start_time": 20.472727272727273,
                "end_time": 20.65681818181818,
                "pitch": 41,
                "velocity": 51,
                "duration": 0.18409090909090864,
                "tempo": 120.0
            },
            {
                "start_time": 20.672727272727272,
                "end_time": 20.85681818181818,
                "pitch": 41,
                "velocity": 51,
                "duration": 0.18409090909090864,
                "tempo": 120.0
            },
            {
                "start_time": 20.87272727272727,
                "end_time": 21.05681818181818,
                "pitch": 41,
                "velocity": 51,
                "duration": 0.18409090909090864,
                "tempo": 120.0
            },
            {
                "start_time": 21.07272727272727,
                "end_time": 21.25681818181818,
                "pitch": 41,
                "velocity": 51,
                "duration": 0.18409090909090864,
                "tempo": 120.0
            },
            {
                "start_time": 21.272727272727273,
                "end_time": 21.456818181818182,
                "pitch": 41,
                "velocity": 51,
                "duration": 0.18409090909090864,
                "tempo": 120.0
            },
            {
                "start_time": 21.474999999999998,
                "end_time": 21.55909090909091,
                "pitch": 41,
                "velocity": 51,
                "duration": 0.08409090909091077,
                "tempo": 120.0
            },
            {
                "start_time": 21.575,
                "end_time": 21.759090909090908,
                "pitch": 41,
                "velocity": 51,
                "duration": 0.18409090909090864,
                "tempo": 120.0
            },
            {
                "start_time": 21.775,
                "end_time": 21.85909090909091,
                "pitch": 41,
                "velocity": 51,
                "duration": 0.08409090909091077,
                "tempo": 120.0
            },
            {
                "start_time": 21.875,
                "end_time": 22.05909090909091,
                "pitch": 41,
                "velocity": 51,
                "duration": 0.18409090909090864,
                "tempo": 120.0
            },
            {
                "start_time": 22.075,
                "end_time": 22.261363636363637,
                "pitch": 41,
                "velocity": 51,
                "duration": 0.1863636363636374,
                "tempo": 120.0
            },
            {
                "start_time": 22.277272727272727,
                "end_time": 22.461363636363636,
                "pitch": 41,
                "velocity": 51,
                "duration": 0.18409090909090864,
                "tempo": 120.0
            },
            {
                "start_time": 22.479545454545452,
                "end_time": 22.661363636363635,
                "pitch": 43,
                "velocity": 51,
                "duration": 0.18181818181818343,
                "tempo": 120.0
            },
            {
                "start_time": 22.679545454545455,
                "end_time": 22.861363636363635,
                "pitch": 43,
                "velocity": 51,
                "duration": 0.18181818181817988,
                "tempo": 120.0
            },
            {
                "start_time": 22.879545454545454,
                "end_time": 23.061363636363634,
                "pitch": 43,
                "velocity": 51,
                "duration": 0.18181818181817988,
                "tempo": 120.0
            },
            {
                "start_time": 23.079545454545453,
                "end_time": 23.161363636363635,
                "pitch": 43,
                "velocity": 51,
                "duration": 0.08181818181818201,
                "tempo": 120.0
            },
            {
                "start_time": 23.179545454545455,
                "end_time": 23.361363636363635,
                "pitch": 43,
                "velocity": 51,
                "duration": 0.18181818181817988,
                "tempo": 120.0
            },
            {
                "start_time": 23.379545454545454,
                "end_time": 23.46363636363636,
                "pitch": 43,
                "velocity": 51,
                "duration": 0.08409090909090722,
                "tempo": 120.0
            },
            {
                "start_time": 23.479545454545452,
                "end_time": 23.663636363636364,
                "pitch": 43,
                "velocity": 51,
                "duration": 0.1840909090909122,
                "tempo": 120.0
            },
            {
                "start_time": 23.68181818181818,
                "end_time": 23.863636363636363,
                "pitch": 43,
                "velocity": 51,
                "duration": 0.18181818181818343,
                "tempo": 120.0
            },
            {
                "start_time": 23.88181818181818,
                "end_time": 24.063636363636363,
                "pitch": 43,
                "velocity": 51,
                "duration": 0.18181818181818343,
                "tempo": 120.0
            },
            {
                "start_time": 24.081818181818182,
                "end_time": 24.26590909090909,
                "pitch": 43,
                "velocity": 51,
                "duration": 0.18409090909090864,
                "tempo": 120.0
            },
            {
                "start_time": 24.28181818181818,
                "end_time": 24.46818181818182,
                "pitch": 44,
                "velocity": 51,
                "duration": 0.1863636363636374,
                "tempo": 120.0
            },
            {
                "start_time": 24.48409090909091,
                "end_time": 24.668181818181818,
                "pitch": 45,
                "velocity": 51,
                "duration": 0.18409090909090864,
                "tempo": 120.0
            },
            {
                "start_time": 24.68409090909091,
                "end_time": 24.868181818181817,
                "pitch": 46,
                "velocity": 51,
                "duration": 0.18409090909090864,
                "tempo": 120.0
            },
            {
                "start_time": 24.884090909090908,
                "end_time": 25.063636363636363,
                "pitch": 47,
                "velocity": 51,
                "duration": 0.17954545454545467,
                "tempo": 120.0
            },
            {
                "start_time": 25.079545454545453,
                "end_time": 25.679545454545455,
                "pitch": 47,
                "velocity": 51,
                "duration": 0.6000000000000014,
                "tempo": 120.0
            },
            {
                "start_time": 25.69772727272727,
                "end_time": 26.063636363636363,
                "pitch": 48,
                "velocity": 51,
                "duration": 0.36590909090909207,
                "tempo": 120.0
            },
            {
                "start_time": 26.284090909090907,
                "end_time": 26.472727272727273,
                "pitch": 48,
                "velocity": 51,
                "duration": 0.18863636363636616,
                "tempo": 120.0
            },
            {
                "start_time": 26.488636363636363,
                "end_time": 26.86590909090909,
                "pitch": 48,
                "velocity": 51,
                "duration": 0.3772727272727252,
                "tempo": 120.0
            },
            {
                "start_time": 27.293181818181818,
                "end_time": 27.668181818181818,
                "pitch": 48,
                "velocity": 51,
                "duration": 0.375,
                "tempo": 120.0
            },
            {
                "start_time": 27.888636363636362,
                "end_time": 27.974999999999998,
                "pitch": 48,
                "velocity": 51,
                "duration": 0.08636363636363598,
                "tempo": 120.0
            },
            {
                "start_time": 27.993181818181817,
                "end_time": 28.077272727272724,
                "pitch": 48,
                "velocity": 51,
                "duration": 0.08409090909090722,
                "tempo": 120.0
            },
            {
                "start_time": 28.095454545454544,
                "end_time": 28.279545454545453,
                "pitch": 48,
                "velocity": 51,
                "duration": 0.18409090909090864,
                "tempo": 120.0
            },
            {
                "start_time": 28.295454545454543,
                "end_time": 28.68181818181818,
                "pitch": 48,
                "velocity": 51,
                "duration": 0.3863636363636367,
                "tempo": 120.0
            },
            {
                "start_time": 28.69772727272727,
                "end_time": 28.88181818181818,
                "pitch": 48,
                "velocity": 51,
                "duration": 0.18409090909090864,
                "tempo": 120.0
            },
            {
                "start_time": 28.89772727272727,
                "end_time": 29.28181818181818,
                "pitch": 41,
                "velocity": 51,
                "duration": 0.3840909090909115,
                "tempo": 120.0
            },
            {
                "start_time": 29.5,
                "end_time": 29.68409090909091,
                "pitch": 41,
                "velocity": 51,
                "duration": 0.18409090909090864,
                "tempo": 120.0
            },
            {
                "start_time": 29.7,
                "end_time": 30.084090909090907,
                "pitch": 41,
                "velocity": 51,
                "duration": 0.38409090909090793,
                "tempo": 120.0
            },
            {
                "start_time": 30.302272727272726,
                "end_time": 30.386363636363633,
                "pitch": 41,
                "velocity": 51,
                "duration": 0.08409090909090722,
                "tempo": 120.0
            },
            {
                "start_time": 30.402272727272727,
                "end_time": 30.486363636363635,
                "pitch": 41,
                "velocity": 51,
                "duration": 0.08409090909090722,
                "tempo": 120.0
            },
            {
                "start_time": 30.502272727272725,
                "end_time": 30.886363636363633,
                "pitch": 41,
                "velocity": 51,
                "duration": 0.38409090909090793,
                "tempo": 120.0
            },
            {
                "start_time": 31.102272727272727,
                "end_time": 31.286363636363635,
                "pitch": 41,
                "velocity": 51,
                "duration": 0.18409090909090864,
                "tempo": 120.0
            },
            {
                "start_time": 31.302272727272726,
                "end_time": 31.488636363636363,
                "pitch": 41,
                "velocity": 51,
                "duration": 0.1863636363636374,
                "tempo": 120.0
            },
            {
                "start_time": 31.504545454545454,
                "end_time": 31.888636363636362,
                "pitch": 41,
                "velocity": 51,
                "duration": 0.38409090909090793,
                "tempo": 120.0
            },
            {
                "start_time": 31.90681818181818,
                "end_time": 32.08863636363636,
                "pitch": 41,
                "velocity": 51,
                "duration": 0.18181818181817988,
                "tempo": 120.0
            },
            {
                "start_time": 32.10681818181818,
                "end_time": 32.48863636363636,
                "pitch": 48,
                "velocity": 51,
                "duration": 0.3818181818181827,
                "tempo": 120.0
            },
            {
                "start_time": 32.70681818181818,
                "end_time": 32.788636363636364,
                "pitch": 48,
                "velocity": 51,
                "duration": 0.08181818181818556,
                "tempo": 120.0
            },
            {
                "start_time": 32.80681818181818,
                "end_time": 32.888636363636365,
                "pitch": 48,
                "velocity": 51,
                "duration": 0.08181818181818556,
                "tempo": 120.0
            },
            {
                "start_time": 32.90681818181818,
                "end_time": 33.090909090909086,
                "pitch": 48,
                "velocity": 51,
                "duration": 0.18409090909090509,
                "tempo": 120.0
            },
            {
                "start_time": 33.10681818181818,
                "end_time": 33.49090909090909,
                "pitch": 48,
                "velocity": 51,
                "duration": 0.38409090909091503,
                "tempo": 120.0
            },
            {
                "start_time": 33.50909090909091,
                "end_time": 33.69090909090909,
                "pitch": 48,
                "velocity": 51,
                "duration": 0.18181818181817988,
                "tempo": 120.0
            },
            {
                "start_time": 33.70909090909091,
                "end_time": 34.090909090909086,
                "pitch": 46,
                "velocity": 51,
                "duration": 0.3818181818181756,
                "tempo": 120.0
            },
            {
                "start_time": 34.309090909090905,
                "end_time": 34.39090909090909,
                "pitch": 46,
                "velocity": 51,
                "duration": 0.08181818181818556,
                "tempo": 120.0
            },
            {
                "start_time": 34.40909090909091,
                "end_time": 34.49090909090909,
                "pitch": 46,
                "velocity": 51,
                "duration": 0.08181818181818556,
                "tempo": 120.0
            },
            {
                "start_time": 34.50909090909091,
                "end_time": 34.69090909090909,
                "pitch": 46,
                "velocity": 51,
                "duration": 0.18181818181817988,
                "tempo": 120.0
            },
            {
                "start_time": 34.70909090909091,
                "end_time": 35.09318181818182,
                "pitch": 46,
                "velocity": 51,
                "duration": 0.38409090909090793,
                "tempo": 120.0
            },
            {
                "start_time": 35.10909090909091,
                "end_time": 35.29545454545455,
                "pitch": 46,
                "velocity": 51,
                "duration": 0.1863636363636374,
                "tempo": 120.0
            },
            {
                "start_time": 35.31136363636364,
                "end_time": 35.695454545454545,
                "pitch": 41,
                "velocity": 51,
                "duration": 0.38409090909090793,
                "tempo": 120.0
            },
            {
                "start_time": 35.91136363636363,
                "end_time": 36.095454545454544,
                "pitch": 41,
                "velocity": 51,
                "duration": 0.1840909090909122,
                "tempo": 120.0
            },
            {
                "start_time": 36.111363636363635,
                "end_time": 36.29545454545455,
                "pitch": 43,
                "velocity": 51,
                "duration": 0.1840909090909122,
                "tempo": 120.0
            },
            {
                "start_time": 36.31136363636364,
                "end_time": 36.695454545454545,
                "pitch": 43,
                "velocity": 51,
                "duration": 0.38409090909090793,
                "tempo": 120.0
            },
            {
                "start_time": 36.711363636363636,
                "end_time": 36.89545454545454,
                "pitch": 43,
                "velocity": 51,
                "duration": 0.18409090909090509,
                "tempo": 120.0
            },
            {
                "start_time": 36.91136363636363,
                "end_time": 37.29772727272727,
                "pitch": 48,
                "velocity": 51,
                "duration": 0.38636363636364024,
                "tempo": 120.0
            },
            {
                "start_time": 37.51363636363636,
                "end_time": 37.893181818181816,
                "pitch": 48,
                "velocity": 51,
                "duration": 0.3795454545454575,
                "tempo": 120.0
            },
            {
                "start_time": 37.90909090909091,
                "end_time": 38.08863636363636,
                "pitch": 48,
                "velocity": 51,
                "duration": 0.17954545454545467,
                "tempo": 120.0
            },
            {
                "start_time": 38.10681818181818,
                "end_time": 38.288636363636364,
                "pitch": 48,
                "velocity": 51,
                "duration": 0.18181818181818699,
                "tempo": 120.0
            },
            {
                "start_time": 38.30681818181818,
                "end_time": 38.5,
                "pitch": 48,
                "velocity": 51,
                "duration": 0.19318181818182012,
                "tempo": 120.0
            }
        ],
        "Clarinet": [
            {
                "start_time": 0.004545454545454545,
                "end_time": 0.2545454545454545,
                "pitch": 67,
                "velocity": 40,
                "duration": 0.24999999999999997,
                "tempo": 120.0
            },
            {
                "start_time": 0.2727272727272727,
                "end_time": 0.3886363636363636,
                "pitch": 72,
                "velocity": 40,
                "duration": 0.1159090909090909,
                "tempo": 120.0
            },
            {
                "start_time": 0.40454545454545454,
                "end_time": 0.65,
                "pitch": 74,
                "velocity": 40,
                "duration": 0.24545454545454548,
                "tempo": 120.0
            },
            {
                "start_time": 0.6659090909090909,
                "end_time": 0.7818181818181817,
                "pitch": 67,
                "velocity": 40,
                "duration": 0.11590909090909085,
                "tempo": 120.0
            },
            {
                "start_time": 0.7977272727272727,
                "end_time": 1.05,
                "pitch": 72,
                "velocity": 40,
                "duration": 0.2522727272727273,
                "tempo": 120.0
            },
            {
                "start_time": 1.065909090909091,
                "end_time": 1.184090909090909,
                "pitch": 74,
                "velocity": 40,
                "duration": 0.11818181818181817,
                "tempo": 120.0
            },
            {
                "start_time": 1.2,
                "end_time": 1.45,
                "pitch": 67,
                "velocity": 40,
                "duration": 0.25,
                "tempo": 120.0
            },
            {
                "start_time": 1.4659090909090908,
                "end_time": 1.584090909090909,
                "pitch": 72,
                "velocity": 40,
                "duration": 0.11818181818181817,
                "tempo": 120.0
            },
            {
                "start_time": 1.5999999999999999,
                "end_time": 1.8522727272727273,
                "pitch": 74,
                "velocity": 40,
                "duration": 0.2522727272727274,
                "tempo": 120.0
            },
            {
                "start_time": 1.8681818181818182,
                "end_time": 2.252272727272727,
                "pitch": 74,
                "velocity": 40,
                "duration": 0.3840909090909088,
                "tempo": 120.0
            },
            {
                "start_time": 2.2704545454545455,
                "end_time": 2.6545454545454543,
                "pitch": 74,
                "velocity": 40,
                "duration": 0.3840909090909088,
                "tempo": 120.0
            },
            {
                "start_time": 2.6704545454545454,
                "end_time": 2.7886363636363636,
                "pitch": 69,
                "velocity": 40,
                "duration": 0.11818181818181817,
                "tempo": 120.0
            },
            {
                "start_time": 2.8045454545454542,
                "end_time": 3.0545454545454542,
                "pitch": 67,
                "velocity": 40,
                "duration": 0.25,
                "tempo": 120.0
            },
            {
                "start_time": 3.0727272727272728,
                "end_time": 3.1886363636363635,
                "pitch": 69,
                "velocity": 40,
                "duration": 0.11590909090909074,
                "tempo": 120.0
            },
            {
                "start_time": 3.2045454545454546,
                "end_time": 3.4545454545454546,
                "pitch": 72,
                "velocity": 40,
                "duration": 0.25,
                "tempo": 120.0
            },
            {
                "start_time": 3.4727272727272727,
                "end_time": 3.5886363636363634,
                "pitch": 76,
                "velocity": 40,
                "duration": 0.11590909090909074,
                "tempo": 120.0
            },
            {
                "start_time": 3.6045454545454545,
                "end_time": 3.8545454545454545,
                "pitch": 77,
                "velocity": 40,
                "duration": 0.25,
                "tempo": 120.0
            },
            {
                "start_time": 3.8727272727272726,
                "end_time": 3.9886363636363633,
                "pitch": 72,
                "velocity": 40,
                "duration": 0.11590909090909074,
                "tempo": 120.0
            },
            {
                "start_time": 4.004545454545454,
                "end_time": 4.254545454545454,
                "pitch": 76,
                "velocity": 40,
                "duration": 0.25,
                "tempo": 120.0
            },
            {
                "start_time": 4.2727272727272725,
                "end_time": 4.388636363636364,
                "pitch": 77,
                "velocity": 40,
                "duration": 0.11590909090909118,
                "tempo": 120.0
            },
            {
                "start_time": 4.404545454545454,
                "end_time": 4.656818181818181,
                "pitch": 72,
                "velocity": 40,
                "duration": 0.252272727272727,
                "tempo": 120.0
            },
            {
                "start_time": 4.675,
                "end_time": 4.790909090909091,
                "pitch": 76,
                "velocity": 40,
                "duration": 0.11590909090909118,
                "tempo": 120.0
            },
            {
                "start_time": 4.809090909090909,
                "end_time": 5.059090909090909,
                "pitch": 77,
                "velocity": 40,
                "duration": 0.25,
                "tempo": 120.0
            },
            {
                "start_time": 5.075,
                "end_time": 5.459090909090909,
                "pitch": 77,
                "velocity": 40,
                "duration": 0.3840909090909088,
                "tempo": 120.0
            },
            {
                "start_time": 5.477272727272727,
                "end_time": 5.997727272727272,
                "pitch": 77,
                "velocity": 40,
                "duration": 0.5204545454545455,
                "tempo": 120.0
            },
            {
                "start_time": 6.013636363636364,
                "end_time": 6.3977272727272725,
                "pitch": 76,
                "velocity": 40,
                "duration": 0.3840909090909088,
                "tempo": 120.0
            },
            {
                "start_time": 6.413636363636363,
                "end_time": 6.8,
                "pitch": 77,
                "velocity": 40,
                "duration": 0.3863636363636367,
                "tempo": 120.0
            },
            {
                "start_time": 7.015909090909091,
                "end_time": 7.3999999999999995,
                "pitch": 76,
                "velocity": 40,
                "duration": 0.3840909090909088,
                "tempo": 120.0
            },
            {
                "start_time": 7.618181818181818,
                "end_time": 8.004545454545454,
                "pitch": 74,
                "velocity": 40,
                "duration": 0.3863636363636358,
                "tempo": 120.0
            },
            {
                "start_time": 8.020454545454545,
                "end_time": 8.404545454545454,
                "pitch": 76,
                "velocity": 40,
                "duration": 0.3840909090909097,
                "tempo": 120.0
            },
            {
                "start_time": 8.622727272727273,
                "end_time": 9.009090909090908,
                "pitch": 74,
                "velocity": 40,
                "duration": 0.3863636363636349,
                "tempo": 120.0
            },
            {
                "start_time": 9.227272727272727,
                "end_time": 9.613636363636363,
                "pitch": 72,
                "velocity": 40,
                "duration": 0.3863636363636367,
                "tempo": 120.0
            },
            {
                "start_time": 9.629545454545454,
                "end_time": 10.013636363636364,
                "pitch": 74,
                "velocity": 40,
                "duration": 0.3840909090909097,
                "tempo": 120.0
            },
            {
                "start_time": 10.431818181818182,
                "end_time": 10.818181818181818,
                "pitch": 76,
                "velocity": 40,
                "duration": 0.3863636363636367,
                "tempo": 120.0
            },
            {
                "start_time": 11.238636363636363,
                "end_time": 11.488636363636363,
                "pitch": 77,
                "velocity": 40,
                "duration": 0.25,
                "tempo": 120.0
            },
            {
                "start_time": 11.506818181818181,
                "end_time": 11.622727272727273,
                "pitch": 76,
                "velocity": 40,
                "duration": 0.11590909090909207,
                "tempo": 120.0
            },
            {
                "start_time": 12.431818181818182,
                "end_time": 12.825,
                "pitch": 76,
                "velocity": 40,
                "duration": 0.39318181818181763,
                "tempo": 120.0
            },
            {
                "start_time": 12.843181818181817,
                "end_time": 13.095454545454546,
                "pitch": 77,
                "velocity": 40,
                "duration": 0.25227272727272876,
                "tempo": 120.0
            },
            {
                "start_time": 13.111363636363636,
                "end_time": 13.229545454545454,
                "pitch": 76,
                "velocity": 40,
                "duration": 0.11818181818181728,
                "tempo": 120.0
            },
            {
                "start_time": 13.513636363636364,
                "end_time": 13.631818181818181,
                "pitch": 72,
                "velocity": 40,
                "duration": 0.11818181818181728,
                "tempo": 120.0
            },
            {
                "start_time": 14.047727272727272,
                "end_time": 14.434090909090909,
                "pitch": 81,
                "velocity": 40,
                "duration": 0.3863636363636367,
                "tempo": 120.0
            },
            {
                "start_time": 14.452272727272726,
                "end_time": 14.702272727272726,
                "pitch": 77,
                "velocity": 40,
                "duration": 0.25,
                "tempo": 120.0
            },
            {
                "start_time": 14.720454545454544,
                "end_time": 14.836363636363636,
                "pitch": 76,
                "velocity": 40,
                "duration": 0.11590909090909207,
                "tempo": 120.0
            },
            {
                "start_time": 15.122727272727271,
                "end_time": 15.24090909090909,
                "pitch": 72,
                "velocity": 40,
                "duration": 0.11818181818181905,
                "tempo": 120.0
            },
            {
                "start_time": 15.659090909090908,
                "end_time": 16.043181818181818,
                "pitch": 81,
                "velocity": 40,
                "duration": 0.3840909090909097,
                "tempo": 120.0
            },
            {
                "start_time": 16.05909090909091,
                "end_time": 16.311363636363634,
                "pitch": 76,
                "velocity": 40,
                "duration": 0.2522727272727252,
                "tempo": 120.0
            },
            {
                "start_time": 16.327272727272728,
                "end_time": 16.445454545454545,
                "pitch": 74,
                "velocity": 40,
                "duration": 0.11818181818181728,
                "tempo": 120.0
            },
            {
                "start_time": 16.729545454545455,
                "end_time": 16.845454545454544,
                "pitch": 72,
                "velocity": 40,
                "duration": 0.11590909090908852,
                "tempo": 120.0
            },
            {
                "start_time": 17.261363636363637,
                "end_time": 17.647727272727273,
                "pitch": 79,
                "velocity": 40,
                "duration": 0.3863636363636367,
                "tempo": 120.0
            },
            {
                "start_time": 17.663636363636364,
                "end_time": 17.909090909090907,
                "pitch": 76,
                "velocity": 40,
                "duration": 0.24545454545454248,
                "tempo": 120.0
            },
            {
                "start_time": 17.925,
                "end_time": 18.04090909090909,
                "pitch": 74,
                "velocity": 40,
                "duration": 0.11590909090908852,
                "tempo": 120.0
            },
            {
                "start_time": 18.329545454545453,
                "end_time": 18.45,
                "pitch": 72,
                "velocity": 40,
                "duration": 0.12045454545454604,
                "tempo": 120.0
            },
            {
                "start_time": 18.868181818181817,
                "end_time": 19.25,
                "pitch": 79,
                "velocity": 40,
                "duration": 0.3818181818181827,
                "tempo": 120.0
            },
            {
                "start_time": 19.268181818181816,
                "end_time": 19.513636363636362,
                "pitch": 77,
                "velocity": 40,
                "duration": 0.24545454545454604,
                "tempo": 120.0
            },
            {
                "start_time": 19.529545454545453,
                "end_time": 19.643181818181816,
                "pitch": 76,
                "velocity": 40,
                "duration": 0.11363636363636331,
                "tempo": 120.0
            },
            {
                "start_time": 19.93409090909091,
                "end_time": 20.052272727272726,
                "pitch": 72,
                "velocity": 40,
                "duration": 0.11818181818181728,
                "tempo": 120.0
            },
            {
                "start_time": 20.472727272727273,
                "end_time": 20.85681818181818,
                "pitch": 81,
                "velocity": 40,
                "duration": 0.38409090909090793,
                "tempo": 120.0
            },
            {
                "start_time": 20.87272727272727,
                "end_time": 21.12272727272727,
                "pitch": 77,
                "velocity": 40,
                "duration": 0.25,
                "tempo": 120.0
            },
            {
                "start_time": 21.14090909090909,
                "end_time": 21.25681818181818,
                "pitch": 76,
                "velocity": 40,
                "duration": 0.11590909090908852,
                "tempo": 120.0
            },
            {
                "start_time": 21.54090909090909,
                "end_time": 21.659090909090907,
                "pitch": 72,
                "velocity": 40,
                "duration": 0.11818181818181728,
                "tempo": 120.0
            },
            {
                "start_time": 22.075,
                "end_time": 22.461363636363636,
                "pitch": 83,
                "velocity": 40,
                "duration": 0.3863636363636367,
                "tempo": 120.0
            },
            {
                "start_time": 22.479545454545452,
                "end_time": 23.261363636363637,
                "pitch": 84,
                "velocity": 40,
                "duration": 0.7818181818181849,
                "tempo": 120.0
            },
            {
                "start_time": 23.279545454545453,
                "end_time": 24.063636363636363,
                "pitch": 83,
                "velocity": 40,
                "duration": 0.7840909090909101,
                "tempo": 120.0
            },
            {
                "start_time": 24.081818181818182,
                "end_time": 24.868181818181817,
                "pitch": 79,
                "velocity": 40,
                "duration": 0.7863636363636353,
                "tempo": 120.0
            },
            {
                "start_time": 24.884090909090908,
                "end_time": 25.679545454545455,
                "pitch": 77,
                "velocity": 40,
                "duration": 0.7954545454545467,
                "tempo": 120.0
            },
            {
                "start_time": 25.69772727272727,
                "end_time": 25.936363636363634,
                "pitch": 67,
                "velocity": 40,
                "duration": 0.2386363636363633,
                "tempo": 120.0
            },
            {
                "start_time": 25.952272727272724,
                "end_time": 26.063636363636363,
                "pitch": 72,
                "velocity": 40,
                "duration": 0.11136363636363811,
                "tempo": 120.0
            },
            {
                "start_time": 26.079545454545453,
                "end_time": 26.336363636363636,
                "pitch": 74,
                "velocity": 40,
                "duration": 0.2568181818181827,
                "tempo": 120.0
            },
            {
                "start_time": 26.352272727272727,
                "end_time": 26.472727272727273,
                "pitch": 67,
                "velocity": 40,
                "duration": 0.12045454545454604,
                "tempo": 120.0
            },
            {
                "start_time": 26.488636363636363,
                "end_time": 26.73409090909091,
                "pitch": 72,
                "velocity": 40,
                "duration": 0.24545454545454604,
                "tempo": 120.0
            },
            {
                "start_time": 26.75,
                "end_time": 26.86590909090909,
                "pitch": 74,
                "velocity": 40,
                "duration": 0.11590909090908852,
                "tempo": 120.0
            },
            {
                "start_time": 26.88181818181818,
                "end_time": 27.138636363636362,
                "pitch": 67,
                "velocity": 40,
                "duration": 0.2568181818181827,
                "tempo": 120.0
            },
            {
                "start_time": 27.154545454545453,
                "end_time": 27.275,
                "pitch": 72,
                "velocity": 40,
                "duration": 0.12045454545454604,
                "tempo": 120.0
            },
            {
                "start_time": 27.293181818181818,
                "end_time": 27.536363636363635,
                "pitch": 74,
                "velocity": 40,
                "duration": 0.24318181818181728,
                "tempo": 120.0
            },
            {
                "start_time": 27.554545454545455,
                "end_time": 27.940909090909088,
                "pitch": 74,
                "velocity": 40,
                "duration": 0.38636363636363313,
                "tempo": 120.0
            },
            {
                "start_time": 27.959090909090907,
                "end_time": 28.347727272727273,
                "pitch": 74,
                "velocity": 40,
                "duration": 0.38863636363636545,
                "tempo": 120.0
            },
            {
                "start_time": 28.363636363636363,
                "end_time": 28.48181818181818,
                "pitch": 69,
                "velocity": 40,
                "duration": 0.11818181818181728,
                "tempo": 120.0
            },
            {
                "start_time": 28.49772727272727,
                "end_time": 28.74772727272727,
                "pitch": 67,
                "velocity": 40,
                "duration": 0.25,
                "tempo": 120.0
            },
            {
                "start_time": 28.763636363636362,
                "end_time": 28.88181818181818,
                "pitch": 69,
                "velocity": 40,
                "duration": 0.11818181818181728,
                "tempo": 120.0
            },
            {
                "start_time": 28.89772727272727,
                "end_time": 29.14772727272727,
                "pitch": 72,
                "velocity": 40,
                "duration": 0.25,
                "tempo": 120.0
            },
            {
                "start_time": 29.16363636363636,
                "end_time": 29.28181818181818,
                "pitch": 76,
                "velocity": 40,
                "duration": 0.11818181818182083,
                "tempo": 120.0
            },
            {
                "start_time": 29.297727272727272,
                "end_time": 29.549999999999997,
                "pitch": 77,
                "velocity": 40,
                "duration": 0.2522727272727252,
                "tempo": 120.0
            },
            {
                "start_time": 29.565909090909088,
                "end_time": 29.68409090909091,
                "pitch": 72,
                "velocity": 40,
                "duration": 0.11818181818182083,
                "tempo": 120.0
            },
            {
                "start_time": 29.7,
                "end_time": 29.95,
                "pitch": 76,
                "velocity": 40,
                "duration": 0.25,
                "tempo": 120.0
            },
            {
                "start_time": 29.968181818181815,
                "end_time": 30.084090909090907,
                "pitch": 77,
                "velocity": 40,
                "duration": 0.11590909090909207,
                "tempo": 120.0
            },
            {
                "start_time": 30.099999999999998,
                "end_time": 30.352272727272727,
                "pitch": 72,
                "velocity": 40,
                "duration": 0.25227272727272876,
                "tempo": 120.0
            },
            {
                "start_time": 30.368181818181817,
                "end_time": 30.486363636363635,
                "pitch": 76,
                "velocity": 40,
                "duration": 0.11818181818181728,
                "tempo": 120.0
            },
            {
                "start_time": 30.502272727272725,
                "end_time": 30.752272727272725,
                "pitch": 77,
                "velocity": 40,
                "duration": 0.25,
                "tempo": 120.0
            },
            {
                "start_time": 30.770454545454545,
                "end_time": 31.152272727272727,
                "pitch": 77,
                "velocity": 40,
                "duration": 0.3818181818181827,
                "tempo": 120.0
            },
            {
                "start_time": 31.170454545454543,
                "end_time": 31.688636363636363,
                "pitch": 77,
                "velocity": 40,
                "duration": 0.5181818181818194,
                "tempo": 120.0
            },
            {
                "start_time": 31.706818181818182,
                "end_time": 32.08863636363636,
                "pitch": 76,
                "velocity": 40,
                "duration": 0.38181818181817917,
                "tempo": 120.0
            },
            {
                "start_time": 32.10681818181818,
                "end_time": 32.48863636363636,
                "pitch": 77,
                "velocity": 40,
                "duration": 0.3818181818181827,
                "tempo": 120.0
            },
            {
                "start_time": 32.70681818181818,
                "end_time": 33.090909090909086,
                "pitch": 76,
                "velocity": 40,
                "duration": 0.38409090909090793,
                "tempo": 120.0
            },
            {
                "start_time": 33.309090909090905,
                "end_time": 33.69090909090909,
                "pitch": 74,
                "velocity": 40,
                "duration": 0.3818181818181827,
                "tempo": 120.0
            },
            {
                "start_time": 33.70909090909091,
                "end_time": 34.090909090909086,
                "pitch": 76,
                "velocity": 40,
                "duration": 0.3818181818181756,
                "tempo": 120.0
            },
            {
                "start_time": 34.309090909090905,
                "end_time": 34.69090909090909,
                "pitch": 74,
                "velocity": 40,
                "duration": 0.3818181818181827,
                "tempo": 120.0
            },
            {
                "start_time": 34.90909090909091,
                "end_time": 35.29545454545455,
                "pitch": 72,
                "velocity": 40,
                "duration": 0.38636363636364024,
                "tempo": 120.0
            },
            {
                "start_time": 35.31136363636364,
                "end_time": 35.695454545454545,
                "pitch": 74,
                "velocity": 40,
                "duration": 0.38409090909090793,
                "tempo": 120.0
            },
            {
                "start_time": 36.111363636363635,
                "end_time": 36.49545454545454,
                "pitch": 76,
                "velocity": 40,
                "duration": 0.38409090909090793,
                "tempo": 120.0
            },
            {
                "start_time": 36.91136363636363,
                "end_time": 37.163636363636364,
                "pitch": 77,
                "velocity": 40,
                "duration": 0.2522727272727323,
                "tempo": 120.0
            },
            {
                "start_time": 37.179545454545455,
                "end_time": 37.29772727272727,
                "pitch": 76,
                "velocity": 40,
                "duration": 0.11818181818181728,
                "tempo": 120.0
            }
        ]
    }
}