{
    "track_id": "Megumi Rescue (FM) - 01 - Title Screen",
    "mood": "happy",
    "instruments": {
        "Clarinet": [
            {
                "start_time": 0.0,
                "end_time": 0.18409090909090908,
                "pitch": 75,
                "velocity": 64,
                "duration": 0.18409090909090908,
                "tempo": 120.0
            },
            {
                "start_time": 0.4022727272727272,
                "end_time": 0.6477272727272727,
                "pitch": 78,
                "velocity": 64,
                "duration": 0.24545454545454548,
                "tempo": 120.0
            },
            {
                "start_time": 0.6636363636363636,
                "end_time": 1.0431818181818182,
                "pitch": 82,
                "velocity": 64,
                "duration": 0.37954545454545463,
                "tempo": 120.0
            },
            {
                "start_time": 1.0613636363636363,
                "end_time": 1.1772727272727272,
                "pitch": 82,
                "velocity": 64,
                "duration": 0.11590909090909096,
                "tempo": 120.0
            },
            {
                "start_time": 1.1931818181818181,
                "end_time": 1.5772727272727272,
                "pitch": 80,
                "velocity": 64,
                "duration": 0.38409090909090904,
                "tempo": 120.0
            },
            {
                "start_time": 1.593181818181818,
                "end_time": 1.7795454545454545,
                "pitch": 75,
                "velocity": 64,
                "duration": 0.1863636363636365,
                "tempo": 120.0
            },
            {
                "start_time": 1.9954545454545454,
                "end_time": 2.245454545454545,
                "pitch": 78,
                "velocity": 64,
                "duration": 0.24999999999999978,
                "tempo": 120.0
            },
            {
                "start_time": 2.2636363636363637,
                "end_time": 2.6454545454545455,
                "pitch": 82,
                "velocity": 64,
                "duration": 0.38181818181818183,
                "tempo": 120.0
            },
            {
                "start_time": 2.6636363636363636,
                "end_time": 2.7795454545454543,
                "pitch": 82,
                "velocity": 64,
                "duration": 0.11590909090909074,
                "tempo": 120.0
            },
            {
                "start_time": 2.7954545454545454,
                "end_time": 3.1795454545454542,
                "pitch": 80,
                "velocity": 64,
                "duration": 0.3840909090909088,
                "tempo": 120.0
            },
            {
                "start_time": 3.1954545454545453,
                "end_time": 3.381818181818182,
                "pitch": 75,
                "velocity": 64,
                "duration": 0.1863636363636365,
                "tempo": 120.0
            },
            {
                "start_time": 3.5999999999999996,
                "end_time": 3.8499999999999996,
                "pitch": 78,
                "velocity": 64,
                "duration": 0.25,
                "tempo": 120.0
            },
            {
                "start_time": 3.8659090909090907,
                "end_time": 4.25,
                "pitch": 82,
                "velocity": 64,
                "duration": 0.38409090909090926,
                "tempo": 120.0
            },
            {
                "start_time": 4.265909090909091,
                "end_time": 4.381818181818182,
                "pitch": 82,
                "velocity": 64,
                "duration": 0.11590909090909118,
                "tempo": 120.0
            },
            {
                "start_time": 4.3999999999999995,
                "end_time": 4.784090909090909,
                "pitch": 80,
                "velocity": 64,
                "duration": 0.3840909090909097,
                "tempo": 120.0
            },
            {
                "start_time": 4.802272727272727,
                "end_time": 5.1863636363636365,
                "pitch": 78,
                "velocity": 64,
                "duration": 0.3840909090909097,
                "tempo": 120.0
            },
            {
                "start_time": 5.593181818181818,
                "end_time": 6.388636363636364,
                "pitch": 66,
                "velocity": 64,
                "duration": 0.7954545454545459,
                "tempo": 120.0
            },
            {
                "start_time": 6.404545454545454,
                "end_time": 6.656818181818181,
                "pitch": 71,
                "velocity": 64,
                "duration": 0.252272727272727,
                "tempo": 120.0
            },
            {
                "start_time": 6.672727272727273,
                "end_time": 6.790909090909091,
                "pitch": 66,
                "velocity": 64,
                "duration": 0.11818181818181817,
                "tempo": 120.0
            },
            {
                "start_time": 6.806818181818182,
                "end_time": 7.056818181818182,
                "pitch": 68,
                "velocity": 64,
                "duration": 0.25,
                "tempo": 120.0
            },
            {
                "start_time": 7.074999999999999,
                "end_time": 7.1909090909090905,
                "pitch": 63,
                "velocity": 64,
                "duration": 0.11590909090909118,
                "tempo": 120.0
            },
            {
                "start_time": 7.206818181818181,
                "end_time": 7.459090909090909,
                "pitch": 66,
                "velocity": 64,
                "duration": 0.25227272727272787,
                "tempo": 120.0
            },
            {
                "start_time": 7.477272727272727,
                "end_time": 7.593181818181818,
                "pitch": 59,
                "velocity": 64,
                "duration": 0.11590909090909118,
                "tempo": 120.0
            },
            {
                "start_time": 7.611363636363636,
                "end_time": 7.861363636363636,
                "pitch": 63,
                "velocity": 64,
                "duration": 0.25,
                "tempo": 120.0
            },
            {
                "start_time": 7.877272727272727,
                "end_time": 7.993181818181818,
                "pitch": 54,
                "velocity": 64,
                "duration": 0.11590909090909118,
                "tempo": 120.0
            },
            {
                "start_time": 8.011363636363637,
                "end_time": 8.195454545454545,
                "pitch": 56,
                "velocity": 64,
                "duration": 0.18409090909090864,
                "tempo": 120.0
            },
            {
                "start_time": 8.413636363636364,
                "end_time": 8.665909090909091,
                "pitch": 59,
                "velocity": 64,
                "duration": 0.252272727272727,
                "tempo": 120.0
            },
            {
                "start_time": 8.681818181818182,
                "end_time": 8.799999999999999,
                "pitch": 63,
                "velocity": 64,
                "duration": 0.11818181818181728,
                "tempo": 120.0
            },
            {
                "start_time": 9.084090909090909,
                "end_time": 9.202272727272726,
                "pitch": 66,
                "velocity": 64,
                "duration": 0.11818181818181728,
                "tempo": 120.0
            },
            {
                "start_time": 9.218181818181817,
                "end_time": 9.468181818181817,
                "pitch": 68,
                "velocity": 64,
                "duration": 0.25,
                "tempo": 120.0
            },
            {
                "start_time": 9.48409090909091,
                "end_time": 9.602272727272727,
                "pitch": 71,
                "velocity": 64,
                "duration": 0.11818181818181728,
                "tempo": 120.0
            },
            {
                "start_time": 9.618181818181817,
                "end_time": 11.011363636363637,
                "pitch": 67,
                "velocity": 64,
                "duration": 1.3931818181818194,
                "tempo": 120.0
            },
            {
                "start_time": 11.027272727272727,
                "end_time": 11.111363636363636,
                "pitch": 69,
                "velocity": 64,
                "duration": 0.084090909090909,
                "tempo": 120.0
            },
            {
                "start_time": 11.129545454545454,
                "end_time": 11.211363636363636,
                "pitch": 67,
                "velocity": 64,
                "duration": 0.08181818181818201,
                "tempo": 120.0
            },
            {
                "start_time": 11.229545454545454,
                "end_time": 12.01590909090909,
                "pitch": 66,
                "velocity": 64,
                "duration": 0.786363636363637,
                "tempo": 120.0
            },
            {
                "start_time": 12.031818181818181,
                "end_time": 12.820454545454545,
                "pitch": 65,
                "velocity": 64,
                "duration": 0.788636363636364,
                "tempo": 120.0
            },
            {
                "start_time": 12.836363636363636,
                "end_time": 13.088636363636363,
                "pitch": 64,
                "velocity": 64,
                "duration": 0.252272727272727,
                "tempo": 120.0
            },
            {
                "start_time": 13.10681818181818,
                "end_time": 13.222727272727273,
                "pitch": 68,
                "velocity": 64,
                "duration": 0.11590909090909207,
                "tempo": 120.0
            },
            {
                "start_time": 13.24090909090909,
                "end_time": 13.49090909090909,
                "pitch": 75,
                "velocity": 64,
                "duration": 0.25,
                "tempo": 120.0
            },
            {
                "start_time": 13.506818181818181,
                "end_time": 13.622727272727271,
                "pitch": 63,
                "velocity": 64,
                "duration": 0.1159090909090903,
                "tempo": 120.0
            },
            {
                "start_time": 13.64090909090909,
                "end_time": 13.89090909090909,
                "pitch": 66,
                "velocity": 64,
                "duration": 0.25,
                "tempo": 120.0
            },
            {
                "start_time": 13.909090909090908,
                "end_time": 14.024999999999999,
                "pitch": 73,
                "velocity": 64,
                "duration": 0.1159090909090903,
                "tempo": 120.0
            },
            {
                "start_time": 14.043181818181818,
                "end_time": 14.295454545454545,
                "pitch": 61,
                "velocity": 64,
                "duration": 0.252272727272727,
                "tempo": 120.0
            },
            {
                "start_time": 14.311363636363636,
                "end_time": 14.429545454545455,
                "pitch": 64,
                "velocity": 64,
                "duration": 0.11818181818181905,
                "tempo": 120.0
            },
            {
                "start_time": 14.445454545454545,
                "end_time": 14.697727272727272,
                "pitch": 71,
                "velocity": 64,
                "duration": 0.252272727272727,
                "tempo": 120.0
            },
            {
                "start_time": 14.713636363636363,
                "end_time": 15.234090909090908,
                "pitch": 74,
                "velocity": 64,
                "duration": 0.5204545454545446,
                "tempo": 120.0
            },
            {
                "start_time": 15.25,
                "end_time": 15.634090909090908,
                "pitch": 67,
                "velocity": 64,
                "duration": 0.38409090909090793,
                "tempo": 120.0
            },
            {
                "start_time": 15.649999999999999,
                "end_time": 16.036363636363635,
                "pitch": 66,
                "velocity": 64,
                "duration": 0.3863636363636367,
                "tempo": 120.0
            },
            {
                "start_time": 16.052272727272726,
                "end_time": 16.438636363636363,
                "pitch": 71,
                "velocity": 64,
                "duration": 0.3863636363636367,
                "tempo": 120.0
            },
            {
                "start_time": 16.65681818181818,
                "end_time": 17.04090909090909,
                "pitch": 59,
                "velocity": 64,
                "duration": 0.38409090909090793,
                "tempo": 120.0
            },
            {
                "start_time": 17.259090909090908,
                "end_time": 19.24772727272727,
                "pitch": 83,
                "velocity": 64,
                "duration": 1.9886363636363633,
                "tempo": 120.0
            }
        ],
        "Electric Guitar (clean)": [
            {
                "start_time": 0.0,
                "end_time": 0.18409090909090908,
                "pitch": 47,
                "velocity": 51,
                "duration": 0.18409090909090908,
                "tempo": 120.0
            },
            {
                "start_time": 0.4022727272727272,
                "end_time": 0.6477272727272727,
                "pitch": 51,
                "velocity": 51,
                "duration": 0.24545454545454548,
                "tempo": 120.0
            },
            {
                "start_time": 0.6636363636363636,
                "end_time": 1.0431818181818182,
                "pitch": 42,
                "velocity": 51,
                "duration": 0.37954545454545463,
                "tempo": 120.0
            },
            {
                "start_time": 1.0613636363636363,
                "end_time": 1.1772727272727272,
                "pitch": 42,
                "velocity": 51,
                "duration": 0.11590909090909096,
                "tempo": 120.0
            },
            {
                "start_time": 1.1931818181818181,
                "end_time": 1.5772727272727272,
                "pitch": 44,
                "velocity": 51,
                "duration": 0.38409090909090904,
                "tempo": 120.0
            },
            {
                "start_time": 1.593181818181818,
                "end_time": 1.7795454545454545,
                "pitch": 47,
                "velocity": 51,
                "duration": 0.1863636363636365,
                "tempo": 120.0
            },
            {
                "start_time": 1.9954545454545454,
                "end_time": 2.245454545454545,
                "pitch": 51,
                "velocity": 51,
                "duration": 0.24999999999999978,
                "tempo": 120.0
            },
            {
                "start_time": 2.2636363636363637,
                "end_time": 2.6454545454545455,
                "pitch": 42,
                "velocity": 51,
                "duration": 0.38181818181818183,
                "tempo": 120.0
            },
            {
                "start_time": 2.6636363636363636,
                "end_time": 2.7795454545454543,
                "pitch": 42,
                "velocity": 51,
                "duration": 0.11590909090909074,
                "tempo": 120.0
            },
            {
                "start_time": 2.7954545454545454,
                "end_time": 3.1795454545454542,
                "pitch": 44,
                "velocity": 51,
                "duration": 0.3840909090909088,
                "tempo": 120.0
            },
            {
                "start_time": 3.1954545454545453,
                "end_time": 3.381818181818182,
                "pitch": 47,
                "velocity": 51,
                "duration": 0.1863636363636365,
                "tempo": 120.0
            },
            {
                "start_time": 3.5999999999999996,
                "end_time": 3.8499999999999996,
                "pitch": 51,
                "velocity": 51,
                "duration": 0.25,
                "tempo": 120.0
            },
            {
                "start_time": 3.8659090909090907,
                "end_time": 4.25,
                "pitch": 42,
                "velocity": 51,
                "duration": 0.38409090909090926,
                "tempo": 120.0
            },
            {
                "start_time": 4.265909090909091,
                "end_time": 4.381818181818182,
                "pitch": 42,
                "velocity": 51,
                "duration": 0.11590909090909118,
                "tempo": 120.0
            },
            {
                "start_time": 4.3999999999999995,
                "end_time": 4.784090909090909,
                "pitch": 44,
                "velocity": 51,
                "duration": 0.3840909090909097,
                "tempo": 120.0
            },
            {
                "start_time": 4.802272727272727,
                "end_time": 5.1863636363636365,
                "pitch": 47,
                "velocity": 51,
                "duration": 0.3840909090909097,
                "tempo": 120.0
            },
            {
                "start_time": 5.593181818181818,
                "end_time": 6.388636363636364,
                "pitch": 50,
                "velocity": 51,
                "duration": 0.7954545454545459,
                "tempo": 120.0
            },
            {
                "start_time": 6.404545454545454,
                "end_time": 6.588636363636363,
                "pitch": 47,
                "velocity": 51,
                "duration": 0.18409090909090864,
                "tempo": 120.0
            },
            {
                "start_time": 6.806818181818182,
                "end_time": 7.056818181818182,
                "pitch": 51,
                "velocity": 51,
                "duration": 0.25,
                "tempo": 120.0
            },
            {
                "start_time": 7.074999999999999,
                "end_time": 7.459090909090909,
                "pitch": 42,
                "velocity": 51,
                "duration": 0.3840909090909097,
                "tempo": 120.0
            },
            {
                "start_time": 7.477272727272727,
                "end_time": 7.593181818181818,
                "pitch": 42,
                "velocity": 51,
                "duration": 0.11590909090909118,
                "tempo": 120.0
            },
            {
                "start_time": 7.611363636363636,
                "end_time": 7.993181818181818,
                "pitch": 44,
                "velocity": 51,
                "duration": 0.38181818181818183,
                "tempo": 120.0
            },
            {
                "start_time": 8.011363636363637,
                "end_time": 8.195454545454545,
                "pitch": 47,
                "velocity": 51,
                "duration": 0.18409090909090864,
                "tempo": 120.0
            },
            {
                "start_time": 8.413636363636364,
                "end_time": 8.665909090909091,
                "pitch": 51,
                "velocity": 51,
                "duration": 0.252272727272727,
                "tempo": 120.0
            },
            {
                "start_time": 8.681818181818182,
                "end_time": 9.068181818181818,
                "pitch": 42,
                "velocity": 51,
                "duration": 0.3863636363636367,
                "tempo": 120.0
            },
            {
                "start_time": 9.084090909090909,
                "end_time": 9.202272727272726,
                "pitch": 42,
                "velocity": 51,
                "duration": 0.11818181818181728,
                "tempo": 120.0
            },
            {
                "start_time": 9.218181818181817,
                "end_time": 9.602272727272727,
                "pitch": 44,
                "velocity": 51,
                "duration": 0.3840909090909097,
                "tempo": 120.0
            },
            {
                "start_time": 9.618181818181817,
                "end_time": 9.802272727272726,
                "pitch": 43,
                "velocity": 51,
                "duration": 0.18409090909090864,
                "tempo": 120.0
            },
            {
                "start_time": 10.020454545454545,
                "end_time": 10.272727272727272,
                "pitch": 50,
                "velocity": 51,
                "duration": 0.252272727272727,
                "tempo": 120.0
            },
            {
                "start_time": 10.288636363636364,
                "end_time": 10.674999999999999,
                "pitch": 47,
                "velocity": 51,
                "duration": 0.3863636363636349,
                "tempo": 120.0
            },
            {
                "start_time": 10.693181818181818,
                "end_time": 10.809090909090909,
                "pitch": 50,
                "velocity": 51,
                "duration": 0.1159090909090903,
                "tempo": 120.0
            },
            {
                "start_time": 10.827272727272726,
                "end_time": 11.077272727272726,
                "pitch": 47,
                "velocity": 51,
                "duration": 0.25,
                "tempo": 120.0
            },
            {
                "start_time": 11.095454545454546,
                "end_time": 11.211363636363636,
                "pitch": 43,
                "velocity": 51,
                "duration": 0.1159090909090903,
                "tempo": 120.0
            },
            {
                "start_time": 11.229545454545454,
                "end_time": 11.479545454545454,
                "pitch": 42,
                "velocity": 51,
                "duration": 0.25,
                "tempo": 120.0
            },
            {
                "start_time": 11.495454545454544,
                "end_time": 11.613636363636363,
                "pitch": 46,
                "velocity": 51,
                "duration": 0.11818181818181905,
                "tempo": 120.0
            },
            {
                "start_time": 11.629545454545454,
                "end_time": 11.881818181818181,
                "pitch": 49,
                "velocity": 51,
                "duration": 0.252272727272727,
                "tempo": 120.0
            },
            {
                "start_time": 11.897727272727272,
                "end_time": 12.01590909090909,
                "pitch": 54,
                "velocity": 51,
                "duration": 0.11818181818181905,
                "tempo": 120.0
            },
            {
                "start_time": 12.299999999999999,
                "end_time": 12.418181818181818,
                "pitch": 54,
                "velocity": 51,
                "duration": 0.11818181818181905,
                "tempo": 120.0
            },
            {
                "start_time": 12.434090909090909,
                "end_time": 12.686363636363636,
                "pitch": 49,
                "velocity": 51,
                "duration": 0.252272727272727,
                "tempo": 120.0
            },
            {
                "start_time": 12.702272727272726,
                "end_time": 12.820454545454545,
                "pitch": 46,
                "velocity": 51,
                "duration": 0.11818181818181905,
                "tempo": 120.0
            },
            {
                "start_time": 12.836363636363636,
                "end_time": 13.088636363636363,
                "pitch": 40,
                "velocity": 51,
                "duration": 0.252272727272727,
                "tempo": 120.0
            },
            {
                "start_time": 13.10681818181818,
                "end_time": 13.222727272727273,
                "pitch": 51,
                "velocity": 51,
                "duration": 0.11590909090909207,
                "tempo": 120.0
            },
            {
                "start_time": 13.24090909090909,
                "end_time": 13.49090909090909,
                "pitch": 52,
                "velocity": 51,
                "duration": 0.25,
                "tempo": 120.0
            },
            {
                "start_time": 13.506818181818181,
                "end_time": 13.622727272727271,
                "pitch": 39,
                "velocity": 51,
                "duration": 0.1159090909090903,
                "tempo": 120.0
            },
            {
                "start_time": 13.64090909090909,
                "end_time": 13.89090909090909,
                "pitch": 49,
                "velocity": 51,
                "duration": 0.25,
                "tempo": 120.0
            },
            {
                "start_time": 13.909090909090908,
                "end_time": 14.024999999999999,
                "pitch": 51,
                "velocity": 51,
                "duration": 0.1159090909090903,
                "tempo": 120.0
            },
            {
                "start_time": 14.043181818181818,
                "end_time": 14.295454545454545,
                "pitch": 37,
                "velocity": 51,
                "duration": 0.252272727272727,
                "tempo": 120.0
            },
            {
                "start_time": 14.311363636363636,
                "end_time": 14.429545454545455,
                "pitch": 47,
                "velocity": 51,
                "duration": 0.11818181818181905,
                "tempo": 120.0
            },
            {
                "start_time": 14.445454545454545,
                "end_time": 14.83181818181818,
                "pitch": 49,
                "velocity": 51,
                "duration": 0.3863636363636349,
                "tempo": 120.0
            },
            {
                "start_time": 14.847727272727273,
                "end_time": 15.234090909090908,
                "pitch": 42,
                "velocity": 51,
                "duration": 0.3863636363636349,
                "tempo": 120.0
            },
            {
                "start_time": 15.25,
                "end_time": 15.5,
                "pitch": 52,
                "velocity": 51,
                "duration": 0.25,
                "tempo": 120.0
            },
            {
                "start_time": 15.518181818181818,
                "end_time": 15.634090909090908,
                "pitch": 49,
                "velocity": 51,
                "duration": 0.1159090909090903,
                "tempo": 120.0
            },
            {
                "start_time": 15.649999999999999,
                "end_time": 15.902272727272727,
                "pitch": 46,
                "velocity": 51,
                "duration": 0.25227272727272876,
                "tempo": 120.0
            },
            {
                "start_time": 15.918181818181818,
                "end_time": 16.036363636363635,
                "pitch": 42,
                "velocity": 51,
                "duration": 0.11818181818181728,
                "tempo": 120.0
            },
            {
                "start_time": 16.052272727272726,
                "end_time": 16.438636363636363,
                "pitch": 47,
                "velocity": 51,
                "duration": 0.3863636363636367,
                "tempo": 120.0
            },
            {
                "start_time": 16.456818181818182,
                "end_time": 16.83863636363636,
                "pitch": 42,
                "velocity": 51,
                "duration": 0.38181818181817917,
                "tempo": 120.0
            },
            {
                "start_time": 16.85681818181818,
                "end_time": 17.24090909090909,
                "pitch": 44,
                "velocity": 51,
                "duration": 0.38409090909090793,
                "tempo": 120.0
            },
            {
                "start_time": 17.259090909090908,
                "end_time": 19.24772727272727,
                "pitch": 47,
                "velocity": 51,
                "duration": 1.9886363636363633,
                "tempo": 120.0
            }
        ],
        "Oboe": [
            {
                "start_time": 0.0,
                "end_time": 0.18409090909090908,
                "pitch": 66,
                "velocity": 40,
                "duration": 0.18409090909090908,
                "tempo": 120.0
            },
            {
                "start_time": 0.4022727272727272,
                "end_time": 0.6477272727272727,
                "pitch": 71,
                "velocity": 40,
                "duration": 0.24545454545454548,
                "tempo": 120.0
            },
            {
                "start_time": 0.6636363636363636,
                "end_time": 1.0431818181818182,
                "pitch": 63,
                "velocity": 40,
                "duration": 0.37954545454545463,
                "tempo": 120.0
            },
            {
                "start_time": 1.0613636363636363,
                "end_time": 1.1772727272727272,
                "pitch": 63,
                "velocity": 40,
                "duration": 0.11590909090909096,
                "tempo": 120.0
            },
            {
                "start_time": 1.1931818181818181,
                "end_time": 1.5772727272727272,
                "pitch": 64,
                "velocity": 40,
                "duration": 0.38409090909090904,
                "tempo": 120.0
            },
            {
                "start_time": 1.593181818181818,
                "end_time": 1.7795454545454545,
                "pitch": 66,
                "velocity": 40,
                "duration": 0.1863636363636365,
                "tempo": 120.0
            },
            {
                "start_time": 1.9954545454545454,
                "end_time": 2.245454545454545,
                "pitch": 71,
                "velocity": 40,
                "duration": 0.24999999999999978,
                "tempo": 120.0
            },
            {
                "start_time": 2.2636363636363637,
                "end_time": 2.6454545454545455,
                "pitch": 63,
                "velocity": 40,
                "duration": 0.38181818181818183,
                "tempo": 120.0
            },
            {
                "start_time": 2.6636363636363636,
                "end_time": 2.7795454545454543,
                "pitch": 63,
                "velocity": 40,
                "duration": 0.11590909090909074,
                "tempo": 120.0
            },
            {
                "start_time": 2.7954545454545454,
                "end_time": 3.1795454545454542,
                "pitch": 64,
                "velocity": 40,
                "duration": 0.3840909090909088,
                "tempo": 120.0
            },
            {
                "start_time": 3.1954545454545453,
                "end_time": 3.381818181818182,
                "pitch": 66,
                "velocity": 40,
                "duration": 0.1863636363636365,
                "tempo": 120.0
            },
            {
                "start_time": 3.5999999999999996,
                "end_time": 3.8499999999999996,
                "pitch": 71,
                "velocity": 40,
                "duration": 0.25,
                "tempo": 120.0
            },
            {
                "start_time": 3.8659090909090907,
                "end_time": 4.25,
                "pitch": 63,
                "velocity": 40,
                "duration": 0.38409090909090926,
                "tempo": 120.0
            },
            {
                "start_time": 4.265909090909091,
                "end_time": 4.381818181818182,
                "pitch": 63,
                "velocity": 40,
                "duration": 0.11590909090909118,
                "tempo": 120.0
            },
            {
                "start_time": 4.3999999999999995,
                "end_time": 4.784090909090909,
                "pitch": 64,
                "velocity": 40,
                "duration": 0.3840909090909097,
                "tempo": 120.0
            },
            {
                "start_time": 4.802272727272727,
                "end_time": 5.1863636363636365,
                "pitch": 63,
                "velocity": 40,
                "duration": 0.3840909090909097,
                "tempo": 120.0
            },
            {
                "start_time": 5.593181818181818,
                "end_time": 6.388636363636364,
                "pitch": 58,
                "velocity": 40,
                "duration": 0.7954545454545459,
                "tempo": 120.0
            },
            {
                "start_time": 6.404545454545454,
                "end_time": 6.656818181818181,
                "pitch": 75,
                "velocity": 40,
                "duration": 0.252272727272727,
                "tempo": 120.0
            },
            {
                "start_time": 6.672727272727273,
                "end_time": 6.790909090909091,
                "pitch": 70,
                "velocity": 40,
                "duration": 0.11818181818181817,
                "tempo": 120.0
            },
            {
                "start_time": 6.806818181818182,
                "end_time": 7.056818181818182,
                "pitch": 71,
                "velocity": 40,
                "duration": 0.25,
                "tempo": 120.0
            },
            {
                "start_time": 7.074999999999999,
                "end_time": 7.1909090909090905,
                "pitch": 66,
                "velocity": 40,
                "duration": 0.11590909090909118,
                "tempo": 120.0
            },
            {
                "start_time": 7.206818181818181,
                "end_time": 7.459090909090909,
                "pitch": 68,
                "velocity": 40,
                "duration": 0.25227272727272787,
                "tempo": 120.0
            },
            {
                "start_time": 7.477272727272727,
                "end_time": 7.593181818181818,
                "pitch": 63,
                "velocity": 40,
                "duration": 0.11590909090909118,
                "tempo": 120.0
            },
            {
                "start_time": 7.611363636363636,
                "end_time": 7.861363636363636,
                "pitch": 66,
                "velocity": 40,
                "duration": 0.25,
                "tempo": 120.0
            },
            {
                "start_time": 7.877272727272727,
                "end_time": 7.993181818181818,
                "pitch": 59,
                "velocity": 40,
                "duration": 0.11590909090909118,
                "tempo": 120.0
            },
            {
                "start_time": 8.011363636363637,
                "end_time": 8.195454545454545,
                "pitch": 63,
                "velocity": 40,
                "duration": 0.18409090909090864,
                "tempo": 120.0
            },
            {
                "start_time": 8.413636363636364,
                "end_time": 8.665909090909091,
                "pitch": 66,
                "velocity": 40,
                "duration": 0.252272727272727,
                "tempo": 120.0
            },
            {
                "start_time": 8.681818181818182,
                "end_time": 8.799999999999999,
                "pitch": 71,
                "velocity": 40,
                "duration": 0.11818181818181728,
                "tempo": 120.0
            },
            {
                "start_time": 9.084090909090909,
                "end_time": 9.202272727272726,
                "pitch": 71,
                "velocity": 40,
                "duration": 0.11818181818181728,
                "tempo": 120.0
            },
            {
                "start_time": 9.218181818181817,
                "end_time": 9.468181818181817,
                "pitch": 73,
                "velocity": 40,
                "duration": 0.25,
                "tempo": 120.0
            },
            {
                "start_time": 9.48409090909091,
                "end_time": 9.602272727272727,
                "pitch": 75,
                "velocity": 40,
                "duration": 0.11818181818181728,
                "tempo": 120.0
            },
            {
                "start_time": 9.618181818181817,
                "end_time": 10.809090909090909,
                "pitch": 71,
                "velocity": 40,
                "duration": 1.1909090909090914,
                "tempo": 120.0
            },
            {
                "start_time": 10.827272727272726,
                "end_time": 10.911363636363635,
                "pitch": 76,
                "velocity": 40,
                "duration": 0.084090909090909,
                "tempo": 120.0
            },
            {
                "start_time": 10.927272727272726,
                "end_time": 11.011363636363637,
                "pitch": 75,
                "velocity": 40,
                "duration": 0.08409090909091077,
                "tempo": 120.0
            },
            {
                "start_time": 11.027272727272727,
                "end_time": 11.111363636363636,
                "pitch": 73,
                "velocity": 40,
                "duration": 0.084090909090909,
                "tempo": 120.0
            },
            {
                "start_time": 11.129545454545454,
                "end_time": 11.211363636363636,
                "pitch": 71,
                "velocity": 40,
                "duration": 0.08181818181818201,
                "tempo": 120.0
            },
            {
                "start_time": 11.229545454545454,
                "end_time": 12.418181818181818,
                "pitch": 70,
                "velocity": 40,
                "duration": 1.1886363636363644,
                "tempo": 120.0
            },
            {
                "start_time": 12.434090909090909,
                "end_time": 12.820454545454545,
                "pitch": 70,
                "velocity": 40,
                "duration": 0.3863636363636367,
                "tempo": 120.0
            },
            {
                "start_time": 12.836363636363636,
                "end_time": 13.088636363636363,
                "pitch": 64,
                "velocity": 40,
                "duration": 0.252272727272727,
                "tempo": 120.0
            },
            {
                "start_time": 13.10681818181818,
                "end_time": 13.222727272727273,
                "pitch": 68,
                "velocity": 40,
                "duration": 0.11590909090909207,
                "tempo": 120.0
            },
            {
                "start_time": 13.24090909090909,
                "end_time": 13.49090909090909,
                "pitch": 71,
                "velocity": 40,
                "duration": 0.25,
                "tempo": 120.0
            },
            {
                "start_time": 13.506818181818181,
                "end_time": 13.622727272727271,
                "pitch": 63,
                "velocity": 40,
                "duration": 0.1159090909090903,
                "tempo": 120.0
            },
            {
                "start_time": 13.64090909090909,
                "end_time": 13.89090909090909,
                "pitch": 66,
                "velocity": 40,
                "duration": 0.25,
                "tempo": 120.0
            },
            {
                "start_time": 13.909090909090908,
                "end_time": 14.024999999999999,
                "pitch": 70,
                "velocity": 40,
                "duration": 0.1159090909090903,
                "tempo": 120.0
            },
            {
                "start_time": 14.043181818181818,
                "end_time": 14.295454545454545,
                "pitch": 61,
                "velocity": 40,
                "duration": 0.252272727272727,
                "tempo": 120.0
            },
            {
                "start_time": 14.311363636363636,
                "end_time": 14.429545454545455,
                "pitch": 64,
                "velocity": 40,
                "duration": 0.11818181818181905,
                "tempo": 120.0
            },
            {
                "start_time": 14.445454545454545,
                "end_time": 14.697727272727272,
                "pitch": 68,
                "velocity": 40,
                "duration": 0.252272727272727,
                "tempo": 120.0
            },
            {
                "start_time": 14.713636363636363,
                "end_time": 15.234090909090908,
                "pitch": 75,
                "velocity": 40,
                "duration": 0.5204545454545446,
                "tempo": 120.0
            },
            {
                "start_time": 15.25,
                "end_time": 15.634090909090908,
                "pitch": 64,
                "velocity": 40,
                "duration": 0.38409090909090793,
                "tempo": 120.0
            },
            {
                "start_time": 15.649999999999999,
                "end_time": 16.036363636363635,
                "pitch": 64,
                "velocity": 40,
                "duration": 0.3863636363636367,
                "tempo": 120.0
            },
            {
                "start_time": 16.052272727272726,
                "end_time": 16.638636363636362,
                "pitch": 63,
                "velocity": 40,
                "duration": 0.586363636363636,
                "tempo": 120.0
            },
            {
                "start_time": 16.65681818181818,
                "end_time": 17.24090909090909,
                "pitch": 63,
                "velocity": 40,
                "duration": 0.5840909090909072,
                "tempo": 120.0
            },
            {
                "start_time": 17.259090909090908,
                "end_time": 19.24772727272727,
                "pitch": 63,
                "velocity": 40,
                "duration": 1.9886363636363633,
                "tempo": 120.0
            }
        ]
    }
}