{
    "track_id": "Megumi Rescue (FM) - 05 - Bonus Start",
    "mood": "happy",
    "instruments": {
        "Acoustic Grand Piano": [
            {
                "start_time": 0.004545454545454545,
                "end_time": 0.11818181818181818,
                "pitch": 67,
                "velocity": 40,
                "duration": 0.11363636363636363,
                "tempo": 120.0
            },
            {
                "start_time": 0.1340909090909091,
                "end_time": 0.23409090909090907,
                "pitch": 67,
                "velocity": 40,
                "duration": 0.09999999999999998,
                "tempo": 120.0
            },
            {
                "start_time": 0.25227272727272726,
                "end_time": 0.47045454545454546,
                "pitch": 67,
                "velocity": 40,
                "duration": 0.2181818181818182,
                "tempo": 120.0
            },
            {
                "start_time": 0.48636363636363633,
                "end_time": 0.7045454545454545,
                "pitch": 67,
                "velocity": 40,
                "duration": 0.21818181818181814,
                "tempo": 120.0
            },
            {
                "start_time": 0.7227272727272727,
                "end_time": 0.8227272727272726,
                "pitch": 67,
                "velocity": 40,
                "duration": 0.09999999999999998,
                "tempo": 120.0
            },
            {
                "start_time": 0.8409090909090908,
                "end_time": 1.0613636363636363,
                "pitch": 67,
                "velocity": 40,
                "duration": 0.22045454545454546,
                "tempo": 120.0
            },
            {
                "start_time": 1.0772727272727272,
                "end_time": 1.1795454545454545,
                "pitch": 67,
                "velocity": 40,
                "duration": 0.10227272727272729,
                "tempo": 120.0
            },
            {
                "start_time": 1.1977272727272728,
                "end_time": 1.4181818181818182,
                "pitch": 69,
                "velocity": 40,
                "duration": 0.22045454545454546,
                "tempo": 120.0
            },
            {
                "start_time": 1.434090909090909,
                "end_time": 1.6545454545454545,
                "pitch": 69,
                "velocity": 40,
                "duration": 0.22045454545454546,
                "tempo": 120.0
            },
            {
                "start_time": 1.6727272727272726,
                "end_time": 1.7727272727272727,
                "pitch": 69,
                "velocity": 40,
                "duration": 0.10000000000000009,
                "tempo": 120.0
            },
            {
                "start_time": 1.7886363636363636,
                "end_time": 3.4204545454545454,
                "pitch": 66,
                "velocity": 40,
                "duration": 1.6318181818181818,
                "tempo": 120.0
            },
            {
                "start_time": 3.436363636363636,
                "end_time": 3.4704545454545452,
                "pitch": 74,
                "velocity": 40,
                "duration": 0.03409090909090917,
                "tempo": 120.0
            },
            {
                "start_time": 3.4863636363636363,
                "end_time": 3.536363636363636,
                "pitch": 72,
                "velocity": 40,
                "duration": 0.04999999999999982,
                "tempo": 120.0
            },
            {
                "start_time": 3.5545454545454542,
                "end_time": 3.5886363636363634,
                "pitch": 71,
                "velocity": 40,
                "duration": 0.03409090909090917,
                "tempo": 120.0
            },
            {
                "start_time": 3.6045454545454545,
                "end_time": 3.6545454545454543,
                "pitch": 69,
                "velocity": 40,
                "duration": 0.04999999999999982,
                "tempo": 120.0
            },
            {
                "start_time": 3.6727272727272724,
                "end_time": 3.8909090909090907,
                "pitch": 67,
                "velocity": 40,
                "duration": 0.21818181818181825,
                "tempo": 120.0
            }
        ],
        "Acoustic Bass": [
            {
                "start_time": 0.004545454545454545,
                "end_time": 0.11818181818181818,
                "pitch": 55,
                "velocity": 40,
                "duration": 0.11363636363636363,
                "tempo": 120.0
            },
            {
                "start_time": 0.1340909090909091,
                "end_time": 0.35227272727272724,
                "pitch": 55,
                "velocity": 40,
                "duration": 0.21818181818181814,
                "tempo": 120.0
            },
            {
                "start_time": 0.36818181818181817,
                "end_time": 0.5886363636363636,
                "pitch": 53,
                "velocity": 40,
                "duration": 0.22045454545454546,
                "tempo": 120.0
            },
            {
                "start_time": 0.6045454545454545,
                "end_time": 0.8227272727272726,
                "pitch": 53,
                "velocity": 40,
                "duration": 0.21818181818181814,
                "tempo": 120.0
            },
            {
                "start_time": 0.8409090909090908,
                "end_time": 1.0613636363636363,
                "pitch": 52,
                "velocity": 40,
                "duration": 0.22045454545454546,
                "tempo": 120.0
            },
            {
                "start_time": 1.0772727272727272,
                "end_time": 1.3,
                "pitch": 52,
                "velocity": 40,
                "duration": 0.22272727272727288,
                "tempo": 120.0
            },
            {
                "start_time": 1.315909090909091,
                "end_time": 1.5363636363636364,
                "pitch": 51,
                "velocity": 40,
                "duration": 0.22045454545454546,
                "tempo": 120.0
            },
            {
                "start_time": 1.5545454545454545,
                "end_time": 1.7727272727272727,
                "pitch": 51,
                "velocity": 40,
                "duration": 0.21818181818181825,
                "tempo": 120.0
            },
            {
                "start_time": 1.7886363636363636,
                "end_time": 2.006818181818182,
                "pitch": 50,
                "velocity": 40,
                "duration": 0.21818181818181825,
                "tempo": 120.0
            },
            {
                "start_time": 2.025,
                "end_time": 2.243181818181818,
                "pitch": 50,
                "velocity": 40,
                "duration": 0.21818181818181825,
                "tempo": 120.0
            },
            {
                "start_time": 2.259090909090909,
                "end_time": 2.4795454545454545,
                "pitch": 50,
                "velocity": 40,
                "duration": 0.22045454545454568,
                "tempo": 120.0
            },
            {
                "start_time": 2.495454545454545,
                "end_time": 2.5954545454545452,
                "pitch": 50,
                "velocity": 40,
                "duration": 0.10000000000000009,
                "tempo": 120.0
            },
            {
                "start_time": 2.6136363636363633,
                "end_time": 2.8318181818181816,
                "pitch": 57,
                "velocity": 40,
                "duration": 0.21818181818181825,
                "tempo": 120.0
            },
            {
                "start_time": 2.8477272727272727,
                "end_time": 2.9499999999999997,
                "pitch": 50,
                "velocity": 40,
                "duration": 0.10227272727272707,
                "tempo": 120.0
            },
            {
                "start_time": 2.965909090909091,
                "end_time": 3.184090909090909,
                "pitch": 60,
                "velocity": 40,
                "duration": 0.21818181818181825,
                "tempo": 120.0
            },
            {
                "start_time": 3.1999999999999997,
                "end_time": 3.6545454545454543,
                "pitch": 50,
                "velocity": 40,
                "duration": 0.4545454545454546,
                "tempo": 120.0
            },
            {
                "start_time": 3.6727272727272724,
                "end_time": 3.8909090909090907,
                "pitch": 55,
                "velocity": 40,
                "duration": 0.21818181818181825,
                "tempo": 120.0
            },
            {
                "start_time": 3.9068181818181817,
                "end_time": 4.125,
                "pitch": 43,
                "velocity": 40,
                "duration": 0.21818181818181825,
                "tempo": 120.0
            }
        ]
    }
}