{
    "track_id": "Megumi Rescue (FM) - 08 - Rounds 21-30",
    "mood": "happy",
    "instruments": {
        "Clarinet": [
            {
                "start_time": 0.07727272727272727,
                "end_time": 0.6545454545454545,
                "pitch": 78,
                "velocity": 40,
                "duration": 0.5772727272727273,
                "tempo": 120.0
            },
            {
                "start_time": 0.6704545454545454,
                "end_time": 1.0545454545454545,
                "pitch": 76,
                "velocity": 40,
                "duration": 0.38409090909090904,
                "tempo": 120.0
            },
            {
                "start_time": 1.0704545454545453,
                "end_time": 1.2545454545454544,
                "pitch": 76,
                "velocity": 40,
                "duration": 0.18409090909090908,
                "tempo": 120.0
            },
            {
                "start_time": 1.2727272727272727,
                "end_time": 1.6545454545454545,
                "pitch": 78,
                "velocity": 40,
                "duration": 0.38181818181818183,
                "tempo": 120.0
            },
            {
                "start_time": 1.6727272727272726,
                "end_time": 1.8568181818181817,
                "pitch": 79,
                "velocity": 40,
                "duration": 0.18409090909090908,
                "tempo": 120.0
            },
            {
                "start_time": 1.8727272727272726,
                "end_time": 2.256818181818182,
                "pitch": 78,
                "velocity": 40,
                "duration": 0.38409090909090926,
                "tempo": 120.0
            },
            {
                "start_time": 2.275,
                "end_time": 2.659090909090909,
                "pitch": 76,
                "velocity": 40,
                "duration": 0.38409090909090926,
                "tempo": 120.0
            },
            {
                "start_time": 2.675,
                "end_time": 2.8613636363636363,
                "pitch": 78,
                "velocity": 40,
                "duration": 0.1863636363636365,
                "tempo": 120.0
            },
            {
                "start_time": 2.877272727272727,
                "end_time": 3.1999999999999997,
                "pitch": 74,
                "velocity": 40,
                "duration": 0.32272727272727275,
                "tempo": 120.0
            },
            {
                "start_time": 3.1999999999999997,
                "end_time": 3.2613636363636362,
                "pitch": 74,
                "velocity": 40,
                "duration": 0.06136363636363651,
                "tempo": 120.0
            },
            {
                "start_time": 3.277272727272727,
                "end_time": 7.070454545454545,
                "pitch": 70,
                "velocity": 40,
                "duration": 3.7931818181818184,
                "tempo": 120.0
            },
            {
                "start_time": 7.088636363636363,
                "end_time": 7.472727272727273,
                "pitch": 76,
                "velocity": 40,
                "duration": 0.3840909090909097,
                "tempo": 120.0
            },
            {
                "start_time": 7.488636363636363,
                "end_time": 7.675,
                "pitch": 76,
                "velocity": 40,
                "duration": 0.1863636363636365,
                "tempo": 120.0
            },
            {
                "start_time": 7.6909090909090905,
                "end_time": 8.077272727272726,
                "pitch": 78,
                "velocity": 40,
                "duration": 0.3863636363636358,
                "tempo": 120.0
            },
            {
                "start_time": 8.093181818181817,
                "end_time": 8.277272727272727,
                "pitch": 81,
                "velocity": 40,
                "duration": 0.18409090909091042,
                "tempo": 120.0
            },
            {
                "start_time": 8.293181818181818,
                "end_time": 8.677272727272728,
                "pitch": 79,
                "velocity": 40,
                "duration": 0.3840909090909097,
                "tempo": 120.0
            },
            {
                "start_time": 8.695454545454545,
                "end_time": 9.081818181818182,
                "pitch": 78,
                "velocity": 40,
                "duration": 0.3863636363636367,
                "tempo": 120.0
            },
            {
                "start_time": 9.097727272727273,
                "end_time": 9.281818181818181,
                "pitch": 79,
                "velocity": 40,
                "duration": 0.18409090909090864,
                "tempo": 120.0
            },
            {
                "start_time": 9.299999999999999,
                "end_time": 9.684090909090909,
                "pitch": 76,
                "velocity": 40,
                "duration": 0.3840909090909097,
                "tempo": 120.0
            },
            {
                "start_time": 9.702272727272726,
                "end_time": 13.304545454545455,
                "pitch": 70,
                "velocity": 40,
                "duration": 3.6022727272727284,
                "tempo": 120.0
            },
            {
                "start_time": 13.320454545454545,
                "end_time": 13.504545454545454,
                "pitch": 67,
                "velocity": 40,
                "duration": 0.18409090909090864,
                "tempo": 120.0
            },
            {
                "start_time": 13.522727272727272,
                "end_time": 13.706818181818182,
                "pitch": 69,
                "velocity": 40,
                "duration": 0.18409090909091042,
                "tempo": 120.0
            },
            {
                "start_time": 13.922727272727272,
                "end_time": 14.509090909090908,
                "pitch": 74,
                "velocity": 40,
                "duration": 0.586363636363636,
                "tempo": 120.0
            },
            {
                "start_time": 14.524999999999999,
                "end_time": 14.711363636363636,
                "pitch": 67,
                "velocity": 40,
                "duration": 0.1863636363636374,
                "tempo": 120.0
            },
            {
                "start_time": 14.727272727272727,
                "end_time": 14.911363636363635,
                "pitch": 69,
                "velocity": 40,
                "duration": 0.18409090909090864,
                "tempo": 120.0
            },
            {
                "start_time": 15.129545454545454,
                "end_time": 15.313636363636363,
                "pitch": 71,
                "velocity": 40,
                "duration": 0.18409090909090864,
                "tempo": 120.0
            },
            {
                "start_time": 15.531818181818181,
                "end_time": 15.915909090909091,
                "pitch": 81,
                "velocity": 40,
                "duration": 0.3840909090909097,
                "tempo": 120.0
            },
            {
                "start_time": 15.934090909090909,
                "end_time": 16.118181818181817,
                "pitch": 79,
                "velocity": 40,
                "duration": 0.18409090909090864,
                "tempo": 120.0
            },
            {
                "start_time": 16.134090909090908,
                "end_time": 16.520454545454545,
                "pitch": 67,
                "velocity": 40,
                "duration": 0.3863636363636367,
                "tempo": 120.0
            },
            {
                "start_time": 16.536363636363635,
                "end_time": 16.920454545454543,
                "pitch": 66,
                "velocity": 40,
                "duration": 0.38409090909090793,
                "tempo": 120.0
            },
            {
                "start_time": 16.936363636363634,
                "end_time": 17.320454545454545,
                "pitch": 67,
                "velocity": 40,
                "duration": 0.3840909090909115,
                "tempo": 120.0
            },
            {
                "start_time": 17.336363636363636,
                "end_time": 17.722727272727273,
                "pitch": 69,
                "velocity": 40,
                "duration": 0.3863636363636367,
                "tempo": 120.0
            },
            {
                "start_time": 17.738636363636363,
                "end_time": 18.12272727272727,
                "pitch": 71,
                "velocity": 40,
                "duration": 0.38409090909090793,
                "tempo": 120.0
            },
            {
                "start_time": 18.138636363636362,
                "end_time": 18.525,
                "pitch": 76,
                "velocity": 40,
                "duration": 0.3863636363636367,
                "tempo": 120.0
            },
            {
                "start_time": 18.54090909090909,
                "end_time": 18.925,
                "pitch": 74,
                "velocity": 40,
                "duration": 0.3840909090909115,
                "tempo": 120.0
            },
            {
                "start_time": 18.94090909090909,
                "end_time": 19.325,
                "pitch": 73,
                "velocity": 40,
                "duration": 0.38409090909090793,
                "tempo": 120.0
            },
            {
                "start_time": 19.34090909090909,
                "end_time": 19.927272727272726,
                "pitch": 78,
                "velocity": 40,
                "duration": 0.586363636363636,
                "tempo": 120.0
            },
            {
                "start_time": 19.943181818181817,
                "end_time": 20.329545454545453,
                "pitch": 76,
                "velocity": 40,
                "duration": 0.3863636363636367,
                "tempo": 120.0
            },
            {
                "start_time": 20.345454545454544,
                "end_time": 20.529545454545453,
                "pitch": 76,
                "velocity": 40,
                "duration": 0.18409090909090864,
                "tempo": 120.0
            },
            {
                "start_time": 20.547727272727272,
                "end_time": 20.929545454545455,
                "pitch": 78,
                "velocity": 40,
                "duration": 0.3818181818181827,
                "tempo": 120.0
            },
            {
                "start_time": 20.94772727272727,
                "end_time": 21.129545454545454,
                "pitch": 79,
                "velocity": 40,
                "duration": 0.18181818181818343,
                "tempo": 120.0
            },
            {
                "start_time": 21.147727272727273,
                "end_time": 21.53181818181818,
                "pitch": 78,
                "velocity": 40,
                "duration": 0.38409090909090793,
                "tempo": 120.0
            },
            {
                "start_time": 21.547727272727272,
                "end_time": 21.93181818181818,
                "pitch": 76,
                "velocity": 40,
                "duration": 0.38409090909090793,
                "tempo": 120.0
            },
            {
                "start_time": 21.95,
                "end_time": 22.134090909090908,
                "pitch": 78,
                "velocity": 40,
                "duration": 0.18409090909090864,
                "tempo": 120.0
            },
            {
                "start_time": 22.15,
                "end_time": 22.536363636363635,
                "pitch": 74,
                "velocity": 40,
                "duration": 0.3863636363636367,
                "tempo": 120.0
            },
            {
                "start_time": 22.552272727272726,
                "end_time": 26.345454545454544,
                "pitch": 70,
                "velocity": 40,
                "duration": 3.793181818181818,
                "tempo": 120.0
            },
            {
                "start_time": 26.361363636363635,
                "end_time": 26.745454545454542,
                "pitch": 76,
                "velocity": 40,
                "duration": 0.38409090909090793,
                "tempo": 120.0
            },
            {
                "start_time": 26.763636363636362,
                "end_time": 26.945454545454545,
                "pitch": 76,
                "velocity": 40,
                "duration": 0.18181818181818343,
                "tempo": 120.0
            },
            {
                "start_time": 26.96363636363636,
                "end_time": 27.345454545454544,
                "pitch": 78,
                "velocity": 40,
                "duration": 0.3818181818181827,
                "tempo": 120.0
            },
            {
                "start_time": 27.363636363636363,
                "end_time": 27.547727272727272,
                "pitch": 81,
                "velocity": 40,
                "duration": 0.18409090909090864,
                "tempo": 120.0
            },
            {
                "start_time": 27.563636363636363,
                "end_time": 27.95,
                "pitch": 79,
                "velocity": 40,
                "duration": 0.3863636363636367,
                "tempo": 120.0
            },
            {
                "start_time": 27.96590909090909,
                "end_time": 28.349999999999998,
                "pitch": 78,
                "velocity": 40,
                "duration": 0.38409090909090793,
                "tempo": 120.0
            },
            {
                "start_time": 28.368181818181817,
                "end_time": 28.552272727272726,
                "pitch": 79,
                "velocity": 40,
                "duration": 0.18409090909090864,
                "tempo": 120.0
            },
            {
                "start_time": 28.568181818181817,
                "end_time": 28.952272727272724,
                "pitch": 76,
                "velocity": 40,
                "duration": 0.38409090909090793,
                "tempo": 120.0
            },
            {
                "start_time": 28.968181818181815,
                "end_time": 32.559090909090905,
                "pitch": 70,
                "velocity": 40,
                "duration": 3.59090909090909,
                "tempo": 120.0
            },
            {
                "start_time": 32.57727272727273,
                "end_time": 32.75909090909091,
                "pitch": 67,
                "velocity": 40,
                "duration": 0.18181818181817988,
                "tempo": 120.0
            },
            {
                "start_time": 32.777272727272724,
                "end_time": 32.95909090909091,
                "pitch": 69,
                "velocity": 40,
                "duration": 0.18181818181818699,
                "tempo": 120.0
            },
            {
                "start_time": 33.17727272727272,
                "end_time": 33.76136363636363,
                "pitch": 74,
                "velocity": 40,
                "duration": 0.5840909090909108,
                "tempo": 120.0
            },
            {
                "start_time": 33.779545454545456,
                "end_time": 33.961363636363636,
                "pitch": 67,
                "velocity": 40,
                "duration": 0.18181818181817988,
                "tempo": 120.0
            },
            {
                "start_time": 33.97954545454545,
                "end_time": 34.16136363636363,
                "pitch": 69,
                "velocity": 40,
                "duration": 0.18181818181817988,
                "tempo": 120.0
            },
            {
                "start_time": 34.37954545454545,
                "end_time": 34.56136363636364,
                "pitch": 71,
                "velocity": 40,
                "duration": 0.18181818181818699,
                "tempo": 120.0
            },
            {
                "start_time": 34.779545454545456,
                "end_time": 35.163636363636364,
                "pitch": 81,
                "velocity": 40,
                "duration": 0.38409090909090793,
                "tempo": 120.0
            },
            {
                "start_time": 35.18181818181818,
                "end_time": 35.36590909090909,
                "pitch": 79,
                "velocity": 40,
                "duration": 0.1840909090909122,
                "tempo": 120.0
            },
            {
                "start_time": 35.38181818181818,
                "end_time": 35.76590909090909,
                "pitch": 67,
                "velocity": 40,
                "duration": 0.38409090909090793,
                "tempo": 120.0
            },
            {
                "start_time": 35.78181818181818,
                "end_time": 36.16590909090909,
                "pitch": 66,
                "velocity": 40,
                "duration": 0.38409090909090793,
                "tempo": 120.0
            },
            {
                "start_time": 36.18181818181818,
                "end_time": 36.56590909090909,
                "pitch": 67,
                "velocity": 40,
                "duration": 0.38409090909090793,
                "tempo": 120.0
            },
            {
                "start_time": 36.58181818181818,
                "end_time": 36.965909090909086,
                "pitch": 69,
                "velocity": 40,
                "duration": 0.38409090909090793,
                "tempo": 120.0
            },
            {
                "start_time": 36.98181818181818,
                "end_time": 37.36818181818182,
                "pitch": 71,
                "velocity": 40,
                "duration": 0.38636363636364024,
                "tempo": 120.0
            },
            {
                "start_time": 37.38409090909091,
                "end_time": 37.768181818181816,
                "pitch": 76,
                "velocity": 40,
                "duration": 0.38409090909090793,
                "tempo": 120.0
            },
            {
                "start_time": 37.78409090909091,
                "end_time": 38.168181818181814,
                "pitch": 74,
                "velocity": 40,
                "duration": 0.38409090909090793,
                "tempo": 120.0
            },
            {
                "start_time": 38.184090909090905,
                "end_time": 38.56818181818181,
                "pitch": 73,
                "velocity": 40,
                "duration": 0.38409090909090793,
                "tempo": 120.0
            },
            {
                "start_time": 38.584090909090904,
                "end_time": 40.17045454545455,
                "pitch": 79,
                "velocity": 40,
                "duration": 1.586363636363643,
                "tempo": 120.0
            },
            {
                "start_time": 40.18636363636364,
                "end_time": 40.77045454545454,
                "pitch": 81,
                "velocity": 40,
                "duration": 0.5840909090909037,
                "tempo": 120.0
            },
            {
                "start_time": 40.78636363636363,
                "end_time": 41.37272727272727,
                "pitch": 79,
                "velocity": 40,
                "duration": 0.586363636363636,
                "tempo": 120.0
            },
            {
                "start_time": 41.38863636363636,
                "end_time": 41.77272727272727,
                "pitch": 79,
                "velocity": 40,
                "duration": 0.38409090909091503,
                "tempo": 120.0
            },
            {
                "start_time": 41.788636363636364,
                "end_time": 43.375,
                "pitch": 78,
                "velocity": 40,
                "duration": 1.586363636363636,
                "tempo": 120.0
            },
            {
                "start_time": 43.393181818181816,
                "end_time": 43.974999999999994,
                "pitch": 79,
                "velocity": 40,
                "duration": 0.5818181818181785,
                "tempo": 120.0
            },
            {
                "start_time": 43.99318181818182,
                "end_time": 44.574999999999996,
                "pitch": 78,
                "velocity": 40,
                "duration": 0.5818181818181785,
                "tempo": 120.0
            },
            {
                "start_time": 44.59318181818182,
                "end_time": 44.974999999999994,
                "pitch": 78,
                "velocity": 40,
                "duration": 0.3818181818181756,
                "tempo": 120.0
            },
            {
                "start_time": 44.99318181818182,
                "end_time": 46.57954545454545,
                "pitch": 79,
                "velocity": 40,
                "duration": 1.586363636363636,
                "tempo": 120.0
            },
            {
                "start_time": 46.595454545454544,
                "end_time": 47.179545454545455,
                "pitch": 81,
                "velocity": 40,
                "duration": 0.5840909090909108,
                "tempo": 120.0
            },
            {
                "start_time": 47.19772727272727,
                "end_time": 47.78181818181818,
                "pitch": 79,
                "velocity": 40,
                "duration": 0.5840909090909108,
                "tempo": 120.0
            },
            {
                "start_time": 47.79772727272727,
                "end_time": 48.18181818181818,
                "pitch": 79,
                "velocity": 40,
                "duration": 0.38409090909090793,
                "tempo": 120.0
            },
            {
                "start_time": 48.19772727272727,
                "end_time": 49.78409090909091,
                "pitch": 79,
                "velocity": 40,
                "duration": 1.586363636363636,
                "tempo": 120.0
            },
            {
                "start_time": 49.8,
                "end_time": 50.584090909090904,
                "pitch": 81,
                "velocity": 40,
                "duration": 0.7840909090909065,
                "tempo": 120.0
            },
            {
                "start_time": 50.599999999999994,
                "end_time": 51.38636363636363,
                "pitch": 79,
                "velocity": 40,
                "duration": 0.7863636363636388,
                "tempo": 120.0
            },
            {
                "start_time": 51.402272727272724,
                "end_time": 51.986363636363635,
                "pitch": 78,
                "velocity": 40,
                "duration": 0.5840909090909108,
                "tempo": 120.0
            },
            {
                "start_time": 52.002272727272725,
                "end_time": 52.38636363636363,
                "pitch": 76,
                "velocity": 40,
                "duration": 0.38409090909090793,
                "tempo": 120.0
            },
            {
                "start_time": 52.402272727272724,
                "end_time": 52.586363636363636,
                "pitch": 76,
                "velocity": 40,
                "duration": 0.1840909090909122,
                "tempo": 120.0
            },
            {
                "start_time": 52.60227272727273,
                "end_time": 52.986363636363635,
                "pitch": 78,
                "velocity": 40,
                "duration": 0.38409090909090793,
                "tempo": 120.0
            },
            {
                "start_time": 53.00454545454545,
                "end_time": 53.18863636363636,
                "pitch": 79,
                "velocity": 40,
                "duration": 0.1840909090909122,
                "tempo": 120.0
            },
            {
                "start_time": 53.20454545454545,
                "end_time": 53.58863636363636,
                "pitch": 78,
                "velocity": 40,
                "duration": 0.38409090909090793,
                "tempo": 120.0
            },
            {
                "start_time": 53.60681818181818,
                "end_time": 53.98863636363636,
                "pitch": 76,
                "velocity": 40,
                "duration": 0.3818181818181827,
                "tempo": 120.0
            },
            {
                "start_time": 54.00681818181818,
                "end_time": 54.18863636363636,
                "pitch": 78,
                "velocity": 40,
                "duration": 0.18181818181817988,
                "tempo": 120.0
            },
            {
                "start_time": 54.20681818181818,
                "end_time": 54.52954545454545,
                "pitch": 74,
                "velocity": 40,
                "duration": 0.32272727272727053,
                "tempo": 120.0
            }
        ],
        "Acoustic Bass": [
            {
                "start_time": 0.00909090909090909,
                "end_time": 0.19318181818181818,
                "pitch": 50,
                "velocity": 51,
                "duration": 0.18409090909090908,
                "tempo": 120.0
            },
            {
                "start_time": 0.20909090909090908,
                "end_time": 0.3931818181818182,
                "pitch": 62,
                "velocity": 51,
                "duration": 0.1840909090909091,
                "tempo": 120.0
            },
            {
                "start_time": 0.40909090909090906,
                "end_time": 0.5909090909090908,
                "pitch": 50,
                "velocity": 51,
                "duration": 0.18181818181818177,
                "tempo": 120.0
            },
            {
                "start_time": 0.6068181818181818,
                "end_time": 0.7863636363636364,
                "pitch": 62,
                "velocity": 51,
                "duration": 0.17954545454545456,
                "tempo": 120.0
            },
            {
                "start_time": 0.8022727272727272,
                "end_time": 0.9863636363636363,
                "pitch": 50,
                "velocity": 51,
                "duration": 0.18409090909090908,
                "tempo": 120.0
            },
            {
                "start_time": 1.0045454545454544,
                "end_time": 1.1886363636363635,
                "pitch": 62,
                "velocity": 51,
                "duration": 0.18409090909090908,
                "tempo": 120.0
            },
            {
                "start_time": 1.2045454545454546,
                "end_time": 1.3886363636363637,
                "pitch": 50,
                "velocity": 51,
                "duration": 0.18409090909090908,
                "tempo": 120.0
            },
            {
                "start_time": 1.4045454545454545,
                "end_time": 1.5886363636363636,
                "pitch": 62,
                "velocity": 51,
                "duration": 0.18409090909090908,
                "tempo": 120.0
            },
            {
                "start_time": 1.6045454545454545,
                "end_time": 1.7886363636363636,
                "pitch": 50,
                "velocity": 51,
                "duration": 0.18409090909090908,
                "tempo": 120.0
            },
            {
                "start_time": 1.8068181818181817,
                "end_time": 1.9909090909090907,
                "pitch": 62,
                "velocity": 51,
                "duration": 0.18409090909090908,
                "tempo": 120.0
            },
            {
                "start_time": 2.006818181818182,
                "end_time": 2.190909090909091,
                "pitch": 50,
                "velocity": 51,
                "duration": 0.18409090909090908,
                "tempo": 120.0
            },
            {
                "start_time": 2.2068181818181816,
                "end_time": 2.3909090909090907,
                "pitch": 62,
                "velocity": 51,
                "duration": 0.18409090909090908,
                "tempo": 120.0
            },
            {
                "start_time": 2.4068181818181817,
                "end_time": 2.5931818181818183,
                "pitch": 50,
                "velocity": 51,
                "duration": 0.1863636363636365,
                "tempo": 120.0
            },
            {
                "start_time": 2.609090909090909,
                "end_time": 2.793181818181818,
                "pitch": 62,
                "velocity": 51,
                "duration": 0.18409090909090908,
                "tempo": 120.0
            },
            {
                "start_time": 2.811363636363636,
                "end_time": 2.993181818181818,
                "pitch": 50,
                "velocity": 51,
                "duration": 0.1818181818181821,
                "tempo": 120.0
            },
            {
                "start_time": 3.0113636363636362,
                "end_time": 3.193181818181818,
                "pitch": 62,
                "velocity": 51,
                "duration": 0.18181818181818166,
                "tempo": 120.0
            },
            {
                "start_time": 3.2113636363636364,
                "end_time": 3.793181818181818,
                "pitch": 46,
                "velocity": 51,
                "duration": 0.5818181818181816,
                "tempo": 120.0
            },
            {
                "start_time": 3.811363636363636,
                "end_time": 4.393181818181818,
                "pitch": 46,
                "velocity": 51,
                "duration": 0.5818181818181816,
                "tempo": 120.0
            },
            {
                "start_time": 4.411363636363636,
                "end_time": 4.995454545454545,
                "pitch": 46,
                "velocity": 51,
                "duration": 0.584090909090909,
                "tempo": 120.0
            },
            {
                "start_time": 5.013636363636364,
                "end_time": 5.6,
                "pitch": 46,
                "velocity": 51,
                "duration": 0.586363636363636,
                "tempo": 120.0
            },
            {
                "start_time": 5.61590909090909,
                "end_time": 6.002272727272727,
                "pitch": 46,
                "velocity": 51,
                "duration": 0.3863636363636367,
                "tempo": 120.0
            },
            {
                "start_time": 6.018181818181818,
                "end_time": 6.402272727272727,
                "pitch": 46,
                "velocity": 51,
                "duration": 0.3840909090909097,
                "tempo": 120.0
            },
            {
                "start_time": 6.418181818181818,
                "end_time": 6.602272727272727,
                "pitch": 50,
                "velocity": 51,
                "duration": 0.18409090909090864,
                "tempo": 120.0
            },
            {
                "start_time": 6.620454545454545,
                "end_time": 6.804545454545454,
                "pitch": 62,
                "velocity": 51,
                "duration": 0.18409090909090864,
                "tempo": 120.0
            },
            {
                "start_time": 6.820454545454545,
                "end_time": 7.004545454545454,
                "pitch": 50,
                "velocity": 51,
                "duration": 0.18409090909090864,
                "tempo": 120.0
            },
            {
                "start_time": 7.0204545454545455,
                "end_time": 7.204545454545454,
                "pitch": 62,
                "velocity": 51,
                "duration": 0.18409090909090864,
                "tempo": 120.0
            },
            {
                "start_time": 7.220454545454545,
                "end_time": 7.404545454545454,
                "pitch": 50,
                "velocity": 51,
                "duration": 0.18409090909090953,
                "tempo": 120.0
            },
            {
                "start_time": 7.422727272727272,
                "end_time": 7.6068181818181815,
                "pitch": 62,
                "velocity": 51,
                "duration": 0.18409090909090953,
                "tempo": 120.0
            },
            {
                "start_time": 7.622727272727272,
                "end_time": 7.809090909090909,
                "pitch": 50,
                "velocity": 51,
                "duration": 0.1863636363636365,
                "tempo": 120.0
            },
            {
                "start_time": 7.824999999999999,
                "end_time": 8.009090909090908,
                "pitch": 62,
                "velocity": 51,
                "duration": 0.18409090909090864,
                "tempo": 120.0
            },
            {
                "start_time": 8.027272727272727,
                "end_time": 8.209090909090909,
                "pitch": 50,
                "velocity": 51,
                "duration": 0.18181818181818166,
                "tempo": 120.0
            },
            {
                "start_time": 8.227272727272727,
                "end_time": 8.409090909090908,
                "pitch": 62,
                "velocity": 51,
                "duration": 0.18181818181818166,
                "tempo": 120.0
            },
            {
                "start_time": 8.427272727272728,
                "end_time": 8.611363636363636,
                "pitch": 50,
                "velocity": 51,
                "duration": 0.18409090909090864,
                "tempo": 120.0
            },
            {
                "start_time": 8.627272727272727,
                "end_time": 8.811363636363636,
                "pitch": 62,
                "velocity": 51,
                "duration": 0.18409090909090864,
                "tempo": 120.0
            },
            {
                "start_time": 8.829545454545453,
                "end_time": 9.013636363636364,
                "pitch": 50,
                "velocity": 51,
                "duration": 0.18409090909091042,
                "tempo": 120.0
            },
            {
                "start_time": 9.029545454545454,
                "end_time": 9.21590909090909,
                "pitch": 62,
                "velocity": 51,
                "duration": 0.18636363636363562,
                "tempo": 120.0
            },
            {
                "start_time": 9.23181818181818,
                "end_time": 9.415909090909091,
                "pitch": 50,
                "velocity": 51,
                "duration": 0.18409090909091042,
                "tempo": 120.0
            },
            {
                "start_time": 9.434090909090909,
                "end_time": 9.618181818181817,
                "pitch": 62,
                "velocity": 51,
                "duration": 0.18409090909090864,
                "tempo": 120.0
            },
            {
                "start_time": 9.634090909090908,
                "end_time": 10.218181818181817,
                "pitch": 46,
                "velocity": 51,
                "duration": 0.584090909090909,
                "tempo": 120.0
            },
            {
                "start_time": 10.236363636363636,
                "end_time": 10.822727272727272,
                "pitch": 46,
                "velocity": 51,
                "duration": 0.586363636363636,
                "tempo": 120.0
            },
            {
                "start_time": 10.84090909090909,
                "end_time": 11.427272727272726,
                "pitch": 46,
                "velocity": 51,
                "duration": 0.586363636363636,
                "tempo": 120.0
            },
            {
                "start_time": 11.443181818181818,
                "end_time": 12.029545454545454,
                "pitch": 46,
                "velocity": 51,
                "duration": 0.586363636363636,
                "tempo": 120.0
            },
            {
                "start_time": 12.045454545454545,
                "end_time": 12.431818181818182,
                "pitch": 46,
                "velocity": 51,
                "duration": 0.3863636363636367,
                "tempo": 120.0
            },
            {
                "start_time": 12.447727272727272,
                "end_time": 12.834090909090909,
                "pitch": 46,
                "velocity": 51,
                "duration": 0.3863636363636367,
                "tempo": 120.0
            },
            {
                "start_time": 12.85,
                "end_time": 13.034090909090908,
                "pitch": 45,
                "velocity": 51,
                "duration": 0.18409090909090864,
                "tempo": 120.0
            },
            {
                "start_time": 13.052272727272726,
                "end_time": 13.236363636363636,
                "pitch": 57,
                "velocity": 51,
                "duration": 0.18409090909091042,
                "tempo": 120.0
            },
            {
                "start_time": 13.252272727272727,
                "end_time": 13.438636363636363,
                "pitch": 45,
                "velocity": 51,
                "duration": 0.18636363636363562,
                "tempo": 120.0
            },
            {
                "start_time": 13.454545454545453,
                "end_time": 13.638636363636364,
                "pitch": 57,
                "velocity": 51,
                "duration": 0.18409090909091042,
                "tempo": 120.0
            },
            {
                "start_time": 13.656818181818181,
                "end_time": 13.838636363636363,
                "pitch": 45,
                "velocity": 51,
                "duration": 0.18181818181818166,
                "tempo": 120.0
            },
            {
                "start_time": 13.85681818181818,
                "end_time": 14.038636363636362,
                "pitch": 57,
                "velocity": 51,
                "duration": 0.18181818181818166,
                "tempo": 120.0
            },
            {
                "start_time": 14.056818181818182,
                "end_time": 14.24090909090909,
                "pitch": 45,
                "velocity": 51,
                "duration": 0.18409090909090864,
                "tempo": 120.0
            },
            {
                "start_time": 14.256818181818181,
                "end_time": 14.44090909090909,
                "pitch": 57,
                "velocity": 51,
                "duration": 0.18409090909090864,
                "tempo": 120.0
            },
            {
                "start_time": 14.459090909090909,
                "end_time": 14.643181818181818,
                "pitch": 47,
                "velocity": 51,
                "duration": 0.18409090909090864,
                "tempo": 120.0
            },
            {
                "start_time": 14.659090909090908,
                "end_time": 14.845454545454544,
                "pitch": 59,
                "velocity": 51,
                "duration": 0.18636363636363562,
                "tempo": 120.0
            },
            {
                "start_time": 14.861363636363636,
                "end_time": 15.045454545454545,
                "pitch": 47,
                "velocity": 51,
                "duration": 0.18409090909090864,
                "tempo": 120.0
            },
            {
                "start_time": 15.063636363636363,
                "end_time": 15.247727272727271,
                "pitch": 59,
                "velocity": 51,
                "duration": 0.18409090909090864,
                "tempo": 120.0
            },
            {
                "start_time": 15.263636363636364,
                "end_time": 15.447727272727272,
                "pitch": 47,
                "velocity": 51,
                "duration": 0.18409090909090864,
                "tempo": 120.0
            },
            {
                "start_time": 15.46590909090909,
                "end_time": 15.649999999999999,
                "pitch": 59,
                "velocity": 51,
                "duration": 0.18409090909090864,
                "tempo": 120.0
            },
            {
                "start_time": 15.665909090909091,
                "end_time": 15.85,
                "pitch": 47,
                "velocity": 51,
                "duration": 0.18409090909090864,
                "tempo": 120.0
            },
            {
                "start_time": 15.86590909090909,
                "end_time": 16.05,
                "pitch": 59,
                "velocity": 51,
                "duration": 0.18409090909091042,
                "tempo": 120.0
            },
            {
                "start_time": 16.06590909090909,
                "end_time": 16.252272727272725,
                "pitch": 43,
                "velocity": 51,
                "duration": 0.18636363636363384,
                "tempo": 120.0
            },
            {
                "start_time": 16.268181818181816,
                "end_time": 16.452272727272728,
                "pitch": 55,
                "velocity": 51,
                "duration": 0.1840909090909122,
                "tempo": 120.0
            },
            {
                "start_time": 16.470454545454544,
                "end_time": 16.652272727272727,
                "pitch": 43,
                "velocity": 51,
                "duration": 0.18181818181818343,
                "tempo": 120.0
            },
            {
                "start_time": 16.670454545454543,
                "end_time": 16.852272727272727,
                "pitch": 55,
                "velocity": 51,
                "duration": 0.18181818181818343,
                "tempo": 120.0
            },
            {
                "start_time": 16.870454545454546,
                "end_time": 17.052272727272726,
                "pitch": 43,
                "velocity": 51,
                "duration": 0.18181818181817988,
                "tempo": 120.0
            },
            {
                "start_time": 17.070454545454545,
                "end_time": 17.252272727272725,
                "pitch": 55,
                "velocity": 51,
                "duration": 0.18181818181817988,
                "tempo": 120.0
            },
            {
                "start_time": 17.270454545454545,
                "end_time": 17.454545454545453,
                "pitch": 43,
                "velocity": 51,
                "duration": 0.18409090909090864,
                "tempo": 120.0
            },
            {
                "start_time": 17.470454545454544,
                "end_time": 17.654545454545453,
                "pitch": 55,
                "velocity": 51,
                "duration": 0.18409090909090864,
                "tempo": 120.0
            },
            {
                "start_time": 17.672727272727272,
                "end_time": 17.854545454545455,
                "pitch": 45,
                "velocity": 51,
                "duration": 0.18181818181818343,
                "tempo": 120.0
            },
            {
                "start_time": 17.87272727272727,
                "end_time": 18.054545454545455,
                "pitch": 57,
                "velocity": 51,
                "duration": 0.18181818181818343,
                "tempo": 120.0
            },
            {
                "start_time": 18.07272727272727,
                "end_time": 18.25681818181818,
                "pitch": 45,
                "velocity": 51,
                "duration": 0.18409090909090864,
                "tempo": 120.0
            },
            {
                "start_time": 18.272727272727273,
                "end_time": 18.459090909090907,
                "pitch": 57,
                "velocity": 51,
                "duration": 0.18636363636363384,
                "tempo": 120.0
            },
            {
                "start_time": 18.474999999999998,
                "end_time": 18.659090909090907,
                "pitch": 45,
                "velocity": 51,
                "duration": 0.18409090909090864,
                "tempo": 120.0
            },
            {
                "start_time": 18.675,
                "end_time": 18.85909090909091,
                "pitch": 57,
                "velocity": 51,
                "duration": 0.18409090909090864,
                "tempo": 120.0
            },
            {
                "start_time": 18.875,
                "end_time": 19.05909090909091,
                "pitch": 45,
                "velocity": 51,
                "duration": 0.18409090909090864,
                "tempo": 120.0
            },
            {
                "start_time": 19.075,
                "end_time": 19.259090909090908,
                "pitch": 57,
                "velocity": 51,
                "duration": 0.18409090909090864,
                "tempo": 120.0
            },
            {
                "start_time": 19.275,
                "end_time": 19.459090909090907,
                "pitch": 50,
                "velocity": 51,
                "duration": 0.18409090909090864,
                "tempo": 120.0
            },
            {
                "start_time": 19.474999999999998,
                "end_time": 19.661363636363635,
                "pitch": 62,
                "velocity": 51,
                "duration": 0.1863636363636374,
                "tempo": 120.0
            },
            {
                "start_time": 19.677272727272726,
                "end_time": 19.861363636363635,
                "pitch": 50,
                "velocity": 51,
                "duration": 0.18409090909090864,
                "tempo": 120.0
            },
            {
                "start_time": 19.877272727272725,
                "end_time": 20.061363636363634,
                "pitch": 62,
                "velocity": 51,
                "duration": 0.18409090909090864,
                "tempo": 120.0
            },
            {
                "start_time": 20.077272727272728,
                "end_time": 20.261363636363637,
                "pitch": 50,
                "velocity": 51,
                "duration": 0.18409090909090864,
                "tempo": 120.0
            },
            {
                "start_time": 20.279545454545453,
                "end_time": 20.46363636363636,
                "pitch": 62,
                "velocity": 51,
                "duration": 0.18409090909090864,
                "tempo": 120.0
            },
            {
                "start_time": 20.479545454545452,
                "end_time": 20.663636363636364,
                "pitch": 50,
                "velocity": 51,
                "duration": 0.1840909090909122,
                "tempo": 120.0
            },
            {
                "start_time": 20.679545454545455,
                "end_time": 20.863636363636363,
                "pitch": 62,
                "velocity": 51,
                "duration": 0.18409090909090864,
                "tempo": 120.0
            },
            {
                "start_time": 20.879545454545454,
                "end_time": 21.063636363636363,
                "pitch": 50,
                "velocity": 51,
                "duration": 0.18409090909090864,
                "tempo": 120.0
            },
            {
                "start_time": 21.079545454545453,
                "end_time": 21.263636363636362,
                "pitch": 62,
                "velocity": 51,
                "duration": 0.18409090909090864,
                "tempo": 120.0
            },
            {
                "start_time": 21.279545454545453,
                "end_time": 21.46363636363636,
                "pitch": 50,
                "velocity": 51,
                "duration": 0.18409090909090864,
                "tempo": 120.0
            },
            {
                "start_time": 21.48181818181818,
                "end_time": 21.66590909090909,
                "pitch": 62,
                "velocity": 51,
                "duration": 0.18409090909090864,
                "tempo": 120.0
            },
            {
                "start_time": 21.68181818181818,
                "end_time": 21.86590909090909,
                "pitch": 50,
                "velocity": 51,
                "duration": 0.18409090909090864,
                "tempo": 120.0
            },
            {
                "start_time": 21.88181818181818,
                "end_time": 22.06590909090909,
                "pitch": 62,
                "velocity": 51,
                "duration": 0.1840909090909122,
                "tempo": 120.0
            },
            {
                "start_time": 22.081818181818182,
                "end_time": 22.268181818181816,
                "pitch": 50,
                "velocity": 51,
                "duration": 0.18636363636363384,
                "tempo": 120.0
            },
            {
                "start_time": 22.284090909090907,
                "end_time": 22.46818181818182,
                "pitch": 62,
                "velocity": 51,
                "duration": 0.1840909090909122,
                "tempo": 120.0
            },
            {
                "start_time": 22.486363636363635,
                "end_time": 23.068181818181817,
                "pitch": 46,
                "velocity": 51,
                "duration": 0.581818181818182,
                "tempo": 120.0
            },
            {
                "start_time": 23.086363636363636,
                "end_time": 23.670454545454543,
                "pitch": 46,
                "velocity": 51,
                "duration": 0.5840909090909072,
                "tempo": 120.0
            },
            {
                "start_time": 23.688636363636363,
                "end_time": 24.27272727272727,
                "pitch": 46,
                "velocity": 51,
                "duration": 0.5840909090909072,
                "tempo": 120.0
            },
            {
                "start_time": 24.288636363636364,
                "end_time": 24.875,
                "pitch": 46,
                "velocity": 51,
                "duration": 0.586363636363636,
                "tempo": 120.0
            },
            {
                "start_time": 24.89090909090909,
                "end_time": 25.275,
                "pitch": 46,
                "velocity": 51,
                "duration": 0.38409090909090793,
                "tempo": 120.0
            },
            {
                "start_time": 25.29090909090909,
                "end_time": 25.677272727272726,
                "pitch": 46,
                "velocity": 51,
                "duration": 0.3863636363636367,
                "tempo": 120.0
            },
            {
                "start_time": 25.693181818181817,
                "end_time": 25.877272727272725,
                "pitch": 50,
                "velocity": 51,
                "duration": 0.18409090909090864,
                "tempo": 120.0
            },
            {
                "start_time": 25.893181818181816,
                "end_time": 26.077272727272724,
                "pitch": 62,
                "velocity": 51,
                "duration": 0.18409090909090864,
                "tempo": 120.0
            },
            {
                "start_time": 26.093181818181815,
                "end_time": 26.277272727272727,
                "pitch": 50,
                "velocity": 51,
                "duration": 0.1840909090909122,
                "tempo": 120.0
            },
            {
                "start_time": 26.295454545454543,
                "end_time": 26.479545454545452,
                "pitch": 62,
                "velocity": 51,
                "duration": 0.18409090909090864,
                "tempo": 120.0
            },
            {
                "start_time": 26.495454545454542,
                "end_time": 26.679545454545455,
                "pitch": 50,
                "velocity": 51,
                "duration": 0.1840909090909122,
                "tempo": 120.0
            },
            {
                "start_time": 26.695454545454545,
                "end_time": 26.879545454545454,
                "pitch": 62,
                "velocity": 51,
                "duration": 0.18409090909090864,
                "tempo": 120.0
            },
            {
                "start_time": 26.895454545454545,
                "end_time": 27.079545454545453,
                "pitch": 50,
                "velocity": 51,
                "duration": 0.18409090909090864,
                "tempo": 120.0
            },
            {
                "start_time": 27.095454545454544,
                "end_time": 27.279545454545453,
                "pitch": 62,
                "velocity": 51,
                "duration": 0.18409090909090864,
                "tempo": 120.0
            },
            {
                "start_time": 27.295454545454543,
                "end_time": 27.48181818181818,
                "pitch": 50,
                "velocity": 51,
                "duration": 0.1863636363636374,
                "tempo": 120.0
            },
            {
                "start_time": 27.49772727272727,
                "end_time": 27.68181818181818,
                "pitch": 62,
                "velocity": 51,
                "duration": 0.18409090909090864,
                "tempo": 120.0
            },
            {
                "start_time": 27.7,
                "end_time": 27.88181818181818,
                "pitch": 50,
                "velocity": 51,
                "duration": 0.18181818181817988,
                "tempo": 120.0
            },
            {
                "start_time": 27.9,
                "end_time": 28.081818181818182,
                "pitch": 62,
                "velocity": 51,
                "duration": 0.18181818181818343,
                "tempo": 120.0
            },
            {
                "start_time": 28.099999999999998,
                "end_time": 28.284090909090907,
                "pitch": 50,
                "velocity": 51,
                "duration": 0.18409090909090864,
                "tempo": 120.0
            },
            {
                "start_time": 28.299999999999997,
                "end_time": 28.48409090909091,
                "pitch": 62,
                "velocity": 51,
                "duration": 0.1840909090909122,
                "tempo": 120.0
            },
            {
                "start_time": 28.502272727272725,
                "end_time": 28.68409090909091,
                "pitch": 50,
                "velocity": 51,
                "duration": 0.18181818181818343,
                "tempo": 120.0
            },
            {
                "start_time": 28.702272727272724,
                "end_time": 28.884090909090908,
                "pitch": 62,
                "velocity": 51,
                "duration": 0.18181818181818343,
                "tempo": 120.0
            },
            {
                "start_time": 28.902272727272727,
                "end_time": 29.486363636363635,
                "pitch": 46,
                "velocity": 51,
                "duration": 0.5840909090909072,
                "tempo": 120.0
            },
            {
                "start_time": 29.502272727272725,
                "end_time": 30.08863636363636,
                "pitch": 46,
                "velocity": 51,
                "duration": 0.586363636363636,
                "tempo": 120.0
            },
            {
                "start_time": 30.104545454545452,
                "end_time": 30.690909090909088,
                "pitch": 46,
                "velocity": 51,
                "duration": 0.586363636363636,
                "tempo": 120.0
            },
            {
                "start_time": 30.706818181818182,
                "end_time": 31.29090909090909,
                "pitch": 46,
                "velocity": 51,
                "duration": 0.5840909090909072,
                "tempo": 120.0
            },
            {
                "start_time": 31.30681818181818,
                "end_time": 31.693181818181817,
                "pitch": 46,
                "velocity": 51,
                "duration": 0.3863636363636367,
                "tempo": 120.0
            },
            {
                "start_time": 31.709090909090907,
                "end_time": 32.09318181818182,
                "pitch": 46,
                "velocity": 51,
                "duration": 0.3840909090909115,
                "tempo": 120.0
            },
            {
                "start_time": 32.10909090909091,
                "end_time": 32.293181818181814,
                "pitch": 45,
                "velocity": 51,
                "duration": 0.18409090909090509,
                "tempo": 120.0
            },
            {
                "start_time": 32.309090909090905,
                "end_time": 32.49318181818182,
                "pitch": 57,
                "velocity": 51,
                "duration": 0.1840909090909122,
                "tempo": 120.0
            },
            {
                "start_time": 32.50909090909091,
                "end_time": 32.69318181818182,
                "pitch": 45,
                "velocity": 51,
                "duration": 0.1840909090909122,
                "tempo": 120.0
            },
            {
                "start_time": 32.70909090909091,
                "end_time": 32.893181818181816,
                "pitch": 57,
                "velocity": 51,
                "duration": 0.18409090909090509,
                "tempo": 120.0
            },
            {
                "start_time": 32.90909090909091,
                "end_time": 33.09318181818182,
                "pitch": 45,
                "velocity": 51,
                "duration": 0.1840909090909122,
                "tempo": 120.0
            },
            {
                "start_time": 33.111363636363635,
                "end_time": 33.29545454545455,
                "pitch": 57,
                "velocity": 51,
                "duration": 0.1840909090909122,
                "tempo": 120.0
            },
            {
                "start_time": 33.31136363636364,
                "end_time": 33.49545454545454,
                "pitch": 45,
                "velocity": 51,
                "duration": 0.18409090909090509,
                "tempo": 120.0
            },
            {
                "start_time": 33.51136363636363,
                "end_time": 33.695454545454545,
                "pitch": 57,
                "velocity": 51,
                "duration": 0.1840909090909122,
                "tempo": 120.0
            },
            {
                "start_time": 33.711363636363636,
                "end_time": 33.89545454545454,
                "pitch": 47,
                "velocity": 51,
                "duration": 0.18409090909090509,
                "tempo": 120.0
            },
            {
                "start_time": 33.91136363636363,
                "end_time": 34.095454545454544,
                "pitch": 59,
                "velocity": 51,
                "duration": 0.1840909090909122,
                "tempo": 120.0
            },
            {
                "start_time": 34.111363636363635,
                "end_time": 34.29545454545455,
                "pitch": 47,
                "velocity": 51,
                "duration": 0.1840909090909122,
                "tempo": 120.0
            },
            {
                "start_time": 34.31136363636364,
                "end_time": 34.49545454545454,
                "pitch": 59,
                "velocity": 51,
                "duration": 0.18409090909090509,
                "tempo": 120.0
            },
            {
                "start_time": 34.51136363636363,
                "end_time": 34.695454545454545,
                "pitch": 47,
                "velocity": 51,
                "duration": 0.1840909090909122,
                "tempo": 120.0
            },
            {
                "start_time": 34.711363636363636,
                "end_time": 34.89545454545454,
                "pitch": 59,
                "velocity": 51,
                "duration": 0.18409090909090509,
                "tempo": 120.0
            },
            {
                "start_time": 34.91136363636363,
                "end_time": 35.09772727272727,
                "pitch": 47,
                "velocity": 51,
                "duration": 0.1863636363636374,
                "tempo": 120.0
            },
            {
                "start_time": 35.11363636363636,
                "end_time": 35.29772727272727,
                "pitch": 59,
                "velocity": 51,
                "duration": 0.1840909090909122,
                "tempo": 120.0
            },
            {
                "start_time": 35.31590909090909,
                "end_time": 35.49772727272727,
                "pitch": 43,
                "velocity": 51,
                "duration": 0.18181818181817988,
                "tempo": 120.0
            },
            {
                "start_time": 35.51590909090909,
                "end_time": 35.69772727272727,
                "pitch": 55,
                "velocity": 51,
                "duration": 0.18181818181817988,
                "tempo": 120.0
            },
            {
                "start_time": 35.715909090909086,
                "end_time": 35.89772727272727,
                "pitch": 43,
                "velocity": 51,
                "duration": 0.18181818181818699,
                "tempo": 120.0
            },
            {
                "start_time": 35.91590909090909,
                "end_time": 36.09772727272727,
                "pitch": 55,
                "velocity": 51,
                "duration": 0.18181818181817988,
                "tempo": 120.0
            },
            {
                "start_time": 36.11590909090909,
                "end_time": 36.29772727272727,
                "pitch": 43,
                "velocity": 51,
                "duration": 0.18181818181817988,
                "tempo": 120.0
            },
            {
                "start_time": 36.31590909090909,
                "end_time": 36.49772727272727,
                "pitch": 55,
                "velocity": 51,
                "duration": 0.18181818181817988,
                "tempo": 120.0
            },
            {
                "start_time": 36.51590909090909,
                "end_time": 36.69772727272727,
                "pitch": 43,
                "velocity": 51,
                "duration": 0.18181818181817988,
                "tempo": 120.0
            },
            {
                "start_time": 36.715909090909086,
                "end_time": 36.89772727272727,
                "pitch": 55,
                "velocity": 51,
                "duration": 0.18181818181818699,
                "tempo": 120.0
            },
            {
                "start_time": 36.91590909090909,
                "end_time": 37.1,
                "pitch": 45,
                "velocity": 51,
                "duration": 0.1840909090909122,
                "tempo": 120.0
            },
            {
                "start_time": 37.11590909090909,
                "end_time": 37.3,
                "pitch": 57,
                "velocity": 51,
                "duration": 0.18409090909090509,
                "tempo": 120.0
            },
            {
                "start_time": 37.31818181818181,
                "end_time": 37.5,
                "pitch": 45,
                "velocity": 51,
                "duration": 0.18181818181818699,
                "tempo": 120.0
            },
            {
                "start_time": 37.518181818181816,
                "end_time": 37.699999999999996,
                "pitch": 57,
                "velocity": 51,
                "duration": 0.18181818181817988,
                "tempo": 120.0
            },
            {
                "start_time": 37.71818181818182,
                "end_time": 37.9,
                "pitch": 45,
                "velocity": 51,
                "duration": 0.18181818181817988,
                "tempo": 120.0
            },
            {
                "start_time": 37.918181818181814,
                "end_time": 38.1,
                "pitch": 57,
                "velocity": 51,
                "duration": 0.18181818181818699,
                "tempo": 120.0
            },
            {
                "start_time": 38.11818181818182,
                "end_time": 38.3,
                "pitch": 45,
                "velocity": 51,
                "duration": 0.18181818181817988,
                "tempo": 120.0
            },
            {
                "start_time": 38.31818181818181,
                "end_time": 38.5,
                "pitch": 57,
                "velocity": 51,
                "duration": 0.18181818181818699,
                "tempo": 120.0
            },
            {
                "start_time": 38.518181818181816,
                "end_time": 38.699999999999996,
                "pitch": 46,
                "velocity": 51,
                "duration": 0.18181818181817988,
                "tempo": 120.0
            },
            {
                "start_time": 38.71818181818182,
                "end_time": 38.9,
                "pitch": 58,
                "velocity": 51,
                "duration": 0.18181818181817988,
                "tempo": 120.0
            },
            {
                "start_time": 38.918181818181814,
                "end_time": 39.10227272727273,
                "pitch": 46,
                "velocity": 51,
                "duration": 0.1840909090909122,
                "tempo": 120.0
            },
            {
                "start_time": 39.11818181818182,
                "end_time": 39.304545454545455,
                "pitch": 58,
                "velocity": 51,
                "duration": 0.1863636363636374,
                "tempo": 120.0
            },
            {
                "start_time": 39.320454545454545,
                "end_time": 39.50454545454545,
                "pitch": 46,
                "velocity": 51,
                "duration": 0.18409090909090509,
                "tempo": 120.0
            },
            {
                "start_time": 39.52045454545454,
                "end_time": 39.70454545454545,
                "pitch": 58,
                "velocity": 51,
                "duration": 0.1840909090909122,
                "tempo": 120.0
            },
            {
                "start_time": 39.720454545454544,
                "end_time": 39.904545454545456,
                "pitch": 46,
                "velocity": 51,
                "duration": 0.1840909090909122,
                "tempo": 120.0
            },
            {
                "start_time": 39.92045454545455,
                "end_time": 40.10454545454545,
                "pitch": 58,
                "velocity": 51,
                "duration": 0.18409090909090509,
                "tempo": 120.0
            },
            {
                "start_time": 40.12045454545454,
                "end_time": 40.304545454545455,
                "pitch": 46,
                "velocity": 51,
                "duration": 0.1840909090909122,
                "tempo": 120.0
            },
            {
                "start_time": 40.320454545454545,
                "end_time": 40.50454545454545,
                "pitch": 58,
                "velocity": 51,
                "duration": 0.18409090909090509,
                "tempo": 120.0
            },
            {
                "start_time": 40.52045454545454,
                "end_time": 40.70454545454545,
                "pitch": 46,
                "velocity": 51,
                "duration": 0.1840909090909122,
                "tempo": 120.0
            },
            {
                "start_time": 40.720454545454544,
                "end_time": 40.904545454545456,
                "pitch": 58,
                "velocity": 51,
                "duration": 0.1840909090909122,
                "tempo": 120.0
            },
            {
                "start_time": 40.92045454545455,
                "end_time": 41.10454545454545,
                "pitch": 46,
                "velocity": 51,
                "duration": 0.18409090909090509,
                "tempo": 120.0
            },
            {
                "start_time": 41.12272727272727,
                "end_time": 41.30681818181818,
                "pitch": 58,
                "velocity": 51,
                "duration": 0.1840909090909122,
                "tempo": 120.0
            },
            {
                "start_time": 41.32272727272727,
                "end_time": 41.50681818181818,
                "pitch": 46,
                "velocity": 51,
                "duration": 0.1840909090909122,
                "tempo": 120.0
            },
            {
                "start_time": 41.52272727272727,
                "end_time": 41.70681818181818,
                "pitch": 58,
                "velocity": 51,
                "duration": 0.18409090909090509,
                "tempo": 120.0
            },
            {
                "start_time": 41.72272727272727,
                "end_time": 41.90681818181818,
                "pitch": 45,
                "velocity": 51,
                "duration": 0.1840909090909122,
                "tempo": 120.0
            },
            {
                "start_time": 41.92272727272727,
                "end_time": 42.10681818181818,
                "pitch": 57,
                "velocity": 51,
                "duration": 0.18409090909090509,
                "tempo": 120.0
            },
            {
                "start_time": 42.12272727272727,
                "end_time": 42.30681818181818,
                "pitch": 45,
                "velocity": 51,
                "duration": 0.1840909090909122,
                "tempo": 120.0
            },
            {
                "start_time": 42.32272727272727,
                "end_time": 42.50681818181818,
                "pitch": 57,
                "velocity": 51,
                "duration": 0.1840909090909122,
                "tempo": 120.0
            },
            {
                "start_time": 42.52272727272727,
                "end_time": 42.70681818181818,
                "pitch": 45,
                "velocity": 51,
                "duration": 0.18409090909090509,
                "tempo": 120.0
            },
            {
                "start_time": 42.72272727272727,
                "end_time": 42.90681818181818,
                "pitch": 57,
                "velocity": 51,
                "duration": 0.1840909090909122,
                "tempo": 120.0
            },
            {
                "start_time": 42.92272727272727,
                "end_time": 43.10681818181818,
                "pitch": 45,
                "velocity": 51,
                "duration": 0.18409090909090509,
                "tempo": 120.0
            },
            {
                "start_time": 43.125,
                "end_time": 43.309090909090905,
                "pitch": 57,
                "velocity": 51,
                "duration": 0.18409090909090509,
                "tempo": 120.0
            },
            {
                "start_time": 43.324999999999996,
                "end_time": 43.50909090909091,
                "pitch": 45,
                "velocity": 51,
                "duration": 0.1840909090909122,
                "tempo": 120.0
            },
            {
                "start_time": 43.525,
                "end_time": 43.709090909090904,
                "pitch": 57,
                "velocity": 51,
                "duration": 0.18409090909090509,
                "tempo": 120.0
            },
            {
                "start_time": 43.725,
                "end_time": 43.90909090909091,
                "pitch": 45,
                "velocity": 51,
                "duration": 0.18409090909090509,
                "tempo": 120.0
            },
            {
                "start_time": 43.925,
                "end_time": 44.10909090909091,
                "pitch": 57,
                "velocity": 51,
                "duration": 0.1840909090909122,
                "tempo": 120.0
            },
            {
                "start_time": 44.125,
                "end_time": 44.309090909090905,
                "pitch": 45,
                "velocity": 51,
                "duration": 0.18409090909090509,
                "tempo": 120.0
            },
            {
                "start_time": 44.324999999999996,
                "end_time": 44.50909090909091,
                "pitch": 57,
                "velocity": 51,
                "duration": 0.1840909090909122,
                "tempo": 120.0
            },
            {
                "start_time": 44.525,
                "end_time": 44.709090909090904,
                "pitch": 45,
                "velocity": 51,
                "duration": 0.18409090909090509,
                "tempo": 120.0
            },
            {
                "start_time": 44.724999999999994,
                "end_time": 44.90909090909091,
                "pitch": 57,
                "velocity": 51,
                "duration": 0.1840909090909122,
                "tempo": 120.0
            },
            {
                "start_time": 44.925,
                "end_time": 45.111363636363635,
                "pitch": 46,
                "velocity": 51,
                "duration": 0.1863636363636374,
                "tempo": 120.0
            },
            {
                "start_time": 45.127272727272725,
                "end_time": 45.31136363636364,
                "pitch": 58,
                "velocity": 51,
                "duration": 0.1840909090909122,
                "tempo": 120.0
            },
            {
                "start_time": 45.32954545454545,
                "end_time": 45.51136363636363,
                "pitch": 46,
                "velocity": 51,
                "duration": 0.18181818181817988,
                "tempo": 120.0
            },
            {
                "start_time": 45.52954545454545,
                "end_time": 45.711363636363636,
                "pitch": 58,
                "velocity": 51,
                "duration": 0.18181818181818699,
                "tempo": 120.0
            },
            {
                "start_time": 45.72954545454545,
                "end_time": 45.91136363636363,
                "pitch": 46,
                "velocity": 51,
                "duration": 0.18181818181817988,
                "tempo": 120.0
            },
            {
                "start_time": 45.929545454545455,
                "end_time": 46.111363636363635,
                "pitch": 58,
                "velocity": 51,
                "duration": 0.18181818181817988,
                "tempo": 120.0
            },
            {
                "start_time": 46.12954545454545,
                "end_time": 46.31136363636364,
                "pitch": 46,
                "velocity": 51,
                "duration": 0.18181818181818699,
                "tempo": 120.0
            },
            {
                "start_time": 46.32954545454545,
                "end_time": 46.51136363636363,
                "pitch": 58,
                "velocity": 51,
                "duration": 0.18181818181817988,
                "tempo": 120.0
            },
            {
                "start_time": 46.52954545454545,
                "end_time": 46.711363636363636,
                "pitch": 46,
                "velocity": 51,
                "duration": 0.18181818181818699,
                "tempo": 120.0
            },
            {
                "start_time": 46.72954545454545,
                "end_time": 46.91136363636363,
                "pitch": 58,
                "velocity": 51,
                "duration": 0.18181818181817988,
                "tempo": 120.0
            },
            {
                "start_time": 46.929545454545455,
                "end_time": 47.11363636363636,
                "pitch": 46,
                "velocity": 51,
                "duration": 0.18409090909090509,
                "tempo": 120.0
            },
            {
                "start_time": 47.12954545454545,
                "end_time": 47.31363636363636,
                "pitch": 58,
                "velocity": 51,
                "duration": 0.1840909090909122,
                "tempo": 120.0
            },
            {
                "start_time": 47.33181818181818,
                "end_time": 47.51363636363636,
                "pitch": 46,
                "velocity": 51,
                "duration": 0.18181818181817988,
                "tempo": 120.0
            },
            {
                "start_time": 47.53181818181818,
                "end_time": 47.71363636363636,
                "pitch": 58,
                "velocity": 51,
                "duration": 0.18181818181817988,
                "tempo": 120.0
            },
            {
                "start_time": 47.73181818181818,
                "end_time": 47.913636363636364,
                "pitch": 46,
                "velocity": 51,
                "duration": 0.18181818181818699,
                "tempo": 120.0
            },
            {
                "start_time": 47.93181818181818,
                "end_time": 48.11363636363636,
                "pitch": 58,
                "velocity": 51,
                "duration": 0.18181818181817988,
                "tempo": 120.0
            },
            {
                "start_time": 48.13181818181818,
                "end_time": 48.31363636363636,
                "pitch": 48,
                "velocity": 51,
                "duration": 0.18181818181817988,
                "tempo": 120.0
            },
            {
                "start_time": 48.33181818181818,
                "end_time": 48.51363636363636,
                "pitch": 60,
                "velocity": 51,
                "duration": 0.18181818181817988,
                "tempo": 120.0
            },
            {
                "start_time": 48.53181818181818,
                "end_time": 48.71363636363636,
                "pitch": 48,
                "velocity": 51,
                "duration": 0.18181818181817988,
                "tempo": 120.0
            },
            {
                "start_time": 48.73181818181818,
                "end_time": 48.913636363636364,
                "pitch": 60,
                "velocity": 51,
                "duration": 0.18181818181818699,
                "tempo": 120.0
            },
            {
                "start_time": 48.93181818181818,
                "end_time": 49.11590909090909,
                "pitch": 48,
                "velocity": 51,
                "duration": 0.1840909090909122,
                "tempo": 120.0
            },
            {
                "start_time": 49.13181818181818,
                "end_time": 49.31818181818181,
                "pitch": 60,
                "velocity": 51,
                "duration": 0.1863636363636303,
                "tempo": 120.0
            },
            {
                "start_time": 49.334090909090904,
                "end_time": 49.518181818181816,
                "pitch": 48,
                "velocity": 51,
                "duration": 0.1840909090909122,
                "tempo": 120.0
            },
            {
                "start_time": 49.53409090909091,
                "end_time": 49.71818181818182,
                "pitch": 60,
                "velocity": 51,
                "duration": 0.1840909090909122,
                "tempo": 120.0
            },
            {
                "start_time": 49.73409090909091,
                "end_time": 49.918181818181814,
                "pitch": 45,
                "velocity": 51,
                "duration": 0.18409090909090509,
                "tempo": 120.0
            },
            {
                "start_time": 49.934090909090905,
                "end_time": 50.11818181818182,
                "pitch": 57,
                "velocity": 51,
                "duration": 0.1840909090909122,
                "tempo": 120.0
            },
            {
                "start_time": 50.13409090909091,
                "end_time": 50.31818181818181,
                "pitch": 45,
                "velocity": 51,
                "duration": 0.18409090909090509,
                "tempo": 120.0
            },
            {
                "start_time": 50.334090909090904,
                "end_time": 50.518181818181816,
                "pitch": 57,
                "velocity": 51,
                "duration": 0.1840909090909122,
                "tempo": 120.0
            },
            {
                "start_time": 50.53409090909091,
                "end_time": 50.71818181818182,
                "pitch": 45,
                "velocity": 51,
                "duration": 0.1840909090909122,
                "tempo": 120.0
            },
            {
                "start_time": 50.73409090909091,
                "end_time": 50.918181818181814,
                "pitch": 57,
                "velocity": 51,
                "duration": 0.18409090909090509,
                "tempo": 120.0
            },
            {
                "start_time": 50.934090909090905,
                "end_time": 51.11818181818182,
                "pitch": 45,
                "velocity": 51,
                "duration": 0.1840909090909122,
                "tempo": 120.0
            },
            {
                "start_time": 51.13409090909091,
                "end_time": 51.320454545454545,
                "pitch": 57,
                "velocity": 51,
                "duration": 0.1863636363636374,
                "tempo": 120.0
            },
            {
                "start_time": 51.336363636363636,
                "end_time": 51.52045454545454,
                "pitch": 50,
                "velocity": 51,
                "duration": 0.18409090909090509,
                "tempo": 120.0
            },
            {
                "start_time": 51.53636363636363,
                "end_time": 51.720454545454544,
                "pitch": 62,
                "velocity": 51,
                "duration": 0.1840909090909122,
                "tempo": 120.0
            },
            {
                "start_time": 51.736363636363635,
                "end_time": 51.92045454545454,
                "pitch": 50,
                "velocity": 51,
                "duration": 0.18409090909090509,
                "tempo": 120.0
            },
            {
                "start_time": 51.93636363636363,
                "end_time": 52.12045454545454,
                "pitch": 62,
                "velocity": 51,
                "duration": 0.1840909090909122,
                "tempo": 120.0
            },
            {
                "start_time": 52.13636363636363,
                "end_time": 52.320454545454545,
                "pitch": 50,
                "velocity": 51,
                "duration": 0.1840909090909122,
                "tempo": 120.0
            },
            {
                "start_time": 52.336363636363636,
                "end_time": 52.52045454545454,
                "pitch": 62,
                "velocity": 51,
                "duration": 0.18409090909090509,
                "tempo": 120.0
            },
            {
                "start_time": 52.53636363636363,
                "end_time": 52.720454545454544,
                "pitch": 50,
                "velocity": 51,
                "duration": 0.1840909090909122,
                "tempo": 120.0
            },
            {
                "start_time": 52.736363636363635,
                "end_time": 52.92045454545454,
                "pitch": 62,
                "velocity": 51,
                "duration": 0.18409090909090509,
                "tempo": 120.0
            },
            {
                "start_time": 52.93636363636363,
                "end_time": 53.12045454545454,
                "pitch": 50,
                "velocity": 51,
                "duration": 0.1840909090909122,
                "tempo": 120.0
            },
            {
                "start_time": 53.13863636363636,
                "end_time": 53.32272727272727,
                "pitch": 62,
                "velocity": 51,
                "duration": 0.1840909090909122,
                "tempo": 120.0
            },
            {
                "start_time": 53.33863636363636,
                "end_time": 53.52272727272727,
                "pitch": 50,
                "velocity": 51,
                "duration": 0.1840909090909122,
                "tempo": 120.0
            },
            {
                "start_time": 53.538636363636364,
                "end_time": 53.72272727272727,
                "pitch": 62,
                "velocity": 51,
                "duration": 0.18409090909090509,
                "tempo": 120.0
            },
            {
                "start_time": 53.73863636363636,
                "end_time": 53.92272727272727,
                "pitch": 50,
                "velocity": 51,
                "duration": 0.1840909090909122,
                "tempo": 120.0
            },
            {
                "start_time": 53.93863636363636,
                "end_time": 54.12272727272727,
                "pitch": 62,
                "velocity": 51,
                "duration": 0.18409090909090509,
                "tempo": 120.0
            },
            {
                "start_time": 54.13863636363636,
                "end_time": 54.32272727272727,
                "pitch": 50,
                "velocity": 51,
                "duration": 0.1840909090909122,
                "tempo": 120.0
            },
            {
                "start_time": 54.33863636363636,
                "end_time": 54.52954545454545,
                "pitch": 62,
                "velocity": 51,
                "duration": 0.1909090909090878,
                "tempo": 120.0
            }
        ],
        "Vibraphone": [
            {
                "start_time": 0.00909090909090909,
                "end_time": 0.5909090909090908,
                "pitch": 74,
                "velocity": 40,
                "duration": 0.5818181818181818,
                "tempo": 120.0
            },
            {
                "start_time": 0.6068181818181818,
                "end_time": 0.9863636363636363,
                "pitch": 73,
                "velocity": 40,
                "duration": 0.3795454545454545,
                "tempo": 120.0
            },
            {
                "start_time": 1.0045454545454544,
                "end_time": 1.1886363636363635,
                "pitch": 73,
                "velocity": 40,
                "duration": 0.18409090909090908,
                "tempo": 120.0
            },
            {
                "start_time": 1.2045454545454546,
                "end_time": 1.5886363636363636,
                "pitch": 74,
                "velocity": 40,
                "duration": 0.38409090909090904,
                "tempo": 120.0
            },
            {
                "start_time": 1.6045454545454545,
                "end_time": 1.7886363636363636,
                "pitch": 76,
                "velocity": 40,
                "duration": 0.18409090909090908,
                "tempo": 120.0
            },
            {
                "start_time": 1.8068181818181817,
                "end_time": 2.190909090909091,
                "pitch": 74,
                "velocity": 40,
                "duration": 0.38409090909090926,
                "tempo": 120.0
            },
            {
                "start_time": 2.2068181818181816,
                "end_time": 2.5931818181818183,
                "pitch": 73,
                "velocity": 40,
                "duration": 0.3863636363636367,
                "tempo": 120.0
            },
            {
                "start_time": 2.609090909090909,
                "end_time": 2.793181818181818,
                "pitch": 74,
                "velocity": 40,
                "duration": 0.18409090909090908,
                "tempo": 120.0
            },
            {
                "start_time": 2.811363636363636,
                "end_time": 3.193181818181818,
                "pitch": 71,
                "velocity": 40,
                "duration": 0.38181818181818183,
                "tempo": 120.0
            },
            {
                "start_time": 3.2113636363636364,
                "end_time": 3.293181818181818,
                "pitch": 70,
                "velocity": 40,
                "duration": 0.08181818181818157,
                "tempo": 120.0
            },
            {
                "start_time": 3.311363636363636,
                "end_time": 3.393181818181818,
                "pitch": 69,
                "velocity": 40,
                "duration": 0.08181818181818201,
                "tempo": 120.0
            },
            {
                "start_time": 3.411363636363636,
                "end_time": 3.493181818181818,
                "pitch": 70,
                "velocity": 40,
                "duration": 0.08181818181818201,
                "tempo": 120.0
            },
            {
                "start_time": 3.5113636363636362,
                "end_time": 3.593181818181818,
                "pitch": 69,
                "velocity": 40,
                "duration": 0.08181818181818157,
                "tempo": 120.0
            },
            {
                "start_time": 3.6113636363636363,
                "end_time": 3.793181818181818,
                "pitch": 70,
                "velocity": 40,
                "duration": 0.18181818181818166,
                "tempo": 120.0
            },
            {
                "start_time": 3.811363636363636,
                "end_time": 3.893181818181818,
                "pitch": 70,
                "velocity": 40,
                "duration": 0.08181818181818201,
                "tempo": 120.0
            },
            {
                "start_time": 3.911363636363636,
                "end_time": 3.993181818181818,
                "pitch": 69,
                "velocity": 40,
                "duration": 0.08181818181818201,
                "tempo": 120.0
            },
            {
                "start_time": 4.011363636363636,
                "end_time": 4.093181818181818,
                "pitch": 70,
                "velocity": 40,
                "duration": 0.08181818181818201,
                "tempo": 120.0
            },
            {
                "start_time": 4.111363636363636,
                "end_time": 4.193181818181818,
                "pitch": 69,
                "velocity": 40,
                "duration": 0.08181818181818201,
                "tempo": 120.0
            },
            {
                "start_time": 4.211363636363636,
                "end_time": 4.393181818181818,
                "pitch": 70,
                "velocity": 40,
                "duration": 0.18181818181818166,
                "tempo": 120.0
            },
            {
                "start_time": 4.411363636363636,
                "end_time": 4.493181818181818,
                "pitch": 70,
                "velocity": 40,
                "duration": 0.08181818181818201,
                "tempo": 120.0
            },
            {
                "start_time": 4.511363636363636,
                "end_time": 4.595454545454545,
                "pitch": 69,
                "velocity": 40,
                "duration": 0.084090909090909,
                "tempo": 120.0
            },
            {
                "start_time": 4.611363636363636,
                "end_time": 4.695454545454545,
                "pitch": 70,
                "velocity": 40,
                "duration": 0.084090909090909,
                "tempo": 120.0
            },
            {
                "start_time": 4.711363636363636,
                "end_time": 4.795454545454545,
                "pitch": 69,
                "velocity": 40,
                "duration": 0.084090909090909,
                "tempo": 120.0
            },
            {
                "start_time": 4.8136363636363635,
                "end_time": 4.995454545454545,
                "pitch": 70,
                "velocity": 40,
                "duration": 0.18181818181818166,
                "tempo": 120.0
            },
            {
                "start_time": 5.013636363636364,
                "end_time": 5.095454545454545,
                "pitch": 70,
                "velocity": 40,
                "duration": 0.08181818181818112,
                "tempo": 120.0
            },
            {
                "start_time": 5.113636363636363,
                "end_time": 5.195454545454545,
                "pitch": 69,
                "velocity": 40,
                "duration": 0.08181818181818201,
                "tempo": 120.0
            },
            {
                "start_time": 5.213636363636363,
                "end_time": 5.297727272727273,
                "pitch": 70,
                "velocity": 40,
                "duration": 0.08409090909090988,
                "tempo": 120.0
            },
            {
                "start_time": 5.3136363636363635,
                "end_time": 5.3977272727272725,
                "pitch": 69,
                "velocity": 40,
                "duration": 0.084090909090909,
                "tempo": 120.0
            },
            {
                "start_time": 5.413636363636363,
                "end_time": 5.6,
                "pitch": 70,
                "velocity": 40,
                "duration": 0.1863636363636365,
                "tempo": 120.0
            },
            {
                "start_time": 5.61590909090909,
                "end_time": 5.699999999999999,
                "pitch": 70,
                "velocity": 40,
                "duration": 0.084090909090909,
                "tempo": 120.0
            },
            {
                "start_time": 5.715909090909091,
                "end_time": 5.8,
                "pitch": 69,
                "velocity": 40,
                "duration": 0.084090909090909,
                "tempo": 120.0
            },
            {
                "start_time": 5.8159090909090905,
                "end_time": 5.8999999999999995,
                "pitch": 70,
                "velocity": 40,
                "duration": 0.084090909090909,
                "tempo": 120.0
            },
            {
                "start_time": 5.918181818181818,
                "end_time": 6.002272727272727,
                "pitch": 71,
                "velocity": 40,
                "duration": 0.084090909090909,
                "tempo": 120.0
            },
            {
                "start_time": 6.018181818181818,
                "end_time": 6.102272727272727,
                "pitch": 72,
                "velocity": 40,
                "duration": 0.084090909090909,
                "tempo": 120.0
            },
            {
                "start_time": 6.118181818181818,
                "end_time": 6.202272727272727,
                "pitch": 73,
                "velocity": 40,
                "duration": 0.084090909090909,
                "tempo": 120.0
            },
            {
                "start_time": 6.218181818181818,
                "end_time": 6.302272727272727,
                "pitch": 74,
                "velocity": 40,
                "duration": 0.084090909090909,
                "tempo": 120.0
            },
            {
                "start_time": 6.3181818181818175,
                "end_time": 6.402272727272727,
                "pitch": 75,
                "velocity": 40,
                "duration": 0.08409090909090988,
                "tempo": 120.0
            },
            {
                "start_time": 6.418181818181818,
                "end_time": 7.004545454545454,
                "pitch": 74,
                "velocity": 40,
                "duration": 0.586363636363636,
                "tempo": 120.0
            },
            {
                "start_time": 7.0204545454545455,
                "end_time": 7.404545454545454,
                "pitch": 73,
                "velocity": 40,
                "duration": 0.3840909090909088,
                "tempo": 120.0
            },
            {
                "start_time": 7.422727272727272,
                "end_time": 7.6068181818181815,
                "pitch": 73,
                "velocity": 40,
                "duration": 0.18409090909090953,
                "tempo": 120.0
            },
            {
                "start_time": 7.622727272727272,
                "end_time": 8.009090909090908,
                "pitch": 74,
                "velocity": 40,
                "duration": 0.3863636363636358,
                "tempo": 120.0
            },
            {
                "start_time": 8.027272727272727,
                "end_time": 8.209090909090909,
                "pitch": 78,
                "velocity": 40,
                "duration": 0.18181818181818166,
                "tempo": 120.0
            },
            {
                "start_time": 8.227272727272727,
                "end_time": 8.611363636363636,
                "pitch": 76,
                "velocity": 40,
                "duration": 0.3840909090909097,
                "tempo": 120.0
            },
            {
                "start_time": 8.627272727272727,
                "end_time": 9.013636363636364,
                "pitch": 74,
                "velocity": 40,
                "duration": 0.3863636363636367,
                "tempo": 120.0
            },
            {
                "start_time": 9.029545454545454,
                "end_time": 9.21590909090909,
                "pitch": 76,
                "velocity": 40,
                "duration": 0.18636363636363562,
                "tempo": 120.0
            },
            {
                "start_time": 9.23181818181818,
                "end_time": 9.618181818181817,
                "pitch": 73,
                "velocity": 40,
                "duration": 0.3863636363636367,
                "tempo": 120.0
            },
            {
                "start_time": 9.634090909090908,
                "end_time": 9.718181818181817,
                "pitch": 70,
                "velocity": 40,
                "duration": 0.084090909090909,
                "tempo": 120.0
            },
            {
                "start_time": 9.73409090909091,
                "end_time": 9.818181818181818,
                "pitch": 69,
                "velocity": 40,
                "duration": 0.084090909090909,
                "tempo": 120.0
            },
            {
                "start_time": 9.834090909090909,
                "end_time": 9.918181818181818,
                "pitch": 70,
                "velocity": 40,
                "duration": 0.084090909090909,
                "tempo": 120.0
            },
            {
                "start_time": 9.934090909090909,
                "end_time": 10.018181818181818,
                "pitch": 69,
                "velocity": 40,
                "duration": 0.084090909090909,
                "tempo": 120.0
            },
            {
                "start_time": 10.034090909090908,
                "end_time": 10.218181818181817,
                "pitch": 70,
                "velocity": 40,
                "duration": 0.18409090909090864,
                "tempo": 120.0
            },
            {
                "start_time": 10.236363636363636,
                "end_time": 10.320454545454545,
                "pitch": 70,
                "velocity": 40,
                "duration": 0.084090909090909,
                "tempo": 120.0
            },
            {
                "start_time": 10.336363636363636,
                "end_time": 10.420454545454545,
                "pitch": 69,
                "velocity": 40,
                "duration": 0.084090909090909,
                "tempo": 120.0
            },
            {
                "start_time": 10.436363636363636,
                "end_time": 10.520454545454545,
                "pitch": 70,
                "velocity": 40,
                "duration": 0.084090909090909,
                "tempo": 120.0
            },
            {
                "start_time": 10.538636363636362,
                "end_time": 10.622727272727273,
                "pitch": 69,
                "velocity": 40,
                "duration": 0.08409090909091077,
                "tempo": 120.0
            },
            {
                "start_time": 10.638636363636364,
                "end_time": 10.822727272727272,
                "pitch": 70,
                "velocity": 40,
                "duration": 0.18409090909090864,
                "tempo": 120.0
            },
            {
                "start_time": 10.84090909090909,
                "end_time": 10.922727272727272,
                "pitch": 70,
                "velocity": 40,
                "duration": 0.08181818181818201,
                "tempo": 120.0
            },
            {
                "start_time": 10.94090909090909,
                "end_time": 11.024999999999999,
                "pitch": 69,
                "velocity": 40,
                "duration": 0.084090909090909,
                "tempo": 120.0
            },
            {
                "start_time": 11.040909090909091,
                "end_time": 11.125,
                "pitch": 70,
                "velocity": 40,
                "duration": 0.084090909090909,
                "tempo": 120.0
            },
            {
                "start_time": 11.14090909090909,
                "end_time": 11.225,
                "pitch": 69,
                "velocity": 40,
                "duration": 0.084090909090909,
                "tempo": 120.0
            },
            {
                "start_time": 11.243181818181817,
                "end_time": 11.427272727272726,
                "pitch": 70,
                "velocity": 40,
                "duration": 0.18409090909090864,
                "tempo": 120.0
            },
            {
                "start_time": 11.443181818181818,
                "end_time": 11.527272727272727,
                "pitch": 70,
                "velocity": 40,
                "duration": 0.084090909090909,
                "tempo": 120.0
            },
            {
                "start_time": 11.545454545454545,
                "end_time": 11.629545454545454,
                "pitch": 69,
                "velocity": 40,
                "duration": 0.084090909090909,
                "tempo": 120.0
            },
            {
                "start_time": 11.645454545454545,
                "end_time": 11.729545454545454,
                "pitch": 70,
                "velocity": 40,
                "duration": 0.084090909090909,
                "tempo": 120.0
            },
            {
                "start_time": 11.745454545454544,
                "end_time": 11.829545454545453,
                "pitch": 69,
                "velocity": 40,
                "duration": 0.084090909090909,
                "tempo": 120.0
            },
            {
                "start_time": 11.845454545454546,
                "end_time": 12.029545454545454,
                "pitch": 70,
                "velocity": 40,
                "duration": 0.18409090909090864,
                "tempo": 120.0
            },
            {
                "start_time": 12.045454545454545,
                "end_time": 12.129545454545454,
                "pitch": 70,
                "velocity": 40,
                "duration": 0.084090909090909,
                "tempo": 120.0
            },
            {
                "start_time": 12.145454545454545,
                "end_time": 12.229545454545454,
                "pitch": 69,
                "velocity": 40,
                "duration": 0.084090909090909,
                "tempo": 120.0
            },
            {
                "start_time": 12.245454545454544,
                "end_time": 12.329545454545453,
                "pitch": 68,
                "velocity": 40,
                "duration": 0.084090909090909,
                "tempo": 120.0
            },
            {
                "start_time": 12.347727272727273,
                "end_time": 12.431818181818182,
                "pitch": 67,
                "velocity": 40,
                "duration": 0.084090909090909,
                "tempo": 120.0
            },
            {
                "start_time": 12.447727272727272,
                "end_time": 12.531818181818181,
                "pitch": 66,
                "velocity": 40,
                "duration": 0.084090909090909,
                "tempo": 120.0
            },
            {
                "start_time": 12.547727272727272,
                "end_time": 12.631818181818181,
                "pitch": 65,
                "velocity": 40,
                "duration": 0.084090909090909,
                "tempo": 120.0
            },
            {
                "start_time": 12.649999999999999,
                "end_time": 12.73409090909091,
                "pitch": 64,
                "velocity": 40,
                "duration": 0.08409090909091077,
                "tempo": 120.0
            },
            {
                "start_time": 12.75,
                "end_time": 12.834090909090909,
                "pitch": 63,
                "velocity": 40,
                "duration": 0.084090909090909,
                "tempo": 120.0
            },
            {
                "start_time": 12.85,
                "end_time": 13.236363636363636,
                "pitch": 62,
                "velocity": 40,
                "duration": 0.3863636363636367,
                "tempo": 120.0
            },
            {
                "start_time": 13.252272727272727,
                "end_time": 13.438636363636363,
                "pitch": 64,
                "velocity": 40,
                "duration": 0.18636363636363562,
                "tempo": 120.0
            },
            {
                "start_time": 13.454545454545453,
                "end_time": 13.638636363636364,
                "pitch": 66,
                "velocity": 40,
                "duration": 0.18409090909091042,
                "tempo": 120.0
            },
            {
                "start_time": 13.85681818181818,
                "end_time": 14.44090909090909,
                "pitch": 74,
                "velocity": 40,
                "duration": 0.584090909090909,
                "tempo": 120.0
            },
            {
                "start_time": 14.459090909090909,
                "end_time": 14.643181818181818,
                "pitch": 64,
                "velocity": 40,
                "duration": 0.18409090909090864,
                "tempo": 120.0
            },
            {
                "start_time": 14.659090909090908,
                "end_time": 14.845454545454544,
                "pitch": 66,
                "velocity": 40,
                "duration": 0.18636363636363562,
                "tempo": 120.0
            },
            {
                "start_time": 15.063636363636363,
                "end_time": 15.247727272727271,
                "pitch": 67,
                "velocity": 40,
                "duration": 0.18409090909090864,
                "tempo": 120.0
            },
            {
                "start_time": 15.46590909090909,
                "end_time": 15.85,
                "pitch": 78,
                "velocity": 40,
                "duration": 0.3840909090909097,
                "tempo": 120.0
            },
            {
                "start_time": 15.86590909090909,
                "end_time": 16.05,
                "pitch": 76,
                "velocity": 40,
                "duration": 0.18409090909091042,
                "tempo": 120.0
            },
            {
                "start_time": 16.06590909090909,
                "end_time": 16.452272727272728,
                "pitch": 64,
                "velocity": 40,
                "duration": 0.3863636363636367,
                "tempo": 120.0
            },
            {
                "start_time": 16.470454545454544,
                "end_time": 16.852272727272727,
                "pitch": 62,
                "velocity": 40,
                "duration": 0.3818181818181827,
                "tempo": 120.0
            },
            {
                "start_time": 16.870454545454546,
                "end_time": 17.252272727272725,
                "pitch": 64,
                "velocity": 40,
                "duration": 0.38181818181817917,
                "tempo": 120.0
            },
            {
                "start_time": 17.270454545454545,
                "end_time": 17.654545454545453,
                "pitch": 66,
                "velocity": 40,
                "duration": 0.38409090909090793,
                "tempo": 120.0
            },
            {
                "start_time": 17.672727272727272,
                "end_time": 18.054545454545455,
                "pitch": 67,
                "velocity": 40,
                "duration": 0.3818181818181827,
                "tempo": 120.0
            },
            {
                "start_time": 18.07272727272727,
                "end_time": 18.459090909090907,
                "pitch": 67,
                "velocity": 40,
                "duration": 0.3863636363636367,
                "tempo": 120.0
            },
            {
                "start_time": 18.474999999999998,
                "end_time": 18.85909090909091,
                "pitch": 69,
                "velocity": 40,
                "duration": 0.3840909090909115,
                "tempo": 120.0
            },
            {
                "start_time": 18.875,
                "end_time": 19.259090909090908,
                "pitch": 69,
                "velocity": 40,
                "duration": 0.38409090909090793,
                "tempo": 120.0
            },
            {
                "start_time": 19.275,
                "end_time": 19.861363636363635,
                "pitch": 74,
                "velocity": 40,
                "duration": 0.586363636363636,
                "tempo": 120.0
            },
            {
                "start_time": 19.877272727272725,
                "end_time": 20.261363636363637,
                "pitch": 73,
                "velocity": 40,
                "duration": 0.3840909090909115,
                "tempo": 120.0
            },
            {
                "start_time": 20.279545454545453,
                "end_time": 20.46363636363636,
                "pitch": 73,
                "velocity": 40,
                "duration": 0.18409090909090864,
                "tempo": 120.0
            },
            {
                "start_time": 20.479545454545452,
                "end_time": 20.863636363636363,
                "pitch": 74,
                "velocity": 40,
                "duration": 0.3840909090909115,
                "tempo": 120.0
            },
            {
                "start_time": 20.879545454545454,
                "end_time": 21.063636363636363,
                "pitch": 76,
                "velocity": 40,
                "duration": 0.18409090909090864,
                "tempo": 120.0
            },
            {
                "start_time": 21.079545454545453,
                "end_time": 21.46363636363636,
                "pitch": 74,
                "velocity": 40,
                "duration": 0.38409090909090793,
                "tempo": 120.0
            },
            {
                "start_time": 21.48181818181818,
                "end_time": 21.86590909090909,
                "pitch": 73,
                "velocity": 40,
                "duration": 0.38409090909090793,
                "tempo": 120.0
            },
            {
                "start_time": 21.88181818181818,
                "end_time": 22.06590909090909,
                "pitch": 74,
                "velocity": 40,
                "duration": 0.1840909090909122,
                "tempo": 120.0
            },
            {
                "start_time": 22.081818181818182,
                "end_time": 22.46818181818182,
                "pitch": 71,
                "velocity": 40,
                "duration": 0.3863636363636367,
                "tempo": 120.0
            },
            {
                "start_time": 22.486363636363635,
                "end_time": 22.568181818181817,
                "pitch": 70,
                "velocity": 40,
                "duration": 0.08181818181818201,
                "tempo": 120.0
            },
            {
                "start_time": 22.586363636363636,
                "end_time": 22.668181818181818,
                "pitch": 69,
                "velocity": 40,
                "duration": 0.08181818181818201,
                "tempo": 120.0
            },
            {
                "start_time": 22.686363636363634,
                "end_time": 22.768181818181816,
                "pitch": 70,
                "velocity": 40,
                "duration": 0.08181818181818201,
                "tempo": 120.0
            },
            {
                "start_time": 22.786363636363635,
                "end_time": 22.868181818181817,
                "pitch": 69,
                "velocity": 40,
                "duration": 0.08181818181818201,
                "tempo": 120.0
            },
            {
                "start_time": 22.886363636363637,
                "end_time": 23.068181818181817,
                "pitch": 70,
                "velocity": 40,
                "duration": 0.18181818181817988,
                "tempo": 120.0
            },
            {
                "start_time": 23.086363636363636,
                "end_time": 23.168181818181818,
                "pitch": 70,
                "velocity": 40,
                "duration": 0.08181818181818201,
                "tempo": 120.0
            },
            {
                "start_time": 23.186363636363634,
                "end_time": 23.268181818181816,
                "pitch": 69,
                "velocity": 40,
                "duration": 0.08181818181818201,
                "tempo": 120.0
            },
            {
                "start_time": 23.286363636363635,
                "end_time": 23.370454545454546,
                "pitch": 70,
                "velocity": 40,
                "duration": 0.08409090909091077,
                "tempo": 120.0
            },
            {
                "start_time": 23.386363636363637,
                "end_time": 23.470454545454544,
                "pitch": 69,
                "velocity": 40,
                "duration": 0.08409090909090722,
                "tempo": 120.0
            },
            {
                "start_time": 23.486363636363635,
                "end_time": 23.670454545454543,
                "pitch": 70,
                "velocity": 40,
                "duration": 0.18409090909090864,
                "tempo": 120.0
            },
            {
                "start_time": 23.688636363636363,
                "end_time": 23.770454545454545,
                "pitch": 70,
                "velocity": 40,
                "duration": 0.08181818181818201,
                "tempo": 120.0
            },
            {
                "start_time": 23.788636363636364,
                "end_time": 23.870454545454546,
                "pitch": 69,
                "velocity": 40,
                "duration": 0.08181818181818201,
                "tempo": 120.0
            },
            {
                "start_time": 23.888636363636362,
                "end_time": 23.970454545454544,
                "pitch": 70,
                "velocity": 40,
                "duration": 0.08181818181818201,
                "tempo": 120.0
            },
            {
                "start_time": 23.988636363636363,
                "end_time": 24.070454545454545,
                "pitch": 69,
                "velocity": 40,
                "duration": 0.08181818181818201,
                "tempo": 120.0
            },
            {
                "start_time": 24.08863636363636,
                "end_time": 24.27272727272727,
                "pitch": 70,
                "velocity": 40,
                "duration": 0.18409090909090864,
                "tempo": 120.0
            },
            {
                "start_time": 24.288636363636364,
                "end_time": 24.37272727272727,
                "pitch": 70,
                "velocity": 40,
                "duration": 0.08409090909090722,
                "tempo": 120.0
            },
            {
                "start_time": 24.39090909090909,
                "end_time": 24.474999999999998,
                "pitch": 69,
                "velocity": 40,
                "duration": 0.08409090909090722,
                "tempo": 120.0
            },
            {
                "start_time": 24.49090909090909,
                "end_time": 24.575,
                "pitch": 70,
                "velocity": 40,
                "duration": 0.08409090909091077,
                "tempo": 120.0
            },
            {
                "start_time": 24.59090909090909,
                "end_time": 24.674999999999997,
                "pitch": 69,
                "velocity": 40,
                "duration": 0.08409090909090722,
                "tempo": 120.0
            },
            {
                "start_time": 24.69090909090909,
                "end_time": 24.875,
                "pitch": 70,
                "velocity": 40,
                "duration": 0.18409090909090864,
                "tempo": 120.0
            },
            {
                "start_time": 24.89090909090909,
                "end_time": 24.974999999999998,
                "pitch": 70,
                "velocity": 40,
                "duration": 0.08409090909090722,
                "tempo": 120.0
            },
            {
                "start_time": 24.99090909090909,
                "end_time": 25.075,
                "pitch": 69,
                "velocity": 40,
                "duration": 0.08409090909091077,
                "tempo": 120.0
            },
            {
                "start_time": 25.09090909090909,
                "end_time": 25.174999999999997,
                "pitch": 70,
                "velocity": 40,
                "duration": 0.08409090909090722,
                "tempo": 120.0
            },
            {
                "start_time": 25.19090909090909,
                "end_time": 25.275,
                "pitch": 71,
                "velocity": 40,
                "duration": 0.08409090909090722,
                "tempo": 120.0
            },
            {
                "start_time": 25.29090909090909,
                "end_time": 25.375,
                "pitch": 72,
                "velocity": 40,
                "duration": 0.08409090909091077,
                "tempo": 120.0
            },
            {
                "start_time": 25.39090909090909,
                "end_time": 25.474999999999998,
                "pitch": 73,
                "velocity": 40,
                "duration": 0.08409090909090722,
                "tempo": 120.0
            },
            {
                "start_time": 25.493181818181817,
                "end_time": 25.575,
                "pitch": 74,
                "velocity": 40,
                "duration": 0.08181818181818201,
                "tempo": 120.0
            },
            {
                "start_time": 25.59318181818182,
                "end_time": 25.677272727272726,
                "pitch": 75,
                "velocity": 40,
                "duration": 0.08409090909090722,
                "tempo": 120.0
            },
            {
                "start_time": 25.693181818181817,
                "end_time": 26.277272727272727,
                "pitch": 74,
                "velocity": 40,
                "duration": 0.5840909090909108,
                "tempo": 120.0
            },
            {
                "start_time": 26.295454545454543,
                "end_time": 26.679545454545455,
                "pitch": 73,
                "velocity": 40,
                "duration": 0.3840909090909115,
                "tempo": 120.0
            },
            {
                "start_time": 26.695454545454545,
                "end_time": 26.879545454545454,
                "pitch": 73,
                "velocity": 40,
                "duration": 0.18409090909090864,
                "tempo": 120.0
            },
            {
                "start_time": 26.895454545454545,
                "end_time": 27.279545454545453,
                "pitch": 74,
                "velocity": 40,
                "duration": 0.38409090909090793,
                "tempo": 120.0
            },
            {
                "start_time": 27.295454545454543,
                "end_time": 27.48181818181818,
                "pitch": 78,
                "velocity": 40,
                "duration": 0.1863636363636374,
                "tempo": 120.0
            },
            {
                "start_time": 27.49772727272727,
                "end_time": 27.88181818181818,
                "pitch": 76,
                "velocity": 40,
                "duration": 0.38409090909090793,
                "tempo": 120.0
            },
            {
                "start_time": 27.9,
                "end_time": 28.284090909090907,
                "pitch": 74,
                "velocity": 40,
                "duration": 0.38409090909090793,
                "tempo": 120.0
            },
            {
                "start_time": 28.299999999999997,
                "end_time": 28.48409090909091,
                "pitch": 76,
                "velocity": 40,
                "duration": 0.1840909090909122,
                "tempo": 120.0
            },
            {
                "start_time": 28.502272727272725,
                "end_time": 28.884090909090908,
                "pitch": 73,
                "velocity": 40,
                "duration": 0.3818181818181827,
                "tempo": 120.0
            },
            {
                "start_time": 28.902272727272727,
                "end_time": 28.98409090909091,
                "pitch": 70,
                "velocity": 40,
                "duration": 0.08181818181818201,
                "tempo": 120.0
            },
            {
                "start_time": 29.002272727272725,
                "end_time": 29.084090909090907,
                "pitch": 69,
                "velocity": 40,
                "duration": 0.08181818181818201,
                "tempo": 120.0
            },
            {
                "start_time": 29.102272727272727,
                "end_time": 29.18409090909091,
                "pitch": 70,
                "velocity": 40,
                "duration": 0.08181818181818201,
                "tempo": 120.0
            },
            {
                "start_time": 29.202272727272724,
                "end_time": 29.284090909090907,
                "pitch": 69,
                "velocity": 40,
                "duration": 0.08181818181818201,
                "tempo": 120.0
            },
            {
                "start_time": 29.302272727272726,
                "end_time": 29.486363636363635,
                "pitch": 70,
                "velocity": 40,
                "duration": 0.18409090909090864,
                "tempo": 120.0
            },
            {
                "start_time": 29.502272727272725,
                "end_time": 29.586363636363636,
                "pitch": 70,
                "velocity": 40,
                "duration": 0.08409090909091077,
                "tempo": 120.0
            },
            {
                "start_time": 29.604545454545452,
                "end_time": 29.688636363636363,
                "pitch": 69,
                "velocity": 40,
                "duration": 0.08409090909091077,
                "tempo": 120.0
            },
            {
                "start_time": 29.704545454545453,
                "end_time": 29.78863636363636,
                "pitch": 70,
                "velocity": 40,
                "duration": 0.08409090909090722,
                "tempo": 120.0
            },
            {
                "start_time": 29.804545454545455,
                "end_time": 29.888636363636362,
                "pitch": 69,
                "velocity": 40,
                "duration": 0.08409090909090722,
                "tempo": 120.0
            },
            {
                "start_time": 29.904545454545453,
                "end_time": 30.08863636363636,
                "pitch": 70,
                "velocity": 40,
                "duration": 0.18409090909090864,
                "tempo": 120.0
            },
            {
                "start_time": 30.104545454545452,
                "end_time": 30.188636363636363,
                "pitch": 70,
                "velocity": 40,
                "duration": 0.08409090909091077,
                "tempo": 120.0
            },
            {
                "start_time": 30.204545454545453,
                "end_time": 30.28863636363636,
                "pitch": 69,
                "velocity": 40,
                "duration": 0.08409090909090722,
                "tempo": 120.0
            },
            {
                "start_time": 30.304545454545455,
                "end_time": 30.388636363636362,
                "pitch": 70,
                "velocity": 40,
                "duration": 0.08409090909090722,
                "tempo": 120.0
            },
            {
                "start_time": 30.40681818181818,
                "end_time": 30.49090909090909,
                "pitch": 69,
                "velocity": 40,
                "duration": 0.08409090909090722,
                "tempo": 120.0
            },
            {
                "start_time": 30.50681818181818,
                "end_time": 30.690909090909088,
                "pitch": 70,
                "velocity": 40,
                "duration": 0.18409090909090864,
                "tempo": 120.0
            },
            {
                "start_time": 30.706818181818182,
                "end_time": 30.79090909090909,
                "pitch": 70,
                "velocity": 40,
                "duration": 0.08409090909090722,
                "tempo": 120.0
            },
            {
                "start_time": 30.80681818181818,
                "end_time": 30.89090909090909,
                "pitch": 69,
                "velocity": 40,
                "duration": 0.08409090909091077,
                "tempo": 120.0
            },
            {
                "start_time": 30.90681818181818,
                "end_time": 30.99090909090909,
                "pitch": 70,
                "velocity": 40,
                "duration": 0.08409090909090722,
                "tempo": 120.0
            },
            {
                "start_time": 31.00681818181818,
                "end_time": 31.09090909090909,
                "pitch": 69,
                "velocity": 40,
                "duration": 0.08409090909091077,
                "tempo": 120.0
            },
            {
                "start_time": 31.10681818181818,
                "end_time": 31.29090909090909,
                "pitch": 70,
                "velocity": 40,
                "duration": 0.18409090909090864,
                "tempo": 120.0
            },
            {
                "start_time": 31.30681818181818,
                "end_time": 31.39090909090909,
                "pitch": 70,
                "velocity": 40,
                "duration": 0.08409090909091077,
                "tempo": 120.0
            },
            {
                "start_time": 31.40681818181818,
                "end_time": 31.49090909090909,
                "pitch": 69,
                "velocity": 40,
                "duration": 0.08409090909090722,
                "tempo": 120.0
            },
            {
                "start_time": 31.509090909090908,
                "end_time": 31.593181818181815,
                "pitch": 68,
                "velocity": 40,
                "duration": 0.08409090909090722,
                "tempo": 120.0
            },
            {
                "start_time": 31.609090909090906,
                "end_time": 31.693181818181817,
                "pitch": 67,
                "velocity": 40,
                "duration": 0.08409090909091077,
                "tempo": 120.0
            },
            {
                "start_time": 31.709090909090907,
                "end_time": 31.793181818181818,
                "pitch": 66,
                "velocity": 40,
                "duration": 0.08409090909091077,
                "tempo": 120.0
            },
            {
                "start_time": 31.80909090909091,
                "end_time": 31.893181818181816,
                "pitch": 65,
                "velocity": 40,
                "duration": 0.08409090909090722,
                "tempo": 120.0
            },
            {
                "start_time": 31.909090909090907,
                "end_time": 31.993181818181817,
                "pitch": 64,
                "velocity": 40,
                "duration": 0.08409090909091077,
                "tempo": 120.0
            },
            {
                "start_time": 32.00909090909091,
                "end_time": 32.09318181818182,
                "pitch": 63,
                "velocity": 40,
                "duration": 0.08409090909091077,
                "tempo": 120.0
            },
            {
                "start_time": 32.10909090909091,
                "end_time": 32.49318181818182,
                "pitch": 62,
                "velocity": 40,
                "duration": 0.38409090909090793,
                "tempo": 120.0
            },
            {
                "start_time": 32.50909090909091,
                "end_time": 32.69318181818182,
                "pitch": 64,
                "velocity": 40,
                "duration": 0.1840909090909122,
                "tempo": 120.0
            },
            {
                "start_time": 32.70909090909091,
                "end_time": 32.893181818181816,
                "pitch": 66,
                "velocity": 40,
                "duration": 0.18409090909090509,
                "tempo": 120.0
            },
            {
                "start_time": 33.111363636363635,
                "end_time": 33.695454545454545,
                "pitch": 74,
                "velocity": 40,
                "duration": 0.5840909090909108,
                "tempo": 120.0
            },
            {
                "start_time": 33.711363636363636,
                "end_time": 33.89545454545454,
                "pitch": 64,
                "velocity": 40,
                "duration": 0.18409090909090509,
                "tempo": 120.0
            },
            {
                "start_time": 33.91136363636363,
                "end_time": 34.095454545454544,
                "pitch": 66,
                "velocity": 40,
                "duration": 0.1840909090909122,
                "tempo": 120.0
            },
            {
                "start_time": 34.31136363636364,
                "end_time": 34.49545454545454,
                "pitch": 67,
                "velocity": 40,
                "duration": 0.18409090909090509,
                "tempo": 120.0
            },
            {
                "start_time": 34.711363636363636,
                "end_time": 35.09772727272727,
                "pitch": 78,
                "velocity": 40,
                "duration": 0.38636363636363313,
                "tempo": 120.0
            },
            {
                "start_time": 35.11363636363636,
                "end_time": 35.29772727272727,
                "pitch": 76,
                "velocity": 40,
                "duration": 0.1840909090909122,
                "tempo": 120.0
            },
            {
                "start_time": 35.31590909090909,
                "end_time": 35.69772727272727,
                "pitch": 64,
                "velocity": 40,
                "duration": 0.3818181818181827,
                "tempo": 120.0
            },
            {
                "start_time": 35.715909090909086,
                "end_time": 36.09772727272727,
                "pitch": 62,
                "velocity": 40,
                "duration": 0.3818181818181827,
                "tempo": 120.0
            },
            {
                "start_time": 36.11590909090909,
                "end_time": 36.49772727272727,
                "pitch": 64,
                "velocity": 40,
                "duration": 0.3818181818181756,
                "tempo": 120.0
            },
            {
                "start_time": 36.51590909090909,
                "end_time": 36.89772727272727,
                "pitch": 66,
                "velocity": 40,
                "duration": 0.3818181818181827,
                "tempo": 120.0
            },
            {
                "start_time": 36.91590909090909,
                "end_time": 37.3,
                "pitch": 67,
                "velocity": 40,
                "duration": 0.38409090909090793,
                "tempo": 120.0
            },
            {
                "start_time": 37.31818181818181,
                "end_time": 37.699999999999996,
                "pitch": 67,
                "velocity": 40,
                "duration": 0.3818181818181827,
                "tempo": 120.0
            },
            {
                "start_time": 37.71818181818182,
                "end_time": 38.1,
                "pitch": 69,
                "velocity": 40,
                "duration": 0.3818181818181827,
                "tempo": 120.0
            },
            {
                "start_time": 38.11818181818182,
                "end_time": 38.5,
                "pitch": 69,
                "velocity": 40,
                "duration": 0.3818181818181827,
                "tempo": 120.0
            },
            {
                "start_time": 38.518181818181816,
                "end_time": 39.70454545454545,
                "pitch": 74,
                "velocity": 40,
                "duration": 1.1863636363636374,
                "tempo": 120.0
            },
            {
                "start_time": 39.720454545454544,
                "end_time": 40.10454545454545,
                "pitch": 70,
                "velocity": 40,
                "duration": 0.38409090909090793,
                "tempo": 120.0
            },
            {
                "start_time": 40.12045454545454,
                "end_time": 40.70454545454545,
                "pitch": 74,
                "velocity": 40,
                "duration": 0.5840909090909108,
                "tempo": 120.0
            },
            {
                "start_time": 40.720454545454544,
                "end_time": 41.30681818181818,
                "pitch": 74,
                "velocity": 40,
                "duration": 0.586363636363636,
                "tempo": 120.0
            },
            {
                "start_time": 41.32272727272727,
                "end_time": 41.70681818181818,
                "pitch": 74,
                "velocity": 40,
                "duration": 0.38409090909090793,
                "tempo": 120.0
            },
            {
                "start_time": 41.72272727272727,
                "end_time": 42.90681818181818,
                "pitch": 74,
                "velocity": 40,
                "duration": 1.1840909090909122,
                "tempo": 120.0
            },
            {
                "start_time": 42.92272727272727,
                "end_time": 43.309090909090905,
                "pitch": 69,
                "velocity": 40,
                "duration": 0.38636363636363313,
                "tempo": 120.0
            },
            {
                "start_time": 43.324999999999996,
                "end_time": 43.90909090909091,
                "pitch": 74,
                "velocity": 40,
                "duration": 0.5840909090909108,
                "tempo": 120.0
            },
            {
                "start_time": 43.925,
                "end_time": 44.50909090909091,
                "pitch": 74,
                "velocity": 40,
                "duration": 0.5840909090909108,
                "tempo": 120.0
            },
            {
                "start_time": 44.525,
                "end_time": 44.90909090909091,
                "pitch": 74,
                "velocity": 40,
                "duration": 0.38409090909090793,
                "tempo": 120.0
            },
            {
                "start_time": 44.925,
                "end_time": 46.111363636363635,
                "pitch": 74,
                "velocity": 40,
                "duration": 1.1863636363636374,
                "tempo": 120.0
            },
            {
                "start_time": 46.12954545454545,
                "end_time": 46.51136363636363,
                "pitch": 70,
                "velocity": 40,
                "duration": 0.3818181818181827,
                "tempo": 120.0
            },
            {
                "start_time": 46.52954545454545,
                "end_time": 47.11363636363636,
                "pitch": 74,
                "velocity": 40,
                "duration": 0.5840909090909108,
                "tempo": 120.0
            },
            {
                "start_time": 47.12954545454545,
                "end_time": 47.71363636363636,
                "pitch": 74,
                "velocity": 40,
                "duration": 0.5840909090909108,
                "tempo": 120.0
            },
            {
                "start_time": 47.73181818181818,
                "end_time": 48.11363636363636,
                "pitch": 74,
                "velocity": 40,
                "duration": 0.3818181818181827,
                "tempo": 120.0
            },
            {
                "start_time": 48.13181818181818,
                "end_time": 48.913636363636364,
                "pitch": 75,
                "velocity": 40,
                "duration": 0.7818181818181813,
                "tempo": 120.0
            },
            {
                "start_time": 48.93181818181818,
                "end_time": 49.71818181818182,
                "pitch": 74,
                "velocity": 40,
                "duration": 0.7863636363636388,
                "tempo": 120.0
            },
            {
                "start_time": 49.73409090909091,
                "end_time": 50.518181818181816,
                "pitch": 73,
                "velocity": 40,
                "duration": 0.7840909090909065,
                "tempo": 120.0
            },
            {
                "start_time": 50.53409090909091,
                "end_time": 51.320454545454545,
                "pitch": 76,
                "velocity": 40,
                "duration": 0.7863636363636388,
                "tempo": 120.0
            },
            {
                "start_time": 51.336363636363636,
                "end_time": 51.92045454545454,
                "pitch": 74,
                "velocity": 40,
                "duration": 0.5840909090909037,
                "tempo": 120.0
            },
            {
                "start_time": 51.93636363636363,
                "end_time": 52.320454545454545,
                "pitch": 73,
                "velocity": 40,
                "duration": 0.38409090909091503,
                "tempo": 120.0
            },
            {
                "start_time": 52.336363636363636,
                "end_time": 52.52045454545454,
                "pitch": 73,
                "velocity": 40,
                "duration": 0.18409090909090509,
                "tempo": 120.0
            },
            {
                "start_time": 52.53636363636363,
                "end_time": 52.92045454545454,
                "pitch": 74,
                "velocity": 40,
                "duration": 0.38409090909090793,
                "tempo": 120.0
            },
            {
                "start_time": 52.93636363636363,
                "end_time": 53.12045454545454,
                "pitch": 76,
                "velocity": 40,
                "duration": 0.1840909090909122,
                "tempo": 120.0
            },
            {
                "start_time": 53.13863636363636,
                "end_time": 53.52272727272727,
                "pitch": 74,
                "velocity": 40,
                "duration": 0.38409090909091503,
                "tempo": 120.0
            },
            {
                "start_time": 53.538636363636364,
                "end_time": 53.92272727272727,
                "pitch": 73,
                "velocity": 40,
                "duration": 0.38409090909090793,
                "tempo": 120.0
            },
            {
                "start_time": 53.93863636363636,
                "end_time": 54.12272727272727,
                "pitch": 74,
                "velocity": 40,
                "duration": 0.18409090909090509,
                "tempo": 120.0
            },
            {
                "start_time": 54.13863636363636,
                "end_time": 54.52954545454545,
                "pitch": 71,
                "velocity": 40,
                "duration": 0.39090909090909065,
                "tempo": 120.0
            }
        ],
        "Synth Bass 1": [
            {
                "start_time": 0.04318181818181818,
                "end_time": 0.6227272727272727,
                "pitch": 78,
                "velocity": 40,
                "duration": 0.5795454545454545,
                "tempo": 120.0
            },
            {
                "start_time": 0.6386363636363636,
                "end_time": 1.0204545454545455,
                "pitch": 76,
                "velocity": 40,
                "duration": 0.38181818181818195,
                "tempo": 120.0
            },
            {
                "start_time": 1.0363636363636364,
                "end_time": 1.2227272727272727,
                "pitch": 76,
                "velocity": 40,
                "duration": 0.1863636363636363,
                "tempo": 120.0
            },
            {
                "start_time": 1.2386363636363635,
                "end_time": 1.6227272727272726,
                "pitch": 78,
                "velocity": 40,
                "duration": 0.38409090909090904,
                "tempo": 120.0
            },
            {
                "start_time": 1.6386363636363634,
                "end_time": 1.8227272727272725,
                "pitch": 79,
                "velocity": 40,
                "duration": 0.18409090909090908,
                "tempo": 120.0
            },
            {
                "start_time": 1.8409090909090908,
                "end_time": 2.225,
                "pitch": 78,
                "velocity": 40,
                "duration": 0.38409090909090926,
                "tempo": 120.0
            },
            {
                "start_time": 2.2409090909090907,
                "end_time": 2.625,
                "pitch": 76,
                "velocity": 40,
                "duration": 0.38409090909090926,
                "tempo": 120.0
            },
            {
                "start_time": 2.643181818181818,
                "end_time": 2.827272727272727,
                "pitch": 78,
                "velocity": 40,
                "duration": 0.18409090909090908,
                "tempo": 120.0
            },
            {
                "start_time": 2.8431818181818183,
                "end_time": 3.1999999999999997,
                "pitch": 74,
                "velocity": 40,
                "duration": 0.3568181818181815,
                "tempo": 120.0
            },
            {
                "start_time": 3.1999999999999997,
                "end_time": 3.227272727272727,
                "pitch": 74,
                "velocity": 40,
                "duration": 0.027272727272727337,
                "tempo": 120.0
            },
            {
                "start_time": 3.243181818181818,
                "end_time": 3.327272727272727,
                "pitch": 70,
                "velocity": 40,
                "duration": 0.084090909090909,
                "tempo": 120.0
            },
            {
                "start_time": 3.343181818181818,
                "end_time": 3.4272727272727272,
                "pitch": 69,
                "velocity": 40,
                "duration": 0.08409090909090944,
                "tempo": 120.0
            },
            {
                "start_time": 3.443181818181818,
                "end_time": 3.527272727272727,
                "pitch": 70,
                "velocity": 40,
                "duration": 0.084090909090909,
                "tempo": 120.0
            },
            {
                "start_time": 3.543181818181818,
                "end_time": 3.627272727272727,
                "pitch": 69,
                "velocity": 40,
                "duration": 0.084090909090909,
                "tempo": 120.0
            },
            {
                "start_time": 3.643181818181818,
                "end_time": 3.827272727272727,
                "pitch": 70,
                "velocity": 40,
                "duration": 0.18409090909090908,
                "tempo": 120.0
            },
            {
                "start_time": 3.843181818181818,
                "end_time": 3.9272727272727272,
                "pitch": 70,
                "velocity": 40,
                "duration": 0.08409090909090944,
                "tempo": 120.0
            },
            {
                "start_time": 3.943181818181818,
                "end_time": 4.027272727272727,
                "pitch": 69,
                "velocity": 40,
                "duration": 0.08409090909090944,
                "tempo": 120.0
            },
            {
                "start_time": 4.043181818181818,
                "end_time": 4.127272727272727,
                "pitch": 70,
                "velocity": 40,
                "duration": 0.084090909090909,
                "tempo": 120.0
            },
            {
                "start_time": 4.143181818181818,
                "end_time": 4.227272727272727,
                "pitch": 69,
                "velocity": 40,
                "duration": 0.084090909090909,
                "tempo": 120.0
            },
            {
                "start_time": 4.243181818181818,
                "end_time": 4.427272727272727,
                "pitch": 70,
                "velocity": 40,
                "duration": 0.18409090909090864,
                "tempo": 120.0
            },
            {
                "start_time": 4.443181818181818,
                "end_time": 4.527272727272727,
                "pitch": 70,
                "velocity": 40,
                "duration": 0.084090909090909,
                "tempo": 120.0
            },
            {
                "start_time": 4.545454545454545,
                "end_time": 4.629545454545454,
                "pitch": 69,
                "velocity": 40,
                "duration": 0.084090909090909,
                "tempo": 120.0
            },
            {
                "start_time": 4.6454545454545455,
                "end_time": 4.7295454545454545,
                "pitch": 70,
                "velocity": 40,
                "duration": 0.084090909090909,
                "tempo": 120.0
            },
            {
                "start_time": 4.745454545454545,
                "end_time": 4.829545454545454,
                "pitch": 69,
                "velocity": 40,
                "duration": 0.084090909090909,
                "tempo": 120.0
            },
            {
                "start_time": 4.845454545454545,
                "end_time": 5.029545454545454,
                "pitch": 70,
                "velocity": 40,
                "duration": 0.18409090909090953,
                "tempo": 120.0
            },
            {
                "start_time": 5.045454545454545,
                "end_time": 5.129545454545454,
                "pitch": 70,
                "velocity": 40,
                "duration": 0.084090909090909,
                "tempo": 120.0
            },
            {
                "start_time": 5.1454545454545455,
                "end_time": 5.2295454545454545,
                "pitch": 69,
                "velocity": 40,
                "duration": 0.084090909090909,
                "tempo": 120.0
            },
            {
                "start_time": 5.245454545454545,
                "end_time": 5.329545454545454,
                "pitch": 70,
                "velocity": 40,
                "duration": 0.084090909090909,
                "tempo": 120.0
            },
            {
                "start_time": 5.347727272727273,
                "end_time": 5.431818181818182,
                "pitch": 69,
                "velocity": 40,
                "duration": 0.084090909090909,
                "tempo": 120.0
            },
            {
                "start_time": 5.447727272727272,
                "end_time": 5.631818181818182,
                "pitch": 70,
                "velocity": 40,
                "duration": 0.18409090909090953,
                "tempo": 120.0
            },
            {
                "start_time": 5.6499999999999995,
                "end_time": 5.7340909090909085,
                "pitch": 70,
                "velocity": 40,
                "duration": 0.084090909090909,
                "tempo": 120.0
            },
            {
                "start_time": 5.75,
                "end_time": 5.834090909090909,
                "pitch": 69,
                "velocity": 40,
                "duration": 0.084090909090909,
                "tempo": 120.0
            },
            {
                "start_time": 5.85,
                "end_time": 5.934090909090909,
                "pitch": 70,
                "velocity": 40,
                "duration": 0.084090909090909,
                "tempo": 120.0
            },
            {
                "start_time": 5.952272727272727,
                "end_time": 6.034090909090909,
                "pitch": 71,
                "velocity": 40,
                "duration": 0.08181818181818201,
                "tempo": 120.0
            },
            {
                "start_time": 6.052272727272727,
                "end_time": 6.134090909090909,
                "pitch": 72,
                "velocity": 40,
                "duration": 0.08181818181818201,
                "tempo": 120.0
            },
            {
                "start_time": 6.152272727272727,
                "end_time": 6.2340909090909085,
                "pitch": 73,
                "velocity": 40,
                "duration": 0.08181818181818112,
                "tempo": 120.0
            },
            {
                "start_time": 6.252272727272727,
                "end_time": 6.334090909090909,
                "pitch": 74,
                "velocity": 40,
                "duration": 0.08181818181818201,
                "tempo": 120.0
            },
            {
                "start_time": 6.352272727272727,
                "end_time": 6.434090909090909,
                "pitch": 75,
                "velocity": 40,
                "duration": 0.08181818181818201,
                "tempo": 120.0
            },
            {
                "start_time": 6.452272727272727,
                "end_time": 9.752272727272727,
                "pitch": 78,
                "velocity": 40,
                "duration": 3.3,
                "tempo": 120.0
            },
            {
                "start_time": 9.768181818181818,
                "end_time": 9.852272727272727,
                "pitch": 69,
                "velocity": 40,
                "duration": 0.084090909090909,
                "tempo": 120.0
            },
            {
                "start_time": 9.868181818181817,
                "end_time": 9.952272727272726,
                "pitch": 70,
                "velocity": 40,
                "duration": 0.084090909090909,
                "tempo": 120.0
            },
            {
                "start_time": 9.968181818181817,
                "end_time": 10.052272727272726,
                "pitch": 69,
                "velocity": 40,
                "duration": 0.084090909090909,
                "tempo": 120.0
            },
            {
                "start_time": 10.068181818181818,
                "end_time": 10.252272727272727,
                "pitch": 70,
                "velocity": 40,
                "duration": 0.18409090909090864,
                "tempo": 120.0
            },
            {
                "start_time": 10.270454545454545,
                "end_time": 10.352272727272727,
                "pitch": 70,
                "velocity": 40,
                "duration": 0.08181818181818201,
                "tempo": 120.0
            },
            {
                "start_time": 10.370454545454544,
                "end_time": 10.454545454545453,
                "pitch": 69,
                "velocity": 40,
                "duration": 0.084090909090909,
                "tempo": 120.0
            },
            {
                "start_time": 10.470454545454546,
                "end_time": 10.554545454545455,
                "pitch": 70,
                "velocity": 40,
                "duration": 0.084090909090909,
                "tempo": 120.0
            },
            {
                "start_time": 10.570454545454545,
                "end_time": 10.654545454545454,
                "pitch": 69,
                "velocity": 40,
                "duration": 0.084090909090909,
                "tempo": 120.0
            },
            {
                "start_time": 10.672727272727272,
                "end_time": 10.85681818181818,
                "pitch": 70,
                "velocity": 40,
                "duration": 0.18409090909090864,
                "tempo": 120.0
            },
            {
                "start_time": 10.872727272727273,
                "end_time": 10.956818181818182,
                "pitch": 70,
                "velocity": 40,
                "duration": 0.084090909090909,
                "tempo": 120.0
            },
            {
                "start_time": 10.975,
                "end_time": 11.059090909090909,
                "pitch": 69,
                "velocity": 40,
                "duration": 0.084090909090909,
                "tempo": 120.0
            },
            {
                "start_time": 11.075,
                "end_time": 11.159090909090908,
                "pitch": 70,
                "velocity": 40,
                "duration": 0.084090909090909,
                "tempo": 120.0
            },
            {
                "start_time": 11.174999999999999,
                "end_time": 11.259090909090908,
                "pitch": 69,
                "velocity": 40,
                "duration": 0.084090909090909,
                "tempo": 120.0
            },
            {
                "start_time": 11.274999999999999,
                "end_time": 11.461363636363636,
                "pitch": 70,
                "velocity": 40,
                "duration": 0.1863636363636374,
                "tempo": 120.0
            },
            {
                "start_time": 11.477272727272727,
                "end_time": 11.561363636363636,
                "pitch": 70,
                "velocity": 40,
                "duration": 0.084090909090909,
                "tempo": 120.0
            },
            {
                "start_time": 11.577272727272726,
                "end_time": 11.661363636363635,
                "pitch": 69,
                "velocity": 40,
                "duration": 0.084090909090909,
                "tempo": 120.0
            },
            {
                "start_time": 11.679545454545455,
                "end_time": 11.761363636363635,
                "pitch": 70,
                "velocity": 40,
                "duration": 0.08181818181818024,
                "tempo": 120.0
            },
            {
                "start_time": 11.779545454545454,
                "end_time": 11.861363636363636,
                "pitch": 69,
                "velocity": 40,
                "duration": 0.08181818181818201,
                "tempo": 120.0
            },
            {
                "start_time": 11.879545454545454,
                "end_time": 12.061363636363636,
                "pitch": 70,
                "velocity": 40,
                "duration": 0.18181818181818166,
                "tempo": 120.0
            },
            {
                "start_time": 12.079545454545453,
                "end_time": 12.163636363636362,
                "pitch": 70,
                "velocity": 40,
                "duration": 0.084090909090909,
                "tempo": 120.0
            },
            {
                "start_time": 12.179545454545455,
                "end_time": 12.263636363636364,
                "pitch": 69,
                "velocity": 40,
                "duration": 0.084090909090909,
                "tempo": 120.0
            },
            {
                "start_time": 12.279545454545454,
                "end_time": 12.363636363636363,
                "pitch": 68,
                "velocity": 40,
                "duration": 0.084090909090909,
                "tempo": 120.0
            },
            {
                "start_time": 12.381818181818181,
                "end_time": 12.463636363636363,
                "pitch": 67,
                "velocity": 40,
                "duration": 0.08181818181818201,
                "tempo": 120.0
            },
            {
                "start_time": 12.48181818181818,
                "end_time": 12.56590909090909,
                "pitch": 66,
                "velocity": 40,
                "duration": 0.084090909090909,
                "tempo": 120.0
            },
            {
                "start_time": 12.581818181818182,
                "end_time": 12.665909090909091,
                "pitch": 65,
                "velocity": 40,
                "duration": 0.084090909090909,
                "tempo": 120.0
            },
            {
                "start_time": 12.681818181818182,
                "end_time": 12.76590909090909,
                "pitch": 64,
                "velocity": 40,
                "duration": 0.084090909090909,
                "tempo": 120.0
            },
            {
                "start_time": 12.784090909090908,
                "end_time": 12.868181818181817,
                "pitch": 63,
                "velocity": 40,
                "duration": 0.084090909090909,
                "tempo": 120.0
            },
            {
                "start_time": 12.884090909090908,
                "end_time": 22.602272727272727,
                "pitch": 66,
                "velocity": 40,
                "duration": 9.718181818181819,
                "tempo": 120.0
            },
            {
                "start_time": 22.618181818181817,
                "end_time": 22.702272727272724,
                "pitch": 69,
                "velocity": 40,
                "duration": 0.08409090909090722,
                "tempo": 120.0
            },
            {
                "start_time": 22.71818181818182,
                "end_time": 22.802272727272726,
                "pitch": 70,
                "velocity": 40,
                "duration": 0.08409090909090722,
                "tempo": 120.0
            },
            {
                "start_time": 22.818181818181817,
                "end_time": 22.902272727272727,
                "pitch": 69,
                "velocity": 40,
                "duration": 0.08409090909091077,
                "tempo": 120.0
            },
            {
                "start_time": 22.918181818181818,
                "end_time": 23.102272727272727,
                "pitch": 70,
                "velocity": 40,
                "duration": 0.18409090909090864,
                "tempo": 120.0
            },
            {
                "start_time": 23.118181818181817,
                "end_time": 23.202272727272724,
                "pitch": 70,
                "velocity": 40,
                "duration": 0.08409090909090722,
                "tempo": 120.0
            },
            {
                "start_time": 23.21818181818182,
                "end_time": 23.302272727272726,
                "pitch": 69,
                "velocity": 40,
                "duration": 0.08409090909090722,
                "tempo": 120.0
            },
            {
                "start_time": 23.318181818181817,
                "end_time": 23.402272727272727,
                "pitch": 70,
                "velocity": 40,
                "duration": 0.08409090909091077,
                "tempo": 120.0
            },
            {
                "start_time": 23.420454545454543,
                "end_time": 23.504545454545454,
                "pitch": 69,
                "velocity": 40,
                "duration": 0.08409090909091077,
                "tempo": 120.0
            },
            {
                "start_time": 23.520454545454545,
                "end_time": 23.704545454545453,
                "pitch": 70,
                "velocity": 40,
                "duration": 0.18409090909090864,
                "tempo": 120.0
            },
            {
                "start_time": 23.720454545454544,
                "end_time": 23.804545454545455,
                "pitch": 70,
                "velocity": 40,
                "duration": 0.08409090909091077,
                "tempo": 120.0
            },
            {
                "start_time": 23.820454545454545,
                "end_time": 23.904545454545453,
                "pitch": 69,
                "velocity": 40,
                "duration": 0.08409090909090722,
                "tempo": 120.0
            },
            {
                "start_time": 23.920454545454543,
                "end_time": 24.004545454545454,
                "pitch": 70,
                "velocity": 40,
                "duration": 0.08409090909091077,
                "tempo": 120.0
            },
            {
                "start_time": 24.020454545454545,
                "end_time": 24.104545454545452,
                "pitch": 69,
                "velocity": 40,
                "duration": 0.08409090909090722,
                "tempo": 120.0
            },
            {
                "start_time": 24.12272727272727,
                "end_time": 24.30681818181818,
                "pitch": 70,
                "velocity": 40,
                "duration": 0.18409090909090864,
                "tempo": 120.0
            },
            {
                "start_time": 24.32272727272727,
                "end_time": 24.40681818181818,
                "pitch": 70,
                "velocity": 40,
                "duration": 0.08409090909091077,
                "tempo": 120.0
            },
            {
                "start_time": 24.422727272727272,
                "end_time": 24.50681818181818,
                "pitch": 69,
                "velocity": 40,
                "duration": 0.08409090909090722,
                "tempo": 120.0
            },
            {
                "start_time": 24.525,
                "end_time": 24.60681818181818,
                "pitch": 70,
                "velocity": 40,
                "duration": 0.08181818181818201,
                "tempo": 120.0
            },
            {
                "start_time": 24.625,
                "end_time": 24.706818181818182,
                "pitch": 69,
                "velocity": 40,
                "duration": 0.08181818181818201,
                "tempo": 120.0
            },
            {
                "start_time": 24.724999999999998,
                "end_time": 24.90681818181818,
                "pitch": 70,
                "velocity": 40,
                "duration": 0.18181818181818343,
                "tempo": 120.0
            },
            {
                "start_time": 24.924999999999997,
                "end_time": 25.00681818181818,
                "pitch": 70,
                "velocity": 40,
                "duration": 0.08181818181818201,
                "tempo": 120.0
            },
            {
                "start_time": 25.025,
                "end_time": 25.10681818181818,
                "pitch": 69,
                "velocity": 40,
                "duration": 0.08181818181818201,
                "tempo": 120.0
            },
            {
                "start_time": 25.125,
                "end_time": 25.206818181818182,
                "pitch": 70,
                "velocity": 40,
                "duration": 0.08181818181818201,
                "tempo": 120.0
            },
            {
                "start_time": 25.224999999999998,
                "end_time": 25.30681818181818,
                "pitch": 71,
                "velocity": 40,
                "duration": 0.08181818181818201,
                "tempo": 120.0
            },
            {
                "start_time": 25.325,
                "end_time": 25.409090909090907,
                "pitch": 72,
                "velocity": 40,
                "duration": 0.08409090909090722,
                "tempo": 120.0
            },
            {
                "start_time": 25.424999999999997,
                "end_time": 25.509090909090908,
                "pitch": 73,
                "velocity": 40,
                "duration": 0.08409090909091077,
                "tempo": 120.0
            },
            {
                "start_time": 25.525,
                "end_time": 25.60909090909091,
                "pitch": 74,
                "velocity": 40,
                "duration": 0.08409090909091077,
                "tempo": 120.0
            },
            {
                "start_time": 25.627272727272725,
                "end_time": 25.709090909090907,
                "pitch": 75,
                "velocity": 40,
                "duration": 0.08181818181818201,
                "tempo": 120.0
            },
            {
                "start_time": 25.727272727272727,
                "end_time": 29.018181818181816,
                "pitch": 78,
                "velocity": 40,
                "duration": 3.2909090909090892,
                "tempo": 120.0
            },
            {
                "start_time": 29.034090909090907,
                "end_time": 29.118181818181817,
                "pitch": 69,
                "velocity": 40,
                "duration": 0.08409090909091077,
                "tempo": 120.0
            },
            {
                "start_time": 29.134090909090908,
                "end_time": 29.218181818181815,
                "pitch": 70,
                "velocity": 40,
                "duration": 0.08409090909090722,
                "tempo": 120.0
            },
            {
                "start_time": 29.23409090909091,
                "end_time": 29.318181818181817,
                "pitch": 69,
                "velocity": 40,
                "duration": 0.08409090909090722,
                "tempo": 120.0
            },
            {
                "start_time": 29.334090909090907,
                "end_time": 29.520454545454545,
                "pitch": 70,
                "velocity": 40,
                "duration": 0.1863636363636374,
                "tempo": 120.0
            },
            {
                "start_time": 29.536363636363635,
                "end_time": 29.620454545454542,
                "pitch": 70,
                "velocity": 40,
                "duration": 0.08409090909090722,
                "tempo": 120.0
            },
            {
                "start_time": 29.636363636363637,
                "end_time": 29.720454545454544,
                "pitch": 69,
                "velocity": 40,
                "duration": 0.08409090909090722,
                "tempo": 120.0
            },
            {
                "start_time": 29.738636363636363,
                "end_time": 29.820454545454545,
                "pitch": 70,
                "velocity": 40,
                "duration": 0.08181818181818201,
                "tempo": 120.0
            },
            {
                "start_time": 29.83863636363636,
                "end_time": 29.920454545454543,
                "pitch": 69,
                "velocity": 40,
                "duration": 0.08181818181818201,
                "tempo": 120.0
            },
            {
                "start_time": 29.938636363636363,
                "end_time": 30.120454545454542,
                "pitch": 70,
                "velocity": 40,
                "duration": 0.18181818181817988,
                "tempo": 120.0
            },
            {
                "start_time": 30.138636363636362,
                "end_time": 30.222727272727273,
                "pitch": 70,
                "velocity": 40,
                "duration": 0.08409090909091077,
                "tempo": 120.0
            },
            {
                "start_time": 30.238636363636363,
                "end_time": 30.32272727272727,
                "pitch": 69,
                "velocity": 40,
                "duration": 0.08409090909090722,
                "tempo": 120.0
            },
            {
                "start_time": 30.33863636363636,
                "end_time": 30.422727272727272,
                "pitch": 70,
                "velocity": 40,
                "duration": 0.08409090909091077,
                "tempo": 120.0
            },
            {
                "start_time": 30.440909090909088,
                "end_time": 30.52272727272727,
                "pitch": 69,
                "velocity": 40,
                "duration": 0.08181818181818201,
                "tempo": 120.0
            },
            {
                "start_time": 30.54090909090909,
                "end_time": 30.722727272727273,
                "pitch": 70,
                "velocity": 40,
                "duration": 0.18181818181818343,
                "tempo": 120.0
            },
            {
                "start_time": 30.74090909090909,
                "end_time": 30.82272727272727,
                "pitch": 70,
                "velocity": 40,
                "duration": 0.08181818181818201,
                "tempo": 120.0
            },
            {
                "start_time": 30.84090909090909,
                "end_time": 30.922727272727272,
                "pitch": 69,
                "velocity": 40,
                "duration": 0.08181818181818201,
                "tempo": 120.0
            },
            {
                "start_time": 30.940909090909088,
                "end_time": 31.02272727272727,
                "pitch": 70,
                "velocity": 40,
                "duration": 0.08181818181818201,
                "tempo": 120.0
            },
            {
                "start_time": 31.04090909090909,
                "end_time": 31.12272727272727,
                "pitch": 69,
                "velocity": 40,
                "duration": 0.08181818181818201,
                "tempo": 120.0
            },
            {
                "start_time": 31.14090909090909,
                "end_time": 31.32272727272727,
                "pitch": 70,
                "velocity": 40,
                "duration": 0.18181818181817988,
                "tempo": 120.0
            },
            {
                "start_time": 31.34090909090909,
                "end_time": 31.424999999999997,
                "pitch": 70,
                "velocity": 40,
                "duration": 0.08409090909090722,
                "tempo": 120.0
            },
            {
                "start_time": 31.440909090909088,
                "end_time": 31.525,
                "pitch": 69,
                "velocity": 40,
                "duration": 0.08409090909091077,
                "tempo": 120.0
            },
            {
                "start_time": 31.54090909090909,
                "end_time": 31.625,
                "pitch": 68,
                "velocity": 40,
                "duration": 0.08409090909091077,
                "tempo": 120.0
            },
            {
                "start_time": 31.643181818181816,
                "end_time": 31.727272727272727,
                "pitch": 67,
                "velocity": 40,
                "duration": 0.08409090909091077,
                "tempo": 120.0
            },
            {
                "start_time": 31.743181818181817,
                "end_time": 31.827272727272724,
                "pitch": 66,
                "velocity": 40,
                "duration": 0.08409090909090722,
                "tempo": 120.0
            },
            {
                "start_time": 31.843181818181815,
                "end_time": 31.927272727272726,
                "pitch": 65,
                "velocity": 40,
                "duration": 0.08409090909091077,
                "tempo": 120.0
            },
            {
                "start_time": 31.943181818181817,
                "end_time": 32.027272727272724,
                "pitch": 64,
                "velocity": 40,
                "duration": 0.08409090909090722,
                "tempo": 120.0
            },
            {
                "start_time": 32.043181818181814,
                "end_time": 32.127272727272725,
                "pitch": 63,
                "velocity": 40,
                "duration": 0.08409090909091077,
                "tempo": 120.0
            }
        ]
    }
}