{
    "track_id": "Megumi Rescue (FM) - 06 - Bonus Stage",
    "mood": "happy",
    "instruments": {
        "Clarinet": [
            {
                "start_time": 0.020454545454545454,
                "end_time": 0.7272727272727273,
                "pitch": 76,
                "velocity": 40,
                "duration": 0.7068181818181818,
                "tempo": 120.0
            },
            {
                "start_time": 0.7613636363636364,
                "end_time": 0.9909090909090909,
                "pitch": 75,
                "velocity": 40,
                "duration": 0.2295454545454545,
                "tempo": 120.0
            },
            {
                "start_time": 1.0227272727272727,
                "end_time": 1.2522727272727272,
                "pitch": 76,
                "velocity": 40,
                "duration": 0.2295454545454545,
                "tempo": 120.0
            },
            {
                "start_time": 1.2863636363636364,
                "end_time": 1.5295454545454545,
                "pitch": 79,
                "velocity": 40,
                "duration": 0.24318181818181817,
                "tempo": 120.0
            },
            {
                "start_time": 1.5636363636363635,
                "end_time": 2.6045454545454545,
                "pitch": 84,
                "velocity": 40,
                "duration": 1.040909090909091,
                "tempo": 120.0
            },
            {
                "start_time": 2.6363636363636362,
                "end_time": 2.8659090909090907,
                "pitch": 83,
                "velocity": 40,
                "duration": 0.2295454545454545,
                "tempo": 120.0
            },
            {
                "start_time": 2.9,
                "end_time": 3.143181818181818,
                "pitch": 84,
                "velocity": 40,
                "duration": 0.24318181818181817,
                "tempo": 120.0
            },
            {
                "start_time": 3.1772727272727272,
                "end_time": 3.4204545454545454,
                "pitch": 86,
                "velocity": 40,
                "duration": 0.24318181818181817,
                "tempo": 120.0
            },
            {
                "start_time": 3.452272727272727,
                "end_time": 3.686363636363636,
                "pitch": 84,
                "velocity": 40,
                "duration": 0.2340909090909089,
                "tempo": 120.0
            },
            {
                "start_time": 3.7204545454545452,
                "end_time": 3.954545454545454,
                "pitch": 83,
                "velocity": 40,
                "duration": 0.2340909090909089,
                "tempo": 120.0
            },
            {
                "start_time": 3.9886363636363633,
                "end_time": 4.220454545454546,
                "pitch": 84,
                "velocity": 40,
                "duration": 0.23181818181818237,
                "tempo": 120.0
            },
            {
                "start_time": 4.254545454545454,
                "end_time": 4.488636363636363,
                "pitch": 76,
                "velocity": 40,
                "duration": 0.23409090909090935,
                "tempo": 120.0
            },
            {
                "start_time": 4.5227272727272725,
                "end_time": 4.761363636363636,
                "pitch": 79,
                "velocity": 40,
                "duration": 0.2386363636363633,
                "tempo": 120.0
            },
            {
                "start_time": 4.795454545454545,
                "end_time": 5.5659090909090905,
                "pitch": 83,
                "velocity": 40,
                "duration": 0.7704545454545455,
                "tempo": 120.0
            },
            {
                "start_time": 5.6,
                "end_time": 6.372727272727272,
                "pitch": 81,
                "velocity": 40,
                "duration": 0.7727272727272725,
                "tempo": 120.0
            },
            {
                "start_time": 6.406818181818181,
                "end_time": 7.179545454545454,
                "pitch": 77,
                "velocity": 40,
                "duration": 0.7727272727272725,
                "tempo": 120.0
            },
            {
                "start_time": 7.213636363636363,
                "end_time": 7.447727272727272,
                "pitch": 76,
                "velocity": 40,
                "duration": 0.23409090909090935,
                "tempo": 120.0
            },
            {
                "start_time": 7.4795454545454545,
                "end_time": 7.713636363636363,
                "pitch": 77,
                "velocity": 40,
                "duration": 0.23409090909090846,
                "tempo": 120.0
            },
            {
                "start_time": 7.747727272727272,
                "end_time": 7.986363636363636,
                "pitch": 79,
                "velocity": 40,
                "duration": 0.2386363636363642,
                "tempo": 120.0
            },
            {
                "start_time": 8.020454545454545,
                "end_time": 9.054545454545455,
                "pitch": 83,
                "velocity": 40,
                "duration": 1.03409090909091,
                "tempo": 120.0
            },
            {
                "start_time": 9.088636363636363,
                "end_time": 9.318181818181818,
                "pitch": 81,
                "velocity": 40,
                "duration": 0.22954545454545539,
                "tempo": 120.0
            },
            {
                "start_time": 9.352272727272727,
                "end_time": 9.593181818181817,
                "pitch": 83,
                "velocity": 40,
                "duration": 0.2409090909090903,
                "tempo": 120.0
            },
            {
                "start_time": 9.627272727272727,
                "end_time": 9.870454545454544,
                "pitch": 84,
                "velocity": 40,
                "duration": 0.24318181818181728,
                "tempo": 120.0
            },
            {
                "start_time": 9.904545454545454,
                "end_time": 10.122727272727273,
                "pitch": 83,
                "velocity": 40,
                "duration": 0.2181818181818187,
                "tempo": 120.0
            },
            {
                "start_time": 10.138636363636364,
                "end_time": 10.404545454545454,
                "pitch": 81,
                "velocity": 40,
                "duration": 0.26590909090909065,
                "tempo": 120.0
            },
            {
                "start_time": 10.438636363636363,
                "end_time": 10.672727272727272,
                "pitch": 83,
                "velocity": 40,
                "duration": 0.23409090909090935,
                "tempo": 120.0
            },
            {
                "start_time": 10.706818181818182,
                "end_time": 10.94090909090909,
                "pitch": 74,
                "velocity": 40,
                "duration": 0.23409090909090757,
                "tempo": 120.0
            },
            {
                "start_time": 10.972727272727273,
                "end_time": 11.211363636363636,
                "pitch": 77,
                "velocity": 40,
                "duration": 0.2386363636363633,
                "tempo": 120.0
            },
            {
                "start_time": 11.245454545454544,
                "end_time": 12.018181818181818,
                "pitch": 81,
                "velocity": 40,
                "duration": 0.7727272727272734,
                "tempo": 120.0
            },
            {
                "start_time": 12.052272727272726,
                "end_time": 12.825,
                "pitch": 79,
                "velocity": 40,
                "duration": 0.7727272727272734,
                "tempo": 120.0
            },
            {
                "start_time": 12.85909090909091,
                "end_time": 13.363636363636363,
                "pitch": 79,
                "velocity": 40,
                "duration": 0.504545454545454,
                "tempo": 120.0
            },
            {
                "start_time": 13.397727272727272,
                "end_time": 13.631818181818181,
                "pitch": 76,
                "velocity": 40,
                "duration": 0.23409090909090935,
                "tempo": 120.0
            },
            {
                "start_time": 13.663636363636362,
                "end_time": 13.897727272727272,
                "pitch": 75,
                "velocity": 40,
                "duration": 0.23409090909090935,
                "tempo": 120.0
            },
            {
                "start_time": 13.931818181818182,
                "end_time": 14.165909090909091,
                "pitch": 75,
                "velocity": 40,
                "duration": 0.23409090909090935,
                "tempo": 120.0
            },
            {
                "start_time": 14.2,
                "end_time": 14.436363636363636,
                "pitch": 79,
                "velocity": 40,
                "duration": 0.23636363636363633,
                "tempo": 120.0
            },
            {
                "start_time": 14.470454545454544,
                "end_time": 15.506818181818181,
                "pitch": 84,
                "velocity": 40,
                "duration": 1.036363636363637,
                "tempo": 120.0
            },
            {
                "start_time": 15.538636363636362,
                "end_time": 15.768181818181818,
                "pitch": 83,
                "velocity": 40,
                "duration": 0.22954545454545539,
                "tempo": 120.0
            },
            {
                "start_time": 15.802272727272726,
                "end_time": 16.045454545454543,
                "pitch": 84,
                "velocity": 40,
                "duration": 0.24318181818181728,
                "tempo": 120.0
            },
            {
                "start_time": 16.079545454545453,
                "end_time": 16.32272727272727,
                "pitch": 86,
                "velocity": 40,
                "duration": 0.24318181818181728,
                "tempo": 120.0
            },
            {
                "start_time": 16.35681818181818,
                "end_time": 16.58863636363636,
                "pitch": 84,
                "velocity": 40,
                "duration": 0.2318181818181806,
                "tempo": 120.0
            },
            {
                "start_time": 16.62272727272727,
                "end_time": 16.85681818181818,
                "pitch": 83,
                "velocity": 40,
                "duration": 0.23409090909090935,
                "tempo": 120.0
            },
            {
                "start_time": 16.89090909090909,
                "end_time": 17.125,
                "pitch": 84,
                "velocity": 40,
                "duration": 0.23409090909090935,
                "tempo": 120.0
            },
            {
                "start_time": 17.15681818181818,
                "end_time": 17.39090909090909,
                "pitch": 77,
                "velocity": 40,
                "duration": 0.23409090909090935,
                "tempo": 120.0
            },
            {
                "start_time": 17.425,
                "end_time": 17.663636363636364,
                "pitch": 81,
                "velocity": 40,
                "duration": 0.2386363636363633,
                "tempo": 120.0
            },
            {
                "start_time": 17.69772727272727,
                "end_time": 18.470454545454544,
                "pitch": 82,
                "velocity": 40,
                "duration": 0.7727272727272734,
                "tempo": 120.0
            },
            {
                "start_time": 18.502272727272725,
                "end_time": 19.270454545454545,
                "pitch": 80,
                "velocity": 40,
                "duration": 0.7681818181818194,
                "tempo": 120.0
            },
            {
                "start_time": 19.304545454545455,
                "end_time": 20.345454545454544,
                "pitch": 79,
                "velocity": 40,
                "duration": 1.0409090909090892,
                "tempo": 120.0
            },
            {
                "start_time": 20.377272727272725,
                "end_time": 20.60681818181818,
                "pitch": 78,
                "velocity": 40,
                "duration": 0.22954545454545539,
                "tempo": 120.0
            },
            {
                "start_time": 20.64090909090909,
                "end_time": 20.884090909090908,
                "pitch": 79,
                "velocity": 40,
                "duration": 0.24318181818181728,
                "tempo": 120.0
            },
            {
                "start_time": 20.918181818181818,
                "end_time": 21.161363636363635,
                "pitch": 76,
                "velocity": 40,
                "duration": 0.24318181818181728,
                "tempo": 120.0
            },
            {
                "start_time": 21.195454545454545,
                "end_time": 21.427272727272726,
                "pitch": 79,
                "velocity": 40,
                "duration": 0.2318181818181806,
                "tempo": 120.0
            },
            {
                "start_time": 21.461363636363636,
                "end_time": 21.695454545454545,
                "pitch": 83,
                "velocity": 40,
                "duration": 0.23409090909090935,
                "tempo": 120.0
            },
            {
                "start_time": 21.729545454545452,
                "end_time": 21.96363636363636,
                "pitch": 86,
                "velocity": 40,
                "duration": 0.23409090909090935,
                "tempo": 120.0
            },
            {
                "start_time": 21.995454545454546,
                "end_time": 22.229545454545452,
                "pitch": 84,
                "velocity": 40,
                "duration": 0.2340909090909058,
                "tempo": 120.0
            },
            {
                "start_time": 22.263636363636362,
                "end_time": 22.502272727272725,
                "pitch": 83,
                "velocity": 40,
                "duration": 0.2386363636363633,
                "tempo": 120.0
            },
            {
                "start_time": 22.536363636363635,
                "end_time": 22.772727272727273,
                "pitch": 81,
                "velocity": 40,
                "duration": 0.2363636363636381,
                "tempo": 120.0
            },
            {
                "start_time": 22.80681818181818,
                "end_time": 23.04090909090909,
                "pitch": 79,
                "velocity": 40,
                "duration": 0.23409090909090935,
                "tempo": 120.0
            },
            {
                "start_time": 23.075,
                "end_time": 23.30909090909091,
                "pitch": 81,
                "velocity": 40,
                "duration": 0.23409090909090935,
                "tempo": 120.0
            },
            {
                "start_time": 23.34090909090909,
                "end_time": 23.575,
                "pitch": 83,
                "velocity": 40,
                "duration": 0.23409090909090935,
                "tempo": 120.0
            },
            {
                "start_time": 23.60909090909091,
                "end_time": 23.84318181818182,
                "pitch": 76,
                "velocity": 40,
                "duration": 0.23409090909090935,
                "tempo": 120.0
            },
            {
                "start_time": 23.877272727272725,
                "end_time": 24.113636363636363,
                "pitch": 79,
                "velocity": 40,
                "duration": 0.2363636363636381,
                "tempo": 120.0
            },
            {
                "start_time": 24.14772727272727,
                "end_time": 24.386363636363637,
                "pitch": 84,
                "velocity": 40,
                "duration": 0.23863636363636687,
                "tempo": 120.0
            },
            {
                "start_time": 24.420454545454543,
                "end_time": 24.654545454545453,
                "pitch": 79,
                "velocity": 40,
                "duration": 0.23409090909090935,
                "tempo": 120.0
            },
            {
                "start_time": 24.686363636363634,
                "end_time": 24.920454545454543,
                "pitch": 76,
                "velocity": 40,
                "duration": 0.23409090909090935,
                "tempo": 120.0
            },
            {
                "start_time": 24.954545454545453,
                "end_time": 25.18409090909091,
                "pitch": 72,
                "velocity": 40,
                "duration": 0.22954545454545539,
                "tempo": 120.0
            }
        ],
        "Acoustic Bass": [
            {
                "start_time": 0.006818181818181818,
                "end_time": 0.18409090909090908,
                "pitch": 48,
                "velocity": 64,
                "duration": 0.17727272727272728,
                "tempo": 120.0
            },
            {
                "start_time": 0.19545454545454544,
                "end_time": 0.44545454545454544,
                "pitch": 55,
                "velocity": 64,
                "duration": 0.25,
                "tempo": 120.0
            },
            {
                "start_time": 0.46136363636363636,
                "end_time": 0.7113636363636363,
                "pitch": 55,
                "velocity": 64,
                "duration": 0.24999999999999994,
                "tempo": 120.0
            },
            {
                "start_time": 0.7272727272727273,
                "end_time": 0.975,
                "pitch": 43,
                "velocity": 64,
                "duration": 0.24772727272727268,
                "tempo": 120.0
            },
            {
                "start_time": 0.9909090909090909,
                "end_time": 1.2363636363636363,
                "pitch": 55,
                "velocity": 64,
                "duration": 0.24545454545454548,
                "tempo": 120.0
            },
            {
                "start_time": 1.2522727272727272,
                "end_time": 1.5113636363636362,
                "pitch": 55,
                "velocity": 64,
                "duration": 0.25909090909090904,
                "tempo": 120.0
            },
            {
                "start_time": 1.5295454545454545,
                "end_time": 1.7886363636363636,
                "pitch": 48,
                "velocity": 64,
                "duration": 0.25909090909090904,
                "tempo": 120.0
            },
            {
                "start_time": 1.8068181818181817,
                "end_time": 2.0568181818181817,
                "pitch": 55,
                "velocity": 64,
                "duration": 0.25,
                "tempo": 120.0
            },
            {
                "start_time": 2.0749999999999997,
                "end_time": 2.3249999999999997,
                "pitch": 55,
                "velocity": 64,
                "duration": 0.25,
                "tempo": 120.0
            },
            {
                "start_time": 2.340909090909091,
                "end_time": 2.5863636363636364,
                "pitch": 43,
                "velocity": 64,
                "duration": 0.2454545454545456,
                "tempo": 120.0
            },
            {
                "start_time": 2.6045454545454545,
                "end_time": 2.8499999999999996,
                "pitch": 55,
                "velocity": 64,
                "duration": 0.24545454545454515,
                "tempo": 120.0
            },
            {
                "start_time": 2.8659090909090907,
                "end_time": 3.125,
                "pitch": 55,
                "velocity": 64,
                "duration": 0.25909090909090926,
                "tempo": 120.0
            },
            {
                "start_time": 3.143181818181818,
                "end_time": 3.402272727272727,
                "pitch": 48,
                "velocity": 64,
                "duration": 0.2590909090909088,
                "tempo": 120.0
            },
            {
                "start_time": 3.4204545454545454,
                "end_time": 3.6704545454545454,
                "pitch": 55,
                "velocity": 64,
                "duration": 0.25,
                "tempo": 120.0
            },
            {
                "start_time": 3.686363636363636,
                "end_time": 3.9386363636363635,
                "pitch": 55,
                "velocity": 64,
                "duration": 0.2522727272727274,
                "tempo": 120.0
            },
            {
                "start_time": 3.954545454545454,
                "end_time": 4.204545454545454,
                "pitch": 43,
                "velocity": 64,
                "duration": 0.25,
                "tempo": 120.0
            },
            {
                "start_time": 4.220454545454546,
                "end_time": 4.472727272727273,
                "pitch": 55,
                "velocity": 64,
                "duration": 0.252272727272727,
                "tempo": 120.0
            },
            {
                "start_time": 4.488636363636363,
                "end_time": 4.743181818181818,
                "pitch": 55,
                "velocity": 64,
                "duration": 0.25454545454545485,
                "tempo": 120.0
            },
            {
                "start_time": 4.761363636363636,
                "end_time": 5.015909090909091,
                "pitch": 50,
                "velocity": 64,
                "duration": 0.25454545454545485,
                "tempo": 120.0
            },
            {
                "start_time": 5.031818181818181,
                "end_time": 5.284090909090909,
                "pitch": 55,
                "velocity": 64,
                "duration": 0.25227272727272787,
                "tempo": 120.0
            },
            {
                "start_time": 5.3,
                "end_time": 5.55,
                "pitch": 55,
                "velocity": 64,
                "duration": 0.25,
                "tempo": 120.0
            },
            {
                "start_time": 5.5659090909090905,
                "end_time": 5.818181818181818,
                "pitch": 43,
                "velocity": 64,
                "duration": 0.25227272727272787,
                "tempo": 120.0
            },
            {
                "start_time": 5.834090909090909,
                "end_time": 6.084090909090909,
                "pitch": 55,
                "velocity": 64,
                "duration": 0.25,
                "tempo": 120.0
            },
            {
                "start_time": 6.102272727272727,
                "end_time": 6.3568181818181815,
                "pitch": 55,
                "velocity": 64,
                "duration": 0.25454545454545485,
                "tempo": 120.0
            },
            {
                "start_time": 6.372727272727272,
                "end_time": 6.627272727272727,
                "pitch": 50,
                "velocity": 64,
                "duration": 0.25454545454545485,
                "tempo": 120.0
            },
            {
                "start_time": 6.6454545454545455,
                "end_time": 6.8954545454545455,
                "pitch": 55,
                "velocity": 64,
                "duration": 0.25,
                "tempo": 120.0
            },
            {
                "start_time": 6.913636363636363,
                "end_time": 7.163636363636363,
                "pitch": 55,
                "velocity": 64,
                "duration": 0.25,
                "tempo": 120.0
            },
            {
                "start_time": 7.179545454545454,
                "end_time": 7.429545454545454,
                "pitch": 43,
                "velocity": 64,
                "duration": 0.25,
                "tempo": 120.0
            },
            {
                "start_time": 7.447727272727272,
                "end_time": 7.697727272727272,
                "pitch": 55,
                "velocity": 64,
                "duration": 0.25,
                "tempo": 120.0
            },
            {
                "start_time": 7.713636363636363,
                "end_time": 7.968181818181818,
                "pitch": 55,
                "velocity": 64,
                "duration": 0.25454545454545485,
                "tempo": 120.0
            },
            {
                "start_time": 7.986363636363636,
                "end_time": 8.24090909090909,
                "pitch": 50,
                "velocity": 64,
                "duration": 0.25454545454545396,
                "tempo": 120.0
            },
            {
                "start_time": 8.256818181818181,
                "end_time": 8.509090909090908,
                "pitch": 55,
                "velocity": 64,
                "duration": 0.252272727272727,
                "tempo": 120.0
            },
            {
                "start_time": 8.525,
                "end_time": 8.775,
                "pitch": 55,
                "velocity": 64,
                "duration": 0.25,
                "tempo": 120.0
            },
            {
                "start_time": 8.793181818181818,
                "end_time": 9.038636363636364,
                "pitch": 43,
                "velocity": 64,
                "duration": 0.24545454545454604,
                "tempo": 120.0
            },
            {
                "start_time": 9.054545454545455,
                "end_time": 9.299999999999999,
                "pitch": 55,
                "velocity": 64,
                "duration": 0.24545454545454426,
                "tempo": 120.0
            },
            {
                "start_time": 9.318181818181818,
                "end_time": 9.577272727272726,
                "pitch": 55,
                "velocity": 64,
                "duration": 0.25909090909090793,
                "tempo": 120.0
            },
            {
                "start_time": 9.593181818181817,
                "end_time": 9.854545454545454,
                "pitch": 50,
                "velocity": 64,
                "duration": 0.2613636363636367,
                "tempo": 120.0
            },
            {
                "start_time": 9.870454545454544,
                "end_time": 10.122727272727273,
                "pitch": 55,
                "velocity": 64,
                "duration": 0.25227272727272876,
                "tempo": 120.0
            },
            {
                "start_time": 10.138636363636364,
                "end_time": 10.388636363636364,
                "pitch": 55,
                "velocity": 64,
                "duration": 0.25,
                "tempo": 120.0
            },
            {
                "start_time": 10.404545454545454,
                "end_time": 10.656818181818181,
                "pitch": 43,
                "velocity": 64,
                "duration": 0.252272727272727,
                "tempo": 120.0
            },
            {
                "start_time": 10.672727272727272,
                "end_time": 10.922727272727272,
                "pitch": 55,
                "velocity": 64,
                "duration": 0.25,
                "tempo": 120.0
            },
            {
                "start_time": 10.94090909090909,
                "end_time": 11.195454545454545,
                "pitch": 55,
                "velocity": 64,
                "duration": 0.25454545454545574,
                "tempo": 120.0
            },
            {
                "start_time": 11.211363636363636,
                "end_time": 11.46590909090909,
                "pitch": 48,
                "velocity": 64,
                "duration": 0.25454545454545396,
                "tempo": 120.0
            },
            {
                "start_time": 11.48409090909091,
                "end_time": 11.73409090909091,
                "pitch": 55,
                "velocity": 64,
                "duration": 0.25,
                "tempo": 120.0
            },
            {
                "start_time": 11.75,
                "end_time": 12.002272727272727,
                "pitch": 55,
                "velocity": 64,
                "duration": 0.252272727272727,
                "tempo": 120.0
            },
            {
                "start_time": 12.018181818181818,
                "end_time": 12.268181818181818,
                "pitch": 48,
                "velocity": 64,
                "duration": 0.25,
                "tempo": 120.0
            },
            {
                "start_time": 12.286363636363635,
                "end_time": 12.536363636363635,
                "pitch": 59,
                "velocity": 64,
                "duration": 0.25,
                "tempo": 120.0
            },
            {
                "start_time": 12.552272727272726,
                "end_time": 12.806818181818182,
                "pitch": 57,
                "velocity": 64,
                "duration": 0.25454545454545574,
                "tempo": 120.0
            },
            {
                "start_time": 12.825,
                "end_time": 13.079545454545453,
                "pitch": 48,
                "velocity": 64,
                "duration": 0.25454545454545396,
                "tempo": 120.0
            },
            {
                "start_time": 13.095454545454546,
                "end_time": 13.347727272727273,
                "pitch": 55,
                "velocity": 64,
                "duration": 0.252272727272727,
                "tempo": 120.0
            },
            {
                "start_time": 13.363636363636363,
                "end_time": 13.613636363636363,
                "pitch": 55,
                "velocity": 64,
                "duration": 0.25,
                "tempo": 120.0
            },
            {
                "start_time": 13.631818181818181,
                "end_time": 13.881818181818181,
                "pitch": 43,
                "velocity": 64,
                "duration": 0.25,
                "tempo": 120.0
            },
            {
                "start_time": 13.897727272727272,
                "end_time": 14.147727272727272,
                "pitch": 55,
                "velocity": 64,
                "duration": 0.25,
                "tempo": 120.0
            },
            {
                "start_time": 14.165909090909091,
                "end_time": 14.420454545454545,
                "pitch": 55,
                "velocity": 64,
                "duration": 0.25454545454545396,
                "tempo": 120.0
            },
            {
                "start_time": 14.436363636363636,
                "end_time": 14.693181818181818,
                "pitch": 48,
                "velocity": 64,
                "duration": 0.2568181818181827,
                "tempo": 120.0
            },
            {
                "start_time": 14.709090909090909,
                "end_time": 14.959090909090909,
                "pitch": 55,
                "velocity": 64,
                "duration": 0.25,
                "tempo": 120.0
            },
            {
                "start_time": 14.977272727272727,
                "end_time": 15.227272727272727,
                "pitch": 55,
                "velocity": 64,
                "duration": 0.25,
                "tempo": 120.0
            },
            {
                "start_time": 15.243181818181817,
                "end_time": 15.488636363636363,
                "pitch": 43,
                "velocity": 64,
                "duration": 0.24545454545454604,
                "tempo": 120.0
            },
            {
                "start_time": 15.506818181818181,
                "end_time": 15.752272727272727,
                "pitch": 55,
                "velocity": 64,
                "duration": 0.24545454545454604,
                "tempo": 120.0
            },
            {
                "start_time": 15.768181818181818,
                "end_time": 16.027272727272727,
                "pitch": 55,
                "velocity": 64,
                "duration": 0.2590909090909097,
                "tempo": 120.0
            },
            {
                "start_time": 16.045454545454543,
                "end_time": 16.304545454545455,
                "pitch": 48,
                "velocity": 64,
                "duration": 0.2590909090909115,
                "tempo": 120.0
            },
            {
                "start_time": 16.32272727272727,
                "end_time": 16.57272727272727,
                "pitch": 55,
                "velocity": 64,
                "duration": 0.25,
                "tempo": 120.0
            },
            {
                "start_time": 16.58863636363636,
                "end_time": 16.84090909090909,
                "pitch": 55,
                "velocity": 64,
                "duration": 0.25227272727272876,
                "tempo": 120.0
            },
            {
                "start_time": 16.85681818181818,
                "end_time": 17.10681818181818,
                "pitch": 43,
                "velocity": 64,
                "duration": 0.25,
                "tempo": 120.0
            },
            {
                "start_time": 17.125,
                "end_time": 17.375,
                "pitch": 55,
                "velocity": 64,
                "duration": 0.25,
                "tempo": 120.0
            },
            {
                "start_time": 17.39090909090909,
                "end_time": 17.645454545454545,
                "pitch": 55,
                "velocity": 64,
                "duration": 0.25454545454545396,
                "tempo": 120.0
            },
            {
                "start_time": 17.663636363636364,
                "end_time": 17.918181818181818,
                "pitch": 44,
                "velocity": 64,
                "duration": 0.25454545454545396,
                "tempo": 120.0
            },
            {
                "start_time": 17.93409090909091,
                "end_time": 18.186363636363634,
                "pitch": 51,
                "velocity": 64,
                "duration": 0.2522727272727252,
                "tempo": 120.0
            },
            {
                "start_time": 18.202272727272728,
                "end_time": 18.452272727272728,
                "pitch": 51,
                "velocity": 64,
                "duration": 0.25,
                "tempo": 120.0
            },
            {
                "start_time": 18.470454545454544,
                "end_time": 18.71590909090909,
                "pitch": 44,
                "velocity": 64,
                "duration": 0.24545454545454604,
                "tempo": 120.0
            },
            {
                "start_time": 18.73181818181818,
                "end_time": 18.977272727272727,
                "pitch": 51,
                "velocity": 64,
                "duration": 0.24545454545454604,
                "tempo": 120.0
            },
            {
                "start_time": 18.995454545454546,
                "end_time": 19.252272727272725,
                "pitch": 51,
                "velocity": 64,
                "duration": 0.25681818181817917,
                "tempo": 120.0
            },
            {
                "start_time": 19.270454545454545,
                "end_time": 19.529545454545453,
                "pitch": 43,
                "velocity": 64,
                "duration": 0.25909090909090793,
                "tempo": 120.0
            },
            {
                "start_time": 19.547727272727272,
                "end_time": 19.797727272727272,
                "pitch": 50,
                "velocity": 64,
                "duration": 0.25,
                "tempo": 120.0
            },
            {
                "start_time": 19.81590909090909,
                "end_time": 20.06590909090909,
                "pitch": 50,
                "velocity": 64,
                "duration": 0.25,
                "tempo": 120.0
            },
            {
                "start_time": 20.081818181818182,
                "end_time": 20.329545454545453,
                "pitch": 43,
                "velocity": 64,
                "duration": 0.24772727272727124,
                "tempo": 120.0
            },
            {
                "start_time": 20.345454545454544,
                "end_time": 20.59090909090909,
                "pitch": 55,
                "velocity": 64,
                "duration": 0.24545454545454604,
                "tempo": 120.0
            },
            {
                "start_time": 20.60681818181818,
                "end_time": 20.86590909090909,
                "pitch": 55,
                "velocity": 64,
                "duration": 0.25909090909090793,
                "tempo": 120.0
            },
            {
                "start_time": 20.884090909090908,
                "end_time": 21.143181818181816,
                "pitch": 48,
                "velocity": 64,
                "duration": 0.25909090909090793,
                "tempo": 120.0
            },
            {
                "start_time": 21.161363636363635,
                "end_time": 21.411363636363635,
                "pitch": 55,
                "velocity": 64,
                "duration": 0.25,
                "tempo": 120.0
            },
            {
                "start_time": 21.427272727272726,
                "end_time": 21.679545454545455,
                "pitch": 55,
                "velocity": 64,
                "duration": 0.25227272727272876,
                "tempo": 120.0
            },
            {
                "start_time": 21.695454545454545,
                "end_time": 21.945454545454545,
                "pitch": 43,
                "velocity": 64,
                "duration": 0.25,
                "tempo": 120.0
            },
            {
                "start_time": 21.96363636363636,
                "end_time": 22.21363636363636,
                "pitch": 55,
                "velocity": 64,
                "duration": 0.25,
                "tempo": 120.0
            },
            {
                "start_time": 22.229545454545452,
                "end_time": 22.48409090909091,
                "pitch": 55,
                "velocity": 64,
                "duration": 0.2545454545454575,
                "tempo": 120.0
            },
            {
                "start_time": 22.502272727272725,
                "end_time": 22.75681818181818,
                "pitch": 41,
                "velocity": 64,
                "duration": 0.25454545454545396,
                "tempo": 120.0
            },
            {
                "start_time": 22.772727272727273,
                "end_time": 23.025,
                "pitch": 50,
                "velocity": 64,
                "duration": 0.2522727272727252,
                "tempo": 120.0
            },
            {
                "start_time": 23.04090909090909,
                "end_time": 23.29090909090909,
                "pitch": 50,
                "velocity": 64,
                "duration": 0.25,
                "tempo": 120.0
            },
            {
                "start_time": 23.30909090909091,
                "end_time": 23.55909090909091,
                "pitch": 43,
                "velocity": 64,
                "duration": 0.25,
                "tempo": 120.0
            },
            {
                "start_time": 23.575,
                "end_time": 23.825,
                "pitch": 53,
                "velocity": 64,
                "duration": 0.25,
                "tempo": 120.0
            },
            {
                "start_time": 23.84318181818182,
                "end_time": 24.097727272727273,
                "pitch": 55,
                "velocity": 64,
                "duration": 0.25454545454545396,
                "tempo": 120.0
            },
            {
                "start_time": 24.113636363636363,
                "end_time": 24.370454545454546,
                "pitch": 48,
                "velocity": 64,
                "duration": 0.2568181818181827,
                "tempo": 120.0
            },
            {
                "start_time": 24.386363636363637,
                "end_time": 24.636363636363637,
                "pitch": 55,
                "velocity": 64,
                "duration": 0.25,
                "tempo": 120.0
            },
            {
                "start_time": 24.654545454545453,
                "end_time": 24.904545454545453,
                "pitch": 59,
                "velocity": 64,
                "duration": 0.25,
                "tempo": 120.0
            },
            {
                "start_time": 24.920454545454543,
                "end_time": 25.16590909090909,
                "pitch": 65,
                "velocity": 64,
                "duration": 0.24545454545454604,
                "tempo": 120.0
            },
            {
                "start_time": 25.18409090909091,
                "end_time": 25.429545454545455,
                "pitch": 64,
                "velocity": 64,
                "duration": 0.24545454545454604,
                "tempo": 120.0
            }
        ]
    }
}