{
    "track_id": "Miracle Warriors - Seal of the Dark Lord (FM) - 05 - Town",
    "mood": "happy",
    "instruments": {
        "Electric Guitar (clean)": [
            {
                "start_time": 0.39999999999999997,
                "end_time": 0.5795454545454545,
                "pitch": 59,
                "velocity": 25,
                "duration": 0.1795454545454545,
                "tempo": 120.0
            },
            {
                "start_time": 0.5954545454545455,
                "end_time": 0.7749999999999999,
                "pitch": 71,
                "velocity": 25,
                "duration": 0.17954545454545445,
                "tempo": 120.0
            },
            {
                "start_time": 0.7931818181818181,
                "end_time": 0.9727272727272727,
                "pitch": 66,
                "velocity": 25,
                "duration": 0.17954545454545456,
                "tempo": 120.0
            },
            {
                "start_time": 0.9886363636363635,
                "end_time": 1.3727272727272726,
                "pitch": 69,
                "velocity": 25,
                "duration": 0.38409090909090904,
                "tempo": 120.0
            },
            {
                "start_time": 1.3909090909090909,
                "end_time": 1.5772727272727272,
                "pitch": 68,
                "velocity": 25,
                "duration": 0.1863636363636363,
                "tempo": 120.0
            },
            {
                "start_time": 1.5954545454545455,
                "end_time": 1.7795454545454545,
                "pitch": 66,
                "velocity": 25,
                "duration": 0.18409090909090908,
                "tempo": 120.0
            },
            {
                "start_time": 1.7977272727272726,
                "end_time": 1.9818181818181817,
                "pitch": 64,
                "velocity": 25,
                "duration": 0.18409090909090908,
                "tempo": 120.0
            },
            {
                "start_time": 1.9977272727272726,
                "end_time": 2.1818181818181817,
                "pitch": 63,
                "velocity": 25,
                "duration": 0.18409090909090908,
                "tempo": 120.0
            },
            {
                "start_time": 2.1977272727272728,
                "end_time": 2.381818181818182,
                "pitch": 64,
                "velocity": 25,
                "duration": 0.18409090909090908,
                "tempo": 120.0
            },
            {
                "start_time": 2.3977272727272725,
                "end_time": 2.577272727272727,
                "pitch": 66,
                "velocity": 25,
                "duration": 0.17954545454545467,
                "tempo": 120.0
            },
            {
                "start_time": 2.5931818181818183,
                "end_time": 2.977272727272727,
                "pitch": 59,
                "velocity": 25,
                "duration": 0.3840909090909088,
                "tempo": 120.0
            },
            {
                "start_time": 2.995454545454545,
                "end_time": 3.184090909090909,
                "pitch": 63,
                "velocity": 25,
                "duration": 0.18863636363636394,
                "tempo": 120.0
            },
            {
                "start_time": 3.1999999999999997,
                "end_time": 3.3863636363636362,
                "pitch": 64,
                "velocity": 25,
                "duration": 0.1863636363636365,
                "tempo": 120.0
            },
            {
                "start_time": 3.402272727272727,
                "end_time": 3.586363636363636,
                "pitch": 66,
                "velocity": 25,
                "duration": 0.18409090909090908,
                "tempo": 120.0
            },
            {
                "start_time": 3.6045454545454545,
                "end_time": 3.786363636363636,
                "pitch": 64,
                "velocity": 25,
                "duration": 0.18181818181818166,
                "tempo": 120.0
            },
            {
                "start_time": 3.8045454545454542,
                "end_time": 3.9863636363636363,
                "pitch": 76,
                "velocity": 25,
                "duration": 0.1818181818181821,
                "tempo": 120.0
            },
            {
                "start_time": 4.002272727272727,
                "end_time": 4.184090909090909,
                "pitch": 71,
                "velocity": 25,
                "duration": 0.18181818181818166,
                "tempo": 120.0
            },
            {
                "start_time": 4.2,
                "end_time": 4.584090909090909,
                "pitch": 74,
                "velocity": 25,
                "duration": 0.3840909090909088,
                "tempo": 120.0
            },
            {
                "start_time": 4.6,
                "end_time": 4.788636363636363,
                "pitch": 73,
                "velocity": 25,
                "duration": 0.1886363636363635,
                "tempo": 120.0
            },
            {
                "start_time": 4.806818181818182,
                "end_time": 4.99090909090909,
                "pitch": 71,
                "velocity": 25,
                "duration": 0.18409090909090864,
                "tempo": 120.0
            },
            {
                "start_time": 5.006818181818182,
                "end_time": 5.1909090909090905,
                "pitch": 69,
                "velocity": 25,
                "duration": 0.18409090909090864,
                "tempo": 120.0
            },
            {
                "start_time": 5.206818181818181,
                "end_time": 5.390909090909091,
                "pitch": 68,
                "velocity": 25,
                "duration": 0.18409090909090953,
                "tempo": 120.0
            },
            {
                "start_time": 5.406818181818181,
                "end_time": 5.593181818181818,
                "pitch": 69,
                "velocity": 25,
                "duration": 0.1863636363636365,
                "tempo": 120.0
            },
            {
                "start_time": 5.6090909090909085,
                "end_time": 5.788636363636363,
                "pitch": 71,
                "velocity": 25,
                "duration": 0.17954545454545467,
                "tempo": 120.0
            },
            {
                "start_time": 5.804545454545455,
                "end_time": 6.1886363636363635,
                "pitch": 64,
                "velocity": 25,
                "duration": 0.3840909090909088,
                "tempo": 120.0
            },
            {
                "start_time": 6.206818181818181,
                "end_time": 6.3954545454545455,
                "pitch": 68,
                "velocity": 25,
                "duration": 0.18863636363636438,
                "tempo": 120.0
            },
            {
                "start_time": 6.411363636363636,
                "end_time": 6.595454545454545,
                "pitch": 69,
                "velocity": 25,
                "duration": 0.18409090909090864,
                "tempo": 120.0
            },
            {
                "start_time": 6.613636363636363,
                "end_time": 6.797727272727273,
                "pitch": 71,
                "velocity": 25,
                "duration": 0.18409090909090953,
                "tempo": 120.0
            },
            {
                "start_time": 6.8136363636363635,
                "end_time": 6.997727272727272,
                "pitch": 59,
                "velocity": 25,
                "duration": 0.18409090909090864,
                "tempo": 120.0
            },
            {
                "start_time": 7.013636363636364,
                "end_time": 7.197727272727272,
                "pitch": 71,
                "velocity": 25,
                "duration": 0.18409090909090864,
                "tempo": 120.0
            },
            {
                "start_time": 7.213636363636363,
                "end_time": 7.393181818181818,
                "pitch": 66,
                "velocity": 25,
                "duration": 0.17954545454545467,
                "tempo": 120.0
            },
            {
                "start_time": 7.411363636363636,
                "end_time": 7.795454545454545,
                "pitch": 69,
                "velocity": 25,
                "duration": 0.3840909090909088,
                "tempo": 120.0
            },
            {
                "start_time": 7.811363636363636,
                "end_time": 8.0,
                "pitch": 68,
                "velocity": 25,
                "duration": 0.18863636363636438,
                "tempo": 120.0
            },
            {
                "start_time": 8.018181818181818,
                "end_time": 8.202272727272726,
                "pitch": 66,
                "velocity": 25,
                "duration": 0.18409090909090864,
                "tempo": 120.0
            },
            {
                "start_time": 8.218181818181817,
                "end_time": 8.404545454545454,
                "pitch": 64,
                "velocity": 25,
                "duration": 0.1863636363636374,
                "tempo": 120.0
            },
            {
                "start_time": 8.420454545454545,
                "end_time": 8.604545454545454,
                "pitch": 63,
                "velocity": 25,
                "duration": 0.18409090909090864,
                "tempo": 120.0
            },
            {
                "start_time": 8.622727272727273,
                "end_time": 8.806818181818182,
                "pitch": 64,
                "velocity": 25,
                "duration": 0.18409090909090864,
                "tempo": 120.0
            },
            {
                "start_time": 8.822727272727272,
                "end_time": 9.006818181818181,
                "pitch": 66,
                "velocity": 25,
                "duration": 0.18409090909090864,
                "tempo": 120.0
            },
            {
                "start_time": 9.025,
                "end_time": 9.409090909090908,
                "pitch": 59,
                "velocity": 25,
                "duration": 0.38409090909090793,
                "tempo": 120.0
            },
            {
                "start_time": 9.424999999999999,
                "end_time": 9.60909090909091,
                "pitch": 63,
                "velocity": 25,
                "duration": 0.18409090909091042,
                "tempo": 120.0
            },
            {
                "start_time": 9.625,
                "end_time": 9.811363636363636,
                "pitch": 64,
                "velocity": 25,
                "duration": 0.18636363636363562,
                "tempo": 120.0
            },
            {
                "start_time": 9.827272727272726,
                "end_time": 10.011363636363637,
                "pitch": 66,
                "velocity": 25,
                "duration": 0.18409090909091042,
                "tempo": 120.0
            },
            {
                "start_time": 10.027272727272727,
                "end_time": 10.213636363636363,
                "pitch": 64,
                "velocity": 25,
                "duration": 0.18636363636363562,
                "tempo": 120.0
            },
            {
                "start_time": 10.229545454545454,
                "end_time": 10.413636363636362,
                "pitch": 76,
                "velocity": 25,
                "duration": 0.18409090909090864,
                "tempo": 120.0
            },
            {
                "start_time": 10.431818181818182,
                "end_time": 10.61590909090909,
                "pitch": 71,
                "velocity": 25,
                "duration": 0.18409090909090864,
                "tempo": 120.0
            },
            {
                "start_time": 10.631818181818181,
                "end_time": 11.018181818181818,
                "pitch": 74,
                "velocity": 25,
                "duration": 0.3863636363636367,
                "tempo": 120.0
            },
            {
                "start_time": 11.034090909090908,
                "end_time": 11.220454545454546,
                "pitch": 73,
                "velocity": 25,
                "duration": 0.1863636363636374,
                "tempo": 120.0
            },
            {
                "start_time": 11.236363636363636,
                "end_time": 11.420454545454545,
                "pitch": 71,
                "velocity": 25,
                "duration": 0.18409090909090864,
                "tempo": 120.0
            },
            {
                "start_time": 11.436363636363636,
                "end_time": 11.620454545454544,
                "pitch": 69,
                "velocity": 25,
                "duration": 0.18409090909090864,
                "tempo": 120.0
            },
            {
                "start_time": 11.636363636363637,
                "end_time": 11.820454545454545,
                "pitch": 68,
                "velocity": 25,
                "duration": 0.18409090909090864,
                "tempo": 120.0
            },
            {
                "start_time": 11.838636363636363,
                "end_time": 12.022727272727272,
                "pitch": 69,
                "velocity": 25,
                "duration": 0.18409090909090864,
                "tempo": 120.0
            },
            {
                "start_time": 12.038636363636362,
                "end_time": 12.222727272727273,
                "pitch": 71,
                "velocity": 25,
                "duration": 0.18409090909091042,
                "tempo": 120.0
            },
            {
                "start_time": 12.24090909090909,
                "end_time": 12.627272727272727,
                "pitch": 64,
                "velocity": 25,
                "duration": 0.3863636363636367,
                "tempo": 120.0
            },
            {
                "start_time": 12.643181818181818,
                "end_time": 12.827272727272726,
                "pitch": 68,
                "velocity": 25,
                "duration": 0.18409090909090864,
                "tempo": 120.0
            },
            {
                "start_time": 12.845454545454546,
                "end_time": 13.031818181818181,
                "pitch": 69,
                "velocity": 25,
                "duration": 0.18636363636363562,
                "tempo": 120.0
            },
            {
                "start_time": 13.049999999999999,
                "end_time": 13.238636363636363,
                "pitch": 71,
                "velocity": 25,
                "duration": 0.18863636363636438,
                "tempo": 120.0
            },
            {
                "start_time": 26.097727272727273,
                "end_time": 26.277272727272727,
                "pitch": 59,
                "velocity": 25,
                "duration": 0.17954545454545467,
                "tempo": 120.0
            },
            {
                "start_time": 26.295454545454543,
                "end_time": 26.311363636363634,
                "pitch": 71,
                "velocity": 25,
                "duration": 0.01590909090909065,
                "tempo": 120.0
            }
        ],
        "Trumpet": [
            {
                "start_time": 13.254545454545454,
                "end_time": 13.434090909090909,
                "pitch": 69,
                "velocity": 25,
                "duration": 0.17954545454545467,
                "tempo": 120.0
            },
            {
                "start_time": 13.452272727272726,
                "end_time": 13.631818181818181,
                "pitch": 73,
                "velocity": 25,
                "duration": 0.17954545454545467,
                "tempo": 120.0
            },
            {
                "start_time": 13.647727272727272,
                "end_time": 13.831818181818182,
                "pitch": 71,
                "velocity": 25,
                "duration": 0.18409090909091042,
                "tempo": 120.0
            },
            {
                "start_time": 13.847727272727273,
                "end_time": 14.034090909090908,
                "pitch": 73,
                "velocity": 25,
                "duration": 0.18636363636363562,
                "tempo": 120.0
            },
            {
                "start_time": 14.049999999999999,
                "end_time": 14.234090909090908,
                "pitch": 69,
                "velocity": 25,
                "duration": 0.18409090909090864,
                "tempo": 120.0
            },
            {
                "start_time": 14.252272727272727,
                "end_time": 14.436363636363636,
                "pitch": 73,
                "velocity": 25,
                "duration": 0.18409090909090864,
                "tempo": 120.0
            },
            {
                "start_time": 14.452272727272726,
                "end_time": 14.636363636363635,
                "pitch": 71,
                "velocity": 25,
                "duration": 0.18409090909090864,
                "tempo": 120.0
            },
            {
                "start_time": 14.654545454545454,
                "end_time": 14.838636363636363,
                "pitch": 73,
                "velocity": 25,
                "duration": 0.18409090909090864,
                "tempo": 120.0
            },
            {
                "start_time": 14.854545454545454,
                "end_time": 15.040909090909091,
                "pitch": 68,
                "velocity": 25,
                "duration": 0.1863636363636374,
                "tempo": 120.0
            },
            {
                "start_time": 15.056818181818182,
                "end_time": 15.24090909090909,
                "pitch": 71,
                "velocity": 25,
                "duration": 0.18409090909090864,
                "tempo": 120.0
            },
            {
                "start_time": 15.259090909090908,
                "end_time": 15.44090909090909,
                "pitch": 69,
                "velocity": 25,
                "duration": 0.18181818181818166,
                "tempo": 120.0
            },
            {
                "start_time": 15.459090909090909,
                "end_time": 15.64090909090909,
                "pitch": 71,
                "velocity": 25,
                "duration": 0.18181818181818166,
                "tempo": 120.0
            },
            {
                "start_time": 15.659090909090908,
                "end_time": 15.843181818181817,
                "pitch": 68,
                "velocity": 25,
                "duration": 0.18409090909090864,
                "tempo": 120.0
            },
            {
                "start_time": 15.859090909090908,
                "end_time": 16.043181818181818,
                "pitch": 71,
                "velocity": 25,
                "duration": 0.18409090909091042,
                "tempo": 120.0
            },
            {
                "start_time": 16.061363636363634,
                "end_time": 16.245454545454546,
                "pitch": 69,
                "velocity": 25,
                "duration": 0.1840909090909122,
                "tempo": 120.0
            },
            {
                "start_time": 16.261363636363637,
                "end_time": 16.44772727272727,
                "pitch": 71,
                "velocity": 25,
                "duration": 0.18636363636363384,
                "tempo": 120.0
            },
            {
                "start_time": 16.46363636363636,
                "end_time": 16.647727272727273,
                "pitch": 66,
                "velocity": 25,
                "duration": 0.1840909090909122,
                "tempo": 120.0
            },
            {
                "start_time": 16.663636363636364,
                "end_time": 16.847727272727273,
                "pitch": 69,
                "velocity": 25,
                "duration": 0.18409090909090864,
                "tempo": 120.0
            },
            {
                "start_time": 16.863636363636363,
                "end_time": 17.047727272727272,
                "pitch": 68,
                "velocity": 25,
                "duration": 0.18409090909090864,
                "tempo": 120.0
            },
            {
                "start_time": 17.06590909090909,
                "end_time": 17.25,
                "pitch": 69,
                "velocity": 25,
                "duration": 0.18409090909090864,
                "tempo": 120.0
            },
            {
                "start_time": 17.26590909090909,
                "end_time": 17.45,
                "pitch": 66,
                "velocity": 25,
                "duration": 0.18409090909090864,
                "tempo": 120.0
            },
            {
                "start_time": 17.46590909090909,
                "end_time": 17.65,
                "pitch": 69,
                "velocity": 25,
                "duration": 0.18409090909090864,
                "tempo": 120.0
            },
            {
                "start_time": 17.66590909090909,
                "end_time": 17.849999999999998,
                "pitch": 68,
                "velocity": 25,
                "duration": 0.18409090909090864,
                "tempo": 120.0
            },
            {
                "start_time": 17.868181818181817,
                "end_time": 18.052272727272726,
                "pitch": 69,
                "velocity": 25,
                "duration": 0.18409090909090864,
                "tempo": 120.0
            },
            {
                "start_time": 18.068181818181817,
                "end_time": 18.252272727272725,
                "pitch": 64,
                "velocity": 25,
                "duration": 0.18409090909090864,
                "tempo": 120.0
            },
            {
                "start_time": 18.268181818181816,
                "end_time": 18.452272727272728,
                "pitch": 68,
                "velocity": 25,
                "duration": 0.1840909090909122,
                "tempo": 120.0
            },
            {
                "start_time": 18.46818181818182,
                "end_time": 18.652272727272727,
                "pitch": 66,
                "velocity": 25,
                "duration": 0.18409090909090864,
                "tempo": 120.0
            },
            {
                "start_time": 18.668181818181818,
                "end_time": 18.852272727272727,
                "pitch": 68,
                "velocity": 25,
                "duration": 0.18409090909090864,
                "tempo": 120.0
            },
            {
                "start_time": 18.868181818181817,
                "end_time": 19.054545454545455,
                "pitch": 64,
                "velocity": 25,
                "duration": 0.1863636363636374,
                "tempo": 120.0
            },
            {
                "start_time": 19.070454545454545,
                "end_time": 19.254545454545454,
                "pitch": 68,
                "velocity": 25,
                "duration": 0.18409090909090864,
                "tempo": 120.0
            },
            {
                "start_time": 19.270454545454545,
                "end_time": 19.454545454545453,
                "pitch": 66,
                "velocity": 25,
                "duration": 0.18409090909090864,
                "tempo": 120.0
            },
            {
                "start_time": 19.470454545454544,
                "end_time": 19.654545454545453,
                "pitch": 68,
                "velocity": 25,
                "duration": 0.18409090909090864,
                "tempo": 120.0
            },
            {
                "start_time": 19.670454545454543,
                "end_time": 19.85681818181818,
                "pitch": 69,
                "velocity": 25,
                "duration": 0.1863636363636374,
                "tempo": 120.0
            },
            {
                "start_time": 19.87272727272727,
                "end_time": 20.05681818181818,
                "pitch": 73,
                "velocity": 25,
                "duration": 0.18409090909090864,
                "tempo": 120.0
            },
            {
                "start_time": 20.075,
                "end_time": 20.25681818181818,
                "pitch": 71,
                "velocity": 25,
                "duration": 0.18181818181817988,
                "tempo": 120.0
            },
            {
                "start_time": 20.275,
                "end_time": 20.456818181818182,
                "pitch": 73,
                "velocity": 25,
                "duration": 0.18181818181818343,
                "tempo": 120.0
            },
            {
                "start_time": 20.474999999999998,
                "end_time": 20.65681818181818,
                "pitch": 69,
                "velocity": 25,
                "duration": 0.18181818181818343,
                "tempo": 120.0
            },
            {
                "start_time": 20.675,
                "end_time": 20.85681818181818,
                "pitch": 73,
                "velocity": 25,
                "duration": 0.18181818181817988,
                "tempo": 120.0
            },
            {
                "start_time": 20.875,
                "end_time": 21.05909090909091,
                "pitch": 71,
                "velocity": 25,
                "duration": 0.18409090909090864,
                "tempo": 120.0
            },
            {
                "start_time": 21.075,
                "end_time": 21.259090909090908,
                "pitch": 73,
                "velocity": 25,
                "duration": 0.18409090909090864,
                "tempo": 120.0
            },
            {
                "start_time": 21.277272727272727,
                "end_time": 21.461363636363636,
                "pitch": 68,
                "velocity": 25,
                "duration": 0.18409090909090864,
                "tempo": 120.0
            },
            {
                "start_time": 21.477272727272727,
                "end_time": 21.661363636363635,
                "pitch": 71,
                "velocity": 25,
                "duration": 0.18409090909090864,
                "tempo": 120.0
            },
            {
                "start_time": 21.677272727272726,
                "end_time": 21.861363636363635,
                "pitch": 69,
                "velocity": 25,
                "duration": 0.18409090909090864,
                "tempo": 120.0
            },
            {
                "start_time": 21.877272727272725,
                "end_time": 22.063636363636363,
                "pitch": 71,
                "velocity": 25,
                "duration": 0.1863636363636374,
                "tempo": 120.0
            },
            {
                "start_time": 22.079545454545453,
                "end_time": 22.263636363636362,
                "pitch": 68,
                "velocity": 25,
                "duration": 0.18409090909090864,
                "tempo": 120.0
            },
            {
                "start_time": 22.279545454545453,
                "end_time": 22.46363636363636,
                "pitch": 71,
                "velocity": 25,
                "duration": 0.18409090909090864,
                "tempo": 120.0
            },
            {
                "start_time": 22.479545454545452,
                "end_time": 22.663636363636364,
                "pitch": 69,
                "velocity": 25,
                "duration": 0.1840909090909122,
                "tempo": 120.0
            },
            {
                "start_time": 22.679545454545455,
                "end_time": 22.863636363636363,
                "pitch": 71,
                "velocity": 25,
                "duration": 0.18409090909090864,
                "tempo": 120.0
            },
            {
                "start_time": 22.879545454545454,
                "end_time": 23.063636363636363,
                "pitch": 66,
                "velocity": 25,
                "duration": 0.18409090909090864,
                "tempo": 120.0
            },
            {
                "start_time": 23.081818181818182,
                "end_time": 23.26590909090909,
                "pitch": 69,
                "velocity": 25,
                "duration": 0.18409090909090864,
                "tempo": 120.0
            },
            {
                "start_time": 23.28181818181818,
                "end_time": 23.46590909090909,
                "pitch": 68,
                "velocity": 25,
                "duration": 0.18409090909090864,
                "tempo": 120.0
            },
            {
                "start_time": 23.48181818181818,
                "end_time": 23.66590909090909,
                "pitch": 69,
                "velocity": 25,
                "duration": 0.18409090909090864,
                "tempo": 120.0
            },
            {
                "start_time": 23.68181818181818,
                "end_time": 23.86590909090909,
                "pitch": 66,
                "velocity": 25,
                "duration": 0.18409090909090864,
                "tempo": 120.0
            },
            {
                "start_time": 23.884090909090908,
                "end_time": 24.068181818181817,
                "pitch": 69,
                "velocity": 25,
                "duration": 0.18409090909090864,
                "tempo": 120.0
            },
            {
                "start_time": 24.084090909090907,
                "end_time": 24.268181818181816,
                "pitch": 68,
                "velocity": 25,
                "duration": 0.18409090909090864,
                "tempo": 120.0
            },
            {
                "start_time": 24.284090909090907,
                "end_time": 24.46818181818182,
                "pitch": 69,
                "velocity": 25,
                "duration": 0.1840909090909122,
                "tempo": 120.0
            },
            {
                "start_time": 24.48409090909091,
                "end_time": 24.668181818181818,
                "pitch": 64,
                "velocity": 25,
                "duration": 0.18409090909090864,
                "tempo": 120.0
            },
            {
                "start_time": 24.68409090909091,
                "end_time": 24.868181818181817,
                "pitch": 68,
                "velocity": 25,
                "duration": 0.18409090909090864,
                "tempo": 120.0
            },
            {
                "start_time": 24.884090909090908,
                "end_time": 25.070454545454545,
                "pitch": 66,
                "velocity": 25,
                "duration": 0.1863636363636374,
                "tempo": 120.0
            },
            {
                "start_time": 25.086363636363636,
                "end_time": 25.270454545454545,
                "pitch": 68,
                "velocity": 25,
                "duration": 0.18409090909090864,
                "tempo": 120.0
            },
            {
                "start_time": 25.288636363636364,
                "end_time": 25.470454545454544,
                "pitch": 64,
                "velocity": 25,
                "duration": 0.18181818181817988,
                "tempo": 120.0
            },
            {
                "start_time": 25.488636363636363,
                "end_time": 25.670454545454543,
                "pitch": 76,
                "velocity": 25,
                "duration": 0.18181818181817988,
                "tempo": 120.0
            },
            {
                "start_time": 25.688636363636363,
                "end_time": 25.875,
                "pitch": 71,
                "velocity": 25,
                "duration": 0.1863636363636374,
                "tempo": 120.0
            },
            {
                "start_time": 25.893181818181816,
                "end_time": 26.081818181818182,
                "pitch": 68,
                "velocity": 25,
                "duration": 0.18863636363636616,
                "tempo": 120.0
            }
        ],
        "Acoustic Bass": [
            {
                "start_time": 0.015909090909090907,
                "end_time": 0.5795454545454545,
                "pitch": 35,
                "velocity": 51,
                "duration": 0.5636363636363636,
                "tempo": 120.0
            },
            {
                "start_time": 0.5954545454545455,
                "end_time": 0.9727272727272727,
                "pitch": 39,
                "velocity": 51,
                "duration": 0.3772727272727272,
                "tempo": 120.0
            },
            {
                "start_time": 0.9886363636363635,
                "end_time": 1.1681818181818182,
                "pitch": 40,
                "velocity": 51,
                "duration": 0.17954545454545467,
                "tempo": 120.0
            },
            {
                "start_time": 1.184090909090909,
                "end_time": 1.3727272727272726,
                "pitch": 41,
                "velocity": 51,
                "duration": 0.1886363636363635,
                "tempo": 120.0
            },
            {
                "start_time": 1.3909090909090909,
                "end_time": 1.5772727272727272,
                "pitch": 42,
                "velocity": 51,
                "duration": 0.1863636363636363,
                "tempo": 120.0
            },
            {
                "start_time": 1.5954545454545455,
                "end_time": 1.7795454545454545,
                "pitch": 35,
                "velocity": 51,
                "duration": 0.18409090909090908,
                "tempo": 120.0
            },
            {
                "start_time": 1.7977272727272726,
                "end_time": 1.9818181818181817,
                "pitch": 44,
                "velocity": 51,
                "duration": 0.18409090909090908,
                "tempo": 120.0
            },
            {
                "start_time": 1.9977272727272726,
                "end_time": 2.1818181818181817,
                "pitch": 42,
                "velocity": 51,
                "duration": 0.18409090909090908,
                "tempo": 120.0
            },
            {
                "start_time": 2.1977272727272728,
                "end_time": 2.577272727272727,
                "pitch": 45,
                "velocity": 51,
                "duration": 0.3795454545454544,
                "tempo": 120.0
            },
            {
                "start_time": 2.5931818181818183,
                "end_time": 2.7727272727272725,
                "pitch": 44,
                "velocity": 51,
                "duration": 0.17954545454545423,
                "tempo": 120.0
            },
            {
                "start_time": 2.7909090909090906,
                "end_time": 2.977272727272727,
                "pitch": 42,
                "velocity": 51,
                "duration": 0.1863636363636365,
                "tempo": 120.0
            },
            {
                "start_time": 2.995454545454545,
                "end_time": 3.184090909090909,
                "pitch": 39,
                "velocity": 51,
                "duration": 0.18863636363636394,
                "tempo": 120.0
            },
            {
                "start_time": 3.1999999999999997,
                "end_time": 3.786363636363636,
                "pitch": 40,
                "velocity": 51,
                "duration": 0.5863636363636364,
                "tempo": 120.0
            },
            {
                "start_time": 3.8045454545454542,
                "end_time": 4.184090909090909,
                "pitch": 44,
                "velocity": 51,
                "duration": 0.3795454545454544,
                "tempo": 120.0
            },
            {
                "start_time": 4.2,
                "end_time": 4.379545454545454,
                "pitch": 45,
                "velocity": 51,
                "duration": 0.1795454545454538,
                "tempo": 120.0
            },
            {
                "start_time": 4.3954545454545455,
                "end_time": 4.584090909090909,
                "pitch": 46,
                "velocity": 51,
                "duration": 0.1886363636363635,
                "tempo": 120.0
            },
            {
                "start_time": 4.6,
                "end_time": 4.788636363636363,
                "pitch": 47,
                "velocity": 51,
                "duration": 0.1886363636363635,
                "tempo": 120.0
            },
            {
                "start_time": 4.806818181818182,
                "end_time": 4.99090909090909,
                "pitch": 40,
                "velocity": 51,
                "duration": 0.18409090909090864,
                "tempo": 120.0
            },
            {
                "start_time": 5.006818181818182,
                "end_time": 5.1909090909090905,
                "pitch": 49,
                "velocity": 51,
                "duration": 0.18409090909090864,
                "tempo": 120.0
            },
            {
                "start_time": 5.206818181818181,
                "end_time": 5.390909090909091,
                "pitch": 47,
                "velocity": 51,
                "duration": 0.18409090909090953,
                "tempo": 120.0
            },
            {
                "start_time": 5.406818181818181,
                "end_time": 5.788636363636363,
                "pitch": 50,
                "velocity": 51,
                "duration": 0.38181818181818183,
                "tempo": 120.0
            },
            {
                "start_time": 5.804545454545455,
                "end_time": 5.9840909090909085,
                "pitch": 49,
                "velocity": 51,
                "duration": 0.1795454545454538,
                "tempo": 120.0
            },
            {
                "start_time": 6.0,
                "end_time": 6.1886363636363635,
                "pitch": 47,
                "velocity": 51,
                "duration": 0.1886363636363635,
                "tempo": 120.0
            },
            {
                "start_time": 6.206818181818181,
                "end_time": 6.3954545454545455,
                "pitch": 44,
                "velocity": 51,
                "duration": 0.18863636363636438,
                "tempo": 120.0
            },
            {
                "start_time": 6.411363636363636,
                "end_time": 6.997727272727272,
                "pitch": 35,
                "velocity": 51,
                "duration": 0.586363636363636,
                "tempo": 120.0
            },
            {
                "start_time": 7.013636363636364,
                "end_time": 7.393181818181818,
                "pitch": 39,
                "velocity": 51,
                "duration": 0.37954545454545396,
                "tempo": 120.0
            },
            {
                "start_time": 7.411363636363636,
                "end_time": 7.590909090909091,
                "pitch": 40,
                "velocity": 51,
                "duration": 0.17954545454545467,
                "tempo": 120.0
            },
            {
                "start_time": 7.6068181818181815,
                "end_time": 7.795454545454545,
                "pitch": 41,
                "velocity": 51,
                "duration": 0.1886363636363635,
                "tempo": 120.0
            },
            {
                "start_time": 7.811363636363636,
                "end_time": 8.0,
                "pitch": 42,
                "velocity": 51,
                "duration": 0.18863636363636438,
                "tempo": 120.0
            },
            {
                "start_time": 8.018181818181818,
                "end_time": 8.202272727272726,
                "pitch": 35,
                "velocity": 51,
                "duration": 0.18409090909090864,
                "tempo": 120.0
            },
            {
                "start_time": 8.218181818181817,
                "end_time": 8.404545454545454,
                "pitch": 44,
                "velocity": 51,
                "duration": 0.1863636363636374,
                "tempo": 120.0
            },
            {
                "start_time": 8.420454545454545,
                "end_time": 8.604545454545454,
                "pitch": 42,
                "velocity": 51,
                "duration": 0.18409090909090864,
                "tempo": 120.0
            },
            {
                "start_time": 8.622727272727273,
                "end_time": 9.006818181818181,
                "pitch": 45,
                "velocity": 51,
                "duration": 0.38409090909090793,
                "tempo": 120.0
            },
            {
                "start_time": 9.025,
                "end_time": 9.209090909090909,
                "pitch": 44,
                "velocity": 51,
                "duration": 0.18409090909090864,
                "tempo": 120.0
            },
            {
                "start_time": 9.225,
                "end_time": 9.409090909090908,
                "pitch": 42,
                "velocity": 51,
                "duration": 0.18409090909090864,
                "tempo": 120.0
            },
            {
                "start_time": 9.424999999999999,
                "end_time": 9.60909090909091,
                "pitch": 39,
                "velocity": 51,
                "duration": 0.18409090909091042,
                "tempo": 120.0
            },
            {
                "start_time": 9.625,
                "end_time": 10.213636363636363,
                "pitch": 40,
                "velocity": 51,
                "duration": 0.588636363636363,
                "tempo": 120.0
            },
            {
                "start_time": 10.229545454545454,
                "end_time": 10.61590909090909,
                "pitch": 44,
                "velocity": 51,
                "duration": 0.3863636363636367,
                "tempo": 120.0
            },
            {
                "start_time": 10.631818181818181,
                "end_time": 10.81590909090909,
                "pitch": 45,
                "velocity": 51,
                "duration": 0.18409090909090864,
                "tempo": 120.0
            },
            {
                "start_time": 10.834090909090909,
                "end_time": 11.018181818181818,
                "pitch": 46,
                "velocity": 51,
                "duration": 0.18409090909090864,
                "tempo": 120.0
            },
            {
                "start_time": 11.034090909090908,
                "end_time": 11.220454545454546,
                "pitch": 47,
                "velocity": 51,
                "duration": 0.1863636363636374,
                "tempo": 120.0
            },
            {
                "start_time": 11.236363636363636,
                "end_time": 11.420454545454545,
                "pitch": 40,
                "velocity": 51,
                "duration": 0.18409090909090864,
                "tempo": 120.0
            },
            {
                "start_time": 11.436363636363636,
                "end_time": 11.620454545454544,
                "pitch": 49,
                "velocity": 51,
                "duration": 0.18409090909090864,
                "tempo": 120.0
            },
            {
                "start_time": 11.636363636363637,
                "end_time": 11.820454545454545,
                "pitch": 47,
                "velocity": 51,
                "duration": 0.18409090909090864,
                "tempo": 120.0
            },
            {
                "start_time": 11.838636363636363,
                "end_time": 12.222727272727273,
                "pitch": 50,
                "velocity": 51,
                "duration": 0.3840909090909097,
                "tempo": 120.0
            },
            {
                "start_time": 12.24090909090909,
                "end_time": 12.424999999999999,
                "pitch": 49,
                "velocity": 51,
                "duration": 0.18409090909090864,
                "tempo": 120.0
            },
            {
                "start_time": 12.44090909090909,
                "end_time": 12.627272727272727,
                "pitch": 47,
                "velocity": 51,
                "duration": 0.1863636363636374,
                "tempo": 120.0
            },
            {
                "start_time": 12.643181818181818,
                "end_time": 12.827272727272726,
                "pitch": 44,
                "velocity": 51,
                "duration": 0.18409090909090864,
                "tempo": 120.0
            },
            {
                "start_time": 12.845454545454546,
                "end_time": 13.238636363636363,
                "pitch": 33,
                "velocity": 51,
                "duration": 0.39318181818181763,
                "tempo": 120.0
            },
            {
                "start_time": 13.452272727272726,
                "end_time": 13.831818181818182,
                "pitch": 33,
                "velocity": 51,
                "duration": 0.37954545454545574,
                "tempo": 120.0
            },
            {
                "start_time": 13.847727272727273,
                "end_time": 14.034090909090908,
                "pitch": 33,
                "velocity": 51,
                "duration": 0.18636363636363562,
                "tempo": 120.0
            },
            {
                "start_time": 14.049999999999999,
                "end_time": 14.234090909090908,
                "pitch": 37,
                "velocity": 51,
                "duration": 0.18409090909090864,
                "tempo": 120.0
            },
            {
                "start_time": 14.252272727272727,
                "end_time": 14.436363636363636,
                "pitch": 40,
                "velocity": 51,
                "duration": 0.18409090909090864,
                "tempo": 120.0
            },
            {
                "start_time": 14.452272727272726,
                "end_time": 14.838636363636363,
                "pitch": 32,
                "velocity": 51,
                "duration": 0.3863636363636367,
                "tempo": 120.0
            },
            {
                "start_time": 15.056818181818182,
                "end_time": 15.24090909090909,
                "pitch": 32,
                "velocity": 51,
                "duration": 0.18409090909090864,
                "tempo": 120.0
            },
            {
                "start_time": 15.259090909090908,
                "end_time": 15.44090909090909,
                "pitch": 32,
                "velocity": 51,
                "duration": 0.18181818181818166,
                "tempo": 120.0
            },
            {
                "start_time": 15.459090909090909,
                "end_time": 15.64090909090909,
                "pitch": 35,
                "velocity": 51,
                "duration": 0.18181818181818166,
                "tempo": 120.0
            },
            {
                "start_time": 15.659090909090908,
                "end_time": 15.843181818181817,
                "pitch": 40,
                "velocity": 51,
                "duration": 0.18409090909090864,
                "tempo": 120.0
            },
            {
                "start_time": 15.859090909090908,
                "end_time": 16.245454545454546,
                "pitch": 30,
                "velocity": 51,
                "duration": 0.38636363636363846,
                "tempo": 120.0
            },
            {
                "start_time": 16.46363636363636,
                "end_time": 16.847727272727273,
                "pitch": 30,
                "velocity": 51,
                "duration": 0.3840909090909115,
                "tempo": 120.0
            },
            {
                "start_time": 16.863636363636363,
                "end_time": 17.25,
                "pitch": 32,
                "velocity": 51,
                "duration": 0.3863636363636367,
                "tempo": 120.0
            },
            {
                "start_time": 17.26590909090909,
                "end_time": 17.65,
                "pitch": 30,
                "velocity": 51,
                "duration": 0.38409090909090793,
                "tempo": 120.0
            },
            {
                "start_time": 17.66590909090909,
                "end_time": 18.052272727272726,
                "pitch": 28,
                "velocity": 51,
                "duration": 0.3863636363636367,
                "tempo": 120.0
            },
            {
                "start_time": 18.268181818181816,
                "end_time": 18.452272727272728,
                "pitch": 28,
                "velocity": 51,
                "duration": 0.1840909090909122,
                "tempo": 120.0
            },
            {
                "start_time": 18.668181818181818,
                "end_time": 18.852272727272727,
                "pitch": 28,
                "velocity": 51,
                "duration": 0.18409090909090864,
                "tempo": 120.0
            },
            {
                "start_time": 19.070454545454545,
                "end_time": 19.254545454545454,
                "pitch": 28,
                "velocity": 51,
                "duration": 0.18409090909090864,
                "tempo": 120.0
            },
            {
                "start_time": 19.270454545454545,
                "end_time": 19.654545454545453,
                "pitch": 33,
                "velocity": 51,
                "duration": 0.38409090909090793,
                "tempo": 120.0
            },
            {
                "start_time": 19.87272727272727,
                "end_time": 20.25681818181818,
                "pitch": 33,
                "velocity": 51,
                "duration": 0.38409090909090793,
                "tempo": 120.0
            },
            {
                "start_time": 20.275,
                "end_time": 20.65681818181818,
                "pitch": 33,
                "velocity": 51,
                "duration": 0.3818181818181827,
                "tempo": 120.0
            },
            {
                "start_time": 20.675,
                "end_time": 20.85681818181818,
                "pitch": 37,
                "velocity": 51,
                "duration": 0.18181818181817988,
                "tempo": 120.0
            },
            {
                "start_time": 20.875,
                "end_time": 21.259090909090908,
                "pitch": 40,
                "velocity": 51,
                "duration": 0.38409090909090793,
                "tempo": 120.0
            },
            {
                "start_time": 21.477272727272727,
                "end_time": 21.861363636363635,
                "pitch": 40,
                "velocity": 51,
                "duration": 0.38409090909090793,
                "tempo": 120.0
            },
            {
                "start_time": 21.877272727272725,
                "end_time": 22.263636363636362,
                "pitch": 40,
                "velocity": 51,
                "duration": 0.3863636363636367,
                "tempo": 120.0
            },
            {
                "start_time": 22.279545454545453,
                "end_time": 22.46363636363636,
                "pitch": 40,
                "velocity": 51,
                "duration": 0.18409090909090864,
                "tempo": 120.0
            },
            {
                "start_time": 22.479545454545452,
                "end_time": 22.863636363636363,
                "pitch": 39,
                "velocity": 51,
                "duration": 0.3840909090909115,
                "tempo": 120.0
            },
            {
                "start_time": 23.081818181818182,
                "end_time": 23.46590909090909,
                "pitch": 39,
                "velocity": 51,
                "duration": 0.38409090909090793,
                "tempo": 120.0
            },
            {
                "start_time": 23.48181818181818,
                "end_time": 23.86590909090909,
                "pitch": 40,
                "velocity": 51,
                "duration": 0.38409090909090793,
                "tempo": 120.0
            },
            {
                "start_time": 23.884090909090908,
                "end_time": 24.068181818181817,
                "pitch": 42,
                "velocity": 51,
                "duration": 0.18409090909090864,
                "tempo": 120.0
            },
            {
                "start_time": 24.084090909090907,
                "end_time": 24.46818181818182,
                "pitch": 28,
                "velocity": 51,
                "duration": 0.3840909090909115,
                "tempo": 120.0
            },
            {
                "start_time": 24.68409090909091,
                "end_time": 24.868181818181817,
                "pitch": 28,
                "velocity": 51,
                "duration": 0.18409090909090864,
                "tempo": 120.0
            },
            {
                "start_time": 25.086363636363636,
                "end_time": 25.270454545454545,
                "pitch": 28,
                "velocity": 51,
                "duration": 0.18409090909090864,
                "tempo": 120.0
            },
            {
                "start_time": 25.488636363636363,
                "end_time": 25.670454545454543,
                "pitch": 28,
                "velocity": 51,
                "duration": 0.18181818181817988,
                "tempo": 120.0
            },
            {
                "start_time": 25.688636363636363,
                "end_time": 26.277272727272727,
                "pitch": 35,
                "velocity": 51,
                "duration": 0.5886363636363647,
                "tempo": 120.0
            },
            {
                "start_time": 26.295454545454543,
                "end_time": 26.311363636363634,
                "pitch": 39,
                "velocity": 51,
                "duration": 0.01590909090909065,
                "tempo": 120.0
            }
        ]
    }
}