{
    "track_id": "Miracle Warriors - Seal of the Dark Lord (FM) - 10 - New Companion",
    "mood": "happy",
    "instruments": {
        "Trumpet": [
            {
                "start_time": 0.0,
                "end_time": 0.3795454545454545,
                "pitch": 75,
                "velocity": 64,
                "duration": 0.3795454545454545,
                "tempo": 120.0
            },
            {
                "start_time": 0.39545454545454545,
                "end_time": 0.5772727272727273,
                "pitch": 75,
                "velocity": 64,
                "duration": 0.18181818181818182,
                "tempo": 120.0
            },
            {
                "start_time": 0.6022727272727273,
                "end_time": 1.3590909090909091,
                "pitch": 73,
                "velocity": 64,
                "duration": 0.7568181818181818,
                "tempo": 120.0
            },
            {
                "start_time": 1.393181818181818,
                "end_time": 1.7545454545454544,
                "pitch": 73,
                "velocity": 64,
                "duration": 0.36136363636363633,
                "tempo": 120.0
            },
            {
                "start_time": 1.7886363636363636,
                "end_time": 2.15,
                "pitch": 73,
                "velocity": 64,
                "duration": 0.36136363636363633,
                "tempo": 120.0
            },
            {
                "start_time": 2.1818181818181817,
                "end_time": 2.940909090909091,
                "pitch": 71,
                "velocity": 64,
                "duration": 0.7590909090909093,
                "tempo": 120.0
            },
            {
                "start_time": 2.9727272727272727,
                "end_time": 3.334090909090909,
                "pitch": 71,
                "velocity": 64,
                "duration": 0.36136363636363633,
                "tempo": 120.0
            },
            {
                "start_time": 3.368181818181818,
                "end_time": 3.7295454545454545,
                "pitch": 73,
                "velocity": 64,
                "duration": 0.36136363636363633,
                "tempo": 120.0
            },
            {
                "start_time": 3.7636363636363637,
                "end_time": 4.134090909090909,
                "pitch": 73,
                "velocity": 64,
                "duration": 0.37045454545454515,
                "tempo": 120.0
            },
            {
                "start_time": 4.168181818181818,
                "end_time": 4.540909090909091,
                "pitch": 73,
                "velocity": 64,
                "duration": 0.372727272727273,
                "tempo": 120.0
            },
            {
                "start_time": 4.575,
                "end_time": 4.945454545454545,
                "pitch": 73,
                "velocity": 64,
                "duration": 0.37045454545454515,
                "tempo": 120.0
            },
            {
                "start_time": 4.9795454545454545,
                "end_time": 5.743181818181818,
                "pitch": 75,
                "velocity": 64,
                "duration": 0.7636363636363637,
                "tempo": 120.0
            },
            {
                "start_time": 5.7749999999999995,
                "end_time": 6.131818181818182,
                "pitch": 75,
                "velocity": 64,
                "duration": 0.35681818181818237,
                "tempo": 120.0
            },
            {
                "start_time": 6.165909090909091,
                "end_time": 6.911363636363636,
                "pitch": 73,
                "velocity": 64,
                "duration": 0.7454545454545451,
                "tempo": 120.0
            },
            {
                "start_time": 6.945454545454545,
                "end_time": 7.306818181818182,
                "pitch": 73,
                "velocity": 64,
                "duration": 0.36136363636363633,
                "tempo": 120.0
            },
            {
                "start_time": 7.340909090909091,
                "end_time": 7.702272727272727,
                "pitch": 73,
                "velocity": 64,
                "duration": 0.36136363636363633,
                "tempo": 120.0
            },
            {
                "start_time": 7.736363636363636,
                "end_time": 8.493181818181817,
                "pitch": 77,
                "velocity": 64,
                "duration": 0.756818181818181,
                "tempo": 120.0
            },
            {
                "start_time": 8.525,
                "end_time": 8.893181818181818,
                "pitch": 77,
                "velocity": 64,
                "duration": 0.3681818181818173,
                "tempo": 120.0
            },
            {
                "start_time": 8.927272727272728,
                "end_time": 12.261363636363635,
                "pitch": 78,
                "velocity": 64,
                "duration": 3.334090909090907,
                "tempo": 120.0
            }
        ],
        "Oboe": [
            {
                "start_time": 0.0,
                "end_time": 0.3795454545454545,
                "pitch": 59,
                "velocity": 51,
                "duration": 0.3795454545454545,
                "tempo": 120.0
            },
            {
                "start_time": 0.39545454545454545,
                "end_time": 0.5772727272727273,
                "pitch": 59,
                "velocity": 51,
                "duration": 0.18181818181818182,
                "tempo": 120.0
            },
            {
                "start_time": 0.6022727272727273,
                "end_time": 1.3590909090909091,
                "pitch": 58,
                "velocity": 51,
                "duration": 0.7568181818181818,
                "tempo": 120.0
            },
            {
                "start_time": 1.393181818181818,
                "end_time": 1.7545454545454544,
                "pitch": 58,
                "velocity": 51,
                "duration": 0.36136363636363633,
                "tempo": 120.0
            },
            {
                "start_time": 1.7886363636363636,
                "end_time": 2.15,
                "pitch": 58,
                "velocity": 51,
                "duration": 0.36136363636363633,
                "tempo": 120.0
            },
            {
                "start_time": 2.1818181818181817,
                "end_time": 2.940909090909091,
                "pitch": 56,
                "velocity": 51,
                "duration": 0.7590909090909093,
                "tempo": 120.0
            },
            {
                "start_time": 2.9727272727272727,
                "end_time": 3.334090909090909,
                "pitch": 56,
                "velocity": 51,
                "duration": 0.36136363636363633,
                "tempo": 120.0
            },
            {
                "start_time": 3.368181818181818,
                "end_time": 3.7295454545454545,
                "pitch": 58,
                "velocity": 51,
                "duration": 0.36136363636363633,
                "tempo": 120.0
            },
            {
                "start_time": 3.7636363636363637,
                "end_time": 4.134090909090909,
                "pitch": 58,
                "velocity": 51,
                "duration": 0.37045454545454515,
                "tempo": 120.0
            },
            {
                "start_time": 4.168181818181818,
                "end_time": 4.540909090909091,
                "pitch": 58,
                "velocity": 51,
                "duration": 0.372727272727273,
                "tempo": 120.0
            },
            {
                "start_time": 4.575,
                "end_time": 4.945454545454545,
                "pitch": 58,
                "velocity": 51,
                "duration": 0.37045454545454515,
                "tempo": 120.0
            },
            {
                "start_time": 4.9795454545454545,
                "end_time": 5.743181818181818,
                "pitch": 59,
                "velocity": 51,
                "duration": 0.7636363636363637,
                "tempo": 120.0
            },
            {
                "start_time": 5.7749999999999995,
                "end_time": 6.131818181818182,
                "pitch": 59,
                "velocity": 51,
                "duration": 0.35681818181818237,
                "tempo": 120.0
            },
            {
                "start_time": 6.165909090909091,
                "end_time": 6.911363636363636,
                "pitch": 58,
                "velocity": 51,
                "duration": 0.7454545454545451,
                "tempo": 120.0
            },
            {
                "start_time": 6.945454545454545,
                "end_time": 7.306818181818182,
                "pitch": 58,
                "velocity": 51,
                "duration": 0.36136363636363633,
                "tempo": 120.0
            },
            {
                "start_time": 7.340909090909091,
                "end_time": 7.702272727272727,
                "pitch": 58,
                "velocity": 51,
                "duration": 0.36136363636363633,
                "tempo": 120.0
            },
            {
                "start_time": 7.736363636363636,
                "end_time": 8.493181818181817,
                "pitch": 61,
                "velocity": 51,
                "duration": 0.756818181818181,
                "tempo": 120.0
            },
            {
                "start_time": 8.525,
                "end_time": 8.893181818181818,
                "pitch": 61,
                "velocity": 51,
                "duration": 0.3681818181818173,
                "tempo": 120.0
            },
            {
                "start_time": 8.927272727272728,
                "end_time": 12.261363636363635,
                "pitch": 63,
                "velocity": 51,
                "duration": 3.334090909090907,
                "tempo": 120.0
            }
        ],
        "Harpsichord": [
            {
                "start_time": 0.0,
                "end_time": 0.3795454545454545,
                "pitch": 66,
                "velocity": 40,
                "duration": 0.3795454545454545,
                "tempo": 120.0
            },
            {
                "start_time": 0.39545454545454545,
                "end_time": 0.5772727272727273,
                "pitch": 66,
                "velocity": 40,
                "duration": 0.18181818181818182,
                "tempo": 120.0
            },
            {
                "start_time": 0.6022727272727273,
                "end_time": 1.3590909090909091,
                "pitch": 65,
                "velocity": 40,
                "duration": 0.7568181818181818,
                "tempo": 120.0
            },
            {
                "start_time": 1.393181818181818,
                "end_time": 1.7545454545454544,
                "pitch": 65,
                "velocity": 40,
                "duration": 0.36136363636363633,
                "tempo": 120.0
            },
            {
                "start_time": 1.7886363636363636,
                "end_time": 2.15,
                "pitch": 65,
                "velocity": 40,
                "duration": 0.36136363636363633,
                "tempo": 120.0
            },
            {
                "start_time": 2.1818181818181817,
                "end_time": 2.940909090909091,
                "pitch": 63,
                "velocity": 40,
                "duration": 0.7590909090909093,
                "tempo": 120.0
            },
            {
                "start_time": 2.9727272727272727,
                "end_time": 3.334090909090909,
                "pitch": 63,
                "velocity": 40,
                "duration": 0.36136363636363633,
                "tempo": 120.0
            },
            {
                "start_time": 3.368181818181818,
                "end_time": 3.7295454545454545,
                "pitch": 66,
                "velocity": 40,
                "duration": 0.36136363636363633,
                "tempo": 120.0
            },
            {
                "start_time": 3.7636363636363637,
                "end_time": 4.134090909090909,
                "pitch": 66,
                "velocity": 40,
                "duration": 0.37045454545454515,
                "tempo": 120.0
            },
            {
                "start_time": 4.168181818181818,
                "end_time": 4.540909090909091,
                "pitch": 66,
                "velocity": 40,
                "duration": 0.372727272727273,
                "tempo": 120.0
            },
            {
                "start_time": 4.575,
                "end_time": 4.945454545454545,
                "pitch": 66,
                "velocity": 40,
                "duration": 0.37045454545454515,
                "tempo": 120.0
            },
            {
                "start_time": 4.9795454545454545,
                "end_time": 5.743181818181818,
                "pitch": 66,
                "velocity": 40,
                "duration": 0.7636363636363637,
                "tempo": 120.0
            },
            {
                "start_time": 5.7749999999999995,
                "end_time": 6.131818181818182,
                "pitch": 66,
                "velocity": 40,
                "duration": 0.35681818181818237,
                "tempo": 120.0
            },
            {
                "start_time": 6.165909090909091,
                "end_time": 6.911363636363636,
                "pitch": 66,
                "velocity": 40,
                "duration": 0.7454545454545451,
                "tempo": 120.0
            },
            {
                "start_time": 6.945454545454545,
                "end_time": 7.306818181818182,
                "pitch": 66,
                "velocity": 40,
                "duration": 0.36136363636363633,
                "tempo": 120.0
            },
            {
                "start_time": 7.340909090909091,
                "end_time": 7.702272727272727,
                "pitch": 66,
                "velocity": 40,
                "duration": 0.36136363636363633,
                "tempo": 120.0
            },
            {
                "start_time": 7.736363636363636,
                "end_time": 8.493181818181817,
                "pitch": 68,
                "velocity": 40,
                "duration": 0.756818181818181,
                "tempo": 120.0
            },
            {
                "start_time": 8.525,
                "end_time": 8.893181818181818,
                "pitch": 68,
                "velocity": 40,
                "duration": 0.3681818181818173,
                "tempo": 120.0
            },
            {
                "start_time": 8.927272727272728,
                "end_time": 12.261363636363635,
                "pitch": 70,
                "velocity": 40,
                "duration": 3.334090909090907,
                "tempo": 120.0
            }
        ]
    }
}