{
    "track_id": "Miracle Warriors - Seal of the Dark Lord (FM) - 03 - Overhead",
    "mood": "happy",
    "instruments": {
        "Violin": [
            {
                "start_time": 0.013636363636363636,
                "end_time": 0.6704545454545454,
                "pitch": 65,
                "velocity": 127,
                "duration": 0.6568181818181817,
                "tempo": 120.0
            },
            {
                "start_time": 0.7022727272727273,
                "end_time": 0.9045454545454545,
                "pitch": 70,
                "velocity": 127,
                "duration": 0.20227272727272727,
                "tempo": 120.0
            },
            {
                "start_time": 0.9204545454545454,
                "end_time": 1.8659090909090907,
                "pitch": 77,
                "velocity": 127,
                "duration": 0.9454545454545453,
                "tempo": 120.0
            },
            {
                "start_time": 1.9,
                "end_time": 2.1999999999999997,
                "pitch": 75,
                "velocity": 127,
                "duration": 0.2999999999999998,
                "tempo": 120.0
            },
            {
                "start_time": 2.215909090909091,
                "end_time": 2.5136363636363637,
                "pitch": 73,
                "velocity": 127,
                "duration": 0.29772727272727284,
                "tempo": 120.0
            },
            {
                "start_time": 2.5295454545454543,
                "end_time": 2.8249999999999997,
                "pitch": 72,
                "velocity": 127,
                "duration": 0.2954545454545454,
                "tempo": 120.0
            },
            {
                "start_time": 2.8431818181818183,
                "end_time": 3.1409090909090907,
                "pitch": 70,
                "velocity": 127,
                "duration": 0.2977272727272724,
                "tempo": 120.0
            },
            {
                "start_time": 3.1590909090909087,
                "end_time": 3.459090909090909,
                "pitch": 72,
                "velocity": 127,
                "duration": 0.30000000000000027,
                "tempo": 120.0
            },
            {
                "start_time": 3.4909090909090907,
                "end_time": 3.7909090909090906,
                "pitch": 68,
                "velocity": 127,
                "duration": 0.2999999999999998,
                "tempo": 120.0
            },
            {
                "start_time": 3.809090909090909,
                "end_time": 4.5227272727272725,
                "pitch": 66,
                "velocity": 127,
                "duration": 0.7136363636363634,
                "tempo": 120.0
            },
            {
                "start_time": 4.538636363636363,
                "end_time": 4.756818181818182,
                "pitch": 70,
                "velocity": 127,
                "duration": 0.2181818181818187,
                "tempo": 120.0
            },
            {
                "start_time": 4.7749999999999995,
                "end_time": 5.715909090909091,
                "pitch": 78,
                "velocity": 127,
                "duration": 0.9409090909090914,
                "tempo": 120.0
            },
            {
                "start_time": 5.7340909090909085,
                "end_time": 6.036363636363636,
                "pitch": 77,
                "velocity": 127,
                "duration": 0.3022727272727277,
                "tempo": 120.0
            },
            {
                "start_time": 6.052272727272727,
                "end_time": 6.3568181818181815,
                "pitch": 75,
                "velocity": 127,
                "duration": 0.3045454545454547,
                "tempo": 120.0
            },
            {
                "start_time": 6.375,
                "end_time": 6.681818181818182,
                "pitch": 73,
                "velocity": 127,
                "duration": 0.30681818181818166,
                "tempo": 120.0
            },
            {
                "start_time": 6.715909090909091,
                "end_time": 7.640909090909091,
                "pitch": 72,
                "velocity": 127,
                "duration": 0.9249999999999998,
                "tempo": 120.0
            },
            {
                "start_time": 7.656818181818181,
                "end_time": 8.35909090909091,
                "pitch": 65,
                "velocity": 127,
                "duration": 0.702272727272728,
                "tempo": 120.0
            },
            {
                "start_time": 8.377272727272727,
                "end_time": 8.611363636363636,
                "pitch": 70,
                "velocity": 127,
                "duration": 0.23409090909090935,
                "tempo": 120.0
            },
            {
                "start_time": 8.627272727272727,
                "end_time": 9.572727272727272,
                "pitch": 77,
                "velocity": 127,
                "duration": 0.9454545454545453,
                "tempo": 120.0
            },
            {
                "start_time": 9.59090909090909,
                "end_time": 9.886363636363637,
                "pitch": 75,
                "velocity": 127,
                "duration": 0.29545454545454675,
                "tempo": 120.0
            },
            {
                "start_time": 9.918181818181818,
                "end_time": 10.21590909090909,
                "pitch": 73,
                "velocity": 127,
                "duration": 0.29772727272727195,
                "tempo": 120.0
            },
            {
                "start_time": 10.23409090909091,
                "end_time": 10.536363636363635,
                "pitch": 72,
                "velocity": 127,
                "duration": 0.3022727272727259,
                "tempo": 120.0
            },
            {
                "start_time": 10.552272727272726,
                "end_time": 10.854545454545454,
                "pitch": 70,
                "velocity": 127,
                "duration": 0.3022727272727277,
                "tempo": 120.0
            },
            {
                "start_time": 10.872727272727273,
                "end_time": 11.177272727272726,
                "pitch": 72,
                "velocity": 127,
                "duration": 0.3045454545454529,
                "tempo": 120.0
            },
            {
                "start_time": 11.193181818181818,
                "end_time": 11.5,
                "pitch": 68,
                "velocity": 127,
                "duration": 0.30681818181818166,
                "tempo": 120.0
            },
            {
                "start_time": 11.534090909090908,
                "end_time": 12.236363636363636,
                "pitch": 66,
                "velocity": 127,
                "duration": 0.702272727272728,
                "tempo": 120.0
            },
            {
                "start_time": 12.252272727272727,
                "end_time": 12.46590909090909,
                "pitch": 70,
                "velocity": 127,
                "duration": 0.21363636363636296,
                "tempo": 120.0
            },
            {
                "start_time": 12.48181818181818,
                "end_time": 13.434090909090909,
                "pitch": 78,
                "velocity": 127,
                "duration": 0.952272727272728,
                "tempo": 120.0
            },
            {
                "start_time": 13.452272727272726,
                "end_time": 13.759090909090908,
                "pitch": 77,
                "velocity": 127,
                "duration": 0.30681818181818166,
                "tempo": 120.0
            },
            {
                "start_time": 13.777272727272727,
                "end_time": 14.081818181818182,
                "pitch": 75,
                "velocity": 127,
                "duration": 0.3045454545454547,
                "tempo": 120.0
            },
            {
                "start_time": 14.097727272727273,
                "end_time": 14.399999999999999,
                "pitch": 73,
                "velocity": 127,
                "duration": 0.3022727272727259,
                "tempo": 120.0
            },
            {
                "start_time": 14.418181818181818,
                "end_time": 15.359090909090908,
                "pitch": 65,
                "velocity": 127,
                "duration": 0.9409090909090896,
                "tempo": 120.0
            },
            {
                "start_time": 80.94090909090909,
                "end_time": 80.975,
                "pitch": 65,
                "velocity": 127,
                "duration": 0.03409090909090651,
                "tempo": 120.0
            }
        ],
        "Lead 2 (sawtooth)": [
            {
                "start_time": 15.377272727272727,
                "end_time": 15.854545454545454,
                "pitch": 51,
                "velocity": 64,
                "duration": 0.4772727272727266,
                "tempo": 120.0
            },
            {
                "start_time": 15.870454545454544,
                "end_time": 16.577272727272728,
                "pitch": 53,
                "velocity": 64,
                "duration": 0.7068181818181838,
                "tempo": 120.0
            },
            {
                "start_time": 16.59318181818182,
                "end_time": 16.695454545454545,
                "pitch": 53,
                "velocity": 64,
                "duration": 0.10227272727272663,
                "tempo": 120.0
            },
            {
                "start_time": 16.711363636363636,
                "end_time": 16.811363636363634,
                "pitch": 54,
                "velocity": 64,
                "duration": 0.09999999999999787,
                "tempo": 120.0
            },
            {
                "start_time": 16.829545454545453,
                "end_time": 16.929545454545455,
                "pitch": 53,
                "velocity": 64,
                "duration": 0.10000000000000142,
                "tempo": 120.0
            },
            {
                "start_time": 16.96363636363636,
                "end_time": 17.063636363636363,
                "pitch": 51,
                "velocity": 64,
                "duration": 0.10000000000000142,
                "tempo": 120.0
            },
            {
                "start_time": 17.081818181818182,
                "end_time": 17.18181818181818,
                "pitch": 49,
                "velocity": 64,
                "duration": 0.09999999999999787,
                "tempo": 120.0
            },
            {
                "start_time": 17.19772727272727,
                "end_time": 17.3,
                "pitch": 48,
                "velocity": 64,
                "duration": 0.10227272727273018,
                "tempo": 120.0
            },
            {
                "start_time": 17.31590909090909,
                "end_time": 17.775,
                "pitch": 51,
                "velocity": 64,
                "duration": 0.4590909090909072,
                "tempo": 120.0
            },
            {
                "start_time": 17.79090909090909,
                "end_time": 18.270454545454545,
                "pitch": 53,
                "velocity": 64,
                "duration": 0.4795454545454554,
                "tempo": 120.0
            },
            {
                "start_time": 18.402272727272727,
                "end_time": 18.5,
                "pitch": 48,
                "velocity": 64,
                "duration": 0.09772727272727266,
                "tempo": 120.0
            },
            {
                "start_time": 18.63181818181818,
                "end_time": 18.729545454545455,
                "pitch": 49,
                "velocity": 64,
                "duration": 0.09772727272727622,
                "tempo": 120.0
            },
            {
                "start_time": 18.761363636363637,
                "end_time": 19.222727272727273,
                "pitch": 49,
                "velocity": 64,
                "duration": 0.461363636363636,
                "tempo": 120.0
            },
            {
                "start_time": 19.24090909090909,
                "end_time": 19.7,
                "pitch": 51,
                "velocity": 64,
                "duration": 0.45909090909091077,
                "tempo": 120.0
            },
            {
                "start_time": 19.71590909090909,
                "end_time": 20.420454545454543,
                "pitch": 53,
                "velocity": 64,
                "duration": 0.7045454545454533,
                "tempo": 120.0
            },
            {
                "start_time": 20.436363636363634,
                "end_time": 20.536363636363635,
                "pitch": 53,
                "velocity": 64,
                "duration": 0.10000000000000142,
                "tempo": 120.0
            },
            {
                "start_time": 20.570454545454545,
                "end_time": 20.670454545454543,
                "pitch": 54,
                "velocity": 64,
                "duration": 0.09999999999999787,
                "tempo": 120.0
            },
            {
                "start_time": 20.686363636363634,
                "end_time": 20.788636363636364,
                "pitch": 53,
                "velocity": 64,
                "duration": 0.10227272727273018,
                "tempo": 120.0
            },
            {
                "start_time": 20.80681818181818,
                "end_time": 20.909090909090907,
                "pitch": 51,
                "velocity": 64,
                "duration": 0.10227272727272663,
                "tempo": 120.0
            },
            {
                "start_time": 20.925,
                "end_time": 21.027272727272727,
                "pitch": 49,
                "velocity": 64,
                "duration": 0.10227272727272663,
                "tempo": 120.0
            },
            {
                "start_time": 21.045454545454543,
                "end_time": 21.147727272727273,
                "pitch": 48,
                "velocity": 64,
                "duration": 0.10227272727273018,
                "tempo": 120.0
            },
            {
                "start_time": 21.18181818181818,
                "end_time": 21.634090909090908,
                "pitch": 51,
                "velocity": 64,
                "duration": 0.45227272727272805,
                "tempo": 120.0
            },
            {
                "start_time": 21.652272727272727,
                "end_time": 22.111363636363635,
                "pitch": 53,
                "velocity": 64,
                "duration": 0.4590909090909072,
                "tempo": 120.0
            },
            {
                "start_time": 22.127272727272725,
                "end_time": 22.229545454545452,
                "pitch": 60,
                "velocity": 64,
                "duration": 0.10227272727272663,
                "tempo": 120.0
            },
            {
                "start_time": 22.245454545454546,
                "end_time": 22.345454545454544,
                "pitch": 66,
                "velocity": 64,
                "duration": 0.09999999999999787,
                "tempo": 120.0
            },
            {
                "start_time": 22.379545454545454,
                "end_time": 22.479545454545452,
                "pitch": 65,
                "velocity": 64,
                "duration": 0.09999999999999787,
                "tempo": 120.0
            },
            {
                "start_time": 22.49772727272727,
                "end_time": 22.597727272727273,
                "pitch": 63,
                "velocity": 64,
                "duration": 0.10000000000000142,
                "tempo": 120.0
            },
            {
                "start_time": 22.61590909090909,
                "end_time": 22.71818181818182,
                "pitch": 61,
                "velocity": 64,
                "duration": 0.10227272727273018,
                "tempo": 120.0
            },
            {
                "start_time": 22.73409090909091,
                "end_time": 22.836363636363636,
                "pitch": 58,
                "velocity": 64,
                "duration": 0.10227272727272663,
                "tempo": 120.0
            },
            {
                "start_time": 22.854545454545452,
                "end_time": 22.956818181818182,
                "pitch": 61,
                "velocity": 64,
                "duration": 0.10227272727273018,
                "tempo": 120.0
            },
            {
                "start_time": 22.99090909090909,
                "end_time": 23.09318181818182,
                "pitch": 65,
                "velocity": 64,
                "duration": 0.10227272727273018,
                "tempo": 120.0
            },
            {
                "start_time": 38.54090909090909,
                "end_time": 39.002272727272725,
                "pitch": 51,
                "velocity": 64,
                "duration": 0.461363636363636,
                "tempo": 120.0
            },
            {
                "start_time": 39.018181818181816,
                "end_time": 39.71818181818182,
                "pitch": 53,
                "velocity": 64,
                "duration": 0.7000000000000028,
                "tempo": 120.0
            },
            {
                "start_time": 39.73409090909091,
                "end_time": 39.83181818181818,
                "pitch": 53,
                "velocity": 64,
                "duration": 0.09772727272726911,
                "tempo": 120.0
            },
            {
                "start_time": 39.86590909090909,
                "end_time": 39.96363636363636,
                "pitch": 54,
                "velocity": 64,
                "duration": 0.09772727272726911,
                "tempo": 120.0
            },
            {
                "start_time": 39.97954545454545,
                "end_time": 40.08181818181818,
                "pitch": 53,
                "velocity": 64,
                "duration": 0.10227272727272663,
                "tempo": 120.0
            },
            {
                "start_time": 40.1,
                "end_time": 40.20227272727273,
                "pitch": 51,
                "velocity": 64,
                "duration": 0.10227272727272663,
                "tempo": 120.0
            },
            {
                "start_time": 40.220454545454544,
                "end_time": 40.32272727272727,
                "pitch": 49,
                "velocity": 64,
                "duration": 0.10227272727272663,
                "tempo": 120.0
            },
            {
                "start_time": 40.33863636363636,
                "end_time": 40.44090909090909,
                "pitch": 48,
                "velocity": 64,
                "duration": 0.10227272727272663,
                "tempo": 120.0
            },
            {
                "start_time": 40.475,
                "end_time": 40.925,
                "pitch": 51,
                "velocity": 64,
                "duration": 0.44999999999999574,
                "tempo": 120.0
            },
            {
                "start_time": 40.94318181818181,
                "end_time": 41.402272727272724,
                "pitch": 53,
                "velocity": 64,
                "duration": 0.45909090909091077,
                "tempo": 120.0
            },
            {
                "start_time": 41.53636363636363,
                "end_time": 41.63636363636363,
                "pitch": 48,
                "velocity": 64,
                "duration": 0.10000000000000142,
                "tempo": 120.0
            },
            {
                "start_time": 41.78636363636363,
                "end_time": 41.88863636363636,
                "pitch": 49,
                "velocity": 64,
                "duration": 0.10227272727272663,
                "tempo": 120.0
            },
            {
                "start_time": 41.90454545454545,
                "end_time": 42.38409090909091,
                "pitch": 49,
                "velocity": 64,
                "duration": 0.47954545454545894,
                "tempo": 120.0
            },
            {
                "start_time": 42.4,
                "end_time": 42.85454545454545,
                "pitch": 51,
                "velocity": 64,
                "duration": 0.45454545454545325,
                "tempo": 120.0
            },
            {
                "start_time": 42.88636363636363,
                "end_time": 43.584090909090904,
                "pitch": 53,
                "velocity": 64,
                "duration": 0.6977272727272705,
                "tempo": 120.0
            },
            {
                "start_time": 43.6,
                "end_time": 43.69772727272727,
                "pitch": 53,
                "velocity": 64,
                "duration": 0.09772727272726911,
                "tempo": 120.0
            },
            {
                "start_time": 43.715909090909086,
                "end_time": 43.81363636363636,
                "pitch": 54,
                "velocity": 64,
                "duration": 0.09772727272727622,
                "tempo": 120.0
            },
            {
                "start_time": 43.82954545454545,
                "end_time": 43.93181818181818,
                "pitch": 53,
                "velocity": 64,
                "duration": 0.10227272727272663,
                "tempo": 120.0
            },
            {
                "start_time": 43.94772727272727,
                "end_time": 44.05227272727272,
                "pitch": 51,
                "velocity": 64,
                "duration": 0.10454545454545183,
                "tempo": 120.0
            },
            {
                "start_time": 44.086363636363636,
                "end_time": 44.18863636363636,
                "pitch": 49,
                "velocity": 64,
                "duration": 0.10227272727272663,
                "tempo": 120.0
            },
            {
                "start_time": 44.20454545454545,
                "end_time": 44.30681818181818,
                "pitch": 48,
                "velocity": 64,
                "duration": 0.10227272727272663,
                "tempo": 120.0
            },
            {
                "start_time": 44.324999999999996,
                "end_time": 44.78409090909091,
                "pitch": 51,
                "velocity": 64,
                "duration": 0.45909090909091077,
                "tempo": 120.0
            },
            {
                "start_time": 44.8,
                "end_time": 45.26136363636363,
                "pitch": 53,
                "velocity": 64,
                "duration": 0.461363636363636,
                "tempo": 120.0
            },
            {
                "start_time": 45.29545454545455,
                "end_time": 45.39545454545454,
                "pitch": 60,
                "velocity": 64,
                "duration": 0.09999999999999432,
                "tempo": 120.0
            },
            {
                "start_time": 45.41136363636363,
                "end_time": 45.51136363636363,
                "pitch": 66,
                "velocity": 64,
                "duration": 0.10000000000000142,
                "tempo": 120.0
            },
            {
                "start_time": 45.527272727272724,
                "end_time": 45.627272727272725,
                "pitch": 65,
                "velocity": 64,
                "duration": 0.10000000000000142,
                "tempo": 120.0
            },
            {
                "start_time": 45.64545454545454,
                "end_time": 45.74545454545454,
                "pitch": 63,
                "velocity": 64,
                "duration": 0.10000000000000142,
                "tempo": 120.0
            },
            {
                "start_time": 45.76136363636363,
                "end_time": 45.85909090909091,
                "pitch": 61,
                "velocity": 64,
                "duration": 0.09772727272727622,
                "tempo": 120.0
            },
            {
                "start_time": 45.893181818181816,
                "end_time": 45.99090909090909,
                "pitch": 58,
                "velocity": 64,
                "duration": 0.09772727272727622,
                "tempo": 120.0
            },
            {
                "start_time": 46.00681818181818,
                "end_time": 46.10681818181818,
                "pitch": 61,
                "velocity": 64,
                "duration": 0.09999999999999432,
                "tempo": 120.0
            },
            {
                "start_time": 46.12272727272727,
                "end_time": 46.220454545454544,
                "pitch": 65,
                "velocity": 64,
                "duration": 0.09772727272727622,
                "tempo": 120.0
            }
        ],
        "Trumpet": [
            {
                "start_time": 23.10909090909091,
                "end_time": 23.81590909090909,
                "pitch": 72,
                "velocity": 64,
                "duration": 0.706818181818182,
                "tempo": 120.0
            },
            {
                "start_time": 23.831818181818182,
                "end_time": 23.9,
                "pitch": 72,
                "velocity": 64,
                "duration": 0.06818181818181657,
                "tempo": 120.0
            },
            {
                "start_time": 23.91590909090909,
                "end_time": 23.96590909090909,
                "pitch": 73,
                "velocity": 64,
                "duration": 0.05000000000000071,
                "tempo": 120.0
            },
            {
                "start_time": 24.0,
                "end_time": 24.049999999999997,
                "pitch": 72,
                "velocity": 64,
                "duration": 0.04999999999999716,
                "tempo": 120.0
            },
            {
                "start_time": 24.068181818181817,
                "end_time": 24.761363636363637,
                "pitch": 70,
                "velocity": 64,
                "duration": 0.6931818181818201,
                "tempo": 120.0
            },
            {
                "start_time": 24.795454545454543,
                "end_time": 24.845454545454544,
                "pitch": 70,
                "velocity": 64,
                "duration": 0.05000000000000071,
                "tempo": 120.0
            },
            {
                "start_time": 24.863636363636363,
                "end_time": 24.929545454545455,
                "pitch": 73,
                "velocity": 64,
                "duration": 0.06590909090909136,
                "tempo": 120.0
            },
            {
                "start_time": 24.945454545454545,
                "end_time": 25.013636363636362,
                "pitch": 77,
                "velocity": 64,
                "duration": 0.06818181818181657,
                "tempo": 120.0
            },
            {
                "start_time": 25.029545454545453,
                "end_time": 25.743181818181817,
                "pitch": 78,
                "velocity": 64,
                "duration": 0.7136363636363647,
                "tempo": 120.0
            },
            {
                "start_time": 25.761363636363637,
                "end_time": 25.827272727272724,
                "pitch": 70,
                "velocity": 64,
                "duration": 0.06590909090908781,
                "tempo": 120.0
            },
            {
                "start_time": 25.845454545454544,
                "end_time": 25.911363636363635,
                "pitch": 73,
                "velocity": 64,
                "duration": 0.06590909090909136,
                "tempo": 120.0
            },
            {
                "start_time": 25.929545454545455,
                "end_time": 25.979545454545452,
                "pitch": 77,
                "velocity": 64,
                "duration": 0.04999999999999716,
                "tempo": 120.0
            },
            {
                "start_time": 26.013636363636362,
                "end_time": 26.71363636363636,
                "pitch": 80,
                "velocity": 64,
                "duration": 0.6999999999999993,
                "tempo": 120.0
            },
            {
                "start_time": 26.729545454545452,
                "end_time": 26.779545454545453,
                "pitch": 70,
                "velocity": 64,
                "duration": 0.05000000000000071,
                "tempo": 120.0
            },
            {
                "start_time": 26.811363636363634,
                "end_time": 26.861363636363635,
                "pitch": 73,
                "velocity": 64,
                "duration": 0.05000000000000071,
                "tempo": 120.0
            },
            {
                "start_time": 26.877272727272725,
                "end_time": 26.943181818181817,
                "pitch": 77,
                "velocity": 64,
                "duration": 0.06590909090909136,
                "tempo": 120.0
            },
            {
                "start_time": 26.959090909090907,
                "end_time": 27.663636363636364,
                "pitch": 82,
                "velocity": 64,
                "duration": 0.7045454545454568,
                "tempo": 120.0
            },
            {
                "start_time": 27.68181818181818,
                "end_time": 27.74772727272727,
                "pitch": 70,
                "velocity": 64,
                "duration": 0.06590909090909136,
                "tempo": 120.0
            },
            {
                "start_time": 27.76590909090909,
                "end_time": 27.831818181818182,
                "pitch": 73,
                "velocity": 64,
                "duration": 0.06590909090909136,
                "tempo": 120.0
            },
            {
                "start_time": 27.849999999999998,
                "end_time": 27.91590909090909,
                "pitch": 77,
                "velocity": 64,
                "duration": 0.06590909090909136,
                "tempo": 120.0
            },
            {
                "start_time": 27.93409090909091,
                "end_time": 28.64772727272727,
                "pitch": 84,
                "velocity": 64,
                "duration": 0.7136363636363612,
                "tempo": 120.0
            },
            {
                "start_time": 28.66363636363636,
                "end_time": 28.88181818181818,
                "pitch": 85,
                "velocity": 64,
                "duration": 0.2181818181818187,
                "tempo": 120.0
            },
            {
                "start_time": 28.9,
                "end_time": 29.593181818181815,
                "pitch": 84,
                "velocity": 64,
                "duration": 0.6931818181818166,
                "tempo": 120.0
            },
            {
                "start_time": 29.627272727272725,
                "end_time": 29.845454545454544,
                "pitch": 85,
                "velocity": 64,
                "duration": 0.2181818181818187,
                "tempo": 120.0
            },
            {
                "start_time": 29.861363636363635,
                "end_time": 30.80681818181818,
                "pitch": 82,
                "velocity": 64,
                "duration": 0.9454545454545453,
                "tempo": 120.0
            },
            {
                "start_time": 30.84090909090909,
                "end_time": 31.293181818181818,
                "pitch": 85,
                "velocity": 64,
                "duration": 0.45227272727272805,
                "tempo": 120.0
            },
            {
                "start_time": 31.311363636363634,
                "end_time": 31.770454545454545,
                "pitch": 89,
                "velocity": 64,
                "duration": 0.45909090909091077,
                "tempo": 120.0
            },
            {
                "start_time": 31.786363636363635,
                "end_time": 32.25681818181818,
                "pitch": 84,
                "velocity": 64,
                "duration": 0.47045454545454746,
                "tempo": 120.0
            },
            {
                "start_time": 32.27272727272727,
                "end_time": 32.74090909090909,
                "pitch": 87,
                "velocity": 64,
                "duration": 0.4681818181818187,
                "tempo": 120.0
            },
            {
                "start_time": 32.75681818181818,
                "end_time": 33.21818181818182,
                "pitch": 82,
                "velocity": 64,
                "duration": 0.461363636363636,
                "tempo": 120.0
            },
            {
                "start_time": 33.252272727272725,
                "end_time": 33.70227272727273,
                "pitch": 85,
                "velocity": 64,
                "duration": 0.45000000000000284,
                "tempo": 120.0
            },
            {
                "start_time": 33.71818181818182,
                "end_time": 33.94772727272727,
                "pitch": 84,
                "velocity": 64,
                "duration": 0.22954545454545183,
                "tempo": 120.0
            },
            {
                "start_time": 33.96363636363636,
                "end_time": 34.41136363636363,
                "pitch": 82,
                "velocity": 64,
                "duration": 0.44772727272727053,
                "tempo": 120.0
            },
            {
                "start_time": 34.44318181818181,
                "end_time": 34.66136363636363,
                "pitch": 80,
                "velocity": 64,
                "duration": 0.2181818181818187,
                "tempo": 120.0
            },
            {
                "start_time": 34.67727272727272,
                "end_time": 34.779545454545456,
                "pitch": 85,
                "velocity": 64,
                "duration": 0.10227272727273373,
                "tempo": 120.0
            },
            {
                "start_time": 34.79772727272727,
                "end_time": 34.9,
                "pitch": 89,
                "velocity": 64,
                "duration": 0.10227272727272663,
                "tempo": 120.0
            },
            {
                "start_time": 34.91590909090909,
                "end_time": 35.018181818181816,
                "pitch": 87,
                "velocity": 64,
                "duration": 0.10227272727272663,
                "tempo": 120.0
            },
            {
                "start_time": 35.05227272727272,
                "end_time": 35.154545454545456,
                "pitch": 85,
                "velocity": 64,
                "duration": 0.10227272727273373,
                "tempo": 120.0
            },
            {
                "start_time": 35.17272727272727,
                "end_time": 35.27272727272727,
                "pitch": 84,
                "velocity": 64,
                "duration": 0.10000000000000142,
                "tempo": 120.0
            },
            {
                "start_time": 35.288636363636364,
                "end_time": 35.388636363636365,
                "pitch": 87,
                "velocity": 64,
                "duration": 0.10000000000000142,
                "tempo": 120.0
            },
            {
                "start_time": 35.40681818181818,
                "end_time": 35.50681818181818,
                "pitch": 85,
                "velocity": 64,
                "duration": 0.10000000000000142,
                "tempo": 120.0
            },
            {
                "start_time": 35.52272727272727,
                "end_time": 35.62272727272727,
                "pitch": 84,
                "velocity": 64,
                "duration": 0.09999999999999432,
                "tempo": 120.0
            },
            {
                "start_time": 35.65681818181818,
                "end_time": 35.75681818181818,
                "pitch": 82,
                "velocity": 64,
                "duration": 0.10000000000000142,
                "tempo": 120.0
            },
            {
                "start_time": 35.77272727272727,
                "end_time": 35.875,
                "pitch": 85,
                "velocity": 64,
                "duration": 0.10227272727272663,
                "tempo": 120.0
            },
            {
                "start_time": 35.89090909090909,
                "end_time": 35.99090909090909,
                "pitch": 84,
                "velocity": 64,
                "duration": 0.10000000000000142,
                "tempo": 120.0
            },
            {
                "start_time": 36.00909090909091,
                "end_time": 36.10909090909091,
                "pitch": 82,
                "velocity": 64,
                "duration": 0.10000000000000142,
                "tempo": 120.0
            },
            {
                "start_time": 36.127272727272725,
                "end_time": 36.225,
                "pitch": 80,
                "velocity": 64,
                "duration": 0.09772727272727622,
                "tempo": 120.0
            },
            {
                "start_time": 36.25681818181818,
                "end_time": 36.35681818181818,
                "pitch": 84,
                "velocity": 64,
                "duration": 0.09999999999999432,
                "tempo": 120.0
            },
            {
                "start_time": 36.37272727272727,
                "end_time": 36.470454545454544,
                "pitch": 82,
                "velocity": 64,
                "duration": 0.09772727272727622,
                "tempo": 120.0
            },
            {
                "start_time": 36.486363636363635,
                "end_time": 36.586363636363636,
                "pitch": 80,
                "velocity": 64,
                "duration": 0.10000000000000142,
                "tempo": 120.0
            },
            {
                "start_time": 36.60227272727273,
                "end_time": 36.70227272727273,
                "pitch": 78,
                "velocity": 64,
                "duration": 0.10000000000000142,
                "tempo": 120.0
            },
            {
                "start_time": 36.71818181818182,
                "end_time": 36.81818181818181,
                "pitch": 82,
                "velocity": 64,
                "duration": 0.09999999999999432,
                "tempo": 120.0
            },
            {
                "start_time": 36.85227272727273,
                "end_time": 36.95227272727273,
                "pitch": 80,
                "velocity": 64,
                "duration": 0.10000000000000142,
                "tempo": 120.0
            },
            {
                "start_time": 36.96818181818182,
                "end_time": 37.06818181818181,
                "pitch": 78,
                "velocity": 64,
                "duration": 0.09999999999999432,
                "tempo": 120.0
            },
            {
                "start_time": 37.086363636363636,
                "end_time": 37.18636363636364,
                "pitch": 77,
                "velocity": 64,
                "duration": 0.10000000000000142,
                "tempo": 120.0
            },
            {
                "start_time": 37.20227272727273,
                "end_time": 37.304545454545455,
                "pitch": 80,
                "velocity": 64,
                "duration": 0.10227272727272663,
                "tempo": 120.0
            },
            {
                "start_time": 37.320454545454545,
                "end_time": 37.42045454545455,
                "pitch": 78,
                "velocity": 64,
                "duration": 0.10000000000000142,
                "tempo": 120.0
            },
            {
                "start_time": 37.45454545454545,
                "end_time": 37.55681818181818,
                "pitch": 75,
                "velocity": 64,
                "duration": 0.10227272727272663,
                "tempo": 120.0
            },
            {
                "start_time": 37.57272727272727,
                "end_time": 37.62272727272727,
                "pitch": 75,
                "velocity": 64,
                "duration": 0.04999999999999716,
                "tempo": 120.0
            },
            {
                "start_time": 37.65681818181818,
                "end_time": 37.70681818181818,
                "pitch": 77,
                "velocity": 64,
                "duration": 0.04999999999999716,
                "tempo": 120.0
            },
            {
                "start_time": 37.72272727272727,
                "end_time": 37.788636363636364,
                "pitch": 78,
                "velocity": 64,
                "duration": 0.06590909090909491,
                "tempo": 120.0
            },
            {
                "start_time": 37.80681818181818,
                "end_time": 37.87272727272727,
                "pitch": 80,
                "velocity": 64,
                "duration": 0.06590909090908781,
                "tempo": 120.0
            },
            {
                "start_time": 37.88863636363636,
                "end_time": 37.95681818181818,
                "pitch": 82,
                "velocity": 64,
                "duration": 0.06818181818182012,
                "tempo": 120.0
            },
            {
                "start_time": 37.97272727272727,
                "end_time": 38.02272727272727,
                "pitch": 85,
                "velocity": 64,
                "duration": 0.05000000000000426,
                "tempo": 120.0
            },
            {
                "start_time": 38.05681818181818,
                "end_time": 38.10681818181818,
                "pitch": 84,
                "velocity": 64,
                "duration": 0.04999999999999716,
                "tempo": 120.0
            },
            {
                "start_time": 38.125,
                "end_time": 38.19318181818181,
                "pitch": 82,
                "velocity": 64,
                "duration": 0.06818181818181301,
                "tempo": 120.0
            },
            {
                "start_time": 38.211363636363636,
                "end_time": 38.28181818181818,
                "pitch": 80,
                "velocity": 64,
                "duration": 0.07045454545454533,
                "tempo": 120.0
            },
            {
                "start_time": 38.29772727272727,
                "end_time": 38.36818181818182,
                "pitch": 78,
                "velocity": 64,
                "duration": 0.07045454545454533,
                "tempo": 120.0
            },
            {
                "start_time": 38.38409090909091,
                "end_time": 38.43636363636364,
                "pitch": 77,
                "velocity": 64,
                "duration": 0.05227272727272947,
                "tempo": 120.0
            },
            {
                "start_time": 38.47272727272727,
                "end_time": 38.525,
                "pitch": 78,
                "velocity": 64,
                "duration": 0.05227272727272947,
                "tempo": 120.0
            }
        ],
        "French Horn": [
            {
                "start_time": 46.236363636363635,
                "end_time": 48.152272727272724,
                "pitch": 72,
                "velocity": 64,
                "duration": 1.9159090909090892,
                "tempo": 120.0
            },
            {
                "start_time": 48.17045454545454,
                "end_time": 50.07272727272727,
                "pitch": 72,
                "velocity": 64,
                "duration": 1.902272727272731,
                "tempo": 120.0
            },
            {
                "start_time": 50.10681818181818,
                "end_time": 50.15681818181818,
                "pitch": 72,
                "velocity": 64,
                "duration": 0.05000000000000426,
                "tempo": 120.0
            },
            {
                "start_time": 50.175,
                "end_time": 50.24318181818182,
                "pitch": 73,
                "velocity": 64,
                "duration": 0.06818181818182012,
                "tempo": 120.0
            },
            {
                "start_time": 50.26136363636363,
                "end_time": 50.32954545454545,
                "pitch": 72,
                "velocity": 64,
                "duration": 0.06818181818182012,
                "tempo": 120.0
            },
            {
                "start_time": 50.345454545454544,
                "end_time": 51.752272727272725,
                "pitch": 70,
                "velocity": 64,
                "duration": 1.4068181818181813,
                "tempo": 120.0
            },
            {
                "start_time": 51.768181818181816,
                "end_time": 51.836363636363636,
                "pitch": 70,
                "velocity": 64,
                "duration": 0.06818181818182012,
                "tempo": 120.0
            },
            {
                "start_time": 51.85227272727273,
                "end_time": 51.92045454545454,
                "pitch": 73,
                "velocity": 64,
                "duration": 0.06818181818181301,
                "tempo": 120.0
            },
            {
                "start_time": 51.93636363636363,
                "end_time": 52.002272727272725,
                "pitch": 77,
                "velocity": 64,
                "duration": 0.06590909090909491,
                "tempo": 120.0
            },
            {
                "start_time": 52.02045454545454,
                "end_time": 52.73181818181818,
                "pitch": 78,
                "velocity": 64,
                "duration": 0.711363636363636,
                "tempo": 120.0
            },
            {
                "start_time": 52.74772727272727,
                "end_time": 52.81590909090909,
                "pitch": 77,
                "velocity": 64,
                "duration": 0.06818181818182012,
                "tempo": 120.0
            },
            {
                "start_time": 52.83181818181818,
                "end_time": 52.88181818181818,
                "pitch": 78,
                "velocity": 64,
                "duration": 0.05000000000000426,
                "tempo": 120.0
            },
            {
                "start_time": 52.91590909090909,
                "end_time": 52.965909090909086,
                "pitch": 77,
                "velocity": 64,
                "duration": 0.04999999999999716,
                "tempo": 120.0
            },
            {
                "start_time": 52.98181818181818,
                "end_time": 53.277272727272724,
                "pitch": 75,
                "velocity": 64,
                "duration": 0.29545454545454675,
                "tempo": 120.0
            },
            {
                "start_time": 53.309090909090905,
                "end_time": 53.60909090909091,
                "pitch": 73,
                "velocity": 64,
                "duration": 0.30000000000000426,
                "tempo": 120.0
            },
            {
                "start_time": 53.625,
                "end_time": 53.92727272727272,
                "pitch": 72,
                "velocity": 64,
                "duration": 0.30227272727272236,
                "tempo": 120.0
            },
            {
                "start_time": 53.945454545454545,
                "end_time": 54.65,
                "pitch": 68,
                "velocity": 64,
                "duration": 0.7045454545454533,
                "tempo": 120.0
            },
            {
                "start_time": 54.66590909090909,
                "end_time": 54.77045454545454,
                "pitch": 68,
                "velocity": 64,
                "duration": 0.10454545454545183,
                "tempo": 120.0
            },
            {
                "start_time": 54.78636363636363,
                "end_time": 54.88863636363636,
                "pitch": 72,
                "velocity": 64,
                "duration": 0.10227272727272663,
                "tempo": 120.0
            },
            {
                "start_time": 54.92272727272727,
                "end_time": 55.849999999999994,
                "pitch": 77,
                "velocity": 64,
                "duration": 0.9272727272727224,
                "tempo": 120.0
            },
            {
                "start_time": 55.865909090909085,
                "end_time": 56.168181818181814,
                "pitch": 73,
                "velocity": 64,
                "duration": 0.30227272727272947,
                "tempo": 120.0
            },
            {
                "start_time": 56.184090909090905,
                "end_time": 56.486363636363635,
                "pitch": 72,
                "velocity": 64,
                "duration": 0.30227272727272947,
                "tempo": 120.0
            },
            {
                "start_time": 56.52045454545454,
                "end_time": 56.81818181818181,
                "pitch": 70,
                "velocity": 64,
                "duration": 0.29772727272727195,
                "tempo": 120.0
            },
            {
                "start_time": 56.836363636363636,
                "end_time": 57.143181818181816,
                "pitch": 69,
                "velocity": 64,
                "duration": 0.3068181818181799,
                "tempo": 120.0
            },
            {
                "start_time": 57.15909090909091,
                "end_time": 57.46363636363636,
                "pitch": 70,
                "velocity": 64,
                "duration": 0.3045454545454547,
                "tempo": 120.0
            },
            {
                "start_time": 57.48181818181818,
                "end_time": 57.78181818181818,
                "pitch": 72,
                "velocity": 64,
                "duration": 0.30000000000000426,
                "tempo": 120.0
            },
            {
                "start_time": 57.79772727272727,
                "end_time": 59.22272727272727,
                "pitch": 70,
                "velocity": 64,
                "duration": 1.4249999999999972,
                "tempo": 120.0
            },
            {
                "start_time": 59.240909090909085,
                "end_time": 59.461363636363636,
                "pitch": 70,
                "velocity": 64,
                "duration": 0.220454545454551,
                "tempo": 120.0
            },
            {
                "start_time": 59.47954545454545,
                "end_time": 59.54772727272727,
                "pitch": 70,
                "velocity": 64,
                "duration": 0.06818181818182012,
                "tempo": 120.0
            },
            {
                "start_time": 59.56363636363636,
                "end_time": 59.631818181818176,
                "pitch": 73,
                "velocity": 64,
                "duration": 0.06818181818181301,
                "tempo": 120.0
            },
            {
                "start_time": 59.65,
                "end_time": 59.699999999999996,
                "pitch": 77,
                "velocity": 64,
                "duration": 0.04999999999999716,
                "tempo": 120.0
            },
            {
                "start_time": 59.73409090909091,
                "end_time": 60.434090909090905,
                "pitch": 78,
                "velocity": 64,
                "duration": 0.6999999999999957,
                "tempo": 120.0
            },
            {
                "start_time": 60.45227272727272,
                "end_time": 60.5,
                "pitch": 77,
                "velocity": 64,
                "duration": 0.04772727272727906,
                "tempo": 120.0
            },
            {
                "start_time": 60.53409090909091,
                "end_time": 60.58181818181818,
                "pitch": 78,
                "velocity": 64,
                "duration": 0.04772727272727195,
                "tempo": 120.0
            },
            {
                "start_time": 60.599999999999994,
                "end_time": 60.66590909090909,
                "pitch": 77,
                "velocity": 64,
                "duration": 0.06590909090909491,
                "tempo": 120.0
            },
            {
                "start_time": 60.68181818181818,
                "end_time": 60.98181818181818,
                "pitch": 75,
                "velocity": 64,
                "duration": 0.29999999999999716,
                "tempo": 120.0
            },
            {
                "start_time": 60.99772727272727,
                "end_time": 61.3,
                "pitch": 73,
                "velocity": 64,
                "duration": 0.30227272727272947,
                "tempo": 120.0
            },
            {
                "start_time": 61.33181818181818,
                "end_time": 61.63409090909091,
                "pitch": 72,
                "velocity": 64,
                "duration": 0.30227272727272947,
                "tempo": 120.0
            },
            {
                "start_time": 61.652272727272724,
                "end_time": 62.365909090909085,
                "pitch": 68,
                "velocity": 64,
                "duration": 0.7136363636363612,
                "tempo": 120.0
            },
            {
                "start_time": 62.381818181818176,
                "end_time": 62.48181818181818,
                "pitch": 68,
                "velocity": 64,
                "duration": 0.10000000000000142,
                "tempo": 120.0
            },
            {
                "start_time": 62.5,
                "end_time": 62.599999999999994,
                "pitch": 72,
                "velocity": 64,
                "duration": 0.09999999999999432,
                "tempo": 120.0
            },
            {
                "start_time": 62.61818181818182,
                "end_time": 63.559090909090905,
                "pitch": 77,
                "velocity": 64,
                "duration": 0.9409090909090878,
                "tempo": 120.0
            },
            {
                "start_time": 63.57727272727272,
                "end_time": 63.87954545454545,
                "pitch": 80,
                "velocity": 64,
                "duration": 0.30227272727272947,
                "tempo": 120.0
            },
            {
                "start_time": 63.89545454545454,
                "end_time": 64.2,
                "pitch": 78,
                "velocity": 64,
                "duration": 0.3045454545454618,
                "tempo": 120.0
            },
            {
                "start_time": 64.2159090909091,
                "end_time": 64.52499999999999,
                "pitch": 77,
                "velocity": 64,
                "duration": 0.309090909090898,
                "tempo": 120.0
            },
            {
                "start_time": 64.55909090909091,
                "end_time": 65.48409090909091,
                "pitch": 73,
                "velocity": 64,
                "duration": 0.9249999999999972,
                "tempo": 120.0
            }
        ],
        "Church Organ": [
            {
                "start_time": 65.5,
                "end_time": 65.6,
                "pitch": 58,
                "velocity": 80,
                "duration": 0.09999999999999432,
                "tempo": 120.0
            },
            {
                "start_time": 65.61818181818181,
                "end_time": 65.71818181818182,
                "pitch": 60,
                "velocity": 80,
                "duration": 0.10000000000000853,
                "tempo": 120.0
            },
            {
                "start_time": 65.75,
                "end_time": 65.85,
                "pitch": 61,
                "velocity": 80,
                "duration": 0.09999999999999432,
                "tempo": 120.0
            },
            {
                "start_time": 65.86818181818181,
                "end_time": 65.96818181818182,
                "pitch": 65,
                "velocity": 80,
                "duration": 0.10000000000000853,
                "tempo": 120.0
            },
            {
                "start_time": 65.98409090909091,
                "end_time": 66.08636363636363,
                "pitch": 61,
                "velocity": 80,
                "duration": 0.10227272727271952,
                "tempo": 120.0
            },
            {
                "start_time": 66.10454545454544,
                "end_time": 66.20681818181818,
                "pitch": 60,
                "velocity": 80,
                "duration": 0.10227272727273373,
                "tempo": 120.0
            },
            {
                "start_time": 66.22272727272727,
                "end_time": 66.325,
                "pitch": 58,
                "velocity": 80,
                "duration": 0.10227272727273373,
                "tempo": 120.0
            },
            {
                "start_time": 66.35909090909091,
                "end_time": 66.46136363636363,
                "pitch": 60,
                "velocity": 80,
                "duration": 0.10227272727271952,
                "tempo": 120.0
            },
            {
                "start_time": 66.47954545454544,
                "end_time": 66.57954545454545,
                "pitch": 61,
                "velocity": 80,
                "duration": 0.10000000000000853,
                "tempo": 120.0
            },
            {
                "start_time": 66.59545454545454,
                "end_time": 66.69545454545454,
                "pitch": 60,
                "velocity": 80,
                "duration": 0.09999999999999432,
                "tempo": 120.0
            },
            {
                "start_time": 66.71363636363635,
                "end_time": 66.81363636363636,
                "pitch": 61,
                "velocity": 80,
                "duration": 0.10000000000000853,
                "tempo": 120.0
            },
            {
                "start_time": 66.82954545454545,
                "end_time": 66.92954545454545,
                "pitch": 65,
                "velocity": 80,
                "duration": 0.09999999999999432,
                "tempo": 120.0
            },
            {
                "start_time": 66.96363636363635,
                "end_time": 67.06363636363636,
                "pitch": 61,
                "velocity": 80,
                "duration": 0.10000000000000853,
                "tempo": 120.0
            },
            {
                "start_time": 67.07954545454545,
                "end_time": 67.18181818181817,
                "pitch": 60,
                "velocity": 80,
                "duration": 0.10227272727271952,
                "tempo": 120.0
            },
            {
                "start_time": 67.19772727272726,
                "end_time": 67.29772727272727,
                "pitch": 58,
                "velocity": 80,
                "duration": 0.10000000000000853,
                "tempo": 120.0
            },
            {
                "start_time": 67.31590909090909,
                "end_time": 67.41590909090908,
                "pitch": 56,
                "velocity": 80,
                "duration": 0.09999999999999432,
                "tempo": 120.0
            },
            {
                "start_time": 67.43409090909091,
                "end_time": 67.53181818181818,
                "pitch": 58,
                "velocity": 80,
                "duration": 0.09772727272726911,
                "tempo": 120.0
            },
            {
                "start_time": 67.56363636363636,
                "end_time": 67.66363636363636,
                "pitch": 60,
                "velocity": 80,
                "duration": 0.09999999999999432,
                "tempo": 120.0
            },
            {
                "start_time": 67.67954545454545,
                "end_time": 67.77727272727273,
                "pitch": 61,
                "velocity": 80,
                "duration": 0.09772727272728332,
                "tempo": 120.0
            },
            {
                "start_time": 67.79318181818182,
                "end_time": 67.89318181818182,
                "pitch": 65,
                "velocity": 80,
                "duration": 0.09999999999999432,
                "tempo": 120.0
            },
            {
                "start_time": 67.9090909090909,
                "end_time": 68.0090909090909,
                "pitch": 61,
                "velocity": 80,
                "duration": 0.09999999999999432,
                "tempo": 120.0
            },
            {
                "start_time": 68.02727272727273,
                "end_time": 68.12727272727273,
                "pitch": 60,
                "velocity": 80,
                "duration": 0.09999999999999432,
                "tempo": 120.0
            },
            {
                "start_time": 68.16136363636363,
                "end_time": 68.26136363636363,
                "pitch": 58,
                "velocity": 80,
                "duration": 0.09999999999999432,
                "tempo": 120.0
            },
            {
                "start_time": 68.27727272727273,
                "end_time": 68.37954545454545,
                "pitch": 60,
                "velocity": 80,
                "duration": 0.10227272727271952,
                "tempo": 120.0
            },
            {
                "start_time": 68.39545454545454,
                "end_time": 68.49772727272727,
                "pitch": 61,
                "velocity": 80,
                "duration": 0.10227272727273373,
                "tempo": 120.0
            },
            {
                "start_time": 68.51363636363637,
                "end_time": 68.61363636363636,
                "pitch": 60,
                "velocity": 80,
                "duration": 0.09999999999999432,
                "tempo": 120.0
            },
            {
                "start_time": 68.63181818181818,
                "end_time": 68.73181818181818,
                "pitch": 61,
                "velocity": 80,
                "duration": 0.10000000000000853,
                "tempo": 120.0
            },
            {
                "start_time": 68.76590909090909,
                "end_time": 68.86590909090908,
                "pitch": 65,
                "velocity": 80,
                "duration": 0.09999999999999432,
                "tempo": 120.0
            },
            {
                "start_time": 68.8840909090909,
                "end_time": 68.98636363636363,
                "pitch": 61,
                "velocity": 80,
                "duration": 0.10227272727273373,
                "tempo": 120.0
            },
            {
                "start_time": 69.00227272727273,
                "end_time": 69.10454545454544,
                "pitch": 60,
                "velocity": 80,
                "duration": 0.10227272727271952,
                "tempo": 120.0
            },
            {
                "start_time": 69.12272727272727,
                "end_time": 69.225,
                "pitch": 58,
                "velocity": 80,
                "duration": 0.10227272727271952,
                "tempo": 120.0
            },
            {
                "start_time": 69.24090909090908,
                "end_time": 69.34318181818182,
                "pitch": 56,
                "velocity": 80,
                "duration": 0.10227272727273373,
                "tempo": 120.0
            },
            {
                "start_time": 69.37727272727273,
                "end_time": 69.47954545454544,
                "pitch": 58,
                "velocity": 80,
                "duration": 0.10227272727271952,
                "tempo": 120.0
            },
            {
                "start_time": 69.49545454545454,
                "end_time": 69.59772727272727,
                "pitch": 60,
                "velocity": 80,
                "duration": 0.10227272727273373,
                "tempo": 120.0
            },
            {
                "start_time": 69.61363636363636,
                "end_time": 69.71363636363635,
                "pitch": 61,
                "velocity": 80,
                "duration": 0.09999999999999432,
                "tempo": 120.0
            },
            {
                "start_time": 69.73181818181818,
                "end_time": 69.83181818181818,
                "pitch": 65,
                "velocity": 80,
                "duration": 0.09999999999999432,
                "tempo": 120.0
            },
            {
                "start_time": 69.84772727272727,
                "end_time": 69.94772727272726,
                "pitch": 61,
                "velocity": 80,
                "duration": 0.09999999999999432,
                "tempo": 120.0
            },
            {
                "start_time": 69.97954545454544,
                "end_time": 70.07727272727273,
                "pitch": 60,
                "velocity": 80,
                "duration": 0.09772727272728332,
                "tempo": 120.0
            },
            {
                "start_time": 70.09545454545454,
                "end_time": 70.19318181818181,
                "pitch": 58,
                "velocity": 80,
                "duration": 0.09772727272726911,
                "tempo": 120.0
            },
            {
                "start_time": 70.2090909090909,
                "end_time": 70.30909090909091,
                "pitch": 60,
                "velocity": 80,
                "duration": 0.10000000000000853,
                "tempo": 120.0
            },
            {
                "start_time": 70.325,
                "end_time": 70.425,
                "pitch": 61,
                "velocity": 80,
                "duration": 0.09999999999999432,
                "tempo": 120.0
            },
            {
                "start_time": 70.44090909090909,
                "end_time": 70.54090909090908,
                "pitch": 60,
                "velocity": 80,
                "duration": 0.09999999999999432,
                "tempo": 120.0
            },
            {
                "start_time": 70.575,
                "end_time": 70.675,
                "pitch": 61,
                "velocity": 80,
                "duration": 0.09999999999999432,
                "tempo": 120.0
            },
            {
                "start_time": 70.69090909090909,
                "end_time": 70.79090909090908,
                "pitch": 65,
                "velocity": 80,
                "duration": 0.09999999999999432,
                "tempo": 120.0
            },
            {
                "start_time": 70.80681818181817,
                "end_time": 70.9090909090909,
                "pitch": 61,
                "velocity": 80,
                "duration": 0.10227272727273373,
                "tempo": 120.0
            },
            {
                "start_time": 70.925,
                "end_time": 71.02499999999999,
                "pitch": 60,
                "velocity": 80,
                "duration": 0.09999999999999432,
                "tempo": 120.0
            },
            {
                "start_time": 71.04318181818182,
                "end_time": 71.14318181818182,
                "pitch": 58,
                "velocity": 80,
                "duration": 0.09999999999999432,
                "tempo": 120.0
            },
            {
                "start_time": 71.17727272727272,
                "end_time": 71.27727272727273,
                "pitch": 56,
                "velocity": 80,
                "duration": 0.10000000000000853,
                "tempo": 120.0
            },
            {
                "start_time": 71.29545454545455,
                "end_time": 71.39545454545454,
                "pitch": 58,
                "velocity": 80,
                "duration": 0.09999999999999432,
                "tempo": 120.0
            },
            {
                "start_time": 71.41136363636363,
                "end_time": 71.51363636363637,
                "pitch": 60,
                "velocity": 80,
                "duration": 0.10227272727273373,
                "tempo": 120.0
            },
            {
                "start_time": 71.52954545454546,
                "end_time": 71.63181818181818,
                "pitch": 61,
                "velocity": 80,
                "duration": 0.10227272727271952,
                "tempo": 120.0
            },
            {
                "start_time": 71.64772727272727,
                "end_time": 71.74772727272727,
                "pitch": 65,
                "velocity": 80,
                "duration": 0.10000000000000853,
                "tempo": 120.0
            },
            {
                "start_time": 71.78181818181818,
                "end_time": 71.8840909090909,
                "pitch": 61,
                "velocity": 80,
                "duration": 0.10227272727271952,
                "tempo": 120.0
            },
            {
                "start_time": 71.90227272727272,
                "end_time": 72.00454545454545,
                "pitch": 60,
                "velocity": 80,
                "duration": 0.10227272727273373,
                "tempo": 120.0
            },
            {
                "start_time": 72.02045454545454,
                "end_time": 72.12272727272727,
                "pitch": 58,
                "velocity": 80,
                "duration": 0.10227272727273373,
                "tempo": 120.0
            },
            {
                "start_time": 72.14090909090909,
                "end_time": 72.24318181818181,
                "pitch": 60,
                "velocity": 80,
                "duration": 0.10227272727271952,
                "tempo": 120.0
            },
            {
                "start_time": 72.2590909090909,
                "end_time": 72.35681818181818,
                "pitch": 61,
                "velocity": 80,
                "duration": 0.09772727272728332,
                "tempo": 120.0
            },
            {
                "start_time": 72.38863636363637,
                "end_time": 72.48409090909091,
                "pitch": 60,
                "velocity": 80,
                "duration": 0.0954545454545439,
                "tempo": 120.0
            },
            {
                "start_time": 72.5,
                "end_time": 72.59545454545454,
                "pitch": 61,
                "velocity": 80,
                "duration": 0.0954545454545439,
                "tempo": 120.0
            },
            {
                "start_time": 72.61136363636363,
                "end_time": 72.7090909090909,
                "pitch": 63,
                "velocity": 80,
                "duration": 0.09772727272726911,
                "tempo": 120.0
            },
            {
                "start_time": 72.725,
                "end_time": 72.82727272727273,
                "pitch": 65,
                "velocity": 80,
                "duration": 0.10227272727273373,
                "tempo": 120.0
            },
            {
                "start_time": 72.84318181818182,
                "end_time": 72.94545454545454,
                "pitch": 66,
                "velocity": 80,
                "duration": 0.10227272727271952,
                "tempo": 120.0
            },
            {
                "start_time": 72.97954545454544,
                "end_time": 73.08181818181818,
                "pitch": 68,
                "velocity": 80,
                "duration": 0.10227272727273373,
                "tempo": 120.0
            },
            {
                "start_time": 73.1,
                "end_time": 73.20227272727273,
                "pitch": 70,
                "velocity": 80,
                "duration": 0.10227272727273373,
                "tempo": 120.0
            },
            {
                "start_time": 73.22045454545454,
                "end_time": 73.32045454545454,
                "pitch": 58,
                "velocity": 80,
                "duration": 0.09999999999999432,
                "tempo": 120.0
            },
            {
                "start_time": 73.33636363636363,
                "end_time": 73.43863636363636,
                "pitch": 60,
                "velocity": 80,
                "duration": 0.10227272727273373,
                "tempo": 120.0
            },
            {
                "start_time": 73.45454545454545,
                "end_time": 73.55454545454545,
                "pitch": 61,
                "velocity": 80,
                "duration": 0.09999999999999432,
                "tempo": 120.0
            },
            {
                "start_time": 73.58863636363635,
                "end_time": 73.80909090909091,
                "pitch": 65,
                "velocity": 80,
                "duration": 0.22045454545455812,
                "tempo": 120.0
            },
            {
                "start_time": 73.825,
                "end_time": 73.92954545454545,
                "pitch": 58,
                "velocity": 80,
                "duration": 0.10454545454544473,
                "tempo": 120.0
            },
            {
                "start_time": 73.94545454545454,
                "end_time": 74.04772727272727,
                "pitch": 60,
                "velocity": 80,
                "duration": 0.10227272727273373,
                "tempo": 120.0
            },
            {
                "start_time": 74.06590909090909,
                "end_time": 74.16818181818182,
                "pitch": 61,
                "velocity": 80,
                "duration": 0.10227272727273373,
                "tempo": 120.0
            },
            {
                "start_time": 74.20227272727273,
                "end_time": 74.42045454545455,
                "pitch": 65,
                "velocity": 80,
                "duration": 0.2181818181818187,
                "tempo": 120.0
            },
            {
                "start_time": 74.43636363636364,
                "end_time": 74.53863636363636,
                "pitch": 63,
                "velocity": 80,
                "duration": 0.10227272727271952,
                "tempo": 120.0
            },
            {
                "start_time": 74.55454545454545,
                "end_time": 74.65454545454546,
                "pitch": 61,
                "velocity": 80,
                "duration": 0.10000000000000853,
                "tempo": 120.0
            },
            {
                "start_time": 74.67272727272727,
                "end_time": 74.77045454545454,
                "pitch": 60,
                "velocity": 80,
                "duration": 0.09772727272726911,
                "tempo": 120.0
            },
            {
                "start_time": 74.80454545454545,
                "end_time": 74.90227272727272,
                "pitch": 63,
                "velocity": 80,
                "duration": 0.09772727272726911,
                "tempo": 120.0
            },
            {
                "start_time": 74.91818181818182,
                "end_time": 75.01590909090909,
                "pitch": 61,
                "velocity": 80,
                "duration": 0.09772727272726911,
                "tempo": 120.0
            },
            {
                "start_time": 75.0340909090909,
                "end_time": 75.13181818181818,
                "pitch": 60,
                "velocity": 80,
                "duration": 0.09772727272726911,
                "tempo": 120.0
            },
            {
                "start_time": 75.14772727272727,
                "end_time": 75.24772727272727,
                "pitch": 58,
                "velocity": 80,
                "duration": 0.10000000000000853,
                "tempo": 120.0
            },
            {
                "start_time": 75.26590909090909,
                "end_time": 75.36590909090908,
                "pitch": 60,
                "velocity": 80,
                "duration": 0.09999999999999432,
                "tempo": 120.0
            },
            {
                "start_time": 75.39999999999999,
                "end_time": 75.5,
                "pitch": 61,
                "velocity": 80,
                "duration": 0.10000000000000853,
                "tempo": 120.0
            },
            {
                "start_time": 75.51818181818182,
                "end_time": 75.73409090909091,
                "pitch": 65,
                "velocity": 80,
                "duration": 0.2159090909090935,
                "tempo": 120.0
            },
            {
                "start_time": 75.75227272727273,
                "end_time": 75.85227272727272,
                "pitch": 58,
                "velocity": 80,
                "duration": 0.09999999999999432,
                "tempo": 120.0
            },
            {
                "start_time": 75.86818181818181,
                "end_time": 75.96818181818182,
                "pitch": 60,
                "velocity": 80,
                "duration": 0.10000000000000853,
                "tempo": 120.0
            },
            {
                "start_time": 76.00227272727273,
                "end_time": 76.10227272727272,
                "pitch": 61,
                "velocity": 80,
                "duration": 0.09999999999999432,
                "tempo": 120.0
            },
            {
                "start_time": 76.11818181818181,
                "end_time": 76.3409090909091,
                "pitch": 65,
                "velocity": 80,
                "duration": 0.22272727272728332,
                "tempo": 120.0
            },
            {
                "start_time": 76.35681818181818,
                "end_time": 76.4590909090909,
                "pitch": 63,
                "velocity": 80,
                "duration": 0.10227272727271952,
                "tempo": 120.0
            },
            {
                "start_time": 76.47727272727272,
                "end_time": 76.57954545454545,
                "pitch": 61,
                "velocity": 80,
                "duration": 0.10227272727273373,
                "tempo": 120.0
            },
            {
                "start_time": 76.61363636363636,
                "end_time": 76.71363636363635,
                "pitch": 60,
                "velocity": 80,
                "duration": 0.09999999999999432,
                "tempo": 120.0
            },
            {
                "start_time": 76.72954545454544,
                "end_time": 76.82954545454545,
                "pitch": 63,
                "velocity": 80,
                "duration": 0.10000000000000853,
                "tempo": 120.0
            },
            {
                "start_time": 76.84772727272727,
                "end_time": 76.94772727272726,
                "pitch": 61,
                "velocity": 80,
                "duration": 0.09999999999999432,
                "tempo": 120.0
            },
            {
                "start_time": 76.96363636363635,
                "end_time": 77.06363636363636,
                "pitch": 60,
                "velocity": 80,
                "duration": 0.10000000000000853,
                "tempo": 120.0
            },
            {
                "start_time": 77.07954545454545,
                "end_time": 77.17954545454545,
                "pitch": 58,
                "velocity": 80,
                "duration": 0.09999999999999432,
                "tempo": 120.0
            },
            {
                "start_time": 77.21136363636363,
                "end_time": 77.30909090909091,
                "pitch": 60,
                "velocity": 80,
                "duration": 0.09772727272728332,
                "tempo": 120.0
            },
            {
                "start_time": 77.32727272727273,
                "end_time": 77.425,
                "pitch": 61,
                "velocity": 80,
                "duration": 0.09772727272726911,
                "tempo": 120.0
            },
            {
                "start_time": 77.44090909090909,
                "end_time": 77.65681818181818,
                "pitch": 65,
                "velocity": 80,
                "duration": 0.2159090909090935,
                "tempo": 120.0
            },
            {
                "start_time": 77.67272727272727,
                "end_time": 77.77272727272727,
                "pitch": 58,
                "velocity": 80,
                "duration": 0.09999999999999432,
                "tempo": 120.0
            },
            {
                "start_time": 77.80681818181817,
                "end_time": 77.90681818181818,
                "pitch": 60,
                "velocity": 80,
                "duration": 0.10000000000000853,
                "tempo": 120.0
            },
            {
                "start_time": 77.92272727272727,
                "end_time": 78.02272727272727,
                "pitch": 61,
                "velocity": 80,
                "duration": 0.09999999999999432,
                "tempo": 120.0
            },
            {
                "start_time": 78.03863636363636,
                "end_time": 78.25681818181818,
                "pitch": 65,
                "velocity": 80,
                "duration": 0.2181818181818187,
                "tempo": 120.0
            },
            {
                "start_time": 78.27499999999999,
                "end_time": 78.375,
                "pitch": 63,
                "velocity": 80,
                "duration": 0.10000000000000853,
                "tempo": 120.0
            },
            {
                "start_time": 78.4090909090909,
                "end_time": 78.5090909090909,
                "pitch": 61,
                "velocity": 80,
                "duration": 0.09999999999999432,
                "tempo": 120.0
            },
            {
                "start_time": 78.52727272727272,
                "end_time": 78.62954545454545,
                "pitch": 60,
                "velocity": 80,
                "duration": 0.10227272727273373,
                "tempo": 120.0
            },
            {
                "start_time": 78.64545454545454,
                "end_time": 78.74772727272727,
                "pitch": 63,
                "velocity": 80,
                "duration": 0.10227272727273373,
                "tempo": 120.0
            },
            {
                "start_time": 78.76590909090909,
                "end_time": 78.86818181818181,
                "pitch": 61,
                "velocity": 80,
                "duration": 0.10227272727271952,
                "tempo": 120.0
            },
            {
                "start_time": 78.8840909090909,
                "end_time": 78.98636363636363,
                "pitch": 60,
                "velocity": 80,
                "duration": 0.10227272727273373,
                "tempo": 120.0
            },
            {
                "start_time": 79.02045454545454,
                "end_time": 79.12272727272727,
                "pitch": 58,
                "velocity": 80,
                "duration": 0.10227272727273373,
                "tempo": 120.0
            },
            {
                "start_time": 79.13863636363637,
                "end_time": 79.24090909090908,
                "pitch": 60,
                "velocity": 80,
                "duration": 0.10227272727271952,
                "tempo": 120.0
            },
            {
                "start_time": 79.25681818181818,
                "end_time": 79.35681818181818,
                "pitch": 61,
                "velocity": 80,
                "duration": 0.10000000000000853,
                "tempo": 120.0
            },
            {
                "start_time": 79.375,
                "end_time": 79.5909090909091,
                "pitch": 65,
                "velocity": 80,
                "duration": 0.2159090909090935,
                "tempo": 120.0
            },
            {
                "start_time": 79.62272727272727,
                "end_time": 79.72272727272727,
                "pitch": 58,
                "velocity": 80,
                "duration": 0.09999999999999432,
                "tempo": 120.0
            },
            {
                "start_time": 79.73863636363636,
                "end_time": 79.83636363636363,
                "pitch": 60,
                "velocity": 80,
                "duration": 0.09772727272726911,
                "tempo": 120.0
            },
            {
                "start_time": 79.85227272727272,
                "end_time": 79.95227272727273,
                "pitch": 61,
                "velocity": 80,
                "duration": 0.10000000000000853,
                "tempo": 120.0
            },
            {
                "start_time": 79.96818181818182,
                "end_time": 80.18636363636364,
                "pitch": 65,
                "velocity": 80,
                "duration": 0.2181818181818187,
                "tempo": 120.0
            },
            {
                "start_time": 80.22045454545454,
                "end_time": 80.43863636363636,
                "pitch": 73,
                "velocity": 80,
                "duration": 0.2181818181818187,
                "tempo": 120.0
            },
            {
                "start_time": 80.45454545454545,
                "end_time": 80.67272727272727,
                "pitch": 72,
                "velocity": 80,
                "duration": 0.2181818181818187,
                "tempo": 120.0
            },
            {
                "start_time": 80.69090909090909,
                "end_time": 80.925,
                "pitch": 68,
                "velocity": 80,
                "duration": 0.23409090909090935,
                "tempo": 120.0
            }
        ],
        "Acoustic Bass": [
            {
                "start_time": 0.013636363636363636,
                "end_time": 0.2159090909090909,
                "pitch": 34,
                "velocity": 64,
                "duration": 0.20227272727272727,
                "tempo": 120.0
            },
            {
                "start_time": 0.2318181818181818,
                "end_time": 0.3318181818181818,
                "pitch": 34,
                "velocity": 64,
                "duration": 0.09999999999999998,
                "tempo": 120.0
            },
            {
                "start_time": 0.35,
                "end_time": 0.44999999999999996,
                "pitch": 34,
                "velocity": 64,
                "duration": 0.09999999999999998,
                "tempo": 120.0
            },
            {
                "start_time": 0.4659090909090909,
                "end_time": 0.6704545454545454,
                "pitch": 34,
                "velocity": 64,
                "duration": 0.20454545454545453,
                "tempo": 120.0
            },
            {
                "start_time": 0.7022727272727273,
                "end_time": 0.7954545454545454,
                "pitch": 34,
                "velocity": 64,
                "duration": 0.09318181818181814,
                "tempo": 120.0
            },
            {
                "start_time": 0.8113636363636363,
                "end_time": 0.9045454545454545,
                "pitch": 34,
                "velocity": 64,
                "duration": 0.09318181818181825,
                "tempo": 120.0
            },
            {
                "start_time": 0.9204545454545454,
                "end_time": 1.1386363636363637,
                "pitch": 34,
                "velocity": 64,
                "duration": 0.21818181818181825,
                "tempo": 120.0
            },
            {
                "start_time": 1.1545454545454545,
                "end_time": 1.2545454545454544,
                "pitch": 34,
                "velocity": 64,
                "duration": 0.09999999999999987,
                "tempo": 120.0
            },
            {
                "start_time": 1.2886363636363636,
                "end_time": 1.3886363636363637,
                "pitch": 34,
                "velocity": 64,
                "duration": 0.10000000000000009,
                "tempo": 120.0
            },
            {
                "start_time": 1.4045454545454545,
                "end_time": 1.6272727272727272,
                "pitch": 34,
                "velocity": 64,
                "duration": 0.22272727272727266,
                "tempo": 120.0
            },
            {
                "start_time": 1.643181818181818,
                "end_time": 1.7454545454545454,
                "pitch": 34,
                "velocity": 64,
                "duration": 0.10227272727272729,
                "tempo": 120.0
            },
            {
                "start_time": 1.7636363636363634,
                "end_time": 1.8659090909090907,
                "pitch": 34,
                "velocity": 64,
                "duration": 0.10227272727272729,
                "tempo": 120.0
            },
            {
                "start_time": 1.9,
                "end_time": 2.1159090909090907,
                "pitch": 34,
                "velocity": 64,
                "duration": 0.21590909090909083,
                "tempo": 120.0
            },
            {
                "start_time": 2.134090909090909,
                "end_time": 2.234090909090909,
                "pitch": 34,
                "velocity": 64,
                "duration": 0.10000000000000009,
                "tempo": 120.0
            },
            {
                "start_time": 2.25,
                "end_time": 2.35,
                "pitch": 34,
                "velocity": 64,
                "duration": 0.10000000000000009,
                "tempo": 120.0
            },
            {
                "start_time": 2.3659090909090907,
                "end_time": 2.5954545454545452,
                "pitch": 34,
                "velocity": 64,
                "duration": 0.2295454545454545,
                "tempo": 120.0
            },
            {
                "start_time": 2.6113636363636363,
                "end_time": 2.7113636363636364,
                "pitch": 34,
                "velocity": 64,
                "duration": 0.10000000000000009,
                "tempo": 120.0
            },
            {
                "start_time": 2.727272727272727,
                "end_time": 2.8249999999999997,
                "pitch": 34,
                "velocity": 64,
                "duration": 0.09772727272727266,
                "tempo": 120.0
            },
            {
                "start_time": 2.8431818181818183,
                "end_time": 3.059090909090909,
                "pitch": 34,
                "velocity": 64,
                "duration": 0.21590909090909083,
                "tempo": 120.0
            },
            {
                "start_time": 3.090909090909091,
                "end_time": 3.190909090909091,
                "pitch": 34,
                "velocity": 64,
                "duration": 0.10000000000000009,
                "tempo": 120.0
            },
            {
                "start_time": 3.209090909090909,
                "end_time": 3.309090909090909,
                "pitch": 34,
                "velocity": 64,
                "duration": 0.10000000000000009,
                "tempo": 120.0
            },
            {
                "start_time": 3.3249999999999997,
                "end_time": 3.5409090909090906,
                "pitch": 34,
                "velocity": 64,
                "duration": 0.21590909090909083,
                "tempo": 120.0
            },
            {
                "start_time": 3.559090909090909,
                "end_time": 3.6590909090909087,
                "pitch": 34,
                "velocity": 64,
                "duration": 0.09999999999999964,
                "tempo": 120.0
            },
            {
                "start_time": 3.690909090909091,
                "end_time": 3.7909090909090906,
                "pitch": 34,
                "velocity": 64,
                "duration": 0.09999999999999964,
                "tempo": 120.0
            },
            {
                "start_time": 3.809090909090909,
                "end_time": 4.029545454545454,
                "pitch": 42,
                "velocity": 64,
                "duration": 0.22045454545454524,
                "tempo": 120.0
            },
            {
                "start_time": 4.047727272727273,
                "end_time": 4.1499999999999995,
                "pitch": 42,
                "velocity": 64,
                "duration": 0.10227272727272663,
                "tempo": 120.0
            },
            {
                "start_time": 4.168181818181818,
                "end_time": 4.2704545454545455,
                "pitch": 42,
                "velocity": 64,
                "duration": 0.10227272727272751,
                "tempo": 120.0
            },
            {
                "start_time": 4.304545454545455,
                "end_time": 4.5227272727272725,
                "pitch": 42,
                "velocity": 64,
                "duration": 0.2181818181818178,
                "tempo": 120.0
            },
            {
                "start_time": 4.538636363636363,
                "end_time": 4.638636363636364,
                "pitch": 42,
                "velocity": 64,
                "duration": 0.10000000000000053,
                "tempo": 120.0
            },
            {
                "start_time": 4.656818181818181,
                "end_time": 4.756818181818182,
                "pitch": 42,
                "velocity": 64,
                "duration": 0.10000000000000053,
                "tempo": 120.0
            },
            {
                "start_time": 4.7749999999999995,
                "end_time": 5.004545454545454,
                "pitch": 42,
                "velocity": 64,
                "duration": 0.2295454545454545,
                "tempo": 120.0
            },
            {
                "start_time": 5.0204545454545455,
                "end_time": 5.118181818181818,
                "pitch": 42,
                "velocity": 64,
                "duration": 0.09772727272727266,
                "tempo": 120.0
            },
            {
                "start_time": 5.134090909090909,
                "end_time": 5.2340909090909085,
                "pitch": 42,
                "velocity": 64,
                "duration": 0.09999999999999964,
                "tempo": 120.0
            },
            {
                "start_time": 5.25,
                "end_time": 5.465909090909091,
                "pitch": 42,
                "velocity": 64,
                "duration": 0.21590909090909083,
                "tempo": 120.0
            },
            {
                "start_time": 5.5,
                "end_time": 5.6,
                "pitch": 42,
                "velocity": 64,
                "duration": 0.09999999999999964,
                "tempo": 120.0
            },
            {
                "start_time": 5.61590909090909,
                "end_time": 5.715909090909091,
                "pitch": 42,
                "velocity": 64,
                "duration": 0.10000000000000053,
                "tempo": 120.0
            },
            {
                "start_time": 5.7340909090909085,
                "end_time": 5.952272727272727,
                "pitch": 44,
                "velocity": 64,
                "duration": 0.2181818181818187,
                "tempo": 120.0
            },
            {
                "start_time": 5.968181818181818,
                "end_time": 6.0681818181818175,
                "pitch": 44,
                "velocity": 64,
                "duration": 0.09999999999999964,
                "tempo": 120.0
            },
            {
                "start_time": 6.102272727272727,
                "end_time": 6.204545454545454,
                "pitch": 44,
                "velocity": 64,
                "duration": 0.10227272727272751,
                "tempo": 120.0
            },
            {
                "start_time": 6.220454545454545,
                "end_time": 6.4431818181818175,
                "pitch": 44,
                "velocity": 64,
                "duration": 0.22272727272727266,
                "tempo": 120.0
            },
            {
                "start_time": 6.459090909090909,
                "end_time": 6.561363636363636,
                "pitch": 44,
                "velocity": 64,
                "duration": 0.10227272727272663,
                "tempo": 120.0
            },
            {
                "start_time": 6.579545454545454,
                "end_time": 6.681818181818182,
                "pitch": 44,
                "velocity": 64,
                "duration": 0.10227272727272751,
                "tempo": 120.0
            },
            {
                "start_time": 6.715909090909091,
                "end_time": 6.931818181818182,
                "pitch": 44,
                "velocity": 64,
                "duration": 0.21590909090909083,
                "tempo": 120.0
            },
            {
                "start_time": 6.947727272727272,
                "end_time": 7.047727272727272,
                "pitch": 44,
                "velocity": 64,
                "duration": 0.09999999999999964,
                "tempo": 120.0
            },
            {
                "start_time": 7.0659090909090905,
                "end_time": 7.16590909090909,
                "pitch": 44,
                "velocity": 64,
                "duration": 0.09999999999999964,
                "tempo": 120.0
            },
            {
                "start_time": 7.181818181818182,
                "end_time": 7.411363636363636,
                "pitch": 44,
                "velocity": 64,
                "duration": 0.2295454545454545,
                "tempo": 120.0
            },
            {
                "start_time": 7.427272727272727,
                "end_time": 7.527272727272727,
                "pitch": 44,
                "velocity": 64,
                "duration": 0.10000000000000053,
                "tempo": 120.0
            },
            {
                "start_time": 7.543181818181818,
                "end_time": 7.640909090909091,
                "pitch": 44,
                "velocity": 64,
                "duration": 0.09772727272727266,
                "tempo": 120.0
            },
            {
                "start_time": 7.656818181818181,
                "end_time": 7.875,
                "pitch": 34,
                "velocity": 64,
                "duration": 0.2181818181818187,
                "tempo": 120.0
            },
            {
                "start_time": 7.906818181818181,
                "end_time": 8.006818181818181,
                "pitch": 34,
                "velocity": 64,
                "duration": 0.09999999999999964,
                "tempo": 120.0
            },
            {
                "start_time": 8.025,
                "end_time": 8.125,
                "pitch": 34,
                "velocity": 64,
                "duration": 0.09999999999999964,
                "tempo": 120.0
            },
            {
                "start_time": 8.14090909090909,
                "end_time": 8.35909090909091,
                "pitch": 34,
                "velocity": 64,
                "duration": 0.2181818181818187,
                "tempo": 120.0
            },
            {
                "start_time": 8.377272727272727,
                "end_time": 8.477272727272727,
                "pitch": 34,
                "velocity": 64,
                "duration": 0.09999999999999964,
                "tempo": 120.0
            },
            {
                "start_time": 8.511363636363637,
                "end_time": 8.611363636363636,
                "pitch": 34,
                "velocity": 64,
                "duration": 0.09999999999999964,
                "tempo": 120.0
            },
            {
                "start_time": 8.627272727272727,
                "end_time": 8.85,
                "pitch": 34,
                "velocity": 64,
                "duration": 0.22272727272727266,
                "tempo": 120.0
            },
            {
                "start_time": 8.868181818181817,
                "end_time": 8.970454545454546,
                "pitch": 34,
                "velocity": 64,
                "duration": 0.1022727272727284,
                "tempo": 120.0
            },
            {
                "start_time": 8.986363636363636,
                "end_time": 9.088636363636363,
                "pitch": 34,
                "velocity": 64,
                "duration": 0.10227272727272663,
                "tempo": 120.0
            },
            {
                "start_time": 9.122727272727273,
                "end_time": 9.34090909090909,
                "pitch": 34,
                "velocity": 64,
                "duration": 0.21818181818181692,
                "tempo": 120.0
            },
            {
                "start_time": 9.35681818181818,
                "end_time": 9.456818181818182,
                "pitch": 34,
                "velocity": 64,
                "duration": 0.10000000000000142,
                "tempo": 120.0
            },
            {
                "start_time": 9.472727272727273,
                "end_time": 9.572727272727272,
                "pitch": 34,
                "velocity": 64,
                "duration": 0.09999999999999964,
                "tempo": 120.0
            },
            {
                "start_time": 9.59090909090909,
                "end_time": 9.820454545454545,
                "pitch": 34,
                "velocity": 64,
                "duration": 0.22954545454545539,
                "tempo": 120.0
            },
            {
                "start_time": 9.836363636363636,
                "end_time": 9.934090909090909,
                "pitch": 34,
                "velocity": 64,
                "duration": 0.09772727272727266,
                "tempo": 120.0
            },
            {
                "start_time": 9.95,
                "end_time": 10.049999999999999,
                "pitch": 34,
                "velocity": 64,
                "duration": 0.09999999999999964,
                "tempo": 120.0
            },
            {
                "start_time": 10.06590909090909,
                "end_time": 10.284090909090908,
                "pitch": 34,
                "velocity": 64,
                "duration": 0.2181818181818187,
                "tempo": 120.0
            },
            {
                "start_time": 10.318181818181818,
                "end_time": 10.418181818181818,
                "pitch": 34,
                "velocity": 64,
                "duration": 0.09999999999999964,
                "tempo": 120.0
            },
            {
                "start_time": 10.436363636363636,
                "end_time": 10.536363636363635,
                "pitch": 34,
                "velocity": 64,
                "duration": 0.09999999999999964,
                "tempo": 120.0
            },
            {
                "start_time": 10.552272727272726,
                "end_time": 10.770454545454545,
                "pitch": 34,
                "velocity": 64,
                "duration": 0.2181818181818187,
                "tempo": 120.0
            },
            {
                "start_time": 10.788636363636362,
                "end_time": 10.888636363636364,
                "pitch": 34,
                "velocity": 64,
                "duration": 0.10000000000000142,
                "tempo": 120.0
            },
            {
                "start_time": 10.922727272727272,
                "end_time": 11.022727272727272,
                "pitch": 34,
                "velocity": 64,
                "duration": 0.09999999999999964,
                "tempo": 120.0
            },
            {
                "start_time": 11.040909090909091,
                "end_time": 11.261363636363637,
                "pitch": 34,
                "velocity": 64,
                "duration": 0.22045454545454568,
                "tempo": 120.0
            },
            {
                "start_time": 11.279545454545454,
                "end_time": 11.381818181818181,
                "pitch": 34,
                "velocity": 64,
                "duration": 0.10227272727272663,
                "tempo": 120.0
            },
            {
                "start_time": 11.397727272727272,
                "end_time": 11.5,
                "pitch": 34,
                "velocity": 64,
                "duration": 0.1022727272727284,
                "tempo": 120.0
            },
            {
                "start_time": 11.534090909090908,
                "end_time": 11.754545454545454,
                "pitch": 42,
                "velocity": 64,
                "duration": 0.22045454545454568,
                "tempo": 120.0
            },
            {
                "start_time": 11.770454545454545,
                "end_time": 11.870454545454544,
                "pitch": 42,
                "velocity": 64,
                "duration": 0.09999999999999964,
                "tempo": 120.0
            },
            {
                "start_time": 11.888636363636364,
                "end_time": 11.988636363636363,
                "pitch": 42,
                "velocity": 64,
                "duration": 0.09999999999999964,
                "tempo": 120.0
            },
            {
                "start_time": 12.004545454545454,
                "end_time": 12.236363636363636,
                "pitch": 42,
                "velocity": 64,
                "duration": 0.23181818181818237,
                "tempo": 120.0
            },
            {
                "start_time": 12.252272727272727,
                "end_time": 12.35,
                "pitch": 42,
                "velocity": 64,
                "duration": 0.09772727272727266,
                "tempo": 120.0
            },
            {
                "start_time": 12.36590909090909,
                "end_time": 12.46590909090909,
                "pitch": 42,
                "velocity": 64,
                "duration": 0.09999999999999964,
                "tempo": 120.0
            },
            {
                "start_time": 12.48181818181818,
                "end_time": 12.7,
                "pitch": 42,
                "velocity": 64,
                "duration": 0.2181818181818187,
                "tempo": 120.0
            },
            {
                "start_time": 12.73409090909091,
                "end_time": 12.834090909090909,
                "pitch": 42,
                "velocity": 64,
                "duration": 0.09999999999999964,
                "tempo": 120.0
            },
            {
                "start_time": 12.85,
                "end_time": 12.952272727272726,
                "pitch": 42,
                "velocity": 64,
                "duration": 0.10227272727272663,
                "tempo": 120.0
            },
            {
                "start_time": 12.968181818181817,
                "end_time": 13.186363636363636,
                "pitch": 42,
                "velocity": 64,
                "duration": 0.2181818181818187,
                "tempo": 120.0
            },
            {
                "start_time": 13.202272727272726,
                "end_time": 13.302272727272726,
                "pitch": 42,
                "velocity": 64,
                "duration": 0.09999999999999964,
                "tempo": 120.0
            },
            {
                "start_time": 13.336363636363636,
                "end_time": 13.434090909090909,
                "pitch": 42,
                "velocity": 64,
                "duration": 0.09772727272727266,
                "tempo": 120.0
            },
            {
                "start_time": 13.452272727272726,
                "end_time": 13.672727272727272,
                "pitch": 44,
                "velocity": 64,
                "duration": 0.22045454545454568,
                "tempo": 120.0
            },
            {
                "start_time": 13.69090909090909,
                "end_time": 13.793181818181818,
                "pitch": 44,
                "velocity": 64,
                "duration": 0.1022727272727284,
                "tempo": 120.0
            },
            {
                "start_time": 13.811363636363636,
                "end_time": 13.913636363636362,
                "pitch": 44,
                "velocity": 64,
                "duration": 0.10227272727272663,
                "tempo": 120.0
            },
            {
                "start_time": 13.947727272727272,
                "end_time": 14.165909090909091,
                "pitch": 44,
                "velocity": 64,
                "duration": 0.2181818181818187,
                "tempo": 120.0
            },
            {
                "start_time": 14.181818181818182,
                "end_time": 14.281818181818181,
                "pitch": 44,
                "velocity": 64,
                "duration": 0.09999999999999964,
                "tempo": 120.0
            },
            {
                "start_time": 14.299999999999999,
                "end_time": 14.399999999999999,
                "pitch": 44,
                "velocity": 64,
                "duration": 0.09999999999999964,
                "tempo": 120.0
            },
            {
                "start_time": 14.418181818181818,
                "end_time": 14.647727272727272,
                "pitch": 44,
                "velocity": 64,
                "duration": 0.2295454545454536,
                "tempo": 120.0
            },
            {
                "start_time": 14.663636363636362,
                "end_time": 14.761363636363635,
                "pitch": 44,
                "velocity": 64,
                "duration": 0.09772727272727266,
                "tempo": 120.0
            },
            {
                "start_time": 14.777272727272727,
                "end_time": 14.877272727272727,
                "pitch": 44,
                "velocity": 64,
                "duration": 0.09999999999999964,
                "tempo": 120.0
            },
            {
                "start_time": 14.893181818181818,
                "end_time": 15.109090909090908,
                "pitch": 44,
                "velocity": 64,
                "duration": 0.21590909090908994,
                "tempo": 120.0
            },
            {
                "start_time": 15.143181818181818,
                "end_time": 15.243181818181817,
                "pitch": 44,
                "velocity": 64,
                "duration": 0.09999999999999964,
                "tempo": 120.0
            },
            {
                "start_time": 15.259090909090908,
                "end_time": 15.359090909090908,
                "pitch": 44,
                "velocity": 64,
                "duration": 0.09999999999999964,
                "tempo": 120.0
            },
            {
                "start_time": 15.377272727272727,
                "end_time": 15.854545454545454,
                "pitch": 39,
                "velocity": 64,
                "duration": 0.4772727272727266,
                "tempo": 120.0
            },
            {
                "start_time": 15.870454545454544,
                "end_time": 16.577272727272728,
                "pitch": 41,
                "velocity": 64,
                "duration": 0.7068181818181838,
                "tempo": 120.0
            },
            {
                "start_time": 16.59318181818182,
                "end_time": 16.695454545454545,
                "pitch": 41,
                "velocity": 64,
                "duration": 0.10227272727272663,
                "tempo": 120.0
            },
            {
                "start_time": 16.711363636363636,
                "end_time": 16.811363636363634,
                "pitch": 42,
                "velocity": 64,
                "duration": 0.09999999999999787,
                "tempo": 120.0
            },
            {
                "start_time": 16.829545454545453,
                "end_time": 16.929545454545455,
                "pitch": 41,
                "velocity": 64,
                "duration": 0.10000000000000142,
                "tempo": 120.0
            },
            {
                "start_time": 16.96363636363636,
                "end_time": 17.063636363636363,
                "pitch": 39,
                "velocity": 64,
                "duration": 0.10000000000000142,
                "tempo": 120.0
            },
            {
                "start_time": 17.081818181818182,
                "end_time": 17.18181818181818,
                "pitch": 37,
                "velocity": 64,
                "duration": 0.09999999999999787,
                "tempo": 120.0
            },
            {
                "start_time": 17.19772727272727,
                "end_time": 17.3,
                "pitch": 36,
                "velocity": 64,
                "duration": 0.10227272727273018,
                "tempo": 120.0
            },
            {
                "start_time": 17.31590909090909,
                "end_time": 17.775,
                "pitch": 39,
                "velocity": 64,
                "duration": 0.4590909090909072,
                "tempo": 120.0
            },
            {
                "start_time": 17.79090909090909,
                "end_time": 18.270454545454545,
                "pitch": 41,
                "velocity": 64,
                "duration": 0.4795454545454554,
                "tempo": 120.0
            },
            {
                "start_time": 18.402272727272727,
                "end_time": 18.5,
                "pitch": 36,
                "velocity": 64,
                "duration": 0.09772727272727266,
                "tempo": 120.0
            },
            {
                "start_time": 18.63181818181818,
                "end_time": 18.729545454545455,
                "pitch": 37,
                "velocity": 64,
                "duration": 0.09772727272727622,
                "tempo": 120.0
            },
            {
                "start_time": 18.761363636363637,
                "end_time": 19.222727272727273,
                "pitch": 37,
                "velocity": 64,
                "duration": 0.461363636363636,
                "tempo": 120.0
            },
            {
                "start_time": 19.24090909090909,
                "end_time": 19.7,
                "pitch": 39,
                "velocity": 64,
                "duration": 0.45909090909091077,
                "tempo": 120.0
            },
            {
                "start_time": 19.71590909090909,
                "end_time": 20.420454545454543,
                "pitch": 41,
                "velocity": 64,
                "duration": 0.7045454545454533,
                "tempo": 120.0
            },
            {
                "start_time": 20.436363636363634,
                "end_time": 20.536363636363635,
                "pitch": 41,
                "velocity": 64,
                "duration": 0.10000000000000142,
                "tempo": 120.0
            },
            {
                "start_time": 20.570454545454545,
                "end_time": 20.670454545454543,
                "pitch": 41,
                "velocity": 64,
                "duration": 0.09999999999999787,
                "tempo": 120.0
            },
            {
                "start_time": 20.686363636363634,
                "end_time": 20.788636363636364,
                "pitch": 41,
                "velocity": 64,
                "duration": 0.10227272727273018,
                "tempo": 120.0
            },
            {
                "start_time": 20.80681818181818,
                "end_time": 20.909090909090907,
                "pitch": 39,
                "velocity": 64,
                "duration": 0.10227272727272663,
                "tempo": 120.0
            },
            {
                "start_time": 20.925,
                "end_time": 21.027272727272727,
                "pitch": 37,
                "velocity": 64,
                "duration": 0.10227272727272663,
                "tempo": 120.0
            },
            {
                "start_time": 21.045454545454543,
                "end_time": 21.147727272727273,
                "pitch": 36,
                "velocity": 64,
                "duration": 0.10227272727273018,
                "tempo": 120.0
            },
            {
                "start_time": 21.18181818181818,
                "end_time": 21.634090909090908,
                "pitch": 39,
                "velocity": 64,
                "duration": 0.45227272727272805,
                "tempo": 120.0
            },
            {
                "start_time": 21.652272727272727,
                "end_time": 22.111363636363635,
                "pitch": 41,
                "velocity": 64,
                "duration": 0.4590909090909072,
                "tempo": 120.0
            },
            {
                "start_time": 22.127272727272725,
                "end_time": 22.345454545454544,
                "pitch": 41,
                "velocity": 64,
                "duration": 0.2181818181818187,
                "tempo": 120.0
            },
            {
                "start_time": 22.379545454545454,
                "end_time": 22.479545454545452,
                "pitch": 41,
                "velocity": 64,
                "duration": 0.09999999999999787,
                "tempo": 120.0
            },
            {
                "start_time": 22.49772727272727,
                "end_time": 22.597727272727273,
                "pitch": 41,
                "velocity": 64,
                "duration": 0.10000000000000142,
                "tempo": 120.0
            },
            {
                "start_time": 22.61590909090909,
                "end_time": 22.836363636363636,
                "pitch": 41,
                "velocity": 64,
                "duration": 0.22045454545454746,
                "tempo": 120.0
            },
            {
                "start_time": 22.854545454545452,
                "end_time": 22.956818181818182,
                "pitch": 41,
                "velocity": 64,
                "duration": 0.10227272727273018,
                "tempo": 120.0
            },
            {
                "start_time": 22.99090909090909,
                "end_time": 23.09318181818182,
                "pitch": 41,
                "velocity": 64,
                "duration": 0.10227272727273018,
                "tempo": 120.0
            },
            {
                "start_time": 23.10909090909091,
                "end_time": 23.329545454545453,
                "pitch": 34,
                "velocity": 64,
                "duration": 0.2204545454545439,
                "tempo": 120.0
            },
            {
                "start_time": 23.345454545454544,
                "end_time": 23.445454545454545,
                "pitch": 34,
                "velocity": 64,
                "duration": 0.10000000000000142,
                "tempo": 120.0
            },
            {
                "start_time": 23.46363636363636,
                "end_time": 23.563636363636363,
                "pitch": 34,
                "velocity": 64,
                "duration": 0.10000000000000142,
                "tempo": 120.0
            },
            {
                "start_time": 23.597727272727273,
                "end_time": 23.81590909090909,
                "pitch": 34,
                "velocity": 64,
                "duration": 0.2181818181818187,
                "tempo": 120.0
            },
            {
                "start_time": 23.831818181818182,
                "end_time": 23.93409090909091,
                "pitch": 34,
                "velocity": 64,
                "duration": 0.10227272727272663,
                "tempo": 120.0
            },
            {
                "start_time": 23.95,
                "end_time": 24.049999999999997,
                "pitch": 34,
                "velocity": 64,
                "duration": 0.09999999999999787,
                "tempo": 120.0
            },
            {
                "start_time": 24.068181818181817,
                "end_time": 24.297727272727272,
                "pitch": 34,
                "velocity": 64,
                "duration": 0.22954545454545539,
                "tempo": 120.0
            },
            {
                "start_time": 24.313636363636363,
                "end_time": 24.411363636363635,
                "pitch": 34,
                "velocity": 64,
                "duration": 0.09772727272727266,
                "tempo": 120.0
            },
            {
                "start_time": 24.429545454545455,
                "end_time": 24.527272727272727,
                "pitch": 34,
                "velocity": 64,
                "duration": 0.09772727272727266,
                "tempo": 120.0
            },
            {
                "start_time": 24.543181818181818,
                "end_time": 24.761363636363637,
                "pitch": 34,
                "velocity": 64,
                "duration": 0.2181818181818187,
                "tempo": 120.0
            },
            {
                "start_time": 24.795454545454543,
                "end_time": 24.895454545454545,
                "pitch": 34,
                "velocity": 64,
                "duration": 0.10000000000000142,
                "tempo": 120.0
            },
            {
                "start_time": 24.913636363636364,
                "end_time": 25.013636363636362,
                "pitch": 34,
                "velocity": 64,
                "duration": 0.09999999999999787,
                "tempo": 120.0
            },
            {
                "start_time": 25.029545454545453,
                "end_time": 25.252272727272725,
                "pitch": 34,
                "velocity": 64,
                "duration": 0.22272727272727266,
                "tempo": 120.0
            },
            {
                "start_time": 25.270454545454545,
                "end_time": 25.37272727272727,
                "pitch": 34,
                "velocity": 64,
                "duration": 0.10227272727272663,
                "tempo": 120.0
            },
            {
                "start_time": 25.40681818181818,
                "end_time": 25.509090909090908,
                "pitch": 34,
                "velocity": 64,
                "duration": 0.10227272727272663,
                "tempo": 120.0
            },
            {
                "start_time": 25.525,
                "end_time": 25.743181818181817,
                "pitch": 34,
                "velocity": 64,
                "duration": 0.2181818181818187,
                "tempo": 120.0
            },
            {
                "start_time": 25.761363636363637,
                "end_time": 25.861363636363635,
                "pitch": 34,
                "velocity": 64,
                "duration": 0.09999999999999787,
                "tempo": 120.0
            },
            {
                "start_time": 25.879545454545454,
                "end_time": 25.979545454545452,
                "pitch": 34,
                "velocity": 64,
                "duration": 0.09999999999999787,
                "tempo": 120.0
            },
            {
                "start_time": 26.013636363636362,
                "end_time": 26.23181818181818,
                "pitch": 34,
                "velocity": 64,
                "duration": 0.2181818181818187,
                "tempo": 120.0
            },
            {
                "start_time": 26.24772727272727,
                "end_time": 26.349999999999998,
                "pitch": 34,
                "velocity": 64,
                "duration": 0.10227272727272663,
                "tempo": 120.0
            },
            {
                "start_time": 26.36590909090909,
                "end_time": 26.46590909090909,
                "pitch": 34,
                "velocity": 64,
                "duration": 0.10000000000000142,
                "tempo": 120.0
            },
            {
                "start_time": 26.48409090909091,
                "end_time": 26.71363636363636,
                "pitch": 34,
                "velocity": 64,
                "duration": 0.22954545454545183,
                "tempo": 120.0
            },
            {
                "start_time": 26.729545454545452,
                "end_time": 26.827272727272724,
                "pitch": 34,
                "velocity": 64,
                "duration": 0.09772727272727266,
                "tempo": 120.0
            },
            {
                "start_time": 26.843181818181815,
                "end_time": 26.943181818181817,
                "pitch": 34,
                "velocity": 64,
                "duration": 0.10000000000000142,
                "tempo": 120.0
            },
            {
                "start_time": 26.959090909090907,
                "end_time": 27.177272727272726,
                "pitch": 42,
                "velocity": 64,
                "duration": 0.2181818181818187,
                "tempo": 120.0
            },
            {
                "start_time": 27.211363636363636,
                "end_time": 27.311363636363634,
                "pitch": 42,
                "velocity": 64,
                "duration": 0.09999999999999787,
                "tempo": 120.0
            },
            {
                "start_time": 27.329545454545453,
                "end_time": 27.429545454545455,
                "pitch": 42,
                "velocity": 64,
                "duration": 0.10000000000000142,
                "tempo": 120.0
            },
            {
                "start_time": 27.445454545454545,
                "end_time": 27.663636363636364,
                "pitch": 42,
                "velocity": 64,
                "duration": 0.2181818181818187,
                "tempo": 120.0
            },
            {
                "start_time": 27.68181818181818,
                "end_time": 27.78181818181818,
                "pitch": 42,
                "velocity": 64,
                "duration": 0.10000000000000142,
                "tempo": 120.0
            },
            {
                "start_time": 27.815909090909088,
                "end_time": 27.91590909090909,
                "pitch": 42,
                "velocity": 64,
                "duration": 0.10000000000000142,
                "tempo": 120.0
            },
            {
                "start_time": 27.93409090909091,
                "end_time": 28.154545454545453,
                "pitch": 42,
                "velocity": 64,
                "duration": 0.2204545454545439,
                "tempo": 120.0
            },
            {
                "start_time": 28.172727272727272,
                "end_time": 28.275,
                "pitch": 42,
                "velocity": 64,
                "duration": 0.10227272727272663,
                "tempo": 120.0
            },
            {
                "start_time": 28.29090909090909,
                "end_time": 28.393181818181816,
                "pitch": 42,
                "velocity": 64,
                "duration": 0.10227272727272663,
                "tempo": 120.0
            },
            {
                "start_time": 28.429545454545455,
                "end_time": 28.64772727272727,
                "pitch": 42,
                "velocity": 64,
                "duration": 0.21818181818181515,
                "tempo": 120.0
            },
            {
                "start_time": 28.66363636363636,
                "end_time": 28.763636363636362,
                "pitch": 42,
                "velocity": 64,
                "duration": 0.10000000000000142,
                "tempo": 120.0
            },
            {
                "start_time": 28.78181818181818,
                "end_time": 28.88181818181818,
                "pitch": 42,
                "velocity": 64,
                "duration": 0.09999999999999787,
                "tempo": 120.0
            },
            {
                "start_time": 28.9,
                "end_time": 29.129545454545454,
                "pitch": 44,
                "velocity": 64,
                "duration": 0.22954545454545539,
                "tempo": 120.0
            },
            {
                "start_time": 29.145454545454545,
                "end_time": 29.243181818181817,
                "pitch": 44,
                "velocity": 64,
                "duration": 0.09772727272727266,
                "tempo": 120.0
            },
            {
                "start_time": 29.259090909090908,
                "end_time": 29.35909090909091,
                "pitch": 44,
                "velocity": 64,
                "duration": 0.10000000000000142,
                "tempo": 120.0
            },
            {
                "start_time": 29.375,
                "end_time": 29.593181818181815,
                "pitch": 44,
                "velocity": 64,
                "duration": 0.21818181818181515,
                "tempo": 120.0
            },
            {
                "start_time": 29.627272727272725,
                "end_time": 29.727272727272727,
                "pitch": 44,
                "velocity": 64,
                "duration": 0.10000000000000142,
                "tempo": 120.0
            },
            {
                "start_time": 29.743181818181817,
                "end_time": 29.845454545454544,
                "pitch": 44,
                "velocity": 64,
                "duration": 0.10227272727272663,
                "tempo": 120.0
            },
            {
                "start_time": 29.861363636363635,
                "end_time": 30.084090909090907,
                "pitch": 44,
                "velocity": 64,
                "duration": 0.22272727272727266,
                "tempo": 120.0
            },
            {
                "start_time": 30.099999999999998,
                "end_time": 30.202272727272724,
                "pitch": 44,
                "velocity": 64,
                "duration": 0.10227272727272663,
                "tempo": 120.0
            },
            {
                "start_time": 30.236363636363635,
                "end_time": 30.33863636363636,
                "pitch": 44,
                "velocity": 64,
                "duration": 0.10227272727272663,
                "tempo": 120.0
            },
            {
                "start_time": 30.35681818181818,
                "end_time": 30.57272727272727,
                "pitch": 44,
                "velocity": 64,
                "duration": 0.21590909090908994,
                "tempo": 120.0
            },
            {
                "start_time": 30.59090909090909,
                "end_time": 30.690909090909088,
                "pitch": 44,
                "velocity": 64,
                "duration": 0.09999999999999787,
                "tempo": 120.0
            },
            {
                "start_time": 30.706818181818182,
                "end_time": 30.80681818181818,
                "pitch": 44,
                "velocity": 64,
                "duration": 0.09999999999999787,
                "tempo": 120.0
            },
            {
                "start_time": 30.84090909090909,
                "end_time": 31.05909090909091,
                "pitch": 34,
                "velocity": 64,
                "duration": 0.2181818181818187,
                "tempo": 120.0
            },
            {
                "start_time": 31.075,
                "end_time": 31.177272727272726,
                "pitch": 34,
                "velocity": 64,
                "duration": 0.10227272727272663,
                "tempo": 120.0
            },
            {
                "start_time": 31.193181818181817,
                "end_time": 31.293181818181818,
                "pitch": 34,
                "velocity": 64,
                "duration": 0.10000000000000142,
                "tempo": 120.0
            },
            {
                "start_time": 31.311363636363634,
                "end_time": 31.54090909090909,
                "pitch": 34,
                "velocity": 64,
                "duration": 0.22954545454545539,
                "tempo": 120.0
            },
            {
                "start_time": 31.55681818181818,
                "end_time": 31.654545454545453,
                "pitch": 34,
                "velocity": 64,
                "duration": 0.09772727272727266,
                "tempo": 120.0
            },
            {
                "start_time": 31.672727272727272,
                "end_time": 31.770454545454545,
                "pitch": 34,
                "velocity": 64,
                "duration": 0.09772727272727266,
                "tempo": 120.0
            },
            {
                "start_time": 31.786363636363635,
                "end_time": 32.00454545454545,
                "pitch": 34,
                "velocity": 64,
                "duration": 0.21818181818181515,
                "tempo": 120.0
            },
            {
                "start_time": 32.038636363636364,
                "end_time": 32.138636363636365,
                "pitch": 34,
                "velocity": 64,
                "duration": 0.10000000000000142,
                "tempo": 120.0
            },
            {
                "start_time": 32.15681818181818,
                "end_time": 32.25681818181818,
                "pitch": 34,
                "velocity": 64,
                "duration": 0.10000000000000142,
                "tempo": 120.0
            },
            {
                "start_time": 32.27272727272727,
                "end_time": 32.49090909090909,
                "pitch": 34,
                "velocity": 64,
                "duration": 0.2181818181818187,
                "tempo": 120.0
            },
            {
                "start_time": 32.50681818181818,
                "end_time": 32.60681818181818,
                "pitch": 34,
                "velocity": 64,
                "duration": 0.09999999999999432,
                "tempo": 120.0
            },
            {
                "start_time": 32.64090909090909,
                "end_time": 32.74090909090909,
                "pitch": 34,
                "velocity": 64,
                "duration": 0.10000000000000142,
                "tempo": 120.0
            },
            {
                "start_time": 32.75681818181818,
                "end_time": 32.97954545454545,
                "pitch": 34,
                "velocity": 64,
                "duration": 0.2227272727272691,
                "tempo": 120.0
            },
            {
                "start_time": 32.99545454545454,
                "end_time": 33.09772727272727,
                "pitch": 34,
                "velocity": 64,
                "duration": 0.10227272727272663,
                "tempo": 120.0
            },
            {
                "start_time": 33.11590909090909,
                "end_time": 33.21818181818182,
                "pitch": 34,
                "velocity": 64,
                "duration": 0.10227272727272663,
                "tempo": 120.0
            },
            {
                "start_time": 33.252272727272725,
                "end_time": 33.46818181818182,
                "pitch": 34,
                "velocity": 64,
                "duration": 0.2159090909090935,
                "tempo": 120.0
            },
            {
                "start_time": 33.486363636363635,
                "end_time": 33.586363636363636,
                "pitch": 34,
                "velocity": 64,
                "duration": 0.10000000000000142,
                "tempo": 120.0
            },
            {
                "start_time": 33.60227272727273,
                "end_time": 33.70227272727273,
                "pitch": 34,
                "velocity": 64,
                "duration": 0.10000000000000142,
                "tempo": 120.0
            },
            {
                "start_time": 33.71818181818182,
                "end_time": 33.94772727272727,
                "pitch": 34,
                "velocity": 64,
                "duration": 0.22954545454545183,
                "tempo": 120.0
            },
            {
                "start_time": 33.96363636363636,
                "end_time": 34.06363636363636,
                "pitch": 34,
                "velocity": 64,
                "duration": 0.10000000000000142,
                "tempo": 120.0
            },
            {
                "start_time": 34.07954545454545,
                "end_time": 34.17727272727272,
                "pitch": 34,
                "velocity": 64,
                "duration": 0.09772727272726911,
                "tempo": 120.0
            },
            {
                "start_time": 34.195454545454545,
                "end_time": 34.41136363636363,
                "pitch": 34,
                "velocity": 64,
                "duration": 0.2159090909090864,
                "tempo": 120.0
            },
            {
                "start_time": 34.44318181818181,
                "end_time": 34.543181818181814,
                "pitch": 34,
                "velocity": 64,
                "duration": 0.10000000000000142,
                "tempo": 120.0
            },
            {
                "start_time": 34.56136363636364,
                "end_time": 34.66136363636363,
                "pitch": 34,
                "velocity": 64,
                "duration": 0.09999999999999432,
                "tempo": 120.0
            },
            {
                "start_time": 34.67727272727272,
                "end_time": 34.9,
                "pitch": 42,
                "velocity": 64,
                "duration": 0.22272727272727622,
                "tempo": 120.0
            },
            {
                "start_time": 34.91590909090909,
                "end_time": 35.018181818181816,
                "pitch": 42,
                "velocity": 64,
                "duration": 0.10227272727272663,
                "tempo": 120.0
            },
            {
                "start_time": 35.05227272727272,
                "end_time": 35.154545454545456,
                "pitch": 42,
                "velocity": 64,
                "duration": 0.10227272727273373,
                "tempo": 120.0
            },
            {
                "start_time": 35.17272727272727,
                "end_time": 35.388636363636365,
                "pitch": 42,
                "velocity": 64,
                "duration": 0.2159090909090935,
                "tempo": 120.0
            },
            {
                "start_time": 35.40681818181818,
                "end_time": 35.50681818181818,
                "pitch": 42,
                "velocity": 64,
                "duration": 0.10000000000000142,
                "tempo": 120.0
            },
            {
                "start_time": 35.52272727272727,
                "end_time": 35.62272727272727,
                "pitch": 42,
                "velocity": 64,
                "duration": 0.09999999999999432,
                "tempo": 120.0
            },
            {
                "start_time": 35.65681818181818,
                "end_time": 35.875,
                "pitch": 42,
                "velocity": 64,
                "duration": 0.2181818181818187,
                "tempo": 120.0
            },
            {
                "start_time": 35.89090909090909,
                "end_time": 35.99090909090909,
                "pitch": 42,
                "velocity": 64,
                "duration": 0.10000000000000142,
                "tempo": 120.0
            },
            {
                "start_time": 36.00909090909091,
                "end_time": 36.10909090909091,
                "pitch": 42,
                "velocity": 64,
                "duration": 0.10000000000000142,
                "tempo": 120.0
            },
            {
                "start_time": 36.127272727272725,
                "end_time": 36.35681818181818,
                "pitch": 42,
                "velocity": 64,
                "duration": 0.22954545454545183,
                "tempo": 120.0
            },
            {
                "start_time": 36.37272727272727,
                "end_time": 36.470454545454544,
                "pitch": 42,
                "velocity": 64,
                "duration": 0.09772727272727622,
                "tempo": 120.0
            },
            {
                "start_time": 36.486363636363635,
                "end_time": 36.586363636363636,
                "pitch": 42,
                "velocity": 64,
                "duration": 0.10000000000000142,
                "tempo": 120.0
            },
            {
                "start_time": 36.60227272727273,
                "end_time": 36.81818181818181,
                "pitch": 44,
                "velocity": 64,
                "duration": 0.2159090909090864,
                "tempo": 120.0
            },
            {
                "start_time": 36.85227272727273,
                "end_time": 36.95227272727273,
                "pitch": 44,
                "velocity": 64,
                "duration": 0.10000000000000142,
                "tempo": 120.0
            },
            {
                "start_time": 36.96818181818182,
                "end_time": 37.06818181818181,
                "pitch": 44,
                "velocity": 64,
                "duration": 0.09999999999999432,
                "tempo": 120.0
            },
            {
                "start_time": 37.086363636363636,
                "end_time": 37.304545454545455,
                "pitch": 44,
                "velocity": 64,
                "duration": 0.2181818181818187,
                "tempo": 120.0
            },
            {
                "start_time": 37.320454545454545,
                "end_time": 37.42045454545455,
                "pitch": 44,
                "velocity": 64,
                "duration": 0.10000000000000142,
                "tempo": 120.0
            },
            {
                "start_time": 37.45454545454545,
                "end_time": 37.55681818181818,
                "pitch": 44,
                "velocity": 64,
                "duration": 0.10227272727272663,
                "tempo": 120.0
            },
            {
                "start_time": 37.57272727272727,
                "end_time": 37.788636363636364,
                "pitch": 44,
                "velocity": 64,
                "duration": 0.2159090909090935,
                "tempo": 120.0
            },
            {
                "start_time": 37.80681818181818,
                "end_time": 37.90681818181818,
                "pitch": 44,
                "velocity": 64,
                "duration": 0.10000000000000142,
                "tempo": 120.0
            },
            {
                "start_time": 37.92272727272727,
                "end_time": 38.02272727272727,
                "pitch": 44,
                "velocity": 64,
                "duration": 0.10000000000000142,
                "tempo": 120.0
            },
            {
                "start_time": 38.05681818181818,
                "end_time": 38.28181818181818,
                "pitch": 44,
                "velocity": 64,
                "duration": 0.22500000000000142,
                "tempo": 120.0
            },
            {
                "start_time": 38.29772727272727,
                "end_time": 38.402272727272724,
                "pitch": 44,
                "velocity": 64,
                "duration": 0.10454545454545183,
                "tempo": 120.0
            },
            {
                "start_time": 38.42045454545455,
                "end_time": 38.525,
                "pitch": 44,
                "velocity": 64,
                "duration": 0.10454545454545183,
                "tempo": 120.0
            },
            {
                "start_time": 38.54090909090909,
                "end_time": 39.002272727272725,
                "pitch": 39,
                "velocity": 64,
                "duration": 0.461363636363636,
                "tempo": 120.0
            },
            {
                "start_time": 39.018181818181816,
                "end_time": 39.71818181818182,
                "pitch": 41,
                "velocity": 64,
                "duration": 0.7000000000000028,
                "tempo": 120.0
            },
            {
                "start_time": 39.73409090909091,
                "end_time": 39.83181818181818,
                "pitch": 41,
                "velocity": 64,
                "duration": 0.09772727272726911,
                "tempo": 120.0
            },
            {
                "start_time": 39.86590909090909,
                "end_time": 39.96363636363636,
                "pitch": 42,
                "velocity": 64,
                "duration": 0.09772727272726911,
                "tempo": 120.0
            },
            {
                "start_time": 39.97954545454545,
                "end_time": 40.08181818181818,
                "pitch": 41,
                "velocity": 64,
                "duration": 0.10227272727272663,
                "tempo": 120.0
            },
            {
                "start_time": 40.1,
                "end_time": 40.20227272727273,
                "pitch": 39,
                "velocity": 64,
                "duration": 0.10227272727272663,
                "tempo": 120.0
            },
            {
                "start_time": 40.220454545454544,
                "end_time": 40.32272727272727,
                "pitch": 37,
                "velocity": 64,
                "duration": 0.10227272727272663,
                "tempo": 120.0
            },
            {
                "start_time": 40.33863636363636,
                "end_time": 40.44090909090909,
                "pitch": 36,
                "velocity": 64,
                "duration": 0.10227272727272663,
                "tempo": 120.0
            },
            {
                "start_time": 40.475,
                "end_time": 40.925,
                "pitch": 39,
                "velocity": 64,
                "duration": 0.44999999999999574,
                "tempo": 120.0
            },
            {
                "start_time": 40.94318181818181,
                "end_time": 41.402272727272724,
                "pitch": 41,
                "velocity": 64,
                "duration": 0.45909090909091077,
                "tempo": 120.0
            },
            {
                "start_time": 41.53636363636363,
                "end_time": 41.63636363636363,
                "pitch": 36,
                "velocity": 64,
                "duration": 0.10000000000000142,
                "tempo": 120.0
            },
            {
                "start_time": 41.78636363636363,
                "end_time": 41.88863636363636,
                "pitch": 37,
                "velocity": 64,
                "duration": 0.10227272727272663,
                "tempo": 120.0
            },
            {
                "start_time": 41.90454545454545,
                "end_time": 42.38409090909091,
                "pitch": 37,
                "velocity": 64,
                "duration": 0.47954545454545894,
                "tempo": 120.0
            },
            {
                "start_time": 42.4,
                "end_time": 42.85454545454545,
                "pitch": 39,
                "velocity": 64,
                "duration": 0.45454545454545325,
                "tempo": 120.0
            },
            {
                "start_time": 42.88636363636363,
                "end_time": 43.584090909090904,
                "pitch": 41,
                "velocity": 64,
                "duration": 0.6977272727272705,
                "tempo": 120.0
            },
            {
                "start_time": 43.6,
                "end_time": 43.69772727272727,
                "pitch": 41,
                "velocity": 64,
                "duration": 0.09772727272726911,
                "tempo": 120.0
            },
            {
                "start_time": 43.715909090909086,
                "end_time": 43.81363636363636,
                "pitch": 41,
                "velocity": 64,
                "duration": 0.09772727272727622,
                "tempo": 120.0
            },
            {
                "start_time": 43.82954545454545,
                "end_time": 43.93181818181818,
                "pitch": 41,
                "velocity": 64,
                "duration": 0.10227272727272663,
                "tempo": 120.0
            },
            {
                "start_time": 43.94772727272727,
                "end_time": 44.05227272727272,
                "pitch": 39,
                "velocity": 64,
                "duration": 0.10454545454545183,
                "tempo": 120.0
            },
            {
                "start_time": 44.086363636363636,
                "end_time": 44.18863636363636,
                "pitch": 37,
                "velocity": 64,
                "duration": 0.10227272727272663,
                "tempo": 120.0
            },
            {
                "start_time": 44.20454545454545,
                "end_time": 44.30681818181818,
                "pitch": 36,
                "velocity": 64,
                "duration": 0.10227272727272663,
                "tempo": 120.0
            },
            {
                "start_time": 44.324999999999996,
                "end_time": 44.78409090909091,
                "pitch": 39,
                "velocity": 64,
                "duration": 0.45909090909091077,
                "tempo": 120.0
            },
            {
                "start_time": 44.8,
                "end_time": 45.26136363636363,
                "pitch": 41,
                "velocity": 64,
                "duration": 0.461363636363636,
                "tempo": 120.0
            },
            {
                "start_time": 45.29545454545455,
                "end_time": 45.51136363636363,
                "pitch": 41,
                "velocity": 64,
                "duration": 0.2159090909090864,
                "tempo": 120.0
            },
            {
                "start_time": 45.527272727272724,
                "end_time": 45.627272727272725,
                "pitch": 41,
                "velocity": 64,
                "duration": 0.10000000000000142,
                "tempo": 120.0
            },
            {
                "start_time": 45.64545454545454,
                "end_time": 45.74545454545454,
                "pitch": 41,
                "velocity": 64,
                "duration": 0.10000000000000142,
                "tempo": 120.0
            },
            {
                "start_time": 45.76136363636363,
                "end_time": 45.99090909090909,
                "pitch": 41,
                "velocity": 64,
                "duration": 0.22954545454545894,
                "tempo": 120.0
            },
            {
                "start_time": 46.00681818181818,
                "end_time": 46.10681818181818,
                "pitch": 41,
                "velocity": 64,
                "duration": 0.09999999999999432,
                "tempo": 120.0
            },
            {
                "start_time": 46.12272727272727,
                "end_time": 46.220454545454544,
                "pitch": 41,
                "velocity": 64,
                "duration": 0.09772727272727622,
                "tempo": 120.0
            },
            {
                "start_time": 46.236363636363635,
                "end_time": 46.45454545454545,
                "pitch": 36,
                "velocity": 64,
                "duration": 0.2181818181818187,
                "tempo": 120.0
            },
            {
                "start_time": 46.486363636363635,
                "end_time": 46.586363636363636,
                "pitch": 36,
                "velocity": 64,
                "duration": 0.10000000000000142,
                "tempo": 120.0
            },
            {
                "start_time": 46.60454545454545,
                "end_time": 46.70454545454545,
                "pitch": 36,
                "velocity": 64,
                "duration": 0.10000000000000142,
                "tempo": 120.0
            },
            {
                "start_time": 46.720454545454544,
                "end_time": 46.94318181818181,
                "pitch": 36,
                "velocity": 64,
                "duration": 0.2227272727272691,
                "tempo": 120.0
            },
            {
                "start_time": 46.959090909090904,
                "end_time": 47.06136363636364,
                "pitch": 36,
                "velocity": 64,
                "duration": 0.10227272727273373,
                "tempo": 120.0
            },
            {
                "start_time": 47.095454545454544,
                "end_time": 47.19772727272727,
                "pitch": 36,
                "velocity": 64,
                "duration": 0.10227272727272663,
                "tempo": 120.0
            },
            {
                "start_time": 47.215909090909086,
                "end_time": 47.43181818181818,
                "pitch": 36,
                "velocity": 64,
                "duration": 0.2159090909090935,
                "tempo": 120.0
            },
            {
                "start_time": 47.449999999999996,
                "end_time": 47.55,
                "pitch": 36,
                "velocity": 64,
                "duration": 0.10000000000000142,
                "tempo": 120.0
            },
            {
                "start_time": 47.56590909090909,
                "end_time": 47.66590909090909,
                "pitch": 36,
                "velocity": 64,
                "duration": 0.10000000000000142,
                "tempo": 120.0
            },
            {
                "start_time": 47.699999999999996,
                "end_time": 47.918181818181814,
                "pitch": 36,
                "velocity": 64,
                "duration": 0.2181818181818187,
                "tempo": 120.0
            },
            {
                "start_time": 47.934090909090905,
                "end_time": 48.03409090909091,
                "pitch": 36,
                "velocity": 64,
                "duration": 0.10000000000000142,
                "tempo": 120.0
            },
            {
                "start_time": 48.05227272727272,
                "end_time": 48.152272727272724,
                "pitch": 36,
                "velocity": 64,
                "duration": 0.10000000000000142,
                "tempo": 120.0
            },
            {
                "start_time": 48.17045454545454,
                "end_time": 48.4,
                "pitch": 39,
                "velocity": 64,
                "duration": 0.22954545454545894,
                "tempo": 120.0
            },
            {
                "start_time": 48.41590909090909,
                "end_time": 48.51363636363636,
                "pitch": 39,
                "velocity": 64,
                "duration": 0.09772727272726911,
                "tempo": 120.0
            },
            {
                "start_time": 48.52954545454545,
                "end_time": 48.62954545454545,
                "pitch": 39,
                "velocity": 64,
                "duration": 0.10000000000000142,
                "tempo": 120.0
            },
            {
                "start_time": 48.64545454545454,
                "end_time": 48.861363636363635,
                "pitch": 39,
                "velocity": 64,
                "duration": 0.2159090909090935,
                "tempo": 120.0
            },
            {
                "start_time": 48.89545454545454,
                "end_time": 48.99545454545454,
                "pitch": 39,
                "velocity": 64,
                "duration": 0.10000000000000142,
                "tempo": 120.0
            },
            {
                "start_time": 49.01136363636363,
                "end_time": 49.111363636363635,
                "pitch": 39,
                "velocity": 64,
                "duration": 0.10000000000000142,
                "tempo": 120.0
            },
            {
                "start_time": 49.12954545454545,
                "end_time": 49.349999999999994,
                "pitch": 39,
                "velocity": 64,
                "duration": 0.2204545454545439,
                "tempo": 120.0
            },
            {
                "start_time": 49.36818181818182,
                "end_time": 49.470454545454544,
                "pitch": 39,
                "velocity": 64,
                "duration": 0.10227272727272663,
                "tempo": 120.0
            },
            {
                "start_time": 49.50454545454545,
                "end_time": 49.60681818181818,
                "pitch": 39,
                "velocity": 64,
                "duration": 0.10227272727272663,
                "tempo": 120.0
            },
            {
                "start_time": 49.62272727272727,
                "end_time": 49.840909090909086,
                "pitch": 39,
                "velocity": 64,
                "duration": 0.2181818181818187,
                "tempo": 120.0
            },
            {
                "start_time": 49.85681818181818,
                "end_time": 49.95681818181818,
                "pitch": 39,
                "velocity": 64,
                "duration": 0.10000000000000142,
                "tempo": 120.0
            },
            {
                "start_time": 49.97272727272727,
                "end_time": 50.07272727272727,
                "pitch": 39,
                "velocity": 64,
                "duration": 0.10000000000000142,
                "tempo": 120.0
            },
            {
                "start_time": 50.10681818181818,
                "end_time": 50.32954545454545,
                "pitch": 34,
                "velocity": 64,
                "duration": 0.22272727272727622,
                "tempo": 120.0
            },
            {
                "start_time": 50.345454545454544,
                "end_time": 50.44772727272727,
                "pitch": 34,
                "velocity": 64,
                "duration": 0.10227272727272663,
                "tempo": 120.0
            },
            {
                "start_time": 50.465909090909086,
                "end_time": 50.56818181818181,
                "pitch": 34,
                "velocity": 64,
                "duration": 0.10227272727272663,
                "tempo": 120.0
            },
            {
                "start_time": 50.584090909090904,
                "end_time": 50.809090909090905,
                "pitch": 34,
                "velocity": 64,
                "duration": 0.22500000000000142,
                "tempo": 120.0
            },
            {
                "start_time": 50.824999999999996,
                "end_time": 50.92272727272727,
                "pitch": 34,
                "velocity": 64,
                "duration": 0.09772727272727622,
                "tempo": 120.0
            },
            {
                "start_time": 50.93863636363636,
                "end_time": 51.03409090909091,
                "pitch": 34,
                "velocity": 64,
                "duration": 0.0954545454545439,
                "tempo": 120.0
            },
            {
                "start_time": 51.05,
                "end_time": 51.26590909090909,
                "pitch": 34,
                "velocity": 64,
                "duration": 0.2159090909090935,
                "tempo": 120.0
            },
            {
                "start_time": 51.3,
                "end_time": 51.4,
                "pitch": 34,
                "velocity": 64,
                "duration": 0.10000000000000142,
                "tempo": 120.0
            },
            {
                "start_time": 51.41590909090909,
                "end_time": 51.51590909090909,
                "pitch": 34,
                "velocity": 64,
                "duration": 0.10000000000000142,
                "tempo": 120.0
            },
            {
                "start_time": 51.53181818181818,
                "end_time": 51.752272727272725,
                "pitch": 34,
                "velocity": 64,
                "duration": 0.2204545454545439,
                "tempo": 120.0
            },
            {
                "start_time": 51.768181818181816,
                "end_time": 51.86818181818182,
                "pitch": 34,
                "velocity": 64,
                "duration": 0.10000000000000142,
                "tempo": 120.0
            },
            {
                "start_time": 51.902272727272724,
                "end_time": 52.002272727272725,
                "pitch": 34,
                "velocity": 64,
                "duration": 0.10000000000000142,
                "tempo": 120.0
            },
            {
                "start_time": 52.02045454545454,
                "end_time": 52.240909090909085,
                "pitch": 42,
                "velocity": 64,
                "duration": 0.2204545454545439,
                "tempo": 120.0
            },
            {
                "start_time": 52.25909090909091,
                "end_time": 52.361363636363635,
                "pitch": 42,
                "velocity": 64,
                "duration": 0.10227272727272663,
                "tempo": 120.0
            },
            {
                "start_time": 52.37954545454545,
                "end_time": 52.48181818181818,
                "pitch": 42,
                "velocity": 64,
                "duration": 0.10227272727272663,
                "tempo": 120.0
            },
            {
                "start_time": 52.51590909090909,
                "end_time": 52.73181818181818,
                "pitch": 42,
                "velocity": 64,
                "duration": 0.2159090909090864,
                "tempo": 120.0
            },
            {
                "start_time": 52.74772727272727,
                "end_time": 52.84772727272727,
                "pitch": 42,
                "velocity": 64,
                "duration": 0.10000000000000142,
                "tempo": 120.0
            },
            {
                "start_time": 52.865909090909085,
                "end_time": 52.965909090909086,
                "pitch": 42,
                "velocity": 64,
                "duration": 0.10000000000000142,
                "tempo": 120.0
            },
            {
                "start_time": 52.98181818181818,
                "end_time": 53.211363636363636,
                "pitch": 42,
                "velocity": 64,
                "duration": 0.22954545454545894,
                "tempo": 120.0
            },
            {
                "start_time": 53.22727272727273,
                "end_time": 53.32727272727273,
                "pitch": 42,
                "velocity": 64,
                "duration": 0.10000000000000142,
                "tempo": 120.0
            },
            {
                "start_time": 53.34318181818182,
                "end_time": 53.44090909090909,
                "pitch": 42,
                "velocity": 64,
                "duration": 0.09772727272726911,
                "tempo": 120.0
            },
            {
                "start_time": 53.45681818181818,
                "end_time": 53.675,
                "pitch": 42,
                "velocity": 64,
                "duration": 0.2181818181818187,
                "tempo": 120.0
            },
            {
                "start_time": 53.709090909090904,
                "end_time": 53.81136363636363,
                "pitch": 42,
                "velocity": 64,
                "duration": 0.10227272727272663,
                "tempo": 120.0
            },
            {
                "start_time": 53.82727272727273,
                "end_time": 53.92727272727272,
                "pitch": 42,
                "velocity": 64,
                "duration": 0.09999999999999432,
                "tempo": 120.0
            },
            {
                "start_time": 53.945454545454545,
                "end_time": 54.16136363636363,
                "pitch": 44,
                "velocity": 64,
                "duration": 0.2159090909090864,
                "tempo": 120.0
            },
            {
                "start_time": 54.17727272727272,
                "end_time": 54.277272727272724,
                "pitch": 44,
                "velocity": 64,
                "duration": 0.10000000000000142,
                "tempo": 120.0
            },
            {
                "start_time": 54.31136363636363,
                "end_time": 54.41136363636363,
                "pitch": 44,
                "velocity": 64,
                "duration": 0.10000000000000142,
                "tempo": 120.0
            },
            {
                "start_time": 54.42727272727272,
                "end_time": 54.65,
                "pitch": 44,
                "velocity": 64,
                "duration": 0.22272727272727622,
                "tempo": 120.0
            },
            {
                "start_time": 54.66590909090909,
                "end_time": 54.77045454545454,
                "pitch": 44,
                "velocity": 64,
                "duration": 0.10454545454545183,
                "tempo": 120.0
            },
            {
                "start_time": 54.78636363636363,
                "end_time": 54.88863636363636,
                "pitch": 44,
                "velocity": 64,
                "duration": 0.10227272727272663,
                "tempo": 120.0
            },
            {
                "start_time": 54.92272727272727,
                "end_time": 55.14090909090909,
                "pitch": 44,
                "velocity": 64,
                "duration": 0.2181818181818187,
                "tempo": 120.0
            },
            {
                "start_time": 55.15681818181818,
                "end_time": 55.256818181818176,
                "pitch": 44,
                "velocity": 64,
                "duration": 0.09999999999999432,
                "tempo": 120.0
            },
            {
                "start_time": 55.27272727272727,
                "end_time": 55.37272727272727,
                "pitch": 44,
                "velocity": 64,
                "duration": 0.09999999999999432,
                "tempo": 120.0
            },
            {
                "start_time": 55.39090909090909,
                "end_time": 55.62045454545454,
                "pitch": 44,
                "velocity": 64,
                "duration": 0.22954545454545183,
                "tempo": 120.0
            },
            {
                "start_time": 55.63636363636363,
                "end_time": 55.73409090909091,
                "pitch": 44,
                "velocity": 64,
                "duration": 0.09772727272727622,
                "tempo": 120.0
            },
            {
                "start_time": 55.75,
                "end_time": 55.849999999999994,
                "pitch": 44,
                "velocity": 64,
                "duration": 0.09999999999999432,
                "tempo": 120.0
            },
            {
                "start_time": 55.865909090909085,
                "end_time": 56.084090909090904,
                "pitch": 42,
                "velocity": 64,
                "duration": 0.2181818181818187,
                "tempo": 120.0
            },
            {
                "start_time": 56.11818181818182,
                "end_time": 56.21818181818182,
                "pitch": 42,
                "velocity": 64,
                "duration": 0.10000000000000142,
                "tempo": 120.0
            },
            {
                "start_time": 56.23409090909091,
                "end_time": 56.336363636363636,
                "pitch": 42,
                "velocity": 64,
                "duration": 0.10227272727272663,
                "tempo": 120.0
            },
            {
                "start_time": 56.35227272727273,
                "end_time": 56.570454545454545,
                "pitch": 42,
                "velocity": 64,
                "duration": 0.2181818181818187,
                "tempo": 120.0
            },
            {
                "start_time": 56.586363636363636,
                "end_time": 56.68636363636363,
                "pitch": 42,
                "velocity": 64,
                "duration": 0.09999999999999432,
                "tempo": 120.0
            },
            {
                "start_time": 56.71818181818182,
                "end_time": 56.81818181818181,
                "pitch": 42,
                "velocity": 64,
                "duration": 0.09999999999999432,
                "tempo": 120.0
            },
            {
                "start_time": 56.836363636363636,
                "end_time": 57.05681818181818,
                "pitch": 44,
                "velocity": 64,
                "duration": 0.2204545454545439,
                "tempo": 120.0
            },
            {
                "start_time": 57.074999999999996,
                "end_time": 57.17727272727272,
                "pitch": 44,
                "velocity": 64,
                "duration": 0.10227272727272663,
                "tempo": 120.0
            },
            {
                "start_time": 57.195454545454545,
                "end_time": 57.29772727272727,
                "pitch": 44,
                "velocity": 64,
                "duration": 0.10227272727272663,
                "tempo": 120.0
            },
            {
                "start_time": 57.33181818181818,
                "end_time": 57.54772727272727,
                "pitch": 44,
                "velocity": 64,
                "duration": 0.2159090909090935,
                "tempo": 120.0
            },
            {
                "start_time": 57.56363636363636,
                "end_time": 57.663636363636364,
                "pitch": 44,
                "velocity": 64,
                "duration": 0.10000000000000142,
                "tempo": 120.0
            },
            {
                "start_time": 57.68181818181818,
                "end_time": 57.78181818181818,
                "pitch": 44,
                "velocity": 64,
                "duration": 0.10000000000000142,
                "tempo": 120.0
            },
            {
                "start_time": 57.79772727272727,
                "end_time": 58.027272727272724,
                "pitch": 34,
                "velocity": 64,
                "duration": 0.22954545454545183,
                "tempo": 120.0
            },
            {
                "start_time": 58.043181818181814,
                "end_time": 58.143181818181816,
                "pitch": 34,
                "velocity": 64,
                "duration": 0.10000000000000142,
                "tempo": 120.0
            },
            {
                "start_time": 58.15909090909091,
                "end_time": 58.256818181818176,
                "pitch": 34,
                "velocity": 64,
                "duration": 0.09772727272726911,
                "tempo": 120.0
            },
            {
                "start_time": 58.27272727272727,
                "end_time": 58.490909090909085,
                "pitch": 34,
                "velocity": 64,
                "duration": 0.2181818181818116,
                "tempo": 120.0
            },
            {
                "start_time": 58.52272727272727,
                "end_time": 58.62272727272727,
                "pitch": 34,
                "velocity": 64,
                "duration": 0.09999999999999432,
                "tempo": 120.0
            },
            {
                "start_time": 58.64090909090909,
                "end_time": 58.740909090909085,
                "pitch": 34,
                "velocity": 64,
                "duration": 0.09999999999999432,
                "tempo": 120.0
            },
            {
                "start_time": 58.756818181818176,
                "end_time": 58.97272727272727,
                "pitch": 34,
                "velocity": 64,
                "duration": 0.2159090909090935,
                "tempo": 120.0
            },
            {
                "start_time": 58.990909090909085,
                "end_time": 59.090909090909086,
                "pitch": 34,
                "velocity": 64,
                "duration": 0.10000000000000142,
                "tempo": 120.0
            },
            {
                "start_time": 59.12272727272727,
                "end_time": 59.22272727272727,
                "pitch": 34,
                "velocity": 64,
                "duration": 0.10000000000000142,
                "tempo": 120.0
            },
            {
                "start_time": 59.240909090909085,
                "end_time": 59.461363636363636,
                "pitch": 34,
                "velocity": 64,
                "duration": 0.220454545454551,
                "tempo": 120.0
            },
            {
                "start_time": 59.47954545454545,
                "end_time": 59.58181818181818,
                "pitch": 34,
                "velocity": 64,
                "duration": 0.10227272727272663,
                "tempo": 120.0
            },
            {
                "start_time": 59.59772727272727,
                "end_time": 59.699999999999996,
                "pitch": 34,
                "velocity": 64,
                "duration": 0.10227272727272663,
                "tempo": 120.0
            },
            {
                "start_time": 59.73409090909091,
                "end_time": 59.95454545454545,
                "pitch": 42,
                "velocity": 64,
                "duration": 0.2204545454545439,
                "tempo": 120.0
            },
            {
                "start_time": 59.970454545454544,
                "end_time": 60.070454545454545,
                "pitch": 42,
                "velocity": 64,
                "duration": 0.10000000000000142,
                "tempo": 120.0
            },
            {
                "start_time": 60.08863636363636,
                "end_time": 60.18863636363636,
                "pitch": 42,
                "velocity": 64,
                "duration": 0.10000000000000142,
                "tempo": 120.0
            },
            {
                "start_time": 60.20454545454545,
                "end_time": 60.434090909090905,
                "pitch": 42,
                "velocity": 64,
                "duration": 0.22954545454545183,
                "tempo": 120.0
            },
            {
                "start_time": 60.45227272727272,
                "end_time": 60.55,
                "pitch": 42,
                "velocity": 64,
                "duration": 0.09772727272727622,
                "tempo": 120.0
            },
            {
                "start_time": 60.56590909090909,
                "end_time": 60.66590909090909,
                "pitch": 42,
                "velocity": 64,
                "duration": 0.10000000000000142,
                "tempo": 120.0
            },
            {
                "start_time": 60.68181818181818,
                "end_time": 60.897727272727266,
                "pitch": 42,
                "velocity": 64,
                "duration": 0.2159090909090864,
                "tempo": 120.0
            },
            {
                "start_time": 60.93181818181818,
                "end_time": 61.03181818181818,
                "pitch": 42,
                "velocity": 64,
                "duration": 0.10000000000000142,
                "tempo": 120.0
            },
            {
                "start_time": 61.04772727272727,
                "end_time": 61.147727272727266,
                "pitch": 42,
                "velocity": 64,
                "duration": 0.09999999999999432,
                "tempo": 120.0
            },
            {
                "start_time": 61.163636363636364,
                "end_time": 61.381818181818176,
                "pitch": 42,
                "velocity": 64,
                "duration": 0.2181818181818116,
                "tempo": 120.0
            },
            {
                "start_time": 61.4,
                "end_time": 61.5,
                "pitch": 42,
                "velocity": 64,
                "duration": 0.10000000000000142,
                "tempo": 120.0
            },
            {
                "start_time": 61.53409090909091,
                "end_time": 61.63409090909091,
                "pitch": 42,
                "velocity": 64,
                "duration": 0.10000000000000142,
                "tempo": 120.0
            },
            {
                "start_time": 61.652272727272724,
                "end_time": 61.87272727272727,
                "pitch": 44,
                "velocity": 64,
                "duration": 0.2204545454545439,
                "tempo": 120.0
            },
            {
                "start_time": 61.89090909090909,
                "end_time": 61.99318181818182,
                "pitch": 44,
                "velocity": 64,
                "duration": 0.10227272727272663,
                "tempo": 120.0
            },
            {
                "start_time": 62.00909090909091,
                "end_time": 62.11363636363636,
                "pitch": 44,
                "velocity": 64,
                "duration": 0.10454545454545183,
                "tempo": 120.0
            },
            {
                "start_time": 62.147727272727266,
                "end_time": 62.365909090909085,
                "pitch": 44,
                "velocity": 64,
                "duration": 0.2181818181818187,
                "tempo": 120.0
            },
            {
                "start_time": 62.381818181818176,
                "end_time": 62.48181818181818,
                "pitch": 44,
                "velocity": 64,
                "duration": 0.10000000000000142,
                "tempo": 120.0
            },
            {
                "start_time": 62.5,
                "end_time": 62.599999999999994,
                "pitch": 44,
                "velocity": 64,
                "duration": 0.09999999999999432,
                "tempo": 120.0
            },
            {
                "start_time": 62.61818181818182,
                "end_time": 62.84772727272727,
                "pitch": 44,
                "velocity": 64,
                "duration": 0.22954545454545183,
                "tempo": 120.0
            },
            {
                "start_time": 62.86363636363636,
                "end_time": 62.961363636363636,
                "pitch": 44,
                "velocity": 64,
                "duration": 0.09772727272727622,
                "tempo": 120.0
            },
            {
                "start_time": 62.97727272727273,
                "end_time": 63.07727272727272,
                "pitch": 44,
                "velocity": 64,
                "duration": 0.09999999999999432,
                "tempo": 120.0
            },
            {
                "start_time": 63.09318181818181,
                "end_time": 63.309090909090905,
                "pitch": 44,
                "velocity": 64,
                "duration": 0.2159090909090935,
                "tempo": 120.0
            },
            {
                "start_time": 63.34318181818181,
                "end_time": 63.44318181818181,
                "pitch": 44,
                "velocity": 64,
                "duration": 0.10000000000000142,
                "tempo": 120.0
            },
            {
                "start_time": 63.459090909090904,
                "end_time": 63.559090909090905,
                "pitch": 44,
                "velocity": 64,
                "duration": 0.10000000000000142,
                "tempo": 120.0
            },
            {
                "start_time": 63.57727272727272,
                "end_time": 63.79545454545454,
                "pitch": 42,
                "velocity": 64,
                "duration": 0.2181818181818187,
                "tempo": 120.0
            },
            {
                "start_time": 63.81136363636363,
                "end_time": 63.91136363636363,
                "pitch": 42,
                "velocity": 64,
                "duration": 0.10000000000000142,
                "tempo": 120.0
            },
            {
                "start_time": 63.945454545454545,
                "end_time": 64.04772727272727,
                "pitch": 42,
                "velocity": 64,
                "duration": 0.10227272727272663,
                "tempo": 120.0
            },
            {
                "start_time": 64.06363636363636,
                "end_time": 64.28636363636363,
                "pitch": 42,
                "velocity": 64,
                "duration": 0.2227272727272691,
                "tempo": 120.0
            },
            {
                "start_time": 64.30227272727272,
                "end_time": 64.40454545454546,
                "pitch": 42,
                "velocity": 64,
                "duration": 0.10227272727273373,
                "tempo": 120.0
            },
            {
                "start_time": 64.42272727272727,
                "end_time": 64.52499999999999,
                "pitch": 42,
                "velocity": 64,
                "duration": 0.10227272727271952,
                "tempo": 120.0
            },
            {
                "start_time": 64.55909090909091,
                "end_time": 64.77499999999999,
                "pitch": 44,
                "velocity": 64,
                "duration": 0.21590909090907928,
                "tempo": 120.0
            },
            {
                "start_time": 64.79090909090908,
                "end_time": 64.89090909090909,
                "pitch": 44,
                "velocity": 64,
                "duration": 0.10000000000000853,
                "tempo": 120.0
            },
            {
                "start_time": 64.9090909090909,
                "end_time": 65.0090909090909,
                "pitch": 44,
                "velocity": 64,
                "duration": 0.09999999999999432,
                "tempo": 120.0
            },
            {
                "start_time": 65.02499999999999,
                "end_time": 65.25454545454545,
                "pitch": 44,
                "velocity": 64,
                "duration": 0.22954545454545894,
                "tempo": 120.0
            },
            {
                "start_time": 65.27045454545454,
                "end_time": 65.37045454545454,
                "pitch": 44,
                "velocity": 64,
                "duration": 0.09999999999999432,
                "tempo": 120.0
            },
            {
                "start_time": 65.38636363636364,
                "end_time": 65.48409090909091,
                "pitch": 44,
                "velocity": 64,
                "duration": 0.09772727272726911,
                "tempo": 120.0
            },
            {
                "start_time": 65.5,
                "end_time": 65.71818181818182,
                "pitch": 34,
                "velocity": 64,
                "duration": 0.2181818181818187,
                "tempo": 120.0
            },
            {
                "start_time": 65.75,
                "end_time": 65.85,
                "pitch": 34,
                "velocity": 64,
                "duration": 0.09999999999999432,
                "tempo": 120.0
            },
            {
                "start_time": 65.86818181818181,
                "end_time": 65.96818181818182,
                "pitch": 34,
                "velocity": 64,
                "duration": 0.10000000000000853,
                "tempo": 120.0
            },
            {
                "start_time": 65.98409090909091,
                "end_time": 66.20681818181818,
                "pitch": 34,
                "velocity": 64,
                "duration": 0.2227272727272691,
                "tempo": 120.0
            },
            {
                "start_time": 66.22272727272727,
                "end_time": 66.325,
                "pitch": 34,
                "velocity": 64,
                "duration": 0.10227272727273373,
                "tempo": 120.0
            },
            {
                "start_time": 66.35909090909091,
                "end_time": 66.46136363636363,
                "pitch": 34,
                "velocity": 64,
                "duration": 0.10227272727271952,
                "tempo": 120.0
            },
            {
                "start_time": 66.47954545454544,
                "end_time": 66.69545454545454,
                "pitch": 34,
                "velocity": 64,
                "duration": 0.2159090909090935,
                "tempo": 120.0
            },
            {
                "start_time": 66.71363636363635,
                "end_time": 66.81363636363636,
                "pitch": 34,
                "velocity": 64,
                "duration": 0.10000000000000853,
                "tempo": 120.0
            },
            {
                "start_time": 66.82954545454545,
                "end_time": 66.92954545454545,
                "pitch": 34,
                "velocity": 64,
                "duration": 0.09999999999999432,
                "tempo": 120.0
            },
            {
                "start_time": 66.96363636363635,
                "end_time": 67.18181818181817,
                "pitch": 34,
                "velocity": 64,
                "duration": 0.2181818181818187,
                "tempo": 120.0
            },
            {
                "start_time": 67.19772727272726,
                "end_time": 67.29772727272727,
                "pitch": 34,
                "velocity": 64,
                "duration": 0.10000000000000853,
                "tempo": 120.0
            },
            {
                "start_time": 67.31590909090909,
                "end_time": 67.41590909090908,
                "pitch": 34,
                "velocity": 64,
                "duration": 0.09999999999999432,
                "tempo": 120.0
            },
            {
                "start_time": 67.43409090909091,
                "end_time": 67.66363636363636,
                "pitch": 42,
                "velocity": 64,
                "duration": 0.22954545454544473,
                "tempo": 120.0
            },
            {
                "start_time": 67.67954545454545,
                "end_time": 67.77727272727273,
                "pitch": 42,
                "velocity": 64,
                "duration": 0.09772727272728332,
                "tempo": 120.0
            },
            {
                "start_time": 67.79318181818182,
                "end_time": 67.89318181818182,
                "pitch": 42,
                "velocity": 64,
                "duration": 0.09999999999999432,
                "tempo": 120.0
            },
            {
                "start_time": 67.9090909090909,
                "end_time": 68.12727272727273,
                "pitch": 42,
                "velocity": 64,
                "duration": 0.2181818181818187,
                "tempo": 120.0
            },
            {
                "start_time": 68.16136363636363,
                "end_time": 68.26136363636363,
                "pitch": 42,
                "velocity": 64,
                "duration": 0.09999999999999432,
                "tempo": 120.0
            },
            {
                "start_time": 68.27727272727273,
                "end_time": 68.37954545454545,
                "pitch": 42,
                "velocity": 64,
                "duration": 0.10227272727271952,
                "tempo": 120.0
            },
            {
                "start_time": 68.39545454545454,
                "end_time": 68.61363636363636,
                "pitch": 42,
                "velocity": 64,
                "duration": 0.2181818181818187,
                "tempo": 120.0
            },
            {
                "start_time": 68.63181818181818,
                "end_time": 68.73181818181818,
                "pitch": 42,
                "velocity": 64,
                "duration": 0.10000000000000853,
                "tempo": 120.0
            },
            {
                "start_time": 68.76590909090909,
                "end_time": 68.86590909090908,
                "pitch": 42,
                "velocity": 64,
                "duration": 0.09999999999999432,
                "tempo": 120.0
            },
            {
                "start_time": 68.8840909090909,
                "end_time": 69.10454545454544,
                "pitch": 42,
                "velocity": 64,
                "duration": 0.2204545454545439,
                "tempo": 120.0
            },
            {
                "start_time": 69.12272727272727,
                "end_time": 69.225,
                "pitch": 42,
                "velocity": 64,
                "duration": 0.10227272727271952,
                "tempo": 120.0
            },
            {
                "start_time": 69.24090909090908,
                "end_time": 69.34318181818182,
                "pitch": 42,
                "velocity": 64,
                "duration": 0.10227272727273373,
                "tempo": 120.0
            },
            {
                "start_time": 69.37727272727273,
                "end_time": 69.59772727272727,
                "pitch": 44,
                "velocity": 64,
                "duration": 0.2204545454545439,
                "tempo": 120.0
            },
            {
                "start_time": 69.61363636363636,
                "end_time": 69.71363636363635,
                "pitch": 44,
                "velocity": 64,
                "duration": 0.09999999999999432,
                "tempo": 120.0
            },
            {
                "start_time": 69.73181818181818,
                "end_time": 69.83181818181818,
                "pitch": 44,
                "velocity": 64,
                "duration": 0.09999999999999432,
                "tempo": 120.0
            },
            {
                "start_time": 69.84772727272727,
                "end_time": 70.07727272727273,
                "pitch": 44,
                "velocity": 64,
                "duration": 0.22954545454545894,
                "tempo": 120.0
            },
            {
                "start_time": 70.09545454545454,
                "end_time": 70.19318181818181,
                "pitch": 44,
                "velocity": 64,
                "duration": 0.09772727272726911,
                "tempo": 120.0
            },
            {
                "start_time": 70.2090909090909,
                "end_time": 70.30909090909091,
                "pitch": 44,
                "velocity": 64,
                "duration": 0.10000000000000853,
                "tempo": 120.0
            },
            {
                "start_time": 70.325,
                "end_time": 70.54090909090908,
                "pitch": 44,
                "velocity": 64,
                "duration": 0.21590909090907928,
                "tempo": 120.0
            },
            {
                "start_time": 70.575,
                "end_time": 70.675,
                "pitch": 44,
                "velocity": 64,
                "duration": 0.09999999999999432,
                "tempo": 120.0
            },
            {
                "start_time": 70.69090909090909,
                "end_time": 70.79090909090908,
                "pitch": 44,
                "velocity": 64,
                "duration": 0.09999999999999432,
                "tempo": 120.0
            },
            {
                "start_time": 70.80681818181817,
                "end_time": 71.02499999999999,
                "pitch": 44,
                "velocity": 64,
                "duration": 0.2181818181818187,
                "tempo": 120.0
            },
            {
                "start_time": 71.04318181818182,
                "end_time": 71.14318181818182,
                "pitch": 44,
                "velocity": 64,
                "duration": 0.09999999999999432,
                "tempo": 120.0
            },
            {
                "start_time": 71.17727272727272,
                "end_time": 71.27727272727273,
                "pitch": 44,
                "velocity": 64,
                "duration": 0.10000000000000853,
                "tempo": 120.0
            },
            {
                "start_time": 71.29545454545455,
                "end_time": 71.51363636363637,
                "pitch": 34,
                "velocity": 64,
                "duration": 0.2181818181818187,
                "tempo": 120.0
            },
            {
                "start_time": 71.52954545454546,
                "end_time": 71.63181818181818,
                "pitch": 34,
                "velocity": 64,
                "duration": 0.10227272727271952,
                "tempo": 120.0
            },
            {
                "start_time": 71.64772727272727,
                "end_time": 71.74772727272727,
                "pitch": 34,
                "velocity": 64,
                "duration": 0.10000000000000853,
                "tempo": 120.0
            },
            {
                "start_time": 71.78181818181818,
                "end_time": 72.00454545454545,
                "pitch": 34,
                "velocity": 64,
                "duration": 0.2227272727272691,
                "tempo": 120.0
            },
            {
                "start_time": 72.02045454545454,
                "end_time": 72.48409090909091,
                "pitch": 49,
                "velocity": 64,
                "duration": 0.4636363636363683,
                "tempo": 120.0
            },
            {
                "start_time": 72.5,
                "end_time": 72.7090909090909,
                "pitch": 48,
                "velocity": 64,
                "duration": 0.20909090909090366,
                "tempo": 120.0
            },
            {
                "start_time": 72.725,
                "end_time": 72.94545454545454,
                "pitch": 46,
                "velocity": 64,
                "duration": 0.2204545454545439,
                "tempo": 120.0
            },
            {
                "start_time": 72.97954545454544,
                "end_time": 73.20227272727273,
                "pitch": 44,
                "velocity": 64,
                "duration": 0.22272727272728332,
                "tempo": 120.0
            },
            {
                "start_time": 73.22045454545454,
                "end_time": 73.43863636363636,
                "pitch": 34,
                "velocity": 64,
                "duration": 0.2181818181818187,
                "tempo": 120.0
            },
            {
                "start_time": 73.45454545454545,
                "end_time": 73.55454545454545,
                "pitch": 34,
                "velocity": 64,
                "duration": 0.09999999999999432,
                "tempo": 120.0
            },
            {
                "start_time": 73.58863636363635,
                "end_time": 73.69090909090909,
                "pitch": 34,
                "velocity": 64,
                "duration": 0.10227272727273373,
                "tempo": 120.0
            },
            {
                "start_time": 73.70681818181818,
                "end_time": 73.92954545454545,
                "pitch": 34,
                "velocity": 64,
                "duration": 0.2227272727272691,
                "tempo": 120.0
            },
            {
                "start_time": 73.94545454545454,
                "end_time": 74.04772727272727,
                "pitch": 34,
                "velocity": 64,
                "duration": 0.10227272727273373,
                "tempo": 120.0
            },
            {
                "start_time": 74.06590909090909,
                "end_time": 74.16818181818182,
                "pitch": 34,
                "velocity": 64,
                "duration": 0.10227272727273373,
                "tempo": 120.0
            },
            {
                "start_time": 74.20227272727273,
                "end_time": 74.42045454545455,
                "pitch": 34,
                "velocity": 64,
                "duration": 0.2181818181818187,
                "tempo": 120.0
            },
            {
                "start_time": 74.43636363636364,
                "end_time": 74.53863636363636,
                "pitch": 34,
                "velocity": 64,
                "duration": 0.10227272727271952,
                "tempo": 120.0
            },
            {
                "start_time": 74.55454545454545,
                "end_time": 74.65454545454546,
                "pitch": 34,
                "velocity": 64,
                "duration": 0.10000000000000853,
                "tempo": 120.0
            },
            {
                "start_time": 74.67272727272727,
                "end_time": 74.90227272727272,
                "pitch": 34,
                "velocity": 64,
                "duration": 0.22954545454544473,
                "tempo": 120.0
            },
            {
                "start_time": 74.91818181818182,
                "end_time": 75.01590909090909,
                "pitch": 34,
                "velocity": 64,
                "duration": 0.09772727272726911,
                "tempo": 120.0
            },
            {
                "start_time": 75.0340909090909,
                "end_time": 75.13181818181818,
                "pitch": 34,
                "velocity": 64,
                "duration": 0.09772727272726911,
                "tempo": 120.0
            },
            {
                "start_time": 75.14772727272727,
                "end_time": 75.36590909090908,
                "pitch": 42,
                "velocity": 64,
                "duration": 0.2181818181818187,
                "tempo": 120.0
            },
            {
                "start_time": 75.39999999999999,
                "end_time": 75.5,
                "pitch": 42,
                "velocity": 64,
                "duration": 0.10000000000000853,
                "tempo": 120.0
            },
            {
                "start_time": 75.51818181818182,
                "end_time": 75.61818181818181,
                "pitch": 42,
                "velocity": 64,
                "duration": 0.09999999999999432,
                "tempo": 120.0
            },
            {
                "start_time": 75.6340909090909,
                "end_time": 75.85227272727272,
                "pitch": 42,
                "velocity": 64,
                "duration": 0.2181818181818187,
                "tempo": 120.0
            },
            {
                "start_time": 75.86818181818181,
                "end_time": 75.96818181818182,
                "pitch": 42,
                "velocity": 64,
                "duration": 0.10000000000000853,
                "tempo": 120.0
            },
            {
                "start_time": 76.00227272727273,
                "end_time": 76.10227272727272,
                "pitch": 42,
                "velocity": 64,
                "duration": 0.09999999999999432,
                "tempo": 120.0
            },
            {
                "start_time": 76.11818181818181,
                "end_time": 76.3409090909091,
                "pitch": 42,
                "velocity": 64,
                "duration": 0.22272727272728332,
                "tempo": 120.0
            },
            {
                "start_time": 76.35681818181818,
                "end_time": 76.4590909090909,
                "pitch": 42,
                "velocity": 64,
                "duration": 0.10227272727271952,
                "tempo": 120.0
            },
            {
                "start_time": 76.47727272727272,
                "end_time": 76.57954545454545,
                "pitch": 42,
                "velocity": 64,
                "duration": 0.10227272727273373,
                "tempo": 120.0
            },
            {
                "start_time": 76.61363636363636,
                "end_time": 76.82954545454545,
                "pitch": 42,
                "velocity": 64,
                "duration": 0.2159090909090935,
                "tempo": 120.0
            },
            {
                "start_time": 76.84772727272727,
                "end_time": 76.94772727272726,
                "pitch": 42,
                "velocity": 64,
                "duration": 0.09999999999999432,
                "tempo": 120.0
            },
            {
                "start_time": 76.96363636363635,
                "end_time": 77.06363636363636,
                "pitch": 42,
                "velocity": 64,
                "duration": 0.10000000000000853,
                "tempo": 120.0
            },
            {
                "start_time": 77.07954545454545,
                "end_time": 77.30909090909091,
                "pitch": 44,
                "velocity": 64,
                "duration": 0.22954545454545894,
                "tempo": 120.0
            },
            {
                "start_time": 77.32727272727273,
                "end_time": 77.425,
                "pitch": 44,
                "velocity": 64,
                "duration": 0.09772727272726911,
                "tempo": 120.0
            },
            {
                "start_time": 77.44090909090909,
                "end_time": 77.53863636363636,
                "pitch": 44,
                "velocity": 64,
                "duration": 0.09772727272726911,
                "tempo": 120.0
            },
            {
                "start_time": 77.55681818181817,
                "end_time": 77.77272727272727,
                "pitch": 44,
                "velocity": 64,
                "duration": 0.2159090909090935,
                "tempo": 120.0
            },
            {
                "start_time": 77.80681818181817,
                "end_time": 77.90681818181818,
                "pitch": 44,
                "velocity": 64,
                "duration": 0.10000000000000853,
                "tempo": 120.0
            },
            {
                "start_time": 77.92272727272727,
                "end_time": 78.02272727272727,
                "pitch": 44,
                "velocity": 64,
                "duration": 0.09999999999999432,
                "tempo": 120.0
            },
            {
                "start_time": 78.03863636363636,
                "end_time": 78.25681818181818,
                "pitch": 44,
                "velocity": 64,
                "duration": 0.2181818181818187,
                "tempo": 120.0
            },
            {
                "start_time": 78.27499999999999,
                "end_time": 78.375,
                "pitch": 44,
                "velocity": 64,
                "duration": 0.10000000000000853,
                "tempo": 120.0
            },
            {
                "start_time": 78.4090909090909,
                "end_time": 78.5090909090909,
                "pitch": 44,
                "velocity": 64,
                "duration": 0.09999999999999432,
                "tempo": 120.0
            },
            {
                "start_time": 78.52727272727272,
                "end_time": 78.74772727272727,
                "pitch": 44,
                "velocity": 64,
                "duration": 0.22045454545455812,
                "tempo": 120.0
            },
            {
                "start_time": 78.76590909090909,
                "end_time": 78.86818181818181,
                "pitch": 44,
                "velocity": 64,
                "duration": 0.10227272727271952,
                "tempo": 120.0
            },
            {
                "start_time": 78.8840909090909,
                "end_time": 78.98636363636363,
                "pitch": 44,
                "velocity": 64,
                "duration": 0.10227272727273373,
                "tempo": 120.0
            },
            {
                "start_time": 79.02045454545454,
                "end_time": 79.24090909090908,
                "pitch": 34,
                "velocity": 64,
                "duration": 0.2204545454545439,
                "tempo": 120.0
            },
            {
                "start_time": 79.25681818181818,
                "end_time": 79.35681818181818,
                "pitch": 34,
                "velocity": 64,
                "duration": 0.10000000000000853,
                "tempo": 120.0
            },
            {
                "start_time": 79.375,
                "end_time": 79.475,
                "pitch": 34,
                "velocity": 64,
                "duration": 0.09999999999999432,
                "tempo": 120.0
            },
            {
                "start_time": 79.49090909090908,
                "end_time": 79.72272727272727,
                "pitch": 34,
                "velocity": 64,
                "duration": 0.23181818181818414,
                "tempo": 120.0
            },
            {
                "start_time": 79.73863636363636,
                "end_time": 80.18636363636364,
                "pitch": 49,
                "velocity": 64,
                "duration": 0.44772727272727764,
                "tempo": 120.0
            },
            {
                "start_time": 80.22045454545454,
                "end_time": 80.43863636363636,
                "pitch": 48,
                "velocity": 64,
                "duration": 0.2181818181818187,
                "tempo": 120.0
            },
            {
                "start_time": 80.45454545454545,
                "end_time": 80.67272727272727,
                "pitch": 46,
                "velocity": 64,
                "duration": 0.2181818181818187,
                "tempo": 120.0
            },
            {
                "start_time": 80.69090909090909,
                "end_time": 80.925,
                "pitch": 44,
                "velocity": 64,
                "duration": 0.23409090909090935,
                "tempo": 120.0
            },
            {
                "start_time": 80.94090909090909,
                "end_time": 80.975,
                "pitch": 34,
                "velocity": 64,
                "duration": 0.03409090909090651,
                "tempo": 120.0
            }
        ]
    }
}