{
    "track_id": "Out Run 3D (FM) - 02 - Midnight Highway",
    "mood": "happy",
    "instruments": {
        "Trumpet": [
            {
                "start_time": 0.0,
                "end_time": 1.584090909090909,
                "pitch": 54,
                "velocity": 51,
                "duration": 1.584090909090909,
                "tempo": 120.0
            },
            {
                "start_time": 1.5999999999999999,
                "end_time": 3.186363636363636,
                "pitch": 52,
                "velocity": 51,
                "duration": 1.5863636363636362,
                "tempo": 120.0
            },
            {
                "start_time": 3.202272727272727,
                "end_time": 4.790909090909091,
                "pitch": 55,
                "velocity": 51,
                "duration": 1.5886363636363638,
                "tempo": 120.0
            },
            {
                "start_time": 4.809090909090909,
                "end_time": 6.3977272727272725,
                "pitch": 54,
                "velocity": 51,
                "duration": 1.5886363636363638,
                "tempo": 120.0
            },
            {
                "start_time": 6.413636363636363,
                "end_time": 8.002272727272727,
                "pitch": 54,
                "velocity": 51,
                "duration": 1.5886363636363638,
                "tempo": 120.0
            },
            {
                "start_time": 8.018181818181818,
                "end_time": 9.611363636363636,
                "pitch": 52,
                "velocity": 51,
                "duration": 1.5931818181818187,
                "tempo": 120.0
            },
            {
                "start_time": 9.627272727272727,
                "end_time": 11.220454545454546,
                "pitch": 55,
                "velocity": 51,
                "duration": 1.5931818181818187,
                "tempo": 120.0
            },
            {
                "start_time": 11.238636363636363,
                "end_time": 12.829545454545453,
                "pitch": 54,
                "velocity": 51,
                "duration": 1.59090909090909,
                "tempo": 120.0
            },
            {
                "start_time": 12.845454545454546,
                "end_time": 13.23181818181818,
                "pitch": 52,
                "velocity": 51,
                "duration": 0.3863636363636349,
                "tempo": 120.0
            },
            {
                "start_time": 13.445454545454545,
                "end_time": 13.829545454545453,
                "pitch": 52,
                "velocity": 51,
                "duration": 0.38409090909090793,
                "tempo": 120.0
            },
            {
                "start_time": 14.052272727272726,
                "end_time": 14.436363636363636,
                "pitch": 52,
                "velocity": 51,
                "duration": 0.3840909090909097,
                "tempo": 120.0
            },
            {
                "start_time": 14.654545454545454,
                "end_time": 14.772727272727272,
                "pitch": 50,
                "velocity": 51,
                "duration": 0.11818181818181728,
                "tempo": 120.0
            },
            {
                "start_time": 15.059090909090909,
                "end_time": 15.174999999999999,
                "pitch": 50,
                "velocity": 51,
                "duration": 0.1159090909090903,
                "tempo": 120.0
            },
            {
                "start_time": 15.259090909090908,
                "end_time": 15.643181818181818,
                "pitch": 52,
                "velocity": 51,
                "duration": 0.3840909090909097,
                "tempo": 120.0
            },
            {
                "start_time": 17.668181818181818,
                "end_time": 17.852272727272727,
                "pitch": 71,
                "velocity": 51,
                "duration": 0.18409090909090864,
                "tempo": 120.0
            },
            {
                "start_time": 17.868181818181817,
                "end_time": 18.054545454545455,
                "pitch": 64,
                "velocity": 51,
                "duration": 0.1863636363636374,
                "tempo": 120.0
            },
            {
                "start_time": 18.070454545454545,
                "end_time": 18.254545454545454,
                "pitch": 71,
                "velocity": 51,
                "duration": 0.18409090909090864,
                "tempo": 120.0
            },
            {
                "start_time": 18.270454545454545,
                "end_time": 18.454545454545453,
                "pitch": 76,
                "velocity": 51,
                "duration": 0.18409090909090864,
                "tempo": 120.0
            },
            {
                "start_time": 20.875,
                "end_time": 21.061363636363634,
                "pitch": 71,
                "velocity": 51,
                "duration": 0.18636363636363384,
                "tempo": 120.0
            },
            {
                "start_time": 21.077272727272724,
                "end_time": 21.261363636363637,
                "pitch": 64,
                "velocity": 51,
                "duration": 0.1840909090909122,
                "tempo": 120.0
            },
            {
                "start_time": 21.279545454545453,
                "end_time": 21.461363636363636,
                "pitch": 71,
                "velocity": 51,
                "duration": 0.18181818181818343,
                "tempo": 120.0
            },
            {
                "start_time": 21.479545454545452,
                "end_time": 21.661363636363635,
                "pitch": 76,
                "velocity": 51,
                "duration": 0.18181818181818343,
                "tempo": 120.0
            },
            {
                "start_time": 24.086363636363636,
                "end_time": 24.270454545454545,
                "pitch": 69,
                "velocity": 51,
                "duration": 0.18409090909090864,
                "tempo": 120.0
            },
            {
                "start_time": 24.286363636363635,
                "end_time": 24.470454545454544,
                "pitch": 62,
                "velocity": 51,
                "duration": 0.18409090909090864,
                "tempo": 120.0
            },
            {
                "start_time": 24.486363636363635,
                "end_time": 24.670454545454543,
                "pitch": 69,
                "velocity": 51,
                "duration": 0.18409090909090864,
                "tempo": 120.0
            },
            {
                "start_time": 24.686363636363634,
                "end_time": 24.870454545454542,
                "pitch": 74,
                "velocity": 51,
                "duration": 0.18409090909090864,
                "tempo": 120.0
            },
            {
                "start_time": 27.295454545454543,
                "end_time": 27.477272727272727,
                "pitch": 69,
                "velocity": 51,
                "duration": 0.18181818181818343,
                "tempo": 120.0
            },
            {
                "start_time": 27.495454545454542,
                "end_time": 27.677272727272726,
                "pitch": 62,
                "velocity": 51,
                "duration": 0.18181818181818343,
                "tempo": 120.0
            },
            {
                "start_time": 27.695454545454545,
                "end_time": 27.879545454545454,
                "pitch": 69,
                "velocity": 51,
                "duration": 0.18409090909090864,
                "tempo": 120.0
            },
            {
                "start_time": 27.895454545454545,
                "end_time": 28.079545454545453,
                "pitch": 74,
                "velocity": 51,
                "duration": 0.18409090909090864,
                "tempo": 120.0
            },
            {
                "start_time": 28.9,
                "end_time": 29.286363636363635,
                "pitch": 71,
                "velocity": 64,
                "duration": 0.3863636363636367,
                "tempo": 120.0
            },
            {
                "start_time": 29.302272727272726,
                "end_time": 29.486363636363635,
                "pitch": 66,
                "velocity": 64,
                "duration": 0.18409090909090864,
                "tempo": 120.0
            },
            {
                "start_time": 29.502272727272725,
                "end_time": 29.886363636363637,
                "pitch": 67,
                "velocity": 64,
                "duration": 0.3840909090909115,
                "tempo": 120.0
            },
            {
                "start_time": 29.904545454545453,
                "end_time": 30.28863636363636,
                "pitch": 64,
                "velocity": 64,
                "duration": 0.38409090909090793,
                "tempo": 120.0
            },
            {
                "start_time": 30.304545454545455,
                "end_time": 30.688636363636363,
                "pitch": 64,
                "velocity": 64,
                "duration": 0.38409090909090793,
                "tempo": 120.0
            },
            {
                "start_time": 30.704545454545453,
                "end_time": 31.09090909090909,
                "pitch": 59,
                "velocity": 64,
                "duration": 0.3863636363636367,
                "tempo": 120.0
            },
            {
                "start_time": 31.10681818181818,
                "end_time": 31.49090909090909,
                "pitch": 64,
                "velocity": 64,
                "duration": 0.38409090909090793,
                "tempo": 120.0
            },
            {
                "start_time": 31.509090909090908,
                "end_time": 31.690909090909088,
                "pitch": 59,
                "velocity": 64,
                "duration": 0.18181818181817988,
                "tempo": 120.0
            },
            {
                "start_time": 31.709090909090907,
                "end_time": 31.893181818181816,
                "pitch": 59,
                "velocity": 64,
                "duration": 0.18409090909090864,
                "tempo": 120.0
            },
            {
                "start_time": 31.909090909090907,
                "end_time": 32.09318181818182,
                "pitch": 57,
                "velocity": 64,
                "duration": 0.1840909090909122,
                "tempo": 120.0
            },
            {
                "start_time": 32.111363636363635,
                "end_time": 32.49318181818182,
                "pitch": 71,
                "velocity": 64,
                "duration": 0.3818181818181827,
                "tempo": 120.0
            },
            {
                "start_time": 32.51136363636363,
                "end_time": 32.69318181818182,
                "pitch": 66,
                "velocity": 64,
                "duration": 0.18181818181818699,
                "tempo": 120.0
            },
            {
                "start_time": 32.711363636363636,
                "end_time": 33.09318181818182,
                "pitch": 67,
                "velocity": 64,
                "duration": 0.3818181818181827,
                "tempo": 120.0
            },
            {
                "start_time": 33.111363636363635,
                "end_time": 33.49545454545454,
                "pitch": 64,
                "velocity": 64,
                "duration": 0.38409090909090793,
                "tempo": 120.0
            },
            {
                "start_time": 33.51136363636363,
                "end_time": 33.89772727272727,
                "pitch": 64,
                "velocity": 64,
                "duration": 0.38636363636364024,
                "tempo": 120.0
            },
            {
                "start_time": 33.913636363636364,
                "end_time": 34.29772727272727,
                "pitch": 59,
                "velocity": 64,
                "duration": 0.38409090909090793,
                "tempo": 120.0
            },
            {
                "start_time": 34.31363636363636,
                "end_time": 34.69772727272727,
                "pitch": 64,
                "velocity": 64,
                "duration": 0.38409090909090793,
                "tempo": 120.0
            },
            {
                "start_time": 34.71363636363636,
                "end_time": 34.89772727272727,
                "pitch": 59,
                "velocity": 64,
                "duration": 0.1840909090909122,
                "tempo": 120.0
            },
            {
                "start_time": 34.913636363636364,
                "end_time": 35.09772727272727,
                "pitch": 59,
                "velocity": 64,
                "duration": 0.18409090909090509,
                "tempo": 120.0
            },
            {
                "start_time": 35.11363636363636,
                "end_time": 35.29772727272727,
                "pitch": 57,
                "velocity": 64,
                "duration": 0.1840909090909122,
                "tempo": 120.0
            },
            {
                "start_time": 35.31363636363636,
                "end_time": 35.699999999999996,
                "pitch": 69,
                "velocity": 64,
                "duration": 0.38636363636363313,
                "tempo": 120.0
            },
            {
                "start_time": 35.715909090909086,
                "end_time": 35.9,
                "pitch": 64,
                "velocity": 64,
                "duration": 0.1840909090909122,
                "tempo": 120.0
            },
            {
                "start_time": 35.91590909090909,
                "end_time": 36.3,
                "pitch": 66,
                "velocity": 64,
                "duration": 0.38409090909090793,
                "tempo": 120.0
            },
            {
                "start_time": 36.31590909090909,
                "end_time": 36.699999999999996,
                "pitch": 59,
                "velocity": 64,
                "duration": 0.38409090909090793,
                "tempo": 120.0
            },
            {
                "start_time": 36.715909090909086,
                "end_time": 37.1,
                "pitch": 64,
                "velocity": 64,
                "duration": 0.38409090909091503,
                "tempo": 120.0
            },
            {
                "start_time": 37.11590909090909,
                "end_time": 37.5,
                "pitch": 59,
                "velocity": 64,
                "duration": 0.38409090909090793,
                "tempo": 120.0
            },
            {
                "start_time": 37.518181818181816,
                "end_time": 37.902272727272724,
                "pitch": 64,
                "velocity": 64,
                "duration": 0.38409090909090793,
                "tempo": 120.0
            },
            {
                "start_time": 37.918181818181814,
                "end_time": 38.10227272727273,
                "pitch": 59,
                "velocity": 64,
                "duration": 0.1840909090909122,
                "tempo": 120.0
            },
            {
                "start_time": 38.11818181818182,
                "end_time": 38.30227272727272,
                "pitch": 59,
                "velocity": 64,
                "duration": 0.18409090909090509,
                "tempo": 120.0
            },
            {
                "start_time": 38.31818181818181,
                "end_time": 38.502272727272725,
                "pitch": 57,
                "velocity": 64,
                "duration": 0.1840909090909122,
                "tempo": 120.0
            },
            {
                "start_time": 38.518181818181816,
                "end_time": 38.902272727272724,
                "pitch": 69,
                "velocity": 64,
                "duration": 0.38409090909090793,
                "tempo": 120.0
            },
            {
                "start_time": 38.918181818181814,
                "end_time": 39.10227272727273,
                "pitch": 64,
                "velocity": 64,
                "duration": 0.1840909090909122,
                "tempo": 120.0
            },
            {
                "start_time": 39.11818181818182,
                "end_time": 39.50454545454545,
                "pitch": 66,
                "velocity": 64,
                "duration": 0.38636363636363313,
                "tempo": 120.0
            },
            {
                "start_time": 39.52045454545454,
                "end_time": 39.904545454545456,
                "pitch": 59,
                "velocity": 64,
                "duration": 0.38409090909091503,
                "tempo": 120.0
            },
            {
                "start_time": 39.92045454545455,
                "end_time": 40.304545454545455,
                "pitch": 64,
                "velocity": 64,
                "duration": 0.38409090909090793,
                "tempo": 120.0
            },
            {
                "start_time": 40.320454545454545,
                "end_time": 40.70454545454545,
                "pitch": 59,
                "velocity": 64,
                "duration": 0.38409090909090793,
                "tempo": 120.0
            },
            {
                "start_time": 40.720454545454544,
                "end_time": 41.1,
                "pitch": 64,
                "velocity": 64,
                "duration": 0.3795454545454575,
                "tempo": 120.0
            },
            {
                "start_time": 41.11818181818182,
                "end_time": 41.29772727272727,
                "pitch": 59,
                "velocity": 64,
                "duration": 0.17954545454545467,
                "tempo": 120.0
            },
            {
                "start_time": 41.31363636363636,
                "end_time": 41.502272727272725,
                "pitch": 59,
                "velocity": 64,
                "duration": 0.1886363636363626,
                "tempo": 120.0
            },
            {
                "start_time": 41.518181818181816,
                "end_time": 41.70681818181818,
                "pitch": 57,
                "velocity": 64,
                "duration": 0.1886363636363626,
                "tempo": 120.0
            },
            {
                "start_time": 41.725,
                "end_time": 42.10681818181818,
                "pitch": 55,
                "velocity": 51,
                "duration": 0.3818181818181756,
                "tempo": 120.0
            },
            {
                "start_time": 42.320454545454545,
                "end_time": 42.70454545454545,
                "pitch": 55,
                "velocity": 51,
                "duration": 0.38409090909090793,
                "tempo": 120.0
            },
            {
                "start_time": 42.92727272727272,
                "end_time": 43.31136363636364,
                "pitch": 55,
                "velocity": 51,
                "duration": 0.38409090909091503,
                "tempo": 120.0
            },
            {
                "start_time": 43.52954545454545,
                "end_time": 43.64545454545454,
                "pitch": 54,
                "velocity": 51,
                "duration": 0.11590909090909207,
                "tempo": 120.0
            },
            {
                "start_time": 43.929545454545455,
                "end_time": 44.04772727272727,
                "pitch": 54,
                "velocity": 51,
                "duration": 0.11818181818181728,
                "tempo": 120.0
            },
            {
                "start_time": 44.12954545454545,
                "end_time": 44.24772727272727,
                "pitch": 54,
                "velocity": 51,
                "duration": 0.11818181818181728,
                "tempo": 120.0
            },
            {
                "start_time": 44.32954545454545,
                "end_time": 44.44772727272727,
                "pitch": 54,
                "velocity": 51,
                "duration": 0.11818181818181728,
                "tempo": 120.0
            },
            {
                "start_time": 44.52954545454545,
                "end_time": 44.913636363636364,
                "pitch": 54,
                "velocity": 51,
                "duration": 0.38409090909091503,
                "tempo": 120.0
            },
            {
                "start_time": 44.929545454545455,
                "end_time": 45.31363636363636,
                "pitch": 52,
                "velocity": 51,
                "duration": 0.38409090909090793,
                "tempo": 120.0
            },
            {
                "start_time": 45.525,
                "end_time": 45.90681818181818,
                "pitch": 52,
                "velocity": 51,
                "duration": 0.3818181818181827,
                "tempo": 120.0
            },
            {
                "start_time": 46.125,
                "end_time": 46.518181818181816,
                "pitch": 52,
                "velocity": 51,
                "duration": 0.39318181818181586,
                "tempo": 120.0
            },
            {
                "start_time": 46.53636363636363,
                "end_time": 48.12272727272727,
                "pitch": 51,
                "velocity": 51,
                "duration": 1.586363636363636,
                "tempo": 120.0
            },
            {
                "start_time": 74.60454545454544,
                "end_time": 75.38863636363637,
                "pitch": 57,
                "velocity": 51,
                "duration": 0.7840909090909207,
                "tempo": 120.0
            },
            {
                "start_time": 75.40681818181818,
                "end_time": 76.19318181818181,
                "pitch": 59,
                "velocity": 51,
                "duration": 0.7863636363636317,
                "tempo": 120.0
            },
            {
                "start_time": 76.2090909090909,
                "end_time": 76.99772727272727,
                "pitch": 64,
                "velocity": 51,
                "duration": 0.7886363636363711,
                "tempo": 120.0
            },
            {
                "start_time": 77.01363636363637,
                "end_time": 77.8,
                "pitch": 64,
                "velocity": 51,
                "duration": 0.7863636363636317,
                "tempo": 120.0
            },
            {
                "start_time": 77.81818181818181,
                "end_time": 78.60227272727272,
                "pitch": 66,
                "velocity": 51,
                "duration": 0.7840909090909065,
                "tempo": 120.0
            },
            {
                "start_time": 78.62045454545454,
                "end_time": 79.40681818181818,
                "pitch": 55,
                "velocity": 51,
                "duration": 0.7863636363636459,
                "tempo": 120.0
            },
            {
                "start_time": 79.42272727272727,
                "end_time": 80.2090909090909,
                "pitch": 56,
                "velocity": 51,
                "duration": 0.7863636363636317,
                "tempo": 120.0
            },
            {
                "start_time": 80.42045454545455,
                "end_time": 80.6,
                "pitch": 59,
                "velocity": 51,
                "duration": 0.17954545454544757,
                "tempo": 120.0
            },
            {
                "start_time": 80.82272727272726,
                "end_time": 81.01136363636363,
                "pitch": 59,
                "velocity": 51,
                "duration": 0.1886363636363626,
                "tempo": 120.0
            },
            {
                "start_time": 81.22727272727272,
                "end_time": 81.41136363636363,
                "pitch": 59,
                "velocity": 51,
                "duration": 0.1840909090909122,
                "tempo": 120.0
            },
            {
                "start_time": 81.62954545454545,
                "end_time": 81.81363636363636,
                "pitch": 59,
                "velocity": 51,
                "duration": 0.1840909090909122,
                "tempo": 120.0
            },
            {
                "start_time": 82.03181818181818,
                "end_time": 82.21363636363635,
                "pitch": 59,
                "velocity": 51,
                "duration": 0.18181818181817277,
                "tempo": 120.0
            },
            {
                "start_time": 82.43181818181817,
                "end_time": 82.61590909090908,
                "pitch": 59,
                "velocity": 51,
                "duration": 0.1840909090909122,
                "tempo": 120.0
            },
            {
                "start_time": 82.8340909090909,
                "end_time": 83.02045454545454,
                "pitch": 59,
                "velocity": 51,
                "duration": 0.1863636363636374,
                "tempo": 120.0
            },
            {
                "start_time": 83.23636363636363,
                "end_time": 83.42045454545455,
                "pitch": 59,
                "velocity": 51,
                "duration": 0.1840909090909122,
                "tempo": 120.0
            },
            {
                "start_time": 83.63863636363637,
                "end_time": 83.82272727272726,
                "pitch": 59,
                "velocity": 51,
                "duration": 0.18409090909089798,
                "tempo": 120.0
            },
            {
                "start_time": 84.03863636363636,
                "end_time": 84.22272727272727,
                "pitch": 59,
                "velocity": 51,
                "duration": 0.1840909090909122,
                "tempo": 120.0
            },
            {
                "start_time": 84.44090909090909,
                "end_time": 84.625,
                "pitch": 59,
                "velocity": 51,
                "duration": 0.1840909090909122,
                "tempo": 120.0
            },
            {
                "start_time": 84.84318181818182,
                "end_time": 85.02727272727272,
                "pitch": 59,
                "velocity": 51,
                "duration": 0.18409090909089798,
                "tempo": 120.0
            },
            {
                "start_time": 85.24545454545454,
                "end_time": 85.42727272727272,
                "pitch": 59,
                "velocity": 51,
                "duration": 0.18181818181818699,
                "tempo": 120.0
            },
            {
                "start_time": 85.64090909090909,
                "end_time": 85.82045454545454,
                "pitch": 59,
                "velocity": 51,
                "duration": 0.17954545454544757,
                "tempo": 120.0
            },
            {
                "start_time": 86.03863636363636,
                "end_time": 86.22272727272727,
                "pitch": 59,
                "velocity": 51,
                "duration": 0.1840909090909122,
                "tempo": 120.0
            },
            {
                "start_time": 86.44545454545454,
                "end_time": 86.6340909090909,
                "pitch": 59,
                "velocity": 51,
                "duration": 0.1886363636363626,
                "tempo": 120.0
            },
            {
                "start_time": 86.85227272727272,
                "end_time": 87.03636363636363,
                "pitch": 60,
                "velocity": 51,
                "duration": 0.1840909090909122,
                "tempo": 120.0
            },
            {
                "start_time": 87.25227272727273,
                "end_time": 87.43636363636364,
                "pitch": 60,
                "velocity": 51,
                "duration": 0.1840909090909122,
                "tempo": 120.0
            },
            {
                "start_time": 87.65454545454546,
                "end_time": 87.83863636363635,
                "pitch": 60,
                "velocity": 51,
                "duration": 0.18409090909089798,
                "tempo": 120.0
            },
            {
                "start_time": 88.05681818181817,
                "end_time": 88.23863636363636,
                "pitch": 60,
                "velocity": 51,
                "duration": 0.18181818181818699,
                "tempo": 120.0
            },
            {
                "start_time": 88.45681818181818,
                "end_time": 88.64090909090909,
                "pitch": 60,
                "velocity": 51,
                "duration": 0.1840909090909122,
                "tempo": 120.0
            },
            {
                "start_time": 88.85909090909091,
                "end_time": 89.04545454545455,
                "pitch": 60,
                "velocity": 51,
                "duration": 0.1863636363636374,
                "tempo": 120.0
            },
            {
                "start_time": 89.26136363636363,
                "end_time": 89.44545454545454,
                "pitch": 60,
                "velocity": 51,
                "duration": 0.1840909090909122,
                "tempo": 120.0
            },
            {
                "start_time": 89.66136363636363,
                "end_time": 89.84772727272727,
                "pitch": 60,
                "velocity": 51,
                "duration": 0.1863636363636374,
                "tempo": 120.0
            },
            {
                "start_time": 90.06363636363636,
                "end_time": 90.24772727272727,
                "pitch": 60,
                "velocity": 51,
                "duration": 0.1840909090909122,
                "tempo": 120.0
            },
            {
                "start_time": 90.4659090909091,
                "end_time": 90.64999999999999,
                "pitch": 60,
                "velocity": 51,
                "duration": 0.18409090909089798,
                "tempo": 120.0
            },
            {
                "start_time": 90.86818181818181,
                "end_time": 91.05227272727272,
                "pitch": 60,
                "velocity": 51,
                "duration": 0.1840909090909122,
                "tempo": 120.0
            },
            {
                "start_time": 91.26818181818182,
                "end_time": 91.45227272727273,
                "pitch": 60,
                "velocity": 51,
                "duration": 0.1840909090909122,
                "tempo": 120.0
            },
            {
                "start_time": 91.67045454545455,
                "end_time": 91.85454545454544,
                "pitch": 60,
                "velocity": 51,
                "duration": 0.18409090909089798,
                "tempo": 120.0
            },
            {
                "start_time": 92.06818181818181,
                "end_time": 92.24772727272727,
                "pitch": 60,
                "velocity": 51,
                "duration": 0.17954545454546178,
                "tempo": 120.0
            },
            {
                "start_time": 92.46363636363635,
                "end_time": 92.64772727272727,
                "pitch": 60,
                "velocity": 51,
                "duration": 0.1840909090909122,
                "tempo": 120.0
            },
            {
                "start_time": 92.87045454545454,
                "end_time": 93.05681818181817,
                "pitch": 60,
                "velocity": 51,
                "duration": 0.1863636363636374,
                "tempo": 120.0
            },
            {
                "start_time": 93.27499999999999,
                "end_time": 93.4590909090909,
                "pitch": 61,
                "velocity": 51,
                "duration": 0.1840909090909122,
                "tempo": 120.0
            },
            {
                "start_time": 93.67727272727272,
                "end_time": 93.86136363636363,
                "pitch": 61,
                "velocity": 51,
                "duration": 0.1840909090909122,
                "tempo": 120.0
            },
            {
                "start_time": 94.07727272727273,
                "end_time": 94.26136363636363,
                "pitch": 61,
                "velocity": 51,
                "duration": 0.18409090909089798,
                "tempo": 120.0
            },
            {
                "start_time": 94.47954545454544,
                "end_time": 94.66363636363636,
                "pitch": 61,
                "velocity": 51,
                "duration": 0.1840909090909122,
                "tempo": 120.0
            },
            {
                "start_time": 94.88181818181818,
                "end_time": 95.06590909090909,
                "pitch": 62,
                "velocity": 51,
                "duration": 0.1840909090909122,
                "tempo": 120.0
            },
            {
                "start_time": 95.28181818181818,
                "end_time": 95.46590909090908,
                "pitch": 62,
                "velocity": 51,
                "duration": 0.18409090909089798,
                "tempo": 120.0
            },
            {
                "start_time": 95.6840909090909,
                "end_time": 95.86818181818181,
                "pitch": 62,
                "velocity": 51,
                "duration": 0.1840909090909122,
                "tempo": 120.0
            },
            {
                "start_time": 96.08636363636363,
                "end_time": 96.26818181818182,
                "pitch": 62,
                "velocity": 51,
                "duration": 0.18181818181818699,
                "tempo": 120.0
            },
            {
                "start_time": 96.28636363636363,
                "end_time": 96.87272727272727,
                "pitch": 64,
                "velocity": 51,
                "duration": 0.5863636363636431,
                "tempo": 120.0
            },
            {
                "start_time": 96.88863636363637,
                "end_time": 97.46590909090908,
                "pitch": 64,
                "velocity": 51,
                "duration": 0.5772727272727138,
                "tempo": 120.0
            },
            {
                "start_time": 97.48181818181818,
                "end_time": 97.87727272727273,
                "pitch": 64,
                "velocity": 51,
                "duration": 0.39545454545454106,
                "tempo": 120.0
            },
            {
                "start_time": 99.5,
                "end_time": 102.69545454545454,
                "pitch": 57,
                "velocity": 51,
                "duration": 3.195454545454538,
                "tempo": 120.0
            },
            {
                "start_time": 102.71363636363635,
                "end_time": 105.9090909090909,
                "pitch": 57,
                "velocity": 51,
                "duration": 3.1954545454545524,
                "tempo": 120.0
            },
            {
                "start_time": 105.925,
                "end_time": 107.51590909090909,
                "pitch": 55,
                "velocity": 51,
                "duration": 1.5909090909090935,
                "tempo": 120.0
            },
            {
                "start_time": 107.53181818181818,
                "end_time": 109.12272727272726,
                "pitch": 57,
                "velocity": 51,
                "duration": 1.5909090909090793,
                "tempo": 120.0
            },
            {
                "start_time": 109.13863636363635,
                "end_time": 110.72727272727272,
                "pitch": 59,
                "velocity": 51,
                "duration": 1.5886363636363683,
                "tempo": 120.0
            },
            {
                "start_time": 110.74545454545454,
                "end_time": 112.3340909090909,
                "pitch": 59,
                "velocity": 51,
                "duration": 1.5886363636363683,
                "tempo": 120.0
            },
            {
                "start_time": 112.35,
                "end_time": 113.94090909090909,
                "pitch": 52,
                "velocity": 51,
                "duration": 1.5909090909090935,
                "tempo": 120.0
            },
            {
                "start_time": 113.9590909090909,
                "end_time": 115.54772727272727,
                "pitch": 55,
                "velocity": 51,
                "duration": 1.5886363636363683,
                "tempo": 120.0
            },
            {
                "start_time": 115.56363636363636,
                "end_time": 117.15454545454544,
                "pitch": 55,
                "velocity": 51,
                "duration": 1.5909090909090793,
                "tempo": 120.0
            },
            {
                "start_time": 117.17272727272727,
                "end_time": 118.76136363636363,
                "pitch": 57,
                "velocity": 51,
                "duration": 1.588636363636354,
                "tempo": 120.0
            },
            {
                "start_time": 118.77727272727272,
                "end_time": 120.36590909090908,
                "pitch": 52,
                "velocity": 51,
                "duration": 1.5886363636363683,
                "tempo": 120.0
            },
            {
                "start_time": 120.38181818181818,
                "end_time": 121.975,
                "pitch": 50,
                "velocity": 51,
                "duration": 1.5931818181818187,
                "tempo": 120.0
            },
            {
                "start_time": 121.99090909090908,
                "end_time": 123.57954545454545,
                "pitch": 52,
                "velocity": 51,
                "duration": 1.5886363636363683,
                "tempo": 120.0
            },
            {
                "start_time": 123.59545454545454,
                "end_time": 125.18636363636362,
                "pitch": 54,
                "velocity": 51,
                "duration": 1.5909090909090793,
                "tempo": 120.0
            }
        ],
        "Acoustic Bass": [
            {
                "start_time": 0.0,
                "end_time": 0.18409090909090908,
                "pitch": 40,
                "velocity": 51,
                "duration": 0.18409090909090908,
                "tempo": 120.0
            },
            {
                "start_time": 0.19999999999999998,
                "end_time": 0.3840909090909091,
                "pitch": 52,
                "velocity": 51,
                "duration": 0.1840909090909091,
                "tempo": 120.0
            },
            {
                "start_time": 0.39999999999999997,
                "end_time": 0.5840909090909091,
                "pitch": 40,
                "velocity": 51,
                "duration": 0.18409090909090914,
                "tempo": 120.0
            },
            {
                "start_time": 0.6,
                "end_time": 0.7840909090909091,
                "pitch": 52,
                "velocity": 51,
                "duration": 0.18409090909090908,
                "tempo": 120.0
            },
            {
                "start_time": 0.7999999999999999,
                "end_time": 0.984090909090909,
                "pitch": 40,
                "velocity": 51,
                "duration": 0.18409090909090908,
                "tempo": 120.0
            },
            {
                "start_time": 1.0,
                "end_time": 1.184090909090909,
                "pitch": 52,
                "velocity": 51,
                "duration": 0.18409090909090908,
                "tempo": 120.0
            },
            {
                "start_time": 1.2,
                "end_time": 1.384090909090909,
                "pitch": 40,
                "velocity": 51,
                "duration": 0.18409090909090908,
                "tempo": 120.0
            },
            {
                "start_time": 1.4,
                "end_time": 1.584090909090909,
                "pitch": 52,
                "velocity": 51,
                "duration": 0.18409090909090908,
                "tempo": 120.0
            },
            {
                "start_time": 1.5999999999999999,
                "end_time": 2.3863636363636362,
                "pitch": 40,
                "velocity": 51,
                "duration": 0.7863636363636364,
                "tempo": 120.0
            },
            {
                "start_time": 3.202272727272727,
                "end_time": 3.3863636363636362,
                "pitch": 38,
                "velocity": 51,
                "duration": 0.18409090909090908,
                "tempo": 120.0
            },
            {
                "start_time": 3.4045454545454543,
                "end_time": 3.5886363636363634,
                "pitch": 50,
                "velocity": 51,
                "duration": 0.18409090909090908,
                "tempo": 120.0
            },
            {
                "start_time": 3.6045454545454545,
                "end_time": 3.7886363636363636,
                "pitch": 38,
                "velocity": 51,
                "duration": 0.18409090909090908,
                "tempo": 120.0
            },
            {
                "start_time": 3.8045454545454542,
                "end_time": 3.9886363636363633,
                "pitch": 50,
                "velocity": 51,
                "duration": 0.18409090909090908,
                "tempo": 120.0
            },
            {
                "start_time": 4.004545454545454,
                "end_time": 4.1886363636363635,
                "pitch": 38,
                "velocity": 51,
                "duration": 0.18409090909090953,
                "tempo": 120.0
            },
            {
                "start_time": 4.204545454545454,
                "end_time": 4.388636363636364,
                "pitch": 50,
                "velocity": 51,
                "duration": 0.18409090909090953,
                "tempo": 120.0
            },
            {
                "start_time": 4.404545454545454,
                "end_time": 4.590909090909091,
                "pitch": 38,
                "velocity": 51,
                "duration": 0.1863636363636365,
                "tempo": 120.0
            },
            {
                "start_time": 4.6068181818181815,
                "end_time": 4.790909090909091,
                "pitch": 50,
                "velocity": 51,
                "duration": 0.18409090909090953,
                "tempo": 120.0
            },
            {
                "start_time": 4.809090909090909,
                "end_time": 5.593181818181818,
                "pitch": 38,
                "velocity": 51,
                "duration": 0.7840909090909092,
                "tempo": 120.0
            },
            {
                "start_time": 6.413636363636363,
                "end_time": 6.602272727272727,
                "pitch": 40,
                "velocity": 51,
                "duration": 0.1886363636363635,
                "tempo": 120.0
            },
            {
                "start_time": 6.618181818181818,
                "end_time": 6.806818181818182,
                "pitch": 52,
                "velocity": 51,
                "duration": 0.1886363636363635,
                "tempo": 120.0
            },
            {
                "start_time": 6.824999999999999,
                "end_time": 7.004545454545454,
                "pitch": 40,
                "velocity": 51,
                "duration": 0.17954545454545467,
                "tempo": 120.0
            },
            {
                "start_time": 7.0204545454545455,
                "end_time": 7.199999999999999,
                "pitch": 52,
                "velocity": 51,
                "duration": 0.1795454545454538,
                "tempo": 120.0
            },
            {
                "start_time": 7.215909090909091,
                "end_time": 7.3999999999999995,
                "pitch": 40,
                "velocity": 51,
                "duration": 0.18409090909090864,
                "tempo": 120.0
            },
            {
                "start_time": 7.418181818181818,
                "end_time": 7.602272727272727,
                "pitch": 52,
                "velocity": 51,
                "duration": 0.18409090909090864,
                "tempo": 120.0
            },
            {
                "start_time": 7.618181818181818,
                "end_time": 7.802272727272727,
                "pitch": 40,
                "velocity": 51,
                "duration": 0.18409090909090864,
                "tempo": 120.0
            },
            {
                "start_time": 7.8181818181818175,
                "end_time": 8.002272727272727,
                "pitch": 52,
                "velocity": 51,
                "duration": 0.18409090909090953,
                "tempo": 120.0
            },
            {
                "start_time": 8.018181818181818,
                "end_time": 8.806818181818182,
                "pitch": 40,
                "velocity": 51,
                "duration": 0.788636363636364,
                "tempo": 120.0
            },
            {
                "start_time": 9.627272727272727,
                "end_time": 9.811363636363636,
                "pitch": 38,
                "velocity": 51,
                "duration": 0.18409090909090864,
                "tempo": 120.0
            },
            {
                "start_time": 9.829545454545453,
                "end_time": 10.013636363636364,
                "pitch": 50,
                "velocity": 51,
                "duration": 0.18409090909091042,
                "tempo": 120.0
            },
            {
                "start_time": 10.029545454545454,
                "end_time": 10.213636363636363,
                "pitch": 38,
                "velocity": 51,
                "duration": 0.18409090909090864,
                "tempo": 120.0
            },
            {
                "start_time": 10.23181818181818,
                "end_time": 10.415909090909091,
                "pitch": 50,
                "velocity": 51,
                "duration": 0.18409090909091042,
                "tempo": 120.0
            },
            {
                "start_time": 10.431818181818182,
                "end_time": 10.61590909090909,
                "pitch": 38,
                "velocity": 51,
                "duration": 0.18409090909090864,
                "tempo": 120.0
            },
            {
                "start_time": 10.634090909090908,
                "end_time": 10.818181818181818,
                "pitch": 50,
                "velocity": 51,
                "duration": 0.18409090909091042,
                "tempo": 120.0
            },
            {
                "start_time": 10.834090909090909,
                "end_time": 11.020454545454545,
                "pitch": 38,
                "velocity": 51,
                "duration": 0.18636363636363562,
                "tempo": 120.0
            },
            {
                "start_time": 11.036363636363635,
                "end_time": 11.220454545454546,
                "pitch": 50,
                "velocity": 51,
                "duration": 0.18409090909091042,
                "tempo": 120.0
            },
            {
                "start_time": 11.238636363636363,
                "end_time": 12.022727272727272,
                "pitch": 38,
                "velocity": 51,
                "duration": 0.7840909090909083,
                "tempo": 120.0
            },
            {
                "start_time": 12.845454545454546,
                "end_time": 13.23181818181818,
                "pitch": 40,
                "velocity": 51,
                "duration": 0.3863636363636349,
                "tempo": 120.0
            },
            {
                "start_time": 13.445454545454545,
                "end_time": 13.829545454545453,
                "pitch": 40,
                "velocity": 51,
                "duration": 0.38409090909090793,
                "tempo": 120.0
            },
            {
                "start_time": 14.052272727272726,
                "end_time": 14.436363636363636,
                "pitch": 40,
                "velocity": 51,
                "duration": 0.3840909090909097,
                "tempo": 120.0
            },
            {
                "start_time": 14.654545454545454,
                "end_time": 14.772727272727272,
                "pitch": 38,
                "velocity": 51,
                "duration": 0.11818181818181728,
                "tempo": 120.0
            },
            {
                "start_time": 15.059090909090909,
                "end_time": 15.174999999999999,
                "pitch": 38,
                "velocity": 51,
                "duration": 0.1159090909090903,
                "tempo": 120.0
            },
            {
                "start_time": 15.259090909090908,
                "end_time": 15.643181818181818,
                "pitch": 40,
                "velocity": 51,
                "duration": 0.3840909090909097,
                "tempo": 120.0
            },
            {
                "start_time": 16.061363636363634,
                "end_time": 16.24090909090909,
                "pitch": 40,
                "velocity": 51,
                "duration": 0.17954545454545467,
                "tempo": 120.0
            },
            {
                "start_time": 16.259090909090908,
                "end_time": 16.438636363636363,
                "pitch": 52,
                "velocity": 51,
                "duration": 0.17954545454545467,
                "tempo": 120.0
            },
            {
                "start_time": 16.454545454545453,
                "end_time": 16.643181818181816,
                "pitch": 40,
                "velocity": 51,
                "duration": 0.1886363636363626,
                "tempo": 120.0
            },
            {
                "start_time": 16.659090909090907,
                "end_time": 16.847727272727273,
                "pitch": 52,
                "velocity": 51,
                "duration": 0.18863636363636616,
                "tempo": 120.0
            },
            {
                "start_time": 16.86590909090909,
                "end_time": 17.05,
                "pitch": 40,
                "velocity": 51,
                "duration": 0.1840909090909122,
                "tempo": 120.0
            },
            {
                "start_time": 17.06590909090909,
                "end_time": 17.25,
                "pitch": 52,
                "velocity": 51,
                "duration": 0.18409090909090864,
                "tempo": 120.0
            },
            {
                "start_time": 17.268181818181816,
                "end_time": 17.45,
                "pitch": 40,
                "velocity": 51,
                "duration": 0.18181818181818343,
                "tempo": 120.0
            },
            {
                "start_time": 17.46818181818182,
                "end_time": 17.65,
                "pitch": 52,
                "velocity": 51,
                "duration": 0.18181818181817988,
                "tempo": 120.0
            },
            {
                "start_time": 17.668181818181818,
                "end_time": 17.852272727272727,
                "pitch": 40,
                "velocity": 51,
                "duration": 0.18409090909090864,
                "tempo": 120.0
            },
            {
                "start_time": 17.868181818181817,
                "end_time": 18.054545454545455,
                "pitch": 52,
                "velocity": 51,
                "duration": 0.1863636363636374,
                "tempo": 120.0
            },
            {
                "start_time": 18.070454545454545,
                "end_time": 18.254545454545454,
                "pitch": 40,
                "velocity": 51,
                "duration": 0.18409090909090864,
                "tempo": 120.0
            },
            {
                "start_time": 18.270454545454545,
                "end_time": 18.454545454545453,
                "pitch": 52,
                "velocity": 51,
                "duration": 0.18409090909090864,
                "tempo": 120.0
            },
            {
                "start_time": 18.470454545454544,
                "end_time": 18.654545454545453,
                "pitch": 40,
                "velocity": 51,
                "duration": 0.18409090909090864,
                "tempo": 120.0
            },
            {
                "start_time": 18.670454545454543,
                "end_time": 18.854545454545455,
                "pitch": 52,
                "velocity": 51,
                "duration": 0.1840909090909122,
                "tempo": 120.0
            },
            {
                "start_time": 18.870454545454546,
                "end_time": 19.054545454545455,
                "pitch": 40,
                "velocity": 51,
                "duration": 0.18409090909090864,
                "tempo": 120.0
            },
            {
                "start_time": 19.07272727272727,
                "end_time": 19.25681818181818,
                "pitch": 52,
                "velocity": 51,
                "duration": 0.18409090909090864,
                "tempo": 120.0
            },
            {
                "start_time": 19.272727272727273,
                "end_time": 19.456818181818182,
                "pitch": 40,
                "velocity": 51,
                "duration": 0.18409090909090864,
                "tempo": 120.0
            },
            {
                "start_time": 19.472727272727273,
                "end_time": 19.65681818181818,
                "pitch": 52,
                "velocity": 51,
                "duration": 0.18409090909090864,
                "tempo": 120.0
            },
            {
                "start_time": 19.672727272727272,
                "end_time": 19.85681818181818,
                "pitch": 40,
                "velocity": 51,
                "duration": 0.18409090909090864,
                "tempo": 120.0
            },
            {
                "start_time": 19.875,
                "end_time": 20.05909090909091,
                "pitch": 52,
                "velocity": 51,
                "duration": 0.18409090909090864,
                "tempo": 120.0
            },
            {
                "start_time": 20.075,
                "end_time": 20.259090909090908,
                "pitch": 40,
                "velocity": 51,
                "duration": 0.18409090909090864,
                "tempo": 120.0
            },
            {
                "start_time": 20.275,
                "end_time": 20.459090909090907,
                "pitch": 52,
                "velocity": 51,
                "duration": 0.18409090909090864,
                "tempo": 120.0
            },
            {
                "start_time": 20.474999999999998,
                "end_time": 20.659090909090907,
                "pitch": 40,
                "velocity": 51,
                "duration": 0.18409090909090864,
                "tempo": 120.0
            },
            {
                "start_time": 20.675,
                "end_time": 20.85909090909091,
                "pitch": 52,
                "velocity": 51,
                "duration": 0.18409090909090864,
                "tempo": 120.0
            },
            {
                "start_time": 20.875,
                "end_time": 21.061363636363634,
                "pitch": 40,
                "velocity": 51,
                "duration": 0.18636363636363384,
                "tempo": 120.0
            },
            {
                "start_time": 21.077272727272724,
                "end_time": 21.261363636363637,
                "pitch": 52,
                "velocity": 51,
                "duration": 0.1840909090909122,
                "tempo": 120.0
            },
            {
                "start_time": 21.279545454545453,
                "end_time": 21.461363636363636,
                "pitch": 40,
                "velocity": 51,
                "duration": 0.18181818181818343,
                "tempo": 120.0
            },
            {
                "start_time": 21.479545454545452,
                "end_time": 21.661363636363635,
                "pitch": 52,
                "velocity": 51,
                "duration": 0.18181818181818343,
                "tempo": 120.0
            },
            {
                "start_time": 21.679545454545455,
                "end_time": 21.863636363636363,
                "pitch": 40,
                "velocity": 51,
                "duration": 0.18409090909090864,
                "tempo": 120.0
            },
            {
                "start_time": 21.879545454545454,
                "end_time": 22.063636363636363,
                "pitch": 52,
                "velocity": 51,
                "duration": 0.18409090909090864,
                "tempo": 120.0
            },
            {
                "start_time": 22.081818181818182,
                "end_time": 22.263636363636362,
                "pitch": 40,
                "velocity": 51,
                "duration": 0.18181818181817988,
                "tempo": 120.0
            },
            {
                "start_time": 22.28181818181818,
                "end_time": 22.46363636363636,
                "pitch": 52,
                "velocity": 51,
                "duration": 0.18181818181817988,
                "tempo": 120.0
            },
            {
                "start_time": 22.48181818181818,
                "end_time": 22.663636363636364,
                "pitch": 38,
                "velocity": 51,
                "duration": 0.18181818181818343,
                "tempo": 120.0
            },
            {
                "start_time": 22.68181818181818,
                "end_time": 22.863636363636363,
                "pitch": 50,
                "velocity": 51,
                "duration": 0.18181818181818343,
                "tempo": 120.0
            },
            {
                "start_time": 22.88181818181818,
                "end_time": 23.06590909090909,
                "pitch": 38,
                "velocity": 51,
                "duration": 0.1840909090909122,
                "tempo": 120.0
            },
            {
                "start_time": 23.081818181818182,
                "end_time": 23.26590909090909,
                "pitch": 50,
                "velocity": 51,
                "duration": 0.18409090909090864,
                "tempo": 120.0
            },
            {
                "start_time": 23.284090909090907,
                "end_time": 23.46818181818182,
                "pitch": 38,
                "velocity": 51,
                "duration": 0.1840909090909122,
                "tempo": 120.0
            },
            {
                "start_time": 23.48409090909091,
                "end_time": 23.668181818181818,
                "pitch": 50,
                "velocity": 51,
                "duration": 0.18409090909090864,
                "tempo": 120.0
            },
            {
                "start_time": 23.68409090909091,
                "end_time": 23.868181818181817,
                "pitch": 38,
                "velocity": 51,
                "duration": 0.18409090909090864,
                "tempo": 120.0
            },
            {
                "start_time": 23.884090909090908,
                "end_time": 24.070454545454545,
                "pitch": 50,
                "velocity": 51,
                "duration": 0.1863636363636374,
                "tempo": 120.0
            },
            {
                "start_time": 24.086363636363636,
                "end_time": 24.270454545454545,
                "pitch": 38,
                "velocity": 51,
                "duration": 0.18409090909090864,
                "tempo": 120.0
            },
            {
                "start_time": 24.286363636363635,
                "end_time": 24.470454545454544,
                "pitch": 50,
                "velocity": 51,
                "duration": 0.18409090909090864,
                "tempo": 120.0
            },
            {
                "start_time": 24.486363636363635,
                "end_time": 24.670454545454543,
                "pitch": 38,
                "velocity": 51,
                "duration": 0.18409090909090864,
                "tempo": 120.0
            },
            {
                "start_time": 24.686363636363634,
                "end_time": 24.870454545454542,
                "pitch": 50,
                "velocity": 51,
                "duration": 0.18409090909090864,
                "tempo": 120.0
            },
            {
                "start_time": 24.886363636363637,
                "end_time": 25.070454545454545,
                "pitch": 38,
                "velocity": 51,
                "duration": 0.18409090909090864,
                "tempo": 120.0
            },
            {
                "start_time": 25.08863636363636,
                "end_time": 25.27272727272727,
                "pitch": 50,
                "velocity": 51,
                "duration": 0.18409090909090864,
                "tempo": 120.0
            },
            {
                "start_time": 25.288636363636364,
                "end_time": 25.472727272727273,
                "pitch": 38,
                "velocity": 51,
                "duration": 0.18409090909090864,
                "tempo": 120.0
            },
            {
                "start_time": 25.488636363636363,
                "end_time": 25.672727272727272,
                "pitch": 50,
                "velocity": 51,
                "duration": 0.18409090909090864,
                "tempo": 120.0
            },
            {
                "start_time": 25.688636363636363,
                "end_time": 25.87272727272727,
                "pitch": 38,
                "velocity": 51,
                "duration": 0.18409090909090864,
                "tempo": 120.0
            },
            {
                "start_time": 25.89090909090909,
                "end_time": 26.075,
                "pitch": 50,
                "velocity": 51,
                "duration": 0.18409090909090864,
                "tempo": 120.0
            },
            {
                "start_time": 26.09090909090909,
                "end_time": 26.275,
                "pitch": 38,
                "velocity": 51,
                "duration": 0.18409090909090864,
                "tempo": 120.0
            },
            {
                "start_time": 26.29090909090909,
                "end_time": 26.474999999999998,
                "pitch": 50,
                "velocity": 51,
                "duration": 0.18409090909090864,
                "tempo": 120.0
            },
            {
                "start_time": 26.49090909090909,
                "end_time": 26.674999999999997,
                "pitch": 38,
                "velocity": 51,
                "duration": 0.18409090909090864,
                "tempo": 120.0
            },
            {
                "start_time": 26.69090909090909,
                "end_time": 26.875,
                "pitch": 50,
                "velocity": 51,
                "duration": 0.18409090909090864,
                "tempo": 120.0
            },
            {
                "start_time": 26.89090909090909,
                "end_time": 27.077272727272724,
                "pitch": 38,
                "velocity": 51,
                "duration": 0.18636363636363384,
                "tempo": 120.0
            },
            {
                "start_time": 27.093181818181815,
                "end_time": 27.277272727272727,
                "pitch": 50,
                "velocity": 51,
                "duration": 0.1840909090909122,
                "tempo": 120.0
            },
            {
                "start_time": 27.295454545454543,
                "end_time": 27.477272727272727,
                "pitch": 38,
                "velocity": 51,
                "duration": 0.18181818181818343,
                "tempo": 120.0
            },
            {
                "start_time": 27.495454545454542,
                "end_time": 27.677272727272726,
                "pitch": 50,
                "velocity": 51,
                "duration": 0.18181818181818343,
                "tempo": 120.0
            },
            {
                "start_time": 27.695454545454545,
                "end_time": 27.879545454545454,
                "pitch": 38,
                "velocity": 51,
                "duration": 0.18409090909090864,
                "tempo": 120.0
            },
            {
                "start_time": 27.895454545454545,
                "end_time": 28.079545454545453,
                "pitch": 50,
                "velocity": 51,
                "duration": 0.18409090909090864,
                "tempo": 120.0
            },
            {
                "start_time": 28.097727272727273,
                "end_time": 28.277272727272727,
                "pitch": 38,
                "velocity": 51,
                "duration": 0.17954545454545467,
                "tempo": 120.0
            },
            {
                "start_time": 28.293181818181818,
                "end_time": 28.472727272727273,
                "pitch": 50,
                "velocity": 51,
                "duration": 0.17954545454545467,
                "tempo": 120.0
            },
            {
                "start_time": 28.488636363636363,
                "end_time": 28.677272727272726,
                "pitch": 38,
                "velocity": 51,
                "duration": 0.1886363636363626,
                "tempo": 120.0
            },
            {
                "start_time": 28.695454545454545,
                "end_time": 28.88181818181818,
                "pitch": 50,
                "velocity": 51,
                "duration": 0.18636363636363384,
                "tempo": 120.0
            },
            {
                "start_time": 28.9,
                "end_time": 29.084090909090907,
                "pitch": 40,
                "velocity": 51,
                "duration": 0.18409090909090864,
                "tempo": 120.0
            },
            {
                "start_time": 29.102272727272727,
                "end_time": 29.286363636363635,
                "pitch": 52,
                "velocity": 51,
                "duration": 0.18409090909090864,
                "tempo": 120.0
            },
            {
                "start_time": 29.302272727272726,
                "end_time": 29.486363636363635,
                "pitch": 40,
                "velocity": 51,
                "duration": 0.18409090909090864,
                "tempo": 120.0
            },
            {
                "start_time": 29.502272727272725,
                "end_time": 29.686363636363634,
                "pitch": 52,
                "velocity": 51,
                "duration": 0.18409090909090864,
                "tempo": 120.0
            },
            {
                "start_time": 29.702272727272724,
                "end_time": 29.886363636363637,
                "pitch": 40,
                "velocity": 51,
                "duration": 0.1840909090909122,
                "tempo": 120.0
            },
            {
                "start_time": 29.904545454545453,
                "end_time": 30.08863636363636,
                "pitch": 52,
                "velocity": 51,
                "duration": 0.18409090909090864,
                "tempo": 120.0
            },
            {
                "start_time": 30.104545454545452,
                "end_time": 30.28863636363636,
                "pitch": 40,
                "velocity": 51,
                "duration": 0.18409090909090864,
                "tempo": 120.0
            },
            {
                "start_time": 30.304545454545455,
                "end_time": 30.488636363636363,
                "pitch": 52,
                "velocity": 51,
                "duration": 0.18409090909090864,
                "tempo": 120.0
            },
            {
                "start_time": 30.504545454545454,
                "end_time": 30.688636363636363,
                "pitch": 40,
                "velocity": 51,
                "duration": 0.18409090909090864,
                "tempo": 120.0
            },
            {
                "start_time": 30.704545454545453,
                "end_time": 30.888636363636362,
                "pitch": 52,
                "velocity": 51,
                "duration": 0.18409090909090864,
                "tempo": 120.0
            },
            {
                "start_time": 30.904545454545453,
                "end_time": 31.09090909090909,
                "pitch": 40,
                "velocity": 51,
                "duration": 0.1863636363636374,
                "tempo": 120.0
            },
            {
                "start_time": 31.10681818181818,
                "end_time": 31.29090909090909,
                "pitch": 52,
                "velocity": 51,
                "duration": 0.18409090909090864,
                "tempo": 120.0
            },
            {
                "start_time": 31.30909090909091,
                "end_time": 31.49090909090909,
                "pitch": 40,
                "velocity": 51,
                "duration": 0.18181818181817988,
                "tempo": 120.0
            },
            {
                "start_time": 31.509090909090908,
                "end_time": 31.690909090909088,
                "pitch": 52,
                "velocity": 51,
                "duration": 0.18181818181817988,
                "tempo": 120.0
            },
            {
                "start_time": 31.709090909090907,
                "end_time": 31.893181818181816,
                "pitch": 40,
                "velocity": 51,
                "duration": 0.18409090909090864,
                "tempo": 120.0
            },
            {
                "start_time": 31.909090909090907,
                "end_time": 32.09318181818182,
                "pitch": 52,
                "velocity": 51,
                "duration": 0.1840909090909122,
                "tempo": 120.0
            },
            {
                "start_time": 32.111363636363635,
                "end_time": 32.293181818181814,
                "pitch": 40,
                "velocity": 51,
                "duration": 0.18181818181817988,
                "tempo": 120.0
            },
            {
                "start_time": 32.31136363636364,
                "end_time": 32.49318181818182,
                "pitch": 52,
                "velocity": 51,
                "duration": 0.18181818181817988,
                "tempo": 120.0
            },
            {
                "start_time": 32.51136363636363,
                "end_time": 32.69318181818182,
                "pitch": 40,
                "velocity": 51,
                "duration": 0.18181818181818699,
                "tempo": 120.0
            },
            {
                "start_time": 32.711363636363636,
                "end_time": 32.893181818181816,
                "pitch": 52,
                "velocity": 51,
                "duration": 0.18181818181817988,
                "tempo": 120.0
            },
            {
                "start_time": 32.91136363636363,
                "end_time": 33.09318181818182,
                "pitch": 40,
                "velocity": 51,
                "duration": 0.18181818181818699,
                "tempo": 120.0
            },
            {
                "start_time": 33.111363636363635,
                "end_time": 33.293181818181814,
                "pitch": 52,
                "velocity": 51,
                "duration": 0.18181818181817988,
                "tempo": 120.0
            },
            {
                "start_time": 33.31136363636364,
                "end_time": 33.49545454545454,
                "pitch": 40,
                "velocity": 51,
                "duration": 0.18409090909090509,
                "tempo": 120.0
            },
            {
                "start_time": 33.51136363636363,
                "end_time": 33.69772727272727,
                "pitch": 52,
                "velocity": 51,
                "duration": 0.1863636363636374,
                "tempo": 120.0
            },
            {
                "start_time": 33.71363636363636,
                "end_time": 33.89772727272727,
                "pitch": 40,
                "velocity": 51,
                "duration": 0.1840909090909122,
                "tempo": 120.0
            },
            {
                "start_time": 33.913636363636364,
                "end_time": 34.09772727272727,
                "pitch": 52,
                "velocity": 51,
                "duration": 0.18409090909090509,
                "tempo": 120.0
            },
            {
                "start_time": 34.11363636363636,
                "end_time": 34.29772727272727,
                "pitch": 40,
                "velocity": 51,
                "duration": 0.1840909090909122,
                "tempo": 120.0
            },
            {
                "start_time": 34.31363636363636,
                "end_time": 34.49772727272727,
                "pitch": 52,
                "velocity": 51,
                "duration": 0.18409090909090509,
                "tempo": 120.0
            },
            {
                "start_time": 34.513636363636365,
                "end_time": 34.69772727272727,
                "pitch": 40,
                "velocity": 51,
                "duration": 0.18409090909090509,
                "tempo": 120.0
            },
            {
                "start_time": 34.71363636363636,
                "end_time": 34.89772727272727,
                "pitch": 52,
                "velocity": 51,
                "duration": 0.1840909090909122,
                "tempo": 120.0
            },
            {
                "start_time": 34.913636363636364,
                "end_time": 35.09772727272727,
                "pitch": 40,
                "velocity": 51,
                "duration": 0.18409090909090509,
                "tempo": 120.0
            },
            {
                "start_time": 35.11363636363636,
                "end_time": 35.29772727272727,
                "pitch": 52,
                "velocity": 51,
                "duration": 0.1840909090909122,
                "tempo": 120.0
            },
            {
                "start_time": 35.31363636363636,
                "end_time": 35.49772727272727,
                "pitch": 38,
                "velocity": 51,
                "duration": 0.18409090909090509,
                "tempo": 120.0
            },
            {
                "start_time": 35.51590909090909,
                "end_time": 35.699999999999996,
                "pitch": 50,
                "velocity": 51,
                "duration": 0.18409090909090509,
                "tempo": 120.0
            },
            {
                "start_time": 35.715909090909086,
                "end_time": 35.9,
                "pitch": 38,
                "velocity": 51,
                "duration": 0.1840909090909122,
                "tempo": 120.0
            },
            {
                "start_time": 35.91590909090909,
                "end_time": 36.1,
                "pitch": 50,
                "velocity": 51,
                "duration": 0.1840909090909122,
                "tempo": 120.0
            },
            {
                "start_time": 36.11590909090909,
                "end_time": 36.3,
                "pitch": 38,
                "velocity": 51,
                "duration": 0.18409090909090509,
                "tempo": 120.0
            },
            {
                "start_time": 36.31590909090909,
                "end_time": 36.5,
                "pitch": 50,
                "velocity": 51,
                "duration": 0.1840909090909122,
                "tempo": 120.0
            },
            {
                "start_time": 36.51590909090909,
                "end_time": 36.699999999999996,
                "pitch": 38,
                "velocity": 51,
                "duration": 0.18409090909090509,
                "tempo": 120.0
            },
            {
                "start_time": 36.715909090909086,
                "end_time": 36.9,
                "pitch": 50,
                "velocity": 51,
                "duration": 0.1840909090909122,
                "tempo": 120.0
            },
            {
                "start_time": 36.91590909090909,
                "end_time": 37.1,
                "pitch": 38,
                "velocity": 51,
                "duration": 0.1840909090909122,
                "tempo": 120.0
            },
            {
                "start_time": 37.11590909090909,
                "end_time": 37.3,
                "pitch": 50,
                "velocity": 51,
                "duration": 0.18409090909090509,
                "tempo": 120.0
            },
            {
                "start_time": 37.31590909090909,
                "end_time": 37.5,
                "pitch": 38,
                "velocity": 51,
                "duration": 0.1840909090909122,
                "tempo": 120.0
            },
            {
                "start_time": 37.518181818181816,
                "end_time": 37.70227272727273,
                "pitch": 50,
                "velocity": 51,
                "duration": 0.1840909090909122,
                "tempo": 120.0
            },
            {
                "start_time": 37.71818181818182,
                "end_time": 37.902272727272724,
                "pitch": 38,
                "velocity": 51,
                "duration": 0.18409090909090509,
                "tempo": 120.0
            },
            {
                "start_time": 37.918181818181814,
                "end_time": 38.10227272727273,
                "pitch": 50,
                "velocity": 51,
                "duration": 0.1840909090909122,
                "tempo": 120.0
            },
            {
                "start_time": 38.11818181818182,
                "end_time": 38.30227272727272,
                "pitch": 38,
                "velocity": 51,
                "duration": 0.18409090909090509,
                "tempo": 120.0
            },
            {
                "start_time": 38.31818181818181,
                "end_time": 38.502272727272725,
                "pitch": 50,
                "velocity": 51,
                "duration": 0.1840909090909122,
                "tempo": 120.0
            },
            {
                "start_time": 38.518181818181816,
                "end_time": 38.70227272727273,
                "pitch": 38,
                "velocity": 51,
                "duration": 0.1840909090909122,
                "tempo": 120.0
            },
            {
                "start_time": 38.71818181818182,
                "end_time": 38.902272727272724,
                "pitch": 50,
                "velocity": 51,
                "duration": 0.18409090909090509,
                "tempo": 120.0
            },
            {
                "start_time": 38.918181818181814,
                "end_time": 39.10227272727273,
                "pitch": 38,
                "velocity": 51,
                "duration": 0.1840909090909122,
                "tempo": 120.0
            },
            {
                "start_time": 39.11818181818182,
                "end_time": 39.30227272727272,
                "pitch": 50,
                "velocity": 51,
                "duration": 0.18409090909090509,
                "tempo": 120.0
            },
            {
                "start_time": 39.31818181818181,
                "end_time": 39.50454545454545,
                "pitch": 38,
                "velocity": 51,
                "duration": 0.1863636363636374,
                "tempo": 120.0
            },
            {
                "start_time": 39.52045454545454,
                "end_time": 39.70454545454545,
                "pitch": 50,
                "velocity": 51,
                "duration": 0.1840909090909122,
                "tempo": 120.0
            },
            {
                "start_time": 39.720454545454544,
                "end_time": 39.904545454545456,
                "pitch": 38,
                "velocity": 51,
                "duration": 0.1840909090909122,
                "tempo": 120.0
            },
            {
                "start_time": 39.92045454545455,
                "end_time": 40.10454545454545,
                "pitch": 50,
                "velocity": 51,
                "duration": 0.18409090909090509,
                "tempo": 120.0
            },
            {
                "start_time": 40.12045454545454,
                "end_time": 40.304545454545455,
                "pitch": 38,
                "velocity": 51,
                "duration": 0.1840909090909122,
                "tempo": 120.0
            },
            {
                "start_time": 40.320454545454545,
                "end_time": 40.50454545454545,
                "pitch": 50,
                "velocity": 51,
                "duration": 0.18409090909090509,
                "tempo": 120.0
            },
            {
                "start_time": 40.52045454545454,
                "end_time": 40.70454545454545,
                "pitch": 38,
                "velocity": 51,
                "duration": 0.1840909090909122,
                "tempo": 120.0
            },
            {
                "start_time": 40.720454545454544,
                "end_time": 40.904545454545456,
                "pitch": 50,
                "velocity": 51,
                "duration": 0.1840909090909122,
                "tempo": 120.0
            },
            {
                "start_time": 40.92045454545455,
                "end_time": 41.1,
                "pitch": 38,
                "velocity": 51,
                "duration": 0.17954545454545467,
                "tempo": 120.0
            },
            {
                "start_time": 41.11818181818182,
                "end_time": 41.29772727272727,
                "pitch": 50,
                "velocity": 51,
                "duration": 0.17954545454545467,
                "tempo": 120.0
            },
            {
                "start_time": 41.31363636363636,
                "end_time": 41.502272727272725,
                "pitch": 38,
                "velocity": 51,
                "duration": 0.1886363636363626,
                "tempo": 120.0
            },
            {
                "start_time": 41.518181818181816,
                "end_time": 41.70681818181818,
                "pitch": 50,
                "velocity": 51,
                "duration": 0.1886363636363626,
                "tempo": 120.0
            },
            {
                "start_time": 41.725,
                "end_time": 42.10681818181818,
                "pitch": 40,
                "velocity": 51,
                "duration": 0.3818181818181756,
                "tempo": 120.0
            },
            {
                "start_time": 42.320454545454545,
                "end_time": 42.70454545454545,
                "pitch": 40,
                "velocity": 51,
                "duration": 0.38409090909090793,
                "tempo": 120.0
            },
            {
                "start_time": 42.92727272727272,
                "end_time": 43.31136363636364,
                "pitch": 40,
                "velocity": 51,
                "duration": 0.38409090909091503,
                "tempo": 120.0
            },
            {
                "start_time": 43.52954545454545,
                "end_time": 43.64545454545454,
                "pitch": 38,
                "velocity": 51,
                "duration": 0.11590909090909207,
                "tempo": 120.0
            },
            {
                "start_time": 43.929545454545455,
                "end_time": 44.04772727272727,
                "pitch": 38,
                "velocity": 51,
                "duration": 0.11818181818181728,
                "tempo": 120.0
            },
            {
                "start_time": 44.12954545454545,
                "end_time": 44.24772727272727,
                "pitch": 38,
                "velocity": 51,
                "duration": 0.11818181818181728,
                "tempo": 120.0
            },
            {
                "start_time": 44.32954545454545,
                "end_time": 44.44772727272727,
                "pitch": 38,
                "velocity": 51,
                "duration": 0.11818181818181728,
                "tempo": 120.0
            },
            {
                "start_time": 44.52954545454545,
                "end_time": 44.913636363636364,
                "pitch": 38,
                "velocity": 51,
                "duration": 0.38409090909091503,
                "tempo": 120.0
            },
            {
                "start_time": 44.929545454545455,
                "end_time": 45.31363636363636,
                "pitch": 48,
                "velocity": 51,
                "duration": 0.38409090909090793,
                "tempo": 120.0
            },
            {
                "start_time": 45.525,
                "end_time": 45.90681818181818,
                "pitch": 48,
                "velocity": 51,
                "duration": 0.3818181818181827,
                "tempo": 120.0
            },
            {
                "start_time": 46.125,
                "end_time": 46.518181818181816,
                "pitch": 48,
                "velocity": 51,
                "duration": 0.39318181818181586,
                "tempo": 120.0
            },
            {
                "start_time": 46.53636363636363,
                "end_time": 48.12272727272727,
                "pitch": 47,
                "velocity": 51,
                "duration": 1.586363636363636,
                "tempo": 120.0
            },
            {
                "start_time": 48.13863636363636,
                "end_time": 48.42272727272727,
                "pitch": 40,
                "velocity": 51,
                "duration": 0.2840909090909136,
                "tempo": 120.0
            },
            {
                "start_time": 48.43863636363636,
                "end_time": 48.72272727272727,
                "pitch": 40,
                "velocity": 51,
                "duration": 0.2840909090909065,
                "tempo": 120.0
            },
            {
                "start_time": 48.73863636363636,
                "end_time": 48.92272727272727,
                "pitch": 52,
                "velocity": 51,
                "duration": 0.1840909090909122,
                "tempo": 120.0
            },
            {
                "start_time": 48.93863636363636,
                "end_time": 49.22272727272727,
                "pitch": 40,
                "velocity": 51,
                "duration": 0.2840909090909065,
                "tempo": 120.0
            },
            {
                "start_time": 49.23863636363636,
                "end_time": 49.52272727272727,
                "pitch": 40,
                "velocity": 51,
                "duration": 0.2840909090909136,
                "tempo": 120.0
            },
            {
                "start_time": 49.54090909090909,
                "end_time": 49.724999999999994,
                "pitch": 52,
                "velocity": 51,
                "duration": 0.18409090909090509,
                "tempo": 120.0
            },
            {
                "start_time": 49.740909090909085,
                "end_time": 50.025,
                "pitch": 40,
                "velocity": 51,
                "duration": 0.2840909090909136,
                "tempo": 120.0
            },
            {
                "start_time": 50.04090909090909,
                "end_time": 50.324999999999996,
                "pitch": 40,
                "velocity": 51,
                "duration": 0.2840909090909065,
                "tempo": 120.0
            },
            {
                "start_time": 50.340909090909086,
                "end_time": 50.525,
                "pitch": 52,
                "velocity": 51,
                "duration": 0.1840909090909122,
                "tempo": 120.0
            },
            {
                "start_time": 50.54090909090909,
                "end_time": 50.824999999999996,
                "pitch": 40,
                "velocity": 51,
                "duration": 0.2840909090909065,
                "tempo": 120.0
            },
            {
                "start_time": 50.840909090909086,
                "end_time": 51.125,
                "pitch": 40,
                "velocity": 51,
                "duration": 0.2840909090909136,
                "tempo": 120.0
            },
            {
                "start_time": 51.14090909090909,
                "end_time": 51.324999999999996,
                "pitch": 52,
                "velocity": 51,
                "duration": 0.18409090909090509,
                "tempo": 120.0
            },
            {
                "start_time": 51.340909090909086,
                "end_time": 51.627272727272725,
                "pitch": 38,
                "velocity": 51,
                "duration": 0.2863636363636388,
                "tempo": 120.0
            },
            {
                "start_time": 51.643181818181816,
                "end_time": 51.92727272727272,
                "pitch": 38,
                "velocity": 51,
                "duration": 0.2840909090909065,
                "tempo": 120.0
            },
            {
                "start_time": 51.94318181818181,
                "end_time": 52.127272727272725,
                "pitch": 38,
                "velocity": 51,
                "duration": 0.1840909090909122,
                "tempo": 120.0
            },
            {
                "start_time": 52.143181818181816,
                "end_time": 52.42727272727272,
                "pitch": 38,
                "velocity": 51,
                "duration": 0.2840909090909065,
                "tempo": 120.0
            },
            {
                "start_time": 52.44318181818181,
                "end_time": 52.72727272727273,
                "pitch": 38,
                "velocity": 51,
                "duration": 0.2840909090909136,
                "tempo": 120.0
            },
            {
                "start_time": 52.74318181818182,
                "end_time": 52.92727272727272,
                "pitch": 38,
                "velocity": 51,
                "duration": 0.18409090909090509,
                "tempo": 120.0
            },
            {
                "start_time": 52.94318181818181,
                "end_time": 53.22727272727273,
                "pitch": 38,
                "velocity": 51,
                "duration": 0.2840909090909136,
                "tempo": 120.0
            },
            {
                "start_time": 53.24318181818182,
                "end_time": 53.52954545454545,
                "pitch": 38,
                "velocity": 51,
                "duration": 0.2863636363636317,
                "tempo": 120.0
            },
            {
                "start_time": 53.54545454545454,
                "end_time": 53.72954545454545,
                "pitch": 38,
                "velocity": 51,
                "duration": 0.1840909090909122,
                "tempo": 120.0
            },
            {
                "start_time": 53.74772727272727,
                "end_time": 54.02954545454545,
                "pitch": 38,
                "velocity": 51,
                "duration": 0.2818181818181813,
                "tempo": 120.0
            },
            {
                "start_time": 54.04772727272727,
                "end_time": 54.32954545454545,
                "pitch": 38,
                "velocity": 51,
                "duration": 0.2818181818181813,
                "tempo": 120.0
            },
            {
                "start_time": 54.34772727272727,
                "end_time": 54.52954545454545,
                "pitch": 38,
                "velocity": 51,
                "duration": 0.18181818181817988,
                "tempo": 120.0
            },
            {
                "start_time": 54.54772727272727,
                "end_time": 54.82954545454545,
                "pitch": 48,
                "velocity": 51,
                "duration": 0.2818181818181813,
                "tempo": 120.0
            },
            {
                "start_time": 54.84772727272727,
                "end_time": 55.12954545454545,
                "pitch": 48,
                "velocity": 51,
                "duration": 0.2818181818181813,
                "tempo": 120.0
            },
            {
                "start_time": 55.14772727272727,
                "end_time": 55.32954545454545,
                "pitch": 48,
                "velocity": 51,
                "duration": 0.18181818181817988,
                "tempo": 120.0
            },
            {
                "start_time": 55.34772727272727,
                "end_time": 55.631818181818176,
                "pitch": 48,
                "velocity": 51,
                "duration": 0.2840909090909065,
                "tempo": 120.0
            },
            {
                "start_time": 55.65,
                "end_time": 55.93181818181818,
                "pitch": 48,
                "velocity": 51,
                "duration": 0.2818181818181813,
                "tempo": 120.0
            },
            {
                "start_time": 55.949999999999996,
                "end_time": 56.131818181818176,
                "pitch": 48,
                "velocity": 51,
                "duration": 0.18181818181817988,
                "tempo": 120.0
            },
            {
                "start_time": 56.15,
                "end_time": 56.43181818181818,
                "pitch": 48,
                "velocity": 51,
                "duration": 0.2818181818181813,
                "tempo": 120.0
            },
            {
                "start_time": 56.449999999999996,
                "end_time": 56.73181818181818,
                "pitch": 48,
                "velocity": 51,
                "duration": 0.2818181818181813,
                "tempo": 120.0
            },
            {
                "start_time": 56.75,
                "end_time": 56.93181818181818,
                "pitch": 48,
                "velocity": 51,
                "duration": 0.18181818181817988,
                "tempo": 120.0
            },
            {
                "start_time": 56.949999999999996,
                "end_time": 57.23181818181818,
                "pitch": 48,
                "velocity": 51,
                "duration": 0.2818181818181813,
                "tempo": 120.0
            },
            {
                "start_time": 57.25,
                "end_time": 57.53409090909091,
                "pitch": 48,
                "velocity": 51,
                "duration": 0.2840909090909065,
                "tempo": 120.0
            },
            {
                "start_time": 57.55,
                "end_time": 57.736363636363635,
                "pitch": 48,
                "velocity": 51,
                "duration": 0.1863636363636374,
                "tempo": 120.0
            },
            {
                "start_time": 57.752272727272725,
                "end_time": 58.03636363636363,
                "pitch": 47,
                "velocity": 51,
                "duration": 0.2840909090909065,
                "tempo": 120.0
            },
            {
                "start_time": 58.05227272727272,
                "end_time": 58.336363636363636,
                "pitch": 47,
                "velocity": 51,
                "duration": 0.2840909090909136,
                "tempo": 120.0
            },
            {
                "start_time": 58.35227272727273,
                "end_time": 58.53636363636363,
                "pitch": 47,
                "velocity": 51,
                "duration": 0.18409090909090509,
                "tempo": 120.0
            },
            {
                "start_time": 58.55227272727272,
                "end_time": 58.836363636363636,
                "pitch": 47,
                "velocity": 51,
                "duration": 0.2840909090909136,
                "tempo": 120.0
            },
            {
                "start_time": 58.85227272727273,
                "end_time": 59.13636363636363,
                "pitch": 47,
                "velocity": 51,
                "duration": 0.2840909090909065,
                "tempo": 120.0
            },
            {
                "start_time": 59.152272727272724,
                "end_time": 59.336363636363636,
                "pitch": 47,
                "velocity": 51,
                "duration": 0.1840909090909122,
                "tempo": 120.0
            },
            {
                "start_time": 59.35227272727273,
                "end_time": 59.63863636363636,
                "pitch": 47,
                "velocity": 51,
                "duration": 0.2863636363636317,
                "tempo": 120.0
            },
            {
                "start_time": 59.65454545454545,
                "end_time": 59.93863636363636,
                "pitch": 47,
                "velocity": 51,
                "duration": 0.2840909090909136,
                "tempo": 120.0
            },
            {
                "start_time": 59.95454545454545,
                "end_time": 60.13863636363636,
                "pitch": 47,
                "velocity": 51,
                "duration": 0.18409090909090509,
                "tempo": 120.0
            },
            {
                "start_time": 60.15454545454545,
                "end_time": 60.445454545454545,
                "pitch": 47,
                "velocity": 51,
                "duration": 0.29090909090909634,
                "tempo": 120.0
            },
            {
                "start_time": 60.46363636363636,
                "end_time": 60.74545454545454,
                "pitch": 47,
                "velocity": 51,
                "duration": 0.2818181818181813,
                "tempo": 120.0
            },
            {
                "start_time": 60.76136363636363,
                "end_time": 60.94090909090909,
                "pitch": 47,
                "velocity": 51,
                "duration": 0.17954545454545467,
                "tempo": 120.0
            },
            {
                "start_time": 60.95681818181818,
                "end_time": 61.240909090909085,
                "pitch": 40,
                "velocity": 51,
                "duration": 0.2840909090909065,
                "tempo": 120.0
            },
            {
                "start_time": 61.256818181818176,
                "end_time": 61.543181818181814,
                "pitch": 40,
                "velocity": 51,
                "duration": 0.2863636363636388,
                "tempo": 120.0
            },
            {
                "start_time": 61.559090909090905,
                "end_time": 61.74318181818182,
                "pitch": 52,
                "velocity": 51,
                "duration": 0.1840909090909122,
                "tempo": 120.0
            },
            {
                "start_time": 61.76136363636363,
                "end_time": 62.043181818181814,
                "pitch": 40,
                "velocity": 51,
                "duration": 0.2818181818181813,
                "tempo": 120.0
            },
            {
                "start_time": 62.06136363636363,
                "end_time": 62.34318181818182,
                "pitch": 40,
                "velocity": 51,
                "duration": 0.2818181818181884,
                "tempo": 120.0
            },
            {
                "start_time": 62.361363636363635,
                "end_time": 62.543181818181814,
                "pitch": 52,
                "velocity": 51,
                "duration": 0.18181818181817988,
                "tempo": 120.0
            },
            {
                "start_time": 62.56136363636363,
                "end_time": 62.84318181818181,
                "pitch": 40,
                "velocity": 51,
                "duration": 0.2818181818181813,
                "tempo": 120.0
            },
            {
                "start_time": 62.861363636363635,
                "end_time": 63.143181818181816,
                "pitch": 40,
                "velocity": 51,
                "duration": 0.2818181818181813,
                "tempo": 120.0
            },
            {
                "start_time": 63.16136363636363,
                "end_time": 63.34318181818181,
                "pitch": 52,
                "velocity": 51,
                "duration": 0.18181818181817988,
                "tempo": 120.0
            },
            {
                "start_time": 63.361363636363635,
                "end_time": 63.64545454545454,
                "pitch": 40,
                "velocity": 51,
                "duration": 0.2840909090909065,
                "tempo": 120.0
            },
            {
                "start_time": 63.663636363636364,
                "end_time": 63.945454545454545,
                "pitch": 40,
                "velocity": 51,
                "duration": 0.2818181818181813,
                "tempo": 120.0
            },
            {
                "start_time": 63.96363636363636,
                "end_time": 64.14545454545454,
                "pitch": 52,
                "velocity": 51,
                "duration": 0.18181818181817988,
                "tempo": 120.0
            },
            {
                "start_time": 64.16363636363636,
                "end_time": 64.44545454545454,
                "pitch": 40,
                "velocity": 51,
                "duration": 0.2818181818181813,
                "tempo": 120.0
            },
            {
                "start_time": 64.46363636363635,
                "end_time": 64.74772727272727,
                "pitch": 40,
                "velocity": 51,
                "duration": 0.2840909090909207,
                "tempo": 120.0
            },
            {
                "start_time": 64.76363636363637,
                "end_time": 64.95,
                "pitch": 52,
                "velocity": 51,
                "duration": 0.1863636363636374,
                "tempo": 120.0
            },
            {
                "start_time": 64.9659090909091,
                "end_time": 65.25,
                "pitch": 40,
                "velocity": 51,
                "duration": 0.2840909090909065,
                "tempo": 120.0
            },
            {
                "start_time": 65.26590909090909,
                "end_time": 65.55,
                "pitch": 40,
                "velocity": 51,
                "duration": 0.2840909090909065,
                "tempo": 120.0
            },
            {
                "start_time": 65.56818181818181,
                "end_time": 65.75227272727273,
                "pitch": 52,
                "velocity": 51,
                "duration": 0.1840909090909122,
                "tempo": 120.0
            },
            {
                "start_time": 65.76818181818182,
                "end_time": 66.05227272727272,
                "pitch": 47,
                "velocity": 51,
                "duration": 0.2840909090909065,
                "tempo": 120.0
            },
            {
                "start_time": 66.06818181818181,
                "end_time": 66.35227272727272,
                "pitch": 47,
                "velocity": 51,
                "duration": 0.2840909090909065,
                "tempo": 120.0
            },
            {
                "start_time": 66.37045454545454,
                "end_time": 66.55454545454545,
                "pitch": 47,
                "velocity": 51,
                "duration": 0.1840909090909122,
                "tempo": 120.0
            },
            {
                "start_time": 66.57045454545454,
                "end_time": 66.85681818181818,
                "pitch": 47,
                "velocity": 51,
                "duration": 0.2863636363636459,
                "tempo": 120.0
            },
            {
                "start_time": 66.87272727272727,
                "end_time": 67.15681818181818,
                "pitch": 47,
                "velocity": 51,
                "duration": 0.2840909090909065,
                "tempo": 120.0
            },
            {
                "start_time": 67.175,
                "end_time": 67.35681818181818,
                "pitch": 47,
                "velocity": 51,
                "duration": 0.18181818181818699,
                "tempo": 120.0
            },
            {
                "start_time": 67.375,
                "end_time": 67.6590909090909,
                "pitch": 48,
                "velocity": 51,
                "duration": 0.2840909090909065,
                "tempo": 120.0
            },
            {
                "start_time": 67.675,
                "end_time": 67.9590909090909,
                "pitch": 48,
                "velocity": 51,
                "duration": 0.2840909090909065,
                "tempo": 120.0
            },
            {
                "start_time": 67.97727272727272,
                "end_time": 68.1590909090909,
                "pitch": 48,
                "velocity": 51,
                "duration": 0.18181818181818699,
                "tempo": 120.0
            },
            {
                "start_time": 68.17727272727272,
                "end_time": 68.46136363636363,
                "pitch": 48,
                "velocity": 51,
                "duration": 0.2840909090909065,
                "tempo": 120.0
            },
            {
                "start_time": 68.47954545454544,
                "end_time": 68.76363636363637,
                "pitch": 48,
                "velocity": 51,
                "duration": 0.2840909090909207,
                "tempo": 120.0
            },
            {
                "start_time": 68.77954545454546,
                "end_time": 68.9659090909091,
                "pitch": 48,
                "velocity": 51,
                "duration": 0.1863636363636374,
                "tempo": 120.0
            },
            {
                "start_time": 68.98181818181818,
                "end_time": 69.26590909090909,
                "pitch": 48,
                "velocity": 51,
                "duration": 0.2840909090909065,
                "tempo": 120.0
            },
            {
                "start_time": 69.28181818181818,
                "end_time": 69.56590909090909,
                "pitch": 48,
                "velocity": 51,
                "duration": 0.2840909090909065,
                "tempo": 120.0
            },
            {
                "start_time": 69.5840909090909,
                "end_time": 69.76818181818182,
                "pitch": 48,
                "velocity": 51,
                "duration": 0.1840909090909122,
                "tempo": 120.0
            },
            {
                "start_time": 69.7840909090909,
                "end_time": 70.06818181818181,
                "pitch": 48,
                "velocity": 51,
                "duration": 0.2840909090909065,
                "tempo": 120.0
            },
            {
                "start_time": 70.0840909090909,
                "end_time": 70.36818181818181,
                "pitch": 48,
                "velocity": 51,
                "duration": 0.2840909090909065,
                "tempo": 120.0
            },
            {
                "start_time": 70.38636363636363,
                "end_time": 70.57045454545454,
                "pitch": 48,
                "velocity": 51,
                "duration": 0.1840909090909122,
                "tempo": 120.0
            },
            {
                "start_time": 70.58636363636363,
                "end_time": 70.87272727272727,
                "pitch": 48,
                "velocity": 51,
                "duration": 0.2863636363636459,
                "tempo": 120.0
            },
            {
                "start_time": 70.88863636363637,
                "end_time": 71.17272727272727,
                "pitch": 48,
                "velocity": 51,
                "duration": 0.2840909090909065,
                "tempo": 120.0
            },
            {
                "start_time": 71.19090909090909,
                "end_time": 71.37272727272727,
                "pitch": 48,
                "velocity": 51,
                "duration": 0.18181818181818699,
                "tempo": 120.0
            },
            {
                "start_time": 71.39090909090909,
                "end_time": 71.675,
                "pitch": 48,
                "velocity": 51,
                "duration": 0.2840909090909065,
                "tempo": 120.0
            },
            {
                "start_time": 71.69318181818181,
                "end_time": 71.975,
                "pitch": 48,
                "velocity": 51,
                "duration": 0.2818181818181813,
                "tempo": 120.0
            },
            {
                "start_time": 71.99318181818181,
                "end_time": 72.175,
                "pitch": 48,
                "velocity": 51,
                "duration": 0.18181818181818699,
                "tempo": 120.0
            },
            {
                "start_time": 72.19318181818181,
                "end_time": 72.47727272727272,
                "pitch": 48,
                "velocity": 51,
                "duration": 0.2840909090909065,
                "tempo": 120.0
            },
            {
                "start_time": 72.49545454545454,
                "end_time": 72.77954545454546,
                "pitch": 48,
                "velocity": 51,
                "duration": 0.2840909090909207,
                "tempo": 120.0
            },
            {
                "start_time": 72.79772727272727,
                "end_time": 72.98181818181818,
                "pitch": 48,
                "velocity": 51,
                "duration": 0.1840909090909122,
                "tempo": 120.0
            },
            {
                "start_time": 72.99772727272727,
                "end_time": 73.27499999999999,
                "pitch": 48,
                "velocity": 51,
                "duration": 0.2772727272727167,
                "tempo": 120.0
            },
            {
                "start_time": 73.29090909090908,
                "end_time": 73.57727272727273,
                "pitch": 48,
                "velocity": 51,
                "duration": 0.2863636363636459,
                "tempo": 120.0
            },
            {
                "start_time": 73.59545454545454,
                "end_time": 73.7840909090909,
                "pitch": 48,
                "velocity": 51,
                "duration": 0.1886363636363626,
                "tempo": 120.0
            },
            {
                "start_time": 73.8,
                "end_time": 74.0840909090909,
                "pitch": 48,
                "velocity": 51,
                "duration": 0.2840909090909065,
                "tempo": 120.0
            },
            {
                "start_time": 74.1,
                "end_time": 74.38636363636363,
                "pitch": 48,
                "velocity": 51,
                "duration": 0.2863636363636317,
                "tempo": 120.0
            },
            {
                "start_time": 74.40227272727272,
                "end_time": 74.58636363636363,
                "pitch": 60,
                "velocity": 51,
                "duration": 0.1840909090909122,
                "tempo": 120.0
            },
            {
                "start_time": 74.60454545454544,
                "end_time": 74.88863636363637,
                "pitch": 47,
                "velocity": 51,
                "duration": 0.2840909090909207,
                "tempo": 120.0
            },
            {
                "start_time": 74.90454545454546,
                "end_time": 75.18863636363636,
                "pitch": 47,
                "velocity": 51,
                "duration": 0.2840909090909065,
                "tempo": 120.0
            },
            {
                "start_time": 75.20681818181818,
                "end_time": 75.38863636363637,
                "pitch": 59,
                "velocity": 51,
                "duration": 0.18181818181818699,
                "tempo": 120.0
            },
            {
                "start_time": 75.40681818181818,
                "end_time": 75.69090909090909,
                "pitch": 51,
                "velocity": 51,
                "duration": 0.2840909090909065,
                "tempo": 120.0
            },
            {
                "start_time": 75.7090909090909,
                "end_time": 75.99318181818181,
                "pitch": 51,
                "velocity": 51,
                "duration": 0.2840909090909065,
                "tempo": 120.0
            },
            {
                "start_time": 76.0090909090909,
                "end_time": 76.19318181818181,
                "pitch": 63,
                "velocity": 51,
                "duration": 0.1840909090909122,
                "tempo": 120.0
            },
            {
                "start_time": 76.2090909090909,
                "end_time": 76.49318181818181,
                "pitch": 52,
                "velocity": 51,
                "duration": 0.2840909090909065,
                "tempo": 120.0
            },
            {
                "start_time": 76.51136363636363,
                "end_time": 76.79545454545455,
                "pitch": 52,
                "velocity": 51,
                "duration": 0.2840909090909207,
                "tempo": 120.0
            },
            {
                "start_time": 76.81363636363636,
                "end_time": 76.99772727272727,
                "pitch": 64,
                "velocity": 51,
                "duration": 0.1840909090909122,
                "tempo": 120.0
            },
            {
                "start_time": 77.01363636363637,
                "end_time": 77.29772727272727,
                "pitch": 48,
                "velocity": 51,
                "duration": 0.2840909090909065,
                "tempo": 120.0
            },
            {
                "start_time": 77.31363636363636,
                "end_time": 77.6,
                "pitch": 48,
                "velocity": 51,
                "duration": 0.2863636363636317,
                "tempo": 120.0
            },
            {
                "start_time": 77.61590909090908,
                "end_time": 77.8,
                "pitch": 60,
                "velocity": 51,
                "duration": 0.1840909090909122,
                "tempo": 120.0
            },
            {
                "start_time": 77.81818181818181,
                "end_time": 78.1,
                "pitch": 50,
                "velocity": 51,
                "duration": 0.2818181818181813,
                "tempo": 120.0
            },
            {
                "start_time": 78.11818181818181,
                "end_time": 78.40227272727272,
                "pitch": 50,
                "velocity": 51,
                "duration": 0.2840909090909065,
                "tempo": 120.0
            },
            {
                "start_time": 78.41818181818181,
                "end_time": 78.60227272727272,
                "pitch": 62,
                "velocity": 51,
                "duration": 0.1840909090909122,
                "tempo": 120.0
            },
            {
                "start_time": 78.62045454545454,
                "end_time": 78.90454545454546,
                "pitch": 50,
                "velocity": 51,
                "duration": 0.2840909090909207,
                "tempo": 120.0
            },
            {
                "start_time": 78.92272727272727,
                "end_time": 79.20681818181818,
                "pitch": 50,
                "velocity": 51,
                "duration": 0.2840909090909065,
                "tempo": 120.0
            },
            {
                "start_time": 79.22272727272727,
                "end_time": 79.40681818181818,
                "pitch": 62,
                "velocity": 51,
                "duration": 0.1840909090909122,
                "tempo": 120.0
            },
            {
                "start_time": 79.42272727272727,
                "end_time": 79.61136363636363,
                "pitch": 40,
                "velocity": 51,
                "duration": 0.1886363636363626,
                "tempo": 120.0
            },
            {
                "start_time": 79.62727272727273,
                "end_time": 79.81590909090909,
                "pitch": 52,
                "velocity": 51,
                "duration": 0.1886363636363626,
                "tempo": 120.0
            },
            {
                "start_time": 79.8340909090909,
                "end_time": 80.01363636363637,
                "pitch": 40,
                "velocity": 51,
                "duration": 0.17954545454546178,
                "tempo": 120.0
            },
            {
                "start_time": 80.02954545454546,
                "end_time": 80.2090909090909,
                "pitch": 52,
                "velocity": 51,
                "duration": 0.17954545454544757,
                "tempo": 120.0
            },
            {
                "start_time": 80.225,
                "end_time": 80.40454545454546,
                "pitch": 40,
                "velocity": 51,
                "duration": 0.17954545454546178,
                "tempo": 120.0
            },
            {
                "start_time": 80.42045454545455,
                "end_time": 80.6,
                "pitch": 52,
                "velocity": 51,
                "duration": 0.17954545454544757,
                "tempo": 120.0
            },
            {
                "start_time": 80.61818181818181,
                "end_time": 80.80681818181817,
                "pitch": 40,
                "velocity": 51,
                "duration": 0.1886363636363626,
                "tempo": 120.0
            },
            {
                "start_time": 80.82272727272726,
                "end_time": 81.01136363636363,
                "pitch": 52,
                "velocity": 51,
                "duration": 0.1886363636363626,
                "tempo": 120.0
            },
            {
                "start_time": 81.02727272727272,
                "end_time": 81.21136363636363,
                "pitch": 40,
                "velocity": 51,
                "duration": 0.1840909090909122,
                "tempo": 120.0
            },
            {
                "start_time": 81.22727272727272,
                "end_time": 81.41136363636363,
                "pitch": 52,
                "velocity": 51,
                "duration": 0.1840909090909122,
                "tempo": 120.0
            },
            {
                "start_time": 81.42727272727272,
                "end_time": 81.61363636363636,
                "pitch": 40,
                "velocity": 51,
                "duration": 0.1863636363636374,
                "tempo": 120.0
            },
            {
                "start_time": 81.62954545454545,
                "end_time": 81.81363636363636,
                "pitch": 52,
                "velocity": 51,
                "duration": 0.1840909090909122,
                "tempo": 120.0
            },
            {
                "start_time": 81.83181818181818,
                "end_time": 82.01363636363637,
                "pitch": 40,
                "velocity": 51,
                "duration": 0.18181818181818699,
                "tempo": 120.0
            },
            {
                "start_time": 82.03181818181818,
                "end_time": 82.21363636363635,
                "pitch": 52,
                "velocity": 51,
                "duration": 0.18181818181817277,
                "tempo": 120.0
            },
            {
                "start_time": 82.23181818181818,
                "end_time": 82.41590909090908,
                "pitch": 40,
                "velocity": 51,
                "duration": 0.18409090909089798,
                "tempo": 120.0
            },
            {
                "start_time": 82.43181818181817,
                "end_time": 82.61590909090908,
                "pitch": 52,
                "velocity": 51,
                "duration": 0.1840909090909122,
                "tempo": 120.0
            },
            {
                "start_time": 82.6340909090909,
                "end_time": 82.81818181818181,
                "pitch": 40,
                "velocity": 51,
                "duration": 0.1840909090909122,
                "tempo": 120.0
            },
            {
                "start_time": 82.8340909090909,
                "end_time": 83.02045454545454,
                "pitch": 52,
                "velocity": 51,
                "duration": 0.1863636363636374,
                "tempo": 120.0
            },
            {
                "start_time": 83.03636363636363,
                "end_time": 83.22045454545454,
                "pitch": 40,
                "velocity": 51,
                "duration": 0.1840909090909122,
                "tempo": 120.0
            },
            {
                "start_time": 83.23636363636363,
                "end_time": 83.42045454545455,
                "pitch": 52,
                "velocity": 51,
                "duration": 0.1840909090909122,
                "tempo": 120.0
            },
            {
                "start_time": 83.43636363636364,
                "end_time": 83.62045454545454,
                "pitch": 40,
                "velocity": 51,
                "duration": 0.18409090909089798,
                "tempo": 120.0
            },
            {
                "start_time": 83.63863636363637,
                "end_time": 83.82272727272726,
                "pitch": 52,
                "velocity": 51,
                "duration": 0.18409090909089798,
                "tempo": 120.0
            },
            {
                "start_time": 83.83863636363635,
                "end_time": 84.02272727272727,
                "pitch": 40,
                "velocity": 51,
                "duration": 0.1840909090909122,
                "tempo": 120.0
            },
            {
                "start_time": 84.03863636363636,
                "end_time": 84.22272727272727,
                "pitch": 52,
                "velocity": 51,
                "duration": 0.1840909090909122,
                "tempo": 120.0
            },
            {
                "start_time": 84.23863636363636,
                "end_time": 84.42272727272727,
                "pitch": 40,
                "velocity": 51,
                "duration": 0.1840909090909122,
                "tempo": 120.0
            },
            {
                "start_time": 84.44090909090909,
                "end_time": 84.625,
                "pitch": 52,
                "velocity": 51,
                "duration": 0.1840909090909122,
                "tempo": 120.0
            },
            {
                "start_time": 84.64090909090909,
                "end_time": 84.82727272727273,
                "pitch": 40,
                "velocity": 51,
                "duration": 0.1863636363636374,
                "tempo": 120.0
            },
            {
                "start_time": 84.84318181818182,
                "end_time": 85.02727272727272,
                "pitch": 52,
                "velocity": 51,
                "duration": 0.18409090909089798,
                "tempo": 120.0
            },
            {
                "start_time": 85.04545454545455,
                "end_time": 85.22727272727272,
                "pitch": 40,
                "velocity": 51,
                "duration": 0.18181818181817277,
                "tempo": 120.0
            },
            {
                "start_time": 85.24545454545454,
                "end_time": 85.42727272727272,
                "pitch": 52,
                "velocity": 51,
                "duration": 0.18181818181818699,
                "tempo": 120.0
            },
            {
                "start_time": 85.44318181818181,
                "end_time": 85.625,
                "pitch": 40,
                "velocity": 51,
                "duration": 0.18181818181818699,
                "tempo": 120.0
            },
            {
                "start_time": 85.64090909090909,
                "end_time": 85.82045454545454,
                "pitch": 52,
                "velocity": 51,
                "duration": 0.17954545454544757,
                "tempo": 120.0
            },
            {
                "start_time": 85.83636363636363,
                "end_time": 86.02045454545454,
                "pitch": 40,
                "velocity": 51,
                "duration": 0.1840909090909122,
                "tempo": 120.0
            },
            {
                "start_time": 86.03863636363636,
                "end_time": 86.22272727272727,
                "pitch": 52,
                "velocity": 51,
                "duration": 0.1840909090909122,
                "tempo": 120.0
            },
            {
                "start_time": 86.23863636363636,
                "end_time": 86.42727272727272,
                "pitch": 40,
                "velocity": 51,
                "duration": 0.1886363636363626,
                "tempo": 120.0
            },
            {
                "start_time": 86.44545454545454,
                "end_time": 86.6340909090909,
                "pitch": 52,
                "velocity": 51,
                "duration": 0.1886363636363626,
                "tempo": 120.0
            },
            {
                "start_time": 86.64999999999999,
                "end_time": 86.8340909090909,
                "pitch": 41,
                "velocity": 51,
                "duration": 0.1840909090909122,
                "tempo": 120.0
            },
            {
                "start_time": 86.85227272727272,
                "end_time": 87.03636363636363,
                "pitch": 53,
                "velocity": 51,
                "duration": 0.1840909090909122,
                "tempo": 120.0
            },
            {
                "start_time": 87.05227272727272,
                "end_time": 87.23636363636363,
                "pitch": 41,
                "velocity": 51,
                "duration": 0.1840909090909122,
                "tempo": 120.0
            },
            {
                "start_time": 87.25227272727273,
                "end_time": 87.43636363636364,
                "pitch": 53,
                "velocity": 51,
                "duration": 0.1840909090909122,
                "tempo": 120.0
            },
            {
                "start_time": 87.45227272727273,
                "end_time": 87.63863636363637,
                "pitch": 41,
                "velocity": 51,
                "duration": 0.1863636363636374,
                "tempo": 120.0
            },
            {
                "start_time": 87.65454545454546,
                "end_time": 87.83863636363635,
                "pitch": 53,
                "velocity": 51,
                "duration": 0.18409090909089798,
                "tempo": 120.0
            },
            {
                "start_time": 87.85681818181818,
                "end_time": 88.03863636363636,
                "pitch": 41,
                "velocity": 51,
                "duration": 0.18181818181817277,
                "tempo": 120.0
            },
            {
                "start_time": 88.05681818181817,
                "end_time": 88.23863636363636,
                "pitch": 53,
                "velocity": 51,
                "duration": 0.18181818181818699,
                "tempo": 120.0
            },
            {
                "start_time": 88.25681818181818,
                "end_time": 88.44090909090909,
                "pitch": 41,
                "velocity": 51,
                "duration": 0.1840909090909122,
                "tempo": 120.0
            },
            {
                "start_time": 88.45681818181818,
                "end_time": 88.64090909090909,
                "pitch": 53,
                "velocity": 51,
                "duration": 0.1840909090909122,
                "tempo": 120.0
            },
            {
                "start_time": 88.6590909090909,
                "end_time": 88.84318181818182,
                "pitch": 41,
                "velocity": 51,
                "duration": 0.1840909090909122,
                "tempo": 120.0
            },
            {
                "start_time": 88.85909090909091,
                "end_time": 89.04545454545455,
                "pitch": 53,
                "velocity": 51,
                "duration": 0.1863636363636374,
                "tempo": 120.0
            },
            {
                "start_time": 89.06136363636364,
                "end_time": 89.24545454545454,
                "pitch": 41,
                "velocity": 51,
                "duration": 0.18409090909089798,
                "tempo": 120.0
            },
            {
                "start_time": 89.26136363636363,
                "end_time": 89.44545454545454,
                "pitch": 53,
                "velocity": 51,
                "duration": 0.1840909090909122,
                "tempo": 120.0
            },
            {
                "start_time": 89.46136363636363,
                "end_time": 89.64545454545454,
                "pitch": 41,
                "velocity": 51,
                "duration": 0.1840909090909122,
                "tempo": 120.0
            },
            {
                "start_time": 89.66136363636363,
                "end_time": 89.84772727272727,
                "pitch": 53,
                "velocity": 51,
                "duration": 0.1863636363636374,
                "tempo": 120.0
            },
            {
                "start_time": 89.86363636363636,
                "end_time": 90.04772727272727,
                "pitch": 41,
                "velocity": 51,
                "duration": 0.1840909090909122,
                "tempo": 120.0
            },
            {
                "start_time": 90.06363636363636,
                "end_time": 90.24772727272727,
                "pitch": 53,
                "velocity": 51,
                "duration": 0.1840909090909122,
                "tempo": 120.0
            },
            {
                "start_time": 90.26363636363637,
                "end_time": 90.44772727272726,
                "pitch": 41,
                "velocity": 51,
                "duration": 0.18409090909089798,
                "tempo": 120.0
            },
            {
                "start_time": 90.4659090909091,
                "end_time": 90.64999999999999,
                "pitch": 53,
                "velocity": 51,
                "duration": 0.18409090909089798,
                "tempo": 120.0
            },
            {
                "start_time": 90.66590909090908,
                "end_time": 90.85,
                "pitch": 41,
                "velocity": 51,
                "duration": 0.1840909090909122,
                "tempo": 120.0
            },
            {
                "start_time": 90.86818181818181,
                "end_time": 91.05227272727272,
                "pitch": 53,
                "velocity": 51,
                "duration": 0.1840909090909122,
                "tempo": 120.0
            },
            {
                "start_time": 91.06818181818181,
                "end_time": 91.25227272727273,
                "pitch": 41,
                "velocity": 51,
                "duration": 0.1840909090909122,
                "tempo": 120.0
            },
            {
                "start_time": 91.26818181818182,
                "end_time": 91.45227272727273,
                "pitch": 53,
                "velocity": 51,
                "duration": 0.1840909090909122,
                "tempo": 120.0
            },
            {
                "start_time": 91.46818181818182,
                "end_time": 91.65454545454546,
                "pitch": 41,
                "velocity": 51,
                "duration": 0.1863636363636374,
                "tempo": 120.0
            },
            {
                "start_time": 91.67045454545455,
                "end_time": 91.85454545454544,
                "pitch": 53,
                "velocity": 51,
                "duration": 0.18409090909089798,
                "tempo": 120.0
            },
            {
                "start_time": 91.87045454545454,
                "end_time": 92.05227272727272,
                "pitch": 41,
                "velocity": 51,
                "duration": 0.18181818181818699,
                "tempo": 120.0
            },
            {
                "start_time": 92.06818181818181,
                "end_time": 92.24772727272727,
                "pitch": 53,
                "velocity": 51,
                "duration": 0.17954545454546178,
                "tempo": 120.0
            },
            {
                "start_time": 92.26363636363637,
                "end_time": 92.44772727272726,
                "pitch": 41,
                "velocity": 51,
                "duration": 0.18409090909089798,
                "tempo": 120.0
            },
            {
                "start_time": 92.46363636363635,
                "end_time": 92.64772727272727,
                "pitch": 53,
                "velocity": 51,
                "duration": 0.1840909090909122,
                "tempo": 120.0
            },
            {
                "start_time": 92.66363636363636,
                "end_time": 92.85227272727272,
                "pitch": 41,
                "velocity": 51,
                "duration": 0.1886363636363626,
                "tempo": 120.0
            },
            {
                "start_time": 92.87045454545454,
                "end_time": 93.05681818181817,
                "pitch": 53,
                "velocity": 51,
                "duration": 0.1863636363636374,
                "tempo": 120.0
            },
            {
                "start_time": 93.07499999999999,
                "end_time": 93.2590909090909,
                "pitch": 42,
                "velocity": 51,
                "duration": 0.1840909090909122,
                "tempo": 120.0
            },
            {
                "start_time": 93.27499999999999,
                "end_time": 93.4590909090909,
                "pitch": 54,
                "velocity": 51,
                "duration": 0.1840909090909122,
                "tempo": 120.0
            },
            {
                "start_time": 93.475,
                "end_time": 93.6590909090909,
                "pitch": 42,
                "velocity": 51,
                "duration": 0.1840909090909122,
                "tempo": 120.0
            },
            {
                "start_time": 93.67727272727272,
                "end_time": 93.86136363636363,
                "pitch": 54,
                "velocity": 51,
                "duration": 0.1840909090909122,
                "tempo": 120.0
            },
            {
                "start_time": 93.87727272727273,
                "end_time": 94.06136363636364,
                "pitch": 42,
                "velocity": 51,
                "duration": 0.1840909090909122,
                "tempo": 120.0
            },
            {
                "start_time": 94.07727272727273,
                "end_time": 94.26136363636363,
                "pitch": 54,
                "velocity": 51,
                "duration": 0.18409090909089798,
                "tempo": 120.0
            },
            {
                "start_time": 94.27727272727272,
                "end_time": 94.46136363636363,
                "pitch": 42,
                "velocity": 51,
                "duration": 0.1840909090909122,
                "tempo": 120.0
            },
            {
                "start_time": 94.47954545454544,
                "end_time": 94.66363636363636,
                "pitch": 54,
                "velocity": 51,
                "duration": 0.1840909090909122,
                "tempo": 120.0
            },
            {
                "start_time": 94.67954545454545,
                "end_time": 94.86590909090908,
                "pitch": 43,
                "velocity": 51,
                "duration": 0.1863636363636374,
                "tempo": 120.0
            },
            {
                "start_time": 94.88181818181818,
                "end_time": 95.06590909090909,
                "pitch": 55,
                "velocity": 51,
                "duration": 0.1840909090909122,
                "tempo": 120.0
            },
            {
                "start_time": 95.08181818181818,
                "end_time": 95.26590909090909,
                "pitch": 43,
                "velocity": 51,
                "duration": 0.1840909090909122,
                "tempo": 120.0
            },
            {
                "start_time": 95.28181818181818,
                "end_time": 95.46590909090908,
                "pitch": 55,
                "velocity": 51,
                "duration": 0.18409090909089798,
                "tempo": 120.0
            },
            {
                "start_time": 95.48181818181818,
                "end_time": 95.66818181818181,
                "pitch": 43,
                "velocity": 51,
                "duration": 0.1863636363636232,
                "tempo": 120.0
            },
            {
                "start_time": 95.6840909090909,
                "end_time": 95.86818181818181,
                "pitch": 55,
                "velocity": 51,
                "duration": 0.1840909090909122,
                "tempo": 120.0
            },
            {
                "start_time": 95.88636363636363,
                "end_time": 96.06818181818181,
                "pitch": 43,
                "velocity": 51,
                "duration": 0.18181818181818699,
                "tempo": 120.0
            },
            {
                "start_time": 96.08636363636363,
                "end_time": 96.26818181818182,
                "pitch": 55,
                "velocity": 51,
                "duration": 0.18181818181818699,
                "tempo": 120.0
            },
            {
                "start_time": 96.28636363636363,
                "end_time": 96.47045454545454,
                "pitch": 45,
                "velocity": 51,
                "duration": 0.1840909090909122,
                "tempo": 120.0
            },
            {
                "start_time": 96.48636363636363,
                "end_time": 96.67045454545455,
                "pitch": 57,
                "velocity": 51,
                "duration": 0.1840909090909122,
                "tempo": 120.0
            },
            {
                "start_time": 96.68863636363636,
                "end_time": 96.87272727272727,
                "pitch": 45,
                "velocity": 51,
                "duration": 0.1840909090909122,
                "tempo": 120.0
            },
            {
                "start_time": 96.88863636363637,
                "end_time": 97.07499999999999,
                "pitch": 57,
                "velocity": 51,
                "duration": 0.1863636363636232,
                "tempo": 120.0
            },
            {
                "start_time": 97.09090909090908,
                "end_time": 97.27045454545454,
                "pitch": 45,
                "velocity": 51,
                "duration": 0.17954545454546178,
                "tempo": 120.0
            },
            {
                "start_time": 97.28636363636363,
                "end_time": 97.46590909090908,
                "pitch": 57,
                "velocity": 51,
                "duration": 0.17954545454544757,
                "tempo": 120.0
            },
            {
                "start_time": 97.48181818181818,
                "end_time": 97.67045454545455,
                "pitch": 45,
                "velocity": 51,
                "duration": 0.1886363636363626,
                "tempo": 120.0
            },
            {
                "start_time": 97.68863636363636,
                "end_time": 97.87727272727273,
                "pitch": 57,
                "velocity": 51,
                "duration": 0.1886363636363626,
                "tempo": 120.0
            },
            {
                "start_time": 99.5,
                "end_time": 99.6840909090909,
                "pitch": 38,
                "velocity": 51,
                "duration": 0.18409090909089798,
                "tempo": 120.0
            },
            {
                "start_time": 99.69999999999999,
                "end_time": 99.8840909090909,
                "pitch": 50,
                "velocity": 51,
                "duration": 0.1840909090909122,
                "tempo": 120.0
            },
            {
                "start_time": 99.90227272727272,
                "end_time": 100.08636363636363,
                "pitch": 38,
                "velocity": 51,
                "duration": 0.1840909090909122,
                "tempo": 120.0
            },
            {
                "start_time": 100.10227272727272,
                "end_time": 100.28636363636363,
                "pitch": 50,
                "velocity": 51,
                "duration": 0.1840909090909122,
                "tempo": 120.0
            },
            {
                "start_time": 100.30227272727272,
                "end_time": 100.48636363636363,
                "pitch": 38,
                "velocity": 51,
                "duration": 0.1840909090909122,
                "tempo": 120.0
            },
            {
                "start_time": 100.50227272727273,
                "end_time": 100.68863636363636,
                "pitch": 50,
                "velocity": 51,
                "duration": 0.1863636363636374,
                "tempo": 120.0
            },
            {
                "start_time": 100.70454545454545,
                "end_time": 100.88863636363637,
                "pitch": 38,
                "velocity": 51,
                "duration": 0.1840909090909122,
                "tempo": 120.0
            },
            {
                "start_time": 100.90681818181818,
                "end_time": 101.09090909090908,
                "pitch": 50,
                "velocity": 51,
                "duration": 0.18409090909089798,
                "tempo": 120.0
            },
            {
                "start_time": 101.10681818181817,
                "end_time": 101.29090909090908,
                "pitch": 38,
                "velocity": 51,
                "duration": 0.1840909090909122,
                "tempo": 120.0
            },
            {
                "start_time": 101.30681818181817,
                "end_time": 101.49090909090908,
                "pitch": 50,
                "velocity": 51,
                "duration": 0.1840909090909122,
                "tempo": 120.0
            },
            {
                "start_time": 101.50681818181818,
                "end_time": 101.69090909090909,
                "pitch": 38,
                "velocity": 51,
                "duration": 0.1840909090909122,
                "tempo": 120.0
            },
            {
                "start_time": 101.7090909090909,
                "end_time": 101.89318181818182,
                "pitch": 50,
                "velocity": 51,
                "duration": 0.1840909090909122,
                "tempo": 120.0
            },
            {
                "start_time": 101.9090909090909,
                "end_time": 102.09318181818182,
                "pitch": 38,
                "velocity": 51,
                "duration": 0.1840909090909122,
                "tempo": 120.0
            },
            {
                "start_time": 102.10909090909091,
                "end_time": 102.29318181818181,
                "pitch": 50,
                "velocity": 51,
                "duration": 0.18409090909089798,
                "tempo": 120.0
            },
            {
                "start_time": 102.3090909090909,
                "end_time": 102.49545454545454,
                "pitch": 37,
                "velocity": 51,
                "duration": 0.1863636363636374,
                "tempo": 120.0
            },
            {
                "start_time": 102.51136363636363,
                "end_time": 102.69545454545454,
                "pitch": 49,
                "velocity": 51,
                "duration": 0.1840909090909122,
                "tempo": 120.0
            },
            {
                "start_time": 102.71363636363635,
                "end_time": 102.89772727272727,
                "pitch": 48,
                "velocity": 51,
                "duration": 0.1840909090909122,
                "tempo": 120.0
            },
            {
                "start_time": 102.91363636363636,
                "end_time": 103.09772727272727,
                "pitch": 60,
                "velocity": 51,
                "duration": 0.1840909090909122,
                "tempo": 120.0
            },
            {
                "start_time": 103.11590909090908,
                "end_time": 103.29772727272727,
                "pitch": 48,
                "velocity": 51,
                "duration": 0.18181818181818699,
                "tempo": 120.0
            },
            {
                "start_time": 103.31590909090909,
                "end_time": 103.49772727272727,
                "pitch": 60,
                "velocity": 51,
                "duration": 0.18181818181818699,
                "tempo": 120.0
            },
            {
                "start_time": 103.51590909090909,
                "end_time": 103.69999999999999,
                "pitch": 48,
                "velocity": 51,
                "duration": 0.18409090909089798,
                "tempo": 120.0
            },
            {
                "start_time": 103.71590909090908,
                "end_time": 103.90227272727272,
                "pitch": 60,
                "velocity": 51,
                "duration": 0.1863636363636374,
                "tempo": 120.0
            },
            {
                "start_time": 103.91818181818181,
                "end_time": 104.10227272727272,
                "pitch": 48,
                "velocity": 51,
                "duration": 0.1840909090909122,
                "tempo": 120.0
            },
            {
                "start_time": 104.11818181818181,
                "end_time": 104.30227272727272,
                "pitch": 60,
                "velocity": 51,
                "duration": 0.1840909090909122,
                "tempo": 120.0
            },
            {
                "start_time": 104.31818181818181,
                "end_time": 104.50227272727273,
                "pitch": 48,
                "velocity": 51,
                "duration": 0.1840909090909122,
                "tempo": 120.0
            },
            {
                "start_time": 104.52045454545454,
                "end_time": 104.70454545454545,
                "pitch": 60,
                "velocity": 51,
                "duration": 0.1840909090909122,
                "tempo": 120.0
            },
            {
                "start_time": 104.72045454545454,
                "end_time": 104.90454545454546,
                "pitch": 48,
                "velocity": 51,
                "duration": 0.1840909090909122,
                "tempo": 120.0
            },
            {
                "start_time": 104.92272727272727,
                "end_time": 105.10681818181817,
                "pitch": 60,
                "velocity": 51,
                "duration": 0.18409090909089798,
                "tempo": 120.0
            },
            {
                "start_time": 105.12272727272726,
                "end_time": 105.30681818181817,
                "pitch": 48,
                "velocity": 51,
                "duration": 0.1840909090909122,
                "tempo": 120.0
            },
            {
                "start_time": 105.32272727272726,
                "end_time": 105.50681818181818,
                "pitch": 60,
                "velocity": 51,
                "duration": 0.1840909090909122,
                "tempo": 120.0
            },
            {
                "start_time": 105.52272727272727,
                "end_time": 105.70681818181818,
                "pitch": 48,
                "velocity": 51,
                "duration": 0.1840909090909122,
                "tempo": 120.0
            },
            {
                "start_time": 105.725,
                "end_time": 105.9090909090909,
                "pitch": 60,
                "velocity": 51,
                "duration": 0.1840909090909122,
                "tempo": 120.0
            },
            {
                "start_time": 105.925,
                "end_time": 106.10909090909091,
                "pitch": 47,
                "velocity": 51,
                "duration": 0.1840909090909122,
                "tempo": 120.0
            },
            {
                "start_time": 106.125,
                "end_time": 106.3090909090909,
                "pitch": 59,
                "velocity": 51,
                "duration": 0.18409090909089798,
                "tempo": 120.0
            },
            {
                "start_time": 106.32499999999999,
                "end_time": 106.51136363636363,
                "pitch": 47,
                "velocity": 51,
                "duration": 0.1863636363636374,
                "tempo": 120.0
            },
            {
                "start_time": 106.52727272727272,
                "end_time": 106.71136363636363,
                "pitch": 59,
                "velocity": 51,
                "duration": 0.1840909090909122,
                "tempo": 120.0
            },
            {
                "start_time": 106.72954545454544,
                "end_time": 106.91363636363636,
                "pitch": 47,
                "velocity": 51,
                "duration": 0.1840909090909122,
                "tempo": 120.0
            },
            {
                "start_time": 106.92954545454545,
                "end_time": 107.11363636363636,
                "pitch": 59,
                "velocity": 51,
                "duration": 0.1840909090909122,
                "tempo": 120.0
            },
            {
                "start_time": 107.13181818181818,
                "end_time": 107.31590909090909,
                "pitch": 47,
                "velocity": 51,
                "duration": 0.1840909090909122,
                "tempo": 120.0
            },
            {
                "start_time": 107.33181818181818,
                "end_time": 107.51590909090909,
                "pitch": 59,
                "velocity": 51,
                "duration": 0.1840909090909122,
                "tempo": 120.0
            },
            {
                "start_time": 107.53181818181818,
                "end_time": 107.71590909090908,
                "pitch": 48,
                "velocity": 51,
                "duration": 0.18409090909089798,
                "tempo": 120.0
            },
            {
                "start_time": 107.73181818181817,
                "end_time": 107.91818181818181,
                "pitch": 60,
                "velocity": 51,
                "duration": 0.1863636363636374,
                "tempo": 120.0
            },
            {
                "start_time": 107.9340909090909,
                "end_time": 108.11818181818181,
                "pitch": 48,
                "velocity": 51,
                "duration": 0.1840909090909122,
                "tempo": 120.0
            },
            {
                "start_time": 108.1340909090909,
                "end_time": 108.31818181818181,
                "pitch": 60,
                "velocity": 51,
                "duration": 0.1840909090909122,
                "tempo": 120.0
            },
            {
                "start_time": 108.3340909090909,
                "end_time": 108.51818181818182,
                "pitch": 48,
                "velocity": 51,
                "duration": 0.1840909090909122,
                "tempo": 120.0
            },
            {
                "start_time": 108.53636363636363,
                "end_time": 108.72045454545454,
                "pitch": 60,
                "velocity": 51,
                "duration": 0.1840909090909122,
                "tempo": 120.0
            },
            {
                "start_time": 108.73636363636363,
                "end_time": 108.92045454545455,
                "pitch": 48,
                "velocity": 51,
                "duration": 0.1840909090909122,
                "tempo": 120.0
            },
            {
                "start_time": 108.93863636363636,
                "end_time": 109.12272727272726,
                "pitch": 60,
                "velocity": 51,
                "duration": 0.18409090909089798,
                "tempo": 120.0
            },
            {
                "start_time": 109.13863636363635,
                "end_time": 109.32272727272726,
                "pitch": 38,
                "velocity": 51,
                "duration": 0.1840909090909122,
                "tempo": 120.0
            },
            {
                "start_time": 109.33863636363635,
                "end_time": 109.52272727272727,
                "pitch": 50,
                "velocity": 51,
                "duration": 0.1840909090909122,
                "tempo": 120.0
            },
            {
                "start_time": 109.53863636363636,
                "end_time": 109.725,
                "pitch": 38,
                "velocity": 51,
                "duration": 0.1863636363636374,
                "tempo": 120.0
            },
            {
                "start_time": 109.74090909090908,
                "end_time": 109.925,
                "pitch": 50,
                "velocity": 51,
                "duration": 0.1840909090909122,
                "tempo": 120.0
            },
            {
                "start_time": 109.94318181818181,
                "end_time": 110.125,
                "pitch": 38,
                "velocity": 51,
                "duration": 0.18181818181818699,
                "tempo": 120.0
            },
            {
                "start_time": 110.14318181818182,
                "end_time": 110.32499999999999,
                "pitch": 50,
                "velocity": 51,
                "duration": 0.18181818181817277,
                "tempo": 120.0
            },
            {
                "start_time": 110.34318181818182,
                "end_time": 110.52727272727272,
                "pitch": 38,
                "velocity": 51,
                "duration": 0.18409090909089798,
                "tempo": 120.0
            },
            {
                "start_time": 110.54318181818181,
                "end_time": 110.72727272727272,
                "pitch": 50,
                "velocity": 51,
                "duration": 0.1840909090909122,
                "tempo": 120.0
            },
            {
                "start_time": 110.74545454545454,
                "end_time": 110.92954545454545,
                "pitch": 39,
                "velocity": 51,
                "duration": 0.1840909090909122,
                "tempo": 120.0
            },
            {
                "start_time": 110.94545454545454,
                "end_time": 111.13181818181818,
                "pitch": 51,
                "velocity": 51,
                "duration": 0.1863636363636374,
                "tempo": 120.0
            },
            {
                "start_time": 111.14772727272727,
                "end_time": 111.33181818181818,
                "pitch": 39,
                "velocity": 51,
                "duration": 0.1840909090909122,
                "tempo": 120.0
            },
            {
                "start_time": 111.34772727272727,
                "end_time": 111.53181818181818,
                "pitch": 51,
                "velocity": 51,
                "duration": 0.1840909090909122,
                "tempo": 120.0
            },
            {
                "start_time": 111.54772727272727,
                "end_time": 111.72727272727272,
                "pitch": 39,
                "velocity": 51,
                "duration": 0.17954545454544757,
                "tempo": 120.0
            },
            {
                "start_time": 111.74318181818181,
                "end_time": 111.92272727272727,
                "pitch": 51,
                "velocity": 51,
                "duration": 0.17954545454546178,
                "tempo": 120.0
            },
            {
                "start_time": 111.93863636363636,
                "end_time": 112.12727272727273,
                "pitch": 39,
                "velocity": 51,
                "duration": 0.1886363636363626,
                "tempo": 120.0
            },
            {
                "start_time": 112.14545454545454,
                "end_time": 112.3340909090909,
                "pitch": 51,
                "velocity": 51,
                "duration": 0.1886363636363626,
                "tempo": 120.0
            },
            {
                "start_time": 112.35,
                "end_time": 112.5340909090909,
                "pitch": 40,
                "velocity": 51,
                "duration": 0.1840909090909122,
                "tempo": 120.0
            },
            {
                "start_time": 112.55227272727272,
                "end_time": 112.73636363636363,
                "pitch": 52,
                "velocity": 51,
                "duration": 0.1840909090909122,
                "tempo": 120.0
            },
            {
                "start_time": 112.75227272727273,
                "end_time": 112.93863636363636,
                "pitch": 40,
                "velocity": 51,
                "duration": 0.1863636363636374,
                "tempo": 120.0
            },
            {
                "start_time": 112.95454545454545,
                "end_time": 113.13863636363635,
                "pitch": 52,
                "velocity": 51,
                "duration": 0.18409090909089798,
                "tempo": 120.0
            },
            {
                "start_time": 113.15681818181818,
                "end_time": 113.33863636363635,
                "pitch": 40,
                "velocity": 51,
                "duration": 0.18181818181817277,
                "tempo": 120.0
            },
            {
                "start_time": 113.35681818181817,
                "end_time": 113.53863636363636,
                "pitch": 52,
                "velocity": 51,
                "duration": 0.18181818181818699,
                "tempo": 120.0
            },
            {
                "start_time": 113.55681818181817,
                "end_time": 113.74090909090908,
                "pitch": 40,
                "velocity": 51,
                "duration": 0.1840909090909122,
                "tempo": 120.0
            },
            {
                "start_time": 113.75681818181818,
                "end_time": 113.94090909090909,
                "pitch": 52,
                "velocity": 51,
                "duration": 0.1840909090909122,
                "tempo": 120.0
            },
            {
                "start_time": 113.9590909090909,
                "end_time": 114.14090909090909,
                "pitch": 40,
                "velocity": 51,
                "duration": 0.18181818181818699,
                "tempo": 120.0
            },
            {
                "start_time": 114.1590909090909,
                "end_time": 114.34090909090908,
                "pitch": 52,
                "velocity": 51,
                "duration": 0.18181818181817277,
                "tempo": 120.0
            },
            {
                "start_time": 114.35909090909091,
                "end_time": 114.54318181818181,
                "pitch": 40,
                "velocity": 51,
                "duration": 0.18409090909089798,
                "tempo": 120.0
            },
            {
                "start_time": 114.5590909090909,
                "end_time": 114.74545454545454,
                "pitch": 52,
                "velocity": 51,
                "duration": 0.1863636363636374,
                "tempo": 120.0
            },
            {
                "start_time": 114.76136363636363,
                "end_time": 114.94545454545454,
                "pitch": 40,
                "velocity": 51,
                "duration": 0.1840909090909122,
                "tempo": 120.0
            },
            {
                "start_time": 114.96363636363635,
                "end_time": 115.14772727272727,
                "pitch": 52,
                "velocity": 51,
                "duration": 0.1840909090909122,
                "tempo": 120.0
            },
            {
                "start_time": 115.16363636363636,
                "end_time": 115.34772727272727,
                "pitch": 38,
                "velocity": 51,
                "duration": 0.1840909090909122,
                "tempo": 120.0
            },
            {
                "start_time": 115.36363636363636,
                "end_time": 115.54772727272727,
                "pitch": 50,
                "velocity": 51,
                "duration": 0.1840909090909122,
                "tempo": 120.0
            },
            {
                "start_time": 115.56363636363636,
                "end_time": 115.74772727272726,
                "pitch": 48,
                "velocity": 51,
                "duration": 0.18409090909089798,
                "tempo": 120.0
            },
            {
                "start_time": 115.76590909090909,
                "end_time": 115.94999999999999,
                "pitch": 60,
                "velocity": 51,
                "duration": 0.18409090909089798,
                "tempo": 120.0
            },
            {
                "start_time": 115.96590909090908,
                "end_time": 116.14999999999999,
                "pitch": 48,
                "velocity": 51,
                "duration": 0.1840909090909122,
                "tempo": 120.0
            },
            {
                "start_time": 116.16590909090908,
                "end_time": 116.35,
                "pitch": 60,
                "velocity": 51,
                "duration": 0.1840909090909122,
                "tempo": 120.0
            },
            {
                "start_time": 116.36590909090908,
                "end_time": 116.55227272727272,
                "pitch": 48,
                "velocity": 51,
                "duration": 0.1863636363636374,
                "tempo": 120.0
            },
            {
                "start_time": 116.56818181818181,
                "end_time": 116.75227272727273,
                "pitch": 60,
                "velocity": 51,
                "duration": 0.1840909090909122,
                "tempo": 120.0
            },
            {
                "start_time": 116.76818181818182,
                "end_time": 116.95454545454545,
                "pitch": 48,
                "velocity": 51,
                "duration": 0.1863636363636374,
                "tempo": 120.0
            },
            {
                "start_time": 116.97045454545454,
                "end_time": 117.15454545454544,
                "pitch": 60,
                "velocity": 51,
                "duration": 0.18409090909089798,
                "tempo": 120.0
            },
            {
                "start_time": 117.17272727272727,
                "end_time": 117.35454545454544,
                "pitch": 47,
                "velocity": 51,
                "duration": 0.18181818181817277,
                "tempo": 120.0
            },
            {
                "start_time": 117.37272727272726,
                "end_time": 117.55454545454545,
                "pitch": 59,
                "velocity": 51,
                "duration": 0.18181818181818699,
                "tempo": 120.0
            },
            {
                "start_time": 117.57272727272726,
                "end_time": 117.75681818181818,
                "pitch": 47,
                "velocity": 51,
                "duration": 0.1840909090909122,
                "tempo": 120.0
            },
            {
                "start_time": 117.77272727272727,
                "end_time": 117.95681818181818,
                "pitch": 59,
                "velocity": 51,
                "duration": 0.1840909090909122,
                "tempo": 120.0
            },
            {
                "start_time": 117.975,
                "end_time": 118.1590909090909,
                "pitch": 47,
                "velocity": 51,
                "duration": 0.1840909090909122,
                "tempo": 120.0
            },
            {
                "start_time": 118.175,
                "end_time": 118.35909090909091,
                "pitch": 59,
                "velocity": 51,
                "duration": 0.1840909090909122,
                "tempo": 120.0
            },
            {
                "start_time": 118.375,
                "end_time": 118.5590909090909,
                "pitch": 47,
                "velocity": 51,
                "duration": 0.18409090909089798,
                "tempo": 120.0
            },
            {
                "start_time": 118.57499999999999,
                "end_time": 118.76136363636363,
                "pitch": 59,
                "velocity": 51,
                "duration": 0.1863636363636374,
                "tempo": 120.0
            },
            {
                "start_time": 118.77727272727272,
                "end_time": 118.96136363636363,
                "pitch": 40,
                "velocity": 51,
                "duration": 0.1840909090909122,
                "tempo": 120.0
            },
            {
                "start_time": 118.97954545454544,
                "end_time": 119.16363636363636,
                "pitch": 52,
                "velocity": 51,
                "duration": 0.1840909090909122,
                "tempo": 120.0
            },
            {
                "start_time": 119.17954545454545,
                "end_time": 119.36363636363636,
                "pitch": 40,
                "velocity": 51,
                "duration": 0.1840909090909122,
                "tempo": 120.0
            },
            {
                "start_time": 119.37954545454545,
                "end_time": 119.56363636363636,
                "pitch": 52,
                "velocity": 51,
                "duration": 0.1840909090909122,
                "tempo": 120.0
            },
            {
                "start_time": 119.57954545454545,
                "end_time": 119.76363636363635,
                "pitch": 40,
                "velocity": 51,
                "duration": 0.18409090909089798,
                "tempo": 120.0
            },
            {
                "start_time": 119.78181818181818,
                "end_time": 119.96590909090908,
                "pitch": 52,
                "velocity": 51,
                "duration": 0.18409090909089798,
                "tempo": 120.0
            },
            {
                "start_time": 119.98181818181817,
                "end_time": 120.16590909090908,
                "pitch": 40,
                "velocity": 51,
                "duration": 0.1840909090909122,
                "tempo": 120.0
            },
            {
                "start_time": 120.18181818181817,
                "end_time": 120.36590909090908,
                "pitch": 52,
                "velocity": 51,
                "duration": 0.1840909090909122,
                "tempo": 120.0
            },
            {
                "start_time": 120.38181818181818,
                "end_time": 120.56818181818181,
                "pitch": 38,
                "velocity": 51,
                "duration": 0.1863636363636374,
                "tempo": 120.0
            },
            {
                "start_time": 120.5840909090909,
                "end_time": 120.76818181818182,
                "pitch": 50,
                "velocity": 51,
                "duration": 0.1840909090909122,
                "tempo": 120.0
            },
            {
                "start_time": 120.78636363636363,
                "end_time": 120.97045454545454,
                "pitch": 38,
                "velocity": 51,
                "duration": 0.1840909090909122,
                "tempo": 120.0
            },
            {
                "start_time": 120.98636363636363,
                "end_time": 121.17045454545453,
                "pitch": 50,
                "velocity": 51,
                "duration": 0.18409090909089798,
                "tempo": 120.0
            },
            {
                "start_time": 121.18863636363636,
                "end_time": 121.37045454545454,
                "pitch": 38,
                "velocity": 51,
                "duration": 0.18181818181817277,
                "tempo": 120.0
            },
            {
                "start_time": 121.38863636363635,
                "end_time": 121.57045454545454,
                "pitch": 50,
                "velocity": 51,
                "duration": 0.18181818181818699,
                "tempo": 120.0
            },
            {
                "start_time": 121.58863636363635,
                "end_time": 121.77272727272727,
                "pitch": 38,
                "velocity": 51,
                "duration": 0.1840909090909122,
                "tempo": 120.0
            },
            {
                "start_time": 121.78863636363636,
                "end_time": 121.975,
                "pitch": 50,
                "velocity": 51,
                "duration": 0.1863636363636374,
                "tempo": 120.0
            },
            {
                "start_time": 121.99090909090908,
                "end_time": 122.175,
                "pitch": 48,
                "velocity": 51,
                "duration": 0.1840909090909122,
                "tempo": 120.0
            },
            {
                "start_time": 122.19090909090909,
                "end_time": 122.375,
                "pitch": 60,
                "velocity": 51,
                "duration": 0.1840909090909122,
                "tempo": 120.0
            },
            {
                "start_time": 122.39090909090909,
                "end_time": 122.57499999999999,
                "pitch": 48,
                "velocity": 51,
                "duration": 0.18409090909089798,
                "tempo": 120.0
            },
            {
                "start_time": 122.59318181818182,
                "end_time": 122.77727272727272,
                "pitch": 60,
                "velocity": 51,
                "duration": 0.18409090909089798,
                "tempo": 120.0
            },
            {
                "start_time": 122.79318181818181,
                "end_time": 122.97727272727272,
                "pitch": 48,
                "velocity": 51,
                "duration": 0.1840909090909122,
                "tempo": 120.0
            },
            {
                "start_time": 122.99545454545454,
                "end_time": 123.17954545454545,
                "pitch": 60,
                "velocity": 51,
                "duration": 0.1840909090909122,
                "tempo": 120.0
            },
            {
                "start_time": 123.19545454545454,
                "end_time": 123.37954545454545,
                "pitch": 48,
                "velocity": 51,
                "duration": 0.1840909090909122,
                "tempo": 120.0
            },
            {
                "start_time": 123.39545454545454,
                "end_time": 123.57954545454545,
                "pitch": 60,
                "velocity": 51,
                "duration": 0.1840909090909122,
                "tempo": 120.0
            },
            {
                "start_time": 123.59545454545454,
                "end_time": 123.77954545454544,
                "pitch": 38,
                "velocity": 51,
                "duration": 0.18409090909089798,
                "tempo": 120.0
            },
            {
                "start_time": 123.79772727272727,
                "end_time": 123.98181818181817,
                "pitch": 50,
                "velocity": 51,
                "duration": 0.18409090909089798,
                "tempo": 120.0
            },
            {
                "start_time": 123.99772727272726,
                "end_time": 124.18181818181817,
                "pitch": 38,
                "velocity": 51,
                "duration": 0.1840909090909122,
                "tempo": 120.0
            },
            {
                "start_time": 124.19772727272726,
                "end_time": 124.38181818181818,
                "pitch": 50,
                "velocity": 51,
                "duration": 0.1840909090909122,
                "tempo": 120.0
            },
            {
                "start_time": 124.39772727272727,
                "end_time": 124.58636363636363,
                "pitch": 38,
                "velocity": 51,
                "duration": 0.1886363636363626,
                "tempo": 120.0
            },
            {
                "start_time": 124.60454545454544,
                "end_time": 124.79318181818181,
                "pitch": 50,
                "velocity": 51,
                "duration": 0.1886363636363626,
                "tempo": 120.0
            },
            {
                "start_time": 124.8090909090909,
                "end_time": 124.98863636363636,
                "pitch": 38,
                "velocity": 51,
                "duration": 0.17954545454546178,
                "tempo": 120.0
            },
            {
                "start_time": 125.00454545454545,
                "end_time": 125.18636363636362,
                "pitch": 50,
                "velocity": 51,
                "duration": 0.18181818181817277,
                "tempo": 120.0
            }
        ],
        "Lead 2 (sawtooth)": [
            {
                "start_time": 48.13863636363636,
                "end_time": 54.54772727272727,
                "pitch": 64,
                "velocity": 64,
                "duration": 6.409090909090914,
                "tempo": 120.0
            },
            {
                "start_time": 54.54772727272727,
                "end_time": 60.95681818181818,
                "pitch": 59,
                "velocity": 64,
                "duration": 6.4090909090909065,
                "tempo": 120.0
            },
            {
                "start_time": 60.95681818181818,
                "end_time": 67.375,
                "pitch": 64,
                "velocity": 64,
                "duration": 6.4181818181818215,
                "tempo": 120.0
            }
        ],
        "Violin": [
            {
                "start_time": 0.0,
                "end_time": 1.584090909090909,
                "pitch": 71,
                "velocity": 80,
                "duration": 1.584090909090909,
                "tempo": 120.0
            },
            {
                "start_time": 1.5999999999999999,
                "end_time": 2.186363636363636,
                "pitch": 71,
                "velocity": 80,
                "duration": 0.5863636363636362,
                "tempo": 120.0
            },
            {
                "start_time": 2.202272727272727,
                "end_time": 2.786363636363636,
                "pitch": 67,
                "velocity": 80,
                "duration": 0.584090909090909,
                "tempo": 120.0
            },
            {
                "start_time": 2.8022727272727272,
                "end_time": 3.186363636363636,
                "pitch": 71,
                "velocity": 80,
                "duration": 0.3840909090909088,
                "tempo": 120.0
            },
            {
                "start_time": 3.202272727272727,
                "end_time": 4.790909090909091,
                "pitch": 69,
                "velocity": 80,
                "duration": 1.5886363636363638,
                "tempo": 120.0
            },
            {
                "start_time": 4.809090909090909,
                "end_time": 5.393181818181818,
                "pitch": 69,
                "velocity": 80,
                "duration": 0.584090909090909,
                "tempo": 120.0
            },
            {
                "start_time": 5.409090909090909,
                "end_time": 5.993181818181818,
                "pitch": 66,
                "velocity": 80,
                "duration": 0.584090909090909,
                "tempo": 120.0
            },
            {
                "start_time": 6.011363636363636,
                "end_time": 6.3977272727272725,
                "pitch": 69,
                "velocity": 80,
                "duration": 0.3863636363636367,
                "tempo": 120.0
            },
            {
                "start_time": 6.413636363636363,
                "end_time": 8.002272727272727,
                "pitch": 71,
                "velocity": 80,
                "duration": 1.5886363636363638,
                "tempo": 120.0
            },
            {
                "start_time": 8.018181818181818,
                "end_time": 8.60681818181818,
                "pitch": 71,
                "velocity": 80,
                "duration": 0.588636363636363,
                "tempo": 120.0
            },
            {
                "start_time": 8.622727272727273,
                "end_time": 9.211363636363636,
                "pitch": 67,
                "velocity": 80,
                "duration": 0.588636363636363,
                "tempo": 120.0
            },
            {
                "start_time": 9.227272727272727,
                "end_time": 9.611363636363636,
                "pitch": 71,
                "velocity": 80,
                "duration": 0.3840909090909097,
                "tempo": 120.0
            },
            {
                "start_time": 9.627272727272727,
                "end_time": 11.220454545454546,
                "pitch": 69,
                "velocity": 80,
                "duration": 1.5931818181818187,
                "tempo": 120.0
            },
            {
                "start_time": 11.238636363636363,
                "end_time": 11.822727272727272,
                "pitch": 69,
                "velocity": 80,
                "duration": 0.584090909090909,
                "tempo": 120.0
            },
            {
                "start_time": 11.838636363636363,
                "end_time": 12.427272727272726,
                "pitch": 66,
                "velocity": 80,
                "duration": 0.588636363636363,
                "tempo": 120.0
            },
            {
                "start_time": 12.443181818181818,
                "end_time": 12.829545454545453,
                "pitch": 69,
                "velocity": 80,
                "duration": 0.3863636363636349,
                "tempo": 120.0
            },
            {
                "start_time": 12.845454545454546,
                "end_time": 13.23181818181818,
                "pitch": 71,
                "velocity": 80,
                "duration": 0.3863636363636349,
                "tempo": 120.0
            },
            {
                "start_time": 13.445454545454545,
                "end_time": 13.829545454545453,
                "pitch": 71,
                "velocity": 80,
                "duration": 0.38409090909090793,
                "tempo": 120.0
            },
            {
                "start_time": 14.052272727272726,
                "end_time": 14.436363636363636,
                "pitch": 71,
                "velocity": 80,
                "duration": 0.3840909090909097,
                "tempo": 120.0
            },
            {
                "start_time": 14.654545454545454,
                "end_time": 14.772727272727272,
                "pitch": 69,
                "velocity": 80,
                "duration": 0.11818181818181728,
                "tempo": 120.0
            },
            {
                "start_time": 15.059090909090909,
                "end_time": 15.174999999999999,
                "pitch": 69,
                "velocity": 80,
                "duration": 0.1159090909090903,
                "tempo": 120.0
            },
            {
                "start_time": 15.259090909090908,
                "end_time": 15.643181818181818,
                "pitch": 71,
                "velocity": 80,
                "duration": 0.3840909090909097,
                "tempo": 120.0
            },
            {
                "start_time": 16.259090909090908,
                "end_time": 16.438636363636363,
                "pitch": 64,
                "velocity": 80,
                "duration": 0.17954545454545467,
                "tempo": 120.0
            },
            {
                "start_time": 16.659090909090907,
                "end_time": 16.847727272727273,
                "pitch": 64,
                "velocity": 80,
                "duration": 0.18863636363636616,
                "tempo": 120.0
            },
            {
                "start_time": 17.06590909090909,
                "end_time": 17.25,
                "pitch": 64,
                "velocity": 80,
                "duration": 0.18409090909090864,
                "tempo": 120.0
            },
            {
                "start_time": 17.46818181818182,
                "end_time": 17.65,
                "pitch": 64,
                "velocity": 80,
                "duration": 0.18181818181817988,
                "tempo": 120.0
            },
            {
                "start_time": 17.668181818181818,
                "end_time": 17.852272727272727,
                "pitch": 83,
                "velocity": 80,
                "duration": 0.18409090909090864,
                "tempo": 120.0
            },
            {
                "start_time": 17.868181818181817,
                "end_time": 18.054545454545455,
                "pitch": 76,
                "velocity": 80,
                "duration": 0.1863636363636374,
                "tempo": 120.0
            },
            {
                "start_time": 18.070454545454545,
                "end_time": 18.254545454545454,
                "pitch": 83,
                "velocity": 80,
                "duration": 0.18409090909090864,
                "tempo": 120.0
            },
            {
                "start_time": 18.270454545454545,
                "end_time": 18.454545454545453,
                "pitch": 88,
                "velocity": 80,
                "duration": 0.18409090909090864,
                "tempo": 120.0
            },
            {
                "start_time": 19.472727272727273,
                "end_time": 19.65681818181818,
                "pitch": 64,
                "velocity": 80,
                "duration": 0.18409090909090864,
                "tempo": 120.0
            },
            {
                "start_time": 19.875,
                "end_time": 20.05909090909091,
                "pitch": 64,
                "velocity": 80,
                "duration": 0.18409090909090864,
                "tempo": 120.0
            },
            {
                "start_time": 20.275,
                "end_time": 20.459090909090907,
                "pitch": 64,
                "velocity": 80,
                "duration": 0.18409090909090864,
                "tempo": 120.0
            },
            {
                "start_time": 20.675,
                "end_time": 20.85909090909091,
                "pitch": 64,
                "velocity": 80,
                "duration": 0.18409090909090864,
                "tempo": 120.0
            },
            {
                "start_time": 20.875,
                "end_time": 21.061363636363634,
                "pitch": 83,
                "velocity": 80,
                "duration": 0.18636363636363384,
                "tempo": 120.0
            },
            {
                "start_time": 21.077272727272724,
                "end_time": 21.261363636363637,
                "pitch": 76,
                "velocity": 80,
                "duration": 0.1840909090909122,
                "tempo": 120.0
            },
            {
                "start_time": 21.279545454545453,
                "end_time": 21.461363636363636,
                "pitch": 83,
                "velocity": 80,
                "duration": 0.18181818181818343,
                "tempo": 120.0
            },
            {
                "start_time": 21.479545454545452,
                "end_time": 21.661363636363635,
                "pitch": 88,
                "velocity": 80,
                "duration": 0.18181818181818343,
                "tempo": 120.0
            },
            {
                "start_time": 22.68181818181818,
                "end_time": 22.863636363636363,
                "pitch": 66,
                "velocity": 80,
                "duration": 0.18181818181818343,
                "tempo": 120.0
            },
            {
                "start_time": 23.081818181818182,
                "end_time": 23.26590909090909,
                "pitch": 66,
                "velocity": 80,
                "duration": 0.18409090909090864,
                "tempo": 120.0
            },
            {
                "start_time": 23.48409090909091,
                "end_time": 23.668181818181818,
                "pitch": 66,
                "velocity": 80,
                "duration": 0.18409090909090864,
                "tempo": 120.0
            },
            {
                "start_time": 23.884090909090908,
                "end_time": 24.070454545454545,
                "pitch": 66,
                "velocity": 80,
                "duration": 0.1863636363636374,
                "tempo": 120.0
            },
            {
                "start_time": 24.086363636363636,
                "end_time": 24.270454545454545,
                "pitch": 81,
                "velocity": 80,
                "duration": 0.18409090909090864,
                "tempo": 120.0
            },
            {
                "start_time": 24.286363636363635,
                "end_time": 24.470454545454544,
                "pitch": 74,
                "velocity": 80,
                "duration": 0.18409090909090864,
                "tempo": 120.0
            },
            {
                "start_time": 24.486363636363635,
                "end_time": 24.670454545454543,
                "pitch": 81,
                "velocity": 80,
                "duration": 0.18409090909090864,
                "tempo": 120.0
            },
            {
                "start_time": 24.686363636363634,
                "end_time": 24.870454545454542,
                "pitch": 86,
                "velocity": 80,
                "duration": 0.18409090909090864,
                "tempo": 120.0
            },
            {
                "start_time": 25.89090909090909,
                "end_time": 26.075,
                "pitch": 66,
                "velocity": 80,
                "duration": 0.18409090909090864,
                "tempo": 120.0
            },
            {
                "start_time": 26.29090909090909,
                "end_time": 26.474999999999998,
                "pitch": 66,
                "velocity": 80,
                "duration": 0.18409090909090864,
                "tempo": 120.0
            },
            {
                "start_time": 26.69090909090909,
                "end_time": 26.875,
                "pitch": 66,
                "velocity": 80,
                "duration": 0.18409090909090864,
                "tempo": 120.0
            },
            {
                "start_time": 27.093181818181815,
                "end_time": 27.277272727272727,
                "pitch": 66,
                "velocity": 80,
                "duration": 0.1840909090909122,
                "tempo": 120.0
            },
            {
                "start_time": 27.295454545454543,
                "end_time": 27.477272727272727,
                "pitch": 81,
                "velocity": 80,
                "duration": 0.18181818181818343,
                "tempo": 120.0
            },
            {
                "start_time": 27.495454545454542,
                "end_time": 27.677272727272726,
                "pitch": 74,
                "velocity": 80,
                "duration": 0.18181818181818343,
                "tempo": 120.0
            },
            {
                "start_time": 27.695454545454545,
                "end_time": 27.879545454545454,
                "pitch": 81,
                "velocity": 80,
                "duration": 0.18409090909090864,
                "tempo": 120.0
            },
            {
                "start_time": 27.895454545454545,
                "end_time": 28.079545454545453,
                "pitch": 86,
                "velocity": 80,
                "duration": 0.18409090909090864,
                "tempo": 120.0
            },
            {
                "start_time": 29.102272727272727,
                "end_time": 29.286363636363635,
                "pitch": 64,
                "velocity": 80,
                "duration": 0.18409090909090864,
                "tempo": 120.0
            },
            {
                "start_time": 29.502272727272725,
                "end_time": 29.686363636363634,
                "pitch": 64,
                "velocity": 80,
                "duration": 0.18409090909090864,
                "tempo": 120.0
            },
            {
                "start_time": 29.904545454545453,
                "end_time": 30.08863636363636,
                "pitch": 64,
                "velocity": 80,
                "duration": 0.18409090909090864,
                "tempo": 120.0
            },
            {
                "start_time": 30.304545454545455,
                "end_time": 30.488636363636363,
                "pitch": 64,
                "velocity": 80,
                "duration": 0.18409090909090864,
                "tempo": 120.0
            },
            {
                "start_time": 30.504545454545454,
                "end_time": 30.688636363636363,
                "pitch": 83,
                "velocity": 80,
                "duration": 0.18409090909090864,
                "tempo": 120.0
            },
            {
                "start_time": 30.704545454545453,
                "end_time": 30.888636363636362,
                "pitch": 76,
                "velocity": 80,
                "duration": 0.18409090909090864,
                "tempo": 120.0
            },
            {
                "start_time": 30.904545454545453,
                "end_time": 31.09090909090909,
                "pitch": 83,
                "velocity": 80,
                "duration": 0.1863636363636374,
                "tempo": 120.0
            },
            {
                "start_time": 31.10681818181818,
                "end_time": 31.29090909090909,
                "pitch": 88,
                "velocity": 80,
                "duration": 0.18409090909090864,
                "tempo": 120.0
            },
            {
                "start_time": 32.31136363636364,
                "end_time": 32.49318181818182,
                "pitch": 64,
                "velocity": 80,
                "duration": 0.18181818181817988,
                "tempo": 120.0
            },
            {
                "start_time": 32.711363636363636,
                "end_time": 32.893181818181816,
                "pitch": 64,
                "velocity": 80,
                "duration": 0.18181818181817988,
                "tempo": 120.0
            },
            {
                "start_time": 33.111363636363635,
                "end_time": 33.293181818181814,
                "pitch": 64,
                "velocity": 80,
                "duration": 0.18181818181817988,
                "tempo": 120.0
            },
            {
                "start_time": 33.51136363636363,
                "end_time": 33.69772727272727,
                "pitch": 64,
                "velocity": 80,
                "duration": 0.1863636363636374,
                "tempo": 120.0
            },
            {
                "start_time": 33.71363636363636,
                "end_time": 33.89772727272727,
                "pitch": 83,
                "velocity": 80,
                "duration": 0.1840909090909122,
                "tempo": 120.0
            },
            {
                "start_time": 33.913636363636364,
                "end_time": 34.09772727272727,
                "pitch": 76,
                "velocity": 80,
                "duration": 0.18409090909090509,
                "tempo": 120.0
            },
            {
                "start_time": 34.11363636363636,
                "end_time": 34.29772727272727,
                "pitch": 83,
                "velocity": 80,
                "duration": 0.1840909090909122,
                "tempo": 120.0
            },
            {
                "start_time": 34.31363636363636,
                "end_time": 34.49772727272727,
                "pitch": 88,
                "velocity": 80,
                "duration": 0.18409090909090509,
                "tempo": 120.0
            },
            {
                "start_time": 35.51590909090909,
                "end_time": 35.699999999999996,
                "pitch": 66,
                "velocity": 80,
                "duration": 0.18409090909090509,
                "tempo": 120.0
            },
            {
                "start_time": 35.91590909090909,
                "end_time": 36.1,
                "pitch": 66,
                "velocity": 80,
                "duration": 0.1840909090909122,
                "tempo": 120.0
            },
            {
                "start_time": 36.31590909090909,
                "end_time": 36.5,
                "pitch": 66,
                "velocity": 80,
                "duration": 0.1840909090909122,
                "tempo": 120.0
            },
            {
                "start_time": 36.715909090909086,
                "end_time": 36.9,
                "pitch": 66,
                "velocity": 80,
                "duration": 0.1840909090909122,
                "tempo": 120.0
            },
            {
                "start_time": 36.91590909090909,
                "end_time": 37.1,
                "pitch": 81,
                "velocity": 80,
                "duration": 0.1840909090909122,
                "tempo": 120.0
            },
            {
                "start_time": 37.11590909090909,
                "end_time": 37.3,
                "pitch": 74,
                "velocity": 80,
                "duration": 0.18409090909090509,
                "tempo": 120.0
            },
            {
                "start_time": 37.31590909090909,
                "end_time": 37.5,
                "pitch": 81,
                "velocity": 80,
                "duration": 0.1840909090909122,
                "tempo": 120.0
            },
            {
                "start_time": 37.518181818181816,
                "end_time": 37.70227272727273,
                "pitch": 86,
                "velocity": 80,
                "duration": 0.1840909090909122,
                "tempo": 120.0
            },
            {
                "start_time": 38.71818181818182,
                "end_time": 38.902272727272724,
                "pitch": 66,
                "velocity": 80,
                "duration": 0.18409090909090509,
                "tempo": 120.0
            },
            {
                "start_time": 39.11818181818182,
                "end_time": 39.30227272727272,
                "pitch": 66,
                "velocity": 80,
                "duration": 0.18409090909090509,
                "tempo": 120.0
            },
            {
                "start_time": 39.52045454545454,
                "end_time": 39.70454545454545,
                "pitch": 66,
                "velocity": 80,
                "duration": 0.1840909090909122,
                "tempo": 120.0
            },
            {
                "start_time": 39.92045454545455,
                "end_time": 40.10454545454545,
                "pitch": 66,
                "velocity": 80,
                "duration": 0.18409090909090509,
                "tempo": 120.0
            },
            {
                "start_time": 40.12045454545454,
                "end_time": 40.304545454545455,
                "pitch": 81,
                "velocity": 80,
                "duration": 0.1840909090909122,
                "tempo": 120.0
            },
            {
                "start_time": 40.320454545454545,
                "end_time": 40.50454545454545,
                "pitch": 74,
                "velocity": 80,
                "duration": 0.18409090909090509,
                "tempo": 120.0
            },
            {
                "start_time": 40.52045454545454,
                "end_time": 40.70454545454545,
                "pitch": 81,
                "velocity": 80,
                "duration": 0.1840909090909122,
                "tempo": 120.0
            },
            {
                "start_time": 40.720454545454544,
                "end_time": 40.904545454545456,
                "pitch": 86,
                "velocity": 80,
                "duration": 0.1840909090909122,
                "tempo": 120.0
            },
            {
                "start_time": 41.725,
                "end_time": 42.10681818181818,
                "pitch": 76,
                "velocity": 80,
                "duration": 0.3818181818181756,
                "tempo": 120.0
            },
            {
                "start_time": 42.320454545454545,
                "end_time": 42.70454545454545,
                "pitch": 76,
                "velocity": 80,
                "duration": 0.38409090909090793,
                "tempo": 120.0
            },
            {
                "start_time": 42.92727272727272,
                "end_time": 43.31136363636364,
                "pitch": 76,
                "velocity": 80,
                "duration": 0.38409090909091503,
                "tempo": 120.0
            },
            {
                "start_time": 43.52954545454545,
                "end_time": 43.64545454545454,
                "pitch": 78,
                "velocity": 80,
                "duration": 0.11590909090909207,
                "tempo": 120.0
            },
            {
                "start_time": 43.929545454545455,
                "end_time": 44.04772727272727,
                "pitch": 78,
                "velocity": 80,
                "duration": 0.11818181818181728,
                "tempo": 120.0
            },
            {
                "start_time": 44.12954545454545,
                "end_time": 44.24772727272727,
                "pitch": 78,
                "velocity": 80,
                "duration": 0.11818181818181728,
                "tempo": 120.0
            },
            {
                "start_time": 44.32954545454545,
                "end_time": 44.44772727272727,
                "pitch": 78,
                "velocity": 80,
                "duration": 0.11818181818181728,
                "tempo": 120.0
            },
            {
                "start_time": 44.52954545454545,
                "end_time": 44.913636363636364,
                "pitch": 78,
                "velocity": 80,
                "duration": 0.38409090909091503,
                "tempo": 120.0
            },
            {
                "start_time": 44.929545454545455,
                "end_time": 45.31363636363636,
                "pitch": 79,
                "velocity": 80,
                "duration": 0.38409090909090793,
                "tempo": 120.0
            },
            {
                "start_time": 45.525,
                "end_time": 45.90681818181818,
                "pitch": 79,
                "velocity": 80,
                "duration": 0.3818181818181827,
                "tempo": 120.0
            },
            {
                "start_time": 46.125,
                "end_time": 46.518181818181816,
                "pitch": 81,
                "velocity": 80,
                "duration": 0.39318181818181586,
                "tempo": 120.0
            },
            {
                "start_time": 46.53636363636363,
                "end_time": 48.12272727272727,
                "pitch": 83,
                "velocity": 80,
                "duration": 1.586363636363636,
                "tempo": 120.0
            },
            {
                "start_time": 80.42045454545455,
                "end_time": 80.6,
                "pitch": 66,
                "velocity": 80,
                "duration": 0.17954545454544757,
                "tempo": 120.0
            },
            {
                "start_time": 80.82272727272726,
                "end_time": 81.01136363636363,
                "pitch": 66,
                "velocity": 80,
                "duration": 0.1886363636363626,
                "tempo": 120.0
            },
            {
                "start_time": 81.22727272727272,
                "end_time": 81.41136363636363,
                "pitch": 66,
                "velocity": 80,
                "duration": 0.1840909090909122,
                "tempo": 120.0
            },
            {
                "start_time": 81.62954545454545,
                "end_time": 81.81363636363636,
                "pitch": 66,
                "velocity": 80,
                "duration": 0.1840909090909122,
                "tempo": 120.0
            },
            {
                "start_time": 81.83181818181818,
                "end_time": 82.01363636363637,
                "pitch": 78,
                "velocity": 80,
                "duration": 0.18181818181818699,
                "tempo": 120.0
            },
            {
                "start_time": 82.03181818181818,
                "end_time": 82.21363636363635,
                "pitch": 71,
                "velocity": 80,
                "duration": 0.18181818181817277,
                "tempo": 120.0
            },
            {
                "start_time": 82.23181818181818,
                "end_time": 82.41590909090908,
                "pitch": 78,
                "velocity": 80,
                "duration": 0.18409090909089798,
                "tempo": 120.0
            },
            {
                "start_time": 82.43181818181817,
                "end_time": 82.61590909090908,
                "pitch": 83,
                "velocity": 80,
                "duration": 0.1840909090909122,
                "tempo": 120.0
            },
            {
                "start_time": 83.63863636363637,
                "end_time": 83.82272727272726,
                "pitch": 66,
                "velocity": 80,
                "duration": 0.18409090909089798,
                "tempo": 120.0
            },
            {
                "start_time": 84.03863636363636,
                "end_time": 84.22272727272727,
                "pitch": 66,
                "velocity": 80,
                "duration": 0.1840909090909122,
                "tempo": 120.0
            },
            {
                "start_time": 84.44090909090909,
                "end_time": 84.625,
                "pitch": 66,
                "velocity": 80,
                "duration": 0.1840909090909122,
                "tempo": 120.0
            },
            {
                "start_time": 84.84318181818182,
                "end_time": 85.02727272727272,
                "pitch": 66,
                "velocity": 80,
                "duration": 0.18409090909089798,
                "tempo": 120.0
            },
            {
                "start_time": 85.04545454545455,
                "end_time": 85.22727272727272,
                "pitch": 78,
                "velocity": 80,
                "duration": 0.18181818181817277,
                "tempo": 120.0
            },
            {
                "start_time": 85.24545454545454,
                "end_time": 85.42727272727272,
                "pitch": 71,
                "velocity": 80,
                "duration": 0.18181818181818699,
                "tempo": 120.0
            },
            {
                "start_time": 85.44318181818181,
                "end_time": 85.625,
                "pitch": 78,
                "velocity": 80,
                "duration": 0.18181818181818699,
                "tempo": 120.0
            },
            {
                "start_time": 85.64090909090909,
                "end_time": 85.82045454545454,
                "pitch": 83,
                "velocity": 80,
                "duration": 0.17954545454544757,
                "tempo": 120.0
            },
            {
                "start_time": 86.85227272727272,
                "end_time": 87.03636363636363,
                "pitch": 67,
                "velocity": 80,
                "duration": 0.1840909090909122,
                "tempo": 120.0
            },
            {
                "start_time": 87.25227272727273,
                "end_time": 87.43636363636364,
                "pitch": 67,
                "velocity": 80,
                "duration": 0.1840909090909122,
                "tempo": 120.0
            },
            {
                "start_time": 87.65454545454546,
                "end_time": 87.83863636363635,
                "pitch": 67,
                "velocity": 80,
                "duration": 0.18409090909089798,
                "tempo": 120.0
            },
            {
                "start_time": 88.05681818181817,
                "end_time": 88.23863636363636,
                "pitch": 67,
                "velocity": 80,
                "duration": 0.18181818181818699,
                "tempo": 120.0
            },
            {
                "start_time": 88.25681818181818,
                "end_time": 88.44090909090909,
                "pitch": 79,
                "velocity": 80,
                "duration": 0.1840909090909122,
                "tempo": 120.0
            },
            {
                "start_time": 88.45681818181818,
                "end_time": 88.64090909090909,
                "pitch": 72,
                "velocity": 80,
                "duration": 0.1840909090909122,
                "tempo": 120.0
            },
            {
                "start_time": 88.6590909090909,
                "end_time": 88.84318181818182,
                "pitch": 79,
                "velocity": 80,
                "duration": 0.1840909090909122,
                "tempo": 120.0
            },
            {
                "start_time": 88.85909090909091,
                "end_time": 89.04545454545455,
                "pitch": 84,
                "velocity": 80,
                "duration": 0.1863636363636374,
                "tempo": 120.0
            },
            {
                "start_time": 90.06363636363636,
                "end_time": 90.24772727272727,
                "pitch": 67,
                "velocity": 80,
                "duration": 0.1840909090909122,
                "tempo": 120.0
            },
            {
                "start_time": 90.4659090909091,
                "end_time": 90.64999999999999,
                "pitch": 67,
                "velocity": 80,
                "duration": 0.18409090909089798,
                "tempo": 120.0
            },
            {
                "start_time": 90.86818181818181,
                "end_time": 91.05227272727272,
                "pitch": 67,
                "velocity": 80,
                "duration": 0.1840909090909122,
                "tempo": 120.0
            },
            {
                "start_time": 91.26818181818182,
                "end_time": 91.45227272727273,
                "pitch": 67,
                "velocity": 80,
                "duration": 0.1840909090909122,
                "tempo": 120.0
            },
            {
                "start_time": 91.46818181818182,
                "end_time": 91.65454545454546,
                "pitch": 79,
                "velocity": 80,
                "duration": 0.1863636363636374,
                "tempo": 120.0
            },
            {
                "start_time": 91.67045454545455,
                "end_time": 91.85454545454544,
                "pitch": 72,
                "velocity": 80,
                "duration": 0.18409090909089798,
                "tempo": 120.0
            },
            {
                "start_time": 91.87045454545454,
                "end_time": 92.05227272727272,
                "pitch": 79,
                "velocity": 80,
                "duration": 0.18181818181818699,
                "tempo": 120.0
            },
            {
                "start_time": 92.06818181818181,
                "end_time": 92.24772727272727,
                "pitch": 84,
                "velocity": 80,
                "duration": 0.17954545454546178,
                "tempo": 120.0
            },
            {
                "start_time": 93.27499999999999,
                "end_time": 93.4590909090909,
                "pitch": 80,
                "velocity": 80,
                "duration": 0.1840909090909122,
                "tempo": 120.0
            },
            {
                "start_time": 93.475,
                "end_time": 93.6590909090909,
                "pitch": 73,
                "velocity": 80,
                "duration": 0.1840909090909122,
                "tempo": 120.0
            },
            {
                "start_time": 93.67727272727272,
                "end_time": 93.86136363636363,
                "pitch": 80,
                "velocity": 80,
                "duration": 0.1840909090909122,
                "tempo": 120.0
            },
            {
                "start_time": 93.87727272727273,
                "end_time": 94.06136363636364,
                "pitch": 85,
                "velocity": 80,
                "duration": 0.1840909090909122,
                "tempo": 120.0
            },
            {
                "start_time": 94.07727272727273,
                "end_time": 94.26136363636363,
                "pitch": 80,
                "velocity": 80,
                "duration": 0.18409090909089798,
                "tempo": 120.0
            },
            {
                "start_time": 94.27727272727272,
                "end_time": 94.46136363636363,
                "pitch": 73,
                "velocity": 80,
                "duration": 0.1840909090909122,
                "tempo": 120.0
            },
            {
                "start_time": 94.47954545454544,
                "end_time": 94.66363636363636,
                "pitch": 80,
                "velocity": 80,
                "duration": 0.1840909090909122,
                "tempo": 120.0
            },
            {
                "start_time": 94.88181818181818,
                "end_time": 95.06590909090909,
                "pitch": 81,
                "velocity": 80,
                "duration": 0.1840909090909122,
                "tempo": 120.0
            },
            {
                "start_time": 95.08181818181818,
                "end_time": 95.26590909090909,
                "pitch": 74,
                "velocity": 80,
                "duration": 0.1840909090909122,
                "tempo": 120.0
            },
            {
                "start_time": 95.28181818181818,
                "end_time": 95.46590909090908,
                "pitch": 81,
                "velocity": 80,
                "duration": 0.18409090909089798,
                "tempo": 120.0
            },
            {
                "start_time": 95.48181818181818,
                "end_time": 95.66818181818181,
                "pitch": 86,
                "velocity": 80,
                "duration": 0.1863636363636232,
                "tempo": 120.0
            },
            {
                "start_time": 95.6840909090909,
                "end_time": 95.86818181818181,
                "pitch": 81,
                "velocity": 80,
                "duration": 0.1840909090909122,
                "tempo": 120.0
            },
            {
                "start_time": 95.88636363636363,
                "end_time": 96.06818181818181,
                "pitch": 74,
                "velocity": 80,
                "duration": 0.18181818181818699,
                "tempo": 120.0
            },
            {
                "start_time": 96.08636363636363,
                "end_time": 96.26818181818182,
                "pitch": 81,
                "velocity": 80,
                "duration": 0.18181818181818699,
                "tempo": 120.0
            },
            {
                "start_time": 96.28636363636363,
                "end_time": 96.87272727272727,
                "pitch": 69,
                "velocity": 80,
                "duration": 0.5863636363636431,
                "tempo": 120.0
            },
            {
                "start_time": 96.88863636363637,
                "end_time": 97.46590909090908,
                "pitch": 69,
                "velocity": 80,
                "duration": 0.5772727272727138,
                "tempo": 120.0
            },
            {
                "start_time": 97.48181818181818,
                "end_time": 97.87727272727273,
                "pitch": 71,
                "velocity": 80,
                "duration": 0.39545454545454106,
                "tempo": 120.0
            }
        ],
        "Church Organ": [
            {
                "start_time": 99.90227272727272,
                "end_time": 101.09090909090908,
                "pitch": 66,
                "velocity": 64,
                "duration": 1.1886363636363626,
                "tempo": 120.0
            },
            {
                "start_time": 101.50681818181818,
                "end_time": 101.89318181818182,
                "pitch": 66,
                "velocity": 64,
                "duration": 0.38636363636364024,
                "tempo": 120.0
            },
            {
                "start_time": 101.9090909090909,
                "end_time": 102.29318181818181,
                "pitch": 67,
                "velocity": 64,
                "duration": 0.3840909090909008,
                "tempo": 120.0
            },
            {
                "start_time": 102.3090909090909,
                "end_time": 102.69545454545454,
                "pitch": 69,
                "velocity": 64,
                "duration": 0.38636363636364024,
                "tempo": 120.0
            },
            {
                "start_time": 102.71363636363635,
                "end_time": 104.30227272727272,
                "pitch": 66,
                "velocity": 64,
                "duration": 1.5886363636363683,
                "tempo": 120.0
            },
            {
                "start_time": 104.72045454545454,
                "end_time": 105.10681818181817,
                "pitch": 66,
                "velocity": 64,
                "duration": 0.38636363636362603,
                "tempo": 120.0
            },
            {
                "start_time": 105.12272727272726,
                "end_time": 105.50681818181818,
                "pitch": 67,
                "velocity": 64,
                "duration": 0.38409090909091503,
                "tempo": 120.0
            },
            {
                "start_time": 105.52272727272727,
                "end_time": 105.9090909090909,
                "pitch": 69,
                "velocity": 64,
                "duration": 0.38636363636364024,
                "tempo": 120.0
            },
            {
                "start_time": 105.925,
                "end_time": 106.51136363636363,
                "pitch": 74,
                "velocity": 64,
                "duration": 0.5863636363636289,
                "tempo": 120.0
            },
            {
                "start_time": 106.52727272727272,
                "end_time": 107.11363636363636,
                "pitch": 73,
                "velocity": 64,
                "duration": 0.5863636363636431,
                "tempo": 120.0
            },
            {
                "start_time": 107.13181818181818,
                "end_time": 107.51590909090909,
                "pitch": 74,
                "velocity": 64,
                "duration": 0.38409090909091503,
                "tempo": 120.0
            },
            {
                "start_time": 107.53181818181818,
                "end_time": 108.11818181818181,
                "pitch": 76,
                "velocity": 64,
                "duration": 0.5863636363636289,
                "tempo": 120.0
            },
            {
                "start_time": 108.1340909090909,
                "end_time": 108.72045454545454,
                "pitch": 74,
                "velocity": 64,
                "duration": 0.5863636363636431,
                "tempo": 120.0
            },
            {
                "start_time": 108.73636363636363,
                "end_time": 109.12272727272726,
                "pitch": 76,
                "velocity": 64,
                "duration": 0.38636363636362603,
                "tempo": 120.0
            },
            {
                "start_time": 109.13863636363635,
                "end_time": 109.725,
                "pitch": 78,
                "velocity": 64,
                "duration": 0.5863636363636431,
                "tempo": 120.0
            },
            {
                "start_time": 109.74090909090908,
                "end_time": 110.32499999999999,
                "pitch": 76,
                "velocity": 64,
                "duration": 0.5840909090909037,
                "tempo": 120.0
            },
            {
                "start_time": 110.34318181818182,
                "end_time": 110.72727272727272,
                "pitch": 78,
                "velocity": 64,
                "duration": 0.3840909090909008,
                "tempo": 120.0
            },
            {
                "start_time": 110.74545454545454,
                "end_time": 111.33181818181818,
                "pitch": 81,
                "velocity": 64,
                "duration": 0.5863636363636431,
                "tempo": 120.0
            },
            {
                "start_time": 111.34772727272727,
                "end_time": 111.92272727272727,
                "pitch": 79,
                "velocity": 64,
                "duration": 0.5750000000000028,
                "tempo": 120.0
            },
            {
                "start_time": 111.93863636363636,
                "end_time": 112.3340909090909,
                "pitch": 78,
                "velocity": 64,
                "duration": 0.39545454545454106,
                "tempo": 120.0
            },
            {
                "start_time": 112.35,
                "end_time": 113.13863636363635,
                "pitch": 76,
                "velocity": 64,
                "duration": 0.7886363636363569,
                "tempo": 120.0
            },
            {
                "start_time": 113.15681818181818,
                "end_time": 113.94090909090909,
                "pitch": 75,
                "velocity": 64,
                "duration": 0.7840909090909065,
                "tempo": 120.0
            },
            {
                "start_time": 114.1590909090909,
                "end_time": 114.34090909090908,
                "pitch": 76,
                "velocity": 64,
                "duration": 0.18181818181817277,
                "tempo": 120.0
            },
            {
                "start_time": 114.35909090909091,
                "end_time": 114.54318181818181,
                "pitch": 78,
                "velocity": 64,
                "duration": 0.18409090909089798,
                "tempo": 120.0
            },
            {
                "start_time": 114.5590909090909,
                "end_time": 114.74545454545454,
                "pitch": 79,
                "velocity": 64,
                "duration": 0.1863636363636374,
                "tempo": 120.0
            },
            {
                "start_time": 114.76136363636363,
                "end_time": 114.94545454545454,
                "pitch": 81,
                "velocity": 64,
                "duration": 0.1840909090909122,
                "tempo": 120.0
            },
            {
                "start_time": 114.96363636363635,
                "end_time": 115.14772727272727,
                "pitch": 79,
                "velocity": 64,
                "duration": 0.1840909090909122,
                "tempo": 120.0
            },
            {
                "start_time": 115.16363636363636,
                "end_time": 115.34772727272727,
                "pitch": 78,
                "velocity": 64,
                "duration": 0.1840909090909122,
                "tempo": 120.0
            },
            {
                "start_time": 115.36363636363636,
                "end_time": 115.54772727272727,
                "pitch": 79,
                "velocity": 64,
                "duration": 0.1840909090909122,
                "tempo": 120.0
            },
            {
                "start_time": 115.56363636363636,
                "end_time": 117.15454545454544,
                "pitch": 76,
                "velocity": 64,
                "duration": 1.5909090909090793,
                "tempo": 120.0
            },
            {
                "start_time": 117.17272727272727,
                "end_time": 117.55454545454545,
                "pitch": 79,
                "velocity": 64,
                "duration": 0.3818181818181756,
                "tempo": 120.0
            },
            {
                "start_time": 117.57272727272726,
                "end_time": 117.95681818181818,
                "pitch": 78,
                "velocity": 64,
                "duration": 0.38409090909091503,
                "tempo": 120.0
            },
            {
                "start_time": 117.975,
                "end_time": 118.35909090909091,
                "pitch": 76,
                "velocity": 64,
                "duration": 0.38409090909091503,
                "tempo": 120.0
            },
            {
                "start_time": 118.375,
                "end_time": 118.76136363636363,
                "pitch": 78,
                "velocity": 64,
                "duration": 0.38636363636362603,
                "tempo": 120.0
            },
            {
                "start_time": 118.77727272727272,
                "end_time": 120.36590909090908,
                "pitch": 59,
                "velocity": 64,
                "duration": 1.5886363636363683,
                "tempo": 120.0
            },
            {
                "start_time": 120.38181818181818,
                "end_time": 121.975,
                "pitch": 57,
                "velocity": 64,
                "duration": 1.5931818181818187,
                "tempo": 120.0
            },
            {
                "start_time": 121.99090909090908,
                "end_time": 123.57954545454545,
                "pitch": 55,
                "velocity": 64,
                "duration": 1.5886363636363683,
                "tempo": 120.0
            },
            {
                "start_time": 123.59545454545454,
                "end_time": 125.18636363636362,
                "pitch": 57,
                "velocity": 64,
                "duration": 1.5909090909090793,
                "tempo": 120.0
            }
        ]
    }
}