{
    "track_id": "Out Run (FM) - 01 - Magical Sound Shower",
    "mood": "happy",
    "instruments": {
        "Oboe": [
            {
                "start_time": 0.0,
                "end_time": 4.211363636363636,
                "pitch": 0,
                "velocity": 80,
                "duration": 4.211363636363636,
                "tempo": 120.0
            },
            {
                "start_time": 4.245454545454545,
                "end_time": 6.384090909090909,
                "pitch": 0,
                "velocity": 80,
                "duration": 2.1386363636363637,
                "tempo": 120.0
            },
            {
                "start_time": 6.418181818181818,
                "end_time": 10.34090909090909,
                "pitch": 0,
                "velocity": 80,
                "duration": 3.922727272727272,
                "tempo": 120.0
            },
            {
                "start_time": 10.375,
                "end_time": 12.520454545454545,
                "pitch": 0,
                "velocity": 80,
                "duration": 2.1454545454545446,
                "tempo": 120.0
            },
            {
                "start_time": 12.554545454545455,
                "end_time": 16.777272727272727,
                "pitch": 0,
                "velocity": 80,
                "duration": 4.222727272727273,
                "tempo": 120.0
            },
            {
                "start_time": 16.811363636363634,
                "end_time": 18.943181818181817,
                "pitch": 0,
                "velocity": 80,
                "duration": 2.1318181818181827,
                "tempo": 120.0
            },
            {
                "start_time": 18.974999999999998,
                "end_time": 23.159090909090907,
                "pitch": 0,
                "velocity": 80,
                "duration": 4.184090909090909,
                "tempo": 120.0
            },
            {
                "start_time": 23.193181818181817,
                "end_time": 25.325,
                "pitch": 0,
                "velocity": 80,
                "duration": 2.1318181818181827,
                "tempo": 120.0
            },
            {
                "start_time": 25.35681818181818,
                "end_time": 25.39090909090909,
                "pitch": 62,
                "velocity": 80,
                "duration": 0.03409090909091006,
                "tempo": 120.0
            },
            {
                "start_time": 25.424999999999997,
                "end_time": 25.456818181818182,
                "pitch": 64,
                "velocity": 80,
                "duration": 0.031818181818184854,
                "tempo": 120.0
            },
            {
                "start_time": 25.49090909090909,
                "end_time": 25.525,
                "pitch": 67,
                "velocity": 80,
                "duration": 0.03409090909091006,
                "tempo": 120.0
            },
            {
                "start_time": 25.55681818181818,
                "end_time": 25.59090909090909,
                "pitch": 64,
                "velocity": 80,
                "duration": 0.03409090909091006,
                "tempo": 120.0
            },
            {
                "start_time": 25.625,
                "end_time": 25.65681818181818,
                "pitch": 67,
                "velocity": 80,
                "duration": 0.0318181818181813,
                "tempo": 120.0
            },
            {
                "start_time": 25.69090909090909,
                "end_time": 25.724999999999998,
                "pitch": 69,
                "velocity": 80,
                "duration": 0.03409090909090651,
                "tempo": 120.0
            },
            {
                "start_time": 25.759090909090908,
                "end_time": 25.795454545454543,
                "pitch": 67,
                "velocity": 80,
                "duration": 0.036363636363635266,
                "tempo": 120.0
            },
            {
                "start_time": 25.829545454545453,
                "end_time": 25.86590909090909,
                "pitch": 69,
                "velocity": 80,
                "duration": 0.036363636363635266,
                "tempo": 120.0
            },
            {
                "start_time": 25.9,
                "end_time": 25.936363636363634,
                "pitch": 72,
                "velocity": 80,
                "duration": 0.036363636363635266,
                "tempo": 120.0
            },
            {
                "start_time": 25.970454545454544,
                "end_time": 26.00681818181818,
                "pitch": 69,
                "velocity": 80,
                "duration": 0.036363636363635266,
                "tempo": 120.0
            },
            {
                "start_time": 26.04090909090909,
                "end_time": 26.077272727272724,
                "pitch": 72,
                "velocity": 80,
                "duration": 0.036363636363635266,
                "tempo": 120.0
            },
            {
                "start_time": 26.111363636363635,
                "end_time": 26.145454545454545,
                "pitch": 74,
                "velocity": 80,
                "duration": 0.03409090909091006,
                "tempo": 120.0
            },
            {
                "start_time": 26.177272727272726,
                "end_time": 26.211363636363636,
                "pitch": 72,
                "velocity": 80,
                "duration": 0.03409090909091006,
                "tempo": 120.0
            },
            {
                "start_time": 26.243181818181817,
                "end_time": 26.277272727272727,
                "pitch": 74,
                "velocity": 80,
                "duration": 0.03409090909091006,
                "tempo": 120.0
            },
            {
                "start_time": 26.30909090909091,
                "end_time": 26.34090909090909,
                "pitch": 76,
                "velocity": 80,
                "duration": 0.0318181818181813,
                "tempo": 120.0
            },
            {
                "start_time": 26.375,
                "end_time": 26.40681818181818,
                "pitch": 74,
                "velocity": 80,
                "duration": 0.0318181818181813,
                "tempo": 120.0
            },
            {
                "start_time": 26.438636363636363,
                "end_time": 26.472727272727273,
                "pitch": 76,
                "velocity": 80,
                "duration": 0.03409090909091006,
                "tempo": 120.0
            },
            {
                "start_time": 26.504545454545454,
                "end_time": 26.538636363636364,
                "pitch": 79,
                "velocity": 80,
                "duration": 0.03409090909091006,
                "tempo": 120.0
            },
            {
                "start_time": 26.57272727272727,
                "end_time": 26.64090909090909,
                "pitch": 81,
                "velocity": 80,
                "duration": 0.06818181818182012,
                "tempo": 120.0
            },
            {
                "start_time": 26.674999999999997,
                "end_time": 26.845454545454544,
                "pitch": 0,
                "velocity": 80,
                "duration": 0.17045454545454675,
                "tempo": 120.0
            },
            {
                "start_time": 26.879545454545454,
                "end_time": 29.75,
                "pitch": 86,
                "velocity": 80,
                "duration": 2.870454545454546,
                "tempo": 120.0
            },
            {
                "start_time": 29.78181818181818,
                "end_time": 30.14772727272727,
                "pitch": 0,
                "velocity": 80,
                "duration": 0.3659090909090885,
                "tempo": 120.0
            },
            {
                "start_time": 30.18181818181818,
                "end_time": 34.4,
                "pitch": 0,
                "velocity": 80,
                "duration": 4.218181818181819,
                "tempo": 120.0
            },
            {
                "start_time": 34.43181818181818,
                "end_time": 36.56590909090909,
                "pitch": 0,
                "velocity": 80,
                "duration": 2.134090909090908,
                "tempo": 120.0
            },
            {
                "start_time": 36.6,
                "end_time": 36.86590909090909,
                "pitch": 76,
                "velocity": 80,
                "duration": 0.26590909090909065,
                "tempo": 120.0
            },
            {
                "start_time": 36.9,
                "end_time": 37.16590909090909,
                "pitch": 74,
                "velocity": 80,
                "duration": 0.26590909090909065,
                "tempo": 120.0
            },
            {
                "start_time": 37.199999999999996,
                "end_time": 37.36590909090909,
                "pitch": 79,
                "velocity": 80,
                "duration": 0.16590909090909634,
                "tempo": 120.0
            },
            {
                "start_time": 37.4,
                "end_time": 37.66590909090909,
                "pitch": 76,
                "velocity": 80,
                "duration": 0.26590909090909065,
                "tempo": 120.0
            },
            {
                "start_time": 37.699999999999996,
                "end_time": 37.96818181818182,
                "pitch": 74,
                "velocity": 80,
                "duration": 0.26818181818182296,
                "tempo": 120.0
            },
            {
                "start_time": 38.002272727272725,
                "end_time": 38.168181818181814,
                "pitch": 72,
                "velocity": 80,
                "duration": 0.16590909090908923,
                "tempo": 120.0
            },
            {
                "start_time": 38.20227272727273,
                "end_time": 38.46818181818182,
                "pitch": 74,
                "velocity": 80,
                "duration": 0.26590909090909065,
                "tempo": 120.0
            },
            {
                "start_time": 38.502272727272725,
                "end_time": 38.768181818181816,
                "pitch": 71,
                "velocity": 80,
                "duration": 0.26590909090909065,
                "tempo": 120.0
            },
            {
                "start_time": 38.80227272727272,
                "end_time": 39.36818181818182,
                "pitch": 67,
                "velocity": 80,
                "duration": 0.5659090909090949,
                "tempo": 120.0
            },
            {
                "start_time": 39.402272727272724,
                "end_time": 39.768181818181816,
                "pitch": 0,
                "velocity": 80,
                "duration": 0.36590909090909207,
                "tempo": 120.0
            },
            {
                "start_time": 39.80227272727272,
                "end_time": 40.070454545454545,
                "pitch": 72,
                "velocity": 80,
                "duration": 0.26818181818182296,
                "tempo": 120.0
            },
            {
                "start_time": 40.10454545454545,
                "end_time": 40.37272727272727,
                "pitch": 71,
                "velocity": 80,
                "duration": 0.26818181818181586,
                "tempo": 120.0
            },
            {
                "start_time": 40.404545454545456,
                "end_time": 40.57272727272727,
                "pitch": 74,
                "velocity": 80,
                "duration": 0.16818181818181444,
                "tempo": 120.0
            },
            {
                "start_time": 40.60454545454545,
                "end_time": 40.87272727272727,
                "pitch": 72,
                "velocity": 80,
                "duration": 0.26818181818181586,
                "tempo": 120.0
            },
            {
                "start_time": 40.904545454545456,
                "end_time": 41.17272727272727,
                "pitch": 71,
                "velocity": 80,
                "duration": 0.26818181818181586,
                "tempo": 120.0
            },
            {
                "start_time": 41.20454545454545,
                "end_time": 41.37272727272727,
                "pitch": 64,
                "velocity": 80,
                "duration": 0.16818181818181444,
                "tempo": 120.0
            },
            {
                "start_time": 41.40454545454545,
                "end_time": 41.67272727272727,
                "pitch": 69,
                "velocity": 80,
                "duration": 0.26818181818182296,
                "tempo": 120.0
            },
            {
                "start_time": 41.70454545454545,
                "end_time": 41.77272727272727,
                "pitch": 71,
                "velocity": 80,
                "duration": 0.06818181818182012,
                "tempo": 120.0
            },
            {
                "start_time": 41.804545454545455,
                "end_time": 42.574999999999996,
                "pitch": 69,
                "velocity": 80,
                "duration": 0.7704545454545411,
                "tempo": 120.0
            },
            {
                "start_time": 42.60681818181818,
                "end_time": 42.975,
                "pitch": 0,
                "velocity": 80,
                "duration": 0.3681818181818244,
                "tempo": 120.0
            },
            {
                "start_time": 43.00681818181818,
                "end_time": 43.275,
                "pitch": 76,
                "velocity": 80,
                "duration": 0.26818181818181586,
                "tempo": 120.0
            },
            {
                "start_time": 43.30681818181818,
                "end_time": 43.574999999999996,
                "pitch": 74,
                "velocity": 80,
                "duration": 0.26818181818181586,
                "tempo": 120.0
            },
            {
                "start_time": 43.60681818181818,
                "end_time": 43.775,
                "pitch": 79,
                "velocity": 80,
                "duration": 0.16818181818182154,
                "tempo": 120.0
            },
            {
                "start_time": 43.809090909090905,
                "end_time": 44.07727272727273,
                "pitch": 76,
                "velocity": 80,
                "duration": 0.26818181818182296,
                "tempo": 120.0
            },
            {
                "start_time": 44.10909090909091,
                "end_time": 44.377272727272725,
                "pitch": 74,
                "velocity": 80,
                "duration": 0.26818181818181586,
                "tempo": 120.0
            },
            {
                "start_time": 44.41136363636363,
                "end_time": 44.57727272727273,
                "pitch": 72,
                "velocity": 80,
                "duration": 0.16590909090909634,
                "tempo": 120.0
            },
            {
                "start_time": 44.611363636363635,
                "end_time": 44.877272727272725,
                "pitch": 74,
                "velocity": 80,
                "duration": 0.26590909090909065,
                "tempo": 120.0
            },
            {
                "start_time": 44.91136363636363,
                "end_time": 45.17727272727272,
                "pitch": 71,
                "velocity": 80,
                "duration": 0.26590909090909065,
                "tempo": 120.0
            },
            {
                "start_time": 45.211363636363636,
                "end_time": 45.777272727272724,
                "pitch": 67,
                "velocity": 80,
                "duration": 0.5659090909090878,
                "tempo": 120.0
            },
            {
                "start_time": 45.81136363636364,
                "end_time": 46.179545454545455,
                "pitch": 0,
                "velocity": 80,
                "duration": 0.3681818181818173,
                "tempo": 120.0
            },
            {
                "start_time": 46.21363636363636,
                "end_time": 46.47954545454545,
                "pitch": 72,
                "velocity": 80,
                "duration": 0.26590909090909065,
                "tempo": 120.0
            },
            {
                "start_time": 46.51363636363636,
                "end_time": 46.77954545454545,
                "pitch": 71,
                "velocity": 80,
                "duration": 0.26590909090909065,
                "tempo": 120.0
            },
            {
                "start_time": 46.81363636363636,
                "end_time": 46.97954545454545,
                "pitch": 74,
                "velocity": 80,
                "duration": 0.16590909090908923,
                "tempo": 120.0
            },
            {
                "start_time": 47.01363636363636,
                "end_time": 47.27954545454545,
                "pitch": 72,
                "velocity": 80,
                "duration": 0.26590909090909065,
                "tempo": 120.0
            },
            {
                "start_time": 47.31363636363636,
                "end_time": 47.57954545454545,
                "pitch": 71,
                "velocity": 80,
                "duration": 0.26590909090909065,
                "tempo": 120.0
            },
            {
                "start_time": 47.61363636363636,
                "end_time": 47.679545454545455,
                "pitch": 64,
                "velocity": 80,
                "duration": 0.06590909090909491,
                "tempo": 120.0
            },
            {
                "start_time": 47.71363636363636,
                "end_time": 47.77954545454545,
                "pitch": 67,
                "velocity": 80,
                "duration": 0.06590909090908781,
                "tempo": 120.0
            },
            {
                "start_time": 47.81363636363636,
                "end_time": 48.08181818181818,
                "pitch": 71,
                "velocity": 80,
                "duration": 0.26818181818181586,
                "tempo": 120.0
            },
            {
                "start_time": 48.11590909090909,
                "end_time": 49.08181818181818,
                "pitch": 69,
                "velocity": 80,
                "duration": 0.9659090909090864,
                "tempo": 120.0
            },
            {
                "start_time": 49.11590909090909,
                "end_time": 49.38181818181818,
                "pitch": 67,
                "velocity": 80,
                "duration": 0.26590909090909065,
                "tempo": 120.0
            },
            {
                "start_time": 49.41590909090909,
                "end_time": 49.88409090909091,
                "pitch": 65,
                "velocity": 80,
                "duration": 0.4681818181818187,
                "tempo": 120.0
            },
            {
                "start_time": 49.91590909090909,
                "end_time": 50.084090909090904,
                "pitch": 67,
                "velocity": 80,
                "duration": 0.16818181818181444,
                "tempo": 120.0
            },
            {
                "start_time": 50.11818181818182,
                "end_time": 50.184090909090905,
                "pitch": 69,
                "velocity": 80,
                "duration": 0.06590909090908781,
                "tempo": 120.0
            },
            {
                "start_time": 50.21818181818182,
                "end_time": 50.586363636363636,
                "pitch": 67,
                "velocity": 80,
                "duration": 0.3681818181818173,
                "tempo": 120.0
            },
            {
                "start_time": 50.62045454545454,
                "end_time": 50.79090909090909,
                "pitch": 65,
                "velocity": 80,
                "duration": 0.17045454545454675,
                "tempo": 120.0
            },
            {
                "start_time": 50.824999999999996,
                "end_time": 50.99545454545454,
                "pitch": 64,
                "velocity": 80,
                "duration": 0.17045454545454675,
                "tempo": 120.0
            },
            {
                "start_time": 51.027272727272724,
                "end_time": 51.288636363636364,
                "pitch": 62,
                "velocity": 80,
                "duration": 0.26136363636364024,
                "tempo": 120.0
            },
            {
                "start_time": 51.32272727272727,
                "end_time": 51.38863636363636,
                "pitch": 64,
                "velocity": 80,
                "duration": 0.06590909090908781,
                "tempo": 120.0
            },
            {
                "start_time": 51.42272727272727,
                "end_time": 52.179545454545455,
                "pitch": 60,
                "velocity": 80,
                "duration": 0.7568181818181827,
                "tempo": 120.0
            },
            {
                "start_time": 52.21363636363636,
                "end_time": 52.590909090909086,
                "pitch": 0,
                "velocity": 80,
                "duration": 0.3772727272727252,
                "tempo": 120.0
            },
            {
                "start_time": 52.625,
                "end_time": 53.090909090909086,
                "pitch": 65,
                "velocity": 80,
                "duration": 0.4659090909090864,
                "tempo": 120.0
            },
            {
                "start_time": 53.125,
                "end_time": 53.29090909090909,
                "pitch": 67,
                "velocity": 80,
                "duration": 0.16590909090908923,
                "tempo": 120.0
            },
            {
                "start_time": 53.324999999999996,
                "end_time": 53.39090909090909,
                "pitch": 69,
                "velocity": 80,
                "duration": 0.06590909090909491,
                "tempo": 120.0
            },
            {
                "start_time": 53.425,
                "end_time": 53.79090909090909,
                "pitch": 67,
                "velocity": 80,
                "duration": 0.36590909090909207,
                "tempo": 120.0
            },
            {
                "start_time": 53.824999999999996,
                "end_time": 53.99545454545454,
                "pitch": 64,
                "velocity": 80,
                "duration": 0.17045454545454675,
                "tempo": 120.0
            },
            {
                "start_time": 54.03181818181818,
                "end_time": 54.20227272727273,
                "pitch": 72,
                "velocity": 80,
                "duration": 0.17045454545454675,
                "tempo": 120.0
            },
            {
                "start_time": 54.23409090909091,
                "end_time": 54.49545454545454,
                "pitch": 71,
                "velocity": 80,
                "duration": 0.26136363636363313,
                "tempo": 120.0
            },
            {
                "start_time": 54.527272727272724,
                "end_time": 55.490909090909085,
                "pitch": 69,
                "velocity": 80,
                "duration": 0.9636363636363612,
                "tempo": 120.0
            },
            {
                "start_time": 55.527272727272724,
                "end_time": 55.80681818181818,
                "pitch": 67,
                "velocity": 80,
                "duration": 0.2795454545454561,
                "tempo": 120.0
            },
            {
                "start_time": 55.83863636363636,
                "end_time": 56.3,
                "pitch": 65,
                "velocity": 80,
                "duration": 0.461363636363636,
                "tempo": 120.0
            },
            {
                "start_time": 56.33181818181818,
                "end_time": 56.5,
                "pitch": 67,
                "velocity": 80,
                "duration": 0.16818181818182154,
                "tempo": 120.0
            },
            {
                "start_time": 56.53181818181818,
                "end_time": 56.599999999999994,
                "pitch": 69,
                "velocity": 80,
                "duration": 0.06818181818181301,
                "tempo": 120.0
            },
            {
                "start_time": 56.63409090909091,
                "end_time": 57.01136363636363,
                "pitch": 67,
                "velocity": 80,
                "duration": 0.3772727272727252,
                "tempo": 120.0
            },
            {
                "start_time": 57.043181818181814,
                "end_time": 57.211363636363636,
                "pitch": 65,
                "velocity": 80,
                "duration": 0.16818181818182154,
                "tempo": 120.0
            },
            {
                "start_time": 57.24318181818182,
                "end_time": 57.40909090909091,
                "pitch": 64,
                "velocity": 80,
                "duration": 0.16590909090908923,
                "tempo": 120.0
            },
            {
                "start_time": 57.44318181818181,
                "end_time": 57.70454545454545,
                "pitch": 62,
                "velocity": 80,
                "duration": 0.26136363636364024,
                "tempo": 120.0
            },
            {
                "start_time": 57.736363636363635,
                "end_time": 57.80227272727272,
                "pitch": 64,
                "velocity": 80,
                "duration": 0.06590909090908781,
                "tempo": 120.0
            },
            {
                "start_time": 57.836363636363636,
                "end_time": 58.699999999999996,
                "pitch": 60,
                "velocity": 80,
                "duration": 0.8636363636363598,
                "tempo": 120.0
            },
            {
                "start_time": 58.73409090909091,
                "end_time": 59.00909090909091,
                "pitch": 64,
                "velocity": 80,
                "duration": 0.2749999999999986,
                "tempo": 120.0
            },
            {
                "start_time": 59.04090909090909,
                "end_time": 59.50909090909091,
                "pitch": 65,
                "velocity": 80,
                "duration": 0.4681818181818187,
                "tempo": 120.0
            },
            {
                "start_time": 59.54090909090909,
                "end_time": 59.709090909090904,
                "pitch": 67,
                "velocity": 80,
                "duration": 0.16818181818181444,
                "tempo": 120.0
            },
            {
                "start_time": 59.740909090909085,
                "end_time": 59.809090909090905,
                "pitch": 69,
                "velocity": 80,
                "duration": 0.06818181818182012,
                "tempo": 120.0
            },
            {
                "start_time": 59.84318181818182,
                "end_time": 60.21818181818182,
                "pitch": 67,
                "velocity": 80,
                "duration": 0.375,
                "tempo": 120.0
            },
            {
                "start_time": 60.252272727272725,
                "end_time": 60.413636363636364,
                "pitch": 64,
                "velocity": 80,
                "duration": 0.16136363636363882,
                "tempo": 120.0
            },
            {
                "start_time": 60.44772727272727,
                "end_time": 60.611363636363635,
                "pitch": 72,
                "velocity": 80,
                "duration": 0.16363636363636402,
                "tempo": 120.0
            },
            {
                "start_time": 60.64545454545454,
                "end_time": 60.918181818181814,
                "pitch": 71,
                "velocity": 80,
                "duration": 0.2727272727272734,
                "tempo": 120.0
            },
            {
                "start_time": 60.95454545454545,
                "end_time": 61.81363636363636,
                "pitch": 69,
                "velocity": 80,
                "duration": 0.8590909090909093,
                "tempo": 120.0
            },
            {
                "start_time": 61.84772727272727,
                "end_time": 62.215909090909086,
                "pitch": 0,
                "velocity": 80,
                "duration": 0.3681818181818173,
                "tempo": 120.0
            },
            {
                "start_time": 62.25,
                "end_time": 65.425,
                "pitch": 0,
                "velocity": 80,
                "duration": 3.174999999999997,
                "tempo": 120.0
            },
            {
                "start_time": 65.45681818181818,
                "end_time": 69.67727272727272,
                "pitch": 0,
                "velocity": 80,
                "duration": 4.220454545454544,
                "tempo": 120.0
            },
            {
                "start_time": 69.71136363636363,
                "end_time": 71.85,
                "pitch": 0,
                "velocity": 80,
                "duration": 2.1386363636363654,
                "tempo": 120.0
            },
            {
                "start_time": 71.8840909090909,
                "end_time": 72.15227272727272,
                "pitch": 76,
                "velocity": 80,
                "duration": 0.26818181818181586,
                "tempo": 120.0
            },
            {
                "start_time": 72.18636363636364,
                "end_time": 72.45227272727273,
                "pitch": 74,
                "velocity": 80,
                "duration": 0.26590909090909065,
                "tempo": 120.0
            },
            {
                "start_time": 72.48636363636363,
                "end_time": 72.65227272727272,
                "pitch": 79,
                "velocity": 80,
                "duration": 0.16590909090908212,
                "tempo": 120.0
            },
            {
                "start_time": 72.68636363636364,
                "end_time": 72.95454545454545,
                "pitch": 76,
                "velocity": 80,
                "duration": 0.26818181818181586,
                "tempo": 120.0
            },
            {
                "start_time": 72.98863636363636,
                "end_time": 73.25681818181818,
                "pitch": 74,
                "velocity": 80,
                "duration": 0.26818181818181586,
                "tempo": 120.0
            },
            {
                "start_time": 73.29090909090908,
                "end_time": 73.45681818181818,
                "pitch": 72,
                "velocity": 80,
                "duration": 0.16590909090909634,
                "tempo": 120.0
            },
            {
                "start_time": 73.49090909090908,
                "end_time": 73.75681818181818,
                "pitch": 74,
                "velocity": 80,
                "duration": 0.26590909090909065,
                "tempo": 120.0
            },
            {
                "start_time": 73.79090909090908,
                "end_time": 74.05909090909091,
                "pitch": 71,
                "velocity": 80,
                "duration": 0.26818181818183007,
                "tempo": 120.0
            },
            {
                "start_time": 74.09318181818182,
                "end_time": 74.66136363636363,
                "pitch": 67,
                "velocity": 80,
                "duration": 0.568181818181813,
                "tempo": 120.0
            },
            {
                "start_time": 74.69318181818181,
                "end_time": 75.06363636363636,
                "pitch": 0,
                "velocity": 80,
                "duration": 0.3704545454545496,
                "tempo": 120.0
            },
            {
                "start_time": 75.09772727272727,
                "end_time": 75.36590909090908,
                "pitch": 72,
                "velocity": 80,
                "duration": 0.26818181818181586,
                "tempo": 120.0
            },
            {
                "start_time": 75.39999999999999,
                "end_time": 75.66590909090908,
                "pitch": 71,
                "velocity": 80,
                "duration": 0.26590909090909065,
                "tempo": 120.0
            },
            {
                "start_time": 75.7,
                "end_time": 75.86590909090908,
                "pitch": 74,
                "velocity": 80,
                "duration": 0.16590909090908212,
                "tempo": 120.0
            },
            {
                "start_time": 75.89999999999999,
                "end_time": 76.16818181818182,
                "pitch": 72,
                "velocity": 80,
                "duration": 0.26818181818183007,
                "tempo": 120.0
            },
            {
                "start_time": 76.20227272727273,
                "end_time": 76.46818181818182,
                "pitch": 71,
                "velocity": 80,
                "duration": 0.26590909090909065,
                "tempo": 120.0
            },
            {
                "start_time": 76.50227272727273,
                "end_time": 76.66818181818182,
                "pitch": 64,
                "velocity": 80,
                "duration": 0.16590909090909634,
                "tempo": 120.0
            },
            {
                "start_time": 76.70227272727273,
                "end_time": 76.97045454545454,
                "pitch": 69,
                "velocity": 80,
                "duration": 0.26818181818181586,
                "tempo": 120.0
            },
            {
                "start_time": 77.00454545454545,
                "end_time": 77.07045454545454,
                "pitch": 71,
                "velocity": 80,
                "duration": 0.06590909090908781,
                "tempo": 120.0
            },
            {
                "start_time": 77.10454545454544,
                "end_time": 77.875,
                "pitch": 69,
                "velocity": 80,
                "duration": 0.7704545454545553,
                "tempo": 120.0
            },
            {
                "start_time": 77.90681818181818,
                "end_time": 78.27727272727272,
                "pitch": 0,
                "velocity": 80,
                "duration": 0.3704545454545354,
                "tempo": 120.0
            },
            {
                "start_time": 78.30909090909091,
                "end_time": 78.57727272727273,
                "pitch": 76,
                "velocity": 80,
                "duration": 0.26818181818181586,
                "tempo": 120.0
            },
            {
                "start_time": 78.60909090909091,
                "end_time": 78.87727272727273,
                "pitch": 74,
                "velocity": 80,
                "duration": 0.26818181818181586,
                "tempo": 120.0
            },
            {
                "start_time": 78.91136363636363,
                "end_time": 79.07954545454545,
                "pitch": 79,
                "velocity": 80,
                "duration": 0.16818181818182154,
                "tempo": 120.0
            },
            {
                "start_time": 79.11363636363636,
                "end_time": 79.38181818181818,
                "pitch": 76,
                "velocity": 80,
                "duration": 0.26818181818181586,
                "tempo": 120.0
            },
            {
                "start_time": 79.41590909090908,
                "end_time": 79.68181818181817,
                "pitch": 74,
                "velocity": 80,
                "duration": 0.26590909090909065,
                "tempo": 120.0
            },
            {
                "start_time": 79.7159090909091,
                "end_time": 79.88181818181818,
                "pitch": 72,
                "velocity": 80,
                "duration": 0.16590909090908212,
                "tempo": 120.0
            },
            {
                "start_time": 79.91590909090908,
                "end_time": 80.18409090909091,
                "pitch": 74,
                "velocity": 80,
                "duration": 0.26818181818183007,
                "tempo": 120.0
            },
            {
                "start_time": 80.21818181818182,
                "end_time": 80.48409090909091,
                "pitch": 71,
                "velocity": 80,
                "duration": 0.26590909090909065,
                "tempo": 120.0
            },
            {
                "start_time": 80.51818181818182,
                "end_time": 81.08863636363635,
                "pitch": 67,
                "velocity": 80,
                "duration": 0.5704545454545382,
                "tempo": 120.0
            },
            {
                "start_time": 81.12045454545454,
                "end_time": 81.49090909090908,
                "pitch": 0,
                "velocity": 80,
                "duration": 0.3704545454545496,
                "tempo": 120.0
            },
            {
                "start_time": 81.52272727272727,
                "end_time": 81.79090909090908,
                "pitch": 72,
                "velocity": 80,
                "duration": 0.26818181818181586,
                "tempo": 120.0
            },
            {
                "start_time": 81.82272727272726,
                "end_time": 82.0909090909091,
                "pitch": 71,
                "velocity": 80,
                "duration": 0.26818181818183007,
                "tempo": 120.0
            },
            {
                "start_time": 82.125,
                "end_time": 82.29318181818181,
                "pitch": 74,
                "velocity": 80,
                "duration": 0.16818181818180733,
                "tempo": 120.0
            },
            {
                "start_time": 82.32727272727273,
                "end_time": 82.59318181818182,
                "pitch": 72,
                "velocity": 80,
                "duration": 0.26590909090909065,
                "tempo": 120.0
            },
            {
                "start_time": 82.62727272727273,
                "end_time": 82.89318181818182,
                "pitch": 71,
                "velocity": 80,
                "duration": 0.26590909090909065,
                "tempo": 120.0
            },
            {
                "start_time": 82.92727272727272,
                "end_time": 82.99545454545454,
                "pitch": 64,
                "velocity": 80,
                "duration": 0.06818181818181301,
                "tempo": 120.0
            },
            {
                "start_time": 83.02954545454546,
                "end_time": 83.09545454545454,
                "pitch": 67,
                "velocity": 80,
                "duration": 0.06590909090908781,
                "tempo": 120.0
            },
            {
                "start_time": 83.12954545454545,
                "end_time": 83.39772727272727,
                "pitch": 71,
                "velocity": 80,
                "duration": 0.26818181818181586,
                "tempo": 120.0
            },
            {
                "start_time": 83.43181818181817,
                "end_time": 84.39999999999999,
                "pitch": 69,
                "velocity": 80,
                "duration": 0.9681818181818187,
                "tempo": 120.0
            },
            {
                "start_time": 84.4340909090909,
                "end_time": 84.7,
                "pitch": 67,
                "velocity": 80,
                "duration": 0.26590909090910486,
                "tempo": 120.0
            },
            {
                "start_time": 84.73409090909091,
                "end_time": 85.20454545454545,
                "pitch": 65,
                "velocity": 80,
                "duration": 0.4704545454545439,
                "tempo": 120.0
            },
            {
                "start_time": 85.23863636363636,
                "end_time": 85.40681818181818,
                "pitch": 67,
                "velocity": 80,
                "duration": 0.16818181818182154,
                "tempo": 120.0
            },
            {
                "start_time": 85.43863636363636,
                "end_time": 85.50681818181818,
                "pitch": 69,
                "velocity": 80,
                "duration": 0.06818181818181301,
                "tempo": 120.0
            },
            {
                "start_time": 85.53863636363636,
                "end_time": 85.90681818181818,
                "pitch": 67,
                "velocity": 80,
                "duration": 0.3681818181818244,
                "tempo": 120.0
            },
            {
                "start_time": 85.94090909090909,
                "end_time": 86.11136363636363,
                "pitch": 65,
                "velocity": 80,
                "duration": 0.17045454545454675,
                "tempo": 120.0
            },
            {
                "start_time": 86.14545454545454,
                "end_time": 86.31590909090909,
                "pitch": 64,
                "velocity": 80,
                "duration": 0.17045454545454675,
                "tempo": 120.0
            },
            {
                "start_time": 86.35,
                "end_time": 86.61136363636363,
                "pitch": 62,
                "velocity": 80,
                "duration": 0.26136363636364024,
                "tempo": 120.0
            },
            {
                "start_time": 86.64318181818182,
                "end_time": 86.7090909090909,
                "pitch": 64,
                "velocity": 80,
                "duration": 0.06590909090908781,
                "tempo": 120.0
            },
            {
                "start_time": 86.74318181818181,
                "end_time": 87.5,
                "pitch": 60,
                "velocity": 80,
                "duration": 0.7568181818181898,
                "tempo": 120.0
            },
            {
                "start_time": 87.53636363636363,
                "end_time": 87.92272727272727,
                "pitch": 0,
                "velocity": 80,
                "duration": 0.38636363636364024,
                "tempo": 120.0
            },
            {
                "start_time": 87.95454545454545,
                "end_time": 88.41363636363636,
                "pitch": 65,
                "velocity": 80,
                "duration": 0.45909090909090366,
                "tempo": 120.0
            },
            {
                "start_time": 88.44772727272726,
                "end_time": 88.61363636363636,
                "pitch": 67,
                "velocity": 80,
                "duration": 0.16590909090909634,
                "tempo": 120.0
            },
            {
                "start_time": 88.64772727272727,
                "end_time": 88.7159090909091,
                "pitch": 69,
                "velocity": 80,
                "duration": 0.06818181818182723,
                "tempo": 120.0
            },
            {
                "start_time": 88.74772727272727,
                "end_time": 89.11818181818181,
                "pitch": 67,
                "velocity": 80,
                "duration": 0.3704545454545354,
                "tempo": 120.0
            },
            {
                "start_time": 89.15227272727272,
                "end_time": 89.32272727272726,
                "pitch": 64,
                "velocity": 80,
                "duration": 0.17045454545454675,
                "tempo": 120.0
            },
            {
                "start_time": 89.35681818181818,
                "end_time": 89.52727272727272,
                "pitch": 72,
                "velocity": 80,
                "duration": 0.17045454545453254,
                "tempo": 120.0
            },
            {
                "start_time": 89.56136363636364,
                "end_time": 89.82272727272726,
                "pitch": 71,
                "velocity": 80,
                "duration": 0.26136363636362603,
                "tempo": 120.0
            },
            {
                "start_time": 89.85454545454544,
                "end_time": 90.82045454545454,
                "pitch": 69,
                "velocity": 80,
                "duration": 0.9659090909090935,
                "tempo": 120.0
            },
            {
                "start_time": 90.85681818181818,
                "end_time": 91.13636363636363,
                "pitch": 67,
                "velocity": 80,
                "duration": 0.2795454545454419,
                "tempo": 120.0
            },
            {
                "start_time": 91.16818181818181,
                "end_time": 91.62954545454545,
                "pitch": 65,
                "velocity": 80,
                "duration": 0.4613636363636431,
                "tempo": 120.0
            },
            {
                "start_time": 91.66136363636363,
                "end_time": 91.82954545454545,
                "pitch": 67,
                "velocity": 80,
                "duration": 0.16818181818182154,
                "tempo": 120.0
            },
            {
                "start_time": 91.86136363636363,
                "end_time": 91.92954545454545,
                "pitch": 69,
                "velocity": 80,
                "duration": 0.06818181818181301,
                "tempo": 120.0
            },
            {
                "start_time": 91.96136363636363,
                "end_time": 92.33181818181818,
                "pitch": 67,
                "velocity": 80,
                "duration": 0.3704545454545496,
                "tempo": 120.0
            },
            {
                "start_time": 92.36590909090908,
                "end_time": 92.53181818181818,
                "pitch": 65,
                "velocity": 80,
                "duration": 0.16590909090909634,
                "tempo": 120.0
            },
            {
                "start_time": 92.56590909090909,
                "end_time": 92.73181818181818,
                "pitch": 64,
                "velocity": 80,
                "duration": 0.16590909090909634,
                "tempo": 120.0
            },
            {
                "start_time": 92.76590909090909,
                "end_time": 93.0340909090909,
                "pitch": 62,
                "velocity": 80,
                "duration": 0.26818181818181586,
                "tempo": 120.0
            },
            {
                "start_time": 93.06818181818181,
                "end_time": 93.1340909090909,
                "pitch": 64,
                "velocity": 80,
                "duration": 0.06590909090908781,
                "tempo": 120.0
            },
            {
                "start_time": 93.16818181818181,
                "end_time": 94.0340909090909,
                "pitch": 60,
                "velocity": 80,
                "duration": 0.8659090909090992,
                "tempo": 120.0
            },
            {
                "start_time": 94.07045454545454,
                "end_time": 94.35,
                "pitch": 64,
                "velocity": 80,
                "duration": 0.2795454545454561,
                "tempo": 120.0
            },
            {
                "start_time": 94.38181818181818,
                "end_time": 94.84318181818182,
                "pitch": 65,
                "velocity": 80,
                "duration": 0.4613636363636431,
                "tempo": 120.0
            },
            {
                "start_time": 94.87727272727273,
                "end_time": 95.04545454545455,
                "pitch": 67,
                "velocity": 80,
                "duration": 0.16818181818182154,
                "tempo": 120.0
            },
            {
                "start_time": 95.07727272727273,
                "end_time": 95.14545454545454,
                "pitch": 69,
                "velocity": 80,
                "duration": 0.06818181818181301,
                "tempo": 120.0
            },
            {
                "start_time": 95.17954545454545,
                "end_time": 95.54772727272727,
                "pitch": 67,
                "velocity": 80,
                "duration": 0.3681818181818244,
                "tempo": 120.0
            },
            {
                "start_time": 95.58181818181818,
                "end_time": 95.74772727272727,
                "pitch": 64,
                "velocity": 80,
                "duration": 0.16590909090909634,
                "tempo": 120.0
            },
            {
                "start_time": 95.78181818181818,
                "end_time": 95.94772727272726,
                "pitch": 72,
                "velocity": 80,
                "duration": 0.16590909090908212,
                "tempo": 120.0
            },
            {
                "start_time": 95.97954545454544,
                "end_time": 96.24090909090908,
                "pitch": 71,
                "velocity": 80,
                "duration": 0.26136363636364024,
                "tempo": 120.0
            },
            {
                "start_time": 96.27499999999999,
                "end_time": 97.15454545454546,
                "pitch": 69,
                "velocity": 80,
                "duration": 0.8795454545454646,
                "tempo": 120.0
            },
            {
                "start_time": 97.18636363636364,
                "end_time": 97.55681818181817,
                "pitch": 0,
                "velocity": 80,
                "duration": 0.3704545454545354,
                "tempo": 120.0
            },
            {
                "start_time": 97.58863636363635,
                "end_time": 100.76590909090909,
                "pitch": 0,
                "velocity": 80,
                "duration": 3.1772727272727366,
                "tempo": 120.0
            },
            {
                "start_time": 100.8,
                "end_time": 100.86363636363636,
                "pitch": 0,
                "velocity": 80,
                "duration": 0.0636363636363626,
                "tempo": 120.0
            },
            {
                "start_time": 100.89772727272727,
                "end_time": 100.96363636363635,
                "pitch": 57,
                "velocity": 80,
                "duration": 0.06590909090908781,
                "tempo": 120.0
            },
            {
                "start_time": 100.99545454545454,
                "end_time": 101.06136363636364,
                "pitch": 0,
                "velocity": 80,
                "duration": 0.06590909090910202,
                "tempo": 120.0
            },
            {
                "start_time": 101.09318181818182,
                "end_time": 101.15454545454546,
                "pitch": 60,
                "velocity": 80,
                "duration": 0.0613636363636374,
                "tempo": 120.0
            },
            {
                "start_time": 101.18636363636364,
                "end_time": 101.24772727272727,
                "pitch": 0,
                "velocity": 80,
                "duration": 0.0613636363636374,
                "tempo": 120.0
            },
            {
                "start_time": 101.27954545454546,
                "end_time": 101.34090909090908,
                "pitch": 62,
                "velocity": 80,
                "duration": 0.061363636363623186,
                "tempo": 120.0
            },
            {
                "start_time": 101.37272727272727,
                "end_time": 101.4340909090909,
                "pitch": 0,
                "velocity": 80,
                "duration": 0.061363636363623186,
                "tempo": 120.0
            },
            {
                "start_time": 101.46363636363635,
                "end_time": 101.52954545454546,
                "pitch": 64,
                "velocity": 80,
                "duration": 0.06590909090910202,
                "tempo": 120.0
            },
            {
                "start_time": 101.56363636363636,
                "end_time": 101.63181818181818,
                "pitch": 0,
                "velocity": 80,
                "duration": 0.06818181818181301,
                "tempo": 120.0
            },
            {
                "start_time": 101.66590909090908,
                "end_time": 101.73181818181817,
                "pitch": 62,
                "velocity": 80,
                "duration": 0.06590909090908781,
                "tempo": 120.0
            },
            {
                "start_time": 101.76590909090909,
                "end_time": 101.83181818181818,
                "pitch": 0,
                "velocity": 80,
                "duration": 0.06590909090908781,
                "tempo": 120.0
            },
            {
                "start_time": 101.86590909090908,
                "end_time": 101.92954545454545,
                "pitch": 64,
                "velocity": 80,
                "duration": 0.0636363636363626,
                "tempo": 120.0
            },
            {
                "start_time": 101.96136363636363,
                "end_time": 102.02499999999999,
                "pitch": 0,
                "velocity": 80,
                "duration": 0.0636363636363626,
                "tempo": 120.0
            },
            {
                "start_time": 102.05681818181817,
                "end_time": 102.12045454545454,
                "pitch": 67,
                "velocity": 80,
                "duration": 0.0636363636363626,
                "tempo": 120.0
            },
            {
                "start_time": 102.15227272727272,
                "end_time": 102.21590909090908,
                "pitch": 0,
                "velocity": 80,
                "duration": 0.0636363636363626,
                "tempo": 120.0
            },
            {
                "start_time": 102.24545454545454,
                "end_time": 102.30454545454545,
                "pitch": 69,
                "velocity": 80,
                "duration": 0.05909090909091219,
                "tempo": 120.0
            },
            {
                "start_time": 102.33636363636363,
                "end_time": 102.39545454545454,
                "pitch": 0,
                "velocity": 80,
                "duration": 0.05909090909091219,
                "tempo": 120.0
            },
            {
                "start_time": 102.425,
                "end_time": 102.48636363636363,
                "pitch": 69,
                "velocity": 80,
                "duration": 0.0613636363636374,
                "tempo": 120.0
            },
            {
                "start_time": 102.51590909090909,
                "end_time": 102.57727272727273,
                "pitch": 0,
                "velocity": 80,
                "duration": 0.0613636363636374,
                "tempo": 120.0
            },
            {
                "start_time": 102.61136363636363,
                "end_time": 102.67954545454545,
                "pitch": 72,
                "velocity": 80,
                "duration": 0.06818181818181301,
                "tempo": 120.0
            },
            {
                "start_time": 102.71363636363635,
                "end_time": 102.77954545454546,
                "pitch": 0,
                "velocity": 80,
                "duration": 0.06590909090910202,
                "tempo": 120.0
            },
            {
                "start_time": 102.81363636363636,
                "end_time": 102.87954545454545,
                "pitch": 74,
                "velocity": 80,
                "duration": 0.06590909090908781,
                "tempo": 120.0
            },
            {
                "start_time": 102.91363636363636,
                "end_time": 102.98181818181817,
                "pitch": 0,
                "velocity": 80,
                "duration": 0.06818181818181301,
                "tempo": 120.0
            },
            {
                "start_time": 103.01363636363637,
                "end_time": 103.08181818181818,
                "pitch": 76,
                "velocity": 80,
                "duration": 0.06818181818181301,
                "tempo": 120.0
            },
            {
                "start_time": 103.11363636363636,
                "end_time": 103.18181818181817,
                "pitch": 0,
                "velocity": 80,
                "duration": 0.06818181818181301,
                "tempo": 120.0
            },
            {
                "start_time": 103.21363636363635,
                "end_time": 103.28181818181818,
                "pitch": 79,
                "velocity": 80,
                "duration": 0.06818181818182723,
                "tempo": 120.0
            },
            {
                "start_time": 103.31363636363636,
                "end_time": 103.37954545454545,
                "pitch": 0,
                "velocity": 80,
                "duration": 0.06590909090908781,
                "tempo": 120.0
            },
            {
                "start_time": 103.41363636363636,
                "end_time": 103.47727272727272,
                "pitch": 80,
                "velocity": 80,
                "duration": 0.0636363636363626,
                "tempo": 120.0
            },
            {
                "start_time": 103.51136363636363,
                "end_time": 103.57727272727273,
                "pitch": 0,
                "velocity": 80,
                "duration": 0.06590909090910202,
                "tempo": 120.0
            },
            {
                "start_time": 103.60909090909091,
                "end_time": 105.08636363636363,
                "pitch": 81,
                "velocity": 80,
                "duration": 1.4772727272727195,
                "tempo": 120.0
            },
            {
                "start_time": 105.12045454545454,
                "end_time": 105.49090909090908,
                "pitch": 0,
                "velocity": 80,
                "duration": 0.3704545454545496,
                "tempo": 120.0
            },
            {
                "start_time": 105.52499999999999,
                "end_time": 105.59318181818182,
                "pitch": 0,
                "velocity": 80,
                "duration": 0.06818181818182723,
                "tempo": 120.0
            },
            {
                "start_time": 105.62727272727273,
                "end_time": 105.69545454545454,
                "pitch": 84,
                "velocity": 80,
                "duration": 0.06818181818181301,
                "tempo": 120.0
            },
            {
                "start_time": 105.72954545454544,
                "end_time": 105.79772727272727,
                "pitch": 0,
                "velocity": 80,
                "duration": 0.06818181818182723,
                "tempo": 120.0
            },
            {
                "start_time": 105.83181818181818,
                "end_time": 105.90681818181818,
                "pitch": 84,
                "velocity": 80,
                "duration": 0.07500000000000284,
                "tempo": 120.0
            },
            {
                "start_time": 105.94318181818181,
                "end_time": 106.23636363636363,
                "pitch": 0,
                "velocity": 80,
                "duration": 0.29318181818182154,
                "tempo": 120.0
            },
            {
                "start_time": 106.27272727272727,
                "end_time": 106.34318181818182,
                "pitch": 86,
                "velocity": 80,
                "duration": 0.07045454545455243,
                "tempo": 120.0
            },
            {
                "start_time": 106.37727272727273,
                "end_time": 106.44545454545454,
                "pitch": 0,
                "velocity": 80,
                "duration": 0.06818181818181301,
                "tempo": 120.0
            },
            {
                "start_time": 106.47954545454544,
                "end_time": 106.54772727272727,
                "pitch": 86,
                "velocity": 80,
                "duration": 0.06818181818182723,
                "tempo": 120.0
            },
            {
                "start_time": 106.58181818181818,
                "end_time": 107.28636363636363,
                "pitch": 0,
                "velocity": 80,
                "duration": 0.7045454545454533,
                "tempo": 120.0
            },
            {
                "start_time": 107.31818181818181,
                "end_time": 107.38636363636363,
                "pitch": 86,
                "velocity": 80,
                "duration": 0.06818181818181301,
                "tempo": 120.0
            },
            {
                "start_time": 107.42045454545455,
                "end_time": 107.48636363636363,
                "pitch": 0,
                "velocity": 80,
                "duration": 0.06590909090908781,
                "tempo": 120.0
            },
            {
                "start_time": 107.52045454545454,
                "end_time": 107.58863636363635,
                "pitch": 86,
                "velocity": 80,
                "duration": 0.06818181818181301,
                "tempo": 120.0
            },
            {
                "start_time": 107.62272727272726,
                "end_time": 107.90454545454546,
                "pitch": 0,
                "velocity": 80,
                "duration": 0.2818181818181955,
                "tempo": 120.0
            },
            {
                "start_time": 107.94090909090909,
                "end_time": 108.0090909090909,
                "pitch": 88,
                "velocity": 80,
                "duration": 0.06818181818181301,
                "tempo": 120.0
            },
            {
                "start_time": 108.04318181818181,
                "end_time": 108.10909090909091,
                "pitch": 0,
                "velocity": 80,
                "duration": 0.06590909090910202,
                "tempo": 120.0
            },
            {
                "start_time": 108.14318181818182,
                "end_time": 108.2090909090909,
                "pitch": 88,
                "velocity": 80,
                "duration": 0.06590909090908781,
                "tempo": 120.0
            },
            {
                "start_time": 108.24318181818181,
                "end_time": 108.89999999999999,
                "pitch": 0,
                "velocity": 80,
                "duration": 0.6568181818181813,
                "tempo": 120.0
            },
            {
                "start_time": 108.93181818181817,
                "end_time": 108.99772727272726,
                "pitch": 84,
                "velocity": 80,
                "duration": 0.06590909090908781,
                "tempo": 120.0
            },
            {
                "start_time": 109.02954545454546,
                "end_time": 109.09545454545454,
                "pitch": 0,
                "velocity": 80,
                "duration": 0.06590909090908781,
                "tempo": 120.0
            },
            {
                "start_time": 109.12954545454545,
                "end_time": 109.19545454545454,
                "pitch": 84,
                "velocity": 80,
                "duration": 0.06590909090908781,
                "tempo": 120.0
            },
            {
                "start_time": 109.22954545454544,
                "end_time": 109.51136363636363,
                "pitch": 0,
                "velocity": 80,
                "duration": 0.2818181818181813,
                "tempo": 120.0
            },
            {
                "start_time": 109.54545454545455,
                "end_time": 109.61363636363636,
                "pitch": 86,
                "velocity": 80,
                "duration": 0.06818181818181301,
                "tempo": 120.0
            },
            {
                "start_time": 109.64545454545454,
                "end_time": 109.7090909090909,
                "pitch": 0,
                "velocity": 80,
                "duration": 0.0636363636363626,
                "tempo": 120.0
            },
            {
                "start_time": 109.74090909090908,
                "end_time": 109.80454545454545,
                "pitch": 86,
                "velocity": 80,
                "duration": 0.0636363636363626,
                "tempo": 120.0
            },
            {
                "start_time": 109.83636363636363,
                "end_time": 110.50454545454545,
                "pitch": 0,
                "velocity": 80,
                "duration": 0.6681818181818215,
                "tempo": 120.0
            },
            {
                "start_time": 110.53863636363636,
                "end_time": 110.60454545454544,
                "pitch": 86,
                "velocity": 80,
                "duration": 0.06590909090908781,
                "tempo": 120.0
            },
            {
                "start_time": 110.63636363636363,
                "end_time": 110.70227272727273,
                "pitch": 0,
                "velocity": 80,
                "duration": 0.06590909090910202,
                "tempo": 120.0
            },
            {
                "start_time": 110.73409090909091,
                "end_time": 110.8,
                "pitch": 86,
                "velocity": 80,
                "duration": 0.06590909090908781,
                "tempo": 120.0
            },
            {
                "start_time": 110.8340909090909,
                "end_time": 111.11590909090908,
                "pitch": 0,
                "velocity": 80,
                "duration": 0.2818181818181813,
                "tempo": 120.0
            },
            {
                "start_time": 111.15227272727272,
                "end_time": 111.22272727272727,
                "pitch": 88,
                "velocity": 80,
                "duration": 0.07045454545455243,
                "tempo": 120.0
            },
            {
                "start_time": 111.25454545454545,
                "end_time": 111.32272727272726,
                "pitch": 0,
                "velocity": 80,
                "duration": 0.06818181818181301,
                "tempo": 120.0
            },
            {
                "start_time": 111.35454545454544,
                "end_time": 111.42272727272727,
                "pitch": 88,
                "velocity": 80,
                "duration": 0.06818181818182723,
                "tempo": 120.0
            },
            {
                "start_time": 111.45454545454545,
                "end_time": 111.72045454545454,
                "pitch": 0,
                "velocity": 80,
                "duration": 0.26590909090909065,
                "tempo": 120.0
            },
            {
                "start_time": 111.75227272727273,
                "end_time": 113.62272727272726,
                "pitch": 86,
                "velocity": 80,
                "duration": 1.8704545454545354,
                "tempo": 120.0
            },
            {
                "start_time": 113.65681818181818,
                "end_time": 115.22954545454544,
                "pitch": 0,
                "velocity": 80,
                "duration": 1.5727272727272634,
                "tempo": 120.0
            },
            {
                "start_time": 115.26363636363635,
                "end_time": 115.29772727272727,
                "pitch": 67,
                "velocity": 80,
                "duration": 0.03409090909092072,
                "tempo": 120.0
            },
            {
                "start_time": 115.32954545454545,
                "end_time": 115.36363636363636,
                "pitch": 68,
                "velocity": 80,
                "duration": 0.03409090909090651,
                "tempo": 120.0
            },
            {
                "start_time": 115.39772727272727,
                "end_time": 115.43181818181817,
                "pitch": 69,
                "velocity": 80,
                "duration": 0.03409090909090651,
                "tempo": 120.0
            },
            {
                "start_time": 115.46363636363635,
                "end_time": 115.49772727272726,
                "pitch": 69,
                "velocity": 80,
                "duration": 0.03409090909090651,
                "tempo": 120.0
            },
            {
                "start_time": 115.53181818181818,
                "end_time": 115.56590909090909,
                "pitch": 69,
                "velocity": 80,
                "duration": 0.03409090909090651,
                "tempo": 120.0
            },
            {
                "start_time": 115.59772727272727,
                "end_time": 115.63181818181818,
                "pitch": 69,
                "velocity": 80,
                "duration": 0.03409090909090651,
                "tempo": 120.0
            },
            {
                "start_time": 115.66590909090908,
                "end_time": 115.69772727272726,
                "pitch": 69,
                "velocity": 80,
                "duration": 0.0318181818181813,
                "tempo": 120.0
            },
            {
                "start_time": 115.73181818181817,
                "end_time": 115.76590909090909,
                "pitch": 69,
                "velocity": 80,
                "duration": 0.03409090909092072,
                "tempo": 120.0
            },
            {
                "start_time": 115.79772727272727,
                "end_time": 115.83181818181818,
                "pitch": 69,
                "velocity": 80,
                "duration": 0.03409090909090651,
                "tempo": 120.0
            },
            {
                "start_time": 115.86590909090908,
                "end_time": 115.89772727272727,
                "pitch": 69,
                "velocity": 80,
                "duration": 0.0318181818181813,
                "tempo": 120.0
            },
            {
                "start_time": 115.93181818181817,
                "end_time": 115.96590909090908,
                "pitch": 69,
                "velocity": 80,
                "duration": 0.03409090909090651,
                "tempo": 120.0
            },
            {
                "start_time": 115.99772727272726,
                "end_time": 116.03181818181818,
                "pitch": 69,
                "velocity": 80,
                "duration": 0.03409090909092072,
                "tempo": 120.0
            },
            {
                "start_time": 116.06590909090909,
                "end_time": 116.1,
                "pitch": 69,
                "velocity": 80,
                "duration": 0.03409090909090651,
                "tempo": 120.0
            },
            {
                "start_time": 116.1340909090909,
                "end_time": 116.16818181818181,
                "pitch": 69,
                "velocity": 80,
                "duration": 0.03409090909090651,
                "tempo": 120.0
            },
            {
                "start_time": 116.20454545454545,
                "end_time": 116.23863636363636,
                "pitch": 69,
                "velocity": 80,
                "duration": 0.03409090909090651,
                "tempo": 120.0
            },
            {
                "start_time": 116.27272727272727,
                "end_time": 116.30681818181817,
                "pitch": 69,
                "velocity": 80,
                "duration": 0.03409090909090651,
                "tempo": 120.0
            },
            {
                "start_time": 116.34090909090908,
                "end_time": 116.375,
                "pitch": 69,
                "velocity": 80,
                "duration": 0.03409090909092072,
                "tempo": 120.0
            },
            {
                "start_time": 116.4090909090909,
                "end_time": 116.44318181818181,
                "pitch": 69,
                "velocity": 80,
                "duration": 0.03409090909090651,
                "tempo": 120.0
            },
            {
                "start_time": 116.475,
                "end_time": 116.50681818181818,
                "pitch": 69,
                "velocity": 80,
                "duration": 0.0318181818181813,
                "tempo": 120.0
            },
            {
                "start_time": 116.57272727272726,
                "end_time": 116.63863636363635,
                "pitch": 71,
                "velocity": 80,
                "duration": 0.06590909090908781,
                "tempo": 120.0
            },
            {
                "start_time": 116.67045454545455,
                "end_time": 116.73636363636363,
                "pitch": 69,
                "velocity": 80,
                "duration": 0.06590909090908781,
                "tempo": 120.0
            },
            {
                "start_time": 116.76818181818182,
                "end_time": 117.13636363636363,
                "pitch": 72,
                "velocity": 80,
                "duration": 0.36818181818181017,
                "tempo": 120.0
            },
            {
                "start_time": 117.17045454545455,
                "end_time": 117.43863636363636,
                "pitch": 71,
                "velocity": 80,
                "duration": 0.26818181818181586,
                "tempo": 120.0
            },
            {
                "start_time": 117.47272727272727,
                "end_time": 118.05,
                "pitch": 69,
                "velocity": 80,
                "duration": 0.577272727272728,
                "tempo": 120.0
            },
            {
                "start_time": 118.0840909090909,
                "end_time": 118.24772727272726,
                "pitch": 0,
                "velocity": 80,
                "duration": 0.16363636363635692,
                "tempo": 120.0
            },
            {
                "start_time": 118.27954545454544,
                "end_time": 118.31136363636364,
                "pitch": 68,
                "velocity": 80,
                "duration": 0.03181818181819551,
                "tempo": 120.0
            },
            {
                "start_time": 118.34545454545454,
                "end_time": 118.37727272727273,
                "pitch": 67,
                "velocity": 80,
                "duration": 0.0318181818181813,
                "tempo": 120.0
            },
            {
                "start_time": 118.4090909090909,
                "end_time": 118.44318181818181,
                "pitch": 69,
                "velocity": 80,
                "duration": 0.03409090909090651,
                "tempo": 120.0
            },
            {
                "start_time": 118.47727272727272,
                "end_time": 118.5090909090909,
                "pitch": 69,
                "velocity": 80,
                "duration": 0.0318181818181813,
                "tempo": 120.0
            },
            {
                "start_time": 118.54318181818181,
                "end_time": 118.57727272727273,
                "pitch": 69,
                "velocity": 80,
                "duration": 0.03409090909092072,
                "tempo": 120.0
            },
            {
                "start_time": 118.60909090909091,
                "end_time": 118.64318181818182,
                "pitch": 69,
                "velocity": 80,
                "duration": 0.03409090909090651,
                "tempo": 120.0
            },
            {
                "start_time": 118.67727272727272,
                "end_time": 118.7090909090909,
                "pitch": 69,
                "velocity": 80,
                "duration": 0.0318181818181813,
                "tempo": 120.0
            },
            {
                "start_time": 118.74318181818181,
                "end_time": 118.77727272727272,
                "pitch": 69,
                "velocity": 80,
                "duration": 0.03409090909090651,
                "tempo": 120.0
            },
            {
                "start_time": 118.8090909090909,
                "end_time": 118.84318181818182,
                "pitch": 69,
                "velocity": 80,
                "duration": 0.03409090909092072,
                "tempo": 120.0
            },
            {
                "start_time": 118.87727272727273,
                "end_time": 119.04545454545455,
                "pitch": 0,
                "velocity": 80,
                "duration": 0.16818181818182154,
                "tempo": 120.0
            },
            {
                "start_time": 119.07727272727273,
                "end_time": 119.11136363636363,
                "pitch": 68,
                "velocity": 80,
                "duration": 0.03409090909090651,
                "tempo": 120.0
            },
            {
                "start_time": 119.14545454545454,
                "end_time": 119.17954545454545,
                "pitch": 67,
                "velocity": 80,
                "duration": 0.03409090909090651,
                "tempo": 120.0
            },
            {
                "start_time": 119.21136363636363,
                "end_time": 119.24545454545454,
                "pitch": 69,
                "velocity": 80,
                "duration": 0.03409090909090651,
                "tempo": 120.0
            },
            {
                "start_time": 119.27954545454544,
                "end_time": 119.31363636363636,
                "pitch": 69,
                "velocity": 80,
                "duration": 0.03409090909092072,
                "tempo": 120.0
            },
            {
                "start_time": 119.35,
                "end_time": 119.3840909090909,
                "pitch": 69,
                "velocity": 80,
                "duration": 0.03409090909090651,
                "tempo": 120.0
            },
            {
                "start_time": 119.41818181818181,
                "end_time": 119.45227272727273,
                "pitch": 69,
                "velocity": 80,
                "duration": 0.03409090909092072,
                "tempo": 120.0
            },
            {
                "start_time": 119.48636363636363,
                "end_time": 119.52045454545454,
                "pitch": 69,
                "velocity": 80,
                "duration": 0.03409090909090651,
                "tempo": 120.0
            },
            {
                "start_time": 119.55454545454545,
                "end_time": 119.58863636363635,
                "pitch": 69,
                "velocity": 80,
                "duration": 0.03409090909090651,
                "tempo": 120.0
            },
            {
                "start_time": 119.62272727272726,
                "end_time": 119.65681818181818,
                "pitch": 69,
                "velocity": 80,
                "duration": 0.03409090909092072,
                "tempo": 120.0
            },
            {
                "start_time": 119.68863636363636,
                "end_time": 119.72272727272727,
                "pitch": 69,
                "velocity": 80,
                "duration": 0.03409090909090651,
                "tempo": 120.0
            },
            {
                "start_time": 119.75454545454545,
                "end_time": 119.78636363636363,
                "pitch": 69,
                "velocity": 80,
                "duration": 0.0318181818181813,
                "tempo": 120.0
            },
            {
                "start_time": 119.82045454545454,
                "end_time": 119.85227272727272,
                "pitch": 69,
                "velocity": 80,
                "duration": 0.0318181818181813,
                "tempo": 120.0
            },
            {
                "start_time": 119.8840909090909,
                "end_time": 119.91818181818181,
                "pitch": 69,
                "velocity": 80,
                "duration": 0.03409090909090651,
                "tempo": 120.0
            },
            {
                "start_time": 119.94999999999999,
                "end_time": 119.98409090909091,
                "pitch": 69,
                "velocity": 80,
                "duration": 0.03409090909092072,
                "tempo": 120.0
            },
            {
                "start_time": 120.01590909090909,
                "end_time": 120.05,
                "pitch": 69,
                "velocity": 80,
                "duration": 0.03409090909090651,
                "tempo": 120.0
            },
            {
                "start_time": 120.08181818181818,
                "end_time": 120.35,
                "pitch": 72,
                "velocity": 80,
                "duration": 0.26818181818181586,
                "tempo": 120.0
            },
            {
                "start_time": 120.3840909090909,
                "end_time": 120.65227272727272,
                "pitch": 71,
                "velocity": 80,
                "duration": 0.26818181818181586,
                "tempo": 120.0
            },
            {
                "start_time": 120.6840909090909,
                "end_time": 120.85227272727272,
                "pitch": 69,
                "velocity": 80,
                "duration": 0.16818181818182154,
                "tempo": 120.0
            },
            {
                "start_time": 120.88636363636363,
                "end_time": 120.95454545454545,
                "pitch": 0,
                "velocity": 80,
                "duration": 0.06818181818182723,
                "tempo": 120.0
            },
            {
                "start_time": 120.98863636363636,
                "end_time": 121.05681818181817,
                "pitch": 74,
                "velocity": 80,
                "duration": 0.06818181818181301,
                "tempo": 120.0
            },
            {
                "start_time": 121.09090909090908,
                "end_time": 121.1590909090909,
                "pitch": 0,
                "velocity": 80,
                "duration": 0.06818181818182723,
                "tempo": 120.0
            },
            {
                "start_time": 121.19318181818181,
                "end_time": 121.26136363636363,
                "pitch": 74,
                "velocity": 80,
                "duration": 0.06818181818181301,
                "tempo": 120.0
            },
            {
                "start_time": 121.29545454545453,
                "end_time": 121.35909090909091,
                "pitch": 0,
                "velocity": 80,
                "duration": 0.06363636363637681,
                "tempo": 120.0
            },
            {
                "start_time": 121.39318181818182,
                "end_time": 121.45681818181818,
                "pitch": 74,
                "velocity": 80,
                "duration": 0.0636363636363626,
                "tempo": 120.0
            },
            {
                "start_time": 121.49090909090908,
                "end_time": 121.55681818181817,
                "pitch": 75,
                "velocity": 80,
                "duration": 0.06590909090908781,
                "tempo": 120.0
            },
            {
                "start_time": 121.58863636363635,
                "end_time": 121.65454545454544,
                "pitch": 76,
                "velocity": 80,
                "duration": 0.06590909090908781,
                "tempo": 120.0
            },
            {
                "start_time": 121.68863636363636,
                "end_time": 121.85454545454544,
                "pitch": 79,
                "velocity": 80,
                "duration": 0.16590909090908212,
                "tempo": 120.0
            },
            {
                "start_time": 121.88863636363635,
                "end_time": 121.95454545454545,
                "pitch": 69,
                "velocity": 80,
                "duration": 0.06590909090910202,
                "tempo": 120.0
            },
            {
                "start_time": 121.98863636363636,
                "end_time": 122.05454545454545,
                "pitch": 76,
                "velocity": 80,
                "duration": 0.06590909090908781,
                "tempo": 120.0
            },
            {
                "start_time": 122.08863636363635,
                "end_time": 122.15454545454544,
                "pitch": 0,
                "velocity": 80,
                "duration": 0.06590909090908781,
                "tempo": 120.0
            },
            {
                "start_time": 122.18863636363636,
                "end_time": 122.25681818181818,
                "pitch": 79,
                "velocity": 80,
                "duration": 0.06818181818181301,
                "tempo": 120.0
            },
            {
                "start_time": 122.28863636363636,
                "end_time": 122.35681818181817,
                "pitch": 69,
                "velocity": 80,
                "duration": 0.06818181818181301,
                "tempo": 120.0
            },
            {
                "start_time": 122.39090909090909,
                "end_time": 122.45681818181818,
                "pitch": 76,
                "velocity": 80,
                "duration": 0.06590909090908781,
                "tempo": 120.0
            },
            {
                "start_time": 122.49090909090908,
                "end_time": 122.5590909090909,
                "pitch": 76,
                "velocity": 80,
                "duration": 0.06818181818181301,
                "tempo": 120.0
            },
            {
                "start_time": 122.59318181818182,
                "end_time": 122.66363636363636,
                "pitch": 74,
                "velocity": 80,
                "duration": 0.07045454545453822,
                "tempo": 120.0
            },
            {
                "start_time": 122.69772727272726,
                "end_time": 122.76590909090909,
                "pitch": 0,
                "velocity": 80,
                "duration": 0.06818181818182723,
                "tempo": 120.0
            },
            {
                "start_time": 122.8,
                "end_time": 122.96590909090908,
                "pitch": 72,
                "velocity": 80,
                "duration": 0.16590909090908212,
                "tempo": 120.0
            },
            {
                "start_time": 122.99772727272726,
                "end_time": 123.06363636363636,
                "pitch": 74,
                "velocity": 80,
                "duration": 0.06590909090910202,
                "tempo": 120.0
            },
            {
                "start_time": 123.09545454545454,
                "end_time": 123.16136363636363,
                "pitch": 72,
                "velocity": 80,
                "duration": 0.06590909090908781,
                "tempo": 120.0
            },
            {
                "start_time": 123.19318181818181,
                "end_time": 123.2590909090909,
                "pitch": 0,
                "velocity": 80,
                "duration": 0.06590909090908781,
                "tempo": 120.0
            },
            {
                "start_time": 123.29318181818181,
                "end_time": 123.36136363636363,
                "pitch": 72,
                "velocity": 80,
                "duration": 0.06818181818182723,
                "tempo": 120.0
            },
            {
                "start_time": 123.39318181818182,
                "end_time": 123.46136363636363,
                "pitch": 72,
                "velocity": 80,
                "duration": 0.06818181818181301,
                "tempo": 120.0
            },
            {
                "start_time": 123.49545454545454,
                "end_time": 123.52954545454544,
                "pitch": 72,
                "velocity": 80,
                "duration": 0.03409090909090651,
                "tempo": 120.0
            },
            {
                "start_time": 123.56136363636364,
                "end_time": 123.59545454545454,
                "pitch": 72,
                "velocity": 80,
                "duration": 0.03409090909090651,
                "tempo": 120.0
            },
            {
                "start_time": 123.62954545454545,
                "end_time": 123.66363636363636,
                "pitch": 72,
                "velocity": 80,
                "duration": 0.03409090909090651,
                "tempo": 120.0
            },
            {
                "start_time": 123.69545454545454,
                "end_time": 123.76363636363635,
                "pitch": 72,
                "velocity": 80,
                "duration": 0.06818181818181301,
                "tempo": 120.0
            },
            {
                "start_time": 123.79545454545453,
                "end_time": 123.86363636363636,
                "pitch": 71,
                "velocity": 80,
                "duration": 0.06818181818182723,
                "tempo": 120.0
            },
            {
                "start_time": 123.89545454545454,
                "end_time": 123.92954545454545,
                "pitch": 71,
                "velocity": 80,
                "duration": 0.03409090909090651,
                "tempo": 120.0
            },
            {
                "start_time": 123.96363636363635,
                "end_time": 123.99545454545454,
                "pitch": 71,
                "velocity": 80,
                "duration": 0.0318181818181813,
                "tempo": 120.0
            },
            {
                "start_time": 124.02954545454544,
                "end_time": 124.06363636363636,
                "pitch": 71,
                "velocity": 80,
                "duration": 0.03409090909092072,
                "tempo": 120.0
            },
            {
                "start_time": 124.09772727272727,
                "end_time": 124.16590909090908,
                "pitch": 71,
                "velocity": 80,
                "duration": 0.06818181818181301,
                "tempo": 120.0
            },
            {
                "start_time": 124.19999999999999,
                "end_time": 124.26818181818182,
                "pitch": 71,
                "velocity": 80,
                "duration": 0.06818181818182723,
                "tempo": 120.0
            },
            {
                "start_time": 124.30227272727272,
                "end_time": 124.37045454545454,
                "pitch": 69,
                "velocity": 80,
                "duration": 0.06818181818181301,
                "tempo": 120.0
            },
            {
                "start_time": 124.40454545454544,
                "end_time": 124.47272727272727,
                "pitch": 69,
                "velocity": 80,
                "duration": 0.06818181818182723,
                "tempo": 120.0
            },
            {
                "start_time": 124.50454545454545,
                "end_time": 124.53863636363636,
                "pitch": 67,
                "velocity": 80,
                "duration": 0.03409090909090651,
                "tempo": 120.0
            },
            {
                "start_time": 124.57045454545454,
                "end_time": 124.60454545454544,
                "pitch": 67,
                "velocity": 80,
                "duration": 0.03409090909090651,
                "tempo": 120.0
            },
            {
                "start_time": 124.63636363636363,
                "end_time": 124.66818181818181,
                "pitch": 67,
                "velocity": 80,
                "duration": 0.0318181818181813,
                "tempo": 120.0
            },
            {
                "start_time": 124.70227272727273,
                "end_time": 124.86590909090908,
                "pitch": 66,
                "velocity": 80,
                "duration": 0.16363636363635692,
                "tempo": 120.0
            },
            {
                "start_time": 124.89999999999999,
                "end_time": 124.96590909090908,
                "pitch": 62,
                "velocity": 80,
                "duration": 0.06590909090908781,
                "tempo": 120.0
            },
            {
                "start_time": 125.0,
                "end_time": 125.16818181818181,
                "pitch": 67,
                "velocity": 80,
                "duration": 0.16818181818180733,
                "tempo": 120.0
            },
            {
                "start_time": 125.19999999999999,
                "end_time": 125.26818181818182,
                "pitch": 64,
                "velocity": 80,
                "duration": 0.06818181818182723,
                "tempo": 120.0
            },
            {
                "start_time": 125.30227272727272,
                "end_time": 125.36818181818181,
                "pitch": 0,
                "velocity": 80,
                "duration": 0.06590909090908781,
                "tempo": 120.0
            },
            {
                "start_time": 125.40227272727272,
                "end_time": 125.47045454545454,
                "pitch": 66,
                "velocity": 80,
                "duration": 0.06818181818182723,
                "tempo": 120.0
            },
            {
                "start_time": 125.50227272727273,
                "end_time": 125.57045454545454,
                "pitch": 62,
                "velocity": 80,
                "duration": 0.06818181818181301,
                "tempo": 120.0
            },
            {
                "start_time": 125.60454545454544,
                "end_time": 125.67045454545453,
                "pitch": 67,
                "velocity": 80,
                "duration": 0.06590909090908781,
                "tempo": 120.0
            },
            {
                "start_time": 125.70454545454545,
                "end_time": 125.77272727272727,
                "pitch": 64,
                "velocity": 80,
                "duration": 0.06818181818181301,
                "tempo": 120.0
            },
            {
                "start_time": 125.8090909090909,
                "end_time": 125.87727272727273,
                "pitch": 69,
                "velocity": 80,
                "duration": 0.06818181818182723,
                "tempo": 120.0
            },
            {
                "start_time": 125.91136363636363,
                "end_time": 126.08181818181818,
                "pitch": 67,
                "velocity": 80,
                "duration": 0.17045454545454675,
                "tempo": 120.0
            },
            {
                "start_time": 126.11363636363636,
                "end_time": 126.17954545454545,
                "pitch": 62,
                "velocity": 80,
                "duration": 0.06590909090908781,
                "tempo": 120.0
            },
            {
                "start_time": 126.21136363636363,
                "end_time": 126.27727272727272,
                "pitch": 67,
                "velocity": 80,
                "duration": 0.06590909090908781,
                "tempo": 120.0
            },
            {
                "start_time": 126.3090909090909,
                "end_time": 126.47272727272727,
                "pitch": 64,
                "velocity": 80,
                "duration": 0.16363636363637113,
                "tempo": 120.0
            },
            {
                "start_time": 126.50681818181818,
                "end_time": 126.57272727272726,
                "pitch": 67,
                "velocity": 80,
                "duration": 0.06590909090908781,
                "tempo": 120.0
            },
            {
                "start_time": 126.60681818181817,
                "end_time": 126.67272727272727,
                "pitch": 64,
                "velocity": 80,
                "duration": 0.06590909090910202,
                "tempo": 120.0
            },
            {
                "start_time": 126.70681818181818,
                "end_time": 126.87272727272726,
                "pitch": 69,
                "velocity": 80,
                "duration": 0.16590909090908212,
                "tempo": 120.0
            },
            {
                "start_time": 126.90681818181818,
                "end_time": 126.94090909090909,
                "pitch": 0,
                "velocity": 80,
                "duration": 0.03409090909090651,
                "tempo": 120.0
            },
            {
                "start_time": 126.975,
                "end_time": 127.0090909090909,
                "pitch": 67,
                "velocity": 80,
                "duration": 0.03409090909090651,
                "tempo": 120.0
            },
            {
                "start_time": 127.04090909090908,
                "end_time": 127.07499999999999,
                "pitch": 67,
                "velocity": 80,
                "duration": 0.03409090909090651,
                "tempo": 120.0
            },
            {
                "start_time": 127.10909090909091,
                "end_time": 127.14318181818182,
                "pitch": 67,
                "velocity": 80,
                "duration": 0.03409090909090651,
                "tempo": 120.0
            },
            {
                "start_time": 127.175,
                "end_time": 127.2090909090909,
                "pitch": 67,
                "velocity": 80,
                "duration": 0.03409090909090651,
                "tempo": 120.0
            },
            {
                "start_time": 127.24318181818181,
                "end_time": 127.27499999999999,
                "pitch": 67,
                "velocity": 80,
                "duration": 0.0318181818181813,
                "tempo": 120.0
            },
            {
                "start_time": 127.3090909090909,
                "end_time": 127.34090909090908,
                "pitch": 69,
                "velocity": 80,
                "duration": 0.0318181818181813,
                "tempo": 120.0
            },
            {
                "start_time": 127.37272727272726,
                "end_time": 127.40681818181818,
                "pitch": 69,
                "velocity": 80,
                "duration": 0.03409090909092072,
                "tempo": 120.0
            },
            {
                "start_time": 127.43863636363636,
                "end_time": 127.47272727272727,
                "pitch": 71,
                "velocity": 80,
                "duration": 0.03409090909090651,
                "tempo": 120.0
            },
            {
                "start_time": 127.50454545454545,
                "end_time": 127.53636363636363,
                "pitch": 71,
                "velocity": 80,
                "duration": 0.0318181818181813,
                "tempo": 120.0
            },
            {
                "start_time": 127.57045454545454,
                "end_time": 127.60227272727272,
                "pitch": 71,
                "velocity": 80,
                "duration": 0.0318181818181813,
                "tempo": 120.0
            },
            {
                "start_time": 127.63636363636363,
                "end_time": 127.66818181818181,
                "pitch": 72,
                "velocity": 80,
                "duration": 0.0318181818181813,
                "tempo": 120.0
            },
            {
                "start_time": 127.70227272727273,
                "end_time": 127.73636363636363,
                "pitch": 72,
                "velocity": 80,
                "duration": 0.03409090909090651,
                "tempo": 120.0
            },
            {
                "start_time": 127.77045454545454,
                "end_time": 127.80681818181817,
                "pitch": 72,
                "velocity": 80,
                "duration": 0.03636363636363171,
                "tempo": 120.0
            },
            {
                "start_time": 127.84090909090908,
                "end_time": 127.875,
                "pitch": 74,
                "velocity": 80,
                "duration": 0.03409090909092072,
                "tempo": 120.0
            },
            {
                "start_time": 127.9090909090909,
                "end_time": 127.94318181818181,
                "pitch": 74,
                "velocity": 80,
                "duration": 0.03409090909090651,
                "tempo": 120.0
            },
            {
                "start_time": 127.97727272727272,
                "end_time": 128.01136363636363,
                "pitch": 76,
                "velocity": 80,
                "duration": 0.03409090909090651,
                "tempo": 120.0
            },
            {
                "start_time": 128.04545454545453,
                "end_time": 128.07954545454544,
                "pitch": 76,
                "velocity": 80,
                "duration": 0.03409090909090651,
                "tempo": 120.0
            },
            {
                "start_time": 128.11363636363635,
                "end_time": 128.28181818181818,
                "pitch": 64,
                "velocity": 80,
                "duration": 0.16818181818183575,
                "tempo": 120.0
            },
            {
                "start_time": 128.31363636363636,
                "end_time": 128.38181818181818,
                "pitch": 67,
                "velocity": 80,
                "duration": 0.06818181818181301,
                "tempo": 120.0
            },
            {
                "start_time": 128.41590909090908,
                "end_time": 128.48181818181817,
                "pitch": 69,
                "velocity": 80,
                "duration": 0.06590909090908781,
                "tempo": 120.0
            },
            {
                "start_time": 128.51590909090908,
                "end_time": 128.58181818181816,
                "pitch": 0,
                "velocity": 80,
                "duration": 0.06590909090908781,
                "tempo": 120.0
            },
            {
                "start_time": 128.61590909090907,
                "end_time": 128.6818181818182,
                "pitch": 64,
                "velocity": 80,
                "duration": 0.06590909090911623,
                "tempo": 120.0
            },
            {
                "start_time": 128.7159090909091,
                "end_time": 128.78181818181818,
                "pitch": 64,
                "velocity": 80,
                "duration": 0.06590909090908781,
                "tempo": 120.0
            },
            {
                "start_time": 128.8159090909091,
                "end_time": 128.88181818181818,
                "pitch": 64,
                "velocity": 80,
                "duration": 0.06590909090908781,
                "tempo": 120.0
            },
            {
                "start_time": 128.91590909090908,
                "end_time": 128.9840909090909,
                "pitch": 64,
                "velocity": 80,
                "duration": 0.06818181818181301,
                "tempo": 120.0
            },
            {
                "start_time": 129.0181818181818,
                "end_time": 129.1909090909091,
                "pitch": 67,
                "velocity": 80,
                "duration": 0.17272727272728616,
                "tempo": 120.0
            },
            {
                "start_time": 129.225,
                "end_time": 129.2931818181818,
                "pitch": 69,
                "velocity": 80,
                "duration": 0.06818181818181301,
                "tempo": 120.0
            },
            {
                "start_time": 129.325,
                "end_time": 129.39090909090908,
                "pitch": 64,
                "velocity": 80,
                "duration": 0.06590909090908781,
                "tempo": 120.0
            },
            {
                "start_time": 129.42272727272726,
                "end_time": 129.48863636363635,
                "pitch": 64,
                "velocity": 80,
                "duration": 0.06590909090908781,
                "tempo": 120.0
            },
            {
                "start_time": 129.52045454545453,
                "end_time": 129.55454545454546,
                "pitch": 64,
                "velocity": 80,
                "duration": 0.03409090909093493,
                "tempo": 120.0
            },
            {
                "start_time": 129.58636363636364,
                "end_time": 129.61818181818182,
                "pitch": 64,
                "velocity": 80,
                "duration": 0.0318181818181813,
                "tempo": 120.0
            },
            {
                "start_time": 129.65227272727273,
                "end_time": 129.6840909090909,
                "pitch": 64,
                "velocity": 80,
                "duration": 0.0318181818181813,
                "tempo": 120.0
            },
            {
                "start_time": 129.71818181818182,
                "end_time": 129.78636363636363,
                "pitch": 0,
                "velocity": 80,
                "duration": 0.06818181818181301,
                "tempo": 120.0
            },
            {
                "start_time": 129.8181818181818,
                "end_time": 129.88636363636363,
                "pitch": 71,
                "velocity": 80,
                "duration": 0.06818181818181301,
                "tempo": 120.0
            },
            {
                "start_time": 129.92045454545453,
                "end_time": 129.98636363636362,
                "pitch": 0,
                "velocity": 80,
                "duration": 0.06590909090908781,
                "tempo": 120.0
            },
            {
                "start_time": 130.02045454545453,
                "end_time": 130.08636363636364,
                "pitch": 72,
                "velocity": 80,
                "duration": 0.06590909090911623,
                "tempo": 120.0
            },
            {
                "start_time": 130.12045454545455,
                "end_time": 130.18636363636364,
                "pitch": 72,
                "velocity": 80,
                "duration": 0.06590909090908781,
                "tempo": 120.0
            },
            {
                "start_time": 130.22045454545454,
                "end_time": 130.35454545454544,
                "pitch": 71,
                "velocity": 80,
                "duration": 0.13409090909090082,
                "tempo": 120.0
            },
            {
                "start_time": 130.38636363636363,
                "end_time": 130.42045454545453,
                "pitch": 71,
                "velocity": 80,
                "duration": 0.03409090909090651,
                "tempo": 120.0
            },
            {
                "start_time": 130.45454545454544,
                "end_time": 130.48863636363635,
                "pitch": 71,
                "velocity": 80,
                "duration": 0.03409090909090651,
                "tempo": 120.0
            },
            {
                "start_time": 130.52272727272728,
                "end_time": 130.5909090909091,
                "pitch": 71,
                "velocity": 80,
                "duration": 0.06818181818181301,
                "tempo": 120.0
            },
            {
                "start_time": 130.625,
                "end_time": 130.6931818181818,
                "pitch": 71,
                "velocity": 80,
                "duration": 0.06818181818181301,
                "tempo": 120.0
            },
            {
                "start_time": 130.72727272727272,
                "end_time": 130.76136363636363,
                "pitch": 71,
                "velocity": 80,
                "duration": 0.03409090909090651,
                "tempo": 120.0
            },
            {
                "start_time": 130.79545454545453,
                "end_time": 130.82954545454544,
                "pitch": 71,
                "velocity": 80,
                "duration": 0.03409090909090651,
                "tempo": 120.0
            },
            {
                "start_time": 130.86363636363635,
                "end_time": 130.89772727272728,
                "pitch": 71,
                "velocity": 80,
                "duration": 0.03409090909093493,
                "tempo": 120.0
            },
            {
                "start_time": 130.92954545454546,
                "end_time": 131.09318181818182,
                "pitch": 69,
                "velocity": 80,
                "duration": 0.16363636363635692,
                "tempo": 120.0
            },
            {
                "start_time": 131.12727272727273,
                "end_time": 131.1909090909091,
                "pitch": 67,
                "velocity": 80,
                "duration": 0.0636363636363626,
                "tempo": 120.0
            },
            {
                "start_time": 131.225,
                "end_time": 131.29090909090908,
                "pitch": 69,
                "velocity": 80,
                "duration": 0.06590909090908781,
                "tempo": 120.0
            },
            {
                "start_time": 131.325,
                "end_time": 131.49090909090907,
                "pitch": 0,
                "velocity": 80,
                "duration": 0.16590909090908212,
                "tempo": 120.0
            },
            {
                "start_time": 131.525,
                "end_time": 131.59318181818182,
                "pitch": 69,
                "velocity": 80,
                "duration": 0.06818181818181301,
                "tempo": 120.0
            },
            {
                "start_time": 131.625,
                "end_time": 131.6931818181818,
                "pitch": 69,
                "velocity": 80,
                "duration": 0.06818181818181301,
                "tempo": 120.0
            },
            {
                "start_time": 131.72727272727272,
                "end_time": 131.7931818181818,
                "pitch": 0,
                "velocity": 80,
                "duration": 0.06590909090908781,
                "tempo": 120.0
            },
            {
                "start_time": 131.8272727272727,
                "end_time": 131.89545454545453,
                "pitch": 69,
                "velocity": 80,
                "duration": 0.06818181818181301,
                "tempo": 120.0
            },
            {
                "start_time": 131.9272727272727,
                "end_time": 131.99545454545455,
                "pitch": 71,
                "velocity": 80,
                "duration": 0.06818181818184144,
                "tempo": 120.0
            },
            {
                "start_time": 132.02954545454546,
                "end_time": 132.09545454545454,
                "pitch": 72,
                "velocity": 80,
                "duration": 0.06590909090908781,
                "tempo": 120.0
            },
            {
                "start_time": 132.12954545454545,
                "end_time": 132.19772727272726,
                "pitch": 0,
                "velocity": 80,
                "duration": 0.06818181818181301,
                "tempo": 120.0
            },
            {
                "start_time": 132.23181818181817,
                "end_time": 132.3022727272727,
                "pitch": 69,
                "velocity": 80,
                "duration": 0.07045454545453822,
                "tempo": 120.0
            },
            {
                "start_time": 132.33636363636364,
                "end_time": 132.40454545454546,
                "pitch": 69,
                "velocity": 80,
                "duration": 0.06818181818181301,
                "tempo": 120.0
            },
            {
                "start_time": 132.43863636363636,
                "end_time": 132.50681818181818,
                "pitch": 71,
                "velocity": 80,
                "duration": 0.06818181818181301,
                "tempo": 120.0
            },
            {
                "start_time": 132.53863636363636,
                "end_time": 132.60454545454544,
                "pitch": 72,
                "velocity": 80,
                "duration": 0.06590909090908781,
                "tempo": 120.0
            },
            {
                "start_time": 132.63636363636363,
                "end_time": 132.7022727272727,
                "pitch": 69,
                "velocity": 80,
                "duration": 0.06590909090908781,
                "tempo": 120.0
            },
            {
                "start_time": 132.7340909090909,
                "end_time": 132.79999999999998,
                "pitch": 69,
                "velocity": 80,
                "duration": 0.06590909090908781,
                "tempo": 120.0
            },
            {
                "start_time": 132.83181818181816,
                "end_time": 132.89772727272728,
                "pitch": 71,
                "velocity": 80,
                "duration": 0.06590909090911623,
                "tempo": 120.0
            },
            {
                "start_time": 132.9318181818182,
                "end_time": 133.0,
                "pitch": 0,
                "velocity": 80,
                "duration": 0.06818181818181301,
                "tempo": 120.0
            },
            {
                "start_time": 133.03181818181818,
                "end_time": 133.2,
                "pitch": 72,
                "velocity": 80,
                "duration": 0.16818181818180733,
                "tempo": 120.0
            },
            {
                "start_time": 133.2340909090909,
                "end_time": 133.3022727272727,
                "pitch": 69,
                "velocity": 80,
                "duration": 0.06818181818181301,
                "tempo": 120.0
            },
            {
                "start_time": 133.3340909090909,
                "end_time": 133.40227272727273,
                "pitch": 71,
                "velocity": 80,
                "duration": 0.06818181818184144,
                "tempo": 120.0
            },
            {
                "start_time": 133.43636363636364,
                "end_time": 133.50227272727273,
                "pitch": 0,
                "velocity": 80,
                "duration": 0.06590909090908781,
                "tempo": 120.0
            },
            {
                "start_time": 133.53636363636363,
                "end_time": 133.60227272727272,
                "pitch": 72,
                "velocity": 80,
                "duration": 0.06590909090908781,
                "tempo": 120.0
            },
            {
                "start_time": 133.63636363636363,
                "end_time": 133.70454545454544,
                "pitch": 69,
                "velocity": 80,
                "duration": 0.06818181818181301,
                "tempo": 120.0
            },
            {
                "start_time": 133.73863636363635,
                "end_time": 133.8409090909091,
                "pitch": 69,
                "velocity": 80,
                "duration": 0.10227272727274794,
                "tempo": 120.0
            },
            {
                "start_time": 133.875,
                "end_time": 133.97727272727272,
                "pitch": 71,
                "velocity": 80,
                "duration": 0.10227272727271952,
                "tempo": 120.0
            },
            {
                "start_time": 134.01136363636363,
                "end_time": 134.11363636363635,
                "pitch": 72,
                "velocity": 80,
                "duration": 0.10227272727271952,
                "tempo": 120.0
            },
            {
                "start_time": 134.14772727272725,
                "end_time": 134.24545454545455,
                "pitch": 74,
                "velocity": 80,
                "duration": 0.09772727272729753,
                "tempo": 120.0
            },
            {
                "start_time": 134.27727272727273,
                "end_time": 134.375,
                "pitch": 76,
                "velocity": 80,
                "duration": 0.09772727272726911,
                "tempo": 120.0
            },
            {
                "start_time": 134.4090909090909,
                "end_time": 134.50681818181818,
                "pitch": 76,
                "velocity": 80,
                "duration": 0.09772727272726911,
                "tempo": 120.0
            },
            {
                "start_time": 134.54090909090908,
                "end_time": 134.60681818181817,
                "pitch": 0,
                "velocity": 80,
                "duration": 0.06590909090908781,
                "tempo": 120.0
            },
            {
                "start_time": 134.64090909090908,
                "end_time": 134.7090909090909,
                "pitch": 76,
                "velocity": 80,
                "duration": 0.06818181818181301,
                "tempo": 120.0
            },
            {
                "start_time": 134.74090909090907,
                "end_time": 134.8090909090909,
                "pitch": 0,
                "velocity": 80,
                "duration": 0.06818181818184144,
                "tempo": 120.0
            },
            {
                "start_time": 134.84318181818182,
                "end_time": 134.9090909090909,
                "pitch": 76,
                "velocity": 80,
                "duration": 0.06590909090908781,
                "tempo": 120.0
            },
            {
                "start_time": 134.9431818181818,
                "end_time": 135.01136363636363,
                "pitch": 69,
                "velocity": 80,
                "duration": 0.06818181818181301,
                "tempo": 120.0
            },
            {
                "start_time": 135.0431818181818,
                "end_time": 135.21136363636364,
                "pitch": 74,
                "velocity": 80,
                "duration": 0.16818181818183575,
                "tempo": 120.0
            },
            {
                "start_time": 135.24545454545455,
                "end_time": 135.31136363636364,
                "pitch": 69,
                "velocity": 80,
                "duration": 0.06590909090908781,
                "tempo": 120.0
            },
            {
                "start_time": 135.34772727272727,
                "end_time": 135.41590909090908,
                "pitch": 72,
                "velocity": 80,
                "duration": 0.06818181818181301,
                "tempo": 120.0
            },
            {
                "start_time": 135.45,
                "end_time": 135.62045454545455,
                "pitch": 67,
                "velocity": 80,
                "duration": 0.17045454545456096,
                "tempo": 120.0
            },
            {
                "start_time": 135.65454545454546,
                "end_time": 135.72272727272727,
                "pitch": 69,
                "velocity": 80,
                "duration": 0.06818181818181301,
                "tempo": 120.0
            },
            {
                "start_time": 135.75454545454545,
                "end_time": 135.78863636363636,
                "pitch": 72,
                "velocity": 80,
                "duration": 0.03409090909090651,
                "tempo": 120.0
            },
            {
                "start_time": 135.82045454545454,
                "end_time": 135.85227272727272,
                "pitch": 73,
                "velocity": 80,
                "duration": 0.0318181818181813,
                "tempo": 120.0
            },
            {
                "start_time": 135.88636363636363,
                "end_time": 135.9181818181818,
                "pitch": 74,
                "velocity": 80,
                "duration": 0.0318181818181813,
                "tempo": 120.0
            },
            {
                "start_time": 135.9522727272727,
                "end_time": 136.01590909090908,
                "pitch": 74,
                "velocity": 80,
                "duration": 0.0636363636363626,
                "tempo": 120.0
            },
            {
                "start_time": 136.04999999999998,
                "end_time": 136.11590909090907,
                "pitch": 74,
                "velocity": 80,
                "duration": 0.06590909090908781,
                "tempo": 120.0
            },
            {
                "start_time": 136.14772727272725,
                "end_time": 136.1818181818182,
                "pitch": 0,
                "velocity": 80,
                "duration": 0.03409090909093493,
                "tempo": 120.0
            },
            {
                "start_time": 136.2159090909091,
                "end_time": 136.24772727272727,
                "pitch": 72,
                "velocity": 80,
                "duration": 0.0318181818181813,
                "tempo": 120.0
            },
            {
                "start_time": 136.28181818181818,
                "end_time": 136.3159090909091,
                "pitch": 71,
                "velocity": 80,
                "duration": 0.03409090909090651,
                "tempo": 120.0
            },
            {
                "start_time": 136.34772727272727,
                "end_time": 136.38181818181818,
                "pitch": 69,
                "velocity": 80,
                "duration": 0.03409090909090651,
                "tempo": 120.0
            },
            {
                "start_time": 136.41590909090908,
                "end_time": 136.44772727272726,
                "pitch": 0,
                "velocity": 80,
                "duration": 0.0318181818181813,
                "tempo": 120.0
            },
            {
                "start_time": 136.48181818181817,
                "end_time": 136.51590909090908,
                "pitch": 72,
                "velocity": 80,
                "duration": 0.03409090909090651,
                "tempo": 120.0
            },
            {
                "start_time": 136.54772727272726,
                "end_time": 136.58181818181816,
                "pitch": 71,
                "velocity": 80,
                "duration": 0.03409090909090651,
                "tempo": 120.0
            },
            {
                "start_time": 136.61590909090907,
                "end_time": 136.65,
                "pitch": 69,
                "velocity": 80,
                "duration": 0.03409090909093493,
                "tempo": 120.0
            },
            {
                "start_time": 136.6840909090909,
                "end_time": 136.7159090909091,
                "pitch": 0,
                "velocity": 80,
                "duration": 0.0318181818181813,
                "tempo": 120.0
            },
            {
                "start_time": 136.75,
                "end_time": 136.7840909090909,
                "pitch": 72,
                "velocity": 80,
                "duration": 0.03409090909090651,
                "tempo": 120.0
            },
            {
                "start_time": 136.8181818181818,
                "end_time": 136.85,
                "pitch": 71,
                "velocity": 80,
                "duration": 0.0318181818181813,
                "tempo": 120.0
            },
            {
                "start_time": 136.8840909090909,
                "end_time": 136.9181818181818,
                "pitch": 69,
                "velocity": 80,
                "duration": 0.03409090909090651,
                "tempo": 120.0
            },
            {
                "start_time": 136.9522727272727,
                "end_time": 137.02045454545453,
                "pitch": 0,
                "velocity": 80,
                "duration": 0.06818181818181301,
                "tempo": 120.0
            },
            {
                "start_time": 137.05454545454546,
                "end_time": 137.22727272727272,
                "pitch": 71,
                "velocity": 80,
                "duration": 0.17272727272725774,
                "tempo": 120.0
            },
            {
                "start_time": 137.26136363636363,
                "end_time": 137.3272727272727,
                "pitch": 69,
                "velocity": 80,
                "duration": 0.06590909090908781,
                "tempo": 120.0
            },
            {
                "start_time": 137.36136363636362,
                "end_time": 137.3931818181818,
                "pitch": 67,
                "velocity": 80,
                "duration": 0.0318181818181813,
                "tempo": 120.0
            },
            {
                "start_time": 137.4272727272727,
                "end_time": 137.4590909090909,
                "pitch": 67,
                "velocity": 80,
                "duration": 0.0318181818181813,
                "tempo": 120.0
            },
            {
                "start_time": 137.49090909090907,
                "end_time": 137.525,
                "pitch": 67,
                "velocity": 80,
                "duration": 0.03409090909093493,
                "tempo": 120.0
            },
            {
                "start_time": 137.5568181818182,
                "end_time": 137.62272727272727,
                "pitch": 69,
                "velocity": 80,
                "duration": 0.06590909090908781,
                "tempo": 120.0
            },
            {
                "start_time": 137.65454545454546,
                "end_time": 137.72045454545454,
                "pitch": 69,
                "velocity": 80,
                "duration": 0.06590909090908781,
                "tempo": 120.0
            },
            {
                "start_time": 137.75454545454545,
                "end_time": 137.78863636363636,
                "pitch": 69,
                "velocity": 80,
                "duration": 0.03409090909090651,
                "tempo": 120.0
            },
            {
                "start_time": 137.82045454545454,
                "end_time": 137.85454545454544,
                "pitch": 69,
                "velocity": 80,
                "duration": 0.03409090909090651,
                "tempo": 120.0
            },
            {
                "start_time": 137.88863636363635,
                "end_time": 137.92272727272726,
                "pitch": 69,
                "velocity": 80,
                "duration": 0.03409090909090651,
                "tempo": 120.0
            },
            {
                "start_time": 137.95681818181816,
                "end_time": 137.98863636363635,
                "pitch": 69,
                "velocity": 80,
                "duration": 0.0318181818181813,
                "tempo": 120.0
            },
            {
                "start_time": 138.02272727272725,
                "end_time": 138.0568181818182,
                "pitch": 69,
                "velocity": 80,
                "duration": 0.03409090909093493,
                "tempo": 120.0
            },
            {
                "start_time": 138.0909090909091,
                "end_time": 138.12272727272727,
                "pitch": 69,
                "velocity": 80,
                "duration": 0.0318181818181813,
                "tempo": 120.0
            },
            {
                "start_time": 138.15681818181818,
                "end_time": 138.22272727272727,
                "pitch": 69,
                "velocity": 80,
                "duration": 0.06590909090908781,
                "tempo": 120.0
            },
            {
                "start_time": 138.25681818181818,
                "end_time": 138.32272727272726,
                "pitch": 69,
                "velocity": 80,
                "duration": 0.06590909090908781,
                "tempo": 120.0
            },
            {
                "start_time": 138.35681818181817,
                "end_time": 138.42272727272726,
                "pitch": 69,
                "velocity": 80,
                "duration": 0.06590909090908781,
                "tempo": 120.0
            },
            {
                "start_time": 138.45681818181816,
                "end_time": 138.52272727272725,
                "pitch": 69,
                "velocity": 80,
                "duration": 0.06590909090908781,
                "tempo": 120.0
            },
            {
                "start_time": 138.5568181818182,
                "end_time": 138.62727272727273,
                "pitch": 69,
                "velocity": 80,
                "duration": 0.07045454545453822,
                "tempo": 120.0
            },
            {
                "start_time": 138.66136363636363,
                "end_time": 138.72954545454544,
                "pitch": 67,
                "velocity": 80,
                "duration": 0.06818181818181301,
                "tempo": 120.0
            },
            {
                "start_time": 138.76363636363635,
                "end_time": 138.83181818181816,
                "pitch": 66,
                "velocity": 80,
                "duration": 0.06818181818181301,
                "tempo": 120.0
            },
            {
                "start_time": 138.86590909090907,
                "end_time": 138.9340909090909,
                "pitch": 64,
                "velocity": 80,
                "duration": 0.06818181818184144,
                "tempo": 120.0
            },
            {
                "start_time": 138.9659090909091,
                "end_time": 139.03181818181818,
                "pitch": 67,
                "velocity": 80,
                "duration": 0.06590909090908781,
                "tempo": 120.0
            },
            {
                "start_time": 139.06363636363636,
                "end_time": 139.12954545454545,
                "pitch": 66,
                "velocity": 80,
                "duration": 0.06590909090908781,
                "tempo": 120.0
            },
            {
                "start_time": 139.16363636363636,
                "end_time": 139.22727272727272,
                "pitch": 67,
                "velocity": 80,
                "duration": 0.0636363636363626,
                "tempo": 120.0
            },
            {
                "start_time": 139.26136363636363,
                "end_time": 139.3272727272727,
                "pitch": 64,
                "velocity": 80,
                "duration": 0.06590909090908781,
                "tempo": 120.0
            },
            {
                "start_time": 139.3590909090909,
                "end_time": 139.4272727272727,
                "pitch": 0,
                "velocity": 80,
                "duration": 0.06818181818181301,
                "tempo": 120.0
            },
            {
                "start_time": 139.46136363636364,
                "end_time": 139.52727272727273,
                "pitch": 62,
                "velocity": 80,
                "duration": 0.06590909090908781,
                "tempo": 120.0
            },
            {
                "start_time": 139.56136363636364,
                "end_time": 139.62727272727273,
                "pitch": 0,
                "velocity": 80,
                "duration": 0.06590909090908781,
                "tempo": 120.0
            },
            {
                "start_time": 139.66136363636363,
                "end_time": 139.72954545454544,
                "pitch": 62,
                "velocity": 80,
                "duration": 0.06818181818181301,
                "tempo": 120.0
            },
            {
                "start_time": 139.76363636363635,
                "end_time": 139.82954545454544,
                "pitch": 62,
                "velocity": 80,
                "duration": 0.06590909090908781,
                "tempo": 120.0
            },
            {
                "start_time": 139.86363636363635,
                "end_time": 139.92954545454546,
                "pitch": 60,
                "velocity": 80,
                "duration": 0.06590909090911623,
                "tempo": 120.0
            },
            {
                "start_time": 139.96363636363637,
                "end_time": 140.03181818181818,
                "pitch": 0,
                "velocity": 80,
                "duration": 0.06818181818181301,
                "tempo": 120.0
            },
            {
                "start_time": 140.06363636363636,
                "end_time": 140.13181818181818,
                "pitch": 60,
                "velocity": 80,
                "duration": 0.06818181818181301,
                "tempo": 120.0
            },
            {
                "start_time": 140.16590909090908,
                "end_time": 140.26590909090908,
                "pitch": 60,
                "velocity": 80,
                "duration": 0.09999999999999432,
                "tempo": 120.0
            },
            {
                "start_time": 140.29772727272726,
                "end_time": 140.39772727272725,
                "pitch": 59,
                "velocity": 80,
                "duration": 0.09999999999999432,
                "tempo": 120.0
            },
            {
                "start_time": 140.4318181818182,
                "end_time": 140.53181818181818,
                "pitch": 57,
                "velocity": 80,
                "duration": 0.09999999999999432,
                "tempo": 120.0
            },
            {
                "start_time": 140.5659090909091,
                "end_time": 140.66590909090908,
                "pitch": 55,
                "velocity": 80,
                "duration": 0.09999999999999432,
                "tempo": 120.0
            },
            {
                "start_time": 140.7,
                "end_time": 140.79999999999998,
                "pitch": 55,
                "velocity": 80,
                "duration": 0.09999999999999432,
                "tempo": 120.0
            },
            {
                "start_time": 140.8340909090909,
                "end_time": 140.9340909090909,
                "pitch": 52,
                "velocity": 80,
                "duration": 0.10000000000002274,
                "tempo": 120.0
            },
            {
                "start_time": 140.96818181818182,
                "end_time": 141.0340909090909,
                "pitch": 0,
                "velocity": 80,
                "duration": 0.06590909090908781,
                "tempo": 120.0
            },
            {
                "start_time": 141.0681818181818,
                "end_time": 141.13636363636363,
                "pitch": 57,
                "velocity": 80,
                "duration": 0.06818181818181301,
                "tempo": 120.0
            },
            {
                "start_time": 141.17045454545453,
                "end_time": 141.23636363636362,
                "pitch": 0,
                "velocity": 80,
                "duration": 0.06590909090908781,
                "tempo": 120.0
            },
            {
                "start_time": 141.27045454545453,
                "end_time": 141.33636363636364,
                "pitch": 59,
                "velocity": 80,
                "duration": 0.06590909090911623,
                "tempo": 120.0
            },
            {
                "start_time": 141.37045454545455,
                "end_time": 141.43863636363636,
                "pitch": 0,
                "velocity": 80,
                "duration": 0.06818181818181301,
                "tempo": 120.0
            },
            {
                "start_time": 141.47045454545454,
                "end_time": 141.53863636363636,
                "pitch": 57,
                "velocity": 80,
                "duration": 0.06818181818181301,
                "tempo": 120.0
            },
            {
                "start_time": 141.57272727272726,
                "end_time": 141.63863636363635,
                "pitch": 52,
                "velocity": 80,
                "duration": 0.06590909090908781,
                "tempo": 120.0
            },
            {
                "start_time": 141.67272727272726,
                "end_time": 141.74090909090907,
                "pitch": 59,
                "velocity": 80,
                "duration": 0.06818181818181301,
                "tempo": 120.0
            },
            {
                "start_time": 141.775,
                "end_time": 141.84318181818182,
                "pitch": 57,
                "velocity": 80,
                "duration": 0.06818181818181301,
                "tempo": 120.0
            },
            {
                "start_time": 141.87727272727273,
                "end_time": 142.04772727272726,
                "pitch": 52,
                "velocity": 80,
                "duration": 0.17045454545453254,
                "tempo": 120.0
            },
            {
                "start_time": 142.08181818181816,
                "end_time": 142.15,
                "pitch": 55,
                "velocity": 80,
                "duration": 0.06818181818184144,
                "tempo": 120.0
            },
            {
                "start_time": 142.1818181818182,
                "end_time": 142.24772727272727,
                "pitch": 57,
                "velocity": 80,
                "duration": 0.06590909090908781,
                "tempo": 120.0
            },
            {
                "start_time": 142.28181818181818,
                "end_time": 142.34545454545454,
                "pitch": 59,
                "velocity": 80,
                "duration": 0.0636363636363626,
                "tempo": 120.0
            },
            {
                "start_time": 142.37954545454545,
                "end_time": 142.4431818181818,
                "pitch": 57,
                "velocity": 80,
                "duration": 0.0636363636363626,
                "tempo": 120.0
            },
            {
                "start_time": 142.47727272727272,
                "end_time": 142.5431818181818,
                "pitch": 60,
                "velocity": 80,
                "duration": 0.06590909090908781,
                "tempo": 120.0
            },
            {
                "start_time": 142.5772727272727,
                "end_time": 142.6431818181818,
                "pitch": 0,
                "velocity": 80,
                "duration": 0.06590909090908781,
                "tempo": 120.0
            },
            {
                "start_time": 142.6772727272727,
                "end_time": 142.84545454545454,
                "pitch": 62,
                "velocity": 80,
                "duration": 0.16818181818183575,
                "tempo": 120.0
            },
            {
                "start_time": 142.87727272727273,
                "end_time": 143.04545454545453,
                "pitch": 57,
                "velocity": 80,
                "duration": 0.16818181818180733,
                "tempo": 120.0
            },
            {
                "start_time": 143.07954545454544,
                "end_time": 143.14772727272725,
                "pitch": 60,
                "velocity": 80,
                "duration": 0.06818181818181301,
                "tempo": 120.0
            },
            {
                "start_time": 143.17954545454546,
                "end_time": 143.24772727272727,
                "pitch": 62,
                "velocity": 80,
                "duration": 0.06818181818181301,
                "tempo": 120.0
            },
            {
                "start_time": 143.28181818181818,
                "end_time": 143.41590909090908,
                "pitch": 0,
                "velocity": 80,
                "duration": 0.13409090909090082,
                "tempo": 120.0
            },
            {
                "start_time": 143.44772727272726,
                "end_time": 143.48181818181817,
                "pitch": 65,
                "velocity": 80,
                "duration": 0.03409090909090651,
                "tempo": 120.0
            },
            {
                "start_time": 143.51590909090908,
                "end_time": 143.54999999999998,
                "pitch": 0,
                "velocity": 80,
                "duration": 0.03409090909090651,
                "tempo": 120.0
            },
            {
                "start_time": 143.5840909090909,
                "end_time": 143.61590909090907,
                "pitch": 65,
                "velocity": 80,
                "duration": 0.0318181818181813,
                "tempo": 120.0
            },
            {
                "start_time": 143.65,
                "end_time": 143.75,
                "pitch": 0,
                "velocity": 80,
                "duration": 0.09999999999999432,
                "tempo": 120.0
            },
            {
                "start_time": 143.7840909090909,
                "end_time": 143.85227272727272,
                "pitch": 62,
                "velocity": 80,
                "duration": 0.06818181818181301,
                "tempo": 120.0
            },
            {
                "start_time": 143.8840909090909,
                "end_time": 143.9522727272727,
                "pitch": 63,
                "velocity": 80,
                "duration": 0.06818181818181301,
                "tempo": 120.0
            },
            {
                "start_time": 143.98636363636362,
                "end_time": 144.0522727272727,
                "pitch": 64,
                "velocity": 80,
                "duration": 0.06590909090908781,
                "tempo": 120.0
            },
            {
                "start_time": 144.08636363636364,
                "end_time": 144.15227272727273,
                "pitch": 67,
                "velocity": 80,
                "duration": 0.06590909090908781,
                "tempo": 120.0
            },
            {
                "start_time": 144.18636363636364,
                "end_time": 144.35227272727272,
                "pitch": 0,
                "velocity": 80,
                "duration": 0.16590909090908212,
                "tempo": 120.0
            },
            {
                "start_time": 144.38636363636363,
                "end_time": 144.4522727272727,
                "pitch": 69,
                "velocity": 80,
                "duration": 0.06590909090908781,
                "tempo": 120.0
            },
            {
                "start_time": 144.48636363636362,
                "end_time": 144.55454545454543,
                "pitch": 69,
                "velocity": 80,
                "duration": 0.06818181818181301,
                "tempo": 120.0
            },
            {
                "start_time": 144.58636363636364,
                "end_time": 144.65454545454546,
                "pitch": 0,
                "velocity": 80,
                "duration": 0.06818181818181301,
                "tempo": 120.0
            },
            {
                "start_time": 144.68863636363636,
                "end_time": 144.75454545454545,
                "pitch": 69,
                "velocity": 80,
                "duration": 0.06590909090908781,
                "tempo": 120.0
            },
            {
                "start_time": 144.78863636363636,
                "end_time": 144.85454545454544,
                "pitch": 69,
                "velocity": 80,
                "duration": 0.06590909090908781,
                "tempo": 120.0
            },
            {
                "start_time": 144.88863636363635,
                "end_time": 144.95681818181816,
                "pitch": 69,
                "velocity": 80,
                "duration": 0.06818181818181301,
                "tempo": 120.0
            },
            {
                "start_time": 144.99090909090907,
                "end_time": 145.025,
                "pitch": 69,
                "velocity": 80,
                "duration": 0.03409090909093493,
                "tempo": 120.0
            },
            {
                "start_time": 145.09318181818182,
                "end_time": 145.16136363636363,
                "pitch": 71,
                "velocity": 80,
                "duration": 0.06818181818181301,
                "tempo": 120.0
            },
            {
                "start_time": 145.19545454545454,
                "end_time": 145.36590909090907,
                "pitch": 72,
                "velocity": 80,
                "duration": 0.17045454545453254,
                "tempo": 120.0
            },
            {
                "start_time": 145.4,
                "end_time": 145.46363636363637,
                "pitch": 72,
                "velocity": 80,
                "duration": 0.0636363636363626,
                "tempo": 120.0
            },
            {
                "start_time": 145.49772727272727,
                "end_time": 145.56363636363636,
                "pitch": 69,
                "velocity": 80,
                "duration": 0.06590909090908781,
                "tempo": 120.0
            },
            {
                "start_time": 145.59545454545454,
                "end_time": 145.66136363636363,
                "pitch": 71,
                "velocity": 80,
                "duration": 0.06590909090908781,
                "tempo": 120.0
            },
            {
                "start_time": 145.6931818181818,
                "end_time": 145.7590909090909,
                "pitch": 72,
                "velocity": 80,
                "duration": 0.06590909090908781,
                "tempo": 120.0
            },
            {
                "start_time": 145.7931818181818,
                "end_time": 145.8590909090909,
                "pitch": 0,
                "velocity": 80,
                "duration": 0.06590909090908781,
                "tempo": 120.0
            },
            {
                "start_time": 145.8931818181818,
                "end_time": 145.96136363636364,
                "pitch": 69,
                "velocity": 80,
                "duration": 0.06818181818184144,
                "tempo": 120.0
            },
            {
                "start_time": 145.99318181818182,
                "end_time": 146.06136363636364,
                "pitch": 71,
                "velocity": 80,
                "duration": 0.06818181818181301,
                "tempo": 120.0
            },
            {
                "start_time": 146.09545454545454,
                "end_time": 146.16136363636363,
                "pitch": 72,
                "velocity": 80,
                "duration": 0.06590909090908781,
                "tempo": 120.0
            },
            {
                "start_time": 146.19545454545454,
                "end_time": 146.26136363636363,
                "pitch": 69,
                "velocity": 80,
                "duration": 0.06590909090908781,
                "tempo": 120.0
            },
            {
                "start_time": 146.29545454545453,
                "end_time": 146.36136363636362,
                "pitch": 71,
                "velocity": 80,
                "duration": 0.06590909090908781,
                "tempo": 120.0
            },
            {
                "start_time": 146.39545454545453,
                "end_time": 146.46136363636364,
                "pitch": 72,
                "velocity": 80,
                "duration": 0.06590909090911623,
                "tempo": 120.0
            },
            {
                "start_time": 146.49545454545455,
                "end_time": 146.56136363636364,
                "pitch": 69,
                "velocity": 80,
                "duration": 0.06590909090908781,
                "tempo": 120.0
            },
            {
                "start_time": 146.59545454545454,
                "end_time": 146.66363636363636,
                "pitch": 71,
                "velocity": 80,
                "duration": 0.06818181818181301,
                "tempo": 120.0
            },
            {
                "start_time": 146.69772727272726,
                "end_time": 146.7681818181818,
                "pitch": 72,
                "velocity": 80,
                "duration": 0.07045454545453822,
                "tempo": 120.0
            },
            {
                "start_time": 146.8022727272727,
                "end_time": 146.87045454545455,
                "pitch": 69,
                "velocity": 80,
                "duration": 0.06818181818184144,
                "tempo": 120.0
            },
            {
                "start_time": 146.90454545454546,
                "end_time": 146.97272727272727,
                "pitch": 71,
                "velocity": 80,
                "duration": 0.06818181818181301,
                "tempo": 120.0
            },
            {
                "start_time": 147.00454545454545,
                "end_time": 147.07045454545454,
                "pitch": 72,
                "velocity": 80,
                "duration": 0.06590909090908781,
                "tempo": 120.0
            },
            {
                "start_time": 147.10227272727272,
                "end_time": 147.1681818181818,
                "pitch": 69,
                "velocity": 80,
                "duration": 0.06590909090908781,
                "tempo": 120.0
            },
            {
                "start_time": 147.2,
                "end_time": 147.26590909090908,
                "pitch": 74,
                "velocity": 80,
                "duration": 0.06590909090908781,
                "tempo": 120.0
            },
            {
                "start_time": 147.29772727272726,
                "end_time": 147.36363636363635,
                "pitch": 74,
                "velocity": 80,
                "duration": 0.06590909090908781,
                "tempo": 120.0
            },
            {
                "start_time": 147.39772727272725,
                "end_time": 147.4659090909091,
                "pitch": 74,
                "velocity": 80,
                "duration": 0.06818181818184144,
                "tempo": 120.0
            },
            {
                "start_time": 147.49772727272727,
                "end_time": 147.5659090909091,
                "pitch": 69,
                "velocity": 80,
                "duration": 0.06818181818181301,
                "tempo": 120.0
            },
            {
                "start_time": 147.6,
                "end_time": 147.66590909090908,
                "pitch": 69,
                "velocity": 80,
                "duration": 0.06590909090908781,
                "tempo": 120.0
            },
            {
                "start_time": 147.7,
                "end_time": 147.7681818181818,
                "pitch": 74,
                "velocity": 80,
                "duration": 0.06818181818181301,
                "tempo": 120.0
            },
            {
                "start_time": 147.79999999999998,
                "end_time": 147.86818181818182,
                "pitch": 74,
                "velocity": 80,
                "duration": 0.06818181818184144,
                "tempo": 120.0
            },
            {
                "start_time": 147.90227272727273,
                "end_time": 147.96818181818182,
                "pitch": 69,
                "velocity": 80,
                "duration": 0.06590909090908781,
                "tempo": 120.0
            },
            {
                "start_time": 148.00227272727273,
                "end_time": 148.0681818181818,
                "pitch": 76,
                "velocity": 80,
                "duration": 0.06590909090908781,
                "tempo": 120.0
            },
            {
                "start_time": 148.10227272727272,
                "end_time": 148.17045454545453,
                "pitch": 76,
                "velocity": 80,
                "duration": 0.06818181818181301,
                "tempo": 120.0
            },
            {
                "start_time": 148.20454545454544,
                "end_time": 148.27272727272725,
                "pitch": 76,
                "velocity": 80,
                "duration": 0.06818181818181301,
                "tempo": 120.0
            },
            {
                "start_time": 148.3068181818182,
                "end_time": 148.375,
                "pitch": 69,
                "velocity": 80,
                "duration": 0.06818181818181301,
                "tempo": 120.0
            },
            {
                "start_time": 148.4090909090909,
                "end_time": 148.47727272727272,
                "pitch": 69,
                "velocity": 80,
                "duration": 0.06818181818181301,
                "tempo": 120.0
            },
            {
                "start_time": 148.51363636363635,
                "end_time": 148.57954545454544,
                "pitch": 78,
                "velocity": 80,
                "duration": 0.06590909090908781,
                "tempo": 120.0
            },
            {
                "start_time": 148.61363636363635,
                "end_time": 148.6772727272727,
                "pitch": 78,
                "velocity": 80,
                "duration": 0.0636363636363626,
                "tempo": 120.0
            },
            {
                "start_time": 148.71136363636364,
                "end_time": 148.77727272727273,
                "pitch": 69,
                "velocity": 80,
                "duration": 0.06590909090908781,
                "tempo": 120.0
            },
            {
                "start_time": 148.8090909090909,
                "end_time": 148.875,
                "pitch": 69,
                "velocity": 80,
                "duration": 0.06590909090908781,
                "tempo": 120.0
            },
            {
                "start_time": 148.90681818181818,
                "end_time": 148.97272727272727,
                "pitch": 69,
                "velocity": 80,
                "duration": 0.06590909090908781,
                "tempo": 120.0
            },
            {
                "start_time": 149.00681818181818,
                "end_time": 149.07272727272726,
                "pitch": 0,
                "velocity": 80,
                "duration": 0.06590909090908781,
                "tempo": 120.0
            },
            {
                "start_time": 149.10681818181817,
                "end_time": 149.17499999999998,
                "pitch": 79,
                "velocity": 80,
                "duration": 0.06818181818181301,
                "tempo": 120.0
            },
            {
                "start_time": 149.20681818181816,
                "end_time": 149.275,
                "pitch": 79,
                "velocity": 80,
                "duration": 0.06818181818184144,
                "tempo": 120.0
            },
            {
                "start_time": 149.3090909090909,
                "end_time": 149.375,
                "pitch": 69,
                "velocity": 80,
                "duration": 0.06590909090908781,
                "tempo": 120.0
            },
            {
                "start_time": 149.4090909090909,
                "end_time": 149.47727272727272,
                "pitch": 69,
                "velocity": 80,
                "duration": 0.06818181818181301,
                "tempo": 120.0
            },
            {
                "start_time": 149.5090909090909,
                "end_time": 149.5772727272727,
                "pitch": 0,
                "velocity": 80,
                "duration": 0.06818181818181301,
                "tempo": 120.0
            },
            {
                "start_time": 149.61136363636362,
                "end_time": 149.6772727272727,
                "pitch": 81,
                "velocity": 80,
                "duration": 0.06590909090908781,
                "tempo": 120.0
            },
            {
                "start_time": 149.71136363636364,
                "end_time": 149.77727272727273,
                "pitch": 81,
                "velocity": 80,
                "duration": 0.06590909090908781,
                "tempo": 120.0
            },
            {
                "start_time": 149.81363636363636,
                "end_time": 149.88181818181818,
                "pitch": 0,
                "velocity": 80,
                "duration": 0.06818181818181301,
                "tempo": 120.0
            },
            {
                "start_time": 149.91590909090908,
                "end_time": 149.9840909090909,
                "pitch": 79,
                "velocity": 80,
                "duration": 0.06818181818181301,
                "tempo": 120.0
            },
            {
                "start_time": 150.0181818181818,
                "end_time": 150.08636363636364,
                "pitch": 79,
                "velocity": 80,
                "duration": 0.06818181818184144,
                "tempo": 120.0
            },
            {
                "start_time": 150.12045454545455,
                "end_time": 150.18863636363636,
                "pitch": 79,
                "velocity": 80,
                "duration": 0.06818181818181301,
                "tempo": 120.0
            },
            {
                "start_time": 150.22045454545454,
                "end_time": 150.25454545454545,
                "pitch": 79,
                "velocity": 80,
                "duration": 0.03409090909090651,
                "tempo": 120.0
            },
            {
                "start_time": 150.28636363636363,
                "end_time": 150.3181818181818,
                "pitch": 79,
                "velocity": 80,
                "duration": 0.0318181818181813,
                "tempo": 120.0
            },
            {
                "start_time": 150.35227272727272,
                "end_time": 150.3840909090909,
                "pitch": 80,
                "velocity": 80,
                "duration": 0.0318181818181813,
                "tempo": 120.0
            },
            {
                "start_time": 150.4181818181818,
                "end_time": 150.45,
                "pitch": 81,
                "velocity": 80,
                "duration": 0.0318181818181813,
                "tempo": 120.0
            },
            {
                "start_time": 150.48181818181817,
                "end_time": 150.51590909090908,
                "pitch": 81,
                "velocity": 80,
                "duration": 0.03409090909090651,
                "tempo": 120.0
            },
            {
                "start_time": 150.54772727272726,
                "end_time": 150.58181818181816,
                "pitch": 83,
                "velocity": 80,
                "duration": 0.03409090909090651,
                "tempo": 120.0
            },
            {
                "start_time": 150.61363636363635,
                "end_time": 150.6818181818182,
                "pitch": 81,
                "velocity": 80,
                "duration": 0.06818181818184144,
                "tempo": 120.0
            },
            {
                "start_time": 150.7159090909091,
                "end_time": 150.78181818181818,
                "pitch": 81,
                "velocity": 80,
                "duration": 0.06590909090908781,
                "tempo": 120.0
            },
            {
                "start_time": 150.8159090909091,
                "end_time": 150.8840909090909,
                "pitch": 76,
                "velocity": 80,
                "duration": 0.06818181818181301,
                "tempo": 120.0
            },
            {
                "start_time": 150.91590909090908,
                "end_time": 150.9840909090909,
                "pitch": 79,
                "velocity": 80,
                "duration": 0.06818181818181301,
                "tempo": 120.0
            },
            {
                "start_time": 151.0181818181818,
                "end_time": 151.0840909090909,
                "pitch": 81,
                "velocity": 80,
                "duration": 0.06590909090908781,
                "tempo": 120.0
            },
            {
                "start_time": 151.11818181818182,
                "end_time": 151.1840909090909,
                "pitch": 76,
                "velocity": 80,
                "duration": 0.06590909090908781,
                "tempo": 120.0
            },
            {
                "start_time": 151.21818181818182,
                "end_time": 151.28636363636363,
                "pitch": 79,
                "velocity": 80,
                "duration": 0.06818181818181301,
                "tempo": 120.0
            },
            {
                "start_time": 151.32045454545454,
                "end_time": 151.38636363636363,
                "pitch": 81,
                "velocity": 80,
                "duration": 0.06590909090908781,
                "tempo": 120.0
            },
            {
                "start_time": 151.42045454545453,
                "end_time": 151.48863636363635,
                "pitch": 76,
                "velocity": 80,
                "duration": 0.06818181818181301,
                "tempo": 120.0
            },
            {
                "start_time": 151.52272727272725,
                "end_time": 151.59318181818182,
                "pitch": 79,
                "velocity": 80,
                "duration": 0.07045454545456664,
                "tempo": 120.0
            },
            {
                "start_time": 151.62727272727273,
                "end_time": 151.69545454545454,
                "pitch": 81,
                "velocity": 80,
                "duration": 0.06818181818181301,
                "tempo": 120.0
            },
            {
                "start_time": 151.72954545454544,
                "end_time": 151.79772727272726,
                "pitch": 83,
                "velocity": 80,
                "duration": 0.06818181818181301,
                "tempo": 120.0
            },
            {
                "start_time": 151.82954545454544,
                "end_time": 151.89545454545453,
                "pitch": 0,
                "velocity": 80,
                "duration": 0.06590909090908781,
                "tempo": 120.0
            },
            {
                "start_time": 151.9272727272727,
                "end_time": 151.99318181818182,
                "pitch": 84,
                "velocity": 80,
                "duration": 0.06590909090911623,
                "tempo": 120.0
            },
            {
                "start_time": 152.025,
                "end_time": 152.0909090909091,
                "pitch": 0,
                "velocity": 80,
                "duration": 0.06590909090908781,
                "tempo": 120.0
            },
            {
                "start_time": 152.12272727272727,
                "end_time": 152.18863636363636,
                "pitch": 83,
                "velocity": 80,
                "duration": 0.06590909090908781,
                "tempo": 120.0
            },
            {
                "start_time": 152.22272727272727,
                "end_time": 152.28863636363636,
                "pitch": 0,
                "velocity": 80,
                "duration": 0.06590909090908781,
                "tempo": 120.0
            },
            {
                "start_time": 152.32272727272726,
                "end_time": 152.38863636363635,
                "pitch": 81,
                "velocity": 80,
                "duration": 0.06590909090908781,
                "tempo": 120.0
            },
            {
                "start_time": 152.42272727272726,
                "end_time": 152.48863636363635,
                "pitch": 0,
                "velocity": 80,
                "duration": 0.06590909090908781,
                "tempo": 120.0
            },
            {
                "start_time": 152.52272727272725,
                "end_time": 152.58863636363637,
                "pitch": 79,
                "velocity": 80,
                "duration": 0.06590909090911623,
                "tempo": 120.0
            },
            {
                "start_time": 152.62272727272727,
                "end_time": 152.6909090909091,
                "pitch": 0,
                "velocity": 80,
                "duration": 0.06818181818181301,
                "tempo": 120.0
            },
            {
                "start_time": 152.72272727272727,
                "end_time": 152.79090909090908,
                "pitch": 78,
                "velocity": 80,
                "duration": 0.06818181818181301,
                "tempo": 120.0
            },
            {
                "start_time": 152.825,
                "end_time": 152.89090909090908,
                "pitch": 0,
                "velocity": 80,
                "duration": 0.06590909090908781,
                "tempo": 120.0
            },
            {
                "start_time": 152.92499999999998,
                "end_time": 152.99318181818182,
                "pitch": 76,
                "velocity": 80,
                "duration": 0.06818181818184144,
                "tempo": 120.0
            },
            {
                "start_time": 153.025,
                "end_time": 153.09318181818182,
                "pitch": 0,
                "velocity": 80,
                "duration": 0.06818181818181301,
                "tempo": 120.0
            },
            {
                "start_time": 153.12727272727273,
                "end_time": 153.1931818181818,
                "pitch": 74,
                "velocity": 80,
                "duration": 0.06590909090908781,
                "tempo": 120.0
            },
            {
                "start_time": 153.22727272727272,
                "end_time": 153.2931818181818,
                "pitch": 0,
                "velocity": 80,
                "duration": 0.06590909090908781,
                "tempo": 120.0
            },
            {
                "start_time": 153.3272727272727,
                "end_time": 153.39545454545453,
                "pitch": 72,
                "velocity": 80,
                "duration": 0.06818181818181301,
                "tempo": 120.0
            },
            {
                "start_time": 153.4272727272727,
                "end_time": 153.49545454545455,
                "pitch": 0,
                "velocity": 80,
                "duration": 0.06818181818184144,
                "tempo": 120.0
            },
            {
                "start_time": 153.52954545454546,
                "end_time": 153.59545454545454,
                "pitch": 71,
                "velocity": 80,
                "duration": 0.06590909090908781,
                "tempo": 120.0
            },
            {
                "start_time": 153.62954545454545,
                "end_time": 153.69772727272726,
                "pitch": 0,
                "velocity": 80,
                "duration": 0.06818181818181301,
                "tempo": 120.0
            },
            {
                "start_time": 153.72954545454544,
                "end_time": 153.79772727272726,
                "pitch": 69,
                "velocity": 80,
                "duration": 0.06818181818181301,
                "tempo": 120.0
            },
            {
                "start_time": 153.83181818181816,
                "end_time": 154.2,
                "pitch": 67,
                "velocity": 80,
                "duration": 0.3681818181818244,
                "tempo": 120.0
            },
            {
                "start_time": 154.2340909090909,
                "end_time": 154.5,
                "pitch": 69,
                "velocity": 80,
                "duration": 0.26590909090910486,
                "tempo": 120.0
            },
            {
                "start_time": 154.5340909090909,
                "end_time": 154.7022727272727,
                "pitch": 72,
                "velocity": 80,
                "duration": 0.16818181818180733,
                "tempo": 120.0
            },
            {
                "start_time": 154.73636363636362,
                "end_time": 154.8068181818182,
                "pitch": 71,
                "velocity": 80,
                "duration": 0.07045454545456664,
                "tempo": 120.0
            },
            {
                "start_time": 154.8409090909091,
                "end_time": 155.01136363636363,
                "pitch": 67,
                "velocity": 80,
                "duration": 0.17045454545453254,
                "tempo": 120.0
            },
            {
                "start_time": 155.0431818181818,
                "end_time": 155.20681818181816,
                "pitch": 69,
                "velocity": 80,
                "duration": 0.16363636363635692,
                "tempo": 120.0
            },
            {
                "start_time": 155.23863636363635,
                "end_time": 155.40227272727273,
                "pitch": 0,
                "velocity": 80,
                "duration": 0.16363636363638534,
                "tempo": 120.0
            },
            {
                "start_time": 155.43636363636364,
                "end_time": 155.8068181818182,
                "pitch": 69,
                "velocity": 80,
                "duration": 0.3704545454545496,
                "tempo": 120.0
            },
            {
                "start_time": 155.83863636363637,
                "end_time": 156.10681818181817,
                "pitch": 71,
                "velocity": 80,
                "duration": 0.26818181818180165,
                "tempo": 120.0
            },
            {
                "start_time": 156.14090909090908,
                "end_time": 156.31136363636364,
                "pitch": 72,
                "velocity": 80,
                "duration": 0.17045454545456096,
                "tempo": 120.0
            },
            {
                "start_time": 156.34545454545454,
                "end_time": 156.41363636363636,
                "pitch": 71,
                "velocity": 80,
                "duration": 0.06818181818181301,
                "tempo": 120.0
            },
            {
                "start_time": 156.44772727272726,
                "end_time": 156.61818181818182,
                "pitch": 69,
                "velocity": 80,
                "duration": 0.17045454545456096,
                "tempo": 120.0
            },
            {
                "start_time": 156.65227272727273,
                "end_time": 156.81363636363636,
                "pitch": 71,
                "velocity": 80,
                "duration": 0.1613636363636317,
                "tempo": 120.0
            },
            {
                "start_time": 156.84772727272727,
                "end_time": 156.91363636363636,
                "pitch": 67,
                "velocity": 80,
                "duration": 0.06590909090908781,
                "tempo": 120.0
            },
            {
                "start_time": 156.94545454545454,
                "end_time": 157.01136363636363,
                "pitch": 69,
                "velocity": 80,
                "duration": 0.06590909090908781,
                "tempo": 120.0
            },
            {
                "start_time": 157.04545454545453,
                "end_time": 157.41363636363636,
                "pitch": 69,
                "velocity": 80,
                "duration": 0.3681818181818244,
                "tempo": 120.0
            },
            {
                "start_time": 157.44772727272726,
                "end_time": 157.7159090909091,
                "pitch": 71,
                "velocity": 80,
                "duration": 0.26818181818183007,
                "tempo": 120.0
            },
            {
                "start_time": 157.75,
                "end_time": 157.92045454545453,
                "pitch": 72,
                "velocity": 80,
                "duration": 0.17045454545453254,
                "tempo": 120.0
            },
            {
                "start_time": 157.95454545454544,
                "end_time": 158.02272727272725,
                "pitch": 67,
                "velocity": 80,
                "duration": 0.06818181818181301,
                "tempo": 120.0
            },
            {
                "start_time": 158.0568181818182,
                "end_time": 158.22727272727272,
                "pitch": 67,
                "velocity": 80,
                "duration": 0.17045454545453254,
                "tempo": 120.0
            },
            {
                "start_time": 158.2590909090909,
                "end_time": 158.52045454545453,
                "pitch": 69,
                "velocity": 80,
                "duration": 0.26136363636362603,
                "tempo": 120.0
            },
            {
                "start_time": 158.55454545454543,
                "end_time": 158.62045454545455,
                "pitch": 74,
                "velocity": 80,
                "duration": 0.06590909090911623,
                "tempo": 120.0
            },
            {
                "start_time": 158.65227272727273,
                "end_time": 158.72045454545454,
                "pitch": 0,
                "velocity": 80,
                "duration": 0.06818181818181301,
                "tempo": 120.0
            },
            {
                "start_time": 158.75454545454545,
                "end_time": 158.82045454545454,
                "pitch": 74,
                "velocity": 80,
                "duration": 0.06590909090908781,
                "tempo": 120.0
            },
            {
                "start_time": 158.85454545454544,
                "end_time": 158.92045454545453,
                "pitch": 72,
                "velocity": 80,
                "duration": 0.06590909090908781,
                "tempo": 120.0
            },
            {
                "start_time": 158.95454545454544,
                "end_time": 159.02272727272725,
                "pitch": 69,
                "velocity": 80,
                "duration": 0.06818181818181301,
                "tempo": 120.0
            },
            {
                "start_time": 159.0568181818182,
                "end_time": 159.12272727272727,
                "pitch": 0,
                "velocity": 80,
                "duration": 0.06590909090908781,
                "tempo": 120.0
            },
            {
                "start_time": 159.15681818181818,
                "end_time": 159.22272727272727,
                "pitch": 76,
                "velocity": 80,
                "duration": 0.06590909090908781,
                "tempo": 120.0
            },
            {
                "start_time": 159.25681818181818,
                "end_time": 159.325,
                "pitch": 74,
                "velocity": 80,
                "duration": 0.06818181818181301,
                "tempo": 120.0
            },
            {
                "start_time": 159.35681818181817,
                "end_time": 159.42499999999998,
                "pitch": 69,
                "velocity": 80,
                "duration": 0.06818181818181301,
                "tempo": 120.0
            },
            {
                "start_time": 159.4590909090909,
                "end_time": 159.525,
                "pitch": 0,
                "velocity": 80,
                "duration": 0.06590909090911623,
                "tempo": 120.0
            },
            {
                "start_time": 159.5590909090909,
                "end_time": 159.62727272727273,
                "pitch": 78,
                "velocity": 80,
                "duration": 0.06818181818181301,
                "tempo": 120.0
            },
            {
                "start_time": 159.6590909090909,
                "end_time": 159.72727272727272,
                "pitch": 76,
                "velocity": 80,
                "duration": 0.06818181818181301,
                "tempo": 120.0
            },
            {
                "start_time": 159.76136363636363,
                "end_time": 159.8272727272727,
                "pitch": 74,
                "velocity": 80,
                "duration": 0.06590909090908781,
                "tempo": 120.0
            },
            {
                "start_time": 159.86136363636362,
                "end_time": 159.9272727272727,
                "pitch": 0,
                "velocity": 80,
                "duration": 0.06590909090908781,
                "tempo": 120.0
            },
            {
                "start_time": 159.96136363636361,
                "end_time": 160.02954545454546,
                "pitch": 74,
                "velocity": 80,
                "duration": 0.06818181818184144,
                "tempo": 120.0
            },
            {
                "start_time": 160.06363636363636,
                "end_time": 160.12954545454545,
                "pitch": 75,
                "velocity": 80,
                "duration": 0.06590909090908781,
                "tempo": 120.0
            },
            {
                "start_time": 160.16363636363636,
                "end_time": 160.22954545454544,
                "pitch": 76,
                "velocity": 80,
                "duration": 0.06590909090908781,
                "tempo": 120.0
            },
            {
                "start_time": 160.26363636363635,
                "end_time": 160.29772727272726,
                "pitch": 74,
                "velocity": 80,
                "duration": 0.03409090909090651,
                "tempo": 120.0
            },
            {
                "start_time": 160.32954545454544,
                "end_time": 160.36363636363635,
                "pitch": 75,
                "velocity": 80,
                "duration": 0.03409090909090651,
                "tempo": 120.0
            },
            {
                "start_time": 160.39772727272725,
                "end_time": 160.42954545454543,
                "pitch": 76,
                "velocity": 80,
                "duration": 0.0318181818181813,
                "tempo": 120.0
            },
            {
                "start_time": 160.46363636363637,
                "end_time": 160.52954545454546,
                "pitch": 76,
                "velocity": 80,
                "duration": 0.06590909090908781,
                "tempo": 120.0
            },
            {
                "start_time": 160.56363636363636,
                "end_time": 160.62954545454545,
                "pitch": 76,
                "velocity": 80,
                "duration": 0.06590909090908781,
                "tempo": 120.0
            },
            {
                "start_time": 160.66363636363636,
                "end_time": 160.69772727272726,
                "pitch": 74,
                "velocity": 80,
                "duration": 0.03409090909090651,
                "tempo": 120.0
            },
            {
                "start_time": 160.73181818181817,
                "end_time": 160.76363636363635,
                "pitch": 75,
                "velocity": 80,
                "duration": 0.0318181818181813,
                "tempo": 120.0
            },
            {
                "start_time": 160.79772727272726,
                "end_time": 160.83181818181816,
                "pitch": 76,
                "velocity": 80,
                "duration": 0.03409090909090651,
                "tempo": 120.0
            },
            {
                "start_time": 160.86590909090907,
                "end_time": 160.9318181818182,
                "pitch": 76,
                "velocity": 80,
                "duration": 0.06590909090911623,
                "tempo": 120.0
            },
            {
                "start_time": 160.9659090909091,
                "end_time": 161.0340909090909,
                "pitch": 76,
                "velocity": 80,
                "duration": 0.06818181818181301,
                "tempo": 120.0
            },
            {
                "start_time": 161.0681818181818,
                "end_time": 161.10227272727272,
                "pitch": 74,
                "velocity": 80,
                "duration": 0.03409090909090651,
                "tempo": 120.0
            },
            {
                "start_time": 161.13636363636363,
                "end_time": 161.17045454545453,
                "pitch": 75,
                "velocity": 80,
                "duration": 0.03409090909090651,
                "tempo": 120.0
            },
            {
                "start_time": 161.20454545454544,
                "end_time": 161.23863636363635,
                "pitch": 76,
                "velocity": 80,
                "duration": 0.03409090909090651,
                "tempo": 120.0
            },
            {
                "start_time": 161.27272727272725,
                "end_time": 161.3409090909091,
                "pitch": 76,
                "velocity": 80,
                "duration": 0.06818181818184144,
                "tempo": 120.0
            },
            {
                "start_time": 161.375,
                "end_time": 161.4431818181818,
                "pitch": 76,
                "velocity": 80,
                "duration": 0.06818181818181301,
                "tempo": 120.0
            },
            {
                "start_time": 161.475,
                "end_time": 161.5090909090909,
                "pitch": 74,
                "velocity": 80,
                "duration": 0.03409090909090651,
                "tempo": 120.0
            },
            {
                "start_time": 161.54090909090908,
                "end_time": 161.575,
                "pitch": 75,
                "velocity": 80,
                "duration": 0.03409090909090651,
                "tempo": 120.0
            },
            {
                "start_time": 161.60681818181817,
                "end_time": 161.63863636363635,
                "pitch": 76,
                "velocity": 80,
                "duration": 0.0318181818181813,
                "tempo": 120.0
            },
            {
                "start_time": 161.67272727272726,
                "end_time": 161.73636363636362,
                "pitch": 76,
                "velocity": 80,
                "duration": 0.0636363636363626,
                "tempo": 120.0
            },
            {
                "start_time": 161.77045454545453,
                "end_time": 161.83636363636361,
                "pitch": 76,
                "velocity": 80,
                "duration": 0.06590909090908781,
                "tempo": 120.0
            },
            {
                "start_time": 161.87045454545455,
                "end_time": 161.90227272727273,
                "pitch": 74,
                "velocity": 80,
                "duration": 0.0318181818181813,
                "tempo": 120.0
            },
            {
                "start_time": 161.93636363636364,
                "end_time": 161.97045454545454,
                "pitch": 75,
                "velocity": 80,
                "duration": 0.03409090909090651,
                "tempo": 120.0
            },
            {
                "start_time": 162.00454545454545,
                "end_time": 162.03636363636363,
                "pitch": 76,
                "velocity": 80,
                "duration": 0.0318181818181813,
                "tempo": 120.0
            },
            {
                "start_time": 162.07045454545454,
                "end_time": 162.10454545454544,
                "pitch": 76,
                "velocity": 80,
                "duration": 0.03409090909090651,
                "tempo": 120.0
            },
            {
                "start_time": 162.13863636363635,
                "end_time": 162.17045454545453,
                "pitch": 76,
                "velocity": 80,
                "duration": 0.0318181818181813,
                "tempo": 120.0
            },
            {
                "start_time": 162.20454545454544,
                "end_time": 162.23863636363635,
                "pitch": 76,
                "velocity": 80,
                "duration": 0.03409090909090651,
                "tempo": 120.0
            },
            {
                "start_time": 162.27272727272725,
                "end_time": 162.33863636363637,
                "pitch": 76,
                "velocity": 80,
                "duration": 0.06590909090911623,
                "tempo": 120.0
            },
            {
                "start_time": 162.37272727272727,
                "end_time": 162.43863636363636,
                "pitch": 76,
                "velocity": 80,
                "duration": 0.06590909090908781,
                "tempo": 120.0
            },
            {
                "start_time": 162.47272727272727,
                "end_time": 162.53863636363636,
                "pitch": 76,
                "velocity": 80,
                "duration": 0.06590909090908781,
                "tempo": 120.0
            },
            {
                "start_time": 162.57272727272726,
                "end_time": 162.60454545454544,
                "pitch": 76,
                "velocity": 80,
                "duration": 0.0318181818181813,
                "tempo": 120.0
            },
            {
                "start_time": 162.67272727272726,
                "end_time": 162.70681818181816,
                "pitch": 76,
                "velocity": 80,
                "duration": 0.03409090909090651,
                "tempo": 120.0
            },
            {
                "start_time": 162.74090909090907,
                "end_time": 162.775,
                "pitch": 76,
                "velocity": 80,
                "duration": 0.03409090909093493,
                "tempo": 120.0
            },
            {
                "start_time": 162.8090909090909,
                "end_time": 162.84318181818182,
                "pitch": 76,
                "velocity": 80,
                "duration": 0.03409090909090651,
                "tempo": 120.0
            },
            {
                "start_time": 162.87727272727273,
                "end_time": 162.94772727272726,
                "pitch": 76,
                "velocity": 80,
                "duration": 0.07045454545453822,
                "tempo": 120.0
            },
            {
                "start_time": 162.98181818181817,
                "end_time": 163.04772727272726,
                "pitch": 76,
                "velocity": 80,
                "duration": 0.06590909090908781,
                "tempo": 120.0
            },
            {
                "start_time": 163.08181818181816,
                "end_time": 163.14772727272725,
                "pitch": 76,
                "velocity": 80,
                "duration": 0.06590909090908781,
                "tempo": 120.0
            },
            {
                "start_time": 163.17954545454543,
                "end_time": 163.24545454545455,
                "pitch": 74,
                "velocity": 80,
                "duration": 0.06590909090911623,
                "tempo": 120.0
            },
            {
                "start_time": 163.27727272727273,
                "end_time": 163.34318181818182,
                "pitch": 74,
                "velocity": 80,
                "duration": 0.06590909090908781,
                "tempo": 120.0
            },
            {
                "start_time": 163.375,
                "end_time": 163.4409090909091,
                "pitch": 74,
                "velocity": 80,
                "duration": 0.06590909090908781,
                "tempo": 120.0
            },
            {
                "start_time": 163.475,
                "end_time": 163.5431818181818,
                "pitch": 74,
                "velocity": 80,
                "duration": 0.06818181818181301,
                "tempo": 120.0
            },
            {
                "start_time": 163.575,
                "end_time": 163.6431818181818,
                "pitch": 72,
                "velocity": 80,
                "duration": 0.06818181818181301,
                "tempo": 120.0
            },
            {
                "start_time": 163.6772727272727,
                "end_time": 163.74318181818182,
                "pitch": 72,
                "velocity": 80,
                "duration": 0.06590909090911623,
                "tempo": 120.0
            },
            {
                "start_time": 163.77727272727273,
                "end_time": 163.84318181818182,
                "pitch": 72,
                "velocity": 80,
                "duration": 0.06590909090908781,
                "tempo": 120.0
            },
            {
                "start_time": 163.87727272727273,
                "end_time": 163.94545454545454,
                "pitch": 71,
                "velocity": 80,
                "duration": 0.06818181818181301,
                "tempo": 120.0
            },
            {
                "start_time": 163.97727272727272,
                "end_time": 164.04545454545453,
                "pitch": 71,
                "velocity": 80,
                "duration": 0.06818181818181301,
                "tempo": 120.0
            },
            {
                "start_time": 164.07954545454544,
                "end_time": 164.14545454545453,
                "pitch": 71,
                "velocity": 80,
                "duration": 0.06590909090908781,
                "tempo": 120.0
            },
            {
                "start_time": 164.17954545454543,
                "end_time": 164.21363636363637,
                "pitch": 71,
                "velocity": 80,
                "duration": 0.03409090909093493,
                "tempo": 120.0
            },
            {
                "start_time": 164.27954545454546,
                "end_time": 164.34772727272727,
                "pitch": 71,
                "velocity": 80,
                "duration": 0.06818181818181301,
                "tempo": 120.0
            },
            {
                "start_time": 164.37954545454545,
                "end_time": 164.44772727272726,
                "pitch": 71,
                "velocity": 80,
                "duration": 0.06818181818181301,
                "tempo": 120.0
            },
            {
                "start_time": 164.47954545454544,
                "end_time": 164.51363636363635,
                "pitch": 71,
                "velocity": 80,
                "duration": 0.03409090909090651,
                "tempo": 120.0
            },
            {
                "start_time": 164.54772727272726,
                "end_time": 164.57954545454544,
                "pitch": 69,
                "velocity": 80,
                "duration": 0.0318181818181813,
                "tempo": 120.0
            },
            {
                "start_time": 164.61363636363635,
                "end_time": 164.64772727272725,
                "pitch": 69,
                "velocity": 80,
                "duration": 0.03409090909090651,
                "tempo": 120.0
            },
            {
                "start_time": 164.67954545454543,
                "end_time": 164.74772727272727,
                "pitch": 69,
                "velocity": 80,
                "duration": 0.06818181818184144,
                "tempo": 120.0
            },
            {
                "start_time": 164.78181818181818,
                "end_time": 164.84772727272727,
                "pitch": 67,
                "velocity": 80,
                "duration": 0.06590909090908781,
                "tempo": 120.0
            },
            {
                "start_time": 164.88181818181818,
                "end_time": 164.94772727272726,
                "pitch": 67,
                "velocity": 80,
                "duration": 0.06590909090908781,
                "tempo": 120.0
            },
            {
                "start_time": 164.98181818181817,
                "end_time": 165.04999999999998,
                "pitch": 66,
                "velocity": 80,
                "duration": 0.06818181818181301,
                "tempo": 120.0
            },
            {
                "start_time": 165.0840909090909,
                "end_time": 165.15,
                "pitch": 0,
                "velocity": 80,
                "duration": 0.06590909090911623,
                "tempo": 120.0
            },
            {
                "start_time": 165.1840909090909,
                "end_time": 165.25,
                "pitch": 66,
                "velocity": 80,
                "duration": 0.06590909090908781,
                "tempo": 120.0
            },
            {
                "start_time": 165.2840909090909,
                "end_time": 165.35227272727272,
                "pitch": 64,
                "velocity": 80,
                "duration": 0.06818181818181301,
                "tempo": 120.0
            },
            {
                "start_time": 165.3840909090909,
                "end_time": 165.4522727272727,
                "pitch": 67,
                "velocity": 80,
                "duration": 0.06818181818181301,
                "tempo": 120.0
            },
            {
                "start_time": 165.48636363636362,
                "end_time": 165.5522727272727,
                "pitch": 62,
                "velocity": 80,
                "duration": 0.06590909090908781,
                "tempo": 120.0
            },
            {
                "start_time": 165.58636363636361,
                "end_time": 165.65454545454546,
                "pitch": 69,
                "velocity": 80,
                "duration": 0.06818181818184144,
                "tempo": 120.0
            },
            {
                "start_time": 165.68636363636364,
                "end_time": 165.75454545454545,
                "pitch": 64,
                "velocity": 80,
                "duration": 0.06818181818181301,
                "tempo": 120.0
            },
            {
                "start_time": 165.78863636363636,
                "end_time": 165.85454545454544,
                "pitch": 67,
                "velocity": 80,
                "duration": 0.06590909090908781,
                "tempo": 120.0
            },
            {
                "start_time": 165.88636363636363,
                "end_time": 165.9522727272727,
                "pitch": 66,
                "velocity": 80,
                "duration": 0.06590909090908781,
                "tempo": 120.0
            },
            {
                "start_time": 165.9840909090909,
                "end_time": 166.04999999999998,
                "pitch": 69,
                "velocity": 80,
                "duration": 0.06590909090908781,
                "tempo": 120.0
            },
            {
                "start_time": 166.08181818181816,
                "end_time": 166.11590909090907,
                "pitch": 69,
                "velocity": 80,
                "duration": 0.03409090909090651,
                "tempo": 120.0
            },
            {
                "start_time": 166.14772727272725,
                "end_time": 166.1818181818182,
                "pitch": 69,
                "velocity": 80,
                "duration": 0.03409090909093493,
                "tempo": 120.0
            },
            {
                "start_time": 166.21363636363637,
                "end_time": 166.24772727272727,
                "pitch": 69,
                "velocity": 80,
                "duration": 0.03409090909090651,
                "tempo": 120.0
            },
            {
                "start_time": 166.28181818181818,
                "end_time": 166.35,
                "pitch": 69,
                "velocity": 80,
                "duration": 0.06818181818181301,
                "tempo": 120.0
            },
            {
                "start_time": 166.3840909090909,
                "end_time": 166.4522727272727,
                "pitch": 69,
                "velocity": 80,
                "duration": 0.06818181818181301,
                "tempo": 120.0
            },
            {
                "start_time": 166.48636363636362,
                "end_time": 166.55454545454543,
                "pitch": 71,
                "velocity": 80,
                "duration": 0.06818181818181301,
                "tempo": 120.0
            },
            {
                "start_time": 166.58863636363637,
                "end_time": 166.65681818181818,
                "pitch": 69,
                "velocity": 80,
                "duration": 0.06818181818181301,
                "tempo": 120.0
            },
            {
                "start_time": 166.6909090909091,
                "end_time": 166.7590909090909,
                "pitch": 0,
                "velocity": 80,
                "duration": 0.06818181818181301,
                "tempo": 120.0
            },
            {
                "start_time": 166.79090909090908,
                "end_time": 166.8590909090909,
                "pitch": 57,
                "velocity": 80,
                "duration": 0.06818181818181301,
                "tempo": 120.0
            },
            {
                "start_time": 166.8931818181818,
                "end_time": 166.9590909090909,
                "pitch": 0,
                "velocity": 80,
                "duration": 0.06590909090908781,
                "tempo": 120.0
            },
            {
                "start_time": 166.9931818181818,
                "end_time": 167.05454545454543,
                "pitch": 60,
                "velocity": 80,
                "duration": 0.0613636363636374,
                "tempo": 120.0
            },
            {
                "start_time": 167.0840909090909,
                "end_time": 167.14545454545453,
                "pitch": 0,
                "velocity": 80,
                "duration": 0.0613636363636374,
                "tempo": 120.0
            },
            {
                "start_time": 167.17499999999998,
                "end_time": 167.23636363636362,
                "pitch": 62,
                "velocity": 80,
                "duration": 0.0613636363636374,
                "tempo": 120.0
            },
            {
                "start_time": 167.26590909090908,
                "end_time": 167.325,
                "pitch": 0,
                "velocity": 80,
                "duration": 0.05909090909091219,
                "tempo": 120.0
            },
            {
                "start_time": 167.35681818181817,
                "end_time": 167.42272727272726,
                "pitch": 64,
                "velocity": 80,
                "duration": 0.06590909090908781,
                "tempo": 120.0
            },
            {
                "start_time": 167.45454545454544,
                "end_time": 167.52272727272725,
                "pitch": 0,
                "velocity": 80,
                "duration": 0.06818181818181301,
                "tempo": 120.0
            },
            {
                "start_time": 167.5568181818182,
                "end_time": 167.62272727272727,
                "pitch": 62,
                "velocity": 80,
                "duration": 0.06590909090908781,
                "tempo": 120.0
            },
            {
                "start_time": 167.65681818181818,
                "end_time": 167.72272727272727,
                "pitch": 0,
                "velocity": 80,
                "duration": 0.06590909090908781,
                "tempo": 120.0
            },
            {
                "start_time": 167.75681818181818,
                "end_time": 167.82045454545454,
                "pitch": 64,
                "velocity": 80,
                "duration": 0.0636363636363626,
                "tempo": 120.0
            },
            {
                "start_time": 167.85227272727272,
                "end_time": 167.91590909090908,
                "pitch": 0,
                "velocity": 80,
                "duration": 0.0636363636363626,
                "tempo": 120.0
            },
            {
                "start_time": 167.94772727272726,
                "end_time": 168.01136363636363,
                "pitch": 67,
                "velocity": 80,
                "duration": 0.0636363636363626,
                "tempo": 120.0
            },
            {
                "start_time": 168.0431818181818,
                "end_time": 168.10681818181817,
                "pitch": 0,
                "velocity": 80,
                "duration": 0.0636363636363626,
                "tempo": 120.0
            },
            {
                "start_time": 168.13636363636363,
                "end_time": 168.19772727272726,
                "pitch": 69,
                "velocity": 80,
                "duration": 0.0613636363636374,
                "tempo": 120.0
            },
            {
                "start_time": 168.22727272727272,
                "end_time": 168.28636363636363,
                "pitch": 0,
                "velocity": 80,
                "duration": 0.05909090909091219,
                "tempo": 120.0
            },
            {
                "start_time": 168.3181818181818,
                "end_time": 168.37727272727273,
                "pitch": 69,
                "velocity": 80,
                "duration": 0.05909090909091219,
                "tempo": 120.0
            },
            {
                "start_time": 168.40681818181818,
                "end_time": 168.47045454545454,
                "pitch": 0,
                "velocity": 80,
                "duration": 0.0636363636363626,
                "tempo": 120.0
            },
            {
                "start_time": 168.50227272727273,
                "end_time": 168.57045454545454,
                "pitch": 72,
                "velocity": 80,
                "duration": 0.06818181818181301,
                "tempo": 120.0
            },
            {
                "start_time": 168.60454545454544,
                "end_time": 168.67045454545453,
                "pitch": 0,
                "velocity": 80,
                "duration": 0.06590909090908781,
                "tempo": 120.0
            },
            {
                "start_time": 168.70454545454544,
                "end_time": 168.77045454545453,
                "pitch": 74,
                "velocity": 80,
                "duration": 0.06590909090908781,
                "tempo": 120.0
            },
            {
                "start_time": 168.80454545454543,
                "end_time": 168.87272727272727,
                "pitch": 0,
                "velocity": 80,
                "duration": 0.06818181818184144,
                "tempo": 120.0
            },
            {
                "start_time": 168.90681818181818,
                "end_time": 168.97272727272727,
                "pitch": 76,
                "velocity": 80,
                "duration": 0.06590909090908781,
                "tempo": 120.0
            },
            {
                "start_time": 169.00681818181818,
                "end_time": 169.07272727272726,
                "pitch": 0,
                "velocity": 80,
                "duration": 0.06590909090908781,
                "tempo": 120.0
            },
            {
                "start_time": 169.10681818181817,
                "end_time": 169.17499999999998,
                "pitch": 79,
                "velocity": 80,
                "duration": 0.06818181818181301,
                "tempo": 120.0
            },
            {
                "start_time": 169.20681818181816,
                "end_time": 169.275,
                "pitch": 0,
                "velocity": 80,
                "duration": 0.06818181818184144,
                "tempo": 120.0
            },
            {
                "start_time": 169.3068181818182,
                "end_time": 169.37272727272727,
                "pitch": 80,
                "velocity": 80,
                "duration": 0.06590909090908781,
                "tempo": 120.0
            },
            {
                "start_time": 169.40454545454546,
                "end_time": 169.47045454545454,
                "pitch": 0,
                "velocity": 80,
                "duration": 0.06590909090908781,
                "tempo": 120.0
            },
            {
                "start_time": 169.50227272727273,
                "end_time": 170.98181818181817,
                "pitch": 81,
                "velocity": 80,
                "duration": 1.4795454545454447,
                "tempo": 120.0
            },
            {
                "start_time": 171.01590909090908,
                "end_time": 171.38636363636363,
                "pitch": 0,
                "velocity": 80,
                "duration": 0.3704545454545496,
                "tempo": 120.0
            },
            {
                "start_time": 171.42045454545453,
                "end_time": 171.48863636363635,
                "pitch": 0,
                "velocity": 80,
                "duration": 0.06818181818181301,
                "tempo": 120.0
            },
            {
                "start_time": 171.52272727272725,
                "end_time": 171.5909090909091,
                "pitch": 84,
                "velocity": 80,
                "duration": 0.06818181818184144,
                "tempo": 120.0
            },
            {
                "start_time": 171.625,
                "end_time": 171.69545454545454,
                "pitch": 0,
                "velocity": 80,
                "duration": 0.07045454545453822,
                "tempo": 120.0
            },
            {
                "start_time": 171.72954545454544,
                "end_time": 171.8022727272727,
                "pitch": 84,
                "velocity": 80,
                "duration": 0.07272727272726343,
                "tempo": 120.0
            },
            {
                "start_time": 171.83863636363637,
                "end_time": 172.1340909090909,
                "pitch": 0,
                "velocity": 80,
                "duration": 0.29545454545453254,
                "tempo": 120.0
            },
            {
                "start_time": 172.17045454545453,
                "end_time": 172.23636363636362,
                "pitch": 86,
                "velocity": 80,
                "duration": 0.06590909090908781,
                "tempo": 120.0
            },
            {
                "start_time": 172.27045454545453,
                "end_time": 172.33863636363637,
                "pitch": 0,
                "velocity": 80,
                "duration": 0.06818181818184144,
                "tempo": 120.0
            },
            {
                "start_time": 172.37045454545455,
                "end_time": 172.43863636363636,
                "pitch": 86,
                "velocity": 80,
                "duration": 0.06818181818181301,
                "tempo": 120.0
            },
            {
                "start_time": 172.47272727272727,
                "end_time": 173.1818181818182,
                "pitch": 0,
                "velocity": 80,
                "duration": 0.7090909090909179,
                "tempo": 120.0
            },
            {
                "start_time": 173.2159090909091,
                "end_time": 173.28181818181818,
                "pitch": 86,
                "velocity": 80,
                "duration": 0.06590909090908781,
                "tempo": 120.0
            },
            {
                "start_time": 173.3159090909091,
                "end_time": 173.3840909090909,
                "pitch": 0,
                "velocity": 80,
                "duration": 0.06818181818181301,
                "tempo": 120.0
            },
            {
                "start_time": 173.41590909090908,
                "end_time": 173.4840909090909,
                "pitch": 86,
                "velocity": 80,
                "duration": 0.06818181818181301,
                "tempo": 120.0
            },
            {
                "start_time": 173.5181818181818,
                "end_time": 173.79999999999998,
                "pitch": 0,
                "velocity": 80,
                "duration": 0.2818181818181813,
                "tempo": 120.0
            },
            {
                "start_time": 173.83636363636361,
                "end_time": 173.90681818181818,
                "pitch": 88,
                "velocity": 80,
                "duration": 0.07045454545456664,
                "tempo": 120.0
            },
            {
                "start_time": 173.9409090909091,
                "end_time": 174.00681818181818,
                "pitch": 0,
                "velocity": 80,
                "duration": 0.06590909090908781,
                "tempo": 120.0
            },
            {
                "start_time": 174.04090909090908,
                "end_time": 174.10681818181817,
                "pitch": 88,
                "velocity": 80,
                "duration": 0.06590909090908781,
                "tempo": 120.0
            },
            {
                "start_time": 174.14090909090908,
                "end_time": 174.8022727272727,
                "pitch": 0,
                "velocity": 80,
                "duration": 0.6613636363636317,
                "tempo": 120.0
            },
            {
                "start_time": 174.83636363636361,
                "end_time": 174.90227272727273,
                "pitch": 84,
                "velocity": 80,
                "duration": 0.06590909090911623,
                "tempo": 120.0
            },
            {
                "start_time": 174.93636363636364,
                "end_time": 175.00227272727273,
                "pitch": 0,
                "velocity": 80,
                "duration": 0.06590909090908781,
                "tempo": 120.0
            },
            {
                "start_time": 175.03636363636363,
                "end_time": 175.10454545454544,
                "pitch": 84,
                "velocity": 80,
                "duration": 0.06818181818181301,
                "tempo": 120.0
            },
            {
                "start_time": 175.13863636363635,
                "end_time": 175.41136363636363,
                "pitch": 0,
                "velocity": 80,
                "duration": 0.2727272727272805,
                "tempo": 120.0
            },
            {
                "start_time": 175.44545454545454,
                "end_time": 175.51363636363635,
                "pitch": 86,
                "velocity": 80,
                "duration": 0.06818181818181301,
                "tempo": 120.0
            },
            {
                "start_time": 175.54545454545453,
                "end_time": 175.6090909090909,
                "pitch": 0,
                "velocity": 80,
                "duration": 0.0636363636363626,
                "tempo": 120.0
            },
            {
                "start_time": 175.64090909090908,
                "end_time": 175.70454545454544,
                "pitch": 86,
                "velocity": 80,
                "duration": 0.0636363636363626,
                "tempo": 120.0
            },
            {
                "start_time": 175.73636363636362,
                "end_time": 176.40454545454546,
                "pitch": 0,
                "velocity": 80,
                "duration": 0.6681818181818358,
                "tempo": 120.0
            },
            {
                "start_time": 176.43636363636364,
                "end_time": 176.50227272727273,
                "pitch": 86,
                "velocity": 80,
                "duration": 0.06590909090908781,
                "tempo": 120.0
            },
            {
                "start_time": 176.5340909090909,
                "end_time": 176.6,
                "pitch": 0,
                "velocity": 80,
                "duration": 0.06590909090908781,
                "tempo": 120.0
            },
            {
                "start_time": 176.63181818181818,
                "end_time": 176.69772727272726,
                "pitch": 86,
                "velocity": 80,
                "duration": 0.06590909090908781,
                "tempo": 120.0
            },
            {
                "start_time": 176.7340909090909,
                "end_time": 177.01590909090908,
                "pitch": 0,
                "velocity": 80,
                "duration": 0.2818181818181813,
                "tempo": 120.0
            },
            {
                "start_time": 177.04999999999998,
                "end_time": 177.12045454545455,
                "pitch": 88,
                "velocity": 80,
                "duration": 0.07045454545456664,
                "tempo": 120.0
            },
            {
                "start_time": 177.15454545454546,
                "end_time": 177.22045454545454,
                "pitch": 0,
                "velocity": 80,
                "duration": 0.06590909090908781,
                "tempo": 120.0
            },
            {
                "start_time": 177.25454545454545,
                "end_time": 177.32045454545454,
                "pitch": 88,
                "velocity": 80,
                "duration": 0.06590909090908781,
                "tempo": 120.0
            },
            {
                "start_time": 177.35454545454544,
                "end_time": 177.6181818181818,
                "pitch": 0,
                "velocity": 80,
                "duration": 0.26363636363635123,
                "tempo": 120.0
            },
            {
                "start_time": 177.65227272727273,
                "end_time": 179.52954545454546,
                "pitch": 86,
                "velocity": 80,
                "duration": 1.8772727272727252,
                "tempo": 120.0
            }
        ],
        "Acoustic Bass": [
            {
                "start_time": 0.3,
                "end_time": 0.46818181818181814,
                "pitch": 52,
                "velocity": 80,
                "duration": 0.16818181818181815,
                "tempo": 120.0
            },
            {
                "start_time": 0.5022727272727272,
                "end_time": 0.6681818181818181,
                "pitch": 43,
                "velocity": 80,
                "duration": 0.1659090909090909,
                "tempo": 120.0
            },
            {
                "start_time": 0.7022727272727273,
                "end_time": 0.9704545454545455,
                "pitch": 42,
                "velocity": 80,
                "duration": 0.2681818181818182,
                "tempo": 120.0
            },
            {
                "start_time": 1.0022727272727272,
                "end_time": 1.1704545454545454,
                "pitch": 50,
                "velocity": 80,
                "duration": 0.1681818181818182,
                "tempo": 120.0
            },
            {
                "start_time": 1.2045454545454546,
                "end_time": 1.2704545454545455,
                "pitch": 50,
                "velocity": 80,
                "duration": 0.06590909090909092,
                "tempo": 120.0
            },
            {
                "start_time": 1.3045454545454545,
                "end_time": 1.3704545454545454,
                "pitch": 42,
                "velocity": 80,
                "duration": 0.06590909090909092,
                "tempo": 120.0
            },
            {
                "start_time": 1.4045454545454545,
                "end_time": 1.5727272727272728,
                "pitch": 43,
                "velocity": 80,
                "duration": 0.1681818181818182,
                "tempo": 120.0
            },
            {
                "start_time": 1.6045454545454545,
                "end_time": 1.8727272727272726,
                "pitch": 45,
                "velocity": 80,
                "duration": 0.2681818181818181,
                "tempo": 120.0
            },
            {
                "start_time": 1.9045454545454545,
                "end_time": 2.0727272727272728,
                "pitch": 52,
                "velocity": 80,
                "duration": 0.1681818181818182,
                "tempo": 120.0
            },
            {
                "start_time": 2.1045454545454545,
                "end_time": 2.2727272727272725,
                "pitch": 43,
                "velocity": 80,
                "duration": 0.168181818181818,
                "tempo": 120.0
            },
            {
                "start_time": 2.3045454545454542,
                "end_time": 2.3727272727272726,
                "pitch": 42,
                "velocity": 80,
                "duration": 0.06818181818181834,
                "tempo": 120.0
            },
            {
                "start_time": 2.4068181818181817,
                "end_time": 3.1659090909090906,
                "pitch": 0,
                "velocity": 80,
                "duration": 0.7590909090909088,
                "tempo": 120.0
            },
            {
                "start_time": 3.1999999999999997,
                "end_time": 3.465909090909091,
                "pitch": 45,
                "velocity": 80,
                "duration": 0.2659090909090911,
                "tempo": 120.0
            },
            {
                "start_time": 3.5,
                "end_time": 3.6727272727272724,
                "pitch": 52,
                "velocity": 80,
                "duration": 0.1727272727272724,
                "tempo": 120.0
            },
            {
                "start_time": 3.7068181818181816,
                "end_time": 3.877272727272727,
                "pitch": 43,
                "velocity": 80,
                "duration": 0.17045454545454541,
                "tempo": 120.0
            },
            {
                "start_time": 3.911363636363636,
                "end_time": 4.177272727272727,
                "pitch": 42,
                "velocity": 80,
                "duration": 0.26590909090909065,
                "tempo": 120.0
            },
            {
                "start_time": 4.211363636363636,
                "end_time": 4.375,
                "pitch": 50,
                "velocity": 80,
                "duration": 0.16363636363636402,
                "tempo": 120.0
            },
            {
                "start_time": 4.409090909090909,
                "end_time": 4.475,
                "pitch": 50,
                "velocity": 80,
                "duration": 0.06590909090909047,
                "tempo": 120.0
            },
            {
                "start_time": 4.506818181818182,
                "end_time": 4.572727272727272,
                "pitch": 42,
                "velocity": 80,
                "duration": 0.06590909090909047,
                "tempo": 120.0
            },
            {
                "start_time": 4.6045454545454545,
                "end_time": 4.7704545454545455,
                "pitch": 43,
                "velocity": 80,
                "duration": 0.165909090909091,
                "tempo": 120.0
            },
            {
                "start_time": 4.802272727272727,
                "end_time": 5.070454545454545,
                "pitch": 45,
                "velocity": 80,
                "duration": 0.2681818181818185,
                "tempo": 120.0
            },
            {
                "start_time": 5.102272727272727,
                "end_time": 5.279545454545454,
                "pitch": 52,
                "velocity": 80,
                "duration": 0.1772727272727277,
                "tempo": 120.0
            },
            {
                "start_time": 5.3136363636363635,
                "end_time": 5.49090909090909,
                "pitch": 43,
                "velocity": 80,
                "duration": 0.1772727272727268,
                "tempo": 120.0
            },
            {
                "start_time": 5.5249999999999995,
                "end_time": 5.590909090909091,
                "pitch": 42,
                "velocity": 80,
                "duration": 0.06590909090909136,
                "tempo": 120.0
            },
            {
                "start_time": 5.622727272727272,
                "end_time": 5.786363636363636,
                "pitch": 0,
                "velocity": 80,
                "duration": 0.16363636363636402,
                "tempo": 120.0
            },
            {
                "start_time": 5.818181818181818,
                "end_time": 5.9840909090909085,
                "pitch": 42,
                "velocity": 80,
                "duration": 0.16590909090909012,
                "tempo": 120.0
            },
            {
                "start_time": 6.018181818181818,
                "end_time": 6.184090909090909,
                "pitch": 43,
                "velocity": 80,
                "duration": 0.165909090909091,
                "tempo": 120.0
            },
            {
                "start_time": 6.218181818181818,
                "end_time": 6.384090909090909,
                "pitch": 44,
                "velocity": 80,
                "duration": 0.165909090909091,
                "tempo": 120.0
            },
            {
                "start_time": 6.418181818181818,
                "end_time": 6.686363636363636,
                "pitch": 45,
                "velocity": 80,
                "duration": 0.26818181818181763,
                "tempo": 120.0
            },
            {
                "start_time": 6.715909090909091,
                "end_time": 6.870454545454545,
                "pitch": 52,
                "velocity": 80,
                "duration": 0.15454545454545432,
                "tempo": 120.0
            },
            {
                "start_time": 6.902272727272727,
                "end_time": 7.056818181818182,
                "pitch": 43,
                "velocity": 80,
                "duration": 0.15454545454545432,
                "tempo": 120.0
            },
            {
                "start_time": 7.088636363636363,
                "end_time": 7.343181818181818,
                "pitch": 42,
                "velocity": 80,
                "duration": 0.25454545454545485,
                "tempo": 120.0
            },
            {
                "start_time": 7.375,
                "end_time": 7.527272727272727,
                "pitch": 50,
                "velocity": 80,
                "duration": 0.15227272727272734,
                "tempo": 120.0
            },
            {
                "start_time": 7.556818181818182,
                "end_time": 7.61590909090909,
                "pitch": 50,
                "velocity": 80,
                "duration": 0.05909090909090864,
                "tempo": 120.0
            },
            {
                "start_time": 7.6477272727272725,
                "end_time": 7.706818181818181,
                "pitch": 42,
                "velocity": 80,
                "duration": 0.05909090909090864,
                "tempo": 120.0
            },
            {
                "start_time": 7.738636363636363,
                "end_time": 7.8977272727272725,
                "pitch": 43,
                "velocity": 80,
                "duration": 0.15909090909090917,
                "tempo": 120.0
            },
            {
                "start_time": 7.929545454545454,
                "end_time": 8.179545454545455,
                "pitch": 45,
                "velocity": 80,
                "duration": 0.2500000000000009,
                "tempo": 120.0
            },
            {
                "start_time": 8.211363636363636,
                "end_time": 8.36590909090909,
                "pitch": 52,
                "velocity": 80,
                "duration": 0.15454545454545432,
                "tempo": 120.0
            },
            {
                "start_time": 8.397727272727272,
                "end_time": 8.543181818181818,
                "pitch": 43,
                "velocity": 80,
                "duration": 0.1454545454545464,
                "tempo": 120.0
            },
            {
                "start_time": 8.572727272727272,
                "end_time": 8.629545454545454,
                "pitch": 42,
                "velocity": 80,
                "duration": 0.05681818181818166,
                "tempo": 120.0
            },
            {
                "start_time": 8.659090909090908,
                "end_time": 9.386363636363637,
                "pitch": 0,
                "velocity": 80,
                "duration": 0.7272727272727284,
                "tempo": 120.0
            },
            {
                "start_time": 9.415909090909091,
                "end_time": 9.65,
                "pitch": 45,
                "velocity": 80,
                "duration": 0.23409090909090935,
                "tempo": 120.0
            },
            {
                "start_time": 9.679545454545455,
                "end_time": 9.829545454545453,
                "pitch": 52,
                "velocity": 80,
                "duration": 0.14999999999999858,
                "tempo": 120.0
            },
            {
                "start_time": 9.861363636363636,
                "end_time": 10.01590909090909,
                "pitch": 43,
                "velocity": 80,
                "duration": 0.15454545454545432,
                "tempo": 120.0
            },
            {
                "start_time": 10.045454545454545,
                "end_time": 10.309090909090909,
                "pitch": 42,
                "velocity": 80,
                "duration": 0.26363636363636367,
                "tempo": 120.0
            },
            {
                "start_time": 10.34090909090909,
                "end_time": 10.509090909090908,
                "pitch": 50,
                "velocity": 80,
                "duration": 0.168181818181818,
                "tempo": 120.0
            },
            {
                "start_time": 10.543181818181818,
                "end_time": 10.611363636363636,
                "pitch": 50,
                "velocity": 80,
                "duration": 0.06818181818181834,
                "tempo": 120.0
            },
            {
                "start_time": 10.645454545454545,
                "end_time": 10.713636363636363,
                "pitch": 42,
                "velocity": 80,
                "duration": 0.06818181818181834,
                "tempo": 120.0
            },
            {
                "start_time": 10.75,
                "end_time": 10.920454545454545,
                "pitch": 43,
                "velocity": 80,
                "duration": 0.17045454545454497,
                "tempo": 120.0
            },
            {
                "start_time": 10.954545454545453,
                "end_time": 11.222727272727273,
                "pitch": 45,
                "velocity": 80,
                "duration": 0.2681818181818194,
                "tempo": 120.0
            },
            {
                "start_time": 11.256818181818181,
                "end_time": 11.422727272727272,
                "pitch": 52,
                "velocity": 80,
                "duration": 0.165909090909091,
                "tempo": 120.0
            },
            {
                "start_time": 11.454545454545453,
                "end_time": 11.618181818181817,
                "pitch": 43,
                "velocity": 80,
                "duration": 0.16363636363636402,
                "tempo": 120.0
            },
            {
                "start_time": 11.649999999999999,
                "end_time": 11.71590909090909,
                "pitch": 42,
                "velocity": 80,
                "duration": 0.06590909090909136,
                "tempo": 120.0
            },
            {
                "start_time": 11.75,
                "end_time": 12.520454545454545,
                "pitch": 0,
                "velocity": 80,
                "duration": 0.7704545454545446,
                "tempo": 120.0
            },
            {
                "start_time": 12.554545454545455,
                "end_time": 12.820454545454545,
                "pitch": 45,
                "velocity": 80,
                "duration": 0.26590909090909065,
                "tempo": 120.0
            },
            {
                "start_time": 12.854545454545454,
                "end_time": 13.020454545454545,
                "pitch": 52,
                "velocity": 80,
                "duration": 0.165909090909091,
                "tempo": 120.0
            },
            {
                "start_time": 13.054545454545455,
                "end_time": 13.222727272727273,
                "pitch": 43,
                "velocity": 80,
                "duration": 0.168181818181818,
                "tempo": 120.0
            },
            {
                "start_time": 13.256818181818181,
                "end_time": 13.524999999999999,
                "pitch": 42,
                "velocity": 80,
                "duration": 0.26818181818181763,
                "tempo": 120.0
            },
            {
                "start_time": 13.559090909090909,
                "end_time": 13.727272727272727,
                "pitch": 50,
                "velocity": 80,
                "duration": 0.168181818181818,
                "tempo": 120.0
            },
            {
                "start_time": 13.759090909090908,
                "end_time": 13.827272727272726,
                "pitch": 50,
                "velocity": 80,
                "duration": 0.06818181818181834,
                "tempo": 120.0
            },
            {
                "start_time": 13.861363636363636,
                "end_time": 13.927272727272726,
                "pitch": 42,
                "velocity": 80,
                "duration": 0.06590909090908958,
                "tempo": 120.0
            },
            {
                "start_time": 13.961363636363636,
                "end_time": 14.129545454545454,
                "pitch": 43,
                "velocity": 80,
                "duration": 0.168181818181818,
                "tempo": 120.0
            },
            {
                "start_time": 14.163636363636362,
                "end_time": 14.436363636363636,
                "pitch": 45,
                "velocity": 80,
                "duration": 0.2727272727272734,
                "tempo": 120.0
            },
            {
                "start_time": 14.470454545454544,
                "end_time": 14.638636363636364,
                "pitch": 52,
                "velocity": 80,
                "duration": 0.16818181818181976,
                "tempo": 120.0
            },
            {
                "start_time": 14.670454545454545,
                "end_time": 14.834090909090909,
                "pitch": 43,
                "velocity": 80,
                "duration": 0.16363636363636402,
                "tempo": 120.0
            },
            {
                "start_time": 14.86590909090909,
                "end_time": 14.931818181818182,
                "pitch": 42,
                "velocity": 80,
                "duration": 0.06590909090909136,
                "tempo": 120.0
            },
            {
                "start_time": 14.96590909090909,
                "end_time": 15.745454545454544,
                "pitch": 0,
                "velocity": 80,
                "duration": 0.7795454545454543,
                "tempo": 120.0
            },
            {
                "start_time": 15.777272727272727,
                "end_time": 16.038636363636364,
                "pitch": 45,
                "velocity": 80,
                "duration": 0.2613636363636367,
                "tempo": 120.0
            },
            {
                "start_time": 16.07272727272727,
                "end_time": 16.238636363636363,
                "pitch": 52,
                "velocity": 80,
                "duration": 0.16590909090909278,
                "tempo": 120.0
            },
            {
                "start_time": 16.270454545454545,
                "end_time": 16.438636363636363,
                "pitch": 43,
                "velocity": 80,
                "duration": 0.168181818181818,
                "tempo": 120.0
            },
            {
                "start_time": 16.470454545454544,
                "end_time": 16.743181818181817,
                "pitch": 42,
                "velocity": 80,
                "duration": 0.2727272727272734,
                "tempo": 120.0
            },
            {
                "start_time": 16.777272727272727,
                "end_time": 16.94772727272727,
                "pitch": 50,
                "velocity": 80,
                "duration": 0.1704545454545432,
                "tempo": 120.0
            },
            {
                "start_time": 16.98181818181818,
                "end_time": 17.045454545454543,
                "pitch": 50,
                "velocity": 80,
                "duration": 0.0636363636363626,
                "tempo": 120.0
            },
            {
                "start_time": 17.079545454545453,
                "end_time": 17.145454545454545,
                "pitch": 42,
                "velocity": 80,
                "duration": 0.06590909090909136,
                "tempo": 120.0
            },
            {
                "start_time": 17.177272727272726,
                "end_time": 17.34090909090909,
                "pitch": 43,
                "velocity": 80,
                "duration": 0.16363636363636402,
                "tempo": 120.0
            },
            {
                "start_time": 17.37272727272727,
                "end_time": 17.647727272727273,
                "pitch": 45,
                "velocity": 80,
                "duration": 0.27500000000000213,
                "tempo": 120.0
            },
            {
                "start_time": 17.68181818181818,
                "end_time": 17.849999999999998,
                "pitch": 52,
                "velocity": 80,
                "duration": 0.168181818181818,
                "tempo": 120.0
            },
            {
                "start_time": 17.881818181818183,
                "end_time": 18.045454545454543,
                "pitch": 43,
                "velocity": 80,
                "duration": 0.16363636363636047,
                "tempo": 120.0
            },
            {
                "start_time": 18.077272727272728,
                "end_time": 18.143181818181816,
                "pitch": 42,
                "velocity": 80,
                "duration": 0.06590909090908781,
                "tempo": 120.0
            },
            {
                "start_time": 18.175,
                "end_time": 18.943181818181817,
                "pitch": 0,
                "velocity": 80,
                "duration": 0.7681818181818159,
                "tempo": 120.0
            },
            {
                "start_time": 18.974999999999998,
                "end_time": 19.222727272727273,
                "pitch": 45,
                "velocity": 80,
                "duration": 0.2477272727272748,
                "tempo": 120.0
            },
            {
                "start_time": 19.252272727272725,
                "end_time": 19.41590909090909,
                "pitch": 52,
                "velocity": 80,
                "duration": 0.16363636363636402,
                "tempo": 120.0
            },
            {
                "start_time": 19.45,
                "end_time": 19.618181818181817,
                "pitch": 43,
                "velocity": 80,
                "duration": 0.168181818181818,
                "tempo": 120.0
            },
            {
                "start_time": 19.652272727272727,
                "end_time": 19.918181818181818,
                "pitch": 42,
                "velocity": 80,
                "duration": 0.26590909090909065,
                "tempo": 120.0
            },
            {
                "start_time": 19.952272727272728,
                "end_time": 20.118181818181817,
                "pitch": 50,
                "velocity": 80,
                "duration": 0.16590909090908923,
                "tempo": 120.0
            },
            {
                "start_time": 20.152272727272727,
                "end_time": 20.21818181818182,
                "pitch": 50,
                "velocity": 80,
                "duration": 0.06590909090909136,
                "tempo": 120.0
            },
            {
                "start_time": 20.252272727272725,
                "end_time": 20.320454545454545,
                "pitch": 42,
                "velocity": 80,
                "duration": 0.06818181818182012,
                "tempo": 120.0
            },
            {
                "start_time": 20.352272727272727,
                "end_time": 20.520454545454545,
                "pitch": 43,
                "velocity": 80,
                "duration": 0.168181818181818,
                "tempo": 120.0
            },
            {
                "start_time": 20.554545454545455,
                "end_time": 20.820454545454545,
                "pitch": 45,
                "velocity": 80,
                "duration": 0.26590909090909065,
                "tempo": 120.0
            },
            {
                "start_time": 20.854545454545452,
                "end_time": 21.020454545454545,
                "pitch": 52,
                "velocity": 80,
                "duration": 0.16590909090909278,
                "tempo": 120.0
            },
            {
                "start_time": 21.054545454545455,
                "end_time": 21.220454545454544,
                "pitch": 43,
                "velocity": 80,
                "duration": 0.16590909090908923,
                "tempo": 120.0
            },
            {
                "start_time": 21.254545454545454,
                "end_time": 21.320454545454545,
                "pitch": 42,
                "velocity": 80,
                "duration": 0.06590909090909136,
                "tempo": 120.0
            },
            {
                "start_time": 21.354545454545452,
                "end_time": 22.12272727272727,
                "pitch": 0,
                "velocity": 80,
                "duration": 0.7681818181818194,
                "tempo": 120.0
            },
            {
                "start_time": 22.15681818181818,
                "end_time": 22.424999999999997,
                "pitch": 45,
                "velocity": 80,
                "duration": 0.26818181818181586,
                "tempo": 120.0
            },
            {
                "start_time": 22.459090909090907,
                "end_time": 22.627272727272725,
                "pitch": 52,
                "velocity": 80,
                "duration": 0.168181818181818,
                "tempo": 120.0
            },
            {
                "start_time": 22.659090909090907,
                "end_time": 22.827272727272724,
                "pitch": 43,
                "velocity": 80,
                "duration": 0.168181818181818,
                "tempo": 120.0
            },
            {
                "start_time": 22.85909090909091,
                "end_time": 23.127272727272725,
                "pitch": 42,
                "velocity": 80,
                "duration": 0.26818181818181586,
                "tempo": 120.0
            },
            {
                "start_time": 23.159090909090907,
                "end_time": 23.327272727272724,
                "pitch": 50,
                "velocity": 80,
                "duration": 0.168181818181818,
                "tempo": 120.0
            },
            {
                "start_time": 23.35909090909091,
                "end_time": 23.427272727272726,
                "pitch": 50,
                "velocity": 80,
                "duration": 0.06818181818181657,
                "tempo": 120.0
            },
            {
                "start_time": 23.461363636363636,
                "end_time": 23.527272727272727,
                "pitch": 42,
                "velocity": 80,
                "duration": 0.06590909090909136,
                "tempo": 120.0
            },
            {
                "start_time": 23.561363636363634,
                "end_time": 23.729545454545452,
                "pitch": 43,
                "velocity": 80,
                "duration": 0.168181818181818,
                "tempo": 120.0
            },
            {
                "start_time": 23.761363636363637,
                "end_time": 24.029545454545453,
                "pitch": 45,
                "velocity": 80,
                "duration": 0.26818181818181586,
                "tempo": 120.0
            },
            {
                "start_time": 24.061363636363634,
                "end_time": 24.229545454545452,
                "pitch": 52,
                "velocity": 80,
                "duration": 0.168181818181818,
                "tempo": 120.0
            },
            {
                "start_time": 24.263636363636362,
                "end_time": 24.43181818181818,
                "pitch": 43,
                "velocity": 80,
                "duration": 0.168181818181818,
                "tempo": 120.0
            },
            {
                "start_time": 24.46363636363636,
                "end_time": 24.53181818181818,
                "pitch": 42,
                "velocity": 80,
                "duration": 0.06818181818182012,
                "tempo": 120.0
            },
            {
                "start_time": 24.56590909090909,
                "end_time": 25.325,
                "pitch": 0,
                "velocity": 80,
                "duration": 0.7590909090909079,
                "tempo": 120.0
            },
            {
                "start_time": 25.35681818181818,
                "end_time": 26.845454545454544,
                "pitch": 0,
                "velocity": 80,
                "duration": 1.4886363636363633,
                "tempo": 120.0
            },
            {
                "start_time": 26.879545454545454,
                "end_time": 29.35681818181818,
                "pitch": 40,
                "velocity": 80,
                "duration": 2.4772727272727266,
                "tempo": 120.0
            },
            {
                "start_time": 29.388636363636362,
                "end_time": 29.454545454545453,
                "pitch": 0,
                "velocity": 80,
                "duration": 0.06590909090909136,
                "tempo": 120.0
            },
            {
                "start_time": 29.486363636363635,
                "end_time": 29.552272727272726,
                "pitch": 48,
                "velocity": 80,
                "duration": 0.06590909090909136,
                "tempo": 120.0
            },
            {
                "start_time": 29.584090909090907,
                "end_time": 29.65,
                "pitch": 0,
                "velocity": 80,
                "duration": 0.06590909090909136,
                "tempo": 120.0
            },
            {
                "start_time": 29.68409090909091,
                "end_time": 29.75,
                "pitch": 47,
                "velocity": 80,
                "duration": 0.06590909090909136,
                "tempo": 120.0
            },
            {
                "start_time": 29.78181818181818,
                "end_time": 29.849999999999998,
                "pitch": 0,
                "velocity": 80,
                "duration": 0.06818181818181657,
                "tempo": 120.0
            },
            {
                "start_time": 29.88181818181818,
                "end_time": 29.95,
                "pitch": 40,
                "velocity": 80,
                "duration": 0.06818181818182012,
                "tempo": 120.0
            },
            {
                "start_time": 29.98181818181818,
                "end_time": 30.049999999999997,
                "pitch": 0,
                "velocity": 80,
                "duration": 0.06818181818181657,
                "tempo": 120.0
            },
            {
                "start_time": 30.081818181818182,
                "end_time": 30.14772727272727,
                "pitch": 43,
                "velocity": 80,
                "duration": 0.06590909090908781,
                "tempo": 120.0
            },
            {
                "start_time": 30.18181818181818,
                "end_time": 30.443181818181817,
                "pitch": 45,
                "velocity": 80,
                "duration": 0.2613636363636367,
                "tempo": 120.0
            },
            {
                "start_time": 30.474999999999998,
                "end_time": 30.54090909090909,
                "pitch": 45,
                "velocity": 80,
                "duration": 0.06590909090909136,
                "tempo": 120.0
            },
            {
                "start_time": 30.577272727272724,
                "end_time": 30.752272727272725,
                "pitch": 0,
                "velocity": 80,
                "duration": 0.1750000000000007,
                "tempo": 120.0
            },
            {
                "start_time": 30.786363636363635,
                "end_time": 30.961363636363636,
                "pitch": 45,
                "velocity": 80,
                "duration": 0.1750000000000007,
                "tempo": 120.0
            },
            {
                "start_time": 30.995454545454542,
                "end_time": 31.159090909090907,
                "pitch": 0,
                "velocity": 80,
                "duration": 0.16363636363636402,
                "tempo": 120.0
            },
            {
                "start_time": 31.190909090909088,
                "end_time": 31.25681818181818,
                "pitch": 43,
                "velocity": 80,
                "duration": 0.06590909090909136,
                "tempo": 120.0
            },
            {
                "start_time": 31.28863636363636,
                "end_time": 31.354545454545452,
                "pitch": 0,
                "velocity": 80,
                "duration": 0.06590909090909136,
                "tempo": 120.0
            },
            {
                "start_time": 31.388636363636362,
                "end_time": 31.55681818181818,
                "pitch": 45,
                "velocity": 80,
                "duration": 0.168181818181818,
                "tempo": 120.0
            },
            {
                "start_time": 31.59090909090909,
                "end_time": 31.75681818181818,
                "pitch": 0,
                "velocity": 80,
                "duration": 0.16590909090908923,
                "tempo": 120.0
            },
            {
                "start_time": 31.79090909090909,
                "end_time": 32.05681818181818,
                "pitch": 45,
                "velocity": 80,
                "duration": 0.26590909090909065,
                "tempo": 120.0
            },
            {
                "start_time": 32.090909090909086,
                "end_time": 32.15681818181818,
                "pitch": 45,
                "velocity": 80,
                "duration": 0.06590909090909491,
                "tempo": 120.0
            },
            {
                "start_time": 32.19090909090909,
                "end_time": 32.36363636363636,
                "pitch": 0,
                "velocity": 80,
                "duration": 0.17272727272727195,
                "tempo": 120.0
            },
            {
                "start_time": 32.39772727272727,
                "end_time": 32.56818181818182,
                "pitch": 45,
                "velocity": 80,
                "duration": 0.17045454545454675,
                "tempo": 120.0
            },
            {
                "start_time": 32.60227272727273,
                "end_time": 32.768181818181816,
                "pitch": 0,
                "velocity": 80,
                "duration": 0.16590909090908923,
                "tempo": 120.0
            },
            {
                "start_time": 32.80227272727272,
                "end_time": 32.86818181818182,
                "pitch": 43,
                "velocity": 80,
                "duration": 0.06590909090909491,
                "tempo": 120.0
            },
            {
                "start_time": 32.902272727272724,
                "end_time": 32.96818181818182,
                "pitch": 0,
                "velocity": 80,
                "duration": 0.06590909090909491,
                "tempo": 120.0
            },
            {
                "start_time": 33.0,
                "end_time": 33.163636363636364,
                "pitch": 45,
                "velocity": 80,
                "duration": 0.16363636363636402,
                "tempo": 120.0
            },
            {
                "start_time": 33.19772727272727,
                "end_time": 33.361363636363635,
                "pitch": 40,
                "velocity": 80,
                "duration": 0.16363636363636402,
                "tempo": 120.0
            },
            {
                "start_time": 33.393181818181816,
                "end_time": 33.66136363636363,
                "pitch": 45,
                "velocity": 80,
                "duration": 0.26818181818181586,
                "tempo": 120.0
            },
            {
                "start_time": 33.69318181818181,
                "end_time": 33.76136363636363,
                "pitch": 45,
                "velocity": 80,
                "duration": 0.06818181818182012,
                "tempo": 120.0
            },
            {
                "start_time": 33.79545454545455,
                "end_time": 33.965909090909086,
                "pitch": 0,
                "velocity": 80,
                "duration": 0.17045454545453964,
                "tempo": 120.0
            },
            {
                "start_time": 34.0,
                "end_time": 34.17045454545455,
                "pitch": 45,
                "velocity": 80,
                "duration": 0.17045454545454675,
                "tempo": 120.0
            },
            {
                "start_time": 34.20454545454545,
                "end_time": 34.36590909090909,
                "pitch": 0,
                "velocity": 80,
                "duration": 0.16136363636363882,
                "tempo": 120.0
            },
            {
                "start_time": 34.4,
                "end_time": 34.465909090909086,
                "pitch": 43,
                "velocity": 80,
                "duration": 0.06590909090908781,
                "tempo": 120.0
            },
            {
                "start_time": 34.49772727272727,
                "end_time": 34.56363636363636,
                "pitch": 0,
                "velocity": 80,
                "duration": 0.06590909090909491,
                "tempo": 120.0
            },
            {
                "start_time": 34.59772727272727,
                "end_time": 34.763636363636365,
                "pitch": 45,
                "velocity": 80,
                "duration": 0.16590909090909634,
                "tempo": 120.0
            },
            {
                "start_time": 34.79772727272727,
                "end_time": 34.96363636363636,
                "pitch": 0,
                "velocity": 80,
                "duration": 0.16590909090908923,
                "tempo": 120.0
            },
            {
                "start_time": 34.99772727272727,
                "end_time": 35.263636363636365,
                "pitch": 45,
                "velocity": 80,
                "duration": 0.26590909090909776,
                "tempo": 120.0
            },
            {
                "start_time": 35.29772727272727,
                "end_time": 35.36363636363636,
                "pitch": 45,
                "velocity": 80,
                "duration": 0.06590909090908781,
                "tempo": 120.0
            },
            {
                "start_time": 35.39772727272727,
                "end_time": 35.56363636363636,
                "pitch": 0,
                "velocity": 80,
                "duration": 0.16590909090908923,
                "tempo": 120.0
            },
            {
                "start_time": 35.59772727272727,
                "end_time": 35.763636363636365,
                "pitch": 45,
                "velocity": 80,
                "duration": 0.16590909090909634,
                "tempo": 120.0
            },
            {
                "start_time": 35.79772727272727,
                "end_time": 35.96818181818182,
                "pitch": 0,
                "velocity": 80,
                "duration": 0.17045454545454675,
                "tempo": 120.0
            },
            {
                "start_time": 36.002272727272725,
                "end_time": 36.07272727272727,
                "pitch": 43,
                "velocity": 80,
                "duration": 0.07045454545454533,
                "tempo": 120.0
            },
            {
                "start_time": 36.10681818181818,
                "end_time": 36.17272727272727,
                "pitch": 0,
                "velocity": 80,
                "duration": 0.06590909090909491,
                "tempo": 120.0
            },
            {
                "start_time": 36.20681818181818,
                "end_time": 36.37045454545454,
                "pitch": 45,
                "velocity": 80,
                "duration": 0.16363636363636402,
                "tempo": 120.0
            },
            {
                "start_time": 36.402272727272724,
                "end_time": 36.56590909090909,
                "pitch": 0,
                "velocity": 80,
                "duration": 0.16363636363636402,
                "tempo": 120.0
            },
            {
                "start_time": 36.6,
                "end_time": 36.86590909090909,
                "pitch": 45,
                "velocity": 80,
                "duration": 0.26590909090909065,
                "tempo": 120.0
            },
            {
                "start_time": 36.9,
                "end_time": 36.965909090909086,
                "pitch": 40,
                "velocity": 80,
                "duration": 0.06590909090908781,
                "tempo": 120.0
            },
            {
                "start_time": 37.0,
                "end_time": 37.26590909090909,
                "pitch": 40,
                "velocity": 80,
                "duration": 0.26590909090909065,
                "tempo": 120.0
            },
            {
                "start_time": 37.3,
                "end_time": 37.36590909090909,
                "pitch": 45,
                "velocity": 80,
                "duration": 0.06590909090909491,
                "tempo": 120.0
            },
            {
                "start_time": 37.4,
                "end_time": 37.66590909090909,
                "pitch": 45,
                "velocity": 80,
                "duration": 0.26590909090909065,
                "tempo": 120.0
            },
            {
                "start_time": 37.699999999999996,
                "end_time": 37.76590909090909,
                "pitch": 40,
                "velocity": 80,
                "duration": 0.06590909090909491,
                "tempo": 120.0
            },
            {
                "start_time": 37.8,
                "end_time": 37.96818181818182,
                "pitch": 40,
                "velocity": 80,
                "duration": 0.16818181818182154,
                "tempo": 120.0
            },
            {
                "start_time": 38.002272727272725,
                "end_time": 38.06818181818181,
                "pitch": 43,
                "velocity": 80,
                "duration": 0.06590909090908781,
                "tempo": 120.0
            },
            {
                "start_time": 38.10227272727273,
                "end_time": 38.168181818181814,
                "pitch": 45,
                "velocity": 80,
                "duration": 0.06590909090908781,
                "tempo": 120.0
            },
            {
                "start_time": 38.20227272727273,
                "end_time": 38.46818181818182,
                "pitch": 43,
                "velocity": 80,
                "duration": 0.26590909090909065,
                "tempo": 120.0
            },
            {
                "start_time": 38.502272727272725,
                "end_time": 38.56818181818181,
                "pitch": 38,
                "velocity": 80,
                "duration": 0.06590909090908781,
                "tempo": 120.0
            },
            {
                "start_time": 38.60227272727273,
                "end_time": 38.86818181818182,
                "pitch": 38,
                "velocity": 80,
                "duration": 0.26590909090909065,
                "tempo": 120.0
            },
            {
                "start_time": 38.902272727272724,
                "end_time": 38.96818181818182,
                "pitch": 43,
                "velocity": 80,
                "duration": 0.06590909090909491,
                "tempo": 120.0
            },
            {
                "start_time": 39.002272727272725,
                "end_time": 39.268181818181816,
                "pitch": 43,
                "velocity": 80,
                "duration": 0.26590909090909065,
                "tempo": 120.0
            },
            {
                "start_time": 39.30227272727272,
                "end_time": 39.36818181818182,
                "pitch": 38,
                "velocity": 80,
                "duration": 0.06590909090909491,
                "tempo": 120.0
            },
            {
                "start_time": 39.402272727272724,
                "end_time": 39.46818181818182,
                "pitch": 38,
                "velocity": 80,
                "duration": 0.06590909090909491,
                "tempo": 120.0
            },
            {
                "start_time": 39.502272727272725,
                "end_time": 39.56818181818181,
                "pitch": 45,
                "velocity": 80,
                "duration": 0.06590909090908781,
                "tempo": 120.0
            },
            {
                "start_time": 39.60227272727273,
                "end_time": 39.668181818181814,
                "pitch": 43,
                "velocity": 80,
                "duration": 0.06590909090908781,
                "tempo": 120.0
            },
            {
                "start_time": 39.70227272727273,
                "end_time": 39.768181818181816,
                "pitch": 42,
                "velocity": 80,
                "duration": 0.06590909090908781,
                "tempo": 120.0
            },
            {
                "start_time": 39.80227272727272,
                "end_time": 40.070454545454545,
                "pitch": 43,
                "velocity": 80,
                "duration": 0.26818181818182296,
                "tempo": 120.0
            },
            {
                "start_time": 40.10454545454545,
                "end_time": 40.17272727272727,
                "pitch": 38,
                "velocity": 80,
                "duration": 0.06818181818182012,
                "tempo": 120.0
            },
            {
                "start_time": 40.20454545454545,
                "end_time": 40.47272727272727,
                "pitch": 38,
                "velocity": 80,
                "duration": 0.26818181818181586,
                "tempo": 120.0
            },
            {
                "start_time": 40.50454545454545,
                "end_time": 40.57272727272727,
                "pitch": 43,
                "velocity": 80,
                "duration": 0.06818181818182012,
                "tempo": 120.0
            },
            {
                "start_time": 40.60454545454545,
                "end_time": 40.87272727272727,
                "pitch": 43,
                "velocity": 80,
                "duration": 0.26818181818181586,
                "tempo": 120.0
            },
            {
                "start_time": 40.904545454545456,
                "end_time": 40.97272727272727,
                "pitch": 38,
                "velocity": 80,
                "duration": 0.06818181818181301,
                "tempo": 120.0
            },
            {
                "start_time": 41.00454545454545,
                "end_time": 41.17272727272727,
                "pitch": 38,
                "velocity": 80,
                "duration": 0.16818181818182154,
                "tempo": 120.0
            },
            {
                "start_time": 41.20454545454545,
                "end_time": 41.27272727272727,
                "pitch": 43,
                "velocity": 80,
                "duration": 0.06818181818182012,
                "tempo": 120.0
            },
            {
                "start_time": 41.304545454545455,
                "end_time": 41.37272727272727,
                "pitch": 44,
                "velocity": 80,
                "duration": 0.06818181818181301,
                "tempo": 120.0
            },
            {
                "start_time": 41.40454545454545,
                "end_time": 41.67272727272727,
                "pitch": 45,
                "velocity": 80,
                "duration": 0.26818181818182296,
                "tempo": 120.0
            },
            {
                "start_time": 41.70454545454545,
                "end_time": 41.77272727272727,
                "pitch": 40,
                "velocity": 80,
                "duration": 0.06818181818182012,
                "tempo": 120.0
            },
            {
                "start_time": 41.804545454545455,
                "end_time": 42.07272727272727,
                "pitch": 40,
                "velocity": 80,
                "duration": 0.26818181818181586,
                "tempo": 120.0
            },
            {
                "start_time": 42.10681818181818,
                "end_time": 42.175,
                "pitch": 45,
                "velocity": 80,
                "duration": 0.06818181818182012,
                "tempo": 120.0
            },
            {
                "start_time": 42.20681818181818,
                "end_time": 42.475,
                "pitch": 45,
                "velocity": 80,
                "duration": 0.26818181818182296,
                "tempo": 120.0
            },
            {
                "start_time": 42.50681818181818,
                "end_time": 42.574999999999996,
                "pitch": 40,
                "velocity": 80,
                "duration": 0.06818181818181301,
                "tempo": 120.0
            },
            {
                "start_time": 42.60681818181818,
                "end_time": 42.775,
                "pitch": 40,
                "velocity": 80,
                "duration": 0.16818181818182154,
                "tempo": 120.0
            },
            {
                "start_time": 42.80681818181818,
                "end_time": 42.875,
                "pitch": 43,
                "velocity": 80,
                "duration": 0.06818181818182012,
                "tempo": 120.0
            },
            {
                "start_time": 42.90681818181818,
                "end_time": 42.975,
                "pitch": 45,
                "velocity": 80,
                "duration": 0.06818181818182012,
                "tempo": 120.0
            },
            {
                "start_time": 43.00681818181818,
                "end_time": 43.275,
                "pitch": 45,
                "velocity": 80,
                "duration": 0.26818181818181586,
                "tempo": 120.0
            },
            {
                "start_time": 43.30681818181818,
                "end_time": 43.375,
                "pitch": 40,
                "velocity": 80,
                "duration": 0.06818181818182012,
                "tempo": 120.0
            },
            {
                "start_time": 43.40681818181818,
                "end_time": 43.675,
                "pitch": 40,
                "velocity": 80,
                "duration": 0.26818181818181586,
                "tempo": 120.0
            },
            {
                "start_time": 43.70681818181818,
                "end_time": 43.775,
                "pitch": 45,
                "velocity": 80,
                "duration": 0.06818181818182012,
                "tempo": 120.0
            },
            {
                "start_time": 43.809090909090905,
                "end_time": 44.07727272727273,
                "pitch": 45,
                "velocity": 80,
                "duration": 0.26818181818182296,
                "tempo": 120.0
            },
            {
                "start_time": 44.10909090909091,
                "end_time": 44.17727272727272,
                "pitch": 40,
                "velocity": 80,
                "duration": 0.06818181818181301,
                "tempo": 120.0
            },
            {
                "start_time": 44.211363636363636,
                "end_time": 44.377272727272725,
                "pitch": 40,
                "velocity": 80,
                "duration": 0.16590909090908923,
                "tempo": 120.0
            },
            {
                "start_time": 44.41136363636363,
                "end_time": 44.47727272727273,
                "pitch": 43,
                "velocity": 80,
                "duration": 0.06590909090909491,
                "tempo": 120.0
            },
            {
                "start_time": 44.51136363636363,
                "end_time": 44.57727272727273,
                "pitch": 45,
                "velocity": 80,
                "duration": 0.06590909090909491,
                "tempo": 120.0
            },
            {
                "start_time": 44.611363636363635,
                "end_time": 44.877272727272725,
                "pitch": 43,
                "velocity": 80,
                "duration": 0.26590909090909065,
                "tempo": 120.0
            },
            {
                "start_time": 44.91136363636363,
                "end_time": 44.97727272727273,
                "pitch": 38,
                "velocity": 80,
                "duration": 0.06590909090909491,
                "tempo": 120.0
            },
            {
                "start_time": 45.01136363636363,
                "end_time": 45.277272727272724,
                "pitch": 38,
                "velocity": 80,
                "duration": 0.26590909090909065,
                "tempo": 120.0
            },
            {
                "start_time": 45.31136363636364,
                "end_time": 45.377272727272725,
                "pitch": 43,
                "velocity": 80,
                "duration": 0.06590909090908781,
                "tempo": 120.0
            },
            {
                "start_time": 45.41136363636363,
                "end_time": 45.67727272727272,
                "pitch": 43,
                "velocity": 80,
                "duration": 0.26590909090909065,
                "tempo": 120.0
            },
            {
                "start_time": 45.711363636363636,
                "end_time": 45.777272727272724,
                "pitch": 48,
                "velocity": 80,
                "duration": 0.06590909090908781,
                "tempo": 120.0
            },
            {
                "start_time": 45.81136363636364,
                "end_time": 45.877272727272725,
                "pitch": 48,
                "velocity": 80,
                "duration": 0.06590909090908781,
                "tempo": 120.0
            },
            {
                "start_time": 45.91136363636363,
                "end_time": 45.97954545454545,
                "pitch": 47,
                "velocity": 80,
                "duration": 0.06818181818182012,
                "tempo": 120.0
            },
            {
                "start_time": 46.01136363636363,
                "end_time": 46.179545454545455,
                "pitch": 43,
                "velocity": 80,
                "duration": 0.16818181818182154,
                "tempo": 120.0
            },
            {
                "start_time": 46.21363636363636,
                "end_time": 46.47954545454545,
                "pitch": 43,
                "velocity": 80,
                "duration": 0.26590909090909065,
                "tempo": 120.0
            },
            {
                "start_time": 46.51363636363636,
                "end_time": 46.57954545454545,
                "pitch": 38,
                "velocity": 80,
                "duration": 0.06590909090909491,
                "tempo": 120.0
            },
            {
                "start_time": 46.61363636363636,
                "end_time": 46.87954545454545,
                "pitch": 38,
                "velocity": 80,
                "duration": 0.26590909090909065,
                "tempo": 120.0
            },
            {
                "start_time": 46.913636363636364,
                "end_time": 46.97954545454545,
                "pitch": 43,
                "velocity": 80,
                "duration": 0.06590909090908781,
                "tempo": 120.0
            },
            {
                "start_time": 47.01363636363636,
                "end_time": 47.27954545454545,
                "pitch": 43,
                "velocity": 80,
                "duration": 0.26590909090909065,
                "tempo": 120.0
            },
            {
                "start_time": 47.31363636363636,
                "end_time": 47.37954545454545,
                "pitch": 38,
                "velocity": 80,
                "duration": 0.06590909090908781,
                "tempo": 120.0
            },
            {
                "start_time": 47.413636363636364,
                "end_time": 47.57954545454545,
                "pitch": 38,
                "velocity": 80,
                "duration": 0.16590909090908923,
                "tempo": 120.0
            },
            {
                "start_time": 47.61363636363636,
                "end_time": 47.679545454545455,
                "pitch": 43,
                "velocity": 80,
                "duration": 0.06590909090909491,
                "tempo": 120.0
            },
            {
                "start_time": 47.71363636363636,
                "end_time": 47.77954545454545,
                "pitch": 44,
                "velocity": 80,
                "duration": 0.06590909090908781,
                "tempo": 120.0
            },
            {
                "start_time": 47.81363636363636,
                "end_time": 47.87954545454545,
                "pitch": 45,
                "velocity": 80,
                "duration": 0.06590909090908781,
                "tempo": 120.0
            },
            {
                "start_time": 47.913636363636364,
                "end_time": 47.98181818181818,
                "pitch": 45,
                "velocity": 80,
                "duration": 0.06818181818181301,
                "tempo": 120.0
            },
            {
                "start_time": 48.01363636363636,
                "end_time": 48.08181818181818,
                "pitch": 45,
                "velocity": 80,
                "duration": 0.06818181818182012,
                "tempo": 120.0
            },
            {
                "start_time": 48.11590909090909,
                "end_time": 48.38181818181818,
                "pitch": 0,
                "velocity": 80,
                "duration": 0.26590909090909065,
                "tempo": 120.0
            },
            {
                "start_time": 48.41590909090909,
                "end_time": 48.48181818181818,
                "pitch": 45,
                "velocity": 80,
                "duration": 0.06590909090908781,
                "tempo": 120.0
            },
            {
                "start_time": 48.51590909090909,
                "end_time": 48.58181818181818,
                "pitch": 45,
                "velocity": 80,
                "duration": 0.06590909090908781,
                "tempo": 120.0
            },
            {
                "start_time": 48.61590909090909,
                "end_time": 48.68181818181818,
                "pitch": 45,
                "velocity": 80,
                "duration": 0.06590909090908781,
                "tempo": 120.0
            },
            {
                "start_time": 48.715909090909086,
                "end_time": 48.98181818181818,
                "pitch": 0,
                "velocity": 80,
                "duration": 0.26590909090909065,
                "tempo": 120.0
            },
            {
                "start_time": 49.01590909090909,
                "end_time": 49.38181818181818,
                "pitch": 0,
                "velocity": 80,
                "duration": 0.36590909090909207,
                "tempo": 120.0
            },
            {
                "start_time": 49.41590909090909,
                "end_time": 49.68181818181818,
                "pitch": 41,
                "velocity": 80,
                "duration": 0.26590909090909065,
                "tempo": 120.0
            },
            {
                "start_time": 49.715909090909086,
                "end_time": 49.78181818181818,
                "pitch": 48,
                "velocity": 80,
                "duration": 0.06590909090909491,
                "tempo": 120.0
            },
            {
                "start_time": 49.81590909090909,
                "end_time": 49.88409090909091,
                "pitch": 48,
                "velocity": 80,
                "duration": 0.06818181818182012,
                "tempo": 120.0
            },
            {
                "start_time": 49.91590909090909,
                "end_time": 50.084090909090904,
                "pitch": 53,
                "velocity": 80,
                "duration": 0.16818181818181444,
                "tempo": 120.0
            },
            {
                "start_time": 50.11818181818182,
                "end_time": 50.184090909090905,
                "pitch": 48,
                "velocity": 80,
                "duration": 0.06590909090908781,
                "tempo": 120.0
            },
            {
                "start_time": 50.21818181818182,
                "end_time": 50.48409090909091,
                "pitch": 43,
                "velocity": 80,
                "duration": 0.26590909090909065,
                "tempo": 120.0
            },
            {
                "start_time": 50.518181818181816,
                "end_time": 50.586363636363636,
                "pitch": 50,
                "velocity": 80,
                "duration": 0.06818181818182012,
                "tempo": 120.0
            },
            {
                "start_time": 50.62045454545454,
                "end_time": 50.68863636363636,
                "pitch": 50,
                "velocity": 80,
                "duration": 0.06818181818182012,
                "tempo": 120.0
            },
            {
                "start_time": 50.72272727272727,
                "end_time": 50.893181818181816,
                "pitch": 55,
                "velocity": 80,
                "duration": 0.17045454545454675,
                "tempo": 120.0
            },
            {
                "start_time": 50.92727272727272,
                "end_time": 50.99545454545454,
                "pitch": 50,
                "velocity": 80,
                "duration": 0.06818181818182012,
                "tempo": 120.0
            },
            {
                "start_time": 51.027272727272724,
                "end_time": 51.288636363636364,
                "pitch": 45,
                "velocity": 80,
                "duration": 0.26136363636364024,
                "tempo": 120.0
            },
            {
                "start_time": 51.32272727272727,
                "end_time": 51.38863636363636,
                "pitch": 52,
                "velocity": 80,
                "duration": 0.06590909090908781,
                "tempo": 120.0
            },
            {
                "start_time": 51.42272727272727,
                "end_time": 51.490909090909085,
                "pitch": 52,
                "velocity": 80,
                "duration": 0.06818181818181301,
                "tempo": 120.0
            },
            {
                "start_time": 51.525,
                "end_time": 51.695454545454545,
                "pitch": 57,
                "velocity": 80,
                "duration": 0.17045454545454675,
                "tempo": 120.0
            },
            {
                "start_time": 51.72954545454545,
                "end_time": 51.893181818181816,
                "pitch": 55,
                "velocity": 80,
                "duration": 0.16363636363636402,
                "tempo": 120.0
            },
            {
                "start_time": 51.925,
                "end_time": 51.98863636363636,
                "pitch": 52,
                "velocity": 80,
                "duration": 0.0636363636363626,
                "tempo": 120.0
            },
            {
                "start_time": 52.02045454545454,
                "end_time": 52.084090909090904,
                "pitch": 52,
                "velocity": 80,
                "duration": 0.0636363636363626,
                "tempo": 120.0
            },
            {
                "start_time": 52.115909090909085,
                "end_time": 52.179545454545455,
                "pitch": 59,
                "velocity": 80,
                "duration": 0.06363636363636971,
                "tempo": 120.0
            },
            {
                "start_time": 52.21363636363636,
                "end_time": 52.590909090909086,
                "pitch": 57,
                "velocity": 80,
                "duration": 0.3772727272727252,
                "tempo": 120.0
            },
            {
                "start_time": 52.625,
                "end_time": 52.89090909090909,
                "pitch": 41,
                "velocity": 80,
                "duration": 0.26590909090909065,
                "tempo": 120.0
            },
            {
                "start_time": 52.925,
                "end_time": 52.990909090909085,
                "pitch": 48,
                "velocity": 80,
                "duration": 0.06590909090908781,
                "tempo": 120.0
            },
            {
                "start_time": 53.025,
                "end_time": 53.090909090909086,
                "pitch": 48,
                "velocity": 80,
                "duration": 0.06590909090908781,
                "tempo": 120.0
            },
            {
                "start_time": 53.125,
                "end_time": 53.29090909090909,
                "pitch": 53,
                "velocity": 80,
                "duration": 0.16590909090908923,
                "tempo": 120.0
            },
            {
                "start_time": 53.324999999999996,
                "end_time": 53.39090909090909,
                "pitch": 48,
                "velocity": 80,
                "duration": 0.06590909090909491,
                "tempo": 120.0
            },
            {
                "start_time": 53.425,
                "end_time": 53.69090909090909,
                "pitch": 43,
                "velocity": 80,
                "duration": 0.26590909090909065,
                "tempo": 120.0
            },
            {
                "start_time": 53.724999999999994,
                "end_time": 53.79090909090909,
                "pitch": 50,
                "velocity": 80,
                "duration": 0.06590909090909491,
                "tempo": 120.0
            },
            {
                "start_time": 53.824999999999996,
                "end_time": 53.893181818181816,
                "pitch": 50,
                "velocity": 80,
                "duration": 0.06818181818182012,
                "tempo": 120.0
            },
            {
                "start_time": 53.92727272727272,
                "end_time": 54.099999999999994,
                "pitch": 55,
                "velocity": 80,
                "duration": 0.17272727272727195,
                "tempo": 120.0
            },
            {
                "start_time": 54.13409090909091,
                "end_time": 54.20227272727273,
                "pitch": 50,
                "velocity": 80,
                "duration": 0.06818181818182012,
                "tempo": 120.0
            },
            {
                "start_time": 54.23409090909091,
                "end_time": 54.49545454545454,
                "pitch": 45,
                "velocity": 80,
                "duration": 0.26136363636363313,
                "tempo": 120.0
            },
            {
                "start_time": 54.527272727272724,
                "end_time": 54.59318181818182,
                "pitch": 52,
                "velocity": 80,
                "duration": 0.06590909090909491,
                "tempo": 120.0
            },
            {
                "start_time": 54.627272727272725,
                "end_time": 54.69318181818181,
                "pitch": 52,
                "velocity": 80,
                "duration": 0.06590909090908781,
                "tempo": 120.0
            },
            {
                "start_time": 54.72727272727273,
                "end_time": 54.893181818181816,
                "pitch": 59,
                "velocity": 80,
                "duration": 0.16590909090908923,
                "tempo": 120.0
            },
            {
                "start_time": 54.92727272727272,
                "end_time": 55.18863636363636,
                "pitch": 57,
                "velocity": 80,
                "duration": 0.26136363636364024,
                "tempo": 120.0
            },
            {
                "start_time": 55.22272727272727,
                "end_time": 55.38636363636363,
                "pitch": 57,
                "velocity": 80,
                "duration": 0.16363636363636402,
                "tempo": 120.0
            },
            {
                "start_time": 55.42045454545454,
                "end_time": 55.59772727272727,
                "pitch": 57,
                "velocity": 80,
                "duration": 0.17727272727272947,
                "tempo": 120.0
            },
            {
                "start_time": 55.631818181818176,
                "end_time": 55.80681818181818,
                "pitch": 55,
                "velocity": 80,
                "duration": 0.17500000000000426,
                "tempo": 120.0
            },
            {
                "start_time": 55.83863636363636,
                "end_time": 56.10227272727273,
                "pitch": 41,
                "velocity": 80,
                "duration": 0.26363636363636545,
                "tempo": 120.0
            },
            {
                "start_time": 56.13409090909091,
                "end_time": 56.199999999999996,
                "pitch": 48,
                "velocity": 80,
                "duration": 0.06590909090908781,
                "tempo": 120.0
            },
            {
                "start_time": 56.23181818181818,
                "end_time": 56.3,
                "pitch": 48,
                "velocity": 80,
                "duration": 0.06818181818182012,
                "tempo": 120.0
            },
            {
                "start_time": 56.33181818181818,
                "end_time": 56.5,
                "pitch": 53,
                "velocity": 80,
                "duration": 0.16818181818182154,
                "tempo": 120.0
            },
            {
                "start_time": 56.53181818181818,
                "end_time": 56.599999999999994,
                "pitch": 48,
                "velocity": 80,
                "duration": 0.06818181818181301,
                "tempo": 120.0
            },
            {
                "start_time": 56.63409090909091,
                "end_time": 56.90681818181818,
                "pitch": 43,
                "velocity": 80,
                "duration": 0.2727272727272734,
                "tempo": 120.0
            },
            {
                "start_time": 56.94318181818181,
                "end_time": 57.01136363636363,
                "pitch": 50,
                "velocity": 80,
                "duration": 0.06818181818182012,
                "tempo": 120.0
            },
            {
                "start_time": 57.043181818181814,
                "end_time": 57.111363636363635,
                "pitch": 50,
                "velocity": 80,
                "duration": 0.06818181818182012,
                "tempo": 120.0
            },
            {
                "start_time": 57.143181818181816,
                "end_time": 57.31136363636363,
                "pitch": 55,
                "velocity": 80,
                "duration": 0.16818181818181444,
                "tempo": 120.0
            },
            {
                "start_time": 57.34318181818182,
                "end_time": 57.40909090909091,
                "pitch": 50,
                "velocity": 80,
                "duration": 0.06590909090908781,
                "tempo": 120.0
            },
            {
                "start_time": 57.44318181818181,
                "end_time": 57.70454545454545,
                "pitch": 45,
                "velocity": 80,
                "duration": 0.26136363636364024,
                "tempo": 120.0
            },
            {
                "start_time": 57.736363636363635,
                "end_time": 57.80227272727272,
                "pitch": 52,
                "velocity": 80,
                "duration": 0.06590909090908781,
                "tempo": 120.0
            },
            {
                "start_time": 57.836363636363636,
                "end_time": 57.90454545454545,
                "pitch": 52,
                "velocity": 80,
                "duration": 0.06818181818181301,
                "tempo": 120.0
            },
            {
                "start_time": 57.93636363636363,
                "end_time": 58.10454545454545,
                "pitch": 57,
                "velocity": 80,
                "duration": 0.16818181818182154,
                "tempo": 120.0
            },
            {
                "start_time": 58.13863636363636,
                "end_time": 58.30227272727272,
                "pitch": 55,
                "velocity": 80,
                "duration": 0.16363636363636402,
                "tempo": 120.0
            },
            {
                "start_time": 58.336363636363636,
                "end_time": 58.4,
                "pitch": 52,
                "velocity": 80,
                "duration": 0.0636363636363626,
                "tempo": 120.0
            },
            {
                "start_time": 58.434090909090905,
                "end_time": 58.49772727272727,
                "pitch": 52,
                "velocity": 80,
                "duration": 0.0636363636363626,
                "tempo": 120.0
            },
            {
                "start_time": 58.53181818181818,
                "end_time": 58.59772727272727,
                "pitch": 59,
                "velocity": 80,
                "duration": 0.06590909090908781,
                "tempo": 120.0
            },
            {
                "start_time": 58.631818181818176,
                "end_time": 59.00909090909091,
                "pitch": 57,
                "velocity": 80,
                "duration": 0.3772727272727323,
                "tempo": 120.0
            },
            {
                "start_time": 59.04090909090909,
                "end_time": 59.309090909090905,
                "pitch": 41,
                "velocity": 80,
                "duration": 0.26818181818181586,
                "tempo": 120.0
            },
            {
                "start_time": 59.340909090909086,
                "end_time": 59.40909090909091,
                "pitch": 48,
                "velocity": 80,
                "duration": 0.06818181818182012,
                "tempo": 120.0
            },
            {
                "start_time": 59.44090909090909,
                "end_time": 59.50909090909091,
                "pitch": 48,
                "velocity": 80,
                "duration": 0.06818181818182012,
                "tempo": 120.0
            },
            {
                "start_time": 59.54090909090909,
                "end_time": 59.709090909090904,
                "pitch": 53,
                "velocity": 80,
                "duration": 0.16818181818181444,
                "tempo": 120.0
            },
            {
                "start_time": 59.740909090909085,
                "end_time": 59.809090909090905,
                "pitch": 48,
                "velocity": 80,
                "duration": 0.06818181818182012,
                "tempo": 120.0
            },
            {
                "start_time": 59.84318181818182,
                "end_time": 60.115909090909085,
                "pitch": 43,
                "velocity": 80,
                "duration": 0.27272727272726627,
                "tempo": 120.0
            },
            {
                "start_time": 60.15,
                "end_time": 60.21818181818182,
                "pitch": 50,
                "velocity": 80,
                "duration": 0.06818181818182012,
                "tempo": 120.0
            },
            {
                "start_time": 60.252272727272725,
                "end_time": 60.31590909090909,
                "pitch": 50,
                "velocity": 80,
                "duration": 0.0636363636363626,
                "tempo": 120.0
            },
            {
                "start_time": 60.349999999999994,
                "end_time": 60.51363636363636,
                "pitch": 55,
                "velocity": 80,
                "duration": 0.16363636363636402,
                "tempo": 120.0
            },
            {
                "start_time": 60.54545454545454,
                "end_time": 60.611363636363635,
                "pitch": 50,
                "velocity": 80,
                "duration": 0.06590909090909491,
                "tempo": 120.0
            },
            {
                "start_time": 60.64545454545454,
                "end_time": 60.918181818181814,
                "pitch": 45,
                "velocity": 80,
                "duration": 0.2727272727272734,
                "tempo": 120.0
            },
            {
                "start_time": 60.95454545454545,
                "end_time": 61.02045454545454,
                "pitch": 52,
                "velocity": 80,
                "duration": 0.06590909090908781,
                "tempo": 120.0
            },
            {
                "start_time": 61.054545454545455,
                "end_time": 61.11818181818182,
                "pitch": 52,
                "velocity": 80,
                "duration": 0.0636363636363626,
                "tempo": 120.0
            },
            {
                "start_time": 61.152272727272724,
                "end_time": 61.31590909090909,
                "pitch": 59,
                "velocity": 80,
                "duration": 0.16363636363636402,
                "tempo": 120.0
            },
            {
                "start_time": 61.34772727272727,
                "end_time": 61.61363636363636,
                "pitch": 57,
                "velocity": 80,
                "duration": 0.26590909090909065,
                "tempo": 120.0
            },
            {
                "start_time": 61.647727272727266,
                "end_time": 61.81363636363636,
                "pitch": 57,
                "velocity": 80,
                "duration": 0.16590909090909634,
                "tempo": 120.0
            },
            {
                "start_time": 61.84772727272727,
                "end_time": 62.01590909090909,
                "pitch": 57,
                "velocity": 80,
                "duration": 0.16818181818182154,
                "tempo": 120.0
            },
            {
                "start_time": 62.04772727272727,
                "end_time": 62.215909090909086,
                "pitch": 55,
                "velocity": 80,
                "duration": 0.16818181818181444,
                "tempo": 120.0
            },
            {
                "start_time": 62.25,
                "end_time": 62.41590909090909,
                "pitch": 57,
                "velocity": 80,
                "duration": 0.16590909090908923,
                "tempo": 120.0
            },
            {
                "start_time": 62.449999999999996,
                "end_time": 65.425,
                "pitch": 0,
                "velocity": 80,
                "duration": 2.9750000000000014,
                "tempo": 120.0
            },
            {
                "start_time": 65.45681818181818,
                "end_time": 65.725,
                "pitch": 45,
                "velocity": 80,
                "duration": 0.26818181818181586,
                "tempo": 120.0
            },
            {
                "start_time": 65.75681818181818,
                "end_time": 65.825,
                "pitch": 45,
                "velocity": 80,
                "duration": 0.06818181818182723,
                "tempo": 120.0
            },
            {
                "start_time": 65.85909090909091,
                "end_time": 66.02954545454546,
                "pitch": 0,
                "velocity": 80,
                "duration": 0.17045454545454675,
                "tempo": 120.0
            },
            {
                "start_time": 66.06363636363636,
                "end_time": 66.23636363636363,
                "pitch": 45,
                "velocity": 80,
                "duration": 0.17272727272727195,
                "tempo": 120.0
            },
            {
                "start_time": 66.26818181818182,
                "end_time": 66.43636363636364,
                "pitch": 0,
                "velocity": 80,
                "duration": 0.16818181818182154,
                "tempo": 120.0
            },
            {
                "start_time": 66.47045454545454,
                "end_time": 66.53636363636363,
                "pitch": 43,
                "velocity": 80,
                "duration": 0.06590909090908781,
                "tempo": 120.0
            },
            {
                "start_time": 66.57045454545454,
                "end_time": 66.63863636363637,
                "pitch": 0,
                "velocity": 80,
                "duration": 0.06818181818182723,
                "tempo": 120.0
            },
            {
                "start_time": 66.67045454545455,
                "end_time": 66.8340909090909,
                "pitch": 45,
                "velocity": 80,
                "duration": 0.16363636363635692,
                "tempo": 120.0
            },
            {
                "start_time": 66.86590909090908,
                "end_time": 67.02954545454546,
                "pitch": 0,
                "velocity": 80,
                "duration": 0.16363636363637113,
                "tempo": 120.0
            },
            {
                "start_time": 67.06363636363636,
                "end_time": 67.33181818181818,
                "pitch": 45,
                "velocity": 80,
                "duration": 0.26818181818181586,
                "tempo": 120.0
            },
            {
                "start_time": 67.36590909090908,
                "end_time": 67.43409090909091,
                "pitch": 45,
                "velocity": 80,
                "duration": 0.06818181818182723,
                "tempo": 120.0
            },
            {
                "start_time": 67.46818181818182,
                "end_time": 67.63863636363637,
                "pitch": 0,
                "velocity": 80,
                "duration": 0.17045454545454675,
                "tempo": 120.0
            },
            {
                "start_time": 67.67272727272727,
                "end_time": 67.84318181818182,
                "pitch": 45,
                "velocity": 80,
                "duration": 0.17045454545454675,
                "tempo": 120.0
            },
            {
                "start_time": 67.87727272727273,
                "end_time": 68.04318181818182,
                "pitch": 0,
                "velocity": 80,
                "duration": 0.16590909090909634,
                "tempo": 120.0
            },
            {
                "start_time": 68.07727272727273,
                "end_time": 68.14318181818182,
                "pitch": 43,
                "velocity": 80,
                "duration": 0.06590909090908781,
                "tempo": 120.0
            },
            {
                "start_time": 68.17727272727272,
                "end_time": 68.24318181818181,
                "pitch": 0,
                "velocity": 80,
                "duration": 0.06590909090908781,
                "tempo": 120.0
            },
            {
                "start_time": 68.27727272727273,
                "end_time": 68.43863636363636,
                "pitch": 45,
                "velocity": 80,
                "duration": 0.1613636363636317,
                "tempo": 120.0
            },
            {
                "start_time": 68.47272727272727,
                "end_time": 68.63636363636363,
                "pitch": 40,
                "velocity": 80,
                "duration": 0.16363636363635692,
                "tempo": 120.0
            },
            {
                "start_time": 68.67045454545455,
                "end_time": 68.93863636363636,
                "pitch": 45,
                "velocity": 80,
                "duration": 0.26818181818181586,
                "tempo": 120.0
            },
            {
                "start_time": 68.97272727272727,
                "end_time": 69.03863636363636,
                "pitch": 45,
                "velocity": 80,
                "duration": 0.06590909090908781,
                "tempo": 120.0
            },
            {
                "start_time": 69.07272727272726,
                "end_time": 69.24545454545454,
                "pitch": 0,
                "velocity": 80,
                "duration": 0.17272727272727195,
                "tempo": 120.0
            },
            {
                "start_time": 69.27954545454546,
                "end_time": 69.45,
                "pitch": 45,
                "velocity": 80,
                "duration": 0.17045454545454675,
                "tempo": 120.0
            },
            {
                "start_time": 69.48181818181818,
                "end_time": 69.64545454545454,
                "pitch": 0,
                "velocity": 80,
                "duration": 0.16363636363635692,
                "tempo": 120.0
            },
            {
                "start_time": 69.67727272727272,
                "end_time": 69.74318181818181,
                "pitch": 43,
                "velocity": 80,
                "duration": 0.06590909090908781,
                "tempo": 120.0
            },
            {
                "start_time": 69.77499999999999,
                "end_time": 69.8409090909091,
                "pitch": 0,
                "velocity": 80,
                "duration": 0.06590909090910202,
                "tempo": 120.0
            },
            {
                "start_time": 69.875,
                "end_time": 70.04318181818182,
                "pitch": 45,
                "velocity": 80,
                "duration": 0.16818181818182154,
                "tempo": 120.0
            },
            {
                "start_time": 70.07727272727273,
                "end_time": 70.24318181818181,
                "pitch": 0,
                "velocity": 80,
                "duration": 0.16590909090908212,
                "tempo": 120.0
            },
            {
                "start_time": 70.27727272727273,
                "end_time": 70.54318181818182,
                "pitch": 45,
                "velocity": 80,
                "duration": 0.26590909090909065,
                "tempo": 120.0
            },
            {
                "start_time": 70.57727272727273,
                "end_time": 70.64545454545454,
                "pitch": 45,
                "velocity": 80,
                "duration": 0.06818181818181301,
                "tempo": 120.0
            },
            {
                "start_time": 70.67727272727272,
                "end_time": 70.84545454545454,
                "pitch": 0,
                "velocity": 80,
                "duration": 0.16818181818182154,
                "tempo": 120.0
            },
            {
                "start_time": 70.87954545454545,
                "end_time": 71.04772727272727,
                "pitch": 45,
                "velocity": 80,
                "duration": 0.16818181818182154,
                "tempo": 120.0
            },
            {
                "start_time": 71.08181818181818,
                "end_time": 71.25227272727273,
                "pitch": 0,
                "velocity": 80,
                "duration": 0.17045454545454675,
                "tempo": 120.0
            },
            {
                "start_time": 71.28636363636363,
                "end_time": 71.35454545454544,
                "pitch": 43,
                "velocity": 80,
                "duration": 0.06818181818181301,
                "tempo": 120.0
            },
            {
                "start_time": 71.38863636363637,
                "end_time": 71.45681818181818,
                "pitch": 0,
                "velocity": 80,
                "duration": 0.06818181818181301,
                "tempo": 120.0
            },
            {
                "start_time": 71.49090909090908,
                "end_time": 71.65454545454546,
                "pitch": 45,
                "velocity": 80,
                "duration": 0.16363636363637113,
                "tempo": 120.0
            },
            {
                "start_time": 71.68636363636364,
                "end_time": 71.85,
                "pitch": 0,
                "velocity": 80,
                "duration": 0.16363636363635692,
                "tempo": 120.0
            },
            {
                "start_time": 71.8840909090909,
                "end_time": 72.15227272727272,
                "pitch": 45,
                "velocity": 80,
                "duration": 0.26818181818181586,
                "tempo": 120.0
            },
            {
                "start_time": 72.18636363636364,
                "end_time": 72.25227272727273,
                "pitch": 40,
                "velocity": 80,
                "duration": 0.06590909090908781,
                "tempo": 120.0
            },
            {
                "start_time": 72.28636363636363,
                "end_time": 72.55227272727272,
                "pitch": 40,
                "velocity": 80,
                "duration": 0.26590909090909065,
                "tempo": 120.0
            },
            {
                "start_time": 72.58636363636363,
                "end_time": 72.65227272727272,
                "pitch": 45,
                "velocity": 80,
                "duration": 0.06590909090908781,
                "tempo": 120.0
            },
            {
                "start_time": 72.68636363636364,
                "end_time": 72.95454545454545,
                "pitch": 45,
                "velocity": 80,
                "duration": 0.26818181818181586,
                "tempo": 120.0
            },
            {
                "start_time": 72.98863636363636,
                "end_time": 73.05454545454545,
                "pitch": 40,
                "velocity": 80,
                "duration": 0.06590909090908781,
                "tempo": 120.0
            },
            {
                "start_time": 73.08863636363635,
                "end_time": 73.25681818181818,
                "pitch": 40,
                "velocity": 80,
                "duration": 0.16818181818182154,
                "tempo": 120.0
            },
            {
                "start_time": 73.29090909090908,
                "end_time": 73.35681818181818,
                "pitch": 43,
                "velocity": 80,
                "duration": 0.06590909090910202,
                "tempo": 120.0
            },
            {
                "start_time": 73.39090909090909,
                "end_time": 73.45681818181818,
                "pitch": 45,
                "velocity": 80,
                "duration": 0.06590909090908781,
                "tempo": 120.0
            },
            {
                "start_time": 73.49090909090908,
                "end_time": 73.75681818181818,
                "pitch": 43,
                "velocity": 80,
                "duration": 0.26590909090909065,
                "tempo": 120.0
            },
            {
                "start_time": 73.79090909090908,
                "end_time": 73.85909090909091,
                "pitch": 38,
                "velocity": 80,
                "duration": 0.06818181818182723,
                "tempo": 120.0
            },
            {
                "start_time": 73.89090909090909,
                "end_time": 74.1590909090909,
                "pitch": 38,
                "velocity": 80,
                "duration": 0.26818181818181586,
                "tempo": 120.0
            },
            {
                "start_time": 74.19318181818181,
                "end_time": 74.26136363636363,
                "pitch": 43,
                "velocity": 80,
                "duration": 0.06818181818181301,
                "tempo": 120.0
            },
            {
                "start_time": 74.29318181818182,
                "end_time": 74.56136363636364,
                "pitch": 43,
                "velocity": 80,
                "duration": 0.26818181818181586,
                "tempo": 120.0
            },
            {
                "start_time": 74.59318181818182,
                "end_time": 74.66136363636363,
                "pitch": 38,
                "velocity": 80,
                "duration": 0.06818181818181301,
                "tempo": 120.0
            },
            {
                "start_time": 74.69318181818181,
                "end_time": 74.76136363636363,
                "pitch": 38,
                "velocity": 80,
                "duration": 0.06818181818181301,
                "tempo": 120.0
            },
            {
                "start_time": 74.79545454545455,
                "end_time": 74.86136363636363,
                "pitch": 45,
                "velocity": 80,
                "duration": 0.06590909090908781,
                "tempo": 120.0
            },
            {
                "start_time": 74.89545454545454,
                "end_time": 74.96363636363635,
                "pitch": 43,
                "velocity": 80,
                "duration": 0.06818181818181301,
                "tempo": 120.0
            },
            {
                "start_time": 74.99545454545454,
                "end_time": 75.06363636363636,
                "pitch": 42,
                "velocity": 80,
                "duration": 0.06818181818182723,
                "tempo": 120.0
            },
            {
                "start_time": 75.09772727272727,
                "end_time": 75.36590909090908,
                "pitch": 43,
                "velocity": 80,
                "duration": 0.26818181818181586,
                "tempo": 120.0
            },
            {
                "start_time": 75.39999999999999,
                "end_time": 75.4659090909091,
                "pitch": 38,
                "velocity": 80,
                "duration": 0.06590909090910202,
                "tempo": 120.0
            },
            {
                "start_time": 75.5,
                "end_time": 75.76590909090909,
                "pitch": 38,
                "velocity": 80,
                "duration": 0.26590909090909065,
                "tempo": 120.0
            },
            {
                "start_time": 75.8,
                "end_time": 75.86590909090908,
                "pitch": 43,
                "velocity": 80,
                "duration": 0.06590909090908781,
                "tempo": 120.0
            },
            {
                "start_time": 75.89999999999999,
                "end_time": 76.16818181818182,
                "pitch": 43,
                "velocity": 80,
                "duration": 0.26818181818183007,
                "tempo": 120.0
            },
            {
                "start_time": 76.20227272727273,
                "end_time": 76.26818181818182,
                "pitch": 38,
                "velocity": 80,
                "duration": 0.06590909090908781,
                "tempo": 120.0
            },
            {
                "start_time": 76.30227272727272,
                "end_time": 76.46818181818182,
                "pitch": 38,
                "velocity": 80,
                "duration": 0.16590909090909634,
                "tempo": 120.0
            },
            {
                "start_time": 76.50227272727273,
                "end_time": 76.56818181818181,
                "pitch": 43,
                "velocity": 80,
                "duration": 0.06590909090908781,
                "tempo": 120.0
            },
            {
                "start_time": 76.60227272727272,
                "end_time": 76.66818181818182,
                "pitch": 44,
                "velocity": 80,
                "duration": 0.06590909090910202,
                "tempo": 120.0
            },
            {
                "start_time": 76.70227272727273,
                "end_time": 76.97045454545454,
                "pitch": 45,
                "velocity": 80,
                "duration": 0.26818181818181586,
                "tempo": 120.0
            },
            {
                "start_time": 77.00454545454545,
                "end_time": 77.07045454545454,
                "pitch": 40,
                "velocity": 80,
                "duration": 0.06590909090908781,
                "tempo": 120.0
            },
            {
                "start_time": 77.10454545454544,
                "end_time": 77.37272727272727,
                "pitch": 40,
                "velocity": 80,
                "duration": 0.26818181818183007,
                "tempo": 120.0
            },
            {
                "start_time": 77.40681818181818,
                "end_time": 77.475,
                "pitch": 45,
                "velocity": 80,
                "duration": 0.06818181818181301,
                "tempo": 120.0
            },
            {
                "start_time": 77.50681818181818,
                "end_time": 77.77499999999999,
                "pitch": 45,
                "velocity": 80,
                "duration": 0.26818181818181586,
                "tempo": 120.0
            },
            {
                "start_time": 77.80681818181817,
                "end_time": 77.875,
                "pitch": 40,
                "velocity": 80,
                "duration": 0.06818181818182723,
                "tempo": 120.0
            },
            {
                "start_time": 77.90681818181818,
                "end_time": 78.075,
                "pitch": 40,
                "velocity": 80,
                "duration": 0.16818181818182154,
                "tempo": 120.0
            },
            {
                "start_time": 78.10909090909091,
                "end_time": 78.17727272727272,
                "pitch": 43,
                "velocity": 80,
                "duration": 0.06818181818181301,
                "tempo": 120.0
            },
            {
                "start_time": 78.2090909090909,
                "end_time": 78.27727272727272,
                "pitch": 45,
                "velocity": 80,
                "duration": 0.06818181818181301,
                "tempo": 120.0
            },
            {
                "start_time": 78.30909090909091,
                "end_time": 78.57727272727273,
                "pitch": 45,
                "velocity": 80,
                "duration": 0.26818181818181586,
                "tempo": 120.0
            },
            {
                "start_time": 78.60909090909091,
                "end_time": 78.67727272727272,
                "pitch": 40,
                "velocity": 80,
                "duration": 0.06818181818181301,
                "tempo": 120.0
            },
            {
                "start_time": 78.71136363636363,
                "end_time": 78.97954545454544,
                "pitch": 40,
                "velocity": 80,
                "duration": 0.26818181818181586,
                "tempo": 120.0
            },
            {
                "start_time": 79.01136363636363,
                "end_time": 79.07954545454545,
                "pitch": 45,
                "velocity": 80,
                "duration": 0.06818181818182723,
                "tempo": 120.0
            },
            {
                "start_time": 79.11363636363636,
                "end_time": 79.38181818181818,
                "pitch": 45,
                "velocity": 80,
                "duration": 0.26818181818181586,
                "tempo": 120.0
            },
            {
                "start_time": 79.41590909090908,
                "end_time": 79.48181818181818,
                "pitch": 40,
                "velocity": 80,
                "duration": 0.06590909090910202,
                "tempo": 120.0
            },
            {
                "start_time": 79.51590909090909,
                "end_time": 79.68181818181817,
                "pitch": 40,
                "velocity": 80,
                "duration": 0.16590909090908212,
                "tempo": 120.0
            },
            {
                "start_time": 79.7159090909091,
                "end_time": 79.78181818181818,
                "pitch": 43,
                "velocity": 80,
                "duration": 0.06590909090908781,
                "tempo": 120.0
            },
            {
                "start_time": 79.81590909090909,
                "end_time": 79.88181818181818,
                "pitch": 45,
                "velocity": 80,
                "duration": 0.06590909090908781,
                "tempo": 120.0
            },
            {
                "start_time": 79.91590909090908,
                "end_time": 80.18409090909091,
                "pitch": 43,
                "velocity": 80,
                "duration": 0.26818181818183007,
                "tempo": 120.0
            },
            {
                "start_time": 80.21818181818182,
                "end_time": 80.2840909090909,
                "pitch": 38,
                "velocity": 80,
                "duration": 0.06590909090908781,
                "tempo": 120.0
            },
            {
                "start_time": 80.31818181818181,
                "end_time": 80.5840909090909,
                "pitch": 38,
                "velocity": 80,
                "duration": 0.26590909090909065,
                "tempo": 120.0
            },
            {
                "start_time": 80.61818181818181,
                "end_time": 80.68409090909091,
                "pitch": 43,
                "velocity": 80,
                "duration": 0.06590909090910202,
                "tempo": 120.0
            },
            {
                "start_time": 80.71818181818182,
                "end_time": 80.98636363636363,
                "pitch": 43,
                "velocity": 80,
                "duration": 0.26818181818181586,
                "tempo": 120.0
            },
            {
                "start_time": 81.02045454545454,
                "end_time": 81.08863636363635,
                "pitch": 48,
                "velocity": 80,
                "duration": 0.06818181818181301,
                "tempo": 120.0
            },
            {
                "start_time": 81.12045454545454,
                "end_time": 81.18863636363636,
                "pitch": 48,
                "velocity": 80,
                "duration": 0.06818181818182723,
                "tempo": 120.0
            },
            {
                "start_time": 81.22272727272727,
                "end_time": 81.28863636363636,
                "pitch": 47,
                "velocity": 80,
                "duration": 0.06590909090908781,
                "tempo": 120.0
            },
            {
                "start_time": 81.32272727272726,
                "end_time": 81.49090909090908,
                "pitch": 43,
                "velocity": 80,
                "duration": 0.16818181818182154,
                "tempo": 120.0
            },
            {
                "start_time": 81.52272727272727,
                "end_time": 81.79090909090908,
                "pitch": 43,
                "velocity": 80,
                "duration": 0.26818181818181586,
                "tempo": 120.0
            },
            {
                "start_time": 81.82272727272726,
                "end_time": 81.89090909090909,
                "pitch": 38,
                "velocity": 80,
                "duration": 0.06818181818182723,
                "tempo": 120.0
            },
            {
                "start_time": 81.92272727272727,
                "end_time": 82.19318181818181,
                "pitch": 38,
                "velocity": 80,
                "duration": 0.27045454545454106,
                "tempo": 120.0
            },
            {
                "start_time": 82.225,
                "end_time": 82.29318181818181,
                "pitch": 43,
                "velocity": 80,
                "duration": 0.06818181818181301,
                "tempo": 120.0
            },
            {
                "start_time": 82.32727272727273,
                "end_time": 82.59318181818182,
                "pitch": 43,
                "velocity": 80,
                "duration": 0.26590909090909065,
                "tempo": 120.0
            },
            {
                "start_time": 82.62727272727273,
                "end_time": 82.69318181818181,
                "pitch": 38,
                "velocity": 80,
                "duration": 0.06590909090908781,
                "tempo": 120.0
            },
            {
                "start_time": 82.72727272727272,
                "end_time": 82.89318181818182,
                "pitch": 38,
                "velocity": 80,
                "duration": 0.16590909090909634,
                "tempo": 120.0
            },
            {
                "start_time": 82.92727272727272,
                "end_time": 82.99545454545454,
                "pitch": 43,
                "velocity": 80,
                "duration": 0.06818181818181301,
                "tempo": 120.0
            },
            {
                "start_time": 83.02954545454546,
                "end_time": 83.09545454545454,
                "pitch": 44,
                "velocity": 80,
                "duration": 0.06590909090908781,
                "tempo": 120.0
            },
            {
                "start_time": 83.12954545454545,
                "end_time": 83.19545454545454,
                "pitch": 45,
                "velocity": 80,
                "duration": 0.06590909090908781,
                "tempo": 120.0
            },
            {
                "start_time": 83.22954545454544,
                "end_time": 83.29772727272727,
                "pitch": 45,
                "velocity": 80,
                "duration": 0.06818181818182723,
                "tempo": 120.0
            },
            {
                "start_time": 83.32954545454545,
                "end_time": 83.39772727272727,
                "pitch": 45,
                "velocity": 80,
                "duration": 0.06818181818181301,
                "tempo": 120.0
            },
            {
                "start_time": 83.43181818181817,
                "end_time": 83.69772727272726,
                "pitch": 0,
                "velocity": 80,
                "duration": 0.26590909090909065,
                "tempo": 120.0
            },
            {
                "start_time": 83.73181818181818,
                "end_time": 83.79772727272727,
                "pitch": 45,
                "velocity": 80,
                "duration": 0.06590909090908781,
                "tempo": 120.0
            },
            {
                "start_time": 83.83181818181818,
                "end_time": 83.89772727272727,
                "pitch": 45,
                "velocity": 80,
                "duration": 0.06590909090908781,
                "tempo": 120.0
            },
            {
                "start_time": 83.93181818181817,
                "end_time": 84.0,
                "pitch": 45,
                "velocity": 80,
                "duration": 0.06818181818182723,
                "tempo": 120.0
            },
            {
                "start_time": 84.03181818181818,
                "end_time": 84.3,
                "pitch": 0,
                "velocity": 80,
                "duration": 0.26818181818181586,
                "tempo": 120.0
            },
            {
                "start_time": 84.3340909090909,
                "end_time": 84.7,
                "pitch": 0,
                "velocity": 80,
                "duration": 0.3659090909090992,
                "tempo": 120.0
            },
            {
                "start_time": 84.73409090909091,
                "end_time": 85.00227272727273,
                "pitch": 41,
                "velocity": 80,
                "duration": 0.26818181818181586,
                "tempo": 120.0
            },
            {
                "start_time": 85.03636363636363,
                "end_time": 85.10454545454544,
                "pitch": 48,
                "velocity": 80,
                "duration": 0.06818181818181301,
                "tempo": 120.0
            },
            {
                "start_time": 85.13636363636363,
                "end_time": 85.20454545454545,
                "pitch": 48,
                "velocity": 80,
                "duration": 0.06818181818182723,
                "tempo": 120.0
            },
            {
                "start_time": 85.23863636363636,
                "end_time": 85.40681818181818,
                "pitch": 53,
                "velocity": 80,
                "duration": 0.16818181818182154,
                "tempo": 120.0
            },
            {
                "start_time": 85.43863636363636,
                "end_time": 85.50681818181818,
                "pitch": 48,
                "velocity": 80,
                "duration": 0.06818181818181301,
                "tempo": 120.0
            },
            {
                "start_time": 85.53863636363636,
                "end_time": 85.80681818181817,
                "pitch": 43,
                "velocity": 80,
                "duration": 0.26818181818181586,
                "tempo": 120.0
            },
            {
                "start_time": 85.83863636363635,
                "end_time": 85.90681818181818,
                "pitch": 50,
                "velocity": 80,
                "duration": 0.06818181818182723,
                "tempo": 120.0
            },
            {
                "start_time": 85.94090909090909,
                "end_time": 86.0090909090909,
                "pitch": 50,
                "velocity": 80,
                "duration": 0.06818181818181301,
                "tempo": 120.0
            },
            {
                "start_time": 86.04318181818181,
                "end_time": 86.21363636363635,
                "pitch": 55,
                "velocity": 80,
                "duration": 0.17045454545454675,
                "tempo": 120.0
            },
            {
                "start_time": 86.25,
                "end_time": 86.31590909090909,
                "pitch": 50,
                "velocity": 80,
                "duration": 0.06590909090908781,
                "tempo": 120.0
            },
            {
                "start_time": 86.35,
                "end_time": 86.61136363636363,
                "pitch": 45,
                "velocity": 80,
                "duration": 0.26136363636364024,
                "tempo": 120.0
            },
            {
                "start_time": 86.64318181818182,
                "end_time": 86.7090909090909,
                "pitch": 52,
                "velocity": 80,
                "duration": 0.06590909090908781,
                "tempo": 120.0
            },
            {
                "start_time": 86.74318181818181,
                "end_time": 86.81136363636364,
                "pitch": 52,
                "velocity": 80,
                "duration": 0.06818181818182723,
                "tempo": 120.0
            },
            {
                "start_time": 86.84545454545454,
                "end_time": 87.01818181818182,
                "pitch": 57,
                "velocity": 80,
                "duration": 0.17272727272727195,
                "tempo": 120.0
            },
            {
                "start_time": 87.05227272727272,
                "end_time": 87.21363636363635,
                "pitch": 55,
                "velocity": 80,
                "duration": 0.1613636363636317,
                "tempo": 120.0
            },
            {
                "start_time": 87.24545454545454,
                "end_time": 87.3090909090909,
                "pitch": 52,
                "velocity": 80,
                "duration": 0.0636363636363626,
                "tempo": 120.0
            },
            {
                "start_time": 87.3409090909091,
                "end_time": 87.40454545454546,
                "pitch": 52,
                "velocity": 80,
                "duration": 0.0636363636363626,
                "tempo": 120.0
            },
            {
                "start_time": 87.43636363636364,
                "end_time": 87.5,
                "pitch": 59,
                "velocity": 80,
                "duration": 0.0636363636363626,
                "tempo": 120.0
            },
            {
                "start_time": 87.53636363636363,
                "end_time": 87.92272727272727,
                "pitch": 57,
                "velocity": 80,
                "duration": 0.38636363636364024,
                "tempo": 120.0
            },
            {
                "start_time": 87.95454545454545,
                "end_time": 88.2159090909091,
                "pitch": 41,
                "velocity": 80,
                "duration": 0.26136363636364024,
                "tempo": 120.0
            },
            {
                "start_time": 88.25,
                "end_time": 88.31363636363636,
                "pitch": 48,
                "velocity": 80,
                "duration": 0.0636363636363626,
                "tempo": 120.0
            },
            {
                "start_time": 88.34772727272727,
                "end_time": 88.41363636363636,
                "pitch": 48,
                "velocity": 80,
                "duration": 0.06590909090908781,
                "tempo": 120.0
            },
            {
                "start_time": 88.44772727272726,
                "end_time": 88.61363636363636,
                "pitch": 53,
                "velocity": 80,
                "duration": 0.16590909090909634,
                "tempo": 120.0
            },
            {
                "start_time": 88.64772727272727,
                "end_time": 88.7159090909091,
                "pitch": 48,
                "velocity": 80,
                "duration": 0.06818181818182723,
                "tempo": 120.0
            },
            {
                "start_time": 88.74772727272727,
                "end_time": 89.01590909090909,
                "pitch": 43,
                "velocity": 80,
                "duration": 0.26818181818181586,
                "tempo": 120.0
            },
            {
                "start_time": 89.05,
                "end_time": 89.11818181818181,
                "pitch": 50,
                "velocity": 80,
                "duration": 0.06818181818181301,
                "tempo": 120.0
            },
            {
                "start_time": 89.15227272727272,
                "end_time": 89.22045454545454,
                "pitch": 50,
                "velocity": 80,
                "duration": 0.06818181818182723,
                "tempo": 120.0
            },
            {
                "start_time": 89.25454545454545,
                "end_time": 89.425,
                "pitch": 55,
                "velocity": 80,
                "duration": 0.17045454545454675,
                "tempo": 120.0
            },
            {
                "start_time": 89.4590909090909,
                "end_time": 89.52727272727272,
                "pitch": 50,
                "velocity": 80,
                "duration": 0.06818181818181301,
                "tempo": 120.0
            },
            {
                "start_time": 89.56136363636364,
                "end_time": 89.82272727272726,
                "pitch": 45,
                "velocity": 80,
                "duration": 0.26136363636362603,
                "tempo": 120.0
            },
            {
                "start_time": 89.85454545454544,
                "end_time": 89.92045454545455,
                "pitch": 52,
                "velocity": 80,
                "duration": 0.06590909090910202,
                "tempo": 120.0
            },
            {
                "start_time": 89.95454545454545,
                "end_time": 90.02045454545454,
                "pitch": 52,
                "velocity": 80,
                "duration": 0.06590909090908781,
                "tempo": 120.0
            },
            {
                "start_time": 90.05454545454545,
                "end_time": 90.22272727272727,
                "pitch": 59,
                "velocity": 80,
                "duration": 0.16818181818182154,
                "tempo": 120.0
            },
            {
                "start_time": 90.25681818181818,
                "end_time": 90.51818181818182,
                "pitch": 57,
                "velocity": 80,
                "duration": 0.26136363636364024,
                "tempo": 120.0
            },
            {
                "start_time": 90.55227272727272,
                "end_time": 90.7159090909091,
                "pitch": 57,
                "velocity": 80,
                "duration": 0.16363636363637113,
                "tempo": 120.0
            },
            {
                "start_time": 90.75,
                "end_time": 90.92727272727272,
                "pitch": 57,
                "velocity": 80,
                "duration": 0.17727272727272236,
                "tempo": 120.0
            },
            {
                "start_time": 90.96136363636363,
                "end_time": 91.13636363636363,
                "pitch": 55,
                "velocity": 80,
                "duration": 0.17499999999999716,
                "tempo": 120.0
            },
            {
                "start_time": 91.16818181818181,
                "end_time": 91.42954545454545,
                "pitch": 41,
                "velocity": 80,
                "duration": 0.26136363636364024,
                "tempo": 120.0
            },
            {
                "start_time": 91.46363636363635,
                "end_time": 91.52954545454546,
                "pitch": 48,
                "velocity": 80,
                "duration": 0.06590909090910202,
                "tempo": 120.0
            },
            {
                "start_time": 91.56136363636364,
                "end_time": 91.62954545454545,
                "pitch": 48,
                "velocity": 80,
                "duration": 0.06818181818181301,
                "tempo": 120.0
            },
            {
                "start_time": 91.66136363636363,
                "end_time": 91.82954545454545,
                "pitch": 53,
                "velocity": 80,
                "duration": 0.16818181818182154,
                "tempo": 120.0
            },
            {
                "start_time": 91.86136363636363,
                "end_time": 91.92954545454545,
                "pitch": 48,
                "velocity": 80,
                "duration": 0.06818181818181301,
                "tempo": 120.0
            },
            {
                "start_time": 91.96136363636363,
                "end_time": 92.23181818181818,
                "pitch": 43,
                "velocity": 80,
                "duration": 0.2704545454545553,
                "tempo": 120.0
            },
            {
                "start_time": 92.26363636363637,
                "end_time": 92.33181818181818,
                "pitch": 50,
                "velocity": 80,
                "duration": 0.06818181818181301,
                "tempo": 120.0
            },
            {
                "start_time": 92.36590909090908,
                "end_time": 92.43181818181817,
                "pitch": 50,
                "velocity": 80,
                "duration": 0.06590909090908781,
                "tempo": 120.0
            },
            {
                "start_time": 92.4659090909091,
                "end_time": 92.63181818181818,
                "pitch": 55,
                "velocity": 80,
                "duration": 0.16590909090908212,
                "tempo": 120.0
            },
            {
                "start_time": 92.66590909090908,
                "end_time": 92.73181818181818,
                "pitch": 50,
                "velocity": 80,
                "duration": 0.06590909090910202,
                "tempo": 120.0
            },
            {
                "start_time": 92.76590909090909,
                "end_time": 93.0340909090909,
                "pitch": 45,
                "velocity": 80,
                "duration": 0.26818181818181586,
                "tempo": 120.0
            },
            {
                "start_time": 93.06818181818181,
                "end_time": 93.1340909090909,
                "pitch": 52,
                "velocity": 80,
                "duration": 0.06590909090908781,
                "tempo": 120.0
            },
            {
                "start_time": 93.16818181818181,
                "end_time": 93.23409090909091,
                "pitch": 52,
                "velocity": 80,
                "duration": 0.06590909090910202,
                "tempo": 120.0
            },
            {
                "start_time": 93.26818181818182,
                "end_time": 93.43636363636364,
                "pitch": 57,
                "velocity": 80,
                "duration": 0.16818181818182154,
                "tempo": 120.0
            },
            {
                "start_time": 93.47045454545454,
                "end_time": 93.6340909090909,
                "pitch": 55,
                "velocity": 80,
                "duration": 0.16363636363635692,
                "tempo": 120.0
            },
            {
                "start_time": 93.66590909090908,
                "end_time": 93.73181818181818,
                "pitch": 52,
                "velocity": 80,
                "duration": 0.06590909090910202,
                "tempo": 120.0
            },
            {
                "start_time": 93.76590909090909,
                "end_time": 93.82954545454545,
                "pitch": 52,
                "velocity": 80,
                "duration": 0.0636363636363626,
                "tempo": 120.0
            },
            {
                "start_time": 93.86363636363636,
                "end_time": 93.92954545454545,
                "pitch": 59,
                "velocity": 80,
                "duration": 0.06590909090908781,
                "tempo": 120.0
            },
            {
                "start_time": 93.96363636363635,
                "end_time": 94.35,
                "pitch": 57,
                "velocity": 80,
                "duration": 0.38636363636364024,
                "tempo": 120.0
            },
            {
                "start_time": 94.38181818181818,
                "end_time": 94.64545454545454,
                "pitch": 41,
                "velocity": 80,
                "duration": 0.26363636363636545,
                "tempo": 120.0
            },
            {
                "start_time": 94.67727272727272,
                "end_time": 94.74318181818181,
                "pitch": 48,
                "velocity": 80,
                "duration": 0.06590909090908781,
                "tempo": 120.0
            },
            {
                "start_time": 94.77727272727272,
                "end_time": 94.84318181818182,
                "pitch": 48,
                "velocity": 80,
                "duration": 0.06590909090910202,
                "tempo": 120.0
            },
            {
                "start_time": 94.87727272727273,
                "end_time": 95.04545454545455,
                "pitch": 53,
                "velocity": 80,
                "duration": 0.16818181818182154,
                "tempo": 120.0
            },
            {
                "start_time": 95.07727272727273,
                "end_time": 95.14545454545454,
                "pitch": 48,
                "velocity": 80,
                "duration": 0.06818181818181301,
                "tempo": 120.0
            },
            {
                "start_time": 95.17954545454545,
                "end_time": 95.44772727272726,
                "pitch": 43,
                "velocity": 80,
                "duration": 0.26818181818181586,
                "tempo": 120.0
            },
            {
                "start_time": 95.48181818181818,
                "end_time": 95.54772727272727,
                "pitch": 50,
                "velocity": 80,
                "duration": 0.06590909090908781,
                "tempo": 120.0
            },
            {
                "start_time": 95.58181818181818,
                "end_time": 95.64772727272727,
                "pitch": 50,
                "velocity": 80,
                "duration": 0.06590909090908781,
                "tempo": 120.0
            },
            {
                "start_time": 95.68181818181817,
                "end_time": 95.84772727272727,
                "pitch": 55,
                "velocity": 80,
                "duration": 0.16590909090909634,
                "tempo": 120.0
            },
            {
                "start_time": 95.88181818181818,
                "end_time": 95.94772727272726,
                "pitch": 50,
                "velocity": 80,
                "duration": 0.06590909090908781,
                "tempo": 120.0
            },
            {
                "start_time": 95.97954545454544,
                "end_time": 96.24090909090908,
                "pitch": 45,
                "velocity": 80,
                "duration": 0.26136363636364024,
                "tempo": 120.0
            },
            {
                "start_time": 96.27499999999999,
                "end_time": 96.34090909090908,
                "pitch": 52,
                "velocity": 80,
                "duration": 0.06590909090908781,
                "tempo": 120.0
            },
            {
                "start_time": 96.375,
                "end_time": 96.44318181818181,
                "pitch": 52,
                "velocity": 80,
                "duration": 0.06818181818181301,
                "tempo": 120.0
            },
            {
                "start_time": 96.47727272727272,
                "end_time": 96.64772727272727,
                "pitch": 59,
                "velocity": 80,
                "duration": 0.17045454545454675,
                "tempo": 120.0
            },
            {
                "start_time": 96.6840909090909,
                "end_time": 96.95227272727273,
                "pitch": 57,
                "velocity": 80,
                "duration": 0.26818181818183007,
                "tempo": 120.0
            },
            {
                "start_time": 96.98636363636363,
                "end_time": 97.15454545454546,
                "pitch": 57,
                "velocity": 80,
                "duration": 0.16818181818182154,
                "tempo": 120.0
            },
            {
                "start_time": 97.18636363636364,
                "end_time": 97.35454545454544,
                "pitch": 57,
                "velocity": 80,
                "duration": 0.16818181818180733,
                "tempo": 120.0
            },
            {
                "start_time": 97.38863636363637,
                "end_time": 97.55681818181817,
                "pitch": 55,
                "velocity": 80,
                "duration": 0.16818181818180733,
                "tempo": 120.0
            },
            {
                "start_time": 97.58863636363635,
                "end_time": 97.75681818181818,
                "pitch": 57,
                "velocity": 80,
                "duration": 0.16818181818182154,
                "tempo": 120.0
            },
            {
                "start_time": 97.78863636363636,
                "end_time": 100.76590909090909,
                "pitch": 0,
                "velocity": 80,
                "duration": 2.9772727272727337,
                "tempo": 120.0
            },
            {
                "start_time": 100.8,
                "end_time": 100.86363636363636,
                "pitch": 0,
                "velocity": 80,
                "duration": 0.0636363636363626,
                "tempo": 120.0
            },
            {
                "start_time": 100.89772727272727,
                "end_time": 100.96363636363635,
                "pitch": 45,
                "velocity": 80,
                "duration": 0.06590909090908781,
                "tempo": 120.0
            },
            {
                "start_time": 100.99545454545454,
                "end_time": 101.06136363636364,
                "pitch": 0,
                "velocity": 80,
                "duration": 0.06590909090910202,
                "tempo": 120.0
            },
            {
                "start_time": 101.09318181818182,
                "end_time": 101.15454545454546,
                "pitch": 48,
                "velocity": 80,
                "duration": 0.0613636363636374,
                "tempo": 120.0
            },
            {
                "start_time": 101.18636363636364,
                "end_time": 101.24772727272727,
                "pitch": 0,
                "velocity": 80,
                "duration": 0.0613636363636374,
                "tempo": 120.0
            },
            {
                "start_time": 101.27954545454546,
                "end_time": 101.34090909090908,
                "pitch": 50,
                "velocity": 80,
                "duration": 0.061363636363623186,
                "tempo": 120.0
            },
            {
                "start_time": 101.37272727272727,
                "end_time": 101.4340909090909,
                "pitch": 0,
                "velocity": 80,
                "duration": 0.061363636363623186,
                "tempo": 120.0
            },
            {
                "start_time": 101.46363636363635,
                "end_time": 101.52954545454546,
                "pitch": 52,
                "velocity": 80,
                "duration": 0.06590909090910202,
                "tempo": 120.0
            },
            {
                "start_time": 101.56363636363636,
                "end_time": 101.63181818181818,
                "pitch": 0,
                "velocity": 80,
                "duration": 0.06818181818181301,
                "tempo": 120.0
            },
            {
                "start_time": 101.66590909090908,
                "end_time": 101.73181818181817,
                "pitch": 50,
                "velocity": 80,
                "duration": 0.06590909090908781,
                "tempo": 120.0
            },
            {
                "start_time": 101.76590909090909,
                "end_time": 101.83181818181818,
                "pitch": 0,
                "velocity": 80,
                "duration": 0.06590909090908781,
                "tempo": 120.0
            },
            {
                "start_time": 101.86590909090908,
                "end_time": 101.92954545454545,
                "pitch": 52,
                "velocity": 80,
                "duration": 0.0636363636363626,
                "tempo": 120.0
            },
            {
                "start_time": 101.96136363636363,
                "end_time": 102.02499999999999,
                "pitch": 0,
                "velocity": 80,
                "duration": 0.0636363636363626,
                "tempo": 120.0
            },
            {
                "start_time": 102.05681818181817,
                "end_time": 102.12045454545454,
                "pitch": 55,
                "velocity": 80,
                "duration": 0.0636363636363626,
                "tempo": 120.0
            },
            {
                "start_time": 102.15227272727272,
                "end_time": 102.21590909090908,
                "pitch": 0,
                "velocity": 80,
                "duration": 0.0636363636363626,
                "tempo": 120.0
            },
            {
                "start_time": 102.24545454545454,
                "end_time": 102.30454545454545,
                "pitch": 57,
                "velocity": 80,
                "duration": 0.05909090909091219,
                "tempo": 120.0
            },
            {
                "start_time": 102.33636363636363,
                "end_time": 102.39545454545454,
                "pitch": 0,
                "velocity": 80,
                "duration": 0.05909090909091219,
                "tempo": 120.0
            },
            {
                "start_time": 102.425,
                "end_time": 102.48636363636363,
                "pitch": 57,
                "velocity": 80,
                "duration": 0.0613636363636374,
                "tempo": 120.0
            },
            {
                "start_time": 102.51590909090909,
                "end_time": 102.57727272727273,
                "pitch": 0,
                "velocity": 80,
                "duration": 0.0613636363636374,
                "tempo": 120.0
            },
            {
                "start_time": 102.61136363636363,
                "end_time": 102.67954545454545,
                "pitch": 60,
                "velocity": 80,
                "duration": 0.06818181818181301,
                "tempo": 120.0
            },
            {
                "start_time": 102.71363636363635,
                "end_time": 102.77954545454546,
                "pitch": 0,
                "velocity": 80,
                "duration": 0.06590909090910202,
                "tempo": 120.0
            },
            {
                "start_time": 102.81363636363636,
                "end_time": 102.87954545454545,
                "pitch": 62,
                "velocity": 80,
                "duration": 0.06590909090908781,
                "tempo": 120.0
            },
            {
                "start_time": 102.91363636363636,
                "end_time": 102.98181818181817,
                "pitch": 0,
                "velocity": 80,
                "duration": 0.06818181818181301,
                "tempo": 120.0
            },
            {
                "start_time": 103.01363636363637,
                "end_time": 103.08181818181818,
                "pitch": 64,
                "velocity": 80,
                "duration": 0.06818181818181301,
                "tempo": 120.0
            },
            {
                "start_time": 103.11363636363636,
                "end_time": 103.18181818181817,
                "pitch": 0,
                "velocity": 80,
                "duration": 0.06818181818181301,
                "tempo": 120.0
            },
            {
                "start_time": 103.21363636363635,
                "end_time": 103.28181818181818,
                "pitch": 67,
                "velocity": 80,
                "duration": 0.06818181818182723,
                "tempo": 120.0
            },
            {
                "start_time": 103.31363636363636,
                "end_time": 103.37954545454545,
                "pitch": 0,
                "velocity": 80,
                "duration": 0.06590909090908781,
                "tempo": 120.0
            },
            {
                "start_time": 103.41363636363636,
                "end_time": 103.47727272727272,
                "pitch": 68,
                "velocity": 80,
                "duration": 0.0636363636363626,
                "tempo": 120.0
            },
            {
                "start_time": 103.51136363636363,
                "end_time": 103.57727272727273,
                "pitch": 0,
                "velocity": 80,
                "duration": 0.06590909090910202,
                "tempo": 120.0
            },
            {
                "start_time": 103.60909090909091,
                "end_time": 105.08636363636363,
                "pitch": 69,
                "velocity": 80,
                "duration": 1.4772727272727195,
                "tempo": 120.0
            },
            {
                "start_time": 105.12045454545454,
                "end_time": 105.59318181818182,
                "pitch": 0,
                "velocity": 80,
                "duration": 0.4727272727272833,
                "tempo": 120.0
            },
            {
                "start_time": 105.62727272727273,
                "end_time": 105.69545454545454,
                "pitch": 41,
                "velocity": 80,
                "duration": 0.06818181818181301,
                "tempo": 120.0
            },
            {
                "start_time": 105.72954545454544,
                "end_time": 105.79772727272727,
                "pitch": 0,
                "velocity": 80,
                "duration": 0.06818181818182723,
                "tempo": 120.0
            },
            {
                "start_time": 105.83181818181818,
                "end_time": 105.90681818181818,
                "pitch": 53,
                "velocity": 80,
                "duration": 0.07500000000000284,
                "tempo": 120.0
            },
            {
                "start_time": 105.94318181818181,
                "end_time": 106.23636363636363,
                "pitch": 0,
                "velocity": 80,
                "duration": 0.29318181818182154,
                "tempo": 120.0
            },
            {
                "start_time": 106.27272727272727,
                "end_time": 106.34318181818182,
                "pitch": 43,
                "velocity": 80,
                "duration": 0.07045454545455243,
                "tempo": 120.0
            },
            {
                "start_time": 106.37727272727273,
                "end_time": 106.44545454545454,
                "pitch": 0,
                "velocity": 80,
                "duration": 0.06818181818181301,
                "tempo": 120.0
            },
            {
                "start_time": 106.47954545454544,
                "end_time": 106.54772727272727,
                "pitch": 55,
                "velocity": 80,
                "duration": 0.06818181818182723,
                "tempo": 120.0
            },
            {
                "start_time": 106.58181818181818,
                "end_time": 107.28636363636363,
                "pitch": 0,
                "velocity": 80,
                "duration": 0.7045454545454533,
                "tempo": 120.0
            },
            {
                "start_time": 107.31818181818181,
                "end_time": 107.38636363636363,
                "pitch": 43,
                "velocity": 80,
                "duration": 0.06818181818181301,
                "tempo": 120.0
            },
            {
                "start_time": 107.42045454545455,
                "end_time": 107.48636363636363,
                "pitch": 0,
                "velocity": 80,
                "duration": 0.06590909090908781,
                "tempo": 120.0
            },
            {
                "start_time": 107.52045454545454,
                "end_time": 107.58863636363635,
                "pitch": 55,
                "velocity": 80,
                "duration": 0.06818181818181301,
                "tempo": 120.0
            },
            {
                "start_time": 107.62272727272726,
                "end_time": 107.90454545454546,
                "pitch": 0,
                "velocity": 80,
                "duration": 0.2818181818181955,
                "tempo": 120.0
            },
            {
                "start_time": 107.94090909090909,
                "end_time": 108.0090909090909,
                "pitch": 45,
                "velocity": 80,
                "duration": 0.06818181818181301,
                "tempo": 120.0
            },
            {
                "start_time": 108.04318181818181,
                "end_time": 108.10909090909091,
                "pitch": 0,
                "velocity": 80,
                "duration": 0.06590909090910202,
                "tempo": 120.0
            },
            {
                "start_time": 108.14318181818182,
                "end_time": 108.2090909090909,
                "pitch": 57,
                "velocity": 80,
                "duration": 0.06590909090908781,
                "tempo": 120.0
            },
            {
                "start_time": 108.24318181818181,
                "end_time": 108.89999999999999,
                "pitch": 0,
                "velocity": 80,
                "duration": 0.6568181818181813,
                "tempo": 120.0
            },
            {
                "start_time": 108.93181818181817,
                "end_time": 108.99772727272726,
                "pitch": 41,
                "velocity": 80,
                "duration": 0.06590909090908781,
                "tempo": 120.0
            },
            {
                "start_time": 109.02954545454546,
                "end_time": 109.09545454545454,
                "pitch": 0,
                "velocity": 80,
                "duration": 0.06590909090908781,
                "tempo": 120.0
            },
            {
                "start_time": 109.12954545454545,
                "end_time": 109.19545454545454,
                "pitch": 53,
                "velocity": 80,
                "duration": 0.06590909090908781,
                "tempo": 120.0
            },
            {
                "start_time": 109.22954545454544,
                "end_time": 109.51136363636363,
                "pitch": 0,
                "velocity": 80,
                "duration": 0.2818181818181813,
                "tempo": 120.0
            },
            {
                "start_time": 109.54545454545455,
                "end_time": 109.61363636363636,
                "pitch": 43,
                "velocity": 80,
                "duration": 0.06818181818181301,
                "tempo": 120.0
            },
            {
                "start_time": 109.64545454545454,
                "end_time": 109.7090909090909,
                "pitch": 0,
                "velocity": 80,
                "duration": 0.0636363636363626,
                "tempo": 120.0
            },
            {
                "start_time": 109.74090909090908,
                "end_time": 109.80454545454545,
                "pitch": 55,
                "velocity": 80,
                "duration": 0.0636363636363626,
                "tempo": 120.0
            },
            {
                "start_time": 109.83636363636363,
                "end_time": 110.50454545454545,
                "pitch": 0,
                "velocity": 80,
                "duration": 0.6681818181818215,
                "tempo": 120.0
            },
            {
                "start_time": 110.53863636363636,
                "end_time": 110.60454545454544,
                "pitch": 43,
                "velocity": 80,
                "duration": 0.06590909090908781,
                "tempo": 120.0
            },
            {
                "start_time": 110.63636363636363,
                "end_time": 110.70227272727273,
                "pitch": 0,
                "velocity": 80,
                "duration": 0.06590909090910202,
                "tempo": 120.0
            },
            {
                "start_time": 110.73409090909091,
                "end_time": 110.8,
                "pitch": 55,
                "velocity": 80,
                "duration": 0.06590909090908781,
                "tempo": 120.0
            },
            {
                "start_time": 110.8340909090909,
                "end_time": 111.11590909090908,
                "pitch": 0,
                "velocity": 80,
                "duration": 0.2818181818181813,
                "tempo": 120.0
            },
            {
                "start_time": 111.15227272727272,
                "end_time": 111.22272727272727,
                "pitch": 45,
                "velocity": 80,
                "duration": 0.07045454545455243,
                "tempo": 120.0
            },
            {
                "start_time": 111.25454545454545,
                "end_time": 111.32272727272726,
                "pitch": 0,
                "velocity": 80,
                "duration": 0.06818181818181301,
                "tempo": 120.0
            },
            {
                "start_time": 111.35454545454544,
                "end_time": 111.42272727272727,
                "pitch": 57,
                "velocity": 80,
                "duration": 0.06818181818182723,
                "tempo": 120.0
            },
            {
                "start_time": 111.45454545454545,
                "end_time": 111.72045454545454,
                "pitch": 0,
                "velocity": 80,
                "duration": 0.26590909090909065,
                "tempo": 120.0
            },
            {
                "start_time": 111.75227272727273,
                "end_time": 114.22272727272727,
                "pitch": 40,
                "velocity": 80,
                "duration": 2.470454545454544,
                "tempo": 120.0
            },
            {
                "start_time": 114.25681818181818,
                "end_time": 114.32499999999999,
                "pitch": 0,
                "velocity": 80,
                "duration": 0.06818181818181301,
                "tempo": 120.0
            },
            {
                "start_time": 114.35909090909091,
                "end_time": 114.42727272727272,
                "pitch": 40,
                "velocity": 80,
                "duration": 0.06818181818181301,
                "tempo": 120.0
            },
            {
                "start_time": 114.4590909090909,
                "end_time": 114.52727272727272,
                "pitch": 40,
                "velocity": 80,
                "duration": 0.06818181818181301,
                "tempo": 120.0
            },
            {
                "start_time": 114.5590909090909,
                "end_time": 114.62727272727273,
                "pitch": 0,
                "velocity": 80,
                "duration": 0.06818181818182723,
                "tempo": 120.0
            },
            {
                "start_time": 114.6590909090909,
                "end_time": 114.72727272727272,
                "pitch": 52,
                "velocity": 80,
                "duration": 0.06818181818181301,
                "tempo": 120.0
            },
            {
                "start_time": 114.7590909090909,
                "end_time": 114.82727272727273,
                "pitch": 40,
                "velocity": 80,
                "duration": 0.06818181818182723,
                "tempo": 120.0
            },
            {
                "start_time": 114.86136363636363,
                "end_time": 114.92727272727272,
                "pitch": 50,
                "velocity": 80,
                "duration": 0.06590909090908781,
                "tempo": 120.0
            },
            {
                "start_time": 114.96136363636363,
                "end_time": 115.02727272727272,
                "pitch": 51,
                "velocity": 80,
                "duration": 0.06590909090908781,
                "tempo": 120.0
            },
            {
                "start_time": 115.06136363636364,
                "end_time": 115.12954545454545,
                "pitch": 52,
                "velocity": 80,
                "duration": 0.06818181818181301,
                "tempo": 120.0
            },
            {
                "start_time": 115.16136363636363,
                "end_time": 115.22954545454544,
                "pitch": 53,
                "velocity": 80,
                "duration": 0.06818181818181301,
                "tempo": 120.0
            },
            {
                "start_time": 115.26363636363635,
                "end_time": 115.53181818181818,
                "pitch": 45,
                "velocity": 80,
                "duration": 0.26818181818183007,
                "tempo": 120.0
            },
            {
                "start_time": 115.56590909090909,
                "end_time": 115.63181818181818,
                "pitch": 52,
                "velocity": 80,
                "duration": 0.06590909090908781,
                "tempo": 120.0
            },
            {
                "start_time": 115.66590909090908,
                "end_time": 115.93181818181817,
                "pitch": 52,
                "velocity": 80,
                "duration": 0.26590909090909065,
                "tempo": 120.0
            },
            {
                "start_time": 115.96590909090908,
                "end_time": 116.03181818181818,
                "pitch": 57,
                "velocity": 80,
                "duration": 0.06590909090910202,
                "tempo": 120.0
            },
            {
                "start_time": 116.06590909090909,
                "end_time": 116.34090909090908,
                "pitch": 57,
                "velocity": 80,
                "duration": 0.2749999999999915,
                "tempo": 120.0
            },
            {
                "start_time": 116.375,
                "end_time": 116.44318181818181,
                "pitch": 52,
                "velocity": 80,
                "duration": 0.06818181818181301,
                "tempo": 120.0
            },
            {
                "start_time": 116.475,
                "end_time": 116.63863636363635,
                "pitch": 52,
                "velocity": 80,
                "duration": 0.16363636363635692,
                "tempo": 120.0
            },
            {
                "start_time": 116.67045454545455,
                "end_time": 116.8340909090909,
                "pitch": 45,
                "velocity": 80,
                "duration": 0.16363636363635692,
                "tempo": 120.0
            },
            {
                "start_time": 116.86818181818181,
                "end_time": 117.13636363636363,
                "pitch": 50,
                "velocity": 80,
                "duration": 0.26818181818181586,
                "tempo": 120.0
            },
            {
                "start_time": 117.17045454545455,
                "end_time": 117.23863636363636,
                "pitch": 57,
                "velocity": 80,
                "duration": 0.06818181818181301,
                "tempo": 120.0
            },
            {
                "start_time": 117.27045454545454,
                "end_time": 117.53863636363636,
                "pitch": 57,
                "velocity": 80,
                "duration": 0.26818181818181586,
                "tempo": 120.0
            },
            {
                "start_time": 117.57272727272726,
                "end_time": 117.64090909090909,
                "pitch": 62,
                "velocity": 80,
                "duration": 0.06818181818182723,
                "tempo": 120.0
            },
            {
                "start_time": 117.675,
                "end_time": 117.94772727272726,
                "pitch": 62,
                "velocity": 80,
                "duration": 0.27272727272726627,
                "tempo": 120.0
            },
            {
                "start_time": 117.98409090909091,
                "end_time": 118.05,
                "pitch": 57,
                "velocity": 80,
                "duration": 0.06590909090908781,
                "tempo": 120.0
            },
            {
                "start_time": 118.0840909090909,
                "end_time": 118.14772727272727,
                "pitch": 57,
                "velocity": 80,
                "duration": 0.0636363636363626,
                "tempo": 120.0
            },
            {
                "start_time": 118.18181818181817,
                "end_time": 118.44318181818181,
                "pitch": 50,
                "velocity": 80,
                "duration": 0.26136363636364024,
                "tempo": 120.0
            },
            {
                "start_time": 118.47727272727272,
                "end_time": 118.74318181818181,
                "pitch": 45,
                "velocity": 80,
                "duration": 0.26590909090909065,
                "tempo": 120.0
            },
            {
                "start_time": 118.77727272727272,
                "end_time": 118.84318181818182,
                "pitch": 52,
                "velocity": 80,
                "duration": 0.06590909090910202,
                "tempo": 120.0
            },
            {
                "start_time": 118.87727272727273,
                "end_time": 119.14545454545454,
                "pitch": 52,
                "velocity": 80,
                "duration": 0.26818181818181586,
                "tempo": 120.0
            },
            {
                "start_time": 119.17954545454545,
                "end_time": 119.24545454545454,
                "pitch": 57,
                "velocity": 80,
                "duration": 0.06590909090908781,
                "tempo": 120.0
            },
            {
                "start_time": 119.27954545454544,
                "end_time": 119.55454545454545,
                "pitch": 57,
                "velocity": 80,
                "duration": 0.2750000000000057,
                "tempo": 120.0
            },
            {
                "start_time": 119.58863636363635,
                "end_time": 119.65681818181818,
                "pitch": 52,
                "velocity": 80,
                "duration": 0.06818181818182723,
                "tempo": 120.0
            },
            {
                "start_time": 119.68863636363636,
                "end_time": 119.85227272727272,
                "pitch": 52,
                "velocity": 80,
                "duration": 0.16363636363635692,
                "tempo": 120.0
            },
            {
                "start_time": 119.8840909090909,
                "end_time": 120.05,
                "pitch": 45,
                "velocity": 80,
                "duration": 0.16590909090909634,
                "tempo": 120.0
            },
            {
                "start_time": 120.08181818181818,
                "end_time": 120.35,
                "pitch": 50,
                "velocity": 80,
                "duration": 0.26818181818181586,
                "tempo": 120.0
            },
            {
                "start_time": 120.3840909090909,
                "end_time": 120.45227272727273,
                "pitch": 57,
                "velocity": 80,
                "duration": 0.06818181818182723,
                "tempo": 120.0
            },
            {
                "start_time": 120.48409090909091,
                "end_time": 120.75227272727273,
                "pitch": 57,
                "velocity": 80,
                "duration": 0.26818181818181586,
                "tempo": 120.0
            },
            {
                "start_time": 120.7840909090909,
                "end_time": 120.85227272727272,
                "pitch": 62,
                "velocity": 80,
                "duration": 0.06818181818181301,
                "tempo": 120.0
            },
            {
                "start_time": 120.88636363636363,
                "end_time": 120.95454545454545,
                "pitch": 62,
                "velocity": 80,
                "duration": 0.06818181818182723,
                "tempo": 120.0
            },
            {
                "start_time": 120.98863636363636,
                "end_time": 121.05681818181817,
                "pitch": 60,
                "velocity": 80,
                "duration": 0.06818181818181301,
                "tempo": 120.0
            },
            {
                "start_time": 121.09090909090908,
                "end_time": 121.1590909090909,
                "pitch": 61,
                "velocity": 80,
                "duration": 0.06818181818182723,
                "tempo": 120.0
            },
            {
                "start_time": 121.19318181818181,
                "end_time": 121.26136363636363,
                "pitch": 62,
                "velocity": 80,
                "duration": 0.06818181818181301,
                "tempo": 120.0
            },
            {
                "start_time": 121.29545454545453,
                "end_time": 121.35909090909091,
                "pitch": 0,
                "velocity": 80,
                "duration": 0.06363636363637681,
                "tempo": 120.0
            },
            {
                "start_time": 121.39318181818182,
                "end_time": 121.45681818181818,
                "pitch": 55,
                "velocity": 80,
                "duration": 0.0636363636363626,
                "tempo": 120.0
            },
            {
                "start_time": 121.49090909090908,
                "end_time": 121.55681818181817,
                "pitch": 56,
                "velocity": 80,
                "duration": 0.06590909090908781,
                "tempo": 120.0
            },
            {
                "start_time": 121.58863636363635,
                "end_time": 121.65454545454544,
                "pitch": 57,
                "velocity": 80,
                "duration": 0.06590909090908781,
                "tempo": 120.0
            },
            {
                "start_time": 121.68863636363636,
                "end_time": 121.95454545454545,
                "pitch": 45,
                "velocity": 80,
                "duration": 0.26590909090909065,
                "tempo": 120.0
            },
            {
                "start_time": 121.98863636363636,
                "end_time": 122.05454545454545,
                "pitch": 52,
                "velocity": 80,
                "duration": 0.06590909090908781,
                "tempo": 120.0
            },
            {
                "start_time": 122.08863636363635,
                "end_time": 122.35681818181817,
                "pitch": 52,
                "velocity": 80,
                "duration": 0.26818181818181586,
                "tempo": 120.0
            },
            {
                "start_time": 122.39090909090909,
                "end_time": 122.45681818181818,
                "pitch": 57,
                "velocity": 80,
                "duration": 0.06590909090908781,
                "tempo": 120.0
            },
            {
                "start_time": 122.49090909090908,
                "end_time": 122.76590909090909,
                "pitch": 57,
                "velocity": 80,
                "duration": 0.2750000000000057,
                "tempo": 120.0
            },
            {
                "start_time": 122.8,
                "end_time": 122.86818181818181,
                "pitch": 52,
                "velocity": 80,
                "duration": 0.06818181818181301,
                "tempo": 120.0
            },
            {
                "start_time": 122.89999999999999,
                "end_time": 123.06363636363636,
                "pitch": 52,
                "velocity": 80,
                "duration": 0.16363636363637113,
                "tempo": 120.0
            },
            {
                "start_time": 123.09545454545454,
                "end_time": 123.2590909090909,
                "pitch": 45,
                "velocity": 80,
                "duration": 0.16363636363635692,
                "tempo": 120.0
            },
            {
                "start_time": 123.29318181818181,
                "end_time": 123.56136363636364,
                "pitch": 50,
                "velocity": 80,
                "duration": 0.26818181818183007,
                "tempo": 120.0
            },
            {
                "start_time": 123.59545454545454,
                "end_time": 123.66363636363636,
                "pitch": 57,
                "velocity": 80,
                "duration": 0.06818181818181301,
                "tempo": 120.0
            },
            {
                "start_time": 123.69545454545454,
                "end_time": 123.96363636363635,
                "pitch": 57,
                "velocity": 80,
                "duration": 0.26818181818181586,
                "tempo": 120.0
            },
            {
                "start_time": 123.99545454545454,
                "end_time": 124.06363636363636,
                "pitch": 62,
                "velocity": 80,
                "duration": 0.06818181818182723,
                "tempo": 120.0
            },
            {
                "start_time": 124.09772727272727,
                "end_time": 124.37045454545454,
                "pitch": 62,
                "velocity": 80,
                "duration": 0.27272727272726627,
                "tempo": 120.0
            },
            {
                "start_time": 124.40454545454544,
                "end_time": 124.47272727272727,
                "pitch": 57,
                "velocity": 80,
                "duration": 0.06818181818182723,
                "tempo": 120.0
            },
            {
                "start_time": 124.50454545454545,
                "end_time": 124.57045454545454,
                "pitch": 57,
                "velocity": 80,
                "duration": 0.06590909090908781,
                "tempo": 120.0
            },
            {
                "start_time": 124.60454545454544,
                "end_time": 124.86590909090908,
                "pitch": 50,
                "velocity": 80,
                "duration": 0.26136363636364024,
                "tempo": 120.0
            },
            {
                "start_time": 124.89999999999999,
                "end_time": 125.16818181818181,
                "pitch": 45,
                "velocity": 80,
                "duration": 0.26818181818181586,
                "tempo": 120.0
            },
            {
                "start_time": 125.19999999999999,
                "end_time": 125.26818181818182,
                "pitch": 52,
                "velocity": 80,
                "duration": 0.06818181818182723,
                "tempo": 120.0
            },
            {
                "start_time": 125.30227272727272,
                "end_time": 125.57045454545454,
                "pitch": 52,
                "velocity": 80,
                "duration": 0.26818181818181586,
                "tempo": 120.0
            },
            {
                "start_time": 125.60454545454544,
                "end_time": 125.67045454545453,
                "pitch": 57,
                "velocity": 80,
                "duration": 0.06590909090908781,
                "tempo": 120.0
            },
            {
                "start_time": 125.70454545454545,
                "end_time": 125.97954545454544,
                "pitch": 57,
                "velocity": 80,
                "duration": 0.2749999999999915,
                "tempo": 120.0
            },
            {
                "start_time": 126.01363636363635,
                "end_time": 126.08181818181818,
                "pitch": 52,
                "velocity": 80,
                "duration": 0.06818181818182723,
                "tempo": 120.0
            },
            {
                "start_time": 126.11363636363636,
                "end_time": 126.17954545454545,
                "pitch": 52,
                "velocity": 80,
                "duration": 0.06590909090908781,
                "tempo": 120.0
            },
            {
                "start_time": 126.21136363636363,
                "end_time": 126.27727272727272,
                "pitch": 50,
                "velocity": 80,
                "duration": 0.06590909090908781,
                "tempo": 120.0
            },
            {
                "start_time": 126.3090909090909,
                "end_time": 126.375,
                "pitch": 51,
                "velocity": 80,
                "duration": 0.06590909090910202,
                "tempo": 120.0
            },
            {
                "start_time": 126.4090909090909,
                "end_time": 126.47272727272727,
                "pitch": 52,
                "velocity": 80,
                "duration": 0.0636363636363626,
                "tempo": 120.0
            },
            {
                "start_time": 126.50681818181818,
                "end_time": 126.77272727272727,
                "pitch": 50,
                "velocity": 80,
                "duration": 0.26590909090909065,
                "tempo": 120.0
            },
            {
                "start_time": 126.80681818181817,
                "end_time": 126.87272727272726,
                "pitch": 57,
                "velocity": 80,
                "duration": 0.06590909090908781,
                "tempo": 120.0
            },
            {
                "start_time": 126.90681818181818,
                "end_time": 127.175,
                "pitch": 57,
                "velocity": 80,
                "duration": 0.26818181818181586,
                "tempo": 120.0
            },
            {
                "start_time": 127.2090909090909,
                "end_time": 127.27499999999999,
                "pitch": 50,
                "velocity": 80,
                "duration": 0.06590909090908781,
                "tempo": 120.0
            },
            {
                "start_time": 127.3090909090909,
                "end_time": 127.40681818181818,
                "pitch": 64,
                "velocity": 80,
                "duration": 0.09772727272728332,
                "tempo": 120.0
            },
            {
                "start_time": 127.43863636363636,
                "end_time": 127.53636363636363,
                "pitch": 64,
                "velocity": 80,
                "duration": 0.09772727272726911,
                "tempo": 120.0
            },
            {
                "start_time": 127.57045454545454,
                "end_time": 127.66818181818181,
                "pitch": 64,
                "velocity": 80,
                "duration": 0.09772727272726911,
                "tempo": 120.0
            },
            {
                "start_time": 127.70227272727273,
                "end_time": 127.80681818181817,
                "pitch": 62,
                "velocity": 80,
                "duration": 0.10454545454544473,
                "tempo": 120.0
            },
            {
                "start_time": 127.84090909090908,
                "end_time": 128.07954545454544,
                "pitch": 55,
                "velocity": 80,
                "duration": 0.23863636363635976,
                "tempo": 120.0
            },
            {
                "start_time": 128.11363636363635,
                "end_time": 128.38181818181818,
                "pitch": 45,
                "velocity": 80,
                "duration": 0.26818181818183007,
                "tempo": 120.0
            },
            {
                "start_time": 128.41590909090908,
                "end_time": 128.48181818181817,
                "pitch": 52,
                "velocity": 80,
                "duration": 0.06590909090908781,
                "tempo": 120.0
            },
            {
                "start_time": 128.51590909090908,
                "end_time": 128.78181818181818,
                "pitch": 52,
                "velocity": 80,
                "duration": 0.26590909090910486,
                "tempo": 120.0
            },
            {
                "start_time": 128.8159090909091,
                "end_time": 128.88181818181818,
                "pitch": 57,
                "velocity": 80,
                "duration": 0.06590909090908781,
                "tempo": 120.0
            },
            {
                "start_time": 128.91590909090908,
                "end_time": 129.1909090909091,
                "pitch": 57,
                "velocity": 80,
                "duration": 0.2750000000000057,
                "tempo": 120.0
            },
            {
                "start_time": 129.225,
                "end_time": 129.2931818181818,
                "pitch": 52,
                "velocity": 80,
                "duration": 0.06818181818181301,
                "tempo": 120.0
            },
            {
                "start_time": 129.325,
                "end_time": 129.48863636363635,
                "pitch": 52,
                "velocity": 80,
                "duration": 0.16363636363635692,
                "tempo": 120.0
            },
            {
                "start_time": 129.52045454545453,
                "end_time": 129.6840909090909,
                "pitch": 45,
                "velocity": 80,
                "duration": 0.16363636363638534,
                "tempo": 120.0
            },
            {
                "start_time": 129.71818181818182,
                "end_time": 129.98636363636362,
                "pitch": 50,
                "velocity": 80,
                "duration": 0.26818181818180165,
                "tempo": 120.0
            },
            {
                "start_time": 130.02045454545453,
                "end_time": 130.08636363636364,
                "pitch": 57,
                "velocity": 80,
                "duration": 0.06590909090911623,
                "tempo": 120.0
            },
            {
                "start_time": 130.12045454545455,
                "end_time": 130.38636363636363,
                "pitch": 57,
                "velocity": 80,
                "duration": 0.26590909090907644,
                "tempo": 120.0
            },
            {
                "start_time": 130.42045454545453,
                "end_time": 130.48863636363635,
                "pitch": 62,
                "velocity": 80,
                "duration": 0.06818181818181301,
                "tempo": 120.0
            },
            {
                "start_time": 130.52272727272728,
                "end_time": 130.79545454545453,
                "pitch": 62,
                "velocity": 80,
                "duration": 0.27272727272725206,
                "tempo": 120.0
            },
            {
                "start_time": 130.82954545454544,
                "end_time": 130.89772727272728,
                "pitch": 57,
                "velocity": 80,
                "duration": 0.06818181818184144,
                "tempo": 120.0
            },
            {
                "start_time": 130.92954545454546,
                "end_time": 130.99545454545455,
                "pitch": 57,
                "velocity": 80,
                "duration": 0.06590909090908781,
                "tempo": 120.0
            },
            {
                "start_time": 131.02954545454546,
                "end_time": 131.29090909090908,
                "pitch": 50,
                "velocity": 80,
                "duration": 0.26136363636362603,
                "tempo": 120.0
            },
            {
                "start_time": 131.325,
                "end_time": 131.59318181818182,
                "pitch": 45,
                "velocity": 80,
                "duration": 0.26818181818183007,
                "tempo": 120.0
            },
            {
                "start_time": 131.625,
                "end_time": 131.6931818181818,
                "pitch": 52,
                "velocity": 80,
                "duration": 0.06818181818181301,
                "tempo": 120.0
            },
            {
                "start_time": 131.72727272727272,
                "end_time": 131.99545454545455,
                "pitch": 52,
                "velocity": 80,
                "duration": 0.26818181818183007,
                "tempo": 120.0
            },
            {
                "start_time": 132.02954545454546,
                "end_time": 132.09545454545454,
                "pitch": 57,
                "velocity": 80,
                "duration": 0.06590909090908781,
                "tempo": 120.0
            },
            {
                "start_time": 132.12954545454545,
                "end_time": 132.40454545454546,
                "pitch": 57,
                "velocity": 80,
                "duration": 0.2750000000000057,
                "tempo": 120.0
            },
            {
                "start_time": 132.43863636363636,
                "end_time": 132.50681818181818,
                "pitch": 52,
                "velocity": 80,
                "duration": 0.06818181818181301,
                "tempo": 120.0
            },
            {
                "start_time": 132.53863636363636,
                "end_time": 132.7022727272727,
                "pitch": 52,
                "velocity": 80,
                "duration": 0.16363636363635692,
                "tempo": 120.0
            },
            {
                "start_time": 132.7340909090909,
                "end_time": 132.89772727272728,
                "pitch": 45,
                "velocity": 80,
                "duration": 0.16363636363638534,
                "tempo": 120.0
            },
            {
                "start_time": 132.9318181818182,
                "end_time": 133.2,
                "pitch": 50,
                "velocity": 80,
                "duration": 0.26818181818180165,
                "tempo": 120.0
            },
            {
                "start_time": 133.2340909090909,
                "end_time": 133.3022727272727,
                "pitch": 57,
                "velocity": 80,
                "duration": 0.06818181818181301,
                "tempo": 120.0
            },
            {
                "start_time": 133.3340909090909,
                "end_time": 133.60227272727272,
                "pitch": 57,
                "velocity": 80,
                "duration": 0.26818181818183007,
                "tempo": 120.0
            },
            {
                "start_time": 133.63636363636363,
                "end_time": 133.70454545454544,
                "pitch": 62,
                "velocity": 80,
                "duration": 0.06818181818181301,
                "tempo": 120.0
            },
            {
                "start_time": 133.73863636363635,
                "end_time": 133.8068181818182,
                "pitch": 62,
                "velocity": 80,
                "duration": 0.06818181818184144,
                "tempo": 120.0
            },
            {
                "start_time": 133.8409090909091,
                "end_time": 133.9090909090909,
                "pitch": 60,
                "velocity": 80,
                "duration": 0.06818181818181301,
                "tempo": 120.0
            },
            {
                "start_time": 133.9431818181818,
                "end_time": 134.01136363636363,
                "pitch": 61,
                "velocity": 80,
                "duration": 0.06818181818181301,
                "tempo": 120.0
            },
            {
                "start_time": 134.04772727272726,
                "end_time": 134.11363636363635,
                "pitch": 62,
                "velocity": 80,
                "duration": 0.06590909090908781,
                "tempo": 120.0
            },
            {
                "start_time": 134.14772727272725,
                "end_time": 134.21136363636364,
                "pitch": 0,
                "velocity": 80,
                "duration": 0.06363636363639102,
                "tempo": 120.0
            },
            {
                "start_time": 134.24545454545455,
                "end_time": 134.31136363636364,
                "pitch": 55,
                "velocity": 80,
                "duration": 0.06590909090908781,
                "tempo": 120.0
            },
            {
                "start_time": 134.34318181818182,
                "end_time": 134.4090909090909,
                "pitch": 56,
                "velocity": 80,
                "duration": 0.06590909090908781,
                "tempo": 120.0
            },
            {
                "start_time": 134.4409090909091,
                "end_time": 134.50681818181818,
                "pitch": 57,
                "velocity": 80,
                "duration": 0.06590909090908781,
                "tempo": 120.0
            },
            {
                "start_time": 134.54090909090908,
                "end_time": 134.8090909090909,
                "pitch": 45,
                "velocity": 80,
                "duration": 0.26818181818183007,
                "tempo": 120.0
            },
            {
                "start_time": 134.84318181818182,
                "end_time": 134.9090909090909,
                "pitch": 52,
                "velocity": 80,
                "duration": 0.06590909090908781,
                "tempo": 120.0
            },
            {
                "start_time": 134.9431818181818,
                "end_time": 135.21136363636364,
                "pitch": 52,
                "velocity": 80,
                "duration": 0.26818181818183007,
                "tempo": 120.0
            },
            {
                "start_time": 135.24545454545455,
                "end_time": 135.31136363636364,
                "pitch": 57,
                "velocity": 80,
                "duration": 0.06590909090908781,
                "tempo": 120.0
            },
            {
                "start_time": 135.34772727272727,
                "end_time": 135.62045454545455,
                "pitch": 57,
                "velocity": 80,
                "duration": 0.2727272727272805,
                "tempo": 120.0
            },
            {
                "start_time": 135.65454545454546,
                "end_time": 135.72272727272727,
                "pitch": 52,
                "velocity": 80,
                "duration": 0.06818181818181301,
                "tempo": 120.0
            },
            {
                "start_time": 135.75454545454545,
                "end_time": 135.9181818181818,
                "pitch": 52,
                "velocity": 80,
                "duration": 0.16363636363635692,
                "tempo": 120.0
            },
            {
                "start_time": 135.9522727272727,
                "end_time": 136.11590909090907,
                "pitch": 45,
                "velocity": 80,
                "duration": 0.16363636363635692,
                "tempo": 120.0
            },
            {
                "start_time": 136.14772727272725,
                "end_time": 136.41590909090908,
                "pitch": 50,
                "velocity": 80,
                "duration": 0.26818181818183007,
                "tempo": 120.0
            },
            {
                "start_time": 136.44772727272726,
                "end_time": 136.51590909090908,
                "pitch": 57,
                "velocity": 80,
                "duration": 0.06818181818181301,
                "tempo": 120.0
            },
            {
                "start_time": 136.54772727272726,
                "end_time": 136.8181818181818,
                "pitch": 57,
                "velocity": 80,
                "duration": 0.2704545454545553,
                "tempo": 120.0
            },
            {
                "start_time": 136.85,
                "end_time": 136.9181818181818,
                "pitch": 62,
                "velocity": 80,
                "duration": 0.06818181818181301,
                "tempo": 120.0
            },
            {
                "start_time": 136.9522727272727,
                "end_time": 137.22727272727272,
                "pitch": 62,
                "velocity": 80,
                "duration": 0.2750000000000057,
                "tempo": 120.0
            },
            {
                "start_time": 137.26136363636363,
                "end_time": 137.3272727272727,
                "pitch": 57,
                "velocity": 80,
                "duration": 0.06590909090908781,
                "tempo": 120.0
            },
            {
                "start_time": 137.36136363636362,
                "end_time": 137.4272727272727,
                "pitch": 57,
                "velocity": 80,
                "duration": 0.06590909090908781,
                "tempo": 120.0
            },
            {
                "start_time": 137.4590909090909,
                "end_time": 137.72045454545454,
                "pitch": 50,
                "velocity": 80,
                "duration": 0.26136363636365445,
                "tempo": 120.0
            },
            {
                "start_time": 137.75454545454545,
                "end_time": 138.02272727272725,
                "pitch": 45,
                "velocity": 80,
                "duration": 0.26818181818180165,
                "tempo": 120.0
            },
            {
                "start_time": 138.0568181818182,
                "end_time": 138.12272727272727,
                "pitch": 52,
                "velocity": 80,
                "duration": 0.06590909090908781,
                "tempo": 120.0
            },
            {
                "start_time": 138.15681818181818,
                "end_time": 138.42272727272726,
                "pitch": 52,
                "velocity": 80,
                "duration": 0.26590909090907644,
                "tempo": 120.0
            },
            {
                "start_time": 138.45681818181816,
                "end_time": 138.52272727272725,
                "pitch": 57,
                "velocity": 80,
                "duration": 0.06590909090908781,
                "tempo": 120.0
            },
            {
                "start_time": 138.5568181818182,
                "end_time": 138.83181818181816,
                "pitch": 57,
                "velocity": 80,
                "duration": 0.27499999999997726,
                "tempo": 120.0
            },
            {
                "start_time": 138.86590909090907,
                "end_time": 138.9340909090909,
                "pitch": 52,
                "velocity": 80,
                "duration": 0.06818181818184144,
                "tempo": 120.0
            },
            {
                "start_time": 138.9659090909091,
                "end_time": 139.03181818181818,
                "pitch": 52,
                "velocity": 80,
                "duration": 0.06590909090908781,
                "tempo": 120.0
            },
            {
                "start_time": 139.06363636363636,
                "end_time": 139.12954545454545,
                "pitch": 50,
                "velocity": 80,
                "duration": 0.06590909090908781,
                "tempo": 120.0
            },
            {
                "start_time": 139.16363636363636,
                "end_time": 139.22727272727272,
                "pitch": 51,
                "velocity": 80,
                "duration": 0.0636363636363626,
                "tempo": 120.0
            },
            {
                "start_time": 139.26136363636363,
                "end_time": 139.3272727272727,
                "pitch": 52,
                "velocity": 80,
                "duration": 0.06590909090908781,
                "tempo": 120.0
            },
            {
                "start_time": 139.3590909090909,
                "end_time": 139.62727272727273,
                "pitch": 50,
                "velocity": 80,
                "duration": 0.26818181818183007,
                "tempo": 120.0
            },
            {
                "start_time": 139.66136363636363,
                "end_time": 139.72954545454544,
                "pitch": 57,
                "velocity": 80,
                "duration": 0.06818181818181301,
                "tempo": 120.0
            },
            {
                "start_time": 139.76363636363635,
                "end_time": 140.03181818181818,
                "pitch": 57,
                "velocity": 80,
                "duration": 0.26818181818183007,
                "tempo": 120.0
            },
            {
                "start_time": 140.06363636363636,
                "end_time": 140.13181818181818,
                "pitch": 50,
                "velocity": 80,
                "duration": 0.06818181818181301,
                "tempo": 120.0
            },
            {
                "start_time": 140.16590909090908,
                "end_time": 140.23181818181817,
                "pitch": 50,
                "velocity": 80,
                "duration": 0.06590909090908781,
                "tempo": 120.0
            },
            {
                "start_time": 140.26590909090908,
                "end_time": 140.33181818181816,
                "pitch": 0,
                "velocity": 80,
                "duration": 0.06590909090908781,
                "tempo": 120.0
            },
            {
                "start_time": 140.36590909090907,
                "end_time": 140.53181818181818,
                "pitch": 55,
                "velocity": 80,
                "duration": 0.16590909090911055,
                "tempo": 120.0
            },
            {
                "start_time": 140.5659090909091,
                "end_time": 140.7340909090909,
                "pitch": 56,
                "velocity": 80,
                "duration": 0.16818181818180733,
                "tempo": 120.0
            },
            {
                "start_time": 140.76590909090908,
                "end_time": 140.9340909090909,
                "pitch": 57,
                "velocity": 80,
                "duration": 0.16818181818183575,
                "tempo": 120.0
            },
            {
                "start_time": 140.96818181818182,
                "end_time": 141.23636363636362,
                "pitch": 45,
                "velocity": 80,
                "duration": 0.26818181818180165,
                "tempo": 120.0
            },
            {
                "start_time": 141.27045454545453,
                "end_time": 141.33636363636364,
                "pitch": 52,
                "velocity": 80,
                "duration": 0.06590909090911623,
                "tempo": 120.0
            },
            {
                "start_time": 141.37045454545455,
                "end_time": 141.63863636363635,
                "pitch": 52,
                "velocity": 80,
                "duration": 0.26818181818180165,
                "tempo": 120.0
            },
            {
                "start_time": 141.67272727272726,
                "end_time": 141.74090909090907,
                "pitch": 57,
                "velocity": 80,
                "duration": 0.06818181818181301,
                "tempo": 120.0
            },
            {
                "start_time": 141.775,
                "end_time": 142.04772727272726,
                "pitch": 57,
                "velocity": 80,
                "duration": 0.27272727272725206,
                "tempo": 120.0
            },
            {
                "start_time": 142.08181818181816,
                "end_time": 142.15,
                "pitch": 52,
                "velocity": 80,
                "duration": 0.06818181818184144,
                "tempo": 120.0
            },
            {
                "start_time": 142.1818181818182,
                "end_time": 142.34545454545454,
                "pitch": 52,
                "velocity": 80,
                "duration": 0.16363636363635692,
                "tempo": 120.0
            },
            {
                "start_time": 142.37954545454545,
                "end_time": 142.5431818181818,
                "pitch": 45,
                "velocity": 80,
                "duration": 0.16363636363635692,
                "tempo": 120.0
            },
            {
                "start_time": 142.5772727272727,
                "end_time": 142.84545454545454,
                "pitch": 50,
                "velocity": 80,
                "duration": 0.26818181818183007,
                "tempo": 120.0
            },
            {
                "start_time": 142.87727272727273,
                "end_time": 142.94545454545454,
                "pitch": 57,
                "velocity": 80,
                "duration": 0.06818181818181301,
                "tempo": 120.0
            },
            {
                "start_time": 142.97954545454544,
                "end_time": 143.24772727272727,
                "pitch": 57,
                "velocity": 80,
                "duration": 0.26818181818183007,
                "tempo": 120.0
            },
            {
                "start_time": 143.28181818181818,
                "end_time": 143.34772727272727,
                "pitch": 62,
                "velocity": 80,
                "duration": 0.06590909090908781,
                "tempo": 120.0
            },
            {
                "start_time": 143.38181818181818,
                "end_time": 143.65,
                "pitch": 62,
                "velocity": 80,
                "duration": 0.26818181818183007,
                "tempo": 120.0
            },
            {
                "start_time": 143.6840909090909,
                "end_time": 143.75,
                "pitch": 57,
                "velocity": 80,
                "duration": 0.06590909090908781,
                "tempo": 120.0
            },
            {
                "start_time": 143.7840909090909,
                "end_time": 143.85227272727272,
                "pitch": 57,
                "velocity": 80,
                "duration": 0.06818181818181301,
                "tempo": 120.0
            },
            {
                "start_time": 143.8840909090909,
                "end_time": 144.15227272727273,
                "pitch": 50,
                "velocity": 80,
                "duration": 0.26818181818183007,
                "tempo": 120.0
            },
            {
                "start_time": 144.18636363636364,
                "end_time": 144.4522727272727,
                "pitch": 45,
                "velocity": 80,
                "duration": 0.26590909090907644,
                "tempo": 120.0
            },
            {
                "start_time": 144.48636363636362,
                "end_time": 144.55454545454543,
                "pitch": 52,
                "velocity": 80,
                "duration": 0.06818181818181301,
                "tempo": 120.0
            },
            {
                "start_time": 144.58636363636364,
                "end_time": 144.85454545454544,
                "pitch": 52,
                "velocity": 80,
                "duration": 0.26818181818180165,
                "tempo": 120.0
            },
            {
                "start_time": 144.88863636363635,
                "end_time": 144.95681818181816,
                "pitch": 57,
                "velocity": 80,
                "duration": 0.06818181818181301,
                "tempo": 120.0
            },
            {
                "start_time": 144.99090909090907,
                "end_time": 145.26363636363635,
                "pitch": 57,
                "velocity": 80,
                "duration": 0.2727272727272805,
                "tempo": 120.0
            },
            {
                "start_time": 145.29772727272726,
                "end_time": 145.36590909090907,
                "pitch": 52,
                "velocity": 80,
                "duration": 0.06818181818181301,
                "tempo": 120.0
            },
            {
                "start_time": 145.4,
                "end_time": 145.56363636363636,
                "pitch": 52,
                "velocity": 80,
                "duration": 0.16363636363635692,
                "tempo": 120.0
            },
            {
                "start_time": 145.59545454545454,
                "end_time": 145.7590909090909,
                "pitch": 45,
                "velocity": 80,
                "duration": 0.16363636363635692,
                "tempo": 120.0
            },
            {
                "start_time": 145.7931818181818,
                "end_time": 146.06136363636364,
                "pitch": 50,
                "velocity": 80,
                "duration": 0.26818181818183007,
                "tempo": 120.0
            },
            {
                "start_time": 146.09545454545454,
                "end_time": 146.16136363636363,
                "pitch": 57,
                "velocity": 80,
                "duration": 0.06590909090908781,
                "tempo": 120.0
            },
            {
                "start_time": 146.19545454545454,
                "end_time": 146.46136363636364,
                "pitch": 57,
                "velocity": 80,
                "duration": 0.26590909090910486,
                "tempo": 120.0
            },
            {
                "start_time": 146.49545454545455,
                "end_time": 146.56136363636364,
                "pitch": 62,
                "velocity": 80,
                "duration": 0.06590909090908781,
                "tempo": 120.0
            },
            {
                "start_time": 146.59545454545454,
                "end_time": 146.66363636363636,
                "pitch": 62,
                "velocity": 80,
                "duration": 0.06818181818181301,
                "tempo": 120.0
            },
            {
                "start_time": 146.69772727272726,
                "end_time": 146.7681818181818,
                "pitch": 60,
                "velocity": 80,
                "duration": 0.07045454545453822,
                "tempo": 120.0
            },
            {
                "start_time": 146.8022727272727,
                "end_time": 146.87045454545455,
                "pitch": 61,
                "velocity": 80,
                "duration": 0.06818181818184144,
                "tempo": 120.0
            },
            {
                "start_time": 146.90454545454546,
                "end_time": 146.97272727272727,
                "pitch": 62,
                "velocity": 80,
                "duration": 0.06818181818181301,
                "tempo": 120.0
            },
            {
                "start_time": 147.00454545454545,
                "end_time": 147.07045454545454,
                "pitch": 0,
                "velocity": 80,
                "duration": 0.06590909090908781,
                "tempo": 120.0
            },
            {
                "start_time": 147.10227272727272,
                "end_time": 147.1681818181818,
                "pitch": 55,
                "velocity": 80,
                "duration": 0.06590909090908781,
                "tempo": 120.0
            },
            {
                "start_time": 147.2,
                "end_time": 147.26590909090908,
                "pitch": 56,
                "velocity": 80,
                "duration": 0.06590909090908781,
                "tempo": 120.0
            },
            {
                "start_time": 147.29772727272726,
                "end_time": 147.36363636363635,
                "pitch": 57,
                "velocity": 80,
                "duration": 0.06590909090908781,
                "tempo": 120.0
            },
            {
                "start_time": 147.39772727272725,
                "end_time": 147.66590909090908,
                "pitch": 45,
                "velocity": 80,
                "duration": 0.26818181818183007,
                "tempo": 120.0
            },
            {
                "start_time": 147.7,
                "end_time": 147.7681818181818,
                "pitch": 52,
                "velocity": 80,
                "duration": 0.06818181818181301,
                "tempo": 120.0
            },
            {
                "start_time": 147.79999999999998,
                "end_time": 148.0681818181818,
                "pitch": 52,
                "velocity": 80,
                "duration": 0.26818181818183007,
                "tempo": 120.0
            },
            {
                "start_time": 148.10227272727272,
                "end_time": 148.17045454545453,
                "pitch": 57,
                "velocity": 80,
                "duration": 0.06818181818181301,
                "tempo": 120.0
            },
            {
                "start_time": 148.20454545454544,
                "end_time": 148.47727272727272,
                "pitch": 57,
                "velocity": 80,
                "duration": 0.2727272727272805,
                "tempo": 120.0
            },
            {
                "start_time": 148.51363636363635,
                "end_time": 148.57954545454544,
                "pitch": 52,
                "velocity": 80,
                "duration": 0.06590909090908781,
                "tempo": 120.0
            },
            {
                "start_time": 148.61363636363635,
                "end_time": 148.77727272727273,
                "pitch": 52,
                "velocity": 80,
                "duration": 0.16363636363638534,
                "tempo": 120.0
            },
            {
                "start_time": 148.8090909090909,
                "end_time": 148.97272727272727,
                "pitch": 45,
                "velocity": 80,
                "duration": 0.16363636363635692,
                "tempo": 120.0
            },
            {
                "start_time": 149.00681818181818,
                "end_time": 149.275,
                "pitch": 50,
                "velocity": 80,
                "duration": 0.26818181818183007,
                "tempo": 120.0
            },
            {
                "start_time": 149.3090909090909,
                "end_time": 149.375,
                "pitch": 57,
                "velocity": 80,
                "duration": 0.06590909090908781,
                "tempo": 120.0
            },
            {
                "start_time": 149.4090909090909,
                "end_time": 149.6772727272727,
                "pitch": 57,
                "velocity": 80,
                "duration": 0.26818181818180165,
                "tempo": 120.0
            },
            {
                "start_time": 149.71136363636364,
                "end_time": 149.77727272727273,
                "pitch": 62,
                "velocity": 80,
                "duration": 0.06590909090908781,
                "tempo": 120.0
            },
            {
                "start_time": 149.81363636363636,
                "end_time": 150.08636363636364,
                "pitch": 62,
                "velocity": 80,
                "duration": 0.2727272727272805,
                "tempo": 120.0
            },
            {
                "start_time": 150.12045454545455,
                "end_time": 150.18863636363636,
                "pitch": 57,
                "velocity": 80,
                "duration": 0.06818181818181301,
                "tempo": 120.0
            },
            {
                "start_time": 150.22045454545454,
                "end_time": 150.28636363636363,
                "pitch": 57,
                "velocity": 80,
                "duration": 0.06590909090908781,
                "tempo": 120.0
            },
            {
                "start_time": 150.3181818181818,
                "end_time": 150.58181818181816,
                "pitch": 50,
                "velocity": 80,
                "duration": 0.26363636363635123,
                "tempo": 120.0
            },
            {
                "start_time": 150.61363636363635,
                "end_time": 150.8840909090909,
                "pitch": 45,
                "velocity": 80,
                "duration": 0.2704545454545553,
                "tempo": 120.0
            },
            {
                "start_time": 150.91590909090908,
                "end_time": 150.9840909090909,
                "pitch": 52,
                "velocity": 80,
                "duration": 0.06818181818181301,
                "tempo": 120.0
            },
            {
                "start_time": 151.0181818181818,
                "end_time": 151.28636363636363,
                "pitch": 52,
                "velocity": 80,
                "duration": 0.26818181818183007,
                "tempo": 120.0
            },
            {
                "start_time": 151.32045454545454,
                "end_time": 151.38636363636363,
                "pitch": 57,
                "velocity": 80,
                "duration": 0.06590909090908781,
                "tempo": 120.0
            },
            {
                "start_time": 151.42045454545453,
                "end_time": 151.69545454545454,
                "pitch": 57,
                "velocity": 80,
                "duration": 0.2750000000000057,
                "tempo": 120.0
            },
            {
                "start_time": 151.72954545454544,
                "end_time": 151.79772727272726,
                "pitch": 52,
                "velocity": 80,
                "duration": 0.06818181818181301,
                "tempo": 120.0
            },
            {
                "start_time": 151.82954545454544,
                "end_time": 151.89545454545453,
                "pitch": 52,
                "velocity": 80,
                "duration": 0.06590909090908781,
                "tempo": 120.0
            },
            {
                "start_time": 151.9272727272727,
                "end_time": 151.99318181818182,
                "pitch": 50,
                "velocity": 80,
                "duration": 0.06590909090911623,
                "tempo": 120.0
            },
            {
                "start_time": 152.025,
                "end_time": 152.0909090909091,
                "pitch": 51,
                "velocity": 80,
                "duration": 0.06590909090908781,
                "tempo": 120.0
            },
            {
                "start_time": 152.12272727272727,
                "end_time": 152.18863636363636,
                "pitch": 52,
                "velocity": 80,
                "duration": 0.06590909090908781,
                "tempo": 120.0
            },
            {
                "start_time": 152.22272727272727,
                "end_time": 152.48863636363635,
                "pitch": 50,
                "velocity": 80,
                "duration": 0.26590909090907644,
                "tempo": 120.0
            },
            {
                "start_time": 152.52272727272725,
                "end_time": 152.58863636363637,
                "pitch": 57,
                "velocity": 80,
                "duration": 0.06590909090911623,
                "tempo": 120.0
            },
            {
                "start_time": 152.62272727272727,
                "end_time": 152.89090909090908,
                "pitch": 57,
                "velocity": 80,
                "duration": 0.26818181818180165,
                "tempo": 120.0
            },
            {
                "start_time": 152.92499999999998,
                "end_time": 152.99318181818182,
                "pitch": 50,
                "velocity": 80,
                "duration": 0.06818181818184144,
                "tempo": 120.0
            },
            {
                "start_time": 153.025,
                "end_time": 153.09318181818182,
                "pitch": 50,
                "velocity": 80,
                "duration": 0.06818181818181301,
                "tempo": 120.0
            },
            {
                "start_time": 153.12727272727273,
                "end_time": 153.1931818181818,
                "pitch": 0,
                "velocity": 80,
                "duration": 0.06590909090908781,
                "tempo": 120.0
            },
            {
                "start_time": 153.22727272727272,
                "end_time": 153.39545454545453,
                "pitch": 55,
                "velocity": 80,
                "duration": 0.16818181818180733,
                "tempo": 120.0
            },
            {
                "start_time": 153.4272727272727,
                "end_time": 153.59545454545454,
                "pitch": 56,
                "velocity": 80,
                "duration": 0.16818181818183575,
                "tempo": 120.0
            },
            {
                "start_time": 153.62954545454545,
                "end_time": 153.79772727272726,
                "pitch": 57,
                "velocity": 80,
                "duration": 0.16818181818180733,
                "tempo": 120.0
            },
            {
                "start_time": 153.83181818181816,
                "end_time": 154.1,
                "pitch": 45,
                "velocity": 80,
                "duration": 0.26818181818183007,
                "tempo": 120.0
            },
            {
                "start_time": 154.1340909090909,
                "end_time": 154.2,
                "pitch": 52,
                "velocity": 80,
                "duration": 0.06590909090908781,
                "tempo": 120.0
            },
            {
                "start_time": 154.2340909090909,
                "end_time": 154.5,
                "pitch": 52,
                "velocity": 80,
                "duration": 0.26590909090910486,
                "tempo": 120.0
            },
            {
                "start_time": 154.5340909090909,
                "end_time": 154.6,
                "pitch": 57,
                "velocity": 80,
                "duration": 0.06590909090908781,
                "tempo": 120.0
            },
            {
                "start_time": 154.6340909090909,
                "end_time": 154.9090909090909,
                "pitch": 57,
                "velocity": 80,
                "duration": 0.2750000000000057,
                "tempo": 120.0
            },
            {
                "start_time": 154.9431818181818,
                "end_time": 155.01136363636363,
                "pitch": 52,
                "velocity": 80,
                "duration": 0.06818181818181301,
                "tempo": 120.0
            },
            {
                "start_time": 155.0431818181818,
                "end_time": 155.20681818181816,
                "pitch": 52,
                "velocity": 80,
                "duration": 0.16363636363635692,
                "tempo": 120.0
            },
            {
                "start_time": 155.23863636363635,
                "end_time": 155.40227272727273,
                "pitch": 45,
                "velocity": 80,
                "duration": 0.16363636363638534,
                "tempo": 120.0
            },
            {
                "start_time": 155.43636363636364,
                "end_time": 155.70454545454544,
                "pitch": 50,
                "velocity": 80,
                "duration": 0.26818181818180165,
                "tempo": 120.0
            },
            {
                "start_time": 155.73863636363635,
                "end_time": 155.8068181818182,
                "pitch": 57,
                "velocity": 80,
                "duration": 0.06818181818184144,
                "tempo": 120.0
            },
            {
                "start_time": 155.83863636363637,
                "end_time": 156.10681818181817,
                "pitch": 57,
                "velocity": 80,
                "duration": 0.26818181818180165,
                "tempo": 120.0
            },
            {
                "start_time": 156.14090909090908,
                "end_time": 156.2090909090909,
                "pitch": 62,
                "velocity": 80,
                "duration": 0.06818181818181301,
                "tempo": 120.0
            },
            {
                "start_time": 156.24318181818182,
                "end_time": 156.51590909090908,
                "pitch": 62,
                "velocity": 80,
                "duration": 0.27272727272725206,
                "tempo": 120.0
            },
            {
                "start_time": 156.54999999999998,
                "end_time": 156.61818181818182,
                "pitch": 57,
                "velocity": 80,
                "duration": 0.06818181818184144,
                "tempo": 120.0
            },
            {
                "start_time": 156.65227272727273,
                "end_time": 156.7159090909091,
                "pitch": 57,
                "velocity": 80,
                "duration": 0.0636363636363626,
                "tempo": 120.0
            },
            {
                "start_time": 156.75,
                "end_time": 157.01136363636363,
                "pitch": 50,
                "velocity": 80,
                "duration": 0.26136363636362603,
                "tempo": 120.0
            },
            {
                "start_time": 157.04545454545453,
                "end_time": 157.31363636363636,
                "pitch": 45,
                "velocity": 80,
                "duration": 0.26818181818183007,
                "tempo": 120.0
            },
            {
                "start_time": 157.34772727272727,
                "end_time": 157.41363636363636,
                "pitch": 52,
                "velocity": 80,
                "duration": 0.06590909090908781,
                "tempo": 120.0
            },
            {
                "start_time": 157.44772727272726,
                "end_time": 157.7159090909091,
                "pitch": 52,
                "velocity": 80,
                "duration": 0.26818181818183007,
                "tempo": 120.0
            },
            {
                "start_time": 157.75,
                "end_time": 157.8159090909091,
                "pitch": 57,
                "velocity": 80,
                "duration": 0.06590909090908781,
                "tempo": 120.0
            },
            {
                "start_time": 157.85,
                "end_time": 158.125,
                "pitch": 57,
                "velocity": 80,
                "duration": 0.2750000000000057,
                "tempo": 120.0
            },
            {
                "start_time": 158.1590909090909,
                "end_time": 158.22727272727272,
                "pitch": 52,
                "velocity": 80,
                "duration": 0.06818181818181301,
                "tempo": 120.0
            },
            {
                "start_time": 158.2590909090909,
                "end_time": 158.42272727272726,
                "pitch": 52,
                "velocity": 80,
                "duration": 0.16363636363635692,
                "tempo": 120.0
            },
            {
                "start_time": 158.45681818181816,
                "end_time": 158.62045454545455,
                "pitch": 45,
                "velocity": 80,
                "duration": 0.16363636363638534,
                "tempo": 120.0
            },
            {
                "start_time": 158.65227272727273,
                "end_time": 158.92045454545453,
                "pitch": 50,
                "velocity": 80,
                "duration": 0.26818181818180165,
                "tempo": 120.0
            },
            {
                "start_time": 158.95454545454544,
                "end_time": 159.02272727272725,
                "pitch": 57,
                "velocity": 80,
                "duration": 0.06818181818181301,
                "tempo": 120.0
            },
            {
                "start_time": 159.0568181818182,
                "end_time": 159.325,
                "pitch": 57,
                "velocity": 80,
                "duration": 0.26818181818180165,
                "tempo": 120.0
            },
            {
                "start_time": 159.35681818181817,
                "end_time": 159.42499999999998,
                "pitch": 62,
                "velocity": 80,
                "duration": 0.06818181818181301,
                "tempo": 120.0
            },
            {
                "start_time": 159.4590909090909,
                "end_time": 159.525,
                "pitch": 62,
                "velocity": 80,
                "duration": 0.06590909090911623,
                "tempo": 120.0
            },
            {
                "start_time": 159.5590909090909,
                "end_time": 159.62727272727273,
                "pitch": 60,
                "velocity": 80,
                "duration": 0.06818181818181301,
                "tempo": 120.0
            },
            {
                "start_time": 159.6590909090909,
                "end_time": 159.72727272727272,
                "pitch": 61,
                "velocity": 80,
                "duration": 0.06818181818181301,
                "tempo": 120.0
            },
            {
                "start_time": 159.76136363636363,
                "end_time": 159.8272727272727,
                "pitch": 62,
                "velocity": 80,
                "duration": 0.06590909090908781,
                "tempo": 120.0
            },
            {
                "start_time": 159.86136363636362,
                "end_time": 159.9272727272727,
                "pitch": 0,
                "velocity": 80,
                "duration": 0.06590909090908781,
                "tempo": 120.0
            },
            {
                "start_time": 159.96136363636361,
                "end_time": 160.02954545454546,
                "pitch": 55,
                "velocity": 80,
                "duration": 0.06818181818184144,
                "tempo": 120.0
            },
            {
                "start_time": 160.06363636363636,
                "end_time": 160.12954545454545,
                "pitch": 56,
                "velocity": 80,
                "duration": 0.06590909090908781,
                "tempo": 120.0
            },
            {
                "start_time": 160.16363636363636,
                "end_time": 160.22954545454544,
                "pitch": 57,
                "velocity": 80,
                "duration": 0.06590909090908781,
                "tempo": 120.0
            },
            {
                "start_time": 160.26363636363635,
                "end_time": 160.52954545454546,
                "pitch": 45,
                "velocity": 80,
                "duration": 0.26590909090910486,
                "tempo": 120.0
            },
            {
                "start_time": 160.56363636363636,
                "end_time": 160.62954545454545,
                "pitch": 52,
                "velocity": 80,
                "duration": 0.06590909090908781,
                "tempo": 120.0
            },
            {
                "start_time": 160.66363636363636,
                "end_time": 160.9318181818182,
                "pitch": 52,
                "velocity": 80,
                "duration": 0.26818181818183007,
                "tempo": 120.0
            },
            {
                "start_time": 160.9659090909091,
                "end_time": 161.0340909090909,
                "pitch": 57,
                "velocity": 80,
                "duration": 0.06818181818181301,
                "tempo": 120.0
            },
            {
                "start_time": 161.0681818181818,
                "end_time": 161.3409090909091,
                "pitch": 57,
                "velocity": 80,
                "duration": 0.2727272727272805,
                "tempo": 120.0
            },
            {
                "start_time": 161.375,
                "end_time": 161.4431818181818,
                "pitch": 52,
                "velocity": 80,
                "duration": 0.06818181818181301,
                "tempo": 120.0
            },
            {
                "start_time": 161.475,
                "end_time": 161.63863636363635,
                "pitch": 52,
                "velocity": 80,
                "duration": 0.16363636363635692,
                "tempo": 120.0
            },
            {
                "start_time": 161.67272727272726,
                "end_time": 161.83636363636361,
                "pitch": 45,
                "velocity": 80,
                "duration": 0.16363636363635692,
                "tempo": 120.0
            },
            {
                "start_time": 161.87045454545455,
                "end_time": 162.13863636363635,
                "pitch": 50,
                "velocity": 80,
                "duration": 0.26818181818180165,
                "tempo": 120.0
            },
            {
                "start_time": 162.17045454545453,
                "end_time": 162.23863636363635,
                "pitch": 57,
                "velocity": 80,
                "duration": 0.06818181818181301,
                "tempo": 120.0
            },
            {
                "start_time": 162.27272727272725,
                "end_time": 162.53863636363636,
                "pitch": 57,
                "velocity": 80,
                "duration": 0.26590909090910486,
                "tempo": 120.0
            },
            {
                "start_time": 162.57272727272726,
                "end_time": 162.63863636363635,
                "pitch": 62,
                "velocity": 80,
                "duration": 0.06590909090908781,
                "tempo": 120.0
            },
            {
                "start_time": 162.67272727272726,
                "end_time": 162.94772727272726,
                "pitch": 62,
                "velocity": 80,
                "duration": 0.2750000000000057,
                "tempo": 120.0
            },
            {
                "start_time": 162.98181818181817,
                "end_time": 163.04772727272726,
                "pitch": 57,
                "velocity": 80,
                "duration": 0.06590909090908781,
                "tempo": 120.0
            },
            {
                "start_time": 163.08181818181816,
                "end_time": 163.14772727272725,
                "pitch": 57,
                "velocity": 80,
                "duration": 0.06590909090908781,
                "tempo": 120.0
            },
            {
                "start_time": 163.17954545454543,
                "end_time": 163.4409090909091,
                "pitch": 50,
                "velocity": 80,
                "duration": 0.26136363636365445,
                "tempo": 120.0
            },
            {
                "start_time": 163.475,
                "end_time": 163.74318181818182,
                "pitch": 45,
                "velocity": 80,
                "duration": 0.26818181818183007,
                "tempo": 120.0
            },
            {
                "start_time": 163.77727272727273,
                "end_time": 163.84318181818182,
                "pitch": 52,
                "velocity": 80,
                "duration": 0.06590909090908781,
                "tempo": 120.0
            },
            {
                "start_time": 163.87727272727273,
                "end_time": 164.14545454545453,
                "pitch": 52,
                "velocity": 80,
                "duration": 0.26818181818180165,
                "tempo": 120.0
            },
            {
                "start_time": 164.17954545454543,
                "end_time": 164.24772727272727,
                "pitch": 57,
                "velocity": 80,
                "duration": 0.06818181818184144,
                "tempo": 120.0
            },
            {
                "start_time": 164.27954545454546,
                "end_time": 164.54772727272726,
                "pitch": 57,
                "velocity": 80,
                "duration": 0.26818181818180165,
                "tempo": 120.0
            },
            {
                "start_time": 164.57954545454544,
                "end_time": 164.64772727272725,
                "pitch": 52,
                "velocity": 80,
                "duration": 0.06818181818181301,
                "tempo": 120.0
            },
            {
                "start_time": 164.67954545454543,
                "end_time": 164.74772727272727,
                "pitch": 52,
                "velocity": 80,
                "duration": 0.06818181818184144,
                "tempo": 120.0
            },
            {
                "start_time": 164.78181818181818,
                "end_time": 164.84772727272727,
                "pitch": 50,
                "velocity": 80,
                "duration": 0.06590909090908781,
                "tempo": 120.0
            },
            {
                "start_time": 164.88181818181818,
                "end_time": 164.94772727272726,
                "pitch": 51,
                "velocity": 80,
                "duration": 0.06590909090908781,
                "tempo": 120.0
            },
            {
                "start_time": 164.98181818181817,
                "end_time": 165.04999999999998,
                "pitch": 52,
                "velocity": 80,
                "duration": 0.06818181818181301,
                "tempo": 120.0
            },
            {
                "start_time": 165.0840909090909,
                "end_time": 165.35227272727272,
                "pitch": 50,
                "velocity": 80,
                "duration": 0.26818181818183007,
                "tempo": 120.0
            },
            {
                "start_time": 165.3840909090909,
                "end_time": 165.4522727272727,
                "pitch": 57,
                "velocity": 80,
                "duration": 0.06818181818181301,
                "tempo": 120.0
            },
            {
                "start_time": 165.48636363636362,
                "end_time": 165.75454545454545,
                "pitch": 57,
                "velocity": 80,
                "duration": 0.26818181818183007,
                "tempo": 120.0
            },
            {
                "start_time": 165.78863636363636,
                "end_time": 165.85454545454544,
                "pitch": 50,
                "velocity": 80,
                "duration": 0.06590909090908781,
                "tempo": 120.0
            },
            {
                "start_time": 165.88636363636363,
                "end_time": 165.9522727272727,
                "pitch": 50,
                "velocity": 80,
                "duration": 0.06590909090908781,
                "tempo": 120.0
            },
            {
                "start_time": 165.9840909090909,
                "end_time": 166.04999999999998,
                "pitch": 0,
                "velocity": 80,
                "duration": 0.06590909090908781,
                "tempo": 120.0
            },
            {
                "start_time": 166.08181818181816,
                "end_time": 166.24772727272727,
                "pitch": 55,
                "velocity": 80,
                "duration": 0.16590909090911055,
                "tempo": 120.0
            },
            {
                "start_time": 166.28181818181818,
                "end_time": 166.4522727272727,
                "pitch": 56,
                "velocity": 80,
                "duration": 0.17045454545453254,
                "tempo": 120.0
            },
            {
                "start_time": 166.48636363636362,
                "end_time": 166.65681818181818,
                "pitch": 57,
                "velocity": 80,
                "duration": 0.17045454545456096,
                "tempo": 120.0
            },
            {
                "start_time": 166.6909090909091,
                "end_time": 166.7590909090909,
                "pitch": 0,
                "velocity": 80,
                "duration": 0.06818181818181301,
                "tempo": 120.0
            },
            {
                "start_time": 166.79090909090908,
                "end_time": 166.8590909090909,
                "pitch": 45,
                "velocity": 80,
                "duration": 0.06818181818181301,
                "tempo": 120.0
            },
            {
                "start_time": 166.8931818181818,
                "end_time": 166.9590909090909,
                "pitch": 0,
                "velocity": 80,
                "duration": 0.06590909090908781,
                "tempo": 120.0
            },
            {
                "start_time": 166.9931818181818,
                "end_time": 167.05454545454543,
                "pitch": 48,
                "velocity": 80,
                "duration": 0.0613636363636374,
                "tempo": 120.0
            },
            {
                "start_time": 167.0840909090909,
                "end_time": 167.14545454545453,
                "pitch": 0,
                "velocity": 80,
                "duration": 0.0613636363636374,
                "tempo": 120.0
            },
            {
                "start_time": 167.17499999999998,
                "end_time": 167.23636363636362,
                "pitch": 50,
                "velocity": 80,
                "duration": 0.0613636363636374,
                "tempo": 120.0
            },
            {
                "start_time": 167.26590909090908,
                "end_time": 167.325,
                "pitch": 0,
                "velocity": 80,
                "duration": 0.05909090909091219,
                "tempo": 120.0
            },
            {
                "start_time": 167.35681818181817,
                "end_time": 167.42272727272726,
                "pitch": 52,
                "velocity": 80,
                "duration": 0.06590909090908781,
                "tempo": 120.0
            },
            {
                "start_time": 167.45454545454544,
                "end_time": 167.52272727272725,
                "pitch": 0,
                "velocity": 80,
                "duration": 0.06818181818181301,
                "tempo": 120.0
            },
            {
                "start_time": 167.5568181818182,
                "end_time": 167.62272727272727,
                "pitch": 50,
                "velocity": 80,
                "duration": 0.06590909090908781,
                "tempo": 120.0
            },
            {
                "start_time": 167.65681818181818,
                "end_time": 167.72272727272727,
                "pitch": 0,
                "velocity": 80,
                "duration": 0.06590909090908781,
                "tempo": 120.0
            },
            {
                "start_time": 167.75681818181818,
                "end_time": 167.82045454545454,
                "pitch": 52,
                "velocity": 80,
                "duration": 0.0636363636363626,
                "tempo": 120.0
            },
            {
                "start_time": 167.85227272727272,
                "end_time": 167.91590909090908,
                "pitch": 0,
                "velocity": 80,
                "duration": 0.0636363636363626,
                "tempo": 120.0
            },
            {
                "start_time": 167.94772727272726,
                "end_time": 168.01136363636363,
                "pitch": 55,
                "velocity": 80,
                "duration": 0.0636363636363626,
                "tempo": 120.0
            },
            {
                "start_time": 168.0431818181818,
                "end_time": 168.10681818181817,
                "pitch": 0,
                "velocity": 80,
                "duration": 0.0636363636363626,
                "tempo": 120.0
            },
            {
                "start_time": 168.13636363636363,
                "end_time": 168.19772727272726,
                "pitch": 57,
                "velocity": 80,
                "duration": 0.0613636363636374,
                "tempo": 120.0
            },
            {
                "start_time": 168.22727272727272,
                "end_time": 168.28636363636363,
                "pitch": 0,
                "velocity": 80,
                "duration": 0.05909090909091219,
                "tempo": 120.0
            },
            {
                "start_time": 168.3181818181818,
                "end_time": 168.37727272727273,
                "pitch": 57,
                "velocity": 80,
                "duration": 0.05909090909091219,
                "tempo": 120.0
            },
            {
                "start_time": 168.40681818181818,
                "end_time": 168.47045454545454,
                "pitch": 0,
                "velocity": 80,
                "duration": 0.0636363636363626,
                "tempo": 120.0
            },
            {
                "start_time": 168.50227272727273,
                "end_time": 168.57045454545454,
                "pitch": 60,
                "velocity": 80,
                "duration": 0.06818181818181301,
                "tempo": 120.0
            },
            {
                "start_time": 168.60454545454544,
                "end_time": 168.67045454545453,
                "pitch": 0,
                "velocity": 80,
                "duration": 0.06590909090908781,
                "tempo": 120.0
            },
            {
                "start_time": 168.70454545454544,
                "end_time": 168.77045454545453,
                "pitch": 62,
                "velocity": 80,
                "duration": 0.06590909090908781,
                "tempo": 120.0
            },
            {
                "start_time": 168.80454545454543,
                "end_time": 168.87272727272727,
                "pitch": 0,
                "velocity": 80,
                "duration": 0.06818181818184144,
                "tempo": 120.0
            },
            {
                "start_time": 168.90681818181818,
                "end_time": 168.97272727272727,
                "pitch": 64,
                "velocity": 80,
                "duration": 0.06590909090908781,
                "tempo": 120.0
            },
            {
                "start_time": 169.00681818181818,
                "end_time": 169.07272727272726,
                "pitch": 0,
                "velocity": 80,
                "duration": 0.06590909090908781,
                "tempo": 120.0
            },
            {
                "start_time": 169.10681818181817,
                "end_time": 169.17499999999998,
                "pitch": 67,
                "velocity": 80,
                "duration": 0.06818181818181301,
                "tempo": 120.0
            },
            {
                "start_time": 169.20681818181816,
                "end_time": 169.275,
                "pitch": 0,
                "velocity": 80,
                "duration": 0.06818181818184144,
                "tempo": 120.0
            },
            {
                "start_time": 169.3068181818182,
                "end_time": 169.37272727272727,
                "pitch": 68,
                "velocity": 80,
                "duration": 0.06590909090908781,
                "tempo": 120.0
            },
            {
                "start_time": 169.40454545454546,
                "end_time": 169.47045454545454,
                "pitch": 0,
                "velocity": 80,
                "duration": 0.06590909090908781,
                "tempo": 120.0
            },
            {
                "start_time": 169.50227272727273,
                "end_time": 170.98181818181817,
                "pitch": 69,
                "velocity": 80,
                "duration": 1.4795454545454447,
                "tempo": 120.0
            },
            {
                "start_time": 171.01590909090908,
                "end_time": 171.48863636363635,
                "pitch": 0,
                "velocity": 80,
                "duration": 0.4727272727272691,
                "tempo": 120.0
            },
            {
                "start_time": 171.52272727272725,
                "end_time": 171.5909090909091,
                "pitch": 41,
                "velocity": 80,
                "duration": 0.06818181818184144,
                "tempo": 120.0
            },
            {
                "start_time": 171.625,
                "end_time": 171.69545454545454,
                "pitch": 0,
                "velocity": 80,
                "duration": 0.07045454545453822,
                "tempo": 120.0
            },
            {
                "start_time": 171.72954545454544,
                "end_time": 171.8022727272727,
                "pitch": 53,
                "velocity": 80,
                "duration": 0.07272727272726343,
                "tempo": 120.0
            },
            {
                "start_time": 171.83863636363637,
                "end_time": 172.1340909090909,
                "pitch": 0,
                "velocity": 80,
                "duration": 0.29545454545453254,
                "tempo": 120.0
            },
            {
                "start_time": 172.17045454545453,
                "end_time": 172.23636363636362,
                "pitch": 43,
                "velocity": 80,
                "duration": 0.06590909090908781,
                "tempo": 120.0
            },
            {
                "start_time": 172.27045454545453,
                "end_time": 172.33863636363637,
                "pitch": 0,
                "velocity": 80,
                "duration": 0.06818181818184144,
                "tempo": 120.0
            },
            {
                "start_time": 172.37045454545455,
                "end_time": 172.43863636363636,
                "pitch": 55,
                "velocity": 80,
                "duration": 0.06818181818181301,
                "tempo": 120.0
            },
            {
                "start_time": 172.47272727272727,
                "end_time": 173.1818181818182,
                "pitch": 0,
                "velocity": 80,
                "duration": 0.7090909090909179,
                "tempo": 120.0
            },
            {
                "start_time": 173.2159090909091,
                "end_time": 173.28181818181818,
                "pitch": 43,
                "velocity": 80,
                "duration": 0.06590909090908781,
                "tempo": 120.0
            },
            {
                "start_time": 173.3159090909091,
                "end_time": 173.3840909090909,
                "pitch": 0,
                "velocity": 80,
                "duration": 0.06818181818181301,
                "tempo": 120.0
            },
            {
                "start_time": 173.41590909090908,
                "end_time": 173.4840909090909,
                "pitch": 55,
                "velocity": 80,
                "duration": 0.06818181818181301,
                "tempo": 120.0
            },
            {
                "start_time": 173.5181818181818,
                "end_time": 173.79999999999998,
                "pitch": 0,
                "velocity": 80,
                "duration": 0.2818181818181813,
                "tempo": 120.0
            },
            {
                "start_time": 173.83636363636361,
                "end_time": 173.90681818181818,
                "pitch": 45,
                "velocity": 80,
                "duration": 0.07045454545456664,
                "tempo": 120.0
            },
            {
                "start_time": 173.9409090909091,
                "end_time": 174.00681818181818,
                "pitch": 0,
                "velocity": 80,
                "duration": 0.06590909090908781,
                "tempo": 120.0
            },
            {
                "start_time": 174.04090909090908,
                "end_time": 174.10681818181817,
                "pitch": 57,
                "velocity": 80,
                "duration": 0.06590909090908781,
                "tempo": 120.0
            },
            {
                "start_time": 174.14090909090908,
                "end_time": 174.8022727272727,
                "pitch": 0,
                "velocity": 80,
                "duration": 0.6613636363636317,
                "tempo": 120.0
            },
            {
                "start_time": 174.83636363636361,
                "end_time": 174.90227272727273,
                "pitch": 41,
                "velocity": 80,
                "duration": 0.06590909090911623,
                "tempo": 120.0
            },
            {
                "start_time": 174.93636363636364,
                "end_time": 175.00227272727273,
                "pitch": 0,
                "velocity": 80,
                "duration": 0.06590909090908781,
                "tempo": 120.0
            },
            {
                "start_time": 175.03636363636363,
                "end_time": 175.10454545454544,
                "pitch": 53,
                "velocity": 80,
                "duration": 0.06818181818181301,
                "tempo": 120.0
            },
            {
                "start_time": 175.13863636363635,
                "end_time": 175.41136363636363,
                "pitch": 0,
                "velocity": 80,
                "duration": 0.2727272727272805,
                "tempo": 120.0
            },
            {
                "start_time": 175.44545454545454,
                "end_time": 175.51363636363635,
                "pitch": 43,
                "velocity": 80,
                "duration": 0.06818181818181301,
                "tempo": 120.0
            },
            {
                "start_time": 175.54545454545453,
                "end_time": 175.6090909090909,
                "pitch": 0,
                "velocity": 80,
                "duration": 0.0636363636363626,
                "tempo": 120.0
            },
            {
                "start_time": 175.64090909090908,
                "end_time": 175.70454545454544,
                "pitch": 55,
                "velocity": 80,
                "duration": 0.0636363636363626,
                "tempo": 120.0
            },
            {
                "start_time": 175.73636363636362,
                "end_time": 176.40454545454546,
                "pitch": 0,
                "velocity": 80,
                "duration": 0.6681818181818358,
                "tempo": 120.0
            },
            {
                "start_time": 176.43636363636364,
                "end_time": 176.50227272727273,
                "pitch": 43,
                "velocity": 80,
                "duration": 0.06590909090908781,
                "tempo": 120.0
            },
            {
                "start_time": 176.5340909090909,
                "end_time": 176.6,
                "pitch": 0,
                "velocity": 80,
                "duration": 0.06590909090908781,
                "tempo": 120.0
            },
            {
                "start_time": 176.63181818181818,
                "end_time": 176.69772727272726,
                "pitch": 55,
                "velocity": 80,
                "duration": 0.06590909090908781,
                "tempo": 120.0
            },
            {
                "start_time": 176.7340909090909,
                "end_time": 177.01590909090908,
                "pitch": 0,
                "velocity": 80,
                "duration": 0.2818181818181813,
                "tempo": 120.0
            },
            {
                "start_time": 177.04999999999998,
                "end_time": 177.12045454545455,
                "pitch": 45,
                "velocity": 80,
                "duration": 0.07045454545456664,
                "tempo": 120.0
            },
            {
                "start_time": 177.15454545454546,
                "end_time": 177.22045454545454,
                "pitch": 0,
                "velocity": 80,
                "duration": 0.06590909090908781,
                "tempo": 120.0
            },
            {
                "start_time": 177.25454545454545,
                "end_time": 177.32045454545454,
                "pitch": 57,
                "velocity": 80,
                "duration": 0.06590909090908781,
                "tempo": 120.0
            },
            {
                "start_time": 177.35454545454544,
                "end_time": 177.6181818181818,
                "pitch": 0,
                "velocity": 80,
                "duration": 0.26363636363635123,
                "tempo": 120.0
            }
        ],
        "Acoustic Guitar (nylon)": [
            {
                "start_time": 0.19999999999999998,
                "end_time": 0.2659090909090909,
                "pitch": 72,
                "velocity": 64,
                "duration": 0.06590909090909089,
                "tempo": 120.0
            },
            {
                "start_time": 0.3,
                "end_time": 0.46818181818181814,
                "pitch": 0,
                "velocity": 64,
                "duration": 0.16818181818181815,
                "tempo": 120.0
            },
            {
                "start_time": 0.5022727272727272,
                "end_time": 0.6681818181818181,
                "pitch": 67,
                "velocity": 64,
                "duration": 0.1659090909090909,
                "tempo": 120.0
            },
            {
                "start_time": 0.7022727272727273,
                "end_time": 0.8704545454545454,
                "pitch": 66,
                "velocity": 64,
                "duration": 0.1681818181818181,
                "tempo": 120.0
            },
            {
                "start_time": 0.9022727272727272,
                "end_time": 0.9704545454545455,
                "pitch": 69,
                "velocity": 64,
                "duration": 0.06818181818181823,
                "tempo": 120.0
            },
            {
                "start_time": 1.0022727272727272,
                "end_time": 1.1704545454545454,
                "pitch": 0,
                "velocity": 64,
                "duration": 0.1681818181818182,
                "tempo": 120.0
            },
            {
                "start_time": 1.2045454545454546,
                "end_time": 1.2704545454545455,
                "pitch": 66,
                "velocity": 64,
                "duration": 0.06590909090909092,
                "tempo": 120.0
            },
            {
                "start_time": 1.3045454545454545,
                "end_time": 1.3704545454545454,
                "pitch": 66,
                "velocity": 64,
                "duration": 0.06590909090909092,
                "tempo": 120.0
            },
            {
                "start_time": 1.4045454545454545,
                "end_time": 1.5727272727272728,
                "pitch": 67,
                "velocity": 64,
                "duration": 0.1681818181818182,
                "tempo": 120.0
            },
            {
                "start_time": 1.6045454545454545,
                "end_time": 1.7727272727272727,
                "pitch": 69,
                "velocity": 64,
                "duration": 0.1681818181818182,
                "tempo": 120.0
            },
            {
                "start_time": 1.8045454545454545,
                "end_time": 1.8727272727272726,
                "pitch": 72,
                "velocity": 64,
                "duration": 0.06818181818181812,
                "tempo": 120.0
            },
            {
                "start_time": 1.9045454545454545,
                "end_time": 2.0727272727272728,
                "pitch": 0,
                "velocity": 64,
                "duration": 0.1681818181818182,
                "tempo": 120.0
            },
            {
                "start_time": 2.1045454545454545,
                "end_time": 2.2727272727272725,
                "pitch": 67,
                "velocity": 64,
                "duration": 0.168181818181818,
                "tempo": 120.0
            },
            {
                "start_time": 2.3045454545454542,
                "end_time": 2.3727272727272726,
                "pitch": 66,
                "velocity": 64,
                "duration": 0.06818181818181834,
                "tempo": 120.0
            },
            {
                "start_time": 2.4068181818181817,
                "end_time": 3.1659090909090906,
                "pitch": 0,
                "velocity": 64,
                "duration": 0.7590909090909088,
                "tempo": 120.0
            },
            {
                "start_time": 3.1999999999999997,
                "end_time": 3.3659090909090907,
                "pitch": 69,
                "velocity": 64,
                "duration": 0.165909090909091,
                "tempo": 120.0
            },
            {
                "start_time": 3.4,
                "end_time": 3.465909090909091,
                "pitch": 72,
                "velocity": 64,
                "duration": 0.06590909090909092,
                "tempo": 120.0
            },
            {
                "start_time": 3.5,
                "end_time": 3.6727272727272724,
                "pitch": 0,
                "velocity": 64,
                "duration": 0.1727272727272724,
                "tempo": 120.0
            },
            {
                "start_time": 3.7068181818181816,
                "end_time": 3.877272727272727,
                "pitch": 67,
                "velocity": 64,
                "duration": 0.17045454545454541,
                "tempo": 120.0
            },
            {
                "start_time": 3.911363636363636,
                "end_time": 4.077272727272727,
                "pitch": 66,
                "velocity": 64,
                "duration": 0.165909090909091,
                "tempo": 120.0
            },
            {
                "start_time": 4.111363636363636,
                "end_time": 4.177272727272727,
                "pitch": 69,
                "velocity": 64,
                "duration": 0.06590909090909047,
                "tempo": 120.0
            },
            {
                "start_time": 4.211363636363636,
                "end_time": 4.375,
                "pitch": 0,
                "velocity": 64,
                "duration": 0.16363636363636402,
                "tempo": 120.0
            },
            {
                "start_time": 4.409090909090909,
                "end_time": 4.475,
                "pitch": 66,
                "velocity": 64,
                "duration": 0.06590909090909047,
                "tempo": 120.0
            },
            {
                "start_time": 4.506818181818182,
                "end_time": 4.572727272727272,
                "pitch": 66,
                "velocity": 64,
                "duration": 0.06590909090909047,
                "tempo": 120.0
            },
            {
                "start_time": 4.6045454545454545,
                "end_time": 4.7704545454545455,
                "pitch": 67,
                "velocity": 64,
                "duration": 0.165909090909091,
                "tempo": 120.0
            },
            {
                "start_time": 4.802272727272727,
                "end_time": 4.970454545454545,
                "pitch": 69,
                "velocity": 64,
                "duration": 0.168181818181818,
                "tempo": 120.0
            },
            {
                "start_time": 5.002272727272727,
                "end_time": 5.070454545454545,
                "pitch": 72,
                "velocity": 64,
                "duration": 0.06818181818181834,
                "tempo": 120.0
            },
            {
                "start_time": 5.102272727272727,
                "end_time": 5.172727272727273,
                "pitch": 76,
                "velocity": 64,
                "duration": 0.07045454545454621,
                "tempo": 120.0
            },
            {
                "start_time": 5.209090909090909,
                "end_time": 5.279545454545454,
                "pitch": 0,
                "velocity": 64,
                "duration": 0.07045454545454533,
                "tempo": 120.0
            },
            {
                "start_time": 5.3136363636363635,
                "end_time": 5.49090909090909,
                "pitch": 67,
                "velocity": 64,
                "duration": 0.1772727272727268,
                "tempo": 120.0
            },
            {
                "start_time": 5.5249999999999995,
                "end_time": 5.590909090909091,
                "pitch": 66,
                "velocity": 64,
                "duration": 0.06590909090909136,
                "tempo": 120.0
            },
            {
                "start_time": 5.622727272727272,
                "end_time": 6.384090909090909,
                "pitch": 0,
                "velocity": 64,
                "duration": 0.7613636363636367,
                "tempo": 120.0
            },
            {
                "start_time": 6.418181818181818,
                "end_time": 6.586363636363636,
                "pitch": 69,
                "velocity": 64,
                "duration": 0.168181818181818,
                "tempo": 120.0
            },
            {
                "start_time": 6.620454545454545,
                "end_time": 6.686363636363636,
                "pitch": 72,
                "velocity": 64,
                "duration": 0.06590909090909047,
                "tempo": 120.0
            },
            {
                "start_time": 6.715909090909091,
                "end_time": 6.870454545454545,
                "pitch": 0,
                "velocity": 64,
                "duration": 0.15454545454545432,
                "tempo": 120.0
            },
            {
                "start_time": 6.902272727272727,
                "end_time": 7.056818181818182,
                "pitch": 67,
                "velocity": 64,
                "duration": 0.15454545454545432,
                "tempo": 120.0
            },
            {
                "start_time": 7.088636363636363,
                "end_time": 7.247727272727272,
                "pitch": 66,
                "velocity": 64,
                "duration": 0.15909090909090917,
                "tempo": 120.0
            },
            {
                "start_time": 7.279545454545454,
                "end_time": 7.343181818181818,
                "pitch": 69,
                "velocity": 64,
                "duration": 0.06363636363636349,
                "tempo": 120.0
            },
            {
                "start_time": 7.375,
                "end_time": 7.527272727272727,
                "pitch": 0,
                "velocity": 64,
                "duration": 0.15227272727272734,
                "tempo": 120.0
            },
            {
                "start_time": 7.556818181818182,
                "end_time": 7.61590909090909,
                "pitch": 66,
                "velocity": 64,
                "duration": 0.05909090909090864,
                "tempo": 120.0
            },
            {
                "start_time": 7.6477272727272725,
                "end_time": 7.706818181818181,
                "pitch": 66,
                "velocity": 64,
                "duration": 0.05909090909090864,
                "tempo": 120.0
            },
            {
                "start_time": 7.738636363636363,
                "end_time": 7.8977272727272725,
                "pitch": 67,
                "velocity": 64,
                "duration": 0.15909090909090917,
                "tempo": 120.0
            },
            {
                "start_time": 7.929545454545454,
                "end_time": 8.088636363636363,
                "pitch": 69,
                "velocity": 64,
                "duration": 0.15909090909090917,
                "tempo": 120.0
            },
            {
                "start_time": 8.118181818181817,
                "end_time": 8.179545454545455,
                "pitch": 72,
                "velocity": 64,
                "duration": 0.0613636363636374,
                "tempo": 120.0
            },
            {
                "start_time": 8.211363636363636,
                "end_time": 8.36590909090909,
                "pitch": 0,
                "velocity": 64,
                "duration": 0.15454545454545432,
                "tempo": 120.0
            },
            {
                "start_time": 8.397727272727272,
                "end_time": 8.543181818181818,
                "pitch": 67,
                "velocity": 64,
                "duration": 0.1454545454545464,
                "tempo": 120.0
            },
            {
                "start_time": 8.572727272727272,
                "end_time": 8.629545454545454,
                "pitch": 66,
                "velocity": 64,
                "duration": 0.05681818181818166,
                "tempo": 120.0
            },
            {
                "start_time": 8.659090909090908,
                "end_time": 9.386363636363637,
                "pitch": 0,
                "velocity": 64,
                "duration": 0.7272727272727284,
                "tempo": 120.0
            },
            {
                "start_time": 9.415909090909091,
                "end_time": 9.563636363636363,
                "pitch": 69,
                "velocity": 64,
                "duration": 0.1477272727272716,
                "tempo": 120.0
            },
            {
                "start_time": 9.593181818181817,
                "end_time": 9.65,
                "pitch": 72,
                "velocity": 64,
                "duration": 0.05681818181818343,
                "tempo": 120.0
            },
            {
                "start_time": 9.679545454545455,
                "end_time": 9.829545454545453,
                "pitch": 0,
                "velocity": 64,
                "duration": 0.14999999999999858,
                "tempo": 120.0
            },
            {
                "start_time": 9.861363636363636,
                "end_time": 10.01590909090909,
                "pitch": 67,
                "velocity": 64,
                "duration": 0.15454545454545432,
                "tempo": 120.0
            },
            {
                "start_time": 10.045454545454545,
                "end_time": 10.206818181818182,
                "pitch": 66,
                "velocity": 64,
                "duration": 0.16136363636363704,
                "tempo": 120.0
            },
            {
                "start_time": 10.24090909090909,
                "end_time": 10.309090909090909,
                "pitch": 69,
                "velocity": 64,
                "duration": 0.06818181818181834,
                "tempo": 120.0
            },
            {
                "start_time": 10.34090909090909,
                "end_time": 10.509090909090908,
                "pitch": 0,
                "velocity": 64,
                "duration": 0.168181818181818,
                "tempo": 120.0
            },
            {
                "start_time": 10.543181818181818,
                "end_time": 10.611363636363636,
                "pitch": 66,
                "velocity": 64,
                "duration": 0.06818181818181834,
                "tempo": 120.0
            },
            {
                "start_time": 10.645454545454545,
                "end_time": 10.713636363636363,
                "pitch": 66,
                "velocity": 64,
                "duration": 0.06818181818181834,
                "tempo": 120.0
            },
            {
                "start_time": 10.75,
                "end_time": 10.920454545454545,
                "pitch": 67,
                "velocity": 64,
                "duration": 0.17045454545454497,
                "tempo": 120.0
            },
            {
                "start_time": 10.954545454545453,
                "end_time": 11.122727272727273,
                "pitch": 69,
                "velocity": 64,
                "duration": 0.16818181818181976,
                "tempo": 120.0
            },
            {
                "start_time": 11.154545454545454,
                "end_time": 11.222727272727273,
                "pitch": 72,
                "velocity": 64,
                "duration": 0.06818181818181834,
                "tempo": 120.0
            },
            {
                "start_time": 11.256818181818181,
                "end_time": 11.322727272727272,
                "pitch": 76,
                "velocity": 64,
                "duration": 0.06590909090909136,
                "tempo": 120.0
            },
            {
                "start_time": 11.35681818181818,
                "end_time": 11.422727272727272,
                "pitch": 0,
                "velocity": 64,
                "duration": 0.06590909090909136,
                "tempo": 120.0
            },
            {
                "start_time": 11.454545454545453,
                "end_time": 11.618181818181817,
                "pitch": 67,
                "velocity": 64,
                "duration": 0.16363636363636402,
                "tempo": 120.0
            },
            {
                "start_time": 11.649999999999999,
                "end_time": 11.71590909090909,
                "pitch": 66,
                "velocity": 64,
                "duration": 0.06590909090909136,
                "tempo": 120.0
            },
            {
                "start_time": 11.75,
                "end_time": 12.520454545454545,
                "pitch": 0,
                "velocity": 64,
                "duration": 0.7704545454545446,
                "tempo": 120.0
            },
            {
                "start_time": 12.554545454545455,
                "end_time": 12.720454545454546,
                "pitch": 69,
                "velocity": 64,
                "duration": 0.165909090909091,
                "tempo": 120.0
            },
            {
                "start_time": 12.754545454545454,
                "end_time": 12.820454545454545,
                "pitch": 72,
                "velocity": 64,
                "duration": 0.06590909090909136,
                "tempo": 120.0
            },
            {
                "start_time": 12.854545454545454,
                "end_time": 13.020454545454545,
                "pitch": 0,
                "velocity": 64,
                "duration": 0.165909090909091,
                "tempo": 120.0
            },
            {
                "start_time": 13.054545454545455,
                "end_time": 13.222727272727273,
                "pitch": 67,
                "velocity": 64,
                "duration": 0.168181818181818,
                "tempo": 120.0
            },
            {
                "start_time": 13.256818181818181,
                "end_time": 13.424999999999999,
                "pitch": 66,
                "velocity": 64,
                "duration": 0.168181818181818,
                "tempo": 120.0
            },
            {
                "start_time": 13.456818181818182,
                "end_time": 13.524999999999999,
                "pitch": 69,
                "velocity": 64,
                "duration": 0.06818181818181657,
                "tempo": 120.0
            },
            {
                "start_time": 13.559090909090909,
                "end_time": 13.727272727272727,
                "pitch": 0,
                "velocity": 64,
                "duration": 0.168181818181818,
                "tempo": 120.0
            },
            {
                "start_time": 13.759090909090908,
                "end_time": 13.827272727272726,
                "pitch": 66,
                "velocity": 64,
                "duration": 0.06818181818181834,
                "tempo": 120.0
            },
            {
                "start_time": 13.861363636363636,
                "end_time": 13.927272727272726,
                "pitch": 66,
                "velocity": 64,
                "duration": 0.06590909090908958,
                "tempo": 120.0
            },
            {
                "start_time": 13.961363636363636,
                "end_time": 14.129545454545454,
                "pitch": 67,
                "velocity": 64,
                "duration": 0.168181818181818,
                "tempo": 120.0
            },
            {
                "start_time": 14.163636363636362,
                "end_time": 14.334090909090909,
                "pitch": 69,
                "velocity": 64,
                "duration": 0.17045454545454675,
                "tempo": 120.0
            },
            {
                "start_time": 14.368181818181817,
                "end_time": 14.436363636363636,
                "pitch": 72,
                "velocity": 64,
                "duration": 0.06818181818181834,
                "tempo": 120.0
            },
            {
                "start_time": 14.470454545454544,
                "end_time": 14.638636363636364,
                "pitch": 0,
                "velocity": 64,
                "duration": 0.16818181818181976,
                "tempo": 120.0
            },
            {
                "start_time": 14.670454545454545,
                "end_time": 14.834090909090909,
                "pitch": 67,
                "velocity": 64,
                "duration": 0.16363636363636402,
                "tempo": 120.0
            },
            {
                "start_time": 14.86590909090909,
                "end_time": 14.931818181818182,
                "pitch": 66,
                "velocity": 64,
                "duration": 0.06590909090909136,
                "tempo": 120.0
            },
            {
                "start_time": 14.96590909090909,
                "end_time": 15.745454545454544,
                "pitch": 0,
                "velocity": 64,
                "duration": 0.7795454545454543,
                "tempo": 120.0
            },
            {
                "start_time": 15.777272727272727,
                "end_time": 15.94090909090909,
                "pitch": 69,
                "velocity": 64,
                "duration": 0.16363636363636225,
                "tempo": 120.0
            },
            {
                "start_time": 15.975,
                "end_time": 16.038636363636364,
                "pitch": 72,
                "velocity": 64,
                "duration": 0.06363636363636438,
                "tempo": 120.0
            },
            {
                "start_time": 16.07272727272727,
                "end_time": 16.238636363636363,
                "pitch": 0,
                "velocity": 64,
                "duration": 0.16590909090909278,
                "tempo": 120.0
            },
            {
                "start_time": 16.270454545454545,
                "end_time": 16.438636363636363,
                "pitch": 67,
                "velocity": 64,
                "duration": 0.168181818181818,
                "tempo": 120.0
            },
            {
                "start_time": 16.470454545454544,
                "end_time": 16.638636363636362,
                "pitch": 66,
                "velocity": 64,
                "duration": 0.168181818181818,
                "tempo": 120.0
            },
            {
                "start_time": 16.672727272727272,
                "end_time": 16.743181818181817,
                "pitch": 69,
                "velocity": 64,
                "duration": 0.07045454545454533,
                "tempo": 120.0
            },
            {
                "start_time": 16.777272727272727,
                "end_time": 16.94772727272727,
                "pitch": 0,
                "velocity": 64,
                "duration": 0.1704545454545432,
                "tempo": 120.0
            },
            {
                "start_time": 16.98181818181818,
                "end_time": 17.045454545454543,
                "pitch": 66,
                "velocity": 64,
                "duration": 0.0636363636363626,
                "tempo": 120.0
            },
            {
                "start_time": 17.079545454545453,
                "end_time": 17.145454545454545,
                "pitch": 66,
                "velocity": 64,
                "duration": 0.06590909090909136,
                "tempo": 120.0
            },
            {
                "start_time": 17.177272727272726,
                "end_time": 17.34090909090909,
                "pitch": 67,
                "velocity": 64,
                "duration": 0.16363636363636402,
                "tempo": 120.0
            },
            {
                "start_time": 17.37272727272727,
                "end_time": 17.545454545454543,
                "pitch": 69,
                "velocity": 64,
                "duration": 0.17272727272727195,
                "tempo": 120.0
            },
            {
                "start_time": 17.579545454545453,
                "end_time": 17.647727272727273,
                "pitch": 72,
                "velocity": 64,
                "duration": 0.06818181818182012,
                "tempo": 120.0
            },
            {
                "start_time": 17.68181818181818,
                "end_time": 17.75,
                "pitch": 76,
                "velocity": 64,
                "duration": 0.06818181818182012,
                "tempo": 120.0
            },
            {
                "start_time": 17.784090909090907,
                "end_time": 17.849999999999998,
                "pitch": 0,
                "velocity": 64,
                "duration": 0.06590909090909136,
                "tempo": 120.0
            },
            {
                "start_time": 17.881818181818183,
                "end_time": 18.045454545454543,
                "pitch": 67,
                "velocity": 64,
                "duration": 0.16363636363636047,
                "tempo": 120.0
            },
            {
                "start_time": 18.077272727272728,
                "end_time": 18.143181818181816,
                "pitch": 66,
                "velocity": 64,
                "duration": 0.06590909090908781,
                "tempo": 120.0
            },
            {
                "start_time": 18.175,
                "end_time": 18.943181818181817,
                "pitch": 0,
                "velocity": 64,
                "duration": 0.7681818181818159,
                "tempo": 120.0
            },
            {
                "start_time": 18.974999999999998,
                "end_time": 19.129545454545454,
                "pitch": 69,
                "velocity": 64,
                "duration": 0.1545454545454561,
                "tempo": 120.0
            },
            {
                "start_time": 19.159090909090907,
                "end_time": 19.222727272727273,
                "pitch": 72,
                "velocity": 64,
                "duration": 0.06363636363636616,
                "tempo": 120.0
            },
            {
                "start_time": 19.252272727272725,
                "end_time": 19.41590909090909,
                "pitch": 0,
                "velocity": 64,
                "duration": 0.16363636363636402,
                "tempo": 120.0
            },
            {
                "start_time": 19.45,
                "end_time": 19.618181818181817,
                "pitch": 67,
                "velocity": 64,
                "duration": 0.168181818181818,
                "tempo": 120.0
            },
            {
                "start_time": 19.652272727272727,
                "end_time": 19.818181818181817,
                "pitch": 66,
                "velocity": 64,
                "duration": 0.16590909090908923,
                "tempo": 120.0
            },
            {
                "start_time": 19.852272727272727,
                "end_time": 19.918181818181818,
                "pitch": 69,
                "velocity": 64,
                "duration": 0.06590909090909136,
                "tempo": 120.0
            },
            {
                "start_time": 19.952272727272728,
                "end_time": 20.118181818181817,
                "pitch": 0,
                "velocity": 64,
                "duration": 0.16590909090908923,
                "tempo": 120.0
            },
            {
                "start_time": 20.152272727272727,
                "end_time": 20.21818181818182,
                "pitch": 66,
                "velocity": 64,
                "duration": 0.06590909090909136,
                "tempo": 120.0
            },
            {
                "start_time": 20.252272727272725,
                "end_time": 20.320454545454545,
                "pitch": 66,
                "velocity": 64,
                "duration": 0.06818181818182012,
                "tempo": 120.0
            },
            {
                "start_time": 20.352272727272727,
                "end_time": 20.520454545454545,
                "pitch": 67,
                "velocity": 64,
                "duration": 0.168181818181818,
                "tempo": 120.0
            },
            {
                "start_time": 20.554545454545455,
                "end_time": 20.720454545454544,
                "pitch": 69,
                "velocity": 64,
                "duration": 0.16590909090908923,
                "tempo": 120.0
            },
            {
                "start_time": 20.754545454545454,
                "end_time": 20.820454545454545,
                "pitch": 72,
                "velocity": 64,
                "duration": 0.06590909090909136,
                "tempo": 120.0
            },
            {
                "start_time": 20.854545454545452,
                "end_time": 21.020454545454545,
                "pitch": 0,
                "velocity": 64,
                "duration": 0.16590909090909278,
                "tempo": 120.0
            },
            {
                "start_time": 21.054545454545455,
                "end_time": 21.220454545454544,
                "pitch": 67,
                "velocity": 64,
                "duration": 0.16590909090908923,
                "tempo": 120.0
            },
            {
                "start_time": 21.254545454545454,
                "end_time": 21.320454545454545,
                "pitch": 66,
                "velocity": 64,
                "duration": 0.06590909090909136,
                "tempo": 120.0
            },
            {
                "start_time": 21.354545454545452,
                "end_time": 22.12272727272727,
                "pitch": 0,
                "velocity": 64,
                "duration": 0.7681818181818194,
                "tempo": 120.0
            },
            {
                "start_time": 22.15681818181818,
                "end_time": 22.325,
                "pitch": 69,
                "velocity": 64,
                "duration": 0.168181818181818,
                "tempo": 120.0
            },
            {
                "start_time": 22.35909090909091,
                "end_time": 22.424999999999997,
                "pitch": 72,
                "velocity": 64,
                "duration": 0.06590909090908781,
                "tempo": 120.0
            },
            {
                "start_time": 22.459090909090907,
                "end_time": 22.627272727272725,
                "pitch": 0,
                "velocity": 64,
                "duration": 0.168181818181818,
                "tempo": 120.0
            },
            {
                "start_time": 22.659090909090907,
                "end_time": 22.827272727272724,
                "pitch": 67,
                "velocity": 64,
                "duration": 0.168181818181818,
                "tempo": 120.0
            },
            {
                "start_time": 22.85909090909091,
                "end_time": 23.027272727272727,
                "pitch": 66,
                "velocity": 64,
                "duration": 0.168181818181818,
                "tempo": 120.0
            },
            {
                "start_time": 23.05909090909091,
                "end_time": 23.127272727272725,
                "pitch": 69,
                "velocity": 64,
                "duration": 0.06818181818181657,
                "tempo": 120.0
            },
            {
                "start_time": 23.159090909090907,
                "end_time": 23.327272727272724,
                "pitch": 0,
                "velocity": 64,
                "duration": 0.168181818181818,
                "tempo": 120.0
            },
            {
                "start_time": 23.35909090909091,
                "end_time": 23.427272727272726,
                "pitch": 66,
                "velocity": 64,
                "duration": 0.06818181818181657,
                "tempo": 120.0
            },
            {
                "start_time": 23.461363636363636,
                "end_time": 23.527272727272727,
                "pitch": 66,
                "velocity": 64,
                "duration": 0.06590909090909136,
                "tempo": 120.0
            },
            {
                "start_time": 23.561363636363634,
                "end_time": 23.729545454545452,
                "pitch": 67,
                "velocity": 64,
                "duration": 0.168181818181818,
                "tempo": 120.0
            },
            {
                "start_time": 23.761363636363637,
                "end_time": 23.929545454545455,
                "pitch": 69,
                "velocity": 64,
                "duration": 0.168181818181818,
                "tempo": 120.0
            },
            {
                "start_time": 23.961363636363636,
                "end_time": 24.029545454545453,
                "pitch": 72,
                "velocity": 64,
                "duration": 0.06818181818181657,
                "tempo": 120.0
            },
            {
                "start_time": 24.061363636363634,
                "end_time": 24.129545454545454,
                "pitch": 76,
                "velocity": 64,
                "duration": 0.06818181818182012,
                "tempo": 120.0
            },
            {
                "start_time": 24.163636363636364,
                "end_time": 24.229545454545452,
                "pitch": 0,
                "velocity": 64,
                "duration": 0.06590909090908781,
                "tempo": 120.0
            },
            {
                "start_time": 24.263636363636362,
                "end_time": 24.43181818181818,
                "pitch": 67,
                "velocity": 64,
                "duration": 0.168181818181818,
                "tempo": 120.0
            },
            {
                "start_time": 24.46363636363636,
                "end_time": 24.53181818181818,
                "pitch": 66,
                "velocity": 64,
                "duration": 0.06818181818182012,
                "tempo": 120.0
            },
            {
                "start_time": 24.56590909090909,
                "end_time": 25.325,
                "pitch": 0,
                "velocity": 64,
                "duration": 0.7590909090909079,
                "tempo": 120.0
            },
            {
                "start_time": 25.35681818181818,
                "end_time": 25.39090909090909,
                "pitch": 62,
                "velocity": 64,
                "duration": 0.03409090909091006,
                "tempo": 120.0
            },
            {
                "start_time": 25.424999999999997,
                "end_time": 25.456818181818182,
                "pitch": 64,
                "velocity": 64,
                "duration": 0.031818181818184854,
                "tempo": 120.0
            },
            {
                "start_time": 25.49090909090909,
                "end_time": 25.525,
                "pitch": 67,
                "velocity": 64,
                "duration": 0.03409090909091006,
                "tempo": 120.0
            },
            {
                "start_time": 25.55681818181818,
                "end_time": 25.59090909090909,
                "pitch": 64,
                "velocity": 64,
                "duration": 0.03409090909091006,
                "tempo": 120.0
            },
            {
                "start_time": 25.625,
                "end_time": 25.65681818181818,
                "pitch": 67,
                "velocity": 64,
                "duration": 0.0318181818181813,
                "tempo": 120.0
            },
            {
                "start_time": 25.69090909090909,
                "end_time": 25.724999999999998,
                "pitch": 69,
                "velocity": 64,
                "duration": 0.03409090909090651,
                "tempo": 120.0
            },
            {
                "start_time": 25.759090909090908,
                "end_time": 25.795454545454543,
                "pitch": 67,
                "velocity": 64,
                "duration": 0.036363636363635266,
                "tempo": 120.0
            },
            {
                "start_time": 25.829545454545453,
                "end_time": 25.86590909090909,
                "pitch": 69,
                "velocity": 64,
                "duration": 0.036363636363635266,
                "tempo": 120.0
            },
            {
                "start_time": 25.9,
                "end_time": 25.936363636363634,
                "pitch": 72,
                "velocity": 64,
                "duration": 0.036363636363635266,
                "tempo": 120.0
            },
            {
                "start_time": 25.970454545454544,
                "end_time": 26.00681818181818,
                "pitch": 69,
                "velocity": 64,
                "duration": 0.036363636363635266,
                "tempo": 120.0
            },
            {
                "start_time": 26.04090909090909,
                "end_time": 26.077272727272724,
                "pitch": 72,
                "velocity": 64,
                "duration": 0.036363636363635266,
                "tempo": 120.0
            },
            {
                "start_time": 26.111363636363635,
                "end_time": 26.145454545454545,
                "pitch": 74,
                "velocity": 64,
                "duration": 0.03409090909091006,
                "tempo": 120.0
            },
            {
                "start_time": 26.177272727272726,
                "end_time": 26.211363636363636,
                "pitch": 72,
                "velocity": 64,
                "duration": 0.03409090909091006,
                "tempo": 120.0
            },
            {
                "start_time": 26.243181818181817,
                "end_time": 26.277272727272727,
                "pitch": 74,
                "velocity": 64,
                "duration": 0.03409090909091006,
                "tempo": 120.0
            },
            {
                "start_time": 26.30909090909091,
                "end_time": 26.34090909090909,
                "pitch": 76,
                "velocity": 64,
                "duration": 0.0318181818181813,
                "tempo": 120.0
            },
            {
                "start_time": 26.375,
                "end_time": 26.40681818181818,
                "pitch": 74,
                "velocity": 64,
                "duration": 0.0318181818181813,
                "tempo": 120.0
            },
            {
                "start_time": 26.438636363636363,
                "end_time": 26.472727272727273,
                "pitch": 76,
                "velocity": 64,
                "duration": 0.03409090909091006,
                "tempo": 120.0
            },
            {
                "start_time": 26.504545454545454,
                "end_time": 26.538636363636364,
                "pitch": 79,
                "velocity": 64,
                "duration": 0.03409090909091006,
                "tempo": 120.0
            },
            {
                "start_time": 26.57272727272727,
                "end_time": 26.64090909090909,
                "pitch": 81,
                "velocity": 64,
                "duration": 0.06818181818182012,
                "tempo": 120.0
            },
            {
                "start_time": 26.674999999999997,
                "end_time": 26.845454545454544,
                "pitch": 0,
                "velocity": 64,
                "duration": 0.17045454545454675,
                "tempo": 120.0
            },
            {
                "start_time": 26.879545454545454,
                "end_time": 29.75,
                "pitch": 86,
                "velocity": 64,
                "duration": 2.870454545454546,
                "tempo": 120.0
            },
            {
                "start_time": 29.78181818181818,
                "end_time": 30.14772727272727,
                "pitch": 0,
                "velocity": 64,
                "duration": 0.3659090909090885,
                "tempo": 120.0
            },
            {
                "start_time": 30.18181818181818,
                "end_time": 30.443181818181817,
                "pitch": 72,
                "velocity": 64,
                "duration": 0.2613636363636367,
                "tempo": 120.0
            },
            {
                "start_time": 30.474999999999998,
                "end_time": 30.54090909090909,
                "pitch": 72,
                "velocity": 64,
                "duration": 0.06590909090909136,
                "tempo": 120.0
            },
            {
                "start_time": 30.577272727272724,
                "end_time": 30.752272727272725,
                "pitch": 0,
                "velocity": 64,
                "duration": 0.1750000000000007,
                "tempo": 120.0
            },
            {
                "start_time": 30.786363636363635,
                "end_time": 30.961363636363636,
                "pitch": 72,
                "velocity": 64,
                "duration": 0.1750000000000007,
                "tempo": 120.0
            },
            {
                "start_time": 30.995454545454542,
                "end_time": 31.159090909090907,
                "pitch": 0,
                "velocity": 64,
                "duration": 0.16363636363636402,
                "tempo": 120.0
            },
            {
                "start_time": 31.190909090909088,
                "end_time": 31.25681818181818,
                "pitch": 71,
                "velocity": 64,
                "duration": 0.06590909090909136,
                "tempo": 120.0
            },
            {
                "start_time": 31.28863636363636,
                "end_time": 31.354545454545452,
                "pitch": 0,
                "velocity": 64,
                "duration": 0.06590909090909136,
                "tempo": 120.0
            },
            {
                "start_time": 31.388636363636362,
                "end_time": 31.55681818181818,
                "pitch": 72,
                "velocity": 64,
                "duration": 0.168181818181818,
                "tempo": 120.0
            },
            {
                "start_time": 31.59090909090909,
                "end_time": 31.75681818181818,
                "pitch": 0,
                "velocity": 64,
                "duration": 0.16590909090908923,
                "tempo": 120.0
            },
            {
                "start_time": 31.79090909090909,
                "end_time": 32.05681818181818,
                "pitch": 72,
                "velocity": 64,
                "duration": 0.26590909090909065,
                "tempo": 120.0
            },
            {
                "start_time": 32.090909090909086,
                "end_time": 32.15681818181818,
                "pitch": 72,
                "velocity": 64,
                "duration": 0.06590909090909491,
                "tempo": 120.0
            },
            {
                "start_time": 32.19090909090909,
                "end_time": 32.36363636363636,
                "pitch": 0,
                "velocity": 64,
                "duration": 0.17272727272727195,
                "tempo": 120.0
            },
            {
                "start_time": 32.39772727272727,
                "end_time": 32.56818181818182,
                "pitch": 72,
                "velocity": 64,
                "duration": 0.17045454545454675,
                "tempo": 120.0
            },
            {
                "start_time": 32.60227272727273,
                "end_time": 32.768181818181816,
                "pitch": 0,
                "velocity": 64,
                "duration": 0.16590909090908923,
                "tempo": 120.0
            },
            {
                "start_time": 32.80227272727272,
                "end_time": 32.86818181818182,
                "pitch": 71,
                "velocity": 64,
                "duration": 0.06590909090909491,
                "tempo": 120.0
            },
            {
                "start_time": 32.902272727272724,
                "end_time": 32.96818181818182,
                "pitch": 0,
                "velocity": 64,
                "duration": 0.06590909090909491,
                "tempo": 120.0
            },
            {
                "start_time": 33.0,
                "end_time": 33.163636363636364,
                "pitch": 72,
                "velocity": 64,
                "duration": 0.16363636363636402,
                "tempo": 120.0
            },
            {
                "start_time": 33.19772727272727,
                "end_time": 33.361363636363635,
                "pitch": 0,
                "velocity": 64,
                "duration": 0.16363636363636402,
                "tempo": 120.0
            },
            {
                "start_time": 33.393181818181816,
                "end_time": 33.66136363636363,
                "pitch": 72,
                "velocity": 64,
                "duration": 0.26818181818181586,
                "tempo": 120.0
            },
            {
                "start_time": 33.69318181818181,
                "end_time": 33.76136363636363,
                "pitch": 72,
                "velocity": 64,
                "duration": 0.06818181818182012,
                "tempo": 120.0
            },
            {
                "start_time": 33.79545454545455,
                "end_time": 33.965909090909086,
                "pitch": 0,
                "velocity": 64,
                "duration": 0.17045454545453964,
                "tempo": 120.0
            },
            {
                "start_time": 34.0,
                "end_time": 34.17045454545455,
                "pitch": 72,
                "velocity": 64,
                "duration": 0.17045454545454675,
                "tempo": 120.0
            },
            {
                "start_time": 34.20454545454545,
                "end_time": 34.36590909090909,
                "pitch": 0,
                "velocity": 64,
                "duration": 0.16136363636363882,
                "tempo": 120.0
            },
            {
                "start_time": 34.4,
                "end_time": 34.465909090909086,
                "pitch": 71,
                "velocity": 64,
                "duration": 0.06590909090908781,
                "tempo": 120.0
            },
            {
                "start_time": 34.49772727272727,
                "end_time": 34.56363636363636,
                "pitch": 0,
                "velocity": 64,
                "duration": 0.06590909090909491,
                "tempo": 120.0
            },
            {
                "start_time": 34.59772727272727,
                "end_time": 34.763636363636365,
                "pitch": 72,
                "velocity": 64,
                "duration": 0.16590909090909634,
                "tempo": 120.0
            },
            {
                "start_time": 34.79772727272727,
                "end_time": 34.96363636363636,
                "pitch": 0,
                "velocity": 64,
                "duration": 0.16590909090908923,
                "tempo": 120.0
            },
            {
                "start_time": 34.99772727272727,
                "end_time": 35.263636363636365,
                "pitch": 72,
                "velocity": 64,
                "duration": 0.26590909090909776,
                "tempo": 120.0
            },
            {
                "start_time": 35.29772727272727,
                "end_time": 35.36363636363636,
                "pitch": 72,
                "velocity": 64,
                "duration": 0.06590909090908781,
                "tempo": 120.0
            },
            {
                "start_time": 35.39772727272727,
                "end_time": 35.56363636363636,
                "pitch": 0,
                "velocity": 64,
                "duration": 0.16590909090908923,
                "tempo": 120.0
            },
            {
                "start_time": 35.59772727272727,
                "end_time": 35.763636363636365,
                "pitch": 72,
                "velocity": 64,
                "duration": 0.16590909090909634,
                "tempo": 120.0
            },
            {
                "start_time": 35.79772727272727,
                "end_time": 35.96818181818182,
                "pitch": 0,
                "velocity": 64,
                "duration": 0.17045454545454675,
                "tempo": 120.0
            },
            {
                "start_time": 36.002272727272725,
                "end_time": 36.07272727272727,
                "pitch": 71,
                "velocity": 64,
                "duration": 0.07045454545454533,
                "tempo": 120.0
            },
            {
                "start_time": 36.10681818181818,
                "end_time": 36.17272727272727,
                "pitch": 0,
                "velocity": 64,
                "duration": 0.06590909090909491,
                "tempo": 120.0
            },
            {
                "start_time": 36.20681818181818,
                "end_time": 36.37045454545454,
                "pitch": 72,
                "velocity": 64,
                "duration": 0.16363636363636402,
                "tempo": 120.0
            },
            {
                "start_time": 36.402272727272724,
                "end_time": 36.56590909090909,
                "pitch": 0,
                "velocity": 64,
                "duration": 0.16363636363636402,
                "tempo": 120.0
            },
            {
                "start_time": 36.6,
                "end_time": 36.76590909090909,
                "pitch": 72,
                "velocity": 64,
                "duration": 0.16590909090908923,
                "tempo": 120.0
            },
            {
                "start_time": 36.8,
                "end_time": 36.965909090909086,
                "pitch": 69,
                "velocity": 64,
                "duration": 0.16590909090908923,
                "tempo": 120.0
            },
            {
                "start_time": 37.0,
                "end_time": 37.06590909090909,
                "pitch": 0,
                "velocity": 64,
                "duration": 0.06590909090908781,
                "tempo": 120.0
            },
            {
                "start_time": 37.1,
                "end_time": 37.16590909090909,
                "pitch": 69,
                "velocity": 64,
                "duration": 0.06590909090908781,
                "tempo": 120.0
            },
            {
                "start_time": 37.199999999999996,
                "end_time": 37.26590909090909,
                "pitch": 0,
                "velocity": 64,
                "duration": 0.06590909090909491,
                "tempo": 120.0
            },
            {
                "start_time": 37.3,
                "end_time": 37.465909090909086,
                "pitch": 69,
                "velocity": 64,
                "duration": 0.16590909090908923,
                "tempo": 120.0
            },
            {
                "start_time": 37.5,
                "end_time": 37.56590909090909,
                "pitch": 72,
                "velocity": 64,
                "duration": 0.06590909090908781,
                "tempo": 120.0
            },
            {
                "start_time": 37.6,
                "end_time": 37.66590909090909,
                "pitch": 0,
                "velocity": 64,
                "duration": 0.06590909090908781,
                "tempo": 120.0
            },
            {
                "start_time": 37.699999999999996,
                "end_time": 37.76590909090909,
                "pitch": 69,
                "velocity": 64,
                "duration": 0.06590909090909491,
                "tempo": 120.0
            },
            {
                "start_time": 37.8,
                "end_time": 37.96818181818182,
                "pitch": 71,
                "velocity": 64,
                "duration": 0.16818181818182154,
                "tempo": 120.0
            },
            {
                "start_time": 38.002272727272725,
                "end_time": 38.168181818181814,
                "pitch": 72,
                "velocity": 64,
                "duration": 0.16590909090908923,
                "tempo": 120.0
            },
            {
                "start_time": 38.20227272727273,
                "end_time": 38.36818181818182,
                "pitch": 71,
                "velocity": 64,
                "duration": 0.16590909090908923,
                "tempo": 120.0
            },
            {
                "start_time": 38.402272727272724,
                "end_time": 38.56818181818181,
                "pitch": 67,
                "velocity": 64,
                "duration": 0.16590909090908923,
                "tempo": 120.0
            },
            {
                "start_time": 38.60227272727273,
                "end_time": 38.668181818181814,
                "pitch": 0,
                "velocity": 64,
                "duration": 0.06590909090908781,
                "tempo": 120.0
            },
            {
                "start_time": 38.70227272727273,
                "end_time": 38.768181818181816,
                "pitch": 67,
                "velocity": 64,
                "duration": 0.06590909090908781,
                "tempo": 120.0
            },
            {
                "start_time": 38.80227272727272,
                "end_time": 38.86818181818182,
                "pitch": 0,
                "velocity": 64,
                "duration": 0.06590909090909491,
                "tempo": 120.0
            },
            {
                "start_time": 38.902272727272724,
                "end_time": 39.06818181818181,
                "pitch": 67,
                "velocity": 64,
                "duration": 0.16590909090908923,
                "tempo": 120.0
            },
            {
                "start_time": 39.10227272727273,
                "end_time": 39.168181818181814,
                "pitch": 71,
                "velocity": 64,
                "duration": 0.06590909090908781,
                "tempo": 120.0
            },
            {
                "start_time": 39.20227272727273,
                "end_time": 39.268181818181816,
                "pitch": 0,
                "velocity": 64,
                "duration": 0.06590909090908781,
                "tempo": 120.0
            },
            {
                "start_time": 39.30227272727272,
                "end_time": 39.36818181818182,
                "pitch": 67,
                "velocity": 64,
                "duration": 0.06590909090909491,
                "tempo": 120.0
            },
            {
                "start_time": 39.402272727272724,
                "end_time": 39.46818181818182,
                "pitch": 72,
                "velocity": 64,
                "duration": 0.06590909090909491,
                "tempo": 120.0
            },
            {
                "start_time": 39.502272727272725,
                "end_time": 39.56818181818181,
                "pitch": 72,
                "velocity": 64,
                "duration": 0.06590909090908781,
                "tempo": 120.0
            },
            {
                "start_time": 39.60227272727273,
                "end_time": 39.768181818181816,
                "pitch": 67,
                "velocity": 64,
                "duration": 0.16590909090908923,
                "tempo": 120.0
            },
            {
                "start_time": 39.80227272727272,
                "end_time": 39.970454545454544,
                "pitch": 71,
                "velocity": 64,
                "duration": 0.16818181818182154,
                "tempo": 120.0
            },
            {
                "start_time": 40.00454545454545,
                "end_time": 40.17272727272727,
                "pitch": 67,
                "velocity": 64,
                "duration": 0.16818181818182154,
                "tempo": 120.0
            },
            {
                "start_time": 40.20454545454545,
                "end_time": 40.27272727272727,
                "pitch": 0,
                "velocity": 64,
                "duration": 0.06818181818182012,
                "tempo": 120.0
            },
            {
                "start_time": 40.304545454545455,
                "end_time": 40.37272727272727,
                "pitch": 67,
                "velocity": 64,
                "duration": 0.06818181818181301,
                "tempo": 120.0
            },
            {
                "start_time": 40.404545454545456,
                "end_time": 40.47272727272727,
                "pitch": 0,
                "velocity": 64,
                "duration": 0.06818181818181301,
                "tempo": 120.0
            },
            {
                "start_time": 40.50454545454545,
                "end_time": 40.67272727272727,
                "pitch": 67,
                "velocity": 64,
                "duration": 0.16818181818182154,
                "tempo": 120.0
            },
            {
                "start_time": 40.70454545454545,
                "end_time": 40.77272727272727,
                "pitch": 69,
                "velocity": 64,
                "duration": 0.06818181818182012,
                "tempo": 120.0
            },
            {
                "start_time": 40.804545454545455,
                "end_time": 40.87272727272727,
                "pitch": 0,
                "velocity": 64,
                "duration": 0.06818181818181301,
                "tempo": 120.0
            },
            {
                "start_time": 40.904545454545456,
                "end_time": 40.97272727272727,
                "pitch": 71,
                "velocity": 64,
                "duration": 0.06818181818181301,
                "tempo": 120.0
            },
            {
                "start_time": 41.00454545454545,
                "end_time": 41.17272727272727,
                "pitch": 72,
                "velocity": 64,
                "duration": 0.16818181818182154,
                "tempo": 120.0
            },
            {
                "start_time": 41.20454545454545,
                "end_time": 41.37272727272727,
                "pitch": 67,
                "velocity": 64,
                "duration": 0.16818181818181444,
                "tempo": 120.0
            },
            {
                "start_time": 41.40454545454545,
                "end_time": 41.57272727272727,
                "pitch": 72,
                "velocity": 64,
                "duration": 0.16818181818182154,
                "tempo": 120.0
            },
            {
                "start_time": 41.60454545454545,
                "end_time": 41.77272727272727,
                "pitch": 69,
                "velocity": 64,
                "duration": 0.16818181818182154,
                "tempo": 120.0
            },
            {
                "start_time": 41.804545454545455,
                "end_time": 41.87272727272727,
                "pitch": 0,
                "velocity": 64,
                "duration": 0.06818181818181301,
                "tempo": 120.0
            },
            {
                "start_time": 41.90681818181818,
                "end_time": 41.97272727272727,
                "pitch": 69,
                "velocity": 64,
                "duration": 0.06590909090908781,
                "tempo": 120.0
            },
            {
                "start_time": 42.00681818181818,
                "end_time": 42.07272727272727,
                "pitch": 0,
                "velocity": 64,
                "duration": 0.06590909090908781,
                "tempo": 120.0
            },
            {
                "start_time": 42.10681818181818,
                "end_time": 42.275,
                "pitch": 69,
                "velocity": 64,
                "duration": 0.16818181818182154,
                "tempo": 120.0
            },
            {
                "start_time": 42.30681818181818,
                "end_time": 42.375,
                "pitch": 72,
                "velocity": 64,
                "duration": 0.06818181818182012,
                "tempo": 120.0
            },
            {
                "start_time": 42.40681818181818,
                "end_time": 42.475,
                "pitch": 0,
                "velocity": 64,
                "duration": 0.06818181818182012,
                "tempo": 120.0
            },
            {
                "start_time": 42.50681818181818,
                "end_time": 42.574999999999996,
                "pitch": 69,
                "velocity": 64,
                "duration": 0.06818181818181301,
                "tempo": 120.0
            },
            {
                "start_time": 42.60681818181818,
                "end_time": 42.675,
                "pitch": 71,
                "velocity": 64,
                "duration": 0.06818181818182012,
                "tempo": 120.0
            },
            {
                "start_time": 42.70681818181818,
                "end_time": 42.775,
                "pitch": 71,
                "velocity": 64,
                "duration": 0.06818181818182012,
                "tempo": 120.0
            },
            {
                "start_time": 42.80681818181818,
                "end_time": 42.975,
                "pitch": 72,
                "velocity": 64,
                "duration": 0.16818181818182154,
                "tempo": 120.0
            },
            {
                "start_time": 43.00681818181818,
                "end_time": 43.175,
                "pitch": 72,
                "velocity": 64,
                "duration": 0.16818181818181444,
                "tempo": 120.0
            },
            {
                "start_time": 43.20681818181818,
                "end_time": 43.375,
                "pitch": 69,
                "velocity": 64,
                "duration": 0.16818181818182154,
                "tempo": 120.0
            },
            {
                "start_time": 43.40681818181818,
                "end_time": 43.475,
                "pitch": 0,
                "velocity": 64,
                "duration": 0.06818181818182012,
                "tempo": 120.0
            },
            {
                "start_time": 43.50681818181818,
                "end_time": 43.574999999999996,
                "pitch": 69,
                "velocity": 64,
                "duration": 0.06818181818181301,
                "tempo": 120.0
            },
            {
                "start_time": 43.60681818181818,
                "end_time": 43.675,
                "pitch": 0,
                "velocity": 64,
                "duration": 0.06818181818182012,
                "tempo": 120.0
            },
            {
                "start_time": 43.70681818181818,
                "end_time": 43.875,
                "pitch": 69,
                "velocity": 64,
                "duration": 0.16818181818182154,
                "tempo": 120.0
            },
            {
                "start_time": 43.90909090909091,
                "end_time": 43.974999999999994,
                "pitch": 72,
                "velocity": 64,
                "duration": 0.06590909090908781,
                "tempo": 120.0
            },
            {
                "start_time": 44.00909090909091,
                "end_time": 44.07727272727273,
                "pitch": 0,
                "velocity": 64,
                "duration": 0.06818181818182012,
                "tempo": 120.0
            },
            {
                "start_time": 44.10909090909091,
                "end_time": 44.17727272727272,
                "pitch": 69,
                "velocity": 64,
                "duration": 0.06818181818181301,
                "tempo": 120.0
            },
            {
                "start_time": 44.211363636363636,
                "end_time": 44.377272727272725,
                "pitch": 71,
                "velocity": 64,
                "duration": 0.16590909090908923,
                "tempo": 120.0
            },
            {
                "start_time": 44.41136363636363,
                "end_time": 44.57727272727273,
                "pitch": 72,
                "velocity": 64,
                "duration": 0.16590909090909634,
                "tempo": 120.0
            },
            {
                "start_time": 44.611363636363635,
                "end_time": 44.777272727272724,
                "pitch": 71,
                "velocity": 64,
                "duration": 0.16590909090908923,
                "tempo": 120.0
            },
            {
                "start_time": 44.81136363636364,
                "end_time": 44.97727272727273,
                "pitch": 67,
                "velocity": 64,
                "duration": 0.16590909090908923,
                "tempo": 120.0
            },
            {
                "start_time": 45.01136363636363,
                "end_time": 45.07727272727273,
                "pitch": 0,
                "velocity": 64,
                "duration": 0.06590909090909491,
                "tempo": 120.0
            },
            {
                "start_time": 45.111363636363635,
                "end_time": 45.17727272727272,
                "pitch": 67,
                "velocity": 64,
                "duration": 0.06590909090908781,
                "tempo": 120.0
            },
            {
                "start_time": 45.211363636363636,
                "end_time": 45.277272727272724,
                "pitch": 0,
                "velocity": 64,
                "duration": 0.06590909090908781,
                "tempo": 120.0
            },
            {
                "start_time": 45.31136363636364,
                "end_time": 45.47727272727273,
                "pitch": 67,
                "velocity": 64,
                "duration": 0.16590909090908923,
                "tempo": 120.0
            },
            {
                "start_time": 45.51136363636363,
                "end_time": 45.57727272727273,
                "pitch": 71,
                "velocity": 64,
                "duration": 0.06590909090909491,
                "tempo": 120.0
            },
            {
                "start_time": 45.611363636363635,
                "end_time": 45.67727272727272,
                "pitch": 0,
                "velocity": 64,
                "duration": 0.06590909090908781,
                "tempo": 120.0
            },
            {
                "start_time": 45.711363636363636,
                "end_time": 45.777272727272724,
                "pitch": 67,
                "velocity": 64,
                "duration": 0.06590909090908781,
                "tempo": 120.0
            },
            {
                "start_time": 45.81136363636364,
                "end_time": 45.877272727272725,
                "pitch": 72,
                "velocity": 64,
                "duration": 0.06590909090908781,
                "tempo": 120.0
            },
            {
                "start_time": 45.91136363636363,
                "end_time": 45.97954545454545,
                "pitch": 72,
                "velocity": 64,
                "duration": 0.06818181818182012,
                "tempo": 120.0
            },
            {
                "start_time": 46.01136363636363,
                "end_time": 46.179545454545455,
                "pitch": 67,
                "velocity": 64,
                "duration": 0.16818181818182154,
                "tempo": 120.0
            },
            {
                "start_time": 46.21363636363636,
                "end_time": 46.37954545454545,
                "pitch": 71,
                "velocity": 64,
                "duration": 0.16590909090908923,
                "tempo": 120.0
            },
            {
                "start_time": 46.413636363636364,
                "end_time": 46.57954545454545,
                "pitch": 67,
                "velocity": 64,
                "duration": 0.16590909090908923,
                "tempo": 120.0
            },
            {
                "start_time": 46.61363636363636,
                "end_time": 46.679545454545455,
                "pitch": 0,
                "velocity": 64,
                "duration": 0.06590909090909491,
                "tempo": 120.0
            },
            {
                "start_time": 46.71363636363636,
                "end_time": 46.77954545454545,
                "pitch": 67,
                "velocity": 64,
                "duration": 0.06590909090908781,
                "tempo": 120.0
            },
            {
                "start_time": 46.81363636363636,
                "end_time": 46.87954545454545,
                "pitch": 0,
                "velocity": 64,
                "duration": 0.06590909090908781,
                "tempo": 120.0
            },
            {
                "start_time": 46.913636363636364,
                "end_time": 47.07954545454545,
                "pitch": 67,
                "velocity": 64,
                "duration": 0.16590909090908923,
                "tempo": 120.0
            },
            {
                "start_time": 47.11363636363636,
                "end_time": 47.179545454545455,
                "pitch": 69,
                "velocity": 64,
                "duration": 0.06590909090909491,
                "tempo": 120.0
            },
            {
                "start_time": 47.21363636363636,
                "end_time": 47.27954545454545,
                "pitch": 0,
                "velocity": 64,
                "duration": 0.06590909090908781,
                "tempo": 120.0
            },
            {
                "start_time": 47.31363636363636,
                "end_time": 47.37954545454545,
                "pitch": 71,
                "velocity": 64,
                "duration": 0.06590909090908781,
                "tempo": 120.0
            },
            {
                "start_time": 47.413636363636364,
                "end_time": 47.57954545454545,
                "pitch": 72,
                "velocity": 64,
                "duration": 0.16590909090908923,
                "tempo": 120.0
            },
            {
                "start_time": 47.61363636363636,
                "end_time": 47.77954545454545,
                "pitch": 67,
                "velocity": 64,
                "duration": 0.16590909090908923,
                "tempo": 120.0
            },
            {
                "start_time": 47.81363636363636,
                "end_time": 47.87954545454545,
                "pitch": 72,
                "velocity": 64,
                "duration": 0.06590909090908781,
                "tempo": 120.0
            },
            {
                "start_time": 47.913636363636364,
                "end_time": 47.98181818181818,
                "pitch": 72,
                "velocity": 64,
                "duration": 0.06818181818181301,
                "tempo": 120.0
            },
            {
                "start_time": 48.01363636363636,
                "end_time": 48.08181818181818,
                "pitch": 72,
                "velocity": 64,
                "duration": 0.06818181818182012,
                "tempo": 120.0
            },
            {
                "start_time": 48.11590909090909,
                "end_time": 48.38181818181818,
                "pitch": 0,
                "velocity": 64,
                "duration": 0.26590909090909065,
                "tempo": 120.0
            },
            {
                "start_time": 48.41590909090909,
                "end_time": 48.48181818181818,
                "pitch": 72,
                "velocity": 64,
                "duration": 0.06590909090908781,
                "tempo": 120.0
            },
            {
                "start_time": 48.51590909090909,
                "end_time": 48.58181818181818,
                "pitch": 72,
                "velocity": 64,
                "duration": 0.06590909090908781,
                "tempo": 120.0
            },
            {
                "start_time": 48.61590909090909,
                "end_time": 48.68181818181818,
                "pitch": 72,
                "velocity": 64,
                "duration": 0.06590909090908781,
                "tempo": 120.0
            },
            {
                "start_time": 48.715909090909086,
                "end_time": 49.38181818181818,
                "pitch": 0,
                "velocity": 64,
                "duration": 0.6659090909090963,
                "tempo": 120.0
            },
            {
                "start_time": 49.41590909090909,
                "end_time": 49.58181818181818,
                "pitch": 69,
                "velocity": 64,
                "duration": 0.16590909090908923,
                "tempo": 120.0
            },
            {
                "start_time": 49.615909090909085,
                "end_time": 49.68181818181818,
                "pitch": 72,
                "velocity": 64,
                "duration": 0.06590909090909491,
                "tempo": 120.0
            },
            {
                "start_time": 49.715909090909086,
                "end_time": 49.88409090909091,
                "pitch": 0,
                "velocity": 64,
                "duration": 0.16818181818182154,
                "tempo": 120.0
            },
            {
                "start_time": 49.91590909090909,
                "end_time": 50.084090909090904,
                "pitch": 69,
                "velocity": 64,
                "duration": 0.16818181818181444,
                "tempo": 120.0
            },
            {
                "start_time": 50.11818181818182,
                "end_time": 50.184090909090905,
                "pitch": 71,
                "velocity": 64,
                "duration": 0.06590909090908781,
                "tempo": 120.0
            },
            {
                "start_time": 50.21818181818182,
                "end_time": 50.38409090909091,
                "pitch": 71,
                "velocity": 64,
                "duration": 0.16590909090908923,
                "tempo": 120.0
            },
            {
                "start_time": 50.418181818181814,
                "end_time": 50.48409090909091,
                "pitch": 74,
                "velocity": 64,
                "duration": 0.06590909090909491,
                "tempo": 120.0
            },
            {
                "start_time": 50.518181818181816,
                "end_time": 50.68863636363636,
                "pitch": 0,
                "velocity": 64,
                "duration": 0.17045454545454675,
                "tempo": 120.0
            },
            {
                "start_time": 50.72272727272727,
                "end_time": 50.893181818181816,
                "pitch": 71,
                "velocity": 64,
                "duration": 0.17045454545454675,
                "tempo": 120.0
            },
            {
                "start_time": 50.92727272727272,
                "end_time": 50.99545454545454,
                "pitch": 72,
                "velocity": 64,
                "duration": 0.06818181818182012,
                "tempo": 120.0
            },
            {
                "start_time": 51.027272727272724,
                "end_time": 51.19090909090909,
                "pitch": 72,
                "velocity": 64,
                "duration": 0.16363636363636402,
                "tempo": 120.0
            },
            {
                "start_time": 51.224999999999994,
                "end_time": 51.288636363636364,
                "pitch": 76,
                "velocity": 64,
                "duration": 0.06363636363636971,
                "tempo": 120.0
            },
            {
                "start_time": 51.32272727272727,
                "end_time": 51.490909090909085,
                "pitch": 0,
                "velocity": 64,
                "duration": 0.16818181818181444,
                "tempo": 120.0
            },
            {
                "start_time": 51.525,
                "end_time": 51.695454545454545,
                "pitch": 72,
                "velocity": 64,
                "duration": 0.17045454545454675,
                "tempo": 120.0
            },
            {
                "start_time": 51.72954545454545,
                "end_time": 51.893181818181816,
                "pitch": 72,
                "velocity": 64,
                "duration": 0.16363636363636402,
                "tempo": 120.0
            },
            {
                "start_time": 51.925,
                "end_time": 52.084090909090904,
                "pitch": 76,
                "velocity": 64,
                "duration": 0.1590909090909065,
                "tempo": 120.0
            },
            {
                "start_time": 52.115909090909085,
                "end_time": 52.179545454545455,
                "pitch": 72,
                "velocity": 64,
                "duration": 0.06363636363636971,
                "tempo": 120.0
            },
            {
                "start_time": 52.21363636363636,
                "end_time": 52.38636363636363,
                "pitch": 74,
                "velocity": 64,
                "duration": 0.17272727272727195,
                "tempo": 120.0
            },
            {
                "start_time": 52.42045454545454,
                "end_time": 52.590909090909086,
                "pitch": 76,
                "velocity": 64,
                "duration": 0.17045454545454675,
                "tempo": 120.0
            },
            {
                "start_time": 52.625,
                "end_time": 52.79090909090909,
                "pitch": 69,
                "velocity": 64,
                "duration": 0.16590909090908923,
                "tempo": 120.0
            },
            {
                "start_time": 52.824999999999996,
                "end_time": 52.89090909090909,
                "pitch": 72,
                "velocity": 64,
                "duration": 0.06590909090909491,
                "tempo": 120.0
            },
            {
                "start_time": 52.925,
                "end_time": 53.090909090909086,
                "pitch": 0,
                "velocity": 64,
                "duration": 0.16590909090908923,
                "tempo": 120.0
            },
            {
                "start_time": 53.125,
                "end_time": 53.29090909090909,
                "pitch": 69,
                "velocity": 64,
                "duration": 0.16590909090908923,
                "tempo": 120.0
            },
            {
                "start_time": 53.324999999999996,
                "end_time": 53.39090909090909,
                "pitch": 71,
                "velocity": 64,
                "duration": 0.06590909090909491,
                "tempo": 120.0
            },
            {
                "start_time": 53.425,
                "end_time": 53.590909090909086,
                "pitch": 71,
                "velocity": 64,
                "duration": 0.16590909090908923,
                "tempo": 120.0
            },
            {
                "start_time": 53.625,
                "end_time": 53.69090909090909,
                "pitch": 74,
                "velocity": 64,
                "duration": 0.06590909090908781,
                "tempo": 120.0
            },
            {
                "start_time": 53.724999999999994,
                "end_time": 53.893181818181816,
                "pitch": 0,
                "velocity": 64,
                "duration": 0.16818181818182154,
                "tempo": 120.0
            },
            {
                "start_time": 53.92727272727272,
                "end_time": 54.099999999999994,
                "pitch": 71,
                "velocity": 64,
                "duration": 0.17272727272727195,
                "tempo": 120.0
            },
            {
                "start_time": 54.13409090909091,
                "end_time": 54.20227272727273,
                "pitch": 72,
                "velocity": 64,
                "duration": 0.06818181818182012,
                "tempo": 120.0
            },
            {
                "start_time": 54.23409090909091,
                "end_time": 54.39772727272727,
                "pitch": 72,
                "velocity": 64,
                "duration": 0.16363636363636402,
                "tempo": 120.0
            },
            {
                "start_time": 54.429545454545455,
                "end_time": 54.49545454545454,
                "pitch": 76,
                "velocity": 64,
                "duration": 0.06590909090908781,
                "tempo": 120.0
            },
            {
                "start_time": 54.527272727272724,
                "end_time": 54.69318181818181,
                "pitch": 0,
                "velocity": 64,
                "duration": 0.16590909090908923,
                "tempo": 120.0
            },
            {
                "start_time": 54.72727272727273,
                "end_time": 54.893181818181816,
                "pitch": 72,
                "velocity": 64,
                "duration": 0.16590909090908923,
                "tempo": 120.0
            },
            {
                "start_time": 54.92727272727272,
                "end_time": 55.090909090909086,
                "pitch": 72,
                "velocity": 64,
                "duration": 0.16363636363636402,
                "tempo": 120.0
            },
            {
                "start_time": 55.12272727272727,
                "end_time": 55.28636363636363,
                "pitch": 76,
                "velocity": 64,
                "duration": 0.16363636363636402,
                "tempo": 120.0
            },
            {
                "start_time": 55.320454545454545,
                "end_time": 55.38636363636363,
                "pitch": 72,
                "velocity": 64,
                "duration": 0.06590909090908781,
                "tempo": 120.0
            },
            {
                "start_time": 55.42045454545454,
                "end_time": 55.59772727272727,
                "pitch": 74,
                "velocity": 64,
                "duration": 0.17727272727272947,
                "tempo": 120.0
            },
            {
                "start_time": 55.631818181818176,
                "end_time": 55.80681818181818,
                "pitch": 76,
                "velocity": 64,
                "duration": 0.17500000000000426,
                "tempo": 120.0
            },
            {
                "start_time": 55.83863636363636,
                "end_time": 56.002272727272725,
                "pitch": 69,
                "velocity": 64,
                "duration": 0.16363636363636402,
                "tempo": 120.0
            },
            {
                "start_time": 56.03636363636363,
                "end_time": 56.10227272727273,
                "pitch": 72,
                "velocity": 64,
                "duration": 0.06590909090909491,
                "tempo": 120.0
            },
            {
                "start_time": 56.13409090909091,
                "end_time": 56.3,
                "pitch": 0,
                "velocity": 64,
                "duration": 0.16590909090908923,
                "tempo": 120.0
            },
            {
                "start_time": 56.33181818181818,
                "end_time": 56.5,
                "pitch": 69,
                "velocity": 64,
                "duration": 0.16818181818182154,
                "tempo": 120.0
            },
            {
                "start_time": 56.53181818181818,
                "end_time": 56.599999999999994,
                "pitch": 71,
                "velocity": 64,
                "duration": 0.06818181818181301,
                "tempo": 120.0
            },
            {
                "start_time": 56.63409090909091,
                "end_time": 56.804545454545455,
                "pitch": 71,
                "velocity": 64,
                "duration": 0.17045454545454675,
                "tempo": 120.0
            },
            {
                "start_time": 56.83863636363636,
                "end_time": 56.90681818181818,
                "pitch": 74,
                "velocity": 64,
                "duration": 0.06818181818182012,
                "tempo": 120.0
            },
            {
                "start_time": 56.94318181818181,
                "end_time": 57.111363636363635,
                "pitch": 0,
                "velocity": 64,
                "duration": 0.16818181818182154,
                "tempo": 120.0
            },
            {
                "start_time": 57.143181818181816,
                "end_time": 57.31136363636363,
                "pitch": 71,
                "velocity": 64,
                "duration": 0.16818181818181444,
                "tempo": 120.0
            },
            {
                "start_time": 57.34318181818182,
                "end_time": 57.40909090909091,
                "pitch": 72,
                "velocity": 64,
                "duration": 0.06590909090908781,
                "tempo": 120.0
            },
            {
                "start_time": 57.44318181818181,
                "end_time": 57.60681818181818,
                "pitch": 72,
                "velocity": 64,
                "duration": 0.16363636363636402,
                "tempo": 120.0
            },
            {
                "start_time": 57.63863636363636,
                "end_time": 57.70454545454545,
                "pitch": 76,
                "velocity": 64,
                "duration": 0.06590909090909491,
                "tempo": 120.0
            },
            {
                "start_time": 57.736363636363635,
                "end_time": 57.90454545454545,
                "pitch": 0,
                "velocity": 64,
                "duration": 0.16818181818181444,
                "tempo": 120.0
            },
            {
                "start_time": 57.93636363636363,
                "end_time": 58.10454545454545,
                "pitch": 72,
                "velocity": 64,
                "duration": 0.16818181818182154,
                "tempo": 120.0
            },
            {
                "start_time": 58.13863636363636,
                "end_time": 58.30227272727272,
                "pitch": 72,
                "velocity": 64,
                "duration": 0.16363636363636402,
                "tempo": 120.0
            },
            {
                "start_time": 58.336363636363636,
                "end_time": 58.49772727272727,
                "pitch": 76,
                "velocity": 64,
                "duration": 0.1613636363636317,
                "tempo": 120.0
            },
            {
                "start_time": 58.53181818181818,
                "end_time": 58.59772727272727,
                "pitch": 72,
                "velocity": 64,
                "duration": 0.06590909090908781,
                "tempo": 120.0
            },
            {
                "start_time": 58.631818181818176,
                "end_time": 58.80227272727272,
                "pitch": 74,
                "velocity": 64,
                "duration": 0.17045454545454675,
                "tempo": 120.0
            },
            {
                "start_time": 58.836363636363636,
                "end_time": 59.00909090909091,
                "pitch": 76,
                "velocity": 64,
                "duration": 0.17272727272727195,
                "tempo": 120.0
            },
            {
                "start_time": 59.04090909090909,
                "end_time": 59.209090909090904,
                "pitch": 69,
                "velocity": 64,
                "duration": 0.16818181818181444,
                "tempo": 120.0
            },
            {
                "start_time": 59.240909090909085,
                "end_time": 59.309090909090905,
                "pitch": 72,
                "velocity": 64,
                "duration": 0.06818181818182012,
                "tempo": 120.0
            },
            {
                "start_time": 59.340909090909086,
                "end_time": 59.50909090909091,
                "pitch": 0,
                "velocity": 64,
                "duration": 0.16818181818182154,
                "tempo": 120.0
            },
            {
                "start_time": 59.54090909090909,
                "end_time": 59.709090909090904,
                "pitch": 69,
                "velocity": 64,
                "duration": 0.16818181818181444,
                "tempo": 120.0
            },
            {
                "start_time": 59.740909090909085,
                "end_time": 59.809090909090905,
                "pitch": 71,
                "velocity": 64,
                "duration": 0.06818181818182012,
                "tempo": 120.0
            },
            {
                "start_time": 59.84318181818182,
                "end_time": 60.01363636363636,
                "pitch": 71,
                "velocity": 64,
                "duration": 0.17045454545453964,
                "tempo": 120.0
            },
            {
                "start_time": 60.04772727272727,
                "end_time": 60.115909090909085,
                "pitch": 74,
                "velocity": 64,
                "duration": 0.06818181818181301,
                "tempo": 120.0
            },
            {
                "start_time": 60.15,
                "end_time": 60.31590909090909,
                "pitch": 0,
                "velocity": 64,
                "duration": 0.16590909090908923,
                "tempo": 120.0
            },
            {
                "start_time": 60.349999999999994,
                "end_time": 60.51363636363636,
                "pitch": 71,
                "velocity": 64,
                "duration": 0.16363636363636402,
                "tempo": 120.0
            },
            {
                "start_time": 60.54545454545454,
                "end_time": 60.611363636363635,
                "pitch": 72,
                "velocity": 64,
                "duration": 0.06590909090909491,
                "tempo": 120.0
            },
            {
                "start_time": 60.64545454545454,
                "end_time": 60.81590909090909,
                "pitch": 72,
                "velocity": 64,
                "duration": 0.17045454545454675,
                "tempo": 120.0
            },
            {
                "start_time": 60.849999999999994,
                "end_time": 60.918181818181814,
                "pitch": 76,
                "velocity": 64,
                "duration": 0.06818181818182012,
                "tempo": 120.0
            },
            {
                "start_time": 60.95454545454545,
                "end_time": 61.11818181818182,
                "pitch": 0,
                "velocity": 64,
                "duration": 0.16363636363636402,
                "tempo": 120.0
            },
            {
                "start_time": 61.152272727272724,
                "end_time": 61.31590909090909,
                "pitch": 72,
                "velocity": 64,
                "duration": 0.16363636363636402,
                "tempo": 120.0
            },
            {
                "start_time": 61.34772727272727,
                "end_time": 61.51363636363636,
                "pitch": 72,
                "velocity": 64,
                "duration": 0.16590909090908923,
                "tempo": 120.0
            },
            {
                "start_time": 61.54772727272727,
                "end_time": 61.71363636363636,
                "pitch": 76,
                "velocity": 64,
                "duration": 0.16590909090908923,
                "tempo": 120.0
            },
            {
                "start_time": 61.74772727272727,
                "end_time": 61.81363636363636,
                "pitch": 72,
                "velocity": 64,
                "duration": 0.06590909090909491,
                "tempo": 120.0
            },
            {
                "start_time": 61.84772727272727,
                "end_time": 62.01590909090909,
                "pitch": 74,
                "velocity": 64,
                "duration": 0.16818181818182154,
                "tempo": 120.0
            },
            {
                "start_time": 62.04772727272727,
                "end_time": 62.215909090909086,
                "pitch": 76,
                "velocity": 64,
                "duration": 0.16818181818181444,
                "tempo": 120.0
            },
            {
                "start_time": 62.25,
                "end_time": 62.41590909090909,
                "pitch": 76,
                "velocity": 64,
                "duration": 0.16590909090908923,
                "tempo": 120.0
            },
            {
                "start_time": 62.449999999999996,
                "end_time": 65.425,
                "pitch": 0,
                "velocity": 64,
                "duration": 2.9750000000000014,
                "tempo": 120.0
            },
            {
                "start_time": 65.45681818181818,
                "end_time": 65.725,
                "pitch": 72,
                "velocity": 64,
                "duration": 0.26818181818181586,
                "tempo": 120.0
            },
            {
                "start_time": 65.75681818181818,
                "end_time": 65.825,
                "pitch": 72,
                "velocity": 64,
                "duration": 0.06818181818182723,
                "tempo": 120.0
            },
            {
                "start_time": 65.85909090909091,
                "end_time": 66.02954545454546,
                "pitch": 0,
                "velocity": 64,
                "duration": 0.17045454545454675,
                "tempo": 120.0
            },
            {
                "start_time": 66.06363636363636,
                "end_time": 66.23636363636363,
                "pitch": 72,
                "velocity": 64,
                "duration": 0.17272727272727195,
                "tempo": 120.0
            },
            {
                "start_time": 66.26818181818182,
                "end_time": 66.43636363636364,
                "pitch": 0,
                "velocity": 64,
                "duration": 0.16818181818182154,
                "tempo": 120.0
            },
            {
                "start_time": 66.47045454545454,
                "end_time": 66.53636363636363,
                "pitch": 71,
                "velocity": 64,
                "duration": 0.06590909090908781,
                "tempo": 120.0
            },
            {
                "start_time": 66.57045454545454,
                "end_time": 66.63863636363637,
                "pitch": 0,
                "velocity": 64,
                "duration": 0.06818181818182723,
                "tempo": 120.0
            },
            {
                "start_time": 66.67045454545455,
                "end_time": 66.8340909090909,
                "pitch": 72,
                "velocity": 64,
                "duration": 0.16363636363635692,
                "tempo": 120.0
            },
            {
                "start_time": 66.86590909090908,
                "end_time": 67.02954545454546,
                "pitch": 0,
                "velocity": 64,
                "duration": 0.16363636363637113,
                "tempo": 120.0
            },
            {
                "start_time": 67.06363636363636,
                "end_time": 67.33181818181818,
                "pitch": 72,
                "velocity": 64,
                "duration": 0.26818181818181586,
                "tempo": 120.0
            },
            {
                "start_time": 67.36590909090908,
                "end_time": 67.43409090909091,
                "pitch": 72,
                "velocity": 64,
                "duration": 0.06818181818182723,
                "tempo": 120.0
            },
            {
                "start_time": 67.46818181818182,
                "end_time": 67.63863636363637,
                "pitch": 0,
                "velocity": 64,
                "duration": 0.17045454545454675,
                "tempo": 120.0
            },
            {
                "start_time": 67.67272727272727,
                "end_time": 67.84318181818182,
                "pitch": 72,
                "velocity": 64,
                "duration": 0.17045454545454675,
                "tempo": 120.0
            },
            {
                "start_time": 67.87727272727273,
                "end_time": 68.04318181818182,
                "pitch": 0,
                "velocity": 64,
                "duration": 0.16590909090909634,
                "tempo": 120.0
            },
            {
                "start_time": 68.07727272727273,
                "end_time": 68.14318181818182,
                "pitch": 71,
                "velocity": 64,
                "duration": 0.06590909090908781,
                "tempo": 120.0
            },
            {
                "start_time": 68.17727272727272,
                "end_time": 68.24318181818181,
                "pitch": 0,
                "velocity": 64,
                "duration": 0.06590909090908781,
                "tempo": 120.0
            },
            {
                "start_time": 68.27727272727273,
                "end_time": 68.43863636363636,
                "pitch": 72,
                "velocity": 64,
                "duration": 0.1613636363636317,
                "tempo": 120.0
            },
            {
                "start_time": 68.47272727272727,
                "end_time": 68.63636363636363,
                "pitch": 0,
                "velocity": 64,
                "duration": 0.16363636363635692,
                "tempo": 120.0
            },
            {
                "start_time": 68.67045454545455,
                "end_time": 68.93863636363636,
                "pitch": 72,
                "velocity": 64,
                "duration": 0.26818181818181586,
                "tempo": 120.0
            },
            {
                "start_time": 68.97272727272727,
                "end_time": 69.03863636363636,
                "pitch": 72,
                "velocity": 64,
                "duration": 0.06590909090908781,
                "tempo": 120.0
            },
            {
                "start_time": 69.07272727272726,
                "end_time": 69.24545454545454,
                "pitch": 0,
                "velocity": 64,
                "duration": 0.17272727272727195,
                "tempo": 120.0
            },
            {
                "start_time": 69.27954545454546,
                "end_time": 69.45,
                "pitch": 72,
                "velocity": 64,
                "duration": 0.17045454545454675,
                "tempo": 120.0
            },
            {
                "start_time": 69.48181818181818,
                "end_time": 69.64545454545454,
                "pitch": 0,
                "velocity": 64,
                "duration": 0.16363636363635692,
                "tempo": 120.0
            },
            {
                "start_time": 69.67727272727272,
                "end_time": 69.74318181818181,
                "pitch": 71,
                "velocity": 64,
                "duration": 0.06590909090908781,
                "tempo": 120.0
            },
            {
                "start_time": 69.77499999999999,
                "end_time": 69.8409090909091,
                "pitch": 0,
                "velocity": 64,
                "duration": 0.06590909090910202,
                "tempo": 120.0
            },
            {
                "start_time": 69.875,
                "end_time": 70.04318181818182,
                "pitch": 72,
                "velocity": 64,
                "duration": 0.16818181818182154,
                "tempo": 120.0
            },
            {
                "start_time": 70.07727272727273,
                "end_time": 70.24318181818181,
                "pitch": 0,
                "velocity": 64,
                "duration": 0.16590909090908212,
                "tempo": 120.0
            },
            {
                "start_time": 70.27727272727273,
                "end_time": 70.54318181818182,
                "pitch": 72,
                "velocity": 64,
                "duration": 0.26590909090909065,
                "tempo": 120.0
            },
            {
                "start_time": 70.57727272727273,
                "end_time": 70.64545454545454,
                "pitch": 72,
                "velocity": 64,
                "duration": 0.06818181818181301,
                "tempo": 120.0
            },
            {
                "start_time": 70.67727272727272,
                "end_time": 70.84545454545454,
                "pitch": 0,
                "velocity": 64,
                "duration": 0.16818181818182154,
                "tempo": 120.0
            },
            {
                "start_time": 70.87954545454545,
                "end_time": 71.04772727272727,
                "pitch": 72,
                "velocity": 64,
                "duration": 0.16818181818182154,
                "tempo": 120.0
            },
            {
                "start_time": 71.08181818181818,
                "end_time": 71.25227272727273,
                "pitch": 0,
                "velocity": 64,
                "duration": 0.17045454545454675,
                "tempo": 120.0
            },
            {
                "start_time": 71.28636363636363,
                "end_time": 71.35454545454544,
                "pitch": 71,
                "velocity": 64,
                "duration": 0.06818181818181301,
                "tempo": 120.0
            },
            {
                "start_time": 71.38863636363637,
                "end_time": 71.45681818181818,
                "pitch": 0,
                "velocity": 64,
                "duration": 0.06818181818181301,
                "tempo": 120.0
            },
            {
                "start_time": 71.49090909090908,
                "end_time": 71.65454545454546,
                "pitch": 72,
                "velocity": 64,
                "duration": 0.16363636363637113,
                "tempo": 120.0
            },
            {
                "start_time": 71.68636363636364,
                "end_time": 71.85,
                "pitch": 0,
                "velocity": 64,
                "duration": 0.16363636363635692,
                "tempo": 120.0
            },
            {
                "start_time": 71.8840909090909,
                "end_time": 72.05227272727272,
                "pitch": 72,
                "velocity": 64,
                "duration": 0.16818181818182154,
                "tempo": 120.0
            },
            {
                "start_time": 72.0840909090909,
                "end_time": 72.25227272727273,
                "pitch": 69,
                "velocity": 64,
                "duration": 0.16818181818182154,
                "tempo": 120.0
            },
            {
                "start_time": 72.28636363636363,
                "end_time": 72.35227272727272,
                "pitch": 0,
                "velocity": 64,
                "duration": 0.06590909090908781,
                "tempo": 120.0
            },
            {
                "start_time": 72.38636363636363,
                "end_time": 72.45227272727273,
                "pitch": 69,
                "velocity": 64,
                "duration": 0.06590909090910202,
                "tempo": 120.0
            },
            {
                "start_time": 72.48636363636363,
                "end_time": 72.55227272727272,
                "pitch": 0,
                "velocity": 64,
                "duration": 0.06590909090908781,
                "tempo": 120.0
            },
            {
                "start_time": 72.58636363636363,
                "end_time": 72.75227272727273,
                "pitch": 69,
                "velocity": 64,
                "duration": 0.16590909090909634,
                "tempo": 120.0
            },
            {
                "start_time": 72.78636363636363,
                "end_time": 72.85454545454544,
                "pitch": 72,
                "velocity": 64,
                "duration": 0.06818181818181301,
                "tempo": 120.0
            },
            {
                "start_time": 72.88863636363637,
                "end_time": 72.95454545454545,
                "pitch": 0,
                "velocity": 64,
                "duration": 0.06590909090908781,
                "tempo": 120.0
            },
            {
                "start_time": 72.98863636363636,
                "end_time": 73.05454545454545,
                "pitch": 69,
                "velocity": 64,
                "duration": 0.06590909090908781,
                "tempo": 120.0
            },
            {
                "start_time": 73.08863636363635,
                "end_time": 73.25681818181818,
                "pitch": 71,
                "velocity": 64,
                "duration": 0.16818181818182154,
                "tempo": 120.0
            },
            {
                "start_time": 73.29090909090908,
                "end_time": 73.45681818181818,
                "pitch": 72,
                "velocity": 64,
                "duration": 0.16590909090909634,
                "tempo": 120.0
            },
            {
                "start_time": 73.49090909090908,
                "end_time": 73.65681818181818,
                "pitch": 71,
                "velocity": 64,
                "duration": 0.16590909090909634,
                "tempo": 120.0
            },
            {
                "start_time": 73.69090909090909,
                "end_time": 73.85909090909091,
                "pitch": 67,
                "velocity": 64,
                "duration": 0.16818181818182154,
                "tempo": 120.0
            },
            {
                "start_time": 73.89090909090909,
                "end_time": 73.9590909090909,
                "pitch": 0,
                "velocity": 64,
                "duration": 0.06818181818181301,
                "tempo": 120.0
            },
            {
                "start_time": 73.99318181818181,
                "end_time": 74.05909090909091,
                "pitch": 67,
                "velocity": 64,
                "duration": 0.06590909090910202,
                "tempo": 120.0
            },
            {
                "start_time": 74.09318181818182,
                "end_time": 74.1590909090909,
                "pitch": 0,
                "velocity": 64,
                "duration": 0.06590909090908781,
                "tempo": 120.0
            },
            {
                "start_time": 74.19318181818181,
                "end_time": 74.36136363636363,
                "pitch": 67,
                "velocity": 64,
                "duration": 0.16818181818182154,
                "tempo": 120.0
            },
            {
                "start_time": 74.39318181818182,
                "end_time": 74.46136363636363,
                "pitch": 71,
                "velocity": 64,
                "duration": 0.06818181818181301,
                "tempo": 120.0
            },
            {
                "start_time": 74.49318181818181,
                "end_time": 74.56136363636364,
                "pitch": 0,
                "velocity": 64,
                "duration": 0.06818181818182723,
                "tempo": 120.0
            },
            {
                "start_time": 74.59318181818182,
                "end_time": 74.66136363636363,
                "pitch": 67,
                "velocity": 64,
                "duration": 0.06818181818181301,
                "tempo": 120.0
            },
            {
                "start_time": 74.69318181818181,
                "end_time": 74.76136363636363,
                "pitch": 72,
                "velocity": 64,
                "duration": 0.06818181818181301,
                "tempo": 120.0
            },
            {
                "start_time": 74.79545454545455,
                "end_time": 74.86136363636363,
                "pitch": 72,
                "velocity": 64,
                "duration": 0.06590909090908781,
                "tempo": 120.0
            },
            {
                "start_time": 74.89545454545454,
                "end_time": 75.06363636363636,
                "pitch": 67,
                "velocity": 64,
                "duration": 0.16818181818182154,
                "tempo": 120.0
            },
            {
                "start_time": 75.09772727272727,
                "end_time": 75.26363636363637,
                "pitch": 71,
                "velocity": 64,
                "duration": 0.16590909090909634,
                "tempo": 120.0
            },
            {
                "start_time": 75.29772727272727,
                "end_time": 75.4659090909091,
                "pitch": 67,
                "velocity": 64,
                "duration": 0.16818181818182154,
                "tempo": 120.0
            },
            {
                "start_time": 75.5,
                "end_time": 75.56590909090909,
                "pitch": 0,
                "velocity": 64,
                "duration": 0.06590909090908781,
                "tempo": 120.0
            },
            {
                "start_time": 75.6,
                "end_time": 75.66590909090908,
                "pitch": 67,
                "velocity": 64,
                "duration": 0.06590909090908781,
                "tempo": 120.0
            },
            {
                "start_time": 75.7,
                "end_time": 75.76590909090909,
                "pitch": 0,
                "velocity": 64,
                "duration": 0.06590909090908781,
                "tempo": 120.0
            },
            {
                "start_time": 75.8,
                "end_time": 75.9659090909091,
                "pitch": 67,
                "velocity": 64,
                "duration": 0.16590909090909634,
                "tempo": 120.0
            },
            {
                "start_time": 76.0,
                "end_time": 76.06818181818181,
                "pitch": 69,
                "velocity": 64,
                "duration": 0.06818181818181301,
                "tempo": 120.0
            },
            {
                "start_time": 76.1,
                "end_time": 76.16818181818182,
                "pitch": 0,
                "velocity": 64,
                "duration": 0.06818181818182723,
                "tempo": 120.0
            },
            {
                "start_time": 76.20227272727273,
                "end_time": 76.26818181818182,
                "pitch": 71,
                "velocity": 64,
                "duration": 0.06590909090908781,
                "tempo": 120.0
            },
            {
                "start_time": 76.30227272727272,
                "end_time": 76.46818181818182,
                "pitch": 72,
                "velocity": 64,
                "duration": 0.16590909090909634,
                "tempo": 120.0
            },
            {
                "start_time": 76.50227272727273,
                "end_time": 76.66818181818182,
                "pitch": 67,
                "velocity": 64,
                "duration": 0.16590909090909634,
                "tempo": 120.0
            },
            {
                "start_time": 76.70227272727273,
                "end_time": 76.87045454545454,
                "pitch": 72,
                "velocity": 64,
                "duration": 0.16818181818180733,
                "tempo": 120.0
            },
            {
                "start_time": 76.90454545454546,
                "end_time": 77.07045454545454,
                "pitch": 69,
                "velocity": 64,
                "duration": 0.16590909090908212,
                "tempo": 120.0
            },
            {
                "start_time": 77.10454545454544,
                "end_time": 77.17272727272727,
                "pitch": 0,
                "velocity": 64,
                "duration": 0.06818181818182723,
                "tempo": 120.0
            },
            {
                "start_time": 77.20681818181818,
                "end_time": 77.27272727272727,
                "pitch": 69,
                "velocity": 64,
                "duration": 0.06590909090908781,
                "tempo": 120.0
            },
            {
                "start_time": 77.30681818181817,
                "end_time": 77.37272727272727,
                "pitch": 0,
                "velocity": 64,
                "duration": 0.06590909090910202,
                "tempo": 120.0
            },
            {
                "start_time": 77.40681818181818,
                "end_time": 77.575,
                "pitch": 69,
                "velocity": 64,
                "duration": 0.16818181818182154,
                "tempo": 120.0
            },
            {
                "start_time": 77.60681818181818,
                "end_time": 77.675,
                "pitch": 72,
                "velocity": 64,
                "duration": 0.06818181818181301,
                "tempo": 120.0
            },
            {
                "start_time": 77.70681818181818,
                "end_time": 77.77499999999999,
                "pitch": 0,
                "velocity": 64,
                "duration": 0.06818181818181301,
                "tempo": 120.0
            },
            {
                "start_time": 77.80681818181817,
                "end_time": 77.875,
                "pitch": 69,
                "velocity": 64,
                "duration": 0.06818181818182723,
                "tempo": 120.0
            },
            {
                "start_time": 77.90681818181818,
                "end_time": 77.975,
                "pitch": 71,
                "velocity": 64,
                "duration": 0.06818181818181301,
                "tempo": 120.0
            },
            {
                "start_time": 78.0090909090909,
                "end_time": 78.075,
                "pitch": 71,
                "velocity": 64,
                "duration": 0.06590909090910202,
                "tempo": 120.0
            },
            {
                "start_time": 78.10909090909091,
                "end_time": 78.27727272727272,
                "pitch": 72,
                "velocity": 64,
                "duration": 0.16818181818180733,
                "tempo": 120.0
            },
            {
                "start_time": 78.30909090909091,
                "end_time": 78.47727272727272,
                "pitch": 72,
                "velocity": 64,
                "duration": 0.16818181818180733,
                "tempo": 120.0
            },
            {
                "start_time": 78.5090909090909,
                "end_time": 78.67727272727272,
                "pitch": 69,
                "velocity": 64,
                "duration": 0.16818181818182154,
                "tempo": 120.0
            },
            {
                "start_time": 78.71136363636363,
                "end_time": 78.77727272727272,
                "pitch": 0,
                "velocity": 64,
                "duration": 0.06590909090908781,
                "tempo": 120.0
            },
            {
                "start_time": 78.81136363636364,
                "end_time": 78.87727272727273,
                "pitch": 69,
                "velocity": 64,
                "duration": 0.06590909090908781,
                "tempo": 120.0
            },
            {
                "start_time": 78.91136363636363,
                "end_time": 78.97954545454544,
                "pitch": 0,
                "velocity": 64,
                "duration": 0.06818181818181301,
                "tempo": 120.0
            },
            {
                "start_time": 79.01136363636363,
                "end_time": 79.17954545454545,
                "pitch": 69,
                "velocity": 64,
                "duration": 0.16818181818182154,
                "tempo": 120.0
            },
            {
                "start_time": 79.21363636363635,
                "end_time": 79.28181818181818,
                "pitch": 72,
                "velocity": 64,
                "duration": 0.06818181818182723,
                "tempo": 120.0
            },
            {
                "start_time": 79.31363636363636,
                "end_time": 79.38181818181818,
                "pitch": 0,
                "velocity": 64,
                "duration": 0.06818181818181301,
                "tempo": 120.0
            },
            {
                "start_time": 79.41590909090908,
                "end_time": 79.48181818181818,
                "pitch": 69,
                "velocity": 64,
                "duration": 0.06590909090910202,
                "tempo": 120.0
            },
            {
                "start_time": 79.51590909090909,
                "end_time": 79.68181818181817,
                "pitch": 71,
                "velocity": 64,
                "duration": 0.16590909090908212,
                "tempo": 120.0
            },
            {
                "start_time": 79.7159090909091,
                "end_time": 79.88181818181818,
                "pitch": 72,
                "velocity": 64,
                "duration": 0.16590909090908212,
                "tempo": 120.0
            },
            {
                "start_time": 79.91590909090908,
                "end_time": 80.0840909090909,
                "pitch": 71,
                "velocity": 64,
                "duration": 0.16818181818182154,
                "tempo": 120.0
            },
            {
                "start_time": 80.11818181818181,
                "end_time": 80.2840909090909,
                "pitch": 67,
                "velocity": 64,
                "duration": 0.16590909090909634,
                "tempo": 120.0
            },
            {
                "start_time": 80.31818181818181,
                "end_time": 80.3840909090909,
                "pitch": 0,
                "velocity": 64,
                "duration": 0.06590909090908781,
                "tempo": 120.0
            },
            {
                "start_time": 80.41818181818181,
                "end_time": 80.48409090909091,
                "pitch": 67,
                "velocity": 64,
                "duration": 0.06590909090910202,
                "tempo": 120.0
            },
            {
                "start_time": 80.51818181818182,
                "end_time": 80.5840909090909,
                "pitch": 0,
                "velocity": 64,
                "duration": 0.06590909090908781,
                "tempo": 120.0
            },
            {
                "start_time": 80.61818181818181,
                "end_time": 80.78636363636363,
                "pitch": 67,
                "velocity": 64,
                "duration": 0.16818181818182154,
                "tempo": 120.0
            },
            {
                "start_time": 80.81818181818181,
                "end_time": 80.88636363636363,
                "pitch": 71,
                "velocity": 64,
                "duration": 0.06818181818181301,
                "tempo": 120.0
            },
            {
                "start_time": 80.92045454545455,
                "end_time": 80.98636363636363,
                "pitch": 0,
                "velocity": 64,
                "duration": 0.06590909090908781,
                "tempo": 120.0
            },
            {
                "start_time": 81.02045454545454,
                "end_time": 81.08863636363635,
                "pitch": 67,
                "velocity": 64,
                "duration": 0.06818181818181301,
                "tempo": 120.0
            },
            {
                "start_time": 81.12045454545454,
                "end_time": 81.18863636363636,
                "pitch": 72,
                "velocity": 64,
                "duration": 0.06818181818182723,
                "tempo": 120.0
            },
            {
                "start_time": 81.22272727272727,
                "end_time": 81.28863636363636,
                "pitch": 72,
                "velocity": 64,
                "duration": 0.06590909090908781,
                "tempo": 120.0
            },
            {
                "start_time": 81.32272727272726,
                "end_time": 81.49090909090908,
                "pitch": 67,
                "velocity": 64,
                "duration": 0.16818181818182154,
                "tempo": 120.0
            },
            {
                "start_time": 81.52272727272727,
                "end_time": 81.69090909090909,
                "pitch": 71,
                "velocity": 64,
                "duration": 0.16818181818182154,
                "tempo": 120.0
            },
            {
                "start_time": 81.72272727272727,
                "end_time": 81.89090909090909,
                "pitch": 67,
                "velocity": 64,
                "duration": 0.16818181818182154,
                "tempo": 120.0
            },
            {
                "start_time": 81.92272727272727,
                "end_time": 81.99090909090908,
                "pitch": 0,
                "velocity": 64,
                "duration": 0.06818181818181301,
                "tempo": 120.0
            },
            {
                "start_time": 82.02499999999999,
                "end_time": 82.0909090909091,
                "pitch": 67,
                "velocity": 64,
                "duration": 0.06590909090910202,
                "tempo": 120.0
            },
            {
                "start_time": 82.125,
                "end_time": 82.19318181818181,
                "pitch": 0,
                "velocity": 64,
                "duration": 0.06818181818181301,
                "tempo": 120.0
            },
            {
                "start_time": 82.225,
                "end_time": 82.39318181818182,
                "pitch": 67,
                "velocity": 64,
                "duration": 0.16818181818182154,
                "tempo": 120.0
            },
            {
                "start_time": 82.42727272727272,
                "end_time": 82.49318181818181,
                "pitch": 69,
                "velocity": 64,
                "duration": 0.06590909090908781,
                "tempo": 120.0
            },
            {
                "start_time": 82.52727272727272,
                "end_time": 82.59318181818182,
                "pitch": 0,
                "velocity": 64,
                "duration": 0.06590909090910202,
                "tempo": 120.0
            },
            {
                "start_time": 82.62727272727273,
                "end_time": 82.69318181818181,
                "pitch": 71,
                "velocity": 64,
                "duration": 0.06590909090908781,
                "tempo": 120.0
            },
            {
                "start_time": 82.72727272727272,
                "end_time": 82.89318181818182,
                "pitch": 72,
                "velocity": 64,
                "duration": 0.16590909090909634,
                "tempo": 120.0
            },
            {
                "start_time": 82.92727272727272,
                "end_time": 83.09545454545454,
                "pitch": 67,
                "velocity": 64,
                "duration": 0.16818181818182154,
                "tempo": 120.0
            },
            {
                "start_time": 83.12954545454545,
                "end_time": 83.19545454545454,
                "pitch": 72,
                "velocity": 64,
                "duration": 0.06590909090908781,
                "tempo": 120.0
            },
            {
                "start_time": 83.22954545454544,
                "end_time": 83.29772727272727,
                "pitch": 72,
                "velocity": 64,
                "duration": 0.06818181818182723,
                "tempo": 120.0
            },
            {
                "start_time": 83.32954545454545,
                "end_time": 83.39772727272727,
                "pitch": 72,
                "velocity": 64,
                "duration": 0.06818181818181301,
                "tempo": 120.0
            },
            {
                "start_time": 83.43181818181817,
                "end_time": 83.69772727272726,
                "pitch": 0,
                "velocity": 64,
                "duration": 0.26590909090909065,
                "tempo": 120.0
            },
            {
                "start_time": 83.73181818181818,
                "end_time": 83.79772727272727,
                "pitch": 72,
                "velocity": 64,
                "duration": 0.06590909090908781,
                "tempo": 120.0
            },
            {
                "start_time": 83.83181818181818,
                "end_time": 83.89772727272727,
                "pitch": 72,
                "velocity": 64,
                "duration": 0.06590909090908781,
                "tempo": 120.0
            },
            {
                "start_time": 83.93181818181817,
                "end_time": 84.0,
                "pitch": 72,
                "velocity": 64,
                "duration": 0.06818181818182723,
                "tempo": 120.0
            },
            {
                "start_time": 84.03181818181818,
                "end_time": 84.7,
                "pitch": 0,
                "velocity": 64,
                "duration": 0.6681818181818215,
                "tempo": 120.0
            },
            {
                "start_time": 84.73409090909091,
                "end_time": 84.90227272727272,
                "pitch": 69,
                "velocity": 64,
                "duration": 0.16818181818180733,
                "tempo": 120.0
            },
            {
                "start_time": 84.93636363636364,
                "end_time": 85.00227272727273,
                "pitch": 72,
                "velocity": 64,
                "duration": 0.06590909090908781,
                "tempo": 120.0
            },
            {
                "start_time": 85.03636363636363,
                "end_time": 85.20454545454545,
                "pitch": 0,
                "velocity": 64,
                "duration": 0.16818181818182154,
                "tempo": 120.0
            },
            {
                "start_time": 85.23863636363636,
                "end_time": 85.40681818181818,
                "pitch": 69,
                "velocity": 64,
                "duration": 0.16818181818182154,
                "tempo": 120.0
            },
            {
                "start_time": 85.43863636363636,
                "end_time": 85.50681818181818,
                "pitch": 71,
                "velocity": 64,
                "duration": 0.06818181818181301,
                "tempo": 120.0
            },
            {
                "start_time": 85.53863636363636,
                "end_time": 85.70681818181818,
                "pitch": 71,
                "velocity": 64,
                "duration": 0.16818181818182154,
                "tempo": 120.0
            },
            {
                "start_time": 85.73863636363636,
                "end_time": 85.80681818181817,
                "pitch": 74,
                "velocity": 64,
                "duration": 0.06818181818181301,
                "tempo": 120.0
            },
            {
                "start_time": 85.83863636363635,
                "end_time": 86.0090909090909,
                "pitch": 0,
                "velocity": 64,
                "duration": 0.17045454545454675,
                "tempo": 120.0
            },
            {
                "start_time": 86.04318181818181,
                "end_time": 86.21363636363635,
                "pitch": 71,
                "velocity": 64,
                "duration": 0.17045454545454675,
                "tempo": 120.0
            },
            {
                "start_time": 86.25,
                "end_time": 86.31590909090909,
                "pitch": 72,
                "velocity": 64,
                "duration": 0.06590909090908781,
                "tempo": 120.0
            },
            {
                "start_time": 86.35,
                "end_time": 86.51363636363637,
                "pitch": 72,
                "velocity": 64,
                "duration": 0.16363636363637113,
                "tempo": 120.0
            },
            {
                "start_time": 86.54545454545455,
                "end_time": 86.61136363636363,
                "pitch": 76,
                "velocity": 64,
                "duration": 0.06590909090908781,
                "tempo": 120.0
            },
            {
                "start_time": 86.64318181818182,
                "end_time": 86.81136363636364,
                "pitch": 0,
                "velocity": 64,
                "duration": 0.16818181818182154,
                "tempo": 120.0
            },
            {
                "start_time": 86.84545454545454,
                "end_time": 87.01818181818182,
                "pitch": 72,
                "velocity": 64,
                "duration": 0.17272727272727195,
                "tempo": 120.0
            },
            {
                "start_time": 87.05227272727272,
                "end_time": 87.21363636363635,
                "pitch": 72,
                "velocity": 64,
                "duration": 0.1613636363636317,
                "tempo": 120.0
            },
            {
                "start_time": 87.24545454545454,
                "end_time": 87.40454545454546,
                "pitch": 76,
                "velocity": 64,
                "duration": 0.15909090909092072,
                "tempo": 120.0
            },
            {
                "start_time": 87.43636363636364,
                "end_time": 87.5,
                "pitch": 72,
                "velocity": 64,
                "duration": 0.0636363636363626,
                "tempo": 120.0
            },
            {
                "start_time": 87.53636363636363,
                "end_time": 87.71136363636363,
                "pitch": 74,
                "velocity": 64,
                "duration": 0.17499999999999716,
                "tempo": 120.0
            },
            {
                "start_time": 87.74772727272727,
                "end_time": 87.92272727272727,
                "pitch": 76,
                "velocity": 64,
                "duration": 0.17499999999999716,
                "tempo": 120.0
            },
            {
                "start_time": 87.95454545454545,
                "end_time": 88.11818181818181,
                "pitch": 69,
                "velocity": 64,
                "duration": 0.16363636363635692,
                "tempo": 120.0
            },
            {
                "start_time": 88.14999999999999,
                "end_time": 88.2159090909091,
                "pitch": 72,
                "velocity": 64,
                "duration": 0.06590909090910202,
                "tempo": 120.0
            },
            {
                "start_time": 88.25,
                "end_time": 88.41363636363636,
                "pitch": 0,
                "velocity": 64,
                "duration": 0.16363636363635692,
                "tempo": 120.0
            },
            {
                "start_time": 88.44772727272726,
                "end_time": 88.61363636363636,
                "pitch": 69,
                "velocity": 64,
                "duration": 0.16590909090909634,
                "tempo": 120.0
            },
            {
                "start_time": 88.64772727272727,
                "end_time": 88.7159090909091,
                "pitch": 71,
                "velocity": 64,
                "duration": 0.06818181818182723,
                "tempo": 120.0
            },
            {
                "start_time": 88.74772727272727,
                "end_time": 88.91590909090908,
                "pitch": 71,
                "velocity": 64,
                "duration": 0.16818181818180733,
                "tempo": 120.0
            },
            {
                "start_time": 88.94999999999999,
                "end_time": 89.01590909090909,
                "pitch": 74,
                "velocity": 64,
                "duration": 0.06590909090910202,
                "tempo": 120.0
            },
            {
                "start_time": 89.05,
                "end_time": 89.22045454545454,
                "pitch": 0,
                "velocity": 64,
                "duration": 0.17045454545454675,
                "tempo": 120.0
            },
            {
                "start_time": 89.25454545454545,
                "end_time": 89.425,
                "pitch": 71,
                "velocity": 64,
                "duration": 0.17045454545454675,
                "tempo": 120.0
            },
            {
                "start_time": 89.4590909090909,
                "end_time": 89.52727272727272,
                "pitch": 72,
                "velocity": 64,
                "duration": 0.06818181818181301,
                "tempo": 120.0
            },
            {
                "start_time": 89.56136363636364,
                "end_time": 89.725,
                "pitch": 72,
                "velocity": 64,
                "duration": 0.16363636363635692,
                "tempo": 120.0
            },
            {
                "start_time": 89.75681818181818,
                "end_time": 89.82272727272726,
                "pitch": 76,
                "velocity": 64,
                "duration": 0.06590909090908781,
                "tempo": 120.0
            },
            {
                "start_time": 89.85454545454544,
                "end_time": 90.02045454545454,
                "pitch": 0,
                "velocity": 64,
                "duration": 0.16590909090909634,
                "tempo": 120.0
            },
            {
                "start_time": 90.05454545454545,
                "end_time": 90.22272727272727,
                "pitch": 72,
                "velocity": 64,
                "duration": 0.16818181818182154,
                "tempo": 120.0
            },
            {
                "start_time": 90.25681818181818,
                "end_time": 90.42045454545455,
                "pitch": 72,
                "velocity": 64,
                "duration": 0.16363636363637113,
                "tempo": 120.0
            },
            {
                "start_time": 90.45227272727273,
                "end_time": 90.61590909090908,
                "pitch": 76,
                "velocity": 64,
                "duration": 0.16363636363635692,
                "tempo": 120.0
            },
            {
                "start_time": 90.64999999999999,
                "end_time": 90.7159090909091,
                "pitch": 72,
                "velocity": 64,
                "duration": 0.06590909090910202,
                "tempo": 120.0
            },
            {
                "start_time": 90.75,
                "end_time": 90.92727272727272,
                "pitch": 74,
                "velocity": 64,
                "duration": 0.17727272727272236,
                "tempo": 120.0
            },
            {
                "start_time": 90.96136363636363,
                "end_time": 91.13636363636363,
                "pitch": 76,
                "velocity": 64,
                "duration": 0.17499999999999716,
                "tempo": 120.0
            },
            {
                "start_time": 91.16818181818181,
                "end_time": 91.33181818181818,
                "pitch": 69,
                "velocity": 64,
                "duration": 0.16363636363637113,
                "tempo": 120.0
            },
            {
                "start_time": 91.36590909090908,
                "end_time": 91.42954545454545,
                "pitch": 72,
                "velocity": 64,
                "duration": 0.0636363636363626,
                "tempo": 120.0
            },
            {
                "start_time": 91.46363636363635,
                "end_time": 91.62954545454545,
                "pitch": 0,
                "velocity": 64,
                "duration": 0.16590909090909634,
                "tempo": 120.0
            },
            {
                "start_time": 91.66136363636363,
                "end_time": 91.82954545454545,
                "pitch": 69,
                "velocity": 64,
                "duration": 0.16818181818182154,
                "tempo": 120.0
            },
            {
                "start_time": 91.86136363636363,
                "end_time": 91.92954545454545,
                "pitch": 71,
                "velocity": 64,
                "duration": 0.06818181818181301,
                "tempo": 120.0
            },
            {
                "start_time": 91.96136363636363,
                "end_time": 92.12954545454545,
                "pitch": 71,
                "velocity": 64,
                "duration": 0.16818181818182154,
                "tempo": 120.0
            },
            {
                "start_time": 92.16363636363636,
                "end_time": 92.23181818181818,
                "pitch": 74,
                "velocity": 64,
                "duration": 0.06818181818182723,
                "tempo": 120.0
            },
            {
                "start_time": 92.26363636363637,
                "end_time": 92.43181818181817,
                "pitch": 0,
                "velocity": 64,
                "duration": 0.16818181818180733,
                "tempo": 120.0
            },
            {
                "start_time": 92.4659090909091,
                "end_time": 92.63181818181818,
                "pitch": 71,
                "velocity": 64,
                "duration": 0.16590909090908212,
                "tempo": 120.0
            },
            {
                "start_time": 92.66590909090908,
                "end_time": 92.73181818181818,
                "pitch": 72,
                "velocity": 64,
                "duration": 0.06590909090910202,
                "tempo": 120.0
            },
            {
                "start_time": 92.76590909090909,
                "end_time": 92.9340909090909,
                "pitch": 72,
                "velocity": 64,
                "duration": 0.16818181818180733,
                "tempo": 120.0
            },
            {
                "start_time": 92.9659090909091,
                "end_time": 93.0340909090909,
                "pitch": 76,
                "velocity": 64,
                "duration": 0.06818181818181301,
                "tempo": 120.0
            },
            {
                "start_time": 93.06818181818181,
                "end_time": 93.23409090909091,
                "pitch": 0,
                "velocity": 64,
                "duration": 0.16590909090909634,
                "tempo": 120.0
            },
            {
                "start_time": 93.26818181818182,
                "end_time": 93.43636363636364,
                "pitch": 72,
                "velocity": 64,
                "duration": 0.16818181818182154,
                "tempo": 120.0
            },
            {
                "start_time": 93.47045454545454,
                "end_time": 93.6340909090909,
                "pitch": 72,
                "velocity": 64,
                "duration": 0.16363636363635692,
                "tempo": 120.0
            },
            {
                "start_time": 93.66590909090908,
                "end_time": 93.82954545454545,
                "pitch": 76,
                "velocity": 64,
                "duration": 0.16363636363637113,
                "tempo": 120.0
            },
            {
                "start_time": 93.86363636363636,
                "end_time": 93.92954545454545,
                "pitch": 72,
                "velocity": 64,
                "duration": 0.06590909090908781,
                "tempo": 120.0
            },
            {
                "start_time": 93.96363636363635,
                "end_time": 94.14090909090909,
                "pitch": 74,
                "velocity": 64,
                "duration": 0.17727272727273657,
                "tempo": 120.0
            },
            {
                "start_time": 94.175,
                "end_time": 94.35,
                "pitch": 76,
                "velocity": 64,
                "duration": 0.17499999999999716,
                "tempo": 120.0
            },
            {
                "start_time": 94.38181818181818,
                "end_time": 94.54545454545455,
                "pitch": 69,
                "velocity": 64,
                "duration": 0.16363636363637113,
                "tempo": 120.0
            },
            {
                "start_time": 94.57954545454545,
                "end_time": 94.64545454545454,
                "pitch": 72,
                "velocity": 64,
                "duration": 0.06590909090908781,
                "tempo": 120.0
            },
            {
                "start_time": 94.67727272727272,
                "end_time": 94.84318181818182,
                "pitch": 0,
                "velocity": 64,
                "duration": 0.16590909090909634,
                "tempo": 120.0
            },
            {
                "start_time": 94.87727272727273,
                "end_time": 95.04545454545455,
                "pitch": 69,
                "velocity": 64,
                "duration": 0.16818181818182154,
                "tempo": 120.0
            },
            {
                "start_time": 95.07727272727273,
                "end_time": 95.14545454545454,
                "pitch": 71,
                "velocity": 64,
                "duration": 0.06818181818181301,
                "tempo": 120.0
            },
            {
                "start_time": 95.17954545454545,
                "end_time": 95.34772727272727,
                "pitch": 71,
                "velocity": 64,
                "duration": 0.16818181818182154,
                "tempo": 120.0
            },
            {
                "start_time": 95.37954545454545,
                "end_time": 95.44772727272726,
                "pitch": 74,
                "velocity": 64,
                "duration": 0.06818181818181301,
                "tempo": 120.0
            },
            {
                "start_time": 95.48181818181818,
                "end_time": 95.64772727272727,
                "pitch": 0,
                "velocity": 64,
                "duration": 0.16590909090908212,
                "tempo": 120.0
            },
            {
                "start_time": 95.68181818181817,
                "end_time": 95.84772727272727,
                "pitch": 71,
                "velocity": 64,
                "duration": 0.16590909090909634,
                "tempo": 120.0
            },
            {
                "start_time": 95.88181818181818,
                "end_time": 95.94772727272726,
                "pitch": 72,
                "velocity": 64,
                "duration": 0.06590909090908781,
                "tempo": 120.0
            },
            {
                "start_time": 95.97954545454544,
                "end_time": 96.14318181818182,
                "pitch": 72,
                "velocity": 64,
                "duration": 0.16363636363637113,
                "tempo": 120.0
            },
            {
                "start_time": 96.17727272727272,
                "end_time": 96.24090909090908,
                "pitch": 76,
                "velocity": 64,
                "duration": 0.0636363636363626,
                "tempo": 120.0
            },
            {
                "start_time": 96.27499999999999,
                "end_time": 96.44318181818181,
                "pitch": 0,
                "velocity": 64,
                "duration": 0.16818181818182154,
                "tempo": 120.0
            },
            {
                "start_time": 96.47727272727272,
                "end_time": 96.64772727272727,
                "pitch": 72,
                "velocity": 64,
                "duration": 0.17045454545454675,
                "tempo": 120.0
            },
            {
                "start_time": 96.6840909090909,
                "end_time": 96.85227272727272,
                "pitch": 72,
                "velocity": 64,
                "duration": 0.16818181818182154,
                "tempo": 120.0
            },
            {
                "start_time": 96.88636363636363,
                "end_time": 97.05227272727272,
                "pitch": 76,
                "velocity": 64,
                "duration": 0.16590909090909634,
                "tempo": 120.0
            },
            {
                "start_time": 97.08636363636363,
                "end_time": 97.15454545454546,
                "pitch": 72,
                "velocity": 64,
                "duration": 0.06818181818182723,
                "tempo": 120.0
            },
            {
                "start_time": 97.18636363636364,
                "end_time": 97.35454545454544,
                "pitch": 74,
                "velocity": 64,
                "duration": 0.16818181818180733,
                "tempo": 120.0
            },
            {
                "start_time": 97.38863636363637,
                "end_time": 97.55681818181817,
                "pitch": 76,
                "velocity": 64,
                "duration": 0.16818181818180733,
                "tempo": 120.0
            },
            {
                "start_time": 97.58863636363635,
                "end_time": 97.75681818181818,
                "pitch": 76,
                "velocity": 64,
                "duration": 0.16818181818182154,
                "tempo": 120.0
            },
            {
                "start_time": 97.78863636363636,
                "end_time": 100.76590909090909,
                "pitch": 0,
                "velocity": 64,
                "duration": 2.9772727272727337,
                "tempo": 120.0
            },
            {
                "start_time": 100.8,
                "end_time": 100.86363636363636,
                "pitch": 0,
                "velocity": 64,
                "duration": 0.0636363636363626,
                "tempo": 120.0
            },
            {
                "start_time": 100.89772727272727,
                "end_time": 100.96363636363635,
                "pitch": 57,
                "velocity": 64,
                "duration": 0.06590909090908781,
                "tempo": 120.0
            },
            {
                "start_time": 100.99545454545454,
                "end_time": 101.06136363636364,
                "pitch": 0,
                "velocity": 64,
                "duration": 0.06590909090910202,
                "tempo": 120.0
            },
            {
                "start_time": 101.09318181818182,
                "end_time": 101.15454545454546,
                "pitch": 60,
                "velocity": 64,
                "duration": 0.0613636363636374,
                "tempo": 120.0
            },
            {
                "start_time": 101.18636363636364,
                "end_time": 101.24772727272727,
                "pitch": 0,
                "velocity": 64,
                "duration": 0.0613636363636374,
                "tempo": 120.0
            },
            {
                "start_time": 101.27954545454546,
                "end_time": 101.34090909090908,
                "pitch": 62,
                "velocity": 64,
                "duration": 0.061363636363623186,
                "tempo": 120.0
            },
            {
                "start_time": 101.37272727272727,
                "end_time": 101.4340909090909,
                "pitch": 0,
                "velocity": 64,
                "duration": 0.061363636363623186,
                "tempo": 120.0
            },
            {
                "start_time": 101.46363636363635,
                "end_time": 101.52954545454546,
                "pitch": 64,
                "velocity": 64,
                "duration": 0.06590909090910202,
                "tempo": 120.0
            },
            {
                "start_time": 101.56363636363636,
                "end_time": 101.63181818181818,
                "pitch": 0,
                "velocity": 64,
                "duration": 0.06818181818181301,
                "tempo": 120.0
            },
            {
                "start_time": 101.66590909090908,
                "end_time": 101.73181818181817,
                "pitch": 62,
                "velocity": 64,
                "duration": 0.06590909090908781,
                "tempo": 120.0
            },
            {
                "start_time": 101.76590909090909,
                "end_time": 101.83181818181818,
                "pitch": 0,
                "velocity": 64,
                "duration": 0.06590909090908781,
                "tempo": 120.0
            },
            {
                "start_time": 101.86590909090908,
                "end_time": 101.92954545454545,
                "pitch": 64,
                "velocity": 64,
                "duration": 0.0636363636363626,
                "tempo": 120.0
            },
            {
                "start_time": 101.96136363636363,
                "end_time": 102.02499999999999,
                "pitch": 0,
                "velocity": 64,
                "duration": 0.0636363636363626,
                "tempo": 120.0
            },
            {
                "start_time": 102.05681818181817,
                "end_time": 102.12045454545454,
                "pitch": 67,
                "velocity": 64,
                "duration": 0.0636363636363626,
                "tempo": 120.0
            },
            {
                "start_time": 102.15227272727272,
                "end_time": 102.21590909090908,
                "pitch": 0,
                "velocity": 64,
                "duration": 0.0636363636363626,
                "tempo": 120.0
            },
            {
                "start_time": 102.24545454545454,
                "end_time": 102.30454545454545,
                "pitch": 69,
                "velocity": 64,
                "duration": 0.05909090909091219,
                "tempo": 120.0
            },
            {
                "start_time": 102.33636363636363,
                "end_time": 102.39545454545454,
                "pitch": 0,
                "velocity": 64,
                "duration": 0.05909090909091219,
                "tempo": 120.0
            },
            {
                "start_time": 102.425,
                "end_time": 102.48636363636363,
                "pitch": 69,
                "velocity": 64,
                "duration": 0.0613636363636374,
                "tempo": 120.0
            },
            {
                "start_time": 102.51590909090909,
                "end_time": 102.57727272727273,
                "pitch": 0,
                "velocity": 64,
                "duration": 0.0613636363636374,
                "tempo": 120.0
            },
            {
                "start_time": 102.61136363636363,
                "end_time": 102.67954545454545,
                "pitch": 72,
                "velocity": 64,
                "duration": 0.06818181818181301,
                "tempo": 120.0
            },
            {
                "start_time": 102.71363636363635,
                "end_time": 102.77954545454546,
                "pitch": 0,
                "velocity": 64,
                "duration": 0.06590909090910202,
                "tempo": 120.0
            },
            {
                "start_time": 102.81363636363636,
                "end_time": 102.87954545454545,
                "pitch": 74,
                "velocity": 64,
                "duration": 0.06590909090908781,
                "tempo": 120.0
            },
            {
                "start_time": 102.91363636363636,
                "end_time": 102.98181818181817,
                "pitch": 0,
                "velocity": 64,
                "duration": 0.06818181818181301,
                "tempo": 120.0
            },
            {
                "start_time": 103.01363636363637,
                "end_time": 103.08181818181818,
                "pitch": 76,
                "velocity": 64,
                "duration": 0.06818181818181301,
                "tempo": 120.0
            },
            {
                "start_time": 103.11363636363636,
                "end_time": 103.18181818181817,
                "pitch": 0,
                "velocity": 64,
                "duration": 0.06818181818181301,
                "tempo": 120.0
            },
            {
                "start_time": 103.21363636363635,
                "end_time": 103.28181818181818,
                "pitch": 79,
                "velocity": 64,
                "duration": 0.06818181818182723,
                "tempo": 120.0
            },
            {
                "start_time": 103.31363636363636,
                "end_time": 103.37954545454545,
                "pitch": 0,
                "velocity": 64,
                "duration": 0.06590909090908781,
                "tempo": 120.0
            },
            {
                "start_time": 103.41363636363636,
                "end_time": 103.47727272727272,
                "pitch": 80,
                "velocity": 64,
                "duration": 0.0636363636363626,
                "tempo": 120.0
            },
            {
                "start_time": 103.51136363636363,
                "end_time": 103.57727272727273,
                "pitch": 0,
                "velocity": 64,
                "duration": 0.06590909090910202,
                "tempo": 120.0
            },
            {
                "start_time": 103.60909090909091,
                "end_time": 105.08636363636363,
                "pitch": 81,
                "velocity": 64,
                "duration": 1.4772727272727195,
                "tempo": 120.0
            },
            {
                "start_time": 105.12045454545454,
                "end_time": 105.59318181818182,
                "pitch": 0,
                "velocity": 64,
                "duration": 0.4727272727272833,
                "tempo": 120.0
            },
            {
                "start_time": 105.62727272727273,
                "end_time": 105.69545454545454,
                "pitch": 84,
                "velocity": 64,
                "duration": 0.06818181818181301,
                "tempo": 120.0
            },
            {
                "start_time": 105.72954545454544,
                "end_time": 105.79772727272727,
                "pitch": 0,
                "velocity": 64,
                "duration": 0.06818181818182723,
                "tempo": 120.0
            },
            {
                "start_time": 105.83181818181818,
                "end_time": 105.90681818181818,
                "pitch": 84,
                "velocity": 64,
                "duration": 0.07500000000000284,
                "tempo": 120.0
            },
            {
                "start_time": 105.94318181818181,
                "end_time": 106.23636363636363,
                "pitch": 0,
                "velocity": 64,
                "duration": 0.29318181818182154,
                "tempo": 120.0
            },
            {
                "start_time": 106.27272727272727,
                "end_time": 106.34318181818182,
                "pitch": 86,
                "velocity": 64,
                "duration": 0.07045454545455243,
                "tempo": 120.0
            },
            {
                "start_time": 106.37727272727273,
                "end_time": 106.44545454545454,
                "pitch": 0,
                "velocity": 64,
                "duration": 0.06818181818181301,
                "tempo": 120.0
            },
            {
                "start_time": 106.47954545454544,
                "end_time": 106.54772727272727,
                "pitch": 86,
                "velocity": 64,
                "duration": 0.06818181818182723,
                "tempo": 120.0
            },
            {
                "start_time": 106.58181818181818,
                "end_time": 107.28636363636363,
                "pitch": 0,
                "velocity": 64,
                "duration": 0.7045454545454533,
                "tempo": 120.0
            },
            {
                "start_time": 107.31818181818181,
                "end_time": 107.38636363636363,
                "pitch": 86,
                "velocity": 64,
                "duration": 0.06818181818181301,
                "tempo": 120.0
            },
            {
                "start_time": 107.42045454545455,
                "end_time": 107.48636363636363,
                "pitch": 0,
                "velocity": 64,
                "duration": 0.06590909090908781,
                "tempo": 120.0
            },
            {
                "start_time": 107.52045454545454,
                "end_time": 107.58863636363635,
                "pitch": 86,
                "velocity": 64,
                "duration": 0.06818181818181301,
                "tempo": 120.0
            },
            {
                "start_time": 107.62272727272726,
                "end_time": 107.90454545454546,
                "pitch": 0,
                "velocity": 64,
                "duration": 0.2818181818181955,
                "tempo": 120.0
            },
            {
                "start_time": 107.94090909090909,
                "end_time": 108.0090909090909,
                "pitch": 88,
                "velocity": 64,
                "duration": 0.06818181818181301,
                "tempo": 120.0
            },
            {
                "start_time": 108.04318181818181,
                "end_time": 108.10909090909091,
                "pitch": 0,
                "velocity": 64,
                "duration": 0.06590909090910202,
                "tempo": 120.0
            },
            {
                "start_time": 108.14318181818182,
                "end_time": 108.2090909090909,
                "pitch": 88,
                "velocity": 64,
                "duration": 0.06590909090908781,
                "tempo": 120.0
            },
            {
                "start_time": 108.24318181818181,
                "end_time": 108.89999999999999,
                "pitch": 0,
                "velocity": 64,
                "duration": 0.6568181818181813,
                "tempo": 120.0
            },
            {
                "start_time": 108.93181818181817,
                "end_time": 108.99772727272726,
                "pitch": 84,
                "velocity": 64,
                "duration": 0.06590909090908781,
                "tempo": 120.0
            },
            {
                "start_time": 109.02954545454546,
                "end_time": 109.09545454545454,
                "pitch": 0,
                "velocity": 64,
                "duration": 0.06590909090908781,
                "tempo": 120.0
            },
            {
                "start_time": 109.12954545454545,
                "end_time": 109.19545454545454,
                "pitch": 84,
                "velocity": 64,
                "duration": 0.06590909090908781,
                "tempo": 120.0
            },
            {
                "start_time": 109.22954545454544,
                "end_time": 109.51136363636363,
                "pitch": 0,
                "velocity": 64,
                "duration": 0.2818181818181813,
                "tempo": 120.0
            },
            {
                "start_time": 109.54545454545455,
                "end_time": 109.61363636363636,
                "pitch": 86,
                "velocity": 64,
                "duration": 0.06818181818181301,
                "tempo": 120.0
            },
            {
                "start_time": 109.64545454545454,
                "end_time": 109.7090909090909,
                "pitch": 0,
                "velocity": 64,
                "duration": 0.0636363636363626,
                "tempo": 120.0
            },
            {
                "start_time": 109.74090909090908,
                "end_time": 109.80454545454545,
                "pitch": 86,
                "velocity": 64,
                "duration": 0.0636363636363626,
                "tempo": 120.0
            },
            {
                "start_time": 109.83636363636363,
                "end_time": 110.50454545454545,
                "pitch": 0,
                "velocity": 64,
                "duration": 0.6681818181818215,
                "tempo": 120.0
            },
            {
                "start_time": 110.53863636363636,
                "end_time": 110.60454545454544,
                "pitch": 86,
                "velocity": 64,
                "duration": 0.06590909090908781,
                "tempo": 120.0
            },
            {
                "start_time": 110.63636363636363,
                "end_time": 110.70227272727273,
                "pitch": 0,
                "velocity": 64,
                "duration": 0.06590909090910202,
                "tempo": 120.0
            },
            {
                "start_time": 110.73409090909091,
                "end_time": 110.8,
                "pitch": 86,
                "velocity": 64,
                "duration": 0.06590909090908781,
                "tempo": 120.0
            },
            {
                "start_time": 110.8340909090909,
                "end_time": 111.11590909090908,
                "pitch": 0,
                "velocity": 64,
                "duration": 0.2818181818181813,
                "tempo": 120.0
            },
            {
                "start_time": 111.15227272727272,
                "end_time": 111.22272727272727,
                "pitch": 88,
                "velocity": 64,
                "duration": 0.07045454545455243,
                "tempo": 120.0
            },
            {
                "start_time": 111.25454545454545,
                "end_time": 111.32272727272726,
                "pitch": 0,
                "velocity": 64,
                "duration": 0.06818181818181301,
                "tempo": 120.0
            },
            {
                "start_time": 111.35454545454544,
                "end_time": 111.42272727272727,
                "pitch": 88,
                "velocity": 64,
                "duration": 0.06818181818182723,
                "tempo": 120.0
            },
            {
                "start_time": 111.45454545454545,
                "end_time": 111.72045454545454,
                "pitch": 0,
                "velocity": 64,
                "duration": 0.26590909090909065,
                "tempo": 120.0
            },
            {
                "start_time": 111.75227272727273,
                "end_time": 113.62272727272726,
                "pitch": 86,
                "velocity": 64,
                "duration": 1.8704545454545354,
                "tempo": 120.0
            },
            {
                "start_time": 113.65681818181818,
                "end_time": 115.22954545454544,
                "pitch": 0,
                "velocity": 64,
                "duration": 1.5727272727272634,
                "tempo": 120.0
            },
            {
                "start_time": 115.26363636363635,
                "end_time": 115.43181818181817,
                "pitch": 69,
                "velocity": 64,
                "duration": 0.16818181818182154,
                "tempo": 120.0
            },
            {
                "start_time": 115.46363636363635,
                "end_time": 115.53181818181818,
                "pitch": 72,
                "velocity": 64,
                "duration": 0.06818181818182723,
                "tempo": 120.0
            },
            {
                "start_time": 115.56590909090909,
                "end_time": 115.73181818181817,
                "pitch": 0,
                "velocity": 64,
                "duration": 0.16590909090908212,
                "tempo": 120.0
            },
            {
                "start_time": 115.76590909090909,
                "end_time": 115.93181818181817,
                "pitch": 69,
                "velocity": 64,
                "duration": 0.16590909090908212,
                "tempo": 120.0
            },
            {
                "start_time": 115.96590909090908,
                "end_time": 116.1340909090909,
                "pitch": 69,
                "velocity": 64,
                "duration": 0.16818181818182154,
                "tempo": 120.0
            },
            {
                "start_time": 116.16818181818181,
                "end_time": 116.34090909090908,
                "pitch": 72,
                "velocity": 64,
                "duration": 0.17272727272727195,
                "tempo": 120.0
            },
            {
                "start_time": 116.375,
                "end_time": 116.44318181818181,
                "pitch": 0,
                "velocity": 64,
                "duration": 0.06818181818181301,
                "tempo": 120.0
            },
            {
                "start_time": 116.475,
                "end_time": 116.54090909090908,
                "pitch": 69,
                "velocity": 64,
                "duration": 0.06590909090908781,
                "tempo": 120.0
            },
            {
                "start_time": 116.57272727272726,
                "end_time": 116.63863636363635,
                "pitch": 69,
                "velocity": 64,
                "duration": 0.06590909090908781,
                "tempo": 120.0
            },
            {
                "start_time": 116.67045454545455,
                "end_time": 116.8340909090909,
                "pitch": 67,
                "velocity": 64,
                "duration": 0.16363636363635692,
                "tempo": 120.0
            },
            {
                "start_time": 116.86818181818181,
                "end_time": 117.03636363636363,
                "pitch": 66,
                "velocity": 64,
                "duration": 0.16818181818182154,
                "tempo": 120.0
            },
            {
                "start_time": 117.07045454545454,
                "end_time": 117.13636363636363,
                "pitch": 69,
                "velocity": 64,
                "duration": 0.06590909090908781,
                "tempo": 120.0
            },
            {
                "start_time": 117.17045454545455,
                "end_time": 117.33863636363635,
                "pitch": 0,
                "velocity": 64,
                "duration": 0.16818181818180733,
                "tempo": 120.0
            },
            {
                "start_time": 117.37272727272726,
                "end_time": 117.53863636363636,
                "pitch": 66,
                "velocity": 64,
                "duration": 0.16590909090909634,
                "tempo": 120.0
            },
            {
                "start_time": 117.57272727272726,
                "end_time": 117.74318181818181,
                "pitch": 66,
                "velocity": 64,
                "duration": 0.17045454545454675,
                "tempo": 120.0
            },
            {
                "start_time": 117.77727272727272,
                "end_time": 117.94772727272726,
                "pitch": 69,
                "velocity": 64,
                "duration": 0.17045454545454675,
                "tempo": 120.0
            },
            {
                "start_time": 117.98409090909091,
                "end_time": 118.05,
                "pitch": 0,
                "velocity": 64,
                "duration": 0.06590909090908781,
                "tempo": 120.0
            },
            {
                "start_time": 118.0840909090909,
                "end_time": 118.14772727272727,
                "pitch": 66,
                "velocity": 64,
                "duration": 0.0636363636363626,
                "tempo": 120.0
            },
            {
                "start_time": 118.18181818181817,
                "end_time": 118.24772727272726,
                "pitch": 66,
                "velocity": 64,
                "duration": 0.06590909090908781,
                "tempo": 120.0
            },
            {
                "start_time": 118.27954545454544,
                "end_time": 118.44318181818181,
                "pitch": 67,
                "velocity": 64,
                "duration": 0.16363636363637113,
                "tempo": 120.0
            },
            {
                "start_time": 118.47727272727272,
                "end_time": 118.64318181818182,
                "pitch": 69,
                "velocity": 64,
                "duration": 0.16590909090909634,
                "tempo": 120.0
            },
            {
                "start_time": 118.67727272727272,
                "end_time": 118.74318181818181,
                "pitch": 72,
                "velocity": 64,
                "duration": 0.06590909090908781,
                "tempo": 120.0
            },
            {
                "start_time": 118.77727272727272,
                "end_time": 118.94318181818181,
                "pitch": 0,
                "velocity": 64,
                "duration": 0.16590909090909634,
                "tempo": 120.0
            },
            {
                "start_time": 118.97727272727272,
                "end_time": 119.14545454545454,
                "pitch": 69,
                "velocity": 64,
                "duration": 0.16818181818182154,
                "tempo": 120.0
            },
            {
                "start_time": 119.17954545454545,
                "end_time": 119.35,
                "pitch": 69,
                "velocity": 64,
                "duration": 0.17045454545454675,
                "tempo": 120.0
            },
            {
                "start_time": 119.3840909090909,
                "end_time": 119.55454545454545,
                "pitch": 72,
                "velocity": 64,
                "duration": 0.17045454545454675,
                "tempo": 120.0
            },
            {
                "start_time": 119.58863636363635,
                "end_time": 119.65681818181818,
                "pitch": 0,
                "velocity": 64,
                "duration": 0.06818181818182723,
                "tempo": 120.0
            },
            {
                "start_time": 119.68863636363636,
                "end_time": 119.75454545454545,
                "pitch": 69,
                "velocity": 64,
                "duration": 0.06590909090908781,
                "tempo": 120.0
            },
            {
                "start_time": 119.78636363636363,
                "end_time": 119.85227272727272,
                "pitch": 69,
                "velocity": 64,
                "duration": 0.06590909090908781,
                "tempo": 120.0
            },
            {
                "start_time": 119.8840909090909,
                "end_time": 120.05,
                "pitch": 67,
                "velocity": 64,
                "duration": 0.16590909090909634,
                "tempo": 120.0
            },
            {
                "start_time": 120.08181818181818,
                "end_time": 120.25,
                "pitch": 66,
                "velocity": 64,
                "duration": 0.16818181818182154,
                "tempo": 120.0
            },
            {
                "start_time": 120.2840909090909,
                "end_time": 120.35,
                "pitch": 69,
                "velocity": 64,
                "duration": 0.06590909090908781,
                "tempo": 120.0
            },
            {
                "start_time": 120.3840909090909,
                "end_time": 120.55227272727272,
                "pitch": 0,
                "velocity": 64,
                "duration": 0.16818181818182154,
                "tempo": 120.0
            },
            {
                "start_time": 120.5840909090909,
                "end_time": 120.75227272727273,
                "pitch": 66,
                "velocity": 64,
                "duration": 0.16818181818182154,
                "tempo": 120.0
            },
            {
                "start_time": 120.7840909090909,
                "end_time": 120.95454545454545,
                "pitch": 66,
                "velocity": 64,
                "duration": 0.17045454545454675,
                "tempo": 120.0
            },
            {
                "start_time": 120.98863636363636,
                "end_time": 121.1590909090909,
                "pitch": 69,
                "velocity": 64,
                "duration": 0.17045454545454675,
                "tempo": 120.0
            },
            {
                "start_time": 121.19318181818181,
                "end_time": 121.26136363636363,
                "pitch": 0,
                "velocity": 64,
                "duration": 0.06818181818181301,
                "tempo": 120.0
            },
            {
                "start_time": 121.29545454545453,
                "end_time": 121.35909090909091,
                "pitch": 74,
                "velocity": 64,
                "duration": 0.06363636363637681,
                "tempo": 120.0
            },
            {
                "start_time": 121.39318181818182,
                "end_time": 121.45681818181818,
                "pitch": 74,
                "velocity": 64,
                "duration": 0.0636363636363626,
                "tempo": 120.0
            },
            {
                "start_time": 121.49090909090908,
                "end_time": 121.65454545454544,
                "pitch": 67,
                "velocity": 64,
                "duration": 0.16363636363635692,
                "tempo": 120.0
            },
            {
                "start_time": 121.68863636363636,
                "end_time": 121.85454545454544,
                "pitch": 69,
                "velocity": 64,
                "duration": 0.16590909090908212,
                "tempo": 120.0
            },
            {
                "start_time": 121.88863636363635,
                "end_time": 121.95454545454545,
                "pitch": 72,
                "velocity": 64,
                "duration": 0.06590909090910202,
                "tempo": 120.0
            },
            {
                "start_time": 121.98863636363636,
                "end_time": 122.15454545454544,
                "pitch": 0,
                "velocity": 64,
                "duration": 0.16590909090908212,
                "tempo": 120.0
            },
            {
                "start_time": 122.18863636363636,
                "end_time": 122.35681818181817,
                "pitch": 69,
                "velocity": 64,
                "duration": 0.16818181818180733,
                "tempo": 120.0
            },
            {
                "start_time": 122.39090909090909,
                "end_time": 122.5590909090909,
                "pitch": 69,
                "velocity": 64,
                "duration": 0.16818181818180733,
                "tempo": 120.0
            },
            {
                "start_time": 122.59318181818182,
                "end_time": 122.76590909090909,
                "pitch": 72,
                "velocity": 64,
                "duration": 0.17272727272727195,
                "tempo": 120.0
            },
            {
                "start_time": 122.8,
                "end_time": 122.86818181818181,
                "pitch": 0,
                "velocity": 64,
                "duration": 0.06818181818181301,
                "tempo": 120.0
            },
            {
                "start_time": 122.89999999999999,
                "end_time": 122.96590909090908,
                "pitch": 69,
                "velocity": 64,
                "duration": 0.06590909090908781,
                "tempo": 120.0
            },
            {
                "start_time": 122.99772727272726,
                "end_time": 123.06363636363636,
                "pitch": 69,
                "velocity": 64,
                "duration": 0.06590909090910202,
                "tempo": 120.0
            },
            {
                "start_time": 123.09545454545454,
                "end_time": 123.2590909090909,
                "pitch": 55,
                "velocity": 64,
                "duration": 0.16363636363635692,
                "tempo": 120.0
            },
            {
                "start_time": 123.29318181818181,
                "end_time": 123.46136363636363,
                "pitch": 66,
                "velocity": 64,
                "duration": 0.16818181818182154,
                "tempo": 120.0
            },
            {
                "start_time": 123.49545454545454,
                "end_time": 123.56136363636364,
                "pitch": 69,
                "velocity": 64,
                "duration": 0.06590909090910202,
                "tempo": 120.0
            },
            {
                "start_time": 123.59545454545454,
                "end_time": 123.76363636363635,
                "pitch": 0,
                "velocity": 64,
                "duration": 0.16818181818180733,
                "tempo": 120.0
            },
            {
                "start_time": 123.79545454545453,
                "end_time": 123.96363636363635,
                "pitch": 66,
                "velocity": 64,
                "duration": 0.16818181818182154,
                "tempo": 120.0
            },
            {
                "start_time": 123.99545454545454,
                "end_time": 124.16590909090908,
                "pitch": 66,
                "velocity": 64,
                "duration": 0.17045454545454675,
                "tempo": 120.0
            },
            {
                "start_time": 124.19999999999999,
                "end_time": 124.37045454545454,
                "pitch": 69,
                "velocity": 64,
                "duration": 0.17045454545454675,
                "tempo": 120.0
            },
            {
                "start_time": 124.40454545454544,
                "end_time": 124.47272727272727,
                "pitch": 0,
                "velocity": 64,
                "duration": 0.06818181818182723,
                "tempo": 120.0
            },
            {
                "start_time": 124.50454545454545,
                "end_time": 124.57045454545454,
                "pitch": 66,
                "velocity": 64,
                "duration": 0.06590909090908781,
                "tempo": 120.0
            },
            {
                "start_time": 124.60454545454544,
                "end_time": 124.66818181818181,
                "pitch": 66,
                "velocity": 64,
                "duration": 0.0636363636363626,
                "tempo": 120.0
            },
            {
                "start_time": 124.70227272727273,
                "end_time": 124.86590909090908,
                "pitch": 67,
                "velocity": 64,
                "duration": 0.16363636363635692,
                "tempo": 120.0
            },
            {
                "start_time": 124.89999999999999,
                "end_time": 125.06590909090909,
                "pitch": 69,
                "velocity": 64,
                "duration": 0.16590909090909634,
                "tempo": 120.0
            },
            {
                "start_time": 125.1,
                "end_time": 125.16818181818181,
                "pitch": 72,
                "velocity": 64,
                "duration": 0.06818181818181301,
                "tempo": 120.0
            },
            {
                "start_time": 125.19999999999999,
                "end_time": 125.36818181818181,
                "pitch": 0,
                "velocity": 64,
                "duration": 0.16818181818182154,
                "tempo": 120.0
            },
            {
                "start_time": 125.40227272727272,
                "end_time": 125.57045454545454,
                "pitch": 69,
                "velocity": 64,
                "duration": 0.16818181818182154,
                "tempo": 120.0
            },
            {
                "start_time": 125.60454545454544,
                "end_time": 125.77272727272727,
                "pitch": 69,
                "velocity": 64,
                "duration": 0.16818181818182154,
                "tempo": 120.0
            },
            {
                "start_time": 125.8090909090909,
                "end_time": 125.97954545454544,
                "pitch": 72,
                "velocity": 64,
                "duration": 0.17045454545454675,
                "tempo": 120.0
            },
            {
                "start_time": 126.01363636363635,
                "end_time": 126.08181818181818,
                "pitch": 0,
                "velocity": 64,
                "duration": 0.06818181818182723,
                "tempo": 120.0
            },
            {
                "start_time": 126.11363636363636,
                "end_time": 126.17954545454545,
                "pitch": 69,
                "velocity": 64,
                "duration": 0.06590909090908781,
                "tempo": 120.0
            },
            {
                "start_time": 126.21136363636363,
                "end_time": 126.27727272727272,
                "pitch": 69,
                "velocity": 64,
                "duration": 0.06590909090908781,
                "tempo": 120.0
            },
            {
                "start_time": 126.3090909090909,
                "end_time": 126.47272727272727,
                "pitch": 55,
                "velocity": 64,
                "duration": 0.16363636363637113,
                "tempo": 120.0
            },
            {
                "start_time": 126.50681818181818,
                "end_time": 126.67272727272727,
                "pitch": 66,
                "velocity": 64,
                "duration": 0.16590909090909634,
                "tempo": 120.0
            },
            {
                "start_time": 126.70681818181818,
                "end_time": 126.77272727272727,
                "pitch": 69,
                "velocity": 64,
                "duration": 0.06590909090908781,
                "tempo": 120.0
            },
            {
                "start_time": 126.80681818181817,
                "end_time": 126.975,
                "pitch": 0,
                "velocity": 64,
                "duration": 0.16818181818182154,
                "tempo": 120.0
            },
            {
                "start_time": 127.0090909090909,
                "end_time": 127.175,
                "pitch": 66,
                "velocity": 64,
                "duration": 0.16590909090909634,
                "tempo": 120.0
            },
            {
                "start_time": 127.2090909090909,
                "end_time": 127.27499999999999,
                "pitch": 66,
                "velocity": 64,
                "duration": 0.06590909090908781,
                "tempo": 120.0
            },
            {
                "start_time": 127.3090909090909,
                "end_time": 127.40681818181818,
                "pitch": 0,
                "velocity": 64,
                "duration": 0.09772727272728332,
                "tempo": 120.0
            },
            {
                "start_time": 127.43863636363636,
                "end_time": 127.53636363636363,
                "pitch": 74,
                "velocity": 64,
                "duration": 0.09772727272726911,
                "tempo": 120.0
            },
            {
                "start_time": 127.57045454545454,
                "end_time": 127.66818181818181,
                "pitch": 74,
                "velocity": 64,
                "duration": 0.09772727272726911,
                "tempo": 120.0
            },
            {
                "start_time": 127.70227272727273,
                "end_time": 127.80681818181817,
                "pitch": 74,
                "velocity": 64,
                "duration": 0.10454545454544473,
                "tempo": 120.0
            },
            {
                "start_time": 127.84090909090908,
                "end_time": 127.94318181818181,
                "pitch": 74,
                "velocity": 64,
                "duration": 0.10227272727273373,
                "tempo": 120.0
            },
            {
                "start_time": 127.97727272727272,
                "end_time": 128.07954545454544,
                "pitch": 74,
                "velocity": 64,
                "duration": 0.10227272727271952,
                "tempo": 120.0
            },
            {
                "start_time": 128.11363636363635,
                "end_time": 128.28181818181818,
                "pitch": 69,
                "velocity": 64,
                "duration": 0.16818181818183575,
                "tempo": 120.0
            },
            {
                "start_time": 128.31363636363636,
                "end_time": 128.38181818181818,
                "pitch": 72,
                "velocity": 64,
                "duration": 0.06818181818181301,
                "tempo": 120.0
            },
            {
                "start_time": 128.41590909090908,
                "end_time": 128.58181818181816,
                "pitch": 0,
                "velocity": 64,
                "duration": 0.16590909090908212,
                "tempo": 120.0
            },
            {
                "start_time": 128.61590909090907,
                "end_time": 128.78181818181818,
                "pitch": 69,
                "velocity": 64,
                "duration": 0.16590909090911055,
                "tempo": 120.0
            },
            {
                "start_time": 128.8159090909091,
                "end_time": 128.9840909090909,
                "pitch": 69,
                "velocity": 64,
                "duration": 0.16818181818180733,
                "tempo": 120.0
            },
            {
                "start_time": 129.0181818181818,
                "end_time": 129.1909090909091,
                "pitch": 72,
                "velocity": 64,
                "duration": 0.17272727272728616,
                "tempo": 120.0
            },
            {
                "start_time": 129.225,
                "end_time": 129.2931818181818,
                "pitch": 0,
                "velocity": 64,
                "duration": 0.06818181818181301,
                "tempo": 120.0
            },
            {
                "start_time": 129.325,
                "end_time": 129.39090909090908,
                "pitch": 69,
                "velocity": 64,
                "duration": 0.06590909090908781,
                "tempo": 120.0
            },
            {
                "start_time": 129.42272727272726,
                "end_time": 129.48863636363635,
                "pitch": 69,
                "velocity": 64,
                "duration": 0.06590909090908781,
                "tempo": 120.0
            },
            {
                "start_time": 129.52045454545453,
                "end_time": 129.6840909090909,
                "pitch": 67,
                "velocity": 64,
                "duration": 0.16363636363638534,
                "tempo": 120.0
            },
            {
                "start_time": 129.71818181818182,
                "end_time": 129.88636363636363,
                "pitch": 66,
                "velocity": 64,
                "duration": 0.16818181818180733,
                "tempo": 120.0
            },
            {
                "start_time": 129.92045454545453,
                "end_time": 129.98636363636362,
                "pitch": 69,
                "velocity": 64,
                "duration": 0.06590909090908781,
                "tempo": 120.0
            },
            {
                "start_time": 130.02045454545453,
                "end_time": 130.18636363636364,
                "pitch": 0,
                "velocity": 64,
                "duration": 0.16590909090911055,
                "tempo": 120.0
            },
            {
                "start_time": 130.22045454545454,
                "end_time": 130.38636363636363,
                "pitch": 66,
                "velocity": 64,
                "duration": 0.16590909090908212,
                "tempo": 120.0
            },
            {
                "start_time": 130.42045454545453,
                "end_time": 130.5909090909091,
                "pitch": 66,
                "velocity": 64,
                "duration": 0.17045454545456096,
                "tempo": 120.0
            },
            {
                "start_time": 130.625,
                "end_time": 130.79545454545453,
                "pitch": 69,
                "velocity": 64,
                "duration": 0.17045454545453254,
                "tempo": 120.0
            },
            {
                "start_time": 130.82954545454544,
                "end_time": 130.89772727272728,
                "pitch": 0,
                "velocity": 64,
                "duration": 0.06818181818184144,
                "tempo": 120.0
            },
            {
                "start_time": 130.92954545454546,
                "end_time": 130.99545454545455,
                "pitch": 66,
                "velocity": 64,
                "duration": 0.06590909090908781,
                "tempo": 120.0
            },
            {
                "start_time": 131.02954545454546,
                "end_time": 131.09318181818182,
                "pitch": 66,
                "velocity": 64,
                "duration": 0.0636363636363626,
                "tempo": 120.0
            },
            {
                "start_time": 131.12727272727273,
                "end_time": 131.29090909090908,
                "pitch": 67,
                "velocity": 64,
                "duration": 0.16363636363635692,
                "tempo": 120.0
            },
            {
                "start_time": 131.325,
                "end_time": 131.49090909090907,
                "pitch": 69,
                "velocity": 64,
                "duration": 0.16590909090908212,
                "tempo": 120.0
            },
            {
                "start_time": 131.525,
                "end_time": 131.59318181818182,
                "pitch": 72,
                "velocity": 64,
                "duration": 0.06818181818181301,
                "tempo": 120.0
            },
            {
                "start_time": 131.625,
                "end_time": 131.7931818181818,
                "pitch": 0,
                "velocity": 64,
                "duration": 0.16818181818180733,
                "tempo": 120.0
            },
            {
                "start_time": 131.8272727272727,
                "end_time": 131.99545454545455,
                "pitch": 69,
                "velocity": 64,
                "duration": 0.16818181818183575,
                "tempo": 120.0
            },
            {
                "start_time": 132.02954545454546,
                "end_time": 132.19772727272726,
                "pitch": 69,
                "velocity": 64,
                "duration": 0.16818181818180733,
                "tempo": 120.0
            },
            {
                "start_time": 132.23181818181817,
                "end_time": 132.40454545454546,
                "pitch": 72,
                "velocity": 64,
                "duration": 0.17272727272728616,
                "tempo": 120.0
            },
            {
                "start_time": 132.43863636363636,
                "end_time": 132.50681818181818,
                "pitch": 0,
                "velocity": 64,
                "duration": 0.06818181818181301,
                "tempo": 120.0
            },
            {
                "start_time": 132.53863636363636,
                "end_time": 132.60454545454544,
                "pitch": 69,
                "velocity": 64,
                "duration": 0.06590909090908781,
                "tempo": 120.0
            },
            {
                "start_time": 132.63636363636363,
                "end_time": 132.7022727272727,
                "pitch": 69,
                "velocity": 64,
                "duration": 0.06590909090908781,
                "tempo": 120.0
            },
            {
                "start_time": 132.7340909090909,
                "end_time": 132.89772727272728,
                "pitch": 67,
                "velocity": 64,
                "duration": 0.16363636363638534,
                "tempo": 120.0
            },
            {
                "start_time": 132.9318181818182,
                "end_time": 133.1,
                "pitch": 66,
                "velocity": 64,
                "duration": 0.16818181818180733,
                "tempo": 120.0
            },
            {
                "start_time": 133.1340909090909,
                "end_time": 133.2,
                "pitch": 69,
                "velocity": 64,
                "duration": 0.06590909090908781,
                "tempo": 120.0
            },
            {
                "start_time": 133.2340909090909,
                "end_time": 133.40227272727273,
                "pitch": 0,
                "velocity": 64,
                "duration": 0.16818181818183575,
                "tempo": 120.0
            },
            {
                "start_time": 133.43636363636364,
                "end_time": 133.60227272727272,
                "pitch": 66,
                "velocity": 64,
                "duration": 0.16590909090908212,
                "tempo": 120.0
            },
            {
                "start_time": 133.63636363636363,
                "end_time": 133.8068181818182,
                "pitch": 66,
                "velocity": 64,
                "duration": 0.17045454545456096,
                "tempo": 120.0
            },
            {
                "start_time": 133.8409090909091,
                "end_time": 134.01136363636363,
                "pitch": 69,
                "velocity": 64,
                "duration": 0.17045454545453254,
                "tempo": 120.0
            },
            {
                "start_time": 134.04772727272726,
                "end_time": 134.11363636363635,
                "pitch": 0,
                "velocity": 64,
                "duration": 0.06590909090908781,
                "tempo": 120.0
            },
            {
                "start_time": 134.14772727272725,
                "end_time": 134.21136363636364,
                "pitch": 74,
                "velocity": 64,
                "duration": 0.06363636363639102,
                "tempo": 120.0
            },
            {
                "start_time": 134.24545454545455,
                "end_time": 134.31136363636364,
                "pitch": 74,
                "velocity": 64,
                "duration": 0.06590909090908781,
                "tempo": 120.0
            },
            {
                "start_time": 134.34318181818182,
                "end_time": 134.50681818181818,
                "pitch": 67,
                "velocity": 64,
                "duration": 0.16363636363635692,
                "tempo": 120.0
            },
            {
                "start_time": 134.54090909090908,
                "end_time": 134.7090909090909,
                "pitch": 69,
                "velocity": 64,
                "duration": 0.16818181818180733,
                "tempo": 120.0
            },
            {
                "start_time": 134.74090909090907,
                "end_time": 134.8090909090909,
                "pitch": 72,
                "velocity": 64,
                "duration": 0.06818181818184144,
                "tempo": 120.0
            },
            {
                "start_time": 134.84318181818182,
                "end_time": 135.01136363636363,
                "pitch": 0,
                "velocity": 64,
                "duration": 0.16818181818180733,
                "tempo": 120.0
            },
            {
                "start_time": 135.0431818181818,
                "end_time": 135.21136363636364,
                "pitch": 69,
                "velocity": 64,
                "duration": 0.16818181818183575,
                "tempo": 120.0
            },
            {
                "start_time": 135.24545454545455,
                "end_time": 135.41590909090908,
                "pitch": 69,
                "velocity": 64,
                "duration": 0.17045454545453254,
                "tempo": 120.0
            },
            {
                "start_time": 135.45,
                "end_time": 135.62045454545455,
                "pitch": 72,
                "velocity": 64,
                "duration": 0.17045454545456096,
                "tempo": 120.0
            },
            {
                "start_time": 135.65454545454546,
                "end_time": 135.72272727272727,
                "pitch": 0,
                "velocity": 64,
                "duration": 0.06818181818181301,
                "tempo": 120.0
            },
            {
                "start_time": 135.75454545454545,
                "end_time": 135.82045454545454,
                "pitch": 69,
                "velocity": 64,
                "duration": 0.06590909090908781,
                "tempo": 120.0
            },
            {
                "start_time": 135.85227272727272,
                "end_time": 135.9181818181818,
                "pitch": 69,
                "velocity": 64,
                "duration": 0.06590909090908781,
                "tempo": 120.0
            },
            {
                "start_time": 135.9522727272727,
                "end_time": 136.11590909090907,
                "pitch": 55,
                "velocity": 64,
                "duration": 0.16363636363635692,
                "tempo": 120.0
            },
            {
                "start_time": 136.14772727272725,
                "end_time": 136.3159090909091,
                "pitch": 66,
                "velocity": 64,
                "duration": 0.16818181818183575,
                "tempo": 120.0
            },
            {
                "start_time": 136.34772727272727,
                "end_time": 136.41590909090908,
                "pitch": 69,
                "velocity": 64,
                "duration": 0.06818181818181301,
                "tempo": 120.0
            },
            {
                "start_time": 136.44772727272726,
                "end_time": 136.61590909090907,
                "pitch": 0,
                "velocity": 64,
                "duration": 0.16818181818180733,
                "tempo": 120.0
            },
            {
                "start_time": 136.65,
                "end_time": 136.8181818181818,
                "pitch": 66,
                "velocity": 64,
                "duration": 0.16818181818180733,
                "tempo": 120.0
            },
            {
                "start_time": 136.85,
                "end_time": 137.02045454545453,
                "pitch": 66,
                "velocity": 64,
                "duration": 0.17045454545453254,
                "tempo": 120.0
            },
            {
                "start_time": 137.05454545454546,
                "end_time": 137.22727272727272,
                "pitch": 69,
                "velocity": 64,
                "duration": 0.17272727272725774,
                "tempo": 120.0
            },
            {
                "start_time": 137.26136363636363,
                "end_time": 137.3272727272727,
                "pitch": 0,
                "velocity": 64,
                "duration": 0.06590909090908781,
                "tempo": 120.0
            },
            {
                "start_time": 137.36136363636362,
                "end_time": 137.4272727272727,
                "pitch": 66,
                "velocity": 64,
                "duration": 0.06590909090908781,
                "tempo": 120.0
            },
            {
                "start_time": 137.4590909090909,
                "end_time": 137.525,
                "pitch": 66,
                "velocity": 64,
                "duration": 0.06590909090911623,
                "tempo": 120.0
            },
            {
                "start_time": 137.5568181818182,
                "end_time": 137.72045454545454,
                "pitch": 67,
                "velocity": 64,
                "duration": 0.16363636363635692,
                "tempo": 120.0
            },
            {
                "start_time": 137.75454545454545,
                "end_time": 137.92272727272726,
                "pitch": 69,
                "velocity": 64,
                "duration": 0.16818181818180733,
                "tempo": 120.0
            },
            {
                "start_time": 137.95681818181816,
                "end_time": 138.02272727272725,
                "pitch": 72,
                "velocity": 64,
                "duration": 0.06590909090908781,
                "tempo": 120.0
            },
            {
                "start_time": 138.0568181818182,
                "end_time": 138.22272727272727,
                "pitch": 0,
                "velocity": 64,
                "duration": 0.16590909090908212,
                "tempo": 120.0
            },
            {
                "start_time": 138.25681818181818,
                "end_time": 138.42272727272726,
                "pitch": 69,
                "velocity": 64,
                "duration": 0.16590909090908212,
                "tempo": 120.0
            },
            {
                "start_time": 138.45681818181816,
                "end_time": 138.62727272727273,
                "pitch": 69,
                "velocity": 64,
                "duration": 0.17045454545456096,
                "tempo": 120.0
            },
            {
                "start_time": 138.66136363636363,
                "end_time": 138.83181818181816,
                "pitch": 72,
                "velocity": 64,
                "duration": 0.17045454545453254,
                "tempo": 120.0
            },
            {
                "start_time": 138.86590909090907,
                "end_time": 138.9340909090909,
                "pitch": 0,
                "velocity": 64,
                "duration": 0.06818181818184144,
                "tempo": 120.0
            },
            {
                "start_time": 138.9659090909091,
                "end_time": 139.03181818181818,
                "pitch": 69,
                "velocity": 64,
                "duration": 0.06590909090908781,
                "tempo": 120.0
            },
            {
                "start_time": 139.06363636363636,
                "end_time": 139.12954545454545,
                "pitch": 69,
                "velocity": 64,
                "duration": 0.06590909090908781,
                "tempo": 120.0
            },
            {
                "start_time": 139.16363636363636,
                "end_time": 139.3272727272727,
                "pitch": 55,
                "velocity": 64,
                "duration": 0.16363636363635692,
                "tempo": 120.0
            },
            {
                "start_time": 139.3590909090909,
                "end_time": 139.52727272727273,
                "pitch": 66,
                "velocity": 64,
                "duration": 0.16818181818183575,
                "tempo": 120.0
            },
            {
                "start_time": 139.56136363636364,
                "end_time": 139.62727272727273,
                "pitch": 69,
                "velocity": 64,
                "duration": 0.06590909090908781,
                "tempo": 120.0
            },
            {
                "start_time": 139.66136363636363,
                "end_time": 139.82954545454544,
                "pitch": 0,
                "velocity": 64,
                "duration": 0.16818181818180733,
                "tempo": 120.0
            },
            {
                "start_time": 139.86363636363635,
                "end_time": 140.03181818181818,
                "pitch": 66,
                "velocity": 64,
                "duration": 0.16818181818183575,
                "tempo": 120.0
            },
            {
                "start_time": 140.06363636363636,
                "end_time": 140.13181818181818,
                "pitch": 66,
                "velocity": 64,
                "duration": 0.06818181818181301,
                "tempo": 120.0
            },
            {
                "start_time": 140.16590909090908,
                "end_time": 140.26590909090908,
                "pitch": 0,
                "velocity": 64,
                "duration": 0.09999999999999432,
                "tempo": 120.0
            },
            {
                "start_time": 140.29772727272726,
                "end_time": 140.39772727272725,
                "pitch": 74,
                "velocity": 64,
                "duration": 0.09999999999999432,
                "tempo": 120.0
            },
            {
                "start_time": 140.4318181818182,
                "end_time": 140.53181818181818,
                "pitch": 74,
                "velocity": 64,
                "duration": 0.09999999999999432,
                "tempo": 120.0
            },
            {
                "start_time": 140.5659090909091,
                "end_time": 140.66590909090908,
                "pitch": 74,
                "velocity": 64,
                "duration": 0.09999999999999432,
                "tempo": 120.0
            },
            {
                "start_time": 140.7,
                "end_time": 140.79999999999998,
                "pitch": 74,
                "velocity": 64,
                "duration": 0.09999999999999432,
                "tempo": 120.0
            },
            {
                "start_time": 140.8340909090909,
                "end_time": 140.9340909090909,
                "pitch": 74,
                "velocity": 64,
                "duration": 0.10000000000002274,
                "tempo": 120.0
            },
            {
                "start_time": 140.96818181818182,
                "end_time": 141.13636363636363,
                "pitch": 69,
                "velocity": 64,
                "duration": 0.16818181818180733,
                "tempo": 120.0
            },
            {
                "start_time": 141.17045454545453,
                "end_time": 141.23636363636362,
                "pitch": 72,
                "velocity": 64,
                "duration": 0.06590909090908781,
                "tempo": 120.0
            },
            {
                "start_time": 141.27045454545453,
                "end_time": 141.43863636363636,
                "pitch": 0,
                "velocity": 64,
                "duration": 0.16818181818183575,
                "tempo": 120.0
            },
            {
                "start_time": 141.47045454545454,
                "end_time": 141.63863636363635,
                "pitch": 69,
                "velocity": 64,
                "duration": 0.16818181818180733,
                "tempo": 120.0
            },
            {
                "start_time": 141.67272727272726,
                "end_time": 141.84318181818182,
                "pitch": 69,
                "velocity": 64,
                "duration": 0.17045454545456096,
                "tempo": 120.0
            },
            {
                "start_time": 141.87727272727273,
                "end_time": 142.04772727272726,
                "pitch": 72,
                "velocity": 64,
                "duration": 0.17045454545453254,
                "tempo": 120.0
            },
            {
                "start_time": 142.08181818181816,
                "end_time": 142.15,
                "pitch": 0,
                "velocity": 64,
                "duration": 0.06818181818184144,
                "tempo": 120.0
            },
            {
                "start_time": 142.1818181818182,
                "end_time": 142.24772727272727,
                "pitch": 69,
                "velocity": 64,
                "duration": 0.06590909090908781,
                "tempo": 120.0
            },
            {
                "start_time": 142.28181818181818,
                "end_time": 142.34545454545454,
                "pitch": 69,
                "velocity": 64,
                "duration": 0.0636363636363626,
                "tempo": 120.0
            },
            {
                "start_time": 142.37954545454545,
                "end_time": 142.5431818181818,
                "pitch": 67,
                "velocity": 64,
                "duration": 0.16363636363635692,
                "tempo": 120.0
            },
            {
                "start_time": 142.5772727272727,
                "end_time": 142.74318181818182,
                "pitch": 66,
                "velocity": 64,
                "duration": 0.16590909090911055,
                "tempo": 120.0
            },
            {
                "start_time": 142.77727272727273,
                "end_time": 142.84545454545454,
                "pitch": 69,
                "velocity": 64,
                "duration": 0.06818181818181301,
                "tempo": 120.0
            },
            {
                "start_time": 142.87727272727273,
                "end_time": 143.04545454545453,
                "pitch": 0,
                "velocity": 64,
                "duration": 0.16818181818180733,
                "tempo": 120.0
            },
            {
                "start_time": 143.07954545454544,
                "end_time": 143.24772727272727,
                "pitch": 66,
                "velocity": 64,
                "duration": 0.16818181818183575,
                "tempo": 120.0
            },
            {
                "start_time": 143.28181818181818,
                "end_time": 143.44772727272726,
                "pitch": 66,
                "velocity": 64,
                "duration": 0.16590909090908212,
                "tempo": 120.0
            },
            {
                "start_time": 143.48181818181817,
                "end_time": 143.65,
                "pitch": 69,
                "velocity": 64,
                "duration": 0.16818181818183575,
                "tempo": 120.0
            },
            {
                "start_time": 143.6840909090909,
                "end_time": 143.75,
                "pitch": 0,
                "velocity": 64,
                "duration": 0.06590909090908781,
                "tempo": 120.0
            },
            {
                "start_time": 143.7840909090909,
                "end_time": 143.85227272727272,
                "pitch": 66,
                "velocity": 64,
                "duration": 0.06818181818181301,
                "tempo": 120.0
            },
            {
                "start_time": 143.8840909090909,
                "end_time": 143.9522727272727,
                "pitch": 66,
                "velocity": 64,
                "duration": 0.06818181818181301,
                "tempo": 120.0
            },
            {
                "start_time": 143.98636363636362,
                "end_time": 144.15227272727273,
                "pitch": 67,
                "velocity": 64,
                "duration": 0.16590909090911055,
                "tempo": 120.0
            },
            {
                "start_time": 144.18636363636364,
                "end_time": 144.35227272727272,
                "pitch": 69,
                "velocity": 64,
                "duration": 0.16590909090908212,
                "tempo": 120.0
            },
            {
                "start_time": 144.38636363636363,
                "end_time": 144.4522727272727,
                "pitch": 72,
                "velocity": 64,
                "duration": 0.06590909090908781,
                "tempo": 120.0
            },
            {
                "start_time": 144.48636363636362,
                "end_time": 144.65454545454546,
                "pitch": 0,
                "velocity": 64,
                "duration": 0.16818181818183575,
                "tempo": 120.0
            },
            {
                "start_time": 144.68863636363636,
                "end_time": 144.85454545454544,
                "pitch": 69,
                "velocity": 64,
                "duration": 0.16590909090908212,
                "tempo": 120.0
            },
            {
                "start_time": 144.88863636363635,
                "end_time": 145.0590909090909,
                "pitch": 69,
                "velocity": 64,
                "duration": 0.17045454545456096,
                "tempo": 120.0
            },
            {
                "start_time": 145.09318181818182,
                "end_time": 145.26363636363635,
                "pitch": 72,
                "velocity": 64,
                "duration": 0.17045454545453254,
                "tempo": 120.0
            },
            {
                "start_time": 145.29772727272726,
                "end_time": 145.36590909090907,
                "pitch": 0,
                "velocity": 64,
                "duration": 0.06818181818181301,
                "tempo": 120.0
            },
            {
                "start_time": 145.4,
                "end_time": 145.46363636363637,
                "pitch": 69,
                "velocity": 64,
                "duration": 0.0636363636363626,
                "tempo": 120.0
            },
            {
                "start_time": 145.49772727272727,
                "end_time": 145.56363636363636,
                "pitch": 69,
                "velocity": 64,
                "duration": 0.06590909090908781,
                "tempo": 120.0
            },
            {
                "start_time": 145.59545454545454,
                "end_time": 145.7590909090909,
                "pitch": 67,
                "velocity": 64,
                "duration": 0.16363636363635692,
                "tempo": 120.0
            },
            {
                "start_time": 145.7931818181818,
                "end_time": 145.96136363636364,
                "pitch": 66,
                "velocity": 64,
                "duration": 0.16818181818183575,
                "tempo": 120.0
            },
            {
                "start_time": 145.99318181818182,
                "end_time": 146.06136363636364,
                "pitch": 69,
                "velocity": 64,
                "duration": 0.06818181818181301,
                "tempo": 120.0
            },
            {
                "start_time": 146.09545454545454,
                "end_time": 146.26136363636363,
                "pitch": 0,
                "velocity": 64,
                "duration": 0.16590909090908212,
                "tempo": 120.0
            },
            {
                "start_time": 146.29545454545453,
                "end_time": 146.46136363636364,
                "pitch": 66,
                "velocity": 64,
                "duration": 0.16590909090911055,
                "tempo": 120.0
            },
            {
                "start_time": 146.49545454545455,
                "end_time": 146.66363636363636,
                "pitch": 66,
                "velocity": 64,
                "duration": 0.16818181818180733,
                "tempo": 120.0
            },
            {
                "start_time": 146.69772727272726,
                "end_time": 146.87045454545455,
                "pitch": 69,
                "velocity": 64,
                "duration": 0.17272727272728616,
                "tempo": 120.0
            },
            {
                "start_time": 146.90454545454546,
                "end_time": 146.97272727272727,
                "pitch": 0,
                "velocity": 64,
                "duration": 0.06818181818181301,
                "tempo": 120.0
            },
            {
                "start_time": 147.00454545454545,
                "end_time": 147.07045454545454,
                "pitch": 74,
                "velocity": 64,
                "duration": 0.06590909090908781,
                "tempo": 120.0
            },
            {
                "start_time": 147.10227272727272,
                "end_time": 147.1681818181818,
                "pitch": 74,
                "velocity": 64,
                "duration": 0.06590909090908781,
                "tempo": 120.0
            },
            {
                "start_time": 147.2,
                "end_time": 147.36363636363635,
                "pitch": 67,
                "velocity": 64,
                "duration": 0.16363636363635692,
                "tempo": 120.0
            },
            {
                "start_time": 147.39772727272725,
                "end_time": 147.5659090909091,
                "pitch": 69,
                "velocity": 64,
                "duration": 0.16818181818183575,
                "tempo": 120.0
            },
            {
                "start_time": 147.6,
                "end_time": 147.66590909090908,
                "pitch": 72,
                "velocity": 64,
                "duration": 0.06590909090908781,
                "tempo": 120.0
            },
            {
                "start_time": 147.7,
                "end_time": 147.86818181818182,
                "pitch": 0,
                "velocity": 64,
                "duration": 0.16818181818183575,
                "tempo": 120.0
            },
            {
                "start_time": 147.90227272727273,
                "end_time": 148.0681818181818,
                "pitch": 69,
                "velocity": 64,
                "duration": 0.16590909090908212,
                "tempo": 120.0
            },
            {
                "start_time": 148.10227272727272,
                "end_time": 148.27272727272725,
                "pitch": 69,
                "velocity": 64,
                "duration": 0.17045454545453254,
                "tempo": 120.0
            },
            {
                "start_time": 148.3068181818182,
                "end_time": 148.47727272727272,
                "pitch": 72,
                "velocity": 64,
                "duration": 0.17045454545453254,
                "tempo": 120.0
            },
            {
                "start_time": 148.51363636363635,
                "end_time": 148.57954545454544,
                "pitch": 0,
                "velocity": 64,
                "duration": 0.06590909090908781,
                "tempo": 120.0
            },
            {
                "start_time": 148.61363636363635,
                "end_time": 148.6772727272727,
                "pitch": 69,
                "velocity": 64,
                "duration": 0.0636363636363626,
                "tempo": 120.0
            },
            {
                "start_time": 148.71136363636364,
                "end_time": 148.77727272727273,
                "pitch": 69,
                "velocity": 64,
                "duration": 0.06590909090908781,
                "tempo": 120.0
            },
            {
                "start_time": 148.8090909090909,
                "end_time": 148.97272727272727,
                "pitch": 55,
                "velocity": 64,
                "duration": 0.16363636363635692,
                "tempo": 120.0
            },
            {
                "start_time": 149.00681818181818,
                "end_time": 149.17499999999998,
                "pitch": 66,
                "velocity": 64,
                "duration": 0.16818181818180733,
                "tempo": 120.0
            },
            {
                "start_time": 149.20681818181816,
                "end_time": 149.275,
                "pitch": 69,
                "velocity": 64,
                "duration": 0.06818181818184144,
                "tempo": 120.0
            },
            {
                "start_time": 149.3090909090909,
                "end_time": 149.47727272727272,
                "pitch": 0,
                "velocity": 64,
                "duration": 0.16818181818180733,
                "tempo": 120.0
            },
            {
                "start_time": 149.5090909090909,
                "end_time": 149.6772727272727,
                "pitch": 66,
                "velocity": 64,
                "duration": 0.16818181818180733,
                "tempo": 120.0
            },
            {
                "start_time": 149.71136363636364,
                "end_time": 149.88181818181818,
                "pitch": 66,
                "velocity": 64,
                "duration": 0.17045454545453254,
                "tempo": 120.0
            },
            {
                "start_time": 149.91590909090908,
                "end_time": 150.08636363636364,
                "pitch": 69,
                "velocity": 64,
                "duration": 0.17045454545456096,
                "tempo": 120.0
            },
            {
                "start_time": 150.12045454545455,
                "end_time": 150.18863636363636,
                "pitch": 0,
                "velocity": 64,
                "duration": 0.06818181818181301,
                "tempo": 120.0
            },
            {
                "start_time": 150.22045454545454,
                "end_time": 150.28636363636363,
                "pitch": 66,
                "velocity": 64,
                "duration": 0.06590909090908781,
                "tempo": 120.0
            },
            {
                "start_time": 150.3181818181818,
                "end_time": 150.3840909090909,
                "pitch": 66,
                "velocity": 64,
                "duration": 0.06590909090908781,
                "tempo": 120.0
            },
            {
                "start_time": 150.4181818181818,
                "end_time": 150.58181818181816,
                "pitch": 67,
                "velocity": 64,
                "duration": 0.16363636363635692,
                "tempo": 120.0
            },
            {
                "start_time": 150.61363636363635,
                "end_time": 150.78181818181818,
                "pitch": 69,
                "velocity": 64,
                "duration": 0.16818181818183575,
                "tempo": 120.0
            },
            {
                "start_time": 150.8159090909091,
                "end_time": 150.8840909090909,
                "pitch": 72,
                "velocity": 64,
                "duration": 0.06818181818181301,
                "tempo": 120.0
            },
            {
                "start_time": 150.91590909090908,
                "end_time": 151.0840909090909,
                "pitch": 0,
                "velocity": 64,
                "duration": 0.16818181818180733,
                "tempo": 120.0
            },
            {
                "start_time": 151.11818181818182,
                "end_time": 151.28636363636363,
                "pitch": 69,
                "velocity": 64,
                "duration": 0.16818181818180733,
                "tempo": 120.0
            },
            {
                "start_time": 151.32045454545454,
                "end_time": 151.48863636363635,
                "pitch": 69,
                "velocity": 64,
                "duration": 0.16818181818180733,
                "tempo": 120.0
            },
            {
                "start_time": 151.52272727272725,
                "end_time": 151.69545454545454,
                "pitch": 72,
                "velocity": 64,
                "duration": 0.17272727272728616,
                "tempo": 120.0
            },
            {
                "start_time": 151.72954545454544,
                "end_time": 151.79772727272726,
                "pitch": 0,
                "velocity": 64,
                "duration": 0.06818181818181301,
                "tempo": 120.0
            },
            {
                "start_time": 151.82954545454544,
                "end_time": 151.89545454545453,
                "pitch": 69,
                "velocity": 64,
                "duration": 0.06590909090908781,
                "tempo": 120.0
            },
            {
                "start_time": 151.9272727272727,
                "end_time": 151.99318181818182,
                "pitch": 69,
                "velocity": 64,
                "duration": 0.06590909090911623,
                "tempo": 120.0
            },
            {
                "start_time": 152.025,
                "end_time": 152.18863636363636,
                "pitch": 55,
                "velocity": 64,
                "duration": 0.16363636363635692,
                "tempo": 120.0
            },
            {
                "start_time": 152.22272727272727,
                "end_time": 152.38863636363635,
                "pitch": 66,
                "velocity": 64,
                "duration": 0.16590909090908212,
                "tempo": 120.0
            },
            {
                "start_time": 152.42272727272726,
                "end_time": 152.48863636363635,
                "pitch": 69,
                "velocity": 64,
                "duration": 0.06590909090908781,
                "tempo": 120.0
            },
            {
                "start_time": 152.52272727272725,
                "end_time": 152.6909090909091,
                "pitch": 0,
                "velocity": 64,
                "duration": 0.16818181818183575,
                "tempo": 120.0
            },
            {
                "start_time": 152.72272727272727,
                "end_time": 152.89090909090908,
                "pitch": 66,
                "velocity": 64,
                "duration": 0.16818181818180733,
                "tempo": 120.0
            },
            {
                "start_time": 152.92499999999998,
                "end_time": 152.99318181818182,
                "pitch": 66,
                "velocity": 64,
                "duration": 0.06818181818184144,
                "tempo": 120.0
            },
            {
                "start_time": 153.025,
                "end_time": 153.12727272727273,
                "pitch": 0,
                "velocity": 64,
                "duration": 0.10227272727271952,
                "tempo": 120.0
            },
            {
                "start_time": 153.1590909090909,
                "end_time": 153.26136363636363,
                "pitch": 74,
                "velocity": 64,
                "duration": 0.10227272727271952,
                "tempo": 120.0
            },
            {
                "start_time": 153.2931818181818,
                "end_time": 153.39545454545453,
                "pitch": 74,
                "velocity": 64,
                "duration": 0.10227272727271952,
                "tempo": 120.0
            },
            {
                "start_time": 153.4272727272727,
                "end_time": 153.52954545454546,
                "pitch": 74,
                "velocity": 64,
                "duration": 0.10227272727274794,
                "tempo": 120.0
            },
            {
                "start_time": 153.56363636363636,
                "end_time": 153.66363636363636,
                "pitch": 74,
                "velocity": 64,
                "duration": 0.09999999999999432,
                "tempo": 120.0
            },
            {
                "start_time": 153.69772727272726,
                "end_time": 153.79772727272726,
                "pitch": 74,
                "velocity": 64,
                "duration": 0.09999999999999432,
                "tempo": 120.0
            },
            {
                "start_time": 153.83181818181816,
                "end_time": 153.99772727272727,
                "pitch": 69,
                "velocity": 64,
                "duration": 0.16590909090911055,
                "tempo": 120.0
            },
            {
                "start_time": 154.03181818181818,
                "end_time": 154.1,
                "pitch": 72,
                "velocity": 64,
                "duration": 0.06818181818181301,
                "tempo": 120.0
            },
            {
                "start_time": 154.1340909090909,
                "end_time": 154.29999999999998,
                "pitch": 0,
                "velocity": 64,
                "duration": 0.16590909090908212,
                "tempo": 120.0
            },
            {
                "start_time": 154.3340909090909,
                "end_time": 154.5,
                "pitch": 69,
                "velocity": 64,
                "duration": 0.16590909090911055,
                "tempo": 120.0
            },
            {
                "start_time": 154.5340909090909,
                "end_time": 154.7022727272727,
                "pitch": 69,
                "velocity": 64,
                "duration": 0.16818181818180733,
                "tempo": 120.0
            },
            {
                "start_time": 154.73636363636362,
                "end_time": 154.9090909090909,
                "pitch": 72,
                "velocity": 64,
                "duration": 0.17272727272728616,
                "tempo": 120.0
            },
            {
                "start_time": 154.9431818181818,
                "end_time": 155.01136363636363,
                "pitch": 0,
                "velocity": 64,
                "duration": 0.06818181818181301,
                "tempo": 120.0
            },
            {
                "start_time": 155.0431818181818,
                "end_time": 155.1090909090909,
                "pitch": 69,
                "velocity": 64,
                "duration": 0.06590909090908781,
                "tempo": 120.0
            },
            {
                "start_time": 155.14090909090908,
                "end_time": 155.20681818181816,
                "pitch": 69,
                "velocity": 64,
                "duration": 0.06590909090908781,
                "tempo": 120.0
            },
            {
                "start_time": 155.23863636363635,
                "end_time": 155.40227272727273,
                "pitch": 67,
                "velocity": 64,
                "duration": 0.16363636363638534,
                "tempo": 120.0
            },
            {
                "start_time": 155.43636363636364,
                "end_time": 155.60454545454544,
                "pitch": 66,
                "velocity": 64,
                "duration": 0.16818181818180733,
                "tempo": 120.0
            },
            {
                "start_time": 155.63863636363635,
                "end_time": 155.70454545454544,
                "pitch": 69,
                "velocity": 64,
                "duration": 0.06590909090908781,
                "tempo": 120.0
            },
            {
                "start_time": 155.73863636363635,
                "end_time": 155.90681818181818,
                "pitch": 0,
                "velocity": 64,
                "duration": 0.16818181818183575,
                "tempo": 120.0
            },
            {
                "start_time": 155.9409090909091,
                "end_time": 156.10681818181817,
                "pitch": 66,
                "velocity": 64,
                "duration": 0.16590909090908212,
                "tempo": 120.0
            },
            {
                "start_time": 156.14090909090908,
                "end_time": 156.31136363636364,
                "pitch": 66,
                "velocity": 64,
                "duration": 0.17045454545456096,
                "tempo": 120.0
            },
            {
                "start_time": 156.34545454545454,
                "end_time": 156.51590909090908,
                "pitch": 69,
                "velocity": 64,
                "duration": 0.17045454545453254,
                "tempo": 120.0
            },
            {
                "start_time": 156.54999999999998,
                "end_time": 156.61818181818182,
                "pitch": 0,
                "velocity": 64,
                "duration": 0.06818181818184144,
                "tempo": 120.0
            },
            {
                "start_time": 156.65227272727273,
                "end_time": 156.7159090909091,
                "pitch": 66,
                "velocity": 64,
                "duration": 0.0636363636363626,
                "tempo": 120.0
            },
            {
                "start_time": 156.75,
                "end_time": 156.81363636363636,
                "pitch": 66,
                "velocity": 64,
                "duration": 0.0636363636363626,
                "tempo": 120.0
            },
            {
                "start_time": 156.84772727272727,
                "end_time": 157.01136363636363,
                "pitch": 67,
                "velocity": 64,
                "duration": 0.16363636363635692,
                "tempo": 120.0
            },
            {
                "start_time": 157.04545454545453,
                "end_time": 157.21363636363637,
                "pitch": 69,
                "velocity": 64,
                "duration": 0.16818181818183575,
                "tempo": 120.0
            },
            {
                "start_time": 157.24545454545455,
                "end_time": 157.31363636363636,
                "pitch": 72,
                "velocity": 64,
                "duration": 0.06818181818181301,
                "tempo": 120.0
            },
            {
                "start_time": 157.34772727272727,
                "end_time": 157.51363636363635,
                "pitch": 0,
                "velocity": 64,
                "duration": 0.16590909090908212,
                "tempo": 120.0
            },
            {
                "start_time": 157.54772727272726,
                "end_time": 157.7159090909091,
                "pitch": 69,
                "velocity": 64,
                "duration": 0.16818181818183575,
                "tempo": 120.0
            },
            {
                "start_time": 157.75,
                "end_time": 157.92045454545453,
                "pitch": 69,
                "velocity": 64,
                "duration": 0.17045454545453254,
                "tempo": 120.0
            },
            {
                "start_time": 157.95454545454544,
                "end_time": 158.125,
                "pitch": 72,
                "velocity": 64,
                "duration": 0.17045454545456096,
                "tempo": 120.0
            },
            {
                "start_time": 158.1590909090909,
                "end_time": 158.22727272727272,
                "pitch": 0,
                "velocity": 64,
                "duration": 0.06818181818181301,
                "tempo": 120.0
            },
            {
                "start_time": 158.2590909090909,
                "end_time": 158.325,
                "pitch": 69,
                "velocity": 64,
                "duration": 0.06590909090908781,
                "tempo": 120.0
            },
            {
                "start_time": 158.35681818181817,
                "end_time": 158.42272727272726,
                "pitch": 69,
                "velocity": 64,
                "duration": 0.06590909090908781,
                "tempo": 120.0
            },
            {
                "start_time": 158.45681818181816,
                "end_time": 158.62045454545455,
                "pitch": 67,
                "velocity": 64,
                "duration": 0.16363636363638534,
                "tempo": 120.0
            },
            {
                "start_time": 158.65227272727273,
                "end_time": 158.82045454545454,
                "pitch": 66,
                "velocity": 64,
                "duration": 0.16818181818180733,
                "tempo": 120.0
            },
            {
                "start_time": 158.85454545454544,
                "end_time": 158.92045454545453,
                "pitch": 69,
                "velocity": 64,
                "duration": 0.06590909090908781,
                "tempo": 120.0
            },
            {
                "start_time": 158.95454545454544,
                "end_time": 159.12272727272727,
                "pitch": 0,
                "velocity": 64,
                "duration": 0.16818181818183575,
                "tempo": 120.0
            },
            {
                "start_time": 159.15681818181818,
                "end_time": 159.325,
                "pitch": 66,
                "velocity": 64,
                "duration": 0.16818181818180733,
                "tempo": 120.0
            },
            {
                "start_time": 159.35681818181817,
                "end_time": 159.525,
                "pitch": 66,
                "velocity": 64,
                "duration": 0.16818181818183575,
                "tempo": 120.0
            },
            {
                "start_time": 159.5590909090909,
                "end_time": 159.72727272727272,
                "pitch": 69,
                "velocity": 64,
                "duration": 0.16818181818180733,
                "tempo": 120.0
            },
            {
                "start_time": 159.76136363636363,
                "end_time": 159.8272727272727,
                "pitch": 0,
                "velocity": 64,
                "duration": 0.06590909090908781,
                "tempo": 120.0
            },
            {
                "start_time": 159.86136363636362,
                "end_time": 159.9272727272727,
                "pitch": 74,
                "velocity": 64,
                "duration": 0.06590909090908781,
                "tempo": 120.0
            },
            {
                "start_time": 159.96136363636361,
                "end_time": 160.02954545454546,
                "pitch": 74,
                "velocity": 64,
                "duration": 0.06818181818184144,
                "tempo": 120.0
            },
            {
                "start_time": 160.06363636363636,
                "end_time": 160.22954545454544,
                "pitch": 67,
                "velocity": 64,
                "duration": 0.16590909090908212,
                "tempo": 120.0
            },
            {
                "start_time": 160.26363636363635,
                "end_time": 160.42954545454543,
                "pitch": 69,
                "velocity": 64,
                "duration": 0.16590909090908212,
                "tempo": 120.0
            },
            {
                "start_time": 160.46363636363637,
                "end_time": 160.52954545454546,
                "pitch": 72,
                "velocity": 64,
                "duration": 0.06590909090908781,
                "tempo": 120.0
            },
            {
                "start_time": 160.56363636363636,
                "end_time": 160.73181818181817,
                "pitch": 0,
                "velocity": 64,
                "duration": 0.16818181818180733,
                "tempo": 120.0
            },
            {
                "start_time": 160.76363636363635,
                "end_time": 160.9318181818182,
                "pitch": 69,
                "velocity": 64,
                "duration": 0.16818181818183575,
                "tempo": 120.0
            },
            {
                "start_time": 160.9659090909091,
                "end_time": 161.13636363636363,
                "pitch": 69,
                "velocity": 64,
                "duration": 0.17045454545453254,
                "tempo": 120.0
            },
            {
                "start_time": 161.17045454545453,
                "end_time": 161.3409090909091,
                "pitch": 72,
                "velocity": 64,
                "duration": 0.17045454545456096,
                "tempo": 120.0
            },
            {
                "start_time": 161.375,
                "end_time": 161.4431818181818,
                "pitch": 0,
                "velocity": 64,
                "duration": 0.06818181818181301,
                "tempo": 120.0
            },
            {
                "start_time": 161.475,
                "end_time": 161.54090909090908,
                "pitch": 69,
                "velocity": 64,
                "duration": 0.06590909090908781,
                "tempo": 120.0
            },
            {
                "start_time": 161.575,
                "end_time": 161.63863636363635,
                "pitch": 69,
                "velocity": 64,
                "duration": 0.0636363636363626,
                "tempo": 120.0
            },
            {
                "start_time": 161.67272727272726,
                "end_time": 161.83636363636361,
                "pitch": 55,
                "velocity": 64,
                "duration": 0.16363636363635692,
                "tempo": 120.0
            },
            {
                "start_time": 161.87045454545455,
                "end_time": 162.03636363636363,
                "pitch": 66,
                "velocity": 64,
                "duration": 0.16590909090908212,
                "tempo": 120.0
            },
            {
                "start_time": 162.07045454545454,
                "end_time": 162.13863636363635,
                "pitch": 69,
                "velocity": 64,
                "duration": 0.06818181818181301,
                "tempo": 120.0
            },
            {
                "start_time": 162.17045454545453,
                "end_time": 162.33863636363637,
                "pitch": 0,
                "velocity": 64,
                "duration": 0.16818181818183575,
                "tempo": 120.0
            },
            {
                "start_time": 162.37272727272727,
                "end_time": 162.53863636363636,
                "pitch": 66,
                "velocity": 64,
                "duration": 0.16590909090908212,
                "tempo": 120.0
            },
            {
                "start_time": 162.57272727272726,
                "end_time": 162.74090909090907,
                "pitch": 66,
                "velocity": 64,
                "duration": 0.16818181818180733,
                "tempo": 120.0
            },
            {
                "start_time": 162.775,
                "end_time": 162.94772727272726,
                "pitch": 69,
                "velocity": 64,
                "duration": 0.17272727272725774,
                "tempo": 120.0
            },
            {
                "start_time": 162.98181818181817,
                "end_time": 163.04772727272726,
                "pitch": 0,
                "velocity": 64,
                "duration": 0.06590909090908781,
                "tempo": 120.0
            },
            {
                "start_time": 163.08181818181816,
                "end_time": 163.14772727272725,
                "pitch": 66,
                "velocity": 64,
                "duration": 0.06590909090908781,
                "tempo": 120.0
            },
            {
                "start_time": 163.17954545454543,
                "end_time": 163.24545454545455,
                "pitch": 66,
                "velocity": 64,
                "duration": 0.06590909090911623,
                "tempo": 120.0
            },
            {
                "start_time": 163.27727272727273,
                "end_time": 163.4409090909091,
                "pitch": 67,
                "velocity": 64,
                "duration": 0.16363636363635692,
                "tempo": 120.0
            },
            {
                "start_time": 163.475,
                "end_time": 163.6431818181818,
                "pitch": 69,
                "velocity": 64,
                "duration": 0.16818181818180733,
                "tempo": 120.0
            },
            {
                "start_time": 163.6772727272727,
                "end_time": 163.74318181818182,
                "pitch": 72,
                "velocity": 64,
                "duration": 0.06590909090911623,
                "tempo": 120.0
            },
            {
                "start_time": 163.77727272727273,
                "end_time": 163.94545454545454,
                "pitch": 0,
                "velocity": 64,
                "duration": 0.16818181818180733,
                "tempo": 120.0
            },
            {
                "start_time": 163.97727272727272,
                "end_time": 164.14545454545453,
                "pitch": 69,
                "velocity": 64,
                "duration": 0.16818181818180733,
                "tempo": 120.0
            },
            {
                "start_time": 164.17954545454543,
                "end_time": 164.34772727272727,
                "pitch": 69,
                "velocity": 64,
                "duration": 0.16818181818183575,
                "tempo": 120.0
            },
            {
                "start_time": 164.37954545454545,
                "end_time": 164.54772727272726,
                "pitch": 72,
                "velocity": 64,
                "duration": 0.16818181818180733,
                "tempo": 120.0
            },
            {
                "start_time": 164.57954545454544,
                "end_time": 164.64772727272725,
                "pitch": 0,
                "velocity": 64,
                "duration": 0.06818181818181301,
                "tempo": 120.0
            },
            {
                "start_time": 164.67954545454543,
                "end_time": 164.74772727272727,
                "pitch": 69,
                "velocity": 64,
                "duration": 0.06818181818184144,
                "tempo": 120.0
            },
            {
                "start_time": 164.78181818181818,
                "end_time": 164.84772727272727,
                "pitch": 69,
                "velocity": 64,
                "duration": 0.06590909090908781,
                "tempo": 120.0
            },
            {
                "start_time": 164.88181818181818,
                "end_time": 165.04999999999998,
                "pitch": 55,
                "velocity": 64,
                "duration": 0.16818181818180733,
                "tempo": 120.0
            },
            {
                "start_time": 165.0840909090909,
                "end_time": 165.25,
                "pitch": 66,
                "velocity": 64,
                "duration": 0.16590909090911055,
                "tempo": 120.0
            },
            {
                "start_time": 165.2840909090909,
                "end_time": 165.35227272727272,
                "pitch": 69,
                "velocity": 64,
                "duration": 0.06818181818181301,
                "tempo": 120.0
            },
            {
                "start_time": 165.3840909090909,
                "end_time": 165.5522727272727,
                "pitch": 0,
                "velocity": 64,
                "duration": 0.16818181818180733,
                "tempo": 120.0
            },
            {
                "start_time": 165.58636363636361,
                "end_time": 165.75454545454545,
                "pitch": 66,
                "velocity": 64,
                "duration": 0.16818181818183575,
                "tempo": 120.0
            },
            {
                "start_time": 165.78863636363636,
                "end_time": 165.85454545454544,
                "pitch": 66,
                "velocity": 64,
                "duration": 0.06590909090908781,
                "tempo": 120.0
            },
            {
                "start_time": 165.88636363636363,
                "end_time": 165.9840909090909,
                "pitch": 0,
                "velocity": 64,
                "duration": 0.09772727272726911,
                "tempo": 120.0
            },
            {
                "start_time": 166.0181818181818,
                "end_time": 166.11590909090907,
                "pitch": 74,
                "velocity": 64,
                "duration": 0.09772727272726911,
                "tempo": 120.0
            },
            {
                "start_time": 166.14772727272725,
                "end_time": 166.24772727272727,
                "pitch": 74,
                "velocity": 64,
                "duration": 0.10000000000002274,
                "tempo": 120.0
            },
            {
                "start_time": 166.28181818181818,
                "end_time": 166.3840909090909,
                "pitch": 74,
                "velocity": 64,
                "duration": 0.10227272727271952,
                "tempo": 120.0
            },
            {
                "start_time": 166.4181818181818,
                "end_time": 166.52045454545453,
                "pitch": 74,
                "velocity": 64,
                "duration": 0.10227272727271952,
                "tempo": 120.0
            },
            {
                "start_time": 166.55454545454543,
                "end_time": 166.65681818181818,
                "pitch": 74,
                "velocity": 64,
                "duration": 0.10227272727274794,
                "tempo": 120.0
            },
            {
                "start_time": 166.6909090909091,
                "end_time": 166.7590909090909,
                "pitch": 0,
                "velocity": 64,
                "duration": 0.06818181818181301,
                "tempo": 120.0
            },
            {
                "start_time": 166.79090909090908,
                "end_time": 166.8590909090909,
                "pitch": 57,
                "velocity": 64,
                "duration": 0.06818181818181301,
                "tempo": 120.0
            },
            {
                "start_time": 166.8931818181818,
                "end_time": 166.9590909090909,
                "pitch": 0,
                "velocity": 64,
                "duration": 0.06590909090908781,
                "tempo": 120.0
            },
            {
                "start_time": 166.9931818181818,
                "end_time": 167.05454545454543,
                "pitch": 60,
                "velocity": 64,
                "duration": 0.0613636363636374,
                "tempo": 120.0
            },
            {
                "start_time": 167.0840909090909,
                "end_time": 167.14545454545453,
                "pitch": 0,
                "velocity": 64,
                "duration": 0.0613636363636374,
                "tempo": 120.0
            },
            {
                "start_time": 167.17499999999998,
                "end_time": 167.23636363636362,
                "pitch": 62,
                "velocity": 64,
                "duration": 0.0613636363636374,
                "tempo": 120.0
            },
            {
                "start_time": 167.26590909090908,
                "end_time": 167.325,
                "pitch": 0,
                "velocity": 64,
                "duration": 0.05909090909091219,
                "tempo": 120.0
            },
            {
                "start_time": 167.35681818181817,
                "end_time": 167.42272727272726,
                "pitch": 64,
                "velocity": 64,
                "duration": 0.06590909090908781,
                "tempo": 120.0
            },
            {
                "start_time": 167.45454545454544,
                "end_time": 167.52272727272725,
                "pitch": 0,
                "velocity": 64,
                "duration": 0.06818181818181301,
                "tempo": 120.0
            },
            {
                "start_time": 167.5568181818182,
                "end_time": 167.62272727272727,
                "pitch": 62,
                "velocity": 64,
                "duration": 0.06590909090908781,
                "tempo": 120.0
            },
            {
                "start_time": 167.65681818181818,
                "end_time": 167.72272727272727,
                "pitch": 0,
                "velocity": 64,
                "duration": 0.06590909090908781,
                "tempo": 120.0
            },
            {
                "start_time": 167.75681818181818,
                "end_time": 167.82045454545454,
                "pitch": 64,
                "velocity": 64,
                "duration": 0.0636363636363626,
                "tempo": 120.0
            },
            {
                "start_time": 167.85227272727272,
                "end_time": 167.91590909090908,
                "pitch": 0,
                "velocity": 64,
                "duration": 0.0636363636363626,
                "tempo": 120.0
            },
            {
                "start_time": 167.94772727272726,
                "end_time": 168.01136363636363,
                "pitch": 67,
                "velocity": 64,
                "duration": 0.0636363636363626,
                "tempo": 120.0
            },
            {
                "start_time": 168.0431818181818,
                "end_time": 168.10681818181817,
                "pitch": 0,
                "velocity": 64,
                "duration": 0.0636363636363626,
                "tempo": 120.0
            },
            {
                "start_time": 168.13636363636363,
                "end_time": 168.19772727272726,
                "pitch": 69,
                "velocity": 64,
                "duration": 0.0613636363636374,
                "tempo": 120.0
            },
            {
                "start_time": 168.22727272727272,
                "end_time": 168.28636363636363,
                "pitch": 0,
                "velocity": 64,
                "duration": 0.05909090909091219,
                "tempo": 120.0
            },
            {
                "start_time": 168.3181818181818,
                "end_time": 168.37727272727273,
                "pitch": 69,
                "velocity": 64,
                "duration": 0.05909090909091219,
                "tempo": 120.0
            },
            {
                "start_time": 168.40681818181818,
                "end_time": 168.47045454545454,
                "pitch": 0,
                "velocity": 64,
                "duration": 0.0636363636363626,
                "tempo": 120.0
            },
            {
                "start_time": 168.50227272727273,
                "end_time": 168.57045454545454,
                "pitch": 72,
                "velocity": 64,
                "duration": 0.06818181818181301,
                "tempo": 120.0
            },
            {
                "start_time": 168.60454545454544,
                "end_time": 168.67045454545453,
                "pitch": 0,
                "velocity": 64,
                "duration": 0.06590909090908781,
                "tempo": 120.0
            },
            {
                "start_time": 168.70454545454544,
                "end_time": 168.77045454545453,
                "pitch": 74,
                "velocity": 64,
                "duration": 0.06590909090908781,
                "tempo": 120.0
            },
            {
                "start_time": 168.80454545454543,
                "end_time": 168.87272727272727,
                "pitch": 0,
                "velocity": 64,
                "duration": 0.06818181818184144,
                "tempo": 120.0
            },
            {
                "start_time": 168.90681818181818,
                "end_time": 168.97272727272727,
                "pitch": 76,
                "velocity": 64,
                "duration": 0.06590909090908781,
                "tempo": 120.0
            },
            {
                "start_time": 169.00681818181818,
                "end_time": 169.07272727272726,
                "pitch": 0,
                "velocity": 64,
                "duration": 0.06590909090908781,
                "tempo": 120.0
            },
            {
                "start_time": 169.10681818181817,
                "end_time": 169.17499999999998,
                "pitch": 79,
                "velocity": 64,
                "duration": 0.06818181818181301,
                "tempo": 120.0
            },
            {
                "start_time": 169.20681818181816,
                "end_time": 169.275,
                "pitch": 0,
                "velocity": 64,
                "duration": 0.06818181818184144,
                "tempo": 120.0
            },
            {
                "start_time": 169.3068181818182,
                "end_time": 169.37272727272727,
                "pitch": 80,
                "velocity": 64,
                "duration": 0.06590909090908781,
                "tempo": 120.0
            },
            {
                "start_time": 169.40454545454546,
                "end_time": 169.47045454545454,
                "pitch": 0,
                "velocity": 64,
                "duration": 0.06590909090908781,
                "tempo": 120.0
            },
            {
                "start_time": 169.50227272727273,
                "end_time": 170.98181818181817,
                "pitch": 81,
                "velocity": 64,
                "duration": 1.4795454545454447,
                "tempo": 120.0
            },
            {
                "start_time": 171.01590909090908,
                "end_time": 171.48863636363635,
                "pitch": 0,
                "velocity": 64,
                "duration": 0.4727272727272691,
                "tempo": 120.0
            },
            {
                "start_time": 171.52272727272725,
                "end_time": 171.5909090909091,
                "pitch": 84,
                "velocity": 64,
                "duration": 0.06818181818184144,
                "tempo": 120.0
            },
            {
                "start_time": 171.625,
                "end_time": 171.69545454545454,
                "pitch": 0,
                "velocity": 64,
                "duration": 0.07045454545453822,
                "tempo": 120.0
            },
            {
                "start_time": 171.72954545454544,
                "end_time": 171.8022727272727,
                "pitch": 84,
                "velocity": 64,
                "duration": 0.07272727272726343,
                "tempo": 120.0
            },
            {
                "start_time": 171.83863636363637,
                "end_time": 172.1340909090909,
                "pitch": 0,
                "velocity": 64,
                "duration": 0.29545454545453254,
                "tempo": 120.0
            },
            {
                "start_time": 172.17045454545453,
                "end_time": 172.23636363636362,
                "pitch": 86,
                "velocity": 64,
                "duration": 0.06590909090908781,
                "tempo": 120.0
            },
            {
                "start_time": 172.27045454545453,
                "end_time": 172.33863636363637,
                "pitch": 0,
                "velocity": 64,
                "duration": 0.06818181818184144,
                "tempo": 120.0
            },
            {
                "start_time": 172.37045454545455,
                "end_time": 172.43863636363636,
                "pitch": 86,
                "velocity": 64,
                "duration": 0.06818181818181301,
                "tempo": 120.0
            },
            {
                "start_time": 172.47272727272727,
                "end_time": 173.1818181818182,
                "pitch": 0,
                "velocity": 64,
                "duration": 0.7090909090909179,
                "tempo": 120.0
            },
            {
                "start_time": 173.2159090909091,
                "end_time": 173.28181818181818,
                "pitch": 86,
                "velocity": 64,
                "duration": 0.06590909090908781,
                "tempo": 120.0
            },
            {
                "start_time": 173.3159090909091,
                "end_time": 173.3840909090909,
                "pitch": 0,
                "velocity": 64,
                "duration": 0.06818181818181301,
                "tempo": 120.0
            },
            {
                "start_time": 173.41590909090908,
                "end_time": 173.4840909090909,
                "pitch": 86,
                "velocity": 64,
                "duration": 0.06818181818181301,
                "tempo": 120.0
            },
            {
                "start_time": 173.5181818181818,
                "end_time": 173.79999999999998,
                "pitch": 0,
                "velocity": 64,
                "duration": 0.2818181818181813,
                "tempo": 120.0
            },
            {
                "start_time": 173.83636363636361,
                "end_time": 173.90681818181818,
                "pitch": 88,
                "velocity": 64,
                "duration": 0.07045454545456664,
                "tempo": 120.0
            },
            {
                "start_time": 173.9409090909091,
                "end_time": 174.00681818181818,
                "pitch": 0,
                "velocity": 64,
                "duration": 0.06590909090908781,
                "tempo": 120.0
            },
            {
                "start_time": 174.04090909090908,
                "end_time": 174.10681818181817,
                "pitch": 88,
                "velocity": 64,
                "duration": 0.06590909090908781,
                "tempo": 120.0
            },
            {
                "start_time": 174.14090909090908,
                "end_time": 174.8022727272727,
                "pitch": 0,
                "velocity": 64,
                "duration": 0.6613636363636317,
                "tempo": 120.0
            },
            {
                "start_time": 174.83636363636361,
                "end_time": 174.90227272727273,
                "pitch": 84,
                "velocity": 64,
                "duration": 0.06590909090911623,
                "tempo": 120.0
            },
            {
                "start_time": 174.93636363636364,
                "end_time": 175.00227272727273,
                "pitch": 0,
                "velocity": 64,
                "duration": 0.06590909090908781,
                "tempo": 120.0
            },
            {
                "start_time": 175.03636363636363,
                "end_time": 175.10454545454544,
                "pitch": 84,
                "velocity": 64,
                "duration": 0.06818181818181301,
                "tempo": 120.0
            },
            {
                "start_time": 175.13863636363635,
                "end_time": 175.41136363636363,
                "pitch": 0,
                "velocity": 64,
                "duration": 0.2727272727272805,
                "tempo": 120.0
            },
            {
                "start_time": 175.44545454545454,
                "end_time": 175.51363636363635,
                "pitch": 86,
                "velocity": 64,
                "duration": 0.06818181818181301,
                "tempo": 120.0
            },
            {
                "start_time": 175.54545454545453,
                "end_time": 175.6090909090909,
                "pitch": 0,
                "velocity": 64,
                "duration": 0.0636363636363626,
                "tempo": 120.0
            },
            {
                "start_time": 175.64090909090908,
                "end_time": 175.70454545454544,
                "pitch": 86,
                "velocity": 64,
                "duration": 0.0636363636363626,
                "tempo": 120.0
            },
            {
                "start_time": 175.73636363636362,
                "end_time": 176.40454545454546,
                "pitch": 0,
                "velocity": 64,
                "duration": 0.6681818181818358,
                "tempo": 120.0
            },
            {
                "start_time": 176.43636363636364,
                "end_time": 176.50227272727273,
                "pitch": 86,
                "velocity": 64,
                "duration": 0.06590909090908781,
                "tempo": 120.0
            },
            {
                "start_time": 176.5340909090909,
                "end_time": 176.6,
                "pitch": 0,
                "velocity": 64,
                "duration": 0.06590909090908781,
                "tempo": 120.0
            },
            {
                "start_time": 176.63181818181818,
                "end_time": 176.69772727272726,
                "pitch": 86,
                "velocity": 64,
                "duration": 0.06590909090908781,
                "tempo": 120.0
            },
            {
                "start_time": 176.7340909090909,
                "end_time": 177.01590909090908,
                "pitch": 0,
                "velocity": 64,
                "duration": 0.2818181818181813,
                "tempo": 120.0
            },
            {
                "start_time": 177.04999999999998,
                "end_time": 177.12045454545455,
                "pitch": 88,
                "velocity": 64,
                "duration": 0.07045454545456664,
                "tempo": 120.0
            },
            {
                "start_time": 177.15454545454546,
                "end_time": 177.22045454545454,
                "pitch": 0,
                "velocity": 64,
                "duration": 0.06590909090908781,
                "tempo": 120.0
            },
            {
                "start_time": 177.25454545454545,
                "end_time": 177.32045454545454,
                "pitch": 88,
                "velocity": 64,
                "duration": 0.06590909090908781,
                "tempo": 120.0
            },
            {
                "start_time": 177.35454545454544,
                "end_time": 177.6181818181818,
                "pitch": 0,
                "velocity": 64,
                "duration": 0.26363636363635123,
                "tempo": 120.0
            },
            {
                "start_time": 177.65227272727273,
                "end_time": 179.52954545454546,
                "pitch": 86,
                "velocity": 64,
                "duration": 1.8772727272727252,
                "tempo": 120.0
            }
        ]
    }
}