{
    "track_id": "Out Run (FM) - 03 - Splash Wave",
    "mood": "happy",
    "instruments": {
        "Trumpet": [
            {
                "start_time": 0.0,
                "end_time": 0.1659090909090909,
                "pitch": 64,
                "velocity": 80,
                "duration": 0.1659090909090909,
                "tempo": 120.0
            },
            {
                "start_time": 0.19999999999999998,
                "end_time": 0.3659090909090909,
                "pitch": 71,
                "velocity": 80,
                "duration": 0.16590909090909092,
                "tempo": 120.0
            },
            {
                "start_time": 0.39999999999999997,
                "end_time": 0.5636363636363636,
                "pitch": 76,
                "velocity": 80,
                "duration": 0.16363636363636364,
                "tempo": 120.0
            },
            {
                "start_time": 0.5954545454545455,
                "end_time": 0.759090909090909,
                "pitch": 64,
                "velocity": 80,
                "duration": 0.16363636363636358,
                "tempo": 120.0
            },
            {
                "start_time": 0.7931818181818181,
                "end_time": 0.959090909090909,
                "pitch": 71,
                "velocity": 80,
                "duration": 0.1659090909090909,
                "tempo": 120.0
            },
            {
                "start_time": 0.9931818181818182,
                "end_time": 1.159090909090909,
                "pitch": 76,
                "velocity": 80,
                "duration": 0.16590909090909078,
                "tempo": 120.0
            },
            {
                "start_time": 1.190909090909091,
                "end_time": 1.3545454545454545,
                "pitch": 64,
                "velocity": 80,
                "duration": 0.16363636363636358,
                "tempo": 120.0
            },
            {
                "start_time": 1.3886363636363637,
                "end_time": 1.5522727272727272,
                "pitch": 71,
                "velocity": 80,
                "duration": 0.16363636363636358,
                "tempo": 120.0
            },
            {
                "start_time": 1.584090909090909,
                "end_time": 1.7545454545454544,
                "pitch": 76,
                "velocity": 80,
                "duration": 0.17045454545454541,
                "tempo": 120.0
            },
            {
                "start_time": 1.7909090909090908,
                "end_time": 1.9613636363636362,
                "pitch": 64,
                "velocity": 80,
                "duration": 0.17045454545454541,
                "tempo": 120.0
            },
            {
                "start_time": 1.9954545454545454,
                "end_time": 2.161363636363636,
                "pitch": 71,
                "velocity": 80,
                "duration": 0.16590909090909078,
                "tempo": 120.0
            },
            {
                "start_time": 2.1954545454545453,
                "end_time": 2.3613636363636363,
                "pitch": 76,
                "velocity": 80,
                "duration": 0.165909090909091,
                "tempo": 120.0
            },
            {
                "start_time": 2.3954545454545455,
                "end_time": 2.5636363636363635,
                "pitch": 64,
                "velocity": 80,
                "duration": 0.168181818181818,
                "tempo": 120.0
            },
            {
                "start_time": 2.5954545454545452,
                "end_time": 2.7636363636363637,
                "pitch": 71,
                "velocity": 80,
                "duration": 0.16818181818181843,
                "tempo": 120.0
            },
            {
                "start_time": 2.7977272727272724,
                "end_time": 2.9636363636363634,
                "pitch": 76,
                "velocity": 80,
                "duration": 0.165909090909091,
                "tempo": 120.0
            },
            {
                "start_time": 2.9977272727272726,
                "end_time": 3.1636363636363636,
                "pitch": 71,
                "velocity": 80,
                "duration": 0.165909090909091,
                "tempo": 120.0
            },
            {
                "start_time": 3.1977272727272728,
                "end_time": 3.3636363636363633,
                "pitch": 62,
                "velocity": 80,
                "duration": 0.16590909090909056,
                "tempo": 120.0
            },
            {
                "start_time": 3.3977272727272725,
                "end_time": 3.5636363636363635,
                "pitch": 69,
                "velocity": 80,
                "duration": 0.165909090909091,
                "tempo": 120.0
            },
            {
                "start_time": 3.5977272727272727,
                "end_time": 3.7636363636363637,
                "pitch": 74,
                "velocity": 80,
                "duration": 0.165909090909091,
                "tempo": 120.0
            },
            {
                "start_time": 3.7977272727272724,
                "end_time": 3.9636363636363634,
                "pitch": 62,
                "velocity": 80,
                "duration": 0.165909090909091,
                "tempo": 120.0
            },
            {
                "start_time": 3.9977272727272726,
                "end_time": 4.165909090909091,
                "pitch": 69,
                "velocity": 80,
                "duration": 0.16818181818181843,
                "tempo": 120.0
            },
            {
                "start_time": 4.2,
                "end_time": 4.36590909090909,
                "pitch": 74,
                "velocity": 80,
                "duration": 0.16590909090909012,
                "tempo": 120.0
            },
            {
                "start_time": 4.3999999999999995,
                "end_time": 4.5636363636363635,
                "pitch": 62,
                "velocity": 80,
                "duration": 0.16363636363636402,
                "tempo": 120.0
            },
            {
                "start_time": 4.595454545454545,
                "end_time": 4.759090909090909,
                "pitch": 69,
                "velocity": 80,
                "duration": 0.16363636363636402,
                "tempo": 120.0
            },
            {
                "start_time": 4.793181818181818,
                "end_time": 4.963636363636363,
                "pitch": 74,
                "velocity": 80,
                "duration": 0.17045454545454497,
                "tempo": 120.0
            },
            {
                "start_time": 4.997727272727272,
                "end_time": 5.170454545454545,
                "pitch": 62,
                "velocity": 80,
                "duration": 0.17272727272727284,
                "tempo": 120.0
            },
            {
                "start_time": 5.202272727272727,
                "end_time": 5.370454545454545,
                "pitch": 69,
                "velocity": 80,
                "duration": 0.168181818181818,
                "tempo": 120.0
            },
            {
                "start_time": 5.404545454545454,
                "end_time": 5.572727272727272,
                "pitch": 74,
                "velocity": 80,
                "duration": 0.168181818181818,
                "tempo": 120.0
            },
            {
                "start_time": 5.6068181818181815,
                "end_time": 5.7727272727272725,
                "pitch": 62,
                "velocity": 80,
                "duration": 0.165909090909091,
                "tempo": 120.0
            },
            {
                "start_time": 5.806818181818182,
                "end_time": 5.972727272727273,
                "pitch": 69,
                "velocity": 80,
                "duration": 0.165909090909091,
                "tempo": 120.0
            },
            {
                "start_time": 6.006818181818182,
                "end_time": 6.172727272727273,
                "pitch": 72,
                "velocity": 80,
                "duration": 0.165909090909091,
                "tempo": 120.0
            },
            {
                "start_time": 6.206818181818181,
                "end_time": 6.375,
                "pitch": 74,
                "velocity": 80,
                "duration": 0.16818181818181888,
                "tempo": 120.0
            },
            {
                "start_time": 6.409090909090909,
                "end_time": 6.574999999999999,
                "pitch": 64,
                "velocity": 80,
                "duration": 0.16590909090909012,
                "tempo": 120.0
            },
            {
                "start_time": 6.6090909090909085,
                "end_time": 6.7749999999999995,
                "pitch": 71,
                "velocity": 80,
                "duration": 0.165909090909091,
                "tempo": 120.0
            },
            {
                "start_time": 6.809090909090909,
                "end_time": 6.977272727272727,
                "pitch": 76,
                "velocity": 80,
                "duration": 0.168181818181818,
                "tempo": 120.0
            },
            {
                "start_time": 7.009090909090909,
                "end_time": 7.177272727272727,
                "pitch": 64,
                "velocity": 80,
                "duration": 0.168181818181818,
                "tempo": 120.0
            },
            {
                "start_time": 7.211363636363636,
                "end_time": 7.375,
                "pitch": 71,
                "velocity": 80,
                "duration": 0.16363636363636402,
                "tempo": 120.0
            },
            {
                "start_time": 7.406818181818181,
                "end_time": 7.570454545454545,
                "pitch": 76,
                "velocity": 80,
                "duration": 0.16363636363636402,
                "tempo": 120.0
            },
            {
                "start_time": 7.6045454545454545,
                "end_time": 7.7749999999999995,
                "pitch": 64,
                "velocity": 80,
                "duration": 0.17045454545454497,
                "tempo": 120.0
            },
            {
                "start_time": 7.809090909090909,
                "end_time": 7.9795454545454545,
                "pitch": 71,
                "velocity": 80,
                "duration": 0.17045454545454586,
                "tempo": 120.0
            },
            {
                "start_time": 8.013636363636364,
                "end_time": 8.181818181818182,
                "pitch": 76,
                "velocity": 80,
                "duration": 0.168181818181818,
                "tempo": 120.0
            },
            {
                "start_time": 8.21590909090909,
                "end_time": 8.384090909090908,
                "pitch": 64,
                "velocity": 80,
                "duration": 0.168181818181818,
                "tempo": 120.0
            },
            {
                "start_time": 8.415909090909091,
                "end_time": 8.584090909090909,
                "pitch": 71,
                "velocity": 80,
                "duration": 0.168181818181818,
                "tempo": 120.0
            },
            {
                "start_time": 8.618181818181817,
                "end_time": 8.786363636363635,
                "pitch": 76,
                "velocity": 80,
                "duration": 0.168181818181818,
                "tempo": 120.0
            },
            {
                "start_time": 8.820454545454545,
                "end_time": 8.986363636363636,
                "pitch": 64,
                "velocity": 80,
                "duration": 0.165909090909091,
                "tempo": 120.0
            },
            {
                "start_time": 9.020454545454545,
                "end_time": 9.186363636363636,
                "pitch": 71,
                "velocity": 80,
                "duration": 0.165909090909091,
                "tempo": 120.0
            },
            {
                "start_time": 9.220454545454546,
                "end_time": 9.386363636363637,
                "pitch": 76,
                "velocity": 80,
                "duration": 0.165909090909091,
                "tempo": 120.0
            },
            {
                "start_time": 9.420454545454545,
                "end_time": 9.588636363636363,
                "pitch": 71,
                "velocity": 80,
                "duration": 0.168181818181818,
                "tempo": 120.0
            },
            {
                "start_time": 9.622727272727273,
                "end_time": 9.790909090909091,
                "pitch": 62,
                "velocity": 80,
                "duration": 0.168181818181818,
                "tempo": 120.0
            },
            {
                "start_time": 9.822727272727272,
                "end_time": 9.99090909090909,
                "pitch": 69,
                "velocity": 80,
                "duration": 0.168181818181818,
                "tempo": 120.0
            },
            {
                "start_time": 10.025,
                "end_time": 10.193181818181818,
                "pitch": 74,
                "velocity": 80,
                "duration": 0.168181818181818,
                "tempo": 120.0
            },
            {
                "start_time": 10.227272727272727,
                "end_time": 10.393181818181818,
                "pitch": 62,
                "velocity": 80,
                "duration": 0.165909090909091,
                "tempo": 120.0
            },
            {
                "start_time": 10.427272727272726,
                "end_time": 10.595454545454546,
                "pitch": 69,
                "velocity": 80,
                "duration": 0.16818181818181976,
                "tempo": 120.0
            },
            {
                "start_time": 10.629545454545454,
                "end_time": 10.797727272727272,
                "pitch": 74,
                "velocity": 80,
                "duration": 0.168181818181818,
                "tempo": 120.0
            },
            {
                "start_time": 10.829545454545453,
                "end_time": 10.993181818181817,
                "pitch": 62,
                "velocity": 80,
                "duration": 0.16363636363636402,
                "tempo": 120.0
            },
            {
                "start_time": 11.024999999999999,
                "end_time": 11.188636363636363,
                "pitch": 69,
                "velocity": 80,
                "duration": 0.16363636363636402,
                "tempo": 120.0
            },
            {
                "start_time": 11.222727272727273,
                "end_time": 11.39090909090909,
                "pitch": 74,
                "velocity": 80,
                "duration": 0.168181818181818,
                "tempo": 120.0
            },
            {
                "start_time": 11.424999999999999,
                "end_time": 11.59090909090909,
                "pitch": 62,
                "velocity": 80,
                "duration": 0.165909090909091,
                "tempo": 120.0
            },
            {
                "start_time": 11.620454545454544,
                "end_time": 11.774999999999999,
                "pitch": 69,
                "velocity": 80,
                "duration": 0.15454545454545432,
                "tempo": 120.0
            },
            {
                "start_time": 11.806818181818182,
                "end_time": 11.961363636363636,
                "pitch": 74,
                "velocity": 80,
                "duration": 0.15454545454545432,
                "tempo": 120.0
            },
            {
                "start_time": 11.995454545454544,
                "end_time": 12.161363636363635,
                "pitch": 62,
                "velocity": 80,
                "duration": 0.165909090909091,
                "tempo": 120.0
            },
            {
                "start_time": 12.195454545454545,
                "end_time": 12.361363636363636,
                "pitch": 69,
                "velocity": 80,
                "duration": 0.165909090909091,
                "tempo": 120.0
            },
            {
                "start_time": 12.395454545454545,
                "end_time": 12.563636363636363,
                "pitch": 72,
                "velocity": 80,
                "duration": 0.168181818181818,
                "tempo": 120.0
            },
            {
                "start_time": 12.597727272727273,
                "end_time": 12.763636363636364,
                "pitch": 74,
                "velocity": 80,
                "duration": 0.165909090909091,
                "tempo": 120.0
            },
            {
                "start_time": 12.797727272727272,
                "end_time": 12.96590909090909,
                "pitch": 64,
                "velocity": 80,
                "duration": 0.168181818181818,
                "tempo": 120.0
            },
            {
                "start_time": 13.0,
                "end_time": 13.168181818181818,
                "pitch": 71,
                "velocity": 80,
                "duration": 0.168181818181818,
                "tempo": 120.0
            },
            {
                "start_time": 13.2,
                "end_time": 13.368181818181817,
                "pitch": 76,
                "velocity": 80,
                "duration": 0.168181818181818,
                "tempo": 120.0
            },
            {
                "start_time": 13.402272727272727,
                "end_time": 13.570454545454545,
                "pitch": 64,
                "velocity": 80,
                "duration": 0.168181818181818,
                "tempo": 120.0
            },
            {
                "start_time": 13.604545454545454,
                "end_time": 13.770454545454545,
                "pitch": 71,
                "velocity": 80,
                "duration": 0.165909090909091,
                "tempo": 120.0
            },
            {
                "start_time": 13.804545454545455,
                "end_time": 13.972727272727273,
                "pitch": 76,
                "velocity": 80,
                "duration": 0.168181818181818,
                "tempo": 120.0
            },
            {
                "start_time": 14.006818181818181,
                "end_time": 14.172727272727272,
                "pitch": 64,
                "velocity": 80,
                "duration": 0.165909090909091,
                "tempo": 120.0
            },
            {
                "start_time": 14.206818181818182,
                "end_time": 14.372727272727271,
                "pitch": 71,
                "velocity": 80,
                "duration": 0.16590909090908923,
                "tempo": 120.0
            },
            {
                "start_time": 14.406818181818181,
                "end_time": 14.575,
                "pitch": 76,
                "velocity": 80,
                "duration": 0.168181818181818,
                "tempo": 120.0
            },
            {
                "start_time": 14.60681818181818,
                "end_time": 14.774999999999999,
                "pitch": 64,
                "velocity": 80,
                "duration": 0.168181818181818,
                "tempo": 120.0
            },
            {
                "start_time": 14.809090909090909,
                "end_time": 14.977272727272727,
                "pitch": 71,
                "velocity": 80,
                "duration": 0.168181818181818,
                "tempo": 120.0
            },
            {
                "start_time": 15.011363636363635,
                "end_time": 15.177272727272726,
                "pitch": 76,
                "velocity": 80,
                "duration": 0.165909090909091,
                "tempo": 120.0
            },
            {
                "start_time": 15.211363636363636,
                "end_time": 15.379545454545454,
                "pitch": 64,
                "velocity": 80,
                "duration": 0.168181818181818,
                "tempo": 120.0
            },
            {
                "start_time": 15.413636363636362,
                "end_time": 15.58181818181818,
                "pitch": 71,
                "velocity": 80,
                "duration": 0.168181818181818,
                "tempo": 120.0
            },
            {
                "start_time": 15.613636363636363,
                "end_time": 15.781818181818181,
                "pitch": 76,
                "velocity": 80,
                "duration": 0.168181818181818,
                "tempo": 120.0
            },
            {
                "start_time": 15.81590909090909,
                "end_time": 15.984090909090908,
                "pitch": 71,
                "velocity": 80,
                "duration": 0.168181818181818,
                "tempo": 120.0
            },
            {
                "start_time": 16.01590909090909,
                "end_time": 16.18409090909091,
                "pitch": 62,
                "velocity": 80,
                "duration": 0.168181818181818,
                "tempo": 120.0
            },
            {
                "start_time": 16.21590909090909,
                "end_time": 16.384090909090908,
                "pitch": 69,
                "velocity": 80,
                "duration": 0.168181818181818,
                "tempo": 120.0
            },
            {
                "start_time": 16.418181818181818,
                "end_time": 16.584090909090907,
                "pitch": 74,
                "velocity": 80,
                "duration": 0.16590909090908923,
                "tempo": 120.0
            },
            {
                "start_time": 16.618181818181817,
                "end_time": 16.786363636363635,
                "pitch": 62,
                "velocity": 80,
                "duration": 0.168181818181818,
                "tempo": 120.0
            },
            {
                "start_time": 16.820454545454545,
                "end_time": 16.986363636363635,
                "pitch": 69,
                "velocity": 80,
                "duration": 0.16590909090908923,
                "tempo": 120.0
            },
            {
                "start_time": 17.020454545454545,
                "end_time": 17.186363636363634,
                "pitch": 74,
                "velocity": 80,
                "duration": 0.16590909090908923,
                "tempo": 120.0
            },
            {
                "start_time": 17.220454545454544,
                "end_time": 17.386363636363637,
                "pitch": 62,
                "velocity": 80,
                "duration": 0.16590909090909278,
                "tempo": 120.0
            },
            {
                "start_time": 17.420454545454543,
                "end_time": 17.586363636363636,
                "pitch": 69,
                "velocity": 80,
                "duration": 0.16590909090909278,
                "tempo": 120.0
            },
            {
                "start_time": 17.620454545454546,
                "end_time": 17.788636363636364,
                "pitch": 74,
                "velocity": 80,
                "duration": 0.168181818181818,
                "tempo": 120.0
            },
            {
                "start_time": 17.820454545454545,
                "end_time": 17.988636363636363,
                "pitch": 62,
                "velocity": 80,
                "duration": 0.168181818181818,
                "tempo": 120.0
            },
            {
                "start_time": 18.022727272727273,
                "end_time": 18.188636363636363,
                "pitch": 69,
                "velocity": 80,
                "duration": 0.16590909090908923,
                "tempo": 120.0
            },
            {
                "start_time": 18.222727272727273,
                "end_time": 18.388636363636362,
                "pitch": 74,
                "velocity": 80,
                "duration": 0.16590909090908923,
                "tempo": 120.0
            },
            {
                "start_time": 18.422727272727272,
                "end_time": 18.59090909090909,
                "pitch": 62,
                "velocity": 80,
                "duration": 0.168181818181818,
                "tempo": 120.0
            },
            {
                "start_time": 18.62272727272727,
                "end_time": 18.79090909090909,
                "pitch": 69,
                "velocity": 80,
                "duration": 0.168181818181818,
                "tempo": 120.0
            },
            {
                "start_time": 18.825,
                "end_time": 18.99090909090909,
                "pitch": 68,
                "velocity": 80,
                "duration": 0.16590909090908923,
                "tempo": 120.0
            },
            {
                "start_time": 19.025,
                "end_time": 19.19090909090909,
                "pitch": 69,
                "velocity": 80,
                "duration": 0.16590909090909278,
                "tempo": 120.0
            },
            {
                "start_time": 19.224999999999998,
                "end_time": 19.39090909090909,
                "pitch": 64,
                "velocity": 80,
                "duration": 0.16590909090909278,
                "tempo": 120.0
            },
            {
                "start_time": 19.425,
                "end_time": 19.59090909090909,
                "pitch": 71,
                "velocity": 80,
                "duration": 0.16590909090908923,
                "tempo": 120.0
            },
            {
                "start_time": 19.625,
                "end_time": 19.793181818181818,
                "pitch": 76,
                "velocity": 80,
                "duration": 0.168181818181818,
                "tempo": 120.0
            },
            {
                "start_time": 19.827272727272728,
                "end_time": 19.993181818181817,
                "pitch": 64,
                "velocity": 80,
                "duration": 0.16590909090908923,
                "tempo": 120.0
            },
            {
                "start_time": 20.027272727272727,
                "end_time": 20.193181818181817,
                "pitch": 71,
                "velocity": 80,
                "duration": 0.16590909090908923,
                "tempo": 120.0
            },
            {
                "start_time": 20.227272727272727,
                "end_time": 20.393181818181816,
                "pitch": 76,
                "velocity": 80,
                "duration": 0.16590909090908923,
                "tempo": 120.0
            },
            {
                "start_time": 20.427272727272726,
                "end_time": 20.595454545454544,
                "pitch": 64,
                "velocity": 80,
                "duration": 0.168181818181818,
                "tempo": 120.0
            },
            {
                "start_time": 20.629545454545454,
                "end_time": 20.797727272727272,
                "pitch": 71,
                "velocity": 80,
                "duration": 0.168181818181818,
                "tempo": 120.0
            },
            {
                "start_time": 20.829545454545453,
                "end_time": 20.99772727272727,
                "pitch": 76,
                "velocity": 80,
                "duration": 0.168181818181818,
                "tempo": 120.0
            },
            {
                "start_time": 21.029545454545453,
                "end_time": 21.19772727272727,
                "pitch": 64,
                "velocity": 80,
                "duration": 0.168181818181818,
                "tempo": 120.0
            },
            {
                "start_time": 21.229545454545452,
                "end_time": 21.397727272727273,
                "pitch": 71,
                "velocity": 80,
                "duration": 0.16818181818182154,
                "tempo": 120.0
            },
            {
                "start_time": 21.429545454545455,
                "end_time": 21.597727272727273,
                "pitch": 76,
                "velocity": 80,
                "duration": 0.168181818181818,
                "tempo": 120.0
            },
            {
                "start_time": 21.629545454545454,
                "end_time": 21.797727272727272,
                "pitch": 64,
                "velocity": 80,
                "duration": 0.168181818181818,
                "tempo": 120.0
            },
            {
                "start_time": 21.831818181818182,
                "end_time": 22.0,
                "pitch": 71,
                "velocity": 80,
                "duration": 0.168181818181818,
                "tempo": 120.0
            },
            {
                "start_time": 22.03181818181818,
                "end_time": 22.2,
                "pitch": 76,
                "velocity": 80,
                "duration": 0.168181818181818,
                "tempo": 120.0
            },
            {
                "start_time": 22.23181818181818,
                "end_time": 22.4,
                "pitch": 71,
                "velocity": 80,
                "duration": 0.168181818181818,
                "tempo": 120.0
            },
            {
                "start_time": 22.43409090909091,
                "end_time": 22.599999999999998,
                "pitch": 62,
                "velocity": 80,
                "duration": 0.16590909090908923,
                "tempo": 120.0
            },
            {
                "start_time": 22.634090909090908,
                "end_time": 22.802272727272726,
                "pitch": 69,
                "velocity": 80,
                "duration": 0.168181818181818,
                "tempo": 120.0
            },
            {
                "start_time": 22.836363636363636,
                "end_time": 23.002272727272725,
                "pitch": 74,
                "velocity": 80,
                "duration": 0.16590909090908923,
                "tempo": 120.0
            },
            {
                "start_time": 23.036363636363635,
                "end_time": 23.202272727272724,
                "pitch": 62,
                "velocity": 80,
                "duration": 0.16590909090908923,
                "tempo": 120.0
            },
            {
                "start_time": 23.236363636363635,
                "end_time": 23.402272727272727,
                "pitch": 69,
                "velocity": 80,
                "duration": 0.16590909090909278,
                "tempo": 120.0
            },
            {
                "start_time": 23.436363636363634,
                "end_time": 23.602272727272727,
                "pitch": 74,
                "velocity": 80,
                "duration": 0.16590909090909278,
                "tempo": 120.0
            },
            {
                "start_time": 23.636363636363637,
                "end_time": 23.804545454545455,
                "pitch": 62,
                "velocity": 80,
                "duration": 0.168181818181818,
                "tempo": 120.0
            },
            {
                "start_time": 23.836363636363636,
                "end_time": 24.004545454545454,
                "pitch": 74,
                "velocity": 80,
                "duration": 0.168181818181818,
                "tempo": 120.0
            },
            {
                "start_time": 24.038636363636364,
                "end_time": 27.21363636363636,
                "pitch": 0,
                "velocity": 80,
                "duration": 3.174999999999997,
                "tempo": 120.0
            },
            {
                "start_time": 27.245454545454542,
                "end_time": 28.38181818181818,
                "pitch": 62,
                "velocity": 80,
                "duration": 1.1363636363636367,
                "tempo": 120.0
            },
            {
                "start_time": 28.45,
                "end_time": 28.618181818181817,
                "pitch": 68,
                "velocity": 80,
                "duration": 0.168181818181818,
                "tempo": 120.0
            },
            {
                "start_time": 28.65,
                "end_time": 29.218181818181815,
                "pitch": 72,
                "velocity": 80,
                "duration": 0.5681818181818166,
                "tempo": 120.0
            },
            {
                "start_time": 29.252272727272725,
                "end_time": 29.618181818181817,
                "pitch": 71,
                "velocity": 80,
                "duration": 0.36590909090909207,
                "tempo": 120.0
            },
            {
                "start_time": 29.652272727272727,
                "end_time": 29.786363636363635,
                "pitch": 69,
                "velocity": 80,
                "duration": 0.13409090909090793,
                "tempo": 120.0
            },
            {
                "start_time": 29.852272727272727,
                "end_time": 30.020454545454545,
                "pitch": 71,
                "velocity": 80,
                "duration": 0.168181818181818,
                "tempo": 120.0
            },
            {
                "start_time": 30.054545454545455,
                "end_time": 30.220454545454544,
                "pitch": 0,
                "velocity": 80,
                "duration": 0.16590909090908923,
                "tempo": 120.0
            },
            {
                "start_time": 30.254545454545454,
                "end_time": 31.79090909090909,
                "pitch": 65,
                "velocity": 80,
                "duration": 1.5363636363636353,
                "tempo": 120.0
            },
            {
                "start_time": 31.859090909090906,
                "end_time": 32.42727272727272,
                "pitch": 77,
                "velocity": 80,
                "duration": 0.5681818181818166,
                "tempo": 120.0
            },
            {
                "start_time": 32.45909090909091,
                "end_time": 32.82954545454545,
                "pitch": 76,
                "velocity": 80,
                "duration": 0.3704545454545425,
                "tempo": 120.0
            },
            {
                "start_time": 32.861363636363635,
                "end_time": 33.029545454545456,
                "pitch": 74,
                "velocity": 80,
                "duration": 0.16818181818182154,
                "tempo": 120.0
            },
            {
                "start_time": 33.06136363636364,
                "end_time": 33.22954545454545,
                "pitch": 76,
                "velocity": 80,
                "duration": 0.16818181818181444,
                "tempo": 120.0
            },
            {
                "start_time": 33.26136363636363,
                "end_time": 33.429545454545455,
                "pitch": 0,
                "velocity": 80,
                "duration": 0.16818181818182154,
                "tempo": 120.0
            },
            {
                "start_time": 33.461363636363636,
                "end_time": 35.965909090909086,
                "pitch": 71,
                "velocity": 80,
                "duration": 2.5045454545454504,
                "tempo": 120.0
            },
            {
                "start_time": 36.06590909090909,
                "end_time": 36.434090909090905,
                "pitch": 74,
                "velocity": 80,
                "duration": 0.3681818181818173,
                "tempo": 120.0
            },
            {
                "start_time": 36.46818181818182,
                "end_time": 36.83409090909091,
                "pitch": 72,
                "velocity": 80,
                "duration": 0.36590909090909207,
                "tempo": 120.0
            },
            {
                "start_time": 36.86818181818182,
                "end_time": 37.96818181818182,
                "pitch": 71,
                "velocity": 80,
                "duration": 1.1000000000000014,
                "tempo": 120.0
            },
            {
                "start_time": 38.06818181818181,
                "end_time": 38.236363636363635,
                "pitch": 68,
                "velocity": 80,
                "duration": 0.16818181818182154,
                "tempo": 120.0
            },
            {
                "start_time": 38.27045454545454,
                "end_time": 39.64772727272727,
                "pitch": 64,
                "velocity": 80,
                "duration": 1.3772727272727323,
                "tempo": 120.0
            },
            {
                "start_time": 39.679545454545455,
                "end_time": 39.84318181818182,
                "pitch": 0,
                "velocity": 80,
                "duration": 0.16363636363636402,
                "tempo": 120.0
            },
            {
                "start_time": 39.877272727272725,
                "end_time": 41.975,
                "pitch": 65,
                "velocity": 80,
                "duration": 2.097727272727276,
                "tempo": 120.0
            },
            {
                "start_time": 42.07727272727273,
                "end_time": 42.445454545454545,
                "pitch": 69,
                "velocity": 80,
                "duration": 0.3681818181818173,
                "tempo": 120.0
            },
            {
                "start_time": 42.47954545454545,
                "end_time": 42.64545454545454,
                "pitch": 72,
                "velocity": 80,
                "duration": 0.16590909090908923,
                "tempo": 120.0
            },
            {
                "start_time": 42.679545454545455,
                "end_time": 42.845454545454544,
                "pitch": 71,
                "velocity": 80,
                "duration": 0.16590909090908923,
                "tempo": 120.0
            },
            {
                "start_time": 42.87954545454545,
                "end_time": 43.04545454545455,
                "pitch": 0,
                "velocity": 80,
                "duration": 0.16590909090909634,
                "tempo": 120.0
            },
            {
                "start_time": 43.07954545454545,
                "end_time": 43.445454545454545,
                "pitch": 69,
                "velocity": 80,
                "duration": 0.36590909090909207,
                "tempo": 120.0
            },
            {
                "start_time": 43.47954545454545,
                "end_time": 43.64545454545454,
                "pitch": 68,
                "velocity": 80,
                "duration": 0.16590909090908923,
                "tempo": 120.0
            },
            {
                "start_time": 43.679545454545455,
                "end_time": 45.18181818181818,
                "pitch": 64,
                "velocity": 80,
                "duration": 1.5022727272727252,
                "tempo": 120.0
            },
            {
                "start_time": 45.28181818181818,
                "end_time": 45.64772727272727,
                "pitch": 68,
                "velocity": 80,
                "duration": 0.36590909090909207,
                "tempo": 120.0
            },
            {
                "start_time": 45.68181818181818,
                "end_time": 45.84772727272727,
                "pitch": 71,
                "velocity": 80,
                "duration": 0.16590909090908923,
                "tempo": 120.0
            },
            {
                "start_time": 45.88181818181818,
                "end_time": 46.04772727272727,
                "pitch": 69,
                "velocity": 80,
                "duration": 0.16590909090908923,
                "tempo": 120.0
            },
            {
                "start_time": 46.08181818181818,
                "end_time": 46.25,
                "pitch": 0,
                "velocity": 80,
                "duration": 0.16818181818182154,
                "tempo": 120.0
            },
            {
                "start_time": 46.28409090909091,
                "end_time": 48.986363636363635,
                "pitch": 70,
                "velocity": 80,
                "duration": 2.702272727272728,
                "tempo": 120.0
            },
            {
                "start_time": 49.086363636363636,
                "end_time": 49.45227272727273,
                "pitch": 75,
                "velocity": 80,
                "duration": 0.36590909090909207,
                "tempo": 120.0
            },
            {
                "start_time": 49.486363636363635,
                "end_time": 50.85681818181818,
                "pitch": 74,
                "velocity": 80,
                "duration": 1.3704545454545425,
                "tempo": 120.0
            },
            {
                "start_time": 50.88863636363636,
                "end_time": 51.02272727272727,
                "pitch": 72,
                "velocity": 80,
                "duration": 0.13409090909091503,
                "tempo": 120.0
            },
            {
                "start_time": 51.08863636363636,
                "end_time": 52.465909090909086,
                "pitch": 74,
                "velocity": 80,
                "duration": 1.3772727272727252,
                "tempo": 120.0
            },
            {
                "start_time": 52.5,
                "end_time": 52.85909090909091,
                "pitch": 0,
                "velocity": 80,
                "duration": 0.35909090909090935,
                "tempo": 120.0
            },
            {
                "start_time": 52.893181818181816,
                "end_time": 54.025,
                "pitch": 62,
                "velocity": 80,
                "duration": 1.1318181818181827,
                "tempo": 120.0
            },
            {
                "start_time": 54.09318181818182,
                "end_time": 54.26136363636363,
                "pitch": 68,
                "velocity": 80,
                "duration": 0.16818181818181444,
                "tempo": 120.0
            },
            {
                "start_time": 54.293181818181814,
                "end_time": 54.861363636363635,
                "pitch": 72,
                "velocity": 80,
                "duration": 0.5681818181818201,
                "tempo": 120.0
            },
            {
                "start_time": 54.89545454545454,
                "end_time": 55.26136363636363,
                "pitch": 71,
                "velocity": 80,
                "duration": 0.36590909090909207,
                "tempo": 120.0
            },
            {
                "start_time": 55.29545454545454,
                "end_time": 55.42727272727272,
                "pitch": 69,
                "velocity": 80,
                "duration": 0.13181818181818272,
                "tempo": 120.0
            },
            {
                "start_time": 55.49545454545454,
                "end_time": 55.66136363636363,
                "pitch": 71,
                "velocity": 80,
                "duration": 0.16590909090908923,
                "tempo": 120.0
            },
            {
                "start_time": 55.695454545454545,
                "end_time": 55.861363636363635,
                "pitch": 0,
                "velocity": 80,
                "duration": 0.16590909090908923,
                "tempo": 120.0
            },
            {
                "start_time": 55.89545454545454,
                "end_time": 57.43181818181818,
                "pitch": 65,
                "velocity": 80,
                "duration": 1.5363636363636388,
                "tempo": 120.0
            },
            {
                "start_time": 57.49772727272727,
                "end_time": 58.06363636363636,
                "pitch": 77,
                "velocity": 80,
                "duration": 0.5659090909090949,
                "tempo": 120.0
            },
            {
                "start_time": 58.09772727272727,
                "end_time": 58.465909090909086,
                "pitch": 76,
                "velocity": 80,
                "duration": 0.3681818181818173,
                "tempo": 120.0
            },
            {
                "start_time": 58.5,
                "end_time": 58.66590909090909,
                "pitch": 74,
                "velocity": 80,
                "duration": 0.16590909090908923,
                "tempo": 120.0
            },
            {
                "start_time": 58.699999999999996,
                "end_time": 58.865909090909085,
                "pitch": 76,
                "velocity": 80,
                "duration": 0.16590909090908923,
                "tempo": 120.0
            },
            {
                "start_time": 58.9,
                "end_time": 59.06590909090909,
                "pitch": 0,
                "velocity": 80,
                "duration": 0.16590909090908923,
                "tempo": 120.0
            },
            {
                "start_time": 59.099999999999994,
                "end_time": 61.60227272727273,
                "pitch": 71,
                "velocity": 80,
                "duration": 2.5022727272727323,
                "tempo": 120.0
            },
            {
                "start_time": 61.70227272727272,
                "end_time": 62.070454545454545,
                "pitch": 74,
                "velocity": 80,
                "duration": 0.3681818181818244,
                "tempo": 120.0
            },
            {
                "start_time": 62.10227272727273,
                "end_time": 62.47272727272727,
                "pitch": 72,
                "velocity": 80,
                "duration": 0.3704545454545425,
                "tempo": 120.0
            },
            {
                "start_time": 62.50454545454545,
                "end_time": 63.60454545454545,
                "pitch": 71,
                "velocity": 80,
                "duration": 1.1000000000000014,
                "tempo": 120.0
            },
            {
                "start_time": 63.70454545454545,
                "end_time": 63.87272727272727,
                "pitch": 68,
                "velocity": 80,
                "duration": 0.16818181818181444,
                "tempo": 120.0
            },
            {
                "start_time": 63.90454545454545,
                "end_time": 65.28636363636363,
                "pitch": 64,
                "velocity": 80,
                "duration": 1.3818181818181827,
                "tempo": 120.0
            },
            {
                "start_time": 65.31818181818181,
                "end_time": 65.48181818181818,
                "pitch": 0,
                "velocity": 80,
                "duration": 0.16363636363637113,
                "tempo": 120.0
            },
            {
                "start_time": 65.51363636363637,
                "end_time": 67.61818181818181,
                "pitch": 65,
                "velocity": 80,
                "duration": 2.1045454545454447,
                "tempo": 120.0
            },
            {
                "start_time": 67.71818181818182,
                "end_time": 68.08636363636363,
                "pitch": 69,
                "velocity": 80,
                "duration": 0.36818181818181017,
                "tempo": 120.0
            },
            {
                "start_time": 68.12045454545454,
                "end_time": 68.28636363636363,
                "pitch": 72,
                "velocity": 80,
                "duration": 0.16590909090909634,
                "tempo": 120.0
            },
            {
                "start_time": 68.32045454545454,
                "end_time": 68.48863636363636,
                "pitch": 71,
                "velocity": 80,
                "duration": 0.16818181818182154,
                "tempo": 120.0
            },
            {
                "start_time": 68.52272727272727,
                "end_time": 68.68863636363636,
                "pitch": 0,
                "velocity": 80,
                "duration": 0.16590909090909634,
                "tempo": 120.0
            },
            {
                "start_time": 68.72272727272727,
                "end_time": 69.0909090909091,
                "pitch": 69,
                "velocity": 80,
                "duration": 0.3681818181818244,
                "tempo": 120.0
            },
            {
                "start_time": 69.12272727272727,
                "end_time": 69.29090909090908,
                "pitch": 68,
                "velocity": 80,
                "duration": 0.16818181818180733,
                "tempo": 120.0
            },
            {
                "start_time": 69.325,
                "end_time": 70.82954545454545,
                "pitch": 64,
                "velocity": 80,
                "duration": 1.5045454545454504,
                "tempo": 120.0
            },
            {
                "start_time": 70.92954545454545,
                "end_time": 71.3,
                "pitch": 68,
                "velocity": 80,
                "duration": 0.3704545454545496,
                "tempo": 120.0
            },
            {
                "start_time": 71.3340909090909,
                "end_time": 71.5,
                "pitch": 71,
                "velocity": 80,
                "duration": 0.16590909090909634,
                "tempo": 120.0
            },
            {
                "start_time": 71.5340909090909,
                "end_time": 71.70227272727273,
                "pitch": 69,
                "velocity": 80,
                "duration": 0.16818181818182154,
                "tempo": 120.0
            },
            {
                "start_time": 71.73636363636363,
                "end_time": 71.90227272727272,
                "pitch": 0,
                "velocity": 80,
                "duration": 0.16590909090908212,
                "tempo": 120.0
            },
            {
                "start_time": 71.93636363636364,
                "end_time": 74.64545454545454,
                "pitch": 70,
                "velocity": 80,
                "duration": 2.7090909090909037,
                "tempo": 120.0
            },
            {
                "start_time": 74.74545454545454,
                "end_time": 75.11363636363636,
                "pitch": 75,
                "velocity": 80,
                "duration": 0.3681818181818244,
                "tempo": 120.0
            },
            {
                "start_time": 75.14772727272727,
                "end_time": 76.45454545454545,
                "pitch": 74,
                "velocity": 80,
                "duration": 1.306818181818187,
                "tempo": 120.0
            },
            {
                "start_time": 76.55454545454545,
                "end_time": 76.72045454545454,
                "pitch": 80,
                "velocity": 80,
                "duration": 0.16590909090909634,
                "tempo": 120.0
            },
            {
                "start_time": 76.75454545454545,
                "end_time": 78.13636363636363,
                "pitch": 78,
                "velocity": 80,
                "duration": 1.3818181818181756,
                "tempo": 120.0
            },
            {
                "start_time": 78.16818181818181,
                "end_time": 78.52954545454546,
                "pitch": 0,
                "velocity": 80,
                "duration": 0.36136363636364877,
                "tempo": 120.0
            },
            {
                "start_time": 78.56136363636364,
                "end_time": 80.53636363636363,
                "pitch": 76,
                "velocity": 80,
                "duration": 1.9749999999999943,
                "tempo": 120.0
            },
            {
                "start_time": 80.57045454545454,
                "end_time": 80.93636363636364,
                "pitch": 74,
                "velocity": 80,
                "duration": 0.3659090909090992,
                "tempo": 120.0
            },
            {
                "start_time": 80.97045454545454,
                "end_time": 81.14318181818182,
                "pitch": 81,
                "velocity": 80,
                "duration": 0.17272727272727195,
                "tempo": 120.0
            },
            {
                "start_time": 81.17727272727272,
                "end_time": 81.34772727272727,
                "pitch": 80,
                "velocity": 80,
                "duration": 0.17045454545454675,
                "tempo": 120.0
            },
            {
                "start_time": 81.37954545454545,
                "end_time": 81.54318181818181,
                "pitch": 0,
                "velocity": 80,
                "duration": 0.16363636363635692,
                "tempo": 120.0
            },
            {
                "start_time": 81.57727272727273,
                "end_time": 84.14772727272727,
                "pitch": 76,
                "velocity": 80,
                "duration": 2.570454545454538,
                "tempo": 120.0
            },
            {
                "start_time": 84.18181818181817,
                "end_time": 84.35454545454544,
                "pitch": 76,
                "velocity": 80,
                "duration": 0.17272727272727195,
                "tempo": 120.0
            },
            {
                "start_time": 84.38863636363637,
                "end_time": 84.5590909090909,
                "pitch": 71,
                "velocity": 80,
                "duration": 0.17045454545453254,
                "tempo": 120.0
            },
            {
                "start_time": 84.5909090909091,
                "end_time": 84.75454545454545,
                "pitch": 74,
                "velocity": 80,
                "duration": 0.16363636363635692,
                "tempo": 120.0
            },
            {
                "start_time": 84.78636363636363,
                "end_time": 87.36136363636363,
                "pitch": 76,
                "velocity": 80,
                "duration": 2.575000000000003,
                "tempo": 120.0
            },
            {
                "start_time": 87.39545454545454,
                "end_time": 87.56818181818181,
                "pitch": 81,
                "velocity": 80,
                "duration": 0.17272727272727195,
                "tempo": 120.0
            },
            {
                "start_time": 87.60227272727272,
                "end_time": 87.77272727272727,
                "pitch": 80,
                "velocity": 80,
                "duration": 0.17045454545454675,
                "tempo": 120.0
            },
            {
                "start_time": 87.80454545454545,
                "end_time": 87.96818181818182,
                "pitch": 0,
                "velocity": 80,
                "duration": 0.16363636363637113,
                "tempo": 120.0
            },
            {
                "start_time": 88.0,
                "end_time": 90.975,
                "pitch": 76,
                "velocity": 80,
                "duration": 2.9749999999999943,
                "tempo": 120.0
            },
            {
                "start_time": 91.0090909090909,
                "end_time": 91.31136363636364,
                "pitch": 0,
                "velocity": 80,
                "duration": 0.3022727272727366,
                "tempo": 120.0
            },
            {
                "start_time": 91.41136363636363,
                "end_time": 91.97954545454544,
                "pitch": 74,
                "velocity": 80,
                "duration": 0.568181818181813,
                "tempo": 120.0
            },
            {
                "start_time": 92.01363636363637,
                "end_time": 92.18181818181817,
                "pitch": 72,
                "velocity": 80,
                "duration": 0.16818181818180733,
                "tempo": 120.0
            },
            {
                "start_time": 92.2159090909091,
                "end_time": 92.98409090909091,
                "pitch": 0,
                "velocity": 80,
                "duration": 0.7681818181818159,
                "tempo": 120.0
            },
            {
                "start_time": 93.01818181818182,
                "end_time": 93.31818181818181,
                "pitch": 0,
                "velocity": 80,
                "duration": 0.29999999999999716,
                "tempo": 120.0
            },
            {
                "start_time": 93.42045454545455,
                "end_time": 93.58863636363635,
                "pitch": 74,
                "velocity": 80,
                "duration": 0.16818181818180733,
                "tempo": 120.0
            },
            {
                "start_time": 93.62045454545454,
                "end_time": 93.75454545454545,
                "pitch": 72,
                "velocity": 80,
                "duration": 0.13409090909091503,
                "tempo": 120.0
            },
            {
                "start_time": 93.82272727272726,
                "end_time": 93.99545454545454,
                "pitch": 74,
                "velocity": 80,
                "duration": 0.17272727272727195,
                "tempo": 120.0
            },
            {
                "start_time": 94.02954545454546,
                "end_time": 94.59090909090908,
                "pitch": 76,
                "velocity": 80,
                "duration": 0.5613636363636232,
                "tempo": 120.0
            },
            {
                "start_time": 94.625,
                "end_time": 95.19318181818181,
                "pitch": 74,
                "velocity": 80,
                "duration": 0.568181818181813,
                "tempo": 120.0
            },
            {
                "start_time": 95.22727272727272,
                "end_time": 95.39545454545454,
                "pitch": 72,
                "velocity": 80,
                "duration": 0.16818181818182154,
                "tempo": 120.0
            },
            {
                "start_time": 95.42954545454545,
                "end_time": 96.19772727272726,
                "pitch": 0,
                "velocity": 80,
                "duration": 0.7681818181818159,
                "tempo": 120.0
            },
            {
                "start_time": 96.23181818181818,
                "end_time": 96.5340909090909,
                "pitch": 0,
                "velocity": 80,
                "duration": 0.30227272727272236,
                "tempo": 120.0
            },
            {
                "start_time": 96.6340909090909,
                "end_time": 96.8,
                "pitch": 74,
                "velocity": 80,
                "duration": 0.16590909090909634,
                "tempo": 120.0
            },
            {
                "start_time": 96.8340909090909,
                "end_time": 96.96590909090908,
                "pitch": 72,
                "velocity": 80,
                "duration": 0.13181818181817562,
                "tempo": 120.0
            },
            {
                "start_time": 97.0340909090909,
                "end_time": 97.20681818181818,
                "pitch": 74,
                "velocity": 80,
                "duration": 0.17272727272727195,
                "tempo": 120.0
            },
            {
                "start_time": 97.24090909090908,
                "end_time": 97.73636363636363,
                "pitch": 76,
                "velocity": 80,
                "duration": 0.4954545454545496,
                "tempo": 120.0
            },
            {
                "start_time": 97.83636363636363,
                "end_time": 98.40454545454546,
                "pitch": 74,
                "velocity": 80,
                "duration": 0.5681818181818272,
                "tempo": 120.0
            },
            {
                "start_time": 98.43863636363636,
                "end_time": 98.60681818181817,
                "pitch": 72,
                "velocity": 80,
                "duration": 0.16818181818180733,
                "tempo": 120.0
            },
            {
                "start_time": 98.64090909090909,
                "end_time": 99.34318181818182,
                "pitch": 0,
                "velocity": 80,
                "duration": 0.702272727272728,
                "tempo": 120.0
            },
            {
                "start_time": 99.44318181818181,
                "end_time": 99.81136363636364,
                "pitch": 74,
                "velocity": 80,
                "duration": 0.3681818181818244,
                "tempo": 120.0
            },
            {
                "start_time": 99.84545454545454,
                "end_time": 100.01136363636363,
                "pitch": 72,
                "velocity": 80,
                "duration": 0.16590909090908212,
                "tempo": 120.0
            },
            {
                "start_time": 100.04545454545455,
                "end_time": 100.21136363636363,
                "pitch": 74,
                "velocity": 80,
                "duration": 0.16590909090908212,
                "tempo": 120.0
            },
            {
                "start_time": 100.24545454545454,
                "end_time": 100.41590909090908,
                "pitch": 0,
                "velocity": 80,
                "duration": 0.17045454545454675,
                "tempo": 120.0
            },
            {
                "start_time": 100.44999999999999,
                "end_time": 100.81818181818181,
                "pitch": 76,
                "velocity": 80,
                "duration": 0.3681818181818244,
                "tempo": 120.0
            },
            {
                "start_time": 100.85,
                "end_time": 101.41590909090908,
                "pitch": 74,
                "velocity": 80,
                "duration": 0.5659090909090878,
                "tempo": 120.0
            },
            {
                "start_time": 101.44999999999999,
                "end_time": 102.02499999999999,
                "pitch": 71,
                "velocity": 80,
                "duration": 0.5750000000000028,
                "tempo": 120.0
            },
            {
                "start_time": 102.0590909090909,
                "end_time": 102.62272727272727,
                "pitch": 68,
                "velocity": 80,
                "duration": 0.5636363636363768,
                "tempo": 120.0
            },
            {
                "start_time": 102.65454545454546,
                "end_time": 103.22272727272727,
                "pitch": 68,
                "velocity": 80,
                "duration": 0.568181818181813,
                "tempo": 120.0
            },
            {
                "start_time": 103.25681818181818,
                "end_time": 103.425,
                "pitch": 64,
                "velocity": 80,
                "duration": 0.16818181818182154,
                "tempo": 120.0
            },
            {
                "start_time": 103.4590909090909,
                "end_time": 103.69318181818181,
                "pitch": 64,
                "velocity": 80,
                "duration": 0.23409090909090935,
                "tempo": 120.0
            },
            {
                "start_time": 103.72727272727272,
                "end_time": 103.96590909090908,
                "pitch": 65,
                "velocity": 80,
                "duration": 0.23863636363635976,
                "tempo": 120.0
            },
            {
                "start_time": 104.0,
                "end_time": 104.20454545454545,
                "pitch": 68,
                "velocity": 80,
                "duration": 0.20454545454545325,
                "tempo": 120.0
            },
            {
                "start_time": 104.27045454545454,
                "end_time": 104.62954545454545,
                "pitch": 69,
                "velocity": 80,
                "duration": 0.35909090909090935,
                "tempo": 120.0
            },
            {
                "start_time": 104.66363636363636,
                "end_time": 104.79772727272727,
                "pitch": 68,
                "velocity": 80,
                "duration": 0.13409090909091503,
                "tempo": 120.0
            },
            {
                "start_time": 104.86363636363636,
                "end_time": 105.23181818181817,
                "pitch": 69,
                "velocity": 80,
                "duration": 0.36818181818181017,
                "tempo": 120.0
            },
            {
                "start_time": 105.26590909090909,
                "end_time": 105.39999999999999,
                "pitch": 68,
                "velocity": 80,
                "duration": 0.13409090909090082,
                "tempo": 120.0
            },
            {
                "start_time": 105.46590909090908,
                "end_time": 105.83636363636363,
                "pitch": 69,
                "velocity": 80,
                "duration": 0.3704545454545496,
                "tempo": 120.0
            },
            {
                "start_time": 105.86818181818181,
                "end_time": 106.00227272727273,
                "pitch": 68,
                "velocity": 80,
                "duration": 0.13409090909091503,
                "tempo": 120.0
            },
            {
                "start_time": 106.06818181818181,
                "end_time": 106.43636363636364,
                "pitch": 69,
                "velocity": 80,
                "duration": 0.3681818181818244,
                "tempo": 120.0
            },
            {
                "start_time": 106.47045454545454,
                "end_time": 106.60454545454544,
                "pitch": 68,
                "velocity": 80,
                "duration": 0.13409090909090082,
                "tempo": 120.0
            },
            {
                "start_time": 106.67272727272727,
                "end_time": 107.03863636363636,
                "pitch": 69,
                "velocity": 80,
                "duration": 0.36590909090908497,
                "tempo": 120.0
            },
            {
                "start_time": 107.07272727272726,
                "end_time": 107.20681818181818,
                "pitch": 68,
                "velocity": 80,
                "duration": 0.13409090909091503,
                "tempo": 120.0
            },
            {
                "start_time": 107.27272727272727,
                "end_time": 107.64318181818182,
                "pitch": 71,
                "velocity": 80,
                "duration": 0.3704545454545496,
                "tempo": 120.0
            },
            {
                "start_time": 107.67727272727272,
                "end_time": 107.81136363636364,
                "pitch": 69,
                "velocity": 80,
                "duration": 0.13409090909091503,
                "tempo": 120.0
            },
            {
                "start_time": 107.87727272727273,
                "end_time": 108.24318181818181,
                "pitch": 71,
                "velocity": 80,
                "duration": 0.36590909090908497,
                "tempo": 120.0
            },
            {
                "start_time": 108.27727272727272,
                "end_time": 108.41136363636363,
                "pitch": 69,
                "velocity": 80,
                "duration": 0.13409090909091503,
                "tempo": 120.0
            },
            {
                "start_time": 108.47954545454544,
                "end_time": 108.84772727272727,
                "pitch": 71,
                "velocity": 80,
                "duration": 0.3681818181818244,
                "tempo": 120.0
            },
            {
                "start_time": 108.87954545454545,
                "end_time": 109.04772727272727,
                "pitch": 69,
                "velocity": 80,
                "duration": 0.16818181818182154,
                "tempo": 120.0
            },
            {
                "start_time": 109.07954545454545,
                "end_time": 109.24772727272726,
                "pitch": 72,
                "velocity": 80,
                "duration": 0.16818181818180733,
                "tempo": 120.0
            },
            {
                "start_time": 109.28181818181818,
                "end_time": 109.44999999999999,
                "pitch": 72,
                "velocity": 80,
                "duration": 0.16818181818180733,
                "tempo": 120.0
            },
            {
                "start_time": 109.48409090909091,
                "end_time": 109.85227272727272,
                "pitch": 71,
                "velocity": 80,
                "duration": 0.36818181818181017,
                "tempo": 120.0
            },
            {
                "start_time": 109.88636363636363,
                "end_time": 110.25227272727273,
                "pitch": 69,
                "velocity": 80,
                "duration": 0.3659090909090992,
                "tempo": 120.0
            },
            {
                "start_time": 110.28636363636363,
                "end_time": 110.45454545454545,
                "pitch": 73,
                "velocity": 80,
                "duration": 0.16818181818182154,
                "tempo": 120.0
            },
            {
                "start_time": 110.48636363636363,
                "end_time": 110.82045454545454,
                "pitch": 74,
                "velocity": 80,
                "duration": 0.33409090909090366,
                "tempo": 120.0
            },
            {
                "start_time": 110.88863636363635,
                "end_time": 111.05454545454545,
                "pitch": 76,
                "velocity": 80,
                "duration": 0.16590909090909634,
                "tempo": 120.0
            },
            {
                "start_time": 111.08863636363635,
                "end_time": 111.425,
                "pitch": 74,
                "velocity": 80,
                "duration": 0.3363636363636431,
                "tempo": 120.0
            },
            {
                "start_time": 111.49090909090908,
                "end_time": 111.6590909090909,
                "pitch": 76,
                "velocity": 80,
                "duration": 0.16818181818182154,
                "tempo": 120.0
            },
            {
                "start_time": 111.69318181818181,
                "end_time": 112.02727272727272,
                "pitch": 74,
                "velocity": 80,
                "duration": 0.33409090909090366,
                "tempo": 120.0
            },
            {
                "start_time": 112.09318181818182,
                "end_time": 112.2590909090909,
                "pitch": 76,
                "velocity": 80,
                "duration": 0.16590909090908212,
                "tempo": 120.0
            },
            {
                "start_time": 112.29318181818181,
                "end_time": 112.62954545454545,
                "pitch": 74,
                "velocity": 80,
                "duration": 0.3363636363636431,
                "tempo": 120.0
            },
            {
                "start_time": 112.69545454545454,
                "end_time": 112.86363636363636,
                "pitch": 76,
                "velocity": 80,
                "duration": 0.16818181818182154,
                "tempo": 120.0
            },
            {
                "start_time": 112.89545454545454,
                "end_time": 113.26363636363635,
                "pitch": 74,
                "velocity": 80,
                "duration": 0.36818181818181017,
                "tempo": 120.0
            },
            {
                "start_time": 113.29772727272727,
                "end_time": 113.46590909090908,
                "pitch": 76,
                "velocity": 80,
                "duration": 0.16818181818180733,
                "tempo": 120.0
            },
            {
                "start_time": 113.5,
                "end_time": 113.6340909090909,
                "pitch": 80,
                "velocity": 80,
                "duration": 0.13409090909090082,
                "tempo": 120.0
            },
            {
                "start_time": 113.69999999999999,
                "end_time": 113.86818181818181,
                "pitch": 81,
                "velocity": 80,
                "duration": 0.16818181818182154,
                "tempo": 120.0
            },
            {
                "start_time": 113.90227272727272,
                "end_time": 115.47272727272727,
                "pitch": 80,
                "velocity": 80,
                "duration": 1.5704545454545524,
                "tempo": 120.0
            },
            {
                "start_time": 115.50681818181818,
                "end_time": 115.675,
                "pitch": 0,
                "velocity": 80,
                "duration": 0.16818181818182154,
                "tempo": 120.0
            },
            {
                "start_time": 115.7090909090909,
                "end_time": 115.87727272727273,
                "pitch": 73,
                "velocity": 80,
                "duration": 0.16818181818182154,
                "tempo": 120.0
            },
            {
                "start_time": 115.91136363636363,
                "end_time": 116.08181818181818,
                "pitch": 0,
                "velocity": 80,
                "duration": 0.17045454545454675,
                "tempo": 120.0
            },
            {
                "start_time": 116.11590909090908,
                "end_time": 116.28636363636363,
                "pitch": 74,
                "velocity": 80,
                "duration": 0.17045454545454675,
                "tempo": 120.0
            },
            {
                "start_time": 116.31818181818181,
                "end_time": 116.48181818181817,
                "pitch": 0,
                "velocity": 80,
                "duration": 0.16363636363635692,
                "tempo": 120.0
            },
            {
                "start_time": 116.51590909090909,
                "end_time": 116.67954545454545,
                "pitch": 76,
                "velocity": 80,
                "duration": 0.16363636363635692,
                "tempo": 120.0
            },
            {
                "start_time": 116.71363636363635,
                "end_time": 116.8840909090909,
                "pitch": 0,
                "velocity": 80,
                "duration": 0.17045454545454675,
                "tempo": 120.0
            },
            {
                "start_time": 116.91818181818181,
                "end_time": 117.02045454545454,
                "pitch": 77,
                "velocity": 80,
                "duration": 0.10227272727273373,
                "tempo": 120.0
            },
            {
                "start_time": 117.12272727272726,
                "end_time": 117.48181818181817,
                "pitch": 80,
                "velocity": 80,
                "duration": 0.35909090909090935,
                "tempo": 120.0
            },
            {
                "start_time": 117.51590909090909,
                "end_time": 117.64999999999999,
                "pitch": 77,
                "velocity": 80,
                "duration": 0.13409090909090082,
                "tempo": 120.0
            },
            {
                "start_time": 117.71590909090908,
                "end_time": 118.0840909090909,
                "pitch": 80,
                "velocity": 80,
                "duration": 0.3681818181818244,
                "tempo": 120.0
            },
            {
                "start_time": 118.11818181818181,
                "end_time": 118.25,
                "pitch": 77,
                "velocity": 80,
                "duration": 0.13181818181818983,
                "tempo": 120.0
            },
            {
                "start_time": 118.31818181818181,
                "end_time": 118.68636363636364,
                "pitch": 80,
                "velocity": 80,
                "duration": 0.3681818181818244,
                "tempo": 120.0
            },
            {
                "start_time": 118.72045454545454,
                "end_time": 118.85454545454544,
                "pitch": 77,
                "velocity": 80,
                "duration": 0.13409090909090082,
                "tempo": 120.0
            },
            {
                "start_time": 118.92045454545455,
                "end_time": 119.28863636363636,
                "pitch": 80,
                "velocity": 80,
                "duration": 0.36818181818181017,
                "tempo": 120.0
            },
            {
                "start_time": 119.32272727272726,
                "end_time": 119.45681818181818,
                "pitch": 77,
                "velocity": 80,
                "duration": 0.13409090909091503,
                "tempo": 120.0
            },
            {
                "start_time": 119.52272727272727,
                "end_time": 119.89318181818182,
                "pitch": 80,
                "velocity": 80,
                "duration": 0.3704545454545496,
                "tempo": 120.0
            },
            {
                "start_time": 119.925,
                "end_time": 120.02499999999999,
                "pitch": 77,
                "velocity": 80,
                "duration": 0.09999999999999432,
                "tempo": 120.0
            },
            {
                "start_time": 120.125,
                "end_time": 120.49318181818181,
                "pitch": 81,
                "velocity": 80,
                "duration": 0.36818181818181017,
                "tempo": 120.0
            },
            {
                "start_time": 120.52727272727272,
                "end_time": 120.66136363636363,
                "pitch": 80,
                "velocity": 80,
                "duration": 0.13409090909091503,
                "tempo": 120.0
            },
            {
                "start_time": 120.72954545454544,
                "end_time": 121.09545454545454,
                "pitch": 81,
                "velocity": 80,
                "duration": 0.3659090909090992,
                "tempo": 120.0
            },
            {
                "start_time": 121.12954545454545,
                "end_time": 121.26363636363635,
                "pitch": 80,
                "velocity": 80,
                "duration": 0.13409090909090082,
                "tempo": 120.0
            },
            {
                "start_time": 121.32954545454545,
                "end_time": 121.69999999999999,
                "pitch": 81,
                "velocity": 80,
                "duration": 0.3704545454545354,
                "tempo": 120.0
            },
            {
                "start_time": 121.73181818181817,
                "end_time": 121.89999999999999,
                "pitch": 80,
                "velocity": 80,
                "duration": 0.16818181818182154,
                "tempo": 120.0
            },
            {
                "start_time": 121.9340909090909,
                "end_time": 122.1,
                "pitch": 85,
                "velocity": 80,
                "duration": 0.16590909090909634,
                "tempo": 120.0
            },
            {
                "start_time": 122.1340909090909,
                "end_time": 122.3,
                "pitch": 82,
                "velocity": 80,
                "duration": 0.16590909090909634,
                "tempo": 120.0
            },
            {
                "start_time": 122.3340909090909,
                "end_time": 122.50227272727273,
                "pitch": 81,
                "velocity": 80,
                "duration": 0.16818181818182154,
                "tempo": 120.0
            },
            {
                "start_time": 122.53636363636363,
                "end_time": 122.90227272727272,
                "pitch": 88,
                "velocity": 80,
                "duration": 0.36590909090908497,
                "tempo": 120.0
            },
            {
                "start_time": 122.93636363636364,
                "end_time": 123.10227272727272,
                "pitch": 86,
                "velocity": 80,
                "duration": 0.16590909090908212,
                "tempo": 120.0
            },
            {
                "start_time": 123.13636363636363,
                "end_time": 123.30454545454545,
                "pitch": 85,
                "velocity": 80,
                "duration": 0.16818181818182154,
                "tempo": 120.0
            },
            {
                "start_time": 123.33863636363635,
                "end_time": 123.67272727272727,
                "pitch": 86,
                "velocity": 80,
                "duration": 0.3340909090909179,
                "tempo": 120.0
            },
            {
                "start_time": 123.74090909090908,
                "end_time": 123.9090909090909,
                "pitch": 88,
                "velocity": 80,
                "duration": 0.16818181818182154,
                "tempo": 120.0
            },
            {
                "start_time": 123.94090909090909,
                "end_time": 124.27499999999999,
                "pitch": 86,
                "velocity": 80,
                "duration": 0.33409090909090366,
                "tempo": 120.0
            },
            {
                "start_time": 124.34318181818182,
                "end_time": 124.5090909090909,
                "pitch": 88,
                "velocity": 80,
                "duration": 0.16590909090908212,
                "tempo": 120.0
            },
            {
                "start_time": 124.54318181818181,
                "end_time": 124.87727272727273,
                "pitch": 86,
                "velocity": 80,
                "duration": 0.3340909090909179,
                "tempo": 120.0
            },
            {
                "start_time": 124.94545454545454,
                "end_time": 125.11136363636363,
                "pitch": 88,
                "velocity": 80,
                "duration": 0.16590909090909634,
                "tempo": 120.0
            },
            {
                "start_time": 125.14545454545454,
                "end_time": 125.47954545454544,
                "pitch": 86,
                "velocity": 80,
                "duration": 0.33409090909090366,
                "tempo": 120.0
            },
            {
                "start_time": 125.54772727272727,
                "end_time": 125.71590909090908,
                "pitch": 88,
                "velocity": 80,
                "duration": 0.16818181818180733,
                "tempo": 120.0
            },
            {
                "start_time": 125.75,
                "end_time": 126.11590909090908,
                "pitch": 86,
                "velocity": 80,
                "duration": 0.36590909090908497,
                "tempo": 120.0
            },
            {
                "start_time": 126.14999999999999,
                "end_time": 126.31590909090909,
                "pitch": 89,
                "velocity": 80,
                "duration": 0.16590909090909634,
                "tempo": 120.0
            },
            {
                "start_time": 126.35,
                "end_time": 126.51818181818182,
                "pitch": 88,
                "velocity": 80,
                "duration": 0.16818181818182154,
                "tempo": 120.0
            },
            {
                "start_time": 126.55227272727272,
                "end_time": 127.925,
                "pitch": 84,
                "velocity": 80,
                "duration": 1.3727272727272748,
                "tempo": 120.0
            },
            {
                "start_time": 127.9590909090909,
                "end_time": 129.9340909090909,
                "pitch": 0,
                "velocity": 80,
                "duration": 1.9750000000000085,
                "tempo": 120.0
            },
            {
                "start_time": 129.9659090909091,
                "end_time": 131.10454545454544,
                "pitch": 62,
                "velocity": 80,
                "duration": 1.1386363636363512,
                "tempo": 120.0
            },
            {
                "start_time": 131.17272727272726,
                "end_time": 131.3409090909091,
                "pitch": 68,
                "velocity": 80,
                "duration": 0.16818181818183575,
                "tempo": 120.0
            },
            {
                "start_time": 131.37272727272727,
                "end_time": 131.9431818181818,
                "pitch": 72,
                "velocity": 80,
                "duration": 0.5704545454545382,
                "tempo": 120.0
            },
            {
                "start_time": 131.97727272727272,
                "end_time": 132.34545454545454,
                "pitch": 71,
                "velocity": 80,
                "duration": 0.3681818181818244,
                "tempo": 120.0
            },
            {
                "start_time": 132.37954545454545,
                "end_time": 132.51363636363635,
                "pitch": 69,
                "velocity": 80,
                "duration": 0.13409090909090082,
                "tempo": 120.0
            },
            {
                "start_time": 132.57954545454544,
                "end_time": 132.74545454545455,
                "pitch": 71,
                "velocity": 80,
                "duration": 0.16590909090911055,
                "tempo": 120.0
            },
            {
                "start_time": 132.77954545454546,
                "end_time": 132.94772727272726,
                "pitch": 0,
                "velocity": 80,
                "duration": 0.16818181818180733,
                "tempo": 120.0
            },
            {
                "start_time": 132.98181818181817,
                "end_time": 134.52272727272725,
                "pitch": 65,
                "velocity": 80,
                "duration": 1.5409090909090821,
                "tempo": 120.0
            },
            {
                "start_time": 134.5909090909091,
                "end_time": 135.1590909090909,
                "pitch": 77,
                "velocity": 80,
                "duration": 0.568181818181813,
                "tempo": 120.0
            },
            {
                "start_time": 135.1931818181818,
                "end_time": 135.56363636363636,
                "pitch": 76,
                "velocity": 80,
                "duration": 0.3704545454545496,
                "tempo": 120.0
            },
            {
                "start_time": 135.59545454545454,
                "end_time": 135.76363636363635,
                "pitch": 74,
                "velocity": 80,
                "duration": 0.16818181818180733,
                "tempo": 120.0
            },
            {
                "start_time": 135.79772727272726,
                "end_time": 135.9659090909091,
                "pitch": 76,
                "velocity": 80,
                "duration": 0.16818181818183575,
                "tempo": 120.0
            },
            {
                "start_time": 136.0,
                "end_time": 136.16590909090908,
                "pitch": 0,
                "velocity": 80,
                "duration": 0.16590909090908212,
                "tempo": 120.0
            },
            {
                "start_time": 136.2,
                "end_time": 138.71136363636364,
                "pitch": 71,
                "velocity": 80,
                "duration": 2.5113636363636545,
                "tempo": 120.0
            },
            {
                "start_time": 138.81136363636364,
                "end_time": 139.1818181818182,
                "pitch": 74,
                "velocity": 80,
                "duration": 0.3704545454545496,
                "tempo": 120.0
            },
            {
                "start_time": 139.2159090909091,
                "end_time": 139.5840909090909,
                "pitch": 72,
                "velocity": 80,
                "duration": 0.36818181818179596,
                "tempo": 120.0
            },
            {
                "start_time": 139.61818181818182,
                "end_time": 140.72272727272727,
                "pitch": 71,
                "velocity": 80,
                "duration": 1.1045454545454447,
                "tempo": 120.0
            },
            {
                "start_time": 140.82272727272726,
                "end_time": 140.99090909090907,
                "pitch": 68,
                "velocity": 80,
                "duration": 0.16818181818180733,
                "tempo": 120.0
            },
            {
                "start_time": 141.025,
                "end_time": 142.40681818181818,
                "pitch": 64,
                "velocity": 80,
                "duration": 1.3818181818181756,
                "tempo": 120.0
            },
            {
                "start_time": 142.4409090909091,
                "end_time": 142.60454545454544,
                "pitch": 0,
                "velocity": 80,
                "duration": 0.16363636363635692,
                "tempo": 120.0
            },
            {
                "start_time": 142.63636363636363,
                "end_time": 144.74545454545455,
                "pitch": 65,
                "velocity": 80,
                "duration": 2.1090909090909236,
                "tempo": 120.0
            },
            {
                "start_time": 144.84545454545454,
                "end_time": 145.21363636363637,
                "pitch": 69,
                "velocity": 80,
                "duration": 0.3681818181818244,
                "tempo": 120.0
            },
            {
                "start_time": 145.24772727272727,
                "end_time": 145.41590909090908,
                "pitch": 72,
                "velocity": 80,
                "duration": 0.16818181818180733,
                "tempo": 120.0
            },
            {
                "start_time": 145.44772727272726,
                "end_time": 145.61590909090907,
                "pitch": 71,
                "velocity": 80,
                "duration": 0.16818181818180733,
                "tempo": 120.0
            },
            {
                "start_time": 145.65,
                "end_time": 145.8181818181818,
                "pitch": 0,
                "velocity": 80,
                "duration": 0.16818181818180733,
                "tempo": 120.0
            },
            {
                "start_time": 145.85227272727272,
                "end_time": 146.22045454545454,
                "pitch": 69,
                "velocity": 80,
                "duration": 0.3681818181818244,
                "tempo": 120.0
            },
            {
                "start_time": 146.25454545454545,
                "end_time": 146.42272727272726,
                "pitch": 68,
                "velocity": 80,
                "duration": 0.16818181818180733,
                "tempo": 120.0
            },
            {
                "start_time": 146.45454545454544,
                "end_time": 147.96363636363637,
                "pitch": 64,
                "velocity": 80,
                "duration": 1.5090909090909292,
                "tempo": 120.0
            },
            {
                "start_time": 148.06363636363636,
                "end_time": 148.4318181818182,
                "pitch": 68,
                "velocity": 80,
                "duration": 0.3681818181818244,
                "tempo": 120.0
            },
            {
                "start_time": 148.4659090909091,
                "end_time": 148.63181818181818,
                "pitch": 71,
                "velocity": 80,
                "duration": 0.16590909090908212,
                "tempo": 120.0
            },
            {
                "start_time": 148.66590909090908,
                "end_time": 148.83181818181816,
                "pitch": 69,
                "velocity": 80,
                "duration": 0.16590909090908212,
                "tempo": 120.0
            },
            {
                "start_time": 148.86590909090907,
                "end_time": 149.0340909090909,
                "pitch": 0,
                "velocity": 80,
                "duration": 0.16818181818183575,
                "tempo": 120.0
            },
            {
                "start_time": 149.0681818181818,
                "end_time": 151.7840909090909,
                "pitch": 70,
                "velocity": 80,
                "duration": 2.7159090909090935,
                "tempo": 120.0
            },
            {
                "start_time": 151.8840909090909,
                "end_time": 152.25227272727273,
                "pitch": 75,
                "velocity": 80,
                "duration": 0.3681818181818244,
                "tempo": 120.0
            },
            {
                "start_time": 152.28636363636363,
                "end_time": 153.6590909090909,
                "pitch": 74,
                "velocity": 80,
                "duration": 1.3727272727272748,
                "tempo": 120.0
            },
            {
                "start_time": 153.6931818181818,
                "end_time": 153.8272727272727,
                "pitch": 72,
                "velocity": 80,
                "duration": 0.13409090909090082,
                "tempo": 120.0
            },
            {
                "start_time": 153.89545454545453,
                "end_time": 155.275,
                "pitch": 74,
                "velocity": 80,
                "duration": 1.3795454545454788,
                "tempo": 120.0
            },
            {
                "start_time": 155.3068181818182,
                "end_time": 155.6681818181818,
                "pitch": 0,
                "velocity": 80,
                "duration": 0.36136363636362034,
                "tempo": 120.0
            },
            {
                "start_time": 155.7022727272727,
                "end_time": 156.83863636363637,
                "pitch": 62,
                "velocity": 80,
                "duration": 1.1363636363636545,
                "tempo": 120.0
            },
            {
                "start_time": 156.90681818181818,
                "end_time": 157.075,
                "pitch": 68,
                "velocity": 80,
                "duration": 0.16818181818180733,
                "tempo": 120.0
            },
            {
                "start_time": 157.1090909090909,
                "end_time": 157.67954545454543,
                "pitch": 72,
                "velocity": 80,
                "duration": 0.5704545454545382,
                "tempo": 120.0
            },
            {
                "start_time": 157.71136363636361,
                "end_time": 158.08181818181816,
                "pitch": 71,
                "velocity": 80,
                "duration": 0.3704545454545496,
                "tempo": 120.0
            },
            {
                "start_time": 158.11363636363635,
                "end_time": 158.25,
                "pitch": 69,
                "velocity": 80,
                "duration": 0.13636363636365445,
                "tempo": 120.0
            },
            {
                "start_time": 158.3159090909091,
                "end_time": 158.4840909090909,
                "pitch": 71,
                "velocity": 80,
                "duration": 0.16818181818180733,
                "tempo": 120.0
            },
            {
                "start_time": 158.5181818181818,
                "end_time": 158.6840909090909,
                "pitch": 0,
                "velocity": 80,
                "duration": 0.16590909090911055,
                "tempo": 120.0
            },
            {
                "start_time": 158.71818181818182,
                "end_time": 160.2590909090909,
                "pitch": 65,
                "velocity": 80,
                "duration": 1.5409090909090821,
                "tempo": 120.0
            },
            {
                "start_time": 160.3272727272727,
                "end_time": 160.89545454545453,
                "pitch": 77,
                "velocity": 80,
                "duration": 0.568181818181813,
                "tempo": 120.0
            },
            {
                "start_time": 160.9272727272727,
                "end_time": 161.29772727272726,
                "pitch": 76,
                "velocity": 80,
                "duration": 0.3704545454545496,
                "tempo": 120.0
            },
            {
                "start_time": 161.33181818181816,
                "end_time": 161.49772727272727,
                "pitch": 74,
                "velocity": 80,
                "duration": 0.16590909090911055,
                "tempo": 120.0
            },
            {
                "start_time": 161.53181818181818,
                "end_time": 161.7,
                "pitch": 76,
                "velocity": 80,
                "duration": 0.16818181818180733,
                "tempo": 120.0
            },
            {
                "start_time": 161.7340909090909,
                "end_time": 161.90227272727273,
                "pitch": 0,
                "velocity": 80,
                "duration": 0.16818181818183575,
                "tempo": 120.0
            },
            {
                "start_time": 161.9340909090909,
                "end_time": 164.45,
                "pitch": 71,
                "velocity": 80,
                "duration": 2.5159090909090764,
                "tempo": 120.0
            },
            {
                "start_time": 164.54999999999998,
                "end_time": 164.91590909090908,
                "pitch": 74,
                "velocity": 80,
                "duration": 0.3659090909090992,
                "tempo": 120.0
            },
            {
                "start_time": 164.95,
                "end_time": 165.3181818181818,
                "pitch": 72,
                "velocity": 80,
                "duration": 0.3681818181818244,
                "tempo": 120.0
            },
            {
                "start_time": 165.35227272727272,
                "end_time": 166.4590909090909,
                "pitch": 71,
                "velocity": 80,
                "duration": 1.10681818181817,
                "tempo": 120.0
            },
            {
                "start_time": 166.5590909090909,
                "end_time": 166.72727272727272,
                "pitch": 68,
                "velocity": 80,
                "duration": 0.16818181818180733,
                "tempo": 120.0
            },
            {
                "start_time": 166.7590909090909,
                "end_time": 168.1431818181818,
                "pitch": 64,
                "velocity": 80,
                "duration": 1.3840909090909008,
                "tempo": 120.0
            },
            {
                "start_time": 168.17499999999998,
                "end_time": 168.33863636363637,
                "pitch": 0,
                "velocity": 80,
                "duration": 0.16363636363638534,
                "tempo": 120.0
            },
            {
                "start_time": 168.37045454545455,
                "end_time": 170.47954545454544,
                "pitch": 65,
                "velocity": 80,
                "duration": 2.109090909090895,
                "tempo": 120.0
            },
            {
                "start_time": 170.57954545454544,
                "end_time": 170.94545454545454,
                "pitch": 69,
                "velocity": 80,
                "duration": 0.3659090909090992,
                "tempo": 120.0
            },
            {
                "start_time": 170.97954545454544,
                "end_time": 171.14772727272725,
                "pitch": 72,
                "velocity": 80,
                "duration": 0.16818181818180733,
                "tempo": 120.0
            },
            {
                "start_time": 171.1818181818182,
                "end_time": 171.34772727272727,
                "pitch": 71,
                "velocity": 80,
                "duration": 0.16590909090908212,
                "tempo": 120.0
            },
            {
                "start_time": 171.38181818181818,
                "end_time": 171.54999999999998,
                "pitch": 0,
                "velocity": 80,
                "duration": 0.16818181818180733,
                "tempo": 120.0
            },
            {
                "start_time": 171.5840909090909,
                "end_time": 171.9522727272727,
                "pitch": 69,
                "velocity": 80,
                "duration": 0.3681818181818244,
                "tempo": 120.0
            },
            {
                "start_time": 171.98636363636362,
                "end_time": 172.15454545454546,
                "pitch": 68,
                "velocity": 80,
                "duration": 0.16818181818183575,
                "tempo": 120.0
            },
            {
                "start_time": 172.18636363636364,
                "end_time": 173.69545454545454,
                "pitch": 64,
                "velocity": 80,
                "duration": 1.5090909090909008,
                "tempo": 120.0
            },
            {
                "start_time": 173.79545454545453,
                "end_time": 174.16363636363636,
                "pitch": 68,
                "velocity": 80,
                "duration": 0.3681818181818244,
                "tempo": 120.0
            },
            {
                "start_time": 174.19772727272726,
                "end_time": 174.36590909090907,
                "pitch": 71,
                "velocity": 80,
                "duration": 0.16818181818180733,
                "tempo": 120.0
            },
            {
                "start_time": 174.4,
                "end_time": 174.5681818181818,
                "pitch": 69,
                "velocity": 80,
                "duration": 0.16818181818180733,
                "tempo": 120.0
            },
            {
                "start_time": 174.6,
                "end_time": 174.7681818181818,
                "pitch": 0,
                "velocity": 80,
                "duration": 0.16818181818180733,
                "tempo": 120.0
            },
            {
                "start_time": 174.79999999999998,
                "end_time": 177.51590909090908,
                "pitch": 70,
                "velocity": 80,
                "duration": 2.7159090909090935,
                "tempo": 120.0
            },
            {
                "start_time": 177.61590909090907,
                "end_time": 177.9840909090909,
                "pitch": 75,
                "velocity": 80,
                "duration": 0.3681818181818244,
                "tempo": 120.0
            },
            {
                "start_time": 178.0181818181818,
                "end_time": 179.325,
                "pitch": 74,
                "velocity": 80,
                "duration": 1.306818181818187,
                "tempo": 120.0
            },
            {
                "start_time": 179.42499999999998,
                "end_time": 179.59318181818182,
                "pitch": 80,
                "velocity": 80,
                "duration": 0.16818181818183575,
                "tempo": 120.0
            }
        ],
        "Acoustic Bass": [
            {
                "start_time": 0.19999999999999998,
                "end_time": 0.3659090909090909,
                "pitch": 33,
                "velocity": 80,
                "duration": 0.16590909090909092,
                "tempo": 120.0
            },
            {
                "start_time": 0.39999999999999997,
                "end_time": 0.5636363636363636,
                "pitch": 45,
                "velocity": 80,
                "duration": 0.16363636363636364,
                "tempo": 120.0
            },
            {
                "start_time": 0.5954545454545455,
                "end_time": 0.759090909090909,
                "pitch": 33,
                "velocity": 80,
                "duration": 0.16363636363636358,
                "tempo": 120.0
            },
            {
                "start_time": 0.7931818181818181,
                "end_time": 0.959090909090909,
                "pitch": 0,
                "velocity": 80,
                "duration": 0.1659090909090909,
                "tempo": 120.0
            },
            {
                "start_time": 0.9931818181818182,
                "end_time": 1.159090909090909,
                "pitch": 33,
                "velocity": 80,
                "duration": 0.16590909090909078,
                "tempo": 120.0
            },
            {
                "start_time": 1.190909090909091,
                "end_time": 1.3545454545454545,
                "pitch": 45,
                "velocity": 80,
                "duration": 0.16363636363636358,
                "tempo": 120.0
            },
            {
                "start_time": 1.3886363636363637,
                "end_time": 1.5522727272727272,
                "pitch": 32,
                "velocity": 80,
                "duration": 0.16363636363636358,
                "tempo": 120.0
            },
            {
                "start_time": 1.584090909090909,
                "end_time": 1.7545454545454544,
                "pitch": 32,
                "velocity": 80,
                "duration": 0.17045454545454541,
                "tempo": 120.0
            },
            {
                "start_time": 1.7909090909090908,
                "end_time": 1.9613636363636362,
                "pitch": 32,
                "velocity": 80,
                "duration": 0.17045454545454541,
                "tempo": 120.0
            },
            {
                "start_time": 1.9954545454545454,
                "end_time": 2.161363636363636,
                "pitch": 44,
                "velocity": 80,
                "duration": 0.16590909090909078,
                "tempo": 120.0
            },
            {
                "start_time": 2.1954545454545453,
                "end_time": 2.3613636363636363,
                "pitch": 32,
                "velocity": 80,
                "duration": 0.165909090909091,
                "tempo": 120.0
            },
            {
                "start_time": 2.3954545454545455,
                "end_time": 2.5636363636363635,
                "pitch": 44,
                "velocity": 80,
                "duration": 0.168181818181818,
                "tempo": 120.0
            },
            {
                "start_time": 2.5954545454545452,
                "end_time": 2.7636363636363637,
                "pitch": 32,
                "velocity": 80,
                "duration": 0.16818181818181843,
                "tempo": 120.0
            },
            {
                "start_time": 2.7977272727272724,
                "end_time": 2.9636363636363634,
                "pitch": 44,
                "velocity": 80,
                "duration": 0.165909090909091,
                "tempo": 120.0
            },
            {
                "start_time": 2.9977272727272726,
                "end_time": 3.3636363636363633,
                "pitch": 31,
                "velocity": 80,
                "duration": 0.36590909090909074,
                "tempo": 120.0
            },
            {
                "start_time": 3.3977272727272725,
                "end_time": 3.5636363636363635,
                "pitch": 31,
                "velocity": 80,
                "duration": 0.165909090909091,
                "tempo": 120.0
            },
            {
                "start_time": 3.5977272727272727,
                "end_time": 3.7636363636363637,
                "pitch": 43,
                "velocity": 80,
                "duration": 0.165909090909091,
                "tempo": 120.0
            },
            {
                "start_time": 3.7977272727272724,
                "end_time": 3.9636363636363634,
                "pitch": 31,
                "velocity": 80,
                "duration": 0.165909090909091,
                "tempo": 120.0
            },
            {
                "start_time": 3.9977272727272726,
                "end_time": 4.165909090909091,
                "pitch": 42,
                "velocity": 80,
                "duration": 0.16818181818181843,
                "tempo": 120.0
            },
            {
                "start_time": 4.2,
                "end_time": 4.36590909090909,
                "pitch": 43,
                "velocity": 80,
                "duration": 0.16590909090909012,
                "tempo": 120.0
            },
            {
                "start_time": 4.3999999999999995,
                "end_time": 4.5636363636363635,
                "pitch": 45,
                "velocity": 80,
                "duration": 0.16363636363636402,
                "tempo": 120.0
            },
            {
                "start_time": 4.595454545454545,
                "end_time": 4.963636363636363,
                "pitch": 26,
                "velocity": 80,
                "duration": 0.36818181818181817,
                "tempo": 120.0
            },
            {
                "start_time": 4.997727272727272,
                "end_time": 5.170454545454545,
                "pitch": 26,
                "velocity": 80,
                "duration": 0.17272727272727284,
                "tempo": 120.0
            },
            {
                "start_time": 5.202272727272727,
                "end_time": 5.370454545454545,
                "pitch": 38,
                "velocity": 80,
                "duration": 0.168181818181818,
                "tempo": 120.0
            },
            {
                "start_time": 5.404545454545454,
                "end_time": 5.572727272727272,
                "pitch": 26,
                "velocity": 80,
                "duration": 0.168181818181818,
                "tempo": 120.0
            },
            {
                "start_time": 5.6068181818181815,
                "end_time": 5.7727272727272725,
                "pitch": 39,
                "velocity": 80,
                "duration": 0.165909090909091,
                "tempo": 120.0
            },
            {
                "start_time": 5.806818181818182,
                "end_time": 5.972727272727273,
                "pitch": 26,
                "velocity": 80,
                "duration": 0.165909090909091,
                "tempo": 120.0
            },
            {
                "start_time": 6.006818181818182,
                "end_time": 6.172727272727273,
                "pitch": 40,
                "velocity": 80,
                "duration": 0.165909090909091,
                "tempo": 120.0
            },
            {
                "start_time": 6.206818181818181,
                "end_time": 6.375,
                "pitch": 26,
                "velocity": 80,
                "duration": 0.16818181818181888,
                "tempo": 120.0
            },
            {
                "start_time": 6.409090909090909,
                "end_time": 6.574999999999999,
                "pitch": 33,
                "velocity": 80,
                "duration": 0.16590909090909012,
                "tempo": 120.0
            },
            {
                "start_time": 6.6090909090909085,
                "end_time": 6.7749999999999995,
                "pitch": 33,
                "velocity": 80,
                "duration": 0.165909090909091,
                "tempo": 120.0
            },
            {
                "start_time": 6.809090909090909,
                "end_time": 6.977272727272727,
                "pitch": 45,
                "velocity": 80,
                "duration": 0.168181818181818,
                "tempo": 120.0
            },
            {
                "start_time": 7.009090909090909,
                "end_time": 7.177272727272727,
                "pitch": 33,
                "velocity": 80,
                "duration": 0.168181818181818,
                "tempo": 120.0
            },
            {
                "start_time": 7.211363636363636,
                "end_time": 7.375,
                "pitch": 48,
                "velocity": 80,
                "duration": 0.16363636363636402,
                "tempo": 120.0
            },
            {
                "start_time": 7.406818181818181,
                "end_time": 7.570454545454545,
                "pitch": 45,
                "velocity": 80,
                "duration": 0.16363636363636402,
                "tempo": 120.0
            },
            {
                "start_time": 7.6045454545454545,
                "end_time": 7.7749999999999995,
                "pitch": 33,
                "velocity": 80,
                "duration": 0.17045454545454497,
                "tempo": 120.0
            },
            {
                "start_time": 7.809090909090909,
                "end_time": 8.181818181818182,
                "pitch": 44,
                "velocity": 80,
                "duration": 0.372727272727273,
                "tempo": 120.0
            },
            {
                "start_time": 8.21590909090909,
                "end_time": 8.384090909090908,
                "pitch": 32,
                "velocity": 80,
                "duration": 0.168181818181818,
                "tempo": 120.0
            },
            {
                "start_time": 8.415909090909091,
                "end_time": 8.584090909090909,
                "pitch": 44,
                "velocity": 80,
                "duration": 0.168181818181818,
                "tempo": 120.0
            },
            {
                "start_time": 8.618181818181817,
                "end_time": 8.786363636363635,
                "pitch": 32,
                "velocity": 80,
                "duration": 0.168181818181818,
                "tempo": 120.0
            },
            {
                "start_time": 8.820454545454545,
                "end_time": 8.986363636363636,
                "pitch": 47,
                "velocity": 80,
                "duration": 0.165909090909091,
                "tempo": 120.0
            },
            {
                "start_time": 9.020454545454545,
                "end_time": 9.186363636363636,
                "pitch": 44,
                "velocity": 80,
                "duration": 0.165909090909091,
                "tempo": 120.0
            },
            {
                "start_time": 9.220454545454546,
                "end_time": 9.386363636363637,
                "pitch": 32,
                "velocity": 80,
                "duration": 0.165909090909091,
                "tempo": 120.0
            },
            {
                "start_time": 9.420454545454545,
                "end_time": 9.790909090909091,
                "pitch": 31,
                "velocity": 80,
                "duration": 0.37045454545454604,
                "tempo": 120.0
            },
            {
                "start_time": 9.822727272727272,
                "end_time": 9.99090909090909,
                "pitch": 43,
                "velocity": 80,
                "duration": 0.168181818181818,
                "tempo": 120.0
            },
            {
                "start_time": 10.025,
                "end_time": 10.193181818181818,
                "pitch": 31,
                "velocity": 80,
                "duration": 0.168181818181818,
                "tempo": 120.0
            },
            {
                "start_time": 10.227272727272727,
                "end_time": 10.393181818181818,
                "pitch": 31,
                "velocity": 80,
                "duration": 0.165909090909091,
                "tempo": 120.0
            },
            {
                "start_time": 10.427272727272726,
                "end_time": 10.595454545454546,
                "pitch": 47,
                "velocity": 80,
                "duration": 0.16818181818181976,
                "tempo": 120.0
            },
            {
                "start_time": 10.629545454545454,
                "end_time": 10.797727272727272,
                "pitch": 45,
                "velocity": 80,
                "duration": 0.168181818181818,
                "tempo": 120.0
            },
            {
                "start_time": 10.829545454545453,
                "end_time": 10.993181818181817,
                "pitch": 43,
                "velocity": 80,
                "duration": 0.16363636363636402,
                "tempo": 120.0
            },
            {
                "start_time": 11.024999999999999,
                "end_time": 11.39090909090909,
                "pitch": 38,
                "velocity": 80,
                "duration": 0.36590909090909207,
                "tempo": 120.0
            },
            {
                "start_time": 11.424999999999999,
                "end_time": 11.59090909090909,
                "pitch": 26,
                "velocity": 80,
                "duration": 0.165909090909091,
                "tempo": 120.0
            },
            {
                "start_time": 11.620454545454544,
                "end_time": 11.774999999999999,
                "pitch": 38,
                "velocity": 80,
                "duration": 0.15454545454545432,
                "tempo": 120.0
            },
            {
                "start_time": 11.806818181818182,
                "end_time": 11.961363636363636,
                "pitch": 26,
                "velocity": 80,
                "duration": 0.15454545454545432,
                "tempo": 120.0
            },
            {
                "start_time": 11.995454545454544,
                "end_time": 12.161363636363635,
                "pitch": 40,
                "velocity": 80,
                "duration": 0.165909090909091,
                "tempo": 120.0
            },
            {
                "start_time": 12.195454545454545,
                "end_time": 12.361363636363636,
                "pitch": 26,
                "velocity": 80,
                "duration": 0.165909090909091,
                "tempo": 120.0
            },
            {
                "start_time": 12.395454545454545,
                "end_time": 12.563636363636363,
                "pitch": 42,
                "velocity": 80,
                "duration": 0.168181818181818,
                "tempo": 120.0
            },
            {
                "start_time": 12.597727272727273,
                "end_time": 12.763636363636364,
                "pitch": 26,
                "velocity": 80,
                "duration": 0.165909090909091,
                "tempo": 120.0
            },
            {
                "start_time": 12.797727272727272,
                "end_time": 12.96590909090909,
                "pitch": 33,
                "velocity": 80,
                "duration": 0.168181818181818,
                "tempo": 120.0
            },
            {
                "start_time": 13.0,
                "end_time": 13.168181818181818,
                "pitch": 33,
                "velocity": 80,
                "duration": 0.168181818181818,
                "tempo": 120.0
            },
            {
                "start_time": 13.2,
                "end_time": 13.368181818181817,
                "pitch": 45,
                "velocity": 80,
                "duration": 0.168181818181818,
                "tempo": 120.0
            },
            {
                "start_time": 13.402272727272727,
                "end_time": 13.570454545454545,
                "pitch": 33,
                "velocity": 80,
                "duration": 0.168181818181818,
                "tempo": 120.0
            },
            {
                "start_time": 13.604545454545454,
                "end_time": 13.770454545454545,
                "pitch": 48,
                "velocity": 80,
                "duration": 0.165909090909091,
                "tempo": 120.0
            },
            {
                "start_time": 13.804545454545455,
                "end_time": 13.972727272727273,
                "pitch": 45,
                "velocity": 80,
                "duration": 0.168181818181818,
                "tempo": 120.0
            },
            {
                "start_time": 14.006818181818181,
                "end_time": 14.172727272727272,
                "pitch": 33,
                "velocity": 80,
                "duration": 0.165909090909091,
                "tempo": 120.0
            },
            {
                "start_time": 14.206818181818182,
                "end_time": 14.575,
                "pitch": 44,
                "velocity": 80,
                "duration": 0.3681818181818173,
                "tempo": 120.0
            },
            {
                "start_time": 14.60681818181818,
                "end_time": 14.774999999999999,
                "pitch": 32,
                "velocity": 80,
                "duration": 0.168181818181818,
                "tempo": 120.0
            },
            {
                "start_time": 14.809090909090909,
                "end_time": 14.977272727272727,
                "pitch": 44,
                "velocity": 80,
                "duration": 0.168181818181818,
                "tempo": 120.0
            },
            {
                "start_time": 15.011363636363635,
                "end_time": 15.177272727272726,
                "pitch": 32,
                "velocity": 80,
                "duration": 0.165909090909091,
                "tempo": 120.0
            },
            {
                "start_time": 15.211363636363636,
                "end_time": 15.379545454545454,
                "pitch": 47,
                "velocity": 80,
                "duration": 0.168181818181818,
                "tempo": 120.0
            },
            {
                "start_time": 15.413636363636362,
                "end_time": 15.58181818181818,
                "pitch": 44,
                "velocity": 80,
                "duration": 0.168181818181818,
                "tempo": 120.0
            },
            {
                "start_time": 15.613636363636363,
                "end_time": 15.781818181818181,
                "pitch": 32,
                "velocity": 80,
                "duration": 0.168181818181818,
                "tempo": 120.0
            },
            {
                "start_time": 15.81590909090909,
                "end_time": 16.18409090909091,
                "pitch": 31,
                "velocity": 80,
                "duration": 0.36818181818181905,
                "tempo": 120.0
            },
            {
                "start_time": 16.21590909090909,
                "end_time": 16.384090909090908,
                "pitch": 43,
                "velocity": 80,
                "duration": 0.168181818181818,
                "tempo": 120.0
            },
            {
                "start_time": 16.418181818181818,
                "end_time": 16.584090909090907,
                "pitch": 31,
                "velocity": 80,
                "duration": 0.16590909090908923,
                "tempo": 120.0
            },
            {
                "start_time": 16.618181818181817,
                "end_time": 16.786363636363635,
                "pitch": 31,
                "velocity": 80,
                "duration": 0.168181818181818,
                "tempo": 120.0
            },
            {
                "start_time": 16.820454545454545,
                "end_time": 16.986363636363635,
                "pitch": 47,
                "velocity": 80,
                "duration": 0.16590909090908923,
                "tempo": 120.0
            },
            {
                "start_time": 17.020454545454545,
                "end_time": 17.186363636363634,
                "pitch": 45,
                "velocity": 80,
                "duration": 0.16590909090908923,
                "tempo": 120.0
            },
            {
                "start_time": 17.220454545454544,
                "end_time": 17.386363636363637,
                "pitch": 43,
                "velocity": 80,
                "duration": 0.16590909090909278,
                "tempo": 120.0
            },
            {
                "start_time": 17.420454545454543,
                "end_time": 17.788636363636364,
                "pitch": 38,
                "velocity": 80,
                "duration": 0.36818181818182083,
                "tempo": 120.0
            },
            {
                "start_time": 17.820454545454545,
                "end_time": 17.988636363636363,
                "pitch": 26,
                "velocity": 80,
                "duration": 0.168181818181818,
                "tempo": 120.0
            },
            {
                "start_time": 18.022727272727273,
                "end_time": 18.188636363636363,
                "pitch": 38,
                "velocity": 80,
                "duration": 0.16590909090908923,
                "tempo": 120.0
            },
            {
                "start_time": 18.222727272727273,
                "end_time": 18.388636363636362,
                "pitch": 26,
                "velocity": 80,
                "duration": 0.16590909090908923,
                "tempo": 120.0
            },
            {
                "start_time": 18.422727272727272,
                "end_time": 18.59090909090909,
                "pitch": 40,
                "velocity": 80,
                "duration": 0.168181818181818,
                "tempo": 120.0
            },
            {
                "start_time": 18.62272727272727,
                "end_time": 18.79090909090909,
                "pitch": 26,
                "velocity": 80,
                "duration": 0.168181818181818,
                "tempo": 120.0
            },
            {
                "start_time": 18.825,
                "end_time": 18.99090909090909,
                "pitch": 42,
                "velocity": 80,
                "duration": 0.16590909090908923,
                "tempo": 120.0
            },
            {
                "start_time": 19.025,
                "end_time": 19.19090909090909,
                "pitch": 26,
                "velocity": 80,
                "duration": 0.16590909090909278,
                "tempo": 120.0
            },
            {
                "start_time": 19.224999999999998,
                "end_time": 19.39090909090909,
                "pitch": 0,
                "velocity": 80,
                "duration": 0.16590909090909278,
                "tempo": 120.0
            },
            {
                "start_time": 19.425,
                "end_time": 19.59090909090909,
                "pitch": 33,
                "velocity": 80,
                "duration": 0.16590909090908923,
                "tempo": 120.0
            },
            {
                "start_time": 19.625,
                "end_time": 19.793181818181818,
                "pitch": 45,
                "velocity": 80,
                "duration": 0.168181818181818,
                "tempo": 120.0
            },
            {
                "start_time": 19.827272727272728,
                "end_time": 19.993181818181817,
                "pitch": 33,
                "velocity": 80,
                "duration": 0.16590909090908923,
                "tempo": 120.0
            },
            {
                "start_time": 20.027272727272727,
                "end_time": 20.193181818181817,
                "pitch": 43,
                "velocity": 80,
                "duration": 0.16590909090908923,
                "tempo": 120.0
            },
            {
                "start_time": 20.227272727272727,
                "end_time": 20.393181818181816,
                "pitch": 33,
                "velocity": 80,
                "duration": 0.16590909090908923,
                "tempo": 120.0
            },
            {
                "start_time": 20.427272727272726,
                "end_time": 20.595454545454544,
                "pitch": 45,
                "velocity": 80,
                "duration": 0.168181818181818,
                "tempo": 120.0
            },
            {
                "start_time": 20.629545454545454,
                "end_time": 20.99772727272727,
                "pitch": 32,
                "velocity": 80,
                "duration": 0.3681818181818173,
                "tempo": 120.0
            },
            {
                "start_time": 21.029545454545453,
                "end_time": 21.19772727272727,
                "pitch": 32,
                "velocity": 80,
                "duration": 0.168181818181818,
                "tempo": 120.0
            },
            {
                "start_time": 21.229545454545452,
                "end_time": 21.397727272727273,
                "pitch": 44,
                "velocity": 80,
                "duration": 0.16818181818182154,
                "tempo": 120.0
            },
            {
                "start_time": 21.429545454545455,
                "end_time": 21.597727272727273,
                "pitch": 32,
                "velocity": 80,
                "duration": 0.168181818181818,
                "tempo": 120.0
            },
            {
                "start_time": 21.629545454545454,
                "end_time": 21.797727272727272,
                "pitch": 43,
                "velocity": 80,
                "duration": 0.168181818181818,
                "tempo": 120.0
            },
            {
                "start_time": 21.831818181818182,
                "end_time": 22.0,
                "pitch": 32,
                "velocity": 80,
                "duration": 0.168181818181818,
                "tempo": 120.0
            },
            {
                "start_time": 22.03181818181818,
                "end_time": 22.2,
                "pitch": 44,
                "velocity": 80,
                "duration": 0.168181818181818,
                "tempo": 120.0
            },
            {
                "start_time": 22.23181818181818,
                "end_time": 22.599999999999998,
                "pitch": 31,
                "velocity": 80,
                "duration": 0.3681818181818173,
                "tempo": 120.0
            },
            {
                "start_time": 22.634090909090908,
                "end_time": 22.802272727272726,
                "pitch": 31,
                "velocity": 80,
                "duration": 0.168181818181818,
                "tempo": 120.0
            },
            {
                "start_time": 22.836363636363636,
                "end_time": 23.002272727272725,
                "pitch": 43,
                "velocity": 80,
                "duration": 0.16590909090908923,
                "tempo": 120.0
            },
            {
                "start_time": 23.036363636363635,
                "end_time": 23.202272727272724,
                "pitch": 31,
                "velocity": 80,
                "duration": 0.16590909090908923,
                "tempo": 120.0
            },
            {
                "start_time": 23.236363636363635,
                "end_time": 23.402272727272727,
                "pitch": 42,
                "velocity": 80,
                "duration": 0.16590909090909278,
                "tempo": 120.0
            },
            {
                "start_time": 23.436363636363634,
                "end_time": 23.602272727272727,
                "pitch": 43,
                "velocity": 80,
                "duration": 0.16590909090909278,
                "tempo": 120.0
            },
            {
                "start_time": 23.636363636363637,
                "end_time": 23.804545454545455,
                "pitch": 45,
                "velocity": 80,
                "duration": 0.168181818181818,
                "tempo": 120.0
            },
            {
                "start_time": 23.836363636363636,
                "end_time": 24.004545454545454,
                "pitch": 26,
                "velocity": 80,
                "duration": 0.168181818181818,
                "tempo": 120.0
            },
            {
                "start_time": 24.038636363636364,
                "end_time": 24.138636363636362,
                "pitch": 38,
                "velocity": 80,
                "duration": 0.09999999999999787,
                "tempo": 120.0
            },
            {
                "start_time": 24.170454545454543,
                "end_time": 24.270454545454545,
                "pitch": 45,
                "velocity": 80,
                "duration": 0.10000000000000142,
                "tempo": 120.0
            },
            {
                "start_time": 24.304545454545455,
                "end_time": 24.404545454545453,
                "pitch": 50,
                "velocity": 80,
                "duration": 0.09999999999999787,
                "tempo": 120.0
            },
            {
                "start_time": 24.438636363636363,
                "end_time": 24.538636363636364,
                "pitch": 39,
                "velocity": 80,
                "duration": 0.10000000000000142,
                "tempo": 120.0
            },
            {
                "start_time": 24.57272727272727,
                "end_time": 24.672727272727272,
                "pitch": 46,
                "velocity": 80,
                "duration": 0.10000000000000142,
                "tempo": 120.0
            },
            {
                "start_time": 24.706818181818182,
                "end_time": 24.80681818181818,
                "pitch": 51,
                "velocity": 80,
                "duration": 0.09999999999999787,
                "tempo": 120.0
            },
            {
                "start_time": 24.84090909090909,
                "end_time": 24.94090909090909,
                "pitch": 40,
                "velocity": 80,
                "duration": 0.10000000000000142,
                "tempo": 120.0
            },
            {
                "start_time": 24.974999999999998,
                "end_time": 25.075,
                "pitch": 47,
                "velocity": 80,
                "duration": 0.10000000000000142,
                "tempo": 120.0
            },
            {
                "start_time": 25.10681818181818,
                "end_time": 25.206818181818182,
                "pitch": 52,
                "velocity": 80,
                "duration": 0.10000000000000142,
                "tempo": 120.0
            },
            {
                "start_time": 25.24090909090909,
                "end_time": 25.34090909090909,
                "pitch": 41,
                "velocity": 80,
                "duration": 0.10000000000000142,
                "tempo": 120.0
            },
            {
                "start_time": 25.375,
                "end_time": 25.474999999999998,
                "pitch": 48,
                "velocity": 80,
                "duration": 0.09999999999999787,
                "tempo": 120.0
            },
            {
                "start_time": 25.50681818181818,
                "end_time": 25.60681818181818,
                "pitch": 53,
                "velocity": 80,
                "duration": 0.10000000000000142,
                "tempo": 120.0
            },
            {
                "start_time": 25.64090909090909,
                "end_time": 25.74090909090909,
                "pitch": 42,
                "velocity": 80,
                "duration": 0.09999999999999787,
                "tempo": 120.0
            },
            {
                "start_time": 25.775,
                "end_time": 25.877272727272725,
                "pitch": 49,
                "velocity": 80,
                "duration": 0.10227272727272663,
                "tempo": 120.0
            },
            {
                "start_time": 25.909090909090907,
                "end_time": 26.011363636363637,
                "pitch": 54,
                "velocity": 80,
                "duration": 0.10227272727273018,
                "tempo": 120.0
            },
            {
                "start_time": 26.043181818181818,
                "end_time": 26.143181818181816,
                "pitch": 43,
                "velocity": 80,
                "duration": 0.09999999999999787,
                "tempo": 120.0
            },
            {
                "start_time": 26.177272727272726,
                "end_time": 26.277272727272727,
                "pitch": 50,
                "velocity": 80,
                "duration": 0.10000000000000142,
                "tempo": 120.0
            },
            {
                "start_time": 26.311363636363634,
                "end_time": 26.411363636363635,
                "pitch": 55,
                "velocity": 80,
                "duration": 0.10000000000000142,
                "tempo": 120.0
            },
            {
                "start_time": 26.443181818181817,
                "end_time": 26.545454545454543,
                "pitch": 44,
                "velocity": 80,
                "duration": 0.10227272727272663,
                "tempo": 120.0
            },
            {
                "start_time": 26.577272727272724,
                "end_time": 26.679545454545455,
                "pitch": 51,
                "velocity": 80,
                "duration": 0.10227272727273018,
                "tempo": 120.0
            },
            {
                "start_time": 26.711363636363636,
                "end_time": 26.813636363636363,
                "pitch": 56,
                "velocity": 80,
                "duration": 0.10227272727272663,
                "tempo": 120.0
            },
            {
                "start_time": 26.845454545454544,
                "end_time": 26.945454545454545,
                "pitch": 45,
                "velocity": 80,
                "duration": 0.10000000000000142,
                "tempo": 120.0
            },
            {
                "start_time": 26.979545454545452,
                "end_time": 27.079545454545453,
                "pitch": 52,
                "velocity": 80,
                "duration": 0.10000000000000142,
                "tempo": 120.0
            },
            {
                "start_time": 27.113636363636363,
                "end_time": 27.21363636363636,
                "pitch": 57,
                "velocity": 80,
                "duration": 0.09999999999999787,
                "tempo": 120.0
            },
            {
                "start_time": 27.245454545454542,
                "end_time": 27.413636363636364,
                "pitch": 31,
                "velocity": 80,
                "duration": 0.16818181818182154,
                "tempo": 120.0
            },
            {
                "start_time": 27.445454545454545,
                "end_time": 27.513636363636362,
                "pitch": 43,
                "velocity": 80,
                "duration": 0.06818181818181657,
                "tempo": 120.0
            },
            {
                "start_time": 27.545454545454543,
                "end_time": 27.613636363636363,
                "pitch": 0,
                "velocity": 80,
                "duration": 0.06818181818182012,
                "tempo": 120.0
            },
            {
                "start_time": 27.64772727272727,
                "end_time": 27.813636363636363,
                "pitch": 31,
                "velocity": 80,
                "duration": 0.16590909090909278,
                "tempo": 120.0
            },
            {
                "start_time": 27.847727272727273,
                "end_time": 27.91590909090909,
                "pitch": 43,
                "velocity": 80,
                "duration": 0.06818181818181657,
                "tempo": 120.0
            },
            {
                "start_time": 27.94772727272727,
                "end_time": 28.01590909090909,
                "pitch": 0,
                "velocity": 80,
                "duration": 0.06818181818182012,
                "tempo": 120.0
            },
            {
                "start_time": 28.049999999999997,
                "end_time": 28.21590909090909,
                "pitch": 31,
                "velocity": 80,
                "duration": 0.16590909090909278,
                "tempo": 120.0
            },
            {
                "start_time": 28.25,
                "end_time": 28.315909090909088,
                "pitch": 43,
                "velocity": 80,
                "duration": 0.06590909090908781,
                "tempo": 120.0
            },
            {
                "start_time": 28.349999999999998,
                "end_time": 28.41590909090909,
                "pitch": 0,
                "velocity": 80,
                "duration": 0.06590909090909136,
                "tempo": 120.0
            },
            {
                "start_time": 28.45,
                "end_time": 28.618181818181817,
                "pitch": 31,
                "velocity": 80,
                "duration": 0.168181818181818,
                "tempo": 120.0
            },
            {
                "start_time": 28.65,
                "end_time": 28.718181818181815,
                "pitch": 43,
                "velocity": 80,
                "duration": 0.06818181818181657,
                "tempo": 120.0
            },
            {
                "start_time": 28.752272727272725,
                "end_time": 28.818181818181817,
                "pitch": 0,
                "velocity": 80,
                "duration": 0.06590909090909136,
                "tempo": 120.0
            },
            {
                "start_time": 28.852272727272727,
                "end_time": 29.018181818181816,
                "pitch": 31,
                "velocity": 80,
                "duration": 0.16590909090908923,
                "tempo": 120.0
            },
            {
                "start_time": 29.052272727272726,
                "end_time": 29.118181818181817,
                "pitch": 43,
                "velocity": 80,
                "duration": 0.06590909090909136,
                "tempo": 120.0
            },
            {
                "start_time": 29.152272727272727,
                "end_time": 29.218181818181815,
                "pitch": 0,
                "velocity": 80,
                "duration": 0.06590909090908781,
                "tempo": 120.0
            },
            {
                "start_time": 29.252272727272725,
                "end_time": 29.418181818181818,
                "pitch": 31,
                "velocity": 80,
                "duration": 0.16590909090909278,
                "tempo": 120.0
            },
            {
                "start_time": 29.452272727272724,
                "end_time": 29.518181818181816,
                "pitch": 43,
                "velocity": 80,
                "duration": 0.06590909090909136,
                "tempo": 120.0
            },
            {
                "start_time": 29.552272727272726,
                "end_time": 29.618181818181817,
                "pitch": 0,
                "velocity": 80,
                "duration": 0.06590909090909136,
                "tempo": 120.0
            },
            {
                "start_time": 29.652272727272727,
                "end_time": 29.820454545454545,
                "pitch": 31,
                "velocity": 80,
                "duration": 0.168181818181818,
                "tempo": 120.0
            },
            {
                "start_time": 29.852272727272727,
                "end_time": 29.920454545454543,
                "pitch": 43,
                "velocity": 80,
                "duration": 0.06818181818181657,
                "tempo": 120.0
            },
            {
                "start_time": 29.954545454545453,
                "end_time": 30.020454545454545,
                "pitch": 0,
                "velocity": 80,
                "duration": 0.06590909090909136,
                "tempo": 120.0
            },
            {
                "start_time": 30.054545454545455,
                "end_time": 30.220454545454544,
                "pitch": 31,
                "velocity": 80,
                "duration": 0.16590909090908923,
                "tempo": 120.0
            },
            {
                "start_time": 30.254545454545454,
                "end_time": 30.320454545454545,
                "pitch": 43,
                "velocity": 80,
                "duration": 0.06590909090909136,
                "tempo": 120.0
            },
            {
                "start_time": 30.354545454545452,
                "end_time": 30.420454545454543,
                "pitch": 0,
                "velocity": 80,
                "duration": 0.06590909090909136,
                "tempo": 120.0
            },
            {
                "start_time": 30.454545454545453,
                "end_time": 30.62272727272727,
                "pitch": 26,
                "velocity": 80,
                "duration": 0.168181818181818,
                "tempo": 120.0
            },
            {
                "start_time": 30.65681818181818,
                "end_time": 30.722727272727273,
                "pitch": 38,
                "velocity": 80,
                "duration": 0.06590909090909136,
                "tempo": 120.0
            },
            {
                "start_time": 30.75681818181818,
                "end_time": 30.82272727272727,
                "pitch": 0,
                "velocity": 80,
                "duration": 0.06590909090909136,
                "tempo": 120.0
            },
            {
                "start_time": 30.85681818181818,
                "end_time": 31.02272727272727,
                "pitch": 26,
                "velocity": 80,
                "duration": 0.16590909090908923,
                "tempo": 120.0
            },
            {
                "start_time": 31.05681818181818,
                "end_time": 31.12272727272727,
                "pitch": 38,
                "velocity": 80,
                "duration": 0.06590909090909136,
                "tempo": 120.0
            },
            {
                "start_time": 31.15681818181818,
                "end_time": 31.222727272727273,
                "pitch": 0,
                "velocity": 80,
                "duration": 0.06590909090909136,
                "tempo": 120.0
            },
            {
                "start_time": 31.25681818181818,
                "end_time": 31.422727272727272,
                "pitch": 26,
                "velocity": 80,
                "duration": 0.16590909090909278,
                "tempo": 120.0
            },
            {
                "start_time": 31.456818181818182,
                "end_time": 31.52272727272727,
                "pitch": 38,
                "velocity": 80,
                "duration": 0.06590909090908781,
                "tempo": 120.0
            },
            {
                "start_time": 31.55681818181818,
                "end_time": 31.62272727272727,
                "pitch": 0,
                "velocity": 80,
                "duration": 0.06590909090909136,
                "tempo": 120.0
            },
            {
                "start_time": 31.65681818181818,
                "end_time": 31.825,
                "pitch": 26,
                "velocity": 80,
                "duration": 0.168181818181818,
                "tempo": 120.0
            },
            {
                "start_time": 31.859090909090906,
                "end_time": 31.924999999999997,
                "pitch": 38,
                "velocity": 80,
                "duration": 0.06590909090909136,
                "tempo": 120.0
            },
            {
                "start_time": 31.959090909090907,
                "end_time": 32.027272727272724,
                "pitch": 0,
                "velocity": 80,
                "duration": 0.06818181818181657,
                "tempo": 120.0
            },
            {
                "start_time": 32.059090909090905,
                "end_time": 32.22727272727273,
                "pitch": 26,
                "velocity": 80,
                "duration": 0.16818181818182154,
                "tempo": 120.0
            },
            {
                "start_time": 32.25909090909091,
                "end_time": 32.32727272727273,
                "pitch": 38,
                "velocity": 80,
                "duration": 0.06818181818182012,
                "tempo": 120.0
            },
            {
                "start_time": 32.35909090909091,
                "end_time": 32.42727272727272,
                "pitch": 0,
                "velocity": 80,
                "duration": 0.06818181818181301,
                "tempo": 120.0
            },
            {
                "start_time": 32.45909090909091,
                "end_time": 32.627272727272725,
                "pitch": 26,
                "velocity": 80,
                "duration": 0.16818181818181444,
                "tempo": 120.0
            },
            {
                "start_time": 32.66136363636363,
                "end_time": 32.72954545454545,
                "pitch": 38,
                "velocity": 80,
                "duration": 0.06818181818182012,
                "tempo": 120.0
            },
            {
                "start_time": 32.76136363636363,
                "end_time": 32.82954545454545,
                "pitch": 0,
                "velocity": 80,
                "duration": 0.06818181818182012,
                "tempo": 120.0
            },
            {
                "start_time": 32.861363636363635,
                "end_time": 33.029545454545456,
                "pitch": 26,
                "velocity": 80,
                "duration": 0.16818181818182154,
                "tempo": 120.0
            },
            {
                "start_time": 33.06136363636364,
                "end_time": 33.12954545454545,
                "pitch": 38,
                "velocity": 80,
                "duration": 0.06818181818181301,
                "tempo": 120.0
            },
            {
                "start_time": 33.16136363636363,
                "end_time": 33.22954545454545,
                "pitch": 0,
                "velocity": 80,
                "duration": 0.06818181818182012,
                "tempo": 120.0
            },
            {
                "start_time": 33.26136363636363,
                "end_time": 33.429545454545455,
                "pitch": 26,
                "velocity": 80,
                "duration": 0.16818181818182154,
                "tempo": 120.0
            },
            {
                "start_time": 33.461363636363636,
                "end_time": 33.529545454545456,
                "pitch": 38,
                "velocity": 80,
                "duration": 0.06818181818182012,
                "tempo": 120.0
            },
            {
                "start_time": 33.56136363636364,
                "end_time": 33.62954545454545,
                "pitch": 0,
                "velocity": 80,
                "duration": 0.06818181818181301,
                "tempo": 120.0
            },
            {
                "start_time": 33.66136363636363,
                "end_time": 33.82954545454545,
                "pitch": 33,
                "velocity": 80,
                "duration": 0.16818181818182154,
                "tempo": 120.0
            },
            {
                "start_time": 33.861363636363635,
                "end_time": 33.929545454545455,
                "pitch": 45,
                "velocity": 80,
                "duration": 0.06818181818182012,
                "tempo": 120.0
            },
            {
                "start_time": 33.961363636363636,
                "end_time": 34.029545454545456,
                "pitch": 0,
                "velocity": 80,
                "duration": 0.06818181818182012,
                "tempo": 120.0
            },
            {
                "start_time": 34.06363636363636,
                "end_time": 34.22954545454545,
                "pitch": 33,
                "velocity": 80,
                "duration": 0.16590909090908923,
                "tempo": 120.0
            },
            {
                "start_time": 34.263636363636365,
                "end_time": 34.33181818181818,
                "pitch": 45,
                "velocity": 80,
                "duration": 0.06818181818181301,
                "tempo": 120.0
            },
            {
                "start_time": 34.36363636363636,
                "end_time": 34.43181818181818,
                "pitch": 0,
                "velocity": 80,
                "duration": 0.06818181818182012,
                "tempo": 120.0
            },
            {
                "start_time": 34.465909090909086,
                "end_time": 34.63181818181818,
                "pitch": 33,
                "velocity": 80,
                "duration": 0.16590909090909634,
                "tempo": 120.0
            },
            {
                "start_time": 34.66590909090909,
                "end_time": 34.73181818181818,
                "pitch": 45,
                "velocity": 80,
                "duration": 0.06590909090908781,
                "tempo": 120.0
            },
            {
                "start_time": 34.76590909090909,
                "end_time": 34.83181818181818,
                "pitch": 0,
                "velocity": 80,
                "duration": 0.06590909090908781,
                "tempo": 120.0
            },
            {
                "start_time": 34.86590909090909,
                "end_time": 35.03181818181818,
                "pitch": 33,
                "velocity": 80,
                "duration": 0.16590909090908923,
                "tempo": 120.0
            },
            {
                "start_time": 35.06590909090909,
                "end_time": 35.13181818181818,
                "pitch": 45,
                "velocity": 80,
                "duration": 0.06590909090909491,
                "tempo": 120.0
            },
            {
                "start_time": 35.16590909090909,
                "end_time": 35.23181818181818,
                "pitch": 0,
                "velocity": 80,
                "duration": 0.06590909090908781,
                "tempo": 120.0
            },
            {
                "start_time": 35.26590909090909,
                "end_time": 35.43181818181818,
                "pitch": 33,
                "velocity": 80,
                "duration": 0.16590909090908923,
                "tempo": 120.0
            },
            {
                "start_time": 35.465909090909086,
                "end_time": 35.53181818181818,
                "pitch": 45,
                "velocity": 80,
                "duration": 0.06590909090909491,
                "tempo": 120.0
            },
            {
                "start_time": 35.56590909090909,
                "end_time": 35.63181818181818,
                "pitch": 0,
                "velocity": 80,
                "duration": 0.06590909090909491,
                "tempo": 120.0
            },
            {
                "start_time": 35.66590909090909,
                "end_time": 35.83181818181818,
                "pitch": 33,
                "velocity": 80,
                "duration": 0.16590909090908923,
                "tempo": 120.0
            },
            {
                "start_time": 35.86590909090909,
                "end_time": 35.93181818181818,
                "pitch": 45,
                "velocity": 80,
                "duration": 0.06590909090908781,
                "tempo": 120.0
            },
            {
                "start_time": 35.965909090909086,
                "end_time": 36.03181818181818,
                "pitch": 0,
                "velocity": 80,
                "duration": 0.06590909090909491,
                "tempo": 120.0
            },
            {
                "start_time": 36.06590909090909,
                "end_time": 36.23409090909091,
                "pitch": 33,
                "velocity": 80,
                "duration": 0.16818181818182154,
                "tempo": 120.0
            },
            {
                "start_time": 36.26590909090909,
                "end_time": 36.33409090909091,
                "pitch": 45,
                "velocity": 80,
                "duration": 0.06818181818182012,
                "tempo": 120.0
            },
            {
                "start_time": 36.36818181818182,
                "end_time": 36.434090909090905,
                "pitch": 0,
                "velocity": 80,
                "duration": 0.06590909090908781,
                "tempo": 120.0
            },
            {
                "start_time": 36.46818181818182,
                "end_time": 36.63409090909091,
                "pitch": 33,
                "velocity": 80,
                "duration": 0.16590909090908923,
                "tempo": 120.0
            },
            {
                "start_time": 36.668181818181814,
                "end_time": 36.73409090909091,
                "pitch": 45,
                "velocity": 80,
                "duration": 0.06590909090909491,
                "tempo": 120.0
            },
            {
                "start_time": 36.768181818181816,
                "end_time": 36.83409090909091,
                "pitch": 0,
                "velocity": 80,
                "duration": 0.06590909090909491,
                "tempo": 120.0
            },
            {
                "start_time": 36.86818181818182,
                "end_time": 37.03409090909091,
                "pitch": 28,
                "velocity": 80,
                "duration": 0.16590909090908923,
                "tempo": 120.0
            },
            {
                "start_time": 37.06818181818181,
                "end_time": 37.13409090909091,
                "pitch": 40,
                "velocity": 80,
                "duration": 0.06590909090909491,
                "tempo": 120.0
            },
            {
                "start_time": 37.168181818181814,
                "end_time": 37.23409090909091,
                "pitch": 0,
                "velocity": 80,
                "duration": 0.06590909090909491,
                "tempo": 120.0
            },
            {
                "start_time": 37.268181818181816,
                "end_time": 37.434090909090905,
                "pitch": 28,
                "velocity": 80,
                "duration": 0.16590909090908923,
                "tempo": 120.0
            },
            {
                "start_time": 37.46818181818182,
                "end_time": 37.53409090909091,
                "pitch": 40,
                "velocity": 80,
                "duration": 0.06590909090908781,
                "tempo": 120.0
            },
            {
                "start_time": 37.56818181818181,
                "end_time": 37.63409090909091,
                "pitch": 0,
                "velocity": 80,
                "duration": 0.06590909090909491,
                "tempo": 120.0
            },
            {
                "start_time": 37.668181818181814,
                "end_time": 37.83409090909091,
                "pitch": 28,
                "velocity": 80,
                "duration": 0.16590909090909634,
                "tempo": 120.0
            },
            {
                "start_time": 37.86818181818182,
                "end_time": 37.934090909090905,
                "pitch": 40,
                "velocity": 80,
                "duration": 0.06590909090908781,
                "tempo": 120.0
            },
            {
                "start_time": 37.96818181818182,
                "end_time": 38.03409090909091,
                "pitch": 0,
                "velocity": 80,
                "duration": 0.06590909090908781,
                "tempo": 120.0
            },
            {
                "start_time": 38.06818181818181,
                "end_time": 38.236363636363635,
                "pitch": 28,
                "velocity": 80,
                "duration": 0.16818181818182154,
                "tempo": 120.0
            },
            {
                "start_time": 38.27045454545454,
                "end_time": 38.336363636363636,
                "pitch": 40,
                "velocity": 80,
                "duration": 0.06590909090909491,
                "tempo": 120.0
            },
            {
                "start_time": 38.37045454545454,
                "end_time": 38.43636363636364,
                "pitch": 0,
                "velocity": 80,
                "duration": 0.06590909090909491,
                "tempo": 120.0
            },
            {
                "start_time": 38.470454545454544,
                "end_time": 38.63636363636363,
                "pitch": 28,
                "velocity": 80,
                "duration": 0.16590909090908923,
                "tempo": 120.0
            },
            {
                "start_time": 38.67045454545455,
                "end_time": 38.736363636363635,
                "pitch": 40,
                "velocity": 80,
                "duration": 0.06590909090908781,
                "tempo": 120.0
            },
            {
                "start_time": 38.77045454545454,
                "end_time": 38.836363636363636,
                "pitch": 0,
                "velocity": 80,
                "duration": 0.06590909090909491,
                "tempo": 120.0
            },
            {
                "start_time": 38.87045454545454,
                "end_time": 39.03636363636363,
                "pitch": 28,
                "velocity": 80,
                "duration": 0.16590909090908923,
                "tempo": 120.0
            },
            {
                "start_time": 39.070454545454545,
                "end_time": 39.13636363636363,
                "pitch": 40,
                "velocity": 80,
                "duration": 0.06590909090908781,
                "tempo": 120.0
            },
            {
                "start_time": 39.17045454545455,
                "end_time": 39.236363636363635,
                "pitch": 0,
                "velocity": 80,
                "duration": 0.06590909090908781,
                "tempo": 120.0
            },
            {
                "start_time": 39.27045454545454,
                "end_time": 39.44318181818181,
                "pitch": 28,
                "velocity": 80,
                "duration": 0.17272727272727195,
                "tempo": 120.0
            },
            {
                "start_time": 39.47727272727273,
                "end_time": 39.64772727272727,
                "pitch": 28,
                "velocity": 80,
                "duration": 0.17045454545454675,
                "tempo": 120.0
            },
            {
                "start_time": 39.679545454545455,
                "end_time": 39.84318181818182,
                "pitch": 28,
                "velocity": 80,
                "duration": 0.16363636363636402,
                "tempo": 120.0
            },
            {
                "start_time": 39.877272727272725,
                "end_time": 40.24090909090909,
                "pitch": 29,
                "velocity": 80,
                "duration": 0.36363636363636687,
                "tempo": 120.0
            },
            {
                "start_time": 40.275,
                "end_time": 40.34318181818182,
                "pitch": 41,
                "velocity": 80,
                "duration": 0.06818181818182012,
                "tempo": 120.0
            },
            {
                "start_time": 40.375,
                "end_time": 40.44318181818181,
                "pitch": 0,
                "velocity": 80,
                "duration": 0.06818181818181301,
                "tempo": 120.0
            },
            {
                "start_time": 40.475,
                "end_time": 40.643181818181816,
                "pitch": 29,
                "velocity": 80,
                "duration": 0.16818181818181444,
                "tempo": 120.0
            },
            {
                "start_time": 40.675,
                "end_time": 40.74318181818182,
                "pitch": 41,
                "velocity": 80,
                "duration": 0.06818181818182012,
                "tempo": 120.0
            },
            {
                "start_time": 40.775,
                "end_time": 40.84318181818182,
                "pitch": 0,
                "velocity": 80,
                "duration": 0.06818181818182012,
                "tempo": 120.0
            },
            {
                "start_time": 40.875,
                "end_time": 41.043181818181814,
                "pitch": 29,
                "velocity": 80,
                "duration": 0.16818181818181444,
                "tempo": 120.0
            },
            {
                "start_time": 41.074999999999996,
                "end_time": 41.143181818181816,
                "pitch": 41,
                "velocity": 80,
                "duration": 0.06818181818182012,
                "tempo": 120.0
            },
            {
                "start_time": 41.175,
                "end_time": 41.24318181818182,
                "pitch": 0,
                "velocity": 80,
                "duration": 0.06818181818182012,
                "tempo": 120.0
            },
            {
                "start_time": 41.275,
                "end_time": 41.44318181818181,
                "pitch": 29,
                "velocity": 80,
                "duration": 0.16818181818181444,
                "tempo": 120.0
            },
            {
                "start_time": 41.475,
                "end_time": 41.543181818181814,
                "pitch": 41,
                "velocity": 80,
                "duration": 0.06818181818181301,
                "tempo": 120.0
            },
            {
                "start_time": 41.574999999999996,
                "end_time": 41.643181818181816,
                "pitch": 0,
                "velocity": 80,
                "duration": 0.06818181818182012,
                "tempo": 120.0
            },
            {
                "start_time": 41.675,
                "end_time": 41.84318181818182,
                "pitch": 29,
                "velocity": 80,
                "duration": 0.16818181818182154,
                "tempo": 120.0
            },
            {
                "start_time": 41.875,
                "end_time": 41.94318181818181,
                "pitch": 41,
                "velocity": 80,
                "duration": 0.06818181818181301,
                "tempo": 120.0
            },
            {
                "start_time": 41.975,
                "end_time": 42.043181818181814,
                "pitch": 0,
                "velocity": 80,
                "duration": 0.06818181818181301,
                "tempo": 120.0
            },
            {
                "start_time": 42.07727272727273,
                "end_time": 42.24318181818182,
                "pitch": 29,
                "velocity": 80,
                "duration": 0.16590909090908923,
                "tempo": 120.0
            },
            {
                "start_time": 42.277272727272724,
                "end_time": 42.345454545454544,
                "pitch": 41,
                "velocity": 80,
                "duration": 0.06818181818182012,
                "tempo": 120.0
            },
            {
                "start_time": 42.377272727272725,
                "end_time": 42.445454545454545,
                "pitch": 0,
                "velocity": 80,
                "duration": 0.06818181818182012,
                "tempo": 120.0
            },
            {
                "start_time": 42.47954545454545,
                "end_time": 42.64545454545454,
                "pitch": 29,
                "velocity": 80,
                "duration": 0.16590909090908923,
                "tempo": 120.0
            },
            {
                "start_time": 42.679545454545455,
                "end_time": 42.74545454545454,
                "pitch": 41,
                "velocity": 80,
                "duration": 0.06590909090908781,
                "tempo": 120.0
            },
            {
                "start_time": 42.77954545454545,
                "end_time": 42.845454545454544,
                "pitch": 0,
                "velocity": 80,
                "duration": 0.06590909090909491,
                "tempo": 120.0
            },
            {
                "start_time": 42.87954545454545,
                "end_time": 43.04545454545455,
                "pitch": 29,
                "velocity": 80,
                "duration": 0.16590909090909634,
                "tempo": 120.0
            },
            {
                "start_time": 43.07954545454545,
                "end_time": 43.14545454545454,
                "pitch": 41,
                "velocity": 80,
                "duration": 0.06590909090908781,
                "tempo": 120.0
            },
            {
                "start_time": 43.179545454545455,
                "end_time": 43.24545454545454,
                "pitch": 0,
                "velocity": 80,
                "duration": 0.06590909090908781,
                "tempo": 120.0
            },
            {
                "start_time": 43.27954545454545,
                "end_time": 43.445454545454545,
                "pitch": 24,
                "velocity": 80,
                "duration": 0.16590909090909634,
                "tempo": 120.0
            },
            {
                "start_time": 43.47954545454545,
                "end_time": 43.54545454545455,
                "pitch": 36,
                "velocity": 80,
                "duration": 0.06590909090909491,
                "tempo": 120.0
            },
            {
                "start_time": 43.57954545454545,
                "end_time": 43.64545454545454,
                "pitch": 0,
                "velocity": 80,
                "duration": 0.06590909090908781,
                "tempo": 120.0
            },
            {
                "start_time": 43.679545454545455,
                "end_time": 43.845454545454544,
                "pitch": 24,
                "velocity": 80,
                "duration": 0.16590909090908923,
                "tempo": 120.0
            },
            {
                "start_time": 43.87954545454545,
                "end_time": 43.945454545454545,
                "pitch": 36,
                "velocity": 80,
                "duration": 0.06590909090909491,
                "tempo": 120.0
            },
            {
                "start_time": 43.97954545454545,
                "end_time": 44.04545454545455,
                "pitch": 0,
                "velocity": 80,
                "duration": 0.06590909090909491,
                "tempo": 120.0
            },
            {
                "start_time": 44.07954545454545,
                "end_time": 44.24772727272727,
                "pitch": 24,
                "velocity": 80,
                "duration": 0.16818181818181444,
                "tempo": 120.0
            },
            {
                "start_time": 44.27954545454545,
                "end_time": 44.34772727272727,
                "pitch": 36,
                "velocity": 80,
                "duration": 0.06818181818182012,
                "tempo": 120.0
            },
            {
                "start_time": 44.38181818181818,
                "end_time": 44.44772727272727,
                "pitch": 0,
                "velocity": 80,
                "duration": 0.06590909090908781,
                "tempo": 120.0
            },
            {
                "start_time": 44.48181818181818,
                "end_time": 44.64772727272727,
                "pitch": 24,
                "velocity": 80,
                "duration": 0.16590909090909634,
                "tempo": 120.0
            },
            {
                "start_time": 44.68181818181818,
                "end_time": 44.74772727272727,
                "pitch": 36,
                "velocity": 80,
                "duration": 0.06590909090908781,
                "tempo": 120.0
            },
            {
                "start_time": 44.78181818181818,
                "end_time": 44.84772727272727,
                "pitch": 0,
                "velocity": 80,
                "duration": 0.06590909090908781,
                "tempo": 120.0
            },
            {
                "start_time": 44.88181818181818,
                "end_time": 45.04772727272727,
                "pitch": 24,
                "velocity": 80,
                "duration": 0.16590909090908923,
                "tempo": 120.0
            },
            {
                "start_time": 45.08181818181818,
                "end_time": 45.14772727272727,
                "pitch": 36,
                "velocity": 80,
                "duration": 0.06590909090909491,
                "tempo": 120.0
            },
            {
                "start_time": 45.18181818181818,
                "end_time": 45.24772727272727,
                "pitch": 0,
                "velocity": 80,
                "duration": 0.06590909090908781,
                "tempo": 120.0
            },
            {
                "start_time": 45.28181818181818,
                "end_time": 45.44772727272727,
                "pitch": 24,
                "velocity": 80,
                "duration": 0.16590909090908923,
                "tempo": 120.0
            },
            {
                "start_time": 45.48181818181818,
                "end_time": 45.54772727272727,
                "pitch": 36,
                "velocity": 80,
                "duration": 0.06590909090909491,
                "tempo": 120.0
            },
            {
                "start_time": 45.58181818181818,
                "end_time": 45.64772727272727,
                "pitch": 0,
                "velocity": 80,
                "duration": 0.06590909090909491,
                "tempo": 120.0
            },
            {
                "start_time": 45.68181818181818,
                "end_time": 45.84772727272727,
                "pitch": 24,
                "velocity": 80,
                "duration": 0.16590909090908923,
                "tempo": 120.0
            },
            {
                "start_time": 45.88181818181818,
                "end_time": 45.94772727272727,
                "pitch": 36,
                "velocity": 80,
                "duration": 0.06590909090908781,
                "tempo": 120.0
            },
            {
                "start_time": 45.98181818181818,
                "end_time": 46.04772727272727,
                "pitch": 0,
                "velocity": 80,
                "duration": 0.06590909090909491,
                "tempo": 120.0
            },
            {
                "start_time": 46.08181818181818,
                "end_time": 46.25,
                "pitch": 26,
                "velocity": 80,
                "duration": 0.16818181818182154,
                "tempo": 120.0
            },
            {
                "start_time": 46.28409090909091,
                "end_time": 46.349999999999994,
                "pitch": 38,
                "velocity": 80,
                "duration": 0.06590909090908781,
                "tempo": 120.0
            },
            {
                "start_time": 46.38409090909091,
                "end_time": 46.449999999999996,
                "pitch": 0,
                "velocity": 80,
                "duration": 0.06590909090908781,
                "tempo": 120.0
            },
            {
                "start_time": 46.48409090909091,
                "end_time": 46.65,
                "pitch": 27,
                "velocity": 80,
                "duration": 0.16590909090908923,
                "tempo": 120.0
            },
            {
                "start_time": 46.684090909090905,
                "end_time": 46.75,
                "pitch": 39,
                "velocity": 80,
                "duration": 0.06590909090909491,
                "tempo": 120.0
            },
            {
                "start_time": 46.78409090909091,
                "end_time": 46.849999999999994,
                "pitch": 0,
                "velocity": 80,
                "duration": 0.06590909090908781,
                "tempo": 120.0
            },
            {
                "start_time": 46.88409090909091,
                "end_time": 47.05,
                "pitch": 27,
                "velocity": 80,
                "duration": 0.16590909090908923,
                "tempo": 120.0
            },
            {
                "start_time": 47.084090909090904,
                "end_time": 47.15,
                "pitch": 39,
                "velocity": 80,
                "duration": 0.06590909090909491,
                "tempo": 120.0
            },
            {
                "start_time": 47.184090909090905,
                "end_time": 47.25,
                "pitch": 0,
                "velocity": 80,
                "duration": 0.06590909090909491,
                "tempo": 120.0
            },
            {
                "start_time": 47.28409090909091,
                "end_time": 47.449999999999996,
                "pitch": 27,
                "velocity": 80,
                "duration": 0.16590909090908923,
                "tempo": 120.0
            },
            {
                "start_time": 47.48409090909091,
                "end_time": 47.55,
                "pitch": 39,
                "velocity": 80,
                "duration": 0.06590909090908781,
                "tempo": 120.0
            },
            {
                "start_time": 47.584090909090904,
                "end_time": 47.65,
                "pitch": 0,
                "velocity": 80,
                "duration": 0.06590909090909491,
                "tempo": 120.0
            },
            {
                "start_time": 47.684090909090905,
                "end_time": 47.849999999999994,
                "pitch": 27,
                "velocity": 80,
                "duration": 0.16590909090908923,
                "tempo": 120.0
            },
            {
                "start_time": 47.88409090909091,
                "end_time": 47.949999999999996,
                "pitch": 39,
                "velocity": 80,
                "duration": 0.06590909090908781,
                "tempo": 120.0
            },
            {
                "start_time": 47.98409090909091,
                "end_time": 48.05,
                "pitch": 0,
                "velocity": 80,
                "duration": 0.06590909090908781,
                "tempo": 120.0
            },
            {
                "start_time": 48.084090909090904,
                "end_time": 48.252272727272725,
                "pitch": 27,
                "velocity": 80,
                "duration": 0.16818181818182154,
                "tempo": 120.0
            },
            {
                "start_time": 48.28636363636363,
                "end_time": 48.35227272727273,
                "pitch": 39,
                "velocity": 80,
                "duration": 0.06590909090909491,
                "tempo": 120.0
            },
            {
                "start_time": 48.38636363636363,
                "end_time": 48.45227272727273,
                "pitch": 0,
                "velocity": 80,
                "duration": 0.06590909090909491,
                "tempo": 120.0
            },
            {
                "start_time": 48.486363636363635,
                "end_time": 48.652272727272724,
                "pitch": 27,
                "velocity": 80,
                "duration": 0.16590909090908923,
                "tempo": 120.0
            },
            {
                "start_time": 48.68636363636364,
                "end_time": 48.752272727272725,
                "pitch": 39,
                "velocity": 80,
                "duration": 0.06590909090908781,
                "tempo": 120.0
            },
            {
                "start_time": 48.78636363636363,
                "end_time": 48.85227272727273,
                "pitch": 0,
                "velocity": 80,
                "duration": 0.06590909090909491,
                "tempo": 120.0
            },
            {
                "start_time": 48.88636363636363,
                "end_time": 49.05227272727272,
                "pitch": 27,
                "velocity": 80,
                "duration": 0.16590909090908923,
                "tempo": 120.0
            },
            {
                "start_time": 49.086363636363636,
                "end_time": 49.152272727272724,
                "pitch": 39,
                "velocity": 80,
                "duration": 0.06590909090908781,
                "tempo": 120.0
            },
            {
                "start_time": 49.18636363636364,
                "end_time": 49.252272727272725,
                "pitch": 0,
                "velocity": 80,
                "duration": 0.06590909090908781,
                "tempo": 120.0
            },
            {
                "start_time": 49.28636363636363,
                "end_time": 49.45227272727273,
                "pitch": 27,
                "velocity": 80,
                "duration": 0.16590909090909634,
                "tempo": 120.0
            },
            {
                "start_time": 49.486363636363635,
                "end_time": 49.55227272727272,
                "pitch": 39,
                "velocity": 80,
                "duration": 0.06590909090908781,
                "tempo": 120.0
            },
            {
                "start_time": 49.586363636363636,
                "end_time": 49.652272727272724,
                "pitch": 0,
                "velocity": 80,
                "duration": 0.06590909090908781,
                "tempo": 120.0
            },
            {
                "start_time": 49.68636363636364,
                "end_time": 49.85227272727273,
                "pitch": 26,
                "velocity": 80,
                "duration": 0.16590909090908923,
                "tempo": 120.0
            },
            {
                "start_time": 49.88636363636363,
                "end_time": 49.95227272727273,
                "pitch": 38,
                "velocity": 80,
                "duration": 0.06590909090909491,
                "tempo": 120.0
            },
            {
                "start_time": 49.986363636363635,
                "end_time": 50.054545454545455,
                "pitch": 0,
                "velocity": 80,
                "duration": 0.06818181818182012,
                "tempo": 120.0
            },
            {
                "start_time": 50.086363636363636,
                "end_time": 50.25454545454545,
                "pitch": 26,
                "velocity": 80,
                "duration": 0.16818181818181444,
                "tempo": 120.0
            },
            {
                "start_time": 50.288636363636364,
                "end_time": 50.35454545454545,
                "pitch": 38,
                "velocity": 80,
                "duration": 0.06590909090908781,
                "tempo": 120.0
            },
            {
                "start_time": 50.38863636363636,
                "end_time": 50.45681818181818,
                "pitch": 0,
                "velocity": 80,
                "duration": 0.06818181818182012,
                "tempo": 120.0
            },
            {
                "start_time": 50.48863636363636,
                "end_time": 50.65681818181818,
                "pitch": 26,
                "velocity": 80,
                "duration": 0.16818181818182154,
                "tempo": 120.0
            },
            {
                "start_time": 50.68863636363636,
                "end_time": 50.75681818181818,
                "pitch": 38,
                "velocity": 80,
                "duration": 0.06818181818182012,
                "tempo": 120.0
            },
            {
                "start_time": 50.788636363636364,
                "end_time": 50.85681818181818,
                "pitch": 0,
                "velocity": 80,
                "duration": 0.06818181818181301,
                "tempo": 120.0
            },
            {
                "start_time": 50.88863636363636,
                "end_time": 51.05681818181818,
                "pitch": 26,
                "velocity": 80,
                "duration": 0.16818181818182154,
                "tempo": 120.0
            },
            {
                "start_time": 51.08863636363636,
                "end_time": 51.45681818181818,
                "pitch": 26,
                "velocity": 80,
                "duration": 0.3681818181818173,
                "tempo": 120.0
            },
            {
                "start_time": 51.48863636363636,
                "end_time": 51.55681818181818,
                "pitch": 38,
                "velocity": 80,
                "duration": 0.06818181818182012,
                "tempo": 120.0
            },
            {
                "start_time": 51.58863636363636,
                "end_time": 51.65681818181818,
                "pitch": 0,
                "velocity": 80,
                "duration": 0.06818181818182012,
                "tempo": 120.0
            },
            {
                "start_time": 51.68863636363636,
                "end_time": 51.85681818181818,
                "pitch": 27,
                "velocity": 80,
                "duration": 0.16818181818181444,
                "tempo": 120.0
            },
            {
                "start_time": 51.88863636363636,
                "end_time": 51.95681818181818,
                "pitch": 39,
                "velocity": 80,
                "duration": 0.06818181818182012,
                "tempo": 120.0
            },
            {
                "start_time": 51.98863636363636,
                "end_time": 52.05681818181818,
                "pitch": 0,
                "velocity": 80,
                "duration": 0.06818181818182012,
                "tempo": 120.0
            },
            {
                "start_time": 52.090909090909086,
                "end_time": 52.26136363636363,
                "pitch": 28,
                "velocity": 80,
                "duration": 0.17045454545454675,
                "tempo": 120.0
            },
            {
                "start_time": 52.29545454545454,
                "end_time": 52.36363636363636,
                "pitch": 40,
                "velocity": 80,
                "duration": 0.06818181818182012,
                "tempo": 120.0
            },
            {
                "start_time": 52.39772727272727,
                "end_time": 52.465909090909086,
                "pitch": 0,
                "velocity": 80,
                "duration": 0.06818181818181301,
                "tempo": 120.0
            },
            {
                "start_time": 52.5,
                "end_time": 52.66136363636363,
                "pitch": 30,
                "velocity": 80,
                "duration": 0.1613636363636317,
                "tempo": 120.0
            },
            {
                "start_time": 52.695454545454545,
                "end_time": 52.76136363636363,
                "pitch": 42,
                "velocity": 80,
                "duration": 0.06590909090908781,
                "tempo": 120.0
            },
            {
                "start_time": 52.793181818181814,
                "end_time": 52.85909090909091,
                "pitch": 0,
                "velocity": 80,
                "duration": 0.06590909090909491,
                "tempo": 120.0
            },
            {
                "start_time": 52.893181818181816,
                "end_time": 53.059090909090905,
                "pitch": 31,
                "velocity": 80,
                "duration": 0.16590909090908923,
                "tempo": 120.0
            },
            {
                "start_time": 53.09318181818182,
                "end_time": 53.15909090909091,
                "pitch": 43,
                "velocity": 80,
                "duration": 0.06590909090908781,
                "tempo": 120.0
            },
            {
                "start_time": 53.19318181818181,
                "end_time": 53.25909090909091,
                "pitch": 0,
                "velocity": 80,
                "duration": 0.06590909090909491,
                "tempo": 120.0
            },
            {
                "start_time": 53.293181818181814,
                "end_time": 53.459090909090904,
                "pitch": 31,
                "velocity": 80,
                "duration": 0.16590909090908923,
                "tempo": 120.0
            },
            {
                "start_time": 53.49318181818182,
                "end_time": 53.559090909090905,
                "pitch": 43,
                "velocity": 80,
                "duration": 0.06590909090908781,
                "tempo": 120.0
            },
            {
                "start_time": 53.59318181818182,
                "end_time": 53.65909090909091,
                "pitch": 0,
                "velocity": 80,
                "duration": 0.06590909090908781,
                "tempo": 120.0
            },
            {
                "start_time": 53.69318181818181,
                "end_time": 53.85909090909091,
                "pitch": 31,
                "velocity": 80,
                "duration": 0.16590909090909634,
                "tempo": 120.0
            },
            {
                "start_time": 53.893181818181816,
                "end_time": 53.959090909090904,
                "pitch": 43,
                "velocity": 80,
                "duration": 0.06590909090908781,
                "tempo": 120.0
            },
            {
                "start_time": 53.99318181818182,
                "end_time": 54.059090909090905,
                "pitch": 0,
                "velocity": 80,
                "duration": 0.06590909090908781,
                "tempo": 120.0
            },
            {
                "start_time": 54.09318181818182,
                "end_time": 54.26136363636363,
                "pitch": 31,
                "velocity": 80,
                "duration": 0.16818181818181444,
                "tempo": 120.0
            },
            {
                "start_time": 54.293181818181814,
                "end_time": 54.361363636363635,
                "pitch": 43,
                "velocity": 80,
                "duration": 0.06818181818182012,
                "tempo": 120.0
            },
            {
                "start_time": 54.39545454545454,
                "end_time": 54.461363636363636,
                "pitch": 0,
                "velocity": 80,
                "duration": 0.06590909090909491,
                "tempo": 120.0
            },
            {
                "start_time": 54.49545454545454,
                "end_time": 54.66136363636363,
                "pitch": 31,
                "velocity": 80,
                "duration": 0.16590909090908923,
                "tempo": 120.0
            },
            {
                "start_time": 54.695454545454545,
                "end_time": 54.76136363636363,
                "pitch": 43,
                "velocity": 80,
                "duration": 0.06590909090908781,
                "tempo": 120.0
            },
            {
                "start_time": 54.79545454545454,
                "end_time": 54.861363636363635,
                "pitch": 0,
                "velocity": 80,
                "duration": 0.06590909090909491,
                "tempo": 120.0
            },
            {
                "start_time": 54.89545454545454,
                "end_time": 55.06136363636363,
                "pitch": 31,
                "velocity": 80,
                "duration": 0.16590909090908923,
                "tempo": 120.0
            },
            {
                "start_time": 55.095454545454544,
                "end_time": 55.16136363636363,
                "pitch": 43,
                "velocity": 80,
                "duration": 0.06590909090908781,
                "tempo": 120.0
            },
            {
                "start_time": 55.195454545454545,
                "end_time": 55.26136363636363,
                "pitch": 0,
                "velocity": 80,
                "duration": 0.06590909090908781,
                "tempo": 120.0
            },
            {
                "start_time": 55.29545454545454,
                "end_time": 55.461363636363636,
                "pitch": 31,
                "velocity": 80,
                "duration": 0.16590909090909634,
                "tempo": 120.0
            },
            {
                "start_time": 55.49545454545454,
                "end_time": 55.56136363636363,
                "pitch": 43,
                "velocity": 80,
                "duration": 0.06590909090908781,
                "tempo": 120.0
            },
            {
                "start_time": 55.595454545454544,
                "end_time": 55.66136363636363,
                "pitch": 0,
                "velocity": 80,
                "duration": 0.06590909090908781,
                "tempo": 120.0
            },
            {
                "start_time": 55.695454545454545,
                "end_time": 55.861363636363635,
                "pitch": 31,
                "velocity": 80,
                "duration": 0.16590909090908923,
                "tempo": 120.0
            },
            {
                "start_time": 55.89545454545454,
                "end_time": 55.961363636363636,
                "pitch": 43,
                "velocity": 80,
                "duration": 0.06590909090909491,
                "tempo": 120.0
            },
            {
                "start_time": 55.99545454545454,
                "end_time": 56.06136363636363,
                "pitch": 0,
                "velocity": 80,
                "duration": 0.06590909090908781,
                "tempo": 120.0
            },
            {
                "start_time": 56.095454545454544,
                "end_time": 56.26363636363636,
                "pitch": 26,
                "velocity": 80,
                "duration": 0.16818181818181444,
                "tempo": 120.0
            },
            {
                "start_time": 56.29772727272727,
                "end_time": 56.36363636363636,
                "pitch": 38,
                "velocity": 80,
                "duration": 0.06590909090908781,
                "tempo": 120.0
            },
            {
                "start_time": 56.39772727272727,
                "end_time": 56.46363636363636,
                "pitch": 0,
                "velocity": 80,
                "duration": 0.06590909090908781,
                "tempo": 120.0
            },
            {
                "start_time": 56.49772727272727,
                "end_time": 56.663636363636364,
                "pitch": 26,
                "velocity": 80,
                "duration": 0.16590909090909634,
                "tempo": 120.0
            },
            {
                "start_time": 56.69772727272727,
                "end_time": 56.76363636363636,
                "pitch": 38,
                "velocity": 80,
                "duration": 0.06590909090908781,
                "tempo": 120.0
            },
            {
                "start_time": 56.79772727272727,
                "end_time": 56.86363636363636,
                "pitch": 0,
                "velocity": 80,
                "duration": 0.06590909090908781,
                "tempo": 120.0
            },
            {
                "start_time": 56.89772727272727,
                "end_time": 57.06363636363636,
                "pitch": 26,
                "velocity": 80,
                "duration": 0.16590909090908923,
                "tempo": 120.0
            },
            {
                "start_time": 57.09772727272727,
                "end_time": 57.163636363636364,
                "pitch": 38,
                "velocity": 80,
                "duration": 0.06590909090909491,
                "tempo": 120.0
            },
            {
                "start_time": 57.19772727272727,
                "end_time": 57.26363636363636,
                "pitch": 0,
                "velocity": 80,
                "duration": 0.06590909090908781,
                "tempo": 120.0
            },
            {
                "start_time": 57.29772727272727,
                "end_time": 57.46363636363636,
                "pitch": 26,
                "velocity": 80,
                "duration": 0.16590909090908923,
                "tempo": 120.0
            },
            {
                "start_time": 57.49772727272727,
                "end_time": 57.56363636363636,
                "pitch": 38,
                "velocity": 80,
                "duration": 0.06590909090909491,
                "tempo": 120.0
            },
            {
                "start_time": 57.59772727272727,
                "end_time": 57.663636363636364,
                "pitch": 0,
                "velocity": 80,
                "duration": 0.06590909090909491,
                "tempo": 120.0
            },
            {
                "start_time": 57.69772727272727,
                "end_time": 57.86363636363636,
                "pitch": 26,
                "velocity": 80,
                "duration": 0.16590909090908923,
                "tempo": 120.0
            },
            {
                "start_time": 57.89772727272727,
                "end_time": 57.96363636363636,
                "pitch": 38,
                "velocity": 80,
                "duration": 0.06590909090908781,
                "tempo": 120.0
            },
            {
                "start_time": 57.99772727272727,
                "end_time": 58.06363636363636,
                "pitch": 0,
                "velocity": 80,
                "duration": 0.06590909090909491,
                "tempo": 120.0
            },
            {
                "start_time": 58.09772727272727,
                "end_time": 58.26590909090909,
                "pitch": 26,
                "velocity": 80,
                "duration": 0.16818181818182154,
                "tempo": 120.0
            },
            {
                "start_time": 58.3,
                "end_time": 58.365909090909085,
                "pitch": 38,
                "velocity": 80,
                "duration": 0.06590909090908781,
                "tempo": 120.0
            },
            {
                "start_time": 58.4,
                "end_time": 58.465909090909086,
                "pitch": 0,
                "velocity": 80,
                "duration": 0.06590909090908781,
                "tempo": 120.0
            },
            {
                "start_time": 58.5,
                "end_time": 58.66590909090909,
                "pitch": 26,
                "velocity": 80,
                "duration": 0.16590909090908923,
                "tempo": 120.0
            },
            {
                "start_time": 58.699999999999996,
                "end_time": 58.76590909090909,
                "pitch": 38,
                "velocity": 80,
                "duration": 0.06590909090909491,
                "tempo": 120.0
            },
            {
                "start_time": 58.8,
                "end_time": 58.865909090909085,
                "pitch": 0,
                "velocity": 80,
                "duration": 0.06590909090908781,
                "tempo": 120.0
            },
            {
                "start_time": 58.9,
                "end_time": 59.06590909090909,
                "pitch": 26,
                "velocity": 80,
                "duration": 0.16590909090908923,
                "tempo": 120.0
            },
            {
                "start_time": 59.099999999999994,
                "end_time": 59.16590909090909,
                "pitch": 38,
                "velocity": 80,
                "duration": 0.06590909090909491,
                "tempo": 120.0
            },
            {
                "start_time": 59.199999999999996,
                "end_time": 59.26590909090909,
                "pitch": 0,
                "velocity": 80,
                "duration": 0.06590909090909491,
                "tempo": 120.0
            },
            {
                "start_time": 59.3,
                "end_time": 59.465909090909086,
                "pitch": 33,
                "velocity": 80,
                "duration": 0.16590909090908923,
                "tempo": 120.0
            },
            {
                "start_time": 59.5,
                "end_time": 59.56590909090909,
                "pitch": 45,
                "velocity": 80,
                "duration": 0.06590909090908781,
                "tempo": 120.0
            },
            {
                "start_time": 59.599999999999994,
                "end_time": 59.66590909090909,
                "pitch": 0,
                "velocity": 80,
                "duration": 0.06590909090909491,
                "tempo": 120.0
            },
            {
                "start_time": 59.699999999999996,
                "end_time": 59.865909090909085,
                "pitch": 33,
                "velocity": 80,
                "duration": 0.16590909090908923,
                "tempo": 120.0
            },
            {
                "start_time": 59.9,
                "end_time": 59.965909090909086,
                "pitch": 45,
                "velocity": 80,
                "duration": 0.06590909090908781,
                "tempo": 120.0
            },
            {
                "start_time": 60.0,
                "end_time": 60.06818181818181,
                "pitch": 0,
                "velocity": 80,
                "duration": 0.06818181818181301,
                "tempo": 120.0
            },
            {
                "start_time": 60.099999999999994,
                "end_time": 60.268181818181816,
                "pitch": 33,
                "velocity": 80,
                "duration": 0.16818181818182154,
                "tempo": 120.0
            },
            {
                "start_time": 60.30227272727272,
                "end_time": 60.36818181818182,
                "pitch": 45,
                "velocity": 80,
                "duration": 0.06590909090909491,
                "tempo": 120.0
            },
            {
                "start_time": 60.402272727272724,
                "end_time": 60.470454545454544,
                "pitch": 0,
                "velocity": 80,
                "duration": 0.06818181818182012,
                "tempo": 120.0
            },
            {
                "start_time": 60.502272727272725,
                "end_time": 60.67045454545454,
                "pitch": 33,
                "velocity": 80,
                "duration": 0.16818181818181444,
                "tempo": 120.0
            },
            {
                "start_time": 60.70227272727272,
                "end_time": 60.77045454545454,
                "pitch": 45,
                "velocity": 80,
                "duration": 0.06818181818182012,
                "tempo": 120.0
            },
            {
                "start_time": 60.80227272727272,
                "end_time": 60.87045454545454,
                "pitch": 0,
                "velocity": 80,
                "duration": 0.06818181818182012,
                "tempo": 120.0
            },
            {
                "start_time": 60.902272727272724,
                "end_time": 61.070454545454545,
                "pitch": 33,
                "velocity": 80,
                "duration": 0.16818181818182154,
                "tempo": 120.0
            },
            {
                "start_time": 61.10227272727273,
                "end_time": 61.17045454545454,
                "pitch": 45,
                "velocity": 80,
                "duration": 0.06818181818181301,
                "tempo": 120.0
            },
            {
                "start_time": 61.20227272727272,
                "end_time": 61.27045454545454,
                "pitch": 0,
                "velocity": 80,
                "duration": 0.06818181818182012,
                "tempo": 120.0
            },
            {
                "start_time": 61.30227272727272,
                "end_time": 61.470454545454544,
                "pitch": 33,
                "velocity": 80,
                "duration": 0.16818181818182154,
                "tempo": 120.0
            },
            {
                "start_time": 61.502272727272725,
                "end_time": 61.570454545454545,
                "pitch": 45,
                "velocity": 80,
                "duration": 0.06818181818182012,
                "tempo": 120.0
            },
            {
                "start_time": 61.60227272727273,
                "end_time": 61.67045454545454,
                "pitch": 0,
                "velocity": 80,
                "duration": 0.06818181818181301,
                "tempo": 120.0
            },
            {
                "start_time": 61.70227272727272,
                "end_time": 61.87045454545454,
                "pitch": 33,
                "velocity": 80,
                "duration": 0.16818181818182154,
                "tempo": 120.0
            },
            {
                "start_time": 61.902272727272724,
                "end_time": 61.970454545454544,
                "pitch": 45,
                "velocity": 80,
                "duration": 0.06818181818182012,
                "tempo": 120.0
            },
            {
                "start_time": 62.002272727272725,
                "end_time": 62.070454545454545,
                "pitch": 0,
                "velocity": 80,
                "duration": 0.06818181818182012,
                "tempo": 120.0
            },
            {
                "start_time": 62.10227272727273,
                "end_time": 62.27045454545454,
                "pitch": 33,
                "velocity": 80,
                "duration": 0.16818181818181444,
                "tempo": 120.0
            },
            {
                "start_time": 62.304545454545455,
                "end_time": 62.37272727272727,
                "pitch": 45,
                "velocity": 80,
                "duration": 0.06818181818181301,
                "tempo": 120.0
            },
            {
                "start_time": 62.40454545454545,
                "end_time": 62.47272727272727,
                "pitch": 0,
                "velocity": 80,
                "duration": 0.06818181818182012,
                "tempo": 120.0
            },
            {
                "start_time": 62.50454545454545,
                "end_time": 62.67272727272727,
                "pitch": 28,
                "velocity": 80,
                "duration": 0.16818181818182154,
                "tempo": 120.0
            },
            {
                "start_time": 62.70454545454545,
                "end_time": 62.772727272727266,
                "pitch": 40,
                "velocity": 80,
                "duration": 0.06818181818181301,
                "tempo": 120.0
            },
            {
                "start_time": 62.804545454545455,
                "end_time": 62.87272727272727,
                "pitch": 0,
                "velocity": 80,
                "duration": 0.06818181818181301,
                "tempo": 120.0
            },
            {
                "start_time": 62.90454545454545,
                "end_time": 63.07272727272727,
                "pitch": 28,
                "velocity": 80,
                "duration": 0.16818181818182154,
                "tempo": 120.0
            },
            {
                "start_time": 63.10454545454545,
                "end_time": 63.17272727272727,
                "pitch": 40,
                "velocity": 80,
                "duration": 0.06818181818182012,
                "tempo": 120.0
            },
            {
                "start_time": 63.20454545454545,
                "end_time": 63.272727272727266,
                "pitch": 0,
                "velocity": 80,
                "duration": 0.06818181818181301,
                "tempo": 120.0
            },
            {
                "start_time": 63.304545454545455,
                "end_time": 63.47272727272727,
                "pitch": 28,
                "velocity": 80,
                "duration": 0.16818181818181444,
                "tempo": 120.0
            },
            {
                "start_time": 63.50454545454545,
                "end_time": 63.57272727272727,
                "pitch": 40,
                "velocity": 80,
                "duration": 0.06818181818182012,
                "tempo": 120.0
            },
            {
                "start_time": 63.60454545454545,
                "end_time": 63.67272727272727,
                "pitch": 0,
                "velocity": 80,
                "duration": 0.06818181818182012,
                "tempo": 120.0
            },
            {
                "start_time": 63.70454545454545,
                "end_time": 63.87272727272727,
                "pitch": 28,
                "velocity": 80,
                "duration": 0.16818181818181444,
                "tempo": 120.0
            },
            {
                "start_time": 63.90454545454545,
                "end_time": 63.97272727272727,
                "pitch": 40,
                "velocity": 80,
                "duration": 0.06818181818182012,
                "tempo": 120.0
            },
            {
                "start_time": 64.00454545454545,
                "end_time": 64.07272727272726,
                "pitch": 0,
                "velocity": 80,
                "duration": 0.06818181818181301,
                "tempo": 120.0
            },
            {
                "start_time": 64.10681818181818,
                "end_time": 64.27272727272727,
                "pitch": 28,
                "velocity": 80,
                "duration": 0.16590909090908212,
                "tempo": 120.0
            },
            {
                "start_time": 64.30681818181817,
                "end_time": 64.375,
                "pitch": 40,
                "velocity": 80,
                "duration": 0.06818181818182723,
                "tempo": 120.0
            },
            {
                "start_time": 64.4090909090909,
                "end_time": 64.475,
                "pitch": 0,
                "velocity": 80,
                "duration": 0.06590909090908781,
                "tempo": 120.0
            },
            {
                "start_time": 64.5090909090909,
                "end_time": 64.675,
                "pitch": 28,
                "velocity": 80,
                "duration": 0.16590909090909634,
                "tempo": 120.0
            },
            {
                "start_time": 64.7090909090909,
                "end_time": 64.77499999999999,
                "pitch": 40,
                "velocity": 80,
                "duration": 0.06590909090908781,
                "tempo": 120.0
            },
            {
                "start_time": 64.80909090909091,
                "end_time": 64.875,
                "pitch": 0,
                "velocity": 80,
                "duration": 0.06590909090908781,
                "tempo": 120.0
            },
            {
                "start_time": 64.9090909090909,
                "end_time": 65.07954545454545,
                "pitch": 28,
                "velocity": 80,
                "duration": 0.17045454545454675,
                "tempo": 120.0
            },
            {
                "start_time": 65.11590909090908,
                "end_time": 65.28636363636363,
                "pitch": 28,
                "velocity": 80,
                "duration": 0.17045454545454675,
                "tempo": 120.0
            },
            {
                "start_time": 65.31818181818181,
                "end_time": 65.48181818181818,
                "pitch": 28,
                "velocity": 80,
                "duration": 0.16363636363637113,
                "tempo": 120.0
            },
            {
                "start_time": 65.51363636363637,
                "end_time": 65.87727272727273,
                "pitch": 29,
                "velocity": 80,
                "duration": 0.36363636363635976,
                "tempo": 120.0
            },
            {
                "start_time": 65.91136363636363,
                "end_time": 65.97727272727272,
                "pitch": 41,
                "velocity": 80,
                "duration": 0.06590909090908781,
                "tempo": 120.0
            },
            {
                "start_time": 66.01136363636364,
                "end_time": 66.07727272727273,
                "pitch": 0,
                "velocity": 80,
                "duration": 0.06590909090908781,
                "tempo": 120.0
            },
            {
                "start_time": 66.11136363636363,
                "end_time": 66.27954545454546,
                "pitch": 29,
                "velocity": 80,
                "duration": 0.16818181818182154,
                "tempo": 120.0
            },
            {
                "start_time": 66.31363636363636,
                "end_time": 66.37954545454545,
                "pitch": 41,
                "velocity": 80,
                "duration": 0.06590909090908781,
                "tempo": 120.0
            },
            {
                "start_time": 66.41363636363636,
                "end_time": 66.47954545454544,
                "pitch": 0,
                "velocity": 80,
                "duration": 0.06590909090908781,
                "tempo": 120.0
            },
            {
                "start_time": 66.51363636363637,
                "end_time": 66.67954545454545,
                "pitch": 29,
                "velocity": 80,
                "duration": 0.16590909090908212,
                "tempo": 120.0
            },
            {
                "start_time": 66.71363636363635,
                "end_time": 66.77954545454546,
                "pitch": 41,
                "velocity": 80,
                "duration": 0.06590909090910202,
                "tempo": 120.0
            },
            {
                "start_time": 66.81363636363636,
                "end_time": 66.87954545454545,
                "pitch": 0,
                "velocity": 80,
                "duration": 0.06590909090908781,
                "tempo": 120.0
            },
            {
                "start_time": 66.91363636363636,
                "end_time": 67.08181818181818,
                "pitch": 29,
                "velocity": 80,
                "duration": 0.16818181818182154,
                "tempo": 120.0
            },
            {
                "start_time": 67.11590909090908,
                "end_time": 67.18181818181817,
                "pitch": 41,
                "velocity": 80,
                "duration": 0.06590909090908781,
                "tempo": 120.0
            },
            {
                "start_time": 67.2159090909091,
                "end_time": 67.2840909090909,
                "pitch": 0,
                "velocity": 80,
                "duration": 0.06818181818181301,
                "tempo": 120.0
            },
            {
                "start_time": 67.31590909090909,
                "end_time": 67.48409090909091,
                "pitch": 29,
                "velocity": 80,
                "duration": 0.16818181818182154,
                "tempo": 120.0
            },
            {
                "start_time": 67.51818181818182,
                "end_time": 67.58636363636363,
                "pitch": 41,
                "velocity": 80,
                "duration": 0.06818181818181301,
                "tempo": 120.0
            },
            {
                "start_time": 67.61818181818181,
                "end_time": 67.68636363636364,
                "pitch": 0,
                "velocity": 80,
                "duration": 0.06818181818182723,
                "tempo": 120.0
            },
            {
                "start_time": 67.71818181818182,
                "end_time": 67.88636363636363,
                "pitch": 29,
                "velocity": 80,
                "duration": 0.16818181818180733,
                "tempo": 120.0
            },
            {
                "start_time": 67.91818181818182,
                "end_time": 67.98636363636363,
                "pitch": 41,
                "velocity": 80,
                "duration": 0.06818181818181301,
                "tempo": 120.0
            },
            {
                "start_time": 68.01818181818182,
                "end_time": 68.08636363636363,
                "pitch": 0,
                "velocity": 80,
                "duration": 0.06818181818181301,
                "tempo": 120.0
            },
            {
                "start_time": 68.12045454545454,
                "end_time": 68.28636363636363,
                "pitch": 29,
                "velocity": 80,
                "duration": 0.16590909090909634,
                "tempo": 120.0
            },
            {
                "start_time": 68.32045454545454,
                "end_time": 68.38863636363637,
                "pitch": 41,
                "velocity": 80,
                "duration": 0.06818181818182723,
                "tempo": 120.0
            },
            {
                "start_time": 68.42045454545455,
                "end_time": 68.48863636363636,
                "pitch": 0,
                "velocity": 80,
                "duration": 0.06818181818181301,
                "tempo": 120.0
            },
            {
                "start_time": 68.52272727272727,
                "end_time": 68.68863636363636,
                "pitch": 29,
                "velocity": 80,
                "duration": 0.16590909090909634,
                "tempo": 120.0
            },
            {
                "start_time": 68.72272727272727,
                "end_time": 68.78863636363636,
                "pitch": 41,
                "velocity": 80,
                "duration": 0.06590909090908781,
                "tempo": 120.0
            },
            {
                "start_time": 68.82272727272726,
                "end_time": 68.88863636363637,
                "pitch": 0,
                "velocity": 80,
                "duration": 0.06590909090910202,
                "tempo": 120.0
            },
            {
                "start_time": 68.92272727272727,
                "end_time": 69.0909090909091,
                "pitch": 24,
                "velocity": 80,
                "duration": 0.16818181818182154,
                "tempo": 120.0
            },
            {
                "start_time": 69.12272727272727,
                "end_time": 69.19090909090909,
                "pitch": 36,
                "velocity": 80,
                "duration": 0.06818181818181301,
                "tempo": 120.0
            },
            {
                "start_time": 69.225,
                "end_time": 69.29090909090908,
                "pitch": 0,
                "velocity": 80,
                "duration": 0.06590909090908781,
                "tempo": 120.0
            },
            {
                "start_time": 69.325,
                "end_time": 69.49318181818181,
                "pitch": 24,
                "velocity": 80,
                "duration": 0.16818181818180733,
                "tempo": 120.0
            },
            {
                "start_time": 69.52727272727273,
                "end_time": 69.59318181818182,
                "pitch": 36,
                "velocity": 80,
                "duration": 0.06590909090908781,
                "tempo": 120.0
            },
            {
                "start_time": 69.62727272727273,
                "end_time": 69.69318181818181,
                "pitch": 0,
                "velocity": 80,
                "duration": 0.06590909090908781,
                "tempo": 120.0
            },
            {
                "start_time": 69.72727272727272,
                "end_time": 69.89318181818182,
                "pitch": 24,
                "velocity": 80,
                "duration": 0.16590909090909634,
                "tempo": 120.0
            },
            {
                "start_time": 69.92727272727272,
                "end_time": 69.99318181818181,
                "pitch": 36,
                "velocity": 80,
                "duration": 0.06590909090908781,
                "tempo": 120.0
            },
            {
                "start_time": 70.02727272727273,
                "end_time": 70.09318181818182,
                "pitch": 0,
                "velocity": 80,
                "duration": 0.06590909090908781,
                "tempo": 120.0
            },
            {
                "start_time": 70.12727272727273,
                "end_time": 70.29545454545455,
                "pitch": 24,
                "velocity": 80,
                "duration": 0.16818181818182154,
                "tempo": 120.0
            },
            {
                "start_time": 70.32954545454545,
                "end_time": 70.39545454545454,
                "pitch": 36,
                "velocity": 80,
                "duration": 0.06590909090908781,
                "tempo": 120.0
            },
            {
                "start_time": 70.42954545454545,
                "end_time": 70.49772727272727,
                "pitch": 0,
                "velocity": 80,
                "duration": 0.06818181818182723,
                "tempo": 120.0
            },
            {
                "start_time": 70.52954545454546,
                "end_time": 70.69772727272726,
                "pitch": 24,
                "velocity": 80,
                "duration": 0.16818181818180733,
                "tempo": 120.0
            },
            {
                "start_time": 70.72954545454544,
                "end_time": 70.79772727272727,
                "pitch": 36,
                "velocity": 80,
                "duration": 0.06818181818182723,
                "tempo": 120.0
            },
            {
                "start_time": 70.82954545454545,
                "end_time": 70.89772727272727,
                "pitch": 0,
                "velocity": 80,
                "duration": 0.06818181818181301,
                "tempo": 120.0
            },
            {
                "start_time": 70.92954545454545,
                "end_time": 71.09772727272727,
                "pitch": 24,
                "velocity": 80,
                "duration": 0.16818181818182154,
                "tempo": 120.0
            },
            {
                "start_time": 71.13181818181818,
                "end_time": 71.19772727272726,
                "pitch": 36,
                "velocity": 80,
                "duration": 0.06590909090908781,
                "tempo": 120.0
            },
            {
                "start_time": 71.23181818181818,
                "end_time": 71.3,
                "pitch": 0,
                "velocity": 80,
                "duration": 0.06818181818181301,
                "tempo": 120.0
            },
            {
                "start_time": 71.3340909090909,
                "end_time": 71.5,
                "pitch": 24,
                "velocity": 80,
                "duration": 0.16590909090909634,
                "tempo": 120.0
            },
            {
                "start_time": 71.5340909090909,
                "end_time": 71.60227272727272,
                "pitch": 36,
                "velocity": 80,
                "duration": 0.06818181818181301,
                "tempo": 120.0
            },
            {
                "start_time": 71.6340909090909,
                "end_time": 71.70227272727273,
                "pitch": 0,
                "velocity": 80,
                "duration": 0.06818181818182723,
                "tempo": 120.0
            },
            {
                "start_time": 71.73636363636363,
                "end_time": 71.90227272727272,
                "pitch": 26,
                "velocity": 80,
                "duration": 0.16590909090908212,
                "tempo": 120.0
            },
            {
                "start_time": 71.93636363636364,
                "end_time": 72.00227272727273,
                "pitch": 38,
                "velocity": 80,
                "duration": 0.06590909090908781,
                "tempo": 120.0
            },
            {
                "start_time": 72.03636363636363,
                "end_time": 72.10227272727272,
                "pitch": 0,
                "velocity": 80,
                "duration": 0.06590909090908781,
                "tempo": 120.0
            },
            {
                "start_time": 72.13636363636363,
                "end_time": 72.30454545454545,
                "pitch": 27,
                "velocity": 80,
                "duration": 0.16818181818182154,
                "tempo": 120.0
            },
            {
                "start_time": 72.33636363636363,
                "end_time": 72.40454545454546,
                "pitch": 39,
                "velocity": 80,
                "duration": 0.06818181818182723,
                "tempo": 120.0
            },
            {
                "start_time": 72.43863636363636,
                "end_time": 72.50454545454545,
                "pitch": 0,
                "velocity": 80,
                "duration": 0.06590909090908781,
                "tempo": 120.0
            },
            {
                "start_time": 72.53863636363636,
                "end_time": 72.70454545454545,
                "pitch": 27,
                "velocity": 80,
                "duration": 0.16590909090909634,
                "tempo": 120.0
            },
            {
                "start_time": 72.73863636363636,
                "end_time": 72.80454545454545,
                "pitch": 39,
                "velocity": 80,
                "duration": 0.06590909090908781,
                "tempo": 120.0
            },
            {
                "start_time": 72.83863636363635,
                "end_time": 72.90454545454546,
                "pitch": 0,
                "velocity": 80,
                "duration": 0.06590909090910202,
                "tempo": 120.0
            },
            {
                "start_time": 72.93863636363636,
                "end_time": 73.10681818181818,
                "pitch": 27,
                "velocity": 80,
                "duration": 0.16818181818182154,
                "tempo": 120.0
            },
            {
                "start_time": 73.13863636363637,
                "end_time": 73.20681818181818,
                "pitch": 39,
                "velocity": 80,
                "duration": 0.06818181818181301,
                "tempo": 120.0
            },
            {
                "start_time": 73.24090909090908,
                "end_time": 73.30681818181817,
                "pitch": 0,
                "velocity": 80,
                "duration": 0.06590909090908781,
                "tempo": 120.0
            },
            {
                "start_time": 73.3409090909091,
                "end_time": 73.5090909090909,
                "pitch": 27,
                "velocity": 80,
                "duration": 0.16818181818180733,
                "tempo": 120.0
            },
            {
                "start_time": 73.54318181818182,
                "end_time": 73.60909090909091,
                "pitch": 39,
                "velocity": 80,
                "duration": 0.06590909090908781,
                "tempo": 120.0
            },
            {
                "start_time": 73.64318181818182,
                "end_time": 73.7090909090909,
                "pitch": 0,
                "velocity": 80,
                "duration": 0.06590909090908781,
                "tempo": 120.0
            },
            {
                "start_time": 73.74318181818181,
                "end_time": 73.9090909090909,
                "pitch": 27,
                "velocity": 80,
                "duration": 0.16590909090909634,
                "tempo": 120.0
            },
            {
                "start_time": 73.94318181818181,
                "end_time": 74.0090909090909,
                "pitch": 39,
                "velocity": 80,
                "duration": 0.06590909090908781,
                "tempo": 120.0
            },
            {
                "start_time": 74.04318181818182,
                "end_time": 74.10909090909091,
                "pitch": 0,
                "velocity": 80,
                "duration": 0.06590909090908781,
                "tempo": 120.0
            },
            {
                "start_time": 74.14318181818182,
                "end_time": 74.31136363636364,
                "pitch": 27,
                "velocity": 80,
                "duration": 0.16818181818182154,
                "tempo": 120.0
            },
            {
                "start_time": 74.34545454545454,
                "end_time": 74.41136363636363,
                "pitch": 39,
                "velocity": 80,
                "duration": 0.06590909090908781,
                "tempo": 120.0
            },
            {
                "start_time": 74.44545454545454,
                "end_time": 74.51363636363637,
                "pitch": 0,
                "velocity": 80,
                "duration": 0.06818181818182723,
                "tempo": 120.0
            },
            {
                "start_time": 74.54545454545455,
                "end_time": 74.71363636363635,
                "pitch": 27,
                "velocity": 80,
                "duration": 0.16818181818180733,
                "tempo": 120.0
            },
            {
                "start_time": 74.74545454545454,
                "end_time": 74.81363636363636,
                "pitch": 39,
                "velocity": 80,
                "duration": 0.06818181818182723,
                "tempo": 120.0
            },
            {
                "start_time": 74.84545454545454,
                "end_time": 74.91363636363636,
                "pitch": 0,
                "velocity": 80,
                "duration": 0.06818181818181301,
                "tempo": 120.0
            },
            {
                "start_time": 74.94545454545454,
                "end_time": 75.11363636363636,
                "pitch": 27,
                "velocity": 80,
                "duration": 0.16818181818182154,
                "tempo": 120.0
            },
            {
                "start_time": 75.14772727272727,
                "end_time": 75.2159090909091,
                "pitch": 39,
                "velocity": 80,
                "duration": 0.06818181818182723,
                "tempo": 120.0
            },
            {
                "start_time": 75.24772727272727,
                "end_time": 75.31590909090909,
                "pitch": 0,
                "velocity": 80,
                "duration": 0.06818181818181301,
                "tempo": 120.0
            },
            {
                "start_time": 75.35,
                "end_time": 75.51590909090909,
                "pitch": 26,
                "velocity": 80,
                "duration": 0.16590909090909634,
                "tempo": 120.0
            },
            {
                "start_time": 75.55,
                "end_time": 75.61818181818181,
                "pitch": 38,
                "velocity": 80,
                "duration": 0.06818181818181301,
                "tempo": 120.0
            },
            {
                "start_time": 75.64999999999999,
                "end_time": 75.71818181818182,
                "pitch": 0,
                "velocity": 80,
                "duration": 0.06818181818182723,
                "tempo": 120.0
            },
            {
                "start_time": 75.75227272727273,
                "end_time": 75.91818181818182,
                "pitch": 26,
                "velocity": 80,
                "duration": 0.16590909090909634,
                "tempo": 120.0
            },
            {
                "start_time": 75.95227272727273,
                "end_time": 76.01818181818182,
                "pitch": 38,
                "velocity": 80,
                "duration": 0.06590909090908781,
                "tempo": 120.0
            },
            {
                "start_time": 76.05227272727272,
                "end_time": 76.11818181818181,
                "pitch": 0,
                "velocity": 80,
                "duration": 0.06590909090908781,
                "tempo": 120.0
            },
            {
                "start_time": 76.15227272727272,
                "end_time": 76.32045454545454,
                "pitch": 26,
                "velocity": 80,
                "duration": 0.16818181818182154,
                "tempo": 120.0
            },
            {
                "start_time": 76.35227272727272,
                "end_time": 76.42045454545455,
                "pitch": 38,
                "velocity": 80,
                "duration": 0.06818181818182723,
                "tempo": 120.0
            },
            {
                "start_time": 76.45454545454545,
                "end_time": 76.52045454545454,
                "pitch": 0,
                "velocity": 80,
                "duration": 0.06590909090908781,
                "tempo": 120.0
            },
            {
                "start_time": 76.55454545454545,
                "end_time": 76.72045454545454,
                "pitch": 26,
                "velocity": 80,
                "duration": 0.16590909090909634,
                "tempo": 120.0
            },
            {
                "start_time": 76.75454545454545,
                "end_time": 77.12272727272727,
                "pitch": 26,
                "velocity": 80,
                "duration": 0.3681818181818244,
                "tempo": 120.0
            },
            {
                "start_time": 77.15681818181818,
                "end_time": 77.22272727272727,
                "pitch": 38,
                "velocity": 80,
                "duration": 0.06590909090908781,
                "tempo": 120.0
            },
            {
                "start_time": 77.25681818181818,
                "end_time": 77.32272727272726,
                "pitch": 0,
                "velocity": 80,
                "duration": 0.06590909090908781,
                "tempo": 120.0
            },
            {
                "start_time": 77.35681818181818,
                "end_time": 77.52499999999999,
                "pitch": 27,
                "velocity": 80,
                "duration": 0.16818181818180733,
                "tempo": 120.0
            },
            {
                "start_time": 77.55909090909091,
                "end_time": 77.625,
                "pitch": 39,
                "velocity": 80,
                "duration": 0.06590909090908781,
                "tempo": 120.0
            },
            {
                "start_time": 77.6590909090909,
                "end_time": 77.72727272727272,
                "pitch": 0,
                "velocity": 80,
                "duration": 0.06818181818181301,
                "tempo": 120.0
            },
            {
                "start_time": 77.76136363636363,
                "end_time": 77.93181818181817,
                "pitch": 28,
                "velocity": 80,
                "duration": 0.17045454545454675,
                "tempo": 120.0
            },
            {
                "start_time": 77.9659090909091,
                "end_time": 78.0340909090909,
                "pitch": 40,
                "velocity": 80,
                "duration": 0.06818181818181301,
                "tempo": 120.0
            },
            {
                "start_time": 78.06818181818181,
                "end_time": 78.13636363636363,
                "pitch": 0,
                "velocity": 80,
                "duration": 0.06818181818181301,
                "tempo": 120.0
            },
            {
                "start_time": 78.16818181818181,
                "end_time": 78.33181818181818,
                "pitch": 30,
                "velocity": 80,
                "duration": 0.16363636363637113,
                "tempo": 120.0
            },
            {
                "start_time": 78.36590909090908,
                "end_time": 78.43181818181817,
                "pitch": 42,
                "velocity": 80,
                "duration": 0.06590909090908781,
                "tempo": 120.0
            },
            {
                "start_time": 78.46363636363635,
                "end_time": 78.52954545454546,
                "pitch": 0,
                "velocity": 80,
                "duration": 0.06590909090910202,
                "tempo": 120.0
            },
            {
                "start_time": 78.56136363636364,
                "end_time": 78.72954545454544,
                "pitch": 0,
                "velocity": 80,
                "duration": 0.16818181818180733,
                "tempo": 120.0
            },
            {
                "start_time": 78.76136363636363,
                "end_time": 78.92954545454545,
                "pitch": 41,
                "velocity": 80,
                "duration": 0.16818181818182154,
                "tempo": 120.0
            },
            {
                "start_time": 78.96363636363635,
                "end_time": 79.12954545454545,
                "pitch": 36,
                "velocity": 80,
                "duration": 0.16590909090909634,
                "tempo": 120.0
            },
            {
                "start_time": 79.16363636363636,
                "end_time": 79.33181818181818,
                "pitch": 38,
                "velocity": 80,
                "duration": 0.16818181818182154,
                "tempo": 120.0
            },
            {
                "start_time": 79.36590909090908,
                "end_time": 79.5340909090909,
                "pitch": 41,
                "velocity": 80,
                "duration": 0.16818181818182154,
                "tempo": 120.0
            },
            {
                "start_time": 79.56590909090909,
                "end_time": 79.73409090909091,
                "pitch": 0,
                "velocity": 80,
                "duration": 0.16818181818182154,
                "tempo": 120.0
            },
            {
                "start_time": 79.76818181818182,
                "end_time": 79.93409090909091,
                "pitch": 36,
                "velocity": 80,
                "duration": 0.16590909090909634,
                "tempo": 120.0
            },
            {
                "start_time": 79.96818181818182,
                "end_time": 80.1340909090909,
                "pitch": 38,
                "velocity": 80,
                "duration": 0.16590909090908212,
                "tempo": 120.0
            },
            {
                "start_time": 80.16818181818181,
                "end_time": 80.33636363636363,
                "pitch": 41,
                "velocity": 80,
                "duration": 0.16818181818182154,
                "tempo": 120.0
            },
            {
                "start_time": 80.37045454545454,
                "end_time": 80.53636363636363,
                "pitch": 41,
                "velocity": 80,
                "duration": 0.16590909090909634,
                "tempo": 120.0
            },
            {
                "start_time": 80.57045454545454,
                "end_time": 80.73636363636363,
                "pitch": 36,
                "velocity": 80,
                "duration": 0.16590909090909634,
                "tempo": 120.0
            },
            {
                "start_time": 80.77045454545454,
                "end_time": 80.93636363636364,
                "pitch": 38,
                "velocity": 80,
                "duration": 0.16590909090909634,
                "tempo": 120.0
            },
            {
                "start_time": 80.97045454545454,
                "end_time": 81.14318181818182,
                "pitch": 41,
                "velocity": 80,
                "duration": 0.17272727272727195,
                "tempo": 120.0
            },
            {
                "start_time": 81.17727272727272,
                "end_time": 81.34772727272727,
                "pitch": 36,
                "velocity": 80,
                "duration": 0.17045454545454675,
                "tempo": 120.0
            },
            {
                "start_time": 81.37954545454545,
                "end_time": 81.54318181818181,
                "pitch": 38,
                "velocity": 80,
                "duration": 0.16363636363635692,
                "tempo": 120.0
            },
            {
                "start_time": 81.57727272727273,
                "end_time": 81.74090909090908,
                "pitch": 41,
                "velocity": 80,
                "duration": 0.16363636363635692,
                "tempo": 120.0
            },
            {
                "start_time": 81.77272727272727,
                "end_time": 81.94090909090909,
                "pitch": 0,
                "velocity": 80,
                "duration": 0.16818181818182154,
                "tempo": 120.0
            },
            {
                "start_time": 81.97272727272727,
                "end_time": 82.14090909090909,
                "pitch": 40,
                "velocity": 80,
                "duration": 0.16818181818182154,
                "tempo": 120.0
            },
            {
                "start_time": 82.17272727272727,
                "end_time": 82.3409090909091,
                "pitch": 35,
                "velocity": 80,
                "duration": 0.16818181818182154,
                "tempo": 120.0
            },
            {
                "start_time": 82.375,
                "end_time": 82.54318181818181,
                "pitch": 38,
                "velocity": 80,
                "duration": 0.16818181818180733,
                "tempo": 120.0
            },
            {
                "start_time": 82.575,
                "end_time": 82.74318181818181,
                "pitch": 40,
                "velocity": 80,
                "duration": 0.16818181818180733,
                "tempo": 120.0
            },
            {
                "start_time": 82.77499999999999,
                "end_time": 82.94318181818181,
                "pitch": 0,
                "velocity": 80,
                "duration": 0.16818181818182154,
                "tempo": 120.0
            },
            {
                "start_time": 82.97727272727272,
                "end_time": 83.14318181818182,
                "pitch": 35,
                "velocity": 80,
                "duration": 0.16590909090909634,
                "tempo": 120.0
            },
            {
                "start_time": 83.17727272727272,
                "end_time": 83.34545454545454,
                "pitch": 38,
                "velocity": 80,
                "duration": 0.16818181818182154,
                "tempo": 120.0
            },
            {
                "start_time": 83.37954545454545,
                "end_time": 83.54772727272727,
                "pitch": 40,
                "velocity": 80,
                "duration": 0.16818181818182154,
                "tempo": 120.0
            },
            {
                "start_time": 83.57954545454545,
                "end_time": 83.74772727272727,
                "pitch": 35,
                "velocity": 80,
                "duration": 0.16818181818182154,
                "tempo": 120.0
            },
            {
                "start_time": 83.78181818181818,
                "end_time": 83.94772727272726,
                "pitch": 38,
                "velocity": 80,
                "duration": 0.16590909090908212,
                "tempo": 120.0
            },
            {
                "start_time": 83.98181818181818,
                "end_time": 84.14772727272727,
                "pitch": 40,
                "velocity": 80,
                "duration": 0.16590909090908212,
                "tempo": 120.0
            },
            {
                "start_time": 84.18181818181817,
                "end_time": 84.35454545454544,
                "pitch": 0,
                "velocity": 80,
                "duration": 0.17272727272727195,
                "tempo": 120.0
            },
            {
                "start_time": 84.38863636363637,
                "end_time": 84.5590909090909,
                "pitch": 40,
                "velocity": 80,
                "duration": 0.17045454545453254,
                "tempo": 120.0
            },
            {
                "start_time": 84.5909090909091,
                "end_time": 84.75454545454545,
                "pitch": 35,
                "velocity": 80,
                "duration": 0.16363636363635692,
                "tempo": 120.0
            },
            {
                "start_time": 84.78636363636363,
                "end_time": 84.95,
                "pitch": 38,
                "velocity": 80,
                "duration": 0.16363636363637113,
                "tempo": 120.0
            },
            {
                "start_time": 84.98409090909091,
                "end_time": 85.15227272727272,
                "pitch": 0,
                "velocity": 80,
                "duration": 0.16818181818180733,
                "tempo": 120.0
            },
            {
                "start_time": 85.18636363636364,
                "end_time": 85.35454545454544,
                "pitch": 41,
                "velocity": 80,
                "duration": 0.16818181818180733,
                "tempo": 120.0
            },
            {
                "start_time": 85.38636363636363,
                "end_time": 85.55454545454545,
                "pitch": 36,
                "velocity": 80,
                "duration": 0.16818181818182154,
                "tempo": 120.0
            },
            {
                "start_time": 85.58863636363635,
                "end_time": 85.75681818181818,
                "pitch": 38,
                "velocity": 80,
                "duration": 0.16818181818182154,
                "tempo": 120.0
            },
            {
                "start_time": 85.78863636363636,
                "end_time": 85.95681818181818,
                "pitch": 41,
                "velocity": 80,
                "duration": 0.16818181818182154,
                "tempo": 120.0
            },
            {
                "start_time": 85.98863636363636,
                "end_time": 86.15681818181818,
                "pitch": 0,
                "velocity": 80,
                "duration": 0.16818181818182154,
                "tempo": 120.0
            },
            {
                "start_time": 86.19090909090909,
                "end_time": 86.35681818181818,
                "pitch": 36,
                "velocity": 80,
                "duration": 0.16590909090909634,
                "tempo": 120.0
            },
            {
                "start_time": 86.39090909090909,
                "end_time": 86.5590909090909,
                "pitch": 38,
                "velocity": 80,
                "duration": 0.16818181818180733,
                "tempo": 120.0
            },
            {
                "start_time": 86.59318181818182,
                "end_time": 86.7590909090909,
                "pitch": 0,
                "velocity": 80,
                "duration": 0.16590909090908212,
                "tempo": 120.0
            },
            {
                "start_time": 86.79318181818181,
                "end_time": 86.9590909090909,
                "pitch": 41,
                "velocity": 80,
                "duration": 0.16590909090909634,
                "tempo": 120.0
            },
            {
                "start_time": 86.99318181818181,
                "end_time": 87.16136363636363,
                "pitch": 36,
                "velocity": 80,
                "duration": 0.16818181818182154,
                "tempo": 120.0
            },
            {
                "start_time": 87.19318181818181,
                "end_time": 87.36136363636363,
                "pitch": 38,
                "velocity": 80,
                "duration": 0.16818181818182154,
                "tempo": 120.0
            },
            {
                "start_time": 87.39545454545454,
                "end_time": 87.56818181818181,
                "pitch": 41,
                "velocity": 80,
                "duration": 0.17272727272727195,
                "tempo": 120.0
            },
            {
                "start_time": 87.60227272727272,
                "end_time": 87.77272727272727,
                "pitch": 36,
                "velocity": 80,
                "duration": 0.17045454545454675,
                "tempo": 120.0
            },
            {
                "start_time": 87.80454545454545,
                "end_time": 87.96818181818182,
                "pitch": 38,
                "velocity": 80,
                "duration": 0.16363636363637113,
                "tempo": 120.0
            },
            {
                "start_time": 88.0,
                "end_time": 88.16363636363636,
                "pitch": 41,
                "velocity": 80,
                "duration": 0.16363636363635692,
                "tempo": 120.0
            },
            {
                "start_time": 88.19772727272726,
                "end_time": 88.36590909090908,
                "pitch": 0,
                "velocity": 80,
                "duration": 0.16818181818182154,
                "tempo": 120.0
            },
            {
                "start_time": 88.39999999999999,
                "end_time": 88.56818181818181,
                "pitch": 40,
                "velocity": 80,
                "duration": 0.16818181818182154,
                "tempo": 120.0
            },
            {
                "start_time": 88.6,
                "end_time": 88.76818181818182,
                "pitch": 35,
                "velocity": 80,
                "duration": 0.16818181818182154,
                "tempo": 120.0
            },
            {
                "start_time": 88.8,
                "end_time": 88.96818181818182,
                "pitch": 38,
                "velocity": 80,
                "duration": 0.16818181818182154,
                "tempo": 120.0
            },
            {
                "start_time": 89.0,
                "end_time": 89.16818181818181,
                "pitch": 40,
                "velocity": 80,
                "duration": 0.16818181818180733,
                "tempo": 120.0
            },
            {
                "start_time": 89.20227272727273,
                "end_time": 89.37045454545454,
                "pitch": 35,
                "velocity": 80,
                "duration": 0.16818181818180733,
                "tempo": 120.0
            },
            {
                "start_time": 89.40454545454546,
                "end_time": 89.57045454545454,
                "pitch": 38,
                "velocity": 80,
                "duration": 0.16590909090908212,
                "tempo": 120.0
            },
            {
                "start_time": 89.60454545454544,
                "end_time": 89.97272727272727,
                "pitch": 40,
                "velocity": 80,
                "duration": 0.3681818181818244,
                "tempo": 120.0
            },
            {
                "start_time": 90.00681818181818,
                "end_time": 90.17272727272727,
                "pitch": 52,
                "velocity": 80,
                "duration": 0.16590909090909634,
                "tempo": 120.0
            },
            {
                "start_time": 90.20681818181818,
                "end_time": 90.375,
                "pitch": 40,
                "velocity": 80,
                "duration": 0.16818181818182154,
                "tempo": 120.0
            },
            {
                "start_time": 90.40681818181818,
                "end_time": 90.57499999999999,
                "pitch": 40,
                "velocity": 80,
                "duration": 0.16818181818180733,
                "tempo": 120.0
            },
            {
                "start_time": 90.60909090909091,
                "end_time": 90.77499999999999,
                "pitch": 50,
                "velocity": 80,
                "duration": 0.16590909090908212,
                "tempo": 120.0
            },
            {
                "start_time": 90.8090909090909,
                "end_time": 90.975,
                "pitch": 40,
                "velocity": 80,
                "duration": 0.16590909090909634,
                "tempo": 120.0
            },
            {
                "start_time": 91.0090909090909,
                "end_time": 91.17727272727272,
                "pitch": 47,
                "velocity": 80,
                "duration": 0.16818181818182154,
                "tempo": 120.0
            },
            {
                "start_time": 91.21136363636363,
                "end_time": 91.37727272727273,
                "pitch": 48,
                "velocity": 80,
                "duration": 0.16590909090909634,
                "tempo": 120.0
            },
            {
                "start_time": 91.41136363636363,
                "end_time": 91.57954545454545,
                "pitch": 0,
                "velocity": 80,
                "duration": 0.16818181818182154,
                "tempo": 120.0
            },
            {
                "start_time": 91.61363636363636,
                "end_time": 91.77954545454546,
                "pitch": 41,
                "velocity": 80,
                "duration": 0.16590909090909634,
                "tempo": 120.0
            },
            {
                "start_time": 91.81363636363636,
                "end_time": 91.97954545454544,
                "pitch": 36,
                "velocity": 80,
                "duration": 0.16590909090908212,
                "tempo": 120.0
            },
            {
                "start_time": 92.01363636363637,
                "end_time": 92.18181818181817,
                "pitch": 38,
                "velocity": 80,
                "duration": 0.16818181818180733,
                "tempo": 120.0
            },
            {
                "start_time": 92.2159090909091,
                "end_time": 92.38636363636363,
                "pitch": 41,
                "velocity": 80,
                "duration": 0.17045454545453254,
                "tempo": 120.0
            },
            {
                "start_time": 92.42045454545455,
                "end_time": 92.5909090909091,
                "pitch": 36,
                "velocity": 80,
                "duration": 0.17045454545454675,
                "tempo": 120.0
            },
            {
                "start_time": 92.62272727272727,
                "end_time": 92.78636363636363,
                "pitch": 38,
                "velocity": 80,
                "duration": 0.16363636363635692,
                "tempo": 120.0
            },
            {
                "start_time": 92.82045454545454,
                "end_time": 92.98409090909091,
                "pitch": 41,
                "velocity": 80,
                "duration": 0.16363636363637113,
                "tempo": 120.0
            },
            {
                "start_time": 93.01818181818182,
                "end_time": 93.1840909090909,
                "pitch": 0,
                "velocity": 80,
                "duration": 0.16590909090908212,
                "tempo": 120.0
            },
            {
                "start_time": 93.21818181818182,
                "end_time": 93.38636363636363,
                "pitch": 41,
                "velocity": 80,
                "duration": 0.16818181818180733,
                "tempo": 120.0
            },
            {
                "start_time": 93.42045454545455,
                "end_time": 93.58863636363635,
                "pitch": 36,
                "velocity": 80,
                "duration": 0.16818181818180733,
                "tempo": 120.0
            },
            {
                "start_time": 93.62045454545454,
                "end_time": 93.78863636363636,
                "pitch": 38,
                "velocity": 80,
                "duration": 0.16818181818182154,
                "tempo": 120.0
            },
            {
                "start_time": 93.82272727272726,
                "end_time": 93.99545454545454,
                "pitch": 41,
                "velocity": 80,
                "duration": 0.17272727272727195,
                "tempo": 120.0
            },
            {
                "start_time": 94.02954545454546,
                "end_time": 94.19999999999999,
                "pitch": 36,
                "velocity": 80,
                "duration": 0.17045454545453254,
                "tempo": 120.0
            },
            {
                "start_time": 94.23181818181818,
                "end_time": 94.39545454545454,
                "pitch": 38,
                "velocity": 80,
                "duration": 0.16363636363635692,
                "tempo": 120.0
            },
            {
                "start_time": 94.42727272727272,
                "end_time": 94.59090909090908,
                "pitch": 41,
                "velocity": 80,
                "duration": 0.16363636363635692,
                "tempo": 120.0
            },
            {
                "start_time": 94.625,
                "end_time": 94.79090909090908,
                "pitch": 0,
                "velocity": 80,
                "duration": 0.16590909090908212,
                "tempo": 120.0
            },
            {
                "start_time": 94.82499999999999,
                "end_time": 94.99090909090908,
                "pitch": 40,
                "velocity": 80,
                "duration": 0.16590909090909634,
                "tempo": 120.0
            },
            {
                "start_time": 95.02499999999999,
                "end_time": 95.19318181818181,
                "pitch": 35,
                "velocity": 80,
                "duration": 0.16818181818182154,
                "tempo": 120.0
            },
            {
                "start_time": 95.22727272727272,
                "end_time": 95.39545454545454,
                "pitch": 38,
                "velocity": 80,
                "duration": 0.16818181818182154,
                "tempo": 120.0
            },
            {
                "start_time": 95.42954545454545,
                "end_time": 95.6,
                "pitch": 40,
                "velocity": 80,
                "duration": 0.17045454545454675,
                "tempo": 120.0
            },
            {
                "start_time": 95.6340909090909,
                "end_time": 95.80454545454545,
                "pitch": 35,
                "velocity": 80,
                "duration": 0.17045454545454675,
                "tempo": 120.0
            },
            {
                "start_time": 95.83863636363635,
                "end_time": 96.0,
                "pitch": 38,
                "velocity": 80,
                "duration": 0.16136363636364592,
                "tempo": 120.0
            },
            {
                "start_time": 96.0340909090909,
                "end_time": 96.19772727272726,
                "pitch": 40,
                "velocity": 80,
                "duration": 0.16363636363635692,
                "tempo": 120.0
            },
            {
                "start_time": 96.23181818181818,
                "end_time": 96.39772727272727,
                "pitch": 0,
                "velocity": 80,
                "duration": 0.16590909090908212,
                "tempo": 120.0
            },
            {
                "start_time": 96.43181818181817,
                "end_time": 96.6,
                "pitch": 40,
                "velocity": 80,
                "duration": 0.16818181818182154,
                "tempo": 120.0
            },
            {
                "start_time": 96.6340909090909,
                "end_time": 96.8,
                "pitch": 39,
                "velocity": 80,
                "duration": 0.16590909090909634,
                "tempo": 120.0
            },
            {
                "start_time": 96.8340909090909,
                "end_time": 97.0,
                "pitch": 40,
                "velocity": 80,
                "duration": 0.16590909090909634,
                "tempo": 120.0
            },
            {
                "start_time": 97.0340909090909,
                "end_time": 97.20681818181818,
                "pitch": 43,
                "velocity": 80,
                "duration": 0.17272727272727195,
                "tempo": 120.0
            },
            {
                "start_time": 97.24090909090908,
                "end_time": 97.41136363636363,
                "pitch": 40,
                "velocity": 80,
                "duration": 0.17045454545454675,
                "tempo": 120.0
            },
            {
                "start_time": 97.44318181818181,
                "end_time": 97.60681818181818,
                "pitch": 45,
                "velocity": 80,
                "duration": 0.16363636363637113,
                "tempo": 120.0
            },
            {
                "start_time": 97.63863636363637,
                "end_time": 97.80227272727272,
                "pitch": 40,
                "velocity": 80,
                "duration": 0.16363636363635692,
                "tempo": 120.0
            },
            {
                "start_time": 97.83636363636363,
                "end_time": 98.00227272727273,
                "pitch": 0,
                "velocity": 80,
                "duration": 0.16590909090909634,
                "tempo": 120.0
            },
            {
                "start_time": 98.03636363636363,
                "end_time": 98.20227272727273,
                "pitch": 41,
                "velocity": 80,
                "duration": 0.16590909090909634,
                "tempo": 120.0
            },
            {
                "start_time": 98.23636363636363,
                "end_time": 98.40454545454546,
                "pitch": 36,
                "velocity": 80,
                "duration": 0.16818181818182154,
                "tempo": 120.0
            },
            {
                "start_time": 98.43863636363636,
                "end_time": 98.60681818181817,
                "pitch": 38,
                "velocity": 80,
                "duration": 0.16818181818180733,
                "tempo": 120.0
            },
            {
                "start_time": 98.64090909090909,
                "end_time": 98.81136363636364,
                "pitch": 41,
                "velocity": 80,
                "duration": 0.17045454545454675,
                "tempo": 120.0
            },
            {
                "start_time": 98.84545454545454,
                "end_time": 99.01590909090909,
                "pitch": 36,
                "velocity": 80,
                "duration": 0.17045454545454675,
                "tempo": 120.0
            },
            {
                "start_time": 99.04772727272727,
                "end_time": 99.21136363636363,
                "pitch": 38,
                "velocity": 80,
                "duration": 0.16363636363635692,
                "tempo": 120.0
            },
            {
                "start_time": 99.24545454545454,
                "end_time": 99.4090909090909,
                "pitch": 41,
                "velocity": 80,
                "duration": 0.16363636363637113,
                "tempo": 120.0
            },
            {
                "start_time": 99.44318181818181,
                "end_time": 99.60909090909091,
                "pitch": 0,
                "velocity": 80,
                "duration": 0.16590909090909634,
                "tempo": 120.0
            },
            {
                "start_time": 99.64318181818182,
                "end_time": 99.81136363636364,
                "pitch": 41,
                "velocity": 80,
                "duration": 0.16818181818182154,
                "tempo": 120.0
            },
            {
                "start_time": 99.84545454545454,
                "end_time": 100.01136363636363,
                "pitch": 36,
                "velocity": 80,
                "duration": 0.16590909090908212,
                "tempo": 120.0
            },
            {
                "start_time": 100.04545454545455,
                "end_time": 100.21136363636363,
                "pitch": 38,
                "velocity": 80,
                "duration": 0.16590909090908212,
                "tempo": 120.0
            },
            {
                "start_time": 100.24545454545454,
                "end_time": 100.41590909090908,
                "pitch": 41,
                "velocity": 80,
                "duration": 0.17045454545454675,
                "tempo": 120.0
            },
            {
                "start_time": 100.44999999999999,
                "end_time": 100.62045454545454,
                "pitch": 36,
                "velocity": 80,
                "duration": 0.17045454545454675,
                "tempo": 120.0
            },
            {
                "start_time": 100.65454545454546,
                "end_time": 100.81818181818181,
                "pitch": 38,
                "velocity": 80,
                "duration": 0.16363636363635692,
                "tempo": 120.0
            },
            {
                "start_time": 100.85,
                "end_time": 101.01363636363637,
                "pitch": 41,
                "velocity": 80,
                "duration": 0.16363636363637113,
                "tempo": 120.0
            },
            {
                "start_time": 101.04772727272727,
                "end_time": 101.21590909090908,
                "pitch": 0,
                "velocity": 80,
                "duration": 0.16818181818180733,
                "tempo": 120.0
            },
            {
                "start_time": 101.25,
                "end_time": 101.41590909090908,
                "pitch": 40,
                "velocity": 80,
                "duration": 0.16590909090908212,
                "tempo": 120.0
            },
            {
                "start_time": 101.44999999999999,
                "end_time": 101.61818181818181,
                "pitch": 35,
                "velocity": 80,
                "duration": 0.16818181818182154,
                "tempo": 120.0
            },
            {
                "start_time": 101.65227272727272,
                "end_time": 101.82045454545454,
                "pitch": 38,
                "velocity": 80,
                "duration": 0.16818181818182154,
                "tempo": 120.0
            },
            {
                "start_time": 101.85454545454544,
                "end_time": 102.02499999999999,
                "pitch": 40,
                "velocity": 80,
                "duration": 0.17045454545454675,
                "tempo": 120.0
            },
            {
                "start_time": 102.0590909090909,
                "end_time": 102.22954545454544,
                "pitch": 35,
                "velocity": 80,
                "duration": 0.17045454545454675,
                "tempo": 120.0
            },
            {
                "start_time": 102.26136363636363,
                "end_time": 102.425,
                "pitch": 38,
                "velocity": 80,
                "duration": 0.16363636363637113,
                "tempo": 120.0
            },
            {
                "start_time": 102.4590909090909,
                "end_time": 102.62272727272727,
                "pitch": 40,
                "velocity": 80,
                "duration": 0.16363636363637113,
                "tempo": 120.0
            },
            {
                "start_time": 102.65454545454546,
                "end_time": 102.82272727272726,
                "pitch": 0,
                "velocity": 80,
                "duration": 0.16818181818180733,
                "tempo": 120.0
            },
            {
                "start_time": 102.85454545454544,
                "end_time": 103.02272727272727,
                "pitch": 40,
                "velocity": 80,
                "duration": 0.16818181818182154,
                "tempo": 120.0
            },
            {
                "start_time": 103.05681818181817,
                "end_time": 103.22272727272727,
                "pitch": 35,
                "velocity": 80,
                "duration": 0.16590909090909634,
                "tempo": 120.0
            },
            {
                "start_time": 103.25681818181818,
                "end_time": 103.425,
                "pitch": 38,
                "velocity": 80,
                "duration": 0.16818181818182154,
                "tempo": 120.0
            },
            {
                "start_time": 103.4590909090909,
                "end_time": 103.69318181818181,
                "pitch": 40,
                "velocity": 80,
                "duration": 0.23409090909090935,
                "tempo": 120.0
            },
            {
                "start_time": 103.72727272727272,
                "end_time": 103.96590909090908,
                "pitch": 39,
                "velocity": 80,
                "duration": 0.23863636363635976,
                "tempo": 120.0
            },
            {
                "start_time": 104.0,
                "end_time": 104.62954545454545,
                "pitch": 38,
                "velocity": 80,
                "duration": 0.6295454545454504,
                "tempo": 120.0
            },
            {
                "start_time": 104.66363636363636,
                "end_time": 105.02954545454546,
                "pitch": 50,
                "velocity": 80,
                "duration": 0.3659090909090992,
                "tempo": 120.0
            },
            {
                "start_time": 105.06363636363636,
                "end_time": 105.4340909090909,
                "pitch": 38,
                "velocity": 80,
                "duration": 0.3704545454545354,
                "tempo": 120.0
            },
            {
                "start_time": 105.46590909090908,
                "end_time": 105.6340909090909,
                "pitch": 50,
                "velocity": 80,
                "duration": 0.16818181818182154,
                "tempo": 120.0
            },
            {
                "start_time": 105.66818181818181,
                "end_time": 106.03636363636363,
                "pitch": 43,
                "velocity": 80,
                "duration": 0.3681818181818244,
                "tempo": 120.0
            },
            {
                "start_time": 106.06818181818181,
                "end_time": 106.23636363636363,
                "pitch": 43,
                "velocity": 80,
                "duration": 0.16818181818182154,
                "tempo": 120.0
            },
            {
                "start_time": 106.27045454545454,
                "end_time": 106.43636363636364,
                "pitch": 55,
                "velocity": 80,
                "duration": 0.16590909090909634,
                "tempo": 120.0
            },
            {
                "start_time": 106.47045454545454,
                "end_time": 106.63863636363637,
                "pitch": 43,
                "velocity": 80,
                "duration": 0.16818181818182154,
                "tempo": 120.0
            },
            {
                "start_time": 106.67272727272727,
                "end_time": 106.83863636363635,
                "pitch": 55,
                "velocity": 80,
                "duration": 0.16590909090908212,
                "tempo": 120.0
            },
            {
                "start_time": 106.87272727272726,
                "end_time": 107.03863636363636,
                "pitch": 43,
                "velocity": 80,
                "duration": 0.16590909090909634,
                "tempo": 120.0
            },
            {
                "start_time": 107.07272727272726,
                "end_time": 107.24090909090908,
                "pitch": 43,
                "velocity": 80,
                "duration": 0.16818181818182154,
                "tempo": 120.0
            },
            {
                "start_time": 107.27272727272727,
                "end_time": 107.64318181818182,
                "pitch": 36,
                "velocity": 80,
                "duration": 0.3704545454545496,
                "tempo": 120.0
            },
            {
                "start_time": 107.67727272727272,
                "end_time": 107.84318181818182,
                "pitch": 36,
                "velocity": 80,
                "duration": 0.16590909090909634,
                "tempo": 120.0
            },
            {
                "start_time": 107.87727272727273,
                "end_time": 108.04318181818181,
                "pitch": 48,
                "velocity": 80,
                "duration": 0.16590909090908212,
                "tempo": 120.0
            },
            {
                "start_time": 108.07727272727273,
                "end_time": 108.24318181818181,
                "pitch": 36,
                "velocity": 80,
                "duration": 0.16590909090908212,
                "tempo": 120.0
            },
            {
                "start_time": 108.27727272727272,
                "end_time": 108.44545454545454,
                "pitch": 43,
                "velocity": 80,
                "duration": 0.16818181818182154,
                "tempo": 120.0
            },
            {
                "start_time": 108.47954545454544,
                "end_time": 108.64772727272727,
                "pitch": 45,
                "velocity": 80,
                "duration": 0.16818181818182154,
                "tempo": 120.0
            },
            {
                "start_time": 108.67954545454545,
                "end_time": 108.84772727272727,
                "pitch": 43,
                "velocity": 80,
                "duration": 0.16818181818182154,
                "tempo": 120.0
            },
            {
                "start_time": 108.87954545454545,
                "end_time": 109.04772727272727,
                "pitch": 33,
                "velocity": 80,
                "duration": 0.16818181818182154,
                "tempo": 120.0
            },
            {
                "start_time": 109.07954545454545,
                "end_time": 109.24772727272726,
                "pitch": 0,
                "velocity": 80,
                "duration": 0.16818181818180733,
                "tempo": 120.0
            },
            {
                "start_time": 109.28181818181818,
                "end_time": 109.44999999999999,
                "pitch": 33,
                "velocity": 80,
                "duration": 0.16818181818180733,
                "tempo": 120.0
            },
            {
                "start_time": 109.48409090909091,
                "end_time": 109.64999999999999,
                "pitch": 37,
                "velocity": 80,
                "duration": 0.16590909090908212,
                "tempo": 120.0
            },
            {
                "start_time": 109.6840909090909,
                "end_time": 109.85227272727272,
                "pitch": 40,
                "velocity": 80,
                "duration": 0.16818181818182154,
                "tempo": 120.0
            },
            {
                "start_time": 109.88636363636363,
                "end_time": 110.05227272727272,
                "pitch": 33,
                "velocity": 80,
                "duration": 0.16590909090909634,
                "tempo": 120.0
            },
            {
                "start_time": 110.08636363636363,
                "end_time": 110.25227272727273,
                "pitch": 45,
                "velocity": 80,
                "duration": 0.16590909090909634,
                "tempo": 120.0
            },
            {
                "start_time": 110.28636363636363,
                "end_time": 110.45454545454545,
                "pitch": 33,
                "velocity": 80,
                "duration": 0.16818181818182154,
                "tempo": 120.0
            },
            {
                "start_time": 110.48636363636363,
                "end_time": 110.65454545454546,
                "pitch": 40,
                "velocity": 80,
                "duration": 0.16818181818182154,
                "tempo": 120.0
            },
            {
                "start_time": 110.68863636363636,
                "end_time": 110.85454545454544,
                "pitch": 38,
                "velocity": 80,
                "duration": 0.16590909090908212,
                "tempo": 120.0
            },
            {
                "start_time": 110.88863636363635,
                "end_time": 111.05454545454545,
                "pitch": 50,
                "velocity": 80,
                "duration": 0.16590909090909634,
                "tempo": 120.0
            },
            {
                "start_time": 111.08863636363635,
                "end_time": 111.25681818181818,
                "pitch": 38,
                "velocity": 80,
                "duration": 0.16818181818182154,
                "tempo": 120.0
            },
            {
                "start_time": 111.28863636363636,
                "end_time": 111.6590909090909,
                "pitch": 50,
                "velocity": 80,
                "duration": 0.3704545454545496,
                "tempo": 120.0
            },
            {
                "start_time": 111.69318181818181,
                "end_time": 111.85909090909091,
                "pitch": 50,
                "velocity": 80,
                "duration": 0.16590909090909634,
                "tempo": 120.0
            },
            {
                "start_time": 111.89318181818182,
                "end_time": 112.0590909090909,
                "pitch": 38,
                "velocity": 80,
                "duration": 0.16590909090908212,
                "tempo": 120.0
            },
            {
                "start_time": 112.09318181818182,
                "end_time": 112.46136363636363,
                "pitch": 43,
                "velocity": 80,
                "duration": 0.36818181818181017,
                "tempo": 120.0
            },
            {
                "start_time": 112.49545454545454,
                "end_time": 112.66363636363636,
                "pitch": 43,
                "velocity": 80,
                "duration": 0.16818181818182154,
                "tempo": 120.0
            },
            {
                "start_time": 112.69545454545454,
                "end_time": 112.86363636363636,
                "pitch": 55,
                "velocity": 80,
                "duration": 0.16818181818182154,
                "tempo": 120.0
            },
            {
                "start_time": 112.89545454545454,
                "end_time": 113.06363636363636,
                "pitch": 43,
                "velocity": 80,
                "duration": 0.16818181818182154,
                "tempo": 120.0
            },
            {
                "start_time": 113.09545454545454,
                "end_time": 113.26363636363635,
                "pitch": 54,
                "velocity": 80,
                "duration": 0.16818181818180733,
                "tempo": 120.0
            },
            {
                "start_time": 113.29772727272727,
                "end_time": 113.46590909090908,
                "pitch": 43,
                "velocity": 80,
                "duration": 0.16818181818180733,
                "tempo": 120.0
            },
            {
                "start_time": 113.5,
                "end_time": 113.66590909090908,
                "pitch": 52,
                "velocity": 80,
                "duration": 0.16590909090908212,
                "tempo": 120.0
            },
            {
                "start_time": 113.69999999999999,
                "end_time": 114.06818181818181,
                "pitch": 36,
                "velocity": 80,
                "duration": 0.3681818181818244,
                "tempo": 120.0
            },
            {
                "start_time": 114.10227272727272,
                "end_time": 114.26818181818182,
                "pitch": 36,
                "velocity": 80,
                "duration": 0.16590909090909634,
                "tempo": 120.0
            },
            {
                "start_time": 114.30227272727272,
                "end_time": 114.47045454545454,
                "pitch": 48,
                "velocity": 80,
                "duration": 0.16818181818182154,
                "tempo": 120.0
            },
            {
                "start_time": 114.50227272727273,
                "end_time": 114.67045454545455,
                "pitch": 36,
                "velocity": 80,
                "duration": 0.16818181818182154,
                "tempo": 120.0
            },
            {
                "start_time": 114.70454545454545,
                "end_time": 114.87045454545454,
                "pitch": 36,
                "velocity": 80,
                "duration": 0.16590909090908212,
                "tempo": 120.0
            },
            {
                "start_time": 114.90454545454544,
                "end_time": 115.07045454545454,
                "pitch": 31,
                "velocity": 80,
                "duration": 0.16590909090909634,
                "tempo": 120.0
            },
            {
                "start_time": 115.10454545454544,
                "end_time": 115.27272727272727,
                "pitch": 32,
                "velocity": 80,
                "duration": 0.16818181818182154,
                "tempo": 120.0
            },
            {
                "start_time": 115.30681818181817,
                "end_time": 115.675,
                "pitch": 33,
                "velocity": 80,
                "duration": 0.3681818181818244,
                "tempo": 120.0
            },
            {
                "start_time": 115.7090909090909,
                "end_time": 115.87727272727273,
                "pitch": 45,
                "velocity": 80,
                "duration": 0.16818181818182154,
                "tempo": 120.0
            },
            {
                "start_time": 115.91136363636363,
                "end_time": 116.08181818181818,
                "pitch": 33,
                "velocity": 80,
                "duration": 0.17045454545454675,
                "tempo": 120.0
            },
            {
                "start_time": 116.11590909090908,
                "end_time": 116.28636363636363,
                "pitch": 45,
                "velocity": 80,
                "duration": 0.17045454545454675,
                "tempo": 120.0
            },
            {
                "start_time": 116.31818181818181,
                "end_time": 116.48181818181817,
                "pitch": 33,
                "velocity": 80,
                "duration": 0.16363636363635692,
                "tempo": 120.0
            },
            {
                "start_time": 116.51590909090909,
                "end_time": 116.67954545454545,
                "pitch": 45,
                "velocity": 80,
                "duration": 0.16363636363635692,
                "tempo": 120.0
            },
            {
                "start_time": 116.71363636363635,
                "end_time": 116.8840909090909,
                "pitch": 33,
                "velocity": 80,
                "duration": 0.17045454545454675,
                "tempo": 120.0
            },
            {
                "start_time": 116.91818181818181,
                "end_time": 117.28636363636363,
                "pitch": 38,
                "velocity": 80,
                "duration": 0.3681818181818244,
                "tempo": 120.0
            },
            {
                "start_time": 117.31818181818181,
                "end_time": 117.48181818181817,
                "pitch": 38,
                "velocity": 80,
                "duration": 0.16363636363635692,
                "tempo": 120.0
            },
            {
                "start_time": 117.51590909090909,
                "end_time": 117.6840909090909,
                "pitch": 50,
                "velocity": 80,
                "duration": 0.16818181818180733,
                "tempo": 120.0
            },
            {
                "start_time": 117.71590909090908,
                "end_time": 118.0840909090909,
                "pitch": 38,
                "velocity": 80,
                "duration": 0.3681818181818244,
                "tempo": 120.0
            },
            {
                "start_time": 118.11818181818181,
                "end_time": 118.2840909090909,
                "pitch": 38,
                "velocity": 80,
                "duration": 0.16590909090909634,
                "tempo": 120.0
            },
            {
                "start_time": 118.31818181818181,
                "end_time": 118.48636363636363,
                "pitch": 50,
                "velocity": 80,
                "duration": 0.16818181818182154,
                "tempo": 120.0
            },
            {
                "start_time": 118.52045454545454,
                "end_time": 118.88636363636363,
                "pitch": 43,
                "velocity": 80,
                "duration": 0.36590909090908497,
                "tempo": 120.0
            },
            {
                "start_time": 118.92045454545455,
                "end_time": 119.08636363636363,
                "pitch": 43,
                "velocity": 80,
                "duration": 0.16590909090908212,
                "tempo": 120.0
            },
            {
                "start_time": 119.12045454545454,
                "end_time": 119.28863636363636,
                "pitch": 55,
                "velocity": 80,
                "duration": 0.16818181818182154,
                "tempo": 120.0
            },
            {
                "start_time": 119.32272727272726,
                "end_time": 119.49090909090908,
                "pitch": 43,
                "velocity": 80,
                "duration": 0.16818181818182154,
                "tempo": 120.0
            },
            {
                "start_time": 119.52272727272727,
                "end_time": 119.69090909090909,
                "pitch": 52,
                "velocity": 80,
                "duration": 0.16818181818182154,
                "tempo": 120.0
            },
            {
                "start_time": 119.725,
                "end_time": 119.89318181818182,
                "pitch": 43,
                "velocity": 80,
                "duration": 0.16818181818182154,
                "tempo": 120.0
            },
            {
                "start_time": 119.925,
                "end_time": 120.09318181818182,
                "pitch": 50,
                "velocity": 80,
                "duration": 0.16818181818182154,
                "tempo": 120.0
            },
            {
                "start_time": 120.125,
                "end_time": 120.49318181818181,
                "pitch": 40,
                "velocity": 80,
                "duration": 0.36818181818181017,
                "tempo": 120.0
            },
            {
                "start_time": 120.52727272727272,
                "end_time": 120.69545454545454,
                "pitch": 40,
                "velocity": 80,
                "duration": 0.16818181818182154,
                "tempo": 120.0
            },
            {
                "start_time": 120.72954545454544,
                "end_time": 120.89545454545454,
                "pitch": 52,
                "velocity": 80,
                "duration": 0.16590909090909634,
                "tempo": 120.0
            },
            {
                "start_time": 120.92954545454545,
                "end_time": 121.09545454545454,
                "pitch": 40,
                "velocity": 80,
                "duration": 0.16590909090909634,
                "tempo": 120.0
            },
            {
                "start_time": 121.12954545454545,
                "end_time": 121.29772727272727,
                "pitch": 52,
                "velocity": 80,
                "duration": 0.16818181818182154,
                "tempo": 120.0
            },
            {
                "start_time": 121.32954545454545,
                "end_time": 121.49772727272726,
                "pitch": 40,
                "velocity": 80,
                "duration": 0.16818181818180733,
                "tempo": 120.0
            },
            {
                "start_time": 121.53181818181818,
                "end_time": 121.69999999999999,
                "pitch": 31,
                "velocity": 80,
                "duration": 0.16818181818180733,
                "tempo": 120.0
            },
            {
                "start_time": 121.73181818181817,
                "end_time": 122.1,
                "pitch": 33,
                "velocity": 80,
                "duration": 0.3681818181818244,
                "tempo": 120.0
            },
            {
                "start_time": 122.1340909090909,
                "end_time": 122.3,
                "pitch": 33,
                "velocity": 80,
                "duration": 0.16590909090909634,
                "tempo": 120.0
            },
            {
                "start_time": 122.3340909090909,
                "end_time": 122.50227272727273,
                "pitch": 37,
                "velocity": 80,
                "duration": 0.16818181818182154,
                "tempo": 120.0
            },
            {
                "start_time": 122.53636363636363,
                "end_time": 122.70227272727273,
                "pitch": 33,
                "velocity": 80,
                "duration": 0.16590909090909634,
                "tempo": 120.0
            },
            {
                "start_time": 122.73636363636363,
                "end_time": 122.90227272727272,
                "pitch": 40,
                "velocity": 80,
                "duration": 0.16590909090908212,
                "tempo": 120.0
            },
            {
                "start_time": 122.93636363636364,
                "end_time": 123.10227272727272,
                "pitch": 33,
                "velocity": 80,
                "duration": 0.16590909090908212,
                "tempo": 120.0
            },
            {
                "start_time": 123.13636363636363,
                "end_time": 123.30454545454545,
                "pitch": 43,
                "velocity": 80,
                "duration": 0.16818181818182154,
                "tempo": 120.0
            },
            {
                "start_time": 123.33863636363635,
                "end_time": 123.70681818181818,
                "pitch": 38,
                "velocity": 80,
                "duration": 0.3681818181818244,
                "tempo": 120.0
            },
            {
                "start_time": 123.74090909090908,
                "end_time": 123.9090909090909,
                "pitch": 38,
                "velocity": 80,
                "duration": 0.16818181818182154,
                "tempo": 120.0
            },
            {
                "start_time": 123.94090909090909,
                "end_time": 124.10909090909091,
                "pitch": 50,
                "velocity": 80,
                "duration": 0.16818181818182154,
                "tempo": 120.0
            },
            {
                "start_time": 124.14090909090909,
                "end_time": 124.3090909090909,
                "pitch": 38,
                "velocity": 80,
                "duration": 0.16818181818180733,
                "tempo": 120.0
            },
            {
                "start_time": 124.34318181818182,
                "end_time": 124.71136363636363,
                "pitch": 50,
                "velocity": 80,
                "duration": 0.36818181818181017,
                "tempo": 120.0
            },
            {
                "start_time": 124.74545454545454,
                "end_time": 124.91136363636363,
                "pitch": 38,
                "velocity": 80,
                "duration": 0.16590909090909634,
                "tempo": 120.0
            },
            {
                "start_time": 124.94545454545454,
                "end_time": 125.31363636363636,
                "pitch": 43,
                "velocity": 80,
                "duration": 0.3681818181818244,
                "tempo": 120.0
            },
            {
                "start_time": 125.34545454545454,
                "end_time": 125.51363636363635,
                "pitch": 43,
                "velocity": 80,
                "duration": 0.16818181818180733,
                "tempo": 120.0
            },
            {
                "start_time": 125.54772727272727,
                "end_time": 125.71590909090908,
                "pitch": 55,
                "velocity": 80,
                "duration": 0.16818181818180733,
                "tempo": 120.0
            },
            {
                "start_time": 125.75,
                "end_time": 125.91590909090908,
                "pitch": 43,
                "velocity": 80,
                "duration": 0.16590909090908212,
                "tempo": 120.0
            },
            {
                "start_time": 125.94999999999999,
                "end_time": 126.11590909090908,
                "pitch": 55,
                "velocity": 80,
                "duration": 0.16590909090909634,
                "tempo": 120.0
            },
            {
                "start_time": 126.14999999999999,
                "end_time": 126.31590909090909,
                "pitch": 38,
                "velocity": 80,
                "duration": 0.16590909090909634,
                "tempo": 120.0
            },
            {
                "start_time": 126.35,
                "end_time": 126.51818181818182,
                "pitch": 37,
                "velocity": 80,
                "duration": 0.16818181818182154,
                "tempo": 120.0
            },
            {
                "start_time": 126.55227272727272,
                "end_time": 126.72045454545454,
                "pitch": 36,
                "velocity": 80,
                "duration": 0.16818181818182154,
                "tempo": 120.0
            },
            {
                "start_time": 126.75227272727273,
                "end_time": 126.92045454545453,
                "pitch": 36,
                "velocity": 80,
                "duration": 0.16818181818180733,
                "tempo": 120.0
            },
            {
                "start_time": 126.95227272727273,
                "end_time": 127.12045454545454,
                "pitch": 36,
                "velocity": 80,
                "duration": 0.16818181818180733,
                "tempo": 120.0
            },
            {
                "start_time": 127.15227272727272,
                "end_time": 127.32045454545454,
                "pitch": 48,
                "velocity": 80,
                "duration": 0.16818181818182154,
                "tempo": 120.0
            },
            {
                "start_time": 127.35454545454544,
                "end_time": 127.52272727272727,
                "pitch": 36,
                "velocity": 80,
                "duration": 0.16818181818182154,
                "tempo": 120.0
            },
            {
                "start_time": 127.55681818181817,
                "end_time": 127.72272727272727,
                "pitch": 0,
                "velocity": 80,
                "duration": 0.16590909090909634,
                "tempo": 120.0
            },
            {
                "start_time": 127.75681818181818,
                "end_time": 127.925,
                "pitch": 36,
                "velocity": 80,
                "duration": 0.16818181818182154,
                "tempo": 120.0
            },
            {
                "start_time": 127.9590909090909,
                "end_time": 128.125,
                "pitch": 48,
                "velocity": 80,
                "duration": 0.16590909090909634,
                "tempo": 120.0
            },
            {
                "start_time": 128.1590909090909,
                "end_time": 128.325,
                "pitch": 36,
                "velocity": 80,
                "duration": 0.16590909090908212,
                "tempo": 120.0
            },
            {
                "start_time": 128.3590909090909,
                "end_time": 128.52727272727273,
                "pitch": 0,
                "velocity": 80,
                "duration": 0.16818181818183575,
                "tempo": 120.0
            },
            {
                "start_time": 128.5590909090909,
                "end_time": 128.72727272727272,
                "pitch": 38,
                "velocity": 80,
                "duration": 0.16818181818180733,
                "tempo": 120.0
            },
            {
                "start_time": 128.76136363636363,
                "end_time": 128.82954545454544,
                "pitch": 0,
                "velocity": 80,
                "duration": 0.06818181818181301,
                "tempo": 120.0
            },
            {
                "start_time": 128.86363636363635,
                "end_time": 129.03636363636363,
                "pitch": 38,
                "velocity": 80,
                "duration": 0.17272727272728616,
                "tempo": 120.0
            },
            {
                "start_time": 129.07045454545454,
                "end_time": 129.13863636363635,
                "pitch": 0,
                "velocity": 80,
                "duration": 0.06818181818181301,
                "tempo": 120.0
            },
            {
                "start_time": 129.17045454545453,
                "end_time": 129.3340909090909,
                "pitch": 38,
                "velocity": 80,
                "duration": 0.16363636363635692,
                "tempo": 120.0
            },
            {
                "start_time": 129.36590909090907,
                "end_time": 129.9340909090909,
                "pitch": 0,
                "velocity": 80,
                "duration": 0.5681818181818414,
                "tempo": 120.0
            },
            {
                "start_time": 129.9659090909091,
                "end_time": 130.1340909090909,
                "pitch": 31,
                "velocity": 80,
                "duration": 0.16818181818180733,
                "tempo": 120.0
            },
            {
                "start_time": 130.1681818181818,
                "end_time": 130.2340909090909,
                "pitch": 43,
                "velocity": 80,
                "duration": 0.06590909090908781,
                "tempo": 120.0
            },
            {
                "start_time": 130.2681818181818,
                "end_time": 130.33636363636364,
                "pitch": 0,
                "velocity": 80,
                "duration": 0.06818181818184144,
                "tempo": 120.0
            },
            {
                "start_time": 130.36818181818182,
                "end_time": 130.53636363636363,
                "pitch": 31,
                "velocity": 80,
                "duration": 0.16818181818180733,
                "tempo": 120.0
            },
            {
                "start_time": 130.5681818181818,
                "end_time": 130.63636363636363,
                "pitch": 43,
                "velocity": 80,
                "duration": 0.06818181818181301,
                "tempo": 120.0
            },
            {
                "start_time": 130.6681818181818,
                "end_time": 130.73636363636362,
                "pitch": 0,
                "velocity": 80,
                "duration": 0.06818181818181301,
                "tempo": 120.0
            },
            {
                "start_time": 130.77045454545453,
                "end_time": 130.93636363636364,
                "pitch": 31,
                "velocity": 80,
                "duration": 0.16590909090911055,
                "tempo": 120.0
            },
            {
                "start_time": 130.97045454545454,
                "end_time": 131.03863636363636,
                "pitch": 43,
                "velocity": 80,
                "duration": 0.06818181818181301,
                "tempo": 120.0
            },
            {
                "start_time": 131.07045454545454,
                "end_time": 131.13863636363635,
                "pitch": 0,
                "velocity": 80,
                "duration": 0.06818181818181301,
                "tempo": 120.0
            },
            {
                "start_time": 131.17272727272726,
                "end_time": 131.3409090909091,
                "pitch": 31,
                "velocity": 80,
                "duration": 0.16818181818183575,
                "tempo": 120.0
            },
            {
                "start_time": 131.37272727272727,
                "end_time": 131.4409090909091,
                "pitch": 43,
                "velocity": 80,
                "duration": 0.06818181818181301,
                "tempo": 120.0
            },
            {
                "start_time": 131.475,
                "end_time": 131.54090909090908,
                "pitch": 0,
                "velocity": 80,
                "duration": 0.06590909090908781,
                "tempo": 120.0
            },
            {
                "start_time": 131.575,
                "end_time": 131.74318181818182,
                "pitch": 31,
                "velocity": 80,
                "duration": 0.16818181818183575,
                "tempo": 120.0
            },
            {
                "start_time": 131.775,
                "end_time": 131.84318181818182,
                "pitch": 43,
                "velocity": 80,
                "duration": 0.06818181818181301,
                "tempo": 120.0
            },
            {
                "start_time": 131.87727272727273,
                "end_time": 131.9431818181818,
                "pitch": 0,
                "velocity": 80,
                "duration": 0.06590909090908781,
                "tempo": 120.0
            },
            {
                "start_time": 131.97727272727272,
                "end_time": 132.14545454545453,
                "pitch": 31,
                "velocity": 80,
                "duration": 0.16818181818180733,
                "tempo": 120.0
            },
            {
                "start_time": 132.17954545454546,
                "end_time": 132.24545454545455,
                "pitch": 43,
                "velocity": 80,
                "duration": 0.06590909090908781,
                "tempo": 120.0
            },
            {
                "start_time": 132.27954545454546,
                "end_time": 132.34545454545454,
                "pitch": 0,
                "velocity": 80,
                "duration": 0.06590909090908781,
                "tempo": 120.0
            },
            {
                "start_time": 132.37954545454545,
                "end_time": 132.54545454545453,
                "pitch": 31,
                "velocity": 80,
                "duration": 0.16590909090908212,
                "tempo": 120.0
            },
            {
                "start_time": 132.57954545454544,
                "end_time": 132.64545454545453,
                "pitch": 43,
                "velocity": 80,
                "duration": 0.06590909090908781,
                "tempo": 120.0
            },
            {
                "start_time": 132.67954545454546,
                "end_time": 132.74545454545455,
                "pitch": 0,
                "velocity": 80,
                "duration": 0.06590909090908781,
                "tempo": 120.0
            },
            {
                "start_time": 132.77954545454546,
                "end_time": 132.94772727272726,
                "pitch": 31,
                "velocity": 80,
                "duration": 0.16818181818180733,
                "tempo": 120.0
            },
            {
                "start_time": 132.98181818181817,
                "end_time": 133.04772727272726,
                "pitch": 43,
                "velocity": 80,
                "duration": 0.06590909090908781,
                "tempo": 120.0
            },
            {
                "start_time": 133.08181818181816,
                "end_time": 133.15,
                "pitch": 0,
                "velocity": 80,
                "duration": 0.06818181818184144,
                "tempo": 120.0
            },
            {
                "start_time": 133.1818181818182,
                "end_time": 133.35,
                "pitch": 26,
                "velocity": 80,
                "duration": 0.16818181818180733,
                "tempo": 120.0
            },
            {
                "start_time": 133.3840909090909,
                "end_time": 133.4522727272727,
                "pitch": 38,
                "velocity": 80,
                "duration": 0.06818181818181301,
                "tempo": 120.0
            },
            {
                "start_time": 133.4840909090909,
                "end_time": 133.5522727272727,
                "pitch": 0,
                "velocity": 80,
                "duration": 0.06818181818181301,
                "tempo": 120.0
            },
            {
                "start_time": 133.58636363636364,
                "end_time": 133.75227272727273,
                "pitch": 26,
                "velocity": 80,
                "duration": 0.16590909090908212,
                "tempo": 120.0
            },
            {
                "start_time": 133.78636363636363,
                "end_time": 133.85454545454544,
                "pitch": 38,
                "velocity": 80,
                "duration": 0.06818181818181301,
                "tempo": 120.0
            },
            {
                "start_time": 133.88636363636363,
                "end_time": 133.95454545454544,
                "pitch": 0,
                "velocity": 80,
                "duration": 0.06818181818181301,
                "tempo": 120.0
            },
            {
                "start_time": 133.98863636363635,
                "end_time": 134.15681818181818,
                "pitch": 26,
                "velocity": 80,
                "duration": 0.16818181818183575,
                "tempo": 120.0
            },
            {
                "start_time": 134.18863636363636,
                "end_time": 134.25681818181818,
                "pitch": 38,
                "velocity": 80,
                "duration": 0.06818181818181301,
                "tempo": 120.0
            },
            {
                "start_time": 134.29090909090908,
                "end_time": 134.35681818181817,
                "pitch": 0,
                "velocity": 80,
                "duration": 0.06590909090908781,
                "tempo": 120.0
            },
            {
                "start_time": 134.39090909090908,
                "end_time": 134.5568181818182,
                "pitch": 26,
                "velocity": 80,
                "duration": 0.16590909090911055,
                "tempo": 120.0
            },
            {
                "start_time": 134.5909090909091,
                "end_time": 134.65681818181818,
                "pitch": 38,
                "velocity": 80,
                "duration": 0.06590909090908781,
                "tempo": 120.0
            },
            {
                "start_time": 134.6909090909091,
                "end_time": 134.75681818181818,
                "pitch": 0,
                "velocity": 80,
                "duration": 0.06590909090908781,
                "tempo": 120.0
            },
            {
                "start_time": 134.79090909090908,
                "end_time": 134.9590909090909,
                "pitch": 26,
                "velocity": 80,
                "duration": 0.16818181818180733,
                "tempo": 120.0
            },
            {
                "start_time": 134.99318181818182,
                "end_time": 135.0590909090909,
                "pitch": 38,
                "velocity": 80,
                "duration": 0.06590909090908781,
                "tempo": 120.0
            },
            {
                "start_time": 135.09318181818182,
                "end_time": 135.1590909090909,
                "pitch": 0,
                "velocity": 80,
                "duration": 0.06590909090908781,
                "tempo": 120.0
            },
            {
                "start_time": 135.1931818181818,
                "end_time": 135.36136363636362,
                "pitch": 26,
                "velocity": 80,
                "duration": 0.16818181818180733,
                "tempo": 120.0
            },
            {
                "start_time": 135.39545454545453,
                "end_time": 135.46136363636364,
                "pitch": 38,
                "velocity": 80,
                "duration": 0.06590909090911623,
                "tempo": 120.0
            },
            {
                "start_time": 135.49545454545455,
                "end_time": 135.56363636363636,
                "pitch": 0,
                "velocity": 80,
                "duration": 0.06818181818181301,
                "tempo": 120.0
            },
            {
                "start_time": 135.59545454545454,
                "end_time": 135.76363636363635,
                "pitch": 26,
                "velocity": 80,
                "duration": 0.16818181818180733,
                "tempo": 120.0
            },
            {
                "start_time": 135.79772727272726,
                "end_time": 135.86363636363635,
                "pitch": 38,
                "velocity": 80,
                "duration": 0.06590909090908781,
                "tempo": 120.0
            },
            {
                "start_time": 135.89772727272725,
                "end_time": 135.9659090909091,
                "pitch": 0,
                "velocity": 80,
                "duration": 0.06818181818184144,
                "tempo": 120.0
            },
            {
                "start_time": 136.0,
                "end_time": 136.16590909090908,
                "pitch": 26,
                "velocity": 80,
                "duration": 0.16590909090908212,
                "tempo": 120.0
            },
            {
                "start_time": 136.2,
                "end_time": 136.2681818181818,
                "pitch": 38,
                "velocity": 80,
                "duration": 0.06818181818181301,
                "tempo": 120.0
            },
            {
                "start_time": 136.29999999999998,
                "end_time": 136.36818181818182,
                "pitch": 0,
                "velocity": 80,
                "duration": 0.06818181818184144,
                "tempo": 120.0
            },
            {
                "start_time": 136.40227272727273,
                "end_time": 136.5681818181818,
                "pitch": 33,
                "velocity": 80,
                "duration": 0.16590909090908212,
                "tempo": 120.0
            },
            {
                "start_time": 136.60227272727272,
                "end_time": 136.6681818181818,
                "pitch": 45,
                "velocity": 80,
                "duration": 0.06590909090908781,
                "tempo": 120.0
            },
            {
                "start_time": 136.7022727272727,
                "end_time": 136.7681818181818,
                "pitch": 0,
                "velocity": 80,
                "duration": 0.06590909090908781,
                "tempo": 120.0
            },
            {
                "start_time": 136.8022727272727,
                "end_time": 136.97045454545454,
                "pitch": 33,
                "velocity": 80,
                "duration": 0.16818181818183575,
                "tempo": 120.0
            },
            {
                "start_time": 137.00227272727273,
                "end_time": 137.07045454545454,
                "pitch": 45,
                "velocity": 80,
                "duration": 0.06818181818181301,
                "tempo": 120.0
            },
            {
                "start_time": 137.10454545454544,
                "end_time": 137.17045454545453,
                "pitch": 0,
                "velocity": 80,
                "duration": 0.06590909090908781,
                "tempo": 120.0
            },
            {
                "start_time": 137.20454545454544,
                "end_time": 137.37272727272727,
                "pitch": 33,
                "velocity": 80,
                "duration": 0.16818181818183575,
                "tempo": 120.0
            },
            {
                "start_time": 137.40454545454546,
                "end_time": 137.47272727272727,
                "pitch": 45,
                "velocity": 80,
                "duration": 0.06818181818181301,
                "tempo": 120.0
            },
            {
                "start_time": 137.50681818181818,
                "end_time": 137.57272727272726,
                "pitch": 0,
                "velocity": 80,
                "duration": 0.06590909090908781,
                "tempo": 120.0
            },
            {
                "start_time": 137.60681818181817,
                "end_time": 137.775,
                "pitch": 33,
                "velocity": 80,
                "duration": 0.16818181818183575,
                "tempo": 120.0
            },
            {
                "start_time": 137.8090909090909,
                "end_time": 137.875,
                "pitch": 45,
                "velocity": 80,
                "duration": 0.06590909090908781,
                "tempo": 120.0
            },
            {
                "start_time": 137.9090909090909,
                "end_time": 137.975,
                "pitch": 0,
                "velocity": 80,
                "duration": 0.06590909090908781,
                "tempo": 120.0
            },
            {
                "start_time": 138.0090909090909,
                "end_time": 138.1772727272727,
                "pitch": 33,
                "velocity": 80,
                "duration": 0.16818181818180733,
                "tempo": 120.0
            },
            {
                "start_time": 138.21136363636364,
                "end_time": 138.27727272727273,
                "pitch": 45,
                "velocity": 80,
                "duration": 0.06590909090908781,
                "tempo": 120.0
            },
            {
                "start_time": 138.31136363636364,
                "end_time": 138.37954545454545,
                "pitch": 0,
                "velocity": 80,
                "duration": 0.06818181818181301,
                "tempo": 120.0
            },
            {
                "start_time": 138.41136363636363,
                "end_time": 138.57954545454544,
                "pitch": 33,
                "velocity": 80,
                "duration": 0.16818181818180733,
                "tempo": 120.0
            },
            {
                "start_time": 138.61136363636362,
                "end_time": 138.67954545454546,
                "pitch": 45,
                "velocity": 80,
                "duration": 0.06818181818184144,
                "tempo": 120.0
            },
            {
                "start_time": 138.71136363636364,
                "end_time": 138.77954545454546,
                "pitch": 0,
                "velocity": 80,
                "duration": 0.06818181818181301,
                "tempo": 120.0
            },
            {
                "start_time": 138.81136363636364,
                "end_time": 138.97954545454544,
                "pitch": 33,
                "velocity": 80,
                "duration": 0.16818181818180733,
                "tempo": 120.0
            },
            {
                "start_time": 139.01363636363635,
                "end_time": 139.08181818181816,
                "pitch": 45,
                "velocity": 80,
                "duration": 0.06818181818181301,
                "tempo": 120.0
            },
            {
                "start_time": 139.11363636363635,
                "end_time": 139.1818181818182,
                "pitch": 0,
                "velocity": 80,
                "duration": 0.06818181818184144,
                "tempo": 120.0
            },
            {
                "start_time": 139.2159090909091,
                "end_time": 139.38181818181818,
                "pitch": 33,
                "velocity": 80,
                "duration": 0.16590909090908212,
                "tempo": 120.0
            },
            {
                "start_time": 139.41590909090908,
                "end_time": 139.4840909090909,
                "pitch": 45,
                "velocity": 80,
                "duration": 0.06818181818181301,
                "tempo": 120.0
            },
            {
                "start_time": 139.51590909090908,
                "end_time": 139.5840909090909,
                "pitch": 0,
                "velocity": 80,
                "duration": 0.06818181818181301,
                "tempo": 120.0
            },
            {
                "start_time": 139.61818181818182,
                "end_time": 139.78636363636363,
                "pitch": 28,
                "velocity": 80,
                "duration": 0.16818181818180733,
                "tempo": 120.0
            },
            {
                "start_time": 139.8181818181818,
                "end_time": 139.88636363636363,
                "pitch": 40,
                "velocity": 80,
                "duration": 0.06818181818181301,
                "tempo": 120.0
            },
            {
                "start_time": 139.92045454545453,
                "end_time": 139.98636363636362,
                "pitch": 0,
                "velocity": 80,
                "duration": 0.06590909090908781,
                "tempo": 120.0
            },
            {
                "start_time": 140.02045454545453,
                "end_time": 140.18863636363636,
                "pitch": 28,
                "velocity": 80,
                "duration": 0.16818181818183575,
                "tempo": 120.0
            },
            {
                "start_time": 140.22272727272727,
                "end_time": 140.28863636363636,
                "pitch": 40,
                "velocity": 80,
                "duration": 0.06590909090908781,
                "tempo": 120.0
            },
            {
                "start_time": 140.32272727272726,
                "end_time": 140.38863636363635,
                "pitch": 0,
                "velocity": 80,
                "duration": 0.06590909090908781,
                "tempo": 120.0
            },
            {
                "start_time": 140.42272727272726,
                "end_time": 140.58863636363637,
                "pitch": 28,
                "velocity": 80,
                "duration": 0.16590909090911055,
                "tempo": 120.0
            },
            {
                "start_time": 140.62272727272727,
                "end_time": 140.68863636363636,
                "pitch": 40,
                "velocity": 80,
                "duration": 0.06590909090908781,
                "tempo": 120.0
            },
            {
                "start_time": 140.72272727272727,
                "end_time": 140.78863636363636,
                "pitch": 0,
                "velocity": 80,
                "duration": 0.06590909090908781,
                "tempo": 120.0
            },
            {
                "start_time": 140.82272727272726,
                "end_time": 140.99090909090907,
                "pitch": 28,
                "velocity": 80,
                "duration": 0.16818181818180733,
                "tempo": 120.0
            },
            {
                "start_time": 141.025,
                "end_time": 141.0909090909091,
                "pitch": 40,
                "velocity": 80,
                "duration": 0.06590909090908781,
                "tempo": 120.0
            },
            {
                "start_time": 141.125,
                "end_time": 141.1931818181818,
                "pitch": 0,
                "velocity": 80,
                "duration": 0.06818181818181301,
                "tempo": 120.0
            },
            {
                "start_time": 141.225,
                "end_time": 141.3931818181818,
                "pitch": 28,
                "velocity": 80,
                "duration": 0.16818181818180733,
                "tempo": 120.0
            },
            {
                "start_time": 141.4272727272727,
                "end_time": 141.49318181818182,
                "pitch": 40,
                "velocity": 80,
                "duration": 0.06590909090911623,
                "tempo": 120.0
            },
            {
                "start_time": 141.52727272727273,
                "end_time": 141.59545454545454,
                "pitch": 0,
                "velocity": 80,
                "duration": 0.06818181818181301,
                "tempo": 120.0
            },
            {
                "start_time": 141.62954545454545,
                "end_time": 141.79545454545453,
                "pitch": 28,
                "velocity": 80,
                "duration": 0.16590909090908212,
                "tempo": 120.0
            },
            {
                "start_time": 141.82954545454544,
                "end_time": 141.89772727272725,
                "pitch": 40,
                "velocity": 80,
                "duration": 0.06818181818181301,
                "tempo": 120.0
            },
            {
                "start_time": 141.92954545454546,
                "end_time": 141.99772727272727,
                "pitch": 0,
                "velocity": 80,
                "duration": 0.06818181818181301,
                "tempo": 120.0
            },
            {
                "start_time": 142.03181818181818,
                "end_time": 142.2022727272727,
                "pitch": 28,
                "velocity": 80,
                "duration": 0.17045454545453254,
                "tempo": 120.0
            },
            {
                "start_time": 142.23636363636362,
                "end_time": 142.40681818181818,
                "pitch": 28,
                "velocity": 80,
                "duration": 0.17045454545456096,
                "tempo": 120.0
            },
            {
                "start_time": 142.4409090909091,
                "end_time": 142.60454545454544,
                "pitch": 28,
                "velocity": 80,
                "duration": 0.16363636363635692,
                "tempo": 120.0
            },
            {
                "start_time": 142.63636363636363,
                "end_time": 143.00227272727273,
                "pitch": 29,
                "velocity": 80,
                "duration": 0.3659090909090992,
                "tempo": 120.0
            },
            {
                "start_time": 143.03636363636363,
                "end_time": 143.10227272727272,
                "pitch": 41,
                "velocity": 80,
                "duration": 0.06590909090908781,
                "tempo": 120.0
            },
            {
                "start_time": 143.13636363636363,
                "end_time": 143.2022727272727,
                "pitch": 0,
                "velocity": 80,
                "duration": 0.06590909090908781,
                "tempo": 120.0
            },
            {
                "start_time": 143.23636363636362,
                "end_time": 143.40454545454546,
                "pitch": 29,
                "velocity": 80,
                "duration": 0.16818181818183575,
                "tempo": 120.0
            },
            {
                "start_time": 143.43863636363636,
                "end_time": 143.50454545454545,
                "pitch": 41,
                "velocity": 80,
                "duration": 0.06590909090908781,
                "tempo": 120.0
            },
            {
                "start_time": 143.53863636363636,
                "end_time": 143.60681818181817,
                "pitch": 0,
                "velocity": 80,
                "duration": 0.06818181818181301,
                "tempo": 120.0
            },
            {
                "start_time": 143.63863636363635,
                "end_time": 143.8068181818182,
                "pitch": 29,
                "velocity": 80,
                "duration": 0.16818181818183575,
                "tempo": 120.0
            },
            {
                "start_time": 143.8409090909091,
                "end_time": 143.90681818181818,
                "pitch": 41,
                "velocity": 80,
                "duration": 0.06590909090908781,
                "tempo": 120.0
            },
            {
                "start_time": 143.9409090909091,
                "end_time": 144.0090909090909,
                "pitch": 0,
                "velocity": 80,
                "duration": 0.06818181818181301,
                "tempo": 120.0
            },
            {
                "start_time": 144.0431818181818,
                "end_time": 144.2090909090909,
                "pitch": 29,
                "velocity": 80,
                "duration": 0.16590909090908212,
                "tempo": 120.0
            },
            {
                "start_time": 144.24318181818182,
                "end_time": 144.31136363636364,
                "pitch": 41,
                "velocity": 80,
                "duration": 0.06818181818181301,
                "tempo": 120.0
            },
            {
                "start_time": 144.34318181818182,
                "end_time": 144.41136363636363,
                "pitch": 0,
                "velocity": 80,
                "duration": 0.06818181818181301,
                "tempo": 120.0
            },
            {
                "start_time": 144.44545454545454,
                "end_time": 144.61136363636362,
                "pitch": 29,
                "velocity": 80,
                "duration": 0.16590909090908212,
                "tempo": 120.0
            },
            {
                "start_time": 144.64545454545453,
                "end_time": 144.71136363636364,
                "pitch": 41,
                "velocity": 80,
                "duration": 0.06590909090911623,
                "tempo": 120.0
            },
            {
                "start_time": 144.74545454545455,
                "end_time": 144.81136363636364,
                "pitch": 0,
                "velocity": 80,
                "duration": 0.06590909090908781,
                "tempo": 120.0
            },
            {
                "start_time": 144.84545454545454,
                "end_time": 145.01363636363635,
                "pitch": 29,
                "velocity": 80,
                "duration": 0.16818181818180733,
                "tempo": 120.0
            },
            {
                "start_time": 145.04545454545453,
                "end_time": 145.11363636363635,
                "pitch": 41,
                "velocity": 80,
                "duration": 0.06818181818181301,
                "tempo": 120.0
            },
            {
                "start_time": 145.14772727272725,
                "end_time": 145.21363636363637,
                "pitch": 0,
                "velocity": 80,
                "duration": 0.06590909090911623,
                "tempo": 120.0
            },
            {
                "start_time": 145.24772727272727,
                "end_time": 145.41590909090908,
                "pitch": 29,
                "velocity": 80,
                "duration": 0.16818181818180733,
                "tempo": 120.0
            },
            {
                "start_time": 145.44772727272726,
                "end_time": 145.51590909090908,
                "pitch": 41,
                "velocity": 80,
                "duration": 0.06818181818181301,
                "tempo": 120.0
            },
            {
                "start_time": 145.54999999999998,
                "end_time": 145.61590909090907,
                "pitch": 0,
                "velocity": 80,
                "duration": 0.06590909090908781,
                "tempo": 120.0
            },
            {
                "start_time": 145.65,
                "end_time": 145.8181818181818,
                "pitch": 29,
                "velocity": 80,
                "duration": 0.16818181818180733,
                "tempo": 120.0
            },
            {
                "start_time": 145.85227272727272,
                "end_time": 145.9181818181818,
                "pitch": 41,
                "velocity": 80,
                "duration": 0.06590909090908781,
                "tempo": 120.0
            },
            {
                "start_time": 145.9522727272727,
                "end_time": 146.0181818181818,
                "pitch": 0,
                "velocity": 80,
                "duration": 0.06590909090908781,
                "tempo": 120.0
            },
            {
                "start_time": 146.0522727272727,
                "end_time": 146.22045454545454,
                "pitch": 24,
                "velocity": 80,
                "duration": 0.16818181818183575,
                "tempo": 120.0
            },
            {
                "start_time": 146.25454545454545,
                "end_time": 146.32045454545454,
                "pitch": 36,
                "velocity": 80,
                "duration": 0.06590909090908781,
                "tempo": 120.0
            },
            {
                "start_time": 146.35454545454544,
                "end_time": 146.42272727272726,
                "pitch": 0,
                "velocity": 80,
                "duration": 0.06818181818181301,
                "tempo": 120.0
            },
            {
                "start_time": 146.45454545454544,
                "end_time": 146.62272727272727,
                "pitch": 24,
                "velocity": 80,
                "duration": 0.16818181818183575,
                "tempo": 120.0
            },
            {
                "start_time": 146.65454545454546,
                "end_time": 146.72272727272727,
                "pitch": 36,
                "velocity": 80,
                "duration": 0.06818181818181301,
                "tempo": 120.0
            },
            {
                "start_time": 146.75454545454545,
                "end_time": 146.82272727272726,
                "pitch": 0,
                "velocity": 80,
                "duration": 0.06818181818181301,
                "tempo": 120.0
            },
            {
                "start_time": 146.85454545454544,
                "end_time": 147.02272727272725,
                "pitch": 24,
                "velocity": 80,
                "duration": 0.16818181818180733,
                "tempo": 120.0
            },
            {
                "start_time": 147.0568181818182,
                "end_time": 147.125,
                "pitch": 36,
                "velocity": 80,
                "duration": 0.06818181818181301,
                "tempo": 120.0
            },
            {
                "start_time": 147.15681818181818,
                "end_time": 147.225,
                "pitch": 0,
                "velocity": 80,
                "duration": 0.06818181818181301,
                "tempo": 120.0
            },
            {
                "start_time": 147.2590909090909,
                "end_time": 147.42499999999998,
                "pitch": 24,
                "velocity": 80,
                "duration": 0.16590909090908212,
                "tempo": 120.0
            },
            {
                "start_time": 147.4590909090909,
                "end_time": 147.52727272727273,
                "pitch": 36,
                "velocity": 80,
                "duration": 0.06818181818184144,
                "tempo": 120.0
            },
            {
                "start_time": 147.5590909090909,
                "end_time": 147.62727272727273,
                "pitch": 0,
                "velocity": 80,
                "duration": 0.06818181818181301,
                "tempo": 120.0
            },
            {
                "start_time": 147.66136363636363,
                "end_time": 147.82954545454544,
                "pitch": 24,
                "velocity": 80,
                "duration": 0.16818181818180733,
                "tempo": 120.0
            },
            {
                "start_time": 147.86136363636362,
                "end_time": 147.92954545454543,
                "pitch": 36,
                "velocity": 80,
                "duration": 0.06818181818181301,
                "tempo": 120.0
            },
            {
                "start_time": 147.96363636363637,
                "end_time": 148.02954545454546,
                "pitch": 0,
                "velocity": 80,
                "duration": 0.06590909090908781,
                "tempo": 120.0
            },
            {
                "start_time": 148.06363636363636,
                "end_time": 148.23181818181817,
                "pitch": 24,
                "velocity": 80,
                "duration": 0.16818181818180733,
                "tempo": 120.0
            },
            {
                "start_time": 148.26590909090908,
                "end_time": 148.33181818181816,
                "pitch": 36,
                "velocity": 80,
                "duration": 0.06590909090908781,
                "tempo": 120.0
            },
            {
                "start_time": 148.36590909090907,
                "end_time": 148.4318181818182,
                "pitch": 0,
                "velocity": 80,
                "duration": 0.06590909090911623,
                "tempo": 120.0
            },
            {
                "start_time": 148.4659090909091,
                "end_time": 148.63181818181818,
                "pitch": 24,
                "velocity": 80,
                "duration": 0.16590909090908212,
                "tempo": 120.0
            },
            {
                "start_time": 148.66590909090908,
                "end_time": 148.73181818181817,
                "pitch": 36,
                "velocity": 80,
                "duration": 0.06590909090908781,
                "tempo": 120.0
            },
            {
                "start_time": 148.76590909090908,
                "end_time": 148.83181818181816,
                "pitch": 0,
                "velocity": 80,
                "duration": 0.06590909090908781,
                "tempo": 120.0
            },
            {
                "start_time": 148.86590909090907,
                "end_time": 149.0340909090909,
                "pitch": 26,
                "velocity": 80,
                "duration": 0.16818181818183575,
                "tempo": 120.0
            },
            {
                "start_time": 149.0681818181818,
                "end_time": 149.1340909090909,
                "pitch": 38,
                "velocity": 80,
                "duration": 0.06590909090908781,
                "tempo": 120.0
            },
            {
                "start_time": 149.1681818181818,
                "end_time": 149.23636363636362,
                "pitch": 0,
                "velocity": 80,
                "duration": 0.06818181818181301,
                "tempo": 120.0
            },
            {
                "start_time": 149.2681818181818,
                "end_time": 149.43636363636364,
                "pitch": 27,
                "velocity": 80,
                "duration": 0.16818181818183575,
                "tempo": 120.0
            },
            {
                "start_time": 149.47045454545454,
                "end_time": 149.53636363636363,
                "pitch": 39,
                "velocity": 80,
                "duration": 0.06590909090908781,
                "tempo": 120.0
            },
            {
                "start_time": 149.57045454545454,
                "end_time": 149.63863636363635,
                "pitch": 0,
                "velocity": 80,
                "duration": 0.06818181818181301,
                "tempo": 120.0
            },
            {
                "start_time": 149.67272727272726,
                "end_time": 149.83863636363637,
                "pitch": 27,
                "velocity": 80,
                "duration": 0.16590909090911055,
                "tempo": 120.0
            },
            {
                "start_time": 149.87272727272727,
                "end_time": 149.9409090909091,
                "pitch": 39,
                "velocity": 80,
                "duration": 0.06818181818181301,
                "tempo": 120.0
            },
            {
                "start_time": 149.97272727272727,
                "end_time": 150.04090909090908,
                "pitch": 0,
                "velocity": 80,
                "duration": 0.06818181818181301,
                "tempo": 120.0
            },
            {
                "start_time": 150.075,
                "end_time": 150.24318181818182,
                "pitch": 27,
                "velocity": 80,
                "duration": 0.16818181818183575,
                "tempo": 120.0
            },
            {
                "start_time": 150.275,
                "end_time": 150.34318181818182,
                "pitch": 39,
                "velocity": 80,
                "duration": 0.06818181818181301,
                "tempo": 120.0
            },
            {
                "start_time": 150.37727272727273,
                "end_time": 150.4431818181818,
                "pitch": 0,
                "velocity": 80,
                "duration": 0.06590909090908781,
                "tempo": 120.0
            },
            {
                "start_time": 150.47727272727272,
                "end_time": 150.6431818181818,
                "pitch": 27,
                "velocity": 80,
                "duration": 0.16590909090908212,
                "tempo": 120.0
            },
            {
                "start_time": 150.6772727272727,
                "end_time": 150.74318181818182,
                "pitch": 39,
                "velocity": 80,
                "duration": 0.06590909090911623,
                "tempo": 120.0
            },
            {
                "start_time": 150.77727272727273,
                "end_time": 150.84318181818182,
                "pitch": 0,
                "velocity": 80,
                "duration": 0.06590909090908781,
                "tempo": 120.0
            },
            {
                "start_time": 150.87727272727273,
                "end_time": 151.04545454545453,
                "pitch": 27,
                "velocity": 80,
                "duration": 0.16818181818180733,
                "tempo": 120.0
            },
            {
                "start_time": 151.0772727272727,
                "end_time": 151.14545454545453,
                "pitch": 39,
                "velocity": 80,
                "duration": 0.06818181818181301,
                "tempo": 120.0
            },
            {
                "start_time": 151.17954545454543,
                "end_time": 151.24545454545455,
                "pitch": 0,
                "velocity": 80,
                "duration": 0.06590909090911623,
                "tempo": 120.0
            },
            {
                "start_time": 151.27954545454546,
                "end_time": 151.44772727272726,
                "pitch": 27,
                "velocity": 80,
                "duration": 0.16818181818180733,
                "tempo": 120.0
            },
            {
                "start_time": 151.48181818181817,
                "end_time": 151.54772727272726,
                "pitch": 39,
                "velocity": 80,
                "duration": 0.06590909090908781,
                "tempo": 120.0
            },
            {
                "start_time": 151.58181818181816,
                "end_time": 151.64772727272725,
                "pitch": 0,
                "velocity": 80,
                "duration": 0.06590909090908781,
                "tempo": 120.0
            },
            {
                "start_time": 151.6818181818182,
                "end_time": 151.85,
                "pitch": 27,
                "velocity": 80,
                "duration": 0.16818181818180733,
                "tempo": 120.0
            },
            {
                "start_time": 151.8840909090909,
                "end_time": 151.95,
                "pitch": 39,
                "velocity": 80,
                "duration": 0.06590909090908781,
                "tempo": 120.0
            },
            {
                "start_time": 151.9840909090909,
                "end_time": 152.0522727272727,
                "pitch": 0,
                "velocity": 80,
                "duration": 0.06818181818181301,
                "tempo": 120.0
            },
            {
                "start_time": 152.0840909090909,
                "end_time": 152.25227272727273,
                "pitch": 27,
                "velocity": 80,
                "duration": 0.16818181818183575,
                "tempo": 120.0
            },
            {
                "start_time": 152.28636363636363,
                "end_time": 152.35454545454544,
                "pitch": 39,
                "velocity": 80,
                "duration": 0.06818181818181301,
                "tempo": 120.0
            },
            {
                "start_time": 152.38636363636363,
                "end_time": 152.45454545454544,
                "pitch": 0,
                "velocity": 80,
                "duration": 0.06818181818181301,
                "tempo": 120.0
            },
            {
                "start_time": 152.48636363636362,
                "end_time": 152.65454545454546,
                "pitch": 26,
                "velocity": 80,
                "duration": 0.16818181818183575,
                "tempo": 120.0
            },
            {
                "start_time": 152.68636363636364,
                "end_time": 152.75454545454545,
                "pitch": 38,
                "velocity": 80,
                "duration": 0.06818181818181301,
                "tempo": 120.0
            },
            {
                "start_time": 152.78636363636363,
                "end_time": 152.85454545454544,
                "pitch": 0,
                "velocity": 80,
                "duration": 0.06818181818181301,
                "tempo": 120.0
            },
            {
                "start_time": 152.88863636363635,
                "end_time": 153.05454545454543,
                "pitch": 26,
                "velocity": 80,
                "duration": 0.16590909090908212,
                "tempo": 120.0
            },
            {
                "start_time": 153.08863636363637,
                "end_time": 153.15681818181818,
                "pitch": 38,
                "velocity": 80,
                "duration": 0.06818181818181301,
                "tempo": 120.0
            },
            {
                "start_time": 153.18863636363636,
                "end_time": 153.25681818181818,
                "pitch": 0,
                "velocity": 80,
                "duration": 0.06818181818181301,
                "tempo": 120.0
            },
            {
                "start_time": 153.29090909090908,
                "end_time": 153.4590909090909,
                "pitch": 26,
                "velocity": 80,
                "duration": 0.16818181818180733,
                "tempo": 120.0
            },
            {
                "start_time": 153.49090909090907,
                "end_time": 153.5590909090909,
                "pitch": 38,
                "velocity": 80,
                "duration": 0.06818181818184144,
                "tempo": 120.0
            },
            {
                "start_time": 153.59318181818182,
                "end_time": 153.6590909090909,
                "pitch": 0,
                "velocity": 80,
                "duration": 0.06590909090908781,
                "tempo": 120.0
            },
            {
                "start_time": 153.6931818181818,
                "end_time": 153.86136363636362,
                "pitch": 26,
                "velocity": 80,
                "duration": 0.16818181818180733,
                "tempo": 120.0
            },
            {
                "start_time": 153.89545454545453,
                "end_time": 154.26363636363635,
                "pitch": 26,
                "velocity": 80,
                "duration": 0.3681818181818244,
                "tempo": 120.0
            },
            {
                "start_time": 154.29772727272726,
                "end_time": 154.36363636363635,
                "pitch": 38,
                "velocity": 80,
                "duration": 0.06590909090908781,
                "tempo": 120.0
            },
            {
                "start_time": 154.39772727272725,
                "end_time": 154.4659090909091,
                "pitch": 0,
                "velocity": 80,
                "duration": 0.06818181818184144,
                "tempo": 120.0
            },
            {
                "start_time": 154.49772727272727,
                "end_time": 154.66590909090908,
                "pitch": 27,
                "velocity": 80,
                "duration": 0.16818181818180733,
                "tempo": 120.0
            },
            {
                "start_time": 154.69772727272726,
                "end_time": 154.76590909090908,
                "pitch": 39,
                "velocity": 80,
                "duration": 0.06818181818181301,
                "tempo": 120.0
            },
            {
                "start_time": 154.79772727272726,
                "end_time": 154.86590909090907,
                "pitch": 0,
                "velocity": 80,
                "duration": 0.06818181818181301,
                "tempo": 120.0
            },
            {
                "start_time": 154.9,
                "end_time": 155.07045454545454,
                "pitch": 28,
                "velocity": 80,
                "duration": 0.17045454545453254,
                "tempo": 120.0
            },
            {
                "start_time": 155.10454545454544,
                "end_time": 155.17272727272726,
                "pitch": 40,
                "velocity": 80,
                "duration": 0.06818181818181301,
                "tempo": 120.0
            },
            {
                "start_time": 155.20681818181816,
                "end_time": 155.275,
                "pitch": 0,
                "velocity": 80,
                "duration": 0.06818181818184144,
                "tempo": 120.0
            },
            {
                "start_time": 155.3068181818182,
                "end_time": 155.47045454545454,
                "pitch": 30,
                "velocity": 80,
                "duration": 0.16363636363635692,
                "tempo": 120.0
            },
            {
                "start_time": 155.50454545454545,
                "end_time": 155.5681818181818,
                "pitch": 42,
                "velocity": 80,
                "duration": 0.0636363636363626,
                "tempo": 120.0
            },
            {
                "start_time": 155.60227272727272,
                "end_time": 155.6681818181818,
                "pitch": 0,
                "velocity": 80,
                "duration": 0.06590909090908781,
                "tempo": 120.0
            },
            {
                "start_time": 155.7022727272727,
                "end_time": 155.86818181818182,
                "pitch": 31,
                "velocity": 80,
                "duration": 0.16590909090911055,
                "tempo": 120.0
            },
            {
                "start_time": 155.90227272727273,
                "end_time": 155.97045454545454,
                "pitch": 43,
                "velocity": 80,
                "duration": 0.06818181818181301,
                "tempo": 120.0
            },
            {
                "start_time": 156.00227272727273,
                "end_time": 156.07045454545454,
                "pitch": 0,
                "velocity": 80,
                "duration": 0.06818181818181301,
                "tempo": 120.0
            },
            {
                "start_time": 156.10454545454544,
                "end_time": 156.27272727272725,
                "pitch": 31,
                "velocity": 80,
                "duration": 0.16818181818180733,
                "tempo": 120.0
            },
            {
                "start_time": 156.30454545454543,
                "end_time": 156.37272727272727,
                "pitch": 43,
                "velocity": 80,
                "duration": 0.06818181818184144,
                "tempo": 120.0
            },
            {
                "start_time": 156.40681818181818,
                "end_time": 156.47272727272727,
                "pitch": 0,
                "velocity": 80,
                "duration": 0.06590909090908781,
                "tempo": 120.0
            },
            {
                "start_time": 156.50681818181818,
                "end_time": 156.67272727272726,
                "pitch": 31,
                "velocity": 80,
                "duration": 0.16590909090908212,
                "tempo": 120.0
            },
            {
                "start_time": 156.70681818181816,
                "end_time": 156.77272727272725,
                "pitch": 43,
                "velocity": 80,
                "duration": 0.06590909090908781,
                "tempo": 120.0
            },
            {
                "start_time": 156.8068181818182,
                "end_time": 156.87272727272727,
                "pitch": 0,
                "velocity": 80,
                "duration": 0.06590909090908781,
                "tempo": 120.0
            },
            {
                "start_time": 156.90681818181818,
                "end_time": 157.075,
                "pitch": 31,
                "velocity": 80,
                "duration": 0.16818181818180733,
                "tempo": 120.0
            },
            {
                "start_time": 157.1090909090909,
                "end_time": 157.17499999999998,
                "pitch": 43,
                "velocity": 80,
                "duration": 0.06590909090908781,
                "tempo": 120.0
            },
            {
                "start_time": 157.2090909090909,
                "end_time": 157.275,
                "pitch": 0,
                "velocity": 80,
                "duration": 0.06590909090911623,
                "tempo": 120.0
            },
            {
                "start_time": 157.3090909090909,
                "end_time": 157.47727272727272,
                "pitch": 31,
                "velocity": 80,
                "duration": 0.16818181818180733,
                "tempo": 120.0
            },
            {
                "start_time": 157.51136363636363,
                "end_time": 157.5772727272727,
                "pitch": 43,
                "velocity": 80,
                "duration": 0.06590909090908781,
                "tempo": 120.0
            },
            {
                "start_time": 157.61136363636362,
                "end_time": 157.67954545454543,
                "pitch": 0,
                "velocity": 80,
                "duration": 0.06818181818181301,
                "tempo": 120.0
            },
            {
                "start_time": 157.71136363636361,
                "end_time": 157.87954545454545,
                "pitch": 31,
                "velocity": 80,
                "duration": 0.16818181818183575,
                "tempo": 120.0
            },
            {
                "start_time": 157.91363636363636,
                "end_time": 157.97954545454544,
                "pitch": 43,
                "velocity": 80,
                "duration": 0.06590909090908781,
                "tempo": 120.0
            },
            {
                "start_time": 158.01363636363635,
                "end_time": 158.08181818181816,
                "pitch": 0,
                "velocity": 80,
                "duration": 0.06818181818181301,
                "tempo": 120.0
            },
            {
                "start_time": 158.11363636363635,
                "end_time": 158.28181818181818,
                "pitch": 31,
                "velocity": 80,
                "duration": 0.16818181818183575,
                "tempo": 120.0
            },
            {
                "start_time": 158.3159090909091,
                "end_time": 158.3840909090909,
                "pitch": 43,
                "velocity": 80,
                "duration": 0.06818181818181301,
                "tempo": 120.0
            },
            {
                "start_time": 158.41590909090908,
                "end_time": 158.4840909090909,
                "pitch": 0,
                "velocity": 80,
                "duration": 0.06818181818181301,
                "tempo": 120.0
            },
            {
                "start_time": 158.5181818181818,
                "end_time": 158.6840909090909,
                "pitch": 31,
                "velocity": 80,
                "duration": 0.16590909090911055,
                "tempo": 120.0
            },
            {
                "start_time": 158.71818181818182,
                "end_time": 158.7840909090909,
                "pitch": 43,
                "velocity": 80,
                "duration": 0.06590909090908781,
                "tempo": 120.0
            },
            {
                "start_time": 158.8181818181818,
                "end_time": 158.8840909090909,
                "pitch": 0,
                "velocity": 80,
                "duration": 0.06590909090908781,
                "tempo": 120.0
            },
            {
                "start_time": 158.9181818181818,
                "end_time": 159.0840909090909,
                "pitch": 26,
                "velocity": 80,
                "duration": 0.16590909090908212,
                "tempo": 120.0
            },
            {
                "start_time": 159.11818181818182,
                "end_time": 159.18636363636364,
                "pitch": 38,
                "velocity": 80,
                "duration": 0.06818181818181301,
                "tempo": 120.0
            },
            {
                "start_time": 159.22045454545454,
                "end_time": 159.28636363636363,
                "pitch": 0,
                "velocity": 80,
                "duration": 0.06590909090908781,
                "tempo": 120.0
            },
            {
                "start_time": 159.32045454545454,
                "end_time": 159.48863636363635,
                "pitch": 26,
                "velocity": 80,
                "duration": 0.16818181818180733,
                "tempo": 120.0
            },
            {
                "start_time": 159.52045454545453,
                "end_time": 159.58863636363637,
                "pitch": 38,
                "velocity": 80,
                "duration": 0.06818181818184144,
                "tempo": 120.0
            },
            {
                "start_time": 159.62272727272727,
                "end_time": 159.68863636363636,
                "pitch": 0,
                "velocity": 80,
                "duration": 0.06590909090908781,
                "tempo": 120.0
            },
            {
                "start_time": 159.72272727272727,
                "end_time": 159.89090909090908,
                "pitch": 26,
                "velocity": 80,
                "duration": 0.16818181818180733,
                "tempo": 120.0
            },
            {
                "start_time": 159.92499999999998,
                "end_time": 159.99090909090907,
                "pitch": 38,
                "velocity": 80,
                "duration": 0.06590909090908781,
                "tempo": 120.0
            },
            {
                "start_time": 160.025,
                "end_time": 160.0909090909091,
                "pitch": 0,
                "velocity": 80,
                "duration": 0.06590909090908781,
                "tempo": 120.0
            },
            {
                "start_time": 160.125,
                "end_time": 160.2931818181818,
                "pitch": 26,
                "velocity": 80,
                "duration": 0.16818181818180733,
                "tempo": 120.0
            },
            {
                "start_time": 160.3272727272727,
                "end_time": 160.3931818181818,
                "pitch": 38,
                "velocity": 80,
                "duration": 0.06590909090908781,
                "tempo": 120.0
            },
            {
                "start_time": 160.4272727272727,
                "end_time": 160.49545454545455,
                "pitch": 0,
                "velocity": 80,
                "duration": 0.06818181818184144,
                "tempo": 120.0
            },
            {
                "start_time": 160.52727272727273,
                "end_time": 160.69545454545454,
                "pitch": 26,
                "velocity": 80,
                "duration": 0.16818181818180733,
                "tempo": 120.0
            },
            {
                "start_time": 160.72727272727272,
                "end_time": 160.79545454545453,
                "pitch": 38,
                "velocity": 80,
                "duration": 0.06818181818181301,
                "tempo": 120.0
            },
            {
                "start_time": 160.8272727272727,
                "end_time": 160.89545454545453,
                "pitch": 0,
                "velocity": 80,
                "duration": 0.06818181818181301,
                "tempo": 120.0
            },
            {
                "start_time": 160.9272727272727,
                "end_time": 161.09545454545454,
                "pitch": 26,
                "velocity": 80,
                "duration": 0.16818181818183575,
                "tempo": 120.0
            },
            {
                "start_time": 161.12954545454545,
                "end_time": 161.19772727272726,
                "pitch": 38,
                "velocity": 80,
                "duration": 0.06818181818181301,
                "tempo": 120.0
            },
            {
                "start_time": 161.22954545454544,
                "end_time": 161.29772727272726,
                "pitch": 0,
                "velocity": 80,
                "duration": 0.06818181818181301,
                "tempo": 120.0
            },
            {
                "start_time": 161.33181818181816,
                "end_time": 161.49772727272727,
                "pitch": 26,
                "velocity": 80,
                "duration": 0.16590909090911055,
                "tempo": 120.0
            },
            {
                "start_time": 161.53181818181818,
                "end_time": 161.6,
                "pitch": 38,
                "velocity": 80,
                "duration": 0.06818181818181301,
                "tempo": 120.0
            },
            {
                "start_time": 161.63181818181818,
                "end_time": 161.7,
                "pitch": 0,
                "velocity": 80,
                "duration": 0.06818181818181301,
                "tempo": 120.0
            },
            {
                "start_time": 161.7340909090909,
                "end_time": 161.90227272727273,
                "pitch": 26,
                "velocity": 80,
                "duration": 0.16818181818183575,
                "tempo": 120.0
            },
            {
                "start_time": 161.9340909090909,
                "end_time": 162.00227272727273,
                "pitch": 38,
                "velocity": 80,
                "duration": 0.06818181818181301,
                "tempo": 120.0
            },
            {
                "start_time": 162.03636363636363,
                "end_time": 162.10227272727272,
                "pitch": 0,
                "velocity": 80,
                "duration": 0.06590909090908781,
                "tempo": 120.0
            },
            {
                "start_time": 162.13636363636363,
                "end_time": 162.30454545454543,
                "pitch": 33,
                "velocity": 80,
                "duration": 0.16818181818180733,
                "tempo": 120.0
            },
            {
                "start_time": 162.33863636363637,
                "end_time": 162.40454545454546,
                "pitch": 45,
                "velocity": 80,
                "duration": 0.06590909090908781,
                "tempo": 120.0
            },
            {
                "start_time": 162.43863636363636,
                "end_time": 162.50454545454545,
                "pitch": 0,
                "velocity": 80,
                "duration": 0.06590909090908781,
                "tempo": 120.0
            },
            {
                "start_time": 162.53863636363636,
                "end_time": 162.70454545454544,
                "pitch": 33,
                "velocity": 80,
                "duration": 0.16590909090908212,
                "tempo": 120.0
            },
            {
                "start_time": 162.73863636363635,
                "end_time": 162.80454545454543,
                "pitch": 45,
                "velocity": 80,
                "duration": 0.06590909090908781,
                "tempo": 120.0
            },
            {
                "start_time": 162.83863636363637,
                "end_time": 162.90454545454546,
                "pitch": 0,
                "velocity": 80,
                "duration": 0.06590909090908781,
                "tempo": 120.0
            },
            {
                "start_time": 162.93863636363636,
                "end_time": 163.10681818181817,
                "pitch": 33,
                "velocity": 80,
                "duration": 0.16818181818180733,
                "tempo": 120.0
            },
            {
                "start_time": 163.14090909090908,
                "end_time": 163.20681818181816,
                "pitch": 45,
                "velocity": 80,
                "duration": 0.06590909090908781,
                "tempo": 120.0
            },
            {
                "start_time": 163.24090909090907,
                "end_time": 163.3090909090909,
                "pitch": 0,
                "velocity": 80,
                "duration": 0.06818181818184144,
                "tempo": 120.0
            },
            {
                "start_time": 163.3409090909091,
                "end_time": 163.5090909090909,
                "pitch": 33,
                "velocity": 80,
                "duration": 0.16818181818180733,
                "tempo": 120.0
            },
            {
                "start_time": 163.5431818181818,
                "end_time": 163.6090909090909,
                "pitch": 45,
                "velocity": 80,
                "duration": 0.06590909090908781,
                "tempo": 120.0
            },
            {
                "start_time": 163.6431818181818,
                "end_time": 163.71136363636361,
                "pitch": 0,
                "velocity": 80,
                "duration": 0.06818181818181301,
                "tempo": 120.0
            },
            {
                "start_time": 163.74318181818182,
                "end_time": 163.91136363636363,
                "pitch": 33,
                "velocity": 80,
                "duration": 0.16818181818180733,
                "tempo": 120.0
            },
            {
                "start_time": 163.94545454545454,
                "end_time": 164.01363636363635,
                "pitch": 45,
                "velocity": 80,
                "duration": 0.06818181818181301,
                "tempo": 120.0
            },
            {
                "start_time": 164.04545454545453,
                "end_time": 164.11363636363635,
                "pitch": 0,
                "velocity": 80,
                "duration": 0.06818181818181301,
                "tempo": 120.0
            },
            {
                "start_time": 164.14772727272725,
                "end_time": 164.31363636363636,
                "pitch": 33,
                "velocity": 80,
                "duration": 0.16590909090911055,
                "tempo": 120.0
            },
            {
                "start_time": 164.34772727272727,
                "end_time": 164.41590909090908,
                "pitch": 45,
                "velocity": 80,
                "duration": 0.06818181818181301,
                "tempo": 120.0
            },
            {
                "start_time": 164.45,
                "end_time": 164.51590909090908,
                "pitch": 0,
                "velocity": 80,
                "duration": 0.06590909090908781,
                "tempo": 120.0
            },
            {
                "start_time": 164.54999999999998,
                "end_time": 164.7159090909091,
                "pitch": 33,
                "velocity": 80,
                "duration": 0.16590909090911055,
                "tempo": 120.0
            },
            {
                "start_time": 164.75,
                "end_time": 164.8159090909091,
                "pitch": 45,
                "velocity": 80,
                "duration": 0.06590909090908781,
                "tempo": 120.0
            },
            {
                "start_time": 164.85,
                "end_time": 164.91590909090908,
                "pitch": 0,
                "velocity": 80,
                "duration": 0.06590909090908781,
                "tempo": 120.0
            },
            {
                "start_time": 164.95,
                "end_time": 165.1181818181818,
                "pitch": 33,
                "velocity": 80,
                "duration": 0.16818181818180733,
                "tempo": 120.0
            },
            {
                "start_time": 165.15,
                "end_time": 165.21818181818182,
                "pitch": 45,
                "velocity": 80,
                "duration": 0.06818181818181301,
                "tempo": 120.0
            },
            {
                "start_time": 165.25227272727273,
                "end_time": 165.3181818181818,
                "pitch": 0,
                "velocity": 80,
                "duration": 0.06590909090908781,
                "tempo": 120.0
            },
            {
                "start_time": 165.35227272727272,
                "end_time": 165.52045454545453,
                "pitch": 28,
                "velocity": 80,
                "duration": 0.16818181818180733,
                "tempo": 120.0
            },
            {
                "start_time": 165.55454545454543,
                "end_time": 165.62045454545455,
                "pitch": 40,
                "velocity": 80,
                "duration": 0.06590909090911623,
                "tempo": 120.0
            },
            {
                "start_time": 165.65454545454546,
                "end_time": 165.72045454545454,
                "pitch": 0,
                "velocity": 80,
                "duration": 0.06590909090908781,
                "tempo": 120.0
            },
            {
                "start_time": 165.75454545454545,
                "end_time": 165.92272727272726,
                "pitch": 28,
                "velocity": 80,
                "duration": 0.16818181818180733,
                "tempo": 120.0
            },
            {
                "start_time": 165.95681818181816,
                "end_time": 166.02272727272725,
                "pitch": 40,
                "velocity": 80,
                "duration": 0.06590909090908781,
                "tempo": 120.0
            },
            {
                "start_time": 166.0568181818182,
                "end_time": 166.125,
                "pitch": 0,
                "velocity": 80,
                "duration": 0.06818181818181301,
                "tempo": 120.0
            },
            {
                "start_time": 166.15681818181818,
                "end_time": 166.325,
                "pitch": 28,
                "velocity": 80,
                "duration": 0.16818181818180733,
                "tempo": 120.0
            },
            {
                "start_time": 166.3590909090909,
                "end_time": 166.4272727272727,
                "pitch": 40,
                "velocity": 80,
                "duration": 0.06818181818181301,
                "tempo": 120.0
            },
            {
                "start_time": 166.4590909090909,
                "end_time": 166.52727272727273,
                "pitch": 0,
                "velocity": 80,
                "duration": 0.06818181818184144,
                "tempo": 120.0
            },
            {
                "start_time": 166.5590909090909,
                "end_time": 166.72727272727272,
                "pitch": 28,
                "velocity": 80,
                "duration": 0.16818181818180733,
                "tempo": 120.0
            },
            {
                "start_time": 166.7590909090909,
                "end_time": 166.8272727272727,
                "pitch": 40,
                "velocity": 80,
                "duration": 0.06818181818181301,
                "tempo": 120.0
            },
            {
                "start_time": 166.8590909090909,
                "end_time": 166.9272727272727,
                "pitch": 0,
                "velocity": 80,
                "duration": 0.06818181818181301,
                "tempo": 120.0
            },
            {
                "start_time": 166.96136363636361,
                "end_time": 167.12727272727273,
                "pitch": 28,
                "velocity": 80,
                "duration": 0.16590909090911055,
                "tempo": 120.0
            },
            {
                "start_time": 167.16136363636363,
                "end_time": 167.22954545454544,
                "pitch": 40,
                "velocity": 80,
                "duration": 0.06818181818181301,
                "tempo": 120.0
            },
            {
                "start_time": 167.26136363636363,
                "end_time": 167.32954545454544,
                "pitch": 0,
                "velocity": 80,
                "duration": 0.06818181818181301,
                "tempo": 120.0
            },
            {
                "start_time": 167.36363636363635,
                "end_time": 167.53181818181818,
                "pitch": 28,
                "velocity": 80,
                "duration": 0.16818181818183575,
                "tempo": 120.0
            },
            {
                "start_time": 167.56363636363636,
                "end_time": 167.63181818181818,
                "pitch": 40,
                "velocity": 80,
                "duration": 0.06818181818181301,
                "tempo": 120.0
            },
            {
                "start_time": 167.66590909090908,
                "end_time": 167.73181818181817,
                "pitch": 0,
                "velocity": 80,
                "duration": 0.06590909090908781,
                "tempo": 120.0
            },
            {
                "start_time": 167.76590909090908,
                "end_time": 167.93863636363636,
                "pitch": 28,
                "velocity": 80,
                "duration": 0.17272727272728616,
                "tempo": 120.0
            },
            {
                "start_time": 167.97272727272727,
                "end_time": 168.1431818181818,
                "pitch": 28,
                "velocity": 80,
                "duration": 0.17045454545453254,
                "tempo": 120.0
            },
            {
                "start_time": 168.17499999999998,
                "end_time": 168.33863636363637,
                "pitch": 28,
                "velocity": 80,
                "duration": 0.16363636363638534,
                "tempo": 120.0
            },
            {
                "start_time": 168.37045454545455,
                "end_time": 168.7340909090909,
                "pitch": 29,
                "velocity": 80,
                "duration": 0.36363636363634555,
                "tempo": 120.0
            },
            {
                "start_time": 168.7681818181818,
                "end_time": 168.8340909090909,
                "pitch": 41,
                "velocity": 80,
                "duration": 0.06590909090908781,
                "tempo": 120.0
            },
            {
                "start_time": 168.8681818181818,
                "end_time": 168.9340909090909,
                "pitch": 0,
                "velocity": 80,
                "duration": 0.06590909090911623,
                "tempo": 120.0
            },
            {
                "start_time": 168.96818181818182,
                "end_time": 169.13636363636363,
                "pitch": 29,
                "velocity": 80,
                "duration": 0.16818181818180733,
                "tempo": 120.0
            },
            {
                "start_time": 169.17045454545453,
                "end_time": 169.23636363636362,
                "pitch": 41,
                "velocity": 80,
                "duration": 0.06590909090908781,
                "tempo": 120.0
            },
            {
                "start_time": 169.27045454545453,
                "end_time": 169.33863636363637,
                "pitch": 0,
                "velocity": 80,
                "duration": 0.06818181818184144,
                "tempo": 120.0
            },
            {
                "start_time": 169.37045454545455,
                "end_time": 169.53863636363636,
                "pitch": 29,
                "velocity": 80,
                "duration": 0.16818181818180733,
                "tempo": 120.0
            },
            {
                "start_time": 169.57272727272726,
                "end_time": 169.64090909090908,
                "pitch": 41,
                "velocity": 80,
                "duration": 0.06818181818181301,
                "tempo": 120.0
            },
            {
                "start_time": 169.67272727272726,
                "end_time": 169.74090909090907,
                "pitch": 0,
                "velocity": 80,
                "duration": 0.06818181818181301,
                "tempo": 120.0
            },
            {
                "start_time": 169.775,
                "end_time": 169.9409090909091,
                "pitch": 29,
                "velocity": 80,
                "duration": 0.16590909090908212,
                "tempo": 120.0
            },
            {
                "start_time": 169.975,
                "end_time": 170.0431818181818,
                "pitch": 41,
                "velocity": 80,
                "duration": 0.06818181818181301,
                "tempo": 120.0
            },
            {
                "start_time": 170.075,
                "end_time": 170.1431818181818,
                "pitch": 0,
                "velocity": 80,
                "duration": 0.06818181818181301,
                "tempo": 120.0
            },
            {
                "start_time": 170.1772727272727,
                "end_time": 170.34545454545454,
                "pitch": 29,
                "velocity": 80,
                "duration": 0.16818181818183575,
                "tempo": 120.0
            },
            {
                "start_time": 170.37727272727273,
                "end_time": 170.44545454545454,
                "pitch": 41,
                "velocity": 80,
                "duration": 0.06818181818181301,
                "tempo": 120.0
            },
            {
                "start_time": 170.47954545454544,
                "end_time": 170.54545454545453,
                "pitch": 0,
                "velocity": 80,
                "duration": 0.06590909090908781,
                "tempo": 120.0
            },
            {
                "start_time": 170.57954545454544,
                "end_time": 170.74545454545455,
                "pitch": 29,
                "velocity": 80,
                "duration": 0.16590909090911055,
                "tempo": 120.0
            },
            {
                "start_time": 170.77954545454546,
                "end_time": 170.84545454545454,
                "pitch": 41,
                "velocity": 80,
                "duration": 0.06590909090908781,
                "tempo": 120.0
            },
            {
                "start_time": 170.87954545454545,
                "end_time": 170.94545454545454,
                "pitch": 0,
                "velocity": 80,
                "duration": 0.06590909090908781,
                "tempo": 120.0
            },
            {
                "start_time": 170.97954545454544,
                "end_time": 171.14772727272725,
                "pitch": 29,
                "velocity": 80,
                "duration": 0.16818181818180733,
                "tempo": 120.0
            },
            {
                "start_time": 171.1818181818182,
                "end_time": 171.24772727272727,
                "pitch": 41,
                "velocity": 80,
                "duration": 0.06590909090908781,
                "tempo": 120.0
            },
            {
                "start_time": 171.28181818181818,
                "end_time": 171.34772727272727,
                "pitch": 0,
                "velocity": 80,
                "duration": 0.06590909090908781,
                "tempo": 120.0
            },
            {
                "start_time": 171.38181818181818,
                "end_time": 171.54999999999998,
                "pitch": 29,
                "velocity": 80,
                "duration": 0.16818181818180733,
                "tempo": 120.0
            },
            {
                "start_time": 171.5840909090909,
                "end_time": 171.65,
                "pitch": 41,
                "velocity": 80,
                "duration": 0.06590909090911623,
                "tempo": 120.0
            },
            {
                "start_time": 171.6840909090909,
                "end_time": 171.75227272727273,
                "pitch": 0,
                "velocity": 80,
                "duration": 0.06818181818181301,
                "tempo": 120.0
            },
            {
                "start_time": 171.7840909090909,
                "end_time": 171.9522727272727,
                "pitch": 24,
                "velocity": 80,
                "duration": 0.16818181818180733,
                "tempo": 120.0
            },
            {
                "start_time": 171.98636363636362,
                "end_time": 172.0522727272727,
                "pitch": 36,
                "velocity": 80,
                "duration": 0.06590909090908781,
                "tempo": 120.0
            },
            {
                "start_time": 172.08636363636361,
                "end_time": 172.15454545454546,
                "pitch": 0,
                "velocity": 80,
                "duration": 0.06818181818184144,
                "tempo": 120.0
            },
            {
                "start_time": 172.18636363636364,
                "end_time": 172.35454545454544,
                "pitch": 24,
                "velocity": 80,
                "duration": 0.16818181818180733,
                "tempo": 120.0
            },
            {
                "start_time": 172.38863636363635,
                "end_time": 172.45681818181816,
                "pitch": 36,
                "velocity": 80,
                "duration": 0.06818181818181301,
                "tempo": 120.0
            },
            {
                "start_time": 172.48863636363635,
                "end_time": 172.5568181818182,
                "pitch": 0,
                "velocity": 80,
                "duration": 0.06818181818184144,
                "tempo": 120.0
            },
            {
                "start_time": 172.5909090909091,
                "end_time": 172.75681818181818,
                "pitch": 24,
                "velocity": 80,
                "duration": 0.16590909090908212,
                "tempo": 120.0
            },
            {
                "start_time": 172.79090909090908,
                "end_time": 172.85681818181817,
                "pitch": 36,
                "velocity": 80,
                "duration": 0.06590909090908781,
                "tempo": 120.0
            },
            {
                "start_time": 172.89090909090908,
                "end_time": 172.95681818181816,
                "pitch": 0,
                "velocity": 80,
                "duration": 0.06590909090908781,
                "tempo": 120.0
            },
            {
                "start_time": 172.99090909090907,
                "end_time": 173.15681818181818,
                "pitch": 24,
                "velocity": 80,
                "duration": 0.16590909090911055,
                "tempo": 120.0
            },
            {
                "start_time": 173.1909090909091,
                "end_time": 173.2590909090909,
                "pitch": 36,
                "velocity": 80,
                "duration": 0.06818181818181301,
                "tempo": 120.0
            },
            {
                "start_time": 173.2931818181818,
                "end_time": 173.3590909090909,
                "pitch": 0,
                "velocity": 80,
                "duration": 0.06590909090908781,
                "tempo": 120.0
            },
            {
                "start_time": 173.3931818181818,
                "end_time": 173.56136363636364,
                "pitch": 24,
                "velocity": 80,
                "duration": 0.16818181818183575,
                "tempo": 120.0
            },
            {
                "start_time": 173.59318181818182,
                "end_time": 173.66136363636363,
                "pitch": 36,
                "velocity": 80,
                "duration": 0.06818181818181301,
                "tempo": 120.0
            },
            {
                "start_time": 173.69545454545454,
                "end_time": 173.76136363636363,
                "pitch": 0,
                "velocity": 80,
                "duration": 0.06590909090908781,
                "tempo": 120.0
            },
            {
                "start_time": 173.79545454545453,
                "end_time": 173.96363636363637,
                "pitch": 24,
                "velocity": 80,
                "duration": 0.16818181818183575,
                "tempo": 120.0
            },
            {
                "start_time": 173.99772727272727,
                "end_time": 174.06363636363636,
                "pitch": 36,
                "velocity": 80,
                "duration": 0.06590909090908781,
                "tempo": 120.0
            },
            {
                "start_time": 174.09772727272727,
                "end_time": 174.16363636363636,
                "pitch": 0,
                "velocity": 80,
                "duration": 0.06590909090908781,
                "tempo": 120.0
            },
            {
                "start_time": 174.19772727272726,
                "end_time": 174.36590909090907,
                "pitch": 24,
                "velocity": 80,
                "duration": 0.16818181818180733,
                "tempo": 120.0
            },
            {
                "start_time": 174.4,
                "end_time": 174.4659090909091,
                "pitch": 36,
                "velocity": 80,
                "duration": 0.06590909090908781,
                "tempo": 120.0
            },
            {
                "start_time": 174.5,
                "end_time": 174.5681818181818,
                "pitch": 0,
                "velocity": 80,
                "duration": 0.06818181818181301,
                "tempo": 120.0
            },
            {
                "start_time": 174.6,
                "end_time": 174.7681818181818,
                "pitch": 26,
                "velocity": 80,
                "duration": 0.16818181818180733,
                "tempo": 120.0
            },
            {
                "start_time": 174.79999999999998,
                "end_time": 174.8681818181818,
                "pitch": 38,
                "velocity": 80,
                "duration": 0.06818181818181301,
                "tempo": 120.0
            },
            {
                "start_time": 174.9,
                "end_time": 174.96818181818182,
                "pitch": 0,
                "velocity": 80,
                "duration": 0.06818181818181301,
                "tempo": 120.0
            },
            {
                "start_time": 175.0,
                "end_time": 175.1681818181818,
                "pitch": 27,
                "velocity": 80,
                "duration": 0.16818181818180733,
                "tempo": 120.0
            },
            {
                "start_time": 175.2022727272727,
                "end_time": 175.27045454545453,
                "pitch": 39,
                "velocity": 80,
                "duration": 0.06818181818181301,
                "tempo": 120.0
            },
            {
                "start_time": 175.3022727272727,
                "end_time": 175.37045454545455,
                "pitch": 0,
                "velocity": 80,
                "duration": 0.06818181818184144,
                "tempo": 120.0
            },
            {
                "start_time": 175.40454545454546,
                "end_time": 175.57045454545454,
                "pitch": 27,
                "velocity": 80,
                "duration": 0.16590909090908212,
                "tempo": 120.0
            },
            {
                "start_time": 175.60454545454544,
                "end_time": 175.67272727272726,
                "pitch": 39,
                "velocity": 80,
                "duration": 0.06818181818181301,
                "tempo": 120.0
            },
            {
                "start_time": 175.70454545454544,
                "end_time": 175.77272727272725,
                "pitch": 0,
                "velocity": 80,
                "duration": 0.06818181818181301,
                "tempo": 120.0
            },
            {
                "start_time": 175.8068181818182,
                "end_time": 175.975,
                "pitch": 27,
                "velocity": 80,
                "duration": 0.16818181818180733,
                "tempo": 120.0
            },
            {
                "start_time": 176.00681818181818,
                "end_time": 176.075,
                "pitch": 39,
                "velocity": 80,
                "duration": 0.06818181818181301,
                "tempo": 120.0
            },
            {
                "start_time": 176.1090909090909,
                "end_time": 176.17499999999998,
                "pitch": 0,
                "velocity": 80,
                "duration": 0.06590909090908781,
                "tempo": 120.0
            },
            {
                "start_time": 176.2090909090909,
                "end_time": 176.37727272727273,
                "pitch": 27,
                "velocity": 80,
                "duration": 0.16818181818183575,
                "tempo": 120.0
            },
            {
                "start_time": 176.41136363636363,
                "end_time": 176.47727272727272,
                "pitch": 39,
                "velocity": 80,
                "duration": 0.06590909090908781,
                "tempo": 120.0
            },
            {
                "start_time": 176.51136363636363,
                "end_time": 176.5772727272727,
                "pitch": 0,
                "velocity": 80,
                "duration": 0.06590909090908781,
                "tempo": 120.0
            },
            {
                "start_time": 176.61136363636362,
                "end_time": 176.77727272727273,
                "pitch": 27,
                "velocity": 80,
                "duration": 0.16590909090911055,
                "tempo": 120.0
            },
            {
                "start_time": 176.81136363636364,
                "end_time": 176.87727272727273,
                "pitch": 39,
                "velocity": 80,
                "duration": 0.06590909090908781,
                "tempo": 120.0
            },
            {
                "start_time": 176.91136363636363,
                "end_time": 176.97727272727272,
                "pitch": 0,
                "velocity": 80,
                "duration": 0.06590909090908781,
                "tempo": 120.0
            },
            {
                "start_time": 177.01136363636363,
                "end_time": 177.17954545454543,
                "pitch": 27,
                "velocity": 80,
                "duration": 0.16818181818180733,
                "tempo": 120.0
            },
            {
                "start_time": 177.21363636363637,
                "end_time": 177.27954545454546,
                "pitch": 39,
                "velocity": 80,
                "duration": 0.06590909090908781,
                "tempo": 120.0
            },
            {
                "start_time": 177.31363636363636,
                "end_time": 177.38181818181818,
                "pitch": 0,
                "velocity": 80,
                "duration": 0.06818181818181301,
                "tempo": 120.0
            },
            {
                "start_time": 177.41363636363636,
                "end_time": 177.58181818181816,
                "pitch": 27,
                "velocity": 80,
                "duration": 0.16818181818180733,
                "tempo": 120.0
            },
            {
                "start_time": 177.61590909090907,
                "end_time": 177.6818181818182,
                "pitch": 39,
                "velocity": 80,
                "duration": 0.06590909090911623,
                "tempo": 120.0
            },
            {
                "start_time": 177.7159090909091,
                "end_time": 177.7840909090909,
                "pitch": 0,
                "velocity": 80,
                "duration": 0.06818181818181301,
                "tempo": 120.0
            },
            {
                "start_time": 177.8159090909091,
                "end_time": 177.9840909090909,
                "pitch": 27,
                "velocity": 80,
                "duration": 0.16818181818180733,
                "tempo": 120.0
            },
            {
                "start_time": 178.0181818181818,
                "end_time": 178.08636363636361,
                "pitch": 39,
                "velocity": 80,
                "duration": 0.06818181818181301,
                "tempo": 120.0
            },
            {
                "start_time": 178.1181818181818,
                "end_time": 178.18636363636364,
                "pitch": 0,
                "velocity": 80,
                "duration": 0.06818181818184144,
                "tempo": 120.0
            },
            {
                "start_time": 178.22045454545454,
                "end_time": 178.38636363636363,
                "pitch": 26,
                "velocity": 80,
                "duration": 0.16590909090908212,
                "tempo": 120.0
            },
            {
                "start_time": 178.42045454545453,
                "end_time": 178.48863636363635,
                "pitch": 38,
                "velocity": 80,
                "duration": 0.06818181818181301,
                "tempo": 120.0
            },
            {
                "start_time": 178.52272727272725,
                "end_time": 178.58863636363637,
                "pitch": 0,
                "velocity": 80,
                "duration": 0.06590909090911623,
                "tempo": 120.0
            },
            {
                "start_time": 178.62272727272727,
                "end_time": 178.78863636363636,
                "pitch": 26,
                "velocity": 80,
                "duration": 0.16590909090908212,
                "tempo": 120.0
            },
            {
                "start_time": 178.82272727272726,
                "end_time": 178.88863636363635,
                "pitch": 38,
                "velocity": 80,
                "duration": 0.06590909090908781,
                "tempo": 120.0
            },
            {
                "start_time": 178.92272727272726,
                "end_time": 178.98863636363635,
                "pitch": 0,
                "velocity": 80,
                "duration": 0.06590909090908781,
                "tempo": 120.0
            },
            {
                "start_time": 179.02272727272725,
                "end_time": 179.1909090909091,
                "pitch": 26,
                "velocity": 80,
                "duration": 0.16818181818183575,
                "tempo": 120.0
            },
            {
                "start_time": 179.22272727272727,
                "end_time": 179.29090909090908,
                "pitch": 38,
                "velocity": 80,
                "duration": 0.06818181818181301,
                "tempo": 120.0
            },
            {
                "start_time": 179.325,
                "end_time": 179.39090909090908,
                "pitch": 0,
                "velocity": 80,
                "duration": 0.06590909090908781,
                "tempo": 120.0
            },
            {
                "start_time": 179.42499999999998,
                "end_time": 179.59318181818182,
                "pitch": 26,
                "velocity": 80,
                "duration": 0.16818181818183575,
                "tempo": 120.0
            },
            {
                "start_time": 179.62727272727273,
                "end_time": 179.99545454545455,
                "pitch": 26,
                "velocity": 80,
                "duration": 0.3681818181818244,
                "tempo": 120.0
            }
        ],
        "Acoustic Guitar (nylon)": [
            {
                "start_time": 0.19999999999999998,
                "end_time": 0.3659090909090909,
                "pitch": 71,
                "velocity": 40,
                "duration": 0.16590909090909092,
                "tempo": 120.0
            },
            {
                "start_time": 0.39999999999999997,
                "end_time": 1.159090909090909,
                "pitch": 0,
                "velocity": 40,
                "duration": 0.759090909090909,
                "tempo": 120.0
            },
            {
                "start_time": 1.190909090909091,
                "end_time": 1.3545454545454545,
                "pitch": 71,
                "velocity": 40,
                "duration": 0.16363636363636358,
                "tempo": 120.0
            },
            {
                "start_time": 1.3886363636363637,
                "end_time": 1.5522727272727272,
                "pitch": 71,
                "velocity": 40,
                "duration": 0.16363636363636358,
                "tempo": 120.0
            },
            {
                "start_time": 1.584090909090909,
                "end_time": 2.7636363636363637,
                "pitch": 0,
                "velocity": 40,
                "duration": 1.1795454545454547,
                "tempo": 120.0
            },
            {
                "start_time": 2.7977272727272724,
                "end_time": 2.9636363636363634,
                "pitch": 71,
                "velocity": 40,
                "duration": 0.165909090909091,
                "tempo": 120.0
            },
            {
                "start_time": 2.9977272727272726,
                "end_time": 3.1636363636363636,
                "pitch": 71,
                "velocity": 40,
                "duration": 0.165909090909091,
                "tempo": 120.0
            },
            {
                "start_time": 3.1977272727272728,
                "end_time": 4.36590909090909,
                "pitch": 0,
                "velocity": 40,
                "duration": 1.1681818181818175,
                "tempo": 120.0
            },
            {
                "start_time": 4.3999999999999995,
                "end_time": 4.5636363636363635,
                "pitch": 71,
                "velocity": 40,
                "duration": 0.16363636363636402,
                "tempo": 120.0
            },
            {
                "start_time": 4.595454545454545,
                "end_time": 5.972727272727273,
                "pitch": 69,
                "velocity": 40,
                "duration": 1.3772727272727279,
                "tempo": 120.0
            },
            {
                "start_time": 6.006818181818182,
                "end_time": 6.375,
                "pitch": 69,
                "velocity": 40,
                "duration": 0.36818181818181817,
                "tempo": 120.0
            },
            {
                "start_time": 6.409090909090909,
                "end_time": 6.574999999999999,
                "pitch": 71,
                "velocity": 40,
                "duration": 0.16590909090909012,
                "tempo": 120.0
            },
            {
                "start_time": 6.6090909090909085,
                "end_time": 6.7749999999999995,
                "pitch": 71,
                "velocity": 40,
                "duration": 0.165909090909091,
                "tempo": 120.0
            },
            {
                "start_time": 6.809090909090909,
                "end_time": 7.570454545454545,
                "pitch": 0,
                "velocity": 40,
                "duration": 0.7613636363636367,
                "tempo": 120.0
            },
            {
                "start_time": 7.6045454545454545,
                "end_time": 7.7749999999999995,
                "pitch": 71,
                "velocity": 40,
                "duration": 0.17045454545454497,
                "tempo": 120.0
            },
            {
                "start_time": 7.809090909090909,
                "end_time": 7.9795454545454545,
                "pitch": 71,
                "velocity": 40,
                "duration": 0.17045454545454586,
                "tempo": 120.0
            },
            {
                "start_time": 8.013636363636364,
                "end_time": 9.186363636363636,
                "pitch": 0,
                "velocity": 40,
                "duration": 1.172727272727272,
                "tempo": 120.0
            },
            {
                "start_time": 9.220454545454546,
                "end_time": 9.386363636363637,
                "pitch": 71,
                "velocity": 40,
                "duration": 0.165909090909091,
                "tempo": 120.0
            },
            {
                "start_time": 9.420454545454545,
                "end_time": 9.588636363636363,
                "pitch": 71,
                "velocity": 40,
                "duration": 0.168181818181818,
                "tempo": 120.0
            },
            {
                "start_time": 9.622727272727273,
                "end_time": 10.797727272727272,
                "pitch": 0,
                "velocity": 40,
                "duration": 1.174999999999999,
                "tempo": 120.0
            },
            {
                "start_time": 10.829545454545453,
                "end_time": 10.993181818181817,
                "pitch": 71,
                "velocity": 40,
                "duration": 0.16363636363636402,
                "tempo": 120.0
            },
            {
                "start_time": 11.024999999999999,
                "end_time": 12.361363636363636,
                "pitch": 69,
                "velocity": 40,
                "duration": 1.3363636363636378,
                "tempo": 120.0
            },
            {
                "start_time": 12.395454545454545,
                "end_time": 12.763636363636364,
                "pitch": 69,
                "velocity": 40,
                "duration": 0.36818181818181905,
                "tempo": 120.0
            },
            {
                "start_time": 12.797727272727272,
                "end_time": 12.96590909090909,
                "pitch": 71,
                "velocity": 40,
                "duration": 0.168181818181818,
                "tempo": 120.0
            },
            {
                "start_time": 13.0,
                "end_time": 13.168181818181818,
                "pitch": 71,
                "velocity": 40,
                "duration": 0.168181818181818,
                "tempo": 120.0
            },
            {
                "start_time": 13.2,
                "end_time": 13.972727272727273,
                "pitch": 0,
                "velocity": 40,
                "duration": 0.7727272727272734,
                "tempo": 120.0
            },
            {
                "start_time": 14.006818181818181,
                "end_time": 14.172727272727272,
                "pitch": 71,
                "velocity": 40,
                "duration": 0.165909090909091,
                "tempo": 120.0
            },
            {
                "start_time": 14.206818181818182,
                "end_time": 14.372727272727271,
                "pitch": 71,
                "velocity": 40,
                "duration": 0.16590909090908923,
                "tempo": 120.0
            },
            {
                "start_time": 14.406818181818181,
                "end_time": 15.58181818181818,
                "pitch": 0,
                "velocity": 40,
                "duration": 1.174999999999999,
                "tempo": 120.0
            },
            {
                "start_time": 15.613636363636363,
                "end_time": 15.781818181818181,
                "pitch": 71,
                "velocity": 40,
                "duration": 0.168181818181818,
                "tempo": 120.0
            },
            {
                "start_time": 15.81590909090909,
                "end_time": 15.984090909090908,
                "pitch": 71,
                "velocity": 40,
                "duration": 0.168181818181818,
                "tempo": 120.0
            },
            {
                "start_time": 16.01590909090909,
                "end_time": 17.186363636363634,
                "pitch": 0,
                "velocity": 40,
                "duration": 1.1704545454545432,
                "tempo": 120.0
            },
            {
                "start_time": 17.220454545454544,
                "end_time": 17.386363636363637,
                "pitch": 71,
                "velocity": 40,
                "duration": 0.16590909090909278,
                "tempo": 120.0
            },
            {
                "start_time": 17.420454545454543,
                "end_time": 17.586363636363636,
                "pitch": 69,
                "velocity": 40,
                "duration": 0.16590909090909278,
                "tempo": 120.0
            },
            {
                "start_time": 17.620454545454546,
                "end_time": 17.788636363636364,
                "pitch": 0,
                "velocity": 40,
                "duration": 0.168181818181818,
                "tempo": 120.0
            },
            {
                "start_time": 17.820454545454545,
                "end_time": 17.988636363636363,
                "pitch": 69,
                "velocity": 40,
                "duration": 0.168181818181818,
                "tempo": 120.0
            },
            {
                "start_time": 18.022727272727273,
                "end_time": 18.188636363636363,
                "pitch": 0,
                "velocity": 40,
                "duration": 0.16590909090908923,
                "tempo": 120.0
            },
            {
                "start_time": 18.222727272727273,
                "end_time": 18.388636363636362,
                "pitch": 69,
                "velocity": 40,
                "duration": 0.16590909090908923,
                "tempo": 120.0
            },
            {
                "start_time": 18.422727272727272,
                "end_time": 18.59090909090909,
                "pitch": 0,
                "velocity": 40,
                "duration": 0.168181818181818,
                "tempo": 120.0
            },
            {
                "start_time": 18.62272727272727,
                "end_time": 18.79090909090909,
                "pitch": 69,
                "velocity": 40,
                "duration": 0.168181818181818,
                "tempo": 120.0
            },
            {
                "start_time": 18.825,
                "end_time": 18.99090909090909,
                "pitch": 67,
                "velocity": 40,
                "duration": 0.16590909090908923,
                "tempo": 120.0
            },
            {
                "start_time": 19.025,
                "end_time": 19.19090909090909,
                "pitch": 0,
                "velocity": 40,
                "duration": 0.16590909090909278,
                "tempo": 120.0
            },
            {
                "start_time": 19.224999999999998,
                "end_time": 19.39090909090909,
                "pitch": 71,
                "velocity": 40,
                "duration": 0.16590909090909278,
                "tempo": 120.0
            },
            {
                "start_time": 19.425,
                "end_time": 19.59090909090909,
                "pitch": 71,
                "velocity": 40,
                "duration": 0.16590909090908923,
                "tempo": 120.0
            },
            {
                "start_time": 19.625,
                "end_time": 20.393181818181816,
                "pitch": 0,
                "velocity": 40,
                "duration": 0.7681818181818159,
                "tempo": 120.0
            },
            {
                "start_time": 20.427272727272726,
                "end_time": 20.595454545454544,
                "pitch": 71,
                "velocity": 40,
                "duration": 0.168181818181818,
                "tempo": 120.0
            },
            {
                "start_time": 20.629545454545454,
                "end_time": 20.797727272727272,
                "pitch": 71,
                "velocity": 40,
                "duration": 0.168181818181818,
                "tempo": 120.0
            },
            {
                "start_time": 20.829545454545453,
                "end_time": 22.0,
                "pitch": 0,
                "velocity": 40,
                "duration": 1.1704545454545467,
                "tempo": 120.0
            },
            {
                "start_time": 22.03181818181818,
                "end_time": 22.2,
                "pitch": 71,
                "velocity": 40,
                "duration": 0.168181818181818,
                "tempo": 120.0
            },
            {
                "start_time": 22.23181818181818,
                "end_time": 22.4,
                "pitch": 71,
                "velocity": 40,
                "duration": 0.168181818181818,
                "tempo": 120.0
            },
            {
                "start_time": 22.43409090909091,
                "end_time": 23.602272727272727,
                "pitch": 0,
                "velocity": 40,
                "duration": 1.168181818181818,
                "tempo": 120.0
            },
            {
                "start_time": 23.636363636363637,
                "end_time": 23.804545454545455,
                "pitch": 71,
                "velocity": 40,
                "duration": 0.168181818181818,
                "tempo": 120.0
            },
            {
                "start_time": 23.836363636363636,
                "end_time": 24.004545454545454,
                "pitch": 69,
                "velocity": 40,
                "duration": 0.168181818181818,
                "tempo": 120.0
            },
            {
                "start_time": 24.038636363636364,
                "end_time": 27.21363636363636,
                "pitch": 0,
                "velocity": 40,
                "duration": 3.174999999999997,
                "tempo": 120.0
            },
            {
                "start_time": 27.245454545454542,
                "end_time": 27.413636363636364,
                "pitch": 69,
                "velocity": 40,
                "duration": 0.16818181818182154,
                "tempo": 120.0
            },
            {
                "start_time": 27.445454545454545,
                "end_time": 27.613636363636363,
                "pitch": 69,
                "velocity": 40,
                "duration": 0.168181818181818,
                "tempo": 120.0
            },
            {
                "start_time": 27.64772727272727,
                "end_time": 28.41590909090909,
                "pitch": 0,
                "velocity": 40,
                "duration": 0.7681818181818194,
                "tempo": 120.0
            },
            {
                "start_time": 28.45,
                "end_time": 28.618181818181817,
                "pitch": 69,
                "velocity": 40,
                "duration": 0.168181818181818,
                "tempo": 120.0
            },
            {
                "start_time": 28.65,
                "end_time": 28.818181818181817,
                "pitch": 69,
                "velocity": 40,
                "duration": 0.168181818181818,
                "tempo": 120.0
            },
            {
                "start_time": 28.852272727272727,
                "end_time": 29.618181818181817,
                "pitch": 0,
                "velocity": 40,
                "duration": 0.7659090909090907,
                "tempo": 120.0
            },
            {
                "start_time": 29.652272727272727,
                "end_time": 29.820454545454545,
                "pitch": 69,
                "velocity": 40,
                "duration": 0.168181818181818,
                "tempo": 120.0
            },
            {
                "start_time": 29.852272727272727,
                "end_time": 30.020454545454545,
                "pitch": 69,
                "velocity": 40,
                "duration": 0.168181818181818,
                "tempo": 120.0
            },
            {
                "start_time": 30.054545454545455,
                "end_time": 30.420454545454543,
                "pitch": 0,
                "velocity": 40,
                "duration": 0.3659090909090885,
                "tempo": 120.0
            },
            {
                "start_time": 30.454545454545453,
                "end_time": 30.62272727272727,
                "pitch": 69,
                "velocity": 40,
                "duration": 0.168181818181818,
                "tempo": 120.0
            },
            {
                "start_time": 30.65681818181818,
                "end_time": 30.82272727272727,
                "pitch": 69,
                "velocity": 40,
                "duration": 0.16590909090908923,
                "tempo": 120.0
            },
            {
                "start_time": 30.85681818181818,
                "end_time": 31.62272727272727,
                "pitch": 0,
                "velocity": 40,
                "duration": 0.7659090909090907,
                "tempo": 120.0
            },
            {
                "start_time": 31.65681818181818,
                "end_time": 31.825,
                "pitch": 69,
                "velocity": 40,
                "duration": 0.168181818181818,
                "tempo": 120.0
            },
            {
                "start_time": 31.859090909090906,
                "end_time": 32.027272727272724,
                "pitch": 69,
                "velocity": 40,
                "duration": 0.168181818181818,
                "tempo": 120.0
            },
            {
                "start_time": 32.059090909090905,
                "end_time": 32.82954545454545,
                "pitch": 0,
                "velocity": 40,
                "duration": 0.7704545454545482,
                "tempo": 120.0
            },
            {
                "start_time": 32.861363636363635,
                "end_time": 33.029545454545456,
                "pitch": 69,
                "velocity": 40,
                "duration": 0.16818181818182154,
                "tempo": 120.0
            },
            {
                "start_time": 33.06136363636364,
                "end_time": 33.22954545454545,
                "pitch": 69,
                "velocity": 40,
                "duration": 0.16818181818181444,
                "tempo": 120.0
            },
            {
                "start_time": 33.26136363636363,
                "end_time": 33.62954545454545,
                "pitch": 0,
                "velocity": 40,
                "duration": 0.3681818181818173,
                "tempo": 120.0
            },
            {
                "start_time": 33.66136363636363,
                "end_time": 33.82954545454545,
                "pitch": 71,
                "velocity": 40,
                "duration": 0.16818181818182154,
                "tempo": 120.0
            },
            {
                "start_time": 33.861363636363635,
                "end_time": 34.029545454545456,
                "pitch": 71,
                "velocity": 40,
                "duration": 0.16818181818182154,
                "tempo": 120.0
            },
            {
                "start_time": 34.06363636363636,
                "end_time": 34.83181818181818,
                "pitch": 0,
                "velocity": 40,
                "duration": 0.7681818181818159,
                "tempo": 120.0
            },
            {
                "start_time": 34.86590909090909,
                "end_time": 35.03181818181818,
                "pitch": 71,
                "velocity": 40,
                "duration": 0.16590909090908923,
                "tempo": 120.0
            },
            {
                "start_time": 35.06590909090909,
                "end_time": 35.23181818181818,
                "pitch": 71,
                "velocity": 40,
                "duration": 0.16590909090908923,
                "tempo": 120.0
            },
            {
                "start_time": 35.26590909090909,
                "end_time": 36.03181818181818,
                "pitch": 0,
                "velocity": 40,
                "duration": 0.7659090909090907,
                "tempo": 120.0
            },
            {
                "start_time": 36.06590909090909,
                "end_time": 36.23409090909091,
                "pitch": 71,
                "velocity": 40,
                "duration": 0.16818181818182154,
                "tempo": 120.0
            },
            {
                "start_time": 36.26590909090909,
                "end_time": 36.434090909090905,
                "pitch": 71,
                "velocity": 40,
                "duration": 0.16818181818181444,
                "tempo": 120.0
            },
            {
                "start_time": 36.46818181818182,
                "end_time": 36.83409090909091,
                "pitch": 0,
                "velocity": 40,
                "duration": 0.36590909090909207,
                "tempo": 120.0
            },
            {
                "start_time": 36.86818181818182,
                "end_time": 37.03409090909091,
                "pitch": 67,
                "velocity": 40,
                "duration": 0.16590909090908923,
                "tempo": 120.0
            },
            {
                "start_time": 37.06818181818181,
                "end_time": 37.23409090909091,
                "pitch": 67,
                "velocity": 40,
                "duration": 0.16590909090909634,
                "tempo": 120.0
            },
            {
                "start_time": 37.268181818181816,
                "end_time": 38.03409090909091,
                "pitch": 0,
                "velocity": 40,
                "duration": 0.7659090909090907,
                "tempo": 120.0
            },
            {
                "start_time": 38.06818181818181,
                "end_time": 38.236363636363635,
                "pitch": 67,
                "velocity": 40,
                "duration": 0.16818181818182154,
                "tempo": 120.0
            },
            {
                "start_time": 38.27045454545454,
                "end_time": 38.43636363636364,
                "pitch": 67,
                "velocity": 40,
                "duration": 0.16590909090909634,
                "tempo": 120.0
            },
            {
                "start_time": 38.470454545454544,
                "end_time": 39.236363636363635,
                "pitch": 0,
                "velocity": 40,
                "duration": 0.7659090909090907,
                "tempo": 120.0
            },
            {
                "start_time": 39.27045454545454,
                "end_time": 39.44318181818181,
                "pitch": 67,
                "velocity": 40,
                "duration": 0.17272727272727195,
                "tempo": 120.0
            },
            {
                "start_time": 39.47727272727273,
                "end_time": 39.64772727272727,
                "pitch": 67,
                "velocity": 40,
                "duration": 0.17045454545454675,
                "tempo": 120.0
            },
            {
                "start_time": 39.679545454545455,
                "end_time": 40.04090909090909,
                "pitch": 0,
                "velocity": 40,
                "duration": 0.36136363636363455,
                "tempo": 120.0
            },
            {
                "start_time": 40.07272727272727,
                "end_time": 40.24090909090909,
                "pitch": 69,
                "velocity": 40,
                "duration": 0.16818181818182154,
                "tempo": 120.0
            },
            {
                "start_time": 40.275,
                "end_time": 40.44318181818181,
                "pitch": 69,
                "velocity": 40,
                "duration": 0.16818181818181444,
                "tempo": 120.0
            },
            {
                "start_time": 40.475,
                "end_time": 41.24318181818182,
                "pitch": 0,
                "velocity": 40,
                "duration": 0.7681818181818159,
                "tempo": 120.0
            },
            {
                "start_time": 41.275,
                "end_time": 41.44318181818181,
                "pitch": 69,
                "velocity": 40,
                "duration": 0.16818181818181444,
                "tempo": 120.0
            },
            {
                "start_time": 41.475,
                "end_time": 41.643181818181816,
                "pitch": 69,
                "velocity": 40,
                "duration": 0.16818181818181444,
                "tempo": 120.0
            },
            {
                "start_time": 41.675,
                "end_time": 42.445454545454545,
                "pitch": 0,
                "velocity": 40,
                "duration": 0.7704545454545482,
                "tempo": 120.0
            },
            {
                "start_time": 42.47954545454545,
                "end_time": 42.64545454545454,
                "pitch": 69,
                "velocity": 40,
                "duration": 0.16590909090908923,
                "tempo": 120.0
            },
            {
                "start_time": 42.679545454545455,
                "end_time": 42.845454545454544,
                "pitch": 69,
                "velocity": 40,
                "duration": 0.16590909090908923,
                "tempo": 120.0
            },
            {
                "start_time": 42.87954545454545,
                "end_time": 43.24545454545454,
                "pitch": 0,
                "velocity": 40,
                "duration": 0.36590909090909207,
                "tempo": 120.0
            },
            {
                "start_time": 43.27954545454545,
                "end_time": 43.445454545454545,
                "pitch": 67,
                "velocity": 40,
                "duration": 0.16590909090909634,
                "tempo": 120.0
            },
            {
                "start_time": 43.47954545454545,
                "end_time": 43.64545454545454,
                "pitch": 67,
                "velocity": 40,
                "duration": 0.16590909090908923,
                "tempo": 120.0
            },
            {
                "start_time": 43.679545454545455,
                "end_time": 44.44772727272727,
                "pitch": 0,
                "velocity": 40,
                "duration": 0.7681818181818159,
                "tempo": 120.0
            },
            {
                "start_time": 44.48181818181818,
                "end_time": 44.64772727272727,
                "pitch": 67,
                "velocity": 40,
                "duration": 0.16590909090909634,
                "tempo": 120.0
            },
            {
                "start_time": 44.68181818181818,
                "end_time": 44.84772727272727,
                "pitch": 67,
                "velocity": 40,
                "duration": 0.16590909090908923,
                "tempo": 120.0
            },
            {
                "start_time": 44.88181818181818,
                "end_time": 45.64772727272727,
                "pitch": 0,
                "velocity": 40,
                "duration": 0.7659090909090907,
                "tempo": 120.0
            },
            {
                "start_time": 45.68181818181818,
                "end_time": 45.84772727272727,
                "pitch": 67,
                "velocity": 40,
                "duration": 0.16590909090908923,
                "tempo": 120.0
            },
            {
                "start_time": 45.88181818181818,
                "end_time": 46.04772727272727,
                "pitch": 67,
                "velocity": 40,
                "duration": 0.16590909090908923,
                "tempo": 120.0
            },
            {
                "start_time": 46.08181818181818,
                "end_time": 46.449999999999996,
                "pitch": 0,
                "velocity": 40,
                "duration": 0.3681818181818173,
                "tempo": 120.0
            },
            {
                "start_time": 46.48409090909091,
                "end_time": 46.65,
                "pitch": 66,
                "velocity": 40,
                "duration": 0.16590909090908923,
                "tempo": 120.0
            },
            {
                "start_time": 46.684090909090905,
                "end_time": 46.849999999999994,
                "pitch": 66,
                "velocity": 40,
                "duration": 0.16590909090908923,
                "tempo": 120.0
            },
            {
                "start_time": 46.88409090909091,
                "end_time": 47.65,
                "pitch": 0,
                "velocity": 40,
                "duration": 0.7659090909090907,
                "tempo": 120.0
            },
            {
                "start_time": 47.684090909090905,
                "end_time": 47.849999999999994,
                "pitch": 66,
                "velocity": 40,
                "duration": 0.16590909090908923,
                "tempo": 120.0
            },
            {
                "start_time": 47.88409090909091,
                "end_time": 48.05,
                "pitch": 66,
                "velocity": 40,
                "duration": 0.16590909090908923,
                "tempo": 120.0
            },
            {
                "start_time": 48.084090909090904,
                "end_time": 48.85227272727273,
                "pitch": 0,
                "velocity": 40,
                "duration": 0.768181818181823,
                "tempo": 120.0
            },
            {
                "start_time": 48.88636363636363,
                "end_time": 49.05227272727272,
                "pitch": 66,
                "velocity": 40,
                "duration": 0.16590909090908923,
                "tempo": 120.0
            },
            {
                "start_time": 49.086363636363636,
                "end_time": 49.252272727272725,
                "pitch": 66,
                "velocity": 40,
                "duration": 0.16590909090908923,
                "tempo": 120.0
            },
            {
                "start_time": 49.28636363636363,
                "end_time": 49.652272727272724,
                "pitch": 0,
                "velocity": 40,
                "duration": 0.36590909090909207,
                "tempo": 120.0
            },
            {
                "start_time": 49.68636363636364,
                "end_time": 49.85227272727273,
                "pitch": 69,
                "velocity": 40,
                "duration": 0.16590909090908923,
                "tempo": 120.0
            },
            {
                "start_time": 49.88636363636363,
                "end_time": 50.054545454545455,
                "pitch": 69,
                "velocity": 40,
                "duration": 0.16818181818182154,
                "tempo": 120.0
            },
            {
                "start_time": 50.086363636363636,
                "end_time": 50.85681818181818,
                "pitch": 0,
                "velocity": 40,
                "duration": 0.7704545454545411,
                "tempo": 120.0
            },
            {
                "start_time": 50.88863636363636,
                "end_time": 51.05681818181818,
                "pitch": 69,
                "velocity": 40,
                "duration": 0.16818181818182154,
                "tempo": 120.0
            },
            {
                "start_time": 51.08863636363636,
                "end_time": 52.465909090909086,
                "pitch": 69,
                "velocity": 40,
                "duration": 1.3772727272727252,
                "tempo": 120.0
            },
            {
                "start_time": 52.5,
                "end_time": 52.85909090909091,
                "pitch": 0,
                "velocity": 40,
                "duration": 0.35909090909090935,
                "tempo": 120.0
            },
            {
                "start_time": 52.893181818181816,
                "end_time": 53.059090909090905,
                "pitch": 69,
                "velocity": 40,
                "duration": 0.16590909090908923,
                "tempo": 120.0
            },
            {
                "start_time": 53.09318181818182,
                "end_time": 53.25909090909091,
                "pitch": 69,
                "velocity": 40,
                "duration": 0.16590909090908923,
                "tempo": 120.0
            },
            {
                "start_time": 53.293181818181814,
                "end_time": 54.059090909090905,
                "pitch": 0,
                "velocity": 40,
                "duration": 0.7659090909090907,
                "tempo": 120.0
            },
            {
                "start_time": 54.09318181818182,
                "end_time": 54.26136363636363,
                "pitch": 69,
                "velocity": 40,
                "duration": 0.16818181818181444,
                "tempo": 120.0
            },
            {
                "start_time": 54.293181818181814,
                "end_time": 54.461363636363636,
                "pitch": 69,
                "velocity": 40,
                "duration": 0.16818181818182154,
                "tempo": 120.0
            },
            {
                "start_time": 54.49545454545454,
                "end_time": 55.26136363636363,
                "pitch": 0,
                "velocity": 40,
                "duration": 0.7659090909090907,
                "tempo": 120.0
            },
            {
                "start_time": 55.29545454545454,
                "end_time": 55.461363636363636,
                "pitch": 69,
                "velocity": 40,
                "duration": 0.16590909090909634,
                "tempo": 120.0
            },
            {
                "start_time": 55.49545454545454,
                "end_time": 55.66136363636363,
                "pitch": 69,
                "velocity": 40,
                "duration": 0.16590909090908923,
                "tempo": 120.0
            },
            {
                "start_time": 55.695454545454545,
                "end_time": 56.06136363636363,
                "pitch": 0,
                "velocity": 40,
                "duration": 0.36590909090908497,
                "tempo": 120.0
            },
            {
                "start_time": 56.095454545454544,
                "end_time": 56.26363636363636,
                "pitch": 69,
                "velocity": 40,
                "duration": 0.16818181818181444,
                "tempo": 120.0
            },
            {
                "start_time": 56.29772727272727,
                "end_time": 56.46363636363636,
                "pitch": 69,
                "velocity": 40,
                "duration": 0.16590909090908923,
                "tempo": 120.0
            },
            {
                "start_time": 56.49772727272727,
                "end_time": 57.26363636363636,
                "pitch": 0,
                "velocity": 40,
                "duration": 0.7659090909090907,
                "tempo": 120.0
            },
            {
                "start_time": 57.29772727272727,
                "end_time": 57.46363636363636,
                "pitch": 69,
                "velocity": 40,
                "duration": 0.16590909090908923,
                "tempo": 120.0
            },
            {
                "start_time": 57.49772727272727,
                "end_time": 57.663636363636364,
                "pitch": 69,
                "velocity": 40,
                "duration": 0.16590909090909634,
                "tempo": 120.0
            },
            {
                "start_time": 57.69772727272727,
                "end_time": 58.465909090909086,
                "pitch": 0,
                "velocity": 40,
                "duration": 0.7681818181818159,
                "tempo": 120.0
            },
            {
                "start_time": 58.5,
                "end_time": 58.66590909090909,
                "pitch": 69,
                "velocity": 40,
                "duration": 0.16590909090908923,
                "tempo": 120.0
            },
            {
                "start_time": 58.699999999999996,
                "end_time": 58.865909090909085,
                "pitch": 69,
                "velocity": 40,
                "duration": 0.16590909090908923,
                "tempo": 120.0
            },
            {
                "start_time": 58.9,
                "end_time": 59.26590909090909,
                "pitch": 0,
                "velocity": 40,
                "duration": 0.36590909090909207,
                "tempo": 120.0
            },
            {
                "start_time": 59.3,
                "end_time": 59.465909090909086,
                "pitch": 71,
                "velocity": 40,
                "duration": 0.16590909090908923,
                "tempo": 120.0
            },
            {
                "start_time": 59.5,
                "end_time": 59.66590909090909,
                "pitch": 71,
                "velocity": 40,
                "duration": 0.16590909090908923,
                "tempo": 120.0
            },
            {
                "start_time": 59.699999999999996,
                "end_time": 60.470454545454544,
                "pitch": 0,
                "velocity": 40,
                "duration": 0.7704545454545482,
                "tempo": 120.0
            },
            {
                "start_time": 60.502272727272725,
                "end_time": 60.67045454545454,
                "pitch": 71,
                "velocity": 40,
                "duration": 0.16818181818181444,
                "tempo": 120.0
            },
            {
                "start_time": 60.70227272727272,
                "end_time": 60.87045454545454,
                "pitch": 71,
                "velocity": 40,
                "duration": 0.16818181818182154,
                "tempo": 120.0
            },
            {
                "start_time": 60.902272727272724,
                "end_time": 61.67045454545454,
                "pitch": 0,
                "velocity": 40,
                "duration": 0.7681818181818159,
                "tempo": 120.0
            },
            {
                "start_time": 61.70227272727272,
                "end_time": 61.87045454545454,
                "pitch": 71,
                "velocity": 40,
                "duration": 0.16818181818182154,
                "tempo": 120.0
            },
            {
                "start_time": 61.902272727272724,
                "end_time": 62.070454545454545,
                "pitch": 71,
                "velocity": 40,
                "duration": 0.16818181818182154,
                "tempo": 120.0
            },
            {
                "start_time": 62.10227272727273,
                "end_time": 62.47272727272727,
                "pitch": 0,
                "velocity": 40,
                "duration": 0.3704545454545425,
                "tempo": 120.0
            },
            {
                "start_time": 62.50454545454545,
                "end_time": 62.67272727272727,
                "pitch": 67,
                "velocity": 40,
                "duration": 0.16818181818182154,
                "tempo": 120.0
            },
            {
                "start_time": 62.70454545454545,
                "end_time": 62.87272727272727,
                "pitch": 67,
                "velocity": 40,
                "duration": 0.16818181818181444,
                "tempo": 120.0
            },
            {
                "start_time": 62.90454545454545,
                "end_time": 63.67272727272727,
                "pitch": 0,
                "velocity": 40,
                "duration": 0.768181818181823,
                "tempo": 120.0
            },
            {
                "start_time": 63.70454545454545,
                "end_time": 63.87272727272727,
                "pitch": 67,
                "velocity": 40,
                "duration": 0.16818181818181444,
                "tempo": 120.0
            },
            {
                "start_time": 63.90454545454545,
                "end_time": 64.07272727272726,
                "pitch": 67,
                "velocity": 40,
                "duration": 0.16818181818181444,
                "tempo": 120.0
            },
            {
                "start_time": 64.10681818181818,
                "end_time": 64.875,
                "pitch": 0,
                "velocity": 40,
                "duration": 0.7681818181818159,
                "tempo": 120.0
            },
            {
                "start_time": 64.9090909090909,
                "end_time": 65.07954545454545,
                "pitch": 67,
                "velocity": 40,
                "duration": 0.17045454545454675,
                "tempo": 120.0
            },
            {
                "start_time": 65.11590909090908,
                "end_time": 65.28636363636363,
                "pitch": 67,
                "velocity": 40,
                "duration": 0.17045454545454675,
                "tempo": 120.0
            },
            {
                "start_time": 65.31818181818181,
                "end_time": 65.67727272727272,
                "pitch": 0,
                "velocity": 40,
                "duration": 0.35909090909090935,
                "tempo": 120.0
            },
            {
                "start_time": 65.71136363636363,
                "end_time": 65.87727272727273,
                "pitch": 69,
                "velocity": 40,
                "duration": 0.16590909090909634,
                "tempo": 120.0
            },
            {
                "start_time": 65.91136363636363,
                "end_time": 66.07727272727273,
                "pitch": 69,
                "velocity": 40,
                "duration": 0.16590909090909634,
                "tempo": 120.0
            },
            {
                "start_time": 66.11136363636363,
                "end_time": 66.87954545454545,
                "pitch": 0,
                "velocity": 40,
                "duration": 0.7681818181818159,
                "tempo": 120.0
            },
            {
                "start_time": 66.91363636363636,
                "end_time": 67.08181818181818,
                "pitch": 69,
                "velocity": 40,
                "duration": 0.16818181818182154,
                "tempo": 120.0
            },
            {
                "start_time": 67.11590909090908,
                "end_time": 67.2840909090909,
                "pitch": 69,
                "velocity": 40,
                "duration": 0.16818181818182154,
                "tempo": 120.0
            },
            {
                "start_time": 67.31590909090909,
                "end_time": 68.08636363636363,
                "pitch": 0,
                "velocity": 40,
                "duration": 0.7704545454545411,
                "tempo": 120.0
            },
            {
                "start_time": 68.12045454545454,
                "end_time": 68.28636363636363,
                "pitch": 69,
                "velocity": 40,
                "duration": 0.16590909090909634,
                "tempo": 120.0
            },
            {
                "start_time": 68.32045454545454,
                "end_time": 68.48863636363636,
                "pitch": 69,
                "velocity": 40,
                "duration": 0.16818181818182154,
                "tempo": 120.0
            },
            {
                "start_time": 68.52272727272727,
                "end_time": 68.88863636363637,
                "pitch": 0,
                "velocity": 40,
                "duration": 0.3659090909090992,
                "tempo": 120.0
            },
            {
                "start_time": 68.92272727272727,
                "end_time": 69.0909090909091,
                "pitch": 67,
                "velocity": 40,
                "duration": 0.16818181818182154,
                "tempo": 120.0
            },
            {
                "start_time": 69.12272727272727,
                "end_time": 69.29090909090908,
                "pitch": 67,
                "velocity": 40,
                "duration": 0.16818181818180733,
                "tempo": 120.0
            },
            {
                "start_time": 69.325,
                "end_time": 70.09318181818182,
                "pitch": 0,
                "velocity": 40,
                "duration": 0.7681818181818159,
                "tempo": 120.0
            },
            {
                "start_time": 70.12727272727273,
                "end_time": 70.29545454545455,
                "pitch": 67,
                "velocity": 40,
                "duration": 0.16818181818182154,
                "tempo": 120.0
            },
            {
                "start_time": 70.32954545454545,
                "end_time": 70.49772727272727,
                "pitch": 67,
                "velocity": 40,
                "duration": 0.16818181818182154,
                "tempo": 120.0
            },
            {
                "start_time": 70.52954545454546,
                "end_time": 71.3,
                "pitch": 0,
                "velocity": 40,
                "duration": 0.7704545454545411,
                "tempo": 120.0
            },
            {
                "start_time": 71.3340909090909,
                "end_time": 71.5,
                "pitch": 67,
                "velocity": 40,
                "duration": 0.16590909090909634,
                "tempo": 120.0
            },
            {
                "start_time": 71.5340909090909,
                "end_time": 71.70227272727273,
                "pitch": 67,
                "velocity": 40,
                "duration": 0.16818181818182154,
                "tempo": 120.0
            },
            {
                "start_time": 71.73636363636363,
                "end_time": 72.10227272727272,
                "pitch": 0,
                "velocity": 40,
                "duration": 0.36590909090908497,
                "tempo": 120.0
            },
            {
                "start_time": 72.13636363636363,
                "end_time": 72.30454545454545,
                "pitch": 66,
                "velocity": 40,
                "duration": 0.16818181818182154,
                "tempo": 120.0
            },
            {
                "start_time": 72.33636363636363,
                "end_time": 72.50454545454545,
                "pitch": 66,
                "velocity": 40,
                "duration": 0.16818181818182154,
                "tempo": 120.0
            },
            {
                "start_time": 72.53863636363636,
                "end_time": 73.30681818181817,
                "pitch": 0,
                "velocity": 40,
                "duration": 0.7681818181818159,
                "tempo": 120.0
            },
            {
                "start_time": 73.3409090909091,
                "end_time": 73.5090909090909,
                "pitch": 66,
                "velocity": 40,
                "duration": 0.16818181818180733,
                "tempo": 120.0
            },
            {
                "start_time": 73.54318181818182,
                "end_time": 73.7090909090909,
                "pitch": 66,
                "velocity": 40,
                "duration": 0.16590909090908212,
                "tempo": 120.0
            },
            {
                "start_time": 73.74318181818181,
                "end_time": 74.51363636363637,
                "pitch": 0,
                "velocity": 40,
                "duration": 0.7704545454545553,
                "tempo": 120.0
            },
            {
                "start_time": 74.54545454545455,
                "end_time": 74.71363636363635,
                "pitch": 66,
                "velocity": 40,
                "duration": 0.16818181818180733,
                "tempo": 120.0
            },
            {
                "start_time": 74.74545454545454,
                "end_time": 74.91363636363636,
                "pitch": 66,
                "velocity": 40,
                "duration": 0.16818181818182154,
                "tempo": 120.0
            },
            {
                "start_time": 74.94545454545454,
                "end_time": 75.31590909090909,
                "pitch": 0,
                "velocity": 40,
                "duration": 0.3704545454545496,
                "tempo": 120.0
            },
            {
                "start_time": 75.35,
                "end_time": 75.51590909090909,
                "pitch": 69,
                "velocity": 40,
                "duration": 0.16590909090909634,
                "tempo": 120.0
            },
            {
                "start_time": 75.55,
                "end_time": 75.71818181818182,
                "pitch": 69,
                "velocity": 40,
                "duration": 0.16818181818182154,
                "tempo": 120.0
            },
            {
                "start_time": 75.75227272727273,
                "end_time": 76.52045454545454,
                "pitch": 0,
                "velocity": 40,
                "duration": 0.7681818181818159,
                "tempo": 120.0
            },
            {
                "start_time": 76.55454545454545,
                "end_time": 76.72045454545454,
                "pitch": 69,
                "velocity": 40,
                "duration": 0.16590909090909634,
                "tempo": 120.0
            },
            {
                "start_time": 76.75454545454545,
                "end_time": 78.13636363636363,
                "pitch": 69,
                "velocity": 40,
                "duration": 1.3818181818181756,
                "tempo": 120.0
            },
            {
                "start_time": 78.16818181818181,
                "end_time": 78.52954545454546,
                "pitch": 0,
                "velocity": 40,
                "duration": 0.36136363636364877,
                "tempo": 120.0
            },
            {
                "start_time": 78.56136363636364,
                "end_time": 78.72954545454544,
                "pitch": 0,
                "velocity": 40,
                "duration": 0.16818181818180733,
                "tempo": 120.0
            },
            {
                "start_time": 78.76136363636363,
                "end_time": 78.92954545454545,
                "pitch": 72,
                "velocity": 40,
                "duration": 0.16818181818182154,
                "tempo": 120.0
            },
            {
                "start_time": 78.96363636363635,
                "end_time": 79.33181818181818,
                "pitch": 0,
                "velocity": 40,
                "duration": 0.3681818181818244,
                "tempo": 120.0
            },
            {
                "start_time": 79.36590909090908,
                "end_time": 79.5340909090909,
                "pitch": 72,
                "velocity": 40,
                "duration": 0.16818181818182154,
                "tempo": 120.0
            },
            {
                "start_time": 79.56590909090909,
                "end_time": 80.1340909090909,
                "pitch": 0,
                "velocity": 40,
                "duration": 0.568181818181813,
                "tempo": 120.0
            },
            {
                "start_time": 80.16818181818181,
                "end_time": 80.33636363636363,
                "pitch": 72,
                "velocity": 40,
                "duration": 0.16818181818182154,
                "tempo": 120.0
            },
            {
                "start_time": 80.37045454545454,
                "end_time": 80.73636363636363,
                "pitch": 0,
                "velocity": 40,
                "duration": 0.3659090909090992,
                "tempo": 120.0
            },
            {
                "start_time": 80.77045454545454,
                "end_time": 80.93636363636364,
                "pitch": 72,
                "velocity": 40,
                "duration": 0.16590909090909634,
                "tempo": 120.0
            },
            {
                "start_time": 80.97045454545454,
                "end_time": 81.14318181818182,
                "pitch": 0,
                "velocity": 40,
                "duration": 0.17272727272727195,
                "tempo": 120.0
            },
            {
                "start_time": 81.17727272727272,
                "end_time": 81.74090909090908,
                "pitch": 72,
                "velocity": 40,
                "duration": 0.5636363636363626,
                "tempo": 120.0
            },
            {
                "start_time": 81.77272727272727,
                "end_time": 81.94090909090909,
                "pitch": 0,
                "velocity": 40,
                "duration": 0.16818181818182154,
                "tempo": 120.0
            },
            {
                "start_time": 81.97272727272727,
                "end_time": 82.14090909090909,
                "pitch": 71,
                "velocity": 40,
                "duration": 0.16818181818182154,
                "tempo": 120.0
            },
            {
                "start_time": 82.17272727272727,
                "end_time": 82.54318181818181,
                "pitch": 0,
                "velocity": 40,
                "duration": 0.3704545454545354,
                "tempo": 120.0
            },
            {
                "start_time": 82.575,
                "end_time": 82.74318181818181,
                "pitch": 71,
                "velocity": 40,
                "duration": 0.16818181818180733,
                "tempo": 120.0
            },
            {
                "start_time": 82.77499999999999,
                "end_time": 83.34545454545454,
                "pitch": 0,
                "velocity": 40,
                "duration": 0.5704545454545524,
                "tempo": 120.0
            },
            {
                "start_time": 83.37954545454545,
                "end_time": 83.54772727272727,
                "pitch": 71,
                "velocity": 40,
                "duration": 0.16818181818182154,
                "tempo": 120.0
            },
            {
                "start_time": 83.57954545454545,
                "end_time": 83.94772727272726,
                "pitch": 0,
                "velocity": 40,
                "duration": 0.36818181818181017,
                "tempo": 120.0
            },
            {
                "start_time": 83.98181818181818,
                "end_time": 84.75454545454545,
                "pitch": 71,
                "velocity": 40,
                "duration": 0.7727272727272663,
                "tempo": 120.0
            },
            {
                "start_time": 84.78636363636363,
                "end_time": 84.95,
                "pitch": 0,
                "velocity": 40,
                "duration": 0.16363636363637113,
                "tempo": 120.0
            },
            {
                "start_time": 84.98409090909091,
                "end_time": 85.15227272727272,
                "pitch": 0,
                "velocity": 40,
                "duration": 0.16818181818180733,
                "tempo": 120.0
            },
            {
                "start_time": 85.18636363636364,
                "end_time": 85.35454545454544,
                "pitch": 72,
                "velocity": 40,
                "duration": 0.16818181818180733,
                "tempo": 120.0
            },
            {
                "start_time": 85.38636363636363,
                "end_time": 85.75681818181818,
                "pitch": 0,
                "velocity": 40,
                "duration": 0.3704545454545496,
                "tempo": 120.0
            },
            {
                "start_time": 85.78863636363636,
                "end_time": 85.95681818181818,
                "pitch": 72,
                "velocity": 40,
                "duration": 0.16818181818182154,
                "tempo": 120.0
            },
            {
                "start_time": 85.98863636363636,
                "end_time": 86.5590909090909,
                "pitch": 0,
                "velocity": 40,
                "duration": 0.5704545454545382,
                "tempo": 120.0
            },
            {
                "start_time": 86.59318181818182,
                "end_time": 86.7590909090909,
                "pitch": 72,
                "velocity": 40,
                "duration": 0.16590909090908212,
                "tempo": 120.0
            },
            {
                "start_time": 86.79318181818181,
                "end_time": 87.16136363636363,
                "pitch": 0,
                "velocity": 40,
                "duration": 0.3681818181818244,
                "tempo": 120.0
            },
            {
                "start_time": 87.19318181818181,
                "end_time": 87.36136363636363,
                "pitch": 72,
                "velocity": 40,
                "duration": 0.16818181818182154,
                "tempo": 120.0
            },
            {
                "start_time": 87.39545454545454,
                "end_time": 87.56818181818181,
                "pitch": 0,
                "velocity": 40,
                "duration": 0.17272727272727195,
                "tempo": 120.0
            },
            {
                "start_time": 87.60227272727272,
                "end_time": 88.16363636363636,
                "pitch": 72,
                "velocity": 40,
                "duration": 0.5613636363636374,
                "tempo": 120.0
            },
            {
                "start_time": 88.19772727272726,
                "end_time": 88.36590909090908,
                "pitch": 0,
                "velocity": 40,
                "duration": 0.16818181818182154,
                "tempo": 120.0
            },
            {
                "start_time": 88.39999999999999,
                "end_time": 88.56818181818181,
                "pitch": 71,
                "velocity": 40,
                "duration": 0.16818181818182154,
                "tempo": 120.0
            },
            {
                "start_time": 88.6,
                "end_time": 88.96818181818182,
                "pitch": 0,
                "velocity": 40,
                "duration": 0.3681818181818244,
                "tempo": 120.0
            },
            {
                "start_time": 89.0,
                "end_time": 89.16818181818181,
                "pitch": 71,
                "velocity": 40,
                "duration": 0.16818181818180733,
                "tempo": 120.0
            },
            {
                "start_time": 89.20227272727273,
                "end_time": 89.77272727272727,
                "pitch": 0,
                "velocity": 40,
                "duration": 0.5704545454545382,
                "tempo": 120.0
            },
            {
                "start_time": 89.80681818181817,
                "end_time": 89.97272727272727,
                "pitch": 71,
                "velocity": 40,
                "duration": 0.16590909090909634,
                "tempo": 120.0
            },
            {
                "start_time": 90.00681818181818,
                "end_time": 90.77499999999999,
                "pitch": 0,
                "velocity": 40,
                "duration": 0.7681818181818159,
                "tempo": 120.0
            },
            {
                "start_time": 90.8090909090909,
                "end_time": 91.37727272727273,
                "pitch": 71,
                "velocity": 40,
                "duration": 0.5681818181818272,
                "tempo": 120.0
            },
            {
                "start_time": 91.41136363636363,
                "end_time": 91.57954545454545,
                "pitch": 0,
                "velocity": 40,
                "duration": 0.16818181818182154,
                "tempo": 120.0
            },
            {
                "start_time": 91.61363636363636,
                "end_time": 91.77954545454546,
                "pitch": 72,
                "velocity": 40,
                "duration": 0.16590909090909634,
                "tempo": 120.0
            },
            {
                "start_time": 91.81363636363636,
                "end_time": 92.18181818181817,
                "pitch": 0,
                "velocity": 40,
                "duration": 0.36818181818181017,
                "tempo": 120.0
            },
            {
                "start_time": 92.2159090909091,
                "end_time": 92.38636363636363,
                "pitch": 72,
                "velocity": 40,
                "duration": 0.17045454545453254,
                "tempo": 120.0
            },
            {
                "start_time": 92.42045454545455,
                "end_time": 92.98409090909091,
                "pitch": 0,
                "velocity": 40,
                "duration": 0.5636363636363626,
                "tempo": 120.0
            },
            {
                "start_time": 93.01818181818182,
                "end_time": 93.1840909090909,
                "pitch": 72,
                "velocity": 40,
                "duration": 0.16590909090908212,
                "tempo": 120.0
            },
            {
                "start_time": 93.21818181818182,
                "end_time": 93.58863636363635,
                "pitch": 0,
                "velocity": 40,
                "duration": 0.3704545454545354,
                "tempo": 120.0
            },
            {
                "start_time": 93.62045454545454,
                "end_time": 93.78863636363636,
                "pitch": 72,
                "velocity": 40,
                "duration": 0.16818181818182154,
                "tempo": 120.0
            },
            {
                "start_time": 93.82272727272726,
                "end_time": 93.99545454545454,
                "pitch": 0,
                "velocity": 40,
                "duration": 0.17272727272727195,
                "tempo": 120.0
            },
            {
                "start_time": 94.02954545454546,
                "end_time": 94.59090909090908,
                "pitch": 72,
                "velocity": 40,
                "duration": 0.5613636363636232,
                "tempo": 120.0
            },
            {
                "start_time": 94.625,
                "end_time": 94.79090909090908,
                "pitch": 0,
                "velocity": 40,
                "duration": 0.16590909090908212,
                "tempo": 120.0
            },
            {
                "start_time": 94.82499999999999,
                "end_time": 94.99090909090908,
                "pitch": 72,
                "velocity": 40,
                "duration": 0.16590909090909634,
                "tempo": 120.0
            },
            {
                "start_time": 95.02499999999999,
                "end_time": 95.39545454545454,
                "pitch": 0,
                "velocity": 40,
                "duration": 0.3704545454545496,
                "tempo": 120.0
            },
            {
                "start_time": 95.42954545454545,
                "end_time": 95.6,
                "pitch": 72,
                "velocity": 40,
                "duration": 0.17045454545454675,
                "tempo": 120.0
            },
            {
                "start_time": 95.6340909090909,
                "end_time": 96.19772727272726,
                "pitch": 0,
                "velocity": 40,
                "duration": 0.5636363636363626,
                "tempo": 120.0
            },
            {
                "start_time": 96.23181818181818,
                "end_time": 96.39772727272727,
                "pitch": 72,
                "velocity": 40,
                "duration": 0.16590909090908212,
                "tempo": 120.0
            },
            {
                "start_time": 96.43181818181817,
                "end_time": 96.8,
                "pitch": 0,
                "velocity": 40,
                "duration": 0.3681818181818244,
                "tempo": 120.0
            },
            {
                "start_time": 96.8340909090909,
                "end_time": 97.60681818181818,
                "pitch": 72,
                "velocity": 40,
                "duration": 0.7727272727272805,
                "tempo": 120.0
            },
            {
                "start_time": 97.63863636363637,
                "end_time": 97.80227272727272,
                "pitch": 0,
                "velocity": 40,
                "duration": 0.16363636363635692,
                "tempo": 120.0
            },
            {
                "start_time": 97.83636363636363,
                "end_time": 98.00227272727273,
                "pitch": 0,
                "velocity": 40,
                "duration": 0.16590909090909634,
                "tempo": 120.0
            },
            {
                "start_time": 98.03636363636363,
                "end_time": 98.20227272727273,
                "pitch": 72,
                "velocity": 40,
                "duration": 0.16590909090909634,
                "tempo": 120.0
            },
            {
                "start_time": 98.23636363636363,
                "end_time": 98.60681818181817,
                "pitch": 0,
                "velocity": 40,
                "duration": 0.3704545454545354,
                "tempo": 120.0
            },
            {
                "start_time": 98.64090909090909,
                "end_time": 98.81136363636364,
                "pitch": 72,
                "velocity": 40,
                "duration": 0.17045454545454675,
                "tempo": 120.0
            },
            {
                "start_time": 98.84545454545454,
                "end_time": 99.4090909090909,
                "pitch": 0,
                "velocity": 40,
                "duration": 0.5636363636363626,
                "tempo": 120.0
            },
            {
                "start_time": 99.44318181818181,
                "end_time": 99.60909090909091,
                "pitch": 72,
                "velocity": 40,
                "duration": 0.16590909090909634,
                "tempo": 120.0
            },
            {
                "start_time": 99.64318181818182,
                "end_time": 100.01136363636363,
                "pitch": 0,
                "velocity": 40,
                "duration": 0.36818181818181017,
                "tempo": 120.0
            },
            {
                "start_time": 100.04545454545455,
                "end_time": 100.21136363636363,
                "pitch": 72,
                "velocity": 40,
                "duration": 0.16590909090908212,
                "tempo": 120.0
            },
            {
                "start_time": 100.24545454545454,
                "end_time": 100.41590909090908,
                "pitch": 0,
                "velocity": 40,
                "duration": 0.17045454545454675,
                "tempo": 120.0
            },
            {
                "start_time": 100.44999999999999,
                "end_time": 101.01363636363637,
                "pitch": 72,
                "velocity": 40,
                "duration": 0.5636363636363768,
                "tempo": 120.0
            },
            {
                "start_time": 101.04772727272727,
                "end_time": 101.21590909090908,
                "pitch": 0,
                "velocity": 40,
                "duration": 0.16818181818180733,
                "tempo": 120.0
            },
            {
                "start_time": 101.25,
                "end_time": 101.41590909090908,
                "pitch": 71,
                "velocity": 40,
                "duration": 0.16590909090908212,
                "tempo": 120.0
            },
            {
                "start_time": 101.44999999999999,
                "end_time": 101.82045454545454,
                "pitch": 0,
                "velocity": 40,
                "duration": 0.3704545454545496,
                "tempo": 120.0
            },
            {
                "start_time": 101.85454545454544,
                "end_time": 102.02499999999999,
                "pitch": 71,
                "velocity": 40,
                "duration": 0.17045454545454675,
                "tempo": 120.0
            },
            {
                "start_time": 102.0590909090909,
                "end_time": 102.425,
                "pitch": 0,
                "velocity": 40,
                "duration": 0.3659090909090992,
                "tempo": 120.0
            },
            {
                "start_time": 102.4590909090909,
                "end_time": 102.62272727272727,
                "pitch": 71,
                "velocity": 40,
                "duration": 0.16363636363637113,
                "tempo": 120.0
            },
            {
                "start_time": 102.65454545454546,
                "end_time": 102.82272727272726,
                "pitch": 0,
                "velocity": 40,
                "duration": 0.16818181818180733,
                "tempo": 120.0
            },
            {
                "start_time": 102.85454545454544,
                "end_time": 103.02272727272727,
                "pitch": 71,
                "velocity": 40,
                "duration": 0.16818181818182154,
                "tempo": 120.0
            },
            {
                "start_time": 103.05681818181817,
                "end_time": 103.425,
                "pitch": 0,
                "velocity": 40,
                "duration": 0.3681818181818244,
                "tempo": 120.0
            },
            {
                "start_time": 103.4590909090909,
                "end_time": 103.69318181818181,
                "pitch": 71,
                "velocity": 40,
                "duration": 0.23409090909090935,
                "tempo": 120.0
            },
            {
                "start_time": 103.72727272727272,
                "end_time": 103.96590909090908,
                "pitch": 70,
                "velocity": 40,
                "duration": 0.23863636363635976,
                "tempo": 120.0
            },
            {
                "start_time": 104.0,
                "end_time": 105.6340909090909,
                "pitch": 69,
                "velocity": 40,
                "duration": 1.6340909090909008,
                "tempo": 120.0
            },
            {
                "start_time": 105.66818181818181,
                "end_time": 107.24090909090908,
                "pitch": 67,
                "velocity": 40,
                "duration": 1.5727272727272776,
                "tempo": 120.0
            },
            {
                "start_time": 107.27272727272727,
                "end_time": 108.84772727272727,
                "pitch": 67,
                "velocity": 40,
                "duration": 1.5750000000000028,
                "tempo": 120.0
            },
            {
                "start_time": 108.87954545454545,
                "end_time": 110.25227272727273,
                "pitch": 67,
                "velocity": 40,
                "duration": 1.3727272727272748,
                "tempo": 120.0
            },
            {
                "start_time": 110.28636363636363,
                "end_time": 110.45454545454545,
                "pitch": 67,
                "velocity": 40,
                "duration": 0.16818181818182154,
                "tempo": 120.0
            },
            {
                "start_time": 110.48636363636363,
                "end_time": 112.0590909090909,
                "pitch": 69,
                "velocity": 40,
                "duration": 1.5727272727272634,
                "tempo": 120.0
            },
            {
                "start_time": 112.09318181818182,
                "end_time": 113.66590909090908,
                "pitch": 67,
                "velocity": 40,
                "duration": 1.5727272727272634,
                "tempo": 120.0
            },
            {
                "start_time": 113.69999999999999,
                "end_time": 115.47272727272727,
                "pitch": 67,
                "velocity": 40,
                "duration": 1.7727272727272805,
                "tempo": 120.0
            },
            {
                "start_time": 115.50681818181818,
                "end_time": 115.675,
                "pitch": 0,
                "velocity": 40,
                "duration": 0.16818181818182154,
                "tempo": 120.0
            },
            {
                "start_time": 115.7090909090909,
                "end_time": 115.87727272727273,
                "pitch": 67,
                "velocity": 40,
                "duration": 0.16818181818182154,
                "tempo": 120.0
            },
            {
                "start_time": 115.91136363636363,
                "end_time": 116.08181818181818,
                "pitch": 0,
                "velocity": 40,
                "duration": 0.17045454545454675,
                "tempo": 120.0
            },
            {
                "start_time": 116.11590909090908,
                "end_time": 116.28636363636363,
                "pitch": 69,
                "velocity": 40,
                "duration": 0.17045454545454675,
                "tempo": 120.0
            },
            {
                "start_time": 116.31818181818181,
                "end_time": 116.48181818181817,
                "pitch": 0,
                "velocity": 40,
                "duration": 0.16363636363635692,
                "tempo": 120.0
            },
            {
                "start_time": 116.51590909090909,
                "end_time": 116.67954545454545,
                "pitch": 73,
                "velocity": 40,
                "duration": 0.16363636363635692,
                "tempo": 120.0
            },
            {
                "start_time": 116.71363636363635,
                "end_time": 116.8840909090909,
                "pitch": 0,
                "velocity": 40,
                "duration": 0.17045454545454675,
                "tempo": 120.0
            },
            {
                "start_time": 116.91818181818181,
                "end_time": 118.48636363636363,
                "pitch": 69,
                "velocity": 40,
                "duration": 1.5681818181818272,
                "tempo": 120.0
            },
            {
                "start_time": 118.52045454545454,
                "end_time": 120.09318181818182,
                "pitch": 67,
                "velocity": 40,
                "duration": 1.5727272727272776,
                "tempo": 120.0
            },
            {
                "start_time": 120.125,
                "end_time": 121.69999999999999,
                "pitch": 71,
                "velocity": 40,
                "duration": 1.5749999999999886,
                "tempo": 120.0
            },
            {
                "start_time": 121.73181818181817,
                "end_time": 123.30454545454545,
                "pitch": 69,
                "velocity": 40,
                "duration": 1.5727272727272776,
                "tempo": 120.0
            },
            {
                "start_time": 123.33863636363635,
                "end_time": 124.91136363636363,
                "pitch": 69,
                "velocity": 40,
                "duration": 1.5727272727272776,
                "tempo": 120.0
            },
            {
                "start_time": 124.94545454545454,
                "end_time": 126.51818181818182,
                "pitch": 67,
                "velocity": 40,
                "duration": 1.5727272727272776,
                "tempo": 120.0
            },
            {
                "start_time": 126.55227272727272,
                "end_time": 128.325,
                "pitch": 67,
                "velocity": 40,
                "duration": 1.7727272727272663,
                "tempo": 120.0
            },
            {
                "start_time": 128.3590909090909,
                "end_time": 128.52727272727273,
                "pitch": 0,
                "velocity": 40,
                "duration": 0.16818181818183575,
                "tempo": 120.0
            },
            {
                "start_time": 128.5590909090909,
                "end_time": 128.72727272727272,
                "pitch": 83,
                "velocity": 40,
                "duration": 0.16818181818180733,
                "tempo": 120.0
            },
            {
                "start_time": 128.76136363636363,
                "end_time": 128.82954545454544,
                "pitch": 0,
                "velocity": 40,
                "duration": 0.06818181818181301,
                "tempo": 120.0
            },
            {
                "start_time": 128.86363636363635,
                "end_time": 129.03636363636363,
                "pitch": 83,
                "velocity": 40,
                "duration": 0.17272727272728616,
                "tempo": 120.0
            },
            {
                "start_time": 129.07045454545454,
                "end_time": 129.13863636363635,
                "pitch": 0,
                "velocity": 40,
                "duration": 0.06818181818181301,
                "tempo": 120.0
            },
            {
                "start_time": 129.17045454545453,
                "end_time": 129.3340909090909,
                "pitch": 83,
                "velocity": 40,
                "duration": 0.16363636363635692,
                "tempo": 120.0
            },
            {
                "start_time": 129.36590909090907,
                "end_time": 129.9340909090909,
                "pitch": 0,
                "velocity": 40,
                "duration": 0.5681818181818414,
                "tempo": 120.0
            },
            {
                "start_time": 129.9659090909091,
                "end_time": 130.1340909090909,
                "pitch": 69,
                "velocity": 40,
                "duration": 0.16818181818180733,
                "tempo": 120.0
            },
            {
                "start_time": 130.1681818181818,
                "end_time": 130.33636363636364,
                "pitch": 69,
                "velocity": 40,
                "duration": 0.16818181818183575,
                "tempo": 120.0
            },
            {
                "start_time": 130.36818181818182,
                "end_time": 131.13863636363635,
                "pitch": 0,
                "velocity": 40,
                "duration": 0.7704545454545269,
                "tempo": 120.0
            },
            {
                "start_time": 131.17272727272726,
                "end_time": 131.3409090909091,
                "pitch": 69,
                "velocity": 40,
                "duration": 0.16818181818183575,
                "tempo": 120.0
            },
            {
                "start_time": 131.37272727272727,
                "end_time": 131.54090909090908,
                "pitch": 69,
                "velocity": 40,
                "duration": 0.16818181818180733,
                "tempo": 120.0
            },
            {
                "start_time": 131.575,
                "end_time": 132.34545454545454,
                "pitch": 0,
                "velocity": 40,
                "duration": 0.7704545454545553,
                "tempo": 120.0
            },
            {
                "start_time": 132.37954545454545,
                "end_time": 132.54545454545453,
                "pitch": 69,
                "velocity": 40,
                "duration": 0.16590909090908212,
                "tempo": 120.0
            },
            {
                "start_time": 132.57954545454544,
                "end_time": 132.74545454545455,
                "pitch": 69,
                "velocity": 40,
                "duration": 0.16590909090911055,
                "tempo": 120.0
            },
            {
                "start_time": 132.77954545454546,
                "end_time": 133.15,
                "pitch": 0,
                "velocity": 40,
                "duration": 0.3704545454545496,
                "tempo": 120.0
            },
            {
                "start_time": 133.1818181818182,
                "end_time": 133.35,
                "pitch": 69,
                "velocity": 40,
                "duration": 0.16818181818180733,
                "tempo": 120.0
            },
            {
                "start_time": 133.3840909090909,
                "end_time": 133.5522727272727,
                "pitch": 69,
                "velocity": 40,
                "duration": 0.16818181818180733,
                "tempo": 120.0
            },
            {
                "start_time": 133.58636363636364,
                "end_time": 134.35681818181817,
                "pitch": 0,
                "velocity": 40,
                "duration": 0.7704545454545269,
                "tempo": 120.0
            },
            {
                "start_time": 134.39090909090908,
                "end_time": 134.5568181818182,
                "pitch": 69,
                "velocity": 40,
                "duration": 0.16590909090911055,
                "tempo": 120.0
            },
            {
                "start_time": 134.5909090909091,
                "end_time": 134.75681818181818,
                "pitch": 69,
                "velocity": 40,
                "duration": 0.16590909090908212,
                "tempo": 120.0
            },
            {
                "start_time": 134.79090909090908,
                "end_time": 135.56363636363636,
                "pitch": 0,
                "velocity": 40,
                "duration": 0.7727272727272805,
                "tempo": 120.0
            },
            {
                "start_time": 135.59545454545454,
                "end_time": 135.76363636363635,
                "pitch": 69,
                "velocity": 40,
                "duration": 0.16818181818180733,
                "tempo": 120.0
            },
            {
                "start_time": 135.79772727272726,
                "end_time": 135.9659090909091,
                "pitch": 69,
                "velocity": 40,
                "duration": 0.16818181818183575,
                "tempo": 120.0
            },
            {
                "start_time": 136.0,
                "end_time": 136.36818181818182,
                "pitch": 0,
                "velocity": 40,
                "duration": 0.3681818181818244,
                "tempo": 120.0
            },
            {
                "start_time": 136.40227272727273,
                "end_time": 136.5681818181818,
                "pitch": 71,
                "velocity": 40,
                "duration": 0.16590909090908212,
                "tempo": 120.0
            },
            {
                "start_time": 136.60227272727272,
                "end_time": 136.7681818181818,
                "pitch": 71,
                "velocity": 40,
                "duration": 0.16590909090908212,
                "tempo": 120.0
            },
            {
                "start_time": 136.8022727272727,
                "end_time": 137.57272727272726,
                "pitch": 0,
                "velocity": 40,
                "duration": 0.7704545454545553,
                "tempo": 120.0
            },
            {
                "start_time": 137.60681818181817,
                "end_time": 137.775,
                "pitch": 71,
                "velocity": 40,
                "duration": 0.16818181818183575,
                "tempo": 120.0
            },
            {
                "start_time": 137.8090909090909,
                "end_time": 137.975,
                "pitch": 71,
                "velocity": 40,
                "duration": 0.16590909090908212,
                "tempo": 120.0
            },
            {
                "start_time": 138.0090909090909,
                "end_time": 138.77954545454546,
                "pitch": 0,
                "velocity": 40,
                "duration": 0.7704545454545553,
                "tempo": 120.0
            },
            {
                "start_time": 138.81136363636364,
                "end_time": 138.97954545454544,
                "pitch": 71,
                "velocity": 40,
                "duration": 0.16818181818180733,
                "tempo": 120.0
            },
            {
                "start_time": 139.01363636363635,
                "end_time": 139.1818181818182,
                "pitch": 71,
                "velocity": 40,
                "duration": 0.16818181818183575,
                "tempo": 120.0
            },
            {
                "start_time": 139.2159090909091,
                "end_time": 139.5840909090909,
                "pitch": 0,
                "velocity": 40,
                "duration": 0.36818181818179596,
                "tempo": 120.0
            },
            {
                "start_time": 139.61818181818182,
                "end_time": 139.78636363636363,
                "pitch": 67,
                "velocity": 40,
                "duration": 0.16818181818180733,
                "tempo": 120.0
            },
            {
                "start_time": 139.8181818181818,
                "end_time": 139.98636363636362,
                "pitch": 67,
                "velocity": 40,
                "duration": 0.16818181818180733,
                "tempo": 120.0
            },
            {
                "start_time": 140.02045454545453,
                "end_time": 140.78863636363636,
                "pitch": 0,
                "velocity": 40,
                "duration": 0.7681818181818301,
                "tempo": 120.0
            },
            {
                "start_time": 140.82272727272726,
                "end_time": 140.99090909090907,
                "pitch": 67,
                "velocity": 40,
                "duration": 0.16818181818180733,
                "tempo": 120.0
            },
            {
                "start_time": 141.025,
                "end_time": 141.1931818181818,
                "pitch": 67,
                "velocity": 40,
                "duration": 0.16818181818180733,
                "tempo": 120.0
            },
            {
                "start_time": 141.225,
                "end_time": 141.99772727272727,
                "pitch": 0,
                "velocity": 40,
                "duration": 0.7727272727272805,
                "tempo": 120.0
            },
            {
                "start_time": 142.03181818181818,
                "end_time": 142.2022727272727,
                "pitch": 67,
                "velocity": 40,
                "duration": 0.17045454545453254,
                "tempo": 120.0
            },
            {
                "start_time": 142.23636363636362,
                "end_time": 142.40681818181818,
                "pitch": 67,
                "velocity": 40,
                "duration": 0.17045454545456096,
                "tempo": 120.0
            },
            {
                "start_time": 142.4409090909091,
                "end_time": 142.79999999999998,
                "pitch": 0,
                "velocity": 40,
                "duration": 0.35909090909089514,
                "tempo": 120.0
            },
            {
                "start_time": 142.8340909090909,
                "end_time": 143.00227272727273,
                "pitch": 69,
                "velocity": 40,
                "duration": 0.16818181818183575,
                "tempo": 120.0
            },
            {
                "start_time": 143.03636363636363,
                "end_time": 143.2022727272727,
                "pitch": 69,
                "velocity": 40,
                "duration": 0.16590909090908212,
                "tempo": 120.0
            },
            {
                "start_time": 143.23636363636362,
                "end_time": 144.0090909090909,
                "pitch": 0,
                "velocity": 40,
                "duration": 0.7727272727272805,
                "tempo": 120.0
            },
            {
                "start_time": 144.0431818181818,
                "end_time": 144.2090909090909,
                "pitch": 69,
                "velocity": 40,
                "duration": 0.16590909090908212,
                "tempo": 120.0
            },
            {
                "start_time": 144.24318181818182,
                "end_time": 144.41136363636363,
                "pitch": 69,
                "velocity": 40,
                "duration": 0.16818181818180733,
                "tempo": 120.0
            },
            {
                "start_time": 144.44545454545454,
                "end_time": 145.21363636363637,
                "pitch": 0,
                "velocity": 40,
                "duration": 0.7681818181818301,
                "tempo": 120.0
            },
            {
                "start_time": 145.24772727272727,
                "end_time": 145.41590909090908,
                "pitch": 69,
                "velocity": 40,
                "duration": 0.16818181818180733,
                "tempo": 120.0
            },
            {
                "start_time": 145.44772727272726,
                "end_time": 145.61590909090907,
                "pitch": 69,
                "velocity": 40,
                "duration": 0.16818181818180733,
                "tempo": 120.0
            },
            {
                "start_time": 145.65,
                "end_time": 146.0181818181818,
                "pitch": 0,
                "velocity": 40,
                "duration": 0.36818181818179596,
                "tempo": 120.0
            },
            {
                "start_time": 146.0522727272727,
                "end_time": 146.22045454545454,
                "pitch": 67,
                "velocity": 40,
                "duration": 0.16818181818183575,
                "tempo": 120.0
            },
            {
                "start_time": 146.25454545454545,
                "end_time": 146.42272727272726,
                "pitch": 67,
                "velocity": 40,
                "duration": 0.16818181818180733,
                "tempo": 120.0
            },
            {
                "start_time": 146.45454545454544,
                "end_time": 147.225,
                "pitch": 0,
                "velocity": 40,
                "duration": 0.7704545454545553,
                "tempo": 120.0
            },
            {
                "start_time": 147.2590909090909,
                "end_time": 147.42499999999998,
                "pitch": 67,
                "velocity": 40,
                "duration": 0.16590909090908212,
                "tempo": 120.0
            },
            {
                "start_time": 147.4590909090909,
                "end_time": 147.62727272727273,
                "pitch": 67,
                "velocity": 40,
                "duration": 0.16818181818183575,
                "tempo": 120.0
            },
            {
                "start_time": 147.66136363636363,
                "end_time": 148.4318181818182,
                "pitch": 0,
                "velocity": 40,
                "duration": 0.7704545454545553,
                "tempo": 120.0
            },
            {
                "start_time": 148.4659090909091,
                "end_time": 148.63181818181818,
                "pitch": 67,
                "velocity": 40,
                "duration": 0.16590909090908212,
                "tempo": 120.0
            },
            {
                "start_time": 148.66590909090908,
                "end_time": 148.83181818181816,
                "pitch": 67,
                "velocity": 40,
                "duration": 0.16590909090908212,
                "tempo": 120.0
            },
            {
                "start_time": 148.86590909090907,
                "end_time": 149.23636363636362,
                "pitch": 0,
                "velocity": 40,
                "duration": 0.3704545454545496,
                "tempo": 120.0
            },
            {
                "start_time": 149.2681818181818,
                "end_time": 149.43636363636364,
                "pitch": 66,
                "velocity": 40,
                "duration": 0.16818181818183575,
                "tempo": 120.0
            },
            {
                "start_time": 149.47045454545454,
                "end_time": 149.63863636363635,
                "pitch": 66,
                "velocity": 40,
                "duration": 0.16818181818180733,
                "tempo": 120.0
            },
            {
                "start_time": 149.67272727272726,
                "end_time": 150.4431818181818,
                "pitch": 0,
                "velocity": 40,
                "duration": 0.7704545454545553,
                "tempo": 120.0
            },
            {
                "start_time": 150.47727272727272,
                "end_time": 150.6431818181818,
                "pitch": 66,
                "velocity": 40,
                "duration": 0.16590909090908212,
                "tempo": 120.0
            },
            {
                "start_time": 150.6772727272727,
                "end_time": 150.84318181818182,
                "pitch": 66,
                "velocity": 40,
                "duration": 0.16590909090911055,
                "tempo": 120.0
            },
            {
                "start_time": 150.87727272727273,
                "end_time": 151.64772727272725,
                "pitch": 0,
                "velocity": 40,
                "duration": 0.7704545454545269,
                "tempo": 120.0
            },
            {
                "start_time": 151.6818181818182,
                "end_time": 151.85,
                "pitch": 66,
                "velocity": 40,
                "duration": 0.16818181818180733,
                "tempo": 120.0
            },
            {
                "start_time": 151.8840909090909,
                "end_time": 152.0522727272727,
                "pitch": 66,
                "velocity": 40,
                "duration": 0.16818181818180733,
                "tempo": 120.0
            },
            {
                "start_time": 152.0840909090909,
                "end_time": 152.45454545454544,
                "pitch": 0,
                "velocity": 40,
                "duration": 0.3704545454545496,
                "tempo": 120.0
            },
            {
                "start_time": 152.48636363636362,
                "end_time": 152.65454545454546,
                "pitch": 69,
                "velocity": 40,
                "duration": 0.16818181818183575,
                "tempo": 120.0
            },
            {
                "start_time": 152.68636363636364,
                "end_time": 152.85454545454544,
                "pitch": 69,
                "velocity": 40,
                "duration": 0.16818181818180733,
                "tempo": 120.0
            },
            {
                "start_time": 152.88863636363635,
                "end_time": 153.6590909090909,
                "pitch": 0,
                "velocity": 40,
                "duration": 0.7704545454545553,
                "tempo": 120.0
            },
            {
                "start_time": 153.6931818181818,
                "end_time": 153.86136363636362,
                "pitch": 69,
                "velocity": 40,
                "duration": 0.16818181818180733,
                "tempo": 120.0
            },
            {
                "start_time": 153.89545454545453,
                "end_time": 155.275,
                "pitch": 69,
                "velocity": 40,
                "duration": 1.3795454545454788,
                "tempo": 120.0
            },
            {
                "start_time": 155.3068181818182,
                "end_time": 155.6681818181818,
                "pitch": 0,
                "velocity": 40,
                "duration": 0.36136363636362034,
                "tempo": 120.0
            },
            {
                "start_time": 155.7022727272727,
                "end_time": 155.86818181818182,
                "pitch": 69,
                "velocity": 40,
                "duration": 0.16590909090911055,
                "tempo": 120.0
            },
            {
                "start_time": 155.90227272727273,
                "end_time": 156.07045454545454,
                "pitch": 69,
                "velocity": 40,
                "duration": 0.16818181818180733,
                "tempo": 120.0
            },
            {
                "start_time": 156.10454545454544,
                "end_time": 156.87272727272727,
                "pitch": 0,
                "velocity": 40,
                "duration": 0.7681818181818301,
                "tempo": 120.0
            },
            {
                "start_time": 156.90681818181818,
                "end_time": 157.075,
                "pitch": 69,
                "velocity": 40,
                "duration": 0.16818181818180733,
                "tempo": 120.0
            },
            {
                "start_time": 157.1090909090909,
                "end_time": 157.275,
                "pitch": 69,
                "velocity": 40,
                "duration": 0.16590909090911055,
                "tempo": 120.0
            },
            {
                "start_time": 157.3090909090909,
                "end_time": 158.08181818181816,
                "pitch": 0,
                "velocity": 40,
                "duration": 0.7727272727272521,
                "tempo": 120.0
            },
            {
                "start_time": 158.11363636363635,
                "end_time": 158.28181818181818,
                "pitch": 69,
                "velocity": 40,
                "duration": 0.16818181818183575,
                "tempo": 120.0
            },
            {
                "start_time": 158.3159090909091,
                "end_time": 158.4840909090909,
                "pitch": 69,
                "velocity": 40,
                "duration": 0.16818181818180733,
                "tempo": 120.0
            },
            {
                "start_time": 158.5181818181818,
                "end_time": 158.8840909090909,
                "pitch": 0,
                "velocity": 40,
                "duration": 0.3659090909090992,
                "tempo": 120.0
            },
            {
                "start_time": 158.9181818181818,
                "end_time": 159.0840909090909,
                "pitch": 69,
                "velocity": 40,
                "duration": 0.16590909090908212,
                "tempo": 120.0
            },
            {
                "start_time": 159.11818181818182,
                "end_time": 159.28636363636363,
                "pitch": 69,
                "velocity": 40,
                "duration": 0.16818181818180733,
                "tempo": 120.0
            },
            {
                "start_time": 159.32045454545454,
                "end_time": 160.0909090909091,
                "pitch": 0,
                "velocity": 40,
                "duration": 0.7704545454545553,
                "tempo": 120.0
            },
            {
                "start_time": 160.125,
                "end_time": 160.2931818181818,
                "pitch": 69,
                "velocity": 40,
                "duration": 0.16818181818180733,
                "tempo": 120.0
            },
            {
                "start_time": 160.3272727272727,
                "end_time": 160.49545454545455,
                "pitch": 69,
                "velocity": 40,
                "duration": 0.16818181818183575,
                "tempo": 120.0
            },
            {
                "start_time": 160.52727272727273,
                "end_time": 161.29772727272726,
                "pitch": 0,
                "velocity": 40,
                "duration": 0.7704545454545269,
                "tempo": 120.0
            },
            {
                "start_time": 161.33181818181816,
                "end_time": 161.49772727272727,
                "pitch": 69,
                "velocity": 40,
                "duration": 0.16590909090911055,
                "tempo": 120.0
            },
            {
                "start_time": 161.53181818181818,
                "end_time": 161.7,
                "pitch": 69,
                "velocity": 40,
                "duration": 0.16818181818180733,
                "tempo": 120.0
            },
            {
                "start_time": 161.7340909090909,
                "end_time": 162.10227272727272,
                "pitch": 0,
                "velocity": 40,
                "duration": 0.3681818181818244,
                "tempo": 120.0
            },
            {
                "start_time": 162.13636363636363,
                "end_time": 162.30454545454543,
                "pitch": 71,
                "velocity": 40,
                "duration": 0.16818181818180733,
                "tempo": 120.0
            },
            {
                "start_time": 162.33863636363637,
                "end_time": 162.50454545454545,
                "pitch": 71,
                "velocity": 40,
                "duration": 0.16590909090908212,
                "tempo": 120.0
            },
            {
                "start_time": 162.53863636363636,
                "end_time": 163.3090909090909,
                "pitch": 0,
                "velocity": 40,
                "duration": 0.7704545454545553,
                "tempo": 120.0
            },
            {
                "start_time": 163.3409090909091,
                "end_time": 163.5090909090909,
                "pitch": 71,
                "velocity": 40,
                "duration": 0.16818181818180733,
                "tempo": 120.0
            },
            {
                "start_time": 163.5431818181818,
                "end_time": 163.71136363636361,
                "pitch": 71,
                "velocity": 40,
                "duration": 0.16818181818180733,
                "tempo": 120.0
            },
            {
                "start_time": 163.74318181818182,
                "end_time": 164.51590909090908,
                "pitch": 0,
                "velocity": 40,
                "duration": 0.7727272727272521,
                "tempo": 120.0
            },
            {
                "start_time": 164.54999999999998,
                "end_time": 164.7159090909091,
                "pitch": 71,
                "velocity": 40,
                "duration": 0.16590909090911055,
                "tempo": 120.0
            },
            {
                "start_time": 164.75,
                "end_time": 164.91590909090908,
                "pitch": 71,
                "velocity": 40,
                "duration": 0.16590909090908212,
                "tempo": 120.0
            },
            {
                "start_time": 164.95,
                "end_time": 165.3181818181818,
                "pitch": 0,
                "velocity": 40,
                "duration": 0.3681818181818244,
                "tempo": 120.0
            },
            {
                "start_time": 165.35227272727272,
                "end_time": 165.52045454545453,
                "pitch": 67,
                "velocity": 40,
                "duration": 0.16818181818180733,
                "tempo": 120.0
            },
            {
                "start_time": 165.55454545454543,
                "end_time": 165.72045454545454,
                "pitch": 67,
                "velocity": 40,
                "duration": 0.16590909090911055,
                "tempo": 120.0
            },
            {
                "start_time": 165.75454545454545,
                "end_time": 166.52727272727273,
                "pitch": 0,
                "velocity": 40,
                "duration": 0.7727272727272805,
                "tempo": 120.0
            },
            {
                "start_time": 166.5590909090909,
                "end_time": 166.72727272727272,
                "pitch": 67,
                "velocity": 40,
                "duration": 0.16818181818180733,
                "tempo": 120.0
            },
            {
                "start_time": 166.7590909090909,
                "end_time": 166.9272727272727,
                "pitch": 67,
                "velocity": 40,
                "duration": 0.16818181818180733,
                "tempo": 120.0
            },
            {
                "start_time": 166.96136363636361,
                "end_time": 167.73181818181817,
                "pitch": 0,
                "velocity": 40,
                "duration": 0.7704545454545553,
                "tempo": 120.0
            },
            {
                "start_time": 167.76590909090908,
                "end_time": 167.93863636363636,
                "pitch": 67,
                "velocity": 40,
                "duration": 0.17272727272728616,
                "tempo": 120.0
            },
            {
                "start_time": 167.97272727272727,
                "end_time": 168.1431818181818,
                "pitch": 67,
                "velocity": 40,
                "duration": 0.17045454545453254,
                "tempo": 120.0
            },
            {
                "start_time": 168.17499999999998,
                "end_time": 168.5340909090909,
                "pitch": 0,
                "velocity": 40,
                "duration": 0.35909090909092356,
                "tempo": 120.0
            },
            {
                "start_time": 168.5681818181818,
                "end_time": 168.7340909090909,
                "pitch": 69,
                "velocity": 40,
                "duration": 0.16590909090908212,
                "tempo": 120.0
            },
            {
                "start_time": 168.7681818181818,
                "end_time": 168.9340909090909,
                "pitch": 69,
                "velocity": 40,
                "duration": 0.16590909090911055,
                "tempo": 120.0
            },
            {
                "start_time": 168.96818181818182,
                "end_time": 169.74090909090907,
                "pitch": 0,
                "velocity": 40,
                "duration": 0.7727272727272521,
                "tempo": 120.0
            },
            {
                "start_time": 169.775,
                "end_time": 169.9409090909091,
                "pitch": 69,
                "velocity": 40,
                "duration": 0.16590909090908212,
                "tempo": 120.0
            },
            {
                "start_time": 169.975,
                "end_time": 170.1431818181818,
                "pitch": 69,
                "velocity": 40,
                "duration": 0.16818181818180733,
                "tempo": 120.0
            },
            {
                "start_time": 170.1772727272727,
                "end_time": 170.94545454545454,
                "pitch": 0,
                "velocity": 40,
                "duration": 0.7681818181818301,
                "tempo": 120.0
            },
            {
                "start_time": 170.97954545454544,
                "end_time": 171.14772727272725,
                "pitch": 69,
                "velocity": 40,
                "duration": 0.16818181818180733,
                "tempo": 120.0
            },
            {
                "start_time": 171.1818181818182,
                "end_time": 171.34772727272727,
                "pitch": 69,
                "velocity": 40,
                "duration": 0.16590909090908212,
                "tempo": 120.0
            },
            {
                "start_time": 171.38181818181818,
                "end_time": 171.75227272727273,
                "pitch": 0,
                "velocity": 40,
                "duration": 0.3704545454545496,
                "tempo": 120.0
            },
            {
                "start_time": 171.7840909090909,
                "end_time": 171.9522727272727,
                "pitch": 67,
                "velocity": 40,
                "duration": 0.16818181818180733,
                "tempo": 120.0
            },
            {
                "start_time": 171.98636363636362,
                "end_time": 172.15454545454546,
                "pitch": 67,
                "velocity": 40,
                "duration": 0.16818181818183575,
                "tempo": 120.0
            },
            {
                "start_time": 172.18636363636364,
                "end_time": 172.95681818181816,
                "pitch": 0,
                "velocity": 40,
                "duration": 0.7704545454545269,
                "tempo": 120.0
            },
            {
                "start_time": 172.99090909090907,
                "end_time": 173.15681818181818,
                "pitch": 67,
                "velocity": 40,
                "duration": 0.16590909090911055,
                "tempo": 120.0
            },
            {
                "start_time": 173.1909090909091,
                "end_time": 173.3590909090909,
                "pitch": 67,
                "velocity": 40,
                "duration": 0.16818181818180733,
                "tempo": 120.0
            },
            {
                "start_time": 173.3931818181818,
                "end_time": 174.16363636363636,
                "pitch": 0,
                "velocity": 40,
                "duration": 0.7704545454545553,
                "tempo": 120.0
            },
            {
                "start_time": 174.19772727272726,
                "end_time": 174.36590909090907,
                "pitch": 67,
                "velocity": 40,
                "duration": 0.16818181818180733,
                "tempo": 120.0
            },
            {
                "start_time": 174.4,
                "end_time": 174.5681818181818,
                "pitch": 67,
                "velocity": 40,
                "duration": 0.16818181818180733,
                "tempo": 120.0
            },
            {
                "start_time": 174.6,
                "end_time": 174.96818181818182,
                "pitch": 0,
                "velocity": 40,
                "duration": 0.3681818181818244,
                "tempo": 120.0
            },
            {
                "start_time": 175.0,
                "end_time": 175.1681818181818,
                "pitch": 66,
                "velocity": 40,
                "duration": 0.16818181818180733,
                "tempo": 120.0
            },
            {
                "start_time": 175.2022727272727,
                "end_time": 175.37045454545455,
                "pitch": 66,
                "velocity": 40,
                "duration": 0.16818181818183575,
                "tempo": 120.0
            },
            {
                "start_time": 175.40454545454546,
                "end_time": 176.17499999999998,
                "pitch": 0,
                "velocity": 40,
                "duration": 0.7704545454545269,
                "tempo": 120.0
            },
            {
                "start_time": 176.2090909090909,
                "end_time": 176.37727272727273,
                "pitch": 66,
                "velocity": 40,
                "duration": 0.16818181818183575,
                "tempo": 120.0
            },
            {
                "start_time": 176.41136363636363,
                "end_time": 176.5772727272727,
                "pitch": 66,
                "velocity": 40,
                "duration": 0.16590909090908212,
                "tempo": 120.0
            },
            {
                "start_time": 176.61136363636362,
                "end_time": 177.38181818181818,
                "pitch": 0,
                "velocity": 40,
                "duration": 0.7704545454545553,
                "tempo": 120.0
            },
            {
                "start_time": 177.41363636363636,
                "end_time": 177.58181818181816,
                "pitch": 66,
                "velocity": 40,
                "duration": 0.16818181818180733,
                "tempo": 120.0
            },
            {
                "start_time": 177.61590909090907,
                "end_time": 177.7840909090909,
                "pitch": 66,
                "velocity": 40,
                "duration": 0.16818181818183575,
                "tempo": 120.0
            },
            {
                "start_time": 177.8159090909091,
                "end_time": 178.18636363636364,
                "pitch": 0,
                "velocity": 40,
                "duration": 0.3704545454545496,
                "tempo": 120.0
            },
            {
                "start_time": 178.22045454545454,
                "end_time": 178.38636363636363,
                "pitch": 69,
                "velocity": 40,
                "duration": 0.16590909090908212,
                "tempo": 120.0
            },
            {
                "start_time": 178.42045454545453,
                "end_time": 178.58863636363637,
                "pitch": 69,
                "velocity": 40,
                "duration": 0.16818181818183575,
                "tempo": 120.0
            },
            {
                "start_time": 178.62272727272727,
                "end_time": 179.39090909090908,
                "pitch": 0,
                "velocity": 40,
                "duration": 0.7681818181818016,
                "tempo": 120.0
            },
            {
                "start_time": 179.42499999999998,
                "end_time": 179.59318181818182,
                "pitch": 69,
                "velocity": 40,
                "duration": 0.16818181818183575,
                "tempo": 120.0
            }
        ]
    }
}