{
    "track_id": "Out Run 3D (FM) - 01 - Magical Sound Shower",
    "mood": "happy",
    "instruments": {
        "Trumpet": [
            {
                "start_time": 35.42045454545455,
                "end_time": 35.75681818181818,
                "pitch": 64,
                "velocity": 51,
                "duration": 0.336363636363636,
                "tempo": 120.0
            },
            {
                "start_time": 35.77272727272727,
                "end_time": 35.87272727272727,
                "pitch": 64,
                "velocity": 51,
                "duration": 0.09999999999999432,
                "tempo": 120.0
            },
            {
                "start_time": 36.125,
                "end_time": 36.34318181818182,
                "pitch": 64,
                "velocity": 51,
                "duration": 0.2181818181818187,
                "tempo": 120.0
            },
            {
                "start_time": 36.58863636363636,
                "end_time": 36.68636363636364,
                "pitch": 62,
                "velocity": 51,
                "duration": 0.09772727272727622,
                "tempo": 120.0
            },
            {
                "start_time": 36.81818181818181,
                "end_time": 37.029545454545456,
                "pitch": 64,
                "velocity": 51,
                "duration": 0.21136363636364308,
                "tempo": 120.0
            },
            {
                "start_time": 37.275,
                "end_time": 37.611363636363635,
                "pitch": 64,
                "velocity": 51,
                "duration": 0.336363636363636,
                "tempo": 120.0
            },
            {
                "start_time": 37.627272727272725,
                "end_time": 37.72727272727273,
                "pitch": 64,
                "velocity": 51,
                "duration": 0.10000000000000142,
                "tempo": 120.0
            },
            {
                "start_time": 37.97954545454545,
                "end_time": 38.19772727272727,
                "pitch": 64,
                "velocity": 51,
                "duration": 0.2181818181818187,
                "tempo": 120.0
            },
            {
                "start_time": 38.44772727272727,
                "end_time": 38.54772727272727,
                "pitch": 62,
                "velocity": 51,
                "duration": 0.10000000000000142,
                "tempo": 120.0
            },
            {
                "start_time": 38.68181818181818,
                "end_time": 38.89545454545454,
                "pitch": 64,
                "velocity": 51,
                "duration": 0.21363636363636118,
                "tempo": 120.0
            },
            {
                "start_time": 39.14090909090909,
                "end_time": 39.475,
                "pitch": 64,
                "velocity": 51,
                "duration": 0.33409090909091077,
                "tempo": 120.0
            },
            {
                "start_time": 39.49318181818182,
                "end_time": 39.59318181818182,
                "pitch": 64,
                "velocity": 51,
                "duration": 0.10000000000000142,
                "tempo": 120.0
            },
            {
                "start_time": 39.845454545454544,
                "end_time": 40.06136363636364,
                "pitch": 64,
                "velocity": 51,
                "duration": 0.2159090909090935,
                "tempo": 120.0
            },
            {
                "start_time": 40.31363636363636,
                "end_time": 40.413636363636364,
                "pitch": 62,
                "velocity": 51,
                "duration": 0.10000000000000142,
                "tempo": 120.0
            },
            {
                "start_time": 40.54772727272727,
                "end_time": 40.76136363636363,
                "pitch": 64,
                "velocity": 51,
                "duration": 0.21363636363636118,
                "tempo": 120.0
            },
            {
                "start_time": 41.00681818181818,
                "end_time": 41.340909090909086,
                "pitch": 64,
                "velocity": 51,
                "duration": 0.33409090909090366,
                "tempo": 120.0
            },
            {
                "start_time": 41.35681818181818,
                "end_time": 41.459090909090904,
                "pitch": 64,
                "velocity": 51,
                "duration": 0.10227272727272663,
                "tempo": 120.0
            },
            {
                "start_time": 41.70454545454545,
                "end_time": 41.91590909090909,
                "pitch": 64,
                "velocity": 51,
                "duration": 0.21136363636363598,
                "tempo": 120.0
            },
            {
                "start_time": 42.168181818181814,
                "end_time": 42.268181818181816,
                "pitch": 62,
                "velocity": 51,
                "duration": 0.10000000000000142,
                "tempo": 120.0
            },
            {
                "start_time": 42.402272727272724,
                "end_time": 42.61590909090909,
                "pitch": 64,
                "velocity": 51,
                "duration": 0.2136363636363683,
                "tempo": 120.0
            },
            {
                "start_time": 42.861363636363635,
                "end_time": 43.07727272727273,
                "pitch": 59,
                "velocity": 51,
                "duration": 0.2159090909090935,
                "tempo": 120.0
            },
            {
                "start_time": 43.095454545454544,
                "end_time": 43.31363636363636,
                "pitch": 59,
                "velocity": 51,
                "duration": 0.2181818181818187,
                "tempo": 120.0
            },
            {
                "start_time": 43.44772727272727,
                "end_time": 43.54772727272727,
                "pitch": 59,
                "velocity": 51,
                "duration": 0.10000000000000142,
                "tempo": 120.0
            },
            {
                "start_time": 43.68181818181818,
                "end_time": 43.9,
                "pitch": 59,
                "velocity": 51,
                "duration": 0.2181818181818187,
                "tempo": 120.0
            },
            {
                "start_time": 43.91590909090909,
                "end_time": 44.01590909090909,
                "pitch": 59,
                "velocity": 51,
                "duration": 0.10000000000000142,
                "tempo": 120.0
            },
            {
                "start_time": 44.15,
                "end_time": 44.25,
                "pitch": 59,
                "velocity": 51,
                "duration": 0.10000000000000142,
                "tempo": 120.0
            },
            {
                "start_time": 44.268181818181816,
                "end_time": 44.48409090909091,
                "pitch": 59,
                "velocity": 51,
                "duration": 0.2159090909090935,
                "tempo": 120.0
            },
            {
                "start_time": 44.502272727272725,
                "end_time": 44.720454545454544,
                "pitch": 59,
                "velocity": 51,
                "duration": 0.2181818181818187,
                "tempo": 120.0
            },
            {
                "start_time": 44.736363636363635,
                "end_time": 44.949999999999996,
                "pitch": 57,
                "velocity": 51,
                "duration": 0.21363636363636118,
                "tempo": 120.0
            },
            {
                "start_time": 44.965909090909086,
                "end_time": 45.17727272727272,
                "pitch": 57,
                "velocity": 51,
                "duration": 0.21136363636363598,
                "tempo": 120.0
            },
            {
                "start_time": 45.31136363636364,
                "end_time": 45.41136363636363,
                "pitch": 57,
                "velocity": 51,
                "duration": 0.09999999999999432,
                "tempo": 120.0
            },
            {
                "start_time": 45.54545454545455,
                "end_time": 45.76136363636363,
                "pitch": 57,
                "velocity": 51,
                "duration": 0.2159090909090864,
                "tempo": 120.0
            },
            {
                "start_time": 45.777272727272724,
                "end_time": 45.877272727272725,
                "pitch": 57,
                "velocity": 51,
                "duration": 0.10000000000000142,
                "tempo": 120.0
            },
            {
                "start_time": 46.00681818181818,
                "end_time": 46.10454545454545,
                "pitch": 57,
                "velocity": 51,
                "duration": 0.09772727272726911,
                "tempo": 120.0
            },
            {
                "start_time": 46.12272727272727,
                "end_time": 46.22272727272727,
                "pitch": 57,
                "velocity": 51,
                "duration": 0.10000000000000142,
                "tempo": 120.0
            },
            {
                "start_time": 46.23863636363636,
                "end_time": 46.33863636363636,
                "pitch": 57,
                "velocity": 51,
                "duration": 0.10000000000000142,
                "tempo": 120.0
            },
            {
                "start_time": 46.35681818181818,
                "end_time": 46.574999999999996,
                "pitch": 57,
                "velocity": 51,
                "duration": 0.2181818181818187,
                "tempo": 120.0
            },
            {
                "start_time": 46.590909090909086,
                "end_time": 46.809090909090905,
                "pitch": 57,
                "velocity": 51,
                "duration": 0.2181818181818187,
                "tempo": 120.0
            },
            {
                "start_time": 46.824999999999996,
                "end_time": 47.043181818181814,
                "pitch": 57,
                "velocity": 51,
                "duration": 0.2181818181818187,
                "tempo": 120.0
            },
            {
                "start_time": 47.17727272727272,
                "end_time": 47.277272727272724,
                "pitch": 57,
                "velocity": 51,
                "duration": 0.10000000000000142,
                "tempo": 120.0
            },
            {
                "start_time": 47.41136363636363,
                "end_time": 47.627272727272725,
                "pitch": 57,
                "velocity": 51,
                "duration": 0.2159090909090935,
                "tempo": 120.0
            },
            {
                "start_time": 47.643181818181816,
                "end_time": 47.74090909090909,
                "pitch": 57,
                "velocity": 51,
                "duration": 0.09772727272727622,
                "tempo": 120.0
            },
            {
                "start_time": 47.87272727272727,
                "end_time": 47.970454545454544,
                "pitch": 57,
                "velocity": 51,
                "duration": 0.09772727272727622,
                "tempo": 120.0
            },
            {
                "start_time": 47.986363636363635,
                "end_time": 48.20454545454545,
                "pitch": 57,
                "velocity": 51,
                "duration": 0.2181818181818187,
                "tempo": 120.0
            },
            {
                "start_time": 48.220454545454544,
                "end_time": 48.43863636363636,
                "pitch": 57,
                "velocity": 51,
                "duration": 0.2181818181818187,
                "tempo": 120.0
            },
            {
                "start_time": 48.45681818181818,
                "end_time": 48.668181818181814,
                "pitch": 59,
                "velocity": 51,
                "duration": 0.21136363636363598,
                "tempo": 120.0
            },
            {
                "start_time": 48.684090909090905,
                "end_time": 48.89772727272727,
                "pitch": 59,
                "velocity": 51,
                "duration": 0.2136363636363683,
                "tempo": 120.0
            },
            {
                "start_time": 49.03181818181818,
                "end_time": 49.13181818181818,
                "pitch": 59,
                "velocity": 51,
                "duration": 0.10000000000000142,
                "tempo": 120.0
            },
            {
                "start_time": 49.26590909090909,
                "end_time": 49.48409090909091,
                "pitch": 59,
                "velocity": 51,
                "duration": 0.2181818181818187,
                "tempo": 120.0
            },
            {
                "start_time": 49.5,
                "end_time": 49.599999999999994,
                "pitch": 59,
                "velocity": 51,
                "duration": 0.09999999999999432,
                "tempo": 120.0
            },
            {
                "start_time": 49.73409090909091,
                "end_time": 49.836363636363636,
                "pitch": 59,
                "velocity": 51,
                "duration": 0.10227272727272663,
                "tempo": 120.0
            },
            {
                "start_time": 49.85227272727273,
                "end_time": 49.949999999999996,
                "pitch": 59,
                "velocity": 51,
                "duration": 0.09772727272726911,
                "tempo": 120.0
            },
            {
                "start_time": 49.965909090909086,
                "end_time": 50.06363636363636,
                "pitch": 59,
                "velocity": 51,
                "duration": 0.09772727272727622,
                "tempo": 120.0
            },
            {
                "start_time": 50.08181818181818,
                "end_time": 50.293181818181814,
                "pitch": 59,
                "velocity": 51,
                "duration": 0.21136363636363598,
                "tempo": 120.0
            },
            {
                "start_time": 50.309090909090905,
                "end_time": 50.527272727272724,
                "pitch": 59,
                "velocity": 51,
                "duration": 0.2181818181818187,
                "tempo": 120.0
            },
            {
                "start_time": 50.54545454545454,
                "end_time": 50.76136363636363,
                "pitch": 59,
                "velocity": 51,
                "duration": 0.2159090909090935,
                "tempo": 120.0
            },
            {
                "start_time": 50.89545454545454,
                "end_time": 50.99772727272727,
                "pitch": 59,
                "velocity": 51,
                "duration": 0.10227272727272663,
                "tempo": 120.0
            },
            {
                "start_time": 51.13181818181818,
                "end_time": 51.345454545454544,
                "pitch": 59,
                "velocity": 51,
                "duration": 0.21363636363636118,
                "tempo": 120.0
            },
            {
                "start_time": 51.36363636363636,
                "end_time": 51.461363636363636,
                "pitch": 59,
                "velocity": 51,
                "duration": 0.09772727272727622,
                "tempo": 120.0
            },
            {
                "start_time": 51.590909090909086,
                "end_time": 51.69090909090909,
                "pitch": 59,
                "velocity": 51,
                "duration": 0.10000000000000142,
                "tempo": 120.0
            },
            {
                "start_time": 51.70681818181818,
                "end_time": 51.929545454545455,
                "pitch": 59,
                "velocity": 51,
                "duration": 0.22272727272727622,
                "tempo": 120.0
            },
            {
                "start_time": 51.945454545454545,
                "end_time": 52.168181818181814,
                "pitch": 59,
                "velocity": 51,
                "duration": 0.2227272727272691,
                "tempo": 120.0
            },
            {
                "start_time": 52.18636363636363,
                "end_time": 52.4,
                "pitch": 57,
                "velocity": 51,
                "duration": 0.2136363636363683,
                "tempo": 120.0
            },
            {
                "start_time": 52.41590909090909,
                "end_time": 52.627272727272725,
                "pitch": 57,
                "velocity": 51,
                "duration": 0.21136363636363598,
                "tempo": 120.0
            },
            {
                "start_time": 52.76136363636363,
                "end_time": 52.861363636363635,
                "pitch": 57,
                "velocity": 51,
                "duration": 0.10000000000000142,
                "tempo": 120.0
            },
            {
                "start_time": 52.99545454545454,
                "end_time": 53.211363636363636,
                "pitch": 57,
                "velocity": 51,
                "duration": 0.2159090909090935,
                "tempo": 120.0
            },
            {
                "start_time": 53.22727272727273,
                "end_time": 53.32727272727273,
                "pitch": 57,
                "velocity": 51,
                "duration": 0.10000000000000142,
                "tempo": 120.0
            },
            {
                "start_time": 53.45681818181818,
                "end_time": 53.554545454545455,
                "pitch": 57,
                "velocity": 51,
                "duration": 0.09772727272727622,
                "tempo": 120.0
            },
            {
                "start_time": 53.57272727272727,
                "end_time": 53.67272727272727,
                "pitch": 57,
                "velocity": 51,
                "duration": 0.10000000000000142,
                "tempo": 120.0
            },
            {
                "start_time": 53.68863636363636,
                "end_time": 53.788636363636364,
                "pitch": 57,
                "velocity": 51,
                "duration": 0.10000000000000142,
                "tempo": 120.0
            },
            {
                "start_time": 53.80681818181818,
                "end_time": 54.02272727272727,
                "pitch": 57,
                "velocity": 51,
                "duration": 0.2159090909090935,
                "tempo": 120.0
            },
            {
                "start_time": 54.04090909090909,
                "end_time": 54.252272727272725,
                "pitch": 57,
                "velocity": 51,
                "duration": 0.21136363636363598,
                "tempo": 120.0
            },
            {
                "start_time": 54.27045454545454,
                "end_time": 54.48181818181818,
                "pitch": 57,
                "velocity": 51,
                "duration": 0.21136363636363598,
                "tempo": 120.0
            },
            {
                "start_time": 54.615909090909085,
                "end_time": 54.715909090909086,
                "pitch": 57,
                "velocity": 51,
                "duration": 0.10000000000000142,
                "tempo": 120.0
            },
            {
                "start_time": 54.849999999999994,
                "end_time": 55.06818181818181,
                "pitch": 57,
                "velocity": 51,
                "duration": 0.2181818181818187,
                "tempo": 120.0
            },
            {
                "start_time": 55.084090909090904,
                "end_time": 55.18636363636363,
                "pitch": 57,
                "velocity": 51,
                "duration": 0.10227272727272663,
                "tempo": 120.0
            },
            {
                "start_time": 55.320454545454545,
                "end_time": 55.42045454545454,
                "pitch": 57,
                "velocity": 51,
                "duration": 0.09999999999999432,
                "tempo": 120.0
            },
            {
                "start_time": 55.43636363636363,
                "end_time": 55.65454545454545,
                "pitch": 57,
                "velocity": 51,
                "duration": 0.2181818181818187,
                "tempo": 120.0
            },
            {
                "start_time": 55.67045454545454,
                "end_time": 55.88863636363636,
                "pitch": 57,
                "velocity": 51,
                "duration": 0.2181818181818187,
                "tempo": 120.0
            },
            {
                "start_time": 55.90681818181818,
                "end_time": 56.00454545454545,
                "pitch": 64,
                "velocity": 51,
                "duration": 0.09772727272726911,
                "tempo": 120.0
            },
            {
                "start_time": 56.02045454545454,
                "end_time": 56.11818181818182,
                "pitch": 64,
                "velocity": 51,
                "duration": 0.09772727272727622,
                "tempo": 120.0
            },
            {
                "start_time": 56.13409090909091,
                "end_time": 56.23409090909091,
                "pitch": 64,
                "velocity": 51,
                "duration": 0.10000000000000142,
                "tempo": 120.0
            },
            {
                "start_time": 56.59772727272727,
                "end_time": 56.699999999999996,
                "pitch": 64,
                "velocity": 51,
                "duration": 0.10227272727272663,
                "tempo": 120.0
            },
            {
                "start_time": 56.715909090909086,
                "end_time": 56.81590909090909,
                "pitch": 64,
                "velocity": 51,
                "duration": 0.10000000000000142,
                "tempo": 120.0
            },
            {
                "start_time": 56.83181818181818,
                "end_time": 56.934090909090905,
                "pitch": 64,
                "velocity": 51,
                "duration": 0.10227272727272663,
                "tempo": 120.0
            },
            {
                "start_time": 57.75909090909091,
                "end_time": 57.97727272727273,
                "pitch": 60,
                "velocity": 51,
                "duration": 0.2181818181818187,
                "tempo": 120.0
            },
            {
                "start_time": 57.99545454545454,
                "end_time": 58.095454545454544,
                "pitch": 60,
                "velocity": 51,
                "duration": 0.10000000000000142,
                "tempo": 120.0
            },
            {
                "start_time": 58.34318181818182,
                "end_time": 58.55681818181818,
                "pitch": 60,
                "velocity": 51,
                "duration": 0.21363636363636118,
                "tempo": 120.0
            },
            {
                "start_time": 58.57272727272727,
                "end_time": 58.67045454545454,
                "pitch": 62,
                "velocity": 51,
                "duration": 0.09772727272726911,
                "tempo": 120.0
            },
            {
                "start_time": 58.68636363636363,
                "end_time": 58.90454545454545,
                "pitch": 62,
                "velocity": 51,
                "duration": 0.2181818181818187,
                "tempo": 120.0
            },
            {
                "start_time": 58.92272727272727,
                "end_time": 59.02272727272727,
                "pitch": 62,
                "velocity": 51,
                "duration": 0.10000000000000142,
                "tempo": 120.0
            },
            {
                "start_time": 59.27272727272727,
                "end_time": 59.490909090909085,
                "pitch": 62,
                "velocity": 51,
                "duration": 0.2181818181818116,
                "tempo": 120.0
            },
            {
                "start_time": 59.50909090909091,
                "end_time": 59.60909090909091,
                "pitch": 64,
                "velocity": 51,
                "duration": 0.10000000000000142,
                "tempo": 120.0
            },
            {
                "start_time": 59.625,
                "end_time": 59.83863636363636,
                "pitch": 64,
                "velocity": 51,
                "duration": 0.21363636363636118,
                "tempo": 120.0
            },
            {
                "start_time": 59.85454545454545,
                "end_time": 59.95227272727272,
                "pitch": 64,
                "velocity": 51,
                "duration": 0.09772727272726911,
                "tempo": 120.0
            },
            {
                "start_time": 60.199999999999996,
                "end_time": 60.418181818181814,
                "pitch": 64,
                "velocity": 51,
                "duration": 0.2181818181818187,
                "tempo": 120.0
            },
            {
                "start_time": 60.434090909090905,
                "end_time": 60.65,
                "pitch": 64,
                "velocity": 51,
                "duration": 0.2159090909090935,
                "tempo": 120.0
            },
            {
                "start_time": 60.66590909090909,
                "end_time": 60.87954545454545,
                "pitch": 64,
                "velocity": 51,
                "duration": 0.21363636363636118,
                "tempo": 120.0
            },
            {
                "start_time": 60.89545454545454,
                "end_time": 60.99318181818182,
                "pitch": 64,
                "velocity": 51,
                "duration": 0.09772727272727622,
                "tempo": 120.0
            },
            {
                "start_time": 61.01136363636363,
                "end_time": 61.22727272727273,
                "pitch": 64,
                "velocity": 51,
                "duration": 0.2159090909090935,
                "tempo": 120.0
            },
            {
                "start_time": 61.24545454545454,
                "end_time": 61.46363636363636,
                "pitch": 64,
                "velocity": 51,
                "duration": 0.2181818181818187,
                "tempo": 120.0
            },
            {
                "start_time": 61.47954545454545,
                "end_time": 61.69772727272727,
                "pitch": 60,
                "velocity": 51,
                "duration": 0.2181818181818187,
                "tempo": 120.0
            },
            {
                "start_time": 61.71363636363636,
                "end_time": 61.81363636363636,
                "pitch": 60,
                "velocity": 51,
                "duration": 0.10000000000000142,
                "tempo": 120.0
            },
            {
                "start_time": 62.06590909090909,
                "end_time": 62.28409090909091,
                "pitch": 60,
                "velocity": 51,
                "duration": 0.2181818181818187,
                "tempo": 120.0
            },
            {
                "start_time": 62.3,
                "end_time": 62.4,
                "pitch": 62,
                "velocity": 51,
                "duration": 0.10000000000000142,
                "tempo": 120.0
            },
            {
                "start_time": 62.418181818181814,
                "end_time": 62.62954545454545,
                "pitch": 62,
                "velocity": 51,
                "duration": 0.21136363636363598,
                "tempo": 120.0
            },
            {
                "start_time": 62.647727272727266,
                "end_time": 62.74545454545454,
                "pitch": 62,
                "velocity": 51,
                "duration": 0.09772727272727622,
                "tempo": 120.0
            },
            {
                "start_time": 62.99318181818182,
                "end_time": 63.211363636363636,
                "pitch": 62,
                "velocity": 51,
                "duration": 0.2181818181818187,
                "tempo": 120.0
            },
            {
                "start_time": 63.22727272727273,
                "end_time": 63.32727272727272,
                "pitch": 64,
                "velocity": 51,
                "duration": 0.09999999999999432,
                "tempo": 120.0
            },
            {
                "start_time": 63.345454545454544,
                "end_time": 63.56363636363636,
                "pitch": 64,
                "velocity": 51,
                "duration": 0.2181818181818187,
                "tempo": 120.0
            },
            {
                "start_time": 63.57954545454545,
                "end_time": 63.679545454545455,
                "pitch": 64,
                "velocity": 51,
                "duration": 0.10000000000000142,
                "tempo": 120.0
            },
            {
                "start_time": 63.92727272727272,
                "end_time": 64.14090909090909,
                "pitch": 64,
                "velocity": 51,
                "duration": 0.2136363636363683,
                "tempo": 120.0
            },
            {
                "start_time": 64.15681818181818,
                "end_time": 64.37272727272727,
                "pitch": 64,
                "velocity": 51,
                "duration": 0.2159090909090935,
                "tempo": 120.0
            },
            {
                "start_time": 64.38863636363637,
                "end_time": 64.60681818181818,
                "pitch": 64,
                "velocity": 51,
                "duration": 0.2181818181818187,
                "tempo": 120.0
            },
            {
                "start_time": 64.62272727272727,
                "end_time": 64.725,
                "pitch": 64,
                "velocity": 51,
                "duration": 0.10227272727271952,
                "tempo": 120.0
            },
            {
                "start_time": 64.74090909090908,
                "end_time": 64.9590909090909,
                "pitch": 64,
                "velocity": 51,
                "duration": 0.2181818181818187,
                "tempo": 120.0
            },
            {
                "start_time": 64.975,
                "end_time": 65.19318181818181,
                "pitch": 64,
                "velocity": 51,
                "duration": 0.2181818181818187,
                "tempo": 120.0
            },
            {
                "start_time": 65.2090909090909,
                "end_time": 65.42272727272727,
                "pitch": 60,
                "velocity": 51,
                "duration": 0.2136363636363683,
                "tempo": 120.0
            },
            {
                "start_time": 65.43863636363636,
                "end_time": 65.53636363636363,
                "pitch": 60,
                "velocity": 51,
                "duration": 0.09772727272726911,
                "tempo": 120.0
            },
            {
                "start_time": 65.78636363636363,
                "end_time": 66.00227272727273,
                "pitch": 60,
                "velocity": 51,
                "duration": 0.2159090909090935,
                "tempo": 120.0
            },
            {
                "start_time": 66.02045454545454,
                "end_time": 66.12045454545454,
                "pitch": 62,
                "velocity": 51,
                "duration": 0.09999999999999432,
                "tempo": 120.0
            },
            {
                "start_time": 66.13636363636364,
                "end_time": 66.35454545454544,
                "pitch": 62,
                "velocity": 51,
                "duration": 0.2181818181818045,
                "tempo": 120.0
            },
            {
                "start_time": 66.37045454545454,
                "end_time": 66.47272727272727,
                "pitch": 62,
                "velocity": 51,
                "duration": 0.10227272727273373,
                "tempo": 120.0
            },
            {
                "start_time": 66.72045454545454,
                "end_time": 66.93409090909091,
                "pitch": 62,
                "velocity": 51,
                "duration": 0.2136363636363683,
                "tempo": 120.0
            },
            {
                "start_time": 66.95,
                "end_time": 67.04772727272727,
                "pitch": 64,
                "velocity": 51,
                "duration": 0.09772727272726911,
                "tempo": 120.0
            },
            {
                "start_time": 67.06363636363636,
                "end_time": 67.28181818181818,
                "pitch": 64,
                "velocity": 51,
                "duration": 0.2181818181818187,
                "tempo": 120.0
            },
            {
                "start_time": 67.29772727272727,
                "end_time": 67.39999999999999,
                "pitch": 64,
                "velocity": 51,
                "duration": 0.10227272727271952,
                "tempo": 120.0
            },
            {
                "start_time": 67.64999999999999,
                "end_time": 67.86818181818181,
                "pitch": 64,
                "velocity": 51,
                "duration": 0.2181818181818187,
                "tempo": 120.0
            },
            {
                "start_time": 67.8840909090909,
                "end_time": 68.1,
                "pitch": 64,
                "velocity": 51,
                "duration": 0.2159090909090935,
                "tempo": 120.0
            },
            {
                "start_time": 68.11590909090908,
                "end_time": 68.32954545454545,
                "pitch": 64,
                "velocity": 51,
                "duration": 0.2136363636363683,
                "tempo": 120.0
            },
            {
                "start_time": 68.34545454545454,
                "end_time": 68.44318181818181,
                "pitch": 64,
                "velocity": 51,
                "duration": 0.09772727272726911,
                "tempo": 120.0
            },
            {
                "start_time": 68.46136363636363,
                "end_time": 68.67727272727272,
                "pitch": 64,
                "velocity": 51,
                "duration": 0.2159090909090935,
                "tempo": 120.0
            },
            {
                "start_time": 68.69545454545454,
                "end_time": 68.91363636363636,
                "pitch": 64,
                "velocity": 51,
                "duration": 0.2181818181818187,
                "tempo": 120.0
            },
            {
                "start_time": 68.92954545454545,
                "end_time": 69.14772727272727,
                "pitch": 60,
                "velocity": 51,
                "duration": 0.2181818181818187,
                "tempo": 120.0
            },
            {
                "start_time": 69.16363636363636,
                "end_time": 69.26363636363637,
                "pitch": 60,
                "velocity": 51,
                "duration": 0.10000000000000853,
                "tempo": 120.0
            },
            {
                "start_time": 69.51363636363637,
                "end_time": 69.725,
                "pitch": 60,
                "velocity": 51,
                "duration": 0.21136363636362887,
                "tempo": 120.0
            },
            {
                "start_time": 69.74090909090908,
                "end_time": 69.8409090909091,
                "pitch": 62,
                "velocity": 51,
                "duration": 0.10000000000000853,
                "tempo": 120.0
            },
            {
                "start_time": 69.85681818181818,
                "end_time": 70.075,
                "pitch": 62,
                "velocity": 51,
                "duration": 0.2181818181818187,
                "tempo": 120.0
            },
            {
                "start_time": 70.0909090909091,
                "end_time": 70.19090909090909,
                "pitch": 62,
                "velocity": 51,
                "duration": 0.09999999999999432,
                "tempo": 120.0
            },
            {
                "start_time": 70.44318181818181,
                "end_time": 70.66136363636363,
                "pitch": 62,
                "velocity": 51,
                "duration": 0.2181818181818187,
                "tempo": 120.0
            },
            {
                "start_time": 70.67727272727272,
                "end_time": 70.77727272727273,
                "pitch": 64,
                "velocity": 51,
                "duration": 0.10000000000000853,
                "tempo": 120.0
            },
            {
                "start_time": 70.79545454545455,
                "end_time": 71.00681818181818,
                "pitch": 64,
                "velocity": 51,
                "duration": 0.21136363636362887,
                "tempo": 120.0
            },
            {
                "start_time": 71.02272727272727,
                "end_time": 71.12272727272727,
                "pitch": 64,
                "velocity": 51,
                "duration": 0.10000000000000853,
                "tempo": 120.0
            },
            {
                "start_time": 71.37045454545454,
                "end_time": 71.58863636363635,
                "pitch": 64,
                "velocity": 51,
                "duration": 0.2181818181818187,
                "tempo": 120.0
            },
            {
                "start_time": 71.60454545454544,
                "end_time": 71.82272727272726,
                "pitch": 64,
                "velocity": 51,
                "duration": 0.2181818181818187,
                "tempo": 120.0
            },
            {
                "start_time": 71.83863636363635,
                "end_time": 72.05681818181817,
                "pitch": 64,
                "velocity": 51,
                "duration": 0.2181818181818187,
                "tempo": 120.0
            },
            {
                "start_time": 72.07272727272726,
                "end_time": 72.175,
                "pitch": 64,
                "velocity": 51,
                "duration": 0.10227272727273373,
                "tempo": 120.0
            },
            {
                "start_time": 72.19090909090909,
                "end_time": 72.40454545454546,
                "pitch": 64,
                "velocity": 51,
                "duration": 0.2136363636363683,
                "tempo": 120.0
            },
            {
                "start_time": 72.42045454545455,
                "end_time": 72.63181818181818,
                "pitch": 64,
                "velocity": 51,
                "duration": 0.21136363636362887,
                "tempo": 120.0
            },
            {
                "start_time": 72.64999999999999,
                "end_time": 72.86590909090908,
                "pitch": 67,
                "velocity": 51,
                "duration": 0.2159090909090935,
                "tempo": 120.0
            },
            {
                "start_time": 76.36818181818181,
                "end_time": 76.70454545454545,
                "pitch": 64,
                "velocity": 51,
                "duration": 0.3363636363636431,
                "tempo": 120.0
            },
            {
                "start_time": 76.72045454545454,
                "end_time": 76.82045454545454,
                "pitch": 64,
                "velocity": 51,
                "duration": 0.09999999999999432,
                "tempo": 120.0
            },
            {
                "start_time": 77.07272727272726,
                "end_time": 77.29090909090908,
                "pitch": 64,
                "velocity": 51,
                "duration": 0.2181818181818187,
                "tempo": 120.0
            },
            {
                "start_time": 77.54090909090908,
                "end_time": 77.64090909090909,
                "pitch": 62,
                "velocity": 51,
                "duration": 0.10000000000000853,
                "tempo": 120.0
            },
            {
                "start_time": 77.77499999999999,
                "end_time": 77.98863636363636,
                "pitch": 64,
                "velocity": 51,
                "duration": 0.2136363636363683,
                "tempo": 120.0
            },
            {
                "start_time": 78.23409090909091,
                "end_time": 78.56818181818181,
                "pitch": 64,
                "velocity": 51,
                "duration": 0.33409090909090366,
                "tempo": 120.0
            },
            {
                "start_time": 78.58636363636363,
                "end_time": 78.68636363636364,
                "pitch": 64,
                "velocity": 51,
                "duration": 0.10000000000000853,
                "tempo": 120.0
            },
            {
                "start_time": 78.93863636363636,
                "end_time": 79.15454545454546,
                "pitch": 64,
                "velocity": 51,
                "duration": 0.2159090909090935,
                "tempo": 120.0
            },
            {
                "start_time": 79.40681818181818,
                "end_time": 79.50681818181818,
                "pitch": 62,
                "velocity": 51,
                "duration": 0.09999999999999432,
                "tempo": 120.0
            },
            {
                "start_time": 79.64090909090909,
                "end_time": 79.85454545454544,
                "pitch": 64,
                "velocity": 51,
                "duration": 0.21363636363635408,
                "tempo": 120.0
            },
            {
                "start_time": 80.1,
                "end_time": 80.42727272727272,
                "pitch": 64,
                "velocity": 51,
                "duration": 0.32727272727272805,
                "tempo": 120.0
            },
            {
                "start_time": 80.44318181818181,
                "end_time": 80.54090909090908,
                "pitch": 64,
                "velocity": 51,
                "duration": 0.09772727272726911,
                "tempo": 120.0
            },
            {
                "start_time": 80.79318181818181,
                "end_time": 81.0090909090909,
                "pitch": 64,
                "velocity": 51,
                "duration": 0.2159090909090935,
                "tempo": 120.0
            },
            {
                "start_time": 81.26136363636363,
                "end_time": 81.36136363636363,
                "pitch": 62,
                "velocity": 51,
                "duration": 0.10000000000000853,
                "tempo": 120.0
            },
            {
                "start_time": 81.49545454545454,
                "end_time": 81.7090909090909,
                "pitch": 64,
                "velocity": 51,
                "duration": 0.2136363636363683,
                "tempo": 120.0
            },
            {
                "start_time": 81.95454545454545,
                "end_time": 82.28863636363636,
                "pitch": 64,
                "velocity": 51,
                "duration": 0.33409090909090366,
                "tempo": 120.0
            },
            {
                "start_time": 82.30454545454545,
                "end_time": 82.40681818181818,
                "pitch": 64,
                "velocity": 51,
                "duration": 0.10227272727273373,
                "tempo": 120.0
            },
            {
                "start_time": 82.65681818181818,
                "end_time": 82.875,
                "pitch": 64,
                "velocity": 51,
                "duration": 0.2181818181818187,
                "tempo": 120.0
            },
            {
                "start_time": 83.12727272727273,
                "end_time": 83.22727272727272,
                "pitch": 62,
                "velocity": 51,
                "duration": 0.09999999999999432,
                "tempo": 120.0
            },
            {
                "start_time": 83.36136363636363,
                "end_time": 83.57272727272726,
                "pitch": 64,
                "velocity": 51,
                "duration": 0.21136363636362887,
                "tempo": 120.0
            },
            {
                "start_time": 83.81818181818181,
                "end_time": 84.03636363636363,
                "pitch": 59,
                "velocity": 51,
                "duration": 0.2181818181818187,
                "tempo": 120.0
            },
            {
                "start_time": 84.05454545454545,
                "end_time": 84.27045454545454,
                "pitch": 59,
                "velocity": 51,
                "duration": 0.2159090909090935,
                "tempo": 120.0
            },
            {
                "start_time": 84.40454545454546,
                "end_time": 84.50681818181818,
                "pitch": 59,
                "velocity": 51,
                "duration": 0.10227272727271952,
                "tempo": 120.0
            },
            {
                "start_time": 84.63863636363637,
                "end_time": 84.85454545454544,
                "pitch": 59,
                "velocity": 51,
                "duration": 0.21590909090907928,
                "tempo": 120.0
            },
            {
                "start_time": 84.87045454545454,
                "end_time": 84.97045454545454,
                "pitch": 59,
                "velocity": 51,
                "duration": 0.10000000000000853,
                "tempo": 120.0
            },
            {
                "start_time": 85.1,
                "end_time": 85.19772727272726,
                "pitch": 59,
                "velocity": 51,
                "duration": 0.09772727272726911,
                "tempo": 120.0
            },
            {
                "start_time": 85.2159090909091,
                "end_time": 85.43181818181817,
                "pitch": 59,
                "velocity": 51,
                "duration": 0.21590909090907928,
                "tempo": 120.0
            },
            {
                "start_time": 85.45,
                "end_time": 85.66818181818181,
                "pitch": 59,
                "velocity": 51,
                "duration": 0.2181818181818045,
                "tempo": 120.0
            },
            {
                "start_time": 85.6840909090909,
                "end_time": 85.90227272727272,
                "pitch": 57,
                "velocity": 51,
                "duration": 0.2181818181818187,
                "tempo": 120.0
            },
            {
                "start_time": 85.91818181818181,
                "end_time": 86.13636363636363,
                "pitch": 57,
                "velocity": 51,
                "duration": 0.2181818181818187,
                "tempo": 120.0
            },
            {
                "start_time": 86.27045454545454,
                "end_time": 86.37045454545454,
                "pitch": 57,
                "velocity": 51,
                "duration": 0.09999999999999432,
                "tempo": 120.0
            },
            {
                "start_time": 86.50454545454545,
                "end_time": 86.72045454545454,
                "pitch": 57,
                "velocity": 51,
                "duration": 0.2159090909090935,
                "tempo": 120.0
            },
            {
                "start_time": 86.73636363636363,
                "end_time": 86.8340909090909,
                "pitch": 57,
                "velocity": 51,
                "duration": 0.09772727272726911,
                "tempo": 120.0
            },
            {
                "start_time": 86.9659090909091,
                "end_time": 87.06363636363636,
                "pitch": 57,
                "velocity": 51,
                "duration": 0.09772727272726911,
                "tempo": 120.0
            },
            {
                "start_time": 87.07954545454545,
                "end_time": 87.18181818181817,
                "pitch": 57,
                "velocity": 51,
                "duration": 0.10227272727271952,
                "tempo": 120.0
            },
            {
                "start_time": 87.19772727272726,
                "end_time": 87.29772727272727,
                "pitch": 57,
                "velocity": 51,
                "duration": 0.10000000000000853,
                "tempo": 120.0
            },
            {
                "start_time": 87.31590909090909,
                "end_time": 87.53181818181818,
                "pitch": 57,
                "velocity": 51,
                "duration": 0.2159090909090935,
                "tempo": 120.0
            },
            {
                "start_time": 87.55,
                "end_time": 87.76136363636363,
                "pitch": 57,
                "velocity": 51,
                "duration": 0.21136363636362887,
                "tempo": 120.0
            },
            {
                "start_time": 87.77727272727272,
                "end_time": 87.99090909090908,
                "pitch": 57,
                "velocity": 51,
                "duration": 0.2136363636363683,
                "tempo": 120.0
            },
            {
                "start_time": 88.125,
                "end_time": 88.225,
                "pitch": 57,
                "velocity": 51,
                "duration": 0.09999999999999432,
                "tempo": 120.0
            },
            {
                "start_time": 88.35909090909091,
                "end_time": 88.57727272727273,
                "pitch": 57,
                "velocity": 51,
                "duration": 0.2181818181818187,
                "tempo": 120.0
            },
            {
                "start_time": 88.59318181818182,
                "end_time": 88.69318181818181,
                "pitch": 57,
                "velocity": 51,
                "duration": 0.09999999999999432,
                "tempo": 120.0
            },
            {
                "start_time": 88.82727272727273,
                "end_time": 88.92954545454545,
                "pitch": 57,
                "velocity": 51,
                "duration": 0.10227272727271952,
                "tempo": 120.0
            },
            {
                "start_time": 88.94545454545454,
                "end_time": 89.16363636363636,
                "pitch": 57,
                "velocity": 51,
                "duration": 0.2181818181818187,
                "tempo": 120.0
            },
            {
                "start_time": 89.17954545454545,
                "end_time": 89.39772727272727,
                "pitch": 57,
                "velocity": 51,
                "duration": 0.2181818181818187,
                "tempo": 120.0
            },
            {
                "start_time": 89.41363636363636,
                "end_time": 89.62727272727273,
                "pitch": 59,
                "velocity": 51,
                "duration": 0.2136363636363683,
                "tempo": 120.0
            },
            {
                "start_time": 89.64318181818182,
                "end_time": 89.85681818181818,
                "pitch": 59,
                "velocity": 51,
                "duration": 0.2136363636363683,
                "tempo": 120.0
            },
            {
                "start_time": 89.99090909090908,
                "end_time": 90.0909090909091,
                "pitch": 59,
                "velocity": 51,
                "duration": 0.10000000000000853,
                "tempo": 120.0
            },
            {
                "start_time": 90.225,
                "end_time": 90.44090909090909,
                "pitch": 59,
                "velocity": 51,
                "duration": 0.2159090909090935,
                "tempo": 120.0
            },
            {
                "start_time": 90.45681818181818,
                "end_time": 90.55454545454545,
                "pitch": 59,
                "velocity": 51,
                "duration": 0.09772727272726911,
                "tempo": 120.0
            },
            {
                "start_time": 90.68636363636364,
                "end_time": 90.7840909090909,
                "pitch": 59,
                "velocity": 51,
                "duration": 0.09772727272726911,
                "tempo": 120.0
            },
            {
                "start_time": 90.8,
                "end_time": 90.89999999999999,
                "pitch": 59,
                "velocity": 51,
                "duration": 0.09999999999999432,
                "tempo": 120.0
            },
            {
                "start_time": 90.91590909090908,
                "end_time": 91.01818181818182,
                "pitch": 59,
                "velocity": 51,
                "duration": 0.10227272727273373,
                "tempo": 120.0
            },
            {
                "start_time": 91.0340909090909,
                "end_time": 91.25227272727273,
                "pitch": 59,
                "velocity": 51,
                "duration": 0.2181818181818187,
                "tempo": 120.0
            },
            {
                "start_time": 91.26818181818182,
                "end_time": 91.48636363636363,
                "pitch": 59,
                "velocity": 51,
                "duration": 0.2181818181818187,
                "tempo": 120.0
            },
            {
                "start_time": 91.50227272727273,
                "end_time": 91.72045454545454,
                "pitch": 59,
                "velocity": 51,
                "duration": 0.2181818181818187,
                "tempo": 120.0
            },
            {
                "start_time": 91.85454545454544,
                "end_time": 91.95454545454545,
                "pitch": 59,
                "velocity": 51,
                "duration": 0.10000000000000853,
                "tempo": 120.0
            },
            {
                "start_time": 92.08863636363635,
                "end_time": 92.30454545454545,
                "pitch": 59,
                "velocity": 51,
                "duration": 0.2159090909090935,
                "tempo": 120.0
            },
            {
                "start_time": 92.32045454545454,
                "end_time": 92.42045454545455,
                "pitch": 59,
                "velocity": 51,
                "duration": 0.10000000000000853,
                "tempo": 120.0
            },
            {
                "start_time": 92.55,
                "end_time": 92.64772727272727,
                "pitch": 59,
                "velocity": 51,
                "duration": 0.09772727272726911,
                "tempo": 120.0
            },
            {
                "start_time": 92.66590909090908,
                "end_time": 92.88181818181818,
                "pitch": 59,
                "velocity": 51,
                "duration": 0.2159090909090935,
                "tempo": 120.0
            },
            {
                "start_time": 92.89999999999999,
                "end_time": 93.11818181818181,
                "pitch": 59,
                "velocity": 51,
                "duration": 0.2181818181818187,
                "tempo": 120.0
            },
            {
                "start_time": 93.1340909090909,
                "end_time": 93.34772727272727,
                "pitch": 57,
                "velocity": 51,
                "duration": 0.2136363636363683,
                "tempo": 120.0
            },
            {
                "start_time": 93.36363636363636,
                "end_time": 93.57499999999999,
                "pitch": 57,
                "velocity": 51,
                "duration": 0.21136363636362887,
                "tempo": 120.0
            },
            {
                "start_time": 93.7090909090909,
                "end_time": 93.8090909090909,
                "pitch": 57,
                "velocity": 51,
                "duration": 0.09999999999999432,
                "tempo": 120.0
            },
            {
                "start_time": 93.94318181818181,
                "end_time": 94.16136363636363,
                "pitch": 57,
                "velocity": 51,
                "duration": 0.2181818181818187,
                "tempo": 120.0
            },
            {
                "start_time": 94.17727272727272,
                "end_time": 94.27954545454546,
                "pitch": 57,
                "velocity": 51,
                "duration": 0.10227272727273373,
                "tempo": 120.0
            },
            {
                "start_time": 94.41363636363636,
                "end_time": 94.51363636363637,
                "pitch": 57,
                "velocity": 51,
                "duration": 0.10000000000000853,
                "tempo": 120.0
            },
            {
                "start_time": 94.52954545454546,
                "end_time": 94.62954545454545,
                "pitch": 57,
                "velocity": 51,
                "duration": 0.09999999999999432,
                "tempo": 120.0
            },
            {
                "start_time": 94.64772727272727,
                "end_time": 94.74772727272727,
                "pitch": 57,
                "velocity": 51,
                "duration": 0.10000000000000853,
                "tempo": 120.0
            },
            {
                "start_time": 94.76363636363637,
                "end_time": 94.98181818181818,
                "pitch": 57,
                "velocity": 51,
                "duration": 0.2181818181818187,
                "tempo": 120.0
            },
            {
                "start_time": 95.0,
                "end_time": 95.21136363636363,
                "pitch": 57,
                "velocity": 51,
                "duration": 0.21136363636362887,
                "tempo": 120.0
            },
            {
                "start_time": 95.22727272727272,
                "end_time": 95.44090909090909,
                "pitch": 57,
                "velocity": 51,
                "duration": 0.2136363636363683,
                "tempo": 120.0
            },
            {
                "start_time": 95.57499999999999,
                "end_time": 95.675,
                "pitch": 57,
                "velocity": 51,
                "duration": 0.10000000000000853,
                "tempo": 120.0
            },
            {
                "start_time": 95.8090909090909,
                "end_time": 96.02499999999999,
                "pitch": 57,
                "velocity": 51,
                "duration": 0.2159090909090935,
                "tempo": 120.0
            },
            {
                "start_time": 96.04090909090908,
                "end_time": 96.13863636363637,
                "pitch": 57,
                "velocity": 51,
                "duration": 0.09772727272728332,
                "tempo": 120.0
            },
            {
                "start_time": 96.27045454545454,
                "end_time": 96.36818181818181,
                "pitch": 57,
                "velocity": 51,
                "duration": 0.09772727272726911,
                "tempo": 120.0
            },
            {
                "start_time": 96.3840909090909,
                "end_time": 96.60227272727272,
                "pitch": 57,
                "velocity": 51,
                "duration": 0.2181818181818187,
                "tempo": 120.0
            },
            {
                "start_time": 96.61818181818181,
                "end_time": 96.83636363636363,
                "pitch": 57,
                "velocity": 51,
                "duration": 0.2181818181818187,
                "tempo": 120.0
            },
            {
                "start_time": 96.85454545454544,
                "end_time": 96.95454545454545,
                "pitch": 64,
                "velocity": 51,
                "duration": 0.10000000000000853,
                "tempo": 120.0
            },
            {
                "start_time": 96.97045454545454,
                "end_time": 97.07045454545454,
                "pitch": 64,
                "velocity": 51,
                "duration": 0.09999999999999432,
                "tempo": 120.0
            },
            {
                "start_time": 97.08863636363635,
                "end_time": 97.18863636363636,
                "pitch": 64,
                "velocity": 51,
                "duration": 0.10000000000000853,
                "tempo": 120.0
            },
            {
                "start_time": 97.55227272727272,
                "end_time": 97.64999999999999,
                "pitch": 64,
                "velocity": 51,
                "duration": 0.09772727272726911,
                "tempo": 120.0
            },
            {
                "start_time": 97.66590909090908,
                "end_time": 97.76363636363637,
                "pitch": 64,
                "velocity": 51,
                "duration": 0.09772727272728332,
                "tempo": 120.0
            },
            {
                "start_time": 97.77954545454546,
                "end_time": 97.8840909090909,
                "pitch": 64,
                "velocity": 51,
                "duration": 0.10454545454544473,
                "tempo": 120.0
            },
            {
                "start_time": 98.71818181818182,
                "end_time": 98.93181818181817,
                "pitch": 60,
                "velocity": 51,
                "duration": 0.21363636363635408,
                "tempo": 120.0
            },
            {
                "start_time": 98.94772727272726,
                "end_time": 99.04545454545455,
                "pitch": 60,
                "velocity": 51,
                "duration": 0.09772727272728332,
                "tempo": 120.0
            },
            {
                "start_time": 99.29545454545455,
                "end_time": 99.51136363636363,
                "pitch": 60,
                "velocity": 51,
                "duration": 0.21590909090907928,
                "tempo": 120.0
            },
            {
                "start_time": 99.52954545454546,
                "end_time": 99.62954545454545,
                "pitch": 62,
                "velocity": 51,
                "duration": 0.09999999999999432,
                "tempo": 120.0
            },
            {
                "start_time": 99.64545454545454,
                "end_time": 99.86363636363636,
                "pitch": 62,
                "velocity": 51,
                "duration": 0.2181818181818187,
                "tempo": 120.0
            },
            {
                "start_time": 99.87954545454545,
                "end_time": 99.98181818181817,
                "pitch": 62,
                "velocity": 51,
                "duration": 0.10227272727271952,
                "tempo": 120.0
            },
            {
                "start_time": 100.22954545454544,
                "end_time": 100.44318181818181,
                "pitch": 62,
                "velocity": 51,
                "duration": 0.2136363636363683,
                "tempo": 120.0
            },
            {
                "start_time": 100.4590909090909,
                "end_time": 100.55681818181817,
                "pitch": 64,
                "velocity": 51,
                "duration": 0.09772727272726911,
                "tempo": 120.0
            },
            {
                "start_time": 100.57272727272726,
                "end_time": 100.79090909090908,
                "pitch": 64,
                "velocity": 51,
                "duration": 0.2181818181818187,
                "tempo": 120.0
            },
            {
                "start_time": 100.80681818181817,
                "end_time": 100.9090909090909,
                "pitch": 64,
                "velocity": 51,
                "duration": 0.10227272727273373,
                "tempo": 120.0
            },
            {
                "start_time": 101.1590909090909,
                "end_time": 101.37727272727273,
                "pitch": 64,
                "velocity": 51,
                "duration": 0.2181818181818187,
                "tempo": 120.0
            },
            {
                "start_time": 101.39318181818182,
                "end_time": 101.60909090909091,
                "pitch": 64,
                "velocity": 51,
                "duration": 0.2159090909090935,
                "tempo": 120.0
            },
            {
                "start_time": 101.625,
                "end_time": 101.83863636363635,
                "pitch": 64,
                "velocity": 51,
                "duration": 0.21363636363635408,
                "tempo": 120.0
            },
            {
                "start_time": 101.85454545454544,
                "end_time": 101.95227272727273,
                "pitch": 64,
                "velocity": 51,
                "duration": 0.09772727272728332,
                "tempo": 120.0
            },
            {
                "start_time": 101.97045454545454,
                "end_time": 102.18636363636364,
                "pitch": 64,
                "velocity": 51,
                "duration": 0.2159090909090935,
                "tempo": 120.0
            },
            {
                "start_time": 102.20454545454545,
                "end_time": 102.42272727272727,
                "pitch": 64,
                "velocity": 51,
                "duration": 0.2181818181818187,
                "tempo": 120.0
            },
            {
                "start_time": 102.43863636363636,
                "end_time": 102.65681818181818,
                "pitch": 60,
                "velocity": 51,
                "duration": 0.2181818181818187,
                "tempo": 120.0
            },
            {
                "start_time": 102.67272727272727,
                "end_time": 102.77272727272727,
                "pitch": 60,
                "velocity": 51,
                "duration": 0.09999999999999432,
                "tempo": 120.0
            },
            {
                "start_time": 103.02272727272727,
                "end_time": 103.23409090909091,
                "pitch": 60,
                "velocity": 51,
                "duration": 0.21136363636364308,
                "tempo": 120.0
            },
            {
                "start_time": 103.25,
                "end_time": 103.35,
                "pitch": 62,
                "velocity": 51,
                "duration": 0.09999999999999432,
                "tempo": 120.0
            },
            {
                "start_time": 103.36590909090908,
                "end_time": 103.5840909090909,
                "pitch": 62,
                "velocity": 51,
                "duration": 0.2181818181818187,
                "tempo": 120.0
            },
            {
                "start_time": 103.6,
                "end_time": 103.69999999999999,
                "pitch": 62,
                "velocity": 51,
                "duration": 0.09999999999999432,
                "tempo": 120.0
            },
            {
                "start_time": 103.94999999999999,
                "end_time": 104.16136363636363,
                "pitch": 62,
                "velocity": 51,
                "duration": 0.21136363636364308,
                "tempo": 120.0
            },
            {
                "start_time": 104.17727272727272,
                "end_time": 104.27727272727272,
                "pitch": 64,
                "velocity": 51,
                "duration": 0.09999999999999432,
                "tempo": 120.0
            },
            {
                "start_time": 104.29318181818181,
                "end_time": 104.51136363636363,
                "pitch": 64,
                "velocity": 51,
                "duration": 0.2181818181818187,
                "tempo": 120.0
            },
            {
                "start_time": 104.52727272727272,
                "end_time": 104.62727272727273,
                "pitch": 64,
                "velocity": 51,
                "duration": 0.10000000000000853,
                "tempo": 120.0
            },
            {
                "start_time": 104.87954545454545,
                "end_time": 105.09772727272727,
                "pitch": 64,
                "velocity": 51,
                "duration": 0.2181818181818187,
                "tempo": 120.0
            },
            {
                "start_time": 105.11363636363636,
                "end_time": 105.32954545454545,
                "pitch": 64,
                "velocity": 51,
                "duration": 0.2159090909090935,
                "tempo": 120.0
            },
            {
                "start_time": 105.34545454545454,
                "end_time": 105.55681818181817,
                "pitch": 64,
                "velocity": 51,
                "duration": 0.21136363636362887,
                "tempo": 120.0
            },
            {
                "start_time": 105.57499999999999,
                "end_time": 105.67272727272727,
                "pitch": 64,
                "velocity": 51,
                "duration": 0.09772727272728332,
                "tempo": 120.0
            },
            {
                "start_time": 105.68863636363636,
                "end_time": 105.90681818181818,
                "pitch": 64,
                "velocity": 51,
                "duration": 0.2181818181818187,
                "tempo": 120.0
            },
            {
                "start_time": 105.92272727272727,
                "end_time": 106.14090909090909,
                "pitch": 64,
                "velocity": 51,
                "duration": 0.2181818181818187,
                "tempo": 120.0
            },
            {
                "start_time": 106.15681818181818,
                "end_time": 106.375,
                "pitch": 60,
                "velocity": 51,
                "duration": 0.2181818181818187,
                "tempo": 120.0
            },
            {
                "start_time": 106.39318181818182,
                "end_time": 106.49318181818181,
                "pitch": 60,
                "velocity": 51,
                "duration": 0.09999999999999432,
                "tempo": 120.0
            },
            {
                "start_time": 106.74318181818181,
                "end_time": 106.96136363636363,
                "pitch": 60,
                "velocity": 51,
                "duration": 0.2181818181818187,
                "tempo": 120.0
            },
            {
                "start_time": 106.97954545454544,
                "end_time": 107.07954545454545,
                "pitch": 62,
                "velocity": 51,
                "duration": 0.10000000000000853,
                "tempo": 120.0
            },
            {
                "start_time": 107.09545454545454,
                "end_time": 107.3090909090909,
                "pitch": 62,
                "velocity": 51,
                "duration": 0.21363636363635408,
                "tempo": 120.0
            },
            {
                "start_time": 107.32499999999999,
                "end_time": 107.42272727272727,
                "pitch": 62,
                "velocity": 51,
                "duration": 0.09772727272728332,
                "tempo": 120.0
            },
            {
                "start_time": 107.67045454545455,
                "end_time": 107.88863636363637,
                "pitch": 62,
                "velocity": 51,
                "duration": 0.2181818181818187,
                "tempo": 120.0
            },
            {
                "start_time": 107.90681818181818,
                "end_time": 108.00681818181818,
                "pitch": 64,
                "velocity": 51,
                "duration": 0.09999999999999432,
                "tempo": 120.0
            },
            {
                "start_time": 108.02272727272727,
                "end_time": 108.24090909090908,
                "pitch": 64,
                "velocity": 51,
                "duration": 0.2181818181818187,
                "tempo": 120.0
            },
            {
                "start_time": 108.25681818181818,
                "end_time": 108.35909090909091,
                "pitch": 64,
                "velocity": 51,
                "duration": 0.10227272727273373,
                "tempo": 120.0
            },
            {
                "start_time": 108.60681818181817,
                "end_time": 108.81818181818181,
                "pitch": 64,
                "velocity": 51,
                "duration": 0.21136363636364308,
                "tempo": 120.0
            },
            {
                "start_time": 108.83636363636363,
                "end_time": 109.05,
                "pitch": 64,
                "velocity": 51,
                "duration": 0.2136363636363683,
                "tempo": 120.0
            },
            {
                "start_time": 109.06818181818181,
                "end_time": 109.28636363636363,
                "pitch": 64,
                "velocity": 51,
                "duration": 0.2181818181818187,
                "tempo": 120.0
            },
            {
                "start_time": 109.30227272727272,
                "end_time": 109.40227272727272,
                "pitch": 64,
                "velocity": 51,
                "duration": 0.09999999999999432,
                "tempo": 120.0
            },
            {
                "start_time": 109.41818181818181,
                "end_time": 109.63636363636363,
                "pitch": 64,
                "velocity": 51,
                "duration": 0.2181818181818187,
                "tempo": 120.0
            },
            {
                "start_time": 109.65454545454546,
                "end_time": 109.87045454545454,
                "pitch": 64,
                "velocity": 51,
                "duration": 0.21590909090907928,
                "tempo": 120.0
            },
            {
                "start_time": 109.88863636363635,
                "end_time": 110.1,
                "pitch": 60,
                "velocity": 51,
                "duration": 0.21136363636364308,
                "tempo": 120.0
            },
            {
                "start_time": 110.11818181818181,
                "end_time": 110.21590909090908,
                "pitch": 60,
                "velocity": 51,
                "duration": 0.09772727272726911,
                "tempo": 120.0
            },
            {
                "start_time": 110.46363636363635,
                "end_time": 110.68181818181817,
                "pitch": 60,
                "velocity": 51,
                "duration": 0.2181818181818187,
                "tempo": 120.0
            },
            {
                "start_time": 110.69772727272726,
                "end_time": 110.79772727272727,
                "pitch": 62,
                "velocity": 51,
                "duration": 0.10000000000000853,
                "tempo": 120.0
            },
            {
                "start_time": 110.81590909090909,
                "end_time": 111.0340909090909,
                "pitch": 62,
                "velocity": 51,
                "duration": 0.2181818181818187,
                "tempo": 120.0
            },
            {
                "start_time": 111.05,
                "end_time": 111.14999999999999,
                "pitch": 62,
                "velocity": 51,
                "duration": 0.09999999999999432,
                "tempo": 120.0
            },
            {
                "start_time": 111.39999999999999,
                "end_time": 111.61136363636363,
                "pitch": 62,
                "velocity": 51,
                "duration": 0.21136363636364308,
                "tempo": 120.0
            },
            {
                "start_time": 111.62727272727273,
                "end_time": 111.72727272727272,
                "pitch": 64,
                "velocity": 51,
                "duration": 0.09999999999999432,
                "tempo": 120.0
            },
            {
                "start_time": 111.74318181818181,
                "end_time": 111.96136363636363,
                "pitch": 64,
                "velocity": 51,
                "duration": 0.2181818181818187,
                "tempo": 120.0
            },
            {
                "start_time": 111.97727272727272,
                "end_time": 112.07727272727273,
                "pitch": 64,
                "velocity": 51,
                "duration": 0.10000000000000853,
                "tempo": 120.0
            },
            {
                "start_time": 112.32954545454545,
                "end_time": 112.54772727272727,
                "pitch": 64,
                "velocity": 51,
                "duration": 0.2181818181818187,
                "tempo": 120.0
            },
            {
                "start_time": 112.56363636363636,
                "end_time": 112.77954545454546,
                "pitch": 64,
                "velocity": 51,
                "duration": 0.2159090909090935,
                "tempo": 120.0
            },
            {
                "start_time": 112.79545454545455,
                "end_time": 113.00681818181818,
                "pitch": 64,
                "velocity": 51,
                "duration": 0.21136363636362887,
                "tempo": 120.0
            },
            {
                "start_time": 113.02499999999999,
                "end_time": 113.12272727272726,
                "pitch": 64,
                "velocity": 51,
                "duration": 0.09772727272726911,
                "tempo": 120.0
            },
            {
                "start_time": 113.13863636363635,
                "end_time": 113.35681818181817,
                "pitch": 64,
                "velocity": 51,
                "duration": 0.2181818181818187,
                "tempo": 120.0
            },
            {
                "start_time": 113.37272727272726,
                "end_time": 113.59090909090908,
                "pitch": 64,
                "velocity": 51,
                "duration": 0.2181818181818187,
                "tempo": 120.0
            },
            {
                "start_time": 113.60681818181817,
                "end_time": 113.82499999999999,
                "pitch": 67,
                "velocity": 51,
                "duration": 0.2181818181818187,
                "tempo": 120.0
            },
            {
                "start_time": 117.44545454545454,
                "end_time": 117.54545454545455,
                "pitch": 52,
                "velocity": 51,
                "duration": 0.10000000000000853,
                "tempo": 120.0
            },
            {
                "start_time": 117.67954545454545,
                "end_time": 117.77954545454544,
                "pitch": 55,
                "velocity": 51,
                "duration": 0.09999999999999432,
                "tempo": 120.0
            },
            {
                "start_time": 117.90681818181818,
                "end_time": 118.00454545454545,
                "pitch": 57,
                "velocity": 51,
                "duration": 0.09772727272726911,
                "tempo": 120.0
            },
            {
                "start_time": 118.13181818181818,
                "end_time": 118.22727272727272,
                "pitch": 59,
                "velocity": 51,
                "duration": 0.0954545454545439,
                "tempo": 120.0
            },
            {
                "start_time": 118.36136363636363,
                "end_time": 118.46136363636363,
                "pitch": 57,
                "velocity": 51,
                "duration": 0.09999999999999432,
                "tempo": 120.0
            },
            {
                "start_time": 118.59545454545454,
                "end_time": 118.69545454545454,
                "pitch": 59,
                "velocity": 51,
                "duration": 0.09999999999999432,
                "tempo": 120.0
            },
            {
                "start_time": 118.82727272727273,
                "end_time": 118.925,
                "pitch": 62,
                "velocity": 51,
                "duration": 0.09772727272726911,
                "tempo": 120.0
            },
            {
                "start_time": 119.05681818181817,
                "end_time": 119.15454545454544,
                "pitch": 64,
                "velocity": 51,
                "duration": 0.09772727272726911,
                "tempo": 120.0
            },
            {
                "start_time": 119.29090909090908,
                "end_time": 119.39318181818182,
                "pitch": 64,
                "velocity": 51,
                "duration": 0.10227272727273373,
                "tempo": 120.0
            },
            {
                "start_time": 119.52954545454544,
                "end_time": 119.63181818181818,
                "pitch": 67,
                "velocity": 51,
                "duration": 0.10227272727273373,
                "tempo": 120.0
            },
            {
                "start_time": 119.76136363636363,
                "end_time": 119.85909090909091,
                "pitch": 69,
                "velocity": 51,
                "duration": 0.09772727272728332,
                "tempo": 120.0
            },
            {
                "start_time": 119.99090909090908,
                "end_time": 120.08863636363635,
                "pitch": 71,
                "velocity": 51,
                "duration": 0.09772727272726911,
                "tempo": 120.0
            },
            {
                "start_time": 120.22045454545454,
                "end_time": 120.31818181818181,
                "pitch": 74,
                "velocity": 51,
                "duration": 0.09772727272726911,
                "tempo": 120.0
            },
            {
                "start_time": 120.44999999999999,
                "end_time": 120.54772727272727,
                "pitch": 75,
                "velocity": 51,
                "duration": 0.09772727272728332,
                "tempo": 120.0
            },
            {
                "start_time": 120.68181818181817,
                "end_time": 122.41363636363636,
                "pitch": 76,
                "velocity": 51,
                "duration": 1.7318181818181841,
                "tempo": 120.0
            },
            {
                "start_time": 123.0090909090909,
                "end_time": 123.11363636363636,
                "pitch": 76,
                "velocity": 51,
                "duration": 0.10454545454545894,
                "tempo": 120.0
            },
            {
                "start_time": 123.25227272727273,
                "end_time": 123.35681818181817,
                "pitch": 76,
                "velocity": 51,
                "duration": 0.10454545454544473,
                "tempo": 120.0
            },
            {
                "start_time": 123.7090909090909,
                "end_time": 123.80681818181817,
                "pitch": 78,
                "velocity": 51,
                "duration": 0.09772727272726911,
                "tempo": 120.0
            },
            {
                "start_time": 123.93863636363636,
                "end_time": 124.04090909090908,
                "pitch": 78,
                "velocity": 51,
                "duration": 0.10227272727271952,
                "tempo": 120.0
            },
            {
                "start_time": 124.88181818181818,
                "end_time": 124.97954545454544,
                "pitch": 78,
                "velocity": 51,
                "duration": 0.09772727272726911,
                "tempo": 120.0
            },
            {
                "start_time": 125.11136363636363,
                "end_time": 125.2090909090909,
                "pitch": 78,
                "velocity": 51,
                "duration": 0.09772727272726911,
                "tempo": 120.0
            },
            {
                "start_time": 125.57045454545454,
                "end_time": 125.66818181818181,
                "pitch": 79,
                "velocity": 51,
                "duration": 0.09772727272726911,
                "tempo": 120.0
            },
            {
                "start_time": 125.80227272727272,
                "end_time": 125.90227272727272,
                "pitch": 79,
                "velocity": 51,
                "duration": 0.09999999999999432,
                "tempo": 120.0
            },
            {
                "start_time": 126.73863636363636,
                "end_time": 126.84090909090908,
                "pitch": 76,
                "velocity": 51,
                "duration": 0.10227272727271952,
                "tempo": 120.0
            },
            {
                "start_time": 126.975,
                "end_time": 127.07499999999999,
                "pitch": 76,
                "velocity": 51,
                "duration": 0.09999999999999432,
                "tempo": 120.0
            },
            {
                "start_time": 127.4340909090909,
                "end_time": 127.53181818181818,
                "pitch": 78,
                "velocity": 51,
                "duration": 0.09772727272728332,
                "tempo": 120.0
            },
            {
                "start_time": 127.66590909090908,
                "end_time": 127.76818181818182,
                "pitch": 78,
                "velocity": 51,
                "duration": 0.10227272727273373,
                "tempo": 120.0
            },
            {
                "start_time": 128.60454545454544,
                "end_time": 128.70454545454544,
                "pitch": 78,
                "velocity": 51,
                "duration": 0.09999999999999432,
                "tempo": 120.0
            },
            {
                "start_time": 128.83863636363637,
                "end_time": 128.93863636363636,
                "pitch": 78,
                "velocity": 51,
                "duration": 0.09999999999999432,
                "tempo": 120.0
            },
            {
                "start_time": 129.29090909090908,
                "end_time": 129.38863636363635,
                "pitch": 79,
                "velocity": 51,
                "duration": 0.09772727272726911,
                "tempo": 120.0
            },
            {
                "start_time": 129.52045454545453,
                "end_time": 129.62272727272727,
                "pitch": 79,
                "velocity": 51,
                "duration": 0.10227272727274794,
                "tempo": 120.0
            },
            {
                "start_time": 129.99318181818182,
                "end_time": 132.19772727272726,
                "pitch": 75,
                "velocity": 51,
                "duration": 2.204545454545439,
                "tempo": 120.0
            },
            {
                "start_time": 134.0681818181818,
                "end_time": 134.28636363636363,
                "pitch": 59,
                "velocity": 51,
                "duration": 0.2181818181818187,
                "tempo": 120.0
            },
            {
                "start_time": 134.30454545454546,
                "end_time": 134.40454545454546,
                "pitch": 59,
                "velocity": 51,
                "duration": 0.09999999999999432,
                "tempo": 120.0
            },
            {
                "start_time": 134.65454545454546,
                "end_time": 134.87272727272727,
                "pitch": 59,
                "velocity": 51,
                "duration": 0.2181818181818187,
                "tempo": 120.0
            },
            {
                "start_time": 134.89090909090908,
                "end_time": 135.10681818181817,
                "pitch": 59,
                "velocity": 51,
                "duration": 0.2159090909090935,
                "tempo": 120.0
            },
            {
                "start_time": 135.125,
                "end_time": 135.34318181818182,
                "pitch": 59,
                "velocity": 51,
                "duration": 0.2181818181818187,
                "tempo": 120.0
            },
            {
                "start_time": 135.47727272727272,
                "end_time": 135.575,
                "pitch": 59,
                "velocity": 51,
                "duration": 0.09772727272726911,
                "tempo": 120.0
            },
            {
                "start_time": 135.5909090909091,
                "end_time": 135.68863636363636,
                "pitch": 59,
                "velocity": 51,
                "duration": 0.09772727272726911,
                "tempo": 120.0
            },
            {
                "start_time": 135.70454545454544,
                "end_time": 135.9181818181818,
                "pitch": 57,
                "velocity": 51,
                "duration": 0.2136363636363683,
                "tempo": 120.0
            },
            {
                "start_time": 135.9340909090909,
                "end_time": 136.15227272727273,
                "pitch": 57,
                "velocity": 51,
                "duration": 0.2181818181818187,
                "tempo": 120.0
            },
            {
                "start_time": 136.1681818181818,
                "end_time": 136.27045454545453,
                "pitch": 57,
                "velocity": 51,
                "duration": 0.10227272727271952,
                "tempo": 120.0
            },
            {
                "start_time": 136.5181818181818,
                "end_time": 136.73181818181817,
                "pitch": 57,
                "velocity": 51,
                "duration": 0.2136363636363683,
                "tempo": 120.0
            },
            {
                "start_time": 136.74772727272727,
                "end_time": 136.96136363636364,
                "pitch": 57,
                "velocity": 51,
                "duration": 0.2136363636363683,
                "tempo": 120.0
            },
            {
                "start_time": 136.97954545454544,
                "end_time": 137.19772727272726,
                "pitch": 57,
                "velocity": 51,
                "duration": 0.2181818181818187,
                "tempo": 120.0
            },
            {
                "start_time": 137.32954545454544,
                "end_time": 137.4318181818182,
                "pitch": 57,
                "velocity": 51,
                "duration": 0.10227272727274794,
                "tempo": 120.0
            },
            {
                "start_time": 137.44772727272726,
                "end_time": 137.54772727272726,
                "pitch": 57,
                "velocity": 51,
                "duration": 0.09999999999999432,
                "tempo": 120.0
            },
            {
                "start_time": 137.5659090909091,
                "end_time": 137.78181818181818,
                "pitch": 57,
                "velocity": 51,
                "duration": 0.2159090909090935,
                "tempo": 120.0
            },
            {
                "start_time": 137.79999999999998,
                "end_time": 138.01136363636363,
                "pitch": 59,
                "velocity": 51,
                "duration": 0.21136363636364308,
                "tempo": 120.0
            },
            {
                "start_time": 138.02954545454546,
                "end_time": 138.12727272727273,
                "pitch": 59,
                "velocity": 51,
                "duration": 0.09772727272726911,
                "tempo": 120.0
            },
            {
                "start_time": 138.375,
                "end_time": 138.59318181818182,
                "pitch": 59,
                "velocity": 51,
                "duration": 0.2181818181818187,
                "tempo": 120.0
            },
            {
                "start_time": 138.6090909090909,
                "end_time": 138.82954545454544,
                "pitch": 59,
                "velocity": 51,
                "duration": 0.2204545454545439,
                "tempo": 120.0
            },
            {
                "start_time": 138.84772727272727,
                "end_time": 139.07045454545454,
                "pitch": 59,
                "velocity": 51,
                "duration": 0.2227272727272691,
                "tempo": 120.0
            },
            {
                "start_time": 139.20681818181816,
                "end_time": 139.3022727272727,
                "pitch": 59,
                "velocity": 51,
                "duration": 0.0954545454545439,
                "tempo": 120.0
            },
            {
                "start_time": 139.3181818181818,
                "end_time": 139.41363636363636,
                "pitch": 59,
                "velocity": 51,
                "duration": 0.0954545454545439,
                "tempo": 120.0
            },
            {
                "start_time": 139.42954545454546,
                "end_time": 139.63863636363635,
                "pitch": 57,
                "velocity": 51,
                "duration": 0.20909090909088945,
                "tempo": 120.0
            },
            {
                "start_time": 139.65454545454546,
                "end_time": 139.87272727272727,
                "pitch": 57,
                "velocity": 51,
                "duration": 0.2181818181818187,
                "tempo": 120.0
            },
            {
                "start_time": 139.88863636363635,
                "end_time": 139.98863636363635,
                "pitch": 57,
                "velocity": 51,
                "duration": 0.09999999999999432,
                "tempo": 120.0
            },
            {
                "start_time": 140.24090909090907,
                "end_time": 140.4590909090909,
                "pitch": 57,
                "velocity": 51,
                "duration": 0.2181818181818187,
                "tempo": 120.0
            },
            {
                "start_time": 140.475,
                "end_time": 140.6909090909091,
                "pitch": 57,
                "velocity": 51,
                "duration": 0.2159090909090935,
                "tempo": 120.0
            },
            {
                "start_time": 140.70681818181816,
                "end_time": 140.92045454545453,
                "pitch": 57,
                "velocity": 51,
                "duration": 0.2136363636363683,
                "tempo": 120.0
            },
            {
                "start_time": 141.04999999999998,
                "end_time": 141.15227272727273,
                "pitch": 61,
                "velocity": 51,
                "duration": 0.10227272727274794,
                "tempo": 120.0
            },
            {
                "start_time": 141.1681818181818,
                "end_time": 141.2681818181818,
                "pitch": 61,
                "velocity": 51,
                "duration": 0.09999999999999432,
                "tempo": 120.0
            },
            {
                "start_time": 141.2840909090909,
                "end_time": 141.50227272727273,
                "pitch": 57,
                "velocity": 51,
                "duration": 0.2181818181818187,
                "tempo": 120.0
            },
            {
                "start_time": 141.52045454545453,
                "end_time": 141.73636363636362,
                "pitch": 59,
                "velocity": 51,
                "duration": 0.2159090909090935,
                "tempo": 120.0
            },
            {
                "start_time": 141.75454545454545,
                "end_time": 141.85454545454544,
                "pitch": 59,
                "velocity": 51,
                "duration": 0.09999999999999432,
                "tempo": 120.0
            },
            {
                "start_time": 142.10227272727272,
                "end_time": 142.3159090909091,
                "pitch": 59,
                "velocity": 51,
                "duration": 0.2136363636363683,
                "tempo": 120.0
            },
            {
                "start_time": 142.33181818181816,
                "end_time": 142.54772727272726,
                "pitch": 59,
                "velocity": 51,
                "duration": 0.2159090909090935,
                "tempo": 120.0
            },
            {
                "start_time": 142.56363636363636,
                "end_time": 142.78181818181818,
                "pitch": 59,
                "velocity": 51,
                "duration": 0.2181818181818187,
                "tempo": 120.0
            },
            {
                "start_time": 142.91590909090908,
                "end_time": 143.01590909090908,
                "pitch": 59,
                "velocity": 51,
                "duration": 0.09999999999999432,
                "tempo": 120.0
            },
            {
                "start_time": 143.0340909090909,
                "end_time": 143.1340909090909,
                "pitch": 59,
                "velocity": 51,
                "duration": 0.09999999999999432,
                "tempo": 120.0
            },
            {
                "start_time": 143.15,
                "end_time": 143.36818181818182,
                "pitch": 57,
                "velocity": 51,
                "duration": 0.2181818181818187,
                "tempo": 120.0
            },
            {
                "start_time": 143.3840909090909,
                "end_time": 143.59772727272727,
                "pitch": 57,
                "velocity": 51,
                "duration": 0.2136363636363683,
                "tempo": 120.0
            },
            {
                "start_time": 143.61363636363635,
                "end_time": 143.71136363636364,
                "pitch": 57,
                "velocity": 51,
                "duration": 0.09772727272729753,
                "tempo": 120.0
            },
            {
                "start_time": 143.96136363636364,
                "end_time": 144.1772727272727,
                "pitch": 57,
                "velocity": 51,
                "duration": 0.21590909090906507,
                "tempo": 120.0
            },
            {
                "start_time": 144.19545454545454,
                "end_time": 144.41363636363636,
                "pitch": 57,
                "velocity": 51,
                "duration": 0.2181818181818187,
                "tempo": 120.0
            },
            {
                "start_time": 144.42954545454543,
                "end_time": 144.64772727272725,
                "pitch": 57,
                "velocity": 51,
                "duration": 0.2181818181818187,
                "tempo": 120.0
            },
            {
                "start_time": 144.78181818181818,
                "end_time": 144.87954545454545,
                "pitch": 57,
                "velocity": 51,
                "duration": 0.09772727272726911,
                "tempo": 120.0
            },
            {
                "start_time": 144.89545454545453,
                "end_time": 144.99318181818182,
                "pitch": 57,
                "velocity": 51,
                "duration": 0.09772727272729753,
                "tempo": 120.0
            },
            {
                "start_time": 145.0090909090909,
                "end_time": 145.22272727272727,
                "pitch": 57,
                "velocity": 51,
                "duration": 0.2136363636363683,
                "tempo": 120.0
            },
            {
                "start_time": 145.23863636363635,
                "end_time": 145.45681818181816,
                "pitch": 59,
                "velocity": 51,
                "duration": 0.2181818181818187,
                "tempo": 120.0
            },
            {
                "start_time": 145.47272727272727,
                "end_time": 145.575,
                "pitch": 59,
                "velocity": 51,
                "duration": 0.10227272727271952,
                "tempo": 120.0
            },
            {
                "start_time": 145.825,
                "end_time": 146.0431818181818,
                "pitch": 59,
                "velocity": 51,
                "duration": 0.2181818181818187,
                "tempo": 120.0
            },
            {
                "start_time": 146.0590909090909,
                "end_time": 146.27727272727273,
                "pitch": 59,
                "velocity": 51,
                "duration": 0.2181818181818187,
                "tempo": 120.0
            },
            {
                "start_time": 146.29545454545453,
                "end_time": 146.51136363636363,
                "pitch": 59,
                "velocity": 51,
                "duration": 0.2159090909090935,
                "tempo": 120.0
            },
            {
                "start_time": 146.64545454545453,
                "end_time": 146.74545454545455,
                "pitch": 59,
                "velocity": 51,
                "duration": 0.10000000000002274,
                "tempo": 120.0
            },
            {
                "start_time": 146.76136363636363,
                "end_time": 146.8590909090909,
                "pitch": 59,
                "velocity": 51,
                "duration": 0.09772727272726911,
                "tempo": 120.0
            },
            {
                "start_time": 146.875,
                "end_time": 147.08863636363637,
                "pitch": 57,
                "velocity": 51,
                "duration": 0.2136363636363683,
                "tempo": 120.0
            },
            {
                "start_time": 147.10454545454544,
                "end_time": 147.32272727272726,
                "pitch": 57,
                "velocity": 51,
                "duration": 0.2181818181818187,
                "tempo": 120.0
            },
            {
                "start_time": 147.33863636363637,
                "end_time": 147.43863636363636,
                "pitch": 57,
                "velocity": 51,
                "duration": 0.09999999999999432,
                "tempo": 120.0
            },
            {
                "start_time": 147.68863636363636,
                "end_time": 147.9,
                "pitch": 57,
                "velocity": 51,
                "duration": 0.21136363636364308,
                "tempo": 120.0
            },
            {
                "start_time": 147.91590909090908,
                "end_time": 148.01590909090908,
                "pitch": 57,
                "velocity": 51,
                "duration": 0.09999999999999432,
                "tempo": 120.0
            },
            {
                "start_time": 148.2022727272727,
                "end_time": 148.33636363636364,
                "pitch": 61,
                "velocity": 51,
                "duration": 0.13409090909092924,
                "tempo": 120.0
            },
            {
                "start_time": 148.35454545454544,
                "end_time": 148.49090909090907,
                "pitch": 61,
                "velocity": 51,
                "duration": 0.13636363636362603,
                "tempo": 120.0
            },
            {
                "start_time": 148.50681818181818,
                "end_time": 148.65454545454546,
                "pitch": 61,
                "velocity": 51,
                "duration": 0.14772727272728048,
                "tempo": 120.0
            },
            {
                "start_time": 148.67045454545453,
                "end_time": 148.8022727272727,
                "pitch": 61,
                "velocity": 51,
                "duration": 0.13181818181817562,
                "tempo": 120.0
            },
            {
                "start_time": 148.8181818181818,
                "end_time": 148.95,
                "pitch": 61,
                "velocity": 51,
                "duration": 0.13181818181817562,
                "tempo": 120.0
            },
            {
                "start_time": 148.9659090909091,
                "end_time": 149.17954545454543,
                "pitch": 59,
                "velocity": 51,
                "duration": 0.21363636363633987,
                "tempo": 120.0
            },
            {
                "start_time": 149.19545454545454,
                "end_time": 149.2931818181818,
                "pitch": 59,
                "velocity": 51,
                "duration": 0.09772727272726911,
                "tempo": 120.0
            },
            {
                "start_time": 149.54090909090908,
                "end_time": 149.7590909090909,
                "pitch": 59,
                "velocity": 51,
                "duration": 0.2181818181818187,
                "tempo": 120.0
            },
            {
                "start_time": 149.775,
                "end_time": 149.99318181818182,
                "pitch": 59,
                "velocity": 51,
                "duration": 0.2181818181818187,
                "tempo": 120.0
            },
            {
                "start_time": 150.01136363636363,
                "end_time": 150.22727272727272,
                "pitch": 59,
                "velocity": 51,
                "duration": 0.2159090909090935,
                "tempo": 120.0
            },
            {
                "start_time": 150.36136363636362,
                "end_time": 150.46136363636364,
                "pitch": 59,
                "velocity": 51,
                "duration": 0.10000000000002274,
                "tempo": 120.0
            },
            {
                "start_time": 150.47727272727272,
                "end_time": 150.575,
                "pitch": 59,
                "velocity": 51,
                "duration": 0.09772727272726911,
                "tempo": 120.0
            },
            {
                "start_time": 150.5909090909091,
                "end_time": 150.80454545454543,
                "pitch": 57,
                "velocity": 51,
                "duration": 0.21363636363633987,
                "tempo": 120.0
            },
            {
                "start_time": 150.82045454545454,
                "end_time": 151.03863636363636,
                "pitch": 57,
                "velocity": 51,
                "duration": 0.2181818181818187,
                "tempo": 120.0
            },
            {
                "start_time": 151.05454545454543,
                "end_time": 151.15454545454546,
                "pitch": 57,
                "velocity": 51,
                "duration": 0.10000000000002274,
                "tempo": 120.0
            },
            {
                "start_time": 151.40681818181818,
                "end_time": 151.625,
                "pitch": 57,
                "velocity": 51,
                "duration": 0.2181818181818187,
                "tempo": 120.0
            },
            {
                "start_time": 151.64090909090908,
                "end_time": 151.8590909090909,
                "pitch": 57,
                "velocity": 51,
                "duration": 0.2181818181818187,
                "tempo": 120.0
            },
            {
                "start_time": 151.875,
                "end_time": 152.09318181818182,
                "pitch": 57,
                "velocity": 51,
                "duration": 0.2181818181818187,
                "tempo": 120.0
            },
            {
                "start_time": 152.22727272727272,
                "end_time": 152.325,
                "pitch": 57,
                "velocity": 51,
                "duration": 0.09772727272726911,
                "tempo": 120.0
            },
            {
                "start_time": 152.3409090909091,
                "end_time": 152.4409090909091,
                "pitch": 57,
                "velocity": 51,
                "duration": 0.09999999999999432,
                "tempo": 120.0
            },
            {
                "start_time": 152.45681818181816,
                "end_time": 152.6681818181818,
                "pitch": 57,
                "velocity": 51,
                "duration": 0.21136363636364308,
                "tempo": 120.0
            },
            {
                "start_time": 152.68636363636364,
                "end_time": 152.90227272727273,
                "pitch": 59,
                "velocity": 51,
                "duration": 0.2159090909090935,
                "tempo": 120.0
            },
            {
                "start_time": 152.92045454545453,
                "end_time": 153.02045454545453,
                "pitch": 59,
                "velocity": 51,
                "duration": 0.09999999999999432,
                "tempo": 120.0
            },
            {
                "start_time": 153.2681818181818,
                "end_time": 153.48181818181817,
                "pitch": 59,
                "velocity": 51,
                "duration": 0.2136363636363683,
                "tempo": 120.0
            },
            {
                "start_time": 153.49772727272727,
                "end_time": 153.71363636363637,
                "pitch": 59,
                "velocity": 51,
                "duration": 0.2159090909090935,
                "tempo": 120.0
            },
            {
                "start_time": 153.72954545454544,
                "end_time": 153.94772727272726,
                "pitch": 59,
                "velocity": 51,
                "duration": 0.2181818181818187,
                "tempo": 120.0
            },
            {
                "start_time": 154.08181818181816,
                "end_time": 154.1818181818182,
                "pitch": 59,
                "velocity": 51,
                "duration": 0.10000000000002274,
                "tempo": 120.0
            },
            {
                "start_time": 154.2,
                "end_time": 154.29999999999998,
                "pitch": 59,
                "velocity": 51,
                "duration": 0.09999999999999432,
                "tempo": 120.0
            },
            {
                "start_time": 154.3159090909091,
                "end_time": 154.5340909090909,
                "pitch": 57,
                "velocity": 51,
                "duration": 0.2181818181818187,
                "tempo": 120.0
            },
            {
                "start_time": 154.54999999999998,
                "end_time": 154.76363636363635,
                "pitch": 57,
                "velocity": 51,
                "duration": 0.2136363636363683,
                "tempo": 120.0
            },
            {
                "start_time": 154.77954545454546,
                "end_time": 154.87727272727273,
                "pitch": 57,
                "velocity": 51,
                "duration": 0.09772727272726911,
                "tempo": 120.0
            },
            {
                "start_time": 155.125,
                "end_time": 155.34318181818182,
                "pitch": 57,
                "velocity": 51,
                "duration": 0.2181818181818187,
                "tempo": 120.0
            },
            {
                "start_time": 155.36136363636362,
                "end_time": 155.5772727272727,
                "pitch": 57,
                "velocity": 51,
                "duration": 0.2159090909090935,
                "tempo": 120.0
            },
            {
                "start_time": 155.59545454545454,
                "end_time": 155.81363636363636,
                "pitch": 57,
                "velocity": 51,
                "duration": 0.2181818181818187,
                "tempo": 120.0
            },
            {
                "start_time": 155.94772727272726,
                "end_time": 156.04545454545453,
                "pitch": 61,
                "velocity": 51,
                "duration": 0.09772727272726911,
                "tempo": 120.0
            },
            {
                "start_time": 156.06136363636364,
                "end_time": 156.1590909090909,
                "pitch": 61,
                "velocity": 51,
                "duration": 0.09772727272726911,
                "tempo": 120.0
            },
            {
                "start_time": 156.17499999999998,
                "end_time": 156.38863636363635,
                "pitch": 57,
                "velocity": 51,
                "duration": 0.2136363636363683,
                "tempo": 120.0
            },
            {
                "start_time": 156.40454545454546,
                "end_time": 156.62272727272727,
                "pitch": 59,
                "velocity": 51,
                "duration": 0.2181818181818187,
                "tempo": 120.0
            },
            {
                "start_time": 156.63863636363635,
                "end_time": 156.74090909090907,
                "pitch": 59,
                "velocity": 51,
                "duration": 0.10227272727271952,
                "tempo": 120.0
            },
            {
                "start_time": 156.99090909090907,
                "end_time": 157.2090909090909,
                "pitch": 59,
                "velocity": 51,
                "duration": 0.2181818181818187,
                "tempo": 120.0
            },
            {
                "start_time": 157.225,
                "end_time": 157.4431818181818,
                "pitch": 59,
                "velocity": 51,
                "duration": 0.2181818181818187,
                "tempo": 120.0
            },
            {
                "start_time": 157.46136363636361,
                "end_time": 157.6772727272727,
                "pitch": 59,
                "velocity": 51,
                "duration": 0.2159090909090935,
                "tempo": 120.0
            },
            {
                "start_time": 157.81136363636364,
                "end_time": 157.91136363636363,
                "pitch": 59,
                "velocity": 51,
                "duration": 0.09999999999999432,
                "tempo": 120.0
            },
            {
                "start_time": 157.9272727272727,
                "end_time": 158.025,
                "pitch": 59,
                "velocity": 51,
                "duration": 0.09772727272729753,
                "tempo": 120.0
            },
            {
                "start_time": 158.04090909090908,
                "end_time": 158.25454545454545,
                "pitch": 57,
                "velocity": 51,
                "duration": 0.2136363636363683,
                "tempo": 120.0
            },
            {
                "start_time": 158.27045454545453,
                "end_time": 158.48863636363635,
                "pitch": 57,
                "velocity": 51,
                "duration": 0.2181818181818187,
                "tempo": 120.0
            },
            {
                "start_time": 158.50454545454545,
                "end_time": 158.60454545454544,
                "pitch": 57,
                "velocity": 51,
                "duration": 0.09999999999999432,
                "tempo": 120.0
            },
            {
                "start_time": 158.85681818181817,
                "end_time": 159.075,
                "pitch": 57,
                "velocity": 51,
                "duration": 0.2181818181818187,
                "tempo": 120.0
            },
            {
                "start_time": 159.0909090909091,
                "end_time": 159.3068181818182,
                "pitch": 57,
                "velocity": 51,
                "duration": 0.2159090909090935,
                "tempo": 120.0
            },
            {
                "start_time": 159.32272727272726,
                "end_time": 159.53636363636363,
                "pitch": 57,
                "velocity": 51,
                "duration": 0.2136363636363683,
                "tempo": 120.0
            },
            {
                "start_time": 159.66590909090908,
                "end_time": 159.76590909090908,
                "pitch": 57,
                "velocity": 51,
                "duration": 0.09999999999999432,
                "tempo": 120.0
            },
            {
                "start_time": 159.7840909090909,
                "end_time": 159.8840909090909,
                "pitch": 57,
                "velocity": 51,
                "duration": 0.09999999999999432,
                "tempo": 120.0
            },
            {
                "start_time": 159.9,
                "end_time": 160.11818181818182,
                "pitch": 57,
                "velocity": 51,
                "duration": 0.2181818181818187,
                "tempo": 120.0
            },
            {
                "start_time": 160.13636363636363,
                "end_time": 160.34772727272727,
                "pitch": 59,
                "velocity": 51,
                "duration": 0.21136363636364308,
                "tempo": 120.0
            },
            {
                "start_time": 160.36363636363635,
                "end_time": 160.46363636363637,
                "pitch": 59,
                "velocity": 51,
                "duration": 0.10000000000002274,
                "tempo": 120.0
            },
            {
                "start_time": 160.71136363636361,
                "end_time": 160.92954545454543,
                "pitch": 59,
                "velocity": 51,
                "duration": 0.2181818181818187,
                "tempo": 120.0
            },
            {
                "start_time": 160.94545454545454,
                "end_time": 161.16363636363636,
                "pitch": 59,
                "velocity": 51,
                "duration": 0.2181818181818187,
                "tempo": 120.0
            },
            {
                "start_time": 161.17954545454543,
                "end_time": 161.39772727272725,
                "pitch": 59,
                "velocity": 51,
                "duration": 0.2181818181818187,
                "tempo": 120.0
            },
            {
                "start_time": 161.53181818181818,
                "end_time": 161.62954545454545,
                "pitch": 59,
                "velocity": 51,
                "duration": 0.09772727272726911,
                "tempo": 120.0
            },
            {
                "start_time": 161.64545454545453,
                "end_time": 161.74318181818182,
                "pitch": 59,
                "velocity": 51,
                "duration": 0.09772727272729753,
                "tempo": 120.0
            },
            {
                "start_time": 161.76136363636363,
                "end_time": 161.97272727272727,
                "pitch": 57,
                "velocity": 51,
                "duration": 0.21136363636364308,
                "tempo": 120.0
            },
            {
                "start_time": 161.98863636363635,
                "end_time": 162.20681818181816,
                "pitch": 57,
                "velocity": 51,
                "duration": 0.2181818181818187,
                "tempo": 120.0
            },
            {
                "start_time": 162.225,
                "end_time": 162.325,
                "pitch": 57,
                "velocity": 51,
                "duration": 0.09999999999999432,
                "tempo": 120.0
            },
            {
                "start_time": 162.575,
                "end_time": 162.7931818181818,
                "pitch": 57,
                "velocity": 51,
                "duration": 0.2181818181818187,
                "tempo": 120.0
            },
            {
                "start_time": 162.81136363636364,
                "end_time": 162.91136363636363,
                "pitch": 57,
                "velocity": 51,
                "duration": 0.09999999999999432,
                "tempo": 120.0
            },
            {
                "start_time": 163.09545454545454,
                "end_time": 163.22954545454544,
                "pitch": 61,
                "velocity": 51,
                "duration": 0.13409090909090082,
                "tempo": 120.0
            },
            {
                "start_time": 163.24545454545455,
                "end_time": 163.37954545454545,
                "pitch": 61,
                "velocity": 51,
                "duration": 0.13409090909090082,
                "tempo": 120.0
            },
            {
                "start_time": 163.39772727272725,
                "end_time": 163.54772727272726,
                "pitch": 61,
                "velocity": 51,
                "duration": 0.15000000000000568,
                "tempo": 120.0
            },
            {
                "start_time": 163.56363636363636,
                "end_time": 163.69772727272726,
                "pitch": 61,
                "velocity": 51,
                "duration": 0.13409090909090082,
                "tempo": 120.0
            },
            {
                "start_time": 163.7159090909091,
                "end_time": 163.85,
                "pitch": 61,
                "velocity": 51,
                "duration": 0.13409090909090082,
                "tempo": 120.0
            },
            {
                "start_time": 163.86590909090907,
                "end_time": 164.07954545454544,
                "pitch": 59,
                "velocity": 51,
                "duration": 0.2136363636363683,
                "tempo": 120.0
            },
            {
                "start_time": 164.09545454545454,
                "end_time": 164.1931818181818,
                "pitch": 59,
                "velocity": 51,
                "duration": 0.09772727272726911,
                "tempo": 120.0
            },
            {
                "start_time": 164.43863636363636,
                "end_time": 164.65227272727273,
                "pitch": 59,
                "velocity": 51,
                "duration": 0.2136363636363683,
                "tempo": 120.0
            },
            {
                "start_time": 164.6681818181818,
                "end_time": 164.88181818181818,
                "pitch": 59,
                "velocity": 51,
                "duration": 0.2136363636363683,
                "tempo": 120.0
            },
            {
                "start_time": 164.9,
                "end_time": 165.1181818181818,
                "pitch": 59,
                "velocity": 51,
                "duration": 0.21818181818179028,
                "tempo": 120.0
            },
            {
                "start_time": 165.25227272727273,
                "end_time": 165.35227272727272,
                "pitch": 59,
                "velocity": 51,
                "duration": 0.09999999999999432,
                "tempo": 120.0
            },
            {
                "start_time": 165.3681818181818,
                "end_time": 165.46818181818182,
                "pitch": 59,
                "velocity": 51,
                "duration": 0.10000000000002274,
                "tempo": 120.0
            },
            {
                "start_time": 165.48636363636362,
                "end_time": 165.70454545454544,
                "pitch": 57,
                "velocity": 51,
                "duration": 0.2181818181818187,
                "tempo": 120.0
            },
            {
                "start_time": 165.72045454545454,
                "end_time": 165.9318181818182,
                "pitch": 57,
                "velocity": 51,
                "duration": 0.21136363636364308,
                "tempo": 120.0
            },
            {
                "start_time": 165.95,
                "end_time": 166.04772727272726,
                "pitch": 57,
                "velocity": 51,
                "duration": 0.09772727272726911,
                "tempo": 120.0
            },
            {
                "start_time": 166.29545454545453,
                "end_time": 166.51363636363635,
                "pitch": 57,
                "velocity": 51,
                "duration": 0.2181818181818187,
                "tempo": 120.0
            },
            {
                "start_time": 166.52954545454546,
                "end_time": 166.74772727272727,
                "pitch": 57,
                "velocity": 51,
                "duration": 0.2181818181818187,
                "tempo": 120.0
            },
            {
                "start_time": 166.76363636363635,
                "end_time": 166.98181818181817,
                "pitch": 57,
                "velocity": 51,
                "duration": 0.2181818181818187,
                "tempo": 120.0
            },
            {
                "start_time": 167.11590909090907,
                "end_time": 167.21363636363637,
                "pitch": 57,
                "velocity": 51,
                "duration": 0.09772727272729753,
                "tempo": 120.0
            },
            {
                "start_time": 167.23181818181817,
                "end_time": 167.32954545454544,
                "pitch": 57,
                "velocity": 51,
                "duration": 0.09772727272726911,
                "tempo": 120.0
            },
            {
                "start_time": 167.34545454545454,
                "end_time": 167.5590909090909,
                "pitch": 57,
                "velocity": 51,
                "duration": 0.2136363636363683,
                "tempo": 120.0
            },
            {
                "start_time": 167.575,
                "end_time": 167.7931818181818,
                "pitch": 59,
                "velocity": 51,
                "duration": 0.2181818181818187,
                "tempo": 120.0
            },
            {
                "start_time": 167.8090909090909,
                "end_time": 167.9090909090909,
                "pitch": 59,
                "velocity": 51,
                "duration": 0.09999999999999432,
                "tempo": 120.0
            },
            {
                "start_time": 168.16136363636363,
                "end_time": 168.37954545454545,
                "pitch": 59,
                "velocity": 51,
                "duration": 0.2181818181818187,
                "tempo": 120.0
            },
            {
                "start_time": 168.39545454545453,
                "end_time": 168.61363636363635,
                "pitch": 59,
                "velocity": 51,
                "duration": 0.2181818181818187,
                "tempo": 120.0
            },
            {
                "start_time": 168.62954545454545,
                "end_time": 168.84772727272727,
                "pitch": 59,
                "velocity": 51,
                "duration": 0.2181818181818187,
                "tempo": 120.0
            },
            {
                "start_time": 168.98181818181817,
                "end_time": 169.07954545454544,
                "pitch": 59,
                "velocity": 51,
                "duration": 0.09772727272726911,
                "tempo": 120.0
            },
            {
                "start_time": 169.09545454545454,
                "end_time": 169.19545454545454,
                "pitch": 59,
                "velocity": 51,
                "duration": 0.09999999999999432,
                "tempo": 120.0
            },
            {
                "start_time": 169.21136363636361,
                "end_time": 169.42272727272726,
                "pitch": 57,
                "velocity": 51,
                "duration": 0.21136363636364308,
                "tempo": 120.0
            },
            {
                "start_time": 169.4409090909091,
                "end_time": 169.65681818181818,
                "pitch": 57,
                "velocity": 51,
                "duration": 0.2159090909090935,
                "tempo": 120.0
            },
            {
                "start_time": 169.67499999999998,
                "end_time": 169.775,
                "pitch": 57,
                "velocity": 51,
                "duration": 0.10000000000002274,
                "tempo": 120.0
            },
            {
                "start_time": 170.02272727272725,
                "end_time": 170.23636363636362,
                "pitch": 57,
                "velocity": 51,
                "duration": 0.2136363636363683,
                "tempo": 120.0
            },
            {
                "start_time": 170.25227272727273,
                "end_time": 170.46818181818182,
                "pitch": 57,
                "velocity": 51,
                "duration": 0.2159090909090935,
                "tempo": 120.0
            },
            {
                "start_time": 170.4840909090909,
                "end_time": 170.7022727272727,
                "pitch": 57,
                "velocity": 51,
                "duration": 0.2181818181818187,
                "tempo": 120.0
            },
            {
                "start_time": 170.83636363636361,
                "end_time": 170.93636363636364,
                "pitch": 61,
                "velocity": 51,
                "duration": 0.10000000000002274,
                "tempo": 120.0
            },
            {
                "start_time": 170.9522727272727,
                "end_time": 171.05454545454543,
                "pitch": 61,
                "velocity": 51,
                "duration": 0.10227272727271952,
                "tempo": 120.0
            },
            {
                "start_time": 171.07045454545454,
                "end_time": 171.28863636363636,
                "pitch": 57,
                "velocity": 51,
                "duration": 0.2181818181818187,
                "tempo": 120.0
            },
            {
                "start_time": 171.30454545454543,
                "end_time": 171.5181818181818,
                "pitch": 59,
                "velocity": 51,
                "duration": 0.2136363636363683,
                "tempo": 120.0
            },
            {
                "start_time": 171.5340909090909,
                "end_time": 171.63181818181818,
                "pitch": 59,
                "velocity": 51,
                "duration": 0.09772727272726911,
                "tempo": 120.0
            },
            {
                "start_time": 171.87954545454545,
                "end_time": 172.09772727272727,
                "pitch": 59,
                "velocity": 51,
                "duration": 0.2181818181818187,
                "tempo": 120.0
            },
            {
                "start_time": 172.11590909090907,
                "end_time": 172.32954545454544,
                "pitch": 59,
                "velocity": 51,
                "duration": 0.2136363636363683,
                "tempo": 120.0
            },
            {
                "start_time": 172.34545454545454,
                "end_time": 172.5590909090909,
                "pitch": 59,
                "velocity": 51,
                "duration": 0.2136363636363683,
                "tempo": 120.0
            },
            {
                "start_time": 172.6909090909091,
                "end_time": 172.79090909090908,
                "pitch": 59,
                "velocity": 51,
                "duration": 0.09999999999999432,
                "tempo": 120.0
            },
            {
                "start_time": 172.8068181818182,
                "end_time": 172.9090909090909,
                "pitch": 59,
                "velocity": 51,
                "duration": 0.10227272727271952,
                "tempo": 120.0
            },
            {
                "start_time": 172.92499999999998,
                "end_time": 173.1431818181818,
                "pitch": 57,
                "velocity": 51,
                "duration": 0.2181818181818187,
                "tempo": 120.0
            },
            {
                "start_time": 173.1590909090909,
                "end_time": 173.37727272727273,
                "pitch": 57,
                "velocity": 51,
                "duration": 0.2181818181818187,
                "tempo": 120.0
            },
            {
                "start_time": 173.3931818181818,
                "end_time": 173.4931818181818,
                "pitch": 57,
                "velocity": 51,
                "duration": 0.09999999999999432,
                "tempo": 120.0
            },
            {
                "start_time": 173.74545454545455,
                "end_time": 173.96363636363637,
                "pitch": 57,
                "velocity": 51,
                "duration": 0.2181818181818187,
                "tempo": 120.0
            },
            {
                "start_time": 173.97954545454544,
                "end_time": 174.19545454545454,
                "pitch": 57,
                "velocity": 51,
                "duration": 0.2159090909090935,
                "tempo": 120.0
            },
            {
                "start_time": 174.21136363636361,
                "end_time": 174.42499999999998,
                "pitch": 57,
                "velocity": 51,
                "duration": 0.2136363636363683,
                "tempo": 120.0
            },
            {
                "start_time": 174.55454545454543,
                "end_time": 174.65681818181818,
                "pitch": 57,
                "velocity": 51,
                "duration": 0.10227272727274794,
                "tempo": 120.0
            },
            {
                "start_time": 174.67272727272726,
                "end_time": 174.77272727272725,
                "pitch": 57,
                "velocity": 51,
                "duration": 0.09999999999999432,
                "tempo": 120.0
            },
            {
                "start_time": 174.79090909090908,
                "end_time": 175.00681818181818,
                "pitch": 57,
                "velocity": 51,
                "duration": 0.2159090909090935,
                "tempo": 120.0
            },
            {
                "start_time": 175.025,
                "end_time": 175.2431818181818,
                "pitch": 59,
                "velocity": 51,
                "duration": 0.21818181818179028,
                "tempo": 120.0
            },
            {
                "start_time": 175.2590909090909,
                "end_time": 175.3590909090909,
                "pitch": 59,
                "velocity": 51,
                "duration": 0.09999999999999432,
                "tempo": 120.0
            },
            {
                "start_time": 175.60681818181817,
                "end_time": 175.82045454545454,
                "pitch": 59,
                "velocity": 51,
                "duration": 0.2136363636363683,
                "tempo": 120.0
            },
            {
                "start_time": 175.83636363636361,
                "end_time": 176.0522727272727,
                "pitch": 59,
                "velocity": 51,
                "duration": 0.2159090909090935,
                "tempo": 120.0
            },
            {
                "start_time": 176.0681818181818,
                "end_time": 176.28636363636363,
                "pitch": 59,
                "velocity": 51,
                "duration": 0.2181818181818187,
                "tempo": 120.0
            },
            {
                "start_time": 176.42045454545453,
                "end_time": 176.52045454545453,
                "pitch": 59,
                "velocity": 51,
                "duration": 0.09999999999999432,
                "tempo": 120.0
            },
            {
                "start_time": 176.53863636363636,
                "end_time": 176.63863636363635,
                "pitch": 59,
                "velocity": 51,
                "duration": 0.09999999999999432,
                "tempo": 120.0
            },
            {
                "start_time": 176.65454545454546,
                "end_time": 176.87272727272727,
                "pitch": 57,
                "velocity": 51,
                "duration": 0.2181818181818187,
                "tempo": 120.0
            },
            {
                "start_time": 176.88863636363635,
                "end_time": 177.10227272727272,
                "pitch": 57,
                "velocity": 51,
                "duration": 0.2136363636363683,
                "tempo": 120.0
            },
            {
                "start_time": 177.1181818181818,
                "end_time": 177.2159090909091,
                "pitch": 57,
                "velocity": 51,
                "duration": 0.09772727272729753,
                "tempo": 120.0
            },
            {
                "start_time": 177.4659090909091,
                "end_time": 177.6818181818182,
                "pitch": 57,
                "velocity": 51,
                "duration": 0.2159090909090935,
                "tempo": 120.0
            },
            {
                "start_time": 177.7,
                "end_time": 177.79999999999998,
                "pitch": 57,
                "velocity": 51,
                "duration": 0.09999999999999432,
                "tempo": 120.0
            },
            {
                "start_time": 177.975,
                "end_time": 178.10454545454544,
                "pitch": 61,
                "velocity": 51,
                "duration": 0.1295454545454504,
                "tempo": 120.0
            },
            {
                "start_time": 178.12045454545455,
                "end_time": 178.24772727272727,
                "pitch": 61,
                "velocity": 51,
                "duration": 0.1272727272727252,
                "tempo": 120.0
            },
            {
                "start_time": 178.26363636363635,
                "end_time": 178.42045454545453,
                "pitch": 61,
                "velocity": 51,
                "duration": 0.1568181818181813,
                "tempo": 120.0
            },
            {
                "start_time": 178.43863636363636,
                "end_time": 178.5772727272727,
                "pitch": 61,
                "velocity": 51,
                "duration": 0.13863636363635123,
                "tempo": 120.0
            },
            {
                "start_time": 178.59545454545454,
                "end_time": 178.7340909090909,
                "pitch": 61,
                "velocity": 51,
                "duration": 0.13863636363635123,
                "tempo": 120.0
            },
            {
                "start_time": 178.75227272727273,
                "end_time": 178.96363636363637,
                "pitch": 59,
                "velocity": 51,
                "duration": 0.21136363636364308,
                "tempo": 120.0
            },
            {
                "start_time": 178.97954545454544,
                "end_time": 179.07954545454544,
                "pitch": 59,
                "velocity": 51,
                "duration": 0.09999999999999432,
                "tempo": 120.0
            },
            {
                "start_time": 179.3272727272727,
                "end_time": 179.54545454545453,
                "pitch": 59,
                "velocity": 51,
                "duration": 0.2181818181818187,
                "tempo": 120.0
            },
            {
                "start_time": 179.56136363636364,
                "end_time": 179.77727272727273,
                "pitch": 59,
                "velocity": 51,
                "duration": 0.2159090909090935,
                "tempo": 120.0
            }
        ],
        "Acoustic Bass": [
            {
                "start_time": 0.0,
                "end_time": 0.28409090909090906,
                "pitch": 40,
                "velocity": 80,
                "duration": 0.28409090909090906,
                "tempo": 120.0
            },
            {
                "start_time": 0.29772727272727273,
                "end_time": 0.5136363636363636,
                "pitch": 47,
                "velocity": 80,
                "duration": 0.21590909090909083,
                "tempo": 120.0
            },
            {
                "start_time": 0.5318181818181817,
                "end_time": 0.7477272727272727,
                "pitch": 38,
                "velocity": 80,
                "duration": 0.21590909090909094,
                "tempo": 120.0
            },
            {
                "start_time": 0.7659090909090909,
                "end_time": 1.0999999999999999,
                "pitch": 37,
                "velocity": 80,
                "duration": 0.334090909090909,
                "tempo": 120.0
            },
            {
                "start_time": 1.1181818181818182,
                "end_time": 1.3318181818181818,
                "pitch": 45,
                "velocity": 80,
                "duration": 0.21363636363636362,
                "tempo": 120.0
            },
            {
                "start_time": 1.3499999999999999,
                "end_time": 1.4477272727272728,
                "pitch": 45,
                "velocity": 80,
                "duration": 0.09772727272727288,
                "tempo": 120.0
            },
            {
                "start_time": 1.4636363636363636,
                "end_time": 1.5613636363636363,
                "pitch": 37,
                "velocity": 80,
                "duration": 0.09772727272727266,
                "tempo": 120.0
            },
            {
                "start_time": 1.5772727272727272,
                "end_time": 1.7909090909090908,
                "pitch": 38,
                "velocity": 80,
                "duration": 0.21363636363636362,
                "tempo": 120.0
            },
            {
                "start_time": 1.8068181818181817,
                "end_time": 2.134090909090909,
                "pitch": 40,
                "velocity": 80,
                "duration": 0.32727272727272716,
                "tempo": 120.0
            },
            {
                "start_time": 2.15,
                "end_time": 2.3727272727272726,
                "pitch": 47,
                "velocity": 80,
                "duration": 0.22272727272727266,
                "tempo": 120.0
            },
            {
                "start_time": 2.3886363636363637,
                "end_time": 2.609090909090909,
                "pitch": 38,
                "velocity": 80,
                "duration": 0.22045454545454524,
                "tempo": 120.0
            },
            {
                "start_time": 2.627272727272727,
                "end_time": 2.725,
                "pitch": 37,
                "velocity": 80,
                "duration": 0.0977272727272731,
                "tempo": 120.0
            },
            {
                "start_time": 3.661363636363636,
                "end_time": 3.995454545454545,
                "pitch": 40,
                "velocity": 80,
                "duration": 0.334090909090909,
                "tempo": 120.0
            },
            {
                "start_time": 4.011363636363636,
                "end_time": 4.2295454545454545,
                "pitch": 47,
                "velocity": 80,
                "duration": 0.2181818181818187,
                "tempo": 120.0
            },
            {
                "start_time": 4.247727272727272,
                "end_time": 4.463636363636364,
                "pitch": 38,
                "velocity": 80,
                "duration": 0.21590909090909172,
                "tempo": 120.0
            },
            {
                "start_time": 4.4818181818181815,
                "end_time": 4.8159090909090905,
                "pitch": 37,
                "velocity": 80,
                "duration": 0.334090909090909,
                "tempo": 120.0
            },
            {
                "start_time": 4.834090909090909,
                "end_time": 5.047727272727273,
                "pitch": 45,
                "velocity": 80,
                "duration": 0.21363636363636385,
                "tempo": 120.0
            },
            {
                "start_time": 5.0659090909090905,
                "end_time": 5.163636363636363,
                "pitch": 45,
                "velocity": 80,
                "duration": 0.09772727272727266,
                "tempo": 120.0
            },
            {
                "start_time": 5.179545454545455,
                "end_time": 5.277272727272727,
                "pitch": 37,
                "velocity": 80,
                "duration": 0.09772727272727266,
                "tempo": 120.0
            },
            {
                "start_time": 5.293181818181818,
                "end_time": 5.509090909090909,
                "pitch": 38,
                "velocity": 80,
                "duration": 0.21590909090909083,
                "tempo": 120.0
            },
            {
                "start_time": 5.5249999999999995,
                "end_time": 5.861363636363636,
                "pitch": 40,
                "velocity": 80,
                "duration": 0.33636363636363686,
                "tempo": 120.0
            },
            {
                "start_time": 5.877272727272727,
                "end_time": 6.095454545454545,
                "pitch": 47,
                "velocity": 80,
                "duration": 0.2181818181818178,
                "tempo": 120.0
            },
            {
                "start_time": 6.111363636363636,
                "end_time": 6.329545454545454,
                "pitch": 38,
                "velocity": 80,
                "duration": 0.2181818181818178,
                "tempo": 120.0
            },
            {
                "start_time": 6.347727272727273,
                "end_time": 6.447727272727272,
                "pitch": 37,
                "velocity": 80,
                "duration": 0.09999999999999964,
                "tempo": 120.0
            },
            {
                "start_time": 6.697727272727272,
                "end_time": 6.918181818181818,
                "pitch": 37,
                "velocity": 80,
                "duration": 0.22045454545454568,
                "tempo": 120.0
            },
            {
                "start_time": 6.936363636363636,
                "end_time": 7.186363636363636,
                "pitch": 38,
                "velocity": 80,
                "duration": 0.25,
                "tempo": 120.0
            },
            {
                "start_time": 7.204545454545454,
                "end_time": 7.454545454545454,
                "pitch": 39,
                "velocity": 80,
                "duration": 0.25,
                "tempo": 120.0
            },
            {
                "start_time": 7.475,
                "end_time": 7.829545454545454,
                "pitch": 40,
                "velocity": 80,
                "duration": 0.3545454545454545,
                "tempo": 120.0
            },
            {
                "start_time": 7.845454545454545,
                "end_time": 8.070454545454545,
                "pitch": 47,
                "velocity": 80,
                "duration": 0.22500000000000053,
                "tempo": 120.0
            },
            {
                "start_time": 8.088636363636363,
                "end_time": 8.306818181818182,
                "pitch": 38,
                "velocity": 80,
                "duration": 0.2181818181818187,
                "tempo": 120.0
            },
            {
                "start_time": 8.322727272727272,
                "end_time": 8.652272727272727,
                "pitch": 37,
                "velocity": 80,
                "duration": 0.32954545454545503,
                "tempo": 120.0
            },
            {
                "start_time": 8.668181818181818,
                "end_time": 8.881818181818181,
                "pitch": 45,
                "velocity": 80,
                "duration": 0.21363636363636296,
                "tempo": 120.0
            },
            {
                "start_time": 8.897727272727272,
                "end_time": 8.997727272727273,
                "pitch": 45,
                "velocity": 80,
                "duration": 0.10000000000000142,
                "tempo": 120.0
            },
            {
                "start_time": 9.01590909090909,
                "end_time": 9.11590909090909,
                "pitch": 37,
                "velocity": 80,
                "duration": 0.09999999999999964,
                "tempo": 120.0
            },
            {
                "start_time": 9.131818181818181,
                "end_time": 9.35,
                "pitch": 38,
                "velocity": 80,
                "duration": 0.2181818181818187,
                "tempo": 120.0
            },
            {
                "start_time": 9.368181818181817,
                "end_time": 9.702272727272726,
                "pitch": 40,
                "velocity": 80,
                "duration": 0.334090909090909,
                "tempo": 120.0
            },
            {
                "start_time": 9.718181818181817,
                "end_time": 9.934090909090909,
                "pitch": 47,
                "velocity": 80,
                "duration": 0.21590909090909172,
                "tempo": 120.0
            },
            {
                "start_time": 9.95,
                "end_time": 10.163636363636364,
                "pitch": 38,
                "velocity": 80,
                "duration": 0.21363636363636473,
                "tempo": 120.0
            },
            {
                "start_time": 10.179545454545455,
                "end_time": 10.277272727272727,
                "pitch": 37,
                "velocity": 80,
                "duration": 0.09772727272727266,
                "tempo": 120.0
            },
            {
                "start_time": 11.222727272727273,
                "end_time": 11.556818181818182,
                "pitch": 40,
                "velocity": 80,
                "duration": 0.334090909090909,
                "tempo": 120.0
            },
            {
                "start_time": 11.572727272727272,
                "end_time": 11.788636363636362,
                "pitch": 47,
                "velocity": 80,
                "duration": 0.21590909090908994,
                "tempo": 120.0
            },
            {
                "start_time": 11.804545454545455,
                "end_time": 12.018181818181818,
                "pitch": 38,
                "velocity": 80,
                "duration": 0.21363636363636296,
                "tempo": 120.0
            },
            {
                "start_time": 12.034090909090908,
                "end_time": 12.36590909090909,
                "pitch": 37,
                "velocity": 80,
                "duration": 0.331818181818182,
                "tempo": 120.0
            },
            {
                "start_time": 12.384090909090908,
                "end_time": 12.6,
                "pitch": 45,
                "velocity": 80,
                "duration": 0.21590909090909172,
                "tempo": 120.0
            },
            {
                "start_time": 12.618181818181817,
                "end_time": 12.720454545454546,
                "pitch": 45,
                "velocity": 80,
                "duration": 0.1022727272727284,
                "tempo": 120.0
            },
            {
                "start_time": 12.736363636363636,
                "end_time": 12.838636363636363,
                "pitch": 37,
                "velocity": 80,
                "duration": 0.10227272727272663,
                "tempo": 120.0
            },
            {
                "start_time": 12.85681818181818,
                "end_time": 13.077272727272726,
                "pitch": 38,
                "velocity": 80,
                "duration": 0.22045454545454568,
                "tempo": 120.0
            },
            {
                "start_time": 13.093181818181817,
                "end_time": 13.429545454545455,
                "pitch": 40,
                "velocity": 80,
                "duration": 0.33636363636363775,
                "tempo": 120.0
            },
            {
                "start_time": 13.445454545454545,
                "end_time": 13.659090909090908,
                "pitch": 47,
                "velocity": 80,
                "duration": 0.21363636363636296,
                "tempo": 120.0
            },
            {
                "start_time": 13.674999999999999,
                "end_time": 13.884090909090908,
                "pitch": 38,
                "velocity": 80,
                "duration": 0.209090909090909,
                "tempo": 120.0
            },
            {
                "start_time": 13.899999999999999,
                "end_time": 13.995454545454544,
                "pitch": 37,
                "velocity": 80,
                "duration": 0.09545454545454568,
                "tempo": 120.0
            },
            {
                "start_time": 14.95,
                "end_time": 15.277272727272727,
                "pitch": 40,
                "velocity": 80,
                "duration": 0.32727272727272805,
                "tempo": 120.0
            },
            {
                "start_time": 15.293181818181818,
                "end_time": 15.506818181818181,
                "pitch": 47,
                "velocity": 80,
                "duration": 0.21363636363636296,
                "tempo": 120.0
            },
            {
                "start_time": 15.524999999999999,
                "end_time": 15.743181818181817,
                "pitch": 38,
                "velocity": 80,
                "duration": 0.2181818181818187,
                "tempo": 120.0
            },
            {
                "start_time": 15.759090909090908,
                "end_time": 16.09318181818182,
                "pitch": 37,
                "velocity": 80,
                "duration": 0.33409090909091077,
                "tempo": 120.0
            },
            {
                "start_time": 16.111363636363635,
                "end_time": 16.329545454545453,
                "pitch": 45,
                "velocity": 80,
                "duration": 0.2181818181818187,
                "tempo": 120.0
            },
            {
                "start_time": 16.345454545454544,
                "end_time": 16.443181818181817,
                "pitch": 45,
                "velocity": 80,
                "duration": 0.09772727272727266,
                "tempo": 120.0
            },
            {
                "start_time": 16.459090909090907,
                "end_time": 16.55909090909091,
                "pitch": 37,
                "velocity": 80,
                "duration": 0.10000000000000142,
                "tempo": 120.0
            },
            {
                "start_time": 16.575,
                "end_time": 16.786363636363635,
                "pitch": 38,
                "velocity": 80,
                "duration": 0.21136363636363598,
                "tempo": 120.0
            },
            {
                "start_time": 16.804545454545455,
                "end_time": 17.138636363636362,
                "pitch": 40,
                "velocity": 80,
                "duration": 0.3340909090909072,
                "tempo": 120.0
            },
            {
                "start_time": 17.154545454545453,
                "end_time": 17.37272727272727,
                "pitch": 47,
                "velocity": 80,
                "duration": 0.2181818181818187,
                "tempo": 120.0
            },
            {
                "start_time": 17.39090909090909,
                "end_time": 17.60681818181818,
                "pitch": 38,
                "velocity": 80,
                "duration": 0.21590909090908994,
                "tempo": 120.0
            },
            {
                "start_time": 17.625,
                "end_time": 17.724999999999998,
                "pitch": 37,
                "velocity": 80,
                "duration": 0.09999999999999787,
                "tempo": 120.0
            },
            {
                "start_time": 18.668181818181818,
                "end_time": 18.995454545454546,
                "pitch": 40,
                "velocity": 80,
                "duration": 0.32727272727272805,
                "tempo": 120.0
            },
            {
                "start_time": 19.011363636363637,
                "end_time": 19.227272727272727,
                "pitch": 47,
                "velocity": 80,
                "duration": 0.21590909090908994,
                "tempo": 120.0
            },
            {
                "start_time": 19.243181818181817,
                "end_time": 19.461363636363636,
                "pitch": 38,
                "velocity": 80,
                "duration": 0.2181818181818187,
                "tempo": 120.0
            },
            {
                "start_time": 19.479545454545452,
                "end_time": 19.818181818181817,
                "pitch": 37,
                "velocity": 80,
                "duration": 0.33863636363636473,
                "tempo": 120.0
            },
            {
                "start_time": 19.836363636363636,
                "end_time": 20.05909090909091,
                "pitch": 45,
                "velocity": 80,
                "duration": 0.22272727272727266,
                "tempo": 120.0
            },
            {
                "start_time": 20.077272727272728,
                "end_time": 20.175,
                "pitch": 45,
                "velocity": 80,
                "duration": 0.09772727272727266,
                "tempo": 120.0
            },
            {
                "start_time": 20.19090909090909,
                "end_time": 20.288636363636364,
                "pitch": 37,
                "velocity": 80,
                "duration": 0.09772727272727266,
                "tempo": 120.0
            },
            {
                "start_time": 20.304545454545455,
                "end_time": 20.518181818181816,
                "pitch": 38,
                "velocity": 80,
                "duration": 0.21363636363636118,
                "tempo": 120.0
            },
            {
                "start_time": 20.534090909090907,
                "end_time": 20.870454545454546,
                "pitch": 40,
                "velocity": 80,
                "duration": 0.33636363636363953,
                "tempo": 120.0
            },
            {
                "start_time": 20.886363636363637,
                "end_time": 21.102272727272727,
                "pitch": 47,
                "velocity": 80,
                "duration": 0.21590909090908994,
                "tempo": 120.0
            },
            {
                "start_time": 21.118181818181817,
                "end_time": 21.331818181818182,
                "pitch": 38,
                "velocity": 80,
                "duration": 0.21363636363636473,
                "tempo": 120.0
            },
            {
                "start_time": 21.347727272727273,
                "end_time": 21.445454545454545,
                "pitch": 37,
                "velocity": 80,
                "duration": 0.09772727272727266,
                "tempo": 120.0
            },
            {
                "start_time": 22.4,
                "end_time": 22.71818181818182,
                "pitch": 40,
                "velocity": 80,
                "duration": 0.3181818181818201,
                "tempo": 120.0
            },
            {
                "start_time": 22.73409090909091,
                "end_time": 22.95,
                "pitch": 47,
                "velocity": 80,
                "duration": 0.21590909090908994,
                "tempo": 120.0
            },
            {
                "start_time": 22.96590909090909,
                "end_time": 23.19090909090909,
                "pitch": 38,
                "velocity": 80,
                "duration": 0.22500000000000142,
                "tempo": 120.0
            },
            {
                "start_time": 23.206818181818182,
                "end_time": 23.545454545454543,
                "pitch": 37,
                "velocity": 80,
                "duration": 0.3386363636363612,
                "tempo": 120.0
            },
            {
                "start_time": 23.561363636363634,
                "end_time": 23.779545454545453,
                "pitch": 45,
                "velocity": 80,
                "duration": 0.2181818181818187,
                "tempo": 120.0
            },
            {
                "start_time": 23.795454545454543,
                "end_time": 23.895454545454545,
                "pitch": 45,
                "velocity": 80,
                "duration": 0.10000000000000142,
                "tempo": 120.0
            },
            {
                "start_time": 23.911363636363635,
                "end_time": 24.009090909090908,
                "pitch": 37,
                "velocity": 80,
                "duration": 0.09772727272727266,
                "tempo": 120.0
            },
            {
                "start_time": 24.025,
                "end_time": 24.238636363636363,
                "pitch": 38,
                "velocity": 80,
                "duration": 0.21363636363636473,
                "tempo": 120.0
            },
            {
                "start_time": 24.254545454545454,
                "end_time": 24.58863636363636,
                "pitch": 40,
                "velocity": 80,
                "duration": 0.3340909090909072,
                "tempo": 120.0
            },
            {
                "start_time": 24.60681818181818,
                "end_time": 24.82272727272727,
                "pitch": 47,
                "velocity": 80,
                "duration": 0.21590909090908994,
                "tempo": 120.0
            },
            {
                "start_time": 24.83863636363636,
                "end_time": 25.049999999999997,
                "pitch": 38,
                "velocity": 80,
                "duration": 0.21136363636363598,
                "tempo": 120.0
            },
            {
                "start_time": 25.068181818181817,
                "end_time": 25.16590909090909,
                "pitch": 37,
                "velocity": 80,
                "duration": 0.09772727272727266,
                "tempo": 120.0
            },
            {
                "start_time": 26.120454545454542,
                "end_time": 26.44772727272727,
                "pitch": 40,
                "velocity": 80,
                "duration": 0.32727272727272805,
                "tempo": 120.0
            },
            {
                "start_time": 26.46363636363636,
                "end_time": 26.677272727272726,
                "pitch": 47,
                "velocity": 80,
                "duration": 0.21363636363636473,
                "tempo": 120.0
            },
            {
                "start_time": 26.695454545454545,
                "end_time": 26.913636363636364,
                "pitch": 38,
                "velocity": 80,
                "duration": 0.2181818181818187,
                "tempo": 120.0
            },
            {
                "start_time": 26.929545454545455,
                "end_time": 27.263636363636362,
                "pitch": 37,
                "velocity": 80,
                "duration": 0.3340909090909072,
                "tempo": 120.0
            },
            {
                "start_time": 27.28181818181818,
                "end_time": 27.5,
                "pitch": 45,
                "velocity": 80,
                "duration": 0.2181818181818187,
                "tempo": 120.0
            },
            {
                "start_time": 27.51590909090909,
                "end_time": 27.613636363636363,
                "pitch": 45,
                "velocity": 80,
                "duration": 0.09772727272727266,
                "tempo": 120.0
            },
            {
                "start_time": 27.629545454545454,
                "end_time": 27.729545454545452,
                "pitch": 37,
                "velocity": 80,
                "duration": 0.09999999999999787,
                "tempo": 120.0
            },
            {
                "start_time": 27.745454545454542,
                "end_time": 27.956818181818182,
                "pitch": 38,
                "velocity": 80,
                "duration": 0.21136363636363953,
                "tempo": 120.0
            },
            {
                "start_time": 27.974999999999998,
                "end_time": 28.30909090909091,
                "pitch": 40,
                "velocity": 80,
                "duration": 0.33409090909091077,
                "tempo": 120.0
            },
            {
                "start_time": 28.325,
                "end_time": 28.543181818181818,
                "pitch": 47,
                "velocity": 80,
                "duration": 0.2181818181818187,
                "tempo": 120.0
            },
            {
                "start_time": 28.561363636363634,
                "end_time": 28.777272727272727,
                "pitch": 38,
                "velocity": 80,
                "duration": 0.2159090909090935,
                "tempo": 120.0
            },
            {
                "start_time": 28.795454545454543,
                "end_time": 28.895454545454545,
                "pitch": 37,
                "velocity": 80,
                "duration": 0.10000000000000142,
                "tempo": 120.0
            },
            {
                "start_time": 31.595454545454544,
                "end_time": 34.47727272727273,
                "pitch": 35,
                "velocity": 80,
                "duration": 2.8818181818181827,
                "tempo": 120.0
            },
            {
                "start_time": 34.611363636363635,
                "end_time": 34.711363636363636,
                "pitch": 43,
                "velocity": 80,
                "duration": 0.10000000000000142,
                "tempo": 120.0
            },
            {
                "start_time": 34.845454545454544,
                "end_time": 34.945454545454545,
                "pitch": 42,
                "velocity": 80,
                "duration": 0.10000000000000142,
                "tempo": 120.0
            },
            {
                "start_time": 35.07727272727273,
                "end_time": 35.175,
                "pitch": 35,
                "velocity": 80,
                "duration": 0.09772727272726911,
                "tempo": 120.0
            },
            {
                "start_time": 35.30681818181818,
                "end_time": 35.404545454545456,
                "pitch": 38,
                "velocity": 80,
                "duration": 0.09772727272727622,
                "tempo": 120.0
            },
            {
                "start_time": 35.42045454545455,
                "end_time": 35.75681818181818,
                "pitch": 40,
                "velocity": 80,
                "duration": 0.336363636363636,
                "tempo": 120.0
            },
            {
                "start_time": 35.77272727272727,
                "end_time": 35.87272727272727,
                "pitch": 40,
                "velocity": 80,
                "duration": 0.09999999999999432,
                "tempo": 120.0
            },
            {
                "start_time": 36.125,
                "end_time": 36.34318181818182,
                "pitch": 40,
                "velocity": 80,
                "duration": 0.2181818181818187,
                "tempo": 120.0
            },
            {
                "start_time": 36.58863636363636,
                "end_time": 36.68636363636364,
                "pitch": 38,
                "velocity": 80,
                "duration": 0.09772727272727622,
                "tempo": 120.0
            },
            {
                "start_time": 36.81818181818181,
                "end_time": 37.029545454545456,
                "pitch": 40,
                "velocity": 80,
                "duration": 0.21136363636364308,
                "tempo": 120.0
            },
            {
                "start_time": 37.275,
                "end_time": 37.611363636363635,
                "pitch": 40,
                "velocity": 80,
                "duration": 0.336363636363636,
                "tempo": 120.0
            },
            {
                "start_time": 37.627272727272725,
                "end_time": 37.72727272727273,
                "pitch": 40,
                "velocity": 80,
                "duration": 0.10000000000000142,
                "tempo": 120.0
            },
            {
                "start_time": 37.97954545454545,
                "end_time": 38.19772727272727,
                "pitch": 40,
                "velocity": 80,
                "duration": 0.2181818181818187,
                "tempo": 120.0
            },
            {
                "start_time": 38.44772727272727,
                "end_time": 38.54772727272727,
                "pitch": 38,
                "velocity": 80,
                "duration": 0.10000000000000142,
                "tempo": 120.0
            },
            {
                "start_time": 38.68181818181818,
                "end_time": 38.89545454545454,
                "pitch": 40,
                "velocity": 80,
                "duration": 0.21363636363636118,
                "tempo": 120.0
            },
            {
                "start_time": 38.91136363636363,
                "end_time": 39.125,
                "pitch": 35,
                "velocity": 80,
                "duration": 0.2136363636363683,
                "tempo": 120.0
            },
            {
                "start_time": 39.14090909090909,
                "end_time": 39.475,
                "pitch": 40,
                "velocity": 80,
                "duration": 0.33409090909091077,
                "tempo": 120.0
            },
            {
                "start_time": 39.49318181818182,
                "end_time": 39.59318181818182,
                "pitch": 40,
                "velocity": 80,
                "duration": 0.10000000000000142,
                "tempo": 120.0
            },
            {
                "start_time": 39.845454545454544,
                "end_time": 40.06136363636364,
                "pitch": 40,
                "velocity": 80,
                "duration": 0.2159090909090935,
                "tempo": 120.0
            },
            {
                "start_time": 40.31363636363636,
                "end_time": 40.413636363636364,
                "pitch": 38,
                "velocity": 80,
                "duration": 0.10000000000000142,
                "tempo": 120.0
            },
            {
                "start_time": 40.54772727272727,
                "end_time": 40.76136363636363,
                "pitch": 40,
                "velocity": 80,
                "duration": 0.21363636363636118,
                "tempo": 120.0
            },
            {
                "start_time": 41.00681818181818,
                "end_time": 41.340909090909086,
                "pitch": 40,
                "velocity": 80,
                "duration": 0.33409090909090366,
                "tempo": 120.0
            },
            {
                "start_time": 41.35681818181818,
                "end_time": 41.459090909090904,
                "pitch": 40,
                "velocity": 80,
                "duration": 0.10227272727272663,
                "tempo": 120.0
            },
            {
                "start_time": 41.70454545454545,
                "end_time": 41.91590909090909,
                "pitch": 40,
                "velocity": 80,
                "duration": 0.21136363636363598,
                "tempo": 120.0
            },
            {
                "start_time": 42.168181818181814,
                "end_time": 42.268181818181816,
                "pitch": 38,
                "velocity": 80,
                "duration": 0.10000000000000142,
                "tempo": 120.0
            },
            {
                "start_time": 42.402272727272724,
                "end_time": 42.61590909090909,
                "pitch": 40,
                "velocity": 80,
                "duration": 0.2136363636363683,
                "tempo": 120.0
            },
            {
                "start_time": 42.861363636363635,
                "end_time": 43.195454545454545,
                "pitch": 40,
                "velocity": 80,
                "duration": 0.33409090909091077,
                "tempo": 120.0
            },
            {
                "start_time": 43.211363636363636,
                "end_time": 43.31363636363636,
                "pitch": 35,
                "velocity": 80,
                "duration": 0.10227272727272663,
                "tempo": 120.0
            },
            {
                "start_time": 43.32954545454545,
                "end_time": 43.663636363636364,
                "pitch": 35,
                "velocity": 80,
                "duration": 0.33409090909091077,
                "tempo": 120.0
            },
            {
                "start_time": 43.68181818181818,
                "end_time": 43.78181818181818,
                "pitch": 40,
                "velocity": 80,
                "duration": 0.10000000000000142,
                "tempo": 120.0
            },
            {
                "start_time": 43.79772727272727,
                "end_time": 44.13409090909091,
                "pitch": 40,
                "velocity": 80,
                "duration": 0.336363636363636,
                "tempo": 120.0
            },
            {
                "start_time": 44.15,
                "end_time": 44.25,
                "pitch": 35,
                "velocity": 80,
                "duration": 0.10000000000000142,
                "tempo": 120.0
            },
            {
                "start_time": 44.268181818181816,
                "end_time": 44.48409090909091,
                "pitch": 35,
                "velocity": 80,
                "duration": 0.2159090909090935,
                "tempo": 120.0
            },
            {
                "start_time": 44.502272727272725,
                "end_time": 44.60227272727273,
                "pitch": 38,
                "velocity": 80,
                "duration": 0.10000000000000142,
                "tempo": 120.0
            },
            {
                "start_time": 44.61818181818182,
                "end_time": 44.720454545454544,
                "pitch": 40,
                "velocity": 80,
                "duration": 0.10227272727272663,
                "tempo": 120.0
            },
            {
                "start_time": 44.736363636363635,
                "end_time": 45.06363636363636,
                "pitch": 38,
                "velocity": 80,
                "duration": 0.32727272727272805,
                "tempo": 120.0
            },
            {
                "start_time": 45.07954545454545,
                "end_time": 45.17727272727272,
                "pitch": 33,
                "velocity": 80,
                "duration": 0.09772727272726911,
                "tempo": 120.0
            },
            {
                "start_time": 45.195454545454545,
                "end_time": 45.52954545454545,
                "pitch": 33,
                "velocity": 80,
                "duration": 0.33409090909090366,
                "tempo": 120.0
            },
            {
                "start_time": 45.54545454545455,
                "end_time": 45.64772727272727,
                "pitch": 38,
                "velocity": 80,
                "duration": 0.10227272727272663,
                "tempo": 120.0
            },
            {
                "start_time": 45.663636363636364,
                "end_time": 45.99090909090909,
                "pitch": 38,
                "velocity": 80,
                "duration": 0.32727272727272805,
                "tempo": 120.0
            },
            {
                "start_time": 46.00681818181818,
                "end_time": 46.10454545454545,
                "pitch": 33,
                "velocity": 80,
                "duration": 0.09772727272726911,
                "tempo": 120.0
            },
            {
                "start_time": 46.12272727272727,
                "end_time": 46.22272727272727,
                "pitch": 33,
                "velocity": 80,
                "duration": 0.10000000000000142,
                "tempo": 120.0
            },
            {
                "start_time": 46.23863636363636,
                "end_time": 46.33863636363636,
                "pitch": 40,
                "velocity": 80,
                "duration": 0.10000000000000142,
                "tempo": 120.0
            },
            {
                "start_time": 46.35681818181818,
                "end_time": 46.45681818181818,
                "pitch": 38,
                "velocity": 80,
                "duration": 0.10000000000000142,
                "tempo": 120.0
            },
            {
                "start_time": 46.47272727272727,
                "end_time": 46.574999999999996,
                "pitch": 37,
                "velocity": 80,
                "duration": 0.10227272727272663,
                "tempo": 120.0
            },
            {
                "start_time": 46.590909090909086,
                "end_time": 46.925,
                "pitch": 38,
                "velocity": 80,
                "duration": 0.33409090909091077,
                "tempo": 120.0
            },
            {
                "start_time": 46.94318181818181,
                "end_time": 47.043181818181814,
                "pitch": 33,
                "velocity": 80,
                "duration": 0.10000000000000142,
                "tempo": 120.0
            },
            {
                "start_time": 47.059090909090905,
                "end_time": 47.39545454545454,
                "pitch": 33,
                "velocity": 80,
                "duration": 0.336363636363636,
                "tempo": 120.0
            },
            {
                "start_time": 47.41136363636363,
                "end_time": 47.51136363636363,
                "pitch": 38,
                "velocity": 80,
                "duration": 0.10000000000000142,
                "tempo": 120.0
            },
            {
                "start_time": 47.52954545454545,
                "end_time": 47.85681818181818,
                "pitch": 38,
                "velocity": 80,
                "duration": 0.32727272727272805,
                "tempo": 120.0
            },
            {
                "start_time": 47.87272727272727,
                "end_time": 47.970454545454544,
                "pitch": 33,
                "velocity": 80,
                "duration": 0.09772727272727622,
                "tempo": 120.0
            },
            {
                "start_time": 47.986363636363635,
                "end_time": 48.20454545454545,
                "pitch": 33,
                "velocity": 80,
                "duration": 0.2181818181818187,
                "tempo": 120.0
            },
            {
                "start_time": 48.220454545454544,
                "end_time": 48.32272727272727,
                "pitch": 38,
                "velocity": 80,
                "duration": 0.10227272727272663,
                "tempo": 120.0
            },
            {
                "start_time": 48.33863636363636,
                "end_time": 48.43863636363636,
                "pitch": 39,
                "velocity": 80,
                "duration": 0.10000000000000142,
                "tempo": 120.0
            },
            {
                "start_time": 48.45681818181818,
                "end_time": 48.78409090909091,
                "pitch": 40,
                "velocity": 80,
                "duration": 0.32727272727272805,
                "tempo": 120.0
            },
            {
                "start_time": 48.8,
                "end_time": 48.89772727272727,
                "pitch": 35,
                "velocity": 80,
                "duration": 0.09772727272727622,
                "tempo": 120.0
            },
            {
                "start_time": 48.913636363636364,
                "end_time": 49.25,
                "pitch": 35,
                "velocity": 80,
                "duration": 0.336363636363636,
                "tempo": 120.0
            },
            {
                "start_time": 49.26590909090909,
                "end_time": 49.365909090909085,
                "pitch": 40,
                "velocity": 80,
                "duration": 0.09999999999999432,
                "tempo": 120.0
            },
            {
                "start_time": 49.38409090909091,
                "end_time": 49.71818181818182,
                "pitch": 40,
                "velocity": 80,
                "duration": 0.33409090909091077,
                "tempo": 120.0
            },
            {
                "start_time": 49.73409090909091,
                "end_time": 49.836363636363636,
                "pitch": 35,
                "velocity": 80,
                "duration": 0.10227272727272663,
                "tempo": 120.0
            },
            {
                "start_time": 49.85227272727273,
                "end_time": 50.06363636363636,
                "pitch": 35,
                "velocity": 80,
                "duration": 0.21136363636363598,
                "tempo": 120.0
            },
            {
                "start_time": 50.08181818181818,
                "end_time": 50.179545454545455,
                "pitch": 38,
                "velocity": 80,
                "duration": 0.09772727272727622,
                "tempo": 120.0
            },
            {
                "start_time": 50.195454545454545,
                "end_time": 50.293181818181814,
                "pitch": 40,
                "velocity": 80,
                "duration": 0.09772727272726911,
                "tempo": 120.0
            },
            {
                "start_time": 50.309090909090905,
                "end_time": 50.64545454545454,
                "pitch": 40,
                "velocity": 80,
                "duration": 0.336363636363636,
                "tempo": 120.0
            },
            {
                "start_time": 50.66136363636363,
                "end_time": 50.76136363636363,
                "pitch": 35,
                "velocity": 80,
                "duration": 0.10000000000000142,
                "tempo": 120.0
            },
            {
                "start_time": 50.77954545454545,
                "end_time": 51.11363636363636,
                "pitch": 35,
                "velocity": 80,
                "duration": 0.33409090909091077,
                "tempo": 120.0
            },
            {
                "start_time": 51.13181818181818,
                "end_time": 51.23181818181818,
                "pitch": 40,
                "velocity": 80,
                "duration": 0.09999999999999432,
                "tempo": 120.0
            },
            {
                "start_time": 51.24772727272727,
                "end_time": 51.574999999999996,
                "pitch": 40,
                "velocity": 80,
                "duration": 0.32727272727272805,
                "tempo": 120.0
            },
            {
                "start_time": 51.590909090909086,
                "end_time": 51.69090909090909,
                "pitch": 35,
                "velocity": 80,
                "duration": 0.10000000000000142,
                "tempo": 120.0
            },
            {
                "start_time": 51.70681818181818,
                "end_time": 51.929545454545455,
                "pitch": 35,
                "velocity": 80,
                "duration": 0.22272727272727622,
                "tempo": 120.0
            },
            {
                "start_time": 51.945454545454545,
                "end_time": 52.05,
                "pitch": 38,
                "velocity": 80,
                "duration": 0.10454545454545183,
                "tempo": 120.0
            },
            {
                "start_time": 52.06590909090909,
                "end_time": 52.168181818181814,
                "pitch": 40,
                "velocity": 80,
                "duration": 0.10227272727272663,
                "tempo": 120.0
            },
            {
                "start_time": 52.18636363636363,
                "end_time": 52.51363636363636,
                "pitch": 38,
                "velocity": 80,
                "duration": 0.32727272727272805,
                "tempo": 120.0
            },
            {
                "start_time": 52.52954545454545,
                "end_time": 52.627272727272725,
                "pitch": 33,
                "velocity": 80,
                "duration": 0.09772727272727622,
                "tempo": 120.0
            },
            {
                "start_time": 52.64545454545454,
                "end_time": 52.97954545454545,
                "pitch": 33,
                "velocity": 80,
                "duration": 0.33409090909091077,
                "tempo": 120.0
            },
            {
                "start_time": 52.99545454545454,
                "end_time": 53.09772727272727,
                "pitch": 38,
                "velocity": 80,
                "duration": 0.10227272727272663,
                "tempo": 120.0
            },
            {
                "start_time": 53.11363636363636,
                "end_time": 53.44090909090909,
                "pitch": 38,
                "velocity": 80,
                "duration": 0.32727272727272805,
                "tempo": 120.0
            },
            {
                "start_time": 53.45681818181818,
                "end_time": 53.554545454545455,
                "pitch": 43,
                "velocity": 80,
                "duration": 0.09772727272727622,
                "tempo": 120.0
            },
            {
                "start_time": 53.57272727272727,
                "end_time": 53.67272727272727,
                "pitch": 43,
                "velocity": 80,
                "duration": 0.10000000000000142,
                "tempo": 120.0
            },
            {
                "start_time": 53.68863636363636,
                "end_time": 53.788636363636364,
                "pitch": 42,
                "velocity": 80,
                "duration": 0.10000000000000142,
                "tempo": 120.0
            },
            {
                "start_time": 53.80681818181818,
                "end_time": 54.02272727272727,
                "pitch": 38,
                "velocity": 80,
                "duration": 0.2159090909090935,
                "tempo": 120.0
            },
            {
                "start_time": 54.04090909090909,
                "end_time": 54.36818181818182,
                "pitch": 38,
                "velocity": 80,
                "duration": 0.32727272727272805,
                "tempo": 120.0
            },
            {
                "start_time": 54.38409090909091,
                "end_time": 54.48181818181818,
                "pitch": 33,
                "velocity": 80,
                "duration": 0.09772727272726911,
                "tempo": 120.0
            },
            {
                "start_time": 54.49772727272727,
                "end_time": 54.834090909090904,
                "pitch": 33,
                "velocity": 80,
                "duration": 0.336363636363636,
                "tempo": 120.0
            },
            {
                "start_time": 54.849999999999994,
                "end_time": 54.949999999999996,
                "pitch": 38,
                "velocity": 80,
                "duration": 0.10000000000000142,
                "tempo": 120.0
            },
            {
                "start_time": 54.96818181818182,
                "end_time": 55.30227272727272,
                "pitch": 38,
                "velocity": 80,
                "duration": 0.33409090909090366,
                "tempo": 120.0
            },
            {
                "start_time": 55.320454545454545,
                "end_time": 55.42045454545454,
                "pitch": 33,
                "velocity": 80,
                "duration": 0.09999999999999432,
                "tempo": 120.0
            },
            {
                "start_time": 55.43636363636363,
                "end_time": 55.65454545454545,
                "pitch": 33,
                "velocity": 80,
                "duration": 0.2181818181818187,
                "tempo": 120.0
            },
            {
                "start_time": 55.67045454545454,
                "end_time": 55.77272727272727,
                "pitch": 38,
                "velocity": 80,
                "duration": 0.10227272727273373,
                "tempo": 120.0
            },
            {
                "start_time": 55.788636363636364,
                "end_time": 55.88863636363636,
                "pitch": 39,
                "velocity": 80,
                "duration": 0.09999999999999432,
                "tempo": 120.0
            },
            {
                "start_time": 55.90681818181818,
                "end_time": 56.00454545454545,
                "pitch": 40,
                "velocity": 80,
                "duration": 0.09772727272726911,
                "tempo": 120.0
            },
            {
                "start_time": 56.02045454545454,
                "end_time": 56.11818181818182,
                "pitch": 40,
                "velocity": 80,
                "duration": 0.09772727272727622,
                "tempo": 120.0
            },
            {
                "start_time": 56.13409090909091,
                "end_time": 56.23409090909091,
                "pitch": 40,
                "velocity": 80,
                "duration": 0.10000000000000142,
                "tempo": 120.0
            },
            {
                "start_time": 56.59772727272727,
                "end_time": 56.699999999999996,
                "pitch": 40,
                "velocity": 80,
                "duration": 0.10227272727272663,
                "tempo": 120.0
            },
            {
                "start_time": 56.715909090909086,
                "end_time": 56.81590909090909,
                "pitch": 40,
                "velocity": 80,
                "duration": 0.10000000000000142,
                "tempo": 120.0
            },
            {
                "start_time": 56.83181818181818,
                "end_time": 56.934090909090905,
                "pitch": 40,
                "velocity": 80,
                "duration": 0.10227272727272663,
                "tempo": 120.0
            },
            {
                "start_time": 57.75909090909091,
                "end_time": 58.095454545454544,
                "pitch": 36,
                "velocity": 80,
                "duration": 0.336363636363636,
                "tempo": 120.0
            },
            {
                "start_time": 58.111363636363635,
                "end_time": 58.211363636363636,
                "pitch": 43,
                "velocity": 80,
                "duration": 0.10000000000000142,
                "tempo": 120.0
            },
            {
                "start_time": 58.22954545454545,
                "end_time": 58.32727272727272,
                "pitch": 43,
                "velocity": 80,
                "duration": 0.09772727272726911,
                "tempo": 120.0
            },
            {
                "start_time": 58.34318181818182,
                "end_time": 58.55681818181818,
                "pitch": 48,
                "velocity": 80,
                "duration": 0.21363636363636118,
                "tempo": 120.0
            },
            {
                "start_time": 58.57272727272727,
                "end_time": 58.67045454545454,
                "pitch": 43,
                "velocity": 80,
                "duration": 0.09772727272726911,
                "tempo": 120.0
            },
            {
                "start_time": 58.68636363636363,
                "end_time": 59.02272727272727,
                "pitch": 38,
                "velocity": 80,
                "duration": 0.3363636363636431,
                "tempo": 120.0
            },
            {
                "start_time": 59.038636363636364,
                "end_time": 59.13863636363636,
                "pitch": 45,
                "velocity": 80,
                "duration": 0.09999999999999432,
                "tempo": 120.0
            },
            {
                "start_time": 59.15681818181818,
                "end_time": 59.256818181818176,
                "pitch": 45,
                "velocity": 80,
                "duration": 0.09999999999999432,
                "tempo": 120.0
            },
            {
                "start_time": 59.27272727272727,
                "end_time": 59.490909090909085,
                "pitch": 50,
                "velocity": 80,
                "duration": 0.2181818181818116,
                "tempo": 120.0
            },
            {
                "start_time": 59.50909090909091,
                "end_time": 59.60909090909091,
                "pitch": 45,
                "velocity": 80,
                "duration": 0.10000000000000142,
                "tempo": 120.0
            },
            {
                "start_time": 59.625,
                "end_time": 59.95227272727272,
                "pitch": 40,
                "velocity": 80,
                "duration": 0.32727272727272094,
                "tempo": 120.0
            },
            {
                "start_time": 59.96818181818182,
                "end_time": 60.06590909090909,
                "pitch": 47,
                "velocity": 80,
                "duration": 0.09772727272726911,
                "tempo": 120.0
            },
            {
                "start_time": 60.084090909090904,
                "end_time": 60.184090909090905,
                "pitch": 47,
                "velocity": 80,
                "duration": 0.10000000000000142,
                "tempo": 120.0
            },
            {
                "start_time": 60.199999999999996,
                "end_time": 60.418181818181814,
                "pitch": 52,
                "velocity": 80,
                "duration": 0.2181818181818187,
                "tempo": 120.0
            },
            {
                "start_time": 60.434090909090905,
                "end_time": 60.65,
                "pitch": 50,
                "velocity": 80,
                "duration": 0.2159090909090935,
                "tempo": 120.0
            },
            {
                "start_time": 60.66590909090909,
                "end_time": 60.76590909090909,
                "pitch": 47,
                "velocity": 80,
                "duration": 0.10000000000000142,
                "tempo": 120.0
            },
            {
                "start_time": 60.78181818181818,
                "end_time": 60.87954545454545,
                "pitch": 47,
                "velocity": 80,
                "duration": 0.09772727272726911,
                "tempo": 120.0
            },
            {
                "start_time": 60.89545454545454,
                "end_time": 60.99318181818182,
                "pitch": 54,
                "velocity": 80,
                "duration": 0.09772727272727622,
                "tempo": 120.0
            },
            {
                "start_time": 61.01136363636363,
                "end_time": 61.46363636363636,
                "pitch": 52,
                "velocity": 80,
                "duration": 0.45227272727272805,
                "tempo": 120.0
            },
            {
                "start_time": 61.47954545454545,
                "end_time": 61.81363636363636,
                "pitch": 36,
                "velocity": 80,
                "duration": 0.33409090909091077,
                "tempo": 120.0
            },
            {
                "start_time": 61.83181818181818,
                "end_time": 61.93181818181818,
                "pitch": 43,
                "velocity": 80,
                "duration": 0.10000000000000142,
                "tempo": 120.0
            },
            {
                "start_time": 61.94772727272727,
                "end_time": 62.05,
                "pitch": 43,
                "velocity": 80,
                "duration": 0.10227272727272663,
                "tempo": 120.0
            },
            {
                "start_time": 62.06590909090909,
                "end_time": 62.28409090909091,
                "pitch": 48,
                "velocity": 80,
                "duration": 0.2181818181818187,
                "tempo": 120.0
            },
            {
                "start_time": 62.3,
                "end_time": 62.4,
                "pitch": 43,
                "velocity": 80,
                "duration": 0.10000000000000142,
                "tempo": 120.0
            },
            {
                "start_time": 62.418181818181814,
                "end_time": 62.74545454545454,
                "pitch": 38,
                "velocity": 80,
                "duration": 0.32727272727272805,
                "tempo": 120.0
            },
            {
                "start_time": 62.76136363636363,
                "end_time": 62.85909090909091,
                "pitch": 45,
                "velocity": 80,
                "duration": 0.09772727272727622,
                "tempo": 120.0
            },
            {
                "start_time": 62.875,
                "end_time": 62.97727272727273,
                "pitch": 45,
                "velocity": 80,
                "duration": 0.10227272727272663,
                "tempo": 120.0
            },
            {
                "start_time": 62.99318181818182,
                "end_time": 63.211363636363636,
                "pitch": 50,
                "velocity": 80,
                "duration": 0.2181818181818187,
                "tempo": 120.0
            },
            {
                "start_time": 63.22727272727273,
                "end_time": 63.32727272727272,
                "pitch": 45,
                "velocity": 80,
                "duration": 0.09999999999999432,
                "tempo": 120.0
            },
            {
                "start_time": 63.345454545454544,
                "end_time": 63.679545454545455,
                "pitch": 40,
                "velocity": 80,
                "duration": 0.33409090909091077,
                "tempo": 120.0
            },
            {
                "start_time": 63.695454545454545,
                "end_time": 63.79772727272727,
                "pitch": 47,
                "velocity": 80,
                "duration": 0.10227272727272663,
                "tempo": 120.0
            },
            {
                "start_time": 63.81363636363636,
                "end_time": 63.91136363636363,
                "pitch": 47,
                "velocity": 80,
                "duration": 0.09772727272726911,
                "tempo": 120.0
            },
            {
                "start_time": 63.92727272727272,
                "end_time": 64.14090909090909,
                "pitch": 54,
                "velocity": 80,
                "duration": 0.2136363636363683,
                "tempo": 120.0
            },
            {
                "start_time": 64.15681818181818,
                "end_time": 64.48863636363636,
                "pitch": 52,
                "velocity": 80,
                "duration": 0.33181818181817846,
                "tempo": 120.0
            },
            {
                "start_time": 64.50681818181818,
                "end_time": 64.725,
                "pitch": 52,
                "velocity": 80,
                "duration": 0.2181818181818187,
                "tempo": 120.0
            },
            {
                "start_time": 64.74090909090908,
                "end_time": 64.9590909090909,
                "pitch": 52,
                "velocity": 80,
                "duration": 0.2181818181818187,
                "tempo": 120.0
            },
            {
                "start_time": 64.975,
                "end_time": 65.19318181818181,
                "pitch": 50,
                "velocity": 80,
                "duration": 0.2181818181818187,
                "tempo": 120.0
            },
            {
                "start_time": 65.2090909090909,
                "end_time": 65.53636363636363,
                "pitch": 36,
                "velocity": 80,
                "duration": 0.32727272727272805,
                "tempo": 120.0
            },
            {
                "start_time": 65.55454545454545,
                "end_time": 65.65227272727273,
                "pitch": 43,
                "velocity": 80,
                "duration": 0.09772727272728332,
                "tempo": 120.0
            },
            {
                "start_time": 65.66818181818182,
                "end_time": 65.76818181818182,
                "pitch": 43,
                "velocity": 80,
                "duration": 0.09999999999999432,
                "tempo": 120.0
            },
            {
                "start_time": 65.78636363636363,
                "end_time": 66.00227272727273,
                "pitch": 48,
                "velocity": 80,
                "duration": 0.2159090909090935,
                "tempo": 120.0
            },
            {
                "start_time": 66.02045454545454,
                "end_time": 66.12045454545454,
                "pitch": 43,
                "velocity": 80,
                "duration": 0.09999999999999432,
                "tempo": 120.0
            },
            {
                "start_time": 66.13636363636364,
                "end_time": 66.47272727272727,
                "pitch": 38,
                "velocity": 80,
                "duration": 0.33636363636362887,
                "tempo": 120.0
            },
            {
                "start_time": 66.48863636363636,
                "end_time": 66.58863636363635,
                "pitch": 45,
                "velocity": 80,
                "duration": 0.09999999999999432,
                "tempo": 120.0
            },
            {
                "start_time": 66.60681818181818,
                "end_time": 66.70454545454545,
                "pitch": 45,
                "velocity": 80,
                "duration": 0.09772727272726911,
                "tempo": 120.0
            },
            {
                "start_time": 66.72045454545454,
                "end_time": 66.93409090909091,
                "pitch": 50,
                "velocity": 80,
                "duration": 0.2136363636363683,
                "tempo": 120.0
            },
            {
                "start_time": 66.95,
                "end_time": 67.04772727272727,
                "pitch": 45,
                "velocity": 80,
                "duration": 0.09772727272726911,
                "tempo": 120.0
            },
            {
                "start_time": 67.06363636363636,
                "end_time": 67.39999999999999,
                "pitch": 40,
                "velocity": 80,
                "duration": 0.33636363636362887,
                "tempo": 120.0
            },
            {
                "start_time": 67.41590909090908,
                "end_time": 67.51590909090909,
                "pitch": 47,
                "velocity": 80,
                "duration": 0.10000000000000853,
                "tempo": 120.0
            },
            {
                "start_time": 67.5340909090909,
                "end_time": 67.6340909090909,
                "pitch": 47,
                "velocity": 80,
                "duration": 0.09999999999999432,
                "tempo": 120.0
            },
            {
                "start_time": 67.64999999999999,
                "end_time": 67.86818181818181,
                "pitch": 52,
                "velocity": 80,
                "duration": 0.2181818181818187,
                "tempo": 120.0
            },
            {
                "start_time": 67.8840909090909,
                "end_time": 68.1,
                "pitch": 50,
                "velocity": 80,
                "duration": 0.2159090909090935,
                "tempo": 120.0
            },
            {
                "start_time": 68.11590909090908,
                "end_time": 68.2159090909091,
                "pitch": 47,
                "velocity": 80,
                "duration": 0.10000000000000853,
                "tempo": 120.0
            },
            {
                "start_time": 68.23181818181818,
                "end_time": 68.32954545454545,
                "pitch": 47,
                "velocity": 80,
                "duration": 0.09772727272726911,
                "tempo": 120.0
            },
            {
                "start_time": 68.34545454545454,
                "end_time": 68.44318181818181,
                "pitch": 54,
                "velocity": 80,
                "duration": 0.09772727272726911,
                "tempo": 120.0
            },
            {
                "start_time": 68.46136363636363,
                "end_time": 68.91363636363636,
                "pitch": 52,
                "velocity": 80,
                "duration": 0.45227272727272805,
                "tempo": 120.0
            },
            {
                "start_time": 68.92954545454545,
                "end_time": 69.26363636363637,
                "pitch": 36,
                "velocity": 80,
                "duration": 0.3340909090909179,
                "tempo": 120.0
            },
            {
                "start_time": 69.28181818181818,
                "end_time": 69.38181818181818,
                "pitch": 43,
                "velocity": 80,
                "duration": 0.09999999999999432,
                "tempo": 120.0
            },
            {
                "start_time": 69.39772727272727,
                "end_time": 69.49545454545454,
                "pitch": 43,
                "velocity": 80,
                "duration": 0.09772727272726911,
                "tempo": 120.0
            },
            {
                "start_time": 69.51363636363637,
                "end_time": 69.725,
                "pitch": 48,
                "velocity": 80,
                "duration": 0.21136363636362887,
                "tempo": 120.0
            },
            {
                "start_time": 69.74090909090908,
                "end_time": 69.8409090909091,
                "pitch": 43,
                "velocity": 80,
                "duration": 0.10000000000000853,
                "tempo": 120.0
            },
            {
                "start_time": 69.85681818181818,
                "end_time": 70.19090909090909,
                "pitch": 38,
                "velocity": 80,
                "duration": 0.33409090909090366,
                "tempo": 120.0
            },
            {
                "start_time": 70.2090909090909,
                "end_time": 70.30909090909091,
                "pitch": 45,
                "velocity": 80,
                "duration": 0.10000000000000853,
                "tempo": 120.0
            },
            {
                "start_time": 70.325,
                "end_time": 70.425,
                "pitch": 45,
                "velocity": 80,
                "duration": 0.09999999999999432,
                "tempo": 120.0
            },
            {
                "start_time": 70.44318181818181,
                "end_time": 70.66136363636363,
                "pitch": 50,
                "velocity": 80,
                "duration": 0.2181818181818187,
                "tempo": 120.0
            },
            {
                "start_time": 70.67727272727272,
                "end_time": 70.77727272727273,
                "pitch": 45,
                "velocity": 80,
                "duration": 0.10000000000000853,
                "tempo": 120.0
            },
            {
                "start_time": 70.79545454545455,
                "end_time": 71.12272727272727,
                "pitch": 40,
                "velocity": 80,
                "duration": 0.32727272727272805,
                "tempo": 120.0
            },
            {
                "start_time": 71.13863636363637,
                "end_time": 71.23636363636363,
                "pitch": 47,
                "velocity": 80,
                "duration": 0.09772727272726911,
                "tempo": 120.0
            },
            {
                "start_time": 71.25227272727273,
                "end_time": 71.35227272727272,
                "pitch": 47,
                "velocity": 80,
                "duration": 0.09999999999999432,
                "tempo": 120.0
            },
            {
                "start_time": 71.37045454545454,
                "end_time": 71.58863636363635,
                "pitch": 54,
                "velocity": 80,
                "duration": 0.2181818181818187,
                "tempo": 120.0
            },
            {
                "start_time": 71.60454545454544,
                "end_time": 71.93863636363636,
                "pitch": 52,
                "velocity": 80,
                "duration": 0.3340909090909179,
                "tempo": 120.0
            },
            {
                "start_time": 71.95681818181818,
                "end_time": 72.175,
                "pitch": 52,
                "velocity": 80,
                "duration": 0.2181818181818187,
                "tempo": 120.0
            },
            {
                "start_time": 72.19090909090909,
                "end_time": 72.40454545454546,
                "pitch": 52,
                "velocity": 80,
                "duration": 0.2136363636363683,
                "tempo": 120.0
            },
            {
                "start_time": 72.42045454545455,
                "end_time": 72.63181818181818,
                "pitch": 50,
                "velocity": 80,
                "duration": 0.21136363636362887,
                "tempo": 120.0
            },
            {
                "start_time": 72.64999999999999,
                "end_time": 72.86590909090908,
                "pitch": 52,
                "velocity": 80,
                "duration": 0.2159090909090935,
                "tempo": 120.0
            },
            {
                "start_time": 76.36818181818181,
                "end_time": 76.70454545454545,
                "pitch": 40,
                "velocity": 80,
                "duration": 0.3363636363636431,
                "tempo": 120.0
            },
            {
                "start_time": 76.72045454545454,
                "end_time": 76.82045454545454,
                "pitch": 40,
                "velocity": 80,
                "duration": 0.09999999999999432,
                "tempo": 120.0
            },
            {
                "start_time": 77.07272727272726,
                "end_time": 77.29090909090908,
                "pitch": 40,
                "velocity": 80,
                "duration": 0.2181818181818187,
                "tempo": 120.0
            },
            {
                "start_time": 77.54090909090908,
                "end_time": 77.64090909090909,
                "pitch": 38,
                "velocity": 80,
                "duration": 0.10000000000000853,
                "tempo": 120.0
            },
            {
                "start_time": 77.77499999999999,
                "end_time": 77.98863636363636,
                "pitch": 40,
                "velocity": 80,
                "duration": 0.2136363636363683,
                "tempo": 120.0
            },
            {
                "start_time": 78.23409090909091,
                "end_time": 78.56818181818181,
                "pitch": 40,
                "velocity": 80,
                "duration": 0.33409090909090366,
                "tempo": 120.0
            },
            {
                "start_time": 78.58636363636363,
                "end_time": 78.68636363636364,
                "pitch": 40,
                "velocity": 80,
                "duration": 0.10000000000000853,
                "tempo": 120.0
            },
            {
                "start_time": 78.93863636363636,
                "end_time": 79.15454545454546,
                "pitch": 40,
                "velocity": 80,
                "duration": 0.2159090909090935,
                "tempo": 120.0
            },
            {
                "start_time": 79.40681818181818,
                "end_time": 79.50681818181818,
                "pitch": 38,
                "velocity": 80,
                "duration": 0.09999999999999432,
                "tempo": 120.0
            },
            {
                "start_time": 79.64090909090909,
                "end_time": 79.85454545454544,
                "pitch": 40,
                "velocity": 80,
                "duration": 0.21363636363635408,
                "tempo": 120.0
            },
            {
                "start_time": 79.87045454545454,
                "end_time": 80.0840909090909,
                "pitch": 35,
                "velocity": 80,
                "duration": 0.2136363636363683,
                "tempo": 120.0
            },
            {
                "start_time": 80.1,
                "end_time": 80.42727272727272,
                "pitch": 40,
                "velocity": 80,
                "duration": 0.32727272727272805,
                "tempo": 120.0
            },
            {
                "start_time": 80.44318181818181,
                "end_time": 80.54090909090908,
                "pitch": 40,
                "velocity": 80,
                "duration": 0.09772727272726911,
                "tempo": 120.0
            },
            {
                "start_time": 80.79318181818181,
                "end_time": 81.0090909090909,
                "pitch": 40,
                "velocity": 80,
                "duration": 0.2159090909090935,
                "tempo": 120.0
            },
            {
                "start_time": 81.26136363636363,
                "end_time": 81.36136363636363,
                "pitch": 38,
                "velocity": 80,
                "duration": 0.10000000000000853,
                "tempo": 120.0
            },
            {
                "start_time": 81.49545454545454,
                "end_time": 81.7090909090909,
                "pitch": 40,
                "velocity": 80,
                "duration": 0.2136363636363683,
                "tempo": 120.0
            },
            {
                "start_time": 81.95454545454545,
                "end_time": 82.28863636363636,
                "pitch": 40,
                "velocity": 80,
                "duration": 0.33409090909090366,
                "tempo": 120.0
            },
            {
                "start_time": 82.30454545454545,
                "end_time": 82.40681818181818,
                "pitch": 40,
                "velocity": 80,
                "duration": 0.10227272727273373,
                "tempo": 120.0
            },
            {
                "start_time": 82.65681818181818,
                "end_time": 82.875,
                "pitch": 40,
                "velocity": 80,
                "duration": 0.2181818181818187,
                "tempo": 120.0
            },
            {
                "start_time": 83.12727272727273,
                "end_time": 83.22727272727272,
                "pitch": 38,
                "velocity": 80,
                "duration": 0.09999999999999432,
                "tempo": 120.0
            },
            {
                "start_time": 83.36136363636363,
                "end_time": 83.57272727272726,
                "pitch": 40,
                "velocity": 80,
                "duration": 0.21136363636362887,
                "tempo": 120.0
            },
            {
                "start_time": 83.81818181818181,
                "end_time": 84.15454545454546,
                "pitch": 40,
                "velocity": 80,
                "duration": 0.3363636363636431,
                "tempo": 120.0
            },
            {
                "start_time": 84.17045454545455,
                "end_time": 84.27045454545454,
                "pitch": 35,
                "velocity": 80,
                "duration": 0.09999999999999432,
                "tempo": 120.0
            },
            {
                "start_time": 84.28863636363636,
                "end_time": 84.62272727272727,
                "pitch": 35,
                "velocity": 80,
                "duration": 0.3340909090909179,
                "tempo": 120.0
            },
            {
                "start_time": 84.63863636363637,
                "end_time": 84.74090909090908,
                "pitch": 40,
                "velocity": 80,
                "duration": 0.10227272727271952,
                "tempo": 120.0
            },
            {
                "start_time": 84.75681818181818,
                "end_time": 85.0840909090909,
                "pitch": 40,
                "velocity": 80,
                "duration": 0.32727272727272805,
                "tempo": 120.0
            },
            {
                "start_time": 85.1,
                "end_time": 85.19772727272726,
                "pitch": 35,
                "velocity": 80,
                "duration": 0.09772727272726911,
                "tempo": 120.0
            },
            {
                "start_time": 85.2159090909091,
                "end_time": 85.43181818181817,
                "pitch": 35,
                "velocity": 80,
                "duration": 0.21590909090907928,
                "tempo": 120.0
            },
            {
                "start_time": 85.45,
                "end_time": 85.55,
                "pitch": 38,
                "velocity": 80,
                "duration": 0.09999999999999432,
                "tempo": 120.0
            },
            {
                "start_time": 85.56590909090909,
                "end_time": 85.66818181818181,
                "pitch": 40,
                "velocity": 80,
                "duration": 0.10227272727271952,
                "tempo": 120.0
            },
            {
                "start_time": 85.6840909090909,
                "end_time": 86.01818181818182,
                "pitch": 38,
                "velocity": 80,
                "duration": 0.3340909090909179,
                "tempo": 120.0
            },
            {
                "start_time": 86.03636363636363,
                "end_time": 86.13636363636363,
                "pitch": 33,
                "velocity": 80,
                "duration": 0.09999999999999432,
                "tempo": 120.0
            },
            {
                "start_time": 86.15227272727272,
                "end_time": 86.48863636363636,
                "pitch": 33,
                "velocity": 80,
                "duration": 0.3363636363636431,
                "tempo": 120.0
            },
            {
                "start_time": 86.50454545454545,
                "end_time": 86.60454545454544,
                "pitch": 38,
                "velocity": 80,
                "duration": 0.09999999999999432,
                "tempo": 120.0
            },
            {
                "start_time": 86.62272727272727,
                "end_time": 86.95,
                "pitch": 38,
                "velocity": 80,
                "duration": 0.32727272727272805,
                "tempo": 120.0
            },
            {
                "start_time": 86.9659090909091,
                "end_time": 87.06363636363636,
                "pitch": 33,
                "velocity": 80,
                "duration": 0.09772727272726911,
                "tempo": 120.0
            },
            {
                "start_time": 87.07954545454545,
                "end_time": 87.18181818181817,
                "pitch": 33,
                "velocity": 80,
                "duration": 0.10227272727271952,
                "tempo": 120.0
            },
            {
                "start_time": 87.19772727272726,
                "end_time": 87.29772727272727,
                "pitch": 40,
                "velocity": 80,
                "duration": 0.10000000000000853,
                "tempo": 120.0
            },
            {
                "start_time": 87.31590909090909,
                "end_time": 87.41590909090908,
                "pitch": 38,
                "velocity": 80,
                "duration": 0.09999999999999432,
                "tempo": 120.0
            },
            {
                "start_time": 87.43181818181817,
                "end_time": 87.53181818181818,
                "pitch": 37,
                "velocity": 80,
                "duration": 0.10000000000000853,
                "tempo": 120.0
            },
            {
                "start_time": 87.55,
                "end_time": 87.87727272727273,
                "pitch": 38,
                "velocity": 80,
                "duration": 0.32727272727272805,
                "tempo": 120.0
            },
            {
                "start_time": 87.89318181818182,
                "end_time": 87.99090909090908,
                "pitch": 33,
                "velocity": 80,
                "duration": 0.09772727272726911,
                "tempo": 120.0
            },
            {
                "start_time": 88.00681818181818,
                "end_time": 88.34318181818182,
                "pitch": 33,
                "velocity": 80,
                "duration": 0.3363636363636431,
                "tempo": 120.0
            },
            {
                "start_time": 88.35909090909091,
                "end_time": 88.4590909090909,
                "pitch": 38,
                "velocity": 80,
                "duration": 0.09999999999999432,
                "tempo": 120.0
            },
            {
                "start_time": 88.47727272727272,
                "end_time": 88.81136363636364,
                "pitch": 38,
                "velocity": 80,
                "duration": 0.3340909090909179,
                "tempo": 120.0
            },
            {
                "start_time": 88.82727272727273,
                "end_time": 88.92954545454545,
                "pitch": 33,
                "velocity": 80,
                "duration": 0.10227272727271952,
                "tempo": 120.0
            },
            {
                "start_time": 88.94545454545454,
                "end_time": 89.16363636363636,
                "pitch": 33,
                "velocity": 80,
                "duration": 0.2181818181818187,
                "tempo": 120.0
            },
            {
                "start_time": 89.17954545454545,
                "end_time": 89.27954545454546,
                "pitch": 38,
                "velocity": 80,
                "duration": 0.10000000000000853,
                "tempo": 120.0
            },
            {
                "start_time": 89.29772727272727,
                "end_time": 89.39772727272727,
                "pitch": 39,
                "velocity": 80,
                "duration": 0.09999999999999432,
                "tempo": 120.0
            },
            {
                "start_time": 89.41363636363636,
                "end_time": 89.74090909090908,
                "pitch": 40,
                "velocity": 80,
                "duration": 0.32727272727272805,
                "tempo": 120.0
            },
            {
                "start_time": 89.7590909090909,
                "end_time": 89.85681818181818,
                "pitch": 35,
                "velocity": 80,
                "duration": 0.09772727272728332,
                "tempo": 120.0
            },
            {
                "start_time": 89.87272727272727,
                "end_time": 90.20681818181818,
                "pitch": 35,
                "velocity": 80,
                "duration": 0.33409090909090366,
                "tempo": 120.0
            },
            {
                "start_time": 90.225,
                "end_time": 90.32499999999999,
                "pitch": 40,
                "velocity": 80,
                "duration": 0.09999999999999432,
                "tempo": 120.0
            },
            {
                "start_time": 90.3409090909091,
                "end_time": 90.66818181818181,
                "pitch": 40,
                "velocity": 80,
                "duration": 0.32727272727271384,
                "tempo": 120.0
            },
            {
                "start_time": 90.68636363636364,
                "end_time": 90.7840909090909,
                "pitch": 35,
                "velocity": 80,
                "duration": 0.09772727272726911,
                "tempo": 120.0
            },
            {
                "start_time": 90.8,
                "end_time": 91.01818181818182,
                "pitch": 35,
                "velocity": 80,
                "duration": 0.2181818181818187,
                "tempo": 120.0
            },
            {
                "start_time": 91.0340909090909,
                "end_time": 91.1340909090909,
                "pitch": 38,
                "velocity": 80,
                "duration": 0.09999999999999432,
                "tempo": 120.0
            },
            {
                "start_time": 91.15227272727272,
                "end_time": 91.25227272727273,
                "pitch": 40,
                "velocity": 80,
                "duration": 0.10000000000000853,
                "tempo": 120.0
            },
            {
                "start_time": 91.26818181818182,
                "end_time": 91.60454545454544,
                "pitch": 40,
                "velocity": 80,
                "duration": 0.33636363636362887,
                "tempo": 120.0
            },
            {
                "start_time": 91.62045454545454,
                "end_time": 91.72045454545454,
                "pitch": 35,
                "velocity": 80,
                "duration": 0.10000000000000853,
                "tempo": 120.0
            },
            {
                "start_time": 91.73863636363636,
                "end_time": 92.07272727272726,
                "pitch": 35,
                "velocity": 80,
                "duration": 0.33409090909090366,
                "tempo": 120.0
            },
            {
                "start_time": 92.08863636363635,
                "end_time": 92.19090909090909,
                "pitch": 40,
                "velocity": 80,
                "duration": 0.10227272727273373,
                "tempo": 120.0
            },
            {
                "start_time": 92.20681818181818,
                "end_time": 92.5340909090909,
                "pitch": 40,
                "velocity": 80,
                "duration": 0.32727272727272805,
                "tempo": 120.0
            },
            {
                "start_time": 92.55,
                "end_time": 92.64772727272727,
                "pitch": 35,
                "velocity": 80,
                "duration": 0.09772727272726911,
                "tempo": 120.0
            },
            {
                "start_time": 92.66590909090908,
                "end_time": 92.88181818181818,
                "pitch": 35,
                "velocity": 80,
                "duration": 0.2159090909090935,
                "tempo": 120.0
            },
            {
                "start_time": 92.89999999999999,
                "end_time": 93.0,
                "pitch": 38,
                "velocity": 80,
                "duration": 0.10000000000000853,
                "tempo": 120.0
            },
            {
                "start_time": 93.01590909090909,
                "end_time": 93.11818181818181,
                "pitch": 40,
                "velocity": 80,
                "duration": 0.10227272727271952,
                "tempo": 120.0
            },
            {
                "start_time": 93.1340909090909,
                "end_time": 93.46136363636363,
                "pitch": 38,
                "velocity": 80,
                "duration": 0.32727272727272805,
                "tempo": 120.0
            },
            {
                "start_time": 93.47727272727272,
                "end_time": 93.57499999999999,
                "pitch": 33,
                "velocity": 80,
                "duration": 0.09772727272726911,
                "tempo": 120.0
            },
            {
                "start_time": 93.59318181818182,
                "end_time": 93.92727272727272,
                "pitch": 33,
                "velocity": 80,
                "duration": 0.33409090909090366,
                "tempo": 120.0
            },
            {
                "start_time": 93.94318181818181,
                "end_time": 94.04545454545455,
                "pitch": 38,
                "velocity": 80,
                "duration": 0.10227272727273373,
                "tempo": 120.0
            },
            {
                "start_time": 94.06136363636364,
                "end_time": 94.39545454545454,
                "pitch": 38,
                "velocity": 80,
                "duration": 0.33409090909090366,
                "tempo": 120.0
            },
            {
                "start_time": 94.41363636363636,
                "end_time": 94.51363636363637,
                "pitch": 43,
                "velocity": 80,
                "duration": 0.10000000000000853,
                "tempo": 120.0
            },
            {
                "start_time": 94.52954545454546,
                "end_time": 94.62954545454545,
                "pitch": 43,
                "velocity": 80,
                "duration": 0.09999999999999432,
                "tempo": 120.0
            },
            {
                "start_time": 94.64772727272727,
                "end_time": 94.74772727272727,
                "pitch": 42,
                "velocity": 80,
                "duration": 0.10000000000000853,
                "tempo": 120.0
            },
            {
                "start_time": 94.76363636363637,
                "end_time": 94.98181818181818,
                "pitch": 38,
                "velocity": 80,
                "duration": 0.2181818181818187,
                "tempo": 120.0
            },
            {
                "start_time": 95.0,
                "end_time": 95.32727272727273,
                "pitch": 38,
                "velocity": 80,
                "duration": 0.32727272727272805,
                "tempo": 120.0
            },
            {
                "start_time": 95.34318181818182,
                "end_time": 95.44090909090909,
                "pitch": 33,
                "velocity": 80,
                "duration": 0.09772727272726911,
                "tempo": 120.0
            },
            {
                "start_time": 95.45681818181818,
                "end_time": 95.79318181818181,
                "pitch": 33,
                "velocity": 80,
                "duration": 0.33636363636362887,
                "tempo": 120.0
            },
            {
                "start_time": 95.8090909090909,
                "end_time": 95.9090909090909,
                "pitch": 38,
                "velocity": 80,
                "duration": 0.10000000000000853,
                "tempo": 120.0
            },
            {
                "start_time": 95.92727272727272,
                "end_time": 96.25454545454545,
                "pitch": 38,
                "velocity": 80,
                "duration": 0.32727272727272805,
                "tempo": 120.0
            },
            {
                "start_time": 96.27045454545454,
                "end_time": 96.36818181818181,
                "pitch": 33,
                "velocity": 80,
                "duration": 0.09772727272726911,
                "tempo": 120.0
            },
            {
                "start_time": 96.3840909090909,
                "end_time": 96.60227272727272,
                "pitch": 33,
                "velocity": 80,
                "duration": 0.2181818181818187,
                "tempo": 120.0
            },
            {
                "start_time": 96.61818181818181,
                "end_time": 96.72045454545454,
                "pitch": 38,
                "velocity": 80,
                "duration": 0.10227272727273373,
                "tempo": 120.0
            },
            {
                "start_time": 96.73636363636363,
                "end_time": 96.83636363636363,
                "pitch": 39,
                "velocity": 80,
                "duration": 0.09999999999999432,
                "tempo": 120.0
            },
            {
                "start_time": 96.85454545454544,
                "end_time": 96.95454545454545,
                "pitch": 40,
                "velocity": 80,
                "duration": 0.10000000000000853,
                "tempo": 120.0
            },
            {
                "start_time": 96.97045454545454,
                "end_time": 97.07045454545454,
                "pitch": 40,
                "velocity": 80,
                "duration": 0.09999999999999432,
                "tempo": 120.0
            },
            {
                "start_time": 97.08863636363635,
                "end_time": 97.18863636363636,
                "pitch": 40,
                "velocity": 80,
                "duration": 0.10000000000000853,
                "tempo": 120.0
            },
            {
                "start_time": 97.55227272727272,
                "end_time": 97.64999999999999,
                "pitch": 40,
                "velocity": 80,
                "duration": 0.09772727272726911,
                "tempo": 120.0
            },
            {
                "start_time": 97.66590909090908,
                "end_time": 97.76363636363637,
                "pitch": 40,
                "velocity": 80,
                "duration": 0.09772727272728332,
                "tempo": 120.0
            },
            {
                "start_time": 97.77954545454546,
                "end_time": 97.8840909090909,
                "pitch": 40,
                "velocity": 80,
                "duration": 0.10454545454544473,
                "tempo": 120.0
            },
            {
                "start_time": 98.71818181818182,
                "end_time": 99.04545454545455,
                "pitch": 36,
                "velocity": 80,
                "duration": 0.32727272727272805,
                "tempo": 120.0
            },
            {
                "start_time": 99.06363636363636,
                "end_time": 99.16136363636363,
                "pitch": 43,
                "velocity": 80,
                "duration": 0.09772727272726911,
                "tempo": 120.0
            },
            {
                "start_time": 99.17727272727272,
                "end_time": 99.27727272727272,
                "pitch": 43,
                "velocity": 80,
                "duration": 0.09999999999999432,
                "tempo": 120.0
            },
            {
                "start_time": 99.29545454545455,
                "end_time": 99.51136363636363,
                "pitch": 48,
                "velocity": 80,
                "duration": 0.21590909090907928,
                "tempo": 120.0
            },
            {
                "start_time": 99.52954545454546,
                "end_time": 99.62954545454545,
                "pitch": 43,
                "velocity": 80,
                "duration": 0.09999999999999432,
                "tempo": 120.0
            },
            {
                "start_time": 99.64545454545454,
                "end_time": 99.98181818181817,
                "pitch": 38,
                "velocity": 80,
                "duration": 0.33636363636362887,
                "tempo": 120.0
            },
            {
                "start_time": 99.99772727272727,
                "end_time": 100.09772727272727,
                "pitch": 45,
                "velocity": 80,
                "duration": 0.09999999999999432,
                "tempo": 120.0
            },
            {
                "start_time": 100.11590909090908,
                "end_time": 100.21363636363635,
                "pitch": 45,
                "velocity": 80,
                "duration": 0.09772727272726911,
                "tempo": 120.0
            },
            {
                "start_time": 100.22954545454544,
                "end_time": 100.44318181818181,
                "pitch": 50,
                "velocity": 80,
                "duration": 0.2136363636363683,
                "tempo": 120.0
            },
            {
                "start_time": 100.4590909090909,
                "end_time": 100.55681818181817,
                "pitch": 45,
                "velocity": 80,
                "duration": 0.09772727272726911,
                "tempo": 120.0
            },
            {
                "start_time": 100.57272727272726,
                "end_time": 100.9090909090909,
                "pitch": 40,
                "velocity": 80,
                "duration": 0.3363636363636431,
                "tempo": 120.0
            },
            {
                "start_time": 100.925,
                "end_time": 101.02499999999999,
                "pitch": 47,
                "velocity": 80,
                "duration": 0.09999999999999432,
                "tempo": 120.0
            },
            {
                "start_time": 101.04318181818181,
                "end_time": 101.14318181818182,
                "pitch": 47,
                "velocity": 80,
                "duration": 0.10000000000000853,
                "tempo": 120.0
            },
            {
                "start_time": 101.1590909090909,
                "end_time": 101.37727272727273,
                "pitch": 52,
                "velocity": 80,
                "duration": 0.2181818181818187,
                "tempo": 120.0
            },
            {
                "start_time": 101.39318181818182,
                "end_time": 101.60909090909091,
                "pitch": 50,
                "velocity": 80,
                "duration": 0.2159090909090935,
                "tempo": 120.0
            },
            {
                "start_time": 101.625,
                "end_time": 101.725,
                "pitch": 47,
                "velocity": 80,
                "duration": 0.09999999999999432,
                "tempo": 120.0
            },
            {
                "start_time": 101.74090909090908,
                "end_time": 101.83863636363635,
                "pitch": 47,
                "velocity": 80,
                "duration": 0.09772727272726911,
                "tempo": 120.0
            },
            {
                "start_time": 101.85454545454544,
                "end_time": 101.95227272727273,
                "pitch": 54,
                "velocity": 80,
                "duration": 0.09772727272728332,
                "tempo": 120.0
            },
            {
                "start_time": 101.97045454545454,
                "end_time": 102.42272727272727,
                "pitch": 52,
                "velocity": 80,
                "duration": 0.45227272727272805,
                "tempo": 120.0
            },
            {
                "start_time": 102.43863636363636,
                "end_time": 102.77272727272727,
                "pitch": 36,
                "velocity": 80,
                "duration": 0.33409090909090366,
                "tempo": 120.0
            },
            {
                "start_time": 102.79090909090908,
                "end_time": 102.89090909090909,
                "pitch": 43,
                "velocity": 80,
                "duration": 0.10000000000000853,
                "tempo": 120.0
            },
            {
                "start_time": 102.90681818181818,
                "end_time": 103.00454545454545,
                "pitch": 43,
                "velocity": 80,
                "duration": 0.09772727272726911,
                "tempo": 120.0
            },
            {
                "start_time": 103.02272727272727,
                "end_time": 103.23409090909091,
                "pitch": 48,
                "velocity": 80,
                "duration": 0.21136363636364308,
                "tempo": 120.0
            },
            {
                "start_time": 103.25,
                "end_time": 103.35,
                "pitch": 43,
                "velocity": 80,
                "duration": 0.09999999999999432,
                "tempo": 120.0
            },
            {
                "start_time": 103.36590909090908,
                "end_time": 103.69999999999999,
                "pitch": 38,
                "velocity": 80,
                "duration": 0.33409090909090366,
                "tempo": 120.0
            },
            {
                "start_time": 103.71818181818182,
                "end_time": 103.81818181818181,
                "pitch": 45,
                "velocity": 80,
                "duration": 0.09999999999999432,
                "tempo": 120.0
            },
            {
                "start_time": 103.8340909090909,
                "end_time": 103.93181818181817,
                "pitch": 45,
                "velocity": 80,
                "duration": 0.09772727272726911,
                "tempo": 120.0
            },
            {
                "start_time": 103.94999999999999,
                "end_time": 104.16136363636363,
                "pitch": 50,
                "velocity": 80,
                "duration": 0.21136363636364308,
                "tempo": 120.0
            },
            {
                "start_time": 104.17727272727272,
                "end_time": 104.27727272727272,
                "pitch": 45,
                "velocity": 80,
                "duration": 0.09999999999999432,
                "tempo": 120.0
            },
            {
                "start_time": 104.29318181818181,
                "end_time": 104.62727272727273,
                "pitch": 40,
                "velocity": 80,
                "duration": 0.3340909090909179,
                "tempo": 120.0
            },
            {
                "start_time": 104.64545454545454,
                "end_time": 104.74545454545454,
                "pitch": 47,
                "velocity": 80,
                "duration": 0.09999999999999432,
                "tempo": 120.0
            },
            {
                "start_time": 104.76136363636363,
                "end_time": 104.86136363636363,
                "pitch": 47,
                "velocity": 80,
                "duration": 0.10000000000000853,
                "tempo": 120.0
            },
            {
                "start_time": 104.87954545454545,
                "end_time": 105.09772727272727,
                "pitch": 54,
                "velocity": 80,
                "duration": 0.2181818181818187,
                "tempo": 120.0
            },
            {
                "start_time": 105.11363636363636,
                "end_time": 105.44318181818181,
                "pitch": 52,
                "velocity": 80,
                "duration": 0.32954545454545325,
                "tempo": 120.0
            },
            {
                "start_time": 105.4590909090909,
                "end_time": 105.67272727272727,
                "pitch": 52,
                "velocity": 80,
                "duration": 0.2136363636363683,
                "tempo": 120.0
            },
            {
                "start_time": 105.68863636363636,
                "end_time": 105.90681818181818,
                "pitch": 52,
                "velocity": 80,
                "duration": 0.2181818181818187,
                "tempo": 120.0
            },
            {
                "start_time": 105.92272727272727,
                "end_time": 106.14090909090909,
                "pitch": 50,
                "velocity": 80,
                "duration": 0.2181818181818187,
                "tempo": 120.0
            },
            {
                "start_time": 106.15681818181818,
                "end_time": 106.49318181818181,
                "pitch": 36,
                "velocity": 80,
                "duration": 0.33636363636362887,
                "tempo": 120.0
            },
            {
                "start_time": 106.5090909090909,
                "end_time": 106.60909090909091,
                "pitch": 43,
                "velocity": 80,
                "duration": 0.10000000000000853,
                "tempo": 120.0
            },
            {
                "start_time": 106.62727272727273,
                "end_time": 106.72727272727272,
                "pitch": 43,
                "velocity": 80,
                "duration": 0.09999999999999432,
                "tempo": 120.0
            },
            {
                "start_time": 106.74318181818181,
                "end_time": 106.96136363636363,
                "pitch": 48,
                "velocity": 80,
                "duration": 0.2181818181818187,
                "tempo": 120.0
            },
            {
                "start_time": 106.97954545454544,
                "end_time": 107.07954545454545,
                "pitch": 43,
                "velocity": 80,
                "duration": 0.10000000000000853,
                "tempo": 120.0
            },
            {
                "start_time": 107.09545454545454,
                "end_time": 107.42272727272727,
                "pitch": 38,
                "velocity": 80,
                "duration": 0.32727272727272805,
                "tempo": 120.0
            },
            {
                "start_time": 107.43863636363636,
                "end_time": 107.53863636363636,
                "pitch": 45,
                "velocity": 80,
                "duration": 0.09999999999999432,
                "tempo": 120.0
            },
            {
                "start_time": 107.55454545454545,
                "end_time": 107.65454545454546,
                "pitch": 45,
                "velocity": 80,
                "duration": 0.10000000000000853,
                "tempo": 120.0
            },
            {
                "start_time": 107.67045454545455,
                "end_time": 107.88863636363637,
                "pitch": 50,
                "velocity": 80,
                "duration": 0.2181818181818187,
                "tempo": 120.0
            },
            {
                "start_time": 107.90681818181818,
                "end_time": 108.00681818181818,
                "pitch": 45,
                "velocity": 80,
                "duration": 0.09999999999999432,
                "tempo": 120.0
            },
            {
                "start_time": 108.02272727272727,
                "end_time": 108.35909090909091,
                "pitch": 40,
                "velocity": 80,
                "duration": 0.3363636363636431,
                "tempo": 120.0
            },
            {
                "start_time": 108.375,
                "end_time": 108.475,
                "pitch": 47,
                "velocity": 80,
                "duration": 0.09999999999999432,
                "tempo": 120.0
            },
            {
                "start_time": 108.49090909090908,
                "end_time": 108.59090909090908,
                "pitch": 47,
                "velocity": 80,
                "duration": 0.09999999999999432,
                "tempo": 120.0
            },
            {
                "start_time": 108.60681818181817,
                "end_time": 108.81818181818181,
                "pitch": 52,
                "velocity": 80,
                "duration": 0.21136363636364308,
                "tempo": 120.0
            },
            {
                "start_time": 108.83636363636363,
                "end_time": 109.05,
                "pitch": 50,
                "velocity": 80,
                "duration": 0.2136363636363683,
                "tempo": 120.0
            },
            {
                "start_time": 109.06818181818181,
                "end_time": 109.16818181818181,
                "pitch": 47,
                "velocity": 80,
                "duration": 0.09999999999999432,
                "tempo": 120.0
            },
            {
                "start_time": 109.1840909090909,
                "end_time": 109.28636363636363,
                "pitch": 47,
                "velocity": 80,
                "duration": 0.10227272727273373,
                "tempo": 120.0
            },
            {
                "start_time": 109.30227272727272,
                "end_time": 109.40227272727272,
                "pitch": 54,
                "velocity": 80,
                "duration": 0.09999999999999432,
                "tempo": 120.0
            },
            {
                "start_time": 109.41818181818181,
                "end_time": 109.87045454545454,
                "pitch": 52,
                "velocity": 80,
                "duration": 0.45227272727272805,
                "tempo": 120.0
            },
            {
                "start_time": 109.88863636363635,
                "end_time": 110.21590909090908,
                "pitch": 36,
                "velocity": 80,
                "duration": 0.32727272727272805,
                "tempo": 120.0
            },
            {
                "start_time": 110.23181818181817,
                "end_time": 110.32954545454545,
                "pitch": 43,
                "velocity": 80,
                "duration": 0.09772727272728332,
                "tempo": 120.0
            },
            {
                "start_time": 110.34545454545454,
                "end_time": 110.44772727272726,
                "pitch": 43,
                "velocity": 80,
                "duration": 0.10227272727271952,
                "tempo": 120.0
            },
            {
                "start_time": 110.46363636363635,
                "end_time": 110.68181818181817,
                "pitch": 48,
                "velocity": 80,
                "duration": 0.2181818181818187,
                "tempo": 120.0
            },
            {
                "start_time": 110.69772727272726,
                "end_time": 110.79772727272727,
                "pitch": 43,
                "velocity": 80,
                "duration": 0.10000000000000853,
                "tempo": 120.0
            },
            {
                "start_time": 110.81590909090909,
                "end_time": 111.14999999999999,
                "pitch": 38,
                "velocity": 80,
                "duration": 0.33409090909090366,
                "tempo": 120.0
            },
            {
                "start_time": 111.16818181818181,
                "end_time": 111.26818181818182,
                "pitch": 45,
                "velocity": 80,
                "duration": 0.10000000000000853,
                "tempo": 120.0
            },
            {
                "start_time": 111.2840909090909,
                "end_time": 111.38181818181818,
                "pitch": 45,
                "velocity": 80,
                "duration": 0.09772727272726911,
                "tempo": 120.0
            },
            {
                "start_time": 111.39999999999999,
                "end_time": 111.61136363636363,
                "pitch": 50,
                "velocity": 80,
                "duration": 0.21136363636364308,
                "tempo": 120.0
            },
            {
                "start_time": 111.62727272727273,
                "end_time": 111.72727272727272,
                "pitch": 45,
                "velocity": 80,
                "duration": 0.09999999999999432,
                "tempo": 120.0
            },
            {
                "start_time": 111.74318181818181,
                "end_time": 112.07727272727273,
                "pitch": 40,
                "velocity": 80,
                "duration": 0.3340909090909179,
                "tempo": 120.0
            },
            {
                "start_time": 112.09545454545454,
                "end_time": 112.19545454545454,
                "pitch": 47,
                "velocity": 80,
                "duration": 0.09999999999999432,
                "tempo": 120.0
            },
            {
                "start_time": 112.21136363636363,
                "end_time": 112.31136363636364,
                "pitch": 47,
                "velocity": 80,
                "duration": 0.10000000000000853,
                "tempo": 120.0
            },
            {
                "start_time": 112.32954545454545,
                "end_time": 112.54772727272727,
                "pitch": 54,
                "velocity": 80,
                "duration": 0.2181818181818187,
                "tempo": 120.0
            },
            {
                "start_time": 112.56363636363636,
                "end_time": 112.89318181818182,
                "pitch": 52,
                "velocity": 80,
                "duration": 0.32954545454545325,
                "tempo": 120.0
            },
            {
                "start_time": 112.9090909090909,
                "end_time": 113.12272727272726,
                "pitch": 52,
                "velocity": 80,
                "duration": 0.21363636363635408,
                "tempo": 120.0
            },
            {
                "start_time": 113.13863636363635,
                "end_time": 113.35681818181817,
                "pitch": 52,
                "velocity": 80,
                "duration": 0.2181818181818187,
                "tempo": 120.0
            },
            {
                "start_time": 113.37272727272726,
                "end_time": 113.59090909090908,
                "pitch": 50,
                "velocity": 80,
                "duration": 0.2181818181818187,
                "tempo": 120.0
            },
            {
                "start_time": 113.60681818181817,
                "end_time": 113.82499999999999,
                "pitch": 52,
                "velocity": 80,
                "duration": 0.2181818181818187,
                "tempo": 120.0
            },
            {
                "start_time": 117.44545454545454,
                "end_time": 117.54545454545455,
                "pitch": 40,
                "velocity": 80,
                "duration": 0.10000000000000853,
                "tempo": 120.0
            },
            {
                "start_time": 117.67954545454545,
                "end_time": 117.77954545454544,
                "pitch": 43,
                "velocity": 80,
                "duration": 0.09999999999999432,
                "tempo": 120.0
            },
            {
                "start_time": 117.90681818181818,
                "end_time": 118.00454545454545,
                "pitch": 45,
                "velocity": 80,
                "duration": 0.09772727272726911,
                "tempo": 120.0
            },
            {
                "start_time": 118.13181818181818,
                "end_time": 118.22727272727272,
                "pitch": 47,
                "velocity": 80,
                "duration": 0.0954545454545439,
                "tempo": 120.0
            },
            {
                "start_time": 118.36136363636363,
                "end_time": 118.46136363636363,
                "pitch": 45,
                "velocity": 80,
                "duration": 0.09999999999999432,
                "tempo": 120.0
            },
            {
                "start_time": 118.59545454545454,
                "end_time": 118.69545454545454,
                "pitch": 47,
                "velocity": 80,
                "duration": 0.09999999999999432,
                "tempo": 120.0
            },
            {
                "start_time": 118.82727272727273,
                "end_time": 118.925,
                "pitch": 50,
                "velocity": 80,
                "duration": 0.09772727272726911,
                "tempo": 120.0
            },
            {
                "start_time": 119.05681818181817,
                "end_time": 119.15454545454544,
                "pitch": 52,
                "velocity": 80,
                "duration": 0.09772727272726911,
                "tempo": 120.0
            },
            {
                "start_time": 119.29090909090908,
                "end_time": 119.39318181818182,
                "pitch": 52,
                "velocity": 80,
                "duration": 0.10227272727273373,
                "tempo": 120.0
            },
            {
                "start_time": 119.52954545454544,
                "end_time": 119.63181818181818,
                "pitch": 55,
                "velocity": 80,
                "duration": 0.10227272727273373,
                "tempo": 120.0
            },
            {
                "start_time": 119.76136363636363,
                "end_time": 119.85909090909091,
                "pitch": 57,
                "velocity": 80,
                "duration": 0.09772727272728332,
                "tempo": 120.0
            },
            {
                "start_time": 119.99090909090908,
                "end_time": 120.08863636363635,
                "pitch": 59,
                "velocity": 80,
                "duration": 0.09772727272726911,
                "tempo": 120.0
            },
            {
                "start_time": 120.22045454545454,
                "end_time": 120.31818181818181,
                "pitch": 62,
                "velocity": 80,
                "duration": 0.09772727272726911,
                "tempo": 120.0
            },
            {
                "start_time": 120.44999999999999,
                "end_time": 120.54772727272727,
                "pitch": 63,
                "velocity": 80,
                "duration": 0.09772727272728332,
                "tempo": 120.0
            },
            {
                "start_time": 120.68181818181817,
                "end_time": 122.41363636363636,
                "pitch": 64,
                "velocity": 80,
                "duration": 1.7318181818181841,
                "tempo": 120.0
            },
            {
                "start_time": 123.0090909090909,
                "end_time": 123.11363636363636,
                "pitch": 36,
                "velocity": 80,
                "duration": 0.10454545454545894,
                "tempo": 120.0
            },
            {
                "start_time": 123.25227272727273,
                "end_time": 123.35681818181817,
                "pitch": 48,
                "velocity": 80,
                "duration": 0.10454545454544473,
                "tempo": 120.0
            },
            {
                "start_time": 123.7090909090909,
                "end_time": 123.80681818181817,
                "pitch": 38,
                "velocity": 80,
                "duration": 0.09772727272726911,
                "tempo": 120.0
            },
            {
                "start_time": 123.93863636363636,
                "end_time": 124.04090909090908,
                "pitch": 50,
                "velocity": 80,
                "duration": 0.10227272727271952,
                "tempo": 120.0
            },
            {
                "start_time": 124.88181818181818,
                "end_time": 124.97954545454544,
                "pitch": 38,
                "velocity": 80,
                "duration": 0.09772727272726911,
                "tempo": 120.0
            },
            {
                "start_time": 125.11136363636363,
                "end_time": 125.2090909090909,
                "pitch": 50,
                "velocity": 80,
                "duration": 0.09772727272726911,
                "tempo": 120.0
            },
            {
                "start_time": 125.57045454545454,
                "end_time": 125.66818181818181,
                "pitch": 40,
                "velocity": 80,
                "duration": 0.09772727272726911,
                "tempo": 120.0
            },
            {
                "start_time": 125.80227272727272,
                "end_time": 125.90227272727272,
                "pitch": 52,
                "velocity": 80,
                "duration": 0.09999999999999432,
                "tempo": 120.0
            },
            {
                "start_time": 126.73863636363636,
                "end_time": 126.84090909090908,
                "pitch": 36,
                "velocity": 80,
                "duration": 0.10227272727271952,
                "tempo": 120.0
            },
            {
                "start_time": 126.975,
                "end_time": 127.07499999999999,
                "pitch": 48,
                "velocity": 80,
                "duration": 0.09999999999999432,
                "tempo": 120.0
            },
            {
                "start_time": 127.4340909090909,
                "end_time": 127.53181818181818,
                "pitch": 38,
                "velocity": 80,
                "duration": 0.09772727272728332,
                "tempo": 120.0
            },
            {
                "start_time": 127.66590909090908,
                "end_time": 127.76818181818182,
                "pitch": 50,
                "velocity": 80,
                "duration": 0.10227272727273373,
                "tempo": 120.0
            },
            {
                "start_time": 128.60454545454544,
                "end_time": 128.70454545454544,
                "pitch": 38,
                "velocity": 80,
                "duration": 0.09999999999999432,
                "tempo": 120.0
            },
            {
                "start_time": 128.83863636363637,
                "end_time": 128.93863636363636,
                "pitch": 50,
                "velocity": 80,
                "duration": 0.09999999999999432,
                "tempo": 120.0
            },
            {
                "start_time": 129.29090909090908,
                "end_time": 129.38863636363635,
                "pitch": 40,
                "velocity": 80,
                "duration": 0.09772727272726911,
                "tempo": 120.0
            },
            {
                "start_time": 129.52045454545453,
                "end_time": 129.62272727272727,
                "pitch": 52,
                "velocity": 80,
                "duration": 0.10227272727274794,
                "tempo": 120.0
            },
            {
                "start_time": 129.99318181818182,
                "end_time": 132.89772727272728,
                "pitch": 35,
                "velocity": 80,
                "duration": 2.904545454545456,
                "tempo": 120.0
            },
            {
                "start_time": 133.02727272727273,
                "end_time": 133.125,
                "pitch": 35,
                "velocity": 80,
                "duration": 0.09772727272726911,
                "tempo": 120.0
            },
            {
                "start_time": 133.1431818181818,
                "end_time": 133.24318181818182,
                "pitch": 35,
                "velocity": 80,
                "duration": 0.10000000000002274,
                "tempo": 120.0
            },
            {
                "start_time": 133.37727272727273,
                "end_time": 133.47727272727272,
                "pitch": 47,
                "velocity": 80,
                "duration": 0.09999999999999432,
                "tempo": 120.0
            },
            {
                "start_time": 133.49318181818182,
                "end_time": 133.59545454545454,
                "pitch": 35,
                "velocity": 80,
                "duration": 0.10227272727271952,
                "tempo": 120.0
            },
            {
                "start_time": 133.61136363636362,
                "end_time": 133.7090909090909,
                "pitch": 45,
                "velocity": 80,
                "duration": 0.09772727272726911,
                "tempo": 120.0
            },
            {
                "start_time": 133.725,
                "end_time": 133.82272727272726,
                "pitch": 46,
                "velocity": 80,
                "duration": 0.09772727272726911,
                "tempo": 120.0
            },
            {
                "start_time": 133.8409090909091,
                "end_time": 133.93863636363636,
                "pitch": 47,
                "velocity": 80,
                "duration": 0.09772727272726911,
                "tempo": 120.0
            },
            {
                "start_time": 133.95454545454544,
                "end_time": 134.0522727272727,
                "pitch": 48,
                "velocity": 80,
                "duration": 0.09772727272726911,
                "tempo": 120.0
            },
            {
                "start_time": 134.0681818181818,
                "end_time": 134.40454545454546,
                "pitch": 40,
                "velocity": 80,
                "duration": 0.3363636363636431,
                "tempo": 120.0
            },
            {
                "start_time": 134.42045454545453,
                "end_time": 134.52045454545453,
                "pitch": 47,
                "velocity": 80,
                "duration": 0.09999999999999432,
                "tempo": 120.0
            },
            {
                "start_time": 134.53863636363636,
                "end_time": 134.87272727272727,
                "pitch": 47,
                "velocity": 80,
                "duration": 0.3340909090909179,
                "tempo": 120.0
            },
            {
                "start_time": 134.89090909090908,
                "end_time": 134.99090909090907,
                "pitch": 52,
                "velocity": 80,
                "duration": 0.09999999999999432,
                "tempo": 120.0
            },
            {
                "start_time": 135.00681818181818,
                "end_time": 135.34318181818182,
                "pitch": 52,
                "velocity": 80,
                "duration": 0.3363636363636431,
                "tempo": 120.0
            },
            {
                "start_time": 135.3590909090909,
                "end_time": 135.4590909090909,
                "pitch": 47,
                "velocity": 80,
                "duration": 0.09999999999999432,
                "tempo": 120.0
            },
            {
                "start_time": 135.47727272727272,
                "end_time": 135.68863636363636,
                "pitch": 47,
                "velocity": 80,
                "duration": 0.21136363636364308,
                "tempo": 120.0
            },
            {
                "start_time": 135.70454545454544,
                "end_time": 135.9181818181818,
                "pitch": 40,
                "velocity": 80,
                "duration": 0.2136363636363683,
                "tempo": 120.0
            },
            {
                "start_time": 135.9340909090909,
                "end_time": 136.27045454545453,
                "pitch": 45,
                "velocity": 80,
                "duration": 0.33636363636361466,
                "tempo": 120.0
            },
            {
                "start_time": 136.28636363636363,
                "end_time": 136.38636363636363,
                "pitch": 52,
                "velocity": 80,
                "duration": 0.09999999999999432,
                "tempo": 120.0
            },
            {
                "start_time": 136.40454545454546,
                "end_time": 136.73181818181817,
                "pitch": 52,
                "velocity": 80,
                "duration": 0.32727272727271384,
                "tempo": 120.0
            },
            {
                "start_time": 136.74772727272727,
                "end_time": 136.84545454545454,
                "pitch": 57,
                "velocity": 80,
                "duration": 0.09772727272726911,
                "tempo": 120.0
            },
            {
                "start_time": 136.86136363636362,
                "end_time": 137.19772727272726,
                "pitch": 57,
                "velocity": 80,
                "duration": 0.3363636363636431,
                "tempo": 120.0
            },
            {
                "start_time": 137.21363636363637,
                "end_time": 137.31363636363636,
                "pitch": 52,
                "velocity": 80,
                "duration": 0.09999999999999432,
                "tempo": 120.0
            },
            {
                "start_time": 137.32954545454544,
                "end_time": 137.4318181818182,
                "pitch": 52,
                "velocity": 80,
                "duration": 0.10227272727274794,
                "tempo": 120.0
            },
            {
                "start_time": 137.44772727272726,
                "end_time": 137.78181818181818,
                "pitch": 45,
                "velocity": 80,
                "duration": 0.3340909090909179,
                "tempo": 120.0
            },
            {
                "start_time": 137.79999999999998,
                "end_time": 138.12727272727273,
                "pitch": 40,
                "velocity": 80,
                "duration": 0.32727272727274226,
                "tempo": 120.0
            },
            {
                "start_time": 138.1431818181818,
                "end_time": 138.24090909090907,
                "pitch": 47,
                "velocity": 80,
                "duration": 0.09772727272726911,
                "tempo": 120.0
            },
            {
                "start_time": 138.25681818181818,
                "end_time": 138.59318181818182,
                "pitch": 47,
                "velocity": 80,
                "duration": 0.3363636363636431,
                "tempo": 120.0
            },
            {
                "start_time": 138.6090909090909,
                "end_time": 138.7090909090909,
                "pitch": 52,
                "velocity": 80,
                "duration": 0.09999999999999432,
                "tempo": 120.0
            },
            {
                "start_time": 138.72727272727272,
                "end_time": 139.07045454545454,
                "pitch": 52,
                "velocity": 80,
                "duration": 0.3431818181818187,
                "tempo": 120.0
            },
            {
                "start_time": 139.08636363636364,
                "end_time": 139.18863636363636,
                "pitch": 47,
                "velocity": 80,
                "duration": 0.10227272727271952,
                "tempo": 120.0
            },
            {
                "start_time": 139.20681818181816,
                "end_time": 139.41363636363636,
                "pitch": 47,
                "velocity": 80,
                "duration": 0.20681818181819267,
                "tempo": 120.0
            },
            {
                "start_time": 139.42954545454546,
                "end_time": 139.63863636363635,
                "pitch": 40,
                "velocity": 80,
                "duration": 0.20909090909088945,
                "tempo": 120.0
            },
            {
                "start_time": 139.65454545454546,
                "end_time": 139.98863636363635,
                "pitch": 45,
                "velocity": 80,
                "duration": 0.33409090909088945,
                "tempo": 120.0
            },
            {
                "start_time": 140.00681818181818,
                "end_time": 140.10681818181817,
                "pitch": 52,
                "velocity": 80,
                "duration": 0.09999999999999432,
                "tempo": 120.0
            },
            {
                "start_time": 140.12272727272727,
                "end_time": 140.4590909090909,
                "pitch": 52,
                "velocity": 80,
                "duration": 0.33636363636361466,
                "tempo": 120.0
            },
            {
                "start_time": 140.475,
                "end_time": 140.575,
                "pitch": 57,
                "velocity": 80,
                "duration": 0.09999999999999432,
                "tempo": 120.0
            },
            {
                "start_time": 140.59318181818182,
                "end_time": 140.6909090909091,
                "pitch": 57,
                "velocity": 80,
                "duration": 0.09772727272726911,
                "tempo": 120.0
            },
            {
                "start_time": 140.70681818181816,
                "end_time": 140.80454545454546,
                "pitch": 55,
                "velocity": 80,
                "duration": 0.09772727272729753,
                "tempo": 120.0
            },
            {
                "start_time": 140.82045454545454,
                "end_time": 140.92045454545453,
                "pitch": 56,
                "velocity": 80,
                "duration": 0.09999999999999432,
                "tempo": 120.0
            },
            {
                "start_time": 140.93636363636364,
                "end_time": 141.0340909090909,
                "pitch": 57,
                "velocity": 80,
                "duration": 0.09772727272726911,
                "tempo": 120.0
            },
            {
                "start_time": 141.1681818181818,
                "end_time": 141.2681818181818,
                "pitch": 50,
                "velocity": 80,
                "duration": 0.09999999999999432,
                "tempo": 120.0
            },
            {
                "start_time": 141.2840909090909,
                "end_time": 141.38636363636363,
                "pitch": 51,
                "velocity": 80,
                "duration": 0.10227272727271952,
                "tempo": 120.0
            },
            {
                "start_time": 141.40227272727273,
                "end_time": 141.50227272727273,
                "pitch": 52,
                "velocity": 80,
                "duration": 0.09999999999999432,
                "tempo": 120.0
            },
            {
                "start_time": 141.52045454545453,
                "end_time": 141.85454545454544,
                "pitch": 40,
                "velocity": 80,
                "duration": 0.3340909090909179,
                "tempo": 120.0
            },
            {
                "start_time": 141.87045454545455,
                "end_time": 141.97272727272727,
                "pitch": 47,
                "velocity": 80,
                "duration": 0.10227272727271952,
                "tempo": 120.0
            },
            {
                "start_time": 141.98863636363635,
                "end_time": 142.3159090909091,
                "pitch": 47,
                "velocity": 80,
                "duration": 0.32727272727274226,
                "tempo": 120.0
            },
            {
                "start_time": 142.33181818181816,
                "end_time": 142.42954545454546,
                "pitch": 52,
                "velocity": 80,
                "duration": 0.09772727272729753,
                "tempo": 120.0
            },
            {
                "start_time": 142.44772727272726,
                "end_time": 142.78181818181818,
                "pitch": 52,
                "velocity": 80,
                "duration": 0.3340909090909179,
                "tempo": 120.0
            },
            {
                "start_time": 142.79772727272726,
                "end_time": 142.9,
                "pitch": 47,
                "velocity": 80,
                "duration": 0.10227272727274794,
                "tempo": 120.0
            },
            {
                "start_time": 142.91590909090908,
                "end_time": 143.1340909090909,
                "pitch": 47,
                "velocity": 80,
                "duration": 0.2181818181818187,
                "tempo": 120.0
            },
            {
                "start_time": 143.15,
                "end_time": 143.36818181818182,
                "pitch": 40,
                "velocity": 80,
                "duration": 0.2181818181818187,
                "tempo": 120.0
            },
            {
                "start_time": 143.3840909090909,
                "end_time": 143.71136363636364,
                "pitch": 45,
                "velocity": 80,
                "duration": 0.32727272727274226,
                "tempo": 120.0
            },
            {
                "start_time": 143.72954545454544,
                "end_time": 143.8272727272727,
                "pitch": 52,
                "velocity": 80,
                "duration": 0.09772727272726911,
                "tempo": 120.0
            },
            {
                "start_time": 143.84318181818182,
                "end_time": 144.1772727272727,
                "pitch": 52,
                "velocity": 80,
                "duration": 0.33409090909088945,
                "tempo": 120.0
            },
            {
                "start_time": 144.19545454545454,
                "end_time": 144.29545454545453,
                "pitch": 57,
                "velocity": 80,
                "duration": 0.09999999999999432,
                "tempo": 120.0
            },
            {
                "start_time": 144.31136363636364,
                "end_time": 144.64772727272725,
                "pitch": 57,
                "velocity": 80,
                "duration": 0.33636363636361466,
                "tempo": 120.0
            },
            {
                "start_time": 144.66363636363636,
                "end_time": 144.76363636363635,
                "pitch": 52,
                "velocity": 80,
                "duration": 0.09999999999999432,
                "tempo": 120.0
            },
            {
                "start_time": 144.78181818181818,
                "end_time": 144.87954545454545,
                "pitch": 52,
                "velocity": 80,
                "duration": 0.09772727272726911,
                "tempo": 120.0
            },
            {
                "start_time": 144.89545454545453,
                "end_time": 145.22272727272727,
                "pitch": 45,
                "velocity": 80,
                "duration": 0.32727272727274226,
                "tempo": 120.0
            },
            {
                "start_time": 145.23863636363635,
                "end_time": 145.575,
                "pitch": 40,
                "velocity": 80,
                "duration": 0.3363636363636431,
                "tempo": 120.0
            },
            {
                "start_time": 145.5909090909091,
                "end_time": 145.6909090909091,
                "pitch": 47,
                "velocity": 80,
                "duration": 0.09999999999999432,
                "tempo": 120.0
            },
            {
                "start_time": 145.7090909090909,
                "end_time": 146.0431818181818,
                "pitch": 47,
                "velocity": 80,
                "duration": 0.3340909090909179,
                "tempo": 120.0
            },
            {
                "start_time": 146.0590909090909,
                "end_time": 146.16136363636363,
                "pitch": 52,
                "velocity": 80,
                "duration": 0.10227272727271952,
                "tempo": 120.0
            },
            {
                "start_time": 146.1772727272727,
                "end_time": 146.51136363636363,
                "pitch": 52,
                "velocity": 80,
                "duration": 0.3340909090909179,
                "tempo": 120.0
            },
            {
                "start_time": 146.52954545454546,
                "end_time": 146.62954545454545,
                "pitch": 47,
                "velocity": 80,
                "duration": 0.09999999999999432,
                "tempo": 120.0
            },
            {
                "start_time": 146.64545454545453,
                "end_time": 146.74545454545455,
                "pitch": 47,
                "velocity": 80,
                "duration": 0.10000000000002274,
                "tempo": 120.0
            },
            {
                "start_time": 146.76136363636363,
                "end_time": 146.8590909090909,
                "pitch": 45,
                "velocity": 80,
                "duration": 0.09772727272726911,
                "tempo": 120.0
            },
            {
                "start_time": 146.875,
                "end_time": 146.97272727272727,
                "pitch": 46,
                "velocity": 80,
                "duration": 0.09772727272726911,
                "tempo": 120.0
            },
            {
                "start_time": 146.99090909090907,
                "end_time": 147.08863636363637,
                "pitch": 47,
                "velocity": 80,
                "duration": 0.09772727272729753,
                "tempo": 120.0
            },
            {
                "start_time": 147.10454545454544,
                "end_time": 147.43863636363636,
                "pitch": 45,
                "velocity": 80,
                "duration": 0.3340909090909179,
                "tempo": 120.0
            },
            {
                "start_time": 147.45681818181816,
                "end_time": 147.5568181818182,
                "pitch": 52,
                "velocity": 80,
                "duration": 0.10000000000002274,
                "tempo": 120.0
            },
            {
                "start_time": 147.57272727272726,
                "end_time": 147.9,
                "pitch": 52,
                "velocity": 80,
                "duration": 0.32727272727274226,
                "tempo": 120.0
            },
            {
                "start_time": 147.91590909090908,
                "end_time": 148.01590909090908,
                "pitch": 45,
                "velocity": 80,
                "duration": 0.09999999999999432,
                "tempo": 120.0
            },
            {
                "start_time": 148.03181818181818,
                "end_time": 148.1840909090909,
                "pitch": 59,
                "velocity": 80,
                "duration": 0.1522727272727309,
                "tempo": 120.0
            },
            {
                "start_time": 148.2022727272727,
                "end_time": 148.33636363636364,
                "pitch": 59,
                "velocity": 80,
                "duration": 0.13409090909092924,
                "tempo": 120.0
            },
            {
                "start_time": 148.35454545454544,
                "end_time": 148.49090909090907,
                "pitch": 59,
                "velocity": 80,
                "duration": 0.13636363636362603,
                "tempo": 120.0
            },
            {
                "start_time": 148.50681818181818,
                "end_time": 148.65454545454546,
                "pitch": 57,
                "velocity": 80,
                "duration": 0.14772727272728048,
                "tempo": 120.0
            },
            {
                "start_time": 148.67045454545453,
                "end_time": 148.95,
                "pitch": 50,
                "velocity": 80,
                "duration": 0.2795454545454561,
                "tempo": 120.0
            },
            {
                "start_time": 148.9659090909091,
                "end_time": 149.2931818181818,
                "pitch": 40,
                "velocity": 80,
                "duration": 0.32727272727271384,
                "tempo": 120.0
            },
            {
                "start_time": 149.3090909090909,
                "end_time": 149.40681818181818,
                "pitch": 47,
                "velocity": 80,
                "duration": 0.09772727272726911,
                "tempo": 120.0
            },
            {
                "start_time": 149.42499999999998,
                "end_time": 149.7590909090909,
                "pitch": 47,
                "velocity": 80,
                "duration": 0.3340909090909179,
                "tempo": 120.0
            },
            {
                "start_time": 149.775,
                "end_time": 149.87727272727273,
                "pitch": 52,
                "velocity": 80,
                "duration": 0.10227272727271952,
                "tempo": 120.0
            },
            {
                "start_time": 149.8931818181818,
                "end_time": 150.22727272727272,
                "pitch": 52,
                "velocity": 80,
                "duration": 0.3340909090909179,
                "tempo": 120.0
            },
            {
                "start_time": 150.24545454545455,
                "end_time": 150.34545454545454,
                "pitch": 47,
                "velocity": 80,
                "duration": 0.09999999999999432,
                "tempo": 120.0
            },
            {
                "start_time": 150.36136363636362,
                "end_time": 150.575,
                "pitch": 47,
                "velocity": 80,
                "duration": 0.2136363636363683,
                "tempo": 120.0
            },
            {
                "start_time": 150.5909090909091,
                "end_time": 150.80454545454543,
                "pitch": 40,
                "velocity": 80,
                "duration": 0.21363636363633987,
                "tempo": 120.0
            },
            {
                "start_time": 150.82045454545454,
                "end_time": 151.15454545454546,
                "pitch": 45,
                "velocity": 80,
                "duration": 0.3340909090909179,
                "tempo": 120.0
            },
            {
                "start_time": 151.17272727272726,
                "end_time": 151.27272727272725,
                "pitch": 52,
                "velocity": 80,
                "duration": 0.09999999999999432,
                "tempo": 120.0
            },
            {
                "start_time": 151.28863636363636,
                "end_time": 151.625,
                "pitch": 52,
                "velocity": 80,
                "duration": 0.3363636363636431,
                "tempo": 120.0
            },
            {
                "start_time": 151.64090909090908,
                "end_time": 151.74090909090907,
                "pitch": 57,
                "velocity": 80,
                "duration": 0.09999999999999432,
                "tempo": 120.0
            },
            {
                "start_time": 151.7590909090909,
                "end_time": 152.09318181818182,
                "pitch": 57,
                "velocity": 80,
                "duration": 0.3340909090909179,
                "tempo": 120.0
            },
            {
                "start_time": 152.1090909090909,
                "end_time": 152.21136363636364,
                "pitch": 52,
                "velocity": 80,
                "duration": 0.10227272727274794,
                "tempo": 120.0
            },
            {
                "start_time": 152.22727272727272,
                "end_time": 152.325,
                "pitch": 52,
                "velocity": 80,
                "duration": 0.09772727272726911,
                "tempo": 120.0
            },
            {
                "start_time": 152.3409090909091,
                "end_time": 152.6681818181818,
                "pitch": 45,
                "velocity": 80,
                "duration": 0.32727272727271384,
                "tempo": 120.0
            },
            {
                "start_time": 152.68636363636364,
                "end_time": 153.02045454545453,
                "pitch": 40,
                "velocity": 80,
                "duration": 0.33409090909088945,
                "tempo": 120.0
            },
            {
                "start_time": 153.03636363636363,
                "end_time": 153.13863636363635,
                "pitch": 47,
                "velocity": 80,
                "duration": 0.10227272727271952,
                "tempo": 120.0
            },
            {
                "start_time": 153.15454545454546,
                "end_time": 153.48181818181817,
                "pitch": 47,
                "velocity": 80,
                "duration": 0.32727272727271384,
                "tempo": 120.0
            },
            {
                "start_time": 153.49772727272727,
                "end_time": 153.59545454545454,
                "pitch": 52,
                "velocity": 80,
                "duration": 0.09772727272726911,
                "tempo": 120.0
            },
            {
                "start_time": 153.61363636363635,
                "end_time": 153.94772727272726,
                "pitch": 52,
                "velocity": 80,
                "duration": 0.3340909090909179,
                "tempo": 120.0
            },
            {
                "start_time": 153.96363636363637,
                "end_time": 154.0659090909091,
                "pitch": 47,
                "velocity": 80,
                "duration": 0.10227272727271952,
                "tempo": 120.0
            },
            {
                "start_time": 154.08181818181816,
                "end_time": 154.29999999999998,
                "pitch": 47,
                "velocity": 80,
                "duration": 0.2181818181818187,
                "tempo": 120.0
            },
            {
                "start_time": 154.3159090909091,
                "end_time": 154.5340909090909,
                "pitch": 40,
                "velocity": 80,
                "duration": 0.2181818181818187,
                "tempo": 120.0
            },
            {
                "start_time": 154.54999999999998,
                "end_time": 154.87727272727273,
                "pitch": 45,
                "velocity": 80,
                "duration": 0.32727272727274226,
                "tempo": 120.0
            },
            {
                "start_time": 154.8931818181818,
                "end_time": 154.99318181818182,
                "pitch": 52,
                "velocity": 80,
                "duration": 0.10000000000002274,
                "tempo": 120.0
            },
            {
                "start_time": 155.0090909090909,
                "end_time": 155.34318181818182,
                "pitch": 52,
                "velocity": 80,
                "duration": 0.3340909090909179,
                "tempo": 120.0
            },
            {
                "start_time": 155.36136363636362,
                "end_time": 155.46136363636361,
                "pitch": 57,
                "velocity": 80,
                "duration": 0.09999999999999432,
                "tempo": 120.0
            },
            {
                "start_time": 155.47727272727272,
                "end_time": 155.5772727272727,
                "pitch": 57,
                "velocity": 80,
                "duration": 0.09999999999999432,
                "tempo": 120.0
            },
            {
                "start_time": 155.59545454545454,
                "end_time": 155.69545454545454,
                "pitch": 55,
                "velocity": 80,
                "duration": 0.09999999999999432,
                "tempo": 120.0
            },
            {
                "start_time": 155.71136363636361,
                "end_time": 155.81363636363636,
                "pitch": 56,
                "velocity": 80,
                "duration": 0.10227272727274794,
                "tempo": 120.0
            },
            {
                "start_time": 155.82954545454544,
                "end_time": 155.92954545454543,
                "pitch": 57,
                "velocity": 80,
                "duration": 0.09999999999999432,
                "tempo": 120.0
            },
            {
                "start_time": 156.06136363636364,
                "end_time": 156.1590909090909,
                "pitch": 50,
                "velocity": 80,
                "duration": 0.09772727272726911,
                "tempo": 120.0
            },
            {
                "start_time": 156.17499999999998,
                "end_time": 156.275,
                "pitch": 51,
                "velocity": 80,
                "duration": 0.10000000000002274,
                "tempo": 120.0
            },
            {
                "start_time": 156.29090909090908,
                "end_time": 156.38863636363635,
                "pitch": 52,
                "velocity": 80,
                "duration": 0.09772727272726911,
                "tempo": 120.0
            },
            {
                "start_time": 156.40454545454546,
                "end_time": 156.74090909090907,
                "pitch": 40,
                "velocity": 80,
                "duration": 0.33636363636361466,
                "tempo": 120.0
            },
            {
                "start_time": 156.75681818181818,
                "end_time": 156.85681818181817,
                "pitch": 47,
                "velocity": 80,
                "duration": 0.09999999999999432,
                "tempo": 120.0
            },
            {
                "start_time": 156.875,
                "end_time": 157.2090909090909,
                "pitch": 47,
                "velocity": 80,
                "duration": 0.33409090909088945,
                "tempo": 120.0
            },
            {
                "start_time": 157.225,
                "end_time": 157.3272727272727,
                "pitch": 52,
                "velocity": 80,
                "duration": 0.10227272727271952,
                "tempo": 120.0
            },
            {
                "start_time": 157.34318181818182,
                "end_time": 157.6772727272727,
                "pitch": 52,
                "velocity": 80,
                "duration": 0.33409090909088945,
                "tempo": 120.0
            },
            {
                "start_time": 157.69545454545454,
                "end_time": 157.79545454545453,
                "pitch": 47,
                "velocity": 80,
                "duration": 0.09999999999999432,
                "tempo": 120.0
            },
            {
                "start_time": 157.81136363636364,
                "end_time": 158.025,
                "pitch": 47,
                "velocity": 80,
                "duration": 0.2136363636363683,
                "tempo": 120.0
            },
            {
                "start_time": 158.04090909090908,
                "end_time": 158.25454545454545,
                "pitch": 40,
                "velocity": 80,
                "duration": 0.2136363636363683,
                "tempo": 120.0
            },
            {
                "start_time": 158.27045454545453,
                "end_time": 158.60454545454544,
                "pitch": 45,
                "velocity": 80,
                "duration": 0.3340909090909179,
                "tempo": 120.0
            },
            {
                "start_time": 158.62272727272727,
                "end_time": 158.72272727272727,
                "pitch": 52,
                "velocity": 80,
                "duration": 0.09999999999999432,
                "tempo": 120.0
            },
            {
                "start_time": 158.73863636363635,
                "end_time": 159.075,
                "pitch": 52,
                "velocity": 80,
                "duration": 0.3363636363636431,
                "tempo": 120.0
            },
            {
                "start_time": 159.0909090909091,
                "end_time": 159.1909090909091,
                "pitch": 57,
                "velocity": 80,
                "duration": 0.09999999999999432,
                "tempo": 120.0
            },
            {
                "start_time": 159.2090909090909,
                "end_time": 159.53636363636363,
                "pitch": 57,
                "velocity": 80,
                "duration": 0.32727272727274226,
                "tempo": 120.0
            },
            {
                "start_time": 159.5522727272727,
                "end_time": 159.65,
                "pitch": 52,
                "velocity": 80,
                "duration": 0.09772727272729753,
                "tempo": 120.0
            },
            {
                "start_time": 159.66590909090908,
                "end_time": 159.76590909090908,
                "pitch": 52,
                "velocity": 80,
                "duration": 0.09999999999999432,
                "tempo": 120.0
            },
            {
                "start_time": 159.7840909090909,
                "end_time": 160.11818181818182,
                "pitch": 45,
                "velocity": 80,
                "duration": 0.3340909090909179,
                "tempo": 120.0
            },
            {
                "start_time": 160.13636363636363,
                "end_time": 160.46363636363637,
                "pitch": 40,
                "velocity": 80,
                "duration": 0.32727272727274226,
                "tempo": 120.0
            },
            {
                "start_time": 160.47954545454544,
                "end_time": 160.5772727272727,
                "pitch": 47,
                "velocity": 80,
                "duration": 0.09772727272726911,
                "tempo": 120.0
            },
            {
                "start_time": 160.59318181818182,
                "end_time": 160.92954545454543,
                "pitch": 47,
                "velocity": 80,
                "duration": 0.33636363636361466,
                "tempo": 120.0
            },
            {
                "start_time": 160.94545454545454,
                "end_time": 161.04545454545453,
                "pitch": 52,
                "velocity": 80,
                "duration": 0.09999999999999432,
                "tempo": 120.0
            },
            {
                "start_time": 161.06363636363636,
                "end_time": 161.39772727272725,
                "pitch": 52,
                "velocity": 80,
                "duration": 0.33409090909088945,
                "tempo": 120.0
            },
            {
                "start_time": 161.41363636363636,
                "end_time": 161.51590909090908,
                "pitch": 47,
                "velocity": 80,
                "duration": 0.10227272727271952,
                "tempo": 120.0
            },
            {
                "start_time": 161.53181818181818,
                "end_time": 161.62954545454545,
                "pitch": 47,
                "velocity": 80,
                "duration": 0.09772727272726911,
                "tempo": 120.0
            },
            {
                "start_time": 161.64545454545453,
                "end_time": 161.74318181818182,
                "pitch": 45,
                "velocity": 80,
                "duration": 0.09772727272729753,
                "tempo": 120.0
            },
            {
                "start_time": 161.76136363636363,
                "end_time": 161.8590909090909,
                "pitch": 46,
                "velocity": 80,
                "duration": 0.09772727272726911,
                "tempo": 120.0
            },
            {
                "start_time": 161.875,
                "end_time": 161.97272727272727,
                "pitch": 47,
                "velocity": 80,
                "duration": 0.09772727272726911,
                "tempo": 120.0
            },
            {
                "start_time": 161.98863636363635,
                "end_time": 162.325,
                "pitch": 45,
                "velocity": 80,
                "duration": 0.3363636363636431,
                "tempo": 120.0
            },
            {
                "start_time": 162.3409090909091,
                "end_time": 162.4409090909091,
                "pitch": 52,
                "velocity": 80,
                "duration": 0.09999999999999432,
                "tempo": 120.0
            },
            {
                "start_time": 162.4590909090909,
                "end_time": 162.7931818181818,
                "pitch": 52,
                "velocity": 80,
                "duration": 0.3340909090909179,
                "tempo": 120.0
            },
            {
                "start_time": 162.81136363636364,
                "end_time": 162.91136363636363,
                "pitch": 45,
                "velocity": 80,
                "duration": 0.09999999999999432,
                "tempo": 120.0
            },
            {
                "start_time": 162.9272727272727,
                "end_time": 163.02727272727273,
                "pitch": 45,
                "velocity": 80,
                "duration": 0.10000000000002274,
                "tempo": 120.0
            },
            {
                "start_time": 163.16136363636363,
                "end_time": 163.37954545454545,
                "pitch": 50,
                "velocity": 80,
                "duration": 0.2181818181818187,
                "tempo": 120.0
            },
            {
                "start_time": 163.39772727272725,
                "end_time": 163.61363636363635,
                "pitch": 51,
                "velocity": 80,
                "duration": 0.2159090909090935,
                "tempo": 120.0
            },
            {
                "start_time": 163.63181818181818,
                "end_time": 163.85,
                "pitch": 52,
                "velocity": 80,
                "duration": 0.2181818181818187,
                "tempo": 120.0
            },
            {
                "start_time": 163.86590909090907,
                "end_time": 164.1931818181818,
                "pitch": 40,
                "velocity": 80,
                "duration": 0.32727272727274226,
                "tempo": 120.0
            },
            {
                "start_time": 164.2090909090909,
                "end_time": 164.3068181818182,
                "pitch": 47,
                "velocity": 80,
                "duration": 0.09772727272729753,
                "tempo": 120.0
            },
            {
                "start_time": 164.325,
                "end_time": 164.65227272727273,
                "pitch": 47,
                "velocity": 80,
                "duration": 0.32727272727274226,
                "tempo": 120.0
            },
            {
                "start_time": 164.6681818181818,
                "end_time": 164.76590909090908,
                "pitch": 52,
                "velocity": 80,
                "duration": 0.09772727272726911,
                "tempo": 120.0
            },
            {
                "start_time": 164.78181818181818,
                "end_time": 165.1181818181818,
                "pitch": 52,
                "velocity": 80,
                "duration": 0.33636363636361466,
                "tempo": 120.0
            },
            {
                "start_time": 165.1340909090909,
                "end_time": 165.2340909090909,
                "pitch": 47,
                "velocity": 80,
                "duration": 0.09999999999999432,
                "tempo": 120.0
            },
            {
                "start_time": 165.25227272727273,
                "end_time": 165.46818181818182,
                "pitch": 47,
                "velocity": 80,
                "duration": 0.2159090909090935,
                "tempo": 120.0
            },
            {
                "start_time": 165.48636363636362,
                "end_time": 165.70454545454544,
                "pitch": 40,
                "velocity": 80,
                "duration": 0.2181818181818187,
                "tempo": 120.0
            },
            {
                "start_time": 165.72045454545454,
                "end_time": 166.04772727272726,
                "pitch": 45,
                "velocity": 80,
                "duration": 0.32727272727271384,
                "tempo": 120.0
            },
            {
                "start_time": 166.06363636363636,
                "end_time": 166.16136363636363,
                "pitch": 52,
                "velocity": 80,
                "duration": 0.09772727272726911,
                "tempo": 120.0
            },
            {
                "start_time": 166.1772727272727,
                "end_time": 166.51363636363635,
                "pitch": 52,
                "velocity": 80,
                "duration": 0.3363636363636431,
                "tempo": 120.0
            },
            {
                "start_time": 166.52954545454546,
                "end_time": 166.62954545454545,
                "pitch": 57,
                "velocity": 80,
                "duration": 0.09999999999999432,
                "tempo": 120.0
            },
            {
                "start_time": 166.64772727272725,
                "end_time": 166.98181818181817,
                "pitch": 57,
                "velocity": 80,
                "duration": 0.3340909090909179,
                "tempo": 120.0
            },
            {
                "start_time": 167.0,
                "end_time": 167.1,
                "pitch": 52,
                "velocity": 80,
                "duration": 0.09999999999999432,
                "tempo": 120.0
            },
            {
                "start_time": 167.11590909090907,
                "end_time": 167.21363636363637,
                "pitch": 52,
                "velocity": 80,
                "duration": 0.09772727272729753,
                "tempo": 120.0
            },
            {
                "start_time": 167.23181818181817,
                "end_time": 167.5590909090909,
                "pitch": 45,
                "velocity": 80,
                "duration": 0.32727272727274226,
                "tempo": 120.0
            },
            {
                "start_time": 167.575,
                "end_time": 167.9090909090909,
                "pitch": 40,
                "velocity": 80,
                "duration": 0.3340909090909179,
                "tempo": 120.0
            },
            {
                "start_time": 167.9272727272727,
                "end_time": 168.02727272727273,
                "pitch": 47,
                "velocity": 80,
                "duration": 0.10000000000002274,
                "tempo": 120.0
            },
            {
                "start_time": 168.0431818181818,
                "end_time": 168.37954545454545,
                "pitch": 47,
                "velocity": 80,
                "duration": 0.3363636363636431,
                "tempo": 120.0
            },
            {
                "start_time": 168.39545454545453,
                "end_time": 168.49545454545455,
                "pitch": 52,
                "velocity": 80,
                "duration": 0.10000000000002274,
                "tempo": 120.0
            },
            {
                "start_time": 168.51363636363635,
                "end_time": 168.84772727272727,
                "pitch": 52,
                "velocity": 80,
                "duration": 0.3340909090909179,
                "tempo": 120.0
            },
            {
                "start_time": 168.86363636363635,
                "end_time": 168.9659090909091,
                "pitch": 47,
                "velocity": 80,
                "duration": 0.10227272727274794,
                "tempo": 120.0
            },
            {
                "start_time": 168.98181818181817,
                "end_time": 169.19545454545454,
                "pitch": 47,
                "velocity": 80,
                "duration": 0.2136363636363683,
                "tempo": 120.0
            },
            {
                "start_time": 169.21136363636361,
                "end_time": 169.42272727272726,
                "pitch": 40,
                "velocity": 80,
                "duration": 0.21136363636364308,
                "tempo": 120.0
            },
            {
                "start_time": 169.4409090909091,
                "end_time": 169.775,
                "pitch": 45,
                "velocity": 80,
                "duration": 0.3340909090909179,
                "tempo": 120.0
            },
            {
                "start_time": 169.79090909090908,
                "end_time": 169.89090909090908,
                "pitch": 52,
                "velocity": 80,
                "duration": 0.09999999999999432,
                "tempo": 120.0
            },
            {
                "start_time": 169.9090909090909,
                "end_time": 170.23636363636362,
                "pitch": 52,
                "velocity": 80,
                "duration": 0.32727272727271384,
                "tempo": 120.0
            },
            {
                "start_time": 170.25227272727273,
                "end_time": 170.35,
                "pitch": 57,
                "velocity": 80,
                "duration": 0.09772727272726911,
                "tempo": 120.0
            },
            {
                "start_time": 170.36590909090907,
                "end_time": 170.46818181818182,
                "pitch": 57,
                "velocity": 80,
                "duration": 0.10227272727274794,
                "tempo": 120.0
            },
            {
                "start_time": 170.4840909090909,
                "end_time": 170.5840909090909,
                "pitch": 55,
                "velocity": 80,
                "duration": 0.09999999999999432,
                "tempo": 120.0
            },
            {
                "start_time": 170.60227272727272,
                "end_time": 170.7022727272727,
                "pitch": 56,
                "velocity": 80,
                "duration": 0.09999999999999432,
                "tempo": 120.0
            },
            {
                "start_time": 170.71818181818182,
                "end_time": 170.8181818181818,
                "pitch": 57,
                "velocity": 80,
                "duration": 0.09999999999999432,
                "tempo": 120.0
            },
            {
                "start_time": 170.9522727272727,
                "end_time": 171.05454545454543,
                "pitch": 50,
                "velocity": 80,
                "duration": 0.10227272727271952,
                "tempo": 120.0
            },
            {
                "start_time": 171.07045454545454,
                "end_time": 171.17045454545453,
                "pitch": 51,
                "velocity": 80,
                "duration": 0.09999999999999432,
                "tempo": 120.0
            },
            {
                "start_time": 171.18863636363636,
                "end_time": 171.28863636363636,
                "pitch": 52,
                "velocity": 80,
                "duration": 0.09999999999999432,
                "tempo": 120.0
            },
            {
                "start_time": 171.30454545454543,
                "end_time": 171.63181818181818,
                "pitch": 40,
                "velocity": 80,
                "duration": 0.32727272727274226,
                "tempo": 120.0
            },
            {
                "start_time": 171.64772727272725,
                "end_time": 171.74772727272727,
                "pitch": 47,
                "velocity": 80,
                "duration": 0.10000000000002274,
                "tempo": 120.0
            },
            {
                "start_time": 171.76363636363635,
                "end_time": 172.09772727272727,
                "pitch": 47,
                "velocity": 80,
                "duration": 0.3340909090909179,
                "tempo": 120.0
            },
            {
                "start_time": 172.11590909090907,
                "end_time": 172.2159090909091,
                "pitch": 52,
                "velocity": 80,
                "duration": 0.10000000000002274,
                "tempo": 120.0
            },
            {
                "start_time": 172.23181818181817,
                "end_time": 172.5590909090909,
                "pitch": 52,
                "velocity": 80,
                "duration": 0.32727272727274226,
                "tempo": 120.0
            },
            {
                "start_time": 172.575,
                "end_time": 172.67272727272726,
                "pitch": 47,
                "velocity": 80,
                "duration": 0.09772727272726911,
                "tempo": 120.0
            },
            {
                "start_time": 172.6909090909091,
                "end_time": 172.9090909090909,
                "pitch": 47,
                "velocity": 80,
                "duration": 0.2181818181818187,
                "tempo": 120.0
            },
            {
                "start_time": 172.92499999999998,
                "end_time": 173.1431818181818,
                "pitch": 40,
                "velocity": 80,
                "duration": 0.2181818181818187,
                "tempo": 120.0
            },
            {
                "start_time": 173.1590909090909,
                "end_time": 173.4931818181818,
                "pitch": 45,
                "velocity": 80,
                "duration": 0.33409090909088945,
                "tempo": 120.0
            },
            {
                "start_time": 173.51136363636363,
                "end_time": 173.61136363636362,
                "pitch": 52,
                "velocity": 80,
                "duration": 0.09999999999999432,
                "tempo": 120.0
            },
            {
                "start_time": 173.62727272727273,
                "end_time": 173.96363636363637,
                "pitch": 52,
                "velocity": 80,
                "duration": 0.3363636363636431,
                "tempo": 120.0
            },
            {
                "start_time": 173.97954545454544,
                "end_time": 174.07954545454544,
                "pitch": 57,
                "velocity": 80,
                "duration": 0.09999999999999432,
                "tempo": 120.0
            },
            {
                "start_time": 174.09772727272727,
                "end_time": 174.42499999999998,
                "pitch": 57,
                "velocity": 80,
                "duration": 0.32727272727271384,
                "tempo": 120.0
            },
            {
                "start_time": 174.4409090909091,
                "end_time": 174.53863636363636,
                "pitch": 52,
                "velocity": 80,
                "duration": 0.09772727272726911,
                "tempo": 120.0
            },
            {
                "start_time": 174.55454545454543,
                "end_time": 174.65681818181818,
                "pitch": 52,
                "velocity": 80,
                "duration": 0.10227272727274794,
                "tempo": 120.0
            },
            {
                "start_time": 174.67272727272726,
                "end_time": 175.00681818181818,
                "pitch": 45,
                "velocity": 80,
                "duration": 0.3340909090909179,
                "tempo": 120.0
            },
            {
                "start_time": 175.025,
                "end_time": 175.3590909090909,
                "pitch": 40,
                "velocity": 80,
                "duration": 0.33409090909088945,
                "tempo": 120.0
            },
            {
                "start_time": 175.37727272727273,
                "end_time": 175.47727272727272,
                "pitch": 47,
                "velocity": 80,
                "duration": 0.09999999999999432,
                "tempo": 120.0
            },
            {
                "start_time": 175.4931818181818,
                "end_time": 175.82045454545454,
                "pitch": 47,
                "velocity": 80,
                "duration": 0.32727272727274226,
                "tempo": 120.0
            },
            {
                "start_time": 175.83636363636361,
                "end_time": 175.9340909090909,
                "pitch": 52,
                "velocity": 80,
                "duration": 0.09772727272729753,
                "tempo": 120.0
            },
            {
                "start_time": 175.9522727272727,
                "end_time": 176.28636363636363,
                "pitch": 52,
                "velocity": 80,
                "duration": 0.3340909090909179,
                "tempo": 120.0
            },
            {
                "start_time": 176.3022727272727,
                "end_time": 176.40454545454546,
                "pitch": 47,
                "velocity": 80,
                "duration": 0.10227272727274794,
                "tempo": 120.0
            },
            {
                "start_time": 176.42045454545453,
                "end_time": 176.52045454545453,
                "pitch": 47,
                "velocity": 80,
                "duration": 0.09999999999999432,
                "tempo": 120.0
            },
            {
                "start_time": 176.53863636363636,
                "end_time": 176.63863636363635,
                "pitch": 45,
                "velocity": 80,
                "duration": 0.09999999999999432,
                "tempo": 120.0
            },
            {
                "start_time": 176.65454545454546,
                "end_time": 176.75454545454545,
                "pitch": 46,
                "velocity": 80,
                "duration": 0.09999999999999432,
                "tempo": 120.0
            },
            {
                "start_time": 176.77272727272725,
                "end_time": 176.87272727272727,
                "pitch": 47,
                "velocity": 80,
                "duration": 0.10000000000002274,
                "tempo": 120.0
            },
            {
                "start_time": 176.88863636363635,
                "end_time": 177.2159090909091,
                "pitch": 45,
                "velocity": 80,
                "duration": 0.32727272727274226,
                "tempo": 120.0
            },
            {
                "start_time": 177.2340909090909,
                "end_time": 177.33181818181816,
                "pitch": 52,
                "velocity": 80,
                "duration": 0.09772727272726911,
                "tempo": 120.0
            },
            {
                "start_time": 177.34772727272727,
                "end_time": 177.6818181818182,
                "pitch": 52,
                "velocity": 80,
                "duration": 0.3340909090909179,
                "tempo": 120.0
            },
            {
                "start_time": 177.7,
                "end_time": 177.79999999999998,
                "pitch": 45,
                "velocity": 80,
                "duration": 0.09999999999999432,
                "tempo": 120.0
            },
            {
                "start_time": 177.8159090909091,
                "end_time": 177.91136363636363,
                "pitch": 45,
                "velocity": 80,
                "duration": 0.0954545454545439,
                "tempo": 120.0
            },
            {
                "start_time": 178.04090909090908,
                "end_time": 178.24772727272727,
                "pitch": 50,
                "velocity": 80,
                "duration": 0.20681818181819267,
                "tempo": 120.0
            },
            {
                "start_time": 178.26363636363635,
                "end_time": 178.49090909090907,
                "pitch": 51,
                "velocity": 80,
                "duration": 0.22727272727271952,
                "tempo": 120.0
            },
            {
                "start_time": 178.50681818181818,
                "end_time": 178.7340909090909,
                "pitch": 52,
                "velocity": 80,
                "duration": 0.22727272727271952,
                "tempo": 120.0
            },
            {
                "start_time": 178.75227272727273,
                "end_time": 179.07954545454544,
                "pitch": 40,
                "velocity": 80,
                "duration": 0.32727272727271384,
                "tempo": 120.0
            },
            {
                "start_time": 179.09545454545454,
                "end_time": 179.1931818181818,
                "pitch": 47,
                "velocity": 80,
                "duration": 0.09772727272726911,
                "tempo": 120.0
            },
            {
                "start_time": 179.2090909090909,
                "end_time": 179.54545454545453,
                "pitch": 47,
                "velocity": 80,
                "duration": 0.3363636363636431,
                "tempo": 120.0
            },
            {
                "start_time": 179.56136363636364,
                "end_time": 179.66136363636363,
                "pitch": 52,
                "velocity": 80,
                "duration": 0.09999999999999432,
                "tempo": 120.0
            }
        ],
        "Lead 2 (sawtooth)": [
            {
                "start_time": 0.0,
                "end_time": 0.18409090909090908,
                "pitch": 76,
                "velocity": 64,
                "duration": 0.18409090909090908,
                "tempo": 120.0
            },
            {
                "start_time": 0.19772727272727272,
                "end_time": 0.28409090909090906,
                "pitch": 79,
                "velocity": 64,
                "duration": 0.08636363636363634,
                "tempo": 120.0
            },
            {
                "start_time": 0.5318181818181817,
                "end_time": 0.7477272727272727,
                "pitch": 74,
                "velocity": 64,
                "duration": 0.21590909090909094,
                "tempo": 120.0
            },
            {
                "start_time": 0.7659090909090909,
                "end_time": 0.984090909090909,
                "pitch": 73,
                "velocity": 64,
                "duration": 0.21818181818181814,
                "tempo": 120.0
            },
            {
                "start_time": 1.0,
                "end_time": 1.0999999999999999,
                "pitch": 76,
                "velocity": 64,
                "duration": 0.09999999999999987,
                "tempo": 120.0
            },
            {
                "start_time": 1.3499999999999999,
                "end_time": 1.5613636363636363,
                "pitch": 73,
                "velocity": 64,
                "duration": 0.21136363636363642,
                "tempo": 120.0
            },
            {
                "start_time": 1.5772727272727272,
                "end_time": 1.7909090909090908,
                "pitch": 74,
                "velocity": 64,
                "duration": 0.21363636363636362,
                "tempo": 120.0
            },
            {
                "start_time": 1.8068181818181817,
                "end_time": 2.0204545454545455,
                "pitch": 76,
                "velocity": 64,
                "duration": 0.21363636363636385,
                "tempo": 120.0
            },
            {
                "start_time": 2.036363636363636,
                "end_time": 2.134090909090909,
                "pitch": 79,
                "velocity": 64,
                "duration": 0.09772727272727266,
                "tempo": 120.0
            },
            {
                "start_time": 2.3886363636363637,
                "end_time": 2.609090909090909,
                "pitch": 74,
                "velocity": 64,
                "duration": 0.22045454545454524,
                "tempo": 120.0
            },
            {
                "start_time": 2.627272727272727,
                "end_time": 2.725,
                "pitch": 73,
                "velocity": 64,
                "duration": 0.0977272727272731,
                "tempo": 120.0
            },
            {
                "start_time": 3.661363636363636,
                "end_time": 3.8795454545454544,
                "pitch": 76,
                "velocity": 64,
                "duration": 0.21818181818181825,
                "tempo": 120.0
            },
            {
                "start_time": 3.895454545454545,
                "end_time": 3.995454545454545,
                "pitch": 79,
                "velocity": 64,
                "duration": 0.10000000000000009,
                "tempo": 120.0
            },
            {
                "start_time": 4.247727272727272,
                "end_time": 4.463636363636364,
                "pitch": 74,
                "velocity": 64,
                "duration": 0.21590909090909172,
                "tempo": 120.0
            },
            {
                "start_time": 4.4818181818181815,
                "end_time": 4.7,
                "pitch": 73,
                "velocity": 64,
                "duration": 0.2181818181818187,
                "tempo": 120.0
            },
            {
                "start_time": 4.715909090909091,
                "end_time": 4.8159090909090905,
                "pitch": 76,
                "velocity": 64,
                "duration": 0.09999999999999964,
                "tempo": 120.0
            },
            {
                "start_time": 5.0659090909090905,
                "end_time": 5.277272727272727,
                "pitch": 73,
                "velocity": 64,
                "duration": 0.21136363636363686,
                "tempo": 120.0
            },
            {
                "start_time": 5.293181818181818,
                "end_time": 5.509090909090909,
                "pitch": 74,
                "velocity": 64,
                "duration": 0.21590909090909083,
                "tempo": 120.0
            },
            {
                "start_time": 5.5249999999999995,
                "end_time": 5.743181818181818,
                "pitch": 76,
                "velocity": 64,
                "duration": 0.2181818181818187,
                "tempo": 120.0
            },
            {
                "start_time": 5.761363636363636,
                "end_time": 5.861363636363636,
                "pitch": 79,
                "velocity": 64,
                "duration": 0.10000000000000053,
                "tempo": 120.0
            },
            {
                "start_time": 5.877272727272727,
                "end_time": 5.977272727272727,
                "pitch": 83,
                "velocity": 64,
                "duration": 0.09999999999999964,
                "tempo": 120.0
            },
            {
                "start_time": 6.111363636363636,
                "end_time": 6.329545454545454,
                "pitch": 74,
                "velocity": 64,
                "duration": 0.2181818181818178,
                "tempo": 120.0
            },
            {
                "start_time": 6.347727272727273,
                "end_time": 6.447727272727272,
                "pitch": 73,
                "velocity": 64,
                "duration": 0.09999999999999964,
                "tempo": 120.0
            },
            {
                "start_time": 7.475,
                "end_time": 7.704545454545454,
                "pitch": 76,
                "velocity": 64,
                "duration": 0.2295454545454545,
                "tempo": 120.0
            },
            {
                "start_time": 7.722727272727273,
                "end_time": 7.829545454545454,
                "pitch": 79,
                "velocity": 64,
                "duration": 0.10681818181818148,
                "tempo": 120.0
            },
            {
                "start_time": 8.088636363636363,
                "end_time": 8.306818181818182,
                "pitch": 74,
                "velocity": 64,
                "duration": 0.2181818181818187,
                "tempo": 120.0
            },
            {
                "start_time": 8.322727272727272,
                "end_time": 8.538636363636364,
                "pitch": 73,
                "velocity": 64,
                "duration": 0.21590909090909172,
                "tempo": 120.0
            },
            {
                "start_time": 8.554545454545455,
                "end_time": 8.652272727272727,
                "pitch": 76,
                "velocity": 64,
                "duration": 0.09772727272727266,
                "tempo": 120.0
            },
            {
                "start_time": 8.897727272727272,
                "end_time": 9.11590909090909,
                "pitch": 73,
                "velocity": 64,
                "duration": 0.2181818181818187,
                "tempo": 120.0
            },
            {
                "start_time": 9.131818181818181,
                "end_time": 9.35,
                "pitch": 74,
                "velocity": 64,
                "duration": 0.2181818181818187,
                "tempo": 120.0
            },
            {
                "start_time": 9.368181818181817,
                "end_time": 9.584090909090909,
                "pitch": 76,
                "velocity": 64,
                "duration": 0.21590909090909172,
                "tempo": 120.0
            },
            {
                "start_time": 9.602272727272727,
                "end_time": 9.702272727272726,
                "pitch": 79,
                "velocity": 64,
                "duration": 0.09999999999999964,
                "tempo": 120.0
            },
            {
                "start_time": 9.95,
                "end_time": 10.163636363636364,
                "pitch": 74,
                "velocity": 64,
                "duration": 0.21363636363636473,
                "tempo": 120.0
            },
            {
                "start_time": 10.179545454545455,
                "end_time": 10.277272727272727,
                "pitch": 73,
                "velocity": 64,
                "duration": 0.09772727272727266,
                "tempo": 120.0
            },
            {
                "start_time": 11.222727272727273,
                "end_time": 11.438636363636363,
                "pitch": 76,
                "velocity": 64,
                "duration": 0.21590909090908994,
                "tempo": 120.0
            },
            {
                "start_time": 11.456818181818182,
                "end_time": 11.556818181818182,
                "pitch": 79,
                "velocity": 64,
                "duration": 0.09999999999999964,
                "tempo": 120.0
            },
            {
                "start_time": 11.804545454545455,
                "end_time": 12.018181818181818,
                "pitch": 74,
                "velocity": 64,
                "duration": 0.21363636363636296,
                "tempo": 120.0
            },
            {
                "start_time": 12.034090909090908,
                "end_time": 12.25,
                "pitch": 73,
                "velocity": 64,
                "duration": 0.21590909090909172,
                "tempo": 120.0
            },
            {
                "start_time": 12.26590909090909,
                "end_time": 12.36590909090909,
                "pitch": 76,
                "velocity": 64,
                "duration": 0.09999999999999964,
                "tempo": 120.0
            },
            {
                "start_time": 12.618181818181817,
                "end_time": 12.838636363636363,
                "pitch": 73,
                "velocity": 64,
                "duration": 0.22045454545454568,
                "tempo": 120.0
            },
            {
                "start_time": 12.85681818181818,
                "end_time": 13.077272727272726,
                "pitch": 74,
                "velocity": 64,
                "duration": 0.22045454545454568,
                "tempo": 120.0
            },
            {
                "start_time": 13.093181818181817,
                "end_time": 13.311363636363636,
                "pitch": 76,
                "velocity": 64,
                "duration": 0.2181818181818187,
                "tempo": 120.0
            },
            {
                "start_time": 13.329545454545453,
                "end_time": 13.429545454545455,
                "pitch": 79,
                "velocity": 64,
                "duration": 0.10000000000000142,
                "tempo": 120.0
            },
            {
                "start_time": 13.445454545454545,
                "end_time": 13.547727272727272,
                "pitch": 83,
                "velocity": 64,
                "duration": 0.10227272727272663,
                "tempo": 120.0
            },
            {
                "start_time": 13.674999999999999,
                "end_time": 13.884090909090908,
                "pitch": 74,
                "velocity": 64,
                "duration": 0.209090909090909,
                "tempo": 120.0
            },
            {
                "start_time": 13.899999999999999,
                "end_time": 13.995454545454544,
                "pitch": 73,
                "velocity": 64,
                "duration": 0.09545454545454568,
                "tempo": 120.0
            },
            {
                "start_time": 14.95,
                "end_time": 15.161363636363635,
                "pitch": 76,
                "velocity": 64,
                "duration": 0.21136363636363598,
                "tempo": 120.0
            },
            {
                "start_time": 15.177272727272726,
                "end_time": 15.277272727272727,
                "pitch": 79,
                "velocity": 64,
                "duration": 0.10000000000000142,
                "tempo": 120.0
            },
            {
                "start_time": 15.524999999999999,
                "end_time": 15.743181818181817,
                "pitch": 74,
                "velocity": 64,
                "duration": 0.2181818181818187,
                "tempo": 120.0
            },
            {
                "start_time": 15.759090909090908,
                "end_time": 15.977272727272727,
                "pitch": 73,
                "velocity": 64,
                "duration": 0.2181818181818187,
                "tempo": 120.0
            },
            {
                "start_time": 15.993181818181817,
                "end_time": 16.09318181818182,
                "pitch": 76,
                "velocity": 64,
                "duration": 0.10000000000000142,
                "tempo": 120.0
            },
            {
                "start_time": 16.345454545454544,
                "end_time": 16.55909090909091,
                "pitch": 73,
                "velocity": 64,
                "duration": 0.21363636363636473,
                "tempo": 120.0
            },
            {
                "start_time": 16.575,
                "end_time": 16.786363636363635,
                "pitch": 74,
                "velocity": 64,
                "duration": 0.21136363636363598,
                "tempo": 120.0
            },
            {
                "start_time": 16.804545454545455,
                "end_time": 17.020454545454545,
                "pitch": 76,
                "velocity": 64,
                "duration": 0.21590909090908994,
                "tempo": 120.0
            },
            {
                "start_time": 17.038636363636364,
                "end_time": 17.138636363636362,
                "pitch": 79,
                "velocity": 64,
                "duration": 0.09999999999999787,
                "tempo": 120.0
            },
            {
                "start_time": 17.39090909090909,
                "end_time": 17.60681818181818,
                "pitch": 74,
                "velocity": 64,
                "duration": 0.21590909090908994,
                "tempo": 120.0
            },
            {
                "start_time": 17.625,
                "end_time": 17.724999999999998,
                "pitch": 73,
                "velocity": 64,
                "duration": 0.09999999999999787,
                "tempo": 120.0
            },
            {
                "start_time": 18.668181818181818,
                "end_time": 18.88181818181818,
                "pitch": 76,
                "velocity": 64,
                "duration": 0.21363636363636118,
                "tempo": 120.0
            },
            {
                "start_time": 18.897727272727273,
                "end_time": 18.995454545454546,
                "pitch": 79,
                "velocity": 64,
                "duration": 0.09772727272727266,
                "tempo": 120.0
            },
            {
                "start_time": 19.243181818181817,
                "end_time": 19.461363636363636,
                "pitch": 74,
                "velocity": 64,
                "duration": 0.2181818181818187,
                "tempo": 120.0
            },
            {
                "start_time": 19.479545454545452,
                "end_time": 19.69772727272727,
                "pitch": 73,
                "velocity": 64,
                "duration": 0.2181818181818187,
                "tempo": 120.0
            },
            {
                "start_time": 19.71590909090909,
                "end_time": 19.818181818181817,
                "pitch": 76,
                "velocity": 64,
                "duration": 0.10227272727272663,
                "tempo": 120.0
            },
            {
                "start_time": 20.077272727272728,
                "end_time": 20.288636363636364,
                "pitch": 73,
                "velocity": 64,
                "duration": 0.21136363636363598,
                "tempo": 120.0
            },
            {
                "start_time": 20.304545454545455,
                "end_time": 20.518181818181816,
                "pitch": 74,
                "velocity": 64,
                "duration": 0.21363636363636118,
                "tempo": 120.0
            },
            {
                "start_time": 20.534090909090907,
                "end_time": 20.752272727272725,
                "pitch": 76,
                "velocity": 64,
                "duration": 0.2181818181818187,
                "tempo": 120.0
            },
            {
                "start_time": 20.768181818181816,
                "end_time": 20.870454545454546,
                "pitch": 79,
                "velocity": 64,
                "duration": 0.10227272727273018,
                "tempo": 120.0
            },
            {
                "start_time": 20.886363636363637,
                "end_time": 20.986363636363635,
                "pitch": 83,
                "velocity": 64,
                "duration": 0.09999999999999787,
                "tempo": 120.0
            },
            {
                "start_time": 21.118181818181817,
                "end_time": 21.331818181818182,
                "pitch": 74,
                "velocity": 64,
                "duration": 0.21363636363636473,
                "tempo": 120.0
            },
            {
                "start_time": 21.347727272727273,
                "end_time": 21.445454545454545,
                "pitch": 73,
                "velocity": 64,
                "duration": 0.09772727272727266,
                "tempo": 120.0
            },
            {
                "start_time": 22.4,
                "end_time": 22.60681818181818,
                "pitch": 76,
                "velocity": 64,
                "duration": 0.206818181818182,
                "tempo": 120.0
            },
            {
                "start_time": 22.62272727272727,
                "end_time": 22.71818181818182,
                "pitch": 79,
                "velocity": 64,
                "duration": 0.09545454545454746,
                "tempo": 120.0
            },
            {
                "start_time": 22.96590909090909,
                "end_time": 23.19090909090909,
                "pitch": 74,
                "velocity": 64,
                "duration": 0.22500000000000142,
                "tempo": 120.0
            },
            {
                "start_time": 23.206818181818182,
                "end_time": 23.427272727272726,
                "pitch": 73,
                "velocity": 64,
                "duration": 0.2204545454545439,
                "tempo": 120.0
            },
            {
                "start_time": 23.445454545454545,
                "end_time": 23.545454545454543,
                "pitch": 76,
                "velocity": 64,
                "duration": 0.09999999999999787,
                "tempo": 120.0
            },
            {
                "start_time": 23.795454545454543,
                "end_time": 24.009090909090908,
                "pitch": 73,
                "velocity": 64,
                "duration": 0.21363636363636473,
                "tempo": 120.0
            },
            {
                "start_time": 24.025,
                "end_time": 24.238636363636363,
                "pitch": 74,
                "velocity": 64,
                "duration": 0.21363636363636473,
                "tempo": 120.0
            },
            {
                "start_time": 24.254545454545454,
                "end_time": 24.472727272727273,
                "pitch": 76,
                "velocity": 64,
                "duration": 0.2181818181818187,
                "tempo": 120.0
            },
            {
                "start_time": 24.488636363636363,
                "end_time": 24.58863636363636,
                "pitch": 79,
                "velocity": 64,
                "duration": 0.09999999999999787,
                "tempo": 120.0
            },
            {
                "start_time": 24.83863636363636,
                "end_time": 25.049999999999997,
                "pitch": 74,
                "velocity": 64,
                "duration": 0.21136363636363598,
                "tempo": 120.0
            },
            {
                "start_time": 25.068181818181817,
                "end_time": 25.16590909090909,
                "pitch": 73,
                "velocity": 64,
                "duration": 0.09772727272727266,
                "tempo": 120.0
            },
            {
                "start_time": 26.120454545454542,
                "end_time": 26.331818181818182,
                "pitch": 76,
                "velocity": 64,
                "duration": 0.21136363636363953,
                "tempo": 120.0
            },
            {
                "start_time": 26.347727272727273,
                "end_time": 26.44772727272727,
                "pitch": 79,
                "velocity": 64,
                "duration": 0.09999999999999787,
                "tempo": 120.0
            },
            {
                "start_time": 26.695454545454545,
                "end_time": 26.913636363636364,
                "pitch": 74,
                "velocity": 64,
                "duration": 0.2181818181818187,
                "tempo": 120.0
            },
            {
                "start_time": 26.929545454545455,
                "end_time": 27.14772727272727,
                "pitch": 73,
                "velocity": 64,
                "duration": 0.21818181818181515,
                "tempo": 120.0
            },
            {
                "start_time": 27.163636363636364,
                "end_time": 27.263636363636362,
                "pitch": 76,
                "velocity": 64,
                "duration": 0.09999999999999787,
                "tempo": 120.0
            },
            {
                "start_time": 27.51590909090909,
                "end_time": 27.729545454545452,
                "pitch": 73,
                "velocity": 64,
                "duration": 0.21363636363636118,
                "tempo": 120.0
            },
            {
                "start_time": 27.745454545454542,
                "end_time": 27.956818181818182,
                "pitch": 74,
                "velocity": 64,
                "duration": 0.21136363636363953,
                "tempo": 120.0
            },
            {
                "start_time": 27.974999999999998,
                "end_time": 28.190909090909088,
                "pitch": 76,
                "velocity": 64,
                "duration": 0.21590909090908994,
                "tempo": 120.0
            },
            {
                "start_time": 28.209090909090907,
                "end_time": 28.30909090909091,
                "pitch": 79,
                "velocity": 64,
                "duration": 0.10000000000000142,
                "tempo": 120.0
            },
            {
                "start_time": 28.325,
                "end_time": 28.427272727272726,
                "pitch": 83,
                "velocity": 64,
                "duration": 0.10227272727272663,
                "tempo": 120.0
            },
            {
                "start_time": 28.561363636363634,
                "end_time": 28.777272727272727,
                "pitch": 74,
                "velocity": 64,
                "duration": 0.2159090909090935,
                "tempo": 120.0
            },
            {
                "start_time": 28.795454545454543,
                "end_time": 28.895454545454545,
                "pitch": 73,
                "velocity": 64,
                "duration": 0.10000000000000142,
                "tempo": 120.0
            },
            {
                "start_time": 31.595454545454544,
                "end_time": 34.945454545454545,
                "pitch": 47,
                "velocity": 64,
                "duration": 3.3500000000000014,
                "tempo": 120.0
            },
            {
                "start_time": 35.42045454545455,
                "end_time": 35.75681818181818,
                "pitch": 64,
                "velocity": 64,
                "duration": 0.336363636363636,
                "tempo": 120.0
            },
            {
                "start_time": 35.77272727272727,
                "end_time": 35.87272727272727,
                "pitch": 64,
                "velocity": 64,
                "duration": 0.09999999999999432,
                "tempo": 120.0
            },
            {
                "start_time": 36.125,
                "end_time": 36.34318181818182,
                "pitch": 64,
                "velocity": 64,
                "duration": 0.2181818181818187,
                "tempo": 120.0
            },
            {
                "start_time": 36.58863636363636,
                "end_time": 36.68636363636364,
                "pitch": 62,
                "velocity": 64,
                "duration": 0.09772727272727622,
                "tempo": 120.0
            },
            {
                "start_time": 36.81818181818181,
                "end_time": 37.029545454545456,
                "pitch": 64,
                "velocity": 64,
                "duration": 0.21136363636364308,
                "tempo": 120.0
            },
            {
                "start_time": 37.275,
                "end_time": 37.611363636363635,
                "pitch": 64,
                "velocity": 64,
                "duration": 0.336363636363636,
                "tempo": 120.0
            },
            {
                "start_time": 37.627272727272725,
                "end_time": 37.72727272727273,
                "pitch": 64,
                "velocity": 64,
                "duration": 0.10000000000000142,
                "tempo": 120.0
            },
            {
                "start_time": 37.97954545454545,
                "end_time": 38.19772727272727,
                "pitch": 64,
                "velocity": 64,
                "duration": 0.2181818181818187,
                "tempo": 120.0
            },
            {
                "start_time": 38.44772727272727,
                "end_time": 38.54772727272727,
                "pitch": 62,
                "velocity": 64,
                "duration": 0.10000000000000142,
                "tempo": 120.0
            },
            {
                "start_time": 38.68181818181818,
                "end_time": 38.89545454545454,
                "pitch": 64,
                "velocity": 64,
                "duration": 0.21363636363636118,
                "tempo": 120.0
            },
            {
                "start_time": 39.14090909090909,
                "end_time": 39.475,
                "pitch": 64,
                "velocity": 64,
                "duration": 0.33409090909091077,
                "tempo": 120.0
            },
            {
                "start_time": 39.49318181818182,
                "end_time": 39.59318181818182,
                "pitch": 64,
                "velocity": 64,
                "duration": 0.10000000000000142,
                "tempo": 120.0
            },
            {
                "start_time": 39.845454545454544,
                "end_time": 40.06136363636364,
                "pitch": 64,
                "velocity": 64,
                "duration": 0.2159090909090935,
                "tempo": 120.0
            },
            {
                "start_time": 40.31363636363636,
                "end_time": 40.413636363636364,
                "pitch": 62,
                "velocity": 64,
                "duration": 0.10000000000000142,
                "tempo": 120.0
            },
            {
                "start_time": 40.54772727272727,
                "end_time": 40.76136363636363,
                "pitch": 64,
                "velocity": 64,
                "duration": 0.21363636363636118,
                "tempo": 120.0
            },
            {
                "start_time": 41.00681818181818,
                "end_time": 41.340909090909086,
                "pitch": 64,
                "velocity": 64,
                "duration": 0.33409090909090366,
                "tempo": 120.0
            },
            {
                "start_time": 41.35681818181818,
                "end_time": 41.459090909090904,
                "pitch": 64,
                "velocity": 64,
                "duration": 0.10227272727272663,
                "tempo": 120.0
            },
            {
                "start_time": 41.70454545454545,
                "end_time": 41.91590909090909,
                "pitch": 64,
                "velocity": 64,
                "duration": 0.21136363636363598,
                "tempo": 120.0
            },
            {
                "start_time": 42.168181818181814,
                "end_time": 42.268181818181816,
                "pitch": 62,
                "velocity": 64,
                "duration": 0.10000000000000142,
                "tempo": 120.0
            },
            {
                "start_time": 42.402272727272724,
                "end_time": 42.61590909090909,
                "pitch": 64,
                "velocity": 64,
                "duration": 0.2136363636363683,
                "tempo": 120.0
            },
            {
                "start_time": 42.861363636363635,
                "end_time": 43.211363636363636,
                "pitch": 83,
                "velocity": 64,
                "duration": 0.3500000000000014,
                "tempo": 120.0
            },
            {
                "start_time": 43.24545454545454,
                "end_time": 43.56363636363636,
                "pitch": 81,
                "velocity": 64,
                "duration": 0.3181818181818201,
                "tempo": 120.0
            },
            {
                "start_time": 43.59772727272727,
                "end_time": 43.79772727272727,
                "pitch": 86,
                "velocity": 64,
                "duration": 0.20000000000000284,
                "tempo": 120.0
            },
            {
                "start_time": 43.83181818181818,
                "end_time": 44.15,
                "pitch": 83,
                "velocity": 64,
                "duration": 0.3181818181818201,
                "tempo": 120.0
            },
            {
                "start_time": 44.184090909090905,
                "end_time": 44.502272727272725,
                "pitch": 81,
                "velocity": 64,
                "duration": 0.3181818181818201,
                "tempo": 120.0
            },
            {
                "start_time": 44.53636363636363,
                "end_time": 44.736363636363635,
                "pitch": 79,
                "velocity": 64,
                "duration": 0.20000000000000284,
                "tempo": 120.0
            },
            {
                "start_time": 44.768181818181816,
                "end_time": 45.07954545454545,
                "pitch": 81,
                "velocity": 64,
                "duration": 0.3113636363636374,
                "tempo": 120.0
            },
            {
                "start_time": 45.11363636363636,
                "end_time": 45.429545454545455,
                "pitch": 78,
                "velocity": 64,
                "duration": 0.3159090909090949,
                "tempo": 120.0
            },
            {
                "start_time": 45.46363636363636,
                "end_time": 46.12272727272727,
                "pitch": 74,
                "velocity": 64,
                "duration": 0.6590909090909065,
                "tempo": 120.0
            },
            {
                "start_time": 46.625,
                "end_time": 46.94318181818181,
                "pitch": 79,
                "velocity": 64,
                "duration": 0.318181818181813,
                "tempo": 120.0
            },
            {
                "start_time": 46.974999999999994,
                "end_time": 47.293181818181814,
                "pitch": 78,
                "velocity": 64,
                "duration": 0.3181818181818201,
                "tempo": 120.0
            },
            {
                "start_time": 47.32727272727273,
                "end_time": 47.52954545454545,
                "pitch": 81,
                "velocity": 64,
                "duration": 0.20227272727272094,
                "tempo": 120.0
            },
            {
                "start_time": 47.56136363636364,
                "end_time": 47.87272727272727,
                "pitch": 79,
                "velocity": 64,
                "duration": 0.3113636363636303,
                "tempo": 120.0
            },
            {
                "start_time": 47.90454545454545,
                "end_time": 48.220454545454544,
                "pitch": 78,
                "velocity": 64,
                "duration": 0.3159090909090949,
                "tempo": 120.0
            },
            {
                "start_time": 48.25454545454545,
                "end_time": 48.45681818181818,
                "pitch": 71,
                "velocity": 64,
                "duration": 0.20227272727272805,
                "tempo": 120.0
            },
            {
                "start_time": 48.48863636363636,
                "end_time": 48.8,
                "pitch": 76,
                "velocity": 64,
                "duration": 0.3113636363636374,
                "tempo": 120.0
            },
            {
                "start_time": 48.83181818181818,
                "end_time": 48.913636363636364,
                "pitch": 78,
                "velocity": 64,
                "duration": 0.08181818181818556,
                "tempo": 120.0
            },
            {
                "start_time": 48.94772727272727,
                "end_time": 49.85227272727273,
                "pitch": 76,
                "velocity": 64,
                "duration": 0.9045454545454561,
                "tempo": 120.0
            },
            {
                "start_time": 50.34318181818182,
                "end_time": 50.66136363636363,
                "pitch": 83,
                "velocity": 64,
                "duration": 0.318181818181813,
                "tempo": 120.0
            },
            {
                "start_time": 50.695454545454545,
                "end_time": 51.01363636363636,
                "pitch": 81,
                "velocity": 64,
                "duration": 0.318181818181813,
                "tempo": 120.0
            },
            {
                "start_time": 51.04772727272727,
                "end_time": 51.24772727272727,
                "pitch": 86,
                "velocity": 64,
                "duration": 0.19999999999999574,
                "tempo": 120.0
            },
            {
                "start_time": 51.28181818181818,
                "end_time": 51.590909090909086,
                "pitch": 83,
                "velocity": 64,
                "duration": 0.3090909090909051,
                "tempo": 120.0
            },
            {
                "start_time": 51.625,
                "end_time": 51.945454545454545,
                "pitch": 81,
                "velocity": 64,
                "duration": 0.3204545454545453,
                "tempo": 120.0
            },
            {
                "start_time": 51.97954545454545,
                "end_time": 52.18636363636363,
                "pitch": 79,
                "velocity": 64,
                "duration": 0.20681818181817846,
                "tempo": 120.0
            },
            {
                "start_time": 52.21818181818182,
                "end_time": 52.52954545454545,
                "pitch": 81,
                "velocity": 64,
                "duration": 0.3113636363636303,
                "tempo": 120.0
            },
            {
                "start_time": 52.56363636363636,
                "end_time": 52.87954545454545,
                "pitch": 78,
                "velocity": 64,
                "duration": 0.3159090909090878,
                "tempo": 120.0
            },
            {
                "start_time": 52.91136363636363,
                "end_time": 53.57272727272727,
                "pitch": 74,
                "velocity": 64,
                "duration": 0.6613636363636388,
                "tempo": 120.0
            },
            {
                "start_time": 54.07272727272727,
                "end_time": 54.38409090909091,
                "pitch": 79,
                "velocity": 64,
                "duration": 0.3113636363636374,
                "tempo": 120.0
            },
            {
                "start_time": 54.41590909090909,
                "end_time": 54.73409090909091,
                "pitch": 78,
                "velocity": 64,
                "duration": 0.3181818181818201,
                "tempo": 120.0
            },
            {
                "start_time": 54.76590909090909,
                "end_time": 54.96818181818182,
                "pitch": 81,
                "velocity": 64,
                "duration": 0.20227272727272805,
                "tempo": 120.0
            },
            {
                "start_time": 55.002272727272725,
                "end_time": 55.320454545454545,
                "pitch": 79,
                "velocity": 64,
                "duration": 0.3181818181818201,
                "tempo": 120.0
            },
            {
                "start_time": 55.35227272727273,
                "end_time": 55.67045454545454,
                "pitch": 78,
                "velocity": 64,
                "duration": 0.318181818181813,
                "tempo": 120.0
            },
            {
                "start_time": 55.70454545454545,
                "end_time": 55.788636363636364,
                "pitch": 71,
                "velocity": 64,
                "duration": 0.08409090909091077,
                "tempo": 120.0
            },
            {
                "start_time": 55.82272727272727,
                "end_time": 55.90681818181818,
                "pitch": 74,
                "velocity": 64,
                "duration": 0.08409090909091077,
                "tempo": 120.0
            },
            {
                "start_time": 55.93863636363636,
                "end_time": 56.25,
                "pitch": 78,
                "velocity": 64,
                "duration": 0.3113636363636374,
                "tempo": 120.0
            },
            {
                "start_time": 56.28181818181818,
                "end_time": 57.41590909090909,
                "pitch": 76,
                "velocity": 64,
                "duration": 1.134090909090908,
                "tempo": 120.0
            },
            {
                "start_time": 57.449999999999996,
                "end_time": 57.74318181818182,
                "pitch": 74,
                "velocity": 64,
                "duration": 0.29318181818182154,
                "tempo": 120.0
            },
            {
                "start_time": 57.75909090909091,
                "end_time": 58.34318181818182,
                "pitch": 72,
                "velocity": 64,
                "duration": 0.5840909090909108,
                "tempo": 120.0
            },
            {
                "start_time": 58.377272727272725,
                "end_time": 58.57272727272727,
                "pitch": 74,
                "velocity": 64,
                "duration": 0.19545454545454533,
                "tempo": 120.0
            },
            {
                "start_time": 58.60454545454545,
                "end_time": 58.68636363636363,
                "pitch": 76,
                "velocity": 64,
                "duration": 0.08181818181817846,
                "tempo": 120.0
            },
            {
                "start_time": 58.720454545454544,
                "end_time": 59.15681818181818,
                "pitch": 74,
                "velocity": 64,
                "duration": 0.4363636363636374,
                "tempo": 120.0
            },
            {
                "start_time": 59.18863636363636,
                "end_time": 59.39090909090909,
                "pitch": 72,
                "velocity": 64,
                "duration": 0.20227272727272805,
                "tempo": 120.0
            },
            {
                "start_time": 59.425,
                "end_time": 59.625,
                "pitch": 71,
                "velocity": 64,
                "duration": 0.20000000000000284,
                "tempo": 120.0
            },
            {
                "start_time": 59.65681818181818,
                "end_time": 59.96818181818182,
                "pitch": 69,
                "velocity": 64,
                "duration": 0.3113636363636374,
                "tempo": 120.0
            },
            {
                "start_time": 60.002272727272725,
                "end_time": 60.084090909090904,
                "pitch": 71,
                "velocity": 64,
                "duration": 0.08181818181817846,
                "tempo": 120.0
            },
            {
                "start_time": 60.115909090909085,
                "end_time": 61.01136363636363,
                "pitch": 67,
                "velocity": 64,
                "duration": 0.8954545454545482,
                "tempo": 120.0
            },
            {
                "start_time": 61.51363636363636,
                "end_time": 62.06590909090909,
                "pitch": 72,
                "velocity": 64,
                "duration": 0.5522727272727295,
                "tempo": 120.0
            },
            {
                "start_time": 62.099999999999994,
                "end_time": 62.3,
                "pitch": 74,
                "velocity": 64,
                "duration": 0.20000000000000284,
                "tempo": 120.0
            },
            {
                "start_time": 62.334090909090904,
                "end_time": 62.418181818181814,
                "pitch": 76,
                "velocity": 64,
                "duration": 0.08409090909091077,
                "tempo": 120.0
            },
            {
                "start_time": 62.449999999999996,
                "end_time": 62.875,
                "pitch": 74,
                "velocity": 64,
                "duration": 0.42500000000000426,
                "tempo": 120.0
            },
            {
                "start_time": 62.90909090909091,
                "end_time": 63.111363636363635,
                "pitch": 71,
                "velocity": 64,
                "duration": 0.20227272727272805,
                "tempo": 120.0
            },
            {
                "start_time": 63.143181818181816,
                "end_time": 63.345454545454544,
                "pitch": 79,
                "velocity": 64,
                "duration": 0.20227272727272805,
                "tempo": 120.0
            },
            {
                "start_time": 63.377272727272725,
                "end_time": 63.695454545454545,
                "pitch": 78,
                "velocity": 64,
                "duration": 0.3181818181818201,
                "tempo": 120.0
            },
            {
                "start_time": 63.72954545454545,
                "end_time": 64.85909090909091,
                "pitch": 76,
                "velocity": 64,
                "duration": 1.1295454545454575,
                "tempo": 120.0
            },
            {
                "start_time": 64.89090909090909,
                "end_time": 65.2090909090909,
                "pitch": 74,
                "velocity": 64,
                "duration": 0.318181818181813,
                "tempo": 120.0
            },
            {
                "start_time": 65.24318181818181,
                "end_time": 65.78636363636363,
                "pitch": 72,
                "velocity": 64,
                "duration": 0.5431818181818215,
                "tempo": 120.0
            },
            {
                "start_time": 65.81818181818181,
                "end_time": 66.02045454545454,
                "pitch": 74,
                "velocity": 64,
                "duration": 0.20227272727272805,
                "tempo": 120.0
            },
            {
                "start_time": 66.05227272727272,
                "end_time": 66.13636363636364,
                "pitch": 76,
                "velocity": 64,
                "duration": 0.08409090909091788,
                "tempo": 120.0
            },
            {
                "start_time": 66.17045454545455,
                "end_time": 66.60681818181818,
                "pitch": 74,
                "velocity": 64,
                "duration": 0.4363636363636374,
                "tempo": 120.0
            },
            {
                "start_time": 66.63863636363637,
                "end_time": 66.8340909090909,
                "pitch": 72,
                "velocity": 64,
                "duration": 0.19545454545453822,
                "tempo": 120.0
            },
            {
                "start_time": 66.86818181818181,
                "end_time": 67.06363636363636,
                "pitch": 71,
                "velocity": 64,
                "duration": 0.19545454545455243,
                "tempo": 120.0
            },
            {
                "start_time": 67.09772727272727,
                "end_time": 67.41590909090908,
                "pitch": 69,
                "velocity": 64,
                "duration": 0.318181818181813,
                "tempo": 120.0
            },
            {
                "start_time": 67.45,
                "end_time": 67.5340909090909,
                "pitch": 71,
                "velocity": 64,
                "duration": 0.08409090909090366,
                "tempo": 120.0
            },
            {
                "start_time": 67.56590909090909,
                "end_time": 68.57727272727273,
                "pitch": 67,
                "velocity": 64,
                "duration": 1.0113636363636402,
                "tempo": 120.0
            },
            {
                "start_time": 68.61136363636363,
                "end_time": 68.92954545454545,
                "pitch": 71,
                "velocity": 64,
                "duration": 0.318181818181813,
                "tempo": 120.0
            },
            {
                "start_time": 68.96363636363635,
                "end_time": 69.51363636363637,
                "pitch": 72,
                "velocity": 64,
                "duration": 0.5500000000000114,
                "tempo": 120.0
            },
            {
                "start_time": 69.54545454545455,
                "end_time": 69.74090909090908,
                "pitch": 74,
                "velocity": 64,
                "duration": 0.19545454545453822,
                "tempo": 120.0
            },
            {
                "start_time": 69.77499999999999,
                "end_time": 69.85681818181818,
                "pitch": 76,
                "velocity": 64,
                "duration": 0.08181818181819267,
                "tempo": 120.0
            },
            {
                "start_time": 69.89090909090909,
                "end_time": 70.325,
                "pitch": 74,
                "velocity": 64,
                "duration": 0.4340909090909122,
                "tempo": 120.0
            },
            {
                "start_time": 70.35909090909091,
                "end_time": 70.55909090909091,
                "pitch": 71,
                "velocity": 64,
                "duration": 0.20000000000000284,
                "tempo": 120.0
            },
            {
                "start_time": 70.59318181818182,
                "end_time": 70.79545454545455,
                "pitch": 79,
                "velocity": 64,
                "duration": 0.20227272727272805,
                "tempo": 120.0
            },
            {
                "start_time": 70.82727272727273,
                "end_time": 71.13863636363637,
                "pitch": 78,
                "velocity": 64,
                "duration": 0.3113636363636374,
                "tempo": 120.0
            },
            {
                "start_time": 71.17045454545455,
                "end_time": 72.19090909090909,
                "pitch": 76,
                "velocity": 64,
                "duration": 1.020454545454541,
                "tempo": 120.0
            },
            {
                "start_time": 72.64999999999999,
                "end_time": 72.86590909090908,
                "pitch": 67,
                "velocity": 64,
                "duration": 0.2159090909090935,
                "tempo": 120.0
            },
            {
                "start_time": 76.36818181818181,
                "end_time": 76.70454545454545,
                "pitch": 64,
                "velocity": 64,
                "duration": 0.3363636363636431,
                "tempo": 120.0
            },
            {
                "start_time": 76.72045454545454,
                "end_time": 76.82045454545454,
                "pitch": 64,
                "velocity": 64,
                "duration": 0.09999999999999432,
                "tempo": 120.0
            },
            {
                "start_time": 77.07272727272726,
                "end_time": 77.29090909090908,
                "pitch": 64,
                "velocity": 64,
                "duration": 0.2181818181818187,
                "tempo": 120.0
            },
            {
                "start_time": 77.54090909090908,
                "end_time": 77.64090909090909,
                "pitch": 62,
                "velocity": 64,
                "duration": 0.10000000000000853,
                "tempo": 120.0
            },
            {
                "start_time": 77.77499999999999,
                "end_time": 77.98863636363636,
                "pitch": 64,
                "velocity": 64,
                "duration": 0.2136363636363683,
                "tempo": 120.0
            },
            {
                "start_time": 78.23409090909091,
                "end_time": 78.56818181818181,
                "pitch": 64,
                "velocity": 64,
                "duration": 0.33409090909090366,
                "tempo": 120.0
            },
            {
                "start_time": 78.58636363636363,
                "end_time": 78.68636363636364,
                "pitch": 64,
                "velocity": 64,
                "duration": 0.10000000000000853,
                "tempo": 120.0
            },
            {
                "start_time": 78.93863636363636,
                "end_time": 79.15454545454546,
                "pitch": 64,
                "velocity": 64,
                "duration": 0.2159090909090935,
                "tempo": 120.0
            },
            {
                "start_time": 79.40681818181818,
                "end_time": 79.50681818181818,
                "pitch": 62,
                "velocity": 64,
                "duration": 0.09999999999999432,
                "tempo": 120.0
            },
            {
                "start_time": 79.64090909090909,
                "end_time": 79.85454545454544,
                "pitch": 64,
                "velocity": 64,
                "duration": 0.21363636363635408,
                "tempo": 120.0
            },
            {
                "start_time": 80.1,
                "end_time": 80.42727272727272,
                "pitch": 64,
                "velocity": 64,
                "duration": 0.32727272727272805,
                "tempo": 120.0
            },
            {
                "start_time": 80.44318181818181,
                "end_time": 80.54090909090908,
                "pitch": 64,
                "velocity": 64,
                "duration": 0.09772727272726911,
                "tempo": 120.0
            },
            {
                "start_time": 80.79318181818181,
                "end_time": 81.0090909090909,
                "pitch": 64,
                "velocity": 64,
                "duration": 0.2159090909090935,
                "tempo": 120.0
            },
            {
                "start_time": 81.26136363636363,
                "end_time": 81.36136363636363,
                "pitch": 62,
                "velocity": 64,
                "duration": 0.10000000000000853,
                "tempo": 120.0
            },
            {
                "start_time": 81.49545454545454,
                "end_time": 81.7090909090909,
                "pitch": 64,
                "velocity": 64,
                "duration": 0.2136363636363683,
                "tempo": 120.0
            },
            {
                "start_time": 81.95454545454545,
                "end_time": 82.28863636363636,
                "pitch": 64,
                "velocity": 64,
                "duration": 0.33409090909090366,
                "tempo": 120.0
            },
            {
                "start_time": 82.30454545454545,
                "end_time": 82.40681818181818,
                "pitch": 64,
                "velocity": 64,
                "duration": 0.10227272727273373,
                "tempo": 120.0
            },
            {
                "start_time": 82.65681818181818,
                "end_time": 82.875,
                "pitch": 64,
                "velocity": 64,
                "duration": 0.2181818181818187,
                "tempo": 120.0
            },
            {
                "start_time": 83.12727272727273,
                "end_time": 83.22727272727272,
                "pitch": 62,
                "velocity": 64,
                "duration": 0.09999999999999432,
                "tempo": 120.0
            },
            {
                "start_time": 83.36136363636363,
                "end_time": 83.57272727272726,
                "pitch": 64,
                "velocity": 64,
                "duration": 0.21136363636362887,
                "tempo": 120.0
            },
            {
                "start_time": 83.81818181818181,
                "end_time": 84.17045454545455,
                "pitch": 83,
                "velocity": 64,
                "duration": 0.35227272727273373,
                "tempo": 120.0
            },
            {
                "start_time": 84.20454545454545,
                "end_time": 84.52272727272727,
                "pitch": 81,
                "velocity": 64,
                "duration": 0.318181818181813,
                "tempo": 120.0
            },
            {
                "start_time": 84.55681818181817,
                "end_time": 84.75681818181818,
                "pitch": 86,
                "velocity": 64,
                "duration": 0.20000000000000284,
                "tempo": 120.0
            },
            {
                "start_time": 84.78863636363636,
                "end_time": 85.1,
                "pitch": 83,
                "velocity": 64,
                "duration": 0.3113636363636374,
                "tempo": 120.0
            },
            {
                "start_time": 85.1340909090909,
                "end_time": 85.45,
                "pitch": 81,
                "velocity": 64,
                "duration": 0.315909090909102,
                "tempo": 120.0
            },
            {
                "start_time": 85.48409090909091,
                "end_time": 85.6840909090909,
                "pitch": 79,
                "velocity": 64,
                "duration": 0.19999999999998863,
                "tempo": 120.0
            },
            {
                "start_time": 85.71818181818182,
                "end_time": 86.03636363636363,
                "pitch": 81,
                "velocity": 64,
                "duration": 0.318181818181813,
                "tempo": 120.0
            },
            {
                "start_time": 86.07045454545454,
                "end_time": 86.38863636363637,
                "pitch": 78,
                "velocity": 64,
                "duration": 0.3181818181818272,
                "tempo": 120.0
            },
            {
                "start_time": 86.42045454545455,
                "end_time": 87.07954545454545,
                "pitch": 74,
                "velocity": 64,
                "duration": 0.6590909090909065,
                "tempo": 120.0
            },
            {
                "start_time": 87.58181818181818,
                "end_time": 87.89318181818182,
                "pitch": 79,
                "velocity": 64,
                "duration": 0.3113636363636374,
                "tempo": 120.0
            },
            {
                "start_time": 87.925,
                "end_time": 88.24090909090908,
                "pitch": 78,
                "velocity": 64,
                "duration": 0.3159090909090878,
                "tempo": 120.0
            },
            {
                "start_time": 88.27499999999999,
                "end_time": 88.47727272727272,
                "pitch": 81,
                "velocity": 64,
                "duration": 0.20227272727272805,
                "tempo": 120.0
            },
            {
                "start_time": 88.5090909090909,
                "end_time": 88.82727272727273,
                "pitch": 79,
                "velocity": 64,
                "duration": 0.3181818181818272,
                "tempo": 120.0
            },
            {
                "start_time": 88.86136363636363,
                "end_time": 89.17954545454545,
                "pitch": 78,
                "velocity": 64,
                "duration": 0.318181818181813,
                "tempo": 120.0
            },
            {
                "start_time": 89.21363636363635,
                "end_time": 89.41363636363636,
                "pitch": 71,
                "velocity": 64,
                "duration": 0.20000000000000284,
                "tempo": 120.0
            },
            {
                "start_time": 89.44772727272726,
                "end_time": 89.7590909090909,
                "pitch": 76,
                "velocity": 64,
                "duration": 0.3113636363636374,
                "tempo": 120.0
            },
            {
                "start_time": 89.79090909090908,
                "end_time": 89.87272727272727,
                "pitch": 78,
                "velocity": 64,
                "duration": 0.08181818181819267,
                "tempo": 120.0
            },
            {
                "start_time": 89.90681818181818,
                "end_time": 90.8,
                "pitch": 76,
                "velocity": 64,
                "duration": 0.8931818181818159,
                "tempo": 120.0
            },
            {
                "start_time": 91.30227272727272,
                "end_time": 91.62045454545454,
                "pitch": 83,
                "velocity": 64,
                "duration": 0.318181818181813,
                "tempo": 120.0
            },
            {
                "start_time": 91.65454545454546,
                "end_time": 91.97272727272727,
                "pitch": 81,
                "velocity": 64,
                "duration": 0.318181818181813,
                "tempo": 120.0
            },
            {
                "start_time": 92.00681818181818,
                "end_time": 92.20681818181818,
                "pitch": 86,
                "velocity": 64,
                "duration": 0.20000000000000284,
                "tempo": 120.0
            },
            {
                "start_time": 92.23863636363636,
                "end_time": 92.55,
                "pitch": 83,
                "velocity": 64,
                "duration": 0.3113636363636374,
                "tempo": 120.0
            },
            {
                "start_time": 92.5840909090909,
                "end_time": 92.89999999999999,
                "pitch": 81,
                "velocity": 64,
                "duration": 0.3159090909090878,
                "tempo": 120.0
            },
            {
                "start_time": 92.9340909090909,
                "end_time": 93.1340909090909,
                "pitch": 79,
                "velocity": 64,
                "duration": 0.20000000000000284,
                "tempo": 120.0
            },
            {
                "start_time": 93.16590909090908,
                "end_time": 93.47727272727272,
                "pitch": 81,
                "velocity": 64,
                "duration": 0.3113636363636374,
                "tempo": 120.0
            },
            {
                "start_time": 93.51136363636363,
                "end_time": 93.82727272727273,
                "pitch": 78,
                "velocity": 64,
                "duration": 0.315909090909102,
                "tempo": 120.0
            },
            {
                "start_time": 93.85909090909091,
                "end_time": 94.52954545454546,
                "pitch": 74,
                "velocity": 64,
                "duration": 0.6704545454545467,
                "tempo": 120.0
            },
            {
                "start_time": 95.03181818181818,
                "end_time": 95.34318181818182,
                "pitch": 79,
                "velocity": 64,
                "duration": 0.3113636363636374,
                "tempo": 120.0
            },
            {
                "start_time": 95.375,
                "end_time": 95.69090909090909,
                "pitch": 78,
                "velocity": 64,
                "duration": 0.3159090909090878,
                "tempo": 120.0
            },
            {
                "start_time": 95.725,
                "end_time": 95.92727272727272,
                "pitch": 81,
                "velocity": 64,
                "duration": 0.20227272727272805,
                "tempo": 120.0
            },
            {
                "start_time": 95.9590909090909,
                "end_time": 96.27045454545454,
                "pitch": 79,
                "velocity": 64,
                "duration": 0.3113636363636374,
                "tempo": 120.0
            },
            {
                "start_time": 96.30227272727272,
                "end_time": 96.61818181818181,
                "pitch": 78,
                "velocity": 64,
                "duration": 0.3159090909090878,
                "tempo": 120.0
            },
            {
                "start_time": 96.65227272727272,
                "end_time": 96.73636363636363,
                "pitch": 71,
                "velocity": 64,
                "duration": 0.08409090909091788,
                "tempo": 120.0
            },
            {
                "start_time": 96.77045454545454,
                "end_time": 96.85454545454544,
                "pitch": 74,
                "velocity": 64,
                "duration": 0.08409090909090366,
                "tempo": 120.0
            },
            {
                "start_time": 96.88636363636363,
                "end_time": 97.20454545454545,
                "pitch": 78,
                "velocity": 64,
                "duration": 0.3181818181818272,
                "tempo": 120.0
            },
            {
                "start_time": 97.23863636363636,
                "end_time": 98.375,
                "pitch": 76,
                "velocity": 64,
                "duration": 1.1363636363636402,
                "tempo": 120.0
            },
            {
                "start_time": 98.40681818181818,
                "end_time": 98.70227272727273,
                "pitch": 74,
                "velocity": 64,
                "duration": 0.29545454545454675,
                "tempo": 120.0
            },
            {
                "start_time": 98.71818181818182,
                "end_time": 99.29545454545455,
                "pitch": 72,
                "velocity": 64,
                "duration": 0.577272727272728,
                "tempo": 120.0
            },
            {
                "start_time": 99.32727272727273,
                "end_time": 99.52954545454546,
                "pitch": 74,
                "velocity": 64,
                "duration": 0.20227272727272805,
                "tempo": 120.0
            },
            {
                "start_time": 99.56136363636364,
                "end_time": 99.64545454545454,
                "pitch": 76,
                "velocity": 64,
                "duration": 0.08409090909090366,
                "tempo": 120.0
            },
            {
                "start_time": 99.67954545454545,
                "end_time": 100.11590909090908,
                "pitch": 74,
                "velocity": 64,
                "duration": 0.4363636363636374,
                "tempo": 120.0
            },
            {
                "start_time": 100.14772727272727,
                "end_time": 100.34318181818182,
                "pitch": 72,
                "velocity": 64,
                "duration": 0.19545454545455243,
                "tempo": 120.0
            },
            {
                "start_time": 100.37727272727273,
                "end_time": 100.57272727272726,
                "pitch": 71,
                "velocity": 64,
                "duration": 0.19545454545453822,
                "tempo": 120.0
            },
            {
                "start_time": 100.60681818181817,
                "end_time": 100.925,
                "pitch": 69,
                "velocity": 64,
                "duration": 0.3181818181818272,
                "tempo": 120.0
            },
            {
                "start_time": 100.9590909090909,
                "end_time": 101.04318181818181,
                "pitch": 71,
                "velocity": 64,
                "duration": 0.08409090909090366,
                "tempo": 120.0
            },
            {
                "start_time": 101.07499999999999,
                "end_time": 101.97045454545454,
                "pitch": 67,
                "velocity": 64,
                "duration": 0.8954545454545553,
                "tempo": 120.0
            },
            {
                "start_time": 102.47272727272727,
                "end_time": 103.02272727272727,
                "pitch": 72,
                "velocity": 64,
                "duration": 0.5499999999999972,
                "tempo": 120.0
            },
            {
                "start_time": 103.05454545454545,
                "end_time": 103.25,
                "pitch": 74,
                "velocity": 64,
                "duration": 0.19545454545455243,
                "tempo": 120.0
            },
            {
                "start_time": 103.2840909090909,
                "end_time": 103.36590909090908,
                "pitch": 76,
                "velocity": 64,
                "duration": 0.08181818181817846,
                "tempo": 120.0
            },
            {
                "start_time": 103.39999999999999,
                "end_time": 103.8340909090909,
                "pitch": 74,
                "velocity": 64,
                "duration": 0.4340909090909122,
                "tempo": 120.0
            },
            {
                "start_time": 103.86818181818181,
                "end_time": 104.06363636363636,
                "pitch": 71,
                "velocity": 64,
                "duration": 0.19545454545455243,
                "tempo": 120.0
            },
            {
                "start_time": 104.09545454545454,
                "end_time": 104.29318181818181,
                "pitch": 79,
                "velocity": 64,
                "duration": 0.19772727272726343,
                "tempo": 120.0
            },
            {
                "start_time": 104.32727272727273,
                "end_time": 104.64545454545454,
                "pitch": 78,
                "velocity": 64,
                "duration": 0.318181818181813,
                "tempo": 120.0
            },
            {
                "start_time": 104.67727272727272,
                "end_time": 105.80681818181817,
                "pitch": 76,
                "velocity": 64,
                "duration": 1.1295454545454504,
                "tempo": 120.0
            },
            {
                "start_time": 105.83863636363635,
                "end_time": 106.15681818181818,
                "pitch": 74,
                "velocity": 64,
                "duration": 0.3181818181818272,
                "tempo": 120.0
            },
            {
                "start_time": 106.19090909090909,
                "end_time": 106.74318181818181,
                "pitch": 72,
                "velocity": 64,
                "duration": 0.5522727272727224,
                "tempo": 120.0
            },
            {
                "start_time": 106.77727272727272,
                "end_time": 106.97954545454544,
                "pitch": 74,
                "velocity": 64,
                "duration": 0.20227272727272805,
                "tempo": 120.0
            },
            {
                "start_time": 107.01136363636363,
                "end_time": 107.09545454545454,
                "pitch": 76,
                "velocity": 64,
                "duration": 0.08409090909091788,
                "tempo": 120.0
            },
            {
                "start_time": 107.12954545454545,
                "end_time": 107.55454545454545,
                "pitch": 74,
                "velocity": 64,
                "duration": 0.42499999999999716,
                "tempo": 120.0
            },
            {
                "start_time": 107.58863636363635,
                "end_time": 107.78863636363636,
                "pitch": 72,
                "velocity": 64,
                "duration": 0.20000000000000284,
                "tempo": 120.0
            },
            {
                "start_time": 107.82272727272726,
                "end_time": 108.02272727272727,
                "pitch": 71,
                "velocity": 64,
                "duration": 0.20000000000000284,
                "tempo": 120.0
            },
            {
                "start_time": 108.05681818181817,
                "end_time": 108.375,
                "pitch": 69,
                "velocity": 64,
                "duration": 0.3181818181818272,
                "tempo": 120.0
            },
            {
                "start_time": 108.4090909090909,
                "end_time": 108.49090909090908,
                "pitch": 71,
                "velocity": 64,
                "duration": 0.08181818181817846,
                "tempo": 120.0
            },
            {
                "start_time": 108.52499999999999,
                "end_time": 109.53636363636363,
                "pitch": 67,
                "velocity": 64,
                "duration": 1.0113636363636402,
                "tempo": 120.0
            },
            {
                "start_time": 109.57045454545454,
                "end_time": 109.88863636363635,
                "pitch": 71,
                "velocity": 64,
                "duration": 0.318181818181813,
                "tempo": 120.0
            },
            {
                "start_time": 109.92045454545455,
                "end_time": 110.46363636363635,
                "pitch": 72,
                "velocity": 64,
                "duration": 0.5431818181818073,
                "tempo": 120.0
            },
            {
                "start_time": 110.49772727272726,
                "end_time": 110.69772727272726,
                "pitch": 74,
                "velocity": 64,
                "duration": 0.20000000000000284,
                "tempo": 120.0
            },
            {
                "start_time": 110.73181818181817,
                "end_time": 110.81590909090909,
                "pitch": 76,
                "velocity": 64,
                "duration": 0.08409090909091788,
                "tempo": 120.0
            },
            {
                "start_time": 110.85,
                "end_time": 111.2840909090909,
                "pitch": 74,
                "velocity": 64,
                "duration": 0.4340909090909122,
                "tempo": 120.0
            },
            {
                "start_time": 111.31818181818181,
                "end_time": 111.51363636363635,
                "pitch": 71,
                "velocity": 64,
                "duration": 0.19545454545453822,
                "tempo": 120.0
            },
            {
                "start_time": 111.54545454545455,
                "end_time": 111.74318181818181,
                "pitch": 79,
                "velocity": 64,
                "duration": 0.19772727272726343,
                "tempo": 120.0
            },
            {
                "start_time": 111.77499999999999,
                "end_time": 112.09545454545454,
                "pitch": 78,
                "velocity": 64,
                "duration": 0.32045454545455243,
                "tempo": 120.0
            },
            {
                "start_time": 112.12727272727273,
                "end_time": 113.13863636363635,
                "pitch": 76,
                "velocity": 64,
                "duration": 1.011363636363626,
                "tempo": 120.0
            },
            {
                "start_time": 113.60681818181817,
                "end_time": 113.82499999999999,
                "pitch": 67,
                "velocity": 64,
                "duration": 0.2181818181818187,
                "tempo": 120.0
            }
        ]
    }
}