{
    "track_id": "Out Run (FM) - 02 - Passing Breeze",
    "mood": "happy",
    "instruments": {
        "Flute": [
            {
                "start_time": 0.015909090909090907,
                "end_time": 4.220454545454546,
                "pitch": 0,
                "velocity": 101,
                "duration": 4.204545454545455,
                "tempo": 120.0
            },
            {
                "start_time": 4.254545454545454,
                "end_time": 8.470454545454546,
                "pitch": 0,
                "velocity": 101,
                "duration": 4.215909090909092,
                "tempo": 120.0
            },
            {
                "start_time": 8.504545454545454,
                "end_time": 12.722727272727273,
                "pitch": 0,
                "velocity": 101,
                "duration": 4.218181818181819,
                "tempo": 120.0
            },
            {
                "start_time": 12.756818181818181,
                "end_time": 12.924999999999999,
                "pitch": 0,
                "velocity": 101,
                "duration": 0.168181818181818,
                "tempo": 120.0
            },
            {
                "start_time": 12.956818181818182,
                "end_time": 13.022727272727272,
                "pitch": 57,
                "velocity": 101,
                "duration": 0.06590909090908958,
                "tempo": 120.0
            },
            {
                "start_time": 13.054545454545455,
                "end_time": 13.120454545454544,
                "pitch": 0,
                "velocity": 101,
                "duration": 0.06590909090908958,
                "tempo": 120.0
            },
            {
                "start_time": 13.152272727272727,
                "end_time": 13.218181818181817,
                "pitch": 59,
                "velocity": 101,
                "duration": 0.06590909090908958,
                "tempo": 120.0
            },
            {
                "start_time": 13.252272727272727,
                "end_time": 13.318181818181818,
                "pitch": 0,
                "velocity": 101,
                "duration": 0.06590909090909136,
                "tempo": 120.0
            },
            {
                "start_time": 13.352272727272727,
                "end_time": 13.418181818181818,
                "pitch": 62,
                "velocity": 101,
                "duration": 0.06590909090909136,
                "tempo": 120.0
            },
            {
                "start_time": 13.452272727272726,
                "end_time": 13.520454545454545,
                "pitch": 0,
                "velocity": 101,
                "duration": 0.06818181818181834,
                "tempo": 120.0
            },
            {
                "start_time": 13.554545454545455,
                "end_time": 13.620454545454544,
                "pitch": 66,
                "velocity": 101,
                "duration": 0.06590909090908958,
                "tempo": 120.0
            },
            {
                "start_time": 13.654545454545454,
                "end_time": 13.722727272727273,
                "pitch": 0,
                "velocity": 101,
                "duration": 0.06818181818181834,
                "tempo": 120.0
            },
            {
                "start_time": 13.756818181818181,
                "end_time": 13.825,
                "pitch": 69,
                "velocity": 101,
                "duration": 0.06818181818181834,
                "tempo": 120.0
            },
            {
                "start_time": 13.859090909090908,
                "end_time": 13.929545454545455,
                "pitch": 0,
                "velocity": 101,
                "duration": 0.0704545454545471,
                "tempo": 120.0
            },
            {
                "start_time": 13.963636363636363,
                "end_time": 14.031818181818181,
                "pitch": 73,
                "velocity": 101,
                "duration": 0.06818181818181834,
                "tempo": 120.0
            },
            {
                "start_time": 14.063636363636363,
                "end_time": 14.129545454545454,
                "pitch": 0,
                "velocity": 101,
                "duration": 0.06590909090909136,
                "tempo": 120.0
            },
            {
                "start_time": 14.161363636363635,
                "end_time": 14.227272727272727,
                "pitch": 74,
                "velocity": 101,
                "duration": 0.06590909090909136,
                "tempo": 120.0
            },
            {
                "start_time": 14.261363636363635,
                "end_time": 14.325,
                "pitch": 0,
                "velocity": 101,
                "duration": 0.06363636363636438,
                "tempo": 120.0
            },
            {
                "start_time": 14.359090909090908,
                "end_time": 14.422727272727272,
                "pitch": 75,
                "velocity": 101,
                "duration": 0.06363636363636438,
                "tempo": 120.0
            },
            {
                "start_time": 14.45681818181818,
                "end_time": 16.036363636363635,
                "pitch": 76,
                "velocity": 101,
                "duration": 1.579545454545455,
                "tempo": 120.0
            },
            {
                "start_time": 16.070454545454545,
                "end_time": 16.33863636363636,
                "pitch": 0,
                "velocity": 101,
                "duration": 0.26818181818181586,
                "tempo": 120.0
            },
            {
                "start_time": 16.37272727272727,
                "end_time": 16.64090909090909,
                "pitch": 76,
                "velocity": 101,
                "duration": 0.2681818181818194,
                "tempo": 120.0
            },
            {
                "start_time": 16.672727272727272,
                "end_time": 16.94090909090909,
                "pitch": 68,
                "velocity": 101,
                "duration": 0.2681818181818194,
                "tempo": 120.0
            },
            {
                "start_time": 16.974999999999998,
                "end_time": 17.243181818181817,
                "pitch": 59,
                "velocity": 101,
                "duration": 0.2681818181818194,
                "tempo": 120.0
            },
            {
                "start_time": 17.277272727272727,
                "end_time": 17.543181818181818,
                "pitch": 49,
                "velocity": 101,
                "duration": 0.26590909090909065,
                "tempo": 120.0
            },
            {
                "start_time": 17.577272727272728,
                "end_time": 17.643181818181816,
                "pitch": 40,
                "velocity": 101,
                "duration": 0.06590909090908781,
                "tempo": 120.0
            },
            {
                "start_time": 17.677272727272726,
                "end_time": 18.845454545454544,
                "pitch": 76,
                "velocity": 101,
                "duration": 1.168181818181818,
                "tempo": 120.0
            },
            {
                "start_time": 18.879545454545454,
                "end_time": 19.147727272727273,
                "pitch": 73,
                "velocity": 101,
                "duration": 0.2681818181818194,
                "tempo": 120.0
            },
            {
                "start_time": 19.18181818181818,
                "end_time": 20.052272727272726,
                "pitch": 68,
                "velocity": 101,
                "duration": 0.870454545454546,
                "tempo": 120.0
            },
            {
                "start_time": 20.084090909090907,
                "end_time": 20.25681818181818,
                "pitch": 0,
                "velocity": 101,
                "duration": 0.17272727272727195,
                "tempo": 120.0
            },
            {
                "start_time": 20.29090909090909,
                "end_time": 20.461363636363636,
                "pitch": 66,
                "velocity": 101,
                "duration": 0.17045454545454675,
                "tempo": 120.0
            },
            {
                "start_time": 20.495454545454546,
                "end_time": 20.661363636363635,
                "pitch": 68,
                "velocity": 101,
                "duration": 0.16590909090908923,
                "tempo": 120.0
            },
            {
                "start_time": 20.695454545454545,
                "end_time": 20.861363636363635,
                "pitch": 69,
                "velocity": 101,
                "duration": 0.16590909090908923,
                "tempo": 120.0
            },
            {
                "start_time": 20.895454545454545,
                "end_time": 22.06590909090909,
                "pitch": 68,
                "velocity": 101,
                "duration": 1.1704545454545467,
                "tempo": 120.0
            },
            {
                "start_time": 22.097727272727273,
                "end_time": 22.36590909090909,
                "pitch": 66,
                "velocity": 101,
                "duration": 0.26818181818181586,
                "tempo": 120.0
            },
            {
                "start_time": 22.4,
                "end_time": 23.661363636363635,
                "pitch": 66,
                "velocity": 101,
                "duration": 1.2613636363636367,
                "tempo": 120.0
            },
            {
                "start_time": 23.695454545454545,
                "end_time": 24.07272727272727,
                "pitch": 0,
                "velocity": 101,
                "duration": 0.3772727272727252,
                "tempo": 120.0
            },
            {
                "start_time": 24.10681818181818,
                "end_time": 25.275,
                "pitch": 78,
                "velocity": 101,
                "duration": 1.168181818181818,
                "tempo": 120.0
            },
            {
                "start_time": 25.30909090909091,
                "end_time": 25.570454545454545,
                "pitch": 74,
                "velocity": 101,
                "duration": 0.2613636363636367,
                "tempo": 120.0
            },
            {
                "start_time": 25.602272727272727,
                "end_time": 26.870454545454542,
                "pitch": 71,
                "velocity": 101,
                "duration": 1.2681818181818159,
                "tempo": 120.0
            },
            {
                "start_time": 26.904545454545453,
                "end_time": 27.07272727272727,
                "pitch": 0,
                "velocity": 101,
                "duration": 0.168181818181818,
                "tempo": 120.0
            },
            {
                "start_time": 27.104545454545452,
                "end_time": 27.172727272727272,
                "pitch": 68,
                "velocity": 101,
                "duration": 0.06818181818182012,
                "tempo": 120.0
            },
            {
                "start_time": 27.206818181818182,
                "end_time": 27.27272727272727,
                "pitch": 69,
                "velocity": 101,
                "duration": 0.06590909090908781,
                "tempo": 120.0
            },
            {
                "start_time": 27.30681818181818,
                "end_time": 28.777272727272727,
                "pitch": 70,
                "velocity": 101,
                "duration": 1.4704545454545475,
                "tempo": 120.0
            },
            {
                "start_time": 28.80909090909091,
                "end_time": 30.081818181818182,
                "pitch": 71,
                "velocity": 101,
                "duration": 1.2727272727272734,
                "tempo": 120.0
            },
            {
                "start_time": 30.11590909090909,
                "end_time": 30.48181818181818,
                "pitch": 0,
                "velocity": 101,
                "duration": 0.36590909090909207,
                "tempo": 120.0
            },
            {
                "start_time": 30.51590909090909,
                "end_time": 31.695454545454545,
                "pitch": 76,
                "velocity": 101,
                "duration": 1.1795454545454547,
                "tempo": 120.0
            },
            {
                "start_time": 31.729545454545452,
                "end_time": 31.99090909090909,
                "pitch": 73,
                "velocity": 101,
                "duration": 0.2613636363636367,
                "tempo": 120.0
            },
            {
                "start_time": 32.02272727272727,
                "end_time": 32.888636363636365,
                "pitch": 68,
                "velocity": 101,
                "duration": 0.8659090909090921,
                "tempo": 120.0
            },
            {
                "start_time": 32.92045454545455,
                "end_time": 33.09318181818182,
                "pitch": 0,
                "velocity": 101,
                "duration": 0.17272727272727195,
                "tempo": 120.0
            },
            {
                "start_time": 33.127272727272725,
                "end_time": 33.29772727272727,
                "pitch": 66,
                "velocity": 101,
                "duration": 0.17045454545454675,
                "tempo": 120.0
            },
            {
                "start_time": 33.33181818181818,
                "end_time": 33.49772727272727,
                "pitch": 68,
                "velocity": 101,
                "duration": 0.16590909090908923,
                "tempo": 120.0
            },
            {
                "start_time": 33.53181818181818,
                "end_time": 33.69772727272727,
                "pitch": 69,
                "velocity": 101,
                "duration": 0.16590909090908923,
                "tempo": 120.0
            },
            {
                "start_time": 33.73181818181818,
                "end_time": 34.89772727272727,
                "pitch": 68,
                "velocity": 101,
                "duration": 1.1659090909090963,
                "tempo": 120.0
            },
            {
                "start_time": 34.93181818181818,
                "end_time": 35.19318181818181,
                "pitch": 66,
                "velocity": 101,
                "duration": 0.26136363636363313,
                "tempo": 120.0
            },
            {
                "start_time": 35.225,
                "end_time": 36.49318181818182,
                "pitch": 66,
                "velocity": 101,
                "duration": 1.2681818181818159,
                "tempo": 120.0
            },
            {
                "start_time": 36.527272727272724,
                "end_time": 36.904545454545456,
                "pitch": 0,
                "velocity": 101,
                "duration": 0.3772727272727323,
                "tempo": 120.0
            },
            {
                "start_time": 36.93636363636364,
                "end_time": 38.10681818181818,
                "pitch": 78,
                "velocity": 101,
                "duration": 1.1704545454545396,
                "tempo": 120.0
            },
            {
                "start_time": 38.14090909090909,
                "end_time": 38.402272727272724,
                "pitch": 74,
                "velocity": 101,
                "duration": 0.26136363636363313,
                "tempo": 120.0
            },
            {
                "start_time": 38.434090909090905,
                "end_time": 39.711363636363636,
                "pitch": 71,
                "velocity": 101,
                "duration": 1.277272727272731,
                "tempo": 120.0
            },
            {
                "start_time": 39.74545454545454,
                "end_time": 39.90909090909091,
                "pitch": 0,
                "velocity": 101,
                "duration": 0.16363636363636402,
                "tempo": 120.0
            },
            {
                "start_time": 39.94090909090909,
                "end_time": 40.00681818181818,
                "pitch": 68,
                "velocity": 101,
                "duration": 0.06590909090909491,
                "tempo": 120.0
            },
            {
                "start_time": 40.038636363636364,
                "end_time": 40.10454545454545,
                "pitch": 69,
                "velocity": 101,
                "duration": 0.06590909090908781,
                "tempo": 120.0
            },
            {
                "start_time": 40.13863636363636,
                "end_time": 41.60909090909091,
                "pitch": 70,
                "velocity": 101,
                "duration": 1.470454545454551,
                "tempo": 120.0
            },
            {
                "start_time": 41.643181818181816,
                "end_time": 42.92045454545455,
                "pitch": 71,
                "velocity": 101,
                "duration": 1.277272727272731,
                "tempo": 120.0
            },
            {
                "start_time": 42.95454545454545,
                "end_time": 43.32272727272727,
                "pitch": 0,
                "velocity": 101,
                "duration": 0.3681818181818173,
                "tempo": 120.0
            },
            {
                "start_time": 43.35681818181818,
                "end_time": 43.625,
                "pitch": 78,
                "velocity": 101,
                "duration": 0.26818181818182296,
                "tempo": 120.0
            },
            {
                "start_time": 43.65681818181818,
                "end_time": 43.725,
                "pitch": 76,
                "velocity": 101,
                "duration": 0.06818181818182012,
                "tempo": 120.0
            },
            {
                "start_time": 43.75681818181818,
                "end_time": 44.51590909090909,
                "pitch": 0,
                "velocity": 101,
                "duration": 0.7590909090909079,
                "tempo": 120.0
            },
            {
                "start_time": 44.55,
                "end_time": 44.81590909090909,
                "pitch": 78,
                "velocity": 101,
                "duration": 0.26590909090909065,
                "tempo": 120.0
            },
            {
                "start_time": 44.849999999999994,
                "end_time": 44.91590909090909,
                "pitch": 76,
                "velocity": 101,
                "duration": 0.06590909090909491,
                "tempo": 120.0
            },
            {
                "start_time": 44.949999999999996,
                "end_time": 45.71818181818182,
                "pitch": 0,
                "velocity": 101,
                "duration": 0.768181818181823,
                "tempo": 120.0
            },
            {
                "start_time": 45.752272727272725,
                "end_time": 46.018181818181816,
                "pitch": 81,
                "velocity": 101,
                "duration": 0.26590909090909065,
                "tempo": 120.0
            },
            {
                "start_time": 46.05227272727272,
                "end_time": 46.11818181818182,
                "pitch": 80,
                "velocity": 101,
                "duration": 0.06590909090909491,
                "tempo": 120.0
            },
            {
                "start_time": 46.152272727272724,
                "end_time": 46.32272727272727,
                "pitch": 0,
                "velocity": 101,
                "duration": 0.17045454545454675,
                "tempo": 120.0
            },
            {
                "start_time": 46.35681818181818,
                "end_time": 48.934090909090905,
                "pitch": 76,
                "velocity": 101,
                "duration": 2.577272727272728,
                "tempo": 120.0
            },
            {
                "start_time": 48.96818181818182,
                "end_time": 49.13181818181818,
                "pitch": 74,
                "velocity": 101,
                "duration": 0.16363636363636402,
                "tempo": 120.0
            },
            {
                "start_time": 49.163636363636364,
                "end_time": 49.32727272727273,
                "pitch": 73,
                "velocity": 101,
                "duration": 0.16363636363636402,
                "tempo": 120.0
            },
            {
                "start_time": 49.361363636363635,
                "end_time": 49.42727272727272,
                "pitch": 71,
                "velocity": 101,
                "duration": 0.06590909090908781,
                "tempo": 120.0
            },
            {
                "start_time": 49.461363636363636,
                "end_time": 49.72954545454545,
                "pitch": 73,
                "velocity": 101,
                "duration": 0.26818181818181586,
                "tempo": 120.0
            },
            {
                "start_time": 49.76363636363636,
                "end_time": 50.02954545454545,
                "pitch": 78,
                "velocity": 101,
                "duration": 0.26590909090909065,
                "tempo": 120.0
            },
            {
                "start_time": 50.06363636363636,
                "end_time": 50.12954545454545,
                "pitch": 76,
                "velocity": 101,
                "duration": 0.06590909090908781,
                "tempo": 120.0
            },
            {
                "start_time": 50.163636363636364,
                "end_time": 50.929545454545455,
                "pitch": 0,
                "velocity": 101,
                "duration": 0.7659090909090907,
                "tempo": 120.0
            },
            {
                "start_time": 50.96363636363636,
                "end_time": 51.22954545454545,
                "pitch": 78,
                "velocity": 101,
                "duration": 0.26590909090909065,
                "tempo": 120.0
            },
            {
                "start_time": 51.26363636363636,
                "end_time": 51.32954545454545,
                "pitch": 76,
                "velocity": 101,
                "duration": 0.06590909090909491,
                "tempo": 120.0
            },
            {
                "start_time": 51.36363636363636,
                "end_time": 52.13181818181818,
                "pitch": 0,
                "velocity": 101,
                "duration": 0.768181818181823,
                "tempo": 120.0
            },
            {
                "start_time": 52.16590909090909,
                "end_time": 52.43181818181818,
                "pitch": 81,
                "velocity": 101,
                "duration": 0.26590909090909065,
                "tempo": 120.0
            },
            {
                "start_time": 52.465909090909086,
                "end_time": 52.53181818181818,
                "pitch": 80,
                "velocity": 101,
                "duration": 0.06590909090909491,
                "tempo": 120.0
            },
            {
                "start_time": 52.56590909090909,
                "end_time": 52.736363636363635,
                "pitch": 0,
                "velocity": 101,
                "duration": 0.17045454545454675,
                "tempo": 120.0
            },
            {
                "start_time": 52.77045454545454,
                "end_time": 54.445454545454545,
                "pitch": 76,
                "velocity": 101,
                "duration": 1.6750000000000043,
                "tempo": 120.0
            },
            {
                "start_time": 54.47954545454545,
                "end_time": 56.143181818181816,
                "pitch": 85,
                "velocity": 101,
                "duration": 1.663636363636364,
                "tempo": 120.0
            },
            {
                "start_time": 56.17727272727272,
                "end_time": 56.44318181818181,
                "pitch": 78,
                "velocity": 101,
                "duration": 0.26590909090909065,
                "tempo": 120.0
            },
            {
                "start_time": 56.47727272727273,
                "end_time": 56.543181818181814,
                "pitch": 76,
                "velocity": 101,
                "duration": 0.06590909090908781,
                "tempo": 120.0
            },
            {
                "start_time": 56.57727272727273,
                "end_time": 57.345454545454544,
                "pitch": 0,
                "velocity": 101,
                "duration": 0.7681818181818159,
                "tempo": 120.0
            },
            {
                "start_time": 57.37954545454545,
                "end_time": 57.64772727272727,
                "pitch": 78,
                "velocity": 101,
                "duration": 0.26818181818182296,
                "tempo": 120.0
            },
            {
                "start_time": 57.68181818181818,
                "end_time": 57.75,
                "pitch": 76,
                "velocity": 101,
                "duration": 0.06818181818182012,
                "tempo": 120.0
            },
            {
                "start_time": 57.78181818181818,
                "end_time": 58.55,
                "pitch": 0,
                "velocity": 101,
                "duration": 0.7681818181818159,
                "tempo": 120.0
            },
            {
                "start_time": 58.58181818181818,
                "end_time": 58.849999999999994,
                "pitch": 81,
                "velocity": 101,
                "duration": 0.26818181818181586,
                "tempo": 120.0
            },
            {
                "start_time": 58.881818181818176,
                "end_time": 58.949999999999996,
                "pitch": 80,
                "velocity": 101,
                "duration": 0.06818181818182012,
                "tempo": 120.0
            },
            {
                "start_time": 58.98181818181818,
                "end_time": 59.15454545454545,
                "pitch": 0,
                "velocity": 101,
                "duration": 0.17272727272727195,
                "tempo": 120.0
            },
            {
                "start_time": 59.18863636363636,
                "end_time": 61.76590909090909,
                "pitch": 76,
                "velocity": 101,
                "duration": 2.577272727272728,
                "tempo": 120.0
            },
            {
                "start_time": 61.79772727272727,
                "end_time": 61.961363636363636,
                "pitch": 74,
                "velocity": 101,
                "duration": 0.16363636363636402,
                "tempo": 120.0
            },
            {
                "start_time": 61.99545454545454,
                "end_time": 62.15681818181818,
                "pitch": 73,
                "velocity": 101,
                "duration": 0.16136363636363882,
                "tempo": 120.0
            },
            {
                "start_time": 62.19090909090909,
                "end_time": 62.256818181818176,
                "pitch": 71,
                "velocity": 101,
                "duration": 0.06590909090908781,
                "tempo": 120.0
            },
            {
                "start_time": 62.29090909090909,
                "end_time": 62.55681818181818,
                "pitch": 73,
                "velocity": 101,
                "duration": 0.26590909090909065,
                "tempo": 120.0
            },
            {
                "start_time": 62.590909090909086,
                "end_time": 62.85681818181818,
                "pitch": 78,
                "velocity": 101,
                "duration": 0.26590909090909065,
                "tempo": 120.0
            },
            {
                "start_time": 62.89090909090909,
                "end_time": 62.95681818181818,
                "pitch": 76,
                "velocity": 101,
                "duration": 0.06590909090908781,
                "tempo": 120.0
            },
            {
                "start_time": 62.990909090909085,
                "end_time": 63.75909090909091,
                "pitch": 0,
                "velocity": 101,
                "duration": 0.768181818181823,
                "tempo": 120.0
            },
            {
                "start_time": 63.793181818181814,
                "end_time": 64.05909090909091,
                "pitch": 78,
                "velocity": 101,
                "duration": 0.26590909090909776,
                "tempo": 120.0
            },
            {
                "start_time": 64.09318181818182,
                "end_time": 64.1590909090909,
                "pitch": 76,
                "velocity": 101,
                "duration": 0.06590909090908781,
                "tempo": 120.0
            },
            {
                "start_time": 64.19318181818181,
                "end_time": 64.96363636363635,
                "pitch": 0,
                "velocity": 101,
                "duration": 0.7704545454545411,
                "tempo": 120.0
            },
            {
                "start_time": 64.99545454545454,
                "end_time": 65.26363636363637,
                "pitch": 81,
                "velocity": 101,
                "duration": 0.26818181818183007,
                "tempo": 120.0
            },
            {
                "start_time": 65.29545454545455,
                "end_time": 65.36363636363636,
                "pitch": 80,
                "velocity": 101,
                "duration": 0.06818181818181301,
                "tempo": 120.0
            },
            {
                "start_time": 65.39772727272727,
                "end_time": 65.56818181818181,
                "pitch": 0,
                "velocity": 101,
                "duration": 0.17045454545454675,
                "tempo": 120.0
            },
            {
                "start_time": 65.60227272727272,
                "end_time": 67.17727272727272,
                "pitch": 85,
                "velocity": 101,
                "duration": 1.5750000000000028,
                "tempo": 120.0
            },
            {
                "start_time": 67.21136363636363,
                "end_time": 67.27954545454546,
                "pitch": 83,
                "velocity": 101,
                "duration": 0.06818181818182723,
                "tempo": 120.0
            },
            {
                "start_time": 67.31363636363636,
                "end_time": 67.38181818181818,
                "pitch": 81,
                "velocity": 101,
                "duration": 0.06818181818181301,
                "tempo": 120.0
            },
            {
                "start_time": 67.41363636363636,
                "end_time": 68.175,
                "pitch": 80,
                "velocity": 101,
                "duration": 0.7613636363636402,
                "tempo": 120.0
            },
            {
                "start_time": 68.20681818181818,
                "end_time": 68.47727272727272,
                "pitch": 81,
                "velocity": 101,
                "duration": 0.27045454545454106,
                "tempo": 120.0
            },
            {
                "start_time": 68.5090909090909,
                "end_time": 68.77272727272727,
                "pitch": 80,
                "velocity": 101,
                "duration": 0.26363636363636545,
                "tempo": 120.0
            },
            {
                "start_time": 68.80681818181817,
                "end_time": 70.48181818181818,
                "pitch": 78,
                "velocity": 101,
                "duration": 1.6750000000000114,
                "tempo": 120.0
            },
            {
                "start_time": 70.51590909090909,
                "end_time": 71.79090909090908,
                "pitch": 80,
                "velocity": 101,
                "duration": 1.2749999999999915,
                "tempo": 120.0
            },
            {
                "start_time": 71.82272727272726,
                "end_time": 72.0840909090909,
                "pitch": 76,
                "velocity": 101,
                "duration": 0.26136363636364024,
                "tempo": 120.0
            },
            {
                "start_time": 72.11818181818181,
                "end_time": 74.5909090909091,
                "pitch": 78,
                "velocity": 101,
                "duration": 2.4727272727272833,
                "tempo": 120.0
            },
            {
                "start_time": 74.625,
                "end_time": 74.89318181818182,
                "pitch": 81,
                "velocity": 101,
                "duration": 0.26818181818181586,
                "tempo": 120.0
            },
            {
                "start_time": 74.92727272727272,
                "end_time": 75.2,
                "pitch": 80,
                "velocity": 101,
                "duration": 0.2727272727272805,
                "tempo": 120.0
            },
            {
                "start_time": 75.23409090909091,
                "end_time": 75.30227272727272,
                "pitch": 78,
                "velocity": 101,
                "duration": 0.06818181818181301,
                "tempo": 120.0
            },
            {
                "start_time": 75.33636363636363,
                "end_time": 75.40454545454546,
                "pitch": 76,
                "velocity": 101,
                "duration": 0.06818181818182723,
                "tempo": 120.0
            },
            {
                "start_time": 75.43863636363636,
                "end_time": 76.2090909090909,
                "pitch": 78,
                "velocity": 101,
                "duration": 0.7704545454545411,
                "tempo": 120.0
            },
            {
                "start_time": 76.24090909090908,
                "end_time": 76.4090909090909,
                "pitch": 0,
                "velocity": 101,
                "duration": 0.16818181818182154,
                "tempo": 120.0
            },
            {
                "start_time": 76.44318181818181,
                "end_time": 76.81136363636364,
                "pitch": 81,
                "velocity": 101,
                "duration": 0.3681818181818244,
                "tempo": 120.0
            },
            {
                "start_time": 76.84545454545454,
                "end_time": 77.01363636363637,
                "pitch": 83,
                "velocity": 101,
                "duration": 0.16818181818182154,
                "tempo": 120.0
            },
            {
                "start_time": 77.04772727272727,
                "end_time": 77.81590909090909,
                "pitch": 80,
                "velocity": 101,
                "duration": 0.7681818181818159,
                "tempo": 120.0
            },
            {
                "start_time": 77.85,
                "end_time": 78.2159090909091,
                "pitch": 78,
                "velocity": 101,
                "duration": 0.3659090909090992,
                "tempo": 120.0
            },
            {
                "start_time": 78.25,
                "end_time": 78.61818181818181,
                "pitch": 76,
                "velocity": 101,
                "duration": 0.36818181818181017,
                "tempo": 120.0
            },
            {
                "start_time": 78.65227272727272,
                "end_time": 81.02954545454546,
                "pitch": 78,
                "velocity": 101,
                "duration": 2.3772727272727394,
                "tempo": 120.0
            },
            {
                "start_time": 81.06363636363636,
                "end_time": 81.32954545454545,
                "pitch": 81,
                "velocity": 101,
                "duration": 0.26590909090909065,
                "tempo": 120.0
            },
            {
                "start_time": 81.36363636363636,
                "end_time": 81.63181818181818,
                "pitch": 80,
                "velocity": 101,
                "duration": 0.26818181818181586,
                "tempo": 120.0
            },
            {
                "start_time": 81.66363636363636,
                "end_time": 81.73181818181818,
                "pitch": 78,
                "velocity": 101,
                "duration": 0.06818181818182723,
                "tempo": 120.0
            },
            {
                "start_time": 81.76590909090909,
                "end_time": 81.83181818181818,
                "pitch": 76,
                "velocity": 101,
                "duration": 0.06590909090908781,
                "tempo": 120.0
            },
            {
                "start_time": 81.86590909090908,
                "end_time": 82.6340909090909,
                "pitch": 78,
                "velocity": 101,
                "duration": 0.7681818181818159,
                "tempo": 120.0
            },
            {
                "start_time": 82.66818181818181,
                "end_time": 82.83636363636363,
                "pitch": 0,
                "velocity": 101,
                "duration": 0.16818181818182154,
                "tempo": 120.0
            },
            {
                "start_time": 82.87045454545454,
                "end_time": 83.23863636363636,
                "pitch": 80,
                "velocity": 101,
                "duration": 0.3681818181818244,
                "tempo": 120.0
            },
            {
                "start_time": 83.27045454545454,
                "end_time": 83.43863636363636,
                "pitch": 81,
                "velocity": 101,
                "duration": 0.16818181818182154,
                "tempo": 120.0
            },
            {
                "start_time": 83.47045454545454,
                "end_time": 84.24090909090908,
                "pitch": 83,
                "velocity": 101,
                "duration": 0.7704545454545411,
                "tempo": 120.0
            },
            {
                "start_time": 84.27272727272727,
                "end_time": 84.3409090909091,
                "pitch": 83,
                "velocity": 101,
                "duration": 0.06818181818182723,
                "tempo": 120.0
            },
            {
                "start_time": 84.375,
                "end_time": 84.64318181818182,
                "pitch": 85,
                "velocity": 101,
                "duration": 0.26818181818181586,
                "tempo": 120.0
            },
            {
                "start_time": 84.67727272727272,
                "end_time": 85.04545454545455,
                "pitch": 88,
                "velocity": 101,
                "duration": 0.3681818181818244,
                "tempo": 120.0
            },
            {
                "start_time": 85.07954545454545,
                "end_time": 88.25681818181818,
                "pitch": 90,
                "velocity": 101,
                "duration": 3.1772727272727224,
                "tempo": 120.0
            },
            {
                "start_time": 88.29090909090908,
                "end_time": 88.45681818181818,
                "pitch": 93,
                "velocity": 101,
                "duration": 0.16590909090909634,
                "tempo": 120.0
            },
            {
                "start_time": 88.49090909090908,
                "end_time": 88.5590909090909,
                "pitch": 92,
                "velocity": 101,
                "duration": 0.06818181818181301,
                "tempo": 120.0
            },
            {
                "start_time": 88.5909090909091,
                "end_time": 88.6590909090909,
                "pitch": 90,
                "velocity": 101,
                "duration": 0.06818181818181301,
                "tempo": 120.0
            },
            {
                "start_time": 88.69318181818181,
                "end_time": 88.86136363636363,
                "pitch": 93,
                "velocity": 101,
                "duration": 0.16818181818182154,
                "tempo": 120.0
            },
            {
                "start_time": 88.89318181818182,
                "end_time": 88.96136363636363,
                "pitch": 92,
                "velocity": 101,
                "duration": 0.06818181818181301,
                "tempo": 120.0
            },
            {
                "start_time": 88.99545454545454,
                "end_time": 89.06136363636364,
                "pitch": 90,
                "velocity": 101,
                "duration": 0.06590909090910202,
                "tempo": 120.0
            },
            {
                "start_time": 89.09545454545454,
                "end_time": 89.26136363636363,
                "pitch": 93,
                "velocity": 101,
                "duration": 0.16590909090908212,
                "tempo": 120.0
            },
            {
                "start_time": 89.29545454545455,
                "end_time": 89.36136363636363,
                "pitch": 92,
                "velocity": 101,
                "duration": 0.06590909090908781,
                "tempo": 120.0
            },
            {
                "start_time": 89.39545454545454,
                "end_time": 89.46136363636363,
                "pitch": 90,
                "velocity": 101,
                "duration": 0.06590909090908781,
                "tempo": 120.0
            },
            {
                "start_time": 89.49545454545454,
                "end_time": 89.66363636363636,
                "pitch": 93,
                "velocity": 101,
                "duration": 0.16818181818182154,
                "tempo": 120.0
            },
            {
                "start_time": 89.69545454545454,
                "end_time": 89.76363636363637,
                "pitch": 92,
                "velocity": 101,
                "duration": 0.06818181818182723,
                "tempo": 120.0
            },
            {
                "start_time": 89.79772727272727,
                "end_time": 89.86363636363636,
                "pitch": 90,
                "velocity": 101,
                "duration": 0.06590909090908781,
                "tempo": 120.0
            },
            {
                "start_time": 89.89772727272727,
                "end_time": 90.06363636363636,
                "pitch": 93,
                "velocity": 101,
                "duration": 0.16590909090909634,
                "tempo": 120.0
            },
            {
                "start_time": 90.09772727272727,
                "end_time": 90.16363636363636,
                "pitch": 92,
                "velocity": 101,
                "duration": 0.06590909090908781,
                "tempo": 120.0
            },
            {
                "start_time": 90.19772727272726,
                "end_time": 90.26363636363637,
                "pitch": 90,
                "velocity": 101,
                "duration": 0.06590909090910202,
                "tempo": 120.0
            },
            {
                "start_time": 90.29772727272727,
                "end_time": 90.4659090909091,
                "pitch": 93,
                "velocity": 101,
                "duration": 0.16818181818182154,
                "tempo": 120.0
            },
            {
                "start_time": 90.5,
                "end_time": 90.56590909090909,
                "pitch": 92,
                "velocity": 101,
                "duration": 0.06590909090908781,
                "tempo": 120.0
            },
            {
                "start_time": 90.6,
                "end_time": 90.66590909090908,
                "pitch": 90,
                "velocity": 101,
                "duration": 0.06590909090908781,
                "tempo": 120.0
            },
            {
                "start_time": 90.69999999999999,
                "end_time": 90.86818181818181,
                "pitch": 93,
                "velocity": 101,
                "duration": 0.16818181818182154,
                "tempo": 120.0
            },
            {
                "start_time": 90.90227272727272,
                "end_time": 90.96818181818182,
                "pitch": 92,
                "velocity": 101,
                "duration": 0.06590909090910202,
                "tempo": 120.0
            },
            {
                "start_time": 91.00227272727273,
                "end_time": 91.07045454545454,
                "pitch": 90,
                "velocity": 101,
                "duration": 0.06818181818181301,
                "tempo": 120.0
            },
            {
                "start_time": 91.10227272727272,
                "end_time": 91.17045454545455,
                "pitch": 93,
                "velocity": 101,
                "duration": 0.06818181818182723,
                "tempo": 120.0
            },
            {
                "start_time": 91.20227272727273,
                "end_time": 91.47045454545454,
                "pitch": 95,
                "velocity": 101,
                "duration": 0.26818181818181586,
                "tempo": 120.0
            },
            {
                "start_time": 91.50227272727273,
                "end_time": 91.67045454545455,
                "pitch": 93,
                "velocity": 101,
                "duration": 0.16818181818182154,
                "tempo": 120.0
            },
            {
                "start_time": 91.70454545454545,
                "end_time": 91.77272727272727,
                "pitch": 92,
                "velocity": 101,
                "duration": 0.06818181818181301,
                "tempo": 120.0
            },
            {
                "start_time": 91.80454545454545,
                "end_time": 94.17954545454545,
                "pitch": 90,
                "velocity": 101,
                "duration": 2.375,
                "tempo": 120.0
            },
            {
                "start_time": 94.21363636363635,
                "end_time": 94.48181818181818,
                "pitch": 88,
                "velocity": 101,
                "duration": 0.26818181818183007,
                "tempo": 120.0
            },
            {
                "start_time": 94.51590909090909,
                "end_time": 94.6840909090909,
                "pitch": 85,
                "velocity": 101,
                "duration": 0.16818181818180733,
                "tempo": 120.0
            },
            {
                "start_time": 94.71590909090908,
                "end_time": 95.08636363636363,
                "pitch": 83,
                "velocity": 101,
                "duration": 0.3704545454545496,
                "tempo": 120.0
            },
            {
                "start_time": 95.11818181818181,
                "end_time": 95.28636363636363,
                "pitch": 85,
                "velocity": 101,
                "duration": 0.16818181818182154,
                "tempo": 120.0
            },
            {
                "start_time": 95.31818181818181,
                "end_time": 95.88863636363637,
                "pitch": 81,
                "velocity": 101,
                "duration": 0.5704545454545524,
                "tempo": 120.0
            },
            {
                "start_time": 95.92272727272727,
                "end_time": 96.08863636363635,
                "pitch": 78,
                "velocity": 101,
                "duration": 0.16590909090908212,
                "tempo": 120.0
            },
            {
                "start_time": 96.12272727272727,
                "end_time": 96.28863636363636,
                "pitch": 81,
                "velocity": 101,
                "duration": 0.16590909090908212,
                "tempo": 120.0
            },
            {
                "start_time": 96.32272727272726,
                "end_time": 97.09318181818182,
                "pitch": 83,
                "velocity": 101,
                "duration": 0.7704545454545553,
                "tempo": 120.0
            },
            {
                "start_time": 97.12727272727273,
                "end_time": 97.29318181818181,
                "pitch": 81,
                "velocity": 101,
                "duration": 0.16590909090908212,
                "tempo": 120.0
            },
            {
                "start_time": 97.32727272727273,
                "end_time": 97.69545454545454,
                "pitch": 80,
                "velocity": 101,
                "duration": 0.36818181818181017,
                "tempo": 120.0
            },
            {
                "start_time": 97.72954545454544,
                "end_time": 97.79545454545455,
                "pitch": 78,
                "velocity": 101,
                "duration": 0.06590909090910202,
                "tempo": 120.0
            },
            {
                "start_time": 97.82954545454545,
                "end_time": 97.89545454545454,
                "pitch": 76,
                "velocity": 101,
                "duration": 0.06590909090908781,
                "tempo": 120.0
            },
            {
                "start_time": 97.92954545454545,
                "end_time": 99.50227272727273,
                "pitch": 78,
                "velocity": 101,
                "duration": 1.5727272727272776,
                "tempo": 120.0
            },
            {
                "start_time": 99.5340909090909,
                "end_time": 101.10909090909091,
                "pitch": 0,
                "velocity": 101,
                "duration": 1.5750000000000028,
                "tempo": 120.0
            },
            {
                "start_time": 101.14318181818182,
                "end_time": 102.31363636363636,
                "pitch": 76,
                "velocity": 101,
                "duration": 1.1704545454545467,
                "tempo": 120.0
            },
            {
                "start_time": 102.34545454545454,
                "end_time": 102.62045454545454,
                "pitch": 73,
                "velocity": 101,
                "duration": 0.2749999999999915,
                "tempo": 120.0
            },
            {
                "start_time": 102.65454545454546,
                "end_time": 103.52499999999999,
                "pitch": 68,
                "velocity": 101,
                "duration": 0.8704545454545354,
                "tempo": 120.0
            },
            {
                "start_time": 103.5590909090909,
                "end_time": 103.72727272727272,
                "pitch": 0,
                "velocity": 101,
                "duration": 0.16818181818182154,
                "tempo": 120.0
            },
            {
                "start_time": 103.7590909090909,
                "end_time": 103.92727272727272,
                "pitch": 66,
                "velocity": 101,
                "duration": 0.16818181818182154,
                "tempo": 120.0
            },
            {
                "start_time": 103.9590909090909,
                "end_time": 104.12727272727273,
                "pitch": 68,
                "velocity": 101,
                "duration": 0.16818181818182154,
                "tempo": 120.0
            },
            {
                "start_time": 104.16136363636363,
                "end_time": 104.32954545454545,
                "pitch": 69,
                "velocity": 101,
                "duration": 0.16818181818182154,
                "tempo": 120.0
            },
            {
                "start_time": 104.36363636363636,
                "end_time": 105.52499999999999,
                "pitch": 68,
                "velocity": 101,
                "duration": 1.1613636363636317,
                "tempo": 120.0
            },
            {
                "start_time": 105.55681818181817,
                "end_time": 105.82499999999999,
                "pitch": 66,
                "velocity": 101,
                "duration": 0.26818181818181586,
                "tempo": 120.0
            },
            {
                "start_time": 105.85909090909091,
                "end_time": 107.12954545454545,
                "pitch": 66,
                "velocity": 101,
                "duration": 1.270454545454541,
                "tempo": 120.0
            },
            {
                "start_time": 107.16363636363636,
                "end_time": 107.52954545454546,
                "pitch": 0,
                "velocity": 101,
                "duration": 0.3659090909090992,
                "tempo": 120.0
            },
            {
                "start_time": 107.56363636363636,
                "end_time": 108.73636363636363,
                "pitch": 78,
                "velocity": 101,
                "duration": 1.172727272727272,
                "tempo": 120.0
            },
            {
                "start_time": 108.76818181818182,
                "end_time": 109.04318181818181,
                "pitch": 74,
                "velocity": 101,
                "duration": 0.2749999999999915,
                "tempo": 120.0
            },
            {
                "start_time": 109.07727272727273,
                "end_time": 110.34090909090908,
                "pitch": 71,
                "velocity": 101,
                "duration": 1.2636363636363512,
                "tempo": 120.0
            },
            {
                "start_time": 110.375,
                "end_time": 110.54545454545455,
                "pitch": 0,
                "velocity": 101,
                "duration": 0.17045454545454675,
                "tempo": 120.0
            },
            {
                "start_time": 110.57954545454545,
                "end_time": 110.64772727272727,
                "pitch": 68,
                "velocity": 101,
                "duration": 0.06818181818181301,
                "tempo": 120.0
            },
            {
                "start_time": 110.68181818181817,
                "end_time": 110.75,
                "pitch": 69,
                "velocity": 101,
                "duration": 0.06818181818182723,
                "tempo": 120.0
            },
            {
                "start_time": 110.7840909090909,
                "end_time": 112.25454545454545,
                "pitch": 70,
                "velocity": 101,
                "duration": 1.470454545454544,
                "tempo": 120.0
            },
            {
                "start_time": 112.28863636363636,
                "end_time": 113.55227272727272,
                "pitch": 71,
                "velocity": 101,
                "duration": 1.2636363636363654,
                "tempo": 120.0
            },
            {
                "start_time": 113.58636363636363,
                "end_time": 113.96136363636363,
                "pitch": 0,
                "velocity": 101,
                "duration": 0.375,
                "tempo": 120.0
            },
            {
                "start_time": 113.99545454545454,
                "end_time": 115.16818181818181,
                "pitch": 76,
                "velocity": 101,
                "duration": 1.172727272727272,
                "tempo": 120.0
            },
            {
                "start_time": 115.20227272727273,
                "end_time": 115.47045454545454,
                "pitch": 73,
                "velocity": 101,
                "duration": 0.26818181818181586,
                "tempo": 120.0
            },
            {
                "start_time": 115.50454545454545,
                "end_time": 116.36363636363636,
                "pitch": 68,
                "velocity": 101,
                "duration": 0.8590909090909093,
                "tempo": 120.0
            },
            {
                "start_time": 116.39545454545454,
                "end_time": 116.56818181818181,
                "pitch": 0,
                "velocity": 101,
                "duration": 0.17272727272727195,
                "tempo": 120.0
            },
            {
                "start_time": 116.60227272727272,
                "end_time": 116.77272727272727,
                "pitch": 66,
                "velocity": 101,
                "duration": 0.17045454545454675,
                "tempo": 120.0
            },
            {
                "start_time": 116.80681818181817,
                "end_time": 116.97045454545454,
                "pitch": 68,
                "velocity": 101,
                "duration": 0.16363636363637113,
                "tempo": 120.0
            },
            {
                "start_time": 117.00227272727273,
                "end_time": 117.16590909090908,
                "pitch": 69,
                "velocity": 101,
                "duration": 0.16363636363635692,
                "tempo": 120.0
            },
            {
                "start_time": 117.19999999999999,
                "end_time": 118.37954545454545,
                "pitch": 68,
                "velocity": 101,
                "duration": 1.1795454545454618,
                "tempo": 120.0
            },
            {
                "start_time": 118.41136363636363,
                "end_time": 118.67272727272727,
                "pitch": 66,
                "velocity": 101,
                "duration": 0.26136363636364024,
                "tempo": 120.0
            },
            {
                "start_time": 118.70681818181818,
                "end_time": 119.97727272727272,
                "pitch": 66,
                "velocity": 101,
                "duration": 1.270454545454541,
                "tempo": 120.0
            },
            {
                "start_time": 120.0090909090909,
                "end_time": 120.37727272727273,
                "pitch": 0,
                "velocity": 101,
                "duration": 0.3681818181818244,
                "tempo": 120.0
            },
            {
                "start_time": 120.41136363636363,
                "end_time": 121.59090909090908,
                "pitch": 78,
                "velocity": 101,
                "duration": 1.1795454545454476,
                "tempo": 120.0
            },
            {
                "start_time": 121.62272727272726,
                "end_time": 121.8840909090909,
                "pitch": 74,
                "velocity": 101,
                "duration": 0.26136363636364024,
                "tempo": 120.0
            },
            {
                "start_time": 121.91818181818181,
                "end_time": 123.18863636363636,
                "pitch": 71,
                "velocity": 101,
                "duration": 1.2704545454545553,
                "tempo": 120.0
            },
            {
                "start_time": 123.22045454545454,
                "end_time": 123.39318181818182,
                "pitch": 0,
                "velocity": 101,
                "duration": 0.17272727272727195,
                "tempo": 120.0
            },
            {
                "start_time": 123.42727272727272,
                "end_time": 123.49545454545454,
                "pitch": 68,
                "velocity": 101,
                "duration": 0.06818181818181301,
                "tempo": 120.0
            },
            {
                "start_time": 123.52954545454544,
                "end_time": 123.59772727272727,
                "pitch": 69,
                "velocity": 101,
                "duration": 0.06818181818182723,
                "tempo": 120.0
            },
            {
                "start_time": 123.63181818181818,
                "end_time": 125.09545454545454,
                "pitch": 70,
                "velocity": 101,
                "duration": 1.4636363636363683,
                "tempo": 120.0
            },
            {
                "start_time": 125.12954545454545,
                "end_time": 126.4090909090909,
                "pitch": 71,
                "velocity": 101,
                "duration": 1.279545454545456,
                "tempo": 120.0
            },
            {
                "start_time": 126.44318181818181,
                "end_time": 126.81363636363636,
                "pitch": 0,
                "velocity": 101,
                "duration": 0.3704545454545496,
                "tempo": 120.0
            },
            {
                "start_time": 126.84545454545454,
                "end_time": 127.11363636363636,
                "pitch": 78,
                "velocity": 101,
                "duration": 0.26818181818181586,
                "tempo": 120.0
            },
            {
                "start_time": 127.14545454545454,
                "end_time": 127.21363636363635,
                "pitch": 76,
                "velocity": 101,
                "duration": 0.06818181818181301,
                "tempo": 120.0
            },
            {
                "start_time": 127.24545454545454,
                "end_time": 128.00681818181818,
                "pitch": 0,
                "velocity": 101,
                "duration": 0.7613636363636402,
                "tempo": 120.0
            },
            {
                "start_time": 128.04090909090908,
                "end_time": 128.3068181818182,
                "pitch": 78,
                "velocity": 101,
                "duration": 0.26590909090910486,
                "tempo": 120.0
            },
            {
                "start_time": 128.3409090909091,
                "end_time": 128.40681818181818,
                "pitch": 76,
                "velocity": 101,
                "duration": 0.06590909090908781,
                "tempo": 120.0
            },
            {
                "start_time": 128.4409090909091,
                "end_time": 129.21363636363637,
                "pitch": 0,
                "velocity": 101,
                "duration": 0.7727272727272805,
                "tempo": 120.0
            },
            {
                "start_time": 129.24545454545455,
                "end_time": 129.51590909090908,
                "pitch": 81,
                "velocity": 101,
                "duration": 0.27045454545452685,
                "tempo": 120.0
            },
            {
                "start_time": 129.54772727272726,
                "end_time": 129.61590909090907,
                "pitch": 80,
                "velocity": 101,
                "duration": 0.06818181818181301,
                "tempo": 120.0
            },
            {
                "start_time": 129.65,
                "end_time": 129.82045454545454,
                "pitch": 0,
                "velocity": 101,
                "duration": 0.17045454545453254,
                "tempo": 120.0
            },
            {
                "start_time": 129.85454545454544,
                "end_time": 132.43636363636364,
                "pitch": 76,
                "velocity": 101,
                "duration": 2.5818181818181927,
                "tempo": 120.0
            },
            {
                "start_time": 132.47045454545454,
                "end_time": 132.6340909090909,
                "pitch": 74,
                "velocity": 101,
                "duration": 0.16363636363635692,
                "tempo": 120.0
            },
            {
                "start_time": 132.66590909090908,
                "end_time": 132.82954545454544,
                "pitch": 73,
                "velocity": 101,
                "duration": 0.16363636363635692,
                "tempo": 120.0
            },
            {
                "start_time": 132.86363636363635,
                "end_time": 132.92954545454546,
                "pitch": 71,
                "velocity": 101,
                "duration": 0.06590909090911623,
                "tempo": 120.0
            },
            {
                "start_time": 132.96363636363637,
                "end_time": 133.23181818181817,
                "pitch": 73,
                "velocity": 101,
                "duration": 0.26818181818180165,
                "tempo": 120.0
            },
            {
                "start_time": 133.26590909090908,
                "end_time": 133.5340909090909,
                "pitch": 78,
                "velocity": 101,
                "duration": 0.26818181818183007,
                "tempo": 120.0
            },
            {
                "start_time": 133.5681818181818,
                "end_time": 133.6340909090909,
                "pitch": 76,
                "velocity": 101,
                "duration": 0.06590909090908781,
                "tempo": 120.0
            },
            {
                "start_time": 133.6681818181818,
                "end_time": 134.43636363636364,
                "pitch": 0,
                "velocity": 101,
                "duration": 0.7681818181818301,
                "tempo": 120.0
            },
            {
                "start_time": 134.47045454545454,
                "end_time": 134.73863636363635,
                "pitch": 78,
                "velocity": 101,
                "duration": 0.26818181818180165,
                "tempo": 120.0
            },
            {
                "start_time": 134.77272727272725,
                "end_time": 134.8409090909091,
                "pitch": 76,
                "velocity": 101,
                "duration": 0.06818181818184144,
                "tempo": 120.0
            },
            {
                "start_time": 134.87272727272727,
                "end_time": 135.64545454545453,
                "pitch": 0,
                "velocity": 101,
                "duration": 0.7727272727272521,
                "tempo": 120.0
            },
            {
                "start_time": 135.67954545454546,
                "end_time": 135.94545454545454,
                "pitch": 81,
                "velocity": 101,
                "duration": 0.26590909090907644,
                "tempo": 120.0
            },
            {
                "start_time": 135.97954545454544,
                "end_time": 136.04545454545453,
                "pitch": 80,
                "velocity": 101,
                "duration": 0.06590909090908781,
                "tempo": 120.0
            },
            {
                "start_time": 136.07954545454544,
                "end_time": 136.25,
                "pitch": 0,
                "velocity": 101,
                "duration": 0.17045454545456096,
                "tempo": 120.0
            },
            {
                "start_time": 136.2840909090909,
                "end_time": 137.96136363636364,
                "pitch": 76,
                "velocity": 101,
                "duration": 1.6772727272727366,
                "tempo": 120.0
            },
            {
                "start_time": 137.99545454545455,
                "end_time": 139.66363636363636,
                "pitch": 85,
                "velocity": 101,
                "duration": 1.6681818181818073,
                "tempo": 120.0
            },
            {
                "start_time": 139.69772727272726,
                "end_time": 139.96363636363637,
                "pitch": 78,
                "velocity": 101,
                "duration": 0.26590909090910486,
                "tempo": 120.0
            },
            {
                "start_time": 139.99772727272727,
                "end_time": 140.06363636363636,
                "pitch": 76,
                "velocity": 101,
                "duration": 0.06590909090908781,
                "tempo": 120.0
            },
            {
                "start_time": 140.09772727272727,
                "end_time": 140.87045454545455,
                "pitch": 0,
                "velocity": 101,
                "duration": 0.7727272727272805,
                "tempo": 120.0
            },
            {
                "start_time": 140.90454545454546,
                "end_time": 141.17272727272726,
                "pitch": 78,
                "velocity": 101,
                "duration": 0.26818181818180165,
                "tempo": 120.0
            },
            {
                "start_time": 141.20454545454544,
                "end_time": 141.27272727272725,
                "pitch": 76,
                "velocity": 101,
                "duration": 0.06818181818181301,
                "tempo": 120.0
            },
            {
                "start_time": 141.3068181818182,
                "end_time": 142.075,
                "pitch": 0,
                "velocity": 101,
                "duration": 0.7681818181818016,
                "tempo": 120.0
            },
            {
                "start_time": 142.1090909090909,
                "end_time": 142.37727272727273,
                "pitch": 81,
                "velocity": 101,
                "duration": 0.26818181818183007,
                "tempo": 120.0
            },
            {
                "start_time": 142.41136363636363,
                "end_time": 142.47727272727272,
                "pitch": 80,
                "velocity": 101,
                "duration": 0.06590909090908781,
                "tempo": 120.0
            },
            {
                "start_time": 142.51136363636363,
                "end_time": 142.6840909090909,
                "pitch": 0,
                "velocity": 101,
                "duration": 0.17272727272728616,
                "tempo": 120.0
            },
            {
                "start_time": 142.71818181818182,
                "end_time": 145.29999999999998,
                "pitch": 76,
                "velocity": 101,
                "duration": 2.5818181818181642,
                "tempo": 120.0
            },
            {
                "start_time": 145.33181818181816,
                "end_time": 145.49545454545455,
                "pitch": 74,
                "velocity": 101,
                "duration": 0.16363636363638534,
                "tempo": 120.0
            },
            {
                "start_time": 145.52954545454546,
                "end_time": 145.6931818181818,
                "pitch": 73,
                "velocity": 101,
                "duration": 0.16363636363635692,
                "tempo": 120.0
            },
            {
                "start_time": 145.725,
                "end_time": 145.7931818181818,
                "pitch": 71,
                "velocity": 101,
                "duration": 0.06818181818181301,
                "tempo": 120.0
            },
            {
                "start_time": 145.825,
                "end_time": 146.09318181818182,
                "pitch": 73,
                "velocity": 101,
                "duration": 0.26818181818183007,
                "tempo": 120.0
            },
            {
                "start_time": 146.125,
                "end_time": 146.3931818181818,
                "pitch": 78,
                "velocity": 101,
                "duration": 0.26818181818180165,
                "tempo": 120.0
            },
            {
                "start_time": 146.4272727272727,
                "end_time": 146.49545454545455,
                "pitch": 76,
                "velocity": 101,
                "duration": 0.06818181818184144,
                "tempo": 120.0
            },
            {
                "start_time": 146.52727272727273,
                "end_time": 147.29999999999998,
                "pitch": 0,
                "velocity": 101,
                "duration": 0.7727272727272521,
                "tempo": 120.0
            },
            {
                "start_time": 147.3340909090909,
                "end_time": 147.60227272727272,
                "pitch": 78,
                "velocity": 101,
                "duration": 0.26818181818183007,
                "tempo": 120.0
            },
            {
                "start_time": 147.63636363636363,
                "end_time": 147.7022727272727,
                "pitch": 76,
                "velocity": 101,
                "duration": 0.06590909090908781,
                "tempo": 120.0
            },
            {
                "start_time": 147.73636363636362,
                "end_time": 148.50454545454545,
                "pitch": 0,
                "velocity": 101,
                "duration": 0.7681818181818301,
                "tempo": 120.0
            },
            {
                "start_time": 148.53863636363636,
                "end_time": 148.8068181818182,
                "pitch": 81,
                "velocity": 101,
                "duration": 0.26818181818183007,
                "tempo": 120.0
            },
            {
                "start_time": 148.8409090909091,
                "end_time": 148.9090909090909,
                "pitch": 80,
                "velocity": 101,
                "duration": 0.06818181818181301,
                "tempo": 120.0
            },
            {
                "start_time": 148.9409090909091,
                "end_time": 149.11363636363635,
                "pitch": 0,
                "velocity": 101,
                "duration": 0.17272727272725774,
                "tempo": 120.0
            },
            {
                "start_time": 149.14772727272725,
                "end_time": 150.71818181818182,
                "pitch": 85,
                "velocity": 101,
                "duration": 1.5704545454545666,
                "tempo": 120.0
            },
            {
                "start_time": 150.75227272727273,
                "end_time": 150.82045454545454,
                "pitch": 83,
                "velocity": 101,
                "duration": 0.06818181818181301,
                "tempo": 120.0
            },
            {
                "start_time": 150.85454545454544,
                "end_time": 150.92499999999998,
                "pitch": 81,
                "velocity": 101,
                "duration": 0.07045454545453822,
                "tempo": 120.0
            },
            {
                "start_time": 150.95681818181816,
                "end_time": 151.7159090909091,
                "pitch": 80,
                "velocity": 101,
                "duration": 0.7590909090909292,
                "tempo": 120.0
            },
            {
                "start_time": 151.75,
                "end_time": 152.01590909090908,
                "pitch": 81,
                "velocity": 101,
                "duration": 0.26590909090907644,
                "tempo": 120.0
            },
            {
                "start_time": 152.04999999999998,
                "end_time": 152.31363636363636,
                "pitch": 80,
                "velocity": 101,
                "duration": 0.26363636363637966,
                "tempo": 120.0
            },
            {
                "start_time": 152.34545454545454,
                "end_time": 154.02272727272725,
                "pitch": 78,
                "velocity": 101,
                "duration": 1.6772727272727082,
                "tempo": 120.0
            },
            {
                "start_time": 154.0568181818182,
                "end_time": 155.32045454545454,
                "pitch": 80,
                "velocity": 101,
                "duration": 1.2636363636363512,
                "tempo": 120.0
            },
            {
                "start_time": 155.35454545454544,
                "end_time": 155.62272727272727,
                "pitch": 76,
                "velocity": 101,
                "duration": 0.26818181818183007,
                "tempo": 120.0
            },
            {
                "start_time": 155.65454545454546,
                "end_time": 158.1340909090909,
                "pitch": 78,
                "velocity": 101,
                "duration": 2.4795454545454447,
                "tempo": 120.0
            },
            {
                "start_time": 158.1681818181818,
                "end_time": 158.43636363636364,
                "pitch": 81,
                "velocity": 101,
                "duration": 0.26818181818183007,
                "tempo": 120.0
            },
            {
                "start_time": 158.47045454545454,
                "end_time": 158.74090909090907,
                "pitch": 80,
                "velocity": 101,
                "duration": 0.27045454545452685,
                "tempo": 120.0
            },
            {
                "start_time": 158.775,
                "end_time": 158.84545454545454,
                "pitch": 78,
                "velocity": 101,
                "duration": 0.07045454545453822,
                "tempo": 120.0
            },
            {
                "start_time": 158.87954545454545,
                "end_time": 158.94772727272726,
                "pitch": 76,
                "velocity": 101,
                "duration": 0.06818181818181301,
                "tempo": 120.0
            },
            {
                "start_time": 158.98181818181817,
                "end_time": 159.75227272727273,
                "pitch": 78,
                "velocity": 101,
                "duration": 0.7704545454545553,
                "tempo": 120.0
            },
            {
                "start_time": 159.7840909090909,
                "end_time": 159.95,
                "pitch": 0,
                "velocity": 101,
                "duration": 0.16590909090908212,
                "tempo": 120.0
            },
            {
                "start_time": 159.9840909090909,
                "end_time": 160.35227272727272,
                "pitch": 81,
                "velocity": 101,
                "duration": 0.3681818181818244,
                "tempo": 120.0
            },
            {
                "start_time": 160.38636363636363,
                "end_time": 160.55454545454543,
                "pitch": 83,
                "velocity": 101,
                "duration": 0.16818181818180733,
                "tempo": 120.0
            },
            {
                "start_time": 160.58636363636361,
                "end_time": 161.3590909090909,
                "pitch": 80,
                "velocity": 101,
                "duration": 0.7727272727272805,
                "tempo": 120.0
            },
            {
                "start_time": 161.3931818181818,
                "end_time": 161.76136363636363,
                "pitch": 78,
                "velocity": 101,
                "duration": 0.3681818181818244,
                "tempo": 120.0
            },
            {
                "start_time": 161.79545454545453,
                "end_time": 162.16136363636363,
                "pitch": 76,
                "velocity": 101,
                "duration": 0.3659090909090992,
                "tempo": 120.0
            },
            {
                "start_time": 162.19545454545454,
                "end_time": 164.575,
                "pitch": 78,
                "velocity": 101,
                "duration": 2.3795454545454504,
                "tempo": 120.0
            },
            {
                "start_time": 164.6090909090909,
                "end_time": 164.87727272727273,
                "pitch": 81,
                "velocity": 101,
                "duration": 0.26818181818183007,
                "tempo": 120.0
            },
            {
                "start_time": 164.91136363636363,
                "end_time": 165.17954545454543,
                "pitch": 80,
                "velocity": 101,
                "duration": 0.26818181818180165,
                "tempo": 120.0
            },
            {
                "start_time": 165.21136363636361,
                "end_time": 165.27954545454546,
                "pitch": 78,
                "velocity": 101,
                "duration": 0.06818181818184144,
                "tempo": 120.0
            },
            {
                "start_time": 165.31363636363636,
                "end_time": 165.37954545454545,
                "pitch": 76,
                "velocity": 101,
                "duration": 0.06590909090908781,
                "tempo": 120.0
            },
            {
                "start_time": 165.41363636363636,
                "end_time": 166.1840909090909,
                "pitch": 78,
                "velocity": 101,
                "duration": 0.7704545454545553,
                "tempo": 120.0
            },
            {
                "start_time": 166.2159090909091,
                "end_time": 166.3840909090909,
                "pitch": 0,
                "velocity": 101,
                "duration": 0.16818181818180733,
                "tempo": 120.0
            },
            {
                "start_time": 166.4181818181818,
                "end_time": 166.78636363636363,
                "pitch": 80,
                "velocity": 101,
                "duration": 0.3681818181818244,
                "tempo": 120.0
            },
            {
                "start_time": 166.82045454545454,
                "end_time": 166.98863636363635,
                "pitch": 81,
                "velocity": 101,
                "duration": 0.16818181818180733,
                "tempo": 120.0
            },
            {
                "start_time": 167.02272727272725,
                "end_time": 167.7931818181818,
                "pitch": 83,
                "velocity": 101,
                "duration": 0.7704545454545553,
                "tempo": 120.0
            },
            {
                "start_time": 167.8272727272727,
                "end_time": 167.8931818181818,
                "pitch": 83,
                "velocity": 101,
                "duration": 0.06590909090908781,
                "tempo": 120.0
            },
            {
                "start_time": 167.9272727272727,
                "end_time": 168.1931818181818,
                "pitch": 85,
                "velocity": 101,
                "duration": 0.26590909090910486,
                "tempo": 120.0
            },
            {
                "start_time": 168.22727272727272,
                "end_time": 168.59545454545454,
                "pitch": 88,
                "velocity": 101,
                "duration": 0.3681818181818244,
                "tempo": 120.0
            },
            {
                "start_time": 168.62954545454545,
                "end_time": 171.8159090909091,
                "pitch": 90,
                "velocity": 101,
                "duration": 3.1863636363636374,
                "tempo": 120.0
            },
            {
                "start_time": 171.84772727272727,
                "end_time": 172.01590909090908,
                "pitch": 93,
                "velocity": 101,
                "duration": 0.16818181818180733,
                "tempo": 120.0
            },
            {
                "start_time": 172.04772727272726,
                "end_time": 172.11590909090907,
                "pitch": 92,
                "velocity": 101,
                "duration": 0.06818181818181301,
                "tempo": 120.0
            },
            {
                "start_time": 172.14772727272725,
                "end_time": 172.2159090909091,
                "pitch": 90,
                "velocity": 101,
                "duration": 0.06818181818184144,
                "tempo": 120.0
            },
            {
                "start_time": 172.24772727272727,
                "end_time": 172.41590909090908,
                "pitch": 93,
                "velocity": 101,
                "duration": 0.16818181818180733,
                "tempo": 120.0
            },
            {
                "start_time": 172.45,
                "end_time": 172.5181818181818,
                "pitch": 92,
                "velocity": 101,
                "duration": 0.06818181818181301,
                "tempo": 120.0
            },
            {
                "start_time": 172.54999999999998,
                "end_time": 172.6181818181818,
                "pitch": 90,
                "velocity": 101,
                "duration": 0.06818181818181301,
                "tempo": 120.0
            },
            {
                "start_time": 172.65227272727273,
                "end_time": 172.8181818181818,
                "pitch": 93,
                "velocity": 101,
                "duration": 0.16590909090908212,
                "tempo": 120.0
            },
            {
                "start_time": 172.85227272727272,
                "end_time": 172.92045454545453,
                "pitch": 92,
                "velocity": 101,
                "duration": 0.06818181818181301,
                "tempo": 120.0
            },
            {
                "start_time": 172.95454545454544,
                "end_time": 173.02045454545453,
                "pitch": 90,
                "velocity": 101,
                "duration": 0.06590909090908781,
                "tempo": 120.0
            },
            {
                "start_time": 173.05454545454543,
                "end_time": 173.22272727272727,
                "pitch": 93,
                "velocity": 101,
                "duration": 0.16818181818183575,
                "tempo": 120.0
            },
            {
                "start_time": 173.25454545454545,
                "end_time": 173.32272727272726,
                "pitch": 92,
                "velocity": 101,
                "duration": 0.06818181818181301,
                "tempo": 120.0
            },
            {
                "start_time": 173.35681818181817,
                "end_time": 173.42272727272726,
                "pitch": 90,
                "velocity": 101,
                "duration": 0.06590909090908781,
                "tempo": 120.0
            },
            {
                "start_time": 173.45681818181816,
                "end_time": 173.625,
                "pitch": 93,
                "velocity": 101,
                "duration": 0.16818181818183575,
                "tempo": 120.0
            },
            {
                "start_time": 173.6590909090909,
                "end_time": 173.725,
                "pitch": 92,
                "velocity": 101,
                "duration": 0.06590909090908781,
                "tempo": 120.0
            },
            {
                "start_time": 173.7590909090909,
                "end_time": 173.825,
                "pitch": 90,
                "velocity": 101,
                "duration": 0.06590909090908781,
                "tempo": 120.0
            },
            {
                "start_time": 173.8590909090909,
                "end_time": 174.025,
                "pitch": 93,
                "velocity": 101,
                "duration": 0.16590909090911055,
                "tempo": 120.0
            },
            {
                "start_time": 174.0590909090909,
                "end_time": 174.125,
                "pitch": 92,
                "velocity": 101,
                "duration": 0.06590909090908781,
                "tempo": 120.0
            },
            {
                "start_time": 174.1590909090909,
                "end_time": 174.225,
                "pitch": 90,
                "velocity": 101,
                "duration": 0.06590909090908781,
                "tempo": 120.0
            },
            {
                "start_time": 174.2590909090909,
                "end_time": 174.4272727272727,
                "pitch": 93,
                "velocity": 101,
                "duration": 0.16818181818180733,
                "tempo": 120.0
            },
            {
                "start_time": 174.46136363636361,
                "end_time": 174.52727272727273,
                "pitch": 92,
                "velocity": 101,
                "duration": 0.06590909090911623,
                "tempo": 120.0
            },
            {
                "start_time": 174.56136363636364,
                "end_time": 174.62954545454545,
                "pitch": 90,
                "velocity": 101,
                "duration": 0.06818181818181301,
                "tempo": 120.0
            },
            {
                "start_time": 174.66136363636363,
                "end_time": 174.72954545454544,
                "pitch": 93,
                "velocity": 101,
                "duration": 0.06818181818181301,
                "tempo": 120.0
            },
            {
                "start_time": 174.76363636363635,
                "end_time": 175.03181818181818,
                "pitch": 95,
                "velocity": 101,
                "duration": 0.26818181818183007,
                "tempo": 120.0
            },
            {
                "start_time": 175.0659090909091,
                "end_time": 175.23181818181817,
                "pitch": 93,
                "velocity": 101,
                "duration": 0.16590909090908212,
                "tempo": 120.0
            },
            {
                "start_time": 175.26590909090908,
                "end_time": 175.3340909090909,
                "pitch": 92,
                "velocity": 101,
                "duration": 0.06818181818181301,
                "tempo": 120.0
            },
            {
                "start_time": 175.36590909090907,
                "end_time": 177.74772727272727,
                "pitch": 90,
                "velocity": 101,
                "duration": 2.381818181818204,
                "tempo": 120.0
            },
            {
                "start_time": 177.77954545454546,
                "end_time": 178.04772727272726,
                "pitch": 88,
                "velocity": 101,
                "duration": 0.26818181818180165,
                "tempo": 120.0
            },
            {
                "start_time": 178.08181818181816,
                "end_time": 178.24772727272727,
                "pitch": 85,
                "velocity": 101,
                "duration": 0.16590909090911055,
                "tempo": 120.0
            },
            {
                "start_time": 178.28181818181818,
                "end_time": 178.64999999999998,
                "pitch": 83,
                "velocity": 101,
                "duration": 0.36818181818179596,
                "tempo": 120.0
            },
            {
                "start_time": 178.6840909090909,
                "end_time": 178.85227272727272,
                "pitch": 85,
                "velocity": 101,
                "duration": 0.16818181818180733,
                "tempo": 120.0
            },
            {
                "start_time": 178.8840909090909,
                "end_time": 179.45454545454544,
                "pitch": 81,
                "velocity": 101,
                "duration": 0.5704545454545382,
                "tempo": 120.0
            },
            {
                "start_time": 179.48863636363635,
                "end_time": 179.65681818181818,
                "pitch": 78,
                "velocity": 101,
                "duration": 0.16818181818183575,
                "tempo": 120.0
            },
            {
                "start_time": 179.6909090909091,
                "end_time": 179.8590909090909,
                "pitch": 81,
                "velocity": 101,
                "duration": 0.16818181818180733,
                "tempo": 120.0
            }
        ],
        "Acoustic Bass": [
            {
                "start_time": 0.3181818181818182,
                "end_time": 0.38636363636363635,
                "pitch": 52,
                "velocity": 64,
                "duration": 0.06818181818181818,
                "tempo": 120.0
            },
            {
                "start_time": 0.41818181818181815,
                "end_time": 0.6727272727272727,
                "pitch": 52,
                "velocity": 64,
                "duration": 0.2545454545454546,
                "tempo": 120.0
            },
            {
                "start_time": 0.7045454545454545,
                "end_time": 0.7681818181818182,
                "pitch": 45,
                "velocity": 64,
                "duration": 0.06363636363636371,
                "tempo": 120.0
            },
            {
                "start_time": 0.8022727272727272,
                "end_time": 1.075,
                "pitch": 45,
                "velocity": 64,
                "duration": 0.2727272727272727,
                "tempo": 120.0
            },
            {
                "start_time": 1.1090909090909091,
                "end_time": 1.1772727272727272,
                "pitch": 52,
                "velocity": 64,
                "duration": 0.06818181818181812,
                "tempo": 120.0
            },
            {
                "start_time": 1.2113636363636362,
                "end_time": 1.4795454545454545,
                "pitch": 52,
                "velocity": 64,
                "duration": 0.2681818181818183,
                "tempo": 120.0
            },
            {
                "start_time": 1.5113636363636362,
                "end_time": 1.5795454545454544,
                "pitch": 45,
                "velocity": 64,
                "duration": 0.06818181818181812,
                "tempo": 120.0
            },
            {
                "start_time": 1.6113636363636363,
                "end_time": 1.8863636363636362,
                "pitch": 45,
                "velocity": 64,
                "duration": 0.2749999999999999,
                "tempo": 120.0
            },
            {
                "start_time": 1.9204545454545454,
                "end_time": 1.9886363636363635,
                "pitch": 52,
                "velocity": 64,
                "duration": 0.06818181818181812,
                "tempo": 120.0
            },
            {
                "start_time": 2.0227272727272725,
                "end_time": 2.0886363636363634,
                "pitch": 52,
                "velocity": 64,
                "duration": 0.06590909090909092,
                "tempo": 120.0
            },
            {
                "start_time": 2.120454545454545,
                "end_time": 2.186363636363636,
                "pitch": 45,
                "velocity": 64,
                "duration": 0.06590909090909092,
                "tempo": 120.0
            },
            {
                "start_time": 2.2181818181818183,
                "end_time": 2.284090909090909,
                "pitch": 0,
                "velocity": 64,
                "duration": 0.06590909090909092,
                "tempo": 120.0
            },
            {
                "start_time": 2.315909090909091,
                "end_time": 2.381818181818182,
                "pitch": 45,
                "velocity": 64,
                "duration": 0.06590909090909092,
                "tempo": 120.0
            },
            {
                "start_time": 2.4136363636363636,
                "end_time": 2.775,
                "pitch": 0,
                "velocity": 64,
                "duration": 0.36136363636363633,
                "tempo": 120.0
            },
            {
                "start_time": 2.8068181818181817,
                "end_time": 3.184090909090909,
                "pitch": 52,
                "velocity": 64,
                "duration": 0.3772727272727274,
                "tempo": 120.0
            },
            {
                "start_time": 3.218181818181818,
                "end_time": 3.4863636363636363,
                "pitch": 41,
                "velocity": 64,
                "duration": 0.2681818181818185,
                "tempo": 120.0
            },
            {
                "start_time": 3.5204545454545455,
                "end_time": 3.586363636363636,
                "pitch": 48,
                "velocity": 64,
                "duration": 0.06590909090909047,
                "tempo": 120.0
            },
            {
                "start_time": 3.620454545454545,
                "end_time": 3.8863636363636362,
                "pitch": 48,
                "velocity": 64,
                "duration": 0.2659090909090911,
                "tempo": 120.0
            },
            {
                "start_time": 3.9204545454545454,
                "end_time": 3.9863636363636363,
                "pitch": 41,
                "velocity": 64,
                "duration": 0.06590909090909092,
                "tempo": 120.0
            },
            {
                "start_time": 4.0204545454545455,
                "end_time": 4.286363636363636,
                "pitch": 41,
                "velocity": 64,
                "duration": 0.26590909090909065,
                "tempo": 120.0
            },
            {
                "start_time": 4.320454545454545,
                "end_time": 4.386363636363636,
                "pitch": 48,
                "velocity": 64,
                "duration": 0.06590909090909047,
                "tempo": 120.0
            },
            {
                "start_time": 4.420454545454545,
                "end_time": 4.6886363636363635,
                "pitch": 48,
                "velocity": 64,
                "duration": 0.2681818181818185,
                "tempo": 120.0
            },
            {
                "start_time": 4.722727272727273,
                "end_time": 4.790909090909091,
                "pitch": 41,
                "velocity": 64,
                "duration": 0.06818181818181834,
                "tempo": 120.0
            },
            {
                "start_time": 4.822727272727272,
                "end_time": 5.090909090909091,
                "pitch": 41,
                "velocity": 64,
                "duration": 0.2681818181818185,
                "tempo": 120.0
            },
            {
                "start_time": 5.122727272727272,
                "end_time": 5.1909090909090905,
                "pitch": 48,
                "velocity": 64,
                "duration": 0.06818181818181834,
                "tempo": 120.0
            },
            {
                "start_time": 5.222727272727273,
                "end_time": 5.290909090909091,
                "pitch": 48,
                "velocity": 64,
                "duration": 0.06818181818181834,
                "tempo": 120.0
            },
            {
                "start_time": 5.325,
                "end_time": 5.390909090909091,
                "pitch": 41,
                "velocity": 64,
                "duration": 0.06590909090909047,
                "tempo": 120.0
            },
            {
                "start_time": 5.425,
                "end_time": 5.49090909090909,
                "pitch": 0,
                "velocity": 64,
                "duration": 0.06590909090909047,
                "tempo": 120.0
            },
            {
                "start_time": 5.5249999999999995,
                "end_time": 5.593181818181818,
                "pitch": 41,
                "velocity": 64,
                "duration": 0.06818181818181834,
                "tempo": 120.0
            },
            {
                "start_time": 5.625,
                "end_time": 5.9840909090909085,
                "pitch": 0,
                "velocity": 64,
                "duration": 0.35909090909090846,
                "tempo": 120.0
            },
            {
                "start_time": 6.018181818181818,
                "end_time": 6.3954545454545455,
                "pitch": 48,
                "velocity": 64,
                "duration": 0.37727272727272787,
                "tempo": 120.0
            },
            {
                "start_time": 6.429545454545455,
                "end_time": 6.697727272727272,
                "pitch": 45,
                "velocity": 64,
                "duration": 0.26818181818181763,
                "tempo": 120.0
            },
            {
                "start_time": 6.7318181818181815,
                "end_time": 6.797727272727273,
                "pitch": 52,
                "velocity": 64,
                "duration": 0.06590909090909136,
                "tempo": 120.0
            },
            {
                "start_time": 6.831818181818181,
                "end_time": 7.097727272727273,
                "pitch": 52,
                "velocity": 64,
                "duration": 0.26590909090909154,
                "tempo": 120.0
            },
            {
                "start_time": 7.131818181818182,
                "end_time": 7.197727272727272,
                "pitch": 45,
                "velocity": 64,
                "duration": 0.06590909090909047,
                "tempo": 120.0
            },
            {
                "start_time": 7.2318181818181815,
                "end_time": 7.5,
                "pitch": 45,
                "velocity": 64,
                "duration": 0.2681818181818185,
                "tempo": 120.0
            },
            {
                "start_time": 7.534090909090908,
                "end_time": 7.6,
                "pitch": 52,
                "velocity": 64,
                "duration": 0.06590909090909136,
                "tempo": 120.0
            },
            {
                "start_time": 7.634090909090909,
                "end_time": 7.8999999999999995,
                "pitch": 52,
                "velocity": 64,
                "duration": 0.26590909090909065,
                "tempo": 120.0
            },
            {
                "start_time": 7.934090909090909,
                "end_time": 8.0,
                "pitch": 45,
                "velocity": 64,
                "duration": 0.06590909090909136,
                "tempo": 120.0
            },
            {
                "start_time": 8.034090909090908,
                "end_time": 8.302272727272728,
                "pitch": 45,
                "velocity": 64,
                "duration": 0.2681818181818194,
                "tempo": 120.0
            },
            {
                "start_time": 8.336363636363636,
                "end_time": 8.402272727272727,
                "pitch": 52,
                "velocity": 64,
                "duration": 0.06590909090909136,
                "tempo": 120.0
            },
            {
                "start_time": 8.436363636363636,
                "end_time": 8.504545454545454,
                "pitch": 52,
                "velocity": 64,
                "duration": 0.06818181818181834,
                "tempo": 120.0
            },
            {
                "start_time": 8.538636363636364,
                "end_time": 8.604545454545454,
                "pitch": 45,
                "velocity": 64,
                "duration": 0.06590909090908958,
                "tempo": 120.0
            },
            {
                "start_time": 8.638636363636364,
                "end_time": 8.704545454545453,
                "pitch": 0,
                "velocity": 64,
                "duration": 0.06590909090908958,
                "tempo": 120.0
            },
            {
                "start_time": 8.738636363636363,
                "end_time": 8.806818181818182,
                "pitch": 45,
                "velocity": 64,
                "duration": 0.06818181818181834,
                "tempo": 120.0
            },
            {
                "start_time": 8.838636363636363,
                "end_time": 9.197727272727272,
                "pitch": 0,
                "velocity": 64,
                "duration": 0.35909090909090935,
                "tempo": 120.0
            },
            {
                "start_time": 9.23181818181818,
                "end_time": 9.60909090909091,
                "pitch": 52,
                "velocity": 64,
                "duration": 0.37727272727272876,
                "tempo": 120.0
            },
            {
                "start_time": 9.643181818181818,
                "end_time": 9.911363636363635,
                "pitch": 41,
                "velocity": 64,
                "duration": 0.26818181818181763,
                "tempo": 120.0
            },
            {
                "start_time": 9.945454545454545,
                "end_time": 10.011363636363637,
                "pitch": 48,
                "velocity": 64,
                "duration": 0.06590909090909136,
                "tempo": 120.0
            },
            {
                "start_time": 10.045454545454545,
                "end_time": 10.313636363636363,
                "pitch": 48,
                "velocity": 64,
                "duration": 0.26818181818181763,
                "tempo": 120.0
            },
            {
                "start_time": 10.347727272727273,
                "end_time": 10.413636363636362,
                "pitch": 41,
                "velocity": 64,
                "duration": 0.06590909090908958,
                "tempo": 120.0
            },
            {
                "start_time": 10.447727272727272,
                "end_time": 10.71590909090909,
                "pitch": 41,
                "velocity": 64,
                "duration": 0.26818181818181763,
                "tempo": 120.0
            },
            {
                "start_time": 10.75,
                "end_time": 10.81590909090909,
                "pitch": 48,
                "velocity": 64,
                "duration": 0.06590909090908958,
                "tempo": 120.0
            },
            {
                "start_time": 10.85,
                "end_time": 11.118181818181817,
                "pitch": 48,
                "velocity": 64,
                "duration": 0.26818181818181763,
                "tempo": 120.0
            },
            {
                "start_time": 11.152272727272727,
                "end_time": 11.220454545454546,
                "pitch": 41,
                "velocity": 64,
                "duration": 0.06818181818181834,
                "tempo": 120.0
            },
            {
                "start_time": 11.252272727272727,
                "end_time": 11.527272727272727,
                "pitch": 41,
                "velocity": 64,
                "duration": 0.27500000000000036,
                "tempo": 120.0
            },
            {
                "start_time": 11.561363636363636,
                "end_time": 11.629545454545454,
                "pitch": 48,
                "velocity": 64,
                "duration": 0.06818181818181834,
                "tempo": 120.0
            },
            {
                "start_time": 11.661363636363635,
                "end_time": 11.725,
                "pitch": 48,
                "velocity": 64,
                "duration": 0.06363636363636438,
                "tempo": 120.0
            },
            {
                "start_time": 11.756818181818181,
                "end_time": 11.822727272727272,
                "pitch": 41,
                "velocity": 64,
                "duration": 0.06590909090909136,
                "tempo": 120.0
            },
            {
                "start_time": 11.854545454545454,
                "end_time": 11.918181818181818,
                "pitch": 0,
                "velocity": 64,
                "duration": 0.06363636363636438,
                "tempo": 120.0
            },
            {
                "start_time": 11.95,
                "end_time": 12.013636363636364,
                "pitch": 41,
                "velocity": 64,
                "duration": 0.06363636363636438,
                "tempo": 120.0
            },
            {
                "start_time": 12.045454545454545,
                "end_time": 12.415909090909091,
                "pitch": 0,
                "velocity": 64,
                "duration": 0.37045454545454604,
                "tempo": 120.0
            },
            {
                "start_time": 12.45,
                "end_time": 12.825,
                "pitch": 48,
                "velocity": 64,
                "duration": 0.375,
                "tempo": 120.0
            },
            {
                "start_time": 12.85909090909091,
                "end_time": 12.924999999999999,
                "pitch": 0,
                "velocity": 64,
                "duration": 0.06590909090908958,
                "tempo": 120.0
            },
            {
                "start_time": 12.956818181818182,
                "end_time": 13.022727272727272,
                "pitch": 40,
                "velocity": 64,
                "duration": 0.06590909090908958,
                "tempo": 120.0
            },
            {
                "start_time": 13.054545454545455,
                "end_time": 13.120454545454544,
                "pitch": 0,
                "velocity": 64,
                "duration": 0.06590909090908958,
                "tempo": 120.0
            },
            {
                "start_time": 13.152272727272727,
                "end_time": 13.218181818181817,
                "pitch": 40,
                "velocity": 64,
                "duration": 0.06590909090908958,
                "tempo": 120.0
            },
            {
                "start_time": 13.252272727272727,
                "end_time": 13.318181818181818,
                "pitch": 0,
                "velocity": 64,
                "duration": 0.06590909090909136,
                "tempo": 120.0
            },
            {
                "start_time": 13.352272727272727,
                "end_time": 13.418181818181818,
                "pitch": 40,
                "velocity": 64,
                "duration": 0.06590909090909136,
                "tempo": 120.0
            },
            {
                "start_time": 13.452272727272726,
                "end_time": 13.520454545454545,
                "pitch": 0,
                "velocity": 64,
                "duration": 0.06818181818181834,
                "tempo": 120.0
            },
            {
                "start_time": 13.554545454545455,
                "end_time": 13.620454545454544,
                "pitch": 40,
                "velocity": 64,
                "duration": 0.06590909090908958,
                "tempo": 120.0
            },
            {
                "start_time": 13.654545454545454,
                "end_time": 13.722727272727273,
                "pitch": 0,
                "velocity": 64,
                "duration": 0.06818181818181834,
                "tempo": 120.0
            },
            {
                "start_time": 13.756818181818181,
                "end_time": 13.825,
                "pitch": 40,
                "velocity": 64,
                "duration": 0.06818181818181834,
                "tempo": 120.0
            },
            {
                "start_time": 13.859090909090908,
                "end_time": 13.929545454545455,
                "pitch": 0,
                "velocity": 64,
                "duration": 0.0704545454545471,
                "tempo": 120.0
            },
            {
                "start_time": 13.963636363636363,
                "end_time": 14.031818181818181,
                "pitch": 40,
                "velocity": 64,
                "duration": 0.06818181818181834,
                "tempo": 120.0
            },
            {
                "start_time": 14.063636363636363,
                "end_time": 14.129545454545454,
                "pitch": 0,
                "velocity": 64,
                "duration": 0.06590909090909136,
                "tempo": 120.0
            },
            {
                "start_time": 14.161363636363635,
                "end_time": 14.227272727272727,
                "pitch": 40,
                "velocity": 64,
                "duration": 0.06590909090909136,
                "tempo": 120.0
            },
            {
                "start_time": 14.261363636363635,
                "end_time": 14.325,
                "pitch": 0,
                "velocity": 64,
                "duration": 0.06363636363636438,
                "tempo": 120.0
            },
            {
                "start_time": 14.359090909090908,
                "end_time": 14.422727272727272,
                "pitch": 40,
                "velocity": 64,
                "duration": 0.06363636363636438,
                "tempo": 120.0
            },
            {
                "start_time": 14.45681818181818,
                "end_time": 17.643181818181816,
                "pitch": 52,
                "velocity": 64,
                "duration": 3.1863636363636356,
                "tempo": 120.0
            },
            {
                "start_time": 17.677272727272726,
                "end_time": 17.945454545454545,
                "pitch": 45,
                "velocity": 64,
                "duration": 0.2681818181818194,
                "tempo": 120.0
            },
            {
                "start_time": 17.979545454545455,
                "end_time": 18.045454545454543,
                "pitch": 52,
                "velocity": 64,
                "duration": 0.06590909090908781,
                "tempo": 120.0
            },
            {
                "start_time": 18.079545454545453,
                "end_time": 18.345454545454544,
                "pitch": 52,
                "velocity": 64,
                "duration": 0.26590909090909065,
                "tempo": 120.0
            },
            {
                "start_time": 18.379545454545454,
                "end_time": 18.445454545454545,
                "pitch": 45,
                "velocity": 64,
                "duration": 0.06590909090909136,
                "tempo": 120.0
            },
            {
                "start_time": 18.479545454545455,
                "end_time": 18.745454545454546,
                "pitch": 45,
                "velocity": 64,
                "duration": 0.26590909090909065,
                "tempo": 120.0
            },
            {
                "start_time": 18.779545454545453,
                "end_time": 18.845454545454544,
                "pitch": 52,
                "velocity": 64,
                "duration": 0.06590909090909136,
                "tempo": 120.0
            },
            {
                "start_time": 18.879545454545454,
                "end_time": 19.147727272727273,
                "pitch": 52,
                "velocity": 64,
                "duration": 0.2681818181818194,
                "tempo": 120.0
            },
            {
                "start_time": 19.18181818181818,
                "end_time": 19.24772727272727,
                "pitch": 45,
                "velocity": 64,
                "duration": 0.06590909090909136,
                "tempo": 120.0
            },
            {
                "start_time": 19.28181818181818,
                "end_time": 19.55681818181818,
                "pitch": 45,
                "velocity": 64,
                "duration": 0.2749999999999986,
                "tempo": 120.0
            },
            {
                "start_time": 19.59090909090909,
                "end_time": 19.659090909090907,
                "pitch": 52,
                "velocity": 64,
                "duration": 0.06818181818181657,
                "tempo": 120.0
            },
            {
                "start_time": 19.693181818181817,
                "end_time": 19.954545454545453,
                "pitch": 52,
                "velocity": 64,
                "duration": 0.2613636363636367,
                "tempo": 120.0
            },
            {
                "start_time": 19.986363636363635,
                "end_time": 20.052272727272726,
                "pitch": 45,
                "velocity": 64,
                "duration": 0.06590909090909136,
                "tempo": 120.0
            },
            {
                "start_time": 20.084090909090907,
                "end_time": 20.35909090909091,
                "pitch": 45,
                "velocity": 64,
                "duration": 0.27500000000000213,
                "tempo": 120.0
            },
            {
                "start_time": 20.393181818181816,
                "end_time": 20.461363636363636,
                "pitch": 52,
                "velocity": 64,
                "duration": 0.06818181818182012,
                "tempo": 120.0
            },
            {
                "start_time": 20.495454545454546,
                "end_time": 20.661363636363635,
                "pitch": 52,
                "velocity": 64,
                "duration": 0.16590909090908923,
                "tempo": 120.0
            },
            {
                "start_time": 20.695454545454545,
                "end_time": 20.861363636363635,
                "pitch": 45,
                "velocity": 64,
                "duration": 0.16590909090908923,
                "tempo": 120.0
            },
            {
                "start_time": 20.895454545454545,
                "end_time": 21.161363636363635,
                "pitch": 42,
                "velocity": 64,
                "duration": 0.26590909090909065,
                "tempo": 120.0
            },
            {
                "start_time": 21.195454545454545,
                "end_time": 21.261363636363637,
                "pitch": 49,
                "velocity": 64,
                "duration": 0.06590909090909136,
                "tempo": 120.0
            },
            {
                "start_time": 21.295454545454543,
                "end_time": 21.563636363636363,
                "pitch": 49,
                "velocity": 64,
                "duration": 0.2681818181818194,
                "tempo": 120.0
            },
            {
                "start_time": 21.597727272727273,
                "end_time": 21.663636363636364,
                "pitch": 42,
                "velocity": 64,
                "duration": 0.06590909090909136,
                "tempo": 120.0
            },
            {
                "start_time": 21.69772727272727,
                "end_time": 21.96590909090909,
                "pitch": 42,
                "velocity": 64,
                "duration": 0.2681818181818194,
                "tempo": 120.0
            },
            {
                "start_time": 21.99772727272727,
                "end_time": 22.06590909090909,
                "pitch": 49,
                "velocity": 64,
                "duration": 0.06818181818182012,
                "tempo": 120.0
            },
            {
                "start_time": 22.097727272727273,
                "end_time": 22.36590909090909,
                "pitch": 49,
                "velocity": 64,
                "duration": 0.26818181818181586,
                "tempo": 120.0
            },
            {
                "start_time": 22.4,
                "end_time": 22.46818181818182,
                "pitch": 42,
                "velocity": 64,
                "duration": 0.06818181818182012,
                "tempo": 120.0
            },
            {
                "start_time": 22.5,
                "end_time": 22.761363636363637,
                "pitch": 42,
                "velocity": 64,
                "duration": 0.2613636363636367,
                "tempo": 120.0
            },
            {
                "start_time": 22.795454545454543,
                "end_time": 22.85909090909091,
                "pitch": 49,
                "velocity": 64,
                "duration": 0.06363636363636616,
                "tempo": 120.0
            },
            {
                "start_time": 22.893181818181816,
                "end_time": 23.161363636363635,
                "pitch": 49,
                "velocity": 64,
                "duration": 0.2681818181818194,
                "tempo": 120.0
            },
            {
                "start_time": 23.195454545454545,
                "end_time": 23.261363636363637,
                "pitch": 42,
                "velocity": 64,
                "duration": 0.06590909090909136,
                "tempo": 120.0
            },
            {
                "start_time": 23.295454545454543,
                "end_time": 23.561363636363634,
                "pitch": 42,
                "velocity": 64,
                "duration": 0.26590909090909065,
                "tempo": 120.0
            },
            {
                "start_time": 23.595454545454544,
                "end_time": 23.661363636363635,
                "pitch": 49,
                "velocity": 64,
                "duration": 0.06590909090909136,
                "tempo": 120.0
            },
            {
                "start_time": 23.695454545454545,
                "end_time": 23.86590909090909,
                "pitch": 49,
                "velocity": 64,
                "duration": 0.1704545454545432,
                "tempo": 120.0
            },
            {
                "start_time": 23.902272727272727,
                "end_time": 24.07272727272727,
                "pitch": 42,
                "velocity": 64,
                "duration": 0.1704545454545432,
                "tempo": 120.0
            },
            {
                "start_time": 24.10681818181818,
                "end_time": 24.368181818181817,
                "pitch": 47,
                "velocity": 64,
                "duration": 0.2613636363636367,
                "tempo": 120.0
            },
            {
                "start_time": 24.4,
                "end_time": 24.46590909090909,
                "pitch": 54,
                "velocity": 64,
                "duration": 0.06590909090909136,
                "tempo": 120.0
            },
            {
                "start_time": 24.49772727272727,
                "end_time": 24.77272727272727,
                "pitch": 54,
                "velocity": 64,
                "duration": 0.2749999999999986,
                "tempo": 120.0
            },
            {
                "start_time": 24.80681818181818,
                "end_time": 24.875,
                "pitch": 47,
                "velocity": 64,
                "duration": 0.06818181818182012,
                "tempo": 120.0
            },
            {
                "start_time": 24.909090909090907,
                "end_time": 25.174999999999997,
                "pitch": 47,
                "velocity": 64,
                "duration": 0.26590909090909065,
                "tempo": 120.0
            },
            {
                "start_time": 25.209090909090907,
                "end_time": 25.275,
                "pitch": 54,
                "velocity": 64,
                "duration": 0.06590909090909136,
                "tempo": 120.0
            },
            {
                "start_time": 25.30909090909091,
                "end_time": 25.570454545454545,
                "pitch": 54,
                "velocity": 64,
                "duration": 0.2613636363636367,
                "tempo": 120.0
            },
            {
                "start_time": 25.602272727272727,
                "end_time": 25.668181818181818,
                "pitch": 47,
                "velocity": 64,
                "duration": 0.06590909090909136,
                "tempo": 120.0
            },
            {
                "start_time": 25.702272727272724,
                "end_time": 25.970454545454544,
                "pitch": 47,
                "velocity": 64,
                "duration": 0.2681818181818194,
                "tempo": 120.0
            },
            {
                "start_time": 26.004545454545454,
                "end_time": 26.070454545454545,
                "pitch": 54,
                "velocity": 64,
                "duration": 0.06590909090909136,
                "tempo": 120.0
            },
            {
                "start_time": 26.104545454545452,
                "end_time": 26.370454545454542,
                "pitch": 54,
                "velocity": 64,
                "duration": 0.26590909090909065,
                "tempo": 120.0
            },
            {
                "start_time": 26.404545454545453,
                "end_time": 26.470454545454544,
                "pitch": 47,
                "velocity": 64,
                "duration": 0.06590909090909136,
                "tempo": 120.0
            },
            {
                "start_time": 26.504545454545454,
                "end_time": 26.770454545454545,
                "pitch": 47,
                "velocity": 64,
                "duration": 0.26590909090909065,
                "tempo": 120.0
            },
            {
                "start_time": 26.804545454545455,
                "end_time": 26.870454545454542,
                "pitch": 54,
                "velocity": 64,
                "duration": 0.06590909090908781,
                "tempo": 120.0
            },
            {
                "start_time": 26.904545454545453,
                "end_time": 27.07272727272727,
                "pitch": 54,
                "velocity": 64,
                "duration": 0.168181818181818,
                "tempo": 120.0
            },
            {
                "start_time": 27.104545454545452,
                "end_time": 27.27272727272727,
                "pitch": 47,
                "velocity": 64,
                "duration": 0.168181818181818,
                "tempo": 120.0
            },
            {
                "start_time": 27.30681818181818,
                "end_time": 27.581818181818182,
                "pitch": 40,
                "velocity": 64,
                "duration": 0.27500000000000213,
                "tempo": 120.0
            },
            {
                "start_time": 27.61590909090909,
                "end_time": 27.68409090909091,
                "pitch": 47,
                "velocity": 64,
                "duration": 0.06818181818182012,
                "tempo": 120.0
            },
            {
                "start_time": 27.718181818181815,
                "end_time": 27.98409090909091,
                "pitch": 47,
                "velocity": 64,
                "duration": 0.2659090909090942,
                "tempo": 120.0
            },
            {
                "start_time": 28.018181818181816,
                "end_time": 28.084090909090907,
                "pitch": 40,
                "velocity": 64,
                "duration": 0.06590909090909136,
                "tempo": 120.0
            },
            {
                "start_time": 28.118181818181817,
                "end_time": 28.379545454545454,
                "pitch": 40,
                "velocity": 64,
                "duration": 0.2613636363636367,
                "tempo": 120.0
            },
            {
                "start_time": 28.411363636363635,
                "end_time": 28.477272727272727,
                "pitch": 47,
                "velocity": 64,
                "duration": 0.06590909090909136,
                "tempo": 120.0
            },
            {
                "start_time": 28.509090909090908,
                "end_time": 28.777272727272727,
                "pitch": 47,
                "velocity": 64,
                "duration": 0.2681818181818194,
                "tempo": 120.0
            },
            {
                "start_time": 28.80909090909091,
                "end_time": 28.877272727272725,
                "pitch": 40,
                "velocity": 64,
                "duration": 0.06818181818181657,
                "tempo": 120.0
            },
            {
                "start_time": 28.909090909090907,
                "end_time": 29.18409090909091,
                "pitch": 40,
                "velocity": 64,
                "duration": 0.27500000000000213,
                "tempo": 120.0
            },
            {
                "start_time": 29.218181818181815,
                "end_time": 29.286363636363635,
                "pitch": 47,
                "velocity": 64,
                "duration": 0.06818181818182012,
                "tempo": 120.0
            },
            {
                "start_time": 29.320454545454545,
                "end_time": 29.58863636363636,
                "pitch": 47,
                "velocity": 64,
                "duration": 0.26818181818181586,
                "tempo": 120.0
            },
            {
                "start_time": 29.62272727272727,
                "end_time": 29.690909090909088,
                "pitch": 40,
                "velocity": 64,
                "duration": 0.06818181818181657,
                "tempo": 120.0
            },
            {
                "start_time": 29.722727272727273,
                "end_time": 29.98409090909091,
                "pitch": 40,
                "velocity": 64,
                "duration": 0.2613636363636367,
                "tempo": 120.0
            },
            {
                "start_time": 30.018181818181816,
                "end_time": 30.081818181818182,
                "pitch": 47,
                "velocity": 64,
                "duration": 0.06363636363636616,
                "tempo": 120.0
            },
            {
                "start_time": 30.11590909090909,
                "end_time": 30.28181818181818,
                "pitch": 47,
                "velocity": 64,
                "duration": 0.16590909090909278,
                "tempo": 120.0
            },
            {
                "start_time": 30.315909090909088,
                "end_time": 30.48181818181818,
                "pitch": 52,
                "velocity": 64,
                "duration": 0.16590909090909278,
                "tempo": 120.0
            },
            {
                "start_time": 30.51590909090909,
                "end_time": 30.79090909090909,
                "pitch": 45,
                "velocity": 64,
                "duration": 0.2749999999999986,
                "tempo": 120.0
            },
            {
                "start_time": 30.825,
                "end_time": 30.893181818181816,
                "pitch": 52,
                "velocity": 64,
                "duration": 0.06818181818181657,
                "tempo": 120.0
            },
            {
                "start_time": 30.924999999999997,
                "end_time": 31.186363636363634,
                "pitch": 52,
                "velocity": 64,
                "duration": 0.2613636363636367,
                "tempo": 120.0
            },
            {
                "start_time": 31.220454545454544,
                "end_time": 31.286363636363635,
                "pitch": 45,
                "velocity": 64,
                "duration": 0.06590909090909136,
                "tempo": 120.0
            },
            {
                "start_time": 31.318181818181817,
                "end_time": 31.593181818181815,
                "pitch": 45,
                "velocity": 64,
                "duration": 0.2749999999999986,
                "tempo": 120.0
            },
            {
                "start_time": 31.627272727272725,
                "end_time": 31.695454545454545,
                "pitch": 52,
                "velocity": 64,
                "duration": 0.06818181818182012,
                "tempo": 120.0
            },
            {
                "start_time": 31.729545454545452,
                "end_time": 31.99090909090909,
                "pitch": 52,
                "velocity": 64,
                "duration": 0.2613636363636367,
                "tempo": 120.0
            },
            {
                "start_time": 32.02272727272727,
                "end_time": 32.08863636363636,
                "pitch": 45,
                "velocity": 64,
                "duration": 0.06590909090908781,
                "tempo": 120.0
            },
            {
                "start_time": 32.12045454545454,
                "end_time": 32.388636363636365,
                "pitch": 45,
                "velocity": 64,
                "duration": 0.26818181818182296,
                "tempo": 120.0
            },
            {
                "start_time": 32.42045454545455,
                "end_time": 32.48863636363636,
                "pitch": 52,
                "velocity": 64,
                "duration": 0.06818181818181301,
                "tempo": 120.0
            },
            {
                "start_time": 32.52045454545454,
                "end_time": 32.788636363636364,
                "pitch": 52,
                "velocity": 64,
                "duration": 0.26818181818182296,
                "tempo": 120.0
            },
            {
                "start_time": 32.820454545454545,
                "end_time": 32.888636363636365,
                "pitch": 45,
                "velocity": 64,
                "duration": 0.06818181818182012,
                "tempo": 120.0
            },
            {
                "start_time": 32.92045454545455,
                "end_time": 33.195454545454545,
                "pitch": 45,
                "velocity": 64,
                "duration": 0.2749999999999986,
                "tempo": 120.0
            },
            {
                "start_time": 33.22954545454545,
                "end_time": 33.29772727272727,
                "pitch": 52,
                "velocity": 64,
                "duration": 0.06818181818182012,
                "tempo": 120.0
            },
            {
                "start_time": 33.33181818181818,
                "end_time": 33.49772727272727,
                "pitch": 52,
                "velocity": 64,
                "duration": 0.16590909090908923,
                "tempo": 120.0
            },
            {
                "start_time": 33.53181818181818,
                "end_time": 33.69772727272727,
                "pitch": 45,
                "velocity": 64,
                "duration": 0.16590909090908923,
                "tempo": 120.0
            },
            {
                "start_time": 33.73181818181818,
                "end_time": 33.99772727272727,
                "pitch": 42,
                "velocity": 64,
                "duration": 0.26590909090909065,
                "tempo": 120.0
            },
            {
                "start_time": 34.03181818181818,
                "end_time": 34.09772727272727,
                "pitch": 49,
                "velocity": 64,
                "duration": 0.06590909090908781,
                "tempo": 120.0
            },
            {
                "start_time": 34.13181818181818,
                "end_time": 34.39772727272727,
                "pitch": 49,
                "velocity": 64,
                "duration": 0.26590909090909065,
                "tempo": 120.0
            },
            {
                "start_time": 34.43181818181818,
                "end_time": 34.49772727272727,
                "pitch": 42,
                "velocity": 64,
                "duration": 0.06590909090908781,
                "tempo": 120.0
            },
            {
                "start_time": 34.53181818181818,
                "end_time": 34.79772727272727,
                "pitch": 42,
                "velocity": 64,
                "duration": 0.26590909090909065,
                "tempo": 120.0
            },
            {
                "start_time": 34.83181818181818,
                "end_time": 34.89772727272727,
                "pitch": 49,
                "velocity": 64,
                "duration": 0.06590909090909491,
                "tempo": 120.0
            },
            {
                "start_time": 34.93181818181818,
                "end_time": 35.19318181818181,
                "pitch": 49,
                "velocity": 64,
                "duration": 0.26136363636363313,
                "tempo": 120.0
            },
            {
                "start_time": 35.225,
                "end_time": 35.29090909090909,
                "pitch": 42,
                "velocity": 64,
                "duration": 0.06590909090908781,
                "tempo": 120.0
            },
            {
                "start_time": 35.324999999999996,
                "end_time": 35.59318181818182,
                "pitch": 42,
                "velocity": 64,
                "duration": 0.26818181818182296,
                "tempo": 120.0
            },
            {
                "start_time": 35.627272727272725,
                "end_time": 35.69318181818181,
                "pitch": 49,
                "velocity": 64,
                "duration": 0.06590909090908781,
                "tempo": 120.0
            },
            {
                "start_time": 35.72727272727273,
                "end_time": 35.99318181818182,
                "pitch": 49,
                "velocity": 64,
                "duration": 0.26590909090909065,
                "tempo": 120.0
            },
            {
                "start_time": 36.027272727272724,
                "end_time": 36.09318181818182,
                "pitch": 42,
                "velocity": 64,
                "duration": 0.06590909090909491,
                "tempo": 120.0
            },
            {
                "start_time": 36.127272727272725,
                "end_time": 36.393181818181816,
                "pitch": 42,
                "velocity": 64,
                "duration": 0.26590909090909065,
                "tempo": 120.0
            },
            {
                "start_time": 36.42727272727272,
                "end_time": 36.49318181818182,
                "pitch": 49,
                "velocity": 64,
                "duration": 0.06590909090909491,
                "tempo": 120.0
            },
            {
                "start_time": 36.527272727272724,
                "end_time": 36.69772727272727,
                "pitch": 49,
                "velocity": 64,
                "duration": 0.17045454545454675,
                "tempo": 120.0
            },
            {
                "start_time": 36.73181818181818,
                "end_time": 36.904545454545456,
                "pitch": 42,
                "velocity": 64,
                "duration": 0.17272727272727906,
                "tempo": 120.0
            },
            {
                "start_time": 36.93636363636364,
                "end_time": 37.19772727272727,
                "pitch": 47,
                "velocity": 64,
                "duration": 0.26136363636363313,
                "tempo": 120.0
            },
            {
                "start_time": 37.23181818181818,
                "end_time": 37.29772727272727,
                "pitch": 54,
                "velocity": 64,
                "duration": 0.06590909090909491,
                "tempo": 120.0
            },
            {
                "start_time": 37.32954545454545,
                "end_time": 37.60454545454545,
                "pitch": 54,
                "velocity": 64,
                "duration": 0.2749999999999986,
                "tempo": 120.0
            },
            {
                "start_time": 37.63863636363636,
                "end_time": 37.70681818181818,
                "pitch": 47,
                "velocity": 64,
                "duration": 0.06818181818182012,
                "tempo": 120.0
            },
            {
                "start_time": 37.74090909090909,
                "end_time": 38.00681818181818,
                "pitch": 47,
                "velocity": 64,
                "duration": 0.26590909090909065,
                "tempo": 120.0
            },
            {
                "start_time": 38.04090909090909,
                "end_time": 38.10681818181818,
                "pitch": 54,
                "velocity": 64,
                "duration": 0.06590909090908781,
                "tempo": 120.0
            },
            {
                "start_time": 38.14090909090909,
                "end_time": 38.402272727272724,
                "pitch": 54,
                "velocity": 64,
                "duration": 0.26136363636363313,
                "tempo": 120.0
            },
            {
                "start_time": 38.434090909090905,
                "end_time": 38.5,
                "pitch": 47,
                "velocity": 64,
                "duration": 0.06590909090909491,
                "tempo": 120.0
            },
            {
                "start_time": 38.53181818181818,
                "end_time": 38.80681818181818,
                "pitch": 47,
                "velocity": 64,
                "duration": 0.2749999999999986,
                "tempo": 120.0
            },
            {
                "start_time": 38.840909090909086,
                "end_time": 38.90909090909091,
                "pitch": 54,
                "velocity": 64,
                "duration": 0.06818181818182012,
                "tempo": 120.0
            },
            {
                "start_time": 38.94318181818181,
                "end_time": 39.20454545454545,
                "pitch": 54,
                "velocity": 64,
                "duration": 0.26136363636364024,
                "tempo": 120.0
            },
            {
                "start_time": 39.236363636363635,
                "end_time": 39.30227272727272,
                "pitch": 47,
                "velocity": 64,
                "duration": 0.06590909090908781,
                "tempo": 120.0
            },
            {
                "start_time": 39.336363636363636,
                "end_time": 39.60909090909091,
                "pitch": 47,
                "velocity": 64,
                "duration": 0.2727272727272734,
                "tempo": 120.0
            },
            {
                "start_time": 39.643181818181816,
                "end_time": 39.711363636363636,
                "pitch": 54,
                "velocity": 64,
                "duration": 0.06818181818182012,
                "tempo": 120.0
            },
            {
                "start_time": 39.74545454545454,
                "end_time": 39.90909090909091,
                "pitch": 54,
                "velocity": 64,
                "duration": 0.16363636363636402,
                "tempo": 120.0
            },
            {
                "start_time": 39.94090909090909,
                "end_time": 40.10454545454545,
                "pitch": 47,
                "velocity": 64,
                "duration": 0.16363636363636402,
                "tempo": 120.0
            },
            {
                "start_time": 40.13863636363636,
                "end_time": 40.41136363636363,
                "pitch": 40,
                "velocity": 64,
                "duration": 0.2727272727272734,
                "tempo": 120.0
            },
            {
                "start_time": 40.445454545454545,
                "end_time": 40.51363636363636,
                "pitch": 47,
                "velocity": 64,
                "duration": 0.06818181818181301,
                "tempo": 120.0
            },
            {
                "start_time": 40.54772727272727,
                "end_time": 40.81590909090909,
                "pitch": 47,
                "velocity": 64,
                "duration": 0.26818181818181586,
                "tempo": 120.0
            },
            {
                "start_time": 40.84772727272727,
                "end_time": 40.91590909090909,
                "pitch": 40,
                "velocity": 64,
                "duration": 0.06818181818182012,
                "tempo": 120.0
            },
            {
                "start_time": 40.94772727272727,
                "end_time": 41.209090909090904,
                "pitch": 40,
                "velocity": 64,
                "duration": 0.26136363636363313,
                "tempo": 120.0
            },
            {
                "start_time": 41.24318181818182,
                "end_time": 41.30681818181818,
                "pitch": 47,
                "velocity": 64,
                "duration": 0.0636363636363626,
                "tempo": 120.0
            },
            {
                "start_time": 41.340909090909086,
                "end_time": 41.60909090909091,
                "pitch": 47,
                "velocity": 64,
                "duration": 0.26818181818182296,
                "tempo": 120.0
            },
            {
                "start_time": 41.643181818181816,
                "end_time": 41.709090909090904,
                "pitch": 40,
                "velocity": 64,
                "duration": 0.06590909090908781,
                "tempo": 120.0
            },
            {
                "start_time": 41.74318181818182,
                "end_time": 42.018181818181816,
                "pitch": 40,
                "velocity": 64,
                "duration": 0.2749999999999986,
                "tempo": 120.0
            },
            {
                "start_time": 42.05227272727272,
                "end_time": 42.12045454545454,
                "pitch": 47,
                "velocity": 64,
                "duration": 0.06818181818182012,
                "tempo": 120.0
            },
            {
                "start_time": 42.15454545454545,
                "end_time": 42.42045454545455,
                "pitch": 47,
                "velocity": 64,
                "duration": 0.26590909090909776,
                "tempo": 120.0
            },
            {
                "start_time": 42.45454545454545,
                "end_time": 42.52045454545454,
                "pitch": 40,
                "velocity": 64,
                "duration": 0.06590909090908781,
                "tempo": 120.0
            },
            {
                "start_time": 42.554545454545455,
                "end_time": 42.820454545454545,
                "pitch": 40,
                "velocity": 64,
                "duration": 0.26590909090909065,
                "tempo": 120.0
            },
            {
                "start_time": 42.85454545454545,
                "end_time": 42.92045454545455,
                "pitch": 47,
                "velocity": 64,
                "duration": 0.06590909090909491,
                "tempo": 120.0
            },
            {
                "start_time": 42.95454545454545,
                "end_time": 43.12272727272727,
                "pitch": 47,
                "velocity": 64,
                "duration": 0.16818181818181444,
                "tempo": 120.0
            },
            {
                "start_time": 43.15681818181818,
                "end_time": 43.32272727272727,
                "pitch": 52,
                "velocity": 64,
                "duration": 0.16590909090908923,
                "tempo": 120.0
            },
            {
                "start_time": 43.35681818181818,
                "end_time": 43.625,
                "pitch": 50,
                "velocity": 64,
                "duration": 0.26818181818182296,
                "tempo": 120.0
            },
            {
                "start_time": 43.65681818181818,
                "end_time": 43.725,
                "pitch": 50,
                "velocity": 64,
                "duration": 0.06818181818182012,
                "tempo": 120.0
            },
            {
                "start_time": 43.75681818181818,
                "end_time": 44.51590909090909,
                "pitch": 0,
                "velocity": 64,
                "duration": 0.7590909090909079,
                "tempo": 120.0
            },
            {
                "start_time": 44.55,
                "end_time": 44.81590909090909,
                "pitch": 50,
                "velocity": 64,
                "duration": 0.26590909090909065,
                "tempo": 120.0
            },
            {
                "start_time": 44.849999999999994,
                "end_time": 44.91590909090909,
                "pitch": 50,
                "velocity": 64,
                "duration": 0.06590909090909491,
                "tempo": 120.0
            },
            {
                "start_time": 44.949999999999996,
                "end_time": 45.71818181818182,
                "pitch": 0,
                "velocity": 64,
                "duration": 0.768181818181823,
                "tempo": 120.0
            },
            {
                "start_time": 45.752272727272725,
                "end_time": 46.018181818181816,
                "pitch": 50,
                "velocity": 64,
                "duration": 0.26590909090909065,
                "tempo": 120.0
            },
            {
                "start_time": 46.05227272727272,
                "end_time": 46.11818181818182,
                "pitch": 50,
                "velocity": 64,
                "duration": 0.06590909090909491,
                "tempo": 120.0
            },
            {
                "start_time": 46.152272727272724,
                "end_time": 46.32272727272727,
                "pitch": 0,
                "velocity": 64,
                "duration": 0.17045454545454675,
                "tempo": 120.0
            },
            {
                "start_time": 46.35681818181818,
                "end_time": 47.925,
                "pitch": 45,
                "velocity": 64,
                "duration": 1.5681818181818201,
                "tempo": 120.0
            },
            {
                "start_time": 47.95681818181818,
                "end_time": 48.025,
                "pitch": 44,
                "velocity": 64,
                "duration": 0.06818181818182012,
                "tempo": 120.0
            },
            {
                "start_time": 48.05681818181818,
                "end_time": 48.125,
                "pitch": 45,
                "velocity": 64,
                "duration": 0.06818181818182012,
                "tempo": 120.0
            },
            {
                "start_time": 48.15681818181818,
                "end_time": 48.324999999999996,
                "pitch": 0,
                "velocity": 64,
                "duration": 0.16818181818181444,
                "tempo": 120.0
            },
            {
                "start_time": 48.35681818181818,
                "end_time": 48.425,
                "pitch": 45,
                "velocity": 64,
                "duration": 0.06818181818182012,
                "tempo": 120.0
            },
            {
                "start_time": 48.45681818181818,
                "end_time": 48.525,
                "pitch": 45,
                "velocity": 64,
                "duration": 0.06818181818182012,
                "tempo": 120.0
            },
            {
                "start_time": 48.55681818181818,
                "end_time": 48.627272727272725,
                "pitch": 45,
                "velocity": 64,
                "duration": 0.07045454545454533,
                "tempo": 120.0
            },
            {
                "start_time": 48.66136363636363,
                "end_time": 48.72954545454545,
                "pitch": 45,
                "velocity": 64,
                "duration": 0.06818181818182012,
                "tempo": 120.0
            },
            {
                "start_time": 48.76363636363636,
                "end_time": 48.934090909090905,
                "pitch": 0,
                "velocity": 64,
                "duration": 0.17045454545454675,
                "tempo": 120.0
            },
            {
                "start_time": 48.96818181818182,
                "end_time": 49.22954545454545,
                "pitch": 44,
                "velocity": 64,
                "duration": 0.26136363636363313,
                "tempo": 120.0
            },
            {
                "start_time": 49.26136363636363,
                "end_time": 49.32727272727273,
                "pitch": 45,
                "velocity": 64,
                "duration": 0.06590909090909491,
                "tempo": 120.0
            },
            {
                "start_time": 49.361363636363635,
                "end_time": 49.72954545454545,
                "pitch": 0,
                "velocity": 64,
                "duration": 0.3681818181818173,
                "tempo": 120.0
            },
            {
                "start_time": 49.76363636363636,
                "end_time": 50.02954545454545,
                "pitch": 50,
                "velocity": 64,
                "duration": 0.26590909090909065,
                "tempo": 120.0
            },
            {
                "start_time": 50.06363636363636,
                "end_time": 50.12954545454545,
                "pitch": 50,
                "velocity": 64,
                "duration": 0.06590909090908781,
                "tempo": 120.0
            },
            {
                "start_time": 50.163636363636364,
                "end_time": 50.929545454545455,
                "pitch": 0,
                "velocity": 64,
                "duration": 0.7659090909090907,
                "tempo": 120.0
            },
            {
                "start_time": 50.96363636363636,
                "end_time": 51.22954545454545,
                "pitch": 50,
                "velocity": 64,
                "duration": 0.26590909090909065,
                "tempo": 120.0
            },
            {
                "start_time": 51.26363636363636,
                "end_time": 51.32954545454545,
                "pitch": 50,
                "velocity": 64,
                "duration": 0.06590909090909491,
                "tempo": 120.0
            },
            {
                "start_time": 51.36363636363636,
                "end_time": 52.13181818181818,
                "pitch": 0,
                "velocity": 64,
                "duration": 0.768181818181823,
                "tempo": 120.0
            },
            {
                "start_time": 52.16590909090909,
                "end_time": 52.43181818181818,
                "pitch": 50,
                "velocity": 64,
                "duration": 0.26590909090909065,
                "tempo": 120.0
            },
            {
                "start_time": 52.465909090909086,
                "end_time": 52.53181818181818,
                "pitch": 50,
                "velocity": 64,
                "duration": 0.06590909090909491,
                "tempo": 120.0
            },
            {
                "start_time": 52.56590909090909,
                "end_time": 52.736363636363635,
                "pitch": 0,
                "velocity": 64,
                "duration": 0.17045454545454675,
                "tempo": 120.0
            },
            {
                "start_time": 52.77045454545454,
                "end_time": 54.34318181818182,
                "pitch": 45,
                "velocity": 64,
                "duration": 1.5727272727272776,
                "tempo": 120.0
            },
            {
                "start_time": 54.377272727272725,
                "end_time": 54.445454545454545,
                "pitch": 44,
                "velocity": 64,
                "duration": 0.06818181818182012,
                "tempo": 120.0
            },
            {
                "start_time": 54.47954545454545,
                "end_time": 54.54772727272727,
                "pitch": 45,
                "velocity": 64,
                "duration": 0.06818181818182012,
                "tempo": 120.0
            },
            {
                "start_time": 54.58181818181818,
                "end_time": 54.74545454545454,
                "pitch": 0,
                "velocity": 64,
                "duration": 0.16363636363636402,
                "tempo": 120.0
            },
            {
                "start_time": 54.777272727272724,
                "end_time": 54.84318181818182,
                "pitch": 45,
                "velocity": 64,
                "duration": 0.06590909090909491,
                "tempo": 120.0
            },
            {
                "start_time": 54.875,
                "end_time": 55.043181818181814,
                "pitch": 0,
                "velocity": 64,
                "duration": 0.16818181818181444,
                "tempo": 120.0
            },
            {
                "start_time": 55.07727272727273,
                "end_time": 55.14545454545454,
                "pitch": 45,
                "velocity": 64,
                "duration": 0.06818181818181301,
                "tempo": 120.0
            },
            {
                "start_time": 55.179545454545455,
                "end_time": 55.349999999999994,
                "pitch": 0,
                "velocity": 64,
                "duration": 0.17045454545453964,
                "tempo": 120.0
            },
            {
                "start_time": 55.38409090909091,
                "end_time": 55.74318181818182,
                "pitch": 45,
                "velocity": 64,
                "duration": 0.35909090909090935,
                "tempo": 120.0
            },
            {
                "start_time": 55.777272727272724,
                "end_time": 56.143181818181816,
                "pitch": 0,
                "velocity": 64,
                "duration": 0.36590909090909207,
                "tempo": 120.0
            },
            {
                "start_time": 56.17727272727272,
                "end_time": 56.44318181818181,
                "pitch": 50,
                "velocity": 64,
                "duration": 0.26590909090909065,
                "tempo": 120.0
            },
            {
                "start_time": 56.47727272727273,
                "end_time": 56.543181818181814,
                "pitch": 50,
                "velocity": 64,
                "duration": 0.06590909090908781,
                "tempo": 120.0
            },
            {
                "start_time": 56.57727272727273,
                "end_time": 57.345454545454544,
                "pitch": 0,
                "velocity": 64,
                "duration": 0.7681818181818159,
                "tempo": 120.0
            },
            {
                "start_time": 57.37954545454545,
                "end_time": 57.64772727272727,
                "pitch": 50,
                "velocity": 64,
                "duration": 0.26818181818182296,
                "tempo": 120.0
            },
            {
                "start_time": 57.68181818181818,
                "end_time": 57.75,
                "pitch": 50,
                "velocity": 64,
                "duration": 0.06818181818182012,
                "tempo": 120.0
            },
            {
                "start_time": 57.78181818181818,
                "end_time": 58.55,
                "pitch": 0,
                "velocity": 64,
                "duration": 0.7681818181818159,
                "tempo": 120.0
            },
            {
                "start_time": 58.58181818181818,
                "end_time": 58.849999999999994,
                "pitch": 50,
                "velocity": 64,
                "duration": 0.26818181818181586,
                "tempo": 120.0
            },
            {
                "start_time": 58.881818181818176,
                "end_time": 58.949999999999996,
                "pitch": 50,
                "velocity": 64,
                "duration": 0.06818181818182012,
                "tempo": 120.0
            },
            {
                "start_time": 58.98181818181818,
                "end_time": 59.15454545454545,
                "pitch": 0,
                "velocity": 64,
                "duration": 0.17272727272727195,
                "tempo": 120.0
            },
            {
                "start_time": 59.18863636363636,
                "end_time": 60.756818181818176,
                "pitch": 45,
                "velocity": 64,
                "duration": 1.568181818181813,
                "tempo": 120.0
            },
            {
                "start_time": 60.79090909090909,
                "end_time": 60.85909090909091,
                "pitch": 44,
                "velocity": 64,
                "duration": 0.06818181818182012,
                "tempo": 120.0
            },
            {
                "start_time": 60.893181818181816,
                "end_time": 60.961363636363636,
                "pitch": 45,
                "velocity": 64,
                "duration": 0.06818181818182012,
                "tempo": 120.0
            },
            {
                "start_time": 60.99545454545454,
                "end_time": 61.15909090909091,
                "pitch": 0,
                "velocity": 64,
                "duration": 0.16363636363636402,
                "tempo": 120.0
            },
            {
                "start_time": 61.19090909090909,
                "end_time": 61.256818181818176,
                "pitch": 57,
                "velocity": 64,
                "duration": 0.06590909090908781,
                "tempo": 120.0
            },
            {
                "start_time": 61.29090909090909,
                "end_time": 61.35454545454545,
                "pitch": 57,
                "velocity": 64,
                "duration": 0.0636363636363626,
                "tempo": 120.0
            },
            {
                "start_time": 61.38863636363636,
                "end_time": 61.45681818181818,
                "pitch": 57,
                "velocity": 64,
                "duration": 0.06818181818182012,
                "tempo": 120.0
            },
            {
                "start_time": 61.490909090909085,
                "end_time": 61.559090909090905,
                "pitch": 57,
                "velocity": 64,
                "duration": 0.06818181818182012,
                "tempo": 120.0
            },
            {
                "start_time": 61.59318181818182,
                "end_time": 61.76590909090909,
                "pitch": 0,
                "velocity": 64,
                "duration": 0.17272727272727195,
                "tempo": 120.0
            },
            {
                "start_time": 61.79772727272727,
                "end_time": 62.059090909090905,
                "pitch": 56,
                "velocity": 64,
                "duration": 0.26136363636363313,
                "tempo": 120.0
            },
            {
                "start_time": 62.09318181818182,
                "end_time": 62.15681818181818,
                "pitch": 57,
                "velocity": 64,
                "duration": 0.0636363636363626,
                "tempo": 120.0
            },
            {
                "start_time": 62.19090909090909,
                "end_time": 62.55681818181818,
                "pitch": 0,
                "velocity": 64,
                "duration": 0.36590909090909207,
                "tempo": 120.0
            },
            {
                "start_time": 62.590909090909086,
                "end_time": 62.85681818181818,
                "pitch": 50,
                "velocity": 64,
                "duration": 0.26590909090909065,
                "tempo": 120.0
            },
            {
                "start_time": 62.89090909090909,
                "end_time": 62.95681818181818,
                "pitch": 50,
                "velocity": 64,
                "duration": 0.06590909090908781,
                "tempo": 120.0
            },
            {
                "start_time": 62.990909090909085,
                "end_time": 63.75909090909091,
                "pitch": 0,
                "velocity": 64,
                "duration": 0.768181818181823,
                "tempo": 120.0
            },
            {
                "start_time": 63.793181818181814,
                "end_time": 64.05909090909091,
                "pitch": 50,
                "velocity": 64,
                "duration": 0.26590909090909776,
                "tempo": 120.0
            },
            {
                "start_time": 64.09318181818182,
                "end_time": 64.1590909090909,
                "pitch": 50,
                "velocity": 64,
                "duration": 0.06590909090908781,
                "tempo": 120.0
            },
            {
                "start_time": 64.19318181818181,
                "end_time": 64.96363636363635,
                "pitch": 0,
                "velocity": 64,
                "duration": 0.7704545454545411,
                "tempo": 120.0
            },
            {
                "start_time": 64.99545454545454,
                "end_time": 65.26363636363637,
                "pitch": 50,
                "velocity": 64,
                "duration": 0.26818181818183007,
                "tempo": 120.0
            },
            {
                "start_time": 65.29545454545455,
                "end_time": 65.36363636363636,
                "pitch": 62,
                "velocity": 64,
                "duration": 0.06818181818181301,
                "tempo": 120.0
            },
            {
                "start_time": 65.39772727272727,
                "end_time": 65.56818181818181,
                "pitch": 0,
                "velocity": 64,
                "duration": 0.17045454545454675,
                "tempo": 120.0
            },
            {
                "start_time": 65.60227272727272,
                "end_time": 67.76363636363637,
                "pitch": 45,
                "velocity": 64,
                "duration": 2.161363636363646,
                "tempo": 120.0
            },
            {
                "start_time": 67.79772727272727,
                "end_time": 67.96818181818182,
                "pitch": 45,
                "velocity": 64,
                "duration": 0.17045454545454675,
                "tempo": 120.0
            },
            {
                "start_time": 68.00227272727273,
                "end_time": 68.175,
                "pitch": 0,
                "velocity": 64,
                "duration": 0.17272727272727195,
                "tempo": 120.0
            },
            {
                "start_time": 68.20681818181818,
                "end_time": 68.47727272727272,
                "pitch": 45,
                "velocity": 64,
                "duration": 0.27045454545454106,
                "tempo": 120.0
            },
            {
                "start_time": 68.5090909090909,
                "end_time": 68.77272727272727,
                "pitch": 44,
                "velocity": 64,
                "duration": 0.26363636363636545,
                "tempo": 120.0
            },
            {
                "start_time": 68.80681818181817,
                "end_time": 70.175,
                "pitch": 42,
                "velocity": 64,
                "duration": 1.3681818181818244,
                "tempo": 120.0
            },
            {
                "start_time": 70.2090909090909,
                "end_time": 70.48181818181818,
                "pitch": 42,
                "velocity": 64,
                "duration": 0.2727272727272805,
                "tempo": 120.0
            },
            {
                "start_time": 70.51590909090909,
                "end_time": 71.79090909090908,
                "pitch": 40,
                "velocity": 64,
                "duration": 1.2749999999999915,
                "tempo": 120.0
            },
            {
                "start_time": 71.82272727272726,
                "end_time": 72.0840909090909,
                "pitch": 40,
                "velocity": 64,
                "duration": 0.26136363636364024,
                "tempo": 120.0
            },
            {
                "start_time": 72.11818181818181,
                "end_time": 72.98636363636363,
                "pitch": 42,
                "velocity": 64,
                "duration": 0.8681818181818244,
                "tempo": 120.0
            },
            {
                "start_time": 73.01818181818182,
                "end_time": 73.8,
                "pitch": 54,
                "velocity": 64,
                "duration": 0.7818181818181813,
                "tempo": 120.0
            },
            {
                "start_time": 73.83181818181818,
                "end_time": 73.89772727272727,
                "pitch": 0,
                "velocity": 64,
                "duration": 0.06590909090908781,
                "tempo": 120.0
            },
            {
                "start_time": 73.92954545454545,
                "end_time": 73.99545454545454,
                "pitch": 54,
                "velocity": 64,
                "duration": 0.06590909090908781,
                "tempo": 120.0
            },
            {
                "start_time": 74.02727272727272,
                "end_time": 74.09318181818182,
                "pitch": 0,
                "velocity": 64,
                "duration": 0.06590909090910202,
                "tempo": 120.0
            },
            {
                "start_time": 74.125,
                "end_time": 74.19090909090909,
                "pitch": 54,
                "velocity": 64,
                "duration": 0.06590909090908781,
                "tempo": 120.0
            },
            {
                "start_time": 74.225,
                "end_time": 74.29090909090908,
                "pitch": 0,
                "velocity": 64,
                "duration": 0.06590909090908781,
                "tempo": 120.0
            },
            {
                "start_time": 74.325,
                "end_time": 74.39090909090909,
                "pitch": 54,
                "velocity": 64,
                "duration": 0.06590909090908781,
                "tempo": 120.0
            },
            {
                "start_time": 74.425,
                "end_time": 74.49090909090908,
                "pitch": 0,
                "velocity": 64,
                "duration": 0.06590909090908781,
                "tempo": 120.0
            },
            {
                "start_time": 74.52499999999999,
                "end_time": 74.5909090909091,
                "pitch": 54,
                "velocity": 64,
                "duration": 0.06590909090910202,
                "tempo": 120.0
            },
            {
                "start_time": 74.625,
                "end_time": 75.40454545454546,
                "pitch": 0,
                "velocity": 64,
                "duration": 0.7795454545454561,
                "tempo": 120.0
            },
            {
                "start_time": 75.43863636363636,
                "end_time": 75.71363636363635,
                "pitch": 38,
                "velocity": 64,
                "duration": 0.2749999999999915,
                "tempo": 120.0
            },
            {
                "start_time": 75.74772727272727,
                "end_time": 76.01136363636363,
                "pitch": 45,
                "velocity": 64,
                "duration": 0.26363636363635123,
                "tempo": 120.0
            },
            {
                "start_time": 76.04545454545455,
                "end_time": 76.11136363636363,
                "pitch": 50,
                "velocity": 64,
                "duration": 0.06590909090908781,
                "tempo": 120.0
            },
            {
                "start_time": 76.14318181818182,
                "end_time": 76.2090909090909,
                "pitch": 0,
                "velocity": 64,
                "duration": 0.06590909090908781,
                "tempo": 120.0
            },
            {
                "start_time": 76.24090909090908,
                "end_time": 76.5090909090909,
                "pitch": 50,
                "velocity": 64,
                "duration": 0.26818181818181586,
                "tempo": 120.0
            },
            {
                "start_time": 76.54318181818182,
                "end_time": 76.61136363636363,
                "pitch": 45,
                "velocity": 64,
                "duration": 0.06818181818181301,
                "tempo": 120.0
            },
            {
                "start_time": 76.64318181818182,
                "end_time": 76.81136363636364,
                "pitch": 45,
                "velocity": 64,
                "duration": 0.16818181818182154,
                "tempo": 120.0
            },
            {
                "start_time": 76.84545454545454,
                "end_time": 76.91363636363636,
                "pitch": 50,
                "velocity": 64,
                "duration": 0.06818181818181301,
                "tempo": 120.0
            },
            {
                "start_time": 76.94545454545454,
                "end_time": 77.01363636363637,
                "pitch": 0,
                "velocity": 64,
                "duration": 0.06818181818182723,
                "tempo": 120.0
            },
            {
                "start_time": 77.04772727272727,
                "end_time": 77.31363636363636,
                "pitch": 40,
                "velocity": 64,
                "duration": 0.26590909090909065,
                "tempo": 120.0
            },
            {
                "start_time": 77.34772727272727,
                "end_time": 77.61363636363636,
                "pitch": 47,
                "velocity": 64,
                "duration": 0.26590909090909065,
                "tempo": 120.0
            },
            {
                "start_time": 77.64772727272727,
                "end_time": 77.7159090909091,
                "pitch": 52,
                "velocity": 64,
                "duration": 0.06818181818182723,
                "tempo": 120.0
            },
            {
                "start_time": 77.75,
                "end_time": 77.81590909090909,
                "pitch": 0,
                "velocity": 64,
                "duration": 0.06590909090908781,
                "tempo": 120.0
            },
            {
                "start_time": 77.85,
                "end_time": 78.11590909090908,
                "pitch": 52,
                "velocity": 64,
                "duration": 0.26590909090909065,
                "tempo": 120.0
            },
            {
                "start_time": 78.14999999999999,
                "end_time": 78.2159090909091,
                "pitch": 47,
                "velocity": 64,
                "duration": 0.06590909090910202,
                "tempo": 120.0
            },
            {
                "start_time": 78.25,
                "end_time": 78.41818181818181,
                "pitch": 47,
                "velocity": 64,
                "duration": 0.16818181818180733,
                "tempo": 120.0
            },
            {
                "start_time": 78.45,
                "end_time": 78.51818181818182,
                "pitch": 52,
                "velocity": 64,
                "duration": 0.06818181818181301,
                "tempo": 120.0
            },
            {
                "start_time": 78.55227272727272,
                "end_time": 78.61818181818181,
                "pitch": 0,
                "velocity": 64,
                "duration": 0.06590909090908781,
                "tempo": 120.0
            },
            {
                "start_time": 78.65227272727272,
                "end_time": 78.92045454545455,
                "pitch": 42,
                "velocity": 64,
                "duration": 0.26818181818183007,
                "tempo": 120.0
            },
            {
                "start_time": 78.95454545454545,
                "end_time": 79.22045454545454,
                "pitch": 49,
                "velocity": 64,
                "duration": 0.26590909090909065,
                "tempo": 120.0
            },
            {
                "start_time": 79.25454545454545,
                "end_time": 79.32045454545454,
                "pitch": 54,
                "velocity": 64,
                "duration": 0.06590909090908781,
                "tempo": 120.0
            },
            {
                "start_time": 79.35454545454544,
                "end_time": 79.42045454545455,
                "pitch": 0,
                "velocity": 64,
                "duration": 0.06590909090910202,
                "tempo": 120.0
            },
            {
                "start_time": 79.45454545454545,
                "end_time": 79.72272727272727,
                "pitch": 54,
                "velocity": 64,
                "duration": 0.26818181818181586,
                "tempo": 120.0
            },
            {
                "start_time": 79.75681818181818,
                "end_time": 79.825,
                "pitch": 49,
                "velocity": 64,
                "duration": 0.06818181818182723,
                "tempo": 120.0
            },
            {
                "start_time": 79.85681818181818,
                "end_time": 80.02499999999999,
                "pitch": 49,
                "velocity": 64,
                "duration": 0.16818181818180733,
                "tempo": 120.0
            },
            {
                "start_time": 80.05681818181817,
                "end_time": 80.125,
                "pitch": 54,
                "velocity": 64,
                "duration": 0.06818181818182723,
                "tempo": 120.0
            },
            {
                "start_time": 80.15681818181818,
                "end_time": 80.225,
                "pitch": 0,
                "velocity": 64,
                "duration": 0.06818181818181301,
                "tempo": 120.0
            },
            {
                "start_time": 80.25681818181818,
                "end_time": 80.52499999999999,
                "pitch": 42,
                "velocity": 64,
                "duration": 0.26818181818181586,
                "tempo": 120.0
            },
            {
                "start_time": 80.55909090909091,
                "end_time": 80.82727272727273,
                "pitch": 49,
                "velocity": 64,
                "duration": 0.26818181818181586,
                "tempo": 120.0
            },
            {
                "start_time": 80.86136363636363,
                "end_time": 80.92954545454545,
                "pitch": 54,
                "velocity": 64,
                "duration": 0.06818181818181301,
                "tempo": 120.0
            },
            {
                "start_time": 80.96136363636363,
                "end_time": 81.02954545454546,
                "pitch": 0,
                "velocity": 64,
                "duration": 0.06818181818182723,
                "tempo": 120.0
            },
            {
                "start_time": 81.06363636363636,
                "end_time": 81.32954545454545,
                "pitch": 54,
                "velocity": 64,
                "duration": 0.26590909090909065,
                "tempo": 120.0
            },
            {
                "start_time": 81.36363636363636,
                "end_time": 81.42954545454545,
                "pitch": 49,
                "velocity": 64,
                "duration": 0.06590909090908781,
                "tempo": 120.0
            },
            {
                "start_time": 81.46363636363635,
                "end_time": 81.63181818181818,
                "pitch": 49,
                "velocity": 64,
                "duration": 0.16818181818182154,
                "tempo": 120.0
            },
            {
                "start_time": 81.66363636363636,
                "end_time": 81.73181818181818,
                "pitch": 54,
                "velocity": 64,
                "duration": 0.06818181818182723,
                "tempo": 120.0
            },
            {
                "start_time": 81.76590909090909,
                "end_time": 81.83181818181818,
                "pitch": 0,
                "velocity": 64,
                "duration": 0.06590909090908781,
                "tempo": 120.0
            },
            {
                "start_time": 81.86590909090908,
                "end_time": 82.13181818181818,
                "pitch": 38,
                "velocity": 64,
                "duration": 0.26590909090909065,
                "tempo": 120.0
            },
            {
                "start_time": 82.16590909090908,
                "end_time": 82.43409090909091,
                "pitch": 45,
                "velocity": 64,
                "duration": 0.26818181818183007,
                "tempo": 120.0
            },
            {
                "start_time": 82.4659090909091,
                "end_time": 82.5340909090909,
                "pitch": 50,
                "velocity": 64,
                "duration": 0.06818181818181301,
                "tempo": 120.0
            },
            {
                "start_time": 82.56818181818181,
                "end_time": 82.6340909090909,
                "pitch": 0,
                "velocity": 64,
                "duration": 0.06590909090908781,
                "tempo": 120.0
            },
            {
                "start_time": 82.66818181818181,
                "end_time": 82.93636363636364,
                "pitch": 50,
                "velocity": 64,
                "duration": 0.26818181818183007,
                "tempo": 120.0
            },
            {
                "start_time": 82.97045454545454,
                "end_time": 83.03636363636363,
                "pitch": 45,
                "velocity": 64,
                "duration": 0.06590909090908781,
                "tempo": 120.0
            },
            {
                "start_time": 83.07045454545454,
                "end_time": 83.23863636363636,
                "pitch": 45,
                "velocity": 64,
                "duration": 0.16818181818182154,
                "tempo": 120.0
            },
            {
                "start_time": 83.27045454545454,
                "end_time": 83.33863636363635,
                "pitch": 50,
                "velocity": 64,
                "duration": 0.06818181818181301,
                "tempo": 120.0
            },
            {
                "start_time": 83.37045454545454,
                "end_time": 83.43863636363636,
                "pitch": 0,
                "velocity": 64,
                "duration": 0.06818181818182723,
                "tempo": 120.0
            },
            {
                "start_time": 83.47045454545454,
                "end_time": 83.73863636363636,
                "pitch": 40,
                "velocity": 64,
                "duration": 0.26818181818181586,
                "tempo": 120.0
            },
            {
                "start_time": 83.77272727272727,
                "end_time": 84.04090909090908,
                "pitch": 47,
                "velocity": 64,
                "duration": 0.26818181818181586,
                "tempo": 120.0
            },
            {
                "start_time": 84.07272727272726,
                "end_time": 84.14090909090909,
                "pitch": 52,
                "velocity": 64,
                "duration": 0.06818181818182723,
                "tempo": 120.0
            },
            {
                "start_time": 84.17272727272727,
                "end_time": 84.24090909090908,
                "pitch": 0,
                "velocity": 64,
                "duration": 0.06818181818181301,
                "tempo": 120.0
            },
            {
                "start_time": 84.27272727272727,
                "end_time": 84.54318181818181,
                "pitch": 52,
                "velocity": 64,
                "duration": 0.27045454545454106,
                "tempo": 120.0
            },
            {
                "start_time": 84.575,
                "end_time": 84.64318181818182,
                "pitch": 47,
                "velocity": 64,
                "duration": 0.06818181818181301,
                "tempo": 120.0
            },
            {
                "start_time": 84.67727272727272,
                "end_time": 84.84318181818182,
                "pitch": 47,
                "velocity": 64,
                "duration": 0.16590909090909634,
                "tempo": 120.0
            },
            {
                "start_time": 84.87727272727273,
                "end_time": 84.94545454545454,
                "pitch": 52,
                "velocity": 64,
                "duration": 0.06818181818181301,
                "tempo": 120.0
            },
            {
                "start_time": 84.97954545454544,
                "end_time": 85.04545454545455,
                "pitch": 0,
                "velocity": 64,
                "duration": 0.06590909090910202,
                "tempo": 120.0
            },
            {
                "start_time": 85.07954545454545,
                "end_time": 85.34545454545454,
                "pitch": 42,
                "velocity": 64,
                "duration": 0.26590909090909065,
                "tempo": 120.0
            },
            {
                "start_time": 85.37954545454545,
                "end_time": 85.64772727272727,
                "pitch": 49,
                "velocity": 64,
                "duration": 0.26818181818181586,
                "tempo": 120.0
            },
            {
                "start_time": 85.67954545454545,
                "end_time": 85.74772727272727,
                "pitch": 54,
                "velocity": 64,
                "duration": 0.06818181818182723,
                "tempo": 120.0
            },
            {
                "start_time": 85.78181818181818,
                "end_time": 85.84772727272727,
                "pitch": 0,
                "velocity": 64,
                "duration": 0.06590909090908781,
                "tempo": 120.0
            },
            {
                "start_time": 85.88181818181818,
                "end_time": 86.14772727272727,
                "pitch": 54,
                "velocity": 64,
                "duration": 0.26590909090909065,
                "tempo": 120.0
            },
            {
                "start_time": 86.18181818181817,
                "end_time": 86.24772727272727,
                "pitch": 49,
                "velocity": 64,
                "duration": 0.06590909090910202,
                "tempo": 120.0
            },
            {
                "start_time": 86.28181818181818,
                "end_time": 86.45,
                "pitch": 49,
                "velocity": 64,
                "duration": 0.16818181818182154,
                "tempo": 120.0
            },
            {
                "start_time": 86.48409090909091,
                "end_time": 86.55,
                "pitch": 54,
                "velocity": 64,
                "duration": 0.06590909090908781,
                "tempo": 120.0
            },
            {
                "start_time": 86.5840909090909,
                "end_time": 86.64999999999999,
                "pitch": 0,
                "velocity": 64,
                "duration": 0.06590909090908781,
                "tempo": 120.0
            },
            {
                "start_time": 86.6840909090909,
                "end_time": 86.95227272727273,
                "pitch": 42,
                "velocity": 64,
                "duration": 0.26818181818183007,
                "tempo": 120.0
            },
            {
                "start_time": 86.98636363636363,
                "end_time": 87.25454545454545,
                "pitch": 49,
                "velocity": 64,
                "duration": 0.26818181818181586,
                "tempo": 120.0
            },
            {
                "start_time": 87.28636363636363,
                "end_time": 87.35454545454544,
                "pitch": 54,
                "velocity": 64,
                "duration": 0.06818181818181301,
                "tempo": 120.0
            },
            {
                "start_time": 87.38636363636363,
                "end_time": 87.45454545454545,
                "pitch": 0,
                "velocity": 64,
                "duration": 0.06818181818182723,
                "tempo": 120.0
            },
            {
                "start_time": 87.48636363636363,
                "end_time": 87.75454545454545,
                "pitch": 54,
                "velocity": 64,
                "duration": 0.26818181818181586,
                "tempo": 120.0
            },
            {
                "start_time": 87.78863636363636,
                "end_time": 87.85681818181818,
                "pitch": 49,
                "velocity": 64,
                "duration": 0.06818181818182723,
                "tempo": 120.0
            },
            {
                "start_time": 87.88863636363637,
                "end_time": 88.05681818181817,
                "pitch": 49,
                "velocity": 64,
                "duration": 0.16818181818180733,
                "tempo": 120.0
            },
            {
                "start_time": 88.08863636363635,
                "end_time": 88.15681818181818,
                "pitch": 54,
                "velocity": 64,
                "duration": 0.06818181818182723,
                "tempo": 120.0
            },
            {
                "start_time": 88.18863636363636,
                "end_time": 88.25681818181818,
                "pitch": 0,
                "velocity": 64,
                "duration": 0.06818181818181301,
                "tempo": 120.0
            },
            {
                "start_time": 88.29090909090908,
                "end_time": 88.5590909090909,
                "pitch": 38,
                "velocity": 64,
                "duration": 0.26818181818181586,
                "tempo": 120.0
            },
            {
                "start_time": 88.5909090909091,
                "end_time": 88.86136363636363,
                "pitch": 45,
                "velocity": 64,
                "duration": 0.27045454545454106,
                "tempo": 120.0
            },
            {
                "start_time": 88.89318181818182,
                "end_time": 88.96136363636363,
                "pitch": 50,
                "velocity": 64,
                "duration": 0.06818181818181301,
                "tempo": 120.0
            },
            {
                "start_time": 88.99545454545454,
                "end_time": 89.06136363636364,
                "pitch": 0,
                "velocity": 64,
                "duration": 0.06590909090910202,
                "tempo": 120.0
            },
            {
                "start_time": 89.09545454545454,
                "end_time": 89.36136363636363,
                "pitch": 50,
                "velocity": 64,
                "duration": 0.26590909090909065,
                "tempo": 120.0
            },
            {
                "start_time": 89.39545454545454,
                "end_time": 89.46136363636363,
                "pitch": 45,
                "velocity": 64,
                "duration": 0.06590909090908781,
                "tempo": 120.0
            },
            {
                "start_time": 89.49545454545454,
                "end_time": 89.66363636363636,
                "pitch": 45,
                "velocity": 64,
                "duration": 0.16818181818182154,
                "tempo": 120.0
            },
            {
                "start_time": 89.69545454545454,
                "end_time": 89.76363636363637,
                "pitch": 50,
                "velocity": 64,
                "duration": 0.06818181818182723,
                "tempo": 120.0
            },
            {
                "start_time": 89.79772727272727,
                "end_time": 89.86363636363636,
                "pitch": 0,
                "velocity": 64,
                "duration": 0.06590909090908781,
                "tempo": 120.0
            },
            {
                "start_time": 89.89772727272727,
                "end_time": 90.16363636363636,
                "pitch": 40,
                "velocity": 64,
                "duration": 0.26590909090909065,
                "tempo": 120.0
            },
            {
                "start_time": 90.19772727272726,
                "end_time": 90.4659090909091,
                "pitch": 47,
                "velocity": 64,
                "duration": 0.26818181818183007,
                "tempo": 120.0
            },
            {
                "start_time": 90.5,
                "end_time": 90.56590909090909,
                "pitch": 52,
                "velocity": 64,
                "duration": 0.06590909090908781,
                "tempo": 120.0
            },
            {
                "start_time": 90.6,
                "end_time": 90.66590909090908,
                "pitch": 0,
                "velocity": 64,
                "duration": 0.06590909090908781,
                "tempo": 120.0
            },
            {
                "start_time": 90.69999999999999,
                "end_time": 90.96818181818182,
                "pitch": 52,
                "velocity": 64,
                "duration": 0.26818181818183007,
                "tempo": 120.0
            },
            {
                "start_time": 91.00227272727273,
                "end_time": 91.07045454545454,
                "pitch": 47,
                "velocity": 64,
                "duration": 0.06818181818181301,
                "tempo": 120.0
            },
            {
                "start_time": 91.10227272727272,
                "end_time": 91.27045454545454,
                "pitch": 47,
                "velocity": 64,
                "duration": 0.16818181818182154,
                "tempo": 120.0
            },
            {
                "start_time": 91.30227272727272,
                "end_time": 91.37045454545454,
                "pitch": 52,
                "velocity": 64,
                "duration": 0.06818181818181301,
                "tempo": 120.0
            },
            {
                "start_time": 91.40227272727272,
                "end_time": 91.47045454545454,
                "pitch": 0,
                "velocity": 64,
                "duration": 0.06818181818182723,
                "tempo": 120.0
            },
            {
                "start_time": 91.50227272727273,
                "end_time": 91.77272727272727,
                "pitch": 42,
                "velocity": 64,
                "duration": 0.27045454545454106,
                "tempo": 120.0
            },
            {
                "start_time": 91.80454545454545,
                "end_time": 92.07272727272726,
                "pitch": 49,
                "velocity": 64,
                "duration": 0.26818181818181586,
                "tempo": 120.0
            },
            {
                "start_time": 92.10681818181818,
                "end_time": 92.17272727272727,
                "pitch": 54,
                "velocity": 64,
                "duration": 0.06590909090908781,
                "tempo": 120.0
            },
            {
                "start_time": 92.20681818181818,
                "end_time": 92.27272727272727,
                "pitch": 0,
                "velocity": 64,
                "duration": 0.06590909090908781,
                "tempo": 120.0
            },
            {
                "start_time": 92.30681818181817,
                "end_time": 92.57499999999999,
                "pitch": 54,
                "velocity": 64,
                "duration": 0.26818181818181586,
                "tempo": 120.0
            },
            {
                "start_time": 92.60681818181818,
                "end_time": 92.675,
                "pitch": 49,
                "velocity": 64,
                "duration": 0.06818181818181301,
                "tempo": 120.0
            },
            {
                "start_time": 92.7090909090909,
                "end_time": 92.87727272727273,
                "pitch": 49,
                "velocity": 64,
                "duration": 0.16818181818182154,
                "tempo": 120.0
            },
            {
                "start_time": 92.9090909090909,
                "end_time": 92.97727272727272,
                "pitch": 54,
                "velocity": 64,
                "duration": 0.06818181818181301,
                "tempo": 120.0
            },
            {
                "start_time": 93.01136363636363,
                "end_time": 93.07727272727273,
                "pitch": 0,
                "velocity": 64,
                "duration": 0.06590909090910202,
                "tempo": 120.0
            },
            {
                "start_time": 93.11136363636363,
                "end_time": 93.37727272727273,
                "pitch": 42,
                "velocity": 64,
                "duration": 0.26590909090909065,
                "tempo": 120.0
            },
            {
                "start_time": 93.41136363636363,
                "end_time": 93.67954545454545,
                "pitch": 49,
                "velocity": 64,
                "duration": 0.26818181818181586,
                "tempo": 120.0
            },
            {
                "start_time": 93.71363636363635,
                "end_time": 93.77954545454546,
                "pitch": 54,
                "velocity": 64,
                "duration": 0.06590909090910202,
                "tempo": 120.0
            },
            {
                "start_time": 93.81363636363636,
                "end_time": 93.87954545454545,
                "pitch": 0,
                "velocity": 64,
                "duration": 0.06590909090908781,
                "tempo": 120.0
            },
            {
                "start_time": 93.91363636363636,
                "end_time": 94.17954545454545,
                "pitch": 54,
                "velocity": 64,
                "duration": 0.26590909090909065,
                "tempo": 120.0
            },
            {
                "start_time": 94.21363636363635,
                "end_time": 94.27954545454546,
                "pitch": 49,
                "velocity": 64,
                "duration": 0.06590909090910202,
                "tempo": 120.0
            },
            {
                "start_time": 94.31363636363636,
                "end_time": 94.48181818181818,
                "pitch": 49,
                "velocity": 64,
                "duration": 0.16818181818182154,
                "tempo": 120.0
            },
            {
                "start_time": 94.51590909090909,
                "end_time": 94.58181818181818,
                "pitch": 54,
                "velocity": 64,
                "duration": 0.06590909090908781,
                "tempo": 120.0
            },
            {
                "start_time": 94.61590909090908,
                "end_time": 94.6840909090909,
                "pitch": 0,
                "velocity": 64,
                "duration": 0.06818181818181301,
                "tempo": 120.0
            },
            {
                "start_time": 94.71590909090908,
                "end_time": 94.98409090909091,
                "pitch": 38,
                "velocity": 64,
                "duration": 0.26818181818183007,
                "tempo": 120.0
            },
            {
                "start_time": 95.01818181818182,
                "end_time": 95.28636363636363,
                "pitch": 45,
                "velocity": 64,
                "duration": 0.26818181818181586,
                "tempo": 120.0
            },
            {
                "start_time": 95.31818181818181,
                "end_time": 95.38636363636363,
                "pitch": 50,
                "velocity": 64,
                "duration": 0.06818181818181301,
                "tempo": 120.0
            },
            {
                "start_time": 95.41818181818181,
                "end_time": 95.48636363636363,
                "pitch": 0,
                "velocity": 64,
                "duration": 0.06818181818182723,
                "tempo": 120.0
            },
            {
                "start_time": 95.52045454545454,
                "end_time": 95.78863636363636,
                "pitch": 50,
                "velocity": 64,
                "duration": 0.26818181818181586,
                "tempo": 120.0
            },
            {
                "start_time": 95.82045454545454,
                "end_time": 95.88863636363637,
                "pitch": 45,
                "velocity": 64,
                "duration": 0.06818181818182723,
                "tempo": 120.0
            },
            {
                "start_time": 95.92272727272727,
                "end_time": 96.08863636363635,
                "pitch": 45,
                "velocity": 64,
                "duration": 0.16590909090908212,
                "tempo": 120.0
            },
            {
                "start_time": 96.12272727272727,
                "end_time": 96.18863636363636,
                "pitch": 50,
                "velocity": 64,
                "duration": 0.06590909090908781,
                "tempo": 120.0
            },
            {
                "start_time": 96.22272727272727,
                "end_time": 96.28863636363636,
                "pitch": 0,
                "velocity": 64,
                "duration": 0.06590909090908781,
                "tempo": 120.0
            },
            {
                "start_time": 96.32272727272726,
                "end_time": 96.59090909090908,
                "pitch": 40,
                "velocity": 64,
                "duration": 0.26818181818181586,
                "tempo": 120.0
            },
            {
                "start_time": 96.625,
                "end_time": 96.89318181818182,
                "pitch": 47,
                "velocity": 64,
                "duration": 0.26818181818181586,
                "tempo": 120.0
            },
            {
                "start_time": 96.925,
                "end_time": 96.99318181818181,
                "pitch": 52,
                "velocity": 64,
                "duration": 0.06818181818181301,
                "tempo": 120.0
            },
            {
                "start_time": 97.02727272727272,
                "end_time": 97.09318181818182,
                "pitch": 0,
                "velocity": 64,
                "duration": 0.06590909090910202,
                "tempo": 120.0
            },
            {
                "start_time": 97.12727272727273,
                "end_time": 97.39318181818182,
                "pitch": 52,
                "velocity": 64,
                "duration": 0.26590909090909065,
                "tempo": 120.0
            },
            {
                "start_time": 97.42727272727272,
                "end_time": 97.49318181818181,
                "pitch": 47,
                "velocity": 64,
                "duration": 0.06590909090908781,
                "tempo": 120.0
            },
            {
                "start_time": 97.52727272727272,
                "end_time": 97.69545454545454,
                "pitch": 47,
                "velocity": 64,
                "duration": 0.16818181818182154,
                "tempo": 120.0
            },
            {
                "start_time": 97.72954545454544,
                "end_time": 97.79545454545455,
                "pitch": 52,
                "velocity": 64,
                "duration": 0.06590909090910202,
                "tempo": 120.0
            },
            {
                "start_time": 97.82954545454545,
                "end_time": 97.89545454545454,
                "pitch": 0,
                "velocity": 64,
                "duration": 0.06590909090908781,
                "tempo": 120.0
            },
            {
                "start_time": 97.92954545454545,
                "end_time": 98.19772727272726,
                "pitch": 42,
                "velocity": 64,
                "duration": 0.26818181818181586,
                "tempo": 120.0
            },
            {
                "start_time": 98.22954545454544,
                "end_time": 98.49772727272727,
                "pitch": 49,
                "velocity": 64,
                "duration": 0.26818181818183007,
                "tempo": 120.0
            },
            {
                "start_time": 98.53181818181818,
                "end_time": 98.59772727272727,
                "pitch": 54,
                "velocity": 64,
                "duration": 0.06590909090908781,
                "tempo": 120.0
            },
            {
                "start_time": 98.63181818181818,
                "end_time": 98.69999999999999,
                "pitch": 0,
                "velocity": 64,
                "duration": 0.06818181818181301,
                "tempo": 120.0
            },
            {
                "start_time": 98.73181818181817,
                "end_time": 99.00227272727273,
                "pitch": 54,
                "velocity": 64,
                "duration": 0.2704545454545553,
                "tempo": 120.0
            },
            {
                "start_time": 99.0340909090909,
                "end_time": 99.10227272727272,
                "pitch": 49,
                "velocity": 64,
                "duration": 0.06818181818181301,
                "tempo": 120.0
            },
            {
                "start_time": 99.13636363636363,
                "end_time": 99.30227272727272,
                "pitch": 49,
                "velocity": 64,
                "duration": 0.16590909090909634,
                "tempo": 120.0
            },
            {
                "start_time": 99.33636363636363,
                "end_time": 99.40227272727272,
                "pitch": 54,
                "velocity": 64,
                "duration": 0.06590909090908781,
                "tempo": 120.0
            },
            {
                "start_time": 99.43636363636364,
                "end_time": 99.50227272727273,
                "pitch": 0,
                "velocity": 64,
                "duration": 0.06590909090908781,
                "tempo": 120.0
            },
            {
                "start_time": 99.5340909090909,
                "end_time": 99.63181818181818,
                "pitch": 0,
                "velocity": 64,
                "duration": 0.09772727272726911,
                "tempo": 120.0
            },
            {
                "start_time": 99.66590909090908,
                "end_time": 99.76363636363637,
                "pitch": 42,
                "velocity": 64,
                "duration": 0.09772727272728332,
                "tempo": 120.0
            },
            {
                "start_time": 99.79545454545455,
                "end_time": 99.89318181818182,
                "pitch": 42,
                "velocity": 64,
                "duration": 0.09772727272726911,
                "tempo": 120.0
            },
            {
                "start_time": 99.92727272727272,
                "end_time": 100.02954545454546,
                "pitch": 42,
                "velocity": 64,
                "duration": 0.10227272727273373,
                "tempo": 120.0
            },
            {
                "start_time": 100.06363636363636,
                "end_time": 100.16818181818181,
                "pitch": 42,
                "velocity": 64,
                "duration": 0.10454545454544473,
                "tempo": 120.0
            },
            {
                "start_time": 100.20227272727273,
                "end_time": 100.30454545454545,
                "pitch": 42,
                "velocity": 64,
                "duration": 0.10227272727271952,
                "tempo": 120.0
            },
            {
                "start_time": 100.33863636363635,
                "end_time": 100.43863636363636,
                "pitch": 42,
                "velocity": 64,
                "duration": 0.10000000000000853,
                "tempo": 120.0
            },
            {
                "start_time": 100.47272727272727,
                "end_time": 101.10909090909091,
                "pitch": 0,
                "velocity": 64,
                "duration": 0.6363636363636402,
                "tempo": 120.0
            },
            {
                "start_time": 101.14318181818182,
                "end_time": 101.41136363636363,
                "pitch": 45,
                "velocity": 64,
                "duration": 0.26818181818181586,
                "tempo": 120.0
            },
            {
                "start_time": 101.44318181818181,
                "end_time": 101.51136363636363,
                "pitch": 52,
                "velocity": 64,
                "duration": 0.06818181818181301,
                "tempo": 120.0
            },
            {
                "start_time": 101.54318181818181,
                "end_time": 101.81818181818181,
                "pitch": 52,
                "velocity": 64,
                "duration": 0.2750000000000057,
                "tempo": 120.0
            },
            {
                "start_time": 101.85227272727272,
                "end_time": 101.92045454545455,
                "pitch": 45,
                "velocity": 64,
                "duration": 0.06818181818182723,
                "tempo": 120.0
            },
            {
                "start_time": 101.95454545454545,
                "end_time": 102.21590909090908,
                "pitch": 45,
                "velocity": 64,
                "duration": 0.26136363636362603,
                "tempo": 120.0
            },
            {
                "start_time": 102.24772727272727,
                "end_time": 102.31363636363636,
                "pitch": 52,
                "velocity": 64,
                "duration": 0.06590909090908781,
                "tempo": 120.0
            },
            {
                "start_time": 102.34545454545454,
                "end_time": 102.62045454545454,
                "pitch": 52,
                "velocity": 64,
                "duration": 0.2749999999999915,
                "tempo": 120.0
            },
            {
                "start_time": 102.65454545454546,
                "end_time": 102.72272727272727,
                "pitch": 45,
                "velocity": 64,
                "duration": 0.06818181818181301,
                "tempo": 120.0
            },
            {
                "start_time": 102.75681818181818,
                "end_time": 103.01818181818182,
                "pitch": 45,
                "velocity": 64,
                "duration": 0.26136363636364024,
                "tempo": 120.0
            },
            {
                "start_time": 103.05,
                "end_time": 103.11590909090908,
                "pitch": 52,
                "velocity": 64,
                "duration": 0.06590909090908781,
                "tempo": 120.0
            },
            {
                "start_time": 103.14999999999999,
                "end_time": 103.42272727272727,
                "pitch": 52,
                "velocity": 64,
                "duration": 0.2727272727272805,
                "tempo": 120.0
            },
            {
                "start_time": 103.45681818181818,
                "end_time": 103.52499999999999,
                "pitch": 45,
                "velocity": 64,
                "duration": 0.06818181818181301,
                "tempo": 120.0
            },
            {
                "start_time": 103.5590909090909,
                "end_time": 103.82727272727273,
                "pitch": 45,
                "velocity": 64,
                "duration": 0.26818181818183007,
                "tempo": 120.0
            },
            {
                "start_time": 103.85909090909091,
                "end_time": 103.92727272727272,
                "pitch": 52,
                "velocity": 64,
                "duration": 0.06818181818181301,
                "tempo": 120.0
            },
            {
                "start_time": 103.9590909090909,
                "end_time": 104.12727272727273,
                "pitch": 52,
                "velocity": 64,
                "duration": 0.16818181818182154,
                "tempo": 120.0
            },
            {
                "start_time": 104.16136363636363,
                "end_time": 104.32954545454545,
                "pitch": 45,
                "velocity": 64,
                "duration": 0.16818181818182154,
                "tempo": 120.0
            },
            {
                "start_time": 104.36363636363636,
                "end_time": 104.63181818181818,
                "pitch": 42,
                "velocity": 64,
                "duration": 0.26818181818181586,
                "tempo": 120.0
            },
            {
                "start_time": 104.66363636363636,
                "end_time": 104.73181818181817,
                "pitch": 49,
                "velocity": 64,
                "duration": 0.06818181818181301,
                "tempo": 120.0
            },
            {
                "start_time": 104.76590909090909,
                "end_time": 105.03181818181818,
                "pitch": 49,
                "velocity": 64,
                "duration": 0.26590909090909065,
                "tempo": 120.0
            },
            {
                "start_time": 105.06590909090909,
                "end_time": 105.13181818181818,
                "pitch": 42,
                "velocity": 64,
                "duration": 0.06590909090908781,
                "tempo": 120.0
            },
            {
                "start_time": 105.16590909090908,
                "end_time": 105.42727272727272,
                "pitch": 42,
                "velocity": 64,
                "duration": 0.26136363636364024,
                "tempo": 120.0
            },
            {
                "start_time": 105.4590909090909,
                "end_time": 105.52499999999999,
                "pitch": 49,
                "velocity": 64,
                "duration": 0.06590909090908781,
                "tempo": 120.0
            },
            {
                "start_time": 105.55681818181817,
                "end_time": 105.82499999999999,
                "pitch": 49,
                "velocity": 64,
                "duration": 0.26818181818181586,
                "tempo": 120.0
            },
            {
                "start_time": 105.85909090909091,
                "end_time": 105.92727272727272,
                "pitch": 42,
                "velocity": 64,
                "duration": 0.06818181818181301,
                "tempo": 120.0
            },
            {
                "start_time": 105.9590909090909,
                "end_time": 106.22727272727272,
                "pitch": 42,
                "velocity": 64,
                "duration": 0.26818181818181586,
                "tempo": 120.0
            },
            {
                "start_time": 106.2590909090909,
                "end_time": 106.32727272727273,
                "pitch": 49,
                "velocity": 64,
                "duration": 0.06818181818182723,
                "tempo": 120.0
            },
            {
                "start_time": 106.36136363636363,
                "end_time": 106.6340909090909,
                "pitch": 49,
                "velocity": 64,
                "duration": 0.27272727272726627,
                "tempo": 120.0
            },
            {
                "start_time": 106.66818181818181,
                "end_time": 106.73636363636363,
                "pitch": 42,
                "velocity": 64,
                "duration": 0.06818181818182723,
                "tempo": 120.0
            },
            {
                "start_time": 106.77045454545454,
                "end_time": 107.03181818181818,
                "pitch": 42,
                "velocity": 64,
                "duration": 0.26136363636364024,
                "tempo": 120.0
            },
            {
                "start_time": 107.06363636363636,
                "end_time": 107.12954545454545,
                "pitch": 49,
                "velocity": 64,
                "duration": 0.06590909090908781,
                "tempo": 120.0
            },
            {
                "start_time": 107.16363636363636,
                "end_time": 107.32954545454545,
                "pitch": 49,
                "velocity": 64,
                "duration": 0.16590909090909634,
                "tempo": 120.0
            },
            {
                "start_time": 107.36363636363636,
                "end_time": 107.52954545454546,
                "pitch": 42,
                "velocity": 64,
                "duration": 0.16590909090909634,
                "tempo": 120.0
            },
            {
                "start_time": 107.56363636363636,
                "end_time": 107.83181818181818,
                "pitch": 47,
                "velocity": 64,
                "duration": 0.26818181818181586,
                "tempo": 120.0
            },
            {
                "start_time": 107.86590909090908,
                "end_time": 107.93181818181817,
                "pitch": 54,
                "velocity": 64,
                "duration": 0.06590909090908781,
                "tempo": 120.0
            },
            {
                "start_time": 107.96590909090908,
                "end_time": 108.24090909090908,
                "pitch": 54,
                "velocity": 64,
                "duration": 0.2750000000000057,
                "tempo": 120.0
            },
            {
                "start_time": 108.27499999999999,
                "end_time": 108.34318181818182,
                "pitch": 47,
                "velocity": 64,
                "duration": 0.06818181818182723,
                "tempo": 120.0
            },
            {
                "start_time": 108.375,
                "end_time": 108.63863636363637,
                "pitch": 47,
                "velocity": 64,
                "duration": 0.26363636363636545,
                "tempo": 120.0
            },
            {
                "start_time": 108.67045454545455,
                "end_time": 108.73636363636363,
                "pitch": 54,
                "velocity": 64,
                "duration": 0.06590909090908781,
                "tempo": 120.0
            },
            {
                "start_time": 108.76818181818182,
                "end_time": 109.04318181818181,
                "pitch": 54,
                "velocity": 64,
                "duration": 0.2749999999999915,
                "tempo": 120.0
            },
            {
                "start_time": 109.07727272727273,
                "end_time": 109.14545454545454,
                "pitch": 47,
                "velocity": 64,
                "duration": 0.06818181818181301,
                "tempo": 120.0
            },
            {
                "start_time": 109.17954545454545,
                "end_time": 109.44772727272726,
                "pitch": 47,
                "velocity": 64,
                "duration": 0.26818181818181586,
                "tempo": 120.0
            },
            {
                "start_time": 109.48181818181817,
                "end_time": 109.54772727272727,
                "pitch": 54,
                "velocity": 64,
                "duration": 0.06590909090910202,
                "tempo": 120.0
            },
            {
                "start_time": 109.58181818181818,
                "end_time": 109.84318181818182,
                "pitch": 54,
                "velocity": 64,
                "duration": 0.26136363636364024,
                "tempo": 120.0
            },
            {
                "start_time": 109.875,
                "end_time": 109.94090909090909,
                "pitch": 47,
                "velocity": 64,
                "duration": 0.06590909090908781,
                "tempo": 120.0
            },
            {
                "start_time": 109.975,
                "end_time": 110.24090909090908,
                "pitch": 47,
                "velocity": 64,
                "duration": 0.26590909090909065,
                "tempo": 120.0
            },
            {
                "start_time": 110.27499999999999,
                "end_time": 110.34090909090908,
                "pitch": 54,
                "velocity": 64,
                "duration": 0.06590909090908781,
                "tempo": 120.0
            },
            {
                "start_time": 110.375,
                "end_time": 110.54545454545455,
                "pitch": 54,
                "velocity": 64,
                "duration": 0.17045454545454675,
                "tempo": 120.0
            },
            {
                "start_time": 110.57954545454545,
                "end_time": 110.75,
                "pitch": 47,
                "velocity": 64,
                "duration": 0.17045454545454675,
                "tempo": 120.0
            },
            {
                "start_time": 110.7840909090909,
                "end_time": 111.05227272727272,
                "pitch": 40,
                "velocity": 64,
                "duration": 0.26818181818181586,
                "tempo": 120.0
            },
            {
                "start_time": 111.0840909090909,
                "end_time": 111.15227272727272,
                "pitch": 47,
                "velocity": 64,
                "duration": 0.06818181818181301,
                "tempo": 120.0
            },
            {
                "start_time": 111.1840909090909,
                "end_time": 111.45454545454545,
                "pitch": 47,
                "velocity": 64,
                "duration": 0.2704545454545553,
                "tempo": 120.0
            },
            {
                "start_time": 111.48636363636363,
                "end_time": 111.55454545454545,
                "pitch": 40,
                "velocity": 64,
                "duration": 0.06818181818181301,
                "tempo": 120.0
            },
            {
                "start_time": 111.58636363636363,
                "end_time": 111.84772727272727,
                "pitch": 40,
                "velocity": 64,
                "duration": 0.26136363636364024,
                "tempo": 120.0
            },
            {
                "start_time": 111.88181818181818,
                "end_time": 111.94772727272726,
                "pitch": 47,
                "velocity": 64,
                "duration": 0.06590909090908781,
                "tempo": 120.0
            },
            {
                "start_time": 111.97954545454544,
                "end_time": 112.25454545454545,
                "pitch": 47,
                "velocity": 64,
                "duration": 0.2750000000000057,
                "tempo": 120.0
            },
            {
                "start_time": 112.28863636363636,
                "end_time": 112.35681818181817,
                "pitch": 40,
                "velocity": 64,
                "duration": 0.06818181818181301,
                "tempo": 120.0
            },
            {
                "start_time": 112.39090909090909,
                "end_time": 112.6590909090909,
                "pitch": 40,
                "velocity": 64,
                "duration": 0.26818181818181586,
                "tempo": 120.0
            },
            {
                "start_time": 112.69318181818181,
                "end_time": 112.7590909090909,
                "pitch": 47,
                "velocity": 64,
                "duration": 0.06590909090908781,
                "tempo": 120.0
            },
            {
                "start_time": 112.79318181818181,
                "end_time": 113.0590909090909,
                "pitch": 47,
                "velocity": 64,
                "duration": 0.26590909090909065,
                "tempo": 120.0
            },
            {
                "start_time": 113.09318181818182,
                "end_time": 113.1590909090909,
                "pitch": 40,
                "velocity": 64,
                "duration": 0.06590909090908781,
                "tempo": 120.0
            },
            {
                "start_time": 113.19318181818181,
                "end_time": 113.45454545454545,
                "pitch": 40,
                "velocity": 64,
                "duration": 0.26136363636364024,
                "tempo": 120.0
            },
            {
                "start_time": 113.48636363636363,
                "end_time": 113.55227272727272,
                "pitch": 47,
                "velocity": 64,
                "duration": 0.06590909090908781,
                "tempo": 120.0
            },
            {
                "start_time": 113.58636363636363,
                "end_time": 113.75681818181818,
                "pitch": 47,
                "velocity": 64,
                "duration": 0.17045454545454675,
                "tempo": 120.0
            },
            {
                "start_time": 113.79090909090908,
                "end_time": 113.96136363636363,
                "pitch": 52,
                "velocity": 64,
                "duration": 0.17045454545454675,
                "tempo": 120.0
            },
            {
                "start_time": 113.99545454545454,
                "end_time": 114.26363636363635,
                "pitch": 45,
                "velocity": 64,
                "duration": 0.26818181818181586,
                "tempo": 120.0
            },
            {
                "start_time": 114.29772727272727,
                "end_time": 114.36590909090908,
                "pitch": 52,
                "velocity": 64,
                "duration": 0.06818181818181301,
                "tempo": 120.0
            },
            {
                "start_time": 114.39999999999999,
                "end_time": 114.66818181818181,
                "pitch": 52,
                "velocity": 64,
                "duration": 0.26818181818181586,
                "tempo": 120.0
            },
            {
                "start_time": 114.69999999999999,
                "end_time": 114.76818181818182,
                "pitch": 45,
                "velocity": 64,
                "duration": 0.06818181818182723,
                "tempo": 120.0
            },
            {
                "start_time": 114.80227272727272,
                "end_time": 115.06818181818181,
                "pitch": 45,
                "velocity": 64,
                "duration": 0.26590909090909065,
                "tempo": 120.0
            },
            {
                "start_time": 115.10227272727272,
                "end_time": 115.16818181818181,
                "pitch": 52,
                "velocity": 64,
                "duration": 0.06590909090908781,
                "tempo": 120.0
            },
            {
                "start_time": 115.20227272727273,
                "end_time": 115.47045454545454,
                "pitch": 52,
                "velocity": 64,
                "duration": 0.26818181818181586,
                "tempo": 120.0
            },
            {
                "start_time": 115.50454545454545,
                "end_time": 115.57045454545454,
                "pitch": 45,
                "velocity": 64,
                "duration": 0.06590909090908781,
                "tempo": 120.0
            },
            {
                "start_time": 115.60454545454544,
                "end_time": 115.86590909090908,
                "pitch": 45,
                "velocity": 64,
                "duration": 0.26136363636364024,
                "tempo": 120.0
            },
            {
                "start_time": 115.89772727272727,
                "end_time": 115.96363636363635,
                "pitch": 52,
                "velocity": 64,
                "duration": 0.06590909090908781,
                "tempo": 120.0
            },
            {
                "start_time": 115.99545454545454,
                "end_time": 116.26363636363635,
                "pitch": 52,
                "velocity": 64,
                "duration": 0.26818181818181586,
                "tempo": 120.0
            },
            {
                "start_time": 116.29545454545455,
                "end_time": 116.36363636363636,
                "pitch": 45,
                "velocity": 64,
                "duration": 0.06818181818181301,
                "tempo": 120.0
            },
            {
                "start_time": 116.39545454545454,
                "end_time": 116.67045454545455,
                "pitch": 45,
                "velocity": 64,
                "duration": 0.2750000000000057,
                "tempo": 120.0
            },
            {
                "start_time": 116.70454545454545,
                "end_time": 116.77272727272727,
                "pitch": 52,
                "velocity": 64,
                "duration": 0.06818181818181301,
                "tempo": 120.0
            },
            {
                "start_time": 116.80681818181817,
                "end_time": 116.97045454545454,
                "pitch": 52,
                "velocity": 64,
                "duration": 0.16363636363637113,
                "tempo": 120.0
            },
            {
                "start_time": 117.00227272727273,
                "end_time": 117.16590909090908,
                "pitch": 45,
                "velocity": 64,
                "duration": 0.16363636363635692,
                "tempo": 120.0
            },
            {
                "start_time": 117.19999999999999,
                "end_time": 117.47272727272727,
                "pitch": 42,
                "velocity": 64,
                "duration": 0.2727272727272805,
                "tempo": 120.0
            },
            {
                "start_time": 117.50681818181818,
                "end_time": 117.57499999999999,
                "pitch": 49,
                "velocity": 64,
                "duration": 0.06818181818181301,
                "tempo": 120.0
            },
            {
                "start_time": 117.60909090909091,
                "end_time": 117.87727272727273,
                "pitch": 49,
                "velocity": 64,
                "duration": 0.26818181818181586,
                "tempo": 120.0
            },
            {
                "start_time": 117.9090909090909,
                "end_time": 117.97727272727272,
                "pitch": 42,
                "velocity": 64,
                "duration": 0.06818181818181301,
                "tempo": 120.0
            },
            {
                "start_time": 118.0090909090909,
                "end_time": 118.27954545454544,
                "pitch": 42,
                "velocity": 64,
                "duration": 0.27045454545454106,
                "tempo": 120.0
            },
            {
                "start_time": 118.31136363636364,
                "end_time": 118.37954545454545,
                "pitch": 49,
                "velocity": 64,
                "duration": 0.06818181818181301,
                "tempo": 120.0
            },
            {
                "start_time": 118.41136363636363,
                "end_time": 118.67272727272727,
                "pitch": 49,
                "velocity": 64,
                "duration": 0.26136363636364024,
                "tempo": 120.0
            },
            {
                "start_time": 118.70681818181818,
                "end_time": 118.77272727272727,
                "pitch": 42,
                "velocity": 64,
                "duration": 0.06590909090908781,
                "tempo": 120.0
            },
            {
                "start_time": 118.80454545454545,
                "end_time": 119.07272727272726,
                "pitch": 42,
                "velocity": 64,
                "duration": 0.26818181818181586,
                "tempo": 120.0
            },
            {
                "start_time": 119.10681818181817,
                "end_time": 119.175,
                "pitch": 49,
                "velocity": 64,
                "duration": 0.06818181818182723,
                "tempo": 120.0
            },
            {
                "start_time": 119.20681818181818,
                "end_time": 119.475,
                "pitch": 49,
                "velocity": 64,
                "duration": 0.26818181818181586,
                "tempo": 120.0
            },
            {
                "start_time": 119.50681818181818,
                "end_time": 119.57499999999999,
                "pitch": 42,
                "velocity": 64,
                "duration": 0.06818181818181301,
                "tempo": 120.0
            },
            {
                "start_time": 119.60681818181817,
                "end_time": 119.875,
                "pitch": 42,
                "velocity": 64,
                "duration": 0.26818181818183007,
                "tempo": 120.0
            },
            {
                "start_time": 119.9090909090909,
                "end_time": 119.97727272727272,
                "pitch": 49,
                "velocity": 64,
                "duration": 0.06818181818181301,
                "tempo": 120.0
            },
            {
                "start_time": 120.0090909090909,
                "end_time": 120.17727272727272,
                "pitch": 49,
                "velocity": 64,
                "duration": 0.16818181818182154,
                "tempo": 120.0
            },
            {
                "start_time": 120.2090909090909,
                "end_time": 120.37727272727273,
                "pitch": 42,
                "velocity": 64,
                "duration": 0.16818181818182154,
                "tempo": 120.0
            },
            {
                "start_time": 120.41136363636363,
                "end_time": 120.6840909090909,
                "pitch": 47,
                "velocity": 64,
                "duration": 0.27272727272726627,
                "tempo": 120.0
            },
            {
                "start_time": 120.71818181818182,
                "end_time": 120.78636363636363,
                "pitch": 54,
                "velocity": 64,
                "duration": 0.06818181818181301,
                "tempo": 120.0
            },
            {
                "start_time": 120.82045454545454,
                "end_time": 121.08863636363635,
                "pitch": 54,
                "velocity": 64,
                "duration": 0.26818181818181586,
                "tempo": 120.0
            },
            {
                "start_time": 121.12045454545454,
                "end_time": 121.18863636363636,
                "pitch": 47,
                "velocity": 64,
                "duration": 0.06818181818182723,
                "tempo": 120.0
            },
            {
                "start_time": 121.22045454545454,
                "end_time": 121.48863636363636,
                "pitch": 47,
                "velocity": 64,
                "duration": 0.26818181818181586,
                "tempo": 120.0
            },
            {
                "start_time": 121.52272727272727,
                "end_time": 121.59090909090908,
                "pitch": 54,
                "velocity": 64,
                "duration": 0.06818181818181301,
                "tempo": 120.0
            },
            {
                "start_time": 121.62272727272726,
                "end_time": 121.8840909090909,
                "pitch": 54,
                "velocity": 64,
                "duration": 0.26136363636364024,
                "tempo": 120.0
            },
            {
                "start_time": 121.91818181818181,
                "end_time": 121.98181818181817,
                "pitch": 47,
                "velocity": 64,
                "duration": 0.0636363636363626,
                "tempo": 120.0
            },
            {
                "start_time": 122.01590909090909,
                "end_time": 122.28181818181818,
                "pitch": 47,
                "velocity": 64,
                "duration": 0.26590909090909065,
                "tempo": 120.0
            },
            {
                "start_time": 122.31590909090909,
                "end_time": 122.38181818181818,
                "pitch": 54,
                "velocity": 64,
                "duration": 0.06590909090908781,
                "tempo": 120.0
            },
            {
                "start_time": 122.41590909090908,
                "end_time": 122.6840909090909,
                "pitch": 54,
                "velocity": 64,
                "duration": 0.26818181818181586,
                "tempo": 120.0
            },
            {
                "start_time": 122.71818181818182,
                "end_time": 122.7840909090909,
                "pitch": 47,
                "velocity": 64,
                "duration": 0.06590909090908781,
                "tempo": 120.0
            },
            {
                "start_time": 122.81818181818181,
                "end_time": 123.08636363636363,
                "pitch": 47,
                "velocity": 64,
                "duration": 0.26818181818181586,
                "tempo": 120.0
            },
            {
                "start_time": 123.12045454545454,
                "end_time": 123.18863636363636,
                "pitch": 54,
                "velocity": 64,
                "duration": 0.06818181818182723,
                "tempo": 120.0
            },
            {
                "start_time": 123.22045454545454,
                "end_time": 123.39318181818182,
                "pitch": 54,
                "velocity": 64,
                "duration": 0.17272727272727195,
                "tempo": 120.0
            },
            {
                "start_time": 123.42727272727272,
                "end_time": 123.59772727272727,
                "pitch": 47,
                "velocity": 64,
                "duration": 0.17045454545454675,
                "tempo": 120.0
            },
            {
                "start_time": 123.63181818181818,
                "end_time": 123.89999999999999,
                "pitch": 40,
                "velocity": 64,
                "duration": 0.26818181818181586,
                "tempo": 120.0
            },
            {
                "start_time": 123.93181818181817,
                "end_time": 124.0,
                "pitch": 47,
                "velocity": 64,
                "duration": 0.06818181818182723,
                "tempo": 120.0
            },
            {
                "start_time": 124.03181818181818,
                "end_time": 124.3,
                "pitch": 47,
                "velocity": 64,
                "duration": 0.26818181818181586,
                "tempo": 120.0
            },
            {
                "start_time": 124.3340909090909,
                "end_time": 124.40227272727272,
                "pitch": 40,
                "velocity": 64,
                "duration": 0.06818181818181301,
                "tempo": 120.0
            },
            {
                "start_time": 124.4340909090909,
                "end_time": 124.69545454545454,
                "pitch": 40,
                "velocity": 64,
                "duration": 0.26136363636364024,
                "tempo": 120.0
            },
            {
                "start_time": 124.72954545454544,
                "end_time": 124.79318181818181,
                "pitch": 47,
                "velocity": 64,
                "duration": 0.0636363636363626,
                "tempo": 120.0
            },
            {
                "start_time": 124.82727272727273,
                "end_time": 125.09545454545454,
                "pitch": 47,
                "velocity": 64,
                "duration": 0.26818181818181586,
                "tempo": 120.0
            },
            {
                "start_time": 125.12954545454545,
                "end_time": 125.19545454545454,
                "pitch": 40,
                "velocity": 64,
                "duration": 0.06590909090908781,
                "tempo": 120.0
            },
            {
                "start_time": 125.22954545454544,
                "end_time": 125.50454545454545,
                "pitch": 40,
                "velocity": 64,
                "duration": 0.2750000000000057,
                "tempo": 120.0
            },
            {
                "start_time": 125.53863636363636,
                "end_time": 125.60681818181817,
                "pitch": 47,
                "velocity": 64,
                "duration": 0.06818181818181301,
                "tempo": 120.0
            },
            {
                "start_time": 125.64090909090909,
                "end_time": 125.90681818181818,
                "pitch": 47,
                "velocity": 64,
                "duration": 0.26590909090909065,
                "tempo": 120.0
            },
            {
                "start_time": 125.94090909090909,
                "end_time": 126.00681818181818,
                "pitch": 40,
                "velocity": 64,
                "duration": 0.06590909090908781,
                "tempo": 120.0
            },
            {
                "start_time": 126.04090909090908,
                "end_time": 126.3090909090909,
                "pitch": 40,
                "velocity": 64,
                "duration": 0.26818181818181586,
                "tempo": 120.0
            },
            {
                "start_time": 126.34318181818182,
                "end_time": 126.4090909090909,
                "pitch": 47,
                "velocity": 64,
                "duration": 0.06590909090908781,
                "tempo": 120.0
            },
            {
                "start_time": 126.44318181818181,
                "end_time": 126.61136363636363,
                "pitch": 47,
                "velocity": 64,
                "duration": 0.16818181818182154,
                "tempo": 120.0
            },
            {
                "start_time": 126.64545454545454,
                "end_time": 126.81363636363636,
                "pitch": 52,
                "velocity": 64,
                "duration": 0.16818181818182154,
                "tempo": 120.0
            },
            {
                "start_time": 126.84545454545454,
                "end_time": 127.11363636363636,
                "pitch": 50,
                "velocity": 64,
                "duration": 0.26818181818181586,
                "tempo": 120.0
            },
            {
                "start_time": 127.14545454545454,
                "end_time": 127.21363636363635,
                "pitch": 50,
                "velocity": 64,
                "duration": 0.06818181818181301,
                "tempo": 120.0
            },
            {
                "start_time": 127.24545454545454,
                "end_time": 128.00681818181818,
                "pitch": 0,
                "velocity": 64,
                "duration": 0.7613636363636402,
                "tempo": 120.0
            },
            {
                "start_time": 128.04090909090908,
                "end_time": 128.3068181818182,
                "pitch": 50,
                "velocity": 64,
                "duration": 0.26590909090910486,
                "tempo": 120.0
            },
            {
                "start_time": 128.3409090909091,
                "end_time": 128.40681818181818,
                "pitch": 50,
                "velocity": 64,
                "duration": 0.06590909090908781,
                "tempo": 120.0
            },
            {
                "start_time": 128.4409090909091,
                "end_time": 129.21363636363637,
                "pitch": 0,
                "velocity": 64,
                "duration": 0.7727272727272805,
                "tempo": 120.0
            },
            {
                "start_time": 129.24545454545455,
                "end_time": 129.51590909090908,
                "pitch": 50,
                "velocity": 64,
                "duration": 0.27045454545452685,
                "tempo": 120.0
            },
            {
                "start_time": 129.54772727272726,
                "end_time": 129.61590909090907,
                "pitch": 50,
                "velocity": 64,
                "duration": 0.06818181818181301,
                "tempo": 120.0
            },
            {
                "start_time": 129.65,
                "end_time": 129.82045454545454,
                "pitch": 0,
                "velocity": 64,
                "duration": 0.17045454545453254,
                "tempo": 120.0
            },
            {
                "start_time": 129.85454545454544,
                "end_time": 131.42954545454546,
                "pitch": 45,
                "velocity": 64,
                "duration": 1.575000000000017,
                "tempo": 120.0
            },
            {
                "start_time": 131.46363636363637,
                "end_time": 131.53181818181818,
                "pitch": 44,
                "velocity": 64,
                "duration": 0.06818181818181301,
                "tempo": 120.0
            },
            {
                "start_time": 131.5659090909091,
                "end_time": 131.6340909090909,
                "pitch": 45,
                "velocity": 64,
                "duration": 0.06818181818181301,
                "tempo": 120.0
            },
            {
                "start_time": 131.6681818181818,
                "end_time": 131.83181818181816,
                "pitch": 0,
                "velocity": 64,
                "duration": 0.16363636363635692,
                "tempo": 120.0
            },
            {
                "start_time": 131.86363636363635,
                "end_time": 131.92954545454546,
                "pitch": 45,
                "velocity": 64,
                "duration": 0.06590909090911623,
                "tempo": 120.0
            },
            {
                "start_time": 131.96136363636364,
                "end_time": 132.02727272727273,
                "pitch": 45,
                "velocity": 64,
                "duration": 0.06590909090908781,
                "tempo": 120.0
            },
            {
                "start_time": 132.0590909090909,
                "end_time": 132.12954545454545,
                "pitch": 45,
                "velocity": 64,
                "duration": 0.07045454545453822,
                "tempo": 120.0
            },
            {
                "start_time": 132.16363636363636,
                "end_time": 132.23181818181817,
                "pitch": 45,
                "velocity": 64,
                "duration": 0.06818181818181301,
                "tempo": 120.0
            },
            {
                "start_time": 132.26590909090908,
                "end_time": 132.43636363636364,
                "pitch": 0,
                "velocity": 64,
                "duration": 0.17045454545456096,
                "tempo": 120.0
            },
            {
                "start_time": 132.47045454545454,
                "end_time": 132.73181818181817,
                "pitch": 44,
                "velocity": 64,
                "duration": 0.26136363636362603,
                "tempo": 120.0
            },
            {
                "start_time": 132.76363636363635,
                "end_time": 132.82954545454544,
                "pitch": 45,
                "velocity": 64,
                "duration": 0.06590909090908781,
                "tempo": 120.0
            },
            {
                "start_time": 132.86363636363635,
                "end_time": 133.23181818181817,
                "pitch": 0,
                "velocity": 64,
                "duration": 0.3681818181818244,
                "tempo": 120.0
            },
            {
                "start_time": 133.26590909090908,
                "end_time": 133.5340909090909,
                "pitch": 50,
                "velocity": 64,
                "duration": 0.26818181818183007,
                "tempo": 120.0
            },
            {
                "start_time": 133.5681818181818,
                "end_time": 133.6340909090909,
                "pitch": 50,
                "velocity": 64,
                "duration": 0.06590909090908781,
                "tempo": 120.0
            },
            {
                "start_time": 133.6681818181818,
                "end_time": 134.43636363636364,
                "pitch": 0,
                "velocity": 64,
                "duration": 0.7681818181818301,
                "tempo": 120.0
            },
            {
                "start_time": 134.47045454545454,
                "end_time": 134.73863636363635,
                "pitch": 50,
                "velocity": 64,
                "duration": 0.26818181818180165,
                "tempo": 120.0
            },
            {
                "start_time": 134.77272727272725,
                "end_time": 134.8409090909091,
                "pitch": 50,
                "velocity": 64,
                "duration": 0.06818181818184144,
                "tempo": 120.0
            },
            {
                "start_time": 134.87272727272727,
                "end_time": 135.64545454545453,
                "pitch": 0,
                "velocity": 64,
                "duration": 0.7727272727272521,
                "tempo": 120.0
            },
            {
                "start_time": 135.67954545454546,
                "end_time": 135.94545454545454,
                "pitch": 50,
                "velocity": 64,
                "duration": 0.26590909090907644,
                "tempo": 120.0
            },
            {
                "start_time": 135.97954545454544,
                "end_time": 136.04545454545453,
                "pitch": 50,
                "velocity": 64,
                "duration": 0.06590909090908781,
                "tempo": 120.0
            },
            {
                "start_time": 136.07954545454544,
                "end_time": 136.25,
                "pitch": 0,
                "velocity": 64,
                "duration": 0.17045454545456096,
                "tempo": 120.0
            },
            {
                "start_time": 136.2840909090909,
                "end_time": 137.8590909090909,
                "pitch": 45,
                "velocity": 64,
                "duration": 1.5749999999999886,
                "tempo": 120.0
            },
            {
                "start_time": 137.8931818181818,
                "end_time": 137.96136363636364,
                "pitch": 44,
                "velocity": 64,
                "duration": 0.06818181818184144,
                "tempo": 120.0
            },
            {
                "start_time": 137.99545454545455,
                "end_time": 138.06363636363636,
                "pitch": 45,
                "velocity": 64,
                "duration": 0.06818181818181301,
                "tempo": 120.0
            },
            {
                "start_time": 138.09772727272727,
                "end_time": 138.26136363636363,
                "pitch": 0,
                "velocity": 64,
                "duration": 0.16363636363635692,
                "tempo": 120.0
            },
            {
                "start_time": 138.2931818181818,
                "end_time": 138.3590909090909,
                "pitch": 45,
                "velocity": 64,
                "duration": 0.06590909090908781,
                "tempo": 120.0
            },
            {
                "start_time": 138.39090909090908,
                "end_time": 138.5568181818182,
                "pitch": 0,
                "velocity": 64,
                "duration": 0.16590909090911055,
                "tempo": 120.0
            },
            {
                "start_time": 138.5909090909091,
                "end_time": 138.65681818181818,
                "pitch": 45,
                "velocity": 64,
                "duration": 0.06590909090908781,
                "tempo": 120.0
            },
            {
                "start_time": 138.6909090909091,
                "end_time": 138.8590909090909,
                "pitch": 0,
                "velocity": 64,
                "duration": 0.16818181818180733,
                "tempo": 120.0
            },
            {
                "start_time": 138.8931818181818,
                "end_time": 139.26136363636363,
                "pitch": 45,
                "velocity": 64,
                "duration": 0.3681818181818244,
                "tempo": 120.0
            },
            {
                "start_time": 139.29545454545453,
                "end_time": 139.66363636363636,
                "pitch": 0,
                "velocity": 64,
                "duration": 0.3681818181818244,
                "tempo": 120.0
            },
            {
                "start_time": 139.69772727272726,
                "end_time": 139.96363636363637,
                "pitch": 50,
                "velocity": 64,
                "duration": 0.26590909090910486,
                "tempo": 120.0
            },
            {
                "start_time": 139.99772727272727,
                "end_time": 140.06363636363636,
                "pitch": 50,
                "velocity": 64,
                "duration": 0.06590909090908781,
                "tempo": 120.0
            },
            {
                "start_time": 140.09772727272727,
                "end_time": 140.87045454545455,
                "pitch": 0,
                "velocity": 64,
                "duration": 0.7727272727272805,
                "tempo": 120.0
            },
            {
                "start_time": 140.90454545454546,
                "end_time": 141.17272727272726,
                "pitch": 50,
                "velocity": 64,
                "duration": 0.26818181818180165,
                "tempo": 120.0
            },
            {
                "start_time": 141.20454545454544,
                "end_time": 141.27272727272725,
                "pitch": 50,
                "velocity": 64,
                "duration": 0.06818181818181301,
                "tempo": 120.0
            },
            {
                "start_time": 141.3068181818182,
                "end_time": 142.075,
                "pitch": 0,
                "velocity": 64,
                "duration": 0.7681818181818016,
                "tempo": 120.0
            },
            {
                "start_time": 142.1090909090909,
                "end_time": 142.37727272727273,
                "pitch": 50,
                "velocity": 64,
                "duration": 0.26818181818183007,
                "tempo": 120.0
            },
            {
                "start_time": 142.41136363636363,
                "end_time": 142.47727272727272,
                "pitch": 50,
                "velocity": 64,
                "duration": 0.06590909090908781,
                "tempo": 120.0
            },
            {
                "start_time": 142.51136363636363,
                "end_time": 142.6840909090909,
                "pitch": 0,
                "velocity": 64,
                "duration": 0.17272727272728616,
                "tempo": 120.0
            },
            {
                "start_time": 142.71818181818182,
                "end_time": 144.2840909090909,
                "pitch": 45,
                "velocity": 64,
                "duration": 1.5659090909090878,
                "tempo": 120.0
            },
            {
                "start_time": 144.3181818181818,
                "end_time": 144.38636363636363,
                "pitch": 44,
                "velocity": 64,
                "duration": 0.06818181818181301,
                "tempo": 120.0
            },
            {
                "start_time": 144.4181818181818,
                "end_time": 144.48636363636362,
                "pitch": 45,
                "velocity": 64,
                "duration": 0.06818181818181301,
                "tempo": 120.0
            },
            {
                "start_time": 144.52045454545453,
                "end_time": 144.68863636363636,
                "pitch": 0,
                "velocity": 64,
                "duration": 0.16818181818183575,
                "tempo": 120.0
            },
            {
                "start_time": 144.72045454545454,
                "end_time": 144.78863636363636,
                "pitch": 57,
                "velocity": 64,
                "duration": 0.06818181818181301,
                "tempo": 120.0
            },
            {
                "start_time": 144.82272727272726,
                "end_time": 144.88863636363635,
                "pitch": 57,
                "velocity": 64,
                "duration": 0.06590909090908781,
                "tempo": 120.0
            },
            {
                "start_time": 144.92272727272726,
                "end_time": 144.99090909090907,
                "pitch": 57,
                "velocity": 64,
                "duration": 0.06818181818181301,
                "tempo": 120.0
            },
            {
                "start_time": 145.025,
                "end_time": 145.09318181818182,
                "pitch": 57,
                "velocity": 64,
                "duration": 0.06818181818181301,
                "tempo": 120.0
            },
            {
                "start_time": 145.12727272727273,
                "end_time": 145.29999999999998,
                "pitch": 0,
                "velocity": 64,
                "duration": 0.17272727272725774,
                "tempo": 120.0
            },
            {
                "start_time": 145.33181818181816,
                "end_time": 145.59545454545454,
                "pitch": 56,
                "velocity": 64,
                "duration": 0.26363636363637966,
                "tempo": 120.0
            },
            {
                "start_time": 145.62727272727273,
                "end_time": 145.6931818181818,
                "pitch": 57,
                "velocity": 64,
                "duration": 0.06590909090908781,
                "tempo": 120.0
            },
            {
                "start_time": 145.725,
                "end_time": 146.09318181818182,
                "pitch": 0,
                "velocity": 64,
                "duration": 0.3681818181818244,
                "tempo": 120.0
            },
            {
                "start_time": 146.125,
                "end_time": 146.3931818181818,
                "pitch": 50,
                "velocity": 64,
                "duration": 0.26818181818180165,
                "tempo": 120.0
            },
            {
                "start_time": 146.4272727272727,
                "end_time": 146.49545454545455,
                "pitch": 50,
                "velocity": 64,
                "duration": 0.06818181818184144,
                "tempo": 120.0
            },
            {
                "start_time": 146.52727272727273,
                "end_time": 147.29999999999998,
                "pitch": 0,
                "velocity": 64,
                "duration": 0.7727272727272521,
                "tempo": 120.0
            },
            {
                "start_time": 147.3340909090909,
                "end_time": 147.60227272727272,
                "pitch": 50,
                "velocity": 64,
                "duration": 0.26818181818183007,
                "tempo": 120.0
            },
            {
                "start_time": 147.63636363636363,
                "end_time": 147.7022727272727,
                "pitch": 50,
                "velocity": 64,
                "duration": 0.06590909090908781,
                "tempo": 120.0
            },
            {
                "start_time": 147.73636363636362,
                "end_time": 148.50454545454545,
                "pitch": 0,
                "velocity": 64,
                "duration": 0.7681818181818301,
                "tempo": 120.0
            },
            {
                "start_time": 148.53863636363636,
                "end_time": 148.8068181818182,
                "pitch": 50,
                "velocity": 64,
                "duration": 0.26818181818183007,
                "tempo": 120.0
            },
            {
                "start_time": 148.8409090909091,
                "end_time": 148.9090909090909,
                "pitch": 62,
                "velocity": 64,
                "duration": 0.06818181818181301,
                "tempo": 120.0
            },
            {
                "start_time": 148.9409090909091,
                "end_time": 149.11363636363635,
                "pitch": 0,
                "velocity": 64,
                "duration": 0.17272727272725774,
                "tempo": 120.0
            },
            {
                "start_time": 149.14772727272725,
                "end_time": 151.3068181818182,
                "pitch": 45,
                "velocity": 64,
                "duration": 2.159090909090935,
                "tempo": 120.0
            },
            {
                "start_time": 151.33863636363637,
                "end_time": 151.51136363636363,
                "pitch": 45,
                "velocity": 64,
                "duration": 0.17272727272725774,
                "tempo": 120.0
            },
            {
                "start_time": 151.54545454545453,
                "end_time": 151.7159090909091,
                "pitch": 0,
                "velocity": 64,
                "duration": 0.17045454545456096,
                "tempo": 120.0
            },
            {
                "start_time": 151.75,
                "end_time": 152.01590909090908,
                "pitch": 45,
                "velocity": 64,
                "duration": 0.26590909090907644,
                "tempo": 120.0
            },
            {
                "start_time": 152.04999999999998,
                "end_time": 152.31363636363636,
                "pitch": 44,
                "velocity": 64,
                "duration": 0.26363636363637966,
                "tempo": 120.0
            },
            {
                "start_time": 152.34545454545454,
                "end_time": 153.71363636363637,
                "pitch": 42,
                "velocity": 64,
                "duration": 1.3681818181818244,
                "tempo": 120.0
            },
            {
                "start_time": 153.74772727272727,
                "end_time": 154.02272727272725,
                "pitch": 42,
                "velocity": 64,
                "duration": 0.27499999999997726,
                "tempo": 120.0
            },
            {
                "start_time": 154.0568181818182,
                "end_time": 155.32045454545454,
                "pitch": 40,
                "velocity": 64,
                "duration": 1.2636363636363512,
                "tempo": 120.0
            },
            {
                "start_time": 155.35454545454544,
                "end_time": 155.62272727272727,
                "pitch": 40,
                "velocity": 64,
                "duration": 0.26818181818183007,
                "tempo": 120.0
            },
            {
                "start_time": 155.65454545454546,
                "end_time": 156.525,
                "pitch": 42,
                "velocity": 64,
                "duration": 0.8704545454545496,
                "tempo": 120.0
            },
            {
                "start_time": 156.5590909090909,
                "end_time": 157.33863636363637,
                "pitch": 54,
                "velocity": 64,
                "duration": 0.7795454545454561,
                "tempo": 120.0
            },
            {
                "start_time": 157.37272727272727,
                "end_time": 157.43636363636364,
                "pitch": 0,
                "velocity": 64,
                "duration": 0.0636363636363626,
                "tempo": 120.0
            },
            {
                "start_time": 157.47045454545454,
                "end_time": 157.53636363636363,
                "pitch": 54,
                "velocity": 64,
                "duration": 0.06590909090908781,
                "tempo": 120.0
            },
            {
                "start_time": 157.5681818181818,
                "end_time": 157.6340909090909,
                "pitch": 0,
                "velocity": 64,
                "duration": 0.06590909090908781,
                "tempo": 120.0
            },
            {
                "start_time": 157.66590909090908,
                "end_time": 157.73181818181817,
                "pitch": 54,
                "velocity": 64,
                "duration": 0.06590909090908781,
                "tempo": 120.0
            },
            {
                "start_time": 157.76590909090908,
                "end_time": 157.83181818181816,
                "pitch": 0,
                "velocity": 64,
                "duration": 0.06590909090908781,
                "tempo": 120.0
            },
            {
                "start_time": 157.86590909090907,
                "end_time": 157.9318181818182,
                "pitch": 54,
                "velocity": 64,
                "duration": 0.06590909090911623,
                "tempo": 120.0
            },
            {
                "start_time": 157.9659090909091,
                "end_time": 158.0340909090909,
                "pitch": 0,
                "velocity": 64,
                "duration": 0.06818181818181301,
                "tempo": 120.0
            },
            {
                "start_time": 158.0659090909091,
                "end_time": 158.1340909090909,
                "pitch": 54,
                "velocity": 64,
                "duration": 0.06818181818181301,
                "tempo": 120.0
            },
            {
                "start_time": 158.1681818181818,
                "end_time": 158.94772727272726,
                "pitch": 0,
                "velocity": 64,
                "duration": 0.7795454545454561,
                "tempo": 120.0
            },
            {
                "start_time": 158.98181818181817,
                "end_time": 159.25454545454545,
                "pitch": 38,
                "velocity": 64,
                "duration": 0.2727272727272805,
                "tempo": 120.0
            },
            {
                "start_time": 159.28863636363636,
                "end_time": 159.55454545454543,
                "pitch": 45,
                "velocity": 64,
                "duration": 0.26590909090907644,
                "tempo": 120.0
            },
            {
                "start_time": 159.58863636363637,
                "end_time": 159.65227272727273,
                "pitch": 50,
                "velocity": 64,
                "duration": 0.0636363636363626,
                "tempo": 120.0
            },
            {
                "start_time": 159.68636363636364,
                "end_time": 159.75227272727273,
                "pitch": 0,
                "velocity": 64,
                "duration": 0.06590909090908781,
                "tempo": 120.0
            },
            {
                "start_time": 159.7840909090909,
                "end_time": 160.04999999999998,
                "pitch": 50,
                "velocity": 64,
                "duration": 0.26590909090907644,
                "tempo": 120.0
            },
            {
                "start_time": 160.0840909090909,
                "end_time": 160.15,
                "pitch": 45,
                "velocity": 64,
                "duration": 0.06590909090911623,
                "tempo": 120.0
            },
            {
                "start_time": 160.1840909090909,
                "end_time": 160.35227272727272,
                "pitch": 45,
                "velocity": 64,
                "duration": 0.16818181818180733,
                "tempo": 120.0
            },
            {
                "start_time": 160.38636363636363,
                "end_time": 160.4522727272727,
                "pitch": 50,
                "velocity": 64,
                "duration": 0.06590909090908781,
                "tempo": 120.0
            },
            {
                "start_time": 160.48636363636362,
                "end_time": 160.55454545454543,
                "pitch": 0,
                "velocity": 64,
                "duration": 0.06818181818181301,
                "tempo": 120.0
            },
            {
                "start_time": 160.58636363636361,
                "end_time": 160.85454545454544,
                "pitch": 40,
                "velocity": 64,
                "duration": 0.26818181818183007,
                "tempo": 120.0
            },
            {
                "start_time": 160.88863636363635,
                "end_time": 161.15681818181818,
                "pitch": 47,
                "velocity": 64,
                "duration": 0.26818181818183007,
                "tempo": 120.0
            },
            {
                "start_time": 161.1909090909091,
                "end_time": 161.2590909090909,
                "pitch": 52,
                "velocity": 64,
                "duration": 0.06818181818181301,
                "tempo": 120.0
            },
            {
                "start_time": 161.29090909090908,
                "end_time": 161.3590909090909,
                "pitch": 0,
                "velocity": 64,
                "duration": 0.06818181818181301,
                "tempo": 120.0
            },
            {
                "start_time": 161.3931818181818,
                "end_time": 161.66136363636363,
                "pitch": 52,
                "velocity": 64,
                "duration": 0.26818181818183007,
                "tempo": 120.0
            },
            {
                "start_time": 161.69545454545454,
                "end_time": 161.76136363636363,
                "pitch": 47,
                "velocity": 64,
                "duration": 0.06590909090908781,
                "tempo": 120.0
            },
            {
                "start_time": 161.79545454545453,
                "end_time": 161.96136363636361,
                "pitch": 47,
                "velocity": 64,
                "duration": 0.16590909090908212,
                "tempo": 120.0
            },
            {
                "start_time": 161.99545454545455,
                "end_time": 162.06136363636364,
                "pitch": 52,
                "velocity": 64,
                "duration": 0.06590909090908781,
                "tempo": 120.0
            },
            {
                "start_time": 162.09545454545454,
                "end_time": 162.16136363636363,
                "pitch": 0,
                "velocity": 64,
                "duration": 0.06590909090908781,
                "tempo": 120.0
            },
            {
                "start_time": 162.19545454545454,
                "end_time": 162.46363636363637,
                "pitch": 42,
                "velocity": 64,
                "duration": 0.26818181818183007,
                "tempo": 120.0
            },
            {
                "start_time": 162.49772727272727,
                "end_time": 162.76590909090908,
                "pitch": 49,
                "velocity": 64,
                "duration": 0.26818181818180165,
                "tempo": 120.0
            },
            {
                "start_time": 162.79999999999998,
                "end_time": 162.86590909090907,
                "pitch": 54,
                "velocity": 64,
                "duration": 0.06590909090908781,
                "tempo": 120.0
            },
            {
                "start_time": 162.9,
                "end_time": 162.9659090909091,
                "pitch": 0,
                "velocity": 64,
                "duration": 0.06590909090908781,
                "tempo": 120.0
            },
            {
                "start_time": 163.0,
                "end_time": 163.2681818181818,
                "pitch": 54,
                "velocity": 64,
                "duration": 0.26818181818180165,
                "tempo": 120.0
            },
            {
                "start_time": 163.3022727272727,
                "end_time": 163.37045454545455,
                "pitch": 49,
                "velocity": 64,
                "duration": 0.06818181818184144,
                "tempo": 120.0
            },
            {
                "start_time": 163.40227272727273,
                "end_time": 163.57045454545454,
                "pitch": 49,
                "velocity": 64,
                "duration": 0.16818181818180733,
                "tempo": 120.0
            },
            {
                "start_time": 163.60454545454544,
                "end_time": 163.67045454545453,
                "pitch": 54,
                "velocity": 64,
                "duration": 0.06590909090908781,
                "tempo": 120.0
            },
            {
                "start_time": 163.70454545454544,
                "end_time": 163.77272727272725,
                "pitch": 0,
                "velocity": 64,
                "duration": 0.06818181818181301,
                "tempo": 120.0
            },
            {
                "start_time": 163.80454545454543,
                "end_time": 164.07272727272726,
                "pitch": 42,
                "velocity": 64,
                "duration": 0.26818181818183007,
                "tempo": 120.0
            },
            {
                "start_time": 164.10454545454544,
                "end_time": 164.37272727272727,
                "pitch": 49,
                "velocity": 64,
                "duration": 0.26818181818183007,
                "tempo": 120.0
            },
            {
                "start_time": 164.40681818181818,
                "end_time": 164.475,
                "pitch": 54,
                "velocity": 64,
                "duration": 0.06818181818181301,
                "tempo": 120.0
            },
            {
                "start_time": 164.50681818181818,
                "end_time": 164.575,
                "pitch": 0,
                "velocity": 64,
                "duration": 0.06818181818181301,
                "tempo": 120.0
            },
            {
                "start_time": 164.6090909090909,
                "end_time": 164.87727272727273,
                "pitch": 54,
                "velocity": 64,
                "duration": 0.26818181818183007,
                "tempo": 120.0
            },
            {
                "start_time": 164.91136363636363,
                "end_time": 164.97727272727272,
                "pitch": 49,
                "velocity": 64,
                "duration": 0.06590909090908781,
                "tempo": 120.0
            },
            {
                "start_time": 165.01136363636363,
                "end_time": 165.17954545454543,
                "pitch": 49,
                "velocity": 64,
                "duration": 0.16818181818180733,
                "tempo": 120.0
            },
            {
                "start_time": 165.21136363636361,
                "end_time": 165.27954545454546,
                "pitch": 54,
                "velocity": 64,
                "duration": 0.06818181818184144,
                "tempo": 120.0
            },
            {
                "start_time": 165.31363636363636,
                "end_time": 165.37954545454545,
                "pitch": 0,
                "velocity": 64,
                "duration": 0.06590909090908781,
                "tempo": 120.0
            },
            {
                "start_time": 165.41363636363636,
                "end_time": 165.6818181818182,
                "pitch": 38,
                "velocity": 64,
                "duration": 0.26818181818183007,
                "tempo": 120.0
            },
            {
                "start_time": 165.7159090909091,
                "end_time": 165.9840909090909,
                "pitch": 45,
                "velocity": 64,
                "duration": 0.26818181818180165,
                "tempo": 120.0
            },
            {
                "start_time": 166.01590909090908,
                "end_time": 166.0840909090909,
                "pitch": 50,
                "velocity": 64,
                "duration": 0.06818181818181301,
                "tempo": 120.0
            },
            {
                "start_time": 166.11590909090907,
                "end_time": 166.1840909090909,
                "pitch": 0,
                "velocity": 64,
                "duration": 0.06818181818184144,
                "tempo": 120.0
            },
            {
                "start_time": 166.2159090909091,
                "end_time": 166.4840909090909,
                "pitch": 50,
                "velocity": 64,
                "duration": 0.26818181818180165,
                "tempo": 120.0
            },
            {
                "start_time": 166.5181818181818,
                "end_time": 166.58636363636361,
                "pitch": 45,
                "velocity": 64,
                "duration": 0.06818181818181301,
                "tempo": 120.0
            },
            {
                "start_time": 166.6181818181818,
                "end_time": 166.78636363636363,
                "pitch": 45,
                "velocity": 64,
                "duration": 0.16818181818183575,
                "tempo": 120.0
            },
            {
                "start_time": 166.82045454545454,
                "end_time": 166.88863636363635,
                "pitch": 50,
                "velocity": 64,
                "duration": 0.06818181818181301,
                "tempo": 120.0
            },
            {
                "start_time": 166.92045454545453,
                "end_time": 166.98863636363635,
                "pitch": 0,
                "velocity": 64,
                "duration": 0.06818181818181301,
                "tempo": 120.0
            },
            {
                "start_time": 167.02272727272725,
                "end_time": 167.29090909090908,
                "pitch": 40,
                "velocity": 64,
                "duration": 0.26818181818183007,
                "tempo": 120.0
            },
            {
                "start_time": 167.325,
                "end_time": 167.59318181818182,
                "pitch": 47,
                "velocity": 64,
                "duration": 0.26818181818183007,
                "tempo": 120.0
            },
            {
                "start_time": 167.625,
                "end_time": 167.6931818181818,
                "pitch": 52,
                "velocity": 64,
                "duration": 0.06818181818181301,
                "tempo": 120.0
            },
            {
                "start_time": 167.72727272727272,
                "end_time": 167.7931818181818,
                "pitch": 0,
                "velocity": 64,
                "duration": 0.06590909090908781,
                "tempo": 120.0
            },
            {
                "start_time": 167.8272727272727,
                "end_time": 168.09318181818182,
                "pitch": 52,
                "velocity": 64,
                "duration": 0.26590909090910486,
                "tempo": 120.0
            },
            {
                "start_time": 168.12727272727273,
                "end_time": 168.1931818181818,
                "pitch": 47,
                "velocity": 64,
                "duration": 0.06590909090908781,
                "tempo": 120.0
            },
            {
                "start_time": 168.22727272727272,
                "end_time": 168.39545454545453,
                "pitch": 47,
                "velocity": 64,
                "duration": 0.16818181818180733,
                "tempo": 120.0
            },
            {
                "start_time": 168.42954545454543,
                "end_time": 168.49545454545455,
                "pitch": 52,
                "velocity": 64,
                "duration": 0.06590909090911623,
                "tempo": 120.0
            },
            {
                "start_time": 168.52954545454546,
                "end_time": 168.59545454545454,
                "pitch": 0,
                "velocity": 64,
                "duration": 0.06590909090908781,
                "tempo": 120.0
            },
            {
                "start_time": 168.62954545454545,
                "end_time": 168.89772727272725,
                "pitch": 42,
                "velocity": 64,
                "duration": 0.26818181818180165,
                "tempo": 120.0
            },
            {
                "start_time": 168.9318181818182,
                "end_time": 169.2,
                "pitch": 49,
                "velocity": 64,
                "duration": 0.26818181818180165,
                "tempo": 120.0
            },
            {
                "start_time": 169.2340909090909,
                "end_time": 169.29999999999998,
                "pitch": 54,
                "velocity": 64,
                "duration": 0.06590909090908781,
                "tempo": 120.0
            },
            {
                "start_time": 169.3340909090909,
                "end_time": 169.40227272727273,
                "pitch": 0,
                "velocity": 64,
                "duration": 0.06818181818184144,
                "tempo": 120.0
            },
            {
                "start_time": 169.43636363636364,
                "end_time": 169.70454545454544,
                "pitch": 54,
                "velocity": 64,
                "duration": 0.26818181818180165,
                "tempo": 120.0
            },
            {
                "start_time": 169.73636363636362,
                "end_time": 169.80454545454543,
                "pitch": 49,
                "velocity": 64,
                "duration": 0.06818181818181301,
                "tempo": 120.0
            },
            {
                "start_time": 169.83863636363637,
                "end_time": 170.00454545454545,
                "pitch": 49,
                "velocity": 64,
                "duration": 0.16590909090908212,
                "tempo": 120.0
            },
            {
                "start_time": 170.03863636363636,
                "end_time": 170.10454545454544,
                "pitch": 54,
                "velocity": 64,
                "duration": 0.06590909090908781,
                "tempo": 120.0
            },
            {
                "start_time": 170.13863636363635,
                "end_time": 170.20454545454544,
                "pitch": 0,
                "velocity": 64,
                "duration": 0.06590909090908781,
                "tempo": 120.0
            },
            {
                "start_time": 170.23863636363635,
                "end_time": 170.50681818181818,
                "pitch": 42,
                "velocity": 64,
                "duration": 0.26818181818183007,
                "tempo": 120.0
            },
            {
                "start_time": 170.54090909090908,
                "end_time": 170.8090909090909,
                "pitch": 49,
                "velocity": 64,
                "duration": 0.26818181818183007,
                "tempo": 120.0
            },
            {
                "start_time": 170.8409090909091,
                "end_time": 170.9090909090909,
                "pitch": 54,
                "velocity": 64,
                "duration": 0.06818181818181301,
                "tempo": 120.0
            },
            {
                "start_time": 170.9431818181818,
                "end_time": 171.0090909090909,
                "pitch": 0,
                "velocity": 64,
                "duration": 0.06590909090908781,
                "tempo": 120.0
            },
            {
                "start_time": 171.0431818181818,
                "end_time": 171.31136363636364,
                "pitch": 54,
                "velocity": 64,
                "duration": 0.26818181818183007,
                "tempo": 120.0
            },
            {
                "start_time": 171.34545454545454,
                "end_time": 171.41136363636363,
                "pitch": 49,
                "velocity": 64,
                "duration": 0.06590909090908781,
                "tempo": 120.0
            },
            {
                "start_time": 171.44545454545454,
                "end_time": 171.61363636363635,
                "pitch": 49,
                "velocity": 64,
                "duration": 0.16818181818180733,
                "tempo": 120.0
            },
            {
                "start_time": 171.64772727272725,
                "end_time": 171.71363636363637,
                "pitch": 54,
                "velocity": 64,
                "duration": 0.06590909090911623,
                "tempo": 120.0
            },
            {
                "start_time": 171.74772727272727,
                "end_time": 171.8159090909091,
                "pitch": 0,
                "velocity": 64,
                "duration": 0.06818181818181301,
                "tempo": 120.0
            },
            {
                "start_time": 171.84772727272727,
                "end_time": 172.11590909090907,
                "pitch": 38,
                "velocity": 64,
                "duration": 0.26818181818180165,
                "tempo": 120.0
            },
            {
                "start_time": 172.14772727272725,
                "end_time": 172.41590909090908,
                "pitch": 45,
                "velocity": 64,
                "duration": 0.26818181818183007,
                "tempo": 120.0
            },
            {
                "start_time": 172.45,
                "end_time": 172.5181818181818,
                "pitch": 50,
                "velocity": 64,
                "duration": 0.06818181818181301,
                "tempo": 120.0
            },
            {
                "start_time": 172.54999999999998,
                "end_time": 172.6181818181818,
                "pitch": 0,
                "velocity": 64,
                "duration": 0.06818181818181301,
                "tempo": 120.0
            },
            {
                "start_time": 172.65227272727273,
                "end_time": 172.92045454545453,
                "pitch": 50,
                "velocity": 64,
                "duration": 0.26818181818180165,
                "tempo": 120.0
            },
            {
                "start_time": 172.95454545454544,
                "end_time": 173.02045454545453,
                "pitch": 45,
                "velocity": 64,
                "duration": 0.06590909090908781,
                "tempo": 120.0
            },
            {
                "start_time": 173.05454545454543,
                "end_time": 173.22272727272727,
                "pitch": 45,
                "velocity": 64,
                "duration": 0.16818181818183575,
                "tempo": 120.0
            },
            {
                "start_time": 173.25454545454545,
                "end_time": 173.32272727272726,
                "pitch": 50,
                "velocity": 64,
                "duration": 0.06818181818181301,
                "tempo": 120.0
            },
            {
                "start_time": 173.35681818181817,
                "end_time": 173.42272727272726,
                "pitch": 0,
                "velocity": 64,
                "duration": 0.06590909090908781,
                "tempo": 120.0
            },
            {
                "start_time": 173.45681818181816,
                "end_time": 173.725,
                "pitch": 40,
                "velocity": 64,
                "duration": 0.26818181818183007,
                "tempo": 120.0
            },
            {
                "start_time": 173.7590909090909,
                "end_time": 174.025,
                "pitch": 47,
                "velocity": 64,
                "duration": 0.26590909090910486,
                "tempo": 120.0
            },
            {
                "start_time": 174.0590909090909,
                "end_time": 174.125,
                "pitch": 52,
                "velocity": 64,
                "duration": 0.06590909090908781,
                "tempo": 120.0
            },
            {
                "start_time": 174.1590909090909,
                "end_time": 174.225,
                "pitch": 0,
                "velocity": 64,
                "duration": 0.06590909090908781,
                "tempo": 120.0
            },
            {
                "start_time": 174.2590909090909,
                "end_time": 174.52727272727273,
                "pitch": 52,
                "velocity": 64,
                "duration": 0.26818181818183007,
                "tempo": 120.0
            },
            {
                "start_time": 174.56136363636364,
                "end_time": 174.62954545454545,
                "pitch": 47,
                "velocity": 64,
                "duration": 0.06818181818181301,
                "tempo": 120.0
            },
            {
                "start_time": 174.66136363636363,
                "end_time": 174.82954545454544,
                "pitch": 47,
                "velocity": 64,
                "duration": 0.16818181818180733,
                "tempo": 120.0
            },
            {
                "start_time": 174.86363636363635,
                "end_time": 174.92954545454543,
                "pitch": 52,
                "velocity": 64,
                "duration": 0.06590909090908781,
                "tempo": 120.0
            },
            {
                "start_time": 174.96363636363637,
                "end_time": 175.03181818181818,
                "pitch": 0,
                "velocity": 64,
                "duration": 0.06818181818181301,
                "tempo": 120.0
            },
            {
                "start_time": 175.0659090909091,
                "end_time": 175.3340909090909,
                "pitch": 42,
                "velocity": 64,
                "duration": 0.26818181818180165,
                "tempo": 120.0
            },
            {
                "start_time": 175.36590909090907,
                "end_time": 175.63636363636363,
                "pitch": 49,
                "velocity": 64,
                "duration": 0.2704545454545553,
                "tempo": 120.0
            },
            {
                "start_time": 175.6681818181818,
                "end_time": 175.73636363636362,
                "pitch": 54,
                "velocity": 64,
                "duration": 0.06818181818181301,
                "tempo": 120.0
            },
            {
                "start_time": 175.77045454545453,
                "end_time": 175.83636363636361,
                "pitch": 0,
                "velocity": 64,
                "duration": 0.06590909090908781,
                "tempo": 120.0
            },
            {
                "start_time": 175.87045454545455,
                "end_time": 176.13636363636363,
                "pitch": 54,
                "velocity": 64,
                "duration": 0.26590909090907644,
                "tempo": 120.0
            },
            {
                "start_time": 176.17045454545453,
                "end_time": 176.23636363636362,
                "pitch": 49,
                "velocity": 64,
                "duration": 0.06590909090908781,
                "tempo": 120.0
            },
            {
                "start_time": 176.27045454545453,
                "end_time": 176.43863636363636,
                "pitch": 49,
                "velocity": 64,
                "duration": 0.16818181818183575,
                "tempo": 120.0
            },
            {
                "start_time": 176.47045454545454,
                "end_time": 176.53863636363636,
                "pitch": 54,
                "velocity": 64,
                "duration": 0.06818181818181301,
                "tempo": 120.0
            },
            {
                "start_time": 176.57272727272726,
                "end_time": 176.63863636363635,
                "pitch": 0,
                "velocity": 64,
                "duration": 0.06590909090908781,
                "tempo": 120.0
            },
            {
                "start_time": 176.67272727272726,
                "end_time": 176.9409090909091,
                "pitch": 42,
                "velocity": 64,
                "duration": 0.26818181818183007,
                "tempo": 120.0
            },
            {
                "start_time": 176.975,
                "end_time": 177.2431818181818,
                "pitch": 49,
                "velocity": 64,
                "duration": 0.26818181818180165,
                "tempo": 120.0
            },
            {
                "start_time": 177.27727272727273,
                "end_time": 177.34318181818182,
                "pitch": 54,
                "velocity": 64,
                "duration": 0.06590909090908781,
                "tempo": 120.0
            },
            {
                "start_time": 177.37727272727273,
                "end_time": 177.44545454545454,
                "pitch": 0,
                "velocity": 64,
                "duration": 0.06818181818181301,
                "tempo": 120.0
            },
            {
                "start_time": 177.47727272727272,
                "end_time": 177.74772727272727,
                "pitch": 54,
                "velocity": 64,
                "duration": 0.2704545454545553,
                "tempo": 120.0
            },
            {
                "start_time": 177.77954545454546,
                "end_time": 177.84772727272727,
                "pitch": 49,
                "velocity": 64,
                "duration": 0.06818181818181301,
                "tempo": 120.0
            },
            {
                "start_time": 177.88181818181818,
                "end_time": 178.04772727272726,
                "pitch": 49,
                "velocity": 64,
                "duration": 0.16590909090908212,
                "tempo": 120.0
            },
            {
                "start_time": 178.08181818181816,
                "end_time": 178.14772727272725,
                "pitch": 54,
                "velocity": 64,
                "duration": 0.06590909090908781,
                "tempo": 120.0
            },
            {
                "start_time": 178.1818181818182,
                "end_time": 178.24772727272727,
                "pitch": 0,
                "velocity": 64,
                "duration": 0.06590909090908781,
                "tempo": 120.0
            },
            {
                "start_time": 178.28181818181818,
                "end_time": 178.54999999999998,
                "pitch": 38,
                "velocity": 64,
                "duration": 0.26818181818180165,
                "tempo": 120.0
            },
            {
                "start_time": 178.5840909090909,
                "end_time": 178.85227272727272,
                "pitch": 45,
                "velocity": 64,
                "duration": 0.26818181818183007,
                "tempo": 120.0
            },
            {
                "start_time": 178.8840909090909,
                "end_time": 178.9522727272727,
                "pitch": 50,
                "velocity": 64,
                "duration": 0.06818181818181301,
                "tempo": 120.0
            },
            {
                "start_time": 178.98636363636362,
                "end_time": 179.0522727272727,
                "pitch": 0,
                "velocity": 64,
                "duration": 0.06590909090908781,
                "tempo": 120.0
            },
            {
                "start_time": 179.08636363636361,
                "end_time": 179.35454545454544,
                "pitch": 50,
                "velocity": 64,
                "duration": 0.26818181818183007,
                "tempo": 120.0
            },
            {
                "start_time": 179.38863636363635,
                "end_time": 179.45454545454544,
                "pitch": 45,
                "velocity": 64,
                "duration": 0.06590909090908781,
                "tempo": 120.0
            },
            {
                "start_time": 179.48863636363635,
                "end_time": 179.65681818181818,
                "pitch": 45,
                "velocity": 64,
                "duration": 0.16818181818183575,
                "tempo": 120.0
            },
            {
                "start_time": 179.6909090909091,
                "end_time": 179.75681818181818,
                "pitch": 50,
                "velocity": 64,
                "duration": 0.06590909090908781,
                "tempo": 120.0
            },
            {
                "start_time": 179.79090909090908,
                "end_time": 179.8590909090909,
                "pitch": 0,
                "velocity": 64,
                "duration": 0.06818181818181301,
                "tempo": 120.0
            }
        ],
        "Vibraphone": [
            {
                "start_time": 2.120454545454545,
                "end_time": 2.186363636363636,
                "pitch": 64,
                "velocity": 64,
                "duration": 0.06590909090909092,
                "tempo": 120.0
            },
            {
                "start_time": 2.2181818181818183,
                "end_time": 2.284090909090909,
                "pitch": 0,
                "velocity": 64,
                "duration": 0.06590909090909092,
                "tempo": 120.0
            },
            {
                "start_time": 2.315909090909091,
                "end_time": 2.381818181818182,
                "pitch": 64,
                "velocity": 64,
                "duration": 0.06590909090909092,
                "tempo": 120.0
            },
            {
                "start_time": 2.4136363636363636,
                "end_time": 2.775,
                "pitch": 0,
                "velocity": 64,
                "duration": 0.36136363636363633,
                "tempo": 120.0
            },
            {
                "start_time": 2.8068181818181817,
                "end_time": 3.184090909090909,
                "pitch": 66,
                "velocity": 64,
                "duration": 0.3772727272727274,
                "tempo": 120.0
            },
            {
                "start_time": 3.218181818181818,
                "end_time": 5.1909090909090905,
                "pitch": 67,
                "velocity": 64,
                "duration": 1.9727272727272727,
                "tempo": 120.0
            },
            {
                "start_time": 5.222727272727273,
                "end_time": 5.290909090909091,
                "pitch": 67,
                "velocity": 64,
                "duration": 0.06818181818181834,
                "tempo": 120.0
            },
            {
                "start_time": 5.325,
                "end_time": 5.390909090909091,
                "pitch": 67,
                "velocity": 64,
                "duration": 0.06590909090909047,
                "tempo": 120.0
            },
            {
                "start_time": 5.425,
                "end_time": 5.49090909090909,
                "pitch": 0,
                "velocity": 64,
                "duration": 0.06590909090909047,
                "tempo": 120.0
            },
            {
                "start_time": 5.5249999999999995,
                "end_time": 5.593181818181818,
                "pitch": 67,
                "velocity": 64,
                "duration": 0.06818181818181834,
                "tempo": 120.0
            },
            {
                "start_time": 5.625,
                "end_time": 5.9840909090909085,
                "pitch": 0,
                "velocity": 64,
                "duration": 0.35909090909090846,
                "tempo": 120.0
            },
            {
                "start_time": 6.018181818181818,
                "end_time": 6.3954545454545455,
                "pitch": 65,
                "velocity": 64,
                "duration": 0.37727272727272787,
                "tempo": 120.0
            },
            {
                "start_time": 6.429545454545455,
                "end_time": 8.504545454545454,
                "pitch": 64,
                "velocity": 64,
                "duration": 2.0749999999999993,
                "tempo": 120.0
            },
            {
                "start_time": 8.538636363636364,
                "end_time": 8.604545454545454,
                "pitch": 64,
                "velocity": 64,
                "duration": 0.06590909090908958,
                "tempo": 120.0
            },
            {
                "start_time": 8.638636363636364,
                "end_time": 8.704545454545453,
                "pitch": 0,
                "velocity": 64,
                "duration": 0.06590909090908958,
                "tempo": 120.0
            },
            {
                "start_time": 8.738636363636363,
                "end_time": 8.806818181818182,
                "pitch": 64,
                "velocity": 64,
                "duration": 0.06818181818181834,
                "tempo": 120.0
            },
            {
                "start_time": 8.838636363636363,
                "end_time": 9.197727272727272,
                "pitch": 0,
                "velocity": 64,
                "duration": 0.35909090909090935,
                "tempo": 120.0
            },
            {
                "start_time": 9.23181818181818,
                "end_time": 9.60909090909091,
                "pitch": 66,
                "velocity": 64,
                "duration": 0.37727272727272876,
                "tempo": 120.0
            },
            {
                "start_time": 9.643181818181818,
                "end_time": 11.629545454545454,
                "pitch": 67,
                "velocity": 64,
                "duration": 1.9863636363636363,
                "tempo": 120.0
            },
            {
                "start_time": 11.661363636363635,
                "end_time": 11.725,
                "pitch": 67,
                "velocity": 64,
                "duration": 0.06363636363636438,
                "tempo": 120.0
            },
            {
                "start_time": 11.756818181818181,
                "end_time": 11.822727272727272,
                "pitch": 67,
                "velocity": 64,
                "duration": 0.06590909090909136,
                "tempo": 120.0
            },
            {
                "start_time": 11.854545454545454,
                "end_time": 11.918181818181818,
                "pitch": 0,
                "velocity": 64,
                "duration": 0.06363636363636438,
                "tempo": 120.0
            },
            {
                "start_time": 11.95,
                "end_time": 12.013636363636364,
                "pitch": 67,
                "velocity": 64,
                "duration": 0.06363636363636438,
                "tempo": 120.0
            },
            {
                "start_time": 12.045454545454545,
                "end_time": 12.415909090909091,
                "pitch": 0,
                "velocity": 64,
                "duration": 0.37045454545454604,
                "tempo": 120.0
            },
            {
                "start_time": 12.45,
                "end_time": 12.825,
                "pitch": 65,
                "velocity": 64,
                "duration": 0.375,
                "tempo": 120.0
            },
            {
                "start_time": 12.85909090909091,
                "end_time": 12.924999999999999,
                "pitch": 0,
                "velocity": 64,
                "duration": 0.06590909090908958,
                "tempo": 120.0
            },
            {
                "start_time": 12.956818181818182,
                "end_time": 13.022727272727272,
                "pitch": 61,
                "velocity": 64,
                "duration": 0.06590909090908958,
                "tempo": 120.0
            },
            {
                "start_time": 13.054545454545455,
                "end_time": 13.120454545454544,
                "pitch": 0,
                "velocity": 64,
                "duration": 0.06590909090908958,
                "tempo": 120.0
            },
            {
                "start_time": 13.152272727272727,
                "end_time": 13.218181818181817,
                "pitch": 61,
                "velocity": 64,
                "duration": 0.06590909090908958,
                "tempo": 120.0
            },
            {
                "start_time": 13.252272727272727,
                "end_time": 13.318181818181818,
                "pitch": 0,
                "velocity": 64,
                "duration": 0.06590909090909136,
                "tempo": 120.0
            },
            {
                "start_time": 13.352272727272727,
                "end_time": 13.418181818181818,
                "pitch": 61,
                "velocity": 64,
                "duration": 0.06590909090909136,
                "tempo": 120.0
            },
            {
                "start_time": 13.452272727272726,
                "end_time": 13.520454545454545,
                "pitch": 0,
                "velocity": 64,
                "duration": 0.06818181818181834,
                "tempo": 120.0
            },
            {
                "start_time": 13.554545454545455,
                "end_time": 13.620454545454544,
                "pitch": 61,
                "velocity": 64,
                "duration": 0.06590909090908958,
                "tempo": 120.0
            },
            {
                "start_time": 13.654545454545454,
                "end_time": 13.722727272727273,
                "pitch": 0,
                "velocity": 64,
                "duration": 0.06818181818181834,
                "tempo": 120.0
            },
            {
                "start_time": 13.756818181818181,
                "end_time": 13.825,
                "pitch": 61,
                "velocity": 64,
                "duration": 0.06818181818181834,
                "tempo": 120.0
            },
            {
                "start_time": 13.859090909090908,
                "end_time": 13.929545454545455,
                "pitch": 0,
                "velocity": 64,
                "duration": 0.0704545454545471,
                "tempo": 120.0
            },
            {
                "start_time": 13.963636363636363,
                "end_time": 14.031818181818181,
                "pitch": 61,
                "velocity": 64,
                "duration": 0.06818181818181834,
                "tempo": 120.0
            },
            {
                "start_time": 14.063636363636363,
                "end_time": 14.129545454545454,
                "pitch": 0,
                "velocity": 64,
                "duration": 0.06590909090909136,
                "tempo": 120.0
            },
            {
                "start_time": 14.161363636363635,
                "end_time": 14.227272727272727,
                "pitch": 61,
                "velocity": 64,
                "duration": 0.06590909090909136,
                "tempo": 120.0
            },
            {
                "start_time": 14.261363636363635,
                "end_time": 14.325,
                "pitch": 0,
                "velocity": 64,
                "duration": 0.06363636363636438,
                "tempo": 120.0
            },
            {
                "start_time": 14.359090909090908,
                "end_time": 14.422727272727272,
                "pitch": 61,
                "velocity": 64,
                "duration": 0.06363636363636438,
                "tempo": 120.0
            },
            {
                "start_time": 14.45681818181818,
                "end_time": 17.643181818181816,
                "pitch": 64,
                "velocity": 64,
                "duration": 3.1863636363636356,
                "tempo": 120.0
            },
            {
                "start_time": 17.677272727272726,
                "end_time": 20.052272727272726,
                "pitch": 64,
                "velocity": 64,
                "duration": 2.375,
                "tempo": 120.0
            },
            {
                "start_time": 20.084090909090907,
                "end_time": 20.461363636363636,
                "pitch": 68,
                "velocity": 64,
                "duration": 0.37727272727272876,
                "tempo": 120.0
            },
            {
                "start_time": 20.495454545454546,
                "end_time": 20.861363636363635,
                "pitch": 64,
                "velocity": 64,
                "duration": 0.3659090909090885,
                "tempo": 120.0
            },
            {
                "start_time": 20.895454545454545,
                "end_time": 23.261363636363637,
                "pitch": 64,
                "velocity": 64,
                "duration": 2.365909090909092,
                "tempo": 120.0
            },
            {
                "start_time": 23.295454545454543,
                "end_time": 23.661363636363635,
                "pitch": 68,
                "velocity": 64,
                "duration": 0.36590909090909207,
                "tempo": 120.0
            },
            {
                "start_time": 23.695454545454545,
                "end_time": 24.07272727272727,
                "pitch": 64,
                "velocity": 64,
                "duration": 0.3772727272727252,
                "tempo": 120.0
            },
            {
                "start_time": 24.10681818181818,
                "end_time": 26.470454545454544,
                "pitch": 62,
                "velocity": 64,
                "duration": 2.3636363636363633,
                "tempo": 120.0
            },
            {
                "start_time": 26.504545454545454,
                "end_time": 26.870454545454542,
                "pitch": 64,
                "velocity": 64,
                "duration": 0.3659090909090885,
                "tempo": 120.0
            },
            {
                "start_time": 26.904545454545453,
                "end_time": 27.27272727272727,
                "pitch": 66,
                "velocity": 64,
                "duration": 0.3681818181818173,
                "tempo": 120.0
            },
            {
                "start_time": 27.30681818181818,
                "end_time": 28.777272727272727,
                "pitch": 62,
                "velocity": 64,
                "duration": 1.4704545454545475,
                "tempo": 120.0
            },
            {
                "start_time": 28.80909090909091,
                "end_time": 30.48181818181818,
                "pitch": 62,
                "velocity": 64,
                "duration": 1.672727272727272,
                "tempo": 120.0
            },
            {
                "start_time": 30.51590909090909,
                "end_time": 32.888636363636365,
                "pitch": 64,
                "velocity": 64,
                "duration": 2.372727272727275,
                "tempo": 120.0
            },
            {
                "start_time": 32.92045454545455,
                "end_time": 33.29772727272727,
                "pitch": 68,
                "velocity": 64,
                "duration": 0.3772727272727252,
                "tempo": 120.0
            },
            {
                "start_time": 33.33181818181818,
                "end_time": 33.69772727272727,
                "pitch": 64,
                "velocity": 64,
                "duration": 0.36590909090909207,
                "tempo": 120.0
            },
            {
                "start_time": 33.73181818181818,
                "end_time": 36.09318181818182,
                "pitch": 64,
                "velocity": 64,
                "duration": 2.3613636363636417,
                "tempo": 120.0
            },
            {
                "start_time": 36.127272727272725,
                "end_time": 36.49318181818182,
                "pitch": 68,
                "velocity": 64,
                "duration": 0.36590909090909207,
                "tempo": 120.0
            },
            {
                "start_time": 36.527272727272724,
                "end_time": 36.904545454545456,
                "pitch": 64,
                "velocity": 64,
                "duration": 0.3772727272727323,
                "tempo": 120.0
            },
            {
                "start_time": 36.93636363636364,
                "end_time": 39.30227272727272,
                "pitch": 62,
                "velocity": 64,
                "duration": 2.365909090909085,
                "tempo": 120.0
            },
            {
                "start_time": 39.336363636363636,
                "end_time": 39.711363636363636,
                "pitch": 64,
                "velocity": 64,
                "duration": 0.375,
                "tempo": 120.0
            },
            {
                "start_time": 39.74545454545454,
                "end_time": 40.10454545454545,
                "pitch": 66,
                "velocity": 64,
                "duration": 0.35909090909090935,
                "tempo": 120.0
            },
            {
                "start_time": 40.13863636363636,
                "end_time": 41.60909090909091,
                "pitch": 62,
                "velocity": 64,
                "duration": 1.470454545454551,
                "tempo": 120.0
            },
            {
                "start_time": 41.643181818181816,
                "end_time": 43.32272727272727,
                "pitch": 62,
                "velocity": 64,
                "duration": 1.6795454545454547,
                "tempo": 120.0
            },
            {
                "start_time": 43.35681818181818,
                "end_time": 43.625,
                "pitch": 64,
                "velocity": 64,
                "duration": 0.26818181818182296,
                "tempo": 120.0
            },
            {
                "start_time": 43.65681818181818,
                "end_time": 43.725,
                "pitch": 64,
                "velocity": 64,
                "duration": 0.06818181818182012,
                "tempo": 120.0
            },
            {
                "start_time": 43.75681818181818,
                "end_time": 44.51590909090909,
                "pitch": 0,
                "velocity": 64,
                "duration": 0.7590909090909079,
                "tempo": 120.0
            },
            {
                "start_time": 44.55,
                "end_time": 44.81590909090909,
                "pitch": 64,
                "velocity": 64,
                "duration": 0.26590909090909065,
                "tempo": 120.0
            },
            {
                "start_time": 44.849999999999994,
                "end_time": 44.91590909090909,
                "pitch": 64,
                "velocity": 64,
                "duration": 0.06590909090909491,
                "tempo": 120.0
            },
            {
                "start_time": 44.949999999999996,
                "end_time": 45.71818181818182,
                "pitch": 0,
                "velocity": 64,
                "duration": 0.768181818181823,
                "tempo": 120.0
            },
            {
                "start_time": 45.752272727272725,
                "end_time": 46.018181818181816,
                "pitch": 64,
                "velocity": 64,
                "duration": 0.26590909090909065,
                "tempo": 120.0
            },
            {
                "start_time": 46.05227272727272,
                "end_time": 46.11818181818182,
                "pitch": 64,
                "velocity": 64,
                "duration": 0.06590909090909491,
                "tempo": 120.0
            },
            {
                "start_time": 46.152272727272724,
                "end_time": 46.32272727272727,
                "pitch": 0,
                "velocity": 64,
                "duration": 0.17045454545454675,
                "tempo": 120.0
            },
            {
                "start_time": 46.35681818181818,
                "end_time": 48.125,
                "pitch": 64,
                "velocity": 64,
                "duration": 1.768181818181823,
                "tempo": 120.0
            },
            {
                "start_time": 48.15681818181818,
                "end_time": 48.324999999999996,
                "pitch": 0,
                "velocity": 64,
                "duration": 0.16818181818181444,
                "tempo": 120.0
            },
            {
                "start_time": 48.35681818181818,
                "end_time": 48.425,
                "pitch": 76,
                "velocity": 64,
                "duration": 0.06818181818182012,
                "tempo": 120.0
            },
            {
                "start_time": 48.45681818181818,
                "end_time": 48.525,
                "pitch": 76,
                "velocity": 64,
                "duration": 0.06818181818182012,
                "tempo": 120.0
            },
            {
                "start_time": 48.55681818181818,
                "end_time": 48.627272727272725,
                "pitch": 76,
                "velocity": 64,
                "duration": 0.07045454545454533,
                "tempo": 120.0
            },
            {
                "start_time": 48.66136363636363,
                "end_time": 48.72954545454545,
                "pitch": 76,
                "velocity": 64,
                "duration": 0.06818181818182012,
                "tempo": 120.0
            },
            {
                "start_time": 48.76363636363636,
                "end_time": 48.934090909090905,
                "pitch": 0,
                "velocity": 64,
                "duration": 0.17045454545454675,
                "tempo": 120.0
            },
            {
                "start_time": 48.96818181818182,
                "end_time": 49.22954545454545,
                "pitch": 76,
                "velocity": 64,
                "duration": 0.26136363636363313,
                "tempo": 120.0
            },
            {
                "start_time": 49.26136363636363,
                "end_time": 49.32727272727273,
                "pitch": 76,
                "velocity": 64,
                "duration": 0.06590909090909491,
                "tempo": 120.0
            },
            {
                "start_time": 49.361363636363635,
                "end_time": 49.72954545454545,
                "pitch": 0,
                "velocity": 64,
                "duration": 0.3681818181818173,
                "tempo": 120.0
            },
            {
                "start_time": 49.76363636363636,
                "end_time": 50.02954545454545,
                "pitch": 64,
                "velocity": 64,
                "duration": 0.26590909090909065,
                "tempo": 120.0
            },
            {
                "start_time": 50.06363636363636,
                "end_time": 50.12954545454545,
                "pitch": 64,
                "velocity": 64,
                "duration": 0.06590909090908781,
                "tempo": 120.0
            },
            {
                "start_time": 50.163636363636364,
                "end_time": 50.929545454545455,
                "pitch": 0,
                "velocity": 64,
                "duration": 0.7659090909090907,
                "tempo": 120.0
            },
            {
                "start_time": 50.96363636363636,
                "end_time": 51.22954545454545,
                "pitch": 64,
                "velocity": 64,
                "duration": 0.26590909090909065,
                "tempo": 120.0
            },
            {
                "start_time": 51.26363636363636,
                "end_time": 51.32954545454545,
                "pitch": 64,
                "velocity": 64,
                "duration": 0.06590909090909491,
                "tempo": 120.0
            },
            {
                "start_time": 51.36363636363636,
                "end_time": 52.13181818181818,
                "pitch": 0,
                "velocity": 64,
                "duration": 0.768181818181823,
                "tempo": 120.0
            },
            {
                "start_time": 52.16590909090909,
                "end_time": 52.43181818181818,
                "pitch": 64,
                "velocity": 64,
                "duration": 0.26590909090909065,
                "tempo": 120.0
            },
            {
                "start_time": 52.465909090909086,
                "end_time": 52.53181818181818,
                "pitch": 64,
                "velocity": 64,
                "duration": 0.06590909090909491,
                "tempo": 120.0
            },
            {
                "start_time": 52.56590909090909,
                "end_time": 52.736363636363635,
                "pitch": 0,
                "velocity": 64,
                "duration": 0.17045454545454675,
                "tempo": 120.0
            },
            {
                "start_time": 52.77045454545454,
                "end_time": 54.54772727272727,
                "pitch": 64,
                "velocity": 64,
                "duration": 1.777272727272731,
                "tempo": 120.0
            },
            {
                "start_time": 54.58181818181818,
                "end_time": 54.74545454545454,
                "pitch": 0,
                "velocity": 64,
                "duration": 0.16363636363636402,
                "tempo": 120.0
            },
            {
                "start_time": 54.777272727272724,
                "end_time": 54.84318181818182,
                "pitch": 76,
                "velocity": 64,
                "duration": 0.06590909090909491,
                "tempo": 120.0
            },
            {
                "start_time": 54.875,
                "end_time": 55.043181818181814,
                "pitch": 0,
                "velocity": 64,
                "duration": 0.16818181818181444,
                "tempo": 120.0
            },
            {
                "start_time": 55.07727272727273,
                "end_time": 55.14545454545454,
                "pitch": 76,
                "velocity": 64,
                "duration": 0.06818181818181301,
                "tempo": 120.0
            },
            {
                "start_time": 55.179545454545455,
                "end_time": 55.349999999999994,
                "pitch": 0,
                "velocity": 64,
                "duration": 0.17045454545453964,
                "tempo": 120.0
            },
            {
                "start_time": 55.38409090909091,
                "end_time": 55.74318181818182,
                "pitch": 76,
                "velocity": 64,
                "duration": 0.35909090909090935,
                "tempo": 120.0
            },
            {
                "start_time": 55.777272727272724,
                "end_time": 56.143181818181816,
                "pitch": 0,
                "velocity": 64,
                "duration": 0.36590909090909207,
                "tempo": 120.0
            },
            {
                "start_time": 56.17727272727272,
                "end_time": 56.44318181818181,
                "pitch": 64,
                "velocity": 64,
                "duration": 0.26590909090909065,
                "tempo": 120.0
            },
            {
                "start_time": 56.47727272727273,
                "end_time": 56.543181818181814,
                "pitch": 64,
                "velocity": 64,
                "duration": 0.06590909090908781,
                "tempo": 120.0
            },
            {
                "start_time": 56.57727272727273,
                "end_time": 57.345454545454544,
                "pitch": 0,
                "velocity": 64,
                "duration": 0.7681818181818159,
                "tempo": 120.0
            },
            {
                "start_time": 57.37954545454545,
                "end_time": 57.64772727272727,
                "pitch": 64,
                "velocity": 64,
                "duration": 0.26818181818182296,
                "tempo": 120.0
            },
            {
                "start_time": 57.68181818181818,
                "end_time": 57.75,
                "pitch": 64,
                "velocity": 64,
                "duration": 0.06818181818182012,
                "tempo": 120.0
            },
            {
                "start_time": 57.78181818181818,
                "end_time": 58.55,
                "pitch": 0,
                "velocity": 64,
                "duration": 0.7681818181818159,
                "tempo": 120.0
            },
            {
                "start_time": 58.58181818181818,
                "end_time": 58.849999999999994,
                "pitch": 64,
                "velocity": 64,
                "duration": 0.26818181818181586,
                "tempo": 120.0
            },
            {
                "start_time": 58.881818181818176,
                "end_time": 58.949999999999996,
                "pitch": 64,
                "velocity": 64,
                "duration": 0.06818181818182012,
                "tempo": 120.0
            },
            {
                "start_time": 58.98181818181818,
                "end_time": 59.15454545454545,
                "pitch": 0,
                "velocity": 64,
                "duration": 0.17272727272727195,
                "tempo": 120.0
            },
            {
                "start_time": 59.18863636363636,
                "end_time": 60.961363636363636,
                "pitch": 64,
                "velocity": 64,
                "duration": 1.7727272727272734,
                "tempo": 120.0
            },
            {
                "start_time": 60.99545454545454,
                "end_time": 61.15909090909091,
                "pitch": 0,
                "velocity": 64,
                "duration": 0.16363636363636402,
                "tempo": 120.0
            },
            {
                "start_time": 61.19090909090909,
                "end_time": 61.256818181818176,
                "pitch": 76,
                "velocity": 64,
                "duration": 0.06590909090908781,
                "tempo": 120.0
            },
            {
                "start_time": 61.29090909090909,
                "end_time": 61.35454545454545,
                "pitch": 76,
                "velocity": 64,
                "duration": 0.0636363636363626,
                "tempo": 120.0
            },
            {
                "start_time": 61.38863636363636,
                "end_time": 61.45681818181818,
                "pitch": 76,
                "velocity": 64,
                "duration": 0.06818181818182012,
                "tempo": 120.0
            },
            {
                "start_time": 61.490909090909085,
                "end_time": 61.559090909090905,
                "pitch": 76,
                "velocity": 64,
                "duration": 0.06818181818182012,
                "tempo": 120.0
            },
            {
                "start_time": 61.59318181818182,
                "end_time": 61.76590909090909,
                "pitch": 0,
                "velocity": 64,
                "duration": 0.17272727272727195,
                "tempo": 120.0
            },
            {
                "start_time": 61.79772727272727,
                "end_time": 62.059090909090905,
                "pitch": 76,
                "velocity": 64,
                "duration": 0.26136363636363313,
                "tempo": 120.0
            },
            {
                "start_time": 62.09318181818182,
                "end_time": 62.15681818181818,
                "pitch": 76,
                "velocity": 64,
                "duration": 0.0636363636363626,
                "tempo": 120.0
            },
            {
                "start_time": 62.19090909090909,
                "end_time": 62.55681818181818,
                "pitch": 0,
                "velocity": 64,
                "duration": 0.36590909090909207,
                "tempo": 120.0
            },
            {
                "start_time": 62.590909090909086,
                "end_time": 62.85681818181818,
                "pitch": 64,
                "velocity": 64,
                "duration": 0.26590909090909065,
                "tempo": 120.0
            },
            {
                "start_time": 62.89090909090909,
                "end_time": 62.95681818181818,
                "pitch": 64,
                "velocity": 64,
                "duration": 0.06590909090908781,
                "tempo": 120.0
            },
            {
                "start_time": 62.990909090909085,
                "end_time": 63.75909090909091,
                "pitch": 0,
                "velocity": 64,
                "duration": 0.768181818181823,
                "tempo": 120.0
            },
            {
                "start_time": 63.793181818181814,
                "end_time": 64.05909090909091,
                "pitch": 64,
                "velocity": 64,
                "duration": 0.26590909090909776,
                "tempo": 120.0
            },
            {
                "start_time": 64.09318181818182,
                "end_time": 64.1590909090909,
                "pitch": 64,
                "velocity": 64,
                "duration": 0.06590909090908781,
                "tempo": 120.0
            },
            {
                "start_time": 64.19318181818181,
                "end_time": 64.96363636363635,
                "pitch": 0,
                "velocity": 64,
                "duration": 0.7704545454545411,
                "tempo": 120.0
            },
            {
                "start_time": 64.99545454545454,
                "end_time": 65.26363636363637,
                "pitch": 64,
                "velocity": 64,
                "duration": 0.26818181818183007,
                "tempo": 120.0
            },
            {
                "start_time": 65.29545454545455,
                "end_time": 65.36363636363636,
                "pitch": 64,
                "velocity": 64,
                "duration": 0.06818181818181301,
                "tempo": 120.0
            },
            {
                "start_time": 65.39772727272727,
                "end_time": 65.56818181818181,
                "pitch": 0,
                "velocity": 64,
                "duration": 0.17045454545454675,
                "tempo": 120.0
            },
            {
                "start_time": 65.60227272727272,
                "end_time": 67.76363636363637,
                "pitch": 64,
                "velocity": 64,
                "duration": 2.161363636363646,
                "tempo": 120.0
            },
            {
                "start_time": 67.79772727272727,
                "end_time": 67.96818181818182,
                "pitch": 64,
                "velocity": 64,
                "duration": 0.17045454545454675,
                "tempo": 120.0
            },
            {
                "start_time": 68.00227272727273,
                "end_time": 68.175,
                "pitch": 0,
                "velocity": 64,
                "duration": 0.17272727272727195,
                "tempo": 120.0
            },
            {
                "start_time": 68.20681818181818,
                "end_time": 68.47727272727272,
                "pitch": 64,
                "velocity": 64,
                "duration": 0.27045454545454106,
                "tempo": 120.0
            },
            {
                "start_time": 68.5090909090909,
                "end_time": 68.77272727272727,
                "pitch": 63,
                "velocity": 64,
                "duration": 0.26363636363636545,
                "tempo": 120.0
            },
            {
                "start_time": 68.80681818181817,
                "end_time": 70.48181818181818,
                "pitch": 62,
                "velocity": 64,
                "duration": 1.6750000000000114,
                "tempo": 120.0
            },
            {
                "start_time": 70.51590909090909,
                "end_time": 72.0840909090909,
                "pitch": 64,
                "velocity": 64,
                "duration": 1.568181818181813,
                "tempo": 120.0
            },
            {
                "start_time": 72.11818181818181,
                "end_time": 73.8,
                "pitch": 66,
                "velocity": 64,
                "duration": 1.681818181818187,
                "tempo": 120.0
            },
            {
                "start_time": 73.83181818181818,
                "end_time": 73.89772727272727,
                "pitch": 0,
                "velocity": 64,
                "duration": 0.06590909090908781,
                "tempo": 120.0
            },
            {
                "start_time": 73.92954545454545,
                "end_time": 73.99545454545454,
                "pitch": 78,
                "velocity": 64,
                "duration": 0.06590909090908781,
                "tempo": 120.0
            },
            {
                "start_time": 74.02727272727272,
                "end_time": 74.09318181818182,
                "pitch": 0,
                "velocity": 64,
                "duration": 0.06590909090910202,
                "tempo": 120.0
            },
            {
                "start_time": 74.125,
                "end_time": 74.19090909090909,
                "pitch": 78,
                "velocity": 64,
                "duration": 0.06590909090908781,
                "tempo": 120.0
            },
            {
                "start_time": 74.225,
                "end_time": 74.29090909090908,
                "pitch": 0,
                "velocity": 64,
                "duration": 0.06590909090908781,
                "tempo": 120.0
            },
            {
                "start_time": 74.325,
                "end_time": 74.39090909090909,
                "pitch": 78,
                "velocity": 64,
                "duration": 0.06590909090908781,
                "tempo": 120.0
            },
            {
                "start_time": 74.425,
                "end_time": 74.49090909090908,
                "pitch": 0,
                "velocity": 64,
                "duration": 0.06590909090908781,
                "tempo": 120.0
            },
            {
                "start_time": 74.52499999999999,
                "end_time": 74.5909090909091,
                "pitch": 78,
                "velocity": 64,
                "duration": 0.06590909090910202,
                "tempo": 120.0
            },
            {
                "start_time": 74.625,
                "end_time": 75.2,
                "pitch": 0,
                "velocity": 64,
                "duration": 0.5750000000000028,
                "tempo": 120.0
            },
            {
                "start_time": 75.23409090909091,
                "end_time": 76.81136363636364,
                "pitch": 66,
                "velocity": 64,
                "duration": 1.577272727272728,
                "tempo": 120.0
            },
            {
                "start_time": 76.84545454545454,
                "end_time": 78.41818181818181,
                "pitch": 64,
                "velocity": 64,
                "duration": 1.5727272727272634,
                "tempo": 120.0
            },
            {
                "start_time": 78.45,
                "end_time": 80.125,
                "pitch": 64,
                "velocity": 64,
                "duration": 1.6749999999999972,
                "tempo": 120.0
            },
            {
                "start_time": 80.15681818181818,
                "end_time": 80.92954545454545,
                "pitch": 66,
                "velocity": 64,
                "duration": 0.7727272727272663,
                "tempo": 120.0
            },
            {
                "start_time": 80.96136363636363,
                "end_time": 81.63181818181818,
                "pitch": 64,
                "velocity": 64,
                "duration": 0.6704545454545467,
                "tempo": 120.0
            },
            {
                "start_time": 81.66363636363636,
                "end_time": 83.23863636363636,
                "pitch": 66,
                "velocity": 64,
                "duration": 1.5750000000000028,
                "tempo": 120.0
            },
            {
                "start_time": 83.27045454545454,
                "end_time": 84.84318181818182,
                "pitch": 64,
                "velocity": 64,
                "duration": 1.5727272727272776,
                "tempo": 120.0
            },
            {
                "start_time": 84.87727272727273,
                "end_time": 87.45454545454545,
                "pitch": 64,
                "velocity": 64,
                "duration": 2.577272727272728,
                "tempo": 120.0
            },
            {
                "start_time": 87.48636363636363,
                "end_time": 88.05681818181817,
                "pitch": 64,
                "velocity": 64,
                "duration": 0.5704545454545382,
                "tempo": 120.0
            },
            {
                "start_time": 88.08863636363635,
                "end_time": 89.66363636363636,
                "pitch": 66,
                "velocity": 64,
                "duration": 1.5750000000000028,
                "tempo": 120.0
            },
            {
                "start_time": 89.69545454545454,
                "end_time": 91.47045454545454,
                "pitch": 64,
                "velocity": 64,
                "duration": 1.7750000000000057,
                "tempo": 120.0
            },
            {
                "start_time": 91.50227272727273,
                "end_time": 92.17272727272727,
                "pitch": 64,
                "velocity": 64,
                "duration": 0.6704545454545467,
                "tempo": 120.0
            },
            {
                "start_time": 92.20681818181818,
                "end_time": 92.97727272727272,
                "pitch": 66,
                "velocity": 64,
                "duration": 0.7704545454545411,
                "tempo": 120.0
            },
            {
                "start_time": 93.01136363636363,
                "end_time": 93.77954545454546,
                "pitch": 64,
                "velocity": 64,
                "duration": 0.7681818181818301,
                "tempo": 120.0
            },
            {
                "start_time": 93.81363636363636,
                "end_time": 94.48181818181818,
                "pitch": 0,
                "velocity": 64,
                "duration": 0.6681818181818215,
                "tempo": 120.0
            },
            {
                "start_time": 94.51590909090909,
                "end_time": 96.08863636363635,
                "pitch": 66,
                "velocity": 64,
                "duration": 1.5727272727272634,
                "tempo": 120.0
            },
            {
                "start_time": 96.12272727272727,
                "end_time": 97.69545454545454,
                "pitch": 64,
                "velocity": 64,
                "duration": 1.5727272727272634,
                "tempo": 120.0
            },
            {
                "start_time": 97.72954545454544,
                "end_time": 99.50227272727273,
                "pitch": 66,
                "velocity": 64,
                "duration": 1.7727272727272805,
                "tempo": 120.0
            },
            {
                "start_time": 99.5340909090909,
                "end_time": 99.63181818181818,
                "pitch": 0,
                "velocity": 64,
                "duration": 0.09772727272726911,
                "tempo": 120.0
            },
            {
                "start_time": 99.66590909090908,
                "end_time": 99.76363636363637,
                "pitch": 66,
                "velocity": 64,
                "duration": 0.09772727272728332,
                "tempo": 120.0
            },
            {
                "start_time": 99.79545454545455,
                "end_time": 99.89318181818182,
                "pitch": 66,
                "velocity": 64,
                "duration": 0.09772727272726911,
                "tempo": 120.0
            },
            {
                "start_time": 99.92727272727272,
                "end_time": 100.02954545454546,
                "pitch": 66,
                "velocity": 64,
                "duration": 0.10227272727273373,
                "tempo": 120.0
            },
            {
                "start_time": 100.06363636363636,
                "end_time": 100.16818181818181,
                "pitch": 66,
                "velocity": 64,
                "duration": 0.10454545454544473,
                "tempo": 120.0
            },
            {
                "start_time": 100.20227272727273,
                "end_time": 100.30454545454545,
                "pitch": 66,
                "velocity": 64,
                "duration": 0.10227272727271952,
                "tempo": 120.0
            },
            {
                "start_time": 100.33863636363635,
                "end_time": 100.43863636363636,
                "pitch": 66,
                "velocity": 64,
                "duration": 0.10000000000000853,
                "tempo": 120.0
            },
            {
                "start_time": 100.47272727272727,
                "end_time": 101.10909090909091,
                "pitch": 0,
                "velocity": 64,
                "duration": 0.6363636363636402,
                "tempo": 120.0
            },
            {
                "start_time": 101.14318181818182,
                "end_time": 103.52499999999999,
                "pitch": 64,
                "velocity": 64,
                "duration": 2.3818181818181756,
                "tempo": 120.0
            },
            {
                "start_time": 103.5590909090909,
                "end_time": 103.92727272727272,
                "pitch": 68,
                "velocity": 64,
                "duration": 0.3681818181818244,
                "tempo": 120.0
            },
            {
                "start_time": 103.9590909090909,
                "end_time": 104.32954545454545,
                "pitch": 64,
                "velocity": 64,
                "duration": 0.3704545454545496,
                "tempo": 120.0
            },
            {
                "start_time": 104.36363636363636,
                "end_time": 106.73636363636363,
                "pitch": 64,
                "velocity": 64,
                "duration": 2.372727272727275,
                "tempo": 120.0
            },
            {
                "start_time": 106.77045454545454,
                "end_time": 107.12954545454545,
                "pitch": 68,
                "velocity": 64,
                "duration": 0.35909090909090935,
                "tempo": 120.0
            },
            {
                "start_time": 107.16363636363636,
                "end_time": 107.52954545454546,
                "pitch": 64,
                "velocity": 64,
                "duration": 0.3659090909090992,
                "tempo": 120.0
            },
            {
                "start_time": 107.56363636363636,
                "end_time": 109.94090909090909,
                "pitch": 62,
                "velocity": 64,
                "duration": 2.377272727272725,
                "tempo": 120.0
            },
            {
                "start_time": 109.975,
                "end_time": 110.34090909090908,
                "pitch": 64,
                "velocity": 64,
                "duration": 0.36590909090908497,
                "tempo": 120.0
            },
            {
                "start_time": 110.375,
                "end_time": 110.75,
                "pitch": 66,
                "velocity": 64,
                "duration": 0.375,
                "tempo": 120.0
            },
            {
                "start_time": 110.7840909090909,
                "end_time": 112.25454545454545,
                "pitch": 62,
                "velocity": 64,
                "duration": 1.470454545454544,
                "tempo": 120.0
            },
            {
                "start_time": 112.28863636363636,
                "end_time": 113.96136363636363,
                "pitch": 62,
                "velocity": 64,
                "duration": 1.672727272727272,
                "tempo": 120.0
            },
            {
                "start_time": 113.99545454545454,
                "end_time": 116.36363636363636,
                "pitch": 64,
                "velocity": 64,
                "duration": 2.3681818181818244,
                "tempo": 120.0
            },
            {
                "start_time": 116.39545454545454,
                "end_time": 116.77272727272727,
                "pitch": 68,
                "velocity": 64,
                "duration": 0.3772727272727252,
                "tempo": 120.0
            },
            {
                "start_time": 116.80681818181817,
                "end_time": 117.16590909090908,
                "pitch": 64,
                "velocity": 64,
                "duration": 0.35909090909090935,
                "tempo": 120.0
            },
            {
                "start_time": 117.19999999999999,
                "end_time": 119.57499999999999,
                "pitch": 64,
                "velocity": 64,
                "duration": 2.375,
                "tempo": 120.0
            },
            {
                "start_time": 119.60681818181817,
                "end_time": 119.97727272727272,
                "pitch": 68,
                "velocity": 64,
                "duration": 0.3704545454545496,
                "tempo": 120.0
            },
            {
                "start_time": 120.0090909090909,
                "end_time": 120.37727272727273,
                "pitch": 64,
                "velocity": 64,
                "duration": 0.3681818181818244,
                "tempo": 120.0
            },
            {
                "start_time": 120.41136363636363,
                "end_time": 122.7840909090909,
                "pitch": 62,
                "velocity": 64,
                "duration": 2.372727272727275,
                "tempo": 120.0
            },
            {
                "start_time": 122.81818181818181,
                "end_time": 123.18863636363636,
                "pitch": 64,
                "velocity": 64,
                "duration": 0.3704545454545496,
                "tempo": 120.0
            },
            {
                "start_time": 123.22045454545454,
                "end_time": 123.59772727272727,
                "pitch": 66,
                "velocity": 64,
                "duration": 0.3772727272727252,
                "tempo": 120.0
            },
            {
                "start_time": 123.63181818181818,
                "end_time": 125.09545454545454,
                "pitch": 62,
                "velocity": 64,
                "duration": 1.4636363636363683,
                "tempo": 120.0
            },
            {
                "start_time": 125.12954545454545,
                "end_time": 126.81363636363636,
                "pitch": 62,
                "velocity": 64,
                "duration": 1.6840909090909122,
                "tempo": 120.0
            },
            {
                "start_time": 126.84545454545454,
                "end_time": 127.11363636363636,
                "pitch": 64,
                "velocity": 64,
                "duration": 0.26818181818181586,
                "tempo": 120.0
            },
            {
                "start_time": 127.14545454545454,
                "end_time": 127.21363636363635,
                "pitch": 64,
                "velocity": 64,
                "duration": 0.06818181818181301,
                "tempo": 120.0
            },
            {
                "start_time": 127.24545454545454,
                "end_time": 128.00681818181818,
                "pitch": 0,
                "velocity": 64,
                "duration": 0.7613636363636402,
                "tempo": 120.0
            },
            {
                "start_time": 128.04090909090908,
                "end_time": 128.3068181818182,
                "pitch": 64,
                "velocity": 64,
                "duration": 0.26590909090910486,
                "tempo": 120.0
            },
            {
                "start_time": 128.3409090909091,
                "end_time": 128.40681818181818,
                "pitch": 64,
                "velocity": 64,
                "duration": 0.06590909090908781,
                "tempo": 120.0
            },
            {
                "start_time": 128.4409090909091,
                "end_time": 129.21363636363637,
                "pitch": 0,
                "velocity": 64,
                "duration": 0.7727272727272805,
                "tempo": 120.0
            },
            {
                "start_time": 129.24545454545455,
                "end_time": 129.51590909090908,
                "pitch": 64,
                "velocity": 64,
                "duration": 0.27045454545452685,
                "tempo": 120.0
            },
            {
                "start_time": 129.54772727272726,
                "end_time": 129.61590909090907,
                "pitch": 64,
                "velocity": 64,
                "duration": 0.06818181818181301,
                "tempo": 120.0
            },
            {
                "start_time": 129.65,
                "end_time": 129.82045454545454,
                "pitch": 0,
                "velocity": 64,
                "duration": 0.17045454545453254,
                "tempo": 120.0
            },
            {
                "start_time": 129.85454545454544,
                "end_time": 131.6340909090909,
                "pitch": 64,
                "velocity": 64,
                "duration": 1.779545454545456,
                "tempo": 120.0
            },
            {
                "start_time": 131.6681818181818,
                "end_time": 131.83181818181816,
                "pitch": 0,
                "velocity": 64,
                "duration": 0.16363636363635692,
                "tempo": 120.0
            },
            {
                "start_time": 131.86363636363635,
                "end_time": 131.92954545454546,
                "pitch": 76,
                "velocity": 64,
                "duration": 0.06590909090911623,
                "tempo": 120.0
            },
            {
                "start_time": 131.96136363636364,
                "end_time": 132.02727272727273,
                "pitch": 76,
                "velocity": 64,
                "duration": 0.06590909090908781,
                "tempo": 120.0
            },
            {
                "start_time": 132.0590909090909,
                "end_time": 132.12954545454545,
                "pitch": 76,
                "velocity": 64,
                "duration": 0.07045454545453822,
                "tempo": 120.0
            },
            {
                "start_time": 132.16363636363636,
                "end_time": 132.23181818181817,
                "pitch": 76,
                "velocity": 64,
                "duration": 0.06818181818181301,
                "tempo": 120.0
            },
            {
                "start_time": 132.26590909090908,
                "end_time": 132.43636363636364,
                "pitch": 0,
                "velocity": 64,
                "duration": 0.17045454545456096,
                "tempo": 120.0
            },
            {
                "start_time": 132.47045454545454,
                "end_time": 132.73181818181817,
                "pitch": 76,
                "velocity": 64,
                "duration": 0.26136363636362603,
                "tempo": 120.0
            },
            {
                "start_time": 132.76363636363635,
                "end_time": 132.82954545454544,
                "pitch": 76,
                "velocity": 64,
                "duration": 0.06590909090908781,
                "tempo": 120.0
            },
            {
                "start_time": 132.86363636363635,
                "end_time": 133.23181818181817,
                "pitch": 0,
                "velocity": 64,
                "duration": 0.3681818181818244,
                "tempo": 120.0
            },
            {
                "start_time": 133.26590909090908,
                "end_time": 133.5340909090909,
                "pitch": 64,
                "velocity": 64,
                "duration": 0.26818181818183007,
                "tempo": 120.0
            },
            {
                "start_time": 133.5681818181818,
                "end_time": 133.6340909090909,
                "pitch": 64,
                "velocity": 64,
                "duration": 0.06590909090908781,
                "tempo": 120.0
            },
            {
                "start_time": 133.6681818181818,
                "end_time": 134.43636363636364,
                "pitch": 0,
                "velocity": 64,
                "duration": 0.7681818181818301,
                "tempo": 120.0
            },
            {
                "start_time": 134.47045454545454,
                "end_time": 134.73863636363635,
                "pitch": 64,
                "velocity": 64,
                "duration": 0.26818181818180165,
                "tempo": 120.0
            },
            {
                "start_time": 134.77272727272725,
                "end_time": 134.8409090909091,
                "pitch": 64,
                "velocity": 64,
                "duration": 0.06818181818184144,
                "tempo": 120.0
            },
            {
                "start_time": 134.87272727272727,
                "end_time": 135.64545454545453,
                "pitch": 0,
                "velocity": 64,
                "duration": 0.7727272727272521,
                "tempo": 120.0
            },
            {
                "start_time": 135.67954545454546,
                "end_time": 135.94545454545454,
                "pitch": 64,
                "velocity": 64,
                "duration": 0.26590909090907644,
                "tempo": 120.0
            },
            {
                "start_time": 135.97954545454544,
                "end_time": 136.04545454545453,
                "pitch": 64,
                "velocity": 64,
                "duration": 0.06590909090908781,
                "tempo": 120.0
            },
            {
                "start_time": 136.07954545454544,
                "end_time": 136.25,
                "pitch": 0,
                "velocity": 64,
                "duration": 0.17045454545456096,
                "tempo": 120.0
            },
            {
                "start_time": 136.2840909090909,
                "end_time": 138.06363636363636,
                "pitch": 64,
                "velocity": 64,
                "duration": 1.779545454545456,
                "tempo": 120.0
            },
            {
                "start_time": 138.09772727272727,
                "end_time": 138.26136363636363,
                "pitch": 0,
                "velocity": 64,
                "duration": 0.16363636363635692,
                "tempo": 120.0
            },
            {
                "start_time": 138.2931818181818,
                "end_time": 138.3590909090909,
                "pitch": 76,
                "velocity": 64,
                "duration": 0.06590909090908781,
                "tempo": 120.0
            },
            {
                "start_time": 138.39090909090908,
                "end_time": 138.5568181818182,
                "pitch": 0,
                "velocity": 64,
                "duration": 0.16590909090911055,
                "tempo": 120.0
            },
            {
                "start_time": 138.5909090909091,
                "end_time": 138.65681818181818,
                "pitch": 76,
                "velocity": 64,
                "duration": 0.06590909090908781,
                "tempo": 120.0
            },
            {
                "start_time": 138.6909090909091,
                "end_time": 138.8590909090909,
                "pitch": 0,
                "velocity": 64,
                "duration": 0.16818181818180733,
                "tempo": 120.0
            },
            {
                "start_time": 138.8931818181818,
                "end_time": 139.26136363636363,
                "pitch": 76,
                "velocity": 64,
                "duration": 0.3681818181818244,
                "tempo": 120.0
            },
            {
                "start_time": 139.29545454545453,
                "end_time": 139.66363636363636,
                "pitch": 0,
                "velocity": 64,
                "duration": 0.3681818181818244,
                "tempo": 120.0
            },
            {
                "start_time": 139.69772727272726,
                "end_time": 139.96363636363637,
                "pitch": 64,
                "velocity": 64,
                "duration": 0.26590909090910486,
                "tempo": 120.0
            },
            {
                "start_time": 139.99772727272727,
                "end_time": 140.06363636363636,
                "pitch": 64,
                "velocity": 64,
                "duration": 0.06590909090908781,
                "tempo": 120.0
            },
            {
                "start_time": 140.09772727272727,
                "end_time": 140.87045454545455,
                "pitch": 0,
                "velocity": 64,
                "duration": 0.7727272727272805,
                "tempo": 120.0
            },
            {
                "start_time": 140.90454545454546,
                "end_time": 141.17272727272726,
                "pitch": 64,
                "velocity": 64,
                "duration": 0.26818181818180165,
                "tempo": 120.0
            },
            {
                "start_time": 141.20454545454544,
                "end_time": 141.27272727272725,
                "pitch": 64,
                "velocity": 64,
                "duration": 0.06818181818181301,
                "tempo": 120.0
            },
            {
                "start_time": 141.3068181818182,
                "end_time": 142.075,
                "pitch": 0,
                "velocity": 64,
                "duration": 0.7681818181818016,
                "tempo": 120.0
            },
            {
                "start_time": 142.1090909090909,
                "end_time": 142.37727272727273,
                "pitch": 64,
                "velocity": 64,
                "duration": 0.26818181818183007,
                "tempo": 120.0
            },
            {
                "start_time": 142.41136363636363,
                "end_time": 142.47727272727272,
                "pitch": 64,
                "velocity": 64,
                "duration": 0.06590909090908781,
                "tempo": 120.0
            },
            {
                "start_time": 142.51136363636363,
                "end_time": 142.6840909090909,
                "pitch": 0,
                "velocity": 64,
                "duration": 0.17272727272728616,
                "tempo": 120.0
            },
            {
                "start_time": 142.71818181818182,
                "end_time": 144.48636363636362,
                "pitch": 64,
                "velocity": 64,
                "duration": 1.7681818181818016,
                "tempo": 120.0
            },
            {
                "start_time": 144.52045454545453,
                "end_time": 144.68863636363636,
                "pitch": 0,
                "velocity": 64,
                "duration": 0.16818181818183575,
                "tempo": 120.0
            },
            {
                "start_time": 144.72045454545454,
                "end_time": 144.78863636363636,
                "pitch": 76,
                "velocity": 64,
                "duration": 0.06818181818181301,
                "tempo": 120.0
            },
            {
                "start_time": 144.82272727272726,
                "end_time": 144.88863636363635,
                "pitch": 76,
                "velocity": 64,
                "duration": 0.06590909090908781,
                "tempo": 120.0
            },
            {
                "start_time": 144.92272727272726,
                "end_time": 144.99090909090907,
                "pitch": 76,
                "velocity": 64,
                "duration": 0.06818181818181301,
                "tempo": 120.0
            },
            {
                "start_time": 145.025,
                "end_time": 145.09318181818182,
                "pitch": 76,
                "velocity": 64,
                "duration": 0.06818181818181301,
                "tempo": 120.0
            },
            {
                "start_time": 145.12727272727273,
                "end_time": 145.29999999999998,
                "pitch": 0,
                "velocity": 64,
                "duration": 0.17272727272725774,
                "tempo": 120.0
            },
            {
                "start_time": 145.33181818181816,
                "end_time": 145.59545454545454,
                "pitch": 76,
                "velocity": 64,
                "duration": 0.26363636363637966,
                "tempo": 120.0
            },
            {
                "start_time": 145.62727272727273,
                "end_time": 145.6931818181818,
                "pitch": 76,
                "velocity": 64,
                "duration": 0.06590909090908781,
                "tempo": 120.0
            },
            {
                "start_time": 145.725,
                "end_time": 146.09318181818182,
                "pitch": 0,
                "velocity": 64,
                "duration": 0.3681818181818244,
                "tempo": 120.0
            },
            {
                "start_time": 146.125,
                "end_time": 146.3931818181818,
                "pitch": 64,
                "velocity": 64,
                "duration": 0.26818181818180165,
                "tempo": 120.0
            },
            {
                "start_time": 146.4272727272727,
                "end_time": 146.49545454545455,
                "pitch": 64,
                "velocity": 64,
                "duration": 0.06818181818184144,
                "tempo": 120.0
            },
            {
                "start_time": 146.52727272727273,
                "end_time": 147.29999999999998,
                "pitch": 0,
                "velocity": 64,
                "duration": 0.7727272727272521,
                "tempo": 120.0
            },
            {
                "start_time": 147.3340909090909,
                "end_time": 147.60227272727272,
                "pitch": 64,
                "velocity": 64,
                "duration": 0.26818181818183007,
                "tempo": 120.0
            },
            {
                "start_time": 147.63636363636363,
                "end_time": 147.7022727272727,
                "pitch": 64,
                "velocity": 64,
                "duration": 0.06590909090908781,
                "tempo": 120.0
            },
            {
                "start_time": 147.73636363636362,
                "end_time": 148.50454545454545,
                "pitch": 0,
                "velocity": 64,
                "duration": 0.7681818181818301,
                "tempo": 120.0
            },
            {
                "start_time": 148.53863636363636,
                "end_time": 148.8068181818182,
                "pitch": 64,
                "velocity": 64,
                "duration": 0.26818181818183007,
                "tempo": 120.0
            },
            {
                "start_time": 148.8409090909091,
                "end_time": 148.9090909090909,
                "pitch": 64,
                "velocity": 64,
                "duration": 0.06818181818181301,
                "tempo": 120.0
            },
            {
                "start_time": 148.9409090909091,
                "end_time": 149.11363636363635,
                "pitch": 0,
                "velocity": 64,
                "duration": 0.17272727272725774,
                "tempo": 120.0
            },
            {
                "start_time": 149.14772727272725,
                "end_time": 151.3068181818182,
                "pitch": 64,
                "velocity": 64,
                "duration": 2.159090909090935,
                "tempo": 120.0
            },
            {
                "start_time": 151.33863636363637,
                "end_time": 151.51136363636363,
                "pitch": 64,
                "velocity": 64,
                "duration": 0.17272727272725774,
                "tempo": 120.0
            },
            {
                "start_time": 151.54545454545453,
                "end_time": 151.7159090909091,
                "pitch": 0,
                "velocity": 64,
                "duration": 0.17045454545456096,
                "tempo": 120.0
            },
            {
                "start_time": 151.75,
                "end_time": 152.01590909090908,
                "pitch": 64,
                "velocity": 64,
                "duration": 0.26590909090907644,
                "tempo": 120.0
            },
            {
                "start_time": 152.04999999999998,
                "end_time": 152.31363636363636,
                "pitch": 63,
                "velocity": 64,
                "duration": 0.26363636363637966,
                "tempo": 120.0
            },
            {
                "start_time": 152.34545454545454,
                "end_time": 154.02272727272725,
                "pitch": 62,
                "velocity": 64,
                "duration": 1.6772727272727082,
                "tempo": 120.0
            },
            {
                "start_time": 154.0568181818182,
                "end_time": 155.62272727272727,
                "pitch": 64,
                "velocity": 64,
                "duration": 1.5659090909090878,
                "tempo": 120.0
            },
            {
                "start_time": 155.65454545454546,
                "end_time": 157.33863636363637,
                "pitch": 66,
                "velocity": 64,
                "duration": 1.6840909090909122,
                "tempo": 120.0
            },
            {
                "start_time": 157.37272727272727,
                "end_time": 157.43636363636364,
                "pitch": 0,
                "velocity": 64,
                "duration": 0.0636363636363626,
                "tempo": 120.0
            },
            {
                "start_time": 157.47045454545454,
                "end_time": 157.53636363636363,
                "pitch": 78,
                "velocity": 64,
                "duration": 0.06590909090908781,
                "tempo": 120.0
            },
            {
                "start_time": 157.5681818181818,
                "end_time": 157.6340909090909,
                "pitch": 0,
                "velocity": 64,
                "duration": 0.06590909090908781,
                "tempo": 120.0
            },
            {
                "start_time": 157.66590909090908,
                "end_time": 157.73181818181817,
                "pitch": 78,
                "velocity": 64,
                "duration": 0.06590909090908781,
                "tempo": 120.0
            },
            {
                "start_time": 157.76590909090908,
                "end_time": 157.83181818181816,
                "pitch": 0,
                "velocity": 64,
                "duration": 0.06590909090908781,
                "tempo": 120.0
            },
            {
                "start_time": 157.86590909090907,
                "end_time": 157.9318181818182,
                "pitch": 78,
                "velocity": 64,
                "duration": 0.06590909090911623,
                "tempo": 120.0
            },
            {
                "start_time": 157.9659090909091,
                "end_time": 158.0340909090909,
                "pitch": 0,
                "velocity": 64,
                "duration": 0.06818181818181301,
                "tempo": 120.0
            },
            {
                "start_time": 158.0659090909091,
                "end_time": 158.1340909090909,
                "pitch": 78,
                "velocity": 64,
                "duration": 0.06818181818181301,
                "tempo": 120.0
            },
            {
                "start_time": 158.1681818181818,
                "end_time": 158.74090909090907,
                "pitch": 0,
                "velocity": 64,
                "duration": 0.5727272727272634,
                "tempo": 120.0
            },
            {
                "start_time": 158.775,
                "end_time": 160.35227272727272,
                "pitch": 66,
                "velocity": 64,
                "duration": 1.5772727272727138,
                "tempo": 120.0
            },
            {
                "start_time": 160.38636363636363,
                "end_time": 161.96136363636361,
                "pitch": 64,
                "velocity": 64,
                "duration": 1.5749999999999886,
                "tempo": 120.0
            },
            {
                "start_time": 161.99545454545455,
                "end_time": 163.67045454545453,
                "pitch": 64,
                "velocity": 64,
                "duration": 1.674999999999983,
                "tempo": 120.0
            },
            {
                "start_time": 163.70454545454544,
                "end_time": 164.475,
                "pitch": 66,
                "velocity": 64,
                "duration": 0.7704545454545553,
                "tempo": 120.0
            },
            {
                "start_time": 164.50681818181818,
                "end_time": 165.17954545454543,
                "pitch": 64,
                "velocity": 64,
                "duration": 0.6727272727272577,
                "tempo": 120.0
            },
            {
                "start_time": 165.21136363636361,
                "end_time": 166.78636363636363,
                "pitch": 66,
                "velocity": 64,
                "duration": 1.575000000000017,
                "tempo": 120.0
            },
            {
                "start_time": 166.82045454545454,
                "end_time": 168.39545454545453,
                "pitch": 64,
                "velocity": 64,
                "duration": 1.5749999999999886,
                "tempo": 120.0
            },
            {
                "start_time": 168.42954545454543,
                "end_time": 171.0090909090909,
                "pitch": 64,
                "velocity": 64,
                "duration": 2.5795454545454675,
                "tempo": 120.0
            },
            {
                "start_time": 171.0431818181818,
                "end_time": 171.61363636363635,
                "pitch": 64,
                "velocity": 64,
                "duration": 0.5704545454545382,
                "tempo": 120.0
            },
            {
                "start_time": 171.64772727272725,
                "end_time": 173.22272727272727,
                "pitch": 66,
                "velocity": 64,
                "duration": 1.575000000000017,
                "tempo": 120.0
            },
            {
                "start_time": 173.25454545454545,
                "end_time": 175.03181818181818,
                "pitch": 64,
                "velocity": 64,
                "duration": 1.777272727272731,
                "tempo": 120.0
            },
            {
                "start_time": 175.0659090909091,
                "end_time": 175.73636363636362,
                "pitch": 64,
                "velocity": 64,
                "duration": 0.6704545454545325,
                "tempo": 120.0
            },
            {
                "start_time": 175.77045454545453,
                "end_time": 176.53863636363636,
                "pitch": 66,
                "velocity": 64,
                "duration": 0.7681818181818301,
                "tempo": 120.0
            },
            {
                "start_time": 176.57272727272726,
                "end_time": 177.34318181818182,
                "pitch": 64,
                "velocity": 64,
                "duration": 0.7704545454545553,
                "tempo": 120.0
            },
            {
                "start_time": 177.37727272727273,
                "end_time": 178.04772727272726,
                "pitch": 0,
                "velocity": 64,
                "duration": 0.6704545454545325,
                "tempo": 120.0
            },
            {
                "start_time": 178.08181818181816,
                "end_time": 179.65681818181818,
                "pitch": 66,
                "velocity": 64,
                "duration": 1.575000000000017,
                "tempo": 120.0
            }
        ]
    }
}