{
    "track_id": "Penguin Land (FM) - 02 - Round Start",
    "mood": "happy",
    "instruments": {
        "Vibraphone": [
            {
                "start_time": 0.13636363636363635,
                "end_time": 0.2568181818181818,
                "pitch": 64,
                "velocity": 51,
                "duration": 0.12045454545454543,
                "tempo": 120.0
            },
            {
                "start_time": 0.2727272727272727,
                "end_time": 0.5204545454545454,
                "pitch": 67,
                "velocity": 51,
                "duration": 0.24772727272727268,
                "tempo": 120.0
            },
            {
                "start_time": 0.5363636363636364,
                "end_time": 0.6477272727272727,
                "pitch": 64,
                "velocity": 51,
                "duration": 0.11136363636363633,
                "tempo": 120.0
            },
            {
                "start_time": 0.6636363636363636,
                "end_time": 0.9113636363636363,
                "pitch": 67,
                "velocity": 51,
                "duration": 0.24772727272727268,
                "tempo": 120.0
            },
            {
                "start_time": 0.9295454545454545,
                "end_time": 1.05,
                "pitch": 65,
                "velocity": 51,
                "duration": 0.12045454545454559,
                "tempo": 120.0
            },
            {
                "start_time": 1.065909090909091,
                "end_time": 1.315909090909091,
                "pitch": 69,
                "velocity": 51,
                "duration": 0.25,
                "tempo": 120.0
            },
            {
                "start_time": 1.334090909090909,
                "end_time": 1.4477272727272728,
                "pitch": 66,
                "velocity": 51,
                "duration": 0.11363636363636376,
                "tempo": 120.0
            },
            {
                "start_time": 1.4636363636363636,
                "end_time": 1.5795454545454544,
                "pitch": 69,
                "velocity": 51,
                "duration": 0.11590909090909074,
                "tempo": 120.0
            },
            {
                "start_time": 1.5954545454545455,
                "end_time": 2.8022727272727272,
                "pitch": 71,
                "velocity": 51,
                "duration": 1.2068181818181818,
                "tempo": 120.0
            },
            {
                "start_time": 2.818181818181818,
                "end_time": 2.9295454545454542,
                "pitch": 64,
                "velocity": 51,
                "duration": 0.11136363636363633,
                "tempo": 120.0
            },
            {
                "start_time": 2.9454545454545453,
                "end_time": 3.0568181818181817,
                "pitch": 67,
                "velocity": 51,
                "duration": 0.11136363636363633,
                "tempo": 120.0
            },
            {
                "start_time": 3.0727272727272728,
                "end_time": 3.184090909090909,
                "pitch": 72,
                "velocity": 51,
                "duration": 0.11136363636363633,
                "tempo": 120.0
            },
            {
                "start_time": 3.1999999999999997,
                "end_time": 3.3204545454545453,
                "pitch": 67,
                "velocity": 51,
                "duration": 0.12045454545454559,
                "tempo": 120.0
            },
            {
                "start_time": 3.3363636363636364,
                "end_time": 3.4568181818181816,
                "pitch": 72,
                "velocity": 51,
                "duration": 0.12045454545454515,
                "tempo": 120.0
            },
            {
                "start_time": 3.4749999999999996,
                "end_time": 3.593181818181818,
                "pitch": 76,
                "velocity": 51,
                "duration": 0.11818181818181817,
                "tempo": 120.0
            },
            {
                "start_time": 3.6113636363636363,
                "end_time": 3.727272727272727,
                "pitch": 72,
                "velocity": 51,
                "duration": 0.11590909090909074,
                "tempo": 120.0
            },
            {
                "start_time": 3.745454545454545,
                "end_time": 3.8613636363636363,
                "pitch": 76,
                "velocity": 51,
                "duration": 0.11590909090909118,
                "tempo": 120.0
            },
            {
                "start_time": 3.877272727272727,
                "end_time": 3.995454545454545,
                "pitch": 79,
                "velocity": 51,
                "duration": 0.11818181818181817,
                "tempo": 120.0
            },
            {
                "start_time": 4.011363636363636,
                "end_time": 4.125,
                "pitch": 76,
                "velocity": 51,
                "duration": 0.1136363636363642,
                "tempo": 120.0
            },
            {
                "start_time": 4.140909090909091,
                "end_time": 4.256818181818182,
                "pitch": 79,
                "velocity": 51,
                "duration": 0.11590909090909118,
                "tempo": 120.0
            },
            {
                "start_time": 4.2727272727272725,
                "end_time": 4.386363636363636,
                "pitch": 84,
                "velocity": 51,
                "duration": 0.11363636363636331,
                "tempo": 120.0
            },
            {
                "start_time": 4.402272727272727,
                "end_time": 4.5227272727272725,
                "pitch": 88,
                "velocity": 51,
                "duration": 0.12045454545454515,
                "tempo": 120.0
            },
            {
                "start_time": 4.540909090909091,
                "end_time": 4.659090909090909,
                "pitch": 89,
                "velocity": 51,
                "duration": 0.11818181818181817,
                "tempo": 120.0
            },
            {
                "start_time": 4.677272727272727,
                "end_time": 6.0,
                "pitch": 91,
                "velocity": 51,
                "duration": 1.3227272727272732,
                "tempo": 120.0
            }
        ],
        "Electric Guitar (clean)": [
            {
                "start_time": 0.13636363636363635,
                "end_time": 0.2568181818181818,
                "pitch": 60,
                "velocity": 32,
                "duration": 0.12045454545454543,
                "tempo": 120.0
            },
            {
                "start_time": 0.2727272727272727,
                "end_time": 0.5204545454545454,
                "pitch": 64,
                "velocity": 32,
                "duration": 0.24772727272727268,
                "tempo": 120.0
            },
            {
                "start_time": 0.5363636363636364,
                "end_time": 0.6477272727272727,
                "pitch": 60,
                "velocity": 32,
                "duration": 0.11136363636363633,
                "tempo": 120.0
            },
            {
                "start_time": 0.6636363636363636,
                "end_time": 0.9113636363636363,
                "pitch": 64,
                "velocity": 32,
                "duration": 0.24772727272727268,
                "tempo": 120.0
            },
            {
                "start_time": 0.9295454545454545,
                "end_time": 1.05,
                "pitch": 60,
                "velocity": 32,
                "duration": 0.12045454545454559,
                "tempo": 120.0
            },
            {
                "start_time": 1.065909090909091,
                "end_time": 1.315909090909091,
                "pitch": 65,
                "velocity": 32,
                "duration": 0.25,
                "tempo": 120.0
            },
            {
                "start_time": 1.334090909090909,
                "end_time": 1.4477272727272728,
                "pitch": 60,
                "velocity": 32,
                "duration": 0.11363636363636376,
                "tempo": 120.0
            },
            {
                "start_time": 1.4636363636363636,
                "end_time": 1.5795454545454544,
                "pitch": 62,
                "velocity": 32,
                "duration": 0.11590909090909074,
                "tempo": 120.0
            },
            {
                "start_time": 1.5954545454545455,
                "end_time": 2.8022727272727272,
                "pitch": 65,
                "velocity": 32,
                "duration": 1.2068181818181818,
                "tempo": 120.0
            },
            {
                "start_time": 2.818181818181818,
                "end_time": 2.9295454545454542,
                "pitch": 55,
                "velocity": 32,
                "duration": 0.11136363636363633,
                "tempo": 120.0
            },
            {
                "start_time": 2.9454545454545453,
                "end_time": 3.0568181818181817,
                "pitch": 60,
                "velocity": 32,
                "duration": 0.11136363636363633,
                "tempo": 120.0
            },
            {
                "start_time": 3.0727272727272728,
                "end_time": 3.184090909090909,
                "pitch": 64,
                "velocity": 32,
                "duration": 0.11136363636363633,
                "tempo": 120.0
            },
            {
                "start_time": 3.1999999999999997,
                "end_time": 3.3204545454545453,
                "pitch": 60,
                "velocity": 32,
                "duration": 0.12045454545454559,
                "tempo": 120.0
            },
            {
                "start_time": 3.3363636363636364,
                "end_time": 3.4568181818181816,
                "pitch": 64,
                "velocity": 32,
                "duration": 0.12045454545454515,
                "tempo": 120.0
            },
            {
                "start_time": 3.4749999999999996,
                "end_time": 3.593181818181818,
                "pitch": 67,
                "velocity": 32,
                "duration": 0.11818181818181817,
                "tempo": 120.0
            },
            {
                "start_time": 3.6113636363636363,
                "end_time": 3.727272727272727,
                "pitch": 64,
                "velocity": 32,
                "duration": 0.11590909090909074,
                "tempo": 120.0
            },
            {
                "start_time": 3.745454545454545,
                "end_time": 3.8613636363636363,
                "pitch": 67,
                "velocity": 32,
                "duration": 0.11590909090909118,
                "tempo": 120.0
            },
            {
                "start_time": 3.877272727272727,
                "end_time": 3.995454545454545,
                "pitch": 72,
                "velocity": 32,
                "duration": 0.11818181818181817,
                "tempo": 120.0
            },
            {
                "start_time": 4.011363636363636,
                "end_time": 4.125,
                "pitch": 67,
                "velocity": 32,
                "duration": 0.1136363636363642,
                "tempo": 120.0
            },
            {
                "start_time": 4.140909090909091,
                "end_time": 4.256818181818182,
                "pitch": 72,
                "velocity": 32,
                "duration": 0.11590909090909118,
                "tempo": 120.0
            },
            {
                "start_time": 4.2727272727272725,
                "end_time": 4.386363636363636,
                "pitch": 76,
                "velocity": 32,
                "duration": 0.11363636363636331,
                "tempo": 120.0
            },
            {
                "start_time": 4.402272727272727,
                "end_time": 6.0,
                "pitch": 72,
                "velocity": 32,
                "duration": 1.5977272727272727,
                "tempo": 120.0
            }
        ]
    }
}