{
    "track_id": "Penguin Land (FM) - 01 - Title Screen",
    "mood": "happy",
    "instruments": {
        "Acoustic Grand Piano": [
            {
                "start_time": 0.031818181818181815,
                "end_time": 0.19772727272727272,
                "pitch": 63,
                "velocity": 51,
                "duration": 0.1659090909090909,
                "tempo": 120.0
            },
            {
                "start_time": 0.2159090909090909,
                "end_time": 0.29772727272727273,
                "pitch": 63,
                "velocity": 51,
                "duration": 0.08181818181818182,
                "tempo": 120.0
            },
            {
                "start_time": 0.3159090909090909,
                "end_time": 0.3977272727272727,
                "pitch": 63,
                "velocity": 51,
                "duration": 0.08181818181818179,
                "tempo": 120.0
            },
            {
                "start_time": 0.4159090909090909,
                "end_time": 0.5954545454545455,
                "pitch": 63,
                "velocity": 51,
                "duration": 0.17954545454545456,
                "tempo": 120.0
            },
            {
                "start_time": 0.6113636363636363,
                "end_time": 0.6931818181818181,
                "pitch": 63,
                "velocity": 51,
                "duration": 0.08181818181818179,
                "tempo": 120.0
            },
            {
                "start_time": 0.7090909090909091,
                "end_time": 0.7909090909090909,
                "pitch": 63,
                "velocity": 51,
                "duration": 0.08181818181818179,
                "tempo": 120.0
            },
            {
                "start_time": 0.8068181818181818,
                "end_time": 0.9909090909090909,
                "pitch": 63,
                "velocity": 51,
                "duration": 0.18409090909090908,
                "tempo": 120.0
            },
            {
                "start_time": 1.0068181818181818,
                "end_time": 1.0909090909090908,
                "pitch": 63,
                "velocity": 51,
                "duration": 0.084090909090909,
                "tempo": 120.0
            },
            {
                "start_time": 1.1068181818181817,
                "end_time": 1.190909090909091,
                "pitch": 63,
                "velocity": 51,
                "duration": 0.08409090909090922,
                "tempo": 120.0
            },
            {
                "start_time": 1.2068181818181818,
                "end_time": 1.2886363636363636,
                "pitch": 63,
                "velocity": 51,
                "duration": 0.08181818181818179,
                "tempo": 120.0
            },
            {
                "start_time": 1.3045454545454545,
                "end_time": 1.3863636363636362,
                "pitch": 63,
                "velocity": 51,
                "duration": 0.08181818181818179,
                "tempo": 120.0
            },
            {
                "start_time": 1.4022727272727271,
                "end_time": 1.5818181818181818,
                "pitch": 63,
                "velocity": 51,
                "duration": 0.17954545454545467,
                "tempo": 120.0
            },
            {
                "start_time": 1.7999999999999998,
                "end_time": 2.186363636363636,
                "pitch": 62,
                "velocity": 51,
                "duration": 0.38636363636363624,
                "tempo": 120.0
            },
            {
                "start_time": 2.202272727272727,
                "end_time": 2.3863636363636362,
                "pitch": 60,
                "velocity": 51,
                "duration": 0.18409090909090908,
                "tempo": 120.0
            },
            {
                "start_time": 2.4022727272727273,
                "end_time": 2.590909090909091,
                "pitch": 62,
                "velocity": 51,
                "duration": 0.1886363636363635,
                "tempo": 120.0
            },
            {
                "start_time": 2.6068181818181815,
                "end_time": 2.7954545454545454,
                "pitch": 58,
                "velocity": 51,
                "duration": 0.18863636363636394,
                "tempo": 120.0
            },
            {
                "start_time": 2.8136363636363635,
                "end_time": 2.993181818181818,
                "pitch": 60,
                "velocity": 51,
                "duration": 0.17954545454545467,
                "tempo": 120.0
            },
            {
                "start_time": 3.009090909090909,
                "end_time": 3.1886363636363635,
                "pitch": 62,
                "velocity": 51,
                "duration": 0.17954545454545467,
                "tempo": 120.0
            },
            {
                "start_time": 9.711363636363636,
                "end_time": 9.94090909090909,
                "pitch": 72,
                "velocity": 51,
                "duration": 0.2295454545454536,
                "tempo": 120.0
            },
            {
                "start_time": 9.961363636363636,
                "end_time": 10.063636363636363,
                "pitch": 68,
                "velocity": 51,
                "duration": 0.10227272727272663,
                "tempo": 120.0
            },
            {
                "start_time": 10.084090909090909,
                "end_time": 10.309090909090909,
                "pitch": 70,
                "velocity": 51,
                "duration": 0.22499999999999964,
                "tempo": 120.0
            },
            {
                "start_time": 10.329545454545453,
                "end_time": 10.838636363636363,
                "pitch": 72,
                "velocity": 51,
                "duration": 0.5090909090909097,
                "tempo": 120.0
            },
            {
                "start_time": 10.854545454545454,
                "end_time": 10.938636363636363,
                "pitch": 68,
                "velocity": 51,
                "duration": 0.084090909090909,
                "tempo": 120.0
            },
            {
                "start_time": 10.954545454545453,
                "end_time": 11.138636363636364,
                "pitch": 70,
                "velocity": 51,
                "duration": 0.18409090909091042,
                "tempo": 120.0
            },
            {
                "start_time": 11.154545454545454,
                "end_time": 11.64090909090909,
                "pitch": 72,
                "velocity": 51,
                "duration": 0.48636363636363633,
                "tempo": 120.0
            },
            {
                "start_time": 11.656818181818181,
                "end_time": 11.74090909090909,
                "pitch": 68,
                "velocity": 51,
                "duration": 0.084090909090909,
                "tempo": 120.0
            },
            {
                "start_time": 11.756818181818181,
                "end_time": 11.943181818181818,
                "pitch": 70,
                "velocity": 51,
                "duration": 0.1863636363636374,
                "tempo": 120.0
            },
            {
                "start_time": 11.959090909090909,
                "end_time": 12.245454545454544,
                "pitch": 72,
                "velocity": 51,
                "duration": 0.28636363636363527,
                "tempo": 120.0
            },
            {
                "start_time": 12.261363636363635,
                "end_time": 12.445454545454545,
                "pitch": 74,
                "velocity": 51,
                "duration": 0.18409090909091042,
                "tempo": 120.0
            },
            {
                "start_time": 12.463636363636363,
                "end_time": 12.654545454545454,
                "pitch": 72,
                "velocity": 51,
                "duration": 0.19090909090909136,
                "tempo": 120.0
            },
            {
                "start_time": 12.672727272727272,
                "end_time": 12.86590909090909,
                "pitch": 70,
                "velocity": 51,
                "duration": 0.19318181818181834,
                "tempo": 120.0
            },
            {
                "start_time": 12.884090909090908,
                "end_time": 13.059090909090909,
                "pitch": 68,
                "velocity": 51,
                "duration": 0.1750000000000007,
                "tempo": 120.0
            },
            {
                "start_time": 13.075,
                "end_time": 13.25,
                "pitch": 70,
                "velocity": 51,
                "duration": 0.1750000000000007,
                "tempo": 120.0
            },
            {
                "start_time": 13.26590909090909,
                "end_time": 13.35,
                "pitch": 67,
                "velocity": 51,
                "duration": 0.084090909090909,
                "tempo": 120.0
            },
            {
                "start_time": 13.36590909090909,
                "end_time": 13.552272727272726,
                "pitch": 68,
                "velocity": 51,
                "duration": 0.18636363636363562,
                "tempo": 120.0
            },
            {
                "start_time": 13.568181818181818,
                "end_time": 14.054545454545455,
                "pitch": 70,
                "velocity": 51,
                "duration": 0.48636363636363633,
                "tempo": 120.0
            },
            {
                "start_time": 14.072727272727272,
                "end_time": 14.156818181818181,
                "pitch": 67,
                "velocity": 51,
                "duration": 0.084090909090909,
                "tempo": 120.0
            },
            {
                "start_time": 14.174999999999999,
                "end_time": 14.363636363636363,
                "pitch": 68,
                "velocity": 51,
                "duration": 0.18863636363636438,
                "tempo": 120.0
            },
            {
                "start_time": 14.379545454545454,
                "end_time": 14.868181818181817,
                "pitch": 70,
                "velocity": 51,
                "duration": 0.4886363636363633,
                "tempo": 120.0
            },
            {
                "start_time": 14.886363636363635,
                "end_time": 14.968181818181817,
                "pitch": 67,
                "velocity": 51,
                "duration": 0.08181818181818201,
                "tempo": 120.0
            },
            {
                "start_time": 14.986363636363636,
                "end_time": 15.168181818181818,
                "pitch": 68,
                "velocity": 51,
                "duration": 0.18181818181818166,
                "tempo": 120.0
            },
            {
                "start_time": 15.186363636363636,
                "end_time": 15.470454545454544,
                "pitch": 70,
                "velocity": 51,
                "duration": 0.2840909090909083,
                "tempo": 120.0
            },
            {
                "start_time": 15.486363636363636,
                "end_time": 15.670454545454545,
                "pitch": 72,
                "velocity": 51,
                "duration": 0.18409090909090864,
                "tempo": 120.0
            },
            {
                "start_time": 15.688636363636363,
                "end_time": 15.875,
                "pitch": 70,
                "velocity": 51,
                "duration": 0.1863636363636374,
                "tempo": 120.0
            },
            {
                "start_time": 15.893181818181818,
                "end_time": 16.081818181818182,
                "pitch": 68,
                "velocity": 51,
                "duration": 0.18863636363636438,
                "tempo": 120.0
            },
            {
                "start_time": 16.097727272727273,
                "end_time": 16.272727272727273,
                "pitch": 67,
                "velocity": 51,
                "duration": 0.1750000000000007,
                "tempo": 120.0
            },
            {
                "start_time": 16.288636363636364,
                "end_time": 16.46363636363636,
                "pitch": 68,
                "velocity": 51,
                "duration": 0.17499999999999716,
                "tempo": 120.0
            },
            {
                "start_time": 16.48181818181818,
                "end_time": 16.563636363636363,
                "pitch": 67,
                "velocity": 51,
                "duration": 0.08181818181818201,
                "tempo": 120.0
            },
            {
                "start_time": 16.581818181818182,
                "end_time": 16.76590909090909,
                "pitch": 68,
                "velocity": 51,
                "duration": 0.18409090909090864,
                "tempo": 120.0
            },
            {
                "start_time": 16.78181818181818,
                "end_time": 16.86590909090909,
                "pitch": 65,
                "velocity": 51,
                "duration": 0.08409090909090722,
                "tempo": 120.0
            },
            {
                "start_time": 16.884090909090908,
                "end_time": 16.96590909090909,
                "pitch": 67,
                "velocity": 51,
                "duration": 0.08181818181818201,
                "tempo": 120.0
            },
            {
                "start_time": 16.98409090909091,
                "end_time": 17.06590909090909,
                "pitch": 68,
                "velocity": 51,
                "duration": 0.08181818181818201,
                "tempo": 120.0
            },
            {
                "start_time": 17.084090909090907,
                "end_time": 17.26590909090909,
                "pitch": 70,
                "velocity": 51,
                "duration": 0.18181818181818343,
                "tempo": 120.0
            },
            {
                "start_time": 17.284090909090907,
                "end_time": 17.368181818181817,
                "pitch": 69,
                "velocity": 51,
                "duration": 0.08409090909091077,
                "tempo": 120.0
            },
            {
                "start_time": 17.384090909090908,
                "end_time": 17.568181818181817,
                "pitch": 70,
                "velocity": 51,
                "duration": 0.18409090909090864,
                "tempo": 120.0
            },
            {
                "start_time": 17.586363636363636,
                "end_time": 17.668181818181818,
                "pitch": 67,
                "velocity": 51,
                "duration": 0.08181818181818201,
                "tempo": 120.0
            },
            {
                "start_time": 17.686363636363634,
                "end_time": 17.770454545454545,
                "pitch": 68,
                "velocity": 51,
                "duration": 0.08409090909091077,
                "tempo": 120.0
            },
            {
                "start_time": 17.786363636363635,
                "end_time": 17.870454545454546,
                "pitch": 70,
                "velocity": 51,
                "duration": 0.08409090909091077,
                "tempo": 120.0
            },
            {
                "start_time": 17.886363636363637,
                "end_time": 18.070454545454545,
                "pitch": 72,
                "velocity": 51,
                "duration": 0.18409090909090864,
                "tempo": 120.0
            },
            {
                "start_time": 18.086363636363636,
                "end_time": 18.170454545454543,
                "pitch": 71,
                "velocity": 51,
                "duration": 0.08409090909090722,
                "tempo": 120.0
            },
            {
                "start_time": 18.186363636363634,
                "end_time": 18.370454545454546,
                "pitch": 72,
                "velocity": 51,
                "duration": 0.1840909090909122,
                "tempo": 120.0
            },
            {
                "start_time": 18.386363636363637,
                "end_time": 18.470454545454544,
                "pitch": 68,
                "velocity": 51,
                "duration": 0.08409090909090722,
                "tempo": 120.0
            },
            {
                "start_time": 18.486363636363635,
                "end_time": 18.570454545454545,
                "pitch": 70,
                "velocity": 51,
                "duration": 0.08409090909091077,
                "tempo": 120.0
            },
            {
                "start_time": 18.58863636363636,
                "end_time": 18.675,
                "pitch": 72,
                "velocity": 51,
                "duration": 0.08636363636363953,
                "tempo": 120.0
            },
            {
                "start_time": 18.69090909090909,
                "end_time": 18.879545454545454,
                "pitch": 74,
                "velocity": 51,
                "duration": 0.1886363636363626,
                "tempo": 120.0
            },
            {
                "start_time": 18.897727272727273,
                "end_time": 19.077272727272728,
                "pitch": 75,
                "velocity": 51,
                "duration": 0.17954545454545467,
                "tempo": 120.0
            },
            {
                "start_time": 19.09318181818182,
                "end_time": 19.46818181818182,
                "pitch": 77,
                "velocity": 51,
                "duration": 0.375,
                "tempo": 120.0
            }
        ],
        "Clarinet": [
            {
                "start_time": 0.031818181818181815,
                "end_time": 0.29772727272727273,
                "pitch": 82,
                "velocity": 32,
                "duration": 0.26590909090909093,
                "tempo": 120.0
            },
            {
                "start_time": 0.3159090909090909,
                "end_time": 0.5954545454545455,
                "pitch": 80,
                "velocity": 32,
                "duration": 0.27954545454545454,
                "tempo": 120.0
            },
            {
                "start_time": 0.6113636363636363,
                "end_time": 0.7909090909090909,
                "pitch": 74,
                "velocity": 32,
                "duration": 0.17954545454545456,
                "tempo": 120.0
            },
            {
                "start_time": 0.8068181818181818,
                "end_time": 1.0909090909090908,
                "pitch": 82,
                "velocity": 32,
                "duration": 0.28409090909090906,
                "tempo": 120.0
            },
            {
                "start_time": 1.1068181818181817,
                "end_time": 1.3863636363636362,
                "pitch": 80,
                "velocity": 32,
                "duration": 0.27954545454545454,
                "tempo": 120.0
            },
            {
                "start_time": 1.4022727272727271,
                "end_time": 1.5818181818181818,
                "pitch": 74,
                "velocity": 32,
                "duration": 0.17954545454545467,
                "tempo": 120.0
            },
            {
                "start_time": 1.5999999999999999,
                "end_time": 1.884090909090909,
                "pitch": 80,
                "velocity": 32,
                "duration": 0.28409090909090917,
                "tempo": 120.0
            },
            {
                "start_time": 1.9022727272727271,
                "end_time": 2.0863636363636364,
                "pitch": 79,
                "velocity": 32,
                "duration": 0.1840909090909093,
                "tempo": 120.0
            },
            {
                "start_time": 2.102272727272727,
                "end_time": 2.186363636363636,
                "pitch": 80,
                "velocity": 32,
                "duration": 0.084090909090909,
                "tempo": 120.0
            },
            {
                "start_time": 2.202272727272727,
                "end_time": 2.3863636363636362,
                "pitch": 84,
                "velocity": 32,
                "duration": 0.18409090909090908,
                "tempo": 120.0
            },
            {
                "start_time": 2.4022727272727273,
                "end_time": 2.7954545454545454,
                "pitch": 82,
                "velocity": 32,
                "duration": 0.3931818181818181,
                "tempo": 120.0
            }
        ],
        "Acoustic Bass": [
            {
                "start_time": 0.031818181818181815,
                "end_time": 0.7909090909090909,
                "pitch": 35,
                "velocity": 40,
                "duration": 0.759090909090909,
                "tempo": 120.0
            },
            {
                "start_time": 0.8068181818181818,
                "end_time": 1.5818181818181818,
                "pitch": 44,
                "velocity": 40,
                "duration": 0.775,
                "tempo": 120.0
            },
            {
                "start_time": 1.5999999999999999,
                "end_time": 1.684090909090909,
                "pitch": 41,
                "velocity": 40,
                "duration": 0.08409090909090922,
                "tempo": 120.0
            },
            {
                "start_time": 1.7,
                "end_time": 1.784090909090909,
                "pitch": 39,
                "velocity": 40,
                "duration": 0.084090909090909,
                "tempo": 120.0
            },
            {
                "start_time": 1.7999999999999998,
                "end_time": 1.884090909090909,
                "pitch": 38,
                "velocity": 40,
                "duration": 0.08409090909090922,
                "tempo": 120.0
            },
            {
                "start_time": 1.9022727272727271,
                "end_time": 2.0863636363636364,
                "pitch": 36,
                "velocity": 40,
                "duration": 0.1840909090909093,
                "tempo": 120.0
            },
            {
                "start_time": 2.102272727272727,
                "end_time": 2.186363636363636,
                "pitch": 34,
                "velocity": 40,
                "duration": 0.084090909090909,
                "tempo": 120.0
            },
            {
                "start_time": 2.202272727272727,
                "end_time": 2.286363636363636,
                "pitch": 38,
                "velocity": 40,
                "duration": 0.084090909090909,
                "tempo": 120.0
            },
            {
                "start_time": 2.3022727272727272,
                "end_time": 2.3863636363636362,
                "pitch": 39,
                "velocity": 40,
                "duration": 0.084090909090909,
                "tempo": 120.0
            },
            {
                "start_time": 2.4022727272727273,
                "end_time": 3.1886363636363635,
                "pitch": 41,
                "velocity": 40,
                "duration": 0.7863636363636362,
                "tempo": 120.0
            },
            {
                "start_time": 3.2045454545454546,
                "end_time": 3.3886363636363637,
                "pitch": 39,
                "velocity": 40,
                "duration": 0.18409090909090908,
                "tempo": 120.0
            },
            {
                "start_time": 3.4045454545454543,
                "end_time": 3.4886363636363633,
                "pitch": 46,
                "velocity": 40,
                "duration": 0.084090909090909,
                "tempo": 120.0
            },
            {
                "start_time": 3.5045454545454544,
                "end_time": 3.690909090909091,
                "pitch": 39,
                "velocity": 40,
                "duration": 0.1863636363636365,
                "tempo": 120.0
            },
            {
                "start_time": 3.7068181818181816,
                "end_time": 3.793181818181818,
                "pitch": 39,
                "velocity": 40,
                "duration": 0.08636363636363642,
                "tempo": 120.0
            },
            {
                "start_time": 3.809090909090909,
                "end_time": 3.895454545454545,
                "pitch": 46,
                "velocity": 40,
                "duration": 0.08636363636363598,
                "tempo": 120.0
            },
            {
                "start_time": 3.9136363636363636,
                "end_time": 3.9977272727272726,
                "pitch": 39,
                "velocity": 40,
                "duration": 0.084090909090909,
                "tempo": 120.0
            },
            {
                "start_time": 4.015909090909091,
                "end_time": 4.2,
                "pitch": 39,
                "velocity": 40,
                "duration": 0.18409090909090953,
                "tempo": 120.0
            },
            {
                "start_time": 4.215909090909091,
                "end_time": 4.3,
                "pitch": 46,
                "velocity": 40,
                "duration": 0.084090909090909,
                "tempo": 120.0
            },
            {
                "start_time": 4.3159090909090905,
                "end_time": 4.5,
                "pitch": 39,
                "velocity": 40,
                "duration": 0.18409090909090953,
                "tempo": 120.0
            },
            {
                "start_time": 4.515909090909091,
                "end_time": 4.6,
                "pitch": 39,
                "velocity": 40,
                "duration": 0.084090909090909,
                "tempo": 120.0
            },
            {
                "start_time": 4.618181818181818,
                "end_time": 4.7,
                "pitch": 46,
                "velocity": 40,
                "duration": 0.08181818181818201,
                "tempo": 120.0
            },
            {
                "start_time": 4.718181818181818,
                "end_time": 4.802272727272727,
                "pitch": 39,
                "velocity": 40,
                "duration": 0.084090909090909,
                "tempo": 120.0
            },
            {
                "start_time": 4.818181818181818,
                "end_time": 5.002272727272727,
                "pitch": 34,
                "velocity": 40,
                "duration": 0.18409090909090864,
                "tempo": 120.0
            },
            {
                "start_time": 5.0204545454545455,
                "end_time": 5.1045454545454545,
                "pitch": 41,
                "velocity": 40,
                "duration": 0.084090909090909,
                "tempo": 120.0
            },
            {
                "start_time": 5.120454545454545,
                "end_time": 5.304545454545455,
                "pitch": 34,
                "velocity": 40,
                "duration": 0.18409090909090953,
                "tempo": 120.0
            },
            {
                "start_time": 5.320454545454545,
                "end_time": 5.404545454545454,
                "pitch": 34,
                "velocity": 40,
                "duration": 0.084090909090909,
                "tempo": 120.0
            },
            {
                "start_time": 5.420454545454545,
                "end_time": 5.504545454545454,
                "pitch": 41,
                "velocity": 40,
                "duration": 0.084090909090909,
                "tempo": 120.0
            },
            {
                "start_time": 5.5204545454545455,
                "end_time": 5.6045454545454545,
                "pitch": 34,
                "velocity": 40,
                "duration": 0.084090909090909,
                "tempo": 120.0
            },
            {
                "start_time": 5.620454545454545,
                "end_time": 5.804545454545455,
                "pitch": 34,
                "velocity": 40,
                "duration": 0.18409090909090953,
                "tempo": 120.0
            },
            {
                "start_time": 5.822727272727272,
                "end_time": 5.906818181818181,
                "pitch": 41,
                "velocity": 40,
                "duration": 0.084090909090909,
                "tempo": 120.0
            },
            {
                "start_time": 5.922727272727273,
                "end_time": 6.1068181818181815,
                "pitch": 34,
                "velocity": 40,
                "duration": 0.18409090909090864,
                "tempo": 120.0
            },
            {
                "start_time": 6.122727272727272,
                "end_time": 6.206818181818181,
                "pitch": 34,
                "velocity": 40,
                "duration": 0.084090909090909,
                "tempo": 120.0
            },
            {
                "start_time": 6.222727272727273,
                "end_time": 6.306818181818182,
                "pitch": 41,
                "velocity": 40,
                "duration": 0.084090909090909,
                "tempo": 120.0
            },
            {
                "start_time": 6.322727272727272,
                "end_time": 6.406818181818181,
                "pitch": 34,
                "velocity": 40,
                "duration": 0.084090909090909,
                "tempo": 120.0
            },
            {
                "start_time": 6.422727272727273,
                "end_time": 6.6090909090909085,
                "pitch": 34,
                "velocity": 40,
                "duration": 0.18636363636363562,
                "tempo": 120.0
            },
            {
                "start_time": 6.625,
                "end_time": 6.709090909090909,
                "pitch": 41,
                "velocity": 40,
                "duration": 0.084090909090909,
                "tempo": 120.0
            },
            {
                "start_time": 6.725,
                "end_time": 6.911363636363636,
                "pitch": 34,
                "velocity": 40,
                "duration": 0.1863636363636365,
                "tempo": 120.0
            },
            {
                "start_time": 6.927272727272727,
                "end_time": 7.011363636363636,
                "pitch": 34,
                "velocity": 40,
                "duration": 0.084090909090909,
                "tempo": 120.0
            },
            {
                "start_time": 7.027272727272727,
                "end_time": 7.111363636363636,
                "pitch": 44,
                "velocity": 40,
                "duration": 0.084090909090909,
                "tempo": 120.0
            },
            {
                "start_time": 7.129545454545454,
                "end_time": 7.211363636363636,
                "pitch": 34,
                "velocity": 40,
                "duration": 0.08181818181818201,
                "tempo": 120.0
            },
            {
                "start_time": 7.2295454545454545,
                "end_time": 7.413636363636363,
                "pitch": 34,
                "velocity": 40,
                "duration": 0.18409090909090864,
                "tempo": 120.0
            },
            {
                "start_time": 7.429545454545454,
                "end_time": 7.513636363636364,
                "pitch": 41,
                "velocity": 40,
                "duration": 0.08409090909090988,
                "tempo": 120.0
            },
            {
                "start_time": 7.529545454545454,
                "end_time": 7.713636363636363,
                "pitch": 34,
                "velocity": 40,
                "duration": 0.18409090909090864,
                "tempo": 120.0
            },
            {
                "start_time": 7.7295454545454545,
                "end_time": 7.8136363636363635,
                "pitch": 34,
                "velocity": 40,
                "duration": 0.084090909090909,
                "tempo": 120.0
            },
            {
                "start_time": 7.829545454545454,
                "end_time": 7.913636363636363,
                "pitch": 44,
                "velocity": 40,
                "duration": 0.084090909090909,
                "tempo": 120.0
            },
            {
                "start_time": 7.931818181818182,
                "end_time": 8.01590909090909,
                "pitch": 34,
                "velocity": 40,
                "duration": 0.084090909090909,
                "tempo": 120.0
            },
            {
                "start_time": 8.031818181818181,
                "end_time": 8.21590909090909,
                "pitch": 39,
                "velocity": 40,
                "duration": 0.18409090909090864,
                "tempo": 120.0
            },
            {
                "start_time": 8.23181818181818,
                "end_time": 8.315909090909091,
                "pitch": 46,
                "velocity": 40,
                "duration": 0.08409090909091077,
                "tempo": 120.0
            },
            {
                "start_time": 8.331818181818182,
                "end_time": 8.513636363636364,
                "pitch": 39,
                "velocity": 40,
                "duration": 0.18181818181818166,
                "tempo": 120.0
            },
            {
                "start_time": 8.529545454545454,
                "end_time": 8.611363636363636,
                "pitch": 39,
                "velocity": 40,
                "duration": 0.08181818181818201,
                "tempo": 120.0
            },
            {
                "start_time": 8.627272727272727,
                "end_time": 8.709090909090909,
                "pitch": 46,
                "velocity": 40,
                "duration": 0.08181818181818201,
                "tempo": 120.0
            },
            {
                "start_time": 8.725,
                "end_time": 8.806818181818182,
                "pitch": 39,
                "velocity": 40,
                "duration": 0.08181818181818201,
                "tempo": 120.0
            },
            {
                "start_time": 8.825,
                "end_time": 9.218181818181817,
                "pitch": 39,
                "velocity": 40,
                "duration": 0.39318181818181763,
                "tempo": 120.0
            },
            {
                "start_time": 9.23409090909091,
                "end_time": 9.69090909090909,
                "pitch": 39,
                "velocity": 40,
                "duration": 0.45681818181818024,
                "tempo": 120.0
            },
            {
                "start_time": 9.711363636363636,
                "end_time": 9.81590909090909,
                "pitch": 44,
                "velocity": 40,
                "duration": 0.10454545454545361,
                "tempo": 120.0
            },
            {
                "start_time": 9.836363636363636,
                "end_time": 9.94090909090909,
                "pitch": 44,
                "velocity": 40,
                "duration": 0.10454545454545361,
                "tempo": 120.0
            },
            {
                "start_time": 9.961363636363636,
                "end_time": 10.063636363636363,
                "pitch": 44,
                "velocity": 40,
                "duration": 0.10227272727272663,
                "tempo": 120.0
            },
            {
                "start_time": 10.084090909090909,
                "end_time": 10.309090909090909,
                "pitch": 44,
                "velocity": 40,
                "duration": 0.22499999999999964,
                "tempo": 120.0
            },
            {
                "start_time": 10.329545454545453,
                "end_time": 10.431818181818182,
                "pitch": 44,
                "velocity": 40,
                "duration": 0.1022727272727284,
                "tempo": 120.0
            },
            {
                "start_time": 10.452272727272726,
                "end_time": 10.536363636363635,
                "pitch": 44,
                "velocity": 40,
                "duration": 0.084090909090909,
                "tempo": 120.0
            },
            {
                "start_time": 10.552272727272726,
                "end_time": 10.636363636363637,
                "pitch": 44,
                "velocity": 40,
                "duration": 0.08409090909091077,
                "tempo": 120.0
            },
            {
                "start_time": 10.652272727272727,
                "end_time": 10.736363636363636,
                "pitch": 44,
                "velocity": 40,
                "duration": 0.084090909090909,
                "tempo": 120.0
            },
            {
                "start_time": 10.754545454545454,
                "end_time": 10.838636363636363,
                "pitch": 44,
                "velocity": 40,
                "duration": 0.084090909090909,
                "tempo": 120.0
            },
            {
                "start_time": 10.854545454545454,
                "end_time": 10.938636363636363,
                "pitch": 44,
                "velocity": 40,
                "duration": 0.084090909090909,
                "tempo": 120.0
            },
            {
                "start_time": 10.954545454545453,
                "end_time": 11.138636363636364,
                "pitch": 44,
                "velocity": 40,
                "duration": 0.18409090909091042,
                "tempo": 120.0
            },
            {
                "start_time": 11.154545454545454,
                "end_time": 11.238636363636363,
                "pitch": 44,
                "velocity": 40,
                "duration": 0.084090909090909,
                "tempo": 120.0
            },
            {
                "start_time": 11.254545454545454,
                "end_time": 11.338636363636363,
                "pitch": 44,
                "velocity": 40,
                "duration": 0.084090909090909,
                "tempo": 120.0
            },
            {
                "start_time": 11.354545454545454,
                "end_time": 11.438636363636363,
                "pitch": 44,
                "velocity": 40,
                "duration": 0.084090909090909,
                "tempo": 120.0
            },
            {
                "start_time": 11.456818181818182,
                "end_time": 11.538636363636362,
                "pitch": 44,
                "velocity": 40,
                "duration": 0.08181818181818024,
                "tempo": 120.0
            },
            {
                "start_time": 11.556818181818182,
                "end_time": 11.64090909090909,
                "pitch": 44,
                "velocity": 40,
                "duration": 0.084090909090909,
                "tempo": 120.0
            },
            {
                "start_time": 11.656818181818181,
                "end_time": 11.74090909090909,
                "pitch": 44,
                "velocity": 40,
                "duration": 0.084090909090909,
                "tempo": 120.0
            },
            {
                "start_time": 11.756818181818181,
                "end_time": 11.943181818181818,
                "pitch": 44,
                "velocity": 40,
                "duration": 0.1863636363636374,
                "tempo": 120.0
            },
            {
                "start_time": 11.959090909090909,
                "end_time": 12.043181818181818,
                "pitch": 44,
                "velocity": 40,
                "duration": 0.084090909090909,
                "tempo": 120.0
            },
            {
                "start_time": 12.059090909090909,
                "end_time": 12.143181818181818,
                "pitch": 44,
                "velocity": 40,
                "duration": 0.084090909090909,
                "tempo": 120.0
            },
            {
                "start_time": 12.161363636363635,
                "end_time": 12.245454545454544,
                "pitch": 44,
                "velocity": 40,
                "duration": 0.084090909090909,
                "tempo": 120.0
            },
            {
                "start_time": 12.261363636363635,
                "end_time": 12.345454545454546,
                "pitch": 44,
                "velocity": 40,
                "duration": 0.08409090909091077,
                "tempo": 120.0
            },
            {
                "start_time": 12.361363636363636,
                "end_time": 12.445454545454545,
                "pitch": 44,
                "velocity": 40,
                "duration": 0.084090909090909,
                "tempo": 120.0
            },
            {
                "start_time": 12.463636363636363,
                "end_time": 12.549999999999999,
                "pitch": 44,
                "velocity": 40,
                "duration": 0.08636363636363598,
                "tempo": 120.0
            },
            {
                "start_time": 12.568181818181818,
                "end_time": 12.761363636363635,
                "pitch": 44,
                "velocity": 40,
                "duration": 0.19318181818181657,
                "tempo": 120.0
            },
            {
                "start_time": 12.779545454545454,
                "end_time": 12.86590909090909,
                "pitch": 44,
                "velocity": 40,
                "duration": 0.08636363636363598,
                "tempo": 120.0
            },
            {
                "start_time": 12.884090909090908,
                "end_time": 12.963636363636363,
                "pitch": 44,
                "velocity": 40,
                "duration": 0.07954545454545503,
                "tempo": 120.0
            },
            {
                "start_time": 12.979545454545454,
                "end_time": 13.059090909090909,
                "pitch": 44,
                "velocity": 40,
                "duration": 0.07954545454545503,
                "tempo": 120.0
            },
            {
                "start_time": 13.075,
                "end_time": 13.154545454545454,
                "pitch": 43,
                "velocity": 40,
                "duration": 0.07954545454545503,
                "tempo": 120.0
            },
            {
                "start_time": 13.170454545454545,
                "end_time": 13.25,
                "pitch": 43,
                "velocity": 40,
                "duration": 0.07954545454545503,
                "tempo": 120.0
            },
            {
                "start_time": 13.26590909090909,
                "end_time": 13.35,
                "pitch": 43,
                "velocity": 40,
                "duration": 0.084090909090909,
                "tempo": 120.0
            },
            {
                "start_time": 13.36590909090909,
                "end_time": 13.552272727272726,
                "pitch": 43,
                "velocity": 40,
                "duration": 0.18636363636363562,
                "tempo": 120.0
            },
            {
                "start_time": 13.568181818181818,
                "end_time": 13.652272727272727,
                "pitch": 43,
                "velocity": 40,
                "duration": 0.084090909090909,
                "tempo": 120.0
            },
            {
                "start_time": 13.668181818181818,
                "end_time": 13.752272727272727,
                "pitch": 43,
                "velocity": 40,
                "duration": 0.084090909090909,
                "tempo": 120.0
            },
            {
                "start_time": 13.770454545454545,
                "end_time": 13.854545454545454,
                "pitch": 43,
                "velocity": 40,
                "duration": 0.084090909090909,
                "tempo": 120.0
            },
            {
                "start_time": 13.870454545454544,
                "end_time": 13.954545454545453,
                "pitch": 43,
                "velocity": 40,
                "duration": 0.084090909090909,
                "tempo": 120.0
            },
            {
                "start_time": 13.970454545454544,
                "end_time": 14.054545454545455,
                "pitch": 43,
                "velocity": 40,
                "duration": 0.08409090909091077,
                "tempo": 120.0
            },
            {
                "start_time": 14.072727272727272,
                "end_time": 14.156818181818181,
                "pitch": 43,
                "velocity": 40,
                "duration": 0.084090909090909,
                "tempo": 120.0
            },
            {
                "start_time": 14.174999999999999,
                "end_time": 14.363636363636363,
                "pitch": 43,
                "velocity": 40,
                "duration": 0.18863636363636438,
                "tempo": 120.0
            },
            {
                "start_time": 14.379545454545454,
                "end_time": 14.46590909090909,
                "pitch": 43,
                "velocity": 40,
                "duration": 0.08636363636363598,
                "tempo": 120.0
            },
            {
                "start_time": 14.48181818181818,
                "end_time": 14.56590909090909,
                "pitch": 43,
                "velocity": 40,
                "duration": 0.084090909090909,
                "tempo": 120.0
            },
            {
                "start_time": 14.584090909090909,
                "end_time": 14.668181818181818,
                "pitch": 43,
                "velocity": 40,
                "duration": 0.084090909090909,
                "tempo": 120.0
            },
            {
                "start_time": 14.684090909090909,
                "end_time": 14.768181818181818,
                "pitch": 43,
                "velocity": 40,
                "duration": 0.084090909090909,
                "tempo": 120.0
            },
            {
                "start_time": 14.784090909090908,
                "end_time": 14.868181818181817,
                "pitch": 43,
                "velocity": 40,
                "duration": 0.084090909090909,
                "tempo": 120.0
            },
            {
                "start_time": 14.886363636363635,
                "end_time": 14.968181818181817,
                "pitch": 43,
                "velocity": 40,
                "duration": 0.08181818181818201,
                "tempo": 120.0
            },
            {
                "start_time": 14.986363636363636,
                "end_time": 15.168181818181818,
                "pitch": 43,
                "velocity": 40,
                "duration": 0.18181818181818166,
                "tempo": 120.0
            },
            {
                "start_time": 15.186363636363636,
                "end_time": 15.268181818181818,
                "pitch": 43,
                "velocity": 40,
                "duration": 0.08181818181818201,
                "tempo": 120.0
            },
            {
                "start_time": 15.286363636363635,
                "end_time": 15.368181818181817,
                "pitch": 43,
                "velocity": 40,
                "duration": 0.08181818181818201,
                "tempo": 120.0
            },
            {
                "start_time": 15.386363636363635,
                "end_time": 15.470454545454544,
                "pitch": 43,
                "velocity": 40,
                "duration": 0.084090909090909,
                "tempo": 120.0
            },
            {
                "start_time": 15.486363636363636,
                "end_time": 15.570454545454545,
                "pitch": 43,
                "velocity": 40,
                "duration": 0.084090909090909,
                "tempo": 120.0
            },
            {
                "start_time": 15.586363636363636,
                "end_time": 15.670454545454545,
                "pitch": 43,
                "velocity": 40,
                "duration": 0.084090909090909,
                "tempo": 120.0
            },
            {
                "start_time": 15.688636363636363,
                "end_time": 15.772727272727272,
                "pitch": 43,
                "velocity": 40,
                "duration": 0.084090909090909,
                "tempo": 120.0
            },
            {
                "start_time": 15.790909090909091,
                "end_time": 15.979545454545454,
                "pitch": 43,
                "velocity": 40,
                "duration": 0.1886363636363626,
                "tempo": 120.0
            },
            {
                "start_time": 15.995454545454544,
                "end_time": 16.081818181818182,
                "pitch": 43,
                "velocity": 40,
                "duration": 0.08636363636363775,
                "tempo": 120.0
            },
            {
                "start_time": 16.097727272727273,
                "end_time": 16.177272727272726,
                "pitch": 43,
                "velocity": 40,
                "duration": 0.07954545454545325,
                "tempo": 120.0
            },
            {
                "start_time": 16.193181818181817,
                "end_time": 16.272727272727273,
                "pitch": 43,
                "velocity": 40,
                "duration": 0.0795454545454568,
                "tempo": 120.0
            },
            {
                "start_time": 16.288636363636364,
                "end_time": 16.368181818181817,
                "pitch": 41,
                "velocity": 40,
                "duration": 0.07954545454545325,
                "tempo": 120.0
            },
            {
                "start_time": 16.384090909090908,
                "end_time": 16.46363636363636,
                "pitch": 41,
                "velocity": 40,
                "duration": 0.07954545454545325,
                "tempo": 120.0
            },
            {
                "start_time": 16.48181818181818,
                "end_time": 16.563636363636363,
                "pitch": 41,
                "velocity": 40,
                "duration": 0.08181818181818201,
                "tempo": 120.0
            },
            {
                "start_time": 16.581818181818182,
                "end_time": 16.76590909090909,
                "pitch": 41,
                "velocity": 40,
                "duration": 0.18409090909090864,
                "tempo": 120.0
            },
            {
                "start_time": 16.78181818181818,
                "end_time": 16.86590909090909,
                "pitch": 41,
                "velocity": 40,
                "duration": 0.08409090909090722,
                "tempo": 120.0
            },
            {
                "start_time": 16.884090909090908,
                "end_time": 16.96590909090909,
                "pitch": 41,
                "velocity": 40,
                "duration": 0.08181818181818201,
                "tempo": 120.0
            },
            {
                "start_time": 16.98409090909091,
                "end_time": 17.06590909090909,
                "pitch": 41,
                "velocity": 40,
                "duration": 0.08181818181818201,
                "tempo": 120.0
            },
            {
                "start_time": 17.084090909090907,
                "end_time": 17.16590909090909,
                "pitch": 43,
                "velocity": 40,
                "duration": 0.08181818181818201,
                "tempo": 120.0
            },
            {
                "start_time": 17.18409090909091,
                "end_time": 17.26590909090909,
                "pitch": 43,
                "velocity": 40,
                "duration": 0.08181818181818201,
                "tempo": 120.0
            },
            {
                "start_time": 17.284090909090907,
                "end_time": 17.368181818181817,
                "pitch": 43,
                "velocity": 40,
                "duration": 0.08409090909091077,
                "tempo": 120.0
            },
            {
                "start_time": 17.384090909090908,
                "end_time": 17.568181818181817,
                "pitch": 43,
                "velocity": 40,
                "duration": 0.18409090909090864,
                "tempo": 120.0
            },
            {
                "start_time": 17.586363636363636,
                "end_time": 17.668181818181818,
                "pitch": 43,
                "velocity": 40,
                "duration": 0.08181818181818201,
                "tempo": 120.0
            },
            {
                "start_time": 17.686363636363634,
                "end_time": 17.770454545454545,
                "pitch": 43,
                "velocity": 40,
                "duration": 0.08409090909091077,
                "tempo": 120.0
            },
            {
                "start_time": 17.786363636363635,
                "end_time": 17.870454545454546,
                "pitch": 43,
                "velocity": 40,
                "duration": 0.08409090909091077,
                "tempo": 120.0
            },
            {
                "start_time": 17.886363636363637,
                "end_time": 17.970454545454544,
                "pitch": 44,
                "velocity": 40,
                "duration": 0.08409090909090722,
                "tempo": 120.0
            },
            {
                "start_time": 17.986363636363635,
                "end_time": 18.070454545454545,
                "pitch": 44,
                "velocity": 40,
                "duration": 0.08409090909091077,
                "tempo": 120.0
            },
            {
                "start_time": 18.086363636363636,
                "end_time": 18.170454545454543,
                "pitch": 44,
                "velocity": 40,
                "duration": 0.08409090909090722,
                "tempo": 120.0
            },
            {
                "start_time": 18.186363636363634,
                "end_time": 18.370454545454546,
                "pitch": 44,
                "velocity": 40,
                "duration": 0.1840909090909122,
                "tempo": 120.0
            },
            {
                "start_time": 18.386363636363637,
                "end_time": 18.470454545454544,
                "pitch": 44,
                "velocity": 40,
                "duration": 0.08409090909090722,
                "tempo": 120.0
            },
            {
                "start_time": 18.486363636363635,
                "end_time": 18.570454545454545,
                "pitch": 44,
                "velocity": 40,
                "duration": 0.08409090909091077,
                "tempo": 120.0
            },
            {
                "start_time": 18.58863636363636,
                "end_time": 18.675,
                "pitch": 44,
                "velocity": 40,
                "duration": 0.08636363636363953,
                "tempo": 120.0
            },
            {
                "start_time": 18.69090909090909,
                "end_time": 18.879545454545454,
                "pitch": 46,
                "velocity": 40,
                "duration": 0.1886363636363626,
                "tempo": 120.0
            },
            {
                "start_time": 18.897727272727273,
                "end_time": 19.077272727272728,
                "pitch": 48,
                "velocity": 40,
                "duration": 0.17954545454545467,
                "tempo": 120.0
            },
            {
                "start_time": 19.09318181818182,
                "end_time": 19.46818181818182,
                "pitch": 50,
                "velocity": 40,
                "duration": 0.375,
                "tempo": 120.0
            }
        ],
        "Vibraphone": [
            {
                "start_time": 3.2045454545454546,
                "end_time": 3.4886363636363633,
                "pitch": 80,
                "velocity": 32,
                "duration": 0.2840909090909087,
                "tempo": 120.0
            },
            {
                "start_time": 3.5045454545454544,
                "end_time": 3.9977272727272726,
                "pitch": 79,
                "velocity": 32,
                "duration": 0.49318181818181817,
                "tempo": 120.0
            },
            {
                "start_time": 4.015909090909091,
                "end_time": 4.3,
                "pitch": 80,
                "velocity": 32,
                "duration": 0.28409090909090917,
                "tempo": 120.0
            },
            {
                "start_time": 4.3159090909090905,
                "end_time": 4.802272727272727,
                "pitch": 79,
                "velocity": 32,
                "duration": 0.48636363636363633,
                "tempo": 120.0
            },
            {
                "start_time": 4.818181818181818,
                "end_time": 5.1045454545454545,
                "pitch": 79,
                "velocity": 32,
                "duration": 0.28636363636363615,
                "tempo": 120.0
            },
            {
                "start_time": 5.120454545454545,
                "end_time": 5.404545454545454,
                "pitch": 77,
                "velocity": 32,
                "duration": 0.28409090909090917,
                "tempo": 120.0
            },
            {
                "start_time": 5.420454545454545,
                "end_time": 5.6045454545454545,
                "pitch": 79,
                "velocity": 32,
                "duration": 0.18409090909090953,
                "tempo": 120.0
            },
            {
                "start_time": 5.620454545454545,
                "end_time": 6.406818181818181,
                "pitch": 77,
                "velocity": 32,
                "duration": 0.7863636363636362,
                "tempo": 120.0
            },
            {
                "start_time": 6.422727272727273,
                "end_time": 6.709090909090909,
                "pitch": 79,
                "velocity": 32,
                "duration": 0.28636363636363615,
                "tempo": 120.0
            },
            {
                "start_time": 6.725,
                "end_time": 7.211363636363636,
                "pitch": 77,
                "velocity": 32,
                "duration": 0.48636363636363633,
                "tempo": 120.0
            },
            {
                "start_time": 7.2295454545454545,
                "end_time": 7.513636363636364,
                "pitch": 79,
                "velocity": 32,
                "duration": 0.28409090909090917,
                "tempo": 120.0
            },
            {
                "start_time": 7.529545454545454,
                "end_time": 8.01590909090909,
                "pitch": 77,
                "velocity": 32,
                "duration": 0.48636363636363633,
                "tempo": 120.0
            },
            {
                "start_time": 8.031818181818181,
                "end_time": 8.315909090909091,
                "pitch": 80,
                "velocity": 32,
                "duration": 0.28409090909091006,
                "tempo": 120.0
            },
            {
                "start_time": 8.331818181818182,
                "end_time": 8.611363636363636,
                "pitch": 79,
                "velocity": 32,
                "duration": 0.2795454545454543,
                "tempo": 120.0
            },
            {
                "start_time": 8.627272727272727,
                "end_time": 8.806818181818182,
                "pitch": 77,
                "velocity": 32,
                "duration": 0.17954545454545467,
                "tempo": 120.0
            },
            {
                "start_time": 8.825,
                "end_time": 9.218181818181817,
                "pitch": 75,
                "velocity": 32,
                "duration": 0.39318181818181763,
                "tempo": 120.0
            },
            {
                "start_time": 9.23409090909091,
                "end_time": 9.69090909090909,
                "pitch": 80,
                "velocity": 32,
                "duration": 0.45681818181818024,
                "tempo": 120.0
            }
        ],
        "Trumpet": [
            {
                "start_time": 9.711363636363636,
                "end_time": 11.038636363636362,
                "pitch": 65,
                "velocity": 32,
                "duration": 1.3272727272727263,
                "tempo": 120.0
            },
            {
                "start_time": 11.054545454545455,
                "end_time": 11.438636363636363,
                "pitch": 68,
                "velocity": 32,
                "duration": 0.38409090909090793,
                "tempo": 120.0
            },
            {
                "start_time": 11.456818181818182,
                "end_time": 13.059090909090909,
                "pitch": 72,
                "velocity": 32,
                "duration": 1.6022727272727266,
                "tempo": 120.0
            },
            {
                "start_time": 13.075,
                "end_time": 14.259090909090908,
                "pitch": 70,
                "velocity": 32,
                "duration": 1.1840909090909086,
                "tempo": 120.0
            },
            {
                "start_time": 14.277272727272727,
                "end_time": 14.668181818181818,
                "pitch": 67,
                "velocity": 32,
                "duration": 0.39090909090909065,
                "tempo": 120.0
            },
            {
                "start_time": 14.684090909090909,
                "end_time": 16.272727272727273,
                "pitch": 74,
                "velocity": 32,
                "duration": 1.5886363636363647,
                "tempo": 120.0
            },
            {
                "start_time": 16.288636363636364,
                "end_time": 16.563636363636363,
                "pitch": 75,
                "velocity": 32,
                "duration": 0.2749999999999986,
                "tempo": 120.0
            },
            {
                "start_time": 16.581818181818182,
                "end_time": 16.86590909090909,
                "pitch": 72,
                "velocity": 32,
                "duration": 0.2840909090909065,
                "tempo": 120.0
            },
            {
                "start_time": 16.884090909090908,
                "end_time": 17.06590909090909,
                "pitch": 65,
                "velocity": 32,
                "duration": 0.18181818181818343,
                "tempo": 120.0
            },
            {
                "start_time": 17.084090909090907,
                "end_time": 17.368181818181817,
                "pitch": 77,
                "velocity": 32,
                "duration": 0.28409090909091006,
                "tempo": 120.0
            },
            {
                "start_time": 17.384090909090908,
                "end_time": 17.668181818181818,
                "pitch": 74,
                "velocity": 32,
                "duration": 0.28409090909091006,
                "tempo": 120.0
            },
            {
                "start_time": 17.686363636363634,
                "end_time": 17.870454545454546,
                "pitch": 67,
                "velocity": 32,
                "duration": 0.1840909090909122,
                "tempo": 120.0
            },
            {
                "start_time": 17.886363636363637,
                "end_time": 18.170454545454543,
                "pitch": 79,
                "velocity": 32,
                "duration": 0.2840909090909065,
                "tempo": 120.0
            },
            {
                "start_time": 18.186363636363634,
                "end_time": 18.470454545454544,
                "pitch": 75,
                "velocity": 32,
                "duration": 0.28409090909091006,
                "tempo": 120.0
            },
            {
                "start_time": 18.486363636363635,
                "end_time": 18.675,
                "pitch": 68,
                "velocity": 32,
                "duration": 0.18863636363636616,
                "tempo": 120.0
            },
            {
                "start_time": 18.69090909090909,
                "end_time": 18.977272727272727,
                "pitch": 80,
                "velocity": 32,
                "duration": 0.28636363636363527,
                "tempo": 120.0
            },
            {
                "start_time": 18.995454545454546,
                "end_time": 19.46818181818182,
                "pitch": 79,
                "velocity": 32,
                "duration": 0.47272727272727266,
                "tempo": 120.0
            }
        ]
    }
}