{
    "track_id": "Penguin Land (FM) - 04 - Main Theme",
    "mood": "happy",
    "instruments": {
        "Synth Bass 1": [
            {
                "start_time": 25.693181818181817,
                "end_time": 25.875,
                "pitch": 87,
                "velocity": 51,
                "duration": 0.18181818181818343,
                "tempo": 120.0
            },
            {
                "start_time": 25.893181818181816,
                "end_time": 26.286363636363635,
                "pitch": 87,
                "velocity": 51,
                "duration": 0.3931818181818194,
                "tempo": 120.0
            },
            {
                "start_time": 26.302272727272726,
                "end_time": 26.48181818181818,
                "pitch": 88,
                "velocity": 51,
                "duration": 0.17954545454545467,
                "tempo": 120.0
            },
            {
                "start_time": 26.5,
                "end_time": 26.879545454545454,
                "pitch": 88,
                "velocity": 51,
                "duration": 0.37954545454545396,
                "tempo": 120.0
            },
            {
                "start_time": 26.89772727272727,
                "end_time": 27.081818181818182,
                "pitch": 87,
                "velocity": 51,
                "duration": 0.1840909090909122,
                "tempo": 120.0
            },
            {
                "start_time": 27.097727272727273,
                "end_time": 27.48181818181818,
                "pitch": 87,
                "velocity": 51,
                "duration": 0.38409090909090793,
                "tempo": 120.0
            },
            {
                "start_time": 27.49772727272727,
                "end_time": 27.68181818181818,
                "pitch": 86,
                "velocity": 51,
                "duration": 0.18409090909090864,
                "tempo": 120.0
            },
            {
                "start_time": 27.69772727272727,
                "end_time": 28.886363636363637,
                "pitch": 86,
                "velocity": 51,
                "duration": 1.1886363636363662,
                "tempo": 120.0
            },
            {
                "start_time": 28.902272727272727,
                "end_time": 29.086363636363636,
                "pitch": 87,
                "velocity": 51,
                "duration": 0.18409090909090864,
                "tempo": 120.0
            },
            {
                "start_time": 29.102272727272727,
                "end_time": 29.486363636363635,
                "pitch": 87,
                "velocity": 51,
                "duration": 0.38409090909090793,
                "tempo": 120.0
            },
            {
                "start_time": 29.502272727272725,
                "end_time": 29.686363636363634,
                "pitch": 88,
                "velocity": 51,
                "duration": 0.18409090909090864,
                "tempo": 120.0
            },
            {
                "start_time": 29.702272727272724,
                "end_time": 30.08863636363636,
                "pitch": 88,
                "velocity": 51,
                "duration": 0.3863636363636367,
                "tempo": 120.0
            },
            {
                "start_time": 30.104545454545452,
                "end_time": 30.28863636363636,
                "pitch": 87,
                "velocity": 51,
                "duration": 0.18409090909090864,
                "tempo": 120.0
            },
            {
                "start_time": 30.30681818181818,
                "end_time": 30.688636363636363,
                "pitch": 87,
                "velocity": 51,
                "duration": 0.3818181818181827,
                "tempo": 120.0
            },
            {
                "start_time": 30.706818181818182,
                "end_time": 30.89090909090909,
                "pitch": 86,
                "velocity": 51,
                "duration": 0.18409090909090864,
                "tempo": 120.0
            },
            {
                "start_time": 30.90681818181818,
                "end_time": 32.09318181818182,
                "pitch": 86,
                "velocity": 51,
                "duration": 1.1863636363636374,
                "tempo": 120.0
            },
            {
                "start_time": 32.50681818181818,
                "end_time": 32.52272727272727,
                "pitch": 90,
                "velocity": 51,
                "duration": 0.01590909090909065,
                "tempo": 120.0
            },
            {
                "start_time": 32.54090909090909,
                "end_time": 32.888636363636365,
                "pitch": 91,
                "velocity": 51,
                "duration": 0.3477272727272762,
                "tempo": 120.0
            }
        ],
        "Clarinet": [
            {
                "start_time": 0.020454545454545454,
                "end_time": 0.18636363636363634,
                "pitch": 84,
                "velocity": 32,
                "duration": 0.1659090909090909,
                "tempo": 120.0
            },
            {
                "start_time": 0.20454545454545453,
                "end_time": 0.38636363636363635,
                "pitch": 79,
                "velocity": 32,
                "duration": 0.18181818181818182,
                "tempo": 120.0
            },
            {
                "start_time": 0.40454545454545454,
                "end_time": 0.5863636363636363,
                "pitch": 76,
                "velocity": 32,
                "duration": 0.18181818181818177,
                "tempo": 120.0
            },
            {
                "start_time": 0.6045454545454545,
                "end_time": 0.7863636363636364,
                "pitch": 79,
                "velocity": 32,
                "duration": 0.18181818181818188,
                "tempo": 120.0
            },
            {
                "start_time": 0.8045454545454545,
                "end_time": 0.9863636363636363,
                "pitch": 76,
                "velocity": 32,
                "duration": 0.18181818181818188,
                "tempo": 120.0
            },
            {
                "start_time": 1.0045454545454544,
                "end_time": 1.1863636363636363,
                "pitch": 72,
                "velocity": 32,
                "duration": 0.18181818181818188,
                "tempo": 120.0
            },
            {
                "start_time": 1.2045454545454546,
                "end_time": 1.3863636363636362,
                "pitch": 76,
                "velocity": 32,
                "duration": 0.18181818181818166,
                "tempo": 120.0
            },
            {
                "start_time": 1.4045454545454545,
                "end_time": 1.5863636363636362,
                "pitch": 72,
                "velocity": 32,
                "duration": 0.18181818181818166,
                "tempo": 120.0
            },
            {
                "start_time": 1.6045454545454545,
                "end_time": 1.7863636363636364,
                "pitch": 67,
                "velocity": 32,
                "duration": 0.18181818181818188,
                "tempo": 120.0
            },
            {
                "start_time": 1.8045454545454545,
                "end_time": 1.9886363636363635,
                "pitch": 72,
                "velocity": 32,
                "duration": 0.18409090909090908,
                "tempo": 120.0
            },
            {
                "start_time": 2.0045454545454544,
                "end_time": 2.1886363636363635,
                "pitch": 67,
                "velocity": 32,
                "duration": 0.18409090909090908,
                "tempo": 120.0
            },
            {
                "start_time": 2.2068181818181816,
                "end_time": 2.3909090909090907,
                "pitch": 64,
                "velocity": 32,
                "duration": 0.18409090909090908,
                "tempo": 120.0
            },
            {
                "start_time": 2.4068181818181817,
                "end_time": 2.5931818181818183,
                "pitch": 67,
                "velocity": 32,
                "duration": 0.1863636363636365,
                "tempo": 120.0
            },
            {
                "start_time": 2.609090909090909,
                "end_time": 2.793181818181818,
                "pitch": 64,
                "velocity": 32,
                "duration": 0.18409090909090908,
                "tempo": 120.0
            },
            {
                "start_time": 2.809090909090909,
                "end_time": 2.993181818181818,
                "pitch": 60,
                "velocity": 32,
                "duration": 0.18409090909090908,
                "tempo": 120.0
            },
            {
                "start_time": 3.009090909090909,
                "end_time": 3.193181818181818,
                "pitch": 64,
                "velocity": 32,
                "duration": 0.18409090909090908,
                "tempo": 120.0
            },
            {
                "start_time": 3.209090909090909,
                "end_time": 3.393181818181818,
                "pitch": 60,
                "velocity": 32,
                "duration": 0.18409090909090908,
                "tempo": 120.0
            },
            {
                "start_time": 3.4090909090909087,
                "end_time": 3.593181818181818,
                "pitch": 64,
                "velocity": 32,
                "duration": 0.18409090909090908,
                "tempo": 120.0
            },
            {
                "start_time": 3.609090909090909,
                "end_time": 3.793181818181818,
                "pitch": 67,
                "velocity": 32,
                "duration": 0.18409090909090908,
                "tempo": 120.0
            },
            {
                "start_time": 3.809090909090909,
                "end_time": 3.993181818181818,
                "pitch": 64,
                "velocity": 32,
                "duration": 0.18409090909090908,
                "tempo": 120.0
            },
            {
                "start_time": 4.009090909090909,
                "end_time": 4.193181818181818,
                "pitch": 67,
                "velocity": 32,
                "duration": 0.18409090909090953,
                "tempo": 120.0
            },
            {
                "start_time": 4.209090909090909,
                "end_time": 4.393181818181818,
                "pitch": 72,
                "velocity": 32,
                "duration": 0.18409090909090864,
                "tempo": 120.0
            },
            {
                "start_time": 4.411363636363636,
                "end_time": 4.595454545454545,
                "pitch": 67,
                "velocity": 32,
                "duration": 0.18409090909090864,
                "tempo": 120.0
            },
            {
                "start_time": 4.611363636363636,
                "end_time": 4.795454545454545,
                "pitch": 72,
                "velocity": 32,
                "duration": 0.18409090909090864,
                "tempo": 120.0
            },
            {
                "start_time": 4.8113636363636365,
                "end_time": 4.995454545454545,
                "pitch": 76,
                "velocity": 32,
                "duration": 0.18409090909090864,
                "tempo": 120.0
            },
            {
                "start_time": 5.011363636363636,
                "end_time": 5.195454545454545,
                "pitch": 72,
                "velocity": 32,
                "duration": 0.18409090909090953,
                "tempo": 120.0
            },
            {
                "start_time": 5.213636363636363,
                "end_time": 5.3977272727272725,
                "pitch": 76,
                "velocity": 32,
                "duration": 0.18409090909090953,
                "tempo": 120.0
            },
            {
                "start_time": 5.413636363636363,
                "end_time": 5.6,
                "pitch": 79,
                "velocity": 32,
                "duration": 0.1863636363636365,
                "tempo": 120.0
            },
            {
                "start_time": 5.61590909090909,
                "end_time": 5.8,
                "pitch": 76,
                "velocity": 32,
                "duration": 0.18409090909090953,
                "tempo": 120.0
            },
            {
                "start_time": 5.818181818181818,
                "end_time": 6.0,
                "pitch": 79,
                "velocity": 32,
                "duration": 0.18181818181818166,
                "tempo": 120.0
            },
            {
                "start_time": 6.018181818181818,
                "end_time": 6.199999999999999,
                "pitch": 84,
                "velocity": 32,
                "duration": 0.18181818181818166,
                "tempo": 120.0
            },
            {
                "start_time": 6.218181818181818,
                "end_time": 6.402272727272727,
                "pitch": 79,
                "velocity": 32,
                "duration": 0.18409090909090953,
                "tempo": 120.0
            },
            {
                "start_time": 6.418181818181818,
                "end_time": 6.602272727272727,
                "pitch": 83,
                "velocity": 32,
                "duration": 0.18409090909090864,
                "tempo": 120.0
            },
            {
                "start_time": 6.620454545454545,
                "end_time": 6.802272727272727,
                "pitch": 79,
                "velocity": 32,
                "duration": 0.18181818181818166,
                "tempo": 120.0
            },
            {
                "start_time": 6.820454545454545,
                "end_time": 7.002272727272727,
                "pitch": 77,
                "velocity": 32,
                "duration": 0.18181818181818166,
                "tempo": 120.0
            },
            {
                "start_time": 7.0204545454545455,
                "end_time": 7.204545454545454,
                "pitch": 79,
                "velocity": 32,
                "duration": 0.18409090909090864,
                "tempo": 120.0
            },
            {
                "start_time": 7.220454545454545,
                "end_time": 7.406818181818181,
                "pitch": 77,
                "velocity": 32,
                "duration": 0.1863636363636365,
                "tempo": 120.0
            },
            {
                "start_time": 7.422727272727272,
                "end_time": 7.6068181818181815,
                "pitch": 74,
                "velocity": 32,
                "duration": 0.18409090909090953,
                "tempo": 120.0
            },
            {
                "start_time": 7.625,
                "end_time": 7.809090909090909,
                "pitch": 77,
                "velocity": 32,
                "duration": 0.18409090909090864,
                "tempo": 120.0
            },
            {
                "start_time": 7.824999999999999,
                "end_time": 8.009090909090908,
                "pitch": 74,
                "velocity": 32,
                "duration": 0.18409090909090864,
                "tempo": 120.0
            },
            {
                "start_time": 8.025,
                "end_time": 8.209090909090909,
                "pitch": 71,
                "velocity": 32,
                "duration": 0.18409090909090864,
                "tempo": 120.0
            },
            {
                "start_time": 8.225,
                "end_time": 8.409090909090908,
                "pitch": 74,
                "velocity": 32,
                "duration": 0.18409090909090864,
                "tempo": 120.0
            },
            {
                "start_time": 8.424999999999999,
                "end_time": 8.60909090909091,
                "pitch": 71,
                "velocity": 32,
                "duration": 0.18409090909091042,
                "tempo": 120.0
            },
            {
                "start_time": 8.625,
                "end_time": 8.809090909090909,
                "pitch": 67,
                "velocity": 32,
                "duration": 0.18409090909090864,
                "tempo": 120.0
            },
            {
                "start_time": 8.827272727272726,
                "end_time": 9.011363636363637,
                "pitch": 71,
                "velocity": 32,
                "duration": 0.18409090909091042,
                "tempo": 120.0
            },
            {
                "start_time": 9.027272727272727,
                "end_time": 9.213636363636363,
                "pitch": 67,
                "velocity": 32,
                "duration": 0.18636363636363562,
                "tempo": 120.0
            },
            {
                "start_time": 9.229545454545454,
                "end_time": 9.413636363636364,
                "pitch": 65,
                "velocity": 32,
                "duration": 0.18409090909091042,
                "tempo": 120.0
            },
            {
                "start_time": 9.431818181818182,
                "end_time": 9.61590909090909,
                "pitch": 67,
                "velocity": 32,
                "duration": 0.18409090909090864,
                "tempo": 120.0
            },
            {
                "start_time": 9.631818181818181,
                "end_time": 9.81590909090909,
                "pitch": 62,
                "velocity": 32,
                "duration": 0.18409090909090864,
                "tempo": 120.0
            },
            {
                "start_time": 9.834090909090909,
                "end_time": 10.018181818181818,
                "pitch": 65,
                "velocity": 32,
                "duration": 0.18409090909090864,
                "tempo": 120.0
            },
            {
                "start_time": 10.034090909090908,
                "end_time": 10.218181818181817,
                "pitch": 67,
                "velocity": 32,
                "duration": 0.18409090909090864,
                "tempo": 120.0
            },
            {
                "start_time": 10.236363636363636,
                "end_time": 10.420454545454545,
                "pitch": 65,
                "velocity": 32,
                "duration": 0.18409090909090864,
                "tempo": 120.0
            },
            {
                "start_time": 10.436363636363636,
                "end_time": 10.620454545454544,
                "pitch": 67,
                "velocity": 32,
                "duration": 0.18409090909090864,
                "tempo": 120.0
            },
            {
                "start_time": 10.636363636363637,
                "end_time": 10.820454545454545,
                "pitch": 71,
                "velocity": 32,
                "duration": 0.18409090909090864,
                "tempo": 120.0
            },
            {
                "start_time": 10.836363636363636,
                "end_time": 11.022727272727272,
                "pitch": 67,
                "velocity": 32,
                "duration": 0.18636363636363562,
                "tempo": 120.0
            },
            {
                "start_time": 11.038636363636362,
                "end_time": 11.222727272727273,
                "pitch": 71,
                "velocity": 32,
                "duration": 0.18409090909091042,
                "tempo": 120.0
            },
            {
                "start_time": 11.24090909090909,
                "end_time": 11.424999999999999,
                "pitch": 74,
                "velocity": 32,
                "duration": 0.18409090909090864,
                "tempo": 120.0
            },
            {
                "start_time": 11.44090909090909,
                "end_time": 11.625,
                "pitch": 71,
                "velocity": 32,
                "duration": 0.18409090909091042,
                "tempo": 120.0
            },
            {
                "start_time": 11.643181818181818,
                "end_time": 11.827272727272726,
                "pitch": 74,
                "velocity": 32,
                "duration": 0.18409090909090864,
                "tempo": 120.0
            },
            {
                "start_time": 11.843181818181817,
                "end_time": 12.029545454545454,
                "pitch": 77,
                "velocity": 32,
                "duration": 0.1863636363636374,
                "tempo": 120.0
            },
            {
                "start_time": 12.045454545454545,
                "end_time": 12.229545454545454,
                "pitch": 74,
                "velocity": 32,
                "duration": 0.18409090909090864,
                "tempo": 120.0
            },
            {
                "start_time": 12.247727272727273,
                "end_time": 12.429545454545455,
                "pitch": 77,
                "velocity": 32,
                "duration": 0.18181818181818166,
                "tempo": 120.0
            },
            {
                "start_time": 12.447727272727272,
                "end_time": 12.629545454545454,
                "pitch": 79,
                "velocity": 32,
                "duration": 0.18181818181818166,
                "tempo": 120.0
            },
            {
                "start_time": 12.647727272727272,
                "end_time": 12.831818181818182,
                "pitch": 83,
                "velocity": 32,
                "duration": 0.18409090909091042,
                "tempo": 120.0
            },
            {
                "start_time": 12.847727272727273,
                "end_time": 13.031818181818181,
                "pitch": 84,
                "velocity": 32,
                "duration": 0.18409090909090864,
                "tempo": 120.0
            },
            {
                "start_time": 13.049999999999999,
                "end_time": 13.234090909090908,
                "pitch": 79,
                "velocity": 32,
                "duration": 0.18409090909090864,
                "tempo": 120.0
            },
            {
                "start_time": 13.25,
                "end_time": 13.436363636363636,
                "pitch": 76,
                "velocity": 32,
                "duration": 0.18636363636363562,
                "tempo": 120.0
            },
            {
                "start_time": 13.452272727272726,
                "end_time": 13.636363636363635,
                "pitch": 79,
                "velocity": 32,
                "duration": 0.18409090909090864,
                "tempo": 120.0
            },
            {
                "start_time": 13.654545454545454,
                "end_time": 13.838636363636363,
                "pitch": 76,
                "velocity": 32,
                "duration": 0.18409090909090864,
                "tempo": 120.0
            },
            {
                "start_time": 13.854545454545454,
                "end_time": 14.038636363636362,
                "pitch": 72,
                "velocity": 32,
                "duration": 0.18409090909090864,
                "tempo": 120.0
            },
            {
                "start_time": 14.056818181818182,
                "end_time": 14.24090909090909,
                "pitch": 76,
                "velocity": 32,
                "duration": 0.18409090909090864,
                "tempo": 120.0
            },
            {
                "start_time": 14.256818181818181,
                "end_time": 14.44090909090909,
                "pitch": 72,
                "velocity": 32,
                "duration": 0.18409090909090864,
                "tempo": 120.0
            },
            {
                "start_time": 14.45681818181818,
                "end_time": 14.64090909090909,
                "pitch": 67,
                "velocity": 32,
                "duration": 0.18409090909091042,
                "tempo": 120.0
            },
            {
                "start_time": 14.656818181818181,
                "end_time": 14.843181818181817,
                "pitch": 72,
                "velocity": 32,
                "duration": 0.18636363636363562,
                "tempo": 120.0
            },
            {
                "start_time": 14.859090909090908,
                "end_time": 15.043181818181818,
                "pitch": 67,
                "velocity": 32,
                "duration": 0.18409090909091042,
                "tempo": 120.0
            },
            {
                "start_time": 15.061363636363636,
                "end_time": 15.245454545454544,
                "pitch": 64,
                "velocity": 32,
                "duration": 0.18409090909090864,
                "tempo": 120.0
            },
            {
                "start_time": 15.261363636363635,
                "end_time": 15.445454545454545,
                "pitch": 67,
                "velocity": 32,
                "duration": 0.18409090909091042,
                "tempo": 120.0
            },
            {
                "start_time": 15.463636363636363,
                "end_time": 15.647727272727272,
                "pitch": 64,
                "velocity": 32,
                "duration": 0.18409090909090864,
                "tempo": 120.0
            },
            {
                "start_time": 15.663636363636362,
                "end_time": 15.847727272727273,
                "pitch": 60,
                "velocity": 32,
                "duration": 0.18409090909091042,
                "tempo": 120.0
            },
            {
                "start_time": 15.86590909090909,
                "end_time": 16.05,
                "pitch": 64,
                "velocity": 32,
                "duration": 0.18409090909091042,
                "tempo": 120.0
            },
            {
                "start_time": 16.06590909090909,
                "end_time": 16.252272727272725,
                "pitch": 60,
                "velocity": 32,
                "duration": 0.18636363636363384,
                "tempo": 120.0
            },
            {
                "start_time": 16.268181818181816,
                "end_time": 16.452272727272728,
                "pitch": 64,
                "velocity": 32,
                "duration": 0.1840909090909122,
                "tempo": 120.0
            },
            {
                "start_time": 16.46818181818182,
                "end_time": 16.652272727272727,
                "pitch": 67,
                "velocity": 32,
                "duration": 0.18409090909090864,
                "tempo": 120.0
            },
            {
                "start_time": 16.668181818181818,
                "end_time": 16.852272727272727,
                "pitch": 64,
                "velocity": 32,
                "duration": 0.18409090909090864,
                "tempo": 120.0
            },
            {
                "start_time": 16.870454545454546,
                "end_time": 17.054545454545455,
                "pitch": 67,
                "velocity": 32,
                "duration": 0.18409090909090864,
                "tempo": 120.0
            },
            {
                "start_time": 17.070454545454545,
                "end_time": 17.254545454545454,
                "pitch": 72,
                "velocity": 32,
                "duration": 0.18409090909090864,
                "tempo": 120.0
            },
            {
                "start_time": 17.270454545454545,
                "end_time": 17.454545454545453,
                "pitch": 67,
                "velocity": 32,
                "duration": 0.18409090909090864,
                "tempo": 120.0
            },
            {
                "start_time": 17.470454545454544,
                "end_time": 17.654545454545453,
                "pitch": 72,
                "velocity": 32,
                "duration": 0.18409090909090864,
                "tempo": 120.0
            },
            {
                "start_time": 17.670454545454543,
                "end_time": 17.854545454545455,
                "pitch": 76,
                "velocity": 32,
                "duration": 0.1840909090909122,
                "tempo": 120.0
            },
            {
                "start_time": 17.870454545454546,
                "end_time": 18.054545454545455,
                "pitch": 72,
                "velocity": 32,
                "duration": 0.18409090909090864,
                "tempo": 120.0
            },
            {
                "start_time": 18.07272727272727,
                "end_time": 18.25681818181818,
                "pitch": 76,
                "velocity": 32,
                "duration": 0.18409090909090864,
                "tempo": 120.0
            },
            {
                "start_time": 18.272727272727273,
                "end_time": 18.456818181818182,
                "pitch": 79,
                "velocity": 32,
                "duration": 0.18409090909090864,
                "tempo": 120.0
            },
            {
                "start_time": 18.472727272727273,
                "end_time": 18.65681818181818,
                "pitch": 76,
                "velocity": 32,
                "duration": 0.18409090909090864,
                "tempo": 120.0
            },
            {
                "start_time": 18.672727272727272,
                "end_time": 18.85909090909091,
                "pitch": 79,
                "velocity": 32,
                "duration": 0.1863636363636374,
                "tempo": 120.0
            },
            {
                "start_time": 18.875,
                "end_time": 19.05909090909091,
                "pitch": 84,
                "velocity": 32,
                "duration": 0.18409090909090864,
                "tempo": 120.0
            },
            {
                "start_time": 19.077272727272728,
                "end_time": 19.259090909090908,
                "pitch": 79,
                "velocity": 32,
                "duration": 0.18181818181817988,
                "tempo": 120.0
            },
            {
                "start_time": 19.277272727272727,
                "end_time": 19.459090909090907,
                "pitch": 83,
                "velocity": 32,
                "duration": 0.18181818181817988,
                "tempo": 120.0
            },
            {
                "start_time": 19.477272727272727,
                "end_time": 19.659090909090907,
                "pitch": 79,
                "velocity": 32,
                "duration": 0.18181818181817988,
                "tempo": 120.0
            },
            {
                "start_time": 19.677272727272726,
                "end_time": 19.85909090909091,
                "pitch": 77,
                "velocity": 32,
                "duration": 0.18181818181818343,
                "tempo": 120.0
            },
            {
                "start_time": 19.877272727272725,
                "end_time": 20.061363636363634,
                "pitch": 79,
                "velocity": 32,
                "duration": 0.18409090909090864,
                "tempo": 120.0
            },
            {
                "start_time": 20.077272727272728,
                "end_time": 20.261363636363637,
                "pitch": 77,
                "velocity": 32,
                "duration": 0.18409090909090864,
                "tempo": 120.0
            },
            {
                "start_time": 20.279545454545453,
                "end_time": 20.461363636363636,
                "pitch": 74,
                "velocity": 32,
                "duration": 0.18181818181818343,
                "tempo": 120.0
            },
            {
                "start_time": 20.479545454545452,
                "end_time": 20.661363636363635,
                "pitch": 77,
                "velocity": 32,
                "duration": 0.18181818181818343,
                "tempo": 120.0
            },
            {
                "start_time": 20.679545454545455,
                "end_time": 20.863636363636363,
                "pitch": 74,
                "velocity": 32,
                "duration": 0.18409090909090864,
                "tempo": 120.0
            },
            {
                "start_time": 20.879545454545454,
                "end_time": 21.06590909090909,
                "pitch": 71,
                "velocity": 32,
                "duration": 0.1863636363636374,
                "tempo": 120.0
            },
            {
                "start_time": 21.081818181818182,
                "end_time": 21.26590909090909,
                "pitch": 74,
                "velocity": 32,
                "duration": 0.18409090909090864,
                "tempo": 120.0
            },
            {
                "start_time": 21.28181818181818,
                "end_time": 21.46590909090909,
                "pitch": 71,
                "velocity": 32,
                "duration": 0.18409090909090864,
                "tempo": 120.0
            },
            {
                "start_time": 21.48181818181818,
                "end_time": 21.66590909090909,
                "pitch": 67,
                "velocity": 32,
                "duration": 0.18409090909090864,
                "tempo": 120.0
            },
            {
                "start_time": 21.68181818181818,
                "end_time": 21.86590909090909,
                "pitch": 71,
                "velocity": 32,
                "duration": 0.18409090909090864,
                "tempo": 120.0
            },
            {
                "start_time": 21.88181818181818,
                "end_time": 22.06590909090909,
                "pitch": 67,
                "velocity": 32,
                "duration": 0.1840909090909122,
                "tempo": 120.0
            },
            {
                "start_time": 22.084090909090907,
                "end_time": 22.268181818181816,
                "pitch": 65,
                "velocity": 32,
                "duration": 0.18409090909090864,
                "tempo": 120.0
            },
            {
                "start_time": 22.284090909090907,
                "end_time": 22.46818181818182,
                "pitch": 67,
                "velocity": 32,
                "duration": 0.1840909090909122,
                "tempo": 120.0
            },
            {
                "start_time": 22.48409090909091,
                "end_time": 22.668181818181818,
                "pitch": 62,
                "velocity": 32,
                "duration": 0.18409090909090864,
                "tempo": 120.0
            },
            {
                "start_time": 22.68409090909091,
                "end_time": 22.868181818181817,
                "pitch": 65,
                "velocity": 32,
                "duration": 0.18409090909090864,
                "tempo": 120.0
            },
            {
                "start_time": 22.886363636363637,
                "end_time": 23.070454545454545,
                "pitch": 67,
                "velocity": 32,
                "duration": 0.18409090909090864,
                "tempo": 120.0
            },
            {
                "start_time": 23.086363636363636,
                "end_time": 23.270454545454545,
                "pitch": 65,
                "velocity": 32,
                "duration": 0.18409090909090864,
                "tempo": 120.0
            },
            {
                "start_time": 23.286363636363635,
                "end_time": 23.470454545454544,
                "pitch": 67,
                "velocity": 32,
                "duration": 0.18409090909090864,
                "tempo": 120.0
            },
            {
                "start_time": 23.486363636363635,
                "end_time": 23.670454545454543,
                "pitch": 71,
                "velocity": 32,
                "duration": 0.18409090909090864,
                "tempo": 120.0
            },
            {
                "start_time": 23.686363636363634,
                "end_time": 23.870454545454546,
                "pitch": 67,
                "velocity": 32,
                "duration": 0.1840909090909122,
                "tempo": 120.0
            },
            {
                "start_time": 23.886363636363637,
                "end_time": 24.07272727272727,
                "pitch": 71,
                "velocity": 32,
                "duration": 0.18636363636363384,
                "tempo": 120.0
            },
            {
                "start_time": 24.08863636363636,
                "end_time": 24.27272727272727,
                "pitch": 74,
                "velocity": 32,
                "duration": 0.18409090909090864,
                "tempo": 120.0
            },
            {
                "start_time": 24.288636363636364,
                "end_time": 24.472727272727273,
                "pitch": 71,
                "velocity": 32,
                "duration": 0.18409090909090864,
                "tempo": 120.0
            },
            {
                "start_time": 24.488636363636363,
                "end_time": 24.672727272727272,
                "pitch": 74,
                "velocity": 32,
                "duration": 0.18409090909090864,
                "tempo": 120.0
            },
            {
                "start_time": 24.69090909090909,
                "end_time": 24.875,
                "pitch": 77,
                "velocity": 32,
                "duration": 0.18409090909090864,
                "tempo": 120.0
            },
            {
                "start_time": 24.89090909090909,
                "end_time": 25.075,
                "pitch": 74,
                "velocity": 32,
                "duration": 0.18409090909090864,
                "tempo": 120.0
            },
            {
                "start_time": 25.09318181818182,
                "end_time": 25.275,
                "pitch": 77,
                "velocity": 32,
                "duration": 0.18181818181817988,
                "tempo": 120.0
            },
            {
                "start_time": 25.293181818181818,
                "end_time": 25.474999999999998,
                "pitch": 79,
                "velocity": 32,
                "duration": 0.18181818181817988,
                "tempo": 120.0
            },
            {
                "start_time": 25.493181818181817,
                "end_time": 25.674999999999997,
                "pitch": 83,
                "velocity": 32,
                "duration": 0.18181818181817988,
                "tempo": 120.0
            },
            {
                "start_time": 25.693181818181817,
                "end_time": 25.875,
                "pitch": 72,
                "velocity": 32,
                "duration": 0.18181818181818343,
                "tempo": 120.0
            },
            {
                "start_time": 25.893181818181816,
                "end_time": 26.286363636363635,
                "pitch": 72,
                "velocity": 32,
                "duration": 0.3931818181818194,
                "tempo": 120.0
            },
            {
                "start_time": 26.302272727272726,
                "end_time": 26.48181818181818,
                "pitch": 73,
                "velocity": 32,
                "duration": 0.17954545454545467,
                "tempo": 120.0
            },
            {
                "start_time": 26.5,
                "end_time": 26.879545454545454,
                "pitch": 73,
                "velocity": 32,
                "duration": 0.37954545454545396,
                "tempo": 120.0
            },
            {
                "start_time": 26.89772727272727,
                "end_time": 27.081818181818182,
                "pitch": 72,
                "velocity": 32,
                "duration": 0.1840909090909122,
                "tempo": 120.0
            },
            {
                "start_time": 27.097727272727273,
                "end_time": 27.48181818181818,
                "pitch": 72,
                "velocity": 32,
                "duration": 0.38409090909090793,
                "tempo": 120.0
            },
            {
                "start_time": 27.49772727272727,
                "end_time": 27.68181818181818,
                "pitch": 71,
                "velocity": 32,
                "duration": 0.18409090909090864,
                "tempo": 120.0
            },
            {
                "start_time": 27.69772727272727,
                "end_time": 28.284090909090907,
                "pitch": 71,
                "velocity": 32,
                "duration": 0.586363636363636,
                "tempo": 120.0
            },
            {
                "start_time": 28.299999999999997,
                "end_time": 28.48409090909091,
                "pitch": 71,
                "velocity": 32,
                "duration": 0.1840909090909122,
                "tempo": 120.0
            },
            {
                "start_time": 28.5,
                "end_time": 28.68409090909091,
                "pitch": 72,
                "velocity": 32,
                "duration": 0.18409090909090864,
                "tempo": 120.0
            },
            {
                "start_time": 28.7,
                "end_time": 28.886363636363637,
                "pitch": 71,
                "velocity": 32,
                "duration": 0.1863636363636374,
                "tempo": 120.0
            },
            {
                "start_time": 28.902272727272727,
                "end_time": 29.086363636363636,
                "pitch": 72,
                "velocity": 32,
                "duration": 0.18409090909090864,
                "tempo": 120.0
            },
            {
                "start_time": 29.102272727272727,
                "end_time": 29.486363636363635,
                "pitch": 72,
                "velocity": 32,
                "duration": 0.38409090909090793,
                "tempo": 120.0
            },
            {
                "start_time": 29.502272727272725,
                "end_time": 29.686363636363634,
                "pitch": 73,
                "velocity": 32,
                "duration": 0.18409090909090864,
                "tempo": 120.0
            },
            {
                "start_time": 29.702272727272724,
                "end_time": 30.08863636363636,
                "pitch": 73,
                "velocity": 32,
                "duration": 0.3863636363636367,
                "tempo": 120.0
            },
            {
                "start_time": 30.104545454545452,
                "end_time": 30.28863636363636,
                "pitch": 72,
                "velocity": 32,
                "duration": 0.18409090909090864,
                "tempo": 120.0
            },
            {
                "start_time": 30.30681818181818,
                "end_time": 30.688636363636363,
                "pitch": 72,
                "velocity": 32,
                "duration": 0.3818181818181827,
                "tempo": 120.0
            },
            {
                "start_time": 30.706818181818182,
                "end_time": 30.89090909090909,
                "pitch": 71,
                "velocity": 32,
                "duration": 0.18409090909090864,
                "tempo": 120.0
            },
            {
                "start_time": 30.90681818181818,
                "end_time": 31.49090909090909,
                "pitch": 71,
                "velocity": 32,
                "duration": 0.5840909090909072,
                "tempo": 120.0
            },
            {
                "start_time": 31.509090909090908,
                "end_time": 31.690909090909088,
                "pitch": 71,
                "velocity": 32,
                "duration": 0.18181818181817988,
                "tempo": 120.0
            },
            {
                "start_time": 31.709090909090907,
                "end_time": 31.89090909090909,
                "pitch": 71,
                "velocity": 32,
                "duration": 0.18181818181818343,
                "tempo": 120.0
            },
            {
                "start_time": 31.909090909090907,
                "end_time": 32.09318181818182,
                "pitch": 71,
                "velocity": 32,
                "duration": 0.1840909090909122,
                "tempo": 120.0
            },
            {
                "start_time": 32.10909090909091,
                "end_time": 32.49090909090909,
                "pitch": 71,
                "velocity": 32,
                "duration": 0.3818181818181827,
                "tempo": 120.0
            },
            {
                "start_time": 33.70681818181818,
                "end_time": 33.83863636363636,
                "pitch": 84,
                "velocity": 32,
                "duration": 0.13181818181818272,
                "tempo": 120.0
            }
        ],
        "Acoustic Grand Piano": [
            {
                "start_time": 0.020454545454545454,
                "end_time": 0.18636363636363634,
                "pitch": 36,
                "velocity": 40,
                "duration": 0.1659090909090909,
                "tempo": 120.0
            },
            {
                "start_time": 0.20454545454545453,
                "end_time": 0.38636363636363635,
                "pitch": 43,
                "velocity": 40,
                "duration": 0.18181818181818182,
                "tempo": 120.0
            },
            {
                "start_time": 0.40454545454545454,
                "end_time": 0.5863636363636363,
                "pitch": 42,
                "velocity": 40,
                "duration": 0.18181818181818177,
                "tempo": 120.0
            },
            {
                "start_time": 0.6045454545454545,
                "end_time": 0.7863636363636364,
                "pitch": 43,
                "velocity": 40,
                "duration": 0.18181818181818188,
                "tempo": 120.0
            },
            {
                "start_time": 0.8045454545454545,
                "end_time": 0.9863636363636363,
                "pitch": 36,
                "velocity": 40,
                "duration": 0.18181818181818188,
                "tempo": 120.0
            },
            {
                "start_time": 1.0045454545454544,
                "end_time": 1.1863636363636363,
                "pitch": 43,
                "velocity": 40,
                "duration": 0.18181818181818188,
                "tempo": 120.0
            },
            {
                "start_time": 1.2045454545454546,
                "end_time": 1.3863636363636362,
                "pitch": 45,
                "velocity": 40,
                "duration": 0.18181818181818166,
                "tempo": 120.0
            },
            {
                "start_time": 1.4045454545454545,
                "end_time": 1.5863636363636362,
                "pitch": 43,
                "velocity": 40,
                "duration": 0.18181818181818166,
                "tempo": 120.0
            },
            {
                "start_time": 1.6045454545454545,
                "end_time": 1.7863636363636364,
                "pitch": 36,
                "velocity": 40,
                "duration": 0.18181818181818188,
                "tempo": 120.0
            },
            {
                "start_time": 1.8045454545454545,
                "end_time": 1.9886363636363635,
                "pitch": 43,
                "velocity": 40,
                "duration": 0.18409090909090908,
                "tempo": 120.0
            },
            {
                "start_time": 2.0045454545454544,
                "end_time": 2.1886363636363635,
                "pitch": 42,
                "velocity": 40,
                "duration": 0.18409090909090908,
                "tempo": 120.0
            },
            {
                "start_time": 2.2068181818181816,
                "end_time": 2.3909090909090907,
                "pitch": 43,
                "velocity": 40,
                "duration": 0.18409090909090908,
                "tempo": 120.0
            },
            {
                "start_time": 2.4068181818181817,
                "end_time": 2.5931818181818183,
                "pitch": 36,
                "velocity": 40,
                "duration": 0.1863636363636365,
                "tempo": 120.0
            },
            {
                "start_time": 2.609090909090909,
                "end_time": 2.793181818181818,
                "pitch": 43,
                "velocity": 40,
                "duration": 0.18409090909090908,
                "tempo": 120.0
            },
            {
                "start_time": 2.809090909090909,
                "end_time": 2.993181818181818,
                "pitch": 45,
                "velocity": 40,
                "duration": 0.18409090909090908,
                "tempo": 120.0
            },
            {
                "start_time": 3.009090909090909,
                "end_time": 3.193181818181818,
                "pitch": 43,
                "velocity": 40,
                "duration": 0.18409090909090908,
                "tempo": 120.0
            },
            {
                "start_time": 3.209090909090909,
                "end_time": 3.393181818181818,
                "pitch": 36,
                "velocity": 40,
                "duration": 0.18409090909090908,
                "tempo": 120.0
            },
            {
                "start_time": 3.4090909090909087,
                "end_time": 3.593181818181818,
                "pitch": 43,
                "velocity": 40,
                "duration": 0.18409090909090908,
                "tempo": 120.0
            },
            {
                "start_time": 3.609090909090909,
                "end_time": 3.793181818181818,
                "pitch": 42,
                "velocity": 40,
                "duration": 0.18409090909090908,
                "tempo": 120.0
            },
            {
                "start_time": 3.809090909090909,
                "end_time": 3.993181818181818,
                "pitch": 43,
                "velocity": 40,
                "duration": 0.18409090909090908,
                "tempo": 120.0
            },
            {
                "start_time": 4.009090909090909,
                "end_time": 4.193181818181818,
                "pitch": 36,
                "velocity": 40,
                "duration": 0.18409090909090953,
                "tempo": 120.0
            },
            {
                "start_time": 4.209090909090909,
                "end_time": 4.393181818181818,
                "pitch": 43,
                "velocity": 40,
                "duration": 0.18409090909090864,
                "tempo": 120.0
            },
            {
                "start_time": 4.411363636363636,
                "end_time": 4.595454545454545,
                "pitch": 45,
                "velocity": 40,
                "duration": 0.18409090909090864,
                "tempo": 120.0
            },
            {
                "start_time": 4.611363636363636,
                "end_time": 4.795454545454545,
                "pitch": 43,
                "velocity": 40,
                "duration": 0.18409090909090864,
                "tempo": 120.0
            },
            {
                "start_time": 4.8113636363636365,
                "end_time": 4.995454545454545,
                "pitch": 36,
                "velocity": 40,
                "duration": 0.18409090909090864,
                "tempo": 120.0
            },
            {
                "start_time": 5.011363636363636,
                "end_time": 5.195454545454545,
                "pitch": 43,
                "velocity": 40,
                "duration": 0.18409090909090953,
                "tempo": 120.0
            },
            {
                "start_time": 5.213636363636363,
                "end_time": 5.3977272727272725,
                "pitch": 42,
                "velocity": 40,
                "duration": 0.18409090909090953,
                "tempo": 120.0
            },
            {
                "start_time": 5.413636363636363,
                "end_time": 5.6,
                "pitch": 43,
                "velocity": 40,
                "duration": 0.1863636363636365,
                "tempo": 120.0
            },
            {
                "start_time": 5.61590909090909,
                "end_time": 5.8,
                "pitch": 36,
                "velocity": 40,
                "duration": 0.18409090909090953,
                "tempo": 120.0
            },
            {
                "start_time": 5.818181818181818,
                "end_time": 6.0,
                "pitch": 43,
                "velocity": 40,
                "duration": 0.18181818181818166,
                "tempo": 120.0
            },
            {
                "start_time": 6.018181818181818,
                "end_time": 6.199999999999999,
                "pitch": 42,
                "velocity": 40,
                "duration": 0.18181818181818166,
                "tempo": 120.0
            },
            {
                "start_time": 6.218181818181818,
                "end_time": 6.402272727272727,
                "pitch": 41,
                "velocity": 40,
                "duration": 0.18409090909090953,
                "tempo": 120.0
            },
            {
                "start_time": 6.418181818181818,
                "end_time": 6.602272727272727,
                "pitch": 31,
                "velocity": 40,
                "duration": 0.18409090909090864,
                "tempo": 120.0
            },
            {
                "start_time": 6.620454545454545,
                "end_time": 6.802272727272727,
                "pitch": 38,
                "velocity": 40,
                "duration": 0.18181818181818166,
                "tempo": 120.0
            },
            {
                "start_time": 6.820454545454545,
                "end_time": 7.002272727272727,
                "pitch": 37,
                "velocity": 40,
                "duration": 0.18181818181818166,
                "tempo": 120.0
            },
            {
                "start_time": 7.0204545454545455,
                "end_time": 7.204545454545454,
                "pitch": 38,
                "velocity": 40,
                "duration": 0.18409090909090864,
                "tempo": 120.0
            },
            {
                "start_time": 7.220454545454545,
                "end_time": 7.406818181818181,
                "pitch": 31,
                "velocity": 40,
                "duration": 0.1863636363636365,
                "tempo": 120.0
            },
            {
                "start_time": 7.422727272727272,
                "end_time": 7.6068181818181815,
                "pitch": 38,
                "velocity": 40,
                "duration": 0.18409090909090953,
                "tempo": 120.0
            },
            {
                "start_time": 7.625,
                "end_time": 7.809090909090909,
                "pitch": 40,
                "velocity": 40,
                "duration": 0.18409090909090864,
                "tempo": 120.0
            },
            {
                "start_time": 7.824999999999999,
                "end_time": 8.009090909090908,
                "pitch": 38,
                "velocity": 40,
                "duration": 0.18409090909090864,
                "tempo": 120.0
            },
            {
                "start_time": 8.025,
                "end_time": 8.209090909090909,
                "pitch": 31,
                "velocity": 40,
                "duration": 0.18409090909090864,
                "tempo": 120.0
            },
            {
                "start_time": 8.225,
                "end_time": 8.409090909090908,
                "pitch": 38,
                "velocity": 40,
                "duration": 0.18409090909090864,
                "tempo": 120.0
            },
            {
                "start_time": 8.424999999999999,
                "end_time": 8.60909090909091,
                "pitch": 37,
                "velocity": 40,
                "duration": 0.18409090909091042,
                "tempo": 120.0
            },
            {
                "start_time": 8.625,
                "end_time": 8.809090909090909,
                "pitch": 38,
                "velocity": 40,
                "duration": 0.18409090909090864,
                "tempo": 120.0
            },
            {
                "start_time": 8.827272727272726,
                "end_time": 9.011363636363637,
                "pitch": 31,
                "velocity": 40,
                "duration": 0.18409090909091042,
                "tempo": 120.0
            },
            {
                "start_time": 9.027272727272727,
                "end_time": 9.213636363636363,
                "pitch": 38,
                "velocity": 40,
                "duration": 0.18636363636363562,
                "tempo": 120.0
            },
            {
                "start_time": 9.229545454545454,
                "end_time": 9.413636363636364,
                "pitch": 40,
                "velocity": 40,
                "duration": 0.18409090909091042,
                "tempo": 120.0
            },
            {
                "start_time": 9.431818181818182,
                "end_time": 9.61590909090909,
                "pitch": 38,
                "velocity": 40,
                "duration": 0.18409090909090864,
                "tempo": 120.0
            },
            {
                "start_time": 9.631818181818181,
                "end_time": 9.81590909090909,
                "pitch": 31,
                "velocity": 40,
                "duration": 0.18409090909090864,
                "tempo": 120.0
            },
            {
                "start_time": 9.834090909090909,
                "end_time": 10.018181818181818,
                "pitch": 38,
                "velocity": 40,
                "duration": 0.18409090909090864,
                "tempo": 120.0
            },
            {
                "start_time": 10.034090909090908,
                "end_time": 10.218181818181817,
                "pitch": 37,
                "velocity": 40,
                "duration": 0.18409090909090864,
                "tempo": 120.0
            },
            {
                "start_time": 10.236363636363636,
                "end_time": 10.420454545454545,
                "pitch": 38,
                "velocity": 40,
                "duration": 0.18409090909090864,
                "tempo": 120.0
            },
            {
                "start_time": 10.436363636363636,
                "end_time": 10.620454545454544,
                "pitch": 31,
                "velocity": 40,
                "duration": 0.18409090909090864,
                "tempo": 120.0
            },
            {
                "start_time": 10.636363636363637,
                "end_time": 10.820454545454545,
                "pitch": 38,
                "velocity": 40,
                "duration": 0.18409090909090864,
                "tempo": 120.0
            },
            {
                "start_time": 10.836363636363636,
                "end_time": 11.022727272727272,
                "pitch": 40,
                "velocity": 40,
                "duration": 0.18636363636363562,
                "tempo": 120.0
            },
            {
                "start_time": 11.038636363636362,
                "end_time": 11.222727272727273,
                "pitch": 38,
                "velocity": 40,
                "duration": 0.18409090909091042,
                "tempo": 120.0
            },
            {
                "start_time": 11.24090909090909,
                "end_time": 11.424999999999999,
                "pitch": 31,
                "velocity": 40,
                "duration": 0.18409090909090864,
                "tempo": 120.0
            },
            {
                "start_time": 11.44090909090909,
                "end_time": 11.625,
                "pitch": 38,
                "velocity": 40,
                "duration": 0.18409090909091042,
                "tempo": 120.0
            },
            {
                "start_time": 11.643181818181818,
                "end_time": 11.827272727272726,
                "pitch": 37,
                "velocity": 40,
                "duration": 0.18409090909090864,
                "tempo": 120.0
            },
            {
                "start_time": 11.843181818181817,
                "end_time": 12.029545454545454,
                "pitch": 38,
                "velocity": 40,
                "duration": 0.1863636363636374,
                "tempo": 120.0
            },
            {
                "start_time": 12.045454545454545,
                "end_time": 12.229545454545454,
                "pitch": 31,
                "velocity": 40,
                "duration": 0.18409090909090864,
                "tempo": 120.0
            },
            {
                "start_time": 12.247727272727273,
                "end_time": 12.429545454545455,
                "pitch": 33,
                "velocity": 40,
                "duration": 0.18181818181818166,
                "tempo": 120.0
            },
            {
                "start_time": 12.447727272727272,
                "end_time": 12.629545454545454,
                "pitch": 34,
                "velocity": 40,
                "duration": 0.18181818181818166,
                "tempo": 120.0
            },
            {
                "start_time": 12.647727272727272,
                "end_time": 12.831818181818182,
                "pitch": 35,
                "velocity": 40,
                "duration": 0.18409090909091042,
                "tempo": 120.0
            },
            {
                "start_time": 12.847727272727273,
                "end_time": 13.031818181818181,
                "pitch": 36,
                "velocity": 40,
                "duration": 0.18409090909090864,
                "tempo": 120.0
            },
            {
                "start_time": 13.049999999999999,
                "end_time": 13.234090909090908,
                "pitch": 43,
                "velocity": 40,
                "duration": 0.18409090909090864,
                "tempo": 120.0
            },
            {
                "start_time": 13.25,
                "end_time": 13.436363636363636,
                "pitch": 42,
                "velocity": 40,
                "duration": 0.18636363636363562,
                "tempo": 120.0
            },
            {
                "start_time": 13.452272727272726,
                "end_time": 13.636363636363635,
                "pitch": 43,
                "velocity": 40,
                "duration": 0.18409090909090864,
                "tempo": 120.0
            },
            {
                "start_time": 13.654545454545454,
                "end_time": 13.838636363636363,
                "pitch": 36,
                "velocity": 40,
                "duration": 0.18409090909090864,
                "tempo": 120.0
            },
            {
                "start_time": 13.854545454545454,
                "end_time": 14.038636363636362,
                "pitch": 43,
                "velocity": 40,
                "duration": 0.18409090909090864,
                "tempo": 120.0
            },
            {
                "start_time": 14.056818181818182,
                "end_time": 14.24090909090909,
                "pitch": 45,
                "velocity": 40,
                "duration": 0.18409090909090864,
                "tempo": 120.0
            },
            {
                "start_time": 14.256818181818181,
                "end_time": 14.44090909090909,
                "pitch": 43,
                "velocity": 40,
                "duration": 0.18409090909090864,
                "tempo": 120.0
            },
            {
                "start_time": 14.45681818181818,
                "end_time": 14.64090909090909,
                "pitch": 36,
                "velocity": 40,
                "duration": 0.18409090909091042,
                "tempo": 120.0
            },
            {
                "start_time": 14.656818181818181,
                "end_time": 14.843181818181817,
                "pitch": 43,
                "velocity": 40,
                "duration": 0.18636363636363562,
                "tempo": 120.0
            },
            {
                "start_time": 14.859090909090908,
                "end_time": 15.043181818181818,
                "pitch": 42,
                "velocity": 40,
                "duration": 0.18409090909091042,
                "tempo": 120.0
            },
            {
                "start_time": 15.061363636363636,
                "end_time": 15.245454545454544,
                "pitch": 43,
                "velocity": 40,
                "duration": 0.18409090909090864,
                "tempo": 120.0
            },
            {
                "start_time": 15.261363636363635,
                "end_time": 15.445454545454545,
                "pitch": 36,
                "velocity": 40,
                "duration": 0.18409090909091042,
                "tempo": 120.0
            },
            {
                "start_time": 15.463636363636363,
                "end_time": 15.647727272727272,
                "pitch": 43,
                "velocity": 40,
                "duration": 0.18409090909090864,
                "tempo": 120.0
            },
            {
                "start_time": 15.663636363636362,
                "end_time": 15.847727272727273,
                "pitch": 45,
                "velocity": 40,
                "duration": 0.18409090909091042,
                "tempo": 120.0
            },
            {
                "start_time": 15.86590909090909,
                "end_time": 16.05,
                "pitch": 43,
                "velocity": 40,
                "duration": 0.18409090909091042,
                "tempo": 120.0
            },
            {
                "start_time": 16.06590909090909,
                "end_time": 16.252272727272725,
                "pitch": 36,
                "velocity": 40,
                "duration": 0.18636363636363384,
                "tempo": 120.0
            },
            {
                "start_time": 16.268181818181816,
                "end_time": 16.452272727272728,
                "pitch": 43,
                "velocity": 40,
                "duration": 0.1840909090909122,
                "tempo": 120.0
            },
            {
                "start_time": 16.46818181818182,
                "end_time": 16.652272727272727,
                "pitch": 42,
                "velocity": 40,
                "duration": 0.18409090909090864,
                "tempo": 120.0
            },
            {
                "start_time": 16.668181818181818,
                "end_time": 16.852272727272727,
                "pitch": 43,
                "velocity": 40,
                "duration": 0.18409090909090864,
                "tempo": 120.0
            },
            {
                "start_time": 16.870454545454546,
                "end_time": 17.054545454545455,
                "pitch": 36,
                "velocity": 40,
                "duration": 0.18409090909090864,
                "tempo": 120.0
            },
            {
                "start_time": 17.070454545454545,
                "end_time": 17.254545454545454,
                "pitch": 43,
                "velocity": 40,
                "duration": 0.18409090909090864,
                "tempo": 120.0
            },
            {
                "start_time": 17.270454545454545,
                "end_time": 17.454545454545453,
                "pitch": 45,
                "velocity": 40,
                "duration": 0.18409090909090864,
                "tempo": 120.0
            },
            {
                "start_time": 17.470454545454544,
                "end_time": 17.654545454545453,
                "pitch": 43,
                "velocity": 40,
                "duration": 0.18409090909090864,
                "tempo": 120.0
            },
            {
                "start_time": 17.670454545454543,
                "end_time": 17.854545454545455,
                "pitch": 36,
                "velocity": 40,
                "duration": 0.1840909090909122,
                "tempo": 120.0
            },
            {
                "start_time": 17.870454545454546,
                "end_time": 18.054545454545455,
                "pitch": 43,
                "velocity": 40,
                "duration": 0.18409090909090864,
                "tempo": 120.0
            },
            {
                "start_time": 18.07272727272727,
                "end_time": 18.25681818181818,
                "pitch": 42,
                "velocity": 40,
                "duration": 0.18409090909090864,
                "tempo": 120.0
            },
            {
                "start_time": 18.272727272727273,
                "end_time": 18.456818181818182,
                "pitch": 43,
                "velocity": 40,
                "duration": 0.18409090909090864,
                "tempo": 120.0
            },
            {
                "start_time": 18.472727272727273,
                "end_time": 18.65681818181818,
                "pitch": 36,
                "velocity": 40,
                "duration": 0.18409090909090864,
                "tempo": 120.0
            },
            {
                "start_time": 18.672727272727272,
                "end_time": 18.85909090909091,
                "pitch": 43,
                "velocity": 40,
                "duration": 0.1863636363636374,
                "tempo": 120.0
            },
            {
                "start_time": 18.875,
                "end_time": 19.05909090909091,
                "pitch": 42,
                "velocity": 40,
                "duration": 0.18409090909090864,
                "tempo": 120.0
            },
            {
                "start_time": 19.077272727272728,
                "end_time": 19.259090909090908,
                "pitch": 41,
                "velocity": 40,
                "duration": 0.18181818181817988,
                "tempo": 120.0
            },
            {
                "start_time": 19.277272727272727,
                "end_time": 19.459090909090907,
                "pitch": 31,
                "velocity": 40,
                "duration": 0.18181818181817988,
                "tempo": 120.0
            },
            {
                "start_time": 19.477272727272727,
                "end_time": 19.659090909090907,
                "pitch": 38,
                "velocity": 40,
                "duration": 0.18181818181817988,
                "tempo": 120.0
            },
            {
                "start_time": 19.677272727272726,
                "end_time": 19.85909090909091,
                "pitch": 37,
                "velocity": 40,
                "duration": 0.18181818181818343,
                "tempo": 120.0
            },
            {
                "start_time": 19.877272727272725,
                "end_time": 20.061363636363634,
                "pitch": 38,
                "velocity": 40,
                "duration": 0.18409090909090864,
                "tempo": 120.0
            },
            {
                "start_time": 20.077272727272728,
                "end_time": 20.261363636363637,
                "pitch": 31,
                "velocity": 40,
                "duration": 0.18409090909090864,
                "tempo": 120.0
            },
            {
                "start_time": 20.279545454545453,
                "end_time": 20.461363636363636,
                "pitch": 38,
                "velocity": 40,
                "duration": 0.18181818181818343,
                "tempo": 120.0
            },
            {
                "start_time": 20.479545454545452,
                "end_time": 20.661363636363635,
                "pitch": 40,
                "velocity": 40,
                "duration": 0.18181818181818343,
                "tempo": 120.0
            },
            {
                "start_time": 20.679545454545455,
                "end_time": 20.863636363636363,
                "pitch": 38,
                "velocity": 40,
                "duration": 0.18409090909090864,
                "tempo": 120.0
            },
            {
                "start_time": 20.879545454545454,
                "end_time": 21.06590909090909,
                "pitch": 31,
                "velocity": 40,
                "duration": 0.1863636363636374,
                "tempo": 120.0
            },
            {
                "start_time": 21.081818181818182,
                "end_time": 21.26590909090909,
                "pitch": 38,
                "velocity": 40,
                "duration": 0.18409090909090864,
                "tempo": 120.0
            },
            {
                "start_time": 21.28181818181818,
                "end_time": 21.46590909090909,
                "pitch": 37,
                "velocity": 40,
                "duration": 0.18409090909090864,
                "tempo": 120.0
            },
            {
                "start_time": 21.48181818181818,
                "end_time": 21.66590909090909,
                "pitch": 38,
                "velocity": 40,
                "duration": 0.18409090909090864,
                "tempo": 120.0
            },
            {
                "start_time": 21.68181818181818,
                "end_time": 21.86590909090909,
                "pitch": 31,
                "velocity": 40,
                "duration": 0.18409090909090864,
                "tempo": 120.0
            },
            {
                "start_time": 21.88181818181818,
                "end_time": 22.06590909090909,
                "pitch": 38,
                "velocity": 40,
                "duration": 0.1840909090909122,
                "tempo": 120.0
            },
            {
                "start_time": 22.084090909090907,
                "end_time": 22.268181818181816,
                "pitch": 40,
                "velocity": 40,
                "duration": 0.18409090909090864,
                "tempo": 120.0
            },
            {
                "start_time": 22.284090909090907,
                "end_time": 22.46818181818182,
                "pitch": 38,
                "velocity": 40,
                "duration": 0.1840909090909122,
                "tempo": 120.0
            },
            {
                "start_time": 22.48409090909091,
                "end_time": 22.668181818181818,
                "pitch": 31,
                "velocity": 40,
                "duration": 0.18409090909090864,
                "tempo": 120.0
            },
            {
                "start_time": 22.68409090909091,
                "end_time": 22.868181818181817,
                "pitch": 38,
                "velocity": 40,
                "duration": 0.18409090909090864,
                "tempo": 120.0
            },
            {
                "start_time": 22.886363636363637,
                "end_time": 23.070454545454545,
                "pitch": 37,
                "velocity": 40,
                "duration": 0.18409090909090864,
                "tempo": 120.0
            },
            {
                "start_time": 23.086363636363636,
                "end_time": 23.270454545454545,
                "pitch": 38,
                "velocity": 40,
                "duration": 0.18409090909090864,
                "tempo": 120.0
            },
            {
                "start_time": 23.286363636363635,
                "end_time": 23.470454545454544,
                "pitch": 31,
                "velocity": 40,
                "duration": 0.18409090909090864,
                "tempo": 120.0
            },
            {
                "start_time": 23.486363636363635,
                "end_time": 23.670454545454543,
                "pitch": 38,
                "velocity": 40,
                "duration": 0.18409090909090864,
                "tempo": 120.0
            },
            {
                "start_time": 23.686363636363634,
                "end_time": 23.870454545454546,
                "pitch": 40,
                "velocity": 40,
                "duration": 0.1840909090909122,
                "tempo": 120.0
            },
            {
                "start_time": 23.886363636363637,
                "end_time": 24.07272727272727,
                "pitch": 38,
                "velocity": 40,
                "duration": 0.18636363636363384,
                "tempo": 120.0
            },
            {
                "start_time": 24.08863636363636,
                "end_time": 24.27272727272727,
                "pitch": 31,
                "velocity": 40,
                "duration": 0.18409090909090864,
                "tempo": 120.0
            },
            {
                "start_time": 24.288636363636364,
                "end_time": 24.472727272727273,
                "pitch": 38,
                "velocity": 40,
                "duration": 0.18409090909090864,
                "tempo": 120.0
            },
            {
                "start_time": 24.488636363636363,
                "end_time": 24.672727272727272,
                "pitch": 37,
                "velocity": 40,
                "duration": 0.18409090909090864,
                "tempo": 120.0
            },
            {
                "start_time": 24.69090909090909,
                "end_time": 24.875,
                "pitch": 38,
                "velocity": 40,
                "duration": 0.18409090909090864,
                "tempo": 120.0
            },
            {
                "start_time": 24.89090909090909,
                "end_time": 25.075,
                "pitch": 31,
                "velocity": 40,
                "duration": 0.18409090909090864,
                "tempo": 120.0
            },
            {
                "start_time": 25.09318181818182,
                "end_time": 25.275,
                "pitch": 33,
                "velocity": 40,
                "duration": 0.18181818181817988,
                "tempo": 120.0
            },
            {
                "start_time": 25.293181818181818,
                "end_time": 25.474999999999998,
                "pitch": 34,
                "velocity": 40,
                "duration": 0.18181818181817988,
                "tempo": 120.0
            },
            {
                "start_time": 25.493181818181817,
                "end_time": 25.674999999999997,
                "pitch": 35,
                "velocity": 40,
                "duration": 0.18181818181817988,
                "tempo": 120.0
            },
            {
                "start_time": 25.693181818181817,
                "end_time": 25.875,
                "pitch": 32,
                "velocity": 40,
                "duration": 0.18181818181818343,
                "tempo": 120.0
            },
            {
                "start_time": 25.893181818181816,
                "end_time": 26.286363636363635,
                "pitch": 32,
                "velocity": 40,
                "duration": 0.3931818181818194,
                "tempo": 120.0
            },
            {
                "start_time": 26.302272727272726,
                "end_time": 26.48181818181818,
                "pitch": 33,
                "velocity": 40,
                "duration": 0.17954545454545467,
                "tempo": 120.0
            },
            {
                "start_time": 26.5,
                "end_time": 26.879545454545454,
                "pitch": 33,
                "velocity": 40,
                "duration": 0.37954545454545396,
                "tempo": 120.0
            },
            {
                "start_time": 26.89772727272727,
                "end_time": 27.081818181818182,
                "pitch": 32,
                "velocity": 40,
                "duration": 0.1840909090909122,
                "tempo": 120.0
            },
            {
                "start_time": 27.097727272727273,
                "end_time": 27.48181818181818,
                "pitch": 32,
                "velocity": 40,
                "duration": 0.38409090909090793,
                "tempo": 120.0
            },
            {
                "start_time": 27.49772727272727,
                "end_time": 27.68181818181818,
                "pitch": 31,
                "velocity": 40,
                "duration": 0.18409090909090864,
                "tempo": 120.0
            },
            {
                "start_time": 27.69772727272727,
                "end_time": 28.284090909090907,
                "pitch": 31,
                "velocity": 40,
                "duration": 0.586363636363636,
                "tempo": 120.0
            },
            {
                "start_time": 28.299999999999997,
                "end_time": 28.48409090909091,
                "pitch": 31,
                "velocity": 40,
                "duration": 0.1840909090909122,
                "tempo": 120.0
            },
            {
                "start_time": 28.5,
                "end_time": 28.68409090909091,
                "pitch": 32,
                "velocity": 40,
                "duration": 0.18409090909090864,
                "tempo": 120.0
            },
            {
                "start_time": 28.7,
                "end_time": 28.886363636363637,
                "pitch": 31,
                "velocity": 40,
                "duration": 0.1863636363636374,
                "tempo": 120.0
            },
            {
                "start_time": 28.902272727272727,
                "end_time": 29.086363636363636,
                "pitch": 32,
                "velocity": 40,
                "duration": 0.18409090909090864,
                "tempo": 120.0
            },
            {
                "start_time": 29.102272727272727,
                "end_time": 29.486363636363635,
                "pitch": 32,
                "velocity": 40,
                "duration": 0.38409090909090793,
                "tempo": 120.0
            },
            {
                "start_time": 29.502272727272725,
                "end_time": 29.686363636363634,
                "pitch": 33,
                "velocity": 40,
                "duration": 0.18409090909090864,
                "tempo": 120.0
            },
            {
                "start_time": 29.702272727272724,
                "end_time": 30.08863636363636,
                "pitch": 33,
                "velocity": 40,
                "duration": 0.3863636363636367,
                "tempo": 120.0
            },
            {
                "start_time": 30.104545454545452,
                "end_time": 30.28863636363636,
                "pitch": 32,
                "velocity": 40,
                "duration": 0.18409090909090864,
                "tempo": 120.0
            },
            {
                "start_time": 30.30681818181818,
                "end_time": 30.688636363636363,
                "pitch": 32,
                "velocity": 40,
                "duration": 0.3818181818181827,
                "tempo": 120.0
            },
            {
                "start_time": 30.706818181818182,
                "end_time": 30.89090909090909,
                "pitch": 31,
                "velocity": 40,
                "duration": 0.18409090909090864,
                "tempo": 120.0
            },
            {
                "start_time": 30.90681818181818,
                "end_time": 31.49090909090909,
                "pitch": 31,
                "velocity": 40,
                "duration": 0.5840909090909072,
                "tempo": 120.0
            },
            {
                "start_time": 31.509090909090908,
                "end_time": 31.690909090909088,
                "pitch": 31,
                "velocity": 40,
                "duration": 0.18181818181817988,
                "tempo": 120.0
            },
            {
                "start_time": 31.709090909090907,
                "end_time": 31.89090909090909,
                "pitch": 32,
                "velocity": 40,
                "duration": 0.18181818181818343,
                "tempo": 120.0
            },
            {
                "start_time": 31.909090909090907,
                "end_time": 32.09318181818182,
                "pitch": 31,
                "velocity": 40,
                "duration": 0.1840909090909122,
                "tempo": 120.0
            },
            {
                "start_time": 32.10909090909091,
                "end_time": 32.49090909090909,
                "pitch": 31,
                "velocity": 40,
                "duration": 0.3818181818181827,
                "tempo": 120.0
            },
            {
                "start_time": 33.30681818181818,
                "end_time": 33.68863636363636,
                "pitch": 43,
                "velocity": 40,
                "duration": 0.3818181818181827,
                "tempo": 120.0
            },
            {
                "start_time": 33.70681818181818,
                "end_time": 33.83863636363636,
                "pitch": 36,
                "velocity": 40,
                "duration": 0.13181818181818272,
                "tempo": 120.0
            }
        ]
    }
}