{
    "track_id": "Phantasy Star (FM) - 04 - Shop",
    "mood": "happy",
    "instruments": {
        "Church Organ": [
            {
                "start_time": 0.0,
                "end_time": 0.28409090909090906,
                "pitch": 45,
                "velocity": 80,
                "duration": 0.28409090909090906,
                "tempo": 120.0
            },
            {
                "start_time": 0.3,
                "end_time": 0.3840909090909091,
                "pitch": 50,
                "velocity": 80,
                "duration": 0.0840909090909091,
                "tempo": 120.0
            },
            {
                "start_time": 0.39999999999999997,
                "end_time": 0.6840909090909091,
                "pitch": 52,
                "velocity": 80,
                "duration": 0.2840909090909091,
                "tempo": 120.0
            },
            {
                "start_time": 0.7,
                "end_time": 0.7840909090909091,
                "pitch": 43,
                "velocity": 80,
                "duration": 0.0840909090909091,
                "tempo": 120.0
            },
            {
                "start_time": 2.702272727272727,
                "end_time": 2.786363636363636,
                "pitch": 43,
                "velocity": 80,
                "duration": 0.084090909090909,
                "tempo": 120.0
            },
            {
                "start_time": 2.8022727272727272,
                "end_time": 3.186363636363636,
                "pitch": 45,
                "velocity": 80,
                "duration": 0.3840909090909088,
                "tempo": 120.0
            },
            {
                "start_time": 3.202272727272727,
                "end_time": 3.4886363636363633,
                "pitch": 45,
                "velocity": 80,
                "duration": 0.28636363636363615,
                "tempo": 120.0
            },
            {
                "start_time": 3.5045454545454544,
                "end_time": 3.5886363636363634,
                "pitch": 50,
                "velocity": 80,
                "duration": 0.084090909090909,
                "tempo": 120.0
            },
            {
                "start_time": 3.6045454545454545,
                "end_time": 3.8886363636363637,
                "pitch": 52,
                "velocity": 80,
                "duration": 0.28409090909090917,
                "tempo": 120.0
            },
            {
                "start_time": 3.9045454545454543,
                "end_time": 3.9886363636363633,
                "pitch": 43,
                "velocity": 80,
                "duration": 0.084090909090909,
                "tempo": 120.0
            },
            {
                "start_time": 5.911363636363636,
                "end_time": 5.995454545454545,
                "pitch": 57,
                "velocity": 80,
                "duration": 0.084090909090909,
                "tempo": 120.0
            },
            {
                "start_time": 6.011363636363636,
                "end_time": 6.295454545454545,
                "pitch": 55,
                "velocity": 80,
                "duration": 0.28409090909090917,
                "tempo": 120.0
            },
            {
                "start_time": 6.3136363636363635,
                "end_time": 6.3977272727272725,
                "pitch": 52,
                "velocity": 80,
                "duration": 0.084090909090909,
                "tempo": 120.0
            },
            {
                "start_time": 6.413636363636363,
                "end_time": 6.699999999999999,
                "pitch": 45,
                "velocity": 80,
                "duration": 0.28636363636363615,
                "tempo": 120.0
            },
            {
                "start_time": 6.715909090909091,
                "end_time": 6.8,
                "pitch": 50,
                "velocity": 80,
                "duration": 0.084090909090909,
                "tempo": 120.0
            },
            {
                "start_time": 6.8159090909090905,
                "end_time": 7.1,
                "pitch": 52,
                "velocity": 80,
                "duration": 0.28409090909090917,
                "tempo": 120.0
            },
            {
                "start_time": 7.11590909090909,
                "end_time": 7.199999999999999,
                "pitch": 43,
                "velocity": 80,
                "duration": 0.084090909090909,
                "tempo": 120.0
            },
            {
                "start_time": 9.125,
                "end_time": 9.206818181818182,
                "pitch": 43,
                "velocity": 80,
                "duration": 0.08181818181818201,
                "tempo": 120.0
            },
            {
                "start_time": 9.225,
                "end_time": 9.60909090909091,
                "pitch": 45,
                "velocity": 80,
                "duration": 0.3840909090909097,
                "tempo": 120.0
            },
            {
                "start_time": 9.625,
                "end_time": 11.21590909090909,
                "pitch": 52,
                "velocity": 80,
                "duration": 1.59090909090909,
                "tempo": 120.0
            },
            {
                "start_time": 11.540909090909091,
                "end_time": 11.627272727272727,
                "pitch": 64,
                "velocity": 80,
                "duration": 0.08636363636363598,
                "tempo": 120.0
            },
            {
                "start_time": 11.643181818181818,
                "end_time": 12.020454545454545,
                "pitch": 64,
                "velocity": 80,
                "duration": 0.377272727272727,
                "tempo": 120.0
            },
            {
                "start_time": 12.036363636363635,
                "end_time": 12.422727272727272,
                "pitch": 61,
                "velocity": 80,
                "duration": 0.3863636363636367,
                "tempo": 120.0
            },
            {
                "start_time": 12.438636363636363,
                "end_time": 12.825,
                "pitch": 62,
                "velocity": 80,
                "duration": 0.3863636363636367,
                "tempo": 120.0
            }
        ],
        "Flute": [
            {
                "start_time": 1.5,
                "end_time": 2.2886363636363636,
                "pitch": 57,
                "velocity": 51,
                "duration": 0.7886363636363636,
                "tempo": 120.0
            },
            {
                "start_time": 2.3045454545454542,
                "end_time": 2.3863636363636362,
                "pitch": 57,
                "velocity": 51,
                "duration": 0.08181818181818201,
                "tempo": 120.0
            },
            {
                "start_time": 2.4022727272727273,
                "end_time": 2.686363636363636,
                "pitch": 54,
                "velocity": 51,
                "duration": 0.2840909090909087,
                "tempo": 120.0
            },
            {
                "start_time": 2.702272727272727,
                "end_time": 2.786363636363636,
                "pitch": 55,
                "velocity": 51,
                "duration": 0.084090909090909,
                "tempo": 120.0
            },
            {
                "start_time": 2.8022727272727272,
                "end_time": 4.6909090909090905,
                "pitch": 57,
                "velocity": 51,
                "duration": 1.8886363636363632,
                "tempo": 120.0
            },
            {
                "start_time": 4.706818181818182,
                "end_time": 5.497727272727272,
                "pitch": 57,
                "velocity": 51,
                "duration": 0.7909090909090901,
                "tempo": 120.0
            },
            {
                "start_time": 5.513636363636364,
                "end_time": 5.595454545454545,
                "pitch": 57,
                "velocity": 51,
                "duration": 0.08181818181818112,
                "tempo": 120.0
            },
            {
                "start_time": 5.611363636363636,
                "end_time": 5.8954545454545455,
                "pitch": 54,
                "velocity": 51,
                "duration": 0.28409090909090917,
                "tempo": 120.0
            },
            {
                "start_time": 5.911363636363636,
                "end_time": 5.995454545454545,
                "pitch": 55,
                "velocity": 51,
                "duration": 0.084090909090909,
                "tempo": 120.0
            },
            {
                "start_time": 6.011363636363636,
                "end_time": 7.9022727272727264,
                "pitch": 57,
                "velocity": 51,
                "duration": 1.8909090909090907,
                "tempo": 120.0
            },
            {
                "start_time": 7.918181818181818,
                "end_time": 8.706818181818182,
                "pitch": 57,
                "velocity": 51,
                "duration": 0.788636363636364,
                "tempo": 120.0
            },
            {
                "start_time": 8.725,
                "end_time": 8.804545454545455,
                "pitch": 57,
                "velocity": 51,
                "duration": 0.07954545454545503,
                "tempo": 120.0
            },
            {
                "start_time": 8.822727272727272,
                "end_time": 9.10681818181818,
                "pitch": 54,
                "velocity": 51,
                "duration": 0.2840909090909083,
                "tempo": 120.0
            },
            {
                "start_time": 9.125,
                "end_time": 9.206818181818182,
                "pitch": 55,
                "velocity": 51,
                "duration": 0.08181818181818201,
                "tempo": 120.0
            },
            {
                "start_time": 9.225,
                "end_time": 9.509090909090908,
                "pitch": 57,
                "velocity": 51,
                "duration": 0.2840909090909083,
                "tempo": 120.0
            },
            {
                "start_time": 9.525,
                "end_time": 11.522727272727272,
                "pitch": 52,
                "velocity": 51,
                "duration": 1.9977272727272712,
                "tempo": 120.0
            },
            {
                "start_time": 11.540909090909091,
                "end_time": 11.627272727272727,
                "pitch": 57,
                "velocity": 51,
                "duration": 0.08636363636363598,
                "tempo": 120.0
            },
            {
                "start_time": 11.643181818181818,
                "end_time": 12.020454545454545,
                "pitch": 57,
                "velocity": 51,
                "duration": 0.377272727272727,
                "tempo": 120.0
            },
            {
                "start_time": 12.036363636363635,
                "end_time": 12.422727272727272,
                "pitch": 54,
                "velocity": 51,
                "duration": 0.3863636363636367,
                "tempo": 120.0
            },
            {
                "start_time": 12.438636363636363,
                "end_time": 12.825,
                "pitch": 55,
                "velocity": 51,
                "duration": 0.3863636363636367,
                "tempo": 120.0
            }
        ],
        "Acoustic Grand Piano": [
            {
                "start_time": 0.0,
                "end_time": 0.049999999999999996,
                "pitch": 45,
                "velocity": 51,
                "duration": 0.049999999999999996,
                "tempo": 120.0
            },
            {
                "start_time": 0.7,
                "end_time": 0.7840909090909091,
                "pitch": 45,
                "velocity": 51,
                "duration": 0.0840909090909091,
                "tempo": 120.0
            },
            {
                "start_time": 0.7999999999999999,
                "end_time": 1.084090909090909,
                "pitch": 42,
                "velocity": 51,
                "duration": 0.28409090909090906,
                "tempo": 120.0
            },
            {
                "start_time": 1.0999999999999999,
                "end_time": 1.184090909090909,
                "pitch": 43,
                "velocity": 51,
                "duration": 0.08409090909090922,
                "tempo": 120.0
            },
            {
                "start_time": 1.2,
                "end_time": 1.4840909090909091,
                "pitch": 45,
                "velocity": 51,
                "duration": 0.28409090909090917,
                "tempo": 120.0
            },
            {
                "start_time": 1.5,
                "end_time": 1.8909090909090909,
                "pitch": 40,
                "velocity": 51,
                "duration": 0.3909090909090909,
                "tempo": 120.0
            },
            {
                "start_time": 1.9068181818181817,
                "end_time": 2.2886363636363636,
                "pitch": 40,
                "velocity": 51,
                "duration": 0.38181818181818183,
                "tempo": 120.0
            },
            {
                "start_time": 2.3045454545454542,
                "end_time": 2.3863636363636362,
                "pitch": 40,
                "velocity": 51,
                "duration": 0.08181818181818201,
                "tempo": 120.0
            },
            {
                "start_time": 2.4022727272727273,
                "end_time": 2.786363636363636,
                "pitch": 38,
                "velocity": 51,
                "duration": 0.3840909090909088,
                "tempo": 120.0
            },
            {
                "start_time": 2.8022727272727272,
                "end_time": 3.186363636363636,
                "pitch": 40,
                "velocity": 51,
                "duration": 0.3840909090909088,
                "tempo": 120.0
            },
            {
                "start_time": 3.202272727272727,
                "end_time": 3.286363636363636,
                "pitch": 45,
                "velocity": 51,
                "duration": 0.084090909090909,
                "tempo": 120.0
            },
            {
                "start_time": 3.9045454545454543,
                "end_time": 3.9886363636363633,
                "pitch": 45,
                "velocity": 51,
                "duration": 0.084090909090909,
                "tempo": 120.0
            },
            {
                "start_time": 4.004545454545454,
                "end_time": 4.288636363636363,
                "pitch": 42,
                "velocity": 51,
                "duration": 0.28409090909090917,
                "tempo": 120.0
            },
            {
                "start_time": 4.304545454545455,
                "end_time": 4.388636363636364,
                "pitch": 43,
                "velocity": 51,
                "duration": 0.084090909090909,
                "tempo": 120.0
            },
            {
                "start_time": 4.404545454545454,
                "end_time": 4.6909090909090905,
                "pitch": 45,
                "velocity": 51,
                "duration": 0.28636363636363615,
                "tempo": 120.0
            },
            {
                "start_time": 4.706818181818182,
                "end_time": 5.1,
                "pitch": 48,
                "velocity": 51,
                "duration": 0.39318181818181763,
                "tempo": 120.0
            },
            {
                "start_time": 5.11590909090909,
                "end_time": 5.497727272727272,
                "pitch": 48,
                "velocity": 51,
                "duration": 0.38181818181818183,
                "tempo": 120.0
            },
            {
                "start_time": 5.513636363636364,
                "end_time": 5.595454545454545,
                "pitch": 48,
                "velocity": 51,
                "duration": 0.08181818181818112,
                "tempo": 120.0
            },
            {
                "start_time": 5.611363636363636,
                "end_time": 5.995454545454545,
                "pitch": 47,
                "velocity": 51,
                "duration": 0.3840909090909088,
                "tempo": 120.0
            },
            {
                "start_time": 6.011363636363636,
                "end_time": 6.3977272727272725,
                "pitch": 45,
                "velocity": 51,
                "duration": 0.3863636363636367,
                "tempo": 120.0
            },
            {
                "start_time": 6.413636363636363,
                "end_time": 6.463636363636363,
                "pitch": 45,
                "velocity": 51,
                "duration": 0.04999999999999982,
                "tempo": 120.0
            },
            {
                "start_time": 7.11590909090909,
                "end_time": 7.199999999999999,
                "pitch": 45,
                "velocity": 51,
                "duration": 0.084090909090909,
                "tempo": 120.0
            },
            {
                "start_time": 7.215909090909091,
                "end_time": 7.502272727272727,
                "pitch": 42,
                "velocity": 51,
                "duration": 0.28636363636363615,
                "tempo": 120.0
            },
            {
                "start_time": 7.518181818181818,
                "end_time": 7.602272727272727,
                "pitch": 43,
                "velocity": 51,
                "duration": 0.084090909090909,
                "tempo": 120.0
            },
            {
                "start_time": 7.618181818181818,
                "end_time": 7.9022727272727264,
                "pitch": 45,
                "velocity": 51,
                "duration": 0.2840909090909083,
                "tempo": 120.0
            },
            {
                "start_time": 7.918181818181818,
                "end_time": 8.309090909090909,
                "pitch": 40,
                "velocity": 51,
                "duration": 0.39090909090909065,
                "tempo": 120.0
            },
            {
                "start_time": 8.327272727272726,
                "end_time": 8.706818181818182,
                "pitch": 40,
                "velocity": 51,
                "duration": 0.37954545454545574,
                "tempo": 120.0
            },
            {
                "start_time": 8.725,
                "end_time": 8.804545454545455,
                "pitch": 40,
                "velocity": 51,
                "duration": 0.07954545454545503,
                "tempo": 120.0
            },
            {
                "start_time": 8.822727272727272,
                "end_time": 9.206818181818182,
                "pitch": 38,
                "velocity": 51,
                "duration": 0.3840909090909097,
                "tempo": 120.0
            },
            {
                "start_time": 9.225,
                "end_time": 9.509090909090908,
                "pitch": 40,
                "velocity": 51,
                "duration": 0.2840909090909083,
                "tempo": 120.0
            },
            {
                "start_time": 9.525,
                "end_time": 11.21590909090909,
                "pitch": 36,
                "velocity": 51,
                "duration": 1.6909090909090896,
                "tempo": 120.0
            },
            {
                "start_time": 11.540909090909091,
                "end_time": 11.627272727272727,
                "pitch": 61,
                "velocity": 51,
                "duration": 0.08636363636363598,
                "tempo": 120.0
            },
            {
                "start_time": 11.643181818181818,
                "end_time": 12.020454545454545,
                "pitch": 61,
                "velocity": 51,
                "duration": 0.377272727272727,
                "tempo": 120.0
            },
            {
                "start_time": 12.036363636363635,
                "end_time": 12.422727272727272,
                "pitch": 57,
                "velocity": 51,
                "duration": 0.3863636363636367,
                "tempo": 120.0
            },
            {
                "start_time": 12.438636363636363,
                "end_time": 12.825,
                "pitch": 59,
                "velocity": 51,
                "duration": 0.3863636363636367,
                "tempo": 120.0
            }
        ]
    }
}