{
    "track_id": "Phantasy Star (FM) - 10 - Story, Conversations",
    "mood": "happy",
    "instruments": {
        "Church Organ": [
            {
                "start_time": 0.0,
                "end_time": 0.5795454545454545,
                "pitch": 64,
                "velocity": 80,
                "duration": 0.5795454545454545,
                "tempo": 120.0
            },
            {
                "start_time": 0.5954545454545455,
                "end_time": 1.1863636363636363,
                "pitch": 59,
                "velocity": 80,
                "duration": 0.5909090909090908,
                "tempo": 120.0
            },
            {
                "start_time": 1.2022727272727272,
                "end_time": 1.5863636363636362,
                "pitch": 64,
                "velocity": 80,
                "duration": 0.38409090909090904,
                "tempo": 120.0
            },
            {
                "start_time": 1.6022727272727273,
                "end_time": 1.7863636363636364,
                "pitch": 62,
                "velocity": 80,
                "duration": 0.18409090909090908,
                "tempo": 120.0
            },
            {
                "start_time": 1.8045454545454545,
                "end_time": 2.1886363636363635,
                "pitch": 61,
                "velocity": 80,
                "duration": 0.38409090909090904,
                "tempo": 120.0
            },
            {
                "start_time": 2.2045454545454546,
                "end_time": 2.7818181818181817,
                "pitch": 59,
                "velocity": 80,
                "duration": 0.5772727272727272,
                "tempo": 120.0
            },
            {
                "start_time": 2.7977272727272724,
                "end_time": 3.190909090909091,
                "pitch": 57,
                "velocity": 80,
                "duration": 0.3931818181818185,
                "tempo": 120.0
            },
            {
                "start_time": 3.209090909090909,
                "end_time": 3.7954545454545454,
                "pitch": 64,
                "velocity": 80,
                "duration": 0.5863636363636364,
                "tempo": 120.0
            },
            {
                "start_time": 3.811363636363636,
                "end_time": 4.386363636363636,
                "pitch": 59,
                "velocity": 80,
                "duration": 0.5749999999999997,
                "tempo": 120.0
            },
            {
                "start_time": 4.402272727272727,
                "end_time": 5.795454545454545,
                "pitch": 62,
                "velocity": 80,
                "duration": 1.3931818181818176,
                "tempo": 120.0
            },
            {
                "start_time": 5.8136363636363635,
                "end_time": 5.993181818181818,
                "pitch": 62,
                "velocity": 80,
                "duration": 0.17954545454545467,
                "tempo": 120.0
            },
            {
                "start_time": 6.009090909090909,
                "end_time": 6.197727272727272,
                "pitch": 61,
                "velocity": 80,
                "duration": 0.1886363636363635,
                "tempo": 120.0
            },
            {
                "start_time": 6.213636363636363,
                "end_time": 6.402272727272727,
                "pitch": 62,
                "velocity": 80,
                "duration": 0.18863636363636438,
                "tempo": 120.0
            },
            {
                "start_time": 6.420454545454545,
                "end_time": 7.002272727272727,
                "pitch": 64,
                "velocity": 80,
                "duration": 0.581818181818182,
                "tempo": 120.0
            },
            {
                "start_time": 7.018181818181818,
                "end_time": 7.6,
                "pitch": 59,
                "velocity": 80,
                "duration": 0.581818181818182,
                "tempo": 120.0
            },
            {
                "start_time": 7.618181818181818,
                "end_time": 8.011363636363637,
                "pitch": 64,
                "velocity": 80,
                "duration": 0.3931818181818185,
                "tempo": 120.0
            },
            {
                "start_time": 8.027272727272727,
                "end_time": 8.213636363636363,
                "pitch": 62,
                "velocity": 80,
                "duration": 0.18636363636363562,
                "tempo": 120.0
            },
            {
                "start_time": 8.229545454545454,
                "end_time": 8.611363636363636,
                "pitch": 61,
                "velocity": 80,
                "duration": 0.3818181818181827,
                "tempo": 120.0
            },
            {
                "start_time": 8.627272727272727,
                "end_time": 9.206818181818182,
                "pitch": 59,
                "velocity": 80,
                "duration": 0.579545454545455,
                "tempo": 120.0
            },
            {
                "start_time": 9.222727272727273,
                "end_time": 9.61590909090909,
                "pitch": 57,
                "velocity": 80,
                "duration": 0.39318181818181763,
                "tempo": 120.0
            },
            {
                "start_time": 9.634090909090908,
                "end_time": 11.01590909090909,
                "pitch": 59,
                "velocity": 80,
                "duration": 1.3818181818181827,
                "tempo": 120.0
            },
            {
                "start_time": 11.031818181818181,
                "end_time": 11.21590909090909,
                "pitch": 52,
                "velocity": 80,
                "duration": 0.18409090909090864,
                "tempo": 120.0
            },
            {
                "start_time": 11.23181818181818,
                "end_time": 12.834090909090909,
                "pitch": 52,
                "velocity": 80,
                "duration": 1.6022727272727284,
                "tempo": 120.0
            }
        ],
        "Flute": [
            {
                "start_time": 0.0,
                "end_time": 0.5795454545454545,
                "pitch": 59,
                "velocity": 51,
                "duration": 0.5795454545454545,
                "tempo": 120.0
            },
            {
                "start_time": 0.5954545454545455,
                "end_time": 1.1863636363636363,
                "pitch": 56,
                "velocity": 51,
                "duration": 0.5909090909090908,
                "tempo": 120.0
            },
            {
                "start_time": 1.2022727272727272,
                "end_time": 1.5863636363636362,
                "pitch": 59,
                "velocity": 51,
                "duration": 0.38409090909090904,
                "tempo": 120.0
            },
            {
                "start_time": 1.6022727272727273,
                "end_time": 1.7863636363636364,
                "pitch": 57,
                "velocity": 51,
                "duration": 0.18409090909090908,
                "tempo": 120.0
            },
            {
                "start_time": 1.8045454545454545,
                "end_time": 2.1886363636363635,
                "pitch": 56,
                "velocity": 51,
                "duration": 0.38409090909090904,
                "tempo": 120.0
            },
            {
                "start_time": 2.2045454545454546,
                "end_time": 2.7818181818181817,
                "pitch": 54,
                "velocity": 51,
                "duration": 0.5772727272727272,
                "tempo": 120.0
            },
            {
                "start_time": 2.7977272727272724,
                "end_time": 3.190909090909091,
                "pitch": 52,
                "velocity": 51,
                "duration": 0.3931818181818185,
                "tempo": 120.0
            },
            {
                "start_time": 3.209090909090909,
                "end_time": 3.7954545454545454,
                "pitch": 59,
                "velocity": 51,
                "duration": 0.5863636363636364,
                "tempo": 120.0
            },
            {
                "start_time": 3.811363636363636,
                "end_time": 4.386363636363636,
                "pitch": 56,
                "velocity": 51,
                "duration": 0.5749999999999997,
                "tempo": 120.0
            },
            {
                "start_time": 4.402272727272727,
                "end_time": 6.402272727272727,
                "pitch": 57,
                "velocity": 51,
                "duration": 2.0,
                "tempo": 120.0
            },
            {
                "start_time": 6.420454545454545,
                "end_time": 7.002272727272727,
                "pitch": 59,
                "velocity": 51,
                "duration": 0.581818181818182,
                "tempo": 120.0
            },
            {
                "start_time": 7.018181818181818,
                "end_time": 7.6,
                "pitch": 56,
                "velocity": 51,
                "duration": 0.581818181818182,
                "tempo": 120.0
            },
            {
                "start_time": 7.618181818181818,
                "end_time": 8.011363636363637,
                "pitch": 59,
                "velocity": 51,
                "duration": 0.3931818181818185,
                "tempo": 120.0
            },
            {
                "start_time": 8.027272727272727,
                "end_time": 8.213636363636363,
                "pitch": 57,
                "velocity": 51,
                "duration": 0.18636363636363562,
                "tempo": 120.0
            },
            {
                "start_time": 8.229545454545454,
                "end_time": 8.611363636363636,
                "pitch": 56,
                "velocity": 51,
                "duration": 0.3818181818181827,
                "tempo": 120.0
            },
            {
                "start_time": 8.627272727272727,
                "end_time": 9.206818181818182,
                "pitch": 54,
                "velocity": 51,
                "duration": 0.579545454545455,
                "tempo": 120.0
            },
            {
                "start_time": 9.222727272727273,
                "end_time": 9.61590909090909,
                "pitch": 52,
                "velocity": 51,
                "duration": 0.39318181818181763,
                "tempo": 120.0
            },
            {
                "start_time": 9.634090909090908,
                "end_time": 11.01590909090909,
                "pitch": 56,
                "velocity": 51,
                "duration": 1.3818181818181827,
                "tempo": 120.0
            },
            {
                "start_time": 11.031818181818181,
                "end_time": 11.21590909090909,
                "pitch": 56,
                "velocity": 51,
                "duration": 0.18409090909090864,
                "tempo": 120.0
            },
            {
                "start_time": 11.23181818181818,
                "end_time": 12.834090909090909,
                "pitch": 56,
                "velocity": 51,
                "duration": 1.6022727272727284,
                "tempo": 120.0
            }
        ],
        "Acoustic Grand Piano": [
            {
                "start_time": 0.0,
                "end_time": 0.15,
                "pitch": 40,
                "velocity": 51,
                "duration": 0.15,
                "tempo": 120.0
            },
            {
                "start_time": 0.5954545454545455,
                "end_time": 1.1863636363636363,
                "pitch": 40,
                "velocity": 51,
                "duration": 0.5909090909090908,
                "tempo": 120.0
            },
            {
                "start_time": 1.2022727272727272,
                "end_time": 1.5863636363636362,
                "pitch": 35,
                "velocity": 51,
                "duration": 0.38409090909090904,
                "tempo": 120.0
            },
            {
                "start_time": 1.6022727272727273,
                "end_time": 2.1886363636363635,
                "pitch": 38,
                "velocity": 51,
                "duration": 0.5863636363636362,
                "tempo": 120.0
            },
            {
                "start_time": 2.2045454545454546,
                "end_time": 2.7818181818181817,
                "pitch": 38,
                "velocity": 51,
                "duration": 0.5772727272727272,
                "tempo": 120.0
            },
            {
                "start_time": 2.7977272727272724,
                "end_time": 3.190909090909091,
                "pitch": 35,
                "velocity": 51,
                "duration": 0.3931818181818185,
                "tempo": 120.0
            },
            {
                "start_time": 3.209090909090909,
                "end_time": 3.895454545454545,
                "pitch": 40,
                "velocity": 51,
                "duration": 0.6863636363636361,
                "tempo": 120.0
            },
            {
                "start_time": 3.911363636363636,
                "end_time": 4.386363636363636,
                "pitch": 35,
                "velocity": 51,
                "duration": 0.47499999999999964,
                "tempo": 120.0
            },
            {
                "start_time": 4.402272727272727,
                "end_time": 6.402272727272727,
                "pitch": 38,
                "velocity": 51,
                "duration": 2.0,
                "tempo": 120.0
            },
            {
                "start_time": 6.420454545454545,
                "end_time": 6.570454545454545,
                "pitch": 40,
                "velocity": 51,
                "duration": 0.15000000000000036,
                "tempo": 120.0
            },
            {
                "start_time": 7.018181818181818,
                "end_time": 7.6,
                "pitch": 40,
                "velocity": 51,
                "duration": 0.581818181818182,
                "tempo": 120.0
            },
            {
                "start_time": 7.618181818181818,
                "end_time": 8.011363636363637,
                "pitch": 35,
                "velocity": 51,
                "duration": 0.3931818181818185,
                "tempo": 120.0
            },
            {
                "start_time": 8.027272727272727,
                "end_time": 8.611363636363636,
                "pitch": 38,
                "velocity": 51,
                "duration": 0.584090909090909,
                "tempo": 120.0
            },
            {
                "start_time": 8.627272727272727,
                "end_time": 9.206818181818182,
                "pitch": 38,
                "velocity": 51,
                "duration": 0.579545454545455,
                "tempo": 120.0
            },
            {
                "start_time": 9.222727272727273,
                "end_time": 9.61590909090909,
                "pitch": 35,
                "velocity": 51,
                "duration": 0.39318181818181763,
                "tempo": 120.0
            },
            {
                "start_time": 9.634090909090908,
                "end_time": 11.01590909090909,
                "pitch": 40,
                "velocity": 51,
                "duration": 1.3818181818181827,
                "tempo": 120.0
            },
            {
                "start_time": 11.031818181818181,
                "end_time": 11.21590909090909,
                "pitch": 40,
                "velocity": 51,
                "duration": 0.18409090909090864,
                "tempo": 120.0
            },
            {
                "start_time": 11.23181818181818,
                "end_time": 12.834090909090909,
                "pitch": 40,
                "velocity": 51,
                "duration": 1.6022727272727284,
                "tempo": 120.0
            }
        ]
    }
}