{
    "track_id": "Phantasy Star (FM) - 01 - Title Screen",
    "mood": "happy",
    "instruments": {
        "Vibraphone": [
            {
                "start_time": 0.0,
                "end_time": 0.5840909090909091,
                "pitch": 69,
                "velocity": 101,
                "duration": 0.5840909090909091,
                "tempo": 120.0
            },
            {
                "start_time": 0.6,
                "end_time": 1.184090909090909,
                "pitch": 67,
                "velocity": 101,
                "duration": 0.5840909090909091,
                "tempo": 120.0
            },
            {
                "start_time": 1.2,
                "end_time": 1.584090909090909,
                "pitch": 65,
                "velocity": 101,
                "duration": 0.38409090909090904,
                "tempo": 120.0
            },
            {
                "start_time": 1.5999999999999999,
                "end_time": 2.186363636363636,
                "pitch": 67,
                "velocity": 101,
                "duration": 0.5863636363636362,
                "tempo": 120.0
            },
            {
                "start_time": 2.202272727272727,
                "end_time": 3.186363636363636,
                "pitch": 64,
                "velocity": 101,
                "duration": 0.9840909090909089,
                "tempo": 120.0
            },
            {
                "start_time": 3.202272727272727,
                "end_time": 3.7886363636363636,
                "pitch": 62,
                "velocity": 101,
                "duration": 0.5863636363636364,
                "tempo": 120.0
            },
            {
                "start_time": 3.8045454545454542,
                "end_time": 4.388636363636364,
                "pitch": 65,
                "velocity": 101,
                "duration": 0.5840909090909094,
                "tempo": 120.0
            },
            {
                "start_time": 4.404545454545454,
                "end_time": 4.590909090909091,
                "pitch": 62,
                "velocity": 101,
                "duration": 0.1863636363636365,
                "tempo": 120.0
            },
            {
                "start_time": 4.6068181818181815,
                "end_time": 4.99090909090909,
                "pitch": 69,
                "velocity": 101,
                "duration": 0.3840909090909088,
                "tempo": 120.0
            },
            {
                "start_time": 5.009090909090909,
                "end_time": 5.1909090909090905,
                "pitch": 69,
                "velocity": 101,
                "duration": 0.18181818181818166,
                "tempo": 120.0
            },
            {
                "start_time": 5.209090909090909,
                "end_time": 5.593181818181818,
                "pitch": 67,
                "velocity": 101,
                "duration": 0.3840909090909088,
                "tempo": 120.0
            },
            {
                "start_time": 5.611363636363636,
                "end_time": 5.793181818181818,
                "pitch": 65,
                "velocity": 101,
                "duration": 0.18181818181818166,
                "tempo": 120.0
            },
            {
                "start_time": 5.8113636363636365,
                "end_time": 6.3977272727272725,
                "pitch": 67,
                "velocity": 101,
                "duration": 0.586363636363636,
                "tempo": 120.0
            },
            {
                "start_time": 6.413636363636363,
                "end_time": 7.0,
                "pitch": 69,
                "velocity": 101,
                "duration": 0.5863636363636369,
                "tempo": 120.0
            },
            {
                "start_time": 7.015909090909091,
                "end_time": 7.602272727272727,
                "pitch": 67,
                "velocity": 101,
                "duration": 0.586363636363636,
                "tempo": 120.0
            },
            {
                "start_time": 7.618181818181818,
                "end_time": 8.002272727272727,
                "pitch": 65,
                "velocity": 101,
                "duration": 0.3840909090909088,
                "tempo": 120.0
            },
            {
                "start_time": 8.018181818181818,
                "end_time": 8.60681818181818,
                "pitch": 67,
                "velocity": 101,
                "duration": 0.588636363636363,
                "tempo": 120.0
            },
            {
                "start_time": 8.622727272727273,
                "end_time": 9.811363636363636,
                "pitch": 64,
                "velocity": 101,
                "duration": 1.1886363636363626,
                "tempo": 120.0
            },
            {
                "start_time": 9.827272727272726,
                "end_time": 10.013636363636364,
                "pitch": 60,
                "velocity": 101,
                "duration": 0.1863636363636374,
                "tempo": 120.0
            },
            {
                "start_time": 10.029545454545454,
                "end_time": 10.213636363636363,
                "pitch": 62,
                "velocity": 101,
                "duration": 0.18409090909090864,
                "tempo": 120.0
            },
            {
                "start_time": 10.23181818181818,
                "end_time": 10.415909090909091,
                "pitch": 65,
                "velocity": 101,
                "duration": 0.18409090909091042,
                "tempo": 120.0
            },
            {
                "start_time": 10.431818181818182,
                "end_time": 10.818181818181818,
                "pitch": 67,
                "velocity": 101,
                "duration": 0.3863636363636367,
                "tempo": 120.0
            },
            {
                "start_time": 10.834090909090909,
                "end_time": 11.020454545454545,
                "pitch": 65,
                "velocity": 101,
                "duration": 0.18636363636363562,
                "tempo": 120.0
            },
            {
                "start_time": 11.036363636363635,
                "end_time": 11.420454545454545,
                "pitch": 70,
                "velocity": 101,
                "duration": 0.3840909090909097,
                "tempo": 120.0
            },
            {
                "start_time": 11.438636363636363,
                "end_time": 11.620454545454544,
                "pitch": 70,
                "velocity": 101,
                "duration": 0.18181818181818166,
                "tempo": 120.0
            },
            {
                "start_time": 11.638636363636364,
                "end_time": 12.022727272727272,
                "pitch": 69,
                "velocity": 101,
                "duration": 0.38409090909090793,
                "tempo": 120.0
            },
            {
                "start_time": 12.040909090909091,
                "end_time": 12.427272727272726,
                "pitch": 67,
                "velocity": 101,
                "duration": 0.3863636363636349,
                "tempo": 120.0
            },
            {
                "start_time": 12.443181818181818,
                "end_time": 12.829545454545453,
                "pitch": 65,
                "velocity": 101,
                "duration": 0.3863636363636349,
                "tempo": 120.0
            }
        ],
        "Church Organ": [
            {
                "start_time": 0.0,
                "end_time": 0.5840909090909091,
                "pitch": 41,
                "velocity": 51,
                "duration": 0.5840909090909091,
                "tempo": 120.0
            },
            {
                "start_time": 0.6,
                "end_time": 0.984090909090909,
                "pitch": 41,
                "velocity": 51,
                "duration": 0.38409090909090904,
                "tempo": 120.0
            },
            {
                "start_time": 1.0,
                "end_time": 1.184090909090909,
                "pitch": 36,
                "velocity": 51,
                "duration": 0.18409090909090908,
                "tempo": 120.0
            },
            {
                "start_time": 1.2,
                "end_time": 1.584090909090909,
                "pitch": 41,
                "velocity": 51,
                "duration": 0.38409090909090904,
                "tempo": 120.0
            },
            {
                "start_time": 1.5999999999999999,
                "end_time": 2.186363636363636,
                "pitch": 36,
                "velocity": 51,
                "duration": 0.5863636363636362,
                "tempo": 120.0
            },
            {
                "start_time": 2.202272727272727,
                "end_time": 2.5863636363636364,
                "pitch": 36,
                "velocity": 51,
                "duration": 0.38409090909090926,
                "tempo": 120.0
            },
            {
                "start_time": 2.602272727272727,
                "end_time": 2.786363636363636,
                "pitch": 43,
                "velocity": 51,
                "duration": 0.18409090909090908,
                "tempo": 120.0
            },
            {
                "start_time": 2.8022727272727272,
                "end_time": 2.9863636363636363,
                "pitch": 41,
                "velocity": 51,
                "duration": 0.18409090909090908,
                "tempo": 120.0
            },
            {
                "start_time": 3.002272727272727,
                "end_time": 3.186363636363636,
                "pitch": 40,
                "velocity": 51,
                "duration": 0.18409090909090908,
                "tempo": 120.0
            },
            {
                "start_time": 3.202272727272727,
                "end_time": 3.7886363636363636,
                "pitch": 34,
                "velocity": 51,
                "duration": 0.5863636363636364,
                "tempo": 120.0
            },
            {
                "start_time": 3.8045454545454542,
                "end_time": 4.1886363636363635,
                "pitch": 34,
                "velocity": 51,
                "duration": 0.38409090909090926,
                "tempo": 120.0
            },
            {
                "start_time": 4.204545454545454,
                "end_time": 4.388636363636364,
                "pitch": 34,
                "velocity": 51,
                "duration": 0.18409090909090953,
                "tempo": 120.0
            },
            {
                "start_time": 4.404545454545454,
                "end_time": 4.590909090909091,
                "pitch": 34,
                "velocity": 51,
                "duration": 0.1863636363636365,
                "tempo": 120.0
            },
            {
                "start_time": 4.6068181818181815,
                "end_time": 4.99090909090909,
                "pitch": 41,
                "velocity": 51,
                "duration": 0.3840909090909088,
                "tempo": 120.0
            },
            {
                "start_time": 5.009090909090909,
                "end_time": 5.1909090909090905,
                "pitch": 41,
                "velocity": 51,
                "duration": 0.18181818181818166,
                "tempo": 120.0
            },
            {
                "start_time": 5.209090909090909,
                "end_time": 5.593181818181818,
                "pitch": 41,
                "velocity": 51,
                "duration": 0.3840909090909088,
                "tempo": 120.0
            },
            {
                "start_time": 5.611363636363636,
                "end_time": 5.793181818181818,
                "pitch": 36,
                "velocity": 51,
                "duration": 0.18181818181818166,
                "tempo": 120.0
            },
            {
                "start_time": 5.8113636363636365,
                "end_time": 6.3977272727272725,
                "pitch": 41,
                "velocity": 51,
                "duration": 0.586363636363636,
                "tempo": 120.0
            },
            {
                "start_time": 6.413636363636363,
                "end_time": 7.0,
                "pitch": 41,
                "velocity": 51,
                "duration": 0.5863636363636369,
                "tempo": 120.0
            },
            {
                "start_time": 7.015909090909091,
                "end_time": 7.3999999999999995,
                "pitch": 41,
                "velocity": 51,
                "duration": 0.3840909090909088,
                "tempo": 120.0
            },
            {
                "start_time": 7.418181818181818,
                "end_time": 7.602272727272727,
                "pitch": 36,
                "velocity": 51,
                "duration": 0.18409090909090864,
                "tempo": 120.0
            },
            {
                "start_time": 7.618181818181818,
                "end_time": 8.002272727272727,
                "pitch": 41,
                "velocity": 51,
                "duration": 0.3840909090909088,
                "tempo": 120.0
            },
            {
                "start_time": 8.018181818181818,
                "end_time": 8.60681818181818,
                "pitch": 36,
                "velocity": 51,
                "duration": 0.588636363636363,
                "tempo": 120.0
            },
            {
                "start_time": 8.622727272727273,
                "end_time": 9.009090909090908,
                "pitch": 36,
                "velocity": 51,
                "duration": 0.3863636363636349,
                "tempo": 120.0
            },
            {
                "start_time": 9.025,
                "end_time": 9.209090909090909,
                "pitch": 43,
                "velocity": 51,
                "duration": 0.18409090909090864,
                "tempo": 120.0
            },
            {
                "start_time": 9.227272727272727,
                "end_time": 9.409090909090908,
                "pitch": 41,
                "velocity": 51,
                "duration": 0.18181818181818166,
                "tempo": 120.0
            },
            {
                "start_time": 9.427272727272728,
                "end_time": 9.60909090909091,
                "pitch": 40,
                "velocity": 51,
                "duration": 0.18181818181818166,
                "tempo": 120.0
            },
            {
                "start_time": 9.627272727272727,
                "end_time": 10.213636363636363,
                "pitch": 34,
                "velocity": 51,
                "duration": 0.586363636363636,
                "tempo": 120.0
            },
            {
                "start_time": 10.23181818181818,
                "end_time": 10.61590909090909,
                "pitch": 34,
                "velocity": 51,
                "duration": 0.3840909090909097,
                "tempo": 120.0
            },
            {
                "start_time": 10.634090909090908,
                "end_time": 10.818181818181818,
                "pitch": 34,
                "velocity": 51,
                "duration": 0.18409090909091042,
                "tempo": 120.0
            },
            {
                "start_time": 10.834090909090909,
                "end_time": 11.020454545454545,
                "pitch": 34,
                "velocity": 51,
                "duration": 0.18636363636363562,
                "tempo": 120.0
            },
            {
                "start_time": 11.036363636363635,
                "end_time": 11.420454545454545,
                "pitch": 41,
                "velocity": 51,
                "duration": 0.3840909090909097,
                "tempo": 120.0
            },
            {
                "start_time": 11.438636363636363,
                "end_time": 11.620454545454544,
                "pitch": 41,
                "velocity": 51,
                "duration": 0.18181818181818166,
                "tempo": 120.0
            },
            {
                "start_time": 11.638636363636364,
                "end_time": 12.022727272727272,
                "pitch": 41,
                "velocity": 51,
                "duration": 0.38409090909090793,
                "tempo": 120.0
            },
            {
                "start_time": 12.040909090909091,
                "end_time": 12.427272727272726,
                "pitch": 36,
                "velocity": 51,
                "duration": 0.3863636363636349,
                "tempo": 120.0
            },
            {
                "start_time": 12.443181818181818,
                "end_time": 12.829545454545453,
                "pitch": 41,
                "velocity": 51,
                "duration": 0.3863636363636349,
                "tempo": 120.0
            },
            {
                "start_time": 12.845454545454546,
                "end_time": 13.431818181818182,
                "pitch": 43,
                "velocity": 51,
                "duration": 0.586363636363636,
                "tempo": 120.0
            },
            {
                "start_time": 13.447727272727272,
                "end_time": 13.734090909090908,
                "pitch": 38,
                "velocity": 51,
                "duration": 0.28636363636363527,
                "tempo": 120.0
            },
            {
                "start_time": 13.75,
                "end_time": 14.238636363636363,
                "pitch": 38,
                "velocity": 51,
                "duration": 0.4886363636363633,
                "tempo": 120.0
            },
            {
                "start_time": 14.254545454545454,
                "end_time": 14.636363636363635,
                "pitch": 43,
                "velocity": 51,
                "duration": 0.38181818181818095,
                "tempo": 120.0
            },
            {
                "start_time": 14.652272727272727,
                "end_time": 14.836363636363636,
                "pitch": 43,
                "velocity": 51,
                "duration": 0.18409090909090864,
                "tempo": 120.0
            },
            {
                "start_time": 14.854545454545454,
                "end_time": 15.238636363636363,
                "pitch": 43,
                "velocity": 51,
                "duration": 0.3840909090909097,
                "tempo": 120.0
            },
            {
                "start_time": 15.256818181818181,
                "end_time": 15.445454545454545,
                "pitch": 43,
                "velocity": 51,
                "duration": 0.18863636363636438,
                "tempo": 120.0
            },
            {
                "start_time": 15.461363636363636,
                "end_time": 15.847727272727273,
                "pitch": 38,
                "velocity": 51,
                "duration": 0.3863636363636367,
                "tempo": 120.0
            },
            {
                "start_time": 15.863636363636363,
                "end_time": 16.043181818181818,
                "pitch": 38,
                "velocity": 51,
                "duration": 0.17954545454545467,
                "tempo": 120.0
            },
            {
                "start_time": 16.05909090909091,
                "end_time": 16.645454545454545,
                "pitch": 34,
                "velocity": 51,
                "duration": 0.586363636363636,
                "tempo": 120.0
            },
            {
                "start_time": 16.661363636363635,
                "end_time": 17.05,
                "pitch": 34,
                "velocity": 51,
                "duration": 0.38863636363636545,
                "tempo": 120.0
            },
            {
                "start_time": 17.068181818181817,
                "end_time": 17.256818181818183,
                "pitch": 41,
                "velocity": 51,
                "duration": 0.18863636363636616,
                "tempo": 120.0
            },
            {
                "start_time": 17.272727272727273,
                "end_time": 17.452272727272728,
                "pitch": 34,
                "velocity": 51,
                "duration": 0.17954545454545467,
                "tempo": 120.0
            },
            {
                "start_time": 17.46818181818182,
                "end_time": 17.849999999999998,
                "pitch": 36,
                "velocity": 51,
                "duration": 0.38181818181817917,
                "tempo": 120.0
            },
            {
                "start_time": 17.86590909090909,
                "end_time": 18.05,
                "pitch": 36,
                "velocity": 51,
                "duration": 0.1840909090909122,
                "tempo": 120.0
            },
            {
                "start_time": 18.068181818181817,
                "end_time": 18.45,
                "pitch": 36,
                "velocity": 51,
                "duration": 0.3818181818181827,
                "tempo": 120.0
            },
            {
                "start_time": 18.46818181818182,
                "end_time": 18.861363636363635,
                "pitch": 43,
                "velocity": 51,
                "duration": 0.39318181818181586,
                "tempo": 120.0
            },
            {
                "start_time": 18.877272727272725,
                "end_time": 19.254545454545454,
                "pitch": 36,
                "velocity": 51,
                "duration": 0.37727272727272876,
                "tempo": 120.0
            },
            {
                "start_time": 19.270454545454545,
                "end_time": 19.854545454545452,
                "pitch": 43,
                "velocity": 51,
                "duration": 0.5840909090909072,
                "tempo": 120.0
            },
            {
                "start_time": 19.87272727272727,
                "end_time": 20.05681818181818,
                "pitch": 43,
                "velocity": 51,
                "duration": 0.18409090909090864,
                "tempo": 120.0
            },
            {
                "start_time": 20.07272727272727,
                "end_time": 20.663636363636364,
                "pitch": 43,
                "velocity": 51,
                "duration": 0.5909090909090935,
                "tempo": 120.0
            },
            {
                "start_time": 20.679545454545455,
                "end_time": 21.061363636363634,
                "pitch": 38,
                "velocity": 51,
                "duration": 0.38181818181817917,
                "tempo": 120.0
            },
            {
                "start_time": 21.077272727272724,
                "end_time": 21.261363636363637,
                "pitch": 43,
                "velocity": 51,
                "duration": 0.1840909090909122,
                "tempo": 120.0
            },
            {
                "start_time": 21.279545454545453,
                "end_time": 21.661363636363635,
                "pitch": 43,
                "velocity": 51,
                "duration": 0.3818181818181827,
                "tempo": 120.0
            },
            {
                "start_time": 21.679545454545455,
                "end_time": 21.86590909090909,
                "pitch": 43,
                "velocity": 51,
                "duration": 0.18636363636363384,
                "tempo": 120.0
            },
            {
                "start_time": 21.884090909090908,
                "end_time": 22.268181818181816,
                "pitch": 38,
                "velocity": 51,
                "duration": 0.38409090909090793,
                "tempo": 120.0
            },
            {
                "start_time": 22.286363636363635,
                "end_time": 22.46590909090909,
                "pitch": 38,
                "velocity": 51,
                "duration": 0.17954545454545467,
                "tempo": 120.0
            },
            {
                "start_time": 22.48181818181818,
                "end_time": 22.86590909090909,
                "pitch": 34,
                "velocity": 51,
                "duration": 0.38409090909090793,
                "tempo": 120.0
            },
            {
                "start_time": 22.88181818181818,
                "end_time": 23.268181818181816,
                "pitch": 34,
                "velocity": 51,
                "duration": 0.3863636363636367,
                "tempo": 120.0
            },
            {
                "start_time": 23.284090909090907,
                "end_time": 23.677272727272726,
                "pitch": 34,
                "velocity": 51,
                "duration": 0.3931818181818194,
                "tempo": 120.0
            },
            {
                "start_time": 23.695454545454545,
                "end_time": 24.070454545454545,
                "pitch": 34,
                "velocity": 51,
                "duration": 0.375,
                "tempo": 120.0
            },
            {
                "start_time": 24.086363636363636,
                "end_time": 24.470454545454544,
                "pitch": 43,
                "velocity": 51,
                "duration": 0.38409090909090793,
                "tempo": 120.0
            },
            {
                "start_time": 24.486363636363635,
                "end_time": 24.870454545454542,
                "pitch": 40,
                "velocity": 51,
                "duration": 0.38409090909090793,
                "tempo": 120.0
            },
            {
                "start_time": 24.886363636363637,
                "end_time": 25.27272727272727,
                "pitch": 36,
                "velocity": 51,
                "duration": 0.38636363636363313,
                "tempo": 120.0
            },
            {
                "start_time": 25.29090909090909,
                "end_time": 25.875,
                "pitch": 36,
                "velocity": 51,
                "duration": 0.5840909090909108,
                "tempo": 120.0
            },
            {
                "start_time": 25.89090909090909,
                "end_time": 26.075,
                "pitch": 36,
                "velocity": 51,
                "duration": 0.18409090909090864,
                "tempo": 120.0
            },
            {
                "start_time": 26.093181818181815,
                "end_time": 26.474999999999998,
                "pitch": 36,
                "velocity": 51,
                "duration": 0.3818181818181827,
                "tempo": 120.0
            },
            {
                "start_time": 26.493181818181817,
                "end_time": 26.875,
                "pitch": 36,
                "velocity": 51,
                "duration": 0.3818181818181827,
                "tempo": 120.0
            },
            {
                "start_time": 26.893181818181816,
                "end_time": 27.279545454545453,
                "pitch": 36,
                "velocity": 51,
                "duration": 0.3863636363636367,
                "tempo": 120.0
            }
        ],
        "Acoustic Grand Piano": [
            {
                "start_time": 0.0,
                "end_time": 0.5840909090909091,
                "pitch": 65,
                "velocity": 51,
                "duration": 0.5840909090909091,
                "tempo": 120.0
            },
            {
                "start_time": 0.6,
                "end_time": 1.184090909090909,
                "pitch": 60,
                "velocity": 51,
                "duration": 0.5840909090909091,
                "tempo": 120.0
            },
            {
                "start_time": 1.2,
                "end_time": 1.584090909090909,
                "pitch": 65,
                "velocity": 51,
                "duration": 0.38409090909090904,
                "tempo": 120.0
            },
            {
                "start_time": 1.5999999999999999,
                "end_time": 2.186363636363636,
                "pitch": 64,
                "velocity": 51,
                "duration": 0.5863636363636362,
                "tempo": 120.0
            },
            {
                "start_time": 2.202272727272727,
                "end_time": 3.186363636363636,
                "pitch": 60,
                "velocity": 51,
                "duration": 0.9840909090909089,
                "tempo": 120.0
            },
            {
                "start_time": 3.202272727272727,
                "end_time": 3.7886363636363636,
                "pitch": 62,
                "velocity": 51,
                "duration": 0.5863636363636364,
                "tempo": 120.0
            },
            {
                "start_time": 3.8045454545454542,
                "end_time": 4.388636363636364,
                "pitch": 58,
                "velocity": 51,
                "duration": 0.5840909090909094,
                "tempo": 120.0
            },
            {
                "start_time": 4.404545454545454,
                "end_time": 4.590909090909091,
                "pitch": 62,
                "velocity": 51,
                "duration": 0.1863636363636365,
                "tempo": 120.0
            },
            {
                "start_time": 4.6068181818181815,
                "end_time": 4.99090909090909,
                "pitch": 65,
                "velocity": 51,
                "duration": 0.3840909090909088,
                "tempo": 120.0
            },
            {
                "start_time": 5.009090909090909,
                "end_time": 5.1909090909090905,
                "pitch": 65,
                "velocity": 51,
                "duration": 0.18181818181818166,
                "tempo": 120.0
            },
            {
                "start_time": 5.209090909090909,
                "end_time": 5.593181818181818,
                "pitch": 64,
                "velocity": 51,
                "duration": 0.3840909090909088,
                "tempo": 120.0
            },
            {
                "start_time": 5.611363636363636,
                "end_time": 5.793181818181818,
                "pitch": 62,
                "velocity": 51,
                "duration": 0.18181818181818166,
                "tempo": 120.0
            },
            {
                "start_time": 5.8113636363636365,
                "end_time": 6.3977272727272725,
                "pitch": 64,
                "velocity": 51,
                "duration": 0.586363636363636,
                "tempo": 120.0
            },
            {
                "start_time": 6.413636363636363,
                "end_time": 7.0,
                "pitch": 65,
                "velocity": 51,
                "duration": 0.5863636363636369,
                "tempo": 120.0
            },
            {
                "start_time": 7.015909090909091,
                "end_time": 7.602272727272727,
                "pitch": 60,
                "velocity": 51,
                "duration": 0.586363636363636,
                "tempo": 120.0
            },
            {
                "start_time": 7.618181818181818,
                "end_time": 8.002272727272727,
                "pitch": 65,
                "velocity": 51,
                "duration": 0.3840909090909088,
                "tempo": 120.0
            },
            {
                "start_time": 8.018181818181818,
                "end_time": 8.60681818181818,
                "pitch": 64,
                "velocity": 51,
                "duration": 0.588636363636363,
                "tempo": 120.0
            },
            {
                "start_time": 8.622727272727273,
                "end_time": 9.60909090909091,
                "pitch": 60,
                "velocity": 51,
                "duration": 0.9863636363636363,
                "tempo": 120.0
            },
            {
                "start_time": 9.627272727272727,
                "end_time": 10.213636363636363,
                "pitch": 62,
                "velocity": 51,
                "duration": 0.586363636363636,
                "tempo": 120.0
            },
            {
                "start_time": 10.23181818181818,
                "end_time": 10.818181818181818,
                "pitch": 58,
                "velocity": 51,
                "duration": 0.5863636363636378,
                "tempo": 120.0
            },
            {
                "start_time": 10.834090909090909,
                "end_time": 11.020454545454545,
                "pitch": 62,
                "velocity": 51,
                "duration": 0.18636363636363562,
                "tempo": 120.0
            },
            {
                "start_time": 11.036363636363635,
                "end_time": 11.420454545454545,
                "pitch": 65,
                "velocity": 51,
                "duration": 0.3840909090909097,
                "tempo": 120.0
            },
            {
                "start_time": 11.438636363636363,
                "end_time": 11.620454545454544,
                "pitch": 65,
                "velocity": 51,
                "duration": 0.18181818181818166,
                "tempo": 120.0
            },
            {
                "start_time": 11.638636363636364,
                "end_time": 12.022727272727272,
                "pitch": 64,
                "velocity": 51,
                "duration": 0.38409090909090793,
                "tempo": 120.0
            },
            {
                "start_time": 12.040909090909091,
                "end_time": 12.427272727272726,
                "pitch": 62,
                "velocity": 51,
                "duration": 0.3863636363636349,
                "tempo": 120.0
            },
            {
                "start_time": 12.443181818181818,
                "end_time": 12.829545454545453,
                "pitch": 60,
                "velocity": 51,
                "duration": 0.3863636363636349,
                "tempo": 120.0
            },
            {
                "start_time": 12.845454545454546,
                "end_time": 13.431818181818182,
                "pitch": 67,
                "velocity": 51,
                "duration": 0.586363636363636,
                "tempo": 120.0
            },
            {
                "start_time": 13.447727272727272,
                "end_time": 14.040909090909091,
                "pitch": 67,
                "velocity": 51,
                "duration": 0.5931818181818187,
                "tempo": 120.0
            },
            {
                "start_time": 14.059090909090909,
                "end_time": 14.434090909090909,
                "pitch": 58,
                "velocity": 51,
                "duration": 0.375,
                "tempo": 120.0
            },
            {
                "start_time": 14.452272727272726,
                "end_time": 14.636363636363635,
                "pitch": 67,
                "velocity": 51,
                "duration": 0.18409090909090864,
                "tempo": 120.0
            },
            {
                "start_time": 14.652272727272727,
                "end_time": 15.238636363636363,
                "pitch": 62,
                "velocity": 51,
                "duration": 0.586363636363636,
                "tempo": 120.0
            },
            {
                "start_time": 15.256818181818181,
                "end_time": 15.649999999999999,
                "pitch": 58,
                "velocity": 51,
                "duration": 0.39318181818181763,
                "tempo": 120.0
            },
            {
                "start_time": 15.668181818181818,
                "end_time": 16.043181818181818,
                "pitch": 62,
                "velocity": 51,
                "duration": 0.375,
                "tempo": 120.0
            },
            {
                "start_time": 16.05909090909091,
                "end_time": 17.05,
                "pitch": 64,
                "velocity": 51,
                "duration": 0.9909090909090921,
                "tempo": 120.0
            },
            {
                "start_time": 17.068181818181817,
                "end_time": 17.256818181818183,
                "pitch": 65,
                "velocity": 51,
                "duration": 0.18863636363636616,
                "tempo": 120.0
            },
            {
                "start_time": 17.272727272727273,
                "end_time": 17.452272727272728,
                "pitch": 64,
                "velocity": 51,
                "duration": 0.17954545454545467,
                "tempo": 120.0
            },
            {
                "start_time": 17.46818181818182,
                "end_time": 18.05,
                "pitch": 62,
                "velocity": 51,
                "duration": 0.581818181818182,
                "tempo": 120.0
            },
            {
                "start_time": 18.068181818181817,
                "end_time": 18.45,
                "pitch": 60,
                "velocity": 51,
                "duration": 0.3818181818181827,
                "tempo": 120.0
            },
            {
                "start_time": 18.46818181818182,
                "end_time": 18.65681818181818,
                "pitch": 62,
                "velocity": 51,
                "duration": 0.1886363636363626,
                "tempo": 120.0
            },
            {
                "start_time": 18.672727272727272,
                "end_time": 19.254545454545454,
                "pitch": 64,
                "velocity": 51,
                "duration": 0.581818181818182,
                "tempo": 120.0
            },
            {
                "start_time": 19.270454545454545,
                "end_time": 19.854545454545452,
                "pitch": 67,
                "velocity": 51,
                "duration": 0.5840909090909072,
                "tempo": 120.0
            },
            {
                "start_time": 19.87272727272727,
                "end_time": 20.46590909090909,
                "pitch": 67,
                "velocity": 51,
                "duration": 0.5931818181818187,
                "tempo": 120.0
            },
            {
                "start_time": 20.48409090909091,
                "end_time": 20.85909090909091,
                "pitch": 58,
                "velocity": 51,
                "duration": 0.375,
                "tempo": 120.0
            },
            {
                "start_time": 20.875,
                "end_time": 21.061363636363634,
                "pitch": 67,
                "velocity": 51,
                "duration": 0.18636363636363384,
                "tempo": 120.0
            },
            {
                "start_time": 21.077272727272724,
                "end_time": 21.661363636363635,
                "pitch": 62,
                "velocity": 51,
                "duration": 0.5840909090909108,
                "tempo": 120.0
            },
            {
                "start_time": 21.679545454545455,
                "end_time": 22.07272727272727,
                "pitch": 58,
                "velocity": 51,
                "duration": 0.39318181818181586,
                "tempo": 120.0
            },
            {
                "start_time": 22.08863636363636,
                "end_time": 22.46590909090909,
                "pitch": 62,
                "velocity": 51,
                "duration": 0.37727272727272876,
                "tempo": 120.0
            },
            {
                "start_time": 22.48181818181818,
                "end_time": 23.06590909090909,
                "pitch": 67,
                "velocity": 51,
                "duration": 0.5840909090909108,
                "tempo": 120.0
            },
            {
                "start_time": 23.084090909090907,
                "end_time": 23.677272727272726,
                "pitch": 67,
                "velocity": 51,
                "duration": 0.5931818181818187,
                "tempo": 120.0
            },
            {
                "start_time": 23.695454545454545,
                "end_time": 24.070454545454545,
                "pitch": 64,
                "velocity": 51,
                "duration": 0.375,
                "tempo": 120.0
            },
            {
                "start_time": 24.086363636363636,
                "end_time": 24.470454545454544,
                "pitch": 65,
                "velocity": 51,
                "duration": 0.38409090909090793,
                "tempo": 120.0
            },
            {
                "start_time": 24.486363636363635,
                "end_time": 24.870454545454542,
                "pitch": 67,
                "velocity": 51,
                "duration": 0.38409090909090793,
                "tempo": 120.0
            },
            {
                "start_time": 24.886363636363637,
                "end_time": 25.27272727272727,
                "pitch": 64,
                "velocity": 51,
                "duration": 0.38636363636363313,
                "tempo": 120.0
            },
            {
                "start_time": 25.29090909090909,
                "end_time": 25.875,
                "pitch": 60,
                "velocity": 51,
                "duration": 0.5840909090909108,
                "tempo": 120.0
            },
            {
                "start_time": 25.89090909090909,
                "end_time": 26.075,
                "pitch": 67,
                "velocity": 51,
                "duration": 0.18409090909090864,
                "tempo": 120.0
            },
            {
                "start_time": 26.093181818181815,
                "end_time": 26.474999999999998,
                "pitch": 67,
                "velocity": 51,
                "duration": 0.3818181818181827,
                "tempo": 120.0
            },
            {
                "start_time": 26.493181818181817,
                "end_time": 26.875,
                "pitch": 67,
                "velocity": 51,
                "duration": 0.3818181818181827,
                "tempo": 120.0
            },
            {
                "start_time": 26.893181818181816,
                "end_time": 27.279545454545453,
                "pitch": 67,
                "velocity": 51,
                "duration": 0.3863636363636367,
                "tempo": 120.0
            }
        ]
    }
}