{
    "track_id": "Phantasy Star (FM) - 09 - Vehicle",
    "mood": "happy",
    "instruments": {
        "Church Organ": [
            {
                "start_time": 0.0,
                "end_time": 0.049999999999999996,
                "pitch": 62,
                "velocity": 80,
                "duration": 0.049999999999999996,
                "tempo": 120.0
            },
            {
                "start_time": 0.6,
                "end_time": 1.893181818181818,
                "pitch": 65,
                "velocity": 80,
                "duration": 1.293181818181818,
                "tempo": 120.0
            },
            {
                "start_time": 1.918181818181818,
                "end_time": 1.9931818181818182,
                "pitch": 62,
                "velocity": 80,
                "duration": 0.07500000000000018,
                "tempo": 120.0
            },
            {
                "start_time": 2.827272727272727,
                "end_time": 4.261363636363636,
                "pitch": 65,
                "velocity": 80,
                "duration": 1.4340909090909086,
                "tempo": 120.0
            },
            {
                "start_time": 4.9386363636363635,
                "end_time": 5.5204545454545455,
                "pitch": 67,
                "velocity": 80,
                "duration": 0.581818181818182,
                "tempo": 120.0
            },
            {
                "start_time": 5.545454545454545,
                "end_time": 6.113636363636363,
                "pitch": 67,
                "velocity": 80,
                "duration": 0.5681818181818183,
                "tempo": 120.0
            },
            {
                "start_time": 6.138636363636364,
                "end_time": 6.411363636363636,
                "pitch": 67,
                "velocity": 80,
                "duration": 0.2727272727272725,
                "tempo": 120.0
            },
            {
                "start_time": 6.436363636363636,
                "end_time": 7.0227272727272725,
                "pitch": 67,
                "velocity": 80,
                "duration": 0.5863636363636369,
                "tempo": 120.0
            },
            {
                "start_time": 7.047727272727272,
                "end_time": 7.329545454545454,
                "pitch": 62,
                "velocity": 80,
                "duration": 0.2818181818181822,
                "tempo": 120.0
            },
            {
                "start_time": 7.3545454545454545,
                "end_time": 7.631818181818182,
                "pitch": 62,
                "velocity": 80,
                "duration": 0.27727272727272734,
                "tempo": 120.0
            },
            {
                "start_time": 9.163636363636364,
                "end_time": 9.188636363636363,
                "pitch": 62,
                "velocity": 80,
                "duration": 0.02499999999999858,
                "tempo": 120.0
            },
            {
                "start_time": 10.072727272727272,
                "end_time": 11.547727272727272,
                "pitch": 65,
                "velocity": 80,
                "duration": 1.4749999999999996,
                "tempo": 120.0
            },
            {
                "start_time": 11.572727272727272,
                "end_time": 11.588636363636363,
                "pitch": 62,
                "velocity": 80,
                "duration": 0.01590909090909065,
                "tempo": 120.0
            },
            {
                "start_time": 12.170454545454545,
                "end_time": 13.093181818181817,
                "pitch": 65,
                "velocity": 80,
                "duration": 0.922727272727272,
                "tempo": 120.0
            },
            {
                "start_time": 13.570454545454545,
                "end_time": 13.956818181818182,
                "pitch": 60,
                "velocity": 80,
                "duration": 0.3863636363636367,
                "tempo": 120.0
            },
            {
                "start_time": 13.972727272727273,
                "end_time": 14.368181818181817,
                "pitch": 60,
                "velocity": 80,
                "duration": 0.3954545454545446,
                "tempo": 120.0
            },
            {
                "start_time": 14.384090909090908,
                "end_time": 14.563636363636363,
                "pitch": 60,
                "velocity": 80,
                "duration": 0.17954545454545467,
                "tempo": 120.0
            },
            {
                "start_time": 14.579545454545453,
                "end_time": 14.961363636363636,
                "pitch": 62,
                "velocity": 80,
                "duration": 0.3818181818181827,
                "tempo": 120.0
            },
            {
                "start_time": 14.977272727272727,
                "end_time": 15.161363636363635,
                "pitch": 62,
                "velocity": 80,
                "duration": 0.18409090909090864,
                "tempo": 120.0
            },
            {
                "start_time": 15.179545454545455,
                "end_time": 15.297727272727272,
                "pitch": 62,
                "velocity": 80,
                "duration": 0.11818181818181728,
                "tempo": 120.0
            },
            {
                "start_time": 16.384090909090908,
                "end_time": 16.436363636363634,
                "pitch": 62,
                "velocity": 80,
                "duration": 0.052272727272725916,
                "tempo": 120.0
            },
            {
                "start_time": 16.99090909090909,
                "end_time": 17.98409090909091,
                "pitch": 65,
                "velocity": 80,
                "duration": 0.9931818181818208,
                "tempo": 120.0
            },
            {
                "start_time": 18.0,
                "end_time": 18.052272727272726,
                "pitch": 62,
                "velocity": 80,
                "duration": 0.052272727272725916,
                "tempo": 120.0
            },
            {
                "start_time": 18.599999999999998,
                "end_time": 19.55909090909091,
                "pitch": 65,
                "velocity": 80,
                "duration": 0.9590909090909108,
                "tempo": 120.0
            },
            {
                "start_time": 20.002272727272725,
                "end_time": 20.386363636363637,
                "pitch": 67,
                "velocity": 80,
                "duration": 0.3840909090909115,
                "tempo": 120.0
            },
            {
                "start_time": 20.404545454545453,
                "end_time": 20.786363636363635,
                "pitch": 67,
                "velocity": 80,
                "duration": 0.3818181818181827,
                "tempo": 120.0
            },
            {
                "start_time": 20.804545454545455,
                "end_time": 20.988636363636363,
                "pitch": 67,
                "velocity": 80,
                "duration": 0.18409090909090864,
                "tempo": 120.0
            },
            {
                "start_time": 21.004545454545454,
                "end_time": 21.39090909090909,
                "pitch": 67,
                "velocity": 80,
                "duration": 0.3863636363636367,
                "tempo": 120.0
            },
            {
                "start_time": 21.40681818181818,
                "end_time": 21.59090909090909,
                "pitch": 62,
                "velocity": 80,
                "duration": 0.18409090909090864,
                "tempo": 120.0
            },
            {
                "start_time": 21.60681818181818,
                "end_time": 21.795454545454543,
                "pitch": 62,
                "velocity": 80,
                "duration": 0.1886363636363626,
                "tempo": 120.0
            },
            {
                "start_time": 22.80909090909091,
                "end_time": 22.827272727272724,
                "pitch": 62,
                "velocity": 80,
                "duration": 0.018181818181815856,
                "tempo": 120.0
            },
            {
                "start_time": 23.422727272727272,
                "end_time": 24.409090909090907,
                "pitch": 65,
                "velocity": 80,
                "duration": 0.9863636363636346,
                "tempo": 120.0
            },
            {
                "start_time": 24.427272727272726,
                "end_time": 24.443181818181817,
                "pitch": 62,
                "velocity": 80,
                "duration": 0.01590909090909065,
                "tempo": 120.0
            },
            {
                "start_time": 25.025,
                "end_time": 25.945454545454545,
                "pitch": 65,
                "velocity": 80,
                "duration": 0.9204545454545467,
                "tempo": 120.0
            },
            {
                "start_time": 26.422727272727272,
                "end_time": 26.80681818181818,
                "pitch": 60,
                "velocity": 80,
                "duration": 0.38409090909090793,
                "tempo": 120.0
            },
            {
                "start_time": 26.82272727272727,
                "end_time": 27.227272727272727,
                "pitch": 60,
                "velocity": 80,
                "duration": 0.4045454545454561,
                "tempo": 120.0
            },
            {
                "start_time": 27.245454545454542,
                "end_time": 27.424999999999997,
                "pitch": 60,
                "velocity": 80,
                "duration": 0.17954545454545467,
                "tempo": 120.0
            },
            {
                "start_time": 27.440909090909088,
                "end_time": 27.818181818181817,
                "pitch": 62,
                "velocity": 80,
                "duration": 0.37727272727272876,
                "tempo": 120.0
            },
            {
                "start_time": 27.834090909090907,
                "end_time": 28.013636363636362,
                "pitch": 62,
                "velocity": 80,
                "duration": 0.17954545454545467,
                "tempo": 120.0
            },
            {
                "start_time": 28.029545454545453,
                "end_time": 28.625,
                "pitch": 62,
                "velocity": 80,
                "duration": 0.5954545454545475,
                "tempo": 120.0
            },
            {
                "start_time": 28.643181818181816,
                "end_time": 28.827272727272724,
                "pitch": 62,
                "velocity": 80,
                "duration": 0.18409090909090864,
                "tempo": 120.0
            },
            {
                "start_time": 28.843181818181815,
                "end_time": 29.027272727272727,
                "pitch": 62,
                "velocity": 80,
                "duration": 0.1840909090909122,
                "tempo": 120.0
            },
            {
                "start_time": 29.043181818181818,
                "end_time": 29.227272727272727,
                "pitch": 62,
                "velocity": 80,
                "duration": 0.18409090909090864,
                "tempo": 120.0
            },
            {
                "start_time": 29.243181818181817,
                "end_time": 30.831818181818182,
                "pitch": 64,
                "velocity": 80,
                "duration": 1.5886363636363647,
                "tempo": 120.0
            },
            {
                "start_time": 30.849999999999998,
                "end_time": 31.03181818181818,
                "pitch": 65,
                "velocity": 80,
                "duration": 0.18181818181818343,
                "tempo": 120.0
            },
            {
                "start_time": 31.049999999999997,
                "end_time": 31.43409090909091,
                "pitch": 64,
                "velocity": 80,
                "duration": 0.3840909090909115,
                "tempo": 120.0
            },
            {
                "start_time": 31.45,
                "end_time": 33.23863636363636,
                "pitch": 64,
                "velocity": 80,
                "duration": 1.7886363636363605,
                "tempo": 120.0
            },
            {
                "start_time": 33.25454545454545,
                "end_time": 34.04090909090909,
                "pitch": 65,
                "velocity": 80,
                "duration": 0.7863636363636388,
                "tempo": 120.0
            },
            {
                "start_time": 34.05681818181818,
                "end_time": 35.64545454545454,
                "pitch": 65,
                "velocity": 80,
                "duration": 1.5886363636363612,
                "tempo": 120.0
            },
            {
                "start_time": 35.663636363636364,
                "end_time": 37.24772727272727,
                "pitch": 62,
                "velocity": 80,
                "duration": 1.5840909090909037,
                "tempo": 120.0
            },
            {
                "start_time": 37.26590909090909,
                "end_time": 37.84772727272727,
                "pitch": 62,
                "velocity": 80,
                "duration": 0.5818181818181785,
                "tempo": 120.0
            },
            {
                "start_time": 37.86590909090909,
                "end_time": 39.05,
                "pitch": 62,
                "velocity": 80,
                "duration": 1.184090909090905,
                "tempo": 120.0
            },
            {
                "start_time": 39.06590909090909,
                "end_time": 39.25,
                "pitch": 60,
                "velocity": 80,
                "duration": 0.1840909090909122,
                "tempo": 120.0
            },
            {
                "start_time": 39.268181818181816,
                "end_time": 39.652272727272724,
                "pitch": 60,
                "velocity": 80,
                "duration": 0.38409090909090793,
                "tempo": 120.0
            },
            {
                "start_time": 39.668181818181814,
                "end_time": 40.018181818181816,
                "pitch": 60,
                "velocity": 80,
                "duration": 0.3500000000000014,
                "tempo": 120.0
            },
            {
                "start_time": 40.03409090909091,
                "end_time": 40.252272727272725,
                "pitch": 60,
                "velocity": 80,
                "duration": 0.2181818181818187,
                "tempo": 120.0
            },
            {
                "start_time": 40.268181818181816,
                "end_time": 40.652272727272724,
                "pitch": 62,
                "velocity": 80,
                "duration": 0.38409090909090793,
                "tempo": 120.0
            },
            {
                "start_time": 40.668181818181814,
                "end_time": 40.81818181818181,
                "pitch": 62,
                "velocity": 80,
                "duration": 0.14999999999999858,
                "tempo": 120.0
            },
            {
                "start_time": 40.834090909090904,
                "end_time": 41.220454545454544,
                "pitch": 62,
                "velocity": 80,
                "duration": 0.38636363636364024,
                "tempo": 120.0
            },
            {
                "start_time": 41.236363636363635,
                "end_time": 41.65454545454545,
                "pitch": 64,
                "velocity": 80,
                "duration": 0.41818181818181444,
                "tempo": 120.0
            },
            {
                "start_time": 41.67045454545455,
                "end_time": 42.054545454545455,
                "pitch": 64,
                "velocity": 80,
                "duration": 0.38409090909090793,
                "tempo": 120.0
            }
        ],
        "Trumpet": [
            {
                "start_time": 29.243181818181817,
                "end_time": 30.831818181818182,
                "pitch": 71,
                "velocity": 64,
                "duration": 1.5886363636363647,
                "tempo": 120.0
            },
            {
                "start_time": 30.849999999999998,
                "end_time": 31.03181818181818,
                "pitch": 72,
                "velocity": 64,
                "duration": 0.18181818181818343,
                "tempo": 120.0
            },
            {
                "start_time": 31.049999999999997,
                "end_time": 31.43409090909091,
                "pitch": 71,
                "velocity": 64,
                "duration": 0.3840909090909115,
                "tempo": 120.0
            },
            {
                "start_time": 31.45,
                "end_time": 33.23863636363636,
                "pitch": 71,
                "velocity": 64,
                "duration": 1.7886363636363605,
                "tempo": 120.0
            },
            {
                "start_time": 33.25454545454545,
                "end_time": 34.04090909090909,
                "pitch": 72,
                "velocity": 64,
                "duration": 0.7863636363636388,
                "tempo": 120.0
            },
            {
                "start_time": 34.05681818181818,
                "end_time": 35.64545454545454,
                "pitch": 72,
                "velocity": 64,
                "duration": 1.5886363636363612,
                "tempo": 120.0
            },
            {
                "start_time": 35.663636363636364,
                "end_time": 37.24772727272727,
                "pitch": 69,
                "velocity": 64,
                "duration": 1.5840909090909037,
                "tempo": 120.0
            },
            {
                "start_time": 37.26590909090909,
                "end_time": 37.84772727272727,
                "pitch": 71,
                "velocity": 64,
                "duration": 0.5818181818181785,
                "tempo": 120.0
            },
            {
                "start_time": 37.86590909090909,
                "end_time": 39.05,
                "pitch": 71,
                "velocity": 64,
                "duration": 1.184090909090905,
                "tempo": 120.0
            },
            {
                "start_time": 39.06590909090909,
                "end_time": 39.25,
                "pitch": 67,
                "velocity": 64,
                "duration": 0.1840909090909122,
                "tempo": 120.0
            },
            {
                "start_time": 39.268181818181816,
                "end_time": 39.652272727272724,
                "pitch": 67,
                "velocity": 64,
                "duration": 0.38409090909090793,
                "tempo": 120.0
            },
            {
                "start_time": 39.668181818181814,
                "end_time": 40.05227272727272,
                "pitch": 67,
                "velocity": 64,
                "duration": 0.38409090909090793,
                "tempo": 120.0
            },
            {
                "start_time": 40.06818181818181,
                "end_time": 40.252272727272725,
                "pitch": 67,
                "velocity": 64,
                "duration": 0.1840909090909122,
                "tempo": 120.0
            },
            {
                "start_time": 40.268181818181816,
                "end_time": 40.652272727272724,
                "pitch": 69,
                "velocity": 64,
                "duration": 0.38409090909090793,
                "tempo": 120.0
            },
            {
                "start_time": 40.668181818181814,
                "end_time": 40.81818181818181,
                "pitch": 69,
                "velocity": 64,
                "duration": 0.14999999999999858,
                "tempo": 120.0
            },
            {
                "start_time": 40.834090909090904,
                "end_time": 41.25454545454545,
                "pitch": 69,
                "velocity": 64,
                "duration": 0.42045454545454675,
                "tempo": 120.0
            },
            {
                "start_time": 41.27045454545454,
                "end_time": 41.65454545454545,
                "pitch": 71,
                "velocity": 64,
                "duration": 0.38409090909090793,
                "tempo": 120.0
            },
            {
                "start_time": 41.67045454545455,
                "end_time": 42.054545454545455,
                "pitch": 71,
                "velocity": 64,
                "duration": 0.38409090909090793,
                "tempo": 120.0
            }
        ],
        "Electric Guitar (clean)": [
            {
                "start_time": 0.0,
                "end_time": 0.28409090909090906,
                "pitch": 38,
                "velocity": 51,
                "duration": 0.28409090909090906,
                "tempo": 120.0
            },
            {
                "start_time": 0.3,
                "end_time": 0.5840909090909091,
                "pitch": 38,
                "velocity": 51,
                "duration": 0.2840909090909091,
                "tempo": 120.0
            },
            {
                "start_time": 0.6,
                "end_time": 0.984090909090909,
                "pitch": 38,
                "velocity": 51,
                "duration": 0.38409090909090904,
                "tempo": 120.0
            },
            {
                "start_time": 1.0,
                "end_time": 1.2795454545454545,
                "pitch": 38,
                "velocity": 51,
                "duration": 0.27954545454545454,
                "tempo": 120.0
            },
            {
                "start_time": 1.3068181818181817,
                "end_time": 1.5863636363636362,
                "pitch": 38,
                "velocity": 51,
                "duration": 0.27954545454545454,
                "tempo": 120.0
            },
            {
                "start_time": 1.6113636363636363,
                "end_time": 1.893181818181818,
                "pitch": 38,
                "velocity": 51,
                "duration": 0.28181818181818175,
                "tempo": 120.0
            },
            {
                "start_time": 1.918181818181818,
                "end_time": 2.3477272727272727,
                "pitch": 38,
                "velocity": 51,
                "duration": 0.4295454545454547,
                "tempo": 120.0
            },
            {
                "start_time": 2.3727272727272726,
                "end_time": 2.8022727272727272,
                "pitch": 38,
                "velocity": 51,
                "duration": 0.4295454545454547,
                "tempo": 120.0
            },
            {
                "start_time": 2.827272727272727,
                "end_time": 3.4090909090909087,
                "pitch": 38,
                "velocity": 51,
                "duration": 0.5818181818181816,
                "tempo": 120.0
            },
            {
                "start_time": 3.434090909090909,
                "end_time": 3.711363636363636,
                "pitch": 38,
                "velocity": 51,
                "duration": 0.2772727272727269,
                "tempo": 120.0
            },
            {
                "start_time": 3.7363636363636363,
                "end_time": 4.011363636363636,
                "pitch": 38,
                "velocity": 51,
                "duration": 0.27499999999999947,
                "tempo": 120.0
            },
            {
                "start_time": 4.036363636363636,
                "end_time": 4.611363636363636,
                "pitch": 38,
                "velocity": 51,
                "duration": 0.5750000000000002,
                "tempo": 120.0
            },
            {
                "start_time": 4.9386363636363635,
                "end_time": 5.218181818181818,
                "pitch": 38,
                "velocity": 51,
                "duration": 0.2795454545454543,
                "tempo": 120.0
            },
            {
                "start_time": 5.243181818181818,
                "end_time": 5.5204545454545455,
                "pitch": 50,
                "velocity": 51,
                "duration": 0.27727272727272734,
                "tempo": 120.0
            },
            {
                "start_time": 5.545454545454545,
                "end_time": 5.818181818181818,
                "pitch": 50,
                "velocity": 51,
                "duration": 0.2727272727272734,
                "tempo": 120.0
            },
            {
                "start_time": 5.843181818181818,
                "end_time": 6.113636363636363,
                "pitch": 38,
                "velocity": 51,
                "duration": 0.2704545454545455,
                "tempo": 120.0
            },
            {
                "start_time": 6.138636363636364,
                "end_time": 6.411363636363636,
                "pitch": 38,
                "velocity": 51,
                "duration": 0.2727272727272725,
                "tempo": 120.0
            },
            {
                "start_time": 6.436363636363636,
                "end_time": 6.870454545454545,
                "pitch": 38,
                "velocity": 51,
                "duration": 0.4340909090909095,
                "tempo": 120.0
            },
            {
                "start_time": 6.8954545454545455,
                "end_time": 7.329545454545454,
                "pitch": 38,
                "velocity": 51,
                "duration": 0.43409090909090864,
                "tempo": 120.0
            },
            {
                "start_time": 7.3545454545454545,
                "end_time": 8.238636363636363,
                "pitch": 38,
                "velocity": 51,
                "duration": 0.8840909090909088,
                "tempo": 120.0
            },
            {
                "start_time": 8.263636363636364,
                "end_time": 8.538636363636364,
                "pitch": 36,
                "velocity": 51,
                "duration": 0.27500000000000036,
                "tempo": 120.0
            },
            {
                "start_time": 8.563636363636363,
                "end_time": 8.838636363636363,
                "pitch": 36,
                "velocity": 51,
                "duration": 0.27500000000000036,
                "tempo": 120.0
            },
            {
                "start_time": 8.863636363636363,
                "end_time": 9.138636363636364,
                "pitch": 36,
                "velocity": 51,
                "duration": 0.27500000000000036,
                "tempo": 120.0
            },
            {
                "start_time": 9.163636363636364,
                "end_time": 9.593181818181817,
                "pitch": 38,
                "velocity": 51,
                "duration": 0.4295454545454529,
                "tempo": 120.0
            },
            {
                "start_time": 9.618181818181817,
                "end_time": 10.047727272727272,
                "pitch": 38,
                "velocity": 51,
                "duration": 0.4295454545454547,
                "tempo": 120.0
            },
            {
                "start_time": 10.072727272727272,
                "end_time": 10.647727272727272,
                "pitch": 38,
                "velocity": 51,
                "duration": 0.5749999999999993,
                "tempo": 120.0
            },
            {
                "start_time": 10.672727272727272,
                "end_time": 10.947727272727272,
                "pitch": 38,
                "velocity": 51,
                "duration": 0.27500000000000036,
                "tempo": 120.0
            },
            {
                "start_time": 10.972727272727273,
                "end_time": 11.247727272727273,
                "pitch": 38,
                "velocity": 51,
                "duration": 0.27500000000000036,
                "tempo": 120.0
            },
            {
                "start_time": 11.272727272727272,
                "end_time": 11.547727272727272,
                "pitch": 38,
                "velocity": 51,
                "duration": 0.27500000000000036,
                "tempo": 120.0
            },
            {
                "start_time": 11.572727272727272,
                "end_time": 11.85909090909091,
                "pitch": 38,
                "velocity": 51,
                "duration": 0.28636363636363704,
                "tempo": 120.0
            },
            {
                "start_time": 11.875,
                "end_time": 12.154545454545454,
                "pitch": 38,
                "velocity": 51,
                "duration": 0.2795454545454543,
                "tempo": 120.0
            },
            {
                "start_time": 12.170454545454545,
                "end_time": 12.549999999999999,
                "pitch": 38,
                "velocity": 51,
                "duration": 0.37954545454545396,
                "tempo": 120.0
            },
            {
                "start_time": 12.568181818181818,
                "end_time": 12.649999999999999,
                "pitch": 38,
                "velocity": 51,
                "duration": 0.08181818181818024,
                "tempo": 120.0
            },
            {
                "start_time": 12.668181818181818,
                "end_time": 12.852272727272727,
                "pitch": 38,
                "velocity": 51,
                "duration": 0.18409090909090864,
                "tempo": 120.0
            },
            {
                "start_time": 12.870454545454544,
                "end_time": 13.259090909090908,
                "pitch": 38,
                "velocity": 51,
                "duration": 0.38863636363636367,
                "tempo": 120.0
            },
            {
                "start_time": 13.570454545454545,
                "end_time": 13.956818181818182,
                "pitch": 36,
                "velocity": 51,
                "duration": 0.3863636363636367,
                "tempo": 120.0
            },
            {
                "start_time": 13.972727272727273,
                "end_time": 14.368181818181817,
                "pitch": 36,
                "velocity": 51,
                "duration": 0.3954545454545446,
                "tempo": 120.0
            },
            {
                "start_time": 14.384090909090908,
                "end_time": 14.563636363636363,
                "pitch": 36,
                "velocity": 51,
                "duration": 0.17954545454545467,
                "tempo": 120.0
            },
            {
                "start_time": 14.579545454545453,
                "end_time": 14.961363636363636,
                "pitch": 38,
                "velocity": 51,
                "duration": 0.3818181818181827,
                "tempo": 120.0
            },
            {
                "start_time": 14.977272727272727,
                "end_time": 15.161363636363635,
                "pitch": 38,
                "velocity": 51,
                "duration": 0.18409090909090864,
                "tempo": 120.0
            },
            {
                "start_time": 15.179545454545455,
                "end_time": 15.774999999999999,
                "pitch": 38,
                "velocity": 51,
                "duration": 0.5954545454545439,
                "tempo": 120.0
            },
            {
                "start_time": 15.790909090909091,
                "end_time": 15.975,
                "pitch": 36,
                "velocity": 51,
                "duration": 0.18409090909090864,
                "tempo": 120.0
            },
            {
                "start_time": 15.993181818181817,
                "end_time": 16.172727272727272,
                "pitch": 36,
                "velocity": 51,
                "duration": 0.17954545454545467,
                "tempo": 120.0
            },
            {
                "start_time": 16.188636363636363,
                "end_time": 16.368181818181817,
                "pitch": 36,
                "velocity": 51,
                "duration": 0.17954545454545467,
                "tempo": 120.0
            },
            {
                "start_time": 16.384090909090908,
                "end_time": 16.675,
                "pitch": 38,
                "velocity": 51,
                "duration": 0.2909090909090928,
                "tempo": 120.0
            },
            {
                "start_time": 16.693181818181817,
                "end_time": 16.974999999999998,
                "pitch": 38,
                "velocity": 51,
                "duration": 0.2818181818181813,
                "tempo": 120.0
            },
            {
                "start_time": 16.99090909090909,
                "end_time": 17.37272727272727,
                "pitch": 38,
                "velocity": 51,
                "duration": 0.3818181818181827,
                "tempo": 120.0
            },
            {
                "start_time": 17.388636363636362,
                "end_time": 17.57272727272727,
                "pitch": 38,
                "velocity": 51,
                "duration": 0.18409090909090864,
                "tempo": 120.0
            },
            {
                "start_time": 17.59090909090909,
                "end_time": 17.779545454545453,
                "pitch": 38,
                "velocity": 51,
                "duration": 0.1886363636363626,
                "tempo": 120.0
            },
            {
                "start_time": 17.795454545454543,
                "end_time": 17.98409090909091,
                "pitch": 38,
                "velocity": 51,
                "duration": 0.18863636363636616,
                "tempo": 120.0
            },
            {
                "start_time": 18.0,
                "end_time": 18.286363636363635,
                "pitch": 38,
                "velocity": 51,
                "duration": 0.28636363636363527,
                "tempo": 120.0
            },
            {
                "start_time": 18.302272727272726,
                "end_time": 18.584090909090907,
                "pitch": 38,
                "velocity": 51,
                "duration": 0.2818181818181813,
                "tempo": 120.0
            },
            {
                "start_time": 18.599999999999998,
                "end_time": 18.979545454545455,
                "pitch": 38,
                "velocity": 51,
                "duration": 0.3795454545454575,
                "tempo": 120.0
            },
            {
                "start_time": 18.99772727272727,
                "end_time": 19.18181818181818,
                "pitch": 38,
                "velocity": 51,
                "duration": 0.18409090909090864,
                "tempo": 120.0
            },
            {
                "start_time": 19.19772727272727,
                "end_time": 19.386363636363637,
                "pitch": 38,
                "velocity": 51,
                "duration": 0.18863636363636616,
                "tempo": 120.0
            },
            {
                "start_time": 19.404545454545453,
                "end_time": 19.788636363636364,
                "pitch": 38,
                "velocity": 51,
                "duration": 0.3840909090909115,
                "tempo": 120.0
            },
            {
                "start_time": 20.002272727272725,
                "end_time": 20.186363636363634,
                "pitch": 38,
                "velocity": 51,
                "duration": 0.18409090909090864,
                "tempo": 120.0
            },
            {
                "start_time": 20.202272727272728,
                "end_time": 20.386363636363637,
                "pitch": 50,
                "velocity": 51,
                "duration": 0.18409090909090864,
                "tempo": 120.0
            },
            {
                "start_time": 20.404545454545453,
                "end_time": 20.586363636363636,
                "pitch": 50,
                "velocity": 51,
                "duration": 0.18181818181818343,
                "tempo": 120.0
            },
            {
                "start_time": 20.604545454545452,
                "end_time": 20.786363636363635,
                "pitch": 38,
                "velocity": 51,
                "duration": 0.18181818181818343,
                "tempo": 120.0
            },
            {
                "start_time": 20.804545454545455,
                "end_time": 20.988636363636363,
                "pitch": 38,
                "velocity": 51,
                "duration": 0.18409090909090864,
                "tempo": 120.0
            },
            {
                "start_time": 21.004545454545454,
                "end_time": 21.29090909090909,
                "pitch": 38,
                "velocity": 51,
                "duration": 0.28636363636363527,
                "tempo": 120.0
            },
            {
                "start_time": 21.30681818181818,
                "end_time": 21.59090909090909,
                "pitch": 38,
                "velocity": 51,
                "duration": 0.28409090909091006,
                "tempo": 120.0
            },
            {
                "start_time": 21.60681818181818,
                "end_time": 22.2,
                "pitch": 38,
                "velocity": 51,
                "duration": 0.5931818181818187,
                "tempo": 120.0
            },
            {
                "start_time": 22.21818181818182,
                "end_time": 22.4,
                "pitch": 36,
                "velocity": 51,
                "duration": 0.18181818181817988,
                "tempo": 120.0
            },
            {
                "start_time": 22.418181818181818,
                "end_time": 22.597727272727273,
                "pitch": 36,
                "velocity": 51,
                "duration": 0.17954545454545467,
                "tempo": 120.0
            },
            {
                "start_time": 22.613636363636363,
                "end_time": 22.793181818181818,
                "pitch": 36,
                "velocity": 51,
                "duration": 0.17954545454545467,
                "tempo": 120.0
            },
            {
                "start_time": 22.80909090909091,
                "end_time": 23.099999999999998,
                "pitch": 38,
                "velocity": 51,
                "duration": 0.29090909090908923,
                "tempo": 120.0
            },
            {
                "start_time": 23.118181818181817,
                "end_time": 23.404545454545453,
                "pitch": 38,
                "velocity": 51,
                "duration": 0.28636363636363527,
                "tempo": 120.0
            },
            {
                "start_time": 23.422727272727272,
                "end_time": 23.802272727272726,
                "pitch": 38,
                "velocity": 51,
                "duration": 0.37954545454545396,
                "tempo": 120.0
            },
            {
                "start_time": 23.818181818181817,
                "end_time": 24.0,
                "pitch": 38,
                "velocity": 51,
                "duration": 0.18181818181818343,
                "tempo": 120.0
            },
            {
                "start_time": 24.01590909090909,
                "end_time": 24.204545454545453,
                "pitch": 38,
                "velocity": 51,
                "duration": 0.1886363636363626,
                "tempo": 120.0
            },
            {
                "start_time": 24.220454545454544,
                "end_time": 24.409090909090907,
                "pitch": 38,
                "velocity": 51,
                "duration": 0.1886363636363626,
                "tempo": 120.0
            },
            {
                "start_time": 24.427272727272726,
                "end_time": 24.711363636363636,
                "pitch": 38,
                "velocity": 51,
                "duration": 0.28409090909091006,
                "tempo": 120.0
            },
            {
                "start_time": 24.727272727272727,
                "end_time": 25.009090909090908,
                "pitch": 38,
                "velocity": 51,
                "duration": 0.2818181818181813,
                "tempo": 120.0
            },
            {
                "start_time": 25.025,
                "end_time": 25.404545454545453,
                "pitch": 38,
                "velocity": 51,
                "duration": 0.37954545454545396,
                "tempo": 120.0
            },
            {
                "start_time": 25.420454545454543,
                "end_time": 25.504545454545454,
                "pitch": 38,
                "velocity": 51,
                "duration": 0.08409090909091077,
                "tempo": 120.0
            },
            {
                "start_time": 25.520454545454545,
                "end_time": 25.706818181818182,
                "pitch": 38,
                "velocity": 51,
                "duration": 0.1863636363636374,
                "tempo": 120.0
            },
            {
                "start_time": 25.722727272727273,
                "end_time": 26.113636363636363,
                "pitch": 38,
                "velocity": 51,
                "duration": 0.39090909090909065,
                "tempo": 120.0
            },
            {
                "start_time": 26.422727272727272,
                "end_time": 26.80681818181818,
                "pitch": 36,
                "velocity": 51,
                "duration": 0.38409090909090793,
                "tempo": 120.0
            },
            {
                "start_time": 26.82272727272727,
                "end_time": 27.227272727272727,
                "pitch": 36,
                "velocity": 51,
                "duration": 0.4045454545454561,
                "tempo": 120.0
            },
            {
                "start_time": 27.245454545454542,
                "end_time": 27.424999999999997,
                "pitch": 36,
                "velocity": 51,
                "duration": 0.17954545454545467,
                "tempo": 120.0
            },
            {
                "start_time": 27.440909090909088,
                "end_time": 27.818181818181817,
                "pitch": 38,
                "velocity": 51,
                "duration": 0.37727272727272876,
                "tempo": 120.0
            },
            {
                "start_time": 27.834090909090907,
                "end_time": 28.013636363636362,
                "pitch": 38,
                "velocity": 51,
                "duration": 0.17954545454545467,
                "tempo": 120.0
            },
            {
                "start_time": 28.029545454545453,
                "end_time": 28.625,
                "pitch": 38,
                "velocity": 51,
                "duration": 0.5954545454545475,
                "tempo": 120.0
            },
            {
                "start_time": 28.643181818181816,
                "end_time": 28.827272727272724,
                "pitch": 38,
                "velocity": 51,
                "duration": 0.18409090909090864,
                "tempo": 120.0
            },
            {
                "start_time": 28.843181818181815,
                "end_time": 29.027272727272727,
                "pitch": 38,
                "velocity": 51,
                "duration": 0.1840909090909122,
                "tempo": 120.0
            },
            {
                "start_time": 29.043181818181818,
                "end_time": 29.227272727272727,
                "pitch": 38,
                "velocity": 51,
                "duration": 0.18409090909090864,
                "tempo": 120.0
            },
            {
                "start_time": 29.243181818181817,
                "end_time": 29.427272727272726,
                "pitch": 40,
                "velocity": 51,
                "duration": 0.18409090909090864,
                "tempo": 120.0
            },
            {
                "start_time": 29.445454545454545,
                "end_time": 29.529545454545453,
                "pitch": 40,
                "velocity": 51,
                "duration": 0.08409090909090722,
                "tempo": 120.0
            },
            {
                "start_time": 29.545454545454543,
                "end_time": 29.629545454545454,
                "pitch": 40,
                "velocity": 51,
                "duration": 0.08409090909091077,
                "tempo": 120.0
            },
            {
                "start_time": 29.645454545454545,
                "end_time": 29.829545454545453,
                "pitch": 40,
                "velocity": 51,
                "duration": 0.18409090909090864,
                "tempo": 120.0
            },
            {
                "start_time": 29.845454545454544,
                "end_time": 29.929545454545455,
                "pitch": 40,
                "velocity": 51,
                "duration": 0.08409090909091077,
                "tempo": 120.0
            },
            {
                "start_time": 29.945454545454545,
                "end_time": 30.029545454545453,
                "pitch": 40,
                "velocity": 51,
                "duration": 0.08409090909090722,
                "tempo": 120.0
            },
            {
                "start_time": 30.045454545454543,
                "end_time": 30.229545454545452,
                "pitch": 40,
                "velocity": 51,
                "duration": 0.18409090909090864,
                "tempo": 120.0
            },
            {
                "start_time": 30.245454545454542,
                "end_time": 30.329545454545453,
                "pitch": 40,
                "velocity": 51,
                "duration": 0.08409090909091077,
                "tempo": 120.0
            },
            {
                "start_time": 30.345454545454544,
                "end_time": 30.429545454545455,
                "pitch": 40,
                "velocity": 51,
                "duration": 0.08409090909091077,
                "tempo": 120.0
            },
            {
                "start_time": 30.445454545454545,
                "end_time": 30.63181818181818,
                "pitch": 40,
                "velocity": 51,
                "duration": 0.18636363636363384,
                "tempo": 120.0
            },
            {
                "start_time": 30.64772727272727,
                "end_time": 30.73181818181818,
                "pitch": 40,
                "velocity": 51,
                "duration": 0.08409090909091077,
                "tempo": 120.0
            },
            {
                "start_time": 30.74772727272727,
                "end_time": 30.831818181818182,
                "pitch": 40,
                "velocity": 51,
                "duration": 0.08409090909091077,
                "tempo": 120.0
            },
            {
                "start_time": 30.849999999999998,
                "end_time": 31.03181818181818,
                "pitch": 40,
                "velocity": 51,
                "duration": 0.18181818181818343,
                "tempo": 120.0
            },
            {
                "start_time": 31.049999999999997,
                "end_time": 31.13181818181818,
                "pitch": 40,
                "velocity": 51,
                "duration": 0.08181818181818201,
                "tempo": 120.0
            },
            {
                "start_time": 31.15,
                "end_time": 31.23181818181818,
                "pitch": 40,
                "velocity": 51,
                "duration": 0.08181818181818201,
                "tempo": 120.0
            },
            {
                "start_time": 31.25,
                "end_time": 31.43409090909091,
                "pitch": 40,
                "velocity": 51,
                "duration": 0.18409090909090864,
                "tempo": 120.0
            },
            {
                "start_time": 31.45,
                "end_time": 31.534090909090907,
                "pitch": 40,
                "velocity": 51,
                "duration": 0.08409090909090722,
                "tempo": 120.0
            },
            {
                "start_time": 31.549999999999997,
                "end_time": 31.634090909090908,
                "pitch": 40,
                "velocity": 51,
                "duration": 0.08409090909091077,
                "tempo": 120.0
            },
            {
                "start_time": 31.652272727272727,
                "end_time": 31.834090909090907,
                "pitch": 40,
                "velocity": 51,
                "duration": 0.18181818181817988,
                "tempo": 120.0
            },
            {
                "start_time": 31.852272727272727,
                "end_time": 32.03409090909091,
                "pitch": 40,
                "velocity": 51,
                "duration": 0.18181818181817988,
                "tempo": 120.0
            },
            {
                "start_time": 32.05227272727272,
                "end_time": 32.23409090909091,
                "pitch": 40,
                "velocity": 51,
                "duration": 0.18181818181818699,
                "tempo": 120.0
            },
            {
                "start_time": 32.252272727272725,
                "end_time": 32.434090909090905,
                "pitch": 40,
                "velocity": 51,
                "duration": 0.18181818181817988,
                "tempo": 120.0
            },
            {
                "start_time": 32.45227272727273,
                "end_time": 32.63636363636363,
                "pitch": 41,
                "velocity": 51,
                "duration": 0.18409090909090509,
                "tempo": 120.0
            },
            {
                "start_time": 32.652272727272724,
                "end_time": 32.736363636363635,
                "pitch": 41,
                "velocity": 51,
                "duration": 0.08409090909091077,
                "tempo": 120.0
            },
            {
                "start_time": 32.75454545454545,
                "end_time": 32.83863636363636,
                "pitch": 41,
                "velocity": 51,
                "duration": 0.08409090909091077,
                "tempo": 120.0
            },
            {
                "start_time": 32.85454545454545,
                "end_time": 33.038636363636364,
                "pitch": 41,
                "velocity": 51,
                "duration": 0.1840909090909122,
                "tempo": 120.0
            },
            {
                "start_time": 33.054545454545455,
                "end_time": 33.138636363636365,
                "pitch": 41,
                "velocity": 51,
                "duration": 0.08409090909091077,
                "tempo": 120.0
            },
            {
                "start_time": 33.154545454545456,
                "end_time": 33.23863636363636,
                "pitch": 41,
                "velocity": 51,
                "duration": 0.08409090909090366,
                "tempo": 120.0
            },
            {
                "start_time": 33.25454545454545,
                "end_time": 33.43863636363636,
                "pitch": 41,
                "velocity": 51,
                "duration": 0.1840909090909122,
                "tempo": 120.0
            },
            {
                "start_time": 33.45681818181818,
                "end_time": 33.538636363636364,
                "pitch": 41,
                "velocity": 51,
                "duration": 0.08181818181818556,
                "tempo": 120.0
            },
            {
                "start_time": 33.55681818181818,
                "end_time": 33.64090909090909,
                "pitch": 41,
                "velocity": 51,
                "duration": 0.08409090909091077,
                "tempo": 120.0
            },
            {
                "start_time": 33.65681818181818,
                "end_time": 33.840909090909086,
                "pitch": 41,
                "velocity": 51,
                "duration": 0.18409090909090509,
                "tempo": 120.0
            },
            {
                "start_time": 33.85681818181818,
                "end_time": 33.94090909090909,
                "pitch": 41,
                "velocity": 51,
                "duration": 0.08409090909091077,
                "tempo": 120.0
            },
            {
                "start_time": 33.95681818181818,
                "end_time": 34.04090909090909,
                "pitch": 41,
                "velocity": 51,
                "duration": 0.08409090909091077,
                "tempo": 120.0
            },
            {
                "start_time": 34.05681818181818,
                "end_time": 34.24090909090909,
                "pitch": 41,
                "velocity": 51,
                "duration": 0.1840909090909122,
                "tempo": 120.0
            },
            {
                "start_time": 34.25681818181818,
                "end_time": 34.340909090909086,
                "pitch": 41,
                "velocity": 51,
                "duration": 0.08409090909090366,
                "tempo": 120.0
            },
            {
                "start_time": 34.35681818181818,
                "end_time": 34.44090909090909,
                "pitch": 41,
                "velocity": 51,
                "duration": 0.08409090909091077,
                "tempo": 120.0
            },
            {
                "start_time": 34.45681818181818,
                "end_time": 34.64090909090909,
                "pitch": 41,
                "velocity": 51,
                "duration": 0.1840909090909122,
                "tempo": 120.0
            },
            {
                "start_time": 34.65909090909091,
                "end_time": 34.84318181818182,
                "pitch": 41,
                "velocity": 51,
                "duration": 0.1840909090909122,
                "tempo": 120.0
            },
            {
                "start_time": 34.85909090909091,
                "end_time": 35.043181818181814,
                "pitch": 41,
                "velocity": 51,
                "duration": 0.18409090909090509,
                "tempo": 120.0
            },
            {
                "start_time": 35.059090909090905,
                "end_time": 35.24318181818182,
                "pitch": 45,
                "velocity": 51,
                "duration": 0.1840909090909122,
                "tempo": 120.0
            },
            {
                "start_time": 35.25909090909091,
                "end_time": 35.445454545454545,
                "pitch": 43,
                "velocity": 51,
                "duration": 0.1863636363636374,
                "tempo": 120.0
            },
            {
                "start_time": 35.461363636363636,
                "end_time": 35.64545454545454,
                "pitch": 41,
                "velocity": 51,
                "duration": 0.18409090909090509,
                "tempo": 120.0
            },
            {
                "start_time": 35.663636363636364,
                "end_time": 35.845454545454544,
                "pitch": 40,
                "velocity": 51,
                "duration": 0.18181818181817988,
                "tempo": 120.0
            },
            {
                "start_time": 35.86363636363636,
                "end_time": 35.945454545454545,
                "pitch": 40,
                "velocity": 51,
                "duration": 0.08181818181818556,
                "tempo": 120.0
            },
            {
                "start_time": 35.96363636363636,
                "end_time": 36.04545454545455,
                "pitch": 40,
                "velocity": 51,
                "duration": 0.08181818181818556,
                "tempo": 120.0
            },
            {
                "start_time": 36.06363636363636,
                "end_time": 36.24545454545454,
                "pitch": 40,
                "velocity": 51,
                "duration": 0.18181818181817988,
                "tempo": 120.0
            },
            {
                "start_time": 36.26363636363636,
                "end_time": 36.345454545454544,
                "pitch": 40,
                "velocity": 51,
                "duration": 0.08181818181818556,
                "tempo": 120.0
            },
            {
                "start_time": 36.36363636363636,
                "end_time": 36.445454545454545,
                "pitch": 40,
                "velocity": 51,
                "duration": 0.08181818181818556,
                "tempo": 120.0
            },
            {
                "start_time": 36.46363636363636,
                "end_time": 36.64545454545454,
                "pitch": 40,
                "velocity": 51,
                "duration": 0.18181818181817988,
                "tempo": 120.0
            },
            {
                "start_time": 36.663636363636364,
                "end_time": 36.74545454545454,
                "pitch": 40,
                "velocity": 51,
                "duration": 0.08181818181817846,
                "tempo": 120.0
            },
            {
                "start_time": 36.76363636363636,
                "end_time": 36.845454545454544,
                "pitch": 40,
                "velocity": 51,
                "duration": 0.08181818181818556,
                "tempo": 120.0
            },
            {
                "start_time": 36.86363636363636,
                "end_time": 37.04772727272727,
                "pitch": 40,
                "velocity": 51,
                "duration": 0.1840909090909122,
                "tempo": 120.0
            },
            {
                "start_time": 37.06363636363636,
                "end_time": 37.14772727272727,
                "pitch": 40,
                "velocity": 51,
                "duration": 0.08409090909091077,
                "tempo": 120.0
            },
            {
                "start_time": 37.163636363636364,
                "end_time": 37.24772727272727,
                "pitch": 40,
                "velocity": 51,
                "duration": 0.08409090909090366,
                "tempo": 120.0
            },
            {
                "start_time": 37.26590909090909,
                "end_time": 37.44772727272727,
                "pitch": 40,
                "velocity": 51,
                "duration": 0.18181818181817988,
                "tempo": 120.0
            },
            {
                "start_time": 37.465909090909086,
                "end_time": 37.54772727272727,
                "pitch": 40,
                "velocity": 51,
                "duration": 0.08181818181818556,
                "tempo": 120.0
            },
            {
                "start_time": 37.56590909090909,
                "end_time": 37.64772727272727,
                "pitch": 40,
                "velocity": 51,
                "duration": 0.08181818181818556,
                "tempo": 120.0
            },
            {
                "start_time": 37.66590909090909,
                "end_time": 37.84772727272727,
                "pitch": 40,
                "velocity": 51,
                "duration": 0.18181818181817988,
                "tempo": 120.0
            },
            {
                "start_time": 37.86590909090909,
                "end_time": 37.94772727272727,
                "pitch": 40,
                "velocity": 51,
                "duration": 0.08181818181817846,
                "tempo": 120.0
            },
            {
                "start_time": 37.965909090909086,
                "end_time": 38.04772727272727,
                "pitch": 40,
                "velocity": 51,
                "duration": 0.08181818181818556,
                "tempo": 120.0
            },
            {
                "start_time": 38.06590909090909,
                "end_time": 38.24772727272727,
                "pitch": 40,
                "velocity": 51,
                "duration": 0.18181818181817988,
                "tempo": 120.0
            },
            {
                "start_time": 38.26590909090909,
                "end_time": 38.34772727272727,
                "pitch": 40,
                "velocity": 51,
                "duration": 0.08181818181817846,
                "tempo": 120.0
            },
            {
                "start_time": 38.36590909090909,
                "end_time": 38.44772727272727,
                "pitch": 40,
                "velocity": 51,
                "duration": 0.08181818181817846,
                "tempo": 120.0
            },
            {
                "start_time": 38.465909090909086,
                "end_time": 39.05,
                "pitch": 40,
                "velocity": 51,
                "duration": 0.5840909090909108,
                "tempo": 120.0
            },
            {
                "start_time": 39.06590909090909,
                "end_time": 39.25,
                "pitch": 36,
                "velocity": 51,
                "duration": 0.1840909090909122,
                "tempo": 120.0
            },
            {
                "start_time": 39.268181818181816,
                "end_time": 39.652272727272724,
                "pitch": 36,
                "velocity": 51,
                "duration": 0.38409090909090793,
                "tempo": 120.0
            },
            {
                "start_time": 39.668181818181814,
                "end_time": 40.05227272727272,
                "pitch": 36,
                "velocity": 51,
                "duration": 0.38409090909090793,
                "tempo": 120.0
            },
            {
                "start_time": 40.06818181818181,
                "end_time": 40.252272727272725,
                "pitch": 36,
                "velocity": 51,
                "duration": 0.1840909090909122,
                "tempo": 120.0
            },
            {
                "start_time": 40.268181818181816,
                "end_time": 40.652272727272724,
                "pitch": 38,
                "velocity": 51,
                "duration": 0.38409090909090793,
                "tempo": 120.0
            },
            {
                "start_time": 40.668181818181814,
                "end_time": 40.85227272727273,
                "pitch": 38,
                "velocity": 51,
                "duration": 0.1840909090909122,
                "tempo": 120.0
            },
            {
                "start_time": 40.86818181818182,
                "end_time": 41.25454545454545,
                "pitch": 38,
                "velocity": 51,
                "duration": 0.38636363636363313,
                "tempo": 120.0
            },
            {
                "start_time": 41.27045454545454,
                "end_time": 41.65454545454545,
                "pitch": 40,
                "velocity": 51,
                "duration": 0.38409090909090793,
                "tempo": 120.0
            },
            {
                "start_time": 41.67045454545455,
                "end_time": 42.054545454545455,
                "pitch": 40,
                "velocity": 51,
                "duration": 0.38409090909090793,
                "tempo": 120.0
            }
        ]
    }
}