{
    "track_id": "Pro_Yakyuu_Family_Stadium_Pennant_Race_(MSX2,_MSX-Music)_01 Title Screen",
    "mood": "happy",
    "instruments": {
        "Clarinet": [
            {
                "start_time": 0.004545454545454545,
                "end_time": 0.07045454545454545,
                "pitch": 55,
                "velocity": 4,
                "duration": 0.0659090909090909,
                "tempo": 120.0
            },
            {
                "start_time": 0.07045454545454545,
                "end_time": 1.2113636363636362,
                "pitch": 57,
                "velocity": 4,
                "duration": 1.1409090909090907,
                "tempo": 120.0
            },
            {
                "start_time": 1.2113636363636362,
                "end_time": 1.6045454545454545,
                "pitch": 72,
                "velocity": 4,
                "duration": 0.3931818181818183,
                "tempo": 120.0
            },
            {
                "start_time": 1.6045454545454545,
                "end_time": 2.8136363636363635,
                "pitch": 60,
                "velocity": 4,
                "duration": 1.209090909090909,
                "tempo": 120.0
            },
            {
                "start_time": 2.8136363636363635,
                "end_time": 3.218181818181818,
                "pitch": 74,
                "velocity": 4,
                "duration": 0.4045454545454543,
                "tempo": 120.0
            },
            {
                "start_time": 3.218181818181818,
                "end_time": 4.411363636363636,
                "pitch": 62,
                "velocity": 4,
                "duration": 1.1931818181818183,
                "tempo": 120.0
            },
            {
                "start_time": 4.411363636363636,
                "end_time": 4.804545454545455,
                "pitch": 76,
                "velocity": 4,
                "duration": 0.3931818181818185,
                "tempo": 120.0
            },
            {
                "start_time": 4.804545454545455,
                "end_time": 6.018181818181818,
                "pitch": 64,
                "velocity": 4,
                "duration": 1.213636363636363,
                "tempo": 120.0
            },
            {
                "start_time": 6.018181818181818,
                "end_time": 6.420454545454545,
                "pitch": 78,
                "velocity": 4,
                "duration": 0.40227272727272734,
                "tempo": 120.0
            },
            {
                "start_time": 6.420454545454545,
                "end_time": 6.49090909090909,
                "pitch": 77,
                "velocity": 4,
                "duration": 0.07045454545454533,
                "tempo": 120.0
            },
            {
                "start_time": 6.49090909090909,
                "end_time": 6.629545454545454,
                "pitch": 79,
                "velocity": 4,
                "duration": 0.13863636363636367,
                "tempo": 120.0
            },
            {
                "start_time": 6.49090909090909,
                "end_time": 6.629545454545454,
                "pitch": 91,
                "velocity": 4,
                "duration": 0.13863636363636367,
                "tempo": 120.0
            },
            {
                "start_time": 6.629545454545454,
                "end_time": 6.720454545454545,
                "pitch": 79,
                "velocity": 4,
                "duration": 0.09090909090909083,
                "tempo": 120.0
            },
            {
                "start_time": 6.720454545454545,
                "end_time": 6.788636363636363,
                "pitch": 79,
                "velocity": 4,
                "duration": 0.06818181818181834,
                "tempo": 120.0
            },
            {
                "start_time": 6.629545454545454,
                "end_time": 6.788636363636363,
                "pitch": 91,
                "velocity": 4,
                "duration": 0.15909090909090917,
                "tempo": 120.0
            },
            {
                "start_time": 6.788636363636363,
                "end_time": 6.824999999999999,
                "pitch": 79,
                "velocity": 4,
                "duration": 0.036363636363636154,
                "tempo": 120.0
            },
            {
                "start_time": 7.434090909090909,
                "end_time": 7.449999999999999,
                "pitch": 79,
                "velocity": 4,
                "duration": 0.01590909090909065,
                "tempo": 120.0
            },
            {
                "start_time": 6.018181818181818,
                "end_time": 7.622727272727272,
                "pitch": 75,
                "velocity": 4,
                "duration": 1.6045454545454545,
                "tempo": 120.0
            },
            {
                "start_time": 7.449999999999999,
                "end_time": 7.622727272727272,
                "pitch": 77,
                "velocity": 4,
                "duration": 0.17272727272727284,
                "tempo": 120.0
            },
            {
                "start_time": 7.622727272727272,
                "end_time": 7.686363636363636,
                "pitch": 79,
                "velocity": 4,
                "duration": 0.06363636363636349,
                "tempo": 120.0
            },
            {
                "start_time": 6.788636363636363,
                "end_time": 7.686363636363636,
                "pitch": 91,
                "velocity": 4,
                "duration": 0.8977272727272725,
                "tempo": 120.0
            },
            {
                "start_time": 7.686363636363636,
                "end_time": 7.8181818181818175,
                "pitch": 79,
                "velocity": 4,
                "duration": 0.13181818181818183,
                "tempo": 120.0
            },
            {
                "start_time": 7.686363636363636,
                "end_time": 7.8181818181818175,
                "pitch": 91,
                "velocity": 4,
                "duration": 0.13181818181818183,
                "tempo": 120.0
            },
            {
                "start_time": 7.8181818181818175,
                "end_time": 8.01590909090909,
                "pitch": 80,
                "velocity": 4,
                "duration": 0.1977272727272732,
                "tempo": 120.0
            },
            {
                "start_time": 8.01590909090909,
                "end_time": 8.081818181818182,
                "pitch": 79,
                "velocity": 4,
                "duration": 0.06590909090909136,
                "tempo": 120.0
            },
            {
                "start_time": 7.8181818181818175,
                "end_time": 8.081818181818182,
                "pitch": 91,
                "velocity": 4,
                "duration": 0.26363636363636456,
                "tempo": 120.0
            },
            {
                "start_time": 8.081818181818182,
                "end_time": 8.220454545454546,
                "pitch": 79,
                "velocity": 4,
                "duration": 0.13863636363636367,
                "tempo": 120.0
            },
            {
                "start_time": 8.081818181818182,
                "end_time": 8.220454545454546,
                "pitch": 91,
                "velocity": 4,
                "duration": 0.13863636363636367,
                "tempo": 120.0
            },
            {
                "start_time": 8.220454545454546,
                "end_time": 8.325,
                "pitch": 79,
                "velocity": 4,
                "duration": 0.10454545454545361,
                "tempo": 120.0
            },
            {
                "start_time": 7.622727272727272,
                "end_time": 8.427272727272728,
                "pitch": 75,
                "velocity": 4,
                "duration": 0.8045454545454556,
                "tempo": 120.0
            },
            {
                "start_time": 8.325,
                "end_time": 8.427272727272728,
                "pitch": 79,
                "velocity": 4,
                "duration": 0.1022727272727284,
                "tempo": 120.0
            },
            {
                "start_time": 8.427272727272728,
                "end_time": 8.495454545454544,
                "pitch": 79,
                "velocity": 4,
                "duration": 0.06818181818181657,
                "tempo": 120.0
            },
            {
                "start_time": 8.220454545454546,
                "end_time": 8.495454545454544,
                "pitch": 91,
                "velocity": 4,
                "duration": 0.2749999999999986,
                "tempo": 120.0
            },
            {
                "start_time": 8.495454545454544,
                "end_time": 8.634090909090908,
                "pitch": 79,
                "velocity": 4,
                "duration": 0.13863636363636367,
                "tempo": 120.0
            },
            {
                "start_time": 8.495454545454544,
                "end_time": 8.634090909090908,
                "pitch": 91,
                "velocity": 4,
                "duration": 0.13863636363636367,
                "tempo": 120.0
            },
            {
                "start_time": 8.634090909090908,
                "end_time": 8.770454545454545,
                "pitch": 79,
                "velocity": 4,
                "duration": 0.1363636363636367,
                "tempo": 120.0
            },
            {
                "start_time": 8.634090909090908,
                "end_time": 8.770454545454545,
                "pitch": 91,
                "velocity": 4,
                "duration": 0.1363636363636367,
                "tempo": 120.0
            },
            {
                "start_time": 8.770454545454545,
                "end_time": 8.906818181818181,
                "pitch": 79,
                "velocity": 4,
                "duration": 0.1363636363636367,
                "tempo": 120.0
            },
            {
                "start_time": 8.770454545454545,
                "end_time": 8.906818181818181,
                "pitch": 91,
                "velocity": 4,
                "duration": 0.1363636363636367,
                "tempo": 120.0
            },
            {
                "start_time": 8.906818181818181,
                "end_time": 9.027272727272727,
                "pitch": 79,
                "velocity": 4,
                "duration": 0.12045454545454604,
                "tempo": 120.0
            },
            {
                "start_time": 8.427272727272728,
                "end_time": 9.227272727272727,
                "pitch": 75,
                "velocity": 4,
                "duration": 0.7999999999999989,
                "tempo": 120.0
            },
            {
                "start_time": 9.027272727272727,
                "end_time": 9.227272727272727,
                "pitch": 79,
                "velocity": 4,
                "duration": 0.1999999999999993,
                "tempo": 120.0
            },
            {
                "start_time": 9.227272727272727,
                "end_time": 9.295454545454545,
                "pitch": 79,
                "velocity": 4,
                "duration": 0.06818181818181834,
                "tempo": 120.0
            },
            {
                "start_time": 8.906818181818181,
                "end_time": 9.295454545454545,
                "pitch": 91,
                "velocity": 4,
                "duration": 0.38863636363636367,
                "tempo": 120.0
            },
            {
                "start_time": 9.295454545454545,
                "end_time": 9.436363636363636,
                "pitch": 79,
                "velocity": 4,
                "duration": 0.14090909090909065,
                "tempo": 120.0
            },
            {
                "start_time": 9.295454545454545,
                "end_time": 9.436363636363636,
                "pitch": 91,
                "velocity": 4,
                "duration": 0.14090909090909065,
                "tempo": 120.0
            },
            {
                "start_time": 8.01590909090909,
                "end_time": 9.647727272727272,
                "pitch": 28,
                "velocity": 4,
                "duration": 1.631818181818181,
                "tempo": 120.0
            },
            {
                "start_time": 9.436363636363636,
                "end_time": 9.647727272727272,
                "pitch": 80,
                "velocity": 4,
                "duration": 0.21136363636363598,
                "tempo": 120.0
            },
            {
                "start_time": 9.647727272727272,
                "end_time": 9.71590909090909,
                "pitch": 79,
                "velocity": 4,
                "duration": 0.06818181818181834,
                "tempo": 120.0
            },
            {
                "start_time": 9.436363636363636,
                "end_time": 9.71590909090909,
                "pitch": 91,
                "velocity": 4,
                "duration": 0.2795454545454543,
                "tempo": 120.0
            },
            {
                "start_time": 9.71590909090909,
                "end_time": 9.85,
                "pitch": 79,
                "velocity": 4,
                "duration": 0.1340909090909097,
                "tempo": 120.0
            },
            {
                "start_time": 9.71590909090909,
                "end_time": 9.85,
                "pitch": 91,
                "velocity": 4,
                "duration": 0.1340909090909097,
                "tempo": 120.0
            },
            {
                "start_time": 9.85,
                "end_time": 9.98409090909091,
                "pitch": 79,
                "velocity": 4,
                "duration": 0.1340909090909097,
                "tempo": 120.0
            },
            {
                "start_time": 9.85,
                "end_time": 9.98409090909091,
                "pitch": 91,
                "velocity": 4,
                "duration": 0.1340909090909097,
                "tempo": 120.0
            },
            {
                "start_time": 9.98409090909091,
                "end_time": 10.118181818181817,
                "pitch": 79,
                "velocity": 4,
                "duration": 0.13409090909090793,
                "tempo": 120.0
            },
            {
                "start_time": 9.98409090909091,
                "end_time": 10.118181818181817,
                "pitch": 91,
                "velocity": 4,
                "duration": 0.13409090909090793,
                "tempo": 120.0
            },
            {
                "start_time": 10.118181818181817,
                "end_time": 10.252272727272727,
                "pitch": 79,
                "velocity": 4,
                "duration": 0.1340909090909097,
                "tempo": 120.0
            },
            {
                "start_time": 10.118181818181817,
                "end_time": 10.252272727272727,
                "pitch": 91,
                "velocity": 4,
                "duration": 0.1340909090909097,
                "tempo": 120.0
            },
            {
                "start_time": 10.252272727272727,
                "end_time": 10.386363636363637,
                "pitch": 79,
                "velocity": 4,
                "duration": 0.1340909090909097,
                "tempo": 120.0
            },
            {
                "start_time": 10.252272727272727,
                "end_time": 10.386363636363637,
                "pitch": 91,
                "velocity": 4,
                "duration": 0.1340909090909097,
                "tempo": 120.0
            },
            {
                "start_time": 10.386363636363637,
                "end_time": 10.520454545454545,
                "pitch": 79,
                "velocity": 4,
                "duration": 0.13409090909090793,
                "tempo": 120.0
            },
            {
                "start_time": 10.386363636363637,
                "end_time": 10.520454545454545,
                "pitch": 91,
                "velocity": 4,
                "duration": 0.13409090909090793,
                "tempo": 120.0
            },
            {
                "start_time": 10.520454545454545,
                "end_time": 10.654545454545454,
                "pitch": 79,
                "velocity": 4,
                "duration": 0.1340909090909097,
                "tempo": 120.0
            },
            {
                "start_time": 10.520454545454545,
                "end_time": 10.654545454545454,
                "pitch": 91,
                "velocity": 4,
                "duration": 0.1340909090909097,
                "tempo": 120.0
            },
            {
                "start_time": 10.654545454545454,
                "end_time": 10.788636363636362,
                "pitch": 79,
                "velocity": 4,
                "duration": 0.13409090909090793,
                "tempo": 120.0
            },
            {
                "start_time": 10.654545454545454,
                "end_time": 10.788636363636362,
                "pitch": 91,
                "velocity": 4,
                "duration": 0.13409090909090793,
                "tempo": 120.0
            },
            {
                "start_time": 10.788636363636362,
                "end_time": 10.922727272727272,
                "pitch": 79,
                "velocity": 4,
                "duration": 0.1340909090909097,
                "tempo": 120.0
            },
            {
                "start_time": 10.788636363636362,
                "end_time": 10.922727272727272,
                "pitch": 91,
                "velocity": 4,
                "duration": 0.1340909090909097,
                "tempo": 120.0
            },
            {
                "start_time": 10.922727272727272,
                "end_time": 11.056818181818182,
                "pitch": 79,
                "velocity": 4,
                "duration": 0.1340909090909097,
                "tempo": 120.0
            },
            {
                "start_time": 10.922727272727272,
                "end_time": 11.056818181818182,
                "pitch": 91,
                "velocity": 4,
                "duration": 0.1340909090909097,
                "tempo": 120.0
            },
            {
                "start_time": 11.056818181818182,
                "end_time": 11.19090909090909,
                "pitch": 79,
                "velocity": 4,
                "duration": 0.13409090909090793,
                "tempo": 120.0
            },
            {
                "start_time": 11.056818181818182,
                "end_time": 11.19090909090909,
                "pitch": 91,
                "velocity": 4,
                "duration": 0.13409090909090793,
                "tempo": 120.0
            },
            {
                "start_time": 11.19090909090909,
                "end_time": 11.329545454545453,
                "pitch": 79,
                "velocity": 4,
                "duration": 0.13863636363636367,
                "tempo": 120.0
            },
            {
                "start_time": 11.19090909090909,
                "end_time": 11.329545454545453,
                "pitch": 91,
                "velocity": 4,
                "duration": 0.13863636363636367,
                "tempo": 120.0
            },
            {
                "start_time": 11.329545454545453,
                "end_time": 11.470454545454546,
                "pitch": 79,
                "velocity": 4,
                "duration": 0.14090909090909243,
                "tempo": 120.0
            },
            {
                "start_time": 11.329545454545453,
                "end_time": 11.470454545454546,
                "pitch": 91,
                "velocity": 4,
                "duration": 0.14090909090909243,
                "tempo": 120.0
            },
            {
                "start_time": 11.470454545454546,
                "end_time": 11.611363636363636,
                "pitch": 79,
                "velocity": 4,
                "duration": 0.14090909090909065,
                "tempo": 120.0
            },
            {
                "start_time": 11.470454545454546,
                "end_time": 11.611363636363636,
                "pitch": 91,
                "velocity": 4,
                "duration": 0.14090909090909065,
                "tempo": 120.0
            },
            {
                "start_time": 11.611363636363636,
                "end_time": 11.74090909090909,
                "pitch": 79,
                "velocity": 4,
                "duration": 0.12954545454545396,
                "tempo": 120.0
            },
            {
                "start_time": 11.611363636363636,
                "end_time": 11.74090909090909,
                "pitch": 91,
                "velocity": 4,
                "duration": 0.12954545454545396,
                "tempo": 120.0
            },
            {
                "start_time": 11.74090909090909,
                "end_time": 11.868181818181817,
                "pitch": 79,
                "velocity": 4,
                "duration": 0.12727272727272698,
                "tempo": 120.0
            },
            {
                "start_time": 11.74090909090909,
                "end_time": 11.868181818181817,
                "pitch": 91,
                "velocity": 4,
                "duration": 0.12727272727272698,
                "tempo": 120.0
            },
            {
                "start_time": 11.868181818181817,
                "end_time": 11.993181818181817,
                "pitch": 79,
                "velocity": 4,
                "duration": 0.125,
                "tempo": 120.0
            },
            {
                "start_time": 11.868181818181817,
                "end_time": 11.993181818181817,
                "pitch": 91,
                "velocity": 4,
                "duration": 0.125,
                "tempo": 120.0
            },
            {
                "start_time": 11.993181818181817,
                "end_time": 12.127272727272727,
                "pitch": 79,
                "velocity": 4,
                "duration": 0.1340909090909097,
                "tempo": 120.0
            },
            {
                "start_time": 11.993181818181817,
                "end_time": 12.127272727272727,
                "pitch": 91,
                "velocity": 4,
                "duration": 0.1340909090909097,
                "tempo": 120.0
            },
            {
                "start_time": 12.127272727272727,
                "end_time": 12.261363636363635,
                "pitch": 79,
                "velocity": 4,
                "duration": 0.13409090909090793,
                "tempo": 120.0
            },
            {
                "start_time": 12.127272727272727,
                "end_time": 12.261363636363635,
                "pitch": 91,
                "velocity": 4,
                "duration": 0.13409090909090793,
                "tempo": 120.0
            },
            {
                "start_time": 12.261363636363635,
                "end_time": 12.395454545454545,
                "pitch": 79,
                "velocity": 4,
                "duration": 0.1340909090909097,
                "tempo": 120.0
            },
            {
                "start_time": 12.261363636363635,
                "end_time": 12.395454545454545,
                "pitch": 91,
                "velocity": 4,
                "duration": 0.1340909090909097,
                "tempo": 120.0
            },
            {
                "start_time": 12.395454545454545,
                "end_time": 12.534090909090908,
                "pitch": 79,
                "velocity": 4,
                "duration": 0.13863636363636367,
                "tempo": 120.0
            },
            {
                "start_time": 12.395454545454545,
                "end_time": 12.534090909090908,
                "pitch": 91,
                "velocity": 4,
                "duration": 0.13863636363636367,
                "tempo": 120.0
            },
            {
                "start_time": 12.534090909090908,
                "end_time": 12.670454545454545,
                "pitch": 79,
                "velocity": 4,
                "duration": 0.1363636363636367,
                "tempo": 120.0
            },
            {
                "start_time": 12.534090909090908,
                "end_time": 12.670454545454545,
                "pitch": 91,
                "velocity": 4,
                "duration": 0.1363636363636367,
                "tempo": 120.0
            },
            {
                "start_time": 12.670454545454545,
                "end_time": 12.809090909090909,
                "pitch": 79,
                "velocity": 4,
                "duration": 0.13863636363636367,
                "tempo": 120.0
            },
            {
                "start_time": 12.670454545454545,
                "end_time": 12.809090909090909,
                "pitch": 91,
                "velocity": 4,
                "duration": 0.13863636363636367,
                "tempo": 120.0
            }
        ],
        "Lead 2 (sawtooth)": [
            {
                "start_time": 0.4068181818181818,
                "end_time": 2.018181818181818,
                "pitch": 74,
                "velocity": 4,
                "duration": 1.6113636363636363,
                "tempo": 120.0
            },
            {
                "start_time": 2.018181818181818,
                "end_time": 2.102272727272727,
                "pitch": 74,
                "velocity": 4,
                "duration": 0.084090909090909,
                "tempo": 120.0
            },
            {
                "start_time": 2.102272727272727,
                "end_time": 3.6136363636363633,
                "pitch": 76,
                "velocity": 4,
                "duration": 1.5113636363636362,
                "tempo": 120.0
            },
            {
                "start_time": 3.6136363636363633,
                "end_time": 3.6977272727272728,
                "pitch": 76,
                "velocity": 4,
                "duration": 0.08409090909090944,
                "tempo": 120.0
            },
            {
                "start_time": 3.6977272727272728,
                "end_time": 5.218181818181818,
                "pitch": 78,
                "velocity": 4,
                "duration": 1.520454545454545,
                "tempo": 120.0
            },
            {
                "start_time": 5.218181818181818,
                "end_time": 6.422727272727273,
                "pitch": 80,
                "velocity": 4,
                "duration": 1.204545454545455,
                "tempo": 120.0
            },
            {
                "start_time": 6.422727272727273,
                "end_time": 6.720454545454545,
                "pitch": 80,
                "velocity": 4,
                "duration": 0.29772727272727195,
                "tempo": 120.0
            },
            {
                "start_time": 6.720454545454545,
                "end_time": 6.824999999999999,
                "pitch": 82,
                "velocity": 4,
                "duration": 0.1045454545454545,
                "tempo": 120.0
            },
            {
                "start_time": 6.824999999999999,
                "end_time": 7.434090909090909,
                "pitch": 82,
                "velocity": 4,
                "duration": 0.6090909090909093,
                "tempo": 120.0
            },
            {
                "start_time": 7.434090909090909,
                "end_time": 7.622727272727272,
                "pitch": 80,
                "velocity": 4,
                "duration": 0.1886363636363635,
                "tempo": 120.0
            },
            {
                "start_time": 7.434090909090909,
                "end_time": 7.8181818181818175,
                "pitch": 82,
                "velocity": 4,
                "duration": 0.3840909090909088,
                "tempo": 120.0
            },
            {
                "start_time": 7.622727272727272,
                "end_time": 7.8181818181818175,
                "pitch": 82,
                "velocity": 4,
                "duration": 0.19545454545454533,
                "tempo": 120.0
            },
            {
                "start_time": 7.8181818181818175,
                "end_time": 8.01590909090909,
                "pitch": 82,
                "velocity": 4,
                "duration": 0.1977272727272732,
                "tempo": 120.0
            },
            {
                "start_time": 8.01590909090909,
                "end_time": 8.325,
                "pitch": 83,
                "velocity": 4,
                "duration": 0.30909090909090864,
                "tempo": 120.0
            },
            {
                "start_time": 8.325,
                "end_time": 8.34090909090909,
                "pitch": 82,
                "velocity": 4,
                "duration": 0.01590909090909065,
                "tempo": 120.0
            },
            {
                "start_time": 7.622727272727272,
                "end_time": 8.427272727272728,
                "pitch": 80,
                "velocity": 4,
                "duration": 0.8045454545454556,
                "tempo": 120.0
            },
            {
                "start_time": 8.34090909090909,
                "end_time": 8.427272727272728,
                "pitch": 80,
                "velocity": 4,
                "duration": 0.08636363636363775,
                "tempo": 120.0
            },
            {
                "start_time": 8.427272727272728,
                "end_time": 9.027272727272727,
                "pitch": 80,
                "velocity": 4,
                "duration": 0.5999999999999996,
                "tempo": 120.0
            },
            {
                "start_time": 9.027272727272727,
                "end_time": 9.040909090909091,
                "pitch": 82,
                "velocity": 4,
                "duration": 0.013636363636363669,
                "tempo": 120.0
            },
            {
                "start_time": 9.040909090909091,
                "end_time": 9.227272727272727,
                "pitch": 80,
                "velocity": 4,
                "duration": 0.18636363636363562,
                "tempo": 120.0
            },
            {
                "start_time": 9.227272727272727,
                "end_time": 9.438636363636363,
                "pitch": 82,
                "velocity": 4,
                "duration": 0.21136363636363598,
                "tempo": 120.0
            },
            {
                "start_time": 9.438636363636363,
                "end_time": 9.65,
                "pitch": 82,
                "velocity": 4,
                "duration": 0.21136363636363775,
                "tempo": 120.0
            }
        ],
        "Synth Bass 1": [
            {
                "start_time": 0.8181818181818181,
                "end_time": 0.8863636363636364,
                "pitch": 67,
                "velocity": 4,
                "duration": 0.06818181818181823,
                "tempo": 120.0
            },
            {
                "start_time": 0.8863636363636364,
                "end_time": 1.0227272727272727,
                "pitch": 67,
                "velocity": 4,
                "duration": 0.13636363636363635,
                "tempo": 120.0
            },
            {
                "start_time": 0.8863636363636364,
                "end_time": 1.0227272727272727,
                "pitch": 79,
                "velocity": 4,
                "duration": 0.13636363636363635,
                "tempo": 120.0
            },
            {
                "start_time": 1.0227272727272727,
                "end_time": 1.159090909090909,
                "pitch": 67,
                "velocity": 4,
                "duration": 0.13636363636363624,
                "tempo": 120.0
            },
            {
                "start_time": 1.0227272727272727,
                "end_time": 1.159090909090909,
                "pitch": 79,
                "velocity": 4,
                "duration": 0.13636363636363624,
                "tempo": 120.0
            },
            {
                "start_time": 1.159090909090909,
                "end_time": 1.2931818181818182,
                "pitch": 67,
                "velocity": 4,
                "duration": 0.13409090909090926,
                "tempo": 120.0
            },
            {
                "start_time": 1.159090909090909,
                "end_time": 1.2931818181818182,
                "pitch": 79,
                "velocity": 4,
                "duration": 0.13409090909090926,
                "tempo": 120.0
            },
            {
                "start_time": 1.2931818181818182,
                "end_time": 1.4249999999999998,
                "pitch": 67,
                "velocity": 4,
                "duration": 0.1318181818181816,
                "tempo": 120.0
            },
            {
                "start_time": 1.2931818181818182,
                "end_time": 1.4249999999999998,
                "pitch": 79,
                "velocity": 4,
                "duration": 0.1318181818181816,
                "tempo": 120.0
            },
            {
                "start_time": 1.4249999999999998,
                "end_time": 1.5545454545454545,
                "pitch": 67,
                "velocity": 4,
                "duration": 0.12954545454545463,
                "tempo": 120.0
            },
            {
                "start_time": 1.4249999999999998,
                "end_time": 1.5545454545454545,
                "pitch": 79,
                "velocity": 4,
                "duration": 0.12954545454545463,
                "tempo": 120.0
            },
            {
                "start_time": 1.5545454545454545,
                "end_time": 1.6886363636363635,
                "pitch": 67,
                "velocity": 4,
                "duration": 0.13409090909090904,
                "tempo": 120.0
            },
            {
                "start_time": 1.5545454545454545,
                "end_time": 1.6886363636363635,
                "pitch": 79,
                "velocity": 4,
                "duration": 0.13409090909090904,
                "tempo": 120.0
            },
            {
                "start_time": 1.6886363636363635,
                "end_time": 1.8272727272727272,
                "pitch": 67,
                "velocity": 4,
                "duration": 0.13863636363636367,
                "tempo": 120.0
            },
            {
                "start_time": 1.6886363636363635,
                "end_time": 1.8272727272727272,
                "pitch": 79,
                "velocity": 4,
                "duration": 0.13863636363636367,
                "tempo": 120.0
            },
            {
                "start_time": 1.8272727272727272,
                "end_time": 1.9659090909090908,
                "pitch": 67,
                "velocity": 4,
                "duration": 0.13863636363636367,
                "tempo": 120.0
            },
            {
                "start_time": 1.8272727272727272,
                "end_time": 1.9659090909090908,
                "pitch": 79,
                "velocity": 4,
                "duration": 0.13863636363636367,
                "tempo": 120.0
            },
            {
                "start_time": 1.9659090909090908,
                "end_time": 2.102272727272727,
                "pitch": 67,
                "velocity": 4,
                "duration": 0.13636363636363624,
                "tempo": 120.0
            },
            {
                "start_time": 1.9659090909090908,
                "end_time": 2.102272727272727,
                "pitch": 79,
                "velocity": 4,
                "duration": 0.13636363636363624,
                "tempo": 120.0
            },
            {
                "start_time": 2.102272727272727,
                "end_time": 2.2409090909090907,
                "pitch": 67,
                "velocity": 4,
                "duration": 0.13863636363636367,
                "tempo": 120.0
            },
            {
                "start_time": 2.102272727272727,
                "end_time": 2.2409090909090907,
                "pitch": 79,
                "velocity": 4,
                "duration": 0.13863636363636367,
                "tempo": 120.0
            },
            {
                "start_time": 2.2409090909090907,
                "end_time": 2.377272727272727,
                "pitch": 67,
                "velocity": 4,
                "duration": 0.13636363636363624,
                "tempo": 120.0
            },
            {
                "start_time": 2.2409090909090907,
                "end_time": 2.377272727272727,
                "pitch": 79,
                "velocity": 4,
                "duration": 0.13636363636363624,
                "tempo": 120.0
            },
            {
                "start_time": 2.377272727272727,
                "end_time": 2.411363636363636,
                "pitch": 67,
                "velocity": 4,
                "duration": 0.03409090909090917,
                "tempo": 120.0
            },
            {
                "start_time": 2.411363636363636,
                "end_time": 4.015909090909091,
                "pitch": 67,
                "velocity": 4,
                "duration": 1.6045454545454545,
                "tempo": 120.0
            },
            {
                "start_time": 4.015909090909091,
                "end_time": 4.1022727272727275,
                "pitch": 69,
                "velocity": 4,
                "duration": 0.08636363636363686,
                "tempo": 120.0
            },
            {
                "start_time": 4.1022727272727275,
                "end_time": 5.61590909090909,
                "pitch": 71,
                "velocity": 4,
                "duration": 1.5136363636363628,
                "tempo": 120.0
            },
            {
                "start_time": 5.61590909090909,
                "end_time": 5.697727272727272,
                "pitch": 71,
                "velocity": 4,
                "duration": 0.08181818181818201,
                "tempo": 120.0
            },
            {
                "start_time": 5.697727272727272,
                "end_time": 6.422727272727273,
                "pitch": 73,
                "velocity": 4,
                "duration": 0.7250000000000005,
                "tempo": 120.0
            },
            {
                "start_time": 6.422727272727273,
                "end_time": 6.49090909090909,
                "pitch": 49,
                "velocity": 4,
                "duration": 0.06818181818181746,
                "tempo": 120.0
            },
            {
                "start_time": 6.49090909090909,
                "end_time": 7.027272727272727,
                "pitch": 51,
                "velocity": 4,
                "duration": 0.536363636363637,
                "tempo": 120.0
            },
            {
                "start_time": 7.027272727272727,
                "end_time": 7.227272727272727,
                "pitch": 46,
                "velocity": 4,
                "duration": 0.1999999999999993,
                "tempo": 120.0
            },
            {
                "start_time": 7.027272727272727,
                "end_time": 8.634090909090908,
                "pitch": 51,
                "velocity": 4,
                "duration": 1.6068181818181806,
                "tempo": 120.0
            },
            {
                "start_time": 7.227272727272727,
                "end_time": 8.634090909090908,
                "pitch": 51,
                "velocity": 4,
                "duration": 1.4068181818181813,
                "tempo": 120.0
            },
            {
                "start_time": 7.227272727272727,
                "end_time": 8.822727272727272,
                "pitch": 46,
                "velocity": 4,
                "duration": 1.5954545454545457,
                "tempo": 120.0
            },
            {
                "start_time": 8.634090909090908,
                "end_time": 8.822727272727272,
                "pitch": 46,
                "velocity": 4,
                "duration": 0.18863636363636438,
                "tempo": 120.0
            },
            {
                "start_time": 8.634090909090908,
                "end_time": 9.027272727272727,
                "pitch": 51,
                "velocity": 4,
                "duration": 0.3931818181818194,
                "tempo": 120.0
            },
            {
                "start_time": 8.822727272727272,
                "end_time": 9.027272727272727,
                "pitch": 51,
                "velocity": 4,
                "duration": 0.20454545454545503,
                "tempo": 120.0
            },
            {
                "start_time": 8.822727272727272,
                "end_time": 9.227272727272727,
                "pitch": 46,
                "velocity": 4,
                "duration": 0.4045454545454543,
                "tempo": 120.0
            },
            {
                "start_time": 9.027272727272727,
                "end_time": 9.227272727272727,
                "pitch": 46,
                "velocity": 4,
                "duration": 0.1999999999999993,
                "tempo": 120.0
            },
            {
                "start_time": 9.027272727272727,
                "end_time": 9.438636363636363,
                "pitch": 51,
                "velocity": 4,
                "duration": 0.41136363636363527,
                "tempo": 120.0
            },
            {
                "start_time": 9.227272727272727,
                "end_time": 9.438636363636363,
                "pitch": 51,
                "velocity": 4,
                "duration": 0.21136363636363598,
                "tempo": 120.0
            },
            {
                "start_time": 9.227272727272727,
                "end_time": 9.647727272727272,
                "pitch": 46,
                "velocity": 4,
                "duration": 0.42045454545454497,
                "tempo": 120.0
            },
            {
                "start_time": 9.438636363636363,
                "end_time": 9.647727272727272,
                "pitch": 46,
                "velocity": 4,
                "duration": 0.209090909090909,
                "tempo": 120.0
            }
        ],
        "Acoustic Bass": [
            {
                "start_time": 0.4068181818181818,
                "end_time": 2.018181818181818,
                "pitch": 62,
                "velocity": 4,
                "duration": 1.6113636363636363,
                "tempo": 120.0
            },
            {
                "start_time": 2.018181818181818,
                "end_time": 2.102272727272727,
                "pitch": 62,
                "velocity": 4,
                "duration": 0.084090909090909,
                "tempo": 120.0
            },
            {
                "start_time": 2.102272727272727,
                "end_time": 3.6136363636363633,
                "pitch": 64,
                "velocity": 4,
                "duration": 1.5113636363636362,
                "tempo": 120.0
            },
            {
                "start_time": 3.6136363636363633,
                "end_time": 5.218181818181818,
                "pitch": 64,
                "velocity": 4,
                "duration": 1.6045454545454545,
                "tempo": 120.0
            },
            {
                "start_time": 5.218181818181818,
                "end_time": 6.422727272727273,
                "pitch": 68,
                "velocity": 4,
                "duration": 1.204545454545455,
                "tempo": 120.0
            },
            {
                "start_time": 6.422727272727273,
                "end_time": 6.720454545454545,
                "pitch": 68,
                "velocity": 4,
                "duration": 0.29772727272727195,
                "tempo": 120.0
            },
            {
                "start_time": 6.720454545454545,
                "end_time": 6.824999999999999,
                "pitch": 70,
                "velocity": 4,
                "duration": 0.1045454545454545,
                "tempo": 120.0
            },
            {
                "start_time": 6.824999999999999,
                "end_time": 7.434090909090909,
                "pitch": 70,
                "velocity": 4,
                "duration": 0.6090909090909093,
                "tempo": 120.0
            },
            {
                "start_time": 7.434090909090909,
                "end_time": 7.622727272727272,
                "pitch": 68,
                "velocity": 4,
                "duration": 0.1886363636363635,
                "tempo": 120.0
            },
            {
                "start_time": 7.434090909090909,
                "end_time": 7.8181818181818175,
                "pitch": 70,
                "velocity": 4,
                "duration": 0.3840909090909088,
                "tempo": 120.0
            },
            {
                "start_time": 7.622727272727272,
                "end_time": 7.8181818181818175,
                "pitch": 70,
                "velocity": 4,
                "duration": 0.19545454545454533,
                "tempo": 120.0
            },
            {
                "start_time": 7.8181818181818175,
                "end_time": 8.01590909090909,
                "pitch": 70,
                "velocity": 4,
                "duration": 0.1977272727272732,
                "tempo": 120.0
            },
            {
                "start_time": 8.01590909090909,
                "end_time": 8.325,
                "pitch": 71,
                "velocity": 4,
                "duration": 0.30909090909090864,
                "tempo": 120.0
            },
            {
                "start_time": 8.325,
                "end_time": 8.427272727272728,
                "pitch": 70,
                "velocity": 4,
                "duration": 0.1022727272727284,
                "tempo": 120.0
            },
            {
                "start_time": 7.622727272727272,
                "end_time": 9.027272727272727,
                "pitch": 68,
                "velocity": 4,
                "duration": 1.4045454545454552,
                "tempo": 120.0
            },
            {
                "start_time": 8.427272727272728,
                "end_time": 9.027272727272727,
                "pitch": 68,
                "velocity": 4,
                "duration": 0.5999999999999996,
                "tempo": 120.0
            },
            {
                "start_time": 9.027272727272727,
                "end_time": 9.227272727272727,
                "pitch": 70,
                "velocity": 4,
                "duration": 0.1999999999999993,
                "tempo": 120.0
            },
            {
                "start_time": 9.227272727272727,
                "end_time": 9.438636363636363,
                "pitch": 70,
                "velocity": 4,
                "duration": 0.21136363636363598,
                "tempo": 120.0
            },
            {
                "start_time": 9.438636363636363,
                "end_time": 9.65,
                "pitch": 70,
                "velocity": 4,
                "duration": 0.21136363636363775,
                "tempo": 120.0
            }
        ]
    }
}