{
    "track_id": "Rambo III (FM) - 04 - Scenes 2 _ 5",
    "mood": "happy",
    "instruments": {
        "French Horn": [
            {
                "start_time": 0.006818181818181818,
                "end_time": 0.1909090909090909,
                "pitch": 57,
                "velocity": 80,
                "duration": 0.18409090909090908,
                "tempo": 120.0
            },
            {
                "start_time": 0.20909090909090908,
                "end_time": 0.3931818181818182,
                "pitch": 60,
                "velocity": 80,
                "duration": 0.1840909090909091,
                "tempo": 120.0
            },
            {
                "start_time": 0.40909090909090906,
                "end_time": 0.5909090909090908,
                "pitch": 59,
                "velocity": 80,
                "duration": 0.18181818181818177,
                "tempo": 120.0
            },
            {
                "start_time": 0.6068181818181818,
                "end_time": 0.7863636363636364,
                "pitch": 55,
                "velocity": 80,
                "duration": 0.17954545454545456,
                "tempo": 120.0
            },
            {
                "start_time": 0.8022727272727272,
                "end_time": 0.9863636363636363,
                "pitch": 57,
                "velocity": 80,
                "duration": 0.18409090909090908,
                "tempo": 120.0
            },
            {
                "start_time": 1.0045454545454544,
                "end_time": 1.0863636363636364,
                "pitch": 50,
                "velocity": 80,
                "duration": 0.08181818181818201,
                "tempo": 120.0
            },
            {
                "start_time": 1.1045454545454545,
                "end_time": 1.5886363636363636,
                "pitch": 52,
                "velocity": 80,
                "duration": 0.4840909090909091,
                "tempo": 120.0
            },
            {
                "start_time": 1.6045454545454545,
                "end_time": 1.7886363636363636,
                "pitch": 50,
                "velocity": 80,
                "duration": 0.18409090909090908,
                "tempo": 120.0
            },
            {
                "start_time": 1.8068181818181817,
                "end_time": 1.9909090909090907,
                "pitch": 60,
                "velocity": 80,
                "duration": 0.18409090909090908,
                "tempo": 120.0
            },
            {
                "start_time": 2.006818181818182,
                "end_time": 2.190909090909091,
                "pitch": 59,
                "velocity": 80,
                "duration": 0.18409090909090908,
                "tempo": 120.0
            },
            {
                "start_time": 2.2068181818181816,
                "end_time": 2.3909090909090907,
                "pitch": 55,
                "velocity": 80,
                "duration": 0.18409090909090908,
                "tempo": 120.0
            },
            {
                "start_time": 2.4068181818181817,
                "end_time": 2.5863636363636364,
                "pitch": 57,
                "velocity": 80,
                "duration": 0.17954545454545467,
                "tempo": 120.0
            },
            {
                "start_time": 2.6045454545454545,
                "end_time": 2.686363636363636,
                "pitch": 62,
                "velocity": 80,
                "duration": 0.08181818181818157,
                "tempo": 120.0
            },
            {
                "start_time": 2.702272727272727,
                "end_time": 3.193181818181818,
                "pitch": 67,
                "velocity": 80,
                "duration": 0.49090909090909074,
                "tempo": 120.0
            },
            {
                "start_time": 3.2113636363636364,
                "end_time": 3.393181818181818,
                "pitch": 57,
                "velocity": 80,
                "duration": 0.18181818181818166,
                "tempo": 120.0
            },
            {
                "start_time": 3.411363636363636,
                "end_time": 3.593181818181818,
                "pitch": 60,
                "velocity": 80,
                "duration": 0.18181818181818166,
                "tempo": 120.0
            },
            {
                "start_time": 3.6113636363636363,
                "end_time": 3.793181818181818,
                "pitch": 59,
                "velocity": 80,
                "duration": 0.18181818181818166,
                "tempo": 120.0
            },
            {
                "start_time": 3.811363636363636,
                "end_time": 3.993181818181818,
                "pitch": 55,
                "velocity": 80,
                "duration": 0.1818181818181821,
                "tempo": 120.0
            },
            {
                "start_time": 4.011363636363636,
                "end_time": 4.193181818181818,
                "pitch": 57,
                "velocity": 80,
                "duration": 0.18181818181818254,
                "tempo": 120.0
            },
            {
                "start_time": 4.211363636363636,
                "end_time": 4.293181818181818,
                "pitch": 50,
                "velocity": 80,
                "duration": 0.08181818181818201,
                "tempo": 120.0
            },
            {
                "start_time": 4.3113636363636365,
                "end_time": 4.795454545454545,
                "pitch": 52,
                "velocity": 80,
                "duration": 0.48409090909090846,
                "tempo": 120.0
            },
            {
                "start_time": 4.8136363636363635,
                "end_time": 4.993181818181818,
                "pitch": 62,
                "velocity": 80,
                "duration": 0.17954545454545467,
                "tempo": 120.0
            },
            {
                "start_time": 5.009090909090909,
                "end_time": 5.1886363636363635,
                "pitch": 60,
                "velocity": 80,
                "duration": 0.17954545454545467,
                "tempo": 120.0
            },
            {
                "start_time": 5.204545454545454,
                "end_time": 5.393181818181818,
                "pitch": 59,
                "velocity": 80,
                "duration": 0.1886363636363635,
                "tempo": 120.0
            },
            {
                "start_time": 5.411363636363636,
                "end_time": 5.6,
                "pitch": 55,
                "velocity": 80,
                "duration": 0.1886363636363635,
                "tempo": 120.0
            },
            {
                "start_time": 5.61590909090909,
                "end_time": 5.8,
                "pitch": 57,
                "velocity": 80,
                "duration": 0.18409090909090953,
                "tempo": 120.0
            },
            {
                "start_time": 5.818181818181818,
                "end_time": 5.902272727272727,
                "pitch": 62,
                "velocity": 80,
                "duration": 0.084090909090909,
                "tempo": 120.0
            },
            {
                "start_time": 5.918181818181818,
                "end_time": 6.202272727272727,
                "pitch": 67,
                "velocity": 80,
                "duration": 0.28409090909090917,
                "tempo": 120.0
            },
            {
                "start_time": 6.218181818181818,
                "end_time": 6.402272727272727,
                "pitch": 62,
                "velocity": 80,
                "duration": 0.18409090909090953,
                "tempo": 120.0
            },
            {
                "start_time": 6.418181818181818,
                "end_time": 7.004545454545454,
                "pitch": 64,
                "velocity": 80,
                "duration": 0.586363636363636,
                "tempo": 120.0
            },
            {
                "start_time": 7.0204545454545455,
                "end_time": 7.3999999999999995,
                "pitch": 57,
                "velocity": 80,
                "duration": 0.37954545454545396,
                "tempo": 120.0
            },
            {
                "start_time": 7.418181818181818,
                "end_time": 7.597727272727273,
                "pitch": 59,
                "velocity": 80,
                "duration": 0.17954545454545467,
                "tempo": 120.0
            },
            {
                "start_time": 7.613636363636363,
                "end_time": 7.802272727272727,
                "pitch": 60,
                "velocity": 80,
                "duration": 0.1886363636363635,
                "tempo": 120.0
            },
            {
                "start_time": 7.8181818181818175,
                "end_time": 8.006818181818181,
                "pitch": 62,
                "velocity": 80,
                "duration": 0.1886363636363635,
                "tempo": 120.0
            },
            {
                "start_time": 8.025,
                "end_time": 8.60909090909091,
                "pitch": 62,
                "velocity": 80,
                "duration": 0.584090909090909,
                "tempo": 120.0
            },
            {
                "start_time": 8.625,
                "end_time": 8.709090909090909,
                "pitch": 59,
                "velocity": 80,
                "duration": 0.084090909090909,
                "tempo": 120.0
            },
            {
                "start_time": 8.727272727272727,
                "end_time": 9.011363636363637,
                "pitch": 64,
                "velocity": 80,
                "duration": 0.28409090909091006,
                "tempo": 120.0
            },
            {
                "start_time": 9.027272727272727,
                "end_time": 9.213636363636363,
                "pitch": 55,
                "velocity": 80,
                "duration": 0.18636363636363562,
                "tempo": 120.0
            },
            {
                "start_time": 9.229545454545454,
                "end_time": 9.413636363636364,
                "pitch": 57,
                "velocity": 80,
                "duration": 0.18409090909091042,
                "tempo": 120.0
            },
            {
                "start_time": 9.431818181818182,
                "end_time": 9.61590909090909,
                "pitch": 52,
                "velocity": 80,
                "duration": 0.18409090909090864,
                "tempo": 120.0
            },
            {
                "start_time": 9.631818181818181,
                "end_time": 9.81590909090909,
                "pitch": 57,
                "velocity": 80,
                "duration": 0.18409090909090864,
                "tempo": 120.0
            },
            {
                "start_time": 9.831818181818182,
                "end_time": 10.01590909090909,
                "pitch": 59,
                "velocity": 80,
                "duration": 0.18409090909090864,
                "tempo": 120.0
            },
            {
                "start_time": 10.031818181818181,
                "end_time": 10.21590909090909,
                "pitch": 60,
                "velocity": 80,
                "duration": 0.18409090909090864,
                "tempo": 120.0
            },
            {
                "start_time": 10.23409090909091,
                "end_time": 10.620454545454544,
                "pitch": 62,
                "velocity": 80,
                "duration": 0.3863636363636349,
                "tempo": 120.0
            },
            {
                "start_time": 10.636363636363637,
                "end_time": 10.820454545454545,
                "pitch": 67,
                "velocity": 80,
                "duration": 0.18409090909090864,
                "tempo": 120.0
            },
            {
                "start_time": 10.838636363636363,
                "end_time": 11.022727272727272,
                "pitch": 65,
                "velocity": 80,
                "duration": 0.18409090909090864,
                "tempo": 120.0
            },
            {
                "start_time": 11.038636363636362,
                "end_time": 11.222727272727273,
                "pitch": 64,
                "velocity": 80,
                "duration": 0.18409090909091042,
                "tempo": 120.0
            },
            {
                "start_time": 11.24090909090909,
                "end_time": 11.827272727272726,
                "pitch": 60,
                "velocity": 80,
                "duration": 0.586363636363636,
                "tempo": 120.0
            },
            {
                "start_time": 11.843181818181817,
                "end_time": 12.227272727272727,
                "pitch": 59,
                "velocity": 80,
                "duration": 0.3840909090909097,
                "tempo": 120.0
            },
            {
                "start_time": 12.245454545454544,
                "end_time": 12.843181818181817,
                "pitch": 55,
                "velocity": 80,
                "duration": 0.5977272727272727,
                "tempo": 120.0
            }
        ],
        "Acoustic Bass": [
            {
                "start_time": 0.006818181818181818,
                "end_time": 0.1909090909090909,
                "pitch": 33,
                "velocity": 80,
                "duration": 0.18409090909090908,
                "tempo": 120.0
            },
            {
                "start_time": 0.20909090909090908,
                "end_time": 0.3931818181818182,
                "pitch": 33,
                "velocity": 80,
                "duration": 0.1840909090909091,
                "tempo": 120.0
            },
            {
                "start_time": 0.40909090909090906,
                "end_time": 0.5909090909090908,
                "pitch": 33,
                "velocity": 80,
                "duration": 0.18181818181818177,
                "tempo": 120.0
            },
            {
                "start_time": 0.6068181818181818,
                "end_time": 0.7863636363636364,
                "pitch": 33,
                "velocity": 80,
                "duration": 0.17954545454545456,
                "tempo": 120.0
            },
            {
                "start_time": 0.8022727272727272,
                "end_time": 0.9863636363636363,
                "pitch": 33,
                "velocity": 80,
                "duration": 0.18409090909090908,
                "tempo": 120.0
            },
            {
                "start_time": 1.0045454545454544,
                "end_time": 1.1886363636363635,
                "pitch": 33,
                "velocity": 80,
                "duration": 0.18409090909090908,
                "tempo": 120.0
            },
            {
                "start_time": 1.2045454545454546,
                "end_time": 1.3886363636363637,
                "pitch": 35,
                "velocity": 80,
                "duration": 0.18409090909090908,
                "tempo": 120.0
            },
            {
                "start_time": 1.4045454545454545,
                "end_time": 1.5886363636363636,
                "pitch": 36,
                "velocity": 80,
                "duration": 0.18409090909090908,
                "tempo": 120.0
            },
            {
                "start_time": 1.6045454545454545,
                "end_time": 2.3909090909090907,
                "pitch": 41,
                "velocity": 80,
                "duration": 0.7863636363636362,
                "tempo": 120.0
            },
            {
                "start_time": 2.4068181818181817,
                "end_time": 2.5863636363636364,
                "pitch": 41,
                "velocity": 80,
                "duration": 0.17954545454545467,
                "tempo": 120.0
            },
            {
                "start_time": 2.6045454545454545,
                "end_time": 2.784090909090909,
                "pitch": 41,
                "velocity": 80,
                "duration": 0.17954545454545467,
                "tempo": 120.0
            },
            {
                "start_time": 2.8,
                "end_time": 2.9886363636363633,
                "pitch": 41,
                "velocity": 80,
                "duration": 0.1886363636363635,
                "tempo": 120.0
            },
            {
                "start_time": 3.0045454545454544,
                "end_time": 3.193181818181818,
                "pitch": 41,
                "velocity": 80,
                "duration": 0.1886363636363635,
                "tempo": 120.0
            },
            {
                "start_time": 3.2113636363636364,
                "end_time": 3.393181818181818,
                "pitch": 40,
                "velocity": 80,
                "duration": 0.18181818181818166,
                "tempo": 120.0
            },
            {
                "start_time": 3.411363636363636,
                "end_time": 3.593181818181818,
                "pitch": 40,
                "velocity": 80,
                "duration": 0.18181818181818166,
                "tempo": 120.0
            },
            {
                "start_time": 3.6113636363636363,
                "end_time": 3.793181818181818,
                "pitch": 35,
                "velocity": 80,
                "duration": 0.18181818181818166,
                "tempo": 120.0
            },
            {
                "start_time": 3.811363636363636,
                "end_time": 3.993181818181818,
                "pitch": 40,
                "velocity": 80,
                "duration": 0.1818181818181821,
                "tempo": 120.0
            },
            {
                "start_time": 4.011363636363636,
                "end_time": 4.193181818181818,
                "pitch": 40,
                "velocity": 80,
                "duration": 0.18181818181818254,
                "tempo": 120.0
            },
            {
                "start_time": 4.211363636363636,
                "end_time": 4.393181818181818,
                "pitch": 35,
                "velocity": 80,
                "duration": 0.18181818181818166,
                "tempo": 120.0
            },
            {
                "start_time": 4.411363636363636,
                "end_time": 4.595454545454545,
                "pitch": 38,
                "velocity": 80,
                "duration": 0.18409090909090864,
                "tempo": 120.0
            },
            {
                "start_time": 4.611363636363636,
                "end_time": 4.795454545454545,
                "pitch": 40,
                "velocity": 80,
                "duration": 0.18409090909090864,
                "tempo": 120.0
            },
            {
                "start_time": 4.8136363636363635,
                "end_time": 4.993181818181818,
                "pitch": 41,
                "velocity": 80,
                "duration": 0.17954545454545467,
                "tempo": 120.0
            },
            {
                "start_time": 5.009090909090909,
                "end_time": 5.1886363636363635,
                "pitch": 41,
                "velocity": 80,
                "duration": 0.17954545454545467,
                "tempo": 120.0
            },
            {
                "start_time": 5.204545454545454,
                "end_time": 5.393181818181818,
                "pitch": 41,
                "velocity": 80,
                "duration": 0.1886363636363635,
                "tempo": 120.0
            },
            {
                "start_time": 5.411363636363636,
                "end_time": 5.6,
                "pitch": 41,
                "velocity": 80,
                "duration": 0.1886363636363635,
                "tempo": 120.0
            },
            {
                "start_time": 5.61590909090909,
                "end_time": 5.8,
                "pitch": 41,
                "velocity": 80,
                "duration": 0.18409090909090953,
                "tempo": 120.0
            },
            {
                "start_time": 5.818181818181818,
                "end_time": 6.002272727272727,
                "pitch": 41,
                "velocity": 80,
                "duration": 0.18409090909090864,
                "tempo": 120.0
            },
            {
                "start_time": 6.018181818181818,
                "end_time": 6.202272727272727,
                "pitch": 41,
                "velocity": 80,
                "duration": 0.18409090909090953,
                "tempo": 120.0
            },
            {
                "start_time": 6.218181818181818,
                "end_time": 6.402272727272727,
                "pitch": 41,
                "velocity": 80,
                "duration": 0.18409090909090953,
                "tempo": 120.0
            },
            {
                "start_time": 6.418181818181818,
                "end_time": 6.602272727272727,
                "pitch": 43,
                "velocity": 80,
                "duration": 0.18409090909090864,
                "tempo": 120.0
            },
            {
                "start_time": 6.620454545454545,
                "end_time": 6.804545454545454,
                "pitch": 43,
                "velocity": 80,
                "duration": 0.18409090909090864,
                "tempo": 120.0
            },
            {
                "start_time": 6.820454545454545,
                "end_time": 7.004545454545454,
                "pitch": 43,
                "velocity": 80,
                "duration": 0.18409090909090864,
                "tempo": 120.0
            },
            {
                "start_time": 7.0204545454545455,
                "end_time": 7.204545454545454,
                "pitch": 43,
                "velocity": 80,
                "duration": 0.18409090909090864,
                "tempo": 120.0
            },
            {
                "start_time": 7.220454545454545,
                "end_time": 7.3999999999999995,
                "pitch": 43,
                "velocity": 80,
                "duration": 0.17954545454545467,
                "tempo": 120.0
            },
            {
                "start_time": 7.418181818181818,
                "end_time": 7.597727272727273,
                "pitch": 43,
                "velocity": 80,
                "duration": 0.17954545454545467,
                "tempo": 120.0
            },
            {
                "start_time": 7.613636363636363,
                "end_time": 7.802272727272727,
                "pitch": 43,
                "velocity": 80,
                "duration": 0.1886363636363635,
                "tempo": 120.0
            },
            {
                "start_time": 7.8181818181818175,
                "end_time": 8.006818181818181,
                "pitch": 41,
                "velocity": 80,
                "duration": 0.1886363636363635,
                "tempo": 120.0
            },
            {
                "start_time": 8.025,
                "end_time": 8.206818181818182,
                "pitch": 40,
                "velocity": 80,
                "duration": 0.18181818181818166,
                "tempo": 120.0
            },
            {
                "start_time": 8.225,
                "end_time": 8.406818181818181,
                "pitch": 40,
                "velocity": 80,
                "duration": 0.18181818181818166,
                "tempo": 120.0
            },
            {
                "start_time": 8.424999999999999,
                "end_time": 8.60909090909091,
                "pitch": 40,
                "velocity": 80,
                "duration": 0.18409090909091042,
                "tempo": 120.0
            },
            {
                "start_time": 8.625,
                "end_time": 8.811363636363636,
                "pitch": 40,
                "velocity": 80,
                "duration": 0.18636363636363562,
                "tempo": 120.0
            },
            {
                "start_time": 8.827272727272726,
                "end_time": 9.011363636363637,
                "pitch": 40,
                "velocity": 80,
                "duration": 0.18409090909091042,
                "tempo": 120.0
            },
            {
                "start_time": 9.027272727272727,
                "end_time": 9.213636363636363,
                "pitch": 40,
                "velocity": 80,
                "duration": 0.18636363636363562,
                "tempo": 120.0
            },
            {
                "start_time": 9.229545454545454,
                "end_time": 9.413636363636364,
                "pitch": 38,
                "velocity": 80,
                "duration": 0.18409090909091042,
                "tempo": 120.0
            },
            {
                "start_time": 9.431818181818182,
                "end_time": 9.447727272727272,
                "pitch": 39,
                "velocity": 80,
                "duration": 0.01590909090909065,
                "tempo": 120.0
            },
            {
                "start_time": 9.463636363636363,
                "end_time": 9.61590909090909,
                "pitch": 39,
                "velocity": 80,
                "duration": 0.15227272727272734,
                "tempo": 120.0
            },
            {
                "start_time": 9.631818181818181,
                "end_time": 9.81590909090909,
                "pitch": 41,
                "velocity": 80,
                "duration": 0.18409090909090864,
                "tempo": 120.0
            },
            {
                "start_time": 9.831818181818182,
                "end_time": 10.01590909090909,
                "pitch": 41,
                "velocity": 80,
                "duration": 0.18409090909090864,
                "tempo": 120.0
            },
            {
                "start_time": 10.031818181818181,
                "end_time": 10.21590909090909,
                "pitch": 41,
                "velocity": 80,
                "duration": 0.18409090909090864,
                "tempo": 120.0
            },
            {
                "start_time": 10.23409090909091,
                "end_time": 10.418181818181818,
                "pitch": 41,
                "velocity": 80,
                "duration": 0.18409090909090864,
                "tempo": 120.0
            },
            {
                "start_time": 10.434090909090909,
                "end_time": 10.620454545454544,
                "pitch": 41,
                "velocity": 80,
                "duration": 0.18636363636363562,
                "tempo": 120.0
            },
            {
                "start_time": 10.636363636363637,
                "end_time": 10.820454545454545,
                "pitch": 41,
                "velocity": 80,
                "duration": 0.18409090909090864,
                "tempo": 120.0
            },
            {
                "start_time": 10.838636363636363,
                "end_time": 11.022727272727272,
                "pitch": 40,
                "velocity": 80,
                "duration": 0.18409090909090864,
                "tempo": 120.0
            },
            {
                "start_time": 11.038636363636362,
                "end_time": 11.222727272727273,
                "pitch": 43,
                "velocity": 80,
                "duration": 0.18409090909091042,
                "tempo": 120.0
            },
            {
                "start_time": 11.24090909090909,
                "end_time": 11.424999999999999,
                "pitch": 44,
                "velocity": 80,
                "duration": 0.18409090909090864,
                "tempo": 120.0
            },
            {
                "start_time": 11.44090909090909,
                "end_time": 11.627272727272727,
                "pitch": 44,
                "velocity": 80,
                "duration": 0.1863636363636374,
                "tempo": 120.0
            },
            {
                "start_time": 11.643181818181818,
                "end_time": 11.827272727272726,
                "pitch": 44,
                "velocity": 80,
                "duration": 0.18409090909090864,
                "tempo": 120.0
            },
            {
                "start_time": 11.843181818181817,
                "end_time": 12.027272727272727,
                "pitch": 41,
                "velocity": 80,
                "duration": 0.18409090909091042,
                "tempo": 120.0
            },
            {
                "start_time": 12.043181818181818,
                "end_time": 12.227272727272727,
                "pitch": 40,
                "velocity": 80,
                "duration": 0.18409090909090864,
                "tempo": 120.0
            },
            {
                "start_time": 12.245454545454544,
                "end_time": 12.429545454545455,
                "pitch": 40,
                "velocity": 80,
                "duration": 0.18409090909091042,
                "tempo": 120.0
            },
            {
                "start_time": 12.445454545454545,
                "end_time": 12.629545454545454,
                "pitch": 40,
                "velocity": 80,
                "duration": 0.18409090909090864,
                "tempo": 120.0
            },
            {
                "start_time": 12.647727272727272,
                "end_time": 12.843181818181817,
                "pitch": 40,
                "velocity": 80,
                "duration": 0.19545454545454533,
                "tempo": 120.0
            }
        ]
    }
}