{
    "track_id": "Rampage (FM) - 07 - Title Screen (Fast)",
    "mood": "happy",
    "instruments": {
        "Electric Guitar (clean)": [
            {
                "start_time": 0.0,
                "end_time": 0.1659090909090909,
                "pitch": 33,
                "velocity": 80,
                "duration": 0.1659090909090909,
                "tempo": 120.0
            },
            {
                "start_time": 0.18409090909090908,
                "end_time": 0.3659090909090909,
                "pitch": 33,
                "velocity": 80,
                "duration": 0.18181818181818182,
                "tempo": 120.0
            },
            {
                "start_time": 0.3840909090909091,
                "end_time": 0.5659090909090909,
                "pitch": 33,
                "velocity": 80,
                "duration": 0.18181818181818182,
                "tempo": 120.0
            },
            {
                "start_time": 0.5840909090909091,
                "end_time": 0.7659090909090909,
                "pitch": 33,
                "velocity": 80,
                "duration": 0.18181818181818177,
                "tempo": 120.0
            },
            {
                "start_time": 0.7840909090909091,
                "end_time": 0.9659090909090908,
                "pitch": 33,
                "velocity": 80,
                "duration": 0.18181818181818177,
                "tempo": 120.0
            },
            {
                "start_time": 0.984090909090909,
                "end_time": 1.1659090909090908,
                "pitch": 33,
                "velocity": 80,
                "duration": 0.18181818181818177,
                "tempo": 120.0
            },
            {
                "start_time": 1.184090909090909,
                "end_time": 1.3659090909090907,
                "pitch": 33,
                "velocity": 80,
                "duration": 0.18181818181818166,
                "tempo": 120.0
            },
            {
                "start_time": 1.384090909090909,
                "end_time": 1.565909090909091,
                "pitch": 33,
                "velocity": 80,
                "duration": 0.18181818181818188,
                "tempo": 120.0
            },
            {
                "start_time": 1.584090909090909,
                "end_time": 1.768181818181818,
                "pitch": 31,
                "velocity": 80,
                "duration": 0.18409090909090908,
                "tempo": 120.0
            },
            {
                "start_time": 1.784090909090909,
                "end_time": 1.968181818181818,
                "pitch": 31,
                "velocity": 80,
                "duration": 0.18409090909090908,
                "tempo": 120.0
            },
            {
                "start_time": 1.9863636363636363,
                "end_time": 2.168181818181818,
                "pitch": 31,
                "velocity": 80,
                "duration": 0.18181818181818166,
                "tempo": 120.0
            },
            {
                "start_time": 2.186363636363636,
                "end_time": 2.368181818181818,
                "pitch": 31,
                "velocity": 80,
                "duration": 0.1818181818181821,
                "tempo": 120.0
            },
            {
                "start_time": 2.3863636363636362,
                "end_time": 2.568181818181818,
                "pitch": 31,
                "velocity": 80,
                "duration": 0.18181818181818166,
                "tempo": 120.0
            },
            {
                "start_time": 2.5863636363636364,
                "end_time": 2.768181818181818,
                "pitch": 31,
                "velocity": 80,
                "duration": 0.18181818181818166,
                "tempo": 120.0
            },
            {
                "start_time": 2.786363636363636,
                "end_time": 2.9681818181818183,
                "pitch": 31,
                "velocity": 80,
                "duration": 0.1818181818181821,
                "tempo": 120.0
            },
            {
                "start_time": 2.9863636363636363,
                "end_time": 3.168181818181818,
                "pitch": 31,
                "velocity": 80,
                "duration": 0.18181818181818166,
                "tempo": 120.0
            },
            {
                "start_time": 3.186363636363636,
                "end_time": 3.370454545454545,
                "pitch": 29,
                "velocity": 80,
                "duration": 0.18409090909090908,
                "tempo": 120.0
            },
            {
                "start_time": 3.3863636363636362,
                "end_time": 3.5727272727272728,
                "pitch": 29,
                "velocity": 80,
                "duration": 0.1863636363636365,
                "tempo": 120.0
            },
            {
                "start_time": 3.5886363636363634,
                "end_time": 3.7727272727272725,
                "pitch": 29,
                "velocity": 80,
                "duration": 0.18409090909090908,
                "tempo": 120.0
            },
            {
                "start_time": 3.7886363636363636,
                "end_time": 3.9727272727272727,
                "pitch": 29,
                "velocity": 80,
                "duration": 0.18409090909090908,
                "tempo": 120.0
            },
            {
                "start_time": 3.9886363636363633,
                "end_time": 4.172727272727273,
                "pitch": 31,
                "velocity": 80,
                "duration": 0.18409090909090953,
                "tempo": 120.0
            },
            {
                "start_time": 4.1886363636363635,
                "end_time": 4.372727272727272,
                "pitch": 31,
                "velocity": 80,
                "duration": 0.18409090909090864,
                "tempo": 120.0
            },
            {
                "start_time": 4.388636363636364,
                "end_time": 4.572727272727272,
                "pitch": 31,
                "velocity": 80,
                "duration": 0.18409090909090864,
                "tempo": 120.0
            },
            {
                "start_time": 4.588636363636364,
                "end_time": 4.7727272727272725,
                "pitch": 31,
                "velocity": 80,
                "duration": 0.18409090909090864,
                "tempo": 120.0
            },
            {
                "start_time": 4.788636363636363,
                "end_time": 6.370454545454545,
                "pitch": 33,
                "velocity": 80,
                "duration": 1.581818181818182,
                "tempo": 120.0
            }
        ],
        "Oboe": [
            {
                "start_time": 0.0,
                "end_time": 1.565909090909091,
                "pitch": 69,
                "velocity": 51,
                "duration": 1.565909090909091,
                "tempo": 120.0
            },
            {
                "start_time": 1.584090909090909,
                "end_time": 3.168181818181818,
                "pitch": 67,
                "velocity": 51,
                "duration": 1.584090909090909,
                "tempo": 120.0
            },
            {
                "start_time": 3.186363636363636,
                "end_time": 3.9727272727272727,
                "pitch": 65,
                "velocity": 51,
                "duration": 0.7863636363636366,
                "tempo": 120.0
            },
            {
                "start_time": 3.9886363636363633,
                "end_time": 4.7727272727272725,
                "pitch": 67,
                "velocity": 51,
                "duration": 0.7840909090909092,
                "tempo": 120.0
            },
            {
                "start_time": 4.788636363636363,
                "end_time": 6.370454545454545,
                "pitch": 69,
                "velocity": 51,
                "duration": 1.581818181818182,
                "tempo": 120.0
            }
        ],
        "Church Organ": [
            {
                "start_time": 0.0,
                "end_time": 0.03409090909090909,
                "pitch": 30,
                "velocity": 51,
                "duration": 0.03409090909090909,
                "tempo": 120.0
            },
            {
                "start_time": 0.049999999999999996,
                "end_time": 0.23409090909090907,
                "pitch": 76,
                "velocity": 51,
                "duration": 0.18409090909090908,
                "tempo": 120.0
            },
            {
                "start_time": 0.25,
                "end_time": 0.33409090909090905,
                "pitch": 74,
                "velocity": 51,
                "duration": 0.08409090909090905,
                "tempo": 120.0
            },
            {
                "start_time": 0.35,
                "end_time": 0.4340909090909091,
                "pitch": 73,
                "velocity": 51,
                "duration": 0.0840909090909091,
                "tempo": 120.0
            },
            {
                "start_time": 0.44999999999999996,
                "end_time": 1.434090909090909,
                "pitch": 69,
                "velocity": 51,
                "duration": 0.9840909090909091,
                "tempo": 120.0
            },
            {
                "start_time": 1.45,
                "end_time": 1.534090909090909,
                "pitch": 74,
                "velocity": 51,
                "duration": 0.084090909090909,
                "tempo": 120.0
            },
            {
                "start_time": 1.5499999999999998,
                "end_time": 1.634090909090909,
                "pitch": 76,
                "velocity": 51,
                "duration": 0.08409090909090922,
                "tempo": 120.0
            },
            {
                "start_time": 1.65,
                "end_time": 3.036363636363636,
                "pitch": 67,
                "velocity": 51,
                "duration": 1.3863636363636362,
                "tempo": 120.0
            },
            {
                "start_time": 3.0522727272727272,
                "end_time": 3.1363636363636362,
                "pitch": 72,
                "velocity": 51,
                "duration": 0.084090909090909,
                "tempo": 120.0
            },
            {
                "start_time": 3.1522727272727273,
                "end_time": 3.2363636363636363,
                "pitch": 74,
                "velocity": 51,
                "duration": 0.084090909090909,
                "tempo": 120.0
            },
            {
                "start_time": 3.252272727272727,
                "end_time": 3.8386363636363634,
                "pitch": 65,
                "velocity": 51,
                "duration": 0.5863636363636364,
                "tempo": 120.0
            },
            {
                "start_time": 3.8545454545454545,
                "end_time": 3.9386363636363635,
                "pitch": 72,
                "velocity": 51,
                "duration": 0.084090909090909,
                "tempo": 120.0
            },
            {
                "start_time": 3.954545454545454,
                "end_time": 4.038636363636363,
                "pitch": 74,
                "velocity": 51,
                "duration": 0.084090909090909,
                "tempo": 120.0
            },
            {
                "start_time": 4.054545454545455,
                "end_time": 4.638636363636364,
                "pitch": 67,
                "velocity": 51,
                "duration": 0.584090909090909,
                "tempo": 120.0
            },
            {
                "start_time": 4.654545454545454,
                "end_time": 4.738636363636363,
                "pitch": 67,
                "velocity": 51,
                "duration": 0.084090909090909,
                "tempo": 120.0
            },
            {
                "start_time": 4.754545454545454,
                "end_time": 4.838636363636363,
                "pitch": 76,
                "velocity": 51,
                "duration": 0.084090909090909,
                "tempo": 120.0
            },
            {
                "start_time": 4.8545454545454545,
                "end_time": 6.436363636363636,
                "pitch": 69,
                "velocity": 51,
                "duration": 1.5818181818181811,
                "tempo": 120.0
            }
        ]
    }
}