{
    "track_id": "Rampage (FM) - 02 - Character Selection",
    "mood": "happy",
    "instruments": {
        "Acoustic Bass": [
            {
                "start_time": 0.0,
                "end_time": 0.3727272727272727,
                "pitch": 36,
                "velocity": 64,
                "duration": 0.3727272727272727,
                "tempo": 120.0
            },
            {
                "start_time": 0.38636363636363635,
                "end_time": 0.8522727272727272,
                "pitch": 36,
                "velocity": 64,
                "duration": 0.46590909090909083,
                "tempo": 120.0
            },
            {
                "start_time": 0.8704545454545454,
                "end_time": 1.3477272727272727,
                "pitch": 60,
                "velocity": 64,
                "duration": 0.4772727272727273,
                "tempo": 120.0
            },
            {
                "start_time": 1.3659090909090907,
                "end_time": 1.5818181818181818,
                "pitch": 36,
                "velocity": 64,
                "duration": 0.21590909090909105,
                "tempo": 120.0
            },
            {
                "start_time": 1.5977272727272727,
                "end_time": 2.2977272727272724,
                "pitch": 62,
                "velocity": 64,
                "duration": 0.6999999999999997,
                "tempo": 120.0
            },
            {
                "start_time": 2.315909090909091,
                "end_time": 2.775,
                "pitch": 36,
                "velocity": 64,
                "duration": 0.459090909090909,
                "tempo": 120.0
            },
            {
                "start_time": 2.7909090909090906,
                "end_time": 3.006818181818182,
                "pitch": 53,
                "velocity": 64,
                "duration": 0.21590909090909127,
                "tempo": 120.0
            },
            {
                "start_time": 3.0409090909090906,
                "end_time": 3.7409090909090907,
                "pitch": 55,
                "velocity": 64,
                "duration": 0.7000000000000002,
                "tempo": 120.0
            },
            {
                "start_time": 3.756818181818182,
                "end_time": 4.206818181818182,
                "pitch": 36,
                "velocity": 64,
                "duration": 0.4500000000000002,
                "tempo": 120.0
            },
            {
                "start_time": 4.24090909090909,
                "end_time": 4.702272727272727,
                "pitch": 36,
                "velocity": 64,
                "duration": 0.46136363636363686,
                "tempo": 120.0
            },
            {
                "start_time": 4.718181818181818,
                "end_time": 5.177272727272727,
                "pitch": 60,
                "velocity": 64,
                "duration": 0.459090909090909,
                "tempo": 120.0
            },
            {
                "start_time": 5.193181818181818,
                "end_time": 5.411363636363636,
                "pitch": 36,
                "velocity": 64,
                "duration": 0.2181818181818178,
                "tempo": 120.0
            },
            {
                "start_time": 5.443181818181818,
                "end_time": 6.1477272727272725,
                "pitch": 62,
                "velocity": 64,
                "duration": 0.7045454545454541,
                "tempo": 120.0
            },
            {
                "start_time": 6.165909090909091,
                "end_time": 6.625,
                "pitch": 36,
                "velocity": 64,
                "duration": 0.459090909090909,
                "tempo": 120.0
            },
            {
                "start_time": 6.659090909090909,
                "end_time": 6.877272727272727,
                "pitch": 53,
                "velocity": 64,
                "duration": 0.2181818181818178,
                "tempo": 120.0
            },
            {
                "start_time": 6.893181818181818,
                "end_time": 7.586363636363636,
                "pitch": 55,
                "velocity": 64,
                "duration": 0.6931818181818183,
                "tempo": 120.0
            },
            {
                "start_time": 7.602272727272727,
                "end_time": 8.072727272727272,
                "pitch": 36,
                "velocity": 64,
                "duration": 0.4704545454545457,
                "tempo": 120.0
            },
            {
                "start_time": 8.088636363636363,
                "end_time": 8.568181818181818,
                "pitch": 36,
                "velocity": 64,
                "duration": 0.4795454545454554,
                "tempo": 120.0
            },
            {
                "start_time": 8.584090909090909,
                "end_time": 9.038636363636364,
                "pitch": 60,
                "velocity": 64,
                "duration": 0.45454545454545503,
                "tempo": 120.0
            },
            {
                "start_time": 9.072727272727272,
                "end_time": 9.288636363636364,
                "pitch": 36,
                "velocity": 64,
                "duration": 0.21590909090909172,
                "tempo": 120.0
            },
            {
                "start_time": 9.304545454545455,
                "end_time": 9.997727272727273,
                "pitch": 62,
                "velocity": 64,
                "duration": 0.6931818181818183,
                "tempo": 120.0
            },
            {
                "start_time": 10.013636363636364,
                "end_time": 10.48409090909091,
                "pitch": 36,
                "velocity": 64,
                "duration": 0.4704545454545457,
                "tempo": 120.0
            },
            {
                "start_time": 10.502272727272727,
                "end_time": 10.722727272727273,
                "pitch": 53,
                "velocity": 64,
                "duration": 0.22045454545454568,
                "tempo": 120.0
            },
            {
                "start_time": 10.74090909090909,
                "end_time": 11.445454545454545,
                "pitch": 55,
                "velocity": 64,
                "duration": 0.704545454545455,
                "tempo": 120.0
            },
            {
                "start_time": 11.479545454545454,
                "end_time": 11.934090909090909,
                "pitch": 36,
                "velocity": 64,
                "duration": 0.45454545454545503,
                "tempo": 120.0
            },
            {
                "start_time": 11.95,
                "end_time": 12.409090909090908,
                "pitch": 36,
                "velocity": 64,
                "duration": 0.459090909090909,
                "tempo": 120.0
            },
            {
                "start_time": 12.424999999999999,
                "end_time": 12.895454545454545,
                "pitch": 60,
                "velocity": 64,
                "duration": 0.4704545454545457,
                "tempo": 120.0
            },
            {
                "start_time": 12.913636363636362,
                "end_time": 13.134090909090908,
                "pitch": 36,
                "velocity": 64,
                "duration": 0.22045454545454568,
                "tempo": 120.0
            },
            {
                "start_time": 13.152272727272727,
                "end_time": 13.861363636363636,
                "pitch": 62,
                "velocity": 64,
                "duration": 0.709090909090909,
                "tempo": 120.0
            },
            {
                "start_time": 13.895454545454545,
                "end_time": 14.35,
                "pitch": 36,
                "velocity": 64,
                "duration": 0.45454545454545503,
                "tempo": 120.0
            },
            {
                "start_time": 14.36590909090909,
                "end_time": 14.595454545454544,
                "pitch": 53,
                "velocity": 64,
                "duration": 0.2295454545454536,
                "tempo": 120.0
            },
            {
                "start_time": 14.611363636363636,
                "end_time": 15.309090909090909,
                "pitch": 55,
                "velocity": 64,
                "duration": 0.6977272727272723,
                "tempo": 120.0
            },
            {
                "start_time": 15.325,
                "end_time": 16.756818181818183,
                "pitch": 38,
                "velocity": 64,
                "duration": 1.4318181818181834,
                "tempo": 120.0
            },
            {
                "start_time": 16.772727272727273,
                "end_time": 17.009090909090908,
                "pitch": 38,
                "velocity": 64,
                "duration": 0.23636363636363455,
                "tempo": 120.0
            },
            {
                "start_time": 17.025,
                "end_time": 18.68409090909091,
                "pitch": 41,
                "velocity": 64,
                "duration": 1.65909090909091,
                "tempo": 120.0
            },
            {
                "start_time": 18.71818181818182,
                "end_time": 18.936363636363634,
                "pitch": 41,
                "velocity": 64,
                "duration": 0.21818181818181515,
                "tempo": 120.0
            },
            {
                "start_time": 18.954545454545453,
                "end_time": 20.62272727272727,
                "pitch": 43,
                "velocity": 64,
                "duration": 1.668181818181818,
                "tempo": 120.0
            },
            {
                "start_time": 20.638636363636362,
                "end_time": 20.863636363636363,
                "pitch": 43,
                "velocity": 64,
                "duration": 0.22500000000000142,
                "tempo": 120.0
            },
            {
                "start_time": 20.88181818181818,
                "end_time": 21.584090909090907,
                "pitch": 41,
                "velocity": 64,
                "duration": 0.702272727272728,
                "tempo": 120.0
            },
            {
                "start_time": 21.602272727272727,
                "end_time": 21.836363636363636,
                "pitch": 41,
                "velocity": 64,
                "duration": 0.23409090909090935,
                "tempo": 120.0
            },
            {
                "start_time": 21.852272727272727,
                "end_time": 22.547727272727272,
                "pitch": 40,
                "velocity": 64,
                "duration": 0.6954545454545453,
                "tempo": 120.0
            },
            {
                "start_time": 22.563636363636363,
                "end_time": 22.788636363636364,
                "pitch": 40,
                "velocity": 64,
                "duration": 0.22500000000000142,
                "tempo": 120.0
            },
            {
                "start_time": 22.80681818181818,
                "end_time": 24.472727272727273,
                "pitch": 38,
                "velocity": 64,
                "duration": 1.6659090909090928,
                "tempo": 120.0
            },
            {
                "start_time": 24.488636363636363,
                "end_time": 24.709090909090907,
                "pitch": 38,
                "velocity": 64,
                "duration": 0.2204545454545439,
                "tempo": 120.0
            },
            {
                "start_time": 24.743181818181817,
                "end_time": 26.40681818181818,
                "pitch": 41,
                "velocity": 64,
                "duration": 1.663636363636364,
                "tempo": 120.0
            },
            {
                "start_time": 26.424999999999997,
                "end_time": 26.654545454545453,
                "pitch": 41,
                "velocity": 64,
                "duration": 0.22954545454545539,
                "tempo": 120.0
            },
            {
                "start_time": 26.670454545454543,
                "end_time": 28.331818181818182,
                "pitch": 43,
                "velocity": 64,
                "duration": 1.6613636363636388,
                "tempo": 120.0
            },
            {
                "start_time": 28.36590909090909,
                "end_time": 28.586363636363636,
                "pitch": 43,
                "velocity": 64,
                "duration": 0.22045454545454746,
                "tempo": 120.0
            },
            {
                "start_time": 28.604545454545452,
                "end_time": 29.293181818181818,
                "pitch": 41,
                "velocity": 64,
                "duration": 0.6886363636363662,
                "tempo": 120.0
            },
            {
                "start_time": 29.30909090909091,
                "end_time": 29.527272727272727,
                "pitch": 41,
                "velocity": 64,
                "duration": 0.2181818181818187,
                "tempo": 120.0
            },
            {
                "start_time": 29.561363636363634,
                "end_time": 30.261363636363633,
                "pitch": 40,
                "velocity": 64,
                "duration": 0.6999999999999993,
                "tempo": 120.0
            },
            {
                "start_time": 30.279545454545453,
                "end_time": 30.5,
                "pitch": 38,
                "velocity": 64,
                "duration": 0.22045454545454746,
                "tempo": 120.0
            },
            {
                "start_time": 30.518181818181816,
                "end_time": 32.67727272727272,
                "pitch": 36,
                "velocity": 64,
                "duration": 2.1590909090909065,
                "tempo": 120.0
            }
        ],
        "Trumpet": [
            {
                "start_time": 0.0,
                "end_time": 0.3727272727272727,
                "pitch": 60,
                "velocity": 51,
                "duration": 0.3727272727272727,
                "tempo": 120.0
            },
            {
                "start_time": 0.38636363636363635,
                "end_time": 0.8522727272727272,
                "pitch": 60,
                "velocity": 51,
                "duration": 0.46590909090909083,
                "tempo": 120.0
            },
            {
                "start_time": 0.8704545454545454,
                "end_time": 1.3477272727272727,
                "pitch": 76,
                "velocity": 51,
                "duration": 0.4772727272727273,
                "tempo": 120.0
            },
            {
                "start_time": 1.3659090909090907,
                "end_time": 1.5818181818181818,
                "pitch": 60,
                "velocity": 51,
                "duration": 0.21590909090909105,
                "tempo": 120.0
            },
            {
                "start_time": 1.5977272727272727,
                "end_time": 2.2977272727272724,
                "pitch": 78,
                "velocity": 51,
                "duration": 0.6999999999999997,
                "tempo": 120.0
            },
            {
                "start_time": 2.315909090909091,
                "end_time": 2.775,
                "pitch": 60,
                "velocity": 51,
                "duration": 0.459090909090909,
                "tempo": 120.0
            },
            {
                "start_time": 2.7909090909090906,
                "end_time": 3.006818181818182,
                "pitch": 69,
                "velocity": 51,
                "duration": 0.21590909090909127,
                "tempo": 120.0
            },
            {
                "start_time": 3.0409090909090906,
                "end_time": 3.7409090909090907,
                "pitch": 71,
                "velocity": 51,
                "duration": 0.7000000000000002,
                "tempo": 120.0
            },
            {
                "start_time": 3.756818181818182,
                "end_time": 4.206818181818182,
                "pitch": 60,
                "velocity": 51,
                "duration": 0.4500000000000002,
                "tempo": 120.0
            },
            {
                "start_time": 4.24090909090909,
                "end_time": 4.702272727272727,
                "pitch": 60,
                "velocity": 51,
                "duration": 0.46136363636363686,
                "tempo": 120.0
            },
            {
                "start_time": 4.718181818181818,
                "end_time": 5.177272727272727,
                "pitch": 76,
                "velocity": 51,
                "duration": 0.459090909090909,
                "tempo": 120.0
            },
            {
                "start_time": 5.193181818181818,
                "end_time": 5.411363636363636,
                "pitch": 60,
                "velocity": 51,
                "duration": 0.2181818181818178,
                "tempo": 120.0
            },
            {
                "start_time": 5.443181818181818,
                "end_time": 6.1477272727272725,
                "pitch": 78,
                "velocity": 51,
                "duration": 0.7045454545454541,
                "tempo": 120.0
            },
            {
                "start_time": 6.165909090909091,
                "end_time": 6.625,
                "pitch": 60,
                "velocity": 51,
                "duration": 0.459090909090909,
                "tempo": 120.0
            },
            {
                "start_time": 6.659090909090909,
                "end_time": 6.877272727272727,
                "pitch": 69,
                "velocity": 51,
                "duration": 0.2181818181818178,
                "tempo": 120.0
            },
            {
                "start_time": 6.893181818181818,
                "end_time": 7.586363636363636,
                "pitch": 71,
                "velocity": 51,
                "duration": 0.6931818181818183,
                "tempo": 120.0
            },
            {
                "start_time": 7.602272727272727,
                "end_time": 8.072727272727272,
                "pitch": 60,
                "velocity": 51,
                "duration": 0.4704545454545457,
                "tempo": 120.0
            },
            {
                "start_time": 8.088636363636363,
                "end_time": 8.568181818181818,
                "pitch": 60,
                "velocity": 51,
                "duration": 0.4795454545454554,
                "tempo": 120.0
            },
            {
                "start_time": 8.584090909090909,
                "end_time": 9.038636363636364,
                "pitch": 76,
                "velocity": 51,
                "duration": 0.45454545454545503,
                "tempo": 120.0
            },
            {
                "start_time": 9.072727272727272,
                "end_time": 9.288636363636364,
                "pitch": 60,
                "velocity": 51,
                "duration": 0.21590909090909172,
                "tempo": 120.0
            },
            {
                "start_time": 9.304545454545455,
                "end_time": 9.997727272727273,
                "pitch": 78,
                "velocity": 51,
                "duration": 0.6931818181818183,
                "tempo": 120.0
            },
            {
                "start_time": 10.013636363636364,
                "end_time": 10.48409090909091,
                "pitch": 60,
                "velocity": 51,
                "duration": 0.4704545454545457,
                "tempo": 120.0
            },
            {
                "start_time": 10.502272727272727,
                "end_time": 10.722727272727273,
                "pitch": 69,
                "velocity": 51,
                "duration": 0.22045454545454568,
                "tempo": 120.0
            },
            {
                "start_time": 10.74090909090909,
                "end_time": 11.445454545454545,
                "pitch": 71,
                "velocity": 51,
                "duration": 0.704545454545455,
                "tempo": 120.0
            },
            {
                "start_time": 11.479545454545454,
                "end_time": 11.934090909090909,
                "pitch": 60,
                "velocity": 51,
                "duration": 0.45454545454545503,
                "tempo": 120.0
            },
            {
                "start_time": 11.95,
                "end_time": 12.409090909090908,
                "pitch": 60,
                "velocity": 51,
                "duration": 0.459090909090909,
                "tempo": 120.0
            },
            {
                "start_time": 12.424999999999999,
                "end_time": 12.895454545454545,
                "pitch": 76,
                "velocity": 51,
                "duration": 0.4704545454545457,
                "tempo": 120.0
            },
            {
                "start_time": 12.913636363636362,
                "end_time": 13.134090909090908,
                "pitch": 60,
                "velocity": 51,
                "duration": 0.22045454545454568,
                "tempo": 120.0
            },
            {
                "start_time": 13.152272727272727,
                "end_time": 13.861363636363636,
                "pitch": 78,
                "velocity": 51,
                "duration": 0.709090909090909,
                "tempo": 120.0
            },
            {
                "start_time": 13.895454545454545,
                "end_time": 14.35,
                "pitch": 60,
                "velocity": 51,
                "duration": 0.45454545454545503,
                "tempo": 120.0
            },
            {
                "start_time": 14.36590909090909,
                "end_time": 14.595454545454544,
                "pitch": 69,
                "velocity": 51,
                "duration": 0.2295454545454536,
                "tempo": 120.0
            },
            {
                "start_time": 14.611363636363636,
                "end_time": 15.309090909090909,
                "pitch": 71,
                "velocity": 51,
                "duration": 0.6977272727272723,
                "tempo": 120.0
            },
            {
                "start_time": 15.325,
                "end_time": 16.756818181818183,
                "pitch": 53,
                "velocity": 51,
                "duration": 1.4318181818181834,
                "tempo": 120.0
            },
            {
                "start_time": 16.772727272727273,
                "end_time": 17.009090909090908,
                "pitch": 53,
                "velocity": 51,
                "duration": 0.23636363636363455,
                "tempo": 120.0
            },
            {
                "start_time": 17.025,
                "end_time": 18.68409090909091,
                "pitch": 57,
                "velocity": 51,
                "duration": 1.65909090909091,
                "tempo": 120.0
            },
            {
                "start_time": 18.71818181818182,
                "end_time": 18.936363636363634,
                "pitch": 57,
                "velocity": 51,
                "duration": 0.21818181818181515,
                "tempo": 120.0
            },
            {
                "start_time": 18.954545454545453,
                "end_time": 20.62272727272727,
                "pitch": 59,
                "velocity": 51,
                "duration": 1.668181818181818,
                "tempo": 120.0
            },
            {
                "start_time": 20.638636363636362,
                "end_time": 20.863636363636363,
                "pitch": 59,
                "velocity": 51,
                "duration": 0.22500000000000142,
                "tempo": 120.0
            },
            {
                "start_time": 20.88181818181818,
                "end_time": 21.584090909090907,
                "pitch": 57,
                "velocity": 51,
                "duration": 0.702272727272728,
                "tempo": 120.0
            },
            {
                "start_time": 21.602272727272727,
                "end_time": 21.836363636363636,
                "pitch": 57,
                "velocity": 51,
                "duration": 0.23409090909090935,
                "tempo": 120.0
            },
            {
                "start_time": 21.852272727272727,
                "end_time": 22.547727272727272,
                "pitch": 55,
                "velocity": 51,
                "duration": 0.6954545454545453,
                "tempo": 120.0
            },
            {
                "start_time": 22.563636363636363,
                "end_time": 22.788636363636364,
                "pitch": 55,
                "velocity": 51,
                "duration": 0.22500000000000142,
                "tempo": 120.0
            },
            {
                "start_time": 22.80681818181818,
                "end_time": 24.472727272727273,
                "pitch": 53,
                "velocity": 51,
                "duration": 1.6659090909090928,
                "tempo": 120.0
            },
            {
                "start_time": 24.488636363636363,
                "end_time": 24.709090909090907,
                "pitch": 53,
                "velocity": 51,
                "duration": 0.2204545454545439,
                "tempo": 120.0
            },
            {
                "start_time": 24.743181818181817,
                "end_time": 26.40681818181818,
                "pitch": 57,
                "velocity": 51,
                "duration": 1.663636363636364,
                "tempo": 120.0
            },
            {
                "start_time": 26.424999999999997,
                "end_time": 26.654545454545453,
                "pitch": 57,
                "velocity": 51,
                "duration": 0.22954545454545539,
                "tempo": 120.0
            },
            {
                "start_time": 26.670454545454543,
                "end_time": 28.331818181818182,
                "pitch": 59,
                "velocity": 51,
                "duration": 1.6613636363636388,
                "tempo": 120.0
            },
            {
                "start_time": 28.36590909090909,
                "end_time": 28.586363636363636,
                "pitch": 59,
                "velocity": 51,
                "duration": 0.22045454545454746,
                "tempo": 120.0
            },
            {
                "start_time": 28.604545454545452,
                "end_time": 29.293181818181818,
                "pitch": 57,
                "velocity": 51,
                "duration": 0.6886363636363662,
                "tempo": 120.0
            },
            {
                "start_time": 29.30909090909091,
                "end_time": 29.527272727272727,
                "pitch": 57,
                "velocity": 51,
                "duration": 0.2181818181818187,
                "tempo": 120.0
            },
            {
                "start_time": 29.561363636363634,
                "end_time": 30.261363636363633,
                "pitch": 55,
                "velocity": 51,
                "duration": 0.6999999999999993,
                "tempo": 120.0
            },
            {
                "start_time": 30.279545454545453,
                "end_time": 30.5,
                "pitch": 53,
                "velocity": 51,
                "duration": 0.22045454545454746,
                "tempo": 120.0
            },
            {
                "start_time": 30.518181818181816,
                "end_time": 32.67727272727272,
                "pitch": 52,
                "velocity": 51,
                "duration": 2.1590909090909065,
                "tempo": 120.0
            }
        ],
        "Church Organ": [
            {
                "start_time": 0.011363636363636364,
                "end_time": 0.038636363636363635,
                "pitch": 69,
                "velocity": 51,
                "duration": 0.02727272727272727,
                "tempo": 120.0
            },
            {
                "start_time": 0.05227272727272727,
                "end_time": 1.4159090909090908,
                "pitch": 76,
                "velocity": 51,
                "duration": 1.3636363636363635,
                "tempo": 120.0
            },
            {
                "start_time": 1.4477272727272728,
                "end_time": 1.6659090909090908,
                "pitch": 84,
                "velocity": 51,
                "duration": 0.21818181818181803,
                "tempo": 120.0
            },
            {
                "start_time": 1.6818181818181817,
                "end_time": 2.1477272727272725,
                "pitch": 83,
                "velocity": 51,
                "duration": 0.46590909090909083,
                "tempo": 120.0
            },
            {
                "start_time": 2.165909090909091,
                "end_time": 3.8068181818181817,
                "pitch": 81,
                "velocity": 51,
                "duration": 1.6409090909090907,
                "tempo": 120.0
            },
            {
                "start_time": 3.840909090909091,
                "end_time": 5.261363636363636,
                "pitch": 76,
                "velocity": 51,
                "duration": 1.420454545454545,
                "tempo": 120.0
            },
            {
                "start_time": 5.277272727272727,
                "end_time": 5.493181818181818,
                "pitch": 84,
                "velocity": 51,
                "duration": 0.21590909090909083,
                "tempo": 120.0
            },
            {
                "start_time": 5.511363636363636,
                "end_time": 5.9795454545454545,
                "pitch": 83,
                "velocity": 51,
                "duration": 0.4681818181818187,
                "tempo": 120.0
            },
            {
                "start_time": 5.997727272727272,
                "end_time": 7.670454545454545,
                "pitch": 81,
                "velocity": 51,
                "duration": 1.6727272727272728,
                "tempo": 120.0
            },
            {
                "start_time": 7.686363636363636,
                "end_time": 8.156818181818181,
                "pitch": 72,
                "velocity": 51,
                "duration": 0.4704545454545457,
                "tempo": 120.0
            },
            {
                "start_time": 8.174999999999999,
                "end_time": 8.634090909090908,
                "pitch": 72,
                "velocity": 51,
                "duration": 0.459090909090909,
                "tempo": 120.0
            },
            {
                "start_time": 8.668181818181818,
                "end_time": 9.372727272727273,
                "pitch": 84,
                "velocity": 51,
                "duration": 0.704545454545455,
                "tempo": 120.0
            },
            {
                "start_time": 9.388636363636364,
                "end_time": 9.834090909090909,
                "pitch": 83,
                "velocity": 51,
                "duration": 0.4454545454545453,
                "tempo": 120.0
            },
            {
                "start_time": 9.86590909090909,
                "end_time": 10.081818181818182,
                "pitch": 81,
                "velocity": 51,
                "duration": 0.21590909090909172,
                "tempo": 120.0
            },
            {
                "start_time": 10.097727272727273,
                "end_time": 10.31590909090909,
                "pitch": 83,
                "velocity": 51,
                "duration": 0.21818181818181692,
                "tempo": 120.0
            },
            {
                "start_time": 10.334090909090909,
                "end_time": 10.809090909090909,
                "pitch": 79,
                "velocity": 51,
                "duration": 0.47499999999999964,
                "tempo": 120.0
            },
            {
                "start_time": 10.825,
                "end_time": 11.045454545454545,
                "pitch": 81,
                "velocity": 51,
                "duration": 0.22045454545454568,
                "tempo": 120.0
            },
            {
                "start_time": 11.079545454545453,
                "end_time": 11.529545454545454,
                "pitch": 83,
                "velocity": 51,
                "duration": 0.45000000000000107,
                "tempo": 120.0
            },
            {
                "start_time": 11.547727272727272,
                "end_time": 12.01590909090909,
                "pitch": 72,
                "velocity": 51,
                "duration": 0.4681818181818187,
                "tempo": 120.0
            },
            {
                "start_time": 12.031818181818181,
                "end_time": 12.493181818181817,
                "pitch": 72,
                "velocity": 51,
                "duration": 0.461363636363636,
                "tempo": 120.0
            },
            {
                "start_time": 12.509090909090908,
                "end_time": 13.220454545454546,
                "pitch": 84,
                "velocity": 51,
                "duration": 0.7113636363636378,
                "tempo": 120.0
            },
            {
                "start_time": 13.236363636363636,
                "end_time": 15.39090909090909,
                "pitch": 83,
                "velocity": 51,
                "duration": 2.1545454545454543,
                "tempo": 120.0
            },
            {
                "start_time": 15.409090909090908,
                "end_time": 15.863636363636363,
                "pitch": 86,
                "velocity": 51,
                "duration": 0.45454545454545503,
                "tempo": 120.0
            },
            {
                "start_time": 15.897727272727272,
                "end_time": 16.120454545454546,
                "pitch": 88,
                "velocity": 51,
                "duration": 0.22272727272727444,
                "tempo": 120.0
            },
            {
                "start_time": 16.136363636363637,
                "end_time": 16.60681818181818,
                "pitch": 89,
                "velocity": 51,
                "duration": 0.4704545454545439,
                "tempo": 120.0
            },
            {
                "start_time": 16.62272727272727,
                "end_time": 16.84090909090909,
                "pitch": 88,
                "velocity": 51,
                "duration": 0.2181818181818187,
                "tempo": 120.0
            },
            {
                "start_time": 16.85681818181818,
                "end_time": 17.075,
                "pitch": 86,
                "velocity": 51,
                "duration": 0.2181818181818187,
                "tempo": 120.0
            },
            {
                "start_time": 17.10909090909091,
                "end_time": 17.55681818181818,
                "pitch": 88,
                "velocity": 51,
                "duration": 0.44772727272727053,
                "tempo": 120.0
            },
            {
                "start_time": 17.57272727272727,
                "end_time": 18.534090909090907,
                "pitch": 84,
                "velocity": 51,
                "duration": 0.961363636363636,
                "tempo": 120.0
            },
            {
                "start_time": 18.55,
                "end_time": 18.768181818181816,
                "pitch": 86,
                "velocity": 51,
                "duration": 0.21818181818181515,
                "tempo": 120.0
            },
            {
                "start_time": 18.786363636363635,
                "end_time": 19.020454545454545,
                "pitch": 88,
                "velocity": 51,
                "duration": 0.23409090909090935,
                "tempo": 120.0
            },
            {
                "start_time": 19.038636363636364,
                "end_time": 19.96818181818182,
                "pitch": 84,
                "velocity": 51,
                "duration": 0.9295454545454547,
                "tempo": 120.0
            },
            {
                "start_time": 19.98409090909091,
                "end_time": 20.69090909090909,
                "pitch": 83,
                "velocity": 51,
                "duration": 0.706818181818182,
                "tempo": 120.0
            },
            {
                "start_time": 20.724999999999998,
                "end_time": 20.952272727272724,
                "pitch": 81,
                "velocity": 51,
                "duration": 0.22727272727272663,
                "tempo": 120.0
            },
            {
                "start_time": 20.96818181818182,
                "end_time": 22.875,
                "pitch": 83,
                "velocity": 51,
                "duration": 1.9068181818181813,
                "tempo": 120.0
            },
            {
                "start_time": 22.893181818181816,
                "end_time": 23.59318181818182,
                "pitch": 86,
                "velocity": 51,
                "duration": 0.7000000000000028,
                "tempo": 120.0
            },
            {
                "start_time": 23.60909090909091,
                "end_time": 23.845454545454544,
                "pitch": 88,
                "velocity": 51,
                "duration": 0.23636363636363455,
                "tempo": 120.0
            },
            {
                "start_time": 23.861363636363635,
                "end_time": 24.30681818181818,
                "pitch": 89,
                "velocity": 51,
                "duration": 0.4454545454545453,
                "tempo": 120.0
            },
            {
                "start_time": 24.34090909090909,
                "end_time": 24.55681818181818,
                "pitch": 88,
                "velocity": 51,
                "duration": 0.21590909090908994,
                "tempo": 120.0
            },
            {
                "start_time": 24.57272727272727,
                "end_time": 24.795454545454543,
                "pitch": 86,
                "velocity": 51,
                "duration": 0.22272727272727266,
                "tempo": 120.0
            },
            {
                "start_time": 24.813636363636363,
                "end_time": 25.277272727272727,
                "pitch": 88,
                "velocity": 51,
                "duration": 0.46363636363636473,
                "tempo": 120.0
            },
            {
                "start_time": 25.295454545454543,
                "end_time": 26.25681818181818,
                "pitch": 84,
                "velocity": 51,
                "duration": 0.961363636363636,
                "tempo": 120.0
            },
            {
                "start_time": 26.27272727272727,
                "end_time": 26.49090909090909,
                "pitch": 86,
                "velocity": 51,
                "duration": 0.2181818181818187,
                "tempo": 120.0
            },
            {
                "start_time": 26.50681818181818,
                "end_time": 26.720454545454544,
                "pitch": 88,
                "velocity": 51,
                "duration": 0.21363636363636473,
                "tempo": 120.0
            },
            {
                "start_time": 26.752272727272725,
                "end_time": 27.695454545454545,
                "pitch": 84,
                "velocity": 51,
                "duration": 0.9431818181818201,
                "tempo": 120.0
            },
            {
                "start_time": 27.711363636363636,
                "end_time": 28.41590909090909,
                "pitch": 83,
                "velocity": 51,
                "duration": 0.7045454545454533,
                "tempo": 120.0
            },
            {
                "start_time": 28.43409090909091,
                "end_time": 28.620454545454542,
                "pitch": 81,
                "velocity": 51,
                "duration": 0.18636363636363384,
                "tempo": 120.0
            },
            {
                "start_time": 28.638636363636362,
                "end_time": 29.375,
                "pitch": 83,
                "velocity": 51,
                "duration": 0.7363636363636381,
                "tempo": 120.0
            },
            {
                "start_time": 29.393181818181816,
                "end_time": 29.611363636363635,
                "pitch": 83,
                "velocity": 51,
                "duration": 0.2181818181818187,
                "tempo": 120.0
            },
            {
                "start_time": 29.627272727272725,
                "end_time": 30.329545454545453,
                "pitch": 84,
                "velocity": 51,
                "duration": 0.702272727272728,
                "tempo": 120.0
            },
            {
                "start_time": 30.363636363636363,
                "end_time": 30.586363636363636,
                "pitch": 84,
                "velocity": 51,
                "duration": 0.22272727272727266,
                "tempo": 120.0
            },
            {
                "start_time": 30.602272727272727,
                "end_time": 32.711363636363636,
                "pitch": 88,
                "velocity": 51,
                "duration": 2.1090909090909093,
                "tempo": 120.0
            }
        ]
    }
}