{
    "track_id": "Rastan (FM) - 06 - Scene Clear",
    "mood": "happy",
    "instruments": {
        "Lead 2 (sawtooth)": [
            {
                "start_time": 3.8863636363636362,
                "end_time": 4.084090909090909,
                "pitch": 81,
                "velocity": 64,
                "duration": 0.19772727272727275,
                "tempo": 120.0
            },
            {
                "start_time": 4.084090909090909,
                "end_time": 4.284090909090909,
                "pitch": 81,
                "velocity": 64,
                "duration": 0.20000000000000018,
                "tempo": 120.0
            },
            {
                "start_time": 4.4840909090909085,
                "end_time": 4.684090909090909,
                "pitch": 81,
                "velocity": 64,
                "duration": 0.20000000000000018,
                "tempo": 120.0
            },
            {
                "start_time": 4.884090909090909,
                "end_time": 5.086363636363636,
                "pitch": 81,
                "velocity": 64,
                "duration": 0.20227272727272716,
                "tempo": 120.0
            },
            {
                "start_time": 5.086363636363636,
                "end_time": 5.288636363636363,
                "pitch": 81,
                "velocity": 64,
                "duration": 0.20227272727272716,
                "tempo": 120.0
            },
            {
                "start_time": 5.49090909090909,
                "end_time": 5.6909090909090905,
                "pitch": 81,
                "velocity": 64,
                "duration": 0.20000000000000018,
                "tempo": 120.0
            },
            {
                "start_time": 5.890909090909091,
                "end_time": 6.093181818181818,
                "pitch": 81,
                "velocity": 64,
                "duration": 0.20227272727272716,
                "tempo": 120.0
            },
            {
                "start_time": 6.093181818181818,
                "end_time": 6.297727272727273,
                "pitch": 81,
                "velocity": 64,
                "duration": 0.20454545454545503,
                "tempo": 120.0
            },
            {
                "start_time": 6.502272727272727,
                "end_time": 6.704545454545454,
                "pitch": 81,
                "velocity": 64,
                "duration": 0.20227272727272716,
                "tempo": 120.0
            },
            {
                "start_time": 6.902272727272727,
                "end_time": 7.1,
                "pitch": 81,
                "velocity": 51,
                "duration": 0.1977272727272723,
                "tempo": 120.0
            },
            {
                "start_time": 7.102272727272727,
                "end_time": 7.3,
                "pitch": 81,
                "velocity": 51,
                "duration": 0.1977272727272732,
                "tempo": 120.0
            },
            {
                "start_time": 7.5,
                "end_time": 7.699999999999999,
                "pitch": 81,
                "velocity": 32,
                "duration": 0.1999999999999993,
                "tempo": 120.0
            },
            {
                "start_time": 7.9022727272727264,
                "end_time": 8.104545454545454,
                "pitch": 81,
                "velocity": 32,
                "duration": 0.20227272727272716,
                "tempo": 120.0
            },
            {
                "start_time": 8.104545454545454,
                "end_time": 8.309090909090909,
                "pitch": 81,
                "velocity": 32,
                "duration": 0.20454545454545503,
                "tempo": 120.0
            },
            {
                "start_time": 8.513636363636364,
                "end_time": 8.713636363636363,
                "pitch": 81,
                "velocity": 16,
                "duration": 0.1999999999999993,
                "tempo": 120.0
            },
            {
                "start_time": 8.913636363636364,
                "end_time": 9.113636363636363,
                "pitch": 81,
                "velocity": 16,
                "duration": 0.1999999999999993,
                "tempo": 120.0
            },
            {
                "start_time": 9.113636363636363,
                "end_time": 9.313636363636363,
                "pitch": 81,
                "velocity": 13,
                "duration": 0.1999999999999993,
                "tempo": 120.0
            },
            {
                "start_time": 9.51590909090909,
                "end_time": 9.71590909090909,
                "pitch": 81,
                "velocity": 13,
                "duration": 0.1999999999999993,
                "tempo": 120.0
            },
            {
                "start_time": 9.918181818181818,
                "end_time": 10.120454545454544,
                "pitch": 81,
                "velocity": 10,
                "duration": 0.20227272727272627,
                "tempo": 120.0
            },
            {
                "start_time": 10.120454545454544,
                "end_time": 10.322727272727272,
                "pitch": 81,
                "velocity": 10,
                "duration": 0.20227272727272805,
                "tempo": 120.0
            },
            {
                "start_time": 10.520454545454545,
                "end_time": 10.718181818181817,
                "pitch": 81,
                "velocity": 10,
                "duration": 0.1977272727272723,
                "tempo": 120.0
            },
            {
                "start_time": 10.918181818181818,
                "end_time": 11.127272727272727,
                "pitch": 81,
                "velocity": 8,
                "duration": 0.209090909090909,
                "tempo": 120.0
            },
            {
                "start_time": 11.127272727272727,
                "end_time": 11.334090909090909,
                "pitch": 81,
                "velocity": 8,
                "duration": 0.206818181818182,
                "tempo": 120.0
            }
        ],
        "Electric Guitar (clean)": [
            {
                "start_time": 0.013636363636363636,
                "end_time": 0.21363636363636362,
                "pitch": 33,
                "velocity": 127,
                "duration": 0.19999999999999998,
                "tempo": 120.0
            },
            {
                "start_time": 0.21363636363636362,
                "end_time": 1.6272727272727272,
                "pitch": 38,
                "velocity": 80,
                "duration": 1.4136363636363636,
                "tempo": 120.0
            },
            {
                "start_time": 0.21363636363636362,
                "end_time": 1.6272727272727272,
                "pitch": 38,
                "velocity": 127,
                "duration": 1.4136363636363636,
                "tempo": 120.0
            },
            {
                "start_time": 1.6272727272727272,
                "end_time": 2.0318181818181817,
                "pitch": 40,
                "velocity": 80,
                "duration": 0.40454545454545454,
                "tempo": 120.0
            },
            {
                "start_time": 1.6272727272727272,
                "end_time": 2.0318181818181817,
                "pitch": 40,
                "velocity": 80,
                "duration": 0.40454545454545454,
                "tempo": 120.0
            },
            {
                "start_time": 2.0318181818181817,
                "end_time": 2.234090909090909,
                "pitch": 36,
                "velocity": 80,
                "duration": 0.20227272727272716,
                "tempo": 120.0
            },
            {
                "start_time": 2.0318181818181817,
                "end_time": 2.234090909090909,
                "pitch": 36,
                "velocity": 80,
                "duration": 0.20227272727272716,
                "tempo": 120.0
            },
            {
                "start_time": 2.234090909090909,
                "end_time": 3.0295454545454543,
                "pitch": 34,
                "velocity": 80,
                "duration": 0.7954545454545454,
                "tempo": 120.0
            },
            {
                "start_time": 3.0295454545454543,
                "end_time": 3.6545454545454543,
                "pitch": 33,
                "velocity": 80,
                "duration": 0.625,
                "tempo": 120.0
            },
            {
                "start_time": 3.6545454545454543,
                "end_time": 3.8545454545454545,
                "pitch": 33,
                "velocity": 80,
                "duration": 0.20000000000000018,
                "tempo": 120.0
            },
            {
                "start_time": 4.25,
                "end_time": 4.45,
                "pitch": 33,
                "velocity": 80,
                "duration": 0.20000000000000018,
                "tempo": 120.0
            },
            {
                "start_time": 4.6499999999999995,
                "end_time": 4.852272727272727,
                "pitch": 33,
                "velocity": 80,
                "duration": 0.20227272727272716,
                "tempo": 120.0
            },
            {
                "start_time": 5.256818181818182,
                "end_time": 5.459090909090909,
                "pitch": 33,
                "velocity": 80,
                "duration": 0.20227272727272716,
                "tempo": 120.0
            },
            {
                "start_time": 5.659090909090909,
                "end_time": 5.8590909090909085,
                "pitch": 33,
                "velocity": 80,
                "duration": 0.1999999999999993,
                "tempo": 120.0
            },
            {
                "start_time": 6.263636363636364,
                "end_time": 6.468181818181818,
                "pitch": 33,
                "velocity": 80,
                "duration": 0.20454545454545414,
                "tempo": 120.0
            },
            {
                "start_time": 6.672727272727273,
                "end_time": 6.870454545454545,
                "pitch": 33,
                "velocity": 51,
                "duration": 0.1977272727272723,
                "tempo": 120.0
            },
            {
                "start_time": 7.265909090909091,
                "end_time": 7.465909090909091,
                "pitch": 33,
                "velocity": 32,
                "duration": 0.20000000000000018,
                "tempo": 120.0
            },
            {
                "start_time": 7.668181818181818,
                "end_time": 7.868181818181818,
                "pitch": 33,
                "velocity": 32,
                "duration": 0.20000000000000018,
                "tempo": 120.0
            },
            {
                "start_time": 8.275,
                "end_time": 8.479545454545454,
                "pitch": 33,
                "velocity": 20,
                "duration": 0.20454545454545325,
                "tempo": 120.0
            },
            {
                "start_time": 8.681818181818182,
                "end_time": 8.881818181818181,
                "pitch": 33,
                "velocity": 20,
                "duration": 0.1999999999999993,
                "tempo": 120.0
            },
            {
                "start_time": 9.281818181818181,
                "end_time": 9.48181818181818,
                "pitch": 33,
                "velocity": 16,
                "duration": 0.1999999999999993,
                "tempo": 120.0
            },
            {
                "start_time": 9.681818181818182,
                "end_time": 9.884090909090908,
                "pitch": 33,
                "velocity": 16,
                "duration": 0.20227272727272627,
                "tempo": 120.0
            },
            {
                "start_time": 10.288636363636364,
                "end_time": 10.486363636363636,
                "pitch": 33,
                "velocity": 13,
                "duration": 0.1977272727272723,
                "tempo": 120.0
            },
            {
                "start_time": 10.686363636363636,
                "end_time": 10.884090909090908,
                "pitch": 33,
                "velocity": 10,
                "duration": 0.1977272727272723,
                "tempo": 120.0
            },
            {
                "start_time": 11.299999999999999,
                "end_time": 11.509090909090908,
                "pitch": 33,
                "velocity": 10,
                "duration": 0.209090909090909,
                "tempo": 120.0
            }
        ]
    }
}