{
    "track_id": "Shanghai (FM) - 06 - Well Done",
    "mood": "happy",
    "instruments": {
        "Acoustic Bass": [
            {
                "start_time": 0.013636363636363636,
                "end_time": 0.22954545454545452,
                "pitch": 34,
                "velocity": 64,
                "duration": 0.21590909090909088,
                "tempo": 120.0
            },
            {
                "start_time": 0.2636363636363636,
                "end_time": 0.5977272727272727,
                "pitch": 34,
                "velocity": 64,
                "duration": 0.33409090909090905,
                "tempo": 120.0
            },
            {
                "start_time": 0.6136363636363636,
                "end_time": 0.7136363636363636,
                "pitch": 67,
                "velocity": 64,
                "duration": 0.09999999999999998,
                "tempo": 120.0
            },
            {
                "start_time": 0.7295454545454545,
                "end_time": 1.9136363636363636,
                "pitch": 65,
                "velocity": 64,
                "duration": 1.184090909090909,
                "tempo": 120.0
            },
            {
                "start_time": 1.9295454545454545,
                "end_time": 2.159090909090909,
                "pitch": 34,
                "velocity": 64,
                "duration": 0.22954545454545472,
                "tempo": 120.0
            },
            {
                "start_time": 2.175,
                "end_time": 2.506818181818182,
                "pitch": 34,
                "velocity": 64,
                "duration": 0.331818181818182,
                "tempo": 120.0
            },
            {
                "start_time": 2.525,
                "end_time": 2.627272727272727,
                "pitch": 67,
                "velocity": 64,
                "duration": 0.10227272727272707,
                "tempo": 120.0
            },
            {
                "start_time": 2.661363636363636,
                "end_time": 3.836363636363636,
                "pitch": 65,
                "velocity": 64,
                "duration": 1.1749999999999998,
                "tempo": 120.0
            },
            {
                "start_time": 3.870454545454545,
                "end_time": 4.568181818181818,
                "pitch": 38,
                "velocity": 64,
                "duration": 0.6977272727272732,
                "tempo": 120.0
            },
            {
                "start_time": 4.584090909090909,
                "end_time": 4.797727272727273,
                "pitch": 36,
                "velocity": 64,
                "duration": 0.21363636363636385,
                "tempo": 120.0
            },
            {
                "start_time": 4.8136363636363635,
                "end_time": 5.5249999999999995,
                "pitch": 31,
                "velocity": 64,
                "duration": 0.711363636363636,
                "tempo": 120.0
            },
            {
                "start_time": 5.540909090909091,
                "end_time": 5.7749999999999995,
                "pitch": 33,
                "velocity": 64,
                "duration": 0.23409090909090846,
                "tempo": 120.0
            },
            {
                "start_time": 5.790909090909091,
                "end_time": 6.5,
                "pitch": 38,
                "velocity": 64,
                "duration": 0.709090909090909,
                "tempo": 120.0
            },
            {
                "start_time": 6.518181818181818,
                "end_time": 6.738636363636363,
                "pitch": 36,
                "velocity": 64,
                "duration": 0.22045454545454568,
                "tempo": 120.0
            },
            {
                "start_time": 6.756818181818182,
                "end_time": 7.4431818181818175,
                "pitch": 31,
                "velocity": 64,
                "duration": 0.6863636363636356,
                "tempo": 120.0
            },
            {
                "start_time": 7.477272727272727,
                "end_time": 7.699999999999999,
                "pitch": 33,
                "velocity": 64,
                "duration": 0.22272727272727266,
                "tempo": 120.0
            },
            {
                "start_time": 7.715909090909091,
                "end_time": 7.934090909090909,
                "pitch": 34,
                "velocity": 64,
                "duration": 0.2181818181818178,
                "tempo": 120.0
            },
            {
                "start_time": 7.952272727272727,
                "end_time": 8.302272727272728,
                "pitch": 34,
                "velocity": 64,
                "duration": 0.35000000000000053,
                "tempo": 120.0
            },
            {
                "start_time": 8.320454545454545,
                "end_time": 8.420454545454545,
                "pitch": 67,
                "velocity": 64,
                "duration": 0.09999999999999964,
                "tempo": 120.0
            },
            {
                "start_time": 8.436363636363636,
                "end_time": 8.652272727272727,
                "pitch": 65,
                "velocity": 64,
                "duration": 0.21590909090909172,
                "tempo": 120.0
            },
            {
                "start_time": 8.686363636363636,
                "end_time": 8.786363636363635,
                "pitch": 67,
                "velocity": 64,
                "duration": 0.09999999999999964,
                "tempo": 120.0
            },
            {
                "start_time": 8.804545454545455,
                "end_time": 8.904545454545454,
                "pitch": 65,
                "velocity": 64,
                "duration": 0.09999999999999964,
                "tempo": 120.0
            },
            {
                "start_time": 8.922727272727272,
                "end_time": 9.14090909090909,
                "pitch": 62,
                "velocity": 64,
                "duration": 0.2181818181818187,
                "tempo": 120.0
            },
            {
                "start_time": 9.156818181818181,
                "end_time": 9.254545454545454,
                "pitch": 70,
                "velocity": 64,
                "duration": 0.09772727272727266,
                "tempo": 120.0
            },
            {
                "start_time": 9.288636363636364,
                "end_time": 9.386363636363637,
                "pitch": 67,
                "velocity": 64,
                "duration": 0.09772727272727266,
                "tempo": 120.0
            },
            {
                "start_time": 9.402272727272727,
                "end_time": 9.61590909090909,
                "pitch": 65,
                "velocity": 64,
                "duration": 0.21363636363636296,
                "tempo": 120.0
            },
            {
                "start_time": 9.631818181818181,
                "end_time": 11.5,
                "pitch": 42,
                "velocity": 64,
                "duration": 1.868181818181819,
                "tempo": 120.0
            }
        ],
        "Harpsichord": [
            {
                "start_time": 0.013636363636363636,
                "end_time": 0.36363636363636365,
                "pitch": 41,
                "velocity": 64,
                "duration": 0.35000000000000003,
                "tempo": 120.0
            },
            {
                "start_time": 0.3795454545454545,
                "end_time": 0.4795454545454545,
                "pitch": 41,
                "velocity": 64,
                "duration": 0.09999999999999998,
                "tempo": 120.0
            },
            {
                "start_time": 0.4977272727272727,
                "end_time": 0.7136363636363636,
                "pitch": 70,
                "velocity": 64,
                "duration": 0.21590909090909094,
                "tempo": 120.0
            },
            {
                "start_time": 0.7295454545454545,
                "end_time": 0.8295454545454545,
                "pitch": 70,
                "velocity": 64,
                "duration": 0.09999999999999998,
                "tempo": 120.0
            },
            {
                "start_time": 0.8636363636363636,
                "end_time": 0.9636363636363636,
                "pitch": 70,
                "velocity": 64,
                "duration": 0.09999999999999998,
                "tempo": 120.0
            },
            {
                "start_time": 0.9795454545454545,
                "end_time": 1.0795454545454546,
                "pitch": 67,
                "velocity": 64,
                "duration": 0.10000000000000009,
                "tempo": 120.0
            },
            {
                "start_time": 1.0954545454545455,
                "end_time": 1.1954545454545453,
                "pitch": 65,
                "velocity": 64,
                "duration": 0.09999999999999987,
                "tempo": 120.0
            },
            {
                "start_time": 1.2136363636363636,
                "end_time": 1.5636363636363635,
                "pitch": 62,
                "velocity": 64,
                "duration": 0.34999999999999987,
                "tempo": 120.0
            },
            {
                "start_time": 1.5795454545454544,
                "end_time": 1.6795454545454545,
                "pitch": 62,
                "velocity": 64,
                "duration": 0.10000000000000009,
                "tempo": 120.0
            },
            {
                "start_time": 1.6954545454545453,
                "end_time": 1.9136363636363636,
                "pitch": 65,
                "velocity": 64,
                "duration": 0.21818181818181825,
                "tempo": 120.0
            },
            {
                "start_time": 1.9295454545454545,
                "end_time": 2.275,
                "pitch": 41,
                "velocity": 64,
                "duration": 0.34545454545454546,
                "tempo": 120.0
            },
            {
                "start_time": 2.290909090909091,
                "end_time": 2.3886363636363637,
                "pitch": 41,
                "velocity": 64,
                "duration": 0.09772727272727266,
                "tempo": 120.0
            },
            {
                "start_time": 2.4045454545454543,
                "end_time": 2.627272727272727,
                "pitch": 70,
                "velocity": 64,
                "duration": 0.22272727272727266,
                "tempo": 120.0
            },
            {
                "start_time": 2.661363636363636,
                "end_time": 2.7636363636363637,
                "pitch": 70,
                "velocity": 64,
                "duration": 0.10227272727272751,
                "tempo": 120.0
            },
            {
                "start_time": 2.7818181818181817,
                "end_time": 2.884090909090909,
                "pitch": 70,
                "velocity": 64,
                "duration": 0.10227272727272707,
                "tempo": 120.0
            },
            {
                "start_time": 2.9,
                "end_time": 2.9977272727272726,
                "pitch": 67,
                "velocity": 64,
                "duration": 0.09772727272727266,
                "tempo": 120.0
            },
            {
                "start_time": 3.0159090909090907,
                "end_time": 3.1136363636363633,
                "pitch": 65,
                "velocity": 64,
                "duration": 0.09772727272727266,
                "tempo": 120.0
            },
            {
                "start_time": 3.1295454545454544,
                "end_time": 3.477272727272727,
                "pitch": 62,
                "velocity": 64,
                "duration": 0.34772727272727266,
                "tempo": 120.0
            },
            {
                "start_time": 3.495454545454545,
                "end_time": 3.5977272727272727,
                "pitch": 62,
                "velocity": 64,
                "duration": 0.10227272727272751,
                "tempo": 120.0
            },
            {
                "start_time": 3.6159090909090907,
                "end_time": 3.836363636363636,
                "pitch": 65,
                "velocity": 64,
                "duration": 0.22045454545454524,
                "tempo": 120.0
            },
            {
                "start_time": 3.870454545454545,
                "end_time": 3.9704545454545452,
                "pitch": 62,
                "velocity": 64,
                "duration": 0.10000000000000009,
                "tempo": 120.0
            },
            {
                "start_time": 3.9886363636363633,
                "end_time": 4.088636363636364,
                "pitch": 62,
                "velocity": 64,
                "duration": 0.10000000000000053,
                "tempo": 120.0
            },
            {
                "start_time": 4.1045454545454545,
                "end_time": 4.204545454545454,
                "pitch": 62,
                "velocity": 64,
                "duration": 0.09999999999999964,
                "tempo": 120.0
            },
            {
                "start_time": 4.220454545454546,
                "end_time": 4.320454545454545,
                "pitch": 62,
                "velocity": 64,
                "duration": 0.09999999999999964,
                "tempo": 120.0
            },
            {
                "start_time": 4.336363636363636,
                "end_time": 4.568181818181818,
                "pitch": 60,
                "velocity": 64,
                "duration": 0.23181818181818237,
                "tempo": 120.0
            },
            {
                "start_time": 4.584090909090909,
                "end_time": 4.797727272727273,
                "pitch": 60,
                "velocity": 64,
                "duration": 0.21363636363636385,
                "tempo": 120.0
            },
            {
                "start_time": 4.8136363636363635,
                "end_time": 5.034090909090909,
                "pitch": 55,
                "velocity": 64,
                "duration": 0.22045454545454568,
                "tempo": 120.0
            },
            {
                "start_time": 5.068181818181818,
                "end_time": 5.290909090909091,
                "pitch": 57,
                "velocity": 64,
                "duration": 0.22272727272727266,
                "tempo": 120.0
            },
            {
                "start_time": 5.309090909090909,
                "end_time": 5.409090909090909,
                "pitch": 50,
                "velocity": 64,
                "duration": 0.10000000000000053,
                "tempo": 120.0
            },
            {
                "start_time": 5.425,
                "end_time": 5.5249999999999995,
                "pitch": 50,
                "velocity": 64,
                "duration": 0.09999999999999964,
                "tempo": 120.0
            },
            {
                "start_time": 5.540909090909091,
                "end_time": 5.7749999999999995,
                "pitch": 52,
                "velocity": 64,
                "duration": 0.23409090909090846,
                "tempo": 120.0
            },
            {
                "start_time": 5.790909090909091,
                "end_time": 6.009090909090909,
                "pitch": 62,
                "velocity": 64,
                "duration": 0.2181818181818178,
                "tempo": 120.0
            },
            {
                "start_time": 6.027272727272727,
                "end_time": 6.127272727272727,
                "pitch": 62,
                "velocity": 64,
                "duration": 0.09999999999999964,
                "tempo": 120.0
            },
            {
                "start_time": 6.143181818181818,
                "end_time": 6.245454545454545,
                "pitch": 62,
                "velocity": 64,
                "duration": 0.10227272727272751,
                "tempo": 120.0
            },
            {
                "start_time": 6.279545454545454,
                "end_time": 6.5,
                "pitch": 60,
                "velocity": 64,
                "duration": 0.22045454545454568,
                "tempo": 120.0
            },
            {
                "start_time": 6.518181818181818,
                "end_time": 6.738636363636363,
                "pitch": 60,
                "velocity": 64,
                "duration": 0.22045454545454568,
                "tempo": 120.0
            },
            {
                "start_time": 6.756818181818182,
                "end_time": 6.9818181818181815,
                "pitch": 55,
                "velocity": 64,
                "duration": 0.22499999999999964,
                "tempo": 120.0
            },
            {
                "start_time": 6.997727272727272,
                "end_time": 7.204545454545454,
                "pitch": 57,
                "velocity": 64,
                "duration": 0.206818181818182,
                "tempo": 120.0
            },
            {
                "start_time": 7.220454545454545,
                "end_time": 7.322727272727272,
                "pitch": 50,
                "velocity": 64,
                "duration": 0.10227272727272751,
                "tempo": 120.0
            },
            {
                "start_time": 7.340909090909091,
                "end_time": 7.4431818181818175,
                "pitch": 50,
                "velocity": 64,
                "duration": 0.10227272727272663,
                "tempo": 120.0
            },
            {
                "start_time": 7.477272727272727,
                "end_time": 7.699999999999999,
                "pitch": 52,
                "velocity": 64,
                "duration": 0.22272727272727266,
                "tempo": 120.0
            },
            {
                "start_time": 7.715909090909091,
                "end_time": 8.052272727272728,
                "pitch": 41,
                "velocity": 64,
                "duration": 0.33636363636363686,
                "tempo": 120.0
            },
            {
                "start_time": 8.086363636363636,
                "end_time": 8.186363636363636,
                "pitch": 41,
                "velocity": 64,
                "duration": 0.09999999999999964,
                "tempo": 120.0
            },
            {
                "start_time": 8.202272727272726,
                "end_time": 8.420454545454545,
                "pitch": 70,
                "velocity": 64,
                "duration": 0.2181818181818187,
                "tempo": 120.0
            },
            {
                "start_time": 8.436363636363636,
                "end_time": 8.536363636363635,
                "pitch": 70,
                "velocity": 64,
                "duration": 0.09999999999999964,
                "tempo": 120.0
            },
            {
                "start_time": 8.552272727272728,
                "end_time": 8.652272727272727,
                "pitch": 70,
                "velocity": 64,
                "duration": 0.09999999999999964,
                "tempo": 120.0
            },
            {
                "start_time": 8.686363636363636,
                "end_time": 8.786363636363635,
                "pitch": 67,
                "velocity": 64,
                "duration": 0.09999999999999964,
                "tempo": 120.0
            },
            {
                "start_time": 8.804545454545455,
                "end_time": 8.904545454545454,
                "pitch": 65,
                "velocity": 64,
                "duration": 0.09999999999999964,
                "tempo": 120.0
            },
            {
                "start_time": 8.922727272727272,
                "end_time": 9.222727272727273,
                "pitch": 62,
                "velocity": 64,
                "duration": 0.3000000000000007,
                "tempo": 120.0
            },
            {
                "start_time": 9.238636363636363,
                "end_time": 9.386363636363637,
                "pitch": 62,
                "velocity": 64,
                "duration": 0.14772727272727337,
                "tempo": 120.0
            },
            {
                "start_time": 9.402272727272727,
                "end_time": 9.61590909090909,
                "pitch": 65,
                "velocity": 64,
                "duration": 0.21363636363636296,
                "tempo": 120.0
            },
            {
                "start_time": 9.631818181818181,
                "end_time": 11.5,
                "pitch": 71,
                "velocity": 64,
                "duration": 1.868181818181819,
                "tempo": 120.0
            }
        ],
        "Electric Guitar (clean)": [
            {
                "start_time": 0.013636363636363636,
                "end_time": 0.029545454545454545,
                "pitch": 78,
                "velocity": 40,
                "duration": 0.015909090909090907,
                "tempo": 120.0
            },
            {
                "start_time": 0.06363636363636363,
                "end_time": 0.11363636363636363,
                "pitch": 78,
                "velocity": 40,
                "duration": 0.05,
                "tempo": 120.0
            },
            {
                "start_time": 0.12954545454545455,
                "end_time": 0.4795454545454545,
                "pitch": 46,
                "velocity": 40,
                "duration": 0.35,
                "tempo": 120.0
            },
            {
                "start_time": 0.4977272727272727,
                "end_time": 0.5977272727272727,
                "pitch": 46,
                "velocity": 40,
                "duration": 0.09999999999999998,
                "tempo": 120.0
            },
            {
                "start_time": 0.6136363636363636,
                "end_time": 0.7136363636363636,
                "pitch": 70,
                "velocity": 40,
                "duration": 0.09999999999999998,
                "tempo": 120.0
            },
            {
                "start_time": 0.7295454545454545,
                "end_time": 0.8295454545454545,
                "pitch": 77,
                "velocity": 40,
                "duration": 0.09999999999999998,
                "tempo": 120.0
            },
            {
                "start_time": 0.8636363636363636,
                "end_time": 0.9636363636363636,
                "pitch": 77,
                "velocity": 40,
                "duration": 0.09999999999999998,
                "tempo": 120.0
            },
            {
                "start_time": 0.9795454545454545,
                "end_time": 1.0795454545454546,
                "pitch": 77,
                "velocity": 40,
                "duration": 0.10000000000000009,
                "tempo": 120.0
            },
            {
                "start_time": 1.0954545454545455,
                "end_time": 1.1954545454545453,
                "pitch": 67,
                "velocity": 40,
                "duration": 0.09999999999999987,
                "tempo": 120.0
            },
            {
                "start_time": 1.2136363636363636,
                "end_time": 1.3136363636363635,
                "pitch": 65,
                "velocity": 40,
                "duration": 0.09999999999999987,
                "tempo": 120.0
            },
            {
                "start_time": 1.3295454545454546,
                "end_time": 1.5636363636363635,
                "pitch": 62,
                "velocity": 40,
                "duration": 0.2340909090909089,
                "tempo": 120.0
            },
            {
                "start_time": 1.5795454545454544,
                "end_time": 1.6795454545454545,
                "pitch": 62,
                "velocity": 40,
                "duration": 0.10000000000000009,
                "tempo": 120.0
            },
            {
                "start_time": 1.6954545454545453,
                "end_time": 1.7954545454545454,
                "pitch": 67,
                "velocity": 40,
                "duration": 0.10000000000000009,
                "tempo": 120.0
            },
            {
                "start_time": 1.8136363636363635,
                "end_time": 2.0272727272727273,
                "pitch": 65,
                "velocity": 40,
                "duration": 0.21363636363636385,
                "tempo": 120.0
            },
            {
                "start_time": 2.061363636363636,
                "end_time": 2.3886363636363637,
                "pitch": 46,
                "velocity": 40,
                "duration": 0.3272727272727276,
                "tempo": 120.0
            },
            {
                "start_time": 2.4045454545454543,
                "end_time": 2.506818181818182,
                "pitch": 46,
                "velocity": 40,
                "duration": 0.10227272727272751,
                "tempo": 120.0
            },
            {
                "start_time": 2.525,
                "end_time": 2.627272727272727,
                "pitch": 70,
                "velocity": 40,
                "duration": 0.10227272727272707,
                "tempo": 120.0
            },
            {
                "start_time": 2.661363636363636,
                "end_time": 2.7636363636363637,
                "pitch": 77,
                "velocity": 40,
                "duration": 0.10227272727272751,
                "tempo": 120.0
            },
            {
                "start_time": 2.7818181818181817,
                "end_time": 2.884090909090909,
                "pitch": 77,
                "velocity": 40,
                "duration": 0.10227272727272707,
                "tempo": 120.0
            },
            {
                "start_time": 2.9,
                "end_time": 2.9977272727272726,
                "pitch": 77,
                "velocity": 40,
                "duration": 0.09772727272727266,
                "tempo": 120.0
            },
            {
                "start_time": 3.0159090909090907,
                "end_time": 3.1136363636363633,
                "pitch": 67,
                "velocity": 40,
                "duration": 0.09772727272727266,
                "tempo": 120.0
            },
            {
                "start_time": 3.1295454545454544,
                "end_time": 3.227272727272727,
                "pitch": 65,
                "velocity": 40,
                "duration": 0.09772727272727266,
                "tempo": 120.0
            },
            {
                "start_time": 3.2613636363636362,
                "end_time": 3.477272727272727,
                "pitch": 62,
                "velocity": 40,
                "duration": 0.21590909090909083,
                "tempo": 120.0
            },
            {
                "start_time": 3.495454545454545,
                "end_time": 3.5977272727272727,
                "pitch": 62,
                "velocity": 40,
                "duration": 0.10227272727272751,
                "tempo": 120.0
            },
            {
                "start_time": 3.6159090909090907,
                "end_time": 3.718181818181818,
                "pitch": 67,
                "velocity": 40,
                "duration": 0.10227272727272707,
                "tempo": 120.0
            },
            {
                "start_time": 3.734090909090909,
                "end_time": 3.9704545454545452,
                "pitch": 65,
                "velocity": 40,
                "duration": 0.23636363636363633,
                "tempo": 120.0
            },
            {
                "start_time": 3.9886363636363633,
                "end_time": 4.088636363636364,
                "pitch": 62,
                "velocity": 40,
                "duration": 0.10000000000000053,
                "tempo": 120.0
            },
            {
                "start_time": 4.1045454545454545,
                "end_time": 4.204545454545454,
                "pitch": 64,
                "velocity": 40,
                "duration": 0.09999999999999964,
                "tempo": 120.0
            },
            {
                "start_time": 4.220454545454546,
                "end_time": 4.320454545454545,
                "pitch": 67,
                "velocity": 40,
                "duration": 0.09999999999999964,
                "tempo": 120.0
            },
            {
                "start_time": 4.336363636363636,
                "end_time": 4.4363636363636365,
                "pitch": 69,
                "velocity": 40,
                "duration": 0.10000000000000053,
                "tempo": 120.0
            },
            {
                "start_time": 4.468181818181818,
                "end_time": 4.568181818181818,
                "pitch": 72,
                "velocity": 40,
                "duration": 0.10000000000000053,
                "tempo": 120.0
            },
            {
                "start_time": 4.584090909090909,
                "end_time": 4.681818181818182,
                "pitch": 74,
                "velocity": 40,
                "duration": 0.09772727272727266,
                "tempo": 120.0
            },
            {
                "start_time": 4.697727272727272,
                "end_time": 4.797727272727273,
                "pitch": 72,
                "velocity": 40,
                "duration": 0.10000000000000053,
                "tempo": 120.0
            },
            {
                "start_time": 4.8136363636363635,
                "end_time": 4.915909090909091,
                "pitch": 69,
                "velocity": 40,
                "duration": 0.10227272727272751,
                "tempo": 120.0
            },
            {
                "start_time": 4.931818181818182,
                "end_time": 5.034090909090909,
                "pitch": 67,
                "velocity": 40,
                "duration": 0.10227272727272751,
                "tempo": 120.0
            },
            {
                "start_time": 5.068181818181818,
                "end_time": 5.170454545454545,
                "pitch": 69,
                "velocity": 40,
                "duration": 0.10227272727272663,
                "tempo": 120.0
            },
            {
                "start_time": 5.1886363636363635,
                "end_time": 5.290909090909091,
                "pitch": 62,
                "velocity": 40,
                "duration": 0.10227272727272751,
                "tempo": 120.0
            },
            {
                "start_time": 5.309090909090909,
                "end_time": 5.409090909090909,
                "pitch": 64,
                "velocity": 40,
                "duration": 0.10000000000000053,
                "tempo": 120.0
            },
            {
                "start_time": 5.425,
                "end_time": 5.5249999999999995,
                "pitch": 67,
                "velocity": 40,
                "duration": 0.09999999999999964,
                "tempo": 120.0
            },
            {
                "start_time": 5.540909090909091,
                "end_time": 5.640909090909091,
                "pitch": 69,
                "velocity": 40,
                "duration": 0.09999999999999964,
                "tempo": 120.0
            },
            {
                "start_time": 5.675,
                "end_time": 5.7749999999999995,
                "pitch": 72,
                "velocity": 40,
                "duration": 0.09999999999999964,
                "tempo": 120.0
            },
            {
                "start_time": 5.790909090909091,
                "end_time": 5.893181818181818,
                "pitch": 74,
                "velocity": 40,
                "duration": 0.10227272727272663,
                "tempo": 120.0
            },
            {
                "start_time": 5.909090909090909,
                "end_time": 6.009090909090909,
                "pitch": 62,
                "velocity": 40,
                "duration": 0.09999999999999964,
                "tempo": 120.0
            },
            {
                "start_time": 6.027272727272727,
                "end_time": 6.127272727272727,
                "pitch": 64,
                "velocity": 40,
                "duration": 0.09999999999999964,
                "tempo": 120.0
            },
            {
                "start_time": 6.143181818181818,
                "end_time": 6.245454545454545,
                "pitch": 67,
                "velocity": 40,
                "duration": 0.10227272727272751,
                "tempo": 120.0
            },
            {
                "start_time": 6.279545454545454,
                "end_time": 6.381818181818182,
                "pitch": 69,
                "velocity": 40,
                "duration": 0.10227272727272751,
                "tempo": 120.0
            },
            {
                "start_time": 6.3977272727272725,
                "end_time": 6.5,
                "pitch": 72,
                "velocity": 40,
                "duration": 0.10227272727272751,
                "tempo": 120.0
            },
            {
                "start_time": 6.518181818181818,
                "end_time": 6.620454545454545,
                "pitch": 74,
                "velocity": 40,
                "duration": 0.10227272727272751,
                "tempo": 120.0
            },
            {
                "start_time": 6.636363636363636,
                "end_time": 6.738636363636363,
                "pitch": 72,
                "velocity": 40,
                "duration": 0.10227272727272751,
                "tempo": 120.0
            },
            {
                "start_time": 6.756818181818182,
                "end_time": 6.852272727272727,
                "pitch": 69,
                "velocity": 40,
                "duration": 0.09545454545454479,
                "tempo": 120.0
            },
            {
                "start_time": 6.884090909090909,
                "end_time": 6.9818181818181815,
                "pitch": 67,
                "velocity": 40,
                "duration": 0.09772727272727266,
                "tempo": 120.0
            },
            {
                "start_time": 6.997727272727272,
                "end_time": 7.093181818181818,
                "pitch": 69,
                "velocity": 40,
                "duration": 0.09545454545454568,
                "tempo": 120.0
            },
            {
                "start_time": 7.1090909090909085,
                "end_time": 7.204545454545454,
                "pitch": 62,
                "velocity": 40,
                "duration": 0.09545454545454568,
                "tempo": 120.0
            },
            {
                "start_time": 7.220454545454545,
                "end_time": 7.322727272727272,
                "pitch": 64,
                "velocity": 40,
                "duration": 0.10227272727272751,
                "tempo": 120.0
            },
            {
                "start_time": 7.340909090909091,
                "end_time": 7.4431818181818175,
                "pitch": 67,
                "velocity": 40,
                "duration": 0.10227272727272663,
                "tempo": 120.0
            },
            {
                "start_time": 7.477272727272727,
                "end_time": 7.579545454545454,
                "pitch": 69,
                "velocity": 40,
                "duration": 0.10227272727272751,
                "tempo": 120.0
            },
            {
                "start_time": 7.597727272727273,
                "end_time": 7.699999999999999,
                "pitch": 72,
                "velocity": 40,
                "duration": 0.10227272727272663,
                "tempo": 120.0
            },
            {
                "start_time": 7.715909090909091,
                "end_time": 7.8159090909090905,
                "pitch": 74,
                "velocity": 40,
                "duration": 0.09999999999999964,
                "tempo": 120.0
            },
            {
                "start_time": 7.834090909090909,
                "end_time": 8.186363636363636,
                "pitch": 46,
                "velocity": 40,
                "duration": 0.3522727272727266,
                "tempo": 120.0
            },
            {
                "start_time": 8.202272727272726,
                "end_time": 8.302272727272728,
                "pitch": 46,
                "velocity": 40,
                "duration": 0.10000000000000142,
                "tempo": 120.0
            },
            {
                "start_time": 8.320454545454545,
                "end_time": 8.420454545454545,
                "pitch": 70,
                "velocity": 40,
                "duration": 0.09999999999999964,
                "tempo": 120.0
            },
            {
                "start_time": 8.436363636363636,
                "end_time": 8.536363636363635,
                "pitch": 77,
                "velocity": 40,
                "duration": 0.09999999999999964,
                "tempo": 120.0
            },
            {
                "start_time": 8.552272727272728,
                "end_time": 8.652272727272727,
                "pitch": 77,
                "velocity": 40,
                "duration": 0.09999999999999964,
                "tempo": 120.0
            },
            {
                "start_time": 8.686363636363636,
                "end_time": 8.786363636363635,
                "pitch": 77,
                "velocity": 40,
                "duration": 0.09999999999999964,
                "tempo": 120.0
            },
            {
                "start_time": 8.804545454545455,
                "end_time": 8.904545454545454,
                "pitch": 67,
                "velocity": 40,
                "duration": 0.09999999999999964,
                "tempo": 120.0
            },
            {
                "start_time": 8.922727272727272,
                "end_time": 9.022727272727272,
                "pitch": 65,
                "velocity": 40,
                "duration": 0.09999999999999964,
                "tempo": 120.0
            },
            {
                "start_time": 9.038636363636364,
                "end_time": 9.254545454545454,
                "pitch": 62,
                "velocity": 40,
                "duration": 0.21590909090908994,
                "tempo": 120.0
            },
            {
                "start_time": 9.288636363636364,
                "end_time": 9.386363636363637,
                "pitch": 62,
                "velocity": 40,
                "duration": 0.09772727272727266,
                "tempo": 120.0
            },
            {
                "start_time": 9.402272727272727,
                "end_time": 9.502272727272727,
                "pitch": 67,
                "velocity": 40,
                "duration": 0.09999999999999964,
                "tempo": 120.0
            },
            {
                "start_time": 9.518181818181818,
                "end_time": 9.73181818181818,
                "pitch": 65,
                "velocity": 40,
                "duration": 0.21363636363636296,
                "tempo": 120.0
            },
            {
                "start_time": 9.75,
                "end_time": 11.620454545454544,
                "pitch": 78,
                "velocity": 40,
                "duration": 1.8704545454545443,
                "tempo": 120.0
            }
        ]
    }
}