{
    "track_id": "Shanghai (FM) - 03 - Music Type A",
    "mood": "happy",
    "instruments": {
        "Electric Guitar (clean)": [
            {
                "start_time": 0.013636363636363636,
                "end_time": 0.23409090909090907,
                "pitch": 34,
                "velocity": 64,
                "duration": 0.22045454545454543,
                "tempo": 120.0
            },
            {
                "start_time": 0.25227272727272726,
                "end_time": 0.4909090909090909,
                "pitch": 46,
                "velocity": 64,
                "duration": 0.23863636363636365,
                "tempo": 120.0
            },
            {
                "start_time": 0.509090909090909,
                "end_time": 0.725,
                "pitch": 34,
                "velocity": 64,
                "duration": 0.21590909090909094,
                "tempo": 120.0
            },
            {
                "start_time": 0.7409090909090909,
                "end_time": 0.8409090909090908,
                "pitch": 41,
                "velocity": 64,
                "duration": 0.09999999999999998,
                "tempo": 120.0
            },
            {
                "start_time": 0.859090909090909,
                "end_time": 0.959090909090909,
                "pitch": 43,
                "velocity": 64,
                "duration": 0.09999999999999998,
                "tempo": 120.0
            },
            {
                "start_time": 0.9909090909090909,
                "end_time": 1.209090909090909,
                "pitch": 34,
                "velocity": 64,
                "duration": 0.21818181818181814,
                "tempo": 120.0
            },
            {
                "start_time": 1.2249999999999999,
                "end_time": 1.440909090909091,
                "pitch": 46,
                "velocity": 64,
                "duration": 0.21590909090909105,
                "tempo": 120.0
            },
            {
                "start_time": 1.459090909090909,
                "end_time": 1.6886363636363635,
                "pitch": 34,
                "velocity": 64,
                "duration": 0.2295454545454545,
                "tempo": 120.0
            },
            {
                "start_time": 1.7045454545454544,
                "end_time": 1.8022727272727272,
                "pitch": 41,
                "velocity": 64,
                "duration": 0.09772727272727288,
                "tempo": 120.0
            },
            {
                "start_time": 1.8181818181818181,
                "end_time": 1.918181818181818,
                "pitch": 43,
                "velocity": 64,
                "duration": 0.09999999999999987,
                "tempo": 120.0
            },
            {
                "start_time": 1.934090909090909,
                "end_time": 2.15,
                "pitch": 34,
                "velocity": 64,
                "duration": 0.21590909090909083,
                "tempo": 120.0
            },
            {
                "start_time": 2.184090909090909,
                "end_time": 2.4,
                "pitch": 46,
                "velocity": 64,
                "duration": 0.21590909090909083,
                "tempo": 120.0
            },
            {
                "start_time": 2.418181818181818,
                "end_time": 2.6386363636363637,
                "pitch": 32,
                "velocity": 64,
                "duration": 0.22045454545454568,
                "tempo": 120.0
            },
            {
                "start_time": 2.6568181818181817,
                "end_time": 2.8954545454545455,
                "pitch": 44,
                "velocity": 64,
                "duration": 0.23863636363636376,
                "tempo": 120.0
            },
            {
                "start_time": 2.911363636363636,
                "end_time": 3.1295454545454544,
                "pitch": 31,
                "velocity": 64,
                "duration": 0.21818181818181825,
                "tempo": 120.0
            },
            {
                "start_time": 3.1454545454545455,
                "end_time": 3.3613636363636363,
                "pitch": 43,
                "velocity": 64,
                "duration": 0.21590909090909083,
                "tempo": 120.0
            },
            {
                "start_time": 3.3954545454545455,
                "end_time": 3.618181818181818,
                "pitch": 29,
                "velocity": 64,
                "duration": 0.22272727272727266,
                "tempo": 120.0
            },
            {
                "start_time": 3.634090909090909,
                "end_time": 3.8568181818181815,
                "pitch": 41,
                "velocity": 64,
                "duration": 0.22272727272727266,
                "tempo": 120.0
            },
            {
                "start_time": 3.8727272727272726,
                "end_time": 4.097727272727273,
                "pitch": 32,
                "velocity": 64,
                "duration": 0.2250000000000001,
                "tempo": 120.0
            },
            {
                "start_time": 4.113636363636363,
                "end_time": 4.322727272727272,
                "pitch": 44,
                "velocity": 64,
                "duration": 0.209090909090909,
                "tempo": 120.0
            },
            {
                "start_time": 4.338636363636364,
                "end_time": 4.559090909090909,
                "pitch": 32,
                "velocity": 64,
                "duration": 0.2204545454545448,
                "tempo": 120.0
            },
            {
                "start_time": 4.593181818181818,
                "end_time": 4.8159090909090905,
                "pitch": 44,
                "velocity": 64,
                "duration": 0.22272727272727266,
                "tempo": 120.0
            },
            {
                "start_time": 4.831818181818182,
                "end_time": 5.045454545454545,
                "pitch": 32,
                "velocity": 64,
                "duration": 0.21363636363636296,
                "tempo": 120.0
            },
            {
                "start_time": 5.0613636363636365,
                "end_time": 5.293181818181818,
                "pitch": 44,
                "velocity": 64,
                "duration": 0.23181818181818148,
                "tempo": 120.0
            },
            {
                "start_time": 5.309090909090909,
                "end_time": 5.529545454545454,
                "pitch": 32,
                "velocity": 64,
                "duration": 0.22045454545454568,
                "tempo": 120.0
            },
            {
                "start_time": 5.547727272727273,
                "end_time": 5.7704545454545455,
                "pitch": 44,
                "velocity": 64,
                "duration": 0.22272727272727266,
                "tempo": 120.0
            },
            {
                "start_time": 5.804545454545455,
                "end_time": 6.0227272727272725,
                "pitch": 32,
                "velocity": 64,
                "duration": 0.2181818181818178,
                "tempo": 120.0
            },
            {
                "start_time": 6.038636363636363,
                "end_time": 6.256818181818182,
                "pitch": 44,
                "velocity": 64,
                "duration": 0.2181818181818187,
                "tempo": 120.0
            },
            {
                "start_time": 6.2749999999999995,
                "end_time": 6.504545454545454,
                "pitch": 32,
                "velocity": 64,
                "duration": 0.2295454545454545,
                "tempo": 120.0
            },
            {
                "start_time": 6.5204545454545455,
                "end_time": 6.7340909090909085,
                "pitch": 44,
                "velocity": 64,
                "duration": 0.21363636363636296,
                "tempo": 120.0
            },
            {
                "start_time": 6.75,
                "end_time": 6.968181818181818,
                "pitch": 32,
                "velocity": 64,
                "duration": 0.2181818181818178,
                "tempo": 120.0
            },
            {
                "start_time": 7.002272727272727,
                "end_time": 7.220454545454545,
                "pitch": 44,
                "velocity": 64,
                "duration": 0.2181818181818178,
                "tempo": 120.0
            },
            {
                "start_time": 7.236363636363636,
                "end_time": 7.459090909090909,
                "pitch": 39,
                "velocity": 64,
                "duration": 0.22272727272727266,
                "tempo": 120.0
            },
            {
                "start_time": 7.475,
                "end_time": 7.715909090909091,
                "pitch": 51,
                "velocity": 64,
                "duration": 0.24090909090909118,
                "tempo": 120.0
            },
            {
                "start_time": 7.7318181818181815,
                "end_time": 7.949999999999999,
                "pitch": 34,
                "velocity": 64,
                "duration": 0.2181818181818178,
                "tempo": 120.0
            },
            {
                "start_time": 7.968181818181818,
                "end_time": 8.186363636363636,
                "pitch": 46,
                "velocity": 64,
                "duration": 0.2181818181818178,
                "tempo": 120.0
            },
            {
                "start_time": 8.218181818181817,
                "end_time": 8.436363636363636,
                "pitch": 34,
                "velocity": 64,
                "duration": 0.2181818181818187,
                "tempo": 120.0
            },
            {
                "start_time": 8.452272727272726,
                "end_time": 8.552272727272728,
                "pitch": 41,
                "velocity": 64,
                "duration": 0.10000000000000142,
                "tempo": 120.0
            },
            {
                "start_time": 8.568181818181818,
                "end_time": 8.668181818181818,
                "pitch": 43,
                "velocity": 64,
                "duration": 0.09999999999999964,
                "tempo": 120.0
            },
            {
                "start_time": 8.686363636363636,
                "end_time": 8.915909090909091,
                "pitch": 34,
                "velocity": 64,
                "duration": 0.22954545454545539,
                "tempo": 120.0
            },
            {
                "start_time": 8.931818181818182,
                "end_time": 9.145454545454545,
                "pitch": 46,
                "velocity": 64,
                "duration": 0.21363636363636296,
                "tempo": 120.0
            },
            {
                "start_time": 9.161363636363635,
                "end_time": 9.379545454545454,
                "pitch": 34,
                "velocity": 64,
                "duration": 0.2181818181818187,
                "tempo": 120.0
            },
            {
                "start_time": 9.413636363636364,
                "end_time": 9.513636363636364,
                "pitch": 41,
                "velocity": 64,
                "duration": 0.09999999999999964,
                "tempo": 120.0
            },
            {
                "start_time": 9.531818181818181,
                "end_time": 9.631818181818181,
                "pitch": 43,
                "velocity": 64,
                "duration": 0.09999999999999964,
                "tempo": 120.0
            },
            {
                "start_time": 9.647727272727272,
                "end_time": 9.870454545454544,
                "pitch": 34,
                "velocity": 64,
                "duration": 0.22272727272727266,
                "tempo": 120.0
            },
            {
                "start_time": 9.888636363636364,
                "end_time": 10.127272727272727,
                "pitch": 46,
                "velocity": 64,
                "duration": 0.2386363636363633,
                "tempo": 120.0
            },
            {
                "start_time": 10.143181818181818,
                "end_time": 10.361363636363636,
                "pitch": 32,
                "velocity": 64,
                "duration": 0.2181818181818187,
                "tempo": 120.0
            },
            {
                "start_time": 10.379545454545454,
                "end_time": 10.597727272727273,
                "pitch": 44,
                "velocity": 64,
                "duration": 0.2181818181818187,
                "tempo": 120.0
            },
            {
                "start_time": 10.631818181818181,
                "end_time": 10.85,
                "pitch": 31,
                "velocity": 64,
                "duration": 0.2181818181818187,
                "tempo": 120.0
            },
            {
                "start_time": 10.86590909090909,
                "end_time": 11.084090909090909,
                "pitch": 43,
                "velocity": 64,
                "duration": 0.2181818181818187,
                "tempo": 120.0
            },
            {
                "start_time": 11.102272727272727,
                "end_time": 11.331818181818182,
                "pitch": 29,
                "velocity": 64,
                "duration": 0.22954545454545539,
                "tempo": 120.0
            },
            {
                "start_time": 11.347727272727273,
                "end_time": 11.561363636363636,
                "pitch": 41,
                "velocity": 64,
                "duration": 0.21363636363636296,
                "tempo": 120.0
            },
            {
                "start_time": 11.577272727272726,
                "end_time": 11.793181818181818,
                "pitch": 32,
                "velocity": 64,
                "duration": 0.21590909090909172,
                "tempo": 120.0
            },
            {
                "start_time": 11.827272727272726,
                "end_time": 12.043181818181818,
                "pitch": 44,
                "velocity": 64,
                "duration": 0.21590909090909172,
                "tempo": 120.0
            },
            {
                "start_time": 12.061363636363636,
                "end_time": 12.281818181818181,
                "pitch": 32,
                "velocity": 64,
                "duration": 0.22045454545454568,
                "tempo": 120.0
            },
            {
                "start_time": 12.299999999999999,
                "end_time": 12.538636363636362,
                "pitch": 44,
                "velocity": 64,
                "duration": 0.2386363636363633,
                "tempo": 120.0
            },
            {
                "start_time": 12.554545454545455,
                "end_time": 12.774999999999999,
                "pitch": 32,
                "velocity": 64,
                "duration": 0.2204545454545439,
                "tempo": 120.0
            },
            {
                "start_time": 12.790909090909091,
                "end_time": 13.009090909090908,
                "pitch": 44,
                "velocity": 64,
                "duration": 0.21818181818181692,
                "tempo": 120.0
            },
            {
                "start_time": 13.043181818181818,
                "end_time": 13.261363636363635,
                "pitch": 32,
                "velocity": 64,
                "duration": 0.21818181818181692,
                "tempo": 120.0
            },
            {
                "start_time": 13.277272727272727,
                "end_time": 13.495454545454544,
                "pitch": 44,
                "velocity": 64,
                "duration": 0.21818181818181692,
                "tempo": 120.0
            },
            {
                "start_time": 13.513636363636364,
                "end_time": 13.743181818181817,
                "pitch": 32,
                "velocity": 64,
                "duration": 0.2295454545454536,
                "tempo": 120.0
            },
            {
                "start_time": 13.759090909090908,
                "end_time": 13.972727272727273,
                "pitch": 44,
                "velocity": 64,
                "duration": 0.21363636363636473,
                "tempo": 120.0
            },
            {
                "start_time": 13.988636363636363,
                "end_time": 14.211363636363636,
                "pitch": 32,
                "velocity": 64,
                "duration": 0.22272727272727266,
                "tempo": 120.0
            },
            {
                "start_time": 14.245454545454544,
                "end_time": 14.46590909090909,
                "pitch": 44,
                "velocity": 64,
                "duration": 0.22045454545454568,
                "tempo": 120.0
            },
            {
                "start_time": 14.484090909090908,
                "end_time": 14.697727272727272,
                "pitch": 32,
                "velocity": 64,
                "duration": 0.21363636363636473,
                "tempo": 120.0
            },
            {
                "start_time": 14.713636363636363,
                "end_time": 14.943181818181818,
                "pitch": 44,
                "velocity": 64,
                "duration": 0.22954545454545539,
                "tempo": 120.0
            },
            {
                "start_time": 14.959090909090909,
                "end_time": 15.181818181818182,
                "pitch": 39,
                "velocity": 64,
                "duration": 0.22272727272727266,
                "tempo": 120.0
            },
            {
                "start_time": 15.197727272727272,
                "end_time": 15.420454545454545,
                "pitch": 51,
                "velocity": 64,
                "duration": 0.22272727272727266,
                "tempo": 120.0
            },
            {
                "start_time": 15.454545454545453,
                "end_time": 15.554545454545455,
                "pitch": 34,
                "velocity": 64,
                "duration": 0.10000000000000142,
                "tempo": 120.0
            },
            {
                "start_time": 15.572727272727272,
                "end_time": 15.672727272727272,
                "pitch": 34,
                "velocity": 64,
                "duration": 0.09999999999999964,
                "tempo": 120.0
            },
            {
                "start_time": 15.688636363636363,
                "end_time": 15.790909090909091,
                "pitch": 34,
                "velocity": 64,
                "duration": 0.1022727272727284,
                "tempo": 120.0
            },
            {
                "start_time": 15.806818181818182,
                "end_time": 15.906818181818181,
                "pitch": 34,
                "velocity": 64,
                "duration": 0.09999999999999964,
                "tempo": 120.0
            },
            {
                "start_time": 15.924999999999999,
                "end_time": 16.022727272727273,
                "pitch": 34,
                "velocity": 64,
                "duration": 0.09772727272727444,
                "tempo": 120.0
            },
            {
                "start_time": 16.05681818181818,
                "end_time": 16.154545454545453,
                "pitch": 34,
                "velocity": 64,
                "duration": 0.09772727272727266,
                "tempo": 120.0
            },
            {
                "start_time": 16.170454545454543,
                "end_time": 16.268181818181816,
                "pitch": 34,
                "velocity": 64,
                "duration": 0.09772727272727266,
                "tempo": 120.0
            },
            {
                "start_time": 16.286363636363635,
                "end_time": 16.384090909090908,
                "pitch": 34,
                "velocity": 64,
                "duration": 0.09772727272727266,
                "tempo": 120.0
            },
            {
                "start_time": 16.4,
                "end_time": 16.5,
                "pitch": 34,
                "velocity": 64,
                "duration": 0.10000000000000142,
                "tempo": 120.0
            },
            {
                "start_time": 16.51590909090909,
                "end_time": 16.61590909090909,
                "pitch": 34,
                "velocity": 64,
                "duration": 0.09999999999999787,
                "tempo": 120.0
            },
            {
                "start_time": 16.65,
                "end_time": 16.75,
                "pitch": 34,
                "velocity": 64,
                "duration": 0.10000000000000142,
                "tempo": 120.0
            },
            {
                "start_time": 16.76590909090909,
                "end_time": 16.86590909090909,
                "pitch": 34,
                "velocity": 64,
                "duration": 0.09999999999999787,
                "tempo": 120.0
            },
            {
                "start_time": 16.884090909090908,
                "end_time": 16.986363636363635,
                "pitch": 34,
                "velocity": 64,
                "duration": 0.10227272727272663,
                "tempo": 120.0
            },
            {
                "start_time": 17.002272727272725,
                "end_time": 17.104545454545455,
                "pitch": 34,
                "velocity": 64,
                "duration": 0.10227272727273018,
                "tempo": 120.0
            },
            {
                "start_time": 17.12272727272727,
                "end_time": 17.224999999999998,
                "pitch": 34,
                "velocity": 64,
                "duration": 0.10227272727272663,
                "tempo": 120.0
            },
            {
                "start_time": 17.259090909090908,
                "end_time": 17.361363636363635,
                "pitch": 34,
                "velocity": 64,
                "duration": 0.10227272727272663,
                "tempo": 120.0
            },
            {
                "start_time": 17.379545454545454,
                "end_time": 17.479545454545455,
                "pitch": 27,
                "velocity": 64,
                "duration": 0.10000000000000142,
                "tempo": 120.0
            },
            {
                "start_time": 17.495454545454546,
                "end_time": 17.597727272727273,
                "pitch": 27,
                "velocity": 64,
                "duration": 0.10227272727272663,
                "tempo": 120.0
            },
            {
                "start_time": 17.613636363636363,
                "end_time": 17.71363636363636,
                "pitch": 27,
                "velocity": 64,
                "duration": 0.09999999999999787,
                "tempo": 120.0
            },
            {
                "start_time": 17.73181818181818,
                "end_time": 17.831818181818182,
                "pitch": 27,
                "velocity": 64,
                "duration": 0.10000000000000142,
                "tempo": 120.0
            },
            {
                "start_time": 17.86590909090909,
                "end_time": 17.96818181818182,
                "pitch": 27,
                "velocity": 64,
                "duration": 0.10227272727273018,
                "tempo": 120.0
            },
            {
                "start_time": 17.986363636363635,
                "end_time": 18.08863636363636,
                "pitch": 27,
                "velocity": 64,
                "duration": 0.10227272727272663,
                "tempo": 120.0
            },
            {
                "start_time": 18.104545454545455,
                "end_time": 18.206818181818182,
                "pitch": 27,
                "velocity": 64,
                "duration": 0.10227272727272663,
                "tempo": 120.0
            },
            {
                "start_time": 18.224999999999998,
                "end_time": 18.327272727272728,
                "pitch": 27,
                "velocity": 64,
                "duration": 0.10227272727273018,
                "tempo": 120.0
            },
            {
                "start_time": 18.34318181818182,
                "end_time": 18.44090909090909,
                "pitch": 27,
                "velocity": 64,
                "duration": 0.09772727272727266,
                "tempo": 120.0
            },
            {
                "start_time": 18.472727272727273,
                "end_time": 18.568181818181817,
                "pitch": 27,
                "velocity": 64,
                "duration": 0.0954545454545439,
                "tempo": 120.0
            },
            {
                "start_time": 18.584090909090907,
                "end_time": 18.679545454545455,
                "pitch": 27,
                "velocity": 64,
                "duration": 0.09545454545454746,
                "tempo": 120.0
            },
            {
                "start_time": 18.695454545454545,
                "end_time": 18.793181818181818,
                "pitch": 27,
                "velocity": 64,
                "duration": 0.09772727272727266,
                "tempo": 120.0
            },
            {
                "start_time": 18.80909090909091,
                "end_time": 18.909090909090907,
                "pitch": 27,
                "velocity": 64,
                "duration": 0.09999999999999787,
                "tempo": 120.0
            },
            {
                "start_time": 18.927272727272726,
                "end_time": 19.027272727272727,
                "pitch": 27,
                "velocity": 64,
                "duration": 0.10000000000000142,
                "tempo": 120.0
            },
            {
                "start_time": 19.061363636363634,
                "end_time": 19.161363636363635,
                "pitch": 27,
                "velocity": 64,
                "duration": 0.10000000000000142,
                "tempo": 120.0
            },
            {
                "start_time": 19.177272727272726,
                "end_time": 19.279545454545453,
                "pitch": 27,
                "velocity": 64,
                "duration": 0.10227272727272663,
                "tempo": 120.0
            },
            {
                "start_time": 19.295454545454543,
                "end_time": 19.397727272727273,
                "pitch": 34,
                "velocity": 64,
                "duration": 0.10227272727273018,
                "tempo": 120.0
            },
            {
                "start_time": 19.41590909090909,
                "end_time": 19.518181818181816,
                "pitch": 34,
                "velocity": 64,
                "duration": 0.10227272727272663,
                "tempo": 120.0
            },
            {
                "start_time": 19.534090909090907,
                "end_time": 19.636363636363637,
                "pitch": 34,
                "velocity": 64,
                "duration": 0.10227272727273018,
                "tempo": 120.0
            },
            {
                "start_time": 19.670454545454543,
                "end_time": 19.775,
                "pitch": 34,
                "velocity": 64,
                "duration": 0.10454545454545539,
                "tempo": 120.0
            },
            {
                "start_time": 19.79090909090909,
                "end_time": 19.89090909090909,
                "pitch": 34,
                "velocity": 64,
                "duration": 0.10000000000000142,
                "tempo": 120.0
            },
            {
                "start_time": 19.909090909090907,
                "end_time": 20.009090909090908,
                "pitch": 34,
                "velocity": 64,
                "duration": 0.10000000000000142,
                "tempo": 120.0
            },
            {
                "start_time": 20.027272727272727,
                "end_time": 20.127272727272725,
                "pitch": 34,
                "velocity": 64,
                "duration": 0.09999999999999787,
                "tempo": 120.0
            },
            {
                "start_time": 20.143181818181816,
                "end_time": 20.245454545454546,
                "pitch": 34,
                "velocity": 64,
                "duration": 0.10227272727273018,
                "tempo": 120.0
            },
            {
                "start_time": 20.277272727272727,
                "end_time": 20.379545454545454,
                "pitch": 34,
                "velocity": 64,
                "duration": 0.10227272727272663,
                "tempo": 120.0
            },
            {
                "start_time": 20.395454545454545,
                "end_time": 20.49772727272727,
                "pitch": 34,
                "velocity": 64,
                "duration": 0.10227272727272663,
                "tempo": 120.0
            },
            {
                "start_time": 20.513636363636362,
                "end_time": 20.613636363636363,
                "pitch": 34,
                "velocity": 64,
                "duration": 0.10000000000000142,
                "tempo": 120.0
            },
            {
                "start_time": 20.63181818181818,
                "end_time": 20.73181818181818,
                "pitch": 34,
                "velocity": 64,
                "duration": 0.10000000000000142,
                "tempo": 120.0
            },
            {
                "start_time": 20.74772727272727,
                "end_time": 20.847727272727273,
                "pitch": 34,
                "velocity": 64,
                "duration": 0.10000000000000142,
                "tempo": 120.0
            },
            {
                "start_time": 20.879545454545454,
                "end_time": 20.977272727272727,
                "pitch": 34,
                "velocity": 64,
                "duration": 0.09772727272727266,
                "tempo": 120.0
            },
            {
                "start_time": 20.995454545454546,
                "end_time": 21.09318181818182,
                "pitch": 34,
                "velocity": 64,
                "duration": 0.09772727272727266,
                "tempo": 120.0
            },
            {
                "start_time": 21.10909090909091,
                "end_time": 21.206818181818182,
                "pitch": 34,
                "velocity": 64,
                "duration": 0.09772727272727266,
                "tempo": 120.0
            },
            {
                "start_time": 21.224999999999998,
                "end_time": 21.325,
                "pitch": 27,
                "velocity": 64,
                "duration": 0.10000000000000142,
                "tempo": 120.0
            },
            {
                "start_time": 21.34090909090909,
                "end_time": 21.443181818181817,
                "pitch": 27,
                "velocity": 64,
                "duration": 0.10227272727272663,
                "tempo": 120.0
            },
            {
                "start_time": 21.477272727272727,
                "end_time": 21.577272727272724,
                "pitch": 27,
                "velocity": 64,
                "duration": 0.09999999999999787,
                "tempo": 120.0
            },
            {
                "start_time": 21.59318181818182,
                "end_time": 21.695454545454545,
                "pitch": 27,
                "velocity": 64,
                "duration": 0.10227272727272663,
                "tempo": 120.0
            },
            {
                "start_time": 21.711363636363636,
                "end_time": 21.813636363636363,
                "pitch": 27,
                "velocity": 64,
                "duration": 0.10227272727272663,
                "tempo": 120.0
            },
            {
                "start_time": 21.831818181818182,
                "end_time": 21.93409090909091,
                "pitch": 27,
                "velocity": 64,
                "duration": 0.10227272727272663,
                "tempo": 120.0
            },
            {
                "start_time": 21.95,
                "end_time": 22.052272727272726,
                "pitch": 27,
                "velocity": 64,
                "duration": 0.10227272727272663,
                "tempo": 120.0
            },
            {
                "start_time": 22.086363636363636,
                "end_time": 22.188636363636363,
                "pitch": 27,
                "velocity": 64,
                "duration": 0.10227272727272663,
                "tempo": 120.0
            },
            {
                "start_time": 22.206818181818182,
                "end_time": 22.30681818181818,
                "pitch": 27,
                "velocity": 64,
                "duration": 0.09999999999999787,
                "tempo": 120.0
            },
            {
                "start_time": 22.325,
                "end_time": 22.424999999999997,
                "pitch": 27,
                "velocity": 64,
                "duration": 0.09999999999999787,
                "tempo": 120.0
            },
            {
                "start_time": 22.44090909090909,
                "end_time": 22.543181818181818,
                "pitch": 27,
                "velocity": 64,
                "duration": 0.10227272727272663,
                "tempo": 120.0
            },
            {
                "start_time": 22.55909090909091,
                "end_time": 22.661363636363635,
                "pitch": 27,
                "velocity": 64,
                "duration": 0.10227272727272663,
                "tempo": 120.0
            },
            {
                "start_time": 22.693181818181817,
                "end_time": 22.795454545454543,
                "pitch": 27,
                "velocity": 64,
                "duration": 0.10227272727272663,
                "tempo": 120.0
            },
            {
                "start_time": 22.813636363636363,
                "end_time": 22.91590909090909,
                "pitch": 27,
                "velocity": 64,
                "duration": 0.10227272727272663,
                "tempo": 120.0
            },
            {
                "start_time": 22.93181818181818,
                "end_time": 23.036363636363635,
                "pitch": 27,
                "velocity": 64,
                "duration": 0.10454545454545539,
                "tempo": 120.0
            },
            {
                "start_time": 23.052272727272726,
                "end_time": 23.154545454545453,
                "pitch": 27,
                "velocity": 64,
                "duration": 0.10227272727272663,
                "tempo": 120.0
            },
            {
                "start_time": 23.172727272727272,
                "end_time": 23.268181818181816,
                "pitch": 34,
                "velocity": 64,
                "duration": 0.0954545454545439,
                "tempo": 120.0
            },
            {
                "start_time": 23.299999999999997,
                "end_time": 23.395454545454545,
                "pitch": 34,
                "velocity": 64,
                "duration": 0.09545454545454746,
                "tempo": 120.0
            },
            {
                "start_time": 23.411363636363635,
                "end_time": 23.509090909090908,
                "pitch": 34,
                "velocity": 64,
                "duration": 0.09772727272727266,
                "tempo": 120.0
            },
            {
                "start_time": 23.525,
                "end_time": 23.620454545454546,
                "pitch": 34,
                "velocity": 64,
                "duration": 0.09545454545454746,
                "tempo": 120.0
            },
            {
                "start_time": 23.636363636363637,
                "end_time": 23.738636363636363,
                "pitch": 34,
                "velocity": 64,
                "duration": 0.10227272727272663,
                "tempo": 120.0
            },
            {
                "start_time": 23.75681818181818,
                "end_time": 23.85909090909091,
                "pitch": 34,
                "velocity": 64,
                "duration": 0.10227272727273018,
                "tempo": 120.0
            },
            {
                "start_time": 23.893181818181816,
                "end_time": 23.995454545454546,
                "pitch": 34,
                "velocity": 64,
                "duration": 0.10227272727273018,
                "tempo": 120.0
            },
            {
                "start_time": 24.011363636363637,
                "end_time": 24.113636363636363,
                "pitch": 34,
                "velocity": 64,
                "duration": 0.10227272727272663,
                "tempo": 120.0
            },
            {
                "start_time": 24.13181818181818,
                "end_time": 24.23181818181818,
                "pitch": 34,
                "velocity": 64,
                "duration": 0.10000000000000142,
                "tempo": 120.0
            },
            {
                "start_time": 24.25,
                "end_time": 24.349999999999998,
                "pitch": 34,
                "velocity": 64,
                "duration": 0.09999999999999787,
                "tempo": 120.0
            },
            {
                "start_time": 24.36590909090909,
                "end_time": 24.46818181818182,
                "pitch": 34,
                "velocity": 64,
                "duration": 0.10227272727273018,
                "tempo": 120.0
            },
            {
                "start_time": 24.5,
                "end_time": 24.602272727272727,
                "pitch": 34,
                "velocity": 64,
                "duration": 0.10227272727272663,
                "tempo": 120.0
            },
            {
                "start_time": 24.618181818181817,
                "end_time": 24.720454545454544,
                "pitch": 34,
                "velocity": 64,
                "duration": 0.10227272727272663,
                "tempo": 120.0
            },
            {
                "start_time": 24.736363636363635,
                "end_time": 24.836363636363636,
                "pitch": 34,
                "velocity": 64,
                "duration": 0.10000000000000142,
                "tempo": 120.0
            },
            {
                "start_time": 24.854545454545452,
                "end_time": 24.954545454545453,
                "pitch": 34,
                "velocity": 64,
                "duration": 0.10000000000000142,
                "tempo": 120.0
            },
            {
                "start_time": 24.970454545454544,
                "end_time": 25.07272727272727,
                "pitch": 34,
                "velocity": 64,
                "duration": 0.10227272727272663,
                "tempo": 120.0
            },
            {
                "start_time": 25.10681818181818,
                "end_time": 25.206818181818182,
                "pitch": 27,
                "velocity": 64,
                "duration": 0.10000000000000142,
                "tempo": 120.0
            },
            {
                "start_time": 25.222727272727273,
                "end_time": 25.325,
                "pitch": 27,
                "velocity": 64,
                "duration": 0.10227272727272663,
                "tempo": 120.0
            },
            {
                "start_time": 25.34090909090909,
                "end_time": 25.44090909090909,
                "pitch": 27,
                "velocity": 64,
                "duration": 0.10000000000000142,
                "tempo": 120.0
            },
            {
                "start_time": 25.459090909090907,
                "end_time": 25.55909090909091,
                "pitch": 27,
                "velocity": 64,
                "duration": 0.10000000000000142,
                "tempo": 120.0
            },
            {
                "start_time": 25.577272727272724,
                "end_time": 25.674999999999997,
                "pitch": 27,
                "velocity": 64,
                "duration": 0.09772727272727266,
                "tempo": 120.0
            },
            {
                "start_time": 25.706818181818182,
                "end_time": 25.80681818181818,
                "pitch": 27,
                "velocity": 64,
                "duration": 0.09999999999999787,
                "tempo": 120.0
            },
            {
                "start_time": 25.82272727272727,
                "end_time": 25.920454545454543,
                "pitch": 27,
                "velocity": 64,
                "duration": 0.09772727272727266,
                "tempo": 120.0
            },
            {
                "start_time": 25.936363636363634,
                "end_time": 26.036363636363635,
                "pitch": 27,
                "velocity": 64,
                "duration": 0.10000000000000142,
                "tempo": 120.0
            },
            {
                "start_time": 26.052272727272726,
                "end_time": 26.152272727272727,
                "pitch": 27,
                "velocity": 64,
                "duration": 0.10000000000000142,
                "tempo": 120.0
            },
            {
                "start_time": 26.170454545454543,
                "end_time": 26.270454545454545,
                "pitch": 27,
                "velocity": 64,
                "duration": 0.10000000000000142,
                "tempo": 120.0
            },
            {
                "start_time": 26.304545454545455,
                "end_time": 26.404545454545453,
                "pitch": 27,
                "velocity": 64,
                "duration": 0.09999999999999787,
                "tempo": 120.0
            },
            {
                "start_time": 26.420454545454543,
                "end_time": 26.52272727272727,
                "pitch": 27,
                "velocity": 64,
                "duration": 0.10227272727272663,
                "tempo": 120.0
            },
            {
                "start_time": 26.538636363636364,
                "end_time": 26.64090909090909,
                "pitch": 27,
                "velocity": 64,
                "duration": 0.10227272727272663,
                "tempo": 120.0
            },
            {
                "start_time": 26.659090909090907,
                "end_time": 26.761363636363637,
                "pitch": 27,
                "velocity": 64,
                "duration": 0.10227272727273018,
                "tempo": 120.0
            },
            {
                "start_time": 26.777272727272727,
                "end_time": 26.879545454545454,
                "pitch": 27,
                "velocity": 64,
                "duration": 0.10227272727272663,
                "tempo": 120.0
            },
            {
                "start_time": 26.913636363636364,
                "end_time": 27.018181818181816,
                "pitch": 27,
                "velocity": 64,
                "duration": 0.10454545454545183,
                "tempo": 120.0
            },
            {
                "start_time": 27.034090909090907,
                "end_time": 27.134090909090908,
                "pitch": 34,
                "velocity": 64,
                "duration": 0.10000000000000142,
                "tempo": 120.0
            },
            {
                "start_time": 27.15,
                "end_time": 27.25,
                "pitch": 34,
                "velocity": 64,
                "duration": 0.10000000000000142,
                "tempo": 120.0
            },
            {
                "start_time": 27.268181818181816,
                "end_time": 27.368181818181817,
                "pitch": 34,
                "velocity": 64,
                "duration": 0.10000000000000142,
                "tempo": 120.0
            },
            {
                "start_time": 27.384090909090908,
                "end_time": 27.48409090909091,
                "pitch": 34,
                "velocity": 64,
                "duration": 0.10000000000000142,
                "tempo": 120.0
            },
            {
                "start_time": 27.518181818181816,
                "end_time": 27.618181818181817,
                "pitch": 34,
                "velocity": 64,
                "duration": 0.10000000000000142,
                "tempo": 120.0
            },
            {
                "start_time": 27.634090909090908,
                "end_time": 27.736363636363635,
                "pitch": 34,
                "velocity": 64,
                "duration": 0.10227272727272663,
                "tempo": 120.0
            },
            {
                "start_time": 27.752272727272725,
                "end_time": 27.854545454545452,
                "pitch": 34,
                "velocity": 64,
                "duration": 0.10227272727272663,
                "tempo": 120.0
            },
            {
                "start_time": 27.870454545454542,
                "end_time": 27.970454545454544,
                "pitch": 34,
                "velocity": 64,
                "duration": 0.10000000000000142,
                "tempo": 120.0
            },
            {
                "start_time": 27.988636363636363,
                "end_time": 28.086363636363636,
                "pitch": 34,
                "velocity": 64,
                "duration": 0.09772727272727266,
                "tempo": 120.0
            },
            {
                "start_time": 28.118181818181817,
                "end_time": 28.218181818181815,
                "pitch": 34,
                "velocity": 64,
                "duration": 0.09999999999999787,
                "tempo": 120.0
            },
            {
                "start_time": 28.23409090909091,
                "end_time": 28.331818181818182,
                "pitch": 34,
                "velocity": 64,
                "duration": 0.09772727272727266,
                "tempo": 120.0
            },
            {
                "start_time": 28.347727272727273,
                "end_time": 28.44772727272727,
                "pitch": 34,
                "velocity": 64,
                "duration": 0.09999999999999787,
                "tempo": 120.0
            },
            {
                "start_time": 28.46363636363636,
                "end_time": 28.565909090909088,
                "pitch": 34,
                "velocity": 64,
                "duration": 0.10227272727272663,
                "tempo": 120.0
            },
            {
                "start_time": 28.581818181818182,
                "end_time": 28.686363636363634,
                "pitch": 34,
                "velocity": 64,
                "duration": 0.10454545454545183,
                "tempo": 120.0
            },
            {
                "start_time": 28.720454545454544,
                "end_time": 28.82272727272727,
                "pitch": 34,
                "velocity": 64,
                "duration": 0.10227272727272663,
                "tempo": 120.0
            },
            {
                "start_time": 28.83863636363636,
                "end_time": 28.940909090909088,
                "pitch": 34,
                "velocity": 64,
                "duration": 0.10227272727272663,
                "tempo": 120.0
            },
            {
                "start_time": 28.959090909090907,
                "end_time": 29.05909090909091,
                "pitch": 27,
                "velocity": 64,
                "duration": 0.10000000000000142,
                "tempo": 120.0
            },
            {
                "start_time": 29.077272727272724,
                "end_time": 29.177272727272726,
                "pitch": 27,
                "velocity": 64,
                "duration": 0.10000000000000142,
                "tempo": 120.0
            },
            {
                "start_time": 29.193181818181817,
                "end_time": 29.295454545454543,
                "pitch": 27,
                "velocity": 64,
                "duration": 0.10227272727272663,
                "tempo": 120.0
            },
            {
                "start_time": 29.327272727272724,
                "end_time": 29.429545454545455,
                "pitch": 27,
                "velocity": 64,
                "duration": 0.10227272727273018,
                "tempo": 120.0
            },
            {
                "start_time": 29.445454545454545,
                "end_time": 29.545454545454543,
                "pitch": 27,
                "velocity": 64,
                "duration": 0.09999999999999787,
                "tempo": 120.0
            },
            {
                "start_time": 29.563636363636363,
                "end_time": 29.66363636363636,
                "pitch": 27,
                "velocity": 64,
                "duration": 0.09999999999999787,
                "tempo": 120.0
            },
            {
                "start_time": 29.68181818181818,
                "end_time": 29.78181818181818,
                "pitch": 27,
                "velocity": 64,
                "duration": 0.10000000000000142,
                "tempo": 120.0
            },
            {
                "start_time": 29.797727272727272,
                "end_time": 29.9,
                "pitch": 27,
                "velocity": 64,
                "duration": 0.10227272727272663,
                "tempo": 120.0
            },
            {
                "start_time": 29.93181818181818,
                "end_time": 30.034090909090907,
                "pitch": 27,
                "velocity": 64,
                "duration": 0.10227272727272663,
                "tempo": 120.0
            },
            {
                "start_time": 30.049999999999997,
                "end_time": 30.152272727272727,
                "pitch": 27,
                "velocity": 64,
                "duration": 0.10227272727273018,
                "tempo": 120.0
            },
            {
                "start_time": 30.168181818181818,
                "end_time": 30.268181818181816,
                "pitch": 27,
                "velocity": 64,
                "duration": 0.09999999999999787,
                "tempo": 120.0
            },
            {
                "start_time": 30.286363636363635,
                "end_time": 30.386363636363633,
                "pitch": 27,
                "velocity": 64,
                "duration": 0.09999999999999787,
                "tempo": 120.0
            },
            {
                "start_time": 30.402272727272727,
                "end_time": 30.502272727272725,
                "pitch": 27,
                "velocity": 64,
                "duration": 0.09999999999999787,
                "tempo": 120.0
            },
            {
                "start_time": 30.534090909090907,
                "end_time": 30.63181818181818,
                "pitch": 27,
                "velocity": 64,
                "duration": 0.09772727272727266,
                "tempo": 120.0
            },
            {
                "start_time": 30.65,
                "end_time": 30.74772727272727,
                "pitch": 27,
                "velocity": 64,
                "duration": 0.09772727272727266,
                "tempo": 120.0
            },
            {
                "start_time": 30.763636363636362,
                "end_time": 30.863636363636363,
                "pitch": 27,
                "velocity": 64,
                "duration": 0.10000000000000142,
                "tempo": 120.0
            },
            {
                "start_time": 30.879545454545454,
                "end_time": 31.097727272727273,
                "pitch": 34,
                "velocity": 64,
                "duration": 0.2181818181818187,
                "tempo": 120.0
            },
            {
                "start_time": 31.13181818181818,
                "end_time": 31.349999999999998,
                "pitch": 46,
                "velocity": 64,
                "duration": 0.2181818181818187,
                "tempo": 120.0
            },
            {
                "start_time": 31.36590909090909,
                "end_time": 31.58863636363636,
                "pitch": 36,
                "velocity": 64,
                "duration": 0.22272727272727266,
                "tempo": 120.0
            },
            {
                "start_time": 31.604545454545452,
                "end_time": 31.843181818181815,
                "pitch": 48,
                "velocity": 64,
                "duration": 0.2386363636363633,
                "tempo": 120.0
            },
            {
                "start_time": 31.861363636363635,
                "end_time": 32.07954545454545,
                "pitch": 37,
                "velocity": 64,
                "duration": 0.2181818181818187,
                "tempo": 120.0
            },
            {
                "start_time": 32.095454545454544,
                "end_time": 32.31590909090909,
                "pitch": 49,
                "velocity": 64,
                "duration": 0.2204545454545439,
                "tempo": 120.0
            },
            {
                "start_time": 32.34772727272727,
                "end_time": 32.449999999999996,
                "pitch": 41,
                "velocity": 64,
                "duration": 0.10227272727272663,
                "tempo": 120.0
            },
            {
                "start_time": 32.46818181818182,
                "end_time": 32.570454545454545,
                "pitch": 58,
                "velocity": 64,
                "duration": 0.10227272727272663,
                "tempo": 120.0
            },
            {
                "start_time": 32.586363636363636,
                "end_time": 32.69090909090909,
                "pitch": 53,
                "velocity": 64,
                "duration": 0.10454545454545183,
                "tempo": 120.0
            },
            {
                "start_time": 32.70681818181818,
                "end_time": 32.809090909090905,
                "pitch": 58,
                "velocity": 64,
                "duration": 0.10227272727272663,
                "tempo": 120.0
            },
            {
                "start_time": 32.82727272727273,
                "end_time": 33.05,
                "pitch": 39,
                "velocity": 64,
                "duration": 0.2227272727272691,
                "tempo": 120.0
            },
            {
                "start_time": 33.06590909090909,
                "end_time": 33.275,
                "pitch": 51,
                "velocity": 64,
                "duration": 0.20909090909091077,
                "tempo": 120.0
            },
            {
                "start_time": 33.29090909090909,
                "end_time": 33.513636363636365,
                "pitch": 37,
                "velocity": 64,
                "duration": 0.22272727272727622,
                "tempo": 120.0
            },
            {
                "start_time": 33.54772727272727,
                "end_time": 33.768181818181816,
                "pitch": 49,
                "velocity": 64,
                "duration": 0.2204545454545439,
                "tempo": 120.0
            },
            {
                "start_time": 33.78636363636363,
                "end_time": 34.0,
                "pitch": 36,
                "velocity": 64,
                "duration": 0.2136363636363683,
                "tempo": 120.0
            },
            {
                "start_time": 34.01590909090909,
                "end_time": 34.24545454545454,
                "pitch": 48,
                "velocity": 64,
                "duration": 0.22954545454545183,
                "tempo": 120.0
            },
            {
                "start_time": 34.26136363636363,
                "end_time": 34.36363636363636,
                "pitch": 34,
                "velocity": 64,
                "duration": 0.10227272727272663,
                "tempo": 120.0
            },
            {
                "start_time": 34.38181818181818,
                "end_time": 34.48409090909091,
                "pitch": 63,
                "velocity": 64,
                "duration": 0.10227272727272663,
                "tempo": 120.0
            },
            {
                "start_time": 34.5,
                "end_time": 34.60227272727273,
                "pitch": 46,
                "velocity": 64,
                "duration": 0.10227272727272663,
                "tempo": 120.0
            },
            {
                "start_time": 34.62045454545454,
                "end_time": 34.72272727272727,
                "pitch": 63,
                "velocity": 64,
                "duration": 0.10227272727272663,
                "tempo": 120.0
            },
            {
                "start_time": 34.75681818181818,
                "end_time": 34.97272727272727,
                "pitch": 32,
                "velocity": 64,
                "duration": 0.2159090909090864,
                "tempo": 120.0
            },
            {
                "start_time": 34.99090909090909,
                "end_time": 35.20681818181818,
                "pitch": 44,
                "velocity": 64,
                "duration": 0.2159090909090864,
                "tempo": 120.0
            },
            {
                "start_time": 35.22272727272727,
                "end_time": 35.45227272727273,
                "pitch": 34,
                "velocity": 64,
                "duration": 0.22954545454545894,
                "tempo": 120.0
            },
            {
                "start_time": 35.46818181818182,
                "end_time": 35.68181818181818,
                "pitch": 46,
                "velocity": 64,
                "duration": 0.21363636363636118,
                "tempo": 120.0
            },
            {
                "start_time": 35.69772727272727,
                "end_time": 35.918181818181814,
                "pitch": 36,
                "velocity": 64,
                "duration": 0.2204545454545439,
                "tempo": 120.0
            },
            {
                "start_time": 35.949999999999996,
                "end_time": 36.168181818181814,
                "pitch": 48,
                "velocity": 64,
                "duration": 0.2181818181818187,
                "tempo": 120.0
            },
            {
                "start_time": 36.18636363636364,
                "end_time": 36.288636363636364,
                "pitch": 39,
                "velocity": 64,
                "duration": 0.10227272727272663,
                "tempo": 120.0
            },
            {
                "start_time": 36.304545454545455,
                "end_time": 36.40909090909091,
                "pitch": 56,
                "velocity": 64,
                "duration": 0.10454545454545183,
                "tempo": 120.0
            },
            {
                "start_time": 36.425,
                "end_time": 36.527272727272724,
                "pitch": 51,
                "velocity": 64,
                "duration": 0.10227272727272663,
                "tempo": 120.0
            },
            {
                "start_time": 36.56136363636364,
                "end_time": 36.663636363636364,
                "pitch": 56,
                "velocity": 64,
                "duration": 0.10227272727272663,
                "tempo": 120.0
            },
            {
                "start_time": 36.68181818181818,
                "end_time": 36.89772727272727,
                "pitch": 41,
                "velocity": 64,
                "duration": 0.2159090909090935,
                "tempo": 120.0
            },
            {
                "start_time": 36.913636363636364,
                "end_time": 37.13181818181818,
                "pitch": 53,
                "velocity": 64,
                "duration": 0.2181818181818187,
                "tempo": 120.0
            },
            {
                "start_time": 37.163636363636364,
                "end_time": 37.38181818181818,
                "pitch": 39,
                "velocity": 64,
                "duration": 0.2181818181818187,
                "tempo": 120.0
            },
            {
                "start_time": 37.39772727272727,
                "end_time": 37.61363636363636,
                "pitch": 51,
                "velocity": 64,
                "duration": 0.2159090909090864,
                "tempo": 120.0
            },
            {
                "start_time": 37.63181818181818,
                "end_time": 37.861363636363635,
                "pitch": 37,
                "velocity": 64,
                "duration": 0.22954545454545183,
                "tempo": 120.0
            },
            {
                "start_time": 37.877272727272725,
                "end_time": 38.090909090909086,
                "pitch": 49,
                "velocity": 64,
                "duration": 0.21363636363636118,
                "tempo": 120.0
            },
            {
                "start_time": 38.10681818181818,
                "end_time": 38.20681818181818,
                "pitch": 36,
                "velocity": 64,
                "duration": 0.10000000000000142,
                "tempo": 120.0
            },
            {
                "start_time": 38.22272727272727,
                "end_time": 38.32272727272727,
                "pitch": 36,
                "velocity": 64,
                "duration": 0.10000000000000142,
                "tempo": 120.0
            },
            {
                "start_time": 38.35681818181818,
                "end_time": 38.45681818181818,
                "pitch": 48,
                "velocity": 64,
                "duration": 0.10000000000000142,
                "tempo": 120.0
            },
            {
                "start_time": 38.47272727272727,
                "end_time": 38.57272727272727,
                "pitch": 53,
                "velocity": 64,
                "duration": 0.10000000000000142,
                "tempo": 120.0
            },
            {
                "start_time": 38.590909090909086,
                "end_time": 38.80681818181818,
                "pitch": 34,
                "velocity": 64,
                "duration": 0.2159090909090935,
                "tempo": 120.0
            },
            {
                "start_time": 38.82272727272727,
                "end_time": 39.05681818181818,
                "pitch": 46,
                "velocity": 64,
                "duration": 0.23409090909090935,
                "tempo": 120.0
            },
            {
                "start_time": 39.07272727272727,
                "end_time": 39.29545454545455,
                "pitch": 36,
                "velocity": 64,
                "duration": 0.22272727272727622,
                "tempo": 120.0
            },
            {
                "start_time": 39.31136363636364,
                "end_time": 39.53409090909091,
                "pitch": 48,
                "velocity": 64,
                "duration": 0.2227272727272691,
                "tempo": 120.0
            },
            {
                "start_time": 39.56818181818181,
                "end_time": 39.78636363636363,
                "pitch": 37,
                "velocity": 64,
                "duration": 0.2181818181818187,
                "tempo": 120.0
            },
            {
                "start_time": 39.804545454545455,
                "end_time": 40.02272727272727,
                "pitch": 49,
                "velocity": 64,
                "duration": 0.2181818181818187,
                "tempo": 120.0
            },
            {
                "start_time": 40.038636363636364,
                "end_time": 40.13636363636363,
                "pitch": 41,
                "velocity": 64,
                "duration": 0.09772727272726911,
                "tempo": 120.0
            },
            {
                "start_time": 40.17045454545455,
                "end_time": 40.268181818181816,
                "pitch": 58,
                "velocity": 64,
                "duration": 0.09772727272726911,
                "tempo": 120.0
            },
            {
                "start_time": 40.28409090909091,
                "end_time": 40.38409090909091,
                "pitch": 53,
                "velocity": 64,
                "duration": 0.10000000000000142,
                "tempo": 120.0
            },
            {
                "start_time": 40.4,
                "end_time": 40.49772727272727,
                "pitch": 58,
                "velocity": 64,
                "duration": 0.09772727272726911,
                "tempo": 120.0
            },
            {
                "start_time": 40.51363636363636,
                "end_time": 40.73181818181818,
                "pitch": 39,
                "velocity": 64,
                "duration": 0.2181818181818187,
                "tempo": 120.0
            },
            {
                "start_time": 40.76363636363636,
                "end_time": 40.98181818181818,
                "pitch": 51,
                "velocity": 64,
                "duration": 0.2181818181818187,
                "tempo": 120.0
            },
            {
                "start_time": 40.99772727272727,
                "end_time": 41.220454545454544,
                "pitch": 37,
                "velocity": 64,
                "duration": 0.22272727272727622,
                "tempo": 120.0
            },
            {
                "start_time": 41.236363636363635,
                "end_time": 41.475,
                "pitch": 49,
                "velocity": 64,
                "duration": 0.23863636363636687,
                "tempo": 120.0
            },
            {
                "start_time": 41.49318181818182,
                "end_time": 41.709090909090904,
                "pitch": 36,
                "velocity": 64,
                "duration": 0.2159090909090864,
                "tempo": 120.0
            },
            {
                "start_time": 41.72727272727273,
                "end_time": 41.94318181818181,
                "pitch": 48,
                "velocity": 64,
                "duration": 0.2159090909090864,
                "tempo": 120.0
            },
            {
                "start_time": 41.97727272727273,
                "end_time": 42.07954545454545,
                "pitch": 34,
                "velocity": 64,
                "duration": 0.10227272727272663,
                "tempo": 120.0
            },
            {
                "start_time": 42.095454545454544,
                "end_time": 42.19772727272727,
                "pitch": 63,
                "velocity": 64,
                "duration": 0.10227272727272663,
                "tempo": 120.0
            },
            {
                "start_time": 42.215909090909086,
                "end_time": 42.31818181818181,
                "pitch": 46,
                "velocity": 64,
                "duration": 0.10227272727272663,
                "tempo": 120.0
            },
            {
                "start_time": 42.334090909090904,
                "end_time": 42.43636363636364,
                "pitch": 63,
                "velocity": 64,
                "duration": 0.10227272727273373,
                "tempo": 120.0
            },
            {
                "start_time": 42.45454545454545,
                "end_time": 42.679545454545455,
                "pitch": 32,
                "velocity": 64,
                "duration": 0.22500000000000142,
                "tempo": 120.0
            },
            {
                "start_time": 42.695454545454545,
                "end_time": 42.902272727272724,
                "pitch": 44,
                "velocity": 64,
                "duration": 0.20681818181817846,
                "tempo": 120.0
            },
            {
                "start_time": 42.918181818181814,
                "end_time": 43.14090909090909,
                "pitch": 34,
                "velocity": 64,
                "duration": 0.22272727272727622,
                "tempo": 120.0
            },
            {
                "start_time": 43.175,
                "end_time": 43.39545454545454,
                "pitch": 46,
                "velocity": 64,
                "duration": 0.2204545454545439,
                "tempo": 120.0
            },
            {
                "start_time": 43.413636363636364,
                "end_time": 43.627272727272725,
                "pitch": 36,
                "velocity": 64,
                "duration": 0.21363636363636118,
                "tempo": 120.0
            },
            {
                "start_time": 43.643181818181816,
                "end_time": 43.87272727272727,
                "pitch": 48,
                "velocity": 64,
                "duration": 0.22954545454545183,
                "tempo": 120.0
            },
            {
                "start_time": 43.88863636363636,
                "end_time": 43.99090909090909,
                "pitch": 37,
                "velocity": 64,
                "duration": 0.10227272727273373,
                "tempo": 120.0
            },
            {
                "start_time": 44.00909090909091,
                "end_time": 44.111363636363635,
                "pitch": 56,
                "velocity": 64,
                "duration": 0.10227272727272663,
                "tempo": 120.0
            },
            {
                "start_time": 44.127272727272725,
                "end_time": 44.22954545454545,
                "pitch": 49,
                "velocity": 64,
                "duration": 0.10227272727272663,
                "tempo": 120.0
            },
            {
                "start_time": 44.24772727272727,
                "end_time": 44.349999999999994,
                "pitch": 56,
                "velocity": 64,
                "duration": 0.10227272727272663,
                "tempo": 120.0
            },
            {
                "start_time": 44.38409090909091,
                "end_time": 44.599999999999994,
                "pitch": 41,
                "velocity": 64,
                "duration": 0.2159090909090864,
                "tempo": 120.0
            },
            {
                "start_time": 44.61818181818182,
                "end_time": 44.834090909090904,
                "pitch": 53,
                "velocity": 64,
                "duration": 0.2159090909090864,
                "tempo": 120.0
            },
            {
                "start_time": 44.849999999999994,
                "end_time": 45.07954545454545,
                "pitch": 39,
                "velocity": 64,
                "duration": 0.22954545454545894,
                "tempo": 120.0
            },
            {
                "start_time": 45.09772727272727,
                "end_time": 45.309090909090905,
                "pitch": 51,
                "velocity": 64,
                "duration": 0.21136363636363598,
                "tempo": 120.0
            },
            {
                "start_time": 45.32727272727273,
                "end_time": 45.54545454545455,
                "pitch": 37,
                "velocity": 64,
                "duration": 0.2181818181818187,
                "tempo": 120.0
            },
            {
                "start_time": 45.57954545454545,
                "end_time": 45.79772727272727,
                "pitch": 49,
                "velocity": 64,
                "duration": 0.2181818181818187,
                "tempo": 120.0
            },
            {
                "start_time": 45.81363636363636,
                "end_time": 45.91590909090909,
                "pitch": 36,
                "velocity": 64,
                "duration": 0.10227272727272663,
                "tempo": 120.0
            },
            {
                "start_time": 45.934090909090905,
                "end_time": 46.03636363636363,
                "pitch": 36,
                "velocity": 64,
                "duration": 0.10227272727272663,
                "tempo": 120.0
            },
            {
                "start_time": 46.05227272727272,
                "end_time": 46.15454545454545,
                "pitch": 36,
                "velocity": 64,
                "duration": 0.10227272727272663,
                "tempo": 120.0
            },
            {
                "start_time": 46.18863636363636,
                "end_time": 46.29090909090909,
                "pitch": 36,
                "velocity": 64,
                "duration": 0.10227272727272663,
                "tempo": 120.0
            }
        ],
        "Oboe": [
            {
                "start_time": 0.013636363636363636,
                "end_time": 0.029545454545454545,
                "pitch": 70,
                "velocity": 51,
                "duration": 0.015909090909090907,
                "tempo": 120.0
            },
            {
                "start_time": 0.04772727272727272,
                "end_time": 0.759090909090909,
                "pitch": 70,
                "velocity": 51,
                "duration": 0.7113636363636363,
                "tempo": 120.0
            },
            {
                "start_time": 0.7909090909090909,
                "end_time": 0.8909090909090909,
                "pitch": 70,
                "velocity": 51,
                "duration": 0.09999999999999998,
                "tempo": 120.0
            },
            {
                "start_time": 0.9090909090909091,
                "end_time": 1.009090909090909,
                "pitch": 72,
                "velocity": 51,
                "duration": 0.09999999999999998,
                "tempo": 120.0
            },
            {
                "start_time": 1.025,
                "end_time": 1.7204545454545455,
                "pitch": 70,
                "velocity": 51,
                "duration": 0.6954545454545455,
                "tempo": 120.0
            },
            {
                "start_time": 1.7363636363636363,
                "end_time": 1.8363636363636362,
                "pitch": 65,
                "velocity": 51,
                "duration": 0.09999999999999987,
                "tempo": 120.0
            },
            {
                "start_time": 1.8522727272727273,
                "end_time": 1.95,
                "pitch": 67,
                "velocity": 51,
                "duration": 0.09772727272727266,
                "tempo": 120.0
            },
            {
                "start_time": 1.984090909090909,
                "end_time": 2.1999999999999997,
                "pitch": 70,
                "velocity": 51,
                "duration": 0.21590909090909083,
                "tempo": 120.0
            },
            {
                "start_time": 2.2181818181818183,
                "end_time": 2.434090909090909,
                "pitch": 70,
                "velocity": 51,
                "duration": 0.21590909090909083,
                "tempo": 120.0
            },
            {
                "start_time": 2.452272727272727,
                "end_time": 2.690909090909091,
                "pitch": 67,
                "velocity": 51,
                "duration": 0.23863636363636376,
                "tempo": 120.0
            },
            {
                "start_time": 2.7068181818181816,
                "end_time": 3.161363636363636,
                "pitch": 70,
                "velocity": 51,
                "duration": 0.4545454545454546,
                "tempo": 120.0
            },
            {
                "start_time": 3.1954545454545453,
                "end_time": 3.652272727272727,
                "pitch": 67,
                "velocity": 51,
                "duration": 0.45681818181818157,
                "tempo": 120.0
            },
            {
                "start_time": 3.668181818181818,
                "end_time": 3.9068181818181817,
                "pitch": 65,
                "velocity": 51,
                "duration": 0.23863636363636376,
                "tempo": 120.0
            },
            {
                "start_time": 3.9227272727272724,
                "end_time": 4.018181818181818,
                "pitch": 82,
                "velocity": 51,
                "duration": 0.09545454545454524,
                "tempo": 120.0
            },
            {
                "start_time": 4.034090909090909,
                "end_time": 4.129545454545454,
                "pitch": 82,
                "velocity": 51,
                "duration": 0.09545454545454479,
                "tempo": 120.0
            },
            {
                "start_time": 4.1454545454545455,
                "end_time": 4.3545454545454545,
                "pitch": 82,
                "velocity": 51,
                "duration": 0.209090909090909,
                "tempo": 120.0
            },
            {
                "start_time": 4.388636363636364,
                "end_time": 4.49090909090909,
                "pitch": 77,
                "velocity": 51,
                "duration": 0.10227272727272663,
                "tempo": 120.0
            },
            {
                "start_time": 4.509090909090909,
                "end_time": 4.611363636363636,
                "pitch": 77,
                "velocity": 51,
                "duration": 0.10227272727272751,
                "tempo": 120.0
            },
            {
                "start_time": 4.627272727272727,
                "end_time": 4.85,
                "pitch": 79,
                "velocity": 51,
                "duration": 0.22272727272727266,
                "tempo": 120.0
            },
            {
                "start_time": 4.86590909090909,
                "end_time": 4.963636363636363,
                "pitch": 75,
                "velocity": 51,
                "duration": 0.09772727272727266,
                "tempo": 120.0
            },
            {
                "start_time": 4.997727272727272,
                "end_time": 5.095454545454545,
                "pitch": 75,
                "velocity": 51,
                "duration": 0.09772727272727266,
                "tempo": 120.0
            },
            {
                "start_time": 5.111363636363636,
                "end_time": 5.325,
                "pitch": 77,
                "velocity": 51,
                "duration": 0.21363636363636385,
                "tempo": 120.0
            },
            {
                "start_time": 5.343181818181818,
                "end_time": 5.5636363636363635,
                "pitch": 79,
                "velocity": 51,
                "duration": 0.22045454545454568,
                "tempo": 120.0
            },
            {
                "start_time": 5.597727272727273,
                "end_time": 5.820454545454545,
                "pitch": 77,
                "velocity": 51,
                "duration": 0.22272727272727266,
                "tempo": 120.0
            },
            {
                "start_time": 5.836363636363636,
                "end_time": 5.9386363636363635,
                "pitch": 82,
                "velocity": 51,
                "duration": 0.10227272727272751,
                "tempo": 120.0
            },
            {
                "start_time": 5.954545454545454,
                "end_time": 6.054545454545455,
                "pitch": 82,
                "velocity": 51,
                "duration": 0.10000000000000053,
                "tempo": 120.0
            },
            {
                "start_time": 6.072727272727272,
                "end_time": 6.306818181818182,
                "pitch": 82,
                "velocity": 51,
                "duration": 0.23409090909090935,
                "tempo": 120.0
            },
            {
                "start_time": 6.322727272727272,
                "end_time": 6.422727272727273,
                "pitch": 77,
                "velocity": 51,
                "duration": 0.10000000000000053,
                "tempo": 120.0
            },
            {
                "start_time": 6.4386363636363635,
                "end_time": 6.536363636363636,
                "pitch": 77,
                "velocity": 51,
                "duration": 0.09772727272727266,
                "tempo": 120.0
            },
            {
                "start_time": 6.552272727272727,
                "end_time": 6.765909090909091,
                "pitch": 79,
                "velocity": 51,
                "duration": 0.21363636363636385,
                "tempo": 120.0
            },
            {
                "start_time": 6.8,
                "end_time": 6.8999999999999995,
                "pitch": 75,
                "velocity": 51,
                "duration": 0.09999999999999964,
                "tempo": 120.0
            },
            {
                "start_time": 6.918181818181818,
                "end_time": 7.018181818181818,
                "pitch": 75,
                "velocity": 51,
                "duration": 0.09999999999999964,
                "tempo": 120.0
            },
            {
                "start_time": 7.036363636363636,
                "end_time": 7.254545454545454,
                "pitch": 77,
                "velocity": 51,
                "duration": 0.2181818181818178,
                "tempo": 120.0
            },
            {
                "start_time": 7.2704545454545455,
                "end_time": 7.509090909090909,
                "pitch": 79,
                "velocity": 51,
                "duration": 0.2386363636363633,
                "tempo": 120.0
            },
            {
                "start_time": 7.527272727272727,
                "end_time": 7.75,
                "pitch": 77,
                "velocity": 51,
                "duration": 0.22272727272727266,
                "tempo": 120.0
            },
            {
                "start_time": 7.765909090909091,
                "end_time": 8.468181818181817,
                "pitch": 70,
                "velocity": 51,
                "duration": 0.7022727272727263,
                "tempo": 120.0
            },
            {
                "start_time": 8.486363636363636,
                "end_time": 8.586363636363636,
                "pitch": 70,
                "velocity": 51,
                "duration": 0.09999999999999964,
                "tempo": 120.0
            },
            {
                "start_time": 8.618181818181817,
                "end_time": 8.718181818181817,
                "pitch": 72,
                "velocity": 51,
                "duration": 0.09999999999999964,
                "tempo": 120.0
            },
            {
                "start_time": 8.73409090909091,
                "end_time": 9.429545454545455,
                "pitch": 70,
                "velocity": 51,
                "duration": 0.6954545454545453,
                "tempo": 120.0
            },
            {
                "start_time": 9.447727272727272,
                "end_time": 9.547727272727272,
                "pitch": 65,
                "velocity": 51,
                "duration": 0.09999999999999964,
                "tempo": 120.0
            },
            {
                "start_time": 9.56590909090909,
                "end_time": 9.665909090909091,
                "pitch": 67,
                "velocity": 51,
                "duration": 0.10000000000000142,
                "tempo": 120.0
            },
            {
                "start_time": 9.681818181818182,
                "end_time": 9.922727272727272,
                "pitch": 70,
                "velocity": 51,
                "duration": 0.2409090909090903,
                "tempo": 120.0
            },
            {
                "start_time": 9.938636363636363,
                "end_time": 10.161363636363635,
                "pitch": 70,
                "velocity": 51,
                "duration": 0.22272727272727266,
                "tempo": 120.0
            },
            {
                "start_time": 10.177272727272726,
                "end_time": 10.395454545454545,
                "pitch": 67,
                "velocity": 51,
                "duration": 0.2181818181818187,
                "tempo": 120.0
            },
            {
                "start_time": 10.429545454545455,
                "end_time": 10.884090909090908,
                "pitch": 70,
                "velocity": 51,
                "duration": 0.45454545454545325,
                "tempo": 120.0
            },
            {
                "start_time": 10.9,
                "end_time": 11.134090909090908,
                "pitch": 70,
                "velocity": 51,
                "duration": 0.23409090909090757,
                "tempo": 120.0
            },
            {
                "start_time": 11.149999999999999,
                "end_time": 11.363636363636363,
                "pitch": 67,
                "velocity": 51,
                "duration": 0.21363636363636473,
                "tempo": 120.0
            },
            {
                "start_time": 11.379545454545454,
                "end_time": 11.593181818181817,
                "pitch": 65,
                "velocity": 51,
                "duration": 0.21363636363636296,
                "tempo": 120.0
            },
            {
                "start_time": 11.627272727272727,
                "end_time": 11.727272727272727,
                "pitch": 82,
                "velocity": 51,
                "duration": 0.09999999999999964,
                "tempo": 120.0
            },
            {
                "start_time": 11.743181818181817,
                "end_time": 11.843181818181817,
                "pitch": 82,
                "velocity": 51,
                "duration": 0.09999999999999964,
                "tempo": 120.0
            },
            {
                "start_time": 11.861363636363636,
                "end_time": 12.077272727272726,
                "pitch": 82,
                "velocity": 51,
                "duration": 0.21590909090908994,
                "tempo": 120.0
            },
            {
                "start_time": 12.095454545454546,
                "end_time": 12.197727272727272,
                "pitch": 77,
                "velocity": 51,
                "duration": 0.10227272727272663,
                "tempo": 120.0
            },
            {
                "start_time": 12.23181818181818,
                "end_time": 12.334090909090909,
                "pitch": 77,
                "velocity": 51,
                "duration": 0.1022727272727284,
                "tempo": 120.0
            },
            {
                "start_time": 12.35,
                "end_time": 12.572727272727272,
                "pitch": 79,
                "velocity": 51,
                "duration": 0.22272727272727266,
                "tempo": 120.0
            },
            {
                "start_time": 12.588636363636363,
                "end_time": 12.69090909090909,
                "pitch": 75,
                "velocity": 51,
                "duration": 0.10227272727272663,
                "tempo": 120.0
            },
            {
                "start_time": 12.706818181818182,
                "end_time": 12.806818181818182,
                "pitch": 75,
                "velocity": 51,
                "duration": 0.09999999999999964,
                "tempo": 120.0
            },
            {
                "start_time": 12.84090909090909,
                "end_time": 13.059090909090909,
                "pitch": 77,
                "velocity": 51,
                "duration": 0.2181818181818187,
                "tempo": 120.0
            },
            {
                "start_time": 13.077272727272726,
                "end_time": 13.295454545454545,
                "pitch": 79,
                "velocity": 51,
                "duration": 0.2181818181818187,
                "tempo": 120.0
            },
            {
                "start_time": 13.311363636363636,
                "end_time": 13.545454545454545,
                "pitch": 77,
                "velocity": 51,
                "duration": 0.23409090909090935,
                "tempo": 120.0
            },
            {
                "start_time": 13.561363636363636,
                "end_time": 13.661363636363635,
                "pitch": 82,
                "velocity": 51,
                "duration": 0.09999999999999964,
                "tempo": 120.0
            },
            {
                "start_time": 13.677272727272726,
                "end_time": 13.774999999999999,
                "pitch": 82,
                "velocity": 51,
                "duration": 0.09772727272727266,
                "tempo": 120.0
            },
            {
                "start_time": 13.790909090909091,
                "end_time": 14.004545454545454,
                "pitch": 82,
                "velocity": 51,
                "duration": 0.21363636363636296,
                "tempo": 120.0
            },
            {
                "start_time": 14.040909090909091,
                "end_time": 14.143181818181818,
                "pitch": 77,
                "velocity": 51,
                "duration": 0.10227272727272663,
                "tempo": 120.0
            },
            {
                "start_time": 14.159090909090908,
                "end_time": 14.261363636363635,
                "pitch": 77,
                "velocity": 51,
                "duration": 0.10227272727272663,
                "tempo": 120.0
            },
            {
                "start_time": 14.279545454545454,
                "end_time": 14.5,
                "pitch": 79,
                "velocity": 51,
                "duration": 0.22045454545454568,
                "tempo": 120.0
            },
            {
                "start_time": 14.51590909090909,
                "end_time": 14.613636363636363,
                "pitch": 75,
                "velocity": 51,
                "duration": 0.09772727272727266,
                "tempo": 120.0
            },
            {
                "start_time": 14.647727272727272,
                "end_time": 14.745454545454544,
                "pitch": 75,
                "velocity": 51,
                "duration": 0.09772727272727266,
                "tempo": 120.0
            },
            {
                "start_time": 14.761363636363635,
                "end_time": 14.977272727272727,
                "pitch": 77,
                "velocity": 51,
                "duration": 0.21590909090909172,
                "tempo": 120.0
            },
            {
                "start_time": 14.993181818181817,
                "end_time": 15.21590909090909,
                "pitch": 79,
                "velocity": 51,
                "duration": 0.22272727272727266,
                "tempo": 120.0
            },
            {
                "start_time": 15.25,
                "end_time": 15.470454545454544,
                "pitch": 77,
                "velocity": 51,
                "duration": 0.2204545454545439,
                "tempo": 120.0
            },
            {
                "start_time": 15.488636363636363,
                "end_time": 15.95681818181818,
                "pitch": 70,
                "velocity": 51,
                "duration": 0.4681818181818169,
                "tempo": 120.0
            },
            {
                "start_time": 15.972727272727273,
                "end_time": 16.418181818181818,
                "pitch": 77,
                "velocity": 51,
                "duration": 0.4454545454545453,
                "tempo": 120.0
            },
            {
                "start_time": 16.45,
                "end_time": 16.9,
                "pitch": 79,
                "velocity": 51,
                "duration": 0.4499999999999993,
                "tempo": 120.0
            },
            {
                "start_time": 16.918181818181818,
                "end_time": 17.395454545454545,
                "pitch": 82,
                "velocity": 51,
                "duration": 0.4772727272727266,
                "tempo": 120.0
            },
            {
                "start_time": 17.411363636363635,
                "end_time": 17.513636363636362,
                "pitch": 84,
                "velocity": 51,
                "duration": 0.10227272727272663,
                "tempo": 120.0
            },
            {
                "start_time": 17.529545454545453,
                "end_time": 17.631818181818183,
                "pitch": 82,
                "velocity": 51,
                "duration": 0.10227272727273018,
                "tempo": 120.0
            },
            {
                "start_time": 17.663636363636364,
                "end_time": 17.76590909090909,
                "pitch": 79,
                "velocity": 51,
                "duration": 0.10227272727272663,
                "tempo": 120.0
            },
            {
                "start_time": 17.78181818181818,
                "end_time": 17.881818181818183,
                "pitch": 82,
                "velocity": 51,
                "duration": 0.10000000000000142,
                "tempo": 120.0
            },
            {
                "start_time": 17.9,
                "end_time": 18.002272727272725,
                "pitch": 79,
                "velocity": 51,
                "duration": 0.10227272727272663,
                "tempo": 120.0
            },
            {
                "start_time": 18.020454545454545,
                "end_time": 18.12272727272727,
                "pitch": 77,
                "velocity": 51,
                "duration": 0.10227272727272663,
                "tempo": 120.0
            },
            {
                "start_time": 18.138636363636362,
                "end_time": 18.24090909090909,
                "pitch": 77,
                "velocity": 51,
                "duration": 0.10227272727272663,
                "tempo": 120.0
            },
            {
                "start_time": 18.275,
                "end_time": 18.375,
                "pitch": 73,
                "velocity": 51,
                "duration": 0.10000000000000142,
                "tempo": 120.0
            },
            {
                "start_time": 18.39090909090909,
                "end_time": 18.488636363636363,
                "pitch": 77,
                "velocity": 51,
                "duration": 0.09772727272727266,
                "tempo": 120.0
            },
            {
                "start_time": 18.504545454545454,
                "end_time": 18.599999999999998,
                "pitch": 73,
                "velocity": 51,
                "duration": 0.0954545454545439,
                "tempo": 120.0
            },
            {
                "start_time": 18.61590909090909,
                "end_time": 18.711363636363636,
                "pitch": 79,
                "velocity": 51,
                "duration": 0.09545454545454746,
                "tempo": 120.0
            },
            {
                "start_time": 18.729545454545455,
                "end_time": 18.825,
                "pitch": 77,
                "velocity": 51,
                "duration": 0.0954545454545439,
                "tempo": 120.0
            },
            {
                "start_time": 18.85909090909091,
                "end_time": 18.959090909090907,
                "pitch": 73,
                "velocity": 51,
                "duration": 0.09999999999999787,
                "tempo": 120.0
            },
            {
                "start_time": 18.977272727272727,
                "end_time": 19.077272727272728,
                "pitch": 72,
                "velocity": 51,
                "duration": 0.10000000000000142,
                "tempo": 120.0
            },
            {
                "start_time": 19.095454545454544,
                "end_time": 19.195454545454545,
                "pitch": 70,
                "velocity": 51,
                "duration": 0.10000000000000142,
                "tempo": 120.0
            },
            {
                "start_time": 19.211363636363636,
                "end_time": 19.313636363636363,
                "pitch": 73,
                "velocity": 51,
                "duration": 0.10227272727272663,
                "tempo": 120.0
            },
            {
                "start_time": 19.329545454545453,
                "end_time": 19.80681818181818,
                "pitch": 70,
                "velocity": 51,
                "duration": 0.4772727272727266,
                "tempo": 120.0
            },
            {
                "start_time": 19.825,
                "end_time": 20.295454545454543,
                "pitch": 77,
                "velocity": 51,
                "duration": 0.4704545454545439,
                "tempo": 120.0
            },
            {
                "start_time": 20.311363636363634,
                "end_time": 20.78181818181818,
                "pitch": 79,
                "velocity": 51,
                "duration": 0.47045454545454746,
                "tempo": 120.0
            },
            {
                "start_time": 20.797727272727272,
                "end_time": 21.24090909090909,
                "pitch": 82,
                "velocity": 51,
                "duration": 0.44318181818181657,
                "tempo": 120.0
            },
            {
                "start_time": 21.275,
                "end_time": 21.729545454545452,
                "pitch": 70,
                "velocity": 51,
                "duration": 0.45454545454545325,
                "tempo": 120.0
            },
            {
                "start_time": 21.745454545454546,
                "end_time": 22.222727272727273,
                "pitch": 72,
                "velocity": 51,
                "duration": 0.4772727272727266,
                "tempo": 120.0
            },
            {
                "start_time": 22.24090909090909,
                "end_time": 23.204545454545453,
                "pitch": 67,
                "velocity": 51,
                "duration": 0.9636363636363647,
                "tempo": 120.0
            },
            {
                "start_time": 23.220454545454544,
                "end_time": 23.652272727272727,
                "pitch": 70,
                "velocity": 51,
                "duration": 0.43181818181818343,
                "tempo": 120.0
            },
            {
                "start_time": 23.686363636363634,
                "end_time": 24.14772727272727,
                "pitch": 77,
                "velocity": 51,
                "duration": 0.461363636363636,
                "tempo": 120.0
            },
            {
                "start_time": 24.16590909090909,
                "end_time": 24.636363636363637,
                "pitch": 79,
                "velocity": 51,
                "duration": 0.47045454545454746,
                "tempo": 120.0
            },
            {
                "start_time": 24.652272727272727,
                "end_time": 25.12272727272727,
                "pitch": 82,
                "velocity": 51,
                "duration": 0.4704545454545439,
                "tempo": 120.0
            },
            {
                "start_time": 25.138636363636362,
                "end_time": 25.24090909090909,
                "pitch": 84,
                "velocity": 51,
                "duration": 0.10227272727272663,
                "tempo": 120.0
            },
            {
                "start_time": 25.25681818181818,
                "end_time": 25.35681818181818,
                "pitch": 82,
                "velocity": 51,
                "duration": 0.10000000000000142,
                "tempo": 120.0
            },
            {
                "start_time": 25.375,
                "end_time": 25.474999999999998,
                "pitch": 79,
                "velocity": 51,
                "duration": 0.09999999999999787,
                "tempo": 120.0
            },
            {
                "start_time": 25.509090909090908,
                "end_time": 25.60909090909091,
                "pitch": 82,
                "velocity": 51,
                "duration": 0.10000000000000142,
                "tempo": 120.0
            },
            {
                "start_time": 25.625,
                "end_time": 25.722727272727273,
                "pitch": 79,
                "velocity": 51,
                "duration": 0.09772727272727266,
                "tempo": 120.0
            },
            {
                "start_time": 25.74090909090909,
                "end_time": 25.83863636363636,
                "pitch": 77,
                "velocity": 51,
                "duration": 0.09772727272727266,
                "tempo": 120.0
            },
            {
                "start_time": 25.854545454545452,
                "end_time": 25.954545454545453,
                "pitch": 77,
                "velocity": 51,
                "duration": 0.10000000000000142,
                "tempo": 120.0
            },
            {
                "start_time": 25.970454545454544,
                "end_time": 26.068181818181817,
                "pitch": 73,
                "velocity": 51,
                "duration": 0.09772727272727266,
                "tempo": 120.0
            },
            {
                "start_time": 26.102272727272727,
                "end_time": 26.202272727272724,
                "pitch": 77,
                "velocity": 51,
                "duration": 0.09999999999999787,
                "tempo": 120.0
            },
            {
                "start_time": 26.220454545454544,
                "end_time": 26.320454545454545,
                "pitch": 73,
                "velocity": 51,
                "duration": 0.10000000000000142,
                "tempo": 120.0
            },
            {
                "start_time": 26.336363636363636,
                "end_time": 26.438636363636363,
                "pitch": 79,
                "velocity": 51,
                "duration": 0.10227272727272663,
                "tempo": 120.0
            },
            {
                "start_time": 26.454545454545453,
                "end_time": 26.55681818181818,
                "pitch": 77,
                "velocity": 51,
                "duration": 0.10227272727272663,
                "tempo": 120.0
            },
            {
                "start_time": 26.57272727272727,
                "end_time": 26.674999999999997,
                "pitch": 73,
                "velocity": 51,
                "duration": 0.10227272727272663,
                "tempo": 120.0
            },
            {
                "start_time": 26.709090909090907,
                "end_time": 26.811363636363634,
                "pitch": 72,
                "velocity": 51,
                "duration": 0.10227272727272663,
                "tempo": 120.0
            },
            {
                "start_time": 26.829545454545453,
                "end_time": 26.93181818181818,
                "pitch": 70,
                "velocity": 51,
                "duration": 0.10227272727272663,
                "tempo": 120.0
            },
            {
                "start_time": 26.94772727272727,
                "end_time": 27.049999999999997,
                "pitch": 73,
                "velocity": 51,
                "duration": 0.10227272727272663,
                "tempo": 120.0
            },
            {
                "start_time": 27.068181818181817,
                "end_time": 27.534090909090907,
                "pitch": 70,
                "velocity": 51,
                "duration": 0.46590909090908994,
                "tempo": 120.0
            },
            {
                "start_time": 27.549999999999997,
                "end_time": 28.020454545454545,
                "pitch": 77,
                "velocity": 51,
                "duration": 0.47045454545454746,
                "tempo": 120.0
            },
            {
                "start_time": 28.036363636363635,
                "end_time": 28.479545454545452,
                "pitch": 79,
                "velocity": 51,
                "duration": 0.44318181818181657,
                "tempo": 120.0
            },
            {
                "start_time": 28.513636363636362,
                "end_time": 28.974999999999998,
                "pitch": 82,
                "velocity": 51,
                "duration": 0.461363636363636,
                "tempo": 120.0
            },
            {
                "start_time": 28.993181818181817,
                "end_time": 29.46363636363636,
                "pitch": 70,
                "velocity": 51,
                "duration": 0.4704545454545439,
                "tempo": 120.0
            },
            {
                "start_time": 29.479545454545452,
                "end_time": 29.95,
                "pitch": 72,
                "velocity": 51,
                "duration": 0.47045454545454746,
                "tempo": 120.0
            },
            {
                "start_time": 29.96590909090909,
                "end_time": 30.895454545454545,
                "pitch": 67,
                "velocity": 51,
                "duration": 0.9295454545454547,
                "tempo": 120.0
            },
            {
                "start_time": 30.929545454545455,
                "end_time": 31.029545454545453,
                "pitch": 89,
                "velocity": 51,
                "duration": 0.09999999999999787,
                "tempo": 120.0
            },
            {
                "start_time": 31.047727272727272,
                "end_time": 31.14772727272727,
                "pitch": 87,
                "velocity": 51,
                "duration": 0.09999999999999787,
                "tempo": 120.0
            },
            {
                "start_time": 31.16363636363636,
                "end_time": 31.384090909090908,
                "pitch": 85,
                "velocity": 51,
                "duration": 0.22045454545454746,
                "tempo": 120.0
            },
            {
                "start_time": 31.4,
                "end_time": 31.502272727272725,
                "pitch": 82,
                "velocity": 51,
                "duration": 0.10227272727272663,
                "tempo": 120.0
            },
            {
                "start_time": 31.536363636363635,
                "end_time": 31.638636363636362,
                "pitch": 82,
                "velocity": 51,
                "duration": 0.10227272727272663,
                "tempo": 120.0
            },
            {
                "start_time": 31.65681818181818,
                "end_time": 32.48409090909091,
                "pitch": 84,
                "velocity": 51,
                "duration": 0.827272727272728,
                "tempo": 120.0
            },
            {
                "start_time": 32.502272727272725,
                "end_time": 32.60454545454545,
                "pitch": 77,
                "velocity": 51,
                "duration": 0.10227272727272663,
                "tempo": 120.0
            },
            {
                "start_time": 32.62272727272727,
                "end_time": 32.725,
                "pitch": 72,
                "velocity": 51,
                "duration": 0.10227272727273373,
                "tempo": 120.0
            },
            {
                "start_time": 32.75909090909091,
                "end_time": 33.08181818181818,
                "pitch": 77,
                "velocity": 51,
                "duration": 0.32272727272727053,
                "tempo": 120.0
            },
            {
                "start_time": 33.1,
                "end_time": 33.195454545454545,
                "pitch": 63,
                "velocity": 51,
                "duration": 0.0954545454545439,
                "tempo": 120.0
            },
            {
                "start_time": 33.211363636363636,
                "end_time": 33.56363636363636,
                "pitch": 63,
                "velocity": 51,
                "duration": 0.3522727272727266,
                "tempo": 120.0
            },
            {
                "start_time": 33.58181818181818,
                "end_time": 33.684090909090905,
                "pitch": 65,
                "velocity": 51,
                "duration": 0.10227272727272663,
                "tempo": 120.0
            },
            {
                "start_time": 33.699999999999996,
                "end_time": 34.04772727272727,
                "pitch": 65,
                "velocity": 51,
                "duration": 0.3477272727272762,
                "tempo": 120.0
            },
            {
                "start_time": 34.06363636363636,
                "end_time": 34.163636363636364,
                "pitch": 69,
                "velocity": 51,
                "duration": 0.10000000000000142,
                "tempo": 120.0
            },
            {
                "start_time": 34.179545454545455,
                "end_time": 34.39772727272727,
                "pitch": 69,
                "velocity": 51,
                "duration": 0.2181818181818187,
                "tempo": 120.0
            },
            {
                "start_time": 34.41590909090909,
                "end_time": 34.518181818181816,
                "pitch": 82,
                "velocity": 51,
                "duration": 0.10227272727272663,
                "tempo": 120.0
            },
            {
                "start_time": 34.55227272727272,
                "end_time": 34.654545454545456,
                "pitch": 65,
                "velocity": 51,
                "duration": 0.10227272727273373,
                "tempo": 120.0
            },
            {
                "start_time": 34.67045454545455,
                "end_time": 34.77272727272727,
                "pitch": 82,
                "velocity": 51,
                "duration": 0.10227272727272663,
                "tempo": 120.0
            },
            {
                "start_time": 34.79090909090909,
                "end_time": 34.89090909090909,
                "pitch": 89,
                "velocity": 51,
                "duration": 0.10000000000000142,
                "tempo": 120.0
            },
            {
                "start_time": 34.90681818181818,
                "end_time": 35.00681818181818,
                "pitch": 87,
                "velocity": 51,
                "duration": 0.10000000000000142,
                "tempo": 120.0
            },
            {
                "start_time": 35.02272727272727,
                "end_time": 35.25681818181818,
                "pitch": 85,
                "velocity": 51,
                "duration": 0.23409090909090935,
                "tempo": 120.0
            },
            {
                "start_time": 35.27272727272727,
                "end_time": 35.37045454545454,
                "pitch": 82,
                "velocity": 51,
                "duration": 0.09772727272726911,
                "tempo": 120.0
            },
            {
                "start_time": 35.38636363636363,
                "end_time": 35.486363636363635,
                "pitch": 82,
                "velocity": 51,
                "duration": 0.10000000000000142,
                "tempo": 120.0
            },
            {
                "start_time": 35.502272727272725,
                "end_time": 36.32272727272727,
                "pitch": 80,
                "velocity": 51,
                "duration": 0.8204545454545453,
                "tempo": 120.0
            },
            {
                "start_time": 36.35681818181818,
                "end_time": 36.45909090909091,
                "pitch": 75,
                "velocity": 51,
                "duration": 0.10227272727273373,
                "tempo": 120.0
            },
            {
                "start_time": 36.47727272727273,
                "end_time": 36.57954545454545,
                "pitch": 70,
                "velocity": 51,
                "duration": 0.10227272727272663,
                "tempo": 120.0
            },
            {
                "start_time": 36.595454545454544,
                "end_time": 36.93181818181818,
                "pitch": 75,
                "velocity": 51,
                "duration": 0.336363636363636,
                "tempo": 120.0
            },
            {
                "start_time": 36.96363636363636,
                "end_time": 37.06363636363636,
                "pitch": 75,
                "velocity": 51,
                "duration": 0.10000000000000142,
                "tempo": 120.0
            },
            {
                "start_time": 37.08181818181818,
                "end_time": 37.413636363636364,
                "pitch": 75,
                "velocity": 51,
                "duration": 0.33181818181818556,
                "tempo": 120.0
            },
            {
                "start_time": 37.43181818181818,
                "end_time": 37.53181818181818,
                "pitch": 69,
                "velocity": 51,
                "duration": 0.10000000000000142,
                "tempo": 120.0
            },
            {
                "start_time": 37.56363636363636,
                "end_time": 37.893181818181816,
                "pitch": 69,
                "velocity": 51,
                "duration": 0.32954545454545325,
                "tempo": 120.0
            },
            {
                "start_time": 37.90909090909091,
                "end_time": 38.00909090909091,
                "pitch": 65,
                "velocity": 51,
                "duration": 0.10000000000000142,
                "tempo": 120.0
            },
            {
                "start_time": 38.025,
                "end_time": 38.25681818181818,
                "pitch": 65,
                "velocity": 51,
                "duration": 0.23181818181818414,
                "tempo": 120.0
            },
            {
                "start_time": 38.27272727272727,
                "end_time": 38.37272727272727,
                "pitch": 72,
                "velocity": 51,
                "duration": 0.09999999999999432,
                "tempo": 120.0
            },
            {
                "start_time": 38.39090909090909,
                "end_time": 38.49090909090909,
                "pitch": 67,
                "velocity": 51,
                "duration": 0.10000000000000142,
                "tempo": 120.0
            },
            {
                "start_time": 38.50681818181818,
                "end_time": 38.60681818181818,
                "pitch": 72,
                "velocity": 51,
                "duration": 0.09999999999999432,
                "tempo": 120.0
            },
            {
                "start_time": 38.62272727272727,
                "end_time": 38.72272727272727,
                "pitch": 89,
                "velocity": 51,
                "duration": 0.10000000000000142,
                "tempo": 120.0
            },
            {
                "start_time": 38.75681818181818,
                "end_time": 38.85681818181818,
                "pitch": 87,
                "velocity": 51,
                "duration": 0.09999999999999432,
                "tempo": 120.0
            },
            {
                "start_time": 38.87272727272727,
                "end_time": 39.090909090909086,
                "pitch": 85,
                "velocity": 51,
                "duration": 0.2181818181818187,
                "tempo": 120.0
            },
            {
                "start_time": 39.10681818181818,
                "end_time": 39.209090909090904,
                "pitch": 82,
                "velocity": 51,
                "duration": 0.10227272727272663,
                "tempo": 120.0
            },
            {
                "start_time": 39.22727272727273,
                "end_time": 39.32954545454545,
                "pitch": 82,
                "velocity": 51,
                "duration": 0.10227272727272663,
                "tempo": 120.0
            },
            {
                "start_time": 39.36363636363636,
                "end_time": 40.18636363636364,
                "pitch": 84,
                "velocity": 51,
                "duration": 0.8227272727272776,
                "tempo": 120.0
            },
            {
                "start_time": 40.20227272727273,
                "end_time": 40.30227272727272,
                "pitch": 77,
                "velocity": 51,
                "duration": 0.09999999999999432,
                "tempo": 120.0
            },
            {
                "start_time": 40.31818181818181,
                "end_time": 40.41590909090909,
                "pitch": 72,
                "velocity": 51,
                "duration": 0.09772727272727622,
                "tempo": 120.0
            },
            {
                "start_time": 40.43181818181818,
                "end_time": 40.78181818181818,
                "pitch": 77,
                "velocity": 51,
                "duration": 0.3500000000000014,
                "tempo": 120.0
            },
            {
                "start_time": 40.79772727272727,
                "end_time": 40.89772727272727,
                "pitch": 63,
                "velocity": 51,
                "duration": 0.10000000000000142,
                "tempo": 120.0
            },
            {
                "start_time": 40.913636363636364,
                "end_time": 41.27045454545454,
                "pitch": 63,
                "velocity": 51,
                "duration": 0.35681818181817704,
                "tempo": 120.0
            },
            {
                "start_time": 41.288636363636364,
                "end_time": 41.39090909090909,
                "pitch": 65,
                "velocity": 51,
                "duration": 0.10227272727272663,
                "tempo": 120.0
            },
            {
                "start_time": 41.40681818181818,
                "end_time": 41.74318181818182,
                "pitch": 65,
                "velocity": 51,
                "duration": 0.336363636363636,
                "tempo": 120.0
            },
            {
                "start_time": 41.777272727272724,
                "end_time": 41.877272727272725,
                "pitch": 69,
                "velocity": 51,
                "duration": 0.10000000000000142,
                "tempo": 120.0
            },
            {
                "start_time": 41.893181818181816,
                "end_time": 42.11363636363636,
                "pitch": 69,
                "velocity": 51,
                "duration": 0.2204545454545439,
                "tempo": 120.0
            },
            {
                "start_time": 42.12954545454545,
                "end_time": 42.23181818181818,
                "pitch": 82,
                "velocity": 51,
                "duration": 0.10227272727272663,
                "tempo": 120.0
            },
            {
                "start_time": 42.25,
                "end_time": 42.35227272727273,
                "pitch": 65,
                "velocity": 51,
                "duration": 0.10227272727272663,
                "tempo": 120.0
            },
            {
                "start_time": 42.38636363636363,
                "end_time": 42.486363636363635,
                "pitch": 82,
                "velocity": 51,
                "duration": 0.10000000000000142,
                "tempo": 120.0
            },
            {
                "start_time": 42.502272727272725,
                "end_time": 42.59772727272727,
                "pitch": 89,
                "velocity": 51,
                "duration": 0.0954545454545439,
                "tempo": 120.0
            },
            {
                "start_time": 42.61363636363636,
                "end_time": 42.711363636363636,
                "pitch": 87,
                "velocity": 51,
                "duration": 0.09772727272727622,
                "tempo": 120.0
            },
            {
                "start_time": 42.72727272727273,
                "end_time": 42.93636363636364,
                "pitch": 85,
                "velocity": 51,
                "duration": 0.20909090909091077,
                "tempo": 120.0
            },
            {
                "start_time": 42.970454545454544,
                "end_time": 43.07272727272727,
                "pitch": 82,
                "velocity": 51,
                "duration": 0.10227272727272663,
                "tempo": 120.0
            },
            {
                "start_time": 43.08863636363636,
                "end_time": 43.19090909090909,
                "pitch": 82,
                "velocity": 51,
                "duration": 0.10227272727272663,
                "tempo": 120.0
            },
            {
                "start_time": 43.209090909090904,
                "end_time": 44.025,
                "pitch": 80,
                "velocity": 51,
                "duration": 0.8159090909090949,
                "tempo": 120.0
            },
            {
                "start_time": 44.043181818181814,
                "end_time": 44.14545454545454,
                "pitch": 75,
                "velocity": 51,
                "duration": 0.10227272727272663,
                "tempo": 120.0
            },
            {
                "start_time": 44.179545454545455,
                "end_time": 44.28181818181818,
                "pitch": 68,
                "velocity": 51,
                "duration": 0.10227272727272663,
                "tempo": 120.0
            },
            {
                "start_time": 44.29772727272727,
                "end_time": 44.63409090909091,
                "pitch": 75,
                "velocity": 51,
                "duration": 0.336363636363636,
                "tempo": 120.0
            },
            {
                "start_time": 44.65,
                "end_time": 44.75,
                "pitch": 70,
                "velocity": 51,
                "duration": 0.10000000000000142,
                "tempo": 120.0
            },
            {
                "start_time": 44.78409090909091,
                "end_time": 45.11363636363636,
                "pitch": 70,
                "velocity": 51,
                "duration": 0.32954545454545325,
                "tempo": 120.0
            },
            {
                "start_time": 45.12954545454545,
                "end_time": 45.22727272727273,
                "pitch": 69,
                "velocity": 51,
                "duration": 0.09772727272727622,
                "tempo": 120.0
            },
            {
                "start_time": 45.24545454545454,
                "end_time": 45.595454545454544,
                "pitch": 69,
                "velocity": 51,
                "duration": 0.3500000000000014,
                "tempo": 120.0
            },
            {
                "start_time": 45.611363636363635,
                "end_time": 45.71363636363636,
                "pitch": 68,
                "velocity": 51,
                "duration": 0.10227272727272663,
                "tempo": 120.0
            },
            {
                "start_time": 45.72954545454545,
                "end_time": 45.83181818181818,
                "pitch": 65,
                "velocity": 51,
                "duration": 0.10227272727272663,
                "tempo": 120.0
            },
            {
                "start_time": 45.84772727272727,
                "end_time": 45.949999999999996,
                "pitch": 63,
                "velocity": 51,
                "duration": 0.10227272727272663,
                "tempo": 120.0
            },
            {
                "start_time": 45.98409090909091,
                "end_time": 46.086363636363636,
                "pitch": 72,
                "velocity": 51,
                "duration": 0.10227272727272663,
                "tempo": 120.0
            },
            {
                "start_time": 46.10454545454545,
                "end_time": 46.20681818181818,
                "pitch": 72,
                "velocity": 51,
                "duration": 0.10227272727272663,
                "tempo": 120.0
            },
            {
                "start_time": 46.22272727272727,
                "end_time": 46.29090909090909,
                "pitch": 72,
                "velocity": 51,
                "duration": 0.06818181818182012,
                "tempo": 120.0
            }
        ],
        "Trumpet": [
            {
                "start_time": 0.013636363636363636,
                "end_time": 0.029545454545454545,
                "pitch": 58,
                "velocity": 40,
                "duration": 0.015909090909090907,
                "tempo": 120.0
            },
            {
                "start_time": 0.04772727272727272,
                "end_time": 0.2863636363636364,
                "pitch": 58,
                "velocity": 40,
                "duration": 0.23863636363636365,
                "tempo": 120.0
            },
            {
                "start_time": 0.3045454545454545,
                "end_time": 0.759090909090909,
                "pitch": 58,
                "velocity": 40,
                "duration": 0.45454545454545453,
                "tempo": 120.0
            },
            {
                "start_time": 0.7909090909090909,
                "end_time": 0.8909090909090909,
                "pitch": 65,
                "velocity": 40,
                "duration": 0.09999999999999998,
                "tempo": 120.0
            },
            {
                "start_time": 0.9090909090909091,
                "end_time": 1.009090909090909,
                "pitch": 67,
                "velocity": 40,
                "duration": 0.09999999999999998,
                "tempo": 120.0
            },
            {
                "start_time": 1.025,
                "end_time": 1.7204545454545455,
                "pitch": 70,
                "velocity": 40,
                "duration": 0.6954545454545455,
                "tempo": 120.0
            },
            {
                "start_time": 1.7363636363636363,
                "end_time": 1.8363636363636362,
                "pitch": 65,
                "velocity": 40,
                "duration": 0.09999999999999987,
                "tempo": 120.0
            },
            {
                "start_time": 1.8522727272727273,
                "end_time": 1.95,
                "pitch": 67,
                "velocity": 40,
                "duration": 0.09772727272727266,
                "tempo": 120.0
            },
            {
                "start_time": 1.984090909090909,
                "end_time": 2.1999999999999997,
                "pitch": 58,
                "velocity": 40,
                "duration": 0.21590909090909083,
                "tempo": 120.0
            },
            {
                "start_time": 2.2181818181818183,
                "end_time": 2.434090909090909,
                "pitch": 58,
                "velocity": 40,
                "duration": 0.21590909090909083,
                "tempo": 120.0
            },
            {
                "start_time": 2.452272727272727,
                "end_time": 2.690909090909091,
                "pitch": 67,
                "velocity": 40,
                "duration": 0.23863636363636376,
                "tempo": 120.0
            },
            {
                "start_time": 2.7068181818181816,
                "end_time": 3.161363636363636,
                "pitch": 63,
                "velocity": 40,
                "duration": 0.4545454545454546,
                "tempo": 120.0
            },
            {
                "start_time": 3.1954545454545453,
                "end_time": 3.652272727272727,
                "pitch": 60,
                "velocity": 40,
                "duration": 0.45681818181818157,
                "tempo": 120.0
            },
            {
                "start_time": 3.668181818181818,
                "end_time": 3.9068181818181817,
                "pitch": 58,
                "velocity": 40,
                "duration": 0.23863636363636376,
                "tempo": 120.0
            },
            {
                "start_time": 3.9227272727272724,
                "end_time": 5.5636363636363635,
                "pitch": 63,
                "velocity": 40,
                "duration": 1.640909090909091,
                "tempo": 120.0
            },
            {
                "start_time": 5.597727272727273,
                "end_time": 5.820454545454545,
                "pitch": 65,
                "velocity": 40,
                "duration": 0.22272727272727266,
                "tempo": 120.0
            },
            {
                "start_time": 5.836363636363636,
                "end_time": 7.75,
                "pitch": 63,
                "velocity": 40,
                "duration": 1.913636363636364,
                "tempo": 120.0
            },
            {
                "start_time": 7.765909090909091,
                "end_time": 7.9840909090909085,
                "pitch": 58,
                "velocity": 40,
                "duration": 0.2181818181818178,
                "tempo": 120.0
            },
            {
                "start_time": 8.018181818181818,
                "end_time": 8.468181818181817,
                "pitch": 58,
                "velocity": 40,
                "duration": 0.4499999999999993,
                "tempo": 120.0
            },
            {
                "start_time": 8.486363636363636,
                "end_time": 8.586363636363636,
                "pitch": 65,
                "velocity": 40,
                "duration": 0.09999999999999964,
                "tempo": 120.0
            },
            {
                "start_time": 8.618181818181817,
                "end_time": 8.718181818181817,
                "pitch": 67,
                "velocity": 40,
                "duration": 0.09999999999999964,
                "tempo": 120.0
            },
            {
                "start_time": 8.73409090909091,
                "end_time": 9.429545454545455,
                "pitch": 70,
                "velocity": 40,
                "duration": 0.6954545454545453,
                "tempo": 120.0
            },
            {
                "start_time": 9.447727272727272,
                "end_time": 9.547727272727272,
                "pitch": 65,
                "velocity": 40,
                "duration": 0.09999999999999964,
                "tempo": 120.0
            },
            {
                "start_time": 9.56590909090909,
                "end_time": 9.665909090909091,
                "pitch": 67,
                "velocity": 40,
                "duration": 0.10000000000000142,
                "tempo": 120.0
            },
            {
                "start_time": 9.681818181818182,
                "end_time": 9.922727272727272,
                "pitch": 70,
                "velocity": 40,
                "duration": 0.2409090909090903,
                "tempo": 120.0
            },
            {
                "start_time": 9.938636363636363,
                "end_time": 10.161363636363635,
                "pitch": 70,
                "velocity": 40,
                "duration": 0.22272727272727266,
                "tempo": 120.0
            },
            {
                "start_time": 10.177272727272726,
                "end_time": 10.395454545454545,
                "pitch": 67,
                "velocity": 40,
                "duration": 0.2181818181818187,
                "tempo": 120.0
            },
            {
                "start_time": 10.429545454545455,
                "end_time": 10.884090909090908,
                "pitch": 70,
                "velocity": 40,
                "duration": 0.45454545454545325,
                "tempo": 120.0
            },
            {
                "start_time": 10.9,
                "end_time": 11.134090909090908,
                "pitch": 70,
                "velocity": 40,
                "duration": 0.23409090909090757,
                "tempo": 120.0
            },
            {
                "start_time": 11.149999999999999,
                "end_time": 11.363636363636363,
                "pitch": 67,
                "velocity": 40,
                "duration": 0.21363636363636473,
                "tempo": 120.0
            },
            {
                "start_time": 11.379545454545454,
                "end_time": 11.593181818181817,
                "pitch": 65,
                "velocity": 40,
                "duration": 0.21363636363636296,
                "tempo": 120.0
            },
            {
                "start_time": 11.627272727272727,
                "end_time": 13.295454545454545,
                "pitch": 63,
                "velocity": 40,
                "duration": 1.668181818181818,
                "tempo": 120.0
            },
            {
                "start_time": 13.311363636363636,
                "end_time": 13.411363636363635,
                "pitch": 63,
                "velocity": 40,
                "duration": 0.09999999999999964,
                "tempo": 120.0
            },
            {
                "start_time": 13.445454545454545,
                "end_time": 13.545454545454545,
                "pitch": 65,
                "velocity": 40,
                "duration": 0.09999999999999964,
                "tempo": 120.0
            },
            {
                "start_time": 13.561363636363636,
                "end_time": 15.470454545454544,
                "pitch": 63,
                "velocity": 40,
                "duration": 1.9090909090909083,
                "tempo": 120.0
            },
            {
                "start_time": 15.488636363636363,
                "end_time": 15.95681818181818,
                "pitch": 63,
                "velocity": 40,
                "duration": 0.4681818181818169,
                "tempo": 120.0
            },
            {
                "start_time": 15.972727272727273,
                "end_time": 16.418181818181818,
                "pitch": 72,
                "velocity": 40,
                "duration": 0.4454545454545453,
                "tempo": 120.0
            },
            {
                "start_time": 16.45,
                "end_time": 16.9,
                "pitch": 67,
                "velocity": 40,
                "duration": 0.4499999999999993,
                "tempo": 120.0
            },
            {
                "start_time": 16.918181818181818,
                "end_time": 17.395454545454545,
                "pitch": 70,
                "velocity": 40,
                "duration": 0.4772727272727266,
                "tempo": 120.0
            },
            {
                "start_time": 17.411363636363635,
                "end_time": 17.513636363636362,
                "pitch": 79,
                "velocity": 40,
                "duration": 0.10227272727272663,
                "tempo": 120.0
            },
            {
                "start_time": 17.529545454545453,
                "end_time": 17.631818181818183,
                "pitch": 77,
                "velocity": 40,
                "duration": 0.10227272727273018,
                "tempo": 120.0
            },
            {
                "start_time": 17.663636363636364,
                "end_time": 17.76590909090909,
                "pitch": 73,
                "velocity": 40,
                "duration": 0.10227272727272663,
                "tempo": 120.0
            },
            {
                "start_time": 17.78181818181818,
                "end_time": 17.881818181818183,
                "pitch": 77,
                "velocity": 40,
                "duration": 0.10000000000000142,
                "tempo": 120.0
            },
            {
                "start_time": 17.9,
                "end_time": 18.002272727272725,
                "pitch": 73,
                "velocity": 40,
                "duration": 0.10227272727272663,
                "tempo": 120.0
            },
            {
                "start_time": 18.020454545454545,
                "end_time": 18.12272727272727,
                "pitch": 72,
                "velocity": 40,
                "duration": 0.10227272727272663,
                "tempo": 120.0
            },
            {
                "start_time": 18.138636363636362,
                "end_time": 18.24090909090909,
                "pitch": 72,
                "velocity": 40,
                "duration": 0.10227272727272663,
                "tempo": 120.0
            },
            {
                "start_time": 18.275,
                "end_time": 18.375,
                "pitch": 68,
                "velocity": 40,
                "duration": 0.10000000000000142,
                "tempo": 120.0
            },
            {
                "start_time": 18.39090909090909,
                "end_time": 18.488636363636363,
                "pitch": 72,
                "velocity": 40,
                "duration": 0.09772727272727266,
                "tempo": 120.0
            },
            {
                "start_time": 18.504545454545454,
                "end_time": 18.599999999999998,
                "pitch": 68,
                "velocity": 40,
                "duration": 0.0954545454545439,
                "tempo": 120.0
            },
            {
                "start_time": 18.61590909090909,
                "end_time": 18.711363636363636,
                "pitch": 73,
                "velocity": 40,
                "duration": 0.09545454545454746,
                "tempo": 120.0
            },
            {
                "start_time": 18.729545454545455,
                "end_time": 18.825,
                "pitch": 72,
                "velocity": 40,
                "duration": 0.0954545454545439,
                "tempo": 120.0
            },
            {
                "start_time": 18.85909090909091,
                "end_time": 18.959090909090907,
                "pitch": 68,
                "velocity": 40,
                "duration": 0.09999999999999787,
                "tempo": 120.0
            },
            {
                "start_time": 18.977272727272727,
                "end_time": 19.077272727272728,
                "pitch": 67,
                "velocity": 40,
                "duration": 0.10000000000000142,
                "tempo": 120.0
            },
            {
                "start_time": 19.095454545454544,
                "end_time": 19.195454545454545,
                "pitch": 65,
                "velocity": 40,
                "duration": 0.10000000000000142,
                "tempo": 120.0
            },
            {
                "start_time": 19.211363636363636,
                "end_time": 19.313636363636363,
                "pitch": 68,
                "velocity": 40,
                "duration": 0.10227272727272663,
                "tempo": 120.0
            },
            {
                "start_time": 19.329545454545453,
                "end_time": 19.80681818181818,
                "pitch": 65,
                "velocity": 40,
                "duration": 0.4772727272727266,
                "tempo": 120.0
            },
            {
                "start_time": 19.825,
                "end_time": 20.295454545454543,
                "pitch": 72,
                "velocity": 40,
                "duration": 0.4704545454545439,
                "tempo": 120.0
            },
            {
                "start_time": 20.311363636363634,
                "end_time": 20.78181818181818,
                "pitch": 67,
                "velocity": 40,
                "duration": 0.47045454545454746,
                "tempo": 120.0
            },
            {
                "start_time": 20.797727272727272,
                "end_time": 21.24090909090909,
                "pitch": 70,
                "velocity": 40,
                "duration": 0.44318181818181657,
                "tempo": 120.0
            },
            {
                "start_time": 21.275,
                "end_time": 21.729545454545452,
                "pitch": 63,
                "velocity": 40,
                "duration": 0.45454545454545325,
                "tempo": 120.0
            },
            {
                "start_time": 21.745454545454546,
                "end_time": 22.222727272727273,
                "pitch": 67,
                "velocity": 40,
                "duration": 0.4772727272727266,
                "tempo": 120.0
            },
            {
                "start_time": 22.24090909090909,
                "end_time": 23.204545454545453,
                "pitch": 60,
                "velocity": 40,
                "duration": 0.9636363636363647,
                "tempo": 120.0
            },
            {
                "start_time": 23.220454545454544,
                "end_time": 23.652272727272727,
                "pitch": 65,
                "velocity": 40,
                "duration": 0.43181818181818343,
                "tempo": 120.0
            },
            {
                "start_time": 23.686363636363634,
                "end_time": 24.14772727272727,
                "pitch": 72,
                "velocity": 40,
                "duration": 0.461363636363636,
                "tempo": 120.0
            },
            {
                "start_time": 24.16590909090909,
                "end_time": 24.636363636363637,
                "pitch": 67,
                "velocity": 40,
                "duration": 0.47045454545454746,
                "tempo": 120.0
            },
            {
                "start_time": 24.652272727272727,
                "end_time": 25.12272727272727,
                "pitch": 70,
                "velocity": 40,
                "duration": 0.4704545454545439,
                "tempo": 120.0
            },
            {
                "start_time": 25.138636363636362,
                "end_time": 25.24090909090909,
                "pitch": 79,
                "velocity": 40,
                "duration": 0.10227272727272663,
                "tempo": 120.0
            },
            {
                "start_time": 25.25681818181818,
                "end_time": 25.35681818181818,
                "pitch": 77,
                "velocity": 40,
                "duration": 0.10000000000000142,
                "tempo": 120.0
            },
            {
                "start_time": 25.375,
                "end_time": 25.474999999999998,
                "pitch": 73,
                "velocity": 40,
                "duration": 0.09999999999999787,
                "tempo": 120.0
            },
            {
                "start_time": 25.509090909090908,
                "end_time": 25.60909090909091,
                "pitch": 77,
                "velocity": 40,
                "duration": 0.10000000000000142,
                "tempo": 120.0
            },
            {
                "start_time": 25.625,
                "end_time": 25.722727272727273,
                "pitch": 73,
                "velocity": 40,
                "duration": 0.09772727272727266,
                "tempo": 120.0
            },
            {
                "start_time": 25.74090909090909,
                "end_time": 25.83863636363636,
                "pitch": 72,
                "velocity": 40,
                "duration": 0.09772727272727266,
                "tempo": 120.0
            },
            {
                "start_time": 25.854545454545452,
                "end_time": 25.954545454545453,
                "pitch": 72,
                "velocity": 40,
                "duration": 0.10000000000000142,
                "tempo": 120.0
            },
            {
                "start_time": 25.970454545454544,
                "end_time": 26.068181818181817,
                "pitch": 68,
                "velocity": 40,
                "duration": 0.09772727272727266,
                "tempo": 120.0
            },
            {
                "start_time": 26.102272727272727,
                "end_time": 26.202272727272724,
                "pitch": 72,
                "velocity": 40,
                "duration": 0.09999999999999787,
                "tempo": 120.0
            },
            {
                "start_time": 26.220454545454544,
                "end_time": 26.320454545454545,
                "pitch": 68,
                "velocity": 40,
                "duration": 0.10000000000000142,
                "tempo": 120.0
            },
            {
                "start_time": 26.336363636363636,
                "end_time": 26.438636363636363,
                "pitch": 73,
                "velocity": 40,
                "duration": 0.10227272727272663,
                "tempo": 120.0
            },
            {
                "start_time": 26.454545454545453,
                "end_time": 26.55681818181818,
                "pitch": 72,
                "velocity": 40,
                "duration": 0.10227272727272663,
                "tempo": 120.0
            },
            {
                "start_time": 26.57272727272727,
                "end_time": 26.674999999999997,
                "pitch": 68,
                "velocity": 40,
                "duration": 0.10227272727272663,
                "tempo": 120.0
            },
            {
                "start_time": 26.709090909090907,
                "end_time": 26.811363636363634,
                "pitch": 67,
                "velocity": 40,
                "duration": 0.10227272727272663,
                "tempo": 120.0
            },
            {
                "start_time": 26.829545454545453,
                "end_time": 26.93181818181818,
                "pitch": 65,
                "velocity": 40,
                "duration": 0.10227272727272663,
                "tempo": 120.0
            },
            {
                "start_time": 26.94772727272727,
                "end_time": 27.049999999999997,
                "pitch": 68,
                "velocity": 40,
                "duration": 0.10227272727272663,
                "tempo": 120.0
            },
            {
                "start_time": 27.068181818181817,
                "end_time": 27.534090909090907,
                "pitch": 65,
                "velocity": 40,
                "duration": 0.46590909090908994,
                "tempo": 120.0
            },
            {
                "start_time": 27.549999999999997,
                "end_time": 28.020454545454545,
                "pitch": 72,
                "velocity": 40,
                "duration": 0.47045454545454746,
                "tempo": 120.0
            },
            {
                "start_time": 28.036363636363635,
                "end_time": 28.479545454545452,
                "pitch": 67,
                "velocity": 40,
                "duration": 0.44318181818181657,
                "tempo": 120.0
            },
            {
                "start_time": 28.513636363636362,
                "end_time": 28.974999999999998,
                "pitch": 70,
                "velocity": 40,
                "duration": 0.461363636363636,
                "tempo": 120.0
            },
            {
                "start_time": 28.993181818181817,
                "end_time": 29.46363636363636,
                "pitch": 63,
                "velocity": 40,
                "duration": 0.4704545454545439,
                "tempo": 120.0
            },
            {
                "start_time": 29.479545454545452,
                "end_time": 29.9,
                "pitch": 67,
                "velocity": 40,
                "duration": 0.42045454545454675,
                "tempo": 120.0
            },
            {
                "start_time": 29.93181818181818,
                "end_time": 30.895454545454545,
                "pitch": 60,
                "velocity": 40,
                "duration": 0.9636363636363647,
                "tempo": 120.0
            },
            {
                "start_time": 30.929545454545455,
                "end_time": 31.029545454545453,
                "pitch": 84,
                "velocity": 40,
                "duration": 0.09999999999999787,
                "tempo": 120.0
            },
            {
                "start_time": 31.047727272727272,
                "end_time": 31.14772727272727,
                "pitch": 82,
                "velocity": 40,
                "duration": 0.09999999999999787,
                "tempo": 120.0
            },
            {
                "start_time": 31.16363636363636,
                "end_time": 31.384090909090908,
                "pitch": 85,
                "velocity": 40,
                "duration": 0.22045454545454746,
                "tempo": 120.0
            },
            {
                "start_time": 31.4,
                "end_time": 31.502272727272725,
                "pitch": 85,
                "velocity": 40,
                "duration": 0.10227272727272663,
                "tempo": 120.0
            },
            {
                "start_time": 31.536363636363635,
                "end_time": 31.638636363636362,
                "pitch": 85,
                "velocity": 40,
                "duration": 0.10227272727272663,
                "tempo": 120.0
            },
            {
                "start_time": 31.65681818181818,
                "end_time": 32.48409090909091,
                "pitch": 80,
                "velocity": 40,
                "duration": 0.827272727272728,
                "tempo": 120.0
            },
            {
                "start_time": 32.502272727272725,
                "end_time": 32.60454545454545,
                "pitch": 73,
                "velocity": 40,
                "duration": 0.10227272727272663,
                "tempo": 120.0
            },
            {
                "start_time": 32.62272727272727,
                "end_time": 32.725,
                "pitch": 68,
                "velocity": 40,
                "duration": 0.10227272727273373,
                "tempo": 120.0
            },
            {
                "start_time": 32.75909090909091,
                "end_time": 33.08181818181818,
                "pitch": 73,
                "velocity": 40,
                "duration": 0.32272727272727053,
                "tempo": 120.0
            },
            {
                "start_time": 33.1,
                "end_time": 33.195454545454545,
                "pitch": 60,
                "velocity": 40,
                "duration": 0.0954545454545439,
                "tempo": 120.0
            },
            {
                "start_time": 33.211363636363636,
                "end_time": 33.56363636363636,
                "pitch": 60,
                "velocity": 40,
                "duration": 0.3522727272727266,
                "tempo": 120.0
            },
            {
                "start_time": 33.58181818181818,
                "end_time": 34.04772727272727,
                "pitch": 61,
                "velocity": 40,
                "duration": 0.4659090909090935,
                "tempo": 120.0
            },
            {
                "start_time": 34.06363636363636,
                "end_time": 34.163636363636364,
                "pitch": 60,
                "velocity": 40,
                "duration": 0.10000000000000142,
                "tempo": 120.0
            },
            {
                "start_time": 34.179545454545455,
                "end_time": 34.39772727272727,
                "pitch": 69,
                "velocity": 40,
                "duration": 0.2181818181818187,
                "tempo": 120.0
            },
            {
                "start_time": 34.41590909090909,
                "end_time": 34.518181818181816,
                "pitch": 79,
                "velocity": 40,
                "duration": 0.10227272727272663,
                "tempo": 120.0
            },
            {
                "start_time": 34.55227272727272,
                "end_time": 34.654545454545456,
                "pitch": 61,
                "velocity": 40,
                "duration": 0.10227272727273373,
                "tempo": 120.0
            },
            {
                "start_time": 34.67045454545455,
                "end_time": 34.77272727272727,
                "pitch": 79,
                "velocity": 40,
                "duration": 0.10227272727272663,
                "tempo": 120.0
            },
            {
                "start_time": 34.79090909090909,
                "end_time": 34.89090909090909,
                "pitch": 85,
                "velocity": 40,
                "duration": 0.10000000000000142,
                "tempo": 120.0
            },
            {
                "start_time": 34.90681818181818,
                "end_time": 35.00681818181818,
                "pitch": 84,
                "velocity": 40,
                "duration": 0.10000000000000142,
                "tempo": 120.0
            },
            {
                "start_time": 35.02272727272727,
                "end_time": 35.25681818181818,
                "pitch": 82,
                "velocity": 40,
                "duration": 0.23409090909090935,
                "tempo": 120.0
            },
            {
                "start_time": 35.27272727272727,
                "end_time": 35.37045454545454,
                "pitch": 77,
                "velocity": 40,
                "duration": 0.09772727272726911,
                "tempo": 120.0
            },
            {
                "start_time": 35.38636363636363,
                "end_time": 35.486363636363635,
                "pitch": 77,
                "velocity": 40,
                "duration": 0.10000000000000142,
                "tempo": 120.0
            },
            {
                "start_time": 35.502272727272725,
                "end_time": 36.32272727272727,
                "pitch": 77,
                "velocity": 40,
                "duration": 0.8204545454545453,
                "tempo": 120.0
            },
            {
                "start_time": 36.35681818181818,
                "end_time": 36.45909090909091,
                "pitch": 72,
                "velocity": 40,
                "duration": 0.10227272727273373,
                "tempo": 120.0
            },
            {
                "start_time": 36.47727272727273,
                "end_time": 36.57954545454545,
                "pitch": 67,
                "velocity": 40,
                "duration": 0.10227272727272663,
                "tempo": 120.0
            },
            {
                "start_time": 36.595454545454544,
                "end_time": 36.93181818181818,
                "pitch": 72,
                "velocity": 40,
                "duration": 0.336363636363636,
                "tempo": 120.0
            },
            {
                "start_time": 36.96363636363636,
                "end_time": 37.413636363636364,
                "pitch": 65,
                "velocity": 40,
                "duration": 0.45000000000000284,
                "tempo": 120.0
            },
            {
                "start_time": 37.43181818181818,
                "end_time": 37.893181818181816,
                "pitch": 63,
                "velocity": 40,
                "duration": 0.461363636363636,
                "tempo": 120.0
            },
            {
                "start_time": 37.90909090909091,
                "end_time": 38.00909090909091,
                "pitch": 61,
                "velocity": 40,
                "duration": 0.10000000000000142,
                "tempo": 120.0
            },
            {
                "start_time": 38.025,
                "end_time": 38.25681818181818,
                "pitch": 65,
                "velocity": 40,
                "duration": 0.23181818181818414,
                "tempo": 120.0
            },
            {
                "start_time": 38.27272727272727,
                "end_time": 38.37272727272727,
                "pitch": 69,
                "velocity": 40,
                "duration": 0.09999999999999432,
                "tempo": 120.0
            },
            {
                "start_time": 38.39090909090909,
                "end_time": 38.49090909090909,
                "pitch": 65,
                "velocity": 40,
                "duration": 0.10000000000000142,
                "tempo": 120.0
            },
            {
                "start_time": 38.50681818181818,
                "end_time": 38.60681818181818,
                "pitch": 69,
                "velocity": 40,
                "duration": 0.09999999999999432,
                "tempo": 120.0
            },
            {
                "start_time": 38.62272727272727,
                "end_time": 38.72272727272727,
                "pitch": 84,
                "velocity": 40,
                "duration": 0.10000000000000142,
                "tempo": 120.0
            },
            {
                "start_time": 38.75681818181818,
                "end_time": 38.85681818181818,
                "pitch": 82,
                "velocity": 40,
                "duration": 0.09999999999999432,
                "tempo": 120.0
            },
            {
                "start_time": 38.87272727272727,
                "end_time": 39.090909090909086,
                "pitch": 85,
                "velocity": 40,
                "duration": 0.2181818181818187,
                "tempo": 120.0
            },
            {
                "start_time": 39.10681818181818,
                "end_time": 39.209090909090904,
                "pitch": 82,
                "velocity": 40,
                "duration": 0.10227272727272663,
                "tempo": 120.0
            },
            {
                "start_time": 39.22727272727273,
                "end_time": 39.32954545454545,
                "pitch": 82,
                "velocity": 40,
                "duration": 0.10227272727272663,
                "tempo": 120.0
            },
            {
                "start_time": 39.36363636363636,
                "end_time": 40.18636363636364,
                "pitch": 80,
                "velocity": 40,
                "duration": 0.8227272727272776,
                "tempo": 120.0
            },
            {
                "start_time": 40.20227272727273,
                "end_time": 40.30227272727272,
                "pitch": 73,
                "velocity": 40,
                "duration": 0.09999999999999432,
                "tempo": 120.0
            },
            {
                "start_time": 40.31818181818181,
                "end_time": 40.41590909090909,
                "pitch": 68,
                "velocity": 40,
                "duration": 0.09772727272727622,
                "tempo": 120.0
            },
            {
                "start_time": 40.43181818181818,
                "end_time": 40.78181818181818,
                "pitch": 73,
                "velocity": 40,
                "duration": 0.3500000000000014,
                "tempo": 120.0
            },
            {
                "start_time": 40.79772727272727,
                "end_time": 40.89772727272727,
                "pitch": 60,
                "velocity": 40,
                "duration": 0.10000000000000142,
                "tempo": 120.0
            },
            {
                "start_time": 40.913636363636364,
                "end_time": 41.27045454545454,
                "pitch": 60,
                "velocity": 40,
                "duration": 0.35681818181817704,
                "tempo": 120.0
            },
            {
                "start_time": 41.288636363636364,
                "end_time": 41.74318181818182,
                "pitch": 61,
                "velocity": 40,
                "duration": 0.45454545454545325,
                "tempo": 120.0
            },
            {
                "start_time": 41.777272727272724,
                "end_time": 42.11363636363636,
                "pitch": 60,
                "velocity": 40,
                "duration": 0.336363636363636,
                "tempo": 120.0
            },
            {
                "start_time": 42.12954545454545,
                "end_time": 42.23181818181818,
                "pitch": 79,
                "velocity": 40,
                "duration": 0.10227272727272663,
                "tempo": 120.0
            },
            {
                "start_time": 42.25,
                "end_time": 42.35227272727273,
                "pitch": 61,
                "velocity": 40,
                "duration": 0.10227272727272663,
                "tempo": 120.0
            },
            {
                "start_time": 42.38636363636363,
                "end_time": 42.486363636363635,
                "pitch": 79,
                "velocity": 40,
                "duration": 0.10000000000000142,
                "tempo": 120.0
            },
            {
                "start_time": 42.502272727272725,
                "end_time": 42.59772727272727,
                "pitch": 85,
                "velocity": 40,
                "duration": 0.0954545454545439,
                "tempo": 120.0
            },
            {
                "start_time": 42.61363636363636,
                "end_time": 42.711363636363636,
                "pitch": 84,
                "velocity": 40,
                "duration": 0.09772727272727622,
                "tempo": 120.0
            },
            {
                "start_time": 42.72727272727273,
                "end_time": 42.93636363636364,
                "pitch": 82,
                "velocity": 40,
                "duration": 0.20909090909091077,
                "tempo": 120.0
            },
            {
                "start_time": 42.970454545454544,
                "end_time": 43.07272727272727,
                "pitch": 77,
                "velocity": 40,
                "duration": 0.10227272727272663,
                "tempo": 120.0
            },
            {
                "start_time": 43.08863636363636,
                "end_time": 43.19090909090909,
                "pitch": 77,
                "velocity": 40,
                "duration": 0.10227272727272663,
                "tempo": 120.0
            },
            {
                "start_time": 43.209090909090904,
                "end_time": 44.025,
                "pitch": 77,
                "velocity": 40,
                "duration": 0.8159090909090949,
                "tempo": 120.0
            },
            {
                "start_time": 44.043181818181814,
                "end_time": 44.14545454545454,
                "pitch": 72,
                "velocity": 40,
                "duration": 0.10227272727272663,
                "tempo": 120.0
            },
            {
                "start_time": 44.179545454545455,
                "end_time": 44.28181818181818,
                "pitch": 65,
                "velocity": 40,
                "duration": 0.10227272727272663,
                "tempo": 120.0
            },
            {
                "start_time": 44.29772727272727,
                "end_time": 44.63409090909091,
                "pitch": 72,
                "velocity": 40,
                "duration": 0.336363636363636,
                "tempo": 120.0
            },
            {
                "start_time": 44.65,
                "end_time": 45.11363636363636,
                "pitch": 72,
                "velocity": 40,
                "duration": 0.4636363636363612,
                "tempo": 120.0
            },
            {
                "start_time": 45.12954545454545,
                "end_time": 45.595454545454544,
                "pitch": 63,
                "velocity": 40,
                "duration": 0.4659090909090935,
                "tempo": 120.0
            },
            {
                "start_time": 45.611363636363635,
                "end_time": 45.71363636363636,
                "pitch": 61,
                "velocity": 40,
                "duration": 0.10227272727272663,
                "tempo": 120.0
            },
            {
                "start_time": 45.72954545454545,
                "end_time": 45.83181818181818,
                "pitch": 65,
                "velocity": 40,
                "duration": 0.10227272727272663,
                "tempo": 120.0
            },
            {
                "start_time": 45.84772727272727,
                "end_time": 45.949999999999996,
                "pitch": 60,
                "velocity": 40,
                "duration": 0.10227272727272663,
                "tempo": 120.0
            },
            {
                "start_time": 45.98409090909091,
                "end_time": 46.086363636363636,
                "pitch": 69,
                "velocity": 40,
                "duration": 0.10227272727272663,
                "tempo": 120.0
            },
            {
                "start_time": 46.10454545454545,
                "end_time": 46.20681818181818,
                "pitch": 69,
                "velocity": 40,
                "duration": 0.10227272727272663,
                "tempo": 120.0
            },
            {
                "start_time": 46.22272727272727,
                "end_time": 46.29090909090909,
                "pitch": 69,
                "velocity": 40,
                "duration": 0.06818181818182012,
                "tempo": 120.0
            }
        ]
    }
}