{
    "track_id": "Shanghai (FM) - 04 - Music Type B",
    "mood": "happy",
    "instruments": {
        "Electric Guitar (clean)": [
            {
                "start_time": 0.859090909090909,
                "end_time": 1.0431818181818182,
                "pitch": 73,
                "velocity": 64,
                "duration": 0.1840909090909092,
                "tempo": 120.0
            },
            {
                "start_time": 1.0613636363636363,
                "end_time": 1.2613636363636362,
                "pitch": 71,
                "velocity": 64,
                "duration": 0.19999999999999996,
                "tempo": 120.0
            },
            {
                "start_time": 1.2954545454545454,
                "end_time": 1.7136363636363636,
                "pitch": 70,
                "velocity": 64,
                "duration": 0.4181818181818182,
                "tempo": 120.0
            },
            {
                "start_time": 1.7295454545454545,
                "end_time": 1.9136363636363636,
                "pitch": 70,
                "velocity": 64,
                "duration": 0.18409090909090908,
                "tempo": 120.0
            },
            {
                "start_time": 1.9477272727272725,
                "end_time": 2.131818181818182,
                "pitch": 70,
                "velocity": 64,
                "duration": 0.1840909090909093,
                "tempo": 120.0
            },
            {
                "start_time": 2.1477272727272725,
                "end_time": 2.5568181818181817,
                "pitch": 68,
                "velocity": 64,
                "duration": 0.40909090909090917,
                "tempo": 120.0
            },
            {
                "start_time": 2.590909090909091,
                "end_time": 2.8,
                "pitch": 68,
                "velocity": 64,
                "duration": 0.209090909090909,
                "tempo": 120.0
            },
            {
                "start_time": 2.818181818181818,
                "end_time": 3.009090909090909,
                "pitch": 68,
                "velocity": 64,
                "duration": 0.19090909090909092,
                "tempo": 120.0
            },
            {
                "start_time": 3.0454545454545454,
                "end_time": 4.3159090909090905,
                "pitch": 66,
                "velocity": 64,
                "duration": 1.270454545454545,
                "tempo": 120.0
            },
            {
                "start_time": 4.334090909090909,
                "end_time": 4.534090909090909,
                "pitch": 73,
                "velocity": 64,
                "duration": 0.20000000000000018,
                "tempo": 120.0
            },
            {
                "start_time": 4.55,
                "end_time": 4.752272727272727,
                "pitch": 71,
                "velocity": 64,
                "duration": 0.20227272727272716,
                "tempo": 120.0
            },
            {
                "start_time": 4.768181818181818,
                "end_time": 5.161363636363636,
                "pitch": 70,
                "velocity": 64,
                "duration": 0.3931818181818185,
                "tempo": 120.0
            },
            {
                "start_time": 5.211363636363636,
                "end_time": 5.388636363636364,
                "pitch": 70,
                "velocity": 64,
                "duration": 0.1772727272727277,
                "tempo": 120.0
            },
            {
                "start_time": 5.425,
                "end_time": 5.640909090909091,
                "pitch": 70,
                "velocity": 64,
                "duration": 0.21590909090909083,
                "tempo": 120.0
            },
            {
                "start_time": 5.656818181818181,
                "end_time": 6.054545454545455,
                "pitch": 68,
                "velocity": 64,
                "duration": 0.3977272727272734,
                "tempo": 120.0
            },
            {
                "start_time": 6.070454545454545,
                "end_time": 6.259090909090909,
                "pitch": 68,
                "velocity": 64,
                "duration": 0.1886363636363635,
                "tempo": 120.0
            },
            {
                "start_time": 6.293181818181818,
                "end_time": 6.4818181818181815,
                "pitch": 68,
                "velocity": 64,
                "duration": 0.1886363636363635,
                "tempo": 120.0
            },
            {
                "start_time": 6.5,
                "end_time": 7.797727272727272,
                "pitch": 66,
                "velocity": 64,
                "duration": 1.297727272727272,
                "tempo": 120.0
            },
            {
                "start_time": 7.8136363636363635,
                "end_time": 8.011363636363637,
                "pitch": 73,
                "velocity": 64,
                "duration": 0.1977272727272732,
                "tempo": 120.0
            },
            {
                "start_time": 8.043181818181818,
                "end_time": 8.24090909090909,
                "pitch": 71,
                "velocity": 64,
                "duration": 0.1977272727272723,
                "tempo": 120.0
            },
            {
                "start_time": 8.256818181818181,
                "end_time": 8.659090909090908,
                "pitch": 70,
                "velocity": 64,
                "duration": 0.40227272727272734,
                "tempo": 120.0
            },
            {
                "start_time": 8.674999999999999,
                "end_time": 8.875,
                "pitch": 70,
                "velocity": 64,
                "duration": 0.20000000000000107,
                "tempo": 120.0
            },
            {
                "start_time": 8.893181818181818,
                "end_time": 9.093181818181817,
                "pitch": 70,
                "velocity": 64,
                "duration": 0.1999999999999993,
                "tempo": 120.0
            },
            {
                "start_time": 9.10909090909091,
                "end_time": 9.511363636363637,
                "pitch": 68,
                "velocity": 64,
                "duration": 0.40227272727272734,
                "tempo": 120.0
            },
            {
                "start_time": 9.561363636363636,
                "end_time": 9.759090909090908,
                "pitch": 68,
                "velocity": 64,
                "duration": 0.1977272727272723,
                "tempo": 120.0
            },
            {
                "start_time": 9.777272727272727,
                "end_time": 9.99090909090909,
                "pitch": 68,
                "velocity": 64,
                "duration": 0.21363636363636296,
                "tempo": 120.0
            },
            {
                "start_time": 10.009090909090908,
                "end_time": 11.295454545454545,
                "pitch": 66,
                "velocity": 64,
                "duration": 1.286363636363637,
                "tempo": 120.0
            },
            {
                "start_time": 11.311363636363636,
                "end_time": 11.509090909090908,
                "pitch": 73,
                "velocity": 64,
                "duration": 0.1977272727272723,
                "tempo": 120.0
            },
            {
                "start_time": 11.524999999999999,
                "end_time": 11.704545454545453,
                "pitch": 71,
                "velocity": 64,
                "duration": 0.17954545454545467,
                "tempo": 120.0
            },
            {
                "start_time": 11.738636363636363,
                "end_time": 12.147727272727272,
                "pitch": 70,
                "velocity": 64,
                "duration": 0.4090909090909083,
                "tempo": 120.0
            },
            {
                "start_time": 12.181818181818182,
                "end_time": 12.384090909090908,
                "pitch": 70,
                "velocity": 64,
                "duration": 0.20227272727272627,
                "tempo": 120.0
            },
            {
                "start_time": 12.399999999999999,
                "end_time": 12.6,
                "pitch": 70,
                "velocity": 64,
                "duration": 0.20000000000000107,
                "tempo": 120.0
            },
            {
                "start_time": 12.618181818181817,
                "end_time": 13.011363636363635,
                "pitch": 68,
                "velocity": 64,
                "duration": 0.39318181818181763,
                "tempo": 120.0
            },
            {
                "start_time": 13.027272727272727,
                "end_time": 13.227272727272727,
                "pitch": 68,
                "velocity": 64,
                "duration": 0.1999999999999993,
                "tempo": 120.0
            },
            {
                "start_time": 13.243181818181817,
                "end_time": 13.445454545454545,
                "pitch": 68,
                "velocity": 64,
                "duration": 0.20227272727272805,
                "tempo": 120.0
            },
            {
                "start_time": 13.479545454545454,
                "end_time": 13.879545454545454,
                "pitch": 66,
                "velocity": 64,
                "duration": 0.40000000000000036,
                "tempo": 120.0
            },
            {
                "start_time": 13.913636363636362,
                "end_time": 14.102272727272727,
                "pitch": 45,
                "velocity": 64,
                "duration": 0.18863636363636438,
                "tempo": 120.0
            },
            {
                "start_time": 14.118181818181817,
                "end_time": 15.64090909090909,
                "pitch": 45,
                "velocity": 64,
                "duration": 1.5227272727272734,
                "tempo": 120.0
            },
            {
                "start_time": 15.656818181818181,
                "end_time": 15.861363636363636,
                "pitch": 47,
                "velocity": 64,
                "duration": 0.20454545454545503,
                "tempo": 120.0
            },
            {
                "start_time": 15.879545454545454,
                "end_time": 17.37272727272727,
                "pitch": 47,
                "velocity": 64,
                "duration": 1.4931818181818173,
                "tempo": 120.0
            },
            {
                "start_time": 17.39090909090909,
                "end_time": 17.59090909090909,
                "pitch": 45,
                "velocity": 64,
                "duration": 0.1999999999999993,
                "tempo": 120.0
            },
            {
                "start_time": 17.625,
                "end_time": 19.129545454545454,
                "pitch": 45,
                "velocity": 64,
                "duration": 1.504545454545454,
                "tempo": 120.0
            },
            {
                "start_time": 19.147727272727273,
                "end_time": 19.334090909090907,
                "pitch": 42,
                "velocity": 64,
                "duration": 0.18636363636363384,
                "tempo": 120.0
            },
            {
                "start_time": 19.370454545454546,
                "end_time": 20.88181818181818,
                "pitch": 42,
                "velocity": 64,
                "duration": 1.5113636363636331,
                "tempo": 120.0
            },
            {
                "start_time": 20.9,
                "end_time": 21.095454545454544,
                "pitch": 45,
                "velocity": 64,
                "duration": 0.19545454545454533,
                "tempo": 120.0
            },
            {
                "start_time": 21.111363636363635,
                "end_time": 22.58863636363636,
                "pitch": 45,
                "velocity": 64,
                "duration": 1.4772727272727266,
                "tempo": 120.0
            },
            {
                "start_time": 22.620454545454546,
                "end_time": 22.813636363636363,
                "pitch": 47,
                "velocity": 64,
                "duration": 0.19318181818181657,
                "tempo": 120.0
            },
            {
                "start_time": 22.831818181818182,
                "end_time": 24.347727272727273,
                "pitch": 47,
                "velocity": 64,
                "duration": 1.5159090909090907,
                "tempo": 120.0
            },
            {
                "start_time": 24.38181818181818,
                "end_time": 24.59090909090909,
                "pitch": 45,
                "velocity": 64,
                "duration": 0.20909090909091077,
                "tempo": 120.0
            },
            {
                "start_time": 24.60681818181818,
                "end_time": 26.10681818181818,
                "pitch": 45,
                "velocity": 64,
                "duration": 1.5,
                "tempo": 120.0
            },
            {
                "start_time": 26.125,
                "end_time": 26.320454545454545,
                "pitch": 42,
                "velocity": 64,
                "duration": 0.19545454545454533,
                "tempo": 120.0
            },
            {
                "start_time": 26.336363636363636,
                "end_time": 27.847727272727273,
                "pitch": 42,
                "velocity": 64,
                "duration": 1.5113636363636367,
                "tempo": 120.0
            },
            {
                "start_time": 27.86590909090909,
                "end_time": 28.052272727272726,
                "pitch": 45,
                "velocity": 64,
                "duration": 0.1863636363636374,
                "tempo": 120.0
            },
            {
                "start_time": 28.086363636363636,
                "end_time": 29.581818181818182,
                "pitch": 45,
                "velocity": 64,
                "duration": 1.495454545454546,
                "tempo": 120.0
            },
            {
                "start_time": 29.597727272727273,
                "end_time": 29.795454545454543,
                "pitch": 47,
                "velocity": 64,
                "duration": 0.19772727272727053,
                "tempo": 120.0
            },
            {
                "start_time": 29.827272727272724,
                "end_time": 31.304545454545455,
                "pitch": 47,
                "velocity": 64,
                "duration": 1.4772727272727302,
                "tempo": 120.0
            },
            {
                "start_time": 31.354545454545452,
                "end_time": 31.543181818181818,
                "pitch": 45,
                "velocity": 64,
                "duration": 0.18863636363636616,
                "tempo": 120.0
            },
            {
                "start_time": 31.561363636363634,
                "end_time": 33.07272727272727,
                "pitch": 45,
                "velocity": 64,
                "duration": 1.5113636363636367,
                "tempo": 120.0
            },
            {
                "start_time": 33.08863636363636,
                "end_time": 33.293181818181814,
                "pitch": 42,
                "velocity": 64,
                "duration": 0.20454545454545325,
                "tempo": 120.0
            },
            {
                "start_time": 33.31136363636364,
                "end_time": 34.81363636363636,
                "pitch": 42,
                "velocity": 64,
                "duration": 1.5022727272727252,
                "tempo": 120.0
            },
            {
                "start_time": 34.83181818181818,
                "end_time": 35.027272727272724,
                "pitch": 45,
                "velocity": 64,
                "duration": 0.19545454545454533,
                "tempo": 120.0
            },
            {
                "start_time": 35.043181818181814,
                "end_time": 36.54545454545455,
                "pitch": 45,
                "velocity": 64,
                "duration": 1.5022727272727323,
                "tempo": 120.0
            },
            {
                "start_time": 36.57954545454545,
                "end_time": 36.75454545454545,
                "pitch": 47,
                "velocity": 64,
                "duration": 0.17499999999999716,
                "tempo": 120.0
            },
            {
                "start_time": 36.80681818181818,
                "end_time": 38.30227272727272,
                "pitch": 47,
                "velocity": 64,
                "duration": 1.4954545454545425,
                "tempo": 120.0
            },
            {
                "start_time": 38.31818181818181,
                "end_time": 38.52045454545454,
                "pitch": 45,
                "velocity": 64,
                "duration": 0.20227272727272805,
                "tempo": 120.0
            },
            {
                "start_time": 38.53636363636363,
                "end_time": 40.025,
                "pitch": 45,
                "velocity": 64,
                "duration": 1.4886363636363669,
                "tempo": 120.0
            },
            {
                "start_time": 40.059090909090905,
                "end_time": 40.252272727272725,
                "pitch": 42,
                "velocity": 64,
                "duration": 0.19318181818182012,
                "tempo": 120.0
            },
            {
                "start_time": 40.268181818181816,
                "end_time": 41.77272727272727,
                "pitch": 42,
                "velocity": 64,
                "duration": 1.5045454545454575,
                "tempo": 120.0
            },
            {
                "start_time": 41.79090909090909,
                "end_time": 41.99090909090909,
                "pitch": 40,
                "velocity": 64,
                "duration": 0.20000000000000284,
                "tempo": 120.0
            },
            {
                "start_time": 42.025,
                "end_time": 42.19090909090909,
                "pitch": 40,
                "velocity": 64,
                "duration": 0.16590909090908923,
                "tempo": 120.0
            },
            {
                "start_time": 43.518181818181816,
                "end_time": 43.72954545454545,
                "pitch": 42,
                "velocity": 64,
                "duration": 0.21136363636363598,
                "tempo": 120.0
            },
            {
                "start_time": 43.74545454545454,
                "end_time": 43.95681818181818,
                "pitch": 42,
                "velocity": 64,
                "duration": 0.21136363636363598,
                "tempo": 120.0
            },
            {
                "start_time": 45.288636363636364,
                "end_time": 45.47272727272727,
                "pitch": 40,
                "velocity": 64,
                "duration": 0.18409090909090509,
                "tempo": 120.0
            },
            {
                "start_time": 45.50681818181818,
                "end_time": 45.69090909090909,
                "pitch": 40,
                "velocity": 64,
                "duration": 0.18409090909090509,
                "tempo": 120.0
            },
            {
                "start_time": 47.002272727272725,
                "end_time": 47.20454545454545,
                "pitch": 42,
                "velocity": 64,
                "duration": 0.20227272727272805,
                "tempo": 120.0
            },
            {
                "start_time": 47.220454545454544,
                "end_time": 47.42045454545454,
                "pitch": 42,
                "velocity": 64,
                "duration": 0.19999999999999574,
                "tempo": 120.0
            },
            {
                "start_time": 48.777272727272724,
                "end_time": 48.94772727272727,
                "pitch": 40,
                "velocity": 64,
                "duration": 0.17045454545454675,
                "tempo": 120.0
            },
            {
                "start_time": 48.98181818181818,
                "end_time": 49.18863636363636,
                "pitch": 40,
                "velocity": 64,
                "duration": 0.20681818181818556,
                "tempo": 120.0
            },
            {
                "start_time": 50.490909090909085,
                "end_time": 50.699999999999996,
                "pitch": 42,
                "velocity": 64,
                "duration": 0.20909090909091077,
                "tempo": 120.0
            },
            {
                "start_time": 50.71818181818182,
                "end_time": 50.90909090909091,
                "pitch": 42,
                "velocity": 64,
                "duration": 0.1909090909090878,
                "tempo": 120.0
            },
            {
                "start_time": 52.252272727272725,
                "end_time": 52.44318181818181,
                "pitch": 40,
                "velocity": 64,
                "duration": 0.1909090909090878,
                "tempo": 120.0
            },
            {
                "start_time": 52.459090909090904,
                "end_time": 52.65,
                "pitch": 40,
                "velocity": 64,
                "duration": 0.19090909090909491,
                "tempo": 120.0
            },
            {
                "start_time": 53.96818181818182,
                "end_time": 54.15681818181818,
                "pitch": 42,
                "velocity": 64,
                "duration": 0.1886363636363626,
                "tempo": 120.0
            },
            {
                "start_time": 54.209090909090904,
                "end_time": 54.37954545454545,
                "pitch": 42,
                "velocity": 64,
                "duration": 0.17045454545454675,
                "tempo": 120.0
            },
            {
                "start_time": 55.73863636363636,
                "end_time": 57.0,
                "pitch": 45,
                "velocity": 64,
                "duration": 1.2613636363636402,
                "tempo": 120.0
            },
            {
                "start_time": 57.03409090909091,
                "end_time": 57.461363636363636,
                "pitch": 45,
                "velocity": 64,
                "duration": 0.42727272727272947,
                "tempo": 120.0
            },
            {
                "start_time": 57.49772727272727,
                "end_time": 58.768181818181816,
                "pitch": 42,
                "velocity": 64,
                "duration": 1.2704545454545482,
                "tempo": 120.0
            },
            {
                "start_time": 58.78636363636363,
                "end_time": 59.20454545454545,
                "pitch": 40,
                "velocity": 64,
                "duration": 0.41818181818182154,
                "tempo": 120.0
            },
            {
                "start_time": 59.220454545454544,
                "end_time": 60.51136363636363,
                "pitch": 45,
                "velocity": 64,
                "duration": 1.2909090909090892,
                "tempo": 120.0
            },
            {
                "start_time": 60.527272727272724,
                "end_time": 60.929545454545455,
                "pitch": 45,
                "velocity": 64,
                "duration": 0.4022727272727309,
                "tempo": 120.0
            },
            {
                "start_time": 60.945454545454545,
                "end_time": 62.24318181818182,
                "pitch": 42,
                "velocity": 64,
                "duration": 1.297727272727272,
                "tempo": 120.0
            },
            {
                "start_time": 62.26136363636363,
                "end_time": 62.695454545454545,
                "pitch": 42,
                "velocity": 64,
                "duration": 0.4340909090909122,
                "tempo": 120.0
            },
            {
                "start_time": 62.711363636363636,
                "end_time": 63.96818181818181,
                "pitch": 45,
                "velocity": 64,
                "duration": 1.2568181818181756,
                "tempo": 120.0
            },
            {
                "start_time": 64.01818181818182,
                "end_time": 64.42727272727272,
                "pitch": 45,
                "velocity": 64,
                "duration": 0.4090909090909065,
                "tempo": 120.0
            },
            {
                "start_time": 64.44545454545454,
                "end_time": 65.73409090909091,
                "pitch": 42,
                "velocity": 64,
                "duration": 1.2886363636363711,
                "tempo": 120.0
            },
            {
                "start_time": 65.75,
                "end_time": 66.16136363636363,
                "pitch": 42,
                "velocity": 64,
                "duration": 0.4113636363636317,
                "tempo": 120.0
            },
            {
                "start_time": 66.19545454545454,
                "end_time": 67.4659090909091,
                "pitch": 45,
                "velocity": 64,
                "duration": 1.2704545454545553,
                "tempo": 120.0
            },
            {
                "start_time": 67.48409090909091,
                "end_time": 67.90227272727273,
                "pitch": 45,
                "velocity": 64,
                "duration": 0.41818181818182154,
                "tempo": 120.0
            },
            {
                "start_time": 67.93636363636364,
                "end_time": 69.20681818181818,
                "pitch": 42,
                "velocity": 64,
                "duration": 1.270454545454541,
                "tempo": 120.0
            },
            {
                "start_time": 69.24090909090908,
                "end_time": 69.66818181818182,
                "pitch": 42,
                "velocity": 64,
                "duration": 0.4272727272727366,
                "tempo": 120.0
            }
        ],
        "Clarinet": [
            {
                "start_time": 0.015909090909090907,
                "end_time": 0.4159090909090909,
                "pitch": 54,
                "velocity": 64,
                "duration": 0.39999999999999997,
                "tempo": 120.0
            },
            {
                "start_time": 0.4340909090909091,
                "end_time": 0.8272727272727273,
                "pitch": 54,
                "velocity": 64,
                "duration": 0.3931818181818182,
                "tempo": 120.0
            },
            {
                "start_time": 0.859090909090909,
                "end_time": 3.4454545454545453,
                "pitch": 78,
                "velocity": 64,
                "duration": 2.5863636363636364,
                "tempo": 120.0
            },
            {
                "start_time": 3.4636363636363634,
                "end_time": 3.8727272727272726,
                "pitch": 54,
                "velocity": 64,
                "duration": 0.40909090909090917,
                "tempo": 120.0
            },
            {
                "start_time": 3.9068181818181817,
                "end_time": 4.3159090909090905,
                "pitch": 54,
                "velocity": 64,
                "duration": 0.4090909090909087,
                "tempo": 120.0
            },
            {
                "start_time": 4.334090909090909,
                "end_time": 6.925,
                "pitch": 83,
                "velocity": 64,
                "duration": 2.590909090909091,
                "tempo": 120.0
            },
            {
                "start_time": 6.9409090909090905,
                "end_time": 7.352272727272727,
                "pitch": 54,
                "velocity": 64,
                "duration": 0.41136363636363615,
                "tempo": 120.0
            },
            {
                "start_time": 7.386363636363636,
                "end_time": 7.797727272727272,
                "pitch": 54,
                "velocity": 64,
                "duration": 0.41136363636363615,
                "tempo": 120.0
            },
            {
                "start_time": 7.8136363636363635,
                "end_time": 10.406818181818181,
                "pitch": 78,
                "velocity": 64,
                "duration": 2.593181818181818,
                "tempo": 120.0
            },
            {
                "start_time": 10.422727272727272,
                "end_time": 10.825,
                "pitch": 54,
                "velocity": 64,
                "duration": 0.40227272727272734,
                "tempo": 120.0
            },
            {
                "start_time": 10.85909090909091,
                "end_time": 11.295454545454545,
                "pitch": 54,
                "velocity": 64,
                "duration": 0.4363636363636356,
                "tempo": 120.0
            },
            {
                "start_time": 11.311363636363636,
                "end_time": 13.879545454545454,
                "pitch": 83,
                "velocity": 64,
                "duration": 2.5681818181818183,
                "tempo": 120.0
            },
            {
                "start_time": 13.913636363636362,
                "end_time": 14.102272727272727,
                "pitch": 52,
                "velocity": 64,
                "duration": 0.18863636363636438,
                "tempo": 120.0
            },
            {
                "start_time": 14.118181818181817,
                "end_time": 15.64090909090909,
                "pitch": 52,
                "velocity": 64,
                "duration": 1.5227272727272734,
                "tempo": 120.0
            },
            {
                "start_time": 15.656818181818181,
                "end_time": 15.861363636363636,
                "pitch": 54,
                "velocity": 64,
                "duration": 0.20454545454545503,
                "tempo": 120.0
            },
            {
                "start_time": 15.879545454545454,
                "end_time": 17.37272727272727,
                "pitch": 54,
                "velocity": 64,
                "duration": 1.4931818181818173,
                "tempo": 120.0
            },
            {
                "start_time": 17.39090909090909,
                "end_time": 17.59090909090909,
                "pitch": 52,
                "velocity": 64,
                "duration": 0.1999999999999993,
                "tempo": 120.0
            },
            {
                "start_time": 17.625,
                "end_time": 19.129545454545454,
                "pitch": 52,
                "velocity": 64,
                "duration": 1.504545454545454,
                "tempo": 120.0
            },
            {
                "start_time": 19.147727272727273,
                "end_time": 19.334090909090907,
                "pitch": 49,
                "velocity": 64,
                "duration": 0.18636363636363384,
                "tempo": 120.0
            },
            {
                "start_time": 19.370454545454546,
                "end_time": 20.88181818181818,
                "pitch": 49,
                "velocity": 64,
                "duration": 1.5113636363636331,
                "tempo": 120.0
            },
            {
                "start_time": 20.9,
                "end_time": 21.095454545454544,
                "pitch": 52,
                "velocity": 64,
                "duration": 0.19545454545454533,
                "tempo": 120.0
            },
            {
                "start_time": 21.111363636363635,
                "end_time": 22.58863636363636,
                "pitch": 52,
                "velocity": 64,
                "duration": 1.4772727272727266,
                "tempo": 120.0
            },
            {
                "start_time": 22.620454545454546,
                "end_time": 22.813636363636363,
                "pitch": 54,
                "velocity": 64,
                "duration": 0.19318181818181657,
                "tempo": 120.0
            },
            {
                "start_time": 22.831818181818182,
                "end_time": 24.347727272727273,
                "pitch": 54,
                "velocity": 64,
                "duration": 1.5159090909090907,
                "tempo": 120.0
            },
            {
                "start_time": 24.38181818181818,
                "end_time": 24.59090909090909,
                "pitch": 52,
                "velocity": 64,
                "duration": 0.20909090909091077,
                "tempo": 120.0
            },
            {
                "start_time": 24.60681818181818,
                "end_time": 26.10681818181818,
                "pitch": 52,
                "velocity": 64,
                "duration": 1.5,
                "tempo": 120.0
            },
            {
                "start_time": 26.125,
                "end_time": 26.320454545454545,
                "pitch": 49,
                "velocity": 64,
                "duration": 0.19545454545454533,
                "tempo": 120.0
            },
            {
                "start_time": 26.336363636363636,
                "end_time": 27.847727272727273,
                "pitch": 49,
                "velocity": 64,
                "duration": 1.5113636363636367,
                "tempo": 120.0
            },
            {
                "start_time": 27.86590909090909,
                "end_time": 28.052272727272726,
                "pitch": 52,
                "velocity": 64,
                "duration": 0.1863636363636374,
                "tempo": 120.0
            },
            {
                "start_time": 28.086363636363636,
                "end_time": 29.581818181818182,
                "pitch": 52,
                "velocity": 64,
                "duration": 1.495454545454546,
                "tempo": 120.0
            },
            {
                "start_time": 29.597727272727273,
                "end_time": 29.795454545454543,
                "pitch": 54,
                "velocity": 64,
                "duration": 0.19772727272727053,
                "tempo": 120.0
            },
            {
                "start_time": 29.827272727272724,
                "end_time": 31.304545454545455,
                "pitch": 54,
                "velocity": 64,
                "duration": 1.4772727272727302,
                "tempo": 120.0
            },
            {
                "start_time": 31.354545454545452,
                "end_time": 31.543181818181818,
                "pitch": 52,
                "velocity": 64,
                "duration": 0.18863636363636616,
                "tempo": 120.0
            },
            {
                "start_time": 31.561363636363634,
                "end_time": 33.07272727272727,
                "pitch": 52,
                "velocity": 64,
                "duration": 1.5113636363636367,
                "tempo": 120.0
            },
            {
                "start_time": 33.08863636363636,
                "end_time": 33.293181818181814,
                "pitch": 49,
                "velocity": 64,
                "duration": 0.20454545454545325,
                "tempo": 120.0
            },
            {
                "start_time": 33.31136363636364,
                "end_time": 34.81363636363636,
                "pitch": 49,
                "velocity": 64,
                "duration": 1.5022727272727252,
                "tempo": 120.0
            },
            {
                "start_time": 34.83181818181818,
                "end_time": 35.027272727272724,
                "pitch": 52,
                "velocity": 64,
                "duration": 0.19545454545454533,
                "tempo": 120.0
            },
            {
                "start_time": 35.043181818181814,
                "end_time": 36.54545454545455,
                "pitch": 52,
                "velocity": 64,
                "duration": 1.5022727272727323,
                "tempo": 120.0
            },
            {
                "start_time": 36.57954545454545,
                "end_time": 36.75454545454545,
                "pitch": 54,
                "velocity": 64,
                "duration": 0.17499999999999716,
                "tempo": 120.0
            },
            {
                "start_time": 36.80681818181818,
                "end_time": 38.30227272727272,
                "pitch": 54,
                "velocity": 64,
                "duration": 1.4954545454545425,
                "tempo": 120.0
            },
            {
                "start_time": 38.31818181818181,
                "end_time": 38.52045454545454,
                "pitch": 52,
                "velocity": 64,
                "duration": 0.20227272727272805,
                "tempo": 120.0
            },
            {
                "start_time": 38.53636363636363,
                "end_time": 40.025,
                "pitch": 52,
                "velocity": 64,
                "duration": 1.4886363636363669,
                "tempo": 120.0
            },
            {
                "start_time": 40.059090909090905,
                "end_time": 40.252272727272725,
                "pitch": 49,
                "velocity": 64,
                "duration": 0.19318181818182012,
                "tempo": 120.0
            },
            {
                "start_time": 40.268181818181816,
                "end_time": 41.77272727272727,
                "pitch": 49,
                "velocity": 64,
                "duration": 1.5045454545454575,
                "tempo": 120.0
            },
            {
                "start_time": 41.79090909090909,
                "end_time": 41.99090909090909,
                "pitch": 47,
                "velocity": 64,
                "duration": 0.20000000000000284,
                "tempo": 120.0
            },
            {
                "start_time": 42.025,
                "end_time": 42.19090909090909,
                "pitch": 47,
                "velocity": 64,
                "duration": 0.16590909090908923,
                "tempo": 120.0
            },
            {
                "start_time": 42.24090909090909,
                "end_time": 42.429545454545455,
                "pitch": 59,
                "velocity": 64,
                "duration": 0.1886363636363626,
                "tempo": 120.0
            },
            {
                "start_time": 42.44772727272727,
                "end_time": 42.652272727272724,
                "pitch": 61,
                "velocity": 64,
                "duration": 0.20454545454545325,
                "tempo": 120.0
            },
            {
                "start_time": 42.668181818181814,
                "end_time": 42.85909090909091,
                "pitch": 64,
                "velocity": 64,
                "duration": 0.19090909090909491,
                "tempo": 120.0
            },
            {
                "start_time": 42.875,
                "end_time": 43.06590909090909,
                "pitch": 66,
                "velocity": 64,
                "duration": 0.1909090909090878,
                "tempo": 120.0
            },
            {
                "start_time": 43.084090909090904,
                "end_time": 43.268181818181816,
                "pitch": 78,
                "velocity": 64,
                "duration": 0.1840909090909122,
                "tempo": 120.0
            },
            {
                "start_time": 43.31818181818181,
                "end_time": 43.486363636363635,
                "pitch": 78,
                "velocity": 64,
                "duration": 0.16818181818182154,
                "tempo": 120.0
            },
            {
                "start_time": 43.518181818181816,
                "end_time": 43.72954545454545,
                "pitch": 49,
                "velocity": 64,
                "duration": 0.21136363636363598,
                "tempo": 120.0
            },
            {
                "start_time": 43.74545454545454,
                "end_time": 43.95681818181818,
                "pitch": 49,
                "velocity": 64,
                "duration": 0.21136363636363598,
                "tempo": 120.0
            },
            {
                "start_time": 43.97272727272727,
                "end_time": 44.179545454545455,
                "pitch": 71,
                "velocity": 64,
                "duration": 0.20681818181818556,
                "tempo": 120.0
            },
            {
                "start_time": 44.195454545454545,
                "end_time": 44.38409090909091,
                "pitch": 69,
                "velocity": 64,
                "duration": 0.1886363636363626,
                "tempo": 120.0
            },
            {
                "start_time": 44.418181818181814,
                "end_time": 44.60227272727273,
                "pitch": 64,
                "velocity": 64,
                "duration": 0.1840909090909122,
                "tempo": 120.0
            },
            {
                "start_time": 44.61818181818182,
                "end_time": 44.820454545454545,
                "pitch": 78,
                "velocity": 64,
                "duration": 0.20227272727272805,
                "tempo": 120.0
            },
            {
                "start_time": 44.85227272727273,
                "end_time": 45.054545454545455,
                "pitch": 76,
                "velocity": 64,
                "duration": 0.20227272727272805,
                "tempo": 120.0
            },
            {
                "start_time": 45.070454545454545,
                "end_time": 45.27272727272727,
                "pitch": 78,
                "velocity": 64,
                "duration": 0.20227272727272805,
                "tempo": 120.0
            },
            {
                "start_time": 45.288636363636364,
                "end_time": 45.47272727272727,
                "pitch": 47,
                "velocity": 64,
                "duration": 0.18409090909090509,
                "tempo": 120.0
            },
            {
                "start_time": 45.50681818181818,
                "end_time": 45.69090909090909,
                "pitch": 47,
                "velocity": 64,
                "duration": 0.18409090909090509,
                "tempo": 120.0
            },
            {
                "start_time": 45.70681818181818,
                "end_time": 45.902272727272724,
                "pitch": 59,
                "velocity": 64,
                "duration": 0.19545454545454533,
                "tempo": 120.0
            },
            {
                "start_time": 45.92045454545455,
                "end_time": 46.11590909090909,
                "pitch": 61,
                "velocity": 64,
                "duration": 0.19545454545454533,
                "tempo": 120.0
            },
            {
                "start_time": 46.15,
                "end_time": 46.345454545454544,
                "pitch": 64,
                "velocity": 64,
                "duration": 0.19545454545454533,
                "tempo": 120.0
            },
            {
                "start_time": 46.361363636363635,
                "end_time": 46.543181818181814,
                "pitch": 66,
                "velocity": 64,
                "duration": 0.18181818181817988,
                "tempo": 120.0
            },
            {
                "start_time": 46.574999999999996,
                "end_time": 46.76363636363636,
                "pitch": 78,
                "velocity": 64,
                "duration": 0.1886363636363626,
                "tempo": 120.0
            },
            {
                "start_time": 46.78181818181818,
                "end_time": 46.986363636363635,
                "pitch": 78,
                "velocity": 64,
                "duration": 0.20454545454545325,
                "tempo": 120.0
            },
            {
                "start_time": 47.002272727272725,
                "end_time": 47.20454545454545,
                "pitch": 49,
                "velocity": 64,
                "duration": 0.20227272727272805,
                "tempo": 120.0
            },
            {
                "start_time": 47.220454545454544,
                "end_time": 47.42045454545454,
                "pitch": 49,
                "velocity": 64,
                "duration": 0.19999999999999574,
                "tempo": 120.0
            },
            {
                "start_time": 47.45454545454545,
                "end_time": 47.63409090909091,
                "pitch": 71,
                "velocity": 64,
                "duration": 0.17954545454545467,
                "tempo": 120.0
            },
            {
                "start_time": 47.68863636363636,
                "end_time": 47.88409090909091,
                "pitch": 69,
                "velocity": 64,
                "duration": 0.19545454545454533,
                "tempo": 120.0
            },
            {
                "start_time": 47.902272727272724,
                "end_time": 48.09318181818182,
                "pitch": 64,
                "velocity": 64,
                "duration": 0.19090909090909491,
                "tempo": 120.0
            },
            {
                "start_time": 48.10909090909091,
                "end_time": 48.3,
                "pitch": 78,
                "velocity": 64,
                "duration": 0.1909090909090878,
                "tempo": 120.0
            },
            {
                "start_time": 48.31590909090909,
                "end_time": 48.52045454545454,
                "pitch": 76,
                "velocity": 64,
                "duration": 0.20454545454545325,
                "tempo": 120.0
            },
            {
                "start_time": 48.538636363636364,
                "end_time": 48.72727272727273,
                "pitch": 78,
                "velocity": 64,
                "duration": 0.1886363636363626,
                "tempo": 120.0
            },
            {
                "start_time": 48.777272727272724,
                "end_time": 48.94772727272727,
                "pitch": 47,
                "velocity": 64,
                "duration": 0.17045454545454675,
                "tempo": 120.0
            },
            {
                "start_time": 48.98181818181818,
                "end_time": 49.18863636363636,
                "pitch": 47,
                "velocity": 64,
                "duration": 0.20681818181818556,
                "tempo": 120.0
            },
            {
                "start_time": 49.20454545454545,
                "end_time": 49.40681818181818,
                "pitch": 59,
                "velocity": 64,
                "duration": 0.20227272727272805,
                "tempo": 120.0
            },
            {
                "start_time": 49.42272727272727,
                "end_time": 49.62272727272727,
                "pitch": 61,
                "velocity": 64,
                "duration": 0.19999999999999574,
                "tempo": 120.0
            },
            {
                "start_time": 49.63863636363636,
                "end_time": 49.81363636363636,
                "pitch": 64,
                "velocity": 64,
                "duration": 0.17500000000000426,
                "tempo": 120.0
            },
            {
                "start_time": 49.845454545454544,
                "end_time": 50.02272727272727,
                "pitch": 66,
                "velocity": 64,
                "duration": 0.17727272727272947,
                "tempo": 120.0
            },
            {
                "start_time": 50.038636363636364,
                "end_time": 50.23863636363636,
                "pitch": 78,
                "velocity": 64,
                "duration": 0.19999999999999574,
                "tempo": 120.0
            },
            {
                "start_time": 50.27272727272727,
                "end_time": 50.47272727272727,
                "pitch": 78,
                "velocity": 64,
                "duration": 0.19999999999999574,
                "tempo": 120.0
            },
            {
                "start_time": 50.490909090909085,
                "end_time": 50.699999999999996,
                "pitch": 49,
                "velocity": 64,
                "duration": 0.20909090909091077,
                "tempo": 120.0
            },
            {
                "start_time": 50.71818181818182,
                "end_time": 50.90909090909091,
                "pitch": 49,
                "velocity": 64,
                "duration": 0.1909090909090878,
                "tempo": 120.0
            },
            {
                "start_time": 50.945454545454545,
                "end_time": 51.13181818181818,
                "pitch": 71,
                "velocity": 64,
                "duration": 0.1863636363636374,
                "tempo": 120.0
            },
            {
                "start_time": 51.15,
                "end_time": 51.35454545454545,
                "pitch": 69,
                "velocity": 64,
                "duration": 0.20454545454545325,
                "tempo": 120.0
            },
            {
                "start_time": 51.37272727272727,
                "end_time": 51.57272727272727,
                "pitch": 64,
                "velocity": 64,
                "duration": 0.20000000000000284,
                "tempo": 120.0
            },
            {
                "start_time": 51.60681818181818,
                "end_time": 51.80681818181818,
                "pitch": 66,
                "velocity": 64,
                "duration": 0.20000000000000284,
                "tempo": 120.0
            },
            {
                "start_time": 51.824999999999996,
                "end_time": 52.01136363636363,
                "pitch": 76,
                "velocity": 64,
                "duration": 0.1863636363636374,
                "tempo": 120.0
            },
            {
                "start_time": 52.04772727272727,
                "end_time": 52.23409090909091,
                "pitch": 78,
                "velocity": 64,
                "duration": 0.1863636363636374,
                "tempo": 120.0
            },
            {
                "start_time": 52.252272727272725,
                "end_time": 52.44318181818181,
                "pitch": 47,
                "velocity": 64,
                "duration": 0.1909090909090878,
                "tempo": 120.0
            },
            {
                "start_time": 52.459090909090904,
                "end_time": 52.65,
                "pitch": 47,
                "velocity": 64,
                "duration": 0.19090909090909491,
                "tempo": 120.0
            },
            {
                "start_time": 52.66590909090909,
                "end_time": 52.87045454545454,
                "pitch": 59,
                "velocity": 64,
                "duration": 0.20454545454545325,
                "tempo": 120.0
            },
            {
                "start_time": 52.90454545454545,
                "end_time": 53.074999999999996,
                "pitch": 61,
                "velocity": 64,
                "duration": 0.17045454545454675,
                "tempo": 120.0
            },
            {
                "start_time": 53.127272727272725,
                "end_time": 53.31590909090909,
                "pitch": 64,
                "velocity": 64,
                "duration": 0.1886363636363626,
                "tempo": 120.0
            },
            {
                "start_time": 53.33181818181818,
                "end_time": 53.538636363636364,
                "pitch": 66,
                "velocity": 64,
                "duration": 0.20681818181818556,
                "tempo": 120.0
            },
            {
                "start_time": 53.554545454545455,
                "end_time": 53.74545454545454,
                "pitch": 78,
                "velocity": 64,
                "duration": 0.1909090909090878,
                "tempo": 120.0
            },
            {
                "start_time": 53.76136363636363,
                "end_time": 53.95227272727273,
                "pitch": 78,
                "velocity": 64,
                "duration": 0.19090909090909491,
                "tempo": 120.0
            },
            {
                "start_time": 53.96818181818182,
                "end_time": 54.15681818181818,
                "pitch": 49,
                "velocity": 64,
                "duration": 0.1886363636363626,
                "tempo": 120.0
            },
            {
                "start_time": 54.209090909090904,
                "end_time": 54.37954545454545,
                "pitch": 49,
                "velocity": 64,
                "duration": 0.17045454545454675,
                "tempo": 120.0
            },
            {
                "start_time": 54.413636363636364,
                "end_time": 54.61818181818182,
                "pitch": 71,
                "velocity": 64,
                "duration": 0.20454545454545325,
                "tempo": 120.0
            },
            {
                "start_time": 54.63636363636363,
                "end_time": 54.840909090909086,
                "pitch": 69,
                "velocity": 64,
                "duration": 0.20454545454545325,
                "tempo": 120.0
            },
            {
                "start_time": 54.85681818181818,
                "end_time": 55.059090909090905,
                "pitch": 64,
                "velocity": 64,
                "duration": 0.20227272727272805,
                "tempo": 120.0
            },
            {
                "start_time": 55.074999999999996,
                "end_time": 55.25909090909091,
                "pitch": 66,
                "velocity": 64,
                "duration": 0.1840909090909122,
                "tempo": 120.0
            },
            {
                "start_time": 55.293181818181814,
                "end_time": 55.48181818181818,
                "pitch": 76,
                "velocity": 64,
                "duration": 0.1886363636363626,
                "tempo": 120.0
            },
            {
                "start_time": 55.49772727272727,
                "end_time": 55.70227272727273,
                "pitch": 78,
                "velocity": 64,
                "duration": 0.20454545454546036,
                "tempo": 120.0
            },
            {
                "start_time": 55.73863636363636,
                "end_time": 57.0,
                "pitch": 52,
                "velocity": 64,
                "duration": 1.2613636363636402,
                "tempo": 120.0
            },
            {
                "start_time": 57.03409090909091,
                "end_time": 57.461363636363636,
                "pitch": 52,
                "velocity": 64,
                "duration": 0.42727272727272947,
                "tempo": 120.0
            },
            {
                "start_time": 57.49772727272727,
                "end_time": 58.768181818181816,
                "pitch": 49,
                "velocity": 64,
                "duration": 1.2704545454545482,
                "tempo": 120.0
            },
            {
                "start_time": 58.78636363636363,
                "end_time": 59.20454545454545,
                "pitch": 49,
                "velocity": 64,
                "duration": 0.41818181818182154,
                "tempo": 120.0
            },
            {
                "start_time": 59.220454545454544,
                "end_time": 60.51136363636363,
                "pitch": 52,
                "velocity": 64,
                "duration": 1.2909090909090892,
                "tempo": 120.0
            },
            {
                "start_time": 60.527272727272724,
                "end_time": 60.929545454545455,
                "pitch": 52,
                "velocity": 64,
                "duration": 0.4022727272727309,
                "tempo": 120.0
            },
            {
                "start_time": 60.945454545454545,
                "end_time": 62.24318181818182,
                "pitch": 49,
                "velocity": 64,
                "duration": 1.297727272727272,
                "tempo": 120.0
            },
            {
                "start_time": 62.26136363636363,
                "end_time": 62.695454545454545,
                "pitch": 49,
                "velocity": 64,
                "duration": 0.4340909090909122,
                "tempo": 120.0
            },
            {
                "start_time": 62.711363636363636,
                "end_time": 63.96818181818181,
                "pitch": 52,
                "velocity": 64,
                "duration": 1.2568181818181756,
                "tempo": 120.0
            },
            {
                "start_time": 64.01818181818182,
                "end_time": 64.42727272727272,
                "pitch": 52,
                "velocity": 64,
                "duration": 0.4090909090909065,
                "tempo": 120.0
            },
            {
                "start_time": 64.44545454545454,
                "end_time": 65.73409090909091,
                "pitch": 49,
                "velocity": 64,
                "duration": 1.2886363636363711,
                "tempo": 120.0
            },
            {
                "start_time": 65.75,
                "end_time": 66.16136363636363,
                "pitch": 49,
                "velocity": 64,
                "duration": 0.4113636363636317,
                "tempo": 120.0
            },
            {
                "start_time": 66.19545454545454,
                "end_time": 67.4659090909091,
                "pitch": 52,
                "velocity": 64,
                "duration": 1.2704545454545553,
                "tempo": 120.0
            },
            {
                "start_time": 67.48409090909091,
                "end_time": 67.90227272727273,
                "pitch": 52,
                "velocity": 64,
                "duration": 0.41818181818182154,
                "tempo": 120.0
            },
            {
                "start_time": 67.93636363636364,
                "end_time": 69.20681818181818,
                "pitch": 49,
                "velocity": 64,
                "duration": 1.270454545454541,
                "tempo": 120.0
            },
            {
                "start_time": 69.24090909090908,
                "end_time": 69.66818181818182,
                "pitch": 49,
                "velocity": 64,
                "duration": 0.4272727272727366,
                "tempo": 120.0
            }
        ],
        "Trumpet": [
            {
                "start_time": 0.859090909090909,
                "end_time": 1.0431818181818182,
                "pitch": 80,
                "velocity": 64,
                "duration": 0.1840909090909092,
                "tempo": 120.0
            },
            {
                "start_time": 1.0613636363636363,
                "end_time": 1.2613636363636362,
                "pitch": 78,
                "velocity": 64,
                "duration": 0.19999999999999996,
                "tempo": 120.0
            },
            {
                "start_time": 1.2954545454545454,
                "end_time": 1.7136363636363636,
                "pitch": 77,
                "velocity": 64,
                "duration": 0.4181818181818182,
                "tempo": 120.0
            },
            {
                "start_time": 1.7295454545454545,
                "end_time": 1.9136363636363636,
                "pitch": 77,
                "velocity": 64,
                "duration": 0.18409090909090908,
                "tempo": 120.0
            },
            {
                "start_time": 1.9477272727272725,
                "end_time": 2.131818181818182,
                "pitch": 77,
                "velocity": 64,
                "duration": 0.1840909090909093,
                "tempo": 120.0
            },
            {
                "start_time": 2.1477272727272725,
                "end_time": 2.5568181818181817,
                "pitch": 75,
                "velocity": 64,
                "duration": 0.40909090909090917,
                "tempo": 120.0
            },
            {
                "start_time": 2.590909090909091,
                "end_time": 2.8,
                "pitch": 75,
                "velocity": 64,
                "duration": 0.209090909090909,
                "tempo": 120.0
            },
            {
                "start_time": 2.818181818181818,
                "end_time": 3.009090909090909,
                "pitch": 75,
                "velocity": 64,
                "duration": 0.19090909090909092,
                "tempo": 120.0
            },
            {
                "start_time": 3.0454545454545454,
                "end_time": 4.3159090909090905,
                "pitch": 73,
                "velocity": 64,
                "duration": 1.270454545454545,
                "tempo": 120.0
            },
            {
                "start_time": 4.334090909090909,
                "end_time": 4.534090909090909,
                "pitch": 80,
                "velocity": 64,
                "duration": 0.20000000000000018,
                "tempo": 120.0
            },
            {
                "start_time": 4.55,
                "end_time": 4.752272727272727,
                "pitch": 78,
                "velocity": 64,
                "duration": 0.20227272727272716,
                "tempo": 120.0
            },
            {
                "start_time": 4.768181818181818,
                "end_time": 5.161363636363636,
                "pitch": 77,
                "velocity": 64,
                "duration": 0.3931818181818185,
                "tempo": 120.0
            },
            {
                "start_time": 5.211363636363636,
                "end_time": 5.388636363636364,
                "pitch": 77,
                "velocity": 64,
                "duration": 0.1772727272727277,
                "tempo": 120.0
            },
            {
                "start_time": 5.425,
                "end_time": 5.640909090909091,
                "pitch": 77,
                "velocity": 64,
                "duration": 0.21590909090909083,
                "tempo": 120.0
            },
            {
                "start_time": 5.656818181818181,
                "end_time": 6.054545454545455,
                "pitch": 75,
                "velocity": 64,
                "duration": 0.3977272727272734,
                "tempo": 120.0
            },
            {
                "start_time": 6.070454545454545,
                "end_time": 6.259090909090909,
                "pitch": 75,
                "velocity": 64,
                "duration": 0.1886363636363635,
                "tempo": 120.0
            },
            {
                "start_time": 6.293181818181818,
                "end_time": 6.4818181818181815,
                "pitch": 75,
                "velocity": 64,
                "duration": 0.1886363636363635,
                "tempo": 120.0
            },
            {
                "start_time": 6.5,
                "end_time": 7.797727272727272,
                "pitch": 73,
                "velocity": 64,
                "duration": 1.297727272727272,
                "tempo": 120.0
            },
            {
                "start_time": 7.8136363636363635,
                "end_time": 8.011363636363637,
                "pitch": 80,
                "velocity": 64,
                "duration": 0.1977272727272732,
                "tempo": 120.0
            },
            {
                "start_time": 8.043181818181818,
                "end_time": 8.24090909090909,
                "pitch": 78,
                "velocity": 64,
                "duration": 0.1977272727272723,
                "tempo": 120.0
            },
            {
                "start_time": 8.256818181818181,
                "end_time": 8.659090909090908,
                "pitch": 77,
                "velocity": 64,
                "duration": 0.40227272727272734,
                "tempo": 120.0
            },
            {
                "start_time": 8.674999999999999,
                "end_time": 8.875,
                "pitch": 77,
                "velocity": 64,
                "duration": 0.20000000000000107,
                "tempo": 120.0
            },
            {
                "start_time": 8.893181818181818,
                "end_time": 9.093181818181817,
                "pitch": 77,
                "velocity": 64,
                "duration": 0.1999999999999993,
                "tempo": 120.0
            },
            {
                "start_time": 9.10909090909091,
                "end_time": 9.511363636363637,
                "pitch": 75,
                "velocity": 64,
                "duration": 0.40227272727272734,
                "tempo": 120.0
            },
            {
                "start_time": 9.561363636363636,
                "end_time": 9.759090909090908,
                "pitch": 75,
                "velocity": 64,
                "duration": 0.1977272727272723,
                "tempo": 120.0
            },
            {
                "start_time": 9.777272727272727,
                "end_time": 9.99090909090909,
                "pitch": 75,
                "velocity": 64,
                "duration": 0.21363636363636296,
                "tempo": 120.0
            },
            {
                "start_time": 10.009090909090908,
                "end_time": 11.295454545454545,
                "pitch": 73,
                "velocity": 64,
                "duration": 1.286363636363637,
                "tempo": 120.0
            },
            {
                "start_time": 11.311363636363636,
                "end_time": 11.509090909090908,
                "pitch": 80,
                "velocity": 64,
                "duration": 0.1977272727272723,
                "tempo": 120.0
            },
            {
                "start_time": 11.524999999999999,
                "end_time": 11.704545454545453,
                "pitch": 78,
                "velocity": 64,
                "duration": 0.17954545454545467,
                "tempo": 120.0
            },
            {
                "start_time": 11.738636363636363,
                "end_time": 12.147727272727272,
                "pitch": 77,
                "velocity": 64,
                "duration": 0.4090909090909083,
                "tempo": 120.0
            },
            {
                "start_time": 12.181818181818182,
                "end_time": 12.384090909090908,
                "pitch": 77,
                "velocity": 64,
                "duration": 0.20227272727272627,
                "tempo": 120.0
            },
            {
                "start_time": 12.399999999999999,
                "end_time": 12.6,
                "pitch": 77,
                "velocity": 64,
                "duration": 0.20000000000000107,
                "tempo": 120.0
            },
            {
                "start_time": 12.618181818181817,
                "end_time": 13.011363636363635,
                "pitch": 75,
                "velocity": 64,
                "duration": 0.39318181818181763,
                "tempo": 120.0
            },
            {
                "start_time": 13.027272727272727,
                "end_time": 13.227272727272727,
                "pitch": 75,
                "velocity": 64,
                "duration": 0.1999999999999993,
                "tempo": 120.0
            },
            {
                "start_time": 13.243181818181817,
                "end_time": 13.445454545454545,
                "pitch": 75,
                "velocity": 64,
                "duration": 0.20227272727272805,
                "tempo": 120.0
            },
            {
                "start_time": 13.479545454545454,
                "end_time": 13.879545454545454,
                "pitch": 73,
                "velocity": 64,
                "duration": 0.40000000000000036,
                "tempo": 120.0
            },
            {
                "start_time": 13.913636363636362,
                "end_time": 14.102272727272727,
                "pitch": 52,
                "velocity": 64,
                "duration": 0.18863636363636438,
                "tempo": 120.0
            },
            {
                "start_time": 14.118181818181817,
                "end_time": 15.64090909090909,
                "pitch": 52,
                "velocity": 64,
                "duration": 1.5227272727272734,
                "tempo": 120.0
            },
            {
                "start_time": 15.656818181818181,
                "end_time": 15.861363636363636,
                "pitch": 54,
                "velocity": 64,
                "duration": 0.20454545454545503,
                "tempo": 120.0
            },
            {
                "start_time": 15.879545454545454,
                "end_time": 17.37272727272727,
                "pitch": 54,
                "velocity": 64,
                "duration": 1.4931818181818173,
                "tempo": 120.0
            },
            {
                "start_time": 17.39090909090909,
                "end_time": 17.59090909090909,
                "pitch": 52,
                "velocity": 64,
                "duration": 0.1999999999999993,
                "tempo": 120.0
            },
            {
                "start_time": 17.625,
                "end_time": 19.129545454545454,
                "pitch": 52,
                "velocity": 64,
                "duration": 1.504545454545454,
                "tempo": 120.0
            },
            {
                "start_time": 19.147727272727273,
                "end_time": 19.334090909090907,
                "pitch": 49,
                "velocity": 64,
                "duration": 0.18636363636363384,
                "tempo": 120.0
            },
            {
                "start_time": 19.370454545454546,
                "end_time": 20.88181818181818,
                "pitch": 49,
                "velocity": 64,
                "duration": 1.5113636363636331,
                "tempo": 120.0
            },
            {
                "start_time": 20.9,
                "end_time": 21.095454545454544,
                "pitch": 52,
                "velocity": 64,
                "duration": 0.19545454545454533,
                "tempo": 120.0
            },
            {
                "start_time": 21.111363636363635,
                "end_time": 22.58863636363636,
                "pitch": 52,
                "velocity": 64,
                "duration": 1.4772727272727266,
                "tempo": 120.0
            },
            {
                "start_time": 22.620454545454546,
                "end_time": 22.813636363636363,
                "pitch": 54,
                "velocity": 64,
                "duration": 0.19318181818181657,
                "tempo": 120.0
            },
            {
                "start_time": 22.831818181818182,
                "end_time": 24.347727272727273,
                "pitch": 54,
                "velocity": 64,
                "duration": 1.5159090909090907,
                "tempo": 120.0
            },
            {
                "start_time": 24.38181818181818,
                "end_time": 24.59090909090909,
                "pitch": 52,
                "velocity": 64,
                "duration": 0.20909090909091077,
                "tempo": 120.0
            },
            {
                "start_time": 24.60681818181818,
                "end_time": 26.10681818181818,
                "pitch": 52,
                "velocity": 64,
                "duration": 1.5,
                "tempo": 120.0
            },
            {
                "start_time": 26.125,
                "end_time": 26.320454545454545,
                "pitch": 49,
                "velocity": 64,
                "duration": 0.19545454545454533,
                "tempo": 120.0
            },
            {
                "start_time": 26.336363636363636,
                "end_time": 27.847727272727273,
                "pitch": 49,
                "velocity": 64,
                "duration": 1.5113636363636367,
                "tempo": 120.0
            },
            {
                "start_time": 27.86590909090909,
                "end_time": 28.052272727272726,
                "pitch": 52,
                "velocity": 64,
                "duration": 0.1863636363636374,
                "tempo": 120.0
            },
            {
                "start_time": 28.086363636363636,
                "end_time": 29.581818181818182,
                "pitch": 52,
                "velocity": 64,
                "duration": 1.495454545454546,
                "tempo": 120.0
            },
            {
                "start_time": 29.597727272727273,
                "end_time": 29.795454545454543,
                "pitch": 54,
                "velocity": 64,
                "duration": 0.19772727272727053,
                "tempo": 120.0
            },
            {
                "start_time": 29.827272727272724,
                "end_time": 31.304545454545455,
                "pitch": 54,
                "velocity": 64,
                "duration": 1.4772727272727302,
                "tempo": 120.0
            },
            {
                "start_time": 31.354545454545452,
                "end_time": 31.543181818181818,
                "pitch": 52,
                "velocity": 64,
                "duration": 0.18863636363636616,
                "tempo": 120.0
            },
            {
                "start_time": 31.561363636363634,
                "end_time": 33.07272727272727,
                "pitch": 52,
                "velocity": 64,
                "duration": 1.5113636363636367,
                "tempo": 120.0
            },
            {
                "start_time": 33.08863636363636,
                "end_time": 33.293181818181814,
                "pitch": 49,
                "velocity": 64,
                "duration": 0.20454545454545325,
                "tempo": 120.0
            },
            {
                "start_time": 33.31136363636364,
                "end_time": 34.81363636363636,
                "pitch": 49,
                "velocity": 64,
                "duration": 1.5022727272727252,
                "tempo": 120.0
            },
            {
                "start_time": 34.83181818181818,
                "end_time": 35.027272727272724,
                "pitch": 52,
                "velocity": 64,
                "duration": 0.19545454545454533,
                "tempo": 120.0
            },
            {
                "start_time": 35.043181818181814,
                "end_time": 36.54545454545455,
                "pitch": 52,
                "velocity": 64,
                "duration": 1.5022727272727323,
                "tempo": 120.0
            },
            {
                "start_time": 36.57954545454545,
                "end_time": 36.75454545454545,
                "pitch": 54,
                "velocity": 64,
                "duration": 0.17499999999999716,
                "tempo": 120.0
            },
            {
                "start_time": 36.80681818181818,
                "end_time": 38.30227272727272,
                "pitch": 54,
                "velocity": 64,
                "duration": 1.4954545454545425,
                "tempo": 120.0
            },
            {
                "start_time": 38.31818181818181,
                "end_time": 38.52045454545454,
                "pitch": 52,
                "velocity": 64,
                "duration": 0.20227272727272805,
                "tempo": 120.0
            },
            {
                "start_time": 38.53636363636363,
                "end_time": 40.025,
                "pitch": 52,
                "velocity": 64,
                "duration": 1.4886363636363669,
                "tempo": 120.0
            },
            {
                "start_time": 40.059090909090905,
                "end_time": 40.252272727272725,
                "pitch": 49,
                "velocity": 64,
                "duration": 0.19318181818182012,
                "tempo": 120.0
            },
            {
                "start_time": 40.268181818181816,
                "end_time": 41.77272727272727,
                "pitch": 49,
                "velocity": 64,
                "duration": 1.5045454545454575,
                "tempo": 120.0
            },
            {
                "start_time": 41.79090909090909,
                "end_time": 41.99090909090909,
                "pitch": 47,
                "velocity": 64,
                "duration": 0.20000000000000284,
                "tempo": 120.0
            },
            {
                "start_time": 42.025,
                "end_time": 42.19090909090909,
                "pitch": 47,
                "velocity": 64,
                "duration": 0.16590909090908923,
                "tempo": 120.0
            },
            {
                "start_time": 43.518181818181816,
                "end_time": 43.72954545454545,
                "pitch": 49,
                "velocity": 64,
                "duration": 0.21136363636363598,
                "tempo": 120.0
            },
            {
                "start_time": 43.74545454545454,
                "end_time": 43.95681818181818,
                "pitch": 49,
                "velocity": 64,
                "duration": 0.21136363636363598,
                "tempo": 120.0
            },
            {
                "start_time": 45.288636363636364,
                "end_time": 45.47272727272727,
                "pitch": 47,
                "velocity": 64,
                "duration": 0.18409090909090509,
                "tempo": 120.0
            },
            {
                "start_time": 45.50681818181818,
                "end_time": 45.69090909090909,
                "pitch": 47,
                "velocity": 64,
                "duration": 0.18409090909090509,
                "tempo": 120.0
            },
            {
                "start_time": 47.002272727272725,
                "end_time": 47.20454545454545,
                "pitch": 49,
                "velocity": 64,
                "duration": 0.20227272727272805,
                "tempo": 120.0
            },
            {
                "start_time": 47.220454545454544,
                "end_time": 47.42045454545454,
                "pitch": 49,
                "velocity": 64,
                "duration": 0.19999999999999574,
                "tempo": 120.0
            },
            {
                "start_time": 48.777272727272724,
                "end_time": 48.94772727272727,
                "pitch": 47,
                "velocity": 64,
                "duration": 0.17045454545454675,
                "tempo": 120.0
            },
            {
                "start_time": 48.98181818181818,
                "end_time": 49.18863636363636,
                "pitch": 47,
                "velocity": 64,
                "duration": 0.20681818181818556,
                "tempo": 120.0
            },
            {
                "start_time": 50.490909090909085,
                "end_time": 50.699999999999996,
                "pitch": 49,
                "velocity": 64,
                "duration": 0.20909090909091077,
                "tempo": 120.0
            },
            {
                "start_time": 50.71818181818182,
                "end_time": 50.90909090909091,
                "pitch": 49,
                "velocity": 64,
                "duration": 0.1909090909090878,
                "tempo": 120.0
            },
            {
                "start_time": 52.252272727272725,
                "end_time": 52.44318181818181,
                "pitch": 47,
                "velocity": 64,
                "duration": 0.1909090909090878,
                "tempo": 120.0
            },
            {
                "start_time": 52.459090909090904,
                "end_time": 52.65,
                "pitch": 47,
                "velocity": 64,
                "duration": 0.19090909090909491,
                "tempo": 120.0
            },
            {
                "start_time": 53.96818181818182,
                "end_time": 54.15681818181818,
                "pitch": 49,
                "velocity": 64,
                "duration": 0.1886363636363626,
                "tempo": 120.0
            },
            {
                "start_time": 54.209090909090904,
                "end_time": 54.37954545454545,
                "pitch": 49,
                "velocity": 64,
                "duration": 0.17045454545454675,
                "tempo": 120.0
            },
            {
                "start_time": 55.73863636363636,
                "end_time": 57.0,
                "pitch": 52,
                "velocity": 64,
                "duration": 1.2613636363636402,
                "tempo": 120.0
            },
            {
                "start_time": 57.03409090909091,
                "end_time": 57.461363636363636,
                "pitch": 52,
                "velocity": 64,
                "duration": 0.42727272727272947,
                "tempo": 120.0
            },
            {
                "start_time": 57.49772727272727,
                "end_time": 58.768181818181816,
                "pitch": 49,
                "velocity": 64,
                "duration": 1.2704545454545482,
                "tempo": 120.0
            },
            {
                "start_time": 58.78636363636363,
                "end_time": 59.20454545454545,
                "pitch": 47,
                "velocity": 64,
                "duration": 0.41818181818182154,
                "tempo": 120.0
            },
            {
                "start_time": 59.220454545454544,
                "end_time": 60.51136363636363,
                "pitch": 52,
                "velocity": 64,
                "duration": 1.2909090909090892,
                "tempo": 120.0
            },
            {
                "start_time": 60.527272727272724,
                "end_time": 60.929545454545455,
                "pitch": 52,
                "velocity": 64,
                "duration": 0.4022727272727309,
                "tempo": 120.0
            },
            {
                "start_time": 60.945454545454545,
                "end_time": 62.24318181818182,
                "pitch": 49,
                "velocity": 64,
                "duration": 1.297727272727272,
                "tempo": 120.0
            },
            {
                "start_time": 62.26136363636363,
                "end_time": 62.695454545454545,
                "pitch": 49,
                "velocity": 64,
                "duration": 0.4340909090909122,
                "tempo": 120.0
            },
            {
                "start_time": 62.711363636363636,
                "end_time": 63.96818181818181,
                "pitch": 52,
                "velocity": 64,
                "duration": 1.2568181818181756,
                "tempo": 120.0
            },
            {
                "start_time": 64.01818181818182,
                "end_time": 64.42727272727272,
                "pitch": 52,
                "velocity": 64,
                "duration": 0.4090909090909065,
                "tempo": 120.0
            },
            {
                "start_time": 64.44545454545454,
                "end_time": 65.73409090909091,
                "pitch": 49,
                "velocity": 64,
                "duration": 1.2886363636363711,
                "tempo": 120.0
            },
            {
                "start_time": 65.75,
                "end_time": 66.16136363636363,
                "pitch": 49,
                "velocity": 64,
                "duration": 0.4113636363636317,
                "tempo": 120.0
            },
            {
                "start_time": 66.19545454545454,
                "end_time": 67.4659090909091,
                "pitch": 52,
                "velocity": 64,
                "duration": 1.2704545454545553,
                "tempo": 120.0
            },
            {
                "start_time": 67.48409090909091,
                "end_time": 67.90227272727273,
                "pitch": 52,
                "velocity": 64,
                "duration": 0.41818181818182154,
                "tempo": 120.0
            },
            {
                "start_time": 67.93636363636364,
                "end_time": 69.20681818181818,
                "pitch": 49,
                "velocity": 64,
                "duration": 1.270454545454541,
                "tempo": 120.0
            },
            {
                "start_time": 69.24090909090908,
                "end_time": 69.66818181818182,
                "pitch": 49,
                "velocity": 64,
                "duration": 0.4272727272727366,
                "tempo": 120.0
            }
        ],
        "Oboe": [
            {
                "start_time": 0.015909090909090907,
                "end_time": 0.4159090909090909,
                "pitch": 61,
                "velocity": 64,
                "duration": 0.39999999999999997,
                "tempo": 120.0
            },
            {
                "start_time": 0.4340909090909091,
                "end_time": 0.8272727272727273,
                "pitch": 61,
                "velocity": 64,
                "duration": 0.3931818181818182,
                "tempo": 120.0
            },
            {
                "start_time": 0.859090909090909,
                "end_time": 3.4454545454545453,
                "pitch": 85,
                "velocity": 64,
                "duration": 2.5863636363636364,
                "tempo": 120.0
            },
            {
                "start_time": 3.4636363636363634,
                "end_time": 3.8727272727272726,
                "pitch": 61,
                "velocity": 64,
                "duration": 0.40909090909090917,
                "tempo": 120.0
            },
            {
                "start_time": 3.9068181818181817,
                "end_time": 4.3159090909090905,
                "pitch": 61,
                "velocity": 64,
                "duration": 0.4090909090909087,
                "tempo": 120.0
            },
            {
                "start_time": 4.334090909090909,
                "end_time": 6.925,
                "pitch": 88,
                "velocity": 64,
                "duration": 2.590909090909091,
                "tempo": 120.0
            },
            {
                "start_time": 6.9409090909090905,
                "end_time": 7.352272727272727,
                "pitch": 61,
                "velocity": 64,
                "duration": 0.41136363636363615,
                "tempo": 120.0
            },
            {
                "start_time": 7.386363636363636,
                "end_time": 7.797727272727272,
                "pitch": 61,
                "velocity": 64,
                "duration": 0.41136363636363615,
                "tempo": 120.0
            },
            {
                "start_time": 7.8136363636363635,
                "end_time": 10.406818181818181,
                "pitch": 85,
                "velocity": 64,
                "duration": 2.593181818181818,
                "tempo": 120.0
            },
            {
                "start_time": 10.422727272727272,
                "end_time": 10.825,
                "pitch": 61,
                "velocity": 64,
                "duration": 0.40227272727272734,
                "tempo": 120.0
            },
            {
                "start_time": 10.85909090909091,
                "end_time": 11.295454545454545,
                "pitch": 61,
                "velocity": 64,
                "duration": 0.4363636363636356,
                "tempo": 120.0
            },
            {
                "start_time": 11.311363636363636,
                "end_time": 13.879545454545454,
                "pitch": 90,
                "velocity": 64,
                "duration": 2.5681818181818183,
                "tempo": 120.0
            },
            {
                "start_time": 13.913636363636362,
                "end_time": 14.102272727272727,
                "pitch": 64,
                "velocity": 64,
                "duration": 0.18863636363636438,
                "tempo": 120.0
            },
            {
                "start_time": 14.118181818181817,
                "end_time": 14.325,
                "pitch": 66,
                "velocity": 64,
                "duration": 0.206818181818182,
                "tempo": 120.0
            },
            {
                "start_time": 14.34090909090909,
                "end_time": 14.543181818181818,
                "pitch": 69,
                "velocity": 64,
                "duration": 0.20227272727272805,
                "tempo": 120.0
            },
            {
                "start_time": 14.559090909090909,
                "end_time": 14.759090909090908,
                "pitch": 71,
                "velocity": 64,
                "duration": 0.1999999999999993,
                "tempo": 120.0
            },
            {
                "start_time": 14.793181818181818,
                "end_time": 14.968181818181817,
                "pitch": 66,
                "velocity": 64,
                "duration": 0.17499999999999893,
                "tempo": 120.0
            },
            {
                "start_time": 15.020454545454545,
                "end_time": 17.37272727272727,
                "pitch": 64,
                "velocity": 64,
                "duration": 2.3522727272727266,
                "tempo": 120.0
            },
            {
                "start_time": 17.39090909090909,
                "end_time": 17.59090909090909,
                "pitch": 59,
                "velocity": 64,
                "duration": 0.1999999999999993,
                "tempo": 120.0
            },
            {
                "start_time": 17.625,
                "end_time": 17.825,
                "pitch": 61,
                "velocity": 64,
                "duration": 0.1999999999999993,
                "tempo": 120.0
            },
            {
                "start_time": 17.84090909090909,
                "end_time": 18.043181818181818,
                "pitch": 64,
                "velocity": 64,
                "duration": 0.20227272727272805,
                "tempo": 120.0
            },
            {
                "start_time": 18.05909090909091,
                "end_time": 18.686363636363634,
                "pitch": 66,
                "velocity": 64,
                "duration": 0.6272727272727252,
                "tempo": 120.0
            },
            {
                "start_time": 18.704545454545453,
                "end_time": 19.129545454545454,
                "pitch": 64,
                "velocity": 64,
                "duration": 0.4250000000000007,
                "tempo": 120.0
            },
            {
                "start_time": 19.147727272727273,
                "end_time": 19.334090909090907,
                "pitch": 66,
                "velocity": 64,
                "duration": 0.18636363636363384,
                "tempo": 120.0
            },
            {
                "start_time": 19.370454545454546,
                "end_time": 20.88181818181818,
                "pitch": 66,
                "velocity": 64,
                "duration": 1.5113636363636331,
                "tempo": 120.0
            },
            {
                "start_time": 20.9,
                "end_time": 21.095454545454544,
                "pitch": 64,
                "velocity": 64,
                "duration": 0.19545454545454533,
                "tempo": 120.0
            },
            {
                "start_time": 21.111363636363635,
                "end_time": 21.30909090909091,
                "pitch": 66,
                "velocity": 64,
                "duration": 0.19772727272727408,
                "tempo": 120.0
            },
            {
                "start_time": 21.325,
                "end_time": 21.504545454545454,
                "pitch": 69,
                "velocity": 64,
                "duration": 0.17954545454545467,
                "tempo": 120.0
            },
            {
                "start_time": 21.554545454545455,
                "end_time": 21.956818181818182,
                "pitch": 71,
                "velocity": 64,
                "duration": 0.40227272727272734,
                "tempo": 120.0
            },
            {
                "start_time": 21.972727272727273,
                "end_time": 22.179545454545455,
                "pitch": 71,
                "velocity": 64,
                "duration": 0.206818181818182,
                "tempo": 120.0
            },
            {
                "start_time": 22.195454545454545,
                "end_time": 22.58863636363636,
                "pitch": 64,
                "velocity": 64,
                "duration": 0.39318181818181586,
                "tempo": 120.0
            },
            {
                "start_time": 22.620454545454546,
                "end_time": 22.813636363636363,
                "pitch": 66,
                "velocity": 64,
                "duration": 0.19318181818181657,
                "tempo": 120.0
            },
            {
                "start_time": 22.831818181818182,
                "end_time": 24.347727272727273,
                "pitch": 66,
                "velocity": 64,
                "duration": 1.5159090909090907,
                "tempo": 120.0
            },
            {
                "start_time": 24.38181818181818,
                "end_time": 24.59090909090909,
                "pitch": 59,
                "velocity": 64,
                "duration": 0.20909090909091077,
                "tempo": 120.0
            },
            {
                "start_time": 24.60681818181818,
                "end_time": 24.799999999999997,
                "pitch": 61,
                "velocity": 64,
                "duration": 0.19318181818181657,
                "tempo": 120.0
            },
            {
                "start_time": 24.834090909090907,
                "end_time": 25.01590909090909,
                "pitch": 64,
                "velocity": 64,
                "duration": 0.18181818181818343,
                "tempo": 120.0
            },
            {
                "start_time": 25.03181818181818,
                "end_time": 25.654545454545453,
                "pitch": 66,
                "velocity": 64,
                "duration": 0.6227272727272712,
                "tempo": 120.0
            },
            {
                "start_time": 25.686363636363634,
                "end_time": 26.10681818181818,
                "pitch": 64,
                "velocity": 64,
                "duration": 0.42045454545454675,
                "tempo": 120.0
            },
            {
                "start_time": 26.125,
                "end_time": 26.320454545454545,
                "pitch": 66,
                "velocity": 64,
                "duration": 0.19545454545454533,
                "tempo": 120.0
            },
            {
                "start_time": 26.336363636363636,
                "end_time": 27.847727272727273,
                "pitch": 66,
                "velocity": 64,
                "duration": 1.5113636363636367,
                "tempo": 120.0
            },
            {
                "start_time": 27.86590909090909,
                "end_time": 28.718181818181815,
                "pitch": 66,
                "velocity": 64,
                "duration": 0.8522727272727266,
                "tempo": 120.0
            },
            {
                "start_time": 28.73409090909091,
                "end_time": 29.363636363636363,
                "pitch": 66,
                "velocity": 64,
                "duration": 0.629545454545454,
                "tempo": 120.0
            },
            {
                "start_time": 29.379545454545454,
                "end_time": 29.581818181818182,
                "pitch": 64,
                "velocity": 64,
                "duration": 0.20227272727272805,
                "tempo": 120.0
            },
            {
                "start_time": 29.597727272727273,
                "end_time": 30.45,
                "pitch": 66,
                "velocity": 64,
                "duration": 0.8522727272727266,
                "tempo": 120.0
            },
            {
                "start_time": 30.468181818181815,
                "end_time": 31.304545454545455,
                "pitch": 61,
                "velocity": 64,
                "duration": 0.8363636363636395,
                "tempo": 120.0
            },
            {
                "start_time": 31.354545454545452,
                "end_time": 31.543181818181818,
                "pitch": 64,
                "velocity": 64,
                "duration": 0.18863636363636616,
                "tempo": 120.0
            },
            {
                "start_time": 31.561363636363634,
                "end_time": 31.76590909090909,
                "pitch": 66,
                "velocity": 64,
                "duration": 0.2045454545454568,
                "tempo": 120.0
            },
            {
                "start_time": 31.78181818181818,
                "end_time": 31.979545454545452,
                "pitch": 66,
                "velocity": 64,
                "duration": 0.19772727272727053,
                "tempo": 120.0
            },
            {
                "start_time": 31.995454545454542,
                "end_time": 32.39772727272727,
                "pitch": 66,
                "velocity": 64,
                "duration": 0.4022727272727309,
                "tempo": 120.0
            },
            {
                "start_time": 32.44772727272727,
                "end_time": 32.61818181818182,
                "pitch": 64,
                "velocity": 64,
                "duration": 0.17045454545454675,
                "tempo": 120.0
            },
            {
                "start_time": 32.652272727272724,
                "end_time": 32.85454545454545,
                "pitch": 66,
                "velocity": 64,
                "duration": 0.20227272727272805,
                "tempo": 120.0
            },
            {
                "start_time": 32.87045454545454,
                "end_time": 33.07272727272727,
                "pitch": 71,
                "velocity": 64,
                "duration": 0.20227272727272805,
                "tempo": 120.0
            },
            {
                "start_time": 33.08863636363636,
                "end_time": 33.925,
                "pitch": 69,
                "velocity": 64,
                "duration": 0.836363636363636,
                "tempo": 120.0
            },
            {
                "start_time": 33.95909090909091,
                "end_time": 34.163636363636364,
                "pitch": 69,
                "velocity": 64,
                "duration": 0.20454545454545325,
                "tempo": 120.0
            },
            {
                "start_time": 34.18181818181818,
                "end_time": 34.81363636363636,
                "pitch": 61,
                "velocity": 64,
                "duration": 0.6318181818181827,
                "tempo": 120.0
            },
            {
                "start_time": 34.83181818181818,
                "end_time": 35.684090909090905,
                "pitch": 66,
                "velocity": 64,
                "duration": 0.8522727272727266,
                "tempo": 120.0
            },
            {
                "start_time": 35.71818181818182,
                "end_time": 36.33181818181818,
                "pitch": 66,
                "velocity": 64,
                "duration": 0.6136363636363598,
                "tempo": 120.0
            },
            {
                "start_time": 36.35,
                "end_time": 36.54545454545455,
                "pitch": 64,
                "velocity": 64,
                "duration": 0.19545454545454533,
                "tempo": 120.0
            },
            {
                "start_time": 36.57954545454545,
                "end_time": 37.413636363636364,
                "pitch": 66,
                "velocity": 64,
                "duration": 0.8340909090909108,
                "tempo": 120.0
            },
            {
                "start_time": 37.429545454545455,
                "end_time": 38.30227272727272,
                "pitch": 61,
                "velocity": 64,
                "duration": 0.8727272727272677,
                "tempo": 120.0
            },
            {
                "start_time": 38.31818181818181,
                "end_time": 38.52045454545454,
                "pitch": 61,
                "velocity": 64,
                "duration": 0.20227272727272805,
                "tempo": 120.0
            },
            {
                "start_time": 38.53636363636363,
                "end_time": 38.736363636363635,
                "pitch": 64,
                "velocity": 64,
                "duration": 0.20000000000000284,
                "tempo": 120.0
            },
            {
                "start_time": 38.75454545454545,
                "end_time": 38.93863636363636,
                "pitch": 66,
                "velocity": 64,
                "duration": 0.1840909090909122,
                "tempo": 120.0
            },
            {
                "start_time": 38.970454545454544,
                "end_time": 39.154545454545456,
                "pitch": 64,
                "velocity": 64,
                "duration": 0.1840909090909122,
                "tempo": 120.0
            },
            {
                "start_time": 39.17272727272727,
                "end_time": 39.36818181818182,
                "pitch": 66,
                "velocity": 64,
                "duration": 0.19545454545454533,
                "tempo": 120.0
            },
            {
                "start_time": 39.402272727272724,
                "end_time": 39.59772727272727,
                "pitch": 69,
                "velocity": 64,
                "duration": 0.19545454545454533,
                "tempo": 120.0
            },
            {
                "start_time": 39.61590909090909,
                "end_time": 40.025,
                "pitch": 71,
                "velocity": 64,
                "duration": 0.4090909090909065,
                "tempo": 120.0
            },
            {
                "start_time": 40.059090909090905,
                "end_time": 41.77272727272727,
                "pitch": 66,
                "velocity": 64,
                "duration": 1.7136363636363683,
                "tempo": 120.0
            },
            {
                "start_time": 41.79090909090909,
                "end_time": 41.99090909090909,
                "pitch": 83,
                "velocity": 64,
                "duration": 0.20000000000000284,
                "tempo": 120.0
            },
            {
                "start_time": 42.025,
                "end_time": 42.19090909090909,
                "pitch": 83,
                "velocity": 64,
                "duration": 0.16590909090908923,
                "tempo": 120.0
            },
            {
                "start_time": 42.24090909090909,
                "end_time": 42.429545454545455,
                "pitch": 83,
                "velocity": 64,
                "duration": 0.1886363636363626,
                "tempo": 120.0
            },
            {
                "start_time": 42.44772727272727,
                "end_time": 42.652272727272724,
                "pitch": 83,
                "velocity": 64,
                "duration": 0.20454545454545325,
                "tempo": 120.0
            },
            {
                "start_time": 42.668181818181814,
                "end_time": 42.85909090909091,
                "pitch": 82,
                "velocity": 64,
                "duration": 0.19090909090909491,
                "tempo": 120.0
            },
            {
                "start_time": 42.875,
                "end_time": 43.06590909090909,
                "pitch": 82,
                "velocity": 64,
                "duration": 0.1909090909090878,
                "tempo": 120.0
            },
            {
                "start_time": 43.084090909090904,
                "end_time": 43.268181818181816,
                "pitch": 78,
                "velocity": 64,
                "duration": 0.1840909090909122,
                "tempo": 120.0
            },
            {
                "start_time": 43.31818181818181,
                "end_time": 43.486363636363635,
                "pitch": 78,
                "velocity": 64,
                "duration": 0.16818181818182154,
                "tempo": 120.0
            },
            {
                "start_time": 43.518181818181816,
                "end_time": 43.72954545454545,
                "pitch": 76,
                "velocity": 64,
                "duration": 0.21136363636363598,
                "tempo": 120.0
            },
            {
                "start_time": 43.74545454545454,
                "end_time": 43.95681818181818,
                "pitch": 76,
                "velocity": 64,
                "duration": 0.21136363636363598,
                "tempo": 120.0
            },
            {
                "start_time": 43.97272727272727,
                "end_time": 44.179545454545455,
                "pitch": 75,
                "velocity": 64,
                "duration": 0.20681818181818556,
                "tempo": 120.0
            },
            {
                "start_time": 44.195454545454545,
                "end_time": 44.38409090909091,
                "pitch": 75,
                "velocity": 64,
                "duration": 0.1886363636363626,
                "tempo": 120.0
            },
            {
                "start_time": 44.418181818181814,
                "end_time": 44.60227272727273,
                "pitch": 73,
                "velocity": 64,
                "duration": 0.1840909090909122,
                "tempo": 120.0
            },
            {
                "start_time": 44.61818181818182,
                "end_time": 44.820454545454545,
                "pitch": 73,
                "velocity": 64,
                "duration": 0.20227272727272805,
                "tempo": 120.0
            },
            {
                "start_time": 44.85227272727273,
                "end_time": 45.054545454545455,
                "pitch": 76,
                "velocity": 64,
                "duration": 0.20227272727272805,
                "tempo": 120.0
            },
            {
                "start_time": 45.070454545454545,
                "end_time": 45.27272727272727,
                "pitch": 76,
                "velocity": 64,
                "duration": 0.20227272727272805,
                "tempo": 120.0
            },
            {
                "start_time": 45.288636363636364,
                "end_time": 45.47272727272727,
                "pitch": 83,
                "velocity": 64,
                "duration": 0.18409090909090509,
                "tempo": 120.0
            },
            {
                "start_time": 45.50681818181818,
                "end_time": 45.69090909090909,
                "pitch": 83,
                "velocity": 64,
                "duration": 0.18409090909090509,
                "tempo": 120.0
            },
            {
                "start_time": 45.70681818181818,
                "end_time": 45.902272727272724,
                "pitch": 83,
                "velocity": 64,
                "duration": 0.19545454545454533,
                "tempo": 120.0
            },
            {
                "start_time": 45.92045454545455,
                "end_time": 46.11590909090909,
                "pitch": 83,
                "velocity": 64,
                "duration": 0.19545454545454533,
                "tempo": 120.0
            },
            {
                "start_time": 46.15,
                "end_time": 46.345454545454544,
                "pitch": 82,
                "velocity": 64,
                "duration": 0.19545454545454533,
                "tempo": 120.0
            },
            {
                "start_time": 46.361363636363635,
                "end_time": 46.543181818181814,
                "pitch": 82,
                "velocity": 64,
                "duration": 0.18181818181817988,
                "tempo": 120.0
            },
            {
                "start_time": 46.574999999999996,
                "end_time": 46.76363636363636,
                "pitch": 78,
                "velocity": 64,
                "duration": 0.1886363636363626,
                "tempo": 120.0
            },
            {
                "start_time": 46.78181818181818,
                "end_time": 46.986363636363635,
                "pitch": 78,
                "velocity": 64,
                "duration": 0.20454545454545325,
                "tempo": 120.0
            },
            {
                "start_time": 47.002272727272725,
                "end_time": 47.20454545454545,
                "pitch": 76,
                "velocity": 64,
                "duration": 0.20227272727272805,
                "tempo": 120.0
            },
            {
                "start_time": 47.220454545454544,
                "end_time": 47.42045454545454,
                "pitch": 78,
                "velocity": 64,
                "duration": 0.19999999999999574,
                "tempo": 120.0
            },
            {
                "start_time": 47.45454545454545,
                "end_time": 47.63409090909091,
                "pitch": 82,
                "velocity": 64,
                "duration": 0.17954545454545467,
                "tempo": 120.0
            },
            {
                "start_time": 47.68863636363636,
                "end_time": 47.88409090909091,
                "pitch": 83,
                "velocity": 64,
                "duration": 0.19545454545454533,
                "tempo": 120.0
            },
            {
                "start_time": 47.902272727272724,
                "end_time": 48.09318181818182,
                "pitch": 82,
                "velocity": 64,
                "duration": 0.19090909090909491,
                "tempo": 120.0
            },
            {
                "start_time": 48.10909090909091,
                "end_time": 48.3,
                "pitch": 78,
                "velocity": 64,
                "duration": 0.1909090909090878,
                "tempo": 120.0
            },
            {
                "start_time": 48.31590909090909,
                "end_time": 48.52045454545454,
                "pitch": 76,
                "velocity": 64,
                "duration": 0.20454545454545325,
                "tempo": 120.0
            },
            {
                "start_time": 48.538636363636364,
                "end_time": 48.72727272727273,
                "pitch": 78,
                "velocity": 64,
                "duration": 0.1886363636363626,
                "tempo": 120.0
            },
            {
                "start_time": 48.777272727272724,
                "end_time": 48.94772727272727,
                "pitch": 83,
                "velocity": 64,
                "duration": 0.17045454545454675,
                "tempo": 120.0
            },
            {
                "start_time": 48.98181818181818,
                "end_time": 49.18863636363636,
                "pitch": 83,
                "velocity": 64,
                "duration": 0.20681818181818556,
                "tempo": 120.0
            },
            {
                "start_time": 49.20454545454545,
                "end_time": 49.40681818181818,
                "pitch": 83,
                "velocity": 64,
                "duration": 0.20227272727272805,
                "tempo": 120.0
            },
            {
                "start_time": 49.42272727272727,
                "end_time": 49.62272727272727,
                "pitch": 83,
                "velocity": 64,
                "duration": 0.19999999999999574,
                "tempo": 120.0
            },
            {
                "start_time": 49.63863636363636,
                "end_time": 49.81363636363636,
                "pitch": 82,
                "velocity": 64,
                "duration": 0.17500000000000426,
                "tempo": 120.0
            },
            {
                "start_time": 49.845454545454544,
                "end_time": 50.02272727272727,
                "pitch": 82,
                "velocity": 64,
                "duration": 0.17727272727272947,
                "tempo": 120.0
            },
            {
                "start_time": 50.038636363636364,
                "end_time": 50.23863636363636,
                "pitch": 78,
                "velocity": 64,
                "duration": 0.19999999999999574,
                "tempo": 120.0
            },
            {
                "start_time": 50.27272727272727,
                "end_time": 50.47272727272727,
                "pitch": 78,
                "velocity": 64,
                "duration": 0.19999999999999574,
                "tempo": 120.0
            },
            {
                "start_time": 50.490909090909085,
                "end_time": 50.699999999999996,
                "pitch": 76,
                "velocity": 64,
                "duration": 0.20909090909091077,
                "tempo": 120.0
            },
            {
                "start_time": 50.71818181818182,
                "end_time": 50.90909090909091,
                "pitch": 76,
                "velocity": 64,
                "duration": 0.1909090909090878,
                "tempo": 120.0
            },
            {
                "start_time": 50.945454545454545,
                "end_time": 51.13181818181818,
                "pitch": 75,
                "velocity": 64,
                "duration": 0.1863636363636374,
                "tempo": 120.0
            },
            {
                "start_time": 51.15,
                "end_time": 51.35454545454545,
                "pitch": 75,
                "velocity": 64,
                "duration": 0.20454545454545325,
                "tempo": 120.0
            },
            {
                "start_time": 51.37272727272727,
                "end_time": 51.57272727272727,
                "pitch": 73,
                "velocity": 64,
                "duration": 0.20000000000000284,
                "tempo": 120.0
            },
            {
                "start_time": 51.60681818181818,
                "end_time": 51.80681818181818,
                "pitch": 73,
                "velocity": 64,
                "duration": 0.20000000000000284,
                "tempo": 120.0
            },
            {
                "start_time": 51.824999999999996,
                "end_time": 52.01136363636363,
                "pitch": 76,
                "velocity": 64,
                "duration": 0.1863636363636374,
                "tempo": 120.0
            },
            {
                "start_time": 52.04772727272727,
                "end_time": 52.23409090909091,
                "pitch": 76,
                "velocity": 64,
                "duration": 0.1863636363636374,
                "tempo": 120.0
            },
            {
                "start_time": 52.252272727272725,
                "end_time": 52.44318181818181,
                "pitch": 83,
                "velocity": 64,
                "duration": 0.1909090909090878,
                "tempo": 120.0
            },
            {
                "start_time": 52.459090909090904,
                "end_time": 52.65,
                "pitch": 83,
                "velocity": 64,
                "duration": 0.19090909090909491,
                "tempo": 120.0
            },
            {
                "start_time": 52.66590909090909,
                "end_time": 52.87045454545454,
                "pitch": 83,
                "velocity": 64,
                "duration": 0.20454545454545325,
                "tempo": 120.0
            },
            {
                "start_time": 52.90454545454545,
                "end_time": 53.074999999999996,
                "pitch": 83,
                "velocity": 64,
                "duration": 0.17045454545454675,
                "tempo": 120.0
            },
            {
                "start_time": 53.127272727272725,
                "end_time": 53.31590909090909,
                "pitch": 82,
                "velocity": 64,
                "duration": 0.1886363636363626,
                "tempo": 120.0
            },
            {
                "start_time": 53.33181818181818,
                "end_time": 53.538636363636364,
                "pitch": 82,
                "velocity": 64,
                "duration": 0.20681818181818556,
                "tempo": 120.0
            },
            {
                "start_time": 53.554545454545455,
                "end_time": 53.74545454545454,
                "pitch": 78,
                "velocity": 64,
                "duration": 0.1909090909090878,
                "tempo": 120.0
            },
            {
                "start_time": 53.76136363636363,
                "end_time": 53.95227272727273,
                "pitch": 78,
                "velocity": 64,
                "duration": 0.19090909090909491,
                "tempo": 120.0
            },
            {
                "start_time": 53.96818181818182,
                "end_time": 54.15681818181818,
                "pitch": 76,
                "velocity": 64,
                "duration": 0.1886363636363626,
                "tempo": 120.0
            },
            {
                "start_time": 54.209090909090904,
                "end_time": 54.37954545454545,
                "pitch": 78,
                "velocity": 64,
                "duration": 0.17045454545454675,
                "tempo": 120.0
            },
            {
                "start_time": 54.413636363636364,
                "end_time": 54.61818181818182,
                "pitch": 82,
                "velocity": 64,
                "duration": 0.20454545454545325,
                "tempo": 120.0
            },
            {
                "start_time": 54.63636363636363,
                "end_time": 54.840909090909086,
                "pitch": 83,
                "velocity": 64,
                "duration": 0.20454545454545325,
                "tempo": 120.0
            },
            {
                "start_time": 54.85681818181818,
                "end_time": 55.059090909090905,
                "pitch": 82,
                "velocity": 64,
                "duration": 0.20227272727272805,
                "tempo": 120.0
            },
            {
                "start_time": 55.074999999999996,
                "end_time": 55.25909090909091,
                "pitch": 78,
                "velocity": 64,
                "duration": 0.1840909090909122,
                "tempo": 120.0
            },
            {
                "start_time": 55.293181818181814,
                "end_time": 55.48181818181818,
                "pitch": 76,
                "velocity": 64,
                "duration": 0.1886363636363626,
                "tempo": 120.0
            },
            {
                "start_time": 55.49772727272727,
                "end_time": 55.70227272727273,
                "pitch": 78,
                "velocity": 64,
                "duration": 0.20454545454546036,
                "tempo": 120.0
            },
            {
                "start_time": 55.73863636363636,
                "end_time": 57.461363636363636,
                "pitch": 71,
                "velocity": 64,
                "duration": 1.7227272727272762,
                "tempo": 120.0
            },
            {
                "start_time": 57.49772727272727,
                "end_time": 57.67727272727272,
                "pitch": 73,
                "velocity": 64,
                "duration": 0.17954545454545467,
                "tempo": 120.0
            },
            {
                "start_time": 57.69318181818181,
                "end_time": 57.89090909090909,
                "pitch": 76,
                "velocity": 64,
                "duration": 0.19772727272727764,
                "tempo": 120.0
            },
            {
                "start_time": 57.90681818181818,
                "end_time": 58.324999999999996,
                "pitch": 78,
                "velocity": 64,
                "duration": 0.41818181818181444,
                "tempo": 120.0
            },
            {
                "start_time": 58.35909090909091,
                "end_time": 59.20454545454545,
                "pitch": 78,
                "velocity": 64,
                "duration": 0.8454545454545439,
                "tempo": 120.0
            },
            {
                "start_time": 59.220454545454544,
                "end_time": 59.418181818181814,
                "pitch": 73,
                "velocity": 64,
                "duration": 0.19772727272727053,
                "tempo": 120.0
            },
            {
                "start_time": 59.434090909090905,
                "end_time": 59.83863636363636,
                "pitch": 71,
                "velocity": 64,
                "duration": 0.4045454545454561,
                "tempo": 120.0
            },
            {
                "start_time": 59.87272727272727,
                "end_time": 60.711363636363636,
                "pitch": 73,
                "velocity": 64,
                "duration": 0.8386363636363683,
                "tempo": 120.0
            },
            {
                "start_time": 60.74545454545454,
                "end_time": 61.80681818181818,
                "pitch": 66,
                "velocity": 64,
                "duration": 1.0613636363636374,
                "tempo": 120.0
            },
            {
                "start_time": 61.840909090909086,
                "end_time": 62.695454545454545,
                "pitch": 73,
                "velocity": 64,
                "duration": 0.8545454545454589,
                "tempo": 120.0
            },
            {
                "start_time": 62.711363636363636,
                "end_time": 63.96818181818181,
                "pitch": 71,
                "velocity": 64,
                "duration": 1.2568181818181756,
                "tempo": 120.0
            },
            {
                "start_time": 64.01818181818182,
                "end_time": 64.42727272727272,
                "pitch": 73,
                "velocity": 64,
                "duration": 0.4090909090909065,
                "tempo": 120.0
            },
            {
                "start_time": 64.44545454545454,
                "end_time": 64.64090909090909,
                "pitch": 76,
                "velocity": 64,
                "duration": 0.19545454545455243,
                "tempo": 120.0
            },
            {
                "start_time": 64.6590909090909,
                "end_time": 65.05909090909091,
                "pitch": 78,
                "velocity": 64,
                "duration": 0.4000000000000057,
                "tempo": 120.0
            },
            {
                "start_time": 65.10909090909091,
                "end_time": 66.16136363636363,
                "pitch": 76,
                "velocity": 64,
                "duration": 1.0522727272727224,
                "tempo": 120.0
            },
            {
                "start_time": 66.19545454545454,
                "end_time": 66.37954545454545,
                "pitch": 71,
                "velocity": 64,
                "duration": 0.1840909090909122,
                "tempo": 120.0
            },
            {
                "start_time": 66.39545454545454,
                "end_time": 66.59772727272727,
                "pitch": 73,
                "velocity": 64,
                "duration": 0.20227272727272805,
                "tempo": 120.0
            },
            {
                "start_time": 66.62954545454545,
                "end_time": 66.83181818181818,
                "pitch": 76,
                "velocity": 64,
                "duration": 0.20227272727272805,
                "tempo": 120.0
            },
            {
                "start_time": 66.84772727272727,
                "end_time": 67.90227272727273,
                "pitch": 78,
                "velocity": 64,
                "duration": 1.0545454545454618,
                "tempo": 120.0
            },
            {
                "start_time": 67.93636363636364,
                "end_time": 68.14090909090909,
                "pitch": 83,
                "velocity": 64,
                "duration": 0.20454545454545325,
                "tempo": 120.0
            },
            {
                "start_time": 68.15681818181818,
                "end_time": 68.34545454545454,
                "pitch": 81,
                "velocity": 64,
                "duration": 0.1886363636363626,
                "tempo": 120.0
            },
            {
                "start_time": 68.37954545454545,
                "end_time": 68.56363636363636,
                "pitch": 78,
                "velocity": 64,
                "duration": 0.1840909090909122,
                "tempo": 120.0
            },
            {
                "start_time": 68.58181818181818,
                "end_time": 69.66818181818182,
                "pitch": 78,
                "velocity": 64,
                "duration": 1.086363636363643,
                "tempo": 120.0
            }
        ]
    }
}