{
    "track_id": "Solomon no Kagi (FM) - 01 - Main Theme",
    "mood": "happy",
    "instruments": {
        "French Horn": [
            {
                "start_time": 6.802272727272727,
                "end_time": 6.945454545454545,
                "pitch": 84,
                "velocity": 51,
                "duration": 0.14318181818181852,
                "tempo": 120.0
            },
            {
                "start_time": 6.993181818181818,
                "end_time": 7.136363636363636,
                "pitch": 84,
                "velocity": 51,
                "duration": 0.14318181818181763,
                "tempo": 120.0
            },
            {
                "start_time": 7.184090909090909,
                "end_time": 7.334090909090909,
                "pitch": 83,
                "velocity": 51,
                "duration": 0.15000000000000036,
                "tempo": 120.0
            },
            {
                "start_time": 7.584090909090909,
                "end_time": 7.7340909090909085,
                "pitch": 84,
                "velocity": 51,
                "duration": 0.14999999999999947,
                "tempo": 120.0
            },
            {
                "start_time": 7.786363636363636,
                "end_time": 7.936363636363636,
                "pitch": 84,
                "velocity": 51,
                "duration": 0.14999999999999947,
                "tempo": 120.0
            },
            {
                "start_time": 7.986363636363636,
                "end_time": 8.138636363636364,
                "pitch": 86,
                "velocity": 51,
                "duration": 0.15227272727272734,
                "tempo": 120.0
            },
            {
                "start_time": 8.388636363636364,
                "end_time": 8.540909090909091,
                "pitch": 84,
                "velocity": 51,
                "duration": 0.15227272727272734,
                "tempo": 120.0
            },
            {
                "start_time": 8.59090909090909,
                "end_time": 8.74090909090909,
                "pitch": 83,
                "velocity": 51,
                "duration": 0.15000000000000036,
                "tempo": 120.0
            },
            {
                "start_time": 8.793181818181818,
                "end_time": 8.943181818181818,
                "pitch": 84,
                "velocity": 51,
                "duration": 0.15000000000000036,
                "tempo": 120.0
            },
            {
                "start_time": 9.997727272727273,
                "end_time": 10.147727272727272,
                "pitch": 84,
                "velocity": 51,
                "duration": 0.14999999999999858,
                "tempo": 120.0
            },
            {
                "start_time": 10.2,
                "end_time": 10.35,
                "pitch": 84,
                "velocity": 51,
                "duration": 0.15000000000000036,
                "tempo": 120.0
            },
            {
                "start_time": 10.4,
                "end_time": 10.552272727272726,
                "pitch": 83,
                "velocity": 51,
                "duration": 0.15227272727272556,
                "tempo": 120.0
            },
            {
                "start_time": 10.802272727272726,
                "end_time": 10.952272727272726,
                "pitch": 84,
                "velocity": 51,
                "duration": 0.15000000000000036,
                "tempo": 120.0
            },
            {
                "start_time": 11.002272727272727,
                "end_time": 11.152272727272727,
                "pitch": 84,
                "velocity": 51,
                "duration": 0.15000000000000036,
                "tempo": 120.0
            },
            {
                "start_time": 11.202272727272726,
                "end_time": 11.354545454545454,
                "pitch": 79,
                "velocity": 51,
                "duration": 0.15227272727272734,
                "tempo": 120.0
            },
            {
                "start_time": 11.604545454545454,
                "end_time": 11.756818181818181,
                "pitch": 75,
                "velocity": 51,
                "duration": 0.15227272727272734,
                "tempo": 120.0
            },
            {
                "start_time": 12.009090909090908,
                "end_time": 12.159090909090908,
                "pitch": 74,
                "velocity": 51,
                "duration": 0.15000000000000036,
                "tempo": 120.0
            },
            {
                "start_time": 12.411363636363635,
                "end_time": 12.561363636363636,
                "pitch": 79,
                "velocity": 51,
                "duration": 0.15000000000000036,
                "tempo": 120.0
            },
            {
                "start_time": 13.213636363636363,
                "end_time": 13.363636363636363,
                "pitch": 84,
                "velocity": 51,
                "duration": 0.15000000000000036,
                "tempo": 120.0
            },
            {
                "start_time": 13.415909090909091,
                "end_time": 13.56590909090909,
                "pitch": 84,
                "velocity": 51,
                "duration": 0.14999999999999858,
                "tempo": 120.0
            },
            {
                "start_time": 13.61590909090909,
                "end_time": 13.768181818181818,
                "pitch": 83,
                "velocity": 51,
                "duration": 0.15227272727272734,
                "tempo": 120.0
            },
            {
                "start_time": 14.018181818181818,
                "end_time": 14.170454545454545,
                "pitch": 84,
                "velocity": 51,
                "duration": 0.15227272727272734,
                "tempo": 120.0
            },
            {
                "start_time": 14.220454545454544,
                "end_time": 14.370454545454544,
                "pitch": 84,
                "velocity": 51,
                "duration": 0.15000000000000036,
                "tempo": 120.0
            },
            {
                "start_time": 14.422727272727272,
                "end_time": 14.572727272727272,
                "pitch": 86,
                "velocity": 51,
                "duration": 0.15000000000000036,
                "tempo": 120.0
            },
            {
                "start_time": 14.825,
                "end_time": 14.975,
                "pitch": 84,
                "velocity": 51,
                "duration": 0.15000000000000036,
                "tempo": 120.0
            },
            {
                "start_time": 15.024999999999999,
                "end_time": 15.174999999999999,
                "pitch": 83,
                "velocity": 51,
                "duration": 0.15000000000000036,
                "tempo": 120.0
            },
            {
                "start_time": 15.225,
                "end_time": 15.375,
                "pitch": 84,
                "velocity": 51,
                "duration": 0.15000000000000036,
                "tempo": 120.0
            },
            {
                "start_time": 16.43181818181818,
                "end_time": 16.581818181818182,
                "pitch": 84,
                "velocity": 51,
                "duration": 0.15000000000000213,
                "tempo": 120.0
            },
            {
                "start_time": 16.631818181818183,
                "end_time": 16.78181818181818,
                "pitch": 84,
                "velocity": 51,
                "duration": 0.14999999999999858,
                "tempo": 120.0
            },
            {
                "start_time": 16.831818181818182,
                "end_time": 16.98409090909091,
                "pitch": 83,
                "velocity": 51,
                "duration": 0.15227272727272734,
                "tempo": 120.0
            },
            {
                "start_time": 17.23409090909091,
                "end_time": 17.384090909090908,
                "pitch": 84,
                "velocity": 51,
                "duration": 0.14999999999999858,
                "tempo": 120.0
            },
            {
                "start_time": 17.43409090909091,
                "end_time": 17.584090909090907,
                "pitch": 84,
                "velocity": 51,
                "duration": 0.14999999999999858,
                "tempo": 120.0
            },
            {
                "start_time": 17.634090909090908,
                "end_time": 17.784090909090907,
                "pitch": 79,
                "velocity": 51,
                "duration": 0.14999999999999858,
                "tempo": 120.0
            },
            {
                "start_time": 18.034090909090907,
                "end_time": 18.186363636363634,
                "pitch": 75,
                "velocity": 51,
                "duration": 0.15227272727272734,
                "tempo": 120.0
            },
            {
                "start_time": 18.438636363636363,
                "end_time": 18.58863636363636,
                "pitch": 74,
                "velocity": 51,
                "duration": 0.14999999999999858,
                "tempo": 120.0
            },
            {
                "start_time": 18.83863636363636,
                "end_time": 18.988636363636363,
                "pitch": 72,
                "velocity": 51,
                "duration": 0.15000000000000213,
                "tempo": 120.0
            },
            {
                "start_time": 19.64090909090909,
                "end_time": 19.79090909090909,
                "pitch": 81,
                "velocity": 51,
                "duration": 0.14999999999999858,
                "tempo": 120.0
            },
            {
                "start_time": 19.84090909090909,
                "end_time": 19.99090909090909,
                "pitch": 81,
                "velocity": 51,
                "duration": 0.14999999999999858,
                "tempo": 120.0
            },
            {
                "start_time": 20.04090909090909,
                "end_time": 20.19090909090909,
                "pitch": 80,
                "velocity": 51,
                "duration": 0.15000000000000213,
                "tempo": 120.0
            },
            {
                "start_time": 20.443181818181817,
                "end_time": 20.59318181818182,
                "pitch": 81,
                "velocity": 51,
                "duration": 0.15000000000000213,
                "tempo": 120.0
            },
            {
                "start_time": 20.643181818181816,
                "end_time": 20.793181818181818,
                "pitch": 81,
                "velocity": 51,
                "duration": 0.15000000000000213,
                "tempo": 120.0
            },
            {
                "start_time": 20.84318181818182,
                "end_time": 20.993181818181817,
                "pitch": 83,
                "velocity": 51,
                "duration": 0.14999999999999858,
                "tempo": 120.0
            },
            {
                "start_time": 21.245454545454546,
                "end_time": 21.395454545454545,
                "pitch": 81,
                "velocity": 51,
                "duration": 0.14999999999999858,
                "tempo": 120.0
            },
            {
                "start_time": 21.445454545454545,
                "end_time": 21.595454545454544,
                "pitch": 80,
                "velocity": 51,
                "duration": 0.14999999999999858,
                "tempo": 120.0
            },
            {
                "start_time": 21.645454545454545,
                "end_time": 21.795454545454543,
                "pitch": 81,
                "velocity": 51,
                "duration": 0.14999999999999858,
                "tempo": 120.0
            },
            {
                "start_time": 22.045454545454543,
                "end_time": 22.19772727272727,
                "pitch": 83,
                "velocity": 51,
                "duration": 0.15227272727272734,
                "tempo": 120.0
            },
            {
                "start_time": 22.24772727272727,
                "end_time": 22.397727272727273,
                "pitch": 84,
                "velocity": 51,
                "duration": 0.15000000000000213,
                "tempo": 120.0
            },
            {
                "start_time": 22.44772727272727,
                "end_time": 22.597727272727273,
                "pitch": 86,
                "velocity": 51,
                "duration": 0.15000000000000213,
                "tempo": 120.0
            },
            {
                "start_time": 22.847727272727273,
                "end_time": 23.0,
                "pitch": 84,
                "velocity": 51,
                "duration": 0.15227272727272734,
                "tempo": 120.0
            },
            {
                "start_time": 23.049999999999997,
                "end_time": 23.2,
                "pitch": 83,
                "velocity": 51,
                "duration": 0.15000000000000213,
                "tempo": 120.0
            },
            {
                "start_time": 23.252272727272725,
                "end_time": 23.402272727272727,
                "pitch": 84,
                "velocity": 51,
                "duration": 0.15000000000000213,
                "tempo": 120.0
            },
            {
                "start_time": 23.652272727272727,
                "end_time": 23.802272727272726,
                "pitch": 86,
                "velocity": 51,
                "duration": 0.14999999999999858,
                "tempo": 120.0
            },
            {
                "start_time": 23.852272727272727,
                "end_time": 24.002272727272725,
                "pitch": 88,
                "velocity": 51,
                "duration": 0.14999999999999858,
                "tempo": 120.0
            },
            {
                "start_time": 24.052272727272726,
                "end_time": 24.202272727272724,
                "pitch": 89,
                "velocity": 51,
                "duration": 0.14999999999999858,
                "tempo": 120.0
            },
            {
                "start_time": 24.454545454545453,
                "end_time": 24.604545454545452,
                "pitch": 88,
                "velocity": 51,
                "duration": 0.14999999999999858,
                "tempo": 120.0
            },
            {
                "start_time": 26.05681818181818,
                "end_time": 26.206818181818182,
                "pitch": 81,
                "velocity": 51,
                "duration": 0.15000000000000213,
                "tempo": 120.0
            },
            {
                "start_time": 26.25681818181818,
                "end_time": 26.409090909090907,
                "pitch": 81,
                "velocity": 51,
                "duration": 0.15227272727272734,
                "tempo": 120.0
            },
            {
                "start_time": 26.459090909090907,
                "end_time": 26.60909090909091,
                "pitch": 80,
                "velocity": 51,
                "duration": 0.15000000000000213,
                "tempo": 120.0
            },
            {
                "start_time": 26.85909090909091,
                "end_time": 27.011363636363637,
                "pitch": 81,
                "velocity": 51,
                "duration": 0.15227272727272734,
                "tempo": 120.0
            },
            {
                "start_time": 27.061363636363634,
                "end_time": 27.211363636363636,
                "pitch": 81,
                "velocity": 51,
                "duration": 0.15000000000000213,
                "tempo": 120.0
            },
            {
                "start_time": 27.261363636363637,
                "end_time": 27.411363636363635,
                "pitch": 83,
                "velocity": 51,
                "duration": 0.14999999999999858,
                "tempo": 120.0
            },
            {
                "start_time": 27.661363636363635,
                "end_time": 27.811363636363634,
                "pitch": 81,
                "velocity": 51,
                "duration": 0.14999999999999858,
                "tempo": 120.0
            },
            {
                "start_time": 27.861363636363635,
                "end_time": 28.011363636363637,
                "pitch": 80,
                "velocity": 51,
                "duration": 0.15000000000000213,
                "tempo": 120.0
            },
            {
                "start_time": 28.061363636363634,
                "end_time": 28.21363636363636,
                "pitch": 81,
                "velocity": 51,
                "duration": 0.15227272727272734,
                "tempo": 120.0
            },
            {
                "start_time": 28.46363636363636,
                "end_time": 28.613636363636363,
                "pitch": 83,
                "velocity": 51,
                "duration": 0.15000000000000213,
                "tempo": 120.0
            },
            {
                "start_time": 28.66363636363636,
                "end_time": 28.813636363636363,
                "pitch": 84,
                "velocity": 51,
                "duration": 0.15000000000000213,
                "tempo": 120.0
            },
            {
                "start_time": 28.863636363636363,
                "end_time": 29.01590909090909,
                "pitch": 86,
                "velocity": 51,
                "duration": 0.15227272727272734,
                "tempo": 120.0
            },
            {
                "start_time": 29.065909090909088,
                "end_time": 29.21590909090909,
                "pitch": 84,
                "velocity": 51,
                "duration": 0.15000000000000213,
                "tempo": 120.0
            },
            {
                "start_time": 29.268181818181816,
                "end_time": 29.418181818181818,
                "pitch": 83,
                "velocity": 51,
                "duration": 0.15000000000000213,
                "tempo": 120.0
            },
            {
                "start_time": 29.468181818181815,
                "end_time": 29.618181818181817,
                "pitch": 81,
                "velocity": 51,
                "duration": 0.15000000000000213,
                "tempo": 120.0
            },
            {
                "start_time": 29.668181818181818,
                "end_time": 29.818181818181817,
                "pitch": 84,
                "velocity": 51,
                "duration": 0.14999999999999858,
                "tempo": 120.0
            },
            {
                "start_time": 29.868181818181817,
                "end_time": 30.018181818181816,
                "pitch": 83,
                "velocity": 51,
                "duration": 0.14999999999999858,
                "tempo": 120.0
            },
            {
                "start_time": 30.068181818181817,
                "end_time": 30.218181818181815,
                "pitch": 81,
                "velocity": 51,
                "duration": 0.14999999999999858,
                "tempo": 120.0
            },
            {
                "start_time": 30.268181818181816,
                "end_time": 30.420454545454543,
                "pitch": 80,
                "velocity": 51,
                "duration": 0.15227272727272734,
                "tempo": 120.0
            },
            {
                "start_time": 30.470454545454544,
                "end_time": 30.620454545454542,
                "pitch": 81,
                "velocity": 51,
                "duration": 0.14999999999999858,
                "tempo": 120.0
            },
            {
                "start_time": 32.08863636363636,
                "end_time": 32.22727272727273,
                "pitch": 72,
                "velocity": 51,
                "duration": 0.13863636363636545,
                "tempo": 120.0
            },
            {
                "start_time": 32.277272727272724,
                "end_time": 32.43181818181818,
                "pitch": 63,
                "velocity": 51,
                "duration": 0.1545454545454561,
                "tempo": 120.0
            },
            {
                "start_time": 32.48409090909091,
                "end_time": 32.62954545454545,
                "pitch": 79,
                "velocity": 51,
                "duration": 0.14545454545454106,
                "tempo": 120.0
            },
            {
                "start_time": 32.679545454545455,
                "end_time": 32.82727272727273,
                "pitch": 84,
                "velocity": 51,
                "duration": 0.14772727272727337,
                "tempo": 120.0
            },
            {
                "start_time": 32.875,
                "end_time": 33.50909090909091,
                "pitch": 83,
                "velocity": 51,
                "duration": 0.6340909090909079,
                "tempo": 120.0
            },
            {
                "start_time": 33.675,
                "end_time": 33.824999999999996,
                "pitch": 72,
                "velocity": 51,
                "duration": 0.14999999999999858,
                "tempo": 120.0
            },
            {
                "start_time": 33.875,
                "end_time": 34.025,
                "pitch": 63,
                "velocity": 51,
                "duration": 0.14999999999999858,
                "tempo": 120.0
            },
            {
                "start_time": 34.074999999999996,
                "end_time": 34.225,
                "pitch": 79,
                "velocity": 51,
                "duration": 0.15000000000000568,
                "tempo": 120.0
            },
            {
                "start_time": 34.275,
                "end_time": 34.425,
                "pitch": 84,
                "velocity": 51,
                "duration": 0.14999999999999858,
                "tempo": 120.0
            },
            {
                "start_time": 34.475,
                "end_time": 35.111363636363635,
                "pitch": 83,
                "velocity": 51,
                "duration": 0.6363636363636331,
                "tempo": 120.0
            },
            {
                "start_time": 35.277272727272724,
                "end_time": 35.42727272727272,
                "pitch": 67,
                "velocity": 51,
                "duration": 0.14999999999999858,
                "tempo": 120.0
            },
            {
                "start_time": 35.47727272727273,
                "end_time": 35.627272727272725,
                "pitch": 72,
                "velocity": 51,
                "duration": 0.14999999999999858,
                "tempo": 120.0
            },
            {
                "start_time": 35.67727272727272,
                "end_time": 35.82727272727273,
                "pitch": 75,
                "velocity": 51,
                "duration": 0.15000000000000568,
                "tempo": 120.0
            },
            {
                "start_time": 35.877272727272725,
                "end_time": 36.027272727272724,
                "pitch": 79,
                "velocity": 51,
                "duration": 0.14999999999999858,
                "tempo": 120.0
            },
            {
                "start_time": 36.07727272727273,
                "end_time": 36.22727272727273,
                "pitch": 77,
                "velocity": 51,
                "duration": 0.14999999999999858,
                "tempo": 120.0
            },
            {
                "start_time": 36.47727272727273,
                "end_time": 36.62954545454545,
                "pitch": 74,
                "velocity": 51,
                "duration": 0.15227272727272378,
                "tempo": 120.0
            },
            {
                "start_time": 36.88181818181818,
                "end_time": 36.98181818181818,
                "pitch": 75,
                "velocity": 51,
                "duration": 0.09999999999999432,
                "tempo": 120.0
            },
            {
                "start_time": 37.01363636363636,
                "end_time": 37.11363636363636,
                "pitch": 79,
                "velocity": 51,
                "duration": 0.10000000000000142,
                "tempo": 120.0
            },
            {
                "start_time": 37.14772727272727,
                "end_time": 37.24772727272727,
                "pitch": 84,
                "velocity": 51,
                "duration": 0.09999999999999432,
                "tempo": 120.0
            },
            {
                "start_time": 37.28181818181818,
                "end_time": 37.38181818181818,
                "pitch": 79,
                "velocity": 51,
                "duration": 0.10000000000000142,
                "tempo": 120.0
            },
            {
                "start_time": 37.413636363636364,
                "end_time": 37.51363636363636,
                "pitch": 75,
                "velocity": 51,
                "duration": 0.09999999999999432,
                "tempo": 120.0
            },
            {
                "start_time": 37.54772727272727,
                "end_time": 37.64772727272727,
                "pitch": 72,
                "velocity": 51,
                "duration": 0.10000000000000142,
                "tempo": 120.0
            },
            {
                "start_time": 37.68181818181818,
                "end_time": 37.76363636363636,
                "pitch": 71,
                "velocity": 51,
                "duration": 0.08181818181817846,
                "tempo": 120.0
            },
            {
                "start_time": 37.78181818181818,
                "end_time": 37.86363636363636,
                "pitch": 72,
                "velocity": 51,
                "duration": 0.08181818181817846,
                "tempo": 120.0
            },
            {
                "start_time": 37.88181818181818,
                "end_time": 37.96363636363636,
                "pitch": 74,
                "velocity": 51,
                "duration": 0.08181818181817846,
                "tempo": 120.0
            },
            {
                "start_time": 37.98181818181818,
                "end_time": 38.06363636363636,
                "pitch": 75,
                "velocity": 51,
                "duration": 0.08181818181818556,
                "tempo": 120.0
            },
            {
                "start_time": 38.08181818181818,
                "end_time": 38.163636363636364,
                "pitch": 74,
                "velocity": 51,
                "duration": 0.08181818181818556,
                "tempo": 120.0
            },
            {
                "start_time": 38.18181818181818,
                "end_time": 38.26363636363636,
                "pitch": 72,
                "velocity": 51,
                "duration": 0.08181818181817846,
                "tempo": 120.0
            },
            {
                "start_time": 38.28181818181818,
                "end_time": 38.36363636363636,
                "pitch": 71,
                "velocity": 51,
                "duration": 0.08181818181817846,
                "tempo": 120.0
            },
            {
                "start_time": 38.38181818181818,
                "end_time": 38.46363636363636,
                "pitch": 68,
                "velocity": 51,
                "duration": 0.08181818181817846,
                "tempo": 120.0
            },
            {
                "start_time": 38.48181818181818,
                "end_time": 38.58181818181818,
                "pitch": 79,
                "velocity": 51,
                "duration": 0.10000000000000142,
                "tempo": 120.0
            },
            {
                "start_time": 38.61590909090909,
                "end_time": 38.715909090909086,
                "pitch": 78,
                "velocity": 51,
                "duration": 0.09999999999999432,
                "tempo": 120.0
            },
            {
                "start_time": 38.75,
                "end_time": 38.85,
                "pitch": 79,
                "velocity": 51,
                "duration": 0.10000000000000142,
                "tempo": 120.0
            },
            {
                "start_time": 38.88409090909091,
                "end_time": 38.98409090909091,
                "pitch": 78,
                "velocity": 51,
                "duration": 0.10000000000000142,
                "tempo": 120.0
            },
            {
                "start_time": 39.01590909090909,
                "end_time": 39.11590909090909,
                "pitch": 79,
                "velocity": 51,
                "duration": 0.10000000000000142,
                "tempo": 120.0
            },
            {
                "start_time": 39.15,
                "end_time": 39.25,
                "pitch": 78,
                "velocity": 51,
                "duration": 0.10000000000000142,
                "tempo": 120.0
            },
            {
                "start_time": 39.28409090909091,
                "end_time": 39.6,
                "pitch": 77,
                "velocity": 51,
                "duration": 0.3159090909090949,
                "tempo": 120.0
            },
            {
                "start_time": 39.684090909090905,
                "end_time": 40.0,
                "pitch": 75,
                "velocity": 51,
                "duration": 0.3159090909090949,
                "tempo": 120.0
            },
            {
                "start_time": 40.084090909090904,
                "end_time": 40.16590909090909,
                "pitch": 87,
                "velocity": 51,
                "duration": 0.08181818181818556,
                "tempo": 120.0
            },
            {
                "start_time": 40.184090909090905,
                "end_time": 40.26590909090909,
                "pitch": 86,
                "velocity": 51,
                "duration": 0.08181818181818556,
                "tempo": 120.0
            },
            {
                "start_time": 40.28409090909091,
                "end_time": 40.36590909090909,
                "pitch": 84,
                "velocity": 51,
                "duration": 0.08181818181818556,
                "tempo": 120.0
            },
            {
                "start_time": 40.38409090909091,
                "end_time": 40.465909090909086,
                "pitch": 83,
                "velocity": 51,
                "duration": 0.08181818181817846,
                "tempo": 120.0
            },
            {
                "start_time": 40.48409090909091,
                "end_time": 40.56818181818181,
                "pitch": 80,
                "velocity": 51,
                "duration": 0.08409090909090366,
                "tempo": 120.0
            },
            {
                "start_time": 40.584090909090904,
                "end_time": 40.668181818181814,
                "pitch": 79,
                "velocity": 51,
                "duration": 0.08409090909091077,
                "tempo": 120.0
            },
            {
                "start_time": 40.684090909090905,
                "end_time": 40.768181818181816,
                "pitch": 77,
                "velocity": 51,
                "duration": 0.08409090909091077,
                "tempo": 120.0
            },
            {
                "start_time": 40.78636363636363,
                "end_time": 40.87045454545454,
                "pitch": 75,
                "velocity": 51,
                "duration": 0.08409090909091077,
                "tempo": 120.0
            },
            {
                "start_time": 40.88636363636363,
                "end_time": 41.20227272727273,
                "pitch": 74,
                "velocity": 51,
                "duration": 0.3159090909090949,
                "tempo": 120.0
            },
            {
                "start_time": 41.28636363636363,
                "end_time": 41.60227272727273,
                "pitch": 62,
                "velocity": 51,
                "duration": 0.3159090909090949,
                "tempo": 120.0
            },
            {
                "start_time": 41.68636363636364,
                "end_time": 41.836363636363636,
                "pitch": 79,
                "velocity": 51,
                "duration": 0.14999999999999858,
                "tempo": 120.0
            },
            {
                "start_time": 41.88636363636363,
                "end_time": 42.03636363636363,
                "pitch": 72,
                "velocity": 51,
                "duration": 0.14999999999999858,
                "tempo": 120.0
            },
            {
                "start_time": 42.086363636363636,
                "end_time": 42.236363636363635,
                "pitch": 75,
                "velocity": 51,
                "duration": 0.14999999999999858,
                "tempo": 120.0
            },
            {
                "start_time": 42.28636363636363,
                "end_time": 42.43636363636364,
                "pitch": 79,
                "velocity": 51,
                "duration": 0.15000000000000568,
                "tempo": 120.0
            },
            {
                "start_time": 42.486363636363635,
                "end_time": 42.63636363636363,
                "pitch": 80,
                "velocity": 51,
                "duration": 0.14999999999999858,
                "tempo": 120.0
            },
            {
                "start_time": 42.68863636363636,
                "end_time": 42.83863636363636,
                "pitch": 74,
                "velocity": 51,
                "duration": 0.14999999999999858,
                "tempo": 120.0
            },
            {
                "start_time": 42.88863636363636,
                "end_time": 43.038636363636364,
                "pitch": 77,
                "velocity": 51,
                "duration": 0.15000000000000568,
                "tempo": 120.0
            },
            {
                "start_time": 43.08863636363636,
                "end_time": 43.23863636363636,
                "pitch": 80,
                "velocity": 51,
                "duration": 0.14999999999999858,
                "tempo": 120.0
            },
            {
                "start_time": 43.288636363636364,
                "end_time": 43.43863636363636,
                "pitch": 84,
                "velocity": 51,
                "duration": 0.14999999999999858,
                "tempo": 120.0
            },
            {
                "start_time": 43.48863636363636,
                "end_time": 43.63863636363636,
                "pitch": 75,
                "velocity": 51,
                "duration": 0.14999999999999858,
                "tempo": 120.0
            },
            {
                "start_time": 43.68863636363636,
                "end_time": 43.83863636363636,
                "pitch": 79,
                "velocity": 51,
                "duration": 0.14999999999999858,
                "tempo": 120.0
            },
            {
                "start_time": 43.88863636363636,
                "end_time": 44.038636363636364,
                "pitch": 84,
                "velocity": 51,
                "duration": 0.15000000000000568,
                "tempo": 120.0
            },
            {
                "start_time": 44.08863636363636,
                "end_time": 44.40454545454545,
                "pitch": 83,
                "velocity": 51,
                "duration": 0.3159090909090878,
                "tempo": 120.0
            },
            {
                "start_time": 44.48863636363636,
                "end_time": 44.64090909090909,
                "pitch": 86,
                "velocity": 51,
                "duration": 0.1522727272727309,
                "tempo": 120.0
            },
            {
                "start_time": 44.69090909090909,
                "end_time": 44.840909090909086,
                "pitch": 74,
                "velocity": 51,
                "duration": 0.14999999999999858,
                "tempo": 120.0
            },
            {
                "start_time": 44.89090909090909,
                "end_time": 45.04090909090909,
                "pitch": 84,
                "velocity": 51,
                "duration": 0.14999999999999858,
                "tempo": 120.0
            },
            {
                "start_time": 45.090909090909086,
                "end_time": 45.24090909090909,
                "pitch": 81,
                "velocity": 51,
                "duration": 0.15000000000000568,
                "tempo": 120.0
            },
            {
                "start_time": 45.29090909090909,
                "end_time": 45.44090909090909,
                "pitch": 76,
                "velocity": 51,
                "duration": 0.14999999999999858,
                "tempo": 120.0
            },
            {
                "start_time": 45.49090909090909,
                "end_time": 45.64090909090909,
                "pitch": 72,
                "velocity": 51,
                "duration": 0.14999999999999858,
                "tempo": 120.0
            },
            {
                "start_time": 45.69090909090909,
                "end_time": 45.79090909090909,
                "pitch": 80,
                "velocity": 51,
                "duration": 0.10000000000000142,
                "tempo": 120.0
            },
            {
                "start_time": 45.824999999999996,
                "end_time": 45.925,
                "pitch": 77,
                "velocity": 51,
                "duration": 0.10000000000000142,
                "tempo": 120.0
            },
            {
                "start_time": 45.959090909090904,
                "end_time": 46.059090909090905,
                "pitch": 76,
                "velocity": 51,
                "duration": 0.10000000000000142,
                "tempo": 120.0
            },
            {
                "start_time": 46.090909090909086,
                "end_time": 46.19090909090909,
                "pitch": 74,
                "velocity": 51,
                "duration": 0.10000000000000142,
                "tempo": 120.0
            },
            {
                "start_time": 46.224999999999994,
                "end_time": 46.324999999999996,
                "pitch": 76,
                "velocity": 51,
                "duration": 0.10000000000000142,
                "tempo": 120.0
            },
            {
                "start_time": 46.35909090909091,
                "end_time": 46.459090909090904,
                "pitch": 77,
                "velocity": 51,
                "duration": 0.09999999999999432,
                "tempo": 120.0
            },
            {
                "start_time": 46.49090909090909,
                "end_time": 46.643181818181816,
                "pitch": 76,
                "velocity": 51,
                "duration": 0.15227272727272378,
                "tempo": 120.0
            },
            {
                "start_time": 46.89545454545454,
                "end_time": 47.04545454545454,
                "pitch": 74,
                "velocity": 51,
                "duration": 0.14999999999999858,
                "tempo": 120.0
            },
            {
                "start_time": 47.095454545454544,
                "end_time": 47.24545454545454,
                "pitch": 72,
                "velocity": 51,
                "duration": 0.14999999999999858,
                "tempo": 120.0
            },
            {
                "start_time": 47.29545454545454,
                "end_time": 47.39545454545454,
                "pitch": 71,
                "velocity": 51,
                "duration": 0.10000000000000142,
                "tempo": 120.0
            },
            {
                "start_time": 47.42727272727272,
                "end_time": 47.527272727272724,
                "pitch": 69,
                "velocity": 51,
                "duration": 0.10000000000000142,
                "tempo": 120.0
            },
            {
                "start_time": 47.56136363636364,
                "end_time": 47.66136363636363,
                "pitch": 68,
                "velocity": 51,
                "duration": 0.09999999999999432,
                "tempo": 120.0
            },
            {
                "start_time": 47.695454545454545,
                "end_time": 47.79545454545454,
                "pitch": 65,
                "velocity": 51,
                "duration": 0.09999999999999432,
                "tempo": 120.0
            },
            {
                "start_time": 47.82727272727273,
                "end_time": 47.92727272727272,
                "pitch": 64,
                "velocity": 51,
                "duration": 0.09999999999999432,
                "tempo": 120.0
            },
            {
                "start_time": 47.961363636363636,
                "end_time": 48.06136363636364,
                "pitch": 62,
                "velocity": 51,
                "duration": 0.10000000000000142,
                "tempo": 120.0
            },
            {
                "start_time": 48.095454545454544,
                "end_time": 48.195454545454545,
                "pitch": 64,
                "velocity": 51,
                "duration": 0.10000000000000142,
                "tempo": 120.0
            },
            {
                "start_time": 48.22727272727273,
                "end_time": 48.32727272727273,
                "pitch": 72,
                "velocity": 51,
                "duration": 0.10000000000000142,
                "tempo": 120.0
            },
            {
                "start_time": 48.361363636363635,
                "end_time": 48.461363636363636,
                "pitch": 64,
                "velocity": 51,
                "duration": 0.10000000000000142,
                "tempo": 120.0
            },
            {
                "start_time": 48.49545454545454,
                "end_time": 48.595454545454544,
                "pitch": 72,
                "velocity": 51,
                "duration": 0.10000000000000142,
                "tempo": 120.0
            },
            {
                "start_time": 48.62954545454545,
                "end_time": 48.72954545454545,
                "pitch": 64,
                "velocity": 51,
                "duration": 0.10000000000000142,
                "tempo": 120.0
            },
            {
                "start_time": 48.76363636363636,
                "end_time": 48.86363636363636,
                "pitch": 72,
                "velocity": 51,
                "duration": 0.10000000000000142,
                "tempo": 120.0
            },
            {
                "start_time": 48.89772727272727,
                "end_time": 48.99772727272727,
                "pitch": 65,
                "velocity": 51,
                "duration": 0.09999999999999432,
                "tempo": 120.0
            },
            {
                "start_time": 49.02954545454545,
                "end_time": 49.12954545454545,
                "pitch": 74,
                "velocity": 51,
                "duration": 0.10000000000000142,
                "tempo": 120.0
            },
            {
                "start_time": 49.163636363636364,
                "end_time": 49.26363636363636,
                "pitch": 65,
                "velocity": 51,
                "duration": 0.09999999999999432,
                "tempo": 120.0
            },
            {
                "start_time": 49.29772727272727,
                "end_time": 49.39772727272727,
                "pitch": 74,
                "velocity": 51,
                "duration": 0.10000000000000142,
                "tempo": 120.0
            },
            {
                "start_time": 49.429545454545455,
                "end_time": 49.52954545454545,
                "pitch": 65,
                "velocity": 51,
                "duration": 0.09999999999999432,
                "tempo": 120.0
            },
            {
                "start_time": 49.56363636363636,
                "end_time": 49.663636363636364,
                "pitch": 74,
                "velocity": 51,
                "duration": 0.10000000000000142,
                "tempo": 120.0
            },
            {
                "start_time": 49.69772727272727,
                "end_time": 49.79772727272727,
                "pitch": 76,
                "velocity": 51,
                "duration": 0.10000000000000142,
                "tempo": 120.0
            },
            {
                "start_time": 49.82954545454545,
                "end_time": 49.929545454545455,
                "pitch": 74,
                "velocity": 51,
                "duration": 0.10000000000000142,
                "tempo": 120.0
            },
            {
                "start_time": 49.96363636363636,
                "end_time": 50.06363636363636,
                "pitch": 72,
                "velocity": 51,
                "duration": 0.10000000000000142,
                "tempo": 120.0
            },
            {
                "start_time": 50.09772727272727,
                "end_time": 50.19772727272727,
                "pitch": 60,
                "velocity": 51,
                "duration": 0.10000000000000142,
                "tempo": 120.0
            },
            {
                "start_time": 50.22954545454545,
                "end_time": 50.32954545454545,
                "pitch": 62,
                "velocity": 51,
                "duration": 0.10000000000000142,
                "tempo": 120.0
            },
            {
                "start_time": 50.36363636363636,
                "end_time": 50.46363636363636,
                "pitch": 64,
                "velocity": 51,
                "duration": 0.10000000000000142,
                "tempo": 120.0
            },
            {
                "start_time": 50.49772727272727,
                "end_time": 50.58181818181818,
                "pitch": 74,
                "velocity": 51,
                "duration": 0.08409090909091077,
                "tempo": 120.0
            },
            {
                "start_time": 50.59772727272727,
                "end_time": 50.68181818181818,
                "pitch": 72,
                "velocity": 51,
                "duration": 0.08409090909091077,
                "tempo": 120.0
            },
            {
                "start_time": 50.69772727272727,
                "end_time": 50.78181818181818,
                "pitch": 71,
                "velocity": 51,
                "duration": 0.08409090909091077,
                "tempo": 120.0
            },
            {
                "start_time": 50.8,
                "end_time": 50.88181818181818,
                "pitch": 69,
                "velocity": 51,
                "duration": 0.08181818181818556,
                "tempo": 120.0
            },
            {
                "start_time": 50.9,
                "end_time": 50.98409090909091,
                "pitch": 62,
                "velocity": 51,
                "duration": 0.08409090909091077,
                "tempo": 120.0
            },
            {
                "start_time": 51.0,
                "end_time": 51.084090909090904,
                "pitch": 64,
                "velocity": 51,
                "duration": 0.08409090909090366,
                "tempo": 120.0
            },
            {
                "start_time": 51.099999999999994,
                "end_time": 51.184090909090905,
                "pitch": 65,
                "velocity": 51,
                "duration": 0.08409090909091077,
                "tempo": 120.0
            },
            {
                "start_time": 51.199999999999996,
                "end_time": 51.28409090909091,
                "pitch": 68,
                "velocity": 51,
                "duration": 0.08409090909091077,
                "tempo": 120.0
            },
            {
                "start_time": 51.3,
                "end_time": 51.38409090909091,
                "pitch": 69,
                "velocity": 51,
                "duration": 0.08409090909091077,
                "tempo": 120.0
            },
            {
                "start_time": 51.4,
                "end_time": 51.48409090909091,
                "pitch": 71,
                "velocity": 51,
                "duration": 0.08409090909091077,
                "tempo": 120.0
            },
            {
                "start_time": 51.5,
                "end_time": 51.584090909090904,
                "pitch": 72,
                "velocity": 51,
                "duration": 0.08409090909090366,
                "tempo": 120.0
            },
            {
                "start_time": 51.599999999999994,
                "end_time": 51.684090909090905,
                "pitch": 74,
                "velocity": 51,
                "duration": 0.08409090909091077,
                "tempo": 120.0
            },
            {
                "start_time": 51.699999999999996,
                "end_time": 51.78409090909091,
                "pitch": 76,
                "velocity": 51,
                "duration": 0.08409090909091077,
                "tempo": 120.0
            },
            {
                "start_time": 51.8,
                "end_time": 51.88409090909091,
                "pitch": 77,
                "velocity": 51,
                "duration": 0.08409090909091077,
                "tempo": 120.0
            },
            {
                "start_time": 51.9,
                "end_time": 51.98409090909091,
                "pitch": 80,
                "velocity": 51,
                "duration": 0.08409090909091077,
                "tempo": 120.0
            },
            {
                "start_time": 52.0,
                "end_time": 52.084090909090904,
                "pitch": 81,
                "velocity": 51,
                "duration": 0.08409090909090366,
                "tempo": 120.0
            },
            {
                "start_time": 52.099999999999994,
                "end_time": 52.184090909090905,
                "pitch": 83,
                "velocity": 51,
                "duration": 0.08409090909091077,
                "tempo": 120.0
            },
            {
                "start_time": 52.199999999999996,
                "end_time": 52.28409090909091,
                "pitch": 81,
                "velocity": 51,
                "duration": 0.08409090909091077,
                "tempo": 120.0
            },
            {
                "start_time": 52.3,
                "end_time": 52.38409090909091,
                "pitch": 80,
                "velocity": 51,
                "duration": 0.08409090909091077,
                "tempo": 120.0
            },
            {
                "start_time": 52.4,
                "end_time": 52.55,
                "pitch": 77,
                "velocity": 51,
                "duration": 0.14999999999999858,
                "tempo": 120.0
            },
            {
                "start_time": 52.599999999999994,
                "end_time": 52.684090909090905,
                "pitch": 80,
                "velocity": 51,
                "duration": 0.08409090909091077,
                "tempo": 120.0
            },
            {
                "start_time": 52.699999999999996,
                "end_time": 52.78409090909091,
                "pitch": 77,
                "velocity": 51,
                "duration": 0.08409090909091077,
                "tempo": 120.0
            },
            {
                "start_time": 52.80227272727272,
                "end_time": 52.88636363636363,
                "pitch": 76,
                "velocity": 51,
                "duration": 0.08409090909091077,
                "tempo": 120.0
            },
            {
                "start_time": 52.902272727272724,
                "end_time": 53.002272727272725,
                "pitch": 81,
                "velocity": 51,
                "duration": 0.10000000000000142,
                "tempo": 120.0
            },
            {
                "start_time": 53.03636363636363,
                "end_time": 53.13636363636363,
                "pitch": 72,
                "velocity": 51,
                "duration": 0.10000000000000142,
                "tempo": 120.0
            },
            {
                "start_time": 53.168181818181814,
                "end_time": 53.268181818181816,
                "pitch": 81,
                "velocity": 51,
                "duration": 0.10000000000000142,
                "tempo": 120.0
            },
            {
                "start_time": 53.30227272727272,
                "end_time": 53.402272727272724,
                "pitch": 72,
                "velocity": 51,
                "duration": 0.10000000000000142,
                "tempo": 120.0
            },
            {
                "start_time": 53.43636363636363,
                "end_time": 53.53636363636363,
                "pitch": 81,
                "velocity": 51,
                "duration": 0.10000000000000142,
                "tempo": 120.0
            },
            {
                "start_time": 53.56818181818181,
                "end_time": 53.668181818181814,
                "pitch": 72,
                "velocity": 51,
                "duration": 0.10000000000000142,
                "tempo": 120.0
            },
            {
                "start_time": 53.70227272727273,
                "end_time": 53.85227272727273,
                "pitch": 81,
                "velocity": 51,
                "duration": 0.14999999999999858,
                "tempo": 120.0
            },
            {
                "start_time": 53.902272727272724,
                "end_time": 54.05227272727272,
                "pitch": 74,
                "velocity": 51,
                "duration": 0.14999999999999858,
                "tempo": 120.0
            },
            {
                "start_time": 54.10227272727273,
                "end_time": 54.252272727272725,
                "pitch": 81,
                "velocity": 51,
                "duration": 0.14999999999999858,
                "tempo": 120.0
            },
            {
                "start_time": 54.30227272727272,
                "end_time": 54.45227272727273,
                "pitch": 74,
                "velocity": 51,
                "duration": 0.15000000000000568,
                "tempo": 120.0
            },
            {
                "start_time": 54.502272727272725,
                "end_time": 54.60227272727273,
                "pitch": 81,
                "velocity": 51,
                "duration": 0.10000000000000142,
                "tempo": 120.0
            },
            {
                "start_time": 54.63636363636363,
                "end_time": 54.736363636363635,
                "pitch": 76,
                "velocity": 51,
                "duration": 0.10000000000000142,
                "tempo": 120.0
            },
            {
                "start_time": 54.77045454545454,
                "end_time": 54.87045454545454,
                "pitch": 81,
                "velocity": 51,
                "duration": 0.10000000000000142,
                "tempo": 120.0
            },
            {
                "start_time": 54.90454545454545,
                "end_time": 55.00454545454545,
                "pitch": 76,
                "velocity": 51,
                "duration": 0.10000000000000142,
                "tempo": 120.0
            },
            {
                "start_time": 55.038636363636364,
                "end_time": 55.13863636363636,
                "pitch": 81,
                "velocity": 51,
                "duration": 0.09999999999999432,
                "tempo": 120.0
            },
            {
                "start_time": 55.17272727272727,
                "end_time": 55.27272727272727,
                "pitch": 76,
                "velocity": 51,
                "duration": 0.10000000000000142,
                "tempo": 120.0
            },
            {
                "start_time": 55.304545454545455,
                "end_time": 55.38863636363636,
                "pitch": 83,
                "velocity": 51,
                "duration": 0.08409090909090366,
                "tempo": 120.0
            },
            {
                "start_time": 55.40454545454545,
                "end_time": 55.48863636363636,
                "pitch": 80,
                "velocity": 51,
                "duration": 0.08409090909091077,
                "tempo": 120.0
            },
            {
                "start_time": 55.50454545454545,
                "end_time": 55.58863636363636,
                "pitch": 77,
                "velocity": 51,
                "duration": 0.08409090909091077,
                "tempo": 120.0
            },
            {
                "start_time": 55.60454545454545,
                "end_time": 55.68863636363636,
                "pitch": 74,
                "velocity": 51,
                "duration": 0.08409090909091077,
                "tempo": 120.0
            },
            {
                "start_time": 55.70454545454545,
                "end_time": 55.788636363636364,
                "pitch": 80,
                "velocity": 51,
                "duration": 0.08409090909091077,
                "tempo": 120.0
            },
            {
                "start_time": 55.804545454545455,
                "end_time": 55.88863636363636,
                "pitch": 77,
                "velocity": 51,
                "duration": 0.08409090909090366,
                "tempo": 120.0
            },
            {
                "start_time": 55.90454545454545,
                "end_time": 55.98863636363636,
                "pitch": 74,
                "velocity": 51,
                "duration": 0.08409090909091077,
                "tempo": 120.0
            },
            {
                "start_time": 56.00454545454545,
                "end_time": 56.08863636363636,
                "pitch": 71,
                "velocity": 51,
                "duration": 0.08409090909091077,
                "tempo": 120.0
            },
            {
                "start_time": 56.10454545454545,
                "end_time": 56.25454545454545,
                "pitch": 69,
                "velocity": 51,
                "duration": 0.14999999999999858,
                "tempo": 120.0
            },
            {
                "start_time": 56.50454545454545,
                "end_time": 56.65681818181818,
                "pitch": 72,
                "velocity": 51,
                "duration": 0.1522727272727309,
                "tempo": 120.0
            },
            {
                "start_time": 56.90681818181818,
                "end_time": 57.05681818181818,
                "pitch": 71,
                "velocity": 51,
                "duration": 0.14999999999999858,
                "tempo": 120.0
            },
            {
                "start_time": 58.10681818181818,
                "end_time": 58.425,
                "pitch": 81,
                "velocity": 51,
                "duration": 0.3181818181818201,
                "tempo": 120.0
            },
            {
                "start_time": 58.506818181818176,
                "end_time": 58.82727272727272,
                "pitch": 79,
                "velocity": 51,
                "duration": 0.3204545454545453,
                "tempo": 120.0
            },
            {
                "start_time": 58.91136363636363,
                "end_time": 58.961363636363636,
                "pitch": 95,
                "velocity": 51,
                "duration": 0.05000000000000426,
                "tempo": 120.0
            },
            {
                "start_time": 58.961363636363636,
                "end_time": 58.99318181818182,
                "pitch": 92,
                "velocity": 51,
                "duration": 0.0318181818181813,
                "tempo": 120.0
            },
            {
                "start_time": 58.99318181818182,
                "end_time": 59.043181818181814,
                "pitch": 90,
                "velocity": 51,
                "duration": 0.04999999999999716,
                "tempo": 120.0
            },
            {
                "start_time": 59.043181818181814,
                "end_time": 59.07727272727272,
                "pitch": 87,
                "velocity": 51,
                "duration": 0.03409090909090651,
                "tempo": 120.0
            },
            {
                "start_time": 59.07727272727272,
                "end_time": 59.111363636363635,
                "pitch": 85,
                "velocity": 51,
                "duration": 0.03409090909091361,
                "tempo": 120.0
            },
            {
                "start_time": 59.111363636363635,
                "end_time": 59.16136363636363,
                "pitch": 83,
                "velocity": 51,
                "duration": 0.04999999999999716,
                "tempo": 120.0
            },
            {
                "start_time": 59.16136363636363,
                "end_time": 59.19318181818181,
                "pitch": 80,
                "velocity": 51,
                "duration": 0.0318181818181813,
                "tempo": 120.0
            },
            {
                "start_time": 59.19318181818181,
                "end_time": 59.24318181818182,
                "pitch": 78,
                "velocity": 51,
                "duration": 0.05000000000000426,
                "tempo": 120.0
            },
            {
                "start_time": 59.24318181818182,
                "end_time": 59.277272727272724,
                "pitch": 75,
                "velocity": 51,
                "duration": 0.03409090909090651,
                "tempo": 120.0
            },
            {
                "start_time": 59.277272727272724,
                "end_time": 59.31136363636363,
                "pitch": 73,
                "velocity": 51,
                "duration": 0.03409090909090651,
                "tempo": 120.0
            },
            {
                "start_time": 59.31136363636363,
                "end_time": 59.461363636363636,
                "pitch": 66,
                "velocity": 51,
                "duration": 0.15000000000000568,
                "tempo": 120.0
            },
            {
                "start_time": 59.51136363636363,
                "end_time": 59.66136363636363,
                "pitch": 62,
                "velocity": 51,
                "duration": 0.14999999999999858,
                "tempo": 120.0
            },
            {
                "start_time": 59.711363636363636,
                "end_time": 59.861363636363635,
                "pitch": 66,
                "velocity": 51,
                "duration": 0.14999999999999858,
                "tempo": 120.0
            },
            {
                "start_time": 59.91136363636363,
                "end_time": 60.22727272727273,
                "pitch": 64,
                "velocity": 51,
                "duration": 0.3159090909090949,
                "tempo": 120.0
            },
            {
                "start_time": 60.51136363636363,
                "end_time": 60.66136363636363,
                "pitch": 66,
                "velocity": 51,
                "duration": 0.14999999999999858,
                "tempo": 120.0
            },
            {
                "start_time": 60.711363636363636,
                "end_time": 60.86363636363636,
                "pitch": 68,
                "velocity": 51,
                "duration": 0.15227272727272378,
                "tempo": 120.0
            },
            {
                "start_time": 61.31363636363636,
                "end_time": 61.62954545454545,
                "pitch": 81,
                "velocity": 51,
                "duration": 0.3159090909090878,
                "tempo": 120.0
            },
            {
                "start_time": 61.71363636363636,
                "end_time": 62.02954545454545,
                "pitch": 79,
                "velocity": 51,
                "duration": 0.3159090909090878,
                "tempo": 120.0
            },
            {
                "start_time": 62.11363636363636,
                "end_time": 62.163636363636364,
                "pitch": 95,
                "velocity": 51,
                "duration": 0.05000000000000426,
                "tempo": 120.0
            },
            {
                "start_time": 62.163636363636364,
                "end_time": 62.195454545454545,
                "pitch": 92,
                "velocity": 51,
                "duration": 0.0318181818181813,
                "tempo": 120.0
            },
            {
                "start_time": 62.195454545454545,
                "end_time": 62.24545454545454,
                "pitch": 90,
                "velocity": 51,
                "duration": 0.04999999999999716,
                "tempo": 120.0
            },
            {
                "start_time": 62.24545454545454,
                "end_time": 62.27954545454545,
                "pitch": 87,
                "velocity": 51,
                "duration": 0.03409090909090651,
                "tempo": 120.0
            },
            {
                "start_time": 62.27954545454545,
                "end_time": 62.31363636363636,
                "pitch": 85,
                "velocity": 51,
                "duration": 0.03409090909091361,
                "tempo": 120.0
            },
            {
                "start_time": 62.31363636363636,
                "end_time": 62.36363636363636,
                "pitch": 83,
                "velocity": 51,
                "duration": 0.04999999999999716,
                "tempo": 120.0
            },
            {
                "start_time": 62.36363636363636,
                "end_time": 62.39545454545454,
                "pitch": 80,
                "velocity": 51,
                "duration": 0.0318181818181813,
                "tempo": 120.0
            },
            {
                "start_time": 62.39545454545454,
                "end_time": 62.445454545454545,
                "pitch": 78,
                "velocity": 51,
                "duration": 0.05000000000000426,
                "tempo": 120.0
            },
            {
                "start_time": 62.445454545454545,
                "end_time": 62.47954545454545,
                "pitch": 75,
                "velocity": 51,
                "duration": 0.03409090909090651,
                "tempo": 120.0
            },
            {
                "start_time": 62.47954545454545,
                "end_time": 62.51363636363636,
                "pitch": 73,
                "velocity": 51,
                "duration": 0.03409090909090651,
                "tempo": 120.0
            },
            {
                "start_time": 62.51363636363636,
                "end_time": 62.663636363636364,
                "pitch": 65,
                "velocity": 51,
                "duration": 0.15000000000000568,
                "tempo": 120.0
            },
            {
                "start_time": 62.71363636363636,
                "end_time": 62.865909090909085,
                "pitch": 72,
                "velocity": 51,
                "duration": 0.15227272727272378,
                "tempo": 120.0
            },
            {
                "start_time": 62.91590909090909,
                "end_time": 63.06590909090909,
                "pitch": 69,
                "velocity": 51,
                "duration": 0.14999999999999858,
                "tempo": 120.0
            },
            {
                "start_time": 63.115909090909085,
                "end_time": 63.26590909090909,
                "pitch": 65,
                "velocity": 51,
                "duration": 0.15000000000000568,
                "tempo": 120.0
            },
            {
                "start_time": 63.31590909090909,
                "end_time": 63.465909090909086,
                "pitch": 64,
                "velocity": 51,
                "duration": 0.14999999999999858,
                "tempo": 120.0
            },
            {
                "start_time": 63.51590909090909,
                "end_time": 63.66590909090909,
                "pitch": 68,
                "velocity": 51,
                "duration": 0.14999999999999858,
                "tempo": 120.0
            },
            {
                "start_time": 63.715909090909086,
                "end_time": 63.865909090909085,
                "pitch": 71,
                "velocity": 51,
                "duration": 0.14999999999999858,
                "tempo": 120.0
            },
            {
                "start_time": 63.91590909090909,
                "end_time": 64.06590909090909,
                "pitch": 68,
                "velocity": 51,
                "duration": 0.14999999999999858,
                "tempo": 120.0
            },
            {
                "start_time": 64.51590909090909,
                "end_time": 64.83181818181818,
                "pitch": 81,
                "velocity": 51,
                "duration": 0.3159090909090878,
                "tempo": 120.0
            },
            {
                "start_time": 64.91590909090908,
                "end_time": 65.23409090909091,
                "pitch": 79,
                "velocity": 51,
                "duration": 0.3181818181818272,
                "tempo": 120.0
            },
            {
                "start_time": 65.31818181818181,
                "end_time": 65.36818181818181,
                "pitch": 95,
                "velocity": 51,
                "duration": 0.04999999999999716,
                "tempo": 120.0
            },
            {
                "start_time": 65.36818181818181,
                "end_time": 65.40227272727273,
                "pitch": 92,
                "velocity": 51,
                "duration": 0.03409090909092072,
                "tempo": 120.0
            },
            {
                "start_time": 65.40227272727273,
                "end_time": 65.45227272727273,
                "pitch": 90,
                "velocity": 51,
                "duration": 0.04999999999999716,
                "tempo": 120.0
            },
            {
                "start_time": 65.45227272727273,
                "end_time": 65.48636363636363,
                "pitch": 87,
                "velocity": 51,
                "duration": 0.03409090909090651,
                "tempo": 120.0
            },
            {
                "start_time": 65.48636363636363,
                "end_time": 65.52045454545454,
                "pitch": 85,
                "velocity": 51,
                "duration": 0.03409090909090651,
                "tempo": 120.0
            },
            {
                "start_time": 65.52045454545454,
                "end_time": 65.57045454545454,
                "pitch": 83,
                "velocity": 51,
                "duration": 0.04999999999999716,
                "tempo": 120.0
            },
            {
                "start_time": 65.57045454545454,
                "end_time": 65.60454545454544,
                "pitch": 80,
                "velocity": 51,
                "duration": 0.03409090909090651,
                "tempo": 120.0
            },
            {
                "start_time": 65.60454545454544,
                "end_time": 65.65454545454546,
                "pitch": 78,
                "velocity": 51,
                "duration": 0.05000000000001137,
                "tempo": 120.0
            },
            {
                "start_time": 65.65454545454546,
                "end_time": 65.68863636363636,
                "pitch": 75,
                "velocity": 51,
                "duration": 0.03409090909090651,
                "tempo": 120.0
            },
            {
                "start_time": 65.68863636363636,
                "end_time": 65.72045454545454,
                "pitch": 73,
                "velocity": 51,
                "duration": 0.0318181818181813,
                "tempo": 120.0
            },
            {
                "start_time": 65.72045454545454,
                "end_time": 65.87045454545454,
                "pitch": 66,
                "velocity": 51,
                "duration": 0.14999999999999147,
                "tempo": 120.0
            },
            {
                "start_time": 65.92045454545455,
                "end_time": 66.07045454545454,
                "pitch": 62,
                "velocity": 51,
                "duration": 0.14999999999999147,
                "tempo": 120.0
            },
            {
                "start_time": 66.12045454545454,
                "end_time": 66.27272727272727,
                "pitch": 66,
                "velocity": 51,
                "duration": 0.1522727272727309,
                "tempo": 120.0
            },
            {
                "start_time": 66.32272727272726,
                "end_time": 66.64090909090909,
                "pitch": 64,
                "velocity": 51,
                "duration": 0.3181818181818272,
                "tempo": 120.0
            },
            {
                "start_time": 66.925,
                "end_time": 67.075,
                "pitch": 66,
                "velocity": 51,
                "duration": 0.15000000000000568,
                "tempo": 120.0
            },
            {
                "start_time": 67.125,
                "end_time": 67.27727272727273,
                "pitch": 68,
                "velocity": 51,
                "duration": 0.1522727272727309,
                "tempo": 120.0
            },
            {
                "start_time": 67.72954545454544,
                "end_time": 68.04545454545455,
                "pitch": 81,
                "velocity": 51,
                "duration": 0.315909090909102,
                "tempo": 120.0
            },
            {
                "start_time": 68.12954545454545,
                "end_time": 68.44772727272726,
                "pitch": 79,
                "velocity": 51,
                "duration": 0.318181818181813,
                "tempo": 120.0
            },
            {
                "start_time": 68.53181818181818,
                "end_time": 68.58181818181818,
                "pitch": 95,
                "velocity": 51,
                "duration": 0.04999999999999716,
                "tempo": 120.0
            },
            {
                "start_time": 68.58181818181818,
                "end_time": 68.61590909090908,
                "pitch": 92,
                "velocity": 51,
                "duration": 0.03409090909090651,
                "tempo": 120.0
            },
            {
                "start_time": 68.61590909090908,
                "end_time": 68.66590909090908,
                "pitch": 90,
                "velocity": 51,
                "duration": 0.04999999999999716,
                "tempo": 120.0
            },
            {
                "start_time": 68.66590909090908,
                "end_time": 68.69772727272726,
                "pitch": 87,
                "velocity": 51,
                "duration": 0.0318181818181813,
                "tempo": 120.0
            },
            {
                "start_time": 68.69772727272726,
                "end_time": 68.73181818181818,
                "pitch": 85,
                "velocity": 51,
                "duration": 0.03409090909092072,
                "tempo": 120.0
            },
            {
                "start_time": 68.73181818181818,
                "end_time": 68.78181818181818,
                "pitch": 83,
                "velocity": 51,
                "duration": 0.04999999999999716,
                "tempo": 120.0
            },
            {
                "start_time": 68.78181818181818,
                "end_time": 68.81590909090909,
                "pitch": 80,
                "velocity": 51,
                "duration": 0.03409090909090651,
                "tempo": 120.0
            },
            {
                "start_time": 68.81590909090909,
                "end_time": 68.86590909090908,
                "pitch": 78,
                "velocity": 51,
                "duration": 0.04999999999999716,
                "tempo": 120.0
            },
            {
                "start_time": 68.86590909090908,
                "end_time": 68.89772727272727,
                "pitch": 75,
                "velocity": 51,
                "duration": 0.0318181818181813,
                "tempo": 120.0
            },
            {
                "start_time": 68.89772727272727,
                "end_time": 68.93181818181817,
                "pitch": 73,
                "velocity": 51,
                "duration": 0.03409090909090651,
                "tempo": 120.0
            },
            {
                "start_time": 68.93181818181817,
                "end_time": 69.08181818181818,
                "pitch": 65,
                "velocity": 51,
                "duration": 0.15000000000000568,
                "tempo": 120.0
            },
            {
                "start_time": 69.1340909090909,
                "end_time": 69.2840909090909,
                "pitch": 72,
                "velocity": 51,
                "duration": 0.15000000000000568,
                "tempo": 120.0
            },
            {
                "start_time": 69.3340909090909,
                "end_time": 69.48636363636363,
                "pitch": 69,
                "velocity": 51,
                "duration": 0.1522727272727309,
                "tempo": 120.0
            },
            {
                "start_time": 69.53636363636363,
                "end_time": 69.68636363636364,
                "pitch": 65,
                "velocity": 51,
                "duration": 0.15000000000000568,
                "tempo": 120.0
            },
            {
                "start_time": 69.73636363636363,
                "end_time": 69.88636363636363,
                "pitch": 67,
                "velocity": 51,
                "duration": 0.14999999999999147,
                "tempo": 120.0
            },
            {
                "start_time": 69.93636363636364,
                "end_time": 70.08636363636363,
                "pitch": 71,
                "velocity": 51,
                "duration": 0.14999999999999147,
                "tempo": 120.0
            },
            {
                "start_time": 70.13636363636363,
                "end_time": 70.28863636363636,
                "pitch": 74,
                "velocity": 51,
                "duration": 0.1522727272727309,
                "tempo": 120.0
            },
            {
                "start_time": 70.33863636363635,
                "end_time": 70.48863636363636,
                "pitch": 71,
                "velocity": 51,
                "duration": 0.15000000000000568,
                "tempo": 120.0
            },
            {
                "start_time": 96.64545454545454,
                "end_time": 96.79090909090908,
                "pitch": 84,
                "velocity": 51,
                "duration": 0.14545454545454106,
                "tempo": 120.0
            },
            {
                "start_time": 96.84090909090908,
                "end_time": 96.98863636363636,
                "pitch": 84,
                "velocity": 51,
                "duration": 0.14772727272728048,
                "tempo": 120.0
            },
            {
                "start_time": 97.03636363636363,
                "end_time": 97.18863636363636,
                "pitch": 83,
                "velocity": 51,
                "duration": 0.1522727272727309,
                "tempo": 120.0
            },
            {
                "start_time": 97.43863636363636,
                "end_time": 97.59090909090908,
                "pitch": 84,
                "velocity": 51,
                "duration": 0.15227272727271668,
                "tempo": 120.0
            },
            {
                "start_time": 97.64090909090909,
                "end_time": 97.79090909090908,
                "pitch": 84,
                "velocity": 51,
                "duration": 0.14999999999999147,
                "tempo": 120.0
            },
            {
                "start_time": 97.84318181818182,
                "end_time": 97.99318181818181,
                "pitch": 86,
                "velocity": 51,
                "duration": 0.14999999999999147,
                "tempo": 120.0
            },
            {
                "start_time": 98.24318181818181,
                "end_time": 98.39318181818182,
                "pitch": 84,
                "velocity": 51,
                "duration": 0.15000000000000568,
                "tempo": 120.0
            },
            {
                "start_time": 98.44318181818181,
                "end_time": 98.59545454545454,
                "pitch": 83,
                "velocity": 51,
                "duration": 0.1522727272727309,
                "tempo": 120.0
            },
            {
                "start_time": 98.64545454545454,
                "end_time": 98.79545454545455,
                "pitch": 84,
                "velocity": 51,
                "duration": 0.15000000000000568,
                "tempo": 120.0
            },
            {
                "start_time": 99.85,
                "end_time": 100.0,
                "pitch": 84,
                "velocity": 51,
                "duration": 0.15000000000000568,
                "tempo": 120.0
            },
            {
                "start_time": 100.05,
                "end_time": 100.19999999999999,
                "pitch": 84,
                "velocity": 51,
                "duration": 0.14999999999999147,
                "tempo": 120.0
            },
            {
                "start_time": 100.25,
                "end_time": 100.40227272727272,
                "pitch": 83,
                "velocity": 51,
                "duration": 0.15227272727271668,
                "tempo": 120.0
            },
            {
                "start_time": 100.65227272727272,
                "end_time": 100.80227272727272,
                "pitch": 84,
                "velocity": 51,
                "duration": 0.15000000000000568,
                "tempo": 120.0
            },
            {
                "start_time": 100.85227272727272,
                "end_time": 101.00227272727273,
                "pitch": 84,
                "velocity": 51,
                "duration": 0.15000000000000568,
                "tempo": 120.0
            },
            {
                "start_time": 101.05227272727272,
                "end_time": 101.20454545454545,
                "pitch": 79,
                "velocity": 51,
                "duration": 0.1522727272727309,
                "tempo": 120.0
            },
            {
                "start_time": 101.45681818181818,
                "end_time": 101.60681818181817,
                "pitch": 75,
                "velocity": 51,
                "duration": 0.14999999999999147,
                "tempo": 120.0
            },
            {
                "start_time": 101.85909090909091,
                "end_time": 102.0090909090909,
                "pitch": 74,
                "velocity": 51,
                "duration": 0.14999999999999147,
                "tempo": 120.0
            },
            {
                "start_time": 102.2590909090909,
                "end_time": 102.4090909090909,
                "pitch": 79,
                "velocity": 51,
                "duration": 0.15000000000000568,
                "tempo": 120.0
            },
            {
                "start_time": 103.06136363636364,
                "end_time": 103.21136363636363,
                "pitch": 84,
                "velocity": 51,
                "duration": 0.14999999999999147,
                "tempo": 120.0
            },
            {
                "start_time": 103.26136363636363,
                "end_time": 103.41363636363636,
                "pitch": 84,
                "velocity": 51,
                "duration": 0.1522727272727309,
                "tempo": 120.0
            },
            {
                "start_time": 103.46363636363635,
                "end_time": 103.61590909090908,
                "pitch": 83,
                "velocity": 51,
                "duration": 0.1522727272727309,
                "tempo": 120.0
            },
            {
                "start_time": 103.86590909090908,
                "end_time": 104.01590909090909,
                "pitch": 84,
                "velocity": 51,
                "duration": 0.15000000000000568,
                "tempo": 120.0
            },
            {
                "start_time": 104.06590909090909,
                "end_time": 104.21590909090908,
                "pitch": 84,
                "velocity": 51,
                "duration": 0.14999999999999147,
                "tempo": 120.0
            },
            {
                "start_time": 104.26590909090909,
                "end_time": 104.41818181818181,
                "pitch": 86,
                "velocity": 51,
                "duration": 0.15227272727271668,
                "tempo": 120.0
            },
            {
                "start_time": 104.66818181818181,
                "end_time": 104.81818181818181,
                "pitch": 84,
                "velocity": 51,
                "duration": 0.15000000000000568,
                "tempo": 120.0
            },
            {
                "start_time": 104.86818181818181,
                "end_time": 105.01818181818182,
                "pitch": 83,
                "velocity": 51,
                "duration": 0.15000000000000568,
                "tempo": 120.0
            },
            {
                "start_time": 105.06818181818181,
                "end_time": 105.22045454545454,
                "pitch": 84,
                "velocity": 51,
                "duration": 0.1522727272727309,
                "tempo": 120.0
            },
            {
                "start_time": 106.27499999999999,
                "end_time": 106.425,
                "pitch": 84,
                "velocity": 51,
                "duration": 0.15000000000000568,
                "tempo": 120.0
            },
            {
                "start_time": 106.475,
                "end_time": 106.62727272727273,
                "pitch": 84,
                "velocity": 51,
                "duration": 0.1522727272727309,
                "tempo": 120.0
            },
            {
                "start_time": 106.67727272727272,
                "end_time": 106.82727272727273,
                "pitch": 83,
                "velocity": 51,
                "duration": 0.15000000000000568,
                "tempo": 120.0
            },
            {
                "start_time": 107.07727272727273,
                "end_time": 107.22727272727272,
                "pitch": 84,
                "velocity": 51,
                "duration": 0.14999999999999147,
                "tempo": 120.0
            },
            {
                "start_time": 107.27954545454546,
                "end_time": 107.42954545454545,
                "pitch": 84,
                "velocity": 51,
                "duration": 0.14999999999999147,
                "tempo": 120.0
            },
            {
                "start_time": 107.47954545454544,
                "end_time": 107.63181818181818,
                "pitch": 79,
                "velocity": 51,
                "duration": 0.1522727272727309,
                "tempo": 120.0
            },
            {
                "start_time": 107.88181818181818,
                "end_time": 108.03181818181818,
                "pitch": 75,
                "velocity": 51,
                "duration": 0.15000000000000568,
                "tempo": 120.0
            },
            {
                "start_time": 108.28181818181818,
                "end_time": 108.4340909090909,
                "pitch": 74,
                "velocity": 51,
                "duration": 0.15227272727271668,
                "tempo": 120.0
            },
            {
                "start_time": 108.68636363636364,
                "end_time": 108.83636363636363,
                "pitch": 72,
                "velocity": 51,
                "duration": 0.14999999999999147,
                "tempo": 120.0
            },
            {
                "start_time": 109.48863636363636,
                "end_time": 109.63863636363635,
                "pitch": 81,
                "velocity": 51,
                "duration": 0.14999999999999147,
                "tempo": 120.0
            },
            {
                "start_time": 109.68863636363636,
                "end_time": 109.84090909090908,
                "pitch": 81,
                "velocity": 51,
                "duration": 0.15227272727271668,
                "tempo": 120.0
            },
            {
                "start_time": 109.89090909090909,
                "end_time": 110.04090909090908,
                "pitch": 80,
                "velocity": 51,
                "duration": 0.14999999999999147,
                "tempo": 120.0
            },
            {
                "start_time": 110.29090909090908,
                "end_time": 110.44090909090909,
                "pitch": 81,
                "velocity": 51,
                "duration": 0.15000000000000568,
                "tempo": 120.0
            },
            {
                "start_time": 110.49090909090908,
                "end_time": 110.64318181818182,
                "pitch": 81,
                "velocity": 51,
                "duration": 0.1522727272727309,
                "tempo": 120.0
            },
            {
                "start_time": 110.69318181818181,
                "end_time": 110.84318181818182,
                "pitch": 83,
                "velocity": 51,
                "duration": 0.15000000000000568,
                "tempo": 120.0
            },
            {
                "start_time": 111.09318181818182,
                "end_time": 111.24545454545454,
                "pitch": 81,
                "velocity": 51,
                "duration": 0.15227272727271668,
                "tempo": 120.0
            },
            {
                "start_time": 111.29545454545455,
                "end_time": 111.44545454545454,
                "pitch": 80,
                "velocity": 51,
                "duration": 0.14999999999999147,
                "tempo": 120.0
            },
            {
                "start_time": 111.49545454545454,
                "end_time": 111.64772727272727,
                "pitch": 81,
                "velocity": 51,
                "duration": 0.1522727272727309,
                "tempo": 120.0
            },
            {
                "start_time": 111.89772727272727,
                "end_time": 112.04772727272727,
                "pitch": 83,
                "velocity": 51,
                "duration": 0.15000000000000568,
                "tempo": 120.0
            },
            {
                "start_time": 112.09772727272727,
                "end_time": 112.24772727272726,
                "pitch": 84,
                "velocity": 51,
                "duration": 0.14999999999999147,
                "tempo": 120.0
            },
            {
                "start_time": 112.29772727272727,
                "end_time": 112.44999999999999,
                "pitch": 86,
                "velocity": 51,
                "duration": 0.15227272727271668,
                "tempo": 120.0
            },
            {
                "start_time": 112.70227272727273,
                "end_time": 112.85227272727272,
                "pitch": 84,
                "velocity": 51,
                "duration": 0.14999999999999147,
                "tempo": 120.0
            },
            {
                "start_time": 112.90227272727272,
                "end_time": 113.05227272727272,
                "pitch": 83,
                "velocity": 51,
                "duration": 0.15000000000000568,
                "tempo": 120.0
            },
            {
                "start_time": 113.10227272727272,
                "end_time": 113.25227272727273,
                "pitch": 84,
                "velocity": 51,
                "duration": 0.15000000000000568,
                "tempo": 120.0
            },
            {
                "start_time": 113.50454545454545,
                "end_time": 113.65454545454546,
                "pitch": 86,
                "velocity": 51,
                "duration": 0.15000000000000568,
                "tempo": 120.0
            },
            {
                "start_time": 113.70454545454545,
                "end_time": 113.85681818181817,
                "pitch": 88,
                "velocity": 51,
                "duration": 0.15227272727271668,
                "tempo": 120.0
            },
            {
                "start_time": 113.90681818181818,
                "end_time": 114.05681818181817,
                "pitch": 89,
                "velocity": 51,
                "duration": 0.14999999999999147,
                "tempo": 120.0
            },
            {
                "start_time": 114.30681818181817,
                "end_time": 114.45681818181818,
                "pitch": 88,
                "velocity": 51,
                "duration": 0.15000000000000568,
                "tempo": 120.0
            },
            {
                "start_time": 115.91590909090908,
                "end_time": 116.06590909090909,
                "pitch": 81,
                "velocity": 51,
                "duration": 0.15000000000000568,
                "tempo": 120.0
            },
            {
                "start_time": 116.11590909090908,
                "end_time": 116.26590909090909,
                "pitch": 81,
                "velocity": 51,
                "duration": 0.15000000000000568,
                "tempo": 120.0
            },
            {
                "start_time": 116.31590909090909,
                "end_time": 116.46590909090908,
                "pitch": 80,
                "velocity": 51,
                "duration": 0.14999999999999147,
                "tempo": 120.0
            },
            {
                "start_time": 116.71818181818182,
                "end_time": 116.86818181818181,
                "pitch": 81,
                "velocity": 51,
                "duration": 0.14999999999999147,
                "tempo": 120.0
            },
            {
                "start_time": 116.91818181818181,
                "end_time": 117.06818181818181,
                "pitch": 81,
                "velocity": 51,
                "duration": 0.15000000000000568,
                "tempo": 120.0
            },
            {
                "start_time": 117.11818181818181,
                "end_time": 117.26818181818182,
                "pitch": 83,
                "velocity": 51,
                "duration": 0.15000000000000568,
                "tempo": 120.0
            },
            {
                "start_time": 117.52045454545454,
                "end_time": 117.67045454545455,
                "pitch": 81,
                "velocity": 51,
                "duration": 0.15000000000000568,
                "tempo": 120.0
            },
            {
                "start_time": 117.72045454545454,
                "end_time": 117.87272727272726,
                "pitch": 80,
                "velocity": 51,
                "duration": 0.15227272727271668,
                "tempo": 120.0
            },
            {
                "start_time": 117.92272727272727,
                "end_time": 118.07272727272726,
                "pitch": 81,
                "velocity": 51,
                "duration": 0.14999999999999147,
                "tempo": 120.0
            },
            {
                "start_time": 118.32272727272726,
                "end_time": 118.475,
                "pitch": 83,
                "velocity": 51,
                "duration": 0.1522727272727309,
                "tempo": 120.0
            },
            {
                "start_time": 118.52499999999999,
                "end_time": 118.675,
                "pitch": 84,
                "velocity": 51,
                "duration": 0.15000000000000568,
                "tempo": 120.0
            },
            {
                "start_time": 118.725,
                "end_time": 118.875,
                "pitch": 86,
                "velocity": 51,
                "duration": 0.15000000000000568,
                "tempo": 120.0
            },
            {
                "start_time": 118.925,
                "end_time": 119.07499999999999,
                "pitch": 84,
                "velocity": 51,
                "duration": 0.14999999999999147,
                "tempo": 120.0
            },
            {
                "start_time": 119.125,
                "end_time": 119.27727272727272,
                "pitch": 83,
                "velocity": 51,
                "duration": 0.15227272727271668,
                "tempo": 120.0
            },
            {
                "start_time": 119.32727272727273,
                "end_time": 119.47727272727272,
                "pitch": 81,
                "velocity": 51,
                "duration": 0.14999999999999147,
                "tempo": 120.0
            },
            {
                "start_time": 119.52727272727272,
                "end_time": 119.67954545454545,
                "pitch": 84,
                "velocity": 51,
                "duration": 0.1522727272727309,
                "tempo": 120.0
            },
            {
                "start_time": 119.72954545454544,
                "end_time": 119.87954545454545,
                "pitch": 83,
                "velocity": 51,
                "duration": 0.15000000000000568,
                "tempo": 120.0
            },
            {
                "start_time": 119.93181818181817,
                "end_time": 120.08181818181818,
                "pitch": 81,
                "velocity": 51,
                "duration": 0.15000000000000568,
                "tempo": 120.0
            },
            {
                "start_time": 120.13181818181818,
                "end_time": 120.28181818181818,
                "pitch": 80,
                "velocity": 51,
                "duration": 0.15000000000000568,
                "tempo": 120.0
            },
            {
                "start_time": 120.33181818181818,
                "end_time": 120.48181818181817,
                "pitch": 81,
                "velocity": 51,
                "duration": 0.14999999999999147,
                "tempo": 120.0
            },
            {
                "start_time": 121.95681818181818,
                "end_time": 122.09318181818182,
                "pitch": 72,
                "velocity": 51,
                "duration": 0.13636363636364024,
                "tempo": 120.0
            },
            {
                "start_time": 122.14318181818182,
                "end_time": 122.29772727272727,
                "pitch": 63,
                "velocity": 51,
                "duration": 0.1545454545454561,
                "tempo": 120.0
            },
            {
                "start_time": 122.35,
                "end_time": 122.49772727272726,
                "pitch": 79,
                "velocity": 51,
                "duration": 0.14772727272726627,
                "tempo": 120.0
            },
            {
                "start_time": 122.54545454545453,
                "end_time": 122.69318181818181,
                "pitch": 84,
                "velocity": 51,
                "duration": 0.14772727272728048,
                "tempo": 120.0
            },
            {
                "start_time": 122.74090909090908,
                "end_time": 123.37727272727273,
                "pitch": 83,
                "velocity": 51,
                "duration": 0.6363636363636402,
                "tempo": 120.0
            },
            {
                "start_time": 123.54545454545453,
                "end_time": 123.69545454545454,
                "pitch": 72,
                "velocity": 51,
                "duration": 0.15000000000000568,
                "tempo": 120.0
            },
            {
                "start_time": 123.74545454545454,
                "end_time": 123.89772727272727,
                "pitch": 63,
                "velocity": 51,
                "duration": 0.1522727272727309,
                "tempo": 120.0
            },
            {
                "start_time": 123.94772727272726,
                "end_time": 124.09772727272727,
                "pitch": 79,
                "velocity": 51,
                "duration": 0.15000000000000568,
                "tempo": 120.0
            },
            {
                "start_time": 124.14772727272727,
                "end_time": 124.29772727272727,
                "pitch": 84,
                "velocity": 51,
                "duration": 0.15000000000000568,
                "tempo": 120.0
            },
            {
                "start_time": 124.34772727272727,
                "end_time": 124.98409090909091,
                "pitch": 83,
                "velocity": 51,
                "duration": 0.6363636363636402,
                "tempo": 120.0
            },
            {
                "start_time": 125.14999999999999,
                "end_time": 125.3,
                "pitch": 67,
                "velocity": 51,
                "duration": 0.15000000000000568,
                "tempo": 120.0
            },
            {
                "start_time": 125.35227272727272,
                "end_time": 125.50227272727273,
                "pitch": 72,
                "velocity": 51,
                "duration": 0.15000000000000568,
                "tempo": 120.0
            },
            {
                "start_time": 125.55227272727272,
                "end_time": 125.70454545454545,
                "pitch": 75,
                "velocity": 51,
                "duration": 0.1522727272727309,
                "tempo": 120.0
            },
            {
                "start_time": 125.75454545454545,
                "end_time": 125.90454545454544,
                "pitch": 79,
                "velocity": 51,
                "duration": 0.14999999999999147,
                "tempo": 120.0
            },
            {
                "start_time": 125.95454545454545,
                "end_time": 126.10454545454544,
                "pitch": 77,
                "velocity": 51,
                "duration": 0.14999999999999147,
                "tempo": 120.0
            },
            {
                "start_time": 126.35454545454544,
                "end_time": 126.50681818181818,
                "pitch": 74,
                "velocity": 51,
                "duration": 0.1522727272727309,
                "tempo": 120.0
            },
            {
                "start_time": 126.7590909090909,
                "end_time": 126.85909090909091,
                "pitch": 75,
                "velocity": 51,
                "duration": 0.10000000000000853,
                "tempo": 120.0
            },
            {
                "start_time": 126.89090909090909,
                "end_time": 126.99090909090908,
                "pitch": 79,
                "velocity": 51,
                "duration": 0.09999999999999432,
                "tempo": 120.0
            },
            {
                "start_time": 127.02499999999999,
                "end_time": 127.125,
                "pitch": 84,
                "velocity": 51,
                "duration": 0.10000000000000853,
                "tempo": 120.0
            },
            {
                "start_time": 127.1590909090909,
                "end_time": 127.2590909090909,
                "pitch": 79,
                "velocity": 51,
                "duration": 0.09999999999999432,
                "tempo": 120.0
            },
            {
                "start_time": 127.29318181818181,
                "end_time": 127.39318181818182,
                "pitch": 75,
                "velocity": 51,
                "duration": 0.10000000000000853,
                "tempo": 120.0
            },
            {
                "start_time": 127.42727272727272,
                "end_time": 127.52727272727272,
                "pitch": 72,
                "velocity": 51,
                "duration": 0.09999999999999432,
                "tempo": 120.0
            },
            {
                "start_time": 127.56136363636362,
                "end_time": 127.64545454545454,
                "pitch": 71,
                "velocity": 51,
                "duration": 0.08409090909091788,
                "tempo": 120.0
            },
            {
                "start_time": 127.66136363636363,
                "end_time": 127.74545454545454,
                "pitch": 72,
                "velocity": 51,
                "duration": 0.08409090909090366,
                "tempo": 120.0
            },
            {
                "start_time": 127.76136363636363,
                "end_time": 127.84545454545454,
                "pitch": 74,
                "velocity": 51,
                "duration": 0.08409090909091788,
                "tempo": 120.0
            },
            {
                "start_time": 127.86363636363636,
                "end_time": 127.94545454545454,
                "pitch": 75,
                "velocity": 51,
                "duration": 0.08181818181817846,
                "tempo": 120.0
            },
            {
                "start_time": 127.96363636363635,
                "end_time": 128.04772727272726,
                "pitch": 74,
                "velocity": 51,
                "duration": 0.08409090909090366,
                "tempo": 120.0
            },
            {
                "start_time": 128.06363636363636,
                "end_time": 128.14772727272728,
                "pitch": 72,
                "velocity": 51,
                "duration": 0.08409090909091788,
                "tempo": 120.0
            },
            {
                "start_time": 128.16363636363636,
                "end_time": 128.24772727272727,
                "pitch": 71,
                "velocity": 51,
                "duration": 0.08409090909091788,
                "tempo": 120.0
            },
            {
                "start_time": 128.26363636363635,
                "end_time": 128.34772727272727,
                "pitch": 68,
                "velocity": 51,
                "duration": 0.08409090909091788,
                "tempo": 120.0
            },
            {
                "start_time": 128.36363636363635,
                "end_time": 128.46363636363637,
                "pitch": 79,
                "velocity": 51,
                "duration": 0.10000000000002274,
                "tempo": 120.0
            },
            {
                "start_time": 128.49772727272727,
                "end_time": 128.59772727272727,
                "pitch": 78,
                "velocity": 51,
                "duration": 0.09999999999999432,
                "tempo": 120.0
            },
            {
                "start_time": 128.63181818181818,
                "end_time": 128.73181818181817,
                "pitch": 79,
                "velocity": 51,
                "duration": 0.09999999999999432,
                "tempo": 120.0
            },
            {
                "start_time": 128.76590909090908,
                "end_time": 128.86590909090907,
                "pitch": 78,
                "velocity": 51,
                "duration": 0.09999999999999432,
                "tempo": 120.0
            },
            {
                "start_time": 128.9,
                "end_time": 129.0,
                "pitch": 79,
                "velocity": 51,
                "duration": 0.09999999999999432,
                "tempo": 120.0
            },
            {
                "start_time": 129.03181818181818,
                "end_time": 129.13181818181818,
                "pitch": 78,
                "velocity": 51,
                "duration": 0.09999999999999432,
                "tempo": 120.0
            },
            {
                "start_time": 129.16590909090908,
                "end_time": 129.4840909090909,
                "pitch": 77,
                "velocity": 51,
                "duration": 0.318181818181813,
                "tempo": 120.0
            },
            {
                "start_time": 129.5681818181818,
                "end_time": 129.88863636363635,
                "pitch": 75,
                "velocity": 51,
                "duration": 0.3204545454545382,
                "tempo": 120.0
            },
            {
                "start_time": 129.97045454545454,
                "end_time": 130.05454545454546,
                "pitch": 87,
                "velocity": 51,
                "duration": 0.08409090909091788,
                "tempo": 120.0
            },
            {
                "start_time": 130.07272727272726,
                "end_time": 130.15681818181818,
                "pitch": 86,
                "velocity": 51,
                "duration": 0.08409090909091788,
                "tempo": 120.0
            },
            {
                "start_time": 130.17272727272726,
                "end_time": 130.25681818181818,
                "pitch": 84,
                "velocity": 51,
                "duration": 0.08409090909091788,
                "tempo": 120.0
            },
            {
                "start_time": 130.27272727272728,
                "end_time": 130.35681818181817,
                "pitch": 83,
                "velocity": 51,
                "duration": 0.08409090909088945,
                "tempo": 120.0
            },
            {
                "start_time": 130.375,
                "end_time": 130.45681818181816,
                "pitch": 80,
                "velocity": 51,
                "duration": 0.08181818181816425,
                "tempo": 120.0
            },
            {
                "start_time": 130.475,
                "end_time": 130.5568181818182,
                "pitch": 79,
                "velocity": 51,
                "duration": 0.08181818181819267,
                "tempo": 120.0
            },
            {
                "start_time": 130.575,
                "end_time": 130.65681818181818,
                "pitch": 77,
                "velocity": 51,
                "duration": 0.08181818181819267,
                "tempo": 120.0
            },
            {
                "start_time": 130.67499999999998,
                "end_time": 130.75681818181818,
                "pitch": 75,
                "velocity": 51,
                "duration": 0.08181818181819267,
                "tempo": 120.0
            },
            {
                "start_time": 130.775,
                "end_time": 131.09318181818182,
                "pitch": 74,
                "velocity": 51,
                "duration": 0.318181818181813,
                "tempo": 120.0
            },
            {
                "start_time": 131.1772727272727,
                "end_time": 131.49545454545455,
                "pitch": 62,
                "velocity": 51,
                "duration": 0.31818181818184144,
                "tempo": 120.0
            },
            {
                "start_time": 131.57954545454544,
                "end_time": 131.72954545454544,
                "pitch": 79,
                "velocity": 51,
                "duration": 0.15000000000000568,
                "tempo": 120.0
            },
            {
                "start_time": 131.78181818181818,
                "end_time": 131.9318181818182,
                "pitch": 72,
                "velocity": 51,
                "duration": 0.15000000000000568,
                "tempo": 120.0
            },
            {
                "start_time": 131.98181818181817,
                "end_time": 132.1340909090909,
                "pitch": 75,
                "velocity": 51,
                "duration": 0.1522727272727309,
                "tempo": 120.0
            },
            {
                "start_time": 132.1840909090909,
                "end_time": 132.3340909090909,
                "pitch": 79,
                "velocity": 51,
                "duration": 0.14999999999997726,
                "tempo": 120.0
            },
            {
                "start_time": 132.3840909090909,
                "end_time": 132.5340909090909,
                "pitch": 80,
                "velocity": 51,
                "duration": 0.15000000000000568,
                "tempo": 120.0
            },
            {
                "start_time": 132.5840909090909,
                "end_time": 132.7340909090909,
                "pitch": 74,
                "velocity": 51,
                "duration": 0.15000000000000568,
                "tempo": 120.0
            },
            {
                "start_time": 132.7840909090909,
                "end_time": 132.93636363636364,
                "pitch": 77,
                "velocity": 51,
                "duration": 0.1522727272727309,
                "tempo": 120.0
            },
            {
                "start_time": 132.98636363636362,
                "end_time": 133.13636363636363,
                "pitch": 80,
                "velocity": 51,
                "duration": 0.15000000000000568,
                "tempo": 120.0
            },
            {
                "start_time": 133.18863636363636,
                "end_time": 133.33863636363637,
                "pitch": 84,
                "velocity": 51,
                "duration": 0.15000000000000568,
                "tempo": 120.0
            },
            {
                "start_time": 133.38863636363635,
                "end_time": 133.54090909090908,
                "pitch": 75,
                "velocity": 51,
                "duration": 0.1522727272727309,
                "tempo": 120.0
            },
            {
                "start_time": 133.5909090909091,
                "end_time": 133.74090909090907,
                "pitch": 79,
                "velocity": 51,
                "duration": 0.14999999999997726,
                "tempo": 120.0
            },
            {
                "start_time": 133.79090909090908,
                "end_time": 133.9431818181818,
                "pitch": 84,
                "velocity": 51,
                "duration": 0.1522727272727309,
                "tempo": 120.0
            },
            {
                "start_time": 133.99318181818182,
                "end_time": 134.31136363636364,
                "pitch": 83,
                "velocity": 51,
                "duration": 0.318181818181813,
                "tempo": 120.0
            },
            {
                "start_time": 134.39545454545453,
                "end_time": 134.5431818181818,
                "pitch": 86,
                "velocity": 51,
                "duration": 0.14772727272728048,
                "tempo": 120.0
            },
            {
                "start_time": 134.5909090909091,
                "end_time": 134.73863636363635,
                "pitch": 74,
                "velocity": 51,
                "duration": 0.14772727272725206,
                "tempo": 120.0
            },
            {
                "start_time": 134.78863636363636,
                "end_time": 134.9409090909091,
                "pitch": 84,
                "velocity": 51,
                "duration": 0.1522727272727309,
                "tempo": 120.0
            },
            {
                "start_time": 134.99318181818182,
                "end_time": 135.14772727272725,
                "pitch": 81,
                "velocity": 51,
                "duration": 0.15454545454542767,
                "tempo": 120.0
            },
            {
                "start_time": 135.19772727272726,
                "end_time": 135.35,
                "pitch": 76,
                "velocity": 51,
                "duration": 0.1522727272727309,
                "tempo": 120.0
            },
            {
                "start_time": 135.4,
                "end_time": 135.54999999999998,
                "pitch": 72,
                "velocity": 51,
                "duration": 0.14999999999997726,
                "tempo": 120.0
            },
            {
                "start_time": 135.6,
                "end_time": 135.7022727272727,
                "pitch": 80,
                "velocity": 51,
                "duration": 0.10227272727271952,
                "tempo": 120.0
            },
            {
                "start_time": 135.73636363636362,
                "end_time": 135.83636363636364,
                "pitch": 77,
                "velocity": 51,
                "duration": 0.10000000000002274,
                "tempo": 120.0
            },
            {
                "start_time": 135.87045454545455,
                "end_time": 135.97045454545454,
                "pitch": 76,
                "velocity": 51,
                "duration": 0.09999999999999432,
                "tempo": 120.0
            },
            {
                "start_time": 136.00454545454545,
                "end_time": 136.10454545454544,
                "pitch": 74,
                "velocity": 51,
                "duration": 0.09999999999999432,
                "tempo": 120.0
            },
            {
                "start_time": 136.13863636363635,
                "end_time": 136.23863636363635,
                "pitch": 76,
                "velocity": 51,
                "duration": 0.09999999999999432,
                "tempo": 120.0
            },
            {
                "start_time": 136.27272727272725,
                "end_time": 136.37272727272727,
                "pitch": 77,
                "velocity": 51,
                "duration": 0.10000000000002274,
                "tempo": 120.0
            },
            {
                "start_time": 136.40681818181818,
                "end_time": 136.5568181818182,
                "pitch": 76,
                "velocity": 51,
                "duration": 0.15000000000000568,
                "tempo": 120.0
            },
            {
                "start_time": 136.8068181818182,
                "end_time": 136.95681818181816,
                "pitch": 74,
                "velocity": 51,
                "duration": 0.14999999999997726,
                "tempo": 120.0
            },
            {
                "start_time": 137.00681818181818,
                "end_time": 137.1590909090909,
                "pitch": 72,
                "velocity": 51,
                "duration": 0.1522727272727309,
                "tempo": 120.0
            },
            {
                "start_time": 137.2090909090909,
                "end_time": 137.3090909090909,
                "pitch": 71,
                "velocity": 51,
                "duration": 0.10000000000002274,
                "tempo": 120.0
            },
            {
                "start_time": 137.34318181818182,
                "end_time": 137.4431818181818,
                "pitch": 69,
                "velocity": 51,
                "duration": 0.09999999999999432,
                "tempo": 120.0
            },
            {
                "start_time": 137.47727272727272,
                "end_time": 137.5772727272727,
                "pitch": 68,
                "velocity": 51,
                "duration": 0.09999999999999432,
                "tempo": 120.0
            },
            {
                "start_time": 137.61136363636362,
                "end_time": 137.71363636363637,
                "pitch": 65,
                "velocity": 51,
                "duration": 0.10227272727274794,
                "tempo": 120.0
            },
            {
                "start_time": 137.74545454545455,
                "end_time": 137.84772727272727,
                "pitch": 64,
                "velocity": 51,
                "duration": 0.10227272727271952,
                "tempo": 120.0
            },
            {
                "start_time": 137.87954545454545,
                "end_time": 137.98181818181817,
                "pitch": 62,
                "velocity": 51,
                "duration": 0.10227272727271952,
                "tempo": 120.0
            },
            {
                "start_time": 138.01363636363635,
                "end_time": 138.11590909090907,
                "pitch": 64,
                "velocity": 51,
                "duration": 0.10227272727271952,
                "tempo": 120.0
            },
            {
                "start_time": 138.14772727272725,
                "end_time": 138.25,
                "pitch": 72,
                "velocity": 51,
                "duration": 0.10227272727274794,
                "tempo": 120.0
            },
            {
                "start_time": 138.2840909090909,
                "end_time": 138.3840909090909,
                "pitch": 64,
                "velocity": 51,
                "duration": 0.09999999999999432,
                "tempo": 120.0
            },
            {
                "start_time": 138.4181818181818,
                "end_time": 138.5181818181818,
                "pitch": 72,
                "velocity": 51,
                "duration": 0.09999999999999432,
                "tempo": 120.0
            },
            {
                "start_time": 138.54999999999998,
                "end_time": 138.65,
                "pitch": 64,
                "velocity": 51,
                "duration": 0.10000000000002274,
                "tempo": 120.0
            },
            {
                "start_time": 138.6840909090909,
                "end_time": 138.7840909090909,
                "pitch": 72,
                "velocity": 51,
                "duration": 0.09999999999999432,
                "tempo": 120.0
            },
            {
                "start_time": 138.8181818181818,
                "end_time": 138.9181818181818,
                "pitch": 65,
                "velocity": 51,
                "duration": 0.09999999999999432,
                "tempo": 120.0
            },
            {
                "start_time": 138.9522727272727,
                "end_time": 139.0522727272727,
                "pitch": 74,
                "velocity": 51,
                "duration": 0.09999999999999432,
                "tempo": 120.0
            },
            {
                "start_time": 139.08636363636364,
                "end_time": 139.18636363636364,
                "pitch": 65,
                "velocity": 51,
                "duration": 0.09999999999999432,
                "tempo": 120.0
            },
            {
                "start_time": 139.22045454545454,
                "end_time": 139.32045454545454,
                "pitch": 74,
                "velocity": 51,
                "duration": 0.09999999999999432,
                "tempo": 120.0
            },
            {
                "start_time": 139.35454545454544,
                "end_time": 139.45454545454544,
                "pitch": 65,
                "velocity": 51,
                "duration": 0.09999999999999432,
                "tempo": 120.0
            },
            {
                "start_time": 139.48863636363635,
                "end_time": 139.58863636363637,
                "pitch": 74,
                "velocity": 51,
                "duration": 0.10000000000002274,
                "tempo": 120.0
            },
            {
                "start_time": 139.62272727272727,
                "end_time": 139.72272727272727,
                "pitch": 76,
                "velocity": 51,
                "duration": 0.09999999999999432,
                "tempo": 120.0
            },
            {
                "start_time": 139.75681818181818,
                "end_time": 139.85681818181817,
                "pitch": 74,
                "velocity": 51,
                "duration": 0.09999999999999432,
                "tempo": 120.0
            },
            {
                "start_time": 139.89090909090908,
                "end_time": 139.99090909090907,
                "pitch": 72,
                "velocity": 51,
                "duration": 0.09999999999999432,
                "tempo": 120.0
            },
            {
                "start_time": 140.025,
                "end_time": 140.125,
                "pitch": 60,
                "velocity": 51,
                "duration": 0.09999999999999432,
                "tempo": 120.0
            },
            {
                "start_time": 140.1590909090909,
                "end_time": 140.2590909090909,
                "pitch": 62,
                "velocity": 51,
                "duration": 0.09999999999999432,
                "tempo": 120.0
            },
            {
                "start_time": 140.2931818181818,
                "end_time": 140.39545454545453,
                "pitch": 64,
                "velocity": 51,
                "duration": 0.10227272727271952,
                "tempo": 120.0
            },
            {
                "start_time": 140.4272727272727,
                "end_time": 140.51136363636363,
                "pitch": 74,
                "velocity": 51,
                "duration": 0.08409090909091788,
                "tempo": 120.0
            },
            {
                "start_time": 140.52727272727273,
                "end_time": 140.61136363636362,
                "pitch": 72,
                "velocity": 51,
                "duration": 0.08409090909088945,
                "tempo": 120.0
            },
            {
                "start_time": 140.62727272727273,
                "end_time": 140.71136363636364,
                "pitch": 71,
                "velocity": 51,
                "duration": 0.08409090909091788,
                "tempo": 120.0
            },
            {
                "start_time": 140.72727272727272,
                "end_time": 140.81136363636364,
                "pitch": 69,
                "velocity": 51,
                "duration": 0.08409090909091788,
                "tempo": 120.0
            },
            {
                "start_time": 140.8272727272727,
                "end_time": 140.91136363636363,
                "pitch": 62,
                "velocity": 51,
                "duration": 0.08409090909091788,
                "tempo": 120.0
            },
            {
                "start_time": 140.92954545454546,
                "end_time": 141.01363636363635,
                "pitch": 64,
                "velocity": 51,
                "duration": 0.08409090909088945,
                "tempo": 120.0
            },
            {
                "start_time": 141.02954545454546,
                "end_time": 141.11363636363635,
                "pitch": 65,
                "velocity": 51,
                "duration": 0.08409090909088945,
                "tempo": 120.0
            },
            {
                "start_time": 141.12954545454545,
                "end_time": 141.21363636363637,
                "pitch": 68,
                "velocity": 51,
                "duration": 0.08409090909091788,
                "tempo": 120.0
            },
            {
                "start_time": 141.22954545454544,
                "end_time": 141.31363636363636,
                "pitch": 69,
                "velocity": 51,
                "duration": 0.08409090909091788,
                "tempo": 120.0
            },
            {
                "start_time": 141.33181818181816,
                "end_time": 141.41590909090908,
                "pitch": 71,
                "velocity": 51,
                "duration": 0.08409090909091788,
                "tempo": 120.0
            },
            {
                "start_time": 141.4318181818182,
                "end_time": 141.51590909090908,
                "pitch": 72,
                "velocity": 51,
                "duration": 0.08409090909088945,
                "tempo": 120.0
            },
            {
                "start_time": 141.53181818181818,
                "end_time": 141.61590909090907,
                "pitch": 74,
                "velocity": 51,
                "duration": 0.08409090909088945,
                "tempo": 120.0
            },
            {
                "start_time": 141.6340909090909,
                "end_time": 141.71818181818182,
                "pitch": 76,
                "velocity": 51,
                "duration": 0.08409090909091788,
                "tempo": 120.0
            },
            {
                "start_time": 141.7340909090909,
                "end_time": 141.8181818181818,
                "pitch": 77,
                "velocity": 51,
                "duration": 0.08409090909091788,
                "tempo": 120.0
            },
            {
                "start_time": 141.8340909090909,
                "end_time": 141.9181818181818,
                "pitch": 80,
                "velocity": 51,
                "duration": 0.08409090909091788,
                "tempo": 120.0
            },
            {
                "start_time": 141.93636363636364,
                "end_time": 142.0181818181818,
                "pitch": 81,
                "velocity": 51,
                "duration": 0.08181818181816425,
                "tempo": 120.0
            },
            {
                "start_time": 142.03636363636363,
                "end_time": 142.12045454545455,
                "pitch": 83,
                "velocity": 51,
                "duration": 0.08409090909091788,
                "tempo": 120.0
            },
            {
                "start_time": 142.13636363636363,
                "end_time": 142.22045454545454,
                "pitch": 81,
                "velocity": 51,
                "duration": 0.08409090909091788,
                "tempo": 120.0
            },
            {
                "start_time": 142.23636363636362,
                "end_time": 142.32045454545454,
                "pitch": 80,
                "velocity": 51,
                "duration": 0.08409090909091788,
                "tempo": 120.0
            },
            {
                "start_time": 142.33863636363637,
                "end_time": 142.48863636363635,
                "pitch": 77,
                "velocity": 51,
                "duration": 0.14999999999997726,
                "tempo": 120.0
            },
            {
                "start_time": 142.53863636363636,
                "end_time": 142.62272727272727,
                "pitch": 80,
                "velocity": 51,
                "duration": 0.08409090909091788,
                "tempo": 120.0
            },
            {
                "start_time": 142.63863636363635,
                "end_time": 142.72272727272727,
                "pitch": 77,
                "velocity": 51,
                "duration": 0.08409090909091788,
                "tempo": 120.0
            },
            {
                "start_time": 142.73863636363635,
                "end_time": 142.82272727272726,
                "pitch": 76,
                "velocity": 51,
                "duration": 0.08409090909091788,
                "tempo": 120.0
            },
            {
                "start_time": 142.83863636363637,
                "end_time": 142.93863636363636,
                "pitch": 81,
                "velocity": 51,
                "duration": 0.09999999999999432,
                "tempo": 120.0
            },
            {
                "start_time": 142.97272727272727,
                "end_time": 143.07272727272726,
                "pitch": 72,
                "velocity": 51,
                "duration": 0.09999999999999432,
                "tempo": 120.0
            },
            {
                "start_time": 143.10681818181817,
                "end_time": 143.20681818181816,
                "pitch": 81,
                "velocity": 51,
                "duration": 0.09999999999999432,
                "tempo": 120.0
            },
            {
                "start_time": 143.24090909090907,
                "end_time": 143.34318181818182,
                "pitch": 72,
                "velocity": 51,
                "duration": 0.10227272727274794,
                "tempo": 120.0
            },
            {
                "start_time": 143.375,
                "end_time": 143.47727272727272,
                "pitch": 81,
                "velocity": 51,
                "duration": 0.10227272727271952,
                "tempo": 120.0
            },
            {
                "start_time": 143.5090909090909,
                "end_time": 143.61136363636362,
                "pitch": 72,
                "velocity": 51,
                "duration": 0.10227272727271952,
                "tempo": 120.0
            },
            {
                "start_time": 143.6431818181818,
                "end_time": 143.79545454545453,
                "pitch": 81,
                "velocity": 51,
                "duration": 0.1522727272727309,
                "tempo": 120.0
            },
            {
                "start_time": 143.84545454545454,
                "end_time": 143.99545454545455,
                "pitch": 74,
                "velocity": 51,
                "duration": 0.15000000000000568,
                "tempo": 120.0
            },
            {
                "start_time": 144.04772727272726,
                "end_time": 144.19772727272726,
                "pitch": 81,
                "velocity": 51,
                "duration": 0.15000000000000568,
                "tempo": 120.0
            },
            {
                "start_time": 144.24772727272727,
                "end_time": 144.4,
                "pitch": 74,
                "velocity": 51,
                "duration": 0.1522727272727309,
                "tempo": 120.0
            },
            {
                "start_time": 144.45,
                "end_time": 144.54999999999998,
                "pitch": 81,
                "velocity": 51,
                "duration": 0.09999999999999432,
                "tempo": 120.0
            },
            {
                "start_time": 144.58181818181816,
                "end_time": 144.6818181818182,
                "pitch": 76,
                "velocity": 51,
                "duration": 0.10000000000002274,
                "tempo": 120.0
            },
            {
                "start_time": 144.7159090909091,
                "end_time": 144.8159090909091,
                "pitch": 81,
                "velocity": 51,
                "duration": 0.09999999999999432,
                "tempo": 120.0
            },
            {
                "start_time": 144.85,
                "end_time": 144.95,
                "pitch": 76,
                "velocity": 51,
                "duration": 0.09999999999999432,
                "tempo": 120.0
            },
            {
                "start_time": 144.9840909090909,
                "end_time": 145.0840909090909,
                "pitch": 81,
                "velocity": 51,
                "duration": 0.09999999999999432,
                "tempo": 120.0
            },
            {
                "start_time": 145.11818181818182,
                "end_time": 145.21818181818182,
                "pitch": 76,
                "velocity": 51,
                "duration": 0.09999999999999432,
                "tempo": 120.0
            },
            {
                "start_time": 145.25227272727273,
                "end_time": 145.33636363636364,
                "pitch": 83,
                "velocity": 51,
                "duration": 0.08409090909091788,
                "tempo": 120.0
            },
            {
                "start_time": 145.35227272727272,
                "end_time": 145.43636363636364,
                "pitch": 80,
                "velocity": 51,
                "duration": 0.08409090909091788,
                "tempo": 120.0
            },
            {
                "start_time": 145.45454545454544,
                "end_time": 145.53636363636363,
                "pitch": 77,
                "velocity": 51,
                "duration": 0.08181818181819267,
                "tempo": 120.0
            },
            {
                "start_time": 145.55454545454543,
                "end_time": 145.63863636363635,
                "pitch": 74,
                "velocity": 51,
                "duration": 0.08409090909091788,
                "tempo": 120.0
            },
            {
                "start_time": 145.65454545454546,
                "end_time": 145.73863636363635,
                "pitch": 80,
                "velocity": 51,
                "duration": 0.08409090909088945,
                "tempo": 120.0
            },
            {
                "start_time": 145.75454545454545,
                "end_time": 145.83863636363637,
                "pitch": 77,
                "velocity": 51,
                "duration": 0.08409090909091788,
                "tempo": 120.0
            },
            {
                "start_time": 145.85681818181817,
                "end_time": 145.9409090909091,
                "pitch": 74,
                "velocity": 51,
                "duration": 0.08409090909091788,
                "tempo": 120.0
            },
            {
                "start_time": 145.95681818181816,
                "end_time": 146.04090909090908,
                "pitch": 71,
                "velocity": 51,
                "duration": 0.08409090909091788,
                "tempo": 120.0
            },
            {
                "start_time": 146.0568181818182,
                "end_time": 146.2090909090909,
                "pitch": 69,
                "velocity": 51,
                "duration": 0.15227272727270247,
                "tempo": 120.0
            },
            {
                "start_time": 146.4590909090909,
                "end_time": 146.6090909090909,
                "pitch": 72,
                "velocity": 51,
                "duration": 0.15000000000000568,
                "tempo": 120.0
            },
            {
                "start_time": 146.8590909090909,
                "end_time": 147.01136363636363,
                "pitch": 71,
                "velocity": 51,
                "duration": 0.1522727272727309,
                "tempo": 120.0
            },
            {
                "start_time": 148.0681818181818,
                "end_time": 148.38636363636363,
                "pitch": 81,
                "velocity": 51,
                "duration": 0.318181818181813,
                "tempo": 120.0
            },
            {
                "start_time": 148.47045454545454,
                "end_time": 148.78863636363636,
                "pitch": 79,
                "velocity": 51,
                "duration": 0.318181818181813,
                "tempo": 120.0
            },
            {
                "start_time": 148.87045454545455,
                "end_time": 148.92045454545453,
                "pitch": 95,
                "velocity": 51,
                "duration": 0.04999999999998295,
                "tempo": 120.0
            },
            {
                "start_time": 148.92045454545453,
                "end_time": 148.95454545454544,
                "pitch": 92,
                "velocity": 51,
                "duration": 0.03409090909090651,
                "tempo": 120.0
            },
            {
                "start_time": 148.95454545454544,
                "end_time": 149.00454545454545,
                "pitch": 90,
                "velocity": 51,
                "duration": 0.05000000000001137,
                "tempo": 120.0
            },
            {
                "start_time": 149.00454545454545,
                "end_time": 149.03863636363636,
                "pitch": 87,
                "velocity": 51,
                "duration": 0.03409090909090651,
                "tempo": 120.0
            },
            {
                "start_time": 149.03863636363636,
                "end_time": 149.07272727272726,
                "pitch": 85,
                "velocity": 51,
                "duration": 0.03409090909090651,
                "tempo": 120.0
            },
            {
                "start_time": 149.07272727272726,
                "end_time": 149.12272727272727,
                "pitch": 83,
                "velocity": 51,
                "duration": 0.05000000000001137,
                "tempo": 120.0
            },
            {
                "start_time": 149.12272727272727,
                "end_time": 149.15681818181818,
                "pitch": 80,
                "velocity": 51,
                "duration": 0.03409090909090651,
                "tempo": 120.0
            },
            {
                "start_time": 149.15681818181818,
                "end_time": 149.20681818181816,
                "pitch": 78,
                "velocity": 51,
                "duration": 0.04999999999998295,
                "tempo": 120.0
            },
            {
                "start_time": 149.20681818181816,
                "end_time": 149.24090909090907,
                "pitch": 75,
                "velocity": 51,
                "duration": 0.03409090909090651,
                "tempo": 120.0
            },
            {
                "start_time": 149.24090909090907,
                "end_time": 149.27272727272725,
                "pitch": 73,
                "velocity": 51,
                "duration": 0.0318181818181813,
                "tempo": 120.0
            },
            {
                "start_time": 149.27272727272725,
                "end_time": 149.42499999999998,
                "pitch": 66,
                "velocity": 51,
                "duration": 0.1522727272727309,
                "tempo": 120.0
            },
            {
                "start_time": 149.475,
                "end_time": 149.625,
                "pitch": 62,
                "velocity": 51,
                "duration": 0.15000000000000568,
                "tempo": 120.0
            },
            {
                "start_time": 149.6772727272727,
                "end_time": 149.8272727272727,
                "pitch": 66,
                "velocity": 51,
                "duration": 0.15000000000000568,
                "tempo": 120.0
            },
            {
                "start_time": 149.87727272727273,
                "end_time": 150.19545454545454,
                "pitch": 64,
                "velocity": 51,
                "duration": 0.318181818181813,
                "tempo": 120.0
            },
            {
                "start_time": 150.48181818181817,
                "end_time": 150.63181818181818,
                "pitch": 66,
                "velocity": 51,
                "duration": 0.15000000000000568,
                "tempo": 120.0
            },
            {
                "start_time": 150.6818181818182,
                "end_time": 150.83181818181816,
                "pitch": 68,
                "velocity": 51,
                "duration": 0.14999999999997726,
                "tempo": 120.0
            },
            {
                "start_time": 151.2840909090909,
                "end_time": 151.60227272727272,
                "pitch": 81,
                "velocity": 51,
                "duration": 0.318181818181813,
                "tempo": 120.0
            },
            {
                "start_time": 151.68636363636364,
                "end_time": 152.00681818181818,
                "pitch": 79,
                "velocity": 51,
                "duration": 0.3204545454545382,
                "tempo": 120.0
            },
            {
                "start_time": 152.08863636363637,
                "end_time": 152.14090909090908,
                "pitch": 95,
                "velocity": 51,
                "duration": 0.05227272727270815,
                "tempo": 120.0
            },
            {
                "start_time": 152.14090909090908,
                "end_time": 152.17272727272726,
                "pitch": 92,
                "velocity": 51,
                "duration": 0.0318181818181813,
                "tempo": 120.0
            },
            {
                "start_time": 152.17272727272726,
                "end_time": 152.225,
                "pitch": 90,
                "velocity": 51,
                "duration": 0.052272727272736574,
                "tempo": 120.0
            },
            {
                "start_time": 152.225,
                "end_time": 152.25681818181818,
                "pitch": 87,
                "velocity": 51,
                "duration": 0.0318181818181813,
                "tempo": 120.0
            },
            {
                "start_time": 152.25681818181818,
                "end_time": 152.29090909090908,
                "pitch": 85,
                "velocity": 51,
                "duration": 0.03409090909090651,
                "tempo": 120.0
            },
            {
                "start_time": 152.29090909090908,
                "end_time": 152.3409090909091,
                "pitch": 83,
                "velocity": 51,
                "duration": 0.05000000000001137,
                "tempo": 120.0
            },
            {
                "start_time": 152.3409090909091,
                "end_time": 152.375,
                "pitch": 80,
                "velocity": 51,
                "duration": 0.03409090909090651,
                "tempo": 120.0
            },
            {
                "start_time": 152.375,
                "end_time": 152.42499999999998,
                "pitch": 78,
                "velocity": 51,
                "duration": 0.04999999999998295,
                "tempo": 120.0
            },
            {
                "start_time": 152.42499999999998,
                "end_time": 152.4590909090909,
                "pitch": 75,
                "velocity": 51,
                "duration": 0.03409090909090651,
                "tempo": 120.0
            },
            {
                "start_time": 152.4590909090909,
                "end_time": 152.49318181818182,
                "pitch": 73,
                "velocity": 51,
                "duration": 0.03409090909093493,
                "tempo": 120.0
            },
            {
                "start_time": 152.49318181818182,
                "end_time": 152.6431818181818,
                "pitch": 65,
                "velocity": 51,
                "duration": 0.14999999999997726,
                "tempo": 120.0
            },
            {
                "start_time": 152.6931818181818,
                "end_time": 152.84318181818182,
                "pitch": 72,
                "velocity": 51,
                "duration": 0.15000000000000568,
                "tempo": 120.0
            },
            {
                "start_time": 152.8931818181818,
                "end_time": 153.0431818181818,
                "pitch": 69,
                "velocity": 51,
                "duration": 0.15000000000000568,
                "tempo": 120.0
            },
            {
                "start_time": 153.09318181818182,
                "end_time": 153.24545454545455,
                "pitch": 65,
                "velocity": 51,
                "duration": 0.1522727272727309,
                "tempo": 120.0
            },
            {
                "start_time": 153.29545454545453,
                "end_time": 153.44545454545454,
                "pitch": 64,
                "velocity": 51,
                "duration": 0.15000000000000568,
                "tempo": 120.0
            },
            {
                "start_time": 153.49545454545455,
                "end_time": 153.64772727272725,
                "pitch": 68,
                "velocity": 51,
                "duration": 0.15227272727270247,
                "tempo": 120.0
            },
            {
                "start_time": 153.69772727272726,
                "end_time": 153.84772727272727,
                "pitch": 71,
                "velocity": 51,
                "duration": 0.15000000000000568,
                "tempo": 120.0
            },
            {
                "start_time": 153.9,
                "end_time": 154.04999999999998,
                "pitch": 68,
                "velocity": 51,
                "duration": 0.14999999999997726,
                "tempo": 120.0
            },
            {
                "start_time": 154.50227272727273,
                "end_time": 154.82045454545454,
                "pitch": 81,
                "velocity": 51,
                "duration": 0.318181818181813,
                "tempo": 120.0
            },
            {
                "start_time": 154.90227272727273,
                "end_time": 155.22272727272727,
                "pitch": 79,
                "velocity": 51,
                "duration": 0.3204545454545382,
                "tempo": 120.0
            },
            {
                "start_time": 155.3068181818182,
                "end_time": 155.35681818181817,
                "pitch": 95,
                "velocity": 51,
                "duration": 0.04999999999998295,
                "tempo": 120.0
            },
            {
                "start_time": 155.35681818181817,
                "end_time": 155.38863636363635,
                "pitch": 92,
                "velocity": 51,
                "duration": 0.0318181818181813,
                "tempo": 120.0
            },
            {
                "start_time": 155.38863636363635,
                "end_time": 155.4409090909091,
                "pitch": 90,
                "velocity": 51,
                "duration": 0.052272727272736574,
                "tempo": 120.0
            },
            {
                "start_time": 155.4409090909091,
                "end_time": 155.47272727272727,
                "pitch": 87,
                "velocity": 51,
                "duration": 0.0318181818181813,
                "tempo": 120.0
            },
            {
                "start_time": 155.47272727272727,
                "end_time": 155.50681818181818,
                "pitch": 85,
                "velocity": 51,
                "duration": 0.03409090909090651,
                "tempo": 120.0
            },
            {
                "start_time": 155.50681818181818,
                "end_time": 155.5568181818182,
                "pitch": 83,
                "velocity": 51,
                "duration": 0.05000000000001137,
                "tempo": 120.0
            },
            {
                "start_time": 155.5568181818182,
                "end_time": 155.5909090909091,
                "pitch": 80,
                "velocity": 51,
                "duration": 0.03409090909090651,
                "tempo": 120.0
            },
            {
                "start_time": 155.5909090909091,
                "end_time": 155.64090909090908,
                "pitch": 78,
                "velocity": 51,
                "duration": 0.04999999999998295,
                "tempo": 120.0
            },
            {
                "start_time": 155.64090909090908,
                "end_time": 155.67499999999998,
                "pitch": 75,
                "velocity": 51,
                "duration": 0.03409090909090651,
                "tempo": 120.0
            },
            {
                "start_time": 155.67499999999998,
                "end_time": 155.7090909090909,
                "pitch": 73,
                "velocity": 51,
                "duration": 0.03409090909090651,
                "tempo": 120.0
            },
            {
                "start_time": 155.7090909090909,
                "end_time": 155.8590909090909,
                "pitch": 66,
                "velocity": 51,
                "duration": 0.15000000000000568,
                "tempo": 120.0
            },
            {
                "start_time": 155.9090909090909,
                "end_time": 156.06136363636364,
                "pitch": 62,
                "velocity": 51,
                "duration": 0.1522727272727309,
                "tempo": 120.0
            },
            {
                "start_time": 156.11136363636362,
                "end_time": 156.26136363636363,
                "pitch": 66,
                "velocity": 51,
                "duration": 0.15000000000000568,
                "tempo": 120.0
            },
            {
                "start_time": 156.31363636363636,
                "end_time": 156.6340909090909,
                "pitch": 64,
                "velocity": 51,
                "duration": 0.3204545454545382,
                "tempo": 120.0
            },
            {
                "start_time": 156.92499999999998,
                "end_time": 157.07272727272726,
                "pitch": 66,
                "velocity": 51,
                "duration": 0.14772727272728048,
                "tempo": 120.0
            },
            {
                "start_time": 157.12045454545455,
                "end_time": 157.2681818181818,
                "pitch": 68,
                "velocity": 51,
                "duration": 0.14772727272725206,
                "tempo": 120.0
            },
            {
                "start_time": 157.72045454545454,
                "end_time": 158.03863636363636,
                "pitch": 81,
                "velocity": 51,
                "duration": 0.318181818181813,
                "tempo": 120.0
            },
            {
                "start_time": 158.12272727272727,
                "end_time": 158.4409090909091,
                "pitch": 79,
                "velocity": 51,
                "duration": 0.318181818181813,
                "tempo": 120.0
            },
            {
                "start_time": 158.525,
                "end_time": 158.575,
                "pitch": 95,
                "velocity": 51,
                "duration": 0.04999999999998295,
                "tempo": 120.0
            },
            {
                "start_time": 158.575,
                "end_time": 158.6090909090909,
                "pitch": 92,
                "velocity": 51,
                "duration": 0.03409090909090651,
                "tempo": 120.0
            },
            {
                "start_time": 158.6090909090909,
                "end_time": 158.6590909090909,
                "pitch": 90,
                "velocity": 51,
                "duration": 0.05000000000001137,
                "tempo": 120.0
            },
            {
                "start_time": 158.6590909090909,
                "end_time": 158.6909090909091,
                "pitch": 87,
                "velocity": 51,
                "duration": 0.0318181818181813,
                "tempo": 120.0
            },
            {
                "start_time": 158.6909090909091,
                "end_time": 158.725,
                "pitch": 85,
                "velocity": 51,
                "duration": 0.03409090909090651,
                "tempo": 120.0
            },
            {
                "start_time": 158.725,
                "end_time": 158.775,
                "pitch": 83,
                "velocity": 51,
                "duration": 0.05000000000001137,
                "tempo": 120.0
            },
            {
                "start_time": 158.775,
                "end_time": 158.8090909090909,
                "pitch": 80,
                "velocity": 51,
                "duration": 0.03409090909090651,
                "tempo": 120.0
            },
            {
                "start_time": 158.8090909090909,
                "end_time": 158.8590909090909,
                "pitch": 78,
                "velocity": 51,
                "duration": 0.04999999999998295,
                "tempo": 120.0
            },
            {
                "start_time": 158.8590909090909,
                "end_time": 158.89090909090908,
                "pitch": 75,
                "velocity": 51,
                "duration": 0.0318181818181813,
                "tempo": 120.0
            },
            {
                "start_time": 158.89090909090908,
                "end_time": 158.92499999999998,
                "pitch": 73,
                "velocity": 51,
                "duration": 0.03409090909090651,
                "tempo": 120.0
            },
            {
                "start_time": 158.92499999999998,
                "end_time": 159.075,
                "pitch": 65,
                "velocity": 51,
                "duration": 0.15000000000000568,
                "tempo": 120.0
            },
            {
                "start_time": 159.12727272727273,
                "end_time": 159.27727272727273,
                "pitch": 72,
                "velocity": 51,
                "duration": 0.15000000000000568,
                "tempo": 120.0
            },
            {
                "start_time": 159.3272727272727,
                "end_time": 159.47954545454544,
                "pitch": 69,
                "velocity": 51,
                "duration": 0.1522727272727309,
                "tempo": 120.0
            },
            {
                "start_time": 159.52954545454546,
                "end_time": 159.67954545454543,
                "pitch": 65,
                "velocity": 51,
                "duration": 0.14999999999997726,
                "tempo": 120.0
            },
            {
                "start_time": 159.72954545454544,
                "end_time": 159.88181818181818,
                "pitch": 67,
                "velocity": 51,
                "duration": 0.1522727272727309,
                "tempo": 120.0
            },
            {
                "start_time": 159.9318181818182,
                "end_time": 160.08181818181816,
                "pitch": 71,
                "velocity": 51,
                "duration": 0.14999999999997726,
                "tempo": 120.0
            },
            {
                "start_time": 160.13181818181818,
                "end_time": 160.2840909090909,
                "pitch": 74,
                "velocity": 51,
                "duration": 0.1522727272727309,
                "tempo": 120.0
            },
            {
                "start_time": 160.3340909090909,
                "end_time": 160.53636363636363,
                "pitch": 71,
                "velocity": 51,
                "duration": 0.20227272727274226,
                "tempo": 120.0
            }
        ],
        "Trumpet": [
            {
                "start_time": 81.37954545454545,
                "end_time": 81.52954545454546,
                "pitch": 75,
                "velocity": 80,
                "duration": 0.15000000000000568,
                "tempo": 120.0
            },
            {
                "start_time": 81.57954545454545,
                "end_time": 81.73181818181818,
                "pitch": 75,
                "velocity": 80,
                "duration": 0.1522727272727309,
                "tempo": 120.0
            },
            {
                "start_time": 81.78181818181818,
                "end_time": 81.86363636363636,
                "pitch": 74,
                "velocity": 80,
                "duration": 0.08181818181817846,
                "tempo": 120.0
            },
            {
                "start_time": 81.88181818181818,
                "end_time": 81.96363636363635,
                "pitch": 66,
                "velocity": 80,
                "duration": 0.08181818181817846,
                "tempo": 120.0
            },
            {
                "start_time": 81.98181818181818,
                "end_time": 82.06363636363636,
                "pitch": 69,
                "velocity": 80,
                "duration": 0.08181818181817846,
                "tempo": 120.0
            },
            {
                "start_time": 82.08181818181818,
                "end_time": 82.16363636363636,
                "pitch": 74,
                "velocity": 80,
                "duration": 0.08181818181817846,
                "tempo": 120.0
            },
            {
                "start_time": 82.18181818181817,
                "end_time": 82.33181818181818,
                "pitch": 75,
                "velocity": 80,
                "duration": 0.15000000000000568,
                "tempo": 120.0
            },
            {
                "start_time": 82.38181818181818,
                "end_time": 82.5340909090909,
                "pitch": 75,
                "velocity": 80,
                "duration": 0.1522727272727309,
                "tempo": 120.0
            },
            {
                "start_time": 82.98409090909091,
                "end_time": 83.1340909090909,
                "pitch": 86,
                "velocity": 80,
                "duration": 0.14999999999999147,
                "tempo": 120.0
            },
            {
                "start_time": 83.1840909090909,
                "end_time": 83.33636363636363,
                "pitch": 86,
                "velocity": 80,
                "duration": 0.1522727272727309,
                "tempo": 120.0
            }
        ],
        "Clarinet": [
            {
                "start_time": 0.0,
                "end_time": 0.39999999999999997,
                "pitch": 39,
                "velocity": 40,
                "duration": 0.39999999999999997,
                "tempo": 120.0
            },
            {
                "start_time": 0.5113636363636364,
                "end_time": 0.6068181818181818,
                "pitch": 41,
                "velocity": 40,
                "duration": 0.09545454545454546,
                "tempo": 120.0
            },
            {
                "start_time": 0.6386363636363636,
                "end_time": 0.734090909090909,
                "pitch": 39,
                "velocity": 40,
                "duration": 0.09545454545454546,
                "tempo": 120.0
            },
            {
                "start_time": 0.7659090909090909,
                "end_time": 1.2045454545454546,
                "pitch": 38,
                "velocity": 40,
                "duration": 0.4386363636363637,
                "tempo": 120.0
            },
            {
                "start_time": 1.3204545454545453,
                "end_time": 1.4204545454545454,
                "pitch": 39,
                "velocity": 40,
                "duration": 0.10000000000000009,
                "tempo": 120.0
            },
            {
                "start_time": 1.4545454545454546,
                "end_time": 1.5545454545454545,
                "pitch": 38,
                "velocity": 40,
                "duration": 0.09999999999999987,
                "tempo": 120.0
            },
            {
                "start_time": 1.5863636363636362,
                "end_time": 2.0045454545454544,
                "pitch": 37,
                "velocity": 40,
                "duration": 0.4181818181818182,
                "tempo": 120.0
            },
            {
                "start_time": 2.1159090909090907,
                "end_time": 2.2113636363636364,
                "pitch": 38,
                "velocity": 40,
                "duration": 0.09545454545454568,
                "tempo": 120.0
            },
            {
                "start_time": 2.243181818181818,
                "end_time": 2.3386363636363634,
                "pitch": 37,
                "velocity": 40,
                "duration": 0.09545454545454524,
                "tempo": 120.0
            },
            {
                "start_time": 2.370454545454545,
                "end_time": 2.809090909090909,
                "pitch": 36,
                "velocity": 40,
                "duration": 0.43863636363636394,
                "tempo": 120.0
            },
            {
                "start_time": 2.9204545454545454,
                "end_time": 3.0159090909090907,
                "pitch": 37,
                "velocity": 40,
                "duration": 0.09545454545454524,
                "tempo": 120.0
            },
            {
                "start_time": 3.0477272727272724,
                "end_time": 3.143181818181818,
                "pitch": 36,
                "velocity": 40,
                "duration": 0.09545454545454568,
                "tempo": 120.0
            },
            {
                "start_time": 3.175,
                "end_time": 3.506818181818182,
                "pitch": 47,
                "velocity": 40,
                "duration": 0.331818181818182,
                "tempo": 120.0
            },
            {
                "start_time": 3.5954545454545452,
                "end_time": 3.8977272727272725,
                "pitch": 48,
                "velocity": 40,
                "duration": 0.30227272727272725,
                "tempo": 120.0
            },
            {
                "start_time": 3.977272727272727,
                "end_time": 4.293181818181818,
                "pitch": 50,
                "velocity": 40,
                "duration": 0.3159090909090909,
                "tempo": 120.0
            },
            {
                "start_time": 4.377272727272727,
                "end_time": 4.693181818181818,
                "pitch": 51,
                "velocity": 40,
                "duration": 0.31590909090909136,
                "tempo": 120.0
            },
            {
                "start_time": 4.777272727272727,
                "end_time": 4.861363636363636,
                "pitch": 44,
                "velocity": 40,
                "duration": 0.084090909090909,
                "tempo": 120.0
            },
            {
                "start_time": 4.879545454545454,
                "end_time": 4.965909090909091,
                "pitch": 43,
                "velocity": 40,
                "duration": 0.08636363636363686,
                "tempo": 120.0
            },
            {
                "start_time": 4.9818181818181815,
                "end_time": 5.068181818181818,
                "pitch": 44,
                "velocity": 40,
                "duration": 0.08636363636363686,
                "tempo": 120.0
            },
            {
                "start_time": 5.084090909090909,
                "end_time": 5.170454545454545,
                "pitch": 43,
                "velocity": 40,
                "duration": 0.08636363636363598,
                "tempo": 120.0
            },
            {
                "start_time": 5.1886363636363635,
                "end_time": 5.2727272727272725,
                "pitch": 44,
                "velocity": 40,
                "duration": 0.084090909090909,
                "tempo": 120.0
            },
            {
                "start_time": 5.290909090909091,
                "end_time": 5.377272727272727,
                "pitch": 43,
                "velocity": 40,
                "duration": 0.08636363636363598,
                "tempo": 120.0
            },
            {
                "start_time": 5.393181818181818,
                "end_time": 5.4795454545454545,
                "pitch": 44,
                "velocity": 40,
                "duration": 0.08636363636363686,
                "tempo": 120.0
            },
            {
                "start_time": 5.495454545454545,
                "end_time": 5.581818181818181,
                "pitch": 43,
                "velocity": 40,
                "duration": 0.08636363636363598,
                "tempo": 120.0
            },
            {
                "start_time": 5.597727272727273,
                "end_time": 5.681818181818182,
                "pitch": 44,
                "velocity": 40,
                "duration": 0.084090909090909,
                "tempo": 120.0
            },
            {
                "start_time": 5.699999999999999,
                "end_time": 5.781818181818181,
                "pitch": 43,
                "velocity": 40,
                "duration": 0.08181818181818201,
                "tempo": 120.0
            },
            {
                "start_time": 5.8,
                "end_time": 5.881818181818182,
                "pitch": 44,
                "velocity": 40,
                "duration": 0.08181818181818201,
                "tempo": 120.0
            },
            {
                "start_time": 5.8999999999999995,
                "end_time": 5.9818181818181815,
                "pitch": 43,
                "velocity": 40,
                "duration": 0.08181818181818201,
                "tempo": 120.0
            },
            {
                "start_time": 6.0,
                "end_time": 6.079545454545454,
                "pitch": 44,
                "velocity": 40,
                "duration": 0.07954545454545414,
                "tempo": 120.0
            },
            {
                "start_time": 6.095454545454545,
                "end_time": 6.175,
                "pitch": 43,
                "velocity": 40,
                "duration": 0.07954545454545503,
                "tempo": 120.0
            },
            {
                "start_time": 6.1909090909090905,
                "end_time": 6.2704545454545455,
                "pitch": 44,
                "velocity": 40,
                "duration": 0.07954545454545503,
                "tempo": 120.0
            },
            {
                "start_time": 6.286363636363636,
                "end_time": 6.36590909090909,
                "pitch": 43,
                "velocity": 40,
                "duration": 0.07954545454545414,
                "tempo": 120.0
            }
        ],
        "Acoustic Bass": [
            {
                "start_time": 6.590909090909091,
                "end_time": 6.75,
                "pitch": 39,
                "velocity": 40,
                "duration": 0.15909090909090917,
                "tempo": 120.0
            },
            {
                "start_time": 6.802272727272727,
                "end_time": 6.945454545454545,
                "pitch": 43,
                "velocity": 40,
                "duration": 0.14318181818181852,
                "tempo": 120.0
            },
            {
                "start_time": 6.993181818181818,
                "end_time": 7.136363636363636,
                "pitch": 39,
                "velocity": 40,
                "duration": 0.14318181818181763,
                "tempo": 120.0
            },
            {
                "start_time": 7.184090909090909,
                "end_time": 7.334090909090909,
                "pitch": 38,
                "velocity": 40,
                "duration": 0.15000000000000036,
                "tempo": 120.0
            },
            {
                "start_time": 7.384090909090909,
                "end_time": 7.534090909090908,
                "pitch": 41,
                "velocity": 40,
                "duration": 0.14999999999999947,
                "tempo": 120.0
            },
            {
                "start_time": 7.584090909090909,
                "end_time": 7.7340909090909085,
                "pitch": 44,
                "velocity": 40,
                "duration": 0.14999999999999947,
                "tempo": 120.0
            },
            {
                "start_time": 7.786363636363636,
                "end_time": 7.936363636363636,
                "pitch": 38,
                "velocity": 40,
                "duration": 0.14999999999999947,
                "tempo": 120.0
            },
            {
                "start_time": 7.986363636363636,
                "end_time": 8.138636363636364,
                "pitch": 39,
                "velocity": 40,
                "duration": 0.15227272727272734,
                "tempo": 120.0
            },
            {
                "start_time": 8.188636363636363,
                "end_time": 8.338636363636363,
                "pitch": 43,
                "velocity": 40,
                "duration": 0.15000000000000036,
                "tempo": 120.0
            },
            {
                "start_time": 8.388636363636364,
                "end_time": 8.540909090909091,
                "pitch": 36,
                "velocity": 40,
                "duration": 0.15227272727272734,
                "tempo": 120.0
            },
            {
                "start_time": 8.59090909090909,
                "end_time": 8.74090909090909,
                "pitch": 39,
                "velocity": 40,
                "duration": 0.15000000000000036,
                "tempo": 120.0
            },
            {
                "start_time": 8.793181818181818,
                "end_time": 8.943181818181818,
                "pitch": 41,
                "velocity": 40,
                "duration": 0.15000000000000036,
                "tempo": 120.0
            },
            {
                "start_time": 8.993181818181817,
                "end_time": 9.143181818181818,
                "pitch": 44,
                "velocity": 40,
                "duration": 0.15000000000000036,
                "tempo": 120.0
            },
            {
                "start_time": 9.193181818181818,
                "end_time": 9.343181818181817,
                "pitch": 50,
                "velocity": 40,
                "duration": 0.14999999999999858,
                "tempo": 120.0
            },
            {
                "start_time": 9.393181818181818,
                "end_time": 9.545454545454545,
                "pitch": 41,
                "velocity": 40,
                "duration": 0.15227272727272734,
                "tempo": 120.0
            },
            {
                "start_time": 9.595454545454546,
                "end_time": 9.745454545454544,
                "pitch": 39,
                "velocity": 40,
                "duration": 0.14999999999999858,
                "tempo": 120.0
            },
            {
                "start_time": 9.795454545454545,
                "end_time": 9.947727272727272,
                "pitch": 43,
                "velocity": 40,
                "duration": 0.15227272727272734,
                "tempo": 120.0
            },
            {
                "start_time": 9.997727272727273,
                "end_time": 10.147727272727272,
                "pitch": 36,
                "velocity": 40,
                "duration": 0.14999999999999858,
                "tempo": 120.0
            },
            {
                "start_time": 10.2,
                "end_time": 10.35,
                "pitch": 39,
                "velocity": 40,
                "duration": 0.15000000000000036,
                "tempo": 120.0
            },
            {
                "start_time": 10.4,
                "end_time": 10.552272727272726,
                "pitch": 38,
                "velocity": 40,
                "duration": 0.15227272727272556,
                "tempo": 120.0
            },
            {
                "start_time": 10.602272727272727,
                "end_time": 10.752272727272727,
                "pitch": 41,
                "velocity": 40,
                "duration": 0.15000000000000036,
                "tempo": 120.0
            },
            {
                "start_time": 10.802272727272726,
                "end_time": 10.952272727272726,
                "pitch": 44,
                "velocity": 40,
                "duration": 0.15000000000000036,
                "tempo": 120.0
            },
            {
                "start_time": 11.002272727272727,
                "end_time": 11.152272727272727,
                "pitch": 41,
                "velocity": 40,
                "duration": 0.15000000000000036,
                "tempo": 120.0
            },
            {
                "start_time": 11.202272727272726,
                "end_time": 11.354545454545454,
                "pitch": 36,
                "velocity": 40,
                "duration": 0.15227272727272734,
                "tempo": 120.0
            },
            {
                "start_time": 11.404545454545454,
                "end_time": 11.554545454545455,
                "pitch": 39,
                "velocity": 40,
                "duration": 0.15000000000000036,
                "tempo": 120.0
            },
            {
                "start_time": 11.604545454545454,
                "end_time": 11.756818181818181,
                "pitch": 43,
                "velocity": 40,
                "duration": 0.15227272727272734,
                "tempo": 120.0
            },
            {
                "start_time": 11.806818181818182,
                "end_time": 11.956818181818182,
                "pitch": 36,
                "velocity": 40,
                "duration": 0.15000000000000036,
                "tempo": 120.0
            },
            {
                "start_time": 12.009090909090908,
                "end_time": 12.159090909090908,
                "pitch": 35,
                "velocity": 40,
                "duration": 0.15000000000000036,
                "tempo": 120.0
            },
            {
                "start_time": 12.209090909090909,
                "end_time": 12.361363636363636,
                "pitch": 38,
                "velocity": 40,
                "duration": 0.15227272727272734,
                "tempo": 120.0
            },
            {
                "start_time": 12.411363636363635,
                "end_time": 12.561363636363636,
                "pitch": 41,
                "velocity": 40,
                "duration": 0.15000000000000036,
                "tempo": 120.0
            },
            {
                "start_time": 12.611363636363636,
                "end_time": 12.763636363636364,
                "pitch": 35,
                "velocity": 40,
                "duration": 0.15227272727272734,
                "tempo": 120.0
            },
            {
                "start_time": 12.813636363636363,
                "end_time": 12.963636363636363,
                "pitch": 36,
                "velocity": 40,
                "duration": 0.15000000000000036,
                "tempo": 120.0
            },
            {
                "start_time": 13.013636363636364,
                "end_time": 13.163636363636362,
                "pitch": 39,
                "velocity": 40,
                "duration": 0.14999999999999858,
                "tempo": 120.0
            },
            {
                "start_time": 13.213636363636363,
                "end_time": 13.363636363636363,
                "pitch": 43,
                "velocity": 40,
                "duration": 0.15000000000000036,
                "tempo": 120.0
            },
            {
                "start_time": 13.415909090909091,
                "end_time": 13.56590909090909,
                "pitch": 39,
                "velocity": 40,
                "duration": 0.14999999999999858,
                "tempo": 120.0
            },
            {
                "start_time": 13.61590909090909,
                "end_time": 13.768181818181818,
                "pitch": 38,
                "velocity": 40,
                "duration": 0.15227272727272734,
                "tempo": 120.0
            },
            {
                "start_time": 13.818181818181818,
                "end_time": 13.968181818181817,
                "pitch": 41,
                "velocity": 40,
                "duration": 0.14999999999999858,
                "tempo": 120.0
            },
            {
                "start_time": 14.018181818181818,
                "end_time": 14.170454545454545,
                "pitch": 44,
                "velocity": 40,
                "duration": 0.15227272727272734,
                "tempo": 120.0
            },
            {
                "start_time": 14.220454545454544,
                "end_time": 14.370454545454544,
                "pitch": 38,
                "velocity": 40,
                "duration": 0.15000000000000036,
                "tempo": 120.0
            },
            {
                "start_time": 14.422727272727272,
                "end_time": 14.572727272727272,
                "pitch": 39,
                "velocity": 40,
                "duration": 0.15000000000000036,
                "tempo": 120.0
            },
            {
                "start_time": 14.622727272727271,
                "end_time": 14.774999999999999,
                "pitch": 43,
                "velocity": 40,
                "duration": 0.15227272727272734,
                "tempo": 120.0
            },
            {
                "start_time": 14.825,
                "end_time": 14.975,
                "pitch": 36,
                "velocity": 40,
                "duration": 0.15000000000000036,
                "tempo": 120.0
            },
            {
                "start_time": 15.024999999999999,
                "end_time": 15.174999999999999,
                "pitch": 39,
                "velocity": 40,
                "duration": 0.15000000000000036,
                "tempo": 120.0
            },
            {
                "start_time": 15.225,
                "end_time": 15.375,
                "pitch": 41,
                "velocity": 40,
                "duration": 0.15000000000000036,
                "tempo": 120.0
            },
            {
                "start_time": 15.424999999999999,
                "end_time": 15.577272727272726,
                "pitch": 44,
                "velocity": 40,
                "duration": 0.15227272727272734,
                "tempo": 120.0
            },
            {
                "start_time": 15.627272727272727,
                "end_time": 15.777272727272727,
                "pitch": 50,
                "velocity": 40,
                "duration": 0.15000000000000036,
                "tempo": 120.0
            },
            {
                "start_time": 15.827272727272726,
                "end_time": 15.979545454545454,
                "pitch": 41,
                "velocity": 40,
                "duration": 0.15227272727272734,
                "tempo": 120.0
            },
            {
                "start_time": 16.029545454545453,
                "end_time": 16.18181818181818,
                "pitch": 39,
                "velocity": 40,
                "duration": 0.15227272727272734,
                "tempo": 120.0
            },
            {
                "start_time": 16.23181818181818,
                "end_time": 16.381818181818183,
                "pitch": 43,
                "velocity": 40,
                "duration": 0.15000000000000213,
                "tempo": 120.0
            },
            {
                "start_time": 16.43181818181818,
                "end_time": 16.581818181818182,
                "pitch": 36,
                "velocity": 40,
                "duration": 0.15000000000000213,
                "tempo": 120.0
            },
            {
                "start_time": 16.631818181818183,
                "end_time": 16.78181818181818,
                "pitch": 39,
                "velocity": 40,
                "duration": 0.14999999999999858,
                "tempo": 120.0
            },
            {
                "start_time": 16.831818181818182,
                "end_time": 16.98409090909091,
                "pitch": 38,
                "velocity": 40,
                "duration": 0.15227272727272734,
                "tempo": 120.0
            },
            {
                "start_time": 17.034090909090907,
                "end_time": 17.18409090909091,
                "pitch": 41,
                "velocity": 40,
                "duration": 0.15000000000000213,
                "tempo": 120.0
            },
            {
                "start_time": 17.23409090909091,
                "end_time": 17.384090909090908,
                "pitch": 44,
                "velocity": 40,
                "duration": 0.14999999999999858,
                "tempo": 120.0
            },
            {
                "start_time": 17.43409090909091,
                "end_time": 17.584090909090907,
                "pitch": 41,
                "velocity": 40,
                "duration": 0.14999999999999858,
                "tempo": 120.0
            },
            {
                "start_time": 17.634090909090908,
                "end_time": 17.784090909090907,
                "pitch": 36,
                "velocity": 40,
                "duration": 0.14999999999999858,
                "tempo": 120.0
            },
            {
                "start_time": 17.834090909090907,
                "end_time": 17.98409090909091,
                "pitch": 39,
                "velocity": 40,
                "duration": 0.15000000000000213,
                "tempo": 120.0
            },
            {
                "start_time": 18.034090909090907,
                "end_time": 18.186363636363634,
                "pitch": 43,
                "velocity": 40,
                "duration": 0.15227272727272734,
                "tempo": 120.0
            },
            {
                "start_time": 18.236363636363635,
                "end_time": 18.386363636363637,
                "pitch": 36,
                "velocity": 40,
                "duration": 0.15000000000000213,
                "tempo": 120.0
            },
            {
                "start_time": 18.438636363636363,
                "end_time": 18.58863636363636,
                "pitch": 35,
                "velocity": 40,
                "duration": 0.14999999999999858,
                "tempo": 120.0
            },
            {
                "start_time": 18.638636363636362,
                "end_time": 18.788636363636364,
                "pitch": 38,
                "velocity": 40,
                "duration": 0.15000000000000213,
                "tempo": 120.0
            },
            {
                "start_time": 18.83863636363636,
                "end_time": 18.988636363636363,
                "pitch": 41,
                "velocity": 40,
                "duration": 0.15000000000000213,
                "tempo": 120.0
            },
            {
                "start_time": 19.038636363636364,
                "end_time": 19.19090909090909,
                "pitch": 35,
                "velocity": 40,
                "duration": 0.15227272727272734,
                "tempo": 120.0
            },
            {
                "start_time": 19.24090909090909,
                "end_time": 19.39090909090909,
                "pitch": 33,
                "velocity": 40,
                "duration": 0.15000000000000213,
                "tempo": 120.0
            },
            {
                "start_time": 19.44090909090909,
                "end_time": 19.59090909090909,
                "pitch": 36,
                "velocity": 40,
                "duration": 0.14999999999999858,
                "tempo": 120.0
            },
            {
                "start_time": 19.64090909090909,
                "end_time": 19.79090909090909,
                "pitch": 40,
                "velocity": 40,
                "duration": 0.14999999999999858,
                "tempo": 120.0
            },
            {
                "start_time": 19.84090909090909,
                "end_time": 19.99090909090909,
                "pitch": 33,
                "velocity": 40,
                "duration": 0.14999999999999858,
                "tempo": 120.0
            },
            {
                "start_time": 20.04090909090909,
                "end_time": 20.19090909090909,
                "pitch": 35,
                "velocity": 40,
                "duration": 0.15000000000000213,
                "tempo": 120.0
            },
            {
                "start_time": 20.24090909090909,
                "end_time": 20.393181818181816,
                "pitch": 38,
                "velocity": 40,
                "duration": 0.15227272727272734,
                "tempo": 120.0
            },
            {
                "start_time": 20.443181818181817,
                "end_time": 20.59318181818182,
                "pitch": 41,
                "velocity": 40,
                "duration": 0.15000000000000213,
                "tempo": 120.0
            },
            {
                "start_time": 20.643181818181816,
                "end_time": 20.793181818181818,
                "pitch": 35,
                "velocity": 40,
                "duration": 0.15000000000000213,
                "tempo": 120.0
            },
            {
                "start_time": 20.84318181818182,
                "end_time": 20.993181818181817,
                "pitch": 36,
                "velocity": 40,
                "duration": 0.14999999999999858,
                "tempo": 120.0
            },
            {
                "start_time": 21.045454545454543,
                "end_time": 21.195454545454545,
                "pitch": 40,
                "velocity": 40,
                "duration": 0.15000000000000213,
                "tempo": 120.0
            },
            {
                "start_time": 21.245454545454546,
                "end_time": 21.395454545454545,
                "pitch": 43,
                "velocity": 40,
                "duration": 0.14999999999999858,
                "tempo": 120.0
            },
            {
                "start_time": 21.445454545454545,
                "end_time": 21.595454545454544,
                "pitch": 36,
                "velocity": 40,
                "duration": 0.14999999999999858,
                "tempo": 120.0
            },
            {
                "start_time": 21.645454545454545,
                "end_time": 21.795454545454543,
                "pitch": 38,
                "velocity": 40,
                "duration": 0.14999999999999858,
                "tempo": 120.0
            },
            {
                "start_time": 21.845454545454544,
                "end_time": 21.995454545454546,
                "pitch": 41,
                "velocity": 40,
                "duration": 0.15000000000000213,
                "tempo": 120.0
            },
            {
                "start_time": 22.045454545454543,
                "end_time": 22.19772727272727,
                "pitch": 45,
                "velocity": 40,
                "duration": 0.15227272727272734,
                "tempo": 120.0
            },
            {
                "start_time": 22.24772727272727,
                "end_time": 22.397727272727273,
                "pitch": 38,
                "velocity": 40,
                "duration": 0.15000000000000213,
                "tempo": 120.0
            },
            {
                "start_time": 22.44772727272727,
                "end_time": 22.597727272727273,
                "pitch": 40,
                "velocity": 40,
                "duration": 0.15000000000000213,
                "tempo": 120.0
            },
            {
                "start_time": 22.647727272727273,
                "end_time": 22.797727272727272,
                "pitch": 43,
                "velocity": 40,
                "duration": 0.14999999999999858,
                "tempo": 120.0
            },
            {
                "start_time": 22.847727272727273,
                "end_time": 23.0,
                "pitch": 48,
                "velocity": 40,
                "duration": 0.15227272727272734,
                "tempo": 120.0
            },
            {
                "start_time": 23.049999999999997,
                "end_time": 23.2,
                "pitch": 40,
                "velocity": 40,
                "duration": 0.15000000000000213,
                "tempo": 120.0
            },
            {
                "start_time": 23.252272727272725,
                "end_time": 23.402272727272727,
                "pitch": 38,
                "velocity": 40,
                "duration": 0.15000000000000213,
                "tempo": 120.0
            },
            {
                "start_time": 23.452272727272724,
                "end_time": 23.602272727272727,
                "pitch": 41,
                "velocity": 40,
                "duration": 0.15000000000000213,
                "tempo": 120.0
            },
            {
                "start_time": 23.652272727272727,
                "end_time": 23.802272727272726,
                "pitch": 47,
                "velocity": 40,
                "duration": 0.14999999999999858,
                "tempo": 120.0
            },
            {
                "start_time": 23.852272727272727,
                "end_time": 24.002272727272725,
                "pitch": 38,
                "velocity": 40,
                "duration": 0.14999999999999858,
                "tempo": 120.0
            },
            {
                "start_time": 24.052272727272726,
                "end_time": 24.202272727272724,
                "pitch": 36,
                "velocity": 40,
                "duration": 0.14999999999999858,
                "tempo": 120.0
            },
            {
                "start_time": 24.252272727272725,
                "end_time": 24.404545454545453,
                "pitch": 40,
                "velocity": 40,
                "duration": 0.15227272727272734,
                "tempo": 120.0
            },
            {
                "start_time": 24.454545454545453,
                "end_time": 24.604545454545452,
                "pitch": 45,
                "velocity": 40,
                "duration": 0.14999999999999858,
                "tempo": 120.0
            },
            {
                "start_time": 24.654545454545453,
                "end_time": 24.804545454545455,
                "pitch": 36,
                "velocity": 40,
                "duration": 0.15000000000000213,
                "tempo": 120.0
            },
            {
                "start_time": 24.854545454545452,
                "end_time": 25.004545454545454,
                "pitch": 35,
                "velocity": 40,
                "duration": 0.15000000000000213,
                "tempo": 120.0
            },
            {
                "start_time": 25.054545454545455,
                "end_time": 25.206818181818182,
                "pitch": 38,
                "velocity": 40,
                "duration": 0.15227272727272734,
                "tempo": 120.0
            },
            {
                "start_time": 25.25681818181818,
                "end_time": 25.40681818181818,
                "pitch": 43,
                "velocity": 40,
                "duration": 0.15000000000000213,
                "tempo": 120.0
            },
            {
                "start_time": 25.456818181818182,
                "end_time": 25.60681818181818,
                "pitch": 35,
                "velocity": 40,
                "duration": 0.14999999999999858,
                "tempo": 120.0
            },
            {
                "start_time": 25.65681818181818,
                "end_time": 25.80681818181818,
                "pitch": 33,
                "velocity": 40,
                "duration": 0.14999999999999858,
                "tempo": 120.0
            },
            {
                "start_time": 25.85681818181818,
                "end_time": 26.00681818181818,
                "pitch": 36,
                "velocity": 40,
                "duration": 0.14999999999999858,
                "tempo": 120.0
            },
            {
                "start_time": 26.05681818181818,
                "end_time": 26.206818181818182,
                "pitch": 40,
                "velocity": 40,
                "duration": 0.15000000000000213,
                "tempo": 120.0
            },
            {
                "start_time": 26.25681818181818,
                "end_time": 26.409090909090907,
                "pitch": 33,
                "velocity": 40,
                "duration": 0.15227272727272734,
                "tempo": 120.0
            },
            {
                "start_time": 26.459090909090907,
                "end_time": 26.60909090909091,
                "pitch": 35,
                "velocity": 40,
                "duration": 0.15000000000000213,
                "tempo": 120.0
            },
            {
                "start_time": 26.659090909090907,
                "end_time": 26.80909090909091,
                "pitch": 38,
                "velocity": 40,
                "duration": 0.15000000000000213,
                "tempo": 120.0
            },
            {
                "start_time": 26.85909090909091,
                "end_time": 27.011363636363637,
                "pitch": 41,
                "velocity": 40,
                "duration": 0.15227272727272734,
                "tempo": 120.0
            },
            {
                "start_time": 27.061363636363634,
                "end_time": 27.211363636363636,
                "pitch": 35,
                "velocity": 40,
                "duration": 0.15000000000000213,
                "tempo": 120.0
            },
            {
                "start_time": 27.261363636363637,
                "end_time": 27.411363636363635,
                "pitch": 36,
                "velocity": 40,
                "duration": 0.14999999999999858,
                "tempo": 120.0
            },
            {
                "start_time": 27.461363636363636,
                "end_time": 27.611363636363635,
                "pitch": 40,
                "velocity": 40,
                "duration": 0.14999999999999858,
                "tempo": 120.0
            },
            {
                "start_time": 27.661363636363635,
                "end_time": 27.811363636363634,
                "pitch": 43,
                "velocity": 40,
                "duration": 0.14999999999999858,
                "tempo": 120.0
            },
            {
                "start_time": 27.861363636363635,
                "end_time": 28.011363636363637,
                "pitch": 36,
                "velocity": 40,
                "duration": 0.15000000000000213,
                "tempo": 120.0
            },
            {
                "start_time": 28.061363636363634,
                "end_time": 28.21363636363636,
                "pitch": 38,
                "velocity": 40,
                "duration": 0.15227272727272734,
                "tempo": 120.0
            },
            {
                "start_time": 28.263636363636362,
                "end_time": 28.413636363636364,
                "pitch": 41,
                "velocity": 40,
                "duration": 0.15000000000000213,
                "tempo": 120.0
            },
            {
                "start_time": 28.46363636363636,
                "end_time": 28.613636363636363,
                "pitch": 45,
                "velocity": 40,
                "duration": 0.15000000000000213,
                "tempo": 120.0
            },
            {
                "start_time": 28.66363636363636,
                "end_time": 28.813636363636363,
                "pitch": 38,
                "velocity": 40,
                "duration": 0.15000000000000213,
                "tempo": 120.0
            },
            {
                "start_time": 28.863636363636363,
                "end_time": 29.01590909090909,
                "pitch": 40,
                "velocity": 40,
                "duration": 0.15227272727272734,
                "tempo": 120.0
            },
            {
                "start_time": 29.065909090909088,
                "end_time": 29.21590909090909,
                "pitch": 43,
                "velocity": 40,
                "duration": 0.15000000000000213,
                "tempo": 120.0
            },
            {
                "start_time": 29.268181818181816,
                "end_time": 29.418181818181818,
                "pitch": 48,
                "velocity": 40,
                "duration": 0.15000000000000213,
                "tempo": 120.0
            },
            {
                "start_time": 29.468181818181815,
                "end_time": 29.618181818181817,
                "pitch": 40,
                "velocity": 40,
                "duration": 0.15000000000000213,
                "tempo": 120.0
            },
            {
                "start_time": 29.668181818181818,
                "end_time": 29.818181818181817,
                "pitch": 38,
                "velocity": 40,
                "duration": 0.14999999999999858,
                "tempo": 120.0
            },
            {
                "start_time": 29.868181818181817,
                "end_time": 30.018181818181816,
                "pitch": 41,
                "velocity": 40,
                "duration": 0.14999999999999858,
                "tempo": 120.0
            },
            {
                "start_time": 30.068181818181817,
                "end_time": 30.218181818181815,
                "pitch": 47,
                "velocity": 40,
                "duration": 0.14999999999999858,
                "tempo": 120.0
            },
            {
                "start_time": 30.268181818181816,
                "end_time": 30.420454545454543,
                "pitch": 38,
                "velocity": 40,
                "duration": 0.15227272727272734,
                "tempo": 120.0
            },
            {
                "start_time": 30.470454545454544,
                "end_time": 30.620454545454542,
                "pitch": 36,
                "velocity": 40,
                "duration": 0.14999999999999858,
                "tempo": 120.0
            },
            {
                "start_time": 30.670454545454543,
                "end_time": 30.820454545454545,
                "pitch": 40,
                "velocity": 40,
                "duration": 0.15000000000000213,
                "tempo": 120.0
            },
            {
                "start_time": 30.870454545454542,
                "end_time": 31.020454545454545,
                "pitch": 45,
                "velocity": 40,
                "duration": 0.15000000000000213,
                "tempo": 120.0
            },
            {
                "start_time": 31.070454545454545,
                "end_time": 31.222727272727273,
                "pitch": 36,
                "velocity": 40,
                "duration": 0.15227272727272734,
                "tempo": 120.0
            },
            {
                "start_time": 31.27272727272727,
                "end_time": 31.422727272727272,
                "pitch": 35,
                "velocity": 40,
                "duration": 0.15000000000000213,
                "tempo": 120.0
            },
            {
                "start_time": 31.472727272727273,
                "end_time": 31.62272727272727,
                "pitch": 38,
                "velocity": 40,
                "duration": 0.14999999999999858,
                "tempo": 120.0
            },
            {
                "start_time": 31.672727272727272,
                "end_time": 31.82272727272727,
                "pitch": 43,
                "velocity": 40,
                "duration": 0.14999999999999858,
                "tempo": 120.0
            },
            {
                "start_time": 31.87272727272727,
                "end_time": 32.02272727272727,
                "pitch": 35,
                "velocity": 40,
                "duration": 0.15000000000000213,
                "tempo": 120.0
            },
            {
                "start_time": 32.08863636363636,
                "end_time": 32.22727272727273,
                "pitch": 36,
                "velocity": 40,
                "duration": 0.13863636363636545,
                "tempo": 120.0
            },
            {
                "start_time": 32.277272727272724,
                "end_time": 32.43181818181818,
                "pitch": 39,
                "velocity": 40,
                "duration": 0.1545454545454561,
                "tempo": 120.0
            },
            {
                "start_time": 32.48409090909091,
                "end_time": 32.62954545454545,
                "pitch": 43,
                "velocity": 40,
                "duration": 0.14545454545454106,
                "tempo": 120.0
            },
            {
                "start_time": 32.679545454545455,
                "end_time": 32.82727272727273,
                "pitch": 39,
                "velocity": 40,
                "duration": 0.14772727272727337,
                "tempo": 120.0
            },
            {
                "start_time": 32.875,
                "end_time": 33.025,
                "pitch": 38,
                "velocity": 40,
                "duration": 0.14999999999999858,
                "tempo": 120.0
            },
            {
                "start_time": 33.074999999999996,
                "end_time": 33.225,
                "pitch": 41,
                "velocity": 40,
                "duration": 0.15000000000000568,
                "tempo": 120.0
            },
            {
                "start_time": 33.275,
                "end_time": 33.425,
                "pitch": 44,
                "velocity": 40,
                "duration": 0.14999999999999858,
                "tempo": 120.0
            },
            {
                "start_time": 33.475,
                "end_time": 33.625,
                "pitch": 38,
                "velocity": 40,
                "duration": 0.14999999999999858,
                "tempo": 120.0
            },
            {
                "start_time": 33.675,
                "end_time": 33.824999999999996,
                "pitch": 39,
                "velocity": 40,
                "duration": 0.14999999999999858,
                "tempo": 120.0
            },
            {
                "start_time": 33.875,
                "end_time": 34.025,
                "pitch": 43,
                "velocity": 40,
                "duration": 0.14999999999999858,
                "tempo": 120.0
            },
            {
                "start_time": 34.074999999999996,
                "end_time": 34.225,
                "pitch": 36,
                "velocity": 40,
                "duration": 0.15000000000000568,
                "tempo": 120.0
            },
            {
                "start_time": 34.275,
                "end_time": 34.425,
                "pitch": 39,
                "velocity": 40,
                "duration": 0.14999999999999858,
                "tempo": 120.0
            },
            {
                "start_time": 34.475,
                "end_time": 34.627272727272725,
                "pitch": 41,
                "velocity": 40,
                "duration": 0.15227272727272378,
                "tempo": 120.0
            },
            {
                "start_time": 34.67727272727272,
                "end_time": 34.82727272727273,
                "pitch": 44,
                "velocity": 40,
                "duration": 0.15000000000000568,
                "tempo": 120.0
            },
            {
                "start_time": 34.877272727272725,
                "end_time": 35.027272727272724,
                "pitch": 50,
                "velocity": 40,
                "duration": 0.14999999999999858,
                "tempo": 120.0
            },
            {
                "start_time": 35.07727272727273,
                "end_time": 35.22727272727273,
                "pitch": 41,
                "velocity": 40,
                "duration": 0.14999999999999858,
                "tempo": 120.0
            },
            {
                "start_time": 35.277272727272724,
                "end_time": 35.42727272727272,
                "pitch": 39,
                "velocity": 40,
                "duration": 0.14999999999999858,
                "tempo": 120.0
            },
            {
                "start_time": 35.47727272727273,
                "end_time": 35.627272727272725,
                "pitch": 43,
                "velocity": 40,
                "duration": 0.14999999999999858,
                "tempo": 120.0
            },
            {
                "start_time": 35.67727272727272,
                "end_time": 35.82727272727273,
                "pitch": 36,
                "velocity": 40,
                "duration": 0.15000000000000568,
                "tempo": 120.0
            },
            {
                "start_time": 35.877272727272725,
                "end_time": 36.027272727272724,
                "pitch": 39,
                "velocity": 40,
                "duration": 0.14999999999999858,
                "tempo": 120.0
            },
            {
                "start_time": 36.07727272727273,
                "end_time": 36.22727272727273,
                "pitch": 38,
                "velocity": 40,
                "duration": 0.14999999999999858,
                "tempo": 120.0
            },
            {
                "start_time": 36.277272727272724,
                "end_time": 36.42727272727272,
                "pitch": 41,
                "velocity": 40,
                "duration": 0.14999999999999858,
                "tempo": 120.0
            },
            {
                "start_time": 36.47727272727273,
                "end_time": 36.62954545454545,
                "pitch": 44,
                "velocity": 40,
                "duration": 0.15227272727272378,
                "tempo": 120.0
            },
            {
                "start_time": 36.679545454545455,
                "end_time": 36.82954545454545,
                "pitch": 41,
                "velocity": 40,
                "duration": 0.14999999999999858,
                "tempo": 120.0
            },
            {
                "start_time": 36.88181818181818,
                "end_time": 37.03181818181818,
                "pitch": 36,
                "velocity": 40,
                "duration": 0.14999999999999858,
                "tempo": 120.0
            },
            {
                "start_time": 37.08181818181818,
                "end_time": 37.23181818181818,
                "pitch": 39,
                "velocity": 40,
                "duration": 0.14999999999999858,
                "tempo": 120.0
            },
            {
                "start_time": 37.28181818181818,
                "end_time": 37.43181818181818,
                "pitch": 43,
                "velocity": 40,
                "duration": 0.14999999999999858,
                "tempo": 120.0
            },
            {
                "start_time": 37.48181818181818,
                "end_time": 37.63181818181818,
                "pitch": 36,
                "velocity": 40,
                "duration": 0.15000000000000568,
                "tempo": 120.0
            },
            {
                "start_time": 37.68181818181818,
                "end_time": 37.83181818181818,
                "pitch": 35,
                "velocity": 40,
                "duration": 0.14999999999999858,
                "tempo": 120.0
            },
            {
                "start_time": 37.88181818181818,
                "end_time": 38.03181818181818,
                "pitch": 38,
                "velocity": 40,
                "duration": 0.14999999999999858,
                "tempo": 120.0
            },
            {
                "start_time": 38.08181818181818,
                "end_time": 38.23181818181818,
                "pitch": 41,
                "velocity": 40,
                "duration": 0.14999999999999858,
                "tempo": 120.0
            },
            {
                "start_time": 38.28181818181818,
                "end_time": 38.43181818181818,
                "pitch": 35,
                "velocity": 40,
                "duration": 0.14999999999999858,
                "tempo": 120.0
            },
            {
                "start_time": 38.48181818181818,
                "end_time": 38.63181818181818,
                "pitch": 36,
                "velocity": 40,
                "duration": 0.15000000000000568,
                "tempo": 120.0
            },
            {
                "start_time": 38.68181818181818,
                "end_time": 38.834090909090904,
                "pitch": 39,
                "velocity": 40,
                "duration": 0.15227272727272378,
                "tempo": 120.0
            },
            {
                "start_time": 38.88409090909091,
                "end_time": 39.03409090909091,
                "pitch": 43,
                "velocity": 40,
                "duration": 0.14999999999999858,
                "tempo": 120.0
            },
            {
                "start_time": 39.084090909090904,
                "end_time": 39.23409090909091,
                "pitch": 39,
                "velocity": 40,
                "duration": 0.15000000000000568,
                "tempo": 120.0
            },
            {
                "start_time": 39.28409090909091,
                "end_time": 39.434090909090905,
                "pitch": 38,
                "velocity": 40,
                "duration": 0.14999999999999858,
                "tempo": 120.0
            },
            {
                "start_time": 39.48409090909091,
                "end_time": 39.63409090909091,
                "pitch": 41,
                "velocity": 40,
                "duration": 0.14999999999999858,
                "tempo": 120.0
            },
            {
                "start_time": 39.684090909090905,
                "end_time": 39.834090909090904,
                "pitch": 44,
                "velocity": 40,
                "duration": 0.14999999999999858,
                "tempo": 120.0
            },
            {
                "start_time": 39.88409090909091,
                "end_time": 40.03409090909091,
                "pitch": 38,
                "velocity": 40,
                "duration": 0.14999999999999858,
                "tempo": 120.0
            },
            {
                "start_time": 40.084090909090904,
                "end_time": 40.23409090909091,
                "pitch": 39,
                "velocity": 40,
                "duration": 0.15000000000000568,
                "tempo": 120.0
            },
            {
                "start_time": 40.28409090909091,
                "end_time": 40.434090909090905,
                "pitch": 43,
                "velocity": 40,
                "duration": 0.14999999999999858,
                "tempo": 120.0
            },
            {
                "start_time": 40.48409090909091,
                "end_time": 40.63409090909091,
                "pitch": 36,
                "velocity": 40,
                "duration": 0.14999999999999858,
                "tempo": 120.0
            },
            {
                "start_time": 40.684090909090905,
                "end_time": 40.836363636363636,
                "pitch": 39,
                "velocity": 40,
                "duration": 0.1522727272727309,
                "tempo": 120.0
            },
            {
                "start_time": 40.88636363636363,
                "end_time": 41.03636363636363,
                "pitch": 41,
                "velocity": 40,
                "duration": 0.14999999999999858,
                "tempo": 120.0
            },
            {
                "start_time": 41.086363636363636,
                "end_time": 41.236363636363635,
                "pitch": 44,
                "velocity": 40,
                "duration": 0.14999999999999858,
                "tempo": 120.0
            },
            {
                "start_time": 41.28636363636363,
                "end_time": 41.43636363636364,
                "pitch": 50,
                "velocity": 40,
                "duration": 0.15000000000000568,
                "tempo": 120.0
            },
            {
                "start_time": 41.486363636363635,
                "end_time": 41.63636363636363,
                "pitch": 41,
                "velocity": 40,
                "duration": 0.14999999999999858,
                "tempo": 120.0
            },
            {
                "start_time": 41.68636363636364,
                "end_time": 41.836363636363636,
                "pitch": 39,
                "velocity": 40,
                "duration": 0.14999999999999858,
                "tempo": 120.0
            },
            {
                "start_time": 41.88636363636363,
                "end_time": 42.03636363636363,
                "pitch": 43,
                "velocity": 40,
                "duration": 0.14999999999999858,
                "tempo": 120.0
            },
            {
                "start_time": 42.086363636363636,
                "end_time": 42.236363636363635,
                "pitch": 36,
                "velocity": 40,
                "duration": 0.14999999999999858,
                "tempo": 120.0
            },
            {
                "start_time": 42.28636363636363,
                "end_time": 42.43636363636364,
                "pitch": 39,
                "velocity": 40,
                "duration": 0.15000000000000568,
                "tempo": 120.0
            },
            {
                "start_time": 42.486363636363635,
                "end_time": 42.63636363636363,
                "pitch": 38,
                "velocity": 40,
                "duration": 0.14999999999999858,
                "tempo": 120.0
            },
            {
                "start_time": 42.68863636363636,
                "end_time": 42.83863636363636,
                "pitch": 41,
                "velocity": 40,
                "duration": 0.14999999999999858,
                "tempo": 120.0
            },
            {
                "start_time": 42.88863636363636,
                "end_time": 43.038636363636364,
                "pitch": 44,
                "velocity": 40,
                "duration": 0.15000000000000568,
                "tempo": 120.0
            },
            {
                "start_time": 43.08863636363636,
                "end_time": 43.23863636363636,
                "pitch": 41,
                "velocity": 40,
                "duration": 0.14999999999999858,
                "tempo": 120.0
            },
            {
                "start_time": 43.288636363636364,
                "end_time": 43.43863636363636,
                "pitch": 36,
                "velocity": 40,
                "duration": 0.14999999999999858,
                "tempo": 120.0
            },
            {
                "start_time": 43.48863636363636,
                "end_time": 43.63863636363636,
                "pitch": 39,
                "velocity": 40,
                "duration": 0.14999999999999858,
                "tempo": 120.0
            },
            {
                "start_time": 43.68863636363636,
                "end_time": 43.83863636363636,
                "pitch": 43,
                "velocity": 40,
                "duration": 0.14999999999999858,
                "tempo": 120.0
            },
            {
                "start_time": 43.88863636363636,
                "end_time": 44.038636363636364,
                "pitch": 36,
                "velocity": 40,
                "duration": 0.15000000000000568,
                "tempo": 120.0
            },
            {
                "start_time": 44.08863636363636,
                "end_time": 44.23863636363636,
                "pitch": 35,
                "velocity": 40,
                "duration": 0.14999999999999858,
                "tempo": 120.0
            },
            {
                "start_time": 44.288636363636364,
                "end_time": 44.43863636363636,
                "pitch": 38,
                "velocity": 40,
                "duration": 0.14999999999999858,
                "tempo": 120.0
            },
            {
                "start_time": 44.48863636363636,
                "end_time": 44.64090909090909,
                "pitch": 41,
                "velocity": 40,
                "duration": 0.1522727272727309,
                "tempo": 120.0
            },
            {
                "start_time": 44.69090909090909,
                "end_time": 44.840909090909086,
                "pitch": 35,
                "velocity": 40,
                "duration": 0.14999999999999858,
                "tempo": 120.0
            },
            {
                "start_time": 44.89090909090909,
                "end_time": 45.04090909090909,
                "pitch": 33,
                "velocity": 40,
                "duration": 0.14999999999999858,
                "tempo": 120.0
            },
            {
                "start_time": 45.090909090909086,
                "end_time": 45.24090909090909,
                "pitch": 36,
                "velocity": 40,
                "duration": 0.15000000000000568,
                "tempo": 120.0
            },
            {
                "start_time": 45.29090909090909,
                "end_time": 45.44090909090909,
                "pitch": 40,
                "velocity": 40,
                "duration": 0.14999999999999858,
                "tempo": 120.0
            },
            {
                "start_time": 45.49090909090909,
                "end_time": 45.64090909090909,
                "pitch": 33,
                "velocity": 40,
                "duration": 0.14999999999999858,
                "tempo": 120.0
            },
            {
                "start_time": 45.69090909090909,
                "end_time": 45.840909090909086,
                "pitch": 35,
                "velocity": 40,
                "duration": 0.14999999999999858,
                "tempo": 120.0
            },
            {
                "start_time": 45.89090909090909,
                "end_time": 46.04090909090909,
                "pitch": 38,
                "velocity": 40,
                "duration": 0.14999999999999858,
                "tempo": 120.0
            },
            {
                "start_time": 46.090909090909086,
                "end_time": 46.24090909090909,
                "pitch": 41,
                "velocity": 40,
                "duration": 0.15000000000000568,
                "tempo": 120.0
            },
            {
                "start_time": 46.29090909090909,
                "end_time": 46.44090909090909,
                "pitch": 35,
                "velocity": 40,
                "duration": 0.14999999999999858,
                "tempo": 120.0
            },
            {
                "start_time": 46.49090909090909,
                "end_time": 46.643181818181816,
                "pitch": 36,
                "velocity": 40,
                "duration": 0.15227272727272378,
                "tempo": 120.0
            },
            {
                "start_time": 46.69318181818181,
                "end_time": 46.84318181818182,
                "pitch": 40,
                "velocity": 40,
                "duration": 0.15000000000000568,
                "tempo": 120.0
            },
            {
                "start_time": 46.89545454545454,
                "end_time": 47.04545454545454,
                "pitch": 43,
                "velocity": 40,
                "duration": 0.14999999999999858,
                "tempo": 120.0
            },
            {
                "start_time": 47.095454545454544,
                "end_time": 47.24545454545454,
                "pitch": 36,
                "velocity": 40,
                "duration": 0.14999999999999858,
                "tempo": 120.0
            },
            {
                "start_time": 47.29545454545454,
                "end_time": 47.445454545454545,
                "pitch": 38,
                "velocity": 40,
                "duration": 0.15000000000000568,
                "tempo": 120.0
            },
            {
                "start_time": 47.49545454545454,
                "end_time": 47.64545454545454,
                "pitch": 41,
                "velocity": 40,
                "duration": 0.14999999999999858,
                "tempo": 120.0
            },
            {
                "start_time": 47.695454545454545,
                "end_time": 47.845454545454544,
                "pitch": 45,
                "velocity": 40,
                "duration": 0.14999999999999858,
                "tempo": 120.0
            },
            {
                "start_time": 47.89545454545454,
                "end_time": 48.04545454545454,
                "pitch": 38,
                "velocity": 40,
                "duration": 0.14999999999999858,
                "tempo": 120.0
            },
            {
                "start_time": 48.095454545454544,
                "end_time": 48.24545454545454,
                "pitch": 40,
                "velocity": 40,
                "duration": 0.14999999999999858,
                "tempo": 120.0
            },
            {
                "start_time": 48.29545454545454,
                "end_time": 48.445454545454545,
                "pitch": 43,
                "velocity": 40,
                "duration": 0.15000000000000568,
                "tempo": 120.0
            },
            {
                "start_time": 48.49545454545454,
                "end_time": 48.64545454545454,
                "pitch": 48,
                "velocity": 40,
                "duration": 0.14999999999999858,
                "tempo": 120.0
            },
            {
                "start_time": 48.695454545454545,
                "end_time": 48.84772727272727,
                "pitch": 40,
                "velocity": 40,
                "duration": 0.15227272727272378,
                "tempo": 120.0
            },
            {
                "start_time": 48.89772727272727,
                "end_time": 49.04772727272727,
                "pitch": 38,
                "velocity": 40,
                "duration": 0.14999999999999858,
                "tempo": 120.0
            },
            {
                "start_time": 49.09772727272727,
                "end_time": 49.24772727272727,
                "pitch": 41,
                "velocity": 40,
                "duration": 0.14999999999999858,
                "tempo": 120.0
            },
            {
                "start_time": 49.29772727272727,
                "end_time": 49.44772727272727,
                "pitch": 47,
                "velocity": 40,
                "duration": 0.14999999999999858,
                "tempo": 120.0
            },
            {
                "start_time": 49.49772727272727,
                "end_time": 49.64772727272727,
                "pitch": 38,
                "velocity": 40,
                "duration": 0.15000000000000568,
                "tempo": 120.0
            },
            {
                "start_time": 49.69772727272727,
                "end_time": 49.84772727272727,
                "pitch": 36,
                "velocity": 40,
                "duration": 0.14999999999999858,
                "tempo": 120.0
            },
            {
                "start_time": 49.89772727272727,
                "end_time": 50.04772727272727,
                "pitch": 40,
                "velocity": 40,
                "duration": 0.14999999999999858,
                "tempo": 120.0
            },
            {
                "start_time": 50.09772727272727,
                "end_time": 50.24772727272727,
                "pitch": 45,
                "velocity": 40,
                "duration": 0.14999999999999858,
                "tempo": 120.0
            },
            {
                "start_time": 50.29772727272727,
                "end_time": 50.44772727272727,
                "pitch": 36,
                "velocity": 40,
                "duration": 0.14999999999999858,
                "tempo": 120.0
            },
            {
                "start_time": 50.49772727272727,
                "end_time": 50.64772727272727,
                "pitch": 35,
                "velocity": 40,
                "duration": 0.15000000000000568,
                "tempo": 120.0
            },
            {
                "start_time": 50.69772727272727,
                "end_time": 50.849999999999994,
                "pitch": 38,
                "velocity": 40,
                "duration": 0.15227272727272378,
                "tempo": 120.0
            },
            {
                "start_time": 50.9,
                "end_time": 51.05,
                "pitch": 43,
                "velocity": 40,
                "duration": 0.14999999999999858,
                "tempo": 120.0
            },
            {
                "start_time": 51.099999999999994,
                "end_time": 51.25,
                "pitch": 35,
                "velocity": 40,
                "duration": 0.15000000000000568,
                "tempo": 120.0
            },
            {
                "start_time": 51.3,
                "end_time": 51.449999999999996,
                "pitch": 33,
                "velocity": 40,
                "duration": 0.14999999999999858,
                "tempo": 120.0
            },
            {
                "start_time": 51.5,
                "end_time": 51.65,
                "pitch": 36,
                "velocity": 40,
                "duration": 0.14999999999999858,
                "tempo": 120.0
            },
            {
                "start_time": 51.699999999999996,
                "end_time": 51.849999999999994,
                "pitch": 40,
                "velocity": 40,
                "duration": 0.14999999999999858,
                "tempo": 120.0
            },
            {
                "start_time": 51.9,
                "end_time": 52.05,
                "pitch": 33,
                "velocity": 40,
                "duration": 0.14999999999999858,
                "tempo": 120.0
            },
            {
                "start_time": 52.099999999999994,
                "end_time": 52.25,
                "pitch": 35,
                "velocity": 40,
                "duration": 0.15000000000000568,
                "tempo": 120.0
            },
            {
                "start_time": 52.3,
                "end_time": 52.449999999999996,
                "pitch": 38,
                "velocity": 40,
                "duration": 0.14999999999999858,
                "tempo": 120.0
            },
            {
                "start_time": 52.5,
                "end_time": 52.65,
                "pitch": 41,
                "velocity": 40,
                "duration": 0.14999999999999858,
                "tempo": 120.0
            },
            {
                "start_time": 52.699999999999996,
                "end_time": 52.85227272727273,
                "pitch": 35,
                "velocity": 40,
                "duration": 0.1522727272727309,
                "tempo": 120.0
            },
            {
                "start_time": 52.902272727272724,
                "end_time": 53.05227272727272,
                "pitch": 36,
                "velocity": 40,
                "duration": 0.14999999999999858,
                "tempo": 120.0
            },
            {
                "start_time": 53.10227272727273,
                "end_time": 53.252272727272725,
                "pitch": 40,
                "velocity": 40,
                "duration": 0.14999999999999858,
                "tempo": 120.0
            },
            {
                "start_time": 53.30227272727272,
                "end_time": 53.45227272727273,
                "pitch": 43,
                "velocity": 40,
                "duration": 0.15000000000000568,
                "tempo": 120.0
            },
            {
                "start_time": 53.502272727272725,
                "end_time": 53.652272727272724,
                "pitch": 36,
                "velocity": 40,
                "duration": 0.14999999999999858,
                "tempo": 120.0
            },
            {
                "start_time": 53.70227272727273,
                "end_time": 53.85227272727273,
                "pitch": 38,
                "velocity": 40,
                "duration": 0.14999999999999858,
                "tempo": 120.0
            },
            {
                "start_time": 53.902272727272724,
                "end_time": 54.05227272727272,
                "pitch": 41,
                "velocity": 40,
                "duration": 0.14999999999999858,
                "tempo": 120.0
            },
            {
                "start_time": 54.10227272727273,
                "end_time": 54.252272727272725,
                "pitch": 45,
                "velocity": 40,
                "duration": 0.14999999999999858,
                "tempo": 120.0
            },
            {
                "start_time": 54.30227272727272,
                "end_time": 54.45227272727273,
                "pitch": 38,
                "velocity": 40,
                "duration": 0.15000000000000568,
                "tempo": 120.0
            },
            {
                "start_time": 54.502272727272725,
                "end_time": 54.652272727272724,
                "pitch": 40,
                "velocity": 40,
                "duration": 0.14999999999999858,
                "tempo": 120.0
            },
            {
                "start_time": 54.70454545454545,
                "end_time": 54.85454545454545,
                "pitch": 43,
                "velocity": 40,
                "duration": 0.14999999999999858,
                "tempo": 120.0
            },
            {
                "start_time": 54.90454545454545,
                "end_time": 55.054545454545455,
                "pitch": 48,
                "velocity": 40,
                "duration": 0.15000000000000568,
                "tempo": 120.0
            },
            {
                "start_time": 55.10454545454545,
                "end_time": 55.25454545454545,
                "pitch": 40,
                "velocity": 40,
                "duration": 0.14999999999999858,
                "tempo": 120.0
            },
            {
                "start_time": 55.304545454545455,
                "end_time": 55.45454545454545,
                "pitch": 38,
                "velocity": 40,
                "duration": 0.14999999999999858,
                "tempo": 120.0
            },
            {
                "start_time": 55.50454545454545,
                "end_time": 55.65454545454545,
                "pitch": 41,
                "velocity": 40,
                "duration": 0.14999999999999858,
                "tempo": 120.0
            },
            {
                "start_time": 55.70454545454545,
                "end_time": 55.85454545454545,
                "pitch": 47,
                "velocity": 40,
                "duration": 0.14999999999999858,
                "tempo": 120.0
            },
            {
                "start_time": 55.90454545454545,
                "end_time": 56.054545454545455,
                "pitch": 38,
                "velocity": 40,
                "duration": 0.15000000000000568,
                "tempo": 120.0
            },
            {
                "start_time": 56.10454545454545,
                "end_time": 56.25454545454545,
                "pitch": 36,
                "velocity": 40,
                "duration": 0.14999999999999858,
                "tempo": 120.0
            },
            {
                "start_time": 56.304545454545455,
                "end_time": 56.45454545454545,
                "pitch": 40,
                "velocity": 40,
                "duration": 0.14999999999999858,
                "tempo": 120.0
            },
            {
                "start_time": 56.50454545454545,
                "end_time": 56.65681818181818,
                "pitch": 45,
                "velocity": 40,
                "duration": 0.1522727272727309,
                "tempo": 120.0
            },
            {
                "start_time": 56.70681818181818,
                "end_time": 56.85681818181818,
                "pitch": 36,
                "velocity": 40,
                "duration": 0.14999999999999858,
                "tempo": 120.0
            },
            {
                "start_time": 56.90681818181818,
                "end_time": 57.05681818181818,
                "pitch": 35,
                "velocity": 40,
                "duration": 0.14999999999999858,
                "tempo": 120.0
            },
            {
                "start_time": 57.10681818181818,
                "end_time": 57.256818181818176,
                "pitch": 38,
                "velocity": 40,
                "duration": 0.14999999999999858,
                "tempo": 120.0
            },
            {
                "start_time": 57.30681818181818,
                "end_time": 57.45681818181818,
                "pitch": 43,
                "velocity": 40,
                "duration": 0.14999999999999858,
                "tempo": 120.0
            },
            {
                "start_time": 57.506818181818176,
                "end_time": 57.65681818181818,
                "pitch": 35,
                "velocity": 40,
                "duration": 0.15000000000000568,
                "tempo": 120.0
            },
            {
                "start_time": 57.70681818181818,
                "end_time": 57.85681818181818,
                "pitch": 36,
                "velocity": 40,
                "duration": 0.14999999999999858,
                "tempo": 120.0
            },
            {
                "start_time": 57.90681818181818,
                "end_time": 58.05681818181818,
                "pitch": 40,
                "velocity": 40,
                "duration": 0.14999999999999858,
                "tempo": 120.0
            },
            {
                "start_time": 58.10681818181818,
                "end_time": 58.256818181818176,
                "pitch": 45,
                "velocity": 40,
                "duration": 0.14999999999999858,
                "tempo": 120.0
            },
            {
                "start_time": 58.30681818181818,
                "end_time": 58.45681818181818,
                "pitch": 40,
                "velocity": 40,
                "duration": 0.14999999999999858,
                "tempo": 120.0
            },
            {
                "start_time": 58.506818181818176,
                "end_time": 58.65909090909091,
                "pitch": 35,
                "velocity": 40,
                "duration": 0.1522727272727309,
                "tempo": 120.0
            },
            {
                "start_time": 58.709090909090904,
                "end_time": 58.85909090909091,
                "pitch": 38,
                "velocity": 40,
                "duration": 0.15000000000000568,
                "tempo": 120.0
            },
            {
                "start_time": 58.91136363636363,
                "end_time": 59.06136363636363,
                "pitch": 43,
                "velocity": 40,
                "duration": 0.14999999999999858,
                "tempo": 120.0
            },
            {
                "start_time": 59.111363636363635,
                "end_time": 59.26136363636363,
                "pitch": 38,
                "velocity": 40,
                "duration": 0.14999999999999858,
                "tempo": 120.0
            },
            {
                "start_time": 59.31136363636363,
                "end_time": 59.461363636363636,
                "pitch": 38,
                "velocity": 40,
                "duration": 0.15000000000000568,
                "tempo": 120.0
            },
            {
                "start_time": 59.51136363636363,
                "end_time": 59.66136363636363,
                "pitch": 42,
                "velocity": 40,
                "duration": 0.14999999999999858,
                "tempo": 120.0
            },
            {
                "start_time": 59.711363636363636,
                "end_time": 59.861363636363635,
                "pitch": 47,
                "velocity": 40,
                "duration": 0.14999999999999858,
                "tempo": 120.0
            },
            {
                "start_time": 59.91136363636363,
                "end_time": 60.06136363636363,
                "pitch": 42,
                "velocity": 40,
                "duration": 0.14999999999999858,
                "tempo": 120.0
            },
            {
                "start_time": 60.111363636363635,
                "end_time": 60.26136363636363,
                "pitch": 40,
                "velocity": 40,
                "duration": 0.14999999999999858,
                "tempo": 120.0
            },
            {
                "start_time": 60.31136363636363,
                "end_time": 60.461363636363636,
                "pitch": 44,
                "velocity": 40,
                "duration": 0.15000000000000568,
                "tempo": 120.0
            },
            {
                "start_time": 60.51136363636363,
                "end_time": 60.66136363636363,
                "pitch": 47,
                "velocity": 40,
                "duration": 0.14999999999999858,
                "tempo": 120.0
            },
            {
                "start_time": 60.711363636363636,
                "end_time": 60.86363636363636,
                "pitch": 44,
                "velocity": 40,
                "duration": 0.15227272727272378,
                "tempo": 120.0
            },
            {
                "start_time": 60.913636363636364,
                "end_time": 61.06363636363636,
                "pitch": 36,
                "velocity": 40,
                "duration": 0.14999999999999858,
                "tempo": 120.0
            },
            {
                "start_time": 61.11363636363636,
                "end_time": 61.26363636363636,
                "pitch": 40,
                "velocity": 40,
                "duration": 0.14999999999999858,
                "tempo": 120.0
            },
            {
                "start_time": 61.31363636363636,
                "end_time": 61.46363636363636,
                "pitch": 45,
                "velocity": 40,
                "duration": 0.14999999999999858,
                "tempo": 120.0
            },
            {
                "start_time": 61.51363636363636,
                "end_time": 61.663636363636364,
                "pitch": 40,
                "velocity": 40,
                "duration": 0.15000000000000568,
                "tempo": 120.0
            },
            {
                "start_time": 61.71363636363636,
                "end_time": 61.86363636363636,
                "pitch": 35,
                "velocity": 40,
                "duration": 0.14999999999999858,
                "tempo": 120.0
            },
            {
                "start_time": 61.913636363636364,
                "end_time": 62.06363636363636,
                "pitch": 38,
                "velocity": 40,
                "duration": 0.14999999999999858,
                "tempo": 120.0
            },
            {
                "start_time": 62.11363636363636,
                "end_time": 62.26363636363636,
                "pitch": 43,
                "velocity": 40,
                "duration": 0.14999999999999858,
                "tempo": 120.0
            },
            {
                "start_time": 62.31363636363636,
                "end_time": 62.46363636363636,
                "pitch": 38,
                "velocity": 40,
                "duration": 0.14999999999999858,
                "tempo": 120.0
            },
            {
                "start_time": 62.51363636363636,
                "end_time": 62.663636363636364,
                "pitch": 33,
                "velocity": 40,
                "duration": 0.15000000000000568,
                "tempo": 120.0
            },
            {
                "start_time": 62.71363636363636,
                "end_time": 62.865909090909085,
                "pitch": 36,
                "velocity": 40,
                "duration": 0.15227272727272378,
                "tempo": 120.0
            },
            {
                "start_time": 62.91590909090909,
                "end_time": 63.06590909090909,
                "pitch": 43,
                "velocity": 40,
                "duration": 0.14999999999999858,
                "tempo": 120.0
            },
            {
                "start_time": 63.115909090909085,
                "end_time": 63.26590909090909,
                "pitch": 36,
                "velocity": 40,
                "duration": 0.15000000000000568,
                "tempo": 120.0
            },
            {
                "start_time": 63.31590909090909,
                "end_time": 63.465909090909086,
                "pitch": 32,
                "velocity": 40,
                "duration": 0.14999999999999858,
                "tempo": 120.0
            },
            {
                "start_time": 63.51590909090909,
                "end_time": 63.66590909090909,
                "pitch": 35,
                "velocity": 40,
                "duration": 0.14999999999999858,
                "tempo": 120.0
            },
            {
                "start_time": 63.715909090909086,
                "end_time": 63.865909090909085,
                "pitch": 38,
                "velocity": 40,
                "duration": 0.14999999999999858,
                "tempo": 120.0
            },
            {
                "start_time": 63.91590909090909,
                "end_time": 64.06590909090909,
                "pitch": 35,
                "velocity": 40,
                "duration": 0.14999999999999858,
                "tempo": 120.0
            },
            {
                "start_time": 64.11590909090908,
                "end_time": 64.26590909090909,
                "pitch": 36,
                "velocity": 40,
                "duration": 0.15000000000000568,
                "tempo": 120.0
            },
            {
                "start_time": 64.31590909090909,
                "end_time": 64.4659090909091,
                "pitch": 40,
                "velocity": 40,
                "duration": 0.15000000000000568,
                "tempo": 120.0
            },
            {
                "start_time": 64.51590909090909,
                "end_time": 64.66590909090908,
                "pitch": 45,
                "velocity": 40,
                "duration": 0.14999999999999147,
                "tempo": 120.0
            },
            {
                "start_time": 64.7159090909091,
                "end_time": 64.86590909090908,
                "pitch": 40,
                "velocity": 40,
                "duration": 0.14999999999999147,
                "tempo": 120.0
            },
            {
                "start_time": 64.91590909090908,
                "end_time": 65.06590909090909,
                "pitch": 35,
                "velocity": 40,
                "duration": 0.15000000000000568,
                "tempo": 120.0
            },
            {
                "start_time": 65.11818181818181,
                "end_time": 65.26818181818182,
                "pitch": 38,
                "velocity": 40,
                "duration": 0.15000000000000568,
                "tempo": 120.0
            },
            {
                "start_time": 65.31818181818181,
                "end_time": 65.47045454545454,
                "pitch": 43,
                "velocity": 40,
                "duration": 0.1522727272727309,
                "tempo": 120.0
            },
            {
                "start_time": 65.52045454545454,
                "end_time": 65.67045454545455,
                "pitch": 38,
                "velocity": 40,
                "duration": 0.15000000000000568,
                "tempo": 120.0
            },
            {
                "start_time": 65.72045454545454,
                "end_time": 65.87045454545454,
                "pitch": 38,
                "velocity": 40,
                "duration": 0.14999999999999147,
                "tempo": 120.0
            },
            {
                "start_time": 65.92045454545455,
                "end_time": 66.07045454545454,
                "pitch": 42,
                "velocity": 40,
                "duration": 0.14999999999999147,
                "tempo": 120.0
            },
            {
                "start_time": 66.12045454545454,
                "end_time": 66.27272727272727,
                "pitch": 47,
                "velocity": 40,
                "duration": 0.1522727272727309,
                "tempo": 120.0
            },
            {
                "start_time": 66.32272727272726,
                "end_time": 66.47272727272727,
                "pitch": 42,
                "velocity": 40,
                "duration": 0.15000000000000568,
                "tempo": 120.0
            },
            {
                "start_time": 66.52272727272727,
                "end_time": 66.67272727272727,
                "pitch": 40,
                "velocity": 40,
                "duration": 0.15000000000000568,
                "tempo": 120.0
            },
            {
                "start_time": 66.72272727272727,
                "end_time": 66.87272727272727,
                "pitch": 44,
                "velocity": 40,
                "duration": 0.15000000000000568,
                "tempo": 120.0
            },
            {
                "start_time": 66.925,
                "end_time": 67.075,
                "pitch": 47,
                "velocity": 40,
                "duration": 0.15000000000000568,
                "tempo": 120.0
            },
            {
                "start_time": 67.125,
                "end_time": 67.27727272727273,
                "pitch": 44,
                "velocity": 40,
                "duration": 0.1522727272727309,
                "tempo": 120.0
            },
            {
                "start_time": 67.32727272727273,
                "end_time": 67.47727272727272,
                "pitch": 36,
                "velocity": 40,
                "duration": 0.14999999999999147,
                "tempo": 120.0
            },
            {
                "start_time": 67.52727272727273,
                "end_time": 67.67954545454545,
                "pitch": 40,
                "velocity": 40,
                "duration": 0.15227272727271668,
                "tempo": 120.0
            },
            {
                "start_time": 67.72954545454544,
                "end_time": 67.87954545454545,
                "pitch": 45,
                "velocity": 40,
                "duration": 0.15000000000000568,
                "tempo": 120.0
            },
            {
                "start_time": 67.92954545454545,
                "end_time": 68.07954545454545,
                "pitch": 40,
                "velocity": 40,
                "duration": 0.15000000000000568,
                "tempo": 120.0
            },
            {
                "start_time": 68.12954545454545,
                "end_time": 68.27954545454546,
                "pitch": 35,
                "velocity": 40,
                "duration": 0.15000000000000568,
                "tempo": 120.0
            },
            {
                "start_time": 68.32954545454545,
                "end_time": 68.48181818181818,
                "pitch": 38,
                "velocity": 40,
                "duration": 0.1522727272727309,
                "tempo": 120.0
            },
            {
                "start_time": 68.53181818181818,
                "end_time": 68.68181818181817,
                "pitch": 43,
                "velocity": 40,
                "duration": 0.14999999999999147,
                "tempo": 120.0
            },
            {
                "start_time": 68.73181818181818,
                "end_time": 68.88181818181818,
                "pitch": 38,
                "velocity": 40,
                "duration": 0.14999999999999147,
                "tempo": 120.0
            },
            {
                "start_time": 68.93181818181817,
                "end_time": 69.08181818181818,
                "pitch": 33,
                "velocity": 40,
                "duration": 0.15000000000000568,
                "tempo": 120.0
            },
            {
                "start_time": 69.1340909090909,
                "end_time": 69.2840909090909,
                "pitch": 36,
                "velocity": 40,
                "duration": 0.15000000000000568,
                "tempo": 120.0
            },
            {
                "start_time": 69.3340909090909,
                "end_time": 69.48636363636363,
                "pitch": 43,
                "velocity": 40,
                "duration": 0.1522727272727309,
                "tempo": 120.0
            },
            {
                "start_time": 69.53636363636363,
                "end_time": 69.68636363636364,
                "pitch": 36,
                "velocity": 40,
                "duration": 0.15000000000000568,
                "tempo": 120.0
            },
            {
                "start_time": 69.73636363636363,
                "end_time": 69.88636363636363,
                "pitch": 35,
                "velocity": 40,
                "duration": 0.14999999999999147,
                "tempo": 120.0
            },
            {
                "start_time": 69.93636363636364,
                "end_time": 70.08636363636363,
                "pitch": 38,
                "velocity": 40,
                "duration": 0.14999999999999147,
                "tempo": 120.0
            },
            {
                "start_time": 70.13636363636363,
                "end_time": 70.28863636363636,
                "pitch": 43,
                "velocity": 40,
                "duration": 0.1522727272727309,
                "tempo": 120.0
            },
            {
                "start_time": 70.33863636363635,
                "end_time": 70.48863636363636,
                "pitch": 38,
                "velocity": 40,
                "duration": 0.15000000000000568,
                "tempo": 120.0
            },
            {
                "start_time": 70.54090909090908,
                "end_time": 71.18636363636364,
                "pitch": 44,
                "velocity": 64,
                "duration": 0.6454545454545553,
                "tempo": 120.0
            },
            {
                "start_time": 83.38636363636363,
                "end_time": 83.53636363636363,
                "pitch": 44,
                "velocity": 51,
                "duration": 0.15000000000000568,
                "tempo": 120.0
            },
            {
                "start_time": 83.58863636363635,
                "end_time": 83.73863636363636,
                "pitch": 44,
                "velocity": 51,
                "duration": 0.15000000000000568,
                "tempo": 120.0
            },
            {
                "start_time": 83.78863636363636,
                "end_time": 83.94318181818181,
                "pitch": 44,
                "velocity": 51,
                "duration": 0.1545454545454561,
                "tempo": 120.0
            },
            {
                "start_time": 83.99545454545454,
                "end_time": 84.14772727272727,
                "pitch": 44,
                "velocity": 51,
                "duration": 0.1522727272727309,
                "tempo": 120.0
            },
            {
                "start_time": 84.2,
                "end_time": 84.35,
                "pitch": 44,
                "velocity": 51,
                "duration": 0.14999999999999147,
                "tempo": 120.0
            },
            {
                "start_time": 84.39999999999999,
                "end_time": 84.55,
                "pitch": 44,
                "velocity": 51,
                "duration": 0.15000000000000568,
                "tempo": 120.0
            },
            {
                "start_time": 84.6,
                "end_time": 84.75227272727273,
                "pitch": 44,
                "velocity": 51,
                "duration": 0.1522727272727309,
                "tempo": 120.0
            },
            {
                "start_time": 84.80227272727272,
                "end_time": 84.95227272727273,
                "pitch": 44,
                "velocity": 51,
                "duration": 0.15000000000000568,
                "tempo": 120.0
            },
            {
                "start_time": 85.00227272727273,
                "end_time": 85.15454545454546,
                "pitch": 43,
                "velocity": 51,
                "duration": 0.1522727272727309,
                "tempo": 120.0
            },
            {
                "start_time": 85.20454545454545,
                "end_time": 85.35454545454544,
                "pitch": 43,
                "velocity": 51,
                "duration": 0.14999999999999147,
                "tempo": 120.0
            },
            {
                "start_time": 85.40454545454546,
                "end_time": 85.55454545454545,
                "pitch": 43,
                "velocity": 51,
                "duration": 0.14999999999999147,
                "tempo": 120.0
            },
            {
                "start_time": 85.60454545454544,
                "end_time": 85.75454545454545,
                "pitch": 43,
                "velocity": 51,
                "duration": 0.15000000000000568,
                "tempo": 120.0
            },
            {
                "start_time": 85.80454545454545,
                "end_time": 85.95681818181818,
                "pitch": 43,
                "velocity": 51,
                "duration": 0.1522727272727309,
                "tempo": 120.0
            },
            {
                "start_time": 86.00681818181818,
                "end_time": 86.15681818181818,
                "pitch": 39,
                "velocity": 51,
                "duration": 0.15000000000000568,
                "tempo": 120.0
            },
            {
                "start_time": 86.2090909090909,
                "end_time": 86.35454545454544,
                "pitch": 41,
                "velocity": 51,
                "duration": 0.14545454545454106,
                "tempo": 120.0
            },
            {
                "start_time": 86.40454545454546,
                "end_time": 86.55227272727272,
                "pitch": 43,
                "velocity": 51,
                "duration": 0.14772727272726627,
                "tempo": 120.0
            },
            {
                "start_time": 86.6,
                "end_time": 86.75,
                "pitch": 44,
                "velocity": 51,
                "duration": 0.15000000000000568,
                "tempo": 120.0
            },
            {
                "start_time": 86.8,
                "end_time": 86.95,
                "pitch": 44,
                "velocity": 51,
                "duration": 0.15000000000000568,
                "tempo": 120.0
            },
            {
                "start_time": 87.0,
                "end_time": 87.15454545454546,
                "pitch": 44,
                "velocity": 51,
                "duration": 0.1545454545454561,
                "tempo": 120.0
            },
            {
                "start_time": 87.20454545454545,
                "end_time": 87.35909090909091,
                "pitch": 44,
                "velocity": 51,
                "duration": 0.1545454545454561,
                "tempo": 120.0
            },
            {
                "start_time": 87.41136363636363,
                "end_time": 87.56136363636364,
                "pitch": 44,
                "velocity": 51,
                "duration": 0.15000000000000568,
                "tempo": 120.0
            },
            {
                "start_time": 87.61136363636363,
                "end_time": 87.76136363636363,
                "pitch": 44,
                "velocity": 51,
                "duration": 0.14999999999999147,
                "tempo": 120.0
            },
            {
                "start_time": 87.81136363636364,
                "end_time": 87.96136363636363,
                "pitch": 44,
                "velocity": 51,
                "duration": 0.14999999999999147,
                "tempo": 120.0
            },
            {
                "start_time": 88.01363636363637,
                "end_time": 88.16363636363636,
                "pitch": 44,
                "velocity": 51,
                "duration": 0.14999999999999147,
                "tempo": 120.0
            },
            {
                "start_time": 88.21363636363635,
                "end_time": 88.36363636363636,
                "pitch": 43,
                "velocity": 51,
                "duration": 0.15000000000000568,
                "tempo": 120.0
            },
            {
                "start_time": 88.41363636363636,
                "end_time": 88.56363636363636,
                "pitch": 43,
                "velocity": 51,
                "duration": 0.15000000000000568,
                "tempo": 120.0
            },
            {
                "start_time": 88.61363636363636,
                "end_time": 88.76590909090909,
                "pitch": 43,
                "velocity": 51,
                "duration": 0.1522727272727309,
                "tempo": 120.0
            },
            {
                "start_time": 88.81590909090909,
                "end_time": 88.9659090909091,
                "pitch": 43,
                "velocity": 51,
                "duration": 0.15000000000000568,
                "tempo": 120.0
            },
            {
                "start_time": 89.01590909090909,
                "end_time": 89.16363636363636,
                "pitch": 43,
                "velocity": 51,
                "duration": 0.14772727272726627,
                "tempo": 120.0
            },
            {
                "start_time": 89.21363636363635,
                "end_time": 89.35909090909091,
                "pitch": 43,
                "velocity": 51,
                "duration": 0.14545454545455527,
                "tempo": 120.0
            },
            {
                "start_time": 89.4090909090909,
                "end_time": 89.5590909090909,
                "pitch": 43,
                "velocity": 51,
                "duration": 0.14999999999999147,
                "tempo": 120.0
            },
            {
                "start_time": 89.60909090909091,
                "end_time": 89.76136363636363,
                "pitch": 42,
                "velocity": 51,
                "duration": 0.15227272727271668,
                "tempo": 120.0
            },
            {
                "start_time": 89.81136363636364,
                "end_time": 89.96136363636363,
                "pitch": 41,
                "velocity": 51,
                "duration": 0.14999999999999147,
                "tempo": 120.0
            },
            {
                "start_time": 90.01136363636363,
                "end_time": 90.16136363636363,
                "pitch": 41,
                "velocity": 51,
                "duration": 0.15000000000000568,
                "tempo": 120.0
            },
            {
                "start_time": 90.21136363636363,
                "end_time": 90.36590909090908,
                "pitch": 41,
                "velocity": 51,
                "duration": 0.1545454545454561,
                "tempo": 120.0
            },
            {
                "start_time": 90.41590909090908,
                "end_time": 90.57045454545454,
                "pitch": 41,
                "velocity": 51,
                "duration": 0.1545454545454561,
                "tempo": 120.0
            },
            {
                "start_time": 90.62272727272727,
                "end_time": 90.77272727272727,
                "pitch": 41,
                "velocity": 51,
                "duration": 0.14999999999999147,
                "tempo": 120.0
            },
            {
                "start_time": 90.82272727272726,
                "end_time": 90.975,
                "pitch": 41,
                "velocity": 51,
                "duration": 0.1522727272727309,
                "tempo": 120.0
            },
            {
                "start_time": 91.02499999999999,
                "end_time": 91.175,
                "pitch": 41,
                "velocity": 51,
                "duration": 0.15000000000000568,
                "tempo": 120.0
            },
            {
                "start_time": 91.22727272727272,
                "end_time": 91.37727272727273,
                "pitch": 41,
                "velocity": 51,
                "duration": 0.15000000000000568,
                "tempo": 120.0
            },
            {
                "start_time": 91.42727272727272,
                "end_time": 91.57499999999999,
                "pitch": 43,
                "velocity": 51,
                "duration": 0.14772727272726627,
                "tempo": 120.0
            },
            {
                "start_time": 91.62272727272727,
                "end_time": 91.77045454545454,
                "pitch": 43,
                "velocity": 51,
                "duration": 0.14772727272726627,
                "tempo": 120.0
            },
            {
                "start_time": 91.82045454545454,
                "end_time": 91.97272727272727,
                "pitch": 43,
                "velocity": 51,
                "duration": 0.1522727272727309,
                "tempo": 120.0
            },
            {
                "start_time": 92.02499999999999,
                "end_time": 92.17954545454545,
                "pitch": 43,
                "velocity": 51,
                "duration": 0.1545454545454561,
                "tempo": 120.0
            },
            {
                "start_time": 92.22954545454544,
                "end_time": 92.37954545454545,
                "pitch": 43,
                "velocity": 51,
                "duration": 0.15000000000000568,
                "tempo": 120.0
            },
            {
                "start_time": 92.42954545454545,
                "end_time": 92.57954545454545,
                "pitch": 43,
                "velocity": 51,
                "duration": 0.15000000000000568,
                "tempo": 120.0
            },
            {
                "start_time": 92.62954545454545,
                "end_time": 92.77727272727272,
                "pitch": 43,
                "velocity": 51,
                "duration": 0.14772727272726627,
                "tempo": 120.0
            },
            {
                "start_time": 92.82727272727273,
                "end_time": 92.97272727272727,
                "pitch": 43,
                "velocity": 51,
                "duration": 0.14545454545454106,
                "tempo": 120.0
            },
            {
                "start_time": 93.02272727272727,
                "end_time": 93.17727272727272,
                "pitch": 44,
                "velocity": 51,
                "duration": 0.1545454545454561,
                "tempo": 120.0
            },
            {
                "start_time": 93.22727272727272,
                "end_time": 93.38181818181818,
                "pitch": 44,
                "velocity": 51,
                "duration": 0.1545454545454561,
                "tempo": 120.0
            },
            {
                "start_time": 93.4340909090909,
                "end_time": 93.5840909090909,
                "pitch": 44,
                "velocity": 51,
                "duration": 0.15000000000000568,
                "tempo": 120.0
            },
            {
                "start_time": 93.6340909090909,
                "end_time": 93.7840909090909,
                "pitch": 44,
                "velocity": 51,
                "duration": 0.15000000000000568,
                "tempo": 120.0
            },
            {
                "start_time": 93.8340909090909,
                "end_time": 93.98409090909091,
                "pitch": 44,
                "velocity": 51,
                "duration": 0.15000000000000568,
                "tempo": 120.0
            },
            {
                "start_time": 94.0340909090909,
                "end_time": 94.18636363636364,
                "pitch": 44,
                "velocity": 51,
                "duration": 0.1522727272727309,
                "tempo": 120.0
            },
            {
                "start_time": 94.23636363636363,
                "end_time": 94.38636363636363,
                "pitch": 44,
                "velocity": 51,
                "duration": 0.14999999999999147,
                "tempo": 120.0
            },
            {
                "start_time": 94.43636363636364,
                "end_time": 94.58636363636363,
                "pitch": 44,
                "velocity": 51,
                "duration": 0.14999999999999147,
                "tempo": 120.0
            },
            {
                "start_time": 94.63636363636363,
                "end_time": 94.7840909090909,
                "pitch": 48,
                "velocity": 51,
                "duration": 0.14772727272728048,
                "tempo": 120.0
            },
            {
                "start_time": 95.02727272727272,
                "end_time": 95.17954545454545,
                "pitch": 47,
                "velocity": 51,
                "duration": 0.1522727272727309,
                "tempo": 120.0
            },
            {
                "start_time": 95.22954545454544,
                "end_time": 95.38181818181818,
                "pitch": 43,
                "velocity": 51,
                "duration": 0.1522727272727309,
                "tempo": 120.0
            },
            {
                "start_time": 95.43181818181817,
                "end_time": 95.58181818181818,
                "pitch": 41,
                "velocity": 51,
                "duration": 0.15000000000000568,
                "tempo": 120.0
            },
            {
                "start_time": 95.63181818181818,
                "end_time": 95.7840909090909,
                "pitch": 43,
                "velocity": 51,
                "duration": 0.1522727272727309,
                "tempo": 120.0
            },
            {
                "start_time": 95.8340909090909,
                "end_time": 95.98863636363636,
                "pitch": 47,
                "velocity": 51,
                "duration": 0.1545454545454561,
                "tempo": 120.0
            },
            {
                "start_time": 96.03863636363636,
                "end_time": 96.19318181818181,
                "pitch": 50,
                "velocity": 51,
                "duration": 0.1545454545454561,
                "tempo": 120.0
            },
            {
                "start_time": 96.26136363636363,
                "end_time": 96.39545454545454,
                "pitch": 36,
                "velocity": 51,
                "duration": 0.13409090909091503,
                "tempo": 120.0
            },
            {
                "start_time": 96.44545454545454,
                "end_time": 96.59545454545454,
                "pitch": 39,
                "velocity": 40,
                "duration": 0.15000000000000568,
                "tempo": 120.0
            },
            {
                "start_time": 96.64545454545454,
                "end_time": 96.79090909090908,
                "pitch": 43,
                "velocity": 40,
                "duration": 0.14545454545454106,
                "tempo": 120.0
            },
            {
                "start_time": 96.84090909090908,
                "end_time": 96.98863636363636,
                "pitch": 39,
                "velocity": 40,
                "duration": 0.14772727272728048,
                "tempo": 120.0
            },
            {
                "start_time": 97.03636363636363,
                "end_time": 97.18863636363636,
                "pitch": 38,
                "velocity": 40,
                "duration": 0.1522727272727309,
                "tempo": 120.0
            },
            {
                "start_time": 97.23863636363636,
                "end_time": 97.38863636363637,
                "pitch": 41,
                "velocity": 40,
                "duration": 0.15000000000000568,
                "tempo": 120.0
            },
            {
                "start_time": 97.43863636363636,
                "end_time": 97.59090909090908,
                "pitch": 44,
                "velocity": 40,
                "duration": 0.15227272727271668,
                "tempo": 120.0
            },
            {
                "start_time": 97.64090909090909,
                "end_time": 97.79090909090908,
                "pitch": 38,
                "velocity": 40,
                "duration": 0.14999999999999147,
                "tempo": 120.0
            },
            {
                "start_time": 97.84318181818182,
                "end_time": 97.99318181818181,
                "pitch": 39,
                "velocity": 40,
                "duration": 0.14999999999999147,
                "tempo": 120.0
            },
            {
                "start_time": 98.04318181818181,
                "end_time": 98.19318181818181,
                "pitch": 43,
                "velocity": 40,
                "duration": 0.15000000000000568,
                "tempo": 120.0
            },
            {
                "start_time": 98.24318181818181,
                "end_time": 98.39318181818182,
                "pitch": 36,
                "velocity": 40,
                "duration": 0.15000000000000568,
                "tempo": 120.0
            },
            {
                "start_time": 98.44318181818181,
                "end_time": 98.59545454545454,
                "pitch": 39,
                "velocity": 40,
                "duration": 0.1522727272727309,
                "tempo": 120.0
            },
            {
                "start_time": 98.64545454545454,
                "end_time": 98.79545454545455,
                "pitch": 41,
                "velocity": 40,
                "duration": 0.15000000000000568,
                "tempo": 120.0
            },
            {
                "start_time": 98.84545454545454,
                "end_time": 98.99545454545454,
                "pitch": 44,
                "velocity": 40,
                "duration": 0.14999999999999147,
                "tempo": 120.0
            },
            {
                "start_time": 99.04545454545455,
                "end_time": 99.19545454545454,
                "pitch": 50,
                "velocity": 40,
                "duration": 0.14999999999999147,
                "tempo": 120.0
            },
            {
                "start_time": 99.24545454545454,
                "end_time": 99.39772727272727,
                "pitch": 41,
                "velocity": 40,
                "duration": 0.1522727272727309,
                "tempo": 120.0
            },
            {
                "start_time": 99.44772727272726,
                "end_time": 99.59772727272727,
                "pitch": 39,
                "velocity": 40,
                "duration": 0.15000000000000568,
                "tempo": 120.0
            },
            {
                "start_time": 99.64999999999999,
                "end_time": 99.8,
                "pitch": 43,
                "velocity": 40,
                "duration": 0.15000000000000568,
                "tempo": 120.0
            },
            {
                "start_time": 99.85,
                "end_time": 100.0,
                "pitch": 36,
                "velocity": 40,
                "duration": 0.15000000000000568,
                "tempo": 120.0
            },
            {
                "start_time": 100.05,
                "end_time": 100.19999999999999,
                "pitch": 39,
                "velocity": 40,
                "duration": 0.14999999999999147,
                "tempo": 120.0
            },
            {
                "start_time": 100.25,
                "end_time": 100.40227272727272,
                "pitch": 38,
                "velocity": 40,
                "duration": 0.15227272727271668,
                "tempo": 120.0
            },
            {
                "start_time": 100.45227272727273,
                "end_time": 100.60227272727272,
                "pitch": 41,
                "velocity": 40,
                "duration": 0.14999999999999147,
                "tempo": 120.0
            },
            {
                "start_time": 100.65227272727272,
                "end_time": 100.80227272727272,
                "pitch": 44,
                "velocity": 40,
                "duration": 0.15000000000000568,
                "tempo": 120.0
            },
            {
                "start_time": 100.85227272727272,
                "end_time": 101.00227272727273,
                "pitch": 41,
                "velocity": 40,
                "duration": 0.15000000000000568,
                "tempo": 120.0
            },
            {
                "start_time": 101.05227272727272,
                "end_time": 101.20454545454545,
                "pitch": 36,
                "velocity": 40,
                "duration": 0.1522727272727309,
                "tempo": 120.0
            },
            {
                "start_time": 101.25454545454545,
                "end_time": 101.40454545454546,
                "pitch": 39,
                "velocity": 40,
                "duration": 0.15000000000000568,
                "tempo": 120.0
            },
            {
                "start_time": 101.45681818181818,
                "end_time": 101.60681818181817,
                "pitch": 43,
                "velocity": 40,
                "duration": 0.14999999999999147,
                "tempo": 120.0
            },
            {
                "start_time": 101.65681818181818,
                "end_time": 101.8090909090909,
                "pitch": 36,
                "velocity": 40,
                "duration": 0.15227272727271668,
                "tempo": 120.0
            },
            {
                "start_time": 101.85909090909091,
                "end_time": 102.0090909090909,
                "pitch": 35,
                "velocity": 40,
                "duration": 0.14999999999999147,
                "tempo": 120.0
            },
            {
                "start_time": 102.0590909090909,
                "end_time": 102.2090909090909,
                "pitch": 38,
                "velocity": 40,
                "duration": 0.15000000000000568,
                "tempo": 120.0
            },
            {
                "start_time": 102.2590909090909,
                "end_time": 102.4090909090909,
                "pitch": 41,
                "velocity": 40,
                "duration": 0.15000000000000568,
                "tempo": 120.0
            },
            {
                "start_time": 102.4590909090909,
                "end_time": 102.61136363636363,
                "pitch": 35,
                "velocity": 40,
                "duration": 0.1522727272727309,
                "tempo": 120.0
            },
            {
                "start_time": 102.66136363636363,
                "end_time": 102.81136363636364,
                "pitch": 36,
                "velocity": 40,
                "duration": 0.15000000000000568,
                "tempo": 120.0
            },
            {
                "start_time": 102.86136363636363,
                "end_time": 103.01136363636363,
                "pitch": 39,
                "velocity": 40,
                "duration": 0.14999999999999147,
                "tempo": 120.0
            },
            {
                "start_time": 103.06136363636364,
                "end_time": 103.21136363636363,
                "pitch": 43,
                "velocity": 40,
                "duration": 0.14999999999999147,
                "tempo": 120.0
            },
            {
                "start_time": 103.26136363636363,
                "end_time": 103.41363636363636,
                "pitch": 39,
                "velocity": 40,
                "duration": 0.1522727272727309,
                "tempo": 120.0
            },
            {
                "start_time": 103.46363636363635,
                "end_time": 103.61590909090908,
                "pitch": 38,
                "velocity": 40,
                "duration": 0.1522727272727309,
                "tempo": 120.0
            },
            {
                "start_time": 103.66590909090908,
                "end_time": 103.81590909090909,
                "pitch": 41,
                "velocity": 40,
                "duration": 0.15000000000000568,
                "tempo": 120.0
            },
            {
                "start_time": 103.86590909090908,
                "end_time": 104.01590909090909,
                "pitch": 44,
                "velocity": 40,
                "duration": 0.15000000000000568,
                "tempo": 120.0
            },
            {
                "start_time": 104.06590909090909,
                "end_time": 104.21590909090908,
                "pitch": 38,
                "velocity": 40,
                "duration": 0.14999999999999147,
                "tempo": 120.0
            },
            {
                "start_time": 104.26590909090909,
                "end_time": 104.41818181818181,
                "pitch": 39,
                "velocity": 40,
                "duration": 0.15227272727271668,
                "tempo": 120.0
            },
            {
                "start_time": 104.46818181818182,
                "end_time": 104.61818181818181,
                "pitch": 43,
                "velocity": 40,
                "duration": 0.14999999999999147,
                "tempo": 120.0
            },
            {
                "start_time": 104.66818181818181,
                "end_time": 104.81818181818181,
                "pitch": 36,
                "velocity": 40,
                "duration": 0.15000000000000568,
                "tempo": 120.0
            },
            {
                "start_time": 104.86818181818181,
                "end_time": 105.01818181818182,
                "pitch": 39,
                "velocity": 40,
                "duration": 0.15000000000000568,
                "tempo": 120.0
            },
            {
                "start_time": 105.06818181818181,
                "end_time": 105.22045454545454,
                "pitch": 41,
                "velocity": 40,
                "duration": 0.1522727272727309,
                "tempo": 120.0
            },
            {
                "start_time": 105.27045454545454,
                "end_time": 105.42045454545455,
                "pitch": 44,
                "velocity": 40,
                "duration": 0.15000000000000568,
                "tempo": 120.0
            },
            {
                "start_time": 105.47272727272727,
                "end_time": 105.62272727272726,
                "pitch": 50,
                "velocity": 40,
                "duration": 0.14999999999999147,
                "tempo": 120.0
            },
            {
                "start_time": 105.67272727272727,
                "end_time": 105.82499999999999,
                "pitch": 41,
                "velocity": 40,
                "duration": 0.15227272727271668,
                "tempo": 120.0
            },
            {
                "start_time": 105.875,
                "end_time": 106.02499999999999,
                "pitch": 39,
                "velocity": 40,
                "duration": 0.14999999999999147,
                "tempo": 120.0
            },
            {
                "start_time": 106.07499999999999,
                "end_time": 106.225,
                "pitch": 43,
                "velocity": 40,
                "duration": 0.15000000000000568,
                "tempo": 120.0
            },
            {
                "start_time": 106.27499999999999,
                "end_time": 106.425,
                "pitch": 36,
                "velocity": 40,
                "duration": 0.15000000000000568,
                "tempo": 120.0
            },
            {
                "start_time": 106.475,
                "end_time": 106.62727272727273,
                "pitch": 39,
                "velocity": 40,
                "duration": 0.1522727272727309,
                "tempo": 120.0
            },
            {
                "start_time": 106.67727272727272,
                "end_time": 106.82727272727273,
                "pitch": 38,
                "velocity": 40,
                "duration": 0.15000000000000568,
                "tempo": 120.0
            },
            {
                "start_time": 106.87727272727273,
                "end_time": 107.02727272727272,
                "pitch": 41,
                "velocity": 40,
                "duration": 0.14999999999999147,
                "tempo": 120.0
            },
            {
                "start_time": 107.07727272727273,
                "end_time": 107.22727272727272,
                "pitch": 44,
                "velocity": 40,
                "duration": 0.14999999999999147,
                "tempo": 120.0
            },
            {
                "start_time": 107.27954545454546,
                "end_time": 107.42954545454545,
                "pitch": 41,
                "velocity": 40,
                "duration": 0.14999999999999147,
                "tempo": 120.0
            },
            {
                "start_time": 107.47954545454544,
                "end_time": 107.63181818181818,
                "pitch": 36,
                "velocity": 40,
                "duration": 0.1522727272727309,
                "tempo": 120.0
            },
            {
                "start_time": 107.68181818181817,
                "end_time": 107.83181818181818,
                "pitch": 39,
                "velocity": 40,
                "duration": 0.15000000000000568,
                "tempo": 120.0
            },
            {
                "start_time": 107.88181818181818,
                "end_time": 108.03181818181818,
                "pitch": 43,
                "velocity": 40,
                "duration": 0.15000000000000568,
                "tempo": 120.0
            },
            {
                "start_time": 108.08181818181818,
                "end_time": 108.23181818181817,
                "pitch": 36,
                "velocity": 40,
                "duration": 0.14999999999999147,
                "tempo": 120.0
            },
            {
                "start_time": 108.28181818181818,
                "end_time": 108.4340909090909,
                "pitch": 35,
                "velocity": 40,
                "duration": 0.15227272727271668,
                "tempo": 120.0
            },
            {
                "start_time": 108.48409090909091,
                "end_time": 108.6340909090909,
                "pitch": 38,
                "velocity": 40,
                "duration": 0.14999999999999147,
                "tempo": 120.0
            },
            {
                "start_time": 108.68636363636364,
                "end_time": 108.83636363636363,
                "pitch": 41,
                "velocity": 40,
                "duration": 0.14999999999999147,
                "tempo": 120.0
            },
            {
                "start_time": 108.88636363636363,
                "end_time": 109.03636363636363,
                "pitch": 35,
                "velocity": 40,
                "duration": 0.15000000000000568,
                "tempo": 120.0
            },
            {
                "start_time": 109.08636363636363,
                "end_time": 109.23636363636363,
                "pitch": 33,
                "velocity": 40,
                "duration": 0.15000000000000568,
                "tempo": 120.0
            },
            {
                "start_time": 109.28636363636363,
                "end_time": 109.43863636363636,
                "pitch": 36,
                "velocity": 40,
                "duration": 0.1522727272727309,
                "tempo": 120.0
            },
            {
                "start_time": 109.48863636363636,
                "end_time": 109.63863636363635,
                "pitch": 40,
                "velocity": 40,
                "duration": 0.14999999999999147,
                "tempo": 120.0
            },
            {
                "start_time": 109.68863636363636,
                "end_time": 109.84090909090908,
                "pitch": 33,
                "velocity": 40,
                "duration": 0.15227272727271668,
                "tempo": 120.0
            },
            {
                "start_time": 109.89090909090909,
                "end_time": 110.04090909090908,
                "pitch": 35,
                "velocity": 40,
                "duration": 0.14999999999999147,
                "tempo": 120.0
            },
            {
                "start_time": 110.09090909090908,
                "end_time": 110.24090909090908,
                "pitch": 38,
                "velocity": 40,
                "duration": 0.15000000000000568,
                "tempo": 120.0
            },
            {
                "start_time": 110.29090909090908,
                "end_time": 110.44090909090909,
                "pitch": 41,
                "velocity": 40,
                "duration": 0.15000000000000568,
                "tempo": 120.0
            },
            {
                "start_time": 110.49090909090908,
                "end_time": 110.64318181818182,
                "pitch": 35,
                "velocity": 40,
                "duration": 0.1522727272727309,
                "tempo": 120.0
            },
            {
                "start_time": 110.69318181818181,
                "end_time": 110.84318181818182,
                "pitch": 36,
                "velocity": 40,
                "duration": 0.15000000000000568,
                "tempo": 120.0
            },
            {
                "start_time": 110.89318181818182,
                "end_time": 111.04318181818181,
                "pitch": 40,
                "velocity": 40,
                "duration": 0.14999999999999147,
                "tempo": 120.0
            },
            {
                "start_time": 111.09318181818182,
                "end_time": 111.24545454545454,
                "pitch": 43,
                "velocity": 40,
                "duration": 0.15227272727271668,
                "tempo": 120.0
            },
            {
                "start_time": 111.29545454545455,
                "end_time": 111.44545454545454,
                "pitch": 36,
                "velocity": 40,
                "duration": 0.14999999999999147,
                "tempo": 120.0
            },
            {
                "start_time": 111.49545454545454,
                "end_time": 111.64772727272727,
                "pitch": 38,
                "velocity": 40,
                "duration": 0.1522727272727309,
                "tempo": 120.0
            },
            {
                "start_time": 111.69772727272726,
                "end_time": 111.84772727272727,
                "pitch": 41,
                "velocity": 40,
                "duration": 0.15000000000000568,
                "tempo": 120.0
            },
            {
                "start_time": 111.89772727272727,
                "end_time": 112.04772727272727,
                "pitch": 45,
                "velocity": 40,
                "duration": 0.15000000000000568,
                "tempo": 120.0
            },
            {
                "start_time": 112.09772727272727,
                "end_time": 112.24772727272726,
                "pitch": 38,
                "velocity": 40,
                "duration": 0.14999999999999147,
                "tempo": 120.0
            },
            {
                "start_time": 112.29772727272727,
                "end_time": 112.44999999999999,
                "pitch": 40,
                "velocity": 40,
                "duration": 0.15227272727271668,
                "tempo": 120.0
            },
            {
                "start_time": 112.5,
                "end_time": 112.64999999999999,
                "pitch": 43,
                "velocity": 40,
                "duration": 0.14999999999999147,
                "tempo": 120.0
            },
            {
                "start_time": 112.70227272727273,
                "end_time": 112.85227272727272,
                "pitch": 48,
                "velocity": 40,
                "duration": 0.14999999999999147,
                "tempo": 120.0
            },
            {
                "start_time": 112.90227272727272,
                "end_time": 113.05227272727272,
                "pitch": 40,
                "velocity": 40,
                "duration": 0.15000000000000568,
                "tempo": 120.0
            },
            {
                "start_time": 113.10227272727272,
                "end_time": 113.25227272727273,
                "pitch": 38,
                "velocity": 40,
                "duration": 0.15000000000000568,
                "tempo": 120.0
            },
            {
                "start_time": 113.30227272727272,
                "end_time": 113.45454545454545,
                "pitch": 41,
                "velocity": 40,
                "duration": 0.1522727272727309,
                "tempo": 120.0
            },
            {
                "start_time": 113.50454545454545,
                "end_time": 113.65454545454546,
                "pitch": 47,
                "velocity": 40,
                "duration": 0.15000000000000568,
                "tempo": 120.0
            },
            {
                "start_time": 113.70454545454545,
                "end_time": 113.85681818181817,
                "pitch": 38,
                "velocity": 40,
                "duration": 0.15227272727271668,
                "tempo": 120.0
            },
            {
                "start_time": 113.90681818181818,
                "end_time": 114.05681818181817,
                "pitch": 36,
                "velocity": 40,
                "duration": 0.14999999999999147,
                "tempo": 120.0
            },
            {
                "start_time": 114.10681818181817,
                "end_time": 114.25681818181818,
                "pitch": 40,
                "velocity": 40,
                "duration": 0.15000000000000568,
                "tempo": 120.0
            },
            {
                "start_time": 114.30681818181817,
                "end_time": 114.45681818181818,
                "pitch": 45,
                "velocity": 40,
                "duration": 0.15000000000000568,
                "tempo": 120.0
            },
            {
                "start_time": 114.5090909090909,
                "end_time": 114.6590909090909,
                "pitch": 36,
                "velocity": 40,
                "duration": 0.15000000000000568,
                "tempo": 120.0
            },
            {
                "start_time": 114.7090909090909,
                "end_time": 114.85909090909091,
                "pitch": 35,
                "velocity": 40,
                "duration": 0.15000000000000568,
                "tempo": 120.0
            },
            {
                "start_time": 114.9090909090909,
                "end_time": 115.0590909090909,
                "pitch": 38,
                "velocity": 40,
                "duration": 0.14999999999999147,
                "tempo": 120.0
            },
            {
                "start_time": 115.10909090909091,
                "end_time": 115.26136363636363,
                "pitch": 43,
                "velocity": 40,
                "duration": 0.15227272727271668,
                "tempo": 120.0
            },
            {
                "start_time": 115.31136363636364,
                "end_time": 115.46136363636363,
                "pitch": 35,
                "velocity": 40,
                "duration": 0.14999999999999147,
                "tempo": 120.0
            },
            {
                "start_time": 115.51136363636363,
                "end_time": 115.66363636363636,
                "pitch": 33,
                "velocity": 40,
                "duration": 0.1522727272727309,
                "tempo": 120.0
            },
            {
                "start_time": 115.71363636363635,
                "end_time": 115.86363636363636,
                "pitch": 36,
                "velocity": 40,
                "duration": 0.15000000000000568,
                "tempo": 120.0
            },
            {
                "start_time": 115.91590909090908,
                "end_time": 116.06590909090909,
                "pitch": 40,
                "velocity": 40,
                "duration": 0.15000000000000568,
                "tempo": 120.0
            },
            {
                "start_time": 116.11590909090908,
                "end_time": 116.26590909090909,
                "pitch": 33,
                "velocity": 40,
                "duration": 0.15000000000000568,
                "tempo": 120.0
            },
            {
                "start_time": 116.31590909090909,
                "end_time": 116.46590909090908,
                "pitch": 35,
                "velocity": 40,
                "duration": 0.14999999999999147,
                "tempo": 120.0
            },
            {
                "start_time": 116.51590909090909,
                "end_time": 116.66818181818181,
                "pitch": 38,
                "velocity": 40,
                "duration": 0.15227272727271668,
                "tempo": 120.0
            },
            {
                "start_time": 116.71818181818182,
                "end_time": 116.86818181818181,
                "pitch": 41,
                "velocity": 40,
                "duration": 0.14999999999999147,
                "tempo": 120.0
            },
            {
                "start_time": 116.91818181818181,
                "end_time": 117.06818181818181,
                "pitch": 35,
                "velocity": 40,
                "duration": 0.15000000000000568,
                "tempo": 120.0
            },
            {
                "start_time": 117.11818181818181,
                "end_time": 117.26818181818182,
                "pitch": 36,
                "velocity": 40,
                "duration": 0.15000000000000568,
                "tempo": 120.0
            },
            {
                "start_time": 117.31818181818181,
                "end_time": 117.47045454545454,
                "pitch": 40,
                "velocity": 40,
                "duration": 0.1522727272727309,
                "tempo": 120.0
            },
            {
                "start_time": 117.52045454545454,
                "end_time": 117.67045454545455,
                "pitch": 43,
                "velocity": 40,
                "duration": 0.15000000000000568,
                "tempo": 120.0
            },
            {
                "start_time": 117.72045454545454,
                "end_time": 117.87272727272726,
                "pitch": 36,
                "velocity": 40,
                "duration": 0.15227272727271668,
                "tempo": 120.0
            },
            {
                "start_time": 117.92272727272727,
                "end_time": 118.07272727272726,
                "pitch": 38,
                "velocity": 40,
                "duration": 0.14999999999999147,
                "tempo": 120.0
            },
            {
                "start_time": 118.12272727272726,
                "end_time": 118.27272727272727,
                "pitch": 41,
                "velocity": 40,
                "duration": 0.15000000000000568,
                "tempo": 120.0
            },
            {
                "start_time": 118.32272727272726,
                "end_time": 118.475,
                "pitch": 45,
                "velocity": 40,
                "duration": 0.1522727272727309,
                "tempo": 120.0
            },
            {
                "start_time": 118.52499999999999,
                "end_time": 118.675,
                "pitch": 38,
                "velocity": 40,
                "duration": 0.15000000000000568,
                "tempo": 120.0
            },
            {
                "start_time": 118.725,
                "end_time": 118.875,
                "pitch": 40,
                "velocity": 40,
                "duration": 0.15000000000000568,
                "tempo": 120.0
            },
            {
                "start_time": 118.925,
                "end_time": 119.07499999999999,
                "pitch": 43,
                "velocity": 40,
                "duration": 0.14999999999999147,
                "tempo": 120.0
            },
            {
                "start_time": 119.125,
                "end_time": 119.27727272727272,
                "pitch": 48,
                "velocity": 40,
                "duration": 0.15227272727271668,
                "tempo": 120.0
            },
            {
                "start_time": 119.32727272727273,
                "end_time": 119.47727272727272,
                "pitch": 40,
                "velocity": 40,
                "duration": 0.14999999999999147,
                "tempo": 120.0
            },
            {
                "start_time": 119.52727272727272,
                "end_time": 119.67954545454545,
                "pitch": 38,
                "velocity": 40,
                "duration": 0.1522727272727309,
                "tempo": 120.0
            },
            {
                "start_time": 119.72954545454544,
                "end_time": 119.87954545454545,
                "pitch": 41,
                "velocity": 40,
                "duration": 0.15000000000000568,
                "tempo": 120.0
            },
            {
                "start_time": 119.93181818181817,
                "end_time": 120.08181818181818,
                "pitch": 47,
                "velocity": 40,
                "duration": 0.15000000000000568,
                "tempo": 120.0
            },
            {
                "start_time": 120.13181818181818,
                "end_time": 120.28181818181818,
                "pitch": 38,
                "velocity": 40,
                "duration": 0.15000000000000568,
                "tempo": 120.0
            },
            {
                "start_time": 120.33181818181818,
                "end_time": 120.48181818181817,
                "pitch": 36,
                "velocity": 40,
                "duration": 0.14999999999999147,
                "tempo": 120.0
            },
            {
                "start_time": 120.53181818181818,
                "end_time": 120.6840909090909,
                "pitch": 40,
                "velocity": 40,
                "duration": 0.15227272727271668,
                "tempo": 120.0
            },
            {
                "start_time": 120.73409090909091,
                "end_time": 120.8840909090909,
                "pitch": 45,
                "velocity": 40,
                "duration": 0.14999999999999147,
                "tempo": 120.0
            },
            {
                "start_time": 120.9340909090909,
                "end_time": 121.0840909090909,
                "pitch": 36,
                "velocity": 40,
                "duration": 0.15000000000000568,
                "tempo": 120.0
            },
            {
                "start_time": 121.1340909090909,
                "end_time": 121.2840909090909,
                "pitch": 35,
                "velocity": 40,
                "duration": 0.15000000000000568,
                "tempo": 120.0
            },
            {
                "start_time": 121.3340909090909,
                "end_time": 121.48636363636363,
                "pitch": 38,
                "velocity": 40,
                "duration": 0.1522727272727309,
                "tempo": 120.0
            },
            {
                "start_time": 121.53636363636363,
                "end_time": 121.68636363636364,
                "pitch": 43,
                "velocity": 40,
                "duration": 0.15000000000000568,
                "tempo": 120.0
            },
            {
                "start_time": 121.73863636363636,
                "end_time": 121.88863636363635,
                "pitch": 35,
                "velocity": 40,
                "duration": 0.14999999999999147,
                "tempo": 120.0
            },
            {
                "start_time": 121.95681818181818,
                "end_time": 122.09318181818182,
                "pitch": 36,
                "velocity": 40,
                "duration": 0.13636363636364024,
                "tempo": 120.0
            },
            {
                "start_time": 122.14318181818182,
                "end_time": 122.29772727272727,
                "pitch": 39,
                "velocity": 40,
                "duration": 0.1545454545454561,
                "tempo": 120.0
            },
            {
                "start_time": 122.35,
                "end_time": 122.49772727272726,
                "pitch": 43,
                "velocity": 40,
                "duration": 0.14772727272726627,
                "tempo": 120.0
            },
            {
                "start_time": 122.54545454545453,
                "end_time": 122.69318181818181,
                "pitch": 39,
                "velocity": 40,
                "duration": 0.14772727272728048,
                "tempo": 120.0
            },
            {
                "start_time": 122.74090909090908,
                "end_time": 122.89090909090909,
                "pitch": 38,
                "velocity": 40,
                "duration": 0.15000000000000568,
                "tempo": 120.0
            },
            {
                "start_time": 122.94090909090909,
                "end_time": 123.09090909090908,
                "pitch": 41,
                "velocity": 40,
                "duration": 0.14999999999999147,
                "tempo": 120.0
            },
            {
                "start_time": 123.14090909090909,
                "end_time": 123.29318181818181,
                "pitch": 44,
                "velocity": 40,
                "duration": 0.15227272727271668,
                "tempo": 120.0
            },
            {
                "start_time": 123.34318181818182,
                "end_time": 123.49318181818181,
                "pitch": 38,
                "velocity": 40,
                "duration": 0.14999999999999147,
                "tempo": 120.0
            },
            {
                "start_time": 123.54545454545453,
                "end_time": 123.69545454545454,
                "pitch": 39,
                "velocity": 40,
                "duration": 0.15000000000000568,
                "tempo": 120.0
            },
            {
                "start_time": 123.74545454545454,
                "end_time": 123.89772727272727,
                "pitch": 43,
                "velocity": 40,
                "duration": 0.1522727272727309,
                "tempo": 120.0
            },
            {
                "start_time": 123.94772727272726,
                "end_time": 124.09772727272727,
                "pitch": 36,
                "velocity": 40,
                "duration": 0.15000000000000568,
                "tempo": 120.0
            },
            {
                "start_time": 124.14772727272727,
                "end_time": 124.29772727272727,
                "pitch": 39,
                "velocity": 40,
                "duration": 0.15000000000000568,
                "tempo": 120.0
            },
            {
                "start_time": 124.34772727272727,
                "end_time": 124.49772727272726,
                "pitch": 41,
                "velocity": 40,
                "duration": 0.14999999999999147,
                "tempo": 120.0
            },
            {
                "start_time": 124.54772727272727,
                "end_time": 124.69999999999999,
                "pitch": 44,
                "velocity": 40,
                "duration": 0.15227272727271668,
                "tempo": 120.0
            },
            {
                "start_time": 124.75,
                "end_time": 124.89999999999999,
                "pitch": 50,
                "velocity": 40,
                "duration": 0.14999999999999147,
                "tempo": 120.0
            },
            {
                "start_time": 124.94999999999999,
                "end_time": 125.1,
                "pitch": 41,
                "velocity": 40,
                "duration": 0.15000000000000568,
                "tempo": 120.0
            },
            {
                "start_time": 125.14999999999999,
                "end_time": 125.3,
                "pitch": 39,
                "velocity": 40,
                "duration": 0.15000000000000568,
                "tempo": 120.0
            },
            {
                "start_time": 125.35227272727272,
                "end_time": 125.50227272727273,
                "pitch": 43,
                "velocity": 40,
                "duration": 0.15000000000000568,
                "tempo": 120.0
            },
            {
                "start_time": 125.55227272727272,
                "end_time": 125.70454545454545,
                "pitch": 36,
                "velocity": 40,
                "duration": 0.1522727272727309,
                "tempo": 120.0
            },
            {
                "start_time": 125.75454545454545,
                "end_time": 125.90454545454544,
                "pitch": 39,
                "velocity": 40,
                "duration": 0.14999999999999147,
                "tempo": 120.0
            },
            {
                "start_time": 125.95454545454545,
                "end_time": 126.10454545454544,
                "pitch": 38,
                "velocity": 40,
                "duration": 0.14999999999999147,
                "tempo": 120.0
            },
            {
                "start_time": 126.15454545454544,
                "end_time": 126.30454545454545,
                "pitch": 41,
                "velocity": 40,
                "duration": 0.15000000000000568,
                "tempo": 120.0
            },
            {
                "start_time": 126.35454545454544,
                "end_time": 126.50681818181818,
                "pitch": 44,
                "velocity": 40,
                "duration": 0.1522727272727309,
                "tempo": 120.0
            },
            {
                "start_time": 126.55681818181817,
                "end_time": 126.70681818181818,
                "pitch": 41,
                "velocity": 40,
                "duration": 0.15000000000000568,
                "tempo": 120.0
            },
            {
                "start_time": 126.7590909090909,
                "end_time": 126.9090909090909,
                "pitch": 36,
                "velocity": 40,
                "duration": 0.15000000000000568,
                "tempo": 120.0
            },
            {
                "start_time": 126.9590909090909,
                "end_time": 127.10909090909091,
                "pitch": 39,
                "velocity": 40,
                "duration": 0.15000000000000568,
                "tempo": 120.0
            },
            {
                "start_time": 127.1590909090909,
                "end_time": 127.3090909090909,
                "pitch": 43,
                "velocity": 40,
                "duration": 0.14999999999999147,
                "tempo": 120.0
            },
            {
                "start_time": 127.35909090909091,
                "end_time": 127.51136363636363,
                "pitch": 36,
                "velocity": 40,
                "duration": 0.15227272727271668,
                "tempo": 120.0
            },
            {
                "start_time": 127.56136363636362,
                "end_time": 127.71136363636363,
                "pitch": 35,
                "velocity": 40,
                "duration": 0.15000000000000568,
                "tempo": 120.0
            },
            {
                "start_time": 127.76136363636363,
                "end_time": 127.91363636363636,
                "pitch": 38,
                "velocity": 40,
                "duration": 0.1522727272727309,
                "tempo": 120.0
            },
            {
                "start_time": 127.96363636363635,
                "end_time": 128.11363636363635,
                "pitch": 41,
                "velocity": 40,
                "duration": 0.14999999999999147,
                "tempo": 120.0
            },
            {
                "start_time": 128.16363636363636,
                "end_time": 128.31363636363636,
                "pitch": 35,
                "velocity": 40,
                "duration": 0.15000000000000568,
                "tempo": 120.0
            },
            {
                "start_time": 128.36363636363635,
                "end_time": 128.51363636363635,
                "pitch": 36,
                "velocity": 40,
                "duration": 0.15000000000000568,
                "tempo": 120.0
            },
            {
                "start_time": 128.56363636363636,
                "end_time": 128.7159090909091,
                "pitch": 39,
                "velocity": 40,
                "duration": 0.1522727272727309,
                "tempo": 120.0
            },
            {
                "start_time": 128.76590909090908,
                "end_time": 128.91590909090908,
                "pitch": 43,
                "velocity": 40,
                "duration": 0.15000000000000568,
                "tempo": 120.0
            },
            {
                "start_time": 128.9659090909091,
                "end_time": 129.11590909090907,
                "pitch": 39,
                "velocity": 40,
                "duration": 0.14999999999997726,
                "tempo": 120.0
            },
            {
                "start_time": 129.16590909090908,
                "end_time": 129.3181818181818,
                "pitch": 38,
                "velocity": 40,
                "duration": 0.1522727272727309,
                "tempo": 120.0
            },
            {
                "start_time": 129.36818181818182,
                "end_time": 129.5181818181818,
                "pitch": 41,
                "velocity": 40,
                "duration": 0.14999999999997726,
                "tempo": 120.0
            },
            {
                "start_time": 129.5681818181818,
                "end_time": 129.72045454545454,
                "pitch": 44,
                "velocity": 40,
                "duration": 0.1522727272727309,
                "tempo": 120.0
            },
            {
                "start_time": 129.77045454545453,
                "end_time": 129.92045454545453,
                "pitch": 38,
                "velocity": 40,
                "duration": 0.15000000000000568,
                "tempo": 120.0
            },
            {
                "start_time": 129.97045454545454,
                "end_time": 130.12272727272727,
                "pitch": 39,
                "velocity": 40,
                "duration": 0.1522727272727309,
                "tempo": 120.0
            },
            {
                "start_time": 130.17272727272726,
                "end_time": 130.32272727272726,
                "pitch": 43,
                "velocity": 40,
                "duration": 0.15000000000000568,
                "tempo": 120.0
            },
            {
                "start_time": 130.375,
                "end_time": 130.525,
                "pitch": 36,
                "velocity": 40,
                "duration": 0.15000000000000568,
                "tempo": 120.0
            },
            {
                "start_time": 130.575,
                "end_time": 130.725,
                "pitch": 39,
                "velocity": 40,
                "duration": 0.15000000000000568,
                "tempo": 120.0
            },
            {
                "start_time": 130.775,
                "end_time": 130.92499999999998,
                "pitch": 41,
                "velocity": 40,
                "duration": 0.14999999999997726,
                "tempo": 120.0
            },
            {
                "start_time": 130.975,
                "end_time": 131.12727272727273,
                "pitch": 44,
                "velocity": 40,
                "duration": 0.1522727272727309,
                "tempo": 120.0
            },
            {
                "start_time": 131.1772727272727,
                "end_time": 131.3272727272727,
                "pitch": 50,
                "velocity": 40,
                "duration": 0.15000000000000568,
                "tempo": 120.0
            },
            {
                "start_time": 131.37727272727273,
                "end_time": 131.52954545454546,
                "pitch": 41,
                "velocity": 40,
                "duration": 0.1522727272727309,
                "tempo": 120.0
            },
            {
                "start_time": 131.57954545454544,
                "end_time": 131.72954545454544,
                "pitch": 39,
                "velocity": 40,
                "duration": 0.15000000000000568,
                "tempo": 120.0
            },
            {
                "start_time": 131.78181818181818,
                "end_time": 131.9318181818182,
                "pitch": 43,
                "velocity": 40,
                "duration": 0.15000000000000568,
                "tempo": 120.0
            },
            {
                "start_time": 131.98181818181817,
                "end_time": 132.1340909090909,
                "pitch": 36,
                "velocity": 40,
                "duration": 0.1522727272727309,
                "tempo": 120.0
            },
            {
                "start_time": 132.1840909090909,
                "end_time": 132.3340909090909,
                "pitch": 39,
                "velocity": 40,
                "duration": 0.14999999999997726,
                "tempo": 120.0
            },
            {
                "start_time": 132.3840909090909,
                "end_time": 132.5340909090909,
                "pitch": 38,
                "velocity": 40,
                "duration": 0.15000000000000568,
                "tempo": 120.0
            },
            {
                "start_time": 132.5840909090909,
                "end_time": 132.7340909090909,
                "pitch": 41,
                "velocity": 40,
                "duration": 0.15000000000000568,
                "tempo": 120.0
            },
            {
                "start_time": 132.7840909090909,
                "end_time": 132.93636363636364,
                "pitch": 44,
                "velocity": 40,
                "duration": 0.1522727272727309,
                "tempo": 120.0
            },
            {
                "start_time": 132.98636363636362,
                "end_time": 133.13636363636363,
                "pitch": 41,
                "velocity": 40,
                "duration": 0.15000000000000568,
                "tempo": 120.0
            },
            {
                "start_time": 133.18863636363636,
                "end_time": 133.33863636363637,
                "pitch": 36,
                "velocity": 40,
                "duration": 0.15000000000000568,
                "tempo": 120.0
            },
            {
                "start_time": 133.38863636363635,
                "end_time": 133.54090909090908,
                "pitch": 39,
                "velocity": 40,
                "duration": 0.1522727272727309,
                "tempo": 120.0
            },
            {
                "start_time": 133.5909090909091,
                "end_time": 133.74090909090907,
                "pitch": 43,
                "velocity": 40,
                "duration": 0.14999999999997726,
                "tempo": 120.0
            },
            {
                "start_time": 133.79090909090908,
                "end_time": 133.9431818181818,
                "pitch": 36,
                "velocity": 40,
                "duration": 0.1522727272727309,
                "tempo": 120.0
            },
            {
                "start_time": 133.99318181818182,
                "end_time": 134.1431818181818,
                "pitch": 35,
                "velocity": 40,
                "duration": 0.14999999999997726,
                "tempo": 120.0
            },
            {
                "start_time": 134.1931818181818,
                "end_time": 134.34545454545454,
                "pitch": 38,
                "velocity": 40,
                "duration": 0.1522727272727309,
                "tempo": 120.0
            },
            {
                "start_time": 134.39545454545453,
                "end_time": 134.5431818181818,
                "pitch": 41,
                "velocity": 40,
                "duration": 0.14772727272728048,
                "tempo": 120.0
            },
            {
                "start_time": 134.5909090909091,
                "end_time": 134.73863636363635,
                "pitch": 35,
                "velocity": 40,
                "duration": 0.14772727272725206,
                "tempo": 120.0
            },
            {
                "start_time": 134.78863636363636,
                "end_time": 134.9409090909091,
                "pitch": 33,
                "velocity": 40,
                "duration": 0.1522727272727309,
                "tempo": 120.0
            },
            {
                "start_time": 134.99318181818182,
                "end_time": 135.14772727272725,
                "pitch": 36,
                "velocity": 40,
                "duration": 0.15454545454542767,
                "tempo": 120.0
            },
            {
                "start_time": 135.19772727272726,
                "end_time": 135.35,
                "pitch": 40,
                "velocity": 40,
                "duration": 0.1522727272727309,
                "tempo": 120.0
            },
            {
                "start_time": 135.4,
                "end_time": 135.54999999999998,
                "pitch": 33,
                "velocity": 40,
                "duration": 0.14999999999997726,
                "tempo": 120.0
            },
            {
                "start_time": 135.6,
                "end_time": 135.75227272727273,
                "pitch": 35,
                "velocity": 40,
                "duration": 0.1522727272727309,
                "tempo": 120.0
            },
            {
                "start_time": 135.8022727272727,
                "end_time": 135.95454545454544,
                "pitch": 38,
                "velocity": 40,
                "duration": 0.1522727272727309,
                "tempo": 120.0
            },
            {
                "start_time": 136.00454545454545,
                "end_time": 136.15454545454546,
                "pitch": 41,
                "velocity": 40,
                "duration": 0.15000000000000568,
                "tempo": 120.0
            },
            {
                "start_time": 136.20454545454544,
                "end_time": 136.35681818181817,
                "pitch": 35,
                "velocity": 40,
                "duration": 0.1522727272727309,
                "tempo": 120.0
            },
            {
                "start_time": 136.40681818181818,
                "end_time": 136.5568181818182,
                "pitch": 36,
                "velocity": 40,
                "duration": 0.15000000000000568,
                "tempo": 120.0
            },
            {
                "start_time": 136.60681818181817,
                "end_time": 136.75681818181818,
                "pitch": 40,
                "velocity": 40,
                "duration": 0.15000000000000568,
                "tempo": 120.0
            },
            {
                "start_time": 136.8068181818182,
                "end_time": 136.95681818181816,
                "pitch": 43,
                "velocity": 40,
                "duration": 0.14999999999997726,
                "tempo": 120.0
            },
            {
                "start_time": 137.00681818181818,
                "end_time": 137.1590909090909,
                "pitch": 36,
                "velocity": 40,
                "duration": 0.1522727272727309,
                "tempo": 120.0
            },
            {
                "start_time": 137.2090909090909,
                "end_time": 137.3590909090909,
                "pitch": 38,
                "velocity": 40,
                "duration": 0.15000000000000568,
                "tempo": 120.0
            },
            {
                "start_time": 137.41136363636363,
                "end_time": 137.56136363636364,
                "pitch": 41,
                "velocity": 40,
                "duration": 0.15000000000000568,
                "tempo": 120.0
            },
            {
                "start_time": 137.61136363636362,
                "end_time": 137.76363636363635,
                "pitch": 45,
                "velocity": 40,
                "duration": 0.1522727272727309,
                "tempo": 120.0
            },
            {
                "start_time": 137.81363636363636,
                "end_time": 137.96363636363637,
                "pitch": 38,
                "velocity": 40,
                "duration": 0.15000000000000568,
                "tempo": 120.0
            },
            {
                "start_time": 138.01363636363635,
                "end_time": 138.16590909090908,
                "pitch": 40,
                "velocity": 40,
                "duration": 0.1522727272727309,
                "tempo": 120.0
            },
            {
                "start_time": 138.2159090909091,
                "end_time": 138.36590909090907,
                "pitch": 43,
                "velocity": 40,
                "duration": 0.14999999999997726,
                "tempo": 120.0
            },
            {
                "start_time": 138.4181818181818,
                "end_time": 138.5681818181818,
                "pitch": 48,
                "velocity": 40,
                "duration": 0.15000000000000568,
                "tempo": 120.0
            },
            {
                "start_time": 138.61818181818182,
                "end_time": 138.7681818181818,
                "pitch": 40,
                "velocity": 40,
                "duration": 0.14999999999997726,
                "tempo": 120.0
            },
            {
                "start_time": 138.8181818181818,
                "end_time": 138.96818181818182,
                "pitch": 38,
                "velocity": 40,
                "duration": 0.15000000000000568,
                "tempo": 120.0
            },
            {
                "start_time": 139.0181818181818,
                "end_time": 139.17045454545453,
                "pitch": 41,
                "velocity": 40,
                "duration": 0.1522727272727309,
                "tempo": 120.0
            },
            {
                "start_time": 139.22045454545454,
                "end_time": 139.37045454545455,
                "pitch": 47,
                "velocity": 40,
                "duration": 0.15000000000000568,
                "tempo": 120.0
            },
            {
                "start_time": 139.42045454545453,
                "end_time": 139.57272727272726,
                "pitch": 38,
                "velocity": 40,
                "duration": 0.1522727272727309,
                "tempo": 120.0
            },
            {
                "start_time": 139.62272727272727,
                "end_time": 139.77272727272725,
                "pitch": 36,
                "velocity": 40,
                "duration": 0.14999999999997726,
                "tempo": 120.0
            },
            {
                "start_time": 139.825,
                "end_time": 139.975,
                "pitch": 40,
                "velocity": 40,
                "duration": 0.15000000000000568,
                "tempo": 120.0
            },
            {
                "start_time": 140.025,
                "end_time": 140.1772727272727,
                "pitch": 45,
                "velocity": 40,
                "duration": 0.15227272727270247,
                "tempo": 120.0
            },
            {
                "start_time": 140.22727272727272,
                "end_time": 140.37727272727273,
                "pitch": 36,
                "velocity": 40,
                "duration": 0.15000000000000568,
                "tempo": 120.0
            },
            {
                "start_time": 140.4272727272727,
                "end_time": 140.5772727272727,
                "pitch": 35,
                "velocity": 40,
                "duration": 0.15000000000000568,
                "tempo": 120.0
            },
            {
                "start_time": 140.62727272727273,
                "end_time": 140.77727272727273,
                "pitch": 38,
                "velocity": 40,
                "duration": 0.15000000000000568,
                "tempo": 120.0
            },
            {
                "start_time": 140.8272727272727,
                "end_time": 140.97954545454544,
                "pitch": 43,
                "velocity": 40,
                "duration": 0.1522727272727309,
                "tempo": 120.0
            },
            {
                "start_time": 141.02954545454546,
                "end_time": 141.17954545454546,
                "pitch": 35,
                "velocity": 40,
                "duration": 0.15000000000000568,
                "tempo": 120.0
            },
            {
                "start_time": 141.22954545454544,
                "end_time": 141.38181818181818,
                "pitch": 33,
                "velocity": 40,
                "duration": 0.1522727272727309,
                "tempo": 120.0
            },
            {
                "start_time": 141.4318181818182,
                "end_time": 141.5840909090909,
                "pitch": 36,
                "velocity": 40,
                "duration": 0.15227272727270247,
                "tempo": 120.0
            },
            {
                "start_time": 141.6340909090909,
                "end_time": 141.7840909090909,
                "pitch": 40,
                "velocity": 40,
                "duration": 0.15000000000000568,
                "tempo": 120.0
            },
            {
                "start_time": 141.8340909090909,
                "end_time": 141.98636363636362,
                "pitch": 33,
                "velocity": 40,
                "duration": 0.1522727272727309,
                "tempo": 120.0
            },
            {
                "start_time": 142.03636363636363,
                "end_time": 142.18636363636364,
                "pitch": 35,
                "velocity": 40,
                "duration": 0.15000000000000568,
                "tempo": 120.0
            },
            {
                "start_time": 142.23636363636362,
                "end_time": 142.38863636363635,
                "pitch": 38,
                "velocity": 40,
                "duration": 0.1522727272727309,
                "tempo": 120.0
            },
            {
                "start_time": 142.43863636363636,
                "end_time": 142.58863636363637,
                "pitch": 41,
                "velocity": 40,
                "duration": 0.15000000000000568,
                "tempo": 120.0
            },
            {
                "start_time": 142.63863636363635,
                "end_time": 142.78863636363636,
                "pitch": 35,
                "velocity": 40,
                "duration": 0.15000000000000568,
                "tempo": 120.0
            },
            {
                "start_time": 142.83863636363637,
                "end_time": 142.98863636363635,
                "pitch": 36,
                "velocity": 40,
                "duration": 0.14999999999997726,
                "tempo": 120.0
            },
            {
                "start_time": 143.04090909090908,
                "end_time": 143.1909090909091,
                "pitch": 40,
                "velocity": 40,
                "duration": 0.15000000000000568,
                "tempo": 120.0
            },
            {
                "start_time": 143.24090909090907,
                "end_time": 143.3931818181818,
                "pitch": 43,
                "velocity": 40,
                "duration": 0.1522727272727309,
                "tempo": 120.0
            },
            {
                "start_time": 143.4431818181818,
                "end_time": 143.59318181818182,
                "pitch": 36,
                "velocity": 40,
                "duration": 0.15000000000000568,
                "tempo": 120.0
            },
            {
                "start_time": 143.6431818181818,
                "end_time": 143.79545454545453,
                "pitch": 38,
                "velocity": 40,
                "duration": 0.1522727272727309,
                "tempo": 120.0
            },
            {
                "start_time": 143.84545454545454,
                "end_time": 143.99545454545455,
                "pitch": 41,
                "velocity": 40,
                "duration": 0.15000000000000568,
                "tempo": 120.0
            },
            {
                "start_time": 144.04772727272726,
                "end_time": 144.19772727272726,
                "pitch": 45,
                "velocity": 40,
                "duration": 0.15000000000000568,
                "tempo": 120.0
            },
            {
                "start_time": 144.24772727272727,
                "end_time": 144.4,
                "pitch": 38,
                "velocity": 40,
                "duration": 0.1522727272727309,
                "tempo": 120.0
            },
            {
                "start_time": 144.45,
                "end_time": 144.6,
                "pitch": 40,
                "velocity": 40,
                "duration": 0.15000000000000568,
                "tempo": 120.0
            },
            {
                "start_time": 144.65,
                "end_time": 144.79999999999998,
                "pitch": 43,
                "velocity": 40,
                "duration": 0.14999999999997726,
                "tempo": 120.0
            },
            {
                "start_time": 144.85,
                "end_time": 145.0,
                "pitch": 48,
                "velocity": 40,
                "duration": 0.15000000000000568,
                "tempo": 120.0
            },
            {
                "start_time": 145.04999999999998,
                "end_time": 145.2022727272727,
                "pitch": 40,
                "velocity": 40,
                "duration": 0.1522727272727309,
                "tempo": 120.0
            },
            {
                "start_time": 145.25227272727273,
                "end_time": 145.40227272727273,
                "pitch": 38,
                "velocity": 40,
                "duration": 0.15000000000000568,
                "tempo": 120.0
            },
            {
                "start_time": 145.45454545454544,
                "end_time": 145.60454545454544,
                "pitch": 41,
                "velocity": 40,
                "duration": 0.15000000000000568,
                "tempo": 120.0
            },
            {
                "start_time": 145.65454545454546,
                "end_time": 145.8068181818182,
                "pitch": 47,
                "velocity": 40,
                "duration": 0.1522727272727309,
                "tempo": 120.0
            },
            {
                "start_time": 145.85681818181817,
                "end_time": 146.00681818181818,
                "pitch": 38,
                "velocity": 40,
                "duration": 0.15000000000000568,
                "tempo": 120.0
            },
            {
                "start_time": 146.0568181818182,
                "end_time": 146.2090909090909,
                "pitch": 36,
                "velocity": 40,
                "duration": 0.15227272727270247,
                "tempo": 120.0
            },
            {
                "start_time": 146.2590909090909,
                "end_time": 146.4090909090909,
                "pitch": 40,
                "velocity": 40,
                "duration": 0.15000000000000568,
                "tempo": 120.0
            },
            {
                "start_time": 146.4590909090909,
                "end_time": 146.6090909090909,
                "pitch": 45,
                "velocity": 40,
                "duration": 0.15000000000000568,
                "tempo": 120.0
            },
            {
                "start_time": 146.6590909090909,
                "end_time": 146.8090909090909,
                "pitch": 36,
                "velocity": 40,
                "duration": 0.15000000000000568,
                "tempo": 120.0
            },
            {
                "start_time": 146.8590909090909,
                "end_time": 147.01136363636363,
                "pitch": 35,
                "velocity": 40,
                "duration": 0.1522727272727309,
                "tempo": 120.0
            },
            {
                "start_time": 147.06136363636364,
                "end_time": 147.21363636363637,
                "pitch": 38,
                "velocity": 40,
                "duration": 0.1522727272727309,
                "tempo": 120.0
            },
            {
                "start_time": 147.26363636363635,
                "end_time": 147.41363636363636,
                "pitch": 43,
                "velocity": 40,
                "duration": 0.15000000000000568,
                "tempo": 120.0
            },
            {
                "start_time": 147.46363636363637,
                "end_time": 147.61590909090907,
                "pitch": 35,
                "velocity": 40,
                "duration": 0.15227272727270247,
                "tempo": 120.0
            },
            {
                "start_time": 147.66590909090908,
                "end_time": 147.8159090909091,
                "pitch": 36,
                "velocity": 40,
                "duration": 0.15000000000000568,
                "tempo": 120.0
            },
            {
                "start_time": 147.86590909090907,
                "end_time": 148.0181818181818,
                "pitch": 40,
                "velocity": 40,
                "duration": 0.1522727272727309,
                "tempo": 120.0
            },
            {
                "start_time": 148.0681818181818,
                "end_time": 148.21818181818182,
                "pitch": 45,
                "velocity": 40,
                "duration": 0.15000000000000568,
                "tempo": 120.0
            },
            {
                "start_time": 148.27045454545453,
                "end_time": 148.42045454545453,
                "pitch": 40,
                "velocity": 40,
                "duration": 0.15000000000000568,
                "tempo": 120.0
            },
            {
                "start_time": 148.47045454545454,
                "end_time": 148.62045454545455,
                "pitch": 35,
                "velocity": 40,
                "duration": 0.15000000000000568,
                "tempo": 120.0
            },
            {
                "start_time": 148.67045454545453,
                "end_time": 148.82045454545454,
                "pitch": 38,
                "velocity": 40,
                "duration": 0.15000000000000568,
                "tempo": 120.0
            },
            {
                "start_time": 148.87045454545455,
                "end_time": 149.02272727272725,
                "pitch": 43,
                "velocity": 40,
                "duration": 0.15227272727270247,
                "tempo": 120.0
            },
            {
                "start_time": 149.07272727272726,
                "end_time": 149.22272727272727,
                "pitch": 38,
                "velocity": 40,
                "duration": 0.15000000000000568,
                "tempo": 120.0
            },
            {
                "start_time": 149.27272727272725,
                "end_time": 149.42499999999998,
                "pitch": 38,
                "velocity": 40,
                "duration": 0.1522727272727309,
                "tempo": 120.0
            },
            {
                "start_time": 149.475,
                "end_time": 149.625,
                "pitch": 42,
                "velocity": 40,
                "duration": 0.15000000000000568,
                "tempo": 120.0
            },
            {
                "start_time": 149.6772727272727,
                "end_time": 149.8272727272727,
                "pitch": 47,
                "velocity": 40,
                "duration": 0.15000000000000568,
                "tempo": 120.0
            },
            {
                "start_time": 149.87727272727273,
                "end_time": 150.02954545454546,
                "pitch": 42,
                "velocity": 40,
                "duration": 0.1522727272727309,
                "tempo": 120.0
            },
            {
                "start_time": 150.07954545454544,
                "end_time": 150.22954545454544,
                "pitch": 40,
                "velocity": 40,
                "duration": 0.15000000000000568,
                "tempo": 120.0
            },
            {
                "start_time": 150.27954545454546,
                "end_time": 150.4318181818182,
                "pitch": 44,
                "velocity": 40,
                "duration": 0.1522727272727309,
                "tempo": 120.0
            },
            {
                "start_time": 150.48181818181817,
                "end_time": 150.63181818181818,
                "pitch": 47,
                "velocity": 40,
                "duration": 0.15000000000000568,
                "tempo": 120.0
            },
            {
                "start_time": 150.6818181818182,
                "end_time": 150.83181818181816,
                "pitch": 44,
                "velocity": 40,
                "duration": 0.14999999999997726,
                "tempo": 120.0
            },
            {
                "start_time": 150.88181818181818,
                "end_time": 151.03181818181818,
                "pitch": 36,
                "velocity": 40,
                "duration": 0.15000000000000568,
                "tempo": 120.0
            },
            {
                "start_time": 151.0840909090909,
                "end_time": 151.2340909090909,
                "pitch": 40,
                "velocity": 40,
                "duration": 0.15000000000000568,
                "tempo": 120.0
            },
            {
                "start_time": 151.2840909090909,
                "end_time": 151.43636363636364,
                "pitch": 45,
                "velocity": 40,
                "duration": 0.1522727272727309,
                "tempo": 120.0
            },
            {
                "start_time": 151.48636363636362,
                "end_time": 151.63636363636363,
                "pitch": 40,
                "velocity": 40,
                "duration": 0.15000000000000568,
                "tempo": 120.0
            },
            {
                "start_time": 151.68636363636364,
                "end_time": 151.83863636363637,
                "pitch": 35,
                "velocity": 40,
                "duration": 0.1522727272727309,
                "tempo": 120.0
            },
            {
                "start_time": 151.88863636363635,
                "end_time": 152.03863636363636,
                "pitch": 38,
                "velocity": 40,
                "duration": 0.15000000000000568,
                "tempo": 120.0
            },
            {
                "start_time": 152.08863636363637,
                "end_time": 152.24090909090907,
                "pitch": 43,
                "velocity": 40,
                "duration": 0.15227272727270247,
                "tempo": 120.0
            },
            {
                "start_time": 152.29090909090908,
                "end_time": 152.4431818181818,
                "pitch": 38,
                "velocity": 40,
                "duration": 0.1522727272727309,
                "tempo": 120.0
            },
            {
                "start_time": 152.49318181818182,
                "end_time": 152.6431818181818,
                "pitch": 33,
                "velocity": 40,
                "duration": 0.14999999999997726,
                "tempo": 120.0
            },
            {
                "start_time": 152.6931818181818,
                "end_time": 152.84318181818182,
                "pitch": 36,
                "velocity": 40,
                "duration": 0.15000000000000568,
                "tempo": 120.0
            },
            {
                "start_time": 152.8931818181818,
                "end_time": 153.0431818181818,
                "pitch": 43,
                "velocity": 40,
                "duration": 0.15000000000000568,
                "tempo": 120.0
            },
            {
                "start_time": 153.09318181818182,
                "end_time": 153.24545454545455,
                "pitch": 36,
                "velocity": 40,
                "duration": 0.1522727272727309,
                "tempo": 120.0
            },
            {
                "start_time": 153.29545454545453,
                "end_time": 153.44545454545454,
                "pitch": 32,
                "velocity": 40,
                "duration": 0.15000000000000568,
                "tempo": 120.0
            },
            {
                "start_time": 153.49545454545455,
                "end_time": 153.64772727272725,
                "pitch": 35,
                "velocity": 40,
                "duration": 0.15227272727270247,
                "tempo": 120.0
            },
            {
                "start_time": 153.69772727272726,
                "end_time": 153.84772727272727,
                "pitch": 38,
                "velocity": 40,
                "duration": 0.15000000000000568,
                "tempo": 120.0
            },
            {
                "start_time": 153.9,
                "end_time": 154.04999999999998,
                "pitch": 35,
                "velocity": 40,
                "duration": 0.14999999999997726,
                "tempo": 120.0
            },
            {
                "start_time": 154.1,
                "end_time": 154.25227272727273,
                "pitch": 36,
                "velocity": 40,
                "duration": 0.1522727272727309,
                "tempo": 120.0
            },
            {
                "start_time": 154.3022727272727,
                "end_time": 154.4522727272727,
                "pitch": 40,
                "velocity": 40,
                "duration": 0.15000000000000568,
                "tempo": 120.0
            },
            {
                "start_time": 154.50227272727273,
                "end_time": 154.65227272727273,
                "pitch": 45,
                "velocity": 40,
                "duration": 0.15000000000000568,
                "tempo": 120.0
            },
            {
                "start_time": 154.7022727272727,
                "end_time": 154.85227272727272,
                "pitch": 40,
                "velocity": 40,
                "duration": 0.15000000000000568,
                "tempo": 120.0
            },
            {
                "start_time": 154.90227272727273,
                "end_time": 155.05454545454543,
                "pitch": 35,
                "velocity": 40,
                "duration": 0.15227272727270247,
                "tempo": 120.0
            },
            {
                "start_time": 155.10454545454544,
                "end_time": 155.25454545454545,
                "pitch": 38,
                "velocity": 40,
                "duration": 0.15000000000000568,
                "tempo": 120.0
            },
            {
                "start_time": 155.3068181818182,
                "end_time": 155.45681818181816,
                "pitch": 43,
                "velocity": 40,
                "duration": 0.14999999999997726,
                "tempo": 120.0
            },
            {
                "start_time": 155.50681818181818,
                "end_time": 155.6590909090909,
                "pitch": 38,
                "velocity": 40,
                "duration": 0.1522727272727309,
                "tempo": 120.0
            },
            {
                "start_time": 155.7090909090909,
                "end_time": 155.8590909090909,
                "pitch": 38,
                "velocity": 40,
                "duration": 0.15000000000000568,
                "tempo": 120.0
            },
            {
                "start_time": 155.9090909090909,
                "end_time": 156.06136363636364,
                "pitch": 42,
                "velocity": 40,
                "duration": 0.1522727272727309,
                "tempo": 120.0
            },
            {
                "start_time": 156.11136363636362,
                "end_time": 156.26136363636363,
                "pitch": 47,
                "velocity": 40,
                "duration": 0.15000000000000568,
                "tempo": 120.0
            },
            {
                "start_time": 156.31363636363636,
                "end_time": 156.46363636363637,
                "pitch": 42,
                "velocity": 40,
                "duration": 0.15000000000000568,
                "tempo": 120.0
            },
            {
                "start_time": 156.51363636363635,
                "end_time": 156.6681818181818,
                "pitch": 40,
                "velocity": 40,
                "duration": 0.1545454545454561,
                "tempo": 120.0
            },
            {
                "start_time": 156.71818181818182,
                "end_time": 156.87272727272727,
                "pitch": 44,
                "velocity": 40,
                "duration": 0.1545454545454561,
                "tempo": 120.0
            },
            {
                "start_time": 156.92499999999998,
                "end_time": 157.07272727272726,
                "pitch": 47,
                "velocity": 40,
                "duration": 0.14772727272728048,
                "tempo": 120.0
            },
            {
                "start_time": 157.12045454545455,
                "end_time": 157.2681818181818,
                "pitch": 44,
                "velocity": 40,
                "duration": 0.14772727272725206,
                "tempo": 120.0
            },
            {
                "start_time": 157.3159090909091,
                "end_time": 157.46818181818182,
                "pitch": 36,
                "velocity": 40,
                "duration": 0.1522727272727309,
                "tempo": 120.0
            },
            {
                "start_time": 157.5181818181818,
                "end_time": 157.6681818181818,
                "pitch": 40,
                "velocity": 40,
                "duration": 0.15000000000000568,
                "tempo": 120.0
            },
            {
                "start_time": 157.72045454545454,
                "end_time": 157.87045454545455,
                "pitch": 45,
                "velocity": 40,
                "duration": 0.15000000000000568,
                "tempo": 120.0
            },
            {
                "start_time": 157.92045454545453,
                "end_time": 158.07272727272726,
                "pitch": 40,
                "velocity": 40,
                "duration": 0.1522727272727309,
                "tempo": 120.0
            },
            {
                "start_time": 158.12272727272727,
                "end_time": 158.27272727272725,
                "pitch": 35,
                "velocity": 40,
                "duration": 0.14999999999997726,
                "tempo": 120.0
            },
            {
                "start_time": 158.32272727272726,
                "end_time": 158.475,
                "pitch": 38,
                "velocity": 40,
                "duration": 0.1522727272727309,
                "tempo": 120.0
            },
            {
                "start_time": 158.525,
                "end_time": 158.67499999999998,
                "pitch": 43,
                "velocity": 40,
                "duration": 0.14999999999997726,
                "tempo": 120.0
            },
            {
                "start_time": 158.725,
                "end_time": 158.875,
                "pitch": 38,
                "velocity": 40,
                "duration": 0.15000000000000568,
                "tempo": 120.0
            },
            {
                "start_time": 158.92499999999998,
                "end_time": 159.075,
                "pitch": 33,
                "velocity": 40,
                "duration": 0.15000000000000568,
                "tempo": 120.0
            },
            {
                "start_time": 159.12727272727273,
                "end_time": 159.27727272727273,
                "pitch": 36,
                "velocity": 40,
                "duration": 0.15000000000000568,
                "tempo": 120.0
            },
            {
                "start_time": 159.3272727272727,
                "end_time": 159.47954545454544,
                "pitch": 43,
                "velocity": 40,
                "duration": 0.1522727272727309,
                "tempo": 120.0
            },
            {
                "start_time": 159.52954545454546,
                "end_time": 159.67954545454543,
                "pitch": 36,
                "velocity": 40,
                "duration": 0.14999999999997726,
                "tempo": 120.0
            },
            {
                "start_time": 159.72954545454544,
                "end_time": 159.88181818181818,
                "pitch": 35,
                "velocity": 40,
                "duration": 0.1522727272727309,
                "tempo": 120.0
            },
            {
                "start_time": 159.9318181818182,
                "end_time": 160.08181818181816,
                "pitch": 38,
                "velocity": 40,
                "duration": 0.14999999999997726,
                "tempo": 120.0
            },
            {
                "start_time": 160.13181818181818,
                "end_time": 160.2840909090909,
                "pitch": 43,
                "velocity": 40,
                "duration": 0.1522727272727309,
                "tempo": 120.0
            },
            {
                "start_time": 160.3340909090909,
                "end_time": 160.53636363636363,
                "pitch": 38,
                "velocity": 40,
                "duration": 0.20227272727274226,
                "tempo": 120.0
            }
        ],
        "Acoustic Grand Piano": [
            {
                "start_time": 6.802272727272727,
                "end_time": 6.945454545454545,
                "pitch": 84,
                "velocity": 40,
                "duration": 0.14318181818181852,
                "tempo": 120.0
            },
            {
                "start_time": 6.993181818181818,
                "end_time": 7.136363636363636,
                "pitch": 84,
                "velocity": 40,
                "duration": 0.14318181818181763,
                "tempo": 120.0
            },
            {
                "start_time": 7.184090909090909,
                "end_time": 7.334090909090909,
                "pitch": 83,
                "velocity": 40,
                "duration": 0.15000000000000036,
                "tempo": 120.0
            },
            {
                "start_time": 7.584090909090909,
                "end_time": 7.7340909090909085,
                "pitch": 84,
                "velocity": 40,
                "duration": 0.14999999999999947,
                "tempo": 120.0
            },
            {
                "start_time": 7.786363636363636,
                "end_time": 7.936363636363636,
                "pitch": 84,
                "velocity": 40,
                "duration": 0.14999999999999947,
                "tempo": 120.0
            },
            {
                "start_time": 7.986363636363636,
                "end_time": 8.138636363636364,
                "pitch": 86,
                "velocity": 40,
                "duration": 0.15227272727272734,
                "tempo": 120.0
            },
            {
                "start_time": 8.388636363636364,
                "end_time": 8.540909090909091,
                "pitch": 84,
                "velocity": 40,
                "duration": 0.15227272727272734,
                "tempo": 120.0
            },
            {
                "start_time": 8.59090909090909,
                "end_time": 8.74090909090909,
                "pitch": 83,
                "velocity": 40,
                "duration": 0.15000000000000036,
                "tempo": 120.0
            },
            {
                "start_time": 8.793181818181818,
                "end_time": 8.943181818181818,
                "pitch": 84,
                "velocity": 40,
                "duration": 0.15000000000000036,
                "tempo": 120.0
            },
            {
                "start_time": 9.997727272727273,
                "end_time": 10.147727272727272,
                "pitch": 84,
                "velocity": 40,
                "duration": 0.14999999999999858,
                "tempo": 120.0
            },
            {
                "start_time": 10.2,
                "end_time": 10.35,
                "pitch": 84,
                "velocity": 40,
                "duration": 0.15000000000000036,
                "tempo": 120.0
            },
            {
                "start_time": 10.4,
                "end_time": 10.552272727272726,
                "pitch": 83,
                "velocity": 40,
                "duration": 0.15227272727272556,
                "tempo": 120.0
            },
            {
                "start_time": 10.802272727272726,
                "end_time": 10.952272727272726,
                "pitch": 84,
                "velocity": 40,
                "duration": 0.15000000000000036,
                "tempo": 120.0
            },
            {
                "start_time": 11.002272727272727,
                "end_time": 11.152272727272727,
                "pitch": 84,
                "velocity": 40,
                "duration": 0.15000000000000036,
                "tempo": 120.0
            },
            {
                "start_time": 11.202272727272726,
                "end_time": 11.354545454545454,
                "pitch": 79,
                "velocity": 40,
                "duration": 0.15227272727272734,
                "tempo": 120.0
            },
            {
                "start_time": 11.604545454545454,
                "end_time": 11.756818181818181,
                "pitch": 75,
                "velocity": 40,
                "duration": 0.15227272727272734,
                "tempo": 120.0
            },
            {
                "start_time": 12.009090909090908,
                "end_time": 12.159090909090908,
                "pitch": 74,
                "velocity": 40,
                "duration": 0.15000000000000036,
                "tempo": 120.0
            },
            {
                "start_time": 12.411363636363635,
                "end_time": 12.561363636363636,
                "pitch": 79,
                "velocity": 40,
                "duration": 0.15000000000000036,
                "tempo": 120.0
            },
            {
                "start_time": 13.213636363636363,
                "end_time": 13.363636363636363,
                "pitch": 84,
                "velocity": 40,
                "duration": 0.15000000000000036,
                "tempo": 120.0
            },
            {
                "start_time": 13.415909090909091,
                "end_time": 13.56590909090909,
                "pitch": 84,
                "velocity": 40,
                "duration": 0.14999999999999858,
                "tempo": 120.0
            },
            {
                "start_time": 13.61590909090909,
                "end_time": 13.768181818181818,
                "pitch": 83,
                "velocity": 40,
                "duration": 0.15227272727272734,
                "tempo": 120.0
            },
            {
                "start_time": 14.018181818181818,
                "end_time": 14.170454545454545,
                "pitch": 84,
                "velocity": 40,
                "duration": 0.15227272727272734,
                "tempo": 120.0
            },
            {
                "start_time": 14.220454545454544,
                "end_time": 14.370454545454544,
                "pitch": 84,
                "velocity": 40,
                "duration": 0.15000000000000036,
                "tempo": 120.0
            },
            {
                "start_time": 14.422727272727272,
                "end_time": 14.572727272727272,
                "pitch": 86,
                "velocity": 40,
                "duration": 0.15000000000000036,
                "tempo": 120.0
            },
            {
                "start_time": 14.825,
                "end_time": 14.975,
                "pitch": 84,
                "velocity": 40,
                "duration": 0.15000000000000036,
                "tempo": 120.0
            },
            {
                "start_time": 15.024999999999999,
                "end_time": 15.174999999999999,
                "pitch": 83,
                "velocity": 40,
                "duration": 0.15000000000000036,
                "tempo": 120.0
            },
            {
                "start_time": 15.225,
                "end_time": 15.375,
                "pitch": 84,
                "velocity": 40,
                "duration": 0.15000000000000036,
                "tempo": 120.0
            },
            {
                "start_time": 16.43181818181818,
                "end_time": 16.581818181818182,
                "pitch": 84,
                "velocity": 40,
                "duration": 0.15000000000000213,
                "tempo": 120.0
            },
            {
                "start_time": 16.631818181818183,
                "end_time": 16.78181818181818,
                "pitch": 84,
                "velocity": 40,
                "duration": 0.14999999999999858,
                "tempo": 120.0
            },
            {
                "start_time": 16.831818181818182,
                "end_time": 16.98409090909091,
                "pitch": 83,
                "velocity": 40,
                "duration": 0.15227272727272734,
                "tempo": 120.0
            },
            {
                "start_time": 17.23409090909091,
                "end_time": 17.384090909090908,
                "pitch": 84,
                "velocity": 40,
                "duration": 0.14999999999999858,
                "tempo": 120.0
            },
            {
                "start_time": 17.43409090909091,
                "end_time": 17.584090909090907,
                "pitch": 84,
                "velocity": 40,
                "duration": 0.14999999999999858,
                "tempo": 120.0
            },
            {
                "start_time": 17.634090909090908,
                "end_time": 17.784090909090907,
                "pitch": 79,
                "velocity": 40,
                "duration": 0.14999999999999858,
                "tempo": 120.0
            },
            {
                "start_time": 18.034090909090907,
                "end_time": 18.186363636363634,
                "pitch": 75,
                "velocity": 40,
                "duration": 0.15227272727272734,
                "tempo": 120.0
            },
            {
                "start_time": 18.438636363636363,
                "end_time": 18.58863636363636,
                "pitch": 74,
                "velocity": 40,
                "duration": 0.14999999999999858,
                "tempo": 120.0
            },
            {
                "start_time": 18.83863636363636,
                "end_time": 18.988636363636363,
                "pitch": 72,
                "velocity": 40,
                "duration": 0.15000000000000213,
                "tempo": 120.0
            },
            {
                "start_time": 19.64090909090909,
                "end_time": 19.79090909090909,
                "pitch": 81,
                "velocity": 40,
                "duration": 0.14999999999999858,
                "tempo": 120.0
            },
            {
                "start_time": 19.84090909090909,
                "end_time": 19.99090909090909,
                "pitch": 81,
                "velocity": 40,
                "duration": 0.14999999999999858,
                "tempo": 120.0
            },
            {
                "start_time": 20.04090909090909,
                "end_time": 20.19090909090909,
                "pitch": 80,
                "velocity": 40,
                "duration": 0.15000000000000213,
                "tempo": 120.0
            },
            {
                "start_time": 20.443181818181817,
                "end_time": 20.59318181818182,
                "pitch": 81,
                "velocity": 40,
                "duration": 0.15000000000000213,
                "tempo": 120.0
            },
            {
                "start_time": 20.643181818181816,
                "end_time": 20.793181818181818,
                "pitch": 81,
                "velocity": 40,
                "duration": 0.15000000000000213,
                "tempo": 120.0
            },
            {
                "start_time": 20.84318181818182,
                "end_time": 20.993181818181817,
                "pitch": 83,
                "velocity": 40,
                "duration": 0.14999999999999858,
                "tempo": 120.0
            },
            {
                "start_time": 21.245454545454546,
                "end_time": 21.395454545454545,
                "pitch": 81,
                "velocity": 40,
                "duration": 0.14999999999999858,
                "tempo": 120.0
            },
            {
                "start_time": 21.445454545454545,
                "end_time": 21.595454545454544,
                "pitch": 80,
                "velocity": 40,
                "duration": 0.14999999999999858,
                "tempo": 120.0
            },
            {
                "start_time": 21.645454545454545,
                "end_time": 21.795454545454543,
                "pitch": 81,
                "velocity": 40,
                "duration": 0.14999999999999858,
                "tempo": 120.0
            },
            {
                "start_time": 22.045454545454543,
                "end_time": 22.19772727272727,
                "pitch": 83,
                "velocity": 40,
                "duration": 0.15227272727272734,
                "tempo": 120.0
            },
            {
                "start_time": 22.24772727272727,
                "end_time": 22.397727272727273,
                "pitch": 84,
                "velocity": 40,
                "duration": 0.15000000000000213,
                "tempo": 120.0
            },
            {
                "start_time": 22.44772727272727,
                "end_time": 22.597727272727273,
                "pitch": 86,
                "velocity": 40,
                "duration": 0.15000000000000213,
                "tempo": 120.0
            },
            {
                "start_time": 22.847727272727273,
                "end_time": 23.0,
                "pitch": 84,
                "velocity": 40,
                "duration": 0.15227272727272734,
                "tempo": 120.0
            },
            {
                "start_time": 23.049999999999997,
                "end_time": 23.2,
                "pitch": 83,
                "velocity": 40,
                "duration": 0.15000000000000213,
                "tempo": 120.0
            },
            {
                "start_time": 23.252272727272725,
                "end_time": 23.402272727272727,
                "pitch": 84,
                "velocity": 40,
                "duration": 0.15000000000000213,
                "tempo": 120.0
            },
            {
                "start_time": 23.652272727272727,
                "end_time": 23.802272727272726,
                "pitch": 86,
                "velocity": 40,
                "duration": 0.14999999999999858,
                "tempo": 120.0
            },
            {
                "start_time": 23.852272727272727,
                "end_time": 24.002272727272725,
                "pitch": 88,
                "velocity": 40,
                "duration": 0.14999999999999858,
                "tempo": 120.0
            },
            {
                "start_time": 24.052272727272726,
                "end_time": 24.202272727272724,
                "pitch": 89,
                "velocity": 40,
                "duration": 0.14999999999999858,
                "tempo": 120.0
            },
            {
                "start_time": 24.454545454545453,
                "end_time": 24.604545454545452,
                "pitch": 88,
                "velocity": 40,
                "duration": 0.14999999999999858,
                "tempo": 120.0
            },
            {
                "start_time": 26.05681818181818,
                "end_time": 26.206818181818182,
                "pitch": 81,
                "velocity": 40,
                "duration": 0.15000000000000213,
                "tempo": 120.0
            },
            {
                "start_time": 26.25681818181818,
                "end_time": 26.409090909090907,
                "pitch": 81,
                "velocity": 40,
                "duration": 0.15227272727272734,
                "tempo": 120.0
            },
            {
                "start_time": 26.459090909090907,
                "end_time": 26.60909090909091,
                "pitch": 80,
                "velocity": 40,
                "duration": 0.15000000000000213,
                "tempo": 120.0
            },
            {
                "start_time": 26.85909090909091,
                "end_time": 27.011363636363637,
                "pitch": 81,
                "velocity": 40,
                "duration": 0.15227272727272734,
                "tempo": 120.0
            },
            {
                "start_time": 27.061363636363634,
                "end_time": 27.211363636363636,
                "pitch": 81,
                "velocity": 40,
                "duration": 0.15000000000000213,
                "tempo": 120.0
            },
            {
                "start_time": 27.261363636363637,
                "end_time": 27.411363636363635,
                "pitch": 83,
                "velocity": 40,
                "duration": 0.14999999999999858,
                "tempo": 120.0
            },
            {
                "start_time": 27.661363636363635,
                "end_time": 27.811363636363634,
                "pitch": 81,
                "velocity": 40,
                "duration": 0.14999999999999858,
                "tempo": 120.0
            },
            {
                "start_time": 27.861363636363635,
                "end_time": 28.011363636363637,
                "pitch": 80,
                "velocity": 40,
                "duration": 0.15000000000000213,
                "tempo": 120.0
            },
            {
                "start_time": 28.061363636363634,
                "end_time": 28.21363636363636,
                "pitch": 81,
                "velocity": 40,
                "duration": 0.15227272727272734,
                "tempo": 120.0
            },
            {
                "start_time": 28.46363636363636,
                "end_time": 28.613636363636363,
                "pitch": 83,
                "velocity": 40,
                "duration": 0.15000000000000213,
                "tempo": 120.0
            },
            {
                "start_time": 28.66363636363636,
                "end_time": 28.813636363636363,
                "pitch": 84,
                "velocity": 40,
                "duration": 0.15000000000000213,
                "tempo": 120.0
            },
            {
                "start_time": 28.863636363636363,
                "end_time": 29.01590909090909,
                "pitch": 86,
                "velocity": 40,
                "duration": 0.15227272727272734,
                "tempo": 120.0
            },
            {
                "start_time": 29.065909090909088,
                "end_time": 29.21590909090909,
                "pitch": 84,
                "velocity": 40,
                "duration": 0.15000000000000213,
                "tempo": 120.0
            },
            {
                "start_time": 29.268181818181816,
                "end_time": 29.418181818181818,
                "pitch": 83,
                "velocity": 40,
                "duration": 0.15000000000000213,
                "tempo": 120.0
            },
            {
                "start_time": 29.468181818181815,
                "end_time": 29.618181818181817,
                "pitch": 81,
                "velocity": 40,
                "duration": 0.15000000000000213,
                "tempo": 120.0
            },
            {
                "start_time": 29.668181818181818,
                "end_time": 29.818181818181817,
                "pitch": 84,
                "velocity": 40,
                "duration": 0.14999999999999858,
                "tempo": 120.0
            },
            {
                "start_time": 29.868181818181817,
                "end_time": 30.018181818181816,
                "pitch": 83,
                "velocity": 40,
                "duration": 0.14999999999999858,
                "tempo": 120.0
            },
            {
                "start_time": 30.068181818181817,
                "end_time": 30.218181818181815,
                "pitch": 81,
                "velocity": 40,
                "duration": 0.14999999999999858,
                "tempo": 120.0
            },
            {
                "start_time": 30.268181818181816,
                "end_time": 30.420454545454543,
                "pitch": 80,
                "velocity": 40,
                "duration": 0.15227272727272734,
                "tempo": 120.0
            },
            {
                "start_time": 30.470454545454544,
                "end_time": 30.620454545454542,
                "pitch": 81,
                "velocity": 40,
                "duration": 0.14999999999999858,
                "tempo": 120.0
            },
            {
                "start_time": 32.08863636363636,
                "end_time": 96.64545454545454,
                "pitch": 60,
                "velocity": 40,
                "duration": 64.55681818181819,
                "tempo": 120.0
            },
            {
                "start_time": 96.64545454545454,
                "end_time": 96.79090909090908,
                "pitch": 84,
                "velocity": 40,
                "duration": 0.14545454545454106,
                "tempo": 120.0
            },
            {
                "start_time": 96.84090909090908,
                "end_time": 96.98863636363636,
                "pitch": 84,
                "velocity": 40,
                "duration": 0.14772727272728048,
                "tempo": 120.0
            },
            {
                "start_time": 97.03636363636363,
                "end_time": 97.18863636363636,
                "pitch": 83,
                "velocity": 40,
                "duration": 0.1522727272727309,
                "tempo": 120.0
            },
            {
                "start_time": 97.43863636363636,
                "end_time": 97.59090909090908,
                "pitch": 84,
                "velocity": 40,
                "duration": 0.15227272727271668,
                "tempo": 120.0
            },
            {
                "start_time": 97.64090909090909,
                "end_time": 97.79090909090908,
                "pitch": 84,
                "velocity": 40,
                "duration": 0.14999999999999147,
                "tempo": 120.0
            },
            {
                "start_time": 97.84318181818182,
                "end_time": 97.99318181818181,
                "pitch": 86,
                "velocity": 40,
                "duration": 0.14999999999999147,
                "tempo": 120.0
            },
            {
                "start_time": 98.24318181818181,
                "end_time": 98.39318181818182,
                "pitch": 84,
                "velocity": 40,
                "duration": 0.15000000000000568,
                "tempo": 120.0
            },
            {
                "start_time": 98.44318181818181,
                "end_time": 98.59545454545454,
                "pitch": 83,
                "velocity": 40,
                "duration": 0.1522727272727309,
                "tempo": 120.0
            },
            {
                "start_time": 98.64545454545454,
                "end_time": 98.79545454545455,
                "pitch": 84,
                "velocity": 40,
                "duration": 0.15000000000000568,
                "tempo": 120.0
            },
            {
                "start_time": 99.85,
                "end_time": 100.0,
                "pitch": 84,
                "velocity": 40,
                "duration": 0.15000000000000568,
                "tempo": 120.0
            },
            {
                "start_time": 100.05,
                "end_time": 100.19999999999999,
                "pitch": 84,
                "velocity": 40,
                "duration": 0.14999999999999147,
                "tempo": 120.0
            },
            {
                "start_time": 100.25,
                "end_time": 100.40227272727272,
                "pitch": 83,
                "velocity": 40,
                "duration": 0.15227272727271668,
                "tempo": 120.0
            },
            {
                "start_time": 100.65227272727272,
                "end_time": 100.80227272727272,
                "pitch": 84,
                "velocity": 40,
                "duration": 0.15000000000000568,
                "tempo": 120.0
            },
            {
                "start_time": 100.85227272727272,
                "end_time": 101.00227272727273,
                "pitch": 84,
                "velocity": 40,
                "duration": 0.15000000000000568,
                "tempo": 120.0
            },
            {
                "start_time": 101.05227272727272,
                "end_time": 101.20454545454545,
                "pitch": 79,
                "velocity": 40,
                "duration": 0.1522727272727309,
                "tempo": 120.0
            },
            {
                "start_time": 101.45681818181818,
                "end_time": 101.60681818181817,
                "pitch": 75,
                "velocity": 40,
                "duration": 0.14999999999999147,
                "tempo": 120.0
            },
            {
                "start_time": 101.85909090909091,
                "end_time": 102.0090909090909,
                "pitch": 74,
                "velocity": 40,
                "duration": 0.14999999999999147,
                "tempo": 120.0
            },
            {
                "start_time": 102.2590909090909,
                "end_time": 102.4090909090909,
                "pitch": 79,
                "velocity": 40,
                "duration": 0.15000000000000568,
                "tempo": 120.0
            },
            {
                "start_time": 103.06136363636364,
                "end_time": 103.21136363636363,
                "pitch": 84,
                "velocity": 40,
                "duration": 0.14999999999999147,
                "tempo": 120.0
            },
            {
                "start_time": 103.26136363636363,
                "end_time": 103.41363636363636,
                "pitch": 84,
                "velocity": 40,
                "duration": 0.1522727272727309,
                "tempo": 120.0
            },
            {
                "start_time": 103.46363636363635,
                "end_time": 103.61590909090908,
                "pitch": 83,
                "velocity": 40,
                "duration": 0.1522727272727309,
                "tempo": 120.0
            },
            {
                "start_time": 103.86590909090908,
                "end_time": 104.01590909090909,
                "pitch": 84,
                "velocity": 40,
                "duration": 0.15000000000000568,
                "tempo": 120.0
            },
            {
                "start_time": 104.06590909090909,
                "end_time": 104.21590909090908,
                "pitch": 84,
                "velocity": 40,
                "duration": 0.14999999999999147,
                "tempo": 120.0
            },
            {
                "start_time": 104.26590909090909,
                "end_time": 104.41818181818181,
                "pitch": 86,
                "velocity": 40,
                "duration": 0.15227272727271668,
                "tempo": 120.0
            },
            {
                "start_time": 104.66818181818181,
                "end_time": 104.81818181818181,
                "pitch": 84,
                "velocity": 40,
                "duration": 0.15000000000000568,
                "tempo": 120.0
            },
            {
                "start_time": 104.86818181818181,
                "end_time": 105.01818181818182,
                "pitch": 83,
                "velocity": 40,
                "duration": 0.15000000000000568,
                "tempo": 120.0
            },
            {
                "start_time": 105.06818181818181,
                "end_time": 105.22045454545454,
                "pitch": 84,
                "velocity": 40,
                "duration": 0.1522727272727309,
                "tempo": 120.0
            },
            {
                "start_time": 106.27499999999999,
                "end_time": 106.425,
                "pitch": 84,
                "velocity": 40,
                "duration": 0.15000000000000568,
                "tempo": 120.0
            },
            {
                "start_time": 106.475,
                "end_time": 106.62727272727273,
                "pitch": 84,
                "velocity": 40,
                "duration": 0.1522727272727309,
                "tempo": 120.0
            },
            {
                "start_time": 106.67727272727272,
                "end_time": 106.82727272727273,
                "pitch": 83,
                "velocity": 40,
                "duration": 0.15000000000000568,
                "tempo": 120.0
            },
            {
                "start_time": 107.07727272727273,
                "end_time": 107.22727272727272,
                "pitch": 84,
                "velocity": 40,
                "duration": 0.14999999999999147,
                "tempo": 120.0
            },
            {
                "start_time": 107.27954545454546,
                "end_time": 107.42954545454545,
                "pitch": 84,
                "velocity": 40,
                "duration": 0.14999999999999147,
                "tempo": 120.0
            },
            {
                "start_time": 107.47954545454544,
                "end_time": 107.63181818181818,
                "pitch": 79,
                "velocity": 40,
                "duration": 0.1522727272727309,
                "tempo": 120.0
            },
            {
                "start_time": 107.88181818181818,
                "end_time": 108.03181818181818,
                "pitch": 75,
                "velocity": 40,
                "duration": 0.15000000000000568,
                "tempo": 120.0
            },
            {
                "start_time": 108.28181818181818,
                "end_time": 108.4340909090909,
                "pitch": 74,
                "velocity": 40,
                "duration": 0.15227272727271668,
                "tempo": 120.0
            },
            {
                "start_time": 108.68636363636364,
                "end_time": 108.83636363636363,
                "pitch": 72,
                "velocity": 40,
                "duration": 0.14999999999999147,
                "tempo": 120.0
            },
            {
                "start_time": 109.48863636363636,
                "end_time": 109.63863636363635,
                "pitch": 81,
                "velocity": 40,
                "duration": 0.14999999999999147,
                "tempo": 120.0
            },
            {
                "start_time": 109.68863636363636,
                "end_time": 109.84090909090908,
                "pitch": 81,
                "velocity": 40,
                "duration": 0.15227272727271668,
                "tempo": 120.0
            },
            {
                "start_time": 109.89090909090909,
                "end_time": 110.04090909090908,
                "pitch": 80,
                "velocity": 40,
                "duration": 0.14999999999999147,
                "tempo": 120.0
            },
            {
                "start_time": 110.29090909090908,
                "end_time": 110.44090909090909,
                "pitch": 81,
                "velocity": 40,
                "duration": 0.15000000000000568,
                "tempo": 120.0
            },
            {
                "start_time": 110.49090909090908,
                "end_time": 110.64318181818182,
                "pitch": 81,
                "velocity": 40,
                "duration": 0.1522727272727309,
                "tempo": 120.0
            },
            {
                "start_time": 110.69318181818181,
                "end_time": 110.84318181818182,
                "pitch": 83,
                "velocity": 40,
                "duration": 0.15000000000000568,
                "tempo": 120.0
            },
            {
                "start_time": 111.09318181818182,
                "end_time": 111.24545454545454,
                "pitch": 81,
                "velocity": 40,
                "duration": 0.15227272727271668,
                "tempo": 120.0
            },
            {
                "start_time": 111.29545454545455,
                "end_time": 111.44545454545454,
                "pitch": 80,
                "velocity": 40,
                "duration": 0.14999999999999147,
                "tempo": 120.0
            },
            {
                "start_time": 111.49545454545454,
                "end_time": 111.64772727272727,
                "pitch": 81,
                "velocity": 40,
                "duration": 0.1522727272727309,
                "tempo": 120.0
            },
            {
                "start_time": 111.89772727272727,
                "end_time": 112.04772727272727,
                "pitch": 83,
                "velocity": 40,
                "duration": 0.15000000000000568,
                "tempo": 120.0
            },
            {
                "start_time": 112.09772727272727,
                "end_time": 112.24772727272726,
                "pitch": 84,
                "velocity": 40,
                "duration": 0.14999999999999147,
                "tempo": 120.0
            },
            {
                "start_time": 112.29772727272727,
                "end_time": 112.44999999999999,
                "pitch": 86,
                "velocity": 40,
                "duration": 0.15227272727271668,
                "tempo": 120.0
            },
            {
                "start_time": 112.70227272727273,
                "end_time": 112.85227272727272,
                "pitch": 84,
                "velocity": 40,
                "duration": 0.14999999999999147,
                "tempo": 120.0
            },
            {
                "start_time": 112.90227272727272,
                "end_time": 113.05227272727272,
                "pitch": 83,
                "velocity": 40,
                "duration": 0.15000000000000568,
                "tempo": 120.0
            },
            {
                "start_time": 113.10227272727272,
                "end_time": 113.25227272727273,
                "pitch": 84,
                "velocity": 40,
                "duration": 0.15000000000000568,
                "tempo": 120.0
            },
            {
                "start_time": 113.50454545454545,
                "end_time": 113.65454545454546,
                "pitch": 86,
                "velocity": 40,
                "duration": 0.15000000000000568,
                "tempo": 120.0
            },
            {
                "start_time": 113.70454545454545,
                "end_time": 113.85681818181817,
                "pitch": 88,
                "velocity": 40,
                "duration": 0.15227272727271668,
                "tempo": 120.0
            },
            {
                "start_time": 113.90681818181818,
                "end_time": 114.05681818181817,
                "pitch": 89,
                "velocity": 40,
                "duration": 0.14999999999999147,
                "tempo": 120.0
            },
            {
                "start_time": 114.30681818181817,
                "end_time": 114.45681818181818,
                "pitch": 88,
                "velocity": 40,
                "duration": 0.15000000000000568,
                "tempo": 120.0
            },
            {
                "start_time": 115.91590909090908,
                "end_time": 116.06590909090909,
                "pitch": 81,
                "velocity": 40,
                "duration": 0.15000000000000568,
                "tempo": 120.0
            },
            {
                "start_time": 116.11590909090908,
                "end_time": 116.26590909090909,
                "pitch": 81,
                "velocity": 40,
                "duration": 0.15000000000000568,
                "tempo": 120.0
            },
            {
                "start_time": 116.31590909090909,
                "end_time": 116.46590909090908,
                "pitch": 80,
                "velocity": 40,
                "duration": 0.14999999999999147,
                "tempo": 120.0
            },
            {
                "start_time": 116.71818181818182,
                "end_time": 116.86818181818181,
                "pitch": 81,
                "velocity": 40,
                "duration": 0.14999999999999147,
                "tempo": 120.0
            },
            {
                "start_time": 116.91818181818181,
                "end_time": 117.06818181818181,
                "pitch": 81,
                "velocity": 40,
                "duration": 0.15000000000000568,
                "tempo": 120.0
            },
            {
                "start_time": 117.11818181818181,
                "end_time": 117.26818181818182,
                "pitch": 83,
                "velocity": 40,
                "duration": 0.15000000000000568,
                "tempo": 120.0
            },
            {
                "start_time": 117.52045454545454,
                "end_time": 117.67045454545455,
                "pitch": 81,
                "velocity": 40,
                "duration": 0.15000000000000568,
                "tempo": 120.0
            },
            {
                "start_time": 117.72045454545454,
                "end_time": 117.87272727272726,
                "pitch": 80,
                "velocity": 40,
                "duration": 0.15227272727271668,
                "tempo": 120.0
            },
            {
                "start_time": 117.92272727272727,
                "end_time": 118.07272727272726,
                "pitch": 81,
                "velocity": 40,
                "duration": 0.14999999999999147,
                "tempo": 120.0
            },
            {
                "start_time": 118.32272727272726,
                "end_time": 118.475,
                "pitch": 83,
                "velocity": 40,
                "duration": 0.1522727272727309,
                "tempo": 120.0
            },
            {
                "start_time": 118.52499999999999,
                "end_time": 118.675,
                "pitch": 84,
                "velocity": 40,
                "duration": 0.15000000000000568,
                "tempo": 120.0
            },
            {
                "start_time": 118.725,
                "end_time": 118.875,
                "pitch": 86,
                "velocity": 40,
                "duration": 0.15000000000000568,
                "tempo": 120.0
            },
            {
                "start_time": 118.925,
                "end_time": 119.07499999999999,
                "pitch": 84,
                "velocity": 40,
                "duration": 0.14999999999999147,
                "tempo": 120.0
            },
            {
                "start_time": 119.125,
                "end_time": 119.27727272727272,
                "pitch": 83,
                "velocity": 40,
                "duration": 0.15227272727271668,
                "tempo": 120.0
            },
            {
                "start_time": 119.32727272727273,
                "end_time": 119.47727272727272,
                "pitch": 81,
                "velocity": 40,
                "duration": 0.14999999999999147,
                "tempo": 120.0
            },
            {
                "start_time": 119.52727272727272,
                "end_time": 119.67954545454545,
                "pitch": 84,
                "velocity": 40,
                "duration": 0.1522727272727309,
                "tempo": 120.0
            },
            {
                "start_time": 119.72954545454544,
                "end_time": 119.87954545454545,
                "pitch": 83,
                "velocity": 40,
                "duration": 0.15000000000000568,
                "tempo": 120.0
            },
            {
                "start_time": 119.93181818181817,
                "end_time": 120.08181818181818,
                "pitch": 81,
                "velocity": 40,
                "duration": 0.15000000000000568,
                "tempo": 120.0
            },
            {
                "start_time": 120.13181818181818,
                "end_time": 120.28181818181818,
                "pitch": 80,
                "velocity": 40,
                "duration": 0.15000000000000568,
                "tempo": 120.0
            },
            {
                "start_time": 120.33181818181818,
                "end_time": 120.48181818181817,
                "pitch": 81,
                "velocity": 40,
                "duration": 0.14999999999999147,
                "tempo": 120.0
            }
        ],
        "Flute": [
            {
                "start_time": 0.0,
                "end_time": 0.1340909090909091,
                "pitch": 60,
                "velocity": 32,
                "duration": 0.1340909090909091,
                "tempo": 120.0
            },
            {
                "start_time": 0.18409090909090908,
                "end_time": 0.33409090909090905,
                "pitch": 67,
                "velocity": 32,
                "duration": 0.14999999999999997,
                "tempo": 120.0
            },
            {
                "start_time": 0.575,
                "end_time": 0.7181818181818181,
                "pitch": 67,
                "velocity": 32,
                "duration": 0.1431818181818182,
                "tempo": 120.0
            },
            {
                "start_time": 0.7659090909090909,
                "end_time": 0.9227272727272727,
                "pitch": 66,
                "velocity": 32,
                "duration": 0.15681818181818186,
                "tempo": 120.0
            },
            {
                "start_time": 1.1863636363636363,
                "end_time": 1.3363636363636362,
                "pitch": 67,
                "velocity": 32,
                "duration": 0.1499999999999999,
                "tempo": 120.0
            },
            {
                "start_time": 1.3863636363636362,
                "end_time": 1.5363636363636364,
                "pitch": 67,
                "velocity": 32,
                "duration": 0.15000000000000013,
                "tempo": 120.0
            },
            {
                "start_time": 1.5863636363636362,
                "end_time": 1.7386363636363635,
                "pitch": 68,
                "velocity": 32,
                "duration": 0.15227272727272734,
                "tempo": 120.0
            },
            {
                "start_time": 1.7886363636363636,
                "end_time": 1.9386363636363635,
                "pitch": 67,
                "velocity": 32,
                "duration": 0.1499999999999999,
                "tempo": 120.0
            },
            {
                "start_time": 1.9886363636363635,
                "end_time": 2.131818181818182,
                "pitch": 66,
                "velocity": 32,
                "duration": 0.1431818181818183,
                "tempo": 120.0
            },
            {
                "start_time": 2.1795454545454542,
                "end_time": 2.3227272727272728,
                "pitch": 67,
                "velocity": 32,
                "duration": 0.14318181818181852,
                "tempo": 120.0
            },
            {
                "start_time": 2.370454545454545,
                "end_time": 2.5272727272727273,
                "pitch": 72,
                "velocity": 32,
                "duration": 0.1568181818181822,
                "tempo": 120.0
            },
            {
                "start_time": 2.5818181818181816,
                "end_time": 2.7386363636363633,
                "pitch": 67,
                "velocity": 32,
                "duration": 0.15681818181818175,
                "tempo": 120.0
            },
            {
                "start_time": 2.793181818181818,
                "end_time": 2.936363636363636,
                "pitch": 66,
                "velocity": 32,
                "duration": 0.14318181818181808,
                "tempo": 120.0
            },
            {
                "start_time": 2.984090909090909,
                "end_time": 3.127272727272727,
                "pitch": 67,
                "velocity": 32,
                "duration": 0.14318181818181808,
                "tempo": 120.0
            },
            {
                "start_time": 3.175,
                "end_time": 3.277272727272727,
                "pitch": 62,
                "velocity": 32,
                "duration": 0.10227272727272707,
                "tempo": 120.0
            },
            {
                "start_time": 3.3136363636363635,
                "end_time": 3.418181818181818,
                "pitch": 63,
                "velocity": 32,
                "duration": 0.1045454545454545,
                "tempo": 120.0
            },
            {
                "start_time": 3.4545454545454546,
                "end_time": 3.559090909090909,
                "pitch": 65,
                "velocity": 32,
                "duration": 0.1045454545454545,
                "tempo": 120.0
            },
            {
                "start_time": 3.5954545454545452,
                "end_time": 3.690909090909091,
                "pitch": 67,
                "velocity": 32,
                "duration": 0.09545454545454568,
                "tempo": 120.0
            },
            {
                "start_time": 3.7227272727272727,
                "end_time": 3.818181818181818,
                "pitch": 68,
                "velocity": 32,
                "duration": 0.09545454545454524,
                "tempo": 120.0
            },
            {
                "start_time": 3.8499999999999996,
                "end_time": 3.9454545454545453,
                "pitch": 71,
                "velocity": 32,
                "duration": 0.09545454545454568,
                "tempo": 120.0
            },
            {
                "start_time": 3.977272727272727,
                "end_time": 4.077272727272727,
                "pitch": 72,
                "velocity": 32,
                "duration": 0.10000000000000009,
                "tempo": 120.0
            },
            {
                "start_time": 4.111363636363636,
                "end_time": 4.211363636363636,
                "pitch": 71,
                "velocity": 32,
                "duration": 0.09999999999999964,
                "tempo": 120.0
            },
            {
                "start_time": 4.243181818181818,
                "end_time": 4.343181818181818,
                "pitch": 68,
                "velocity": 32,
                "duration": 0.09999999999999964,
                "tempo": 120.0
            },
            {
                "start_time": 4.377272727272727,
                "end_time": 4.477272727272727,
                "pitch": 67,
                "velocity": 32,
                "duration": 0.09999999999999964,
                "tempo": 120.0
            },
            {
                "start_time": 4.511363636363636,
                "end_time": 4.611363636363636,
                "pitch": 65,
                "velocity": 32,
                "duration": 0.10000000000000053,
                "tempo": 120.0
            },
            {
                "start_time": 4.643181818181818,
                "end_time": 4.743181818181818,
                "pitch": 63,
                "velocity": 32,
                "duration": 0.10000000000000053,
                "tempo": 120.0
            },
            {
                "start_time": 4.777272727272727,
                "end_time": 4.931818181818182,
                "pitch": 62,
                "velocity": 32,
                "duration": 0.15454545454545432,
                "tempo": 120.0
            },
            {
                "start_time": 4.9818181818181815,
                "end_time": 5.136363636363636,
                "pitch": 59,
                "velocity": 32,
                "duration": 0.15454545454545432,
                "tempo": 120.0
            },
            {
                "start_time": 5.1886363636363635,
                "end_time": 5.340909090909091,
                "pitch": 59,
                "velocity": 32,
                "duration": 0.15227272727272734,
                "tempo": 120.0
            },
            {
                "start_time": 5.393181818181818,
                "end_time": 5.547727272727273,
                "pitch": 62,
                "velocity": 32,
                "duration": 0.1545454545454552,
                "tempo": 120.0
            },
            {
                "start_time": 5.597727272727273,
                "end_time": 5.75,
                "pitch": 59,
                "velocity": 32,
                "duration": 0.15227272727272734,
                "tempo": 120.0
            },
            {
                "start_time": 5.8,
                "end_time": 5.949999999999999,
                "pitch": 59,
                "velocity": 32,
                "duration": 0.14999999999999947,
                "tempo": 120.0
            },
            {
                "start_time": 6.0,
                "end_time": 6.143181818181818,
                "pitch": 62,
                "velocity": 32,
                "duration": 0.14318181818181763,
                "tempo": 120.0
            },
            {
                "start_time": 6.1909090909090905,
                "end_time": 6.334090909090909,
                "pitch": 59,
                "velocity": 32,
                "duration": 0.14318181818181852,
                "tempo": 120.0
            }
        ],
        "Oboe": [
            {
                "start_time": 32.875,
                "end_time": 33.025,
                "pitch": 71,
                "velocity": 32,
                "duration": 0.14999999999999858,
                "tempo": 120.0
            },
            {
                "start_time": 33.074999999999996,
                "end_time": 33.225,
                "pitch": 68,
                "velocity": 32,
                "duration": 0.15000000000000568,
                "tempo": 120.0
            },
            {
                "start_time": 33.275,
                "end_time": 33.425,
                "pitch": 65,
                "velocity": 32,
                "duration": 0.14999999999999858,
                "tempo": 120.0
            },
            {
                "start_time": 33.475,
                "end_time": 33.625,
                "pitch": 62,
                "velocity": 32,
                "duration": 0.14999999999999858,
                "tempo": 120.0
            },
            {
                "start_time": 33.675,
                "end_time": 33.824999999999996,
                "pitch": 60,
                "velocity": 32,
                "duration": 0.14999999999999858,
                "tempo": 120.0
            },
            {
                "start_time": 34.475,
                "end_time": 34.627272727272725,
                "pitch": 71,
                "velocity": 32,
                "duration": 0.15227272727272378,
                "tempo": 120.0
            },
            {
                "start_time": 34.67727272727272,
                "end_time": 34.82727272727273,
                "pitch": 68,
                "velocity": 32,
                "duration": 0.15000000000000568,
                "tempo": 120.0
            },
            {
                "start_time": 34.877272727272725,
                "end_time": 35.027272727272724,
                "pitch": 65,
                "velocity": 32,
                "duration": 0.14999999999999858,
                "tempo": 120.0
            },
            {
                "start_time": 35.07727272727273,
                "end_time": 35.22727272727273,
                "pitch": 62,
                "velocity": 32,
                "duration": 0.14999999999999858,
                "tempo": 120.0
            },
            {
                "start_time": 35.277272727272724,
                "end_time": 35.42727272727272,
                "pitch": 63,
                "velocity": 32,
                "duration": 0.14999999999999858,
                "tempo": 120.0
            },
            {
                "start_time": 36.07727272727273,
                "end_time": 36.17727272727272,
                "pitch": 65,
                "velocity": 32,
                "duration": 0.09999999999999432,
                "tempo": 120.0
            },
            {
                "start_time": 36.211363636363636,
                "end_time": 36.31136363636364,
                "pitch": 74,
                "velocity": 32,
                "duration": 0.10000000000000142,
                "tempo": 120.0
            },
            {
                "start_time": 36.345454545454544,
                "end_time": 36.445454545454545,
                "pitch": 72,
                "velocity": 32,
                "duration": 0.10000000000000142,
                "tempo": 120.0
            },
            {
                "start_time": 36.47727272727273,
                "end_time": 36.57954545454545,
                "pitch": 71,
                "velocity": 32,
                "duration": 0.10227272727272663,
                "tempo": 120.0
            },
            {
                "start_time": 36.611363636363635,
                "end_time": 36.71363636363636,
                "pitch": 68,
                "velocity": 32,
                "duration": 0.10227272727272663,
                "tempo": 120.0
            },
            {
                "start_time": 36.74772727272727,
                "end_time": 36.84772727272727,
                "pitch": 67,
                "velocity": 32,
                "duration": 0.10000000000000142,
                "tempo": 120.0
            },
            {
                "start_time": 36.88181818181818,
                "end_time": 37.03181818181818,
                "pitch": 63,
                "velocity": 32,
                "duration": 0.14999999999999858,
                "tempo": 120.0
            },
            {
                "start_time": 37.68181818181818,
                "end_time": 37.83181818181818,
                "pitch": 62,
                "velocity": 32,
                "duration": 0.14999999999999858,
                "tempo": 120.0
            },
            {
                "start_time": 38.48181818181818,
                "end_time": 39.11590909090909,
                "pitch": 60,
                "velocity": 32,
                "duration": 0.634090909090915,
                "tempo": 120.0
            },
            {
                "start_time": 39.28409090909091,
                "end_time": 39.38409090909091,
                "pitch": 65,
                "velocity": 32,
                "duration": 0.10000000000000142,
                "tempo": 120.0
            },
            {
                "start_time": 39.41590909090909,
                "end_time": 39.51590909090909,
                "pitch": 67,
                "velocity": 32,
                "duration": 0.10000000000000142,
                "tempo": 120.0
            },
            {
                "start_time": 39.55,
                "end_time": 39.65,
                "pitch": 68,
                "velocity": 32,
                "duration": 0.10000000000000142,
                "tempo": 120.0
            },
            {
                "start_time": 39.684090909090905,
                "end_time": 39.78409090909091,
                "pitch": 71,
                "velocity": 32,
                "duration": 0.10000000000000142,
                "tempo": 120.0
            },
            {
                "start_time": 39.81590909090909,
                "end_time": 39.91590909090909,
                "pitch": 72,
                "velocity": 32,
                "duration": 0.10000000000000142,
                "tempo": 120.0
            },
            {
                "start_time": 39.949999999999996,
                "end_time": 40.05,
                "pitch": 74,
                "velocity": 32,
                "duration": 0.10000000000000142,
                "tempo": 120.0
            },
            {
                "start_time": 40.084090909090904,
                "end_time": 40.71818181818182,
                "pitch": 72,
                "velocity": 32,
                "duration": 0.634090909090915,
                "tempo": 120.0
            },
            {
                "start_time": 40.88636363636363,
                "end_time": 40.970454545454544,
                "pitch": 86,
                "velocity": 32,
                "duration": 0.08409090909091077,
                "tempo": 120.0
            },
            {
                "start_time": 40.986363636363635,
                "end_time": 41.070454545454545,
                "pitch": 84,
                "velocity": 32,
                "duration": 0.08409090909091077,
                "tempo": 120.0
            },
            {
                "start_time": 41.086363636363636,
                "end_time": 41.17045454545455,
                "pitch": 83,
                "velocity": 32,
                "duration": 0.08409090909091077,
                "tempo": 120.0
            },
            {
                "start_time": 41.18636363636364,
                "end_time": 41.27045454545454,
                "pitch": 81,
                "velocity": 32,
                "duration": 0.08409090909090366,
                "tempo": 120.0
            },
            {
                "start_time": 41.28636363636363,
                "end_time": 41.37045454545454,
                "pitch": 79,
                "velocity": 32,
                "duration": 0.08409090909091077,
                "tempo": 120.0
            },
            {
                "start_time": 41.38636363636363,
                "end_time": 41.470454545454544,
                "pitch": 77,
                "velocity": 32,
                "duration": 0.08409090909091077,
                "tempo": 120.0
            },
            {
                "start_time": 41.486363636363635,
                "end_time": 41.570454545454545,
                "pitch": 75,
                "velocity": 32,
                "duration": 0.08409090909091077,
                "tempo": 120.0
            },
            {
                "start_time": 41.586363636363636,
                "end_time": 41.67045454545455,
                "pitch": 74,
                "velocity": 32,
                "duration": 0.08409090909091077,
                "tempo": 120.0
            },
            {
                "start_time": 41.68636363636364,
                "end_time": 42.320454545454545,
                "pitch": 75,
                "velocity": 32,
                "duration": 0.6340909090909079,
                "tempo": 120.0
            },
            {
                "start_time": 42.486363636363635,
                "end_time": 43.12272727272727,
                "pitch": 74,
                "velocity": 32,
                "duration": 0.6363636363636331,
                "tempo": 120.0
            },
            {
                "start_time": 43.288636363636364,
                "end_time": 43.92272727272727,
                "pitch": 72,
                "velocity": 32,
                "duration": 0.6340909090909079,
                "tempo": 120.0
            },
            {
                "start_time": 44.08863636363636,
                "end_time": 44.18863636363636,
                "pitch": 71,
                "velocity": 32,
                "duration": 0.10000000000000142,
                "tempo": 120.0
            },
            {
                "start_time": 44.22272727272727,
                "end_time": 44.32272727272727,
                "pitch": 65,
                "velocity": 32,
                "duration": 0.10000000000000142,
                "tempo": 120.0
            },
            {
                "start_time": 44.35454545454545,
                "end_time": 44.45454545454545,
                "pitch": 71,
                "velocity": 32,
                "duration": 0.10000000000000142,
                "tempo": 120.0
            },
            {
                "start_time": 44.48863636363636,
                "end_time": 44.58863636363636,
                "pitch": 65,
                "velocity": 32,
                "duration": 0.10000000000000142,
                "tempo": 120.0
            },
            {
                "start_time": 44.62272727272727,
                "end_time": 44.724999999999994,
                "pitch": 71,
                "velocity": 32,
                "duration": 0.10227272727272663,
                "tempo": 120.0
            },
            {
                "start_time": 44.75681818181818,
                "end_time": 44.85909090909091,
                "pitch": 65,
                "velocity": 32,
                "duration": 0.10227272727272663,
                "tempo": 120.0
            },
            {
                "start_time": 44.89090909090909,
                "end_time": 45.04090909090909,
                "pitch": 76,
                "velocity": 32,
                "duration": 0.14999999999999858,
                "tempo": 120.0
            },
            {
                "start_time": 45.69090909090909,
                "end_time": 46.00909090909091,
                "pitch": 68,
                "velocity": 32,
                "duration": 0.3181818181818201,
                "tempo": 120.0
            },
            {
                "start_time": 46.090909090909086,
                "end_time": 46.40909090909091,
                "pitch": 71,
                "velocity": 32,
                "duration": 0.3181818181818201,
                "tempo": 120.0
            },
            {
                "start_time": 46.49090909090909,
                "end_time": 46.643181818181816,
                "pitch": 72,
                "velocity": 32,
                "duration": 0.15227272727272378,
                "tempo": 120.0
            },
            {
                "start_time": 47.29545454545454,
                "end_time": 47.611363636363635,
                "pitch": 65,
                "velocity": 32,
                "duration": 0.3159090909090949,
                "tempo": 120.0
            },
            {
                "start_time": 47.695454545454545,
                "end_time": 47.79545454545454,
                "pitch": 74,
                "velocity": 32,
                "duration": 0.09999999999999432,
                "tempo": 120.0
            },
            {
                "start_time": 47.82727272727273,
                "end_time": 47.92727272727272,
                "pitch": 72,
                "velocity": 32,
                "duration": 0.09999999999999432,
                "tempo": 120.0
            },
            {
                "start_time": 47.961363636363636,
                "end_time": 48.06136363636364,
                "pitch": 69,
                "velocity": 32,
                "duration": 0.10000000000000142,
                "tempo": 120.0
            },
            {
                "start_time": 48.095454545454544,
                "end_time": 48.24545454545454,
                "pitch": 76,
                "velocity": 32,
                "duration": 0.14999999999999858,
                "tempo": 120.0
            },
            {
                "start_time": 48.49545454545454,
                "end_time": 48.64545454545454,
                "pitch": 74,
                "velocity": 32,
                "duration": 0.14999999999999858,
                "tempo": 120.0
            },
            {
                "start_time": 48.695454545454545,
                "end_time": 48.84772727272727,
                "pitch": 72,
                "velocity": 32,
                "duration": 0.15227272727272378,
                "tempo": 120.0
            },
            {
                "start_time": 48.89772727272727,
                "end_time": 48.99772727272727,
                "pitch": 71,
                "velocity": 32,
                "duration": 0.09999999999999432,
                "tempo": 120.0
            },
            {
                "start_time": 49.02954545454545,
                "end_time": 49.12954545454545,
                "pitch": 69,
                "velocity": 32,
                "duration": 0.10000000000000142,
                "tempo": 120.0
            },
            {
                "start_time": 49.163636363636364,
                "end_time": 49.26363636363636,
                "pitch": 68,
                "velocity": 32,
                "duration": 0.09999999999999432,
                "tempo": 120.0
            },
            {
                "start_time": 49.29772727272727,
                "end_time": 49.39772727272727,
                "pitch": 65,
                "velocity": 32,
                "duration": 0.10000000000000142,
                "tempo": 120.0
            },
            {
                "start_time": 49.429545454545455,
                "end_time": 49.52954545454545,
                "pitch": 64,
                "velocity": 32,
                "duration": 0.09999999999999432,
                "tempo": 120.0
            },
            {
                "start_time": 49.56363636363636,
                "end_time": 49.663636363636364,
                "pitch": 62,
                "velocity": 32,
                "duration": 0.10000000000000142,
                "tempo": 120.0
            },
            {
                "start_time": 49.69772727272727,
                "end_time": 50.01363636363636,
                "pitch": 72,
                "velocity": 32,
                "duration": 0.3159090909090878,
                "tempo": 120.0
            },
            {
                "start_time": 50.09772727272727,
                "end_time": 50.19772727272727,
                "pitch": 57,
                "velocity": 32,
                "duration": 0.10000000000000142,
                "tempo": 120.0
            },
            {
                "start_time": 50.22954545454545,
                "end_time": 50.32954545454545,
                "pitch": 59,
                "velocity": 32,
                "duration": 0.10000000000000142,
                "tempo": 120.0
            },
            {
                "start_time": 50.36363636363636,
                "end_time": 50.46363636363636,
                "pitch": 60,
                "velocity": 32,
                "duration": 0.10000000000000142,
                "tempo": 120.0
            },
            {
                "start_time": 50.49772727272727,
                "end_time": 50.81590909090909,
                "pitch": 71,
                "velocity": 32,
                "duration": 0.3181818181818201,
                "tempo": 120.0
            },
            {
                "start_time": 50.9,
                "end_time": 50.98409090909091,
                "pitch": 59,
                "velocity": 32,
                "duration": 0.08409090909091077,
                "tempo": 120.0
            },
            {
                "start_time": 51.0,
                "end_time": 51.084090909090904,
                "pitch": 60,
                "velocity": 32,
                "duration": 0.08409090909090366,
                "tempo": 120.0
            },
            {
                "start_time": 51.099999999999994,
                "end_time": 51.184090909090905,
                "pitch": 62,
                "velocity": 32,
                "duration": 0.08409090909091077,
                "tempo": 120.0
            },
            {
                "start_time": 51.199999999999996,
                "end_time": 51.28409090909091,
                "pitch": 65,
                "velocity": 32,
                "duration": 0.08409090909091077,
                "tempo": 120.0
            },
            {
                "start_time": 51.3,
                "end_time": 51.615909090909085,
                "pitch": 69,
                "velocity": 32,
                "duration": 0.3159090909090878,
                "tempo": 120.0
            },
            {
                "start_time": 51.699999999999996,
                "end_time": 51.849999999999994,
                "pitch": 71,
                "velocity": 32,
                "duration": 0.14999999999999858,
                "tempo": 120.0
            },
            {
                "start_time": 51.9,
                "end_time": 52.05,
                "pitch": 72,
                "velocity": 32,
                "duration": 0.14999999999999858,
                "tempo": 120.0
            },
            {
                "start_time": 52.099999999999994,
                "end_time": 52.184090909090905,
                "pitch": 74,
                "velocity": 32,
                "duration": 0.08409090909091077,
                "tempo": 120.0
            },
            {
                "start_time": 52.199999999999996,
                "end_time": 52.28409090909091,
                "pitch": 72,
                "velocity": 32,
                "duration": 0.08409090909091077,
                "tempo": 120.0
            },
            {
                "start_time": 52.3,
                "end_time": 52.38409090909091,
                "pitch": 71,
                "velocity": 32,
                "duration": 0.08409090909091077,
                "tempo": 120.0
            },
            {
                "start_time": 52.4,
                "end_time": 52.48409090909091,
                "pitch": 69,
                "velocity": 32,
                "duration": 0.08409090909091077,
                "tempo": 120.0
            },
            {
                "start_time": 52.5,
                "end_time": 52.584090909090904,
                "pitch": 62,
                "velocity": 32,
                "duration": 0.08409090909090366,
                "tempo": 120.0
            },
            {
                "start_time": 52.599999999999994,
                "end_time": 52.684090909090905,
                "pitch": 64,
                "velocity": 32,
                "duration": 0.08409090909091077,
                "tempo": 120.0
            },
            {
                "start_time": 52.699999999999996,
                "end_time": 52.78409090909091,
                "pitch": 65,
                "velocity": 32,
                "duration": 0.08409090909091077,
                "tempo": 120.0
            },
            {
                "start_time": 52.80227272727272,
                "end_time": 52.88636363636363,
                "pitch": 68,
                "velocity": 32,
                "duration": 0.08409090909091077,
                "tempo": 120.0
            },
            {
                "start_time": 52.902272727272724,
                "end_time": 52.986363636363635,
                "pitch": 69,
                "velocity": 32,
                "duration": 0.08409090909091077,
                "tempo": 120.0
            },
            {
                "start_time": 53.002272727272725,
                "end_time": 53.086363636363636,
                "pitch": 71,
                "velocity": 32,
                "duration": 0.08409090909091077,
                "tempo": 120.0
            },
            {
                "start_time": 53.10227272727273,
                "end_time": 53.18636363636363,
                "pitch": 72,
                "velocity": 32,
                "duration": 0.08409090909090366,
                "tempo": 120.0
            },
            {
                "start_time": 53.20227272727273,
                "end_time": 53.28636363636363,
                "pitch": 74,
                "velocity": 32,
                "duration": 0.08409090909090366,
                "tempo": 120.0
            },
            {
                "start_time": 53.30227272727272,
                "end_time": 53.38636363636363,
                "pitch": 76,
                "velocity": 32,
                "duration": 0.08409090909091077,
                "tempo": 120.0
            },
            {
                "start_time": 53.402272727272724,
                "end_time": 53.486363636363635,
                "pitch": 77,
                "velocity": 32,
                "duration": 0.08409090909091077,
                "tempo": 120.0
            },
            {
                "start_time": 53.502272727272725,
                "end_time": 53.586363636363636,
                "pitch": 80,
                "velocity": 32,
                "duration": 0.08409090909091077,
                "tempo": 120.0
            },
            {
                "start_time": 53.60227272727273,
                "end_time": 53.68636363636363,
                "pitch": 81,
                "velocity": 32,
                "duration": 0.08409090909090366,
                "tempo": 120.0
            },
            {
                "start_time": 53.70227272727273,
                "end_time": 53.78636363636363,
                "pitch": 83,
                "velocity": 32,
                "duration": 0.08409090909090366,
                "tempo": 120.0
            },
            {
                "start_time": 53.80227272727272,
                "end_time": 53.88636363636363,
                "pitch": 81,
                "velocity": 32,
                "duration": 0.08409090909091077,
                "tempo": 120.0
            },
            {
                "start_time": 53.902272727272724,
                "end_time": 53.986363636363635,
                "pitch": 80,
                "velocity": 32,
                "duration": 0.08409090909091077,
                "tempo": 120.0
            },
            {
                "start_time": 54.002272727272725,
                "end_time": 54.152272727272724,
                "pitch": 77,
                "velocity": 32,
                "duration": 0.14999999999999858,
                "tempo": 120.0
            },
            {
                "start_time": 54.20227272727273,
                "end_time": 54.28636363636363,
                "pitch": 80,
                "velocity": 32,
                "duration": 0.08409090909090366,
                "tempo": 120.0
            },
            {
                "start_time": 54.30227272727272,
                "end_time": 54.38636363636363,
                "pitch": 77,
                "velocity": 32,
                "duration": 0.08409090909091077,
                "tempo": 120.0
            },
            {
                "start_time": 54.402272727272724,
                "end_time": 54.486363636363635,
                "pitch": 76,
                "velocity": 32,
                "duration": 0.08409090909091077,
                "tempo": 120.0
            },
            {
                "start_time": 54.502272727272725,
                "end_time": 54.60227272727273,
                "pitch": 81,
                "velocity": 32,
                "duration": 0.10000000000000142,
                "tempo": 120.0
            },
            {
                "start_time": 54.63636363636363,
                "end_time": 54.736363636363635,
                "pitch": 72,
                "velocity": 32,
                "duration": 0.10000000000000142,
                "tempo": 120.0
            },
            {
                "start_time": 54.77045454545454,
                "end_time": 54.87045454545454,
                "pitch": 81,
                "velocity": 32,
                "duration": 0.10000000000000142,
                "tempo": 120.0
            },
            {
                "start_time": 54.90454545454545,
                "end_time": 55.00454545454545,
                "pitch": 72,
                "velocity": 32,
                "duration": 0.10000000000000142,
                "tempo": 120.0
            },
            {
                "start_time": 55.038636363636364,
                "end_time": 55.13863636363636,
                "pitch": 81,
                "velocity": 32,
                "duration": 0.09999999999999432,
                "tempo": 120.0
            },
            {
                "start_time": 55.17272727272727,
                "end_time": 55.27272727272727,
                "pitch": 72,
                "velocity": 32,
                "duration": 0.10000000000000142,
                "tempo": 120.0
            },
            {
                "start_time": 55.304545454545455,
                "end_time": 55.45454545454545,
                "pitch": 74,
                "velocity": 32,
                "duration": 0.14999999999999858,
                "tempo": 120.0
            },
            {
                "start_time": 55.50454545454545,
                "end_time": 55.65454545454545,
                "pitch": 71,
                "velocity": 32,
                "duration": 0.14999999999999858,
                "tempo": 120.0
            },
            {
                "start_time": 55.70454545454545,
                "end_time": 55.85454545454545,
                "pitch": 74,
                "velocity": 32,
                "duration": 0.14999999999999858,
                "tempo": 120.0
            },
            {
                "start_time": 55.90454545454545,
                "end_time": 56.054545454545455,
                "pitch": 71,
                "velocity": 32,
                "duration": 0.15000000000000568,
                "tempo": 120.0
            },
            {
                "start_time": 56.10454545454545,
                "end_time": 56.25454545454545,
                "pitch": 57,
                "velocity": 32,
                "duration": 0.14999999999999858,
                "tempo": 120.0
            },
            {
                "start_time": 56.50454545454545,
                "end_time": 56.65681818181818,
                "pitch": 57,
                "velocity": 32,
                "duration": 0.1522727272727309,
                "tempo": 120.0
            },
            {
                "start_time": 56.90681818181818,
                "end_time": 57.05681818181818,
                "pitch": 55,
                "velocity": 32,
                "duration": 0.14999999999999858,
                "tempo": 120.0
            },
            {
                "start_time": 58.10681818181818,
                "end_time": 58.425,
                "pitch": 81,
                "velocity": 51,
                "duration": 0.3181818181818201,
                "tempo": 120.0
            },
            {
                "start_time": 58.506818181818176,
                "end_time": 58.82727272727272,
                "pitch": 79,
                "velocity": 51,
                "duration": 0.3204545454545453,
                "tempo": 120.0
            },
            {
                "start_time": 59.31136363636363,
                "end_time": 59.461363636363636,
                "pitch": 66,
                "velocity": 51,
                "duration": 0.15000000000000568,
                "tempo": 120.0
            },
            {
                "start_time": 59.51136363636363,
                "end_time": 59.66136363636363,
                "pitch": 62,
                "velocity": 51,
                "duration": 0.14999999999999858,
                "tempo": 120.0
            },
            {
                "start_time": 59.711363636363636,
                "end_time": 59.861363636363635,
                "pitch": 66,
                "velocity": 51,
                "duration": 0.14999999999999858,
                "tempo": 120.0
            },
            {
                "start_time": 59.91136363636363,
                "end_time": 60.22727272727273,
                "pitch": 64,
                "velocity": 51,
                "duration": 0.3159090909090949,
                "tempo": 120.0
            },
            {
                "start_time": 60.51136363636363,
                "end_time": 60.66136363636363,
                "pitch": 66,
                "velocity": 51,
                "duration": 0.14999999999999858,
                "tempo": 120.0
            },
            {
                "start_time": 60.711363636363636,
                "end_time": 60.86363636363636,
                "pitch": 68,
                "velocity": 51,
                "duration": 0.15227272727272378,
                "tempo": 120.0
            },
            {
                "start_time": 61.31363636363636,
                "end_time": 61.62954545454545,
                "pitch": 81,
                "velocity": 51,
                "duration": 0.3159090909090878,
                "tempo": 120.0
            },
            {
                "start_time": 61.71363636363636,
                "end_time": 62.02954545454545,
                "pitch": 79,
                "velocity": 51,
                "duration": 0.3159090909090878,
                "tempo": 120.0
            },
            {
                "start_time": 62.51363636363636,
                "end_time": 62.663636363636364,
                "pitch": 57,
                "velocity": 51,
                "duration": 0.15000000000000568,
                "tempo": 120.0
            },
            {
                "start_time": 62.71363636363636,
                "end_time": 62.865909090909085,
                "pitch": 65,
                "velocity": 51,
                "duration": 0.15227272727272378,
                "tempo": 120.0
            },
            {
                "start_time": 62.91590909090909,
                "end_time": 63.06590909090909,
                "pitch": 60,
                "velocity": 51,
                "duration": 0.14999999999999858,
                "tempo": 120.0
            },
            {
                "start_time": 63.115909090909085,
                "end_time": 63.26590909090909,
                "pitch": 57,
                "velocity": 51,
                "duration": 0.15000000000000568,
                "tempo": 120.0
            },
            {
                "start_time": 63.31590909090909,
                "end_time": 63.465909090909086,
                "pitch": 56,
                "velocity": 51,
                "duration": 0.14999999999999858,
                "tempo": 120.0
            },
            {
                "start_time": 63.51590909090909,
                "end_time": 63.66590909090909,
                "pitch": 59,
                "velocity": 51,
                "duration": 0.14999999999999858,
                "tempo": 120.0
            },
            {
                "start_time": 63.715909090909086,
                "end_time": 63.865909090909085,
                "pitch": 64,
                "velocity": 51,
                "duration": 0.14999999999999858,
                "tempo": 120.0
            },
            {
                "start_time": 63.91590909090909,
                "end_time": 64.06590909090909,
                "pitch": 59,
                "velocity": 51,
                "duration": 0.14999999999999858,
                "tempo": 120.0
            },
            {
                "start_time": 64.51590909090909,
                "end_time": 64.83181818181818,
                "pitch": 81,
                "velocity": 51,
                "duration": 0.3159090909090878,
                "tempo": 120.0
            },
            {
                "start_time": 64.91590909090908,
                "end_time": 65.23409090909091,
                "pitch": 79,
                "velocity": 51,
                "duration": 0.3181818181818272,
                "tempo": 120.0
            },
            {
                "start_time": 65.72045454545454,
                "end_time": 65.87045454545454,
                "pitch": 66,
                "velocity": 51,
                "duration": 0.14999999999999147,
                "tempo": 120.0
            },
            {
                "start_time": 65.92045454545455,
                "end_time": 66.07045454545454,
                "pitch": 62,
                "velocity": 51,
                "duration": 0.14999999999999147,
                "tempo": 120.0
            },
            {
                "start_time": 66.12045454545454,
                "end_time": 66.27272727272727,
                "pitch": 66,
                "velocity": 51,
                "duration": 0.1522727272727309,
                "tempo": 120.0
            },
            {
                "start_time": 66.32272727272726,
                "end_time": 66.64090909090909,
                "pitch": 64,
                "velocity": 51,
                "duration": 0.3181818181818272,
                "tempo": 120.0
            },
            {
                "start_time": 66.925,
                "end_time": 67.075,
                "pitch": 66,
                "velocity": 51,
                "duration": 0.15000000000000568,
                "tempo": 120.0
            },
            {
                "start_time": 67.125,
                "end_time": 67.27727272727273,
                "pitch": 68,
                "velocity": 51,
                "duration": 0.1522727272727309,
                "tempo": 120.0
            },
            {
                "start_time": 67.72954545454544,
                "end_time": 68.04545454545455,
                "pitch": 81,
                "velocity": 51,
                "duration": 0.315909090909102,
                "tempo": 120.0
            },
            {
                "start_time": 68.12954545454545,
                "end_time": 68.44772727272726,
                "pitch": 79,
                "velocity": 51,
                "duration": 0.318181818181813,
                "tempo": 120.0
            },
            {
                "start_time": 68.93181818181817,
                "end_time": 69.08181818181818,
                "pitch": 57,
                "velocity": 51,
                "duration": 0.15000000000000568,
                "tempo": 120.0
            },
            {
                "start_time": 69.1340909090909,
                "end_time": 69.2840909090909,
                "pitch": 65,
                "velocity": 51,
                "duration": 0.15000000000000568,
                "tempo": 120.0
            },
            {
                "start_time": 69.3340909090909,
                "end_time": 69.48636363636363,
                "pitch": 60,
                "velocity": 51,
                "duration": 0.1522727272727309,
                "tempo": 120.0
            },
            {
                "start_time": 69.53636363636363,
                "end_time": 69.68636363636364,
                "pitch": 57,
                "velocity": 51,
                "duration": 0.15000000000000568,
                "tempo": 120.0
            },
            {
                "start_time": 69.73636363636363,
                "end_time": 69.88636363636363,
                "pitch": 59,
                "velocity": 51,
                "duration": 0.14999999999999147,
                "tempo": 120.0
            },
            {
                "start_time": 69.93636363636364,
                "end_time": 70.08636363636363,
                "pitch": 62,
                "velocity": 51,
                "duration": 0.14999999999999147,
                "tempo": 120.0
            },
            {
                "start_time": 70.13636363636363,
                "end_time": 70.28863636363636,
                "pitch": 67,
                "velocity": 51,
                "duration": 0.1522727272727309,
                "tempo": 120.0
            },
            {
                "start_time": 70.33863636363635,
                "end_time": 70.48863636363636,
                "pitch": 62,
                "velocity": 51,
                "duration": 0.15000000000000568,
                "tempo": 120.0
            },
            {
                "start_time": 70.54090909090908,
                "end_time": 122.09318181818182,
                "pitch": 60,
                "velocity": 51,
                "duration": 51.55227272727274,
                "tempo": 120.0
            },
            {
                "start_time": 122.74090909090908,
                "end_time": 122.89090909090909,
                "pitch": 71,
                "velocity": 32,
                "duration": 0.15000000000000568,
                "tempo": 120.0
            },
            {
                "start_time": 122.94090909090909,
                "end_time": 123.09090909090908,
                "pitch": 68,
                "velocity": 32,
                "duration": 0.14999999999999147,
                "tempo": 120.0
            },
            {
                "start_time": 123.14090909090909,
                "end_time": 123.29318181818181,
                "pitch": 65,
                "velocity": 32,
                "duration": 0.15227272727271668,
                "tempo": 120.0
            },
            {
                "start_time": 123.34318181818182,
                "end_time": 123.49318181818181,
                "pitch": 62,
                "velocity": 32,
                "duration": 0.14999999999999147,
                "tempo": 120.0
            },
            {
                "start_time": 123.54545454545453,
                "end_time": 123.69545454545454,
                "pitch": 60,
                "velocity": 32,
                "duration": 0.15000000000000568,
                "tempo": 120.0
            },
            {
                "start_time": 124.34772727272727,
                "end_time": 124.49772727272726,
                "pitch": 71,
                "velocity": 32,
                "duration": 0.14999999999999147,
                "tempo": 120.0
            },
            {
                "start_time": 124.54772727272727,
                "end_time": 124.69999999999999,
                "pitch": 68,
                "velocity": 32,
                "duration": 0.15227272727271668,
                "tempo": 120.0
            },
            {
                "start_time": 124.75,
                "end_time": 124.89999999999999,
                "pitch": 65,
                "velocity": 32,
                "duration": 0.14999999999999147,
                "tempo": 120.0
            },
            {
                "start_time": 124.94999999999999,
                "end_time": 125.1,
                "pitch": 62,
                "velocity": 32,
                "duration": 0.15000000000000568,
                "tempo": 120.0
            },
            {
                "start_time": 125.14999999999999,
                "end_time": 125.3,
                "pitch": 63,
                "velocity": 32,
                "duration": 0.15000000000000568,
                "tempo": 120.0
            },
            {
                "start_time": 125.95454545454545,
                "end_time": 126.05454545454545,
                "pitch": 65,
                "velocity": 32,
                "duration": 0.09999999999999432,
                "tempo": 120.0
            },
            {
                "start_time": 126.08863636363635,
                "end_time": 126.18863636363636,
                "pitch": 74,
                "velocity": 32,
                "duration": 0.10000000000000853,
                "tempo": 120.0
            },
            {
                "start_time": 126.22272727272727,
                "end_time": 126.32272727272726,
                "pitch": 72,
                "velocity": 32,
                "duration": 0.09999999999999432,
                "tempo": 120.0
            },
            {
                "start_time": 126.35454545454544,
                "end_time": 126.45681818181818,
                "pitch": 71,
                "velocity": 32,
                "duration": 0.10227272727273373,
                "tempo": 120.0
            },
            {
                "start_time": 126.48863636363636,
                "end_time": 126.59090909090908,
                "pitch": 68,
                "velocity": 32,
                "duration": 0.10227272727271952,
                "tempo": 120.0
            },
            {
                "start_time": 126.62272727272726,
                "end_time": 126.725,
                "pitch": 67,
                "velocity": 32,
                "duration": 0.10227272727273373,
                "tempo": 120.0
            },
            {
                "start_time": 126.7590909090909,
                "end_time": 126.9090909090909,
                "pitch": 63,
                "velocity": 32,
                "duration": 0.15000000000000568,
                "tempo": 120.0
            },
            {
                "start_time": 127.56136363636362,
                "end_time": 127.71136363636363,
                "pitch": 62,
                "velocity": 32,
                "duration": 0.15000000000000568,
                "tempo": 120.0
            },
            {
                "start_time": 128.36363636363635,
                "end_time": 129.0,
                "pitch": 60,
                "velocity": 32,
                "duration": 0.6363636363636545,
                "tempo": 120.0
            },
            {
                "start_time": 129.16590909090908,
                "end_time": 129.26590909090908,
                "pitch": 65,
                "velocity": 32,
                "duration": 0.09999999999999432,
                "tempo": 120.0
            },
            {
                "start_time": 129.29999999999998,
                "end_time": 129.4,
                "pitch": 67,
                "velocity": 32,
                "duration": 0.10000000000002274,
                "tempo": 120.0
            },
            {
                "start_time": 129.4340909090909,
                "end_time": 129.5340909090909,
                "pitch": 68,
                "velocity": 32,
                "duration": 0.09999999999999432,
                "tempo": 120.0
            },
            {
                "start_time": 129.5681818181818,
                "end_time": 129.67045454545453,
                "pitch": 71,
                "velocity": 32,
                "duration": 0.10227272727271952,
                "tempo": 120.0
            },
            {
                "start_time": 129.7022727272727,
                "end_time": 129.80454545454546,
                "pitch": 72,
                "velocity": 32,
                "duration": 0.10227272727274794,
                "tempo": 120.0
            },
            {
                "start_time": 129.83636363636364,
                "end_time": 129.93863636363636,
                "pitch": 74,
                "velocity": 32,
                "duration": 0.10227272727271952,
                "tempo": 120.0
            },
            {
                "start_time": 129.97045454545454,
                "end_time": 130.60681818181817,
                "pitch": 72,
                "velocity": 32,
                "duration": 0.636363636363626,
                "tempo": 120.0
            },
            {
                "start_time": 130.775,
                "end_time": 130.8590909090909,
                "pitch": 86,
                "velocity": 32,
                "duration": 0.08409090909088945,
                "tempo": 120.0
            },
            {
                "start_time": 130.875,
                "end_time": 130.9590909090909,
                "pitch": 84,
                "velocity": 32,
                "duration": 0.08409090909088945,
                "tempo": 120.0
            },
            {
                "start_time": 130.975,
                "end_time": 131.0590909090909,
                "pitch": 83,
                "velocity": 32,
                "duration": 0.08409090909091788,
                "tempo": 120.0
            },
            {
                "start_time": 131.075,
                "end_time": 131.1590909090909,
                "pitch": 81,
                "velocity": 32,
                "duration": 0.08409090909091788,
                "tempo": 120.0
            },
            {
                "start_time": 131.1772727272727,
                "end_time": 131.26136363636363,
                "pitch": 79,
                "velocity": 32,
                "duration": 0.08409090909091788,
                "tempo": 120.0
            },
            {
                "start_time": 131.27727272727273,
                "end_time": 131.36136363636362,
                "pitch": 77,
                "velocity": 32,
                "duration": 0.08409090909088945,
                "tempo": 120.0
            },
            {
                "start_time": 131.37727272727273,
                "end_time": 131.46136363636364,
                "pitch": 75,
                "velocity": 32,
                "duration": 0.08409090909091788,
                "tempo": 120.0
            },
            {
                "start_time": 131.47954545454544,
                "end_time": 131.56363636363636,
                "pitch": 74,
                "velocity": 32,
                "duration": 0.08409090909091788,
                "tempo": 120.0
            },
            {
                "start_time": 131.57954545454544,
                "end_time": 132.21818181818182,
                "pitch": 75,
                "velocity": 32,
                "duration": 0.6386363636363797,
                "tempo": 120.0
            },
            {
                "start_time": 132.3840909090909,
                "end_time": 133.02045454545453,
                "pitch": 74,
                "velocity": 32,
                "duration": 0.636363636363626,
                "tempo": 120.0
            },
            {
                "start_time": 133.18863636363636,
                "end_time": 133.825,
                "pitch": 72,
                "velocity": 32,
                "duration": 0.636363636363626,
                "tempo": 120.0
            },
            {
                "start_time": 133.99318181818182,
                "end_time": 134.09318181818182,
                "pitch": 71,
                "velocity": 32,
                "duration": 0.09999999999999432,
                "tempo": 120.0
            },
            {
                "start_time": 134.12727272727273,
                "end_time": 134.22727272727272,
                "pitch": 65,
                "velocity": 32,
                "duration": 0.09999999999999432,
                "tempo": 120.0
            },
            {
                "start_time": 134.26136363636363,
                "end_time": 134.36136363636362,
                "pitch": 71,
                "velocity": 32,
                "duration": 0.09999999999999432,
                "tempo": 120.0
            },
            {
                "start_time": 134.39545454545453,
                "end_time": 134.49318181818182,
                "pitch": 65,
                "velocity": 32,
                "duration": 0.09772727272729753,
                "tempo": 120.0
            },
            {
                "start_time": 134.525,
                "end_time": 134.625,
                "pitch": 71,
                "velocity": 32,
                "duration": 0.09999999999999432,
                "tempo": 120.0
            },
            {
                "start_time": 134.65681818181818,
                "end_time": 134.75454545454545,
                "pitch": 65,
                "velocity": 32,
                "duration": 0.09772727272726911,
                "tempo": 120.0
            },
            {
                "start_time": 134.78863636363636,
                "end_time": 134.9409090909091,
                "pitch": 76,
                "velocity": 32,
                "duration": 0.1522727272727309,
                "tempo": 120.0
            },
            {
                "start_time": 135.6,
                "end_time": 135.92045454545453,
                "pitch": 68,
                "velocity": 32,
                "duration": 0.3204545454545382,
                "tempo": 120.0
            },
            {
                "start_time": 136.00454545454545,
                "end_time": 136.32272727272726,
                "pitch": 71,
                "velocity": 32,
                "duration": 0.318181818181813,
                "tempo": 120.0
            },
            {
                "start_time": 136.40681818181818,
                "end_time": 136.5568181818182,
                "pitch": 72,
                "velocity": 32,
                "duration": 0.15000000000000568,
                "tempo": 120.0
            },
            {
                "start_time": 137.2090909090909,
                "end_time": 137.52727272727273,
                "pitch": 65,
                "velocity": 32,
                "duration": 0.31818181818184144,
                "tempo": 120.0
            },
            {
                "start_time": 137.61136363636362,
                "end_time": 137.71363636363637,
                "pitch": 74,
                "velocity": 32,
                "duration": 0.10227272727274794,
                "tempo": 120.0
            },
            {
                "start_time": 137.74545454545455,
                "end_time": 137.84772727272727,
                "pitch": 72,
                "velocity": 32,
                "duration": 0.10227272727271952,
                "tempo": 120.0
            },
            {
                "start_time": 137.87954545454545,
                "end_time": 137.98181818181817,
                "pitch": 69,
                "velocity": 32,
                "duration": 0.10227272727271952,
                "tempo": 120.0
            },
            {
                "start_time": 138.01363636363635,
                "end_time": 138.16590909090908,
                "pitch": 76,
                "velocity": 32,
                "duration": 0.1522727272727309,
                "tempo": 120.0
            },
            {
                "start_time": 138.4181818181818,
                "end_time": 138.5681818181818,
                "pitch": 74,
                "velocity": 32,
                "duration": 0.15000000000000568,
                "tempo": 120.0
            },
            {
                "start_time": 138.61818181818182,
                "end_time": 138.7681818181818,
                "pitch": 72,
                "velocity": 32,
                "duration": 0.14999999999997726,
                "tempo": 120.0
            },
            {
                "start_time": 138.8181818181818,
                "end_time": 138.9181818181818,
                "pitch": 71,
                "velocity": 32,
                "duration": 0.09999999999999432,
                "tempo": 120.0
            },
            {
                "start_time": 138.9522727272727,
                "end_time": 139.0522727272727,
                "pitch": 69,
                "velocity": 32,
                "duration": 0.09999999999999432,
                "tempo": 120.0
            },
            {
                "start_time": 139.08636363636364,
                "end_time": 139.18636363636364,
                "pitch": 68,
                "velocity": 32,
                "duration": 0.09999999999999432,
                "tempo": 120.0
            },
            {
                "start_time": 139.22045454545454,
                "end_time": 139.32045454545454,
                "pitch": 65,
                "velocity": 32,
                "duration": 0.09999999999999432,
                "tempo": 120.0
            },
            {
                "start_time": 139.35454545454544,
                "end_time": 139.45454545454544,
                "pitch": 64,
                "velocity": 32,
                "duration": 0.09999999999999432,
                "tempo": 120.0
            },
            {
                "start_time": 139.48863636363635,
                "end_time": 139.58863636363637,
                "pitch": 62,
                "velocity": 32,
                "duration": 0.10000000000002274,
                "tempo": 120.0
            },
            {
                "start_time": 139.62272727272727,
                "end_time": 139.9409090909091,
                "pitch": 72,
                "velocity": 32,
                "duration": 0.318181818181813,
                "tempo": 120.0
            },
            {
                "start_time": 140.025,
                "end_time": 140.125,
                "pitch": 57,
                "velocity": 32,
                "duration": 0.09999999999999432,
                "tempo": 120.0
            },
            {
                "start_time": 140.1590909090909,
                "end_time": 140.2590909090909,
                "pitch": 59,
                "velocity": 32,
                "duration": 0.09999999999999432,
                "tempo": 120.0
            },
            {
                "start_time": 140.2931818181818,
                "end_time": 140.39545454545453,
                "pitch": 60,
                "velocity": 32,
                "duration": 0.10227272727271952,
                "tempo": 120.0
            },
            {
                "start_time": 140.4272727272727,
                "end_time": 140.74545454545455,
                "pitch": 71,
                "velocity": 32,
                "duration": 0.31818181818184144,
                "tempo": 120.0
            },
            {
                "start_time": 140.8272727272727,
                "end_time": 140.91136363636363,
                "pitch": 59,
                "velocity": 32,
                "duration": 0.08409090909091788,
                "tempo": 120.0
            },
            {
                "start_time": 140.92954545454546,
                "end_time": 141.01363636363635,
                "pitch": 60,
                "velocity": 32,
                "duration": 0.08409090909088945,
                "tempo": 120.0
            },
            {
                "start_time": 141.02954545454546,
                "end_time": 141.11363636363635,
                "pitch": 62,
                "velocity": 32,
                "duration": 0.08409090909088945,
                "tempo": 120.0
            },
            {
                "start_time": 141.12954545454545,
                "end_time": 141.21363636363637,
                "pitch": 65,
                "velocity": 32,
                "duration": 0.08409090909091788,
                "tempo": 120.0
            },
            {
                "start_time": 141.22954545454544,
                "end_time": 141.54999999999998,
                "pitch": 69,
                "velocity": 32,
                "duration": 0.3204545454545382,
                "tempo": 120.0
            },
            {
                "start_time": 141.6340909090909,
                "end_time": 141.7840909090909,
                "pitch": 71,
                "velocity": 32,
                "duration": 0.15000000000000568,
                "tempo": 120.0
            },
            {
                "start_time": 141.8340909090909,
                "end_time": 141.98636363636362,
                "pitch": 72,
                "velocity": 32,
                "duration": 0.1522727272727309,
                "tempo": 120.0
            },
            {
                "start_time": 142.03636363636363,
                "end_time": 142.12045454545455,
                "pitch": 74,
                "velocity": 32,
                "duration": 0.08409090909091788,
                "tempo": 120.0
            },
            {
                "start_time": 142.13636363636363,
                "end_time": 142.22045454545454,
                "pitch": 72,
                "velocity": 32,
                "duration": 0.08409090909091788,
                "tempo": 120.0
            },
            {
                "start_time": 142.23636363636362,
                "end_time": 142.32045454545454,
                "pitch": 71,
                "velocity": 32,
                "duration": 0.08409090909091788,
                "tempo": 120.0
            },
            {
                "start_time": 142.33863636363637,
                "end_time": 142.42272727272726,
                "pitch": 69,
                "velocity": 32,
                "duration": 0.08409090909088945,
                "tempo": 120.0
            },
            {
                "start_time": 142.43863636363636,
                "end_time": 142.52272727272725,
                "pitch": 62,
                "velocity": 32,
                "duration": 0.08409090909088945,
                "tempo": 120.0
            },
            {
                "start_time": 142.53863636363636,
                "end_time": 142.62272727272727,
                "pitch": 64,
                "velocity": 32,
                "duration": 0.08409090909091788,
                "tempo": 120.0
            },
            {
                "start_time": 142.63863636363635,
                "end_time": 142.72272727272727,
                "pitch": 65,
                "velocity": 32,
                "duration": 0.08409090909091788,
                "tempo": 120.0
            },
            {
                "start_time": 142.73863636363635,
                "end_time": 142.82272727272726,
                "pitch": 68,
                "velocity": 32,
                "duration": 0.08409090909091788,
                "tempo": 120.0
            },
            {
                "start_time": 142.83863636363637,
                "end_time": 142.92272727272726,
                "pitch": 69,
                "velocity": 32,
                "duration": 0.08409090909088945,
                "tempo": 120.0
            },
            {
                "start_time": 142.93863636363636,
                "end_time": 143.02272727272725,
                "pitch": 71,
                "velocity": 32,
                "duration": 0.08409090909088945,
                "tempo": 120.0
            },
            {
                "start_time": 143.04090909090908,
                "end_time": 143.125,
                "pitch": 72,
                "velocity": 32,
                "duration": 0.08409090909091788,
                "tempo": 120.0
            },
            {
                "start_time": 143.14090909090908,
                "end_time": 143.225,
                "pitch": 74,
                "velocity": 32,
                "duration": 0.08409090909091788,
                "tempo": 120.0
            },
            {
                "start_time": 143.24090909090907,
                "end_time": 143.325,
                "pitch": 76,
                "velocity": 32,
                "duration": 0.08409090909091788,
                "tempo": 120.0
            },
            {
                "start_time": 143.34318181818182,
                "end_time": 143.42499999999998,
                "pitch": 77,
                "velocity": 32,
                "duration": 0.08181818181816425,
                "tempo": 120.0
            },
            {
                "start_time": 143.4431818181818,
                "end_time": 143.52727272727273,
                "pitch": 80,
                "velocity": 32,
                "duration": 0.08409090909091788,
                "tempo": 120.0
            },
            {
                "start_time": 143.5431818181818,
                "end_time": 143.62727272727273,
                "pitch": 81,
                "velocity": 32,
                "duration": 0.08409090909091788,
                "tempo": 120.0
            },
            {
                "start_time": 143.6431818181818,
                "end_time": 143.72727272727272,
                "pitch": 83,
                "velocity": 32,
                "duration": 0.08409090909091788,
                "tempo": 120.0
            },
            {
                "start_time": 143.74545454545455,
                "end_time": 143.82954545454544,
                "pitch": 81,
                "velocity": 32,
                "duration": 0.08409090909088945,
                "tempo": 120.0
            },
            {
                "start_time": 143.84545454545454,
                "end_time": 143.92954545454543,
                "pitch": 80,
                "velocity": 32,
                "duration": 0.08409090909088945,
                "tempo": 120.0
            },
            {
                "start_time": 143.94545454545454,
                "end_time": 144.09772727272727,
                "pitch": 77,
                "velocity": 32,
                "duration": 0.1522727272727309,
                "tempo": 120.0
            },
            {
                "start_time": 144.14772727272725,
                "end_time": 144.23181818181817,
                "pitch": 80,
                "velocity": 32,
                "duration": 0.08409090909091788,
                "tempo": 120.0
            },
            {
                "start_time": 144.24772727272727,
                "end_time": 144.33181818181816,
                "pitch": 77,
                "velocity": 32,
                "duration": 0.08409090909088945,
                "tempo": 120.0
            },
            {
                "start_time": 144.34772727272727,
                "end_time": 144.4318181818182,
                "pitch": 76,
                "velocity": 32,
                "duration": 0.08409090909091788,
                "tempo": 120.0
            },
            {
                "start_time": 144.45,
                "end_time": 144.54999999999998,
                "pitch": 81,
                "velocity": 32,
                "duration": 0.09999999999999432,
                "tempo": 120.0
            },
            {
                "start_time": 144.58181818181816,
                "end_time": 144.6818181818182,
                "pitch": 72,
                "velocity": 32,
                "duration": 0.10000000000002274,
                "tempo": 120.0
            },
            {
                "start_time": 144.7159090909091,
                "end_time": 144.8159090909091,
                "pitch": 81,
                "velocity": 32,
                "duration": 0.09999999999999432,
                "tempo": 120.0
            },
            {
                "start_time": 144.85,
                "end_time": 144.95,
                "pitch": 72,
                "velocity": 32,
                "duration": 0.09999999999999432,
                "tempo": 120.0
            },
            {
                "start_time": 144.9840909090909,
                "end_time": 145.0840909090909,
                "pitch": 81,
                "velocity": 32,
                "duration": 0.09999999999999432,
                "tempo": 120.0
            },
            {
                "start_time": 145.11818181818182,
                "end_time": 145.21818181818182,
                "pitch": 72,
                "velocity": 32,
                "duration": 0.09999999999999432,
                "tempo": 120.0
            },
            {
                "start_time": 145.25227272727273,
                "end_time": 145.40227272727273,
                "pitch": 74,
                "velocity": 32,
                "duration": 0.15000000000000568,
                "tempo": 120.0
            },
            {
                "start_time": 145.45454545454544,
                "end_time": 145.60454545454544,
                "pitch": 71,
                "velocity": 32,
                "duration": 0.15000000000000568,
                "tempo": 120.0
            },
            {
                "start_time": 145.65454545454546,
                "end_time": 145.8068181818182,
                "pitch": 74,
                "velocity": 32,
                "duration": 0.1522727272727309,
                "tempo": 120.0
            },
            {
                "start_time": 145.85681818181817,
                "end_time": 146.00681818181818,
                "pitch": 71,
                "velocity": 32,
                "duration": 0.15000000000000568,
                "tempo": 120.0
            },
            {
                "start_time": 146.0568181818182,
                "end_time": 146.2090909090909,
                "pitch": 57,
                "velocity": 32,
                "duration": 0.15227272727270247,
                "tempo": 120.0
            },
            {
                "start_time": 146.4590909090909,
                "end_time": 146.6090909090909,
                "pitch": 57,
                "velocity": 32,
                "duration": 0.15000000000000568,
                "tempo": 120.0
            },
            {
                "start_time": 146.8590909090909,
                "end_time": 147.01136363636363,
                "pitch": 55,
                "velocity": 32,
                "duration": 0.1522727272727309,
                "tempo": 120.0
            },
            {
                "start_time": 148.0681818181818,
                "end_time": 148.38636363636363,
                "pitch": 81,
                "velocity": 51,
                "duration": 0.318181818181813,
                "tempo": 120.0
            },
            {
                "start_time": 148.47045454545454,
                "end_time": 148.78863636363636,
                "pitch": 79,
                "velocity": 51,
                "duration": 0.318181818181813,
                "tempo": 120.0
            },
            {
                "start_time": 149.27272727272725,
                "end_time": 149.42499999999998,
                "pitch": 66,
                "velocity": 51,
                "duration": 0.1522727272727309,
                "tempo": 120.0
            },
            {
                "start_time": 149.475,
                "end_time": 149.625,
                "pitch": 62,
                "velocity": 51,
                "duration": 0.15000000000000568,
                "tempo": 120.0
            },
            {
                "start_time": 149.6772727272727,
                "end_time": 149.8272727272727,
                "pitch": 66,
                "velocity": 51,
                "duration": 0.15000000000000568,
                "tempo": 120.0
            },
            {
                "start_time": 149.87727272727273,
                "end_time": 150.19545454545454,
                "pitch": 64,
                "velocity": 51,
                "duration": 0.318181818181813,
                "tempo": 120.0
            },
            {
                "start_time": 150.48181818181817,
                "end_time": 150.63181818181818,
                "pitch": 66,
                "velocity": 51,
                "duration": 0.15000000000000568,
                "tempo": 120.0
            },
            {
                "start_time": 150.6818181818182,
                "end_time": 150.83181818181816,
                "pitch": 68,
                "velocity": 51,
                "duration": 0.14999999999997726,
                "tempo": 120.0
            },
            {
                "start_time": 151.2840909090909,
                "end_time": 151.60227272727272,
                "pitch": 81,
                "velocity": 51,
                "duration": 0.318181818181813,
                "tempo": 120.0
            },
            {
                "start_time": 151.68636363636364,
                "end_time": 152.00681818181818,
                "pitch": 79,
                "velocity": 51,
                "duration": 0.3204545454545382,
                "tempo": 120.0
            },
            {
                "start_time": 152.49318181818182,
                "end_time": 152.6431818181818,
                "pitch": 57,
                "velocity": 51,
                "duration": 0.14999999999997726,
                "tempo": 120.0
            },
            {
                "start_time": 152.6931818181818,
                "end_time": 152.84318181818182,
                "pitch": 65,
                "velocity": 51,
                "duration": 0.15000000000000568,
                "tempo": 120.0
            },
            {
                "start_time": 152.8931818181818,
                "end_time": 153.0431818181818,
                "pitch": 60,
                "velocity": 51,
                "duration": 0.15000000000000568,
                "tempo": 120.0
            },
            {
                "start_time": 153.09318181818182,
                "end_time": 153.24545454545455,
                "pitch": 57,
                "velocity": 51,
                "duration": 0.1522727272727309,
                "tempo": 120.0
            },
            {
                "start_time": 153.29545454545453,
                "end_time": 153.44545454545454,
                "pitch": 56,
                "velocity": 51,
                "duration": 0.15000000000000568,
                "tempo": 120.0
            },
            {
                "start_time": 153.49545454545455,
                "end_time": 153.64772727272725,
                "pitch": 59,
                "velocity": 51,
                "duration": 0.15227272727270247,
                "tempo": 120.0
            },
            {
                "start_time": 153.69772727272726,
                "end_time": 153.84772727272727,
                "pitch": 64,
                "velocity": 51,
                "duration": 0.15000000000000568,
                "tempo": 120.0
            },
            {
                "start_time": 153.9,
                "end_time": 154.04999999999998,
                "pitch": 59,
                "velocity": 51,
                "duration": 0.14999999999997726,
                "tempo": 120.0
            },
            {
                "start_time": 154.50227272727273,
                "end_time": 154.82045454545454,
                "pitch": 81,
                "velocity": 51,
                "duration": 0.318181818181813,
                "tempo": 120.0
            },
            {
                "start_time": 154.90227272727273,
                "end_time": 155.22272727272727,
                "pitch": 79,
                "velocity": 51,
                "duration": 0.3204545454545382,
                "tempo": 120.0
            },
            {
                "start_time": 155.7090909090909,
                "end_time": 155.8590909090909,
                "pitch": 66,
                "velocity": 51,
                "duration": 0.15000000000000568,
                "tempo": 120.0
            },
            {
                "start_time": 155.9090909090909,
                "end_time": 156.06136363636364,
                "pitch": 62,
                "velocity": 51,
                "duration": 0.1522727272727309,
                "tempo": 120.0
            },
            {
                "start_time": 156.11136363636362,
                "end_time": 156.26136363636363,
                "pitch": 66,
                "velocity": 51,
                "duration": 0.15000000000000568,
                "tempo": 120.0
            },
            {
                "start_time": 156.31363636363636,
                "end_time": 156.6340909090909,
                "pitch": 64,
                "velocity": 51,
                "duration": 0.3204545454545382,
                "tempo": 120.0
            },
            {
                "start_time": 156.92499999999998,
                "end_time": 157.07272727272726,
                "pitch": 66,
                "velocity": 51,
                "duration": 0.14772727272728048,
                "tempo": 120.0
            },
            {
                "start_time": 157.12045454545455,
                "end_time": 157.2681818181818,
                "pitch": 68,
                "velocity": 51,
                "duration": 0.14772727272725206,
                "tempo": 120.0
            },
            {
                "start_time": 157.72045454545454,
                "end_time": 158.03863636363636,
                "pitch": 81,
                "velocity": 51,
                "duration": 0.318181818181813,
                "tempo": 120.0
            },
            {
                "start_time": 158.12272727272727,
                "end_time": 158.4409090909091,
                "pitch": 79,
                "velocity": 51,
                "duration": 0.318181818181813,
                "tempo": 120.0
            },
            {
                "start_time": 158.92499999999998,
                "end_time": 159.075,
                "pitch": 57,
                "velocity": 51,
                "duration": 0.15000000000000568,
                "tempo": 120.0
            },
            {
                "start_time": 159.12727272727273,
                "end_time": 159.27727272727273,
                "pitch": 65,
                "velocity": 51,
                "duration": 0.15000000000000568,
                "tempo": 120.0
            },
            {
                "start_time": 159.3272727272727,
                "end_time": 159.47954545454544,
                "pitch": 60,
                "velocity": 51,
                "duration": 0.1522727272727309,
                "tempo": 120.0
            },
            {
                "start_time": 159.52954545454546,
                "end_time": 159.67954545454543,
                "pitch": 57,
                "velocity": 51,
                "duration": 0.14999999999997726,
                "tempo": 120.0
            },
            {
                "start_time": 159.72954545454544,
                "end_time": 159.88181818181818,
                "pitch": 59,
                "velocity": 51,
                "duration": 0.1522727272727309,
                "tempo": 120.0
            },
            {
                "start_time": 159.9318181818182,
                "end_time": 160.08181818181816,
                "pitch": 62,
                "velocity": 51,
                "duration": 0.14999999999997726,
                "tempo": 120.0
            },
            {
                "start_time": 160.13181818181818,
                "end_time": 160.2840909090909,
                "pitch": 67,
                "velocity": 51,
                "duration": 0.1522727272727309,
                "tempo": 120.0
            },
            {
                "start_time": 160.3340909090909,
                "end_time": 160.53636363636363,
                "pitch": 62,
                "velocity": 51,
                "duration": 0.20227272727274226,
                "tempo": 120.0
            }
        ],
        "Violin": [
            {
                "start_time": 6.3977272727272725,
                "end_time": 84.02954545454546,
                "pitch": 60,
                "velocity": 4,
                "duration": 77.63181818181819,
                "tempo": 120.0
            },
            {
                "start_time": 84.2,
                "end_time": 84.8340909090909,
                "pitch": 62,
                "velocity": 101,
                "duration": 0.6340909090909008,
                "tempo": 120.0
            },
            {
                "start_time": 85.00227272727273,
                "end_time": 85.63863636363637,
                "pitch": 63,
                "velocity": 101,
                "duration": 0.6363636363636402,
                "tempo": 120.0
            },
            {
                "start_time": 85.80454545454545,
                "end_time": 86.43636363636364,
                "pitch": 65,
                "velocity": 101,
                "duration": 0.6318181818181898,
                "tempo": 120.0
            },
            {
                "start_time": 86.6,
                "end_time": 87.24090909090908,
                "pitch": 60,
                "velocity": 101,
                "duration": 0.6409090909090907,
                "tempo": 120.0
            },
            {
                "start_time": 87.41136363636363,
                "end_time": 88.04545454545455,
                "pitch": 62,
                "velocity": 101,
                "duration": 0.634090909090915,
                "tempo": 120.0
            },
            {
                "start_time": 88.21363636363635,
                "end_time": 88.84772727272727,
                "pitch": 63,
                "velocity": 101,
                "duration": 0.634090909090915,
                "tempo": 120.0
            },
            {
                "start_time": 89.01590909090909,
                "end_time": 89.64318181818182,
                "pitch": 65,
                "velocity": 101,
                "duration": 0.6272727272727252,
                "tempo": 120.0
            },
            {
                "start_time": 89.81136363636364,
                "end_time": 89.89545454545454,
                "pitch": 65,
                "velocity": 101,
                "duration": 0.08409090909090366,
                "tempo": 120.0
            },
            {
                "start_time": 89.91136363636363,
                "end_time": 89.99545454545454,
                "pitch": 67,
                "velocity": 101,
                "duration": 0.08409090909090366,
                "tempo": 120.0
            },
            {
                "start_time": 90.01136363636363,
                "end_time": 90.09545454545454,
                "pitch": 65,
                "velocity": 101,
                "duration": 0.08409090909091788,
                "tempo": 120.0
            },
            {
                "start_time": 90.11136363636363,
                "end_time": 90.19545454545454,
                "pitch": 63,
                "velocity": 101,
                "duration": 0.08409090909090366,
                "tempo": 120.0
            },
            {
                "start_time": 90.21136363636363,
                "end_time": 90.29772727272727,
                "pitch": 65,
                "velocity": 101,
                "duration": 0.08636363636364308,
                "tempo": 120.0
            },
            {
                "start_time": 90.31363636363636,
                "end_time": 90.39999999999999,
                "pitch": 63,
                "velocity": 101,
                "duration": 0.08636363636362887,
                "tempo": 120.0
            },
            {
                "start_time": 90.41590909090908,
                "end_time": 90.50227272727273,
                "pitch": 62,
                "velocity": 101,
                "duration": 0.08636363636364308,
                "tempo": 120.0
            },
            {
                "start_time": 90.52045454545454,
                "end_time": 90.60454545454544,
                "pitch": 63,
                "velocity": 101,
                "duration": 0.08409090909090366,
                "tempo": 120.0
            },
            {
                "start_time": 90.62272727272727,
                "end_time": 90.70681818181818,
                "pitch": 62,
                "velocity": 101,
                "duration": 0.08409090909090366,
                "tempo": 120.0
            },
            {
                "start_time": 90.72272727272727,
                "end_time": 90.80681818181817,
                "pitch": 60,
                "velocity": 101,
                "duration": 0.08409090909090366,
                "tempo": 120.0
            },
            {
                "start_time": 90.82272727272726,
                "end_time": 90.90681818181818,
                "pitch": 62,
                "velocity": 101,
                "duration": 0.08409090909091788,
                "tempo": 120.0
            },
            {
                "start_time": 90.925,
                "end_time": 91.0090909090909,
                "pitch": 63,
                "velocity": 101,
                "duration": 0.08409090909090366,
                "tempo": 120.0
            },
            {
                "start_time": 91.02499999999999,
                "end_time": 91.10909090909091,
                "pitch": 65,
                "velocity": 101,
                "duration": 0.08409090909091788,
                "tempo": 120.0
            },
            {
                "start_time": 91.125,
                "end_time": 91.2090909090909,
                "pitch": 67,
                "velocity": 101,
                "duration": 0.08409090909090366,
                "tempo": 120.0
            },
            {
                "start_time": 91.22727272727272,
                "end_time": 91.31136363636364,
                "pitch": 68,
                "velocity": 101,
                "duration": 0.08409090909091788,
                "tempo": 120.0
            },
            {
                "start_time": 91.32727272727273,
                "end_time": 91.41136363636363,
                "pitch": 70,
                "velocity": 101,
                "duration": 0.08409090909090366,
                "tempo": 120.0
            },
            {
                "start_time": 91.42727272727272,
                "end_time": 91.5090909090909,
                "pitch": 67,
                "velocity": 101,
                "duration": 0.08181818181817846,
                "tempo": 120.0
            },
            {
                "start_time": 91.52499999999999,
                "end_time": 91.60681818181818,
                "pitch": 68,
                "velocity": 101,
                "duration": 0.08181818181819267,
                "tempo": 120.0
            },
            {
                "start_time": 91.62272727272727,
                "end_time": 91.70454545454545,
                "pitch": 67,
                "velocity": 101,
                "duration": 0.08181818181817846,
                "tempo": 120.0
            },
            {
                "start_time": 91.72272727272727,
                "end_time": 91.80454545454545,
                "pitch": 65,
                "velocity": 101,
                "duration": 0.08181818181817846,
                "tempo": 120.0
            },
            {
                "start_time": 91.82045454545454,
                "end_time": 91.90454545454546,
                "pitch": 67,
                "velocity": 101,
                "duration": 0.08409090909091788,
                "tempo": 120.0
            },
            {
                "start_time": 91.92272727272727,
                "end_time": 92.00681818181818,
                "pitch": 65,
                "velocity": 101,
                "duration": 0.08409090909090366,
                "tempo": 120.0
            },
            {
                "start_time": 92.02499999999999,
                "end_time": 92.11136363636363,
                "pitch": 63,
                "velocity": 101,
                "duration": 0.08636363636364308,
                "tempo": 120.0
            },
            {
                "start_time": 92.12727272727273,
                "end_time": 92.21363636363635,
                "pitch": 65,
                "velocity": 101,
                "duration": 0.08636363636362887,
                "tempo": 120.0
            },
            {
                "start_time": 92.22954545454544,
                "end_time": 92.31363636363636,
                "pitch": 63,
                "velocity": 101,
                "duration": 0.08409090909091788,
                "tempo": 120.0
            },
            {
                "start_time": 92.32954545454545,
                "end_time": 92.41363636363636,
                "pitch": 62,
                "velocity": 101,
                "duration": 0.08409090909090366,
                "tempo": 120.0
            },
            {
                "start_time": 92.42954545454545,
                "end_time": 92.51363636363637,
                "pitch": 63,
                "velocity": 101,
                "duration": 0.08409090909091788,
                "tempo": 120.0
            },
            {
                "start_time": 92.52954545454546,
                "end_time": 92.61363636363636,
                "pitch": 65,
                "velocity": 101,
                "duration": 0.08409090909090366,
                "tempo": 120.0
            },
            {
                "start_time": 92.62954545454545,
                "end_time": 92.71136363636363,
                "pitch": 67,
                "velocity": 101,
                "duration": 0.08181818181817846,
                "tempo": 120.0
            },
            {
                "start_time": 92.72954545454544,
                "end_time": 92.81136363636364,
                "pitch": 68,
                "velocity": 101,
                "duration": 0.08181818181819267,
                "tempo": 120.0
            },
            {
                "start_time": 92.82727272727273,
                "end_time": 92.9090909090909,
                "pitch": 70,
                "velocity": 101,
                "duration": 0.08181818181817846,
                "tempo": 120.0
            },
            {
                "start_time": 92.925,
                "end_time": 93.00681818181818,
                "pitch": 72,
                "velocity": 101,
                "duration": 0.08181818181817846,
                "tempo": 120.0
            },
            {
                "start_time": 93.02272727272727,
                "end_time": 93.10909090909091,
                "pitch": 68,
                "velocity": 101,
                "duration": 0.08636363636364308,
                "tempo": 120.0
            },
            {
                "start_time": 93.125,
                "end_time": 93.21136363636363,
                "pitch": 70,
                "velocity": 101,
                "duration": 0.08636363636362887,
                "tempo": 120.0
            },
            {
                "start_time": 93.22727272727272,
                "end_time": 93.31363636363636,
                "pitch": 68,
                "velocity": 101,
                "duration": 0.08636363636364308,
                "tempo": 120.0
            },
            {
                "start_time": 93.32954545454545,
                "end_time": 93.41590909090908,
                "pitch": 67,
                "velocity": 101,
                "duration": 0.08636363636362887,
                "tempo": 120.0
            },
            {
                "start_time": 93.4340909090909,
                "end_time": 93.51590909090909,
                "pitch": 68,
                "velocity": 101,
                "duration": 0.08181818181819267,
                "tempo": 120.0
            },
            {
                "start_time": 93.5340909090909,
                "end_time": 93.61590909090908,
                "pitch": 67,
                "velocity": 101,
                "duration": 0.08181818181817846,
                "tempo": 120.0
            },
            {
                "start_time": 93.6340909090909,
                "end_time": 93.71590909090908,
                "pitch": 65,
                "velocity": 101,
                "duration": 0.08181818181817846,
                "tempo": 120.0
            },
            {
                "start_time": 93.73409090909091,
                "end_time": 93.81590909090909,
                "pitch": 67,
                "velocity": 101,
                "duration": 0.08181818181817846,
                "tempo": 120.0
            },
            {
                "start_time": 93.8340909090909,
                "end_time": 93.91818181818181,
                "pitch": 68,
                "velocity": 101,
                "duration": 0.08409090909090366,
                "tempo": 120.0
            },
            {
                "start_time": 93.9340909090909,
                "end_time": 94.01818181818182,
                "pitch": 70,
                "velocity": 101,
                "duration": 0.08409090909091788,
                "tempo": 120.0
            },
            {
                "start_time": 94.0340909090909,
                "end_time": 94.11818181818181,
                "pitch": 72,
                "velocity": 101,
                "duration": 0.08409090909090366,
                "tempo": 120.0
            },
            {
                "start_time": 94.13636363636363,
                "end_time": 94.22045454545454,
                "pitch": 74,
                "velocity": 101,
                "duration": 0.08409090909091788,
                "tempo": 120.0
            },
            {
                "start_time": 94.23636363636363,
                "end_time": 94.32045454545454,
                "pitch": 75,
                "velocity": 101,
                "duration": 0.08409090909090366,
                "tempo": 120.0
            },
            {
                "start_time": 94.33636363636363,
                "end_time": 94.42045454545455,
                "pitch": 77,
                "velocity": 101,
                "duration": 0.08409090909091788,
                "tempo": 120.0
            },
            {
                "start_time": 94.43636363636364,
                "end_time": 94.52045454545454,
                "pitch": 79,
                "velocity": 101,
                "duration": 0.08409090909090366,
                "tempo": 120.0
            },
            {
                "start_time": 94.53636363636363,
                "end_time": 94.62045454545454,
                "pitch": 80,
                "velocity": 101,
                "duration": 0.08409090909090366,
                "tempo": 120.0
            },
            {
                "start_time": 94.63636363636363,
                "end_time": 94.94772727272726,
                "pitch": 72,
                "velocity": 101,
                "duration": 0.3113636363636374,
                "tempo": 120.0
            },
            {
                "start_time": 95.02727272727272,
                "end_time": 95.17954545454545,
                "pitch": 71,
                "velocity": 101,
                "duration": 0.1522727272727309,
                "tempo": 120.0
            },
            {
                "start_time": 95.22954545454544,
                "end_time": 95.31363636363636,
                "pitch": 68,
                "velocity": 101,
                "duration": 0.08409090909091788,
                "tempo": 120.0
            },
            {
                "start_time": 95.43181818181817,
                "end_time": 95.51590909090909,
                "pitch": 71,
                "velocity": 101,
                "duration": 0.08409090909091788,
                "tempo": 120.0
            },
            {
                "start_time": 95.63181818181818,
                "end_time": 95.71590909090908,
                "pitch": 72,
                "velocity": 101,
                "duration": 0.08409090909090366,
                "tempo": 120.0
            },
            {
                "start_time": 95.8340909090909,
                "end_time": 95.91818181818181,
                "pitch": 74,
                "velocity": 101,
                "duration": 0.08409090909090366,
                "tempo": 120.0
            },
            {
                "start_time": 96.03863636363636,
                "end_time": 96.125,
                "pitch": 71,
                "velocity": 101,
                "duration": 0.08636363636364308,
                "tempo": 120.0
            }
        ],
        "Lead 2 (sawtooth)": [
            {
                "start_time": 6.4840909090909085,
                "end_time": 6.572727272727272,
                "pitch": 55,
                "velocity": 32,
                "duration": 0.08863636363636385,
                "tempo": 120.0
            },
            {
                "start_time": 6.590909090909091,
                "end_time": 6.679545454545454,
                "pitch": 60,
                "velocity": 32,
                "duration": 0.08863636363636296,
                "tempo": 120.0
            },
            {
                "start_time": 6.695454545454545,
                "end_time": 6.784090909090909,
                "pitch": 55,
                "velocity": 32,
                "duration": 0.08863636363636385,
                "tempo": 120.0
            },
            {
                "start_time": 6.802272727272727,
                "end_time": 6.881818181818182,
                "pitch": 63,
                "velocity": 32,
                "duration": 0.07954545454545503,
                "tempo": 120.0
            },
            {
                "start_time": 6.8977272727272725,
                "end_time": 6.977272727272727,
                "pitch": 55,
                "velocity": 32,
                "duration": 0.07954545454545414,
                "tempo": 120.0
            },
            {
                "start_time": 6.993181818181818,
                "end_time": 7.072727272727272,
                "pitch": 63,
                "velocity": 32,
                "duration": 0.07954545454545414,
                "tempo": 120.0
            },
            {
                "start_time": 7.088636363636363,
                "end_time": 7.168181818181818,
                "pitch": 55,
                "velocity": 32,
                "duration": 0.07954545454545503,
                "tempo": 120.0
            },
            {
                "start_time": 7.184090909090909,
                "end_time": 7.268181818181818,
                "pitch": 62,
                "velocity": 32,
                "duration": 0.084090909090909,
                "tempo": 120.0
            },
            {
                "start_time": 7.284090909090909,
                "end_time": 7.368181818181818,
                "pitch": 53,
                "velocity": 32,
                "duration": 0.084090909090909,
                "tempo": 120.0
            },
            {
                "start_time": 7.384090909090909,
                "end_time": 7.468181818181818,
                "pitch": 60,
                "velocity": 32,
                "duration": 0.084090909090909,
                "tempo": 120.0
            },
            {
                "start_time": 7.4840909090909085,
                "end_time": 7.5681818181818175,
                "pitch": 53,
                "velocity": 32,
                "duration": 0.084090909090909,
                "tempo": 120.0
            },
            {
                "start_time": 7.584090909090909,
                "end_time": 7.668181818181818,
                "pitch": 63,
                "velocity": 32,
                "duration": 0.084090909090909,
                "tempo": 120.0
            },
            {
                "start_time": 7.684090909090909,
                "end_time": 7.768181818181818,
                "pitch": 53,
                "velocity": 32,
                "duration": 0.084090909090909,
                "tempo": 120.0
            },
            {
                "start_time": 7.786363636363636,
                "end_time": 7.870454545454545,
                "pitch": 63,
                "velocity": 32,
                "duration": 0.084090909090909,
                "tempo": 120.0
            },
            {
                "start_time": 7.886363636363636,
                "end_time": 7.970454545454545,
                "pitch": 53,
                "velocity": 32,
                "duration": 0.084090909090909,
                "tempo": 120.0
            },
            {
                "start_time": 7.986363636363636,
                "end_time": 8.070454545454545,
                "pitch": 65,
                "velocity": 32,
                "duration": 0.084090909090909,
                "tempo": 120.0
            },
            {
                "start_time": 8.086363636363636,
                "end_time": 8.170454545454545,
                "pitch": 51,
                "velocity": 32,
                "duration": 0.084090909090909,
                "tempo": 120.0
            },
            {
                "start_time": 8.188636363636363,
                "end_time": 8.272727272727272,
                "pitch": 60,
                "velocity": 32,
                "duration": 0.084090909090909,
                "tempo": 120.0
            },
            {
                "start_time": 8.288636363636364,
                "end_time": 8.372727272727273,
                "pitch": 51,
                "velocity": 32,
                "duration": 0.084090909090909,
                "tempo": 120.0
            },
            {
                "start_time": 8.388636363636364,
                "end_time": 8.472727272727273,
                "pitch": 63,
                "velocity": 32,
                "duration": 0.084090909090909,
                "tempo": 120.0
            },
            {
                "start_time": 8.49090909090909,
                "end_time": 8.575,
                "pitch": 53,
                "velocity": 32,
                "duration": 0.084090909090909,
                "tempo": 120.0
            },
            {
                "start_time": 8.59090909090909,
                "end_time": 8.674999999999999,
                "pitch": 62,
                "velocity": 32,
                "duration": 0.084090909090909,
                "tempo": 120.0
            },
            {
                "start_time": 8.690909090909091,
                "end_time": 8.775,
                "pitch": 51,
                "velocity": 32,
                "duration": 0.084090909090909,
                "tempo": 120.0
            },
            {
                "start_time": 8.793181818181818,
                "end_time": 8.875,
                "pitch": 60,
                "velocity": 32,
                "duration": 0.08181818181818201,
                "tempo": 120.0
            },
            {
                "start_time": 8.893181818181818,
                "end_time": 8.975,
                "pitch": 50,
                "velocity": 32,
                "duration": 0.08181818181818201,
                "tempo": 120.0
            },
            {
                "start_time": 8.993181818181817,
                "end_time": 9.075,
                "pitch": 48,
                "velocity": 32,
                "duration": 0.08181818181818201,
                "tempo": 120.0
            },
            {
                "start_time": 9.093181818181817,
                "end_time": 9.174999999999999,
                "pitch": 60,
                "velocity": 32,
                "duration": 0.08181818181818201,
                "tempo": 120.0
            },
            {
                "start_time": 9.193181818181818,
                "end_time": 9.275,
                "pitch": 48,
                "velocity": 32,
                "duration": 0.08181818181818201,
                "tempo": 120.0
            },
            {
                "start_time": 9.293181818181818,
                "end_time": 9.377272727272727,
                "pitch": 50,
                "velocity": 32,
                "duration": 0.084090909090909,
                "tempo": 120.0
            },
            {
                "start_time": 9.393181818181818,
                "end_time": 9.477272727272727,
                "pitch": 60,
                "velocity": 32,
                "duration": 0.084090909090909,
                "tempo": 120.0
            },
            {
                "start_time": 9.493181818181817,
                "end_time": 9.577272727272726,
                "pitch": 50,
                "velocity": 32,
                "duration": 0.084090909090909,
                "tempo": 120.0
            },
            {
                "start_time": 9.595454545454546,
                "end_time": 9.679545454545455,
                "pitch": 60,
                "velocity": 32,
                "duration": 0.084090909090909,
                "tempo": 120.0
            },
            {
                "start_time": 9.695454545454545,
                "end_time": 9.779545454545454,
                "pitch": 47,
                "velocity": 32,
                "duration": 0.084090909090909,
                "tempo": 120.0
            },
            {
                "start_time": 9.795454545454545,
                "end_time": 9.879545454545454,
                "pitch": 60,
                "velocity": 32,
                "duration": 0.084090909090909,
                "tempo": 120.0
            },
            {
                "start_time": 9.897727272727272,
                "end_time": 9.98181818181818,
                "pitch": 47,
                "velocity": 32,
                "duration": 0.084090909090909,
                "tempo": 120.0
            },
            {
                "start_time": 9.997727272727273,
                "end_time": 10.081818181818182,
                "pitch": 63,
                "velocity": 32,
                "duration": 0.084090909090909,
                "tempo": 120.0
            },
            {
                "start_time": 10.097727272727273,
                "end_time": 10.181818181818182,
                "pitch": 48,
                "velocity": 32,
                "duration": 0.084090909090909,
                "tempo": 120.0
            },
            {
                "start_time": 10.2,
                "end_time": 10.281818181818181,
                "pitch": 63,
                "velocity": 32,
                "duration": 0.08181818181818201,
                "tempo": 120.0
            },
            {
                "start_time": 10.299999999999999,
                "end_time": 10.384090909090908,
                "pitch": 48,
                "velocity": 32,
                "duration": 0.084090909090909,
                "tempo": 120.0
            },
            {
                "start_time": 10.4,
                "end_time": 10.48409090909091,
                "pitch": 62,
                "velocity": 32,
                "duration": 0.084090909090909,
                "tempo": 120.0
            },
            {
                "start_time": 10.5,
                "end_time": 10.584090909090909,
                "pitch": 50,
                "velocity": 32,
                "duration": 0.084090909090909,
                "tempo": 120.0
            },
            {
                "start_time": 10.602272727272727,
                "end_time": 10.686363636363636,
                "pitch": 60,
                "velocity": 32,
                "duration": 0.084090909090909,
                "tempo": 120.0
            },
            {
                "start_time": 10.702272727272726,
                "end_time": 10.786363636363635,
                "pitch": 50,
                "velocity": 32,
                "duration": 0.084090909090909,
                "tempo": 120.0
            },
            {
                "start_time": 10.802272727272726,
                "end_time": 10.886363636363637,
                "pitch": 63,
                "velocity": 32,
                "duration": 0.08409090909091077,
                "tempo": 120.0
            },
            {
                "start_time": 10.902272727272727,
                "end_time": 10.986363636363636,
                "pitch": 50,
                "velocity": 32,
                "duration": 0.084090909090909,
                "tempo": 120.0
            },
            {
                "start_time": 11.002272727272727,
                "end_time": 11.086363636363636,
                "pitch": 63,
                "velocity": 32,
                "duration": 0.084090909090909,
                "tempo": 120.0
            },
            {
                "start_time": 11.102272727272727,
                "end_time": 11.186363636363636,
                "pitch": 50,
                "velocity": 32,
                "duration": 0.084090909090909,
                "tempo": 120.0
            },
            {
                "start_time": 11.202272727272726,
                "end_time": 11.286363636363635,
                "pitch": 67,
                "velocity": 32,
                "duration": 0.084090909090909,
                "tempo": 120.0
            },
            {
                "start_time": 11.304545454545455,
                "end_time": 11.386363636363637,
                "pitch": 51,
                "velocity": 32,
                "duration": 0.08181818181818201,
                "tempo": 120.0
            },
            {
                "start_time": 11.404545454545454,
                "end_time": 11.488636363636363,
                "pitch": 60,
                "velocity": 32,
                "duration": 0.084090909090909,
                "tempo": 120.0
            },
            {
                "start_time": 11.504545454545454,
                "end_time": 11.588636363636363,
                "pitch": 51,
                "velocity": 32,
                "duration": 0.084090909090909,
                "tempo": 120.0
            },
            {
                "start_time": 11.604545454545454,
                "end_time": 11.688636363636363,
                "pitch": 60,
                "velocity": 32,
                "duration": 0.084090909090909,
                "tempo": 120.0
            },
            {
                "start_time": 11.706818181818182,
                "end_time": 11.790909090909091,
                "pitch": 50,
                "velocity": 32,
                "duration": 0.084090909090909,
                "tempo": 120.0
            },
            {
                "start_time": 11.806818181818182,
                "end_time": 11.89090909090909,
                "pitch": 60,
                "velocity": 32,
                "duration": 0.084090909090909,
                "tempo": 120.0
            },
            {
                "start_time": 11.906818181818181,
                "end_time": 11.99090909090909,
                "pitch": 51,
                "velocity": 32,
                "duration": 0.084090909090909,
                "tempo": 120.0
            },
            {
                "start_time": 12.009090909090908,
                "end_time": 12.093181818181817,
                "pitch": 60,
                "velocity": 32,
                "duration": 0.084090909090909,
                "tempo": 120.0
            },
            {
                "start_time": 12.10909090909091,
                "end_time": 12.193181818181818,
                "pitch": 53,
                "velocity": 32,
                "duration": 0.084090909090909,
                "tempo": 120.0
            },
            {
                "start_time": 12.209090909090909,
                "end_time": 12.293181818181818,
                "pitch": 60,
                "velocity": 32,
                "duration": 0.084090909090909,
                "tempo": 120.0
            },
            {
                "start_time": 12.311363636363636,
                "end_time": 12.393181818181818,
                "pitch": 53,
                "velocity": 32,
                "duration": 0.08181818181818201,
                "tempo": 120.0
            },
            {
                "start_time": 12.411363636363635,
                "end_time": 12.495454545454544,
                "pitch": 60,
                "velocity": 32,
                "duration": 0.084090909090909,
                "tempo": 120.0
            },
            {
                "start_time": 12.511363636363635,
                "end_time": 12.595454545454546,
                "pitch": 53,
                "velocity": 32,
                "duration": 0.08409090909091077,
                "tempo": 120.0
            },
            {
                "start_time": 12.611363636363636,
                "end_time": 12.695454545454545,
                "pitch": 60,
                "velocity": 32,
                "duration": 0.084090909090909,
                "tempo": 120.0
            },
            {
                "start_time": 12.713636363636363,
                "end_time": 12.797727272727272,
                "pitch": 53,
                "velocity": 32,
                "duration": 0.084090909090909,
                "tempo": 120.0
            },
            {
                "start_time": 12.813636363636363,
                "end_time": 12.897727272727272,
                "pitch": 60,
                "velocity": 32,
                "duration": 0.084090909090909,
                "tempo": 120.0
            },
            {
                "start_time": 12.913636363636362,
                "end_time": 12.997727272727271,
                "pitch": 55,
                "velocity": 32,
                "duration": 0.084090909090909,
                "tempo": 120.0
            },
            {
                "start_time": 13.013636363636364,
                "end_time": 13.097727272727273,
                "pitch": 60,
                "velocity": 32,
                "duration": 0.084090909090909,
                "tempo": 120.0
            },
            {
                "start_time": 13.113636363636363,
                "end_time": 13.197727272727272,
                "pitch": 55,
                "velocity": 32,
                "duration": 0.084090909090909,
                "tempo": 120.0
            },
            {
                "start_time": 13.213636363636363,
                "end_time": 13.297727272727272,
                "pitch": 63,
                "velocity": 32,
                "duration": 0.084090909090909,
                "tempo": 120.0
            },
            {
                "start_time": 13.313636363636363,
                "end_time": 13.397727272727272,
                "pitch": 55,
                "velocity": 32,
                "duration": 0.084090909090909,
                "tempo": 120.0
            },
            {
                "start_time": 13.415909090909091,
                "end_time": 13.5,
                "pitch": 63,
                "velocity": 32,
                "duration": 0.084090909090909,
                "tempo": 120.0
            },
            {
                "start_time": 13.51590909090909,
                "end_time": 13.6,
                "pitch": 55,
                "velocity": 32,
                "duration": 0.084090909090909,
                "tempo": 120.0
            },
            {
                "start_time": 13.61590909090909,
                "end_time": 13.7,
                "pitch": 62,
                "velocity": 32,
                "duration": 0.084090909090909,
                "tempo": 120.0
            },
            {
                "start_time": 13.71590909090909,
                "end_time": 13.799999999999999,
                "pitch": 53,
                "velocity": 32,
                "duration": 0.084090909090909,
                "tempo": 120.0
            },
            {
                "start_time": 13.818181818181818,
                "end_time": 13.902272727272727,
                "pitch": 60,
                "velocity": 32,
                "duration": 0.084090909090909,
                "tempo": 120.0
            },
            {
                "start_time": 13.918181818181818,
                "end_time": 14.002272727272727,
                "pitch": 53,
                "velocity": 32,
                "duration": 0.084090909090909,
                "tempo": 120.0
            },
            {
                "start_time": 14.018181818181818,
                "end_time": 14.102272727272727,
                "pitch": 63,
                "velocity": 32,
                "duration": 0.084090909090909,
                "tempo": 120.0
            },
            {
                "start_time": 14.120454545454544,
                "end_time": 14.204545454545453,
                "pitch": 53,
                "velocity": 32,
                "duration": 0.084090909090909,
                "tempo": 120.0
            },
            {
                "start_time": 14.220454545454544,
                "end_time": 14.304545454545455,
                "pitch": 63,
                "velocity": 32,
                "duration": 0.08409090909091077,
                "tempo": 120.0
            },
            {
                "start_time": 14.320454545454545,
                "end_time": 14.404545454545454,
                "pitch": 53,
                "velocity": 32,
                "duration": 0.084090909090909,
                "tempo": 120.0
            },
            {
                "start_time": 14.422727272727272,
                "end_time": 14.504545454545454,
                "pitch": 65,
                "velocity": 32,
                "duration": 0.08181818181818201,
                "tempo": 120.0
            },
            {
                "start_time": 14.522727272727272,
                "end_time": 14.60681818181818,
                "pitch": 51,
                "velocity": 32,
                "duration": 0.084090909090909,
                "tempo": 120.0
            },
            {
                "start_time": 14.622727272727271,
                "end_time": 14.70681818181818,
                "pitch": 60,
                "velocity": 32,
                "duration": 0.084090909090909,
                "tempo": 120.0
            },
            {
                "start_time": 14.722727272727273,
                "end_time": 14.806818181818182,
                "pitch": 51,
                "velocity": 32,
                "duration": 0.084090909090909,
                "tempo": 120.0
            },
            {
                "start_time": 14.825,
                "end_time": 14.906818181818181,
                "pitch": 63,
                "velocity": 32,
                "duration": 0.08181818181818201,
                "tempo": 120.0
            },
            {
                "start_time": 14.924999999999999,
                "end_time": 15.006818181818181,
                "pitch": 53,
                "velocity": 32,
                "duration": 0.08181818181818201,
                "tempo": 120.0
            },
            {
                "start_time": 15.024999999999999,
                "end_time": 15.10681818181818,
                "pitch": 62,
                "velocity": 32,
                "duration": 0.08181818181818201,
                "tempo": 120.0
            },
            {
                "start_time": 15.125,
                "end_time": 15.20681818181818,
                "pitch": 51,
                "velocity": 32,
                "duration": 0.08181818181818024,
                "tempo": 120.0
            },
            {
                "start_time": 15.225,
                "end_time": 15.309090909090909,
                "pitch": 60,
                "velocity": 32,
                "duration": 0.084090909090909,
                "tempo": 120.0
            },
            {
                "start_time": 15.325,
                "end_time": 15.409090909090908,
                "pitch": 50,
                "velocity": 32,
                "duration": 0.084090909090909,
                "tempo": 120.0
            },
            {
                "start_time": 15.424999999999999,
                "end_time": 15.509090909090908,
                "pitch": 48,
                "velocity": 32,
                "duration": 0.084090909090909,
                "tempo": 120.0
            },
            {
                "start_time": 15.527272727272727,
                "end_time": 15.611363636363636,
                "pitch": 60,
                "velocity": 32,
                "duration": 0.084090909090909,
                "tempo": 120.0
            },
            {
                "start_time": 15.627272727272727,
                "end_time": 15.711363636363636,
                "pitch": 48,
                "velocity": 32,
                "duration": 0.084090909090909,
                "tempo": 120.0
            },
            {
                "start_time": 15.727272727272727,
                "end_time": 15.811363636363636,
                "pitch": 50,
                "velocity": 32,
                "duration": 0.084090909090909,
                "tempo": 120.0
            },
            {
                "start_time": 15.827272727272726,
                "end_time": 15.911363636363635,
                "pitch": 60,
                "velocity": 32,
                "duration": 0.084090909090909,
                "tempo": 120.0
            },
            {
                "start_time": 15.929545454545453,
                "end_time": 16.013636363636362,
                "pitch": 50,
                "velocity": 32,
                "duration": 0.084090909090909,
                "tempo": 120.0
            },
            {
                "start_time": 16.029545454545453,
                "end_time": 16.113636363636363,
                "pitch": 60,
                "velocity": 32,
                "duration": 0.08409090909091077,
                "tempo": 120.0
            },
            {
                "start_time": 16.129545454545454,
                "end_time": 16.21363636363636,
                "pitch": 47,
                "velocity": 32,
                "duration": 0.08409090909090722,
                "tempo": 120.0
            },
            {
                "start_time": 16.23181818181818,
                "end_time": 16.31590909090909,
                "pitch": 60,
                "velocity": 32,
                "duration": 0.08409090909091077,
                "tempo": 120.0
            },
            {
                "start_time": 16.331818181818182,
                "end_time": 16.41590909090909,
                "pitch": 47,
                "velocity": 32,
                "duration": 0.08409090909090722,
                "tempo": 120.0
            },
            {
                "start_time": 16.43181818181818,
                "end_time": 16.51590909090909,
                "pitch": 63,
                "velocity": 32,
                "duration": 0.08409090909091077,
                "tempo": 120.0
            },
            {
                "start_time": 16.53181818181818,
                "end_time": 16.61590909090909,
                "pitch": 48,
                "velocity": 32,
                "duration": 0.08409090909090722,
                "tempo": 120.0
            },
            {
                "start_time": 16.631818181818183,
                "end_time": 16.71590909090909,
                "pitch": 63,
                "velocity": 32,
                "duration": 0.08409090909090722,
                "tempo": 120.0
            },
            {
                "start_time": 16.73181818181818,
                "end_time": 16.81590909090909,
                "pitch": 48,
                "velocity": 32,
                "duration": 0.08409090909091077,
                "tempo": 120.0
            },
            {
                "start_time": 16.831818181818182,
                "end_time": 16.91590909090909,
                "pitch": 62,
                "velocity": 32,
                "duration": 0.08409090909090722,
                "tempo": 120.0
            },
            {
                "start_time": 16.93409090909091,
                "end_time": 17.01590909090909,
                "pitch": 50,
                "velocity": 32,
                "duration": 0.08181818181818201,
                "tempo": 120.0
            },
            {
                "start_time": 17.034090909090907,
                "end_time": 17.118181818181817,
                "pitch": 60,
                "velocity": 32,
                "duration": 0.08409090909091077,
                "tempo": 120.0
            },
            {
                "start_time": 17.134090909090908,
                "end_time": 17.21818181818182,
                "pitch": 50,
                "velocity": 32,
                "duration": 0.08409090909091077,
                "tempo": 120.0
            },
            {
                "start_time": 17.23409090909091,
                "end_time": 17.318181818181817,
                "pitch": 63,
                "velocity": 32,
                "duration": 0.08409090909090722,
                "tempo": 120.0
            },
            {
                "start_time": 17.334090909090907,
                "end_time": 17.418181818181818,
                "pitch": 50,
                "velocity": 32,
                "duration": 0.08409090909091077,
                "tempo": 120.0
            },
            {
                "start_time": 17.43409090909091,
                "end_time": 17.518181818181816,
                "pitch": 63,
                "velocity": 32,
                "duration": 0.08409090909090722,
                "tempo": 120.0
            },
            {
                "start_time": 17.534090909090907,
                "end_time": 17.618181818181817,
                "pitch": 50,
                "velocity": 32,
                "duration": 0.08409090909091077,
                "tempo": 120.0
            },
            {
                "start_time": 17.634090909090908,
                "end_time": 17.71818181818182,
                "pitch": 67,
                "velocity": 32,
                "duration": 0.08409090909091077,
                "tempo": 120.0
            },
            {
                "start_time": 17.73409090909091,
                "end_time": 17.818181818181817,
                "pitch": 51,
                "velocity": 32,
                "duration": 0.08409090909090722,
                "tempo": 120.0
            },
            {
                "start_time": 17.834090909090907,
                "end_time": 17.918181818181818,
                "pitch": 60,
                "velocity": 32,
                "duration": 0.08409090909091077,
                "tempo": 120.0
            },
            {
                "start_time": 17.93409090909091,
                "end_time": 18.018181818181816,
                "pitch": 51,
                "velocity": 32,
                "duration": 0.08409090909090722,
                "tempo": 120.0
            },
            {
                "start_time": 18.034090909090907,
                "end_time": 18.118181818181817,
                "pitch": 60,
                "velocity": 32,
                "duration": 0.08409090909091077,
                "tempo": 120.0
            },
            {
                "start_time": 18.136363636363637,
                "end_time": 18.220454545454544,
                "pitch": 50,
                "velocity": 32,
                "duration": 0.08409090909090722,
                "tempo": 120.0
            },
            {
                "start_time": 18.236363636363635,
                "end_time": 18.320454545454545,
                "pitch": 60,
                "velocity": 32,
                "duration": 0.08409090909091077,
                "tempo": 120.0
            },
            {
                "start_time": 18.336363636363636,
                "end_time": 18.420454545454543,
                "pitch": 51,
                "velocity": 32,
                "duration": 0.08409090909090722,
                "tempo": 120.0
            },
            {
                "start_time": 18.438636363636363,
                "end_time": 18.520454545454545,
                "pitch": 60,
                "velocity": 32,
                "duration": 0.08181818181818201,
                "tempo": 120.0
            },
            {
                "start_time": 18.538636363636364,
                "end_time": 18.620454545454546,
                "pitch": 53,
                "velocity": 32,
                "duration": 0.08181818181818201,
                "tempo": 120.0
            },
            {
                "start_time": 18.638636363636362,
                "end_time": 18.720454545454544,
                "pitch": 60,
                "velocity": 32,
                "duration": 0.08181818181818201,
                "tempo": 120.0
            },
            {
                "start_time": 18.738636363636363,
                "end_time": 18.820454545454545,
                "pitch": 53,
                "velocity": 32,
                "duration": 0.08181818181818201,
                "tempo": 120.0
            },
            {
                "start_time": 18.83863636363636,
                "end_time": 18.922727272727272,
                "pitch": 60,
                "velocity": 32,
                "duration": 0.08409090909091077,
                "tempo": 120.0
            },
            {
                "start_time": 18.938636363636363,
                "end_time": 19.022727272727273,
                "pitch": 53,
                "velocity": 32,
                "duration": 0.08409090909091077,
                "tempo": 120.0
            },
            {
                "start_time": 19.038636363636364,
                "end_time": 19.12272727272727,
                "pitch": 60,
                "velocity": 32,
                "duration": 0.08409090909090722,
                "tempo": 120.0
            },
            {
                "start_time": 19.14090909090909,
                "end_time": 19.222727272727273,
                "pitch": 53,
                "velocity": 32,
                "duration": 0.08181818181818201,
                "tempo": 120.0
            },
            {
                "start_time": 19.24090909090909,
                "end_time": 19.32272727272727,
                "pitch": 69,
                "velocity": 32,
                "duration": 0.08181818181818201,
                "tempo": 120.0
            },
            {
                "start_time": 19.34090909090909,
                "end_time": 19.422727272727272,
                "pitch": 60,
                "velocity": 32,
                "duration": 0.08181818181818201,
                "tempo": 120.0
            },
            {
                "start_time": 19.44090909090909,
                "end_time": 19.522727272727273,
                "pitch": 69,
                "velocity": 32,
                "duration": 0.08181818181818201,
                "tempo": 120.0
            },
            {
                "start_time": 19.54090909090909,
                "end_time": 19.62272727272727,
                "pitch": 60,
                "velocity": 32,
                "duration": 0.08181818181818201,
                "tempo": 120.0
            },
            {
                "start_time": 19.64090909090909,
                "end_time": 19.722727272727273,
                "pitch": 69,
                "velocity": 32,
                "duration": 0.08181818181818201,
                "tempo": 120.0
            },
            {
                "start_time": 19.74090909090909,
                "end_time": 19.82272727272727,
                "pitch": 60,
                "velocity": 32,
                "duration": 0.08181818181818201,
                "tempo": 120.0
            },
            {
                "start_time": 19.84090909090909,
                "end_time": 19.922727272727272,
                "pitch": 69,
                "velocity": 32,
                "duration": 0.08181818181818201,
                "tempo": 120.0
            },
            {
                "start_time": 19.94090909090909,
                "end_time": 20.022727272727273,
                "pitch": 60,
                "velocity": 32,
                "duration": 0.08181818181818201,
                "tempo": 120.0
            },
            {
                "start_time": 20.04090909090909,
                "end_time": 20.125,
                "pitch": 68,
                "velocity": 32,
                "duration": 0.08409090909091077,
                "tempo": 120.0
            },
            {
                "start_time": 20.14090909090909,
                "end_time": 20.224999999999998,
                "pitch": 59,
                "velocity": 32,
                "duration": 0.08409090909090722,
                "tempo": 120.0
            },
            {
                "start_time": 20.24090909090909,
                "end_time": 20.325,
                "pitch": 69,
                "velocity": 32,
                "duration": 0.08409090909091077,
                "tempo": 120.0
            },
            {
                "start_time": 20.34318181818182,
                "end_time": 20.427272727272726,
                "pitch": 59,
                "velocity": 32,
                "duration": 0.08409090909090722,
                "tempo": 120.0
            },
            {
                "start_time": 20.443181818181817,
                "end_time": 20.527272727272727,
                "pitch": 69,
                "velocity": 32,
                "duration": 0.08409090909091077,
                "tempo": 120.0
            },
            {
                "start_time": 20.543181818181818,
                "end_time": 20.627272727272725,
                "pitch": 59,
                "velocity": 32,
                "duration": 0.08409090909090722,
                "tempo": 120.0
            },
            {
                "start_time": 20.643181818181816,
                "end_time": 20.727272727272727,
                "pitch": 69,
                "velocity": 32,
                "duration": 0.08409090909091077,
                "tempo": 120.0
            },
            {
                "start_time": 20.743181818181817,
                "end_time": 20.827272727272724,
                "pitch": 59,
                "velocity": 32,
                "duration": 0.08409090909090722,
                "tempo": 120.0
            },
            {
                "start_time": 20.84318181818182,
                "end_time": 20.927272727272726,
                "pitch": 59,
                "velocity": 32,
                "duration": 0.08409090909090722,
                "tempo": 120.0
            },
            {
                "start_time": 20.943181818181817,
                "end_time": 21.027272727272727,
                "pitch": 57,
                "velocity": 32,
                "duration": 0.08409090909091077,
                "tempo": 120.0
            },
            {
                "start_time": 21.045454545454543,
                "end_time": 21.127272727272725,
                "pitch": 69,
                "velocity": 32,
                "duration": 0.08181818181818201,
                "tempo": 120.0
            },
            {
                "start_time": 21.145454545454545,
                "end_time": 21.229545454545452,
                "pitch": 59,
                "velocity": 32,
                "duration": 0.08409090909090722,
                "tempo": 120.0
            },
            {
                "start_time": 21.245454545454546,
                "end_time": 21.329545454545453,
                "pitch": 69,
                "velocity": 32,
                "duration": 0.08409090909090722,
                "tempo": 120.0
            },
            {
                "start_time": 21.345454545454544,
                "end_time": 21.429545454545455,
                "pitch": 57,
                "velocity": 32,
                "duration": 0.08409090909091077,
                "tempo": 120.0
            },
            {
                "start_time": 21.445454545454545,
                "end_time": 21.529545454545453,
                "pitch": 68,
                "velocity": 32,
                "duration": 0.08409090909090722,
                "tempo": 120.0
            },
            {
                "start_time": 21.545454545454543,
                "end_time": 21.629545454545454,
                "pitch": 56,
                "velocity": 32,
                "duration": 0.08409090909091077,
                "tempo": 120.0
            },
            {
                "start_time": 21.645454545454545,
                "end_time": 21.729545454545452,
                "pitch": 69,
                "velocity": 32,
                "duration": 0.08409090909090722,
                "tempo": 120.0
            },
            {
                "start_time": 21.745454545454546,
                "end_time": 21.829545454545453,
                "pitch": 55,
                "velocity": 32,
                "duration": 0.08409090909090722,
                "tempo": 120.0
            },
            {
                "start_time": 21.845454545454544,
                "end_time": 21.929545454545455,
                "pitch": 69,
                "velocity": 32,
                "duration": 0.08409090909091077,
                "tempo": 120.0
            },
            {
                "start_time": 21.945454545454545,
                "end_time": 22.029545454545453,
                "pitch": 55,
                "velocity": 32,
                "duration": 0.08409090909090722,
                "tempo": 120.0
            },
            {
                "start_time": 22.045454545454543,
                "end_time": 22.129545454545454,
                "pitch": 71,
                "velocity": 32,
                "duration": 0.08409090909091077,
                "tempo": 120.0
            },
            {
                "start_time": 22.145454545454545,
                "end_time": 22.229545454545452,
                "pitch": 55,
                "velocity": 32,
                "duration": 0.08409090909090722,
                "tempo": 120.0
            },
            {
                "start_time": 22.24772727272727,
                "end_time": 22.331818181818182,
                "pitch": 72,
                "velocity": 32,
                "duration": 0.08409090909091077,
                "tempo": 120.0
            },
            {
                "start_time": 22.347727272727273,
                "end_time": 22.43181818181818,
                "pitch": 55,
                "velocity": 32,
                "duration": 0.08409090909090722,
                "tempo": 120.0
            },
            {
                "start_time": 22.44772727272727,
                "end_time": 22.53181818181818,
                "pitch": 74,
                "velocity": 32,
                "duration": 0.08409090909091077,
                "tempo": 120.0
            },
            {
                "start_time": 22.547727272727272,
                "end_time": 22.63181818181818,
                "pitch": 52,
                "velocity": 32,
                "duration": 0.08409090909090722,
                "tempo": 120.0
            },
            {
                "start_time": 22.647727272727273,
                "end_time": 22.73181818181818,
                "pitch": 69,
                "velocity": 32,
                "duration": 0.08409090909090722,
                "tempo": 120.0
            },
            {
                "start_time": 22.74772727272727,
                "end_time": 22.831818181818182,
                "pitch": 52,
                "velocity": 32,
                "duration": 0.08409090909091077,
                "tempo": 120.0
            },
            {
                "start_time": 22.847727272727273,
                "end_time": 22.93181818181818,
                "pitch": 72,
                "velocity": 32,
                "duration": 0.08409090909090722,
                "tempo": 120.0
            },
            {
                "start_time": 22.95,
                "end_time": 23.034090909090907,
                "pitch": 57,
                "velocity": 32,
                "duration": 0.08409090909090722,
                "tempo": 120.0
            },
            {
                "start_time": 23.049999999999997,
                "end_time": 23.134090909090908,
                "pitch": 71,
                "velocity": 32,
                "duration": 0.08409090909091077,
                "tempo": 120.0
            },
            {
                "start_time": 23.15,
                "end_time": 23.23409090909091,
                "pitch": 57,
                "velocity": 32,
                "duration": 0.08409090909091077,
                "tempo": 120.0
            },
            {
                "start_time": 23.252272727272725,
                "end_time": 23.334090909090907,
                "pitch": 72,
                "velocity": 32,
                "duration": 0.08181818181818201,
                "tempo": 120.0
            },
            {
                "start_time": 23.352272727272727,
                "end_time": 23.43409090909091,
                "pitch": 59,
                "velocity": 32,
                "duration": 0.08181818181818201,
                "tempo": 120.0
            },
            {
                "start_time": 23.452272727272724,
                "end_time": 23.534090909090907,
                "pitch": 69,
                "velocity": 32,
                "duration": 0.08181818181818201,
                "tempo": 120.0
            },
            {
                "start_time": 23.552272727272726,
                "end_time": 23.634090909090908,
                "pitch": 59,
                "velocity": 32,
                "duration": 0.08181818181818201,
                "tempo": 120.0
            },
            {
                "start_time": 23.652272727272727,
                "end_time": 23.73409090909091,
                "pitch": 74,
                "velocity": 32,
                "duration": 0.08181818181818201,
                "tempo": 120.0
            },
            {
                "start_time": 23.752272727272725,
                "end_time": 23.834090909090907,
                "pitch": 57,
                "velocity": 32,
                "duration": 0.08181818181818201,
                "tempo": 120.0
            },
            {
                "start_time": 23.852272727272727,
                "end_time": 23.93409090909091,
                "pitch": 76,
                "velocity": 32,
                "duration": 0.08181818181818201,
                "tempo": 120.0
            },
            {
                "start_time": 23.952272727272724,
                "end_time": 24.034090909090907,
                "pitch": 59,
                "velocity": 32,
                "duration": 0.08181818181818201,
                "tempo": 120.0
            },
            {
                "start_time": 24.052272727272726,
                "end_time": 24.134090909090908,
                "pitch": 77,
                "velocity": 32,
                "duration": 0.08181818181818201,
                "tempo": 120.0
            },
            {
                "start_time": 24.152272727272727,
                "end_time": 24.236363636363635,
                "pitch": 60,
                "velocity": 32,
                "duration": 0.08409090909090722,
                "tempo": 120.0
            },
            {
                "start_time": 24.252272727272725,
                "end_time": 24.336363636363636,
                "pitch": 69,
                "velocity": 32,
                "duration": 0.08409090909091077,
                "tempo": 120.0
            },
            {
                "start_time": 24.352272727272727,
                "end_time": 24.436363636363634,
                "pitch": 60,
                "velocity": 32,
                "duration": 0.08409090909090722,
                "tempo": 120.0
            },
            {
                "start_time": 24.454545454545453,
                "end_time": 24.536363636363635,
                "pitch": 76,
                "velocity": 32,
                "duration": 0.08181818181818201,
                "tempo": 120.0
            },
            {
                "start_time": 24.554545454545455,
                "end_time": 24.636363636363637,
                "pitch": 59,
                "velocity": 32,
                "duration": 0.08181818181818201,
                "tempo": 120.0
            },
            {
                "start_time": 24.654545454545453,
                "end_time": 24.736363636363635,
                "pitch": 69,
                "velocity": 32,
                "duration": 0.08181818181818201,
                "tempo": 120.0
            },
            {
                "start_time": 24.754545454545454,
                "end_time": 24.836363636363636,
                "pitch": 60,
                "velocity": 32,
                "duration": 0.08181818181818201,
                "tempo": 120.0
            },
            {
                "start_time": 24.854545454545452,
                "end_time": 24.938636363636363,
                "pitch": 69,
                "velocity": 32,
                "duration": 0.08409090909091077,
                "tempo": 120.0
            },
            {
                "start_time": 24.954545454545453,
                "end_time": 25.038636363636364,
                "pitch": 62,
                "velocity": 32,
                "duration": 0.08409090909091077,
                "tempo": 120.0
            },
            {
                "start_time": 25.054545454545455,
                "end_time": 25.138636363636362,
                "pitch": 57,
                "velocity": 32,
                "duration": 0.08409090909090722,
                "tempo": 120.0
            },
            {
                "start_time": 25.15681818181818,
                "end_time": 25.24090909090909,
                "pitch": 69,
                "velocity": 32,
                "duration": 0.08409090909090722,
                "tempo": 120.0
            },
            {
                "start_time": 25.25681818181818,
                "end_time": 25.34090909090909,
                "pitch": 57,
                "velocity": 32,
                "duration": 0.08409090909091077,
                "tempo": 120.0
            },
            {
                "start_time": 25.35681818181818,
                "end_time": 25.44090909090909,
                "pitch": 62,
                "velocity": 32,
                "duration": 0.08409090909091077,
                "tempo": 120.0
            },
            {
                "start_time": 25.456818181818182,
                "end_time": 25.54090909090909,
                "pitch": 69,
                "velocity": 32,
                "duration": 0.08409090909090722,
                "tempo": 120.0
            },
            {
                "start_time": 25.55681818181818,
                "end_time": 25.64090909090909,
                "pitch": 62,
                "velocity": 32,
                "duration": 0.08409090909091077,
                "tempo": 120.0
            },
            {
                "start_time": 25.65681818181818,
                "end_time": 25.74090909090909,
                "pitch": 69,
                "velocity": 32,
                "duration": 0.08409090909090722,
                "tempo": 120.0
            },
            {
                "start_time": 25.75681818181818,
                "end_time": 25.84090909090909,
                "pitch": 60,
                "velocity": 32,
                "duration": 0.08409090909091077,
                "tempo": 120.0
            },
            {
                "start_time": 25.85681818181818,
                "end_time": 25.94090909090909,
                "pitch": 69,
                "velocity": 32,
                "duration": 0.08409090909091077,
                "tempo": 120.0
            },
            {
                "start_time": 25.956818181818182,
                "end_time": 26.04090909090909,
                "pitch": 60,
                "velocity": 32,
                "duration": 0.08409090909090722,
                "tempo": 120.0
            },
            {
                "start_time": 26.05681818181818,
                "end_time": 26.14090909090909,
                "pitch": 69,
                "velocity": 32,
                "duration": 0.08409090909091077,
                "tempo": 120.0
            },
            {
                "start_time": 26.15681818181818,
                "end_time": 26.24090909090909,
                "pitch": 60,
                "velocity": 32,
                "duration": 0.08409090909090722,
                "tempo": 120.0
            },
            {
                "start_time": 26.25681818181818,
                "end_time": 26.34090909090909,
                "pitch": 69,
                "velocity": 32,
                "duration": 0.08409090909091077,
                "tempo": 120.0
            },
            {
                "start_time": 26.35909090909091,
                "end_time": 26.443181818181817,
                "pitch": 60,
                "velocity": 32,
                "duration": 0.08409090909090722,
                "tempo": 120.0
            },
            {
                "start_time": 26.459090909090907,
                "end_time": 26.543181818181818,
                "pitch": 68,
                "velocity": 32,
                "duration": 0.08409090909091077,
                "tempo": 120.0
            },
            {
                "start_time": 26.55909090909091,
                "end_time": 26.643181818181816,
                "pitch": 59,
                "velocity": 32,
                "duration": 0.08409090909090722,
                "tempo": 120.0
            },
            {
                "start_time": 26.659090909090907,
                "end_time": 26.743181818181817,
                "pitch": 69,
                "velocity": 32,
                "duration": 0.08409090909091077,
                "tempo": 120.0
            },
            {
                "start_time": 26.759090909090908,
                "end_time": 26.843181818181815,
                "pitch": 59,
                "velocity": 32,
                "duration": 0.08409090909090722,
                "tempo": 120.0
            },
            {
                "start_time": 26.85909090909091,
                "end_time": 26.943181818181817,
                "pitch": 69,
                "velocity": 32,
                "duration": 0.08409090909090722,
                "tempo": 120.0
            },
            {
                "start_time": 26.959090909090907,
                "end_time": 27.043181818181818,
                "pitch": 59,
                "velocity": 32,
                "duration": 0.08409090909091077,
                "tempo": 120.0
            },
            {
                "start_time": 27.061363636363634,
                "end_time": 27.145454545454545,
                "pitch": 69,
                "velocity": 32,
                "duration": 0.08409090909091077,
                "tempo": 120.0
            },
            {
                "start_time": 27.161363636363635,
                "end_time": 27.245454545454542,
                "pitch": 59,
                "velocity": 32,
                "duration": 0.08409090909090722,
                "tempo": 120.0
            },
            {
                "start_time": 27.261363636363637,
                "end_time": 27.345454545454544,
                "pitch": 59,
                "velocity": 32,
                "duration": 0.08409090909090722,
                "tempo": 120.0
            },
            {
                "start_time": 27.361363636363635,
                "end_time": 27.445454545454545,
                "pitch": 57,
                "velocity": 32,
                "duration": 0.08409090909091077,
                "tempo": 120.0
            },
            {
                "start_time": 27.461363636363636,
                "end_time": 27.545454545454543,
                "pitch": 69,
                "velocity": 32,
                "duration": 0.08409090909090722,
                "tempo": 120.0
            },
            {
                "start_time": 27.561363636363634,
                "end_time": 27.645454545454545,
                "pitch": 59,
                "velocity": 32,
                "duration": 0.08409090909091077,
                "tempo": 120.0
            },
            {
                "start_time": 27.661363636363635,
                "end_time": 27.745454545454542,
                "pitch": 69,
                "velocity": 32,
                "duration": 0.08409090909090722,
                "tempo": 120.0
            },
            {
                "start_time": 27.761363636363637,
                "end_time": 27.845454545454544,
                "pitch": 57,
                "velocity": 32,
                "duration": 0.08409090909090722,
                "tempo": 120.0
            },
            {
                "start_time": 27.861363636363635,
                "end_time": 27.945454545454545,
                "pitch": 68,
                "velocity": 32,
                "duration": 0.08409090909091077,
                "tempo": 120.0
            },
            {
                "start_time": 27.961363636363636,
                "end_time": 28.045454545454543,
                "pitch": 56,
                "velocity": 32,
                "duration": 0.08409090909090722,
                "tempo": 120.0
            },
            {
                "start_time": 28.061363636363634,
                "end_time": 28.145454545454545,
                "pitch": 69,
                "velocity": 32,
                "duration": 0.08409090909091077,
                "tempo": 120.0
            },
            {
                "start_time": 28.163636363636364,
                "end_time": 28.245454545454542,
                "pitch": 55,
                "velocity": 32,
                "duration": 0.08181818181817846,
                "tempo": 120.0
            },
            {
                "start_time": 28.263636363636362,
                "end_time": 28.347727272727273,
                "pitch": 69,
                "velocity": 32,
                "duration": 0.08409090909091077,
                "tempo": 120.0
            },
            {
                "start_time": 28.363636363636363,
                "end_time": 28.44772727272727,
                "pitch": 55,
                "velocity": 32,
                "duration": 0.08409090909090722,
                "tempo": 120.0
            },
            {
                "start_time": 28.46363636363636,
                "end_time": 28.547727272727272,
                "pitch": 71,
                "velocity": 32,
                "duration": 0.08409090909091077,
                "tempo": 120.0
            },
            {
                "start_time": 28.563636363636363,
                "end_time": 28.64772727272727,
                "pitch": 55,
                "velocity": 32,
                "duration": 0.08409090909090722,
                "tempo": 120.0
            },
            {
                "start_time": 28.66363636363636,
                "end_time": 28.74772727272727,
                "pitch": 72,
                "velocity": 32,
                "duration": 0.08409090909091077,
                "tempo": 120.0
            },
            {
                "start_time": 28.763636363636362,
                "end_time": 28.847727272727273,
                "pitch": 55,
                "velocity": 32,
                "duration": 0.08409090909091077,
                "tempo": 120.0
            },
            {
                "start_time": 28.863636363636363,
                "end_time": 28.94772727272727,
                "pitch": 74,
                "velocity": 32,
                "duration": 0.08409090909090722,
                "tempo": 120.0
            },
            {
                "start_time": 28.96590909090909,
                "end_time": 29.049999999999997,
                "pitch": 52,
                "velocity": 32,
                "duration": 0.08409090909090722,
                "tempo": 120.0
            },
            {
                "start_time": 29.065909090909088,
                "end_time": 29.15,
                "pitch": 72,
                "velocity": 32,
                "duration": 0.08409090909091077,
                "tempo": 120.0
            },
            {
                "start_time": 29.16590909090909,
                "end_time": 29.25,
                "pitch": 52,
                "velocity": 32,
                "duration": 0.08409090909091077,
                "tempo": 120.0
            },
            {
                "start_time": 29.268181818181816,
                "end_time": 29.349999999999998,
                "pitch": 71,
                "velocity": 32,
                "duration": 0.08181818181818201,
                "tempo": 120.0
            },
            {
                "start_time": 29.368181818181817,
                "end_time": 29.45,
                "pitch": 57,
                "velocity": 32,
                "duration": 0.08181818181818201,
                "tempo": 120.0
            },
            {
                "start_time": 29.468181818181815,
                "end_time": 29.549999999999997,
                "pitch": 69,
                "velocity": 32,
                "duration": 0.08181818181818201,
                "tempo": 120.0
            },
            {
                "start_time": 29.568181818181817,
                "end_time": 29.65,
                "pitch": 57,
                "velocity": 32,
                "duration": 0.08181818181818201,
                "tempo": 120.0
            },
            {
                "start_time": 29.668181818181818,
                "end_time": 29.75,
                "pitch": 72,
                "velocity": 32,
                "duration": 0.08181818181818201,
                "tempo": 120.0
            },
            {
                "start_time": 29.768181818181816,
                "end_time": 29.849999999999998,
                "pitch": 50,
                "velocity": 32,
                "duration": 0.08181818181818201,
                "tempo": 120.0
            },
            {
                "start_time": 29.868181818181817,
                "end_time": 29.95,
                "pitch": 71,
                "velocity": 32,
                "duration": 0.08181818181818201,
                "tempo": 120.0
            },
            {
                "start_time": 29.968181818181815,
                "end_time": 30.049999999999997,
                "pitch": 50,
                "velocity": 32,
                "duration": 0.08181818181818201,
                "tempo": 120.0
            },
            {
                "start_time": 30.068181818181817,
                "end_time": 30.152272727272727,
                "pitch": 69,
                "velocity": 32,
                "duration": 0.08409090909091077,
                "tempo": 120.0
            },
            {
                "start_time": 30.168181818181818,
                "end_time": 30.252272727272725,
                "pitch": 59,
                "velocity": 32,
                "duration": 0.08409090909090722,
                "tempo": 120.0
            },
            {
                "start_time": 30.268181818181816,
                "end_time": 30.352272727272727,
                "pitch": 68,
                "velocity": 32,
                "duration": 0.08409090909091077,
                "tempo": 120.0
            },
            {
                "start_time": 30.370454545454542,
                "end_time": 30.452272727272724,
                "pitch": 59,
                "velocity": 32,
                "duration": 0.08181818181818201,
                "tempo": 120.0
            },
            {
                "start_time": 30.470454545454544,
                "end_time": 30.552272727272726,
                "pitch": 69,
                "velocity": 32,
                "duration": 0.08181818181818201,
                "tempo": 120.0
            },
            {
                "start_time": 30.570454545454545,
                "end_time": 30.652272727272727,
                "pitch": 57,
                "velocity": 32,
                "duration": 0.08181818181818201,
                "tempo": 120.0
            },
            {
                "start_time": 30.670454545454543,
                "end_time": 30.752272727272725,
                "pitch": 71,
                "velocity": 32,
                "duration": 0.08181818181818201,
                "tempo": 120.0
            },
            {
                "start_time": 30.770454545454545,
                "end_time": 30.852272727272727,
                "pitch": 57,
                "velocity": 32,
                "duration": 0.08181818181818201,
                "tempo": 120.0
            },
            {
                "start_time": 30.870454545454542,
                "end_time": 30.954545454545453,
                "pitch": 72,
                "velocity": 32,
                "duration": 0.08409090909091077,
                "tempo": 120.0
            },
            {
                "start_time": 30.970454545454544,
                "end_time": 31.054545454545455,
                "pitch": 57,
                "velocity": 32,
                "duration": 0.08409090909091077,
                "tempo": 120.0
            },
            {
                "start_time": 31.070454545454545,
                "end_time": 31.154545454545453,
                "pitch": 72,
                "velocity": 32,
                "duration": 0.08409090909090722,
                "tempo": 120.0
            },
            {
                "start_time": 31.172727272727272,
                "end_time": 31.25681818181818,
                "pitch": 57,
                "velocity": 32,
                "duration": 0.08409090909090722,
                "tempo": 120.0
            },
            {
                "start_time": 31.27272727272727,
                "end_time": 31.35681818181818,
                "pitch": 71,
                "velocity": 32,
                "duration": 0.08409090909091077,
                "tempo": 120.0
            },
            {
                "start_time": 31.37272727272727,
                "end_time": 31.456818181818182,
                "pitch": 57,
                "velocity": 32,
                "duration": 0.08409090909091077,
                "tempo": 120.0
            },
            {
                "start_time": 31.472727272727273,
                "end_time": 31.55681818181818,
                "pitch": 72,
                "velocity": 32,
                "duration": 0.08409090909090722,
                "tempo": 120.0
            },
            {
                "start_time": 31.57272727272727,
                "end_time": 31.65681818181818,
                "pitch": 57,
                "velocity": 32,
                "duration": 0.08409090909091077,
                "tempo": 120.0
            },
            {
                "start_time": 31.672727272727272,
                "end_time": 31.75681818181818,
                "pitch": 74,
                "velocity": 32,
                "duration": 0.08409090909090722,
                "tempo": 120.0
            },
            {
                "start_time": 31.77272727272727,
                "end_time": 31.85681818181818,
                "pitch": 57,
                "velocity": 32,
                "duration": 0.08409090909091077,
                "tempo": 120.0
            },
            {
                "start_time": 31.87272727272727,
                "end_time": 31.956818181818182,
                "pitch": 74,
                "velocity": 32,
                "duration": 0.08409090909091077,
                "tempo": 120.0
            },
            {
                "start_time": 31.972727272727273,
                "end_time": 32.05681818181818,
                "pitch": 57,
                "velocity": 32,
                "duration": 0.08409090909090722,
                "tempo": 120.0
            },
            {
                "start_time": 32.08863636363636,
                "end_time": 96.32727272727273,
                "pitch": 72,
                "velocity": 32,
                "duration": 64.23863636363637,
                "tempo": 120.0
            },
            {
                "start_time": 96.34545454545454,
                "end_time": 96.42727272727272,
                "pitch": 55,
                "velocity": 32,
                "duration": 0.08181818181817846,
                "tempo": 120.0
            },
            {
                "start_time": 96.44545454545454,
                "end_time": 96.52727272727272,
                "pitch": 60,
                "velocity": 32,
                "duration": 0.08181818181817846,
                "tempo": 120.0
            },
            {
                "start_time": 96.54545454545455,
                "end_time": 96.62727272727273,
                "pitch": 55,
                "velocity": 32,
                "duration": 0.08181818181817846,
                "tempo": 120.0
            },
            {
                "start_time": 96.64545454545454,
                "end_time": 96.72727272727272,
                "pitch": 63,
                "velocity": 32,
                "duration": 0.08181818181817846,
                "tempo": 120.0
            },
            {
                "start_time": 96.74318181818181,
                "end_time": 96.82499999999999,
                "pitch": 55,
                "velocity": 32,
                "duration": 0.08181818181817846,
                "tempo": 120.0
            },
            {
                "start_time": 96.84090909090908,
                "end_time": 96.92272727272727,
                "pitch": 63,
                "velocity": 32,
                "duration": 0.08181818181819267,
                "tempo": 120.0
            },
            {
                "start_time": 96.93863636363636,
                "end_time": 97.02045454545454,
                "pitch": 55,
                "velocity": 32,
                "duration": 0.08181818181817846,
                "tempo": 120.0
            },
            {
                "start_time": 97.03636363636363,
                "end_time": 97.12045454545454,
                "pitch": 62,
                "velocity": 32,
                "duration": 0.08409090909090366,
                "tempo": 120.0
            },
            {
                "start_time": 97.13863636363637,
                "end_time": 97.22045454545454,
                "pitch": 53,
                "velocity": 32,
                "duration": 0.08181818181817846,
                "tempo": 120.0
            },
            {
                "start_time": 97.23863636363636,
                "end_time": 97.32272727272726,
                "pitch": 60,
                "velocity": 32,
                "duration": 0.08409090909090366,
                "tempo": 120.0
            },
            {
                "start_time": 97.33863636363635,
                "end_time": 97.42272727272727,
                "pitch": 53,
                "velocity": 32,
                "duration": 0.08409090909091788,
                "tempo": 120.0
            },
            {
                "start_time": 97.43863636363636,
                "end_time": 97.52272727272727,
                "pitch": 63,
                "velocity": 32,
                "duration": 0.08409090909090366,
                "tempo": 120.0
            },
            {
                "start_time": 97.54090909090908,
                "end_time": 97.625,
                "pitch": 53,
                "velocity": 32,
                "duration": 0.08409090909091788,
                "tempo": 120.0
            },
            {
                "start_time": 97.64090909090909,
                "end_time": 97.725,
                "pitch": 63,
                "velocity": 32,
                "duration": 0.08409090909090366,
                "tempo": 120.0
            },
            {
                "start_time": 97.74090909090908,
                "end_time": 97.82499999999999,
                "pitch": 53,
                "velocity": 32,
                "duration": 0.08409090909090366,
                "tempo": 120.0
            },
            {
                "start_time": 97.84318181818182,
                "end_time": 97.925,
                "pitch": 65,
                "velocity": 32,
                "duration": 0.08181818181817846,
                "tempo": 120.0
            },
            {
                "start_time": 97.94318181818181,
                "end_time": 98.02499999999999,
                "pitch": 51,
                "velocity": 32,
                "duration": 0.08181818181817846,
                "tempo": 120.0
            },
            {
                "start_time": 98.04318181818181,
                "end_time": 98.125,
                "pitch": 60,
                "velocity": 32,
                "duration": 0.08181818181819267,
                "tempo": 120.0
            },
            {
                "start_time": 98.14318181818182,
                "end_time": 98.225,
                "pitch": 51,
                "velocity": 32,
                "duration": 0.08181818181817846,
                "tempo": 120.0
            },
            {
                "start_time": 98.24318181818181,
                "end_time": 98.32727272727273,
                "pitch": 63,
                "velocity": 32,
                "duration": 0.08409090909091788,
                "tempo": 120.0
            },
            {
                "start_time": 98.34318181818182,
                "end_time": 98.42727272727272,
                "pitch": 53,
                "velocity": 32,
                "duration": 0.08409090909090366,
                "tempo": 120.0
            },
            {
                "start_time": 98.44318181818181,
                "end_time": 98.52727272727272,
                "pitch": 62,
                "velocity": 32,
                "duration": 0.08409090909090366,
                "tempo": 120.0
            },
            {
                "start_time": 98.54545454545455,
                "end_time": 98.62727272727273,
                "pitch": 51,
                "velocity": 32,
                "duration": 0.08181818181817846,
                "tempo": 120.0
            },
            {
                "start_time": 98.64545454545454,
                "end_time": 98.72727272727272,
                "pitch": 60,
                "velocity": 32,
                "duration": 0.08181818181817846,
                "tempo": 120.0
            },
            {
                "start_time": 98.74545454545454,
                "end_time": 98.82727272727273,
                "pitch": 50,
                "velocity": 32,
                "duration": 0.08181818181819267,
                "tempo": 120.0
            },
            {
                "start_time": 98.84545454545454,
                "end_time": 98.92727272727272,
                "pitch": 48,
                "velocity": 32,
                "duration": 0.08181818181817846,
                "tempo": 120.0
            },
            {
                "start_time": 98.94545454545454,
                "end_time": 99.02727272727272,
                "pitch": 60,
                "velocity": 32,
                "duration": 0.08181818181817846,
                "tempo": 120.0
            },
            {
                "start_time": 99.04545454545455,
                "end_time": 99.12954545454545,
                "pitch": 48,
                "velocity": 32,
                "duration": 0.08409090909090366,
                "tempo": 120.0
            },
            {
                "start_time": 99.14545454545454,
                "end_time": 99.22954545454544,
                "pitch": 50,
                "velocity": 32,
                "duration": 0.08409090909090366,
                "tempo": 120.0
            },
            {
                "start_time": 99.24545454545454,
                "end_time": 99.32954545454545,
                "pitch": 60,
                "velocity": 32,
                "duration": 0.08409090909091788,
                "tempo": 120.0
            },
            {
                "start_time": 99.34772727272727,
                "end_time": 99.43181818181817,
                "pitch": 50,
                "velocity": 32,
                "duration": 0.08409090909090366,
                "tempo": 120.0
            },
            {
                "start_time": 99.44772727272726,
                "end_time": 99.53181818181818,
                "pitch": 60,
                "velocity": 32,
                "duration": 0.08409090909091788,
                "tempo": 120.0
            },
            {
                "start_time": 99.54772727272727,
                "end_time": 99.63181818181818,
                "pitch": 47,
                "velocity": 32,
                "duration": 0.08409090909090366,
                "tempo": 120.0
            },
            {
                "start_time": 99.64999999999999,
                "end_time": 99.73181818181817,
                "pitch": 60,
                "velocity": 32,
                "duration": 0.08181818181817846,
                "tempo": 120.0
            },
            {
                "start_time": 99.75,
                "end_time": 99.8340909090909,
                "pitch": 47,
                "velocity": 32,
                "duration": 0.08409090909090366,
                "tempo": 120.0
            },
            {
                "start_time": 99.85,
                "end_time": 99.9340909090909,
                "pitch": 63,
                "velocity": 32,
                "duration": 0.08409090909090366,
                "tempo": 120.0
            },
            {
                "start_time": 99.94999999999999,
                "end_time": 100.0340909090909,
                "pitch": 48,
                "velocity": 32,
                "duration": 0.08409090909091788,
                "tempo": 120.0
            },
            {
                "start_time": 100.05,
                "end_time": 100.1340909090909,
                "pitch": 63,
                "velocity": 32,
                "duration": 0.08409090909090366,
                "tempo": 120.0
            },
            {
                "start_time": 100.14999999999999,
                "end_time": 100.23409090909091,
                "pitch": 48,
                "velocity": 32,
                "duration": 0.08409090909091788,
                "tempo": 120.0
            },
            {
                "start_time": 100.25,
                "end_time": 100.3340909090909,
                "pitch": 62,
                "velocity": 32,
                "duration": 0.08409090909090366,
                "tempo": 120.0
            },
            {
                "start_time": 100.35,
                "end_time": 100.4340909090909,
                "pitch": 50,
                "velocity": 32,
                "duration": 0.08409090909090366,
                "tempo": 120.0
            },
            {
                "start_time": 100.45227272727273,
                "end_time": 100.53636363636363,
                "pitch": 60,
                "velocity": 32,
                "duration": 0.08409090909090366,
                "tempo": 120.0
            },
            {
                "start_time": 100.55227272727272,
                "end_time": 100.63636363636363,
                "pitch": 50,
                "velocity": 32,
                "duration": 0.08409090909090366,
                "tempo": 120.0
            },
            {
                "start_time": 100.65227272727272,
                "end_time": 100.73636363636363,
                "pitch": 63,
                "velocity": 32,
                "duration": 0.08409090909091788,
                "tempo": 120.0
            },
            {
                "start_time": 100.75227272727273,
                "end_time": 100.83636363636363,
                "pitch": 50,
                "velocity": 32,
                "duration": 0.08409090909090366,
                "tempo": 120.0
            },
            {
                "start_time": 100.85227272727272,
                "end_time": 100.93636363636364,
                "pitch": 63,
                "velocity": 32,
                "duration": 0.08409090909091788,
                "tempo": 120.0
            },
            {
                "start_time": 100.95227272727273,
                "end_time": 101.03636363636363,
                "pitch": 50,
                "velocity": 32,
                "duration": 0.08409090909090366,
                "tempo": 120.0
            },
            {
                "start_time": 101.05227272727272,
                "end_time": 101.13636363636363,
                "pitch": 67,
                "velocity": 32,
                "duration": 0.08409090909090366,
                "tempo": 120.0
            },
            {
                "start_time": 101.15454545454546,
                "end_time": 101.23863636363636,
                "pitch": 51,
                "velocity": 32,
                "duration": 0.08409090909090366,
                "tempo": 120.0
            },
            {
                "start_time": 101.25454545454545,
                "end_time": 101.33863636363635,
                "pitch": 60,
                "velocity": 32,
                "duration": 0.08409090909090366,
                "tempo": 120.0
            },
            {
                "start_time": 101.35454545454544,
                "end_time": 101.43863636363636,
                "pitch": 51,
                "velocity": 32,
                "duration": 0.08409090909091788,
                "tempo": 120.0
            },
            {
                "start_time": 101.45681818181818,
                "end_time": 101.53863636363636,
                "pitch": 60,
                "velocity": 32,
                "duration": 0.08181818181817846,
                "tempo": 120.0
            },
            {
                "start_time": 101.55681818181817,
                "end_time": 101.64090909090909,
                "pitch": 50,
                "velocity": 32,
                "duration": 0.08409090909091788,
                "tempo": 120.0
            },
            {
                "start_time": 101.65681818181818,
                "end_time": 101.74090909090908,
                "pitch": 60,
                "velocity": 32,
                "duration": 0.08409090909090366,
                "tempo": 120.0
            },
            {
                "start_time": 101.75681818181818,
                "end_time": 101.84090909090908,
                "pitch": 51,
                "velocity": 32,
                "duration": 0.08409090909090366,
                "tempo": 120.0
            },
            {
                "start_time": 101.85909090909091,
                "end_time": 101.94090909090909,
                "pitch": 60,
                "velocity": 32,
                "duration": 0.08181818181817846,
                "tempo": 120.0
            },
            {
                "start_time": 101.9590909090909,
                "end_time": 102.04090909090908,
                "pitch": 53,
                "velocity": 32,
                "duration": 0.08181818181817846,
                "tempo": 120.0
            },
            {
                "start_time": 102.0590909090909,
                "end_time": 102.14090909090909,
                "pitch": 60,
                "velocity": 32,
                "duration": 0.08181818181819267,
                "tempo": 120.0
            },
            {
                "start_time": 102.1590909090909,
                "end_time": 102.24090909090908,
                "pitch": 53,
                "velocity": 32,
                "duration": 0.08181818181817846,
                "tempo": 120.0
            },
            {
                "start_time": 102.2590909090909,
                "end_time": 102.34318181818182,
                "pitch": 60,
                "velocity": 32,
                "duration": 0.08409090909091788,
                "tempo": 120.0
            },
            {
                "start_time": 102.35909090909091,
                "end_time": 102.44318181818181,
                "pitch": 53,
                "velocity": 32,
                "duration": 0.08409090909090366,
                "tempo": 120.0
            },
            {
                "start_time": 102.4590909090909,
                "end_time": 102.54318181818181,
                "pitch": 60,
                "velocity": 32,
                "duration": 0.08409090909090366,
                "tempo": 120.0
            },
            {
                "start_time": 102.56136363636364,
                "end_time": 102.64545454545454,
                "pitch": 53,
                "velocity": 32,
                "duration": 0.08409090909090366,
                "tempo": 120.0
            },
            {
                "start_time": 102.66136363636363,
                "end_time": 102.74545454545454,
                "pitch": 60,
                "velocity": 32,
                "duration": 0.08409090909090366,
                "tempo": 120.0
            },
            {
                "start_time": 102.76136363636363,
                "end_time": 102.84545454545454,
                "pitch": 55,
                "velocity": 32,
                "duration": 0.08409090909091788,
                "tempo": 120.0
            },
            {
                "start_time": 102.86136363636363,
                "end_time": 102.94545454545454,
                "pitch": 60,
                "velocity": 32,
                "duration": 0.08409090909090366,
                "tempo": 120.0
            },
            {
                "start_time": 102.96136363636363,
                "end_time": 103.04545454545455,
                "pitch": 55,
                "velocity": 32,
                "duration": 0.08409090909091788,
                "tempo": 120.0
            },
            {
                "start_time": 103.06136363636364,
                "end_time": 103.14545454545454,
                "pitch": 63,
                "velocity": 32,
                "duration": 0.08409090909090366,
                "tempo": 120.0
            },
            {
                "start_time": 103.16136363636363,
                "end_time": 103.24545454545454,
                "pitch": 55,
                "velocity": 32,
                "duration": 0.08409090909090366,
                "tempo": 120.0
            },
            {
                "start_time": 103.26136363636363,
                "end_time": 103.34545454545454,
                "pitch": 63,
                "velocity": 32,
                "duration": 0.08409090909091788,
                "tempo": 120.0
            },
            {
                "start_time": 103.36363636363636,
                "end_time": 103.44772727272726,
                "pitch": 55,
                "velocity": 32,
                "duration": 0.08409090909090366,
                "tempo": 120.0
            },
            {
                "start_time": 103.46363636363635,
                "end_time": 103.54772727272727,
                "pitch": 62,
                "velocity": 32,
                "duration": 0.08409090909091788,
                "tempo": 120.0
            },
            {
                "start_time": 103.56363636363636,
                "end_time": 103.64772727272727,
                "pitch": 53,
                "velocity": 32,
                "duration": 0.08409090909090366,
                "tempo": 120.0
            },
            {
                "start_time": 103.66590909090908,
                "end_time": 103.75,
                "pitch": 60,
                "velocity": 32,
                "duration": 0.08409090909091788,
                "tempo": 120.0
            },
            {
                "start_time": 103.76590909090909,
                "end_time": 103.85,
                "pitch": 53,
                "velocity": 32,
                "duration": 0.08409090909090366,
                "tempo": 120.0
            },
            {
                "start_time": 103.86590909090908,
                "end_time": 103.94999999999999,
                "pitch": 63,
                "velocity": 32,
                "duration": 0.08409090909090366,
                "tempo": 120.0
            },
            {
                "start_time": 103.96590909090908,
                "end_time": 104.05,
                "pitch": 53,
                "velocity": 32,
                "duration": 0.08409090909091788,
                "tempo": 120.0
            },
            {
                "start_time": 104.06590909090909,
                "end_time": 104.14999999999999,
                "pitch": 63,
                "velocity": 32,
                "duration": 0.08409090909090366,
                "tempo": 120.0
            },
            {
                "start_time": 104.16590909090908,
                "end_time": 104.25,
                "pitch": 53,
                "velocity": 32,
                "duration": 0.08409090909091788,
                "tempo": 120.0
            },
            {
                "start_time": 104.26590909090909,
                "end_time": 104.35,
                "pitch": 65,
                "velocity": 32,
                "duration": 0.08409090909090366,
                "tempo": 120.0
            },
            {
                "start_time": 104.36818181818181,
                "end_time": 104.44999999999999,
                "pitch": 51,
                "velocity": 32,
                "duration": 0.08181818181817846,
                "tempo": 120.0
            },
            {
                "start_time": 104.46818181818182,
                "end_time": 104.55227272727272,
                "pitch": 60,
                "velocity": 32,
                "duration": 0.08409090909090366,
                "tempo": 120.0
            },
            {
                "start_time": 104.56818181818181,
                "end_time": 104.65227272727272,
                "pitch": 51,
                "velocity": 32,
                "duration": 0.08409090909090366,
                "tempo": 120.0
            },
            {
                "start_time": 104.66818181818181,
                "end_time": 104.75227272727273,
                "pitch": 63,
                "velocity": 32,
                "duration": 0.08409090909091788,
                "tempo": 120.0
            },
            {
                "start_time": 104.76818181818182,
                "end_time": 104.85227272727272,
                "pitch": 53,
                "velocity": 32,
                "duration": 0.08409090909090366,
                "tempo": 120.0
            },
            {
                "start_time": 104.86818181818181,
                "end_time": 104.95227272727273,
                "pitch": 62,
                "velocity": 32,
                "duration": 0.08409090909091788,
                "tempo": 120.0
            },
            {
                "start_time": 104.96818181818182,
                "end_time": 105.05227272727272,
                "pitch": 51,
                "velocity": 32,
                "duration": 0.08409090909090366,
                "tempo": 120.0
            },
            {
                "start_time": 105.06818181818181,
                "end_time": 105.15227272727272,
                "pitch": 60,
                "velocity": 32,
                "duration": 0.08409090909090366,
                "tempo": 120.0
            },
            {
                "start_time": 105.17045454545455,
                "end_time": 105.25454545454545,
                "pitch": 50,
                "velocity": 32,
                "duration": 0.08409090909090366,
                "tempo": 120.0
            },
            {
                "start_time": 105.27045454545454,
                "end_time": 105.35454545454544,
                "pitch": 48,
                "velocity": 32,
                "duration": 0.08409090909090366,
                "tempo": 120.0
            },
            {
                "start_time": 105.37045454545454,
                "end_time": 105.45454545454545,
                "pitch": 60,
                "velocity": 32,
                "duration": 0.08409090909091788,
                "tempo": 120.0
            },
            {
                "start_time": 105.47272727272727,
                "end_time": 105.55681818181817,
                "pitch": 48,
                "velocity": 32,
                "duration": 0.08409090909090366,
                "tempo": 120.0
            },
            {
                "start_time": 105.57272727272726,
                "end_time": 105.65681818181818,
                "pitch": 50,
                "velocity": 32,
                "duration": 0.08409090909091788,
                "tempo": 120.0
            },
            {
                "start_time": 105.67272727272727,
                "end_time": 105.75681818181818,
                "pitch": 60,
                "velocity": 32,
                "duration": 0.08409090909090366,
                "tempo": 120.0
            },
            {
                "start_time": 105.77272727272727,
                "end_time": 105.85681818181817,
                "pitch": 50,
                "velocity": 32,
                "duration": 0.08409090909090366,
                "tempo": 120.0
            },
            {
                "start_time": 105.875,
                "end_time": 105.95681818181818,
                "pitch": 60,
                "velocity": 32,
                "duration": 0.08181818181817846,
                "tempo": 120.0
            },
            {
                "start_time": 105.975,
                "end_time": 106.05681818181817,
                "pitch": 47,
                "velocity": 32,
                "duration": 0.08181818181817846,
                "tempo": 120.0
            },
            {
                "start_time": 106.07499999999999,
                "end_time": 106.15681818181818,
                "pitch": 60,
                "velocity": 32,
                "duration": 0.08181818181819267,
                "tempo": 120.0
            },
            {
                "start_time": 106.175,
                "end_time": 106.25681818181818,
                "pitch": 47,
                "velocity": 32,
                "duration": 0.08181818181817846,
                "tempo": 120.0
            },
            {
                "start_time": 106.27499999999999,
                "end_time": 106.35909090909091,
                "pitch": 63,
                "velocity": 32,
                "duration": 0.08409090909091788,
                "tempo": 120.0
            },
            {
                "start_time": 106.375,
                "end_time": 106.4590909090909,
                "pitch": 48,
                "velocity": 32,
                "duration": 0.08409090909090366,
                "tempo": 120.0
            },
            {
                "start_time": 106.475,
                "end_time": 106.5590909090909,
                "pitch": 63,
                "velocity": 32,
                "duration": 0.08409090909090366,
                "tempo": 120.0
            },
            {
                "start_time": 106.57727272727273,
                "end_time": 106.66136363636363,
                "pitch": 48,
                "velocity": 32,
                "duration": 0.08409090909090366,
                "tempo": 120.0
            },
            {
                "start_time": 106.67727272727272,
                "end_time": 106.76136363636363,
                "pitch": 62,
                "velocity": 32,
                "duration": 0.08409090909090366,
                "tempo": 120.0
            },
            {
                "start_time": 106.77727272727272,
                "end_time": 106.86136363636363,
                "pitch": 50,
                "velocity": 32,
                "duration": 0.08409090909091788,
                "tempo": 120.0
            },
            {
                "start_time": 106.87727272727273,
                "end_time": 106.96136363636363,
                "pitch": 60,
                "velocity": 32,
                "duration": 0.08409090909090366,
                "tempo": 120.0
            },
            {
                "start_time": 106.97727272727272,
                "end_time": 107.06136363636364,
                "pitch": 50,
                "velocity": 32,
                "duration": 0.08409090909091788,
                "tempo": 120.0
            },
            {
                "start_time": 107.07727272727273,
                "end_time": 107.16136363636363,
                "pitch": 63,
                "velocity": 32,
                "duration": 0.08409090909090366,
                "tempo": 120.0
            },
            {
                "start_time": 107.17727272727272,
                "end_time": 107.26136363636363,
                "pitch": 50,
                "velocity": 32,
                "duration": 0.08409090909090366,
                "tempo": 120.0
            },
            {
                "start_time": 107.27954545454546,
                "end_time": 107.36136363636363,
                "pitch": 63,
                "velocity": 32,
                "duration": 0.08181818181817846,
                "tempo": 120.0
            },
            {
                "start_time": 107.37954545454545,
                "end_time": 107.46363636363635,
                "pitch": 50,
                "velocity": 32,
                "duration": 0.08409090909090366,
                "tempo": 120.0
            },
            {
                "start_time": 107.47954545454544,
                "end_time": 107.56363636363636,
                "pitch": 67,
                "velocity": 32,
                "duration": 0.08409090909091788,
                "tempo": 120.0
            },
            {
                "start_time": 107.57954545454545,
                "end_time": 107.66363636363636,
                "pitch": 51,
                "velocity": 32,
                "duration": 0.08409090909090366,
                "tempo": 120.0
            },
            {
                "start_time": 107.68181818181817,
                "end_time": 107.76590909090909,
                "pitch": 60,
                "velocity": 32,
                "duration": 0.08409090909091788,
                "tempo": 120.0
            },
            {
                "start_time": 107.78181818181818,
                "end_time": 107.86590909090908,
                "pitch": 51,
                "velocity": 32,
                "duration": 0.08409090909090366,
                "tempo": 120.0
            },
            {
                "start_time": 107.88181818181818,
                "end_time": 107.96590909090908,
                "pitch": 60,
                "velocity": 32,
                "duration": 0.08409090909090366,
                "tempo": 120.0
            },
            {
                "start_time": 107.98181818181817,
                "end_time": 108.06590909090909,
                "pitch": 50,
                "velocity": 32,
                "duration": 0.08409090909091788,
                "tempo": 120.0
            },
            {
                "start_time": 108.08181818181818,
                "end_time": 108.16590909090908,
                "pitch": 60,
                "velocity": 32,
                "duration": 0.08409090909090366,
                "tempo": 120.0
            },
            {
                "start_time": 108.18181818181817,
                "end_time": 108.26590909090909,
                "pitch": 51,
                "velocity": 32,
                "duration": 0.08409090909091788,
                "tempo": 120.0
            },
            {
                "start_time": 108.28181818181818,
                "end_time": 108.36590909090908,
                "pitch": 60,
                "velocity": 32,
                "duration": 0.08409090909090366,
                "tempo": 120.0
            },
            {
                "start_time": 108.3840909090909,
                "end_time": 108.46818181818182,
                "pitch": 53,
                "velocity": 32,
                "duration": 0.08409090909091788,
                "tempo": 120.0
            },
            {
                "start_time": 108.48409090909091,
                "end_time": 108.56818181818181,
                "pitch": 60,
                "velocity": 32,
                "duration": 0.08409090909090366,
                "tempo": 120.0
            },
            {
                "start_time": 108.5840909090909,
                "end_time": 108.66818181818181,
                "pitch": 53,
                "velocity": 32,
                "duration": 0.08409090909090366,
                "tempo": 120.0
            },
            {
                "start_time": 108.68636363636364,
                "end_time": 108.76818181818182,
                "pitch": 60,
                "velocity": 32,
                "duration": 0.08181818181817846,
                "tempo": 120.0
            },
            {
                "start_time": 108.78636363636363,
                "end_time": 108.86818181818181,
                "pitch": 53,
                "velocity": 32,
                "duration": 0.08181818181817846,
                "tempo": 120.0
            },
            {
                "start_time": 108.88636363636363,
                "end_time": 108.96818181818182,
                "pitch": 60,
                "velocity": 32,
                "duration": 0.08181818181819267,
                "tempo": 120.0
            },
            {
                "start_time": 108.98636363636363,
                "end_time": 109.06818181818181,
                "pitch": 53,
                "velocity": 32,
                "duration": 0.08181818181817846,
                "tempo": 120.0
            },
            {
                "start_time": 109.08636363636363,
                "end_time": 109.16818181818181,
                "pitch": 69,
                "velocity": 32,
                "duration": 0.08181818181817846,
                "tempo": 120.0
            },
            {
                "start_time": 109.18636363636364,
                "end_time": 109.27045454545454,
                "pitch": 60,
                "velocity": 32,
                "duration": 0.08409090909090366,
                "tempo": 120.0
            },
            {
                "start_time": 109.28636363636363,
                "end_time": 109.37045454545454,
                "pitch": 69,
                "velocity": 32,
                "duration": 0.08409090909090366,
                "tempo": 120.0
            },
            {
                "start_time": 109.38636363636363,
                "end_time": 109.47045454545454,
                "pitch": 60,
                "velocity": 32,
                "duration": 0.08409090909091788,
                "tempo": 120.0
            },
            {
                "start_time": 109.48863636363636,
                "end_time": 109.57272727272726,
                "pitch": 69,
                "velocity": 32,
                "duration": 0.08409090909090366,
                "tempo": 120.0
            },
            {
                "start_time": 109.58863636363635,
                "end_time": 109.67272727272727,
                "pitch": 60,
                "velocity": 32,
                "duration": 0.08409090909091788,
                "tempo": 120.0
            },
            {
                "start_time": 109.68863636363636,
                "end_time": 109.77272727272727,
                "pitch": 69,
                "velocity": 32,
                "duration": 0.08409090909090366,
                "tempo": 120.0
            },
            {
                "start_time": 109.79090909090908,
                "end_time": 109.875,
                "pitch": 60,
                "velocity": 32,
                "duration": 0.08409090909091788,
                "tempo": 120.0
            },
            {
                "start_time": 109.89090909090909,
                "end_time": 109.975,
                "pitch": 68,
                "velocity": 32,
                "duration": 0.08409090909090366,
                "tempo": 120.0
            },
            {
                "start_time": 109.99090909090908,
                "end_time": 110.07499999999999,
                "pitch": 59,
                "velocity": 32,
                "duration": 0.08409090909090366,
                "tempo": 120.0
            },
            {
                "start_time": 110.09090909090908,
                "end_time": 110.175,
                "pitch": 69,
                "velocity": 32,
                "duration": 0.08409090909091788,
                "tempo": 120.0
            },
            {
                "start_time": 110.19090909090909,
                "end_time": 110.27499999999999,
                "pitch": 59,
                "velocity": 32,
                "duration": 0.08409090909090366,
                "tempo": 120.0
            },
            {
                "start_time": 110.29090909090908,
                "end_time": 110.375,
                "pitch": 69,
                "velocity": 32,
                "duration": 0.08409090909091788,
                "tempo": 120.0
            },
            {
                "start_time": 110.39090909090909,
                "end_time": 110.475,
                "pitch": 59,
                "velocity": 32,
                "duration": 0.08409090909090366,
                "tempo": 120.0
            },
            {
                "start_time": 110.49090909090908,
                "end_time": 110.57499999999999,
                "pitch": 69,
                "velocity": 32,
                "duration": 0.08409090909090366,
                "tempo": 120.0
            },
            {
                "start_time": 110.59318181818182,
                "end_time": 110.67727272727272,
                "pitch": 59,
                "velocity": 32,
                "duration": 0.08409090909090366,
                "tempo": 120.0
            },
            {
                "start_time": 110.69318181818181,
                "end_time": 110.77727272727272,
                "pitch": 59,
                "velocity": 32,
                "duration": 0.08409090909090366,
                "tempo": 120.0
            },
            {
                "start_time": 110.79318181818181,
                "end_time": 110.87727272727273,
                "pitch": 57,
                "velocity": 32,
                "duration": 0.08409090909091788,
                "tempo": 120.0
            },
            {
                "start_time": 110.89318181818182,
                "end_time": 110.97727272727272,
                "pitch": 69,
                "velocity": 32,
                "duration": 0.08409090909090366,
                "tempo": 120.0
            },
            {
                "start_time": 110.99318181818181,
                "end_time": 111.07727272727273,
                "pitch": 59,
                "velocity": 32,
                "duration": 0.08409090909091788,
                "tempo": 120.0
            },
            {
                "start_time": 111.09318181818182,
                "end_time": 111.17727272727272,
                "pitch": 69,
                "velocity": 32,
                "duration": 0.08409090909090366,
                "tempo": 120.0
            },
            {
                "start_time": 111.19318181818181,
                "end_time": 111.27727272727272,
                "pitch": 57,
                "velocity": 32,
                "duration": 0.08409090909090366,
                "tempo": 120.0
            },
            {
                "start_time": 111.29545454545455,
                "end_time": 111.37954545454545,
                "pitch": 68,
                "velocity": 32,
                "duration": 0.08409090909090366,
                "tempo": 120.0
            },
            {
                "start_time": 111.39545454545454,
                "end_time": 111.47954545454544,
                "pitch": 56,
                "velocity": 32,
                "duration": 0.08409090909090366,
                "tempo": 120.0
            },
            {
                "start_time": 111.49545454545454,
                "end_time": 111.57954545454545,
                "pitch": 69,
                "velocity": 32,
                "duration": 0.08409090909091788,
                "tempo": 120.0
            },
            {
                "start_time": 111.59772727272727,
                "end_time": 111.67954545454545,
                "pitch": 55,
                "velocity": 32,
                "duration": 0.08181818181817846,
                "tempo": 120.0
            },
            {
                "start_time": 111.69772727272726,
                "end_time": 111.78181818181818,
                "pitch": 69,
                "velocity": 32,
                "duration": 0.08409090909091788,
                "tempo": 120.0
            },
            {
                "start_time": 111.79772727272727,
                "end_time": 111.88181818181818,
                "pitch": 55,
                "velocity": 32,
                "duration": 0.08409090909090366,
                "tempo": 120.0
            },
            {
                "start_time": 111.89772727272727,
                "end_time": 111.98181818181817,
                "pitch": 71,
                "velocity": 32,
                "duration": 0.08409090909090366,
                "tempo": 120.0
            },
            {
                "start_time": 111.99772727272726,
                "end_time": 112.08181818181818,
                "pitch": 55,
                "velocity": 32,
                "duration": 0.08409090909091788,
                "tempo": 120.0
            },
            {
                "start_time": 112.09772727272727,
                "end_time": 112.18181818181817,
                "pitch": 72,
                "velocity": 32,
                "duration": 0.08409090909090366,
                "tempo": 120.0
            },
            {
                "start_time": 112.19772727272726,
                "end_time": 112.28181818181818,
                "pitch": 55,
                "velocity": 32,
                "duration": 0.08409090909091788,
                "tempo": 120.0
            },
            {
                "start_time": 112.29772727272727,
                "end_time": 112.38181818181818,
                "pitch": 74,
                "velocity": 32,
                "duration": 0.08409090909090366,
                "tempo": 120.0
            },
            {
                "start_time": 112.39999999999999,
                "end_time": 112.48409090909091,
                "pitch": 52,
                "velocity": 32,
                "duration": 0.08409090909091788,
                "tempo": 120.0
            },
            {
                "start_time": 112.5,
                "end_time": 112.5840909090909,
                "pitch": 69,
                "velocity": 32,
                "duration": 0.08409090909090366,
                "tempo": 120.0
            },
            {
                "start_time": 112.6,
                "end_time": 112.6840909090909,
                "pitch": 52,
                "velocity": 32,
                "duration": 0.08409090909090366,
                "tempo": 120.0
            },
            {
                "start_time": 112.70227272727273,
                "end_time": 112.7840909090909,
                "pitch": 72,
                "velocity": 32,
                "duration": 0.08181818181817846,
                "tempo": 120.0
            },
            {
                "start_time": 112.80227272727272,
                "end_time": 112.8840909090909,
                "pitch": 57,
                "velocity": 32,
                "duration": 0.08181818181817846,
                "tempo": 120.0
            },
            {
                "start_time": 112.90227272727272,
                "end_time": 112.98409090909091,
                "pitch": 71,
                "velocity": 32,
                "duration": 0.08181818181819267,
                "tempo": 120.0
            },
            {
                "start_time": 113.00227272727273,
                "end_time": 113.0840909090909,
                "pitch": 57,
                "velocity": 32,
                "duration": 0.08181818181817846,
                "tempo": 120.0
            },
            {
                "start_time": 113.10227272727272,
                "end_time": 113.18636363636364,
                "pitch": 72,
                "velocity": 32,
                "duration": 0.08409090909091788,
                "tempo": 120.0
            },
            {
                "start_time": 113.20227272727273,
                "end_time": 113.28636363636363,
                "pitch": 59,
                "velocity": 32,
                "duration": 0.08409090909090366,
                "tempo": 120.0
            },
            {
                "start_time": 113.30227272727272,
                "end_time": 113.38636363636363,
                "pitch": 69,
                "velocity": 32,
                "duration": 0.08409090909090366,
                "tempo": 120.0
            },
            {
                "start_time": 113.40227272727272,
                "end_time": 113.48636363636363,
                "pitch": 59,
                "velocity": 32,
                "duration": 0.08409090909091788,
                "tempo": 120.0
            },
            {
                "start_time": 113.50454545454545,
                "end_time": 113.58863636363635,
                "pitch": 74,
                "velocity": 32,
                "duration": 0.08409090909090366,
                "tempo": 120.0
            },
            {
                "start_time": 113.60454545454544,
                "end_time": 113.68863636363636,
                "pitch": 57,
                "velocity": 32,
                "duration": 0.08409090909091788,
                "tempo": 120.0
            },
            {
                "start_time": 113.70454545454545,
                "end_time": 113.78863636363636,
                "pitch": 76,
                "velocity": 32,
                "duration": 0.08409090909090366,
                "tempo": 120.0
            },
            {
                "start_time": 113.80681818181817,
                "end_time": 113.89090909090909,
                "pitch": 59,
                "velocity": 32,
                "duration": 0.08409090909091788,
                "tempo": 120.0
            },
            {
                "start_time": 113.90681818181818,
                "end_time": 113.99090909090908,
                "pitch": 77,
                "velocity": 32,
                "duration": 0.08409090909090366,
                "tempo": 120.0
            },
            {
                "start_time": 114.00681818181818,
                "end_time": 114.09090909090908,
                "pitch": 60,
                "velocity": 32,
                "duration": 0.08409090909090366,
                "tempo": 120.0
            },
            {
                "start_time": 114.10681818181817,
                "end_time": 114.19090909090909,
                "pitch": 69,
                "velocity": 32,
                "duration": 0.08409090909091788,
                "tempo": 120.0
            },
            {
                "start_time": 114.20681818181818,
                "end_time": 114.29090909090908,
                "pitch": 60,
                "velocity": 32,
                "duration": 0.08409090909090366,
                "tempo": 120.0
            },
            {
                "start_time": 114.30681818181817,
                "end_time": 114.39090909090909,
                "pitch": 76,
                "velocity": 32,
                "duration": 0.08409090909091788,
                "tempo": 120.0
            },
            {
                "start_time": 114.40681818181818,
                "end_time": 114.49090909090908,
                "pitch": 59,
                "velocity": 32,
                "duration": 0.08409090909090366,
                "tempo": 120.0
            },
            {
                "start_time": 114.5090909090909,
                "end_time": 114.59090909090908,
                "pitch": 69,
                "velocity": 32,
                "duration": 0.08181818181817846,
                "tempo": 120.0
            },
            {
                "start_time": 114.60909090909091,
                "end_time": 114.69318181818181,
                "pitch": 60,
                "velocity": 32,
                "duration": 0.08409090909090366,
                "tempo": 120.0
            },
            {
                "start_time": 114.7090909090909,
                "end_time": 114.79318181818181,
                "pitch": 69,
                "velocity": 32,
                "duration": 0.08409090909090366,
                "tempo": 120.0
            },
            {
                "start_time": 114.8090909090909,
                "end_time": 114.89318181818182,
                "pitch": 62,
                "velocity": 32,
                "duration": 0.08409090909091788,
                "tempo": 120.0
            },
            {
                "start_time": 114.9090909090909,
                "end_time": 114.99318181818181,
                "pitch": 57,
                "velocity": 32,
                "duration": 0.08409090909090366,
                "tempo": 120.0
            },
            {
                "start_time": 115.0090909090909,
                "end_time": 115.09318181818182,
                "pitch": 69,
                "velocity": 32,
                "duration": 0.08409090909091788,
                "tempo": 120.0
            },
            {
                "start_time": 115.10909090909091,
                "end_time": 115.19318181818181,
                "pitch": 57,
                "velocity": 32,
                "duration": 0.08409090909090366,
                "tempo": 120.0
            },
            {
                "start_time": 115.2090909090909,
                "end_time": 115.29318181818181,
                "pitch": 62,
                "velocity": 32,
                "duration": 0.08409090909090366,
                "tempo": 120.0
            },
            {
                "start_time": 115.31136363636364,
                "end_time": 115.39545454545454,
                "pitch": 69,
                "velocity": 32,
                "duration": 0.08409090909090366,
                "tempo": 120.0
            },
            {
                "start_time": 115.41136363636363,
                "end_time": 115.49545454545454,
                "pitch": 62,
                "velocity": 32,
                "duration": 0.08409090909090366,
                "tempo": 120.0
            },
            {
                "start_time": 115.51136363636363,
                "end_time": 115.59545454545454,
                "pitch": 69,
                "velocity": 32,
                "duration": 0.08409090909091788,
                "tempo": 120.0
            },
            {
                "start_time": 115.61363636363636,
                "end_time": 115.69772727272726,
                "pitch": 60,
                "velocity": 32,
                "duration": 0.08409090909090366,
                "tempo": 120.0
            },
            {
                "start_time": 115.71363636363635,
                "end_time": 115.79772727272727,
                "pitch": 69,
                "velocity": 32,
                "duration": 0.08409090909091788,
                "tempo": 120.0
            },
            {
                "start_time": 115.81363636363636,
                "end_time": 115.89772727272727,
                "pitch": 60,
                "velocity": 32,
                "duration": 0.08409090909090366,
                "tempo": 120.0
            },
            {
                "start_time": 115.91590909090908,
                "end_time": 115.99772727272726,
                "pitch": 69,
                "velocity": 32,
                "duration": 0.08181818181817846,
                "tempo": 120.0
            },
            {
                "start_time": 116.01590909090909,
                "end_time": 116.09772727272727,
                "pitch": 60,
                "velocity": 32,
                "duration": 0.08181818181817846,
                "tempo": 120.0
            },
            {
                "start_time": 116.11590909090908,
                "end_time": 116.19772727272726,
                "pitch": 69,
                "velocity": 32,
                "duration": 0.08181818181817846,
                "tempo": 120.0
            },
            {
                "start_time": 116.21590909090908,
                "end_time": 116.29772727272727,
                "pitch": 60,
                "velocity": 32,
                "duration": 0.08181818181819267,
                "tempo": 120.0
            },
            {
                "start_time": 116.31590909090909,
                "end_time": 116.39772727272727,
                "pitch": 68,
                "velocity": 32,
                "duration": 0.08181818181817846,
                "tempo": 120.0
            },
            {
                "start_time": 116.41590909090908,
                "end_time": 116.5,
                "pitch": 59,
                "velocity": 32,
                "duration": 0.08409090909091788,
                "tempo": 120.0
            },
            {
                "start_time": 116.51590909090909,
                "end_time": 116.6,
                "pitch": 69,
                "velocity": 32,
                "duration": 0.08409090909090366,
                "tempo": 120.0
            },
            {
                "start_time": 116.61590909090908,
                "end_time": 116.69999999999999,
                "pitch": 59,
                "velocity": 32,
                "duration": 0.08409090909090366,
                "tempo": 120.0
            },
            {
                "start_time": 116.71818181818182,
                "end_time": 116.8,
                "pitch": 69,
                "velocity": 32,
                "duration": 0.08181818181817846,
                "tempo": 120.0
            },
            {
                "start_time": 116.81818181818181,
                "end_time": 116.89999999999999,
                "pitch": 59,
                "velocity": 32,
                "duration": 0.08181818181817846,
                "tempo": 120.0
            },
            {
                "start_time": 116.91818181818181,
                "end_time": 117.0,
                "pitch": 69,
                "velocity": 32,
                "duration": 0.08181818181819267,
                "tempo": 120.0
            },
            {
                "start_time": 117.01818181818182,
                "end_time": 117.1,
                "pitch": 59,
                "velocity": 32,
                "duration": 0.08181818181817846,
                "tempo": 120.0
            },
            {
                "start_time": 117.11818181818181,
                "end_time": 117.20227272727273,
                "pitch": 59,
                "velocity": 32,
                "duration": 0.08409090909091788,
                "tempo": 120.0
            },
            {
                "start_time": 117.21818181818182,
                "end_time": 117.30227272727272,
                "pitch": 57,
                "velocity": 32,
                "duration": 0.08409090909090366,
                "tempo": 120.0
            },
            {
                "start_time": 117.31818181818181,
                "end_time": 117.40227272727272,
                "pitch": 69,
                "velocity": 32,
                "duration": 0.08409090909090366,
                "tempo": 120.0
            },
            {
                "start_time": 117.42045454545455,
                "end_time": 117.50227272727273,
                "pitch": 59,
                "velocity": 32,
                "duration": 0.08181818181817846,
                "tempo": 120.0
            },
            {
                "start_time": 117.52045454545454,
                "end_time": 117.60454545454544,
                "pitch": 69,
                "velocity": 32,
                "duration": 0.08409090909090366,
                "tempo": 120.0
            },
            {
                "start_time": 117.62045454545454,
                "end_time": 117.70454545454545,
                "pitch": 57,
                "velocity": 32,
                "duration": 0.08409090909091788,
                "tempo": 120.0
            },
            {
                "start_time": 117.72045454545454,
                "end_time": 117.80454545454545,
                "pitch": 68,
                "velocity": 32,
                "duration": 0.08409090909090366,
                "tempo": 120.0
            },
            {
                "start_time": 117.82272727272726,
                "end_time": 117.90681818181818,
                "pitch": 56,
                "velocity": 32,
                "duration": 0.08409090909091788,
                "tempo": 120.0
            },
            {
                "start_time": 117.92272727272727,
                "end_time": 118.00681818181818,
                "pitch": 69,
                "velocity": 32,
                "duration": 0.08409090909090366,
                "tempo": 120.0
            },
            {
                "start_time": 118.02272727272727,
                "end_time": 118.10681818181817,
                "pitch": 55,
                "velocity": 32,
                "duration": 0.08409090909090366,
                "tempo": 120.0
            },
            {
                "start_time": 118.12272727272726,
                "end_time": 118.20681818181818,
                "pitch": 69,
                "velocity": 32,
                "duration": 0.08409090909091788,
                "tempo": 120.0
            },
            {
                "start_time": 118.22272727272727,
                "end_time": 118.30681818181817,
                "pitch": 55,
                "velocity": 32,
                "duration": 0.08409090909090366,
                "tempo": 120.0
            },
            {
                "start_time": 118.32272727272726,
                "end_time": 118.40681818181818,
                "pitch": 71,
                "velocity": 32,
                "duration": 0.08409090909091788,
                "tempo": 120.0
            },
            {
                "start_time": 118.42272727272727,
                "end_time": 118.50681818181818,
                "pitch": 55,
                "velocity": 32,
                "duration": 0.08409090909090366,
                "tempo": 120.0
            },
            {
                "start_time": 118.52499999999999,
                "end_time": 118.60909090909091,
                "pitch": 72,
                "velocity": 32,
                "duration": 0.08409090909091788,
                "tempo": 120.0
            },
            {
                "start_time": 118.625,
                "end_time": 118.7090909090909,
                "pitch": 55,
                "velocity": 32,
                "duration": 0.08409090909090366,
                "tempo": 120.0
            },
            {
                "start_time": 118.725,
                "end_time": 118.8090909090909,
                "pitch": 74,
                "velocity": 32,
                "duration": 0.08409090909090366,
                "tempo": 120.0
            },
            {
                "start_time": 118.82499999999999,
                "end_time": 118.9090909090909,
                "pitch": 52,
                "velocity": 32,
                "duration": 0.08409090909091788,
                "tempo": 120.0
            },
            {
                "start_time": 118.925,
                "end_time": 119.0090909090909,
                "pitch": 72,
                "velocity": 32,
                "duration": 0.08409090909090366,
                "tempo": 120.0
            },
            {
                "start_time": 119.02499999999999,
                "end_time": 119.10909090909091,
                "pitch": 52,
                "velocity": 32,
                "duration": 0.08409090909091788,
                "tempo": 120.0
            },
            {
                "start_time": 119.125,
                "end_time": 119.2090909090909,
                "pitch": 71,
                "velocity": 32,
                "duration": 0.08409090909090366,
                "tempo": 120.0
            },
            {
                "start_time": 119.22727272727272,
                "end_time": 119.3090909090909,
                "pitch": 57,
                "velocity": 32,
                "duration": 0.08181818181817846,
                "tempo": 120.0
            },
            {
                "start_time": 119.32727272727273,
                "end_time": 119.41136363636363,
                "pitch": 69,
                "velocity": 32,
                "duration": 0.08409090909090366,
                "tempo": 120.0
            },
            {
                "start_time": 119.42727272727272,
                "end_time": 119.51136363636363,
                "pitch": 57,
                "velocity": 32,
                "duration": 0.08409090909090366,
                "tempo": 120.0
            },
            {
                "start_time": 119.52727272727272,
                "end_time": 119.61136363636363,
                "pitch": 72,
                "velocity": 32,
                "duration": 0.08409090909091788,
                "tempo": 120.0
            },
            {
                "start_time": 119.62954545454545,
                "end_time": 119.71363636363635,
                "pitch": 50,
                "velocity": 32,
                "duration": 0.08409090909090366,
                "tempo": 120.0
            },
            {
                "start_time": 119.72954545454544,
                "end_time": 119.81363636363636,
                "pitch": 71,
                "velocity": 32,
                "duration": 0.08409090909091788,
                "tempo": 120.0
            },
            {
                "start_time": 119.82954545454545,
                "end_time": 119.91363636363636,
                "pitch": 50,
                "velocity": 32,
                "duration": 0.08409090909090366,
                "tempo": 120.0
            },
            {
                "start_time": 119.93181818181817,
                "end_time": 120.01363636363635,
                "pitch": 69,
                "velocity": 32,
                "duration": 0.08181818181817846,
                "tempo": 120.0
            },
            {
                "start_time": 120.03181818181818,
                "end_time": 120.11363636363636,
                "pitch": 59,
                "velocity": 32,
                "duration": 0.08181818181817846,
                "tempo": 120.0
            },
            {
                "start_time": 120.13181818181818,
                "end_time": 120.21363636363635,
                "pitch": 68,
                "velocity": 32,
                "duration": 0.08181818181817846,
                "tempo": 120.0
            },
            {
                "start_time": 120.23181818181817,
                "end_time": 120.31363636363636,
                "pitch": 59,
                "velocity": 32,
                "duration": 0.08181818181819267,
                "tempo": 120.0
            },
            {
                "start_time": 120.33181818181818,
                "end_time": 120.41590909090908,
                "pitch": 69,
                "velocity": 32,
                "duration": 0.08409090909090366,
                "tempo": 120.0
            },
            {
                "start_time": 120.43181818181817,
                "end_time": 120.51590909090909,
                "pitch": 57,
                "velocity": 32,
                "duration": 0.08409090909091788,
                "tempo": 120.0
            },
            {
                "start_time": 120.53181818181818,
                "end_time": 120.61590909090908,
                "pitch": 71,
                "velocity": 32,
                "duration": 0.08409090909090366,
                "tempo": 120.0
            },
            {
                "start_time": 120.63181818181818,
                "end_time": 120.71590909090908,
                "pitch": 57,
                "velocity": 32,
                "duration": 0.08409090909090366,
                "tempo": 120.0
            },
            {
                "start_time": 120.73409090909091,
                "end_time": 120.81590909090909,
                "pitch": 72,
                "velocity": 32,
                "duration": 0.08181818181817846,
                "tempo": 120.0
            },
            {
                "start_time": 120.8340909090909,
                "end_time": 120.91590909090908,
                "pitch": 57,
                "velocity": 32,
                "duration": 0.08181818181817846,
                "tempo": 120.0
            },
            {
                "start_time": 120.9340909090909,
                "end_time": 121.01590909090909,
                "pitch": 72,
                "velocity": 32,
                "duration": 0.08181818181819267,
                "tempo": 120.0
            },
            {
                "start_time": 121.0340909090909,
                "end_time": 121.11590909090908,
                "pitch": 57,
                "velocity": 32,
                "duration": 0.08181818181817846,
                "tempo": 120.0
            },
            {
                "start_time": 121.1340909090909,
                "end_time": 121.21818181818182,
                "pitch": 71,
                "velocity": 32,
                "duration": 0.08409090909091788,
                "tempo": 120.0
            },
            {
                "start_time": 121.23409090909091,
                "end_time": 121.31818181818181,
                "pitch": 57,
                "velocity": 32,
                "duration": 0.08409090909090366,
                "tempo": 120.0
            },
            {
                "start_time": 121.3340909090909,
                "end_time": 121.41818181818181,
                "pitch": 72,
                "velocity": 32,
                "duration": 0.08409090909090366,
                "tempo": 120.0
            },
            {
                "start_time": 121.43636363636364,
                "end_time": 121.52045454545454,
                "pitch": 57,
                "velocity": 32,
                "duration": 0.08409090909090366,
                "tempo": 120.0
            },
            {
                "start_time": 121.53636363636363,
                "end_time": 121.62045454545454,
                "pitch": 74,
                "velocity": 32,
                "duration": 0.08409090909090366,
                "tempo": 120.0
            },
            {
                "start_time": 121.63636363636363,
                "end_time": 121.72045454545454,
                "pitch": 57,
                "velocity": 32,
                "duration": 0.08409090909091788,
                "tempo": 120.0
            },
            {
                "start_time": 121.73863636363636,
                "end_time": 121.82045454545454,
                "pitch": 74,
                "velocity": 32,
                "duration": 0.08181818181817846,
                "tempo": 120.0
            },
            {
                "start_time": 121.83863636363635,
                "end_time": 121.92272727272727,
                "pitch": 57,
                "velocity": 32,
                "duration": 0.08409090909091788,
                "tempo": 120.0
            }
        ],
        "Vibraphone": [
            {
                "start_time": 32.875,
                "end_time": 33.50909090909091,
                "pitch": 71,
                "velocity": 51,
                "duration": 0.6340909090909079,
                "tempo": 120.0
            },
            {
                "start_time": 33.675,
                "end_time": 34.309090909090905,
                "pitch": 72,
                "velocity": 51,
                "duration": 0.6340909090909079,
                "tempo": 120.0
            },
            {
                "start_time": 34.475,
                "end_time": 35.111363636363635,
                "pitch": 71,
                "velocity": 51,
                "duration": 0.6363636363636331,
                "tempo": 120.0
            },
            {
                "start_time": 35.277272727272724,
                "end_time": 35.91136363636363,
                "pitch": 75,
                "velocity": 51,
                "duration": 0.6340909090909079,
                "tempo": 120.0
            },
            {
                "start_time": 36.07727272727273,
                "end_time": 36.39545454545454,
                "pitch": 77,
                "velocity": 51,
                "duration": 0.318181818181813,
                "tempo": 120.0
            },
            {
                "start_time": 36.47727272727273,
                "end_time": 36.79772727272727,
                "pitch": 74,
                "velocity": 51,
                "duration": 0.3204545454545453,
                "tempo": 120.0
            },
            {
                "start_time": 36.88181818181818,
                "end_time": 37.51363636363636,
                "pitch": 75,
                "velocity": 51,
                "duration": 0.6318181818181756,
                "tempo": 120.0
            },
            {
                "start_time": 37.68181818181818,
                "end_time": 38.31363636363636,
                "pitch": 74,
                "velocity": 51,
                "duration": 0.6318181818181827,
                "tempo": 120.0
            },
            {
                "start_time": 38.48181818181818,
                "end_time": 39.11590909090909,
                "pitch": 72,
                "velocity": 51,
                "duration": 0.634090909090915,
                "tempo": 120.0
            },
            {
                "start_time": 39.28409090909091,
                "end_time": 39.91590909090909,
                "pitch": 71,
                "velocity": 51,
                "duration": 0.6318181818181827,
                "tempo": 120.0
            },
            {
                "start_time": 40.084090909090904,
                "end_time": 40.71818181818182,
                "pitch": 72,
                "velocity": 51,
                "duration": 0.634090909090915,
                "tempo": 120.0
            },
            {
                "start_time": 40.88636363636363,
                "end_time": 41.52045454545454,
                "pitch": 74,
                "velocity": 51,
                "duration": 0.6340909090909079,
                "tempo": 120.0
            },
            {
                "start_time": 41.68636363636364,
                "end_time": 42.320454545454545,
                "pitch": 79,
                "velocity": 51,
                "duration": 0.6340909090909079,
                "tempo": 120.0
            },
            {
                "start_time": 42.486363636363635,
                "end_time": 43.12272727272727,
                "pitch": 77,
                "velocity": 51,
                "duration": 0.6363636363636331,
                "tempo": 120.0
            },
            {
                "start_time": 43.288636363636364,
                "end_time": 43.92272727272727,
                "pitch": 75,
                "velocity": 51,
                "duration": 0.6340909090909079,
                "tempo": 120.0
            },
            {
                "start_time": 44.08863636363636,
                "end_time": 44.288636363636364,
                "pitch": 74,
                "velocity": 51,
                "duration": 0.20000000000000284,
                "tempo": 120.0
            },
            {
                "start_time": 44.35454545454545,
                "end_time": 44.55681818181818,
                "pitch": 77,
                "velocity": 51,
                "duration": 0.20227272727272805,
                "tempo": 120.0
            },
            {
                "start_time": 44.62272727272727,
                "end_time": 44.824999999999996,
                "pitch": 83,
                "velocity": 51,
                "duration": 0.20227272727272805,
                "tempo": 120.0
            },
            {
                "start_time": 44.89090909090909,
                "end_time": 45.525,
                "pitch": 72,
                "velocity": 51,
                "duration": 0.6340909090909079,
                "tempo": 120.0
            },
            {
                "start_time": 45.69090909090909,
                "end_time": 46.324999999999996,
                "pitch": 71,
                "velocity": 51,
                "duration": 0.6340909090909079,
                "tempo": 120.0
            },
            {
                "start_time": 46.49090909090909,
                "end_time": 46.643181818181816,
                "pitch": 76,
                "velocity": 51,
                "duration": 0.15227272727272378,
                "tempo": 120.0
            },
            {
                "start_time": 46.89545454545454,
                "end_time": 47.04545454545454,
                "pitch": 74,
                "velocity": 51,
                "duration": 0.14999999999999858,
                "tempo": 120.0
            },
            {
                "start_time": 47.095454545454544,
                "end_time": 47.24545454545454,
                "pitch": 72,
                "velocity": 51,
                "duration": 0.14999999999999858,
                "tempo": 120.0
            },
            {
                "start_time": 47.29545454545454,
                "end_time": 47.39545454545454,
                "pitch": 71,
                "velocity": 51,
                "duration": 0.10000000000000142,
                "tempo": 120.0
            },
            {
                "start_time": 47.42727272727272,
                "end_time": 47.527272727272724,
                "pitch": 69,
                "velocity": 51,
                "duration": 0.10000000000000142,
                "tempo": 120.0
            },
            {
                "start_time": 47.56136363636364,
                "end_time": 47.66136363636363,
                "pitch": 68,
                "velocity": 51,
                "duration": 0.09999999999999432,
                "tempo": 120.0
            },
            {
                "start_time": 47.695454545454545,
                "end_time": 47.79545454545454,
                "pitch": 65,
                "velocity": 51,
                "duration": 0.09999999999999432,
                "tempo": 120.0
            },
            {
                "start_time": 47.82727272727273,
                "end_time": 47.92727272727272,
                "pitch": 64,
                "velocity": 51,
                "duration": 0.09999999999999432,
                "tempo": 120.0
            },
            {
                "start_time": 47.961363636363636,
                "end_time": 48.06136363636364,
                "pitch": 62,
                "velocity": 51,
                "duration": 0.10000000000000142,
                "tempo": 120.0
            },
            {
                "start_time": 48.095454545454544,
                "end_time": 48.195454545454545,
                "pitch": 64,
                "velocity": 51,
                "duration": 0.10000000000000142,
                "tempo": 120.0
            },
            {
                "start_time": 48.22727272727273,
                "end_time": 48.32727272727273,
                "pitch": 72,
                "velocity": 51,
                "duration": 0.10000000000000142,
                "tempo": 120.0
            },
            {
                "start_time": 48.361363636363635,
                "end_time": 48.461363636363636,
                "pitch": 64,
                "velocity": 51,
                "duration": 0.10000000000000142,
                "tempo": 120.0
            },
            {
                "start_time": 48.49545454545454,
                "end_time": 48.595454545454544,
                "pitch": 72,
                "velocity": 51,
                "duration": 0.10000000000000142,
                "tempo": 120.0
            },
            {
                "start_time": 48.62954545454545,
                "end_time": 48.72954545454545,
                "pitch": 64,
                "velocity": 51,
                "duration": 0.10000000000000142,
                "tempo": 120.0
            },
            {
                "start_time": 48.76363636363636,
                "end_time": 48.86363636363636,
                "pitch": 72,
                "velocity": 51,
                "duration": 0.10000000000000142,
                "tempo": 120.0
            },
            {
                "start_time": 48.89772727272727,
                "end_time": 48.99772727272727,
                "pitch": 65,
                "velocity": 51,
                "duration": 0.09999999999999432,
                "tempo": 120.0
            },
            {
                "start_time": 49.02954545454545,
                "end_time": 49.12954545454545,
                "pitch": 74,
                "velocity": 51,
                "duration": 0.10000000000000142,
                "tempo": 120.0
            },
            {
                "start_time": 49.163636363636364,
                "end_time": 49.26363636363636,
                "pitch": 65,
                "velocity": 51,
                "duration": 0.09999999999999432,
                "tempo": 120.0
            },
            {
                "start_time": 49.29772727272727,
                "end_time": 49.39772727272727,
                "pitch": 74,
                "velocity": 51,
                "duration": 0.10000000000000142,
                "tempo": 120.0
            },
            {
                "start_time": 49.429545454545455,
                "end_time": 49.52954545454545,
                "pitch": 65,
                "velocity": 51,
                "duration": 0.09999999999999432,
                "tempo": 120.0
            },
            {
                "start_time": 49.56363636363636,
                "end_time": 49.663636363636364,
                "pitch": 74,
                "velocity": 51,
                "duration": 0.10000000000000142,
                "tempo": 120.0
            },
            {
                "start_time": 49.69772727272727,
                "end_time": 49.74772727272727,
                "pitch": 76,
                "velocity": 51,
                "duration": 0.04999999999999716,
                "tempo": 120.0
            },
            {
                "start_time": 49.76363636363636,
                "end_time": 49.81363636363636,
                "pitch": 69,
                "velocity": 51,
                "duration": 0.05000000000000426,
                "tempo": 120.0
            },
            {
                "start_time": 49.82954545454545,
                "end_time": 49.87954545454545,
                "pitch": 74,
                "velocity": 51,
                "duration": 0.04999999999999716,
                "tempo": 120.0
            },
            {
                "start_time": 49.89772727272727,
                "end_time": 49.94772727272727,
                "pitch": 67,
                "velocity": 51,
                "duration": 0.04999999999999716,
                "tempo": 120.0
            },
            {
                "start_time": 49.96363636363636,
                "end_time": 50.01363636363636,
                "pitch": 72,
                "velocity": 51,
                "duration": 0.04999999999999716,
                "tempo": 120.0
            },
            {
                "start_time": 50.02954545454545,
                "end_time": 50.07954545454545,
                "pitch": 64,
                "velocity": 51,
                "duration": 0.05000000000000426,
                "tempo": 120.0
            },
            {
                "start_time": 50.09772727272727,
                "end_time": 50.19772727272727,
                "pitch": 48,
                "velocity": 51,
                "duration": 0.10000000000000142,
                "tempo": 120.0
            },
            {
                "start_time": 50.22954545454545,
                "end_time": 50.32954545454545,
                "pitch": 50,
                "velocity": 51,
                "duration": 0.10000000000000142,
                "tempo": 120.0
            },
            {
                "start_time": 50.36363636363636,
                "end_time": 50.46363636363636,
                "pitch": 52,
                "velocity": 51,
                "duration": 0.10000000000000142,
                "tempo": 120.0
            },
            {
                "start_time": 50.49772727272727,
                "end_time": 50.58181818181818,
                "pitch": 62,
                "velocity": 51,
                "duration": 0.08409090909091077,
                "tempo": 120.0
            },
            {
                "start_time": 50.59772727272727,
                "end_time": 50.68181818181818,
                "pitch": 60,
                "velocity": 51,
                "duration": 0.08409090909091077,
                "tempo": 120.0
            },
            {
                "start_time": 50.69772727272727,
                "end_time": 50.78181818181818,
                "pitch": 59,
                "velocity": 51,
                "duration": 0.08409090909091077,
                "tempo": 120.0
            },
            {
                "start_time": 50.8,
                "end_time": 50.88181818181818,
                "pitch": 57,
                "velocity": 51,
                "duration": 0.08181818181818556,
                "tempo": 120.0
            },
            {
                "start_time": 50.9,
                "end_time": 50.98409090909091,
                "pitch": 50,
                "velocity": 51,
                "duration": 0.08409090909091077,
                "tempo": 120.0
            },
            {
                "start_time": 51.0,
                "end_time": 51.084090909090904,
                "pitch": 52,
                "velocity": 51,
                "duration": 0.08409090909090366,
                "tempo": 120.0
            },
            {
                "start_time": 51.099999999999994,
                "end_time": 51.184090909090905,
                "pitch": 53,
                "velocity": 51,
                "duration": 0.08409090909091077,
                "tempo": 120.0
            },
            {
                "start_time": 51.199999999999996,
                "end_time": 51.28409090909091,
                "pitch": 56,
                "velocity": 51,
                "duration": 0.08409090909091077,
                "tempo": 120.0
            },
            {
                "start_time": 51.3,
                "end_time": 51.38409090909091,
                "pitch": 69,
                "velocity": 51,
                "duration": 0.08409090909091077,
                "tempo": 120.0
            },
            {
                "start_time": 51.4,
                "end_time": 51.48409090909091,
                "pitch": 71,
                "velocity": 51,
                "duration": 0.08409090909091077,
                "tempo": 120.0
            },
            {
                "start_time": 51.5,
                "end_time": 51.584090909090904,
                "pitch": 72,
                "velocity": 51,
                "duration": 0.08409090909090366,
                "tempo": 120.0
            },
            {
                "start_time": 51.599999999999994,
                "end_time": 51.684090909090905,
                "pitch": 74,
                "velocity": 51,
                "duration": 0.08409090909091077,
                "tempo": 120.0
            },
            {
                "start_time": 51.699999999999996,
                "end_time": 51.78409090909091,
                "pitch": 76,
                "velocity": 51,
                "duration": 0.08409090909091077,
                "tempo": 120.0
            },
            {
                "start_time": 51.8,
                "end_time": 51.88409090909091,
                "pitch": 77,
                "velocity": 51,
                "duration": 0.08409090909091077,
                "tempo": 120.0
            },
            {
                "start_time": 51.9,
                "end_time": 51.98409090909091,
                "pitch": 80,
                "velocity": 51,
                "duration": 0.08409090909091077,
                "tempo": 120.0
            },
            {
                "start_time": 52.0,
                "end_time": 52.084090909090904,
                "pitch": 81,
                "velocity": 51,
                "duration": 0.08409090909090366,
                "tempo": 120.0
            },
            {
                "start_time": 52.099999999999994,
                "end_time": 52.184090909090905,
                "pitch": 83,
                "velocity": 51,
                "duration": 0.08409090909091077,
                "tempo": 120.0
            },
            {
                "start_time": 52.199999999999996,
                "end_time": 52.28409090909091,
                "pitch": 81,
                "velocity": 51,
                "duration": 0.08409090909091077,
                "tempo": 120.0
            },
            {
                "start_time": 52.3,
                "end_time": 52.38409090909091,
                "pitch": 80,
                "velocity": 51,
                "duration": 0.08409090909091077,
                "tempo": 120.0
            },
            {
                "start_time": 52.4,
                "end_time": 52.55,
                "pitch": 77,
                "velocity": 51,
                "duration": 0.14999999999999858,
                "tempo": 120.0
            },
            {
                "start_time": 52.599999999999994,
                "end_time": 52.684090909090905,
                "pitch": 80,
                "velocity": 51,
                "duration": 0.08409090909091077,
                "tempo": 120.0
            },
            {
                "start_time": 52.699999999999996,
                "end_time": 52.78409090909091,
                "pitch": 77,
                "velocity": 51,
                "duration": 0.08409090909091077,
                "tempo": 120.0
            },
            {
                "start_time": 52.80227272727272,
                "end_time": 52.88636363636363,
                "pitch": 76,
                "velocity": 51,
                "duration": 0.08409090909091077,
                "tempo": 120.0
            },
            {
                "start_time": 52.902272727272724,
                "end_time": 53.002272727272725,
                "pitch": 81,
                "velocity": 51,
                "duration": 0.10000000000000142,
                "tempo": 120.0
            },
            {
                "start_time": 53.03636363636363,
                "end_time": 53.13636363636363,
                "pitch": 72,
                "velocity": 51,
                "duration": 0.10000000000000142,
                "tempo": 120.0
            },
            {
                "start_time": 53.168181818181814,
                "end_time": 53.268181818181816,
                "pitch": 81,
                "velocity": 51,
                "duration": 0.10000000000000142,
                "tempo": 120.0
            },
            {
                "start_time": 53.30227272727272,
                "end_time": 53.402272727272724,
                "pitch": 72,
                "velocity": 51,
                "duration": 0.10000000000000142,
                "tempo": 120.0
            },
            {
                "start_time": 53.43636363636363,
                "end_time": 53.53636363636363,
                "pitch": 81,
                "velocity": 51,
                "duration": 0.10000000000000142,
                "tempo": 120.0
            },
            {
                "start_time": 53.56818181818181,
                "end_time": 53.668181818181814,
                "pitch": 72,
                "velocity": 51,
                "duration": 0.10000000000000142,
                "tempo": 120.0
            },
            {
                "start_time": 53.70227272727273,
                "end_time": 53.85227272727273,
                "pitch": 81,
                "velocity": 51,
                "duration": 0.14999999999999858,
                "tempo": 120.0
            },
            {
                "start_time": 53.902272727272724,
                "end_time": 54.05227272727272,
                "pitch": 74,
                "velocity": 51,
                "duration": 0.14999999999999858,
                "tempo": 120.0
            },
            {
                "start_time": 54.10227272727273,
                "end_time": 54.252272727272725,
                "pitch": 81,
                "velocity": 51,
                "duration": 0.14999999999999858,
                "tempo": 120.0
            },
            {
                "start_time": 54.30227272727272,
                "end_time": 54.45227272727273,
                "pitch": 74,
                "velocity": 51,
                "duration": 0.15000000000000568,
                "tempo": 120.0
            },
            {
                "start_time": 54.502272727272725,
                "end_time": 54.60227272727273,
                "pitch": 81,
                "velocity": 51,
                "duration": 0.10000000000000142,
                "tempo": 120.0
            },
            {
                "start_time": 54.63636363636363,
                "end_time": 54.736363636363635,
                "pitch": 76,
                "velocity": 51,
                "duration": 0.10000000000000142,
                "tempo": 120.0
            },
            {
                "start_time": 54.77045454545454,
                "end_time": 54.87045454545454,
                "pitch": 81,
                "velocity": 51,
                "duration": 0.10000000000000142,
                "tempo": 120.0
            },
            {
                "start_time": 54.90454545454545,
                "end_time": 55.00454545454545,
                "pitch": 76,
                "velocity": 51,
                "duration": 0.10000000000000142,
                "tempo": 120.0
            },
            {
                "start_time": 55.038636363636364,
                "end_time": 55.13863636363636,
                "pitch": 81,
                "velocity": 51,
                "duration": 0.09999999999999432,
                "tempo": 120.0
            },
            {
                "start_time": 55.17272727272727,
                "end_time": 55.27272727272727,
                "pitch": 76,
                "velocity": 51,
                "duration": 0.10000000000000142,
                "tempo": 120.0
            },
            {
                "start_time": 55.304545454545455,
                "end_time": 55.38863636363636,
                "pitch": 83,
                "velocity": 51,
                "duration": 0.08409090909090366,
                "tempo": 120.0
            },
            {
                "start_time": 55.40454545454545,
                "end_time": 55.48863636363636,
                "pitch": 80,
                "velocity": 51,
                "duration": 0.08409090909091077,
                "tempo": 120.0
            },
            {
                "start_time": 55.50454545454545,
                "end_time": 55.58863636363636,
                "pitch": 77,
                "velocity": 51,
                "duration": 0.08409090909091077,
                "tempo": 120.0
            },
            {
                "start_time": 55.60454545454545,
                "end_time": 55.68863636363636,
                "pitch": 74,
                "velocity": 51,
                "duration": 0.08409090909091077,
                "tempo": 120.0
            },
            {
                "start_time": 55.70454545454545,
                "end_time": 55.788636363636364,
                "pitch": 80,
                "velocity": 51,
                "duration": 0.08409090909091077,
                "tempo": 120.0
            },
            {
                "start_time": 55.804545454545455,
                "end_time": 55.88863636363636,
                "pitch": 77,
                "velocity": 51,
                "duration": 0.08409090909090366,
                "tempo": 120.0
            },
            {
                "start_time": 55.90454545454545,
                "end_time": 55.98863636363636,
                "pitch": 74,
                "velocity": 51,
                "duration": 0.08409090909091077,
                "tempo": 120.0
            },
            {
                "start_time": 56.00454545454545,
                "end_time": 56.08863636363636,
                "pitch": 71,
                "velocity": 51,
                "duration": 0.08409090909091077,
                "tempo": 120.0
            },
            {
                "start_time": 56.10454545454545,
                "end_time": 56.25454545454545,
                "pitch": 69,
                "velocity": 51,
                "duration": 0.14999999999999858,
                "tempo": 120.0
            },
            {
                "start_time": 56.50454545454545,
                "end_time": 56.65681818181818,
                "pitch": 72,
                "velocity": 51,
                "duration": 0.1522727272727309,
                "tempo": 120.0
            },
            {
                "start_time": 56.90681818181818,
                "end_time": 57.05681818181818,
                "pitch": 71,
                "velocity": 51,
                "duration": 0.14999999999999858,
                "tempo": 120.0
            },
            {
                "start_time": 57.70681818181818,
                "end_time": 58.340909090909086,
                "pitch": 57,
                "velocity": 51,
                "duration": 0.6340909090909079,
                "tempo": 120.0
            },
            {
                "start_time": 58.506818181818176,
                "end_time": 59.143181818181816,
                "pitch": 55,
                "velocity": 51,
                "duration": 0.6363636363636402,
                "tempo": 120.0
            },
            {
                "start_time": 59.31136363636363,
                "end_time": 59.94318181818181,
                "pitch": 54,
                "velocity": 51,
                "duration": 0.6318181818181827,
                "tempo": 120.0
            },
            {
                "start_time": 60.111363636363635,
                "end_time": 60.74545454545454,
                "pitch": 52,
                "velocity": 51,
                "duration": 0.6340909090909079,
                "tempo": 120.0
            },
            {
                "start_time": 60.913636363636364,
                "end_time": 61.54545454545454,
                "pitch": 52,
                "velocity": 51,
                "duration": 0.6318181818181756,
                "tempo": 120.0
            },
            {
                "start_time": 61.71363636363636,
                "end_time": 62.345454545454544,
                "pitch": 50,
                "velocity": 51,
                "duration": 0.6318181818181827,
                "tempo": 120.0
            },
            {
                "start_time": 62.51363636363636,
                "end_time": 63.15,
                "pitch": 48,
                "velocity": 51,
                "duration": 0.6363636363636402,
                "tempo": 120.0
            },
            {
                "start_time": 63.31590909090909,
                "end_time": 63.949999999999996,
                "pitch": 47,
                "velocity": 51,
                "duration": 0.6340909090909079,
                "tempo": 120.0
            },
            {
                "start_time": 64.11590909090908,
                "end_time": 64.75,
                "pitch": 57,
                "velocity": 51,
                "duration": 0.634090909090915,
                "tempo": 120.0
            },
            {
                "start_time": 64.91590909090908,
                "end_time": 65.55227272727272,
                "pitch": 55,
                "velocity": 51,
                "duration": 0.6363636363636402,
                "tempo": 120.0
            },
            {
                "start_time": 65.72045454545454,
                "end_time": 66.35681818181818,
                "pitch": 54,
                "velocity": 51,
                "duration": 0.6363636363636402,
                "tempo": 120.0
            },
            {
                "start_time": 66.52272727272727,
                "end_time": 67.1590909090909,
                "pitch": 56,
                "velocity": 51,
                "duration": 0.6363636363636402,
                "tempo": 120.0
            },
            {
                "start_time": 67.32727272727273,
                "end_time": 67.96363636363635,
                "pitch": 57,
                "velocity": 51,
                "duration": 0.636363636363626,
                "tempo": 120.0
            },
            {
                "start_time": 68.12954545454545,
                "end_time": 68.76590909090909,
                "pitch": 59,
                "velocity": 51,
                "duration": 0.6363636363636402,
                "tempo": 120.0
            },
            {
                "start_time": 68.93181818181817,
                "end_time": 69.57045454545454,
                "pitch": 60,
                "velocity": 51,
                "duration": 0.6386363636363654,
                "tempo": 120.0
            },
            {
                "start_time": 69.73636363636363,
                "end_time": 70.37272727272727,
                "pitch": 62,
                "velocity": 51,
                "duration": 0.6363636363636402,
                "tempo": 120.0
            },
            {
                "start_time": 70.95,
                "end_time": 71.0340909090909,
                "pitch": 67,
                "velocity": 51,
                "duration": 0.08409090909090366,
                "tempo": 120.0
            },
            {
                "start_time": 71.05227272727272,
                "end_time": 71.13636363636363,
                "pitch": 60,
                "velocity": 51,
                "duration": 0.08409090909090366,
                "tempo": 120.0
            },
            {
                "start_time": 71.15227272727273,
                "end_time": 71.23636363636363,
                "pitch": 63,
                "velocity": 51,
                "duration": 0.08409090909090366,
                "tempo": 120.0
            },
            {
                "start_time": 71.25227272727273,
                "end_time": 71.33636363636363,
                "pitch": 60,
                "velocity": 51,
                "duration": 0.08409090909090366,
                "tempo": 120.0
            },
            {
                "start_time": 71.35454545454544,
                "end_time": 71.50454545454545,
                "pitch": 59,
                "velocity": 51,
                "duration": 0.15000000000000568,
                "tempo": 120.0
            },
            {
                "start_time": 71.75454545454545,
                "end_time": 71.83636363636363,
                "pitch": 68,
                "velocity": 51,
                "duration": 0.08181818181817846,
                "tempo": 120.0
            },
            {
                "start_time": 71.85227272727272,
                "end_time": 71.93409090909091,
                "pitch": 60,
                "velocity": 51,
                "duration": 0.08181818181819267,
                "tempo": 120.0
            },
            {
                "start_time": 71.95,
                "end_time": 72.03181818181818,
                "pitch": 62,
                "velocity": 51,
                "duration": 0.08181818181817846,
                "tempo": 120.0
            },
            {
                "start_time": 72.04772727272727,
                "end_time": 72.12954545454545,
                "pitch": 60,
                "velocity": 51,
                "duration": 0.08181818181817846,
                "tempo": 120.0
            },
            {
                "start_time": 72.14545454545454,
                "end_time": 72.3,
                "pitch": 62,
                "velocity": 51,
                "duration": 0.1545454545454561,
                "tempo": 120.0
            },
            {
                "start_time": 72.55681818181817,
                "end_time": 72.63863636363637,
                "pitch": 60,
                "velocity": 51,
                "duration": 0.08181818181819267,
                "tempo": 120.0
            },
            {
                "start_time": 72.65454545454546,
                "end_time": 72.73636363636363,
                "pitch": 60,
                "velocity": 51,
                "duration": 0.08181818181817846,
                "tempo": 120.0
            },
            {
                "start_time": 72.75227272727273,
                "end_time": 72.8340909090909,
                "pitch": 63,
                "velocity": 51,
                "duration": 0.08181818181817846,
                "tempo": 120.0
            },
            {
                "start_time": 72.85,
                "end_time": 72.93181818181817,
                "pitch": 59,
                "velocity": 51,
                "duration": 0.08181818181817846,
                "tempo": 120.0
            },
            {
                "start_time": 72.94772727272726,
                "end_time": 73.10227272727272,
                "pitch": 60,
                "velocity": 51,
                "duration": 0.1545454545454561,
                "tempo": 120.0
            },
            {
                "start_time": 74.15227272727272,
                "end_time": 74.23409090909091,
                "pitch": 60,
                "velocity": 51,
                "duration": 0.08181818181819267,
                "tempo": 120.0
            },
            {
                "start_time": 74.25227272727273,
                "end_time": 74.33636363636363,
                "pitch": 60,
                "velocity": 51,
                "duration": 0.08409090909090366,
                "tempo": 120.0
            },
            {
                "start_time": 74.35227272727272,
                "end_time": 74.43636363636364,
                "pitch": 63,
                "velocity": 51,
                "duration": 0.08409090909091788,
                "tempo": 120.0
            },
            {
                "start_time": 74.45227272727273,
                "end_time": 74.53636363636363,
                "pitch": 60,
                "velocity": 51,
                "duration": 0.08409090909090366,
                "tempo": 120.0
            },
            {
                "start_time": 74.55454545454545,
                "end_time": 74.70681818181818,
                "pitch": 59,
                "velocity": 51,
                "duration": 0.1522727272727309,
                "tempo": 120.0
            },
            {
                "start_time": 74.96363636363635,
                "end_time": 75.04545454545455,
                "pitch": 68,
                "velocity": 51,
                "duration": 0.08181818181819267,
                "tempo": 120.0
            },
            {
                "start_time": 75.06363636363636,
                "end_time": 75.14318181818182,
                "pitch": 60,
                "velocity": 51,
                "duration": 0.07954545454545325,
                "tempo": 120.0
            },
            {
                "start_time": 75.16136363636363,
                "end_time": 75.24318181818181,
                "pitch": 65,
                "velocity": 51,
                "duration": 0.08181818181817846,
                "tempo": 120.0
            },
            {
                "start_time": 75.2590909090909,
                "end_time": 75.3409090909091,
                "pitch": 60,
                "velocity": 51,
                "duration": 0.08181818181819267,
                "tempo": 120.0
            },
            {
                "start_time": 75.35681818181818,
                "end_time": 75.44090909090909,
                "pitch": 60,
                "velocity": 51,
                "duration": 0.08409090909090366,
                "tempo": 120.0
            },
            {
                "start_time": 75.4590909090909,
                "end_time": 75.54545454545455,
                "pitch": 55,
                "velocity": 51,
                "duration": 0.08636363636364308,
                "tempo": 120.0
            },
            {
                "start_time": 75.76818181818182,
                "end_time": 75.85227272727272,
                "pitch": 67,
                "velocity": 51,
                "duration": 0.08409090909090366,
                "tempo": 120.0
            },
            {
                "start_time": 75.86818181818181,
                "end_time": 75.95227272727273,
                "pitch": 63,
                "velocity": 51,
                "duration": 0.08409090909091788,
                "tempo": 120.0
            },
            {
                "start_time": 76.17045454545455,
                "end_time": 76.25227272727273,
                "pitch": 59,
                "velocity": 51,
                "duration": 0.08181818181817846,
                "tempo": 120.0
            },
            {
                "start_time": 76.26818181818182,
                "end_time": 76.35,
                "pitch": 50,
                "velocity": 51,
                "duration": 0.08181818181817846,
                "tempo": 120.0
            },
            {
                "start_time": 76.56136363636364,
                "end_time": 76.64545454545454,
                "pitch": 65,
                "velocity": 51,
                "duration": 0.08409090909090366,
                "tempo": 120.0
            },
            {
                "start_time": 76.66136363636363,
                "end_time": 76.74545454545454,
                "pitch": 67,
                "velocity": 51,
                "duration": 0.08409090909090366,
                "tempo": 120.0
            },
            {
                "start_time": 77.37272727272727,
                "end_time": 77.45454545454545,
                "pitch": 67,
                "velocity": 51,
                "duration": 0.08181818181817846,
                "tempo": 120.0
            },
            {
                "start_time": 77.47045454545454,
                "end_time": 77.55227272727272,
                "pitch": 60,
                "velocity": 51,
                "duration": 0.08181818181817846,
                "tempo": 120.0
            },
            {
                "start_time": 77.56818181818181,
                "end_time": 77.64999999999999,
                "pitch": 63,
                "velocity": 51,
                "duration": 0.08181818181817846,
                "tempo": 120.0
            },
            {
                "start_time": 77.66590909090908,
                "end_time": 77.74772727272727,
                "pitch": 60,
                "velocity": 51,
                "duration": 0.08181818181819267,
                "tempo": 120.0
            },
            {
                "start_time": 77.76590909090909,
                "end_time": 77.91818181818181,
                "pitch": 59,
                "velocity": 51,
                "duration": 0.15227272727271668,
                "tempo": 120.0
            },
            {
                "start_time": 78.175,
                "end_time": 78.25681818181818,
                "pitch": 68,
                "velocity": 51,
                "duration": 0.08181818181817846,
                "tempo": 120.0
            },
            {
                "start_time": 78.27272727272727,
                "end_time": 78.35454545454544,
                "pitch": 60,
                "velocity": 51,
                "duration": 0.08181818181817846,
                "tempo": 120.0
            },
            {
                "start_time": 78.37272727272727,
                "end_time": 78.45227272727273,
                "pitch": 62,
                "velocity": 51,
                "duration": 0.07954545454545325,
                "tempo": 120.0
            },
            {
                "start_time": 78.47045454545454,
                "end_time": 78.55227272727272,
                "pitch": 60,
                "velocity": 51,
                "duration": 0.08181818181817846,
                "tempo": 120.0
            },
            {
                "start_time": 78.56818181818181,
                "end_time": 78.72045454545454,
                "pitch": 62,
                "velocity": 51,
                "duration": 0.1522727272727309,
                "tempo": 120.0
            },
            {
                "start_time": 78.97727272727272,
                "end_time": 79.05909090909091,
                "pitch": 60,
                "velocity": 51,
                "duration": 0.08181818181819267,
                "tempo": 120.0
            },
            {
                "start_time": 79.07727272727273,
                "end_time": 79.15681818181818,
                "pitch": 60,
                "velocity": 51,
                "duration": 0.07954545454545325,
                "tempo": 120.0
            },
            {
                "start_time": 79.175,
                "end_time": 79.25681818181818,
                "pitch": 63,
                "velocity": 51,
                "duration": 0.08181818181817846,
                "tempo": 120.0
            },
            {
                "start_time": 79.27272727272727,
                "end_time": 79.35454545454544,
                "pitch": 59,
                "velocity": 51,
                "duration": 0.08181818181817846,
                "tempo": 120.0
            },
            {
                "start_time": 79.37045454545454,
                "end_time": 79.52499999999999,
                "pitch": 60,
                "velocity": 51,
                "duration": 0.1545454545454561,
                "tempo": 120.0
            },
            {
                "start_time": 80.575,
                "end_time": 80.6590909090909,
                "pitch": 60,
                "velocity": 51,
                "duration": 0.08409090909090366,
                "tempo": 120.0
            },
            {
                "start_time": 80.675,
                "end_time": 80.7590909090909,
                "pitch": 60,
                "velocity": 51,
                "duration": 0.08409090909090366,
                "tempo": 120.0
            },
            {
                "start_time": 80.77499999999999,
                "end_time": 80.85909090909091,
                "pitch": 63,
                "velocity": 51,
                "duration": 0.08409090909091788,
                "tempo": 120.0
            },
            {
                "start_time": 80.875,
                "end_time": 80.9590909090909,
                "pitch": 60,
                "velocity": 51,
                "duration": 0.08409090909090366,
                "tempo": 120.0
            },
            {
                "start_time": 80.975,
                "end_time": 81.12727272727273,
                "pitch": 59,
                "velocity": 51,
                "duration": 0.1522727272727309,
                "tempo": 120.0
            },
            {
                "start_time": 81.37954545454545,
                "end_time": 81.46136363636363,
                "pitch": 68,
                "velocity": 51,
                "duration": 0.08181818181817846,
                "tempo": 120.0
            },
            {
                "start_time": 81.47954545454544,
                "end_time": 81.56363636363636,
                "pitch": 60,
                "velocity": 51,
                "duration": 0.08409090909091788,
                "tempo": 120.0
            },
            {
                "start_time": 81.57954545454545,
                "end_time": 81.66363636363636,
                "pitch": 65,
                "velocity": 51,
                "duration": 0.08409090909090366,
                "tempo": 120.0
            },
            {
                "start_time": 81.67954545454545,
                "end_time": 81.76363636363637,
                "pitch": 60,
                "velocity": 51,
                "duration": 0.08409090909091788,
                "tempo": 120.0
            },
            {
                "start_time": 82.18181818181817,
                "end_time": 82.26590909090909,
                "pitch": 67,
                "velocity": 51,
                "duration": 0.08409090909091788,
                "tempo": 120.0
            },
            {
                "start_time": 82.28181818181818,
                "end_time": 82.36590909090908,
                "pitch": 67,
                "velocity": 51,
                "duration": 0.08409090909090366,
                "tempo": 120.0
            },
            {
                "start_time": 82.38181818181818,
                "end_time": 82.4659090909091,
                "pitch": 72,
                "velocity": 51,
                "duration": 0.08409090909091788,
                "tempo": 120.0
            },
            {
                "start_time": 82.48409090909091,
                "end_time": 82.56590909090909,
                "pitch": 67,
                "velocity": 51,
                "duration": 0.08181818181817846,
                "tempo": 120.0
            },
            {
                "start_time": 82.98409090909091,
                "end_time": 83.06818181818181,
                "pitch": 65,
                "velocity": 51,
                "duration": 0.08409090909090366,
                "tempo": 120.0
            },
            {
                "start_time": 83.0840909090909,
                "end_time": 83.16818181818181,
                "pitch": 67,
                "velocity": 51,
                "duration": 0.08409090909090366,
                "tempo": 120.0
            },
            {
                "start_time": 83.1840909090909,
                "end_time": 83.26818181818182,
                "pitch": 70,
                "velocity": 51,
                "duration": 0.08409090909091788,
                "tempo": 120.0
            },
            {
                "start_time": 83.28636363636363,
                "end_time": 83.37045454545454,
                "pitch": 67,
                "velocity": 51,
                "duration": 0.08409090909090366,
                "tempo": 120.0
            },
            {
                "start_time": 83.40227272727272,
                "end_time": 122.57727272727273,
                "pitch": 60,
                "velocity": 51,
                "duration": 39.17500000000001,
                "tempo": 120.0
            },
            {
                "start_time": 122.74090909090908,
                "end_time": 123.37727272727273,
                "pitch": 71,
                "velocity": 51,
                "duration": 0.6363636363636402,
                "tempo": 120.0
            },
            {
                "start_time": 123.54545454545453,
                "end_time": 124.17954545454545,
                "pitch": 72,
                "velocity": 51,
                "duration": 0.634090909090915,
                "tempo": 120.0
            },
            {
                "start_time": 124.34772727272727,
                "end_time": 124.98409090909091,
                "pitch": 71,
                "velocity": 51,
                "duration": 0.6363636363636402,
                "tempo": 120.0
            },
            {
                "start_time": 125.14999999999999,
                "end_time": 125.78863636363636,
                "pitch": 75,
                "velocity": 51,
                "duration": 0.6386363636363654,
                "tempo": 120.0
            },
            {
                "start_time": 125.95454545454545,
                "end_time": 126.27272727272727,
                "pitch": 77,
                "velocity": 51,
                "duration": 0.318181818181813,
                "tempo": 120.0
            },
            {
                "start_time": 126.35454545454544,
                "end_time": 126.675,
                "pitch": 74,
                "velocity": 51,
                "duration": 0.32045454545455243,
                "tempo": 120.0
            },
            {
                "start_time": 126.7590909090909,
                "end_time": 127.39318181818182,
                "pitch": 75,
                "velocity": 51,
                "duration": 0.634090909090915,
                "tempo": 120.0
            },
            {
                "start_time": 127.56136363636362,
                "end_time": 128.19772727272726,
                "pitch": 74,
                "velocity": 51,
                "duration": 0.6363636363636402,
                "tempo": 120.0
            },
            {
                "start_time": 128.36363636363635,
                "end_time": 129.0,
                "pitch": 72,
                "velocity": 51,
                "duration": 0.6363636363636545,
                "tempo": 120.0
            },
            {
                "start_time": 129.16590909090908,
                "end_time": 129.80454545454546,
                "pitch": 71,
                "velocity": 51,
                "duration": 0.6386363636363797,
                "tempo": 120.0
            },
            {
                "start_time": 129.97045454545454,
                "end_time": 130.60681818181817,
                "pitch": 72,
                "velocity": 51,
                "duration": 0.636363636363626,
                "tempo": 120.0
            },
            {
                "start_time": 130.775,
                "end_time": 131.41136363636363,
                "pitch": 74,
                "velocity": 51,
                "duration": 0.636363636363626,
                "tempo": 120.0
            },
            {
                "start_time": 131.57954545454544,
                "end_time": 132.21818181818182,
                "pitch": 79,
                "velocity": 51,
                "duration": 0.6386363636363797,
                "tempo": 120.0
            },
            {
                "start_time": 132.3840909090909,
                "end_time": 133.02045454545453,
                "pitch": 77,
                "velocity": 51,
                "duration": 0.636363636363626,
                "tempo": 120.0
            },
            {
                "start_time": 133.18863636363636,
                "end_time": 133.825,
                "pitch": 75,
                "velocity": 51,
                "duration": 0.636363636363626,
                "tempo": 120.0
            },
            {
                "start_time": 133.99318181818182,
                "end_time": 134.1931818181818,
                "pitch": 74,
                "velocity": 51,
                "duration": 0.19999999999998863,
                "tempo": 120.0
            },
            {
                "start_time": 134.26136363636363,
                "end_time": 134.46136363636364,
                "pitch": 77,
                "velocity": 51,
                "duration": 0.20000000000001705,
                "tempo": 120.0
            },
            {
                "start_time": 134.525,
                "end_time": 134.72272727272727,
                "pitch": 83,
                "velocity": 51,
                "duration": 0.19772727272726343,
                "tempo": 120.0
            },
            {
                "start_time": 134.78863636363636,
                "end_time": 135.4340909090909,
                "pitch": 72,
                "velocity": 51,
                "duration": 0.6454545454545553,
                "tempo": 120.0
            },
            {
                "start_time": 135.6,
                "end_time": 136.23863636363635,
                "pitch": 71,
                "velocity": 51,
                "duration": 0.6386363636363512,
                "tempo": 120.0
            },
            {
                "start_time": 136.40681818181818,
                "end_time": 136.5568181818182,
                "pitch": 76,
                "velocity": 51,
                "duration": 0.15000000000000568,
                "tempo": 120.0
            },
            {
                "start_time": 136.8068181818182,
                "end_time": 136.95681818181816,
                "pitch": 74,
                "velocity": 51,
                "duration": 0.14999999999997726,
                "tempo": 120.0
            },
            {
                "start_time": 137.00681818181818,
                "end_time": 137.1590909090909,
                "pitch": 72,
                "velocity": 51,
                "duration": 0.1522727272727309,
                "tempo": 120.0
            },
            {
                "start_time": 137.2090909090909,
                "end_time": 137.3090909090909,
                "pitch": 71,
                "velocity": 51,
                "duration": 0.10000000000002274,
                "tempo": 120.0
            },
            {
                "start_time": 137.34318181818182,
                "end_time": 137.4431818181818,
                "pitch": 69,
                "velocity": 51,
                "duration": 0.09999999999999432,
                "tempo": 120.0
            },
            {
                "start_time": 137.47727272727272,
                "end_time": 137.5772727272727,
                "pitch": 68,
                "velocity": 51,
                "duration": 0.09999999999999432,
                "tempo": 120.0
            },
            {
                "start_time": 137.61136363636362,
                "end_time": 137.71363636363637,
                "pitch": 65,
                "velocity": 51,
                "duration": 0.10227272727274794,
                "tempo": 120.0
            },
            {
                "start_time": 137.74545454545455,
                "end_time": 137.84772727272727,
                "pitch": 64,
                "velocity": 51,
                "duration": 0.10227272727271952,
                "tempo": 120.0
            },
            {
                "start_time": 137.87954545454545,
                "end_time": 137.98181818181817,
                "pitch": 62,
                "velocity": 51,
                "duration": 0.10227272727271952,
                "tempo": 120.0
            },
            {
                "start_time": 138.01363636363635,
                "end_time": 138.11590909090907,
                "pitch": 64,
                "velocity": 51,
                "duration": 0.10227272727271952,
                "tempo": 120.0
            },
            {
                "start_time": 138.14772727272725,
                "end_time": 138.25,
                "pitch": 72,
                "velocity": 51,
                "duration": 0.10227272727274794,
                "tempo": 120.0
            },
            {
                "start_time": 138.2840909090909,
                "end_time": 138.3840909090909,
                "pitch": 64,
                "velocity": 51,
                "duration": 0.09999999999999432,
                "tempo": 120.0
            },
            {
                "start_time": 138.4181818181818,
                "end_time": 138.5181818181818,
                "pitch": 72,
                "velocity": 51,
                "duration": 0.09999999999999432,
                "tempo": 120.0
            },
            {
                "start_time": 138.54999999999998,
                "end_time": 138.65,
                "pitch": 64,
                "velocity": 51,
                "duration": 0.10000000000002274,
                "tempo": 120.0
            },
            {
                "start_time": 138.6840909090909,
                "end_time": 138.7840909090909,
                "pitch": 72,
                "velocity": 51,
                "duration": 0.09999999999999432,
                "tempo": 120.0
            },
            {
                "start_time": 138.8181818181818,
                "end_time": 138.9181818181818,
                "pitch": 65,
                "velocity": 51,
                "duration": 0.09999999999999432,
                "tempo": 120.0
            },
            {
                "start_time": 138.9522727272727,
                "end_time": 139.0522727272727,
                "pitch": 74,
                "velocity": 51,
                "duration": 0.09999999999999432,
                "tempo": 120.0
            },
            {
                "start_time": 139.08636363636364,
                "end_time": 139.18636363636364,
                "pitch": 65,
                "velocity": 51,
                "duration": 0.09999999999999432,
                "tempo": 120.0
            },
            {
                "start_time": 139.22045454545454,
                "end_time": 139.32045454545454,
                "pitch": 74,
                "velocity": 51,
                "duration": 0.09999999999999432,
                "tempo": 120.0
            },
            {
                "start_time": 139.35454545454544,
                "end_time": 139.45454545454544,
                "pitch": 65,
                "velocity": 51,
                "duration": 0.09999999999999432,
                "tempo": 120.0
            },
            {
                "start_time": 139.48863636363635,
                "end_time": 139.58863636363637,
                "pitch": 74,
                "velocity": 51,
                "duration": 0.10000000000002274,
                "tempo": 120.0
            },
            {
                "start_time": 139.62272727272727,
                "end_time": 139.67272727272726,
                "pitch": 76,
                "velocity": 51,
                "duration": 0.04999999999998295,
                "tempo": 120.0
            },
            {
                "start_time": 139.68863636363636,
                "end_time": 139.74090909090907,
                "pitch": 69,
                "velocity": 51,
                "duration": 0.05227272727270815,
                "tempo": 120.0
            },
            {
                "start_time": 139.75681818181818,
                "end_time": 139.8068181818182,
                "pitch": 74,
                "velocity": 51,
                "duration": 0.05000000000001137,
                "tempo": 120.0
            },
            {
                "start_time": 139.825,
                "end_time": 139.875,
                "pitch": 67,
                "velocity": 51,
                "duration": 0.05000000000001137,
                "tempo": 120.0
            },
            {
                "start_time": 139.89090909090908,
                "end_time": 139.9409090909091,
                "pitch": 72,
                "velocity": 51,
                "duration": 0.05000000000001137,
                "tempo": 120.0
            },
            {
                "start_time": 139.9590909090909,
                "end_time": 140.0090909090909,
                "pitch": 64,
                "velocity": 51,
                "duration": 0.05000000000001137,
                "tempo": 120.0
            },
            {
                "start_time": 140.025,
                "end_time": 140.125,
                "pitch": 48,
                "velocity": 51,
                "duration": 0.09999999999999432,
                "tempo": 120.0
            },
            {
                "start_time": 140.1590909090909,
                "end_time": 140.2590909090909,
                "pitch": 50,
                "velocity": 51,
                "duration": 0.09999999999999432,
                "tempo": 120.0
            },
            {
                "start_time": 140.2931818181818,
                "end_time": 140.39545454545453,
                "pitch": 52,
                "velocity": 51,
                "duration": 0.10227272727271952,
                "tempo": 120.0
            },
            {
                "start_time": 140.4272727272727,
                "end_time": 140.51136363636363,
                "pitch": 62,
                "velocity": 51,
                "duration": 0.08409090909091788,
                "tempo": 120.0
            },
            {
                "start_time": 140.52727272727273,
                "end_time": 140.61136363636362,
                "pitch": 60,
                "velocity": 51,
                "duration": 0.08409090909088945,
                "tempo": 120.0
            },
            {
                "start_time": 140.62727272727273,
                "end_time": 140.71136363636364,
                "pitch": 59,
                "velocity": 51,
                "duration": 0.08409090909091788,
                "tempo": 120.0
            },
            {
                "start_time": 140.72727272727272,
                "end_time": 140.81136363636364,
                "pitch": 57,
                "velocity": 51,
                "duration": 0.08409090909091788,
                "tempo": 120.0
            },
            {
                "start_time": 140.8272727272727,
                "end_time": 140.91136363636363,
                "pitch": 50,
                "velocity": 51,
                "duration": 0.08409090909091788,
                "tempo": 120.0
            },
            {
                "start_time": 140.92954545454546,
                "end_time": 141.01363636363635,
                "pitch": 52,
                "velocity": 51,
                "duration": 0.08409090909088945,
                "tempo": 120.0
            },
            {
                "start_time": 141.02954545454546,
                "end_time": 141.11363636363635,
                "pitch": 53,
                "velocity": 51,
                "duration": 0.08409090909088945,
                "tempo": 120.0
            },
            {
                "start_time": 141.12954545454545,
                "end_time": 141.21363636363637,
                "pitch": 56,
                "velocity": 51,
                "duration": 0.08409090909091788,
                "tempo": 120.0
            },
            {
                "start_time": 141.22954545454544,
                "end_time": 141.31363636363636,
                "pitch": 69,
                "velocity": 51,
                "duration": 0.08409090909091788,
                "tempo": 120.0
            },
            {
                "start_time": 141.33181818181816,
                "end_time": 141.41590909090908,
                "pitch": 71,
                "velocity": 51,
                "duration": 0.08409090909091788,
                "tempo": 120.0
            },
            {
                "start_time": 141.4318181818182,
                "end_time": 141.51590909090908,
                "pitch": 72,
                "velocity": 51,
                "duration": 0.08409090909088945,
                "tempo": 120.0
            },
            {
                "start_time": 141.53181818181818,
                "end_time": 141.61590909090907,
                "pitch": 74,
                "velocity": 51,
                "duration": 0.08409090909088945,
                "tempo": 120.0
            },
            {
                "start_time": 141.6340909090909,
                "end_time": 141.71818181818182,
                "pitch": 76,
                "velocity": 51,
                "duration": 0.08409090909091788,
                "tempo": 120.0
            },
            {
                "start_time": 141.7340909090909,
                "end_time": 141.8181818181818,
                "pitch": 77,
                "velocity": 51,
                "duration": 0.08409090909091788,
                "tempo": 120.0
            },
            {
                "start_time": 141.8340909090909,
                "end_time": 141.9181818181818,
                "pitch": 80,
                "velocity": 51,
                "duration": 0.08409090909091788,
                "tempo": 120.0
            },
            {
                "start_time": 141.93636363636364,
                "end_time": 142.0181818181818,
                "pitch": 81,
                "velocity": 51,
                "duration": 0.08181818181816425,
                "tempo": 120.0
            },
            {
                "start_time": 142.03636363636363,
                "end_time": 142.12045454545455,
                "pitch": 83,
                "velocity": 51,
                "duration": 0.08409090909091788,
                "tempo": 120.0
            },
            {
                "start_time": 142.13636363636363,
                "end_time": 142.22045454545454,
                "pitch": 81,
                "velocity": 51,
                "duration": 0.08409090909091788,
                "tempo": 120.0
            },
            {
                "start_time": 142.23636363636362,
                "end_time": 142.32045454545454,
                "pitch": 80,
                "velocity": 51,
                "duration": 0.08409090909091788,
                "tempo": 120.0
            },
            {
                "start_time": 142.33863636363637,
                "end_time": 142.48863636363635,
                "pitch": 77,
                "velocity": 51,
                "duration": 0.14999999999997726,
                "tempo": 120.0
            },
            {
                "start_time": 142.53863636363636,
                "end_time": 142.62272727272727,
                "pitch": 80,
                "velocity": 51,
                "duration": 0.08409090909091788,
                "tempo": 120.0
            },
            {
                "start_time": 142.63863636363635,
                "end_time": 142.72272727272727,
                "pitch": 77,
                "velocity": 51,
                "duration": 0.08409090909091788,
                "tempo": 120.0
            },
            {
                "start_time": 142.73863636363635,
                "end_time": 142.82272727272726,
                "pitch": 76,
                "velocity": 51,
                "duration": 0.08409090909091788,
                "tempo": 120.0
            },
            {
                "start_time": 142.83863636363637,
                "end_time": 142.93863636363636,
                "pitch": 81,
                "velocity": 51,
                "duration": 0.09999999999999432,
                "tempo": 120.0
            },
            {
                "start_time": 142.97272727272727,
                "end_time": 143.07272727272726,
                "pitch": 72,
                "velocity": 51,
                "duration": 0.09999999999999432,
                "tempo": 120.0
            },
            {
                "start_time": 143.10681818181817,
                "end_time": 143.20681818181816,
                "pitch": 81,
                "velocity": 51,
                "duration": 0.09999999999999432,
                "tempo": 120.0
            },
            {
                "start_time": 143.24090909090907,
                "end_time": 143.34318181818182,
                "pitch": 72,
                "velocity": 51,
                "duration": 0.10227272727274794,
                "tempo": 120.0
            },
            {
                "start_time": 143.375,
                "end_time": 143.47727272727272,
                "pitch": 81,
                "velocity": 51,
                "duration": 0.10227272727271952,
                "tempo": 120.0
            },
            {
                "start_time": 143.5090909090909,
                "end_time": 143.61136363636362,
                "pitch": 72,
                "velocity": 51,
                "duration": 0.10227272727271952,
                "tempo": 120.0
            },
            {
                "start_time": 143.6431818181818,
                "end_time": 143.79545454545453,
                "pitch": 81,
                "velocity": 51,
                "duration": 0.1522727272727309,
                "tempo": 120.0
            },
            {
                "start_time": 143.84545454545454,
                "end_time": 143.99545454545455,
                "pitch": 74,
                "velocity": 51,
                "duration": 0.15000000000000568,
                "tempo": 120.0
            },
            {
                "start_time": 144.04772727272726,
                "end_time": 144.19772727272726,
                "pitch": 81,
                "velocity": 51,
                "duration": 0.15000000000000568,
                "tempo": 120.0
            },
            {
                "start_time": 144.24772727272727,
                "end_time": 144.4,
                "pitch": 74,
                "velocity": 51,
                "duration": 0.1522727272727309,
                "tempo": 120.0
            },
            {
                "start_time": 144.45,
                "end_time": 144.54999999999998,
                "pitch": 81,
                "velocity": 51,
                "duration": 0.09999999999999432,
                "tempo": 120.0
            },
            {
                "start_time": 144.58181818181816,
                "end_time": 144.6818181818182,
                "pitch": 76,
                "velocity": 51,
                "duration": 0.10000000000002274,
                "tempo": 120.0
            },
            {
                "start_time": 144.7159090909091,
                "end_time": 144.8159090909091,
                "pitch": 81,
                "velocity": 51,
                "duration": 0.09999999999999432,
                "tempo": 120.0
            },
            {
                "start_time": 144.85,
                "end_time": 144.95,
                "pitch": 76,
                "velocity": 51,
                "duration": 0.09999999999999432,
                "tempo": 120.0
            },
            {
                "start_time": 144.9840909090909,
                "end_time": 145.0840909090909,
                "pitch": 81,
                "velocity": 51,
                "duration": 0.09999999999999432,
                "tempo": 120.0
            },
            {
                "start_time": 145.11818181818182,
                "end_time": 145.21818181818182,
                "pitch": 76,
                "velocity": 51,
                "duration": 0.09999999999999432,
                "tempo": 120.0
            },
            {
                "start_time": 145.25227272727273,
                "end_time": 145.33636363636364,
                "pitch": 83,
                "velocity": 51,
                "duration": 0.08409090909091788,
                "tempo": 120.0
            },
            {
                "start_time": 145.35227272727272,
                "end_time": 145.43636363636364,
                "pitch": 80,
                "velocity": 51,
                "duration": 0.08409090909091788,
                "tempo": 120.0
            },
            {
                "start_time": 145.45454545454544,
                "end_time": 145.53636363636363,
                "pitch": 77,
                "velocity": 51,
                "duration": 0.08181818181819267,
                "tempo": 120.0
            },
            {
                "start_time": 145.55454545454543,
                "end_time": 145.63863636363635,
                "pitch": 74,
                "velocity": 51,
                "duration": 0.08409090909091788,
                "tempo": 120.0
            },
            {
                "start_time": 145.65454545454546,
                "end_time": 145.73863636363635,
                "pitch": 80,
                "velocity": 51,
                "duration": 0.08409090909088945,
                "tempo": 120.0
            },
            {
                "start_time": 145.75454545454545,
                "end_time": 145.83863636363637,
                "pitch": 77,
                "velocity": 51,
                "duration": 0.08409090909091788,
                "tempo": 120.0
            },
            {
                "start_time": 145.85681818181817,
                "end_time": 145.9409090909091,
                "pitch": 74,
                "velocity": 51,
                "duration": 0.08409090909091788,
                "tempo": 120.0
            },
            {
                "start_time": 145.95681818181816,
                "end_time": 146.04090909090908,
                "pitch": 71,
                "velocity": 51,
                "duration": 0.08409090909091788,
                "tempo": 120.0
            },
            {
                "start_time": 146.0568181818182,
                "end_time": 146.2090909090909,
                "pitch": 69,
                "velocity": 51,
                "duration": 0.15227272727270247,
                "tempo": 120.0
            },
            {
                "start_time": 146.4590909090909,
                "end_time": 146.6090909090909,
                "pitch": 72,
                "velocity": 51,
                "duration": 0.15000000000000568,
                "tempo": 120.0
            },
            {
                "start_time": 146.8590909090909,
                "end_time": 147.01136363636363,
                "pitch": 71,
                "velocity": 51,
                "duration": 0.1522727272727309,
                "tempo": 120.0
            },
            {
                "start_time": 147.66590909090908,
                "end_time": 148.3022727272727,
                "pitch": 57,
                "velocity": 51,
                "duration": 0.636363636363626,
                "tempo": 120.0
            },
            {
                "start_time": 148.47045454545454,
                "end_time": 149.10681818181817,
                "pitch": 55,
                "velocity": 51,
                "duration": 0.636363636363626,
                "tempo": 120.0
            },
            {
                "start_time": 149.27272727272725,
                "end_time": 149.91136363636363,
                "pitch": 54,
                "velocity": 51,
                "duration": 0.6386363636363797,
                "tempo": 120.0
            },
            {
                "start_time": 150.07954545454544,
                "end_time": 150.7159090909091,
                "pitch": 52,
                "velocity": 51,
                "duration": 0.6363636363636545,
                "tempo": 120.0
            },
            {
                "start_time": 150.88181818181818,
                "end_time": 151.5181818181818,
                "pitch": 52,
                "velocity": 51,
                "duration": 0.636363636363626,
                "tempo": 120.0
            },
            {
                "start_time": 151.68636363636364,
                "end_time": 152.325,
                "pitch": 50,
                "velocity": 51,
                "duration": 0.6386363636363512,
                "tempo": 120.0
            },
            {
                "start_time": 152.49318181818182,
                "end_time": 153.12727272727273,
                "pitch": 48,
                "velocity": 51,
                "duration": 0.6340909090909008,
                "tempo": 120.0
            },
            {
                "start_time": 153.29545454545453,
                "end_time": 153.9318181818182,
                "pitch": 47,
                "velocity": 51,
                "duration": 0.6363636363636545,
                "tempo": 120.0
            },
            {
                "start_time": 154.1,
                "end_time": 154.73636363636362,
                "pitch": 57,
                "velocity": 51,
                "duration": 0.636363636363626,
                "tempo": 120.0
            },
            {
                "start_time": 154.90227272727273,
                "end_time": 155.54090909090908,
                "pitch": 55,
                "velocity": 51,
                "duration": 0.6386363636363512,
                "tempo": 120.0
            },
            {
                "start_time": 155.7090909090909,
                "end_time": 156.34545454545454,
                "pitch": 54,
                "velocity": 51,
                "duration": 0.6363636363636545,
                "tempo": 120.0
            },
            {
                "start_time": 156.51363636363635,
                "end_time": 157.15227272727273,
                "pitch": 56,
                "velocity": 51,
                "duration": 0.6386363636363797,
                "tempo": 120.0
            },
            {
                "start_time": 157.3159090909091,
                "end_time": 157.95454545454544,
                "pitch": 57,
                "velocity": 51,
                "duration": 0.6386363636363512,
                "tempo": 120.0
            },
            {
                "start_time": 158.12272727272727,
                "end_time": 158.7590909090909,
                "pitch": 59,
                "velocity": 51,
                "duration": 0.636363636363626,
                "tempo": 120.0
            },
            {
                "start_time": 158.92499999999998,
                "end_time": 159.56136363636364,
                "pitch": 60,
                "velocity": 51,
                "duration": 0.6363636363636545,
                "tempo": 120.0
            },
            {
                "start_time": 159.72954545454544,
                "end_time": 160.36818181818182,
                "pitch": 62,
                "velocity": 51,
                "duration": 0.6386363636363797,
                "tempo": 120.0
            }
        ]
    }
}