{
    "track_id": "Solomon no Kagi (FM) - 02 - Room Clear",
    "mood": "happy",
    "instruments": {
        "Lead 2 (sawtooth)": [
            {
                "start_time": 0.13636363636363635,
                "end_time": 0.17272727272727273,
                "pitch": 65,
                "velocity": 64,
                "duration": 0.036363636363636376,
                "tempo": 120.0
            },
            {
                "start_time": 0.18636363636363634,
                "end_time": 0.2863636363636364,
                "pitch": 67,
                "velocity": 64,
                "duration": 0.10000000000000003,
                "tempo": 120.0
            },
            {
                "start_time": 0.3181818181818182,
                "end_time": 0.41818181818181815,
                "pitch": 64,
                "velocity": 64,
                "duration": 0.09999999999999998,
                "tempo": 120.0
            },
            {
                "start_time": 0.45227272727272727,
                "end_time": 0.5022727272727272,
                "pitch": 65,
                "velocity": 64,
                "duration": 0.04999999999999993,
                "tempo": 120.0
            },
            {
                "start_time": 0.5204545454545454,
                "end_time": 0.5704545454545454,
                "pitch": 64,
                "velocity": 64,
                "duration": 0.050000000000000044,
                "tempo": 120.0
            },
            {
                "start_time": 0.5863636363636363,
                "end_time": 0.6363636363636364,
                "pitch": 65,
                "velocity": 64,
                "duration": 0.050000000000000044,
                "tempo": 120.0
            },
            {
                "start_time": 0.6522727272727272,
                "end_time": 0.7022727272727273,
                "pitch": 67,
                "velocity": 64,
                "duration": 0.050000000000000044,
                "tempo": 120.0
            },
            {
                "start_time": 0.7204545454545455,
                "end_time": 0.9204545454545454,
                "pitch": 65,
                "velocity": 64,
                "duration": 0.19999999999999996,
                "tempo": 120.0
            }
        ],
        "Church Organ": [
            {
                "start_time": 0.13636363636363635,
                "end_time": 0.17272727272727273,
                "pitch": 77,
                "velocity": 32,
                "duration": 0.036363636363636376,
                "tempo": 120.0
            },
            {
                "start_time": 0.18636363636363634,
                "end_time": 0.2863636363636364,
                "pitch": 79,
                "velocity": 32,
                "duration": 0.10000000000000003,
                "tempo": 120.0
            },
            {
                "start_time": 0.3181818181818182,
                "end_time": 0.41818181818181815,
                "pitch": 76,
                "velocity": 32,
                "duration": 0.09999999999999998,
                "tempo": 120.0
            },
            {
                "start_time": 0.45227272727272727,
                "end_time": 0.5022727272727272,
                "pitch": 77,
                "velocity": 32,
                "duration": 0.04999999999999993,
                "tempo": 120.0
            },
            {
                "start_time": 0.5204545454545454,
                "end_time": 0.5704545454545454,
                "pitch": 76,
                "velocity": 32,
                "duration": 0.050000000000000044,
                "tempo": 120.0
            },
            {
                "start_time": 0.5863636363636363,
                "end_time": 0.6363636363636364,
                "pitch": 77,
                "velocity": 32,
                "duration": 0.050000000000000044,
                "tempo": 120.0
            },
            {
                "start_time": 0.6522727272727272,
                "end_time": 0.7022727272727273,
                "pitch": 79,
                "velocity": 32,
                "duration": 0.050000000000000044,
                "tempo": 120.0
            },
            {
                "start_time": 0.7204545454545455,
                "end_time": 0.9204545454545454,
                "pitch": 77,
                "velocity": 32,
                "duration": 0.19999999999999996,
                "tempo": 120.0
            }
        ],
        "Synth Bass 1": [
            {
                "start_time": 0.18636363636363634,
                "end_time": 0.38636363636363635,
                "pitch": 46,
                "velocity": 64,
                "duration": 0.2,
                "tempo": 120.0
            },
            {
                "start_time": 0.45227272727272727,
                "end_time": 0.5522727272727272,
                "pitch": 45,
                "velocity": 64,
                "duration": 0.09999999999999998,
                "tempo": 120.0
            },
            {
                "start_time": 0.5863636363636363,
                "end_time": 0.6863636363636363,
                "pitch": 43,
                "velocity": 64,
                "duration": 0.09999999999999998,
                "tempo": 120.0
            },
            {
                "start_time": 0.7204545454545455,
                "end_time": 0.9204545454545454,
                "pitch": 41,
                "velocity": 64,
                "duration": 0.19999999999999996,
                "tempo": 120.0
            }
        ]
    }
}