{
    "track_id": "Solomon no Kagi (FM) - 03 - Hidden Room",
    "mood": "happy",
    "instruments": {
        "Flute": [
            {
                "start_time": 0.28409090909090906,
                "end_time": 0.3840909090909091,
                "pitch": 77,
                "velocity": 6,
                "duration": 0.10000000000000003,
                "tempo": 120.0
            },
            {
                "start_time": 0.41818181818181815,
                "end_time": 0.5181818181818182,
                "pitch": 79,
                "velocity": 6,
                "duration": 0.10000000000000003,
                "tempo": 120.0
            },
            {
                "start_time": 0.5522727272727272,
                "end_time": 0.6522727272727272,
                "pitch": 77,
                "velocity": 6,
                "duration": 0.09999999999999998,
                "tempo": 120.0
            },
            {
                "start_time": 0.6863636363636363,
                "end_time": 0.7613636363636364,
                "pitch": 79,
                "velocity": 6,
                "duration": 0.07500000000000007,
                "tempo": 120.0
            },
            {
                "start_time": 0.7863636363636364,
                "end_time": 0.8613636363636363,
                "pitch": 77,
                "velocity": 6,
                "duration": 0.07499999999999996,
                "tempo": 120.0
            },
            {
                "start_time": 0.8863636363636364,
                "end_time": 0.9636363636363636,
                "pitch": 79,
                "velocity": 6,
                "duration": 0.07727272727272727,
                "tempo": 120.0
            },
            {
                "start_time": 0.9886363636363635,
                "end_time": 1.065909090909091,
                "pitch": 77,
                "velocity": 13,
                "duration": 0.07727272727272738,
                "tempo": 120.0
            },
            {
                "start_time": 1.0909090909090908,
                "end_time": 1.1681818181818182,
                "pitch": 79,
                "velocity": 13,
                "duration": 0.07727272727272738,
                "tempo": 120.0
            },
            {
                "start_time": 1.1931818181818181,
                "end_time": 1.2727272727272727,
                "pitch": 77,
                "velocity": 13,
                "duration": 0.07954545454545459,
                "tempo": 120.0
            },
            {
                "start_time": 1.2977272727272726,
                "end_time": 1.3727272727272726,
                "pitch": 79,
                "velocity": 13,
                "duration": 0.07499999999999996,
                "tempo": 120.0
            },
            {
                "start_time": 1.3954545454545453,
                "end_time": 1.4704545454545455,
                "pitch": 77,
                "velocity": 13,
                "duration": 0.07500000000000018,
                "tempo": 120.0
            },
            {
                "start_time": 1.4954545454545454,
                "end_time": 1.5681818181818181,
                "pitch": 79,
                "velocity": 13,
                "duration": 0.07272727272727275,
                "tempo": 120.0
            },
            {
                "start_time": 1.593181818181818,
                "end_time": 1.6681818181818182,
                "pitch": 77,
                "velocity": 25,
                "duration": 0.07500000000000018,
                "tempo": 120.0
            },
            {
                "start_time": 1.6954545454545453,
                "end_time": 1.7704545454545453,
                "pitch": 79,
                "velocity": 25,
                "duration": 0.07499999999999996,
                "tempo": 120.0
            },
            {
                "start_time": 1.7954545454545454,
                "end_time": 1.8704545454545454,
                "pitch": 77,
                "velocity": 25,
                "duration": 0.07499999999999996,
                "tempo": 120.0
            },
            {
                "start_time": 1.8954545454545453,
                "end_time": 1.9727272727272727,
                "pitch": 79,
                "velocity": 25,
                "duration": 0.07727272727272738,
                "tempo": 120.0
            },
            {
                "start_time": 1.9977272727272726,
                "end_time": 2.077272727272727,
                "pitch": 77,
                "velocity": 25,
                "duration": 0.07954545454545459,
                "tempo": 120.0
            },
            {
                "start_time": 2.102272727272727,
                "end_time": 2.1795454545454542,
                "pitch": 79,
                "velocity": 25,
                "duration": 0.07727272727272716,
                "tempo": 120.0
            },
            {
                "start_time": 2.2045454545454546,
                "end_time": 2.2818181818181817,
                "pitch": 77,
                "velocity": 51,
                "duration": 0.07727272727272716,
                "tempo": 120.0
            },
            {
                "start_time": 2.3068181818181817,
                "end_time": 2.381818181818182,
                "pitch": 79,
                "velocity": 51,
                "duration": 0.07500000000000018,
                "tempo": 120.0
            },
            {
                "start_time": 2.4068181818181817,
                "end_time": 2.4818181818181815,
                "pitch": 77,
                "velocity": 51,
                "duration": 0.07499999999999973,
                "tempo": 120.0
            },
            {
                "start_time": 2.506818181818182,
                "end_time": 2.584090909090909,
                "pitch": 79,
                "velocity": 51,
                "duration": 0.07727272727272716,
                "tempo": 120.0
            },
            {
                "start_time": 2.609090909090909,
                "end_time": 2.684090909090909,
                "pitch": 77,
                "velocity": 51,
                "duration": 0.07500000000000018,
                "tempo": 120.0
            },
            {
                "start_time": 2.709090909090909,
                "end_time": 2.784090909090909,
                "pitch": 79,
                "velocity": 51,
                "duration": 0.07500000000000018,
                "tempo": 120.0
            },
            {
                "start_time": 2.809090909090909,
                "end_time": 2.884090909090909,
                "pitch": 86,
                "velocity": 32,
                "duration": 0.07499999999999973,
                "tempo": 120.0
            },
            {
                "start_time": 2.911363636363636,
                "end_time": 2.9863636363636363,
                "pitch": 74,
                "velocity": 32,
                "duration": 0.07500000000000018,
                "tempo": 120.0
            },
            {
                "start_time": 3.0113636363636362,
                "end_time": 3.0863636363636364,
                "pitch": 91,
                "velocity": 32,
                "duration": 0.07500000000000018,
                "tempo": 120.0
            },
            {
                "start_time": 3.1113636363636363,
                "end_time": 3.1886363636363635,
                "pitch": 79,
                "velocity": 32,
                "duration": 0.07727272727272716,
                "tempo": 120.0
            },
            {
                "start_time": 3.2136363636363634,
                "end_time": 3.2886363636363636,
                "pitch": 89,
                "velocity": 32,
                "duration": 0.07500000000000018,
                "tempo": 120.0
            },
            {
                "start_time": 3.3136363636363635,
                "end_time": 3.3909090909090907,
                "pitch": 77,
                "velocity": 32,
                "duration": 0.07727272727272716,
                "tempo": 120.0
            },
            {
                "start_time": 3.4159090909090906,
                "end_time": 3.4909090909090907,
                "pitch": 86,
                "velocity": 32,
                "duration": 0.07500000000000018,
                "tempo": 120.0
            },
            {
                "start_time": 3.5159090909090907,
                "end_time": 3.590909090909091,
                "pitch": 74,
                "velocity": 32,
                "duration": 0.07500000000000018,
                "tempo": 120.0
            },
            {
                "start_time": 3.6159090909090907,
                "end_time": 3.693181818181818,
                "pitch": 82,
                "velocity": 32,
                "duration": 0.07727272727272716,
                "tempo": 120.0
            },
            {
                "start_time": 3.718181818181818,
                "end_time": 3.793181818181818,
                "pitch": 70,
                "velocity": 32,
                "duration": 0.07500000000000018,
                "tempo": 120.0
            },
            {
                "start_time": 3.818181818181818,
                "end_time": 3.895454545454545,
                "pitch": 84,
                "velocity": 32,
                "duration": 0.07727272727272716,
                "tempo": 120.0
            },
            {
                "start_time": 3.9204545454545454,
                "end_time": 3.995454545454545,
                "pitch": 72,
                "velocity": 32,
                "duration": 0.07499999999999973,
                "tempo": 120.0
            },
            {
                "start_time": 4.0204545454545455,
                "end_time": 4.097727272727273,
                "pitch": 86,
                "velocity": 32,
                "duration": 0.07727272727272716,
                "tempo": 120.0
            },
            {
                "start_time": 4.122727272727272,
                "end_time": 4.197727272727272,
                "pitch": 74,
                "velocity": 32,
                "duration": 0.07500000000000018,
                "tempo": 120.0
            },
            {
                "start_time": 4.225,
                "end_time": 4.3,
                "pitch": 91,
                "velocity": 32,
                "duration": 0.07500000000000018,
                "tempo": 120.0
            },
            {
                "start_time": 4.325,
                "end_time": 4.3999999999999995,
                "pitch": 79,
                "velocity": 32,
                "duration": 0.07499999999999929,
                "tempo": 120.0
            },
            {
                "start_time": 4.425,
                "end_time": 4.502272727272727,
                "pitch": 89,
                "velocity": 32,
                "duration": 0.07727272727272716,
                "tempo": 120.0
            },
            {
                "start_time": 4.527272727272727,
                "end_time": 4.602272727272727,
                "pitch": 77,
                "velocity": 32,
                "duration": 0.07499999999999929,
                "tempo": 120.0
            },
            {
                "start_time": 4.627272727272727,
                "end_time": 4.702272727272727,
                "pitch": 86,
                "velocity": 32,
                "duration": 0.07500000000000018,
                "tempo": 120.0
            },
            {
                "start_time": 4.7295454545454545,
                "end_time": 4.804545454545455,
                "pitch": 74,
                "velocity": 32,
                "duration": 0.07500000000000018,
                "tempo": 120.0
            },
            {
                "start_time": 4.829545454545454,
                "end_time": 4.906818181818181,
                "pitch": 82,
                "velocity": 32,
                "duration": 0.07727272727272716,
                "tempo": 120.0
            },
            {
                "start_time": 4.931818181818182,
                "end_time": 5.006818181818182,
                "pitch": 70,
                "velocity": 32,
                "duration": 0.07500000000000018,
                "tempo": 120.0
            },
            {
                "start_time": 5.031818181818181,
                "end_time": 5.1068181818181815,
                "pitch": 84,
                "velocity": 32,
                "duration": 0.07500000000000018,
                "tempo": 120.0
            },
            {
                "start_time": 5.131818181818182,
                "end_time": 5.209090909090909,
                "pitch": 72,
                "velocity": 32,
                "duration": 0.07727272727272716,
                "tempo": 120.0
            },
            {
                "start_time": 5.2340909090909085,
                "end_time": 5.309090909090909,
                "pitch": 86,
                "velocity": 32,
                "duration": 0.07500000000000018,
                "tempo": 120.0
            },
            {
                "start_time": 5.334090909090909,
                "end_time": 5.411363636363636,
                "pitch": 74,
                "velocity": 32,
                "duration": 0.07727272727272716,
                "tempo": 120.0
            },
            {
                "start_time": 5.4363636363636365,
                "end_time": 5.511363636363636,
                "pitch": 91,
                "velocity": 32,
                "duration": 0.07499999999999929,
                "tempo": 120.0
            },
            {
                "start_time": 5.536363636363636,
                "end_time": 5.613636363636363,
                "pitch": 79,
                "velocity": 32,
                "duration": 0.07727272727272716,
                "tempo": 120.0
            },
            {
                "start_time": 5.638636363636364,
                "end_time": 5.713636363636363,
                "pitch": 89,
                "velocity": 32,
                "duration": 0.07499999999999929,
                "tempo": 120.0
            },
            {
                "start_time": 5.738636363636363,
                "end_time": 5.8159090909090905,
                "pitch": 77,
                "velocity": 32,
                "duration": 0.07727272727272716,
                "tempo": 120.0
            },
            {
                "start_time": 5.840909090909091,
                "end_time": 5.915909090909091,
                "pitch": 86,
                "velocity": 32,
                "duration": 0.07500000000000018,
                "tempo": 120.0
            },
            {
                "start_time": 5.9409090909090905,
                "end_time": 6.018181818181818,
                "pitch": 74,
                "velocity": 32,
                "duration": 0.07727272727272716,
                "tempo": 120.0
            },
            {
                "start_time": 6.043181818181818,
                "end_time": 6.118181818181818,
                "pitch": 82,
                "velocity": 32,
                "duration": 0.07500000000000018,
                "tempo": 120.0
            },
            {
                "start_time": 6.143181818181818,
                "end_time": 6.218181818181818,
                "pitch": 70,
                "velocity": 32,
                "duration": 0.07500000000000018,
                "tempo": 120.0
            },
            {
                "start_time": 6.245454545454545,
                "end_time": 6.320454545454545,
                "pitch": 84,
                "velocity": 32,
                "duration": 0.07500000000000018,
                "tempo": 120.0
            },
            {
                "start_time": 6.345454545454545,
                "end_time": 6.422727272727273,
                "pitch": 72,
                "velocity": 32,
                "duration": 0.07727272727272805,
                "tempo": 120.0
            },
            {
                "start_time": 6.447727272727272,
                "end_time": 6.5227272727272725,
                "pitch": 85,
                "velocity": 32,
                "duration": 0.07500000000000018,
                "tempo": 120.0
            },
            {
                "start_time": 6.547727272727273,
                "end_time": 6.625,
                "pitch": 73,
                "velocity": 32,
                "duration": 0.07727272727272716,
                "tempo": 120.0
            },
            {
                "start_time": 6.6499999999999995,
                "end_time": 6.725,
                "pitch": 89,
                "velocity": 32,
                "duration": 0.07500000000000018,
                "tempo": 120.0
            },
            {
                "start_time": 6.75,
                "end_time": 6.827272727272727,
                "pitch": 77,
                "velocity": 32,
                "duration": 0.07727272727272716,
                "tempo": 120.0
            },
            {
                "start_time": 6.852272727272727,
                "end_time": 6.927272727272727,
                "pitch": 92,
                "velocity": 32,
                "duration": 0.07500000000000018,
                "tempo": 120.0
            },
            {
                "start_time": 6.952272727272727,
                "end_time": 7.027272727272727,
                "pitch": 80,
                "velocity": 32,
                "duration": 0.07500000000000018,
                "tempo": 120.0
            },
            {
                "start_time": 7.052272727272727,
                "end_time": 7.129545454545454,
                "pitch": 91,
                "velocity": 32,
                "duration": 0.07727272727272716,
                "tempo": 120.0
            },
            {
                "start_time": 7.154545454545454,
                "end_time": 7.2295454545454545,
                "pitch": 79,
                "velocity": 32,
                "duration": 0.07500000000000018,
                "tempo": 120.0
            },
            {
                "start_time": 7.254545454545454,
                "end_time": 7.331818181818181,
                "pitch": 87,
                "velocity": 32,
                "duration": 0.07727272727272716,
                "tempo": 120.0
            },
            {
                "start_time": 7.3568181818181815,
                "end_time": 7.431818181818182,
                "pitch": 75,
                "velocity": 32,
                "duration": 0.07500000000000018,
                "tempo": 120.0
            },
            {
                "start_time": 7.459090909090909,
                "end_time": 7.534090909090908,
                "pitch": 84,
                "velocity": 32,
                "duration": 0.07499999999999929,
                "tempo": 120.0
            },
            {
                "start_time": 7.559090909090909,
                "end_time": 7.636363636363636,
                "pitch": 72,
                "velocity": 32,
                "duration": 0.07727272727272716,
                "tempo": 120.0
            },
            {
                "start_time": 7.661363636363636,
                "end_time": 7.736363636363636,
                "pitch": 85,
                "velocity": 32,
                "duration": 0.07500000000000018,
                "tempo": 120.0
            },
            {
                "start_time": 7.761363636363636,
                "end_time": 7.838636363636363,
                "pitch": 73,
                "velocity": 32,
                "duration": 0.07727272727272716,
                "tempo": 120.0
            },
            {
                "start_time": 7.863636363636363,
                "end_time": 7.9386363636363635,
                "pitch": 82,
                "velocity": 32,
                "duration": 0.07500000000000018,
                "tempo": 120.0
            },
            {
                "start_time": 7.963636363636363,
                "end_time": 8.040909090909091,
                "pitch": 70,
                "velocity": 32,
                "duration": 0.07727272727272805,
                "tempo": 120.0
            },
            {
                "start_time": 8.065909090909091,
                "end_time": 8.14090909090909,
                "pitch": 78,
                "velocity": 32,
                "duration": 0.07499999999999929,
                "tempo": 120.0
            },
            {
                "start_time": 8.168181818181818,
                "end_time": 8.243181818181817,
                "pitch": 66,
                "velocity": 32,
                "duration": 0.07499999999999929,
                "tempo": 120.0
            },
            {
                "start_time": 8.268181818181818,
                "end_time": 8.343181818181817,
                "pitch": 77,
                "velocity": 32,
                "duration": 0.07499999999999929,
                "tempo": 120.0
            },
            {
                "start_time": 8.370454545454544,
                "end_time": 8.445454545454545,
                "pitch": 65,
                "velocity": 32,
                "duration": 0.07500000000000107,
                "tempo": 120.0
            },
            {
                "start_time": 8.470454545454546,
                "end_time": 8.545454545454545,
                "pitch": 81,
                "velocity": 32,
                "duration": 0.07499999999999929,
                "tempo": 120.0
            },
            {
                "start_time": 8.570454545454545,
                "end_time": 8.645454545454545,
                "pitch": 69,
                "velocity": 32,
                "duration": 0.07499999999999929,
                "tempo": 120.0
            },
            {
                "start_time": 8.672727272727272,
                "end_time": 8.747727272727273,
                "pitch": 84,
                "velocity": 32,
                "duration": 0.07500000000000107,
                "tempo": 120.0
            },
            {
                "start_time": 8.772727272727272,
                "end_time": 8.85,
                "pitch": 72,
                "velocity": 32,
                "duration": 0.07727272727272805,
                "tempo": 120.0
            },
            {
                "start_time": 8.875,
                "end_time": 8.95,
                "pitch": 82,
                "velocity": 32,
                "duration": 0.07499999999999929,
                "tempo": 120.0
            },
            {
                "start_time": 8.975,
                "end_time": 9.052272727272728,
                "pitch": 70,
                "velocity": 32,
                "duration": 0.07727272727272805,
                "tempo": 120.0
            },
            {
                "start_time": 9.077272727272726,
                "end_time": 9.152272727272727,
                "pitch": 86,
                "velocity": 32,
                "duration": 0.07500000000000107,
                "tempo": 120.0
            },
            {
                "start_time": 9.179545454545455,
                "end_time": 9.254545454545454,
                "pitch": 74,
                "velocity": 32,
                "duration": 0.07499999999999929,
                "tempo": 120.0
            },
            {
                "start_time": 9.279545454545454,
                "end_time": 9.35681818181818,
                "pitch": 89,
                "velocity": 32,
                "duration": 0.07727272727272627,
                "tempo": 120.0
            },
            {
                "start_time": 9.381818181818181,
                "end_time": 9.456818181818182,
                "pitch": 77,
                "velocity": 32,
                "duration": 0.07500000000000107,
                "tempo": 120.0
            },
            {
                "start_time": 9.48181818181818,
                "end_time": 9.559090909090909,
                "pitch": 92,
                "velocity": 32,
                "duration": 0.07727272727272805,
                "tempo": 120.0
            },
            {
                "start_time": 9.584090909090909,
                "end_time": 9.659090909090908,
                "pitch": 80,
                "velocity": 32,
                "duration": 0.07499999999999929,
                "tempo": 120.0
            },
            {
                "start_time": 9.684090909090909,
                "end_time": 9.761363636363637,
                "pitch": 89,
                "velocity": 32,
                "duration": 0.07727272727272805,
                "tempo": 120.0
            },
            {
                "start_time": 9.786363636363635,
                "end_time": 9.861363636363636,
                "pitch": 77,
                "velocity": 32,
                "duration": 0.07500000000000107,
                "tempo": 120.0
            },
            {
                "start_time": 9.886363636363637,
                "end_time": 9.963636363636363,
                "pitch": 86,
                "velocity": 32,
                "duration": 0.07727272727272627,
                "tempo": 120.0
            },
            {
                "start_time": 9.988636363636363,
                "end_time": 10.063636363636363,
                "pitch": 74,
                "velocity": 32,
                "duration": 0.07499999999999929,
                "tempo": 120.0
            },
            {
                "start_time": 10.088636363636363,
                "end_time": 10.163636363636364,
                "pitch": 91,
                "velocity": 32,
                "duration": 0.07500000000000107,
                "tempo": 120.0
            },
            {
                "start_time": 10.188636363636363,
                "end_time": 10.26590909090909,
                "pitch": 79,
                "velocity": 32,
                "duration": 0.07727272727272805,
                "tempo": 120.0
            },
            {
                "start_time": 10.290909090909091,
                "end_time": 10.36590909090909,
                "pitch": 87,
                "velocity": 32,
                "duration": 0.07499999999999929,
                "tempo": 120.0
            },
            {
                "start_time": 10.393181818181818,
                "end_time": 10.468181818181817,
                "pitch": 75,
                "velocity": 32,
                "duration": 0.07499999999999929,
                "tempo": 120.0
            },
            {
                "start_time": 10.493181818181817,
                "end_time": 10.570454545454545,
                "pitch": 84,
                "velocity": 32,
                "duration": 0.07727272727272805,
                "tempo": 120.0
            },
            {
                "start_time": 10.595454545454546,
                "end_time": 10.670454545454545,
                "pitch": 72,
                "velocity": 32,
                "duration": 0.07499999999999929,
                "tempo": 120.0
            },
            {
                "start_time": 10.695454545454545,
                "end_time": 10.772727272727272,
                "pitch": 81,
                "velocity": 32,
                "duration": 0.07727272727272627,
                "tempo": 120.0
            },
            {
                "start_time": 10.797727272727272,
                "end_time": 10.872727272727273,
                "pitch": 69,
                "velocity": 32,
                "duration": 0.07500000000000107,
                "tempo": 120.0
            },
            {
                "start_time": 10.897727272727272,
                "end_time": 10.975,
                "pitch": 79,
                "velocity": 32,
                "duration": 0.07727272727272805,
                "tempo": 120.0
            },
            {
                "start_time": 11.0,
                "end_time": 11.077272727272726,
                "pitch": 67,
                "velocity": 32,
                "duration": 0.07727272727272627,
                "tempo": 120.0
            },
            {
                "start_time": 11.102272727272727,
                "end_time": 11.177272727272726,
                "pitch": 81,
                "velocity": 32,
                "duration": 0.07499999999999929,
                "tempo": 120.0
            },
            {
                "start_time": 11.202272727272726,
                "end_time": 11.279545454545454,
                "pitch": 69,
                "velocity": 32,
                "duration": 0.07727272727272805,
                "tempo": 120.0
            },
            {
                "start_time": 11.304545454545455,
                "end_time": 11.379545454545454,
                "pitch": 82,
                "velocity": 32,
                "duration": 0.07499999999999929,
                "tempo": 120.0
            },
            {
                "start_time": 11.404545454545454,
                "end_time": 11.479545454545454,
                "pitch": 70,
                "velocity": 32,
                "duration": 0.07499999999999929,
                "tempo": 120.0
            },
            {
                "start_time": 11.504545454545454,
                "end_time": 11.581818181818182,
                "pitch": 86,
                "velocity": 32,
                "duration": 0.07727272727272805,
                "tempo": 120.0
            },
            {
                "start_time": 11.60681818181818,
                "end_time": 11.681818181818182,
                "pitch": 74,
                "velocity": 32,
                "duration": 0.07500000000000107,
                "tempo": 120.0
            },
            {
                "start_time": 11.706818181818182,
                "end_time": 11.784090909090908,
                "pitch": 89,
                "velocity": 32,
                "duration": 0.07727272727272627,
                "tempo": 120.0
            },
            {
                "start_time": 11.809090909090909,
                "end_time": 11.884090909090908,
                "pitch": 77,
                "velocity": 32,
                "duration": 0.07499999999999929,
                "tempo": 120.0
            },
            {
                "start_time": 11.909090909090908,
                "end_time": 11.986363636363636,
                "pitch": 94,
                "velocity": 32,
                "duration": 0.07727272727272805,
                "tempo": 120.0
            },
            {
                "start_time": 12.011363636363635,
                "end_time": 12.086363636363636,
                "pitch": 82,
                "velocity": 32,
                "duration": 0.07500000000000107,
                "tempo": 120.0
            },
            {
                "start_time": 12.113636363636363,
                "end_time": 12.188636363636363,
                "pitch": 82,
                "velocity": 32,
                "duration": 0.07499999999999929,
                "tempo": 120.0
            },
            {
                "start_time": 12.213636363636363,
                "end_time": 12.290909090909091,
                "pitch": 70,
                "velocity": 32,
                "duration": 0.07727272727272805,
                "tempo": 120.0
            },
            {
                "start_time": 12.31590909090909,
                "end_time": 12.39090909090909,
                "pitch": 94,
                "velocity": 32,
                "duration": 0.07500000000000107,
                "tempo": 120.0
            },
            {
                "start_time": 12.415909090909091,
                "end_time": 12.493181818181817,
                "pitch": 82,
                "velocity": 32,
                "duration": 0.07727272727272627,
                "tempo": 120.0
            },
            {
                "start_time": 12.518181818181818,
                "end_time": 12.593181818181817,
                "pitch": 86,
                "velocity": 32,
                "duration": 0.07499999999999929,
                "tempo": 120.0
            },
            {
                "start_time": 12.618181818181817,
                "end_time": 12.695454545454545,
                "pitch": 74,
                "velocity": 32,
                "duration": 0.07727272727272805,
                "tempo": 120.0
            },
            {
                "start_time": 12.720454545454546,
                "end_time": 12.795454545454545,
                "pitch": 91,
                "velocity": 32,
                "duration": 0.07499999999999929,
                "tempo": 120.0
            },
            {
                "start_time": 12.822727272727272,
                "end_time": 12.897727272727272,
                "pitch": 79,
                "velocity": 32,
                "duration": 0.07499999999999929,
                "tempo": 120.0
            },
            {
                "start_time": 12.922727272727272,
                "end_time": 12.997727272727271,
                "pitch": 89,
                "velocity": 32,
                "duration": 0.07499999999999929,
                "tempo": 120.0
            },
            {
                "start_time": 13.022727272727272,
                "end_time": 13.097727272727273,
                "pitch": 77,
                "velocity": 32,
                "duration": 0.07500000000000107,
                "tempo": 120.0
            },
            {
                "start_time": 13.122727272727271,
                "end_time": 13.2,
                "pitch": 86,
                "velocity": 32,
                "duration": 0.07727272727272805,
                "tempo": 120.0
            },
            {
                "start_time": 13.225,
                "end_time": 13.299999999999999,
                "pitch": 74,
                "velocity": 32,
                "duration": 0.07499999999999929,
                "tempo": 120.0
            },
            {
                "start_time": 13.327272727272726,
                "end_time": 13.402272727272727,
                "pitch": 82,
                "velocity": 32,
                "duration": 0.07500000000000107,
                "tempo": 120.0
            },
            {
                "start_time": 13.427272727272726,
                "end_time": 13.502272727272727,
                "pitch": 70,
                "velocity": 32,
                "duration": 0.07500000000000107,
                "tempo": 120.0
            },
            {
                "start_time": 13.529545454545454,
                "end_time": 13.604545454545454,
                "pitch": 84,
                "velocity": 32,
                "duration": 0.07499999999999929,
                "tempo": 120.0
            },
            {
                "start_time": 13.629545454545454,
                "end_time": 13.704545454545453,
                "pitch": 72,
                "velocity": 32,
                "duration": 0.07499999999999929,
                "tempo": 120.0
            },
            {
                "start_time": 13.729545454545454,
                "end_time": 13.804545454545455,
                "pitch": 86,
                "velocity": 32,
                "duration": 0.07500000000000107,
                "tempo": 120.0
            },
            {
                "start_time": 13.829545454545453,
                "end_time": 13.906818181818181,
                "pitch": 74,
                "velocity": 32,
                "duration": 0.07727272727272805,
                "tempo": 120.0
            },
            {
                "start_time": 13.931818181818182,
                "end_time": 14.006818181818181,
                "pitch": 91,
                "velocity": 32,
                "duration": 0.07499999999999929,
                "tempo": 120.0
            },
            {
                "start_time": 14.031818181818181,
                "end_time": 14.10681818181818,
                "pitch": 79,
                "velocity": 32,
                "duration": 0.07499999999999929,
                "tempo": 120.0
            },
            {
                "start_time": 14.131818181818181,
                "end_time": 14.209090909090909,
                "pitch": 89,
                "velocity": 32,
                "duration": 0.07727272727272805,
                "tempo": 120.0
            },
            {
                "start_time": 14.234090909090908,
                "end_time": 14.309090909090909,
                "pitch": 77,
                "velocity": 32,
                "duration": 0.07500000000000107,
                "tempo": 120.0
            },
            {
                "start_time": 14.336363636363636,
                "end_time": 14.411363636363635,
                "pitch": 86,
                "velocity": 32,
                "duration": 0.07499999999999929,
                "tempo": 120.0
            },
            {
                "start_time": 14.436363636363636,
                "end_time": 14.511363636363635,
                "pitch": 74,
                "velocity": 32,
                "duration": 0.07499999999999929,
                "tempo": 120.0
            },
            {
                "start_time": 14.536363636363635,
                "end_time": 14.611363636363636,
                "pitch": 82,
                "velocity": 32,
                "duration": 0.07500000000000107,
                "tempo": 120.0
            },
            {
                "start_time": 14.638636363636364,
                "end_time": 14.713636363636363,
                "pitch": 70,
                "velocity": 32,
                "duration": 0.07499999999999929,
                "tempo": 120.0
            },
            {
                "start_time": 14.738636363636363,
                "end_time": 14.813636363636363,
                "pitch": 84,
                "velocity": 32,
                "duration": 0.07499999999999929,
                "tempo": 120.0
            },
            {
                "start_time": 14.84090909090909,
                "end_time": 14.915909090909091,
                "pitch": 72,
                "velocity": 32,
                "duration": 0.07500000000000107,
                "tempo": 120.0
            },
            {
                "start_time": 14.94090909090909,
                "end_time": 15.01590909090909,
                "pitch": 86,
                "velocity": 32,
                "duration": 0.07500000000000107,
                "tempo": 120.0
            },
            {
                "start_time": 15.043181818181818,
                "end_time": 15.118181818181817,
                "pitch": 74,
                "velocity": 32,
                "duration": 0.07499999999999929,
                "tempo": 120.0
            },
            {
                "start_time": 15.143181818181818,
                "end_time": 15.218181818181817,
                "pitch": 91,
                "velocity": 32,
                "duration": 0.07499999999999929,
                "tempo": 120.0
            },
            {
                "start_time": 15.243181818181817,
                "end_time": 15.318181818181817,
                "pitch": 79,
                "velocity": 32,
                "duration": 0.07499999999999929,
                "tempo": 120.0
            },
            {
                "start_time": 15.343181818181817,
                "end_time": 15.420454545454545,
                "pitch": 89,
                "velocity": 32,
                "duration": 0.07727272727272805,
                "tempo": 120.0
            },
            {
                "start_time": 15.445454545454545,
                "end_time": 15.520454545454545,
                "pitch": 77,
                "velocity": 32,
                "duration": 0.07499999999999929,
                "tempo": 120.0
            },
            {
                "start_time": 15.545454545454545,
                "end_time": 15.620454545454544,
                "pitch": 86,
                "velocity": 32,
                "duration": 0.07499999999999929,
                "tempo": 120.0
            },
            {
                "start_time": 15.645454545454545,
                "end_time": 15.722727272727273,
                "pitch": 74,
                "velocity": 32,
                "duration": 0.07727272727272805,
                "tempo": 120.0
            },
            {
                "start_time": 15.747727272727271,
                "end_time": 15.825,
                "pitch": 82,
                "velocity": 32,
                "duration": 0.07727272727272805,
                "tempo": 120.0
            },
            {
                "start_time": 15.85,
                "end_time": 15.924999999999999,
                "pitch": 70,
                "velocity": 32,
                "duration": 0.07499999999999929,
                "tempo": 120.0
            },
            {
                "start_time": 15.95,
                "end_time": 16.025,
                "pitch": 84,
                "velocity": 32,
                "duration": 0.07499999999999929,
                "tempo": 120.0
            },
            {
                "start_time": 16.05,
                "end_time": 16.125,
                "pitch": 72,
                "velocity": 32,
                "duration": 0.07499999999999929,
                "tempo": 120.0
            },
            {
                "start_time": 16.152272727272727,
                "end_time": 16.227272727272727,
                "pitch": 85,
                "velocity": 32,
                "duration": 0.07499999999999929,
                "tempo": 120.0
            },
            {
                "start_time": 16.252272727272725,
                "end_time": 16.329545454545453,
                "pitch": 73,
                "velocity": 32,
                "duration": 0.07727272727272805,
                "tempo": 120.0
            },
            {
                "start_time": 16.354545454545455,
                "end_time": 16.429545454545455,
                "pitch": 89,
                "velocity": 32,
                "duration": 0.07499999999999929,
                "tempo": 120.0
            },
            {
                "start_time": 16.454545454545453,
                "end_time": 16.529545454545453,
                "pitch": 77,
                "velocity": 32,
                "duration": 0.07499999999999929,
                "tempo": 120.0
            },
            {
                "start_time": 16.55681818181818,
                "end_time": 16.631818181818183,
                "pitch": 92,
                "velocity": 32,
                "duration": 0.07500000000000284,
                "tempo": 120.0
            },
            {
                "start_time": 16.65681818181818,
                "end_time": 16.73181818181818,
                "pitch": 80,
                "velocity": 32,
                "duration": 0.07499999999999929,
                "tempo": 120.0
            },
            {
                "start_time": 16.756818181818183,
                "end_time": 16.831818181818182,
                "pitch": 91,
                "velocity": 32,
                "duration": 0.07499999999999929,
                "tempo": 120.0
            },
            {
                "start_time": 16.85681818181818,
                "end_time": 16.93409090909091,
                "pitch": 79,
                "velocity": 32,
                "duration": 0.07727272727272805,
                "tempo": 120.0
            },
            {
                "start_time": 16.959090909090907,
                "end_time": 17.034090909090907,
                "pitch": 87,
                "velocity": 32,
                "duration": 0.07499999999999929,
                "tempo": 120.0
            },
            {
                "start_time": 17.05909090909091,
                "end_time": 17.134090909090908,
                "pitch": 75,
                "velocity": 32,
                "duration": 0.07499999999999929,
                "tempo": 120.0
            },
            {
                "start_time": 17.161363636363635,
                "end_time": 17.236363636363635,
                "pitch": 84,
                "velocity": 32,
                "duration": 0.07499999999999929,
                "tempo": 120.0
            },
            {
                "start_time": 17.261363636363637,
                "end_time": 17.33863636363636,
                "pitch": 72,
                "velocity": 32,
                "duration": 0.0772727272727245,
                "tempo": 120.0
            },
            {
                "start_time": 17.363636363636363,
                "end_time": 17.436363636363634,
                "pitch": 85,
                "velocity": 32,
                "duration": 0.07272727272727053,
                "tempo": 120.0
            },
            {
                "start_time": 17.461363636363636,
                "end_time": 17.536363636363635,
                "pitch": 73,
                "velocity": 32,
                "duration": 0.07499999999999929,
                "tempo": 120.0
            },
            {
                "start_time": 17.561363636363634,
                "end_time": 17.634090909090908,
                "pitch": 82,
                "velocity": 32,
                "duration": 0.07272727272727408,
                "tempo": 120.0
            },
            {
                "start_time": 17.659090909090907,
                "end_time": 17.736363636363635,
                "pitch": 70,
                "velocity": 32,
                "duration": 0.07727272727272805,
                "tempo": 120.0
            },
            {
                "start_time": 17.761363636363637,
                "end_time": 17.83863636363636,
                "pitch": 78,
                "velocity": 32,
                "duration": 0.0772727272727245,
                "tempo": 120.0
            },
            {
                "start_time": 17.86590909090909,
                "end_time": 17.943181818181817,
                "pitch": 66,
                "velocity": 32,
                "duration": 0.07727272727272805,
                "tempo": 120.0
            },
            {
                "start_time": 17.96818181818182,
                "end_time": 18.045454545454543,
                "pitch": 77,
                "velocity": 32,
                "duration": 0.0772727272727245,
                "tempo": 120.0
            },
            {
                "start_time": 18.070454545454545,
                "end_time": 18.145454545454545,
                "pitch": 65,
                "velocity": 32,
                "duration": 0.07499999999999929,
                "tempo": 120.0
            },
            {
                "start_time": 18.170454545454543,
                "end_time": 18.245454545454546,
                "pitch": 81,
                "velocity": 32,
                "duration": 0.07500000000000284,
                "tempo": 120.0
            },
            {
                "start_time": 18.270454545454545,
                "end_time": 18.345454545454544,
                "pitch": 69,
                "velocity": 32,
                "duration": 0.07499999999999929,
                "tempo": 120.0
            },
            {
                "start_time": 18.370454545454546,
                "end_time": 18.44772727272727,
                "pitch": 84,
                "velocity": 32,
                "duration": 0.0772727272727245,
                "tempo": 120.0
            },
            {
                "start_time": 18.472727272727273,
                "end_time": 18.547727272727272,
                "pitch": 72,
                "velocity": 32,
                "duration": 0.07499999999999929,
                "tempo": 120.0
            },
            {
                "start_time": 18.57272727272727,
                "end_time": 18.647727272727273,
                "pitch": 82,
                "velocity": 32,
                "duration": 0.07500000000000284,
                "tempo": 120.0
            },
            {
                "start_time": 18.675,
                "end_time": 18.75,
                "pitch": 70,
                "velocity": 32,
                "duration": 0.07499999999999929,
                "tempo": 120.0
            },
            {
                "start_time": 18.775,
                "end_time": 18.852272727272727,
                "pitch": 86,
                "velocity": 32,
                "duration": 0.07727272727272805,
                "tempo": 120.0
            },
            {
                "start_time": 18.877272727272725,
                "end_time": 18.952272727272728,
                "pitch": 74,
                "velocity": 32,
                "duration": 0.07500000000000284,
                "tempo": 120.0
            },
            {
                "start_time": 18.977272727272727,
                "end_time": 19.052272727272726,
                "pitch": 89,
                "velocity": 32,
                "duration": 0.07499999999999929,
                "tempo": 120.0
            },
            {
                "start_time": 19.077272727272728,
                "end_time": 19.154545454545453,
                "pitch": 77,
                "velocity": 32,
                "duration": 0.0772727272727245,
                "tempo": 120.0
            },
            {
                "start_time": 19.179545454545455,
                "end_time": 19.254545454545454,
                "pitch": 92,
                "velocity": 32,
                "duration": 0.07499999999999929,
                "tempo": 120.0
            },
            {
                "start_time": 19.279545454545453,
                "end_time": 19.35681818181818,
                "pitch": 80,
                "velocity": 32,
                "duration": 0.07727272727272805,
                "tempo": 120.0
            },
            {
                "start_time": 19.38181818181818,
                "end_time": 19.456818181818182,
                "pitch": 89,
                "velocity": 32,
                "duration": 0.07500000000000284,
                "tempo": 120.0
            },
            {
                "start_time": 19.48181818181818,
                "end_time": 19.55909090909091,
                "pitch": 77,
                "velocity": 32,
                "duration": 0.07727272727272805,
                "tempo": 120.0
            },
            {
                "start_time": 19.584090909090907,
                "end_time": 19.659090909090907,
                "pitch": 86,
                "velocity": 32,
                "duration": 0.07499999999999929,
                "tempo": 120.0
            },
            {
                "start_time": 19.68409090909091,
                "end_time": 19.759090909090908,
                "pitch": 74,
                "velocity": 32,
                "duration": 0.07499999999999929,
                "tempo": 120.0
            },
            {
                "start_time": 19.784090909090907,
                "end_time": 19.85909090909091,
                "pitch": 91,
                "velocity": 32,
                "duration": 0.07500000000000284,
                "tempo": 120.0
            },
            {
                "start_time": 19.884090909090908,
                "end_time": 19.961363636363636,
                "pitch": 79,
                "velocity": 32,
                "duration": 0.07727272727272805,
                "tempo": 120.0
            },
            {
                "start_time": 19.986363636363635,
                "end_time": 20.061363636363634,
                "pitch": 87,
                "velocity": 32,
                "duration": 0.07499999999999929,
                "tempo": 120.0
            },
            {
                "start_time": 20.086363636363636,
                "end_time": 20.161363636363635,
                "pitch": 75,
                "velocity": 32,
                "duration": 0.07499999999999929,
                "tempo": 120.0
            },
            {
                "start_time": 20.188636363636363,
                "end_time": 20.263636363636362,
                "pitch": 84,
                "velocity": 32,
                "duration": 0.07499999999999929,
                "tempo": 120.0
            },
            {
                "start_time": 20.288636363636364,
                "end_time": 20.36590909090909,
                "pitch": 72,
                "velocity": 32,
                "duration": 0.0772727272727245,
                "tempo": 120.0
            },
            {
                "start_time": 20.39090909090909,
                "end_time": 20.46590909090909,
                "pitch": 81,
                "velocity": 32,
                "duration": 0.07499999999999929,
                "tempo": 120.0
            },
            {
                "start_time": 20.49090909090909,
                "end_time": 20.56590909090909,
                "pitch": 69,
                "velocity": 32,
                "duration": 0.07500000000000284,
                "tempo": 120.0
            },
            {
                "start_time": 20.59090909090909,
                "end_time": 20.668181818181818,
                "pitch": 79,
                "velocity": 32,
                "duration": 0.07727272727272805,
                "tempo": 120.0
            },
            {
                "start_time": 20.693181818181817,
                "end_time": 20.768181818181816,
                "pitch": 67,
                "velocity": 32,
                "duration": 0.07499999999999929,
                "tempo": 120.0
            },
            {
                "start_time": 20.793181818181818,
                "end_time": 20.870454545454546,
                "pitch": 81,
                "velocity": 32,
                "duration": 0.07727272727272805,
                "tempo": 120.0
            },
            {
                "start_time": 20.895454545454545,
                "end_time": 20.970454545454544,
                "pitch": 69,
                "velocity": 32,
                "duration": 0.07499999999999929,
                "tempo": 120.0
            },
            {
                "start_time": 20.995454545454546,
                "end_time": 21.07272727272727,
                "pitch": 82,
                "velocity": 32,
                "duration": 0.0772727272727245,
                "tempo": 120.0
            },
            {
                "start_time": 21.097727272727273,
                "end_time": 21.172727272727272,
                "pitch": 70,
                "velocity": 32,
                "duration": 0.07499999999999929,
                "tempo": 120.0
            },
            {
                "start_time": 21.19772727272727,
                "end_time": 21.272727272727273,
                "pitch": 86,
                "velocity": 32,
                "duration": 0.07500000000000284,
                "tempo": 120.0
            },
            {
                "start_time": 21.297727272727272,
                "end_time": 21.37272727272727,
                "pitch": 74,
                "velocity": 32,
                "duration": 0.07499999999999929,
                "tempo": 120.0
            },
            {
                "start_time": 21.4,
                "end_time": 21.474999999999998,
                "pitch": 89,
                "velocity": 32,
                "duration": 0.07499999999999929,
                "tempo": 120.0
            },
            {
                "start_time": 21.5,
                "end_time": 21.575,
                "pitch": 77,
                "velocity": 32,
                "duration": 0.07499999999999929,
                "tempo": 120.0
            },
            {
                "start_time": 21.599999999999998,
                "end_time": 21.675,
                "pitch": 94,
                "velocity": 32,
                "duration": 0.07500000000000284,
                "tempo": 120.0
            },
            {
                "start_time": 21.7,
                "end_time": 21.797727272727272,
                "pitch": 82,
                "velocity": 32,
                "duration": 0.09772727272727266,
                "tempo": 120.0
            },
            {
                "start_time": 21.831818181818182,
                "end_time": 21.93181818181818,
                "pitch": 82,
                "velocity": 32,
                "duration": 0.09999999999999787,
                "tempo": 120.0
            },
            {
                "start_time": 21.96590909090909,
                "end_time": 22.06590909090909,
                "pitch": 70,
                "velocity": 32,
                "duration": 0.10000000000000142,
                "tempo": 120.0
            },
            {
                "start_time": 22.099999999999998,
                "end_time": 22.2,
                "pitch": 94,
                "velocity": 32,
                "duration": 0.10000000000000142,
                "tempo": 120.0
            },
            {
                "start_time": 22.23409090909091,
                "end_time": 22.334090909090907,
                "pitch": 82,
                "velocity": 32,
                "duration": 0.09999999999999787,
                "tempo": 120.0
            },
            {
                "start_time": 22.36590909090909,
                "end_time": 22.46590909090909,
                "pitch": 86,
                "velocity": 32,
                "duration": 0.10000000000000142,
                "tempo": 120.0
            },
            {
                "start_time": 22.5,
                "end_time": 22.599999999999998,
                "pitch": 74,
                "velocity": 32,
                "duration": 0.09999999999999787,
                "tempo": 120.0
            },
            {
                "start_time": 22.634090909090908,
                "end_time": 22.73409090909091,
                "pitch": 91,
                "velocity": 32,
                "duration": 0.10000000000000142,
                "tempo": 120.0
            },
            {
                "start_time": 22.768181818181816,
                "end_time": 22.868181818181817,
                "pitch": 79,
                "velocity": 32,
                "duration": 0.10000000000000142,
                "tempo": 120.0
            },
            {
                "start_time": 22.902272727272727,
                "end_time": 22.913636363636364,
                "pitch": 89,
                "velocity": 32,
                "duration": 0.011363636363636687,
                "tempo": 120.0
            },
            {
                "start_time": 22.913636363636364,
                "end_time": 23.004545454545454,
                "pitch": 89,
                "velocity": 32,
                "duration": 0.09090909090908994,
                "tempo": 120.0
            },
            {
                "start_time": 23.038636363636364,
                "end_time": 23.14090909090909,
                "pitch": 77,
                "velocity": 32,
                "duration": 0.10227272727272663,
                "tempo": 120.0
            },
            {
                "start_time": 23.174999999999997,
                "end_time": 23.277272727272727,
                "pitch": 86,
                "velocity": 32,
                "duration": 0.10227272727273018,
                "tempo": 120.0
            },
            {
                "start_time": 23.311363636363634,
                "end_time": 23.411363636363635,
                "pitch": 74,
                "velocity": 32,
                "duration": 0.10000000000000142,
                "tempo": 120.0
            },
            {
                "start_time": 23.445454545454545,
                "end_time": 23.545454545454543,
                "pitch": 82,
                "velocity": 32,
                "duration": 0.09999999999999787,
                "tempo": 120.0
            },
            {
                "start_time": 23.579545454545453,
                "end_time": 23.679545454545455,
                "pitch": 70,
                "velocity": 32,
                "duration": 0.10000000000000142,
                "tempo": 120.0
            },
            {
                "start_time": 23.711363636363636,
                "end_time": 23.811363636363634,
                "pitch": 84,
                "velocity": 32,
                "duration": 0.09999999999999787,
                "tempo": 120.0
            },
            {
                "start_time": 23.845454545454544,
                "end_time": 23.945454545454545,
                "pitch": 72,
                "velocity": 32,
                "duration": 0.10000000000000142,
                "tempo": 120.0
            },
            {
                "start_time": 23.979545454545452,
                "end_time": 24.079545454545453,
                "pitch": 86,
                "velocity": 32,
                "duration": 0.10000000000000142,
                "tempo": 120.0
            },
            {
                "start_time": 24.113636363636363,
                "end_time": 24.21363636363636,
                "pitch": 74,
                "velocity": 32,
                "duration": 0.09999999999999787,
                "tempo": 120.0
            },
            {
                "start_time": 24.245454545454546,
                "end_time": 24.347727272727273,
                "pitch": 91,
                "velocity": 32,
                "duration": 0.10227272727272663,
                "tempo": 120.0
            },
            {
                "start_time": 24.379545454545454,
                "end_time": 24.48181818181818,
                "pitch": 79,
                "velocity": 32,
                "duration": 0.10227272727272663,
                "tempo": 120.0
            },
            {
                "start_time": 24.51590909090909,
                "end_time": 24.618181818181817,
                "pitch": 89,
                "velocity": 32,
                "duration": 0.10227272727272663,
                "tempo": 120.0
            },
            {
                "start_time": 24.652272727272727,
                "end_time": 24.754545454545454,
                "pitch": 77,
                "velocity": 32,
                "duration": 0.10227272727272663,
                "tempo": 120.0
            },
            {
                "start_time": 24.788636363636364,
                "end_time": 24.89090909090909,
                "pitch": 86,
                "velocity": 32,
                "duration": 0.10227272727272663,
                "tempo": 120.0
            },
            {
                "start_time": 24.922727272727272,
                "end_time": 25.025,
                "pitch": 74,
                "velocity": 32,
                "duration": 0.10227272727272663,
                "tempo": 120.0
            },
            {
                "start_time": 25.05681818181818,
                "end_time": 25.15681818181818,
                "pitch": 82,
                "velocity": 32,
                "duration": 0.10000000000000142,
                "tempo": 120.0
            },
            {
                "start_time": 25.19090909090909,
                "end_time": 25.29090909090909,
                "pitch": 70,
                "velocity": 32,
                "duration": 0.09999999999999787,
                "tempo": 120.0
            },
            {
                "start_time": 25.325,
                "end_time": 25.424999999999997,
                "pitch": 84,
                "velocity": 32,
                "duration": 0.09999999999999787,
                "tempo": 120.0
            },
            {
                "start_time": 25.459090909090907,
                "end_time": 25.55909090909091,
                "pitch": 72,
                "velocity": 32,
                "duration": 0.10000000000000142,
                "tempo": 120.0
            },
            {
                "start_time": 25.59090909090909,
                "end_time": 25.693181818181817,
                "pitch": 86,
                "velocity": 32,
                "duration": 0.10227272727272663,
                "tempo": 120.0
            },
            {
                "start_time": 25.724999999999998,
                "end_time": 25.825,
                "pitch": 74,
                "velocity": 32,
                "duration": 0.10000000000000142,
                "tempo": 120.0
            },
            {
                "start_time": 25.85909090909091,
                "end_time": 25.959090909090907,
                "pitch": 91,
                "velocity": 32,
                "duration": 0.09999999999999787,
                "tempo": 120.0
            },
            {
                "start_time": 25.993181818181817,
                "end_time": 26.095454545454544,
                "pitch": 79,
                "velocity": 32,
                "duration": 0.10227272727272663,
                "tempo": 120.0
            },
            {
                "start_time": 26.129545454545454,
                "end_time": 26.229545454545452,
                "pitch": 89,
                "velocity": 32,
                "duration": 0.09999999999999787,
                "tempo": 120.0
            },
            {
                "start_time": 26.263636363636362,
                "end_time": 26.36590909090909,
                "pitch": 77,
                "velocity": 32,
                "duration": 0.10227272727272663,
                "tempo": 120.0
            },
            {
                "start_time": 26.4,
                "end_time": 26.502272727272725,
                "pitch": 86,
                "velocity": 32,
                "duration": 0.10227272727272663,
                "tempo": 120.0
            },
            {
                "start_time": 26.536363636363635,
                "end_time": 26.636363636363637,
                "pitch": 74,
                "velocity": 32,
                "duration": 0.10000000000000142,
                "tempo": 120.0
            },
            {
                "start_time": 26.670454545454543,
                "end_time": 26.770454545454545,
                "pitch": 82,
                "velocity": 32,
                "duration": 0.10000000000000142,
                "tempo": 120.0
            },
            {
                "start_time": 26.804545454545455,
                "end_time": 26.904545454545453,
                "pitch": 70,
                "velocity": 32,
                "duration": 0.09999999999999787,
                "tempo": 120.0
            },
            {
                "start_time": 26.938636363636363,
                "end_time": 27.038636363636364,
                "pitch": 84,
                "velocity": 32,
                "duration": 0.10000000000000142,
                "tempo": 120.0
            },
            {
                "start_time": 27.070454545454545,
                "end_time": 27.170454545454543,
                "pitch": 72,
                "velocity": 32,
                "duration": 0.09999999999999787,
                "tempo": 120.0
            },
            {
                "start_time": 27.204545454545453,
                "end_time": 27.304545454545455,
                "pitch": 85,
                "velocity": 32,
                "duration": 0.10000000000000142,
                "tempo": 120.0
            },
            {
                "start_time": 27.33863636363636,
                "end_time": 27.438636363636363,
                "pitch": 73,
                "velocity": 32,
                "duration": 0.10000000000000142,
                "tempo": 120.0
            },
            {
                "start_time": 27.472727272727273,
                "end_time": 27.57272727272727,
                "pitch": 89,
                "velocity": 32,
                "duration": 0.09999999999999787,
                "tempo": 120.0
            },
            {
                "start_time": 27.604545454545452,
                "end_time": 27.706818181818182,
                "pitch": 77,
                "velocity": 32,
                "duration": 0.10227272727273018,
                "tempo": 120.0
            },
            {
                "start_time": 27.74090909090909,
                "end_time": 27.843181818181815,
                "pitch": 92,
                "velocity": 32,
                "duration": 0.10227272727272663,
                "tempo": 120.0
            },
            {
                "start_time": 27.877272727272725,
                "end_time": 27.979545454545452,
                "pitch": 80,
                "velocity": 32,
                "duration": 0.10227272727272663,
                "tempo": 120.0
            },
            {
                "start_time": 28.013636363636362,
                "end_time": 28.11590909090909,
                "pitch": 91,
                "velocity": 32,
                "duration": 0.10227272727272663,
                "tempo": 120.0
            },
            {
                "start_time": 28.15,
                "end_time": 28.25,
                "pitch": 79,
                "velocity": 32,
                "duration": 0.10000000000000142,
                "tempo": 120.0
            },
            {
                "start_time": 28.284090909090907,
                "end_time": 28.384090909090908,
                "pitch": 87,
                "velocity": 32,
                "duration": 0.10000000000000142,
                "tempo": 120.0
            },
            {
                "start_time": 28.41590909090909,
                "end_time": 28.51590909090909,
                "pitch": 75,
                "velocity": 32,
                "duration": 0.10000000000000142,
                "tempo": 120.0
            },
            {
                "start_time": 28.549999999999997,
                "end_time": 28.65,
                "pitch": 84,
                "velocity": 32,
                "duration": 0.10000000000000142,
                "tempo": 120.0
            },
            {
                "start_time": 28.68409090909091,
                "end_time": 28.784090909090907,
                "pitch": 72,
                "velocity": 32,
                "duration": 0.09999999999999787,
                "tempo": 120.0
            },
            {
                "start_time": 28.818181818181817,
                "end_time": 28.918181818181818,
                "pitch": 85,
                "velocity": 32,
                "duration": 0.10000000000000142,
                "tempo": 120.0
            },
            {
                "start_time": 28.95,
                "end_time": 29.052272727272726,
                "pitch": 73,
                "velocity": 32,
                "duration": 0.10227272727272663,
                "tempo": 120.0
            },
            {
                "start_time": 29.084090909090907,
                "end_time": 29.18409090909091,
                "pitch": 82,
                "velocity": 32,
                "duration": 0.10000000000000142,
                "tempo": 120.0
            },
            {
                "start_time": 29.218181818181815,
                "end_time": 29.320454545454545,
                "pitch": 70,
                "velocity": 32,
                "duration": 0.10227272727273018,
                "tempo": 120.0
            },
            {
                "start_time": 29.354545454545452,
                "end_time": 29.456818181818182,
                "pitch": 78,
                "velocity": 32,
                "duration": 0.10227272727273018,
                "tempo": 120.0
            },
            {
                "start_time": 29.49090909090909,
                "end_time": 29.59090909090909,
                "pitch": 66,
                "velocity": 32,
                "duration": 0.10000000000000142,
                "tempo": 120.0
            },
            {
                "start_time": 29.625,
                "end_time": 29.727272727272727,
                "pitch": 77,
                "velocity": 32,
                "duration": 0.10227272727272663,
                "tempo": 120.0
            },
            {
                "start_time": 29.761363636363637,
                "end_time": 29.861363636363635,
                "pitch": 65,
                "velocity": 32,
                "duration": 0.09999999999999787,
                "tempo": 120.0
            },
            {
                "start_time": 29.895454545454545,
                "end_time": 29.995454545454542,
                "pitch": 81,
                "velocity": 32,
                "duration": 0.09999999999999787,
                "tempo": 120.0
            },
            {
                "start_time": 30.029545454545453,
                "end_time": 30.129545454545454,
                "pitch": 69,
                "velocity": 32,
                "duration": 0.10000000000000142,
                "tempo": 120.0
            },
            {
                "start_time": 30.16363636363636,
                "end_time": 30.263636363636362,
                "pitch": 84,
                "velocity": 32,
                "duration": 0.10000000000000142,
                "tempo": 120.0
            },
            {
                "start_time": 30.295454545454543,
                "end_time": 30.39772727272727,
                "pitch": 72,
                "velocity": 32,
                "duration": 0.10227272727272663,
                "tempo": 120.0
            },
            {
                "start_time": 30.43181818181818,
                "end_time": 30.534090909090907,
                "pitch": 82,
                "velocity": 32,
                "duration": 0.10227272727272663,
                "tempo": 120.0
            },
            {
                "start_time": 30.568181818181817,
                "end_time": 30.670454545454543,
                "pitch": 70,
                "velocity": 32,
                "duration": 0.10227272727272663,
                "tempo": 120.0
            },
            {
                "start_time": 30.704545454545453,
                "end_time": 30.80681818181818,
                "pitch": 86,
                "velocity": 32,
                "duration": 0.10227272727272663,
                "tempo": 120.0
            },
            {
                "start_time": 30.84090909090909,
                "end_time": 30.940909090909088,
                "pitch": 74,
                "velocity": 32,
                "duration": 0.09999999999999787,
                "tempo": 120.0
            },
            {
                "start_time": 30.974999999999998,
                "end_time": 31.075,
                "pitch": 89,
                "velocity": 32,
                "duration": 0.10000000000000142,
                "tempo": 120.0
            },
            {
                "start_time": 31.10681818181818,
                "end_time": 31.206818181818182,
                "pitch": 77,
                "velocity": 32,
                "duration": 0.10000000000000142,
                "tempo": 120.0
            },
            {
                "start_time": 31.24090909090909,
                "end_time": 31.34090909090909,
                "pitch": 92,
                "velocity": 32,
                "duration": 0.10000000000000142,
                "tempo": 120.0
            },
            {
                "start_time": 31.375,
                "end_time": 31.474999999999998,
                "pitch": 80,
                "velocity": 32,
                "duration": 0.09999999999999787,
                "tempo": 120.0
            },
            {
                "start_time": 31.509090909090908,
                "end_time": 31.609090909090906,
                "pitch": 89,
                "velocity": 32,
                "duration": 0.09999999999999787,
                "tempo": 120.0
            },
            {
                "start_time": 31.643181818181816,
                "end_time": 31.743181818181817,
                "pitch": 77,
                "velocity": 32,
                "duration": 0.10000000000000142,
                "tempo": 120.0
            },
            {
                "start_time": 31.775,
                "end_time": 31.875,
                "pitch": 86,
                "velocity": 32,
                "duration": 0.10000000000000142,
                "tempo": 120.0
            },
            {
                "start_time": 31.909090909090907,
                "end_time": 32.01136363636363,
                "pitch": 74,
                "velocity": 32,
                "duration": 0.10227272727272663,
                "tempo": 120.0
            },
            {
                "start_time": 32.04545454545455,
                "end_time": 32.14772727272727,
                "pitch": 91,
                "velocity": 32,
                "duration": 0.10227272727272663,
                "tempo": 120.0
            },
            {
                "start_time": 32.18181818181818,
                "end_time": 32.28409090909091,
                "pitch": 79,
                "velocity": 32,
                "duration": 0.10227272727272663,
                "tempo": 120.0
            },
            {
                "start_time": 32.31590909090909,
                "end_time": 32.418181818181814,
                "pitch": 87,
                "velocity": 32,
                "duration": 0.10227272727272663,
                "tempo": 120.0
            },
            {
                "start_time": 32.45227272727273,
                "end_time": 32.55227272727272,
                "pitch": 75,
                "velocity": 32,
                "duration": 0.09999999999999432,
                "tempo": 120.0
            },
            {
                "start_time": 32.586363636363636,
                "end_time": 32.68636363636364,
                "pitch": 84,
                "velocity": 32,
                "duration": 0.10000000000000142,
                "tempo": 120.0
            },
            {
                "start_time": 32.720454545454544,
                "end_time": 32.820454545454545,
                "pitch": 72,
                "velocity": 32,
                "duration": 0.10000000000000142,
                "tempo": 120.0
            },
            {
                "start_time": 32.85454545454545,
                "end_time": 32.95454545454545,
                "pitch": 81,
                "velocity": 32,
                "duration": 0.10000000000000142,
                "tempo": 120.0
            },
            {
                "start_time": 32.98863636363636,
                "end_time": 33.08863636363636,
                "pitch": 69,
                "velocity": 32,
                "duration": 0.10000000000000142,
                "tempo": 120.0
            },
            {
                "start_time": 33.12045454545454,
                "end_time": 33.220454545454544,
                "pitch": 79,
                "velocity": 32,
                "duration": 0.10000000000000142,
                "tempo": 120.0
            },
            {
                "start_time": 33.25454545454545,
                "end_time": 33.35454545454545,
                "pitch": 67,
                "velocity": 32,
                "duration": 0.10000000000000142,
                "tempo": 120.0
            },
            {
                "start_time": 33.388636363636365,
                "end_time": 33.48863636363636,
                "pitch": 81,
                "velocity": 32,
                "duration": 0.09999999999999432,
                "tempo": 120.0
            },
            {
                "start_time": 33.52272727272727,
                "end_time": 33.62272727272727,
                "pitch": 69,
                "velocity": 32,
                "duration": 0.09999999999999432,
                "tempo": 120.0
            },
            {
                "start_time": 33.65681818181818,
                "end_time": 33.75909090909091,
                "pitch": 82,
                "velocity": 32,
                "duration": 0.10227272727272663,
                "tempo": 120.0
            },
            {
                "start_time": 33.793181818181814,
                "end_time": 33.89545454545454,
                "pitch": 70,
                "velocity": 32,
                "duration": 0.10227272727272663,
                "tempo": 120.0
            },
            {
                "start_time": 33.929545454545455,
                "end_time": 34.03181818181818,
                "pitch": 86,
                "velocity": 32,
                "duration": 0.10227272727272663,
                "tempo": 120.0
            },
            {
                "start_time": 34.06590909090909,
                "end_time": 34.16590909090909,
                "pitch": 74,
                "velocity": 32,
                "duration": 0.10000000000000142,
                "tempo": 120.0
            },
            {
                "start_time": 34.199999999999996,
                "end_time": 34.3,
                "pitch": 89,
                "velocity": 32,
                "duration": 0.10000000000000142,
                "tempo": 120.0
            },
            {
                "start_time": 34.33409090909091,
                "end_time": 34.434090909090905,
                "pitch": 77,
                "velocity": 32,
                "duration": 0.09999999999999432,
                "tempo": 120.0
            },
            {
                "start_time": 34.465909090909086,
                "end_time": 34.56590909090909,
                "pitch": 94,
                "velocity": 32,
                "duration": 0.10000000000000142,
                "tempo": 120.0
            },
            {
                "start_time": 34.6,
                "end_time": 34.699999999999996,
                "pitch": 82,
                "velocity": 32,
                "duration": 0.09999999999999432,
                "tempo": 120.0
            },
            {
                "start_time": 34.73409090909091,
                "end_time": 34.83409090909091,
                "pitch": 82,
                "velocity": 32,
                "duration": 0.10000000000000142,
                "tempo": 120.0
            },
            {
                "start_time": 34.86818181818182,
                "end_time": 34.96818181818182,
                "pitch": 70,
                "velocity": 32,
                "duration": 0.10000000000000142,
                "tempo": 120.0
            },
            {
                "start_time": 35.0,
                "end_time": 35.10227272727273,
                "pitch": 94,
                "velocity": 32,
                "duration": 0.10227272727272663,
                "tempo": 120.0
            },
            {
                "start_time": 35.13409090909091,
                "end_time": 35.23409090909091,
                "pitch": 82,
                "velocity": 32,
                "duration": 0.10000000000000142,
                "tempo": 120.0
            },
            {
                "start_time": 35.268181818181816,
                "end_time": 35.36818181818182,
                "pitch": 86,
                "velocity": 32,
                "duration": 0.10000000000000142,
                "tempo": 120.0
            },
            {
                "start_time": 35.402272727272724,
                "end_time": 35.502272727272725,
                "pitch": 74,
                "velocity": 32,
                "duration": 0.10000000000000142,
                "tempo": 120.0
            },
            {
                "start_time": 35.53636363636363,
                "end_time": 35.63636363636363,
                "pitch": 91,
                "velocity": 32,
                "duration": 0.10000000000000142,
                "tempo": 120.0
            },
            {
                "start_time": 35.668181818181814,
                "end_time": 35.77045454545454,
                "pitch": 79,
                "velocity": 32,
                "duration": 0.10227272727272663,
                "tempo": 120.0
            },
            {
                "start_time": 35.804545454545455,
                "end_time": 35.90681818181818,
                "pitch": 89,
                "velocity": 32,
                "duration": 0.10227272727272663,
                "tempo": 120.0
            },
            {
                "start_time": 35.94090909090909,
                "end_time": 36.043181818181814,
                "pitch": 77,
                "velocity": 32,
                "duration": 0.10227272727272663,
                "tempo": 120.0
            },
            {
                "start_time": 36.07727272727273,
                "end_time": 36.179545454545455,
                "pitch": 86,
                "velocity": 32,
                "duration": 0.10227272727272663,
                "tempo": 120.0
            },
            {
                "start_time": 36.21363636363636,
                "end_time": 36.31363636363636,
                "pitch": 74,
                "velocity": 32,
                "duration": 0.10000000000000142,
                "tempo": 120.0
            },
            {
                "start_time": 36.34772727272727,
                "end_time": 36.44772727272727,
                "pitch": 82,
                "velocity": 32,
                "duration": 0.10000000000000142,
                "tempo": 120.0
            },
            {
                "start_time": 36.47954545454545,
                "end_time": 36.57954545454545,
                "pitch": 70,
                "velocity": 32,
                "duration": 0.10000000000000142,
                "tempo": 120.0
            },
            {
                "start_time": 36.61363636363636,
                "end_time": 36.71363636363636,
                "pitch": 84,
                "velocity": 32,
                "duration": 0.10000000000000142,
                "tempo": 120.0
            },
            {
                "start_time": 36.74772727272727,
                "end_time": 36.84772727272727,
                "pitch": 72,
                "velocity": 32,
                "duration": 0.10000000000000142,
                "tempo": 120.0
            },
            {
                "start_time": 36.88181818181818,
                "end_time": 36.98181818181818,
                "pitch": 86,
                "velocity": 32,
                "duration": 0.09999999999999432,
                "tempo": 120.0
            },
            {
                "start_time": 37.01363636363636,
                "end_time": 37.11363636363636,
                "pitch": 74,
                "velocity": 32,
                "duration": 0.10000000000000142,
                "tempo": 120.0
            },
            {
                "start_time": 37.14772727272727,
                "end_time": 37.24772727272727,
                "pitch": 91,
                "velocity": 32,
                "duration": 0.09999999999999432,
                "tempo": 120.0
            },
            {
                "start_time": 37.28181818181818,
                "end_time": 37.38409090909091,
                "pitch": 79,
                "velocity": 32,
                "duration": 0.10227272727272663,
                "tempo": 120.0
            },
            {
                "start_time": 37.418181818181814,
                "end_time": 37.52045454545454,
                "pitch": 89,
                "velocity": 32,
                "duration": 0.10227272727272663,
                "tempo": 120.0
            },
            {
                "start_time": 37.554545454545455,
                "end_time": 37.654545454545456,
                "pitch": 77,
                "velocity": 32,
                "duration": 0.10000000000000142,
                "tempo": 120.0
            },
            {
                "start_time": 37.68863636363636,
                "end_time": 37.79090909090909,
                "pitch": 86,
                "velocity": 32,
                "duration": 0.10227272727272663,
                "tempo": 120.0
            },
            {
                "start_time": 37.824999999999996,
                "end_time": 37.925,
                "pitch": 74,
                "velocity": 32,
                "duration": 0.10000000000000142,
                "tempo": 120.0
            },
            {
                "start_time": 37.95909090909091,
                "end_time": 38.059090909090905,
                "pitch": 82,
                "velocity": 32,
                "duration": 0.09999999999999432,
                "tempo": 120.0
            },
            {
                "start_time": 38.09318181818182,
                "end_time": 38.19318181818181,
                "pitch": 70,
                "velocity": 32,
                "duration": 0.09999999999999432,
                "tempo": 120.0
            },
            {
                "start_time": 38.22727272727273,
                "end_time": 38.32727272727273,
                "pitch": 84,
                "velocity": 32,
                "duration": 0.10000000000000142,
                "tempo": 120.0
            },
            {
                "start_time": 38.35909090909091,
                "end_time": 38.461363636363636,
                "pitch": 72,
                "velocity": 32,
                "duration": 0.10227272727272663,
                "tempo": 120.0
            },
            {
                "start_time": 38.49318181818182,
                "end_time": 38.59318181818182,
                "pitch": 86,
                "velocity": 32,
                "duration": 0.10000000000000142,
                "tempo": 120.0
            },
            {
                "start_time": 38.627272727272725,
                "end_time": 38.72727272727273,
                "pitch": 74,
                "velocity": 32,
                "duration": 0.10000000000000142,
                "tempo": 120.0
            },
            {
                "start_time": 38.76136363636363,
                "end_time": 38.861363636363635,
                "pitch": 91,
                "velocity": 32,
                "duration": 0.10000000000000142,
                "tempo": 120.0
            },
            {
                "start_time": 38.89545454545454,
                "end_time": 38.99545454545454,
                "pitch": 79,
                "velocity": 32,
                "duration": 0.10000000000000142,
                "tempo": 120.0
            },
            {
                "start_time": 39.029545454545456,
                "end_time": 39.13181818181818,
                "pitch": 89,
                "velocity": 32,
                "duration": 0.10227272727272663,
                "tempo": 120.0
            },
            {
                "start_time": 39.16590909090909,
                "end_time": 39.268181818181816,
                "pitch": 77,
                "velocity": 32,
                "duration": 0.10227272727272663,
                "tempo": 120.0
            },
            {
                "start_time": 39.30227272727272,
                "end_time": 39.404545454545456,
                "pitch": 86,
                "velocity": 32,
                "duration": 0.10227272727273373,
                "tempo": 120.0
            },
            {
                "start_time": 39.43863636363636,
                "end_time": 39.538636363636364,
                "pitch": 74,
                "velocity": 32,
                "duration": 0.10000000000000142,
                "tempo": 120.0
            },
            {
                "start_time": 39.57272727272727,
                "end_time": 39.67272727272727,
                "pitch": 82,
                "velocity": 32,
                "duration": 0.10000000000000142,
                "tempo": 120.0
            },
            {
                "start_time": 39.70454545454545,
                "end_time": 39.80681818181818,
                "pitch": 70,
                "velocity": 32,
                "duration": 0.10227272727272663,
                "tempo": 120.0
            },
            {
                "start_time": 39.83863636363636,
                "end_time": 39.93863636363636,
                "pitch": 84,
                "velocity": 32,
                "duration": 0.10000000000000142,
                "tempo": 120.0
            },
            {
                "start_time": 39.97272727272727,
                "end_time": 40.07272727272727,
                "pitch": 72,
                "velocity": 32,
                "duration": 0.10000000000000142,
                "tempo": 120.0
            },
            {
                "start_time": 40.10681818181818,
                "end_time": 40.20681818181818,
                "pitch": 85,
                "velocity": 32,
                "duration": 0.10000000000000142,
                "tempo": 120.0
            },
            {
                "start_time": 40.24090909090909,
                "end_time": 40.340909090909086,
                "pitch": 73,
                "velocity": 32,
                "duration": 0.09999999999999432,
                "tempo": 120.0
            },
            {
                "start_time": 40.37272727272727,
                "end_time": 40.47272727272727,
                "pitch": 89,
                "velocity": 32,
                "duration": 0.10000000000000142,
                "tempo": 120.0
            },
            {
                "start_time": 40.50681818181818,
                "end_time": 40.60909090909091,
                "pitch": 77,
                "velocity": 32,
                "duration": 0.10227272727272663,
                "tempo": 120.0
            },
            {
                "start_time": 40.643181818181816,
                "end_time": 40.74545454545454,
                "pitch": 92,
                "velocity": 32,
                "duration": 0.10227272727272663,
                "tempo": 120.0
            },
            {
                "start_time": 40.779545454545456,
                "end_time": 40.88181818181818,
                "pitch": 80,
                "velocity": 32,
                "duration": 0.10227272727272663,
                "tempo": 120.0
            },
            {
                "start_time": 40.91590909090909,
                "end_time": 41.01590909090909,
                "pitch": 91,
                "velocity": 32,
                "duration": 0.10000000000000142,
                "tempo": 120.0
            },
            {
                "start_time": 41.05,
                "end_time": 41.152272727272724,
                "pitch": 79,
                "velocity": 32,
                "duration": 0.10227272727272663,
                "tempo": 120.0
            },
            {
                "start_time": 41.184090909090905,
                "end_time": 41.28409090909091,
                "pitch": 87,
                "velocity": 32,
                "duration": 0.10000000000000142,
                "tempo": 120.0
            },
            {
                "start_time": 41.31818181818181,
                "end_time": 41.418181818181814,
                "pitch": 75,
                "velocity": 32,
                "duration": 0.10000000000000142,
                "tempo": 120.0
            },
            {
                "start_time": 41.45227272727273,
                "end_time": 41.55227272727272,
                "pitch": 84,
                "velocity": 32,
                "duration": 0.09999999999999432,
                "tempo": 120.0
            },
            {
                "start_time": 41.586363636363636,
                "end_time": 41.68636363636364,
                "pitch": 72,
                "velocity": 32,
                "duration": 0.10000000000000142,
                "tempo": 120.0
            },
            {
                "start_time": 41.71818181818182,
                "end_time": 41.81818181818181,
                "pitch": 85,
                "velocity": 32,
                "duration": 0.09999999999999432,
                "tempo": 120.0
            },
            {
                "start_time": 41.85227272727273,
                "end_time": 41.95227272727273,
                "pitch": 73,
                "velocity": 32,
                "duration": 0.10000000000000142,
                "tempo": 120.0
            },
            {
                "start_time": 41.986363636363635,
                "end_time": 42.086363636363636,
                "pitch": 82,
                "velocity": 32,
                "duration": 0.10000000000000142,
                "tempo": 120.0
            },
            {
                "start_time": 42.12045454545454,
                "end_time": 42.22272727272727,
                "pitch": 70,
                "velocity": 32,
                "duration": 0.10227272727272663,
                "tempo": 120.0
            },
            {
                "start_time": 42.25454545454545,
                "end_time": 42.35681818181818,
                "pitch": 78,
                "velocity": 32,
                "duration": 0.10227272727272663,
                "tempo": 120.0
            },
            {
                "start_time": 42.39090909090909,
                "end_time": 42.49318181818182,
                "pitch": 66,
                "velocity": 32,
                "duration": 0.10227272727272663,
                "tempo": 120.0
            },
            {
                "start_time": 42.527272727272724,
                "end_time": 42.62954545454545,
                "pitch": 77,
                "velocity": 32,
                "duration": 0.10227272727272663,
                "tempo": 120.0
            },
            {
                "start_time": 42.663636363636364,
                "end_time": 42.76363636363636,
                "pitch": 65,
                "velocity": 32,
                "duration": 0.09999999999999432,
                "tempo": 120.0
            },
            {
                "start_time": 42.79772727272727,
                "end_time": 42.89772727272727,
                "pitch": 81,
                "velocity": 32,
                "duration": 0.10000000000000142,
                "tempo": 120.0
            },
            {
                "start_time": 42.93181818181818,
                "end_time": 43.03181818181818,
                "pitch": 69,
                "velocity": 32,
                "duration": 0.10000000000000142,
                "tempo": 120.0
            },
            {
                "start_time": 43.06363636363636,
                "end_time": 43.16590909090909,
                "pitch": 84,
                "velocity": 32,
                "duration": 0.10227272727272663,
                "tempo": 120.0
            },
            {
                "start_time": 43.19772727272727,
                "end_time": 43.3,
                "pitch": 72,
                "velocity": 32,
                "duration": 0.10227272727272663,
                "tempo": 120.0
            },
            {
                "start_time": 43.334090909090904,
                "end_time": 43.43636363636364,
                "pitch": 82,
                "velocity": 32,
                "duration": 0.10227272727273373,
                "tempo": 120.0
            },
            {
                "start_time": 43.470454545454544,
                "end_time": 43.57272727272727,
                "pitch": 70,
                "velocity": 32,
                "duration": 0.10227272727272663,
                "tempo": 120.0
            },
            {
                "start_time": 43.60681818181818,
                "end_time": 43.709090909090904,
                "pitch": 86,
                "velocity": 32,
                "duration": 0.10227272727272663,
                "tempo": 120.0
            },
            {
                "start_time": 43.74090909090909,
                "end_time": 43.84318181818182,
                "pitch": 74,
                "velocity": 32,
                "duration": 0.10227272727272663,
                "tempo": 120.0
            },
            {
                "start_time": 43.875,
                "end_time": 43.974999999999994,
                "pitch": 89,
                "velocity": 32,
                "duration": 0.09999999999999432,
                "tempo": 120.0
            },
            {
                "start_time": 44.00909090909091,
                "end_time": 44.10909090909091,
                "pitch": 77,
                "velocity": 32,
                "duration": 0.10000000000000142,
                "tempo": 120.0
            },
            {
                "start_time": 44.143181818181816,
                "end_time": 44.24318181818182,
                "pitch": 92,
                "velocity": 32,
                "duration": 0.10000000000000142,
                "tempo": 120.0
            },
            {
                "start_time": 44.277272727272724,
                "end_time": 44.377272727272725,
                "pitch": 80,
                "velocity": 32,
                "duration": 0.10000000000000142,
                "tempo": 120.0
            },
            {
                "start_time": 44.40909090909091,
                "end_time": 44.51136363636363,
                "pitch": 89,
                "velocity": 32,
                "duration": 0.10227272727272663,
                "tempo": 120.0
            },
            {
                "start_time": 44.543181818181814,
                "end_time": 44.643181818181816,
                "pitch": 77,
                "velocity": 32,
                "duration": 0.10000000000000142,
                "tempo": 120.0
            },
            {
                "start_time": 44.67727272727272,
                "end_time": 44.777272727272724,
                "pitch": 86,
                "velocity": 32,
                "duration": 0.10000000000000142,
                "tempo": 120.0
            },
            {
                "start_time": 44.81136363636364,
                "end_time": 44.91136363636363,
                "pitch": 74,
                "velocity": 32,
                "duration": 0.09999999999999432,
                "tempo": 120.0
            },
            {
                "start_time": 44.945454545454545,
                "end_time": 45.04545454545455,
                "pitch": 91,
                "velocity": 32,
                "duration": 0.10000000000000142,
                "tempo": 120.0
            },
            {
                "start_time": 45.07727272727273,
                "end_time": 45.17727272727272,
                "pitch": 79,
                "velocity": 32,
                "duration": 0.09999999999999432,
                "tempo": 120.0
            },
            {
                "start_time": 45.211363636363636,
                "end_time": 45.31136363636364,
                "pitch": 87,
                "velocity": 32,
                "duration": 0.10000000000000142,
                "tempo": 120.0
            },
            {
                "start_time": 45.345454545454544,
                "end_time": 45.44772727272727,
                "pitch": 75,
                "velocity": 32,
                "duration": 0.10227272727272663,
                "tempo": 120.0
            },
            {
                "start_time": 45.48181818181818,
                "end_time": 45.584090909090904,
                "pitch": 84,
                "velocity": 32,
                "duration": 0.10227272727272663,
                "tempo": 120.0
            },
            {
                "start_time": 45.61818181818182,
                "end_time": 45.71818181818182,
                "pitch": 72,
                "velocity": 32,
                "duration": 0.10000000000000142,
                "tempo": 120.0
            },
            {
                "start_time": 45.752272727272725,
                "end_time": 45.85454545454545,
                "pitch": 81,
                "velocity": 32,
                "duration": 0.10227272727272663,
                "tempo": 120.0
            },
            {
                "start_time": 45.88863636363636,
                "end_time": 45.98863636363636,
                "pitch": 69,
                "velocity": 32,
                "duration": 0.10000000000000142,
                "tempo": 120.0
            },
            {
                "start_time": 46.02272727272727,
                "end_time": 46.12272727272727,
                "pitch": 79,
                "velocity": 32,
                "duration": 0.09999999999999432,
                "tempo": 120.0
            },
            {
                "start_time": 46.15681818181818,
                "end_time": 46.25681818181818,
                "pitch": 67,
                "velocity": 32,
                "duration": 0.10000000000000142,
                "tempo": 120.0
            },
            {
                "start_time": 46.29090909090909,
                "end_time": 46.39090909090909,
                "pitch": 81,
                "velocity": 32,
                "duration": 0.10000000000000142,
                "tempo": 120.0
            },
            {
                "start_time": 46.42272727272727,
                "end_time": 46.52272727272727,
                "pitch": 69,
                "velocity": 32,
                "duration": 0.10000000000000142,
                "tempo": 120.0
            },
            {
                "start_time": 46.55681818181818,
                "end_time": 46.65681818181818,
                "pitch": 82,
                "velocity": 32,
                "duration": 0.10000000000000142,
                "tempo": 120.0
            },
            {
                "start_time": 46.69090909090909,
                "end_time": 46.79090909090909,
                "pitch": 70,
                "velocity": 32,
                "duration": 0.10000000000000142,
                "tempo": 120.0
            },
            {
                "start_time": 46.824999999999996,
                "end_time": 46.925,
                "pitch": 86,
                "velocity": 32,
                "duration": 0.10000000000000142,
                "tempo": 120.0
            },
            {
                "start_time": 46.959090909090904,
                "end_time": 47.059090909090905,
                "pitch": 74,
                "velocity": 32,
                "duration": 0.10000000000000142,
                "tempo": 120.0
            },
            {
                "start_time": 47.09318181818182,
                "end_time": 47.195454545454545,
                "pitch": 89,
                "velocity": 32,
                "duration": 0.10227272727272663,
                "tempo": 120.0
            },
            {
                "start_time": 47.22954545454545,
                "end_time": 47.33181818181818,
                "pitch": 77,
                "velocity": 32,
                "duration": 0.10227272727272663,
                "tempo": 120.0
            },
            {
                "start_time": 47.36590909090909,
                "end_time": 47.46818181818182,
                "pitch": 94,
                "velocity": 32,
                "duration": 0.10227272727272663,
                "tempo": 120.0
            },
            {
                "start_time": 47.502272727272725,
                "end_time": 47.60227272727273,
                "pitch": 82,
                "velocity": 32,
                "duration": 0.10000000000000142,
                "tempo": 120.0
            },
            {
                "start_time": 47.63636363636363,
                "end_time": 47.736363636363635,
                "pitch": 82,
                "velocity": 32,
                "duration": 0.10000000000000142,
                "tempo": 120.0
            },
            {
                "start_time": 47.768181818181816,
                "end_time": 47.87045454545454,
                "pitch": 70,
                "velocity": 32,
                "duration": 0.10227272727272663,
                "tempo": 120.0
            },
            {
                "start_time": 47.902272727272724,
                "end_time": 48.002272727272725,
                "pitch": 94,
                "velocity": 32,
                "duration": 0.10000000000000142,
                "tempo": 120.0
            },
            {
                "start_time": 48.03636363636363,
                "end_time": 48.13636363636363,
                "pitch": 82,
                "velocity": 32,
                "duration": 0.10000000000000142,
                "tempo": 120.0
            },
            {
                "start_time": 48.17045454545454,
                "end_time": 48.27045454545454,
                "pitch": 86,
                "velocity": 32,
                "duration": 0.10000000000000142,
                "tempo": 120.0
            },
            {
                "start_time": 48.304545454545455,
                "end_time": 48.40454545454545,
                "pitch": 74,
                "velocity": 32,
                "duration": 0.09999999999999432,
                "tempo": 120.0
            },
            {
                "start_time": 48.43636363636364,
                "end_time": 48.53636363636363,
                "pitch": 91,
                "velocity": 32,
                "duration": 0.09999999999999432,
                "tempo": 120.0
            },
            {
                "start_time": 48.570454545454545,
                "end_time": 48.67272727272727,
                "pitch": 79,
                "velocity": 32,
                "duration": 0.10227272727272663,
                "tempo": 120.0
            }
        ],
        "Clarinet": [
            {
                "start_time": 0.0,
                "end_time": 0.05909090909090909,
                "pitch": 74,
                "velocity": 8,
                "duration": 0.05909090909090909,
                "tempo": 120.0
            },
            {
                "start_time": 0.08409090909090909,
                "end_time": 0.1590909090909091,
                "pitch": 75,
                "velocity": 8,
                "duration": 0.075,
                "tempo": 120.0
            },
            {
                "start_time": 0.18409090909090908,
                "end_time": 0.2590909090909091,
                "pitch": 74,
                "velocity": 8,
                "duration": 0.07500000000000001,
                "tempo": 120.0
            },
            {
                "start_time": 0.28409090909090906,
                "end_time": 0.3840909090909091,
                "pitch": 75,
                "velocity": 8,
                "duration": 0.10000000000000003,
                "tempo": 120.0
            },
            {
                "start_time": 0.41818181818181815,
                "end_time": 0.5181818181818182,
                "pitch": 74,
                "velocity": 8,
                "duration": 0.10000000000000003,
                "tempo": 120.0
            },
            {
                "start_time": 0.5522727272727272,
                "end_time": 0.6522727272727272,
                "pitch": 75,
                "velocity": 8,
                "duration": 0.09999999999999998,
                "tempo": 120.0
            },
            {
                "start_time": 0.6863636363636363,
                "end_time": 0.7613636363636364,
                "pitch": 74,
                "velocity": 16,
                "duration": 0.07500000000000007,
                "tempo": 120.0
            },
            {
                "start_time": 0.7863636363636364,
                "end_time": 0.8613636363636363,
                "pitch": 75,
                "velocity": 16,
                "duration": 0.07499999999999996,
                "tempo": 120.0
            },
            {
                "start_time": 0.8863636363636364,
                "end_time": 0.9636363636363636,
                "pitch": 74,
                "velocity": 16,
                "duration": 0.07727272727272727,
                "tempo": 120.0
            },
            {
                "start_time": 0.9886363636363635,
                "end_time": 1.065909090909091,
                "pitch": 75,
                "velocity": 16,
                "duration": 0.07727272727272738,
                "tempo": 120.0
            },
            {
                "start_time": 1.0909090909090908,
                "end_time": 1.1681818181818182,
                "pitch": 74,
                "velocity": 16,
                "duration": 0.07727272727272738,
                "tempo": 120.0
            },
            {
                "start_time": 1.1931818181818181,
                "end_time": 1.2727272727272727,
                "pitch": 75,
                "velocity": 16,
                "duration": 0.07954545454545459,
                "tempo": 120.0
            },
            {
                "start_time": 1.2977272727272726,
                "end_time": 1.3727272727272726,
                "pitch": 74,
                "velocity": 32,
                "duration": 0.07499999999999996,
                "tempo": 120.0
            },
            {
                "start_time": 1.3954545454545453,
                "end_time": 1.4704545454545455,
                "pitch": 75,
                "velocity": 32,
                "duration": 0.07500000000000018,
                "tempo": 120.0
            },
            {
                "start_time": 1.4954545454545454,
                "end_time": 1.5681818181818181,
                "pitch": 74,
                "velocity": 32,
                "duration": 0.07272727272727275,
                "tempo": 120.0
            },
            {
                "start_time": 1.593181818181818,
                "end_time": 1.6681818181818182,
                "pitch": 75,
                "velocity": 32,
                "duration": 0.07500000000000018,
                "tempo": 120.0
            },
            {
                "start_time": 1.6954545454545453,
                "end_time": 1.7704545454545453,
                "pitch": 74,
                "velocity": 32,
                "duration": 0.07499999999999996,
                "tempo": 120.0
            },
            {
                "start_time": 1.7954545454545454,
                "end_time": 1.8704545454545454,
                "pitch": 75,
                "velocity": 32,
                "duration": 0.07499999999999996,
                "tempo": 120.0
            },
            {
                "start_time": 1.8954545454545453,
                "end_time": 1.9727272727272727,
                "pitch": 74,
                "velocity": 64,
                "duration": 0.07727272727272738,
                "tempo": 120.0
            },
            {
                "start_time": 1.9977272727272726,
                "end_time": 2.077272727272727,
                "pitch": 75,
                "velocity": 64,
                "duration": 0.07954545454545459,
                "tempo": 120.0
            },
            {
                "start_time": 2.102272727272727,
                "end_time": 2.1795454545454542,
                "pitch": 74,
                "velocity": 64,
                "duration": 0.07727272727272716,
                "tempo": 120.0
            },
            {
                "start_time": 2.2045454545454546,
                "end_time": 2.2818181818181817,
                "pitch": 75,
                "velocity": 64,
                "duration": 0.07727272727272716,
                "tempo": 120.0
            },
            {
                "start_time": 2.3068181818181817,
                "end_time": 2.381818181818182,
                "pitch": 74,
                "velocity": 64,
                "duration": 0.07500000000000018,
                "tempo": 120.0
            },
            {
                "start_time": 2.4068181818181817,
                "end_time": 2.4818181818181815,
                "pitch": 75,
                "velocity": 64,
                "duration": 0.07499999999999973,
                "tempo": 120.0
            },
            {
                "start_time": 2.506818181818182,
                "end_time": 2.584090909090909,
                "pitch": 43,
                "velocity": 40,
                "duration": 0.07727272727272716,
                "tempo": 120.0
            },
            {
                "start_time": 2.609090909090909,
                "end_time": 2.684090909090909,
                "pitch": 46,
                "velocity": 40,
                "duration": 0.07500000000000018,
                "tempo": 120.0
            },
            {
                "start_time": 2.709090909090909,
                "end_time": 2.784090909090909,
                "pitch": 55,
                "velocity": 40,
                "duration": 0.07500000000000018,
                "tempo": 120.0
            },
            {
                "start_time": 2.809090909090909,
                "end_time": 2.884090909090909,
                "pitch": 58,
                "velocity": 40,
                "duration": 0.07499999999999973,
                "tempo": 120.0
            },
            {
                "start_time": 2.911363636363636,
                "end_time": 2.9863636363636363,
                "pitch": 67,
                "velocity": 40,
                "duration": 0.07500000000000018,
                "tempo": 120.0
            },
            {
                "start_time": 3.0113636363636362,
                "end_time": 3.0863636363636364,
                "pitch": 70,
                "velocity": 40,
                "duration": 0.07500000000000018,
                "tempo": 120.0
            },
            {
                "start_time": 3.1113636363636363,
                "end_time": 3.1886363636363635,
                "pitch": 41,
                "velocity": 40,
                "duration": 0.07727272727272716,
                "tempo": 120.0
            },
            {
                "start_time": 3.2136363636363634,
                "end_time": 3.2886363636363636,
                "pitch": 46,
                "velocity": 40,
                "duration": 0.07500000000000018,
                "tempo": 120.0
            },
            {
                "start_time": 3.3136363636363635,
                "end_time": 3.3909090909090907,
                "pitch": 53,
                "velocity": 40,
                "duration": 0.07727272727272716,
                "tempo": 120.0
            },
            {
                "start_time": 3.4159090909090906,
                "end_time": 3.4909090909090907,
                "pitch": 58,
                "velocity": 40,
                "duration": 0.07500000000000018,
                "tempo": 120.0
            },
            {
                "start_time": 3.5159090909090907,
                "end_time": 3.590909090909091,
                "pitch": 65,
                "velocity": 40,
                "duration": 0.07500000000000018,
                "tempo": 120.0
            },
            {
                "start_time": 3.6159090909090907,
                "end_time": 3.693181818181818,
                "pitch": 70,
                "velocity": 40,
                "duration": 0.07727272727272716,
                "tempo": 120.0
            },
            {
                "start_time": 3.718181818181818,
                "end_time": 3.793181818181818,
                "pitch": 43,
                "velocity": 40,
                "duration": 0.07500000000000018,
                "tempo": 120.0
            },
            {
                "start_time": 3.818181818181818,
                "end_time": 3.895454545454545,
                "pitch": 46,
                "velocity": 40,
                "duration": 0.07727272727272716,
                "tempo": 120.0
            },
            {
                "start_time": 3.9204545454545454,
                "end_time": 3.995454545454545,
                "pitch": 55,
                "velocity": 40,
                "duration": 0.07499999999999973,
                "tempo": 120.0
            },
            {
                "start_time": 4.0204545454545455,
                "end_time": 4.097727272727273,
                "pitch": 58,
                "velocity": 40,
                "duration": 0.07727272727272716,
                "tempo": 120.0
            },
            {
                "start_time": 4.122727272727272,
                "end_time": 4.197727272727272,
                "pitch": 67,
                "velocity": 40,
                "duration": 0.07500000000000018,
                "tempo": 120.0
            },
            {
                "start_time": 4.225,
                "end_time": 4.3,
                "pitch": 70,
                "velocity": 40,
                "duration": 0.07500000000000018,
                "tempo": 120.0
            },
            {
                "start_time": 4.325,
                "end_time": 4.3999999999999995,
                "pitch": 41,
                "velocity": 40,
                "duration": 0.07499999999999929,
                "tempo": 120.0
            },
            {
                "start_time": 4.425,
                "end_time": 4.502272727272727,
                "pitch": 46,
                "velocity": 40,
                "duration": 0.07727272727272716,
                "tempo": 120.0
            },
            {
                "start_time": 4.527272727272727,
                "end_time": 4.602272727272727,
                "pitch": 53,
                "velocity": 40,
                "duration": 0.07499999999999929,
                "tempo": 120.0
            },
            {
                "start_time": 4.627272727272727,
                "end_time": 4.702272727272727,
                "pitch": 58,
                "velocity": 40,
                "duration": 0.07500000000000018,
                "tempo": 120.0
            },
            {
                "start_time": 4.7295454545454545,
                "end_time": 4.804545454545455,
                "pitch": 65,
                "velocity": 40,
                "duration": 0.07500000000000018,
                "tempo": 120.0
            },
            {
                "start_time": 4.829545454545454,
                "end_time": 4.906818181818181,
                "pitch": 70,
                "velocity": 40,
                "duration": 0.07727272727272716,
                "tempo": 120.0
            },
            {
                "start_time": 4.931818181818182,
                "end_time": 5.006818181818182,
                "pitch": 43,
                "velocity": 40,
                "duration": 0.07500000000000018,
                "tempo": 120.0
            },
            {
                "start_time": 5.031818181818181,
                "end_time": 5.1068181818181815,
                "pitch": 46,
                "velocity": 40,
                "duration": 0.07500000000000018,
                "tempo": 120.0
            },
            {
                "start_time": 5.131818181818182,
                "end_time": 5.209090909090909,
                "pitch": 55,
                "velocity": 40,
                "duration": 0.07727272727272716,
                "tempo": 120.0
            },
            {
                "start_time": 5.2340909090909085,
                "end_time": 5.309090909090909,
                "pitch": 58,
                "velocity": 40,
                "duration": 0.07500000000000018,
                "tempo": 120.0
            },
            {
                "start_time": 5.334090909090909,
                "end_time": 5.411363636363636,
                "pitch": 67,
                "velocity": 40,
                "duration": 0.07727272727272716,
                "tempo": 120.0
            },
            {
                "start_time": 5.4363636363636365,
                "end_time": 5.511363636363636,
                "pitch": 70,
                "velocity": 40,
                "duration": 0.07499999999999929,
                "tempo": 120.0
            },
            {
                "start_time": 5.536363636363636,
                "end_time": 5.613636363636363,
                "pitch": 41,
                "velocity": 40,
                "duration": 0.07727272727272716,
                "tempo": 120.0
            },
            {
                "start_time": 5.638636363636364,
                "end_time": 5.713636363636363,
                "pitch": 46,
                "velocity": 40,
                "duration": 0.07499999999999929,
                "tempo": 120.0
            },
            {
                "start_time": 5.738636363636363,
                "end_time": 5.8159090909090905,
                "pitch": 53,
                "velocity": 40,
                "duration": 0.07727272727272716,
                "tempo": 120.0
            },
            {
                "start_time": 5.840909090909091,
                "end_time": 5.915909090909091,
                "pitch": 58,
                "velocity": 40,
                "duration": 0.07500000000000018,
                "tempo": 120.0
            },
            {
                "start_time": 5.9409090909090905,
                "end_time": 6.018181818181818,
                "pitch": 65,
                "velocity": 40,
                "duration": 0.07727272727272716,
                "tempo": 120.0
            },
            {
                "start_time": 6.043181818181818,
                "end_time": 6.118181818181818,
                "pitch": 70,
                "velocity": 40,
                "duration": 0.07500000000000018,
                "tempo": 120.0
            },
            {
                "start_time": 6.143181818181818,
                "end_time": 6.218181818181818,
                "pitch": 44,
                "velocity": 40,
                "duration": 0.07500000000000018,
                "tempo": 120.0
            },
            {
                "start_time": 6.245454545454545,
                "end_time": 6.320454545454545,
                "pitch": 49,
                "velocity": 40,
                "duration": 0.07500000000000018,
                "tempo": 120.0
            },
            {
                "start_time": 6.345454545454545,
                "end_time": 6.422727272727273,
                "pitch": 56,
                "velocity": 40,
                "duration": 0.07727272727272805,
                "tempo": 120.0
            },
            {
                "start_time": 6.447727272727272,
                "end_time": 6.5227272727272725,
                "pitch": 61,
                "velocity": 40,
                "duration": 0.07500000000000018,
                "tempo": 120.0
            },
            {
                "start_time": 6.547727272727273,
                "end_time": 6.625,
                "pitch": 68,
                "velocity": 40,
                "duration": 0.07727272727272716,
                "tempo": 120.0
            },
            {
                "start_time": 6.6499999999999995,
                "end_time": 6.725,
                "pitch": 73,
                "velocity": 40,
                "duration": 0.07500000000000018,
                "tempo": 120.0
            },
            {
                "start_time": 6.75,
                "end_time": 6.827272727272727,
                "pitch": 43,
                "velocity": 40,
                "duration": 0.07727272727272716,
                "tempo": 120.0
            },
            {
                "start_time": 6.852272727272727,
                "end_time": 6.927272727272727,
                "pitch": 48,
                "velocity": 40,
                "duration": 0.07500000000000018,
                "tempo": 120.0
            },
            {
                "start_time": 6.952272727272727,
                "end_time": 7.027272727272727,
                "pitch": 55,
                "velocity": 40,
                "duration": 0.07500000000000018,
                "tempo": 120.0
            },
            {
                "start_time": 7.052272727272727,
                "end_time": 7.129545454545454,
                "pitch": 60,
                "velocity": 40,
                "duration": 0.07727272727272716,
                "tempo": 120.0
            },
            {
                "start_time": 7.154545454545454,
                "end_time": 7.2295454545454545,
                "pitch": 67,
                "velocity": 40,
                "duration": 0.07500000000000018,
                "tempo": 120.0
            },
            {
                "start_time": 7.254545454545454,
                "end_time": 7.331818181818181,
                "pitch": 72,
                "velocity": 40,
                "duration": 0.07727272727272716,
                "tempo": 120.0
            },
            {
                "start_time": 7.3568181818181815,
                "end_time": 7.431818181818182,
                "pitch": 42,
                "velocity": 40,
                "duration": 0.07500000000000018,
                "tempo": 120.0
            },
            {
                "start_time": 7.459090909090909,
                "end_time": 7.534090909090908,
                "pitch": 46,
                "velocity": 40,
                "duration": 0.07499999999999929,
                "tempo": 120.0
            },
            {
                "start_time": 7.559090909090909,
                "end_time": 7.636363636363636,
                "pitch": 54,
                "velocity": 40,
                "duration": 0.07727272727272716,
                "tempo": 120.0
            },
            {
                "start_time": 7.661363636363636,
                "end_time": 7.736363636363636,
                "pitch": 58,
                "velocity": 40,
                "duration": 0.07500000000000018,
                "tempo": 120.0
            },
            {
                "start_time": 7.761363636363636,
                "end_time": 7.838636363636363,
                "pitch": 66,
                "velocity": 40,
                "duration": 0.07727272727272716,
                "tempo": 120.0
            },
            {
                "start_time": 7.863636363636363,
                "end_time": 7.9386363636363635,
                "pitch": 70,
                "velocity": 40,
                "duration": 0.07500000000000018,
                "tempo": 120.0
            },
            {
                "start_time": 7.963636363636363,
                "end_time": 8.040909090909091,
                "pitch": 41,
                "velocity": 40,
                "duration": 0.07727272727272805,
                "tempo": 120.0
            },
            {
                "start_time": 8.065909090909091,
                "end_time": 8.14090909090909,
                "pitch": 45,
                "velocity": 40,
                "duration": 0.07499999999999929,
                "tempo": 120.0
            },
            {
                "start_time": 8.168181818181818,
                "end_time": 8.243181818181817,
                "pitch": 53,
                "velocity": 40,
                "duration": 0.07499999999999929,
                "tempo": 120.0
            },
            {
                "start_time": 8.268181818181818,
                "end_time": 8.343181818181817,
                "pitch": 57,
                "velocity": 40,
                "duration": 0.07499999999999929,
                "tempo": 120.0
            },
            {
                "start_time": 8.370454545454544,
                "end_time": 8.445454545454545,
                "pitch": 65,
                "velocity": 40,
                "duration": 0.07500000000000107,
                "tempo": 120.0
            },
            {
                "start_time": 8.470454545454546,
                "end_time": 8.545454545454545,
                "pitch": 69,
                "velocity": 40,
                "duration": 0.07499999999999929,
                "tempo": 120.0
            },
            {
                "start_time": 8.570454545454545,
                "end_time": 8.645454545454545,
                "pitch": 38,
                "velocity": 40,
                "duration": 0.07499999999999929,
                "tempo": 120.0
            },
            {
                "start_time": 8.672727272727272,
                "end_time": 8.747727272727273,
                "pitch": 41,
                "velocity": 40,
                "duration": 0.07500000000000107,
                "tempo": 120.0
            },
            {
                "start_time": 8.772727272727272,
                "end_time": 8.85,
                "pitch": 50,
                "velocity": 40,
                "duration": 0.07727272727272805,
                "tempo": 120.0
            },
            {
                "start_time": 8.875,
                "end_time": 8.95,
                "pitch": 53,
                "velocity": 40,
                "duration": 0.07499999999999929,
                "tempo": 120.0
            },
            {
                "start_time": 8.975,
                "end_time": 9.052272727272728,
                "pitch": 62,
                "velocity": 40,
                "duration": 0.07727272727272805,
                "tempo": 120.0
            },
            {
                "start_time": 9.077272727272726,
                "end_time": 9.152272727272727,
                "pitch": 65,
                "velocity": 40,
                "duration": 0.07500000000000107,
                "tempo": 120.0
            },
            {
                "start_time": 9.179545454545455,
                "end_time": 9.254545454545454,
                "pitch": 41,
                "velocity": 40,
                "duration": 0.07499999999999929,
                "tempo": 120.0
            },
            {
                "start_time": 9.279545454545454,
                "end_time": 9.35681818181818,
                "pitch": 46,
                "velocity": 40,
                "duration": 0.07727272727272627,
                "tempo": 120.0
            },
            {
                "start_time": 9.381818181818181,
                "end_time": 9.456818181818182,
                "pitch": 53,
                "velocity": 40,
                "duration": 0.07500000000000107,
                "tempo": 120.0
            },
            {
                "start_time": 9.48181818181818,
                "end_time": 9.559090909090909,
                "pitch": 58,
                "velocity": 40,
                "duration": 0.07727272727272805,
                "tempo": 120.0
            },
            {
                "start_time": 9.584090909090909,
                "end_time": 9.659090909090908,
                "pitch": 65,
                "velocity": 40,
                "duration": 0.07499999999999929,
                "tempo": 120.0
            },
            {
                "start_time": 9.684090909090909,
                "end_time": 9.761363636363637,
                "pitch": 70,
                "velocity": 40,
                "duration": 0.07727272727272805,
                "tempo": 120.0
            },
            {
                "start_time": 9.786363636363635,
                "end_time": 9.861363636363636,
                "pitch": 43,
                "velocity": 40,
                "duration": 0.07500000000000107,
                "tempo": 120.0
            },
            {
                "start_time": 9.886363636363637,
                "end_time": 9.963636363636363,
                "pitch": 48,
                "velocity": 40,
                "duration": 0.07727272727272627,
                "tempo": 120.0
            },
            {
                "start_time": 9.988636363636363,
                "end_time": 10.063636363636363,
                "pitch": 55,
                "velocity": 40,
                "duration": 0.07499999999999929,
                "tempo": 120.0
            },
            {
                "start_time": 10.088636363636363,
                "end_time": 10.163636363636364,
                "pitch": 60,
                "velocity": 40,
                "duration": 0.07500000000000107,
                "tempo": 120.0
            },
            {
                "start_time": 10.188636363636363,
                "end_time": 10.26590909090909,
                "pitch": 67,
                "velocity": 40,
                "duration": 0.07727272727272805,
                "tempo": 120.0
            },
            {
                "start_time": 10.290909090909091,
                "end_time": 10.36590909090909,
                "pitch": 72,
                "velocity": 40,
                "duration": 0.07499999999999929,
                "tempo": 120.0
            },
            {
                "start_time": 10.393181818181818,
                "end_time": 10.468181818181817,
                "pitch": 41,
                "velocity": 40,
                "duration": 0.07499999999999929,
                "tempo": 120.0
            },
            {
                "start_time": 10.493181818181817,
                "end_time": 10.570454545454545,
                "pitch": 45,
                "velocity": 40,
                "duration": 0.07727272727272805,
                "tempo": 120.0
            },
            {
                "start_time": 10.595454545454546,
                "end_time": 10.670454545454545,
                "pitch": 53,
                "velocity": 40,
                "duration": 0.07499999999999929,
                "tempo": 120.0
            },
            {
                "start_time": 10.695454545454545,
                "end_time": 10.772727272727272,
                "pitch": 57,
                "velocity": 40,
                "duration": 0.07727272727272627,
                "tempo": 120.0
            },
            {
                "start_time": 10.797727272727272,
                "end_time": 10.872727272727273,
                "pitch": 65,
                "velocity": 40,
                "duration": 0.07500000000000107,
                "tempo": 120.0
            },
            {
                "start_time": 10.897727272727272,
                "end_time": 10.975,
                "pitch": 69,
                "velocity": 40,
                "duration": 0.07727272727272805,
                "tempo": 120.0
            },
            {
                "start_time": 11.0,
                "end_time": 11.077272727272726,
                "pitch": 38,
                "velocity": 40,
                "duration": 0.07727272727272627,
                "tempo": 120.0
            },
            {
                "start_time": 11.102272727272727,
                "end_time": 11.177272727272726,
                "pitch": 41,
                "velocity": 40,
                "duration": 0.07499999999999929,
                "tempo": 120.0
            },
            {
                "start_time": 11.202272727272726,
                "end_time": 11.279545454545454,
                "pitch": 50,
                "velocity": 40,
                "duration": 0.07727272727272805,
                "tempo": 120.0
            },
            {
                "start_time": 11.304545454545455,
                "end_time": 11.379545454545454,
                "pitch": 53,
                "velocity": 40,
                "duration": 0.07499999999999929,
                "tempo": 120.0
            },
            {
                "start_time": 11.404545454545454,
                "end_time": 11.479545454545454,
                "pitch": 62,
                "velocity": 40,
                "duration": 0.07499999999999929,
                "tempo": 120.0
            },
            {
                "start_time": 11.504545454545454,
                "end_time": 11.581818181818182,
                "pitch": 65,
                "velocity": 40,
                "duration": 0.07727272727272805,
                "tempo": 120.0
            },
            {
                "start_time": 11.60681818181818,
                "end_time": 11.681818181818182,
                "pitch": 42,
                "velocity": 40,
                "duration": 0.07500000000000107,
                "tempo": 120.0
            },
            {
                "start_time": 11.706818181818182,
                "end_time": 11.784090909090908,
                "pitch": 46,
                "velocity": 40,
                "duration": 0.07727272727272627,
                "tempo": 120.0
            },
            {
                "start_time": 11.809090909090909,
                "end_time": 11.884090909090908,
                "pitch": 54,
                "velocity": 40,
                "duration": 0.07499999999999929,
                "tempo": 120.0
            },
            {
                "start_time": 11.909090909090908,
                "end_time": 11.986363636363636,
                "pitch": 58,
                "velocity": 40,
                "duration": 0.07727272727272805,
                "tempo": 120.0
            },
            {
                "start_time": 12.011363636363635,
                "end_time": 12.086363636363636,
                "pitch": 66,
                "velocity": 40,
                "duration": 0.07500000000000107,
                "tempo": 120.0
            },
            {
                "start_time": 12.113636363636363,
                "end_time": 12.188636363636363,
                "pitch": 70,
                "velocity": 40,
                "duration": 0.07499999999999929,
                "tempo": 120.0
            },
            {
                "start_time": 12.213636363636363,
                "end_time": 12.290909090909091,
                "pitch": 43,
                "velocity": 40,
                "duration": 0.07727272727272805,
                "tempo": 120.0
            },
            {
                "start_time": 12.31590909090909,
                "end_time": 12.39090909090909,
                "pitch": 46,
                "velocity": 40,
                "duration": 0.07500000000000107,
                "tempo": 120.0
            },
            {
                "start_time": 12.415909090909091,
                "end_time": 12.493181818181817,
                "pitch": 55,
                "velocity": 40,
                "duration": 0.07727272727272627,
                "tempo": 120.0
            },
            {
                "start_time": 12.518181818181818,
                "end_time": 12.593181818181817,
                "pitch": 58,
                "velocity": 40,
                "duration": 0.07499999999999929,
                "tempo": 120.0
            },
            {
                "start_time": 12.618181818181817,
                "end_time": 12.695454545454545,
                "pitch": 67,
                "velocity": 40,
                "duration": 0.07727272727272805,
                "tempo": 120.0
            },
            {
                "start_time": 12.720454545454546,
                "end_time": 12.795454545454545,
                "pitch": 70,
                "velocity": 40,
                "duration": 0.07499999999999929,
                "tempo": 120.0
            },
            {
                "start_time": 12.822727272727272,
                "end_time": 12.897727272727272,
                "pitch": 41,
                "velocity": 40,
                "duration": 0.07499999999999929,
                "tempo": 120.0
            },
            {
                "start_time": 12.922727272727272,
                "end_time": 12.997727272727271,
                "pitch": 46,
                "velocity": 40,
                "duration": 0.07499999999999929,
                "tempo": 120.0
            },
            {
                "start_time": 13.022727272727272,
                "end_time": 13.097727272727273,
                "pitch": 53,
                "velocity": 40,
                "duration": 0.07500000000000107,
                "tempo": 120.0
            },
            {
                "start_time": 13.122727272727271,
                "end_time": 13.2,
                "pitch": 58,
                "velocity": 40,
                "duration": 0.07727272727272805,
                "tempo": 120.0
            },
            {
                "start_time": 13.225,
                "end_time": 13.299999999999999,
                "pitch": 65,
                "velocity": 40,
                "duration": 0.07499999999999929,
                "tempo": 120.0
            },
            {
                "start_time": 13.327272727272726,
                "end_time": 13.402272727272727,
                "pitch": 70,
                "velocity": 40,
                "duration": 0.07500000000000107,
                "tempo": 120.0
            },
            {
                "start_time": 13.427272727272726,
                "end_time": 13.502272727272727,
                "pitch": 43,
                "velocity": 40,
                "duration": 0.07500000000000107,
                "tempo": 120.0
            },
            {
                "start_time": 13.529545454545454,
                "end_time": 13.604545454545454,
                "pitch": 46,
                "velocity": 40,
                "duration": 0.07499999999999929,
                "tempo": 120.0
            },
            {
                "start_time": 13.629545454545454,
                "end_time": 13.704545454545453,
                "pitch": 55,
                "velocity": 40,
                "duration": 0.07499999999999929,
                "tempo": 120.0
            },
            {
                "start_time": 13.729545454545454,
                "end_time": 13.804545454545455,
                "pitch": 58,
                "velocity": 40,
                "duration": 0.07500000000000107,
                "tempo": 120.0
            },
            {
                "start_time": 13.829545454545453,
                "end_time": 13.906818181818181,
                "pitch": 67,
                "velocity": 40,
                "duration": 0.07727272727272805,
                "tempo": 120.0
            },
            {
                "start_time": 13.931818181818182,
                "end_time": 14.006818181818181,
                "pitch": 70,
                "velocity": 40,
                "duration": 0.07499999999999929,
                "tempo": 120.0
            },
            {
                "start_time": 14.031818181818181,
                "end_time": 14.10681818181818,
                "pitch": 41,
                "velocity": 40,
                "duration": 0.07499999999999929,
                "tempo": 120.0
            },
            {
                "start_time": 14.131818181818181,
                "end_time": 14.209090909090909,
                "pitch": 46,
                "velocity": 40,
                "duration": 0.07727272727272805,
                "tempo": 120.0
            },
            {
                "start_time": 14.234090909090908,
                "end_time": 14.309090909090909,
                "pitch": 53,
                "velocity": 40,
                "duration": 0.07500000000000107,
                "tempo": 120.0
            },
            {
                "start_time": 14.336363636363636,
                "end_time": 14.411363636363635,
                "pitch": 58,
                "velocity": 40,
                "duration": 0.07499999999999929,
                "tempo": 120.0
            },
            {
                "start_time": 14.436363636363636,
                "end_time": 14.511363636363635,
                "pitch": 65,
                "velocity": 40,
                "duration": 0.07499999999999929,
                "tempo": 120.0
            },
            {
                "start_time": 14.536363636363635,
                "end_time": 14.611363636363636,
                "pitch": 70,
                "velocity": 40,
                "duration": 0.07500000000000107,
                "tempo": 120.0
            },
            {
                "start_time": 14.638636363636364,
                "end_time": 14.713636363636363,
                "pitch": 43,
                "velocity": 40,
                "duration": 0.07499999999999929,
                "tempo": 120.0
            },
            {
                "start_time": 14.738636363636363,
                "end_time": 14.813636363636363,
                "pitch": 46,
                "velocity": 40,
                "duration": 0.07499999999999929,
                "tempo": 120.0
            },
            {
                "start_time": 14.84090909090909,
                "end_time": 14.915909090909091,
                "pitch": 55,
                "velocity": 40,
                "duration": 0.07500000000000107,
                "tempo": 120.0
            },
            {
                "start_time": 14.94090909090909,
                "end_time": 15.01590909090909,
                "pitch": 58,
                "velocity": 40,
                "duration": 0.07500000000000107,
                "tempo": 120.0
            },
            {
                "start_time": 15.043181818181818,
                "end_time": 15.118181818181817,
                "pitch": 67,
                "velocity": 40,
                "duration": 0.07499999999999929,
                "tempo": 120.0
            },
            {
                "start_time": 15.143181818181818,
                "end_time": 15.218181818181817,
                "pitch": 70,
                "velocity": 40,
                "duration": 0.07499999999999929,
                "tempo": 120.0
            },
            {
                "start_time": 15.243181818181817,
                "end_time": 15.318181818181817,
                "pitch": 41,
                "velocity": 40,
                "duration": 0.07499999999999929,
                "tempo": 120.0
            },
            {
                "start_time": 15.343181818181817,
                "end_time": 15.420454545454545,
                "pitch": 46,
                "velocity": 40,
                "duration": 0.07727272727272805,
                "tempo": 120.0
            },
            {
                "start_time": 15.445454545454545,
                "end_time": 15.520454545454545,
                "pitch": 53,
                "velocity": 40,
                "duration": 0.07499999999999929,
                "tempo": 120.0
            },
            {
                "start_time": 15.545454545454545,
                "end_time": 15.620454545454544,
                "pitch": 58,
                "velocity": 40,
                "duration": 0.07499999999999929,
                "tempo": 120.0
            },
            {
                "start_time": 15.645454545454545,
                "end_time": 15.722727272727273,
                "pitch": 65,
                "velocity": 40,
                "duration": 0.07727272727272805,
                "tempo": 120.0
            },
            {
                "start_time": 15.747727272727271,
                "end_time": 15.825,
                "pitch": 70,
                "velocity": 40,
                "duration": 0.07727272727272805,
                "tempo": 120.0
            },
            {
                "start_time": 15.85,
                "end_time": 15.924999999999999,
                "pitch": 44,
                "velocity": 40,
                "duration": 0.07499999999999929,
                "tempo": 120.0
            },
            {
                "start_time": 15.95,
                "end_time": 16.025,
                "pitch": 49,
                "velocity": 40,
                "duration": 0.07499999999999929,
                "tempo": 120.0
            },
            {
                "start_time": 16.05,
                "end_time": 16.125,
                "pitch": 56,
                "velocity": 40,
                "duration": 0.07499999999999929,
                "tempo": 120.0
            },
            {
                "start_time": 16.152272727272727,
                "end_time": 16.227272727272727,
                "pitch": 61,
                "velocity": 40,
                "duration": 0.07499999999999929,
                "tempo": 120.0
            },
            {
                "start_time": 16.252272727272725,
                "end_time": 16.329545454545453,
                "pitch": 68,
                "velocity": 40,
                "duration": 0.07727272727272805,
                "tempo": 120.0
            },
            {
                "start_time": 16.354545454545455,
                "end_time": 16.429545454545455,
                "pitch": 73,
                "velocity": 40,
                "duration": 0.07499999999999929,
                "tempo": 120.0
            },
            {
                "start_time": 16.454545454545453,
                "end_time": 16.529545454545453,
                "pitch": 43,
                "velocity": 40,
                "duration": 0.07499999999999929,
                "tempo": 120.0
            },
            {
                "start_time": 16.55681818181818,
                "end_time": 16.631818181818183,
                "pitch": 48,
                "velocity": 40,
                "duration": 0.07500000000000284,
                "tempo": 120.0
            },
            {
                "start_time": 16.65681818181818,
                "end_time": 16.73181818181818,
                "pitch": 55,
                "velocity": 40,
                "duration": 0.07499999999999929,
                "tempo": 120.0
            },
            {
                "start_time": 16.756818181818183,
                "end_time": 16.831818181818182,
                "pitch": 60,
                "velocity": 40,
                "duration": 0.07499999999999929,
                "tempo": 120.0
            },
            {
                "start_time": 16.85681818181818,
                "end_time": 16.93409090909091,
                "pitch": 67,
                "velocity": 40,
                "duration": 0.07727272727272805,
                "tempo": 120.0
            },
            {
                "start_time": 16.959090909090907,
                "end_time": 17.034090909090907,
                "pitch": 72,
                "velocity": 40,
                "duration": 0.07499999999999929,
                "tempo": 120.0
            },
            {
                "start_time": 17.05909090909091,
                "end_time": 17.134090909090908,
                "pitch": 42,
                "velocity": 40,
                "duration": 0.07499999999999929,
                "tempo": 120.0
            },
            {
                "start_time": 17.161363636363635,
                "end_time": 17.236363636363635,
                "pitch": 46,
                "velocity": 40,
                "duration": 0.07499999999999929,
                "tempo": 120.0
            },
            {
                "start_time": 17.261363636363637,
                "end_time": 17.33863636363636,
                "pitch": 54,
                "velocity": 40,
                "duration": 0.0772727272727245,
                "tempo": 120.0
            },
            {
                "start_time": 17.363636363636363,
                "end_time": 17.436363636363634,
                "pitch": 58,
                "velocity": 40,
                "duration": 0.07272727272727053,
                "tempo": 120.0
            },
            {
                "start_time": 17.461363636363636,
                "end_time": 17.536363636363635,
                "pitch": 66,
                "velocity": 40,
                "duration": 0.07499999999999929,
                "tempo": 120.0
            },
            {
                "start_time": 17.561363636363634,
                "end_time": 17.634090909090908,
                "pitch": 70,
                "velocity": 40,
                "duration": 0.07272727272727408,
                "tempo": 120.0
            },
            {
                "start_time": 17.659090909090907,
                "end_time": 17.736363636363635,
                "pitch": 41,
                "velocity": 40,
                "duration": 0.07727272727272805,
                "tempo": 120.0
            },
            {
                "start_time": 17.761363636363637,
                "end_time": 17.83863636363636,
                "pitch": 45,
                "velocity": 40,
                "duration": 0.0772727272727245,
                "tempo": 120.0
            },
            {
                "start_time": 17.86590909090909,
                "end_time": 17.943181818181817,
                "pitch": 53,
                "velocity": 40,
                "duration": 0.07727272727272805,
                "tempo": 120.0
            },
            {
                "start_time": 17.96818181818182,
                "end_time": 18.045454545454543,
                "pitch": 57,
                "velocity": 40,
                "duration": 0.0772727272727245,
                "tempo": 120.0
            },
            {
                "start_time": 18.070454545454545,
                "end_time": 18.145454545454545,
                "pitch": 65,
                "velocity": 40,
                "duration": 0.07499999999999929,
                "tempo": 120.0
            },
            {
                "start_time": 18.170454545454543,
                "end_time": 18.245454545454546,
                "pitch": 69,
                "velocity": 40,
                "duration": 0.07500000000000284,
                "tempo": 120.0
            },
            {
                "start_time": 18.270454545454545,
                "end_time": 18.345454545454544,
                "pitch": 38,
                "velocity": 40,
                "duration": 0.07499999999999929,
                "tempo": 120.0
            },
            {
                "start_time": 18.370454545454546,
                "end_time": 18.44772727272727,
                "pitch": 41,
                "velocity": 40,
                "duration": 0.0772727272727245,
                "tempo": 120.0
            },
            {
                "start_time": 18.472727272727273,
                "end_time": 18.547727272727272,
                "pitch": 50,
                "velocity": 40,
                "duration": 0.07499999999999929,
                "tempo": 120.0
            },
            {
                "start_time": 18.57272727272727,
                "end_time": 18.647727272727273,
                "pitch": 53,
                "velocity": 40,
                "duration": 0.07500000000000284,
                "tempo": 120.0
            },
            {
                "start_time": 18.675,
                "end_time": 18.75,
                "pitch": 62,
                "velocity": 40,
                "duration": 0.07499999999999929,
                "tempo": 120.0
            },
            {
                "start_time": 18.775,
                "end_time": 18.852272727272727,
                "pitch": 65,
                "velocity": 40,
                "duration": 0.07727272727272805,
                "tempo": 120.0
            },
            {
                "start_time": 18.877272727272725,
                "end_time": 18.952272727272728,
                "pitch": 41,
                "velocity": 40,
                "duration": 0.07500000000000284,
                "tempo": 120.0
            },
            {
                "start_time": 18.977272727272727,
                "end_time": 19.052272727272726,
                "pitch": 46,
                "velocity": 40,
                "duration": 0.07499999999999929,
                "tempo": 120.0
            },
            {
                "start_time": 19.077272727272728,
                "end_time": 19.154545454545453,
                "pitch": 53,
                "velocity": 40,
                "duration": 0.0772727272727245,
                "tempo": 120.0
            },
            {
                "start_time": 19.179545454545455,
                "end_time": 19.254545454545454,
                "pitch": 58,
                "velocity": 40,
                "duration": 0.07499999999999929,
                "tempo": 120.0
            },
            {
                "start_time": 19.279545454545453,
                "end_time": 19.35681818181818,
                "pitch": 65,
                "velocity": 40,
                "duration": 0.07727272727272805,
                "tempo": 120.0
            },
            {
                "start_time": 19.38181818181818,
                "end_time": 19.456818181818182,
                "pitch": 70,
                "velocity": 40,
                "duration": 0.07500000000000284,
                "tempo": 120.0
            },
            {
                "start_time": 19.48181818181818,
                "end_time": 19.55909090909091,
                "pitch": 43,
                "velocity": 40,
                "duration": 0.07727272727272805,
                "tempo": 120.0
            },
            {
                "start_time": 19.584090909090907,
                "end_time": 19.659090909090907,
                "pitch": 48,
                "velocity": 40,
                "duration": 0.07499999999999929,
                "tempo": 120.0
            },
            {
                "start_time": 19.68409090909091,
                "end_time": 19.759090909090908,
                "pitch": 55,
                "velocity": 40,
                "duration": 0.07499999999999929,
                "tempo": 120.0
            },
            {
                "start_time": 19.784090909090907,
                "end_time": 19.85909090909091,
                "pitch": 60,
                "velocity": 40,
                "duration": 0.07500000000000284,
                "tempo": 120.0
            },
            {
                "start_time": 19.884090909090908,
                "end_time": 19.961363636363636,
                "pitch": 67,
                "velocity": 40,
                "duration": 0.07727272727272805,
                "tempo": 120.0
            },
            {
                "start_time": 19.986363636363635,
                "end_time": 20.061363636363634,
                "pitch": 72,
                "velocity": 40,
                "duration": 0.07499999999999929,
                "tempo": 120.0
            },
            {
                "start_time": 20.086363636363636,
                "end_time": 20.161363636363635,
                "pitch": 41,
                "velocity": 40,
                "duration": 0.07499999999999929,
                "tempo": 120.0
            },
            {
                "start_time": 20.188636363636363,
                "end_time": 20.263636363636362,
                "pitch": 45,
                "velocity": 40,
                "duration": 0.07499999999999929,
                "tempo": 120.0
            },
            {
                "start_time": 20.288636363636364,
                "end_time": 20.36590909090909,
                "pitch": 53,
                "velocity": 40,
                "duration": 0.0772727272727245,
                "tempo": 120.0
            },
            {
                "start_time": 20.39090909090909,
                "end_time": 20.46590909090909,
                "pitch": 57,
                "velocity": 40,
                "duration": 0.07499999999999929,
                "tempo": 120.0
            },
            {
                "start_time": 20.49090909090909,
                "end_time": 20.56590909090909,
                "pitch": 65,
                "velocity": 40,
                "duration": 0.07500000000000284,
                "tempo": 120.0
            },
            {
                "start_time": 20.59090909090909,
                "end_time": 20.668181818181818,
                "pitch": 69,
                "velocity": 40,
                "duration": 0.07727272727272805,
                "tempo": 120.0
            },
            {
                "start_time": 20.693181818181817,
                "end_time": 20.768181818181816,
                "pitch": 38,
                "velocity": 40,
                "duration": 0.07499999999999929,
                "tempo": 120.0
            },
            {
                "start_time": 20.793181818181818,
                "end_time": 20.870454545454546,
                "pitch": 41,
                "velocity": 40,
                "duration": 0.07727272727272805,
                "tempo": 120.0
            },
            {
                "start_time": 20.895454545454545,
                "end_time": 20.970454545454544,
                "pitch": 50,
                "velocity": 40,
                "duration": 0.07499999999999929,
                "tempo": 120.0
            },
            {
                "start_time": 20.995454545454546,
                "end_time": 21.07272727272727,
                "pitch": 53,
                "velocity": 40,
                "duration": 0.0772727272727245,
                "tempo": 120.0
            },
            {
                "start_time": 21.097727272727273,
                "end_time": 21.172727272727272,
                "pitch": 62,
                "velocity": 40,
                "duration": 0.07499999999999929,
                "tempo": 120.0
            },
            {
                "start_time": 21.19772727272727,
                "end_time": 21.272727272727273,
                "pitch": 65,
                "velocity": 40,
                "duration": 0.07500000000000284,
                "tempo": 120.0
            },
            {
                "start_time": 21.297727272727272,
                "end_time": 21.37272727272727,
                "pitch": 42,
                "velocity": 40,
                "duration": 0.07499999999999929,
                "tempo": 120.0
            },
            {
                "start_time": 21.4,
                "end_time": 21.474999999999998,
                "pitch": 46,
                "velocity": 40,
                "duration": 0.07499999999999929,
                "tempo": 120.0
            },
            {
                "start_time": 21.5,
                "end_time": 21.575,
                "pitch": 54,
                "velocity": 40,
                "duration": 0.07499999999999929,
                "tempo": 120.0
            },
            {
                "start_time": 21.599999999999998,
                "end_time": 21.675,
                "pitch": 58,
                "velocity": 40,
                "duration": 0.07500000000000284,
                "tempo": 120.0
            },
            {
                "start_time": 21.7,
                "end_time": 21.797727272727272,
                "pitch": 66,
                "velocity": 40,
                "duration": 0.09772727272727266,
                "tempo": 120.0
            },
            {
                "start_time": 21.831818181818182,
                "end_time": 21.93181818181818,
                "pitch": 70,
                "velocity": 40,
                "duration": 0.09999999999999787,
                "tempo": 120.0
            },
            {
                "start_time": 21.96590909090909,
                "end_time": 22.06590909090909,
                "pitch": 43,
                "velocity": 40,
                "duration": 0.10000000000000142,
                "tempo": 120.0
            },
            {
                "start_time": 22.099999999999998,
                "end_time": 22.2,
                "pitch": 46,
                "velocity": 40,
                "duration": 0.10000000000000142,
                "tempo": 120.0
            },
            {
                "start_time": 22.23409090909091,
                "end_time": 22.334090909090907,
                "pitch": 55,
                "velocity": 40,
                "duration": 0.09999999999999787,
                "tempo": 120.0
            },
            {
                "start_time": 22.36590909090909,
                "end_time": 22.46590909090909,
                "pitch": 58,
                "velocity": 40,
                "duration": 0.10000000000000142,
                "tempo": 120.0
            },
            {
                "start_time": 22.5,
                "end_time": 22.599999999999998,
                "pitch": 67,
                "velocity": 40,
                "duration": 0.09999999999999787,
                "tempo": 120.0
            },
            {
                "start_time": 22.634090909090908,
                "end_time": 22.73409090909091,
                "pitch": 70,
                "velocity": 40,
                "duration": 0.10000000000000142,
                "tempo": 120.0
            },
            {
                "start_time": 22.768181818181816,
                "end_time": 22.868181818181817,
                "pitch": 41,
                "velocity": 40,
                "duration": 0.10000000000000142,
                "tempo": 120.0
            },
            {
                "start_time": 22.902272727272727,
                "end_time": 22.913636363636364,
                "pitch": 46,
                "velocity": 40,
                "duration": 0.011363636363636687,
                "tempo": 120.0
            },
            {
                "start_time": 22.913636363636364,
                "end_time": 23.004545454545454,
                "pitch": 46,
                "velocity": 40,
                "duration": 0.09090909090908994,
                "tempo": 120.0
            },
            {
                "start_time": 23.038636363636364,
                "end_time": 23.14090909090909,
                "pitch": 53,
                "velocity": 40,
                "duration": 0.10227272727272663,
                "tempo": 120.0
            },
            {
                "start_time": 23.174999999999997,
                "end_time": 23.277272727272727,
                "pitch": 58,
                "velocity": 40,
                "duration": 0.10227272727273018,
                "tempo": 120.0
            },
            {
                "start_time": 23.311363636363634,
                "end_time": 23.411363636363635,
                "pitch": 65,
                "velocity": 40,
                "duration": 0.10000000000000142,
                "tempo": 120.0
            },
            {
                "start_time": 23.445454545454545,
                "end_time": 23.545454545454543,
                "pitch": 70,
                "velocity": 40,
                "duration": 0.09999999999999787,
                "tempo": 120.0
            },
            {
                "start_time": 23.579545454545453,
                "end_time": 23.679545454545455,
                "pitch": 43,
                "velocity": 40,
                "duration": 0.10000000000000142,
                "tempo": 120.0
            },
            {
                "start_time": 23.711363636363636,
                "end_time": 23.811363636363634,
                "pitch": 46,
                "velocity": 40,
                "duration": 0.09999999999999787,
                "tempo": 120.0
            },
            {
                "start_time": 23.845454545454544,
                "end_time": 23.945454545454545,
                "pitch": 55,
                "velocity": 40,
                "duration": 0.10000000000000142,
                "tempo": 120.0
            },
            {
                "start_time": 23.979545454545452,
                "end_time": 24.079545454545453,
                "pitch": 58,
                "velocity": 40,
                "duration": 0.10000000000000142,
                "tempo": 120.0
            },
            {
                "start_time": 24.113636363636363,
                "end_time": 24.21363636363636,
                "pitch": 67,
                "velocity": 40,
                "duration": 0.09999999999999787,
                "tempo": 120.0
            },
            {
                "start_time": 24.245454545454546,
                "end_time": 24.347727272727273,
                "pitch": 70,
                "velocity": 40,
                "duration": 0.10227272727272663,
                "tempo": 120.0
            },
            {
                "start_time": 24.379545454545454,
                "end_time": 24.48181818181818,
                "pitch": 41,
                "velocity": 40,
                "duration": 0.10227272727272663,
                "tempo": 120.0
            },
            {
                "start_time": 24.51590909090909,
                "end_time": 24.618181818181817,
                "pitch": 46,
                "velocity": 40,
                "duration": 0.10227272727272663,
                "tempo": 120.0
            },
            {
                "start_time": 24.652272727272727,
                "end_time": 24.754545454545454,
                "pitch": 53,
                "velocity": 40,
                "duration": 0.10227272727272663,
                "tempo": 120.0
            },
            {
                "start_time": 24.788636363636364,
                "end_time": 24.89090909090909,
                "pitch": 58,
                "velocity": 40,
                "duration": 0.10227272727272663,
                "tempo": 120.0
            },
            {
                "start_time": 24.922727272727272,
                "end_time": 25.025,
                "pitch": 65,
                "velocity": 40,
                "duration": 0.10227272727272663,
                "tempo": 120.0
            },
            {
                "start_time": 25.05681818181818,
                "end_time": 25.15681818181818,
                "pitch": 70,
                "velocity": 40,
                "duration": 0.10000000000000142,
                "tempo": 120.0
            },
            {
                "start_time": 25.19090909090909,
                "end_time": 25.29090909090909,
                "pitch": 43,
                "velocity": 40,
                "duration": 0.09999999999999787,
                "tempo": 120.0
            },
            {
                "start_time": 25.325,
                "end_time": 25.424999999999997,
                "pitch": 46,
                "velocity": 40,
                "duration": 0.09999999999999787,
                "tempo": 120.0
            },
            {
                "start_time": 25.459090909090907,
                "end_time": 25.55909090909091,
                "pitch": 55,
                "velocity": 40,
                "duration": 0.10000000000000142,
                "tempo": 120.0
            },
            {
                "start_time": 25.59090909090909,
                "end_time": 25.693181818181817,
                "pitch": 58,
                "velocity": 40,
                "duration": 0.10227272727272663,
                "tempo": 120.0
            },
            {
                "start_time": 25.724999999999998,
                "end_time": 25.825,
                "pitch": 67,
                "velocity": 40,
                "duration": 0.10000000000000142,
                "tempo": 120.0
            },
            {
                "start_time": 25.85909090909091,
                "end_time": 25.959090909090907,
                "pitch": 70,
                "velocity": 40,
                "duration": 0.09999999999999787,
                "tempo": 120.0
            },
            {
                "start_time": 25.993181818181817,
                "end_time": 26.095454545454544,
                "pitch": 41,
                "velocity": 40,
                "duration": 0.10227272727272663,
                "tempo": 120.0
            },
            {
                "start_time": 26.129545454545454,
                "end_time": 26.229545454545452,
                "pitch": 46,
                "velocity": 40,
                "duration": 0.09999999999999787,
                "tempo": 120.0
            },
            {
                "start_time": 26.263636363636362,
                "end_time": 26.36590909090909,
                "pitch": 53,
                "velocity": 40,
                "duration": 0.10227272727272663,
                "tempo": 120.0
            },
            {
                "start_time": 26.4,
                "end_time": 26.502272727272725,
                "pitch": 58,
                "velocity": 40,
                "duration": 0.10227272727272663,
                "tempo": 120.0
            },
            {
                "start_time": 26.536363636363635,
                "end_time": 26.636363636363637,
                "pitch": 65,
                "velocity": 40,
                "duration": 0.10000000000000142,
                "tempo": 120.0
            },
            {
                "start_time": 26.670454545454543,
                "end_time": 26.770454545454545,
                "pitch": 70,
                "velocity": 40,
                "duration": 0.10000000000000142,
                "tempo": 120.0
            },
            {
                "start_time": 26.804545454545455,
                "end_time": 26.904545454545453,
                "pitch": 44,
                "velocity": 40,
                "duration": 0.09999999999999787,
                "tempo": 120.0
            },
            {
                "start_time": 26.938636363636363,
                "end_time": 27.038636363636364,
                "pitch": 49,
                "velocity": 40,
                "duration": 0.10000000000000142,
                "tempo": 120.0
            },
            {
                "start_time": 27.070454545454545,
                "end_time": 27.170454545454543,
                "pitch": 56,
                "velocity": 40,
                "duration": 0.09999999999999787,
                "tempo": 120.0
            },
            {
                "start_time": 27.204545454545453,
                "end_time": 27.304545454545455,
                "pitch": 61,
                "velocity": 40,
                "duration": 0.10000000000000142,
                "tempo": 120.0
            },
            {
                "start_time": 27.33863636363636,
                "end_time": 27.438636363636363,
                "pitch": 68,
                "velocity": 40,
                "duration": 0.10000000000000142,
                "tempo": 120.0
            },
            {
                "start_time": 27.472727272727273,
                "end_time": 27.57272727272727,
                "pitch": 73,
                "velocity": 40,
                "duration": 0.09999999999999787,
                "tempo": 120.0
            },
            {
                "start_time": 27.604545454545452,
                "end_time": 27.706818181818182,
                "pitch": 43,
                "velocity": 40,
                "duration": 0.10227272727273018,
                "tempo": 120.0
            },
            {
                "start_time": 27.74090909090909,
                "end_time": 27.843181818181815,
                "pitch": 48,
                "velocity": 40,
                "duration": 0.10227272727272663,
                "tempo": 120.0
            },
            {
                "start_time": 27.877272727272725,
                "end_time": 27.979545454545452,
                "pitch": 55,
                "velocity": 40,
                "duration": 0.10227272727272663,
                "tempo": 120.0
            },
            {
                "start_time": 28.013636363636362,
                "end_time": 28.11590909090909,
                "pitch": 60,
                "velocity": 40,
                "duration": 0.10227272727272663,
                "tempo": 120.0
            },
            {
                "start_time": 28.15,
                "end_time": 28.25,
                "pitch": 67,
                "velocity": 40,
                "duration": 0.10000000000000142,
                "tempo": 120.0
            },
            {
                "start_time": 28.284090909090907,
                "end_time": 28.384090909090908,
                "pitch": 72,
                "velocity": 40,
                "duration": 0.10000000000000142,
                "tempo": 120.0
            },
            {
                "start_time": 28.41590909090909,
                "end_time": 28.51590909090909,
                "pitch": 42,
                "velocity": 40,
                "duration": 0.10000000000000142,
                "tempo": 120.0
            },
            {
                "start_time": 28.549999999999997,
                "end_time": 28.65,
                "pitch": 46,
                "velocity": 40,
                "duration": 0.10000000000000142,
                "tempo": 120.0
            },
            {
                "start_time": 28.68409090909091,
                "end_time": 28.784090909090907,
                "pitch": 54,
                "velocity": 40,
                "duration": 0.09999999999999787,
                "tempo": 120.0
            },
            {
                "start_time": 28.818181818181817,
                "end_time": 28.918181818181818,
                "pitch": 58,
                "velocity": 40,
                "duration": 0.10000000000000142,
                "tempo": 120.0
            },
            {
                "start_time": 28.95,
                "end_time": 29.052272727272726,
                "pitch": 66,
                "velocity": 40,
                "duration": 0.10227272727272663,
                "tempo": 120.0
            },
            {
                "start_time": 29.084090909090907,
                "end_time": 29.18409090909091,
                "pitch": 70,
                "velocity": 40,
                "duration": 0.10000000000000142,
                "tempo": 120.0
            },
            {
                "start_time": 29.218181818181815,
                "end_time": 29.320454545454545,
                "pitch": 41,
                "velocity": 40,
                "duration": 0.10227272727273018,
                "tempo": 120.0
            },
            {
                "start_time": 29.354545454545452,
                "end_time": 29.456818181818182,
                "pitch": 45,
                "velocity": 40,
                "duration": 0.10227272727273018,
                "tempo": 120.0
            },
            {
                "start_time": 29.49090909090909,
                "end_time": 29.59090909090909,
                "pitch": 53,
                "velocity": 40,
                "duration": 0.10000000000000142,
                "tempo": 120.0
            },
            {
                "start_time": 29.625,
                "end_time": 29.727272727272727,
                "pitch": 57,
                "velocity": 40,
                "duration": 0.10227272727272663,
                "tempo": 120.0
            },
            {
                "start_time": 29.761363636363637,
                "end_time": 29.861363636363635,
                "pitch": 65,
                "velocity": 40,
                "duration": 0.09999999999999787,
                "tempo": 120.0
            },
            {
                "start_time": 29.895454545454545,
                "end_time": 29.995454545454542,
                "pitch": 69,
                "velocity": 40,
                "duration": 0.09999999999999787,
                "tempo": 120.0
            },
            {
                "start_time": 30.029545454545453,
                "end_time": 30.129545454545454,
                "pitch": 38,
                "velocity": 40,
                "duration": 0.10000000000000142,
                "tempo": 120.0
            },
            {
                "start_time": 30.16363636363636,
                "end_time": 30.263636363636362,
                "pitch": 41,
                "velocity": 40,
                "duration": 0.10000000000000142,
                "tempo": 120.0
            },
            {
                "start_time": 30.295454545454543,
                "end_time": 30.39772727272727,
                "pitch": 50,
                "velocity": 40,
                "duration": 0.10227272727272663,
                "tempo": 120.0
            },
            {
                "start_time": 30.43181818181818,
                "end_time": 30.534090909090907,
                "pitch": 53,
                "velocity": 40,
                "duration": 0.10227272727272663,
                "tempo": 120.0
            },
            {
                "start_time": 30.568181818181817,
                "end_time": 30.670454545454543,
                "pitch": 62,
                "velocity": 40,
                "duration": 0.10227272727272663,
                "tempo": 120.0
            },
            {
                "start_time": 30.704545454545453,
                "end_time": 30.80681818181818,
                "pitch": 65,
                "velocity": 40,
                "duration": 0.10227272727272663,
                "tempo": 120.0
            },
            {
                "start_time": 30.84090909090909,
                "end_time": 30.940909090909088,
                "pitch": 41,
                "velocity": 40,
                "duration": 0.09999999999999787,
                "tempo": 120.0
            },
            {
                "start_time": 30.974999999999998,
                "end_time": 31.075,
                "pitch": 46,
                "velocity": 40,
                "duration": 0.10000000000000142,
                "tempo": 120.0
            },
            {
                "start_time": 31.10681818181818,
                "end_time": 31.206818181818182,
                "pitch": 53,
                "velocity": 40,
                "duration": 0.10000000000000142,
                "tempo": 120.0
            },
            {
                "start_time": 31.24090909090909,
                "end_time": 31.34090909090909,
                "pitch": 58,
                "velocity": 40,
                "duration": 0.10000000000000142,
                "tempo": 120.0
            },
            {
                "start_time": 31.375,
                "end_time": 31.474999999999998,
                "pitch": 65,
                "velocity": 40,
                "duration": 0.09999999999999787,
                "tempo": 120.0
            },
            {
                "start_time": 31.509090909090908,
                "end_time": 31.609090909090906,
                "pitch": 70,
                "velocity": 40,
                "duration": 0.09999999999999787,
                "tempo": 120.0
            },
            {
                "start_time": 31.643181818181816,
                "end_time": 31.743181818181817,
                "pitch": 43,
                "velocity": 40,
                "duration": 0.10000000000000142,
                "tempo": 120.0
            },
            {
                "start_time": 31.775,
                "end_time": 31.875,
                "pitch": 48,
                "velocity": 40,
                "duration": 0.10000000000000142,
                "tempo": 120.0
            },
            {
                "start_time": 31.909090909090907,
                "end_time": 32.01136363636363,
                "pitch": 55,
                "velocity": 40,
                "duration": 0.10227272727272663,
                "tempo": 120.0
            },
            {
                "start_time": 32.04545454545455,
                "end_time": 32.14772727272727,
                "pitch": 60,
                "velocity": 40,
                "duration": 0.10227272727272663,
                "tempo": 120.0
            },
            {
                "start_time": 32.18181818181818,
                "end_time": 32.28409090909091,
                "pitch": 67,
                "velocity": 40,
                "duration": 0.10227272727272663,
                "tempo": 120.0
            },
            {
                "start_time": 32.31590909090909,
                "end_time": 32.418181818181814,
                "pitch": 72,
                "velocity": 40,
                "duration": 0.10227272727272663,
                "tempo": 120.0
            },
            {
                "start_time": 32.45227272727273,
                "end_time": 32.55227272727272,
                "pitch": 41,
                "velocity": 40,
                "duration": 0.09999999999999432,
                "tempo": 120.0
            },
            {
                "start_time": 32.586363636363636,
                "end_time": 32.68636363636364,
                "pitch": 45,
                "velocity": 40,
                "duration": 0.10000000000000142,
                "tempo": 120.0
            },
            {
                "start_time": 32.720454545454544,
                "end_time": 32.820454545454545,
                "pitch": 53,
                "velocity": 40,
                "duration": 0.10000000000000142,
                "tempo": 120.0
            },
            {
                "start_time": 32.85454545454545,
                "end_time": 32.95454545454545,
                "pitch": 57,
                "velocity": 40,
                "duration": 0.10000000000000142,
                "tempo": 120.0
            },
            {
                "start_time": 32.98863636363636,
                "end_time": 33.08863636363636,
                "pitch": 65,
                "velocity": 40,
                "duration": 0.10000000000000142,
                "tempo": 120.0
            },
            {
                "start_time": 33.12045454545454,
                "end_time": 33.220454545454544,
                "pitch": 69,
                "velocity": 40,
                "duration": 0.10000000000000142,
                "tempo": 120.0
            },
            {
                "start_time": 33.25454545454545,
                "end_time": 33.35454545454545,
                "pitch": 38,
                "velocity": 40,
                "duration": 0.10000000000000142,
                "tempo": 120.0
            },
            {
                "start_time": 33.388636363636365,
                "end_time": 33.48863636363636,
                "pitch": 41,
                "velocity": 40,
                "duration": 0.09999999999999432,
                "tempo": 120.0
            },
            {
                "start_time": 33.52272727272727,
                "end_time": 33.62272727272727,
                "pitch": 50,
                "velocity": 40,
                "duration": 0.09999999999999432,
                "tempo": 120.0
            },
            {
                "start_time": 33.65681818181818,
                "end_time": 33.75909090909091,
                "pitch": 53,
                "velocity": 40,
                "duration": 0.10227272727272663,
                "tempo": 120.0
            },
            {
                "start_time": 33.793181818181814,
                "end_time": 33.89545454545454,
                "pitch": 62,
                "velocity": 40,
                "duration": 0.10227272727272663,
                "tempo": 120.0
            },
            {
                "start_time": 33.929545454545455,
                "end_time": 34.03181818181818,
                "pitch": 65,
                "velocity": 40,
                "duration": 0.10227272727272663,
                "tempo": 120.0
            },
            {
                "start_time": 34.06590909090909,
                "end_time": 34.16590909090909,
                "pitch": 42,
                "velocity": 40,
                "duration": 0.10000000000000142,
                "tempo": 120.0
            },
            {
                "start_time": 34.199999999999996,
                "end_time": 34.3,
                "pitch": 46,
                "velocity": 40,
                "duration": 0.10000000000000142,
                "tempo": 120.0
            },
            {
                "start_time": 34.33409090909091,
                "end_time": 34.434090909090905,
                "pitch": 54,
                "velocity": 40,
                "duration": 0.09999999999999432,
                "tempo": 120.0
            },
            {
                "start_time": 34.465909090909086,
                "end_time": 34.56590909090909,
                "pitch": 58,
                "velocity": 40,
                "duration": 0.10000000000000142,
                "tempo": 120.0
            },
            {
                "start_time": 34.6,
                "end_time": 34.699999999999996,
                "pitch": 66,
                "velocity": 40,
                "duration": 0.09999999999999432,
                "tempo": 120.0
            },
            {
                "start_time": 34.73409090909091,
                "end_time": 34.83409090909091,
                "pitch": 70,
                "velocity": 40,
                "duration": 0.10000000000000142,
                "tempo": 120.0
            },
            {
                "start_time": 34.86818181818182,
                "end_time": 34.96818181818182,
                "pitch": 43,
                "velocity": 40,
                "duration": 0.10000000000000142,
                "tempo": 120.0
            },
            {
                "start_time": 35.0,
                "end_time": 35.10227272727273,
                "pitch": 46,
                "velocity": 40,
                "duration": 0.10227272727272663,
                "tempo": 120.0
            },
            {
                "start_time": 35.13409090909091,
                "end_time": 35.23409090909091,
                "pitch": 55,
                "velocity": 40,
                "duration": 0.10000000000000142,
                "tempo": 120.0
            },
            {
                "start_time": 35.268181818181816,
                "end_time": 35.36818181818182,
                "pitch": 58,
                "velocity": 40,
                "duration": 0.10000000000000142,
                "tempo": 120.0
            },
            {
                "start_time": 35.402272727272724,
                "end_time": 35.502272727272725,
                "pitch": 67,
                "velocity": 40,
                "duration": 0.10000000000000142,
                "tempo": 120.0
            },
            {
                "start_time": 35.53636363636363,
                "end_time": 35.63636363636363,
                "pitch": 70,
                "velocity": 40,
                "duration": 0.10000000000000142,
                "tempo": 120.0
            },
            {
                "start_time": 35.668181818181814,
                "end_time": 35.77045454545454,
                "pitch": 41,
                "velocity": 40,
                "duration": 0.10227272727272663,
                "tempo": 120.0
            },
            {
                "start_time": 35.804545454545455,
                "end_time": 35.90681818181818,
                "pitch": 46,
                "velocity": 40,
                "duration": 0.10227272727272663,
                "tempo": 120.0
            },
            {
                "start_time": 35.94090909090909,
                "end_time": 36.043181818181814,
                "pitch": 53,
                "velocity": 40,
                "duration": 0.10227272727272663,
                "tempo": 120.0
            },
            {
                "start_time": 36.07727272727273,
                "end_time": 36.179545454545455,
                "pitch": 58,
                "velocity": 40,
                "duration": 0.10227272727272663,
                "tempo": 120.0
            },
            {
                "start_time": 36.21363636363636,
                "end_time": 36.31363636363636,
                "pitch": 65,
                "velocity": 40,
                "duration": 0.10000000000000142,
                "tempo": 120.0
            },
            {
                "start_time": 36.34772727272727,
                "end_time": 36.44772727272727,
                "pitch": 70,
                "velocity": 40,
                "duration": 0.10000000000000142,
                "tempo": 120.0
            },
            {
                "start_time": 36.47954545454545,
                "end_time": 36.57954545454545,
                "pitch": 43,
                "velocity": 40,
                "duration": 0.10000000000000142,
                "tempo": 120.0
            },
            {
                "start_time": 36.61363636363636,
                "end_time": 36.71363636363636,
                "pitch": 46,
                "velocity": 40,
                "duration": 0.10000000000000142,
                "tempo": 120.0
            },
            {
                "start_time": 36.74772727272727,
                "end_time": 36.84772727272727,
                "pitch": 55,
                "velocity": 40,
                "duration": 0.10000000000000142,
                "tempo": 120.0
            },
            {
                "start_time": 36.88181818181818,
                "end_time": 36.98181818181818,
                "pitch": 58,
                "velocity": 40,
                "duration": 0.09999999999999432,
                "tempo": 120.0
            },
            {
                "start_time": 37.01363636363636,
                "end_time": 37.11363636363636,
                "pitch": 67,
                "velocity": 40,
                "duration": 0.10000000000000142,
                "tempo": 120.0
            },
            {
                "start_time": 37.14772727272727,
                "end_time": 37.24772727272727,
                "pitch": 70,
                "velocity": 40,
                "duration": 0.09999999999999432,
                "tempo": 120.0
            },
            {
                "start_time": 37.28181818181818,
                "end_time": 37.38409090909091,
                "pitch": 41,
                "velocity": 40,
                "duration": 0.10227272727272663,
                "tempo": 120.0
            },
            {
                "start_time": 37.418181818181814,
                "end_time": 37.52045454545454,
                "pitch": 46,
                "velocity": 40,
                "duration": 0.10227272727272663,
                "tempo": 120.0
            },
            {
                "start_time": 37.554545454545455,
                "end_time": 37.654545454545456,
                "pitch": 53,
                "velocity": 40,
                "duration": 0.10000000000000142,
                "tempo": 120.0
            },
            {
                "start_time": 37.68863636363636,
                "end_time": 37.79090909090909,
                "pitch": 58,
                "velocity": 40,
                "duration": 0.10227272727272663,
                "tempo": 120.0
            },
            {
                "start_time": 37.824999999999996,
                "end_time": 37.925,
                "pitch": 65,
                "velocity": 40,
                "duration": 0.10000000000000142,
                "tempo": 120.0
            },
            {
                "start_time": 37.95909090909091,
                "end_time": 38.059090909090905,
                "pitch": 70,
                "velocity": 40,
                "duration": 0.09999999999999432,
                "tempo": 120.0
            },
            {
                "start_time": 38.09318181818182,
                "end_time": 38.19318181818181,
                "pitch": 43,
                "velocity": 40,
                "duration": 0.09999999999999432,
                "tempo": 120.0
            },
            {
                "start_time": 38.22727272727273,
                "end_time": 38.32727272727273,
                "pitch": 46,
                "velocity": 40,
                "duration": 0.10000000000000142,
                "tempo": 120.0
            },
            {
                "start_time": 38.35909090909091,
                "end_time": 38.461363636363636,
                "pitch": 55,
                "velocity": 40,
                "duration": 0.10227272727272663,
                "tempo": 120.0
            },
            {
                "start_time": 38.49318181818182,
                "end_time": 38.59318181818182,
                "pitch": 58,
                "velocity": 40,
                "duration": 0.10000000000000142,
                "tempo": 120.0
            },
            {
                "start_time": 38.627272727272725,
                "end_time": 38.72727272727273,
                "pitch": 67,
                "velocity": 40,
                "duration": 0.10000000000000142,
                "tempo": 120.0
            },
            {
                "start_time": 38.76136363636363,
                "end_time": 38.861363636363635,
                "pitch": 70,
                "velocity": 40,
                "duration": 0.10000000000000142,
                "tempo": 120.0
            },
            {
                "start_time": 38.89545454545454,
                "end_time": 38.99545454545454,
                "pitch": 41,
                "velocity": 40,
                "duration": 0.10000000000000142,
                "tempo": 120.0
            },
            {
                "start_time": 39.029545454545456,
                "end_time": 39.13181818181818,
                "pitch": 46,
                "velocity": 40,
                "duration": 0.10227272727272663,
                "tempo": 120.0
            },
            {
                "start_time": 39.16590909090909,
                "end_time": 39.268181818181816,
                "pitch": 53,
                "velocity": 40,
                "duration": 0.10227272727272663,
                "tempo": 120.0
            },
            {
                "start_time": 39.30227272727272,
                "end_time": 39.404545454545456,
                "pitch": 58,
                "velocity": 40,
                "duration": 0.10227272727273373,
                "tempo": 120.0
            },
            {
                "start_time": 39.43863636363636,
                "end_time": 39.538636363636364,
                "pitch": 65,
                "velocity": 40,
                "duration": 0.10000000000000142,
                "tempo": 120.0
            },
            {
                "start_time": 39.57272727272727,
                "end_time": 39.67272727272727,
                "pitch": 70,
                "velocity": 40,
                "duration": 0.10000000000000142,
                "tempo": 120.0
            },
            {
                "start_time": 39.70454545454545,
                "end_time": 39.80681818181818,
                "pitch": 44,
                "velocity": 40,
                "duration": 0.10227272727272663,
                "tempo": 120.0
            },
            {
                "start_time": 39.83863636363636,
                "end_time": 39.93863636363636,
                "pitch": 49,
                "velocity": 40,
                "duration": 0.10000000000000142,
                "tempo": 120.0
            },
            {
                "start_time": 39.97272727272727,
                "end_time": 40.07272727272727,
                "pitch": 56,
                "velocity": 40,
                "duration": 0.10000000000000142,
                "tempo": 120.0
            },
            {
                "start_time": 40.10681818181818,
                "end_time": 40.20681818181818,
                "pitch": 61,
                "velocity": 40,
                "duration": 0.10000000000000142,
                "tempo": 120.0
            },
            {
                "start_time": 40.24090909090909,
                "end_time": 40.340909090909086,
                "pitch": 68,
                "velocity": 40,
                "duration": 0.09999999999999432,
                "tempo": 120.0
            },
            {
                "start_time": 40.37272727272727,
                "end_time": 40.47272727272727,
                "pitch": 73,
                "velocity": 40,
                "duration": 0.10000000000000142,
                "tempo": 120.0
            },
            {
                "start_time": 40.50681818181818,
                "end_time": 40.60909090909091,
                "pitch": 43,
                "velocity": 40,
                "duration": 0.10227272727272663,
                "tempo": 120.0
            },
            {
                "start_time": 40.643181818181816,
                "end_time": 40.74545454545454,
                "pitch": 48,
                "velocity": 40,
                "duration": 0.10227272727272663,
                "tempo": 120.0
            },
            {
                "start_time": 40.779545454545456,
                "end_time": 40.88181818181818,
                "pitch": 55,
                "velocity": 40,
                "duration": 0.10227272727272663,
                "tempo": 120.0
            },
            {
                "start_time": 40.91590909090909,
                "end_time": 41.01590909090909,
                "pitch": 60,
                "velocity": 40,
                "duration": 0.10000000000000142,
                "tempo": 120.0
            },
            {
                "start_time": 41.05,
                "end_time": 41.152272727272724,
                "pitch": 67,
                "velocity": 40,
                "duration": 0.10227272727272663,
                "tempo": 120.0
            },
            {
                "start_time": 41.184090909090905,
                "end_time": 41.28409090909091,
                "pitch": 72,
                "velocity": 40,
                "duration": 0.10000000000000142,
                "tempo": 120.0
            },
            {
                "start_time": 41.31818181818181,
                "end_time": 41.418181818181814,
                "pitch": 42,
                "velocity": 40,
                "duration": 0.10000000000000142,
                "tempo": 120.0
            },
            {
                "start_time": 41.45227272727273,
                "end_time": 41.55227272727272,
                "pitch": 46,
                "velocity": 40,
                "duration": 0.09999999999999432,
                "tempo": 120.0
            },
            {
                "start_time": 41.586363636363636,
                "end_time": 41.68636363636364,
                "pitch": 54,
                "velocity": 40,
                "duration": 0.10000000000000142,
                "tempo": 120.0
            },
            {
                "start_time": 41.71818181818182,
                "end_time": 41.81818181818181,
                "pitch": 58,
                "velocity": 40,
                "duration": 0.09999999999999432,
                "tempo": 120.0
            },
            {
                "start_time": 41.85227272727273,
                "end_time": 41.95227272727273,
                "pitch": 66,
                "velocity": 40,
                "duration": 0.10000000000000142,
                "tempo": 120.0
            },
            {
                "start_time": 41.986363636363635,
                "end_time": 42.086363636363636,
                "pitch": 70,
                "velocity": 40,
                "duration": 0.10000000000000142,
                "tempo": 120.0
            },
            {
                "start_time": 42.12045454545454,
                "end_time": 42.22272727272727,
                "pitch": 41,
                "velocity": 40,
                "duration": 0.10227272727272663,
                "tempo": 120.0
            },
            {
                "start_time": 42.25454545454545,
                "end_time": 42.35681818181818,
                "pitch": 45,
                "velocity": 40,
                "duration": 0.10227272727272663,
                "tempo": 120.0
            },
            {
                "start_time": 42.39090909090909,
                "end_time": 42.49318181818182,
                "pitch": 53,
                "velocity": 40,
                "duration": 0.10227272727272663,
                "tempo": 120.0
            },
            {
                "start_time": 42.527272727272724,
                "end_time": 42.62954545454545,
                "pitch": 57,
                "velocity": 40,
                "duration": 0.10227272727272663,
                "tempo": 120.0
            },
            {
                "start_time": 42.663636363636364,
                "end_time": 42.76363636363636,
                "pitch": 65,
                "velocity": 40,
                "duration": 0.09999999999999432,
                "tempo": 120.0
            },
            {
                "start_time": 42.79772727272727,
                "end_time": 42.89772727272727,
                "pitch": 69,
                "velocity": 40,
                "duration": 0.10000000000000142,
                "tempo": 120.0
            },
            {
                "start_time": 42.93181818181818,
                "end_time": 43.03181818181818,
                "pitch": 38,
                "velocity": 40,
                "duration": 0.10000000000000142,
                "tempo": 120.0
            },
            {
                "start_time": 43.06363636363636,
                "end_time": 43.16590909090909,
                "pitch": 41,
                "velocity": 40,
                "duration": 0.10227272727272663,
                "tempo": 120.0
            },
            {
                "start_time": 43.19772727272727,
                "end_time": 43.3,
                "pitch": 50,
                "velocity": 40,
                "duration": 0.10227272727272663,
                "tempo": 120.0
            },
            {
                "start_time": 43.334090909090904,
                "end_time": 43.43636363636364,
                "pitch": 53,
                "velocity": 40,
                "duration": 0.10227272727273373,
                "tempo": 120.0
            },
            {
                "start_time": 43.470454545454544,
                "end_time": 43.57272727272727,
                "pitch": 62,
                "velocity": 40,
                "duration": 0.10227272727272663,
                "tempo": 120.0
            },
            {
                "start_time": 43.60681818181818,
                "end_time": 43.709090909090904,
                "pitch": 65,
                "velocity": 40,
                "duration": 0.10227272727272663,
                "tempo": 120.0
            },
            {
                "start_time": 43.74090909090909,
                "end_time": 43.84318181818182,
                "pitch": 41,
                "velocity": 40,
                "duration": 0.10227272727272663,
                "tempo": 120.0
            },
            {
                "start_time": 43.875,
                "end_time": 43.974999999999994,
                "pitch": 46,
                "velocity": 40,
                "duration": 0.09999999999999432,
                "tempo": 120.0
            },
            {
                "start_time": 44.00909090909091,
                "end_time": 44.10909090909091,
                "pitch": 53,
                "velocity": 40,
                "duration": 0.10000000000000142,
                "tempo": 120.0
            },
            {
                "start_time": 44.143181818181816,
                "end_time": 44.24318181818182,
                "pitch": 58,
                "velocity": 40,
                "duration": 0.10000000000000142,
                "tempo": 120.0
            },
            {
                "start_time": 44.277272727272724,
                "end_time": 44.377272727272725,
                "pitch": 65,
                "velocity": 40,
                "duration": 0.10000000000000142,
                "tempo": 120.0
            },
            {
                "start_time": 44.40909090909091,
                "end_time": 44.51136363636363,
                "pitch": 70,
                "velocity": 40,
                "duration": 0.10227272727272663,
                "tempo": 120.0
            },
            {
                "start_time": 44.543181818181814,
                "end_time": 44.643181818181816,
                "pitch": 43,
                "velocity": 40,
                "duration": 0.10000000000000142,
                "tempo": 120.0
            },
            {
                "start_time": 44.67727272727272,
                "end_time": 44.777272727272724,
                "pitch": 48,
                "velocity": 40,
                "duration": 0.10000000000000142,
                "tempo": 120.0
            },
            {
                "start_time": 44.81136363636364,
                "end_time": 44.91136363636363,
                "pitch": 55,
                "velocity": 40,
                "duration": 0.09999999999999432,
                "tempo": 120.0
            },
            {
                "start_time": 44.945454545454545,
                "end_time": 45.04545454545455,
                "pitch": 60,
                "velocity": 40,
                "duration": 0.10000000000000142,
                "tempo": 120.0
            },
            {
                "start_time": 45.07727272727273,
                "end_time": 45.17727272727272,
                "pitch": 67,
                "velocity": 40,
                "duration": 0.09999999999999432,
                "tempo": 120.0
            },
            {
                "start_time": 45.211363636363636,
                "end_time": 45.31136363636364,
                "pitch": 72,
                "velocity": 40,
                "duration": 0.10000000000000142,
                "tempo": 120.0
            },
            {
                "start_time": 45.345454545454544,
                "end_time": 45.44772727272727,
                "pitch": 41,
                "velocity": 40,
                "duration": 0.10227272727272663,
                "tempo": 120.0
            },
            {
                "start_time": 45.48181818181818,
                "end_time": 45.584090909090904,
                "pitch": 45,
                "velocity": 40,
                "duration": 0.10227272727272663,
                "tempo": 120.0
            },
            {
                "start_time": 45.61818181818182,
                "end_time": 45.71818181818182,
                "pitch": 53,
                "velocity": 40,
                "duration": 0.10000000000000142,
                "tempo": 120.0
            },
            {
                "start_time": 45.752272727272725,
                "end_time": 45.85454545454545,
                "pitch": 57,
                "velocity": 40,
                "duration": 0.10227272727272663,
                "tempo": 120.0
            },
            {
                "start_time": 45.88863636363636,
                "end_time": 45.98863636363636,
                "pitch": 65,
                "velocity": 40,
                "duration": 0.10000000000000142,
                "tempo": 120.0
            },
            {
                "start_time": 46.02272727272727,
                "end_time": 46.12272727272727,
                "pitch": 69,
                "velocity": 40,
                "duration": 0.09999999999999432,
                "tempo": 120.0
            },
            {
                "start_time": 46.15681818181818,
                "end_time": 46.25681818181818,
                "pitch": 38,
                "velocity": 40,
                "duration": 0.10000000000000142,
                "tempo": 120.0
            },
            {
                "start_time": 46.29090909090909,
                "end_time": 46.39090909090909,
                "pitch": 41,
                "velocity": 40,
                "duration": 0.10000000000000142,
                "tempo": 120.0
            },
            {
                "start_time": 46.42272727272727,
                "end_time": 46.52272727272727,
                "pitch": 50,
                "velocity": 40,
                "duration": 0.10000000000000142,
                "tempo": 120.0
            },
            {
                "start_time": 46.55681818181818,
                "end_time": 46.65681818181818,
                "pitch": 53,
                "velocity": 40,
                "duration": 0.10000000000000142,
                "tempo": 120.0
            },
            {
                "start_time": 46.69090909090909,
                "end_time": 46.79090909090909,
                "pitch": 62,
                "velocity": 40,
                "duration": 0.10000000000000142,
                "tempo": 120.0
            },
            {
                "start_time": 46.824999999999996,
                "end_time": 46.925,
                "pitch": 65,
                "velocity": 40,
                "duration": 0.10000000000000142,
                "tempo": 120.0
            },
            {
                "start_time": 46.959090909090904,
                "end_time": 47.059090909090905,
                "pitch": 42,
                "velocity": 40,
                "duration": 0.10000000000000142,
                "tempo": 120.0
            },
            {
                "start_time": 47.09318181818182,
                "end_time": 47.195454545454545,
                "pitch": 46,
                "velocity": 40,
                "duration": 0.10227272727272663,
                "tempo": 120.0
            },
            {
                "start_time": 47.22954545454545,
                "end_time": 47.33181818181818,
                "pitch": 54,
                "velocity": 40,
                "duration": 0.10227272727272663,
                "tempo": 120.0
            },
            {
                "start_time": 47.36590909090909,
                "end_time": 47.46818181818182,
                "pitch": 58,
                "velocity": 40,
                "duration": 0.10227272727272663,
                "tempo": 120.0
            },
            {
                "start_time": 47.502272727272725,
                "end_time": 47.60227272727273,
                "pitch": 66,
                "velocity": 40,
                "duration": 0.10000000000000142,
                "tempo": 120.0
            },
            {
                "start_time": 47.63636363636363,
                "end_time": 47.736363636363635,
                "pitch": 70,
                "velocity": 40,
                "duration": 0.10000000000000142,
                "tempo": 120.0
            },
            {
                "start_time": 47.768181818181816,
                "end_time": 47.87045454545454,
                "pitch": 43,
                "velocity": 40,
                "duration": 0.10227272727272663,
                "tempo": 120.0
            },
            {
                "start_time": 47.902272727272724,
                "end_time": 48.002272727272725,
                "pitch": 46,
                "velocity": 40,
                "duration": 0.10000000000000142,
                "tempo": 120.0
            },
            {
                "start_time": 48.03636363636363,
                "end_time": 48.13636363636363,
                "pitch": 55,
                "velocity": 40,
                "duration": 0.10000000000000142,
                "tempo": 120.0
            },
            {
                "start_time": 48.17045454545454,
                "end_time": 48.27045454545454,
                "pitch": 58,
                "velocity": 40,
                "duration": 0.10000000000000142,
                "tempo": 120.0
            },
            {
                "start_time": 48.304545454545455,
                "end_time": 48.40454545454545,
                "pitch": 67,
                "velocity": 40,
                "duration": 0.09999999999999432,
                "tempo": 120.0
            },
            {
                "start_time": 48.43636363636364,
                "end_time": 48.53636363636363,
                "pitch": 70,
                "velocity": 40,
                "duration": 0.09999999999999432,
                "tempo": 120.0
            },
            {
                "start_time": 48.570454545454545,
                "end_time": 48.67272727272727,
                "pitch": 41,
                "velocity": 40,
                "duration": 0.10227272727272663,
                "tempo": 120.0
            }
        ],
        "Church Organ": [
            {
                "start_time": 21.96590909090909,
                "end_time": 22.599999999999998,
                "pitch": 74,
                "velocity": 51,
                "duration": 0.6340909090909079,
                "tempo": 120.0
            },
            {
                "start_time": 22.768181818181816,
                "end_time": 22.913636363636364,
                "pitch": 74,
                "velocity": 51,
                "duration": 0.14545454545454817,
                "tempo": 120.0
            },
            {
                "start_time": 23.038636363636364,
                "end_time": 23.243181818181817,
                "pitch": 70,
                "velocity": 51,
                "duration": 0.20454545454545325,
                "tempo": 120.0
            },
            {
                "start_time": 23.311363636363634,
                "end_time": 23.511363636363637,
                "pitch": 72,
                "velocity": 51,
                "duration": 0.20000000000000284,
                "tempo": 120.0
            },
            {
                "start_time": 23.579545454545453,
                "end_time": 24.21363636363636,
                "pitch": 74,
                "velocity": 51,
                "duration": 0.6340909090909079,
                "tempo": 120.0
            },
            {
                "start_time": 24.379545454545454,
                "end_time": 24.584090909090907,
                "pitch": 74,
                "velocity": 51,
                "duration": 0.20454545454545325,
                "tempo": 120.0
            },
            {
                "start_time": 24.652272727272727,
                "end_time": 24.85681818181818,
                "pitch": 70,
                "velocity": 51,
                "duration": 0.20454545454545325,
                "tempo": 120.0
            },
            {
                "start_time": 24.922727272727272,
                "end_time": 25.125,
                "pitch": 72,
                "velocity": 51,
                "duration": 0.20227272727272805,
                "tempo": 120.0
            },
            {
                "start_time": 25.19090909090909,
                "end_time": 25.825,
                "pitch": 74,
                "velocity": 51,
                "duration": 0.6340909090909079,
                "tempo": 120.0
            },
            {
                "start_time": 25.993181818181817,
                "end_time": 26.195454545454545,
                "pitch": 74,
                "velocity": 51,
                "duration": 0.20227272727272805,
                "tempo": 120.0
            },
            {
                "start_time": 26.263636363636362,
                "end_time": 26.468181818181815,
                "pitch": 70,
                "velocity": 51,
                "duration": 0.20454545454545325,
                "tempo": 120.0
            },
            {
                "start_time": 26.536363636363635,
                "end_time": 26.736363636363635,
                "pitch": 72,
                "velocity": 51,
                "duration": 0.1999999999999993,
                "tempo": 120.0
            },
            {
                "start_time": 26.804545454545455,
                "end_time": 27.438636363636363,
                "pitch": 73,
                "velocity": 51,
                "duration": 0.6340909090909079,
                "tempo": 120.0
            },
            {
                "start_time": 27.604545454545452,
                "end_time": 28.25,
                "pitch": 72,
                "velocity": 51,
                "duration": 0.6454545454545482,
                "tempo": 120.0
            },
            {
                "start_time": 28.41590909090909,
                "end_time": 29.052272727272726,
                "pitch": 70,
                "velocity": 51,
                "duration": 0.6363636363636367,
                "tempo": 120.0
            },
            {
                "start_time": 29.218181818181815,
                "end_time": 29.422727272727272,
                "pitch": 69,
                "velocity": 51,
                "duration": 0.2045454545454568,
                "tempo": 120.0
            },
            {
                "start_time": 29.49090909090909,
                "end_time": 29.693181818181817,
                "pitch": 67,
                "velocity": 51,
                "duration": 0.20227272727272805,
                "tempo": 120.0
            },
            {
                "start_time": 29.761363636363637,
                "end_time": 29.96363636363636,
                "pitch": 69,
                "velocity": 51,
                "duration": 0.2022727272727245,
                "tempo": 120.0
            },
            {
                "start_time": 30.029545454545453,
                "end_time": 30.45,
                "pitch": 70,
                "velocity": 51,
                "duration": 0.42045454545454675,
                "tempo": 120.0
            },
            {
                "start_time": 30.568181818181817,
                "end_time": 30.77272727272727,
                "pitch": 65,
                "velocity": 51,
                "duration": 0.20454545454545325,
                "tempo": 120.0
            },
            {
                "start_time": 30.84090909090909,
                "end_time": 31.474999999999998,
                "pitch": 68,
                "velocity": 51,
                "duration": 0.6340909090909079,
                "tempo": 120.0
            },
            {
                "start_time": 31.643181818181816,
                "end_time": 32.28409090909091,
                "pitch": 67,
                "velocity": 51,
                "duration": 0.6409090909090907,
                "tempo": 120.0
            },
            {
                "start_time": 32.45227272727273,
                "end_time": 32.654545454545456,
                "pitch": 63,
                "velocity": 51,
                "duration": 0.20227272727272805,
                "tempo": 120.0
            },
            {
                "start_time": 32.720454545454544,
                "end_time": 32.92045454545455,
                "pitch": 62,
                "velocity": 51,
                "duration": 0.20000000000000284,
                "tempo": 120.0
            },
            {
                "start_time": 32.98863636363636,
                "end_time": 33.18863636363636,
                "pitch": 63,
                "velocity": 51,
                "duration": 0.20000000000000284,
                "tempo": 120.0
            },
            {
                "start_time": 33.25454545454545,
                "end_time": 34.53409090909091,
                "pitch": 65,
                "velocity": 51,
                "duration": 1.279545454545456,
                "tempo": 120.0
            },
            {
                "start_time": 34.86818181818182,
                "end_time": 35.502272727272725,
                "pitch": 74,
                "velocity": 51,
                "duration": 0.6340909090909079,
                "tempo": 120.0
            },
            {
                "start_time": 35.668181818181814,
                "end_time": 35.87272727272727,
                "pitch": 74,
                "velocity": 51,
                "duration": 0.20454545454545325,
                "tempo": 120.0
            },
            {
                "start_time": 35.94090909090909,
                "end_time": 36.14545454545454,
                "pitch": 70,
                "velocity": 51,
                "duration": 0.20454545454545325,
                "tempo": 120.0
            },
            {
                "start_time": 36.21363636363636,
                "end_time": 36.413636363636364,
                "pitch": 72,
                "velocity": 51,
                "duration": 0.20000000000000284,
                "tempo": 120.0
            },
            {
                "start_time": 36.47954545454545,
                "end_time": 37.11363636363636,
                "pitch": 74,
                "velocity": 51,
                "duration": 0.6340909090909079,
                "tempo": 120.0
            },
            {
                "start_time": 37.28181818181818,
                "end_time": 37.486363636363635,
                "pitch": 74,
                "velocity": 51,
                "duration": 0.20454545454545325,
                "tempo": 120.0
            },
            {
                "start_time": 37.554545454545455,
                "end_time": 37.75681818181818,
                "pitch": 70,
                "velocity": 51,
                "duration": 0.20227272727272805,
                "tempo": 120.0
            },
            {
                "start_time": 37.824999999999996,
                "end_time": 38.025,
                "pitch": 72,
                "velocity": 51,
                "duration": 0.20000000000000284,
                "tempo": 120.0
            },
            {
                "start_time": 38.09318181818182,
                "end_time": 38.72727272727273,
                "pitch": 74,
                "velocity": 51,
                "duration": 0.6340909090909079,
                "tempo": 120.0
            },
            {
                "start_time": 38.89545454545454,
                "end_time": 39.09772727272727,
                "pitch": 74,
                "velocity": 51,
                "duration": 0.20227272727272805,
                "tempo": 120.0
            },
            {
                "start_time": 39.16590909090909,
                "end_time": 39.37045454545454,
                "pitch": 70,
                "velocity": 51,
                "duration": 0.20454545454545325,
                "tempo": 120.0
            },
            {
                "start_time": 39.43863636363636,
                "end_time": 39.63863636363636,
                "pitch": 72,
                "velocity": 51,
                "duration": 0.19999999999999574,
                "tempo": 120.0
            },
            {
                "start_time": 39.70454545454545,
                "end_time": 40.340909090909086,
                "pitch": 73,
                "velocity": 51,
                "duration": 0.6363636363636331,
                "tempo": 120.0
            },
            {
                "start_time": 40.50681818181818,
                "end_time": 41.152272727272724,
                "pitch": 75,
                "velocity": 51,
                "duration": 0.6454545454545411,
                "tempo": 120.0
            },
            {
                "start_time": 41.31818181818181,
                "end_time": 41.95227272727273,
                "pitch": 77,
                "velocity": 51,
                "duration": 0.634090909090915,
                "tempo": 120.0
            },
            {
                "start_time": 42.12045454545454,
                "end_time": 42.76363636363636,
                "pitch": 75,
                "velocity": 51,
                "duration": 0.6431818181818159,
                "tempo": 120.0
            },
            {
                "start_time": 42.93181818181818,
                "end_time": 43.13181818181818,
                "pitch": 74,
                "velocity": 51,
                "duration": 0.20000000000000284,
                "tempo": 120.0
            },
            {
                "start_time": 43.19772727272727,
                "end_time": 44.059090909090905,
                "pitch": 70,
                "velocity": 51,
                "duration": 0.8613636363636346,
                "tempo": 120.0
            },
            {
                "start_time": 44.543181818181814,
                "end_time": 44.74318181818182,
                "pitch": 70,
                "velocity": 51,
                "duration": 0.20000000000000284,
                "tempo": 120.0
            },
            {
                "start_time": 44.81136363636364,
                "end_time": 45.01136363636363,
                "pitch": 69,
                "velocity": 51,
                "duration": 0.19999999999999574,
                "tempo": 120.0
            },
            {
                "start_time": 45.07727272727273,
                "end_time": 45.27954545454545,
                "pitch": 67,
                "velocity": 51,
                "duration": 0.20227272727272094,
                "tempo": 120.0
            },
            {
                "start_time": 45.345454545454544,
                "end_time": 45.55,
                "pitch": 69,
                "velocity": 51,
                "duration": 0.20454545454545325,
                "tempo": 120.0
            },
            {
                "start_time": 45.61818181818182,
                "end_time": 45.820454545454545,
                "pitch": 70,
                "velocity": 51,
                "duration": 0.20227272727272805,
                "tempo": 120.0
            },
            {
                "start_time": 45.88863636363636,
                "end_time": 46.08863636363636,
                "pitch": 72,
                "velocity": 51,
                "duration": 0.20000000000000284,
                "tempo": 120.0
            },
            {
                "start_time": 46.15681818181818,
                "end_time": 47.00909090909091,
                "pitch": 70,
                "velocity": 51,
                "duration": 0.8522727272727266,
                "tempo": 120.0
            },
            {
                "start_time": 47.502272727272725,
                "end_time": 47.70227272727273,
                "pitch": 65,
                "velocity": 51,
                "duration": 0.20000000000000284,
                "tempo": 120.0
            },
            {
                "start_time": 47.768181818181816,
                "end_time": 48.40454545454545,
                "pitch": 74,
                "velocity": 51,
                "duration": 0.6363636363636331,
                "tempo": 120.0
            },
            {
                "start_time": 48.570454545454545,
                "end_time": 48.715909090909086,
                "pitch": 74,
                "velocity": 51,
                "duration": 0.14545454545454106,
                "tempo": 120.0
            }
        ]
    }
}