{
    "track_id": "Space Harrier 3-D (FM) - 19 - Battle Field",
    "mood": "happy",
    "instruments": {
        "Trumpet": [
            {
                "start_time": 2.411363636363636,
                "end_time": 4.322727272727272,
                "pitch": 67,
                "velocity": 4,
                "duration": 1.9113636363636362,
                "tempo": 120.0
            },
            {
                "start_time": 4.547727272727273,
                "end_time": 4.61590909090909,
                "pitch": 65,
                "velocity": 64,
                "duration": 0.06818181818181746,
                "tempo": 120.0
            },
            {
                "start_time": 4.634090909090909,
                "end_time": 4.8113636363636365,
                "pitch": 67,
                "velocity": 64,
                "duration": 0.1772727272727277,
                "tempo": 120.0
            },
            {
                "start_time": 4.827272727272727,
                "end_time": 7.329545454545454,
                "pitch": 65,
                "velocity": 64,
                "duration": 2.502272727272727,
                "tempo": 120.0
            },
            {
                "start_time": 7.347727272727273,
                "end_time": 7.538636363636363,
                "pitch": 65,
                "velocity": 64,
                "duration": 0.19090909090909047,
                "tempo": 120.0
            },
            {
                "start_time": 7.834090909090909,
                "end_time": 7.931818181818182,
                "pitch": 65,
                "velocity": 64,
                "duration": 0.09772727272727266,
                "tempo": 120.0
            },
            {
                "start_time": 8.243181818181817,
                "end_time": 8.420454545454545,
                "pitch": 65,
                "velocity": 64,
                "duration": 0.1772727272727277,
                "tempo": 120.0
            },
            {
                "start_time": 8.756818181818181,
                "end_time": 8.827272727272726,
                "pitch": 65,
                "velocity": 64,
                "duration": 0.07045454545454533,
                "tempo": 120.0
            },
            {
                "start_time": 9.152272727272727,
                "end_time": 9.343181818181817,
                "pitch": 65,
                "velocity": 64,
                "duration": 0.19090909090908958,
                "tempo": 120.0
            },
            {
                "start_time": 9.445454545454545,
                "end_time": 9.622727272727273,
                "pitch": 65,
                "velocity": 64,
                "duration": 0.1772727272727277,
                "tempo": 120.0
            },
            {
                "start_time": 9.754545454545454,
                "end_time": 11.540909090909091,
                "pitch": 67,
                "velocity": 64,
                "duration": 1.786363636363637,
                "tempo": 120.0
            },
            {
                "start_time": 11.559090909090909,
                "end_time": 11.747727272727273,
                "pitch": 63,
                "velocity": 64,
                "duration": 0.18863636363636438,
                "tempo": 120.0
            },
            {
                "start_time": 11.76590909090909,
                "end_time": 11.834090909090909,
                "pitch": 65,
                "velocity": 64,
                "duration": 0.06818181818181834,
                "tempo": 120.0
            },
            {
                "start_time": 12.045454545454545,
                "end_time": 13.947727272727272,
                "pitch": 67,
                "velocity": 64,
                "duration": 1.9022727272727273,
                "tempo": 120.0
            },
            {
                "start_time": 14.170454545454545,
                "end_time": 14.24090909090909,
                "pitch": 65,
                "velocity": 64,
                "duration": 0.07045454545454533,
                "tempo": 120.0
            },
            {
                "start_time": 14.256818181818181,
                "end_time": 14.434090909090909,
                "pitch": 67,
                "velocity": 64,
                "duration": 0.1772727272727277,
                "tempo": 120.0
            },
            {
                "start_time": 14.452272727272726,
                "end_time": 16.954545454545453,
                "pitch": 65,
                "velocity": 64,
                "duration": 2.502272727272727,
                "tempo": 120.0
            },
            {
                "start_time": 16.970454545454544,
                "end_time": 17.161363636363635,
                "pitch": 65,
                "velocity": 64,
                "duration": 0.19090909090909136,
                "tempo": 120.0
            },
            {
                "start_time": 17.459090909090907,
                "end_time": 17.55681818181818,
                "pitch": 65,
                "velocity": 64,
                "duration": 0.09772727272727266,
                "tempo": 120.0
            },
            {
                "start_time": 17.86590909090909,
                "end_time": 18.043181818181818,
                "pitch": 65,
                "velocity": 64,
                "duration": 0.17727272727272947,
                "tempo": 120.0
            },
            {
                "start_time": 18.38181818181818,
                "end_time": 18.45,
                "pitch": 65,
                "velocity": 64,
                "duration": 0.06818181818182012,
                "tempo": 120.0
            },
            {
                "start_time": 18.775,
                "end_time": 18.96590909090909,
                "pitch": 65,
                "velocity": 64,
                "duration": 0.19090909090909136,
                "tempo": 120.0
            },
            {
                "start_time": 19.068181818181817,
                "end_time": 19.24772727272727,
                "pitch": 65,
                "velocity": 64,
                "duration": 0.17954545454545467,
                "tempo": 120.0
            },
            {
                "start_time": 19.377272727272725,
                "end_time": 21.163636363636364,
                "pitch": 67,
                "velocity": 64,
                "duration": 1.7863636363636388,
                "tempo": 120.0
            },
            {
                "start_time": 21.18181818181818,
                "end_time": 21.37272727272727,
                "pitch": 63,
                "velocity": 64,
                "duration": 0.19090909090909136,
                "tempo": 120.0
            },
            {
                "start_time": 21.388636363636362,
                "end_time": 21.459090909090907,
                "pitch": 65,
                "velocity": 64,
                "duration": 0.07045454545454533,
                "tempo": 120.0
            },
            {
                "start_time": 21.668181818181818,
                "end_time": 23.570454545454545,
                "pitch": 67,
                "velocity": 64,
                "duration": 1.9022727272727273,
                "tempo": 120.0
            },
            {
                "start_time": 23.795454545454543,
                "end_time": 23.863636363636363,
                "pitch": 65,
                "velocity": 64,
                "duration": 0.06818181818182012,
                "tempo": 120.0
            },
            {
                "start_time": 23.88181818181818,
                "end_time": 24.05909090909091,
                "pitch": 67,
                "velocity": 64,
                "duration": 0.17727272727272947,
                "tempo": 120.0
            },
            {
                "start_time": 24.075,
                "end_time": 26.577272727272724,
                "pitch": 65,
                "velocity": 64,
                "duration": 2.502272727272725,
                "tempo": 120.0
            },
            {
                "start_time": 26.595454545454544,
                "end_time": 26.786363636363635,
                "pitch": 65,
                "velocity": 64,
                "duration": 0.19090909090909136,
                "tempo": 120.0
            },
            {
                "start_time": 27.081818181818182,
                "end_time": 27.179545454545455,
                "pitch": 65,
                "velocity": 64,
                "duration": 0.09772727272727266,
                "tempo": 120.0
            },
            {
                "start_time": 27.488636363636363,
                "end_time": 27.668181818181818,
                "pitch": 65,
                "velocity": 64,
                "duration": 0.17954545454545467,
                "tempo": 120.0
            },
            {
                "start_time": 28.004545454545454,
                "end_time": 28.075,
                "pitch": 65,
                "velocity": 64,
                "duration": 0.07045454545454533,
                "tempo": 120.0
            },
            {
                "start_time": 28.4,
                "end_time": 28.58863636363636,
                "pitch": 65,
                "velocity": 64,
                "duration": 0.1886363636363626,
                "tempo": 120.0
            },
            {
                "start_time": 28.693181818181817,
                "end_time": 28.870454545454542,
                "pitch": 65,
                "velocity": 64,
                "duration": 0.17727272727272592,
                "tempo": 120.0
            },
            {
                "start_time": 29.002272727272725,
                "end_time": 30.78863636363636,
                "pitch": 67,
                "velocity": 64,
                "duration": 1.7863636363636353,
                "tempo": 120.0
            },
            {
                "start_time": 30.80681818181818,
                "end_time": 30.995454545454542,
                "pitch": 63,
                "velocity": 64,
                "duration": 0.1886363636363626,
                "tempo": 120.0
            },
            {
                "start_time": 31.013636363636362,
                "end_time": 31.081818181818182,
                "pitch": 65,
                "velocity": 64,
                "duration": 0.06818181818182012,
                "tempo": 120.0
            },
            {
                "start_time": 31.293181818181818,
                "end_time": 33.195454545454545,
                "pitch": 67,
                "velocity": 64,
                "duration": 1.9022727272727273,
                "tempo": 120.0
            },
            {
                "start_time": 33.211363636363636,
                "end_time": 33.402272727272724,
                "pitch": 65,
                "velocity": 64,
                "duration": 0.1909090909090878,
                "tempo": 120.0
            },
            {
                "start_time": 33.418181818181814,
                "end_time": 33.48863636363636,
                "pitch": 67,
                "velocity": 64,
                "duration": 0.07045454545454533,
                "tempo": 120.0
            },
            {
                "start_time": 33.81363636363636,
                "end_time": 36.20227272727273,
                "pitch": 65,
                "velocity": 64,
                "duration": 2.3886363636363654,
                "tempo": 120.0
            },
            {
                "start_time": 36.220454545454544,
                "end_time": 36.40909090909091,
                "pitch": 65,
                "velocity": 64,
                "duration": 0.1886363636363626,
                "tempo": 120.0
            },
            {
                "start_time": 36.71363636363636,
                "end_time": 36.81363636363636,
                "pitch": 65,
                "velocity": 64,
                "duration": 0.10000000000000142,
                "tempo": 120.0
            },
            {
                "start_time": 37.11363636363636,
                "end_time": 37.293181818181814,
                "pitch": 65,
                "velocity": 64,
                "duration": 0.17954545454545467,
                "tempo": 120.0
            },
            {
                "start_time": 37.62954545454545,
                "end_time": 37.699999999999996,
                "pitch": 65,
                "velocity": 64,
                "duration": 0.07045454545454533,
                "tempo": 120.0
            },
            {
                "start_time": 38.025,
                "end_time": 38.21363636363636,
                "pitch": 65,
                "velocity": 64,
                "duration": 0.1886363636363626,
                "tempo": 120.0
            },
            {
                "start_time": 38.31818181818181,
                "end_time": 38.49545454545454,
                "pitch": 65,
                "velocity": 64,
                "duration": 0.17727272727272947,
                "tempo": 120.0
            },
            {
                "start_time": 38.625,
                "end_time": 40.70681818181818,
                "pitch": 67,
                "velocity": 64,
                "duration": 2.0818181818181785,
                "tempo": 120.0
            },
            {
                "start_time": 43.31818181818181,
                "end_time": 45.22272727272727,
                "pitch": 67,
                "velocity": 64,
                "duration": 1.904545454545456,
                "tempo": 120.0
            },
            {
                "start_time": 45.44772727272727,
                "end_time": 45.518181818181816,
                "pitch": 65,
                "velocity": 64,
                "duration": 0.07045454545454533,
                "tempo": 120.0
            },
            {
                "start_time": 45.53409090909091,
                "end_time": 45.711363636363636,
                "pitch": 67,
                "velocity": 64,
                "duration": 0.17727272727272947,
                "tempo": 120.0
            },
            {
                "start_time": 45.72727272727273,
                "end_time": 48.23181818181818,
                "pitch": 65,
                "velocity": 64,
                "duration": 2.5045454545454504,
                "tempo": 120.0
            },
            {
                "start_time": 48.24772727272727,
                "end_time": 48.43863636363636,
                "pitch": 65,
                "velocity": 64,
                "duration": 0.19090909090909491,
                "tempo": 120.0
            },
            {
                "start_time": 48.736363636363635,
                "end_time": 48.83181818181818,
                "pitch": 65,
                "velocity": 64,
                "duration": 0.0954545454545439,
                "tempo": 120.0
            },
            {
                "start_time": 49.143181818181816,
                "end_time": 49.320454545454545,
                "pitch": 65,
                "velocity": 64,
                "duration": 0.17727272727272947,
                "tempo": 120.0
            },
            {
                "start_time": 49.65909090909091,
                "end_time": 49.72727272727273,
                "pitch": 65,
                "velocity": 64,
                "duration": 0.06818181818182012,
                "tempo": 120.0
            },
            {
                "start_time": 50.05227272727272,
                "end_time": 50.24318181818182,
                "pitch": 65,
                "velocity": 64,
                "duration": 0.19090909090909491,
                "tempo": 120.0
            },
            {
                "start_time": 50.345454545454544,
                "end_time": 50.52272727272727,
                "pitch": 65,
                "velocity": 64,
                "duration": 0.17727272727272947,
                "tempo": 120.0
            },
            {
                "start_time": 50.65454545454545,
                "end_time": 52.44090909090909,
                "pitch": 67,
                "velocity": 64,
                "duration": 1.7863636363636388,
                "tempo": 120.0
            },
            {
                "start_time": 52.459090909090904,
                "end_time": 52.64772727272727,
                "pitch": 63,
                "velocity": 64,
                "duration": 0.1886363636363697,
                "tempo": 120.0
            },
            {
                "start_time": 52.66590909090909,
                "end_time": 52.73409090909091,
                "pitch": 65,
                "velocity": 64,
                "duration": 0.06818181818182012,
                "tempo": 120.0
            },
            {
                "start_time": 52.945454545454545,
                "end_time": 54.84772727272727,
                "pitch": 67,
                "velocity": 64,
                "duration": 1.9022727272727238,
                "tempo": 120.0
            },
            {
                "start_time": 55.07272727272727,
                "end_time": 55.14090909090909,
                "pitch": 65,
                "velocity": 64,
                "duration": 0.06818181818182012,
                "tempo": 120.0
            },
            {
                "start_time": 55.15681818181818,
                "end_time": 55.336363636363636,
                "pitch": 67,
                "velocity": 64,
                "duration": 0.17954545454545467,
                "tempo": 120.0
            },
            {
                "start_time": 55.35227272727273,
                "end_time": 57.85454545454545,
                "pitch": 65,
                "velocity": 64,
                "duration": 2.502272727272725,
                "tempo": 120.0
            },
            {
                "start_time": 57.87272727272727,
                "end_time": 58.06136363636363,
                "pitch": 65,
                "velocity": 64,
                "duration": 0.1886363636363626,
                "tempo": 120.0
            },
            {
                "start_time": 58.35909090909091,
                "end_time": 58.45681818181818,
                "pitch": 65,
                "velocity": 64,
                "duration": 0.09772727272726911,
                "tempo": 120.0
            },
            {
                "start_time": 58.76590909090909,
                "end_time": 58.945454545454545,
                "pitch": 65,
                "velocity": 64,
                "duration": 0.17954545454545467,
                "tempo": 120.0
            },
            {
                "start_time": 59.28181818181818,
                "end_time": 59.35227272727273,
                "pitch": 65,
                "velocity": 64,
                "duration": 0.07045454545454533,
                "tempo": 120.0
            },
            {
                "start_time": 59.67727272727272,
                "end_time": 59.865909090909085,
                "pitch": 65,
                "velocity": 64,
                "duration": 0.1886363636363626,
                "tempo": 120.0
            },
            {
                "start_time": 59.970454545454544,
                "end_time": 60.147727272727266,
                "pitch": 65,
                "velocity": 64,
                "duration": 0.17727272727272236,
                "tempo": 120.0
            },
            {
                "start_time": 60.277272727272724,
                "end_time": 62.06590909090909,
                "pitch": 67,
                "velocity": 64,
                "duration": 1.788636363636364,
                "tempo": 120.0
            },
            {
                "start_time": 62.08181818181818,
                "end_time": 62.272727272727266,
                "pitch": 63,
                "velocity": 64,
                "duration": 0.1909090909090878,
                "tempo": 120.0
            },
            {
                "start_time": 62.29090909090909,
                "end_time": 62.35909090909091,
                "pitch": 65,
                "velocity": 64,
                "duration": 0.06818181818182012,
                "tempo": 120.0
            },
            {
                "start_time": 62.570454545454545,
                "end_time": 64.47045454545454,
                "pitch": 67,
                "velocity": 64,
                "duration": 1.8999999999999986,
                "tempo": 120.0
            },
            {
                "start_time": 64.69545454545454,
                "end_time": 64.76590909090909,
                "pitch": 65,
                "velocity": 64,
                "duration": 0.07045454545455243,
                "tempo": 120.0
            },
            {
                "start_time": 64.78181818181818,
                "end_time": 64.9590909090909,
                "pitch": 67,
                "velocity": 64,
                "duration": 0.17727272727272236,
                "tempo": 120.0
            },
            {
                "start_time": 64.975,
                "end_time": 67.47954545454544,
                "pitch": 65,
                "velocity": 64,
                "duration": 2.5045454545454504,
                "tempo": 120.0
            },
            {
                "start_time": 67.49545454545454,
                "end_time": 67.68636363636364,
                "pitch": 65,
                "velocity": 64,
                "duration": 0.19090909090910202,
                "tempo": 120.0
            },
            {
                "start_time": 67.98409090909091,
                "end_time": 68.07954545454545,
                "pitch": 65,
                "velocity": 64,
                "duration": 0.0954545454545439,
                "tempo": 120.0
            },
            {
                "start_time": 68.39090909090909,
                "end_time": 68.56818181818181,
                "pitch": 65,
                "velocity": 64,
                "duration": 0.17727272727272236,
                "tempo": 120.0
            },
            {
                "start_time": 68.90681818181818,
                "end_time": 68.975,
                "pitch": 65,
                "velocity": 64,
                "duration": 0.06818181818181301,
                "tempo": 120.0
            },
            {
                "start_time": 69.3,
                "end_time": 69.49090909090908,
                "pitch": 65,
                "velocity": 64,
                "duration": 0.1909090909090878,
                "tempo": 120.0
            },
            {
                "start_time": 69.59318181818182,
                "end_time": 69.77045454545454,
                "pitch": 65,
                "velocity": 64,
                "duration": 0.17727272727272236,
                "tempo": 120.0
            },
            {
                "start_time": 69.90227272727273,
                "end_time": 71.68863636363636,
                "pitch": 67,
                "velocity": 64,
                "duration": 1.7863636363636317,
                "tempo": 120.0
            },
            {
                "start_time": 71.70681818181818,
                "end_time": 71.89545454545454,
                "pitch": 63,
                "velocity": 64,
                "duration": 0.1886363636363626,
                "tempo": 120.0
            },
            {
                "start_time": 71.91363636363636,
                "end_time": 71.98181818181818,
                "pitch": 65,
                "velocity": 64,
                "duration": 0.06818181818182723,
                "tempo": 120.0
            },
            {
                "start_time": 72.19318181818181,
                "end_time": 74.09545454545454,
                "pitch": 67,
                "velocity": 64,
                "duration": 1.902272727272731,
                "tempo": 120.0
            },
            {
                "start_time": 74.32045454545454,
                "end_time": 74.38863636363637,
                "pitch": 65,
                "velocity": 64,
                "duration": 0.06818181818182723,
                "tempo": 120.0
            },
            {
                "start_time": 74.40454545454546,
                "end_time": 74.5840909090909,
                "pitch": 67,
                "velocity": 64,
                "duration": 0.17954545454544757,
                "tempo": 120.0
            },
            {
                "start_time": 74.6,
                "end_time": 77.10227272727272,
                "pitch": 65,
                "velocity": 64,
                "duration": 2.502272727272725,
                "tempo": 120.0
            },
            {
                "start_time": 77.11818181818181,
                "end_time": 77.30909090909091,
                "pitch": 65,
                "velocity": 64,
                "duration": 0.19090909090910202,
                "tempo": 120.0
            },
            {
                "start_time": 77.61136363636363,
                "end_time": 77.71136363636363,
                "pitch": 65,
                "velocity": 64,
                "duration": 0.09999999999999432,
                "tempo": 120.0
            },
            {
                "start_time": 78.01363636363637,
                "end_time": 78.19090909090909,
                "pitch": 65,
                "velocity": 64,
                "duration": 0.17727272727272236,
                "tempo": 120.0
            },
            {
                "start_time": 78.52954545454546,
                "end_time": 78.59772727272727,
                "pitch": 65,
                "velocity": 64,
                "duration": 0.06818181818181301,
                "tempo": 120.0
            },
            {
                "start_time": 78.92272727272727,
                "end_time": 79.11363636363636,
                "pitch": 65,
                "velocity": 64,
                "duration": 0.1909090909090878,
                "tempo": 120.0
            },
            {
                "start_time": 79.2159090909091,
                "end_time": 79.39545454545454,
                "pitch": 65,
                "velocity": 64,
                "duration": 0.17954545454544757,
                "tempo": 120.0
            },
            {
                "start_time": 79.52499999999999,
                "end_time": 79.7159090909091,
                "pitch": 67,
                "velocity": 64,
                "duration": 0.19090909090910202,
                "tempo": 120.0
            },
            {
                "start_time": 80.01136363636363,
                "end_time": 80.10909090909091,
                "pitch": 67,
                "velocity": 64,
                "duration": 0.09772727272728332,
                "tempo": 120.0
            },
            {
                "start_time": 80.42045454545455,
                "end_time": 80.71136363636363,
                "pitch": 67,
                "velocity": 64,
                "duration": 0.2909090909090821,
                "tempo": 120.0
            }
        ],
        "Acoustic Bass": [
            {
                "start_time": 2.411363636363636,
                "end_time": 2.7227272727272727,
                "pitch": 43,
                "velocity": 4,
                "duration": 0.3113636363636365,
                "tempo": 120.0
            },
            {
                "start_time": 2.7409090909090907,
                "end_time": 2.811363636363636,
                "pitch": 55,
                "velocity": 80,
                "duration": 0.07045454545454533,
                "tempo": 120.0
            },
            {
                "start_time": 2.8295454545454546,
                "end_time": 3.006818181818182,
                "pitch": 43,
                "velocity": 80,
                "duration": 0.17727272727272725,
                "tempo": 120.0
            },
            {
                "start_time": 3.0227272727272725,
                "end_time": 3.120454545454545,
                "pitch": 55,
                "velocity": 80,
                "duration": 0.09772727272727266,
                "tempo": 120.0
            },
            {
                "start_time": 3.1363636363636362,
                "end_time": 3.327272727272727,
                "pitch": 43,
                "velocity": 80,
                "duration": 0.19090909090909092,
                "tempo": 120.0
            },
            {
                "start_time": 3.3454545454545452,
                "end_time": 3.4136363636363636,
                "pitch": 55,
                "velocity": 80,
                "duration": 0.06818181818181834,
                "tempo": 120.0
            },
            {
                "start_time": 3.4295454545454542,
                "end_time": 3.609090909090909,
                "pitch": 43,
                "velocity": 80,
                "duration": 0.17954545454545467,
                "tempo": 120.0
            },
            {
                "start_time": 3.625,
                "end_time": 3.7204545454545452,
                "pitch": 55,
                "velocity": 80,
                "duration": 0.09545454545454524,
                "tempo": 120.0
            },
            {
                "start_time": 3.7386363636363633,
                "end_time": 3.9295454545454542,
                "pitch": 43,
                "velocity": 80,
                "duration": 0.19090909090909092,
                "tempo": 120.0
            },
            {
                "start_time": 3.9454545454545453,
                "end_time": 4.015909090909091,
                "pitch": 55,
                "velocity": 80,
                "duration": 0.07045454545454533,
                "tempo": 120.0
            },
            {
                "start_time": 4.031818181818181,
                "end_time": 4.209090909090909,
                "pitch": 43,
                "velocity": 80,
                "duration": 0.1772727272727277,
                "tempo": 120.0
            },
            {
                "start_time": 4.225,
                "end_time": 4.322727272727272,
                "pitch": 55,
                "velocity": 80,
                "duration": 0.09772727272727266,
                "tempo": 120.0
            },
            {
                "start_time": 4.340909090909091,
                "end_time": 4.529545454545454,
                "pitch": 43,
                "velocity": 80,
                "duration": 0.1886363636363635,
                "tempo": 120.0
            },
            {
                "start_time": 4.547727272727273,
                "end_time": 4.61590909090909,
                "pitch": 55,
                "velocity": 80,
                "duration": 0.06818181818181746,
                "tempo": 120.0
            },
            {
                "start_time": 4.634090909090909,
                "end_time": 4.8113636363636365,
                "pitch": 43,
                "velocity": 80,
                "duration": 0.1772727272727277,
                "tempo": 120.0
            },
            {
                "start_time": 4.827272727272727,
                "end_time": 4.925,
                "pitch": 55,
                "velocity": 80,
                "duration": 0.09772727272727266,
                "tempo": 120.0
            },
            {
                "start_time": 4.9409090909090905,
                "end_time": 5.131818181818182,
                "pitch": 41,
                "velocity": 80,
                "duration": 0.19090909090909136,
                "tempo": 120.0
            },
            {
                "start_time": 5.1499999999999995,
                "end_time": 5.218181818181818,
                "pitch": 53,
                "velocity": 80,
                "duration": 0.06818181818181834,
                "tempo": 120.0
            },
            {
                "start_time": 5.2340909090909085,
                "end_time": 5.413636363636363,
                "pitch": 41,
                "velocity": 80,
                "duration": 0.17954545454545467,
                "tempo": 120.0
            },
            {
                "start_time": 5.429545454545455,
                "end_time": 5.5249999999999995,
                "pitch": 53,
                "velocity": 80,
                "duration": 0.09545454545454479,
                "tempo": 120.0
            },
            {
                "start_time": 5.543181818181818,
                "end_time": 5.7340909090909085,
                "pitch": 41,
                "velocity": 80,
                "duration": 0.19090909090909047,
                "tempo": 120.0
            },
            {
                "start_time": 5.75,
                "end_time": 5.820454545454545,
                "pitch": 53,
                "velocity": 80,
                "duration": 0.07045454545454533,
                "tempo": 120.0
            },
            {
                "start_time": 5.836363636363636,
                "end_time": 6.013636363636364,
                "pitch": 41,
                "velocity": 80,
                "duration": 0.1772727272727277,
                "tempo": 120.0
            },
            {
                "start_time": 6.029545454545454,
                "end_time": 6.127272727272727,
                "pitch": 53,
                "velocity": 80,
                "duration": 0.09772727272727266,
                "tempo": 120.0
            },
            {
                "start_time": 6.1454545454545455,
                "end_time": 6.334090909090909,
                "pitch": 41,
                "velocity": 80,
                "duration": 0.1886363636363635,
                "tempo": 120.0
            },
            {
                "start_time": 6.352272727272727,
                "end_time": 6.420454545454545,
                "pitch": 53,
                "velocity": 80,
                "duration": 0.06818181818181834,
                "tempo": 120.0
            },
            {
                "start_time": 6.4386363636363635,
                "end_time": 6.61590909090909,
                "pitch": 41,
                "velocity": 80,
                "duration": 0.1772727272727268,
                "tempo": 120.0
            },
            {
                "start_time": 6.631818181818182,
                "end_time": 6.7295454545454545,
                "pitch": 53,
                "velocity": 80,
                "duration": 0.09772727272727266,
                "tempo": 120.0
            },
            {
                "start_time": 6.745454545454545,
                "end_time": 6.936363636363636,
                "pitch": 41,
                "velocity": 80,
                "duration": 0.19090909090909047,
                "tempo": 120.0
            },
            {
                "start_time": 6.954545454545454,
                "end_time": 7.0227272727272725,
                "pitch": 53,
                "velocity": 80,
                "duration": 0.06818181818181834,
                "tempo": 120.0
            },
            {
                "start_time": 7.038636363636363,
                "end_time": 7.218181818181818,
                "pitch": 41,
                "velocity": 80,
                "duration": 0.17954545454545467,
                "tempo": 120.0
            },
            {
                "start_time": 7.2340909090909085,
                "end_time": 7.329545454545454,
                "pitch": 53,
                "velocity": 80,
                "duration": 0.09545454545454568,
                "tempo": 120.0
            },
            {
                "start_time": 7.347727272727273,
                "end_time": 7.538636363636363,
                "pitch": 41,
                "velocity": 80,
                "duration": 0.19090909090909047,
                "tempo": 120.0
            },
            {
                "start_time": 7.554545454545454,
                "end_time": 7.625,
                "pitch": 53,
                "velocity": 80,
                "duration": 0.07045454545454621,
                "tempo": 120.0
            },
            {
                "start_time": 7.640909090909091,
                "end_time": 7.8181818181818175,
                "pitch": 41,
                "velocity": 80,
                "duration": 0.1772727272727268,
                "tempo": 120.0
            },
            {
                "start_time": 7.834090909090909,
                "end_time": 7.931818181818182,
                "pitch": 53,
                "velocity": 80,
                "duration": 0.09772727272727266,
                "tempo": 120.0
            },
            {
                "start_time": 7.949999999999999,
                "end_time": 8.138636363636364,
                "pitch": 41,
                "velocity": 80,
                "duration": 0.18863636363636438,
                "tempo": 120.0
            },
            {
                "start_time": 8.156818181818181,
                "end_time": 8.225,
                "pitch": 53,
                "velocity": 80,
                "duration": 0.06818181818181834,
                "tempo": 120.0
            },
            {
                "start_time": 8.243181818181817,
                "end_time": 8.420454545454545,
                "pitch": 41,
                "velocity": 80,
                "duration": 0.1772727272727277,
                "tempo": 120.0
            },
            {
                "start_time": 8.436363636363636,
                "end_time": 8.534090909090908,
                "pitch": 53,
                "velocity": 80,
                "duration": 0.09772727272727266,
                "tempo": 120.0
            },
            {
                "start_time": 8.549999999999999,
                "end_time": 8.74090909090909,
                "pitch": 41,
                "velocity": 80,
                "duration": 0.19090909090909136,
                "tempo": 120.0
            },
            {
                "start_time": 8.756818181818181,
                "end_time": 8.827272727272726,
                "pitch": 53,
                "velocity": 80,
                "duration": 0.07045454545454533,
                "tempo": 120.0
            },
            {
                "start_time": 8.843181818181817,
                "end_time": 9.022727272727272,
                "pitch": 41,
                "velocity": 80,
                "duration": 0.17954545454545467,
                "tempo": 120.0
            },
            {
                "start_time": 9.038636363636364,
                "end_time": 9.134090909090908,
                "pitch": 53,
                "velocity": 80,
                "duration": 0.0954545454545439,
                "tempo": 120.0
            },
            {
                "start_time": 9.152272727272727,
                "end_time": 9.343181818181817,
                "pitch": 41,
                "velocity": 80,
                "duration": 0.19090909090908958,
                "tempo": 120.0
            },
            {
                "start_time": 9.35909090909091,
                "end_time": 9.429545454545455,
                "pitch": 53,
                "velocity": 80,
                "duration": 0.07045454545454533,
                "tempo": 120.0
            },
            {
                "start_time": 9.445454545454545,
                "end_time": 9.622727272727273,
                "pitch": 41,
                "velocity": 80,
                "duration": 0.1772727272727277,
                "tempo": 120.0
            },
            {
                "start_time": 9.638636363636364,
                "end_time": 9.736363636363636,
                "pitch": 53,
                "velocity": 80,
                "duration": 0.09772727272727266,
                "tempo": 120.0
            },
            {
                "start_time": 9.754545454545454,
                "end_time": 9.943181818181818,
                "pitch": 43,
                "velocity": 80,
                "duration": 0.18863636363636438,
                "tempo": 120.0
            },
            {
                "start_time": 9.961363636363636,
                "end_time": 10.029545454545454,
                "pitch": 55,
                "velocity": 80,
                "duration": 0.06818181818181834,
                "tempo": 120.0
            },
            {
                "start_time": 10.045454545454545,
                "end_time": 10.225,
                "pitch": 43,
                "velocity": 80,
                "duration": 0.17954545454545467,
                "tempo": 120.0
            },
            {
                "start_time": 10.24090909090909,
                "end_time": 10.338636363636363,
                "pitch": 55,
                "velocity": 80,
                "duration": 0.09772727272727266,
                "tempo": 120.0
            },
            {
                "start_time": 10.354545454545454,
                "end_time": 10.545454545454545,
                "pitch": 43,
                "velocity": 80,
                "duration": 0.19090909090909136,
                "tempo": 120.0
            },
            {
                "start_time": 10.561363636363636,
                "end_time": 10.631818181818181,
                "pitch": 55,
                "velocity": 80,
                "duration": 0.07045454545454533,
                "tempo": 120.0
            },
            {
                "start_time": 10.647727272727272,
                "end_time": 10.825,
                "pitch": 43,
                "velocity": 80,
                "duration": 0.1772727272727277,
                "tempo": 120.0
            },
            {
                "start_time": 10.843181818181817,
                "end_time": 10.938636363636363,
                "pitch": 55,
                "velocity": 80,
                "duration": 0.09545454545454568,
                "tempo": 120.0
            },
            {
                "start_time": 10.956818181818182,
                "end_time": 11.145454545454545,
                "pitch": 43,
                "velocity": 80,
                "duration": 0.1886363636363626,
                "tempo": 120.0
            },
            {
                "start_time": 11.163636363636362,
                "end_time": 11.23181818181818,
                "pitch": 55,
                "velocity": 80,
                "duration": 0.06818181818181834,
                "tempo": 120.0
            },
            {
                "start_time": 11.25,
                "end_time": 11.427272727272726,
                "pitch": 43,
                "velocity": 80,
                "duration": 0.17727272727272592,
                "tempo": 120.0
            },
            {
                "start_time": 11.443181818181818,
                "end_time": 11.540909090909091,
                "pitch": 55,
                "velocity": 80,
                "duration": 0.09772727272727266,
                "tempo": 120.0
            },
            {
                "start_time": 11.559090909090909,
                "end_time": 11.747727272727273,
                "pitch": 43,
                "velocity": 80,
                "duration": 0.18863636363636438,
                "tempo": 120.0
            },
            {
                "start_time": 11.76590909090909,
                "end_time": 11.834090909090909,
                "pitch": 55,
                "velocity": 80,
                "duration": 0.06818181818181834,
                "tempo": 120.0
            },
            {
                "start_time": 11.85,
                "end_time": 12.029545454545454,
                "pitch": 43,
                "velocity": 80,
                "duration": 0.17954545454545467,
                "tempo": 120.0
            },
            {
                "start_time": 12.045454545454545,
                "end_time": 12.143181818181818,
                "pitch": 55,
                "velocity": 80,
                "duration": 0.09772727272727266,
                "tempo": 120.0
            },
            {
                "start_time": 12.159090909090908,
                "end_time": 12.35,
                "pitch": 43,
                "velocity": 80,
                "duration": 0.19090909090909136,
                "tempo": 120.0
            },
            {
                "start_time": 12.36590909090909,
                "end_time": 12.436363636363636,
                "pitch": 55,
                "velocity": 80,
                "duration": 0.07045454545454533,
                "tempo": 120.0
            },
            {
                "start_time": 12.452272727272726,
                "end_time": 12.629545454545454,
                "pitch": 43,
                "velocity": 80,
                "duration": 0.1772727272727277,
                "tempo": 120.0
            },
            {
                "start_time": 12.647727272727272,
                "end_time": 12.743181818181817,
                "pitch": 55,
                "velocity": 80,
                "duration": 0.09545454545454568,
                "tempo": 120.0
            },
            {
                "start_time": 12.761363636363635,
                "end_time": 12.95,
                "pitch": 43,
                "velocity": 80,
                "duration": 0.18863636363636438,
                "tempo": 120.0
            },
            {
                "start_time": 12.968181818181817,
                "end_time": 13.036363636363635,
                "pitch": 55,
                "velocity": 80,
                "duration": 0.06818181818181834,
                "tempo": 120.0
            },
            {
                "start_time": 13.054545454545455,
                "end_time": 13.23181818181818,
                "pitch": 43,
                "velocity": 80,
                "duration": 0.17727272727272592,
                "tempo": 120.0
            },
            {
                "start_time": 13.247727272727271,
                "end_time": 13.345454545454546,
                "pitch": 55,
                "velocity": 80,
                "duration": 0.09772727272727444,
                "tempo": 120.0
            },
            {
                "start_time": 13.363636363636363,
                "end_time": 13.552272727272726,
                "pitch": 43,
                "velocity": 80,
                "duration": 0.1886363636363626,
                "tempo": 120.0
            },
            {
                "start_time": 13.570454545454545,
                "end_time": 13.638636363636364,
                "pitch": 55,
                "velocity": 80,
                "duration": 0.06818181818181834,
                "tempo": 120.0
            },
            {
                "start_time": 13.654545454545454,
                "end_time": 13.834090909090909,
                "pitch": 43,
                "velocity": 80,
                "duration": 0.17954545454545467,
                "tempo": 120.0
            },
            {
                "start_time": 13.85,
                "end_time": 13.947727272727272,
                "pitch": 55,
                "velocity": 80,
                "duration": 0.09772727272727266,
                "tempo": 120.0
            },
            {
                "start_time": 13.963636363636363,
                "end_time": 14.154545454545454,
                "pitch": 43,
                "velocity": 80,
                "duration": 0.19090909090909136,
                "tempo": 120.0
            },
            {
                "start_time": 14.170454545454545,
                "end_time": 14.24090909090909,
                "pitch": 55,
                "velocity": 80,
                "duration": 0.07045454545454533,
                "tempo": 120.0
            },
            {
                "start_time": 14.256818181818181,
                "end_time": 14.434090909090909,
                "pitch": 43,
                "velocity": 80,
                "duration": 0.1772727272727277,
                "tempo": 120.0
            },
            {
                "start_time": 14.452272727272726,
                "end_time": 14.547727272727272,
                "pitch": 55,
                "velocity": 80,
                "duration": 0.09545454545454568,
                "tempo": 120.0
            },
            {
                "start_time": 14.56590909090909,
                "end_time": 14.754545454545454,
                "pitch": 41,
                "velocity": 80,
                "duration": 0.18863636363636438,
                "tempo": 120.0
            },
            {
                "start_time": 14.772727272727272,
                "end_time": 14.84090909090909,
                "pitch": 53,
                "velocity": 80,
                "duration": 0.06818181818181834,
                "tempo": 120.0
            },
            {
                "start_time": 14.859090909090908,
                "end_time": 15.036363636363635,
                "pitch": 41,
                "velocity": 80,
                "duration": 0.1772727272727277,
                "tempo": 120.0
            },
            {
                "start_time": 15.052272727272726,
                "end_time": 15.149999999999999,
                "pitch": 53,
                "velocity": 80,
                "duration": 0.09772727272727266,
                "tempo": 120.0
            },
            {
                "start_time": 15.165909090909091,
                "end_time": 15.35681818181818,
                "pitch": 41,
                "velocity": 80,
                "duration": 0.19090909090908958,
                "tempo": 120.0
            },
            {
                "start_time": 15.375,
                "end_time": 15.443181818181817,
                "pitch": 53,
                "velocity": 80,
                "duration": 0.06818181818181657,
                "tempo": 120.0
            },
            {
                "start_time": 15.459090909090909,
                "end_time": 15.638636363636364,
                "pitch": 41,
                "velocity": 80,
                "duration": 0.17954545454545467,
                "tempo": 120.0
            },
            {
                "start_time": 15.654545454545454,
                "end_time": 15.752272727272727,
                "pitch": 53,
                "velocity": 80,
                "duration": 0.09772727272727266,
                "tempo": 120.0
            },
            {
                "start_time": 15.768181818181818,
                "end_time": 15.959090909090909,
                "pitch": 41,
                "velocity": 80,
                "duration": 0.19090909090909136,
                "tempo": 120.0
            },
            {
                "start_time": 15.975,
                "end_time": 16.045454545454543,
                "pitch": 53,
                "velocity": 80,
                "duration": 0.07045454545454355,
                "tempo": 120.0
            },
            {
                "start_time": 16.061363636363634,
                "end_time": 16.238636363636363,
                "pitch": 41,
                "velocity": 80,
                "duration": 0.17727272727272947,
                "tempo": 120.0
            },
            {
                "start_time": 16.254545454545454,
                "end_time": 16.352272727272727,
                "pitch": 53,
                "velocity": 80,
                "duration": 0.09772727272727266,
                "tempo": 120.0
            },
            {
                "start_time": 16.370454545454546,
                "end_time": 16.55909090909091,
                "pitch": 41,
                "velocity": 80,
                "duration": 0.1886363636363626,
                "tempo": 120.0
            },
            {
                "start_time": 16.577272727272728,
                "end_time": 16.645454545454545,
                "pitch": 53,
                "velocity": 80,
                "duration": 0.06818181818181657,
                "tempo": 120.0
            },
            {
                "start_time": 16.663636363636364,
                "end_time": 16.84090909090909,
                "pitch": 41,
                "velocity": 80,
                "duration": 0.17727272727272592,
                "tempo": 120.0
            },
            {
                "start_time": 16.85681818181818,
                "end_time": 16.954545454545453,
                "pitch": 53,
                "velocity": 80,
                "duration": 0.09772727272727266,
                "tempo": 120.0
            },
            {
                "start_time": 16.970454545454544,
                "end_time": 17.161363636363635,
                "pitch": 41,
                "velocity": 80,
                "duration": 0.19090909090909136,
                "tempo": 120.0
            },
            {
                "start_time": 17.179545454545455,
                "end_time": 17.24772727272727,
                "pitch": 53,
                "velocity": 80,
                "duration": 0.06818181818181657,
                "tempo": 120.0
            },
            {
                "start_time": 17.263636363636362,
                "end_time": 17.443181818181817,
                "pitch": 41,
                "velocity": 80,
                "duration": 0.17954545454545467,
                "tempo": 120.0
            },
            {
                "start_time": 17.459090909090907,
                "end_time": 17.55681818181818,
                "pitch": 53,
                "velocity": 80,
                "duration": 0.09772727272727266,
                "tempo": 120.0
            },
            {
                "start_time": 17.57272727272727,
                "end_time": 17.763636363636362,
                "pitch": 41,
                "velocity": 80,
                "duration": 0.19090909090909136,
                "tempo": 120.0
            },
            {
                "start_time": 17.779545454545453,
                "end_time": 17.849999999999998,
                "pitch": 53,
                "velocity": 80,
                "duration": 0.07045454545454533,
                "tempo": 120.0
            },
            {
                "start_time": 17.86590909090909,
                "end_time": 18.043181818181818,
                "pitch": 41,
                "velocity": 80,
                "duration": 0.17727272727272947,
                "tempo": 120.0
            },
            {
                "start_time": 18.05909090909091,
                "end_time": 18.15681818181818,
                "pitch": 53,
                "velocity": 80,
                "duration": 0.09772727272727266,
                "tempo": 120.0
            },
            {
                "start_time": 18.175,
                "end_time": 18.363636363636363,
                "pitch": 41,
                "velocity": 80,
                "duration": 0.1886363636363626,
                "tempo": 120.0
            },
            {
                "start_time": 18.38181818181818,
                "end_time": 18.45,
                "pitch": 53,
                "velocity": 80,
                "duration": 0.06818181818182012,
                "tempo": 120.0
            },
            {
                "start_time": 18.46818181818182,
                "end_time": 18.645454545454545,
                "pitch": 41,
                "velocity": 80,
                "duration": 0.17727272727272592,
                "tempo": 120.0
            },
            {
                "start_time": 18.661363636363635,
                "end_time": 18.759090909090908,
                "pitch": 53,
                "velocity": 80,
                "duration": 0.09772727272727266,
                "tempo": 120.0
            },
            {
                "start_time": 18.775,
                "end_time": 18.96590909090909,
                "pitch": 41,
                "velocity": 80,
                "duration": 0.19090909090909136,
                "tempo": 120.0
            },
            {
                "start_time": 18.98409090909091,
                "end_time": 19.052272727272726,
                "pitch": 53,
                "velocity": 80,
                "duration": 0.06818181818181657,
                "tempo": 120.0
            },
            {
                "start_time": 19.068181818181817,
                "end_time": 19.24772727272727,
                "pitch": 41,
                "velocity": 80,
                "duration": 0.17954545454545467,
                "tempo": 120.0
            },
            {
                "start_time": 19.263636363636362,
                "end_time": 19.35909090909091,
                "pitch": 53,
                "velocity": 80,
                "duration": 0.09545454545454746,
                "tempo": 120.0
            },
            {
                "start_time": 19.377272727272725,
                "end_time": 19.568181818181817,
                "pitch": 43,
                "velocity": 80,
                "duration": 0.19090909090909136,
                "tempo": 120.0
            },
            {
                "start_time": 19.584090909090907,
                "end_time": 19.654545454545453,
                "pitch": 55,
                "velocity": 80,
                "duration": 0.07045454545454533,
                "tempo": 120.0
            },
            {
                "start_time": 19.670454545454543,
                "end_time": 19.847727272727273,
                "pitch": 43,
                "velocity": 80,
                "duration": 0.17727272727272947,
                "tempo": 120.0
            },
            {
                "start_time": 19.863636363636363,
                "end_time": 19.961363636363636,
                "pitch": 55,
                "velocity": 80,
                "duration": 0.09772727272727266,
                "tempo": 120.0
            },
            {
                "start_time": 19.979545454545452,
                "end_time": 20.168181818181818,
                "pitch": 43,
                "velocity": 80,
                "duration": 0.18863636363636616,
                "tempo": 120.0
            },
            {
                "start_time": 20.186363636363634,
                "end_time": 20.254545454545454,
                "pitch": 55,
                "velocity": 80,
                "duration": 0.06818181818182012,
                "tempo": 120.0
            },
            {
                "start_time": 20.272727272727273,
                "end_time": 20.45,
                "pitch": 43,
                "velocity": 80,
                "duration": 0.17727272727272592,
                "tempo": 120.0
            },
            {
                "start_time": 20.46590909090909,
                "end_time": 20.563636363636363,
                "pitch": 55,
                "velocity": 80,
                "duration": 0.09772727272727266,
                "tempo": 120.0
            },
            {
                "start_time": 20.579545454545453,
                "end_time": 20.770454545454545,
                "pitch": 43,
                "velocity": 80,
                "duration": 0.19090909090909136,
                "tempo": 120.0
            },
            {
                "start_time": 20.788636363636364,
                "end_time": 20.85681818181818,
                "pitch": 55,
                "velocity": 80,
                "duration": 0.06818181818181657,
                "tempo": 120.0
            },
            {
                "start_time": 20.87272727272727,
                "end_time": 21.052272727272726,
                "pitch": 43,
                "velocity": 80,
                "duration": 0.17954545454545467,
                "tempo": 120.0
            },
            {
                "start_time": 21.068181818181817,
                "end_time": 21.163636363636364,
                "pitch": 55,
                "velocity": 80,
                "duration": 0.09545454545454746,
                "tempo": 120.0
            },
            {
                "start_time": 21.18181818181818,
                "end_time": 21.37272727272727,
                "pitch": 43,
                "velocity": 80,
                "duration": 0.19090909090909136,
                "tempo": 120.0
            },
            {
                "start_time": 21.388636363636362,
                "end_time": 21.459090909090907,
                "pitch": 55,
                "velocity": 80,
                "duration": 0.07045454545454533,
                "tempo": 120.0
            },
            {
                "start_time": 21.474999999999998,
                "end_time": 21.652272727272727,
                "pitch": 43,
                "velocity": 80,
                "duration": 0.17727272727272947,
                "tempo": 120.0
            },
            {
                "start_time": 21.668181818181818,
                "end_time": 21.76590909090909,
                "pitch": 55,
                "velocity": 80,
                "duration": 0.09772727272727266,
                "tempo": 120.0
            },
            {
                "start_time": 21.784090909090907,
                "end_time": 21.972727272727273,
                "pitch": 43,
                "velocity": 80,
                "duration": 0.18863636363636616,
                "tempo": 120.0
            },
            {
                "start_time": 21.99090909090909,
                "end_time": 22.05909090909091,
                "pitch": 55,
                "velocity": 80,
                "duration": 0.06818181818182012,
                "tempo": 120.0
            },
            {
                "start_time": 22.077272727272724,
                "end_time": 22.254545454545454,
                "pitch": 43,
                "velocity": 80,
                "duration": 0.17727272727272947,
                "tempo": 120.0
            },
            {
                "start_time": 22.270454545454545,
                "end_time": 22.368181818181817,
                "pitch": 55,
                "velocity": 80,
                "duration": 0.09772727272727266,
                "tempo": 120.0
            },
            {
                "start_time": 22.384090909090908,
                "end_time": 22.575,
                "pitch": 43,
                "velocity": 80,
                "duration": 0.19090909090909136,
                "tempo": 120.0
            },
            {
                "start_time": 22.59318181818182,
                "end_time": 22.661363636363635,
                "pitch": 55,
                "velocity": 80,
                "duration": 0.06818181818181657,
                "tempo": 120.0
            },
            {
                "start_time": 22.677272727272726,
                "end_time": 22.85681818181818,
                "pitch": 43,
                "velocity": 80,
                "duration": 0.17954545454545467,
                "tempo": 120.0
            },
            {
                "start_time": 22.87272727272727,
                "end_time": 22.96818181818182,
                "pitch": 55,
                "velocity": 80,
                "duration": 0.09545454545454746,
                "tempo": 120.0
            },
            {
                "start_time": 22.986363636363635,
                "end_time": 23.177272727272726,
                "pitch": 43,
                "velocity": 80,
                "duration": 0.19090909090909136,
                "tempo": 120.0
            },
            {
                "start_time": 23.193181818181817,
                "end_time": 23.263636363636362,
                "pitch": 55,
                "velocity": 80,
                "duration": 0.07045454545454533,
                "tempo": 120.0
            },
            {
                "start_time": 23.279545454545453,
                "end_time": 23.456818181818182,
                "pitch": 43,
                "velocity": 80,
                "duration": 0.17727272727272947,
                "tempo": 120.0
            },
            {
                "start_time": 23.472727272727273,
                "end_time": 23.570454545454545,
                "pitch": 55,
                "velocity": 80,
                "duration": 0.09772727272727266,
                "tempo": 120.0
            },
            {
                "start_time": 23.58863636363636,
                "end_time": 23.777272727272727,
                "pitch": 43,
                "velocity": 80,
                "duration": 0.18863636363636616,
                "tempo": 120.0
            },
            {
                "start_time": 23.795454545454543,
                "end_time": 23.863636363636363,
                "pitch": 55,
                "velocity": 80,
                "duration": 0.06818181818182012,
                "tempo": 120.0
            },
            {
                "start_time": 23.88181818181818,
                "end_time": 24.05909090909091,
                "pitch": 43,
                "velocity": 80,
                "duration": 0.17727272727272947,
                "tempo": 120.0
            },
            {
                "start_time": 24.075,
                "end_time": 24.172727272727272,
                "pitch": 55,
                "velocity": 80,
                "duration": 0.09772727272727266,
                "tempo": 120.0
            },
            {
                "start_time": 24.188636363636363,
                "end_time": 24.379545454545454,
                "pitch": 41,
                "velocity": 80,
                "duration": 0.19090909090909136,
                "tempo": 120.0
            },
            {
                "start_time": 24.39772727272727,
                "end_time": 24.46590909090909,
                "pitch": 53,
                "velocity": 80,
                "duration": 0.06818181818182012,
                "tempo": 120.0
            },
            {
                "start_time": 24.48181818181818,
                "end_time": 24.661363636363635,
                "pitch": 41,
                "velocity": 80,
                "duration": 0.17954545454545467,
                "tempo": 120.0
            },
            {
                "start_time": 24.677272727272726,
                "end_time": 24.77272727272727,
                "pitch": 53,
                "velocity": 80,
                "duration": 0.0954545454545439,
                "tempo": 120.0
            },
            {
                "start_time": 24.79090909090909,
                "end_time": 24.98181818181818,
                "pitch": 41,
                "velocity": 80,
                "duration": 0.19090909090909136,
                "tempo": 120.0
            },
            {
                "start_time": 24.99772727272727,
                "end_time": 25.068181818181817,
                "pitch": 53,
                "velocity": 80,
                "duration": 0.07045454545454533,
                "tempo": 120.0
            },
            {
                "start_time": 25.084090909090907,
                "end_time": 25.261363636363637,
                "pitch": 41,
                "velocity": 80,
                "duration": 0.17727272727272947,
                "tempo": 120.0
            },
            {
                "start_time": 25.277272727272727,
                "end_time": 25.375,
                "pitch": 53,
                "velocity": 80,
                "duration": 0.09772727272727266,
                "tempo": 120.0
            },
            {
                "start_time": 25.393181818181816,
                "end_time": 25.581818181818182,
                "pitch": 41,
                "velocity": 80,
                "duration": 0.18863636363636616,
                "tempo": 120.0
            },
            {
                "start_time": 25.599999999999998,
                "end_time": 25.668181818181818,
                "pitch": 53,
                "velocity": 80,
                "duration": 0.06818181818182012,
                "tempo": 120.0
            },
            {
                "start_time": 25.686363636363634,
                "end_time": 25.863636363636363,
                "pitch": 41,
                "velocity": 80,
                "duration": 0.17727272727272947,
                "tempo": 120.0
            },
            {
                "start_time": 25.879545454545454,
                "end_time": 25.977272727272727,
                "pitch": 53,
                "velocity": 80,
                "duration": 0.09772727272727266,
                "tempo": 120.0
            },
            {
                "start_time": 25.993181818181817,
                "end_time": 26.18409090909091,
                "pitch": 41,
                "velocity": 80,
                "duration": 0.19090909090909136,
                "tempo": 120.0
            },
            {
                "start_time": 26.2,
                "end_time": 26.270454545454545,
                "pitch": 53,
                "velocity": 80,
                "duration": 0.07045454545454533,
                "tempo": 120.0
            },
            {
                "start_time": 26.286363636363635,
                "end_time": 26.46590909090909,
                "pitch": 41,
                "velocity": 80,
                "duration": 0.17954545454545467,
                "tempo": 120.0
            },
            {
                "start_time": 26.48181818181818,
                "end_time": 26.577272727272724,
                "pitch": 53,
                "velocity": 80,
                "duration": 0.0954545454545439,
                "tempo": 120.0
            },
            {
                "start_time": 26.595454545454544,
                "end_time": 26.786363636363635,
                "pitch": 41,
                "velocity": 80,
                "duration": 0.19090909090909136,
                "tempo": 120.0
            },
            {
                "start_time": 26.802272727272726,
                "end_time": 26.87272727272727,
                "pitch": 53,
                "velocity": 80,
                "duration": 0.07045454545454533,
                "tempo": 120.0
            },
            {
                "start_time": 26.888636363636362,
                "end_time": 27.06590909090909,
                "pitch": 41,
                "velocity": 80,
                "duration": 0.17727272727272947,
                "tempo": 120.0
            },
            {
                "start_time": 27.081818181818182,
                "end_time": 27.179545454545455,
                "pitch": 53,
                "velocity": 80,
                "duration": 0.09772727272727266,
                "tempo": 120.0
            },
            {
                "start_time": 27.19772727272727,
                "end_time": 27.386363636363637,
                "pitch": 41,
                "velocity": 80,
                "duration": 0.18863636363636616,
                "tempo": 120.0
            },
            {
                "start_time": 27.404545454545453,
                "end_time": 27.472727272727273,
                "pitch": 53,
                "velocity": 80,
                "duration": 0.06818181818182012,
                "tempo": 120.0
            },
            {
                "start_time": 27.488636363636363,
                "end_time": 27.668181818181818,
                "pitch": 41,
                "velocity": 80,
                "duration": 0.17954545454545467,
                "tempo": 120.0
            },
            {
                "start_time": 27.68409090909091,
                "end_time": 27.78181818181818,
                "pitch": 53,
                "velocity": 80,
                "duration": 0.09772727272727266,
                "tempo": 120.0
            },
            {
                "start_time": 27.797727272727272,
                "end_time": 27.988636363636363,
                "pitch": 41,
                "velocity": 80,
                "duration": 0.19090909090909136,
                "tempo": 120.0
            },
            {
                "start_time": 28.004545454545454,
                "end_time": 28.075,
                "pitch": 53,
                "velocity": 80,
                "duration": 0.07045454545454533,
                "tempo": 120.0
            },
            {
                "start_time": 28.09090909090909,
                "end_time": 28.268181818181816,
                "pitch": 41,
                "velocity": 80,
                "duration": 0.17727272727272592,
                "tempo": 120.0
            },
            {
                "start_time": 28.286363636363635,
                "end_time": 28.38181818181818,
                "pitch": 53,
                "velocity": 80,
                "duration": 0.0954545454545439,
                "tempo": 120.0
            },
            {
                "start_time": 28.4,
                "end_time": 28.58863636363636,
                "pitch": 41,
                "velocity": 80,
                "duration": 0.1886363636363626,
                "tempo": 120.0
            },
            {
                "start_time": 28.60681818181818,
                "end_time": 28.674999999999997,
                "pitch": 53,
                "velocity": 80,
                "duration": 0.06818181818181657,
                "tempo": 120.0
            },
            {
                "start_time": 28.693181818181817,
                "end_time": 28.870454545454542,
                "pitch": 41,
                "velocity": 80,
                "duration": 0.17727272727272592,
                "tempo": 120.0
            },
            {
                "start_time": 28.886363636363637,
                "end_time": 28.98409090909091,
                "pitch": 53,
                "velocity": 80,
                "duration": 0.09772727272727266,
                "tempo": 120.0
            },
            {
                "start_time": 29.002272727272725,
                "end_time": 29.190909090909088,
                "pitch": 43,
                "velocity": 80,
                "duration": 0.1886363636363626,
                "tempo": 120.0
            },
            {
                "start_time": 29.209090909090907,
                "end_time": 29.277272727272727,
                "pitch": 55,
                "velocity": 80,
                "duration": 0.06818181818182012,
                "tempo": 120.0
            },
            {
                "start_time": 29.293181818181818,
                "end_time": 29.472727272727273,
                "pitch": 43,
                "velocity": 80,
                "duration": 0.17954545454545467,
                "tempo": 120.0
            },
            {
                "start_time": 29.488636363636363,
                "end_time": 29.586363636363636,
                "pitch": 55,
                "velocity": 80,
                "duration": 0.09772727272727266,
                "tempo": 120.0
            },
            {
                "start_time": 29.602272727272727,
                "end_time": 29.793181818181818,
                "pitch": 43,
                "velocity": 80,
                "duration": 0.19090909090909136,
                "tempo": 120.0
            },
            {
                "start_time": 29.80909090909091,
                "end_time": 29.879545454545454,
                "pitch": 55,
                "velocity": 80,
                "duration": 0.07045454545454533,
                "tempo": 120.0
            },
            {
                "start_time": 29.895454545454545,
                "end_time": 30.07272727272727,
                "pitch": 43,
                "velocity": 80,
                "duration": 0.17727272727272592,
                "tempo": 120.0
            },
            {
                "start_time": 30.09090909090909,
                "end_time": 30.186363636363634,
                "pitch": 55,
                "velocity": 80,
                "duration": 0.0954545454545439,
                "tempo": 120.0
            },
            {
                "start_time": 30.204545454545453,
                "end_time": 30.393181818181816,
                "pitch": 43,
                "velocity": 80,
                "duration": 0.1886363636363626,
                "tempo": 120.0
            },
            {
                "start_time": 30.411363636363635,
                "end_time": 30.479545454545452,
                "pitch": 55,
                "velocity": 80,
                "duration": 0.06818181818181657,
                "tempo": 120.0
            },
            {
                "start_time": 30.49772727272727,
                "end_time": 30.674999999999997,
                "pitch": 43,
                "velocity": 80,
                "duration": 0.17727272727272592,
                "tempo": 120.0
            },
            {
                "start_time": 30.690909090909088,
                "end_time": 30.78863636363636,
                "pitch": 55,
                "velocity": 80,
                "duration": 0.09772727272727266,
                "tempo": 120.0
            },
            {
                "start_time": 30.80681818181818,
                "end_time": 30.995454545454542,
                "pitch": 43,
                "velocity": 80,
                "duration": 0.1886363636363626,
                "tempo": 120.0
            },
            {
                "start_time": 31.013636363636362,
                "end_time": 31.081818181818182,
                "pitch": 55,
                "velocity": 80,
                "duration": 0.06818181818182012,
                "tempo": 120.0
            },
            {
                "start_time": 31.097727272727273,
                "end_time": 31.277272727272727,
                "pitch": 43,
                "velocity": 80,
                "duration": 0.17954545454545467,
                "tempo": 120.0
            },
            {
                "start_time": 31.293181818181818,
                "end_time": 31.39090909090909,
                "pitch": 55,
                "velocity": 80,
                "duration": 0.09772727272727266,
                "tempo": 120.0
            },
            {
                "start_time": 31.40681818181818,
                "end_time": 31.597727272727273,
                "pitch": 43,
                "velocity": 80,
                "duration": 0.19090909090909136,
                "tempo": 120.0
            },
            {
                "start_time": 31.613636363636363,
                "end_time": 31.68409090909091,
                "pitch": 55,
                "velocity": 80,
                "duration": 0.07045454545454533,
                "tempo": 120.0
            },
            {
                "start_time": 31.7,
                "end_time": 31.877272727272725,
                "pitch": 43,
                "velocity": 80,
                "duration": 0.17727272727272592,
                "tempo": 120.0
            },
            {
                "start_time": 31.895454545454545,
                "end_time": 31.99090909090909,
                "pitch": 55,
                "velocity": 80,
                "duration": 0.0954545454545439,
                "tempo": 120.0
            },
            {
                "start_time": 32.00909090909091,
                "end_time": 32.19772727272727,
                "pitch": 43,
                "velocity": 80,
                "duration": 0.1886363636363626,
                "tempo": 120.0
            },
            {
                "start_time": 32.215909090909086,
                "end_time": 32.28409090909091,
                "pitch": 55,
                "velocity": 80,
                "duration": 0.06818181818182012,
                "tempo": 120.0
            },
            {
                "start_time": 32.30227272727272,
                "end_time": 32.47954545454545,
                "pitch": 43,
                "velocity": 80,
                "duration": 0.17727272727272947,
                "tempo": 120.0
            },
            {
                "start_time": 32.49545454545454,
                "end_time": 32.59318181818182,
                "pitch": 55,
                "velocity": 80,
                "duration": 0.09772727272727622,
                "tempo": 120.0
            },
            {
                "start_time": 32.60909090909091,
                "end_time": 32.8,
                "pitch": 43,
                "velocity": 80,
                "duration": 0.1909090909090878,
                "tempo": 120.0
            },
            {
                "start_time": 32.81818181818182,
                "end_time": 32.88636363636363,
                "pitch": 55,
                "velocity": 80,
                "duration": 0.06818181818181301,
                "tempo": 120.0
            },
            {
                "start_time": 32.902272727272724,
                "end_time": 33.08181818181818,
                "pitch": 43,
                "velocity": 80,
                "duration": 0.17954545454545467,
                "tempo": 120.0
            },
            {
                "start_time": 33.09772727272727,
                "end_time": 33.195454545454545,
                "pitch": 55,
                "velocity": 80,
                "duration": 0.09772727272727622,
                "tempo": 120.0
            },
            {
                "start_time": 33.211363636363636,
                "end_time": 33.402272727272724,
                "pitch": 43,
                "velocity": 80,
                "duration": 0.1909090909090878,
                "tempo": 120.0
            },
            {
                "start_time": 33.418181818181814,
                "end_time": 33.48863636363636,
                "pitch": 55,
                "velocity": 80,
                "duration": 0.07045454545454533,
                "tempo": 120.0
            },
            {
                "start_time": 33.50454545454545,
                "end_time": 33.79545454545455,
                "pitch": 43,
                "velocity": 80,
                "duration": 0.29090909090909634,
                "tempo": 120.0
            },
            {
                "start_time": 33.81363636363636,
                "end_time": 33.99772727272727,
                "pitch": 41,
                "velocity": 80,
                "duration": 0.18409090909090509,
                "tempo": 120.0
            },
            {
                "start_time": 34.013636363636365,
                "end_time": 34.08181818181818,
                "pitch": 53,
                "velocity": 80,
                "duration": 0.06818181818181301,
                "tempo": 120.0
            },
            {
                "start_time": 34.09772727272727,
                "end_time": 34.28181818181818,
                "pitch": 41,
                "velocity": 80,
                "duration": 0.1840909090909122,
                "tempo": 120.0
            },
            {
                "start_time": 34.29772727272727,
                "end_time": 34.39772727272727,
                "pitch": 53,
                "velocity": 80,
                "duration": 0.10000000000000142,
                "tempo": 120.0
            },
            {
                "start_time": 34.41590909090909,
                "end_time": 34.60454545454545,
                "pitch": 41,
                "velocity": 80,
                "duration": 0.1886363636363626,
                "tempo": 120.0
            },
            {
                "start_time": 34.62272727272727,
                "end_time": 34.69090909090909,
                "pitch": 53,
                "velocity": 80,
                "duration": 0.06818181818182012,
                "tempo": 120.0
            },
            {
                "start_time": 34.70681818181818,
                "end_time": 34.88636363636363,
                "pitch": 41,
                "velocity": 80,
                "duration": 0.17954545454545467,
                "tempo": 120.0
            },
            {
                "start_time": 34.902272727272724,
                "end_time": 35.0,
                "pitch": 53,
                "velocity": 80,
                "duration": 0.09772727272727622,
                "tempo": 120.0
            },
            {
                "start_time": 35.01590909090909,
                "end_time": 35.20681818181818,
                "pitch": 41,
                "velocity": 80,
                "duration": 0.1909090909090878,
                "tempo": 120.0
            },
            {
                "start_time": 35.22272727272727,
                "end_time": 35.293181818181814,
                "pitch": 53,
                "velocity": 80,
                "duration": 0.07045454545454533,
                "tempo": 120.0
            },
            {
                "start_time": 35.309090909090905,
                "end_time": 35.486363636363635,
                "pitch": 41,
                "velocity": 80,
                "duration": 0.17727272727272947,
                "tempo": 120.0
            },
            {
                "start_time": 35.50454545454545,
                "end_time": 35.6,
                "pitch": 53,
                "velocity": 80,
                "duration": 0.09545454545455101,
                "tempo": 120.0
            },
            {
                "start_time": 35.61818181818182,
                "end_time": 35.80681818181818,
                "pitch": 41,
                "velocity": 80,
                "duration": 0.1886363636363626,
                "tempo": 120.0
            },
            {
                "start_time": 35.824999999999996,
                "end_time": 35.893181818181816,
                "pitch": 53,
                "velocity": 80,
                "duration": 0.06818181818182012,
                "tempo": 120.0
            },
            {
                "start_time": 35.91136363636363,
                "end_time": 36.20227272727273,
                "pitch": 41,
                "velocity": 80,
                "duration": 0.29090909090909634,
                "tempo": 120.0
            },
            {
                "start_time": 36.220454545454544,
                "end_time": 36.40909090909091,
                "pitch": 41,
                "velocity": 80,
                "duration": 0.1886363636363626,
                "tempo": 120.0
            },
            {
                "start_time": 36.42727272727272,
                "end_time": 36.49545454545454,
                "pitch": 53,
                "velocity": 80,
                "duration": 0.06818181818182012,
                "tempo": 120.0
            },
            {
                "start_time": 36.51363636363636,
                "end_time": 36.695454545454545,
                "pitch": 41,
                "velocity": 80,
                "duration": 0.18181818181818699,
                "tempo": 120.0
            },
            {
                "start_time": 36.71363636363636,
                "end_time": 36.81363636363636,
                "pitch": 53,
                "velocity": 80,
                "duration": 0.10000000000000142,
                "tempo": 120.0
            },
            {
                "start_time": 36.82954545454545,
                "end_time": 37.01363636363636,
                "pitch": 41,
                "velocity": 80,
                "duration": 0.18409090909090509,
                "tempo": 120.0
            },
            {
                "start_time": 37.03181818181818,
                "end_time": 37.09772727272727,
                "pitch": 53,
                "velocity": 80,
                "duration": 0.06590909090908781,
                "tempo": 120.0
            },
            {
                "start_time": 37.11363636363636,
                "end_time": 37.293181818181814,
                "pitch": 41,
                "velocity": 80,
                "duration": 0.17954545454545467,
                "tempo": 120.0
            },
            {
                "start_time": 37.309090909090905,
                "end_time": 37.404545454545456,
                "pitch": 53,
                "velocity": 80,
                "duration": 0.09545454545455101,
                "tempo": 120.0
            },
            {
                "start_time": 37.42272727272727,
                "end_time": 37.61363636363636,
                "pitch": 41,
                "velocity": 80,
                "duration": 0.1909090909090878,
                "tempo": 120.0
            },
            {
                "start_time": 37.62954545454545,
                "end_time": 37.699999999999996,
                "pitch": 53,
                "velocity": 80,
                "duration": 0.07045454545454533,
                "tempo": 120.0
            },
            {
                "start_time": 37.715909090909086,
                "end_time": 37.893181818181816,
                "pitch": 41,
                "velocity": 80,
                "duration": 0.17727272727272947,
                "tempo": 120.0
            },
            {
                "start_time": 37.90909090909091,
                "end_time": 38.00681818181818,
                "pitch": 53,
                "velocity": 80,
                "duration": 0.09772727272727622,
                "tempo": 120.0
            },
            {
                "start_time": 38.025,
                "end_time": 38.21363636363636,
                "pitch": 41,
                "velocity": 80,
                "duration": 0.1886363636363626,
                "tempo": 120.0
            },
            {
                "start_time": 38.23181818181818,
                "end_time": 38.3,
                "pitch": 53,
                "velocity": 80,
                "duration": 0.06818181818182012,
                "tempo": 120.0
            },
            {
                "start_time": 38.31818181818181,
                "end_time": 38.49545454545454,
                "pitch": 41,
                "velocity": 80,
                "duration": 0.17727272727272947,
                "tempo": 120.0
            },
            {
                "start_time": 38.51136363636363,
                "end_time": 38.60909090909091,
                "pitch": 53,
                "velocity": 80,
                "duration": 0.09772727272727622,
                "tempo": 120.0
            },
            {
                "start_time": 38.625,
                "end_time": 38.81590909090909,
                "pitch": 43,
                "velocity": 80,
                "duration": 0.1909090909090878,
                "tempo": 120.0
            },
            {
                "start_time": 38.834090909090904,
                "end_time": 38.902272727272724,
                "pitch": 55,
                "velocity": 80,
                "duration": 0.06818181818182012,
                "tempo": 120.0
            },
            {
                "start_time": 38.918181818181814,
                "end_time": 39.09772727272727,
                "pitch": 43,
                "velocity": 80,
                "duration": 0.17954545454545467,
                "tempo": 120.0
            },
            {
                "start_time": 39.11363636363636,
                "end_time": 39.209090909090904,
                "pitch": 55,
                "velocity": 80,
                "duration": 0.0954545454545439,
                "tempo": 120.0
            },
            {
                "start_time": 39.22727272727273,
                "end_time": 39.418181818181814,
                "pitch": 43,
                "velocity": 80,
                "duration": 0.1909090909090878,
                "tempo": 120.0
            },
            {
                "start_time": 39.434090909090905,
                "end_time": 39.50454545454545,
                "pitch": 55,
                "velocity": 80,
                "duration": 0.07045454545454533,
                "tempo": 120.0
            },
            {
                "start_time": 39.52045454545454,
                "end_time": 39.69772727272727,
                "pitch": 43,
                "velocity": 80,
                "duration": 0.17727272727272947,
                "tempo": 120.0
            },
            {
                "start_time": 39.71363636363636,
                "end_time": 39.81136363636364,
                "pitch": 55,
                "velocity": 80,
                "duration": 0.09772727272727622,
                "tempo": 120.0
            },
            {
                "start_time": 39.82954545454545,
                "end_time": 40.018181818181816,
                "pitch": 43,
                "velocity": 80,
                "duration": 0.1886363636363626,
                "tempo": 120.0
            },
            {
                "start_time": 40.03636363636363,
                "end_time": 40.10454545454545,
                "pitch": 55,
                "velocity": 80,
                "duration": 0.06818181818182012,
                "tempo": 120.0
            },
            {
                "start_time": 40.12272727272727,
                "end_time": 40.3,
                "pitch": 43,
                "velocity": 80,
                "duration": 0.17727272727272947,
                "tempo": 120.0
            },
            {
                "start_time": 40.31590909090909,
                "end_time": 40.413636363636364,
                "pitch": 55,
                "velocity": 80,
                "duration": 0.09772727272727622,
                "tempo": 120.0
            },
            {
                "start_time": 40.429545454545455,
                "end_time": 40.62045454545454,
                "pitch": 43,
                "velocity": 80,
                "duration": 0.1909090909090878,
                "tempo": 120.0
            },
            {
                "start_time": 40.63636363636363,
                "end_time": 40.70681818181818,
                "pitch": 55,
                "velocity": 80,
                "duration": 0.07045454545454533,
                "tempo": 120.0
            },
            {
                "start_time": 40.72272727272727,
                "end_time": 41.01363636363636,
                "pitch": 43,
                "velocity": 80,
                "duration": 0.29090909090908923,
                "tempo": 120.0
            },
            {
                "start_time": 43.31818181818181,
                "end_time": 43.627272727272725,
                "pitch": 43,
                "velocity": 80,
                "duration": 0.3090909090909122,
                "tempo": 120.0
            },
            {
                "start_time": 43.643181818181816,
                "end_time": 43.71363636363636,
                "pitch": 55,
                "velocity": 80,
                "duration": 0.07045454545454533,
                "tempo": 120.0
            },
            {
                "start_time": 43.72954545454545,
                "end_time": 43.90681818181818,
                "pitch": 43,
                "velocity": 80,
                "duration": 0.17727272727272947,
                "tempo": 120.0
            },
            {
                "start_time": 43.92272727272727,
                "end_time": 44.02045454545454,
                "pitch": 55,
                "velocity": 80,
                "duration": 0.09772727272726911,
                "tempo": 120.0
            },
            {
                "start_time": 44.038636363636364,
                "end_time": 44.22727272727273,
                "pitch": 43,
                "velocity": 80,
                "duration": 0.1886363636363626,
                "tempo": 120.0
            },
            {
                "start_time": 44.24545454545454,
                "end_time": 44.31363636363636,
                "pitch": 55,
                "velocity": 80,
                "duration": 0.06818181818182012,
                "tempo": 120.0
            },
            {
                "start_time": 44.33181818181818,
                "end_time": 44.50909090909091,
                "pitch": 43,
                "velocity": 80,
                "duration": 0.17727272727272947,
                "tempo": 120.0
            },
            {
                "start_time": 44.525,
                "end_time": 44.62272727272727,
                "pitch": 55,
                "velocity": 80,
                "duration": 0.09772727272726911,
                "tempo": 120.0
            },
            {
                "start_time": 44.63863636363636,
                "end_time": 44.82954545454545,
                "pitch": 43,
                "velocity": 80,
                "duration": 0.19090909090909491,
                "tempo": 120.0
            },
            {
                "start_time": 44.84772727272727,
                "end_time": 44.91590909090909,
                "pitch": 55,
                "velocity": 80,
                "duration": 0.06818181818182012,
                "tempo": 120.0
            },
            {
                "start_time": 44.93181818181818,
                "end_time": 45.111363636363635,
                "pitch": 43,
                "velocity": 80,
                "duration": 0.17954545454545467,
                "tempo": 120.0
            },
            {
                "start_time": 45.127272727272725,
                "end_time": 45.22272727272727,
                "pitch": 55,
                "velocity": 80,
                "duration": 0.0954545454545439,
                "tempo": 120.0
            },
            {
                "start_time": 45.24090909090909,
                "end_time": 45.43181818181818,
                "pitch": 43,
                "velocity": 80,
                "duration": 0.1909090909090878,
                "tempo": 120.0
            },
            {
                "start_time": 45.44772727272727,
                "end_time": 45.518181818181816,
                "pitch": 55,
                "velocity": 80,
                "duration": 0.07045454545454533,
                "tempo": 120.0
            },
            {
                "start_time": 45.53409090909091,
                "end_time": 45.711363636363636,
                "pitch": 43,
                "velocity": 80,
                "duration": 0.17727272727272947,
                "tempo": 120.0
            },
            {
                "start_time": 45.72727272727273,
                "end_time": 45.824999999999996,
                "pitch": 55,
                "velocity": 80,
                "duration": 0.09772727272726911,
                "tempo": 120.0
            },
            {
                "start_time": 45.84318181818182,
                "end_time": 46.03181818181818,
                "pitch": 41,
                "velocity": 80,
                "duration": 0.1886363636363626,
                "tempo": 120.0
            },
            {
                "start_time": 46.05,
                "end_time": 46.11818181818182,
                "pitch": 53,
                "velocity": 80,
                "duration": 0.06818181818182012,
                "tempo": 120.0
            },
            {
                "start_time": 46.13636363636363,
                "end_time": 46.31363636363636,
                "pitch": 41,
                "velocity": 80,
                "duration": 0.17727272727272947,
                "tempo": 120.0
            },
            {
                "start_time": 46.32954545454545,
                "end_time": 46.42727272727272,
                "pitch": 53,
                "velocity": 80,
                "duration": 0.09772727272726911,
                "tempo": 120.0
            },
            {
                "start_time": 46.44318181818181,
                "end_time": 46.63409090909091,
                "pitch": 41,
                "velocity": 80,
                "duration": 0.19090909090909491,
                "tempo": 120.0
            },
            {
                "start_time": 46.652272727272724,
                "end_time": 46.720454545454544,
                "pitch": 53,
                "velocity": 80,
                "duration": 0.06818181818182012,
                "tempo": 120.0
            },
            {
                "start_time": 46.736363636363635,
                "end_time": 46.91590909090909,
                "pitch": 41,
                "velocity": 80,
                "duration": 0.17954545454545467,
                "tempo": 120.0
            },
            {
                "start_time": 46.93181818181818,
                "end_time": 47.027272727272724,
                "pitch": 53,
                "velocity": 80,
                "duration": 0.0954545454545439,
                "tempo": 120.0
            },
            {
                "start_time": 47.04545454545454,
                "end_time": 47.236363636363635,
                "pitch": 41,
                "velocity": 80,
                "duration": 0.19090909090909491,
                "tempo": 120.0
            },
            {
                "start_time": 47.252272727272725,
                "end_time": 47.32272727272727,
                "pitch": 53,
                "velocity": 80,
                "duration": 0.07045454545454533,
                "tempo": 120.0
            },
            {
                "start_time": 47.33863636363636,
                "end_time": 47.51590909090909,
                "pitch": 41,
                "velocity": 80,
                "duration": 0.17727272727272947,
                "tempo": 120.0
            },
            {
                "start_time": 47.53181818181818,
                "end_time": 47.62954545454545,
                "pitch": 53,
                "velocity": 80,
                "duration": 0.09772727272726911,
                "tempo": 120.0
            },
            {
                "start_time": 47.64772727272727,
                "end_time": 47.836363636363636,
                "pitch": 41,
                "velocity": 80,
                "duration": 0.1886363636363626,
                "tempo": 120.0
            },
            {
                "start_time": 47.85454545454545,
                "end_time": 47.92272727272727,
                "pitch": 53,
                "velocity": 80,
                "duration": 0.06818181818182012,
                "tempo": 120.0
            },
            {
                "start_time": 47.94090909090909,
                "end_time": 48.11818181818182,
                "pitch": 41,
                "velocity": 80,
                "duration": 0.17727272727272947,
                "tempo": 120.0
            },
            {
                "start_time": 48.13409090909091,
                "end_time": 48.23181818181818,
                "pitch": 53,
                "velocity": 80,
                "duration": 0.09772727272726911,
                "tempo": 120.0
            },
            {
                "start_time": 48.24772727272727,
                "end_time": 48.43863636363636,
                "pitch": 41,
                "velocity": 80,
                "duration": 0.19090909090909491,
                "tempo": 120.0
            },
            {
                "start_time": 48.45454545454545,
                "end_time": 48.525,
                "pitch": 53,
                "velocity": 80,
                "duration": 0.07045454545454533,
                "tempo": 120.0
            },
            {
                "start_time": 48.54090909090909,
                "end_time": 48.720454545454544,
                "pitch": 41,
                "velocity": 80,
                "duration": 0.17954545454545467,
                "tempo": 120.0
            },
            {
                "start_time": 48.736363636363635,
                "end_time": 48.83181818181818,
                "pitch": 53,
                "velocity": 80,
                "duration": 0.0954545454545439,
                "tempo": 120.0
            },
            {
                "start_time": 48.849999999999994,
                "end_time": 49.04090909090909,
                "pitch": 41,
                "velocity": 80,
                "duration": 0.19090909090909491,
                "tempo": 120.0
            },
            {
                "start_time": 49.05681818181818,
                "end_time": 49.127272727272725,
                "pitch": 53,
                "velocity": 80,
                "duration": 0.07045454545454533,
                "tempo": 120.0
            },
            {
                "start_time": 49.143181818181816,
                "end_time": 49.320454545454545,
                "pitch": 41,
                "velocity": 80,
                "duration": 0.17727272727272947,
                "tempo": 120.0
            },
            {
                "start_time": 49.336363636363636,
                "end_time": 49.434090909090905,
                "pitch": 53,
                "velocity": 80,
                "duration": 0.09772727272726911,
                "tempo": 120.0
            },
            {
                "start_time": 49.45227272727273,
                "end_time": 49.64090909090909,
                "pitch": 41,
                "velocity": 80,
                "duration": 0.1886363636363626,
                "tempo": 120.0
            },
            {
                "start_time": 49.65909090909091,
                "end_time": 49.72727272727273,
                "pitch": 53,
                "velocity": 80,
                "duration": 0.06818181818182012,
                "tempo": 120.0
            },
            {
                "start_time": 49.74545454545454,
                "end_time": 49.92272727272727,
                "pitch": 41,
                "velocity": 80,
                "duration": 0.17727272727272947,
                "tempo": 120.0
            },
            {
                "start_time": 49.93863636363636,
                "end_time": 50.03636363636363,
                "pitch": 53,
                "velocity": 80,
                "duration": 0.09772727272726911,
                "tempo": 120.0
            },
            {
                "start_time": 50.05227272727272,
                "end_time": 50.24318181818182,
                "pitch": 41,
                "velocity": 80,
                "duration": 0.19090909090909491,
                "tempo": 120.0
            },
            {
                "start_time": 50.25909090909091,
                "end_time": 50.32954545454545,
                "pitch": 53,
                "velocity": 80,
                "duration": 0.07045454545454533,
                "tempo": 120.0
            },
            {
                "start_time": 50.345454545454544,
                "end_time": 50.52272727272727,
                "pitch": 41,
                "velocity": 80,
                "duration": 0.17727272727272947,
                "tempo": 120.0
            },
            {
                "start_time": 50.54090909090909,
                "end_time": 50.63636363636363,
                "pitch": 53,
                "velocity": 80,
                "duration": 0.0954545454545439,
                "tempo": 120.0
            },
            {
                "start_time": 50.65454545454545,
                "end_time": 50.845454545454544,
                "pitch": 43,
                "velocity": 80,
                "duration": 0.19090909090909491,
                "tempo": 120.0
            },
            {
                "start_time": 50.861363636363635,
                "end_time": 50.93181818181818,
                "pitch": 55,
                "velocity": 80,
                "duration": 0.07045454545454533,
                "tempo": 120.0
            },
            {
                "start_time": 50.94772727272727,
                "end_time": 51.125,
                "pitch": 43,
                "velocity": 80,
                "duration": 0.17727272727272947,
                "tempo": 120.0
            },
            {
                "start_time": 51.14090909090909,
                "end_time": 51.23863636363636,
                "pitch": 55,
                "velocity": 80,
                "duration": 0.09772727272726911,
                "tempo": 120.0
            },
            {
                "start_time": 51.25681818181818,
                "end_time": 51.445454545454545,
                "pitch": 43,
                "velocity": 80,
                "duration": 0.1886363636363626,
                "tempo": 120.0
            },
            {
                "start_time": 51.46363636363636,
                "end_time": 51.53181818181818,
                "pitch": 55,
                "velocity": 80,
                "duration": 0.06818181818182012,
                "tempo": 120.0
            },
            {
                "start_time": 51.54772727272727,
                "end_time": 51.72727272727273,
                "pitch": 43,
                "velocity": 80,
                "duration": 0.17954545454545467,
                "tempo": 120.0
            },
            {
                "start_time": 51.74318181818182,
                "end_time": 51.840909090909086,
                "pitch": 55,
                "velocity": 80,
                "duration": 0.09772727272726911,
                "tempo": 120.0
            },
            {
                "start_time": 51.85681818181818,
                "end_time": 52.04772727272727,
                "pitch": 43,
                "velocity": 80,
                "duration": 0.19090909090909491,
                "tempo": 120.0
            },
            {
                "start_time": 52.06363636363636,
                "end_time": 52.13409090909091,
                "pitch": 55,
                "velocity": 80,
                "duration": 0.07045454545454533,
                "tempo": 120.0
            },
            {
                "start_time": 52.15,
                "end_time": 52.32727272727273,
                "pitch": 43,
                "velocity": 80,
                "duration": 0.17727272727272947,
                "tempo": 120.0
            },
            {
                "start_time": 52.345454545454544,
                "end_time": 52.44090909090909,
                "pitch": 55,
                "velocity": 80,
                "duration": 0.0954545454545439,
                "tempo": 120.0
            },
            {
                "start_time": 52.459090909090904,
                "end_time": 52.64772727272727,
                "pitch": 43,
                "velocity": 80,
                "duration": 0.1886363636363697,
                "tempo": 120.0
            },
            {
                "start_time": 52.66590909090909,
                "end_time": 52.73409090909091,
                "pitch": 55,
                "velocity": 80,
                "duration": 0.06818181818182012,
                "tempo": 120.0
            },
            {
                "start_time": 52.752272727272725,
                "end_time": 52.929545454545455,
                "pitch": 43,
                "velocity": 80,
                "duration": 0.17727272727272947,
                "tempo": 120.0
            },
            {
                "start_time": 52.945454545454545,
                "end_time": 53.043181818181814,
                "pitch": 55,
                "velocity": 80,
                "duration": 0.09772727272726911,
                "tempo": 120.0
            },
            {
                "start_time": 53.06136363636363,
                "end_time": 53.25,
                "pitch": 43,
                "velocity": 80,
                "duration": 0.1886363636363697,
                "tempo": 120.0
            },
            {
                "start_time": 53.268181818181816,
                "end_time": 53.336363636363636,
                "pitch": 55,
                "velocity": 80,
                "duration": 0.06818181818182012,
                "tempo": 120.0
            },
            {
                "start_time": 53.35227272727273,
                "end_time": 53.53181818181818,
                "pitch": 43,
                "velocity": 80,
                "duration": 0.17954545454545467,
                "tempo": 120.0
            },
            {
                "start_time": 53.54772727272727,
                "end_time": 53.64545454545454,
                "pitch": 55,
                "velocity": 80,
                "duration": 0.09772727272726911,
                "tempo": 120.0
            },
            {
                "start_time": 53.66136363636363,
                "end_time": 53.85227272727273,
                "pitch": 43,
                "velocity": 80,
                "duration": 0.19090909090909491,
                "tempo": 120.0
            },
            {
                "start_time": 53.86818181818182,
                "end_time": 53.93863636363636,
                "pitch": 55,
                "velocity": 80,
                "duration": 0.07045454545454533,
                "tempo": 120.0
            },
            {
                "start_time": 53.95454545454545,
                "end_time": 54.13181818181818,
                "pitch": 43,
                "velocity": 80,
                "duration": 0.17727272727272947,
                "tempo": 120.0
            },
            {
                "start_time": 54.15,
                "end_time": 54.24545454545454,
                "pitch": 55,
                "velocity": 80,
                "duration": 0.0954545454545439,
                "tempo": 120.0
            },
            {
                "start_time": 54.26363636363636,
                "end_time": 54.45227272727273,
                "pitch": 43,
                "velocity": 80,
                "duration": 0.1886363636363697,
                "tempo": 120.0
            },
            {
                "start_time": 54.470454545454544,
                "end_time": 54.538636363636364,
                "pitch": 55,
                "velocity": 80,
                "duration": 0.06818181818182012,
                "tempo": 120.0
            },
            {
                "start_time": 54.55681818181818,
                "end_time": 54.73409090909091,
                "pitch": 43,
                "velocity": 80,
                "duration": 0.17727272727272947,
                "tempo": 120.0
            },
            {
                "start_time": 54.75,
                "end_time": 54.84772727272727,
                "pitch": 55,
                "velocity": 80,
                "duration": 0.09772727272726911,
                "tempo": 120.0
            },
            {
                "start_time": 54.865909090909085,
                "end_time": 55.054545454545455,
                "pitch": 43,
                "velocity": 80,
                "duration": 0.1886363636363697,
                "tempo": 120.0
            },
            {
                "start_time": 55.07272727272727,
                "end_time": 55.14090909090909,
                "pitch": 55,
                "velocity": 80,
                "duration": 0.06818181818182012,
                "tempo": 120.0
            },
            {
                "start_time": 55.15681818181818,
                "end_time": 55.336363636363636,
                "pitch": 43,
                "velocity": 80,
                "duration": 0.17954545454545467,
                "tempo": 120.0
            },
            {
                "start_time": 55.35227272727273,
                "end_time": 55.449999999999996,
                "pitch": 55,
                "velocity": 80,
                "duration": 0.09772727272726911,
                "tempo": 120.0
            },
            {
                "start_time": 55.465909090909086,
                "end_time": 55.65681818181818,
                "pitch": 41,
                "velocity": 80,
                "duration": 0.19090909090909491,
                "tempo": 120.0
            },
            {
                "start_time": 55.67272727272727,
                "end_time": 55.74318181818182,
                "pitch": 53,
                "velocity": 80,
                "duration": 0.07045454545454533,
                "tempo": 120.0
            },
            {
                "start_time": 55.75909090909091,
                "end_time": 55.93636363636363,
                "pitch": 41,
                "velocity": 80,
                "duration": 0.17727272727272236,
                "tempo": 120.0
            },
            {
                "start_time": 55.95227272727273,
                "end_time": 56.05,
                "pitch": 53,
                "velocity": 80,
                "duration": 0.09772727272726911,
                "tempo": 120.0
            },
            {
                "start_time": 56.06818181818181,
                "end_time": 56.256818181818176,
                "pitch": 41,
                "velocity": 80,
                "duration": 0.1886363636363626,
                "tempo": 120.0
            },
            {
                "start_time": 56.275,
                "end_time": 56.34318181818182,
                "pitch": 53,
                "velocity": 80,
                "duration": 0.06818181818182012,
                "tempo": 120.0
            },
            {
                "start_time": 56.361363636363635,
                "end_time": 56.538636363636364,
                "pitch": 41,
                "velocity": 80,
                "duration": 0.17727272727272947,
                "tempo": 120.0
            },
            {
                "start_time": 56.554545454545455,
                "end_time": 56.652272727272724,
                "pitch": 53,
                "velocity": 80,
                "duration": 0.09772727272726911,
                "tempo": 120.0
            },
            {
                "start_time": 56.668181818181814,
                "end_time": 56.85909090909091,
                "pitch": 41,
                "velocity": 80,
                "duration": 0.19090909090909491,
                "tempo": 120.0
            },
            {
                "start_time": 56.877272727272725,
                "end_time": 56.945454545454545,
                "pitch": 53,
                "velocity": 80,
                "duration": 0.06818181818182012,
                "tempo": 120.0
            },
            {
                "start_time": 56.961363636363636,
                "end_time": 57.14090909090909,
                "pitch": 41,
                "velocity": 80,
                "duration": 0.17954545454545467,
                "tempo": 120.0
            },
            {
                "start_time": 57.15681818181818,
                "end_time": 57.25454545454545,
                "pitch": 53,
                "velocity": 80,
                "duration": 0.09772727272726911,
                "tempo": 120.0
            },
            {
                "start_time": 57.27045454545454,
                "end_time": 57.461363636363636,
                "pitch": 41,
                "velocity": 80,
                "duration": 0.19090909090909491,
                "tempo": 120.0
            },
            {
                "start_time": 57.47727272727273,
                "end_time": 57.54772727272727,
                "pitch": 53,
                "velocity": 80,
                "duration": 0.07045454545454533,
                "tempo": 120.0
            },
            {
                "start_time": 57.56363636363636,
                "end_time": 57.740909090909085,
                "pitch": 41,
                "velocity": 80,
                "duration": 0.17727272727272236,
                "tempo": 120.0
            },
            {
                "start_time": 57.756818181818176,
                "end_time": 57.85454545454545,
                "pitch": 53,
                "velocity": 80,
                "duration": 0.09772727272727622,
                "tempo": 120.0
            },
            {
                "start_time": 57.87272727272727,
                "end_time": 58.06136363636363,
                "pitch": 41,
                "velocity": 80,
                "duration": 0.1886363636363626,
                "tempo": 120.0
            },
            {
                "start_time": 58.07954545454545,
                "end_time": 58.14772727272727,
                "pitch": 53,
                "velocity": 80,
                "duration": 0.06818181818182012,
                "tempo": 120.0
            },
            {
                "start_time": 58.16590909090909,
                "end_time": 58.34318181818182,
                "pitch": 41,
                "velocity": 80,
                "duration": 0.17727272727272947,
                "tempo": 120.0
            },
            {
                "start_time": 58.35909090909091,
                "end_time": 58.45681818181818,
                "pitch": 53,
                "velocity": 80,
                "duration": 0.09772727272726911,
                "tempo": 120.0
            },
            {
                "start_time": 58.47272727272727,
                "end_time": 58.663636363636364,
                "pitch": 41,
                "velocity": 80,
                "duration": 0.19090909090909491,
                "tempo": 120.0
            },
            {
                "start_time": 58.68181818181818,
                "end_time": 58.75,
                "pitch": 53,
                "velocity": 80,
                "duration": 0.06818181818182012,
                "tempo": 120.0
            },
            {
                "start_time": 58.76590909090909,
                "end_time": 58.945454545454545,
                "pitch": 41,
                "velocity": 80,
                "duration": 0.17954545454545467,
                "tempo": 120.0
            },
            {
                "start_time": 58.961363636363636,
                "end_time": 59.05681818181818,
                "pitch": 53,
                "velocity": 80,
                "duration": 0.0954545454545439,
                "tempo": 120.0
            },
            {
                "start_time": 59.074999999999996,
                "end_time": 59.26590909090909,
                "pitch": 41,
                "velocity": 80,
                "duration": 0.19090909090909491,
                "tempo": 120.0
            },
            {
                "start_time": 59.28181818181818,
                "end_time": 59.35227272727273,
                "pitch": 53,
                "velocity": 80,
                "duration": 0.07045454545454533,
                "tempo": 120.0
            },
            {
                "start_time": 59.36818181818182,
                "end_time": 59.54545454545454,
                "pitch": 41,
                "velocity": 80,
                "duration": 0.17727272727272236,
                "tempo": 120.0
            },
            {
                "start_time": 59.56136363636363,
                "end_time": 59.65909090909091,
                "pitch": 53,
                "velocity": 80,
                "duration": 0.09772727272727622,
                "tempo": 120.0
            },
            {
                "start_time": 59.67727272727272,
                "end_time": 59.865909090909085,
                "pitch": 41,
                "velocity": 80,
                "duration": 0.1886363636363626,
                "tempo": 120.0
            },
            {
                "start_time": 59.88409090909091,
                "end_time": 59.95227272727272,
                "pitch": 53,
                "velocity": 80,
                "duration": 0.06818181818181301,
                "tempo": 120.0
            },
            {
                "start_time": 59.970454545454544,
                "end_time": 60.147727272727266,
                "pitch": 41,
                "velocity": 80,
                "duration": 0.17727272727272236,
                "tempo": 120.0
            },
            {
                "start_time": 60.163636363636364,
                "end_time": 60.26136363636363,
                "pitch": 53,
                "velocity": 80,
                "duration": 0.09772727272726911,
                "tempo": 120.0
            },
            {
                "start_time": 60.277272727272724,
                "end_time": 60.46818181818182,
                "pitch": 43,
                "velocity": 80,
                "duration": 0.19090909090909491,
                "tempo": 120.0
            },
            {
                "start_time": 60.486363636363635,
                "end_time": 60.554545454545455,
                "pitch": 55,
                "velocity": 80,
                "duration": 0.06818181818182012,
                "tempo": 120.0
            },
            {
                "start_time": 60.570454545454545,
                "end_time": 60.75,
                "pitch": 43,
                "velocity": 80,
                "duration": 0.17954545454545467,
                "tempo": 120.0
            },
            {
                "start_time": 60.76590909090909,
                "end_time": 60.861363636363635,
                "pitch": 55,
                "velocity": 80,
                "duration": 0.0954545454545439,
                "tempo": 120.0
            },
            {
                "start_time": 60.87954545454545,
                "end_time": 61.070454545454545,
                "pitch": 43,
                "velocity": 80,
                "duration": 0.19090909090909491,
                "tempo": 120.0
            },
            {
                "start_time": 61.086363636363636,
                "end_time": 61.15681818181818,
                "pitch": 55,
                "velocity": 80,
                "duration": 0.07045454545454533,
                "tempo": 120.0
            },
            {
                "start_time": 61.17272727272727,
                "end_time": 61.349999999999994,
                "pitch": 43,
                "velocity": 80,
                "duration": 0.17727272727272236,
                "tempo": 120.0
            },
            {
                "start_time": 61.365909090909085,
                "end_time": 61.46363636363636,
                "pitch": 55,
                "velocity": 80,
                "duration": 0.09772727272727622,
                "tempo": 120.0
            },
            {
                "start_time": 61.48181818181818,
                "end_time": 61.67045454545454,
                "pitch": 43,
                "velocity": 80,
                "duration": 0.1886363636363626,
                "tempo": 120.0
            },
            {
                "start_time": 61.68863636363636,
                "end_time": 61.756818181818176,
                "pitch": 55,
                "velocity": 80,
                "duration": 0.06818181818181301,
                "tempo": 120.0
            },
            {
                "start_time": 61.775,
                "end_time": 61.95227272727272,
                "pitch": 43,
                "velocity": 80,
                "duration": 0.17727272727272236,
                "tempo": 120.0
            },
            {
                "start_time": 61.96818181818182,
                "end_time": 62.06590909090909,
                "pitch": 55,
                "velocity": 80,
                "duration": 0.09772727272726911,
                "tempo": 120.0
            },
            {
                "start_time": 62.08181818181818,
                "end_time": 62.272727272727266,
                "pitch": 43,
                "velocity": 80,
                "duration": 0.1909090909090878,
                "tempo": 120.0
            },
            {
                "start_time": 62.29090909090909,
                "end_time": 62.35909090909091,
                "pitch": 55,
                "velocity": 80,
                "duration": 0.06818181818182012,
                "tempo": 120.0
            },
            {
                "start_time": 62.375,
                "end_time": 62.554545454545455,
                "pitch": 43,
                "velocity": 80,
                "duration": 0.17954545454545467,
                "tempo": 120.0
            },
            {
                "start_time": 62.570454545454545,
                "end_time": 62.66590909090909,
                "pitch": 55,
                "velocity": 80,
                "duration": 0.0954545454545439,
                "tempo": 120.0
            },
            {
                "start_time": 62.684090909090905,
                "end_time": 62.875,
                "pitch": 43,
                "velocity": 80,
                "duration": 0.19090909090909491,
                "tempo": 120.0
            },
            {
                "start_time": 62.89090909090909,
                "end_time": 62.961363636363636,
                "pitch": 55,
                "velocity": 80,
                "duration": 0.07045454545454533,
                "tempo": 120.0
            },
            {
                "start_time": 62.97727272727273,
                "end_time": 63.15454545454545,
                "pitch": 43,
                "velocity": 80,
                "duration": 0.17727272727272236,
                "tempo": 120.0
            },
            {
                "start_time": 63.17045454545454,
                "end_time": 63.268181818181816,
                "pitch": 55,
                "velocity": 80,
                "duration": 0.09772727272727622,
                "tempo": 120.0
            },
            {
                "start_time": 63.28636363636363,
                "end_time": 63.474999999999994,
                "pitch": 43,
                "velocity": 80,
                "duration": 0.1886363636363626,
                "tempo": 120.0
            },
            {
                "start_time": 63.49318181818182,
                "end_time": 63.56136363636363,
                "pitch": 55,
                "velocity": 80,
                "duration": 0.06818181818181301,
                "tempo": 120.0
            },
            {
                "start_time": 63.57954545454545,
                "end_time": 63.756818181818176,
                "pitch": 43,
                "velocity": 80,
                "duration": 0.17727272727272236,
                "tempo": 120.0
            },
            {
                "start_time": 63.772727272727266,
                "end_time": 63.87045454545454,
                "pitch": 55,
                "velocity": 80,
                "duration": 0.09772727272727622,
                "tempo": 120.0
            },
            {
                "start_time": 63.88636363636363,
                "end_time": 64.07727272727273,
                "pitch": 43,
                "velocity": 80,
                "duration": 0.19090909090909491,
                "tempo": 120.0
            },
            {
                "start_time": 64.09545454545454,
                "end_time": 64.16363636363636,
                "pitch": 55,
                "velocity": 80,
                "duration": 0.06818181818181301,
                "tempo": 120.0
            },
            {
                "start_time": 64.17954545454545,
                "end_time": 64.35909090909091,
                "pitch": 43,
                "velocity": 80,
                "duration": 0.17954545454546178,
                "tempo": 120.0
            },
            {
                "start_time": 64.375,
                "end_time": 64.47045454545454,
                "pitch": 55,
                "velocity": 80,
                "duration": 0.0954545454545439,
                "tempo": 120.0
            },
            {
                "start_time": 64.48863636363636,
                "end_time": 64.67954545454545,
                "pitch": 43,
                "velocity": 80,
                "duration": 0.1909090909090878,
                "tempo": 120.0
            },
            {
                "start_time": 64.69545454545454,
                "end_time": 64.76590909090909,
                "pitch": 55,
                "velocity": 80,
                "duration": 0.07045454545455243,
                "tempo": 120.0
            },
            {
                "start_time": 64.78181818181818,
                "end_time": 64.9590909090909,
                "pitch": 43,
                "velocity": 80,
                "duration": 0.17727272727272236,
                "tempo": 120.0
            },
            {
                "start_time": 64.975,
                "end_time": 65.07272727272726,
                "pitch": 55,
                "velocity": 80,
                "duration": 0.09772727272726911,
                "tempo": 120.0
            },
            {
                "start_time": 65.0909090909091,
                "end_time": 65.27954545454546,
                "pitch": 41,
                "velocity": 80,
                "duration": 0.1886363636363626,
                "tempo": 120.0
            },
            {
                "start_time": 65.29772727272727,
                "end_time": 65.36590909090908,
                "pitch": 53,
                "velocity": 80,
                "duration": 0.06818181818181301,
                "tempo": 120.0
            },
            {
                "start_time": 65.3840909090909,
                "end_time": 65.56136363636364,
                "pitch": 41,
                "velocity": 80,
                "duration": 0.17727272727273657,
                "tempo": 120.0
            },
            {
                "start_time": 65.57727272727273,
                "end_time": 65.675,
                "pitch": 53,
                "velocity": 80,
                "duration": 0.09772727272726911,
                "tempo": 120.0
            },
            {
                "start_time": 65.69090909090909,
                "end_time": 65.88181818181818,
                "pitch": 41,
                "velocity": 80,
                "duration": 0.1909090909090878,
                "tempo": 120.0
            },
            {
                "start_time": 65.89772727272727,
                "end_time": 65.96818181818182,
                "pitch": 53,
                "velocity": 80,
                "duration": 0.07045454545455243,
                "tempo": 120.0
            },
            {
                "start_time": 65.98409090909091,
                "end_time": 66.16363636363636,
                "pitch": 41,
                "velocity": 80,
                "duration": 0.17954545454544757,
                "tempo": 120.0
            },
            {
                "start_time": 66.17954545454545,
                "end_time": 66.27499999999999,
                "pitch": 53,
                "velocity": 80,
                "duration": 0.0954545454545439,
                "tempo": 120.0
            },
            {
                "start_time": 66.29318181818182,
                "end_time": 66.48409090909091,
                "pitch": 41,
                "velocity": 80,
                "duration": 0.1909090909090878,
                "tempo": 120.0
            },
            {
                "start_time": 66.5,
                "end_time": 66.57045454545454,
                "pitch": 53,
                "velocity": 80,
                "duration": 0.07045454545453822,
                "tempo": 120.0
            },
            {
                "start_time": 66.58636363636363,
                "end_time": 66.76363636363637,
                "pitch": 41,
                "velocity": 80,
                "duration": 0.17727272727273657,
                "tempo": 120.0
            },
            {
                "start_time": 66.77954545454546,
                "end_time": 66.87727272727273,
                "pitch": 53,
                "velocity": 80,
                "duration": 0.09772727272726911,
                "tempo": 120.0
            },
            {
                "start_time": 66.89545454545454,
                "end_time": 67.0840909090909,
                "pitch": 41,
                "velocity": 80,
                "duration": 0.1886363636363626,
                "tempo": 120.0
            },
            {
                "start_time": 67.10227272727272,
                "end_time": 67.17045454545455,
                "pitch": 53,
                "velocity": 80,
                "duration": 0.06818181818182723,
                "tempo": 120.0
            },
            {
                "start_time": 67.18863636363636,
                "end_time": 67.36590909090908,
                "pitch": 41,
                "velocity": 80,
                "duration": 0.17727272727272236,
                "tempo": 120.0
            },
            {
                "start_time": 67.38181818181818,
                "end_time": 67.47954545454544,
                "pitch": 53,
                "velocity": 80,
                "duration": 0.09772727272726911,
                "tempo": 120.0
            },
            {
                "start_time": 67.49545454545454,
                "end_time": 67.68636363636364,
                "pitch": 41,
                "velocity": 80,
                "duration": 0.19090909090910202,
                "tempo": 120.0
            },
            {
                "start_time": 67.70227272727273,
                "end_time": 67.77272727272727,
                "pitch": 53,
                "velocity": 80,
                "duration": 0.07045454545453822,
                "tempo": 120.0
            },
            {
                "start_time": 67.78863636363636,
                "end_time": 67.9659090909091,
                "pitch": 41,
                "velocity": 80,
                "duration": 0.17727272727273657,
                "tempo": 120.0
            },
            {
                "start_time": 67.98409090909091,
                "end_time": 68.07954545454545,
                "pitch": 53,
                "velocity": 80,
                "duration": 0.0954545454545439,
                "tempo": 120.0
            },
            {
                "start_time": 68.09772727272727,
                "end_time": 68.28863636363636,
                "pitch": 41,
                "velocity": 80,
                "duration": 0.1909090909090878,
                "tempo": 120.0
            },
            {
                "start_time": 68.30454545454545,
                "end_time": 68.375,
                "pitch": 53,
                "velocity": 80,
                "duration": 0.07045454545455243,
                "tempo": 120.0
            },
            {
                "start_time": 68.39090909090909,
                "end_time": 68.56818181818181,
                "pitch": 41,
                "velocity": 80,
                "duration": 0.17727272727272236,
                "tempo": 120.0
            },
            {
                "start_time": 68.5840909090909,
                "end_time": 68.68181818181817,
                "pitch": 53,
                "velocity": 80,
                "duration": 0.09772727272726911,
                "tempo": 120.0
            },
            {
                "start_time": 68.7,
                "end_time": 68.88863636363637,
                "pitch": 41,
                "velocity": 80,
                "duration": 0.1886363636363626,
                "tempo": 120.0
            },
            {
                "start_time": 68.90681818181818,
                "end_time": 68.975,
                "pitch": 53,
                "velocity": 80,
                "duration": 0.06818181818181301,
                "tempo": 120.0
            },
            {
                "start_time": 68.99090909090908,
                "end_time": 69.17045454545455,
                "pitch": 41,
                "velocity": 80,
                "duration": 0.17954545454546178,
                "tempo": 120.0
            },
            {
                "start_time": 69.18636363636364,
                "end_time": 69.2840909090909,
                "pitch": 53,
                "velocity": 80,
                "duration": 0.09772727272726911,
                "tempo": 120.0
            },
            {
                "start_time": 69.3,
                "end_time": 69.49090909090908,
                "pitch": 41,
                "velocity": 80,
                "duration": 0.1909090909090878,
                "tempo": 120.0
            },
            {
                "start_time": 69.50681818181818,
                "end_time": 69.57727272727273,
                "pitch": 53,
                "velocity": 80,
                "duration": 0.07045454545455243,
                "tempo": 120.0
            },
            {
                "start_time": 69.59318181818182,
                "end_time": 69.77045454545454,
                "pitch": 41,
                "velocity": 80,
                "duration": 0.17727272727272236,
                "tempo": 120.0
            },
            {
                "start_time": 69.78863636363636,
                "end_time": 69.8840909090909,
                "pitch": 53,
                "velocity": 80,
                "duration": 0.0954545454545439,
                "tempo": 120.0
            },
            {
                "start_time": 69.90227272727273,
                "end_time": 70.0909090909091,
                "pitch": 43,
                "velocity": 80,
                "duration": 0.1886363636363626,
                "tempo": 120.0
            },
            {
                "start_time": 70.10909090909091,
                "end_time": 70.17727272727272,
                "pitch": 55,
                "velocity": 80,
                "duration": 0.06818181818181301,
                "tempo": 120.0
            },
            {
                "start_time": 70.19545454545454,
                "end_time": 70.37272727272727,
                "pitch": 43,
                "velocity": 80,
                "duration": 0.17727272727273657,
                "tempo": 120.0
            },
            {
                "start_time": 70.38863636363637,
                "end_time": 70.48636363636363,
                "pitch": 55,
                "velocity": 80,
                "duration": 0.09772727272726911,
                "tempo": 120.0
            },
            {
                "start_time": 70.50454545454545,
                "end_time": 70.69318181818181,
                "pitch": 43,
                "velocity": 80,
                "duration": 0.1886363636363626,
                "tempo": 120.0
            },
            {
                "start_time": 70.71136363636363,
                "end_time": 70.77954545454546,
                "pitch": 55,
                "velocity": 80,
                "duration": 0.06818181818182723,
                "tempo": 120.0
            },
            {
                "start_time": 70.79545454545455,
                "end_time": 70.975,
                "pitch": 43,
                "velocity": 80,
                "duration": 0.17954545454544757,
                "tempo": 120.0
            },
            {
                "start_time": 70.99090909090908,
                "end_time": 71.08863636363635,
                "pitch": 55,
                "velocity": 80,
                "duration": 0.09772727272726911,
                "tempo": 120.0
            },
            {
                "start_time": 71.10454545454544,
                "end_time": 71.29545454545455,
                "pitch": 43,
                "velocity": 80,
                "duration": 0.19090909090910202,
                "tempo": 120.0
            },
            {
                "start_time": 71.31136363636364,
                "end_time": 71.38181818181818,
                "pitch": 55,
                "velocity": 80,
                "duration": 0.07045454545453822,
                "tempo": 120.0
            },
            {
                "start_time": 71.39772727272727,
                "end_time": 71.575,
                "pitch": 43,
                "velocity": 80,
                "duration": 0.17727272727273657,
                "tempo": 120.0
            },
            {
                "start_time": 71.59318181818182,
                "end_time": 71.68863636363636,
                "pitch": 55,
                "velocity": 80,
                "duration": 0.0954545454545439,
                "tempo": 120.0
            },
            {
                "start_time": 71.70681818181818,
                "end_time": 71.89545454545454,
                "pitch": 43,
                "velocity": 80,
                "duration": 0.1886363636363626,
                "tempo": 120.0
            },
            {
                "start_time": 71.91363636363636,
                "end_time": 71.98181818181818,
                "pitch": 55,
                "velocity": 80,
                "duration": 0.06818181818182723,
                "tempo": 120.0
            },
            {
                "start_time": 72.0,
                "end_time": 72.17727272727272,
                "pitch": 43,
                "velocity": 80,
                "duration": 0.17727272727272236,
                "tempo": 120.0
            },
            {
                "start_time": 72.19318181818181,
                "end_time": 72.29090909090908,
                "pitch": 55,
                "velocity": 80,
                "duration": 0.09772727272726911,
                "tempo": 120.0
            },
            {
                "start_time": 72.30909090909091,
                "end_time": 72.49772727272727,
                "pitch": 43,
                "velocity": 80,
                "duration": 0.1886363636363626,
                "tempo": 120.0
            },
            {
                "start_time": 72.51590909090909,
                "end_time": 72.5840909090909,
                "pitch": 55,
                "velocity": 80,
                "duration": 0.06818181818181301,
                "tempo": 120.0
            },
            {
                "start_time": 72.6,
                "end_time": 72.77954545454546,
                "pitch": 43,
                "velocity": 80,
                "duration": 0.17954545454546178,
                "tempo": 120.0
            },
            {
                "start_time": 72.79545454545455,
                "end_time": 72.89318181818182,
                "pitch": 55,
                "velocity": 80,
                "duration": 0.09772727272726911,
                "tempo": 120.0
            },
            {
                "start_time": 72.9090909090909,
                "end_time": 73.1,
                "pitch": 43,
                "velocity": 80,
                "duration": 0.1909090909090878,
                "tempo": 120.0
            },
            {
                "start_time": 73.11590909090908,
                "end_time": 73.18636363636364,
                "pitch": 55,
                "velocity": 80,
                "duration": 0.07045454545455243,
                "tempo": 120.0
            },
            {
                "start_time": 73.20227272727273,
                "end_time": 73.37954545454545,
                "pitch": 43,
                "velocity": 80,
                "duration": 0.17727272727272236,
                "tempo": 120.0
            },
            {
                "start_time": 73.39772727272727,
                "end_time": 73.49318181818181,
                "pitch": 55,
                "velocity": 80,
                "duration": 0.0954545454545439,
                "tempo": 120.0
            },
            {
                "start_time": 73.51136363636363,
                "end_time": 73.7,
                "pitch": 43,
                "velocity": 80,
                "duration": 0.1886363636363768,
                "tempo": 120.0
            },
            {
                "start_time": 73.71818181818182,
                "end_time": 73.78636363636363,
                "pitch": 55,
                "velocity": 80,
                "duration": 0.06818181818181301,
                "tempo": 120.0
            },
            {
                "start_time": 73.80454545454545,
                "end_time": 73.98181818181818,
                "pitch": 43,
                "velocity": 80,
                "duration": 0.17727272727273657,
                "tempo": 120.0
            },
            {
                "start_time": 73.99772727272727,
                "end_time": 74.09545454545454,
                "pitch": 55,
                "velocity": 80,
                "duration": 0.09772727272726911,
                "tempo": 120.0
            },
            {
                "start_time": 74.11136363636363,
                "end_time": 74.30227272727272,
                "pitch": 43,
                "velocity": 80,
                "duration": 0.1909090909090878,
                "tempo": 120.0
            },
            {
                "start_time": 74.32045454545454,
                "end_time": 74.38863636363637,
                "pitch": 55,
                "velocity": 80,
                "duration": 0.06818181818182723,
                "tempo": 120.0
            },
            {
                "start_time": 74.40454545454546,
                "end_time": 74.5840909090909,
                "pitch": 43,
                "velocity": 80,
                "duration": 0.17954545454544757,
                "tempo": 120.0
            },
            {
                "start_time": 74.6,
                "end_time": 74.69772727272726,
                "pitch": 55,
                "velocity": 80,
                "duration": 0.09772727272726911,
                "tempo": 120.0
            },
            {
                "start_time": 74.71363636363635,
                "end_time": 74.89772727272727,
                "pitch": 41,
                "velocity": 80,
                "duration": 0.1840909090909122,
                "tempo": 120.0
            },
            {
                "start_time": 74.91363636363636,
                "end_time": 74.97954545454544,
                "pitch": 53,
                "velocity": 80,
                "duration": 0.06590909090908781,
                "tempo": 120.0
            },
            {
                "start_time": 74.99772727272727,
                "end_time": 75.17954545454545,
                "pitch": 41,
                "velocity": 80,
                "duration": 0.18181818181817277,
                "tempo": 120.0
            },
            {
                "start_time": 75.19772727272726,
                "end_time": 75.29772727272727,
                "pitch": 53,
                "velocity": 80,
                "duration": 0.10000000000000853,
                "tempo": 120.0
            },
            {
                "start_time": 75.31363636363636,
                "end_time": 75.50454545454545,
                "pitch": 41,
                "velocity": 80,
                "duration": 0.1909090909090878,
                "tempo": 120.0
            },
            {
                "start_time": 75.52045454545454,
                "end_time": 75.5909090909091,
                "pitch": 53,
                "velocity": 80,
                "duration": 0.07045454545455243,
                "tempo": 120.0
            },
            {
                "start_time": 75.60681818181818,
                "end_time": 75.7840909090909,
                "pitch": 41,
                "velocity": 80,
                "duration": 0.17727272727272236,
                "tempo": 120.0
            },
            {
                "start_time": 75.80227272727272,
                "end_time": 75.89772727272727,
                "pitch": 53,
                "velocity": 80,
                "duration": 0.0954545454545439,
                "tempo": 120.0
            },
            {
                "start_time": 75.91590909090908,
                "end_time": 76.10681818181818,
                "pitch": 41,
                "velocity": 80,
                "duration": 0.19090909090910202,
                "tempo": 120.0
            },
            {
                "start_time": 76.12272727272727,
                "end_time": 76.19318181818181,
                "pitch": 53,
                "velocity": 80,
                "duration": 0.07045454545453822,
                "tempo": 120.0
            },
            {
                "start_time": 76.2090909090909,
                "end_time": 76.38636363636363,
                "pitch": 41,
                "velocity": 80,
                "duration": 0.17727272727272236,
                "tempo": 120.0
            },
            {
                "start_time": 76.40227272727272,
                "end_time": 76.5,
                "pitch": 53,
                "velocity": 80,
                "duration": 0.09772727272728332,
                "tempo": 120.0
            },
            {
                "start_time": 76.51818181818182,
                "end_time": 76.70681818181818,
                "pitch": 41,
                "velocity": 80,
                "duration": 0.1886363636363626,
                "tempo": 120.0
            },
            {
                "start_time": 76.725,
                "end_time": 76.79318181818182,
                "pitch": 53,
                "velocity": 80,
                "duration": 0.06818181818182723,
                "tempo": 120.0
            },
            {
                "start_time": 76.80909090909091,
                "end_time": 76.98863636363636,
                "pitch": 41,
                "velocity": 80,
                "duration": 0.17954545454544757,
                "tempo": 120.0
            },
            {
                "start_time": 77.00454545454545,
                "end_time": 77.10227272727272,
                "pitch": 53,
                "velocity": 80,
                "duration": 0.09772727272726911,
                "tempo": 120.0
            },
            {
                "start_time": 77.11818181818181,
                "end_time": 77.30909090909091,
                "pitch": 41,
                "velocity": 80,
                "duration": 0.19090909090910202,
                "tempo": 120.0
            },
            {
                "start_time": 77.325,
                "end_time": 77.39545454545454,
                "pitch": 53,
                "velocity": 80,
                "duration": 0.07045454545453822,
                "tempo": 120.0
            },
            {
                "start_time": 77.41136363636363,
                "end_time": 77.59545454545454,
                "pitch": 41,
                "velocity": 80,
                "duration": 0.1840909090909122,
                "tempo": 120.0
            },
            {
                "start_time": 77.61136363636363,
                "end_time": 77.71136363636363,
                "pitch": 53,
                "velocity": 80,
                "duration": 0.09999999999999432,
                "tempo": 120.0
            },
            {
                "start_time": 77.72954545454544,
                "end_time": 77.91363636363636,
                "pitch": 41,
                "velocity": 80,
                "duration": 0.1840909090909122,
                "tempo": 120.0
            },
            {
                "start_time": 77.92954545454545,
                "end_time": 77.99772727272727,
                "pitch": 53,
                "velocity": 80,
                "duration": 0.06818181818182723,
                "tempo": 120.0
            },
            {
                "start_time": 78.01363636363637,
                "end_time": 78.19090909090909,
                "pitch": 41,
                "velocity": 80,
                "duration": 0.17727272727272236,
                "tempo": 120.0
            },
            {
                "start_time": 78.20681818181818,
                "end_time": 78.30454545454545,
                "pitch": 53,
                "velocity": 80,
                "duration": 0.09772727272726911,
                "tempo": 120.0
            },
            {
                "start_time": 78.32272727272726,
                "end_time": 78.51136363636363,
                "pitch": 41,
                "velocity": 80,
                "duration": 0.1886363636363626,
                "tempo": 120.0
            },
            {
                "start_time": 78.52954545454546,
                "end_time": 78.59772727272727,
                "pitch": 53,
                "velocity": 80,
                "duration": 0.06818181818181301,
                "tempo": 120.0
            },
            {
                "start_time": 78.61590909090908,
                "end_time": 78.79318181818181,
                "pitch": 41,
                "velocity": 80,
                "duration": 0.17727272727272236,
                "tempo": 120.0
            },
            {
                "start_time": 78.80909090909091,
                "end_time": 78.90681818181818,
                "pitch": 53,
                "velocity": 80,
                "duration": 0.09772727272726911,
                "tempo": 120.0
            },
            {
                "start_time": 78.92272727272727,
                "end_time": 79.11363636363636,
                "pitch": 41,
                "velocity": 80,
                "duration": 0.1909090909090878,
                "tempo": 120.0
            },
            {
                "start_time": 79.13181818181818,
                "end_time": 79.2,
                "pitch": 53,
                "velocity": 80,
                "duration": 0.06818181818182723,
                "tempo": 120.0
            },
            {
                "start_time": 79.2159090909091,
                "end_time": 79.39545454545454,
                "pitch": 41,
                "velocity": 80,
                "duration": 0.17954545454544757,
                "tempo": 120.0
            },
            {
                "start_time": 79.41136363636363,
                "end_time": 79.50681818181818,
                "pitch": 53,
                "velocity": 80,
                "duration": 0.0954545454545439,
                "tempo": 120.0
            },
            {
                "start_time": 79.52499999999999,
                "end_time": 79.80227272727272,
                "pitch": 43,
                "velocity": 80,
                "duration": 0.2772727272727309,
                "tempo": 120.0
            },
            {
                "start_time": 80.01136363636363,
                "end_time": 80.10909090909091,
                "pitch": 43,
                "velocity": 80,
                "duration": 0.09772727272728332,
                "tempo": 120.0
            },
            {
                "start_time": 80.42045454545455,
                "end_time": 80.71136363636363,
                "pitch": 43,
                "velocity": 80,
                "duration": 0.2909090909090821,
                "tempo": 120.0
            }
        ]
    }
}