{
    "track_id": "Summer Games (FM) - 07 - Gymnastics",
    "mood": "happy",
    "instruments": {
        "Vibraphone": [
            {
                "start_time": 19.60681818181818,
                "end_time": 19.772727272727273,
                "pitch": 63,
                "velocity": 40,
                "duration": 0.16590909090909278,
                "tempo": 120.0
            },
            {
                "start_time": 19.79090909090909,
                "end_time": 20.39090909090909,
                "pitch": 62,
                "velocity": 40,
                "duration": 0.6000000000000014,
                "tempo": 120.0
            },
            {
                "start_time": 20.40681818181818,
                "end_time": 20.575,
                "pitch": 63,
                "velocity": 40,
                "duration": 0.168181818181818,
                "tempo": 120.0
            },
            {
                "start_time": 20.59090909090909,
                "end_time": 20.845454545454544,
                "pitch": 62,
                "velocity": 40,
                "duration": 0.25454545454545396,
                "tempo": 120.0
            },
            {
                "start_time": 20.861363636363635,
                "end_time": 21.11590909090909,
                "pitch": 60,
                "velocity": 40,
                "duration": 0.25454545454545396,
                "tempo": 120.0
            },
            {
                "start_time": 21.134090909090908,
                "end_time": 21.202272727272724,
                "pitch": 60,
                "velocity": 40,
                "duration": 0.06818181818181657,
                "tempo": 120.0
            },
            {
                "start_time": 21.21818181818182,
                "end_time": 21.452272727272724,
                "pitch": 62,
                "velocity": 40,
                "duration": 0.2340909090909058,
                "tempo": 120.0
            },
            {
                "start_time": 21.752272727272725,
                "end_time": 21.920454545454543,
                "pitch": 63,
                "velocity": 40,
                "duration": 0.168181818181818,
                "tempo": 120.0
            },
            {
                "start_time": 21.936363636363634,
                "end_time": 22.188636363636363,
                "pitch": 62,
                "velocity": 40,
                "duration": 0.25227272727272876,
                "tempo": 120.0
            },
            {
                "start_time": 22.204545454545453,
                "end_time": 22.543181818181818,
                "pitch": 63,
                "velocity": 40,
                "duration": 0.33863636363636473,
                "tempo": 120.0
            },
            {
                "start_time": 22.55909090909091,
                "end_time": 22.99772727272727,
                "pitch": 60,
                "velocity": 40,
                "duration": 0.4386363636363626,
                "tempo": 120.0
            },
            {
                "start_time": 23.01590909090909,
                "end_time": 23.5,
                "pitch": 62,
                "velocity": 40,
                "duration": 0.48409090909090935,
                "tempo": 120.0
            },
            {
                "start_time": 23.9,
                "end_time": 24.068181818181817,
                "pitch": 63,
                "velocity": 40,
                "duration": 0.168181818181818,
                "tempo": 120.0
            },
            {
                "start_time": 24.084090909090907,
                "end_time": 24.69090909090909,
                "pitch": 62,
                "velocity": 40,
                "duration": 0.6068181818181841,
                "tempo": 120.0
            },
            {
                "start_time": 24.706818181818182,
                "end_time": 24.877272727272725,
                "pitch": 63,
                "velocity": 40,
                "duration": 0.1704545454545432,
                "tempo": 120.0
            },
            {
                "start_time": 24.893181818181816,
                "end_time": 25.145454545454545,
                "pitch": 62,
                "velocity": 40,
                "duration": 0.25227272727272876,
                "tempo": 120.0
            },
            {
                "start_time": 25.161363636363635,
                "end_time": 25.413636363636364,
                "pitch": 60,
                "velocity": 40,
                "duration": 0.25227272727272876,
                "tempo": 120.0
            },
            {
                "start_time": 25.429545454545455,
                "end_time": 25.495454545454542,
                "pitch": 60,
                "velocity": 40,
                "duration": 0.06590909090908781,
                "tempo": 120.0
            },
            {
                "start_time": 25.513636363636362,
                "end_time": 25.75,
                "pitch": 62,
                "velocity": 40,
                "duration": 0.2363636363636381,
                "tempo": 120.0
            },
            {
                "start_time": 26.05681818181818,
                "end_time": 26.224999999999998,
                "pitch": 63,
                "velocity": 40,
                "duration": 0.168181818181818,
                "tempo": 120.0
            },
            {
                "start_time": 26.24090909090909,
                "end_time": 26.49090909090909,
                "pitch": 62,
                "velocity": 40,
                "duration": 0.25,
                "tempo": 120.0
            },
            {
                "start_time": 26.509090909090908,
                "end_time": 26.84090909090909,
                "pitch": 63,
                "velocity": 40,
                "duration": 0.331818181818182,
                "tempo": 120.0
            },
            {
                "start_time": 26.85909090909091,
                "end_time": 27.38181818181818,
                "pitch": 65,
                "velocity": 40,
                "duration": 0.5227272727272698,
                "tempo": 120.0
            },
            {
                "start_time": 27.39772727272727,
                "end_time": 27.920454545454543,
                "pitch": 64,
                "velocity": 40,
                "duration": 0.5227272727272734,
                "tempo": 120.0
            }
        ],
        "Harpsichord": [
            {
                "start_time": 0.0659090909090909,
                "end_time": 0.2409090909090909,
                "pitch": 41,
                "velocity": 40,
                "duration": 0.175,
                "tempo": 120.0
            },
            {
                "start_time": 0.2545454545454545,
                "end_time": 0.43636363636363634,
                "pitch": 63,
                "velocity": 40,
                "duration": 0.18181818181818182,
                "tempo": 120.0
            },
            {
                "start_time": 0.45454545454545453,
                "end_time": 0.7045454545454545,
                "pitch": 62,
                "velocity": 40,
                "duration": 0.24999999999999994,
                "tempo": 120.0
            },
            {
                "start_time": 0.7204545454545455,
                "end_time": 0.9727272727272727,
                "pitch": 63,
                "velocity": 40,
                "duration": 0.2522727272727272,
                "tempo": 120.0
            },
            {
                "start_time": 0.9886363636363635,
                "end_time": 1.0386363636363636,
                "pitch": 62,
                "velocity": 40,
                "duration": 0.050000000000000044,
                "tempo": 120.0
            },
            {
                "start_time": 1.0545454545454545,
                "end_time": 1.1045454545454545,
                "pitch": 70,
                "velocity": 40,
                "duration": 0.050000000000000044,
                "tempo": 120.0
            },
            {
                "start_time": 1.5272727272727271,
                "end_time": 2.065909090909091,
                "pitch": 69,
                "velocity": 40,
                "duration": 0.5386363636363638,
                "tempo": 120.0
            },
            {
                "start_time": 2.4,
                "end_time": 2.584090909090909,
                "pitch": 63,
                "velocity": 40,
                "duration": 0.18409090909090908,
                "tempo": 120.0
            },
            {
                "start_time": 2.602272727272727,
                "end_time": 2.852272727272727,
                "pitch": 62,
                "velocity": 40,
                "duration": 0.25,
                "tempo": 120.0
            },
            {
                "start_time": 2.868181818181818,
                "end_time": 3.1227272727272726,
                "pitch": 63,
                "velocity": 40,
                "duration": 0.2545454545454544,
                "tempo": 120.0
            },
            {
                "start_time": 3.1386363636363637,
                "end_time": 3.190909090909091,
                "pitch": 62,
                "velocity": 40,
                "duration": 0.05227272727272725,
                "tempo": 120.0
            },
            {
                "start_time": 3.2068181818181816,
                "end_time": 3.461363636363636,
                "pitch": 61,
                "velocity": 40,
                "duration": 0.2545454545454544,
                "tempo": 120.0
            },
            {
                "start_time": 3.4795454545454545,
                "end_time": 3.6636363636363636,
                "pitch": 61,
                "velocity": 40,
                "duration": 0.18409090909090908,
                "tempo": 120.0
            },
            {
                "start_time": 3.6795454545454542,
                "end_time": 3.9295454545454542,
                "pitch": 61,
                "velocity": 40,
                "duration": 0.25,
                "tempo": 120.0
            },
            {
                "start_time": 3.9477272727272728,
                "end_time": 3.9977272727272726,
                "pitch": 61,
                "velocity": 40,
                "duration": 0.04999999999999982,
                "tempo": 120.0
            },
            {
                "start_time": 4.013636363636364,
                "end_time": 4.268181818181818,
                "pitch": 63,
                "velocity": 40,
                "duration": 0.25454545454545396,
                "tempo": 120.0
            },
            {
                "start_time": 4.286363636363636,
                "end_time": 4.540909090909091,
                "pitch": 41,
                "velocity": 40,
                "duration": 0.25454545454545485,
                "tempo": 120.0
            },
            {
                "start_time": 4.556818181818182,
                "end_time": 4.74090909090909,
                "pitch": 63,
                "velocity": 40,
                "duration": 0.18409090909090864,
                "tempo": 120.0
            },
            {
                "start_time": 4.756818181818182,
                "end_time": 5.009090909090909,
                "pitch": 62,
                "velocity": 40,
                "duration": 0.252272727272727,
                "tempo": 120.0
            },
            {
                "start_time": 5.0249999999999995,
                "end_time": 5.2749999999999995,
                "pitch": 63,
                "velocity": 40,
                "duration": 0.25,
                "tempo": 120.0
            },
            {
                "start_time": 5.293181818181818,
                "end_time": 5.343181818181818,
                "pitch": 62,
                "velocity": 40,
                "duration": 0.04999999999999982,
                "tempo": 120.0
            },
            {
                "start_time": 5.3590909090909085,
                "end_time": 5.475,
                "pitch": 70,
                "velocity": 40,
                "duration": 0.11590909090909118,
                "tempo": 120.0
            },
            {
                "start_time": 5.827272727272727,
                "end_time": 6.6886363636363635,
                "pitch": 69,
                "velocity": 40,
                "duration": 0.8613636363636363,
                "tempo": 120.0
            },
            {
                "start_time": 6.704545454545454,
                "end_time": 6.888636363636364,
                "pitch": 63,
                "velocity": 40,
                "duration": 0.18409090909090953,
                "tempo": 120.0
            },
            {
                "start_time": 6.904545454545454,
                "end_time": 7.154545454545454,
                "pitch": 62,
                "velocity": 40,
                "duration": 0.25,
                "tempo": 120.0
            },
            {
                "start_time": 7.172727272727272,
                "end_time": 7.422727272727272,
                "pitch": 63,
                "velocity": 40,
                "duration": 0.25,
                "tempo": 120.0
            },
            {
                "start_time": 7.4386363636363635,
                "end_time": 7.488636363636363,
                "pitch": 62,
                "velocity": 40,
                "duration": 0.04999999999999982,
                "tempo": 120.0
            },
            {
                "start_time": 7.506818181818182,
                "end_time": 7.890909090909091,
                "pitch": 61,
                "velocity": 40,
                "duration": 0.3840909090909088,
                "tempo": 120.0
            },
            {
                "start_time": 7.906818181818181,
                "end_time": 8.156818181818181,
                "pitch": 61,
                "velocity": 40,
                "duration": 0.25,
                "tempo": 120.0
            },
            {
                "start_time": 8.174999999999999,
                "end_time": 8.290909090909091,
                "pitch": 61,
                "velocity": 40,
                "duration": 0.11590909090909207,
                "tempo": 120.0
            },
            {
                "start_time": 8.306818181818182,
                "end_time": 8.563636363636363,
                "pitch": 63,
                "velocity": 40,
                "duration": 0.25681818181818095,
                "tempo": 120.0
            },
            {
                "start_time": 8.579545454545453,
                "end_time": 9.64090909090909,
                "pitch": 65,
                "velocity": 40,
                "duration": 1.0613636363636374,
                "tempo": 120.0
            },
            {
                "start_time": 29.011363636363637,
                "end_time": 29.23181818181818,
                "pitch": 41,
                "velocity": 40,
                "duration": 0.2204545454545439,
                "tempo": 120.0
            }
        ],
        "Acoustic Bass": [
            {
                "start_time": 10.797727272727272,
                "end_time": 10.86590909090909,
                "pitch": 60,
                "velocity": 25,
                "duration": 0.06818181818181834,
                "tempo": 120.0
            },
            {
                "start_time": 10.897727272727272,
                "end_time": 10.96590909090909,
                "pitch": 60,
                "velocity": 25,
                "duration": 0.06818181818181834,
                "tempo": 120.0
            },
            {
                "start_time": 10.98181818181818,
                "end_time": 11.049999999999999,
                "pitch": 60,
                "velocity": 25,
                "duration": 0.06818181818181834,
                "tempo": 120.0
            },
            {
                "start_time": 11.06590909090909,
                "end_time": 11.236363636363636,
                "pitch": 63,
                "velocity": 25,
                "duration": 0.17045454545454675,
                "tempo": 120.0
            },
            {
                "start_time": 11.254545454545454,
                "end_time": 11.509090909090908,
                "pitch": 62,
                "velocity": 25,
                "duration": 0.25454545454545396,
                "tempo": 120.0
            },
            {
                "start_time": 11.524999999999999,
                "end_time": 11.777272727272727,
                "pitch": 70,
                "velocity": 25,
                "duration": 0.25227272727272876,
                "tempo": 120.0
            },
            {
                "start_time": 11.793181818181818,
                "end_time": 11.85909090909091,
                "pitch": 69,
                "velocity": 25,
                "duration": 0.06590909090909136,
                "tempo": 120.0
            },
            {
                "start_time": 11.877272727272727,
                "end_time": 12.311363636363636,
                "pitch": 67,
                "velocity": 25,
                "duration": 0.43409090909090864,
                "tempo": 120.0
            },
            {
                "start_time": 12.327272727272726,
                "end_time": 12.661363636363635,
                "pitch": 70,
                "velocity": 25,
                "duration": 0.334090909090909,
                "tempo": 120.0
            },
            {
                "start_time": 12.679545454545455,
                "end_time": 13.204545454545453,
                "pitch": 69,
                "velocity": 25,
                "duration": 0.5249999999999986,
                "tempo": 120.0
            },
            {
                "start_time": 13.222727272727273,
                "end_time": 13.388636363636364,
                "pitch": 63,
                "velocity": 25,
                "duration": 0.165909090909091,
                "tempo": 120.0
            },
            {
                "start_time": 13.406818181818181,
                "end_time": 13.656818181818181,
                "pitch": 62,
                "velocity": 25,
                "duration": 0.25,
                "tempo": 120.0
            },
            {
                "start_time": 13.672727272727272,
                "end_time": 13.922727272727272,
                "pitch": 70,
                "velocity": 25,
                "duration": 0.25,
                "tempo": 120.0
            },
            {
                "start_time": 13.94090909090909,
                "end_time": 14.006818181818181,
                "pitch": 69,
                "velocity": 25,
                "duration": 0.06590909090909136,
                "tempo": 120.0
            },
            {
                "start_time": 14.022727272727272,
                "end_time": 15.086363636363636,
                "pitch": 67,
                "velocity": 25,
                "duration": 1.0636363636363644,
                "tempo": 120.0
            },
            {
                "start_time": 15.102272727272727,
                "end_time": 15.168181818181818,
                "pitch": 60,
                "velocity": 25,
                "duration": 0.06590909090909136,
                "tempo": 120.0
            },
            {
                "start_time": 15.202272727272726,
                "end_time": 15.268181818181818,
                "pitch": 60,
                "velocity": 25,
                "duration": 0.06590909090909136,
                "tempo": 120.0
            },
            {
                "start_time": 15.286363636363635,
                "end_time": 15.352272727272727,
                "pitch": 60,
                "velocity": 25,
                "duration": 0.06590909090909136,
                "tempo": 120.0
            },
            {
                "start_time": 15.368181818181817,
                "end_time": 15.536363636363635,
                "pitch": 63,
                "velocity": 25,
                "duration": 0.168181818181818,
                "tempo": 120.0
            },
            {
                "start_time": 15.552272727272726,
                "end_time": 15.804545454545453,
                "pitch": 62,
                "velocity": 25,
                "duration": 0.252272727272727,
                "tempo": 120.0
            },
            {
                "start_time": 15.820454545454545,
                "end_time": 16.075,
                "pitch": 70,
                "velocity": 25,
                "duration": 0.25454545454545396,
                "tempo": 120.0
            },
            {
                "start_time": 16.09090909090909,
                "end_time": 16.15909090909091,
                "pitch": 69,
                "velocity": 25,
                "duration": 0.06818181818182012,
                "tempo": 120.0
            },
            {
                "start_time": 16.177272727272726,
                "end_time": 16.613636363636363,
                "pitch": 67,
                "velocity": 25,
                "duration": 0.4363636363636374,
                "tempo": 120.0
            },
            {
                "start_time": 16.631818181818183,
                "end_time": 16.96590909090909,
                "pitch": 70,
                "velocity": 25,
                "duration": 0.3340909090909072,
                "tempo": 120.0
            },
            {
                "start_time": 16.98181818181818,
                "end_time": 17.5,
                "pitch": 69,
                "velocity": 25,
                "duration": 0.5181818181818194,
                "tempo": 120.0
            },
            {
                "start_time": 17.518181818181816,
                "end_time": 17.686363636363634,
                "pitch": 63,
                "velocity": 25,
                "duration": 0.168181818181818,
                "tempo": 120.0
            },
            {
                "start_time": 17.704545454545453,
                "end_time": 17.959090909090907,
                "pitch": 62,
                "velocity": 25,
                "duration": 0.25454545454545396,
                "tempo": 120.0
            },
            {
                "start_time": 17.977272727272727,
                "end_time": 18.227272727272727,
                "pitch": 70,
                "velocity": 25,
                "duration": 0.25,
                "tempo": 120.0
            },
            {
                "start_time": 18.243181818181817,
                "end_time": 18.311363636363634,
                "pitch": 69,
                "velocity": 25,
                "duration": 0.06818181818181657,
                "tempo": 120.0
            },
            {
                "start_time": 18.327272727272728,
                "end_time": 18.761363636363637,
                "pitch": 69,
                "velocity": 25,
                "duration": 0.43409090909090864,
                "tempo": 120.0
            },
            {
                "start_time": 18.779545454545453,
                "end_time": 19.65681818181818,
                "pitch": 67,
                "velocity": 25,
                "duration": 0.8772727272727288,
                "tempo": 120.0
            }
        ],
        "French Horn": [
            {
                "start_time": 0.0659090909090909,
                "end_time": 0.09090909090909091,
                "pitch": 60,
                "velocity": 25,
                "duration": 0.02500000000000001,
                "tempo": 120.0
            }
        ],
        "Oboe": [
            {
                "start_time": 0.07727272727272727,
                "end_time": 0.1909090909090909,
                "pitch": 53,
                "velocity": 25,
                "duration": 0.11363636363636362,
                "tempo": 120.0
            },
            {
                "start_time": 0.20454545454545453,
                "end_time": 0.2409090909090909,
                "pitch": 53,
                "velocity": 25,
                "duration": 0.036363636363636376,
                "tempo": 120.0
            },
            {
                "start_time": 0.2545454545454545,
                "end_time": 0.43636363636363634,
                "pitch": 53,
                "velocity": 25,
                "duration": 0.18181818181818182,
                "tempo": 120.0
            },
            {
                "start_time": 0.45454545454545453,
                "end_time": 0.5045454545454545,
                "pitch": 53,
                "velocity": 25,
                "duration": 0.04999999999999999,
                "tempo": 120.0
            },
            {
                "start_time": 0.5204545454545454,
                "end_time": 0.7045454545454545,
                "pitch": 53,
                "velocity": 25,
                "duration": 0.18409090909090908,
                "tempo": 120.0
            },
            {
                "start_time": 0.7204545454545455,
                "end_time": 0.7704545454545454,
                "pitch": 53,
                "velocity": 25,
                "duration": 0.04999999999999993,
                "tempo": 120.0
            },
            {
                "start_time": 0.7886363636363636,
                "end_time": 0.9727272727272727,
                "pitch": 53,
                "velocity": 25,
                "duration": 0.18409090909090908,
                "tempo": 120.0
            },
            {
                "start_time": 0.9886363636363635,
                "end_time": 1.0386363636363636,
                "pitch": 53,
                "velocity": 25,
                "duration": 0.050000000000000044,
                "tempo": 120.0
            },
            {
                "start_time": 1.0545454545454545,
                "end_time": 1.2386363636363635,
                "pitch": 53,
                "velocity": 25,
                "duration": 0.18409090909090908,
                "tempo": 120.0
            },
            {
                "start_time": 1.2545454545454544,
                "end_time": 1.3068181818181817,
                "pitch": 53,
                "velocity": 25,
                "duration": 0.05227272727272725,
                "tempo": 120.0
            },
            {
                "start_time": 1.3227272727272728,
                "end_time": 1.509090909090909,
                "pitch": 53,
                "velocity": 25,
                "duration": 0.1863636363636363,
                "tempo": 120.0
            },
            {
                "start_time": 1.5272727272727271,
                "end_time": 1.5772727272727272,
                "pitch": 53,
                "velocity": 25,
                "duration": 0.050000000000000044,
                "tempo": 120.0
            },
            {
                "start_time": 1.5954545454545455,
                "end_time": 1.7818181818181817,
                "pitch": 53,
                "velocity": 25,
                "duration": 0.1863636363636363,
                "tempo": 120.0
            },
            {
                "start_time": 1.7977272727272726,
                "end_time": 1.8499999999999999,
                "pitch": 53,
                "velocity": 25,
                "duration": 0.05227272727272725,
                "tempo": 120.0
            },
            {
                "start_time": 1.8659090909090907,
                "end_time": 2.05,
                "pitch": 53,
                "velocity": 25,
                "duration": 0.18409090909090908,
                "tempo": 120.0
            },
            {
                "start_time": 2.065909090909091,
                "end_time": 2.1159090909090907,
                "pitch": 53,
                "velocity": 25,
                "duration": 0.04999999999999982,
                "tempo": 120.0
            },
            {
                "start_time": 2.134090909090909,
                "end_time": 2.318181818181818,
                "pitch": 53,
                "velocity": 25,
                "duration": 0.18409090909090908,
                "tempo": 120.0
            },
            {
                "start_time": 2.334090909090909,
                "end_time": 2.384090909090909,
                "pitch": 53,
                "velocity": 25,
                "duration": 0.04999999999999982,
                "tempo": 120.0
            },
            {
                "start_time": 2.4,
                "end_time": 2.584090909090909,
                "pitch": 53,
                "velocity": 25,
                "duration": 0.18409090909090908,
                "tempo": 120.0
            },
            {
                "start_time": 2.602272727272727,
                "end_time": 2.6522727272727273,
                "pitch": 53,
                "velocity": 25,
                "duration": 0.050000000000000266,
                "tempo": 120.0
            },
            {
                "start_time": 2.668181818181818,
                "end_time": 2.852272727272727,
                "pitch": 53,
                "velocity": 25,
                "duration": 0.18409090909090908,
                "tempo": 120.0
            },
            {
                "start_time": 2.868181818181818,
                "end_time": 2.918181818181818,
                "pitch": 53,
                "velocity": 25,
                "duration": 0.04999999999999982,
                "tempo": 120.0
            },
            {
                "start_time": 2.934090909090909,
                "end_time": 3.1227272727272726,
                "pitch": 53,
                "velocity": 25,
                "duration": 0.1886363636363635,
                "tempo": 120.0
            },
            {
                "start_time": 3.1386363636363637,
                "end_time": 3.190909090909091,
                "pitch": 53,
                "velocity": 25,
                "duration": 0.05227272727272725,
                "tempo": 120.0
            },
            {
                "start_time": 3.2068181818181816,
                "end_time": 3.461363636363636,
                "pitch": 49,
                "velocity": 25,
                "duration": 0.2545454545454544,
                "tempo": 120.0
            },
            {
                "start_time": 3.4795454545454545,
                "end_time": 3.5954545454545452,
                "pitch": 49,
                "velocity": 25,
                "duration": 0.11590909090909074,
                "tempo": 120.0
            },
            {
                "start_time": 3.6136363636363633,
                "end_time": 3.8636363636363633,
                "pitch": 49,
                "velocity": 25,
                "duration": 0.25,
                "tempo": 120.0
            },
            {
                "start_time": 3.8795454545454544,
                "end_time": 3.9977272727272726,
                "pitch": 49,
                "velocity": 25,
                "duration": 0.11818181818181817,
                "tempo": 120.0
            },
            {
                "start_time": 4.013636363636364,
                "end_time": 4.268181818181818,
                "pitch": 49,
                "velocity": 25,
                "duration": 0.25454545454545396,
                "tempo": 120.0
            },
            {
                "start_time": 4.286363636363636,
                "end_time": 4.472727272727273,
                "pitch": 53,
                "velocity": 25,
                "duration": 0.1863636363636365,
                "tempo": 120.0
            },
            {
                "start_time": 4.488636363636363,
                "end_time": 4.540909090909091,
                "pitch": 53,
                "velocity": 25,
                "duration": 0.05227272727272769,
                "tempo": 120.0
            },
            {
                "start_time": 4.556818181818182,
                "end_time": 4.74090909090909,
                "pitch": 53,
                "velocity": 25,
                "duration": 0.18409090909090864,
                "tempo": 120.0
            },
            {
                "start_time": 4.756818181818182,
                "end_time": 4.806818181818182,
                "pitch": 53,
                "velocity": 25,
                "duration": 0.04999999999999982,
                "tempo": 120.0
            },
            {
                "start_time": 4.825,
                "end_time": 5.009090909090909,
                "pitch": 53,
                "velocity": 25,
                "duration": 0.18409090909090864,
                "tempo": 120.0
            },
            {
                "start_time": 5.0249999999999995,
                "end_time": 5.075,
                "pitch": 53,
                "velocity": 25,
                "duration": 0.05000000000000071,
                "tempo": 120.0
            },
            {
                "start_time": 5.090909090909091,
                "end_time": 5.2749999999999995,
                "pitch": 53,
                "velocity": 25,
                "duration": 0.18409090909090864,
                "tempo": 120.0
            },
            {
                "start_time": 5.293181818181818,
                "end_time": 5.343181818181818,
                "pitch": 53,
                "velocity": 25,
                "duration": 0.04999999999999982,
                "tempo": 120.0
            },
            {
                "start_time": 5.3590909090909085,
                "end_time": 5.543181818181818,
                "pitch": 53,
                "velocity": 25,
                "duration": 0.18409090909090953,
                "tempo": 120.0
            },
            {
                "start_time": 5.559090909090909,
                "end_time": 5.6090909090909085,
                "pitch": 53,
                "velocity": 25,
                "duration": 0.04999999999999982,
                "tempo": 120.0
            },
            {
                "start_time": 5.627272727272727,
                "end_time": 5.809090909090909,
                "pitch": 53,
                "velocity": 25,
                "duration": 0.18181818181818166,
                "tempo": 120.0
            },
            {
                "start_time": 5.827272727272727,
                "end_time": 5.877272727272727,
                "pitch": 53,
                "velocity": 25,
                "duration": 0.04999999999999982,
                "tempo": 120.0
            },
            {
                "start_time": 5.893181818181818,
                "end_time": 6.077272727272727,
                "pitch": 53,
                "velocity": 25,
                "duration": 0.18409090909090953,
                "tempo": 120.0
            },
            {
                "start_time": 6.093181818181818,
                "end_time": 6.143181818181818,
                "pitch": 53,
                "velocity": 25,
                "duration": 0.04999999999999982,
                "tempo": 120.0
            },
            {
                "start_time": 6.161363636363636,
                "end_time": 6.347727272727273,
                "pitch": 53,
                "velocity": 25,
                "duration": 0.1863636363636365,
                "tempo": 120.0
            },
            {
                "start_time": 6.363636363636363,
                "end_time": 6.415909090909091,
                "pitch": 53,
                "velocity": 25,
                "duration": 0.05227272727272769,
                "tempo": 120.0
            },
            {
                "start_time": 6.431818181818182,
                "end_time": 6.620454545454545,
                "pitch": 53,
                "velocity": 25,
                "duration": 0.1886363636363635,
                "tempo": 120.0
            },
            {
                "start_time": 6.636363636363636,
                "end_time": 6.6886363636363635,
                "pitch": 53,
                "velocity": 25,
                "duration": 0.05227272727272769,
                "tempo": 120.0
            },
            {
                "start_time": 6.704545454545454,
                "end_time": 6.888636363636364,
                "pitch": 53,
                "velocity": 25,
                "duration": 0.18409090909090953,
                "tempo": 120.0
            },
            {
                "start_time": 6.904545454545454,
                "end_time": 6.954545454545454,
                "pitch": 53,
                "velocity": 25,
                "duration": 0.04999999999999982,
                "tempo": 120.0
            },
            {
                "start_time": 6.972727272727273,
                "end_time": 7.154545454545454,
                "pitch": 53,
                "velocity": 25,
                "duration": 0.18181818181818166,
                "tempo": 120.0
            },
            {
                "start_time": 7.172727272727272,
                "end_time": 7.222727272727273,
                "pitch": 53,
                "velocity": 25,
                "duration": 0.05000000000000071,
                "tempo": 120.0
            },
            {
                "start_time": 7.238636363636363,
                "end_time": 7.422727272727272,
                "pitch": 53,
                "velocity": 25,
                "duration": 0.18409090909090864,
                "tempo": 120.0
            },
            {
                "start_time": 7.4386363636363635,
                "end_time": 7.488636363636363,
                "pitch": 53,
                "velocity": 25,
                "duration": 0.04999999999999982,
                "tempo": 120.0
            },
            {
                "start_time": 7.506818181818182,
                "end_time": 7.756818181818182,
                "pitch": 49,
                "velocity": 25,
                "duration": 0.25,
                "tempo": 120.0
            },
            {
                "start_time": 7.7727272727272725,
                "end_time": 7.890909090909091,
                "pitch": 49,
                "velocity": 25,
                "duration": 0.11818181818181817,
                "tempo": 120.0
            },
            {
                "start_time": 7.906818181818181,
                "end_time": 8.156818181818181,
                "pitch": 49,
                "velocity": 25,
                "duration": 0.25,
                "tempo": 120.0
            },
            {
                "start_time": 8.174999999999999,
                "end_time": 8.290909090909091,
                "pitch": 49,
                "velocity": 25,
                "duration": 0.11590909090909207,
                "tempo": 120.0
            },
            {
                "start_time": 8.306818181818182,
                "end_time": 8.563636363636363,
                "pitch": 49,
                "velocity": 25,
                "duration": 0.25681818181818095,
                "tempo": 120.0
            },
            {
                "start_time": 8.579545454545453,
                "end_time": 8.76590909090909,
                "pitch": 53,
                "velocity": 25,
                "duration": 0.1863636363636374,
                "tempo": 120.0
            },
            {
                "start_time": 8.784090909090908,
                "end_time": 8.834090909090909,
                "pitch": 53,
                "velocity": 25,
                "duration": 0.05000000000000071,
                "tempo": 120.0
            },
            {
                "start_time": 8.852272727272727,
                "end_time": 9.036363636363635,
                "pitch": 53,
                "velocity": 25,
                "duration": 0.18409090909090864,
                "tempo": 120.0
            },
            {
                "start_time": 9.052272727272728,
                "end_time": 9.102272727272727,
                "pitch": 53,
                "velocity": 25,
                "duration": 0.049999999999998934,
                "tempo": 120.0
            },
            {
                "start_time": 9.118181818181817,
                "end_time": 9.302272727272728,
                "pitch": 53,
                "velocity": 25,
                "duration": 0.18409090909091042,
                "tempo": 120.0
            },
            {
                "start_time": 9.318181818181818,
                "end_time": 9.370454545454544,
                "pitch": 53,
                "velocity": 25,
                "duration": 0.052272727272725916,
                "tempo": 120.0
            },
            {
                "start_time": 9.386363636363637,
                "end_time": 9.572727272727272,
                "pitch": 53,
                "velocity": 25,
                "duration": 0.18636363636363562,
                "tempo": 120.0
            },
            {
                "start_time": 9.59090909090909,
                "end_time": 9.64090909090909,
                "pitch": 53,
                "velocity": 25,
                "duration": 0.05000000000000071,
                "tempo": 120.0
            },
            {
                "start_time": 9.656818181818181,
                "end_time": 10.71590909090909,
                "pitch": 53,
                "velocity": 25,
                "duration": 1.0590909090909086,
                "tempo": 120.0
            },
            {
                "start_time": 10.73181818181818,
                "end_time": 10.797727272727272,
                "pitch": 53,
                "velocity": 25,
                "duration": 0.06590909090909136,
                "tempo": 120.0
            },
            {
                "start_time": 10.831818181818182,
                "end_time": 10.897727272727272,
                "pitch": 53,
                "velocity": 25,
                "duration": 0.06590909090908958,
                "tempo": 120.0
            },
            {
                "start_time": 10.915909090909091,
                "end_time": 10.98181818181818,
                "pitch": 53,
                "velocity": 25,
                "duration": 0.06590909090908958,
                "tempo": 120.0
            },
            {
                "start_time": 10.997727272727273,
                "end_time": 11.168181818181818,
                "pitch": 53,
                "velocity": 25,
                "duration": 0.17045454545454497,
                "tempo": 120.0
            },
            {
                "start_time": 11.186363636363636,
                "end_time": 11.254545454545454,
                "pitch": 53,
                "velocity": 25,
                "duration": 0.06818181818181834,
                "tempo": 120.0
            },
            {
                "start_time": 11.270454545454545,
                "end_time": 11.44090909090909,
                "pitch": 53,
                "velocity": 25,
                "duration": 0.17045454545454497,
                "tempo": 120.0
            },
            {
                "start_time": 11.456818181818182,
                "end_time": 11.524999999999999,
                "pitch": 53,
                "velocity": 25,
                "duration": 0.06818181818181657,
                "tempo": 120.0
            },
            {
                "start_time": 11.543181818181818,
                "end_time": 11.709090909090909,
                "pitch": 53,
                "velocity": 25,
                "duration": 0.165909090909091,
                "tempo": 120.0
            },
            {
                "start_time": 11.727272727272727,
                "end_time": 11.793181818181818,
                "pitch": 53,
                "velocity": 25,
                "duration": 0.06590909090909136,
                "tempo": 120.0
            },
            {
                "start_time": 11.809090909090909,
                "end_time": 11.877272727272727,
                "pitch": 53,
                "velocity": 25,
                "duration": 0.06818181818181834,
                "tempo": 120.0
            },
            {
                "start_time": 11.909090909090908,
                "end_time": 11.977272727272727,
                "pitch": 53,
                "velocity": 25,
                "duration": 0.06818181818181834,
                "tempo": 120.0
            },
            {
                "start_time": 11.993181818181817,
                "end_time": 12.061363636363636,
                "pitch": 53,
                "velocity": 25,
                "duration": 0.06818181818181834,
                "tempo": 120.0
            },
            {
                "start_time": 12.077272727272726,
                "end_time": 12.243181818181817,
                "pitch": 53,
                "velocity": 25,
                "duration": 0.165909090909091,
                "tempo": 120.0
            },
            {
                "start_time": 12.261363636363635,
                "end_time": 12.327272727272726,
                "pitch": 53,
                "velocity": 25,
                "duration": 0.06590909090909136,
                "tempo": 120.0
            },
            {
                "start_time": 12.343181818181817,
                "end_time": 12.511363636363635,
                "pitch": 53,
                "velocity": 25,
                "duration": 0.168181818181818,
                "tempo": 120.0
            },
            {
                "start_time": 12.527272727272727,
                "end_time": 12.595454545454546,
                "pitch": 53,
                "velocity": 25,
                "duration": 0.06818181818181834,
                "tempo": 120.0
            },
            {
                "start_time": 12.611363636363636,
                "end_time": 12.781818181818181,
                "pitch": 53,
                "velocity": 25,
                "duration": 0.17045454545454497,
                "tempo": 120.0
            },
            {
                "start_time": 12.797727272727272,
                "end_time": 12.86590909090909,
                "pitch": 53,
                "velocity": 25,
                "duration": 0.06818181818181834,
                "tempo": 120.0
            },
            {
                "start_time": 12.884090909090908,
                "end_time": 12.952272727272726,
                "pitch": 53,
                "velocity": 25,
                "duration": 0.06818181818181834,
                "tempo": 120.0
            },
            {
                "start_time": 12.986363636363636,
                "end_time": 13.052272727272726,
                "pitch": 53,
                "velocity": 25,
                "duration": 0.06590909090908958,
                "tempo": 120.0
            },
            {
                "start_time": 13.070454545454545,
                "end_time": 13.138636363636364,
                "pitch": 53,
                "velocity": 25,
                "duration": 0.06818181818181834,
                "tempo": 120.0
            },
            {
                "start_time": 13.154545454545454,
                "end_time": 13.322727272727272,
                "pitch": 53,
                "velocity": 25,
                "duration": 0.168181818181818,
                "tempo": 120.0
            },
            {
                "start_time": 13.338636363636363,
                "end_time": 13.406818181818181,
                "pitch": 53,
                "velocity": 25,
                "duration": 0.06818181818181834,
                "tempo": 120.0
            },
            {
                "start_time": 13.422727272727272,
                "end_time": 13.588636363636363,
                "pitch": 53,
                "velocity": 25,
                "duration": 0.165909090909091,
                "tempo": 120.0
            },
            {
                "start_time": 13.60681818181818,
                "end_time": 13.672727272727272,
                "pitch": 53,
                "velocity": 25,
                "duration": 0.06590909090909136,
                "tempo": 120.0
            },
            {
                "start_time": 13.69090909090909,
                "end_time": 13.85681818181818,
                "pitch": 53,
                "velocity": 25,
                "duration": 0.165909090909091,
                "tempo": 120.0
            },
            {
                "start_time": 13.872727272727271,
                "end_time": 13.94090909090909,
                "pitch": 53,
                "velocity": 25,
                "duration": 0.06818181818181834,
                "tempo": 120.0
            },
            {
                "start_time": 13.956818181818182,
                "end_time": 14.125,
                "pitch": 53,
                "velocity": 25,
                "duration": 0.168181818181818,
                "tempo": 120.0
            },
            {
                "start_time": 14.14090909090909,
                "end_time": 14.206818181818182,
                "pitch": 53,
                "velocity": 25,
                "duration": 0.06590909090909136,
                "tempo": 120.0
            },
            {
                "start_time": 14.225,
                "end_time": 14.393181818181818,
                "pitch": 53,
                "velocity": 25,
                "duration": 0.168181818181818,
                "tempo": 120.0
            },
            {
                "start_time": 14.411363636363635,
                "end_time": 14.479545454545454,
                "pitch": 53,
                "velocity": 25,
                "duration": 0.06818181818181834,
                "tempo": 120.0
            },
            {
                "start_time": 14.495454545454544,
                "end_time": 14.665909090909091,
                "pitch": 53,
                "velocity": 25,
                "duration": 0.17045454545454675,
                "tempo": 120.0
            },
            {
                "start_time": 14.684090909090909,
                "end_time": 14.75,
                "pitch": 53,
                "velocity": 25,
                "duration": 0.06590909090909136,
                "tempo": 120.0
            },
            {
                "start_time": 14.768181818181818,
                "end_time": 14.934090909090909,
                "pitch": 49,
                "velocity": 25,
                "duration": 0.165909090909091,
                "tempo": 120.0
            },
            {
                "start_time": 14.952272727272726,
                "end_time": 15.018181818181818,
                "pitch": 51,
                "velocity": 25,
                "duration": 0.06590909090909136,
                "tempo": 120.0
            },
            {
                "start_time": 15.036363636363635,
                "end_time": 15.102272727272727,
                "pitch": 53,
                "velocity": 25,
                "duration": 0.06590909090909136,
                "tempo": 120.0
            },
            {
                "start_time": 15.136363636363635,
                "end_time": 15.202272727272726,
                "pitch": 53,
                "velocity": 25,
                "duration": 0.06590909090909136,
                "tempo": 120.0
            },
            {
                "start_time": 15.218181818181817,
                "end_time": 15.286363636363635,
                "pitch": 53,
                "velocity": 25,
                "duration": 0.06818181818181834,
                "tempo": 120.0
            },
            {
                "start_time": 15.302272727272726,
                "end_time": 15.470454545454544,
                "pitch": 53,
                "velocity": 25,
                "duration": 0.168181818181818,
                "tempo": 120.0
            },
            {
                "start_time": 15.486363636363636,
                "end_time": 15.552272727272726,
                "pitch": 53,
                "velocity": 25,
                "duration": 0.06590909090908958,
                "tempo": 120.0
            },
            {
                "start_time": 15.570454545454545,
                "end_time": 15.736363636363636,
                "pitch": 53,
                "velocity": 25,
                "duration": 0.165909090909091,
                "tempo": 120.0
            },
            {
                "start_time": 15.752272727272727,
                "end_time": 15.820454545454545,
                "pitch": 53,
                "velocity": 25,
                "duration": 0.06818181818181834,
                "tempo": 120.0
            },
            {
                "start_time": 15.836363636363636,
                "end_time": 16.006818181818183,
                "pitch": 53,
                "velocity": 25,
                "duration": 0.17045454545454675,
                "tempo": 120.0
            },
            {
                "start_time": 16.022727272727273,
                "end_time": 16.09090909090909,
                "pitch": 53,
                "velocity": 25,
                "duration": 0.06818181818181657,
                "tempo": 120.0
            },
            {
                "start_time": 16.10909090909091,
                "end_time": 16.177272727272726,
                "pitch": 53,
                "velocity": 25,
                "duration": 0.06818181818181657,
                "tempo": 120.0
            },
            {
                "start_time": 16.211363636363636,
                "end_time": 16.279545454545453,
                "pitch": 53,
                "velocity": 25,
                "duration": 0.06818181818181657,
                "tempo": 120.0
            },
            {
                "start_time": 16.295454545454543,
                "end_time": 16.363636363636363,
                "pitch": 53,
                "velocity": 25,
                "duration": 0.06818181818182012,
                "tempo": 120.0
            },
            {
                "start_time": 16.381818181818183,
                "end_time": 16.547727272727272,
                "pitch": 53,
                "velocity": 25,
                "duration": 0.16590909090908923,
                "tempo": 120.0
            },
            {
                "start_time": 16.563636363636363,
                "end_time": 16.631818181818183,
                "pitch": 53,
                "velocity": 25,
                "duration": 0.06818181818182012,
                "tempo": 120.0
            },
            {
                "start_time": 16.647727272727273,
                "end_time": 16.81590909090909,
                "pitch": 53,
                "velocity": 25,
                "duration": 0.168181818181818,
                "tempo": 120.0
            },
            {
                "start_time": 16.831818181818182,
                "end_time": 16.897727272727273,
                "pitch": 53,
                "velocity": 25,
                "duration": 0.06590909090909136,
                "tempo": 120.0
            },
            {
                "start_time": 16.91590909090909,
                "end_time": 17.081818181818182,
                "pitch": 53,
                "velocity": 25,
                "duration": 0.16590909090909278,
                "tempo": 120.0
            },
            {
                "start_time": 17.099999999999998,
                "end_time": 17.16590909090909,
                "pitch": 53,
                "velocity": 25,
                "duration": 0.06590909090909136,
                "tempo": 120.0
            },
            {
                "start_time": 17.18181818181818,
                "end_time": 17.25,
                "pitch": 53,
                "velocity": 25,
                "duration": 0.06818181818182012,
                "tempo": 120.0
            },
            {
                "start_time": 17.28181818181818,
                "end_time": 17.349999999999998,
                "pitch": 53,
                "velocity": 25,
                "duration": 0.06818181818181657,
                "tempo": 120.0
            },
            {
                "start_time": 17.36590909090909,
                "end_time": 17.43181818181818,
                "pitch": 53,
                "velocity": 25,
                "duration": 0.06590909090909136,
                "tempo": 120.0
            },
            {
                "start_time": 17.45,
                "end_time": 17.620454545454546,
                "pitch": 53,
                "velocity": 25,
                "duration": 0.17045454545454675,
                "tempo": 120.0
            },
            {
                "start_time": 17.636363636363637,
                "end_time": 17.704545454545453,
                "pitch": 53,
                "velocity": 25,
                "duration": 0.06818181818181657,
                "tempo": 120.0
            },
            {
                "start_time": 17.720454545454544,
                "end_time": 17.89090909090909,
                "pitch": 53,
                "velocity": 25,
                "duration": 0.17045454545454675,
                "tempo": 120.0
            },
            {
                "start_time": 17.909090909090907,
                "end_time": 17.977272727272727,
                "pitch": 53,
                "velocity": 25,
                "duration": 0.06818181818182012,
                "tempo": 120.0
            },
            {
                "start_time": 17.993181818181817,
                "end_time": 18.161363636363635,
                "pitch": 53,
                "velocity": 25,
                "duration": 0.168181818181818,
                "tempo": 120.0
            },
            {
                "start_time": 18.177272727272726,
                "end_time": 18.243181818181817,
                "pitch": 53,
                "velocity": 25,
                "duration": 0.06590909090909136,
                "tempo": 120.0
            },
            {
                "start_time": 18.261363636363637,
                "end_time": 18.511363636363637,
                "pitch": 53,
                "velocity": 25,
                "duration": 0.25,
                "tempo": 120.0
            },
            {
                "start_time": 18.527272727272727,
                "end_time": 18.779545454545453,
                "pitch": 53,
                "velocity": 25,
                "duration": 0.2522727272727252,
                "tempo": 120.0
            },
            {
                "start_time": 18.795454545454543,
                "end_time": 19.045454545454543,
                "pitch": 51,
                "velocity": 25,
                "duration": 0.25,
                "tempo": 120.0
            },
            {
                "start_time": 19.061363636363634,
                "end_time": 19.318181818181817,
                "pitch": 49,
                "velocity": 25,
                "duration": 0.2568181818181827,
                "tempo": 120.0
            },
            {
                "start_time": 19.334090909090907,
                "end_time": 19.504545454545454,
                "pitch": 46,
                "velocity": 25,
                "duration": 0.17045454545454675,
                "tempo": 120.0
            },
            {
                "start_time": 19.520454545454545,
                "end_time": 19.58863636363636,
                "pitch": 46,
                "velocity": 25,
                "duration": 0.06818181818181657,
                "tempo": 120.0
            },
            {
                "start_time": 19.60681818181818,
                "end_time": 19.772727272727273,
                "pitch": 46,
                "velocity": 25,
                "duration": 0.16590909090909278,
                "tempo": 120.0
            },
            {
                "start_time": 19.79090909090909,
                "end_time": 19.85681818181818,
                "pitch": 46,
                "velocity": 25,
                "duration": 0.06590909090909136,
                "tempo": 120.0
            },
            {
                "start_time": 19.87272727272727,
                "end_time": 19.94090909090909,
                "pitch": 46,
                "velocity": 25,
                "duration": 0.06818181818182012,
                "tempo": 120.0
            },
            {
                "start_time": 19.972727272727273,
                "end_time": 20.04090909090909,
                "pitch": 46,
                "velocity": 25,
                "duration": 0.06818181818181657,
                "tempo": 120.0
            },
            {
                "start_time": 20.05681818181818,
                "end_time": 20.125,
                "pitch": 46,
                "velocity": 25,
                "duration": 0.06818181818182012,
                "tempo": 120.0
            },
            {
                "start_time": 20.14090909090909,
                "end_time": 20.30681818181818,
                "pitch": 46,
                "velocity": 25,
                "duration": 0.16590909090908923,
                "tempo": 120.0
            },
            {
                "start_time": 20.325,
                "end_time": 20.39090909090909,
                "pitch": 46,
                "velocity": 25,
                "duration": 0.06590909090909136,
                "tempo": 120.0
            },
            {
                "start_time": 20.40681818181818,
                "end_time": 20.575,
                "pitch": 46,
                "velocity": 25,
                "duration": 0.168181818181818,
                "tempo": 120.0
            },
            {
                "start_time": 20.59090909090909,
                "end_time": 20.659090909090907,
                "pitch": 46,
                "velocity": 25,
                "duration": 0.06818181818181657,
                "tempo": 120.0
            },
            {
                "start_time": 20.675,
                "end_time": 20.845454545454544,
                "pitch": 46,
                "velocity": 25,
                "duration": 0.1704545454545432,
                "tempo": 120.0
            },
            {
                "start_time": 20.861363636363635,
                "end_time": 20.929545454545455,
                "pitch": 46,
                "velocity": 25,
                "duration": 0.06818181818182012,
                "tempo": 120.0
            },
            {
                "start_time": 20.94772727272727,
                "end_time": 21.11590909090909,
                "pitch": 46,
                "velocity": 25,
                "duration": 0.168181818181818,
                "tempo": 120.0
            },
            {
                "start_time": 21.134090909090908,
                "end_time": 21.202272727272724,
                "pitch": 46,
                "velocity": 25,
                "duration": 0.06818181818181657,
                "tempo": 120.0
            },
            {
                "start_time": 21.21818181818182,
                "end_time": 21.386363636363637,
                "pitch": 44,
                "velocity": 25,
                "duration": 0.168181818181818,
                "tempo": 120.0
            },
            {
                "start_time": 21.402272727272727,
                "end_time": 21.470454545454544,
                "pitch": 46,
                "velocity": 25,
                "duration": 0.06818181818181657,
                "tempo": 120.0
            },
            {
                "start_time": 21.486363636363635,
                "end_time": 21.652272727272727,
                "pitch": 46,
                "velocity": 25,
                "duration": 0.16590909090909278,
                "tempo": 120.0
            },
            {
                "start_time": 21.670454545454543,
                "end_time": 21.736363636363635,
                "pitch": 46,
                "velocity": 25,
                "duration": 0.06590909090909136,
                "tempo": 120.0
            },
            {
                "start_time": 21.752272727272725,
                "end_time": 21.920454545454543,
                "pitch": 46,
                "velocity": 25,
                "duration": 0.168181818181818,
                "tempo": 120.0
            },
            {
                "start_time": 21.936363636363634,
                "end_time": 22.004545454545454,
                "pitch": 46,
                "velocity": 25,
                "duration": 0.06818181818182012,
                "tempo": 120.0
            },
            {
                "start_time": 22.020454545454545,
                "end_time": 22.086363636363636,
                "pitch": 46,
                "velocity": 25,
                "duration": 0.06590909090909136,
                "tempo": 120.0
            },
            {
                "start_time": 22.120454545454546,
                "end_time": 22.188636363636363,
                "pitch": 46,
                "velocity": 25,
                "duration": 0.06818181818181657,
                "tempo": 120.0
            },
            {
                "start_time": 22.204545454545453,
                "end_time": 22.270454545454545,
                "pitch": 46,
                "velocity": 25,
                "duration": 0.06590909090909136,
                "tempo": 120.0
            },
            {
                "start_time": 22.288636363636364,
                "end_time": 22.456818181818182,
                "pitch": 46,
                "velocity": 25,
                "duration": 0.168181818181818,
                "tempo": 120.0
            },
            {
                "start_time": 22.474999999999998,
                "end_time": 22.543181818181818,
                "pitch": 46,
                "velocity": 25,
                "duration": 0.06818181818182012,
                "tempo": 120.0
            },
            {
                "start_time": 22.55909090909091,
                "end_time": 22.729545454545452,
                "pitch": 44,
                "velocity": 25,
                "duration": 0.1704545454545432,
                "tempo": 120.0
            },
            {
                "start_time": 22.74772727272727,
                "end_time": 22.813636363636363,
                "pitch": 44,
                "velocity": 25,
                "duration": 0.06590909090909136,
                "tempo": 120.0
            },
            {
                "start_time": 22.831818181818182,
                "end_time": 22.99772727272727,
                "pitch": 46,
                "velocity": 25,
                "duration": 0.16590909090908923,
                "tempo": 120.0
            },
            {
                "start_time": 23.01590909090909,
                "end_time": 23.081818181818182,
                "pitch": 46,
                "velocity": 25,
                "duration": 0.06590909090909136,
                "tempo": 120.0
            },
            {
                "start_time": 23.099999999999998,
                "end_time": 23.16590909090909,
                "pitch": 46,
                "velocity": 25,
                "duration": 0.06590909090909136,
                "tempo": 120.0
            },
            {
                "start_time": 23.2,
                "end_time": 23.26590909090909,
                "pitch": 46,
                "velocity": 25,
                "duration": 0.06590909090909136,
                "tempo": 120.0
            },
            {
                "start_time": 23.28181818181818,
                "end_time": 23.349999999999998,
                "pitch": 46,
                "velocity": 25,
                "duration": 0.06818181818181657,
                "tempo": 120.0
            },
            {
                "start_time": 23.36590909090909,
                "end_time": 23.534090909090907,
                "pitch": 46,
                "velocity": 25,
                "duration": 0.168181818181818,
                "tempo": 120.0
            },
            {
                "start_time": 23.549999999999997,
                "end_time": 23.61590909090909,
                "pitch": 46,
                "velocity": 25,
                "duration": 0.06590909090909136,
                "tempo": 120.0
            },
            {
                "start_time": 23.634090909090908,
                "end_time": 23.799999999999997,
                "pitch": 46,
                "velocity": 25,
                "duration": 0.16590909090908923,
                "tempo": 120.0
            },
            {
                "start_time": 23.81590909090909,
                "end_time": 23.884090909090908,
                "pitch": 46,
                "velocity": 25,
                "duration": 0.06818181818181657,
                "tempo": 120.0
            },
            {
                "start_time": 23.9,
                "end_time": 24.068181818181817,
                "pitch": 46,
                "velocity": 25,
                "duration": 0.168181818181818,
                "tempo": 120.0
            },
            {
                "start_time": 24.084090909090907,
                "end_time": 24.15,
                "pitch": 46,
                "velocity": 25,
                "duration": 0.06590909090909136,
                "tempo": 120.0
            },
            {
                "start_time": 24.168181818181818,
                "end_time": 24.23409090909091,
                "pitch": 46,
                "velocity": 25,
                "duration": 0.06590909090909136,
                "tempo": 120.0
            },
            {
                "start_time": 24.268181818181816,
                "end_time": 24.334090909090907,
                "pitch": 46,
                "velocity": 25,
                "duration": 0.06590909090909136,
                "tempo": 120.0
            },
            {
                "start_time": 24.352272727272727,
                "end_time": 24.418181818181818,
                "pitch": 46,
                "velocity": 25,
                "duration": 0.06590909090909136,
                "tempo": 120.0
            },
            {
                "start_time": 24.43409090909091,
                "end_time": 24.604545454545452,
                "pitch": 46,
                "velocity": 25,
                "duration": 0.1704545454545432,
                "tempo": 120.0
            },
            {
                "start_time": 24.62272727272727,
                "end_time": 24.69090909090909,
                "pitch": 46,
                "velocity": 25,
                "duration": 0.06818181818182012,
                "tempo": 120.0
            },
            {
                "start_time": 24.706818181818182,
                "end_time": 24.877272727272725,
                "pitch": 46,
                "velocity": 25,
                "duration": 0.1704545454545432,
                "tempo": 120.0
            },
            {
                "start_time": 24.893181818181816,
                "end_time": 24.961363636363636,
                "pitch": 46,
                "velocity": 25,
                "duration": 0.06818181818182012,
                "tempo": 120.0
            },
            {
                "start_time": 24.979545454545452,
                "end_time": 25.145454545454545,
                "pitch": 46,
                "velocity": 25,
                "duration": 0.16590909090909278,
                "tempo": 120.0
            },
            {
                "start_time": 25.161363636363635,
                "end_time": 25.229545454545452,
                "pitch": 46,
                "velocity": 25,
                "duration": 0.06818181818181657,
                "tempo": 120.0
            },
            {
                "start_time": 25.245454545454542,
                "end_time": 25.413636363636364,
                "pitch": 46,
                "velocity": 25,
                "duration": 0.16818181818182154,
                "tempo": 120.0
            },
            {
                "start_time": 25.429545454545455,
                "end_time": 25.495454545454542,
                "pitch": 46,
                "velocity": 25,
                "duration": 0.06590909090908781,
                "tempo": 120.0
            },
            {
                "start_time": 25.513636363636362,
                "end_time": 25.68409090909091,
                "pitch": 44,
                "velocity": 25,
                "duration": 0.17045454545454675,
                "tempo": 120.0
            },
            {
                "start_time": 25.7,
                "end_time": 25.768181818181816,
                "pitch": 46,
                "velocity": 25,
                "duration": 0.06818181818181657,
                "tempo": 120.0
            },
            {
                "start_time": 25.784090909090907,
                "end_time": 25.954545454545453,
                "pitch": 46,
                "velocity": 25,
                "duration": 0.17045454545454675,
                "tempo": 120.0
            },
            {
                "start_time": 25.972727272727273,
                "end_time": 26.04090909090909,
                "pitch": 46,
                "velocity": 25,
                "duration": 0.06818181818181657,
                "tempo": 120.0
            },
            {
                "start_time": 26.05681818181818,
                "end_time": 26.224999999999998,
                "pitch": 46,
                "velocity": 25,
                "duration": 0.168181818181818,
                "tempo": 120.0
            },
            {
                "start_time": 26.24090909090909,
                "end_time": 26.30681818181818,
                "pitch": 46,
                "velocity": 25,
                "duration": 0.06590909090909136,
                "tempo": 120.0
            },
            {
                "start_time": 26.325,
                "end_time": 26.39090909090909,
                "pitch": 46,
                "velocity": 25,
                "duration": 0.06590909090909136,
                "tempo": 120.0
            },
            {
                "start_time": 26.424999999999997,
                "end_time": 26.49090909090909,
                "pitch": 46,
                "velocity": 25,
                "duration": 0.06590909090909136,
                "tempo": 120.0
            },
            {
                "start_time": 26.509090909090908,
                "end_time": 26.575,
                "pitch": 46,
                "velocity": 25,
                "duration": 0.06590909090909136,
                "tempo": 120.0
            },
            {
                "start_time": 26.59090909090909,
                "end_time": 26.759090909090908,
                "pitch": 46,
                "velocity": 25,
                "duration": 0.168181818181818,
                "tempo": 120.0
            },
            {
                "start_time": 26.775,
                "end_time": 26.84090909090909,
                "pitch": 46,
                "velocity": 25,
                "duration": 0.06590909090909136,
                "tempo": 120.0
            },
            {
                "start_time": 26.85909090909091,
                "end_time": 27.10909090909091,
                "pitch": 48,
                "velocity": 25,
                "duration": 0.25,
                "tempo": 120.0
            },
            {
                "start_time": 27.125,
                "end_time": 27.38181818181818,
                "pitch": 48,
                "velocity": 25,
                "duration": 0.25681818181817917,
                "tempo": 120.0
            },
            {
                "start_time": 27.39772727272727,
                "end_time": 27.568181818181817,
                "pitch": 48,
                "velocity": 25,
                "duration": 0.17045454545454675,
                "tempo": 120.0
            },
            {
                "start_time": 27.584090909090907,
                "end_time": 27.652272727272727,
                "pitch": 48,
                "velocity": 25,
                "duration": 0.06818181818182012,
                "tempo": 120.0
            },
            {
                "start_time": 27.670454545454543,
                "end_time": 27.920454545454543,
                "pitch": 48,
                "velocity": 25,
                "duration": 0.25,
                "tempo": 120.0
            },
            {
                "start_time": 27.936363636363634,
                "end_time": 28.104545454545452,
                "pitch": 48,
                "velocity": 25,
                "duration": 0.168181818181818,
                "tempo": 120.0
            },
            {
                "start_time": 28.120454545454542,
                "end_time": 28.186363636363634,
                "pitch": 48,
                "velocity": 25,
                "duration": 0.06590909090909136,
                "tempo": 120.0
            },
            {
                "start_time": 28.204545454545453,
                "end_time": 28.370454545454542,
                "pitch": 48,
                "velocity": 25,
                "duration": 0.16590909090908923,
                "tempo": 120.0
            },
            {
                "start_time": 28.388636363636362,
                "end_time": 28.454545454545453,
                "pitch": 48,
                "velocity": 25,
                "duration": 0.06590909090909136,
                "tempo": 120.0
            },
            {
                "start_time": 28.470454545454544,
                "end_time": 28.638636363636362,
                "pitch": 48,
                "velocity": 25,
                "duration": 0.168181818181818,
                "tempo": 120.0
            },
            {
                "start_time": 28.654545454545453,
                "end_time": 28.722727272727273,
                "pitch": 48,
                "velocity": 25,
                "duration": 0.06818181818182012,
                "tempo": 120.0
            },
            {
                "start_time": 28.738636363636363,
                "end_time": 28.993181818181817,
                "pitch": 48,
                "velocity": 25,
                "duration": 0.25454545454545396,
                "tempo": 120.0
            },
            {
                "start_time": 29.011363636363637,
                "end_time": 29.19772727272727,
                "pitch": 53,
                "velocity": 25,
                "duration": 0.18636363636363384,
                "tempo": 120.0
            },
            {
                "start_time": 29.21363636363636,
                "end_time": 29.23181818181818,
                "pitch": 53,
                "velocity": 25,
                "duration": 0.01818181818181941,
                "tempo": 120.0
            }
        ]
    }
}