{
    "track_id": "Summer Games (FM) - 05 - 100m Dash",
    "mood": "happy",
    "instruments": {
        "Trumpet": [
            {
                "start_time": 0.0,
                "end_time": 0.17954545454545454,
                "pitch": 60,
                "velocity": 25,
                "duration": 0.17954545454545454,
                "tempo": 120.0
            },
            {
                "start_time": 0.19545454545454544,
                "end_time": 0.24545454545454545,
                "pitch": 72,
                "velocity": 25,
                "duration": 0.05000000000000002,
                "tempo": 120.0
            },
            {
                "start_time": 0.5477272727272727,
                "end_time": 0.6318181818181818,
                "pitch": 72,
                "velocity": 25,
                "duration": 0.0840909090909091,
                "tempo": 120.0
            },
            {
                "start_time": 0.9204545454545454,
                "end_time": 1.0068181818181818,
                "pitch": 70,
                "velocity": 25,
                "duration": 0.08636363636363642,
                "tempo": 120.0
            },
            {
                "start_time": 1.2886363636363636,
                "end_time": 1.4954545454545454,
                "pitch": 70,
                "velocity": 25,
                "duration": 0.2068181818181818,
                "tempo": 120.0
            },
            {
                "start_time": 1.5136363636363637,
                "end_time": 1.609090909090909,
                "pitch": 70,
                "velocity": 25,
                "duration": 0.09545454545454524,
                "tempo": 120.0
            },
            {
                "start_time": 1.625,
                "end_time": 1.7954545454545454,
                "pitch": 72,
                "velocity": 25,
                "duration": 0.17045454545454541,
                "tempo": 120.0
            },
            {
                "start_time": 2.120454545454545,
                "end_time": 2.1522727272727273,
                "pitch": 72,
                "velocity": 25,
                "duration": 0.03181818181818219,
                "tempo": 120.0
            },
            {
                "start_time": 2.4863636363636363,
                "end_time": 2.8204545454545453,
                "pitch": 70,
                "velocity": 25,
                "duration": 0.334090909090909,
                "tempo": 120.0
            },
            {
                "start_time": 2.8363636363636364,
                "end_time": 3.1886363636363635,
                "pitch": 68,
                "velocity": 25,
                "duration": 0.35227272727272707,
                "tempo": 120.0
            },
            {
                "start_time": 3.2068181818181816,
                "end_time": 3.4272727272727272,
                "pitch": 68,
                "velocity": 25,
                "duration": 0.22045454545454568,
                "tempo": 120.0
            },
            {
                "start_time": 3.4454545454545453,
                "end_time": 3.5477272727272724,
                "pitch": 68,
                "velocity": 25,
                "duration": 0.10227272727272707,
                "tempo": 120.0
            },
            {
                "start_time": 3.5636363636363635,
                "end_time": 4.0227272727272725,
                "pitch": 70,
                "velocity": 25,
                "duration": 0.459090909090909,
                "tempo": 120.0
            },
            {
                "start_time": 4.040909090909091,
                "end_time": 4.1068181818181815,
                "pitch": 72,
                "velocity": 25,
                "duration": 0.06590909090909047,
                "tempo": 120.0
            },
            {
                "start_time": 4.409090909090909,
                "end_time": 4.743181818181818,
                "pitch": 70,
                "velocity": 25,
                "duration": 0.334090909090909,
                "tempo": 120.0
            },
            {
                "start_time": 4.761363636363636,
                "end_time": 5.111363636363636,
                "pitch": 70,
                "velocity": 25,
                "duration": 0.35000000000000053,
                "tempo": 120.0
            },
            {
                "start_time": 5.127272727272727,
                "end_time": 5.347727272727273,
                "pitch": 70,
                "velocity": 25,
                "duration": 0.22045454545454568,
                "tempo": 120.0
            },
            {
                "start_time": 5.363636363636363,
                "end_time": 5.463636363636363,
                "pitch": 70,
                "velocity": 25,
                "duration": 0.09999999999999964,
                "tempo": 120.0
            },
            {
                "start_time": 5.497727272727272,
                "end_time": 5.959090909090909,
                "pitch": 72,
                "velocity": 25,
                "duration": 0.46136363636363686,
                "tempo": 120.0
            },
            {
                "start_time": 5.975,
                "end_time": 6.056818181818182,
                "pitch": 72,
                "velocity": 25,
                "duration": 0.08181818181818201,
                "tempo": 120.0
            },
            {
                "start_time": 6.327272727272727,
                "end_time": 6.661363636363636,
                "pitch": 72,
                "velocity": 25,
                "duration": 0.334090909090909,
                "tempo": 120.0
            },
            {
                "start_time": 6.695454545454545,
                "end_time": 7.036363636363636,
                "pitch": 77,
                "velocity": 25,
                "duration": 0.34090909090909083,
                "tempo": 120.0
            },
            {
                "start_time": 7.052272727272727,
                "end_time": 7.6454545454545455,
                "pitch": 77,
                "velocity": 25,
                "duration": 0.5931818181818187,
                "tempo": 120.0
            },
            {
                "start_time": 7.661363636363636,
                "end_time": 7.884090909090909,
                "pitch": 60,
                "velocity": 25,
                "duration": 0.22272727272727266,
                "tempo": 120.0
            },
            {
                "start_time": 7.918181818181818,
                "end_time": 7.9840909090909085,
                "pitch": 72,
                "velocity": 25,
                "duration": 0.06590909090909047,
                "tempo": 120.0
            },
            {
                "start_time": 8.268181818181818,
                "end_time": 8.60909090909091,
                "pitch": 72,
                "velocity": 25,
                "duration": 0.3409090909090917,
                "tempo": 120.0
            },
            {
                "start_time": 8.625,
                "end_time": 8.95,
                "pitch": 70,
                "velocity": 25,
                "duration": 0.3249999999999993,
                "tempo": 120.0
            },
            {
                "start_time": 8.968181818181817,
                "end_time": 9.206818181818182,
                "pitch": 70,
                "velocity": 25,
                "duration": 0.2386363636363651,
                "tempo": 120.0
            },
            {
                "start_time": 9.225,
                "end_time": 9.327272727272726,
                "pitch": 70,
                "velocity": 25,
                "duration": 0.10227272727272663,
                "tempo": 120.0
            },
            {
                "start_time": 9.343181818181817,
                "end_time": 9.813636363636363,
                "pitch": 72,
                "velocity": 25,
                "duration": 0.4704545454545457,
                "tempo": 120.0
            },
            {
                "start_time": 9.831818181818182,
                "end_time": 10.165909090909091,
                "pitch": 72,
                "velocity": 25,
                "duration": 0.334090909090909,
                "tempo": 120.0
            },
            {
                "start_time": 10.184090909090909,
                "end_time": 10.540909090909091,
                "pitch": 72,
                "velocity": 25,
                "duration": 0.35681818181818237,
                "tempo": 120.0
            },
            {
                "start_time": 10.556818181818182,
                "end_time": 10.895454545454545,
                "pitch": 70,
                "velocity": 25,
                "duration": 0.33863636363636296,
                "tempo": 120.0
            },
            {
                "start_time": 10.927272727272726,
                "end_time": 11.49090909090909,
                "pitch": 70,
                "velocity": 25,
                "duration": 0.5636363636363644,
                "tempo": 120.0
            },
            {
                "start_time": 11.524999999999999,
                "end_time": 11.85909090909091,
                "pitch": 70,
                "velocity": 25,
                "duration": 0.33409090909091077,
                "tempo": 120.0
            },
            {
                "start_time": 11.877272727272727,
                "end_time": 12.588636363636363,
                "pitch": 70,
                "velocity": 25,
                "duration": 0.711363636363636,
                "tempo": 120.0
            },
            {
                "start_time": 12.604545454545454,
                "end_time": 12.843181818181817,
                "pitch": 70,
                "velocity": 25,
                "duration": 0.2386363636363633,
                "tempo": 120.0
            },
            {
                "start_time": 12.85909090909091,
                "end_time": 13.077272727272726,
                "pitch": 70,
                "velocity": 25,
                "duration": 0.21818181818181692,
                "tempo": 120.0
            },
            {
                "start_time": 13.095454545454546,
                "end_time": 13.195454545454545,
                "pitch": 70,
                "velocity": 25,
                "duration": 0.09999999999999964,
                "tempo": 120.0
            },
            {
                "start_time": 13.211363636363636,
                "end_time": 13.44090909090909,
                "pitch": 70,
                "velocity": 25,
                "duration": 0.2295454545454536,
                "tempo": 120.0
            },
            {
                "start_time": 13.459090909090909,
                "end_time": 14.511363636363635,
                "pitch": 72,
                "velocity": 25,
                "duration": 1.052272727272726,
                "tempo": 120.0
            },
            {
                "start_time": 14.545454545454545,
                "end_time": 15.60681818181818,
                "pitch": 71,
                "velocity": 25,
                "duration": 1.0613636363636356,
                "tempo": 120.0
            },
            {
                "start_time": 15.622727272727271,
                "end_time": 15.911363636363635,
                "pitch": 72,
                "velocity": 25,
                "duration": 0.288636363636364,
                "tempo": 120.0
            },
            {
                "start_time": 15.943181818181817,
                "end_time": 16.172727272727272,
                "pitch": 72,
                "velocity": 25,
                "duration": 0.22954545454545539,
                "tempo": 120.0
            },
            {
                "start_time": 16.19090909090909,
                "end_time": 16.293181818181818,
                "pitch": 72,
                "velocity": 25,
                "duration": 0.10227272727272663,
                "tempo": 120.0
            },
            {
                "start_time": 16.30909090909091,
                "end_time": 16.65,
                "pitch": 70,
                "velocity": 25,
                "duration": 0.34090909090908994,
                "tempo": 120.0
            },
            {
                "start_time": 16.668181818181818,
                "end_time": 16.886363636363637,
                "pitch": 70,
                "velocity": 25,
                "duration": 0.2181818181818187,
                "tempo": 120.0
            },
            {
                "start_time": 16.902272727272727,
                "end_time": 17.020454545454545,
                "pitch": 70,
                "velocity": 25,
                "duration": 0.11818181818181728,
                "tempo": 120.0
            },
            {
                "start_time": 17.054545454545455,
                "end_time": 17.120454545454546,
                "pitch": 72,
                "velocity": 25,
                "duration": 0.06590909090909136,
                "tempo": 120.0
            },
            {
                "start_time": 17.154545454545453,
                "end_time": 17.272727272727273,
                "pitch": 70,
                "velocity": 25,
                "duration": 0.11818181818182083,
                "tempo": 120.0
            },
            {
                "start_time": 17.288636363636364,
                "end_time": 17.60909090909091,
                "pitch": 68,
                "velocity": 25,
                "duration": 0.3204545454545453,
                "tempo": 120.0
            },
            {
                "start_time": 17.625,
                "end_time": 17.881818181818183,
                "pitch": 68,
                "velocity": 25,
                "duration": 0.2568181818181827,
                "tempo": 120.0
            },
            {
                "start_time": 17.9,
                "end_time": 18.018181818181816,
                "pitch": 68,
                "velocity": 25,
                "duration": 0.11818181818181728,
                "tempo": 120.0
            },
            {
                "start_time": 18.036363636363635,
                "end_time": 19.21363636363636,
                "pitch": 68,
                "velocity": 25,
                "duration": 1.177272727272726,
                "tempo": 120.0
            },
            {
                "start_time": 19.229545454545455,
                "end_time": 19.46590909090909,
                "pitch": 48,
                "velocity": 25,
                "duration": 0.23636363636363455,
                "tempo": 120.0
            },
            {
                "start_time": 19.48181818181818,
                "end_time": 19.56590909090909,
                "pitch": 72,
                "velocity": 25,
                "duration": 0.08409090909091077,
                "tempo": 120.0
            },
            {
                "start_time": 19.818181818181817,
                "end_time": 20.19090909090909,
                "pitch": 70,
                "velocity": 25,
                "duration": 0.3727272727272748,
                "tempo": 120.0
            },
            {
                "start_time": 20.209090909090907,
                "end_time": 20.429545454545455,
                "pitch": 72,
                "velocity": 25,
                "duration": 0.22045454545454746,
                "tempo": 120.0
            },
            {
                "start_time": 20.44772727272727,
                "end_time": 20.638636363636362,
                "pitch": 75,
                "velocity": 25,
                "duration": 0.19090909090909136,
                "tempo": 120.0
            },
            {
                "start_time": 20.672727272727272,
                "end_time": 20.768181818181816,
                "pitch": 75,
                "velocity": 25,
                "duration": 0.0954545454545439,
                "tempo": 120.0
            },
            {
                "start_time": 20.784090909090907,
                "end_time": 21.134090909090908,
                "pitch": 70,
                "velocity": 25,
                "duration": 0.3500000000000014,
                "tempo": 120.0
            },
            {
                "start_time": 21.168181818181818,
                "end_time": 21.50681818181818,
                "pitch": 72,
                "velocity": 25,
                "duration": 0.3386363636363612,
                "tempo": 120.0
            },
            {
                "start_time": 21.525,
                "end_time": 21.743181818181817,
                "pitch": 72,
                "velocity": 25,
                "duration": 0.2181818181818187,
                "tempo": 120.0
            },
            {
                "start_time": 21.777272727272727,
                "end_time": 21.877272727272725,
                "pitch": 72,
                "velocity": 25,
                "duration": 0.09999999999999787,
                "tempo": 120.0
            },
            {
                "start_time": 21.893181818181816,
                "end_time": 22.111363636363635,
                "pitch": 72,
                "velocity": 25,
                "duration": 0.2181818181818187,
                "tempo": 120.0
            },
            {
                "start_time": 22.127272727272725,
                "end_time": 22.479545454545452,
                "pitch": 77,
                "velocity": 25,
                "duration": 0.3522727272727266,
                "tempo": 120.0
            },
            {
                "start_time": 22.49772727272727,
                "end_time": 22.83863636363636,
                "pitch": 77,
                "velocity": 25,
                "duration": 0.34090909090908994,
                "tempo": 120.0
            },
            {
                "start_time": 22.854545454545452,
                "end_time": 23.31590909090909,
                "pitch": 72,
                "velocity": 25,
                "duration": 0.46136363636363953,
                "tempo": 120.0
            },
            {
                "start_time": 23.331818181818182,
                "end_time": 23.43181818181818,
                "pitch": 72,
                "velocity": 25,
                "duration": 0.09999999999999787,
                "tempo": 120.0
            },
            {
                "start_time": 23.7,
                "end_time": 23.802272727272726,
                "pitch": 72,
                "velocity": 25,
                "duration": 0.10227272727272663,
                "tempo": 120.0
            },
            {
                "start_time": 24.086363636363636,
                "end_time": 24.40681818181818,
                "pitch": 72,
                "velocity": 25,
                "duration": 0.3204545454545453,
                "tempo": 120.0
            },
            {
                "start_time": 24.422727272727272,
                "end_time": 24.64090909090909,
                "pitch": 72,
                "velocity": 25,
                "duration": 0.2181818181818187,
                "tempo": 120.0
            },
            {
                "start_time": 24.659090909090907,
                "end_time": 24.759090909090908,
                "pitch": 72,
                "velocity": 25,
                "duration": 0.10000000000000142,
                "tempo": 120.0
            },
            {
                "start_time": 24.793181818181818,
                "end_time": 25.01590909090909,
                "pitch": 72,
                "velocity": 25,
                "duration": 0.22272727272727266,
                "tempo": 120.0
            },
            {
                "start_time": 25.03181818181818,
                "end_time": 25.349999999999998,
                "pitch": 70,
                "velocity": 25,
                "duration": 0.31818181818181657,
                "tempo": 120.0
            },
            {
                "start_time": 25.36590909090909,
                "end_time": 25.60681818181818,
                "pitch": 68,
                "velocity": 25,
                "duration": 0.24090909090909207,
                "tempo": 120.0
            },
            {
                "start_time": 25.62272727272727,
                "end_time": 25.720454545454544,
                "pitch": 68,
                "velocity": 25,
                "duration": 0.09772727272727266,
                "tempo": 120.0
            },
            {
                "start_time": 25.736363636363635,
                "end_time": 26.797727272727272,
                "pitch": 68,
                "velocity": 25,
                "duration": 1.0613636363636374,
                "tempo": 120.0
            },
            {
                "start_time": 27.2,
                "end_time": 27.268181818181816,
                "pitch": 70,
                "velocity": 25,
                "duration": 0.06818181818181657,
                "tempo": 120.0
            },
            {
                "start_time": 27.577272727272724,
                "end_time": 27.775,
                "pitch": 70,
                "velocity": 25,
                "duration": 0.19772727272727408,
                "tempo": 120.0
            },
            {
                "start_time": 27.80681818181818,
                "end_time": 27.902272727272727,
                "pitch": 70,
                "velocity": 25,
                "duration": 0.09545454545454746,
                "tempo": 120.0
            },
            {
                "start_time": 27.918181818181818,
                "end_time": 28.347727272727273,
                "pitch": 70,
                "velocity": 25,
                "duration": 0.4295454545454547,
                "tempo": 120.0
            },
            {
                "start_time": 28.36590909090909,
                "end_time": 28.84090909090909,
                "pitch": 70,
                "velocity": 25,
                "duration": 0.4750000000000014,
                "tempo": 120.0
            },
            {
                "start_time": 28.85681818181818,
                "end_time": 29.209090909090907,
                "pitch": 72,
                "velocity": 25,
                "duration": 0.3522727272727266,
                "tempo": 120.0
            },
            {
                "start_time": 29.227272727272727,
                "end_time": 29.445454545454545,
                "pitch": 72,
                "velocity": 25,
                "duration": 0.2181818181818187,
                "tempo": 120.0
            },
            {
                "start_time": 29.461363636363636,
                "end_time": 29.579545454545453,
                "pitch": 72,
                "velocity": 25,
                "duration": 0.11818181818181728,
                "tempo": 120.0
            },
            {
                "start_time": 29.613636363636363,
                "end_time": 29.75,
                "pitch": 72,
                "velocity": 25,
                "duration": 0.1363636363636367,
                "tempo": 120.0
            },
            {
                "start_time": 30.09090909090909,
                "end_time": 30.320454545454545,
                "pitch": 77,
                "velocity": 25,
                "duration": 0.22954545454545539,
                "tempo": 120.0
            },
            {
                "start_time": 30.336363636363636,
                "end_time": 30.549999999999997,
                "pitch": 75,
                "velocity": 25,
                "duration": 0.21363636363636118,
                "tempo": 120.0
            },
            {
                "start_time": 30.565909090909088,
                "end_time": 31.036363636363635,
                "pitch": 72,
                "velocity": 25,
                "duration": 0.47045454545454746,
                "tempo": 120.0
            },
            {
                "start_time": 31.054545454545455,
                "end_time": 31.39090909090909,
                "pitch": 72,
                "velocity": 25,
                "duration": 0.336363636363636,
                "tempo": 120.0
            },
            {
                "start_time": 31.422727272727272,
                "end_time": 32.57272727272727,
                "pitch": 72,
                "velocity": 25,
                "duration": 1.1499999999999986,
                "tempo": 120.0
            },
            {
                "start_time": 32.98181818181818,
                "end_time": 33.08181818181818,
                "pitch": 70,
                "velocity": 25,
                "duration": 0.10000000000000142,
                "tempo": 120.0
            },
            {
                "start_time": 33.1,
                "end_time": 33.33181818181818,
                "pitch": 70,
                "velocity": 25,
                "duration": 0.23181818181817704,
                "tempo": 120.0
            },
            {
                "start_time": 33.35,
                "end_time": 34.470454545454544,
                "pitch": 70,
                "velocity": 25,
                "duration": 1.1204545454545425,
                "tempo": 120.0
            },
            {
                "start_time": 34.675,
                "end_time": 34.89772727272727,
                "pitch": 72,
                "velocity": 25,
                "duration": 0.22272727272727622,
                "tempo": 120.0
            },
            {
                "start_time": 34.913636363636364,
                "end_time": 35.013636363636365,
                "pitch": 72,
                "velocity": 25,
                "duration": 0.10000000000000142,
                "tempo": 120.0
            },
            {
                "start_time": 35.04545454545455,
                "end_time": 35.25909090909091,
                "pitch": 72,
                "velocity": 25,
                "duration": 0.21363636363636118,
                "tempo": 120.0
            },
            {
                "start_time": 35.275,
                "end_time": 35.60909090909091,
                "pitch": 72,
                "velocity": 25,
                "duration": 0.33409090909091077,
                "tempo": 120.0
            },
            {
                "start_time": 36.59318181818182,
                "end_time": 36.69318181818181,
                "pitch": 73,
                "velocity": 25,
                "duration": 0.09999999999999432,
                "tempo": 120.0
            },
            {
                "start_time": 36.711363636363636,
                "end_time": 36.76136363636363,
                "pitch": 73,
                "velocity": 25,
                "duration": 0.04999999999999716,
                "tempo": 120.0
            },
            {
                "start_time": 37.20227272727273,
                "end_time": 37.55227272727272,
                "pitch": 73,
                "velocity": 25,
                "duration": 0.3499999999999943,
                "tempo": 120.0
            },
            {
                "start_time": 37.56818181818181,
                "end_time": 37.89772727272727,
                "pitch": 75,
                "velocity": 25,
                "duration": 0.32954545454546036,
                "tempo": 120.0
            },
            {
                "start_time": 37.91590909090909,
                "end_time": 38.986363636363635,
                "pitch": 75,
                "velocity": 25,
                "duration": 1.0704545454545453,
                "tempo": 120.0
            },
            {
                "start_time": 39.002272727272725,
                "end_time": 39.22272727272727,
                "pitch": 75,
                "velocity": 25,
                "duration": 0.2204545454545439,
                "tempo": 120.0
            },
            {
                "start_time": 39.25454545454545,
                "end_time": 39.459090909090904,
                "pitch": 75,
                "velocity": 25,
                "duration": 0.20454545454545325,
                "tempo": 120.0
            },
            {
                "start_time": 39.73409090909091,
                "end_time": 39.81363636363636,
                "pitch": 72,
                "velocity": 25,
                "duration": 0.07954545454545325,
                "tempo": 120.0
            },
            {
                "start_time": 40.086363636363636,
                "end_time": 40.3,
                "pitch": 72,
                "velocity": 25,
                "duration": 0.21363636363636118,
                "tempo": 120.0
            },
            {
                "start_time": 40.31818181818181,
                "end_time": 41.277272727272724,
                "pitch": 72,
                "velocity": 25,
                "duration": 0.9590909090909108,
                "tempo": 120.0
            },
            {
                "start_time": 41.663636363636364,
                "end_time": 42.00454545454545,
                "pitch": 68,
                "velocity": 25,
                "duration": 0.3409090909090864,
                "tempo": 120.0
            },
            {
                "start_time": 42.02272727272727,
                "end_time": 42.24090909090909,
                "pitch": 73,
                "velocity": 25,
                "duration": 0.2181818181818187,
                "tempo": 120.0
            },
            {
                "start_time": 42.27272727272727,
                "end_time": 43.21818181818182,
                "pitch": 73,
                "velocity": 25,
                "duration": 0.9454545454545453,
                "tempo": 120.0
            },
            {
                "start_time": 43.58863636363636,
                "end_time": 43.929545454545455,
                "pitch": 70,
                "velocity": 25,
                "duration": 0.3409090909090935,
                "tempo": 120.0
            },
            {
                "start_time": 43.945454545454545,
                "end_time": 44.30227272727272,
                "pitch": 75,
                "velocity": 25,
                "duration": 0.35681818181817704,
                "tempo": 120.0
            },
            {
                "start_time": 44.31818181818181,
                "end_time": 44.652272727272724,
                "pitch": 75,
                "velocity": 25,
                "duration": 0.33409090909091077,
                "tempo": 120.0
            },
            {
                "start_time": 44.684090909090905,
                "end_time": 45.01363636363636,
                "pitch": 75,
                "velocity": 25,
                "duration": 0.32954545454545325,
                "tempo": 120.0
            },
            {
                "start_time": 45.02954545454545,
                "end_time": 45.24545454545454,
                "pitch": 72,
                "velocity": 25,
                "duration": 0.2159090909090935,
                "tempo": 120.0
            },
            {
                "start_time": 45.27954545454545,
                "end_time": 46.224999999999994,
                "pitch": 72,
                "velocity": 25,
                "duration": 0.9454545454545453,
                "tempo": 120.0
            }
        ],
        "Electric Guitar (clean)": [
            {
                "start_time": 0.0,
                "end_time": 0.013636363636363636,
                "pitch": 60,
                "velocity": 25,
                "duration": 0.013636363636363636,
                "tempo": 120.0
            },
            {
                "start_time": 0.02727272727272727,
                "end_time": 0.21136363636363636,
                "pitch": 65,
                "velocity": 25,
                "duration": 0.18409090909090908,
                "tempo": 120.0
            },
            {
                "start_time": 0.22954545454545452,
                "end_time": 0.2954545454545454,
                "pitch": 77,
                "velocity": 25,
                "duration": 0.06590909090909089,
                "tempo": 120.0
            },
            {
                "start_time": 0.5977272727272727,
                "end_time": 0.6477272727272727,
                "pitch": 75,
                "velocity": 25,
                "duration": 0.050000000000000044,
                "tempo": 120.0
            },
            {
                "start_time": 0.9545454545454545,
                "end_time": 1.3045454545454545,
                "pitch": 74,
                "velocity": 25,
                "duration": 0.35,
                "tempo": 120.0
            },
            {
                "start_time": 1.3204545454545453,
                "end_time": 1.5295454545454545,
                "pitch": 74,
                "velocity": 25,
                "duration": 0.20909090909090922,
                "tempo": 120.0
            },
            {
                "start_time": 1.5454545454545454,
                "end_time": 1.6409090909090909,
                "pitch": 74,
                "velocity": 25,
                "duration": 0.09545454545454546,
                "tempo": 120.0
            },
            {
                "start_time": 1.6749999999999998,
                "end_time": 1.8795454545454544,
                "pitch": 75,
                "velocity": 25,
                "duration": 0.20454545454545459,
                "tempo": 120.0
            },
            {
                "start_time": 2.1522727272727273,
                "end_time": 2.2204545454545452,
                "pitch": 77,
                "velocity": 25,
                "duration": 0.0681818181818179,
                "tempo": 120.0
            },
            {
                "start_time": 2.5204545454545455,
                "end_time": 2.852272727272727,
                "pitch": 75,
                "velocity": 25,
                "duration": 0.33181818181818157,
                "tempo": 120.0
            },
            {
                "start_time": 2.8863636363636362,
                "end_time": 3.2227272727272727,
                "pitch": 73,
                "velocity": 25,
                "duration": 0.3363636363636364,
                "tempo": 120.0
            },
            {
                "start_time": 3.2409090909090907,
                "end_time": 3.461363636363636,
                "pitch": 73,
                "velocity": 25,
                "duration": 0.22045454545454524,
                "tempo": 120.0
            },
            {
                "start_time": 3.495454545454545,
                "end_time": 3.5977272727272727,
                "pitch": 73,
                "velocity": 25,
                "duration": 0.10227272727272751,
                "tempo": 120.0
            },
            {
                "start_time": 3.6136363636363633,
                "end_time": 3.793181818181818,
                "pitch": 75,
                "velocity": 25,
                "duration": 0.17954545454545467,
                "tempo": 120.0
            },
            {
                "start_time": 3.843181818181818,
                "end_time": 4.056818181818182,
                "pitch": 65,
                "velocity": 25,
                "duration": 0.21363636363636385,
                "tempo": 120.0
            },
            {
                "start_time": 4.090909090909091,
                "end_time": 4.140909090909091,
                "pitch": 77,
                "velocity": 25,
                "duration": 0.04999999999999982,
                "tempo": 120.0
            },
            {
                "start_time": 4.443181818181818,
                "end_time": 4.511363636363636,
                "pitch": 75,
                "velocity": 25,
                "duration": 0.06818181818181746,
                "tempo": 120.0
            },
            {
                "start_time": 4.8113636363636365,
                "end_time": 5.1454545454545455,
                "pitch": 74,
                "velocity": 25,
                "duration": 0.334090909090909,
                "tempo": 120.0
            },
            {
                "start_time": 5.161363636363636,
                "end_time": 5.3977272727272725,
                "pitch": 74,
                "velocity": 25,
                "duration": 0.23636363636363633,
                "tempo": 120.0
            },
            {
                "start_time": 5.413636363636363,
                "end_time": 5.515909090909091,
                "pitch": 74,
                "velocity": 25,
                "duration": 0.10227272727272751,
                "tempo": 120.0
            },
            {
                "start_time": 5.531818181818181,
                "end_time": 5.736363636363636,
                "pitch": 75,
                "velocity": 25,
                "duration": 0.20454545454545503,
                "tempo": 120.0
            },
            {
                "start_time": 6.0227272727272725,
                "end_time": 6.072727272727272,
                "pitch": 77,
                "velocity": 25,
                "duration": 0.04999999999999982,
                "tempo": 120.0
            },
            {
                "start_time": 6.361363636363636,
                "end_time": 6.713636363636363,
                "pitch": 75,
                "velocity": 25,
                "duration": 0.3522727272727266,
                "tempo": 120.0
            },
            {
                "start_time": 6.7295454545454545,
                "end_time": 7.070454545454545,
                "pitch": 82,
                "velocity": 25,
                "duration": 0.34090909090909083,
                "tempo": 120.0
            },
            {
                "start_time": 7.102272727272727,
                "end_time": 7.6454545454545455,
                "pitch": 82,
                "velocity": 25,
                "duration": 0.5431818181818189,
                "tempo": 120.0
            },
            {
                "start_time": 7.949999999999999,
                "end_time": 8.284090909090908,
                "pitch": 77,
                "velocity": 25,
                "duration": 0.334090909090909,
                "tempo": 120.0
            },
            {
                "start_time": 8.318181818181818,
                "end_time": 8.64090909090909,
                "pitch": 75,
                "velocity": 25,
                "duration": 0.3227272727272723,
                "tempo": 120.0
            },
            {
                "start_time": 8.656818181818181,
                "end_time": 9.002272727272727,
                "pitch": 74,
                "velocity": 25,
                "duration": 0.3454545454545457,
                "tempo": 120.0
            },
            {
                "start_time": 9.020454545454545,
                "end_time": 9.24090909090909,
                "pitch": 74,
                "velocity": 25,
                "duration": 0.22045454545454568,
                "tempo": 120.0
            },
            {
                "start_time": 9.259090909090908,
                "end_time": 9.361363636363636,
                "pitch": 74,
                "velocity": 25,
                "duration": 0.1022727272727284,
                "tempo": 120.0
            },
            {
                "start_time": 9.377272727272727,
                "end_time": 9.847727272727273,
                "pitch": 75,
                "velocity": 25,
                "duration": 0.4704545454545457,
                "tempo": 120.0
            },
            {
                "start_time": 9.863636363636363,
                "end_time": 10.218181818181817,
                "pitch": 77,
                "velocity": 25,
                "duration": 0.3545454545454536,
                "tempo": 120.0
            },
            {
                "start_time": 10.23409090909091,
                "end_time": 10.575,
                "pitch": 75,
                "velocity": 25,
                "duration": 0.34090909090908994,
                "tempo": 120.0
            },
            {
                "start_time": 10.59090909090909,
                "end_time": 10.943181818181818,
                "pitch": 73,
                "velocity": 25,
                "duration": 0.3522727272727284,
                "tempo": 120.0
            },
            {
                "start_time": 10.961363636363636,
                "end_time": 11.540909090909091,
                "pitch": 73,
                "velocity": 25,
                "duration": 0.579545454545455,
                "tempo": 120.0
            },
            {
                "start_time": 11.556818181818182,
                "end_time": 11.625,
                "pitch": 73,
                "velocity": 25,
                "duration": 0.06818181818181834,
                "tempo": 120.0
            },
            {
                "start_time": 11.927272727272726,
                "end_time": 12.638636363636364,
                "pitch": 75,
                "velocity": 25,
                "duration": 0.7113636363636378,
                "tempo": 120.0
            },
            {
                "start_time": 12.656818181818181,
                "end_time": 12.875,
                "pitch": 75,
                "velocity": 25,
                "duration": 0.2181818181818187,
                "tempo": 120.0
            },
            {
                "start_time": 12.893181818181818,
                "end_time": 13.111363636363636,
                "pitch": 75,
                "velocity": 25,
                "duration": 0.2181818181818187,
                "tempo": 120.0
            },
            {
                "start_time": 13.145454545454545,
                "end_time": 13.245454545454544,
                "pitch": 75,
                "velocity": 25,
                "duration": 0.09999999999999964,
                "tempo": 120.0
            },
            {
                "start_time": 13.261363636363635,
                "end_time": 13.475,
                "pitch": 75,
                "velocity": 25,
                "duration": 0.21363636363636473,
                "tempo": 120.0
            },
            {
                "start_time": 13.49090909090909,
                "end_time": 14.561363636363636,
                "pitch": 77,
                "velocity": 25,
                "duration": 1.0704545454545453,
                "tempo": 120.0
            },
            {
                "start_time": 14.577272727272726,
                "end_time": 14.679545454545455,
                "pitch": 77,
                "velocity": 25,
                "duration": 0.1022727272727284,
                "tempo": 120.0
            },
            {
                "start_time": 14.695454545454545,
                "end_time": 14.797727272727272,
                "pitch": 77,
                "velocity": 25,
                "duration": 0.10227272727272663,
                "tempo": 120.0
            },
            {
                "start_time": 14.81590909090909,
                "end_time": 14.918181818181818,
                "pitch": 77,
                "velocity": 25,
                "duration": 0.1022727272727284,
                "tempo": 120.0
            },
            {
                "start_time": 14.952272727272726,
                "end_time": 15.406818181818181,
                "pitch": 77,
                "velocity": 25,
                "duration": 0.45454545454545503,
                "tempo": 120.0
            },
            {
                "start_time": 15.424999999999999,
                "end_time": 15.656818181818181,
                "pitch": 53,
                "velocity": 25,
                "duration": 0.23181818181818237,
                "tempo": 120.0
            },
            {
                "start_time": 15.672727272727272,
                "end_time": 15.704545454545453,
                "pitch": 77,
                "velocity": 25,
                "duration": 0.0318181818181813,
                "tempo": 120.0
            },
            {
                "start_time": 16.009090909090908,
                "end_time": 16.24090909090909,
                "pitch": 75,
                "velocity": 25,
                "duration": 0.2318181818181806,
                "tempo": 120.0
            },
            {
                "start_time": 16.259090909090908,
                "end_time": 16.361363636363635,
                "pitch": 75,
                "velocity": 25,
                "duration": 0.10227272727272663,
                "tempo": 120.0
            },
            {
                "start_time": 16.379545454545454,
                "end_time": 16.46363636363636,
                "pitch": 74,
                "velocity": 25,
                "duration": 0.08409090909090722,
                "tempo": 120.0
            },
            {
                "start_time": 16.752272727272725,
                "end_time": 16.970454545454544,
                "pitch": 74,
                "velocity": 25,
                "duration": 0.2181818181818187,
                "tempo": 120.0
            },
            {
                "start_time": 16.986363636363635,
                "end_time": 17.086363636363636,
                "pitch": 74,
                "velocity": 25,
                "duration": 0.10000000000000142,
                "tempo": 120.0
            },
            {
                "start_time": 17.104545454545455,
                "end_time": 17.204545454545453,
                "pitch": 75,
                "velocity": 25,
                "duration": 0.09999999999999787,
                "tempo": 120.0
            },
            {
                "start_time": 17.222727272727273,
                "end_time": 17.32272727272727,
                "pitch": 74,
                "velocity": 25,
                "duration": 0.09999999999999787,
                "tempo": 120.0
            },
            {
                "start_time": 17.35681818181818,
                "end_time": 17.40681818181818,
                "pitch": 73,
                "velocity": 25,
                "duration": 0.05000000000000071,
                "tempo": 120.0
            },
            {
                "start_time": 17.711363636363636,
                "end_time": 17.93409090909091,
                "pitch": 72,
                "velocity": 25,
                "duration": 0.22272727272727266,
                "tempo": 120.0
            },
            {
                "start_time": 17.96818181818182,
                "end_time": 18.068181818181817,
                "pitch": 72,
                "velocity": 25,
                "duration": 0.09999999999999787,
                "tempo": 120.0
            },
            {
                "start_time": 18.084090909090907,
                "end_time": 18.977272727272727,
                "pitch": 73,
                "velocity": 25,
                "duration": 0.8931818181818194,
                "tempo": 120.0
            },
            {
                "start_time": 19.51590909090909,
                "end_time": 19.56590909090909,
                "pitch": 75,
                "velocity": 25,
                "duration": 0.05000000000000071,
                "tempo": 120.0
            },
            {
                "start_time": 19.886363636363637,
                "end_time": 19.918181818181818,
                "pitch": 73,
                "velocity": 25,
                "duration": 0.0318181818181813,
                "tempo": 120.0
            },
            {
                "start_time": 20.243181818181817,
                "end_time": 20.479545454545452,
                "pitch": 75,
                "velocity": 25,
                "duration": 0.23636363636363455,
                "tempo": 120.0
            },
            {
                "start_time": 20.495454545454546,
                "end_time": 20.704545454545453,
                "pitch": 79,
                "velocity": 25,
                "duration": 0.20909090909090722,
                "tempo": 120.0
            },
            {
                "start_time": 20.720454545454544,
                "end_time": 20.81590909090909,
                "pitch": 79,
                "velocity": 25,
                "duration": 0.09545454545454746,
                "tempo": 120.0
            },
            {
                "start_time": 20.831818181818182,
                "end_time": 21.18409090909091,
                "pitch": 75,
                "velocity": 25,
                "duration": 0.3522727272727266,
                "tempo": 120.0
            },
            {
                "start_time": 21.202272727272724,
                "end_time": 21.270454545454545,
                "pitch": 77,
                "velocity": 25,
                "duration": 0.06818181818182012,
                "tempo": 120.0
            },
            {
                "start_time": 21.575,
                "end_time": 21.793181818181818,
                "pitch": 75,
                "velocity": 25,
                "duration": 0.2181818181818187,
                "tempo": 120.0
            },
            {
                "start_time": 21.811363636363634,
                "end_time": 21.911363636363635,
                "pitch": 75,
                "velocity": 25,
                "duration": 0.10000000000000142,
                "tempo": 120.0
            },
            {
                "start_time": 21.927272727272726,
                "end_time": 22.143181818181816,
                "pitch": 77,
                "velocity": 25,
                "duration": 0.21590909090908994,
                "tempo": 120.0
            },
            {
                "start_time": 22.177272727272726,
                "end_time": 22.513636363636362,
                "pitch": 82,
                "velocity": 25,
                "duration": 0.336363636363636,
                "tempo": 120.0
            },
            {
                "start_time": 22.53181818181818,
                "end_time": 22.888636363636362,
                "pitch": 81,
                "velocity": 25,
                "duration": 0.3568181818181806,
                "tempo": 120.0
            },
            {
                "start_time": 22.904545454545453,
                "end_time": 23.118181818181817,
                "pitch": 77,
                "velocity": 25,
                "duration": 0.21363636363636473,
                "tempo": 120.0
            },
            {
                "start_time": 23.134090909090908,
                "end_time": 23.347727272727273,
                "pitch": 53,
                "velocity": 25,
                "duration": 0.21363636363636473,
                "tempo": 120.0
            },
            {
                "start_time": 23.38181818181818,
                "end_time": 23.41590909090909,
                "pitch": 77,
                "velocity": 25,
                "duration": 0.03409090909091006,
                "tempo": 120.0
            },
            {
                "start_time": 23.73409090909091,
                "end_time": 23.952272727272724,
                "pitch": 75,
                "velocity": 25,
                "duration": 0.21818181818181515,
                "tempo": 120.0
            },
            {
                "start_time": 23.986363636363635,
                "end_time": 24.086363636363636,
                "pitch": 75,
                "velocity": 25,
                "duration": 0.10000000000000142,
                "tempo": 120.0
            },
            {
                "start_time": 24.104545454545452,
                "end_time": 24.188636363636363,
                "pitch": 74,
                "velocity": 25,
                "duration": 0.08409090909091077,
                "tempo": 120.0
            },
            {
                "start_time": 24.456818181818182,
                "end_time": 24.693181818181817,
                "pitch": 74,
                "velocity": 25,
                "duration": 0.23636363636363455,
                "tempo": 120.0
            },
            {
                "start_time": 24.709090909090907,
                "end_time": 24.80909090909091,
                "pitch": 74,
                "velocity": 25,
                "duration": 0.10000000000000142,
                "tempo": 120.0
            },
            {
                "start_time": 24.827272727272724,
                "end_time": 24.929545454545455,
                "pitch": 75,
                "velocity": 25,
                "duration": 0.10227272727273018,
                "tempo": 120.0
            },
            {
                "start_time": 24.94772727272727,
                "end_time": 25.049999999999997,
                "pitch": 74,
                "velocity": 25,
                "duration": 0.10227272727272663,
                "tempo": 120.0
            },
            {
                "start_time": 25.06590909090909,
                "end_time": 25.134090909090908,
                "pitch": 73,
                "velocity": 25,
                "duration": 0.06818181818181657,
                "tempo": 120.0
            },
            {
                "start_time": 25.43181818181818,
                "end_time": 25.638636363636362,
                "pitch": 72,
                "velocity": 25,
                "duration": 0.206818181818182,
                "tempo": 120.0
            },
            {
                "start_time": 25.654545454545453,
                "end_time": 25.752272727272725,
                "pitch": 72,
                "velocity": 25,
                "duration": 0.09772727272727266,
                "tempo": 120.0
            },
            {
                "start_time": 25.786363636363635,
                "end_time": 26.69772727272727,
                "pitch": 73,
                "velocity": 25,
                "duration": 0.9113636363636353,
                "tempo": 120.0
            },
            {
                "start_time": 27.23409090909091,
                "end_time": 27.33863636363636,
                "pitch": 75,
                "velocity": 25,
                "duration": 0.10454545454545183,
                "tempo": 120.0
            },
            {
                "start_time": 27.354545454545452,
                "end_time": 27.577272727272724,
                "pitch": 74,
                "velocity": 25,
                "duration": 0.22272727272727266,
                "tempo": 120.0
            },
            {
                "start_time": 27.611363636363635,
                "end_time": 27.82272727272727,
                "pitch": 75,
                "velocity": 25,
                "duration": 0.21136363636363598,
                "tempo": 120.0
            },
            {
                "start_time": 27.83863636363636,
                "end_time": 27.93409090909091,
                "pitch": 74,
                "velocity": 25,
                "duration": 0.09545454545454746,
                "tempo": 120.0
            },
            {
                "start_time": 27.952272727272724,
                "end_time": 28.063636363636363,
                "pitch": 74,
                "velocity": 25,
                "duration": 0.11136363636363811,
                "tempo": 120.0
            },
            {
                "start_time": 28.43409090909091,
                "end_time": 28.90681818181818,
                "pitch": 79,
                "velocity": 25,
                "duration": 0.47272727272727266,
                "tempo": 120.0
            },
            {
                "start_time": 28.924999999999997,
                "end_time": 29.259090909090908,
                "pitch": 77,
                "velocity": 25,
                "duration": 0.33409090909091077,
                "tempo": 120.0
            },
            {
                "start_time": 29.277272727272727,
                "end_time": 29.511363636363637,
                "pitch": 75,
                "velocity": 25,
                "duration": 0.23409090909090935,
                "tempo": 120.0
            },
            {
                "start_time": 29.529545454545453,
                "end_time": 29.629545454545454,
                "pitch": 75,
                "velocity": 25,
                "duration": 0.10000000000000142,
                "tempo": 120.0
            },
            {
                "start_time": 29.64772727272727,
                "end_time": 30.125,
                "pitch": 77,
                "velocity": 25,
                "duration": 0.4772727272727302,
                "tempo": 120.0
            },
            {
                "start_time": 30.14090909090909,
                "end_time": 30.354545454545452,
                "pitch": 82,
                "velocity": 25,
                "duration": 0.21363636363636118,
                "tempo": 120.0
            },
            {
                "start_time": 30.370454545454542,
                "end_time": 30.584090909090907,
                "pitch": 81,
                "velocity": 25,
                "duration": 0.21363636363636473,
                "tempo": 120.0
            },
            {
                "start_time": 30.618181818181817,
                "end_time": 30.836363636363636,
                "pitch": 79,
                "velocity": 25,
                "duration": 0.2181818181818187,
                "tempo": 120.0
            },
            {
                "start_time": 30.852272727272727,
                "end_time": 30.952272727272724,
                "pitch": 60,
                "velocity": 25,
                "duration": 0.09999999999999787,
                "tempo": 120.0
            },
            {
                "start_time": 30.970454545454544,
                "end_time": 31.070454545454545,
                "pitch": 60,
                "velocity": 25,
                "duration": 0.10000000000000142,
                "tempo": 120.0
            },
            {
                "start_time": 31.08863636363636,
                "end_time": 31.440909090909088,
                "pitch": 77,
                "velocity": 25,
                "duration": 0.3522727272727266,
                "tempo": 120.0
            },
            {
                "start_time": 31.456818181818182,
                "end_time": 32.638636363636365,
                "pitch": 76,
                "velocity": 25,
                "duration": 1.1818181818181834,
                "tempo": 120.0
            },
            {
                "start_time": 33.03181818181818,
                "end_time": 33.13181818181818,
                "pitch": 75,
                "velocity": 25,
                "duration": 0.10000000000000142,
                "tempo": 120.0
            },
            {
                "start_time": 33.15,
                "end_time": 33.36590909090909,
                "pitch": 74,
                "velocity": 25,
                "duration": 0.2159090909090935,
                "tempo": 120.0
            },
            {
                "start_time": 33.38181818181818,
                "end_time": 34.57272727272727,
                "pitch": 75,
                "velocity": 25,
                "duration": 1.1909090909090878,
                "tempo": 120.0
            },
            {
                "start_time": 34.70909090909091,
                "end_time": 34.94772727272727,
                "pitch": 77,
                "velocity": 25,
                "duration": 0.23863636363635976,
                "tempo": 120.0
            },
            {
                "start_time": 34.96363636363636,
                "end_time": 35.06136363636364,
                "pitch": 77,
                "velocity": 25,
                "duration": 0.09772727272727622,
                "tempo": 120.0
            },
            {
                "start_time": 35.07954545454545,
                "end_time": 35.29090909090909,
                "pitch": 77,
                "velocity": 25,
                "duration": 0.21136363636363598,
                "tempo": 120.0
            },
            {
                "start_time": 35.309090909090905,
                "end_time": 36.49318181818182,
                "pitch": 76,
                "velocity": 25,
                "duration": 1.1840909090909122,
                "tempo": 120.0
            },
            {
                "start_time": 36.643181818181816,
                "end_time": 36.74318181818182,
                "pitch": 77,
                "velocity": 25,
                "duration": 0.10000000000000142,
                "tempo": 120.0
            },
            {
                "start_time": 36.76136363636363,
                "end_time": 36.793181818181814,
                "pitch": 77,
                "velocity": 25,
                "duration": 0.0318181818181813,
                "tempo": 120.0
            },
            {
                "start_time": 37.25454545454545,
                "end_time": 37.58409090909091,
                "pitch": 77,
                "velocity": 25,
                "duration": 0.32954545454546036,
                "tempo": 120.0
            },
            {
                "start_time": 37.6,
                "end_time": 38.0,
                "pitch": 79,
                "velocity": 25,
                "duration": 0.3999999999999986,
                "tempo": 120.0
            },
            {
                "start_time": 38.01590909090909,
                "end_time": 39.02045454545454,
                "pitch": 79,
                "velocity": 25,
                "duration": 1.0045454545454504,
                "tempo": 120.0
            },
            {
                "start_time": 39.054545454545455,
                "end_time": 39.27272727272727,
                "pitch": 79,
                "velocity": 25,
                "duration": 0.2181818181818187,
                "tempo": 120.0
            },
            {
                "start_time": 39.288636363636364,
                "end_time": 39.51136363636363,
                "pitch": 79,
                "velocity": 25,
                "duration": 0.2227272727272691,
                "tempo": 120.0
            },
            {
                "start_time": 39.529545454545456,
                "end_time": 39.76590909090909,
                "pitch": 60,
                "velocity": 25,
                "duration": 0.23636363636363455,
                "tempo": 120.0
            },
            {
                "start_time": 39.78181818181818,
                "end_time": 39.82954545454545,
                "pitch": 77,
                "velocity": 25,
                "duration": 0.04772727272727195,
                "tempo": 120.0
            },
            {
                "start_time": 40.11818181818182,
                "end_time": 40.35227272727273,
                "pitch": 76,
                "velocity": 25,
                "duration": 0.23409090909090935,
                "tempo": 120.0
            },
            {
                "start_time": 40.36818181818182,
                "end_time": 41.22727272727273,
                "pitch": 77,
                "velocity": 25,
                "duration": 0.8590909090909093,
                "tempo": 120.0
            },
            {
                "start_time": 41.69772727272727,
                "end_time": 41.78181818181818,
                "pitch": 73,
                "velocity": 25,
                "duration": 0.08409090909091077,
                "tempo": 120.0
            },
            {
                "start_time": 42.07272727272727,
                "end_time": 42.288636363636364,
                "pitch": 79,
                "velocity": 25,
                "duration": 0.2159090909090935,
                "tempo": 120.0
            },
            {
                "start_time": 42.304545454545455,
                "end_time": 43.37045454545454,
                "pitch": 77,
                "velocity": 25,
                "duration": 1.0659090909090878,
                "tempo": 120.0
            },
            {
                "start_time": 43.38636363636363,
                "end_time": 43.60454545454545,
                "pitch": 63,
                "velocity": 25,
                "duration": 0.2181818181818187,
                "tempo": 120.0
            },
            {
                "start_time": 43.62272727272727,
                "end_time": 43.97954545454545,
                "pitch": 75,
                "velocity": 25,
                "duration": 0.35681818181818414,
                "tempo": 120.0
            },
            {
                "start_time": 43.99772727272727,
                "end_time": 44.334090909090904,
                "pitch": 79,
                "velocity": 25,
                "duration": 0.336363636363636,
                "tempo": 120.0
            },
            {
                "start_time": 44.35227272727273,
                "end_time": 44.699999999999996,
                "pitch": 82,
                "velocity": 25,
                "duration": 0.3477272727272691,
                "tempo": 120.0
            },
            {
                "start_time": 44.71818181818182,
                "end_time": 45.04545454545455,
                "pitch": 81,
                "velocity": 25,
                "duration": 0.32727272727272805,
                "tempo": 120.0
            },
            {
                "start_time": 45.07954545454545,
                "end_time": 45.29545454545455,
                "pitch": 77,
                "velocity": 25,
                "duration": 0.2159090909090935,
                "tempo": 120.0
            },
            {
                "start_time": 45.31136363636364,
                "end_time": 46.25909090909091,
                "pitch": 81,
                "velocity": 25,
                "duration": 0.9477272727272705,
                "tempo": 120.0
            }
        ]
    }
}