{
    "track_id": "Summer Games (FM) - 10 - 100m Freestyle End",
    "mood": "happy",
    "instruments": {
        "Oboe": [
            {
                "start_time": 0.3068181818181818,
                "end_time": 0.3977272727272727,
                "pitch": 71,
                "velocity": 25,
                "duration": 0.09090909090909088,
                "tempo": 120.0
            },
            {
                "start_time": 0.4113636363636363,
                "end_time": 0.5,
                "pitch": 69,
                "velocity": 25,
                "duration": 0.08863636363636368,
                "tempo": 120.0
            },
            {
                "start_time": 0.5227272727272727,
                "end_time": 0.7659090909090909,
                "pitch": 64,
                "velocity": 25,
                "duration": 0.24318181818181817,
                "tempo": 120.0
            },
            {
                "start_time": 0.8022727272727272,
                "end_time": 1.0454545454545454,
                "pitch": 61,
                "velocity": 25,
                "duration": 0.24318181818181817,
                "tempo": 120.0
            },
            {
                "start_time": 1.3613636363636363,
                "end_time": 1.6068181818181817,
                "pitch": 61,
                "velocity": 25,
                "duration": 0.24545454545454537,
                "tempo": 120.0
            },
            {
                "start_time": 1.6409090909090909,
                "end_time": 1.8863636363636362,
                "pitch": 62,
                "velocity": 25,
                "duration": 0.24545454545454537,
                "tempo": 120.0
            },
            {
                "start_time": 2.1999999999999997,
                "end_time": 2.4454545454545453,
                "pitch": 62,
                "velocity": 25,
                "duration": 0.2454545454545456,
                "tempo": 120.0
            },
            {
                "start_time": 2.4795454545454545,
                "end_time": 2.725,
                "pitch": 62,
                "velocity": 25,
                "duration": 0.2454545454545456,
                "tempo": 120.0
            },
            {
                "start_time": 2.759090909090909,
                "end_time": 6.0,
                "pitch": 61,
                "velocity": 25,
                "duration": 3.240909090909091,
                "tempo": 120.0
            }
        ],
        "Acoustic Bass": [
            {
                "start_time": 0.3068181818181818,
                "end_time": 0.3977272727272727,
                "pitch": 45,
                "velocity": 32,
                "duration": 0.09090909090909088,
                "tempo": 120.0
            },
            {
                "start_time": 0.4113636363636363,
                "end_time": 0.5,
                "pitch": 45,
                "velocity": 32,
                "duration": 0.08863636363636368,
                "tempo": 120.0
            },
            {
                "start_time": 0.5227272727272727,
                "end_time": 0.7659090909090909,
                "pitch": 45,
                "velocity": 32,
                "duration": 0.24318181818181817,
                "tempo": 120.0
            },
            {
                "start_time": 0.8022727272727272,
                "end_time": 1.0454545454545454,
                "pitch": 45,
                "velocity": 32,
                "duration": 0.24318181818181817,
                "tempo": 120.0
            },
            {
                "start_time": 1.3613636363636363,
                "end_time": 1.6068181818181817,
                "pitch": 45,
                "velocity": 32,
                "duration": 0.24545454545454537,
                "tempo": 120.0
            },
            {
                "start_time": 1.6409090909090909,
                "end_time": 1.8863636363636362,
                "pitch": 43,
                "velocity": 32,
                "duration": 0.24545454545454537,
                "tempo": 120.0
            },
            {
                "start_time": 2.1999999999999997,
                "end_time": 2.4454545454545453,
                "pitch": 43,
                "velocity": 32,
                "duration": 0.2454545454545456,
                "tempo": 120.0
            },
            {
                "start_time": 2.4795454545454545,
                "end_time": 2.725,
                "pitch": 45,
                "velocity": 32,
                "duration": 0.2454545454545456,
                "tempo": 120.0
            },
            {
                "start_time": 2.759090909090909,
                "end_time": 6.0,
                "pitch": 45,
                "velocity": 32,
                "duration": 3.240909090909091,
                "tempo": 120.0
            }
        ],
        "Harpsichord": [
            {
                "start_time": 0.3068181818181818,
                "end_time": 0.3977272727272727,
                "pitch": 64,
                "velocity": 20,
                "duration": 0.09090909090909088,
                "tempo": 120.0
            },
            {
                "start_time": 0.4113636363636363,
                "end_time": 0.5,
                "pitch": 59,
                "velocity": 20,
                "duration": 0.08863636363636368,
                "tempo": 120.0
            },
            {
                "start_time": 0.5227272727272727,
                "end_time": 0.7659090909090909,
                "pitch": 68,
                "velocity": 20,
                "duration": 0.24318181818181817,
                "tempo": 120.0
            },
            {
                "start_time": 0.8022727272727272,
                "end_time": 1.0454545454545454,
                "pitch": 64,
                "velocity": 20,
                "duration": 0.24318181818181817,
                "tempo": 120.0
            },
            {
                "start_time": 1.3613636363636363,
                "end_time": 1.6068181818181817,
                "pitch": 64,
                "velocity": 20,
                "duration": 0.24545454545454537,
                "tempo": 120.0
            },
            {
                "start_time": 1.6409090909090909,
                "end_time": 1.8863636363636362,
                "pitch": 67,
                "velocity": 20,
                "duration": 0.24545454545454537,
                "tempo": 120.0
            },
            {
                "start_time": 2.1999999999999997,
                "end_time": 2.4454545454545453,
                "pitch": 67,
                "velocity": 20,
                "duration": 0.2454545454545456,
                "tempo": 120.0
            },
            {
                "start_time": 2.4795454545454545,
                "end_time": 2.725,
                "pitch": 66,
                "velocity": 20,
                "duration": 0.2454545454545456,
                "tempo": 120.0
            },
            {
                "start_time": 2.759090909090909,
                "end_time": 6.0,
                "pitch": 64,
                "velocity": 20,
                "duration": 3.240909090909091,
                "tempo": 120.0
            }
        ],
        "Church Organ": [
            {
                "start_time": 0.3068181818181818,
                "end_time": 0.3977272727272727,
                "pitch": 45,
                "velocity": 20,
                "duration": 0.09090909090909088,
                "tempo": 120.0
            },
            {
                "start_time": 0.4113636363636363,
                "end_time": 0.5,
                "pitch": 45,
                "velocity": 20,
                "duration": 0.08863636363636368,
                "tempo": 120.0
            },
            {
                "start_time": 0.5227272727272727,
                "end_time": 0.7659090909090909,
                "pitch": 45,
                "velocity": 20,
                "duration": 0.24318181818181817,
                "tempo": 120.0
            },
            {
                "start_time": 0.8022727272727272,
                "end_time": 1.0454545454545454,
                "pitch": 45,
                "velocity": 20,
                "duration": 0.24318181818181817,
                "tempo": 120.0
            },
            {
                "start_time": 1.3613636363636363,
                "end_time": 1.6068181818181817,
                "pitch": 45,
                "velocity": 20,
                "duration": 0.24545454545454537,
                "tempo": 120.0
            },
            {
                "start_time": 1.6409090909090909,
                "end_time": 1.8863636363636362,
                "pitch": 43,
                "velocity": 20,
                "duration": 0.24545454545454537,
                "tempo": 120.0
            },
            {
                "start_time": 2.1999999999999997,
                "end_time": 2.4454545454545453,
                "pitch": 43,
                "velocity": 20,
                "duration": 0.2454545454545456,
                "tempo": 120.0
            },
            {
                "start_time": 2.4795454545454545,
                "end_time": 2.725,
                "pitch": 45,
                "velocity": 20,
                "duration": 0.2454545454545456,
                "tempo": 120.0
            },
            {
                "start_time": 2.759090909090909,
                "end_time": 6.0,
                "pitch": 45,
                "velocity": 20,
                "duration": 3.240909090909091,
                "tempo": 120.0
            }
        ]
    }
}