{
    "track_id": "Summer Games (FM) - 04 - Pole Vault",
    "mood": "happy",
    "instruments": {
        "Vibraphone": [
            {
                "start_time": 0.013636363636363636,
                "end_time": 0.11136363636363636,
                "pitch": 45,
                "velocity": 25,
                "duration": 0.09772727272727272,
                "tempo": 120.0
            },
            {
                "start_time": 0.125,
                "end_time": 0.17954545454545454,
                "pitch": 45,
                "velocity": 25,
                "duration": 0.054545454545454536,
                "tempo": 120.0
            },
            {
                "start_time": 0.19545454545454544,
                "end_time": 0.3318181818181818,
                "pitch": 45,
                "velocity": 25,
                "duration": 0.13636363636363635,
                "tempo": 120.0
            },
            {
                "start_time": 0.3477272727272727,
                "end_time": 0.41818181818181815,
                "pitch": 45,
                "velocity": 25,
                "duration": 0.07045454545454544,
                "tempo": 120.0
            },
            {
                "start_time": 0.4340909090909091,
                "end_time": 0.5886363636363636,
                "pitch": 45,
                "velocity": 25,
                "duration": 0.15454545454545454,
                "tempo": 120.0
            },
            {
                "start_time": 0.6045454545454545,
                "end_time": 0.6568181818181817,
                "pitch": 45,
                "velocity": 25,
                "duration": 0.05227272727272725,
                "tempo": 120.0
            },
            {
                "start_time": 0.6909090909090909,
                "end_time": 0.8227272727272726,
                "pitch": 45,
                "velocity": 25,
                "duration": 0.13181818181818172,
                "tempo": 120.0
            },
            {
                "start_time": 0.8409090909090908,
                "end_time": 0.9068181818181817,
                "pitch": 45,
                "velocity": 25,
                "duration": 0.06590909090909092,
                "tempo": 120.0
            },
            {
                "start_time": 0.9227272727272727,
                "end_time": 1.0568181818181817,
                "pitch": 45,
                "velocity": 25,
                "duration": 0.13409090909090893,
                "tempo": 120.0
            },
            {
                "start_time": 1.0909090909090908,
                "end_time": 1.1409090909090909,
                "pitch": 45,
                "velocity": 25,
                "duration": 0.050000000000000044,
                "tempo": 120.0
            },
            {
                "start_time": 1.1568181818181817,
                "end_time": 1.3045454545454545,
                "pitch": 43,
                "velocity": 25,
                "duration": 0.1477272727272727,
                "tempo": 120.0
            },
            {
                "start_time": 1.3204545454545453,
                "end_time": 1.3863636363636362,
                "pitch": 43,
                "velocity": 25,
                "duration": 0.06590909090909092,
                "tempo": 120.0
            },
            {
                "start_time": 1.4022727272727271,
                "end_time": 1.534090909090909,
                "pitch": 42,
                "velocity": 25,
                "duration": 0.13181818181818183,
                "tempo": 120.0
            },
            {
                "start_time": 1.5499999999999998,
                "end_time": 1.6159090909090907,
                "pitch": 42,
                "velocity": 25,
                "duration": 0.06590909090909092,
                "tempo": 120.0
            },
            {
                "start_time": 1.6318181818181818,
                "end_time": 1.7863636363636364,
                "pitch": 43,
                "velocity": 25,
                "duration": 0.15454545454545454,
                "tempo": 120.0
            },
            {
                "start_time": 1.8022727272727272,
                "end_time": 1.8545454545454545,
                "pitch": 45,
                "velocity": 25,
                "duration": 0.05227272727272725,
                "tempo": 120.0
            },
            {
                "start_time": 1.8886363636363634,
                "end_time": 2.025,
                "pitch": 38,
                "velocity": 25,
                "duration": 0.13636363636363646,
                "tempo": 120.0
            },
            {
                "start_time": 2.040909090909091,
                "end_time": 2.1113636363636363,
                "pitch": 38,
                "velocity": 25,
                "duration": 0.07045454545454533,
                "tempo": 120.0
            },
            {
                "start_time": 2.127272727272727,
                "end_time": 2.2613636363636362,
                "pitch": 38,
                "velocity": 25,
                "duration": 0.13409090909090926,
                "tempo": 120.0
            },
            {
                "start_time": 2.293181818181818,
                "end_time": 2.3431818181818183,
                "pitch": 38,
                "velocity": 25,
                "duration": 0.050000000000000266,
                "tempo": 120.0
            },
            {
                "start_time": 2.3613636363636363,
                "end_time": 2.5113636363636362,
                "pitch": 38,
                "velocity": 25,
                "duration": 0.1499999999999999,
                "tempo": 120.0
            },
            {
                "start_time": 2.5272727272727273,
                "end_time": 2.5931818181818183,
                "pitch": 38,
                "velocity": 25,
                "duration": 0.06590909090909092,
                "tempo": 120.0
            },
            {
                "start_time": 2.6113636363636363,
                "end_time": 2.743181818181818,
                "pitch": 38,
                "velocity": 25,
                "duration": 0.13181818181818183,
                "tempo": 120.0
            },
            {
                "start_time": 2.7613636363636362,
                "end_time": 2.827272727272727,
                "pitch": 38,
                "velocity": 25,
                "duration": 0.06590909090909092,
                "tempo": 120.0
            },
            {
                "start_time": 2.8431818181818183,
                "end_time": 2.993181818181818,
                "pitch": 38,
                "velocity": 25,
                "duration": 0.1499999999999999,
                "tempo": 120.0
            },
            {
                "start_time": 3.0113636363636362,
                "end_time": 3.061363636363636,
                "pitch": 38,
                "velocity": 25,
                "duration": 0.04999999999999982,
                "tempo": 120.0
            },
            {
                "start_time": 3.093181818181818,
                "end_time": 3.227272727272727,
                "pitch": 38,
                "velocity": 25,
                "duration": 0.13409090909090926,
                "tempo": 120.0
            },
            {
                "start_time": 3.243181818181818,
                "end_time": 3.311363636363636,
                "pitch": 38,
                "velocity": 25,
                "duration": 0.0681818181818179,
                "tempo": 120.0
            },
            {
                "start_time": 3.327272727272727,
                "end_time": 3.461363636363636,
                "pitch": 38,
                "velocity": 25,
                "duration": 0.13409090909090882,
                "tempo": 120.0
            },
            {
                "start_time": 3.493181818181818,
                "end_time": 3.543181818181818,
                "pitch": 37,
                "velocity": 25,
                "duration": 0.04999999999999982,
                "tempo": 120.0
            },
            {
                "start_time": 3.561363636363636,
                "end_time": 3.709090909090909,
                "pitch": 38,
                "velocity": 25,
                "duration": 0.14772727272727293,
                "tempo": 120.0
            },
            {
                "start_time": 3.7249999999999996,
                "end_time": 3.7909090909090906,
                "pitch": 40,
                "velocity": 25,
                "duration": 0.06590909090909092,
                "tempo": 120.0
            },
            {
                "start_time": 3.8068181818181817,
                "end_time": 3.9386363636363635,
                "pitch": 45,
                "velocity": 25,
                "duration": 0.13181818181818183,
                "tempo": 120.0
            },
            {
                "start_time": 3.954545454545454,
                "end_time": 4.0204545454545455,
                "pitch": 45,
                "velocity": 25,
                "duration": 0.06590909090909136,
                "tempo": 120.0
            },
            {
                "start_time": 4.036363636363636,
                "end_time": 4.1886363636363635,
                "pitch": 45,
                "velocity": 25,
                "duration": 0.15227272727272734,
                "tempo": 120.0
            },
            {
                "start_time": 4.206818181818182,
                "end_time": 4.259090909090909,
                "pitch": 45,
                "velocity": 25,
                "duration": 0.052272727272726804,
                "tempo": 120.0
            },
            {
                "start_time": 4.293181818181818,
                "end_time": 4.429545454545455,
                "pitch": 45,
                "velocity": 25,
                "duration": 0.1363636363636367,
                "tempo": 120.0
            },
            {
                "start_time": 4.445454545454545,
                "end_time": 4.513636363636364,
                "pitch": 45,
                "velocity": 25,
                "duration": 0.06818181818181834,
                "tempo": 120.0
            },
            {
                "start_time": 4.531818181818181,
                "end_time": 4.663636363636363,
                "pitch": 45,
                "velocity": 25,
                "duration": 0.13181818181818183,
                "tempo": 120.0
            },
            {
                "start_time": 4.697727272727272,
                "end_time": 4.747727272727272,
                "pitch": 45,
                "velocity": 25,
                "duration": 0.04999999999999982,
                "tempo": 120.0
            },
            {
                "start_time": 4.763636363636364,
                "end_time": 4.913636363636363,
                "pitch": 45,
                "velocity": 25,
                "duration": 0.14999999999999947,
                "tempo": 120.0
            },
            {
                "start_time": 4.931818181818182,
                "end_time": 4.997727272727272,
                "pitch": 45,
                "velocity": 25,
                "duration": 0.06590909090909047,
                "tempo": 120.0
            },
            {
                "start_time": 5.013636363636364,
                "end_time": 5.1499999999999995,
                "pitch": 43,
                "velocity": 25,
                "duration": 0.1363636363636358,
                "tempo": 120.0
            },
            {
                "start_time": 5.165909090909091,
                "end_time": 5.2340909090909085,
                "pitch": 43,
                "velocity": 25,
                "duration": 0.06818181818181746,
                "tempo": 120.0
            },
            {
                "start_time": 5.25,
                "end_time": 5.3999999999999995,
                "pitch": 42,
                "velocity": 25,
                "duration": 0.14999999999999947,
                "tempo": 120.0
            },
            {
                "start_time": 5.418181818181818,
                "end_time": 5.468181818181818,
                "pitch": 42,
                "velocity": 25,
                "duration": 0.04999999999999982,
                "tempo": 120.0
            },
            {
                "start_time": 5.502272727272727,
                "end_time": 5.634090909090909,
                "pitch": 43,
                "velocity": 25,
                "duration": 0.13181818181818183,
                "tempo": 120.0
            },
            {
                "start_time": 5.652272727272727,
                "end_time": 5.718181818181818,
                "pitch": 45,
                "velocity": 25,
                "duration": 0.06590909090909047,
                "tempo": 120.0
            },
            {
                "start_time": 5.7340909090909085,
                "end_time": 5.868181818181818,
                "pitch": 38,
                "velocity": 25,
                "duration": 0.1340909090909097,
                "tempo": 120.0
            },
            {
                "start_time": 5.902272727272727,
                "end_time": 5.952272727272727,
                "pitch": 38,
                "velocity": 25,
                "duration": 0.04999999999999982,
                "tempo": 120.0
            },
            {
                "start_time": 5.968181818181818,
                "end_time": 6.11590909090909,
                "pitch": 38,
                "velocity": 25,
                "duration": 0.14772727272727249,
                "tempo": 120.0
            },
            {
                "start_time": 6.131818181818182,
                "end_time": 6.197727272727272,
                "pitch": 38,
                "velocity": 25,
                "duration": 0.06590909090909047,
                "tempo": 120.0
            },
            {
                "start_time": 6.213636363636363,
                "end_time": 6.345454545454545,
                "pitch": 38,
                "velocity": 25,
                "duration": 0.13181818181818183,
                "tempo": 120.0
            },
            {
                "start_time": 6.361363636363636,
                "end_time": 6.427272727272727,
                "pitch": 38,
                "velocity": 25,
                "duration": 0.06590909090909047,
                "tempo": 120.0
            },
            {
                "start_time": 6.4431818181818175,
                "end_time": 6.597727272727273,
                "pitch": 38,
                "velocity": 25,
                "duration": 0.1545454545454552,
                "tempo": 120.0
            },
            {
                "start_time": 6.613636363636363,
                "end_time": 6.665909090909091,
                "pitch": 38,
                "velocity": 25,
                "duration": 0.05227272727272769,
                "tempo": 120.0
            },
            {
                "start_time": 6.699999999999999,
                "end_time": 6.836363636363636,
                "pitch": 38,
                "velocity": 25,
                "duration": 0.1363636363636367,
                "tempo": 120.0
            },
            {
                "start_time": 6.8545454545454545,
                "end_time": 6.922727272727272,
                "pitch": 38,
                "velocity": 25,
                "duration": 0.06818181818181746,
                "tempo": 120.0
            },
            {
                "start_time": 6.9386363636363635,
                "end_time": 7.072727272727272,
                "pitch": 42,
                "velocity": 25,
                "duration": 0.13409090909090882,
                "tempo": 120.0
            },
            {
                "start_time": 7.1068181818181815,
                "end_time": 7.156818181818181,
                "pitch": 42,
                "velocity": 25,
                "duration": 0.04999999999999982,
                "tempo": 120.0
            },
            {
                "start_time": 7.175,
                "end_time": 7.324999999999999,
                "pitch": 43,
                "velocity": 25,
                "duration": 0.14999999999999947,
                "tempo": 120.0
            },
            {
                "start_time": 7.343181818181818,
                "end_time": 7.409090909090909,
                "pitch": 43,
                "velocity": 25,
                "duration": 0.06590909090909136,
                "tempo": 120.0
            },
            {
                "start_time": 7.427272727272727,
                "end_time": 7.5636363636363635,
                "pitch": 44,
                "velocity": 25,
                "duration": 0.1363636363636367,
                "tempo": 120.0
            },
            {
                "start_time": 7.579545454545454,
                "end_time": 7.6477272727272725,
                "pitch": 44,
                "velocity": 25,
                "duration": 0.06818181818181834,
                "tempo": 120.0
            },
            {
                "start_time": 7.66590909090909,
                "end_time": 7.8181818181818175,
                "pitch": 45,
                "velocity": 25,
                "duration": 0.15227272727272734,
                "tempo": 120.0
            },
            {
                "start_time": 7.836363636363636,
                "end_time": 7.886363636363636,
                "pitch": 45,
                "velocity": 25,
                "duration": 0.04999999999999982,
                "tempo": 120.0
            },
            {
                "start_time": 7.920454545454545,
                "end_time": 8.052272727272728,
                "pitch": 45,
                "velocity": 25,
                "duration": 0.13181818181818272,
                "tempo": 120.0
            },
            {
                "start_time": 8.068181818181818,
                "end_time": 8.134090909090908,
                "pitch": 45,
                "velocity": 25,
                "duration": 0.06590909090908958,
                "tempo": 120.0
            },
            {
                "start_time": 8.15,
                "end_time": 8.281818181818181,
                "pitch": 45,
                "velocity": 25,
                "duration": 0.13181818181818095,
                "tempo": 120.0
            },
            {
                "start_time": 8.313636363636363,
                "end_time": 8.363636363636363,
                "pitch": 45,
                "velocity": 25,
                "duration": 0.05000000000000071,
                "tempo": 120.0
            },
            {
                "start_time": 8.379545454545454,
                "end_time": 8.527272727272727,
                "pitch": 45,
                "velocity": 25,
                "duration": 0.14772727272727337,
                "tempo": 120.0
            },
            {
                "start_time": 8.543181818181818,
                "end_time": 8.60909090909091,
                "pitch": 45,
                "velocity": 25,
                "duration": 0.06590909090909136,
                "tempo": 120.0
            },
            {
                "start_time": 8.627272727272727,
                "end_time": 8.756818181818181,
                "pitch": 45,
                "velocity": 25,
                "duration": 0.12954545454545396,
                "tempo": 120.0
            },
            {
                "start_time": 8.775,
                "end_time": 8.838636363636363,
                "pitch": 45,
                "velocity": 25,
                "duration": 0.0636363636363626,
                "tempo": 120.0
            },
            {
                "start_time": 8.85681818181818,
                "end_time": 9.009090909090908,
                "pitch": 43,
                "velocity": 25,
                "duration": 0.15227272727272734,
                "tempo": 120.0
            },
            {
                "start_time": 9.027272727272727,
                "end_time": 9.077272727272726,
                "pitch": 43,
                "velocity": 25,
                "duration": 0.049999999999998934,
                "tempo": 120.0
            },
            {
                "start_time": 9.111363636363636,
                "end_time": 9.247727272727273,
                "pitch": 42,
                "velocity": 25,
                "duration": 0.1363636363636367,
                "tempo": 120.0
            },
            {
                "start_time": 9.26590909090909,
                "end_time": 9.334090909090909,
                "pitch": 42,
                "velocity": 25,
                "duration": 0.06818181818181834,
                "tempo": 120.0
            },
            {
                "start_time": 9.35,
                "end_time": 9.486363636363636,
                "pitch": 43,
                "velocity": 25,
                "duration": 0.1363636363636367,
                "tempo": 120.0
            },
            {
                "start_time": 9.518181818181818,
                "end_time": 9.570454545454545,
                "pitch": 45,
                "velocity": 25,
                "duration": 0.05227272727272769,
                "tempo": 120.0
            },
            {
                "start_time": 9.586363636363636,
                "end_time": 9.736363636363636,
                "pitch": 38,
                "velocity": 25,
                "duration": 0.15000000000000036,
                "tempo": 120.0
            },
            {
                "start_time": 9.754545454545454,
                "end_time": 9.820454545454545,
                "pitch": 38,
                "velocity": 25,
                "duration": 0.06590909090909136,
                "tempo": 120.0
            },
            {
                "start_time": 9.838636363636363,
                "end_time": 9.972727272727273,
                "pitch": 38,
                "velocity": 25,
                "duration": 0.1340909090909097,
                "tempo": 120.0
            },
            {
                "start_time": 9.988636363636363,
                "end_time": 10.056818181818182,
                "pitch": 38,
                "velocity": 25,
                "duration": 0.06818181818181834,
                "tempo": 120.0
            },
            {
                "start_time": 10.072727272727272,
                "end_time": 10.225,
                "pitch": 38,
                "velocity": 25,
                "duration": 0.15227272727272734,
                "tempo": 120.0
            },
            {
                "start_time": 10.24090909090909,
                "end_time": 10.290909090909091,
                "pitch": 38,
                "velocity": 25,
                "duration": 0.05000000000000071,
                "tempo": 120.0
            },
            {
                "start_time": 10.325,
                "end_time": 10.461363636363636,
                "pitch": 38,
                "velocity": 25,
                "duration": 0.1363636363636367,
                "tempo": 120.0
            },
            {
                "start_time": 10.479545454545454,
                "end_time": 10.547727272727272,
                "pitch": 38,
                "velocity": 25,
                "duration": 0.06818181818181834,
                "tempo": 120.0
            },
            {
                "start_time": 10.563636363636363,
                "end_time": 10.7,
                "pitch": 38,
                "velocity": 25,
                "duration": 0.1363636363636367,
                "tempo": 120.0
            },
            {
                "start_time": 10.73409090909091,
                "end_time": 10.786363636363635,
                "pitch": 38,
                "velocity": 25,
                "duration": 0.052272727272725916,
                "tempo": 120.0
            },
            {
                "start_time": 10.802272727272726,
                "end_time": 10.947727272727272,
                "pitch": 38,
                "velocity": 25,
                "duration": 0.1454545454545464,
                "tempo": 120.0
            },
            {
                "start_time": 10.963636363636363,
                "end_time": 11.027272727272727,
                "pitch": 38,
                "velocity": 25,
                "duration": 0.06363636363636438,
                "tempo": 120.0
            },
            {
                "start_time": 11.043181818181818,
                "end_time": 11.172727272727272,
                "pitch": 38,
                "velocity": 25,
                "duration": 0.12954545454545396,
                "tempo": 120.0
            },
            {
                "start_time": 11.188636363636363,
                "end_time": 11.252272727272727,
                "pitch": 37,
                "velocity": 25,
                "duration": 0.06363636363636438,
                "tempo": 120.0
            },
            {
                "start_time": 11.268181818181818,
                "end_time": 11.488636363636363,
                "pitch": 38,
                "velocity": 25,
                "duration": 0.22045454545454568,
                "tempo": 120.0
            },
            {
                "start_time": 11.522727272727272,
                "end_time": 11.661363636363635,
                "pitch": 40,
                "velocity": 25,
                "duration": 0.13863636363636367,
                "tempo": 120.0
            },
            {
                "start_time": 11.677272727272726,
                "end_time": 11.745454545454544,
                "pitch": 40,
                "velocity": 25,
                "duration": 0.06818181818181834,
                "tempo": 120.0
            },
            {
                "start_time": 11.763636363636364,
                "end_time": 11.897727272727272,
                "pitch": 40,
                "velocity": 25,
                "duration": 0.13409090909090793,
                "tempo": 120.0
            },
            {
                "start_time": 11.931818181818182,
                "end_time": 11.98181818181818,
                "pitch": 40,
                "velocity": 25,
                "duration": 0.049999999999998934,
                "tempo": 120.0
            },
            {
                "start_time": 11.997727272727273,
                "end_time": 12.149999999999999,
                "pitch": 40,
                "velocity": 25,
                "duration": 0.15227272727272556,
                "tempo": 120.0
            },
            {
                "start_time": 12.165909090909091,
                "end_time": 12.23409090909091,
                "pitch": 40,
                "velocity": 25,
                "duration": 0.06818181818181834,
                "tempo": 120.0
            },
            {
                "start_time": 12.25,
                "end_time": 12.384090909090908,
                "pitch": 40,
                "velocity": 25,
                "duration": 0.13409090909090793,
                "tempo": 120.0
            },
            {
                "start_time": 12.402272727272727,
                "end_time": 12.468181818181817,
                "pitch": 40,
                "velocity": 25,
                "duration": 0.06590909090908958,
                "tempo": 120.0
            },
            {
                "start_time": 12.48409090909091,
                "end_time": 12.636363636363635,
                "pitch": 40,
                "velocity": 25,
                "duration": 0.15227272727272556,
                "tempo": 120.0
            },
            {
                "start_time": 12.652272727272727,
                "end_time": 12.704545454545453,
                "pitch": 40,
                "velocity": 25,
                "duration": 0.052272727272725916,
                "tempo": 120.0
            },
            {
                "start_time": 12.736363636363636,
                "end_time": 12.870454545454544,
                "pitch": 40,
                "velocity": 25,
                "duration": 0.13409090909090793,
                "tempo": 120.0
            },
            {
                "start_time": 12.888636363636364,
                "end_time": 12.954545454545453,
                "pitch": 40,
                "velocity": 25,
                "duration": 0.06590909090908958,
                "tempo": 120.0
            },
            {
                "start_time": 12.972727272727273,
                "end_time": 13.10681818181818,
                "pitch": 40,
                "velocity": 25,
                "duration": 0.13409090909090793,
                "tempo": 120.0
            },
            {
                "start_time": 13.14090909090909,
                "end_time": 13.19090909090909,
                "pitch": 40,
                "velocity": 25,
                "duration": 0.049999999999998934,
                "tempo": 120.0
            },
            {
                "start_time": 13.206818181818182,
                "end_time": 13.354545454545454,
                "pitch": 40,
                "velocity": 25,
                "duration": 0.1477272727272716,
                "tempo": 120.0
            },
            {
                "start_time": 13.370454545454544,
                "end_time": 13.436363636363636,
                "pitch": 40,
                "velocity": 25,
                "duration": 0.06590909090909136,
                "tempo": 120.0
            },
            {
                "start_time": 13.454545454545453,
                "end_time": 13.584090909090909,
                "pitch": 40,
                "velocity": 25,
                "duration": 0.12954545454545574,
                "tempo": 120.0
            },
            {
                "start_time": 13.602272727272727,
                "end_time": 13.665909090909091,
                "pitch": 40,
                "velocity": 25,
                "duration": 0.06363636363636438,
                "tempo": 120.0
            },
            {
                "start_time": 13.684090909090909,
                "end_time": 14.075,
                "pitch": 40,
                "velocity": 25,
                "duration": 0.39090909090909065,
                "tempo": 120.0
            },
            {
                "start_time": 14.093181818181817,
                "end_time": 14.161363636363635,
                "pitch": 40,
                "velocity": 25,
                "duration": 0.06818181818181834,
                "tempo": 120.0
            },
            {
                "start_time": 14.177272727272726,
                "end_time": 14.313636363636363,
                "pitch": 40,
                "velocity": 25,
                "duration": 0.1363636363636367,
                "tempo": 120.0
            },
            {
                "start_time": 14.345454545454544,
                "end_time": 14.397727272727272,
                "pitch": 40,
                "velocity": 25,
                "duration": 0.05227272727272769,
                "tempo": 120.0
            },
            {
                "start_time": 14.413636363636362,
                "end_time": 14.563636363636363,
                "pitch": 40,
                "velocity": 25,
                "duration": 0.15000000000000036,
                "tempo": 120.0
            },
            {
                "start_time": 14.58181818181818,
                "end_time": 14.647727272727272,
                "pitch": 40,
                "velocity": 25,
                "duration": 0.06590909090909136,
                "tempo": 120.0
            },
            {
                "start_time": 14.665909090909091,
                "end_time": 14.799999999999999,
                "pitch": 45,
                "velocity": 25,
                "duration": 0.13409090909090793,
                "tempo": 120.0
            },
            {
                "start_time": 14.81590909090909,
                "end_time": 14.884090909090908,
                "pitch": 45,
                "velocity": 25,
                "duration": 0.06818181818181834,
                "tempo": 120.0
            },
            {
                "start_time": 14.899999999999999,
                "end_time": 15.052272727272726,
                "pitch": 44,
                "velocity": 25,
                "duration": 0.15227272727272734,
                "tempo": 120.0
            },
            {
                "start_time": 15.068181818181817,
                "end_time": 15.118181818181817,
                "pitch": 44,
                "velocity": 25,
                "duration": 0.05000000000000071,
                "tempo": 120.0
            },
            {
                "start_time": 15.152272727272727,
                "end_time": 15.375,
                "pitch": 43,
                "velocity": 25,
                "duration": 0.22272727272727266,
                "tempo": 120.0
            },
            {
                "start_time": 15.39090909090909,
                "end_time": 15.527272727272727,
                "pitch": 36,
                "velocity": 25,
                "duration": 0.1363636363636367,
                "tempo": 120.0
            },
            {
                "start_time": 15.561363636363636,
                "end_time": 15.613636363636363,
                "pitch": 36,
                "velocity": 25,
                "duration": 0.05227272727272769,
                "tempo": 120.0
            },
            {
                "start_time": 16.10681818181818,
                "end_time": 16.254545454545454,
                "pitch": 36,
                "velocity": 25,
                "duration": 0.14772727272727337,
                "tempo": 120.0
            },
            {
                "start_time": 16.270454545454545,
                "end_time": 17.304545454545455,
                "pitch": 36,
                "velocity": 25,
                "duration": 1.03409090909091,
                "tempo": 120.0
            },
            {
                "start_time": 17.320454545454545,
                "end_time": 17.472727272727273,
                "pitch": 38,
                "velocity": 25,
                "duration": 0.15227272727272734,
                "tempo": 120.0
            },
            {
                "start_time": 17.488636363636363,
                "end_time": 17.538636363636364,
                "pitch": 38,
                "velocity": 25,
                "duration": 0.05000000000000071,
                "tempo": 120.0
            },
            {
                "start_time": 18.043181818181818,
                "end_time": 18.186363636363634,
                "pitch": 38,
                "velocity": 25,
                "duration": 0.14318181818181586,
                "tempo": 120.0
            },
            {
                "start_time": 18.202272727272728,
                "end_time": 19.220454545454544,
                "pitch": 38,
                "velocity": 25,
                "duration": 1.0181818181818159,
                "tempo": 120.0
            },
            {
                "start_time": 19.238636363636363,
                "end_time": 19.388636363636362,
                "pitch": 36,
                "velocity": 25,
                "duration": 0.14999999999999858,
                "tempo": 120.0
            },
            {
                "start_time": 19.404545454545453,
                "end_time": 19.472727272727273,
                "pitch": 36,
                "velocity": 25,
                "duration": 0.06818181818182012,
                "tempo": 120.0
            },
            {
                "start_time": 19.98409090909091,
                "end_time": 20.11590909090909,
                "pitch": 36,
                "velocity": 25,
                "duration": 0.13181818181817917,
                "tempo": 120.0
            },
            {
                "start_time": 20.13181818181818,
                "end_time": 21.152272727272727,
                "pitch": 36,
                "velocity": 25,
                "duration": 1.0204545454545482,
                "tempo": 120.0
            },
            {
                "start_time": 21.18409090909091,
                "end_time": 21.31590909090909,
                "pitch": 38,
                "velocity": 25,
                "duration": 0.13181818181818272,
                "tempo": 120.0
            },
            {
                "start_time": 21.331818181818182,
                "end_time": 21.547727272727272,
                "pitch": 38,
                "velocity": 25,
                "duration": 0.21590909090908994,
                "tempo": 120.0
            },
            {
                "start_time": 21.581818181818182,
                "end_time": 21.63181818181818,
                "pitch": 38,
                "velocity": 25,
                "duration": 0.04999999999999716,
                "tempo": 120.0
            },
            {
                "start_time": 21.65,
                "end_time": 21.8,
                "pitch": 38,
                "velocity": 25,
                "duration": 0.15000000000000213,
                "tempo": 120.0
            },
            {
                "start_time": 21.818181818181817,
                "end_time": 21.884090909090908,
                "pitch": 38,
                "velocity": 25,
                "duration": 0.06590909090909136,
                "tempo": 120.0
            },
            {
                "start_time": 21.9,
                "end_time": 22.034090909090907,
                "pitch": 38,
                "velocity": 25,
                "duration": 0.13409090909090793,
                "tempo": 120.0
            },
            {
                "start_time": 22.049999999999997,
                "end_time": 22.118181818181817,
                "pitch": 38,
                "velocity": 25,
                "duration": 0.06818181818182012,
                "tempo": 120.0
            },
            {
                "start_time": 22.134090909090908,
                "end_time": 22.349999999999998,
                "pitch": 40,
                "velocity": 25,
                "duration": 0.21590909090908994,
                "tempo": 120.0
            },
            {
                "start_time": 22.384090909090908,
                "end_time": 22.520454545454545,
                "pitch": 40,
                "velocity": 25,
                "duration": 0.1363636363636367,
                "tempo": 120.0
            },
            {
                "start_time": 22.538636363636364,
                "end_time": 22.759090909090908,
                "pitch": 40,
                "velocity": 25,
                "duration": 0.2204545454545439,
                "tempo": 120.0
            },
            {
                "start_time": 22.793181818181818,
                "end_time": 22.845454545454544,
                "pitch": 40,
                "velocity": 25,
                "duration": 0.052272727272725916,
                "tempo": 120.0
            },
            {
                "start_time": 22.861363636363635,
                "end_time": 23.011363636363637,
                "pitch": 40,
                "velocity": 25,
                "duration": 0.15000000000000213,
                "tempo": 120.0
            },
            {
                "start_time": 23.027272727272727,
                "end_time": 23.104545454545452,
                "pitch": 40,
                "velocity": 25,
                "duration": 0.0772727272727245,
                "tempo": 120.0
            }
        ],
        "Harpsichord": [
            {
                "start_time": 15.561363636363636,
                "end_time": 15.595454545454544,
                "pitch": 55,
                "velocity": 40,
                "duration": 0.034090909090908283,
                "tempo": 120.0
            },
            {
                "start_time": 16.10681818181818,
                "end_time": 16.254545454545454,
                "pitch": 55,
                "velocity": 40,
                "duration": 0.14772727272727337,
                "tempo": 120.0
            },
            {
                "start_time": 16.270454545454545,
                "end_time": 16.48409090909091,
                "pitch": 55,
                "velocity": 40,
                "duration": 0.21363636363636473,
                "tempo": 120.0
            },
            {
                "start_time": 16.5,
                "end_time": 16.56590909090909,
                "pitch": 57,
                "velocity": 40,
                "duration": 0.06590909090909136,
                "tempo": 120.0
            },
            {
                "start_time": 16.581818181818182,
                "end_time": 16.720454545454544,
                "pitch": 59,
                "velocity": 40,
                "duration": 0.1386363636363619,
                "tempo": 120.0
            },
            {
                "start_time": 16.754545454545454,
                "end_time": 16.80681818181818,
                "pitch": 60,
                "velocity": 40,
                "duration": 0.052272727272725916,
                "tempo": 120.0
            },
            {
                "start_time": 16.825,
                "end_time": 16.98181818181818,
                "pitch": 62,
                "velocity": 40,
                "duration": 0.1568181818181813,
                "tempo": 120.0
            },
            {
                "start_time": 16.99772727272727,
                "end_time": 17.220454545454544,
                "pitch": 60,
                "velocity": 40,
                "duration": 0.22272727272727266,
                "tempo": 120.0
            },
            {
                "start_time": 17.236363636363635,
                "end_time": 17.304545454545455,
                "pitch": 59,
                "velocity": 40,
                "duration": 0.06818181818182012,
                "tempo": 120.0
            },
            {
                "start_time": 17.320454545454545,
                "end_time": 17.472727272727273,
                "pitch": 57,
                "velocity": 40,
                "duration": 0.15227272727272734,
                "tempo": 120.0
            },
            {
                "start_time": 17.488636363636363,
                "end_time": 17.522727272727273,
                "pitch": 57,
                "velocity": 40,
                "duration": 0.03409090909091006,
                "tempo": 120.0
            },
            {
                "start_time": 18.043181818181818,
                "end_time": 18.186363636363634,
                "pitch": 57,
                "velocity": 40,
                "duration": 0.14318181818181586,
                "tempo": 120.0
            },
            {
                "start_time": 18.202272727272728,
                "end_time": 18.411363636363635,
                "pitch": 57,
                "velocity": 40,
                "duration": 0.20909090909090722,
                "tempo": 120.0
            },
            {
                "start_time": 18.427272727272726,
                "end_time": 18.49090909090909,
                "pitch": 62,
                "velocity": 40,
                "duration": 0.0636363636363626,
                "tempo": 120.0
            },
            {
                "start_time": 18.50681818181818,
                "end_time": 18.661363636363635,
                "pitch": 67,
                "velocity": 40,
                "duration": 0.1545454545454561,
                "tempo": 120.0
            },
            {
                "start_time": 18.677272727272726,
                "end_time": 18.729545454545455,
                "pitch": 66,
                "velocity": 40,
                "duration": 0.05227272727272947,
                "tempo": 120.0
            },
            {
                "start_time": 18.763636363636362,
                "end_time": 19.220454545454544,
                "pitch": 62,
                "velocity": 40,
                "duration": 0.456818181818182,
                "tempo": 120.0
            },
            {
                "start_time": 19.238636363636363,
                "end_time": 19.388636363636362,
                "pitch": 55,
                "velocity": 40,
                "duration": 0.14999999999999858,
                "tempo": 120.0
            },
            {
                "start_time": 19.404545454545453,
                "end_time": 19.422727272727272,
                "pitch": 55,
                "velocity": 40,
                "duration": 0.01818181818181941,
                "tempo": 120.0
            },
            {
                "start_time": 19.98409090909091,
                "end_time": 20.11590909090909,
                "pitch": 55,
                "velocity": 40,
                "duration": 0.13181818181817917,
                "tempo": 120.0
            },
            {
                "start_time": 20.13181818181818,
                "end_time": 20.345454545454544,
                "pitch": 55,
                "velocity": 40,
                "duration": 0.21363636363636473,
                "tempo": 120.0
            },
            {
                "start_time": 20.377272727272725,
                "end_time": 20.427272727272726,
                "pitch": 62,
                "velocity": 40,
                "duration": 0.05000000000000071,
                "tempo": 120.0
            },
            {
                "start_time": 20.443181818181817,
                "end_time": 20.597727272727273,
                "pitch": 57,
                "velocity": 40,
                "duration": 0.1545454545454561,
                "tempo": 120.0
            },
            {
                "start_time": 20.613636363636363,
                "end_time": 20.68181818181818,
                "pitch": 59,
                "velocity": 40,
                "duration": 0.06818181818181657,
                "tempo": 120.0
            },
            {
                "start_time": 20.7,
                "end_time": 20.836363636363636,
                "pitch": 64,
                "velocity": 40,
                "duration": 0.1363636363636367,
                "tempo": 120.0
            },
            {
                "start_time": 20.852272727272727,
                "end_time": 21.152272727272727,
                "pitch": 62,
                "velocity": 40,
                "duration": 0.3000000000000007,
                "tempo": 120.0
            },
            {
                "start_time": 21.18409090909091,
                "end_time": 21.31590909090909,
                "pitch": 57,
                "velocity": 40,
                "duration": 0.13181818181818272,
                "tempo": 120.0
            },
            {
                "start_time": 21.331818181818182,
                "end_time": 21.547727272727272,
                "pitch": 57,
                "velocity": 40,
                "duration": 0.21590909090908994,
                "tempo": 120.0
            },
            {
                "start_time": 21.581818181818182,
                "end_time": 21.63181818181818,
                "pitch": 57,
                "velocity": 40,
                "duration": 0.04999999999999716,
                "tempo": 120.0
            },
            {
                "start_time": 21.65,
                "end_time": 21.71590909090909,
                "pitch": 57,
                "velocity": 40,
                "duration": 0.06590909090909136,
                "tempo": 120.0
            },
            {
                "start_time": 21.73409090909091,
                "end_time": 21.8,
                "pitch": 59,
                "velocity": 40,
                "duration": 0.06590909090909136,
                "tempo": 120.0
            },
            {
                "start_time": 21.818181818181817,
                "end_time": 21.884090909090908,
                "pitch": 62,
                "velocity": 40,
                "duration": 0.06590909090909136,
                "tempo": 120.0
            },
            {
                "start_time": 21.9,
                "end_time": 21.95,
                "pitch": 64,
                "velocity": 40,
                "duration": 0.05000000000000071,
                "tempo": 120.0
            },
            {
                "start_time": 21.98409090909091,
                "end_time": 22.034090909090907,
                "pitch": 62,
                "velocity": 40,
                "duration": 0.04999999999999716,
                "tempo": 120.0
            },
            {
                "start_time": 22.049999999999997,
                "end_time": 22.118181818181817,
                "pitch": 59,
                "velocity": 40,
                "duration": 0.06818181818182012,
                "tempo": 120.0
            },
            {
                "start_time": 22.134090909090908,
                "end_time": 22.2,
                "pitch": 59,
                "velocity": 40,
                "duration": 0.06590909090909136,
                "tempo": 120.0
            },
            {
                "start_time": 22.21818181818182,
                "end_time": 22.284090909090907,
                "pitch": 62,
                "velocity": 40,
                "duration": 0.06590909090908781,
                "tempo": 120.0
            },
            {
                "start_time": 22.299999999999997,
                "end_time": 22.349999999999998,
                "pitch": 59,
                "velocity": 40,
                "duration": 0.05000000000000071,
                "tempo": 120.0
            },
            {
                "start_time": 22.384090909090908,
                "end_time": 22.436363636363634,
                "pitch": 64,
                "velocity": 40,
                "duration": 0.052272727272725916,
                "tempo": 120.0
            },
            {
                "start_time": 22.452272727272724,
                "end_time": 22.520454545454545,
                "pitch": 62,
                "velocity": 40,
                "duration": 0.06818181818182012,
                "tempo": 120.0
            },
            {
                "start_time": 22.538636363636364,
                "end_time": 22.60681818181818,
                "pitch": 59,
                "velocity": 40,
                "duration": 0.06818181818181657,
                "tempo": 120.0
            },
            {
                "start_time": 22.62272727272727,
                "end_time": 22.845454545454544,
                "pitch": 59,
                "velocity": 40,
                "duration": 0.22272727272727266,
                "tempo": 120.0
            },
            {
                "start_time": 22.861363636363635,
                "end_time": 23.104545454545452,
                "pitch": 59,
                "velocity": 40,
                "duration": 0.24318181818181728,
                "tempo": 120.0
            }
        ]
    }
}