{
    "track_id": "Summer Games (FM) - 03 - Event Start",
    "mood": "happy",
    "instruments": {
        "Oboe": [
            {
                "start_time": 0.0,
                "end_time": 0.17954545454545454,
                "pitch": 64,
                "velocity": 40,
                "duration": 0.17954545454545454,
                "tempo": 120.0
            },
            {
                "start_time": 0.21363636363636362,
                "end_time": 0.2636363636363636,
                "pitch": 64,
                "velocity": 40,
                "duration": 0.04999999999999999,
                "tempo": 120.0
            },
            {
                "start_time": 0.27954545454545454,
                "end_time": 0.4795454545454545,
                "pitch": 64,
                "velocity": 40,
                "duration": 0.19999999999999996,
                "tempo": 120.0
            },
            {
                "start_time": 0.5136363636363636,
                "end_time": 1.1363636363636362,
                "pitch": 64,
                "velocity": 40,
                "duration": 0.6227272727272727,
                "tempo": 120.0
            },
            {
                "start_time": 1.1522727272727271,
                "end_time": 1.434090909090909,
                "pitch": 67,
                "velocity": 40,
                "duration": 0.28181818181818197,
                "tempo": 120.0
            },
            {
                "start_time": 1.4522727272727272,
                "end_time": 1.734090909090909,
                "pitch": 67,
                "velocity": 40,
                "duration": 0.28181818181818175,
                "tempo": 120.0
            },
            {
                "start_time": 1.7522727272727272,
                "end_time": 2.0386363636363636,
                "pitch": 66,
                "velocity": 40,
                "duration": 0.2863636363636364,
                "tempo": 120.0
            },
            {
                "start_time": 2.0545454545454542,
                "end_time": 2.256818181818182,
                "pitch": 64,
                "velocity": 40,
                "duration": 0.2022727272727276,
                "tempo": 120.0
            },
            {
                "start_time": 2.290909090909091,
                "end_time": 2.340909090909091,
                "pitch": 62,
                "velocity": 40,
                "duration": 0.04999999999999982,
                "tempo": 120.0
            },
            {
                "start_time": 2.356818181818182,
                "end_time": 3.5522727272727272,
                "pitch": 64,
                "velocity": 40,
                "duration": 1.1954545454545453,
                "tempo": 120.0
            },
            {
                "start_time": 3.5522727272727272,
                "end_time": 3.568181818181818,
                "pitch": 55,
                "velocity": 40,
                "duration": 0.01590909090909065,
                "tempo": 120.0
            },
            {
                "start_time": 3.568181818181818,
                "end_time": 4.452272727272727,
                "pitch": 64,
                "velocity": 40,
                "duration": 0.8840909090909093,
                "tempo": 120.0
            }
        ],
        "Lead 2 (sawtooth)": [
            {
                "start_time": 0.0,
                "end_time": 0.013636363636363636,
                "pitch": 60,
                "velocity": 25,
                "duration": 0.013636363636363636,
                "tempo": 120.0
            },
            {
                "start_time": 0.029545454545454545,
                "end_time": 0.22954545454545452,
                "pitch": 64,
                "velocity": 25,
                "duration": 0.19999999999999998,
                "tempo": 120.0
            },
            {
                "start_time": 0.2636363636363636,
                "end_time": 0.3136363636363636,
                "pitch": 64,
                "velocity": 25,
                "duration": 0.04999999999999999,
                "tempo": 120.0
            },
            {
                "start_time": 0.32954545454545453,
                "end_time": 0.5295454545454545,
                "pitch": 64,
                "velocity": 25,
                "duration": 0.2,
                "tempo": 120.0
            },
            {
                "start_time": 0.5636363636363636,
                "end_time": 1.184090909090909,
                "pitch": 64,
                "velocity": 25,
                "duration": 0.6204545454545455,
                "tempo": 120.0
            },
            {
                "start_time": 1.2022727272727272,
                "end_time": 1.4840909090909091,
                "pitch": 67,
                "velocity": 25,
                "duration": 0.28181818181818197,
                "tempo": 120.0
            },
            {
                "start_time": 1.5022727272727272,
                "end_time": 1.784090909090909,
                "pitch": 67,
                "velocity": 25,
                "duration": 0.28181818181818175,
                "tempo": 120.0
            },
            {
                "start_time": 1.8022727272727272,
                "end_time": 2.0886363636363634,
                "pitch": 66,
                "velocity": 25,
                "duration": 0.28636363636363615,
                "tempo": 120.0
            },
            {
                "start_time": 2.1045454545454545,
                "end_time": 2.3068181818181817,
                "pitch": 64,
                "velocity": 25,
                "duration": 0.20227272727272716,
                "tempo": 120.0
            },
            {
                "start_time": 2.340909090909091,
                "end_time": 2.3909090909090907,
                "pitch": 62,
                "velocity": 25,
                "duration": 0.04999999999999982,
                "tempo": 120.0
            },
            {
                "start_time": 2.4068181818181817,
                "end_time": 4.504545454545454,
                "pitch": 64,
                "velocity": 25,
                "duration": 2.097727272727272,
                "tempo": 120.0
            }
        ],
        "Synth Bass 1": [
            {
                "start_time": 0.0,
                "end_time": 0.17954545454545454,
                "pitch": 57,
                "velocity": 25,
                "duration": 0.17954545454545454,
                "tempo": 120.0
            },
            {
                "start_time": 0.21363636363636362,
                "end_time": 0.2636363636363636,
                "pitch": 57,
                "velocity": 25,
                "duration": 0.04999999999999999,
                "tempo": 120.0
            },
            {
                "start_time": 0.27954545454545454,
                "end_time": 0.4795454545454545,
                "pitch": 55,
                "velocity": 25,
                "duration": 0.19999999999999996,
                "tempo": 120.0
            },
            {
                "start_time": 0.5136363636363636,
                "end_time": 1.1363636363636362,
                "pitch": 57,
                "velocity": 25,
                "duration": 0.6227272727272727,
                "tempo": 120.0
            },
            {
                "start_time": 1.1522727272727271,
                "end_time": 1.434090909090909,
                "pitch": 57,
                "velocity": 25,
                "duration": 0.28181818181818197,
                "tempo": 120.0
            },
            {
                "start_time": 1.4522727272727272,
                "end_time": 1.734090909090909,
                "pitch": 57,
                "velocity": 25,
                "duration": 0.28181818181818175,
                "tempo": 120.0
            },
            {
                "start_time": 1.7522727272727272,
                "end_time": 2.0386363636363636,
                "pitch": 57,
                "velocity": 25,
                "duration": 0.2863636363636364,
                "tempo": 120.0
            },
            {
                "start_time": 2.0545454545454542,
                "end_time": 2.256818181818182,
                "pitch": 57,
                "velocity": 25,
                "duration": 0.2022727272727276,
                "tempo": 120.0
            },
            {
                "start_time": 2.290909090909091,
                "end_time": 2.340909090909091,
                "pitch": 55,
                "velocity": 25,
                "duration": 0.04999999999999982,
                "tempo": 120.0
            },
            {
                "start_time": 2.356818181818182,
                "end_time": 3.2386363636363633,
                "pitch": 57,
                "velocity": 25,
                "duration": 0.8818181818181814,
                "tempo": 120.0
            }
        ],
        "Clarinet": [
            {
                "start_time": 3.2545454545454544,
                "end_time": 3.286363636363636,
                "pitch": 71,
                "velocity": 25,
                "duration": 0.031818181818181746,
                "tempo": 120.0
            },
            {
                "start_time": 3.286363636363636,
                "end_time": 3.3045454545454542,
                "pitch": 67,
                "velocity": 25,
                "duration": 0.018181818181818077,
                "tempo": 120.0
            },
            {
                "start_time": 3.3045454545454542,
                "end_time": 3.3363636363636364,
                "pitch": 66,
                "velocity": 25,
                "duration": 0.03181818181818219,
                "tempo": 120.0
            },
            {
                "start_time": 3.3363636363636364,
                "end_time": 3.352272727272727,
                "pitch": 63,
                "velocity": 25,
                "duration": 0.01590909090909065,
                "tempo": 120.0
            },
            {
                "start_time": 3.352272727272727,
                "end_time": 3.3863636363636362,
                "pitch": 71,
                "velocity": 25,
                "duration": 0.03409090909090917,
                "tempo": 120.0
            },
            {
                "start_time": 3.3863636363636362,
                "end_time": 3.402272727272727,
                "pitch": 67,
                "velocity": 25,
                "duration": 0.01590909090909065,
                "tempo": 120.0
            },
            {
                "start_time": 3.402272727272727,
                "end_time": 3.436363636363636,
                "pitch": 66,
                "velocity": 25,
                "duration": 0.03409090909090917,
                "tempo": 120.0
            },
            {
                "start_time": 3.436363636363636,
                "end_time": 3.452272727272727,
                "pitch": 63,
                "velocity": 25,
                "duration": 0.015909090909091095,
                "tempo": 120.0
            },
            {
                "start_time": 3.452272727272727,
                "end_time": 3.468181818181818,
                "pitch": 69,
                "velocity": 25,
                "duration": 0.01590909090909065,
                "tempo": 120.0
            },
            {
                "start_time": 3.468181818181818,
                "end_time": 3.4863636363636363,
                "pitch": 67,
                "velocity": 25,
                "duration": 0.01818181818181852,
                "tempo": 120.0
            },
            {
                "start_time": 3.4863636363636363,
                "end_time": 3.518181818181818,
                "pitch": 66,
                "velocity": 25,
                "duration": 0.031818181818181746,
                "tempo": 120.0
            },
            {
                "start_time": 3.518181818181818,
                "end_time": 3.5522727272727272,
                "pitch": 63,
                "velocity": 25,
                "duration": 0.03409090909090917,
                "tempo": 120.0
            },
            {
                "start_time": 3.5522727272727272,
                "end_time": 3.568181818181818,
                "pitch": 67,
                "velocity": 25,
                "duration": 0.01590909090909065,
                "tempo": 120.0
            },
            {
                "start_time": 3.568181818181818,
                "end_time": 3.602272727272727,
                "pitch": 66,
                "velocity": 25,
                "duration": 0.03409090909090917,
                "tempo": 120.0
            },
            {
                "start_time": 3.602272727272727,
                "end_time": 3.6363636363636362,
                "pitch": 63,
                "velocity": 25,
                "duration": 0.03409090909090917,
                "tempo": 120.0
            },
            {
                "start_time": 3.6363636363636362,
                "end_time": 3.6545454545454543,
                "pitch": 60,
                "velocity": 25,
                "duration": 0.018181818181818077,
                "tempo": 120.0
            }
        ],
        "Acoustic Bass": [
            {
                "start_time": 0.0,
                "end_time": 0.17954545454545454,
                "pitch": 61,
                "velocity": 25,
                "duration": 0.17954545454545454,
                "tempo": 120.0
            },
            {
                "start_time": 0.21363636363636362,
                "end_time": 0.2636363636363636,
                "pitch": 61,
                "velocity": 25,
                "duration": 0.04999999999999999,
                "tempo": 120.0
            },
            {
                "start_time": 0.27954545454545454,
                "end_time": 0.4795454545454545,
                "pitch": 59,
                "velocity": 25,
                "duration": 0.19999999999999996,
                "tempo": 120.0
            },
            {
                "start_time": 0.5136363636363636,
                "end_time": 1.1363636363636362,
                "pitch": 61,
                "velocity": 25,
                "duration": 0.6227272727272727,
                "tempo": 120.0
            },
            {
                "start_time": 1.1522727272727271,
                "end_time": 1.434090909090909,
                "pitch": 62,
                "velocity": 25,
                "duration": 0.28181818181818197,
                "tempo": 120.0
            },
            {
                "start_time": 1.4522727272727272,
                "end_time": 1.734090909090909,
                "pitch": 62,
                "velocity": 25,
                "duration": 0.28181818181818175,
                "tempo": 120.0
            },
            {
                "start_time": 1.7522727272727272,
                "end_time": 2.0386363636363636,
                "pitch": 62,
                "velocity": 25,
                "duration": 0.2863636363636364,
                "tempo": 120.0
            },
            {
                "start_time": 2.0545454545454542,
                "end_time": 2.256818181818182,
                "pitch": 61,
                "velocity": 25,
                "duration": 0.2022727272727276,
                "tempo": 120.0
            },
            {
                "start_time": 2.290909090909091,
                "end_time": 2.340909090909091,
                "pitch": 59,
                "velocity": 25,
                "duration": 0.04999999999999982,
                "tempo": 120.0
            },
            {
                "start_time": 2.356818181818182,
                "end_time": 4.452272727272727,
                "pitch": 61,
                "velocity": 25,
                "duration": 2.0954545454545452,
                "tempo": 120.0
            }
        ]
    }
}