{
    "track_id": "Summer Games (FM) - 06 - 100m Dash End",
    "mood": "happy",
    "instruments": {
        "Trumpet": [
            {
                "start_time": 0.0,
                "end_time": 0.4159090909090909,
                "pitch": 69,
                "velocity": 40,
                "duration": 0.4159090909090909,
                "tempo": 120.0
            },
            {
                "start_time": 0.4340909090909091,
                "end_time": 0.6522727272727272,
                "pitch": 69,
                "velocity": 40,
                "duration": 0.21818181818181814,
                "tempo": 120.0
            },
            {
                "start_time": 0.6681818181818181,
                "end_time": 1.1272727272727272,
                "pitch": 66,
                "velocity": 40,
                "duration": 0.4590909090909091,
                "tempo": 120.0
            },
            {
                "start_time": 1.143181818181818,
                "end_time": 1.3454545454545455,
                "pitch": 69,
                "velocity": 40,
                "duration": 0.20227272727272738,
                "tempo": 120.0
            },
            {
                "start_time": 1.3613636363636363,
                "end_time": 1.565909090909091,
                "pitch": 74,
                "velocity": 40,
                "duration": 0.20454545454545459,
                "tempo": 120.0
            },
            {
                "start_time": 1.5818181818181818,
                "end_time": 1.7999999999999998,
                "pitch": 78,
                "velocity": 40,
                "duration": 0.21818181818181803,
                "tempo": 120.0
            },
            {
                "start_time": 1.815909090909091,
                "end_time": 2.034090909090909,
                "pitch": 81,
                "velocity": 40,
                "duration": 0.21818181818181825,
                "tempo": 120.0
            },
            {
                "start_time": 2.05,
                "end_time": 2.493181818181818,
                "pitch": 74,
                "velocity": 40,
                "duration": 0.44318181818181834,
                "tempo": 120.0
            }
        ],
        "Flute": [
            {
                "start_time": 0.0,
                "end_time": 0.6522727272727272,
                "pitch": 50,
                "velocity": 32,
                "duration": 0.6522727272727272,
                "tempo": 120.0
            },
            {
                "start_time": 0.6681818181818181,
                "end_time": 1.3454545454545455,
                "pitch": 57,
                "velocity": 32,
                "duration": 0.6772727272727274,
                "tempo": 120.0
            },
            {
                "start_time": 1.3613636363636363,
                "end_time": 2.493181818181818,
                "pitch": 62,
                "velocity": 32,
                "duration": 1.1318181818181818,
                "tempo": 120.0
            }
        ],
        "Oboe": [
            {
                "start_time": 0.0,
                "end_time": 0.4159090909090909,
                "pitch": 66,
                "velocity": 25,
                "duration": 0.4159090909090909,
                "tempo": 120.0
            },
            {
                "start_time": 0.4340909090909091,
                "end_time": 0.6522727272727272,
                "pitch": 66,
                "velocity": 25,
                "duration": 0.21818181818181814,
                "tempo": 120.0
            },
            {
                "start_time": 0.6681818181818181,
                "end_time": 1.1272727272727272,
                "pitch": 62,
                "velocity": 25,
                "duration": 0.4590909090909091,
                "tempo": 120.0
            },
            {
                "start_time": 1.143181818181818,
                "end_time": 1.3454545454545455,
                "pitch": 66,
                "velocity": 25,
                "duration": 0.20227272727272738,
                "tempo": 120.0
            },
            {
                "start_time": 1.3613636363636363,
                "end_time": 1.565909090909091,
                "pitch": 66,
                "velocity": 25,
                "duration": 0.20454545454545459,
                "tempo": 120.0
            },
            {
                "start_time": 1.5818181818181818,
                "end_time": 1.7999999999999998,
                "pitch": 69,
                "velocity": 25,
                "duration": 0.21818181818181803,
                "tempo": 120.0
            },
            {
                "start_time": 1.815909090909091,
                "end_time": 2.034090909090909,
                "pitch": 74,
                "velocity": 25,
                "duration": 0.21818181818181825,
                "tempo": 120.0
            },
            {
                "start_time": 2.05,
                "end_time": 2.493181818181818,
                "pitch": 66,
                "velocity": 25,
                "duration": 0.44318181818181834,
                "tempo": 120.0
            }
        ],
        "Violin": [
            {
                "start_time": 0.0,
                "end_time": 0.08409090909090909,
                "pitch": 64,
                "velocity": 25,
                "duration": 0.08409090909090909,
                "tempo": 120.0
            },
            {
                "start_time": 0.09999999999999999,
                "end_time": 0.5340909090909091,
                "pitch": 69,
                "velocity": 25,
                "duration": 0.4340909090909091,
                "tempo": 120.0
            },
            {
                "start_time": 0.5499999999999999,
                "end_time": 0.7704545454545454,
                "pitch": 69,
                "velocity": 25,
                "duration": 0.22045454545454546,
                "tempo": 120.0
            },
            {
                "start_time": 0.7863636363636364,
                "end_time": 1.2363636363636363,
                "pitch": 66,
                "velocity": 25,
                "duration": 0.44999999999999996,
                "tempo": 120.0
            },
            {
                "start_time": 1.2522727272727272,
                "end_time": 1.4568181818181818,
                "pitch": 69,
                "velocity": 25,
                "duration": 0.20454545454545459,
                "tempo": 120.0
            },
            {
                "start_time": 1.4704545454545455,
                "end_time": 1.6818181818181817,
                "pitch": 74,
                "velocity": 25,
                "duration": 0.2113636363636362,
                "tempo": 120.0
            },
            {
                "start_time": 1.7,
                "end_time": 1.9159090909090908,
                "pitch": 78,
                "velocity": 25,
                "duration": 0.21590909090909083,
                "tempo": 120.0
            },
            {
                "start_time": 1.934090909090909,
                "end_time": 2.1477272727272725,
                "pitch": 81,
                "velocity": 25,
                "duration": 0.2136363636363634,
                "tempo": 120.0
            },
            {
                "start_time": 2.165909090909091,
                "end_time": 2.609090909090909,
                "pitch": 74,
                "velocity": 25,
                "duration": 0.4431818181818179,
                "tempo": 120.0
            }
        ]
    }
}