{
    "track_id": "Summer Games (FM) - 01 - Title Screen",
    "mood": "happy",
    "instruments": {
        "Acoustic Bass": [
            {
                "start_time": 0.0,
                "end_time": 0.07727272727272727,
                "pitch": 37,
                "velocity": 32,
                "duration": 0.07727272727272727,
                "tempo": 120.0
            },
            {
                "start_time": 0.08863636363636364,
                "end_time": 0.17727272727272728,
                "pitch": 37,
                "velocity": 32,
                "duration": 0.08863636363636364,
                "tempo": 120.0
            },
            {
                "start_time": 0.18863636363636363,
                "end_time": 0.325,
                "pitch": 49,
                "velocity": 32,
                "duration": 0.13636363636363638,
                "tempo": 120.0
            },
            {
                "start_time": 0.3409090909090909,
                "end_time": 0.475,
                "pitch": 37,
                "velocity": 32,
                "duration": 0.1340909090909091,
                "tempo": 120.0
            },
            {
                "start_time": 0.49318181818181817,
                "end_time": 0.6272727272727272,
                "pitch": 37,
                "velocity": 32,
                "duration": 0.13409090909090904,
                "tempo": 120.0
            },
            {
                "start_time": 0.6431818181818182,
                "end_time": 0.7795454545454545,
                "pitch": 49,
                "velocity": 32,
                "duration": 0.13636363636363635,
                "tempo": 120.0
            },
            {
                "start_time": 0.7954545454545454,
                "end_time": 0.9272727272727272,
                "pitch": 37,
                "velocity": 32,
                "duration": 0.13181818181818183,
                "tempo": 120.0
            },
            {
                "start_time": 0.9431818181818181,
                "end_time": 1.075,
                "pitch": 37,
                "velocity": 32,
                "duration": 0.13181818181818183,
                "tempo": 120.0
            },
            {
                "start_time": 1.093181818181818,
                "end_time": 1.2249999999999999,
                "pitch": 49,
                "velocity": 32,
                "duration": 0.13181818181818183,
                "tempo": 120.0
            },
            {
                "start_time": 1.2409090909090907,
                "end_time": 1.3727272727272726,
                "pitch": 37,
                "velocity": 32,
                "duration": 0.13181818181818183,
                "tempo": 120.0
            },
            {
                "start_time": 1.3886363636363637,
                "end_time": 1.525,
                "pitch": 37,
                "velocity": 32,
                "duration": 0.13636363636363624,
                "tempo": 120.0
            },
            {
                "start_time": 1.5431818181818182,
                "end_time": 1.6795454545454545,
                "pitch": 49,
                "velocity": 32,
                "duration": 0.13636363636363624,
                "tempo": 120.0
            },
            {
                "start_time": 1.6954545454545453,
                "end_time": 1.8318181818181818,
                "pitch": 37,
                "velocity": 32,
                "duration": 0.13636363636363646,
                "tempo": 120.0
            },
            {
                "start_time": 1.8477272727272727,
                "end_time": 1.984090909090909,
                "pitch": 37,
                "velocity": 32,
                "duration": 0.13636363636363624,
                "tempo": 120.0
            },
            {
                "start_time": 2.002272727272727,
                "end_time": 2.1363636363636362,
                "pitch": 49,
                "velocity": 32,
                "duration": 0.13409090909090926,
                "tempo": 120.0
            },
            {
                "start_time": 2.1522727272727273,
                "end_time": 2.2886363636363636,
                "pitch": 37,
                "velocity": 32,
                "duration": 0.13636363636363624,
                "tempo": 120.0
            },
            {
                "start_time": 2.3045454545454542,
                "end_time": 2.4386363636363635,
                "pitch": 35,
                "velocity": 32,
                "duration": 0.13409090909090926,
                "tempo": 120.0
            },
            {
                "start_time": 2.4568181818181816,
                "end_time": 2.590909090909091,
                "pitch": 35,
                "velocity": 32,
                "duration": 0.13409090909090926,
                "tempo": 120.0
            },
            {
                "start_time": 2.6068181818181815,
                "end_time": 2.743181818181818,
                "pitch": 47,
                "velocity": 32,
                "duration": 0.1363636363636367,
                "tempo": 120.0
            },
            {
                "start_time": 2.759090909090909,
                "end_time": 2.893181818181818,
                "pitch": 35,
                "velocity": 32,
                "duration": 0.13409090909090926,
                "tempo": 120.0
            },
            {
                "start_time": 2.911363636363636,
                "end_time": 3.0454545454545454,
                "pitch": 35,
                "velocity": 32,
                "duration": 0.13409090909090926,
                "tempo": 120.0
            },
            {
                "start_time": 3.061363636363636,
                "end_time": 3.1977272727272728,
                "pitch": 47,
                "velocity": 32,
                "duration": 0.1363636363636367,
                "tempo": 120.0
            },
            {
                "start_time": 3.2136363636363634,
                "end_time": 3.3477272727272727,
                "pitch": 35,
                "velocity": 32,
                "duration": 0.13409090909090926,
                "tempo": 120.0
            },
            {
                "start_time": 3.3636363636363633,
                "end_time": 3.4977272727272726,
                "pitch": 35,
                "velocity": 32,
                "duration": 0.13409090909090926,
                "tempo": 120.0
            },
            {
                "start_time": 3.5136363636363637,
                "end_time": 3.6477272727272725,
                "pitch": 35,
                "velocity": 32,
                "duration": 0.13409090909090882,
                "tempo": 120.0
            },
            {
                "start_time": 3.6636363636363636,
                "end_time": 3.9499999999999997,
                "pitch": 33,
                "velocity": 32,
                "duration": 0.28636363636363615,
                "tempo": 120.0
            },
            {
                "start_time": 3.965909090909091,
                "end_time": 4.256818181818182,
                "pitch": 33,
                "velocity": 32,
                "duration": 0.290909090909091,
                "tempo": 120.0
            },
            {
                "start_time": 4.2727272727272725,
                "end_time": 4.409090909090909,
                "pitch": 33,
                "velocity": 32,
                "duration": 0.1363636363636367,
                "tempo": 120.0
            },
            {
                "start_time": 4.425,
                "end_time": 4.706818181818182,
                "pitch": 35,
                "velocity": 32,
                "duration": 0.2818181818181822,
                "tempo": 120.0
            },
            {
                "start_time": 4.722727272727273,
                "end_time": 4.8545454545454545,
                "pitch": 37,
                "velocity": 32,
                "duration": 0.13181818181818183,
                "tempo": 120.0
            },
            {
                "start_time": 4.870454545454545,
                "end_time": 5.004545454545454,
                "pitch": 37,
                "velocity": 32,
                "duration": 0.13409090909090882,
                "tempo": 120.0
            },
            {
                "start_time": 5.0204545454545455,
                "end_time": 5.152272727272727,
                "pitch": 49,
                "velocity": 32,
                "duration": 0.13181818181818183,
                "tempo": 120.0
            },
            {
                "start_time": 5.170454545454545,
                "end_time": 5.302272727272727,
                "pitch": 37,
                "velocity": 32,
                "duration": 0.13181818181818183,
                "tempo": 120.0
            },
            {
                "start_time": 5.320454545454545,
                "end_time": 5.452272727272727,
                "pitch": 37,
                "velocity": 32,
                "duration": 0.13181818181818183,
                "tempo": 120.0
            },
            {
                "start_time": 5.470454545454545,
                "end_time": 5.602272727272727,
                "pitch": 49,
                "velocity": 32,
                "duration": 0.13181818181818183,
                "tempo": 120.0
            },
            {
                "start_time": 5.620454545454545,
                "end_time": 5.752272727272727,
                "pitch": 37,
                "velocity": 32,
                "duration": 0.13181818181818183,
                "tempo": 120.0
            },
            {
                "start_time": 5.7704545454545455,
                "end_time": 5.902272727272727,
                "pitch": 37,
                "velocity": 32,
                "duration": 0.13181818181818183,
                "tempo": 120.0
            },
            {
                "start_time": 5.920454545454545,
                "end_time": 6.052272727272727,
                "pitch": 49,
                "velocity": 32,
                "duration": 0.13181818181818183,
                "tempo": 120.0
            },
            {
                "start_time": 6.070454545454545,
                "end_time": 6.202272727272727,
                "pitch": 37,
                "velocity": 32,
                "duration": 0.13181818181818183,
                "tempo": 120.0
            },
            {
                "start_time": 6.220454545454545,
                "end_time": 6.3545454545454545,
                "pitch": 37,
                "velocity": 32,
                "duration": 0.1340909090909097,
                "tempo": 120.0
            },
            {
                "start_time": 6.372727272727272,
                "end_time": 6.506818181818182,
                "pitch": 49,
                "velocity": 32,
                "duration": 0.1340909090909097,
                "tempo": 120.0
            },
            {
                "start_time": 6.5227272727272725,
                "end_time": 6.656818181818181,
                "pitch": 37,
                "velocity": 32,
                "duration": 0.13409090909090882,
                "tempo": 120.0
            },
            {
                "start_time": 6.675,
                "end_time": 6.809090909090909,
                "pitch": 37,
                "velocity": 32,
                "duration": 0.13409090909090882,
                "tempo": 120.0
            },
            {
                "start_time": 6.827272727272727,
                "end_time": 6.961363636363636,
                "pitch": 49,
                "velocity": 32,
                "duration": 0.13409090909090882,
                "tempo": 120.0
            },
            {
                "start_time": 6.9795454545454545,
                "end_time": 7.11590909090909,
                "pitch": 37,
                "velocity": 32,
                "duration": 0.1363636363636358,
                "tempo": 120.0
            },
            {
                "start_time": 7.131818181818182,
                "end_time": 7.268181818181818,
                "pitch": 35,
                "velocity": 32,
                "duration": 0.1363636363636358,
                "tempo": 120.0
            },
            {
                "start_time": 7.286363636363636,
                "end_time": 7.420454545454545,
                "pitch": 35,
                "velocity": 32,
                "duration": 0.13409090909090882,
                "tempo": 120.0
            },
            {
                "start_time": 7.4386363636363635,
                "end_time": 7.570454545454545,
                "pitch": 47,
                "velocity": 32,
                "duration": 0.13181818181818183,
                "tempo": 120.0
            },
            {
                "start_time": 7.586363636363636,
                "end_time": 7.718181818181818,
                "pitch": 35,
                "velocity": 32,
                "duration": 0.13181818181818183,
                "tempo": 120.0
            },
            {
                "start_time": 7.736363636363636,
                "end_time": 7.868181818181818,
                "pitch": 35,
                "velocity": 32,
                "duration": 0.13181818181818183,
                "tempo": 120.0
            },
            {
                "start_time": 7.884090909090909,
                "end_time": 8.01590909090909,
                "pitch": 47,
                "velocity": 32,
                "duration": 0.13181818181818183,
                "tempo": 120.0
            },
            {
                "start_time": 8.031818181818181,
                "end_time": 8.165909090909091,
                "pitch": 35,
                "velocity": 32,
                "duration": 0.1340909090909097,
                "tempo": 120.0
            },
            {
                "start_time": 8.181818181818182,
                "end_time": 8.315909090909091,
                "pitch": 35,
                "velocity": 32,
                "duration": 0.1340909090909097,
                "tempo": 120.0
            },
            {
                "start_time": 8.331818181818182,
                "end_time": 8.46590909090909,
                "pitch": 35,
                "velocity": 32,
                "duration": 0.13409090909090793,
                "tempo": 120.0
            },
            {
                "start_time": 8.48181818181818,
                "end_time": 8.61590909090909,
                "pitch": 35,
                "velocity": 32,
                "duration": 0.1340909090909097,
                "tempo": 120.0
            },
            {
                "start_time": 8.631818181818181,
                "end_time": 8.768181818181818,
                "pitch": 35,
                "velocity": 32,
                "duration": 0.1363636363636367,
                "tempo": 120.0
            },
            {
                "start_time": 8.786363636363635,
                "end_time": 8.920454545454545,
                "pitch": 47,
                "velocity": 32,
                "duration": 0.1340909090909097,
                "tempo": 120.0
            },
            {
                "start_time": 8.938636363636363,
                "end_time": 8.988636363636363,
                "pitch": 35,
                "velocity": 32,
                "duration": 0.05000000000000071,
                "tempo": 120.0
            },
            {
                "start_time": 9.022727272727272,
                "end_time": 9.075,
                "pitch": 35,
                "velocity": 32,
                "duration": 0.05227272727272769,
                "tempo": 120.0
            },
            {
                "start_time": 9.09090909090909,
                "end_time": 9.227272727272727,
                "pitch": 35,
                "velocity": 32,
                "duration": 0.1363636363636367,
                "tempo": 120.0
            },
            {
                "start_time": 9.245454545454544,
                "end_time": 9.377272727272727,
                "pitch": 47,
                "velocity": 32,
                "duration": 0.13181818181818272,
                "tempo": 120.0
            },
            {
                "start_time": 9.393181818181818,
                "end_time": 9.525,
                "pitch": 35,
                "velocity": 32,
                "duration": 0.13181818181818272,
                "tempo": 120.0
            },
            {
                "start_time": 9.540909090909091,
                "end_time": 9.672727272727272,
                "pitch": 37,
                "velocity": 32,
                "duration": 0.13181818181818095,
                "tempo": 120.0
            },
            {
                "start_time": 9.69090909090909,
                "end_time": 9.822727272727272,
                "pitch": 37,
                "velocity": 32,
                "duration": 0.13181818181818272,
                "tempo": 120.0
            },
            {
                "start_time": 9.838636363636363,
                "end_time": 9.972727272727273,
                "pitch": 49,
                "velocity": 32,
                "duration": 0.1340909090909097,
                "tempo": 120.0
            },
            {
                "start_time": 9.99090909090909,
                "end_time": 10.125,
                "pitch": 37,
                "velocity": 32,
                "duration": 0.1340909090909097,
                "tempo": 120.0
            },
            {
                "start_time": 10.14090909090909,
                "end_time": 10.277272727272727,
                "pitch": 37,
                "velocity": 32,
                "duration": 0.1363636363636367,
                "tempo": 120.0
            },
            {
                "start_time": 10.293181818181818,
                "end_time": 10.427272727272726,
                "pitch": 49,
                "velocity": 32,
                "duration": 0.13409090909090793,
                "tempo": 120.0
            },
            {
                "start_time": 10.445454545454545,
                "end_time": 10.577272727272726,
                "pitch": 37,
                "velocity": 32,
                "duration": 0.13181818181818095,
                "tempo": 120.0
            },
            {
                "start_time": 10.595454545454546,
                "end_time": 10.727272727272727,
                "pitch": 37,
                "velocity": 32,
                "duration": 0.13181818181818095,
                "tempo": 120.0
            },
            {
                "start_time": 10.745454545454544,
                "end_time": 10.877272727272727,
                "pitch": 49,
                "velocity": 32,
                "duration": 0.13181818181818272,
                "tempo": 120.0
            },
            {
                "start_time": 10.895454545454545,
                "end_time": 11.027272727272727,
                "pitch": 37,
                "velocity": 32,
                "duration": 0.13181818181818272,
                "tempo": 120.0
            },
            {
                "start_time": 11.045454545454545,
                "end_time": 11.177272727272726,
                "pitch": 37,
                "velocity": 32,
                "duration": 0.13181818181818095,
                "tempo": 120.0
            },
            {
                "start_time": 11.195454545454545,
                "end_time": 11.327272727272726,
                "pitch": 49,
                "velocity": 32,
                "duration": 0.13181818181818095,
                "tempo": 120.0
            },
            {
                "start_time": 11.345454545454546,
                "end_time": 11.477272727272727,
                "pitch": 37,
                "velocity": 32,
                "duration": 0.13181818181818095,
                "tempo": 120.0
            },
            {
                "start_time": 11.495454545454544,
                "end_time": 11.627272727272727,
                "pitch": 37,
                "velocity": 32,
                "duration": 0.13181818181818272,
                "tempo": 120.0
            },
            {
                "start_time": 11.645454545454545,
                "end_time": 11.779545454545454,
                "pitch": 49,
                "velocity": 32,
                "duration": 0.1340909090909097,
                "tempo": 120.0
            },
            {
                "start_time": 11.797727272727272,
                "end_time": 11.934090909090909,
                "pitch": 37,
                "velocity": 32,
                "duration": 0.1363636363636367,
                "tempo": 120.0
            },
            {
                "start_time": 11.95,
                "end_time": 12.086363636363636,
                "pitch": 35,
                "velocity": 32,
                "duration": 0.1363636363636367,
                "tempo": 120.0
            },
            {
                "start_time": 12.104545454545454,
                "end_time": 12.238636363636363,
                "pitch": 35,
                "velocity": 32,
                "duration": 0.1340909090909097,
                "tempo": 120.0
            },
            {
                "start_time": 12.256818181818181,
                "end_time": 12.388636363636364,
                "pitch": 47,
                "velocity": 32,
                "duration": 0.13181818181818272,
                "tempo": 120.0
            },
            {
                "start_time": 12.404545454545454,
                "end_time": 12.536363636363635,
                "pitch": 35,
                "velocity": 32,
                "duration": 0.13181818181818095,
                "tempo": 120.0
            },
            {
                "start_time": 12.554545454545455,
                "end_time": 12.686363636363636,
                "pitch": 35,
                "velocity": 32,
                "duration": 0.13181818181818095,
                "tempo": 120.0
            },
            {
                "start_time": 12.702272727272726,
                "end_time": 12.834090909090909,
                "pitch": 47,
                "velocity": 32,
                "duration": 0.13181818181818272,
                "tempo": 120.0
            },
            {
                "start_time": 12.85,
                "end_time": 12.986363636363636,
                "pitch": 35,
                "velocity": 32,
                "duration": 0.1363636363636367,
                "tempo": 120.0
            },
            {
                "start_time": 13.002272727272727,
                "end_time": 13.136363636363635,
                "pitch": 35,
                "velocity": 32,
                "duration": 0.13409090909090793,
                "tempo": 120.0
            },
            {
                "start_time": 13.154545454545454,
                "end_time": 13.288636363636362,
                "pitch": 47,
                "velocity": 32,
                "duration": 0.13409090909090793,
                "tempo": 120.0
            },
            {
                "start_time": 13.304545454545455,
                "end_time": 13.44090909090909,
                "pitch": 35,
                "velocity": 32,
                "duration": 0.1363636363636349,
                "tempo": 120.0
            },
            {
                "start_time": 13.456818181818182,
                "end_time": 13.593181818181817,
                "pitch": 35,
                "velocity": 32,
                "duration": 0.1363636363636349,
                "tempo": 120.0
            },
            {
                "start_time": 13.609090909090908,
                "end_time": 13.897727272727272,
                "pitch": 47,
                "velocity": 32,
                "duration": 0.288636363636364,
                "tempo": 120.0
            },
            {
                "start_time": 13.915909090909091,
                "end_time": 14.052272727272726,
                "pitch": 47,
                "velocity": 32,
                "duration": 0.1363636363636349,
                "tempo": 120.0
            },
            {
                "start_time": 14.068181818181818,
                "end_time": 14.202272727272726,
                "pitch": 47,
                "velocity": 32,
                "duration": 0.13409090909090793,
                "tempo": 120.0
            },
            {
                "start_time": 14.218181818181817,
                "end_time": 14.352272727272727,
                "pitch": 47,
                "velocity": 32,
                "duration": 0.1340909090909097,
                "tempo": 120.0
            },
            {
                "start_time": 14.368181818181817,
                "end_time": 14.502272727272727,
                "pitch": 33,
                "velocity": 32,
                "duration": 0.1340909090909097,
                "tempo": 120.0
            },
            {
                "start_time": 14.518181818181818,
                "end_time": 14.652272727272727,
                "pitch": 33,
                "velocity": 32,
                "duration": 0.1340909090909097,
                "tempo": 120.0
            },
            {
                "start_time": 14.668181818181818,
                "end_time": 14.802272727272726,
                "pitch": 33,
                "velocity": 32,
                "duration": 0.13409090909090793,
                "tempo": 120.0
            },
            {
                "start_time": 14.818181818181818,
                "end_time": 14.952272727272726,
                "pitch": 33,
                "velocity": 32,
                "duration": 0.13409090909090793,
                "tempo": 120.0
            },
            {
                "start_time": 14.968181818181817,
                "end_time": 15.102272727272727,
                "pitch": 33,
                "velocity": 32,
                "duration": 0.1340909090909097,
                "tempo": 120.0
            },
            {
                "start_time": 15.118181818181817,
                "end_time": 15.252272727272727,
                "pitch": 33,
                "velocity": 32,
                "duration": 0.1340909090909097,
                "tempo": 120.0
            },
            {
                "start_time": 15.268181818181818,
                "end_time": 15.399999999999999,
                "pitch": 45,
                "velocity": 32,
                "duration": 0.13181818181818095,
                "tempo": 120.0
            },
            {
                "start_time": 15.418181818181818,
                "end_time": 15.549999999999999,
                "pitch": 33,
                "velocity": 32,
                "duration": 0.13181818181818095,
                "tempo": 120.0
            },
            {
                "start_time": 15.56590909090909,
                "end_time": 15.697727272727272,
                "pitch": 35,
                "velocity": 32,
                "duration": 0.13181818181818272,
                "tempo": 120.0
            },
            {
                "start_time": 15.713636363636363,
                "end_time": 15.845454545454544,
                "pitch": 35,
                "velocity": 32,
                "duration": 0.13181818181818095,
                "tempo": 120.0
            },
            {
                "start_time": 15.863636363636363,
                "end_time": 16.0,
                "pitch": 35,
                "velocity": 32,
                "duration": 0.1363636363636367,
                "tempo": 120.0
            },
            {
                "start_time": 16.01590909090909,
                "end_time": 16.152272727272727,
                "pitch": 35,
                "velocity": 32,
                "duration": 0.1363636363636367,
                "tempo": 120.0
            },
            {
                "start_time": 16.168181818181818,
                "end_time": 16.304545454545455,
                "pitch": 35,
                "velocity": 32,
                "duration": 0.1363636363636367,
                "tempo": 120.0
            },
            {
                "start_time": 16.32272727272727,
                "end_time": 16.459090909090907,
                "pitch": 40,
                "velocity": 32,
                "duration": 0.1363636363636367,
                "tempo": 120.0
            },
            {
                "start_time": 16.474999999999998,
                "end_time": 16.60909090909091,
                "pitch": 42,
                "velocity": 32,
                "duration": 0.13409090909091148,
                "tempo": 120.0
            },
            {
                "start_time": 16.625,
                "end_time": 16.759090909090908,
                "pitch": 44,
                "velocity": 32,
                "duration": 0.13409090909090793,
                "tempo": 120.0
            },
            {
                "start_time": 16.775,
                "end_time": 16.909090909090907,
                "pitch": 37,
                "velocity": 32,
                "duration": 0.13409090909090793,
                "tempo": 120.0
            },
            {
                "start_time": 16.925,
                "end_time": 17.05909090909091,
                "pitch": 37,
                "velocity": 32,
                "duration": 0.13409090909090793,
                "tempo": 120.0
            },
            {
                "start_time": 17.075,
                "end_time": 17.206818181818182,
                "pitch": 49,
                "velocity": 32,
                "duration": 0.13181818181818272,
                "tempo": 120.0
            },
            {
                "start_time": 17.222727272727273,
                "end_time": 17.35681818181818,
                "pitch": 37,
                "velocity": 32,
                "duration": 0.13409090909090793,
                "tempo": 120.0
            },
            {
                "start_time": 17.37272727272727,
                "end_time": 17.504545454545454,
                "pitch": 37,
                "velocity": 32,
                "duration": 0.13181818181818272,
                "tempo": 120.0
            },
            {
                "start_time": 17.520454545454545,
                "end_time": 17.652272727272727,
                "pitch": 49,
                "velocity": 32,
                "duration": 0.13181818181818272,
                "tempo": 120.0
            },
            {
                "start_time": 17.668181818181818,
                "end_time": 17.804545454545455,
                "pitch": 37,
                "velocity": 32,
                "duration": 0.1363636363636367,
                "tempo": 120.0
            },
            {
                "start_time": 17.820454545454545,
                "end_time": 17.954545454545453,
                "pitch": 37,
                "velocity": 32,
                "duration": 0.13409090909090793,
                "tempo": 120.0
            },
            {
                "start_time": 17.972727272727273,
                "end_time": 18.259090909090908,
                "pitch": 37,
                "velocity": 32,
                "duration": 0.28636363636363527,
                "tempo": 120.0
            },
            {
                "start_time": 18.577272727272728,
                "end_time": 18.863636363636363,
                "pitch": 33,
                "velocity": 32,
                "duration": 0.28636363636363527,
                "tempo": 120.0
            },
            {
                "start_time": 18.88181818181818,
                "end_time": 19.170454545454543,
                "pitch": 35,
                "velocity": 32,
                "duration": 0.288636363636364,
                "tempo": 120.0
            },
            {
                "start_time": 19.186363636363634,
                "end_time": 19.32272727272727,
                "pitch": 37,
                "velocity": 32,
                "duration": 0.1363636363636367,
                "tempo": 120.0
            },
            {
                "start_time": 19.34090909090909,
                "end_time": 19.477272727272727,
                "pitch": 37,
                "velocity": 32,
                "duration": 0.1363636363636367,
                "tempo": 120.0
            },
            {
                "start_time": 19.493181818181817,
                "end_time": 19.627272727272725,
                "pitch": 49,
                "velocity": 32,
                "duration": 0.13409090909090793,
                "tempo": 120.0
            },
            {
                "start_time": 19.643181818181816,
                "end_time": 19.777272727272727,
                "pitch": 37,
                "velocity": 32,
                "duration": 0.13409090909091148,
                "tempo": 120.0
            },
            {
                "start_time": 19.793181818181818,
                "end_time": 19.927272727272726,
                "pitch": 37,
                "velocity": 32,
                "duration": 0.13409090909090793,
                "tempo": 120.0
            },
            {
                "start_time": 19.943181818181817,
                "end_time": 20.077272727272728,
                "pitch": 49,
                "velocity": 32,
                "duration": 0.13409090909091148,
                "tempo": 120.0
            },
            {
                "start_time": 20.09318181818182,
                "end_time": 20.224999999999998,
                "pitch": 37,
                "velocity": 32,
                "duration": 0.13181818181817917,
                "tempo": 120.0
            },
            {
                "start_time": 20.243181818181817,
                "end_time": 20.375,
                "pitch": 37,
                "velocity": 32,
                "duration": 0.13181818181818272,
                "tempo": 120.0
            },
            {
                "start_time": 20.39090909090909,
                "end_time": 20.522727272727273,
                "pitch": 49,
                "velocity": 32,
                "duration": 0.13181818181818272,
                "tempo": 120.0
            },
            {
                "start_time": 20.538636363636364,
                "end_time": 20.670454545454543,
                "pitch": 37,
                "velocity": 32,
                "duration": 0.13181818181817917,
                "tempo": 120.0
            },
            {
                "start_time": 20.688636363636363,
                "end_time": 20.82272727272727,
                "pitch": 37,
                "velocity": 32,
                "duration": 0.13409090909090793,
                "tempo": 120.0
            },
            {
                "start_time": 20.84090909090909,
                "end_time": 20.977272727272727,
                "pitch": 49,
                "velocity": 32,
                "duration": 0.1363636363636367,
                "tempo": 120.0
            },
            {
                "start_time": 20.993181818181817,
                "end_time": 21.129545454545454,
                "pitch": 37,
                "velocity": 32,
                "duration": 0.1363636363636367,
                "tempo": 120.0
            },
            {
                "start_time": 21.147727272727273,
                "end_time": 21.28181818181818,
                "pitch": 37,
                "velocity": 32,
                "duration": 0.13409090909090793,
                "tempo": 120.0
            },
            {
                "start_time": 21.3,
                "end_time": 21.43181818181818,
                "pitch": 49,
                "velocity": 32,
                "duration": 0.13181818181817917,
                "tempo": 120.0
            },
            {
                "start_time": 21.44772727272727,
                "end_time": 21.579545454545453,
                "pitch": 37,
                "velocity": 32,
                "duration": 0.13181818181818272,
                "tempo": 120.0
            },
            {
                "start_time": 21.597727272727273,
                "end_time": 21.729545454545452,
                "pitch": 35,
                "velocity": 32,
                "duration": 0.13181818181817917,
                "tempo": 120.0
            },
            {
                "start_time": 21.745454545454546,
                "end_time": 21.877272727272725,
                "pitch": 35,
                "velocity": 32,
                "duration": 0.13181818181817917,
                "tempo": 120.0
            },
            {
                "start_time": 21.893181818181816,
                "end_time": 22.027272727272727,
                "pitch": 47,
                "velocity": 32,
                "duration": 0.13409090909091148,
                "tempo": 120.0
            },
            {
                "start_time": 22.043181818181818,
                "end_time": 22.177272727272726,
                "pitch": 35,
                "velocity": 32,
                "duration": 0.13409090909090793,
                "tempo": 120.0
            },
            {
                "start_time": 22.193181818181817,
                "end_time": 22.327272727272724,
                "pitch": 35,
                "velocity": 32,
                "duration": 0.13409090909090793,
                "tempo": 120.0
            },
            {
                "start_time": 22.34318181818182,
                "end_time": 22.477272727272727,
                "pitch": 47,
                "velocity": 32,
                "duration": 0.13409090909090793,
                "tempo": 120.0
            },
            {
                "start_time": 22.493181818181817,
                "end_time": 22.629545454545454,
                "pitch": 35,
                "velocity": 32,
                "duration": 0.1363636363636367,
                "tempo": 120.0
            },
            {
                "start_time": 22.645454545454545,
                "end_time": 22.779545454545453,
                "pitch": 35,
                "velocity": 32,
                "duration": 0.13409090909090793,
                "tempo": 120.0
            },
            {
                "start_time": 22.797727272727272,
                "end_time": 22.93181818181818,
                "pitch": 35,
                "velocity": 32,
                "duration": 0.13409090909090793,
                "tempo": 120.0
            },
            {
                "start_time": 22.94772727272727,
                "end_time": 23.236363636363635,
                "pitch": 33,
                "velocity": 32,
                "duration": 0.288636363636364,
                "tempo": 120.0
            },
            {
                "start_time": 23.252272727272725,
                "end_time": 23.54090909090909,
                "pitch": 33,
                "velocity": 32,
                "duration": 0.288636363636364,
                "tempo": 120.0
            },
            {
                "start_time": 23.55909090909091,
                "end_time": 23.695454545454545,
                "pitch": 33,
                "velocity": 32,
                "duration": 0.1363636363636367,
                "tempo": 120.0
            },
            {
                "start_time": 23.711363636363636,
                "end_time": 23.99772727272727,
                "pitch": 35,
                "velocity": 32,
                "duration": 0.28636363636363527,
                "tempo": 120.0
            },
            {
                "start_time": 24.01590909090909,
                "end_time": 24.15,
                "pitch": 37,
                "velocity": 32,
                "duration": 0.13409090909090793,
                "tempo": 120.0
            },
            {
                "start_time": 24.16590909090909,
                "end_time": 24.302272727272726,
                "pitch": 37,
                "velocity": 32,
                "duration": 0.1363636363636367,
                "tempo": 120.0
            },
            {
                "start_time": 24.318181818181817,
                "end_time": 24.45,
                "pitch": 49,
                "velocity": 32,
                "duration": 0.13181818181818272,
                "tempo": 120.0
            },
            {
                "start_time": 24.46590909090909,
                "end_time": 24.597727272727273,
                "pitch": 37,
                "velocity": 32,
                "duration": 0.13181818181818272,
                "tempo": 120.0
            },
            {
                "start_time": 24.61590909090909,
                "end_time": 24.74772727272727,
                "pitch": 37,
                "velocity": 32,
                "duration": 0.13181818181818272,
                "tempo": 120.0
            },
            {
                "start_time": 24.763636363636362,
                "end_time": 24.895454545454545,
                "pitch": 49,
                "velocity": 32,
                "duration": 0.13181818181818272,
                "tempo": 120.0
            },
            {
                "start_time": 24.911363636363635,
                "end_time": 25.045454545454543,
                "pitch": 37,
                "velocity": 32,
                "duration": 0.13409090909090793,
                "tempo": 120.0
            },
            {
                "start_time": 25.061363636363634,
                "end_time": 25.195454545454545,
                "pitch": 37,
                "velocity": 32,
                "duration": 0.13409090909091148,
                "tempo": 120.0
            },
            {
                "start_time": 25.211363636363636,
                "end_time": 25.345454545454544,
                "pitch": 49,
                "velocity": 32,
                "duration": 0.13409090909090793,
                "tempo": 120.0
            },
            {
                "start_time": 25.361363636363635,
                "end_time": 25.495454545454542,
                "pitch": 37,
                "velocity": 32,
                "duration": 0.13409090909090793,
                "tempo": 120.0
            },
            {
                "start_time": 25.511363636363637,
                "end_time": 25.64772727272727,
                "pitch": 37,
                "velocity": 32,
                "duration": 0.13636363636363313,
                "tempo": 120.0
            },
            {
                "start_time": 25.663636363636364,
                "end_time": 25.797727272727272,
                "pitch": 49,
                "velocity": 32,
                "duration": 0.13409090909090793,
                "tempo": 120.0
            },
            {
                "start_time": 25.81590909090909,
                "end_time": 25.95,
                "pitch": 37,
                "velocity": 32,
                "duration": 0.13409090909090793,
                "tempo": 120.0
            },
            {
                "start_time": 25.96590909090909,
                "end_time": 26.102272727272727,
                "pitch": 37,
                "velocity": 32,
                "duration": 0.1363636363636367,
                "tempo": 120.0
            },
            {
                "start_time": 26.118181818181817,
                "end_time": 26.252272727272725,
                "pitch": 49,
                "velocity": 32,
                "duration": 0.13409090909090793,
                "tempo": 120.0
            },
            {
                "start_time": 26.268181818181816,
                "end_time": 26.402272727272727,
                "pitch": 37,
                "velocity": 32,
                "duration": 0.13409090909091148,
                "tempo": 120.0
            },
            {
                "start_time": 26.418181818181818,
                "end_time": 26.552272727272726,
                "pitch": 35,
                "velocity": 32,
                "duration": 0.13409090909090793,
                "tempo": 120.0
            },
            {
                "start_time": 26.568181818181817,
                "end_time": 26.702272727272724,
                "pitch": 35,
                "velocity": 32,
                "duration": 0.13409090909090793,
                "tempo": 120.0
            },
            {
                "start_time": 26.718181818181815,
                "end_time": 26.852272727272727,
                "pitch": 47,
                "velocity": 32,
                "duration": 0.13409090909091148,
                "tempo": 120.0
            },
            {
                "start_time": 26.870454545454542,
                "end_time": 27.004545454545454,
                "pitch": 35,
                "velocity": 32,
                "duration": 0.13409090909091148,
                "tempo": 120.0
            },
            {
                "start_time": 27.020454545454545,
                "end_time": 27.15681818181818,
                "pitch": 35,
                "velocity": 32,
                "duration": 0.1363636363636367,
                "tempo": 120.0
            },
            {
                "start_time": 27.172727272727272,
                "end_time": 27.30681818181818,
                "pitch": 47,
                "velocity": 32,
                "duration": 0.13409090909090793,
                "tempo": 120.0
            },
            {
                "start_time": 27.325,
                "end_time": 27.459090909090907,
                "pitch": 35,
                "velocity": 32,
                "duration": 0.13409090909090793,
                "tempo": 120.0
            },
            {
                "start_time": 27.474999999999998,
                "end_time": 27.611363636363635,
                "pitch": 35,
                "velocity": 32,
                "duration": 0.1363636363636367,
                "tempo": 120.0
            },
            {
                "start_time": 27.627272727272725,
                "end_time": 27.761363636363637,
                "pitch": 35,
                "velocity": 32,
                "duration": 0.13409090909091148,
                "tempo": 120.0
            },
            {
                "start_time": 27.779545454545453,
                "end_time": 27.913636363636364,
                "pitch": 35,
                "velocity": 32,
                "duration": 0.13409090909091148,
                "tempo": 120.0
            },
            {
                "start_time": 27.929545454545455,
                "end_time": 28.065909090909088,
                "pitch": 35,
                "velocity": 32,
                "duration": 0.13636363636363313,
                "tempo": 120.0
            },
            {
                "start_time": 28.084090909090907,
                "end_time": 28.220454545454544,
                "pitch": 47,
                "velocity": 32,
                "duration": 0.1363636363636367,
                "tempo": 120.0
            },
            {
                "start_time": 28.236363636363635,
                "end_time": 28.288636363636364,
                "pitch": 35,
                "velocity": 32,
                "duration": 0.05227272727272947,
                "tempo": 120.0
            },
            {
                "start_time": 28.320454545454545,
                "end_time": 28.37272727272727,
                "pitch": 35,
                "velocity": 32,
                "duration": 0.052272727272725916,
                "tempo": 120.0
            },
            {
                "start_time": 28.388636363636362,
                "end_time": 28.525,
                "pitch": 35,
                "velocity": 32,
                "duration": 0.1363636363636367,
                "tempo": 120.0
            },
            {
                "start_time": 28.543181818181818,
                "end_time": 28.674999999999997,
                "pitch": 47,
                "velocity": 32,
                "duration": 0.13181818181817917,
                "tempo": 120.0
            },
            {
                "start_time": 28.693181818181817,
                "end_time": 28.825,
                "pitch": 35,
                "velocity": 32,
                "duration": 0.13181818181818272,
                "tempo": 120.0
            },
            {
                "start_time": 28.843181818181815,
                "end_time": 28.974999999999998,
                "pitch": 37,
                "velocity": 32,
                "duration": 0.13181818181818272,
                "tempo": 120.0
            },
            {
                "start_time": 28.993181818181817,
                "end_time": 29.125,
                "pitch": 37,
                "velocity": 32,
                "duration": 0.13181818181818272,
                "tempo": 120.0
            },
            {
                "start_time": 29.143181818181816,
                "end_time": 29.275,
                "pitch": 49,
                "velocity": 32,
                "duration": 0.13181818181818272,
                "tempo": 120.0
            },
            {
                "start_time": 29.29090909090909,
                "end_time": 29.422727272727272,
                "pitch": 37,
                "velocity": 32,
                "duration": 0.13181818181818272,
                "tempo": 120.0
            },
            {
                "start_time": 29.438636363636363,
                "end_time": 29.57272727272727,
                "pitch": 37,
                "velocity": 32,
                "duration": 0.13409090909090793,
                "tempo": 120.0
            },
            {
                "start_time": 29.58863636363636,
                "end_time": 29.720454545454544,
                "pitch": 49,
                "velocity": 32,
                "duration": 0.13181818181818272,
                "tempo": 120.0
            },
            {
                "start_time": 29.736363636363635,
                "end_time": 29.870454545454542,
                "pitch": 37,
                "velocity": 32,
                "duration": 0.13409090909090793,
                "tempo": 120.0
            },
            {
                "start_time": 29.888636363636362,
                "end_time": 30.02272727272727,
                "pitch": 37,
                "velocity": 32,
                "duration": 0.13409090909090793,
                "tempo": 120.0
            },
            {
                "start_time": 30.04090909090909,
                "end_time": 30.174999999999997,
                "pitch": 49,
                "velocity": 32,
                "duration": 0.13409090909090793,
                "tempo": 120.0
            },
            {
                "start_time": 30.190909090909088,
                "end_time": 30.325,
                "pitch": 37,
                "velocity": 32,
                "duration": 0.13409090909091148,
                "tempo": 120.0
            },
            {
                "start_time": 30.343181818181815,
                "end_time": 30.477272727272727,
                "pitch": 37,
                "velocity": 32,
                "duration": 0.13409090909091148,
                "tempo": 120.0
            },
            {
                "start_time": 30.495454545454542,
                "end_time": 30.629545454545454,
                "pitch": 49,
                "velocity": 32,
                "duration": 0.13409090909091148,
                "tempo": 120.0
            },
            {
                "start_time": 30.645454545454545,
                "end_time": 30.779545454545453,
                "pitch": 37,
                "velocity": 32,
                "duration": 0.13409090909090793,
                "tempo": 120.0
            },
            {
                "start_time": 30.797727272727272,
                "end_time": 30.93181818181818,
                "pitch": 37,
                "velocity": 32,
                "duration": 0.13409090909090793,
                "tempo": 120.0
            },
            {
                "start_time": 30.95,
                "end_time": 31.081818181818182,
                "pitch": 49,
                "velocity": 32,
                "duration": 0.13181818181818272,
                "tempo": 120.0
            },
            {
                "start_time": 31.099999999999998,
                "end_time": 31.23181818181818,
                "pitch": 37,
                "velocity": 32,
                "duration": 0.13181818181818272,
                "tempo": 120.0
            },
            {
                "start_time": 31.25,
                "end_time": 31.38181818181818,
                "pitch": 35,
                "velocity": 32,
                "duration": 0.13181818181817917,
                "tempo": 120.0
            },
            {
                "start_time": 31.4,
                "end_time": 31.53181818181818,
                "pitch": 35,
                "velocity": 32,
                "duration": 0.13181818181818272,
                "tempo": 120.0
            },
            {
                "start_time": 31.549999999999997,
                "end_time": 31.68409090909091,
                "pitch": 47,
                "velocity": 32,
                "duration": 0.13409090909091148,
                "tempo": 120.0
            },
            {
                "start_time": 31.702272727272724,
                "end_time": 31.83863636363636,
                "pitch": 35,
                "velocity": 32,
                "duration": 0.1363636363636367,
                "tempo": 120.0
            },
            {
                "start_time": 31.854545454545452,
                "end_time": 31.99090909090909,
                "pitch": 35,
                "velocity": 32,
                "duration": 0.1363636363636367,
                "tempo": 120.0
            },
            {
                "start_time": 32.00909090909091,
                "end_time": 32.143181818181816,
                "pitch": 47,
                "velocity": 32,
                "duration": 0.13409090909090793,
                "tempo": 120.0
            },
            {
                "start_time": 32.16136363636363,
                "end_time": 32.293181818181814,
                "pitch": 35,
                "velocity": 32,
                "duration": 0.13181818181818272,
                "tempo": 120.0
            },
            {
                "start_time": 32.309090909090905,
                "end_time": 32.44090909090909,
                "pitch": 35,
                "velocity": 32,
                "duration": 0.13181818181818272,
                "tempo": 120.0
            },
            {
                "start_time": 32.45909090909091,
                "end_time": 32.590909090909086,
                "pitch": 47,
                "velocity": 32,
                "duration": 0.13181818181817562,
                "tempo": 120.0
            },
            {
                "start_time": 32.60681818181818,
                "end_time": 32.73863636363636,
                "pitch": 35,
                "velocity": 32,
                "duration": 0.13181818181818272,
                "tempo": 120.0
            },
            {
                "start_time": 32.75454545454545,
                "end_time": 32.89090909090909,
                "pitch": 35,
                "velocity": 32,
                "duration": 0.13636363636364024,
                "tempo": 120.0
            },
            {
                "start_time": 32.90681818181818,
                "end_time": 33.19772727272727,
                "pitch": 47,
                "velocity": 32,
                "duration": 0.29090909090908923,
                "tempo": 120.0
            },
            {
                "start_time": 33.21363636363636,
                "end_time": 33.35,
                "pitch": 47,
                "velocity": 32,
                "duration": 0.13636363636364024,
                "tempo": 120.0
            },
            {
                "start_time": 33.36590909090909,
                "end_time": 33.502272727272725,
                "pitch": 47,
                "velocity": 32,
                "duration": 0.13636363636363313,
                "tempo": 120.0
            },
            {
                "start_time": 33.518181818181816,
                "end_time": 33.652272727272724,
                "pitch": 47,
                "velocity": 32,
                "duration": 0.13409090909090793,
                "tempo": 120.0
            },
            {
                "start_time": 33.67045454545455,
                "end_time": 33.804545454545455,
                "pitch": 33,
                "velocity": 32,
                "duration": 0.13409090909090793,
                "tempo": 120.0
            },
            {
                "start_time": 33.82272727272727,
                "end_time": 33.95681818181818,
                "pitch": 33,
                "velocity": 32,
                "duration": 0.13409090909090793,
                "tempo": 120.0
            },
            {
                "start_time": 33.97272727272727,
                "end_time": 34.10681818181818,
                "pitch": 33,
                "velocity": 32,
                "duration": 0.13409090909090793,
                "tempo": 120.0
            },
            {
                "start_time": 34.125,
                "end_time": 34.25909090909091,
                "pitch": 33,
                "velocity": 32,
                "duration": 0.13409090909090793,
                "tempo": 120.0
            },
            {
                "start_time": 34.277272727272724,
                "end_time": 34.41136363636363,
                "pitch": 33,
                "velocity": 32,
                "duration": 0.13409090909090793,
                "tempo": 120.0
            },
            {
                "start_time": 34.42727272727272,
                "end_time": 34.56136363636364,
                "pitch": 33,
                "velocity": 32,
                "duration": 0.13409090909091503,
                "tempo": 120.0
            },
            {
                "start_time": 34.57954545454545,
                "end_time": 34.71363636363636,
                "pitch": 45,
                "velocity": 32,
                "duration": 0.13409090909090793,
                "tempo": 120.0
            },
            {
                "start_time": 34.73181818181818,
                "end_time": 34.86590909090909,
                "pitch": 33,
                "velocity": 32,
                "duration": 0.13409090909091503,
                "tempo": 120.0
            },
            {
                "start_time": 34.88181818181818,
                "end_time": 35.01590909090909,
                "pitch": 35,
                "velocity": 32,
                "duration": 0.13409090909090793,
                "tempo": 120.0
            },
            {
                "start_time": 35.03409090909091,
                "end_time": 35.168181818181814,
                "pitch": 35,
                "velocity": 32,
                "duration": 0.13409090909090793,
                "tempo": 120.0
            },
            {
                "start_time": 35.184090909090905,
                "end_time": 35.31818181818181,
                "pitch": 35,
                "velocity": 32,
                "duration": 0.13409090909090793,
                "tempo": 120.0
            },
            {
                "start_time": 35.33409090909091,
                "end_time": 35.465909090909086,
                "pitch": 35,
                "velocity": 32,
                "duration": 0.13181818181817562,
                "tempo": 120.0
            },
            {
                "start_time": 35.48181818181818,
                "end_time": 35.61363636363636,
                "pitch": 35,
                "velocity": 32,
                "duration": 0.13181818181818272,
                "tempo": 120.0
            },
            {
                "start_time": 35.63181818181818,
                "end_time": 35.763636363636365,
                "pitch": 40,
                "velocity": 32,
                "duration": 0.13181818181818272,
                "tempo": 120.0
            },
            {
                "start_time": 35.779545454545456,
                "end_time": 35.91590909090909,
                "pitch": 42,
                "velocity": 32,
                "duration": 0.13636363636363313,
                "tempo": 120.0
            },
            {
                "start_time": 35.93181818181818,
                "end_time": 36.06818181818181,
                "pitch": 44,
                "velocity": 32,
                "duration": 0.13636363636363313,
                "tempo": 120.0
            },
            {
                "start_time": 36.08409090909091,
                "end_time": 36.220454545454544,
                "pitch": 37,
                "velocity": 32,
                "duration": 0.13636363636363313,
                "tempo": 120.0
            },
            {
                "start_time": 36.23863636363636,
                "end_time": 36.375,
                "pitch": 37,
                "velocity": 32,
                "duration": 0.13636363636364024,
                "tempo": 120.0
            },
            {
                "start_time": 36.39090909090909,
                "end_time": 36.52272727272727,
                "pitch": 49,
                "velocity": 32,
                "duration": 0.13181818181818272,
                "tempo": 120.0
            },
            {
                "start_time": 36.538636363636364,
                "end_time": 36.67272727272727,
                "pitch": 37,
                "velocity": 32,
                "duration": 0.13409090909090793,
                "tempo": 120.0
            },
            {
                "start_time": 36.68863636363636,
                "end_time": 36.820454545454545,
                "pitch": 37,
                "velocity": 32,
                "duration": 0.13181818181818272,
                "tempo": 120.0
            },
            {
                "start_time": 36.836363636363636,
                "end_time": 36.96818181818182,
                "pitch": 49,
                "velocity": 32,
                "duration": 0.13181818181818272,
                "tempo": 120.0
            },
            {
                "start_time": 36.986363636363635,
                "end_time": 37.12045454545454,
                "pitch": 37,
                "velocity": 32,
                "duration": 0.13409090909090793,
                "tempo": 120.0
            },
            {
                "start_time": 37.13863636363636,
                "end_time": 37.275,
                "pitch": 37,
                "velocity": 32,
                "duration": 0.13636363636364024,
                "tempo": 120.0
            },
            {
                "start_time": 37.29090909090909,
                "end_time": 37.57954545454545,
                "pitch": 37,
                "velocity": 32,
                "duration": 0.288636363636364,
                "tempo": 120.0
            },
            {
                "start_time": 37.893181818181816,
                "end_time": 38.175,
                "pitch": 33,
                "velocity": 32,
                "duration": 0.2818181818181813,
                "tempo": 120.0
            },
            {
                "start_time": 38.19090909090909,
                "end_time": 38.47727272727273,
                "pitch": 35,
                "velocity": 32,
                "duration": 0.2863636363636388,
                "tempo": 120.0
            },
            {
                "start_time": 38.49545454545454,
                "end_time": 38.62954545454545,
                "pitch": 37,
                "velocity": 32,
                "duration": 0.13409090909090793,
                "tempo": 120.0
            },
            {
                "start_time": 38.64545454545454,
                "end_time": 38.779545454545456,
                "pitch": 37,
                "velocity": 32,
                "duration": 0.13409090909091503,
                "tempo": 120.0
            }
        ],
        "Oboe": [
            {
                "start_time": 0.0,
                "end_time": 0.17727272727272728,
                "pitch": 65,
                "velocity": 25,
                "duration": 0.17727272727272728,
                "tempo": 120.0
            },
            {
                "start_time": 0.18863636363636363,
                "end_time": 0.6272727272727272,
                "pitch": 73,
                "velocity": 25,
                "duration": 0.4386363636363636,
                "tempo": 120.0
            },
            {
                "start_time": 0.6431818181818182,
                "end_time": 0.9272727272727272,
                "pitch": 75,
                "velocity": 25,
                "duration": 0.28409090909090906,
                "tempo": 120.0
            },
            {
                "start_time": 0.9431818181818181,
                "end_time": 1.075,
                "pitch": 73,
                "velocity": 25,
                "duration": 0.13181818181818183,
                "tempo": 120.0
            },
            {
                "start_time": 1.093181818181818,
                "end_time": 1.525,
                "pitch": 77,
                "velocity": 25,
                "duration": 0.4318181818181819,
                "tempo": 120.0
            },
            {
                "start_time": 1.5431818181818182,
                "end_time": 1.984090909090909,
                "pitch": 75,
                "velocity": 25,
                "duration": 0.4409090909090907,
                "tempo": 120.0
            },
            {
                "start_time": 2.002272727272727,
                "end_time": 2.2886363636363636,
                "pitch": 73,
                "velocity": 25,
                "duration": 0.2863636363636366,
                "tempo": 120.0
            },
            {
                "start_time": 2.3045454545454542,
                "end_time": 2.743181818181818,
                "pitch": 71,
                "velocity": 25,
                "duration": 0.43863636363636394,
                "tempo": 120.0
            },
            {
                "start_time": 2.759090909090909,
                "end_time": 3.6477272727272725,
                "pitch": 71,
                "velocity": 25,
                "duration": 0.8886363636363637,
                "tempo": 120.0
            },
            {
                "start_time": 3.6636363636363636,
                "end_time": 3.9499999999999997,
                "pitch": 69,
                "velocity": 25,
                "duration": 0.28636363636363615,
                "tempo": 120.0
            },
            {
                "start_time": 3.965909090909091,
                "end_time": 4.256818181818182,
                "pitch": 69,
                "velocity": 25,
                "duration": 0.290909090909091,
                "tempo": 120.0
            },
            {
                "start_time": 4.2727272727272725,
                "end_time": 4.409090909090909,
                "pitch": 69,
                "velocity": 25,
                "duration": 0.1363636363636367,
                "tempo": 120.0
            },
            {
                "start_time": 4.425,
                "end_time": 4.706818181818182,
                "pitch": 71,
                "velocity": 25,
                "duration": 0.2818181818181822,
                "tempo": 120.0
            },
            {
                "start_time": 4.722727272727273,
                "end_time": 5.004545454545454,
                "pitch": 65,
                "velocity": 25,
                "duration": 0.2818181818181813,
                "tempo": 120.0
            },
            {
                "start_time": 5.0204545454545455,
                "end_time": 5.452272727272727,
                "pitch": 73,
                "velocity": 25,
                "duration": 0.43181818181818166,
                "tempo": 120.0
            },
            {
                "start_time": 5.470454545454545,
                "end_time": 5.752272727272727,
                "pitch": 75,
                "velocity": 25,
                "duration": 0.2818181818181822,
                "tempo": 120.0
            },
            {
                "start_time": 5.7704545454545455,
                "end_time": 5.902272727272727,
                "pitch": 73,
                "velocity": 25,
                "duration": 0.13181818181818183,
                "tempo": 120.0
            },
            {
                "start_time": 5.920454545454545,
                "end_time": 6.3545454545454545,
                "pitch": 77,
                "velocity": 25,
                "duration": 0.4340909090909095,
                "tempo": 120.0
            },
            {
                "start_time": 6.372727272727272,
                "end_time": 6.809090909090909,
                "pitch": 75,
                "velocity": 25,
                "duration": 0.4363636363636365,
                "tempo": 120.0
            },
            {
                "start_time": 6.827272727272727,
                "end_time": 7.11590909090909,
                "pitch": 73,
                "velocity": 25,
                "duration": 0.28863636363636314,
                "tempo": 120.0
            },
            {
                "start_time": 7.131818181818182,
                "end_time": 7.570454545454545,
                "pitch": 71,
                "velocity": 25,
                "duration": 0.4386363636363635,
                "tempo": 120.0
            },
            {
                "start_time": 7.586363636363636,
                "end_time": 8.315909090909091,
                "pitch": 71,
                "velocity": 25,
                "duration": 0.7295454545454554,
                "tempo": 120.0
            },
            {
                "start_time": 8.331818181818182,
                "end_time": 8.768181818181818,
                "pitch": 80,
                "velocity": 25,
                "duration": 0.4363636363636356,
                "tempo": 120.0
            },
            {
                "start_time": 8.786363636363635,
                "end_time": 9.443181818181818,
                "pitch": 78,
                "velocity": 25,
                "duration": 0.6568181818181831,
                "tempo": 120.0
            },
            {
                "start_time": 9.540909090909091,
                "end_time": 9.822727272727272,
                "pitch": 65,
                "velocity": 25,
                "duration": 0.2818181818181813,
                "tempo": 120.0
            },
            {
                "start_time": 9.838636363636363,
                "end_time": 10.277272727272727,
                "pitch": 73,
                "velocity": 25,
                "duration": 0.4386363636363644,
                "tempo": 120.0
            },
            {
                "start_time": 10.293181818181818,
                "end_time": 10.577272727272726,
                "pitch": 75,
                "velocity": 25,
                "duration": 0.2840909090909083,
                "tempo": 120.0
            },
            {
                "start_time": 10.595454545454546,
                "end_time": 10.727272727272727,
                "pitch": 73,
                "velocity": 25,
                "duration": 0.13181818181818095,
                "tempo": 120.0
            },
            {
                "start_time": 10.745454545454544,
                "end_time": 11.177272727272726,
                "pitch": 77,
                "velocity": 25,
                "duration": 0.43181818181818166,
                "tempo": 120.0
            },
            {
                "start_time": 11.195454545454545,
                "end_time": 11.627272727272727,
                "pitch": 75,
                "velocity": 25,
                "duration": 0.43181818181818166,
                "tempo": 120.0
            },
            {
                "start_time": 11.645454545454545,
                "end_time": 11.934090909090909,
                "pitch": 73,
                "velocity": 25,
                "duration": 0.288636363636364,
                "tempo": 120.0
            },
            {
                "start_time": 11.95,
                "end_time": 12.388636363636364,
                "pitch": 71,
                "velocity": 25,
                "duration": 0.4386363636363644,
                "tempo": 120.0
            },
            {
                "start_time": 12.404545454545454,
                "end_time": 13.304545454545455,
                "pitch": 71,
                "velocity": 25,
                "duration": 0.9000000000000004,
                "tempo": 120.0
            },
            {
                "start_time": 14.368181818181817,
                "end_time": 14.802272727272726,
                "pitch": 73,
                "velocity": 25,
                "duration": 0.43409090909090864,
                "tempo": 120.0
            },
            {
                "start_time": 14.818181818181818,
                "end_time": 15.549999999999999,
                "pitch": 76,
                "velocity": 25,
                "duration": 0.7318181818181806,
                "tempo": 120.0
            },
            {
                "start_time": 15.56590909090909,
                "end_time": 16.152272727272727,
                "pitch": 75,
                "velocity": 25,
                "duration": 0.5863636363636378,
                "tempo": 120.0
            },
            {
                "start_time": 16.168181818181818,
                "end_time": 16.759090909090908,
                "pitch": 78,
                "velocity": 25,
                "duration": 0.5909090909090899,
                "tempo": 120.0
            },
            {
                "start_time": 16.775,
                "end_time": 18.022727272727273,
                "pitch": 77,
                "velocity": 25,
                "duration": 1.2477272727272748,
                "tempo": 120.0
            },
            {
                "start_time": 18.577272727272728,
                "end_time": 18.863636363636363,
                "pitch": 73,
                "velocity": 25,
                "duration": 0.28636363636363527,
                "tempo": 120.0
            },
            {
                "start_time": 18.88181818181818,
                "end_time": 19.170454545454543,
                "pitch": 75,
                "velocity": 25,
                "duration": 0.288636363636364,
                "tempo": 120.0
            },
            {
                "start_time": 19.186363636363634,
                "end_time": 19.220454545454544,
                "pitch": 73,
                "velocity": 25,
                "duration": 0.03409090909091006,
                "tempo": 120.0
            },
            {
                "start_time": 20.243181818181817,
                "end_time": 20.522727272727273,
                "pitch": 80,
                "velocity": 25,
                "duration": 0.2795454545454561,
                "tempo": 120.0
            },
            {
                "start_time": 20.538636363636364,
                "end_time": 20.670454545454543,
                "pitch": 85,
                "velocity": 25,
                "duration": 0.13181818181817917,
                "tempo": 120.0
            },
            {
                "start_time": 20.688636363636363,
                "end_time": 20.82272727272727,
                "pitch": 83,
                "velocity": 25,
                "duration": 0.13409090909090793,
                "tempo": 120.0
            },
            {
                "start_time": 20.84090909090909,
                "end_time": 20.977272727272727,
                "pitch": 90,
                "velocity": 25,
                "duration": 0.1363636363636367,
                "tempo": 120.0
            },
            {
                "start_time": 20.993181818181817,
                "end_time": 21.129545454545454,
                "pitch": 89,
                "velocity": 25,
                "duration": 0.1363636363636367,
                "tempo": 120.0
            },
            {
                "start_time": 21.147727272727273,
                "end_time": 21.43181818181818,
                "pitch": 85,
                "velocity": 25,
                "duration": 0.2840909090909065,
                "tempo": 120.0
            },
            {
                "start_time": 21.44772727272727,
                "end_time": 22.93181818181818,
                "pitch": 85,
                "velocity": 25,
                "duration": 1.4840909090909093,
                "tempo": 120.0
            },
            {
                "start_time": 22.94772727272727,
                "end_time": 23.236363636363635,
                "pitch": 85,
                "velocity": 25,
                "duration": 0.288636363636364,
                "tempo": 120.0
            },
            {
                "start_time": 23.252272727272725,
                "end_time": 23.54090909090909,
                "pitch": 85,
                "velocity": 25,
                "duration": 0.288636363636364,
                "tempo": 120.0
            },
            {
                "start_time": 23.55909090909091,
                "end_time": 23.695454545454545,
                "pitch": 85,
                "velocity": 25,
                "duration": 0.1363636363636367,
                "tempo": 120.0
            },
            {
                "start_time": 23.711363636363636,
                "end_time": 23.94772727272727,
                "pitch": 87,
                "velocity": 25,
                "duration": 0.23636363636363455,
                "tempo": 120.0
            },
            {
                "start_time": 25.061363636363634,
                "end_time": 25.195454545454545,
                "pitch": 80,
                "velocity": 25,
                "duration": 0.13409090909091148,
                "tempo": 120.0
            },
            {
                "start_time": 25.211363636363636,
                "end_time": 25.345454545454544,
                "pitch": 85,
                "velocity": 25,
                "duration": 0.13409090909090793,
                "tempo": 120.0
            },
            {
                "start_time": 25.361363636363635,
                "end_time": 25.495454545454542,
                "pitch": 83,
                "velocity": 25,
                "duration": 0.13409090909090793,
                "tempo": 120.0
            },
            {
                "start_time": 25.511363636363637,
                "end_time": 25.64772727272727,
                "pitch": 90,
                "velocity": 25,
                "duration": 0.13636363636363313,
                "tempo": 120.0
            },
            {
                "start_time": 25.663636363636364,
                "end_time": 25.95,
                "pitch": 89,
                "velocity": 25,
                "duration": 0.28636363636363527,
                "tempo": 120.0
            },
            {
                "start_time": 25.96590909090909,
                "end_time": 26.102272727272727,
                "pitch": 80,
                "velocity": 25,
                "duration": 0.1363636363636367,
                "tempo": 120.0
            },
            {
                "start_time": 26.118181818181817,
                "end_time": 26.252272727272725,
                "pitch": 85,
                "velocity": 25,
                "duration": 0.13409090909090793,
                "tempo": 120.0
            },
            {
                "start_time": 26.268181818181816,
                "end_time": 26.402272727272727,
                "pitch": 83,
                "velocity": 25,
                "duration": 0.13409090909091148,
                "tempo": 120.0
            },
            {
                "start_time": 26.418181818181818,
                "end_time": 26.552272727272726,
                "pitch": 90,
                "velocity": 25,
                "duration": 0.13409090909090793,
                "tempo": 120.0
            },
            {
                "start_time": 26.568181818181817,
                "end_time": 26.852272727272727,
                "pitch": 89,
                "velocity": 25,
                "duration": 0.28409090909091006,
                "tempo": 120.0
            },
            {
                "start_time": 26.870454545454542,
                "end_time": 27.15681818181818,
                "pitch": 89,
                "velocity": 25,
                "duration": 0.2863636363636388,
                "tempo": 120.0
            },
            {
                "start_time": 27.172727272727272,
                "end_time": 27.459090909090907,
                "pitch": 87,
                "velocity": 25,
                "duration": 0.28636363636363527,
                "tempo": 120.0
            },
            {
                "start_time": 27.474999999999998,
                "end_time": 28.37272727272727,
                "pitch": 85,
                "velocity": 25,
                "duration": 0.8977272727272734,
                "tempo": 120.0
            },
            {
                "start_time": 28.388636363636362,
                "end_time": 28.525,
                "pitch": 85,
                "velocity": 25,
                "duration": 0.1363636363636367,
                "tempo": 120.0
            },
            {
                "start_time": 28.543181818181818,
                "end_time": 28.674999999999997,
                "pitch": 85,
                "velocity": 25,
                "duration": 0.13181818181817917,
                "tempo": 120.0
            },
            {
                "start_time": 28.693181818181817,
                "end_time": 28.775,
                "pitch": 83,
                "velocity": 25,
                "duration": 0.08181818181818201,
                "tempo": 120.0
            },
            {
                "start_time": 29.29090909090909,
                "end_time": 29.422727272727272,
                "pitch": 80,
                "velocity": 25,
                "duration": 0.13181818181818272,
                "tempo": 120.0
            },
            {
                "start_time": 29.438636363636363,
                "end_time": 29.57272727272727,
                "pitch": 85,
                "velocity": 25,
                "duration": 0.13409090909090793,
                "tempo": 120.0
            },
            {
                "start_time": 29.58863636363636,
                "end_time": 29.720454545454544,
                "pitch": 83,
                "velocity": 25,
                "duration": 0.13181818181818272,
                "tempo": 120.0
            },
            {
                "start_time": 29.736363636363635,
                "end_time": 29.870454545454542,
                "pitch": 90,
                "velocity": 25,
                "duration": 0.13409090909090793,
                "tempo": 120.0
            },
            {
                "start_time": 29.888636363636362,
                "end_time": 29.922727272727272,
                "pitch": 89,
                "velocity": 25,
                "duration": 0.03409090909091006,
                "tempo": 120.0
            },
            {
                "start_time": 30.495454545454542,
                "end_time": 30.629545454545454,
                "pitch": 80,
                "velocity": 25,
                "duration": 0.13409090909091148,
                "tempo": 120.0
            },
            {
                "start_time": 30.645454545454545,
                "end_time": 30.779545454545453,
                "pitch": 85,
                "velocity": 25,
                "duration": 0.13409090909090793,
                "tempo": 120.0
            },
            {
                "start_time": 30.797727272727272,
                "end_time": 30.93181818181818,
                "pitch": 83,
                "velocity": 25,
                "duration": 0.13409090909090793,
                "tempo": 120.0
            },
            {
                "start_time": 30.95,
                "end_time": 31.081818181818182,
                "pitch": 90,
                "velocity": 25,
                "duration": 0.13181818181818272,
                "tempo": 120.0
            },
            {
                "start_time": 31.099999999999998,
                "end_time": 31.18181818181818,
                "pitch": 89,
                "velocity": 25,
                "duration": 0.08181818181818201,
                "tempo": 120.0
            },
            {
                "start_time": 31.702272727272724,
                "end_time": 31.83863636363636,
                "pitch": 85,
                "velocity": 25,
                "duration": 0.1363636363636367,
                "tempo": 120.0
            },
            {
                "start_time": 31.854545454545452,
                "end_time": 31.99090909090909,
                "pitch": 83,
                "velocity": 25,
                "duration": 0.1363636363636367,
                "tempo": 120.0
            },
            {
                "start_time": 32.00909090909091,
                "end_time": 32.143181818181816,
                "pitch": 80,
                "velocity": 25,
                "duration": 0.13409090909090793,
                "tempo": 120.0
            },
            {
                "start_time": 32.16136363636363,
                "end_time": 32.293181818181814,
                "pitch": 90,
                "velocity": 25,
                "duration": 0.13181818181818272,
                "tempo": 120.0
            },
            {
                "start_time": 32.309090909090905,
                "end_time": 32.590909090909086,
                "pitch": 89,
                "velocity": 25,
                "duration": 0.2818181818181813,
                "tempo": 120.0
            },
            {
                "start_time": 32.60681818181818,
                "end_time": 32.73863636363636,
                "pitch": 85,
                "velocity": 25,
                "duration": 0.13181818181818272,
                "tempo": 120.0
            },
            {
                "start_time": 32.75454545454545,
                "end_time": 32.89090909090909,
                "pitch": 83,
                "velocity": 25,
                "duration": 0.13636363636364024,
                "tempo": 120.0
            },
            {
                "start_time": 32.90681818181818,
                "end_time": 33.19772727272727,
                "pitch": 85,
                "velocity": 25,
                "duration": 0.29090909090908923,
                "tempo": 120.0
            },
            {
                "start_time": 33.21363636363636,
                "end_time": 33.45227272727273,
                "pitch": 80,
                "velocity": 25,
                "duration": 0.23863636363636687,
                "tempo": 120.0
            },
            {
                "start_time": 33.82272727272727,
                "end_time": 33.95681818181818,
                "pitch": 80,
                "velocity": 25,
                "duration": 0.13409090909090793,
                "tempo": 120.0
            },
            {
                "start_time": 33.97272727272727,
                "end_time": 34.10681818181818,
                "pitch": 85,
                "velocity": 25,
                "duration": 0.13409090909090793,
                "tempo": 120.0
            },
            {
                "start_time": 34.125,
                "end_time": 34.25909090909091,
                "pitch": 83,
                "velocity": 25,
                "duration": 0.13409090909090793,
                "tempo": 120.0
            },
            {
                "start_time": 34.277272727272724,
                "end_time": 34.86590909090909,
                "pitch": 90,
                "velocity": 25,
                "duration": 0.5886363636363683,
                "tempo": 120.0
            },
            {
                "start_time": 34.88181818181818,
                "end_time": 35.465909090909086,
                "pitch": 90,
                "velocity": 25,
                "duration": 0.5840909090909037,
                "tempo": 120.0
            },
            {
                "start_time": 35.48181818181818,
                "end_time": 36.06818181818181,
                "pitch": 83,
                "velocity": 25,
                "duration": 0.586363636363636,
                "tempo": 120.0
            },
            {
                "start_time": 36.08409090909091,
                "end_time": 37.275,
                "pitch": 92,
                "velocity": 25,
                "duration": 1.1909090909090878,
                "tempo": 120.0
            },
            {
                "start_time": 38.49545454545454,
                "end_time": 38.779545454545456,
                "pitch": 65,
                "velocity": 25,
                "duration": 0.2840909090909136,
                "tempo": 120.0
            }
        ],
        "Church Organ": [
            {
                "start_time": 0.0,
                "end_time": 0.011363636363636364,
                "pitch": 60,
                "velocity": 25,
                "duration": 0.011363636363636364,
                "tempo": 120.0
            },
            {
                "start_time": 0.022727272727272728,
                "end_time": 0.17727272727272728,
                "pitch": 61,
                "velocity": 25,
                "duration": 0.15454545454545454,
                "tempo": 120.0
            },
            {
                "start_time": 0.17727272727272728,
                "end_time": 0.22272727272727272,
                "pitch": 61,
                "velocity": 25,
                "duration": 0.04545454545454544,
                "tempo": 120.0
            },
            {
                "start_time": 0.2409090909090909,
                "end_time": 0.6772727272727272,
                "pitch": 77,
                "velocity": 25,
                "duration": 0.43636363636363634,
                "tempo": 120.0
            },
            {
                "start_time": 0.6954545454545454,
                "end_time": 0.9772727272727272,
                "pitch": 78,
                "velocity": 25,
                "duration": 0.28181818181818175,
                "tempo": 120.0
            },
            {
                "start_time": 0.9931818181818182,
                "end_time": 1.125,
                "pitch": 77,
                "velocity": 25,
                "duration": 0.13181818181818183,
                "tempo": 120.0
            },
            {
                "start_time": 1.143181818181818,
                "end_time": 1.5772727272727272,
                "pitch": 80,
                "velocity": 25,
                "duration": 0.4340909090909091,
                "tempo": 120.0
            },
            {
                "start_time": 1.593181818181818,
                "end_time": 2.036363636363636,
                "pitch": 78,
                "velocity": 25,
                "duration": 0.4431818181818181,
                "tempo": 120.0
            },
            {
                "start_time": 2.0522727272727272,
                "end_time": 2.3386363636363634,
                "pitch": 77,
                "velocity": 25,
                "duration": 0.28636363636363615,
                "tempo": 120.0
            },
            {
                "start_time": 2.3545454545454545,
                "end_time": 2.4068181818181817,
                "pitch": 75,
                "velocity": 25,
                "duration": 0.05227272727272725,
                "tempo": 120.0
            },
            {
                "start_time": 2.809090909090909,
                "end_time": 3.6977272727272728,
                "pitch": 75,
                "velocity": 25,
                "duration": 0.8886363636363637,
                "tempo": 120.0
            },
            {
                "start_time": 3.7136363636363634,
                "end_time": 4.0,
                "pitch": 73,
                "velocity": 25,
                "duration": 0.2863636363636366,
                "tempo": 120.0
            },
            {
                "start_time": 4.018181818181818,
                "end_time": 4.306818181818182,
                "pitch": 73,
                "velocity": 25,
                "duration": 0.288636363636364,
                "tempo": 120.0
            },
            {
                "start_time": 4.325,
                "end_time": 4.459090909090909,
                "pitch": 73,
                "velocity": 25,
                "duration": 0.13409090909090882,
                "tempo": 120.0
            },
            {
                "start_time": 4.475,
                "end_time": 4.656818181818181,
                "pitch": 75,
                "velocity": 25,
                "duration": 0.18181818181818166,
                "tempo": 120.0
            },
            {
                "start_time": 5.070454545454545,
                "end_time": 5.170454545454545,
                "pitch": 77,
                "velocity": 25,
                "duration": 0.09999999999999964,
                "tempo": 120.0
            },
            {
                "start_time": 5.5204545454545455,
                "end_time": 5.802272727272727,
                "pitch": 78,
                "velocity": 25,
                "duration": 0.2818181818181813,
                "tempo": 120.0
            },
            {
                "start_time": 5.820454545454545,
                "end_time": 5.952272727272727,
                "pitch": 77,
                "velocity": 25,
                "duration": 0.13181818181818183,
                "tempo": 120.0
            },
            {
                "start_time": 5.970454545454545,
                "end_time": 6.102272727272727,
                "pitch": 80,
                "velocity": 25,
                "duration": 0.13181818181818183,
                "tempo": 120.0
            },
            {
                "start_time": 6.422727272727273,
                "end_time": 6.8590909090909085,
                "pitch": 78,
                "velocity": 25,
                "duration": 0.4363636363636356,
                "tempo": 120.0
            },
            {
                "start_time": 6.877272727272727,
                "end_time": 7.16590909090909,
                "pitch": 77,
                "velocity": 25,
                "duration": 0.28863636363636314,
                "tempo": 120.0
            },
            {
                "start_time": 7.184090909090909,
                "end_time": 7.620454545454545,
                "pitch": 83,
                "velocity": 25,
                "duration": 0.4363636363636365,
                "tempo": 120.0
            },
            {
                "start_time": 7.636363636363636,
                "end_time": 8.36590909090909,
                "pitch": 83,
                "velocity": 25,
                "duration": 0.7295454545454545,
                "tempo": 120.0
            },
            {
                "start_time": 8.381818181818181,
                "end_time": 8.818181818181818,
                "pitch": 87,
                "velocity": 25,
                "duration": 0.4363636363636374,
                "tempo": 120.0
            },
            {
                "start_time": 8.836363636363636,
                "end_time": 9.575,
                "pitch": 83,
                "velocity": 25,
                "duration": 0.7386363636363633,
                "tempo": 120.0
            },
            {
                "start_time": 9.59090909090909,
                "end_time": 9.872727272727273,
                "pitch": 61,
                "velocity": 25,
                "duration": 0.2818181818181831,
                "tempo": 120.0
            },
            {
                "start_time": 9.888636363636364,
                "end_time": 10.327272727272726,
                "pitch": 77,
                "velocity": 25,
                "duration": 0.4386363636363626,
                "tempo": 120.0
            },
            {
                "start_time": 10.343181818181817,
                "end_time": 10.627272727272727,
                "pitch": 78,
                "velocity": 25,
                "duration": 0.28409090909091006,
                "tempo": 120.0
            },
            {
                "start_time": 10.645454545454545,
                "end_time": 10.777272727272727,
                "pitch": 77,
                "velocity": 25,
                "duration": 0.13181818181818272,
                "tempo": 120.0
            },
            {
                "start_time": 10.795454545454545,
                "end_time": 11.227272727272727,
                "pitch": 80,
                "velocity": 25,
                "duration": 0.43181818181818166,
                "tempo": 120.0
            },
            {
                "start_time": 11.245454545454544,
                "end_time": 11.677272727272726,
                "pitch": 78,
                "velocity": 25,
                "duration": 0.43181818181818166,
                "tempo": 120.0
            },
            {
                "start_time": 11.695454545454545,
                "end_time": 11.98409090909091,
                "pitch": 77,
                "velocity": 25,
                "duration": 0.288636363636364,
                "tempo": 120.0
            },
            {
                "start_time": 12.002272727272727,
                "end_time": 12.052272727272726,
                "pitch": 75,
                "velocity": 25,
                "duration": 0.049999999999998934,
                "tempo": 120.0
            },
            {
                "start_time": 13.204545454545453,
                "end_time": 13.643181818181818,
                "pitch": 78,
                "velocity": 25,
                "duration": 0.4386363636363644,
                "tempo": 120.0
            },
            {
                "start_time": 13.661363636363635,
                "end_time": 14.102272727272727,
                "pitch": 77,
                "velocity": 25,
                "duration": 0.44090909090909136,
                "tempo": 120.0
            },
            {
                "start_time": 14.118181818181817,
                "end_time": 14.402272727272727,
                "pitch": 75,
                "velocity": 25,
                "duration": 0.28409090909091006,
                "tempo": 120.0
            },
            {
                "start_time": 14.418181818181818,
                "end_time": 14.852272727272727,
                "pitch": 76,
                "velocity": 25,
                "duration": 0.43409090909090864,
                "tempo": 120.0
            },
            {
                "start_time": 14.868181818181817,
                "end_time": 15.6,
                "pitch": 80,
                "velocity": 25,
                "duration": 0.7318181818181824,
                "tempo": 120.0
            },
            {
                "start_time": 15.61590909090909,
                "end_time": 16.202272727272728,
                "pitch": 78,
                "velocity": 25,
                "duration": 0.5863636363636378,
                "tempo": 120.0
            },
            {
                "start_time": 16.220454545454544,
                "end_time": 16.80909090909091,
                "pitch": 81,
                "velocity": 25,
                "duration": 0.5886363636363647,
                "tempo": 120.0
            },
            {
                "start_time": 16.825,
                "end_time": 18.07272727272727,
                "pitch": 80,
                "velocity": 25,
                "duration": 1.2477272727272712,
                "tempo": 120.0
            },
            {
                "start_time": 18.629545454545454,
                "end_time": 18.91590909090909,
                "pitch": 76,
                "velocity": 25,
                "duration": 0.28636363636363527,
                "tempo": 120.0
            },
            {
                "start_time": 18.93181818181818,
                "end_time": 19.220454545454544,
                "pitch": 78,
                "velocity": 25,
                "duration": 0.288636363636364,
                "tempo": 120.0
            },
            {
                "start_time": 19.238636363636363,
                "end_time": 19.375,
                "pitch": 80,
                "velocity": 25,
                "duration": 0.1363636363636367,
                "tempo": 120.0
            },
            {
                "start_time": 19.39090909090909,
                "end_time": 19.527272727272727,
                "pitch": 80,
                "velocity": 25,
                "duration": 0.1363636363636367,
                "tempo": 120.0
            },
            {
                "start_time": 19.543181818181818,
                "end_time": 19.677272727272726,
                "pitch": 85,
                "velocity": 25,
                "duration": 0.13409090909090793,
                "tempo": 120.0
            },
            {
                "start_time": 19.693181818181817,
                "end_time": 19.827272727272728,
                "pitch": 83,
                "velocity": 25,
                "duration": 0.13409090909091148,
                "tempo": 120.0
            },
            {
                "start_time": 19.84318181818182,
                "end_time": 19.977272727272727,
                "pitch": 90,
                "velocity": 25,
                "duration": 0.13409090909090793,
                "tempo": 120.0
            },
            {
                "start_time": 19.993181818181817,
                "end_time": 20.275,
                "pitch": 89,
                "velocity": 25,
                "duration": 0.2818181818181813,
                "tempo": 120.0
            },
            {
                "start_time": 20.29090909090909,
                "end_time": 21.331818181818182,
                "pitch": 85,
                "velocity": 25,
                "duration": 1.0409090909090928,
                "tempo": 120.0
            },
            {
                "start_time": 21.349999999999998,
                "end_time": 21.48181818181818,
                "pitch": 83,
                "velocity": 25,
                "duration": 0.13181818181818272,
                "tempo": 120.0
            },
            {
                "start_time": 21.49772727272727,
                "end_time": 21.629545454545454,
                "pitch": 85,
                "velocity": 25,
                "duration": 0.13181818181818272,
                "tempo": 120.0
            },
            {
                "start_time": 21.645454545454545,
                "end_time": 22.077272727272724,
                "pitch": 87,
                "velocity": 25,
                "duration": 0.4318181818181799,
                "tempo": 120.0
            },
            {
                "start_time": 22.09318181818182,
                "end_time": 23.49090909090909,
                "pitch": 83,
                "velocity": 25,
                "duration": 1.3977272727272698,
                "tempo": 120.0
            },
            {
                "start_time": 24.368181818181817,
                "end_time": 24.5,
                "pitch": 80,
                "velocity": 25,
                "duration": 0.13181818181818272,
                "tempo": 120.0
            },
            {
                "start_time": 24.51590909090909,
                "end_time": 24.64772727272727,
                "pitch": 83,
                "velocity": 25,
                "duration": 0.13181818181817917,
                "tempo": 120.0
            },
            {
                "start_time": 24.663636363636364,
                "end_time": 24.797727272727272,
                "pitch": 85,
                "velocity": 25,
                "duration": 0.13409090909090793,
                "tempo": 120.0
            },
            {
                "start_time": 24.813636363636363,
                "end_time": 25.095454545454544,
                "pitch": 83,
                "velocity": 25,
                "duration": 0.2818181818181813,
                "tempo": 120.0
            },
            {
                "start_time": 25.111363636363635,
                "end_time": 25.395454545454545,
                "pitch": 90,
                "velocity": 25,
                "duration": 0.28409090909091006,
                "tempo": 120.0
            },
            {
                "start_time": 25.411363636363635,
                "end_time": 26.0,
                "pitch": 89,
                "velocity": 25,
                "duration": 0.5886363636363647,
                "tempo": 120.0
            },
            {
                "start_time": 26.018181818181816,
                "end_time": 26.452272727272724,
                "pitch": 89,
                "velocity": 25,
                "duration": 0.43409090909090864,
                "tempo": 120.0
            },
            {
                "start_time": 26.468181818181815,
                "end_time": 26.904545454545453,
                "pitch": 92,
                "velocity": 25,
                "duration": 0.4363636363636374,
                "tempo": 120.0
            },
            {
                "start_time": 26.920454545454543,
                "end_time": 27.813636363636363,
                "pitch": 90,
                "velocity": 25,
                "duration": 0.8931818181818194,
                "tempo": 120.0
            },
            {
                "start_time": 27.829545454545453,
                "end_time": 27.96363636363636,
                "pitch": 83,
                "velocity": 25,
                "duration": 0.13409090909090793,
                "tempo": 120.0
            },
            {
                "start_time": 27.98181818181818,
                "end_time": 28.118181818181817,
                "pitch": 85,
                "velocity": 25,
                "duration": 0.1363636363636367,
                "tempo": 120.0
            },
            {
                "start_time": 28.134090909090908,
                "end_time": 28.875,
                "pitch": 80,
                "velocity": 25,
                "duration": 0.7409090909090921,
                "tempo": 120.0
            },
            {
                "start_time": 28.893181818181816,
                "end_time": 28.943181818181817,
                "pitch": 90,
                "velocity": 25,
                "duration": 0.05000000000000071,
                "tempo": 120.0
            },
            {
                "start_time": 28.974999999999998,
                "end_time": 29.025,
                "pitch": 89,
                "velocity": 25,
                "duration": 0.05000000000000071,
                "tempo": 120.0
            },
            {
                "start_time": 29.043181818181818,
                "end_time": 29.174999999999997,
                "pitch": 87,
                "velocity": 25,
                "duration": 0.13181818181817917,
                "tempo": 120.0
            },
            {
                "start_time": 29.193181818181817,
                "end_time": 29.325,
                "pitch": 85,
                "velocity": 25,
                "duration": 0.13181818181818272,
                "tempo": 120.0
            },
            {
                "start_time": 29.34090909090909,
                "end_time": 29.39090909090909,
                "pitch": 87,
                "velocity": 25,
                "duration": 0.05000000000000071,
                "tempo": 120.0
            },
            {
                "start_time": 29.422727272727272,
                "end_time": 29.53863636363636,
                "pitch": 87,
                "velocity": 25,
                "duration": 0.11590909090908852,
                "tempo": 120.0
            },
            {
                "start_time": 29.57272727272727,
                "end_time": 29.686363636363634,
                "pitch": 83,
                "velocity": 25,
                "duration": 0.11363636363636331,
                "tempo": 120.0
            },
            {
                "start_time": 29.720454545454544,
                "end_time": 29.770454545454545,
                "pitch": 85,
                "velocity": 25,
                "duration": 0.05000000000000071,
                "tempo": 120.0
            },
            {
                "start_time": 29.786363636363635,
                "end_time": 29.922727272727272,
                "pitch": 85,
                "velocity": 25,
                "duration": 0.1363636363636367,
                "tempo": 120.0
            },
            {
                "start_time": 29.938636363636363,
                "end_time": 30.07272727272727,
                "pitch": 80,
                "velocity": 25,
                "duration": 0.13409090909090793,
                "tempo": 120.0
            },
            {
                "start_time": 30.09090909090909,
                "end_time": 30.527272727272727,
                "pitch": 83,
                "velocity": 25,
                "duration": 0.4363636363636374,
                "tempo": 120.0
            },
            {
                "start_time": 30.545454545454543,
                "end_time": 30.98181818181818,
                "pitch": 78,
                "velocity": 25,
                "duration": 0.4363636363636374,
                "tempo": 120.0
            },
            {
                "start_time": 31.0,
                "end_time": 31.43181818181818,
                "pitch": 80,
                "velocity": 25,
                "duration": 0.4318181818181799,
                "tempo": 120.0
            },
            {
                "start_time": 31.45,
                "end_time": 31.581818181818182,
                "pitch": 73,
                "velocity": 25,
                "duration": 0.13181818181818272,
                "tempo": 120.0
            },
            {
                "start_time": 31.599999999999998,
                "end_time": 31.736363636363635,
                "pitch": 71,
                "velocity": 25,
                "duration": 0.1363636363636367,
                "tempo": 120.0
            },
            {
                "start_time": 31.752272727272725,
                "end_time": 31.888636363636362,
                "pitch": 73,
                "velocity": 25,
                "duration": 0.1363636363636367,
                "tempo": 120.0
            },
            {
                "start_time": 31.90681818181818,
                "end_time": 32.04090909090909,
                "pitch": 75,
                "velocity": 25,
                "duration": 0.13409090909090793,
                "tempo": 120.0
            },
            {
                "start_time": 32.059090909090905,
                "end_time": 32.34318181818182,
                "pitch": 73,
                "velocity": 25,
                "duration": 0.2840909090909136,
                "tempo": 120.0
            },
            {
                "start_time": 32.35909090909091,
                "end_time": 32.638636363636365,
                "pitch": 78,
                "velocity": 25,
                "duration": 0.2795454545454561,
                "tempo": 120.0
            },
            {
                "start_time": 32.65681818181818,
                "end_time": 32.788636363636364,
                "pitch": 77,
                "velocity": 25,
                "duration": 0.13181818181818272,
                "tempo": 120.0
            },
            {
                "start_time": 32.80681818181818,
                "end_time": 33.163636363636364,
                "pitch": 73,
                "velocity": 25,
                "duration": 0.35681818181818414,
                "tempo": 120.0
            },
            {
                "start_time": 33.87272727272727,
                "end_time": 33.92272727272727,
                "pitch": 83,
                "velocity": 25,
                "duration": 0.05000000000000426,
                "tempo": 120.0
            },
            {
                "start_time": 33.95681818181818,
                "end_time": 34.00681818181818,
                "pitch": 85,
                "velocity": 25,
                "duration": 0.05000000000000426,
                "tempo": 120.0
            },
            {
                "start_time": 34.02272727272727,
                "end_time": 34.15909090909091,
                "pitch": 80,
                "velocity": 25,
                "duration": 0.13636363636363313,
                "tempo": 120.0
            },
            {
                "start_time": 34.175,
                "end_time": 34.309090909090905,
                "pitch": 80,
                "velocity": 25,
                "duration": 0.13409090909090793,
                "tempo": 120.0
            },
            {
                "start_time": 34.32727272727273,
                "end_time": 34.461363636363636,
                "pitch": 83,
                "velocity": 25,
                "duration": 0.13409090909090793,
                "tempo": 120.0
            },
            {
                "start_time": 34.47727272727273,
                "end_time": 34.763636363636365,
                "pitch": 85,
                "velocity": 25,
                "duration": 0.2863636363636388,
                "tempo": 120.0
            },
            {
                "start_time": 34.78181818181818,
                "end_time": 35.51590909090909,
                "pitch": 90,
                "velocity": 25,
                "duration": 0.7340909090909093,
                "tempo": 120.0
            },
            {
                "start_time": 35.53181818181818,
                "end_time": 36.11818181818182,
                "pitch": 92,
                "velocity": 25,
                "duration": 0.586363636363636,
                "tempo": 120.0
            },
            {
                "start_time": 36.13636363636363,
                "end_time": 37.324999999999996,
                "pitch": 89,
                "velocity": 25,
                "duration": 1.1886363636363626,
                "tempo": 120.0
            },
            {
                "start_time": 38.54545454545455,
                "end_time": 38.779545454545456,
                "pitch": 61,
                "velocity": 25,
                "duration": 0.23409090909090935,
                "tempo": 120.0
            }
        ]
    }
}