{
    "track_id": "Super Basketball (FM) - 01 - Background Music",
    "mood": "happy",
    "instruments": {
        "Electric Piano 1": [
            {
                "start_time": 0.02727272727272727,
                "end_time": 0.20681818181818182,
                "pitch": 76,
                "velocity": 64,
                "duration": 0.17954545454545454,
                "tempo": 120.0
            },
            {
                "start_time": 0.22045454545454543,
                "end_time": 0.4068181818181818,
                "pitch": 73,
                "velocity": 64,
                "duration": 0.18636363636363637,
                "tempo": 120.0
            },
            {
                "start_time": 0.44090909090909086,
                "end_time": 1.1454545454545455,
                "pitch": 68,
                "velocity": 64,
                "duration": 0.7045454545454546,
                "tempo": 120.0
            },
            {
                "start_time": 1.1613636363636364,
                "end_time": 1.2613636363636362,
                "pitch": 68,
                "velocity": 64,
                "duration": 0.09999999999999987,
                "tempo": 120.0
            },
            {
                "start_time": 1.2772727272727271,
                "end_time": 1.3772727272727272,
                "pitch": 73,
                "velocity": 64,
                "duration": 0.10000000000000009,
                "tempo": 120.0
            },
            {
                "start_time": 1.393181818181818,
                "end_time": 1.6204545454545454,
                "pitch": 76,
                "velocity": 64,
                "duration": 0.2272727272727273,
                "tempo": 120.0
            },
            {
                "start_time": 1.6545454545454545,
                "end_time": 1.8795454545454544,
                "pitch": 76,
                "velocity": 64,
                "duration": 0.22499999999999987,
                "tempo": 120.0
            },
            {
                "start_time": 1.8954545454545453,
                "end_time": 2.1136363636363633,
                "pitch": 75,
                "velocity": 64,
                "duration": 0.21818181818181803,
                "tempo": 120.0
            },
            {
                "start_time": 2.1295454545454544,
                "end_time": 2.3613636363636363,
                "pitch": 71,
                "velocity": 64,
                "duration": 0.23181818181818192,
                "tempo": 120.0
            },
            {
                "start_time": 2.377272727272727,
                "end_time": 2.8204545454545453,
                "pitch": 66,
                "velocity": 64,
                "duration": 0.44318181818181834,
                "tempo": 120.0
            },
            {
                "start_time": 3.809090909090909,
                "end_time": 4.031818181818181,
                "pitch": 73,
                "velocity": 64,
                "duration": 0.22272727272727222,
                "tempo": 120.0
            },
            {
                "start_time": 4.0659090909090905,
                "end_time": 4.288636363636363,
                "pitch": 71,
                "velocity": 64,
                "duration": 0.22272727272727266,
                "tempo": 120.0
            },
            {
                "start_time": 4.304545454545455,
                "end_time": 4.993181818181818,
                "pitch": 73,
                "velocity": 64,
                "duration": 0.6886363636363635,
                "tempo": 120.0
            },
            {
                "start_time": 5.009090909090909,
                "end_time": 5.220454545454545,
                "pitch": 73,
                "velocity": 64,
                "duration": 0.21136363636363598,
                "tempo": 120.0
            },
            {
                "start_time": 5.252272727272727,
                "end_time": 5.470454545454545,
                "pitch": 75,
                "velocity": 64,
                "duration": 0.2181818181818178,
                "tempo": 120.0
            },
            {
                "start_time": 5.488636363636363,
                "end_time": 5.706818181818181,
                "pitch": 73,
                "velocity": 64,
                "duration": 0.2181818181818178,
                "tempo": 120.0
            },
            {
                "start_time": 5.725,
                "end_time": 6.202272727272727,
                "pitch": 71,
                "velocity": 64,
                "duration": 0.4772727272727275,
                "tempo": 120.0
            },
            {
                "start_time": 6.218181818181818,
                "end_time": 6.434090909090909,
                "pitch": 73,
                "velocity": 64,
                "duration": 0.21590909090909083,
                "tempo": 120.0
            },
            {
                "start_time": 6.468181818181818,
                "end_time": 6.913636363636363,
                "pitch": 75,
                "velocity": 64,
                "duration": 0.4454545454545453,
                "tempo": 120.0
            },
            {
                "start_time": 6.929545454545454,
                "end_time": 7.161363636363636,
                "pitch": 76,
                "velocity": 64,
                "duration": 0.23181818181818237,
                "tempo": 120.0
            },
            {
                "start_time": 7.177272727272727,
                "end_time": 7.638636363636364,
                "pitch": 78,
                "velocity": 64,
                "duration": 0.46136363636363686,
                "tempo": 120.0
            },
            {
                "start_time": 7.672727272727272,
                "end_time": 7.8954545454545455,
                "pitch": 76,
                "velocity": 64,
                "duration": 0.22272727272727355,
                "tempo": 120.0
            },
            {
                "start_time": 7.913636363636363,
                "end_time": 8.134090909090908,
                "pitch": 73,
                "velocity": 64,
                "duration": 0.2204545454545448,
                "tempo": 120.0
            },
            {
                "start_time": 8.15,
                "end_time": 8.85,
                "pitch": 68,
                "velocity": 64,
                "duration": 0.6999999999999993,
                "tempo": 120.0
            },
            {
                "start_time": 8.884090909090908,
                "end_time": 9.097727272727273,
                "pitch": 68,
                "velocity": 64,
                "duration": 0.21363636363636473,
                "tempo": 120.0
            },
            {
                "start_time": 9.113636363636363,
                "end_time": 9.336363636363636,
                "pitch": 76,
                "velocity": 64,
                "duration": 0.22272727272727266,
                "tempo": 120.0
            },
            {
                "start_time": 9.354545454545454,
                "end_time": 9.59090909090909,
                "pitch": 73,
                "velocity": 64,
                "duration": 0.23636363636363633,
                "tempo": 120.0
            },
            {
                "start_time": 9.60681818181818,
                "end_time": 9.820454545454545,
                "pitch": 75,
                "velocity": 64,
                "duration": 0.21363636363636473,
                "tempo": 120.0
            },
            {
                "start_time": 9.836363636363636,
                "end_time": 10.049999999999999,
                "pitch": 71,
                "velocity": 64,
                "duration": 0.21363636363636296,
                "tempo": 120.0
            },
            {
                "start_time": 10.084090909090909,
                "end_time": 10.947727272727272,
                "pitch": 66,
                "velocity": 64,
                "duration": 0.8636363636363633,
                "tempo": 120.0
            },
            {
                "start_time": 11.527272727272727,
                "end_time": 11.747727272727273,
                "pitch": 73,
                "velocity": 64,
                "duration": 0.22045454545454568,
                "tempo": 120.0
            },
            {
                "start_time": 11.76590909090909,
                "end_time": 12.002272727272727,
                "pitch": 71,
                "velocity": 64,
                "duration": 0.23636363636363633,
                "tempo": 120.0
            },
            {
                "start_time": 12.020454545454545,
                "end_time": 12.23181818181818,
                "pitch": 73,
                "velocity": 64,
                "duration": 0.21136363636363598,
                "tempo": 120.0
            },
            {
                "start_time": 12.25,
                "end_time": 12.463636363636363,
                "pitch": 76,
                "velocity": 64,
                "duration": 0.21363636363636296,
                "tempo": 120.0
            },
            {
                "start_time": 12.495454545454544,
                "end_time": 12.597727272727273,
                "pitch": 75,
                "velocity": 64,
                "duration": 0.1022727272727284,
                "tempo": 120.0
            },
            {
                "start_time": 12.968181818181817,
                "end_time": 13.052272727272726,
                "pitch": 71,
                "velocity": 64,
                "duration": 0.084090909090909,
                "tempo": 120.0
            },
            {
                "start_time": 13.461363636363636,
                "end_time": 13.679545454545455,
                "pitch": 76,
                "velocity": 64,
                "duration": 0.2181818181818187,
                "tempo": 120.0
            },
            {
                "start_time": 13.713636363636363,
                "end_time": 13.763636363636364,
                "pitch": 76,
                "velocity": 64,
                "duration": 0.05000000000000071,
                "tempo": 120.0
            },
            {
                "start_time": 14.122727272727271,
                "end_time": 14.397727272727272,
                "pitch": 75,
                "velocity": 64,
                "duration": 0.27500000000000036,
                "tempo": 120.0
            },
            {
                "start_time": 14.413636363636362,
                "end_time": 15.33181818181818,
                "pitch": 76,
                "velocity": 64,
                "duration": 0.918181818181818,
                "tempo": 120.0
            }
        ],
        "Acoustic Bass": [
            {
                "start_time": 0.0,
                "end_time": 0.17954545454545454,
                "pitch": 40,
                "velocity": 64,
                "duration": 0.17954545454545454,
                "tempo": 120.0
            },
            {
                "start_time": 0.19318181818181818,
                "end_time": 0.375,
                "pitch": 40,
                "velocity": 64,
                "duration": 0.18181818181818182,
                "tempo": 120.0
            },
            {
                "start_time": 0.3886363636363636,
                "end_time": 0.9818181818181818,
                "pitch": 40,
                "velocity": 64,
                "duration": 0.5931818181818183,
                "tempo": 120.0
            },
            {
                "start_time": 0.9977272727272727,
                "end_time": 1.0977272727272727,
                "pitch": 40,
                "velocity": 64,
                "duration": 0.09999999999999998,
                "tempo": 120.0
            },
            {
                "start_time": 1.1136363636363635,
                "end_time": 1.343181818181818,
                "pitch": 40,
                "velocity": 64,
                "duration": 0.2295454545454545,
                "tempo": 120.0
            },
            {
                "start_time": 1.3590909090909091,
                "end_time": 1.584090909090909,
                "pitch": 40,
                "velocity": 64,
                "duration": 0.22499999999999987,
                "tempo": 120.0
            },
            {
                "start_time": 1.6022727272727273,
                "end_time": 1.8272727272727272,
                "pitch": 40,
                "velocity": 64,
                "duration": 0.22499999999999987,
                "tempo": 120.0
            },
            {
                "start_time": 1.8636363636363635,
                "end_time": 2.0795454545454546,
                "pitch": 47,
                "velocity": 64,
                "duration": 0.21590909090909105,
                "tempo": 120.0
            },
            {
                "start_time": 2.0954545454545452,
                "end_time": 2.3136363636363635,
                "pitch": 47,
                "velocity": 64,
                "duration": 0.21818181818181825,
                "tempo": 120.0
            },
            {
                "start_time": 2.3295454545454546,
                "end_time": 2.9022727272727273,
                "pitch": 47,
                "velocity": 64,
                "duration": 0.5727272727272728,
                "tempo": 120.0
            },
            {
                "start_time": 2.9204545454545454,
                "end_time": 3.018181818181818,
                "pitch": 47,
                "velocity": 64,
                "duration": 0.09772727272727266,
                "tempo": 120.0
            },
            {
                "start_time": 3.05,
                "end_time": 3.2636363636363637,
                "pitch": 47,
                "velocity": 64,
                "duration": 0.21363636363636385,
                "tempo": 120.0
            },
            {
                "start_time": 3.2818181818181817,
                "end_time": 3.502272727272727,
                "pitch": 45,
                "velocity": 64,
                "duration": 0.22045454545454524,
                "tempo": 120.0
            },
            {
                "start_time": 3.5204545454545455,
                "end_time": 3.759090909090909,
                "pitch": 47,
                "velocity": 64,
                "duration": 0.2386363636363633,
                "tempo": 120.0
            },
            {
                "start_time": 3.775,
                "end_time": 3.9977272727272726,
                "pitch": 49,
                "velocity": 64,
                "duration": 0.22272727272727266,
                "tempo": 120.0
            },
            {
                "start_time": 4.015909090909091,
                "end_time": 4.236363636363636,
                "pitch": 49,
                "velocity": 64,
                "duration": 0.22045454545454568,
                "tempo": 120.0
            },
            {
                "start_time": 4.2704545454545455,
                "end_time": 4.961363636363636,
                "pitch": 49,
                "velocity": 64,
                "duration": 0.6909090909090905,
                "tempo": 120.0
            },
            {
                "start_time": 4.977272727272727,
                "end_time": 5.1863636363636365,
                "pitch": 49,
                "velocity": 64,
                "duration": 0.20909090909090988,
                "tempo": 120.0
            },
            {
                "start_time": 5.202272727272727,
                "end_time": 5.420454545454545,
                "pitch": 51,
                "velocity": 64,
                "duration": 0.2181818181818178,
                "tempo": 120.0
            },
            {
                "start_time": 5.454545454545454,
                "end_time": 5.672727272727273,
                "pitch": 49,
                "velocity": 64,
                "duration": 0.2181818181818187,
                "tempo": 120.0
            },
            {
                "start_time": 5.6909090909090905,
                "end_time": 6.168181818181818,
                "pitch": 47,
                "velocity": 64,
                "duration": 0.4772727272727275,
                "tempo": 120.0
            },
            {
                "start_time": 6.184090909090909,
                "end_time": 6.402272727272727,
                "pitch": 47,
                "velocity": 64,
                "duration": 0.2181818181818187,
                "tempo": 120.0
            },
            {
                "start_time": 6.418181818181818,
                "end_time": 6.881818181818182,
                "pitch": 47,
                "velocity": 64,
                "duration": 0.46363636363636385,
                "tempo": 120.0
            },
            {
                "start_time": 6.8977272727272725,
                "end_time": 7.111363636363636,
                "pitch": 47,
                "velocity": 64,
                "duration": 0.21363636363636385,
                "tempo": 120.0
            },
            {
                "start_time": 7.127272727272727,
                "end_time": 7.6045454545454545,
                "pitch": 47,
                "velocity": 64,
                "duration": 0.4772727272727275,
                "tempo": 120.0
            },
            {
                "start_time": 7.622727272727272,
                "end_time": 7.843181818181818,
                "pitch": 40,
                "velocity": 64,
                "duration": 0.22045454545454568,
                "tempo": 120.0
            },
            {
                "start_time": 7.879545454545454,
                "end_time": 8.1,
                "pitch": 40,
                "velocity": 64,
                "duration": 0.22045454545454568,
                "tempo": 120.0
            },
            {
                "start_time": 8.118181818181817,
                "end_time": 8.702272727272726,
                "pitch": 40,
                "velocity": 64,
                "duration": 0.584090909090909,
                "tempo": 120.0
            },
            {
                "start_time": 8.718181818181817,
                "end_time": 8.818181818181818,
                "pitch": 40,
                "velocity": 64,
                "duration": 0.10000000000000142,
                "tempo": 120.0
            },
            {
                "start_time": 8.834090909090909,
                "end_time": 9.047727272727272,
                "pitch": 40,
                "velocity": 64,
                "duration": 0.21363636363636296,
                "tempo": 120.0
            },
            {
                "start_time": 9.079545454545453,
                "end_time": 9.302272727272728,
                "pitch": 40,
                "velocity": 64,
                "duration": 0.22272727272727444,
                "tempo": 120.0
            },
            {
                "start_time": 9.320454545454545,
                "end_time": 9.540909090909091,
                "pitch": 40,
                "velocity": 64,
                "duration": 0.22045454545454568,
                "tempo": 120.0
            },
            {
                "start_time": 9.559090909090909,
                "end_time": 9.788636363636364,
                "pitch": 47,
                "velocity": 64,
                "duration": 0.22954545454545539,
                "tempo": 120.0
            },
            {
                "start_time": 9.804545454545455,
                "end_time": 10.018181818181818,
                "pitch": 47,
                "velocity": 64,
                "duration": 0.21363636363636296,
                "tempo": 120.0
            },
            {
                "start_time": 10.034090909090908,
                "end_time": 10.618181818181817,
                "pitch": 47,
                "velocity": 64,
                "duration": 0.584090909090909,
                "tempo": 120.0
            },
            {
                "start_time": 10.636363636363637,
                "end_time": 10.73409090909091,
                "pitch": 47,
                "velocity": 64,
                "duration": 0.09772727272727266,
                "tempo": 120.0
            },
            {
                "start_time": 10.75,
                "end_time": 10.979545454545454,
                "pitch": 47,
                "velocity": 64,
                "duration": 0.2295454545454536,
                "tempo": 120.0
            },
            {
                "start_time": 10.997727272727273,
                "end_time": 11.218181818181817,
                "pitch": 45,
                "velocity": 64,
                "duration": 0.2204545454545439,
                "tempo": 120.0
            },
            {
                "start_time": 11.236363636363636,
                "end_time": 11.459090909090909,
                "pitch": 47,
                "velocity": 64,
                "duration": 0.22272727272727266,
                "tempo": 120.0
            },
            {
                "start_time": 11.493181818181817,
                "end_time": 11.713636363636363,
                "pitch": 49,
                "velocity": 64,
                "duration": 0.22045454545454568,
                "tempo": 120.0
            },
            {
                "start_time": 11.73181818181818,
                "end_time": 11.952272727272726,
                "pitch": 49,
                "velocity": 64,
                "duration": 0.22045454545454568,
                "tempo": 120.0
            },
            {
                "start_time": 11.970454545454546,
                "end_time": 12.2,
                "pitch": 49,
                "velocity": 64,
                "duration": 0.2295454545454536,
                "tempo": 120.0
            },
            {
                "start_time": 12.21590909090909,
                "end_time": 12.429545454545455,
                "pitch": 49,
                "velocity": 64,
                "duration": 0.21363636363636473,
                "tempo": 120.0
            },
            {
                "start_time": 12.445454545454545,
                "end_time": 12.915909090909091,
                "pitch": 47,
                "velocity": 64,
                "duration": 0.4704545454545457,
                "tempo": 120.0
            },
            {
                "start_time": 12.934090909090909,
                "end_time": 13.411363636363635,
                "pitch": 47,
                "velocity": 64,
                "duration": 0.4772727272727266,
                "tempo": 120.0
            },
            {
                "start_time": 13.427272727272726,
                "end_time": 13.647727272727272,
                "pitch": 40,
                "velocity": 64,
                "duration": 0.22045454545454568,
                "tempo": 120.0
            },
            {
                "start_time": 13.663636363636362,
                "end_time": 14.011363636363635,
                "pitch": 40,
                "velocity": 64,
                "duration": 0.34772727272727266,
                "tempo": 120.0
            },
            {
                "start_time": 14.027272727272727,
                "end_time": 14.122727272727271,
                "pitch": 40,
                "velocity": 64,
                "duration": 0.0954545454545439,
                "tempo": 120.0
            },
            {
                "start_time": 14.138636363636364,
                "end_time": 14.347727272727273,
                "pitch": 40,
                "velocity": 64,
                "duration": 0.209090909090909,
                "tempo": 120.0
            },
            {
                "start_time": 14.363636363636363,
                "end_time": 15.33181818181818,
                "pitch": 40,
                "velocity": 64,
                "duration": 0.9681818181818169,
                "tempo": 120.0
            }
        ],
        "Vibraphone": [
            {
                "start_time": 0.013636363636363636,
                "end_time": 0.17954545454545454,
                "pitch": 68,
                "velocity": 64,
                "duration": 0.1659090909090909,
                "tempo": 120.0
            },
            {
                "start_time": 0.19318181818181818,
                "end_time": 0.375,
                "pitch": 68,
                "velocity": 64,
                "duration": 0.18181818181818182,
                "tempo": 120.0
            },
            {
                "start_time": 0.3886363636363636,
                "end_time": 1.1454545454545455,
                "pitch": 68,
                "velocity": 64,
                "duration": 0.7568181818181818,
                "tempo": 120.0
            },
            {
                "start_time": 1.8636363636363635,
                "end_time": 2.0795454545454546,
                "pitch": 66,
                "velocity": 64,
                "duration": 0.21590909090909105,
                "tempo": 120.0
            },
            {
                "start_time": 2.0954545454545452,
                "end_time": 2.3136363636363635,
                "pitch": 66,
                "velocity": 64,
                "duration": 0.21818181818181825,
                "tempo": 120.0
            },
            {
                "start_time": 2.3295454545454546,
                "end_time": 3.5204545454545455,
                "pitch": 66,
                "velocity": 64,
                "duration": 1.190909090909091,
                "tempo": 120.0
            },
            {
                "start_time": 3.775,
                "end_time": 3.9977272727272726,
                "pitch": 64,
                "velocity": 64,
                "duration": 0.22272727272727266,
                "tempo": 120.0
            },
            {
                "start_time": 4.015909090909091,
                "end_time": 4.236363636363636,
                "pitch": 64,
                "velocity": 64,
                "duration": 0.22045454545454568,
                "tempo": 120.0
            },
            {
                "start_time": 4.2704545454545455,
                "end_time": 5.404545454545454,
                "pitch": 64,
                "velocity": 64,
                "duration": 1.1340909090909088,
                "tempo": 120.0
            },
            {
                "start_time": 5.6909090909090905,
                "end_time": 6.168181818181818,
                "pitch": 66,
                "velocity": 64,
                "duration": 0.4772727272727275,
                "tempo": 120.0
            },
            {
                "start_time": 6.184090909090909,
                "end_time": 6.402272727272727,
                "pitch": 66,
                "velocity": 64,
                "duration": 0.2181818181818187,
                "tempo": 120.0
            },
            {
                "start_time": 6.418181818181818,
                "end_time": 6.881818181818182,
                "pitch": 66,
                "velocity": 64,
                "duration": 0.46363636363636385,
                "tempo": 120.0
            },
            {
                "start_time": 6.8977272727272725,
                "end_time": 7.111363636363636,
                "pitch": 66,
                "velocity": 64,
                "duration": 0.21363636363636385,
                "tempo": 120.0
            },
            {
                "start_time": 7.127272727272727,
                "end_time": 7.6045454545454545,
                "pitch": 66,
                "velocity": 64,
                "duration": 0.4772727272727275,
                "tempo": 120.0
            },
            {
                "start_time": 7.622727272727272,
                "end_time": 7.843181818181818,
                "pitch": 68,
                "velocity": 64,
                "duration": 0.22045454545454568,
                "tempo": 120.0
            },
            {
                "start_time": 7.879545454545454,
                "end_time": 8.1,
                "pitch": 68,
                "velocity": 64,
                "duration": 0.22045454545454568,
                "tempo": 120.0
            },
            {
                "start_time": 8.118181818181817,
                "end_time": 9.302272727272728,
                "pitch": 68,
                "velocity": 64,
                "duration": 1.1840909090909104,
                "tempo": 120.0
            },
            {
                "start_time": 9.559090909090909,
                "end_time": 9.788636363636364,
                "pitch": 66,
                "velocity": 64,
                "duration": 0.22954545454545539,
                "tempo": 120.0
            },
            {
                "start_time": 9.804545454545455,
                "end_time": 10.018181818181818,
                "pitch": 66,
                "velocity": 64,
                "duration": 0.21363636363636296,
                "tempo": 120.0
            },
            {
                "start_time": 10.034090909090908,
                "end_time": 11.252272727272727,
                "pitch": 66,
                "velocity": 64,
                "duration": 1.2181818181818187,
                "tempo": 120.0
            },
            {
                "start_time": 11.493181818181817,
                "end_time": 11.713636363636363,
                "pitch": 64,
                "velocity": 64,
                "duration": 0.22045454545454568,
                "tempo": 120.0
            },
            {
                "start_time": 11.73181818181818,
                "end_time": 11.952272727272726,
                "pitch": 64,
                "velocity": 64,
                "duration": 0.22045454545454568,
                "tempo": 120.0
            },
            {
                "start_time": 11.970454545454546,
                "end_time": 12.2,
                "pitch": 64,
                "velocity": 64,
                "duration": 0.2295454545454536,
                "tempo": 120.0
            },
            {
                "start_time": 12.21590909090909,
                "end_time": 12.429545454545455,
                "pitch": 64,
                "velocity": 64,
                "duration": 0.21363636363636473,
                "tempo": 120.0
            },
            {
                "start_time": 12.445454545454545,
                "end_time": 12.915909090909091,
                "pitch": 66,
                "velocity": 64,
                "duration": 0.4704545454545457,
                "tempo": 120.0
            },
            {
                "start_time": 12.934090909090909,
                "end_time": 13.411363636363635,
                "pitch": 66,
                "velocity": 64,
                "duration": 0.4772727272727266,
                "tempo": 120.0
            },
            {
                "start_time": 13.427272727272726,
                "end_time": 13.647727272727272,
                "pitch": 68,
                "velocity": 64,
                "duration": 0.22045454545454568,
                "tempo": 120.0
            },
            {
                "start_time": 13.663636363636362,
                "end_time": 13.86590909090909,
                "pitch": 68,
                "velocity": 64,
                "duration": 0.20227272727272805,
                "tempo": 120.0
            },
            {
                "start_time": 14.138636363636364,
                "end_time": 14.347727272727273,
                "pitch": 68,
                "velocity": 64,
                "duration": 0.209090909090909,
                "tempo": 120.0
            },
            {
                "start_time": 14.363636363636363,
                "end_time": 14.379545454545454,
                "pitch": 68,
                "velocity": 64,
                "duration": 0.01590909090909065,
                "tempo": 120.0
            },
            {
                "start_time": 14.397727272727272,
                "end_time": 15.33181818181818,
                "pitch": 68,
                "velocity": 64,
                "duration": 0.9340909090909086,
                "tempo": 120.0
            }
        ]
    }
}