{
    "track_id": "Thunder Blade (FM) - 02 - Burning Point",
    "mood": "happy",
    "instruments": {
        "Church Organ": [
            {
                "start_time": 0.0,
                "end_time": 0.27499999999999997,
                "pitch": 64,
                "velocity": 80,
                "duration": 0.27499999999999997,
                "tempo": 120.0
            },
            {
                "start_time": 0.2909090909090909,
                "end_time": 0.36136363636363633,
                "pitch": 64,
                "velocity": 80,
                "duration": 0.07045454545454544,
                "tempo": 120.0
            },
            {
                "start_time": 0.37727272727272726,
                "end_time": 0.45909090909090905,
                "pitch": 64,
                "velocity": 80,
                "duration": 0.08181818181818179,
                "tempo": 120.0
            },
            {
                "start_time": 2.0795454545454546,
                "end_time": 2.184090909090909,
                "pitch": 63,
                "velocity": 80,
                "duration": 0.1045454545454545,
                "tempo": 120.0
            },
            {
                "start_time": 2.370454545454545,
                "end_time": 2.4795454545454545,
                "pitch": 63,
                "velocity": 80,
                "duration": 0.10909090909090935,
                "tempo": 120.0
            },
            {
                "start_time": 4.1,
                "end_time": 4.418181818181818,
                "pitch": 62,
                "velocity": 80,
                "duration": 0.31818181818181834,
                "tempo": 120.0
            },
            {
                "start_time": 4.434090909090909,
                "end_time": 4.552272727272727,
                "pitch": 62,
                "velocity": 80,
                "duration": 0.11818181818181817,
                "tempo": 120.0
            },
            {
                "start_time": 6.029545454545454,
                "end_time": 6.1477272727272725,
                "pitch": 61,
                "velocity": 80,
                "duration": 0.11818181818181817,
                "tempo": 120.0
            },
            {
                "start_time": 6.263636363636364,
                "end_time": 6.381818181818182,
                "pitch": 61,
                "velocity": 80,
                "duration": 0.11818181818181817,
                "tempo": 120.0
            },
            {
                "start_time": 6.497727272727272,
                "end_time": 6.581818181818181,
                "pitch": 61,
                "velocity": 80,
                "duration": 0.084090909090909,
                "tempo": 120.0
            },
            {
                "start_time": 7.759090909090909,
                "end_time": 8.084090909090909,
                "pitch": 64,
                "velocity": 80,
                "duration": 0.3250000000000002,
                "tempo": 120.0
            },
            {
                "start_time": 8.1,
                "end_time": 8.186363636363636,
                "pitch": 64,
                "velocity": 80,
                "duration": 0.08636363636363598,
                "tempo": 120.0
            },
            {
                "start_time": 8.238636363636363,
                "end_time": 8.322727272727272,
                "pitch": 64,
                "velocity": 80,
                "duration": 0.084090909090909,
                "tempo": 120.0
            },
            {
                "start_time": 9.697727272727272,
                "end_time": 9.779545454545454,
                "pitch": 63,
                "velocity": 80,
                "duration": 0.08181818181818201,
                "tempo": 120.0
            },
            {
                "start_time": 9.924999999999999,
                "end_time": 10.006818181818181,
                "pitch": 63,
                "velocity": 80,
                "duration": 0.08181818181818201,
                "tempo": 120.0
            },
            {
                "start_time": 11.429545454545455,
                "end_time": 11.747727272727273,
                "pitch": 62,
                "velocity": 80,
                "duration": 0.31818181818181834,
                "tempo": 120.0
            },
            {
                "start_time": 11.763636363636364,
                "end_time": 11.847727272727273,
                "pitch": 62,
                "velocity": 80,
                "duration": 0.084090909090909,
                "tempo": 120.0
            },
            {
                "start_time": 13.35,
                "end_time": 13.427272727272726,
                "pitch": 61,
                "velocity": 80,
                "duration": 0.07727272727272627,
                "tempo": 120.0
            },
            {
                "start_time": 13.568181818181818,
                "end_time": 13.647727272727272,
                "pitch": 61,
                "velocity": 80,
                "duration": 0.07954545454545325,
                "tempo": 120.0
            },
            {
                "start_time": 13.802272727272726,
                "end_time": 13.888636363636364,
                "pitch": 61,
                "velocity": 80,
                "duration": 0.08636363636363775,
                "tempo": 120.0
            },
            {
                "start_time": 15.054545454545455,
                "end_time": 16.847727272727273,
                "pitch": 62,
                "velocity": 80,
                "duration": 1.793181818181818,
                "tempo": 120.0
            },
            {
                "start_time": 17.097727272727273,
                "end_time": 17.18181818181818,
                "pitch": 66,
                "velocity": 80,
                "duration": 0.08409090909090722,
                "tempo": 120.0
            },
            {
                "start_time": 17.19772727272727,
                "end_time": 17.31590909090909,
                "pitch": 62,
                "velocity": 80,
                "duration": 0.11818181818182083,
                "tempo": 120.0
            },
            {
                "start_time": 17.331818181818182,
                "end_time": 17.418181818181818,
                "pitch": 59,
                "velocity": 80,
                "duration": 0.08636363636363598,
                "tempo": 120.0
            },
            {
                "start_time": 17.43409090909091,
                "end_time": 17.554545454545455,
                "pitch": 62,
                "velocity": 80,
                "duration": 0.12045454545454604,
                "tempo": 120.0
            },
            {
                "start_time": 17.570454545454545,
                "end_time": 17.65681818181818,
                "pitch": 59,
                "velocity": 80,
                "duration": 0.08636363636363598,
                "tempo": 120.0
            },
            {
                "start_time": 17.675,
                "end_time": 17.759090909090908,
                "pitch": 52,
                "velocity": 80,
                "duration": 0.08409090909090722,
                "tempo": 120.0
            },
            {
                "start_time": 17.811363636363634,
                "end_time": 18.677272727272726,
                "pitch": 55,
                "velocity": 80,
                "duration": 0.8659090909090921,
                "tempo": 120.0
            },
            {
                "start_time": 18.693181818181817,
                "end_time": 20.504545454545454,
                "pitch": 62,
                "velocity": 80,
                "duration": 1.8113636363636374,
                "tempo": 120.0
            },
            {
                "start_time": 20.522727272727273,
                "end_time": 20.60681818181818,
                "pitch": 52,
                "velocity": 80,
                "duration": 0.08409090909090722,
                "tempo": 120.0
            },
            {
                "start_time": 20.625,
                "end_time": 20.745454545454546,
                "pitch": 55,
                "velocity": 80,
                "duration": 0.12045454545454604,
                "tempo": 120.0
            },
            {
                "start_time": 20.761363636363637,
                "end_time": 20.847727272727273,
                "pitch": 58,
                "velocity": 80,
                "duration": 0.08636363636363598,
                "tempo": 120.0
            },
            {
                "start_time": 20.863636363636363,
                "end_time": 20.95,
                "pitch": 61,
                "velocity": 80,
                "duration": 0.08636363636363598,
                "tempo": 120.0
            },
            {
                "start_time": 21.002272727272725,
                "end_time": 21.084090909090907,
                "pitch": 55,
                "velocity": 80,
                "duration": 0.08181818181818201,
                "tempo": 120.0
            },
            {
                "start_time": 21.102272727272727,
                "end_time": 21.186363636363634,
                "pitch": 58,
                "velocity": 80,
                "duration": 0.08409090909090722,
                "tempo": 120.0
            },
            {
                "start_time": 21.202272727272724,
                "end_time": 21.318181818181817,
                "pitch": 61,
                "velocity": 80,
                "duration": 0.11590909090909207,
                "tempo": 120.0
            },
            {
                "start_time": 21.336363636363636,
                "end_time": 21.420454545454543,
                "pitch": 64,
                "velocity": 80,
                "duration": 0.08409090909090722,
                "tempo": 120.0
            },
            {
                "start_time": 21.436363636363634,
                "end_time": 21.55,
                "pitch": 58,
                "velocity": 80,
                "duration": 0.11363636363636687,
                "tempo": 120.0
            },
            {
                "start_time": 21.56590909090909,
                "end_time": 21.647727272727273,
                "pitch": 61,
                "velocity": 80,
                "duration": 0.08181818181818201,
                "tempo": 120.0
            },
            {
                "start_time": 21.66590909090909,
                "end_time": 21.74772727272727,
                "pitch": 64,
                "velocity": 80,
                "duration": 0.08181818181818201,
                "tempo": 120.0
            },
            {
                "start_time": 21.795454545454543,
                "end_time": 21.877272727272725,
                "pitch": 67,
                "velocity": 80,
                "duration": 0.08181818181818201,
                "tempo": 120.0
            },
            {
                "start_time": 21.893181818181816,
                "end_time": 21.977272727272727,
                "pitch": 63,
                "velocity": 80,
                "duration": 0.08409090909091077,
                "tempo": 120.0
            },
            {
                "start_time": 21.993181818181817,
                "end_time": 22.111363636363635,
                "pitch": 67,
                "velocity": 80,
                "duration": 0.11818181818181728,
                "tempo": 120.0
            },
            {
                "start_time": 22.127272727272725,
                "end_time": 22.211363636363636,
                "pitch": 70,
                "velocity": 80,
                "duration": 0.08409090909091077,
                "tempo": 120.0
            },
            {
                "start_time": 22.227272727272727,
                "end_time": 22.345454545454544,
                "pitch": 73,
                "velocity": 80,
                "duration": 0.11818181818181728,
                "tempo": 120.0
            },
            {
                "start_time": 22.361363636363635,
                "end_time": 23.227272727272727,
                "pitch": 66,
                "velocity": 80,
                "duration": 0.8659090909090921,
                "tempo": 120.0
            },
            {
                "start_time": 23.243181818181817,
                "end_time": 23.94090909090909,
                "pitch": 74,
                "velocity": 80,
                "duration": 0.6977272727272741,
                "tempo": 120.0
            },
            {
                "start_time": 23.956818181818182,
                "end_time": 24.04090909090909,
                "pitch": 74,
                "velocity": 80,
                "duration": 0.08409090909090722,
                "tempo": 120.0
            },
            {
                "start_time": 24.05681818181818,
                "end_time": 24.14090909090909,
                "pitch": 74,
                "velocity": 80,
                "duration": 0.08409090909091077,
                "tempo": 120.0
            },
            {
                "start_time": 24.39090909090909,
                "end_time": 24.509090909090908,
                "pitch": 62,
                "velocity": 80,
                "duration": 0.11818181818181728,
                "tempo": 120.0
            },
            {
                "start_time": 24.754545454545454,
                "end_time": 24.834090909090907,
                "pitch": 62,
                "velocity": 80,
                "duration": 0.07954545454545325,
                "tempo": 120.0
            },
            {
                "start_time": 25.07272727272727,
                "end_time": 25.534090909090907,
                "pitch": 64,
                "velocity": 80,
                "duration": 0.461363636363636,
                "tempo": 120.0
            },
            {
                "start_time": 25.552272727272726,
                "end_time": 25.870454545454542,
                "pitch": 64,
                "velocity": 80,
                "duration": 0.31818181818181657,
                "tempo": 120.0
            },
            {
                "start_time": 25.886363636363637,
                "end_time": 28.025,
                "pitch": 62,
                "velocity": 80,
                "duration": 2.138636363636362,
                "tempo": 120.0
            },
            {
                "start_time": 28.04090909090909,
                "end_time": 28.120454545454542,
                "pitch": 62,
                "velocity": 80,
                "duration": 0.07954545454545325,
                "tempo": 120.0
            },
            {
                "start_time": 28.363636363636363,
                "end_time": 28.48181818181818,
                "pitch": 62,
                "velocity": 80,
                "duration": 0.11818181818181728,
                "tempo": 120.0
            },
            {
                "start_time": 28.73181818181818,
                "end_time": 29.161363636363635,
                "pitch": 64,
                "velocity": 80,
                "duration": 0.4295454545454547,
                "tempo": 120.0
            },
            {
                "start_time": 29.177272727272726,
                "end_time": 29.513636363636362,
                "pitch": 64,
                "velocity": 80,
                "duration": 0.336363636363636,
                "tempo": 120.0
            },
            {
                "start_time": 29.625,
                "end_time": 31.438636363636363,
                "pitch": 62,
                "velocity": 80,
                "duration": 1.8136363636363626,
                "tempo": 120.0
            },
            {
                "start_time": 31.688636363636363,
                "end_time": 31.77272727272727,
                "pitch": 66,
                "velocity": 80,
                "duration": 0.08409090909090722,
                "tempo": 120.0
            },
            {
                "start_time": 31.78863636363636,
                "end_time": 31.90681818181818,
                "pitch": 62,
                "velocity": 80,
                "duration": 0.11818181818182083,
                "tempo": 120.0
            },
            {
                "start_time": 31.922727272727272,
                "end_time": 32.00909090909091,
                "pitch": 59,
                "velocity": 80,
                "duration": 0.08636363636363598,
                "tempo": 120.0
            },
            {
                "start_time": 32.025,
                "end_time": 32.111363636363635,
                "pitch": 62,
                "velocity": 80,
                "duration": 0.08636363636363598,
                "tempo": 120.0
            },
            {
                "start_time": 32.16136363636363,
                "end_time": 32.24772727272727,
                "pitch": 59,
                "velocity": 80,
                "duration": 0.08636363636363598,
                "tempo": 120.0
            },
            {
                "start_time": 32.26590909090909,
                "end_time": 32.35,
                "pitch": 52,
                "velocity": 80,
                "duration": 0.08409090909091077,
                "tempo": 120.0
            },
            {
                "start_time": 32.36818181818182,
                "end_time": 33.277272727272724,
                "pitch": 55,
                "velocity": 80,
                "duration": 0.9090909090909065,
                "tempo": 120.0
            },
            {
                "start_time": 33.293181818181814,
                "end_time": 35.095454545454544,
                "pitch": 62,
                "velocity": 80,
                "duration": 1.8022727272727295,
                "tempo": 120.0
            },
            {
                "start_time": 35.11363636363636,
                "end_time": 35.19772727272727,
                "pitch": 52,
                "velocity": 80,
                "duration": 0.08409090909091077,
                "tempo": 120.0
            },
            {
                "start_time": 35.215909090909086,
                "end_time": 35.3,
                "pitch": 55,
                "velocity": 80,
                "duration": 0.08409090909091077,
                "tempo": 120.0
            },
            {
                "start_time": 35.35227272727273,
                "end_time": 35.43863636363636,
                "pitch": 58,
                "velocity": 80,
                "duration": 0.08636363636363598,
                "tempo": 120.0
            },
            {
                "start_time": 35.45454545454545,
                "end_time": 35.54090909090909,
                "pitch": 61,
                "velocity": 80,
                "duration": 0.08636363636363598,
                "tempo": 120.0
            },
            {
                "start_time": 35.55681818181818,
                "end_time": 35.67045454545455,
                "pitch": 55,
                "velocity": 80,
                "duration": 0.11363636363636687,
                "tempo": 120.0
            },
            {
                "start_time": 35.68636363636364,
                "end_time": 35.76590909090909,
                "pitch": 58,
                "velocity": 80,
                "duration": 0.07954545454545325,
                "tempo": 120.0
            },
            {
                "start_time": 35.78181818181818,
                "end_time": 35.893181818181816,
                "pitch": 61,
                "velocity": 80,
                "duration": 0.11136363636363455,
                "tempo": 120.0
            },
            {
                "start_time": 35.90909090909091,
                "end_time": 35.98863636363636,
                "pitch": 64,
                "velocity": 80,
                "duration": 0.07954545454545325,
                "tempo": 120.0
            },
            {
                "start_time": 36.00454545454545,
                "end_time": 36.090909090909086,
                "pitch": 58,
                "velocity": 80,
                "duration": 0.08636363636363598,
                "tempo": 120.0
            },
            {
                "start_time": 36.14090909090909,
                "end_time": 36.22727272727273,
                "pitch": 61,
                "velocity": 80,
                "duration": 0.08636363636363598,
                "tempo": 120.0
            },
            {
                "start_time": 36.24545454545454,
                "end_time": 36.32954545454545,
                "pitch": 64,
                "velocity": 80,
                "duration": 0.08409090909091077,
                "tempo": 120.0
            },
            {
                "start_time": 36.34772727272727,
                "end_time": 36.465909090909086,
                "pitch": 67,
                "velocity": 80,
                "duration": 0.11818181818181728,
                "tempo": 120.0
            },
            {
                "start_time": 36.48409090909091,
                "end_time": 36.56818181818181,
                "pitch": 63,
                "velocity": 80,
                "duration": 0.08409090909090366,
                "tempo": 120.0
            },
            {
                "start_time": 36.58409090909091,
                "end_time": 36.70227272727273,
                "pitch": 67,
                "velocity": 80,
                "duration": 0.11818181818181728,
                "tempo": 120.0
            },
            {
                "start_time": 36.71818181818182,
                "end_time": 36.80227272727272,
                "pitch": 70,
                "velocity": 80,
                "duration": 0.08409090909090366,
                "tempo": 120.0
            },
            {
                "start_time": 36.81818181818181,
                "end_time": 36.902272727272724,
                "pitch": 73,
                "velocity": 80,
                "duration": 0.08409090909091077,
                "tempo": 120.0
            },
            {
                "start_time": 36.95227272727273,
                "end_time": 37.81818181818181,
                "pitch": 66,
                "velocity": 80,
                "duration": 0.865909090909085,
                "tempo": 120.0
            },
            {
                "start_time": 37.83409090909091,
                "end_time": 38.49090909090909,
                "pitch": 74,
                "velocity": 80,
                "duration": 0.6568181818181813,
                "tempo": 120.0
            },
            {
                "start_time": 38.543181818181814,
                "end_time": 38.627272727272725,
                "pitch": 74,
                "velocity": 80,
                "duration": 0.08409090909091077,
                "tempo": 120.0
            },
            {
                "start_time": 38.64545454545454,
                "end_time": 38.73181818181818,
                "pitch": 74,
                "velocity": 80,
                "duration": 0.08636363636363598,
                "tempo": 120.0
            },
            {
                "start_time": 38.97272727272727,
                "end_time": 39.084090909090904,
                "pitch": 62,
                "velocity": 80,
                "duration": 0.11136363636363455,
                "tempo": 120.0
            },
            {
                "start_time": 39.32954545454545,
                "end_time": 39.413636363636364,
                "pitch": 62,
                "velocity": 80,
                "duration": 0.08409090909091077,
                "tempo": 120.0
            },
            {
                "start_time": 39.663636363636364,
                "end_time": 40.090909090909086,
                "pitch": 64,
                "velocity": 80,
                "duration": 0.42727272727272236,
                "tempo": 120.0
            },
            {
                "start_time": 40.143181818181816,
                "end_time": 40.461363636363636,
                "pitch": 64,
                "velocity": 80,
                "duration": 0.3181818181818201,
                "tempo": 120.0
            },
            {
                "start_time": 40.47727272727273,
                "end_time": 42.60227272727273,
                "pitch": 62,
                "velocity": 80,
                "duration": 2.125,
                "tempo": 120.0
            },
            {
                "start_time": 42.62045454545454,
                "end_time": 42.70454545454545,
                "pitch": 62,
                "velocity": 80,
                "duration": 0.08409090909091077,
                "tempo": 120.0
            },
            {
                "start_time": 42.95681818181818,
                "end_time": 43.07727272727273,
                "pitch": 62,
                "velocity": 80,
                "duration": 0.12045454545454959,
                "tempo": 120.0
            },
            {
                "start_time": 43.334090909090904,
                "end_time": 43.752272727272725,
                "pitch": 64,
                "velocity": 80,
                "duration": 0.41818181818182154,
                "tempo": 120.0
            },
            {
                "start_time": 43.768181818181816,
                "end_time": 44.070454545454545,
                "pitch": 64,
                "velocity": 80,
                "duration": 0.30227272727272947,
                "tempo": 120.0
            },
            {
                "start_time": 44.215909090909086,
                "end_time": 44.30227272727272,
                "pitch": 54,
                "velocity": 80,
                "duration": 0.08636363636363598,
                "tempo": 120.0
            },
            {
                "start_time": 44.31818181818181,
                "end_time": 44.44090909090909,
                "pitch": 57,
                "velocity": 80,
                "duration": 0.1227272727272748,
                "tempo": 120.0
            },
            {
                "start_time": 44.459090909090904,
                "end_time": 44.54772727272727,
                "pitch": 64,
                "velocity": 80,
                "duration": 0.08863636363636829,
                "tempo": 120.0
            },
            {
                "start_time": 44.56363636363636,
                "end_time": 44.68636363636364,
                "pitch": 68,
                "velocity": 80,
                "duration": 0.1227272727272748,
                "tempo": 120.0
            },
            {
                "start_time": 44.70454545454545,
                "end_time": 44.78636363636363,
                "pitch": 64,
                "velocity": 80,
                "duration": 0.08181818181817846,
                "tempo": 120.0
            },
            {
                "start_time": 44.80227272727272,
                "end_time": 44.88409090909091,
                "pitch": 68,
                "velocity": 80,
                "duration": 0.08181818181818556,
                "tempo": 120.0
            },
            {
                "start_time": 44.934090909090905,
                "end_time": 45.01590909090909,
                "pitch": 57,
                "velocity": 80,
                "duration": 0.08181818181818556,
                "tempo": 120.0
            },
            {
                "start_time": 45.03181818181818,
                "end_time": 45.11363636363636,
                "pitch": 64,
                "velocity": 80,
                "duration": 0.08181818181817846,
                "tempo": 120.0
            },
            {
                "start_time": 45.12954545454545,
                "end_time": 45.24090909090909,
                "pitch": 68,
                "velocity": 80,
                "duration": 0.11136363636364166,
                "tempo": 120.0
            },
            {
                "start_time": 45.25681818181818,
                "end_time": 45.336363636363636,
                "pitch": 64,
                "velocity": 80,
                "duration": 0.07954545454545325,
                "tempo": 120.0
            },
            {
                "start_time": 45.35227272727273,
                "end_time": 45.465909090909086,
                "pitch": 57,
                "velocity": 80,
                "duration": 0.11363636363635976,
                "tempo": 120.0
            },
            {
                "start_time": 45.48181818181818,
                "end_time": 45.56136363636364,
                "pitch": 54,
                "velocity": 80,
                "duration": 0.07954545454546036,
                "tempo": 120.0
            },
            {
                "start_time": 45.57727272727273,
                "end_time": 45.66136363636363,
                "pitch": 52,
                "velocity": 80,
                "duration": 0.08409090909090366,
                "tempo": 120.0
            },
            {
                "start_time": 45.711363636363636,
                "end_time": 45.79545454545455,
                "pitch": 56,
                "velocity": 80,
                "duration": 0.08409090909091077,
                "tempo": 120.0
            },
            {
                "start_time": 45.81136363636364,
                "end_time": 45.89545454545454,
                "pitch": 62,
                "velocity": 80,
                "duration": 0.08409090909090366,
                "tempo": 120.0
            },
            {
                "start_time": 45.91136363636363,
                "end_time": 46.02954545454545,
                "pitch": 66,
                "velocity": 80,
                "duration": 0.11818181818181728,
                "tempo": 120.0
            },
            {
                "start_time": 46.04545454545455,
                "end_time": 46.13181818181818,
                "pitch": 54,
                "velocity": 80,
                "duration": 0.08636363636363598,
                "tempo": 120.0
            },
            {
                "start_time": 46.14772727272727,
                "end_time": 46.268181818181816,
                "pitch": 57,
                "velocity": 80,
                "duration": 0.12045454545454248,
                "tempo": 120.0
            },
            {
                "start_time": 46.28409090909091,
                "end_time": 46.37045454545454,
                "pitch": 64,
                "velocity": 80,
                "duration": 0.08636363636363598,
                "tempo": 120.0
            },
            {
                "start_time": 46.38863636363636,
                "end_time": 46.47272727272727,
                "pitch": 68,
                "velocity": 80,
                "duration": 0.08409090909091077,
                "tempo": 120.0
            },
            {
                "start_time": 46.525,
                "end_time": 46.60909090909091,
                "pitch": 64,
                "velocity": 80,
                "duration": 0.08409090909091077,
                "tempo": 120.0
            },
            {
                "start_time": 46.625,
                "end_time": 46.709090909090904,
                "pitch": 68,
                "velocity": 80,
                "duration": 0.08409090909090366,
                "tempo": 120.0
            },
            {
                "start_time": 46.724999999999994,
                "end_time": 46.84318181818182,
                "pitch": 57,
                "velocity": 80,
                "duration": 0.11818181818182438,
                "tempo": 120.0
            },
            {
                "start_time": 46.85909090909091,
                "end_time": 46.94318181818181,
                "pitch": 64,
                "velocity": 80,
                "duration": 0.08409090909090366,
                "tempo": 120.0
            },
            {
                "start_time": 46.959090909090904,
                "end_time": 47.07272727272727,
                "pitch": 68,
                "velocity": 80,
                "duration": 0.11363636363636687,
                "tempo": 120.0
            },
            {
                "start_time": 47.090909090909086,
                "end_time": 47.17272727272727,
                "pitch": 64,
                "velocity": 80,
                "duration": 0.08181818181818556,
                "tempo": 120.0
            },
            {
                "start_time": 47.18863636363636,
                "end_time": 47.27045454545454,
                "pitch": 57,
                "velocity": 80,
                "duration": 0.08181818181817846,
                "tempo": 120.0
            },
            {
                "start_time": 47.31818181818181,
                "end_time": 47.4,
                "pitch": 54,
                "velocity": 80,
                "duration": 0.08181818181818556,
                "tempo": 120.0
            },
            {
                "start_time": 47.41590909090909,
                "end_time": 47.5,
                "pitch": 53,
                "velocity": 80,
                "duration": 0.08409090909091077,
                "tempo": 120.0
            },
            {
                "start_time": 47.518181818181816,
                "end_time": 47.63409090909091,
                "pitch": 57,
                "velocity": 80,
                "duration": 0.11590909090909207,
                "tempo": 120.0
            },
            {
                "start_time": 47.65,
                "end_time": 47.73409090909091,
                "pitch": 63,
                "velocity": 80,
                "duration": 0.08409090909091077,
                "tempo": 120.0
            },
            {
                "start_time": 47.752272727272725,
                "end_time": 47.86818181818182,
                "pitch": 67,
                "velocity": 80,
                "duration": 0.11590909090909207,
                "tempo": 120.0
            },
            {
                "start_time": 47.88409090909091,
                "end_time": 47.96818181818182,
                "pitch": 52,
                "velocity": 80,
                "duration": 0.08409090909091077,
                "tempo": 120.0
            },
            {
                "start_time": 47.986363636363635,
                "end_time": 48.06818181818181,
                "pitch": 55,
                "velocity": 80,
                "duration": 0.08181818181817846,
                "tempo": 120.0
            },
            {
                "start_time": 48.11818181818182,
                "end_time": 48.20227272727273,
                "pitch": 62,
                "velocity": 80,
                "duration": 0.08409090909091077,
                "tempo": 120.0
            },
            {
                "start_time": 48.220454545454544,
                "end_time": 48.30227272727272,
                "pitch": 66,
                "velocity": 80,
                "duration": 0.08181818181817846,
                "tempo": 120.0
            },
            {
                "start_time": 48.320454545454545,
                "end_time": 48.43181818181818,
                "pitch": 62,
                "velocity": 80,
                "duration": 0.11136363636363455,
                "tempo": 120.0
            },
            {
                "start_time": 48.44772727272727,
                "end_time": 48.527272727272724,
                "pitch": 66,
                "velocity": 80,
                "duration": 0.07954545454545325,
                "tempo": 120.0
            },
            {
                "start_time": 48.543181818181814,
                "end_time": 48.65454545454545,
                "pitch": 55,
                "velocity": 80,
                "duration": 0.11136363636363455,
                "tempo": 120.0
            },
            {
                "start_time": 48.67045454545454,
                "end_time": 48.752272727272725,
                "pitch": 62,
                "velocity": 80,
                "duration": 0.08181818181818556,
                "tempo": 120.0
            },
            {
                "start_time": 48.768181818181816,
                "end_time": 48.85227272727273,
                "pitch": 52,
                "velocity": 80,
                "duration": 0.08409090909091077,
                "tempo": 120.0
            },
            {
                "start_time": 48.90454545454545,
                "end_time": 48.98863636363636,
                "pitch": 55,
                "velocity": 80,
                "duration": 0.08409090909091077,
                "tempo": 120.0
            },
            {
                "start_time": 49.00681818181818,
                "end_time": 49.090909090909086,
                "pitch": 62,
                "velocity": 80,
                "duration": 0.08409090909090366,
                "tempo": 120.0
            },
            {
                "start_time": 49.10909090909091,
                "end_time": 49.22954545454545,
                "pitch": 66,
                "velocity": 80,
                "duration": 0.12045454545454248,
                "tempo": 120.0
            },
            {
                "start_time": 49.24545454545454,
                "end_time": 49.33181818181818,
                "pitch": 50,
                "velocity": 80,
                "duration": 0.08636363636363598,
                "tempo": 120.0
            },
            {
                "start_time": 49.34772727272727,
                "end_time": 49.46818181818182,
                "pitch": 54,
                "velocity": 80,
                "duration": 0.12045454545454959,
                "tempo": 120.0
            },
            {
                "start_time": 49.486363636363635,
                "end_time": 49.570454545454545,
                "pitch": 60,
                "velocity": 80,
                "duration": 0.08409090909091077,
                "tempo": 120.0
            },
            {
                "start_time": 49.58863636363636,
                "end_time": 49.675,
                "pitch": 64,
                "velocity": 80,
                "duration": 0.08636363636363598,
                "tempo": 120.0
            },
            {
                "start_time": 49.724999999999994,
                "end_time": 49.80681818181818,
                "pitch": 52,
                "velocity": 80,
                "duration": 0.08181818181818556,
                "tempo": 120.0
            },
            {
                "start_time": 49.82272727272727,
                "end_time": 49.90454545454545,
                "pitch": 55,
                "velocity": 80,
                "duration": 0.08181818181817846,
                "tempo": 120.0
            },
            {
                "start_time": 49.92045454545454,
                "end_time": 50.03636363636363,
                "pitch": 62,
                "velocity": 80,
                "duration": 0.11590909090909207,
                "tempo": 120.0
            },
            {
                "start_time": 50.05227272727272,
                "end_time": 50.13409090909091,
                "pitch": 66,
                "velocity": 80,
                "duration": 0.08181818181818556,
                "tempo": 120.0
            },
            {
                "start_time": 50.15,
                "end_time": 50.26136363636363,
                "pitch": 62,
                "velocity": 80,
                "duration": 0.11136363636363455,
                "tempo": 120.0
            },
            {
                "start_time": 50.277272727272724,
                "end_time": 50.35681818181818,
                "pitch": 65,
                "velocity": 80,
                "duration": 0.07954545454545325,
                "tempo": 120.0
            },
            {
                "start_time": 50.37272727272727,
                "end_time": 50.45454545454545,
                "pitch": 55,
                "velocity": 80,
                "duration": 0.08181818181818556,
                "tempo": 120.0
            },
            {
                "start_time": 50.502272727272725,
                "end_time": 50.58181818181818,
                "pitch": 62,
                "velocity": 80,
                "duration": 0.07954545454545325,
                "tempo": 120.0
            },
            {
                "start_time": 50.59772727272727,
                "end_time": 50.68181818181818,
                "pitch": 52,
                "velocity": 80,
                "duration": 0.08409090909091077,
                "tempo": 120.0
            },
            {
                "start_time": 50.699999999999996,
                "end_time": 50.820454545454545,
                "pitch": 66,
                "velocity": 80,
                "duration": 0.12045454545454959,
                "tempo": 120.0
            },
            {
                "start_time": 50.836363636363636,
                "end_time": 50.92272727272727,
                "pitch": 55,
                "velocity": 80,
                "duration": 0.08636363636363598,
                "tempo": 120.0
            },
            {
                "start_time": 50.93863636363636,
                "end_time": 51.059090909090905,
                "pitch": 62,
                "velocity": 80,
                "duration": 0.12045454545454248,
                "tempo": 120.0
            },
            {
                "start_time": 51.07727272727273,
                "end_time": 51.15909090909091,
                "pitch": 51,
                "velocity": 80,
                "duration": 0.08181818181817846,
                "tempo": 120.0
            },
            {
                "start_time": 51.17727272727272,
                "end_time": 51.25909090909091,
                "pitch": 55,
                "velocity": 80,
                "duration": 0.08181818181818556,
                "tempo": 120.0
            },
            {
                "start_time": 51.31136363636364,
                "end_time": 51.393181818181816,
                "pitch": 61,
                "velocity": 80,
                "duration": 0.08181818181817846,
                "tempo": 120.0
            },
            {
                "start_time": 51.41136363636363,
                "end_time": 51.49318181818182,
                "pitch": 65,
                "velocity": 80,
                "duration": 0.08181818181818556,
                "tempo": 120.0
            },
            {
                "start_time": 51.51136363636363,
                "end_time": 51.62272727272727,
                "pitch": 50,
                "velocity": 80,
                "duration": 0.11136363636363455,
                "tempo": 120.0
            },
            {
                "start_time": 51.63863636363636,
                "end_time": 51.71818181818182,
                "pitch": 53,
                "velocity": 80,
                "duration": 0.07954545454546036,
                "tempo": 120.0
            },
            {
                "start_time": 51.73409090909091,
                "end_time": 51.84772727272727,
                "pitch": 60,
                "velocity": 80,
                "duration": 0.11363636363635976,
                "tempo": 120.0
            },
            {
                "start_time": 51.86363636363636,
                "end_time": 51.94318181818181,
                "pitch": 64,
                "velocity": 80,
                "duration": 0.07954545454545325,
                "tempo": 120.0
            },
            {
                "start_time": 51.959090909090904,
                "end_time": 52.043181818181814,
                "pitch": 60,
                "velocity": 80,
                "duration": 0.08409090909091077,
                "tempo": 120.0
            },
            {
                "start_time": 52.09318181818182,
                "end_time": 52.175,
                "pitch": 53,
                "velocity": 80,
                "duration": 0.08181818181817846,
                "tempo": 120.0
            },
            {
                "start_time": 52.19318181818181,
                "end_time": 52.277272727272724,
                "pitch": 60,
                "velocity": 80,
                "duration": 0.08409090909091077,
                "tempo": 120.0
            },
            {
                "start_time": 52.293181818181814,
                "end_time": 52.40909090909091,
                "pitch": 64,
                "velocity": 80,
                "duration": 0.11590909090909207,
                "tempo": 120.0
            },
            {
                "start_time": 52.42727272727272,
                "end_time": 52.51136363636363,
                "pitch": 60,
                "velocity": 80,
                "duration": 0.08409090909091077,
                "tempo": 120.0
            },
            {
                "start_time": 52.52954545454545,
                "end_time": 52.65,
                "pitch": 53,
                "velocity": 80,
                "duration": 0.12045454545454959,
                "tempo": 120.0
            },
            {
                "start_time": 52.66590909090909,
                "end_time": 52.752272727272725,
                "pitch": 60,
                "velocity": 80,
                "duration": 0.08636363636363598,
                "tempo": 120.0
            },
            {
                "start_time": 52.768181818181816,
                "end_time": 52.85454545454545,
                "pitch": 64,
                "velocity": 80,
                "duration": 0.08636363636363598,
                "tempo": 120.0
            },
            {
                "start_time": 52.90681818181818,
                "end_time": 52.98863636363636,
                "pitch": 48,
                "velocity": 80,
                "duration": 0.08181818181817846,
                "tempo": 120.0
            },
            {
                "start_time": 53.00681818181818,
                "end_time": 53.08863636363636,
                "pitch": 52,
                "velocity": 80,
                "duration": 0.08181818181817846,
                "tempo": 120.0
            },
            {
                "start_time": 53.10681818181818,
                "end_time": 53.22272727272727,
                "pitch": 58,
                "velocity": 80,
                "duration": 0.11590909090909207,
                "tempo": 120.0
            },
            {
                "start_time": 53.240909090909085,
                "end_time": 53.32272727272727,
                "pitch": 62,
                "velocity": 80,
                "duration": 0.08181818181818556,
                "tempo": 120.0
            },
            {
                "start_time": 53.340909090909086,
                "end_time": 53.45227272727273,
                "pitch": 50,
                "velocity": 80,
                "duration": 0.11136363636364166,
                "tempo": 120.0
            },
            {
                "start_time": 53.46818181818182,
                "end_time": 53.54772727272727,
                "pitch": 53,
                "velocity": 80,
                "duration": 0.07954545454545325,
                "tempo": 120.0
            },
            {
                "start_time": 53.56363636363636,
                "end_time": 53.643181818181816,
                "pitch": 60,
                "velocity": 80,
                "duration": 0.07954545454545325,
                "tempo": 120.0
            },
            {
                "start_time": 53.69318181818181,
                "end_time": 53.77272727272727,
                "pitch": 64,
                "velocity": 80,
                "duration": 0.07954545454546036,
                "tempo": 120.0
            },
            {
                "start_time": 53.788636363636364,
                "end_time": 53.87272727272727,
                "pitch": 60,
                "velocity": 80,
                "duration": 0.08409090909090366,
                "tempo": 120.0
            },
            {
                "start_time": 53.88863636363636,
                "end_time": 54.00454545454545,
                "pitch": 64,
                "velocity": 80,
                "duration": 0.11590909090909207,
                "tempo": 120.0
            },
            {
                "start_time": 54.02272727272727,
                "end_time": 54.10681818181818,
                "pitch": 53,
                "velocity": 80,
                "duration": 0.08409090909090366,
                "tempo": 120.0
            },
            {
                "start_time": 54.12272727272727,
                "end_time": 54.23863636363636,
                "pitch": 60,
                "velocity": 80,
                "duration": 0.11590909090909207,
                "tempo": 120.0
            },
            {
                "start_time": 54.25681818181818,
                "end_time": 54.340909090909086,
                "pitch": 53,
                "velocity": 80,
                "duration": 0.08409090909090366,
                "tempo": 120.0
            },
            {
                "start_time": 54.35681818181818,
                "end_time": 54.44090909090909,
                "pitch": 60,
                "velocity": 80,
                "duration": 0.08409090909091077,
                "tempo": 120.0
            },
            {
                "start_time": 54.490909090909085,
                "end_time": 54.574999999999996,
                "pitch": 64,
                "velocity": 80,
                "duration": 0.08409090909091077,
                "tempo": 120.0
            },
            {
                "start_time": 54.590909090909086,
                "end_time": 54.675,
                "pitch": 60,
                "velocity": 80,
                "duration": 0.08409090909091077,
                "tempo": 120.0
            },
            {
                "start_time": 54.69090909090909,
                "end_time": 54.804545454545455,
                "pitch": 64,
                "velocity": 80,
                "duration": 0.11363636363636687,
                "tempo": 120.0
            },
            {
                "start_time": 54.82272727272727,
                "end_time": 54.90454545454545,
                "pitch": 60,
                "velocity": 80,
                "duration": 0.08181818181817846,
                "tempo": 120.0
            },
            {
                "start_time": 54.92045454545454,
                "end_time": 55.03409090909091,
                "pitch": 53,
                "velocity": 80,
                "duration": 0.11363636363636687,
                "tempo": 120.0
            },
            {
                "start_time": 55.05,
                "end_time": 55.131818181818176,
                "pitch": 64,
                "velocity": 80,
                "duration": 0.08181818181817846,
                "tempo": 120.0
            },
            {
                "start_time": 55.14772727272727,
                "end_time": 55.23181818181818,
                "pitch": 48,
                "velocity": 80,
                "duration": 0.08409090909090366,
                "tempo": 120.0
            },
            {
                "start_time": 55.28181818181818,
                "end_time": 55.365909090909085,
                "pitch": 52,
                "velocity": 80,
                "duration": 0.08409090909090366,
                "tempo": 120.0
            },
            {
                "start_time": 55.381818181818176,
                "end_time": 55.465909090909086,
                "pitch": 58,
                "velocity": 80,
                "duration": 0.08409090909091077,
                "tempo": 120.0
            },
            {
                "start_time": 55.48409090909091,
                "end_time": 55.599999999999994,
                "pitch": 62,
                "velocity": 80,
                "duration": 0.11590909090908497,
                "tempo": 120.0
            },
            {
                "start_time": 55.615909090909085,
                "end_time": 55.70227272727273,
                "pitch": 52,
                "velocity": 80,
                "duration": 0.08636363636364308,
                "tempo": 120.0
            },
            {
                "start_time": 55.720454545454544,
                "end_time": 55.83863636363636,
                "pitch": 58,
                "velocity": 80,
                "duration": 0.11818181818181728,
                "tempo": 120.0
            },
            {
                "start_time": 55.85681818181818,
                "end_time": 55.94318181818181,
                "pitch": 62,
                "velocity": 80,
                "duration": 0.08636363636363598,
                "tempo": 120.0
            },
            {
                "start_time": 55.959090909090904,
                "end_time": 56.04545454545454,
                "pitch": 48,
                "velocity": 80,
                "duration": 0.08636363636363598,
                "tempo": 120.0
            },
            {
                "start_time": 56.095454545454544,
                "end_time": 56.179545454545455,
                "pitch": 50,
                "velocity": 80,
                "duration": 0.08409090909091077,
                "tempo": 120.0
            },
            {
                "start_time": 56.195454545454545,
                "end_time": 56.27954545454545,
                "pitch": 53,
                "velocity": 80,
                "duration": 0.08409090909090366,
                "tempo": 120.0
            },
            {
                "start_time": 56.29772727272727,
                "end_time": 56.413636363636364,
                "pitch": 60,
                "velocity": 80,
                "duration": 0.11590909090909207,
                "tempo": 120.0
            },
            {
                "start_time": 56.429545454545455,
                "end_time": 56.51363636363636,
                "pitch": 64,
                "velocity": 80,
                "duration": 0.08409090909090366,
                "tempo": 120.0
            },
            {
                "start_time": 56.53181818181818,
                "end_time": 56.643181818181816,
                "pitch": 60,
                "velocity": 80,
                "duration": 0.11136363636363455,
                "tempo": 120.0
            },
            {
                "start_time": 56.65909090909091,
                "end_time": 56.73863636363636,
                "pitch": 53,
                "velocity": 80,
                "duration": 0.07954545454545325,
                "tempo": 120.0
            },
            {
                "start_time": 56.75454545454545,
                "end_time": 56.834090909090904,
                "pitch": 60,
                "velocity": 80,
                "duration": 0.07954545454545325,
                "tempo": 120.0
            },
            {
                "start_time": 56.881818181818176,
                "end_time": 56.961363636363636,
                "pitch": 64,
                "velocity": 80,
                "duration": 0.07954545454546036,
                "tempo": 120.0
            },
            {
                "start_time": 56.97727272727273,
                "end_time": 57.06363636363636,
                "pitch": 52,
                "velocity": 80,
                "duration": 0.08636363636363598,
                "tempo": 120.0
            },
            {
                "start_time": 57.07954545454545,
                "end_time": 57.199999999999996,
                "pitch": 55,
                "velocity": 80,
                "duration": 0.12045454545454248,
                "tempo": 120.0
            },
            {
                "start_time": 57.21818181818182,
                "end_time": 57.30227272727272,
                "pitch": 60,
                "velocity": 80,
                "duration": 0.08409090909090366,
                "tempo": 120.0
            },
            {
                "start_time": 57.320454545454545,
                "end_time": 57.44090909090909,
                "pitch": 65,
                "velocity": 80,
                "duration": 0.12045454545454248,
                "tempo": 120.0
            },
            {
                "start_time": 57.45681818181818,
                "end_time": 57.54090909090909,
                "pitch": 52,
                "velocity": 80,
                "duration": 0.08409090909091077,
                "tempo": 120.0
            },
            {
                "start_time": 57.55681818181818,
                "end_time": 57.64090909090909,
                "pitch": 55,
                "velocity": 80,
                "duration": 0.08409090909091077,
                "tempo": 120.0
            },
            {
                "start_time": 57.69090909090909,
                "end_time": 57.775,
                "pitch": 60,
                "velocity": 80,
                "duration": 0.08409090909091077,
                "tempo": 120.0
            },
            {
                "start_time": 57.79090909090909,
                "end_time": 57.875,
                "pitch": 65,
                "velocity": 80,
                "duration": 0.08409090909091077,
                "tempo": 120.0
            },
            {
                "start_time": 57.89090909090909,
                "end_time": 58.00454545454545,
                "pitch": 53,
                "velocity": 80,
                "duration": 0.11363636363635976,
                "tempo": 120.0
            },
            {
                "start_time": 58.02045454545454,
                "end_time": 58.099999999999994,
                "pitch": 57,
                "velocity": 80,
                "duration": 0.07954545454545325,
                "tempo": 120.0
            },
            {
                "start_time": 58.115909090909085,
                "end_time": 58.22727272727273,
                "pitch": 63,
                "velocity": 80,
                "duration": 0.11136363636364166,
                "tempo": 120.0
            },
            {
                "start_time": 58.24318181818182,
                "end_time": 58.32272727272727,
                "pitch": 67,
                "velocity": 80,
                "duration": 0.07954545454545325,
                "tempo": 120.0
            },
            {
                "start_time": 58.33863636363636,
                "end_time": 58.425,
                "pitch": 63,
                "velocity": 80,
                "duration": 0.08636363636363598,
                "tempo": 120.0
            },
            {
                "start_time": 58.474999999999994,
                "end_time": 58.56136363636363,
                "pitch": 57,
                "velocity": 80,
                "duration": 0.08636363636363598,
                "tempo": 120.0
            },
            {
                "start_time": 58.57954545454545,
                "end_time": 58.663636363636364,
                "pitch": 53,
                "velocity": 80,
                "duration": 0.08409090909091077,
                "tempo": 120.0
            },
            {
                "start_time": 58.68181818181818,
                "end_time": 58.8,
                "pitch": 57,
                "velocity": 80,
                "duration": 0.11818181818181728,
                "tempo": 120.0
            },
            {
                "start_time": 58.81818181818181,
                "end_time": 58.902272727272724,
                "pitch": 54,
                "velocity": 80,
                "duration": 0.08409090909091077,
                "tempo": 120.0
            },
            {
                "start_time": 58.918181818181814,
                "end_time": 59.03636363636363,
                "pitch": 57,
                "velocity": 80,
                "duration": 0.11818181818181728,
                "tempo": 120.0
            },
            {
                "start_time": 59.05227272727272,
                "end_time": 59.13636363636363,
                "pitch": 64,
                "velocity": 80,
                "duration": 0.08409090909091077,
                "tempo": 120.0
            },
            {
                "start_time": 59.152272727272724,
                "end_time": 59.236363636363635,
                "pitch": 68,
                "velocity": 80,
                "duration": 0.08409090909091077,
                "tempo": 120.0
            },
            {
                "start_time": 59.28636363636363,
                "end_time": 59.37045454545454,
                "pitch": 64,
                "velocity": 80,
                "duration": 0.08409090909091077,
                "tempo": 120.0
            },
            {
                "start_time": 59.38636363636363,
                "end_time": 59.470454545454544,
                "pitch": 68,
                "velocity": 80,
                "duration": 0.08409090909091077,
                "tempo": 120.0
            },
            {
                "start_time": 59.486363636363635,
                "end_time": 59.60454545454545,
                "pitch": 57,
                "velocity": 80,
                "duration": 0.11818181818181728,
                "tempo": 120.0
            },
            {
                "start_time": 59.62045454545454,
                "end_time": 59.70454545454545,
                "pitch": 64,
                "velocity": 80,
                "duration": 0.08409090909091077,
                "tempo": 120.0
            },
            {
                "start_time": 59.720454545454544,
                "end_time": 59.83181818181818,
                "pitch": 68,
                "velocity": 80,
                "duration": 0.11136363636363455,
                "tempo": 120.0
            },
            {
                "start_time": 59.84772727272727,
                "end_time": 59.929545454545455,
                "pitch": 64,
                "velocity": 80,
                "duration": 0.08181818181818556,
                "tempo": 120.0
            },
            {
                "start_time": 59.945454545454545,
                "end_time": 60.025,
                "pitch": 57,
                "velocity": 80,
                "duration": 0.07954545454545325,
                "tempo": 120.0
            },
            {
                "start_time": 60.07272727272727,
                "end_time": 60.152272727272724,
                "pitch": 54,
                "velocity": 80,
                "duration": 0.07954545454545325,
                "tempo": 120.0
            },
            {
                "start_time": 60.168181818181814,
                "end_time": 60.25454545454545,
                "pitch": 52,
                "velocity": 80,
                "duration": 0.08636363636363598,
                "tempo": 120.0
            },
            {
                "start_time": 60.27045454545454,
                "end_time": 60.39090909090909,
                "pitch": 56,
                "velocity": 80,
                "duration": 0.12045454545454959,
                "tempo": 120.0
            },
            {
                "start_time": 60.40681818181818,
                "end_time": 60.49318181818182,
                "pitch": 62,
                "velocity": 80,
                "duration": 0.08636363636363598,
                "tempo": 120.0
            },
            {
                "start_time": 60.51136363636363,
                "end_time": 60.62954545454545,
                "pitch": 66,
                "velocity": 80,
                "duration": 0.11818181818181728,
                "tempo": 120.0
            },
            {
                "start_time": 60.647727272727266,
                "end_time": 60.73181818181818,
                "pitch": 54,
                "velocity": 80,
                "duration": 0.08409090909091077,
                "tempo": 120.0
            },
            {
                "start_time": 60.74772727272727,
                "end_time": 60.83181818181818,
                "pitch": 57,
                "velocity": 80,
                "duration": 0.08409090909091077,
                "tempo": 120.0
            },
            {
                "start_time": 60.881818181818176,
                "end_time": 60.965909090909086,
                "pitch": 64,
                "velocity": 80,
                "duration": 0.08409090909091077,
                "tempo": 120.0
            },
            {
                "start_time": 60.98181818181818,
                "end_time": 61.06590909090909,
                "pitch": 68,
                "velocity": 80,
                "duration": 0.08409090909091077,
                "tempo": 120.0
            },
            {
                "start_time": 61.08181818181818,
                "end_time": 61.19318181818181,
                "pitch": 64,
                "velocity": 80,
                "duration": 0.11136363636363455,
                "tempo": 120.0
            },
            {
                "start_time": 61.209090909090904,
                "end_time": 61.29090909090909,
                "pitch": 68,
                "velocity": 80,
                "duration": 0.08181818181818556,
                "tempo": 120.0
            },
            {
                "start_time": 61.30681818181818,
                "end_time": 61.418181818181814,
                "pitch": 57,
                "velocity": 80,
                "duration": 0.11136363636363455,
                "tempo": 120.0
            },
            {
                "start_time": 61.434090909090905,
                "end_time": 61.51363636363636,
                "pitch": 64,
                "velocity": 80,
                "duration": 0.07954545454545325,
                "tempo": 120.0
            },
            {
                "start_time": 61.52954545454545,
                "end_time": 61.615909090909085,
                "pitch": 68,
                "velocity": 80,
                "duration": 0.08636363636363598,
                "tempo": 120.0
            },
            {
                "start_time": 61.66590909090909,
                "end_time": 61.752272727272725,
                "pitch": 64,
                "velocity": 80,
                "duration": 0.08636363636363598,
                "tempo": 120.0
            },
            {
                "start_time": 61.768181818181816,
                "end_time": 61.85454545454545,
                "pitch": 57,
                "velocity": 80,
                "duration": 0.08636363636363598,
                "tempo": 120.0
            },
            {
                "start_time": 61.87045454545454,
                "end_time": 61.990909090909085,
                "pitch": 54,
                "velocity": 80,
                "duration": 0.12045454545454248,
                "tempo": 120.0
            },
            {
                "start_time": 62.00909090909091,
                "end_time": 62.090909090909086,
                "pitch": 53,
                "velocity": 80,
                "duration": 0.08181818181817846,
                "tempo": 120.0
            },
            {
                "start_time": 62.10909090909091,
                "end_time": 62.224999999999994,
                "pitch": 57,
                "velocity": 80,
                "duration": 0.11590909090908497,
                "tempo": 120.0
            },
            {
                "start_time": 62.24318181818182,
                "end_time": 62.324999999999996,
                "pitch": 63,
                "velocity": 80,
                "duration": 0.08181818181817846,
                "tempo": 120.0
            },
            {
                "start_time": 62.34318181818182,
                "end_time": 62.42727272727272,
                "pitch": 67,
                "velocity": 80,
                "duration": 0.08409090909090366,
                "tempo": 120.0
            },
            {
                "start_time": 62.47727272727273,
                "end_time": 62.559090909090905,
                "pitch": 52,
                "velocity": 80,
                "duration": 0.08181818181817846,
                "tempo": 120.0
            },
            {
                "start_time": 62.57727272727272,
                "end_time": 62.66136363636363,
                "pitch": 55,
                "velocity": 80,
                "duration": 0.08409090909091077,
                "tempo": 120.0
            },
            {
                "start_time": 62.67727272727272,
                "end_time": 62.793181818181814,
                "pitch": 62,
                "velocity": 80,
                "duration": 0.11590909090909207,
                "tempo": 120.0
            },
            {
                "start_time": 62.81136363636363,
                "end_time": 62.89545454545454,
                "pitch": 66,
                "velocity": 80,
                "duration": 0.08409090909091077,
                "tempo": 120.0
            },
            {
                "start_time": 62.91136363636363,
                "end_time": 63.022727272727266,
                "pitch": 62,
                "velocity": 80,
                "duration": 0.11136363636363455,
                "tempo": 120.0
            },
            {
                "start_time": 63.038636363636364,
                "end_time": 63.11818181818182,
                "pitch": 66,
                "velocity": 80,
                "duration": 0.07954545454545325,
                "tempo": 120.0
            },
            {
                "start_time": 63.13409090909091,
                "end_time": 63.215909090909086,
                "pitch": 55,
                "velocity": 80,
                "duration": 0.08181818181817846,
                "tempo": 120.0
            },
            {
                "start_time": 63.26363636363636,
                "end_time": 63.34318181818181,
                "pitch": 62,
                "velocity": 80,
                "duration": 0.07954545454545325,
                "tempo": 120.0
            },
            {
                "start_time": 63.35909090909091,
                "end_time": 63.44318181818181,
                "pitch": 52,
                "velocity": 80,
                "duration": 0.08409090909090366,
                "tempo": 120.0
            },
            {
                "start_time": 63.461363636363636,
                "end_time": 63.58181818181818,
                "pitch": 55,
                "velocity": 80,
                "duration": 0.12045454545454248,
                "tempo": 120.0
            },
            {
                "start_time": 63.59772727272727,
                "end_time": 63.684090909090905,
                "pitch": 62,
                "velocity": 80,
                "duration": 0.08636363636363598,
                "tempo": 120.0
            },
            {
                "start_time": 63.699999999999996,
                "end_time": 63.820454545454545,
                "pitch": 66,
                "velocity": 80,
                "duration": 0.12045454545454959,
                "tempo": 120.0
            },
            {
                "start_time": 63.83863636363636,
                "end_time": 63.92272727272727,
                "pitch": 50,
                "velocity": 80,
                "duration": 0.08409090909091077,
                "tempo": 120.0
            },
            {
                "start_time": 63.94090909090909,
                "end_time": 64.02499999999999,
                "pitch": 54,
                "velocity": 80,
                "duration": 0.08409090909090366,
                "tempo": 120.0
            },
            {
                "start_time": 64.07727272727273,
                "end_time": 64.16363636363636,
                "pitch": 60,
                "velocity": 80,
                "duration": 0.08636363636362887,
                "tempo": 120.0
            },
            {
                "start_time": 64.17954545454545,
                "end_time": 64.26590909090909,
                "pitch": 64,
                "velocity": 80,
                "duration": 0.08636363636364308,
                "tempo": 120.0
            },
            {
                "start_time": 64.28181818181818,
                "end_time": 64.39318181818182,
                "pitch": 52,
                "velocity": 80,
                "duration": 0.11136363636363455,
                "tempo": 120.0
            },
            {
                "start_time": 64.4090909090909,
                "end_time": 64.48636363636363,
                "pitch": 55,
                "velocity": 80,
                "duration": 0.07727272727272805,
                "tempo": 120.0
            },
            {
                "start_time": 64.50227272727273,
                "end_time": 64.61136363636363,
                "pitch": 62,
                "velocity": 80,
                "duration": 0.10909090909090935,
                "tempo": 120.0
            },
            {
                "start_time": 64.62727272727273,
                "end_time": 64.70454545454545,
                "pitch": 66,
                "velocity": 80,
                "duration": 0.07727272727272805,
                "tempo": 120.0
            },
            {
                "start_time": 64.72045454545454,
                "end_time": 64.80454545454545,
                "pitch": 62,
                "velocity": 80,
                "duration": 0.08409090909090366,
                "tempo": 120.0
            },
            {
                "start_time": 64.85454545454544,
                "end_time": 64.93863636363636,
                "pitch": 65,
                "velocity": 80,
                "duration": 0.08409090909091788,
                "tempo": 120.0
            },
            {
                "start_time": 64.95454545454545,
                "end_time": 65.03863636363636,
                "pitch": 55,
                "velocity": 80,
                "duration": 0.08409090909090366,
                "tempo": 120.0
            },
            {
                "start_time": 65.05454545454545,
                "end_time": 65.17272727272727,
                "pitch": 62,
                "velocity": 80,
                "duration": 0.11818181818182438,
                "tempo": 120.0
            },
            {
                "start_time": 65.18863636363636,
                "end_time": 65.27499999999999,
                "pitch": 52,
                "velocity": 80,
                "duration": 0.08636363636362887,
                "tempo": 120.0
            },
            {
                "start_time": 65.29090909090908,
                "end_time": 65.41136363636363,
                "pitch": 66,
                "velocity": 80,
                "duration": 0.12045454545454959,
                "tempo": 120.0
            },
            {
                "start_time": 65.42954545454545,
                "end_time": 65.51363636363637,
                "pitch": 55,
                "velocity": 80,
                "duration": 0.08409090909091788,
                "tempo": 120.0
            },
            {
                "start_time": 65.53181818181818,
                "end_time": 65.61590909090908,
                "pitch": 62,
                "velocity": 80,
                "duration": 0.08409090909090366,
                "tempo": 120.0
            },
            {
                "start_time": 65.66818181818182,
                "end_time": 65.75227272727273,
                "pitch": 51,
                "velocity": 80,
                "duration": 0.08409090909090366,
                "tempo": 120.0
            },
            {
                "start_time": 65.76818181818182,
                "end_time": 65.85227272727272,
                "pitch": 55,
                "velocity": 80,
                "duration": 0.08409090909090366,
                "tempo": 120.0
            },
            {
                "start_time": 65.86818181818181,
                "end_time": 65.98636363636363,
                "pitch": 61,
                "velocity": 80,
                "duration": 0.11818181818182438,
                "tempo": 120.0
            },
            {
                "start_time": 66.00227272727273,
                "end_time": 66.08636363636363,
                "pitch": 65,
                "velocity": 80,
                "duration": 0.08409090909090366,
                "tempo": 120.0
            },
            {
                "start_time": 66.10227272727272,
                "end_time": 66.21363636363635,
                "pitch": 50,
                "velocity": 80,
                "duration": 0.11136363636363455,
                "tempo": 120.0
            },
            {
                "start_time": 66.23181818181818,
                "end_time": 66.31136363636364,
                "pitch": 53,
                "velocity": 80,
                "duration": 0.07954545454545325,
                "tempo": 120.0
            },
            {
                "start_time": 66.32727272727273,
                "end_time": 66.40681818181818,
                "pitch": 60,
                "velocity": 80,
                "duration": 0.07954545454545325,
                "tempo": 120.0
            },
            {
                "start_time": 66.45454545454545,
                "end_time": 66.5340909090909,
                "pitch": 64,
                "velocity": 80,
                "duration": 0.07954545454545325,
                "tempo": 120.0
            },
            {
                "start_time": 66.55,
                "end_time": 66.63636363636363,
                "pitch": 60,
                "velocity": 80,
                "duration": 0.08636363636362887,
                "tempo": 120.0
            },
            {
                "start_time": 66.65227272727273,
                "end_time": 66.77272727272727,
                "pitch": 53,
                "velocity": 80,
                "duration": 0.12045454545453538,
                "tempo": 120.0
            },
            {
                "start_time": 66.78863636363636,
                "end_time": 66.875,
                "pitch": 60,
                "velocity": 80,
                "duration": 0.08636363636364308,
                "tempo": 120.0
            },
            {
                "start_time": 66.89318181818182,
                "end_time": 67.01136363636363,
                "pitch": 64,
                "velocity": 80,
                "duration": 0.11818181818181017,
                "tempo": 120.0
            },
            {
                "start_time": 67.02954545454546,
                "end_time": 67.11590909090908,
                "pitch": 60,
                "velocity": 80,
                "duration": 0.08636363636362887,
                "tempo": 120.0
            },
            {
                "start_time": 67.13181818181818,
                "end_time": 67.21818181818182,
                "pitch": 53,
                "velocity": 80,
                "duration": 0.08636363636364308,
                "tempo": 120.0
            },
            {
                "start_time": 67.26818181818182,
                "end_time": 67.35454545454544,
                "pitch": 60,
                "velocity": 80,
                "duration": 0.08636363636362887,
                "tempo": 120.0
            },
            {
                "start_time": 67.37272727272727,
                "end_time": 67.45681818181818,
                "pitch": 64,
                "velocity": 80,
                "duration": 0.08409090909090366,
                "tempo": 120.0
            },
            {
                "start_time": 67.475,
                "end_time": 67.5840909090909,
                "pitch": 48,
                "velocity": 80,
                "duration": 0.10909090909090935,
                "tempo": 120.0
            },
            {
                "start_time": 67.6,
                "end_time": 67.67727272727272,
                "pitch": 52,
                "velocity": 80,
                "duration": 0.07727272727272805,
                "tempo": 120.0
            },
            {
                "start_time": 67.69318181818181,
                "end_time": 67.80227272727272,
                "pitch": 58,
                "velocity": 80,
                "duration": 0.10909090909090935,
                "tempo": 120.0
            },
            {
                "start_time": 67.81818181818181,
                "end_time": 67.89772727272727,
                "pitch": 62,
                "velocity": 80,
                "duration": 0.07954545454545325,
                "tempo": 120.0
            },
            {
                "start_time": 67.91363636363636,
                "end_time": 67.99545454545454,
                "pitch": 50,
                "velocity": 80,
                "duration": 0.08181818181817846,
                "tempo": 120.0
            },
            {
                "start_time": 68.04545454545455,
                "end_time": 68.12954545454545,
                "pitch": 53,
                "velocity": 80,
                "duration": 0.08409090909090366,
                "tempo": 120.0
            },
            {
                "start_time": 68.14772727272727,
                "end_time": 68.22954545454544,
                "pitch": 60,
                "velocity": 80,
                "duration": 0.08181818181817846,
                "tempo": 120.0
            },
            {
                "start_time": 68.24772727272727,
                "end_time": 68.36363636363636,
                "pitch": 64,
                "velocity": 80,
                "duration": 0.11590909090908497,
                "tempo": 120.0
            },
            {
                "start_time": 68.38181818181818,
                "end_time": 68.4659090909091,
                "pitch": 60,
                "velocity": 80,
                "duration": 0.08409090909091788,
                "tempo": 120.0
            },
            {
                "start_time": 68.48409090909091,
                "end_time": 68.60227272727272,
                "pitch": 64,
                "velocity": 80,
                "duration": 0.11818181818181017,
                "tempo": 120.0
            },
            {
                "start_time": 68.62045454545454,
                "end_time": 68.70681818181818,
                "pitch": 53,
                "velocity": 80,
                "duration": 0.08636363636364308,
                "tempo": 120.0
            },
            {
                "start_time": 68.72272727272727,
                "end_time": 68.80909090909091,
                "pitch": 60,
                "velocity": 80,
                "duration": 0.08636363636364308,
                "tempo": 120.0
            },
            {
                "start_time": 68.85909090909091,
                "end_time": 68.94318181818181,
                "pitch": 53,
                "velocity": 80,
                "duration": 0.08409090909090366,
                "tempo": 120.0
            },
            {
                "start_time": 68.9590909090909,
                "end_time": 69.04318181818182,
                "pitch": 60,
                "velocity": 80,
                "duration": 0.08409090909091788,
                "tempo": 120.0
            },
            {
                "start_time": 69.06136363636364,
                "end_time": 69.17727272727272,
                "pitch": 64,
                "velocity": 80,
                "duration": 0.11590909090908497,
                "tempo": 120.0
            },
            {
                "start_time": 69.19318181818181,
                "end_time": 69.27727272727273,
                "pitch": 60,
                "velocity": 80,
                "duration": 0.08409090909091788,
                "tempo": 120.0
            },
            {
                "start_time": 69.29545454545455,
                "end_time": 69.40681818181818,
                "pitch": 64,
                "velocity": 80,
                "duration": 0.11136363636363455,
                "tempo": 120.0
            },
            {
                "start_time": 69.42272727272727,
                "end_time": 69.50227272727273,
                "pitch": 60,
                "velocity": 80,
                "duration": 0.07954545454545325,
                "tempo": 120.0
            },
            {
                "start_time": 69.51818181818182,
                "end_time": 69.59772727272727,
                "pitch": 53,
                "velocity": 80,
                "duration": 0.07954545454545325,
                "tempo": 120.0
            },
            {
                "start_time": 69.64545454545454,
                "end_time": 69.725,
                "pitch": 64,
                "velocity": 80,
                "duration": 0.07954545454545325,
                "tempo": 120.0
            },
            {
                "start_time": 69.74318181818181,
                "end_time": 69.825,
                "pitch": 48,
                "velocity": 80,
                "duration": 0.08181818181819267,
                "tempo": 120.0
            },
            {
                "start_time": 69.84318181818182,
                "end_time": 69.9590909090909,
                "pitch": 52,
                "velocity": 80,
                "duration": 0.11590909090908497,
                "tempo": 120.0
            },
            {
                "start_time": 69.97727272727272,
                "end_time": 70.05909090909091,
                "pitch": 58,
                "velocity": 80,
                "duration": 0.08181818181819267,
                "tempo": 120.0
            },
            {
                "start_time": 70.07727272727273,
                "end_time": 70.19318181818181,
                "pitch": 62,
                "velocity": 80,
                "duration": 0.11590909090908497,
                "tempo": 120.0
            },
            {
                "start_time": 70.21136363636363,
                "end_time": 70.29772727272727,
                "pitch": 52,
                "velocity": 80,
                "duration": 0.08636363636364308,
                "tempo": 120.0
            },
            {
                "start_time": 70.31590909090909,
                "end_time": 70.40227272727273,
                "pitch": 58,
                "velocity": 80,
                "duration": 0.08636363636364308,
                "tempo": 120.0
            },
            {
                "start_time": 70.45454545454545,
                "end_time": 70.54318181818182,
                "pitch": 62,
                "velocity": 80,
                "duration": 0.08863636363636829,
                "tempo": 120.0
            },
            {
                "start_time": 70.56136363636364,
                "end_time": 70.64772727272727,
                "pitch": 48,
                "velocity": 80,
                "duration": 0.08636363636362887,
                "tempo": 120.0
            },
            {
                "start_time": 70.66590909090908,
                "end_time": 70.77499999999999,
                "pitch": 50,
                "velocity": 80,
                "duration": 0.10909090909090935,
                "tempo": 120.0
            },
            {
                "start_time": 70.79090909090908,
                "end_time": 70.87045454545454,
                "pitch": 53,
                "velocity": 80,
                "duration": 0.07954545454545325,
                "tempo": 120.0
            },
            {
                "start_time": 70.8840909090909,
                "end_time": 70.99545454545454,
                "pitch": 60,
                "velocity": 80,
                "duration": 0.11136363636363455,
                "tempo": 120.0
            },
            {
                "start_time": 71.0090909090909,
                "end_time": 71.08863636363635,
                "pitch": 64,
                "velocity": 80,
                "duration": 0.07954545454545325,
                "tempo": 120.0
            },
            {
                "start_time": 71.10454545454544,
                "end_time": 71.18863636363636,
                "pitch": 60,
                "velocity": 80,
                "duration": 0.08409090909091788,
                "tempo": 120.0
            },
            {
                "start_time": 71.23863636363636,
                "end_time": 71.32045454545454,
                "pitch": 53,
                "velocity": 80,
                "duration": 0.08181818181817846,
                "tempo": 120.0
            },
            {
                "start_time": 71.33863636363635,
                "end_time": 71.42272727272727,
                "pitch": 60,
                "velocity": 80,
                "duration": 0.08409090909091788,
                "tempo": 120.0
            },
            {
                "start_time": 71.43863636363636,
                "end_time": 71.55454545454545,
                "pitch": 64,
                "velocity": 80,
                "duration": 0.11590909090908497,
                "tempo": 120.0
            },
            {
                "start_time": 71.57272727272726,
                "end_time": 71.65681818181818,
                "pitch": 52,
                "velocity": 80,
                "duration": 0.08409090909091788,
                "tempo": 120.0
            },
            {
                "start_time": 71.675,
                "end_time": 71.79545454545455,
                "pitch": 55,
                "velocity": 80,
                "duration": 0.12045454545454959,
                "tempo": 120.0
            },
            {
                "start_time": 71.81136363636364,
                "end_time": 71.89772727272727,
                "pitch": 60,
                "velocity": 80,
                "duration": 0.08636363636362887,
                "tempo": 120.0
            },
            {
                "start_time": 71.91363636363636,
                "end_time": 72.0,
                "pitch": 65,
                "velocity": 80,
                "duration": 0.08636363636364308,
                "tempo": 120.0
            },
            {
                "start_time": 72.05227272727272,
                "end_time": 72.1340909090909,
                "pitch": 52,
                "velocity": 80,
                "duration": 0.08181818181817846,
                "tempo": 120.0
            },
            {
                "start_time": 72.15227272727272,
                "end_time": 72.23636363636363,
                "pitch": 55,
                "velocity": 80,
                "duration": 0.08409090909091788,
                "tempo": 120.0
            },
            {
                "start_time": 72.25227272727273,
                "end_time": 72.36818181818181,
                "pitch": 60,
                "velocity": 80,
                "duration": 0.11590909090908497,
                "tempo": 120.0
            },
            {
                "start_time": 72.38636363636363,
                "end_time": 72.47045454545454,
                "pitch": 65,
                "velocity": 80,
                "duration": 0.08409090909091788,
                "tempo": 120.0
            },
            {
                "start_time": 72.48636363636363,
                "end_time": 72.59772727272727,
                "pitch": 53,
                "velocity": 80,
                "duration": 0.11136363636363455,
                "tempo": 120.0
            },
            {
                "start_time": 72.61363636363636,
                "end_time": 72.69318181818181,
                "pitch": 57,
                "velocity": 80,
                "duration": 0.07954545454545325,
                "tempo": 120.0
            },
            {
                "start_time": 72.7090909090909,
                "end_time": 72.78863636363636,
                "pitch": 63,
                "velocity": 80,
                "duration": 0.07954545454545325,
                "tempo": 120.0
            },
            {
                "start_time": 72.83863636363635,
                "end_time": 72.91818181818182,
                "pitch": 67,
                "velocity": 80,
                "duration": 0.07954545454546746,
                "tempo": 120.0
            },
            {
                "start_time": 72.93409090909091,
                "end_time": 73.01818181818182,
                "pitch": 63,
                "velocity": 80,
                "duration": 0.08409090909090366,
                "tempo": 120.0
            },
            {
                "start_time": 73.03636363636363,
                "end_time": 73.15681818181818,
                "pitch": 57,
                "velocity": 80,
                "duration": 0.12045454545454959,
                "tempo": 120.0
            },
            {
                "start_time": 73.17272727272727,
                "end_time": 73.2590909090909,
                "pitch": 53,
                "velocity": 80,
                "duration": 0.08636363636362887,
                "tempo": 120.0
            },
            {
                "start_time": 73.27499999999999,
                "end_time": 73.39545454545454,
                "pitch": 57,
                "velocity": 80,
                "duration": 0.12045454545454959,
                "tempo": 120.0
            }
        ],
        "Trumpet": [
            {
                "start_time": 0.0,
                "end_time": 0.27499999999999997,
                "pitch": 57,
                "velocity": 51,
                "duration": 0.27499999999999997,
                "tempo": 120.0
            },
            {
                "start_time": 0.2909090909090909,
                "end_time": 0.36136363636363633,
                "pitch": 57,
                "velocity": 51,
                "duration": 0.07045454545454544,
                "tempo": 120.0
            },
            {
                "start_time": 0.37727272727272726,
                "end_time": 0.45909090909090905,
                "pitch": 57,
                "velocity": 51,
                "duration": 0.08181818181818179,
                "tempo": 120.0
            },
            {
                "start_time": 2.0795454545454546,
                "end_time": 2.184090909090909,
                "pitch": 57,
                "velocity": 51,
                "duration": 0.1045454545454545,
                "tempo": 120.0
            },
            {
                "start_time": 2.370454545454545,
                "end_time": 2.4795454545454545,
                "pitch": 57,
                "velocity": 51,
                "duration": 0.10909090909090935,
                "tempo": 120.0
            },
            {
                "start_time": 4.1,
                "end_time": 4.418181818181818,
                "pitch": 55,
                "velocity": 51,
                "duration": 0.31818181818181834,
                "tempo": 120.0
            },
            {
                "start_time": 4.434090909090909,
                "end_time": 4.552272727272727,
                "pitch": 55,
                "velocity": 51,
                "duration": 0.11818181818181817,
                "tempo": 120.0
            },
            {
                "start_time": 6.029545454545454,
                "end_time": 6.1477272727272725,
                "pitch": 55,
                "velocity": 51,
                "duration": 0.11818181818181817,
                "tempo": 120.0
            },
            {
                "start_time": 6.263636363636364,
                "end_time": 6.381818181818182,
                "pitch": 55,
                "velocity": 51,
                "duration": 0.11818181818181817,
                "tempo": 120.0
            },
            {
                "start_time": 6.497727272727272,
                "end_time": 6.581818181818181,
                "pitch": 55,
                "velocity": 51,
                "duration": 0.084090909090909,
                "tempo": 120.0
            },
            {
                "start_time": 7.759090909090909,
                "end_time": 8.084090909090909,
                "pitch": 57,
                "velocity": 51,
                "duration": 0.3250000000000002,
                "tempo": 120.0
            },
            {
                "start_time": 8.1,
                "end_time": 8.186363636363636,
                "pitch": 57,
                "velocity": 51,
                "duration": 0.08636363636363598,
                "tempo": 120.0
            },
            {
                "start_time": 8.238636363636363,
                "end_time": 8.322727272727272,
                "pitch": 57,
                "velocity": 51,
                "duration": 0.084090909090909,
                "tempo": 120.0
            },
            {
                "start_time": 9.697727272727272,
                "end_time": 9.779545454545454,
                "pitch": 57,
                "velocity": 51,
                "duration": 0.08181818181818201,
                "tempo": 120.0
            },
            {
                "start_time": 9.924999999999999,
                "end_time": 10.006818181818181,
                "pitch": 57,
                "velocity": 51,
                "duration": 0.08181818181818201,
                "tempo": 120.0
            },
            {
                "start_time": 11.429545454545455,
                "end_time": 11.747727272727273,
                "pitch": 55,
                "velocity": 51,
                "duration": 0.31818181818181834,
                "tempo": 120.0
            },
            {
                "start_time": 11.763636363636364,
                "end_time": 11.847727272727273,
                "pitch": 55,
                "velocity": 51,
                "duration": 0.084090909090909,
                "tempo": 120.0
            },
            {
                "start_time": 13.35,
                "end_time": 13.427272727272726,
                "pitch": 55,
                "velocity": 51,
                "duration": 0.07727272727272627,
                "tempo": 120.0
            },
            {
                "start_time": 13.568181818181818,
                "end_time": 13.647727272727272,
                "pitch": 55,
                "velocity": 51,
                "duration": 0.07954545454545325,
                "tempo": 120.0
            },
            {
                "start_time": 13.802272727272726,
                "end_time": 13.888636363636364,
                "pitch": 55,
                "velocity": 51,
                "duration": 0.08636363636363775,
                "tempo": 120.0
            },
            {
                "start_time": 15.054545454545455,
                "end_time": 15.261363636363635,
                "pitch": 40,
                "velocity": 51,
                "duration": 0.20681818181818024,
                "tempo": 120.0
            },
            {
                "start_time": 15.279545454545454,
                "end_time": 15.327272727272726,
                "pitch": 40,
                "velocity": 51,
                "duration": 0.04772727272727195,
                "tempo": 120.0
            },
            {
                "start_time": 15.406818181818181,
                "end_time": 15.586363636363636,
                "pitch": 40,
                "velocity": 51,
                "duration": 0.17954545454545467,
                "tempo": 120.0
            },
            {
                "start_time": 15.602272727272727,
                "end_time": 15.686363636363636,
                "pitch": 40,
                "velocity": 51,
                "duration": 0.084090909090909,
                "tempo": 120.0
            },
            {
                "start_time": 15.736363636363636,
                "end_time": 15.820454545454545,
                "pitch": 50,
                "velocity": 51,
                "duration": 0.084090909090909,
                "tempo": 120.0
            },
            {
                "start_time": 15.836363636363636,
                "end_time": 15.954545454545453,
                "pitch": 52,
                "velocity": 51,
                "duration": 0.11818181818181728,
                "tempo": 120.0
            },
            {
                "start_time": 15.970454545454544,
                "end_time": 16.022727272727273,
                "pitch": 40,
                "velocity": 51,
                "duration": 0.05227272727272947,
                "tempo": 120.0
            },
            {
                "start_time": 16.07272727272727,
                "end_time": 16.125,
                "pitch": 40,
                "velocity": 51,
                "duration": 0.05227272727272947,
                "tempo": 120.0
            },
            {
                "start_time": 16.211363636363636,
                "end_time": 16.397727272727273,
                "pitch": 40,
                "velocity": 51,
                "duration": 0.1863636363636374,
                "tempo": 120.0
            },
            {
                "start_time": 16.41590909090909,
                "end_time": 16.495454545454546,
                "pitch": 40,
                "velocity": 51,
                "duration": 0.0795454545454568,
                "tempo": 120.0
            },
            {
                "start_time": 16.543181818181818,
                "end_time": 16.62272727272727,
                "pitch": 50,
                "velocity": 51,
                "duration": 0.07954545454545325,
                "tempo": 120.0
            },
            {
                "start_time": 16.638636363636362,
                "end_time": 16.752272727272725,
                "pitch": 52,
                "velocity": 51,
                "duration": 0.11363636363636331,
                "tempo": 120.0
            },
            {
                "start_time": 16.768181818181816,
                "end_time": 16.847727272727273,
                "pitch": 40,
                "velocity": 51,
                "duration": 0.0795454545454568,
                "tempo": 120.0
            },
            {
                "start_time": 16.863636363636363,
                "end_time": 17.081818181818182,
                "pitch": 40,
                "velocity": 51,
                "duration": 0.2181818181818187,
                "tempo": 120.0
            },
            {
                "start_time": 17.097727272727273,
                "end_time": 17.147727272727273,
                "pitch": 40,
                "velocity": 51,
                "duration": 0.05000000000000071,
                "tempo": 120.0
            },
            {
                "start_time": 17.19772727272727,
                "end_time": 17.418181818181818,
                "pitch": 40,
                "velocity": 51,
                "duration": 0.22045454545454746,
                "tempo": 120.0
            },
            {
                "start_time": 17.43409090909091,
                "end_time": 17.486363636363635,
                "pitch": 40,
                "velocity": 51,
                "duration": 0.052272727272725916,
                "tempo": 120.0
            },
            {
                "start_time": 17.570454545454545,
                "end_time": 17.65681818181818,
                "pitch": 50,
                "velocity": 51,
                "duration": 0.08636363636363598,
                "tempo": 120.0
            },
            {
                "start_time": 17.675,
                "end_time": 17.759090909090908,
                "pitch": 52,
                "velocity": 51,
                "duration": 0.08409090909090722,
                "tempo": 120.0
            },
            {
                "start_time": 17.811363636363634,
                "end_time": 17.995454545454546,
                "pitch": 37,
                "velocity": 51,
                "duration": 0.1840909090909122,
                "tempo": 120.0
            },
            {
                "start_time": 18.011363636363637,
                "end_time": 18.127272727272725,
                "pitch": 49,
                "velocity": 51,
                "duration": 0.11590909090908852,
                "tempo": 120.0
            },
            {
                "start_time": 18.145454545454545,
                "end_time": 18.229545454545455,
                "pitch": 37,
                "velocity": 51,
                "duration": 0.08409090909091077,
                "tempo": 120.0
            },
            {
                "start_time": 18.245454545454546,
                "end_time": 18.35681818181818,
                "pitch": 38,
                "velocity": 51,
                "duration": 0.11136363636363455,
                "tempo": 120.0
            },
            {
                "start_time": 18.37272727272727,
                "end_time": 18.452272727272728,
                "pitch": 50,
                "velocity": 51,
                "duration": 0.0795454545454568,
                "tempo": 120.0
            },
            {
                "start_time": 18.46818181818182,
                "end_time": 18.55,
                "pitch": 39,
                "velocity": 51,
                "duration": 0.08181818181818201,
                "tempo": 120.0
            },
            {
                "start_time": 18.597727272727273,
                "end_time": 18.677272727272726,
                "pitch": 51,
                "velocity": 51,
                "duration": 0.07954545454545325,
                "tempo": 120.0
            },
            {
                "start_time": 18.693181818181817,
                "end_time": 18.91590909090909,
                "pitch": 40,
                "velocity": 51,
                "duration": 0.22272727272727266,
                "tempo": 120.0
            },
            {
                "start_time": 18.93181818181818,
                "end_time": 18.98409090909091,
                "pitch": 40,
                "velocity": 51,
                "duration": 0.05227272727272947,
                "tempo": 120.0
            },
            {
                "start_time": 19.034090909090907,
                "end_time": 19.254545454545454,
                "pitch": 40,
                "velocity": 51,
                "duration": 0.22045454545454746,
                "tempo": 120.0
            },
            {
                "start_time": 19.272727272727273,
                "end_time": 19.32272727272727,
                "pitch": 40,
                "velocity": 51,
                "duration": 0.04999999999999716,
                "tempo": 120.0
            },
            {
                "start_time": 19.40681818181818,
                "end_time": 19.488636363636363,
                "pitch": 50,
                "velocity": 51,
                "duration": 0.08181818181818201,
                "tempo": 120.0
            },
            {
                "start_time": 19.50681818181818,
                "end_time": 19.58863636363636,
                "pitch": 52,
                "velocity": 51,
                "duration": 0.08181818181818201,
                "tempo": 120.0
            },
            {
                "start_time": 19.60681818181818,
                "end_time": 19.686363636363634,
                "pitch": 40,
                "velocity": 51,
                "duration": 0.07954545454545325,
                "tempo": 120.0
            },
            {
                "start_time": 19.73409090909091,
                "end_time": 19.78181818181818,
                "pitch": 40,
                "velocity": 51,
                "duration": 0.04772727272727195,
                "tempo": 120.0
            },
            {
                "start_time": 19.829545454545453,
                "end_time": 20.038636363636364,
                "pitch": 40,
                "velocity": 51,
                "duration": 0.20909090909091077,
                "tempo": 120.0
            },
            {
                "start_time": 20.054545454545455,
                "end_time": 20.104545454545452,
                "pitch": 40,
                "velocity": 51,
                "duration": 0.04999999999999716,
                "tempo": 120.0
            },
            {
                "start_time": 20.188636363636363,
                "end_time": 20.270454545454545,
                "pitch": 50,
                "velocity": 51,
                "duration": 0.08181818181818201,
                "tempo": 120.0
            },
            {
                "start_time": 20.288636363636364,
                "end_time": 20.37272727272727,
                "pitch": 52,
                "velocity": 51,
                "duration": 0.08409090909090722,
                "tempo": 120.0
            },
            {
                "start_time": 20.388636363636362,
                "end_time": 20.504545454545454,
                "pitch": 40,
                "velocity": 51,
                "duration": 0.11590909090909207,
                "tempo": 120.0
            },
            {
                "start_time": 20.522727272727273,
                "end_time": 20.745454545454546,
                "pitch": 40,
                "velocity": 51,
                "duration": 0.22272727272727266,
                "tempo": 120.0
            },
            {
                "start_time": 20.761363636363637,
                "end_time": 20.813636363636363,
                "pitch": 40,
                "velocity": 51,
                "duration": 0.052272727272725916,
                "tempo": 120.0
            },
            {
                "start_time": 20.863636363636363,
                "end_time": 21.084090909090907,
                "pitch": 40,
                "velocity": 51,
                "duration": 0.2204545454545439,
                "tempo": 120.0
            },
            {
                "start_time": 21.102272727272727,
                "end_time": 21.152272727272727,
                "pitch": 40,
                "velocity": 51,
                "duration": 0.05000000000000071,
                "tempo": 120.0
            },
            {
                "start_time": 21.202272727272724,
                "end_time": 21.318181818181817,
                "pitch": 50,
                "velocity": 51,
                "duration": 0.11590909090909207,
                "tempo": 120.0
            },
            {
                "start_time": 21.336363636363636,
                "end_time": 21.420454545454543,
                "pitch": 52,
                "velocity": 51,
                "duration": 0.08409090909090722,
                "tempo": 120.0
            },
            {
                "start_time": 21.436363636363634,
                "end_time": 21.647727272727273,
                "pitch": 37,
                "velocity": 51,
                "duration": 0.21136363636363953,
                "tempo": 120.0
            },
            {
                "start_time": 21.66590909090909,
                "end_time": 21.74772727272727,
                "pitch": 49,
                "velocity": 51,
                "duration": 0.08181818181818201,
                "tempo": 120.0
            },
            {
                "start_time": 21.795454545454543,
                "end_time": 21.877272727272725,
                "pitch": 37,
                "velocity": 51,
                "duration": 0.08181818181818201,
                "tempo": 120.0
            },
            {
                "start_time": 21.893181818181816,
                "end_time": 21.977272727272727,
                "pitch": 38,
                "velocity": 51,
                "duration": 0.08409090909091077,
                "tempo": 120.0
            },
            {
                "start_time": 21.993181818181817,
                "end_time": 22.111363636363635,
                "pitch": 50,
                "velocity": 51,
                "duration": 0.11818181818181728,
                "tempo": 120.0
            },
            {
                "start_time": 22.127272727272725,
                "end_time": 22.211363636363636,
                "pitch": 39,
                "velocity": 51,
                "duration": 0.08409090909091077,
                "tempo": 120.0
            },
            {
                "start_time": 22.227272727272727,
                "end_time": 22.345454545454544,
                "pitch": 51,
                "velocity": 51,
                "duration": 0.11818181818181728,
                "tempo": 120.0
            },
            {
                "start_time": 22.361363636363635,
                "end_time": 22.545454545454543,
                "pitch": 40,
                "velocity": 51,
                "duration": 0.18409090909090864,
                "tempo": 120.0
            },
            {
                "start_time": 22.595454545454544,
                "end_time": 22.645454545454545,
                "pitch": 40,
                "velocity": 51,
                "duration": 0.05000000000000071,
                "tempo": 120.0
            },
            {
                "start_time": 22.695454545454545,
                "end_time": 22.909090909090907,
                "pitch": 40,
                "velocity": 51,
                "duration": 0.21363636363636118,
                "tempo": 120.0
            },
            {
                "start_time": 22.924999999999997,
                "end_time": 22.972727272727273,
                "pitch": 40,
                "velocity": 51,
                "duration": 0.047727272727275505,
                "tempo": 120.0
            },
            {
                "start_time": 23.020454545454545,
                "end_time": 23.13181818181818,
                "pitch": 50,
                "velocity": 51,
                "duration": 0.11136363636363455,
                "tempo": 120.0
            },
            {
                "start_time": 23.147727272727273,
                "end_time": 23.227272727272727,
                "pitch": 52,
                "velocity": 51,
                "duration": 0.07954545454545325,
                "tempo": 120.0
            },
            {
                "start_time": 23.243181818181817,
                "end_time": 23.295454545454543,
                "pitch": 40,
                "velocity": 51,
                "duration": 0.052272727272725916,
                "tempo": 120.0
            },
            {
                "start_time": 23.38181818181818,
                "end_time": 23.43181818181818,
                "pitch": 40,
                "velocity": 51,
                "duration": 0.05000000000000071,
                "tempo": 120.0
            },
            {
                "start_time": 23.48409090909091,
                "end_time": 23.706818181818182,
                "pitch": 40,
                "velocity": 51,
                "duration": 0.22272727272727266,
                "tempo": 120.0
            },
            {
                "start_time": 23.722727272727273,
                "end_time": 23.77272727272727,
                "pitch": 40,
                "velocity": 51,
                "duration": 0.04999999999999716,
                "tempo": 120.0
            },
            {
                "start_time": 23.82272727272727,
                "end_time": 23.94090909090909,
                "pitch": 50,
                "velocity": 51,
                "duration": 0.11818181818182083,
                "tempo": 120.0
            },
            {
                "start_time": 23.956818181818182,
                "end_time": 24.04090909090909,
                "pitch": 52,
                "velocity": 51,
                "duration": 0.08409090909090722,
                "tempo": 120.0
            },
            {
                "start_time": 24.05681818181818,
                "end_time": 24.14090909090909,
                "pitch": 40,
                "velocity": 51,
                "duration": 0.08409090909091077,
                "tempo": 120.0
            },
            {
                "start_time": 24.19090909090909,
                "end_time": 24.375,
                "pitch": 40,
                "velocity": 51,
                "duration": 0.18409090909090864,
                "tempo": 120.0
            },
            {
                "start_time": 24.39090909090909,
                "end_time": 24.474999999999998,
                "pitch": 40,
                "velocity": 51,
                "duration": 0.08409090909090722,
                "tempo": 120.0
            },
            {
                "start_time": 24.525,
                "end_time": 24.738636363636363,
                "pitch": 40,
                "velocity": 51,
                "duration": 0.21363636363636473,
                "tempo": 120.0
            },
            {
                "start_time": 24.754545454545454,
                "end_time": 24.802272727272726,
                "pitch": 40,
                "velocity": 51,
                "duration": 0.04772727272727195,
                "tempo": 120.0
            },
            {
                "start_time": 24.849999999999998,
                "end_time": 24.929545454545455,
                "pitch": 50,
                "velocity": 51,
                "duration": 0.0795454545454568,
                "tempo": 120.0
            },
            {
                "start_time": 24.977272727272727,
                "end_time": 25.05681818181818,
                "pitch": 52,
                "velocity": 51,
                "duration": 0.07954545454545325,
                "tempo": 120.0
            },
            {
                "start_time": 25.07272727272727,
                "end_time": 25.295454545454543,
                "pitch": 37,
                "velocity": 51,
                "duration": 0.22272727272727266,
                "tempo": 120.0
            },
            {
                "start_time": 25.313636363636363,
                "end_time": 25.39772727272727,
                "pitch": 49,
                "velocity": 51,
                "duration": 0.08409090909090722,
                "tempo": 120.0
            },
            {
                "start_time": 25.41590909090909,
                "end_time": 25.534090909090907,
                "pitch": 37,
                "velocity": 51,
                "duration": 0.11818181818181728,
                "tempo": 120.0
            },
            {
                "start_time": 25.552272727272726,
                "end_time": 25.636363636363637,
                "pitch": 38,
                "velocity": 51,
                "duration": 0.08409090909091077,
                "tempo": 120.0
            },
            {
                "start_time": 25.652272727272727,
                "end_time": 25.736363636363635,
                "pitch": 50,
                "velocity": 51,
                "duration": 0.08409090909090722,
                "tempo": 120.0
            },
            {
                "start_time": 25.786363636363635,
                "end_time": 25.870454545454542,
                "pitch": 39,
                "velocity": 51,
                "duration": 0.08409090909090722,
                "tempo": 120.0
            },
            {
                "start_time": 25.886363636363637,
                "end_time": 25.970454545454544,
                "pitch": 51,
                "velocity": 51,
                "duration": 0.08409090909090722,
                "tempo": 120.0
            },
            {
                "start_time": 25.986363636363635,
                "end_time": 26.195454545454545,
                "pitch": 40,
                "velocity": 51,
                "duration": 0.20909090909091077,
                "tempo": 120.0
            },
            {
                "start_time": 26.211363636363636,
                "end_time": 26.259090909090908,
                "pitch": 40,
                "velocity": 51,
                "duration": 0.04772727272727195,
                "tempo": 120.0
            },
            {
                "start_time": 26.33863636363636,
                "end_time": 26.518181818181816,
                "pitch": 40,
                "velocity": 51,
                "duration": 0.17954545454545467,
                "tempo": 120.0
            },
            {
                "start_time": 26.568181818181817,
                "end_time": 26.618181818181817,
                "pitch": 40,
                "velocity": 51,
                "duration": 0.05000000000000071,
                "tempo": 120.0
            },
            {
                "start_time": 26.668181818181818,
                "end_time": 26.752272727272725,
                "pitch": 50,
                "velocity": 51,
                "duration": 0.08409090909090722,
                "tempo": 120.0
            },
            {
                "start_time": 26.768181818181816,
                "end_time": 26.886363636363637,
                "pitch": 52,
                "velocity": 51,
                "duration": 0.11818181818182083,
                "tempo": 120.0
            },
            {
                "start_time": 26.902272727272727,
                "end_time": 26.954545454545453,
                "pitch": 40,
                "velocity": 51,
                "duration": 0.052272727272725916,
                "tempo": 120.0
            },
            {
                "start_time": 27.004545454545454,
                "end_time": 27.05681818181818,
                "pitch": 40,
                "velocity": 51,
                "duration": 0.052272727272725916,
                "tempo": 120.0
            },
            {
                "start_time": 27.143181818181816,
                "end_time": 27.329545454545453,
                "pitch": 40,
                "velocity": 51,
                "duration": 0.1863636363636374,
                "tempo": 120.0
            },
            {
                "start_time": 27.38181818181818,
                "end_time": 27.43181818181818,
                "pitch": 40,
                "velocity": 51,
                "duration": 0.05000000000000071,
                "tempo": 120.0
            },
            {
                "start_time": 27.48181818181818,
                "end_time": 27.565909090909088,
                "pitch": 50,
                "velocity": 51,
                "duration": 0.08409090909090722,
                "tempo": 120.0
            },
            {
                "start_time": 27.581818181818182,
                "end_time": 27.7,
                "pitch": 52,
                "velocity": 51,
                "duration": 0.11818181818181728,
                "tempo": 120.0
            },
            {
                "start_time": 27.71590909090909,
                "end_time": 27.799999999999997,
                "pitch": 40,
                "velocity": 51,
                "duration": 0.08409090909090722,
                "tempo": 120.0
            },
            {
                "start_time": 27.815909090909088,
                "end_time": 28.025,
                "pitch": 40,
                "velocity": 51,
                "duration": 0.20909090909091077,
                "tempo": 120.0
            },
            {
                "start_time": 28.04090909090909,
                "end_time": 28.08863636363636,
                "pitch": 40,
                "velocity": 51,
                "duration": 0.04772727272727195,
                "tempo": 120.0
            },
            {
                "start_time": 28.168181818181818,
                "end_time": 28.347727272727273,
                "pitch": 40,
                "velocity": 51,
                "duration": 0.17954545454545467,
                "tempo": 120.0
            },
            {
                "start_time": 28.363636363636363,
                "end_time": 28.44772727272727,
                "pitch": 40,
                "velocity": 51,
                "duration": 0.08409090909090722,
                "tempo": 120.0
            },
            {
                "start_time": 28.49772727272727,
                "end_time": 28.581818181818182,
                "pitch": 50,
                "velocity": 51,
                "duration": 0.08409090909091077,
                "tempo": 120.0
            },
            {
                "start_time": 28.597727272727273,
                "end_time": 28.71590909090909,
                "pitch": 52,
                "velocity": 51,
                "duration": 0.11818181818181728,
                "tempo": 120.0
            },
            {
                "start_time": 28.73181818181818,
                "end_time": 28.920454545454543,
                "pitch": 37,
                "velocity": 51,
                "duration": 0.1886363636363626,
                "tempo": 120.0
            },
            {
                "start_time": 28.972727272727273,
                "end_time": 29.05681818181818,
                "pitch": 49,
                "velocity": 51,
                "duration": 0.08409090909090722,
                "tempo": 120.0
            },
            {
                "start_time": 29.075,
                "end_time": 29.161363636363635,
                "pitch": 37,
                "velocity": 51,
                "duration": 0.08636363636363598,
                "tempo": 120.0
            },
            {
                "start_time": 29.177272727272726,
                "end_time": 29.28863636363636,
                "pitch": 38,
                "velocity": 51,
                "duration": 0.11136363636363455,
                "tempo": 120.0
            },
            {
                "start_time": 29.304545454545455,
                "end_time": 29.386363636363637,
                "pitch": 50,
                "velocity": 51,
                "duration": 0.08181818181818201,
                "tempo": 120.0
            },
            {
                "start_time": 29.402272727272727,
                "end_time": 29.513636363636362,
                "pitch": 39,
                "velocity": 51,
                "duration": 0.11136363636363455,
                "tempo": 120.0
            },
            {
                "start_time": 29.529545454545453,
                "end_time": 29.60909090909091,
                "pitch": 51,
                "velocity": 51,
                "duration": 0.0795454545454568,
                "tempo": 120.0
            },
            {
                "start_time": 29.625,
                "end_time": 29.847727272727273,
                "pitch": 40,
                "velocity": 51,
                "duration": 0.22272727272727266,
                "tempo": 120.0
            },
            {
                "start_time": 29.863636363636363,
                "end_time": 29.91590909090909,
                "pitch": 40,
                "velocity": 51,
                "duration": 0.052272727272725916,
                "tempo": 120.0
            },
            {
                "start_time": 29.96590909090909,
                "end_time": 30.188636363636363,
                "pitch": 40,
                "velocity": 51,
                "duration": 0.22272727272727266,
                "tempo": 120.0
            },
            {
                "start_time": 30.204545454545453,
                "end_time": 30.254545454545454,
                "pitch": 40,
                "velocity": 51,
                "duration": 0.05000000000000071,
                "tempo": 120.0
            },
            {
                "start_time": 30.33863636363636,
                "end_time": 30.422727272727272,
                "pitch": 50,
                "velocity": 51,
                "duration": 0.08409090909091077,
                "tempo": 120.0
            },
            {
                "start_time": 30.438636363636363,
                "end_time": 30.52272727272727,
                "pitch": 52,
                "velocity": 51,
                "duration": 0.08409090909090722,
                "tempo": 120.0
            },
            {
                "start_time": 30.57272727272727,
                "end_time": 30.62272727272727,
                "pitch": 40,
                "velocity": 51,
                "duration": 0.05000000000000071,
                "tempo": 120.0
            },
            {
                "start_time": 30.672727272727272,
                "end_time": 30.722727272727273,
                "pitch": 40,
                "velocity": 51,
                "duration": 0.05000000000000071,
                "tempo": 120.0
            },
            {
                "start_time": 30.77272727272727,
                "end_time": 30.99090909090909,
                "pitch": 40,
                "velocity": 51,
                "duration": 0.2181818181818187,
                "tempo": 120.0
            },
            {
                "start_time": 31.00681818181818,
                "end_time": 31.054545454545455,
                "pitch": 40,
                "velocity": 51,
                "duration": 0.047727272727275505,
                "tempo": 120.0
            },
            {
                "start_time": 31.134090909090908,
                "end_time": 31.21363636363636,
                "pitch": 50,
                "velocity": 51,
                "duration": 0.07954545454545325,
                "tempo": 120.0
            },
            {
                "start_time": 31.229545454545452,
                "end_time": 31.311363636363634,
                "pitch": 52,
                "velocity": 51,
                "duration": 0.08181818181818201,
                "tempo": 120.0
            },
            {
                "start_time": 31.359090909090906,
                "end_time": 31.438636363636363,
                "pitch": 40,
                "velocity": 51,
                "duration": 0.0795454545454568,
                "tempo": 120.0
            },
            {
                "start_time": 31.454545454545453,
                "end_time": 31.672727272727272,
                "pitch": 40,
                "velocity": 51,
                "duration": 0.2181818181818187,
                "tempo": 120.0
            },
            {
                "start_time": 31.688636363636363,
                "end_time": 31.738636363636363,
                "pitch": 40,
                "velocity": 51,
                "duration": 0.05000000000000071,
                "tempo": 120.0
            },
            {
                "start_time": 31.78863636363636,
                "end_time": 32.00909090909091,
                "pitch": 40,
                "velocity": 51,
                "duration": 0.22045454545454746,
                "tempo": 120.0
            },
            {
                "start_time": 32.025,
                "end_time": 32.07727272727273,
                "pitch": 40,
                "velocity": 51,
                "duration": 0.05227272727272947,
                "tempo": 120.0
            },
            {
                "start_time": 32.16136363636363,
                "end_time": 32.24772727272727,
                "pitch": 50,
                "velocity": 51,
                "duration": 0.08636363636363598,
                "tempo": 120.0
            },
            {
                "start_time": 32.26590909090909,
                "end_time": 32.35,
                "pitch": 52,
                "velocity": 51,
                "duration": 0.08409090909091077,
                "tempo": 120.0
            },
            {
                "start_time": 32.36818181818182,
                "end_time": 32.58181818181818,
                "pitch": 37,
                "velocity": 51,
                "duration": 0.21363636363636118,
                "tempo": 120.0
            },
            {
                "start_time": 32.59772727272727,
                "end_time": 32.711363636363636,
                "pitch": 49,
                "velocity": 51,
                "duration": 0.11363636363636687,
                "tempo": 120.0
            },
            {
                "start_time": 32.72727272727273,
                "end_time": 32.809090909090905,
                "pitch": 37,
                "velocity": 51,
                "duration": 0.08181818181817846,
                "tempo": 120.0
            },
            {
                "start_time": 32.824999999999996,
                "end_time": 32.90909090909091,
                "pitch": 38,
                "velocity": 51,
                "duration": 0.08409090909091077,
                "tempo": 120.0
            },
            {
                "start_time": 32.95909090909091,
                "end_time": 33.043181818181814,
                "pitch": 50,
                "velocity": 51,
                "duration": 0.08409090909090366,
                "tempo": 120.0
            },
            {
                "start_time": 33.059090909090905,
                "end_time": 33.143181818181816,
                "pitch": 39,
                "velocity": 51,
                "duration": 0.08409090909091077,
                "tempo": 120.0
            },
            {
                "start_time": 33.15909090909091,
                "end_time": 33.277272727272724,
                "pitch": 51,
                "velocity": 51,
                "duration": 0.11818181818181728,
                "tempo": 120.0
            },
            {
                "start_time": 33.293181818181814,
                "end_time": 33.51136363636363,
                "pitch": 40,
                "velocity": 51,
                "duration": 0.2181818181818187,
                "tempo": 120.0
            },
            {
                "start_time": 33.527272727272724,
                "end_time": 33.57727272727273,
                "pitch": 40,
                "velocity": 51,
                "duration": 0.05000000000000426,
                "tempo": 120.0
            },
            {
                "start_time": 33.627272727272725,
                "end_time": 33.845454545454544,
                "pitch": 40,
                "velocity": 51,
                "duration": 0.2181818181818187,
                "tempo": 120.0
            },
            {
                "start_time": 33.861363636363635,
                "end_time": 33.913636363636364,
                "pitch": 40,
                "velocity": 51,
                "duration": 0.05227272727272947,
                "tempo": 120.0
            },
            {
                "start_time": 33.96363636363636,
                "end_time": 34.07954545454545,
                "pitch": 50,
                "velocity": 51,
                "duration": 0.11590909090909207,
                "tempo": 120.0
            },
            {
                "start_time": 34.095454545454544,
                "end_time": 34.179545454545455,
                "pitch": 52,
                "velocity": 51,
                "duration": 0.08409090909091077,
                "tempo": 120.0
            },
            {
                "start_time": 34.19772727272727,
                "end_time": 34.24545454545454,
                "pitch": 40,
                "velocity": 51,
                "duration": 0.04772727272727195,
                "tempo": 120.0
            },
            {
                "start_time": 34.324999999999996,
                "end_time": 34.37272727272727,
                "pitch": 40,
                "velocity": 51,
                "duration": 0.04772727272727195,
                "tempo": 120.0
            },
            {
                "start_time": 34.42045454545455,
                "end_time": 34.627272727272725,
                "pitch": 40,
                "velocity": 51,
                "duration": 0.20681818181817846,
                "tempo": 120.0
            },
            {
                "start_time": 34.64545454545454,
                "end_time": 34.695454545454545,
                "pitch": 40,
                "velocity": 51,
                "duration": 0.05000000000000426,
                "tempo": 120.0
            },
            {
                "start_time": 34.74545454545454,
                "end_time": 34.861363636363635,
                "pitch": 50,
                "velocity": 51,
                "duration": 0.11590909090909207,
                "tempo": 120.0
            },
            {
                "start_time": 34.87954545454545,
                "end_time": 34.961363636363636,
                "pitch": 52,
                "velocity": 51,
                "duration": 0.08181818181818556,
                "tempo": 120.0
            },
            {
                "start_time": 34.97954545454545,
                "end_time": 35.095454545454544,
                "pitch": 40,
                "velocity": 51,
                "duration": 0.11590909090909207,
                "tempo": 120.0
            },
            {
                "start_time": 35.11363636363636,
                "end_time": 35.3,
                "pitch": 40,
                "velocity": 51,
                "duration": 0.1863636363636374,
                "tempo": 120.0
            },
            {
                "start_time": 35.35227272727273,
                "end_time": 35.404545454545456,
                "pitch": 40,
                "velocity": 51,
                "duration": 0.05227272727272947,
                "tempo": 120.0
            },
            {
                "start_time": 35.45454545454545,
                "end_time": 35.67045454545455,
                "pitch": 40,
                "velocity": 51,
                "duration": 0.2159090909090935,
                "tempo": 120.0
            },
            {
                "start_time": 35.68636363636364,
                "end_time": 35.73409090909091,
                "pitch": 40,
                "velocity": 51,
                "duration": 0.04772727272727195,
                "tempo": 120.0
            },
            {
                "start_time": 35.78181818181818,
                "end_time": 35.893181818181816,
                "pitch": 50,
                "velocity": 51,
                "duration": 0.11136363636363455,
                "tempo": 120.0
            },
            {
                "start_time": 35.90909090909091,
                "end_time": 35.98863636363636,
                "pitch": 52,
                "velocity": 51,
                "duration": 0.07954545454545325,
                "tempo": 120.0
            },
            {
                "start_time": 36.00454545454545,
                "end_time": 36.22727272727273,
                "pitch": 37,
                "velocity": 51,
                "duration": 0.22272727272727622,
                "tempo": 120.0
            },
            {
                "start_time": 36.24545454545454,
                "end_time": 36.32954545454545,
                "pitch": 49,
                "velocity": 51,
                "duration": 0.08409090909091077,
                "tempo": 120.0
            },
            {
                "start_time": 36.34772727272727,
                "end_time": 36.465909090909086,
                "pitch": 37,
                "velocity": 51,
                "duration": 0.11818181818181728,
                "tempo": 120.0
            },
            {
                "start_time": 36.48409090909091,
                "end_time": 36.56818181818181,
                "pitch": 38,
                "velocity": 51,
                "duration": 0.08409090909090366,
                "tempo": 120.0
            },
            {
                "start_time": 36.58409090909091,
                "end_time": 36.70227272727273,
                "pitch": 50,
                "velocity": 51,
                "duration": 0.11818181818181728,
                "tempo": 120.0
            },
            {
                "start_time": 36.71818181818182,
                "end_time": 36.80227272727272,
                "pitch": 39,
                "velocity": 51,
                "duration": 0.08409090909090366,
                "tempo": 120.0
            },
            {
                "start_time": 36.81818181818181,
                "end_time": 36.902272727272724,
                "pitch": 51,
                "velocity": 51,
                "duration": 0.08409090909091077,
                "tempo": 120.0
            },
            {
                "start_time": 36.95227272727273,
                "end_time": 37.13636363636363,
                "pitch": 40,
                "velocity": 51,
                "duration": 0.18409090909090509,
                "tempo": 120.0
            },
            {
                "start_time": 37.152272727272724,
                "end_time": 37.236363636363635,
                "pitch": 40,
                "velocity": 51,
                "duration": 0.08409090909091077,
                "tempo": 120.0
            },
            {
                "start_time": 37.28636363636363,
                "end_time": 37.49772727272727,
                "pitch": 40,
                "velocity": 51,
                "duration": 0.21136363636363598,
                "tempo": 120.0
            },
            {
                "start_time": 37.51590909090909,
                "end_time": 37.56363636363636,
                "pitch": 40,
                "velocity": 51,
                "duration": 0.04772727272727195,
                "tempo": 120.0
            },
            {
                "start_time": 37.611363636363635,
                "end_time": 37.69090909090909,
                "pitch": 50,
                "velocity": 51,
                "duration": 0.07954545454545325,
                "tempo": 120.0
            },
            {
                "start_time": 37.73863636363636,
                "end_time": 37.81818181818181,
                "pitch": 52,
                "velocity": 51,
                "duration": 0.07954545454545325,
                "tempo": 120.0
            },
            {
                "start_time": 37.83409090909091,
                "end_time": 37.88409090909091,
                "pitch": 40,
                "velocity": 51,
                "duration": 0.04999999999999716,
                "tempo": 120.0
            },
            {
                "start_time": 37.934090909090905,
                "end_time": 38.018181818181816,
                "pitch": 40,
                "velocity": 51,
                "duration": 0.08409090909091077,
                "tempo": 120.0
            },
            {
                "start_time": 38.06818181818181,
                "end_time": 38.28636363636363,
                "pitch": 40,
                "velocity": 51,
                "duration": 0.2181818181818187,
                "tempo": 120.0
            },
            {
                "start_time": 38.30227272727272,
                "end_time": 38.35454545454545,
                "pitch": 40,
                "velocity": 51,
                "duration": 0.05227272727272947,
                "tempo": 120.0
            },
            {
                "start_time": 38.404545454545456,
                "end_time": 38.49090909090909,
                "pitch": 50,
                "velocity": 51,
                "duration": 0.08636363636363598,
                "tempo": 120.0
            },
            {
                "start_time": 38.543181818181814,
                "end_time": 38.627272727272725,
                "pitch": 52,
                "velocity": 51,
                "duration": 0.08409090909091077,
                "tempo": 120.0
            },
            {
                "start_time": 38.64545454545454,
                "end_time": 38.73181818181818,
                "pitch": 40,
                "velocity": 51,
                "duration": 0.08636363636363598,
                "tempo": 120.0
            },
            {
                "start_time": 38.74772727272727,
                "end_time": 38.95681818181818,
                "pitch": 40,
                "velocity": 51,
                "duration": 0.20909090909091077,
                "tempo": 120.0
            },
            {
                "start_time": 38.97272727272727,
                "end_time": 39.02045454545454,
                "pitch": 40,
                "velocity": 51,
                "duration": 0.04772727272727195,
                "tempo": 120.0
            },
            {
                "start_time": 39.1,
                "end_time": 39.279545454545456,
                "pitch": 40,
                "velocity": 51,
                "duration": 0.17954545454545467,
                "tempo": 120.0
            },
            {
                "start_time": 39.32954545454545,
                "end_time": 39.37954545454545,
                "pitch": 40,
                "velocity": 51,
                "duration": 0.04999999999999716,
                "tempo": 120.0
            },
            {
                "start_time": 39.429545454545455,
                "end_time": 39.51363636363636,
                "pitch": 50,
                "velocity": 51,
                "duration": 0.08409090909090366,
                "tempo": 120.0
            },
            {
                "start_time": 39.529545454545456,
                "end_time": 39.64772727272727,
                "pitch": 52,
                "velocity": 51,
                "duration": 0.11818181818181728,
                "tempo": 120.0
            },
            {
                "start_time": 39.663636363636364,
                "end_time": 39.88636363636363,
                "pitch": 37,
                "velocity": 51,
                "duration": 0.2227272727272691,
                "tempo": 120.0
            },
            {
                "start_time": 39.904545454545456,
                "end_time": 39.98863636363636,
                "pitch": 49,
                "velocity": 51,
                "duration": 0.08409090909090366,
                "tempo": 120.0
            },
            {
                "start_time": 40.00681818181818,
                "end_time": 40.090909090909086,
                "pitch": 37,
                "velocity": 51,
                "duration": 0.08409090909090366,
                "tempo": 120.0
            },
            {
                "start_time": 40.143181818181816,
                "end_time": 40.22727272727273,
                "pitch": 38,
                "velocity": 51,
                "duration": 0.08409090909091077,
                "tempo": 120.0
            },
            {
                "start_time": 40.24318181818182,
                "end_time": 40.32727272727273,
                "pitch": 50,
                "velocity": 51,
                "duration": 0.08409090909091077,
                "tempo": 120.0
            },
            {
                "start_time": 40.34318181818182,
                "end_time": 40.461363636363636,
                "pitch": 39,
                "velocity": 51,
                "duration": 0.11818181818181728,
                "tempo": 120.0
            },
            {
                "start_time": 40.47727272727273,
                "end_time": 40.56136363636364,
                "pitch": 51,
                "velocity": 51,
                "duration": 0.08409090909091077,
                "tempo": 120.0
            },
            {
                "start_time": 40.57727272727273,
                "end_time": 40.79090909090909,
                "pitch": 40,
                "velocity": 51,
                "duration": 0.21363636363636118,
                "tempo": 120.0
            },
            {
                "start_time": 40.80681818181818,
                "end_time": 40.85681818181818,
                "pitch": 40,
                "velocity": 51,
                "duration": 0.04999999999999716,
                "tempo": 120.0
            },
            {
                "start_time": 40.93636363636364,
                "end_time": 41.11818181818182,
                "pitch": 40,
                "velocity": 51,
                "duration": 0.18181818181817988,
                "tempo": 120.0
            },
            {
                "start_time": 41.13636363636363,
                "end_time": 41.21818181818182,
                "pitch": 40,
                "velocity": 51,
                "duration": 0.08181818181818556,
                "tempo": 120.0
            },
            {
                "start_time": 41.27045454545454,
                "end_time": 41.35227272727273,
                "pitch": 50,
                "velocity": 51,
                "duration": 0.08181818181818556,
                "tempo": 120.0
            },
            {
                "start_time": 41.37045454545454,
                "end_time": 41.486363636363635,
                "pitch": 52,
                "velocity": 51,
                "duration": 0.11590909090909207,
                "tempo": 120.0
            },
            {
                "start_time": 41.50454545454545,
                "end_time": 41.554545454545455,
                "pitch": 40,
                "velocity": 51,
                "duration": 0.05000000000000426,
                "tempo": 120.0
            },
            {
                "start_time": 41.60454545454545,
                "end_time": 41.65454545454545,
                "pitch": 40,
                "velocity": 51,
                "duration": 0.04999999999999716,
                "tempo": 120.0
            },
            {
                "start_time": 41.73863636363636,
                "end_time": 41.92045454545455,
                "pitch": 40,
                "velocity": 51,
                "duration": 0.18181818181818699,
                "tempo": 120.0
            },
            {
                "start_time": 41.93863636363636,
                "end_time": 42.018181818181816,
                "pitch": 40,
                "velocity": 51,
                "duration": 0.07954545454545325,
                "tempo": 120.0
            },
            {
                "start_time": 42.06590909090909,
                "end_time": 42.14545454545454,
                "pitch": 50,
                "velocity": 51,
                "duration": 0.07954545454545325,
                "tempo": 120.0
            },
            {
                "start_time": 42.16136363636363,
                "end_time": 42.275,
                "pitch": 52,
                "velocity": 51,
                "duration": 0.11363636363636687,
                "tempo": 120.0
            },
            {
                "start_time": 42.29090909090909,
                "end_time": 42.37045454545454,
                "pitch": 40,
                "velocity": 51,
                "duration": 0.07954545454545325,
                "tempo": 120.0
            },
            {
                "start_time": 42.38636363636363,
                "end_time": 42.60227272727273,
                "pitch": 40,
                "velocity": 51,
                "duration": 0.2159090909090935,
                "tempo": 120.0
            },
            {
                "start_time": 42.62045454545454,
                "end_time": 42.67045454545455,
                "pitch": 40,
                "velocity": 51,
                "duration": 0.05000000000000426,
                "tempo": 120.0
            },
            {
                "start_time": 42.720454545454544,
                "end_time": 42.93863636363636,
                "pitch": 40,
                "velocity": 51,
                "duration": 0.2181818181818187,
                "tempo": 120.0
            },
            {
                "start_time": 42.95681818181818,
                "end_time": 43.00909090909091,
                "pitch": 40,
                "velocity": 51,
                "duration": 0.05227272727272947,
                "tempo": 120.0
            },
            {
                "start_time": 43.09318181818182,
                "end_time": 43.179545454545455,
                "pitch": 50,
                "velocity": 51,
                "duration": 0.08636363636363598,
                "tempo": 120.0
            },
            {
                "start_time": 43.195454545454545,
                "end_time": 43.28181818181818,
                "pitch": 52,
                "velocity": 51,
                "duration": 0.08636363636363598,
                "tempo": 120.0
            },
            {
                "start_time": 43.334090909090904,
                "end_time": 43.518181818181816,
                "pitch": 37,
                "velocity": 51,
                "duration": 0.1840909090909122,
                "tempo": 120.0
            },
            {
                "start_time": 43.53409090909091,
                "end_time": 43.65,
                "pitch": 49,
                "velocity": 51,
                "duration": 0.11590909090909207,
                "tempo": 120.0
            },
            {
                "start_time": 43.668181818181814,
                "end_time": 43.752272727272725,
                "pitch": 37,
                "velocity": 51,
                "duration": 0.08409090909091077,
                "tempo": 120.0
            },
            {
                "start_time": 43.768181818181816,
                "end_time": 43.87954545454545,
                "pitch": 38,
                "velocity": 51,
                "duration": 0.11136363636363455,
                "tempo": 120.0
            },
            {
                "start_time": 43.89545454545454,
                "end_time": 43.974999999999994,
                "pitch": 50,
                "velocity": 51,
                "duration": 0.07954545454545325,
                "tempo": 120.0
            },
            {
                "start_time": 43.99090909090909,
                "end_time": 44.070454545454545,
                "pitch": 39,
                "velocity": 51,
                "duration": 0.07954545454545325,
                "tempo": 120.0
            },
            {
                "start_time": 44.12045454545454,
                "end_time": 44.199999999999996,
                "pitch": 51,
                "velocity": 51,
                "duration": 0.07954545454545325,
                "tempo": 120.0
            },
            {
                "start_time": 44.215909090909086,
                "end_time": 44.30227272727272,
                "pitch": 42,
                "velocity": 51,
                "duration": 0.08636363636363598,
                "tempo": 120.0
            },
            {
                "start_time": 45.03181818181818,
                "end_time": 45.11363636363636,
                "pitch": 52,
                "velocity": 51,
                "duration": 0.08181818181817846,
                "tempo": 120.0
            },
            {
                "start_time": 45.12954545454545,
                "end_time": 45.24090909090909,
                "pitch": 54,
                "velocity": 51,
                "duration": 0.11136363636364166,
                "tempo": 120.0
            },
            {
                "start_time": 45.25681818181818,
                "end_time": 45.336363636363636,
                "pitch": 47,
                "velocity": 51,
                "duration": 0.07954545454545325,
                "tempo": 120.0
            },
            {
                "start_time": 45.35227272727273,
                "end_time": 45.465909090909086,
                "pitch": 47,
                "velocity": 51,
                "duration": 0.11363636363635976,
                "tempo": 120.0
            },
            {
                "start_time": 45.48181818181818,
                "end_time": 45.56136363636364,
                "pitch": 49,
                "velocity": 51,
                "duration": 0.07954545454546036,
                "tempo": 120.0
            },
            {
                "start_time": 45.57727272727273,
                "end_time": 45.66136363636363,
                "pitch": 45,
                "velocity": 51,
                "duration": 0.08409090909090366,
                "tempo": 120.0
            },
            {
                "start_time": 45.711363636363636,
                "end_time": 45.79545454545455,
                "pitch": 47,
                "velocity": 51,
                "duration": 0.08409090909091077,
                "tempo": 120.0
            },
            {
                "start_time": 45.81136363636364,
                "end_time": 45.89545454545454,
                "pitch": 40,
                "velocity": 51,
                "duration": 0.08409090909090366,
                "tempo": 120.0
            },
            {
                "start_time": 45.91136363636363,
                "end_time": 46.02954545454545,
                "pitch": 42,
                "velocity": 51,
                "duration": 0.11818181818181728,
                "tempo": 120.0
            },
            {
                "start_time": 46.959090909090904,
                "end_time": 47.17272727272727,
                "pitch": 42,
                "velocity": 51,
                "duration": 0.2136363636363683,
                "tempo": 120.0
            },
            {
                "start_time": 47.18863636363636,
                "end_time": 47.5,
                "pitch": 42,
                "velocity": 51,
                "duration": 0.3113636363636374,
                "tempo": 120.0
            },
            {
                "start_time": 47.518181818181816,
                "end_time": 47.86818181818182,
                "pitch": 41,
                "velocity": 51,
                "duration": 0.3500000000000014,
                "tempo": 120.0
            },
            {
                "start_time": 47.88409090909091,
                "end_time": 48.20227272727273,
                "pitch": 40,
                "velocity": 51,
                "duration": 0.3181818181818201,
                "tempo": 120.0
            },
            {
                "start_time": 48.220454545454544,
                "end_time": 48.30227272727272,
                "pitch": 40,
                "velocity": 51,
                "duration": 0.08181818181817846,
                "tempo": 120.0
            },
            {
                "start_time": 48.768181818181816,
                "end_time": 48.85227272727273,
                "pitch": 40,
                "velocity": 51,
                "duration": 0.08409090909091077,
                "tempo": 120.0
            },
            {
                "start_time": 48.90454545454545,
                "end_time": 48.98863636363636,
                "pitch": 40,
                "velocity": 51,
                "duration": 0.08409090909091077,
                "tempo": 120.0
            },
            {
                "start_time": 49.00681818181818,
                "end_time": 49.22954545454545,
                "pitch": 40,
                "velocity": 51,
                "duration": 0.2227272727272691,
                "tempo": 120.0
            },
            {
                "start_time": 49.24545454545454,
                "end_time": 49.33181818181818,
                "pitch": 40,
                "velocity": 51,
                "duration": 0.08636363636363598,
                "tempo": 120.0
            },
            {
                "start_time": 49.34772727272727,
                "end_time": 49.570454545454545,
                "pitch": 40,
                "velocity": 51,
                "duration": 0.22272727272727622,
                "tempo": 120.0
            },
            {
                "start_time": 49.58863636363636,
                "end_time": 49.675,
                "pitch": 40,
                "velocity": 51,
                "duration": 0.08636363636363598,
                "tempo": 120.0
            },
            {
                "start_time": 49.724999999999994,
                "end_time": 49.80681818181818,
                "pitch": 50,
                "velocity": 51,
                "duration": 0.08181818181818556,
                "tempo": 120.0
            },
            {
                "start_time": 49.82272727272727,
                "end_time": 49.90454545454545,
                "pitch": 52,
                "velocity": 51,
                "duration": 0.08181818181817846,
                "tempo": 120.0
            },
            {
                "start_time": 49.92045454545454,
                "end_time": 50.03636363636363,
                "pitch": 40,
                "velocity": 51,
                "duration": 0.11590909090909207,
                "tempo": 120.0
            },
            {
                "start_time": 50.05227272727272,
                "end_time": 50.26136363636363,
                "pitch": 40,
                "velocity": 51,
                "duration": 0.20909090909091077,
                "tempo": 120.0
            },
            {
                "start_time": 50.277272727272724,
                "end_time": 50.35681818181818,
                "pitch": 40,
                "velocity": 51,
                "duration": 0.07954545454545325,
                "tempo": 120.0
            },
            {
                "start_time": 50.37272727272727,
                "end_time": 50.45454545454545,
                "pitch": 50,
                "velocity": 51,
                "duration": 0.08181818181818556,
                "tempo": 120.0
            },
            {
                "start_time": 50.502272727272725,
                "end_time": 50.58181818181818,
                "pitch": 52,
                "velocity": 51,
                "duration": 0.07954545454545325,
                "tempo": 120.0
            },
            {
                "start_time": 50.59772727272727,
                "end_time": 50.820454545454545,
                "pitch": 40,
                "velocity": 51,
                "duration": 0.22272727272727622,
                "tempo": 120.0
            },
            {
                "start_time": 50.836363636363636,
                "end_time": 50.92272727272727,
                "pitch": 40,
                "velocity": 51,
                "duration": 0.08636363636363598,
                "tempo": 120.0
            },
            {
                "start_time": 50.93863636363636,
                "end_time": 51.15909090909091,
                "pitch": 40,
                "velocity": 51,
                "duration": 0.2204545454545439,
                "tempo": 120.0
            },
            {
                "start_time": 51.17727272727272,
                "end_time": 51.25909090909091,
                "pitch": 40,
                "velocity": 51,
                "duration": 0.08181818181818556,
                "tempo": 120.0
            },
            {
                "start_time": 51.31136363636364,
                "end_time": 51.393181818181816,
                "pitch": 50,
                "velocity": 51,
                "duration": 0.08181818181817846,
                "tempo": 120.0
            },
            {
                "start_time": 51.41136363636363,
                "end_time": 51.49318181818182,
                "pitch": 52,
                "velocity": 51,
                "duration": 0.08181818181818556,
                "tempo": 120.0
            },
            {
                "start_time": 51.51136363636363,
                "end_time": 51.84772727272727,
                "pitch": 50,
                "velocity": 51,
                "duration": 0.336363636363636,
                "tempo": 120.0
            },
            {
                "start_time": 51.86363636363636,
                "end_time": 51.94318181818181,
                "pitch": 50,
                "velocity": 51,
                "duration": 0.07954545454545325,
                "tempo": 120.0
            },
            {
                "start_time": 52.42727272727272,
                "end_time": 52.51136363636363,
                "pitch": 55,
                "velocity": 51,
                "duration": 0.08409090909091077,
                "tempo": 120.0
            },
            {
                "start_time": 52.52954545454545,
                "end_time": 52.65,
                "pitch": 57,
                "velocity": 51,
                "duration": 0.12045454545454959,
                "tempo": 120.0
            },
            {
                "start_time": 52.66590909090909,
                "end_time": 52.752272727272725,
                "pitch": 40,
                "velocity": 51,
                "duration": 0.08636363636363598,
                "tempo": 120.0
            },
            {
                "start_time": 52.768181818181816,
                "end_time": 52.85454545454545,
                "pitch": 40,
                "velocity": 51,
                "duration": 0.08636363636363598,
                "tempo": 120.0
            },
            {
                "start_time": 52.90681818181818,
                "end_time": 52.98863636363636,
                "pitch": 48,
                "velocity": 51,
                "duration": 0.08181818181817846,
                "tempo": 120.0
            },
            {
                "start_time": 53.00681818181818,
                "end_time": 53.08863636363636,
                "pitch": 60,
                "velocity": 51,
                "duration": 0.08181818181817846,
                "tempo": 120.0
            },
            {
                "start_time": 53.10681818181818,
                "end_time": 53.32272727272727,
                "pitch": 48,
                "velocity": 51,
                "duration": 0.2159090909090935,
                "tempo": 120.0
            },
            {
                "start_time": 53.340909090909086,
                "end_time": 53.54772727272727,
                "pitch": 50,
                "velocity": 51,
                "duration": 0.20681818181818556,
                "tempo": 120.0
            },
            {
                "start_time": 53.56363636363636,
                "end_time": 53.77272727272727,
                "pitch": 62,
                "velocity": 51,
                "duration": 0.20909090909091077,
                "tempo": 120.0
            },
            {
                "start_time": 53.788636363636364,
                "end_time": 54.00454545454545,
                "pitch": 50,
                "velocity": 51,
                "duration": 0.2159090909090864,
                "tempo": 120.0
            },
            {
                "start_time": 54.02272727272727,
                "end_time": 54.23863636363636,
                "pitch": 62,
                "velocity": 51,
                "duration": 0.2159090909090864,
                "tempo": 120.0
            },
            {
                "start_time": 54.25681818181818,
                "end_time": 54.44090909090909,
                "pitch": 50,
                "velocity": 51,
                "duration": 0.18409090909090509,
                "tempo": 120.0
            },
            {
                "start_time": 54.490909090909085,
                "end_time": 54.675,
                "pitch": 62,
                "velocity": 51,
                "duration": 0.1840909090909122,
                "tempo": 120.0
            },
            {
                "start_time": 54.69090909090909,
                "end_time": 54.90454545454545,
                "pitch": 50,
                "velocity": 51,
                "duration": 0.21363636363636118,
                "tempo": 120.0
            },
            {
                "start_time": 54.92045454545454,
                "end_time": 55.131818181818176,
                "pitch": 62,
                "velocity": 51,
                "duration": 0.21136363636363598,
                "tempo": 120.0
            },
            {
                "start_time": 55.14772727272727,
                "end_time": 55.365909090909085,
                "pitch": 48,
                "velocity": 51,
                "duration": 0.2181818181818116,
                "tempo": 120.0
            },
            {
                "start_time": 55.381818181818176,
                "end_time": 55.465909090909086,
                "pitch": 60,
                "velocity": 51,
                "duration": 0.08409090909091077,
                "tempo": 120.0
            },
            {
                "start_time": 55.48409090909091,
                "end_time": 55.599999999999994,
                "pitch": 48,
                "velocity": 51,
                "duration": 0.11590909090908497,
                "tempo": 120.0
            },
            {
                "start_time": 55.615909090909085,
                "end_time": 55.70227272727273,
                "pitch": 48,
                "velocity": 51,
                "duration": 0.08636363636364308,
                "tempo": 120.0
            },
            {
                "start_time": 55.720454545454544,
                "end_time": 55.83863636363636,
                "pitch": 60,
                "velocity": 51,
                "duration": 0.11818181818181728,
                "tempo": 120.0
            },
            {
                "start_time": 55.85681818181818,
                "end_time": 55.94318181818181,
                "pitch": 48,
                "velocity": 51,
                "duration": 0.08636363636363598,
                "tempo": 120.0
            },
            {
                "start_time": 55.959090909090904,
                "end_time": 56.04545454545454,
                "pitch": 48,
                "velocity": 51,
                "duration": 0.08636363636363598,
                "tempo": 120.0
            },
            {
                "start_time": 56.095454545454544,
                "end_time": 56.27954545454545,
                "pitch": 50,
                "velocity": 51,
                "duration": 0.18409090909090509,
                "tempo": 120.0
            },
            {
                "start_time": 56.29772727272727,
                "end_time": 56.413636363636364,
                "pitch": 62,
                "velocity": 51,
                "duration": 0.11590909090909207,
                "tempo": 120.0
            },
            {
                "start_time": 56.429545454545455,
                "end_time": 56.51363636363636,
                "pitch": 50,
                "velocity": 51,
                "duration": 0.08409090909090366,
                "tempo": 120.0
            },
            {
                "start_time": 56.53181818181818,
                "end_time": 56.643181818181816,
                "pitch": 50,
                "velocity": 51,
                "duration": 0.11136363636363455,
                "tempo": 120.0
            },
            {
                "start_time": 56.65909090909091,
                "end_time": 56.73863636363636,
                "pitch": 62,
                "velocity": 51,
                "duration": 0.07954545454545325,
                "tempo": 120.0
            },
            {
                "start_time": 56.75454545454545,
                "end_time": 56.834090909090904,
                "pitch": 50,
                "velocity": 51,
                "duration": 0.07954545454545325,
                "tempo": 120.0
            },
            {
                "start_time": 56.881818181818176,
                "end_time": 56.961363636363636,
                "pitch": 50,
                "velocity": 51,
                "duration": 0.07954545454546036,
                "tempo": 120.0
            },
            {
                "start_time": 56.97727272727273,
                "end_time": 57.199999999999996,
                "pitch": 52,
                "velocity": 51,
                "duration": 0.2227272727272691,
                "tempo": 120.0
            },
            {
                "start_time": 57.21818181818182,
                "end_time": 57.30227272727272,
                "pitch": 64,
                "velocity": 51,
                "duration": 0.08409090909090366,
                "tempo": 120.0
            },
            {
                "start_time": 57.320454545454545,
                "end_time": 57.44090909090909,
                "pitch": 52,
                "velocity": 51,
                "duration": 0.12045454545454248,
                "tempo": 120.0
            },
            {
                "start_time": 57.45681818181818,
                "end_time": 57.54090909090909,
                "pitch": 52,
                "velocity": 51,
                "duration": 0.08409090909091077,
                "tempo": 120.0
            },
            {
                "start_time": 57.55681818181818,
                "end_time": 57.64090909090909,
                "pitch": 64,
                "velocity": 51,
                "duration": 0.08409090909091077,
                "tempo": 120.0
            },
            {
                "start_time": 57.69090909090909,
                "end_time": 57.775,
                "pitch": 52,
                "velocity": 51,
                "duration": 0.08409090909091077,
                "tempo": 120.0
            },
            {
                "start_time": 57.79090909090909,
                "end_time": 57.875,
                "pitch": 52,
                "velocity": 51,
                "duration": 0.08409090909091077,
                "tempo": 120.0
            },
            {
                "start_time": 57.89090909090909,
                "end_time": 58.099999999999994,
                "pitch": 41,
                "velocity": 51,
                "duration": 0.20909090909090366,
                "tempo": 120.0
            },
            {
                "start_time": 58.115909090909085,
                "end_time": 58.32272727272727,
                "pitch": 53,
                "velocity": 51,
                "duration": 0.20681818181818556,
                "tempo": 120.0
            },
            {
                "start_time": 58.33863636363636,
                "end_time": 58.56136363636363,
                "pitch": 41,
                "velocity": 51,
                "duration": 0.2227272727272691,
                "tempo": 120.0
            },
            {
                "start_time": 58.57954545454545,
                "end_time": 58.8,
                "pitch": 53,
                "velocity": 51,
                "duration": 0.2204545454545439,
                "tempo": 120.0
            },
            {
                "start_time": 58.81818181818181,
                "end_time": 58.902272727272724,
                "pitch": 42,
                "velocity": 51,
                "duration": 0.08409090909091077,
                "tempo": 120.0
            },
            {
                "start_time": 59.62045454545454,
                "end_time": 59.70454545454545,
                "pitch": 52,
                "velocity": 51,
                "duration": 0.08409090909091077,
                "tempo": 120.0
            },
            {
                "start_time": 59.720454545454544,
                "end_time": 59.83181818181818,
                "pitch": 54,
                "velocity": 51,
                "duration": 0.11136363636363455,
                "tempo": 120.0
            },
            {
                "start_time": 59.84772727272727,
                "end_time": 59.929545454545455,
                "pitch": 47,
                "velocity": 51,
                "duration": 0.08181818181818556,
                "tempo": 120.0
            },
            {
                "start_time": 59.945454545454545,
                "end_time": 60.025,
                "pitch": 47,
                "velocity": 51,
                "duration": 0.07954545454545325,
                "tempo": 120.0
            },
            {
                "start_time": 60.07272727272727,
                "end_time": 60.152272727272724,
                "pitch": 49,
                "velocity": 51,
                "duration": 0.07954545454545325,
                "tempo": 120.0
            },
            {
                "start_time": 60.168181818181814,
                "end_time": 60.25454545454545,
                "pitch": 45,
                "velocity": 51,
                "duration": 0.08636363636363598,
                "tempo": 120.0
            },
            {
                "start_time": 60.27045454545454,
                "end_time": 60.39090909090909,
                "pitch": 47,
                "velocity": 51,
                "duration": 0.12045454545454959,
                "tempo": 120.0
            },
            {
                "start_time": 60.40681818181818,
                "end_time": 60.49318181818182,
                "pitch": 40,
                "velocity": 51,
                "duration": 0.08636363636363598,
                "tempo": 120.0
            },
            {
                "start_time": 60.51136363636363,
                "end_time": 60.62954545454545,
                "pitch": 42,
                "velocity": 51,
                "duration": 0.11818181818181728,
                "tempo": 120.0
            },
            {
                "start_time": 61.52954545454545,
                "end_time": 61.752272727272725,
                "pitch": 42,
                "velocity": 51,
                "duration": 0.22272727272727622,
                "tempo": 120.0
            },
            {
                "start_time": 61.768181818181816,
                "end_time": 62.090909090909086,
                "pitch": 42,
                "velocity": 51,
                "duration": 0.32272727272727053,
                "tempo": 120.0
            },
            {
                "start_time": 62.10909090909091,
                "end_time": 62.42727272727272,
                "pitch": 41,
                "velocity": 51,
                "duration": 0.318181818181813,
                "tempo": 120.0
            },
            {
                "start_time": 62.47727272727273,
                "end_time": 62.793181818181814,
                "pitch": 40,
                "velocity": 51,
                "duration": 0.3159090909090878,
                "tempo": 120.0
            },
            {
                "start_time": 62.81136363636363,
                "end_time": 62.89545454545454,
                "pitch": 40,
                "velocity": 51,
                "duration": 0.08409090909091077,
                "tempo": 120.0
            },
            {
                "start_time": 63.35909090909091,
                "end_time": 63.44318181818181,
                "pitch": 40,
                "velocity": 51,
                "duration": 0.08409090909090366,
                "tempo": 120.0
            },
            {
                "start_time": 63.461363636363636,
                "end_time": 63.58181818181818,
                "pitch": 40,
                "velocity": 51,
                "duration": 0.12045454545454248,
                "tempo": 120.0
            },
            {
                "start_time": 63.59772727272727,
                "end_time": 63.820454545454545,
                "pitch": 40,
                "velocity": 51,
                "duration": 0.22272727272727622,
                "tempo": 120.0
            },
            {
                "start_time": 63.83863636363636,
                "end_time": 63.92272727272727,
                "pitch": 40,
                "velocity": 51,
                "duration": 0.08409090909091077,
                "tempo": 120.0
            },
            {
                "start_time": 63.94090909090909,
                "end_time": 64.16363636363636,
                "pitch": 40,
                "velocity": 51,
                "duration": 0.2227272727272691,
                "tempo": 120.0
            },
            {
                "start_time": 64.17954545454545,
                "end_time": 64.26590909090909,
                "pitch": 40,
                "velocity": 51,
                "duration": 0.08636363636364308,
                "tempo": 120.0
            },
            {
                "start_time": 64.28181818181818,
                "end_time": 64.39318181818182,
                "pitch": 50,
                "velocity": 51,
                "duration": 0.11136363636363455,
                "tempo": 120.0
            },
            {
                "start_time": 64.4090909090909,
                "end_time": 64.48636363636363,
                "pitch": 52,
                "velocity": 51,
                "duration": 0.07727272727272805,
                "tempo": 120.0
            },
            {
                "start_time": 64.50227272727273,
                "end_time": 64.61136363636363,
                "pitch": 40,
                "velocity": 51,
                "duration": 0.10909090909090935,
                "tempo": 120.0
            },
            {
                "start_time": 64.62727272727273,
                "end_time": 64.80454545454545,
                "pitch": 40,
                "velocity": 51,
                "duration": 0.17727272727272236,
                "tempo": 120.0
            },
            {
                "start_time": 64.85454545454544,
                "end_time": 64.93863636363636,
                "pitch": 40,
                "velocity": 51,
                "duration": 0.08409090909091788,
                "tempo": 120.0
            },
            {
                "start_time": 64.95454545454545,
                "end_time": 65.03863636363636,
                "pitch": 50,
                "velocity": 51,
                "duration": 0.08409090909090366,
                "tempo": 120.0
            },
            {
                "start_time": 65.05454545454545,
                "end_time": 65.17272727272727,
                "pitch": 52,
                "velocity": 51,
                "duration": 0.11818181818182438,
                "tempo": 120.0
            },
            {
                "start_time": 65.18863636363636,
                "end_time": 65.41136363636363,
                "pitch": 40,
                "velocity": 51,
                "duration": 0.2227272727272691,
                "tempo": 120.0
            },
            {
                "start_time": 65.42954545454545,
                "end_time": 65.51363636363637,
                "pitch": 40,
                "velocity": 51,
                "duration": 0.08409090909091788,
                "tempo": 120.0
            },
            {
                "start_time": 65.53181818181818,
                "end_time": 65.75227272727273,
                "pitch": 40,
                "velocity": 51,
                "duration": 0.2204545454545439,
                "tempo": 120.0
            },
            {
                "start_time": 65.76818181818182,
                "end_time": 65.85227272727272,
                "pitch": 40,
                "velocity": 51,
                "duration": 0.08409090909090366,
                "tempo": 120.0
            },
            {
                "start_time": 65.86818181818181,
                "end_time": 65.98636363636363,
                "pitch": 50,
                "velocity": 51,
                "duration": 0.11818181818182438,
                "tempo": 120.0
            },
            {
                "start_time": 66.00227272727273,
                "end_time": 66.08636363636363,
                "pitch": 52,
                "velocity": 51,
                "duration": 0.08409090909090366,
                "tempo": 120.0
            },
            {
                "start_time": 66.10227272727272,
                "end_time": 66.40681818181818,
                "pitch": 50,
                "velocity": 51,
                "duration": 0.3045454545454618,
                "tempo": 120.0
            },
            {
                "start_time": 66.45454545454545,
                "end_time": 66.5340909090909,
                "pitch": 50,
                "velocity": 51,
                "duration": 0.07954545454545325,
                "tempo": 120.0
            },
            {
                "start_time": 67.02954545454546,
                "end_time": 67.11590909090908,
                "pitch": 55,
                "velocity": 51,
                "duration": 0.08636363636362887,
                "tempo": 120.0
            },
            {
                "start_time": 67.13181818181818,
                "end_time": 67.21818181818182,
                "pitch": 57,
                "velocity": 51,
                "duration": 0.08636363636364308,
                "tempo": 120.0
            },
            {
                "start_time": 67.26818181818182,
                "end_time": 67.35454545454544,
                "pitch": 40,
                "velocity": 51,
                "duration": 0.08636363636362887,
                "tempo": 120.0
            },
            {
                "start_time": 67.37272727272727,
                "end_time": 67.45681818181818,
                "pitch": 40,
                "velocity": 51,
                "duration": 0.08409090909090366,
                "tempo": 120.0
            },
            {
                "start_time": 67.475,
                "end_time": 67.5840909090909,
                "pitch": 48,
                "velocity": 51,
                "duration": 0.10909090909090935,
                "tempo": 120.0
            },
            {
                "start_time": 67.6,
                "end_time": 67.67727272727272,
                "pitch": 60,
                "velocity": 51,
                "duration": 0.07727272727272805,
                "tempo": 120.0
            },
            {
                "start_time": 67.69318181818181,
                "end_time": 67.89772727272727,
                "pitch": 48,
                "velocity": 51,
                "duration": 0.20454545454545325,
                "tempo": 120.0
            },
            {
                "start_time": 67.91363636363636,
                "end_time": 68.12954545454545,
                "pitch": 50,
                "velocity": 51,
                "duration": 0.2159090909090935,
                "tempo": 120.0
            },
            {
                "start_time": 68.14772727272727,
                "end_time": 68.36363636363636,
                "pitch": 62,
                "velocity": 51,
                "duration": 0.2159090909090935,
                "tempo": 120.0
            },
            {
                "start_time": 68.38181818181818,
                "end_time": 68.60227272727272,
                "pitch": 50,
                "velocity": 51,
                "duration": 0.2204545454545439,
                "tempo": 120.0
            },
            {
                "start_time": 68.62045454545454,
                "end_time": 68.80909090909091,
                "pitch": 62,
                "velocity": 51,
                "duration": 0.1886363636363768,
                "tempo": 120.0
            },
            {
                "start_time": 68.85909090909091,
                "end_time": 69.04318181818182,
                "pitch": 50,
                "velocity": 51,
                "duration": 0.1840909090909122,
                "tempo": 120.0
            },
            {
                "start_time": 69.06136363636364,
                "end_time": 69.27727272727273,
                "pitch": 62,
                "velocity": 51,
                "duration": 0.2159090909090935,
                "tempo": 120.0
            },
            {
                "start_time": 69.29545454545455,
                "end_time": 69.50227272727273,
                "pitch": 50,
                "velocity": 51,
                "duration": 0.20681818181817846,
                "tempo": 120.0
            },
            {
                "start_time": 69.51818181818182,
                "end_time": 69.725,
                "pitch": 62,
                "velocity": 51,
                "duration": 0.20681818181817846,
                "tempo": 120.0
            },
            {
                "start_time": 69.74318181818181,
                "end_time": 69.9590909090909,
                "pitch": 48,
                "velocity": 51,
                "duration": 0.2159090909090935,
                "tempo": 120.0
            },
            {
                "start_time": 69.97727272727272,
                "end_time": 70.05909090909091,
                "pitch": 60,
                "velocity": 51,
                "duration": 0.08181818181819267,
                "tempo": 120.0
            },
            {
                "start_time": 70.07727272727273,
                "end_time": 70.19318181818181,
                "pitch": 48,
                "velocity": 51,
                "duration": 0.11590909090908497,
                "tempo": 120.0
            },
            {
                "start_time": 70.21136363636363,
                "end_time": 70.29772727272727,
                "pitch": 48,
                "velocity": 51,
                "duration": 0.08636363636364308,
                "tempo": 120.0
            },
            {
                "start_time": 70.31590909090909,
                "end_time": 70.40227272727273,
                "pitch": 60,
                "velocity": 51,
                "duration": 0.08636363636364308,
                "tempo": 120.0
            },
            {
                "start_time": 70.45454545454545,
                "end_time": 70.54318181818182,
                "pitch": 48,
                "velocity": 51,
                "duration": 0.08863636363636829,
                "tempo": 120.0
            },
            {
                "start_time": 70.56136363636364,
                "end_time": 70.64772727272727,
                "pitch": 48,
                "velocity": 51,
                "duration": 0.08636363636362887,
                "tempo": 120.0
            },
            {
                "start_time": 70.66590909090908,
                "end_time": 70.87045454545454,
                "pitch": 50,
                "velocity": 51,
                "duration": 0.20454545454545325,
                "tempo": 120.0
            },
            {
                "start_time": 70.8840909090909,
                "end_time": 70.99545454545454,
                "pitch": 62,
                "velocity": 51,
                "duration": 0.11136363636363455,
                "tempo": 120.0
            },
            {
                "start_time": 71.0090909090909,
                "end_time": 71.08863636363635,
                "pitch": 50,
                "velocity": 51,
                "duration": 0.07954545454545325,
                "tempo": 120.0
            },
            {
                "start_time": 71.10454545454544,
                "end_time": 71.18863636363636,
                "pitch": 50,
                "velocity": 51,
                "duration": 0.08409090909091788,
                "tempo": 120.0
            },
            {
                "start_time": 71.23863636363636,
                "end_time": 71.32045454545454,
                "pitch": 62,
                "velocity": 51,
                "duration": 0.08181818181817846,
                "tempo": 120.0
            },
            {
                "start_time": 71.33863636363635,
                "end_time": 71.42272727272727,
                "pitch": 50,
                "velocity": 51,
                "duration": 0.08409090909091788,
                "tempo": 120.0
            },
            {
                "start_time": 71.43863636363636,
                "end_time": 71.55454545454545,
                "pitch": 50,
                "velocity": 51,
                "duration": 0.11590909090908497,
                "tempo": 120.0
            },
            {
                "start_time": 71.57272727272726,
                "end_time": 71.79545454545455,
                "pitch": 52,
                "velocity": 51,
                "duration": 0.22272727272728332,
                "tempo": 120.0
            },
            {
                "start_time": 71.81136363636364,
                "end_time": 71.89772727272727,
                "pitch": 64,
                "velocity": 51,
                "duration": 0.08636363636362887,
                "tempo": 120.0
            },
            {
                "start_time": 71.91363636363636,
                "end_time": 72.0,
                "pitch": 52,
                "velocity": 51,
                "duration": 0.08636363636364308,
                "tempo": 120.0
            },
            {
                "start_time": 72.05227272727272,
                "end_time": 72.1340909090909,
                "pitch": 52,
                "velocity": 51,
                "duration": 0.08181818181817846,
                "tempo": 120.0
            },
            {
                "start_time": 72.15227272727272,
                "end_time": 72.23636363636363,
                "pitch": 64,
                "velocity": 51,
                "duration": 0.08409090909091788,
                "tempo": 120.0
            },
            {
                "start_time": 72.25227272727273,
                "end_time": 72.36818181818181,
                "pitch": 52,
                "velocity": 51,
                "duration": 0.11590909090908497,
                "tempo": 120.0
            },
            {
                "start_time": 72.38636363636363,
                "end_time": 72.47045454545454,
                "pitch": 52,
                "velocity": 51,
                "duration": 0.08409090909091788,
                "tempo": 120.0
            },
            {
                "start_time": 72.48636363636363,
                "end_time": 72.69318181818181,
                "pitch": 41,
                "velocity": 51,
                "duration": 0.20681818181817846,
                "tempo": 120.0
            },
            {
                "start_time": 72.7090909090909,
                "end_time": 72.91818181818182,
                "pitch": 53,
                "velocity": 51,
                "duration": 0.20909090909091788,
                "tempo": 120.0
            },
            {
                "start_time": 72.93409090909091,
                "end_time": 73.15681818181818,
                "pitch": 41,
                "velocity": 51,
                "duration": 0.2227272727272691,
                "tempo": 120.0
            },
            {
                "start_time": 73.17272727272727,
                "end_time": 73.39545454545454,
                "pitch": 53,
                "velocity": 51,
                "duration": 0.2227272727272691,
                "tempo": 120.0
            }
        ]
    }
}