{
    "track_id": "Wonder Boy III (FM) - 11 - It_s a Treasure Box",
    "mood": "happy",
    "instruments": {
        "Acoustic Bass": [
            {
                "start_time": 0.2772727272727273,
                "end_time": 0.3909090909090909,
                "pitch": 38,
                "velocity": 64,
                "duration": 0.11363636363636359,
                "tempo": 120.0
            },
            {
                "start_time": 0.42727272727272725,
                "end_time": 0.5522727272727272,
                "pitch": 43,
                "velocity": 64,
                "duration": 0.125,
                "tempo": 120.0
            },
            {
                "start_time": 0.6068181818181818,
                "end_time": 0.7318181818181818,
                "pitch": 41,
                "velocity": 64,
                "duration": 0.125,
                "tempo": 120.0
            },
            {
                "start_time": 0.7863636363636364,
                "end_time": 0.9477272727272726,
                "pitch": 43,
                "velocity": 64,
                "duration": 0.16136363636363626,
                "tempo": 120.0
            },
            {
                "start_time": 1.0022727272727272,
                "end_time": 1.2522727272727272,
                "pitch": 31,
                "velocity": 64,
                "duration": 0.25,
                "tempo": 120.0
            },
            {
                "start_time": 1.3363636363636362,
                "end_time": 1.4863636363636363,
                "pitch": 38,
                "velocity": 64,
                "duration": 0.15000000000000013,
                "tempo": 120.0
            },
            {
                "start_time": 1.5363636363636364,
                "end_time": 1.6545454545454545,
                "pitch": 43,
                "velocity": 64,
                "duration": 0.11818181818181817,
                "tempo": 120.0
            },
            {
                "start_time": 1.7068181818181818,
                "end_time": 1.825,
                "pitch": 41,
                "velocity": 64,
                "duration": 0.11818181818181817,
                "tempo": 120.0
            },
            {
                "start_time": 1.8772727272727272,
                "end_time": 2.0295454545454543,
                "pitch": 43,
                "velocity": 64,
                "duration": 0.15227272727272712,
                "tempo": 120.0
            },
            {
                "start_time": 2.0795454545454546,
                "end_time": 2.3318181818181816,
                "pitch": 33,
                "velocity": 64,
                "duration": 0.252272727272727,
                "tempo": 120.0
            },
            {
                "start_time": 2.4136363636363636,
                "end_time": 2.5636363636363635,
                "pitch": 40,
                "velocity": 64,
                "duration": 0.1499999999999999,
                "tempo": 120.0
            },
            {
                "start_time": 2.6136363636363633,
                "end_time": 2.7318181818181815,
                "pitch": 47,
                "velocity": 64,
                "duration": 0.11818181818181817,
                "tempo": 120.0
            },
            {
                "start_time": 2.7818181818181817,
                "end_time": 2.9159090909090906,
                "pitch": 45,
                "velocity": 64,
                "duration": 0.13409090909090882,
                "tempo": 120.0
            },
            {
                "start_time": 2.9477272727272728,
                "end_time": 3.0977272727272727,
                "pitch": 43,
                "velocity": 64,
                "duration": 0.1499999999999999,
                "tempo": 120.0
            },
            {
                "start_time": 3.684090909090909,
                "end_time": 3.934090909090909,
                "pitch": 38,
                "velocity": 64,
                "duration": 0.25,
                "tempo": 120.0
            },
            {
                "start_time": 4.018181818181818,
                "end_time": 4.168181818181818,
                "pitch": 37,
                "velocity": 64,
                "duration": 0.15000000000000036,
                "tempo": 120.0
            },
            {
                "start_time": 4.218181818181818,
                "end_time": 4.472727272727273,
                "pitch": 36,
                "velocity": 64,
                "duration": 0.25454545454545485,
                "tempo": 120.0
            },
            {
                "start_time": 4.559090909090909,
                "end_time": 4.711363636363636,
                "pitch": 43,
                "velocity": 64,
                "duration": 0.15227272727272734,
                "tempo": 120.0
            },
            {
                "start_time": 4.761363636363636,
                "end_time": 4.881818181818182,
                "pitch": 48,
                "velocity": 64,
                "duration": 0.12045454545454604,
                "tempo": 120.0
            },
            {
                "start_time": 4.931818181818182,
                "end_time": 5.052272727272727,
                "pitch": 46,
                "velocity": 64,
                "duration": 0.12045454545454515,
                "tempo": 120.0
            },
            {
                "start_time": 5.102272727272727,
                "end_time": 5.254545454545454,
                "pitch": 48,
                "velocity": 64,
                "duration": 0.15227272727272734,
                "tempo": 120.0
            },
            {
                "start_time": 5.306818181818182,
                "end_time": 5.556818181818182,
                "pitch": 37,
                "velocity": 64,
                "duration": 0.25,
                "tempo": 120.0
            },
            {
                "start_time": 5.640909090909091,
                "end_time": 5.790909090909091,
                "pitch": 43,
                "velocity": 64,
                "duration": 0.15000000000000036,
                "tempo": 120.0
            },
            {
                "start_time": 5.840909090909091,
                "end_time": 5.956818181818181,
                "pitch": 49,
                "velocity": 64,
                "duration": 0.1159090909090903,
                "tempo": 120.0
            },
            {
                "start_time": 6.006818181818182,
                "end_time": 6.125,
                "pitch": 46,
                "velocity": 64,
                "duration": 0.11818181818181817,
                "tempo": 120.0
            },
            {
                "start_time": 6.175,
                "end_time": 6.324999999999999,
                "pitch": 49,
                "velocity": 64,
                "duration": 0.14999999999999947,
                "tempo": 120.0
            },
            {
                "start_time": 6.375,
                "end_time": 6.625,
                "pitch": 38,
                "velocity": 64,
                "duration": 0.25,
                "tempo": 120.0
            },
            {
                "start_time": 6.709090909090909,
                "end_time": 6.8590909090909085,
                "pitch": 38,
                "velocity": 64,
                "duration": 0.14999999999999947,
                "tempo": 120.0
            },
            {
                "start_time": 6.909090909090909,
                "end_time": 7.161363636363636,
                "pitch": 36,
                "velocity": 64,
                "duration": 0.252272727272727,
                "tempo": 120.0
            },
            {
                "start_time": 7.243181818181818,
                "end_time": 7.393181818181818,
                "pitch": 48,
                "velocity": 64,
                "duration": 0.14999999999999947,
                "tempo": 120.0
            },
            {
                "start_time": 7.4431818181818175,
                "end_time": 7.679545454545454,
                "pitch": 35,
                "velocity": 64,
                "duration": 0.23636363636363633,
                "tempo": 120.0
            },
            {
                "start_time": 7.763636363636364,
                "end_time": 7.913636363636363,
                "pitch": 47,
                "velocity": 64,
                "duration": 0.14999999999999947,
                "tempo": 120.0
            },
            {
                "start_time": 7.963636363636363,
                "end_time": 8.213636363636363,
                "pitch": 33,
                "velocity": 64,
                "duration": 0.25,
                "tempo": 120.0
            },
            {
                "start_time": 8.297727272727272,
                "end_time": 8.463636363636363,
                "pitch": 45,
                "velocity": 64,
                "duration": 0.165909090909091,
                "tempo": 120.0
            },
            {
                "start_time": 8.497727272727273,
                "end_time": 8.756818181818181,
                "pitch": 31,
                "velocity": 64,
                "duration": 0.25909090909090793,
                "tempo": 120.0
            },
            {
                "start_time": 8.843181818181817,
                "end_time": 9.013636363636364,
                "pitch": 38,
                "velocity": 64,
                "duration": 0.17045454545454675,
                "tempo": 120.0
            },
            {
                "start_time": 9.06590909090909,
                "end_time": 9.184090909090909,
                "pitch": 43,
                "velocity": 64,
                "duration": 0.11818181818181905,
                "tempo": 120.0
            },
            {
                "start_time": 9.23409090909091,
                "end_time": 9.35,
                "pitch": 41,
                "velocity": 64,
                "duration": 0.1159090909090903,
                "tempo": 120.0
            },
            {
                "start_time": 9.4,
                "end_time": 9.549999999999999,
                "pitch": 43,
                "velocity": 64,
                "duration": 0.14999999999999858,
                "tempo": 120.0
            },
            {
                "start_time": 9.6,
                "end_time": 9.852272727272727,
                "pitch": 31,
                "velocity": 64,
                "duration": 0.252272727272727,
                "tempo": 120.0
            },
            {
                "start_time": 9.934090909090909,
                "end_time": 10.086363636363636,
                "pitch": 38,
                "velocity": 64,
                "duration": 0.15227272727272734,
                "tempo": 120.0
            },
            {
                "start_time": 10.136363636363637,
                "end_time": 10.254545454545454,
                "pitch": 43,
                "velocity": 64,
                "duration": 0.11818181818181728,
                "tempo": 120.0
            },
            {
                "start_time": 10.304545454545455,
                "end_time": 10.424999999999999,
                "pitch": 41,
                "velocity": 64,
                "duration": 0.12045454545454426,
                "tempo": 120.0
            },
            {
                "start_time": 10.475,
                "end_time": 10.629545454545454,
                "pitch": 43,
                "velocity": 64,
                "duration": 0.15454545454545432,
                "tempo": 120.0
            },
            {
                "start_time": 10.679545454545455,
                "end_time": 10.929545454545455,
                "pitch": 33,
                "velocity": 64,
                "duration": 0.25,
                "tempo": 120.0
            },
            {
                "start_time": 11.013636363636364,
                "end_time": 11.163636363636362,
                "pitch": 40,
                "velocity": 64,
                "duration": 0.14999999999999858,
                "tempo": 120.0
            },
            {
                "start_time": 11.213636363636363,
                "end_time": 11.331818181818182,
                "pitch": 47,
                "velocity": 64,
                "duration": 0.11818181818181905,
                "tempo": 120.0
            },
            {
                "start_time": 11.384090909090908,
                "end_time": 11.520454545454545,
                "pitch": 45,
                "velocity": 64,
                "duration": 0.1363636363636367,
                "tempo": 120.0
            },
            {
                "start_time": 11.554545454545455,
                "end_time": 11.706818181818182,
                "pitch": 43,
                "velocity": 64,
                "duration": 0.15227272727272734,
                "tempo": 120.0
            },
            {
                "start_time": 12.293181818181818,
                "end_time": 12.543181818181818,
                "pitch": 38,
                "velocity": 64,
                "duration": 0.25,
                "tempo": 120.0
            },
            {
                "start_time": 12.627272727272727,
                "end_time": 12.777272727272727,
                "pitch": 37,
                "velocity": 64,
                "duration": 0.15000000000000036,
                "tempo": 120.0
            },
            {
                "start_time": 12.827272727272726,
                "end_time": 13.081818181818182,
                "pitch": 36,
                "velocity": 64,
                "duration": 0.25454545454545574,
                "tempo": 120.0
            },
            {
                "start_time": 13.165909090909091,
                "end_time": 13.320454545454545,
                "pitch": 46,
                "velocity": 64,
                "duration": 0.15454545454545432,
                "tempo": 120.0
            },
            {
                "start_time": 13.370454545454544,
                "end_time": 13.488636363636363,
                "pitch": 45,
                "velocity": 64,
                "duration": 0.11818181818181905,
                "tempo": 120.0
            },
            {
                "start_time": 13.538636363636362,
                "end_time": 13.654545454545454,
                "pitch": 43,
                "velocity": 64,
                "duration": 0.11590909090909207,
                "tempo": 120.0
            },
            {
                "start_time": 13.704545454545453,
                "end_time": 13.854545454545454,
                "pitch": 40,
                "velocity": 64,
                "duration": 0.15000000000000036,
                "tempo": 120.0
            },
            {
                "start_time": 13.904545454545454,
                "end_time": 14.14090909090909,
                "pitch": 31,
                "velocity": 64,
                "duration": 0.23636363636363633,
                "tempo": 120.0
            },
            {
                "start_time": 14.225,
                "end_time": 14.388636363636364,
                "pitch": 43,
                "velocity": 64,
                "duration": 0.16363636363636402,
                "tempo": 120.0
            },
            {
                "start_time": 14.438636363636363,
                "end_time": 14.695454545454545,
                "pitch": 32,
                "velocity": 64,
                "duration": 0.2568181818181827,
                "tempo": 120.0
            },
            {
                "start_time": 14.779545454545454,
                "end_time": 14.931818181818182,
                "pitch": 44,
                "velocity": 64,
                "duration": 0.15227272727272734,
                "tempo": 120.0
            },
            {
                "start_time": 14.984090909090908,
                "end_time": 15.234090909090908,
                "pitch": 33,
                "velocity": 64,
                "duration": 0.25,
                "tempo": 120.0
            },
            {
                "start_time": 15.318181818181817,
                "end_time": 15.468181818181817,
                "pitch": 33,
                "velocity": 64,
                "duration": 0.15000000000000036,
                "tempo": 120.0
            },
            {
                "start_time": 15.518181818181818,
                "end_time": 15.634090909090908,
                "pitch": 38,
                "velocity": 64,
                "duration": 0.1159090909090903,
                "tempo": 120.0
            },
            {
                "start_time": 15.684090909090909,
                "end_time": 15.818181818181817,
                "pitch": 36,
                "velocity": 64,
                "duration": 0.13409090909090793,
                "tempo": 120.0
            },
            {
                "start_time": 15.852272727272727,
                "end_time": 16.002272727272725,
                "pitch": 35,
                "velocity": 64,
                "duration": 0.14999999999999858,
                "tempo": 120.0
            },
            {
                "start_time": 16.052272727272726,
                "end_time": 16.168181818181818,
                "pitch": 31,
                "velocity": 64,
                "duration": 0.11590909090909207,
                "tempo": 120.0
            },
            {
                "start_time": 16.21818181818182,
                "end_time": 16.352272727272727,
                "pitch": 43,
                "velocity": 64,
                "duration": 0.13409090909090793,
                "tempo": 120.0
            },
            {
                "start_time": 16.386363636363637,
                "end_time": 16.536363636363635,
                "pitch": 31,
                "velocity": 64,
                "duration": 0.14999999999999858,
                "tempo": 120.0
            },
            {
                "start_time": 16.586363636363636,
                "end_time": 17.002272727272725,
                "pitch": 31,
                "velocity": 64,
                "duration": 0.41590909090908923,
                "tempo": 120.0
            },
            {
                "start_time": 17.14090909090909,
                "end_time": 17.386363636363637,
                "pitch": 35,
                "velocity": 64,
                "duration": 0.24545454545454604,
                "tempo": 120.0
            },
            {
                "start_time": 17.46818181818182,
                "end_time": 17.61590909090909,
                "pitch": 42,
                "velocity": 64,
                "duration": 0.14772727272726982,
                "tempo": 120.0
            },
            {
                "start_time": 17.66590909090909,
                "end_time": 17.8,
                "pitch": 47,
                "velocity": 64,
                "duration": 0.13409090909091148,
                "tempo": 120.0
            },
            {
                "start_time": 17.834090909090907,
                "end_time": 17.970454545454544,
                "pitch": 45,
                "velocity": 64,
                "duration": 0.1363636363636367,
                "tempo": 120.0
            },
            {
                "start_time": 18.004545454545454,
                "end_time": 18.159090909090907,
                "pitch": 47,
                "velocity": 64,
                "duration": 0.15454545454545254,
                "tempo": 120.0
            },
            {
                "start_time": 18.209090909090907,
                "end_time": 18.459090909090907,
                "pitch": 35,
                "velocity": 64,
                "duration": 0.25,
                "tempo": 120.0
            },
            {
                "start_time": 18.543181818181818,
                "end_time": 18.693181818181817,
                "pitch": 42,
                "velocity": 64,
                "duration": 0.14999999999999858,
                "tempo": 120.0
            },
            {
                "start_time": 18.743181818181817,
                "end_time": 18.877272727272725,
                "pitch": 47,
                "velocity": 64,
                "duration": 0.13409090909090793,
                "tempo": 120.0
            },
            {
                "start_time": 18.911363636363635,
                "end_time": 19.043181818181818,
                "pitch": 45,
                "velocity": 64,
                "duration": 0.13181818181818272,
                "tempo": 120.0
            },
            {
                "start_time": 19.077272727272728,
                "end_time": 19.227272727272727,
                "pitch": 47,
                "velocity": 64,
                "duration": 0.14999999999999858,
                "tempo": 120.0
            },
            {
                "start_time": 19.277272727272727,
                "end_time": 19.527272727272727,
                "pitch": 40,
                "velocity": 64,
                "duration": 0.25,
                "tempo": 120.0
            },
            {
                "start_time": 19.611363636363635,
                "end_time": 19.761363636363637,
                "pitch": 40,
                "velocity": 64,
                "duration": 0.15000000000000213,
                "tempo": 120.0
            },
            {
                "start_time": 19.811363636363634,
                "end_time": 20.068181818181817,
                "pitch": 38,
                "velocity": 64,
                "duration": 0.2568181818181827,
                "tempo": 120.0
            },
            {
                "start_time": 20.152272727272727,
                "end_time": 20.304545454545455,
                "pitch": 38,
                "velocity": 64,
                "duration": 0.15227272727272734,
                "tempo": 120.0
            },
            {
                "start_time": 20.35681818181818,
                "end_time": 20.60681818181818,
                "pitch": 36,
                "velocity": 64,
                "duration": 0.25,
                "tempo": 120.0
            },
            {
                "start_time": 20.69090909090909,
                "end_time": 20.84090909090909,
                "pitch": 36,
                "velocity": 64,
                "duration": 0.14999999999999858,
                "tempo": 120.0
            },
            {
                "start_time": 20.89090909090909,
                "end_time": 21.14090909090909,
                "pitch": 35,
                "velocity": 64,
                "duration": 0.25,
                "tempo": 120.0
            },
            {
                "start_time": 21.224999999999998,
                "end_time": 21.375,
                "pitch": 35,
                "velocity": 64,
                "duration": 0.15000000000000213,
                "tempo": 120.0
            },
            {
                "start_time": 21.425,
                "end_time": 21.679545454545455,
                "pitch": 33,
                "velocity": 64,
                "duration": 0.25454545454545396,
                "tempo": 120.0
            },
            {
                "start_time": 21.76590909090909,
                "end_time": 21.918181818181818,
                "pitch": 40,
                "velocity": 64,
                "duration": 0.15227272727272734,
                "tempo": 120.0
            },
            {
                "start_time": 21.96818181818182,
                "end_time": 22.102272727272727,
                "pitch": 45,
                "velocity": 64,
                "duration": 0.13409090909090793,
                "tempo": 120.0
            },
            {
                "start_time": 22.136363636363637,
                "end_time": 22.270454545454545,
                "pitch": 43,
                "velocity": 64,
                "duration": 0.13409090909090793,
                "tempo": 120.0
            },
            {
                "start_time": 22.302272727272726,
                "end_time": 22.452272727272724,
                "pitch": 45,
                "velocity": 64,
                "duration": 0.14999999999999858,
                "tempo": 120.0
            },
            {
                "start_time": 22.502272727272725,
                "end_time": 22.754545454545454,
                "pitch": 33,
                "velocity": 64,
                "duration": 0.25227272727272876,
                "tempo": 120.0
            },
            {
                "start_time": 22.836363636363636,
                "end_time": 22.988636363636363,
                "pitch": 40,
                "velocity": 64,
                "duration": 0.15227272727272734,
                "tempo": 120.0
            },
            {
                "start_time": 23.038636363636364,
                "end_time": 23.172727272727272,
                "pitch": 45,
                "velocity": 64,
                "duration": 0.13409090909090793,
                "tempo": 120.0
            },
            {
                "start_time": 23.206818181818182,
                "end_time": 23.34318181818182,
                "pitch": 43,
                "velocity": 64,
                "duration": 0.1363636363636367,
                "tempo": 120.0
            },
            {
                "start_time": 23.377272727272725,
                "end_time": 23.529545454545453,
                "pitch": 45,
                "velocity": 64,
                "duration": 0.15227272727272734,
                "tempo": 120.0
            },
            {
                "start_time": 23.581818181818182,
                "end_time": 23.831818181818182,
                "pitch": 38,
                "velocity": 64,
                "duration": 0.25,
                "tempo": 120.0
            },
            {
                "start_time": 23.91590909090909,
                "end_time": 24.06590909090909,
                "pitch": 38,
                "velocity": 64,
                "duration": 0.15000000000000213,
                "tempo": 120.0
            },
            {
                "start_time": 24.11590909090909,
                "end_time": 24.368181818181817,
                "pitch": 36,
                "velocity": 64,
                "duration": 0.25227272727272876,
                "tempo": 120.0
            },
            {
                "start_time": 24.45,
                "end_time": 24.599999999999998,
                "pitch": 36,
                "velocity": 64,
                "duration": 0.14999999999999858,
                "tempo": 120.0
            },
            {
                "start_time": 24.65,
                "end_time": 24.90681818181818,
                "pitch": 35,
                "velocity": 64,
                "duration": 0.2568181818181827,
                "tempo": 120.0
            },
            {
                "start_time": 24.99090909090909,
                "end_time": 25.143181818181816,
                "pitch": 35,
                "velocity": 64,
                "duration": 0.15227272727272734,
                "tempo": 120.0
            },
            {
                "start_time": 25.195454545454545,
                "end_time": 25.445454545454545,
                "pitch": 33,
                "velocity": 64,
                "duration": 0.25,
                "tempo": 120.0
            },
            {
                "start_time": 25.529545454545453,
                "end_time": 25.679545454545455,
                "pitch": 33,
                "velocity": 64,
                "duration": 0.15000000000000213,
                "tempo": 120.0
            },
            {
                "start_time": 25.729545454545452,
                "end_time": 25.979545454545452,
                "pitch": 31,
                "velocity": 64,
                "duration": 0.25,
                "tempo": 120.0
            },
            {
                "start_time": 26.063636363636363,
                "end_time": 26.21363636363636,
                "pitch": 38,
                "velocity": 64,
                "duration": 0.14999999999999858,
                "tempo": 120.0
            },
            {
                "start_time": 26.263636363636362,
                "end_time": 26.518181818181816,
                "pitch": 43,
                "velocity": 64,
                "duration": 0.25454545454545396,
                "tempo": 120.0
            },
            {
                "start_time": 26.604545454545452,
                "end_time": 26.75681818181818,
                "pitch": 38,
                "velocity": 64,
                "duration": 0.15227272727272734,
                "tempo": 120.0
            },
            {
                "start_time": 26.80909090909091,
                "end_time": 27.05909090909091,
                "pitch": 31,
                "velocity": 64,
                "duration": 0.25,
                "tempo": 120.0
            },
            {
                "start_time": 27.14090909090909,
                "end_time": 27.293181818181818,
                "pitch": 38,
                "velocity": 64,
                "duration": 0.15227272727272734,
                "tempo": 120.0
            },
            {
                "start_time": 27.343181818181815,
                "end_time": 27.597727272727273,
                "pitch": 41,
                "velocity": 64,
                "duration": 0.2545454545454575,
                "tempo": 120.0
            },
            {
                "start_time": 27.68181818181818,
                "end_time": 27.836363636363636,
                "pitch": 38,
                "velocity": 64,
                "duration": 0.1545454545454561,
                "tempo": 120.0
            },
            {
                "start_time": 27.886363636363637,
                "end_time": 28.136363636363637,
                "pitch": 31,
                "velocity": 64,
                "duration": 0.25,
                "tempo": 120.0
            },
            {
                "start_time": 28.220454545454544,
                "end_time": 28.370454545454542,
                "pitch": 36,
                "velocity": 64,
                "duration": 0.14999999999999858,
                "tempo": 120.0
            },
            {
                "start_time": 28.420454545454543,
                "end_time": 28.670454545454543,
                "pitch": 40,
                "velocity": 64,
                "duration": 0.25,
                "tempo": 120.0
            },
            {
                "start_time": 28.754545454545454,
                "end_time": 28.90681818181818,
                "pitch": 36,
                "velocity": 64,
                "duration": 0.15227272727272734,
                "tempo": 120.0
            },
            {
                "start_time": 28.940909090909088,
                "end_time": 29.195454545454545,
                "pitch": 31,
                "velocity": 64,
                "duration": 0.2545454545454575,
                "tempo": 120.0
            },
            {
                "start_time": 29.279545454545453,
                "end_time": 29.45,
                "pitch": 36,
                "velocity": 64,
                "duration": 0.17045454545454675,
                "tempo": 120.0
            },
            {
                "start_time": 29.48409090909091,
                "end_time": 29.75,
                "pitch": 39,
                "velocity": 64,
                "duration": 0.26590909090909065,
                "tempo": 120.0
            },
            {
                "start_time": 29.818181818181817,
                "end_time": 29.98409090909091,
                "pitch": 36,
                "velocity": 64,
                "duration": 0.16590909090909278,
                "tempo": 120.0
            },
            {
                "start_time": 30.034090909090907,
                "end_time": 30.270454545454545,
                "pitch": 31,
                "velocity": 64,
                "duration": 0.2363636363636381,
                "tempo": 120.0
            },
            {
                "start_time": 30.352272727272727,
                "end_time": 30.502272727272725,
                "pitch": 38,
                "velocity": 64,
                "duration": 0.14999999999999858,
                "tempo": 120.0
            },
            {
                "start_time": 30.554545454545455,
                "end_time": 30.688636363636363,
                "pitch": 43,
                "velocity": 64,
                "duration": 0.13409090909090793,
                "tempo": 120.0
            },
            {
                "start_time": 30.722727272727273,
                "end_time": 30.85909090909091,
                "pitch": 41,
                "velocity": 64,
                "duration": 0.1363636363636367,
                "tempo": 120.0
            },
            {
                "start_time": 30.893181818181816,
                "end_time": 31.045454545454543,
                "pitch": 38,
                "velocity": 64,
                "duration": 0.15227272727272734,
                "tempo": 120.0
            },
            {
                "start_time": 31.097727272727273,
                "end_time": 31.363636363636363,
                "pitch": 36,
                "velocity": 64,
                "duration": 0.26590909090909065,
                "tempo": 120.0
            },
            {
                "start_time": 31.445454545454545,
                "end_time": 31.597727272727273,
                "pitch": 43,
                "velocity": 64,
                "duration": 0.15227272727272734,
                "tempo": 120.0
            },
            {
                "start_time": 31.64772727272727,
                "end_time": 31.76590909090909,
                "pitch": 48,
                "velocity": 64,
                "duration": 0.11818181818182083,
                "tempo": 120.0
            },
            {
                "start_time": 31.815909090909088,
                "end_time": 31.936363636363634,
                "pitch": 46,
                "velocity": 64,
                "duration": 0.12045454545454604,
                "tempo": 120.0
            },
            {
                "start_time": 31.986363636363635,
                "end_time": 32.138636363636365,
                "pitch": 43,
                "velocity": 64,
                "duration": 0.1522727272727309,
                "tempo": 120.0
            },
            {
                "start_time": 32.19090909090909,
                "end_time": 32.42272727272727,
                "pitch": 38,
                "velocity": 64,
                "duration": 0.23181818181818414,
                "tempo": 120.0
            },
            {
                "start_time": 32.50454545454545,
                "end_time": 32.668181818181814,
                "pitch": 36,
                "velocity": 64,
                "duration": 0.16363636363636402,
                "tempo": 120.0
            },
            {
                "start_time": 32.699999999999996,
                "end_time": 32.95227272727273,
                "pitch": 35,
                "velocity": 64,
                "duration": 0.2522727272727323,
                "tempo": 120.0
            },
            {
                "start_time": 33.03409090909091,
                "end_time": 33.18636363636364,
                "pitch": 31,
                "velocity": 64,
                "duration": 0.1522727272727309,
                "tempo": 120.0
            },
            {
                "start_time": 33.236363636363635,
                "end_time": 33.643181818181816,
                "pitch": 31,
                "velocity": 64,
                "duration": 0.4068181818181813,
                "tempo": 120.0
            },
            {
                "start_time": 33.779545454545456,
                "end_time": 33.91136363636363,
                "pitch": 28,
                "velocity": 64,
                "duration": 0.13181818181817562,
                "tempo": 120.0
            },
            {
                "start_time": 33.94318181818181,
                "end_time": 34.074999999999996,
                "pitch": 29,
                "velocity": 64,
                "duration": 0.13181818181818272,
                "tempo": 120.0
            },
            {
                "start_time": 34.10681818181818,
                "end_time": 34.25454545454545,
                "pitch": 31,
                "velocity": 64,
                "duration": 0.14772727272727337,
                "tempo": 120.0
            }
        ],
        "Harpsichord": [
            {
                "start_time": 0.15,
                "end_time": 0.21363636363636362,
                "pitch": 65,
                "velocity": 51,
                "duration": 0.06363636363636363,
                "tempo": 120.0
            },
            {
                "start_time": 0.2772727272727273,
                "end_time": 0.35227272727272724,
                "pitch": 64,
                "velocity": 51,
                "duration": 0.07499999999999996,
                "tempo": 120.0
            },
            {
                "start_time": 0.42727272727272725,
                "end_time": 0.5159090909090909,
                "pitch": 65,
                "velocity": 51,
                "duration": 0.08863636363636362,
                "tempo": 120.0
            },
            {
                "start_time": 0.6068181818181818,
                "end_time": 0.6954545454545454,
                "pitch": 64,
                "velocity": 51,
                "duration": 0.08863636363636362,
                "tempo": 120.0
            },
            {
                "start_time": 0.7863636363636364,
                "end_time": 0.8931818181818182,
                "pitch": 62,
                "velocity": 51,
                "duration": 0.10681818181818181,
                "tempo": 120.0
            },
            {
                "start_time": 1.0022727272727272,
                "end_time": 1.0863636363636364,
                "pitch": 58,
                "velocity": 51,
                "duration": 0.08409090909090922,
                "tempo": 120.0
            },
            {
                "start_time": 1.1681818181818182,
                "end_time": 1.2522727272727272,
                "pitch": 59,
                "velocity": 51,
                "duration": 0.084090909090909,
                "tempo": 120.0
            },
            {
                "start_time": 1.3363636363636362,
                "end_time": 1.4363636363636363,
                "pitch": 62,
                "velocity": 51,
                "duration": 0.10000000000000009,
                "tempo": 120.0
            },
            {
                "start_time": 1.5363636363636364,
                "end_time": 1.6204545454545454,
                "pitch": 59,
                "velocity": 51,
                "duration": 0.084090909090909,
                "tempo": 120.0
            },
            {
                "start_time": 1.7068181818181818,
                "end_time": 1.7909090909090908,
                "pitch": 57,
                "velocity": 51,
                "duration": 0.084090909090909,
                "tempo": 120.0
            },
            {
                "start_time": 1.8772727272727272,
                "end_time": 1.977272727272727,
                "pitch": 55,
                "velocity": 51,
                "duration": 0.09999999999999987,
                "tempo": 120.0
            },
            {
                "start_time": 2.0795454545454546,
                "end_time": 2.2477272727272726,
                "pitch": 57,
                "velocity": 51,
                "duration": 0.168181818181818,
                "tempo": 120.0
            },
            {
                "start_time": 2.4136363636363636,
                "end_time": 2.5136363636363637,
                "pitch": 57,
                "velocity": 51,
                "duration": 0.10000000000000009,
                "tempo": 120.0
            },
            {
                "start_time": 2.6136363636363633,
                "end_time": 2.7818181818181817,
                "pitch": 59,
                "velocity": 51,
                "duration": 0.16818181818181843,
                "tempo": 120.0
            },
            {
                "start_time": 2.9477272727272728,
                "end_time": 3.0477272727272724,
                "pitch": 57,
                "velocity": 51,
                "duration": 0.09999999999999964,
                "tempo": 120.0
            },
            {
                "start_time": 3.684090909090909,
                "end_time": 3.7659090909090907,
                "pitch": 52,
                "velocity": 51,
                "duration": 0.08181818181818157,
                "tempo": 120.0
            },
            {
                "start_time": 3.8499999999999996,
                "end_time": 3.934090909090909,
                "pitch": 52,
                "velocity": 51,
                "duration": 0.08409090909090944,
                "tempo": 120.0
            },
            {
                "start_time": 4.018181818181818,
                "end_time": 4.1022727272727275,
                "pitch": 52,
                "velocity": 51,
                "duration": 0.08409090909090988,
                "tempo": 120.0
            },
            {
                "start_time": 4.218181818181818,
                "end_time": 4.388636363636364,
                "pitch": 55,
                "velocity": 51,
                "duration": 0.17045454545454586,
                "tempo": 120.0
            },
            {
                "start_time": 4.559090909090909,
                "end_time": 4.659090909090909,
                "pitch": 52,
                "velocity": 51,
                "duration": 0.10000000000000053,
                "tempo": 120.0
            },
            {
                "start_time": 4.761363636363636,
                "end_time": 4.847727272727273,
                "pitch": 54,
                "velocity": 51,
                "duration": 0.08636363636363686,
                "tempo": 120.0
            },
            {
                "start_time": 4.931818181818182,
                "end_time": 5.018181818181818,
                "pitch": 55,
                "velocity": 51,
                "duration": 0.08636363636363598,
                "tempo": 120.0
            },
            {
                "start_time": 5.102272727272727,
                "end_time": 5.204545454545454,
                "pitch": 57,
                "velocity": 51,
                "duration": 0.10227272727272751,
                "tempo": 120.0
            },
            {
                "start_time": 5.306818181818182,
                "end_time": 5.472727272727273,
                "pitch": 58,
                "velocity": 51,
                "duration": 0.165909090909091,
                "tempo": 120.0
            },
            {
                "start_time": 5.640909090909091,
                "end_time": 5.74090909090909,
                "pitch": 57,
                "velocity": 51,
                "duration": 0.09999999999999964,
                "tempo": 120.0
            },
            {
                "start_time": 5.840909090909091,
                "end_time": 6.006818181818182,
                "pitch": 55,
                "velocity": 51,
                "duration": 0.165909090909091,
                "tempo": 120.0
            },
            {
                "start_time": 6.175,
                "end_time": 6.2749999999999995,
                "pitch": 52,
                "velocity": 51,
                "duration": 0.09999999999999964,
                "tempo": 120.0
            },
            {
                "start_time": 6.709090909090909,
                "end_time": 6.809090909090909,
                "pitch": 62,
                "velocity": 51,
                "duration": 0.09999999999999964,
                "tempo": 120.0
            },
            {
                "start_time": 6.909090909090909,
                "end_time": 7.077272727272727,
                "pitch": 62,
                "velocity": 51,
                "duration": 0.168181818181818,
                "tempo": 120.0
            },
            {
                "start_time": 7.243181818181818,
                "end_time": 7.343181818181818,
                "pitch": 61,
                "velocity": 51,
                "duration": 0.09999999999999964,
                "tempo": 120.0
            },
            {
                "start_time": 7.4431818181818175,
                "end_time": 7.963636363636363,
                "pitch": 60,
                "velocity": 51,
                "duration": 0.5204545454545455,
                "tempo": 120.0
            },
            {
                "start_time": 8.513636363636364,
                "end_time": 8.602272727272727,
                "pitch": 67,
                "velocity": 51,
                "duration": 0.08863636363636296,
                "tempo": 120.0
            },
            {
                "start_time": 8.670454545454545,
                "end_time": 8.775,
                "pitch": 65,
                "velocity": 51,
                "duration": 0.10454545454545539,
                "tempo": 120.0
            },
            {
                "start_time": 8.861363636363636,
                "end_time": 8.963636363636363,
                "pitch": 64,
                "velocity": 51,
                "duration": 0.10227272727272663,
                "tempo": 120.0
            },
            {
                "start_time": 9.06590909090909,
                "end_time": 9.15,
                "pitch": 65,
                "velocity": 51,
                "duration": 0.08409090909091077,
                "tempo": 120.0
            },
            {
                "start_time": 9.23409090909091,
                "end_time": 9.318181818181818,
                "pitch": 64,
                "velocity": 51,
                "duration": 0.084090909090909,
                "tempo": 120.0
            },
            {
                "start_time": 9.4,
                "end_time": 9.5,
                "pitch": 62,
                "velocity": 51,
                "duration": 0.09999999999999964,
                "tempo": 120.0
            },
            {
                "start_time": 9.6,
                "end_time": 9.684090909090909,
                "pitch": 58,
                "velocity": 51,
                "duration": 0.084090909090909,
                "tempo": 120.0
            },
            {
                "start_time": 9.768181818181818,
                "end_time": 9.852272727272727,
                "pitch": 59,
                "velocity": 51,
                "duration": 0.084090909090909,
                "tempo": 120.0
            },
            {
                "start_time": 9.934090909090909,
                "end_time": 10.036363636363635,
                "pitch": 62,
                "velocity": 51,
                "duration": 0.10227272727272663,
                "tempo": 120.0
            },
            {
                "start_time": 10.136363636363637,
                "end_time": 10.220454545454546,
                "pitch": 59,
                "velocity": 51,
                "duration": 0.084090909090909,
                "tempo": 120.0
            },
            {
                "start_time": 10.304545454545455,
                "end_time": 10.39090909090909,
                "pitch": 57,
                "velocity": 51,
                "duration": 0.08636363636363598,
                "tempo": 120.0
            },
            {
                "start_time": 10.475,
                "end_time": 10.577272727272726,
                "pitch": 55,
                "velocity": 51,
                "duration": 0.10227272727272663,
                "tempo": 120.0
            },
            {
                "start_time": 10.679545454545455,
                "end_time": 10.845454545454546,
                "pitch": 57,
                "velocity": 51,
                "duration": 0.165909090909091,
                "tempo": 120.0
            },
            {
                "start_time": 11.013636363636364,
                "end_time": 11.113636363636363,
                "pitch": 57,
                "velocity": 51,
                "duration": 0.09999999999999964,
                "tempo": 120.0
            },
            {
                "start_time": 11.213636363636363,
                "end_time": 11.384090909090908,
                "pitch": 59,
                "velocity": 51,
                "duration": 0.17045454545454497,
                "tempo": 120.0
            },
            {
                "start_time": 11.554545454545455,
                "end_time": 11.656818181818181,
                "pitch": 57,
                "velocity": 51,
                "duration": 0.10227272727272663,
                "tempo": 120.0
            },
            {
                "start_time": 12.293181818181818,
                "end_time": 12.375,
                "pitch": 52,
                "velocity": 51,
                "duration": 0.08181818181818201,
                "tempo": 120.0
            },
            {
                "start_time": 12.459090909090909,
                "end_time": 12.543181818181818,
                "pitch": 52,
                "velocity": 51,
                "duration": 0.084090909090909,
                "tempo": 120.0
            },
            {
                "start_time": 12.627272727272727,
                "end_time": 12.711363636363636,
                "pitch": 52,
                "velocity": 51,
                "duration": 0.084090909090909,
                "tempo": 120.0
            },
            {
                "start_time": 12.827272727272726,
                "end_time": 12.997727272727271,
                "pitch": 55,
                "velocity": 51,
                "duration": 0.17045454545454497,
                "tempo": 120.0
            },
            {
                "start_time": 13.165909090909091,
                "end_time": 13.268181818181818,
                "pitch": 52,
                "velocity": 51,
                "duration": 0.10227272727272663,
                "tempo": 120.0
            },
            {
                "start_time": 13.370454545454544,
                "end_time": 13.454545454545453,
                "pitch": 52,
                "velocity": 51,
                "duration": 0.084090909090909,
                "tempo": 120.0
            },
            {
                "start_time": 13.538636363636362,
                "end_time": 13.620454545454544,
                "pitch": 54,
                "velocity": 51,
                "duration": 0.08181818181818201,
                "tempo": 120.0
            },
            {
                "start_time": 13.704545454545453,
                "end_time": 13.804545454545455,
                "pitch": 55,
                "velocity": 51,
                "duration": 0.10000000000000142,
                "tempo": 120.0
            },
            {
                "start_time": 13.904545454545454,
                "end_time": 14.056818181818182,
                "pitch": 62,
                "velocity": 51,
                "duration": 0.15227272727272734,
                "tempo": 120.0
            },
            {
                "start_time": 14.24090909090909,
                "end_time": 14.338636363636363,
                "pitch": 67,
                "velocity": 51,
                "duration": 0.09772727272727266,
                "tempo": 120.0
            },
            {
                "start_time": 14.438636363636363,
                "end_time": 14.524999999999999,
                "pitch": 55,
                "velocity": 51,
                "duration": 0.08636363636363598,
                "tempo": 120.0
            },
            {
                "start_time": 14.609090909090908,
                "end_time": 14.695454545454545,
                "pitch": 55,
                "velocity": 51,
                "duration": 0.08636363636363775,
                "tempo": 120.0
            },
            {
                "start_time": 14.779545454545454,
                "end_time": 14.881818181818181,
                "pitch": 57,
                "velocity": 51,
                "duration": 0.10227272727272663,
                "tempo": 120.0
            },
            {
                "start_time": 14.984090909090908,
                "end_time": 15.149999999999999,
                "pitch": 59,
                "velocity": 51,
                "duration": 0.165909090909091,
                "tempo": 120.0
            },
            {
                "start_time": 15.318181818181817,
                "end_time": 15.418181818181818,
                "pitch": 55,
                "velocity": 51,
                "duration": 0.10000000000000142,
                "tempo": 120.0
            },
            {
                "start_time": 15.518181818181818,
                "end_time": 15.684090909090909,
                "pitch": 57,
                "velocity": 51,
                "duration": 0.165909090909091,
                "tempo": 120.0
            },
            {
                "start_time": 15.852272727272727,
                "end_time": 16.320454545454545,
                "pitch": 55,
                "velocity": 51,
                "duration": 0.4681818181818187,
                "tempo": 120.0
            },
            {
                "start_time": 17.14090909090909,
                "end_time": 17.222727272727273,
                "pitch": 59,
                "velocity": 51,
                "duration": 0.08181818181818201,
                "tempo": 120.0
            },
            {
                "start_time": 17.304545454545455,
                "end_time": 17.386363636363637,
                "pitch": 58,
                "velocity": 51,
                "duration": 0.08181818181818201,
                "tempo": 120.0
            },
            {
                "start_time": 17.46818181818182,
                "end_time": 17.56590909090909,
                "pitch": 59,
                "velocity": 51,
                "duration": 0.09772727272727266,
                "tempo": 120.0
            },
            {
                "start_time": 17.66590909090909,
                "end_time": 17.75,
                "pitch": 58,
                "velocity": 51,
                "duration": 0.08409090909091077,
                "tempo": 120.0
            },
            {
                "start_time": 17.834090909090907,
                "end_time": 17.920454545454543,
                "pitch": 59,
                "velocity": 51,
                "duration": 0.08636363636363598,
                "tempo": 120.0
            },
            {
                "start_time": 18.004545454545454,
                "end_time": 18.10681818181818,
                "pitch": 58,
                "velocity": 51,
                "duration": 0.10227272727272663,
                "tempo": 120.0
            },
            {
                "start_time": 18.209090909090907,
                "end_time": 18.293181818181818,
                "pitch": 59,
                "velocity": 51,
                "duration": 0.08409090909091077,
                "tempo": 120.0
            },
            {
                "start_time": 18.375,
                "end_time": 18.459090909090907,
                "pitch": 58,
                "velocity": 51,
                "duration": 0.08409090909090722,
                "tempo": 120.0
            },
            {
                "start_time": 18.543181818181818,
                "end_time": 18.643181818181816,
                "pitch": 59,
                "velocity": 51,
                "duration": 0.09999999999999787,
                "tempo": 120.0
            },
            {
                "start_time": 18.743181818181817,
                "end_time": 18.827272727272728,
                "pitch": 58,
                "velocity": 51,
                "duration": 0.08409090909091077,
                "tempo": 120.0
            },
            {
                "start_time": 18.911363636363635,
                "end_time": 18.993181818181817,
                "pitch": 59,
                "velocity": 51,
                "duration": 0.08181818181818201,
                "tempo": 120.0
            },
            {
                "start_time": 19.077272727272728,
                "end_time": 19.177272727272726,
                "pitch": 58,
                "velocity": 51,
                "duration": 0.09999999999999787,
                "tempo": 120.0
            },
            {
                "start_time": 19.477272727272727,
                "end_time": 19.745454545454546,
                "pitch": 59,
                "velocity": 51,
                "duration": 0.2681818181818194,
                "tempo": 120.0
            },
            {
                "start_time": 20.01590909090909,
                "end_time": 20.288636363636364,
                "pitch": 59,
                "velocity": 51,
                "duration": 0.2727272727272734,
                "tempo": 120.0
            },
            {
                "start_time": 20.55681818181818,
                "end_time": 20.82272727272727,
                "pitch": 59,
                "velocity": 51,
                "duration": 0.26590909090909065,
                "tempo": 120.0
            },
            {
                "start_time": 21.09090909090909,
                "end_time": 21.259090909090908,
                "pitch": 59,
                "velocity": 51,
                "duration": 0.168181818181818,
                "tempo": 120.0
            },
            {
                "start_time": 21.425,
                "end_time": 21.509090909090908,
                "pitch": 57,
                "velocity": 51,
                "duration": 0.08409090909090722,
                "tempo": 120.0
            },
            {
                "start_time": 21.595454545454544,
                "end_time": 21.679545454545455,
                "pitch": 56,
                "velocity": 51,
                "duration": 0.08409090909091077,
                "tempo": 120.0
            },
            {
                "start_time": 21.76590909090909,
                "end_time": 21.86590909090909,
                "pitch": 57,
                "velocity": 51,
                "duration": 0.09999999999999787,
                "tempo": 120.0
            },
            {
                "start_time": 21.96818181818182,
                "end_time": 22.052272727272726,
                "pitch": 56,
                "velocity": 51,
                "duration": 0.08409090909090722,
                "tempo": 120.0
            },
            {
                "start_time": 22.136363636363637,
                "end_time": 22.220454545454544,
                "pitch": 57,
                "velocity": 51,
                "duration": 0.08409090909090722,
                "tempo": 120.0
            },
            {
                "start_time": 22.302272727272726,
                "end_time": 22.402272727272727,
                "pitch": 56,
                "velocity": 51,
                "duration": 0.10000000000000142,
                "tempo": 120.0
            },
            {
                "start_time": 22.502272727272725,
                "end_time": 22.586363636363636,
                "pitch": 57,
                "velocity": 51,
                "duration": 0.08409090909091077,
                "tempo": 120.0
            },
            {
                "start_time": 22.670454545454543,
                "end_time": 22.754545454545454,
                "pitch": 56,
                "velocity": 51,
                "duration": 0.08409090909091077,
                "tempo": 120.0
            },
            {
                "start_time": 22.836363636363636,
                "end_time": 22.936363636363634,
                "pitch": 57,
                "velocity": 51,
                "duration": 0.09999999999999787,
                "tempo": 120.0
            },
            {
                "start_time": 23.038636363636364,
                "end_time": 23.12272727272727,
                "pitch": 56,
                "velocity": 51,
                "duration": 0.08409090909090722,
                "tempo": 120.0
            },
            {
                "start_time": 23.206818181818182,
                "end_time": 23.293181818181818,
                "pitch": 57,
                "velocity": 51,
                "duration": 0.08636363636363598,
                "tempo": 120.0
            },
            {
                "start_time": 23.377272727272725,
                "end_time": 23.479545454545452,
                "pitch": 56,
                "velocity": 51,
                "duration": 0.10227272727272663,
                "tempo": 120.0
            },
            {
                "start_time": 23.78181818181818,
                "end_time": 24.049999999999997,
                "pitch": 57,
                "velocity": 51,
                "duration": 0.26818181818181586,
                "tempo": 120.0
            },
            {
                "start_time": 24.318181818181817,
                "end_time": 24.584090909090907,
                "pitch": 57,
                "velocity": 51,
                "duration": 0.26590909090909065,
                "tempo": 120.0
            },
            {
                "start_time": 24.854545454545452,
                "end_time": 25.025,
                "pitch": 57,
                "velocity": 51,
                "duration": 0.17045454545454675,
                "tempo": 120.0
            },
            {
                "start_time": 25.195454545454545,
                "end_time": 25.361363636363635,
                "pitch": 67,
                "velocity": 51,
                "duration": 0.16590909090908923,
                "tempo": 120.0
            },
            {
                "start_time": 25.529545454545453,
                "end_time": 25.629545454545454,
                "pitch": 69,
                "velocity": 51,
                "duration": 0.10000000000000142,
                "tempo": 120.0
            },
            {
                "start_time": 25.729545454545452,
                "end_time": 25.895454545454545,
                "pitch": 71,
                "velocity": 51,
                "duration": 0.16590909090909278,
                "tempo": 120.0
            },
            {
                "start_time": 26.063636363636363,
                "end_time": 26.163636363636364,
                "pitch": 67,
                "velocity": 51,
                "duration": 0.10000000000000142,
                "tempo": 120.0
            },
            {
                "start_time": 26.263636363636362,
                "end_time": 26.43409090909091,
                "pitch": 62,
                "velocity": 51,
                "duration": 0.17045454545454675,
                "tempo": 120.0
            },
            {
                "start_time": 26.604545454545452,
                "end_time": 27.343181818181815,
                "pitch": 69,
                "velocity": 51,
                "duration": 0.7386363636363633,
                "tempo": 120.0
            },
            {
                "start_time": 27.886363636363637,
                "end_time": 28.154545454545453,
                "pitch": 64,
                "velocity": 51,
                "duration": 0.26818181818181586,
                "tempo": 120.0
            },
            {
                "start_time": 28.420454545454543,
                "end_time": 28.58863636363636,
                "pitch": 71,
                "velocity": 51,
                "duration": 0.168181818181818,
                "tempo": 120.0
            },
            {
                "start_time": 28.754545454545454,
                "end_time": 29.211363636363636,
                "pitch": 69,
                "velocity": 51,
                "duration": 0.456818181818182,
                "tempo": 120.0
            },
            {
                "start_time": 29.502272727272725,
                "end_time": 29.75,
                "pitch": 71,
                "velocity": 51,
                "duration": 0.2477272727272748,
                "tempo": 120.0
            },
            {
                "start_time": 30.034090909090907,
                "end_time": 30.286363636363635,
                "pitch": 62,
                "velocity": 51,
                "duration": 0.25227272727272876,
                "tempo": 120.0
            },
            {
                "start_time": 30.570454545454545,
                "end_time": 30.654545454545453,
                "pitch": 67,
                "velocity": 51,
                "duration": 0.08409090909090722,
                "tempo": 120.0
            },
            {
                "start_time": 30.722727272727273,
                "end_time": 30.825,
                "pitch": 65,
                "velocity": 51,
                "duration": 0.10227272727272663,
                "tempo": 120.0
            },
            {
                "start_time": 30.909090909090907,
                "end_time": 30.995454545454542,
                "pitch": 62,
                "velocity": 51,
                "duration": 0.08636363636363598,
                "tempo": 120.0
            },
            {
                "start_time": 31.113636363636363,
                "end_time": 31.279545454545453,
                "pitch": 60,
                "velocity": 51,
                "duration": 0.16590909090908923,
                "tempo": 120.0
            },
            {
                "start_time": 31.445454545454545,
                "end_time": 31.545454545454543,
                "pitch": 58,
                "velocity": 51,
                "duration": 0.09999999999999787,
                "tempo": 120.0
            },
            {
                "start_time": 31.986363636363635,
                "end_time": 32.08863636363636,
                "pitch": 60,
                "velocity": 51,
                "duration": 0.10227272727272663,
                "tempo": 120.0
            },
            {
                "start_time": 32.19090909090909,
                "end_time": 32.340909090909086,
                "pitch": 59,
                "velocity": 51,
                "duration": 0.14999999999999858,
                "tempo": 120.0
            },
            {
                "start_time": 32.52045454545454,
                "end_time": 32.60227272727273,
                "pitch": 55,
                "velocity": 51,
                "duration": 0.08181818181818556,
                "tempo": 120.0
            },
            {
                "start_time": 32.71818181818182,
                "end_time": 32.86818181818182,
                "pitch": 57,
                "velocity": 51,
                "duration": 0.14999999999999858,
                "tempo": 120.0
            },
            {
                "start_time": 33.05227272727272,
                "end_time": 33.779545454545456,
                "pitch": 55,
                "velocity": 51,
                "duration": 0.7272727272727337,
                "tempo": 120.0
            }
        ],
        "Electric Guitar (clean)": [
            {
                "start_time": 0.0,
                "end_time": 0.013636363636363636,
                "pitch": 36,
                "velocity": 4,
                "duration": 0.013636363636363636,
                "tempo": 120.0
            },
            {
                "start_time": 0.013636363636363636,
                "end_time": 0.024999999999999998,
                "pitch": 45,
                "velocity": 4,
                "duration": 0.011363636363636362,
                "tempo": 120.0
            },
            {
                "start_time": 0.024999999999999998,
                "end_time": 0.06363636363636363,
                "pitch": 29,
                "velocity": 4,
                "duration": 0.038636363636363635,
                "tempo": 120.0
            },
            {
                "start_time": 0.06363636363636363,
                "end_time": 0.44545454545454544,
                "pitch": 19,
                "velocity": 4,
                "duration": 0.38181818181818183,
                "tempo": 120.0
            },
            {
                "start_time": 0.44545454545454544,
                "end_time": 0.8045454545454545,
                "pitch": 108,
                "velocity": 4,
                "duration": 0.359090909090909,
                "tempo": 120.0
            },
            {
                "start_time": 0.8045454545454545,
                "end_time": 1.5522727272727272,
                "pitch": 19,
                "velocity": 4,
                "duration": 0.7477272727272728,
                "tempo": 120.0
            },
            {
                "start_time": 1.5522727272727272,
                "end_time": 1.893181818181818,
                "pitch": 108,
                "velocity": 4,
                "duration": 0.34090909090909083,
                "tempo": 120.0
            },
            {
                "start_time": 1.893181818181818,
                "end_time": 2.631818181818182,
                "pitch": 19,
                "velocity": 4,
                "duration": 0.7386363636363638,
                "tempo": 120.0
            },
            {
                "start_time": 2.631818181818182,
                "end_time": 2.965909090909091,
                "pitch": 108,
                "velocity": 4,
                "duration": 0.334090909090909,
                "tempo": 120.0
            },
            {
                "start_time": 2.965909090909091,
                "end_time": 3.6999999999999997,
                "pitch": 19,
                "velocity": 4,
                "duration": 0.7340909090909089,
                "tempo": 120.0
            },
            {
                "start_time": 3.6999999999999997,
                "end_time": 4.034090909090909,
                "pitch": 108,
                "velocity": 4,
                "duration": 0.33409090909090944,
                "tempo": 120.0
            },
            {
                "start_time": 4.034090909090909,
                "end_time": 4.236363636363636,
                "pitch": 28,
                "velocity": 4,
                "duration": 0.20227272727272716,
                "tempo": 120.0
            },
            {
                "start_time": 4.236363636363636,
                "end_time": 4.593181818181818,
                "pitch": 19,
                "velocity": 4,
                "duration": 0.3568181818181815,
                "tempo": 120.0
            },
            {
                "start_time": 4.593181818181818,
                "end_time": 4.779545454545454,
                "pitch": 30,
                "velocity": 4,
                "duration": 0.1863636363636365,
                "tempo": 120.0
            },
            {
                "start_time": 4.779545454545454,
                "end_time": 5.118181818181818,
                "pitch": 21,
                "velocity": 4,
                "duration": 0.33863636363636385,
                "tempo": 120.0
            },
            {
                "start_time": 5.118181818181818,
                "end_time": 5.8568181818181815,
                "pitch": 30,
                "velocity": 4,
                "duration": 0.7386363636363633,
                "tempo": 120.0
            },
            {
                "start_time": 5.8568181818181815,
                "end_time": 6.1909090909090905,
                "pitch": 21,
                "velocity": 4,
                "duration": 0.334090909090909,
                "tempo": 120.0
            },
            {
                "start_time": 6.1909090909090905,
                "end_time": 6.559090909090909,
                "pitch": 30,
                "velocity": 4,
                "duration": 0.36818181818181817,
                "tempo": 120.0
            },
            {
                "start_time": 6.559090909090909,
                "end_time": 6.925,
                "pitch": 20,
                "velocity": 4,
                "duration": 0.3659090909090912,
                "tempo": 120.0
            },
            {
                "start_time": 6.925,
                "end_time": 7.093181818181818,
                "pitch": 30,
                "velocity": 4,
                "duration": 0.168181818181818,
                "tempo": 120.0
            },
            {
                "start_time": 7.093181818181818,
                "end_time": 7.461363636363636,
                "pitch": 20,
                "velocity": 4,
                "duration": 0.36818181818181817,
                "tempo": 120.0
            },
            {
                "start_time": 7.461363636363636,
                "end_time": 7.629545454545454,
                "pitch": 30,
                "velocity": 4,
                "duration": 0.168181818181818,
                "tempo": 120.0
            },
            {
                "start_time": 7.629545454545454,
                "end_time": 8.163636363636364,
                "pitch": 20,
                "velocity": 4,
                "duration": 0.5340909090909101,
                "tempo": 120.0
            },
            {
                "start_time": 8.163636363636364,
                "end_time": 8.463636363636363,
                "pitch": 14,
                "velocity": 4,
                "duration": 0.29999999999999893,
                "tempo": 120.0
            },
            {
                "start_time": 8.463636363636363,
                "end_time": 8.531818181818181,
                "pitch": 21,
                "velocity": 4,
                "duration": 0.06818181818181834,
                "tempo": 120.0
            },
            {
                "start_time": 8.531818181818181,
                "end_time": 9.084090909090909,
                "pitch": 36,
                "velocity": 4,
                "duration": 0.5522727272727277,
                "tempo": 120.0
            },
            {
                "start_time": 9.084090909090909,
                "end_time": 9.418181818181818,
                "pitch": 27,
                "velocity": 4,
                "duration": 0.334090909090909,
                "tempo": 120.0
            },
            {
                "start_time": 9.418181818181818,
                "end_time": 10.102272727272727,
                "pitch": 36,
                "velocity": 4,
                "duration": 0.6840909090909086,
                "tempo": 120.0
            },
            {
                "start_time": 10.102272727272727,
                "end_time": 10.152272727272727,
                "pitch": 38,
                "velocity": 4,
                "duration": 0.05000000000000071,
                "tempo": 120.0
            },
            {
                "start_time": 10.152272727272727,
                "end_time": 10.338636363636363,
                "pitch": 30,
                "velocity": 4,
                "duration": 0.18636363636363562,
                "tempo": 120.0
            },
            {
                "start_time": 10.338636363636363,
                "end_time": 10.493181818181817,
                "pitch": 83,
                "velocity": 4,
                "duration": 0.15454545454545432,
                "tempo": 120.0
            },
            {
                "start_time": 10.493181818181817,
                "end_time": 11.23181818181818,
                "pitch": 91,
                "velocity": 4,
                "duration": 0.7386363636363633,
                "tempo": 120.0
            },
            {
                "start_time": 11.23181818181818,
                "end_time": 11.418181818181818,
                "pitch": 83,
                "velocity": 4,
                "duration": 0.1863636363636374,
                "tempo": 120.0
            },
            {
                "start_time": 11.418181818181818,
                "end_time": 11.570454545454545,
                "pitch": 105,
                "velocity": 4,
                "duration": 0.15227272727272734,
                "tempo": 120.0
            },
            {
                "start_time": 11.570454545454545,
                "end_time": 12.309090909090909,
                "pitch": 17,
                "velocity": 4,
                "duration": 0.7386363636363633,
                "tempo": 120.0
            },
            {
                "start_time": 12.309090909090909,
                "end_time": 12.643181818181818,
                "pitch": 105,
                "velocity": 4,
                "duration": 0.334090909090909,
                "tempo": 120.0
            },
            {
                "start_time": 12.643181818181818,
                "end_time": 12.845454545454546,
                "pitch": 25,
                "velocity": 4,
                "duration": 0.20227272727272805,
                "tempo": 120.0
            },
            {
                "start_time": 12.845454545454546,
                "end_time": 13.388636363636364,
                "pitch": 17,
                "velocity": 4,
                "duration": 0.543181818181818,
                "tempo": 120.0
            },
            {
                "start_time": 13.388636363636364,
                "end_time": 13.404545454545454,
                "pitch": 105,
                "velocity": 4,
                "duration": 0.01590909090909065,
                "tempo": 120.0
            },
            {
                "start_time": 13.404545454545454,
                "end_time": 13.722727272727273,
                "pitch": 37,
                "velocity": 4,
                "duration": 0.31818181818181834,
                "tempo": 120.0
            },
            {
                "start_time": 13.722727272727273,
                "end_time": 14.45681818181818,
                "pitch": 45,
                "velocity": 4,
                "duration": 0.7340909090909076,
                "tempo": 120.0
            },
            {
                "start_time": 14.45681818181818,
                "end_time": 14.795454545454545,
                "pitch": 37,
                "velocity": 4,
                "duration": 0.33863636363636473,
                "tempo": 120.0
            },
            {
                "start_time": 14.795454545454545,
                "end_time": 15.168181818181818,
                "pitch": 45,
                "velocity": 4,
                "duration": 0.372727272727273,
                "tempo": 120.0
            },
            {
                "start_time": 15.168181818181818,
                "end_time": 15.534090909090908,
                "pitch": 36,
                "velocity": 4,
                "duration": 0.3659090909090903,
                "tempo": 120.0
            },
            {
                "start_time": 15.534090909090908,
                "end_time": 15.702272727272726,
                "pitch": 44,
                "velocity": 4,
                "duration": 0.168181818181818,
                "tempo": 120.0
            },
            {
                "start_time": 15.702272727272726,
                "end_time": 17.15681818181818,
                "pitch": 36,
                "velocity": 4,
                "duration": 1.454545454545455,
                "tempo": 120.0
            },
            {
                "start_time": 17.15681818181818,
                "end_time": 17.288636363636364,
                "pitch": 46,
                "velocity": 4,
                "duration": 0.13181818181818272,
                "tempo": 120.0
            },
            {
                "start_time": 17.288636363636364,
                "end_time": 17.304545454545455,
                "pitch": 30,
                "velocity": 4,
                "duration": 0.01590909090909065,
                "tempo": 120.0
            },
            {
                "start_time": 17.304545454545455,
                "end_time": 17.68181818181818,
                "pitch": 21,
                "velocity": 4,
                "duration": 0.3772727272727252,
                "tempo": 120.0
            },
            {
                "start_time": 17.68181818181818,
                "end_time": 18.022727272727273,
                "pitch": 13,
                "velocity": 4,
                "duration": 0.3409090909090935,
                "tempo": 120.0
            },
            {
                "start_time": 18.022727272727273,
                "end_time": 18.759090909090908,
                "pitch": 19,
                "velocity": 4,
                "duration": 0.7363636363636346,
                "tempo": 120.0
            },
            {
                "start_time": 18.759090909090908,
                "end_time": 19.09318181818182,
                "pitch": 13,
                "velocity": 4,
                "duration": 0.33409090909091077,
                "tempo": 120.0
            },
            {
                "start_time": 19.09318181818182,
                "end_time": 19.829545454545453,
                "pitch": 19,
                "velocity": 4,
                "duration": 0.7363636363636346,
                "tempo": 120.0
            },
            {
                "start_time": 19.829545454545453,
                "end_time": 20.168181818181818,
                "pitch": 27,
                "velocity": 4,
                "duration": 0.33863636363636473,
                "tempo": 120.0
            },
            {
                "start_time": 20.168181818181818,
                "end_time": 20.90681818181818,
                "pitch": 19,
                "velocity": 4,
                "duration": 0.7386363636363633,
                "tempo": 120.0
            },
            {
                "start_time": 20.90681818181818,
                "end_time": 21.075,
                "pitch": 27,
                "velocity": 4,
                "duration": 0.168181818181818,
                "tempo": 120.0
            },
            {
                "start_time": 21.075,
                "end_time": 21.24090909090909,
                "pitch": 107,
                "velocity": 4,
                "duration": 0.16590909090908923,
                "tempo": 120.0
            },
            {
                "start_time": 21.24090909090909,
                "end_time": 21.44090909090909,
                "pitch": 27,
                "velocity": 4,
                "duration": 0.20000000000000284,
                "tempo": 120.0
            },
            {
                "start_time": 21.44090909090909,
                "end_time": 21.986363636363635,
                "pitch": 21,
                "velocity": 4,
                "duration": 0.5454545454545432,
                "tempo": 120.0
            },
            {
                "start_time": 21.986363636363635,
                "end_time": 22.018181818181816,
                "pitch": 13,
                "velocity": 4,
                "duration": 0.0318181818181813,
                "tempo": 120.0
            },
            {
                "start_time": 22.018181818181816,
                "end_time": 22.320454545454545,
                "pitch": 23,
                "velocity": 4,
                "duration": 0.30227272727272947,
                "tempo": 120.0
            },
            {
                "start_time": 22.320454545454545,
                "end_time": 23.054545454545455,
                "pitch": 30,
                "velocity": 4,
                "duration": 0.7340909090909093,
                "tempo": 120.0
            },
            {
                "start_time": 23.054545454545455,
                "end_time": 23.395454545454545,
                "pitch": 23,
                "velocity": 4,
                "duration": 0.34090909090908994,
                "tempo": 120.0
            },
            {
                "start_time": 23.395454545454545,
                "end_time": 24.134090909090908,
                "pitch": 30,
                "velocity": 4,
                "duration": 0.7386363636363633,
                "tempo": 120.0
            },
            {
                "start_time": 24.134090909090908,
                "end_time": 24.46818181818182,
                "pitch": 36,
                "velocity": 4,
                "duration": 0.33409090909091077,
                "tempo": 120.0
            },
            {
                "start_time": 24.46818181818182,
                "end_time": 25.211363636363636,
                "pitch": 28,
                "velocity": 4,
                "duration": 0.7431818181818173,
                "tempo": 120.0
            },
            {
                "start_time": 25.211363636363636,
                "end_time": 25.379545454545454,
                "pitch": 36,
                "velocity": 4,
                "duration": 0.168181818181818,
                "tempo": 120.0
            },
            {
                "start_time": 25.379545454545454,
                "end_time": 25.545454545454543,
                "pitch": 20,
                "velocity": 4,
                "duration": 0.16590909090908923,
                "tempo": 120.0
            },
            {
                "start_time": 25.545454545454543,
                "end_time": 25.745454545454542,
                "pitch": 36,
                "velocity": 4,
                "duration": 0.1999999999999993,
                "tempo": 120.0
            },
            {
                "start_time": 25.745454545454542,
                "end_time": 25.795454545454543,
                "pitch": 30,
                "velocity": 4,
                "duration": 0.05000000000000071,
                "tempo": 120.0
            },
            {
                "start_time": 25.795454545454543,
                "end_time": 26.28181818181818,
                "pitch": 36,
                "velocity": 4,
                "duration": 0.4863636363636381,
                "tempo": 120.0
            },
            {
                "start_time": 26.28181818181818,
                "end_time": 26.620454545454542,
                "pitch": 27,
                "velocity": 4,
                "duration": 0.3386363636363612,
                "tempo": 120.0
            },
            {
                "start_time": 26.620454545454542,
                "end_time": 27.35909090909091,
                "pitch": 36,
                "velocity": 4,
                "duration": 0.7386363636363669,
                "tempo": 120.0
            },
            {
                "start_time": 27.35909090909091,
                "end_time": 27.411363636363635,
                "pitch": 27,
                "velocity": 4,
                "duration": 0.052272727272725916,
                "tempo": 120.0
            },
            {
                "start_time": 27.411363636363635,
                "end_time": 27.64772727272727,
                "pitch": 30,
                "velocity": 4,
                "duration": 0.23636363636363455,
                "tempo": 120.0
            },
            {
                "start_time": 27.64772727272727,
                "end_time": 27.7,
                "pitch": 83,
                "velocity": 4,
                "duration": 0.05227272727272947,
                "tempo": 120.0
            },
            {
                "start_time": 27.7,
                "end_time": 28.436363636363634,
                "pitch": 91,
                "velocity": 4,
                "duration": 0.7363636363636346,
                "tempo": 120.0
            },
            {
                "start_time": 28.436363636363634,
                "end_time": 28.720454545454544,
                "pitch": 83,
                "velocity": 4,
                "duration": 0.28409090909091006,
                "tempo": 120.0
            },
            {
                "start_time": 28.720454545454544,
                "end_time": 28.770454545454545,
                "pitch": 105,
                "velocity": 4,
                "duration": 0.05000000000000071,
                "tempo": 120.0
            },
            {
                "start_time": 28.770454545454545,
                "end_time": 29.518181818181816,
                "pitch": 17,
                "velocity": 4,
                "duration": 0.7477272727272712,
                "tempo": 120.0
            },
            {
                "start_time": 29.518181818181816,
                "end_time": 29.849999999999998,
                "pitch": 105,
                "velocity": 4,
                "duration": 0.331818181818182,
                "tempo": 120.0
            },
            {
                "start_time": 29.849999999999998,
                "end_time": 30.052272727272726,
                "pitch": 25,
                "velocity": 4,
                "duration": 0.20227272727272805,
                "tempo": 120.0
            },
            {
                "start_time": 30.052272727272726,
                "end_time": 30.586363636363636,
                "pitch": 17,
                "velocity": 4,
                "duration": 0.5340909090909101,
                "tempo": 120.0
            },
            {
                "start_time": 30.586363636363636,
                "end_time": 30.688636363636363,
                "pitch": 105,
                "velocity": 4,
                "duration": 0.10227272727272663,
                "tempo": 120.0
            },
            {
                "start_time": 30.688636363636363,
                "end_time": 30.927272727272726,
                "pitch": 37,
                "velocity": 4,
                "duration": 0.2386363636363633,
                "tempo": 120.0
            },
            {
                "start_time": 30.927272727272726,
                "end_time": 31.66363636363636,
                "pitch": 45,
                "velocity": 4,
                "duration": 0.7363636363636346,
                "tempo": 120.0
            },
            {
                "start_time": 31.66363636363636,
                "end_time": 32.00454545454545,
                "pitch": 37,
                "velocity": 4,
                "duration": 0.34090909090908994,
                "tempo": 120.0
            },
            {
                "start_time": 32.00454545454545,
                "end_time": 32.37272727272727,
                "pitch": 45,
                "velocity": 4,
                "duration": 0.3681818181818173,
                "tempo": 120.0
            },
            {
                "start_time": 32.37272727272727,
                "end_time": 32.73409090909091,
                "pitch": 36,
                "velocity": 4,
                "duration": 0.36136363636364166,
                "tempo": 120.0
            },
            {
                "start_time": 32.73409090909091,
                "end_time": 32.902272727272724,
                "pitch": 44,
                "velocity": 4,
                "duration": 0.16818181818181444,
                "tempo": 120.0
            },
            {
                "start_time": 32.902272727272724,
                "end_time": 33.268181818181816,
                "pitch": 36,
                "velocity": 4,
                "duration": 0.36590909090909207,
                "tempo": 120.0
            },
            {
                "start_time": 33.268181818181816,
                "end_time": 34.320454545454545,
                "pitch": 44,
                "velocity": 4,
                "duration": 1.0522727272727295,
                "tempo": 120.0
            }
        ]
    }
}