{
    "track_id": "Wonder Boy in Monster Land (FM) - 01 - Main Theme",
    "mood": "happy",
    "instruments": {
        "Acoustic Grand Piano": [
            {
                "start_time": 0.0,
                "end_time": 0.7659090909090909,
                "pitch": 57,
                "velocity": 64,
                "duration": 0.7659090909090909,
                "tempo": 120.0
            },
            {
                "start_time": 0.7840909090909091,
                "end_time": 1.3772727272727272,
                "pitch": 64,
                "velocity": 64,
                "duration": 0.5931818181818181,
                "tempo": 120.0
            },
            {
                "start_time": 1.393181818181818,
                "end_time": 1.5772727272727272,
                "pitch": 64,
                "velocity": 64,
                "duration": 0.18409090909090908,
                "tempo": 120.0
            },
            {
                "start_time": 1.593181818181818,
                "end_time": 2.1704545454545454,
                "pitch": 62,
                "velocity": 64,
                "duration": 0.5772727272727274,
                "tempo": 120.0
            },
            {
                "start_time": 2.186363636363636,
                "end_time": 2.7795454545454543,
                "pitch": 59,
                "velocity": 64,
                "duration": 0.5931818181818183,
                "tempo": 120.0
            },
            {
                "start_time": 2.7977272727272724,
                "end_time": 3.1727272727272724,
                "pitch": 55,
                "velocity": 64,
                "duration": 0.375,
                "tempo": 120.0
            },
            {
                "start_time": 3.1886363636363635,
                "end_time": 3.377272727272727,
                "pitch": 57,
                "velocity": 64,
                "duration": 0.1886363636363635,
                "tempo": 120.0
            },
            {
                "start_time": 3.3954545454545455,
                "end_time": 3.5818181818181816,
                "pitch": 52,
                "velocity": 64,
                "duration": 0.18636363636363606,
                "tempo": 120.0
            },
            {
                "start_time": 3.5999999999999996,
                "end_time": 3.7840909090909087,
                "pitch": 57,
                "velocity": 64,
                "duration": 0.18409090909090908,
                "tempo": 120.0
            },
            {
                "start_time": 3.8,
                "end_time": 3.984090909090909,
                "pitch": 52,
                "velocity": 64,
                "duration": 0.18409090909090908,
                "tempo": 120.0
            },
            {
                "start_time": 4.0,
                "end_time": 4.579545454545454,
                "pitch": 64,
                "velocity": 64,
                "duration": 0.5795454545454541,
                "tempo": 120.0
            },
            {
                "start_time": 4.597727272727273,
                "end_time": 4.786363636363636,
                "pitch": 69,
                "velocity": 64,
                "duration": 0.1886363636363635,
                "tempo": 120.0
            },
            {
                "start_time": 4.802272727272727,
                "end_time": 5.390909090909091,
                "pitch": 73,
                "velocity": 64,
                "duration": 0.5886363636363638,
                "tempo": 120.0
            },
            {
                "start_time": 5.406818181818181,
                "end_time": 6.172727272727273,
                "pitch": 68,
                "velocity": 64,
                "duration": 0.7659090909090915,
                "tempo": 120.0
            },
            {
                "start_time": 6.1909090909090905,
                "end_time": 6.372727272727272,
                "pitch": 64,
                "velocity": 64,
                "duration": 0.18181818181818166,
                "tempo": 120.0
            },
            {
                "start_time": 6.390909090909091,
                "end_time": 6.579545454545454,
                "pitch": 66,
                "velocity": 64,
                "duration": 0.1886363636363635,
                "tempo": 120.0
            },
            {
                "start_time": 6.802272727272727,
                "end_time": 6.986363636363636,
                "pitch": 64,
                "velocity": 64,
                "duration": 0.18409090909090953,
                "tempo": 120.0
            },
            {
                "start_time": 7.002272727272727,
                "end_time": 7.384090909090909,
                "pitch": 62,
                "velocity": 64,
                "duration": 0.38181818181818183,
                "tempo": 120.0
            },
            {
                "start_time": 7.3999999999999995,
                "end_time": 7.579545454545454,
                "pitch": 64,
                "velocity": 64,
                "duration": 0.17954545454545467,
                "tempo": 120.0
            },
            {
                "start_time": 7.595454545454545,
                "end_time": 8.0,
                "pitch": 66,
                "velocity": 64,
                "duration": 0.4045454545454552,
                "tempo": 120.0
            },
            {
                "start_time": 8.018181818181818,
                "end_time": 8.806818181818182,
                "pitch": 64,
                "velocity": 64,
                "duration": 0.788636363636364,
                "tempo": 120.0
            },
            {
                "start_time": 8.822727272727272,
                "end_time": 9.588636363636363,
                "pitch": 61,
                "velocity": 64,
                "duration": 0.7659090909090907,
                "tempo": 120.0
            },
            {
                "start_time": 10.427272727272726,
                "end_time": 10.509090909090908,
                "pitch": 52,
                "velocity": 64,
                "duration": 0.08181818181818201,
                "tempo": 120.0
            },
            {
                "start_time": 10.525,
                "end_time": 10.60681818181818,
                "pitch": 54,
                "velocity": 64,
                "duration": 0.08181818181818024,
                "tempo": 120.0
            },
            {
                "start_time": 10.622727272727273,
                "end_time": 11.997727272727273,
                "pitch": 52,
                "velocity": 64,
                "duration": 1.375,
                "tempo": 120.0
            },
            {
                "start_time": 12.013636363636364,
                "end_time": 12.1,
                "pitch": 64,
                "velocity": 64,
                "duration": 0.08636363636363598,
                "tempo": 120.0
            },
            {
                "start_time": 12.118181818181817,
                "end_time": 12.202272727272726,
                "pitch": 66,
                "velocity": 64,
                "duration": 0.084090909090909,
                "tempo": 120.0
            },
            {
                "start_time": 12.220454545454546,
                "end_time": 12.811363636363636,
                "pitch": 68,
                "velocity": 64,
                "duration": 0.5909090909090899,
                "tempo": 120.0
            },
            {
                "start_time": 12.827272727272726,
                "end_time": 13.625,
                "pitch": 57,
                "velocity": 64,
                "duration": 0.7977272727272737,
                "tempo": 120.0
            },
            {
                "start_time": 13.64090909090909,
                "end_time": 14.229545454545454,
                "pitch": 64,
                "velocity": 64,
                "duration": 0.588636363636363,
                "tempo": 120.0
            },
            {
                "start_time": 14.245454545454544,
                "end_time": 14.429545454545455,
                "pitch": 64,
                "velocity": 64,
                "duration": 0.18409090909091042,
                "tempo": 120.0
            },
            {
                "start_time": 14.445454545454545,
                "end_time": 15.018181818181818,
                "pitch": 62,
                "velocity": 64,
                "duration": 0.5727272727272723,
                "tempo": 120.0
            },
            {
                "start_time": 15.034090909090908,
                "end_time": 15.61590909090909,
                "pitch": 59,
                "velocity": 64,
                "duration": 0.581818181818182,
                "tempo": 120.0
            },
            {
                "start_time": 15.631818181818181,
                "end_time": 16.025,
                "pitch": 55,
                "velocity": 64,
                "duration": 0.39318181818181763,
                "tempo": 120.0
            },
            {
                "start_time": 16.043181818181818,
                "end_time": 16.23181818181818,
                "pitch": 57,
                "velocity": 64,
                "duration": 0.1886363636363626,
                "tempo": 120.0
            },
            {
                "start_time": 16.24772727272727,
                "end_time": 16.436363636363634,
                "pitch": 52,
                "velocity": 64,
                "duration": 0.1886363636363626,
                "tempo": 120.0
            },
            {
                "start_time": 16.452272727272728,
                "end_time": 16.638636363636362,
                "pitch": 57,
                "velocity": 64,
                "duration": 0.18636363636363384,
                "tempo": 120.0
            },
            {
                "start_time": 16.654545454545453,
                "end_time": 16.83863636363636,
                "pitch": 52,
                "velocity": 64,
                "duration": 0.18409090909090864,
                "tempo": 120.0
            },
            {
                "start_time": 16.85681818181818,
                "end_time": 17.436363636363634,
                "pitch": 64,
                "velocity": 64,
                "duration": 0.5795454545454533,
                "tempo": 120.0
            },
            {
                "start_time": 17.452272727272728,
                "end_time": 17.64090909090909,
                "pitch": 69,
                "velocity": 64,
                "duration": 0.1886363636363626,
                "tempo": 120.0
            },
            {
                "start_time": 17.659090909090907,
                "end_time": 18.243181818181817,
                "pitch": 73,
                "velocity": 64,
                "duration": 0.5840909090909108,
                "tempo": 120.0
            },
            {
                "start_time": 18.259090909090908,
                "end_time": 19.025,
                "pitch": 68,
                "velocity": 64,
                "duration": 0.7659090909090907,
                "tempo": 120.0
            },
            {
                "start_time": 19.04090909090909,
                "end_time": 19.224999999999998,
                "pitch": 64,
                "velocity": 64,
                "duration": 0.18409090909090864,
                "tempo": 120.0
            },
            {
                "start_time": 19.24090909090909,
                "end_time": 19.43409090909091,
                "pitch": 66,
                "velocity": 64,
                "duration": 0.19318181818182012,
                "tempo": 120.0
            },
            {
                "start_time": 19.663636363636364,
                "end_time": 19.84318181818182,
                "pitch": 64,
                "velocity": 64,
                "duration": 0.17954545454545467,
                "tempo": 120.0
            },
            {
                "start_time": 19.85909090909091,
                "end_time": 20.23409090909091,
                "pitch": 62,
                "velocity": 64,
                "duration": 0.375,
                "tempo": 120.0
            },
            {
                "start_time": 20.252272727272725,
                "end_time": 20.43181818181818,
                "pitch": 64,
                "velocity": 64,
                "duration": 0.17954545454545467,
                "tempo": 120.0
            },
            {
                "start_time": 20.44772727272727,
                "end_time": 20.852272727272727,
                "pitch": 66,
                "velocity": 64,
                "duration": 0.4045454545454561,
                "tempo": 120.0
            },
            {
                "start_time": 20.870454545454546,
                "end_time": 21.654545454545453,
                "pitch": 64,
                "velocity": 64,
                "duration": 0.7840909090909065,
                "tempo": 120.0
            },
            {
                "start_time": 21.672727272727272,
                "end_time": 22.44772727272727,
                "pitch": 61,
                "velocity": 64,
                "duration": 0.7749999999999986,
                "tempo": 120.0
            },
            {
                "start_time": 23.275,
                "end_time": 23.35681818181818,
                "pitch": 52,
                "velocity": 64,
                "duration": 0.08181818181818201,
                "tempo": 120.0
            },
            {
                "start_time": 23.37272727272727,
                "end_time": 23.454545454545453,
                "pitch": 54,
                "velocity": 64,
                "duration": 0.08181818181818201,
                "tempo": 120.0
            },
            {
                "start_time": 23.470454545454544,
                "end_time": 24.845454545454544,
                "pitch": 52,
                "velocity": 64,
                "duration": 1.375,
                "tempo": 120.0
            },
            {
                "start_time": 24.861363636363635,
                "end_time": 24.94772727272727,
                "pitch": 64,
                "velocity": 64,
                "duration": 0.08636363636363598,
                "tempo": 120.0
            },
            {
                "start_time": 24.96590909090909,
                "end_time": 25.049999999999997,
                "pitch": 66,
                "velocity": 64,
                "duration": 0.08409090909090722,
                "tempo": 120.0
            },
            {
                "start_time": 25.068181818181817,
                "end_time": 25.65681818181818,
                "pitch": 68,
                "velocity": 64,
                "duration": 0.5886363636363647,
                "tempo": 120.0
            },
            {
                "start_time": 25.672727272727272,
                "end_time": 26.261363636363637,
                "pitch": 54,
                "velocity": 64,
                "duration": 0.5886363636363647,
                "tempo": 120.0
            },
            {
                "start_time": 26.279545454545453,
                "end_time": 26.668181818181818,
                "pitch": 54,
                "velocity": 64,
                "duration": 0.38863636363636545,
                "tempo": 120.0
            },
            {
                "start_time": 26.686363636363634,
                "end_time": 26.870454545454542,
                "pitch": 56,
                "velocity": 64,
                "duration": 0.18409090909090864,
                "tempo": 120.0
            },
            {
                "start_time": 26.886363636363637,
                "end_time": 27.270454545454545,
                "pitch": 57,
                "velocity": 64,
                "duration": 0.38409090909090793,
                "tempo": 120.0
            },
            {
                "start_time": 27.286363636363635,
                "end_time": 27.86590909090909,
                "pitch": 52,
                "velocity": 64,
                "duration": 0.5795454545454533,
                "tempo": 120.0
            },
            {
                "start_time": 27.884090909090908,
                "end_time": 28.27272727272727,
                "pitch": 52,
                "velocity": 64,
                "duration": 0.3886363636363619,
                "tempo": 120.0
            },
            {
                "start_time": 28.29090909090909,
                "end_time": 28.472727272727273,
                "pitch": 56,
                "velocity": 64,
                "duration": 0.18181818181818343,
                "tempo": 120.0
            },
            {
                "start_time": 28.49090909090909,
                "end_time": 28.875,
                "pitch": 57,
                "velocity": 64,
                "duration": 0.3840909090909115,
                "tempo": 120.0
            },
            {
                "start_time": 28.893181818181816,
                "end_time": 29.477272727272727,
                "pitch": 50,
                "velocity": 64,
                "duration": 0.5840909090909108,
                "tempo": 120.0
            },
            {
                "start_time": 29.493181818181817,
                "end_time": 29.879545454545454,
                "pitch": 50,
                "velocity": 64,
                "duration": 0.3863636363636367,
                "tempo": 120.0
            },
            {
                "start_time": 29.895454545454545,
                "end_time": 30.079545454545453,
                "pitch": 56,
                "velocity": 64,
                "duration": 0.18409090909090864,
                "tempo": 120.0
            },
            {
                "start_time": 30.095454545454544,
                "end_time": 30.470454545454544,
                "pitch": 57,
                "velocity": 64,
                "duration": 0.375,
                "tempo": 120.0
            },
            {
                "start_time": 30.486363636363635,
                "end_time": 30.670454545454543,
                "pitch": 56,
                "velocity": 64,
                "duration": 0.18409090909090864,
                "tempo": 120.0
            },
            {
                "start_time": 30.686363636363634,
                "end_time": 31.075,
                "pitch": 54,
                "velocity": 64,
                "duration": 0.38863636363636545,
                "tempo": 120.0
            },
            {
                "start_time": 31.093181818181815,
                "end_time": 31.477272727272727,
                "pitch": 49,
                "velocity": 64,
                "duration": 0.3840909090909115,
                "tempo": 120.0
            },
            {
                "start_time": 31.493181818181817,
                "end_time": 31.575,
                "pitch": 50,
                "velocity": 64,
                "duration": 0.08181818181818201,
                "tempo": 120.0
            },
            {
                "start_time": 31.690909090909088,
                "end_time": 32.07272727272727,
                "pitch": 49,
                "velocity": 64,
                "duration": 0.3818181818181827,
                "tempo": 120.0
            },
            {
                "start_time": 32.090909090909086,
                "end_time": 32.68636363636364,
                "pitch": 47,
                "velocity": 64,
                "duration": 0.595454545454551,
                "tempo": 120.0
            },
            {
                "start_time": 32.70227272727273,
                "end_time": 33.086363636363636,
                "pitch": 54,
                "velocity": 64,
                "duration": 0.38409090909090793,
                "tempo": 120.0
            },
            {
                "start_time": 33.10454545454545,
                "end_time": 33.28636363636363,
                "pitch": 52,
                "velocity": 64,
                "duration": 0.18181818181817988,
                "tempo": 120.0
            },
            {
                "start_time": 33.304545454545455,
                "end_time": 33.679545454545455,
                "pitch": 50,
                "velocity": 64,
                "duration": 0.375,
                "tempo": 120.0
            },
            {
                "start_time": 33.695454545454545,
                "end_time": 34.29090909090909,
                "pitch": 49,
                "velocity": 64,
                "duration": 0.5954545454545439,
                "tempo": 120.0
            },
            {
                "start_time": 34.30681818181818,
                "end_time": 34.69090909090909,
                "pitch": 57,
                "velocity": 64,
                "duration": 0.38409090909090793,
                "tempo": 120.0
            },
            {
                "start_time": 34.70681818181818,
                "end_time": 34.89090909090909,
                "pitch": 56,
                "velocity": 64,
                "duration": 0.1840909090909122,
                "tempo": 120.0
            },
            {
                "start_time": 34.90681818181818,
                "end_time": 35.29090909090909,
                "pitch": 49,
                "velocity": 64,
                "duration": 0.38409090909090793,
                "tempo": 120.0
            },
            {
                "start_time": 35.30681818181818,
                "end_time": 36.09318181818182,
                "pitch": 47,
                "velocity": 64,
                "duration": 0.7863636363636388,
                "tempo": 120.0
            },
            {
                "start_time": 36.10909090909091,
                "end_time": 36.893181818181816,
                "pitch": 49,
                "velocity": 64,
                "duration": 0.7840909090909065,
                "tempo": 120.0
            },
            {
                "start_time": 36.90909090909091,
                "end_time": 37.69318181818181,
                "pitch": 51,
                "velocity": 64,
                "duration": 0.7840909090909065,
                "tempo": 120.0
            },
            {
                "start_time": 37.70909090909091,
                "end_time": 38.49545454545454,
                "pitch": 52,
                "velocity": 64,
                "duration": 0.7863636363636317,
                "tempo": 120.0
            },
            {
                "start_time": 38.51136363636363,
                "end_time": 38.89545454545454,
                "pitch": 47,
                "velocity": 64,
                "duration": 0.38409090909090793,
                "tempo": 120.0
            },
            {
                "start_time": 38.91136363636363,
                "end_time": 39.29545454545455,
                "pitch": 49,
                "velocity": 64,
                "duration": 0.38409090909091503,
                "tempo": 120.0
            },
            {
                "start_time": 39.31136363636364,
                "end_time": 39.695454545454545,
                "pitch": 51,
                "velocity": 64,
                "duration": 0.38409090909090793,
                "tempo": 120.0
            },
            {
                "start_time": 39.711363636363636,
                "end_time": 40.09772727272727,
                "pitch": 52,
                "velocity": 64,
                "duration": 0.38636363636363313,
                "tempo": 120.0
            },
            {
                "start_time": 40.11363636363636,
                "end_time": 40.49772727272727,
                "pitch": 47,
                "velocity": 64,
                "duration": 0.38409090909090793,
                "tempo": 120.0
            },
            {
                "start_time": 40.51590909090909,
                "end_time": 40.89772727272727,
                "pitch": 49,
                "velocity": 64,
                "duration": 0.3818181818181827,
                "tempo": 120.0
            },
            {
                "start_time": 40.91590909090909,
                "end_time": 41.29772727272727,
                "pitch": 51,
                "velocity": 64,
                "duration": 0.3818181818181827,
                "tempo": 120.0
            },
            {
                "start_time": 41.31590909090909,
                "end_time": 41.69772727272727,
                "pitch": 52,
                "velocity": 64,
                "duration": 0.3818181818181827,
                "tempo": 120.0
            },
            {
                "start_time": 41.715909090909086,
                "end_time": 42.5,
                "pitch": 47,
                "velocity": 64,
                "duration": 0.7840909090909136,
                "tempo": 120.0
            },
            {
                "start_time": 42.518181818181816,
                "end_time": 43.293181818181814,
                "pitch": 49,
                "velocity": 64,
                "duration": 0.7749999999999986,
                "tempo": 120.0
            },
            {
                "start_time": 43.309090909090905,
                "end_time": 44.09318181818182,
                "pitch": 50,
                "velocity": 64,
                "duration": 0.7840909090909136,
                "tempo": 120.0
            },
            {
                "start_time": 44.10909090909091,
                "end_time": 44.89545454545454,
                "pitch": 52,
                "velocity": 64,
                "duration": 0.7863636363636317,
                "tempo": 120.0
            },
            {
                "start_time": 44.91136363636363,
                "end_time": 45.29545454545455,
                "pitch": 47,
                "velocity": 64,
                "duration": 0.38409090909091503,
                "tempo": 120.0
            },
            {
                "start_time": 45.31136363636364,
                "end_time": 45.70681818181818,
                "pitch": 49,
                "velocity": 64,
                "duration": 0.39545454545454106,
                "tempo": 120.0
            },
            {
                "start_time": 45.72272727272727,
                "end_time": 46.09772727272727,
                "pitch": 50,
                "velocity": 64,
                "duration": 0.375,
                "tempo": 120.0
            },
            {
                "start_time": 46.11590909090909,
                "end_time": 46.49772727272727,
                "pitch": 52,
                "velocity": 64,
                "duration": 0.3818181818181756,
                "tempo": 120.0
            },
            {
                "start_time": 46.51590909090909,
                "end_time": 46.9,
                "pitch": 54,
                "velocity": 64,
                "duration": 0.38409090909090793,
                "tempo": 120.0
            },
            {
                "start_time": 46.918181818181814,
                "end_time": 47.30227272727272,
                "pitch": 56,
                "velocity": 64,
                "duration": 0.38409090909090793,
                "tempo": 120.0
            },
            {
                "start_time": 47.31818181818181,
                "end_time": 47.711363636363636,
                "pitch": 57,
                "velocity": 64,
                "duration": 0.39318181818182296,
                "tempo": 120.0
            },
            {
                "start_time": 47.72954545454545,
                "end_time": 48.10454545454545,
                "pitch": 59,
                "velocity": 64,
                "duration": 0.375,
                "tempo": 120.0
            }
        ],
        "Electric Guitar (clean)": [
            {
                "start_time": 0.0,
                "end_time": 0.3659090909090909,
                "pitch": 33,
                "velocity": 51,
                "duration": 0.3659090909090909,
                "tempo": 120.0
            },
            {
                "start_time": 0.3840909090909091,
                "end_time": 0.7659090909090909,
                "pitch": 45,
                "velocity": 51,
                "duration": 0.3818181818181818,
                "tempo": 120.0
            },
            {
                "start_time": 0.7840909090909091,
                "end_time": 0.9704545454545455,
                "pitch": 33,
                "velocity": 51,
                "duration": 0.1863636363636364,
                "tempo": 120.0
            },
            {
                "start_time": 0.9886363636363635,
                "end_time": 1.1772727272727272,
                "pitch": 45,
                "velocity": 51,
                "duration": 0.1886363636363637,
                "tempo": 120.0
            },
            {
                "start_time": 1.1931818181818181,
                "end_time": 1.3772727272727272,
                "pitch": 33,
                "velocity": 51,
                "duration": 0.18409090909090908,
                "tempo": 120.0
            },
            {
                "start_time": 1.393181818181818,
                "end_time": 1.5772727272727272,
                "pitch": 45,
                "velocity": 51,
                "duration": 0.18409090909090908,
                "tempo": 120.0
            },
            {
                "start_time": 1.593181818181818,
                "end_time": 1.9704545454545455,
                "pitch": 31,
                "velocity": 51,
                "duration": 0.3772727272727274,
                "tempo": 120.0
            },
            {
                "start_time": 1.9863636363636363,
                "end_time": 2.1704545454545454,
                "pitch": 43,
                "velocity": 51,
                "duration": 0.18409090909090908,
                "tempo": 120.0
            },
            {
                "start_time": 2.186363636363636,
                "end_time": 2.5749999999999997,
                "pitch": 45,
                "velocity": 51,
                "duration": 0.38863636363636367,
                "tempo": 120.0
            },
            {
                "start_time": 2.590909090909091,
                "end_time": 2.7795454545454543,
                "pitch": 47,
                "velocity": 51,
                "duration": 0.1886363636363635,
                "tempo": 120.0
            },
            {
                "start_time": 2.7977272727272724,
                "end_time": 3.1727272727272724,
                "pitch": 43,
                "velocity": 51,
                "duration": 0.375,
                "tempo": 120.0
            },
            {
                "start_time": 3.1886363636363635,
                "end_time": 3.5818181818181816,
                "pitch": 33,
                "velocity": 51,
                "duration": 0.3931818181818181,
                "tempo": 120.0
            },
            {
                "start_time": 3.5999999999999996,
                "end_time": 3.984090909090909,
                "pitch": 45,
                "velocity": 51,
                "duration": 0.38409090909090926,
                "tempo": 120.0
            },
            {
                "start_time": 4.0,
                "end_time": 4.179545454545455,
                "pitch": 33,
                "velocity": 51,
                "duration": 0.17954545454545467,
                "tempo": 120.0
            },
            {
                "start_time": 4.195454545454545,
                "end_time": 4.375,
                "pitch": 45,
                "velocity": 51,
                "duration": 0.17954545454545467,
                "tempo": 120.0
            },
            {
                "start_time": 4.393181818181818,
                "end_time": 4.579545454545454,
                "pitch": 33,
                "velocity": 51,
                "duration": 0.1863636363636365,
                "tempo": 120.0
            },
            {
                "start_time": 4.597727272727273,
                "end_time": 4.786363636363636,
                "pitch": 45,
                "velocity": 51,
                "duration": 0.1886363636363635,
                "tempo": 120.0
            },
            {
                "start_time": 4.802272727272727,
                "end_time": 5.1886363636363635,
                "pitch": 37,
                "velocity": 51,
                "duration": 0.3863636363636367,
                "tempo": 120.0
            },
            {
                "start_time": 5.204545454545454,
                "end_time": 5.390909090909091,
                "pitch": 37,
                "velocity": 51,
                "duration": 0.1863636363636365,
                "tempo": 120.0
            },
            {
                "start_time": 5.406818181818181,
                "end_time": 5.781818181818181,
                "pitch": 44,
                "velocity": 51,
                "duration": 0.375,
                "tempo": 120.0
            },
            {
                "start_time": 5.797727272727273,
                "end_time": 5.972727272727273,
                "pitch": 49,
                "velocity": 51,
                "duration": 0.17499999999999982,
                "tempo": 120.0
            },
            {
                "start_time": 5.99090909090909,
                "end_time": 6.372727272727272,
                "pitch": 37,
                "velocity": 51,
                "duration": 0.38181818181818183,
                "tempo": 120.0
            },
            {
                "start_time": 6.390909090909091,
                "end_time": 6.579545454545454,
                "pitch": 38,
                "velocity": 51,
                "duration": 0.1886363636363635,
                "tempo": 120.0
            },
            {
                "start_time": 6.595454545454545,
                "end_time": 6.784090909090909,
                "pitch": 38,
                "velocity": 51,
                "duration": 0.18863636363636438,
                "tempo": 120.0
            },
            {
                "start_time": 6.802272727272727,
                "end_time": 6.986363636363636,
                "pitch": 33,
                "velocity": 51,
                "duration": 0.18409090909090953,
                "tempo": 120.0
            },
            {
                "start_time": 7.002272727272727,
                "end_time": 7.186363636363636,
                "pitch": 38,
                "velocity": 51,
                "duration": 0.18409090909090864,
                "tempo": 120.0
            },
            {
                "start_time": 7.3999999999999995,
                "end_time": 7.579545454545454,
                "pitch": 38,
                "velocity": 51,
                "duration": 0.17954545454545467,
                "tempo": 120.0
            },
            {
                "start_time": 7.595454545454545,
                "end_time": 8.0,
                "pitch": 33,
                "velocity": 51,
                "duration": 0.4045454545454552,
                "tempo": 120.0
            },
            {
                "start_time": 8.018181818181818,
                "end_time": 8.202272727272726,
                "pitch": 37,
                "velocity": 51,
                "duration": 0.18409090909090864,
                "tempo": 120.0
            },
            {
                "start_time": 8.220454545454546,
                "end_time": 8.404545454545454,
                "pitch": 32,
                "velocity": 51,
                "duration": 0.18409090909090864,
                "tempo": 120.0
            },
            {
                "start_time": 8.420454545454545,
                "end_time": 8.604545454545454,
                "pitch": 37,
                "velocity": 51,
                "duration": 0.18409090909090864,
                "tempo": 120.0
            },
            {
                "start_time": 8.622727272727273,
                "end_time": 8.806818181818182,
                "pitch": 32,
                "velocity": 51,
                "duration": 0.18409090909090864,
                "tempo": 120.0
            },
            {
                "start_time": 8.822727272727272,
                "end_time": 9.006818181818181,
                "pitch": 45,
                "velocity": 51,
                "duration": 0.18409090909090864,
                "tempo": 120.0
            },
            {
                "start_time": 9.022727272727272,
                "end_time": 9.206818181818182,
                "pitch": 44,
                "velocity": 51,
                "duration": 0.18409090909091042,
                "tempo": 120.0
            },
            {
                "start_time": 9.222727272727273,
                "end_time": 9.397727272727272,
                "pitch": 42,
                "velocity": 51,
                "duration": 0.17499999999999893,
                "tempo": 120.0
            },
            {
                "start_time": 9.413636363636364,
                "end_time": 9.588636363636363,
                "pitch": 40,
                "velocity": 51,
                "duration": 0.17499999999999893,
                "tempo": 120.0
            },
            {
                "start_time": 9.604545454545454,
                "end_time": 9.793181818181818,
                "pitch": 35,
                "velocity": 51,
                "duration": 0.18863636363636438,
                "tempo": 120.0
            },
            {
                "start_time": 9.811363636363636,
                "end_time": 10.0,
                "pitch": 47,
                "velocity": 51,
                "duration": 0.18863636363636438,
                "tempo": 120.0
            },
            {
                "start_time": 10.01590909090909,
                "end_time": 10.204545454545453,
                "pitch": 37,
                "velocity": 51,
                "duration": 0.1886363636363626,
                "tempo": 120.0
            },
            {
                "start_time": 10.222727272727273,
                "end_time": 10.411363636363635,
                "pitch": 49,
                "velocity": 51,
                "duration": 0.1886363636363626,
                "tempo": 120.0
            },
            {
                "start_time": 10.427272727272726,
                "end_time": 10.60681818181818,
                "pitch": 38,
                "velocity": 51,
                "duration": 0.17954545454545467,
                "tempo": 120.0
            },
            {
                "start_time": 10.622727272727273,
                "end_time": 10.802272727272726,
                "pitch": 50,
                "velocity": 51,
                "duration": 0.1795454545454529,
                "tempo": 120.0
            },
            {
                "start_time": 10.820454545454545,
                "end_time": 11.002272727272727,
                "pitch": 40,
                "velocity": 51,
                "duration": 0.18181818181818166,
                "tempo": 120.0
            },
            {
                "start_time": 11.020454545454545,
                "end_time": 11.202272727272726,
                "pitch": 52,
                "velocity": 51,
                "duration": 0.18181818181818166,
                "tempo": 120.0
            },
            {
                "start_time": 11.218181818181817,
                "end_time": 11.399999999999999,
                "pitch": 42,
                "velocity": 51,
                "duration": 0.18181818181818166,
                "tempo": 120.0
            },
            {
                "start_time": 11.415909090909091,
                "end_time": 11.595454545454546,
                "pitch": 54,
                "velocity": 51,
                "duration": 0.17954545454545467,
                "tempo": 120.0
            },
            {
                "start_time": 11.611363636363636,
                "end_time": 11.795454545454545,
                "pitch": 44,
                "velocity": 51,
                "duration": 0.18409090909090864,
                "tempo": 120.0
            },
            {
                "start_time": 11.813636363636363,
                "end_time": 11.997727272727273,
                "pitch": 56,
                "velocity": 51,
                "duration": 0.18409090909091042,
                "tempo": 120.0
            },
            {
                "start_time": 12.013636363636364,
                "end_time": 12.202272727272726,
                "pitch": 45,
                "velocity": 51,
                "duration": 0.1886363636363626,
                "tempo": 120.0
            },
            {
                "start_time": 12.220454545454546,
                "end_time": 12.409090909090908,
                "pitch": 57,
                "velocity": 51,
                "duration": 0.1886363636363626,
                "tempo": 120.0
            },
            {
                "start_time": 12.424999999999999,
                "end_time": 12.60909090909091,
                "pitch": 47,
                "velocity": 51,
                "duration": 0.18409090909091042,
                "tempo": 120.0
            },
            {
                "start_time": 12.627272727272727,
                "end_time": 12.811363636363636,
                "pitch": 40,
                "velocity": 51,
                "duration": 0.18409090909090864,
                "tempo": 120.0
            },
            {
                "start_time": 12.827272727272726,
                "end_time": 13.222727272727273,
                "pitch": 33,
                "velocity": 51,
                "duration": 0.3954545454545464,
                "tempo": 120.0
            },
            {
                "start_time": 13.238636363636363,
                "end_time": 13.625,
                "pitch": 45,
                "velocity": 51,
                "duration": 0.3863636363636367,
                "tempo": 120.0
            },
            {
                "start_time": 13.64090909090909,
                "end_time": 13.827272727272726,
                "pitch": 33,
                "velocity": 51,
                "duration": 0.18636363636363562,
                "tempo": 120.0
            },
            {
                "start_time": 13.843181818181817,
                "end_time": 14.027272727272727,
                "pitch": 45,
                "velocity": 51,
                "duration": 0.18409090909091042,
                "tempo": 120.0
            },
            {
                "start_time": 14.045454545454545,
                "end_time": 14.229545454545454,
                "pitch": 33,
                "velocity": 51,
                "duration": 0.18409090909090864,
                "tempo": 120.0
            },
            {
                "start_time": 14.245454545454544,
                "end_time": 14.429545454545455,
                "pitch": 45,
                "velocity": 51,
                "duration": 0.18409090909091042,
                "tempo": 120.0
            },
            {
                "start_time": 14.445454545454545,
                "end_time": 14.813636363636363,
                "pitch": 31,
                "velocity": 51,
                "duration": 0.3681818181818173,
                "tempo": 120.0
            },
            {
                "start_time": 14.829545454545453,
                "end_time": 15.018181818181818,
                "pitch": 43,
                "velocity": 51,
                "duration": 0.18863636363636438,
                "tempo": 120.0
            },
            {
                "start_time": 15.034090909090908,
                "end_time": 15.418181818181818,
                "pitch": 45,
                "velocity": 51,
                "duration": 0.3840909090909097,
                "tempo": 120.0
            },
            {
                "start_time": 15.434090909090909,
                "end_time": 15.61590909090909,
                "pitch": 47,
                "velocity": 51,
                "duration": 0.18181818181818166,
                "tempo": 120.0
            },
            {
                "start_time": 15.631818181818181,
                "end_time": 16.025,
                "pitch": 43,
                "velocity": 51,
                "duration": 0.39318181818181763,
                "tempo": 120.0
            },
            {
                "start_time": 16.043181818181818,
                "end_time": 16.436363636363634,
                "pitch": 33,
                "velocity": 51,
                "duration": 0.39318181818181586,
                "tempo": 120.0
            },
            {
                "start_time": 16.452272727272728,
                "end_time": 16.83863636363636,
                "pitch": 45,
                "velocity": 51,
                "duration": 0.38636363636363313,
                "tempo": 120.0
            },
            {
                "start_time": 16.85681818181818,
                "end_time": 17.036363636363635,
                "pitch": 33,
                "velocity": 51,
                "duration": 0.17954545454545467,
                "tempo": 120.0
            },
            {
                "start_time": 17.052272727272726,
                "end_time": 17.23181818181818,
                "pitch": 45,
                "velocity": 51,
                "duration": 0.17954545454545467,
                "tempo": 120.0
            },
            {
                "start_time": 17.24772727272727,
                "end_time": 17.436363636363634,
                "pitch": 33,
                "velocity": 51,
                "duration": 0.1886363636363626,
                "tempo": 120.0
            },
            {
                "start_time": 17.452272727272728,
                "end_time": 17.64090909090909,
                "pitch": 45,
                "velocity": 51,
                "duration": 0.1886363636363626,
                "tempo": 120.0
            },
            {
                "start_time": 17.659090909090907,
                "end_time": 18.043181818181818,
                "pitch": 37,
                "velocity": 51,
                "duration": 0.3840909090909115,
                "tempo": 120.0
            },
            {
                "start_time": 18.05909090909091,
                "end_time": 18.243181818181817,
                "pitch": 37,
                "velocity": 51,
                "duration": 0.18409090909090864,
                "tempo": 120.0
            },
            {
                "start_time": 18.259090909090908,
                "end_time": 18.634090909090908,
                "pitch": 44,
                "velocity": 51,
                "duration": 0.375,
                "tempo": 120.0
            },
            {
                "start_time": 18.65,
                "end_time": 18.825,
                "pitch": 49,
                "velocity": 51,
                "duration": 0.1750000000000007,
                "tempo": 120.0
            },
            {
                "start_time": 18.84090909090909,
                "end_time": 19.224999999999998,
                "pitch": 37,
                "velocity": 51,
                "duration": 0.38409090909090793,
                "tempo": 120.0
            },
            {
                "start_time": 19.24090909090909,
                "end_time": 19.43409090909091,
                "pitch": 38,
                "velocity": 51,
                "duration": 0.19318181818182012,
                "tempo": 120.0
            },
            {
                "start_time": 19.452272727272728,
                "end_time": 19.645454545454545,
                "pitch": 38,
                "velocity": 51,
                "duration": 0.19318181818181657,
                "tempo": 120.0
            },
            {
                "start_time": 19.663636363636364,
                "end_time": 19.84318181818182,
                "pitch": 33,
                "velocity": 51,
                "duration": 0.17954545454545467,
                "tempo": 120.0
            },
            {
                "start_time": 19.85909090909091,
                "end_time": 20.038636363636364,
                "pitch": 38,
                "velocity": 51,
                "duration": 0.17954545454545467,
                "tempo": 120.0
            },
            {
                "start_time": 20.252272727272725,
                "end_time": 20.43181818181818,
                "pitch": 38,
                "velocity": 51,
                "duration": 0.17954545454545467,
                "tempo": 120.0
            },
            {
                "start_time": 20.44772727272727,
                "end_time": 20.852272727272727,
                "pitch": 33,
                "velocity": 51,
                "duration": 0.4045454545454561,
                "tempo": 120.0
            },
            {
                "start_time": 20.870454545454546,
                "end_time": 21.052272727272726,
                "pitch": 37,
                "velocity": 51,
                "duration": 0.18181818181817988,
                "tempo": 120.0
            },
            {
                "start_time": 21.070454545454545,
                "end_time": 21.252272727272725,
                "pitch": 32,
                "velocity": 51,
                "duration": 0.18181818181817988,
                "tempo": 120.0
            },
            {
                "start_time": 21.270454545454545,
                "end_time": 21.454545454545453,
                "pitch": 37,
                "velocity": 51,
                "duration": 0.18409090909090864,
                "tempo": 120.0
            },
            {
                "start_time": 21.470454545454544,
                "end_time": 21.654545454545453,
                "pitch": 32,
                "velocity": 51,
                "duration": 0.18409090909090864,
                "tempo": 120.0
            },
            {
                "start_time": 21.672727272727272,
                "end_time": 21.85681818181818,
                "pitch": 45,
                "velocity": 51,
                "duration": 0.18409090909090864,
                "tempo": 120.0
            },
            {
                "start_time": 21.87272727272727,
                "end_time": 22.05681818181818,
                "pitch": 44,
                "velocity": 51,
                "duration": 0.18409090909090864,
                "tempo": 120.0
            },
            {
                "start_time": 22.07272727272727,
                "end_time": 22.252272727272725,
                "pitch": 42,
                "velocity": 51,
                "duration": 0.17954545454545467,
                "tempo": 120.0
            },
            {
                "start_time": 22.268181818181816,
                "end_time": 22.44772727272727,
                "pitch": 40,
                "velocity": 51,
                "duration": 0.17954545454545467,
                "tempo": 120.0
            },
            {
                "start_time": 22.46363636363636,
                "end_time": 22.647727272727273,
                "pitch": 35,
                "velocity": 51,
                "duration": 0.1840909090909122,
                "tempo": 120.0
            },
            {
                "start_time": 22.663636363636364,
                "end_time": 22.847727272727273,
                "pitch": 47,
                "velocity": 51,
                "duration": 0.18409090909090864,
                "tempo": 120.0
            },
            {
                "start_time": 22.863636363636363,
                "end_time": 23.052272727272726,
                "pitch": 37,
                "velocity": 51,
                "duration": 0.1886363636363626,
                "tempo": 120.0
            },
            {
                "start_time": 23.070454545454545,
                "end_time": 23.259090909090908,
                "pitch": 49,
                "velocity": 51,
                "duration": 0.1886363636363626,
                "tempo": 120.0
            },
            {
                "start_time": 23.275,
                "end_time": 23.454545454545453,
                "pitch": 38,
                "velocity": 51,
                "duration": 0.17954545454545467,
                "tempo": 120.0
            },
            {
                "start_time": 23.470454545454544,
                "end_time": 23.65,
                "pitch": 50,
                "velocity": 51,
                "duration": 0.17954545454545467,
                "tempo": 120.0
            },
            {
                "start_time": 23.668181818181818,
                "end_time": 23.847727272727273,
                "pitch": 40,
                "velocity": 51,
                "duration": 0.17954545454545467,
                "tempo": 120.0
            },
            {
                "start_time": 23.863636363636363,
                "end_time": 24.043181818181818,
                "pitch": 52,
                "velocity": 51,
                "duration": 0.17954545454545467,
                "tempo": 120.0
            },
            {
                "start_time": 24.05909090909091,
                "end_time": 24.24772727272727,
                "pitch": 42,
                "velocity": 51,
                "duration": 0.1886363636363626,
                "tempo": 120.0
            },
            {
                "start_time": 24.26590909090909,
                "end_time": 24.454545454545453,
                "pitch": 54,
                "velocity": 51,
                "duration": 0.1886363636363626,
                "tempo": 120.0
            },
            {
                "start_time": 24.470454545454544,
                "end_time": 24.65,
                "pitch": 44,
                "velocity": 51,
                "duration": 0.17954545454545467,
                "tempo": 120.0
            },
            {
                "start_time": 24.66590909090909,
                "end_time": 24.845454545454544,
                "pitch": 56,
                "velocity": 51,
                "duration": 0.17954545454545467,
                "tempo": 120.0
            },
            {
                "start_time": 24.861363636363635,
                "end_time": 25.049999999999997,
                "pitch": 45,
                "velocity": 51,
                "duration": 0.1886363636363626,
                "tempo": 120.0
            },
            {
                "start_time": 25.068181818181817,
                "end_time": 25.25681818181818,
                "pitch": 57,
                "velocity": 51,
                "duration": 0.1886363636363626,
                "tempo": 120.0
            },
            {
                "start_time": 25.27272727272727,
                "end_time": 25.456818181818182,
                "pitch": 47,
                "velocity": 51,
                "duration": 0.1840909090909122,
                "tempo": 120.0
            },
            {
                "start_time": 25.472727272727273,
                "end_time": 25.65681818181818,
                "pitch": 40,
                "velocity": 51,
                "duration": 0.18409090909090864,
                "tempo": 120.0
            },
            {
                "start_time": 25.672727272727272,
                "end_time": 25.85681818181818,
                "pitch": 38,
                "velocity": 51,
                "duration": 0.18409090909090864,
                "tempo": 120.0
            },
            {
                "start_time": 25.87272727272727,
                "end_time": 26.05681818181818,
                "pitch": 38,
                "velocity": 51,
                "duration": 0.18409090909090864,
                "tempo": 120.0
            },
            {
                "start_time": 26.07272727272727,
                "end_time": 26.261363636363637,
                "pitch": 38,
                "velocity": 51,
                "duration": 0.18863636363636616,
                "tempo": 120.0
            },
            {
                "start_time": 26.279545454545453,
                "end_time": 26.46590909090909,
                "pitch": 38,
                "velocity": 51,
                "duration": 0.1863636363636374,
                "tempo": 120.0
            },
            {
                "start_time": 26.48409090909091,
                "end_time": 26.668181818181818,
                "pitch": 38,
                "velocity": 51,
                "duration": 0.18409090909090864,
                "tempo": 120.0
            },
            {
                "start_time": 26.686363636363634,
                "end_time": 26.870454545454542,
                "pitch": 45,
                "velocity": 51,
                "duration": 0.18409090909090864,
                "tempo": 120.0
            },
            {
                "start_time": 26.886363636363637,
                "end_time": 27.070454545454545,
                "pitch": 38,
                "velocity": 51,
                "duration": 0.18409090909090864,
                "tempo": 120.0
            },
            {
                "start_time": 27.086363636363636,
                "end_time": 27.270454545454545,
                "pitch": 45,
                "velocity": 51,
                "duration": 0.18409090909090864,
                "tempo": 120.0
            },
            {
                "start_time": 27.286363636363635,
                "end_time": 27.46590909090909,
                "pitch": 37,
                "velocity": 51,
                "duration": 0.17954545454545467,
                "tempo": 120.0
            },
            {
                "start_time": 27.48181818181818,
                "end_time": 27.663636363636364,
                "pitch": 37,
                "velocity": 51,
                "duration": 0.18181818181818343,
                "tempo": 120.0
            },
            {
                "start_time": 27.679545454545455,
                "end_time": 27.86590909090909,
                "pitch": 37,
                "velocity": 51,
                "duration": 0.18636363636363384,
                "tempo": 120.0
            },
            {
                "start_time": 27.884090909090908,
                "end_time": 28.07272727272727,
                "pitch": 37,
                "velocity": 51,
                "duration": 0.1886363636363626,
                "tempo": 120.0
            },
            {
                "start_time": 28.08863636363636,
                "end_time": 28.27272727272727,
                "pitch": 37,
                "velocity": 51,
                "duration": 0.18409090909090864,
                "tempo": 120.0
            },
            {
                "start_time": 28.29090909090909,
                "end_time": 28.472727272727273,
                "pitch": 44,
                "velocity": 51,
                "duration": 0.18181818181818343,
                "tempo": 120.0
            },
            {
                "start_time": 28.49090909090909,
                "end_time": 28.674999999999997,
                "pitch": 37,
                "velocity": 51,
                "duration": 0.18409090909090864,
                "tempo": 120.0
            },
            {
                "start_time": 28.690909090909088,
                "end_time": 28.875,
                "pitch": 44,
                "velocity": 51,
                "duration": 0.1840909090909122,
                "tempo": 120.0
            },
            {
                "start_time": 28.893181818181816,
                "end_time": 29.075,
                "pitch": 35,
                "velocity": 51,
                "duration": 0.18181818181818343,
                "tempo": 120.0
            },
            {
                "start_time": 29.093181818181815,
                "end_time": 29.275,
                "pitch": 35,
                "velocity": 51,
                "duration": 0.18181818181818343,
                "tempo": 120.0
            },
            {
                "start_time": 29.293181818181818,
                "end_time": 29.477272727272727,
                "pitch": 35,
                "velocity": 51,
                "duration": 0.18409090909090864,
                "tempo": 120.0
            },
            {
                "start_time": 29.493181818181817,
                "end_time": 29.677272727272726,
                "pitch": 35,
                "velocity": 51,
                "duration": 0.18409090909090864,
                "tempo": 120.0
            },
            {
                "start_time": 29.695454545454545,
                "end_time": 29.879545454545454,
                "pitch": 35,
                "velocity": 51,
                "duration": 0.18409090909090864,
                "tempo": 120.0
            },
            {
                "start_time": 29.895454545454545,
                "end_time": 30.079545454545453,
                "pitch": 42,
                "velocity": 51,
                "duration": 0.18409090909090864,
                "tempo": 120.0
            },
            {
                "start_time": 30.095454545454544,
                "end_time": 30.275,
                "pitch": 35,
                "velocity": 51,
                "duration": 0.17954545454545467,
                "tempo": 120.0
            },
            {
                "start_time": 30.29090909090909,
                "end_time": 30.470454545454544,
                "pitch": 42,
                "velocity": 51,
                "duration": 0.17954545454545467,
                "tempo": 120.0
            },
            {
                "start_time": 30.486363636363635,
                "end_time": 30.670454545454543,
                "pitch": 33,
                "velocity": 51,
                "duration": 0.18409090909090864,
                "tempo": 120.0
            },
            {
                "start_time": 30.686363636363634,
                "end_time": 30.870454545454542,
                "pitch": 33,
                "velocity": 51,
                "duration": 0.18409090909090864,
                "tempo": 120.0
            },
            {
                "start_time": 30.886363636363633,
                "end_time": 31.075,
                "pitch": 33,
                "velocity": 51,
                "duration": 0.18863636363636616,
                "tempo": 120.0
            },
            {
                "start_time": 31.093181818181815,
                "end_time": 31.28181818181818,
                "pitch": 33,
                "velocity": 51,
                "duration": 0.18863636363636616,
                "tempo": 120.0
            },
            {
                "start_time": 31.297727272727272,
                "end_time": 31.379545454545454,
                "pitch": 33,
                "velocity": 51,
                "duration": 0.08181818181818201,
                "tempo": 120.0
            },
            {
                "start_time": 31.395454545454545,
                "end_time": 31.477272727272727,
                "pitch": 40,
                "velocity": 51,
                "duration": 0.08181818181818201,
                "tempo": 120.0
            },
            {
                "start_time": 31.493181818181817,
                "end_time": 31.575,
                "pitch": 33,
                "velocity": 51,
                "duration": 0.08181818181818201,
                "tempo": 120.0
            },
            {
                "start_time": 31.593181818181815,
                "end_time": 31.672727272727272,
                "pitch": 40,
                "velocity": 51,
                "duration": 0.0795454545454568,
                "tempo": 120.0
            },
            {
                "start_time": 31.690909090909088,
                "end_time": 31.77272727272727,
                "pitch": 38,
                "velocity": 51,
                "duration": 0.08181818181818201,
                "tempo": 120.0
            },
            {
                "start_time": 31.79090909090909,
                "end_time": 31.87272727272727,
                "pitch": 37,
                "velocity": 51,
                "duration": 0.08181818181818201,
                "tempo": 120.0
            },
            {
                "start_time": 31.89090909090909,
                "end_time": 31.972727272727273,
                "pitch": 35,
                "velocity": 51,
                "duration": 0.08181818181818201,
                "tempo": 120.0
            },
            {
                "start_time": 31.99090909090909,
                "end_time": 32.07272727272727,
                "pitch": 33,
                "velocity": 51,
                "duration": 0.08181818181818201,
                "tempo": 120.0
            },
            {
                "start_time": 32.090909090909086,
                "end_time": 32.277272727272724,
                "pitch": 31,
                "velocity": 51,
                "duration": 0.1863636363636374,
                "tempo": 120.0
            },
            {
                "start_time": 32.29545454545455,
                "end_time": 32.48409090909091,
                "pitch": 31,
                "velocity": 51,
                "duration": 0.1886363636363626,
                "tempo": 120.0
            },
            {
                "start_time": 32.5,
                "end_time": 32.68636363636364,
                "pitch": 31,
                "velocity": 51,
                "duration": 0.1863636363636374,
                "tempo": 120.0
            },
            {
                "start_time": 32.70227272727273,
                "end_time": 32.88636363636363,
                "pitch": 31,
                "velocity": 51,
                "duration": 0.18409090909090509,
                "tempo": 120.0
            },
            {
                "start_time": 32.904545454545456,
                "end_time": 33.086363636363636,
                "pitch": 31,
                "velocity": 51,
                "duration": 0.18181818181817988,
                "tempo": 120.0
            },
            {
                "start_time": 33.10454545454545,
                "end_time": 33.28636363636363,
                "pitch": 31,
                "velocity": 51,
                "duration": 0.18181818181817988,
                "tempo": 120.0
            },
            {
                "start_time": 33.304545454545455,
                "end_time": 33.48409090909091,
                "pitch": 31,
                "velocity": 51,
                "duration": 0.17954545454545467,
                "tempo": 120.0
            },
            {
                "start_time": 33.5,
                "end_time": 33.679545454545455,
                "pitch": 31,
                "velocity": 51,
                "duration": 0.17954545454545467,
                "tempo": 120.0
            },
            {
                "start_time": 33.695454545454545,
                "end_time": 33.88409090909091,
                "pitch": 33,
                "velocity": 51,
                "duration": 0.1886363636363626,
                "tempo": 120.0
            },
            {
                "start_time": 33.9,
                "end_time": 34.08863636363636,
                "pitch": 33,
                "velocity": 51,
                "duration": 0.1886363636363626,
                "tempo": 120.0
            },
            {
                "start_time": 34.10681818181818,
                "end_time": 34.29090909090909,
                "pitch": 33,
                "velocity": 51,
                "duration": 0.1840909090909122,
                "tempo": 120.0
            },
            {
                "start_time": 34.30681818181818,
                "end_time": 34.49090909090909,
                "pitch": 33,
                "velocity": 51,
                "duration": 0.1840909090909122,
                "tempo": 120.0
            },
            {
                "start_time": 34.50681818181818,
                "end_time": 34.69090909090909,
                "pitch": 33,
                "velocity": 51,
                "duration": 0.18409090909090509,
                "tempo": 120.0
            },
            {
                "start_time": 34.70681818181818,
                "end_time": 34.89090909090909,
                "pitch": 33,
                "velocity": 51,
                "duration": 0.1840909090909122,
                "tempo": 120.0
            },
            {
                "start_time": 34.90681818181818,
                "end_time": 35.090909090909086,
                "pitch": 33,
                "velocity": 51,
                "duration": 0.18409090909090509,
                "tempo": 120.0
            },
            {
                "start_time": 35.10681818181818,
                "end_time": 35.29090909090909,
                "pitch": 33,
                "velocity": 51,
                "duration": 0.1840909090909122,
                "tempo": 120.0
            },
            {
                "start_time": 35.30681818181818,
                "end_time": 35.49090909090909,
                "pitch": 35,
                "velocity": 51,
                "duration": 0.1840909090909122,
                "tempo": 120.0
            },
            {
                "start_time": 35.50681818181818,
                "end_time": 35.69090909090909,
                "pitch": 47,
                "velocity": 51,
                "duration": 0.18409090909090509,
                "tempo": 120.0
            },
            {
                "start_time": 35.70681818181818,
                "end_time": 35.89090909090909,
                "pitch": 35,
                "velocity": 51,
                "duration": 0.1840909090909122,
                "tempo": 120.0
            },
            {
                "start_time": 35.90909090909091,
                "end_time": 36.09318181818182,
                "pitch": 47,
                "velocity": 51,
                "duration": 0.1840909090909122,
                "tempo": 120.0
            },
            {
                "start_time": 36.10909090909091,
                "end_time": 36.293181818181814,
                "pitch": 35,
                "velocity": 51,
                "duration": 0.18409090909090509,
                "tempo": 120.0
            },
            {
                "start_time": 36.309090909090905,
                "end_time": 36.49318181818182,
                "pitch": 47,
                "velocity": 51,
                "duration": 0.1840909090909122,
                "tempo": 120.0
            },
            {
                "start_time": 36.50909090909091,
                "end_time": 36.69318181818181,
                "pitch": 35,
                "velocity": 51,
                "duration": 0.18409090909090509,
                "tempo": 120.0
            },
            {
                "start_time": 36.70909090909091,
                "end_time": 36.893181818181816,
                "pitch": 47,
                "velocity": 51,
                "duration": 0.18409090909090509,
                "tempo": 120.0
            },
            {
                "start_time": 36.90909090909091,
                "end_time": 37.09318181818182,
                "pitch": 35,
                "velocity": 51,
                "duration": 0.1840909090909122,
                "tempo": 120.0
            },
            {
                "start_time": 37.10909090909091,
                "end_time": 37.293181818181814,
                "pitch": 47,
                "velocity": 51,
                "duration": 0.18409090909090509,
                "tempo": 120.0
            },
            {
                "start_time": 37.309090909090905,
                "end_time": 37.49318181818182,
                "pitch": 35,
                "velocity": 51,
                "duration": 0.1840909090909122,
                "tempo": 120.0
            },
            {
                "start_time": 37.50909090909091,
                "end_time": 37.69318181818181,
                "pitch": 47,
                "velocity": 51,
                "duration": 0.18409090909090509,
                "tempo": 120.0
            },
            {
                "start_time": 37.70909090909091,
                "end_time": 37.893181818181816,
                "pitch": 35,
                "velocity": 51,
                "duration": 0.18409090909090509,
                "tempo": 120.0
            },
            {
                "start_time": 37.91136363636363,
                "end_time": 38.095454545454544,
                "pitch": 47,
                "velocity": 51,
                "duration": 0.1840909090909122,
                "tempo": 120.0
            },
            {
                "start_time": 38.111363636363635,
                "end_time": 38.29545454545455,
                "pitch": 35,
                "velocity": 51,
                "duration": 0.1840909090909122,
                "tempo": 120.0
            },
            {
                "start_time": 38.31136363636364,
                "end_time": 38.49545454545454,
                "pitch": 47,
                "velocity": 51,
                "duration": 0.18409090909090509,
                "tempo": 120.0
            },
            {
                "start_time": 38.51136363636363,
                "end_time": 38.695454545454545,
                "pitch": 35,
                "velocity": 51,
                "duration": 0.1840909090909122,
                "tempo": 120.0
            },
            {
                "start_time": 38.711363636363636,
                "end_time": 38.89545454545454,
                "pitch": 47,
                "velocity": 51,
                "duration": 0.18409090909090509,
                "tempo": 120.0
            },
            {
                "start_time": 38.91136363636363,
                "end_time": 39.095454545454544,
                "pitch": 35,
                "velocity": 51,
                "duration": 0.1840909090909122,
                "tempo": 120.0
            },
            {
                "start_time": 39.111363636363635,
                "end_time": 39.29545454545455,
                "pitch": 47,
                "velocity": 51,
                "duration": 0.1840909090909122,
                "tempo": 120.0
            },
            {
                "start_time": 39.31136363636364,
                "end_time": 39.49545454545454,
                "pitch": 35,
                "velocity": 51,
                "duration": 0.18409090909090509,
                "tempo": 120.0
            },
            {
                "start_time": 39.51136363636363,
                "end_time": 39.695454545454545,
                "pitch": 47,
                "velocity": 51,
                "duration": 0.1840909090909122,
                "tempo": 120.0
            },
            {
                "start_time": 39.711363636363636,
                "end_time": 39.89772727272727,
                "pitch": 35,
                "velocity": 51,
                "duration": 0.1863636363636374,
                "tempo": 120.0
            },
            {
                "start_time": 39.913636363636364,
                "end_time": 40.09772727272727,
                "pitch": 47,
                "velocity": 51,
                "duration": 0.18409090909090509,
                "tempo": 120.0
            },
            {
                "start_time": 40.11363636363636,
                "end_time": 40.29772727272727,
                "pitch": 35,
                "velocity": 51,
                "duration": 0.1840909090909122,
                "tempo": 120.0
            },
            {
                "start_time": 40.31590909090909,
                "end_time": 40.49772727272727,
                "pitch": 47,
                "velocity": 51,
                "duration": 0.18181818181817988,
                "tempo": 120.0
            },
            {
                "start_time": 40.51590909090909,
                "end_time": 40.69772727272727,
                "pitch": 35,
                "velocity": 51,
                "duration": 0.18181818181817988,
                "tempo": 120.0
            },
            {
                "start_time": 40.715909090909086,
                "end_time": 40.89772727272727,
                "pitch": 47,
                "velocity": 51,
                "duration": 0.18181818181818699,
                "tempo": 120.0
            },
            {
                "start_time": 40.91590909090909,
                "end_time": 41.09772727272727,
                "pitch": 35,
                "velocity": 51,
                "duration": 0.18181818181817988,
                "tempo": 120.0
            },
            {
                "start_time": 41.11590909090909,
                "end_time": 41.29772727272727,
                "pitch": 47,
                "velocity": 51,
                "duration": 0.18181818181817988,
                "tempo": 120.0
            },
            {
                "start_time": 41.31590909090909,
                "end_time": 41.49772727272727,
                "pitch": 35,
                "velocity": 51,
                "duration": 0.18181818181817988,
                "tempo": 120.0
            },
            {
                "start_time": 41.51590909090909,
                "end_time": 41.69772727272727,
                "pitch": 47,
                "velocity": 51,
                "duration": 0.18181818181817988,
                "tempo": 120.0
            },
            {
                "start_time": 41.715909090909086,
                "end_time": 41.9,
                "pitch": 40,
                "velocity": 51,
                "duration": 0.1840909090909122,
                "tempo": 120.0
            },
            {
                "start_time": 41.91590909090909,
                "end_time": 42.1,
                "pitch": 52,
                "velocity": 51,
                "duration": 0.1840909090909122,
                "tempo": 120.0
            },
            {
                "start_time": 42.11818181818182,
                "end_time": 42.3,
                "pitch": 40,
                "velocity": 51,
                "duration": 0.18181818181817988,
                "tempo": 120.0
            },
            {
                "start_time": 42.31818181818181,
                "end_time": 42.5,
                "pitch": 52,
                "velocity": 51,
                "duration": 0.18181818181818699,
                "tempo": 120.0
            },
            {
                "start_time": 42.518181818181816,
                "end_time": 42.699999999999996,
                "pitch": 40,
                "velocity": 51,
                "duration": 0.18181818181817988,
                "tempo": 120.0
            },
            {
                "start_time": 42.71818181818182,
                "end_time": 42.9,
                "pitch": 52,
                "velocity": 51,
                "duration": 0.18181818181817988,
                "tempo": 120.0
            },
            {
                "start_time": 42.918181818181814,
                "end_time": 43.09772727272727,
                "pitch": 40,
                "velocity": 51,
                "duration": 0.17954545454545467,
                "tempo": 120.0
            },
            {
                "start_time": 43.11363636363636,
                "end_time": 43.293181818181814,
                "pitch": 52,
                "velocity": 51,
                "duration": 0.17954545454545467,
                "tempo": 120.0
            },
            {
                "start_time": 43.309090909090905,
                "end_time": 43.49318181818182,
                "pitch": 40,
                "velocity": 51,
                "duration": 0.1840909090909122,
                "tempo": 120.0
            },
            {
                "start_time": 43.50909090909091,
                "end_time": 43.69318181818181,
                "pitch": 52,
                "velocity": 51,
                "duration": 0.18409090909090509,
                "tempo": 120.0
            },
            {
                "start_time": 43.709090909090904,
                "end_time": 43.893181818181816,
                "pitch": 40,
                "velocity": 51,
                "duration": 0.1840909090909122,
                "tempo": 120.0
            },
            {
                "start_time": 43.90909090909091,
                "end_time": 44.09318181818182,
                "pitch": 52,
                "velocity": 51,
                "duration": 0.1840909090909122,
                "tempo": 120.0
            },
            {
                "start_time": 44.10909090909091,
                "end_time": 44.293181818181814,
                "pitch": 40,
                "velocity": 51,
                "duration": 0.18409090909090509,
                "tempo": 120.0
            },
            {
                "start_time": 44.309090909090905,
                "end_time": 44.49318181818182,
                "pitch": 52,
                "velocity": 51,
                "duration": 0.1840909090909122,
                "tempo": 120.0
            },
            {
                "start_time": 44.50909090909091,
                "end_time": 44.69318181818181,
                "pitch": 40,
                "velocity": 51,
                "duration": 0.18409090909090509,
                "tempo": 120.0
            },
            {
                "start_time": 44.711363636363636,
                "end_time": 44.89545454545454,
                "pitch": 52,
                "velocity": 51,
                "duration": 0.18409090909090509,
                "tempo": 120.0
            },
            {
                "start_time": 44.91136363636363,
                "end_time": 45.095454545454544,
                "pitch": 40,
                "velocity": 51,
                "duration": 0.1840909090909122,
                "tempo": 120.0
            },
            {
                "start_time": 45.111363636363635,
                "end_time": 45.29545454545455,
                "pitch": 52,
                "velocity": 51,
                "duration": 0.1840909090909122,
                "tempo": 120.0
            },
            {
                "start_time": 45.31136363636364,
                "end_time": 45.5,
                "pitch": 40,
                "velocity": 51,
                "duration": 0.1886363636363626,
                "tempo": 120.0
            },
            {
                "start_time": 45.518181818181816,
                "end_time": 45.70681818181818,
                "pitch": 52,
                "velocity": 51,
                "duration": 0.1886363636363626,
                "tempo": 120.0
            },
            {
                "start_time": 45.72272727272727,
                "end_time": 45.902272727272724,
                "pitch": 40,
                "velocity": 51,
                "duration": 0.17954545454545467,
                "tempo": 120.0
            },
            {
                "start_time": 45.918181818181814,
                "end_time": 46.09772727272727,
                "pitch": 52,
                "velocity": 51,
                "duration": 0.17954545454545467,
                "tempo": 120.0
            },
            {
                "start_time": 46.11590909090909,
                "end_time": 46.29772727272727,
                "pitch": 40,
                "velocity": 51,
                "duration": 0.18181818181817988,
                "tempo": 120.0
            },
            {
                "start_time": 46.31590909090909,
                "end_time": 46.49772727272727,
                "pitch": 52,
                "velocity": 51,
                "duration": 0.18181818181817988,
                "tempo": 120.0
            },
            {
                "start_time": 46.51590909090909,
                "end_time": 46.699999999999996,
                "pitch": 40,
                "velocity": 51,
                "duration": 0.18409090909090509,
                "tempo": 120.0
            },
            {
                "start_time": 46.715909090909086,
                "end_time": 46.9,
                "pitch": 52,
                "velocity": 51,
                "duration": 0.1840909090909122,
                "tempo": 120.0
            },
            {
                "start_time": 46.918181818181814,
                "end_time": 47.10227272727273,
                "pitch": 40,
                "velocity": 51,
                "duration": 0.1840909090909122,
                "tempo": 120.0
            },
            {
                "start_time": 47.11818181818182,
                "end_time": 47.30227272727272,
                "pitch": 52,
                "velocity": 51,
                "duration": 0.18409090909090509,
                "tempo": 120.0
            },
            {
                "start_time": 47.31818181818181,
                "end_time": 47.50681818181818,
                "pitch": 40,
                "velocity": 51,
                "duration": 0.1886363636363697,
                "tempo": 120.0
            },
            {
                "start_time": 47.52272727272727,
                "end_time": 47.711363636363636,
                "pitch": 52,
                "velocity": 51,
                "duration": 0.1886363636363626,
                "tempo": 120.0
            },
            {
                "start_time": 47.72954545454545,
                "end_time": 47.90909090909091,
                "pitch": 40,
                "velocity": 51,
                "duration": 0.17954545454545467,
                "tempo": 120.0
            },
            {
                "start_time": 47.925,
                "end_time": 48.10454545454545,
                "pitch": 52,
                "velocity": 51,
                "duration": 0.17954545454545467,
                "tempo": 120.0
            }
        ],
        "Church Organ": [
            {
                "start_time": 0.0,
                "end_time": 0.7659090909090909,
                "pitch": 52,
                "velocity": 40,
                "duration": 0.7659090909090909,
                "tempo": 120.0
            },
            {
                "start_time": 0.7840909090909091,
                "end_time": 1.3772727272727272,
                "pitch": 57,
                "velocity": 40,
                "duration": 0.5931818181818181,
                "tempo": 120.0
            },
            {
                "start_time": 1.393181818181818,
                "end_time": 1.5772727272727272,
                "pitch": 57,
                "velocity": 40,
                "duration": 0.18409090909090908,
                "tempo": 120.0
            },
            {
                "start_time": 1.593181818181818,
                "end_time": 2.1704545454545454,
                "pitch": 55,
                "velocity": 40,
                "duration": 0.5772727272727274,
                "tempo": 120.0
            },
            {
                "start_time": 2.186363636363636,
                "end_time": 2.7795454545454543,
                "pitch": 55,
                "velocity": 40,
                "duration": 0.5931818181818183,
                "tempo": 120.0
            },
            {
                "start_time": 2.7977272727272724,
                "end_time": 3.1727272727272724,
                "pitch": 50,
                "velocity": 40,
                "duration": 0.375,
                "tempo": 120.0
            },
            {
                "start_time": 3.1886363636363635,
                "end_time": 3.377272727272727,
                "pitch": 52,
                "velocity": 40,
                "duration": 0.1886363636363635,
                "tempo": 120.0
            },
            {
                "start_time": 3.3954545454545455,
                "end_time": 3.5818181818181816,
                "pitch": 45,
                "velocity": 40,
                "duration": 0.18636363636363606,
                "tempo": 120.0
            },
            {
                "start_time": 3.5999999999999996,
                "end_time": 3.7840909090909087,
                "pitch": 52,
                "velocity": 40,
                "duration": 0.18409090909090908,
                "tempo": 120.0
            },
            {
                "start_time": 3.8,
                "end_time": 3.984090909090909,
                "pitch": 45,
                "velocity": 40,
                "duration": 0.18409090909090908,
                "tempo": 120.0
            },
            {
                "start_time": 4.0,
                "end_time": 4.579545454545454,
                "pitch": 57,
                "velocity": 40,
                "duration": 0.5795454545454541,
                "tempo": 120.0
            },
            {
                "start_time": 4.597727272727273,
                "end_time": 4.786363636363636,
                "pitch": 64,
                "velocity": 40,
                "duration": 0.1886363636363635,
                "tempo": 120.0
            },
            {
                "start_time": 4.802272727272727,
                "end_time": 5.390909090909091,
                "pitch": 68,
                "velocity": 40,
                "duration": 0.5886363636363638,
                "tempo": 120.0
            },
            {
                "start_time": 5.406818181818181,
                "end_time": 6.172727272727273,
                "pitch": 64,
                "velocity": 40,
                "duration": 0.7659090909090915,
                "tempo": 120.0
            },
            {
                "start_time": 6.1909090909090905,
                "end_time": 6.372727272727272,
                "pitch": 59,
                "velocity": 40,
                "duration": 0.18181818181818166,
                "tempo": 120.0
            },
            {
                "start_time": 6.390909090909091,
                "end_time": 6.579545454545454,
                "pitch": 62,
                "velocity": 40,
                "duration": 0.1886363636363635,
                "tempo": 120.0
            },
            {
                "start_time": 6.802272727272727,
                "end_time": 6.986363636363636,
                "pitch": 61,
                "velocity": 40,
                "duration": 0.18409090909090953,
                "tempo": 120.0
            },
            {
                "start_time": 7.002272727272727,
                "end_time": 7.384090909090909,
                "pitch": 59,
                "velocity": 40,
                "duration": 0.38181818181818183,
                "tempo": 120.0
            },
            {
                "start_time": 7.3999999999999995,
                "end_time": 7.579545454545454,
                "pitch": 61,
                "velocity": 40,
                "duration": 0.17954545454545467,
                "tempo": 120.0
            },
            {
                "start_time": 7.595454545454545,
                "end_time": 8.0,
                "pitch": 62,
                "velocity": 40,
                "duration": 0.4045454545454552,
                "tempo": 120.0
            },
            {
                "start_time": 8.018181818181818,
                "end_time": 8.806818181818182,
                "pitch": 61,
                "velocity": 40,
                "duration": 0.788636363636364,
                "tempo": 120.0
            },
            {
                "start_time": 8.822727272727272,
                "end_time": 9.588636363636363,
                "pitch": 57,
                "velocity": 40,
                "duration": 0.7659090909090907,
                "tempo": 120.0
            },
            {
                "start_time": 9.604545454545454,
                "end_time": 9.69090909090909,
                "pitch": 47,
                "velocity": 40,
                "duration": 0.08636363636363598,
                "tempo": 120.0
            },
            {
                "start_time": 9.709090909090909,
                "end_time": 9.793181818181818,
                "pitch": 49,
                "velocity": 40,
                "duration": 0.084090909090909,
                "tempo": 120.0
            },
            {
                "start_time": 9.811363636363636,
                "end_time": 11.202272727272726,
                "pitch": 47,
                "velocity": 40,
                "duration": 1.3909090909090907,
                "tempo": 120.0
            },
            {
                "start_time": 11.218181818181817,
                "end_time": 11.299999999999999,
                "pitch": 59,
                "velocity": 40,
                "duration": 0.08181818181818201,
                "tempo": 120.0
            },
            {
                "start_time": 11.318181818181818,
                "end_time": 11.399999999999999,
                "pitch": 61,
                "velocity": 40,
                "duration": 0.08181818181818024,
                "tempo": 120.0
            },
            {
                "start_time": 11.415909090909091,
                "end_time": 12.811363636363636,
                "pitch": 59,
                "velocity": 40,
                "duration": 1.3954545454545446,
                "tempo": 120.0
            },
            {
                "start_time": 12.827272727272726,
                "end_time": 13.625,
                "pitch": 52,
                "velocity": 40,
                "duration": 0.7977272727272737,
                "tempo": 120.0
            },
            {
                "start_time": 13.64090909090909,
                "end_time": 14.229545454545454,
                "pitch": 57,
                "velocity": 40,
                "duration": 0.588636363636363,
                "tempo": 120.0
            },
            {
                "start_time": 14.245454545454544,
                "end_time": 14.429545454545455,
                "pitch": 57,
                "velocity": 40,
                "duration": 0.18409090909091042,
                "tempo": 120.0
            },
            {
                "start_time": 14.445454545454545,
                "end_time": 15.018181818181818,
                "pitch": 55,
                "velocity": 40,
                "duration": 0.5727272727272723,
                "tempo": 120.0
            },
            {
                "start_time": 15.034090909090908,
                "end_time": 15.61590909090909,
                "pitch": 55,
                "velocity": 40,
                "duration": 0.581818181818182,
                "tempo": 120.0
            },
            {
                "start_time": 15.631818181818181,
                "end_time": 16.025,
                "pitch": 50,
                "velocity": 40,
                "duration": 0.39318181818181763,
                "tempo": 120.0
            },
            {
                "start_time": 16.043181818181818,
                "end_time": 16.23181818181818,
                "pitch": 52,
                "velocity": 40,
                "duration": 0.1886363636363626,
                "tempo": 120.0
            },
            {
                "start_time": 16.24772727272727,
                "end_time": 16.436363636363634,
                "pitch": 45,
                "velocity": 40,
                "duration": 0.1886363636363626,
                "tempo": 120.0
            },
            {
                "start_time": 16.452272727272728,
                "end_time": 16.638636363636362,
                "pitch": 52,
                "velocity": 40,
                "duration": 0.18636363636363384,
                "tempo": 120.0
            },
            {
                "start_time": 16.654545454545453,
                "end_time": 16.83863636363636,
                "pitch": 45,
                "velocity": 40,
                "duration": 0.18409090909090864,
                "tempo": 120.0
            },
            {
                "start_time": 16.85681818181818,
                "end_time": 17.436363636363634,
                "pitch": 57,
                "velocity": 40,
                "duration": 0.5795454545454533,
                "tempo": 120.0
            },
            {
                "start_time": 17.452272727272728,
                "end_time": 17.64090909090909,
                "pitch": 64,
                "velocity": 40,
                "duration": 0.1886363636363626,
                "tempo": 120.0
            },
            {
                "start_time": 17.659090909090907,
                "end_time": 18.243181818181817,
                "pitch": 68,
                "velocity": 40,
                "duration": 0.5840909090909108,
                "tempo": 120.0
            },
            {
                "start_time": 18.259090909090908,
                "end_time": 19.025,
                "pitch": 64,
                "velocity": 40,
                "duration": 0.7659090909090907,
                "tempo": 120.0
            },
            {
                "start_time": 19.04090909090909,
                "end_time": 19.224999999999998,
                "pitch": 59,
                "velocity": 40,
                "duration": 0.18409090909090864,
                "tempo": 120.0
            },
            {
                "start_time": 19.24090909090909,
                "end_time": 19.43409090909091,
                "pitch": 62,
                "velocity": 40,
                "duration": 0.19318181818182012,
                "tempo": 120.0
            },
            {
                "start_time": 19.663636363636364,
                "end_time": 19.84318181818182,
                "pitch": 61,
                "velocity": 40,
                "duration": 0.17954545454545467,
                "tempo": 120.0
            },
            {
                "start_time": 19.85909090909091,
                "end_time": 20.23409090909091,
                "pitch": 59,
                "velocity": 40,
                "duration": 0.375,
                "tempo": 120.0
            },
            {
                "start_time": 20.252272727272725,
                "end_time": 20.43181818181818,
                "pitch": 61,
                "velocity": 40,
                "duration": 0.17954545454545467,
                "tempo": 120.0
            },
            {
                "start_time": 20.44772727272727,
                "end_time": 20.852272727272727,
                "pitch": 62,
                "velocity": 40,
                "duration": 0.4045454545454561,
                "tempo": 120.0
            },
            {
                "start_time": 20.870454545454546,
                "end_time": 21.654545454545453,
                "pitch": 61,
                "velocity": 40,
                "duration": 0.7840909090909065,
                "tempo": 120.0
            },
            {
                "start_time": 21.672727272727272,
                "end_time": 22.44772727272727,
                "pitch": 57,
                "velocity": 40,
                "duration": 0.7749999999999986,
                "tempo": 120.0
            },
            {
                "start_time": 22.46363636363636,
                "end_time": 22.547727272727272,
                "pitch": 47,
                "velocity": 40,
                "duration": 0.08409090909091077,
                "tempo": 120.0
            },
            {
                "start_time": 22.563636363636363,
                "end_time": 22.647727272727273,
                "pitch": 49,
                "velocity": 40,
                "duration": 0.08409090909091077,
                "tempo": 120.0
            },
            {
                "start_time": 22.663636363636364,
                "end_time": 24.043181818181818,
                "pitch": 47,
                "velocity": 40,
                "duration": 1.379545454545454,
                "tempo": 120.0
            },
            {
                "start_time": 24.05909090909091,
                "end_time": 24.145454545454545,
                "pitch": 59,
                "velocity": 40,
                "duration": 0.08636363636363598,
                "tempo": 120.0
            },
            {
                "start_time": 24.161363636363635,
                "end_time": 24.24772727272727,
                "pitch": 61,
                "velocity": 40,
                "duration": 0.08636363636363598,
                "tempo": 120.0
            },
            {
                "start_time": 24.26590909090909,
                "end_time": 25.65681818181818,
                "pitch": 59,
                "velocity": 40,
                "duration": 1.3909090909090907,
                "tempo": 120.0
            },
            {
                "start_time": 25.672727272727272,
                "end_time": 26.261363636363637,
                "pitch": 50,
                "velocity": 40,
                "duration": 0.5886363636363647,
                "tempo": 120.0
            },
            {
                "start_time": 26.279545454545453,
                "end_time": 26.668181818181818,
                "pitch": 50,
                "velocity": 40,
                "duration": 0.38863636363636545,
                "tempo": 120.0
            },
            {
                "start_time": 26.686363636363634,
                "end_time": 26.870454545454542,
                "pitch": 52,
                "velocity": 40,
                "duration": 0.18409090909090864,
                "tempo": 120.0
            },
            {
                "start_time": 26.886363636363637,
                "end_time": 27.270454545454545,
                "pitch": 54,
                "velocity": 40,
                "duration": 0.38409090909090793,
                "tempo": 120.0
            },
            {
                "start_time": 27.286363636363635,
                "end_time": 27.86590909090909,
                "pitch": 49,
                "velocity": 40,
                "duration": 0.5795454545454533,
                "tempo": 120.0
            },
            {
                "start_time": 27.884090909090908,
                "end_time": 28.27272727272727,
                "pitch": 49,
                "velocity": 40,
                "duration": 0.3886363636363619,
                "tempo": 120.0
            },
            {
                "start_time": 28.29090909090909,
                "end_time": 28.472727272727273,
                "pitch": 52,
                "velocity": 40,
                "duration": 0.18181818181818343,
                "tempo": 120.0
            },
            {
                "start_time": 28.49090909090909,
                "end_time": 28.875,
                "pitch": 54,
                "velocity": 40,
                "duration": 0.3840909090909115,
                "tempo": 120.0
            },
            {
                "start_time": 28.893181818181816,
                "end_time": 29.477272727272727,
                "pitch": 47,
                "velocity": 40,
                "duration": 0.5840909090909108,
                "tempo": 120.0
            },
            {
                "start_time": 29.493181818181817,
                "end_time": 29.879545454545454,
                "pitch": 47,
                "velocity": 40,
                "duration": 0.3863636363636367,
                "tempo": 120.0
            },
            {
                "start_time": 29.895454545454545,
                "end_time": 30.079545454545453,
                "pitch": 52,
                "velocity": 40,
                "duration": 0.18409090909090864,
                "tempo": 120.0
            },
            {
                "start_time": 30.095454545454544,
                "end_time": 30.470454545454544,
                "pitch": 54,
                "velocity": 40,
                "duration": 0.375,
                "tempo": 120.0
            },
            {
                "start_time": 30.486363636363635,
                "end_time": 30.670454545454543,
                "pitch": 52,
                "velocity": 40,
                "duration": 0.18409090909090864,
                "tempo": 120.0
            },
            {
                "start_time": 30.686363636363634,
                "end_time": 31.075,
                "pitch": 50,
                "velocity": 40,
                "duration": 0.38863636363636545,
                "tempo": 120.0
            },
            {
                "start_time": 31.093181818181815,
                "end_time": 31.477272727272727,
                "pitch": 45,
                "velocity": 40,
                "duration": 0.3840909090909115,
                "tempo": 120.0
            },
            {
                "start_time": 31.493181818181817,
                "end_time": 31.575,
                "pitch": 47,
                "velocity": 40,
                "duration": 0.08181818181818201,
                "tempo": 120.0
            },
            {
                "start_time": 31.690909090909088,
                "end_time": 32.07272727272727,
                "pitch": 45,
                "velocity": 40,
                "duration": 0.3818181818181827,
                "tempo": 120.0
            },
            {
                "start_time": 32.090909090909086,
                "end_time": 32.68636363636364,
                "pitch": 43,
                "velocity": 40,
                "duration": 0.595454545454551,
                "tempo": 120.0
            },
            {
                "start_time": 32.70227272727273,
                "end_time": 33.086363636363636,
                "pitch": 50,
                "velocity": 40,
                "duration": 0.38409090909090793,
                "tempo": 120.0
            },
            {
                "start_time": 33.10454545454545,
                "end_time": 33.28636363636363,
                "pitch": 49,
                "velocity": 40,
                "duration": 0.18181818181817988,
                "tempo": 120.0
            },
            {
                "start_time": 33.304545454545455,
                "end_time": 33.679545454545455,
                "pitch": 47,
                "velocity": 40,
                "duration": 0.375,
                "tempo": 120.0
            },
            {
                "start_time": 33.695454545454545,
                "end_time": 34.29090909090909,
                "pitch": 45,
                "velocity": 40,
                "duration": 0.5954545454545439,
                "tempo": 120.0
            },
            {
                "start_time": 34.30681818181818,
                "end_time": 34.69090909090909,
                "pitch": 52,
                "velocity": 40,
                "duration": 0.38409090909090793,
                "tempo": 120.0
            },
            {
                "start_time": 34.70681818181818,
                "end_time": 34.89090909090909,
                "pitch": 52,
                "velocity": 40,
                "duration": 0.1840909090909122,
                "tempo": 120.0
            },
            {
                "start_time": 34.90681818181818,
                "end_time": 35.29090909090909,
                "pitch": 45,
                "velocity": 40,
                "duration": 0.38409090909090793,
                "tempo": 120.0
            },
            {
                "start_time": 35.30681818181818,
                "end_time": 36.09318181818182,
                "pitch": 42,
                "velocity": 40,
                "duration": 0.7863636363636388,
                "tempo": 120.0
            },
            {
                "start_time": 36.10909090909091,
                "end_time": 36.893181818181816,
                "pitch": 45,
                "velocity": 40,
                "duration": 0.7840909090909065,
                "tempo": 120.0
            },
            {
                "start_time": 36.90909090909091,
                "end_time": 37.69318181818181,
                "pitch": 47,
                "velocity": 40,
                "duration": 0.7840909090909065,
                "tempo": 120.0
            },
            {
                "start_time": 37.70909090909091,
                "end_time": 38.49545454545454,
                "pitch": 49,
                "velocity": 40,
                "duration": 0.7863636363636317,
                "tempo": 120.0
            },
            {
                "start_time": 38.51136363636363,
                "end_time": 38.89545454545454,
                "pitch": 42,
                "velocity": 40,
                "duration": 0.38409090909090793,
                "tempo": 120.0
            },
            {
                "start_time": 38.91136363636363,
                "end_time": 39.29545454545455,
                "pitch": 42,
                "velocity": 40,
                "duration": 0.38409090909091503,
                "tempo": 120.0
            },
            {
                "start_time": 39.31136363636364,
                "end_time": 39.695454545454545,
                "pitch": 47,
                "velocity": 40,
                "duration": 0.38409090909090793,
                "tempo": 120.0
            },
            {
                "start_time": 39.711363636363636,
                "end_time": 40.09772727272727,
                "pitch": 49,
                "velocity": 40,
                "duration": 0.38636363636363313,
                "tempo": 120.0
            },
            {
                "start_time": 40.11363636363636,
                "end_time": 40.49772727272727,
                "pitch": 42,
                "velocity": 40,
                "duration": 0.38409090909090793,
                "tempo": 120.0
            },
            {
                "start_time": 40.51590909090909,
                "end_time": 40.89772727272727,
                "pitch": 45,
                "velocity": 40,
                "duration": 0.3818181818181827,
                "tempo": 120.0
            },
            {
                "start_time": 40.91590909090909,
                "end_time": 41.29772727272727,
                "pitch": 47,
                "velocity": 40,
                "duration": 0.3818181818181827,
                "tempo": 120.0
            },
            {
                "start_time": 41.31590909090909,
                "end_time": 41.69772727272727,
                "pitch": 49,
                "velocity": 40,
                "duration": 0.3818181818181827,
                "tempo": 120.0
            },
            {
                "start_time": 41.715909090909086,
                "end_time": 42.5,
                "pitch": 44,
                "velocity": 40,
                "duration": 0.7840909090909136,
                "tempo": 120.0
            },
            {
                "start_time": 42.518181818181816,
                "end_time": 43.293181818181814,
                "pitch": 45,
                "velocity": 40,
                "duration": 0.7749999999999986,
                "tempo": 120.0
            },
            {
                "start_time": 43.309090909090905,
                "end_time": 44.09318181818182,
                "pitch": 47,
                "velocity": 40,
                "duration": 0.7840909090909136,
                "tempo": 120.0
            },
            {
                "start_time": 44.10909090909091,
                "end_time": 44.89545454545454,
                "pitch": 49,
                "velocity": 40,
                "duration": 0.7863636363636317,
                "tempo": 120.0
            },
            {
                "start_time": 44.91136363636363,
                "end_time": 45.29545454545455,
                "pitch": 44,
                "velocity": 40,
                "duration": 0.38409090909091503,
                "tempo": 120.0
            },
            {
                "start_time": 45.31136363636364,
                "end_time": 45.70681818181818,
                "pitch": 45,
                "velocity": 40,
                "duration": 0.39545454545454106,
                "tempo": 120.0
            },
            {
                "start_time": 45.72272727272727,
                "end_time": 46.09772727272727,
                "pitch": 47,
                "velocity": 40,
                "duration": 0.375,
                "tempo": 120.0
            },
            {
                "start_time": 46.11590909090909,
                "end_time": 46.49772727272727,
                "pitch": 49,
                "velocity": 40,
                "duration": 0.3818181818181756,
                "tempo": 120.0
            },
            {
                "start_time": 46.51590909090909,
                "end_time": 46.9,
                "pitch": 50,
                "velocity": 40,
                "duration": 0.38409090909090793,
                "tempo": 120.0
            },
            {
                "start_time": 46.918181818181814,
                "end_time": 47.30227272727272,
                "pitch": 52,
                "velocity": 40,
                "duration": 0.38409090909090793,
                "tempo": 120.0
            },
            {
                "start_time": 47.31818181818181,
                "end_time": 47.711363636363636,
                "pitch": 54,
                "velocity": 40,
                "duration": 0.39318181818182296,
                "tempo": 120.0
            },
            {
                "start_time": 47.72954545454545,
                "end_time": 48.10454545454545,
                "pitch": 56,
                "velocity": 40,
                "duration": 0.375,
                "tempo": 120.0
            }
        ]
    }
}