{
    "track_id": "Wonder Boy in Monster Land (FM) - 09 - Round Clear",
    "mood": "happy",
    "instruments": {
        "Trumpet": [
            {
                "start_time": 0.0,
                "end_time": 0.1659090909090909,
                "pitch": 59,
                "velocity": 64,
                "duration": 0.1659090909090909,
                "tempo": 120.0
            },
            {
                "start_time": 0.18409090909090908,
                "end_time": 0.3659090909090909,
                "pitch": 61,
                "velocity": 64,
                "duration": 0.18181818181818182,
                "tempo": 120.0
            },
            {
                "start_time": 0.3840909090909091,
                "end_time": 0.5659090909090909,
                "pitch": 62,
                "velocity": 64,
                "duration": 0.18181818181818182,
                "tempo": 120.0
            },
            {
                "start_time": 0.5840909090909091,
                "end_time": 0.7659090909090909,
                "pitch": 59,
                "velocity": 64,
                "duration": 0.18181818181818177,
                "tempo": 120.0
            },
            {
                "start_time": 0.7840909090909091,
                "end_time": 0.9659090909090908,
                "pitch": 61,
                "velocity": 64,
                "duration": 0.18181818181818177,
                "tempo": 120.0
            },
            {
                "start_time": 0.984090909090909,
                "end_time": 1.1704545454545454,
                "pitch": 62,
                "velocity": 64,
                "duration": 0.1863636363636364,
                "tempo": 120.0
            },
            {
                "start_time": 1.1886363636363635,
                "end_time": 1.3772727272727272,
                "pitch": 66,
                "velocity": 64,
                "duration": 0.1886363636363637,
                "tempo": 120.0
            },
            {
                "start_time": 1.393181818181818,
                "end_time": 1.5772727272727272,
                "pitch": 66,
                "velocity": 64,
                "duration": 0.18409090909090908,
                "tempo": 120.0
            },
            {
                "start_time": 1.593181818181818,
                "end_time": 1.7772727272727271,
                "pitch": 59,
                "velocity": 64,
                "duration": 0.18409090909090908,
                "tempo": 120.0
            },
            {
                "start_time": 1.793181818181818,
                "end_time": 1.9795454545454545,
                "pitch": 61,
                "velocity": 64,
                "duration": 0.1863636363636365,
                "tempo": 120.0
            },
            {
                "start_time": 1.9954545454545454,
                "end_time": 2.1795454545454542,
                "pitch": 62,
                "velocity": 64,
                "duration": 0.18409090909090886,
                "tempo": 120.0
            },
            {
                "start_time": 2.1977272727272728,
                "end_time": 2.377272727272727,
                "pitch": 59,
                "velocity": 64,
                "duration": 0.17954545454545423,
                "tempo": 120.0
            },
            {
                "start_time": 2.393181818181818,
                "end_time": 2.5727272727272728,
                "pitch": 61,
                "velocity": 64,
                "duration": 0.17954545454545467,
                "tempo": 120.0
            },
            {
                "start_time": 2.5886363636363634,
                "end_time": 2.7772727272727273,
                "pitch": 62,
                "velocity": 64,
                "duration": 0.18863636363636394,
                "tempo": 120.0
            },
            {
                "start_time": 2.793181818181818,
                "end_time": 2.9818181818181815,
                "pitch": 66,
                "velocity": 64,
                "duration": 0.1886363636363635,
                "tempo": 120.0
            },
            {
                "start_time": 2.9977272727272726,
                "end_time": 3.1727272727272724,
                "pitch": 66,
                "velocity": 64,
                "duration": 0.17499999999999982,
                "tempo": 120.0
            },
            {
                "start_time": 3.1886363636363635,
                "end_time": 3.565909090909091,
                "pitch": 69,
                "velocity": 64,
                "duration": 0.3772727272727274,
                "tempo": 120.0
            },
            {
                "start_time": 3.5818181818181816,
                "end_time": 3.965909090909091,
                "pitch": 71,
                "velocity": 64,
                "duration": 0.38409090909090926,
                "tempo": 120.0
            },
            {
                "start_time": 3.9818181818181815,
                "end_time": 4.7749999999999995,
                "pitch": 73,
                "velocity": 64,
                "duration": 0.793181818181818,
                "tempo": 120.0
            }
        ],
        "Electric Guitar (clean)": [
            {
                "start_time": 0.0,
                "end_time": 0.1659090909090909,
                "pitch": 43,
                "velocity": 51,
                "duration": 0.1659090909090909,
                "tempo": 120.0
            },
            {
                "start_time": 0.18409090909090908,
                "end_time": 0.3659090909090909,
                "pitch": 42,
                "velocity": 51,
                "duration": 0.18181818181818182,
                "tempo": 120.0
            },
            {
                "start_time": 0.3840909090909091,
                "end_time": 0.5659090909090909,
                "pitch": 40,
                "velocity": 51,
                "duration": 0.18181818181818182,
                "tempo": 120.0
            },
            {
                "start_time": 0.5840909090909091,
                "end_time": 0.7659090909090909,
                "pitch": 43,
                "velocity": 51,
                "duration": 0.18181818181818177,
                "tempo": 120.0
            },
            {
                "start_time": 0.7840909090909091,
                "end_time": 0.9659090909090908,
                "pitch": 42,
                "velocity": 51,
                "duration": 0.18181818181818177,
                "tempo": 120.0
            },
            {
                "start_time": 0.984090909090909,
                "end_time": 1.1704545454545454,
                "pitch": 40,
                "velocity": 51,
                "duration": 0.1863636363636364,
                "tempo": 120.0
            },
            {
                "start_time": 1.1886363636363635,
                "end_time": 1.3772727272727272,
                "pitch": 38,
                "velocity": 51,
                "duration": 0.1886363636363637,
                "tempo": 120.0
            },
            {
                "start_time": 1.393181818181818,
                "end_time": 1.5772727272727272,
                "pitch": 38,
                "velocity": 51,
                "duration": 0.18409090909090908,
                "tempo": 120.0
            },
            {
                "start_time": 1.593181818181818,
                "end_time": 1.7772727272727271,
                "pitch": 43,
                "velocity": 51,
                "duration": 0.18409090909090908,
                "tempo": 120.0
            },
            {
                "start_time": 1.793181818181818,
                "end_time": 1.9795454545454545,
                "pitch": 42,
                "velocity": 51,
                "duration": 0.1863636363636365,
                "tempo": 120.0
            },
            {
                "start_time": 1.9954545454545454,
                "end_time": 2.1795454545454542,
                "pitch": 40,
                "velocity": 51,
                "duration": 0.18409090909090886,
                "tempo": 120.0
            },
            {
                "start_time": 2.1977272727272728,
                "end_time": 2.377272727272727,
                "pitch": 43,
                "velocity": 51,
                "duration": 0.17954545454545423,
                "tempo": 120.0
            },
            {
                "start_time": 2.393181818181818,
                "end_time": 2.5727272727272728,
                "pitch": 42,
                "velocity": 51,
                "duration": 0.17954545454545467,
                "tempo": 120.0
            },
            {
                "start_time": 2.5886363636363634,
                "end_time": 2.7772727272727273,
                "pitch": 40,
                "velocity": 51,
                "duration": 0.18863636363636394,
                "tempo": 120.0
            },
            {
                "start_time": 2.793181818181818,
                "end_time": 2.9818181818181815,
                "pitch": 45,
                "velocity": 51,
                "duration": 0.1886363636363635,
                "tempo": 120.0
            },
            {
                "start_time": 2.9977272727272726,
                "end_time": 3.1727272727272724,
                "pitch": 38,
                "velocity": 51,
                "duration": 0.17499999999999982,
                "tempo": 120.0
            },
            {
                "start_time": 3.1886363636363635,
                "end_time": 3.3659090909090907,
                "pitch": 50,
                "velocity": 51,
                "duration": 0.17727272727272725,
                "tempo": 120.0
            },
            {
                "start_time": 3.381818181818182,
                "end_time": 3.565909090909091,
                "pitch": 45,
                "velocity": 51,
                "duration": 0.18409090909090908,
                "tempo": 120.0
            },
            {
                "start_time": 3.5818181818181816,
                "end_time": 3.7659090909090907,
                "pitch": 40,
                "velocity": 51,
                "duration": 0.18409090909090908,
                "tempo": 120.0
            },
            {
                "start_time": 3.7818181818181817,
                "end_time": 3.965909090909091,
                "pitch": 47,
                "velocity": 51,
                "duration": 0.18409090909090908,
                "tempo": 120.0
            },
            {
                "start_time": 3.9818181818181815,
                "end_time": 4.165909090909091,
                "pitch": 42,
                "velocity": 51,
                "duration": 0.18409090909090953,
                "tempo": 120.0
            },
            {
                "start_time": 4.181818181818182,
                "end_time": 4.36590909090909,
                "pitch": 37,
                "velocity": 51,
                "duration": 0.18409090909090864,
                "tempo": 120.0
            },
            {
                "start_time": 4.381818181818182,
                "end_time": 4.5659090909090905,
                "pitch": 34,
                "velocity": 51,
                "duration": 0.18409090909090864,
                "tempo": 120.0
            },
            {
                "start_time": 4.581818181818182,
                "end_time": 4.7749999999999995,
                "pitch": 30,
                "velocity": 51,
                "duration": 0.19318181818181746,
                "tempo": 120.0
            }
        ],
        "Acoustic Bass": [
            {
                "start_time": 0.0,
                "end_time": 0.1659090909090909,
                "pitch": 55,
                "velocity": 40,
                "duration": 0.1659090909090909,
                "tempo": 120.0
            },
            {
                "start_time": 0.18409090909090908,
                "end_time": 0.3659090909090909,
                "pitch": 57,
                "velocity": 40,
                "duration": 0.18181818181818182,
                "tempo": 120.0
            },
            {
                "start_time": 0.3840909090909091,
                "end_time": 0.5659090909090909,
                "pitch": 59,
                "velocity": 40,
                "duration": 0.18181818181818182,
                "tempo": 120.0
            },
            {
                "start_time": 0.5840909090909091,
                "end_time": 0.7659090909090909,
                "pitch": 55,
                "velocity": 40,
                "duration": 0.18181818181818177,
                "tempo": 120.0
            },
            {
                "start_time": 0.7840909090909091,
                "end_time": 0.9659090909090908,
                "pitch": 57,
                "velocity": 40,
                "duration": 0.18181818181818177,
                "tempo": 120.0
            },
            {
                "start_time": 0.984090909090909,
                "end_time": 1.1704545454545454,
                "pitch": 59,
                "velocity": 40,
                "duration": 0.1863636363636364,
                "tempo": 120.0
            },
            {
                "start_time": 1.1886363636363635,
                "end_time": 1.3772727272727272,
                "pitch": 62,
                "velocity": 40,
                "duration": 0.1886363636363637,
                "tempo": 120.0
            },
            {
                "start_time": 1.393181818181818,
                "end_time": 1.5772727272727272,
                "pitch": 62,
                "velocity": 40,
                "duration": 0.18409090909090908,
                "tempo": 120.0
            },
            {
                "start_time": 1.593181818181818,
                "end_time": 1.7772727272727271,
                "pitch": 55,
                "velocity": 40,
                "duration": 0.18409090909090908,
                "tempo": 120.0
            },
            {
                "start_time": 1.793181818181818,
                "end_time": 1.9795454545454545,
                "pitch": 57,
                "velocity": 40,
                "duration": 0.1863636363636365,
                "tempo": 120.0
            },
            {
                "start_time": 1.9954545454545454,
                "end_time": 2.1795454545454542,
                "pitch": 59,
                "velocity": 40,
                "duration": 0.18409090909090886,
                "tempo": 120.0
            },
            {
                "start_time": 2.1977272727272728,
                "end_time": 2.377272727272727,
                "pitch": 55,
                "velocity": 40,
                "duration": 0.17954545454545423,
                "tempo": 120.0
            },
            {
                "start_time": 2.393181818181818,
                "end_time": 2.5727272727272728,
                "pitch": 57,
                "velocity": 40,
                "duration": 0.17954545454545467,
                "tempo": 120.0
            },
            {
                "start_time": 2.5886363636363634,
                "end_time": 2.7772727272727273,
                "pitch": 59,
                "velocity": 40,
                "duration": 0.18863636363636394,
                "tempo": 120.0
            },
            {
                "start_time": 2.793181818181818,
                "end_time": 2.9818181818181815,
                "pitch": 62,
                "velocity": 40,
                "duration": 0.1886363636363635,
                "tempo": 120.0
            },
            {
                "start_time": 2.9977272727272726,
                "end_time": 3.1727272727272724,
                "pitch": 62,
                "velocity": 40,
                "duration": 0.17499999999999982,
                "tempo": 120.0
            },
            {
                "start_time": 3.1886363636363635,
                "end_time": 3.565909090909091,
                "pitch": 66,
                "velocity": 40,
                "duration": 0.3772727272727274,
                "tempo": 120.0
            },
            {
                "start_time": 3.5818181818181816,
                "end_time": 3.965909090909091,
                "pitch": 68,
                "velocity": 40,
                "duration": 0.38409090909090926,
                "tempo": 120.0
            },
            {
                "start_time": 3.9818181818181815,
                "end_time": 4.7749999999999995,
                "pitch": 70,
                "velocity": 40,
                "duration": 0.793181818181818,
                "tempo": 120.0
            }
        ]
    }
}