{
    "track_id": "Wonder Boy in Monster Land (FM) - 03 - Town",
    "mood": "happy",
    "instruments": {
        "Clarinet": [
            {
                "start_time": 0.0,
                "end_time": 0.1659090909090909,
                "pitch": 64,
                "velocity": 64,
                "duration": 0.1659090909090909,
                "tempo": 120.0
            },
            {
                "start_time": 0.18409090909090908,
                "end_time": 0.3659090909090909,
                "pitch": 67,
                "velocity": 64,
                "duration": 0.18181818181818182,
                "tempo": 120.0
            },
            {
                "start_time": 0.3840909090909091,
                "end_time": 0.5659090909090909,
                "pitch": 76,
                "velocity": 64,
                "duration": 0.18181818181818182,
                "tempo": 120.0
            },
            {
                "start_time": 0.5840909090909091,
                "end_time": 0.7659090909090909,
                "pitch": 71,
                "velocity": 64,
                "duration": 0.18181818181818177,
                "tempo": 120.0
            },
            {
                "start_time": 0.7840909090909091,
                "end_time": 0.9795454545454545,
                "pitch": 72,
                "velocity": 64,
                "duration": 0.19545454545454544,
                "tempo": 120.0
            },
            {
                "start_time": 0.9977272727272727,
                "end_time": 1.1954545454545453,
                "pitch": 71,
                "velocity": 64,
                "duration": 0.19772727272727264,
                "tempo": 120.0
            },
            {
                "start_time": 1.2136363636363636,
                "end_time": 1.3977272727272727,
                "pitch": 69,
                "velocity": 64,
                "duration": 0.18409090909090908,
                "tempo": 120.0
            },
            {
                "start_time": 1.4159090909090908,
                "end_time": 1.5977272727272727,
                "pitch": 67,
                "velocity": 64,
                "duration": 0.18181818181818188,
                "tempo": 120.0
            },
            {
                "start_time": 1.6159090909090907,
                "end_time": 1.7999999999999998,
                "pitch": 74,
                "velocity": 64,
                "duration": 0.18409090909090908,
                "tempo": 120.0
            },
            {
                "start_time": 2.018181818181818,
                "end_time": 2.1977272727272728,
                "pitch": 69,
                "velocity": 64,
                "duration": 0.17954545454545467,
                "tempo": 120.0
            },
            {
                "start_time": 2.409090909090909,
                "end_time": 2.602272727272727,
                "pitch": 76,
                "velocity": 64,
                "duration": 0.1931818181818179,
                "tempo": 120.0
            },
            {
                "start_time": 2.620454545454545,
                "end_time": 2.8136363636363635,
                "pitch": 71,
                "velocity": 64,
                "duration": 0.19318181818181834,
                "tempo": 120.0
            },
            {
                "start_time": 2.8318181818181816,
                "end_time": 3.0113636363636362,
                "pitch": 67,
                "velocity": 64,
                "duration": 0.17954545454545467,
                "tempo": 120.0
            },
            {
                "start_time": 3.0272727272727273,
                "end_time": 3.2068181818181816,
                "pitch": 67,
                "velocity": 64,
                "duration": 0.17954545454545423,
                "tempo": 120.0
            },
            {
                "start_time": 3.2227272727272727,
                "end_time": 3.411363636363636,
                "pitch": 64,
                "velocity": 64,
                "duration": 0.1886363636363635,
                "tempo": 120.0
            },
            {
                "start_time": 3.4272727272727272,
                "end_time": 3.6159090909090907,
                "pitch": 67,
                "velocity": 64,
                "duration": 0.1886363636363635,
                "tempo": 120.0
            },
            {
                "start_time": 3.634090909090909,
                "end_time": 3.809090909090909,
                "pitch": 76,
                "velocity": 64,
                "duration": 0.17500000000000027,
                "tempo": 120.0
            },
            {
                "start_time": 3.8249999999999997,
                "end_time": 4.0,
                "pitch": 71,
                "velocity": 64,
                "duration": 0.17500000000000027,
                "tempo": 120.0
            },
            {
                "start_time": 4.015909090909091,
                "end_time": 4.206818181818182,
                "pitch": 72,
                "velocity": 64,
                "duration": 0.19090909090909136,
                "tempo": 120.0
            },
            {
                "start_time": 4.225,
                "end_time": 4.418181818181818,
                "pitch": 71,
                "velocity": 64,
                "duration": 0.19318181818181834,
                "tempo": 120.0
            },
            {
                "start_time": 4.4363636363636365,
                "end_time": 4.61590909090909,
                "pitch": 69,
                "velocity": 64,
                "duration": 0.1795454545454538,
                "tempo": 120.0
            },
            {
                "start_time": 4.634090909090909,
                "end_time": 4.8136363636363635,
                "pitch": 67,
                "velocity": 64,
                "duration": 0.17954545454545467,
                "tempo": 120.0
            },
            {
                "start_time": 4.829545454545454,
                "end_time": 5.013636363636364,
                "pitch": 74,
                "velocity": 64,
                "duration": 0.18409090909090953,
                "tempo": 120.0
            },
            {
                "start_time": 5.2318181818181815,
                "end_time": 5.411363636363636,
                "pitch": 69,
                "velocity": 64,
                "duration": 0.17954545454545467,
                "tempo": 120.0
            },
            {
                "start_time": 5.622727272727272,
                "end_time": 5.8113636363636365,
                "pitch": 76,
                "velocity": 64,
                "duration": 0.18863636363636438,
                "tempo": 120.0
            },
            {
                "start_time": 5.829545454545454,
                "end_time": 6.018181818181818,
                "pitch": 71,
                "velocity": 64,
                "duration": 0.1886363636363635,
                "tempo": 120.0
            },
            {
                "start_time": 6.034090909090909,
                "end_time": 6.218181818181818,
                "pitch": 67,
                "velocity": 64,
                "duration": 0.18409090909090864,
                "tempo": 120.0
            },
            {
                "start_time": 6.236363636363636,
                "end_time": 6.320454545454545,
                "pitch": 55,
                "velocity": 64,
                "duration": 0.084090909090909,
                "tempo": 120.0
            },
            {
                "start_time": 6.336363636363636,
                "end_time": 6.420454545454545,
                "pitch": 57,
                "velocity": 64,
                "duration": 0.084090909090909,
                "tempo": 120.0
            },
            {
                "start_time": 6.436363636363636,
                "end_time": 6.625,
                "pitch": 59,
                "velocity": 64,
                "duration": 0.18863636363636438,
                "tempo": 120.0
            },
            {
                "start_time": 6.643181818181818,
                "end_time": 6.727272727272727,
                "pitch": 60,
                "velocity": 64,
                "duration": 0.084090909090909,
                "tempo": 120.0
            },
            {
                "start_time": 6.847727272727273,
                "end_time": 7.0227272727272725,
                "pitch": 60,
                "velocity": 64,
                "duration": 0.17499999999999982,
                "tempo": 120.0
            },
            {
                "start_time": 7.038636363636363,
                "end_time": 7.118181818181818,
                "pitch": 59,
                "velocity": 64,
                "duration": 0.07954545454545503,
                "tempo": 120.0
            },
            {
                "start_time": 7.134090909090909,
                "end_time": 7.213636363636363,
                "pitch": 57,
                "velocity": 64,
                "duration": 0.07954545454545414,
                "tempo": 120.0
            },
            {
                "start_time": 7.2295454545454545,
                "end_time": 7.634090909090909,
                "pitch": 55,
                "velocity": 64,
                "duration": 0.4045454545454543,
                "tempo": 120.0
            },
            {
                "start_time": 7.6499999999999995,
                "end_time": 7.831818181818181,
                "pitch": 52,
                "velocity": 64,
                "duration": 0.18181818181818166,
                "tempo": 120.0
            },
            {
                "start_time": 7.847727272727273,
                "end_time": 7.929545454545454,
                "pitch": 50,
                "velocity": 64,
                "duration": 0.08181818181818112,
                "tempo": 120.0
            },
            {
                "start_time": 7.945454545454545,
                "end_time": 8.027272727272727,
                "pitch": 52,
                "velocity": 64,
                "duration": 0.08181818181818201,
                "tempo": 120.0
            },
            {
                "start_time": 8.043181818181818,
                "end_time": 8.23181818181818,
                "pitch": 53,
                "velocity": 64,
                "duration": 0.1886363636363626,
                "tempo": 120.0
            },
            {
                "start_time": 8.247727272727273,
                "end_time": 8.436363636363636,
                "pitch": 52,
                "velocity": 64,
                "duration": 0.1886363636363626,
                "tempo": 120.0
            },
            {
                "start_time": 8.454545454545453,
                "end_time": 8.638636363636364,
                "pitch": 50,
                "velocity": 64,
                "duration": 0.18409090909091042,
                "tempo": 120.0
            },
            {
                "start_time": 8.654545454545454,
                "end_time": 8.84090909090909,
                "pitch": 48,
                "velocity": 64,
                "duration": 0.18636363636363562,
                "tempo": 120.0
            },
            {
                "start_time": 8.85681818181818,
                "end_time": 9.243181818181817,
                "pitch": 50,
                "velocity": 64,
                "duration": 0.3863636363636367,
                "tempo": 120.0
            },
            {
                "start_time": 9.259090909090908,
                "end_time": 9.438636363636363,
                "pitch": 55,
                "velocity": 64,
                "duration": 0.17954545454545467,
                "tempo": 120.0
            },
            {
                "start_time": 9.454545454545453,
                "end_time": 9.536363636363635,
                "pitch": 55,
                "velocity": 64,
                "duration": 0.08181818181818201,
                "tempo": 120.0
            },
            {
                "start_time": 9.554545454545455,
                "end_time": 9.636363636363637,
                "pitch": 57,
                "velocity": 64,
                "duration": 0.08181818181818201,
                "tempo": 120.0
            },
            {
                "start_time": 9.652272727272727,
                "end_time": 9.838636363636363,
                "pitch": 59,
                "velocity": 64,
                "duration": 0.18636363636363562,
                "tempo": 120.0
            },
            {
                "start_time": 9.85681818181818,
                "end_time": 9.94090909090909,
                "pitch": 60,
                "velocity": 64,
                "duration": 0.084090909090909,
                "tempo": 120.0
            },
            {
                "start_time": 10.061363636363636,
                "end_time": 10.236363636363636,
                "pitch": 60,
                "velocity": 64,
                "duration": 0.1750000000000007,
                "tempo": 120.0
            },
            {
                "start_time": 10.252272727272727,
                "end_time": 10.331818181818182,
                "pitch": 59,
                "velocity": 64,
                "duration": 0.07954545454545503,
                "tempo": 120.0
            },
            {
                "start_time": 10.347727272727273,
                "end_time": 10.427272727272726,
                "pitch": 57,
                "velocity": 64,
                "duration": 0.07954545454545325,
                "tempo": 120.0
            },
            {
                "start_time": 10.443181818181818,
                "end_time": 10.847727272727273,
                "pitch": 55,
                "velocity": 64,
                "duration": 0.4045454545454543,
                "tempo": 120.0
            },
            {
                "start_time": 10.863636363636363,
                "end_time": 11.045454545454545,
                "pitch": 52,
                "velocity": 64,
                "duration": 0.18181818181818166,
                "tempo": 120.0
            },
            {
                "start_time": 11.061363636363636,
                "end_time": 11.24090909090909,
                "pitch": 62,
                "velocity": 64,
                "duration": 0.17954545454545467,
                "tempo": 120.0
            },
            {
                "start_time": 11.256818181818181,
                "end_time": 11.445454545454545,
                "pitch": 55,
                "velocity": 64,
                "duration": 0.18863636363636438,
                "tempo": 120.0
            },
            {
                "start_time": 11.461363636363636,
                "end_time": 11.649999999999999,
                "pitch": 62,
                "velocity": 64,
                "duration": 0.1886363636363626,
                "tempo": 120.0
            },
            {
                "start_time": 11.668181818181818,
                "end_time": 11.847727272727273,
                "pitch": 60,
                "velocity": 64,
                "duration": 0.17954545454545467,
                "tempo": 120.0
            },
            {
                "start_time": 11.863636363636363,
                "end_time": 12.043181818181818,
                "pitch": 62,
                "velocity": 64,
                "duration": 0.17954545454545467,
                "tempo": 120.0
            },
            {
                "start_time": 12.059090909090909,
                "end_time": 12.452272727272726,
                "pitch": 64,
                "velocity": 64,
                "duration": 0.39318181818181763,
                "tempo": 120.0
            },
            {
                "start_time": 12.470454545454546,
                "end_time": 12.649999999999999,
                "pitch": 62,
                "velocity": 64,
                "duration": 0.1795454545454529,
                "tempo": 120.0
            },
            {
                "start_time": 12.665909090909091,
                "end_time": 12.747727272727271,
                "pitch": 55,
                "velocity": 64,
                "duration": 0.08181818181818024,
                "tempo": 120.0
            },
            {
                "start_time": 12.763636363636364,
                "end_time": 12.845454545454546,
                "pitch": 57,
                "velocity": 64,
                "duration": 0.08181818181818201,
                "tempo": 120.0
            },
            {
                "start_time": 12.861363636363636,
                "end_time": 13.049999999999999,
                "pitch": 59,
                "velocity": 64,
                "duration": 0.1886363636363626,
                "tempo": 120.0
            },
            {
                "start_time": 13.068181818181818,
                "end_time": 13.152272727272727,
                "pitch": 60,
                "velocity": 64,
                "duration": 0.084090909090909,
                "tempo": 120.0
            },
            {
                "start_time": 13.272727272727272,
                "end_time": 13.447727272727272,
                "pitch": 60,
                "velocity": 64,
                "duration": 0.1750000000000007,
                "tempo": 120.0
            },
            {
                "start_time": 13.463636363636363,
                "end_time": 13.543181818181818,
                "pitch": 59,
                "velocity": 64,
                "duration": 0.07954545454545503,
                "tempo": 120.0
            },
            {
                "start_time": 13.559090909090909,
                "end_time": 13.638636363636364,
                "pitch": 57,
                "velocity": 64,
                "duration": 0.07954545454545503,
                "tempo": 120.0
            },
            {
                "start_time": 13.654545454545454,
                "end_time": 14.056818181818182,
                "pitch": 55,
                "velocity": 64,
                "duration": 0.40227272727272734,
                "tempo": 120.0
            },
            {
                "start_time": 14.075,
                "end_time": 14.256818181818181,
                "pitch": 52,
                "velocity": 64,
                "duration": 0.18181818181818166,
                "tempo": 120.0
            },
            {
                "start_time": 14.272727272727272,
                "end_time": 14.354545454545454,
                "pitch": 50,
                "velocity": 64,
                "duration": 0.08181818181818201,
                "tempo": 120.0
            },
            {
                "start_time": 14.370454545454544,
                "end_time": 14.452272727272726,
                "pitch": 52,
                "velocity": 64,
                "duration": 0.08181818181818201,
                "tempo": 120.0
            },
            {
                "start_time": 14.468181818181817,
                "end_time": 14.654545454545454,
                "pitch": 53,
                "velocity": 64,
                "duration": 0.1863636363636374,
                "tempo": 120.0
            },
            {
                "start_time": 14.672727272727272,
                "end_time": 14.861363636363636,
                "pitch": 52,
                "velocity": 64,
                "duration": 0.18863636363636438,
                "tempo": 120.0
            },
            {
                "start_time": 14.877272727272727,
                "end_time": 15.063636363636363,
                "pitch": 50,
                "velocity": 64,
                "duration": 0.18636363636363562,
                "tempo": 120.0
            },
            {
                "start_time": 15.079545454545453,
                "end_time": 15.263636363636364,
                "pitch": 48,
                "velocity": 64,
                "duration": 0.18409090909091042,
                "tempo": 120.0
            },
            {
                "start_time": 15.281818181818181,
                "end_time": 15.663636363636362,
                "pitch": 50,
                "velocity": 64,
                "duration": 0.38181818181818095,
                "tempo": 120.0
            },
            {
                "start_time": 15.681818181818182,
                "end_time": 15.86590909090909,
                "pitch": 55,
                "velocity": 64,
                "duration": 0.18409090909090864,
                "tempo": 120.0
            },
            {
                "start_time": 15.881818181818181,
                "end_time": 15.96590909090909,
                "pitch": 55,
                "velocity": 64,
                "duration": 0.084090909090909,
                "tempo": 120.0
            },
            {
                "start_time": 15.984090909090908,
                "end_time": 16.068181818181817,
                "pitch": 57,
                "velocity": 64,
                "duration": 0.084090909090909,
                "tempo": 120.0
            },
            {
                "start_time": 16.084090909090907,
                "end_time": 16.268181818181816,
                "pitch": 59,
                "velocity": 64,
                "duration": 0.18409090909090864,
                "tempo": 120.0
            },
            {
                "start_time": 16.286363636363635,
                "end_time": 16.368181818181817,
                "pitch": 60,
                "velocity": 64,
                "duration": 0.08181818181818201,
                "tempo": 120.0
            },
            {
                "start_time": 16.486363636363635,
                "end_time": 16.661363636363635,
                "pitch": 60,
                "velocity": 64,
                "duration": 0.1750000000000007,
                "tempo": 120.0
            },
            {
                "start_time": 16.677272727272726,
                "end_time": 16.756818181818183,
                "pitch": 59,
                "velocity": 64,
                "duration": 0.0795454545454568,
                "tempo": 120.0
            },
            {
                "start_time": 16.772727272727273,
                "end_time": 16.852272727272727,
                "pitch": 57,
                "velocity": 64,
                "duration": 0.07954545454545325,
                "tempo": 120.0
            },
            {
                "start_time": 16.868181818181817,
                "end_time": 17.272727272727273,
                "pitch": 55,
                "velocity": 64,
                "duration": 0.4045454545454561,
                "tempo": 120.0
            },
            {
                "start_time": 17.288636363636364,
                "end_time": 17.470454545454544,
                "pitch": 52,
                "velocity": 64,
                "duration": 0.18181818181817988,
                "tempo": 120.0
            },
            {
                "start_time": 17.486363636363635,
                "end_time": 17.66590909090909,
                "pitch": 62,
                "velocity": 64,
                "duration": 0.17954545454545467,
                "tempo": 120.0
            },
            {
                "start_time": 17.68181818181818,
                "end_time": 17.870454545454546,
                "pitch": 55,
                "velocity": 64,
                "duration": 0.18863636363636616,
                "tempo": 120.0
            },
            {
                "start_time": 17.886363636363637,
                "end_time": 18.075,
                "pitch": 62,
                "velocity": 64,
                "duration": 0.1886363636363626,
                "tempo": 120.0
            },
            {
                "start_time": 18.09318181818182,
                "end_time": 18.272727272727273,
                "pitch": 60,
                "velocity": 64,
                "duration": 0.17954545454545467,
                "tempo": 120.0
            },
            {
                "start_time": 18.288636363636364,
                "end_time": 18.46818181818182,
                "pitch": 62,
                "velocity": 64,
                "duration": 0.17954545454545467,
                "tempo": 120.0
            },
            {
                "start_time": 18.48409090909091,
                "end_time": 18.877272727272725,
                "pitch": 64,
                "velocity": 64,
                "duration": 0.39318181818181586,
                "tempo": 120.0
            },
            {
                "start_time": 18.895454545454545,
                "end_time": 19.270454545454545,
                "pitch": 62,
                "velocity": 64,
                "duration": 0.375,
                "tempo": 120.0
            },
            {
                "start_time": 19.286363636363635,
                "end_time": 19.474999999999998,
                "pitch": 60,
                "velocity": 64,
                "duration": 0.1886363636363626,
                "tempo": 120.0
            },
            {
                "start_time": 19.493181818181817,
                "end_time": 19.679545454545455,
                "pitch": 60,
                "velocity": 64,
                "duration": 0.1863636363636374,
                "tempo": 120.0
            },
            {
                "start_time": 19.69772727272727,
                "end_time": 19.88181818181818,
                "pitch": 57,
                "velocity": 64,
                "duration": 0.18409090909090864,
                "tempo": 120.0
            },
            {
                "start_time": 19.9,
                "end_time": 20.275,
                "pitch": 60,
                "velocity": 64,
                "duration": 0.375,
                "tempo": 120.0
            },
            {
                "start_time": 20.29090909090909,
                "end_time": 20.675,
                "pitch": 62,
                "velocity": 64,
                "duration": 0.3840909090909115,
                "tempo": 120.0
            },
            {
                "start_time": 20.693181818181817,
                "end_time": 21.474999999999998,
                "pitch": 55,
                "velocity": 64,
                "duration": 0.7818181818181813,
                "tempo": 120.0
            },
            {
                "start_time": 21.493181818181817,
                "end_time": 21.877272727272725,
                "pitch": 50,
                "velocity": 64,
                "duration": 0.38409090909090793,
                "tempo": 120.0
            },
            {
                "start_time": 21.893181818181816,
                "end_time": 21.979545454545452,
                "pitch": 52,
                "velocity": 64,
                "duration": 0.08636363636363598,
                "tempo": 120.0
            },
            {
                "start_time": 22.099999999999998,
                "end_time": 22.48181818181818,
                "pitch": 53,
                "velocity": 64,
                "duration": 0.3818181818181827,
                "tempo": 120.0
            },
            {
                "start_time": 22.5,
                "end_time": 22.68409090909091,
                "pitch": 62,
                "velocity": 64,
                "duration": 0.18409090909090864,
                "tempo": 120.0
            },
            {
                "start_time": 22.7,
                "end_time": 22.884090909090908,
                "pitch": 62,
                "velocity": 64,
                "duration": 0.18409090909090864,
                "tempo": 120.0
            },
            {
                "start_time": 22.902272727272727,
                "end_time": 23.09090909090909,
                "pitch": 60,
                "velocity": 64,
                "duration": 0.1886363636363626,
                "tempo": 120.0
            },
            {
                "start_time": 23.10681818181818,
                "end_time": 23.493181818181817,
                "pitch": 62,
                "velocity": 64,
                "duration": 0.3863636363636367,
                "tempo": 120.0
            },
            {
                "start_time": 23.509090909090908,
                "end_time": 23.884090909090908,
                "pitch": 64,
                "velocity": 64,
                "duration": 0.375,
                "tempo": 120.0
            },
            {
                "start_time": 23.9,
                "end_time": 24.18409090909091,
                "pitch": 60,
                "velocity": 64,
                "duration": 0.28409090909091006,
                "tempo": 120.0
            },
            {
                "start_time": 24.202272727272724,
                "end_time": 24.288636363636364,
                "pitch": 57,
                "velocity": 64,
                "duration": 0.08636363636363953,
                "tempo": 120.0
            },
            {
                "start_time": 24.30681818181818,
                "end_time": 24.395454545454545,
                "pitch": 60,
                "velocity": 64,
                "duration": 0.08863636363636473,
                "tempo": 120.0
            },
            {
                "start_time": 24.413636363636364,
                "end_time": 24.5,
                "pitch": 64,
                "velocity": 64,
                "duration": 0.08636363636363598,
                "tempo": 120.0
            },
            {
                "start_time": 24.518181818181816,
                "end_time": 24.602272727272727,
                "pitch": 65,
                "velocity": 64,
                "duration": 0.08409090909091077,
                "tempo": 120.0
            },
            {
                "start_time": 24.618181818181817,
                "end_time": 24.702272727272724,
                "pitch": 60,
                "velocity": 64,
                "duration": 0.08409090909090722,
                "tempo": 120.0
            },
            {
                "start_time": 24.71818181818182,
                "end_time": 24.802272727272726,
                "pitch": 62,
                "velocity": 64,
                "duration": 0.08409090909090722,
                "tempo": 120.0
            },
            {
                "start_time": 24.818181818181817,
                "end_time": 24.902272727272727,
                "pitch": 67,
                "velocity": 64,
                "duration": 0.08409090909091077,
                "tempo": 120.0
            },
            {
                "start_time": 24.918181818181818,
                "end_time": 25.002272727272725,
                "pitch": 69,
                "velocity": 64,
                "duration": 0.08409090909090722,
                "tempo": 120.0
            },
            {
                "start_time": 25.020454545454545,
                "end_time": 25.104545454545452,
                "pitch": 67,
                "velocity": 64,
                "duration": 0.08409090909090722,
                "tempo": 120.0
            },
            {
                "start_time": 25.120454545454542,
                "end_time": 25.204545454545453,
                "pitch": 69,
                "velocity": 64,
                "duration": 0.08409090909091077,
                "tempo": 120.0
            },
            {
                "start_time": 25.220454545454544,
                "end_time": 25.304545454545455,
                "pitch": 71,
                "velocity": 64,
                "duration": 0.08409090909091077,
                "tempo": 120.0
            },
            {
                "start_time": 25.32272727272727,
                "end_time": 25.504545454545454,
                "pitch": 72,
                "velocity": 64,
                "duration": 0.18181818181818343,
                "tempo": 120.0
            },
            {
                "start_time": 25.52272727272727,
                "end_time": 25.704545454545453,
                "pitch": 74,
                "velocity": 64,
                "duration": 0.18181818181818343,
                "tempo": 120.0
            },
            {
                "start_time": 25.722727272727273,
                "end_time": 25.90681818181818,
                "pitch": 60,
                "velocity": 64,
                "duration": 0.18409090909090864,
                "tempo": 120.0
            },
            {
                "start_time": 25.922727272727272,
                "end_time": 26.10681818181818,
                "pitch": 60,
                "velocity": 64,
                "duration": 0.18409090909090864,
                "tempo": 120.0
            },
            {
                "start_time": 26.125,
                "end_time": 26.30909090909091,
                "pitch": 57,
                "velocity": 64,
                "duration": 0.18409090909090864,
                "tempo": 120.0
            },
            {
                "start_time": 26.325,
                "end_time": 26.7,
                "pitch": 60,
                "velocity": 64,
                "duration": 0.375,
                "tempo": 120.0
            },
            {
                "start_time": 26.71590909090909,
                "end_time": 27.097727272727273,
                "pitch": 62,
                "velocity": 64,
                "duration": 0.3818181818181827,
                "tempo": 120.0
            },
            {
                "start_time": 27.11590909090909,
                "end_time": 27.9,
                "pitch": 55,
                "velocity": 64,
                "duration": 0.7840909090909101,
                "tempo": 120.0
            },
            {
                "start_time": 27.91590909090909,
                "end_time": 28.299999999999997,
                "pitch": 50,
                "velocity": 64,
                "duration": 0.38409090909090793,
                "tempo": 120.0
            },
            {
                "start_time": 28.318181818181817,
                "end_time": 28.402272727272727,
                "pitch": 52,
                "velocity": 64,
                "duration": 0.08409090909091077,
                "tempo": 120.0
            },
            {
                "start_time": 28.52272727272727,
                "end_time": 28.909090909090907,
                "pitch": 53,
                "velocity": 64,
                "duration": 0.3863636363636367,
                "tempo": 120.0
            },
            {
                "start_time": 28.924999999999997,
                "end_time": 29.113636363636363,
                "pitch": 62,
                "velocity": 64,
                "duration": 0.18863636363636616,
                "tempo": 120.0
            },
            {
                "start_time": 29.13181818181818,
                "end_time": 29.318181818181817,
                "pitch": 62,
                "velocity": 64,
                "duration": 0.1863636363636374,
                "tempo": 120.0
            },
            {
                "start_time": 29.336363636363636,
                "end_time": 29.520454545454545,
                "pitch": 60,
                "velocity": 64,
                "duration": 0.18409090909090864,
                "tempo": 120.0
            },
            {
                "start_time": 29.536363636363635,
                "end_time": 29.91590909090909,
                "pitch": 62,
                "velocity": 64,
                "duration": 0.37954545454545396,
                "tempo": 120.0
            },
            {
                "start_time": 29.93409090909091,
                "end_time": 30.311363636363634,
                "pitch": 64,
                "velocity": 64,
                "duration": 0.3772727272727252,
                "tempo": 120.0
            },
            {
                "start_time": 30.329545454545453,
                "end_time": 30.922727272727272,
                "pitch": 60,
                "velocity": 64,
                "duration": 0.5931818181818187,
                "tempo": 120.0
            },
            {
                "start_time": 30.938636363636363,
                "end_time": 31.325,
                "pitch": 59,
                "velocity": 64,
                "duration": 0.3863636363636367,
                "tempo": 120.0
            },
            {
                "start_time": 31.343181818181815,
                "end_time": 31.724999999999998,
                "pitch": 57,
                "velocity": 64,
                "duration": 0.3818181818181827,
                "tempo": 120.0
            },
            {
                "start_time": 31.743181818181817,
                "end_time": 32.12954545454545,
                "pitch": 55,
                "velocity": 64,
                "duration": 0.38636363636363313,
                "tempo": 120.0
            }
        ],
        "Acoustic Bass": [
            {
                "start_time": 0.0,
                "end_time": 0.1659090909090909,
                "pitch": 36,
                "velocity": 51,
                "duration": 0.1659090909090909,
                "tempo": 120.0
            },
            {
                "start_time": 0.5840909090909091,
                "end_time": 0.7659090909090909,
                "pitch": 31,
                "velocity": 51,
                "duration": 0.18181818181818177,
                "tempo": 120.0
            },
            {
                "start_time": 0.7840909090909091,
                "end_time": 0.8727272727272727,
                "pitch": 40,
                "velocity": 51,
                "duration": 0.08863636363636362,
                "tempo": 120.0
            },
            {
                "start_time": 0.8909090909090909,
                "end_time": 0.9795454545454545,
                "pitch": 41,
                "velocity": 51,
                "duration": 0.08863636363636362,
                "tempo": 120.0
            },
            {
                "start_time": 1.2136363636363636,
                "end_time": 1.2977272727272726,
                "pitch": 40,
                "velocity": 51,
                "duration": 0.084090909090909,
                "tempo": 120.0
            },
            {
                "start_time": 1.315909090909091,
                "end_time": 1.3977272727272727,
                "pitch": 43,
                "velocity": 51,
                "duration": 0.08181818181818179,
                "tempo": 120.0
            },
            {
                "start_time": 1.4159090909090908,
                "end_time": 1.5977272727272727,
                "pitch": 36,
                "velocity": 51,
                "duration": 0.18181818181818188,
                "tempo": 120.0
            },
            {
                "start_time": 1.6159090909090907,
                "end_time": 1.7999999999999998,
                "pitch": 38,
                "velocity": 51,
                "duration": 0.18409090909090908,
                "tempo": 120.0
            },
            {
                "start_time": 1.815909090909091,
                "end_time": 2.0,
                "pitch": 43,
                "velocity": 51,
                "duration": 0.18409090909090908,
                "tempo": 120.0
            },
            {
                "start_time": 2.2136363636363634,
                "end_time": 2.2954545454545454,
                "pitch": 38,
                "velocity": 51,
                "duration": 0.08181818181818201,
                "tempo": 120.0
            },
            {
                "start_time": 2.311363636363636,
                "end_time": 2.393181818181818,
                "pitch": 38,
                "velocity": 51,
                "duration": 0.08181818181818201,
                "tempo": 120.0
            },
            {
                "start_time": 2.409090909090909,
                "end_time": 2.602272727272727,
                "pitch": 36,
                "velocity": 51,
                "duration": 0.1931818181818179,
                "tempo": 120.0
            },
            {
                "start_time": 2.8318181818181816,
                "end_time": 3.0113636363636362,
                "pitch": 35,
                "velocity": 51,
                "duration": 0.17954545454545467,
                "tempo": 120.0
            },
            {
                "start_time": 3.0272727272727273,
                "end_time": 3.109090909090909,
                "pitch": 31,
                "velocity": 51,
                "duration": 0.08181818181818157,
                "tempo": 120.0
            },
            {
                "start_time": 3.125,
                "end_time": 3.2068181818181816,
                "pitch": 31,
                "velocity": 51,
                "duration": 0.08181818181818157,
                "tempo": 120.0
            },
            {
                "start_time": 3.2227272727272727,
                "end_time": 3.411363636363636,
                "pitch": 36,
                "velocity": 51,
                "duration": 0.1886363636363635,
                "tempo": 120.0
            },
            {
                "start_time": 3.8249999999999997,
                "end_time": 4.0,
                "pitch": 31,
                "velocity": 51,
                "duration": 0.17500000000000027,
                "tempo": 120.0
            },
            {
                "start_time": 4.015909090909091,
                "end_time": 4.1022727272727275,
                "pitch": 40,
                "velocity": 51,
                "duration": 0.08636363636363686,
                "tempo": 120.0
            },
            {
                "start_time": 4.120454545454545,
                "end_time": 4.206818181818182,
                "pitch": 41,
                "velocity": 51,
                "duration": 0.08636363636363686,
                "tempo": 120.0
            },
            {
                "start_time": 4.4363636363636365,
                "end_time": 4.518181818181818,
                "pitch": 40,
                "velocity": 51,
                "duration": 0.08181818181818112,
                "tempo": 120.0
            },
            {
                "start_time": 4.534090909090909,
                "end_time": 4.61590909090909,
                "pitch": 43,
                "velocity": 51,
                "duration": 0.08181818181818112,
                "tempo": 120.0
            },
            {
                "start_time": 4.634090909090909,
                "end_time": 4.8136363636363635,
                "pitch": 36,
                "velocity": 51,
                "duration": 0.17954545454545467,
                "tempo": 120.0
            },
            {
                "start_time": 4.829545454545454,
                "end_time": 5.013636363636364,
                "pitch": 38,
                "velocity": 51,
                "duration": 0.18409090909090953,
                "tempo": 120.0
            },
            {
                "start_time": 5.029545454545454,
                "end_time": 5.215909090909091,
                "pitch": 43,
                "velocity": 51,
                "duration": 0.1863636363636365,
                "tempo": 120.0
            },
            {
                "start_time": 5.427272727272727,
                "end_time": 5.509090909090909,
                "pitch": 38,
                "velocity": 51,
                "duration": 0.08181818181818201,
                "tempo": 120.0
            },
            {
                "start_time": 5.5249999999999995,
                "end_time": 5.6068181818181815,
                "pitch": 38,
                "velocity": 51,
                "duration": 0.08181818181818201,
                "tempo": 120.0
            },
            {
                "start_time": 5.622727272727272,
                "end_time": 5.8113636363636365,
                "pitch": 36,
                "velocity": 51,
                "duration": 0.18863636363636438,
                "tempo": 120.0
            },
            {
                "start_time": 6.034090909090909,
                "end_time": 6.218181818181818,
                "pitch": 35,
                "velocity": 51,
                "duration": 0.18409090909090864,
                "tempo": 120.0
            },
            {
                "start_time": 6.236363636363636,
                "end_time": 6.320454545454545,
                "pitch": 31,
                "velocity": 51,
                "duration": 0.084090909090909,
                "tempo": 120.0
            },
            {
                "start_time": 6.336363636363636,
                "end_time": 6.420454545454545,
                "pitch": 31,
                "velocity": 51,
                "duration": 0.084090909090909,
                "tempo": 120.0
            },
            {
                "start_time": 6.436363636363636,
                "end_time": 6.625,
                "pitch": 36,
                "velocity": 51,
                "duration": 0.18863636363636438,
                "tempo": 120.0
            },
            {
                "start_time": 7.038636363636363,
                "end_time": 7.213636363636363,
                "pitch": 31,
                "velocity": 51,
                "duration": 0.17499999999999982,
                "tempo": 120.0
            },
            {
                "start_time": 7.2295454545454545,
                "end_time": 7.3159090909090905,
                "pitch": 40,
                "velocity": 51,
                "duration": 0.08636363636363598,
                "tempo": 120.0
            },
            {
                "start_time": 7.334090909090909,
                "end_time": 7.422727272727272,
                "pitch": 41,
                "velocity": 51,
                "duration": 0.08863636363636296,
                "tempo": 120.0
            },
            {
                "start_time": 7.6499999999999995,
                "end_time": 7.7318181818181815,
                "pitch": 40,
                "velocity": 51,
                "duration": 0.08181818181818201,
                "tempo": 120.0
            },
            {
                "start_time": 7.75,
                "end_time": 7.831818181818181,
                "pitch": 43,
                "velocity": 51,
                "duration": 0.08181818181818112,
                "tempo": 120.0
            },
            {
                "start_time": 7.847727272727273,
                "end_time": 8.027272727272727,
                "pitch": 36,
                "velocity": 51,
                "duration": 0.17954545454545467,
                "tempo": 120.0
            },
            {
                "start_time": 8.043181818181818,
                "end_time": 8.23181818181818,
                "pitch": 38,
                "velocity": 51,
                "duration": 0.1886363636363626,
                "tempo": 120.0
            },
            {
                "start_time": 8.247727272727273,
                "end_time": 8.436363636363636,
                "pitch": 43,
                "velocity": 51,
                "duration": 0.1886363636363626,
                "tempo": 120.0
            },
            {
                "start_time": 8.654545454545454,
                "end_time": 8.738636363636363,
                "pitch": 38,
                "velocity": 51,
                "duration": 0.084090909090909,
                "tempo": 120.0
            },
            {
                "start_time": 8.756818181818181,
                "end_time": 8.84090909090909,
                "pitch": 38,
                "velocity": 51,
                "duration": 0.084090909090909,
                "tempo": 120.0
            },
            {
                "start_time": 8.85681818181818,
                "end_time": 9.040909090909091,
                "pitch": 36,
                "velocity": 51,
                "duration": 0.18409090909091042,
                "tempo": 120.0
            },
            {
                "start_time": 9.259090909090908,
                "end_time": 9.438636363636363,
                "pitch": 35,
                "velocity": 51,
                "duration": 0.17954545454545467,
                "tempo": 120.0
            },
            {
                "start_time": 9.454545454545453,
                "end_time": 9.536363636363635,
                "pitch": 31,
                "velocity": 51,
                "duration": 0.08181818181818201,
                "tempo": 120.0
            },
            {
                "start_time": 9.554545454545455,
                "end_time": 9.636363636363637,
                "pitch": 31,
                "velocity": 51,
                "duration": 0.08181818181818201,
                "tempo": 120.0
            },
            {
                "start_time": 9.652272727272727,
                "end_time": 9.838636363636363,
                "pitch": 36,
                "velocity": 51,
                "duration": 0.18636363636363562,
                "tempo": 120.0
            },
            {
                "start_time": 10.252272727272727,
                "end_time": 10.427272727272726,
                "pitch": 31,
                "velocity": 51,
                "duration": 0.17499999999999893,
                "tempo": 120.0
            },
            {
                "start_time": 10.443181818181818,
                "end_time": 10.529545454545454,
                "pitch": 40,
                "velocity": 51,
                "duration": 0.08636363636363598,
                "tempo": 120.0
            },
            {
                "start_time": 10.547727272727272,
                "end_time": 10.636363636363637,
                "pitch": 41,
                "velocity": 51,
                "duration": 0.08863636363636473,
                "tempo": 120.0
            },
            {
                "start_time": 10.863636363636363,
                "end_time": 10.947727272727272,
                "pitch": 40,
                "velocity": 51,
                "duration": 0.084090909090909,
                "tempo": 120.0
            },
            {
                "start_time": 10.963636363636363,
                "end_time": 11.045454545454545,
                "pitch": 43,
                "velocity": 51,
                "duration": 0.08181818181818201,
                "tempo": 120.0
            },
            {
                "start_time": 11.061363636363636,
                "end_time": 11.24090909090909,
                "pitch": 36,
                "velocity": 51,
                "duration": 0.17954545454545467,
                "tempo": 120.0
            },
            {
                "start_time": 11.256818181818181,
                "end_time": 11.445454545454545,
                "pitch": 38,
                "velocity": 51,
                "duration": 0.18863636363636438,
                "tempo": 120.0
            },
            {
                "start_time": 11.461363636363636,
                "end_time": 11.649999999999999,
                "pitch": 43,
                "velocity": 51,
                "duration": 0.1886363636363626,
                "tempo": 120.0
            },
            {
                "start_time": 11.863636363636363,
                "end_time": 11.945454545454545,
                "pitch": 38,
                "velocity": 51,
                "duration": 0.08181818181818201,
                "tempo": 120.0
            },
            {
                "start_time": 11.961363636363636,
                "end_time": 12.043181818181818,
                "pitch": 38,
                "velocity": 51,
                "duration": 0.08181818181818201,
                "tempo": 120.0
            },
            {
                "start_time": 12.059090909090909,
                "end_time": 12.247727272727273,
                "pitch": 36,
                "velocity": 51,
                "duration": 0.18863636363636438,
                "tempo": 120.0
            },
            {
                "start_time": 12.470454545454546,
                "end_time": 12.649999999999999,
                "pitch": 35,
                "velocity": 51,
                "duration": 0.1795454545454529,
                "tempo": 120.0
            },
            {
                "start_time": 12.665909090909091,
                "end_time": 12.747727272727271,
                "pitch": 31,
                "velocity": 51,
                "duration": 0.08181818181818024,
                "tempo": 120.0
            },
            {
                "start_time": 12.763636363636364,
                "end_time": 12.845454545454546,
                "pitch": 31,
                "velocity": 51,
                "duration": 0.08181818181818201,
                "tempo": 120.0
            },
            {
                "start_time": 12.861363636363636,
                "end_time": 13.049999999999999,
                "pitch": 36,
                "velocity": 51,
                "duration": 0.1886363636363626,
                "tempo": 120.0
            },
            {
                "start_time": 13.463636363636363,
                "end_time": 13.638636363636364,
                "pitch": 31,
                "velocity": 51,
                "duration": 0.1750000000000007,
                "tempo": 120.0
            },
            {
                "start_time": 13.654545454545454,
                "end_time": 13.74090909090909,
                "pitch": 40,
                "velocity": 51,
                "duration": 0.08636363636363598,
                "tempo": 120.0
            },
            {
                "start_time": 13.759090909090908,
                "end_time": 13.845454545454544,
                "pitch": 41,
                "velocity": 51,
                "duration": 0.08636363636363598,
                "tempo": 120.0
            },
            {
                "start_time": 14.075,
                "end_time": 14.156818181818181,
                "pitch": 40,
                "velocity": 51,
                "duration": 0.08181818181818201,
                "tempo": 120.0
            },
            {
                "start_time": 14.174999999999999,
                "end_time": 14.256818181818181,
                "pitch": 43,
                "velocity": 51,
                "duration": 0.08181818181818201,
                "tempo": 120.0
            },
            {
                "start_time": 14.272727272727272,
                "end_time": 14.452272727272726,
                "pitch": 36,
                "velocity": 51,
                "duration": 0.17954545454545467,
                "tempo": 120.0
            },
            {
                "start_time": 14.468181818181817,
                "end_time": 14.654545454545454,
                "pitch": 38,
                "velocity": 51,
                "duration": 0.1863636363636374,
                "tempo": 120.0
            },
            {
                "start_time": 14.672727272727272,
                "end_time": 14.861363636363636,
                "pitch": 43,
                "velocity": 51,
                "duration": 0.18863636363636438,
                "tempo": 120.0
            },
            {
                "start_time": 15.079545454545453,
                "end_time": 15.163636363636362,
                "pitch": 38,
                "velocity": 51,
                "duration": 0.084090909090909,
                "tempo": 120.0
            },
            {
                "start_time": 15.179545454545455,
                "end_time": 15.263636363636364,
                "pitch": 38,
                "velocity": 51,
                "duration": 0.084090909090909,
                "tempo": 120.0
            },
            {
                "start_time": 15.281818181818181,
                "end_time": 15.463636363636363,
                "pitch": 36,
                "velocity": 51,
                "duration": 0.18181818181818166,
                "tempo": 120.0
            },
            {
                "start_time": 15.681818181818182,
                "end_time": 15.86590909090909,
                "pitch": 35,
                "velocity": 51,
                "duration": 0.18409090909090864,
                "tempo": 120.0
            },
            {
                "start_time": 15.881818181818181,
                "end_time": 15.96590909090909,
                "pitch": 31,
                "velocity": 51,
                "duration": 0.084090909090909,
                "tempo": 120.0
            },
            {
                "start_time": 15.984090909090908,
                "end_time": 16.068181818181817,
                "pitch": 31,
                "velocity": 51,
                "duration": 0.084090909090909,
                "tempo": 120.0
            },
            {
                "start_time": 16.084090909090907,
                "end_time": 16.268181818181816,
                "pitch": 36,
                "velocity": 51,
                "duration": 0.18409090909090864,
                "tempo": 120.0
            },
            {
                "start_time": 16.677272727272726,
                "end_time": 16.852272727272727,
                "pitch": 31,
                "velocity": 51,
                "duration": 0.1750000000000007,
                "tempo": 120.0
            },
            {
                "start_time": 16.868181818181817,
                "end_time": 16.954545454545453,
                "pitch": 40,
                "velocity": 51,
                "duration": 0.08636363636363598,
                "tempo": 120.0
            },
            {
                "start_time": 16.972727272727273,
                "end_time": 17.061363636363634,
                "pitch": 41,
                "velocity": 51,
                "duration": 0.08863636363636118,
                "tempo": 120.0
            },
            {
                "start_time": 17.288636363636364,
                "end_time": 17.37272727272727,
                "pitch": 40,
                "velocity": 51,
                "duration": 0.08409090909090722,
                "tempo": 120.0
            },
            {
                "start_time": 17.388636363636362,
                "end_time": 17.470454545454544,
                "pitch": 43,
                "velocity": 51,
                "duration": 0.08181818181818201,
                "tempo": 120.0
            },
            {
                "start_time": 17.486363636363635,
                "end_time": 17.66590909090909,
                "pitch": 36,
                "velocity": 51,
                "duration": 0.17954545454545467,
                "tempo": 120.0
            },
            {
                "start_time": 17.68181818181818,
                "end_time": 17.870454545454546,
                "pitch": 38,
                "velocity": 51,
                "duration": 0.18863636363636616,
                "tempo": 120.0
            },
            {
                "start_time": 17.886363636363637,
                "end_time": 18.075,
                "pitch": 43,
                "velocity": 51,
                "duration": 0.1886363636363626,
                "tempo": 120.0
            },
            {
                "start_time": 18.288636363636364,
                "end_time": 18.370454545454546,
                "pitch": 38,
                "velocity": 51,
                "duration": 0.08181818181818201,
                "tempo": 120.0
            },
            {
                "start_time": 18.386363636363637,
                "end_time": 18.46818181818182,
                "pitch": 38,
                "velocity": 51,
                "duration": 0.08181818181818201,
                "tempo": 120.0
            },
            {
                "start_time": 18.48409090909091,
                "end_time": 18.672727272727272,
                "pitch": 36,
                "velocity": 51,
                "duration": 0.1886363636363626,
                "tempo": 120.0
            },
            {
                "start_time": 18.895454545454545,
                "end_time": 19.075,
                "pitch": 35,
                "velocity": 51,
                "duration": 0.17954545454545467,
                "tempo": 120.0
            },
            {
                "start_time": 19.09090909090909,
                "end_time": 19.172727272727272,
                "pitch": 31,
                "velocity": 51,
                "duration": 0.08181818181818201,
                "tempo": 120.0
            },
            {
                "start_time": 19.188636363636363,
                "end_time": 19.270454545454545,
                "pitch": 31,
                "velocity": 51,
                "duration": 0.08181818181818201,
                "tempo": 120.0
            },
            {
                "start_time": 19.286363636363635,
                "end_time": 20.275,
                "pitch": 33,
                "velocity": 51,
                "duration": 0.9886363636363633,
                "tempo": 120.0
            },
            {
                "start_time": 20.29090909090909,
                "end_time": 20.46590909090909,
                "pitch": 31,
                "velocity": 51,
                "duration": 0.1750000000000007,
                "tempo": 120.0
            },
            {
                "start_time": 20.48181818181818,
                "end_time": 20.675,
                "pitch": 33,
                "velocity": 51,
                "duration": 0.19318181818182012,
                "tempo": 120.0
            },
            {
                "start_time": 20.693181818181817,
                "end_time": 20.886363636363637,
                "pitch": 35,
                "velocity": 51,
                "duration": 0.19318181818182012,
                "tempo": 120.0
            },
            {
                "start_time": 20.904545454545453,
                "end_time": 21.084090909090907,
                "pitch": 36,
                "velocity": 51,
                "duration": 0.17954545454545467,
                "tempo": 120.0
            },
            {
                "start_time": 21.099999999999998,
                "end_time": 21.18181818181818,
                "pitch": 31,
                "velocity": 51,
                "duration": 0.08181818181818201,
                "tempo": 120.0
            },
            {
                "start_time": 21.493181818181817,
                "end_time": 21.575,
                "pitch": 31,
                "velocity": 51,
                "duration": 0.08181818181818201,
                "tempo": 120.0
            },
            {
                "start_time": 21.688636363636363,
                "end_time": 21.877272727272725,
                "pitch": 36,
                "velocity": 51,
                "duration": 0.1886363636363626,
                "tempo": 120.0
            },
            {
                "start_time": 21.893181818181816,
                "end_time": 22.081818181818182,
                "pitch": 31,
                "velocity": 51,
                "duration": 0.18863636363636616,
                "tempo": 120.0
            },
            {
                "start_time": 22.099999999999998,
                "end_time": 22.18181818181818,
                "pitch": 36,
                "velocity": 51,
                "duration": 0.08181818181818201,
                "tempo": 120.0
            },
            {
                "start_time": 22.2,
                "end_time": 22.28181818181818,
                "pitch": 36,
                "velocity": 51,
                "duration": 0.08181818181818201,
                "tempo": 120.0
            },
            {
                "start_time": 22.299999999999997,
                "end_time": 22.38181818181818,
                "pitch": 36,
                "velocity": 51,
                "duration": 0.08181818181818201,
                "tempo": 120.0
            },
            {
                "start_time": 22.5,
                "end_time": 23.295454545454543,
                "pitch": 31,
                "velocity": 51,
                "duration": 0.7954545454545432,
                "tempo": 120.0
            },
            {
                "start_time": 23.311363636363634,
                "end_time": 23.493181818181817,
                "pitch": 38,
                "velocity": 51,
                "duration": 0.18181818181818343,
                "tempo": 120.0
            },
            {
                "start_time": 23.509090909090908,
                "end_time": 23.688636363636363,
                "pitch": 36,
                "velocity": 51,
                "duration": 0.17954545454545467,
                "tempo": 120.0
            },
            {
                "start_time": 23.9,
                "end_time": 24.081818181818182,
                "pitch": 35,
                "velocity": 51,
                "duration": 0.18181818181818343,
                "tempo": 120.0
            },
            {
                "start_time": 24.097727272727273,
                "end_time": 24.5,
                "pitch": 29,
                "velocity": 51,
                "duration": 0.40227272727272734,
                "tempo": 120.0
            },
            {
                "start_time": 24.518181818181816,
                "end_time": 24.902272727272727,
                "pitch": 31,
                "velocity": 51,
                "duration": 0.3840909090909115,
                "tempo": 120.0
            },
            {
                "start_time": 24.918181818181818,
                "end_time": 25.104545454545452,
                "pitch": 33,
                "velocity": 51,
                "duration": 0.18636363636363384,
                "tempo": 120.0
            },
            {
                "start_time": 25.120454545454542,
                "end_time": 25.304545454545455,
                "pitch": 41,
                "velocity": 51,
                "duration": 0.1840909090909122,
                "tempo": 120.0
            },
            {
                "start_time": 25.32272727272727,
                "end_time": 25.504545454545454,
                "pitch": 35,
                "velocity": 51,
                "duration": 0.18181818181818343,
                "tempo": 120.0
            },
            {
                "start_time": 25.52272727272727,
                "end_time": 25.704545454545453,
                "pitch": 43,
                "velocity": 51,
                "duration": 0.18181818181818343,
                "tempo": 120.0
            },
            {
                "start_time": 25.722727272727273,
                "end_time": 26.7,
                "pitch": 33,
                "velocity": 51,
                "duration": 0.9772727272727266,
                "tempo": 120.0
            },
            {
                "start_time": 26.71590909090909,
                "end_time": 26.89090909090909,
                "pitch": 31,
                "velocity": 51,
                "duration": 0.1750000000000007,
                "tempo": 120.0
            },
            {
                "start_time": 26.90681818181818,
                "end_time": 27.097727272727273,
                "pitch": 33,
                "velocity": 51,
                "duration": 0.19090909090909136,
                "tempo": 120.0
            },
            {
                "start_time": 27.11590909090909,
                "end_time": 27.30909090909091,
                "pitch": 35,
                "velocity": 51,
                "duration": 0.19318181818182012,
                "tempo": 120.0
            },
            {
                "start_time": 27.327272727272724,
                "end_time": 27.50681818181818,
                "pitch": 36,
                "velocity": 51,
                "duration": 0.17954545454545467,
                "tempo": 120.0
            },
            {
                "start_time": 27.525,
                "end_time": 27.60681818181818,
                "pitch": 31,
                "velocity": 51,
                "duration": 0.08181818181818201,
                "tempo": 120.0
            },
            {
                "start_time": 27.91590909090909,
                "end_time": 27.99772727272727,
                "pitch": 31,
                "velocity": 51,
                "duration": 0.08181818181818201,
                "tempo": 120.0
            },
            {
                "start_time": 28.111363636363635,
                "end_time": 28.299999999999997,
                "pitch": 36,
                "velocity": 51,
                "duration": 0.1886363636363626,
                "tempo": 120.0
            },
            {
                "start_time": 28.318181818181817,
                "end_time": 28.50681818181818,
                "pitch": 31,
                "velocity": 51,
                "duration": 0.1886363636363626,
                "tempo": 120.0
            },
            {
                "start_time": 28.52272727272727,
                "end_time": 28.60681818181818,
                "pitch": 36,
                "velocity": 51,
                "duration": 0.08409090909091077,
                "tempo": 120.0
            },
            {
                "start_time": 28.62272727272727,
                "end_time": 28.706818181818182,
                "pitch": 36,
                "velocity": 51,
                "duration": 0.08409090909091077,
                "tempo": 120.0
            },
            {
                "start_time": 28.724999999999998,
                "end_time": 28.80909090909091,
                "pitch": 36,
                "velocity": 51,
                "duration": 0.08409090909091077,
                "tempo": 120.0
            },
            {
                "start_time": 28.924999999999997,
                "end_time": 29.720454545454544,
                "pitch": 31,
                "velocity": 51,
                "duration": 0.7954545454545467,
                "tempo": 120.0
            },
            {
                "start_time": 29.736363636363635,
                "end_time": 29.91590909090909,
                "pitch": 38,
                "velocity": 51,
                "duration": 0.17954545454545467,
                "tempo": 120.0
            },
            {
                "start_time": 29.93409090909091,
                "end_time": 30.113636363636363,
                "pitch": 36,
                "velocity": 51,
                "duration": 0.17954545454545467,
                "tempo": 120.0
            },
            {
                "start_time": 30.329545454545453,
                "end_time": 30.511363636363633,
                "pitch": 35,
                "velocity": 51,
                "duration": 0.18181818181817988,
                "tempo": 120.0
            },
            {
                "start_time": 30.529545454545453,
                "end_time": 30.922727272727272,
                "pitch": 29,
                "velocity": 51,
                "duration": 0.3931818181818194,
                "tempo": 120.0
            },
            {
                "start_time": 30.938636363636363,
                "end_time": 31.325,
                "pitch": 31,
                "velocity": 51,
                "duration": 0.3863636363636367,
                "tempo": 120.0
            },
            {
                "start_time": 31.343181818181815,
                "end_time": 31.525,
                "pitch": 33,
                "velocity": 51,
                "duration": 0.18181818181818343,
                "tempo": 120.0
            },
            {
                "start_time": 31.543181818181818,
                "end_time": 31.724999999999998,
                "pitch": 41,
                "velocity": 51,
                "duration": 0.18181818181817988,
                "tempo": 120.0
            },
            {
                "start_time": 31.743181818181817,
                "end_time": 31.927272727272726,
                "pitch": 35,
                "velocity": 51,
                "duration": 0.18409090909090864,
                "tempo": 120.0
            },
            {
                "start_time": 31.943181818181817,
                "end_time": 32.12954545454545,
                "pitch": 43,
                "velocity": 51,
                "duration": 0.18636363636363384,
                "tempo": 120.0
            }
        ],
        "Oboe": [
            {
                "start_time": 0.18409090909090908,
                "end_time": 0.2659090909090909,
                "pitch": 64,
                "velocity": 40,
                "duration": 0.08181818181818179,
                "tempo": 120.0
            },
            {
                "start_time": 0.28409090909090906,
                "end_time": 0.3659090909090909,
                "pitch": 64,
                "velocity": 40,
                "duration": 0.08181818181818185,
                "tempo": 120.0
            },
            {
                "start_time": 0.5840909090909091,
                "end_time": 0.6659090909090909,
                "pitch": 64,
                "velocity": 40,
                "duration": 0.08181818181818179,
                "tempo": 120.0
            },
            {
                "start_time": 0.6840909090909091,
                "end_time": 0.7659090909090909,
                "pitch": 64,
                "velocity": 40,
                "duration": 0.08181818181818179,
                "tempo": 120.0
            },
            {
                "start_time": 0.7840909090909091,
                "end_time": 0.8727272727272727,
                "pitch": 65,
                "velocity": 40,
                "duration": 0.08863636363636362,
                "tempo": 120.0
            },
            {
                "start_time": 0.8909090909090909,
                "end_time": 0.9795454545454545,
                "pitch": 65,
                "velocity": 40,
                "duration": 0.08863636363636362,
                "tempo": 120.0
            },
            {
                "start_time": 1.4159090909090908,
                "end_time": 1.4977272727272726,
                "pitch": 67,
                "velocity": 40,
                "duration": 0.08181818181818179,
                "tempo": 120.0
            },
            {
                "start_time": 1.5159090909090909,
                "end_time": 1.5977272727272727,
                "pitch": 67,
                "velocity": 40,
                "duration": 0.08181818181818179,
                "tempo": 120.0
            },
            {
                "start_time": 1.815909090909091,
                "end_time": 1.9,
                "pitch": 65,
                "velocity": 40,
                "duration": 0.084090909090909,
                "tempo": 120.0
            },
            {
                "start_time": 1.9159090909090908,
                "end_time": 2.0,
                "pitch": 65,
                "velocity": 40,
                "duration": 0.08409090909090922,
                "tempo": 120.0
            },
            {
                "start_time": 2.2136363636363634,
                "end_time": 2.2954545454545454,
                "pitch": 65,
                "velocity": 40,
                "duration": 0.08181818181818201,
                "tempo": 120.0
            },
            {
                "start_time": 2.311363636363636,
                "end_time": 2.393181818181818,
                "pitch": 65,
                "velocity": 40,
                "duration": 0.08181818181818201,
                "tempo": 120.0
            },
            {
                "start_time": 2.409090909090909,
                "end_time": 2.495454545454545,
                "pitch": 64,
                "velocity": 40,
                "duration": 0.08636363636363598,
                "tempo": 120.0
            },
            {
                "start_time": 2.5136363636363637,
                "end_time": 2.602272727272727,
                "pitch": 64,
                "velocity": 40,
                "duration": 0.0886363636363634,
                "tempo": 120.0
            },
            {
                "start_time": 2.620454545454545,
                "end_time": 2.7068181818181816,
                "pitch": 64,
                "velocity": 40,
                "duration": 0.08636363636363642,
                "tempo": 120.0
            },
            {
                "start_time": 2.8318181818181816,
                "end_time": 2.9136363636363636,
                "pitch": 62,
                "velocity": 40,
                "duration": 0.08181818181818201,
                "tempo": 120.0
            },
            {
                "start_time": 3.4272727272727272,
                "end_time": 3.5136363636363637,
                "pitch": 64,
                "velocity": 40,
                "duration": 0.08636363636363642,
                "tempo": 120.0
            },
            {
                "start_time": 3.5318181818181817,
                "end_time": 3.6159090909090907,
                "pitch": 64,
                "velocity": 40,
                "duration": 0.084090909090909,
                "tempo": 120.0
            },
            {
                "start_time": 3.8249999999999997,
                "end_time": 3.9045454545454543,
                "pitch": 64,
                "velocity": 40,
                "duration": 0.07954545454545459,
                "tempo": 120.0
            },
            {
                "start_time": 3.9204545454545454,
                "end_time": 4.0,
                "pitch": 64,
                "velocity": 40,
                "duration": 0.07954545454545459,
                "tempo": 120.0
            },
            {
                "start_time": 4.015909090909091,
                "end_time": 4.1022727272727275,
                "pitch": 65,
                "velocity": 40,
                "duration": 0.08636363636363686,
                "tempo": 120.0
            },
            {
                "start_time": 4.120454545454545,
                "end_time": 4.206818181818182,
                "pitch": 65,
                "velocity": 40,
                "duration": 0.08636363636363686,
                "tempo": 120.0
            },
            {
                "start_time": 4.634090909090909,
                "end_time": 4.715909090909091,
                "pitch": 67,
                "velocity": 40,
                "duration": 0.08181818181818201,
                "tempo": 120.0
            },
            {
                "start_time": 4.7318181818181815,
                "end_time": 4.8136363636363635,
                "pitch": 67,
                "velocity": 40,
                "duration": 0.08181818181818201,
                "tempo": 120.0
            },
            {
                "start_time": 5.029545454545454,
                "end_time": 5.113636363636363,
                "pitch": 65,
                "velocity": 40,
                "duration": 0.084090909090909,
                "tempo": 120.0
            },
            {
                "start_time": 5.131818181818182,
                "end_time": 5.215909090909091,
                "pitch": 65,
                "velocity": 40,
                "duration": 0.084090909090909,
                "tempo": 120.0
            },
            {
                "start_time": 5.427272727272727,
                "end_time": 5.509090909090909,
                "pitch": 65,
                "velocity": 40,
                "duration": 0.08181818181818201,
                "tempo": 120.0
            },
            {
                "start_time": 5.5249999999999995,
                "end_time": 5.6068181818181815,
                "pitch": 65,
                "velocity": 40,
                "duration": 0.08181818181818201,
                "tempo": 120.0
            },
            {
                "start_time": 5.622727272727272,
                "end_time": 5.709090909090909,
                "pitch": 64,
                "velocity": 40,
                "duration": 0.08636363636363686,
                "tempo": 120.0
            },
            {
                "start_time": 5.727272727272727,
                "end_time": 5.8113636363636365,
                "pitch": 64,
                "velocity": 40,
                "duration": 0.08409090909090988,
                "tempo": 120.0
            },
            {
                "start_time": 5.829545454545454,
                "end_time": 5.913636363636363,
                "pitch": 64,
                "velocity": 40,
                "duration": 0.084090909090909,
                "tempo": 120.0
            },
            {
                "start_time": 6.034090909090909,
                "end_time": 6.118181818181818,
                "pitch": 62,
                "velocity": 40,
                "duration": 0.084090909090909,
                "tempo": 120.0
            },
            {
                "start_time": 6.643181818181818,
                "end_time": 6.727272727272727,
                "pitch": 64,
                "velocity": 40,
                "duration": 0.084090909090909,
                "tempo": 120.0
            },
            {
                "start_time": 6.745454545454545,
                "end_time": 6.831818181818181,
                "pitch": 64,
                "velocity": 40,
                "duration": 0.08636363636363598,
                "tempo": 120.0
            },
            {
                "start_time": 7.038636363636363,
                "end_time": 7.118181818181818,
                "pitch": 64,
                "velocity": 40,
                "duration": 0.07954545454545503,
                "tempo": 120.0
            },
            {
                "start_time": 7.134090909090909,
                "end_time": 7.213636363636363,
                "pitch": 64,
                "velocity": 40,
                "duration": 0.07954545454545414,
                "tempo": 120.0
            },
            {
                "start_time": 7.2295454545454545,
                "end_time": 7.3159090909090905,
                "pitch": 65,
                "velocity": 40,
                "duration": 0.08636363636363598,
                "tempo": 120.0
            },
            {
                "start_time": 7.334090909090909,
                "end_time": 7.422727272727272,
                "pitch": 65,
                "velocity": 40,
                "duration": 0.08863636363636296,
                "tempo": 120.0
            },
            {
                "start_time": 7.847727272727273,
                "end_time": 7.929545454545454,
                "pitch": 67,
                "velocity": 40,
                "duration": 0.08181818181818112,
                "tempo": 120.0
            },
            {
                "start_time": 7.945454545454545,
                "end_time": 8.027272727272727,
                "pitch": 67,
                "velocity": 40,
                "duration": 0.08181818181818201,
                "tempo": 120.0
            },
            {
                "start_time": 8.247727272727273,
                "end_time": 8.334090909090909,
                "pitch": 65,
                "velocity": 40,
                "duration": 0.08636363636363598,
                "tempo": 120.0
            },
            {
                "start_time": 8.35,
                "end_time": 8.436363636363636,
                "pitch": 65,
                "velocity": 40,
                "duration": 0.08636363636363598,
                "tempo": 120.0
            },
            {
                "start_time": 8.654545454545454,
                "end_time": 8.738636363636363,
                "pitch": 65,
                "velocity": 40,
                "duration": 0.084090909090909,
                "tempo": 120.0
            },
            {
                "start_time": 8.756818181818181,
                "end_time": 8.84090909090909,
                "pitch": 65,
                "velocity": 40,
                "duration": 0.084090909090909,
                "tempo": 120.0
            },
            {
                "start_time": 8.85681818181818,
                "end_time": 8.940909090909091,
                "pitch": 64,
                "velocity": 40,
                "duration": 0.08409090909091077,
                "tempo": 120.0
            },
            {
                "start_time": 8.956818181818182,
                "end_time": 9.040909090909091,
                "pitch": 64,
                "velocity": 40,
                "duration": 0.084090909090909,
                "tempo": 120.0
            },
            {
                "start_time": 9.056818181818182,
                "end_time": 9.14090909090909,
                "pitch": 64,
                "velocity": 40,
                "duration": 0.084090909090909,
                "tempo": 120.0
            },
            {
                "start_time": 9.259090909090908,
                "end_time": 9.34090909090909,
                "pitch": 62,
                "velocity": 40,
                "duration": 0.08181818181818201,
                "tempo": 120.0
            },
            {
                "start_time": 9.85681818181818,
                "end_time": 9.94090909090909,
                "pitch": 64,
                "velocity": 40,
                "duration": 0.084090909090909,
                "tempo": 120.0
            },
            {
                "start_time": 9.959090909090909,
                "end_time": 10.045454545454545,
                "pitch": 64,
                "velocity": 40,
                "duration": 0.08636363636363598,
                "tempo": 120.0
            },
            {
                "start_time": 10.252272727272727,
                "end_time": 10.331818181818182,
                "pitch": 64,
                "velocity": 40,
                "duration": 0.07954545454545503,
                "tempo": 120.0
            },
            {
                "start_time": 10.347727272727273,
                "end_time": 10.427272727272726,
                "pitch": 64,
                "velocity": 40,
                "duration": 0.07954545454545325,
                "tempo": 120.0
            },
            {
                "start_time": 10.443181818181818,
                "end_time": 10.529545454545454,
                "pitch": 65,
                "velocity": 40,
                "duration": 0.08636363636363598,
                "tempo": 120.0
            },
            {
                "start_time": 10.547727272727272,
                "end_time": 10.636363636363637,
                "pitch": 65,
                "velocity": 40,
                "duration": 0.08863636363636473,
                "tempo": 120.0
            },
            {
                "start_time": 11.061363636363636,
                "end_time": 11.143181818181818,
                "pitch": 67,
                "velocity": 40,
                "duration": 0.08181818181818201,
                "tempo": 120.0
            },
            {
                "start_time": 11.159090909090908,
                "end_time": 11.24090909090909,
                "pitch": 67,
                "velocity": 40,
                "duration": 0.08181818181818201,
                "tempo": 120.0
            },
            {
                "start_time": 11.461363636363636,
                "end_time": 11.547727272727272,
                "pitch": 65,
                "velocity": 40,
                "duration": 0.08636363636363598,
                "tempo": 120.0
            },
            {
                "start_time": 11.563636363636363,
                "end_time": 11.649999999999999,
                "pitch": 65,
                "velocity": 40,
                "duration": 0.08636363636363598,
                "tempo": 120.0
            },
            {
                "start_time": 11.863636363636363,
                "end_time": 11.945454545454545,
                "pitch": 65,
                "velocity": 40,
                "duration": 0.08181818181818201,
                "tempo": 120.0
            },
            {
                "start_time": 11.961363636363636,
                "end_time": 12.043181818181818,
                "pitch": 65,
                "velocity": 40,
                "duration": 0.08181818181818201,
                "tempo": 120.0
            },
            {
                "start_time": 12.059090909090909,
                "end_time": 12.145454545454545,
                "pitch": 64,
                "velocity": 40,
                "duration": 0.08636363636363598,
                "tempo": 120.0
            },
            {
                "start_time": 12.161363636363635,
                "end_time": 12.247727272727273,
                "pitch": 64,
                "velocity": 40,
                "duration": 0.08636363636363775,
                "tempo": 120.0
            },
            {
                "start_time": 12.263636363636364,
                "end_time": 12.35,
                "pitch": 64,
                "velocity": 40,
                "duration": 0.08636363636363598,
                "tempo": 120.0
            },
            {
                "start_time": 12.470454545454546,
                "end_time": 12.552272727272726,
                "pitch": 62,
                "velocity": 40,
                "duration": 0.08181818181818024,
                "tempo": 120.0
            },
            {
                "start_time": 13.068181818181818,
                "end_time": 13.152272727272727,
                "pitch": 64,
                "velocity": 40,
                "duration": 0.084090909090909,
                "tempo": 120.0
            },
            {
                "start_time": 13.170454545454545,
                "end_time": 13.254545454545454,
                "pitch": 64,
                "velocity": 40,
                "duration": 0.084090909090909,
                "tempo": 120.0
            },
            {
                "start_time": 13.463636363636363,
                "end_time": 13.543181818181818,
                "pitch": 64,
                "velocity": 40,
                "duration": 0.07954545454545503,
                "tempo": 120.0
            },
            {
                "start_time": 13.559090909090909,
                "end_time": 13.638636363636364,
                "pitch": 64,
                "velocity": 40,
                "duration": 0.07954545454545503,
                "tempo": 120.0
            },
            {
                "start_time": 13.654545454545454,
                "end_time": 13.74090909090909,
                "pitch": 65,
                "velocity": 40,
                "duration": 0.08636363636363598,
                "tempo": 120.0
            },
            {
                "start_time": 13.759090909090908,
                "end_time": 13.845454545454544,
                "pitch": 65,
                "velocity": 40,
                "duration": 0.08636363636363598,
                "tempo": 120.0
            },
            {
                "start_time": 14.272727272727272,
                "end_time": 14.354545454545454,
                "pitch": 67,
                "velocity": 40,
                "duration": 0.08181818181818201,
                "tempo": 120.0
            },
            {
                "start_time": 14.370454545454544,
                "end_time": 14.452272727272726,
                "pitch": 67,
                "velocity": 40,
                "duration": 0.08181818181818201,
                "tempo": 120.0
            },
            {
                "start_time": 14.672727272727272,
                "end_time": 14.759090909090908,
                "pitch": 65,
                "velocity": 40,
                "duration": 0.08636363636363598,
                "tempo": 120.0
            },
            {
                "start_time": 14.774999999999999,
                "end_time": 14.861363636363636,
                "pitch": 65,
                "velocity": 40,
                "duration": 0.08636363636363775,
                "tempo": 120.0
            },
            {
                "start_time": 15.079545454545453,
                "end_time": 15.163636363636362,
                "pitch": 65,
                "velocity": 40,
                "duration": 0.084090909090909,
                "tempo": 120.0
            },
            {
                "start_time": 15.179545454545455,
                "end_time": 15.263636363636364,
                "pitch": 65,
                "velocity": 40,
                "duration": 0.084090909090909,
                "tempo": 120.0
            },
            {
                "start_time": 15.281818181818181,
                "end_time": 15.363636363636363,
                "pitch": 64,
                "velocity": 40,
                "duration": 0.08181818181818201,
                "tempo": 120.0
            },
            {
                "start_time": 15.381818181818181,
                "end_time": 15.463636363636363,
                "pitch": 64,
                "velocity": 40,
                "duration": 0.08181818181818201,
                "tempo": 120.0
            },
            {
                "start_time": 15.48181818181818,
                "end_time": 15.563636363636363,
                "pitch": 64,
                "velocity": 40,
                "duration": 0.08181818181818201,
                "tempo": 120.0
            },
            {
                "start_time": 15.681818181818182,
                "end_time": 15.76590909090909,
                "pitch": 62,
                "velocity": 40,
                "duration": 0.084090909090909,
                "tempo": 120.0
            },
            {
                "start_time": 16.286363636363635,
                "end_time": 16.368181818181817,
                "pitch": 64,
                "velocity": 40,
                "duration": 0.08181818181818201,
                "tempo": 120.0
            },
            {
                "start_time": 16.386363636363637,
                "end_time": 16.470454545454544,
                "pitch": 64,
                "velocity": 40,
                "duration": 0.08409090909090722,
                "tempo": 120.0
            },
            {
                "start_time": 16.677272727272726,
                "end_time": 16.756818181818183,
                "pitch": 64,
                "velocity": 40,
                "duration": 0.0795454545454568,
                "tempo": 120.0
            },
            {
                "start_time": 16.772727272727273,
                "end_time": 16.852272727272727,
                "pitch": 64,
                "velocity": 40,
                "duration": 0.07954545454545325,
                "tempo": 120.0
            },
            {
                "start_time": 16.868181818181817,
                "end_time": 16.954545454545453,
                "pitch": 65,
                "velocity": 40,
                "duration": 0.08636363636363598,
                "tempo": 120.0
            },
            {
                "start_time": 16.972727272727273,
                "end_time": 17.061363636363634,
                "pitch": 65,
                "velocity": 40,
                "duration": 0.08863636363636118,
                "tempo": 120.0
            },
            {
                "start_time": 17.486363636363635,
                "end_time": 17.568181818181817,
                "pitch": 67,
                "velocity": 40,
                "duration": 0.08181818181818201,
                "tempo": 120.0
            },
            {
                "start_time": 17.584090909090907,
                "end_time": 17.66590909090909,
                "pitch": 67,
                "velocity": 40,
                "duration": 0.08181818181818201,
                "tempo": 120.0
            },
            {
                "start_time": 17.886363636363637,
                "end_time": 17.972727272727273,
                "pitch": 65,
                "velocity": 40,
                "duration": 0.08636363636363598,
                "tempo": 120.0
            },
            {
                "start_time": 17.988636363636363,
                "end_time": 18.075,
                "pitch": 65,
                "velocity": 40,
                "duration": 0.08636363636363598,
                "tempo": 120.0
            },
            {
                "start_time": 18.288636363636364,
                "end_time": 18.370454545454546,
                "pitch": 65,
                "velocity": 40,
                "duration": 0.08181818181818201,
                "tempo": 120.0
            },
            {
                "start_time": 18.386363636363637,
                "end_time": 18.46818181818182,
                "pitch": 65,
                "velocity": 40,
                "duration": 0.08181818181818201,
                "tempo": 120.0
            },
            {
                "start_time": 18.48409090909091,
                "end_time": 18.570454545454545,
                "pitch": 64,
                "velocity": 40,
                "duration": 0.08636363636363598,
                "tempo": 120.0
            },
            {
                "start_time": 18.586363636363636,
                "end_time": 18.672727272727272,
                "pitch": 64,
                "velocity": 40,
                "duration": 0.08636363636363598,
                "tempo": 120.0
            },
            {
                "start_time": 18.688636363636363,
                "end_time": 18.775,
                "pitch": 64,
                "velocity": 40,
                "duration": 0.08636363636363598,
                "tempo": 120.0
            },
            {
                "start_time": 18.895454545454545,
                "end_time": 18.977272727272727,
                "pitch": 62,
                "velocity": 40,
                "duration": 0.08181818181818201,
                "tempo": 120.0
            },
            {
                "start_time": 19.286363636363635,
                "end_time": 19.474999999999998,
                "pitch": 64,
                "velocity": 40,
                "duration": 0.1886363636363626,
                "tempo": 120.0
            },
            {
                "start_time": 19.595454545454544,
                "end_time": 19.679545454545455,
                "pitch": 64,
                "velocity": 40,
                "duration": 0.08409090909091077,
                "tempo": 120.0
            },
            {
                "start_time": 19.69772727272727,
                "end_time": 19.78181818181818,
                "pitch": 64,
                "velocity": 40,
                "duration": 0.08409090909091077,
                "tempo": 120.0
            },
            {
                "start_time": 20.29090909090909,
                "end_time": 20.370454545454546,
                "pitch": 69,
                "velocity": 40,
                "duration": 0.0795454545454568,
                "tempo": 120.0
            },
            {
                "start_time": 20.386363636363637,
                "end_time": 20.46590909090909,
                "pitch": 69,
                "velocity": 40,
                "duration": 0.07954545454545325,
                "tempo": 120.0
            },
            {
                "start_time": 20.48181818181818,
                "end_time": 20.568181818181817,
                "pitch": 69,
                "velocity": 40,
                "duration": 0.08636363636363598,
                "tempo": 120.0
            },
            {
                "start_time": 20.693181818181817,
                "end_time": 20.886363636363637,
                "pitch": 64,
                "velocity": 40,
                "duration": 0.19318181818182012,
                "tempo": 120.0
            },
            {
                "start_time": 20.904545454545453,
                "end_time": 21.084090909090907,
                "pitch": 64,
                "velocity": 40,
                "duration": 0.17954545454545467,
                "tempo": 120.0
            },
            {
                "start_time": 21.19772727272727,
                "end_time": 21.279545454545453,
                "pitch": 64,
                "velocity": 40,
                "duration": 0.08181818181818201,
                "tempo": 120.0
            },
            {
                "start_time": 21.295454545454543,
                "end_time": 21.377272727272725,
                "pitch": 64,
                "velocity": 40,
                "duration": 0.08181818181818201,
                "tempo": 120.0
            },
            {
                "start_time": 22.5,
                "end_time": 22.68409090909091,
                "pitch": 62,
                "velocity": 40,
                "duration": 0.18409090909090864,
                "tempo": 120.0
            },
            {
                "start_time": 22.802272727272726,
                "end_time": 22.884090909090908,
                "pitch": 62,
                "velocity": 40,
                "duration": 0.08181818181818201,
                "tempo": 120.0
            },
            {
                "start_time": 22.902272727272727,
                "end_time": 22.986363636363635,
                "pitch": 62,
                "velocity": 40,
                "duration": 0.08409090909090722,
                "tempo": 120.0
            },
            {
                "start_time": 23.509090909090908,
                "end_time": 23.59090909090909,
                "pitch": 62,
                "velocity": 40,
                "duration": 0.08181818181818201,
                "tempo": 120.0
            },
            {
                "start_time": 23.60681818181818,
                "end_time": 23.688636363636363,
                "pitch": 62,
                "velocity": 40,
                "duration": 0.08181818181818201,
                "tempo": 120.0
            },
            {
                "start_time": 23.704545454545453,
                "end_time": 23.786363636363635,
                "pitch": 64,
                "velocity": 40,
                "duration": 0.08181818181818201,
                "tempo": 120.0
            },
            {
                "start_time": 23.9,
                "end_time": 23.98181818181818,
                "pitch": 64,
                "velocity": 40,
                "duration": 0.08181818181818201,
                "tempo": 120.0
            },
            {
                "start_time": 24.097727272727273,
                "end_time": 24.288636363636364,
                "pitch": 60,
                "velocity": 40,
                "duration": 0.19090909090909136,
                "tempo": 120.0
            },
            {
                "start_time": 24.413636363636364,
                "end_time": 24.5,
                "pitch": 60,
                "velocity": 40,
                "duration": 0.08636363636363598,
                "tempo": 120.0
            },
            {
                "start_time": 24.518181818181816,
                "end_time": 24.602272727272727,
                "pitch": 60,
                "velocity": 40,
                "duration": 0.08409090909091077,
                "tempo": 120.0
            },
            {
                "start_time": 24.918181818181818,
                "end_time": 25.104545454545452,
                "pitch": 62,
                "velocity": 40,
                "duration": 0.18636363636363384,
                "tempo": 120.0
            },
            {
                "start_time": 25.32272727272727,
                "end_time": 25.504545454545454,
                "pitch": 65,
                "velocity": 40,
                "duration": 0.18181818181818343,
                "tempo": 120.0
            },
            {
                "start_time": 25.722727272727273,
                "end_time": 25.90681818181818,
                "pitch": 64,
                "velocity": 40,
                "duration": 0.18409090909090864,
                "tempo": 120.0
            },
            {
                "start_time": 26.02272727272727,
                "end_time": 26.10681818181818,
                "pitch": 64,
                "velocity": 40,
                "duration": 0.08409090909091077,
                "tempo": 120.0
            },
            {
                "start_time": 26.125,
                "end_time": 26.209090909090907,
                "pitch": 64,
                "velocity": 40,
                "duration": 0.08409090909090722,
                "tempo": 120.0
            },
            {
                "start_time": 26.71590909090909,
                "end_time": 26.795454545454543,
                "pitch": 69,
                "velocity": 40,
                "duration": 0.07954545454545325,
                "tempo": 120.0
            },
            {
                "start_time": 26.811363636363634,
                "end_time": 26.89090909090909,
                "pitch": 69,
                "velocity": 40,
                "duration": 0.0795454545454568,
                "tempo": 120.0
            },
            {
                "start_time": 26.90681818181818,
                "end_time": 26.993181818181817,
                "pitch": 69,
                "velocity": 40,
                "duration": 0.08636363636363598,
                "tempo": 120.0
            },
            {
                "start_time": 27.11590909090909,
                "end_time": 27.30909090909091,
                "pitch": 64,
                "velocity": 40,
                "duration": 0.19318181818182012,
                "tempo": 120.0
            },
            {
                "start_time": 27.327272727272724,
                "end_time": 27.50681818181818,
                "pitch": 64,
                "velocity": 40,
                "duration": 0.17954545454545467,
                "tempo": 120.0
            },
            {
                "start_time": 27.62272727272727,
                "end_time": 27.704545454545453,
                "pitch": 64,
                "velocity": 40,
                "duration": 0.08181818181818201,
                "tempo": 120.0
            },
            {
                "start_time": 27.720454545454544,
                "end_time": 27.802272727272726,
                "pitch": 64,
                "velocity": 40,
                "duration": 0.08181818181818201,
                "tempo": 120.0
            },
            {
                "start_time": 28.924999999999997,
                "end_time": 29.113636363636363,
                "pitch": 62,
                "velocity": 40,
                "duration": 0.18863636363636616,
                "tempo": 120.0
            },
            {
                "start_time": 29.23409090909091,
                "end_time": 29.318181818181817,
                "pitch": 62,
                "velocity": 40,
                "duration": 0.08409090909090722,
                "tempo": 120.0
            },
            {
                "start_time": 29.336363636363636,
                "end_time": 29.420454545454543,
                "pitch": 62,
                "velocity": 40,
                "duration": 0.08409090909090722,
                "tempo": 120.0
            },
            {
                "start_time": 29.93409090909091,
                "end_time": 30.01590909090909,
                "pitch": 62,
                "velocity": 40,
                "duration": 0.08181818181818201,
                "tempo": 120.0
            },
            {
                "start_time": 30.03181818181818,
                "end_time": 30.113636363636363,
                "pitch": 62,
                "velocity": 40,
                "duration": 0.08181818181818201,
                "tempo": 120.0
            },
            {
                "start_time": 30.129545454545454,
                "end_time": 30.211363636363636,
                "pitch": 64,
                "velocity": 40,
                "duration": 0.08181818181818201,
                "tempo": 120.0
            },
            {
                "start_time": 30.329545454545453,
                "end_time": 30.411363636363635,
                "pitch": 64,
                "velocity": 40,
                "duration": 0.08181818181818201,
                "tempo": 120.0
            },
            {
                "start_time": 30.529545454545453,
                "end_time": 30.71590909090909,
                "pitch": 60,
                "velocity": 40,
                "duration": 0.1863636363636374,
                "tempo": 120.0
            },
            {
                "start_time": 30.836363636363636,
                "end_time": 30.922727272727272,
                "pitch": 60,
                "velocity": 40,
                "duration": 0.08636363636363598,
                "tempo": 120.0
            },
            {
                "start_time": 30.938636363636363,
                "end_time": 31.02272727272727,
                "pitch": 60,
                "velocity": 40,
                "duration": 0.08409090909090722,
                "tempo": 120.0
            },
            {
                "start_time": 31.343181818181815,
                "end_time": 31.525,
                "pitch": 62,
                "velocity": 40,
                "duration": 0.18181818181818343,
                "tempo": 120.0
            },
            {
                "start_time": 31.743181818181817,
                "end_time": 31.927272727272726,
                "pitch": 65,
                "velocity": 40,
                "duration": 0.18409090909090864,
                "tempo": 120.0
            }
        ]
    }
}