{
    "track_id": "Wonder Boy in Monster Land (FM) - 04 - Shop",
    "mood": "happy",
    "instruments": {
        "Clarinet": [
            {
                "start_time": 0.6113636363636363,
                "end_time": 0.7931818181818181,
                "pitch": 59,
                "velocity": 64,
                "duration": 0.18181818181818177,
                "tempo": 120.0
            },
            {
                "start_time": 0.8113636363636363,
                "end_time": 0.8931818181818182,
                "pitch": 55,
                "velocity": 64,
                "duration": 0.0818181818181819,
                "tempo": 120.0
            },
            {
                "start_time": 0.9113636363636363,
                "end_time": 1.093181818181818,
                "pitch": 59,
                "velocity": 64,
                "duration": 0.18181818181818177,
                "tempo": 120.0
            },
            {
                "start_time": 1.1113636363636363,
                "end_time": 1.1931818181818181,
                "pitch": 55,
                "velocity": 64,
                "duration": 0.08181818181818179,
                "tempo": 120.0
            },
            {
                "start_time": 1.2113636363636362,
                "end_time": 1.2931818181818182,
                "pitch": 57,
                "velocity": 64,
                "duration": 0.08181818181818201,
                "tempo": 120.0
            },
            {
                "start_time": 1.3113636363636363,
                "end_time": 1.393181818181818,
                "pitch": 59,
                "velocity": 64,
                "duration": 0.08181818181818179,
                "tempo": 120.0
            },
            {
                "start_time": 1.4113636363636364,
                "end_time": 1.5999999999999999,
                "pitch": 60,
                "velocity": 64,
                "duration": 0.1886363636363635,
                "tempo": 120.0
            },
            {
                "start_time": 1.6159090909090907,
                "end_time": 1.8045454545454545,
                "pitch": 64,
                "velocity": 64,
                "duration": 0.1886363636363637,
                "tempo": 120.0
            },
            {
                "start_time": 1.8227272727272725,
                "end_time": 2.2068181818181816,
                "pitch": 52,
                "velocity": 64,
                "duration": 0.38409090909090904,
                "tempo": 120.0
            },
            {
                "start_time": 2.225,
                "end_time": 2.4068181818181817,
                "pitch": 54,
                "velocity": 64,
                "duration": 0.18181818181818166,
                "tempo": 120.0
            },
            {
                "start_time": 2.425,
                "end_time": 2.6068181818181815,
                "pitch": 54,
                "velocity": 64,
                "duration": 0.18181818181818166,
                "tempo": 120.0
            },
            {
                "start_time": 2.625,
                "end_time": 2.675,
                "pitch": 54,
                "velocity": 64,
                "duration": 0.04999999999999982,
                "tempo": 120.0
            },
            {
                "start_time": 2.693181818181818,
                "end_time": 2.743181818181818,
                "pitch": 55,
                "velocity": 64,
                "duration": 0.050000000000000266,
                "tempo": 120.0
            },
            {
                "start_time": 2.7613636363636362,
                "end_time": 2.811363636363636,
                "pitch": 54,
                "velocity": 64,
                "duration": 0.04999999999999982,
                "tempo": 120.0
            },
            {
                "start_time": 2.8295454545454546,
                "end_time": 2.9159090909090906,
                "pitch": 52,
                "velocity": 64,
                "duration": 0.08636363636363598,
                "tempo": 120.0
            },
            {
                "start_time": 2.9318181818181817,
                "end_time": 3.018181818181818,
                "pitch": 50,
                "velocity": 64,
                "duration": 0.08636363636363642,
                "tempo": 120.0
            },
            {
                "start_time": 3.0340909090909087,
                "end_time": 3.8136363636363635,
                "pitch": 62,
                "velocity": 64,
                "duration": 0.7795454545454548,
                "tempo": 120.0
            },
            {
                "start_time": 3.829545454545454,
                "end_time": 4.013636363636364,
                "pitch": 59,
                "velocity": 64,
                "duration": 0.18409090909090953,
                "tempo": 120.0
            },
            {
                "start_time": 4.029545454545454,
                "end_time": 4.113636363636363,
                "pitch": 55,
                "velocity": 64,
                "duration": 0.084090909090909,
                "tempo": 120.0
            },
            {
                "start_time": 4.129545454545454,
                "end_time": 4.3113636363636365,
                "pitch": 59,
                "velocity": 64,
                "duration": 0.18181818181818254,
                "tempo": 120.0
            },
            {
                "start_time": 4.327272727272727,
                "end_time": 4.409090909090909,
                "pitch": 55,
                "velocity": 64,
                "duration": 0.08181818181818201,
                "tempo": 120.0
            },
            {
                "start_time": 4.427272727272727,
                "end_time": 4.506818181818182,
                "pitch": 57,
                "velocity": 64,
                "duration": 0.07954545454545503,
                "tempo": 120.0
            },
            {
                "start_time": 4.5249999999999995,
                "end_time": 4.6068181818181815,
                "pitch": 59,
                "velocity": 64,
                "duration": 0.08181818181818201,
                "tempo": 120.0
            },
            {
                "start_time": 4.622727272727272,
                "end_time": 4.809090909090909,
                "pitch": 60,
                "velocity": 64,
                "duration": 0.1863636363636365,
                "tempo": 120.0
            },
            {
                "start_time": 4.827272727272727,
                "end_time": 5.015909090909091,
                "pitch": 62,
                "velocity": 64,
                "duration": 0.1886363636363635,
                "tempo": 120.0
            },
            {
                "start_time": 5.031818181818181,
                "end_time": 5.415909090909091,
                "pitch": 64,
                "velocity": 64,
                "duration": 0.3840909090909097,
                "tempo": 120.0
            },
            {
                "start_time": 5.434090909090909,
                "end_time": 5.515909090909091,
                "pitch": 62,
                "velocity": 64,
                "duration": 0.08181818181818201,
                "tempo": 120.0
            },
            {
                "start_time": 5.534090909090909,
                "end_time": 5.618181818181818,
                "pitch": 62,
                "velocity": 64,
                "duration": 0.084090909090909,
                "tempo": 120.0
            },
            {
                "start_time": 5.836363636363636,
                "end_time": 5.918181818181818,
                "pitch": 62,
                "velocity": 64,
                "duration": 0.08181818181818201,
                "tempo": 120.0
            },
            {
                "start_time": 5.934090909090909,
                "end_time": 6.015909090909091,
                "pitch": 62,
                "velocity": 64,
                "duration": 0.08181818181818201,
                "tempo": 120.0
            },
            {
                "start_time": 6.227272727272727,
                "end_time": 7.013636363636364,
                "pitch": 55,
                "velocity": 64,
                "duration": 0.786363636363637,
                "tempo": 120.0
            },
            {
                "start_time": 7.029545454545454,
                "end_time": 7.218181818181818,
                "pitch": 59,
                "velocity": 64,
                "duration": 0.1886363636363635,
                "tempo": 120.0
            },
            {
                "start_time": 7.236363636363636,
                "end_time": 7.320454545454545,
                "pitch": 55,
                "velocity": 64,
                "duration": 0.084090909090909,
                "tempo": 120.0
            },
            {
                "start_time": 7.338636363636363,
                "end_time": 7.5227272727272725,
                "pitch": 59,
                "velocity": 64,
                "duration": 0.18409090909090953,
                "tempo": 120.0
            },
            {
                "start_time": 7.538636363636363,
                "end_time": 7.620454545454545,
                "pitch": 55,
                "velocity": 64,
                "duration": 0.08181818181818201,
                "tempo": 120.0
            },
            {
                "start_time": 7.636363636363636,
                "end_time": 7.718181818181818,
                "pitch": 57,
                "velocity": 64,
                "duration": 0.08181818181818201,
                "tempo": 120.0
            },
            {
                "start_time": 7.7340909090909085,
                "end_time": 7.8159090909090905,
                "pitch": 59,
                "velocity": 64,
                "duration": 0.08181818181818201,
                "tempo": 120.0
            },
            {
                "start_time": 7.834090909090909,
                "end_time": 8.020454545454545,
                "pitch": 60,
                "velocity": 64,
                "duration": 0.18636363636363562,
                "tempo": 120.0
            },
            {
                "start_time": 8.038636363636364,
                "end_time": 8.227272727272727,
                "pitch": 64,
                "velocity": 64,
                "duration": 0.1886363636363626,
                "tempo": 120.0
            },
            {
                "start_time": 8.243181818181817,
                "end_time": 8.629545454545454,
                "pitch": 52,
                "velocity": 64,
                "duration": 0.3863636363636367,
                "tempo": 120.0
            },
            {
                "start_time": 8.645454545454545,
                "end_time": 8.829545454545453,
                "pitch": 54,
                "velocity": 64,
                "duration": 0.18409090909090864,
                "tempo": 120.0
            },
            {
                "start_time": 8.845454545454546,
                "end_time": 9.029545454545454,
                "pitch": 54,
                "velocity": 64,
                "duration": 0.18409090909090864,
                "tempo": 120.0
            },
            {
                "start_time": 9.045454545454545,
                "end_time": 9.097727272727273,
                "pitch": 54,
                "velocity": 64,
                "duration": 0.05227272727272769,
                "tempo": 120.0
            },
            {
                "start_time": 9.113636363636363,
                "end_time": 9.165909090909091,
                "pitch": 55,
                "velocity": 64,
                "duration": 0.05227272727272769,
                "tempo": 120.0
            },
            {
                "start_time": 9.184090909090909,
                "end_time": 9.23409090909091,
                "pitch": 54,
                "velocity": 64,
                "duration": 0.05000000000000071,
                "tempo": 120.0
            },
            {
                "start_time": 9.252272727272727,
                "end_time": 9.336363636363636,
                "pitch": 52,
                "velocity": 64,
                "duration": 0.084090909090909,
                "tempo": 120.0
            },
            {
                "start_time": 9.354545454545454,
                "end_time": 9.44090909090909,
                "pitch": 50,
                "velocity": 64,
                "duration": 0.08636363636363598,
                "tempo": 120.0
            },
            {
                "start_time": 9.456818181818182,
                "end_time": 10.227272727272727,
                "pitch": 62,
                "velocity": 64,
                "duration": 0.7704545454545446,
                "tempo": 120.0
            },
            {
                "start_time": 10.243181818181817,
                "end_time": 10.429545454545455,
                "pitch": 59,
                "velocity": 64,
                "duration": 0.1863636363636374,
                "tempo": 120.0
            },
            {
                "start_time": 10.447727272727272,
                "end_time": 10.531818181818181,
                "pitch": 55,
                "velocity": 64,
                "duration": 0.084090909090909,
                "tempo": 120.0
            },
            {
                "start_time": 10.549999999999999,
                "end_time": 10.73409090909091,
                "pitch": 59,
                "velocity": 64,
                "duration": 0.18409090909091042,
                "tempo": 120.0
            },
            {
                "start_time": 10.75,
                "end_time": 10.831818181818182,
                "pitch": 55,
                "velocity": 64,
                "duration": 0.08181818181818201,
                "tempo": 120.0
            },
            {
                "start_time": 10.847727272727273,
                "end_time": 10.929545454545455,
                "pitch": 57,
                "velocity": 64,
                "duration": 0.08181818181818201,
                "tempo": 120.0
            },
            {
                "start_time": 10.947727272727272,
                "end_time": 11.027272727272727,
                "pitch": 59,
                "velocity": 64,
                "duration": 0.07954545454545503,
                "tempo": 120.0
            },
            {
                "start_time": 11.045454545454545,
                "end_time": 11.23181818181818,
                "pitch": 60,
                "velocity": 64,
                "duration": 0.18636363636363562,
                "tempo": 120.0
            },
            {
                "start_time": 11.25,
                "end_time": 11.438636363636363,
                "pitch": 62,
                "velocity": 64,
                "duration": 0.1886363636363626,
                "tempo": 120.0
            },
            {
                "start_time": 11.454545454545453,
                "end_time": 11.84090909090909,
                "pitch": 64,
                "velocity": 64,
                "duration": 0.3863636363636367,
                "tempo": 120.0
            },
            {
                "start_time": 11.85909090909091,
                "end_time": 11.94090909090909,
                "pitch": 62,
                "velocity": 64,
                "duration": 0.08181818181818024,
                "tempo": 120.0
            },
            {
                "start_time": 11.959090909090909,
                "end_time": 12.043181818181818,
                "pitch": 62,
                "velocity": 64,
                "duration": 0.084090909090909,
                "tempo": 120.0
            },
            {
                "start_time": 12.261363636363635,
                "end_time": 12.343181818181817,
                "pitch": 62,
                "velocity": 64,
                "duration": 0.08181818181818201,
                "tempo": 120.0
            },
            {
                "start_time": 12.35909090909091,
                "end_time": 12.44090909090909,
                "pitch": 62,
                "velocity": 64,
                "duration": 0.08181818181818024,
                "tempo": 120.0
            },
            {
                "start_time": 12.652272727272727,
                "end_time": 13.438636363636363,
                "pitch": 55,
                "velocity": 64,
                "duration": 0.7863636363636353,
                "tempo": 120.0
            }
        ],
        "Acoustic Grand Piano": [
            {
                "start_time": 0.0,
                "end_time": 0.18409090909090908,
                "pitch": 26,
                "velocity": 51,
                "duration": 0.18409090909090908,
                "tempo": 120.0
            },
            {
                "start_time": 0.19999999999999998,
                "end_time": 0.3886363636363636,
                "pitch": 28,
                "velocity": 51,
                "duration": 0.18863636363636363,
                "tempo": 120.0
            },
            {
                "start_time": 0.40454545454545454,
                "end_time": 0.5931818181818181,
                "pitch": 30,
                "velocity": 51,
                "duration": 0.1886363636363636,
                "tempo": 120.0
            },
            {
                "start_time": 0.6113636363636363,
                "end_time": 0.7931818181818181,
                "pitch": 35,
                "velocity": 51,
                "duration": 0.18181818181818177,
                "tempo": 120.0
            },
            {
                "start_time": 0.8113636363636363,
                "end_time": 0.9931818181818182,
                "pitch": 31,
                "velocity": 51,
                "duration": 0.18181818181818188,
                "tempo": 120.0
            },
            {
                "start_time": 1.0113636363636362,
                "end_time": 1.1931818181818181,
                "pitch": 35,
                "velocity": 51,
                "duration": 0.18181818181818188,
                "tempo": 120.0
            },
            {
                "start_time": 1.2113636363636362,
                "end_time": 1.393181818181818,
                "pitch": 31,
                "velocity": 51,
                "duration": 0.18181818181818188,
                "tempo": 120.0
            },
            {
                "start_time": 1.4113636363636364,
                "end_time": 1.5999999999999999,
                "pitch": 36,
                "velocity": 51,
                "duration": 0.1886363636363635,
                "tempo": 120.0
            },
            {
                "start_time": 1.6159090909090907,
                "end_time": 1.6681818181818182,
                "pitch": 35,
                "velocity": 51,
                "duration": 0.05227272727272747,
                "tempo": 120.0
            },
            {
                "start_time": 1.684090909090909,
                "end_time": 1.7363636363636363,
                "pitch": 33,
                "velocity": 51,
                "duration": 0.05227272727272725,
                "tempo": 120.0
            },
            {
                "start_time": 1.7522727272727272,
                "end_time": 1.8045454545454545,
                "pitch": 31,
                "velocity": 51,
                "duration": 0.05227272727272725,
                "tempo": 120.0
            },
            {
                "start_time": 1.8227272727272725,
                "end_time": 2.2068181818181816,
                "pitch": 33,
                "velocity": 51,
                "duration": 0.38409090909090904,
                "tempo": 120.0
            },
            {
                "start_time": 2.225,
                "end_time": 2.4068181818181817,
                "pitch": 33,
                "velocity": 51,
                "duration": 0.18181818181818166,
                "tempo": 120.0
            },
            {
                "start_time": 2.425,
                "end_time": 2.6068181818181815,
                "pitch": 30,
                "velocity": 51,
                "duration": 0.18181818181818166,
                "tempo": 120.0
            },
            {
                "start_time": 2.625,
                "end_time": 2.811363636363636,
                "pitch": 33,
                "velocity": 51,
                "duration": 0.18636363636363606,
                "tempo": 120.0
            },
            {
                "start_time": 2.8295454545454546,
                "end_time": 3.018181818181818,
                "pitch": 30,
                "velocity": 51,
                "duration": 0.1886363636363635,
                "tempo": 120.0
            },
            {
                "start_time": 3.0340909090909087,
                "end_time": 3.215909090909091,
                "pitch": 31,
                "velocity": 51,
                "duration": 0.1818181818181821,
                "tempo": 120.0
            },
            {
                "start_time": 3.2318181818181815,
                "end_time": 3.2795454545454543,
                "pitch": 31,
                "velocity": 51,
                "duration": 0.04772727272727284,
                "tempo": 120.0
            },
            {
                "start_time": 3.2977272727272724,
                "end_time": 3.3454545454545452,
                "pitch": 33,
                "velocity": 51,
                "duration": 0.04772727272727284,
                "tempo": 120.0
            },
            {
                "start_time": 3.3613636363636363,
                "end_time": 3.411363636363636,
                "pitch": 35,
                "velocity": 51,
                "duration": 0.04999999999999982,
                "tempo": 120.0
            },
            {
                "start_time": 3.4272727272727272,
                "end_time": 3.8136363636363635,
                "pitch": 26,
                "velocity": 51,
                "duration": 0.38636363636363624,
                "tempo": 120.0
            },
            {
                "start_time": 3.829545454545454,
                "end_time": 4.013636363636364,
                "pitch": 35,
                "velocity": 51,
                "duration": 0.18409090909090953,
                "tempo": 120.0
            },
            {
                "start_time": 4.029545454545454,
                "end_time": 4.213636363636364,
                "pitch": 31,
                "velocity": 51,
                "duration": 0.18409090909090953,
                "tempo": 120.0
            },
            {
                "start_time": 4.2295454545454545,
                "end_time": 4.409090909090909,
                "pitch": 35,
                "velocity": 51,
                "duration": 0.17954545454545467,
                "tempo": 120.0
            },
            {
                "start_time": 4.427272727272727,
                "end_time": 4.6068181818181815,
                "pitch": 31,
                "velocity": 51,
                "duration": 0.17954545454545467,
                "tempo": 120.0
            },
            {
                "start_time": 4.622727272727272,
                "end_time": 4.809090909090909,
                "pitch": 36,
                "velocity": 51,
                "duration": 0.1863636363636365,
                "tempo": 120.0
            },
            {
                "start_time": 4.827272727272727,
                "end_time": 4.879545454545454,
                "pitch": 35,
                "velocity": 51,
                "duration": 0.052272727272726804,
                "tempo": 120.0
            },
            {
                "start_time": 4.8954545454545455,
                "end_time": 4.947727272727272,
                "pitch": 36,
                "velocity": 51,
                "duration": 0.052272727272726804,
                "tempo": 120.0
            },
            {
                "start_time": 4.963636363636363,
                "end_time": 5.015909090909091,
                "pitch": 38,
                "velocity": 51,
                "duration": 0.05227272727272769,
                "tempo": 120.0
            },
            {
                "start_time": 5.031818181818181,
                "end_time": 5.415909090909091,
                "pitch": 40,
                "velocity": 51,
                "duration": 0.3840909090909097,
                "tempo": 120.0
            },
            {
                "start_time": 5.434090909090909,
                "end_time": 5.618181818181818,
                "pitch": 38,
                "velocity": 51,
                "duration": 0.18409090909090953,
                "tempo": 120.0
            },
            {
                "start_time": 5.634090909090909,
                "end_time": 5.684090909090909,
                "pitch": 26,
                "velocity": 51,
                "duration": 0.04999999999999982,
                "tempo": 120.0
            },
            {
                "start_time": 5.702272727272727,
                "end_time": 5.752272727272727,
                "pitch": 28,
                "velocity": 51,
                "duration": 0.04999999999999982,
                "tempo": 120.0
            },
            {
                "start_time": 5.768181818181818,
                "end_time": 5.818181818181818,
                "pitch": 30,
                "velocity": 51,
                "duration": 0.05000000000000071,
                "tempo": 120.0
            },
            {
                "start_time": 5.836363636363636,
                "end_time": 6.015909090909091,
                "pitch": 38,
                "velocity": 51,
                "duration": 0.17954545454545467,
                "tempo": 120.0
            },
            {
                "start_time": 6.031818181818181,
                "end_time": 6.081818181818181,
                "pitch": 26,
                "velocity": 51,
                "duration": 0.04999999999999982,
                "tempo": 120.0
            },
            {
                "start_time": 6.097727272727273,
                "end_time": 6.1454545454545455,
                "pitch": 28,
                "velocity": 51,
                "duration": 0.04772727272727284,
                "tempo": 120.0
            },
            {
                "start_time": 6.161363636363636,
                "end_time": 6.211363636363636,
                "pitch": 30,
                "velocity": 51,
                "duration": 0.04999999999999982,
                "tempo": 120.0
            },
            {
                "start_time": 6.227272727272727,
                "end_time": 6.415909090909091,
                "pitch": 31,
                "velocity": 51,
                "duration": 0.18863636363636438,
                "tempo": 120.0
            },
            {
                "start_time": 6.431818181818182,
                "end_time": 6.620454545454545,
                "pitch": 26,
                "velocity": 51,
                "duration": 0.1886363636363635,
                "tempo": 120.0
            },
            {
                "start_time": 6.638636363636364,
                "end_time": 6.8181818181818175,
                "pitch": 31,
                "velocity": 51,
                "duration": 0.1795454545454538,
                "tempo": 120.0
            },
            {
                "start_time": 6.834090909090909,
                "end_time": 6.884090909090909,
                "pitch": 26,
                "velocity": 51,
                "duration": 0.04999999999999982,
                "tempo": 120.0
            },
            {
                "start_time": 6.8999999999999995,
                "end_time": 6.947727272727272,
                "pitch": 28,
                "velocity": 51,
                "duration": 0.04772727272727284,
                "tempo": 120.0
            },
            {
                "start_time": 6.965909090909091,
                "end_time": 7.013636363636364,
                "pitch": 30,
                "velocity": 51,
                "duration": 0.04772727272727284,
                "tempo": 120.0
            },
            {
                "start_time": 7.029545454545454,
                "end_time": 7.218181818181818,
                "pitch": 35,
                "velocity": 51,
                "duration": 0.1886363636363635,
                "tempo": 120.0
            },
            {
                "start_time": 7.236363636363636,
                "end_time": 7.422727272727272,
                "pitch": 31,
                "velocity": 51,
                "duration": 0.18636363636363562,
                "tempo": 120.0
            },
            {
                "start_time": 7.4409090909090905,
                "end_time": 7.620454545454545,
                "pitch": 35,
                "velocity": 51,
                "duration": 0.17954545454545467,
                "tempo": 120.0
            },
            {
                "start_time": 7.636363636363636,
                "end_time": 7.8159090909090905,
                "pitch": 31,
                "velocity": 51,
                "duration": 0.17954545454545467,
                "tempo": 120.0
            },
            {
                "start_time": 7.834090909090909,
                "end_time": 8.020454545454545,
                "pitch": 36,
                "velocity": 51,
                "duration": 0.18636363636363562,
                "tempo": 120.0
            },
            {
                "start_time": 8.038636363636364,
                "end_time": 8.088636363636363,
                "pitch": 35,
                "velocity": 51,
                "duration": 0.049999999999998934,
                "tempo": 120.0
            },
            {
                "start_time": 8.10681818181818,
                "end_time": 8.159090909090908,
                "pitch": 33,
                "velocity": 51,
                "duration": 0.05227272727272769,
                "tempo": 120.0
            },
            {
                "start_time": 8.174999999999999,
                "end_time": 8.227272727272727,
                "pitch": 31,
                "velocity": 51,
                "duration": 0.05227272727272769,
                "tempo": 120.0
            },
            {
                "start_time": 8.243181818181817,
                "end_time": 8.629545454545454,
                "pitch": 33,
                "velocity": 51,
                "duration": 0.3863636363636367,
                "tempo": 120.0
            },
            {
                "start_time": 8.645454545454545,
                "end_time": 8.829545454545453,
                "pitch": 33,
                "velocity": 51,
                "duration": 0.18409090909090864,
                "tempo": 120.0
            },
            {
                "start_time": 8.845454545454546,
                "end_time": 9.029545454545454,
                "pitch": 30,
                "velocity": 51,
                "duration": 0.18409090909090864,
                "tempo": 120.0
            },
            {
                "start_time": 9.045454545454545,
                "end_time": 9.23409090909091,
                "pitch": 33,
                "velocity": 51,
                "duration": 0.18863636363636438,
                "tempo": 120.0
            },
            {
                "start_time": 9.252272727272727,
                "end_time": 9.44090909090909,
                "pitch": 30,
                "velocity": 51,
                "duration": 0.1886363636363626,
                "tempo": 120.0
            },
            {
                "start_time": 9.456818181818182,
                "end_time": 9.64090909090909,
                "pitch": 31,
                "velocity": 51,
                "duration": 0.18409090909090864,
                "tempo": 120.0
            },
            {
                "start_time": 9.659090909090908,
                "end_time": 9.709090909090909,
                "pitch": 31,
                "velocity": 51,
                "duration": 0.05000000000000071,
                "tempo": 120.0
            },
            {
                "start_time": 9.725,
                "end_time": 9.777272727272727,
                "pitch": 33,
                "velocity": 51,
                "duration": 0.05227272727272769,
                "tempo": 120.0
            },
            {
                "start_time": 9.793181818181818,
                "end_time": 9.843181818181817,
                "pitch": 35,
                "velocity": 51,
                "duration": 0.049999999999998934,
                "tempo": 120.0
            },
            {
                "start_time": 9.85909090909091,
                "end_time": 10.227272727272727,
                "pitch": 26,
                "velocity": 51,
                "duration": 0.3681818181818173,
                "tempo": 120.0
            },
            {
                "start_time": 10.243181818181817,
                "end_time": 10.429545454545455,
                "pitch": 35,
                "velocity": 51,
                "duration": 0.1863636363636374,
                "tempo": 120.0
            },
            {
                "start_time": 10.447727272727272,
                "end_time": 10.636363636363637,
                "pitch": 31,
                "velocity": 51,
                "duration": 0.18863636363636438,
                "tempo": 120.0
            },
            {
                "start_time": 10.652272727272727,
                "end_time": 10.831818181818182,
                "pitch": 35,
                "velocity": 51,
                "duration": 0.17954545454545467,
                "tempo": 120.0
            },
            {
                "start_time": 10.847727272727273,
                "end_time": 11.027272727272727,
                "pitch": 31,
                "velocity": 51,
                "duration": 0.17954545454545467,
                "tempo": 120.0
            },
            {
                "start_time": 11.045454545454545,
                "end_time": 11.23181818181818,
                "pitch": 36,
                "velocity": 51,
                "duration": 0.18636363636363562,
                "tempo": 120.0
            },
            {
                "start_time": 11.25,
                "end_time": 11.299999999999999,
                "pitch": 35,
                "velocity": 51,
                "duration": 0.049999999999998934,
                "tempo": 120.0
            },
            {
                "start_time": 11.318181818181818,
                "end_time": 11.370454545454544,
                "pitch": 36,
                "velocity": 51,
                "duration": 0.052272727272725916,
                "tempo": 120.0
            },
            {
                "start_time": 11.386363636363637,
                "end_time": 11.438636363636363,
                "pitch": 38,
                "velocity": 51,
                "duration": 0.052272727272725916,
                "tempo": 120.0
            },
            {
                "start_time": 11.454545454545453,
                "end_time": 11.84090909090909,
                "pitch": 40,
                "velocity": 51,
                "duration": 0.3863636363636367,
                "tempo": 120.0
            },
            {
                "start_time": 11.85909090909091,
                "end_time": 12.043181818181818,
                "pitch": 38,
                "velocity": 51,
                "duration": 0.18409090909090864,
                "tempo": 120.0
            },
            {
                "start_time": 12.059090909090909,
                "end_time": 12.10909090909091,
                "pitch": 26,
                "velocity": 51,
                "duration": 0.05000000000000071,
                "tempo": 120.0
            },
            {
                "start_time": 12.127272727272727,
                "end_time": 12.177272727272726,
                "pitch": 28,
                "velocity": 51,
                "duration": 0.049999999999998934,
                "tempo": 120.0
            },
            {
                "start_time": 12.193181818181818,
                "end_time": 12.243181818181817,
                "pitch": 30,
                "velocity": 51,
                "duration": 0.049999999999998934,
                "tempo": 120.0
            },
            {
                "start_time": 12.261363636363635,
                "end_time": 12.44090909090909,
                "pitch": 38,
                "velocity": 51,
                "duration": 0.17954545454545467,
                "tempo": 120.0
            },
            {
                "start_time": 12.456818181818182,
                "end_time": 12.506818181818181,
                "pitch": 26,
                "velocity": 51,
                "duration": 0.049999999999998934,
                "tempo": 120.0
            },
            {
                "start_time": 12.522727272727272,
                "end_time": 12.570454545454545,
                "pitch": 28,
                "velocity": 51,
                "duration": 0.04772727272727373,
                "tempo": 120.0
            },
            {
                "start_time": 12.586363636363636,
                "end_time": 12.636363636363635,
                "pitch": 30,
                "velocity": 51,
                "duration": 0.049999999999998934,
                "tempo": 120.0
            },
            {
                "start_time": 12.652272727272727,
                "end_time": 12.84090909090909,
                "pitch": 31,
                "velocity": 51,
                "duration": 0.1886363636363626,
                "tempo": 120.0
            },
            {
                "start_time": 12.85681818181818,
                "end_time": 13.045454545454545,
                "pitch": 26,
                "velocity": 51,
                "duration": 0.18863636363636438,
                "tempo": 120.0
            },
            {
                "start_time": 13.063636363636363,
                "end_time": 13.243181818181817,
                "pitch": 31,
                "velocity": 51,
                "duration": 0.17954545454545467,
                "tempo": 120.0
            },
            {
                "start_time": 13.259090909090908,
                "end_time": 13.309090909090909,
                "pitch": 26,
                "velocity": 51,
                "duration": 0.05000000000000071,
                "tempo": 120.0
            },
            {
                "start_time": 13.325,
                "end_time": 13.372727272727271,
                "pitch": 28,
                "velocity": 51,
                "duration": 0.04772727272727195,
                "tempo": 120.0
            },
            {
                "start_time": 13.39090909090909,
                "end_time": 13.438636363636363,
                "pitch": 30,
                "velocity": 51,
                "duration": 0.04772727272727195,
                "tempo": 120.0
            }
        ],
        "Oboe": [
            {
                "start_time": 0.6113636363636363,
                "end_time": 0.7931818181818181,
                "pitch": 55,
                "velocity": 40,
                "duration": 0.18181818181818177,
                "tempo": 120.0
            },
            {
                "start_time": 0.8113636363636363,
                "end_time": 0.8931818181818182,
                "pitch": 50,
                "velocity": 40,
                "duration": 0.0818181818181819,
                "tempo": 120.0
            },
            {
                "start_time": 0.9113636363636363,
                "end_time": 1.093181818181818,
                "pitch": 55,
                "velocity": 40,
                "duration": 0.18181818181818177,
                "tempo": 120.0
            },
            {
                "start_time": 1.1113636363636363,
                "end_time": 1.1931818181818181,
                "pitch": 50,
                "velocity": 40,
                "duration": 0.08181818181818179,
                "tempo": 120.0
            },
            {
                "start_time": 1.2113636363636362,
                "end_time": 1.2931818181818182,
                "pitch": 54,
                "velocity": 40,
                "duration": 0.08181818181818201,
                "tempo": 120.0
            },
            {
                "start_time": 1.3113636363636363,
                "end_time": 1.393181818181818,
                "pitch": 55,
                "velocity": 40,
                "duration": 0.08181818181818179,
                "tempo": 120.0
            },
            {
                "start_time": 1.4113636363636364,
                "end_time": 1.5999999999999999,
                "pitch": 57,
                "velocity": 40,
                "duration": 0.1886363636363635,
                "tempo": 120.0
            },
            {
                "start_time": 1.6159090909090907,
                "end_time": 1.8045454545454545,
                "pitch": 60,
                "velocity": 40,
                "duration": 0.1886363636363637,
                "tempo": 120.0
            },
            {
                "start_time": 1.8227272727272725,
                "end_time": 2.2068181818181816,
                "pitch": 48,
                "velocity": 40,
                "duration": 0.38409090909090904,
                "tempo": 120.0
            },
            {
                "start_time": 2.225,
                "end_time": 2.4068181818181817,
                "pitch": 50,
                "velocity": 40,
                "duration": 0.18181818181818166,
                "tempo": 120.0
            },
            {
                "start_time": 2.425,
                "end_time": 2.6068181818181815,
                "pitch": 50,
                "velocity": 40,
                "duration": 0.18181818181818166,
                "tempo": 120.0
            },
            {
                "start_time": 2.625,
                "end_time": 2.675,
                "pitch": 50,
                "velocity": 40,
                "duration": 0.04999999999999982,
                "tempo": 120.0
            },
            {
                "start_time": 2.693181818181818,
                "end_time": 2.743181818181818,
                "pitch": 52,
                "velocity": 40,
                "duration": 0.050000000000000266,
                "tempo": 120.0
            },
            {
                "start_time": 2.7613636363636362,
                "end_time": 2.811363636363636,
                "pitch": 50,
                "velocity": 40,
                "duration": 0.04999999999999982,
                "tempo": 120.0
            },
            {
                "start_time": 2.8295454545454546,
                "end_time": 2.9159090909090906,
                "pitch": 48,
                "velocity": 40,
                "duration": 0.08636363636363598,
                "tempo": 120.0
            },
            {
                "start_time": 2.9318181818181817,
                "end_time": 3.018181818181818,
                "pitch": 47,
                "velocity": 40,
                "duration": 0.08636363636363642,
                "tempo": 120.0
            },
            {
                "start_time": 3.0340909090909087,
                "end_time": 3.8136363636363635,
                "pitch": 57,
                "velocity": 40,
                "duration": 0.7795454545454548,
                "tempo": 120.0
            },
            {
                "start_time": 3.829545454545454,
                "end_time": 4.013636363636364,
                "pitch": 55,
                "velocity": 40,
                "duration": 0.18409090909090953,
                "tempo": 120.0
            },
            {
                "start_time": 4.029545454545454,
                "end_time": 4.113636363636363,
                "pitch": 50,
                "velocity": 40,
                "duration": 0.084090909090909,
                "tempo": 120.0
            },
            {
                "start_time": 4.129545454545454,
                "end_time": 4.3113636363636365,
                "pitch": 55,
                "velocity": 40,
                "duration": 0.18181818181818254,
                "tempo": 120.0
            },
            {
                "start_time": 4.327272727272727,
                "end_time": 4.409090909090909,
                "pitch": 50,
                "velocity": 40,
                "duration": 0.08181818181818201,
                "tempo": 120.0
            },
            {
                "start_time": 4.427272727272727,
                "end_time": 4.506818181818182,
                "pitch": 54,
                "velocity": 40,
                "duration": 0.07954545454545503,
                "tempo": 120.0
            },
            {
                "start_time": 4.5249999999999995,
                "end_time": 4.6068181818181815,
                "pitch": 55,
                "velocity": 40,
                "duration": 0.08181818181818201,
                "tempo": 120.0
            },
            {
                "start_time": 4.622727272727272,
                "end_time": 4.809090909090909,
                "pitch": 57,
                "velocity": 40,
                "duration": 0.1863636363636365,
                "tempo": 120.0
            },
            {
                "start_time": 4.827272727272727,
                "end_time": 5.015909090909091,
                "pitch": 57,
                "velocity": 40,
                "duration": 0.1886363636363635,
                "tempo": 120.0
            },
            {
                "start_time": 5.031818181818181,
                "end_time": 5.415909090909091,
                "pitch": 60,
                "velocity": 40,
                "duration": 0.3840909090909097,
                "tempo": 120.0
            },
            {
                "start_time": 5.634090909090909,
                "end_time": 5.684090909090909,
                "pitch": 50,
                "velocity": 40,
                "duration": 0.04999999999999982,
                "tempo": 120.0
            },
            {
                "start_time": 5.702272727272727,
                "end_time": 5.752272727272727,
                "pitch": 52,
                "velocity": 40,
                "duration": 0.04999999999999982,
                "tempo": 120.0
            },
            {
                "start_time": 5.768181818181818,
                "end_time": 5.818181818181818,
                "pitch": 54,
                "velocity": 40,
                "duration": 0.05000000000000071,
                "tempo": 120.0
            },
            {
                "start_time": 6.031818181818181,
                "end_time": 6.081818181818181,
                "pitch": 50,
                "velocity": 40,
                "duration": 0.04999999999999982,
                "tempo": 120.0
            },
            {
                "start_time": 6.097727272727273,
                "end_time": 6.1454545454545455,
                "pitch": 52,
                "velocity": 40,
                "duration": 0.04772727272727284,
                "tempo": 120.0
            },
            {
                "start_time": 6.161363636363636,
                "end_time": 6.211363636363636,
                "pitch": 54,
                "velocity": 40,
                "duration": 0.04999999999999982,
                "tempo": 120.0
            },
            {
                "start_time": 6.227272727272727,
                "end_time": 7.013636363636364,
                "pitch": 55,
                "velocity": 40,
                "duration": 0.786363636363637,
                "tempo": 120.0
            },
            {
                "start_time": 7.029545454545454,
                "end_time": 7.218181818181818,
                "pitch": 55,
                "velocity": 40,
                "duration": 0.1886363636363635,
                "tempo": 120.0
            },
            {
                "start_time": 7.236363636363636,
                "end_time": 7.320454545454545,
                "pitch": 50,
                "velocity": 40,
                "duration": 0.084090909090909,
                "tempo": 120.0
            },
            {
                "start_time": 7.338636363636363,
                "end_time": 7.5227272727272725,
                "pitch": 55,
                "velocity": 40,
                "duration": 0.18409090909090953,
                "tempo": 120.0
            },
            {
                "start_time": 7.538636363636363,
                "end_time": 7.620454545454545,
                "pitch": 50,
                "velocity": 40,
                "duration": 0.08181818181818201,
                "tempo": 120.0
            },
            {
                "start_time": 7.636363636363636,
                "end_time": 7.718181818181818,
                "pitch": 54,
                "velocity": 40,
                "duration": 0.08181818181818201,
                "tempo": 120.0
            },
            {
                "start_time": 7.7340909090909085,
                "end_time": 7.8159090909090905,
                "pitch": 55,
                "velocity": 40,
                "duration": 0.08181818181818201,
                "tempo": 120.0
            },
            {
                "start_time": 7.834090909090909,
                "end_time": 8.020454545454545,
                "pitch": 57,
                "velocity": 40,
                "duration": 0.18636363636363562,
                "tempo": 120.0
            },
            {
                "start_time": 8.038636363636364,
                "end_time": 8.227272727272727,
                "pitch": 60,
                "velocity": 40,
                "duration": 0.1886363636363626,
                "tempo": 120.0
            },
            {
                "start_time": 8.243181818181817,
                "end_time": 8.629545454545454,
                "pitch": 48,
                "velocity": 40,
                "duration": 0.3863636363636367,
                "tempo": 120.0
            },
            {
                "start_time": 8.645454545454545,
                "end_time": 8.829545454545453,
                "pitch": 50,
                "velocity": 40,
                "duration": 0.18409090909090864,
                "tempo": 120.0
            },
            {
                "start_time": 8.845454545454546,
                "end_time": 9.029545454545454,
                "pitch": 50,
                "velocity": 40,
                "duration": 0.18409090909090864,
                "tempo": 120.0
            },
            {
                "start_time": 9.045454545454545,
                "end_time": 9.097727272727273,
                "pitch": 50,
                "velocity": 40,
                "duration": 0.05227272727272769,
                "tempo": 120.0
            },
            {
                "start_time": 9.113636363636363,
                "end_time": 9.165909090909091,
                "pitch": 52,
                "velocity": 40,
                "duration": 0.05227272727272769,
                "tempo": 120.0
            },
            {
                "start_time": 9.184090909090909,
                "end_time": 9.23409090909091,
                "pitch": 50,
                "velocity": 40,
                "duration": 0.05000000000000071,
                "tempo": 120.0
            },
            {
                "start_time": 9.252272727272727,
                "end_time": 9.336363636363636,
                "pitch": 48,
                "velocity": 40,
                "duration": 0.084090909090909,
                "tempo": 120.0
            },
            {
                "start_time": 9.354545454545454,
                "end_time": 9.44090909090909,
                "pitch": 47,
                "velocity": 40,
                "duration": 0.08636363636363598,
                "tempo": 120.0
            },
            {
                "start_time": 9.456818181818182,
                "end_time": 10.227272727272727,
                "pitch": 57,
                "velocity": 40,
                "duration": 0.7704545454545446,
                "tempo": 120.0
            },
            {
                "start_time": 10.243181818181817,
                "end_time": 10.429545454545455,
                "pitch": 55,
                "velocity": 40,
                "duration": 0.1863636363636374,
                "tempo": 120.0
            },
            {
                "start_time": 10.447727272727272,
                "end_time": 10.531818181818181,
                "pitch": 50,
                "velocity": 40,
                "duration": 0.084090909090909,
                "tempo": 120.0
            },
            {
                "start_time": 10.549999999999999,
                "end_time": 10.73409090909091,
                "pitch": 55,
                "velocity": 40,
                "duration": 0.18409090909091042,
                "tempo": 120.0
            },
            {
                "start_time": 10.75,
                "end_time": 10.831818181818182,
                "pitch": 50,
                "velocity": 40,
                "duration": 0.08181818181818201,
                "tempo": 120.0
            },
            {
                "start_time": 10.847727272727273,
                "end_time": 10.929545454545455,
                "pitch": 54,
                "velocity": 40,
                "duration": 0.08181818181818201,
                "tempo": 120.0
            },
            {
                "start_time": 10.947727272727272,
                "end_time": 11.027272727272727,
                "pitch": 55,
                "velocity": 40,
                "duration": 0.07954545454545503,
                "tempo": 120.0
            },
            {
                "start_time": 11.045454545454545,
                "end_time": 11.23181818181818,
                "pitch": 57,
                "velocity": 40,
                "duration": 0.18636363636363562,
                "tempo": 120.0
            },
            {
                "start_time": 11.25,
                "end_time": 11.438636363636363,
                "pitch": 57,
                "velocity": 40,
                "duration": 0.1886363636363626,
                "tempo": 120.0
            },
            {
                "start_time": 11.454545454545453,
                "end_time": 11.84090909090909,
                "pitch": 60,
                "velocity": 40,
                "duration": 0.3863636363636367,
                "tempo": 120.0
            },
            {
                "start_time": 12.059090909090909,
                "end_time": 12.10909090909091,
                "pitch": 50,
                "velocity": 40,
                "duration": 0.05000000000000071,
                "tempo": 120.0
            },
            {
                "start_time": 12.127272727272727,
                "end_time": 12.177272727272726,
                "pitch": 52,
                "velocity": 40,
                "duration": 0.049999999999998934,
                "tempo": 120.0
            },
            {
                "start_time": 12.193181818181818,
                "end_time": 12.243181818181817,
                "pitch": 54,
                "velocity": 40,
                "duration": 0.049999999999998934,
                "tempo": 120.0
            },
            {
                "start_time": 12.456818181818182,
                "end_time": 12.506818181818181,
                "pitch": 50,
                "velocity": 40,
                "duration": 0.049999999999998934,
                "tempo": 120.0
            },
            {
                "start_time": 12.522727272727272,
                "end_time": 12.570454545454545,
                "pitch": 52,
                "velocity": 40,
                "duration": 0.04772727272727373,
                "tempo": 120.0
            },
            {
                "start_time": 12.586363636363636,
                "end_time": 12.636363636363635,
                "pitch": 54,
                "velocity": 40,
                "duration": 0.049999999999998934,
                "tempo": 120.0
            },
            {
                "start_time": 12.652272727272727,
                "end_time": 13.438636363636363,
                "pitch": 55,
                "velocity": 40,
                "duration": 0.7863636363636353,
                "tempo": 120.0
            }
        ]
    }
}