{
    "track_id": "Wonder Boy III (FM) - 06 - Continue",
    "mood": "happy",
    "instruments": {
        "Acoustic Bass": [
            {
                "start_time": 0.3704545454545454,
                "end_time": 0.5386363636363636,
                "pitch": 40,
                "velocity": 64,
                "duration": 0.16818181818181815,
                "tempo": 120.0
            },
            {
                "start_time": 0.5386363636363636,
                "end_time": 0.7068181818181818,
                "pitch": 36,
                "velocity": 64,
                "duration": 0.1681818181818182,
                "tempo": 120.0
            },
            {
                "start_time": 0.7068181818181818,
                "end_time": 0.8727272727272727,
                "pitch": 40,
                "velocity": 64,
                "duration": 0.1659090909090909,
                "tempo": 120.0
            },
            {
                "start_time": 0.8727272727272727,
                "end_time": 1.0409090909090908,
                "pitch": 33,
                "velocity": 64,
                "duration": 0.1681818181818181,
                "tempo": 120.0
            },
            {
                "start_time": 1.0409090909090908,
                "end_time": 1.2113636363636362,
                "pitch": 40,
                "velocity": 64,
                "duration": 0.17045454545454541,
                "tempo": 120.0
            },
            {
                "start_time": 1.2113636363636362,
                "end_time": 1.3818181818181818,
                "pitch": 36,
                "velocity": 64,
                "duration": 0.17045454545454564,
                "tempo": 120.0
            },
            {
                "start_time": 1.3818181818181818,
                "end_time": 1.5499999999999998,
                "pitch": 40,
                "velocity": 64,
                "duration": 0.168181818181818,
                "tempo": 120.0
            },
            {
                "start_time": 1.5499999999999998,
                "end_time": 1.718181818181818,
                "pitch": 31,
                "velocity": 64,
                "duration": 0.1681818181818182,
                "tempo": 120.0
            },
            {
                "start_time": 1.718181818181818,
                "end_time": 1.8863636363636362,
                "pitch": 38,
                "velocity": 64,
                "duration": 0.1681818181818182,
                "tempo": 120.0
            },
            {
                "start_time": 1.8863636363636362,
                "end_time": 2.0522727272727272,
                "pitch": 35,
                "velocity": 64,
                "duration": 0.165909090909091,
                "tempo": 120.0
            },
            {
                "start_time": 2.0522727272727272,
                "end_time": 2.2204545454545452,
                "pitch": 38,
                "velocity": 64,
                "duration": 0.168181818181818,
                "tempo": 120.0
            },
            {
                "start_time": 2.2204545454545452,
                "end_time": 2.3886363636363637,
                "pitch": 31,
                "velocity": 64,
                "duration": 0.16818181818181843,
                "tempo": 120.0
            },
            {
                "start_time": 2.3886363636363637,
                "end_time": 2.5568181818181817,
                "pitch": 38,
                "velocity": 64,
                "duration": 0.168181818181818,
                "tempo": 120.0
            },
            {
                "start_time": 2.5568181818181817,
                "end_time": 2.725,
                "pitch": 35,
                "velocity": 64,
                "duration": 0.16818181818181843,
                "tempo": 120.0
            },
            {
                "start_time": 2.725,
                "end_time": 2.8909090909090907,
                "pitch": 38,
                "velocity": 64,
                "duration": 0.16590909090909056,
                "tempo": 120.0
            },
            {
                "start_time": 2.8909090909090907,
                "end_time": 3.059090909090909,
                "pitch": 29,
                "velocity": 64,
                "duration": 0.16818181818181843,
                "tempo": 120.0
            },
            {
                "start_time": 3.059090909090909,
                "end_time": 3.227272727272727,
                "pitch": 36,
                "velocity": 64,
                "duration": 0.168181818181818,
                "tempo": 120.0
            },
            {
                "start_time": 3.227272727272727,
                "end_time": 3.3954545454545455,
                "pitch": 33,
                "velocity": 64,
                "duration": 0.16818181818181843,
                "tempo": 120.0
            },
            {
                "start_time": 3.3954545454545455,
                "end_time": 3.5636363636363635,
                "pitch": 36,
                "velocity": 64,
                "duration": 0.168181818181818,
                "tempo": 120.0
            },
            {
                "start_time": 3.5636363636363635,
                "end_time": 3.7318181818181815,
                "pitch": 29,
                "velocity": 64,
                "duration": 0.168181818181818,
                "tempo": 120.0
            },
            {
                "start_time": 3.7318181818181815,
                "end_time": 3.9,
                "pitch": 36,
                "velocity": 64,
                "duration": 0.16818181818181843,
                "tempo": 120.0
            },
            {
                "start_time": 3.9,
                "end_time": 4.068181818181818,
                "pitch": 33,
                "velocity": 64,
                "duration": 0.16818181818181843,
                "tempo": 120.0
            },
            {
                "start_time": 4.068181818181818,
                "end_time": 4.236363636363636,
                "pitch": 36,
                "velocity": 64,
                "duration": 0.168181818181818,
                "tempo": 120.0
            },
            {
                "start_time": 4.236363636363636,
                "end_time": 4.402272727272727,
                "pitch": 31,
                "velocity": 64,
                "duration": 0.165909090909091,
                "tempo": 120.0
            },
            {
                "start_time": 4.402272727272727,
                "end_time": 4.568181818181818,
                "pitch": 38,
                "velocity": 64,
                "duration": 0.165909090909091,
                "tempo": 120.0
            },
            {
                "start_time": 4.568181818181818,
                "end_time": 4.7318181818181815,
                "pitch": 35,
                "velocity": 64,
                "duration": 0.16363636363636314,
                "tempo": 120.0
            },
            {
                "start_time": 4.7318181818181815,
                "end_time": 4.8977272727272725,
                "pitch": 38,
                "velocity": 64,
                "duration": 0.165909090909091,
                "tempo": 120.0
            },
            {
                "start_time": 4.8977272727272725,
                "end_time": 5.0659090909090905,
                "pitch": 31,
                "velocity": 64,
                "duration": 0.168181818181818,
                "tempo": 120.0
            },
            {
                "start_time": 5.0659090909090905,
                "end_time": 5.2340909090909085,
                "pitch": 38,
                "velocity": 64,
                "duration": 0.168181818181818,
                "tempo": 120.0
            },
            {
                "start_time": 5.2340909090909085,
                "end_time": 5.402272727272727,
                "pitch": 35,
                "velocity": 64,
                "duration": 0.16818181818181888,
                "tempo": 120.0
            },
            {
                "start_time": 5.402272727272727,
                "end_time": 5.570454545454545,
                "pitch": 38,
                "velocity": 64,
                "duration": 0.168181818181818,
                "tempo": 120.0
            },
            {
                "start_time": 5.570454545454545,
                "end_time": 5.7340909090909085,
                "pitch": 33,
                "velocity": 64,
                "duration": 0.16363636363636314,
                "tempo": 120.0
            },
            {
                "start_time": 6.0659090909090905,
                "end_time": 6.2318181818181815,
                "pitch": 31,
                "velocity": 64,
                "duration": 0.165909090909091,
                "tempo": 120.0
            },
            {
                "start_time": 6.402272727272727,
                "end_time": 6.570454545454545,
                "pitch": 31,
                "velocity": 64,
                "duration": 0.168181818181818,
                "tempo": 120.0
            },
            {
                "start_time": 6.74090909090909,
                "end_time": 6.911363636363636,
                "pitch": 31,
                "velocity": 64,
                "duration": 0.17045454545454586,
                "tempo": 120.0
            },
            {
                "start_time": 6.911363636363636,
                "end_time": 7.077272727272727,
                "pitch": 33,
                "velocity": 64,
                "duration": 0.165909090909091,
                "tempo": 120.0
            },
            {
                "start_time": 7.243181818181818,
                "end_time": 7.409090909090909,
                "pitch": 31,
                "velocity": 64,
                "duration": 0.165909090909091,
                "tempo": 120.0
            },
            {
                "start_time": 7.409090909090909,
                "end_time": 7.49090909090909,
                "pitch": 31,
                "velocity": 64,
                "duration": 0.08181818181818112,
                "tempo": 120.0
            },
            {
                "start_time": 7.49090909090909,
                "end_time": 7.574999999999999,
                "pitch": 31,
                "velocity": 64,
                "duration": 0.084090909090909,
                "tempo": 120.0
            },
            {
                "start_time": 7.574999999999999,
                "end_time": 7.74090909090909,
                "pitch": 33,
                "velocity": 64,
                "duration": 0.165909090909091,
                "tempo": 120.0
            }
        ],
        "Electric Piano 1": [
            {
                "start_time": 0.09772727272727272,
                "end_time": 0.17727272727272728,
                "pitch": 56,
                "velocity": 51,
                "duration": 0.07954545454545456,
                "tempo": 120.0
            },
            {
                "start_time": 0.20227272727272727,
                "end_time": 0.33636363636363636,
                "pitch": 57,
                "velocity": 51,
                "duration": 0.1340909090909091,
                "tempo": 120.0
            },
            {
                "start_time": 0.3704545454545454,
                "end_time": 0.5045454545454545,
                "pitch": 64,
                "velocity": 51,
                "duration": 0.1340909090909091,
                "tempo": 120.0
            },
            {
                "start_time": 0.5386363636363636,
                "end_time": 0.6727272727272727,
                "pitch": 62,
                "velocity": 51,
                "duration": 0.13409090909090915,
                "tempo": 120.0
            },
            {
                "start_time": 0.7068181818181818,
                "end_time": 0.8386363636363636,
                "pitch": 64,
                "velocity": 51,
                "duration": 0.13181818181818183,
                "tempo": 120.0
            },
            {
                "start_time": 0.8727272727272727,
                "end_time": 1.0068181818181818,
                "pitch": 60,
                "velocity": 51,
                "duration": 0.13409090909090915,
                "tempo": 120.0
            },
            {
                "start_time": 1.0409090909090908,
                "end_time": 1.1772727272727272,
                "pitch": 64,
                "velocity": 51,
                "duration": 0.13636363636363646,
                "tempo": 120.0
            },
            {
                "start_time": 1.2113636363636362,
                "end_time": 1.3477272727272727,
                "pitch": 59,
                "velocity": 51,
                "duration": 0.13636363636363646,
                "tempo": 120.0
            },
            {
                "start_time": 1.3818181818181818,
                "end_time": 1.5159090909090909,
                "pitch": 64,
                "velocity": 51,
                "duration": 0.13409090909090904,
                "tempo": 120.0
            },
            {
                "start_time": 1.5499999999999998,
                "end_time": 1.684090909090909,
                "pitch": 57,
                "velocity": 51,
                "duration": 0.13409090909090926,
                "tempo": 120.0
            },
            {
                "start_time": 1.718181818181818,
                "end_time": 1.8522727272727273,
                "pitch": 52,
                "velocity": 51,
                "duration": 0.13409090909090926,
                "tempo": 120.0
            },
            {
                "start_time": 1.8863636363636362,
                "end_time": 2.0204545454545455,
                "pitch": 59,
                "velocity": 51,
                "duration": 0.13409090909090926,
                "tempo": 120.0
            },
            {
                "start_time": 2.0522727272727272,
                "end_time": 2.186363636363636,
                "pitch": 64,
                "velocity": 51,
                "duration": 0.13409090909090882,
                "tempo": 120.0
            },
            {
                "start_time": 2.2204545454545452,
                "end_time": 2.3545454545454545,
                "pitch": 60,
                "velocity": 51,
                "duration": 0.13409090909090926,
                "tempo": 120.0
            },
            {
                "start_time": 2.3886363636363637,
                "end_time": 2.5227272727272725,
                "pitch": 64,
                "velocity": 51,
                "duration": 0.13409090909090882,
                "tempo": 120.0
            },
            {
                "start_time": 2.5568181818181817,
                "end_time": 2.690909090909091,
                "pitch": 60,
                "velocity": 51,
                "duration": 0.13409090909090926,
                "tempo": 120.0
            },
            {
                "start_time": 2.725,
                "end_time": 2.859090909090909,
                "pitch": 64,
                "velocity": 51,
                "duration": 0.13409090909090882,
                "tempo": 120.0
            },
            {
                "start_time": 2.8909090909090907,
                "end_time": 3.277272727272727,
                "pitch": 65,
                "velocity": 51,
                "duration": 0.38636363636363624,
                "tempo": 120.0
            },
            {
                "start_time": 3.3954545454545455,
                "end_time": 3.5318181818181817,
                "pitch": 57,
                "velocity": 51,
                "duration": 0.13636363636363624,
                "tempo": 120.0
            },
            {
                "start_time": 3.5636363636363635,
                "end_time": 4.068181818181818,
                "pitch": 57,
                "velocity": 51,
                "duration": 0.5045454545454549,
                "tempo": 120.0
            },
            {
                "start_time": 4.402272727272727,
                "end_time": 4.534090909090909,
                "pitch": 67,
                "velocity": 51,
                "duration": 0.13181818181818183,
                "tempo": 120.0
            },
            {
                "start_time": 4.568181818181818,
                "end_time": 4.7,
                "pitch": 69,
                "velocity": 51,
                "duration": 0.13181818181818183,
                "tempo": 120.0
            },
            {
                "start_time": 4.7318181818181815,
                "end_time": 4.86590909090909,
                "pitch": 67,
                "velocity": 51,
                "duration": 0.13409090909090882,
                "tempo": 120.0
            },
            {
                "start_time": 4.8977272727272725,
                "end_time": 5.031818181818181,
                "pitch": 65,
                "velocity": 51,
                "duration": 0.13409090909090882,
                "tempo": 120.0
            },
            {
                "start_time": 5.0659090909090905,
                "end_time": 5.318181818181818,
                "pitch": 64,
                "velocity": 51,
                "duration": 0.25227272727272787,
                "tempo": 120.0
            },
            {
                "start_time": 5.402272727272727,
                "end_time": 5.536363636363636,
                "pitch": 64,
                "velocity": 51,
                "duration": 0.13409090909090882,
                "tempo": 120.0
            },
            {
                "start_time": 5.570454545454545,
                "end_time": 6.570454545454545,
                "pitch": 61,
                "velocity": 51,
                "duration": 1.0,
                "tempo": 120.0
            },
            {
                "start_time": 7.243181818181818,
                "end_time": 7.375,
                "pitch": 59,
                "velocity": 51,
                "duration": 0.13181818181818183,
                "tempo": 120.0
            },
            {
                "start_time": 7.409090909090909,
                "end_time": 7.475,
                "pitch": 59,
                "velocity": 51,
                "duration": 0.06590909090909047,
                "tempo": 120.0
            },
            {
                "start_time": 7.49090909090909,
                "end_time": 7.556818181818182,
                "pitch": 59,
                "velocity": 51,
                "duration": 0.06590909090909136,
                "tempo": 120.0
            },
            {
                "start_time": 7.574999999999999,
                "end_time": 7.706818181818181,
                "pitch": 61,
                "velocity": 51,
                "duration": 0.13181818181818183,
                "tempo": 120.0
            }
        ],
        "Electric Guitar (clean)": [
            {
                "start_time": 0.0,
                "end_time": 0.40454545454545454,
                "pitch": 45,
                "velocity": 4,
                "duration": 0.40454545454545454,
                "tempo": 120.0
            },
            {
                "start_time": 0.40454545454545454,
                "end_time": 0.7386363636363636,
                "pitch": 29,
                "velocity": 4,
                "duration": 0.3340909090909091,
                "tempo": 120.0
            },
            {
                "start_time": 0.7386363636363636,
                "end_time": 1.075,
                "pitch": 45,
                "velocity": 4,
                "duration": 0.3363636363636363,
                "tempo": 120.0
            },
            {
                "start_time": 1.075,
                "end_time": 1.2454545454545454,
                "pitch": 29,
                "velocity": 4,
                "duration": 0.17045454545454541,
                "tempo": 120.0
            },
            {
                "start_time": 1.2454545454545454,
                "end_time": 1.4159090909090908,
                "pitch": 37,
                "velocity": 4,
                "duration": 0.17045454545454541,
                "tempo": 120.0
            },
            {
                "start_time": 1.4159090909090908,
                "end_time": 1.584090909090909,
                "pitch": 29,
                "velocity": 4,
                "duration": 0.1681818181818182,
                "tempo": 120.0
            },
            {
                "start_time": 1.584090909090909,
                "end_time": 1.7522727272727272,
                "pitch": 45,
                "velocity": 4,
                "duration": 0.1681818181818182,
                "tempo": 120.0
            },
            {
                "start_time": 1.7522727272727272,
                "end_time": 2.0863636363636364,
                "pitch": 29,
                "velocity": 4,
                "duration": 0.3340909090909092,
                "tempo": 120.0
            },
            {
                "start_time": 2.0863636363636364,
                "end_time": 2.4227272727272724,
                "pitch": 45,
                "velocity": 4,
                "duration": 0.336363636363636,
                "tempo": 120.0
            },
            {
                "start_time": 2.4227272727272724,
                "end_time": 2.925,
                "pitch": 37,
                "velocity": 4,
                "duration": 0.5022727272727274,
                "tempo": 120.0
            },
            {
                "start_time": 2.925,
                "end_time": 3.093181818181818,
                "pitch": 45,
                "velocity": 4,
                "duration": 0.168181818181818,
                "tempo": 120.0
            },
            {
                "start_time": 3.093181818181818,
                "end_time": 3.4272727272727272,
                "pitch": 29,
                "velocity": 4,
                "duration": 0.33409090909090944,
                "tempo": 120.0
            },
            {
                "start_time": 3.4272727272727272,
                "end_time": 3.7659090909090907,
                "pitch": 45,
                "velocity": 4,
                "duration": 0.3386363636363634,
                "tempo": 120.0
            },
            {
                "start_time": 3.7659090909090907,
                "end_time": 3.934090909090909,
                "pitch": 29,
                "velocity": 4,
                "duration": 0.16818181818181843,
                "tempo": 120.0
            },
            {
                "start_time": 3.934090909090909,
                "end_time": 4.1022727272727275,
                "pitch": 37,
                "velocity": 4,
                "duration": 0.16818181818181843,
                "tempo": 120.0
            },
            {
                "start_time": 4.1022727272727275,
                "end_time": 4.268181818181818,
                "pitch": 29,
                "velocity": 4,
                "duration": 0.16590909090909012,
                "tempo": 120.0
            },
            {
                "start_time": 4.268181818181818,
                "end_time": 4.318181818181818,
                "pitch": 45,
                "velocity": 4,
                "duration": 0.05000000000000071,
                "tempo": 120.0
            },
            {
                "start_time": 4.318181818181818,
                "end_time": 4.334090909090909,
                "pitch": 29,
                "velocity": 4,
                "duration": 0.01590909090909065,
                "tempo": 120.0
            },
            {
                "start_time": 4.334090909090909,
                "end_time": 4.434090909090909,
                "pitch": 40,
                "velocity": 4,
                "duration": 0.09999999999999964,
                "tempo": 120.0
            },
            {
                "start_time": 4.434090909090909,
                "end_time": 4.765909090909091,
                "pitch": 24,
                "velocity": 4,
                "duration": 0.331818181818182,
                "tempo": 120.0
            },
            {
                "start_time": 4.765909090909091,
                "end_time": 5.1,
                "pitch": 40,
                "velocity": 4,
                "duration": 0.334090909090909,
                "tempo": 120.0
            },
            {
                "start_time": 5.1,
                "end_time": 5.602272727272727,
                "pitch": 32,
                "velocity": 4,
                "duration": 0.502272727272727,
                "tempo": 120.0
            },
            {
                "start_time": 5.602272727272727,
                "end_time": 5.768181818181818,
                "pitch": 41,
                "velocity": 4,
                "duration": 0.165909090909091,
                "tempo": 120.0
            },
            {
                "start_time": 5.768181818181818,
                "end_time": 6.1,
                "pitch": 24,
                "velocity": 4,
                "duration": 0.331818181818182,
                "tempo": 120.0
            },
            {
                "start_time": 6.1,
                "end_time": 6.265909090909091,
                "pitch": 40,
                "velocity": 4,
                "duration": 0.165909090909091,
                "tempo": 120.0
            },
            {
                "start_time": 6.265909090909091,
                "end_time": 6.436363636363636,
                "pitch": 24,
                "velocity": 4,
                "duration": 0.17045454545454497,
                "tempo": 120.0
            },
            {
                "start_time": 6.436363636363636,
                "end_time": 6.6045454545454545,
                "pitch": 40,
                "velocity": 4,
                "duration": 0.16818181818181888,
                "tempo": 120.0
            },
            {
                "start_time": 6.6045454545454545,
                "end_time": 6.7749999999999995,
                "pitch": 32,
                "velocity": 4,
                "duration": 0.17045454545454497,
                "tempo": 120.0
            },
            {
                "start_time": 6.7749999999999995,
                "end_time": 7.1090909090909085,
                "pitch": 63,
                "velocity": 4,
                "duration": 0.334090909090909,
                "tempo": 120.0
            },
            {
                "start_time": 7.1090909090909085,
                "end_time": 7.2749999999999995,
                "pitch": 47,
                "velocity": 4,
                "duration": 0.165909090909091,
                "tempo": 120.0
            },
            {
                "start_time": 7.2749999999999995,
                "end_time": 7.4409090909090905,
                "pitch": 55,
                "velocity": 4,
                "duration": 0.165909090909091,
                "tempo": 120.0
            },
            {
                "start_time": 7.4409090909090905,
                "end_time": 7.6068181818181815,
                "pitch": 63,
                "velocity": 4,
                "duration": 0.165909090909091,
                "tempo": 120.0
            },
            {
                "start_time": 7.6068181818181815,
                "end_time": 7.74090909090909,
                "pitch": 71,
                "velocity": 4,
                "duration": 0.13409090909090882,
                "tempo": 120.0
            }
        ]
    }
}