{
    "track_id": "Wonder Boy III (FM) - 10 - Mouse-Man Falling",
    "mood": "happy",
    "instruments": {
        "Acoustic Bass": [
            {
                "start_time": 0.0,
                "end_time": 0.15,
                "pitch": 31,
                "velocity": 80,
                "duration": 0.15,
                "tempo": 120.0
            },
            {
                "start_time": 0.19999999999999998,
                "end_time": 0.33409090909090905,
                "pitch": 43,
                "velocity": 80,
                "duration": 0.13409090909090907,
                "tempo": 120.0
            },
            {
                "start_time": 0.3840909090909091,
                "end_time": 0.5363636363636364,
                "pitch": 31,
                "velocity": 80,
                "duration": 0.15227272727272728,
                "tempo": 120.0
            },
            {
                "start_time": 0.5886363636363636,
                "end_time": 0.759090909090909,
                "pitch": 43,
                "velocity": 80,
                "duration": 0.17045454545454541,
                "tempo": 120.0
            },
            {
                "start_time": 0.7931818181818181,
                "end_time": 0.9613636363636363,
                "pitch": 31,
                "velocity": 80,
                "duration": 0.1681818181818182,
                "tempo": 120.0
            },
            {
                "start_time": 1.0113636363636362,
                "end_time": 1.1636363636363636,
                "pitch": 43,
                "velocity": 80,
                "duration": 0.15227272727272734,
                "tempo": 120.0
            },
            {
                "start_time": 1.1977272727272728,
                "end_time": 1.3477272727272727,
                "pitch": 31,
                "velocity": 80,
                "duration": 0.1499999999999999,
                "tempo": 120.0
            },
            {
                "start_time": 1.4136363636363636,
                "end_time": 1.5136363636363637,
                "pitch": 43,
                "velocity": 80,
                "duration": 0.10000000000000009,
                "tempo": 120.0
            },
            {
                "start_time": 1.6136363636363635,
                "end_time": 1.6795454545454545,
                "pitch": 41,
                "velocity": 80,
                "duration": 0.06590909090909092,
                "tempo": 120.0
            },
            {
                "start_time": 1.7136363636363636,
                "end_time": 1.7818181818181817,
                "pitch": 41,
                "velocity": 80,
                "duration": 0.06818181818181812,
                "tempo": 120.0
            },
            {
                "start_time": 1.815909090909091,
                "end_time": 1.95,
                "pitch": 40,
                "velocity": 80,
                "duration": 0.13409090909090904,
                "tempo": 120.0
            },
            {
                "start_time": 2.0159090909090907,
                "end_time": 2.084090909090909,
                "pitch": 38,
                "velocity": 80,
                "duration": 0.06818181818181834,
                "tempo": 120.0
            },
            {
                "start_time": 2.4,
                "end_time": 2.4818181818181815,
                "pitch": 53,
                "velocity": 80,
                "duration": 0.08181818181818157,
                "tempo": 120.0
            },
            {
                "start_time": 2.5136363636363637,
                "end_time": 2.5795454545454546,
                "pitch": 53,
                "velocity": 80,
                "duration": 0.06590909090909092,
                "tempo": 120.0
            },
            {
                "start_time": 2.5954545454545452,
                "end_time": 2.7113636363636364,
                "pitch": 52,
                "velocity": 80,
                "duration": 0.11590909090909118,
                "tempo": 120.0
            },
            {
                "start_time": 2.809090909090909,
                "end_time": 2.893181818181818,
                "pitch": 50,
                "velocity": 80,
                "duration": 0.084090909090909,
                "tempo": 120.0
            },
            {
                "start_time": 2.995454545454545,
                "end_time": 3.0818181818181816,
                "pitch": 53,
                "velocity": 80,
                "duration": 0.08636363636363642,
                "tempo": 120.0
            },
            {
                "start_time": 3.0999999999999996,
                "end_time": 3.184090909090909,
                "pitch": 53,
                "velocity": 80,
                "duration": 0.08409090909090944,
                "tempo": 120.0
            },
            {
                "start_time": 3.202272727272727,
                "end_time": 3.352272727272727,
                "pitch": 31,
                "velocity": 80,
                "duration": 0.1499999999999999,
                "tempo": 120.0
            },
            {
                "start_time": 3.418181818181818,
                "end_time": 3.5522727272727272,
                "pitch": 43,
                "velocity": 80,
                "duration": 0.13409090909090926,
                "tempo": 120.0
            },
            {
                "start_time": 3.618181818181818,
                "end_time": 3.752272727272727,
                "pitch": 38,
                "velocity": 80,
                "duration": 0.13409090909090882,
                "tempo": 120.0
            },
            {
                "start_time": 3.818181818181818,
                "end_time": 3.952272727272727,
                "pitch": 43,
                "velocity": 80,
                "duration": 0.13409090909090926,
                "tempo": 120.0
            },
            {
                "start_time": 4.018181818181818,
                "end_time": 4.152272727272727,
                "pitch": 31,
                "velocity": 80,
                "duration": 0.1340909090909097,
                "tempo": 120.0
            },
            {
                "start_time": 4.218181818181818,
                "end_time": 4.352272727272727,
                "pitch": 43,
                "velocity": 80,
                "duration": 0.13409090909090882,
                "tempo": 120.0
            },
            {
                "start_time": 4.418181818181818,
                "end_time": 4.5204545454545455,
                "pitch": 38,
                "velocity": 80,
                "duration": 0.10227272727272751,
                "tempo": 120.0
            },
            {
                "start_time": 4.620454545454545,
                "end_time": 4.754545454545454,
                "pitch": 43,
                "velocity": 80,
                "duration": 0.13409090909090882,
                "tempo": 120.0
            },
            {
                "start_time": 4.822727272727272,
                "end_time": 4.954545454545454,
                "pitch": 26,
                "velocity": 80,
                "duration": 0.13181818181818183,
                "tempo": 120.0
            },
            {
                "start_time": 5.0227272727272725,
                "end_time": 5.154545454545454,
                "pitch": 38,
                "velocity": 80,
                "duration": 0.13181818181818183,
                "tempo": 120.0
            },
            {
                "start_time": 5.222727272727273,
                "end_time": 5.322727272727272,
                "pitch": 29,
                "velocity": 80,
                "duration": 0.09999999999999964,
                "tempo": 120.0
            },
            {
                "start_time": 5.422727272727273,
                "end_time": 5.556818181818182,
                "pitch": 41,
                "velocity": 80,
                "duration": 0.13409090909090882,
                "tempo": 120.0
            },
            {
                "start_time": 5.625,
                "end_time": 5.759090909090909,
                "pitch": 33,
                "velocity": 80,
                "duration": 0.13409090909090882,
                "tempo": 120.0
            },
            {
                "start_time": 5.824999999999999,
                "end_time": 5.959090909090909,
                "pitch": 45,
                "velocity": 80,
                "duration": 0.1340909090909097,
                "tempo": 120.0
            },
            {
                "start_time": 6.027272727272727,
                "end_time": 6.127272727272727,
                "pitch": 35,
                "velocity": 80,
                "duration": 0.09999999999999964,
                "tempo": 120.0
            },
            {
                "start_time": 6.227272727272727,
                "end_time": 6.361363636363636,
                "pitch": 48,
                "velocity": 80,
                "duration": 0.1340909090909097,
                "tempo": 120.0
            },
            {
                "start_time": 6.427272727272727,
                "end_time": 6.561363636363636,
                "pitch": 31,
                "velocity": 80,
                "duration": 0.13409090909090882,
                "tempo": 120.0
            },
            {
                "start_time": 6.629545454545454,
                "end_time": 6.763636363636364,
                "pitch": 43,
                "velocity": 80,
                "duration": 0.1340909090909097,
                "tempo": 120.0
            },
            {
                "start_time": 6.829545454545454,
                "end_time": 6.929545454545454,
                "pitch": 31,
                "velocity": 80,
                "duration": 0.09999999999999964,
                "tempo": 120.0
            },
            {
                "start_time": 7.029545454545454,
                "end_time": 7.163636363636363,
                "pitch": 43,
                "velocity": 80,
                "duration": 0.13409090909090882,
                "tempo": 120.0
            },
            {
                "start_time": 7.2295454545454545,
                "end_time": 7.363636363636363,
                "pitch": 31,
                "velocity": 80,
                "duration": 0.13409090909090882,
                "tempo": 120.0
            },
            {
                "start_time": 7.431818181818182,
                "end_time": 7.5659090909090905,
                "pitch": 43,
                "velocity": 80,
                "duration": 0.13409090909090882,
                "tempo": 120.0
            },
            {
                "start_time": 7.631818181818182,
                "end_time": 7.765909090909091,
                "pitch": 31,
                "velocity": 80,
                "duration": 0.13409090909090882,
                "tempo": 120.0
            },
            {
                "start_time": 7.834090909090909,
                "end_time": 7.968181818181818,
                "pitch": 43,
                "velocity": 80,
                "duration": 0.13409090909090882,
                "tempo": 120.0
            },
            {
                "start_time": 8.036363636363635,
                "end_time": 8.102272727272727,
                "pitch": 41,
                "velocity": 80,
                "duration": 0.06590909090909136,
                "tempo": 120.0
            },
            {
                "start_time": 8.136363636363637,
                "end_time": 8.202272727272726,
                "pitch": 41,
                "velocity": 80,
                "duration": 0.06590909090908958,
                "tempo": 120.0
            },
            {
                "start_time": 8.236363636363636,
                "end_time": 8.368181818181817,
                "pitch": 40,
                "velocity": 80,
                "duration": 0.13181818181818095,
                "tempo": 120.0
            },
            {
                "start_time": 8.436363636363636,
                "end_time": 8.502272727272727,
                "pitch": 38,
                "velocity": 80,
                "duration": 0.06590909090909136,
                "tempo": 120.0
            },
            {
                "start_time": 8.838636363636363,
                "end_time": 8.902272727272727,
                "pitch": 53,
                "velocity": 80,
                "duration": 0.06363636363636438,
                "tempo": 120.0
            },
            {
                "start_time": 8.936363636363636,
                "end_time": 9.002272727272727,
                "pitch": 53,
                "velocity": 80,
                "duration": 0.06590909090909136,
                "tempo": 120.0
            },
            {
                "start_time": 9.034090909090908,
                "end_time": 9.163636363636364,
                "pitch": 52,
                "velocity": 80,
                "duration": 0.12954545454545574,
                "tempo": 120.0
            },
            {
                "start_time": 9.229545454545454,
                "end_time": 9.297727272727272,
                "pitch": 50,
                "velocity": 80,
                "duration": 0.06818181818181834,
                "tempo": 120.0
            },
            {
                "start_time": 9.434090909090909,
                "end_time": 9.504545454545454,
                "pitch": 53,
                "velocity": 80,
                "duration": 0.07045454545454533,
                "tempo": 120.0
            },
            {
                "start_time": 9.538636363636364,
                "end_time": 9.60681818181818,
                "pitch": 53,
                "velocity": 80,
                "duration": 0.06818181818181657,
                "tempo": 120.0
            },
            {
                "start_time": 9.64090909090909,
                "end_time": 9.775,
                "pitch": 31,
                "velocity": 80,
                "duration": 0.1340909090909097,
                "tempo": 120.0
            },
            {
                "start_time": 9.84090909090909,
                "end_time": 9.975,
                "pitch": 43,
                "velocity": 80,
                "duration": 0.1340909090909097,
                "tempo": 120.0
            },
            {
                "start_time": 10.040909090909091,
                "end_time": 10.174999999999999,
                "pitch": 38,
                "velocity": 80,
                "duration": 0.13409090909090793,
                "tempo": 120.0
            },
            {
                "start_time": 10.243181818181817,
                "end_time": 10.377272727272727,
                "pitch": 43,
                "velocity": 80,
                "duration": 0.1340909090909097,
                "tempo": 120.0
            },
            {
                "start_time": 10.443181818181818,
                "end_time": 10.577272727272726,
                "pitch": 31,
                "velocity": 80,
                "duration": 0.13409090909090793,
                "tempo": 120.0
            },
            {
                "start_time": 10.645454545454545,
                "end_time": 10.779545454545454,
                "pitch": 43,
                "velocity": 80,
                "duration": 0.1340909090909097,
                "tempo": 120.0
            },
            {
                "start_time": 10.845454545454546,
                "end_time": 10.947727272727272,
                "pitch": 38,
                "velocity": 80,
                "duration": 0.10227272727272663,
                "tempo": 120.0
            },
            {
                "start_time": 11.047727272727272,
                "end_time": 11.181818181818182,
                "pitch": 43,
                "velocity": 80,
                "duration": 0.1340909090909097,
                "tempo": 120.0
            },
            {
                "start_time": 11.247727272727273,
                "end_time": 11.384090909090908,
                "pitch": 26,
                "velocity": 80,
                "duration": 0.1363636363636349,
                "tempo": 120.0
            },
            {
                "start_time": 11.45,
                "end_time": 11.584090909090909,
                "pitch": 38,
                "velocity": 80,
                "duration": 0.1340909090909097,
                "tempo": 120.0
            },
            {
                "start_time": 11.652272727272727,
                "end_time": 11.752272727272727,
                "pitch": 29,
                "velocity": 80,
                "duration": 0.09999999999999964,
                "tempo": 120.0
            },
            {
                "start_time": 11.852272727272727,
                "end_time": 11.98409090909091,
                "pitch": 41,
                "velocity": 80,
                "duration": 0.13181818181818272,
                "tempo": 120.0
            },
            {
                "start_time": 12.052272727272726,
                "end_time": 12.186363636363636,
                "pitch": 33,
                "velocity": 80,
                "duration": 0.1340909090909097,
                "tempo": 120.0
            },
            {
                "start_time": 12.252272727272727,
                "end_time": 12.386363636363635,
                "pitch": 45,
                "velocity": 80,
                "duration": 0.13409090909090793,
                "tempo": 120.0
            },
            {
                "start_time": 12.454545454545453,
                "end_time": 12.554545454545455,
                "pitch": 35,
                "velocity": 80,
                "duration": 0.10000000000000142,
                "tempo": 120.0
            },
            {
                "start_time": 12.654545454545454,
                "end_time": 12.790909090909091,
                "pitch": 48,
                "velocity": 80,
                "duration": 0.1363636363636367,
                "tempo": 120.0
            },
            {
                "start_time": 12.85681818181818,
                "end_time": 12.99090909090909,
                "pitch": 31,
                "velocity": 80,
                "duration": 0.1340909090909097,
                "tempo": 120.0
            },
            {
                "start_time": 13.059090909090909,
                "end_time": 13.193181818181818,
                "pitch": 43,
                "velocity": 80,
                "duration": 0.1340909090909097,
                "tempo": 120.0
            },
            {
                "start_time": 13.259090909090908,
                "end_time": 13.35681818181818,
                "pitch": 38,
                "velocity": 80,
                "duration": 0.09772727272727266,
                "tempo": 120.0
            },
            {
                "start_time": 13.454545454545453,
                "end_time": 13.586363636363636,
                "pitch": 31,
                "velocity": 80,
                "duration": 0.13181818181818272,
                "tempo": 120.0
            },
            {
                "start_time": 13.652272727272727,
                "end_time": 13.788636363636362,
                "pitch": 38,
                "velocity": 80,
                "duration": 0.1363636363636349,
                "tempo": 120.0
            },
            {
                "start_time": 13.85681818181818,
                "end_time": 13.993181818181817,
                "pitch": 43,
                "velocity": 80,
                "duration": 0.1363636363636367,
                "tempo": 120.0
            },
            {
                "start_time": 14.061363636363636,
                "end_time": 14.193181818181818,
                "pitch": 50,
                "velocity": 80,
                "duration": 0.13181818181818272,
                "tempo": 120.0
            },
            {
                "start_time": 14.259090909090908,
                "end_time": 14.388636363636364,
                "pitch": 43,
                "velocity": 80,
                "duration": 0.12954545454545574,
                "tempo": 120.0
            },
            {
                "start_time": 14.454545454545453,
                "end_time": 14.59090909090909,
                "pitch": 41,
                "velocity": 80,
                "duration": 0.1363636363636367,
                "tempo": 120.0
            },
            {
                "start_time": 14.659090909090908,
                "end_time": 14.795454545454545,
                "pitch": 40,
                "velocity": 80,
                "duration": 0.1363636363636367,
                "tempo": 120.0
            },
            {
                "start_time": 14.86590909090909,
                "end_time": 14.995454545454544,
                "pitch": 38,
                "velocity": 80,
                "duration": 0.12954545454545396,
                "tempo": 120.0
            },
            {
                "start_time": 15.061363636363636,
                "end_time": 15.19090909090909,
                "pitch": 36,
                "velocity": 80,
                "duration": 0.12954545454545396,
                "tempo": 120.0
            },
            {
                "start_time": 15.256818181818181,
                "end_time": 15.290909090909091,
                "pitch": 67,
                "velocity": 80,
                "duration": 0.03409090909091006,
                "tempo": 120.0
            },
            {
                "start_time": 15.306818181818182,
                "end_time": 15.359090909090908,
                "pitch": 67,
                "velocity": 80,
                "duration": 0.052272727272725916,
                "tempo": 120.0
            },
            {
                "start_time": 15.359090909090908,
                "end_time": 15.393181818181818,
                "pitch": 67,
                "velocity": 80,
                "duration": 0.03409090909091006,
                "tempo": 120.0
            },
            {
                "start_time": 15.411363636363635,
                "end_time": 15.461363636363636,
                "pitch": 67,
                "velocity": 80,
                "duration": 0.05000000000000071,
                "tempo": 120.0
            },
            {
                "start_time": 15.461363636363636,
                "end_time": 15.495454545454544,
                "pitch": 65,
                "velocity": 80,
                "duration": 0.034090909090908283,
                "tempo": 120.0
            },
            {
                "start_time": 15.513636363636364,
                "end_time": 15.56590909090909,
                "pitch": 65,
                "velocity": 80,
                "duration": 0.052272727272725916,
                "tempo": 120.0
            },
            {
                "start_time": 15.56590909090909,
                "end_time": 15.6,
                "pitch": 65,
                "velocity": 80,
                "duration": 0.03409090909091006,
                "tempo": 120.0
            },
            {
                "start_time": 15.61590909090909,
                "end_time": 15.668181818181818,
                "pitch": 65,
                "velocity": 80,
                "duration": 0.05227272727272769,
                "tempo": 120.0
            },
            {
                "start_time": 15.668181818181818,
                "end_time": 15.7,
                "pitch": 65,
                "velocity": 80,
                "duration": 0.0318181818181813,
                "tempo": 120.0
            },
            {
                "start_time": 15.71590909090909,
                "end_time": 15.76590909090909,
                "pitch": 64,
                "velocity": 80,
                "duration": 0.05000000000000071,
                "tempo": 120.0
            },
            {
                "start_time": 15.76590909090909,
                "end_time": 15.797727272727272,
                "pitch": 64,
                "velocity": 80,
                "duration": 0.0318181818181813,
                "tempo": 120.0
            },
            {
                "start_time": 15.813636363636363,
                "end_time": 15.863636363636363,
                "pitch": 64,
                "velocity": 80,
                "duration": 0.05000000000000071,
                "tempo": 120.0
            },
            {
                "start_time": 15.863636363636363,
                "end_time": 15.895454545454545,
                "pitch": 64,
                "velocity": 80,
                "duration": 0.0318181818181813,
                "tempo": 120.0
            },
            {
                "start_time": 15.913636363636362,
                "end_time": 15.961363636363636,
                "pitch": 62,
                "velocity": 80,
                "duration": 0.04772727272727373,
                "tempo": 120.0
            },
            {
                "start_time": 15.961363636363636,
                "end_time": 15.995454545454544,
                "pitch": 62,
                "velocity": 80,
                "duration": 0.034090909090908283,
                "tempo": 120.0
            },
            {
                "start_time": 16.011363636363637,
                "end_time": 16.05909090909091,
                "pitch": 62,
                "velocity": 80,
                "duration": 0.04772727272727195,
                "tempo": 120.0
            }
        ],
        "Electric Piano 1": [
            {
                "start_time": 0.0,
                "end_time": 0.39999999999999997,
                "pitch": 67,
                "velocity": 51,
                "duration": 0.39999999999999997,
                "tempo": 120.0
            },
            {
                "start_time": 0.39999999999999997,
                "end_time": 0.6045454545454545,
                "pitch": 75,
                "velocity": 51,
                "duration": 0.20454545454545453,
                "tempo": 120.0
            },
            {
                "start_time": 0.6045454545454545,
                "end_time": 0.7068181818181818,
                "pitch": 75,
                "velocity": 51,
                "duration": 0.10227272727272729,
                "tempo": 120.0
            },
            {
                "start_time": 0.8113636363636363,
                "end_time": 1.0113636363636362,
                "pitch": 67,
                "velocity": 51,
                "duration": 0.19999999999999996,
                "tempo": 120.0
            },
            {
                "start_time": 1.0113636363636362,
                "end_time": 1.4136363636363636,
                "pitch": 76,
                "velocity": 51,
                "duration": 0.40227272727272734,
                "tempo": 120.0
            },
            {
                "start_time": 1.4136363636363636,
                "end_time": 1.5136363636363637,
                "pitch": 76,
                "velocity": 51,
                "duration": 0.10000000000000009,
                "tempo": 120.0
            },
            {
                "start_time": 1.6136363636363635,
                "end_time": 1.7136363636363636,
                "pitch": 65,
                "velocity": 51,
                "duration": 0.10000000000000009,
                "tempo": 120.0
            },
            {
                "start_time": 1.815909090909091,
                "end_time": 1.9159090909090908,
                "pitch": 81,
                "velocity": 51,
                "duration": 0.09999999999999987,
                "tempo": 120.0
            },
            {
                "start_time": 2.0159090909090907,
                "end_time": 2.1159090909090907,
                "pitch": 82,
                "velocity": 51,
                "duration": 0.10000000000000009,
                "tempo": 120.0
            },
            {
                "start_time": 2.215909090909091,
                "end_time": 2.315909090909091,
                "pitch": 63,
                "velocity": 51,
                "duration": 0.10000000000000009,
                "tempo": 120.0
            },
            {
                "start_time": 2.415909090909091,
                "end_time": 2.5136363636363637,
                "pitch": 79,
                "velocity": 51,
                "duration": 0.09772727272727266,
                "tempo": 120.0
            },
            {
                "start_time": 2.6113636363636363,
                "end_time": 2.7113636363636364,
                "pitch": 81,
                "velocity": 51,
                "duration": 0.10000000000000009,
                "tempo": 120.0
            },
            {
                "start_time": 2.809090909090909,
                "end_time": 2.911363636363636,
                "pitch": 62,
                "velocity": 51,
                "duration": 0.10227272727272707,
                "tempo": 120.0
            },
            {
                "start_time": 3.0136363636363637,
                "end_time": 3.1159090909090907,
                "pitch": 77,
                "velocity": 51,
                "duration": 0.10227272727272707,
                "tempo": 120.0
            },
            {
                "start_time": 3.218181818181818,
                "end_time": 3.518181818181818,
                "pitch": 67,
                "velocity": 51,
                "duration": 0.30000000000000027,
                "tempo": 120.0
            },
            {
                "start_time": 3.618181818181818,
                "end_time": 3.818181818181818,
                "pitch": 75,
                "velocity": 51,
                "duration": 0.19999999999999973,
                "tempo": 120.0
            },
            {
                "start_time": 3.818181818181818,
                "end_time": 3.918181818181818,
                "pitch": 75,
                "velocity": 51,
                "duration": 0.10000000000000009,
                "tempo": 120.0
            },
            {
                "start_time": 4.018181818181818,
                "end_time": 4.218181818181818,
                "pitch": 67,
                "velocity": 51,
                "duration": 0.20000000000000018,
                "tempo": 120.0
            },
            {
                "start_time": 4.218181818181818,
                "end_time": 4.5204545454545455,
                "pitch": 76,
                "velocity": 51,
                "duration": 0.3022727272727277,
                "tempo": 120.0
            },
            {
                "start_time": 4.620454545454545,
                "end_time": 4.720454545454545,
                "pitch": 74,
                "velocity": 51,
                "duration": 0.09999999999999964,
                "tempo": 120.0
            },
            {
                "start_time": 4.822727272727272,
                "end_time": 4.922727272727273,
                "pitch": 65,
                "velocity": 51,
                "duration": 0.10000000000000053,
                "tempo": 120.0
            },
            {
                "start_time": 5.0227272727272725,
                "end_time": 5.122727272727272,
                "pitch": 67,
                "velocity": 51,
                "duration": 0.09999999999999964,
                "tempo": 120.0
            },
            {
                "start_time": 5.222727272727273,
                "end_time": 5.322727272727272,
                "pitch": 69,
                "velocity": 51,
                "duration": 0.09999999999999964,
                "tempo": 120.0
            },
            {
                "start_time": 5.422727272727273,
                "end_time": 5.5227272727272725,
                "pitch": 74,
                "velocity": 51,
                "duration": 0.09999999999999964,
                "tempo": 120.0
            },
            {
                "start_time": 5.625,
                "end_time": 5.725,
                "pitch": 82,
                "velocity": 51,
                "duration": 0.09999999999999964,
                "tempo": 120.0
            },
            {
                "start_time": 5.824999999999999,
                "end_time": 5.927272727272727,
                "pitch": 86,
                "velocity": 51,
                "duration": 0.10227272727272751,
                "tempo": 120.0
            },
            {
                "start_time": 6.027272727272727,
                "end_time": 6.127272727272727,
                "pitch": 89,
                "velocity": 51,
                "duration": 0.09999999999999964,
                "tempo": 120.0
            },
            {
                "start_time": 6.227272727272727,
                "end_time": 6.327272727272727,
                "pitch": 93,
                "velocity": 51,
                "duration": 0.10000000000000053,
                "tempo": 120.0
            },
            {
                "start_time": 6.427272727272727,
                "end_time": 6.527272727272727,
                "pitch": 67,
                "velocity": 51,
                "duration": 0.10000000000000053,
                "tempo": 120.0
            },
            {
                "start_time": 6.829545454545454,
                "end_time": 6.929545454545454,
                "pitch": 75,
                "velocity": 51,
                "duration": 0.09999999999999964,
                "tempo": 120.0
            },
            {
                "start_time": 7.029545454545454,
                "end_time": 7.129545454545454,
                "pitch": 74,
                "velocity": 51,
                "duration": 0.09999999999999964,
                "tempo": 120.0
            },
            {
                "start_time": 7.2295454545454545,
                "end_time": 7.329545454545454,
                "pitch": 67,
                "velocity": 51,
                "duration": 0.09999999999999964,
                "tempo": 120.0
            },
            {
                "start_time": 7.431818181818182,
                "end_time": 7.834090909090909,
                "pitch": 76,
                "velocity": 51,
                "duration": 0.40227272727272734,
                "tempo": 120.0
            },
            {
                "start_time": 7.834090909090909,
                "end_time": 7.934090909090909,
                "pitch": 76,
                "velocity": 51,
                "duration": 0.09999999999999964,
                "tempo": 120.0
            },
            {
                "start_time": 8.036363636363635,
                "end_time": 8.136363636363637,
                "pitch": 65,
                "velocity": 51,
                "duration": 0.10000000000000142,
                "tempo": 120.0
            },
            {
                "start_time": 8.236363636363636,
                "end_time": 8.336363636363636,
                "pitch": 81,
                "velocity": 51,
                "duration": 0.09999999999999964,
                "tempo": 120.0
            },
            {
                "start_time": 8.436363636363636,
                "end_time": 8.536363636363635,
                "pitch": 82,
                "velocity": 51,
                "duration": 0.09999999999999964,
                "tempo": 120.0
            },
            {
                "start_time": 8.636363636363637,
                "end_time": 8.736363636363636,
                "pitch": 63,
                "velocity": 51,
                "duration": 0.09999999999999964,
                "tempo": 120.0
            },
            {
                "start_time": 8.838636363636363,
                "end_time": 8.936363636363636,
                "pitch": 79,
                "velocity": 51,
                "duration": 0.09772727272727266,
                "tempo": 120.0
            },
            {
                "start_time": 9.034090909090908,
                "end_time": 9.131818181818181,
                "pitch": 81,
                "velocity": 51,
                "duration": 0.09772727272727266,
                "tempo": 120.0
            },
            {
                "start_time": 9.229545454545454,
                "end_time": 9.331818181818182,
                "pitch": 62,
                "velocity": 51,
                "duration": 0.1022727272727284,
                "tempo": 120.0
            },
            {
                "start_time": 9.434090909090909,
                "end_time": 9.538636363636364,
                "pitch": 77,
                "velocity": 51,
                "duration": 0.10454545454545539,
                "tempo": 120.0
            },
            {
                "start_time": 9.64090909090909,
                "end_time": 9.94090909090909,
                "pitch": 67,
                "velocity": 51,
                "duration": 0.29999999999999893,
                "tempo": 120.0
            },
            {
                "start_time": 10.040909090909091,
                "end_time": 10.243181818181817,
                "pitch": 75,
                "velocity": 51,
                "duration": 0.20227272727272627,
                "tempo": 120.0
            },
            {
                "start_time": 10.243181818181817,
                "end_time": 10.343181818181817,
                "pitch": 75,
                "velocity": 51,
                "duration": 0.09999999999999964,
                "tempo": 120.0
            },
            {
                "start_time": 10.443181818181818,
                "end_time": 10.645454545454545,
                "pitch": 67,
                "velocity": 51,
                "duration": 0.20227272727272627,
                "tempo": 120.0
            },
            {
                "start_time": 10.645454545454545,
                "end_time": 10.947727272727272,
                "pitch": 76,
                "velocity": 51,
                "duration": 0.3022727272727277,
                "tempo": 120.0
            },
            {
                "start_time": 11.047727272727272,
                "end_time": 11.147727272727272,
                "pitch": 74,
                "velocity": 51,
                "duration": 0.09999999999999964,
                "tempo": 120.0
            },
            {
                "start_time": 11.247727272727273,
                "end_time": 11.35,
                "pitch": 65,
                "velocity": 51,
                "duration": 0.10227272727272663,
                "tempo": 120.0
            },
            {
                "start_time": 11.45,
                "end_time": 11.549999999999999,
                "pitch": 67,
                "velocity": 51,
                "duration": 0.09999999999999964,
                "tempo": 120.0
            },
            {
                "start_time": 11.652272727272727,
                "end_time": 11.752272727272727,
                "pitch": 69,
                "velocity": 51,
                "duration": 0.09999999999999964,
                "tempo": 120.0
            },
            {
                "start_time": 11.852272727272727,
                "end_time": 11.952272727272726,
                "pitch": 74,
                "velocity": 51,
                "duration": 0.09999999999999964,
                "tempo": 120.0
            },
            {
                "start_time": 12.052272727272726,
                "end_time": 12.152272727272727,
                "pitch": 82,
                "velocity": 51,
                "duration": 0.10000000000000142,
                "tempo": 120.0
            },
            {
                "start_time": 12.252272727272727,
                "end_time": 12.354545454545454,
                "pitch": 86,
                "velocity": 51,
                "duration": 0.10227272727272663,
                "tempo": 120.0
            },
            {
                "start_time": 12.454545454545453,
                "end_time": 12.554545454545455,
                "pitch": 89,
                "velocity": 51,
                "duration": 0.10000000000000142,
                "tempo": 120.0
            },
            {
                "start_time": 12.654545454545454,
                "end_time": 12.756818181818181,
                "pitch": 93,
                "velocity": 51,
                "duration": 0.10227272727272663,
                "tempo": 120.0
            },
            {
                "start_time": 12.85681818181818,
                "end_time": 12.956818181818182,
                "pitch": 71,
                "velocity": 51,
                "duration": 0.10000000000000142,
                "tempo": 120.0
            },
            {
                "start_time": 13.059090909090909,
                "end_time": 13.159090909090908,
                "pitch": 72,
                "velocity": 51,
                "duration": 0.09999999999999964,
                "tempo": 120.0
            },
            {
                "start_time": 13.259090909090908,
                "end_time": 13.35681818181818,
                "pitch": 74,
                "velocity": 51,
                "duration": 0.09772727272727266,
                "tempo": 120.0
            },
            {
                "start_time": 13.454545454545453,
                "end_time": 13.652272727272727,
                "pitch": 67,
                "velocity": 51,
                "duration": 0.19772727272727408,
                "tempo": 120.0
            },
            {
                "start_time": 13.652272727272727,
                "end_time": 13.754545454545454,
                "pitch": 79,
                "velocity": 51,
                "duration": 0.10227272727272663,
                "tempo": 120.0
            },
            {
                "start_time": 13.85681818181818,
                "end_time": 14.061363636363636,
                "pitch": 77,
                "velocity": 51,
                "duration": 0.20454545454545503,
                "tempo": 120.0
            },
            {
                "start_time": 14.061363636363636,
                "end_time": 14.259090909090908,
                "pitch": 62,
                "velocity": 51,
                "duration": 0.1977272727272723,
                "tempo": 120.0
            },
            {
                "start_time": 14.259090909090908,
                "end_time": 14.454545454545453,
                "pitch": 62,
                "velocity": 51,
                "duration": 0.19545454545454533,
                "tempo": 120.0
            },
            {
                "start_time": 14.454545454545453,
                "end_time": 15.061363636363636,
                "pitch": 64,
                "velocity": 51,
                "duration": 0.6068181818181824,
                "tempo": 120.0
            },
            {
                "start_time": 15.061363636363636,
                "end_time": 15.256818181818181,
                "pitch": 65,
                "velocity": 51,
                "duration": 0.19545454545454533,
                "tempo": 120.0
            },
            {
                "start_time": 15.256818181818181,
                "end_time": 15.461363636363636,
                "pitch": 65,
                "velocity": 51,
                "duration": 0.20454545454545503,
                "tempo": 120.0
            },
            {
                "start_time": 15.668181818181818,
                "end_time": 16.05909090909091,
                "pitch": 67,
                "velocity": 51,
                "duration": 0.39090909090909065,
                "tempo": 120.0
            }
        ],
        "Electric Guitar (clean)": [
            {
                "start_time": 0.0,
                "end_time": 0.015909090909090907,
                "pitch": 45,
                "velocity": 4,
                "duration": 0.015909090909090907,
                "tempo": 120.0
            },
            {
                "start_time": 0.015909090909090907,
                "end_time": 0.23409090909090907,
                "pitch": 54,
                "velocity": 4,
                "duration": 0.21818181818181817,
                "tempo": 120.0
            },
            {
                "start_time": 0.23409090909090907,
                "end_time": 0.4340909090909091,
                "pitch": 38,
                "velocity": 4,
                "duration": 0.2,
                "tempo": 120.0
            },
            {
                "start_time": 0.4340909090909091,
                "end_time": 0.6386363636363636,
                "pitch": 45,
                "velocity": 4,
                "duration": 0.20454545454545447,
                "tempo": 120.0
            },
            {
                "start_time": 0.6386363636363636,
                "end_time": 1.0454545454545454,
                "pitch": 54,
                "velocity": 4,
                "duration": 0.40681818181818186,
                "tempo": 120.0
            },
            {
                "start_time": 1.0454545454545454,
                "end_time": 1.2477272727272726,
                "pitch": 38,
                "velocity": 4,
                "duration": 0.20227272727272716,
                "tempo": 120.0
            },
            {
                "start_time": 1.2477272727272726,
                "end_time": 1.4477272727272728,
                "pitch": 45,
                "velocity": 4,
                "duration": 0.20000000000000018,
                "tempo": 120.0
            },
            {
                "start_time": 1.4477272727272728,
                "end_time": 1.6477272727272727,
                "pitch": 54,
                "velocity": 4,
                "duration": 0.19999999999999996,
                "tempo": 120.0
            },
            {
                "start_time": 1.6477272727272727,
                "end_time": 1.8477272727272727,
                "pitch": 52,
                "velocity": 4,
                "duration": 0.19999999999999996,
                "tempo": 120.0
            },
            {
                "start_time": 1.8477272727272727,
                "end_time": 2.05,
                "pitch": 44,
                "velocity": 4,
                "duration": 0.20227272727272716,
                "tempo": 120.0
            },
            {
                "start_time": 2.05,
                "end_time": 2.25,
                "pitch": 54,
                "velocity": 4,
                "duration": 0.20000000000000018,
                "tempo": 120.0
            },
            {
                "start_time": 2.25,
                "end_time": 2.4499999999999997,
                "pitch": 44,
                "velocity": 4,
                "duration": 0.19999999999999973,
                "tempo": 120.0
            },
            {
                "start_time": 2.4499999999999997,
                "end_time": 2.6454545454545455,
                "pitch": 54,
                "velocity": 4,
                "duration": 0.19545454545454577,
                "tempo": 120.0
            },
            {
                "start_time": 2.6454545454545455,
                "end_time": 3.252272727272727,
                "pitch": 44,
                "velocity": 4,
                "duration": 0.6068181818181815,
                "tempo": 120.0
            },
            {
                "start_time": 3.252272727272727,
                "end_time": 3.452272727272727,
                "pitch": 54,
                "velocity": 4,
                "duration": 0.20000000000000018,
                "tempo": 120.0
            },
            {
                "start_time": 3.452272727272727,
                "end_time": 3.652272727272727,
                "pitch": 38,
                "velocity": 4,
                "duration": 0.19999999999999973,
                "tempo": 120.0
            },
            {
                "start_time": 3.652272727272727,
                "end_time": 3.768181818181818,
                "pitch": 45,
                "velocity": 4,
                "duration": 0.11590909090909118,
                "tempo": 120.0
            },
            {
                "start_time": 3.768181818181818,
                "end_time": 3.852272727272727,
                "pitch": 74,
                "velocity": 4,
                "duration": 0.084090909090909,
                "tempo": 120.0
            },
            {
                "start_time": 3.852272727272727,
                "end_time": 4.052272727272727,
                "pitch": 19,
                "velocity": 4,
                "duration": 0.19999999999999973,
                "tempo": 120.0
            },
            {
                "start_time": 4.052272727272727,
                "end_time": 4.252272727272727,
                "pitch": 18,
                "velocity": 4,
                "duration": 0.20000000000000018,
                "tempo": 120.0
            },
            {
                "start_time": 4.252272727272727,
                "end_time": 4.452272727272727,
                "pitch": 67,
                "velocity": 4,
                "duration": 0.20000000000000018,
                "tempo": 120.0
            },
            {
                "start_time": 4.452272727272727,
                "end_time": 4.654545454545454,
                "pitch": 74,
                "velocity": 4,
                "duration": 0.20227272727272716,
                "tempo": 120.0
            },
            {
                "start_time": 4.654545454545454,
                "end_time": 4.8545454545454545,
                "pitch": 19,
                "velocity": 4,
                "duration": 0.20000000000000018,
                "tempo": 120.0
            },
            {
                "start_time": 4.8545454545454545,
                "end_time": 5.054545454545455,
                "pitch": 18,
                "velocity": 4,
                "duration": 0.20000000000000018,
                "tempo": 120.0
            },
            {
                "start_time": 5.054545454545455,
                "end_time": 5.254545454545454,
                "pitch": 67,
                "velocity": 4,
                "duration": 0.1999999999999993,
                "tempo": 120.0
            },
            {
                "start_time": 5.254545454545454,
                "end_time": 5.456818181818181,
                "pitch": 74,
                "velocity": 4,
                "duration": 0.20227272727272716,
                "tempo": 120.0
            },
            {
                "start_time": 5.456818181818181,
                "end_time": 5.659090909090909,
                "pitch": 19,
                "velocity": 4,
                "duration": 0.20227272727272805,
                "tempo": 120.0
            },
            {
                "start_time": 5.659090909090909,
                "end_time": 5.8590909090909085,
                "pitch": 18,
                "velocity": 4,
                "duration": 0.1999999999999993,
                "tempo": 120.0
            },
            {
                "start_time": 5.8590909090909085,
                "end_time": 6.0613636363636365,
                "pitch": 67,
                "velocity": 4,
                "duration": 0.20227272727272805,
                "tempo": 120.0
            },
            {
                "start_time": 6.0613636363636365,
                "end_time": 6.261363636363636,
                "pitch": 74,
                "velocity": 4,
                "duration": 0.1999999999999993,
                "tempo": 120.0
            },
            {
                "start_time": 6.261363636363636,
                "end_time": 6.461363636363636,
                "pitch": 19,
                "velocity": 4,
                "duration": 0.20000000000000018,
                "tempo": 120.0
            },
            {
                "start_time": 6.461363636363636,
                "end_time": 6.661363636363636,
                "pitch": 18,
                "velocity": 4,
                "duration": 0.20000000000000018,
                "tempo": 120.0
            },
            {
                "start_time": 6.661363636363636,
                "end_time": 6.863636363636363,
                "pitch": 67,
                "velocity": 4,
                "duration": 0.20227272727272716,
                "tempo": 120.0
            },
            {
                "start_time": 6.863636363636363,
                "end_time": 7.0636363636363635,
                "pitch": 74,
                "velocity": 4,
                "duration": 0.20000000000000018,
                "tempo": 120.0
            },
            {
                "start_time": 7.0636363636363635,
                "end_time": 7.263636363636364,
                "pitch": 19,
                "velocity": 4,
                "duration": 0.20000000000000018,
                "tempo": 120.0
            },
            {
                "start_time": 7.263636363636364,
                "end_time": 7.465909090909091,
                "pitch": 18,
                "velocity": 4,
                "duration": 0.20227272727272716,
                "tempo": 120.0
            },
            {
                "start_time": 7.465909090909091,
                "end_time": 7.66590909090909,
                "pitch": 67,
                "velocity": 4,
                "duration": 0.1999999999999993,
                "tempo": 120.0
            },
            {
                "start_time": 7.66590909090909,
                "end_time": 7.868181818181818,
                "pitch": 74,
                "velocity": 4,
                "duration": 0.20227272727272805,
                "tempo": 120.0
            },
            {
                "start_time": 7.868181818181818,
                "end_time": 8.068181818181818,
                "pitch": 19,
                "velocity": 4,
                "duration": 0.20000000000000018,
                "tempo": 120.0
            },
            {
                "start_time": 8.068181818181818,
                "end_time": 8.268181818181818,
                "pitch": 17,
                "velocity": 4,
                "duration": 0.1999999999999993,
                "tempo": 120.0
            },
            {
                "start_time": 8.268181818181818,
                "end_time": 8.468181818181817,
                "pitch": 73,
                "velocity": 4,
                "duration": 0.1999999999999993,
                "tempo": 120.0
            },
            {
                "start_time": 8.468181818181817,
                "end_time": 8.670454545454545,
                "pitch": 17,
                "velocity": 4,
                "duration": 0.20227272727272805,
                "tempo": 120.0
            },
            {
                "start_time": 8.670454545454545,
                "end_time": 8.870454545454544,
                "pitch": 26,
                "velocity": 4,
                "duration": 0.1999999999999993,
                "tempo": 120.0
            },
            {
                "start_time": 8.870454545454544,
                "end_time": 9.06590909090909,
                "pitch": 34,
                "velocity": 4,
                "duration": 0.19545454545454533,
                "tempo": 120.0
            },
            {
                "start_time": 9.06590909090909,
                "end_time": 9.60681818181818,
                "pitch": 25,
                "velocity": 4,
                "duration": 0.540909090909091,
                "tempo": 120.0
            },
            {
                "start_time": 9.60681818181818,
                "end_time": 9.674999999999999,
                "pitch": 99,
                "velocity": 4,
                "duration": 0.06818181818181834,
                "tempo": 120.0
            },
            {
                "start_time": 9.674999999999999,
                "end_time": 9.875,
                "pitch": 12,
                "velocity": 4,
                "duration": 0.20000000000000107,
                "tempo": 120.0
            },
            {
                "start_time": 9.875,
                "end_time": 10.075,
                "pitch": 93,
                "velocity": 4,
                "duration": 0.1999999999999993,
                "tempo": 120.0
            },
            {
                "start_time": 10.075,
                "end_time": 10.275,
                "pitch": 102,
                "velocity": 4,
                "duration": 0.20000000000000107,
                "tempo": 120.0
            },
            {
                "start_time": 10.275,
                "end_time": 10.477272727272727,
                "pitch": 19,
                "velocity": 4,
                "duration": 0.20227272727272627,
                "tempo": 120.0
            },
            {
                "start_time": 10.477272727272727,
                "end_time": 10.677272727272726,
                "pitch": 18,
                "velocity": 4,
                "duration": 0.1999999999999993,
                "tempo": 120.0
            },
            {
                "start_time": 10.677272727272726,
                "end_time": 10.879545454545454,
                "pitch": 67,
                "velocity": 4,
                "duration": 0.20227272727272805,
                "tempo": 120.0
            },
            {
                "start_time": 10.879545454545454,
                "end_time": 11.081818181818182,
                "pitch": 74,
                "velocity": 4,
                "duration": 0.20227272727272805,
                "tempo": 120.0
            },
            {
                "start_time": 11.081818181818182,
                "end_time": 11.281818181818181,
                "pitch": 19,
                "velocity": 4,
                "duration": 0.1999999999999993,
                "tempo": 120.0
            },
            {
                "start_time": 11.281818181818181,
                "end_time": 11.48409090909091,
                "pitch": 18,
                "velocity": 4,
                "duration": 0.20227272727272805,
                "tempo": 120.0
            },
            {
                "start_time": 11.48409090909091,
                "end_time": 11.684090909090909,
                "pitch": 67,
                "velocity": 4,
                "duration": 0.1999999999999993,
                "tempo": 120.0
            },
            {
                "start_time": 11.684090909090909,
                "end_time": 11.784090909090908,
                "pitch": 74,
                "velocity": 4,
                "duration": 0.09999999999999964,
                "tempo": 120.0
            },
            {
                "start_time": 11.784090909090908,
                "end_time": 11.884090909090908,
                "pitch": 28,
                "velocity": 4,
                "duration": 0.09999999999999964,
                "tempo": 120.0
            },
            {
                "start_time": 11.884090909090908,
                "end_time": 12.220454545454546,
                "pitch": 37,
                "velocity": 4,
                "duration": 0.33636363636363775,
                "tempo": 120.0
            },
            {
                "start_time": 12.220454545454546,
                "end_time": 12.286363636363635,
                "pitch": 42,
                "velocity": 4,
                "duration": 0.06590909090908958,
                "tempo": 120.0
            },
            {
                "start_time": 12.286363636363635,
                "end_time": 12.488636363636363,
                "pitch": 27,
                "velocity": 4,
                "duration": 0.20227272727272805,
                "tempo": 120.0
            },
            {
                "start_time": 12.488636363636363,
                "end_time": 12.688636363636363,
                "pitch": 34,
                "velocity": 4,
                "duration": 0.1999999999999993,
                "tempo": 120.0
            },
            {
                "start_time": 12.688636363636363,
                "end_time": 12.706818181818182,
                "pitch": 43,
                "velocity": 4,
                "duration": 0.01818181818181941,
                "tempo": 120.0
            },
            {
                "start_time": 12.706818181818182,
                "end_time": 13.274999999999999,
                "pitch": 64,
                "velocity": 4,
                "duration": 0.5681818181818166,
                "tempo": 120.0
            },
            {
                "start_time": 13.274999999999999,
                "end_time": 13.309090909090909,
                "pitch": 54,
                "velocity": 4,
                "duration": 0.03409090909091006,
                "tempo": 120.0
            },
            {
                "start_time": 13.309090909090909,
                "end_time": 13.488636363636363,
                "pitch": 38,
                "velocity": 4,
                "duration": 0.17954545454545467,
                "tempo": 120.0
            },
            {
                "start_time": 13.488636363636363,
                "end_time": 14.079545454545453,
                "pitch": 46,
                "velocity": 4,
                "duration": 0.5909090909090899,
                "tempo": 120.0
            },
            {
                "start_time": 14.079545454545453,
                "end_time": 14.290909090909091,
                "pitch": 38,
                "velocity": 4,
                "duration": 0.21136363636363775,
                "tempo": 120.0
            },
            {
                "start_time": 14.290909090909091,
                "end_time": 14.881818181818181,
                "pitch": 46,
                "velocity": 4,
                "duration": 0.5909090909090899,
                "tempo": 120.0
            },
            {
                "start_time": 14.881818181818181,
                "end_time": 15.011363636363635,
                "pitch": 38,
                "velocity": 4,
                "duration": 0.12954545454545396,
                "tempo": 120.0
            },
            {
                "start_time": 15.011363636363635,
                "end_time": 15.093181818181817,
                "pitch": 26,
                "velocity": 4,
                "duration": 0.08181818181818201,
                "tempo": 120.0
            },
            {
                "start_time": 15.093181818181817,
                "end_time": 15.684090909090909,
                "pitch": 34,
                "velocity": 4,
                "duration": 0.5909090909090917,
                "tempo": 120.0
            },
            {
                "start_time": 15.684090909090909,
                "end_time": 15.895454545454545,
                "pitch": 26,
                "velocity": 4,
                "duration": 0.21136363636363598,
                "tempo": 120.0
            },
            {
                "start_time": 15.895454545454545,
                "end_time": 16.09318181818182,
                "pitch": 34,
                "velocity": 4,
                "duration": 0.19772727272727408,
                "tempo": 120.0
            },
            {
                "start_time": 16.09318181818182,
                "end_time": 16.26590909090909,
                "pitch": 30,
                "velocity": 4,
                "duration": 0.17272727272727195,
                "tempo": 120.0
            }
        ]
    }
}