{
    "track_id": "Ys (FM) - 16 - The Morning Grow",
    "mood": "happy",
    "instruments": {
        "Vibraphone": [
            {
                "start_time": 5.788636363636363,
                "end_time": 6.009090909090909,
                "pitch": 67,
                "velocity": 64,
                "duration": 0.22045454545454568,
                "tempo": 120.0
            },
            {
                "start_time": 6.029545454545454,
                "end_time": 6.25,
                "pitch": 71,
                "velocity": 64,
                "duration": 0.22045454545454568,
                "tempo": 120.0
            },
            {
                "start_time": 6.268181818181818,
                "end_time": 6.49090909090909,
                "pitch": 72,
                "velocity": 64,
                "duration": 0.22272727272727266,
                "tempo": 120.0
            },
            {
                "start_time": 6.511363636363636,
                "end_time": 6.7340909090909085,
                "pitch": 69,
                "velocity": 64,
                "duration": 0.22272727272727266,
                "tempo": 120.0
            },
            {
                "start_time": 6.754545454545454,
                "end_time": 6.977272727272727,
                "pitch": 66,
                "velocity": 64,
                "duration": 0.22272727272727266,
                "tempo": 120.0
            },
            {
                "start_time": 6.995454545454545,
                "end_time": 7.215909090909091,
                "pitch": 71,
                "velocity": 64,
                "duration": 0.22045454545454568,
                "tempo": 120.0
            },
            {
                "start_time": 7.236363636363636,
                "end_time": 7.456818181818181,
                "pitch": 67,
                "velocity": 64,
                "duration": 0.2204545454545448,
                "tempo": 120.0
            },
            {
                "start_time": 7.477272727272727,
                "end_time": 7.695454545454545,
                "pitch": 64,
                "velocity": 64,
                "duration": 0.2181818181818187,
                "tempo": 120.0
            },
            {
                "start_time": 7.715909090909091,
                "end_time": 7.936363636363636,
                "pitch": 69,
                "velocity": 64,
                "duration": 0.2204545454545448,
                "tempo": 120.0
            },
            {
                "start_time": 7.956818181818181,
                "end_time": 8.177272727272728,
                "pitch": 66,
                "velocity": 64,
                "duration": 0.22045454545454657,
                "tempo": 120.0
            },
            {
                "start_time": 8.195454545454545,
                "end_time": 8.415909090909091,
                "pitch": 62,
                "velocity": 64,
                "duration": 0.22045454545454568,
                "tempo": 120.0
            },
            {
                "start_time": 8.436363636363636,
                "end_time": 8.659090909090908,
                "pitch": 64,
                "velocity": 64,
                "duration": 0.22272727272727266,
                "tempo": 120.0
            },
            {
                "start_time": 8.679545454545455,
                "end_time": 8.9,
                "pitch": 67,
                "velocity": 64,
                "duration": 0.22045454545454568,
                "tempo": 120.0
            },
            {
                "start_time": 8.920454545454545,
                "end_time": 9.143181818181818,
                "pitch": 71,
                "velocity": 64,
                "duration": 0.22272727272727266,
                "tempo": 120.0
            },
            {
                "start_time": 9.163636363636364,
                "end_time": 9.384090909090908,
                "pitch": 72,
                "velocity": 64,
                "duration": 0.2204545454545439,
                "tempo": 120.0
            },
            {
                "start_time": 9.404545454545454,
                "end_time": 9.622727272727273,
                "pitch": 69,
                "velocity": 64,
                "duration": 0.2181818181818187,
                "tempo": 120.0
            },
            {
                "start_time": 9.643181818181818,
                "end_time": 9.863636363636363,
                "pitch": 66,
                "velocity": 64,
                "duration": 0.22045454545454568,
                "tempo": 120.0
            },
            {
                "start_time": 9.884090909090908,
                "end_time": 10.10681818181818,
                "pitch": 71,
                "velocity": 64,
                "duration": 0.22272727272727266,
                "tempo": 120.0
            },
            {
                "start_time": 10.127272727272727,
                "end_time": 10.347727272727273,
                "pitch": 67,
                "velocity": 64,
                "duration": 0.22045454545454568,
                "tempo": 120.0
            },
            {
                "start_time": 10.368181818181817,
                "end_time": 10.59090909090909,
                "pitch": 64,
                "velocity": 64,
                "duration": 0.22272727272727266,
                "tempo": 120.0
            },
            {
                "start_time": 10.611363636363636,
                "end_time": 10.831818181818182,
                "pitch": 69,
                "velocity": 64,
                "duration": 0.22045454545454568,
                "tempo": 120.0
            },
            {
                "start_time": 10.85,
                "end_time": 11.070454545454545,
                "pitch": 66,
                "velocity": 64,
                "duration": 0.22045454545454568,
                "tempo": 120.0
            },
            {
                "start_time": 11.09090909090909,
                "end_time": 11.311363636363636,
                "pitch": 62,
                "velocity": 64,
                "duration": 0.22045454545454568,
                "tempo": 120.0
            },
            {
                "start_time": 11.331818181818182,
                "end_time": 57.881818181818176,
                "pitch": 76,
                "velocity": 64,
                "duration": 46.55,
                "tempo": 120.0
            },
            {
                "start_time": 57.902272727272724,
                "end_time": 58.131818181818176,
                "pitch": 72,
                "velocity": 51,
                "duration": 0.22954545454545183,
                "tempo": 120.0
            },
            {
                "start_time": 58.152272727272724,
                "end_time": 58.381818181818176,
                "pitch": 67,
                "velocity": 51,
                "duration": 0.22954545454545183,
                "tempo": 120.0
            },
            {
                "start_time": 58.402272727272724,
                "end_time": 58.62045454545454,
                "pitch": 76,
                "velocity": 51,
                "duration": 0.2181818181818187,
                "tempo": 120.0
            },
            {
                "start_time": 58.63863636363636,
                "end_time": 58.85681818181818,
                "pitch": 72,
                "velocity": 51,
                "duration": 0.2181818181818187,
                "tempo": 120.0
            },
            {
                "start_time": 58.877272727272725,
                "end_time": 59.095454545454544,
                "pitch": 67,
                "velocity": 51,
                "duration": 0.2181818181818187,
                "tempo": 120.0
            },
            {
                "start_time": 59.11363636363636,
                "end_time": 59.34318181818182,
                "pitch": 74,
                "velocity": 51,
                "duration": 0.22954545454545894,
                "tempo": 120.0
            },
            {
                "start_time": 59.36363636363636,
                "end_time": 59.59318181818182,
                "pitch": 69,
                "velocity": 51,
                "duration": 0.22954545454545894,
                "tempo": 120.0
            },
            {
                "start_time": 59.61363636363636,
                "end_time": 59.84318181818182,
                "pitch": 66,
                "velocity": 51,
                "duration": 0.22954545454545894,
                "tempo": 120.0
            },
            {
                "start_time": 59.86363636363636,
                "end_time": 60.086363636363636,
                "pitch": 74,
                "velocity": 51,
                "duration": 0.22272727272727622,
                "tempo": 120.0
            },
            {
                "start_time": 60.10681818181818,
                "end_time": 60.32954545454545,
                "pitch": 69,
                "velocity": 51,
                "duration": 0.22272727272727622,
                "tempo": 120.0
            },
            {
                "start_time": 60.349999999999994,
                "end_time": 60.570454545454545,
                "pitch": 66,
                "velocity": 51,
                "duration": 0.220454545454551,
                "tempo": 120.0
            },
            {
                "start_time": 60.590909090909086,
                "end_time": 60.81136363636363,
                "pitch": 74,
                "velocity": 51,
                "duration": 0.2204545454545439,
                "tempo": 120.0
            },
            {
                "start_time": 60.83181818181818,
                "end_time": 61.05227272727272,
                "pitch": 71,
                "velocity": 51,
                "duration": 0.2204545454545439,
                "tempo": 120.0
            },
            {
                "start_time": 61.07272727272727,
                "end_time": 61.29090909090909,
                "pitch": 67,
                "velocity": 51,
                "duration": 0.2181818181818187,
                "tempo": 120.0
            },
            {
                "start_time": 61.31136363636363,
                "end_time": 61.52954545454545,
                "pitch": 74,
                "velocity": 51,
                "duration": 0.2181818181818187,
                "tempo": 120.0
            },
            {
                "start_time": 61.55,
                "end_time": 61.768181818181816,
                "pitch": 71,
                "velocity": 51,
                "duration": 0.2181818181818187,
                "tempo": 120.0
            },
            {
                "start_time": 61.78636363636363,
                "end_time": 62.00454545454545,
                "pitch": 67,
                "velocity": 51,
                "duration": 0.2181818181818187,
                "tempo": 120.0
            },
            {
                "start_time": 62.025,
                "end_time": 62.24772727272727,
                "pitch": 76,
                "velocity": 51,
                "duration": 0.2227272727272691,
                "tempo": 120.0
            },
            {
                "start_time": 62.268181818181816,
                "end_time": 62.49318181818182,
                "pitch": 71,
                "velocity": 51,
                "duration": 0.22500000000000142,
                "tempo": 120.0
            },
            {
                "start_time": 62.51363636363636,
                "end_time": 62.73863636363636,
                "pitch": 67,
                "velocity": 51,
                "duration": 0.22500000000000142,
                "tempo": 120.0
            },
            {
                "start_time": 62.75909090909091,
                "end_time": 62.97727272727273,
                "pitch": 76,
                "velocity": 51,
                "duration": 0.2181818181818187,
                "tempo": 120.0
            },
            {
                "start_time": 62.99545454545454,
                "end_time": 63.21363636363636,
                "pitch": 71,
                "velocity": 51,
                "duration": 0.2181818181818187,
                "tempo": 120.0
            },
            {
                "start_time": 63.23409090909091,
                "end_time": 63.45227272727272,
                "pitch": 67,
                "velocity": 51,
                "duration": 0.2181818181818116,
                "tempo": 120.0
            },
            {
                "start_time": 63.47272727272727,
                "end_time": 63.695454545454545,
                "pitch": 76,
                "velocity": 51,
                "duration": 0.22272727272727622,
                "tempo": 120.0
            },
            {
                "start_time": 63.715909090909086,
                "end_time": 63.94090909090909,
                "pitch": 72,
                "velocity": 51,
                "duration": 0.22500000000000142,
                "tempo": 120.0
            },
            {
                "start_time": 63.961363636363636,
                "end_time": 64.18636363636364,
                "pitch": 67,
                "velocity": 51,
                "duration": 0.22500000000000142,
                "tempo": 120.0
            },
            {
                "start_time": 64.20681818181818,
                "end_time": 64.42272727272727,
                "pitch": 76,
                "velocity": 51,
                "duration": 0.2159090909090935,
                "tempo": 120.0
            },
            {
                "start_time": 64.44318181818181,
                "end_time": 64.66136363636363,
                "pitch": 72,
                "velocity": 51,
                "duration": 0.2181818181818187,
                "tempo": 120.0
            },
            {
                "start_time": 64.68181818181817,
                "end_time": 64.89999999999999,
                "pitch": 67,
                "velocity": 51,
                "duration": 0.2181818181818187,
                "tempo": 120.0
            },
            {
                "start_time": 64.91818181818182,
                "end_time": 65.14318181818182,
                "pitch": 74,
                "velocity": 51,
                "duration": 0.22499999999999432,
                "tempo": 120.0
            },
            {
                "start_time": 65.16363636363636,
                "end_time": 65.38863636363637,
                "pitch": 69,
                "velocity": 51,
                "duration": 0.22500000000000853,
                "tempo": 120.0
            },
            {
                "start_time": 65.4090909090909,
                "end_time": 65.63181818181818,
                "pitch": 66,
                "velocity": 51,
                "duration": 0.2227272727272691,
                "tempo": 120.0
            },
            {
                "start_time": 65.65227272727273,
                "end_time": 65.875,
                "pitch": 74,
                "velocity": 51,
                "duration": 0.2227272727272691,
                "tempo": 120.0
            },
            {
                "start_time": 65.89545454545454,
                "end_time": 66.11818181818181,
                "pitch": 69,
                "velocity": 51,
                "duration": 0.2227272727272691,
                "tempo": 120.0
            },
            {
                "start_time": 66.13863636363637,
                "end_time": 66.36136363636363,
                "pitch": 66,
                "velocity": 51,
                "duration": 0.2227272727272691,
                "tempo": 120.0
            },
            {
                "start_time": 66.37954545454545,
                "end_time": 66.60227272727272,
                "pitch": 76,
                "velocity": 51,
                "duration": 0.2227272727272691,
                "tempo": 120.0
            },
            {
                "start_time": 66.62272727272727,
                "end_time": 66.84545454545454,
                "pitch": 71,
                "velocity": 51,
                "duration": 0.2227272727272691,
                "tempo": 120.0
            },
            {
                "start_time": 66.86590909090908,
                "end_time": 67.08863636363635,
                "pitch": 67,
                "velocity": 51,
                "duration": 0.2227272727272691,
                "tempo": 120.0
            },
            {
                "start_time": 67.10681818181818,
                "end_time": 67.325,
                "pitch": 76,
                "velocity": 51,
                "duration": 0.2181818181818187,
                "tempo": 120.0
            },
            {
                "start_time": 67.34545454545454,
                "end_time": 67.56363636363636,
                "pitch": 71,
                "velocity": 51,
                "duration": 0.2181818181818187,
                "tempo": 120.0
            },
            {
                "start_time": 67.5840909090909,
                "end_time": 67.8,
                "pitch": 67,
                "velocity": 51,
                "duration": 0.2159090909090935,
                "tempo": 120.0
            },
            {
                "start_time": 67.82045454545454,
                "end_time": 68.04545454545455,
                "pitch": 76,
                "velocity": 51,
                "duration": 0.22500000000000853,
                "tempo": 120.0
            },
            {
                "start_time": 68.06590909090909,
                "end_time": 68.29090909090908,
                "pitch": 71,
                "velocity": 51,
                "duration": 0.22499999999999432,
                "tempo": 120.0
            },
            {
                "start_time": 68.30909090909091,
                "end_time": 68.5340909090909,
                "pitch": 67,
                "velocity": 51,
                "duration": 0.22499999999999432,
                "tempo": 120.0
            },
            {
                "start_time": 68.55454545454545,
                "end_time": 68.77272727272727,
                "pitch": 76,
                "velocity": 51,
                "duration": 0.2181818181818187,
                "tempo": 120.0
            },
            {
                "start_time": 68.79318181818182,
                "end_time": 69.01136363636363,
                "pitch": 71,
                "velocity": 51,
                "duration": 0.2181818181818045,
                "tempo": 120.0
            },
            {
                "start_time": 69.02954545454546,
                "end_time": 69.24772727272727,
                "pitch": 67,
                "velocity": 51,
                "duration": 0.2181818181818187,
                "tempo": 120.0
            },
            {
                "start_time": 69.26818181818182,
                "end_time": 69.49318181818181,
                "pitch": 76,
                "velocity": 51,
                "duration": 0.22499999999999432,
                "tempo": 120.0
            },
            {
                "start_time": 69.51136363636363,
                "end_time": 69.73636363636363,
                "pitch": 72,
                "velocity": 51,
                "duration": 0.22500000000000853,
                "tempo": 120.0
            },
            {
                "start_time": 69.75681818181818,
                "end_time": 69.98181818181818,
                "pitch": 67,
                "velocity": 51,
                "duration": 0.22500000000000853,
                "tempo": 120.0
            },
            {
                "start_time": 70.00227272727273,
                "end_time": 70.22045454545454,
                "pitch": 76,
                "velocity": 51,
                "duration": 0.2181818181818187,
                "tempo": 120.0
            },
            {
                "start_time": 70.24090909090908,
                "end_time": 70.45681818181818,
                "pitch": 72,
                "velocity": 51,
                "duration": 0.2159090909090935,
                "tempo": 120.0
            },
            {
                "start_time": 70.47727272727272,
                "end_time": 70.69545454545454,
                "pitch": 67,
                "velocity": 51,
                "duration": 0.2181818181818187,
                "tempo": 120.0
            },
            {
                "start_time": 70.7159090909091,
                "end_time": 70.93863636363636,
                "pitch": 74,
                "velocity": 51,
                "duration": 0.2227272727272691,
                "tempo": 120.0
            },
            {
                "start_time": 70.9590909090909,
                "end_time": 71.18409090909091,
                "pitch": 69,
                "velocity": 51,
                "duration": 0.22500000000000853,
                "tempo": 120.0
            },
            {
                "start_time": 71.20454545454545,
                "end_time": 71.42954545454545,
                "pitch": 66,
                "velocity": 51,
                "duration": 0.22499999999999432,
                "tempo": 120.0
            },
            {
                "start_time": 71.45,
                "end_time": 71.67045454545455,
                "pitch": 74,
                "velocity": 51,
                "duration": 0.2204545454545439,
                "tempo": 120.0
            },
            {
                "start_time": 71.68863636363636,
                "end_time": 71.9090909090909,
                "pitch": 69,
                "velocity": 51,
                "duration": 0.2204545454545439,
                "tempo": 120.0
            },
            {
                "start_time": 71.92954545454545,
                "end_time": 72.14999999999999,
                "pitch": 66,
                "velocity": 51,
                "duration": 0.2204545454545439,
                "tempo": 120.0
            },
            {
                "start_time": 72.17045454545455,
                "end_time": 72.39090909090909,
                "pitch": 74,
                "velocity": 51,
                "duration": 0.2204545454545439,
                "tempo": 120.0
            },
            {
                "start_time": 72.41136363636363,
                "end_time": 72.6340909090909,
                "pitch": 71,
                "velocity": 51,
                "duration": 0.2227272727272691,
                "tempo": 120.0
            },
            {
                "start_time": 72.65454545454546,
                "end_time": 72.87727272727273,
                "pitch": 67,
                "velocity": 51,
                "duration": 0.2227272727272691,
                "tempo": 120.0
            },
            {
                "start_time": 72.89772727272727,
                "end_time": 73.11818181818181,
                "pitch": 74,
                "velocity": 51,
                "duration": 0.2204545454545439,
                "tempo": 120.0
            },
            {
                "start_time": 73.13863636363637,
                "end_time": 73.36136363636363,
                "pitch": 71,
                "velocity": 51,
                "duration": 0.2227272727272691,
                "tempo": 120.0
            },
            {
                "start_time": 73.38181818181818,
                "end_time": 73.60454545454544,
                "pitch": 67,
                "velocity": 51,
                "duration": 0.2227272727272691,
                "tempo": 120.0
            },
            {
                "start_time": 73.625,
                "end_time": 73.84545454545454,
                "pitch": 76,
                "velocity": 51,
                "duration": 0.2204545454545439,
                "tempo": 120.0
            },
            {
                "start_time": 73.86590909090908,
                "end_time": 74.08863636363635,
                "pitch": 71,
                "velocity": 51,
                "duration": 0.2227272727272691,
                "tempo": 120.0
            },
            {
                "start_time": 74.10909090909091,
                "end_time": 74.33181818181818,
                "pitch": 67,
                "velocity": 51,
                "duration": 0.2227272727272691,
                "tempo": 120.0
            },
            {
                "start_time": 74.35227272727272,
                "end_time": 74.57272727272726,
                "pitch": 76,
                "velocity": 51,
                "duration": 0.2204545454545439,
                "tempo": 120.0
            },
            {
                "start_time": 74.59318181818182,
                "end_time": 74.81590909090909,
                "pitch": 71,
                "velocity": 51,
                "duration": 0.2227272727272691,
                "tempo": 120.0
            },
            {
                "start_time": 74.83636363636363,
                "end_time": 75.05909090909091,
                "pitch": 67,
                "velocity": 51,
                "duration": 0.22272727272728332,
                "tempo": 120.0
            },
            {
                "start_time": 75.07954545454545,
                "end_time": 75.29772727272727,
                "pitch": 76,
                "velocity": 51,
                "duration": 0.2181818181818187,
                "tempo": 120.0
            },
            {
                "start_time": 75.31818181818181,
                "end_time": 75.53863636363636,
                "pitch": 72,
                "velocity": 51,
                "duration": 0.2204545454545439,
                "tempo": 120.0
            },
            {
                "start_time": 75.55909090909091,
                "end_time": 75.77954545454546,
                "pitch": 67,
                "velocity": 51,
                "duration": 0.2204545454545439,
                "tempo": 120.0
            },
            {
                "start_time": 75.79772727272727,
                "end_time": 76.01136363636363,
                "pitch": 76,
                "velocity": 51,
                "duration": 0.21363636363635408,
                "tempo": 120.0
            },
            {
                "start_time": 76.03181818181818,
                "end_time": 76.24545454545454,
                "pitch": 72,
                "velocity": 51,
                "duration": 0.21363636363635408,
                "tempo": 120.0
            },
            {
                "start_time": 76.26363636363637,
                "end_time": 76.47727272727272,
                "pitch": 67,
                "velocity": 51,
                "duration": 0.21363636363635408,
                "tempo": 120.0
            },
            {
                "start_time": 76.49772727272727,
                "end_time": 76.725,
                "pitch": 74,
                "velocity": 51,
                "duration": 0.22727272727271952,
                "tempo": 120.0
            },
            {
                "start_time": 76.74772727272727,
                "end_time": 76.975,
                "pitch": 69,
                "velocity": 51,
                "duration": 0.22727272727271952,
                "tempo": 120.0
            },
            {
                "start_time": 76.99772727272727,
                "end_time": 77.225,
                "pitch": 66,
                "velocity": 51,
                "duration": 0.22727272727271952,
                "tempo": 120.0
            },
            {
                "start_time": 77.24772727272727,
                "end_time": 77.46363636363635,
                "pitch": 74,
                "velocity": 51,
                "duration": 0.21590909090907928,
                "tempo": 120.0
            },
            {
                "start_time": 77.48409090909091,
                "end_time": 77.70227272727273,
                "pitch": 69,
                "velocity": 51,
                "duration": 0.2181818181818187,
                "tempo": 120.0
            },
            {
                "start_time": 77.72272727272727,
                "end_time": 77.93863636363636,
                "pitch": 66,
                "velocity": 51,
                "duration": 0.2159090909090935,
                "tempo": 120.0
            },
            {
                "start_time": 77.9590909090909,
                "end_time": 78.17954545454545,
                "pitch": 76,
                "velocity": 51,
                "duration": 0.2204545454545439,
                "tempo": 120.0
            },
            {
                "start_time": 78.2,
                "end_time": 78.42045454545455,
                "pitch": 71,
                "velocity": 51,
                "duration": 0.2204545454545439,
                "tempo": 120.0
            },
            {
                "start_time": 78.43636363636364,
                "end_time": 78.57954545454545,
                "pitch": 67,
                "velocity": 51,
                "duration": 0.14318181818181586,
                "tempo": 120.0
            },
            {
                "start_time": 78.59318181818182,
                "end_time": 78.73636363636363,
                "pitch": 71,
                "velocity": 51,
                "duration": 0.14318181818181586,
                "tempo": 120.0
            },
            {
                "start_time": 78.75,
                "end_time": 78.89772727272727,
                "pitch": 67,
                "velocity": 51,
                "duration": 0.14772727272726627,
                "tempo": 120.0
            },
            {
                "start_time": 78.91136363636363,
                "end_time": 79.05909090909091,
                "pitch": 64,
                "velocity": 51,
                "duration": 0.14772727272728048,
                "tempo": 120.0
            },
            {
                "start_time": 79.07045454545454,
                "end_time": 79.22272727272727,
                "pitch": 76,
                "velocity": 51,
                "duration": 0.1522727272727309,
                "tempo": 120.0
            },
            {
                "start_time": 79.23636363636363,
                "end_time": 79.38636363636363,
                "pitch": 71,
                "velocity": 51,
                "duration": 0.14999999999999147,
                "tempo": 120.0
            },
            {
                "start_time": 79.39999999999999,
                "end_time": 79.54318181818181,
                "pitch": 67,
                "velocity": 51,
                "duration": 0.14318181818181586,
                "tempo": 120.0
            },
            {
                "start_time": 79.55681818181817,
                "end_time": 79.7,
                "pitch": 71,
                "velocity": 51,
                "duration": 0.14318181818183007,
                "tempo": 120.0
            },
            {
                "start_time": 79.71363636363635,
                "end_time": 79.86136363636363,
                "pitch": 67,
                "velocity": 51,
                "duration": 0.14772727272728048,
                "tempo": 120.0
            },
            {
                "start_time": 79.875,
                "end_time": 80.02272727272727,
                "pitch": 64,
                "velocity": 51,
                "duration": 0.14772727272726627,
                "tempo": 120.0
            }
        ],
        "Trumpet": [
            {
                "start_time": 0.05227272727272727,
                "end_time": 12.831818181818182,
                "pitch": 59,
                "velocity": 51,
                "duration": 12.779545454545454,
                "tempo": 120.0
            },
            {
                "start_time": 12.852272727272727,
                "end_time": 14.277272727272727,
                "pitch": 57,
                "velocity": 51,
                "duration": 1.4250000000000007,
                "tempo": 120.0
            },
            {
                "start_time": 14.297727272727272,
                "end_time": 15.477272727272727,
                "pitch": 59,
                "velocity": 51,
                "duration": 1.1795454545454547,
                "tempo": 120.0
            },
            {
                "start_time": 15.497727272727271,
                "end_time": 15.718181818181817,
                "pitch": 55,
                "velocity": 51,
                "duration": 0.22045454545454568,
                "tempo": 120.0
            },
            {
                "start_time": 15.738636363636363,
                "end_time": 17.16590909090909,
                "pitch": 64,
                "velocity": 51,
                "duration": 1.427272727272726,
                "tempo": 120.0
            },
            {
                "start_time": 17.186363636363634,
                "end_time": 18.604545454545455,
                "pitch": 57,
                "velocity": 51,
                "duration": 1.4181818181818215,
                "tempo": 120.0
            },
            {
                "start_time": 18.625,
                "end_time": 20.045454545454543,
                "pitch": 59,
                "velocity": 51,
                "duration": 1.4204545454545432,
                "tempo": 120.0
            },
            {
                "start_time": 20.06590909090909,
                "end_time": 21.252272727272725,
                "pitch": 62,
                "velocity": 51,
                "duration": 1.1863636363636338,
                "tempo": 120.0
            },
            {
                "start_time": 21.272727272727273,
                "end_time": 21.493181818181817,
                "pitch": 57,
                "velocity": 51,
                "duration": 0.2204545454545439,
                "tempo": 120.0
            },
            {
                "start_time": 21.513636363636362,
                "end_time": 22.46363636363636,
                "pitch": 66,
                "velocity": 51,
                "duration": 0.9499999999999993,
                "tempo": 120.0
            },
            {
                "start_time": 22.48409090909091,
                "end_time": 22.704545454545453,
                "pitch": 64,
                "velocity": 51,
                "duration": 0.2204545454545439,
                "tempo": 120.0
            },
            {
                "start_time": 22.724999999999998,
                "end_time": 22.94772727272727,
                "pitch": 62,
                "velocity": 51,
                "duration": 0.22272727272727266,
                "tempo": 120.0
            },
            {
                "start_time": 22.96818181818182,
                "end_time": 25.84318181818182,
                "pitch": 64,
                "velocity": 51,
                "duration": 2.875,
                "tempo": 120.0
            },
            {
                "start_time": 25.863636363636363,
                "end_time": 27.29090909090909,
                "pitch": 66,
                "velocity": 51,
                "duration": 1.427272727272726,
                "tempo": 120.0
            },
            {
                "start_time": 27.30909090909091,
                "end_time": 28.736363636363635,
                "pitch": 67,
                "velocity": 51,
                "duration": 1.427272727272726,
                "tempo": 120.0
            },
            {
                "start_time": 28.75681818181818,
                "end_time": 30.190909090909088,
                "pitch": 67,
                "velocity": 51,
                "duration": 1.4340909090909086,
                "tempo": 120.0
            },
            {
                "start_time": 30.211363636363636,
                "end_time": 31.638636363636362,
                "pitch": 69,
                "velocity": 51,
                "duration": 1.427272727272726,
                "tempo": 120.0
            },
            {
                "start_time": 31.659090909090907,
                "end_time": 34.53409090909091,
                "pitch": 71,
                "velocity": 51,
                "duration": 2.875,
                "tempo": 120.0
            },
            {
                "start_time": 34.554545454545455,
                "end_time": 34.779545454545456,
                "pitch": 64,
                "velocity": 51,
                "duration": 0.22500000000000142,
                "tempo": 120.0
            },
            {
                "start_time": 34.8,
                "end_time": 35.02272727272727,
                "pitch": 66,
                "velocity": 51,
                "duration": 0.22272727272727622,
                "tempo": 120.0
            },
            {
                "start_time": 35.043181818181814,
                "end_time": 35.26590909090909,
                "pitch": 67,
                "velocity": 51,
                "duration": 0.22272727272727622,
                "tempo": 120.0
            },
            {
                "start_time": 35.28636363636363,
                "end_time": 35.50454545454545,
                "pitch": 66,
                "velocity": 51,
                "duration": 0.2181818181818187,
                "tempo": 120.0
            },
            {
                "start_time": 35.525,
                "end_time": 35.74090909090909,
                "pitch": 64,
                "velocity": 51,
                "duration": 0.2159090909090935,
                "tempo": 120.0
            },
            {
                "start_time": 35.76136363636363,
                "end_time": 35.98181818181818,
                "pitch": 62,
                "velocity": 51,
                "duration": 0.2204545454545439,
                "tempo": 120.0
            },
            {
                "start_time": 36.0,
                "end_time": 37.42045454545455,
                "pitch": 64,
                "velocity": 51,
                "duration": 1.4204545454545467,
                "tempo": 120.0
            },
            {
                "start_time": 37.44090909090909,
                "end_time": 37.663636363636364,
                "pitch": 64,
                "velocity": 51,
                "duration": 0.22272727272727622,
                "tempo": 120.0
            },
            {
                "start_time": 37.684090909090905,
                "end_time": 37.90681818181818,
                "pitch": 66,
                "velocity": 51,
                "duration": 0.22272727272727622,
                "tempo": 120.0
            },
            {
                "start_time": 37.925,
                "end_time": 38.14772727272727,
                "pitch": 67,
                "velocity": 51,
                "duration": 0.22272727272727622,
                "tempo": 120.0
            },
            {
                "start_time": 38.168181818181814,
                "end_time": 38.393181818181816,
                "pitch": 66,
                "velocity": 51,
                "duration": 0.22500000000000142,
                "tempo": 120.0
            },
            {
                "start_time": 38.413636363636364,
                "end_time": 38.63863636363636,
                "pitch": 64,
                "velocity": 51,
                "duration": 0.22499999999999432,
                "tempo": 120.0
            },
            {
                "start_time": 38.65909090909091,
                "end_time": 38.88181818181818,
                "pitch": 62,
                "velocity": 51,
                "duration": 0.22272727272727622,
                "tempo": 120.0
            },
            {
                "start_time": 38.9,
                "end_time": 39.595454545454544,
                "pitch": 64,
                "velocity": 51,
                "duration": 0.6954545454545453,
                "tempo": 120.0
            },
            {
                "start_time": 39.61590909090909,
                "end_time": 40.32272727272727,
                "pitch": 60,
                "velocity": 51,
                "duration": 0.7068181818181785,
                "tempo": 120.0
            },
            {
                "start_time": 40.34318181818182,
                "end_time": 40.56590909090909,
                "pitch": 62,
                "velocity": 51,
                "duration": 0.2227272727272691,
                "tempo": 120.0
            },
            {
                "start_time": 40.586363636363636,
                "end_time": 40.80681818181818,
                "pitch": 64,
                "velocity": 51,
                "duration": 0.2204545454545439,
                "tempo": 120.0
            },
            {
                "start_time": 40.82727272727273,
                "end_time": 41.05,
                "pitch": 66,
                "velocity": 51,
                "duration": 0.2227272727272691,
                "tempo": 120.0
            },
            {
                "start_time": 41.070454545454545,
                "end_time": 41.288636363636364,
                "pitch": 67,
                "velocity": 51,
                "duration": 0.2181818181818187,
                "tempo": 120.0
            },
            {
                "start_time": 41.309090909090905,
                "end_time": 41.52954545454545,
                "pitch": 69,
                "velocity": 51,
                "duration": 0.2204545454545439,
                "tempo": 120.0
            },
            {
                "start_time": 41.55,
                "end_time": 41.77045454545454,
                "pitch": 71,
                "velocity": 51,
                "duration": 0.2204545454545439,
                "tempo": 120.0
            },
            {
                "start_time": 41.79090909090909,
                "end_time": 42.01363636363636,
                "pitch": 72,
                "velocity": 51,
                "duration": 0.2227272727272691,
                "tempo": 120.0
            },
            {
                "start_time": 42.03181818181818,
                "end_time": 42.25454545454545,
                "pitch": 71,
                "velocity": 51,
                "duration": 0.2227272727272691,
                "tempo": 120.0
            },
            {
                "start_time": 42.275,
                "end_time": 42.49772727272727,
                "pitch": 69,
                "velocity": 51,
                "duration": 0.2227272727272691,
                "tempo": 120.0
            },
            {
                "start_time": 42.518181818181816,
                "end_time": 42.74090909090909,
                "pitch": 67,
                "velocity": 51,
                "duration": 0.22272727272727622,
                "tempo": 120.0
            },
            {
                "start_time": 42.75909090909091,
                "end_time": 42.98181818181818,
                "pitch": 66,
                "velocity": 51,
                "duration": 0.2227272727272691,
                "tempo": 120.0
            },
            {
                "start_time": 43.002272727272725,
                "end_time": 43.225,
                "pitch": 62,
                "velocity": 51,
                "duration": 0.22272727272727622,
                "tempo": 120.0
            },
            {
                "start_time": 43.24545454545454,
                "end_time": 43.95227272727273,
                "pitch": 64,
                "velocity": 51,
                "duration": 0.7068181818181856,
                "tempo": 120.0
            },
            {
                "start_time": 43.97272727272727,
                "end_time": 44.679545454545455,
                "pitch": 66,
                "velocity": 51,
                "duration": 0.7068181818181856,
                "tempo": 120.0
            },
            {
                "start_time": 44.69772727272727,
                "end_time": 45.4,
                "pitch": 67,
                "velocity": 51,
                "duration": 0.702272727272728,
                "tempo": 120.0
            },
            {
                "start_time": 45.42045454545455,
                "end_time": 46.127272727272725,
                "pitch": 69,
                "velocity": 51,
                "duration": 0.7068181818181785,
                "tempo": 120.0
            },
            {
                "start_time": 46.14772727272727,
                "end_time": 46.36818181818182,
                "pitch": 71,
                "velocity": 51,
                "duration": 0.2204545454545439,
                "tempo": 120.0
            },
            {
                "start_time": 46.38863636363636,
                "end_time": 46.611363636363635,
                "pitch": 64,
                "velocity": 51,
                "duration": 0.22272727272727622,
                "tempo": 120.0
            },
            {
                "start_time": 46.63181818181818,
                "end_time": 46.85454545454545,
                "pitch": 71,
                "velocity": 51,
                "duration": 0.2227272727272691,
                "tempo": 120.0
            },
            {
                "start_time": 46.875,
                "end_time": 48.30681818181818,
                "pitch": 64,
                "velocity": 51,
                "duration": 1.4318181818181799,
                "tempo": 120.0
            },
            {
                "start_time": 48.32727272727273,
                "end_time": 48.54772727272727,
                "pitch": 64,
                "velocity": 51,
                "duration": 0.2204545454545439,
                "tempo": 120.0
            },
            {
                "start_time": 48.56818181818181,
                "end_time": 48.788636363636364,
                "pitch": 67,
                "velocity": 51,
                "duration": 0.220454545454551,
                "tempo": 120.0
            },
            {
                "start_time": 48.80681818181818,
                "end_time": 49.027272727272724,
                "pitch": 69,
                "velocity": 51,
                "duration": 0.2204545454545439,
                "tempo": 120.0
            },
            {
                "start_time": 49.04772727272727,
                "end_time": 49.27045454545454,
                "pitch": 71,
                "velocity": 51,
                "duration": 0.2227272727272691,
                "tempo": 120.0
            },
            {
                "start_time": 49.29090909090909,
                "end_time": 49.51363636363636,
                "pitch": 64,
                "velocity": 51,
                "duration": 0.2227272727272691,
                "tempo": 120.0
            },
            {
                "start_time": 49.53409090909091,
                "end_time": 49.75454545454545,
                "pitch": 71,
                "velocity": 51,
                "duration": 0.2204545454545439,
                "tempo": 120.0
            },
            {
                "start_time": 49.775,
                "end_time": 51.215909090909086,
                "pitch": 64,
                "velocity": 51,
                "duration": 1.4409090909090878,
                "tempo": 120.0
            },
            {
                "start_time": 51.236363636363635,
                "end_time": 51.929545454545455,
                "pitch": 76,
                "velocity": 51,
                "duration": 0.6931818181818201,
                "tempo": 120.0
            },
            {
                "start_time": 51.949999999999996,
                "end_time": 53.377272727272725,
                "pitch": 74,
                "velocity": 51,
                "duration": 1.4272727272727295,
                "tempo": 120.0
            },
            {
                "start_time": 53.39772727272727,
                "end_time": 54.111363636363635,
                "pitch": 78,
                "velocity": 51,
                "duration": 0.7136363636363612,
                "tempo": 120.0
            },
            {
                "start_time": 54.12954545454545,
                "end_time": 54.824999999999996,
                "pitch": 81,
                "velocity": 51,
                "duration": 0.6954545454545453,
                "tempo": 120.0
            },
            {
                "start_time": 54.845454545454544,
                "end_time": 55.070454545454545,
                "pitch": 79,
                "velocity": 51,
                "duration": 0.22500000000000142,
                "tempo": 120.0
            },
            {
                "start_time": 55.090909090909086,
                "end_time": 55.31590909090909,
                "pitch": 78,
                "velocity": 51,
                "duration": 0.22500000000000142,
                "tempo": 120.0
            },
            {
                "start_time": 55.336363636363636,
                "end_time": 55.55681818181818,
                "pitch": 79,
                "velocity": 51,
                "duration": 0.2204545454545439,
                "tempo": 120.0
            },
            {
                "start_time": 55.574999999999996,
                "end_time": 57.71363636363636,
                "pitch": 76,
                "velocity": 51,
                "duration": 2.1386363636363654,
                "tempo": 120.0
            },
            {
                "start_time": 57.736363636363635,
                "end_time": 107.24545454545454,
                "pitch": 64,
                "velocity": 51,
                "duration": 49.5090909090909,
                "tempo": 120.0
            },
            {
                "start_time": 107.24545454545454,
                "end_time": 107.40454545454546,
                "pitch": 78,
                "velocity": 51,
                "duration": 0.15909090909092072,
                "tempo": 120.0
            },
            {
                "start_time": 107.40454545454546,
                "end_time": 107.56590909090909,
                "pitch": 79,
                "velocity": 51,
                "duration": 0.1613636363636317,
                "tempo": 120.0
            },
            {
                "start_time": 107.56590909090909,
                "end_time": 115.62272727272726,
                "pitch": 76,
                "velocity": 51,
                "duration": 8.056818181818173,
                "tempo": 120.0
            }
        ],
        "Clarinet": [
            {
                "start_time": 59.19772727272727,
                "end_time": 59.925,
                "pitch": 62,
                "velocity": 51,
                "duration": 0.7272727272727266,
                "tempo": 120.0
            },
            {
                "start_time": 59.945454545454545,
                "end_time": 60.168181818181814,
                "pitch": 57,
                "velocity": 51,
                "duration": 0.2227272727272691,
                "tempo": 120.0
            },
            {
                "start_time": 60.18636363636363,
                "end_time": 60.40909090909091,
                "pitch": 59,
                "velocity": 51,
                "duration": 0.22272727272727622,
                "tempo": 120.0
            },
            {
                "start_time": 60.429545454545455,
                "end_time": 60.652272727272724,
                "pitch": 60,
                "velocity": 51,
                "duration": 0.2227272727272691,
                "tempo": 120.0
            },
            {
                "start_time": 60.67272727272727,
                "end_time": 61.37045454545454,
                "pitch": 62,
                "velocity": 51,
                "duration": 0.6977272727272705,
                "tempo": 120.0
            },
            {
                "start_time": 61.39090909090909,
                "end_time": 62.086363636363636,
                "pitch": 60,
                "velocity": 51,
                "duration": 0.6954545454545453,
                "tempo": 120.0
            },
            {
                "start_time": 62.10681818181818,
                "end_time": 62.81818181818181,
                "pitch": 59,
                "velocity": 51,
                "duration": 0.711363636363636,
                "tempo": 120.0
            },
            {
                "start_time": 62.83863636363636,
                "end_time": 63.53181818181818,
                "pitch": 55,
                "velocity": 51,
                "duration": 0.6931818181818201,
                "tempo": 120.0
            },
            {
                "start_time": 63.55227272727272,
                "end_time": 64.97954545454544,
                "pitch": 64,
                "velocity": 51,
                "duration": 1.4272727272727224,
                "tempo": 120.0
            },
            {
                "start_time": 65.0,
                "end_time": 65.71363636363635,
                "pitch": 62,
                "velocity": 51,
                "duration": 0.7136363636363541,
                "tempo": 120.0
            },
            {
                "start_time": 65.73409090909091,
                "end_time": 66.44090909090909,
                "pitch": 66,
                "velocity": 51,
                "duration": 0.7068181818181785,
                "tempo": 120.0
            },
            {
                "start_time": 66.46136363636363,
                "end_time": 69.32954545454545,
                "pitch": 64,
                "velocity": 51,
                "duration": 2.8681818181818244,
                "tempo": 120.0
            },
            {
                "start_time": 69.35,
                "end_time": 70.77499999999999,
                "pitch": 64,
                "velocity": 51,
                "duration": 1.4249999999999972,
                "tempo": 120.0
            },
            {
                "start_time": 70.79545454545455,
                "end_time": 71.5090909090909,
                "pitch": 62,
                "velocity": 51,
                "duration": 0.7136363636363541,
                "tempo": 120.0
            },
            {
                "start_time": 71.52954545454546,
                "end_time": 71.75,
                "pitch": 57,
                "velocity": 51,
                "duration": 0.2204545454545439,
                "tempo": 120.0
            },
            {
                "start_time": 71.77045454545454,
                "end_time": 71.98863636363636,
                "pitch": 59,
                "velocity": 51,
                "duration": 0.2181818181818187,
                "tempo": 120.0
            },
            {
                "start_time": 72.0090909090909,
                "end_time": 72.22954545454544,
                "pitch": 60,
                "velocity": 51,
                "duration": 0.2204545454545439,
                "tempo": 120.0
            },
            {
                "start_time": 72.25,
                "end_time": 72.95681818181818,
                "pitch": 62,
                "velocity": 51,
                "duration": 0.7068181818181785,
                "tempo": 120.0
            },
            {
                "start_time": 72.97727272727272,
                "end_time": 73.68409090909091,
                "pitch": 60,
                "velocity": 51,
                "duration": 0.7068181818181927,
                "tempo": 120.0
            },
            {
                "start_time": 73.70454545454545,
                "end_time": 74.41136363636363,
                "pitch": 59,
                "velocity": 51,
                "duration": 0.7068181818181785,
                "tempo": 120.0
            },
            {
                "start_time": 74.43181818181817,
                "end_time": 75.13863636363637,
                "pitch": 55,
                "velocity": 51,
                "duration": 0.7068181818181927,
                "tempo": 120.0
            },
            {
                "start_time": 75.1590909090909,
                "end_time": 76.55909090909091,
                "pitch": 64,
                "velocity": 51,
                "duration": 1.4000000000000057,
                "tempo": 120.0
            },
            {
                "start_time": 76.57954545454545,
                "end_time": 78.02045454545454,
                "pitch": 66,
                "velocity": 51,
                "duration": 1.4409090909090878,
                "tempo": 120.0
            },
            {
                "start_time": 78.03863636363636,
                "end_time": 78.63181818181818,
                "pitch": 67,
                "velocity": 51,
                "duration": 0.5931818181818187,
                "tempo": 120.0
            },
            {
                "start_time": 78.64545454545454,
                "end_time": 79.11363636363636,
                "pitch": 66,
                "velocity": 51,
                "duration": 0.4681818181818187,
                "tempo": 120.0
            },
            {
                "start_time": 79.12727272727273,
                "end_time": 79.59545454545454,
                "pitch": 64,
                "velocity": 51,
                "duration": 0.4681818181818187,
                "tempo": 120.0
            },
            {
                "start_time": 79.60909090909091,
                "end_time": 80.075,
                "pitch": 62,
                "velocity": 51,
                "duration": 0.4659090909090935,
                "tempo": 120.0
            }
        ],
        "Oboe": [
            {
                "start_time": 81.05227272727272,
                "end_time": 81.52045454545454,
                "pitch": 66,
                "velocity": 51,
                "duration": 0.4681818181818187,
                "tempo": 120.0
            },
            {
                "start_time": 81.5340909090909,
                "end_time": 82.0090909090909,
                "pitch": 67,
                "velocity": 51,
                "duration": 0.4749999999999943,
                "tempo": 120.0
            },
            {
                "start_time": 82.02272727272727,
                "end_time": 82.97272727272727,
                "pitch": 62,
                "velocity": 51,
                "duration": 0.9500000000000028,
                "tempo": 120.0
            },
            {
                "start_time": 82.98636363636363,
                "end_time": 83.44772727272726,
                "pitch": 64,
                "velocity": 51,
                "duration": 0.46136363636362887,
                "tempo": 120.0
            },
            {
                "start_time": 83.46136363636363,
                "end_time": 83.9340909090909,
                "pitch": 62,
                "velocity": 51,
                "duration": 0.4727272727272691,
                "tempo": 120.0
            },
            {
                "start_time": 83.94772727272726,
                "end_time": 84.89999999999999,
                "pitch": 60,
                "velocity": 51,
                "duration": 0.952272727272728,
                "tempo": 120.0
            },
            {
                "start_time": 84.91136363636363,
                "end_time": 85.375,
                "pitch": 62,
                "velocity": 51,
                "duration": 0.4636363636363683,
                "tempo": 120.0
            },
            {
                "start_time": 85.38863636363637,
                "end_time": 85.86363636363636,
                "pitch": 64,
                "velocity": 51,
                "duration": 0.4749999999999943,
                "tempo": 120.0
            },
            {
                "start_time": 85.87727272727273,
                "end_time": 86.82727272727273,
                "pitch": 64,
                "velocity": 51,
                "duration": 0.9500000000000028,
                "tempo": 120.0
            },
            {
                "start_time": 86.8409090909091,
                "end_time": 87.78636363636363,
                "pitch": 63,
                "velocity": 51,
                "duration": 0.9454545454545382,
                "tempo": 120.0
            },
            {
                "start_time": 87.8,
                "end_time": 88.75681818181818,
                "pitch": 64,
                "velocity": 51,
                "duration": 0.9568181818181785,
                "tempo": 120.0
            },
            {
                "start_time": 88.77045454545454,
                "end_time": 89.23409090909091,
                "pitch": 66,
                "velocity": 51,
                "duration": 0.4636363636363683,
                "tempo": 120.0
            },
            {
                "start_time": 89.24772727272727,
                "end_time": 89.7159090909091,
                "pitch": 67,
                "velocity": 51,
                "duration": 0.4681818181818187,
                "tempo": 120.0
            },
            {
                "start_time": 89.72954545454544,
                "end_time": 90.6840909090909,
                "pitch": 66,
                "velocity": 51,
                "duration": 0.9545454545454533,
                "tempo": 120.0
            },
            {
                "start_time": 90.69772727272726,
                "end_time": 91.16363636363636,
                "pitch": 67,
                "velocity": 51,
                "duration": 0.4659090909090935,
                "tempo": 120.0
            },
            {
                "start_time": 91.175,
                "end_time": 91.64772727272727,
                "pitch": 69,
                "velocity": 51,
                "duration": 0.4727272727272691,
                "tempo": 120.0
            },
            {
                "start_time": 91.66136363636363,
                "end_time": 93.57499999999999,
                "pitch": 67,
                "velocity": 51,
                "duration": 1.913636363636357,
                "tempo": 120.0
            },
            {
                "start_time": 93.58863636363635,
                "end_time": 93.73636363636363,
                "pitch": 64,
                "velocity": 51,
                "duration": 0.14772727272728048,
                "tempo": 120.0
            },
            {
                "start_time": 93.75,
                "end_time": 93.89772727272727,
                "pitch": 66,
                "velocity": 51,
                "duration": 0.14772727272726627,
                "tempo": 120.0
            },
            {
                "start_time": 93.9090909090909,
                "end_time": 94.05454545454545,
                "pitch": 67,
                "velocity": 51,
                "duration": 0.14545454545454106,
                "tempo": 120.0
            },
            {
                "start_time": 94.06590909090909,
                "end_time": 94.21136363636363,
                "pitch": 66,
                "velocity": 51,
                "duration": 0.14545454545454106,
                "tempo": 120.0
            },
            {
                "start_time": 94.225,
                "end_time": 94.37272727272727,
                "pitch": 64,
                "velocity": 51,
                "duration": 0.14772727272728048,
                "tempo": 120.0
            },
            {
                "start_time": 94.38636363636363,
                "end_time": 94.5340909090909,
                "pitch": 62,
                "velocity": 51,
                "duration": 0.14772727272728048,
                "tempo": 120.0
            },
            {
                "start_time": 94.54772727272727,
                "end_time": 95.50227272727273,
                "pitch": 64,
                "velocity": 51,
                "duration": 0.9545454545454533,
                "tempo": 120.0
            },
            {
                "start_time": 95.51590909090909,
                "end_time": 95.6590909090909,
                "pitch": 64,
                "velocity": 51,
                "duration": 0.14318181818181586,
                "tempo": 120.0
            },
            {
                "start_time": 95.67272727272727,
                "end_time": 95.81818181818181,
                "pitch": 66,
                "velocity": 51,
                "duration": 0.14545454545454106,
                "tempo": 120.0
            },
            {
                "start_time": 95.83181818181818,
                "end_time": 95.97954545454544,
                "pitch": 67,
                "velocity": 51,
                "duration": 0.14772727272726627,
                "tempo": 120.0
            },
            {
                "start_time": 95.99318181818181,
                "end_time": 96.14090909090909,
                "pitch": 66,
                "velocity": 51,
                "duration": 0.14772727272728048,
                "tempo": 120.0
            },
            {
                "start_time": 96.15454545454546,
                "end_time": 96.3,
                "pitch": 64,
                "velocity": 51,
                "duration": 0.14545454545454106,
                "tempo": 120.0
            },
            {
                "start_time": 96.31363636363636,
                "end_time": 96.46136363636363,
                "pitch": 62,
                "velocity": 51,
                "duration": 0.14772727272726627,
                "tempo": 120.0
            },
            {
                "start_time": 96.475,
                "end_time": 96.94318181818181,
                "pitch": 64,
                "velocity": 51,
                "duration": 0.4681818181818187,
                "tempo": 120.0
            },
            {
                "start_time": 96.95454545454545,
                "end_time": 97.43181818181817,
                "pitch": 60,
                "velocity": 51,
                "duration": 0.4772727272727195,
                "tempo": 120.0
            },
            {
                "start_time": 97.44545454545454,
                "end_time": 97.59090909090908,
                "pitch": 62,
                "velocity": 51,
                "duration": 0.14545454545454106,
                "tempo": 120.0
            },
            {
                "start_time": 97.60454545454544,
                "end_time": 97.75,
                "pitch": 64,
                "velocity": 51,
                "duration": 0.14545454545455527,
                "tempo": 120.0
            },
            {
                "start_time": 97.76363636363637,
                "end_time": 97.90681818181818,
                "pitch": 66,
                "velocity": 51,
                "duration": 0.14318181818181586,
                "tempo": 120.0
            },
            {
                "start_time": 97.92045454545455,
                "end_time": 98.06590909090909,
                "pitch": 67,
                "velocity": 51,
                "duration": 0.14545454545454106,
                "tempo": 120.0
            },
            {
                "start_time": 98.07954545454545,
                "end_time": 98.22954545454544,
                "pitch": 69,
                "velocity": 51,
                "duration": 0.14999999999999147,
                "tempo": 120.0
            },
            {
                "start_time": 98.24318181818181,
                "end_time": 98.39318181818182,
                "pitch": 71,
                "velocity": 51,
                "duration": 0.15000000000000568,
                "tempo": 120.0
            },
            {
                "start_time": 98.40454545454546,
                "end_time": 98.55,
                "pitch": 72,
                "velocity": 51,
                "duration": 0.14545454545454106,
                "tempo": 120.0
            },
            {
                "start_time": 98.56136363636364,
                "end_time": 98.70681818181818,
                "pitch": 71,
                "velocity": 51,
                "duration": 0.14545454545454106,
                "tempo": 120.0
            },
            {
                "start_time": 98.72045454545454,
                "end_time": 98.86818181818181,
                "pitch": 69,
                "velocity": 51,
                "duration": 0.14772727272726627,
                "tempo": 120.0
            },
            {
                "start_time": 98.88181818181818,
                "end_time": 99.02954545454546,
                "pitch": 67,
                "velocity": 51,
                "duration": 0.14772727272728048,
                "tempo": 120.0
            },
            {
                "start_time": 99.04318181818181,
                "end_time": 99.19545454545454,
                "pitch": 66,
                "velocity": 51,
                "duration": 0.1522727272727309,
                "tempo": 120.0
            },
            {
                "start_time": 99.2090909090909,
                "end_time": 99.35909090909091,
                "pitch": 62,
                "velocity": 51,
                "duration": 0.15000000000000568,
                "tempo": 120.0
            },
            {
                "start_time": 99.37045454545454,
                "end_time": 99.83636363636363,
                "pitch": 64,
                "velocity": 51,
                "duration": 0.4659090909090935,
                "tempo": 120.0
            },
            {
                "start_time": 99.85,
                "end_time": 100.32272727272726,
                "pitch": 66,
                "velocity": 51,
                "duration": 0.4727272727272691,
                "tempo": 120.0
            },
            {
                "start_time": 100.33636363636363,
                "end_time": 100.8,
                "pitch": 67,
                "velocity": 51,
                "duration": 0.4636363636363683,
                "tempo": 120.0
            },
            {
                "start_time": 100.81363636363636,
                "end_time": 101.27954545454546,
                "pitch": 69,
                "velocity": 51,
                "duration": 0.4659090909090935,
                "tempo": 120.0
            },
            {
                "start_time": 101.29090909090908,
                "end_time": 101.43863636363636,
                "pitch": 71,
                "velocity": 51,
                "duration": 0.14772727272728048,
                "tempo": 120.0
            },
            {
                "start_time": 101.45227272727273,
                "end_time": 101.6,
                "pitch": 64,
                "velocity": 51,
                "duration": 0.14772727272726627,
                "tempo": 120.0
            },
            {
                "start_time": 101.61363636363636,
                "end_time": 101.76136363636363,
                "pitch": 71,
                "velocity": 51,
                "duration": 0.14772727272726627,
                "tempo": 120.0
            },
            {
                "start_time": 101.77272727272727,
                "end_time": 102.72727272727272,
                "pitch": 64,
                "velocity": 51,
                "duration": 0.9545454545454533,
                "tempo": 120.0
            },
            {
                "start_time": 102.74090909090908,
                "end_time": 102.8840909090909,
                "pitch": 64,
                "velocity": 51,
                "duration": 0.14318181818181586,
                "tempo": 120.0
            },
            {
                "start_time": 102.89772727272727,
                "end_time": 103.04545454545455,
                "pitch": 67,
                "velocity": 51,
                "duration": 0.14772727272728048,
                "tempo": 120.0
            },
            {
                "start_time": 103.0590909090909,
                "end_time": 103.20681818181818,
                "pitch": 69,
                "velocity": 51,
                "duration": 0.14772727272728048,
                "tempo": 120.0
            },
            {
                "start_time": 103.22045454545454,
                "end_time": 103.36590909090908,
                "pitch": 71,
                "velocity": 51,
                "duration": 0.14545454545454106,
                "tempo": 120.0
            },
            {
                "start_time": 103.37954545454545,
                "end_time": 103.52727272727272,
                "pitch": 64,
                "velocity": 51,
                "duration": 0.14772727272726627,
                "tempo": 120.0
            },
            {
                "start_time": 103.54090909090908,
                "end_time": 103.68863636363636,
                "pitch": 71,
                "velocity": 51,
                "duration": 0.14772727272728048,
                "tempo": 120.0
            },
            {
                "start_time": 103.70227272727273,
                "end_time": 104.65681818181818,
                "pitch": 64,
                "velocity": 51,
                "duration": 0.9545454545454533,
                "tempo": 120.0
            },
            {
                "start_time": 104.66818181818181,
                "end_time": 105.14090909090909,
                "pitch": 76,
                "velocity": 51,
                "duration": 0.4727272727272833,
                "tempo": 120.0
            },
            {
                "start_time": 105.15454545454546,
                "end_time": 106.10681818181817,
                "pitch": 74,
                "velocity": 51,
                "duration": 0.9522727272727138,
                "tempo": 120.0
            },
            {
                "start_time": 106.12045454545454,
                "end_time": 106.58863636363635,
                "pitch": 78,
                "velocity": 51,
                "duration": 0.4681818181818187,
                "tempo": 120.0
            },
            {
                "start_time": 106.60227272727272,
                "end_time": 107.07045454545454,
                "pitch": 81,
                "velocity": 51,
                "duration": 0.4681818181818187,
                "tempo": 120.0
            }
        ],
        "Church Organ": [
            {
                "start_time": 0.013636363636363636,
                "end_time": 2.627272727272727,
                "pitch": 40,
                "velocity": 80,
                "duration": 2.6136363636363633,
                "tempo": 120.0
            },
            {
                "start_time": 2.6477272727272725,
                "end_time": 5.529545454545454,
                "pitch": 40,
                "velocity": 80,
                "duration": 2.881818181818182,
                "tempo": 120.0
            }
        ],
        "Acoustic Guitar (nylon)": [
            {
                "start_time": 6.268181818181818,
                "end_time": 6.977272727272727,
                "pitch": 40,
                "velocity": 80,
                "duration": 0.709090909090909,
                "tempo": 120.0
            },
            {
                "start_time": 6.995454545454545,
                "end_time": 7.695454545454545,
                "pitch": 40,
                "velocity": 80,
                "duration": 0.7000000000000002,
                "tempo": 120.0
            },
            {
                "start_time": 7.715909090909091,
                "end_time": 8.415909090909091,
                "pitch": 40,
                "velocity": 80,
                "duration": 0.7000000000000002,
                "tempo": 120.0
            },
            {
                "start_time": 8.436363636363636,
                "end_time": 9.143181818181818,
                "pitch": 40,
                "velocity": 80,
                "duration": 0.706818181818182,
                "tempo": 120.0
            },
            {
                "start_time": 9.163636363636364,
                "end_time": 9.863636363636363,
                "pitch": 40,
                "velocity": 80,
                "duration": 0.6999999999999993,
                "tempo": 120.0
            },
            {
                "start_time": 9.884090909090908,
                "end_time": 10.59090909090909,
                "pitch": 40,
                "velocity": 80,
                "duration": 0.706818181818182,
                "tempo": 120.0
            },
            {
                "start_time": 10.611363636363636,
                "end_time": 11.311363636363636,
                "pitch": 40,
                "velocity": 80,
                "duration": 0.6999999999999993,
                "tempo": 120.0
            },
            {
                "start_time": 11.331818181818182,
                "end_time": 12.031818181818181,
                "pitch": 40,
                "velocity": 80,
                "duration": 0.6999999999999993,
                "tempo": 120.0
            },
            {
                "start_time": 12.049999999999999,
                "end_time": 12.75,
                "pitch": 40,
                "velocity": 80,
                "duration": 0.7000000000000011,
                "tempo": 120.0
            },
            {
                "start_time": 12.770454545454545,
                "end_time": 13.477272727272727,
                "pitch": 40,
                "velocity": 80,
                "duration": 0.706818181818182,
                "tempo": 120.0
            },
            {
                "start_time": 13.497727272727271,
                "end_time": 14.197727272727272,
                "pitch": 40,
                "velocity": 80,
                "duration": 0.7000000000000011,
                "tempo": 120.0
            },
            {
                "start_time": 14.218181818181817,
                "end_time": 14.918181818181818,
                "pitch": 40,
                "velocity": 80,
                "duration": 0.7000000000000011,
                "tempo": 120.0
            },
            {
                "start_time": 14.938636363636363,
                "end_time": 15.638636363636364,
                "pitch": 40,
                "velocity": 80,
                "duration": 0.7000000000000011,
                "tempo": 120.0
            },
            {
                "start_time": 15.659090909090908,
                "end_time": 16.35909090909091,
                "pitch": 40,
                "velocity": 80,
                "duration": 0.7000000000000011,
                "tempo": 120.0
            },
            {
                "start_time": 16.377272727272725,
                "end_time": 17.086363636363636,
                "pitch": 40,
                "velocity": 80,
                "duration": 0.7090909090909108,
                "tempo": 120.0
            },
            {
                "start_time": 17.104545454545455,
                "end_time": 17.804545454545455,
                "pitch": 38,
                "velocity": 80,
                "duration": 0.6999999999999993,
                "tempo": 120.0
            },
            {
                "start_time": 17.825,
                "end_time": 18.525,
                "pitch": 38,
                "velocity": 80,
                "duration": 0.6999999999999993,
                "tempo": 120.0
            },
            {
                "start_time": 18.545454545454543,
                "end_time": 19.245454545454546,
                "pitch": 38,
                "velocity": 80,
                "duration": 0.7000000000000028,
                "tempo": 120.0
            },
            {
                "start_time": 19.26590909090909,
                "end_time": 19.96590909090909,
                "pitch": 38,
                "velocity": 80,
                "duration": 0.6999999999999993,
                "tempo": 120.0
            },
            {
                "start_time": 19.986363636363635,
                "end_time": 20.693181818181817,
                "pitch": 38,
                "velocity": 80,
                "duration": 0.706818181818182,
                "tempo": 120.0
            },
            {
                "start_time": 20.71363636363636,
                "end_time": 21.413636363636364,
                "pitch": 38,
                "velocity": 80,
                "duration": 0.7000000000000028,
                "tempo": 120.0
            },
            {
                "start_time": 21.43181818181818,
                "end_time": 22.14090909090909,
                "pitch": 38,
                "velocity": 80,
                "duration": 0.7090909090909108,
                "tempo": 120.0
            },
            {
                "start_time": 22.159090909090907,
                "end_time": 22.868181818181817,
                "pitch": 38,
                "velocity": 80,
                "duration": 0.7090909090909108,
                "tempo": 120.0
            },
            {
                "start_time": 22.886363636363637,
                "end_time": 23.586363636363636,
                "pitch": 36,
                "velocity": 80,
                "duration": 0.6999999999999993,
                "tempo": 120.0
            },
            {
                "start_time": 23.60681818181818,
                "end_time": 24.313636363636363,
                "pitch": 36,
                "velocity": 80,
                "duration": 0.706818181818182,
                "tempo": 120.0
            },
            {
                "start_time": 24.334090909090907,
                "end_time": 25.034090909090907,
                "pitch": 36,
                "velocity": 80,
                "duration": 0.6999999999999993,
                "tempo": 120.0
            },
            {
                "start_time": 25.054545454545455,
                "end_time": 25.761363636363637,
                "pitch": 36,
                "velocity": 80,
                "duration": 0.706818181818182,
                "tempo": 120.0
            },
            {
                "start_time": 25.78181818181818,
                "end_time": 26.488636363636363,
                "pitch": 36,
                "velocity": 80,
                "duration": 0.706818181818182,
                "tempo": 120.0
            },
            {
                "start_time": 26.509090909090908,
                "end_time": 27.209090909090907,
                "pitch": 36,
                "velocity": 80,
                "duration": 0.6999999999999993,
                "tempo": 120.0
            },
            {
                "start_time": 27.229545454545452,
                "end_time": 27.936363636363634,
                "pitch": 36,
                "velocity": 80,
                "duration": 0.706818181818182,
                "tempo": 120.0
            },
            {
                "start_time": 27.956818181818182,
                "end_time": 28.65681818181818,
                "pitch": 36,
                "velocity": 80,
                "duration": 0.6999999999999993,
                "tempo": 120.0
            },
            {
                "start_time": 28.677272727272726,
                "end_time": 29.384090909090908,
                "pitch": 35,
                "velocity": 80,
                "duration": 0.706818181818182,
                "tempo": 120.0
            },
            {
                "start_time": 29.404545454545453,
                "end_time": 30.111363636363635,
                "pitch": 35,
                "velocity": 80,
                "duration": 0.706818181818182,
                "tempo": 120.0
            },
            {
                "start_time": 30.13181818181818,
                "end_time": 30.831818181818182,
                "pitch": 35,
                "velocity": 80,
                "duration": 0.7000000000000028,
                "tempo": 120.0
            },
            {
                "start_time": 30.849999999999998,
                "end_time": 31.55909090909091,
                "pitch": 35,
                "velocity": 80,
                "duration": 0.7090909090909108,
                "tempo": 120.0
            },
            {
                "start_time": 31.577272727272724,
                "end_time": 32.277272727272724,
                "pitch": 35,
                "velocity": 80,
                "duration": 0.6999999999999993,
                "tempo": 120.0
            },
            {
                "start_time": 32.29772727272727,
                "end_time": 33.00454545454545,
                "pitch": 35,
                "velocity": 80,
                "duration": 0.7068181818181785,
                "tempo": 120.0
            },
            {
                "start_time": 33.025,
                "end_time": 33.24772727272727,
                "pitch": 35,
                "velocity": 80,
                "duration": 0.2227272727272691,
                "tempo": 120.0
            },
            {
                "start_time": 33.268181818181816,
                "end_time": 33.49090909090909,
                "pitch": 35,
                "velocity": 80,
                "duration": 0.22272727272727622,
                "tempo": 120.0
            },
            {
                "start_time": 33.51136363636363,
                "end_time": 33.73181818181818,
                "pitch": 35,
                "velocity": 80,
                "duration": 0.2204545454545439,
                "tempo": 120.0
            },
            {
                "start_time": 33.752272727272725,
                "end_time": 33.97272727272727,
                "pitch": 35,
                "velocity": 80,
                "duration": 0.2204545454545439,
                "tempo": 120.0
            },
            {
                "start_time": 33.99318181818182,
                "end_time": 34.21363636363636,
                "pitch": 35,
                "velocity": 80,
                "duration": 0.2204545454545439,
                "tempo": 120.0
            },
            {
                "start_time": 34.23181818181818,
                "end_time": 34.45227272727273,
                "pitch": 35,
                "velocity": 80,
                "duration": 0.220454545454551,
                "tempo": 120.0
            },
            {
                "start_time": 34.47272727272727,
                "end_time": 34.69772727272727,
                "pitch": 40,
                "velocity": 80,
                "duration": 0.22500000000000142,
                "tempo": 120.0
            },
            {
                "start_time": 34.71818181818182,
                "end_time": 34.94090909090909,
                "pitch": 52,
                "velocity": 80,
                "duration": 0.2227272727272691,
                "tempo": 120.0
            },
            {
                "start_time": 34.961363636363636,
                "end_time": 35.18636363636364,
                "pitch": 40,
                "velocity": 80,
                "duration": 0.22500000000000142,
                "tempo": 120.0
            },
            {
                "start_time": 35.20681818181818,
                "end_time": 35.425,
                "pitch": 40,
                "velocity": 80,
                "duration": 0.2181818181818187,
                "tempo": 120.0
            },
            {
                "start_time": 35.445454545454545,
                "end_time": 35.663636363636364,
                "pitch": 52,
                "velocity": 80,
                "duration": 0.2181818181818187,
                "tempo": 120.0
            },
            {
                "start_time": 35.68181818181818,
                "end_time": 35.9,
                "pitch": 40,
                "velocity": 80,
                "duration": 0.2181818181818187,
                "tempo": 120.0
            },
            {
                "start_time": 35.92045454545455,
                "end_time": 36.143181818181816,
                "pitch": 40,
                "velocity": 80,
                "duration": 0.2227272727272691,
                "tempo": 120.0
            },
            {
                "start_time": 36.163636363636364,
                "end_time": 36.38409090909091,
                "pitch": 52,
                "velocity": 80,
                "duration": 0.2204545454545439,
                "tempo": 120.0
            },
            {
                "start_time": 36.404545454545456,
                "end_time": 36.627272727272725,
                "pitch": 40,
                "velocity": 80,
                "duration": 0.2227272727272691,
                "tempo": 120.0
            },
            {
                "start_time": 36.64772727272727,
                "end_time": 36.86590909090909,
                "pitch": 40,
                "velocity": 80,
                "duration": 0.2181818181818187,
                "tempo": 120.0
            },
            {
                "start_time": 36.88409090909091,
                "end_time": 37.10227272727273,
                "pitch": 52,
                "velocity": 80,
                "duration": 0.2181818181818187,
                "tempo": 120.0
            },
            {
                "start_time": 37.12272727272727,
                "end_time": 37.340909090909086,
                "pitch": 40,
                "velocity": 80,
                "duration": 0.2181818181818187,
                "tempo": 120.0
            },
            {
                "start_time": 37.361363636363635,
                "end_time": 37.58181818181818,
                "pitch": 36,
                "velocity": 80,
                "duration": 0.2204545454545439,
                "tempo": 120.0
            },
            {
                "start_time": 37.60227272727273,
                "end_time": 37.824999999999996,
                "pitch": 48,
                "velocity": 80,
                "duration": 0.2227272727272691,
                "tempo": 120.0
            },
            {
                "start_time": 37.845454545454544,
                "end_time": 38.06818181818181,
                "pitch": 36,
                "velocity": 80,
                "duration": 0.2227272727272691,
                "tempo": 120.0
            },
            {
                "start_time": 38.08863636363636,
                "end_time": 38.31136363636364,
                "pitch": 36,
                "velocity": 80,
                "duration": 0.22272727272727622,
                "tempo": 120.0
            },
            {
                "start_time": 38.33181818181818,
                "end_time": 38.55681818181818,
                "pitch": 48,
                "velocity": 80,
                "duration": 0.22500000000000142,
                "tempo": 120.0
            },
            {
                "start_time": 38.57727272727273,
                "end_time": 38.80227272727272,
                "pitch": 36,
                "velocity": 80,
                "duration": 0.22499999999999432,
                "tempo": 120.0
            },
            {
                "start_time": 38.82272727272727,
                "end_time": 39.038636363636364,
                "pitch": 36,
                "velocity": 80,
                "duration": 0.2159090909090935,
                "tempo": 120.0
            },
            {
                "start_time": 39.059090909090905,
                "end_time": 39.277272727272724,
                "pitch": 48,
                "velocity": 80,
                "duration": 0.2181818181818187,
                "tempo": 120.0
            },
            {
                "start_time": 39.29772727272727,
                "end_time": 39.51590909090909,
                "pitch": 36,
                "velocity": 80,
                "duration": 0.2181818181818187,
                "tempo": 120.0
            },
            {
                "start_time": 39.53409090909091,
                "end_time": 39.75681818181818,
                "pitch": 36,
                "velocity": 80,
                "duration": 0.22272727272727622,
                "tempo": 120.0
            },
            {
                "start_time": 39.777272727272724,
                "end_time": 40.0,
                "pitch": 48,
                "velocity": 80,
                "duration": 0.22272727272727622,
                "tempo": 120.0
            },
            {
                "start_time": 40.02045454545454,
                "end_time": 40.24318181818182,
                "pitch": 36,
                "velocity": 80,
                "duration": 0.22272727272727622,
                "tempo": 120.0
            },
            {
                "start_time": 40.26136363636363,
                "end_time": 40.48409090909091,
                "pitch": 38,
                "velocity": 80,
                "duration": 0.22272727272727622,
                "tempo": 120.0
            },
            {
                "start_time": 40.50454545454545,
                "end_time": 40.72727272727273,
                "pitch": 50,
                "velocity": 80,
                "duration": 0.22272727272727622,
                "tempo": 120.0
            },
            {
                "start_time": 40.74772727272727,
                "end_time": 40.970454545454544,
                "pitch": 38,
                "velocity": 80,
                "duration": 0.22272727272727622,
                "tempo": 120.0
            },
            {
                "start_time": 40.98863636363636,
                "end_time": 41.209090909090904,
                "pitch": 38,
                "velocity": 80,
                "duration": 0.2204545454545439,
                "tempo": 120.0
            },
            {
                "start_time": 41.22954545454545,
                "end_time": 41.449999999999996,
                "pitch": 50,
                "velocity": 80,
                "duration": 0.2204545454545439,
                "tempo": 120.0
            },
            {
                "start_time": 41.470454545454544,
                "end_time": 41.68863636363636,
                "pitch": 38,
                "velocity": 80,
                "duration": 0.2181818181818187,
                "tempo": 120.0
            },
            {
                "start_time": 41.709090909090904,
                "end_time": 41.93181818181818,
                "pitch": 38,
                "velocity": 80,
                "duration": 0.22272727272727622,
                "tempo": 120.0
            },
            {
                "start_time": 41.95227272727273,
                "end_time": 42.175,
                "pitch": 50,
                "velocity": 80,
                "duration": 0.2227272727272691,
                "tempo": 120.0
            },
            {
                "start_time": 42.195454545454545,
                "end_time": 42.41590909090909,
                "pitch": 38,
                "velocity": 80,
                "duration": 0.2204545454545439,
                "tempo": 120.0
            },
            {
                "start_time": 42.43636363636364,
                "end_time": 42.65909090909091,
                "pitch": 38,
                "velocity": 80,
                "duration": 0.2227272727272691,
                "tempo": 120.0
            },
            {
                "start_time": 42.679545454545455,
                "end_time": 42.902272727272724,
                "pitch": 50,
                "velocity": 80,
                "duration": 0.2227272727272691,
                "tempo": 120.0
            },
            {
                "start_time": 42.92272727272727,
                "end_time": 43.143181818181816,
                "pitch": 38,
                "velocity": 80,
                "duration": 0.2204545454545439,
                "tempo": 120.0
            },
            {
                "start_time": 43.163636363636364,
                "end_time": 43.38636363636363,
                "pitch": 40,
                "velocity": 80,
                "duration": 0.2227272727272691,
                "tempo": 120.0
            },
            {
                "start_time": 43.40681818181818,
                "end_time": 43.62954545454545,
                "pitch": 52,
                "velocity": 80,
                "duration": 0.2227272727272691,
                "tempo": 120.0
            },
            {
                "start_time": 43.65,
                "end_time": 43.87045454545454,
                "pitch": 40,
                "velocity": 80,
                "duration": 0.2204545454545439,
                "tempo": 120.0
            },
            {
                "start_time": 43.89090909090909,
                "end_time": 44.11363636363636,
                "pitch": 38,
                "velocity": 80,
                "duration": 0.2227272727272691,
                "tempo": 120.0
            },
            {
                "start_time": 44.13409090909091,
                "end_time": 44.35681818181818,
                "pitch": 50,
                "velocity": 80,
                "duration": 0.2227272727272691,
                "tempo": 120.0
            },
            {
                "start_time": 44.377272727272725,
                "end_time": 44.59772727272727,
                "pitch": 38,
                "velocity": 80,
                "duration": 0.2204545454545439,
                "tempo": 120.0
            },
            {
                "start_time": 44.61818181818182,
                "end_time": 44.83863636363636,
                "pitch": 36,
                "velocity": 80,
                "duration": 0.2204545454545439,
                "tempo": 120.0
            },
            {
                "start_time": 44.85909090909091,
                "end_time": 45.07954545454545,
                "pitch": 48,
                "velocity": 80,
                "duration": 0.2204545454545439,
                "tempo": 120.0
            },
            {
                "start_time": 45.09772727272727,
                "end_time": 45.31818181818181,
                "pitch": 36,
                "velocity": 80,
                "duration": 0.2204545454545439,
                "tempo": 120.0
            },
            {
                "start_time": 45.33863636363636,
                "end_time": 45.56136363636364,
                "pitch": 35,
                "velocity": 80,
                "duration": 0.22272727272727622,
                "tempo": 120.0
            },
            {
                "start_time": 45.58181818181818,
                "end_time": 45.80227272727272,
                "pitch": 47,
                "velocity": 80,
                "duration": 0.2204545454545439,
                "tempo": 120.0
            },
            {
                "start_time": 45.82272727272727,
                "end_time": 46.04545454545455,
                "pitch": 35,
                "velocity": 80,
                "duration": 0.22272727272727622,
                "tempo": 120.0
            },
            {
                "start_time": 46.06590909090909,
                "end_time": 46.288636363636364,
                "pitch": 40,
                "velocity": 80,
                "duration": 0.22272727272727622,
                "tempo": 120.0
            },
            {
                "start_time": 46.309090909090905,
                "end_time": 46.52954545454545,
                "pitch": 52,
                "velocity": 80,
                "duration": 0.2204545454545439,
                "tempo": 120.0
            },
            {
                "start_time": 46.55,
                "end_time": 46.77272727272727,
                "pitch": 40,
                "velocity": 80,
                "duration": 0.22272727272727622,
                "tempo": 120.0
            },
            {
                "start_time": 46.793181818181814,
                "end_time": 47.01590909090909,
                "pitch": 40,
                "velocity": 80,
                "duration": 0.22272727272727622,
                "tempo": 120.0
            },
            {
                "start_time": 47.03636363636363,
                "end_time": 47.25681818181818,
                "pitch": 52,
                "velocity": 80,
                "duration": 0.220454545454551,
                "tempo": 120.0
            },
            {
                "start_time": 47.277272727272724,
                "end_time": 47.5,
                "pitch": 40,
                "velocity": 80,
                "duration": 0.22272727272727622,
                "tempo": 120.0
            },
            {
                "start_time": 47.52045454545454,
                "end_time": 47.74318181818182,
                "pitch": 40,
                "velocity": 80,
                "duration": 0.22272727272727622,
                "tempo": 120.0
            },
            {
                "start_time": 47.76363636363636,
                "end_time": 47.98409090909091,
                "pitch": 52,
                "velocity": 80,
                "duration": 0.220454545454551,
                "tempo": 120.0
            },
            {
                "start_time": 48.00454545454545,
                "end_time": 48.22727272727273,
                "pitch": 40,
                "velocity": 80,
                "duration": 0.22272727272727622,
                "tempo": 120.0
            },
            {
                "start_time": 48.24772727272727,
                "end_time": 48.46818181818182,
                "pitch": 40,
                "velocity": 80,
                "duration": 0.220454545454551,
                "tempo": 120.0
            },
            {
                "start_time": 48.48863636363636,
                "end_time": 48.70681818181818,
                "pitch": 52,
                "velocity": 80,
                "duration": 0.2181818181818187,
                "tempo": 120.0
            },
            {
                "start_time": 48.72727272727273,
                "end_time": 48.94772727272727,
                "pitch": 40,
                "velocity": 80,
                "duration": 0.2204545454545439,
                "tempo": 120.0
            },
            {
                "start_time": 48.96818181818182,
                "end_time": 49.19090909090909,
                "pitch": 36,
                "velocity": 80,
                "duration": 0.2227272727272691,
                "tempo": 120.0
            },
            {
                "start_time": 49.209090909090904,
                "end_time": 49.43181818181818,
                "pitch": 48,
                "velocity": 80,
                "duration": 0.22272727272727622,
                "tempo": 120.0
            },
            {
                "start_time": 49.45227272727273,
                "end_time": 49.675,
                "pitch": 36,
                "velocity": 80,
                "duration": 0.2227272727272691,
                "tempo": 120.0
            },
            {
                "start_time": 49.695454545454545,
                "end_time": 49.918181818181814,
                "pitch": 36,
                "velocity": 80,
                "duration": 0.2227272727272691,
                "tempo": 120.0
            },
            {
                "start_time": 49.93636363636364,
                "end_time": 50.15909090909091,
                "pitch": 48,
                "velocity": 80,
                "duration": 0.2227272727272691,
                "tempo": 120.0
            },
            {
                "start_time": 50.179545454545455,
                "end_time": 50.402272727272724,
                "pitch": 36,
                "velocity": 80,
                "duration": 0.2227272727272691,
                "tempo": 120.0
            },
            {
                "start_time": 50.42272727272727,
                "end_time": 50.64772727272727,
                "pitch": 36,
                "velocity": 80,
                "duration": 0.22500000000000142,
                "tempo": 120.0
            },
            {
                "start_time": 50.668181818181814,
                "end_time": 50.89090909090909,
                "pitch": 48,
                "velocity": 80,
                "duration": 0.22272727272727622,
                "tempo": 120.0
            },
            {
                "start_time": 50.91136363636363,
                "end_time": 51.13636363636363,
                "pitch": 36,
                "velocity": 80,
                "duration": 0.22500000000000142,
                "tempo": 120.0
            },
            {
                "start_time": 51.15681818181818,
                "end_time": 51.375,
                "pitch": 36,
                "velocity": 80,
                "duration": 0.2181818181818187,
                "tempo": 120.0
            },
            {
                "start_time": 51.393181818181816,
                "end_time": 51.611363636363635,
                "pitch": 48,
                "velocity": 80,
                "duration": 0.2181818181818187,
                "tempo": 120.0
            },
            {
                "start_time": 51.63181818181818,
                "end_time": 51.849999999999994,
                "pitch": 36,
                "velocity": 80,
                "duration": 0.2181818181818116,
                "tempo": 120.0
            },
            {
                "start_time": 51.87045454545454,
                "end_time": 52.08863636363636,
                "pitch": 38,
                "velocity": 80,
                "duration": 0.2181818181818187,
                "tempo": 120.0
            },
            {
                "start_time": 52.10909090909091,
                "end_time": 52.32954545454545,
                "pitch": 50,
                "velocity": 80,
                "duration": 0.2204545454545439,
                "tempo": 120.0
            },
            {
                "start_time": 52.349999999999994,
                "end_time": 52.570454545454545,
                "pitch": 38,
                "velocity": 80,
                "duration": 0.220454545454551,
                "tempo": 120.0
            },
            {
                "start_time": 52.58863636363636,
                "end_time": 52.81136363636363,
                "pitch": 38,
                "velocity": 80,
                "duration": 0.2227272727272691,
                "tempo": 120.0
            },
            {
                "start_time": 52.83181818181818,
                "end_time": 53.054545454545455,
                "pitch": 50,
                "velocity": 80,
                "duration": 0.22272727272727622,
                "tempo": 120.0
            },
            {
                "start_time": 53.074999999999996,
                "end_time": 53.29772727272727,
                "pitch": 38,
                "velocity": 80,
                "duration": 0.22272727272727622,
                "tempo": 120.0
            },
            {
                "start_time": 53.31590909090909,
                "end_time": 53.54090909090909,
                "pitch": 38,
                "velocity": 80,
                "duration": 0.22500000000000142,
                "tempo": 120.0
            },
            {
                "start_time": 53.56136363636363,
                "end_time": 53.78636363636363,
                "pitch": 50,
                "velocity": 80,
                "duration": 0.22500000000000142,
                "tempo": 120.0
            },
            {
                "start_time": 53.80681818181818,
                "end_time": 54.03181818181818,
                "pitch": 38,
                "velocity": 80,
                "duration": 0.22500000000000142,
                "tempo": 120.0
            },
            {
                "start_time": 54.05227272727272,
                "end_time": 54.268181818181816,
                "pitch": 38,
                "velocity": 80,
                "duration": 0.2159090909090935,
                "tempo": 120.0
            },
            {
                "start_time": 54.288636363636364,
                "end_time": 54.50681818181818,
                "pitch": 50,
                "velocity": 80,
                "duration": 0.2181818181818187,
                "tempo": 120.0
            },
            {
                "start_time": 54.527272727272724,
                "end_time": 54.74545454545454,
                "pitch": 38,
                "velocity": 80,
                "duration": 0.2181818181818187,
                "tempo": 120.0
            },
            {
                "start_time": 54.76363636363636,
                "end_time": 57.631818181818176,
                "pitch": 40,
                "velocity": 80,
                "duration": 2.8681818181818173,
                "tempo": 120.0
            },
            {
                "start_time": 57.652272727272724,
                "end_time": 59.095454545454544,
                "pitch": 36,
                "velocity": 80,
                "duration": 1.4431818181818201,
                "tempo": 120.0
            },
            {
                "start_time": 59.11363636363636,
                "end_time": 60.570454545454545,
                "pitch": 38,
                "velocity": 80,
                "duration": 1.4568181818181856,
                "tempo": 120.0
            },
            {
                "start_time": 60.590909090909086,
                "end_time": 62.00454545454545,
                "pitch": 40,
                "velocity": 80,
                "duration": 1.413636363636364,
                "tempo": 120.0
            },
            {
                "start_time": 62.025,
                "end_time": 63.45227272727272,
                "pitch": 40,
                "velocity": 80,
                "duration": 1.4272727272727224,
                "tempo": 120.0
            },
            {
                "start_time": 63.47272727272727,
                "end_time": 64.89999999999999,
                "pitch": 36,
                "velocity": 80,
                "duration": 1.4272727272727224,
                "tempo": 120.0
            },
            {
                "start_time": 64.91818181818182,
                "end_time": 66.36136363636363,
                "pitch": 38,
                "velocity": 80,
                "duration": 1.443181818181813,
                "tempo": 120.0
            },
            {
                "start_time": 66.37954545454545,
                "end_time": 68.5340909090909,
                "pitch": 40,
                "velocity": 80,
                "duration": 2.154545454545456,
                "tempo": 120.0
            },
            {
                "start_time": 68.55454545454545,
                "end_time": 69.24772727272727,
                "pitch": 38,
                "velocity": 80,
                "duration": 0.6931818181818272,
                "tempo": 120.0
            },
            {
                "start_time": 69.26818181818182,
                "end_time": 70.69545454545454,
                "pitch": 36,
                "velocity": 80,
                "duration": 1.4272727272727224,
                "tempo": 120.0
            },
            {
                "start_time": 70.7159090909091,
                "end_time": 72.14999999999999,
                "pitch": 38,
                "velocity": 80,
                "duration": 1.434090909090898,
                "tempo": 120.0
            },
            {
                "start_time": 72.17045454545455,
                "end_time": 73.60454545454544,
                "pitch": 43,
                "velocity": 80,
                "duration": 1.434090909090898,
                "tempo": 120.0
            },
            {
                "start_time": 73.625,
                "end_time": 75.05909090909091,
                "pitch": 40,
                "velocity": 80,
                "duration": 1.4340909090909122,
                "tempo": 120.0
            },
            {
                "start_time": 75.07954545454545,
                "end_time": 76.47727272727272,
                "pitch": 36,
                "velocity": 80,
                "duration": 1.3977272727272663,
                "tempo": 120.0
            },
            {
                "start_time": 76.49772727272727,
                "end_time": 77.93863636363636,
                "pitch": 38,
                "velocity": 80,
                "duration": 1.4409090909090878,
                "tempo": 120.0
            },
            {
                "start_time": 77.9590909090909,
                "end_time": 78.17954545454545,
                "pitch": 40,
                "velocity": 80,
                "duration": 0.2204545454545439,
                "tempo": 120.0
            },
            {
                "start_time": 78.2,
                "end_time": 78.42045454545455,
                "pitch": 40,
                "velocity": 80,
                "duration": 0.2204545454545439,
                "tempo": 120.0
            },
            {
                "start_time": 78.43636363636364,
                "end_time": 78.57954545454545,
                "pitch": 40,
                "velocity": 80,
                "duration": 0.14318181818181586,
                "tempo": 120.0
            },
            {
                "start_time": 78.59318181818182,
                "end_time": 78.73636363636363,
                "pitch": 40,
                "velocity": 80,
                "duration": 0.14318181818181586,
                "tempo": 120.0
            },
            {
                "start_time": 78.75,
                "end_time": 78.89772727272727,
                "pitch": 40,
                "velocity": 80,
                "duration": 0.14772727272726627,
                "tempo": 120.0
            },
            {
                "start_time": 78.91136363636363,
                "end_time": 79.05909090909091,
                "pitch": 40,
                "velocity": 80,
                "duration": 0.14772727272728048,
                "tempo": 120.0
            },
            {
                "start_time": 79.07045454545454,
                "end_time": 79.22272727272727,
                "pitch": 40,
                "velocity": 80,
                "duration": 0.1522727272727309,
                "tempo": 120.0
            },
            {
                "start_time": 79.23636363636363,
                "end_time": 79.38636363636363,
                "pitch": 40,
                "velocity": 80,
                "duration": 0.14999999999999147,
                "tempo": 120.0
            },
            {
                "start_time": 79.39999999999999,
                "end_time": 79.54318181818181,
                "pitch": 40,
                "velocity": 80,
                "duration": 0.14318181818181586,
                "tempo": 120.0
            },
            {
                "start_time": 79.55681818181817,
                "end_time": 79.7,
                "pitch": 40,
                "velocity": 80,
                "duration": 0.14318181818183007,
                "tempo": 120.0
            },
            {
                "start_time": 79.71363636363635,
                "end_time": 79.86136363636363,
                "pitch": 40,
                "velocity": 80,
                "duration": 0.14772727272728048,
                "tempo": 120.0
            },
            {
                "start_time": 79.875,
                "end_time": 80.02272727272727,
                "pitch": 40,
                "velocity": 80,
                "duration": 0.14772727272726627,
                "tempo": 120.0
            },
            {
                "start_time": 80.03636363636363,
                "end_time": 80.18181818181817,
                "pitch": 36,
                "velocity": 80,
                "duration": 0.14545454545454106,
                "tempo": 120.0
            },
            {
                "start_time": 80.19545454545454,
                "end_time": 80.34318181818182,
                "pitch": 48,
                "velocity": 80,
                "duration": 0.14772727272728048,
                "tempo": 120.0
            },
            {
                "start_time": 80.35681818181818,
                "end_time": 80.50454545454545,
                "pitch": 36,
                "velocity": 80,
                "duration": 0.14772727272726627,
                "tempo": 120.0
            },
            {
                "start_time": 80.51590909090909,
                "end_time": 80.66363636363636,
                "pitch": 36,
                "velocity": 80,
                "duration": 0.14772727272726627,
                "tempo": 120.0
            },
            {
                "start_time": 80.67727272727272,
                "end_time": 80.825,
                "pitch": 48,
                "velocity": 80,
                "duration": 0.14772727272728048,
                "tempo": 120.0
            },
            {
                "start_time": 80.83863636363635,
                "end_time": 80.98409090909091,
                "pitch": 36,
                "velocity": 80,
                "duration": 0.14545454545455527,
                "tempo": 120.0
            },
            {
                "start_time": 80.99772727272727,
                "end_time": 81.14545454545454,
                "pitch": 36,
                "velocity": 80,
                "duration": 0.14772727272726627,
                "tempo": 120.0
            },
            {
                "start_time": 81.1590909090909,
                "end_time": 81.30681818181817,
                "pitch": 48,
                "velocity": 80,
                "duration": 0.14772727272726627,
                "tempo": 120.0
            },
            {
                "start_time": 81.32045454545454,
                "end_time": 81.46818181818182,
                "pitch": 36,
                "velocity": 80,
                "duration": 0.14772727272728048,
                "tempo": 120.0
            },
            {
                "start_time": 81.48181818181818,
                "end_time": 81.62954545454545,
                "pitch": 36,
                "velocity": 80,
                "duration": 0.14772727272726627,
                "tempo": 120.0
            },
            {
                "start_time": 81.64318181818182,
                "end_time": 81.79318181818181,
                "pitch": 48,
                "velocity": 80,
                "duration": 0.14999999999999147,
                "tempo": 120.0
            },
            {
                "start_time": 81.80681818181817,
                "end_time": 81.95681818181818,
                "pitch": 36,
                "velocity": 80,
                "duration": 0.15000000000000568,
                "tempo": 120.0
            },
            {
                "start_time": 81.97045454545454,
                "end_time": 82.11363636363636,
                "pitch": 38,
                "velocity": 80,
                "duration": 0.14318181818181586,
                "tempo": 120.0
            },
            {
                "start_time": 82.12727272727273,
                "end_time": 82.27045454545454,
                "pitch": 50,
                "velocity": 80,
                "duration": 0.14318181818181586,
                "tempo": 120.0
            },
            {
                "start_time": 82.2840909090909,
                "end_time": 82.43181818181817,
                "pitch": 38,
                "velocity": 80,
                "duration": 0.14772727272726627,
                "tempo": 120.0
            },
            {
                "start_time": 82.44545454545454,
                "end_time": 82.5909090909091,
                "pitch": 38,
                "velocity": 80,
                "duration": 0.14545454545455527,
                "tempo": 120.0
            },
            {
                "start_time": 82.60454545454544,
                "end_time": 82.75454545454545,
                "pitch": 50,
                "velocity": 80,
                "duration": 0.15000000000000568,
                "tempo": 120.0
            },
            {
                "start_time": 82.76818181818182,
                "end_time": 82.92045454545455,
                "pitch": 38,
                "velocity": 80,
                "duration": 0.1522727272727309,
                "tempo": 120.0
            },
            {
                "start_time": 82.9340909090909,
                "end_time": 83.07727272727273,
                "pitch": 38,
                "velocity": 80,
                "duration": 0.14318181818183007,
                "tempo": 120.0
            },
            {
                "start_time": 83.0909090909091,
                "end_time": 83.23409090909091,
                "pitch": 50,
                "velocity": 80,
                "duration": 0.14318181818181586,
                "tempo": 120.0
            },
            {
                "start_time": 83.24772727272727,
                "end_time": 83.39318181818182,
                "pitch": 38,
                "velocity": 80,
                "duration": 0.14545454545454106,
                "tempo": 120.0
            },
            {
                "start_time": 83.40681818181818,
                "end_time": 83.55454545454545,
                "pitch": 38,
                "velocity": 80,
                "duration": 0.14772727272726627,
                "tempo": 120.0
            },
            {
                "start_time": 83.56590909090909,
                "end_time": 83.71818181818182,
                "pitch": 50,
                "velocity": 80,
                "duration": 0.1522727272727309,
                "tempo": 120.0
            },
            {
                "start_time": 83.73181818181818,
                "end_time": 83.88181818181818,
                "pitch": 38,
                "velocity": 80,
                "duration": 0.14999999999999147,
                "tempo": 120.0
            },
            {
                "start_time": 83.89545454545454,
                "end_time": 84.03863636363636,
                "pitch": 33,
                "velocity": 80,
                "duration": 0.14318181818181586,
                "tempo": 120.0
            },
            {
                "start_time": 84.05227272727272,
                "end_time": 84.19545454545454,
                "pitch": 45,
                "velocity": 80,
                "duration": 0.14318181818181586,
                "tempo": 120.0
            },
            {
                "start_time": 84.2090909090909,
                "end_time": 84.35681818181818,
                "pitch": 33,
                "velocity": 80,
                "duration": 0.14772727272728048,
                "tempo": 120.0
            },
            {
                "start_time": 84.37045454545454,
                "end_time": 84.51818181818182,
                "pitch": 33,
                "velocity": 80,
                "duration": 0.14772727272728048,
                "tempo": 120.0
            },
            {
                "start_time": 84.53181818181818,
                "end_time": 84.68181818181817,
                "pitch": 45,
                "velocity": 80,
                "duration": 0.14999999999999147,
                "tempo": 120.0
            },
            {
                "start_time": 84.69545454545454,
                "end_time": 84.84545454545454,
                "pitch": 33,
                "velocity": 80,
                "duration": 0.15000000000000568,
                "tempo": 120.0
            },
            {
                "start_time": 84.85909090909091,
                "end_time": 85.00454545454545,
                "pitch": 33,
                "velocity": 80,
                "duration": 0.14545454545454106,
                "tempo": 120.0
            },
            {
                "start_time": 85.01590909090909,
                "end_time": 85.16136363636363,
                "pitch": 45,
                "velocity": 80,
                "duration": 0.14545454545454106,
                "tempo": 120.0
            },
            {
                "start_time": 85.17272727272727,
                "end_time": 85.32045454545454,
                "pitch": 33,
                "velocity": 80,
                "duration": 0.14772727272726627,
                "tempo": 120.0
            },
            {
                "start_time": 85.3340909090909,
                "end_time": 85.48181818181818,
                "pitch": 33,
                "velocity": 80,
                "duration": 0.14772727272728048,
                "tempo": 120.0
            },
            {
                "start_time": 85.49545454545454,
                "end_time": 85.64545454545454,
                "pitch": 45,
                "velocity": 80,
                "duration": 0.15000000000000568,
                "tempo": 120.0
            },
            {
                "start_time": 85.66136363636363,
                "end_time": 85.81136363636364,
                "pitch": 33,
                "velocity": 80,
                "duration": 0.15000000000000568,
                "tempo": 120.0
            },
            {
                "start_time": 85.825,
                "end_time": 85.96818181818182,
                "pitch": 35,
                "velocity": 80,
                "duration": 0.14318181818181586,
                "tempo": 120.0
            },
            {
                "start_time": 85.98181818181818,
                "end_time": 86.125,
                "pitch": 47,
                "velocity": 80,
                "duration": 0.14318181818181586,
                "tempo": 120.0
            },
            {
                "start_time": 86.13863636363637,
                "end_time": 86.28636363636363,
                "pitch": 35,
                "velocity": 80,
                "duration": 0.14772727272726627,
                "tempo": 120.0
            },
            {
                "start_time": 86.3,
                "end_time": 86.44772727272726,
                "pitch": 35,
                "velocity": 80,
                "duration": 0.14772727272726627,
                "tempo": 120.0
            },
            {
                "start_time": 86.46136363636363,
                "end_time": 86.61136363636363,
                "pitch": 47,
                "velocity": 80,
                "duration": 0.15000000000000568,
                "tempo": 120.0
            },
            {
                "start_time": 86.625,
                "end_time": 86.77499999999999,
                "pitch": 35,
                "velocity": 80,
                "duration": 0.14999999999999147,
                "tempo": 120.0
            },
            {
                "start_time": 86.78863636363636,
                "end_time": 86.93181818181817,
                "pitch": 35,
                "velocity": 80,
                "duration": 0.14318181818181586,
                "tempo": 120.0
            },
            {
                "start_time": 86.94545454545454,
                "end_time": 87.08863636363635,
                "pitch": 47,
                "velocity": 80,
                "duration": 0.14318181818181586,
                "tempo": 120.0
            },
            {
                "start_time": 87.10227272727272,
                "end_time": 87.25,
                "pitch": 35,
                "velocity": 80,
                "duration": 0.14772727272728048,
                "tempo": 120.0
            },
            {
                "start_time": 87.26363636363637,
                "end_time": 87.4090909090909,
                "pitch": 35,
                "velocity": 80,
                "duration": 0.14545454545454106,
                "tempo": 120.0
            },
            {
                "start_time": 87.42272727272727,
                "end_time": 87.57045454545454,
                "pitch": 47,
                "velocity": 80,
                "duration": 0.14772727272726627,
                "tempo": 120.0
            },
            {
                "start_time": 87.5840909090909,
                "end_time": 87.73181818181818,
                "pitch": 35,
                "velocity": 80,
                "duration": 0.14772727272728048,
                "tempo": 120.0
            },
            {
                "start_time": 87.74545454545454,
                "end_time": 87.89545454545454,
                "pitch": 36,
                "velocity": 80,
                "duration": 0.15000000000000568,
                "tempo": 120.0
            },
            {
                "start_time": 87.9090909090909,
                "end_time": 88.0590909090909,
                "pitch": 48,
                "velocity": 80,
                "duration": 0.14999999999999147,
                "tempo": 120.0
            },
            {
                "start_time": 88.07272727272726,
                "end_time": 88.2159090909091,
                "pitch": 36,
                "velocity": 80,
                "duration": 0.14318181818183007,
                "tempo": 120.0
            },
            {
                "start_time": 88.22954545454544,
                "end_time": 88.37272727272727,
                "pitch": 36,
                "velocity": 80,
                "duration": 0.14318181818183007,
                "tempo": 120.0
            },
            {
                "start_time": 88.38636363636363,
                "end_time": 88.53863636363636,
                "pitch": 48,
                "velocity": 80,
                "duration": 0.1522727272727309,
                "tempo": 120.0
            },
            {
                "start_time": 88.55227272727272,
                "end_time": 88.70227272727273,
                "pitch": 36,
                "velocity": 80,
                "duration": 0.15000000000000568,
                "tempo": 120.0
            },
            {
                "start_time": 88.7159090909091,
                "end_time": 88.86363636363636,
                "pitch": 36,
                "velocity": 80,
                "duration": 0.14772727272726627,
                "tempo": 120.0
            },
            {
                "start_time": 88.87727272727273,
                "end_time": 89.02499999999999,
                "pitch": 48,
                "velocity": 80,
                "duration": 0.14772727272726627,
                "tempo": 120.0
            },
            {
                "start_time": 89.03863636363636,
                "end_time": 89.18181818181817,
                "pitch": 36,
                "velocity": 80,
                "duration": 0.14318181818181586,
                "tempo": 120.0
            },
            {
                "start_time": 89.19545454545454,
                "end_time": 89.33863636363635,
                "pitch": 36,
                "velocity": 80,
                "duration": 0.14318181818181586,
                "tempo": 120.0
            },
            {
                "start_time": 89.35227272727272,
                "end_time": 89.5,
                "pitch": 48,
                "velocity": 80,
                "duration": 0.14772727272728048,
                "tempo": 120.0
            },
            {
                "start_time": 89.51363636363637,
                "end_time": 89.66136363636363,
                "pitch": 36,
                "velocity": 80,
                "duration": 0.14772727272726627,
                "tempo": 120.0
            },
            {
                "start_time": 89.67272727272727,
                "end_time": 89.82499999999999,
                "pitch": 38,
                "velocity": 80,
                "duration": 0.15227272727271668,
                "tempo": 120.0
            },
            {
                "start_time": 89.83863636363635,
                "end_time": 89.98863636363636,
                "pitch": 50,
                "velocity": 80,
                "duration": 0.15000000000000568,
                "tempo": 120.0
            },
            {
                "start_time": 90.00227272727273,
                "end_time": 90.14545454545454,
                "pitch": 38,
                "velocity": 80,
                "duration": 0.14318181818181586,
                "tempo": 120.0
            },
            {
                "start_time": 90.1590909090909,
                "end_time": 90.30227272727272,
                "pitch": 38,
                "velocity": 80,
                "duration": 0.14318181818181586,
                "tempo": 120.0
            },
            {
                "start_time": 90.31590909090909,
                "end_time": 90.4659090909091,
                "pitch": 50,
                "velocity": 80,
                "duration": 0.15000000000000568,
                "tempo": 120.0
            },
            {
                "start_time": 90.47954545454544,
                "end_time": 90.63181818181818,
                "pitch": 38,
                "velocity": 80,
                "duration": 0.1522727272727309,
                "tempo": 120.0
            },
            {
                "start_time": 90.64545454545454,
                "end_time": 90.79318181818181,
                "pitch": 38,
                "velocity": 80,
                "duration": 0.14772727272726627,
                "tempo": 120.0
            },
            {
                "start_time": 90.80454545454545,
                "end_time": 90.95227272727273,
                "pitch": 50,
                "velocity": 80,
                "duration": 0.14772727272728048,
                "tempo": 120.0
            },
            {
                "start_time": 90.9659090909091,
                "end_time": 91.11136363636363,
                "pitch": 38,
                "velocity": 80,
                "duration": 0.14545454545454106,
                "tempo": 120.0
            },
            {
                "start_time": 91.12272727272727,
                "end_time": 91.26818181818182,
                "pitch": 38,
                "velocity": 80,
                "duration": 0.14545454545454106,
                "tempo": 120.0
            },
            {
                "start_time": 91.27954545454546,
                "end_time": 91.43181818181817,
                "pitch": 50,
                "velocity": 80,
                "duration": 0.15227272727271668,
                "tempo": 120.0
            },
            {
                "start_time": 91.44545454545454,
                "end_time": 91.59545454545454,
                "pitch": 38,
                "velocity": 80,
                "duration": 0.15000000000000568,
                "tempo": 120.0
            },
            {
                "start_time": 91.60909090909091,
                "end_time": 91.75227272727273,
                "pitch": 40,
                "velocity": 80,
                "duration": 0.14318181818181586,
                "tempo": 120.0
            },
            {
                "start_time": 91.76590909090909,
                "end_time": 91.9090909090909,
                "pitch": 40,
                "velocity": 80,
                "duration": 0.14318181818181586,
                "tempo": 120.0
            },
            {
                "start_time": 91.92272727272727,
                "end_time": 92.07272727272726,
                "pitch": 40,
                "velocity": 80,
                "duration": 0.14999999999999147,
                "tempo": 120.0
            },
            {
                "start_time": 92.08636363636363,
                "end_time": 92.23636363636363,
                "pitch": 40,
                "velocity": 80,
                "duration": 0.15000000000000568,
                "tempo": 120.0
            },
            {
                "start_time": 92.25227272727273,
                "end_time": 92.39772727272727,
                "pitch": 40,
                "velocity": 80,
                "duration": 0.14545454545454106,
                "tempo": 120.0
            },
            {
                "start_time": 92.41136363636363,
                "end_time": 92.5590909090909,
                "pitch": 40,
                "velocity": 80,
                "duration": 0.14772727272726627,
                "tempo": 120.0
            },
            {
                "start_time": 92.57272727272726,
                "end_time": 92.7159090909091,
                "pitch": 36,
                "velocity": 80,
                "duration": 0.14318181818183007,
                "tempo": 120.0
            },
            {
                "start_time": 92.72954545454544,
                "end_time": 92.87272727272727,
                "pitch": 48,
                "velocity": 80,
                "duration": 0.14318181818183007,
                "tempo": 120.0
            },
            {
                "start_time": 92.88636363636363,
                "end_time": 93.03636363636363,
                "pitch": 36,
                "velocity": 80,
                "duration": 0.15000000000000568,
                "tempo": 120.0
            },
            {
                "start_time": 93.05227272727272,
                "end_time": 93.20227272727273,
                "pitch": 38,
                "velocity": 80,
                "duration": 0.15000000000000568,
                "tempo": 120.0
            },
            {
                "start_time": 93.21590909090908,
                "end_time": 93.36136363636363,
                "pitch": 50,
                "velocity": 80,
                "duration": 0.14545454545455527,
                "tempo": 120.0
            },
            {
                "start_time": 93.375,
                "end_time": 93.52272727272727,
                "pitch": 38,
                "velocity": 80,
                "duration": 0.14772727272726627,
                "tempo": 120.0
            },
            {
                "start_time": 93.53636363636363,
                "end_time": 93.6840909090909,
                "pitch": 40,
                "velocity": 80,
                "duration": 0.14772727272726627,
                "tempo": 120.0
            },
            {
                "start_time": 93.69772727272726,
                "end_time": 93.84318181818182,
                "pitch": 52,
                "velocity": 80,
                "duration": 0.14545454545455527,
                "tempo": 120.0
            },
            {
                "start_time": 93.85681818181818,
                "end_time": 94.00227272727273,
                "pitch": 40,
                "velocity": 80,
                "duration": 0.14545454545454106,
                "tempo": 120.0
            },
            {
                "start_time": 94.01363636363637,
                "end_time": 94.1590909090909,
                "pitch": 40,
                "velocity": 80,
                "duration": 0.14545454545454106,
                "tempo": 120.0
            },
            {
                "start_time": 94.17045454545455,
                "end_time": 94.31818181818181,
                "pitch": 52,
                "velocity": 80,
                "duration": 0.14772727272726627,
                "tempo": 120.0
            },
            {
                "start_time": 94.33181818181818,
                "end_time": 94.47954545454544,
                "pitch": 40,
                "velocity": 80,
                "duration": 0.14772727272726627,
                "tempo": 120.0
            },
            {
                "start_time": 94.49318181818181,
                "end_time": 94.64090909090909,
                "pitch": 40,
                "velocity": 80,
                "duration": 0.14772727272728048,
                "tempo": 120.0
            },
            {
                "start_time": 94.65454545454546,
                "end_time": 94.8,
                "pitch": 52,
                "velocity": 80,
                "duration": 0.14545454545454106,
                "tempo": 120.0
            },
            {
                "start_time": 94.81363636363636,
                "end_time": 94.96136363636363,
                "pitch": 40,
                "velocity": 80,
                "duration": 0.14772727272726627,
                "tempo": 120.0
            },
            {
                "start_time": 94.975,
                "end_time": 95.12272727272727,
                "pitch": 40,
                "velocity": 80,
                "duration": 0.14772727272728048,
                "tempo": 120.0
            },
            {
                "start_time": 95.13636363636363,
                "end_time": 95.28636363636363,
                "pitch": 52,
                "velocity": 80,
                "duration": 0.15000000000000568,
                "tempo": 120.0
            },
            {
                "start_time": 95.3,
                "end_time": 95.44999999999999,
                "pitch": 40,
                "velocity": 80,
                "duration": 0.14999999999999147,
                "tempo": 120.0
            },
            {
                "start_time": 95.46363636363635,
                "end_time": 95.60681818181818,
                "pitch": 36,
                "velocity": 80,
                "duration": 0.14318181818183007,
                "tempo": 120.0
            },
            {
                "start_time": 95.62045454545454,
                "end_time": 95.76590909090909,
                "pitch": 48,
                "velocity": 80,
                "duration": 0.14545454545455527,
                "tempo": 120.0
            },
            {
                "start_time": 95.77727272727272,
                "end_time": 95.925,
                "pitch": 36,
                "velocity": 80,
                "duration": 0.14772727272728048,
                "tempo": 120.0
            },
            {
                "start_time": 95.93863636363636,
                "end_time": 96.08636363636363,
                "pitch": 36,
                "velocity": 80,
                "duration": 0.14772727272726627,
                "tempo": 120.0
            },
            {
                "start_time": 96.1,
                "end_time": 96.24772727272727,
                "pitch": 48,
                "velocity": 80,
                "duration": 0.14772727272728048,
                "tempo": 120.0
            },
            {
                "start_time": 96.2590909090909,
                "end_time": 96.40681818181818,
                "pitch": 36,
                "velocity": 80,
                "duration": 0.14772727272728048,
                "tempo": 120.0
            },
            {
                "start_time": 96.42045454545455,
                "end_time": 96.56818181818181,
                "pitch": 36,
                "velocity": 80,
                "duration": 0.14772727272726627,
                "tempo": 120.0
            },
            {
                "start_time": 96.58181818181818,
                "end_time": 96.72954545454544,
                "pitch": 48,
                "velocity": 80,
                "duration": 0.14772727272726627,
                "tempo": 120.0
            },
            {
                "start_time": 96.74318181818181,
                "end_time": 96.88863636363637,
                "pitch": 36,
                "velocity": 80,
                "duration": 0.14545454545455527,
                "tempo": 120.0
            },
            {
                "start_time": 96.90227272727272,
                "end_time": 97.05,
                "pitch": 36,
                "velocity": 80,
                "duration": 0.14772727272728048,
                "tempo": 120.0
            },
            {
                "start_time": 97.06136363636364,
                "end_time": 97.21363636363635,
                "pitch": 48,
                "velocity": 80,
                "duration": 0.15227272727271668,
                "tempo": 120.0
            },
            {
                "start_time": 97.22727272727272,
                "end_time": 97.37727272727273,
                "pitch": 36,
                "velocity": 80,
                "duration": 0.15000000000000568,
                "tempo": 120.0
            },
            {
                "start_time": 97.39090909090909,
                "end_time": 97.53863636363636,
                "pitch": 38,
                "velocity": 80,
                "duration": 0.14772727272726627,
                "tempo": 120.0
            },
            {
                "start_time": 97.55,
                "end_time": 97.69772727272726,
                "pitch": 50,
                "velocity": 80,
                "duration": 0.14772727272726627,
                "tempo": 120.0
            },
            {
                "start_time": 97.71136363636363,
                "end_time": 97.85454545454544,
                "pitch": 38,
                "velocity": 80,
                "duration": 0.14318181818181586,
                "tempo": 120.0
            },
            {
                "start_time": 97.86818181818181,
                "end_time": 98.01136363636363,
                "pitch": 38,
                "velocity": 80,
                "duration": 0.14318181818181586,
                "tempo": 120.0
            },
            {
                "start_time": 98.02499999999999,
                "end_time": 98.175,
                "pitch": 50,
                "velocity": 80,
                "duration": 0.15000000000000568,
                "tempo": 120.0
            },
            {
                "start_time": 98.18863636363636,
                "end_time": 98.33863636363635,
                "pitch": 38,
                "velocity": 80,
                "duration": 0.14999999999999147,
                "tempo": 120.0
            },
            {
                "start_time": 98.35227272727272,
                "end_time": 98.49772727272727,
                "pitch": 38,
                "velocity": 80,
                "duration": 0.14545454545455527,
                "tempo": 120.0
            },
            {
                "start_time": 98.5090909090909,
                "end_time": 98.65454545454546,
                "pitch": 50,
                "velocity": 80,
                "duration": 0.14545454545455527,
                "tempo": 120.0
            },
            {
                "start_time": 98.66590909090908,
                "end_time": 98.81363636363636,
                "pitch": 38,
                "velocity": 80,
                "duration": 0.14772727272728048,
                "tempo": 120.0
            },
            {
                "start_time": 98.82727272727273,
                "end_time": 98.975,
                "pitch": 38,
                "velocity": 80,
                "duration": 0.14772727272726627,
                "tempo": 120.0
            },
            {
                "start_time": 98.98863636363636,
                "end_time": 99.14090909090909,
                "pitch": 50,
                "velocity": 80,
                "duration": 0.1522727272727309,
                "tempo": 120.0
            },
            {
                "start_time": 99.15454545454546,
                "end_time": 99.30454545454545,
                "pitch": 38,
                "velocity": 80,
                "duration": 0.14999999999999147,
                "tempo": 120.0
            },
            {
                "start_time": 99.31818181818181,
                "end_time": 99.46590909090908,
                "pitch": 40,
                "velocity": 80,
                "duration": 0.14772727272726627,
                "tempo": 120.0
            },
            {
                "start_time": 99.47954545454544,
                "end_time": 99.62727272727273,
                "pitch": 52,
                "velocity": 80,
                "duration": 0.14772727272728048,
                "tempo": 120.0
            },
            {
                "start_time": 99.64090909090909,
                "end_time": 99.7840909090909,
                "pitch": 40,
                "velocity": 80,
                "duration": 0.14318181818181586,
                "tempo": 120.0
            },
            {
                "start_time": 99.79772727272727,
                "end_time": 99.94090909090909,
                "pitch": 38,
                "velocity": 80,
                "duration": 0.14318181818181586,
                "tempo": 120.0
            },
            {
                "start_time": 99.95454545454545,
                "end_time": 100.10454545454544,
                "pitch": 50,
                "velocity": 80,
                "duration": 0.14999999999999147,
                "tempo": 120.0
            },
            {
                "start_time": 100.11818181818181,
                "end_time": 100.26818181818182,
                "pitch": 38,
                "velocity": 80,
                "duration": 0.15000000000000568,
                "tempo": 120.0
            },
            {
                "start_time": 100.28181818181818,
                "end_time": 100.42954545454545,
                "pitch": 36,
                "velocity": 80,
                "duration": 0.14772727272726627,
                "tempo": 120.0
            },
            {
                "start_time": 100.44318181818181,
                "end_time": 100.59090909090908,
                "pitch": 48,
                "velocity": 80,
                "duration": 0.14772727272726627,
                "tempo": 120.0
            },
            {
                "start_time": 100.60454545454544,
                "end_time": 100.74772727272727,
                "pitch": 36,
                "velocity": 80,
                "duration": 0.14318181818183007,
                "tempo": 120.0
            },
            {
                "start_time": 100.76136363636363,
                "end_time": 100.90454545454546,
                "pitch": 35,
                "velocity": 80,
                "duration": 0.14318181818183007,
                "tempo": 120.0
            },
            {
                "start_time": 100.91818181818181,
                "end_time": 101.06590909090909,
                "pitch": 47,
                "velocity": 80,
                "duration": 0.14772727272728048,
                "tempo": 120.0
            },
            {
                "start_time": 101.07727272727273,
                "end_time": 101.225,
                "pitch": 35,
                "velocity": 80,
                "duration": 0.14772727272726627,
                "tempo": 120.0
            },
            {
                "start_time": 101.23863636363636,
                "end_time": 101.38636363636363,
                "pitch": 40,
                "velocity": 80,
                "duration": 0.14772727272726627,
                "tempo": 120.0
            },
            {
                "start_time": 101.39999999999999,
                "end_time": 101.54772727272727,
                "pitch": 52,
                "velocity": 80,
                "duration": 0.14772727272728048,
                "tempo": 120.0
            },
            {
                "start_time": 101.56136363636364,
                "end_time": 101.70681818181818,
                "pitch": 40,
                "velocity": 80,
                "duration": 0.14545454545454106,
                "tempo": 120.0
            },
            {
                "start_time": 101.72045454545454,
                "end_time": 101.86590909090908,
                "pitch": 40,
                "velocity": 80,
                "duration": 0.14545454545454106,
                "tempo": 120.0
            },
            {
                "start_time": 101.87954545454545,
                "end_time": 102.02727272727272,
                "pitch": 52,
                "velocity": 80,
                "duration": 0.14772727272726627,
                "tempo": 120.0
            },
            {
                "start_time": 102.04090909090908,
                "end_time": 102.18863636363636,
                "pitch": 40,
                "velocity": 80,
                "duration": 0.14772727272728048,
                "tempo": 120.0
            },
            {
                "start_time": 102.20227272727273,
                "end_time": 102.35227272727272,
                "pitch": 40,
                "velocity": 80,
                "duration": 0.14999999999999147,
                "tempo": 120.0
            },
            {
                "start_time": 102.36590909090908,
                "end_time": 102.51818181818182,
                "pitch": 52,
                "velocity": 80,
                "duration": 0.1522727272727309,
                "tempo": 120.0
            },
            {
                "start_time": 102.53181818181818,
                "end_time": 102.675,
                "pitch": 40,
                "velocity": 80,
                "duration": 0.14318181818181586,
                "tempo": 120.0
            },
            {
                "start_time": 102.68863636363636,
                "end_time": 102.83181818181818,
                "pitch": 40,
                "velocity": 80,
                "duration": 0.14318181818181586,
                "tempo": 120.0
            },
            {
                "start_time": 102.84545454545454,
                "end_time": 102.99318181818181,
                "pitch": 52,
                "velocity": 80,
                "duration": 0.14772727272726627,
                "tempo": 120.0
            },
            {
                "start_time": 103.00681818181818,
                "end_time": 103.15454545454546,
                "pitch": 40,
                "velocity": 80,
                "duration": 0.14772727272728048,
                "tempo": 120.0
            },
            {
                "start_time": 103.16590909090908,
                "end_time": 103.31363636363636,
                "pitch": 36,
                "velocity": 80,
                "duration": 0.14772727272728048,
                "tempo": 120.0
            },
            {
                "start_time": 103.32727272727273,
                "end_time": 103.47272727272727,
                "pitch": 48,
                "velocity": 80,
                "duration": 0.14545454545454106,
                "tempo": 120.0
            },
            {
                "start_time": 103.48636363636363,
                "end_time": 103.6340909090909,
                "pitch": 36,
                "velocity": 80,
                "duration": 0.14772727272726627,
                "tempo": 120.0
            },
            {
                "start_time": 103.64772727272727,
                "end_time": 103.79545454545455,
                "pitch": 36,
                "velocity": 80,
                "duration": 0.14772727272728048,
                "tempo": 120.0
            },
            {
                "start_time": 103.8090909090909,
                "end_time": 103.9590909090909,
                "pitch": 48,
                "velocity": 80,
                "duration": 0.15000000000000568,
                "tempo": 120.0
            },
            {
                "start_time": 103.97272727272727,
                "end_time": 104.125,
                "pitch": 36,
                "velocity": 80,
                "duration": 0.1522727272727309,
                "tempo": 120.0
            },
            {
                "start_time": 104.13863636363637,
                "end_time": 104.28636363636363,
                "pitch": 36,
                "velocity": 80,
                "duration": 0.14772727272726627,
                "tempo": 120.0
            },
            {
                "start_time": 104.3,
                "end_time": 104.44772727272726,
                "pitch": 48,
                "velocity": 80,
                "duration": 0.14772727272726627,
                "tempo": 120.0
            },
            {
                "start_time": 104.4590909090909,
                "end_time": 104.60454545454544,
                "pitch": 36,
                "velocity": 80,
                "duration": 0.14545454545454106,
                "tempo": 120.0
            },
            {
                "start_time": 104.61590909090908,
                "end_time": 104.76136363636363,
                "pitch": 36,
                "velocity": 80,
                "duration": 0.14545454545454106,
                "tempo": 120.0
            },
            {
                "start_time": 104.77272727272727,
                "end_time": 104.925,
                "pitch": 48,
                "velocity": 80,
                "duration": 0.1522727272727309,
                "tempo": 120.0
            },
            {
                "start_time": 104.93863636363636,
                "end_time": 105.08863636363635,
                "pitch": 36,
                "velocity": 80,
                "duration": 0.14999999999999147,
                "tempo": 120.0
            },
            {
                "start_time": 105.10227272727272,
                "end_time": 105.24545454545454,
                "pitch": 38,
                "velocity": 80,
                "duration": 0.14318181818181586,
                "tempo": 120.0
            },
            {
                "start_time": 105.2590909090909,
                "end_time": 105.40227272727272,
                "pitch": 50,
                "velocity": 80,
                "duration": 0.14318181818181586,
                "tempo": 120.0
            },
            {
                "start_time": 105.41590909090908,
                "end_time": 105.56363636363636,
                "pitch": 38,
                "velocity": 80,
                "duration": 0.14772727272728048,
                "tempo": 120.0
            },
            {
                "start_time": 105.57727272727273,
                "end_time": 105.725,
                "pitch": 38,
                "velocity": 80,
                "duration": 0.14772727272726627,
                "tempo": 120.0
            },
            {
                "start_time": 105.73863636363636,
                "end_time": 105.88863636363637,
                "pitch": 50,
                "velocity": 80,
                "duration": 0.15000000000000568,
                "tempo": 120.0
            },
            {
                "start_time": 105.90227272727272,
                "end_time": 106.05227272727272,
                "pitch": 38,
                "velocity": 80,
                "duration": 0.15000000000000568,
                "tempo": 120.0
            },
            {
                "start_time": 106.06590909090909,
                "end_time": 106.21363636363635,
                "pitch": 38,
                "velocity": 80,
                "duration": 0.14772727272726627,
                "tempo": 120.0
            },
            {
                "start_time": 106.22727272727272,
                "end_time": 106.37272727272726,
                "pitch": 50,
                "velocity": 80,
                "duration": 0.14545454545454106,
                "tempo": 120.0
            },
            {
                "start_time": 106.38636363636363,
                "end_time": 106.5340909090909,
                "pitch": 38,
                "velocity": 80,
                "duration": 0.14772727272728048,
                "tempo": 120.0
            },
            {
                "start_time": 106.54772727272727,
                "end_time": 106.69545454545454,
                "pitch": 38,
                "velocity": 80,
                "duration": 0.14772727272726627,
                "tempo": 120.0
            },
            {
                "start_time": 106.7090909090909,
                "end_time": 106.85681818181817,
                "pitch": 50,
                "velocity": 80,
                "duration": 0.14772727272726627,
                "tempo": 120.0
            },
            {
                "start_time": 106.87045454545454,
                "end_time": 107.01818181818182,
                "pitch": 38,
                "velocity": 80,
                "duration": 0.14772727272728048,
                "tempo": 120.0
            }
        ],
        "Electric Guitar (clean)": [
            {
                "start_time": 0.013636363636363636,
                "end_time": 0.0659090909090909,
                "pitch": 71,
                "velocity": 40,
                "duration": 0.05227272727272727,
                "tempo": 120.0
            },
            {
                "start_time": 0.07954545454545454,
                "end_time": 0.1477272727272727,
                "pitch": 72,
                "velocity": 40,
                "duration": 0.06818181818181816,
                "tempo": 120.0
            },
            {
                "start_time": 0.1590909090909091,
                "end_time": 0.22727272727272727,
                "pitch": 71,
                "velocity": 40,
                "duration": 0.06818181818181818,
                "tempo": 120.0
            },
            {
                "start_time": 0.2409090909090909,
                "end_time": 0.3068181818181818,
                "pitch": 72,
                "velocity": 40,
                "duration": 0.06590909090909092,
                "tempo": 120.0
            },
            {
                "start_time": 0.32045454545454544,
                "end_time": 0.38636363636363635,
                "pitch": 71,
                "velocity": 40,
                "duration": 0.06590909090909092,
                "tempo": 120.0
            },
            {
                "start_time": 0.39999999999999997,
                "end_time": 0.4659090909090909,
                "pitch": 72,
                "velocity": 40,
                "duration": 0.06590909090909092,
                "tempo": 120.0
            },
            {
                "start_time": 0.4795454545454545,
                "end_time": 0.5795454545454545,
                "pitch": 71,
                "velocity": 40,
                "duration": 0.09999999999999998,
                "tempo": 120.0
            },
            {
                "start_time": 0.6,
                "end_time": 0.7,
                "pitch": 72,
                "velocity": 40,
                "duration": 0.09999999999999998,
                "tempo": 120.0
            },
            {
                "start_time": 0.7204545454545455,
                "end_time": 0.8204545454545454,
                "pitch": 71,
                "velocity": 40,
                "duration": 0.09999999999999998,
                "tempo": 120.0
            },
            {
                "start_time": 0.8409090909090908,
                "end_time": 0.9409090909090909,
                "pitch": 72,
                "velocity": 40,
                "duration": 0.10000000000000009,
                "tempo": 120.0
            },
            {
                "start_time": 0.959090909090909,
                "end_time": 1.059090909090909,
                "pitch": 71,
                "velocity": 40,
                "duration": 0.10000000000000009,
                "tempo": 120.0
            },
            {
                "start_time": 1.0795454545454546,
                "end_time": 1.1795454545454545,
                "pitch": 72,
                "velocity": 40,
                "duration": 0.09999999999999987,
                "tempo": 120.0
            },
            {
                "start_time": 1.2,
                "end_time": 1.3,
                "pitch": 71,
                "velocity": 40,
                "duration": 0.10000000000000009,
                "tempo": 120.0
            },
            {
                "start_time": 1.3204545454545453,
                "end_time": 1.4204545454545454,
                "pitch": 72,
                "velocity": 40,
                "duration": 0.10000000000000009,
                "tempo": 120.0
            },
            {
                "start_time": 1.440909090909091,
                "end_time": 1.5409090909090908,
                "pitch": 71,
                "velocity": 40,
                "duration": 0.09999999999999987,
                "tempo": 120.0
            },
            {
                "start_time": 1.559090909090909,
                "end_time": 1.659090909090909,
                "pitch": 72,
                "velocity": 40,
                "duration": 0.09999999999999987,
                "tempo": 120.0
            },
            {
                "start_time": 1.6795454545454545,
                "end_time": 1.7795454545454545,
                "pitch": 71,
                "velocity": 40,
                "duration": 0.10000000000000009,
                "tempo": 120.0
            },
            {
                "start_time": 1.7999999999999998,
                "end_time": 1.9,
                "pitch": 72,
                "velocity": 40,
                "duration": 0.10000000000000009,
                "tempo": 120.0
            },
            {
                "start_time": 1.9204545454545454,
                "end_time": 2.0204545454545455,
                "pitch": 71,
                "velocity": 40,
                "duration": 0.10000000000000009,
                "tempo": 120.0
            },
            {
                "start_time": 2.040909090909091,
                "end_time": 2.143181818181818,
                "pitch": 72,
                "velocity": 40,
                "duration": 0.10227272727272707,
                "tempo": 120.0
            },
            {
                "start_time": 2.1636363636363636,
                "end_time": 2.2636363636363637,
                "pitch": 71,
                "velocity": 40,
                "duration": 0.10000000000000009,
                "tempo": 120.0
            },
            {
                "start_time": 2.284090909090909,
                "end_time": 2.384090909090909,
                "pitch": 72,
                "velocity": 40,
                "duration": 0.09999999999999964,
                "tempo": 120.0
            },
            {
                "start_time": 2.4045454545454543,
                "end_time": 2.506818181818182,
                "pitch": 71,
                "velocity": 40,
                "duration": 0.10227272727272751,
                "tempo": 120.0
            },
            {
                "start_time": 2.5272727272727273,
                "end_time": 2.627272727272727,
                "pitch": 72,
                "velocity": 40,
                "duration": 0.09999999999999964,
                "tempo": 120.0
            },
            {
                "start_time": 2.6477272727272725,
                "end_time": 2.7477272727272726,
                "pitch": 71,
                "velocity": 40,
                "duration": 0.10000000000000009,
                "tempo": 120.0
            },
            {
                "start_time": 2.768181818181818,
                "end_time": 2.868181818181818,
                "pitch": 72,
                "velocity": 40,
                "duration": 0.10000000000000009,
                "tempo": 120.0
            },
            {
                "start_time": 2.8863636363636362,
                "end_time": 2.9863636363636363,
                "pitch": 71,
                "velocity": 40,
                "duration": 0.10000000000000009,
                "tempo": 120.0
            },
            {
                "start_time": 3.006818181818182,
                "end_time": 3.1068181818181815,
                "pitch": 72,
                "velocity": 40,
                "duration": 0.09999999999999964,
                "tempo": 120.0
            },
            {
                "start_time": 3.127272727272727,
                "end_time": 3.227272727272727,
                "pitch": 71,
                "velocity": 40,
                "duration": 0.10000000000000009,
                "tempo": 120.0
            },
            {
                "start_time": 3.2477272727272726,
                "end_time": 3.3477272727272727,
                "pitch": 72,
                "velocity": 40,
                "duration": 0.10000000000000009,
                "tempo": 120.0
            },
            {
                "start_time": 3.368181818181818,
                "end_time": 3.468181818181818,
                "pitch": 71,
                "velocity": 40,
                "duration": 0.09999999999999964,
                "tempo": 120.0
            },
            {
                "start_time": 3.4886363636363633,
                "end_time": 3.5886363636363634,
                "pitch": 72,
                "velocity": 40,
                "duration": 0.10000000000000009,
                "tempo": 120.0
            },
            {
                "start_time": 3.609090909090909,
                "end_time": 3.711363636363636,
                "pitch": 71,
                "velocity": 40,
                "duration": 0.10227272727272707,
                "tempo": 120.0
            },
            {
                "start_time": 3.7318181818181815,
                "end_time": 3.8318181818181816,
                "pitch": 72,
                "velocity": 40,
                "duration": 0.10000000000000009,
                "tempo": 120.0
            },
            {
                "start_time": 3.852272727272727,
                "end_time": 3.952272727272727,
                "pitch": 71,
                "velocity": 40,
                "duration": 0.10000000000000009,
                "tempo": 120.0
            },
            {
                "start_time": 3.9727272727272727,
                "end_time": 4.075,
                "pitch": 72,
                "velocity": 40,
                "duration": 0.10227272727272751,
                "tempo": 120.0
            },
            {
                "start_time": 4.095454545454546,
                "end_time": 4.195454545454545,
                "pitch": 71,
                "velocity": 40,
                "duration": 0.09999999999999964,
                "tempo": 120.0
            },
            {
                "start_time": 4.215909090909091,
                "end_time": 4.3159090909090905,
                "pitch": 72,
                "velocity": 40,
                "duration": 0.09999999999999964,
                "tempo": 120.0
            },
            {
                "start_time": 4.336363636363636,
                "end_time": 4.4386363636363635,
                "pitch": 71,
                "velocity": 40,
                "duration": 0.10227272727272751,
                "tempo": 120.0
            },
            {
                "start_time": 4.459090909090909,
                "end_time": 4.559090909090909,
                "pitch": 72,
                "velocity": 40,
                "duration": 0.09999999999999964,
                "tempo": 120.0
            },
            {
                "start_time": 4.579545454545454,
                "end_time": 4.679545454545455,
                "pitch": 71,
                "velocity": 40,
                "duration": 0.10000000000000053,
                "tempo": 120.0
            },
            {
                "start_time": 4.7,
                "end_time": 4.802272727272727,
                "pitch": 72,
                "velocity": 40,
                "duration": 0.10227272727272663,
                "tempo": 120.0
            },
            {
                "start_time": 4.822727272727272,
                "end_time": 4.922727272727273,
                "pitch": 71,
                "velocity": 40,
                "duration": 0.10000000000000053,
                "tempo": 120.0
            },
            {
                "start_time": 4.943181818181818,
                "end_time": 5.043181818181818,
                "pitch": 72,
                "velocity": 40,
                "duration": 0.09999999999999964,
                "tempo": 120.0
            },
            {
                "start_time": 5.0636363636363635,
                "end_time": 5.165909090909091,
                "pitch": 71,
                "velocity": 40,
                "duration": 0.10227272727272751,
                "tempo": 120.0
            },
            {
                "start_time": 5.1863636363636365,
                "end_time": 5.286363636363636,
                "pitch": 72,
                "velocity": 40,
                "duration": 0.09999999999999964,
                "tempo": 120.0
            },
            {
                "start_time": 5.306818181818182,
                "end_time": 5.406818181818181,
                "pitch": 71,
                "velocity": 40,
                "duration": 0.09999999999999964,
                "tempo": 120.0
            },
            {
                "start_time": 5.427272727272727,
                "end_time": 5.529545454545454,
                "pitch": 72,
                "velocity": 40,
                "duration": 0.10227272727272751,
                "tempo": 120.0
            },
            {
                "start_time": 5.55,
                "end_time": 11.35,
                "pitch": 64,
                "velocity": 40,
                "duration": 5.8,
                "tempo": 120.0
            },
            {
                "start_time": 11.35,
                "end_time": 11.431818181818182,
                "pitch": 76,
                "velocity": 40,
                "duration": 0.08181818181818201,
                "tempo": 120.0
            },
            {
                "start_time": 11.45,
                "end_time": 11.549999999999999,
                "pitch": 71,
                "velocity": 40,
                "duration": 0.09999999999999964,
                "tempo": 120.0
            },
            {
                "start_time": 11.570454545454545,
                "end_time": 11.670454545454545,
                "pitch": 76,
                "velocity": 40,
                "duration": 0.09999999999999964,
                "tempo": 120.0
            },
            {
                "start_time": 11.69090909090909,
                "end_time": 11.790909090909091,
                "pitch": 71,
                "velocity": 40,
                "duration": 0.10000000000000142,
                "tempo": 120.0
            },
            {
                "start_time": 11.811363636363636,
                "end_time": 11.911363636363635,
                "pitch": 76,
                "velocity": 40,
                "duration": 0.09999999999999964,
                "tempo": 120.0
            },
            {
                "start_time": 11.931818181818182,
                "end_time": 12.031818181818181,
                "pitch": 71,
                "velocity": 40,
                "duration": 0.09999999999999964,
                "tempo": 120.0
            },
            {
                "start_time": 12.049999999999999,
                "end_time": 12.149999999999999,
                "pitch": 76,
                "velocity": 40,
                "duration": 0.09999999999999964,
                "tempo": 120.0
            },
            {
                "start_time": 12.170454545454545,
                "end_time": 12.270454545454545,
                "pitch": 71,
                "velocity": 40,
                "duration": 0.09999999999999964,
                "tempo": 120.0
            },
            {
                "start_time": 12.290909090909091,
                "end_time": 12.39090909090909,
                "pitch": 76,
                "velocity": 40,
                "duration": 0.09999999999999964,
                "tempo": 120.0
            },
            {
                "start_time": 12.411363636363635,
                "end_time": 12.511363636363635,
                "pitch": 71,
                "velocity": 40,
                "duration": 0.09999999999999964,
                "tempo": 120.0
            },
            {
                "start_time": 12.531818181818181,
                "end_time": 12.631818181818181,
                "pitch": 76,
                "velocity": 40,
                "duration": 0.09999999999999964,
                "tempo": 120.0
            },
            {
                "start_time": 12.649999999999999,
                "end_time": 12.75,
                "pitch": 71,
                "velocity": 40,
                "duration": 0.10000000000000142,
                "tempo": 120.0
            },
            {
                "start_time": 12.770454545454545,
                "end_time": 12.872727272727271,
                "pitch": 76,
                "velocity": 40,
                "duration": 0.10227272727272663,
                "tempo": 120.0
            },
            {
                "start_time": 12.893181818181818,
                "end_time": 12.993181818181817,
                "pitch": 71,
                "velocity": 40,
                "duration": 0.09999999999999964,
                "tempo": 120.0
            },
            {
                "start_time": 13.013636363636364,
                "end_time": 13.113636363636363,
                "pitch": 76,
                "velocity": 40,
                "duration": 0.09999999999999964,
                "tempo": 120.0
            },
            {
                "start_time": 13.134090909090908,
                "end_time": 13.236363636363636,
                "pitch": 71,
                "velocity": 40,
                "duration": 0.1022727272727284,
                "tempo": 120.0
            },
            {
                "start_time": 13.256818181818181,
                "end_time": 13.35681818181818,
                "pitch": 76,
                "velocity": 40,
                "duration": 0.09999999999999964,
                "tempo": 120.0
            },
            {
                "start_time": 13.377272727272727,
                "end_time": 13.477272727272727,
                "pitch": 71,
                "velocity": 40,
                "duration": 0.09999999999999964,
                "tempo": 120.0
            },
            {
                "start_time": 13.497727272727271,
                "end_time": 13.597727272727273,
                "pitch": 76,
                "velocity": 40,
                "duration": 0.10000000000000142,
                "tempo": 120.0
            },
            {
                "start_time": 13.618181818181817,
                "end_time": 13.718181818181817,
                "pitch": 71,
                "velocity": 40,
                "duration": 0.09999999999999964,
                "tempo": 120.0
            },
            {
                "start_time": 13.738636363636363,
                "end_time": 13.838636363636363,
                "pitch": 76,
                "velocity": 40,
                "duration": 0.09999999999999964,
                "tempo": 120.0
            },
            {
                "start_time": 13.859090909090908,
                "end_time": 13.959090909090909,
                "pitch": 71,
                "velocity": 40,
                "duration": 0.10000000000000142,
                "tempo": 120.0
            },
            {
                "start_time": 13.977272727272727,
                "end_time": 14.077272727272726,
                "pitch": 76,
                "velocity": 40,
                "duration": 0.09999999999999964,
                "tempo": 120.0
            },
            {
                "start_time": 14.097727272727273,
                "end_time": 14.197727272727272,
                "pitch": 71,
                "velocity": 40,
                "duration": 0.09999999999999964,
                "tempo": 120.0
            },
            {
                "start_time": 14.218181818181817,
                "end_time": 14.318181818181818,
                "pitch": 76,
                "velocity": 40,
                "duration": 0.10000000000000142,
                "tempo": 120.0
            },
            {
                "start_time": 14.338636363636363,
                "end_time": 14.438636363636363,
                "pitch": 71,
                "velocity": 40,
                "duration": 0.09999999999999964,
                "tempo": 120.0
            },
            {
                "start_time": 14.459090909090909,
                "end_time": 14.559090909090909,
                "pitch": 76,
                "velocity": 40,
                "duration": 0.09999999999999964,
                "tempo": 120.0
            },
            {
                "start_time": 14.577272727272726,
                "end_time": 14.677272727272726,
                "pitch": 71,
                "velocity": 40,
                "duration": 0.09999999999999964,
                "tempo": 120.0
            },
            {
                "start_time": 14.697727272727272,
                "end_time": 14.797727272727272,
                "pitch": 76,
                "velocity": 40,
                "duration": 0.09999999999999964,
                "tempo": 120.0
            },
            {
                "start_time": 14.818181818181818,
                "end_time": 14.918181818181818,
                "pitch": 71,
                "velocity": 40,
                "duration": 0.09999999999999964,
                "tempo": 120.0
            },
            {
                "start_time": 14.938636363636363,
                "end_time": 15.038636363636362,
                "pitch": 76,
                "velocity": 40,
                "duration": 0.09999999999999964,
                "tempo": 120.0
            },
            {
                "start_time": 15.059090909090909,
                "end_time": 15.159090909090908,
                "pitch": 71,
                "velocity": 40,
                "duration": 0.09999999999999964,
                "tempo": 120.0
            },
            {
                "start_time": 15.177272727272726,
                "end_time": 15.277272727272727,
                "pitch": 76,
                "velocity": 40,
                "duration": 0.10000000000000142,
                "tempo": 120.0
            },
            {
                "start_time": 15.297727272727272,
                "end_time": 15.397727272727272,
                "pitch": 71,
                "velocity": 40,
                "duration": 0.09999999999999964,
                "tempo": 120.0
            },
            {
                "start_time": 15.418181818181818,
                "end_time": 15.518181818181818,
                "pitch": 76,
                "velocity": 40,
                "duration": 0.09999999999999964,
                "tempo": 120.0
            },
            {
                "start_time": 15.538636363636362,
                "end_time": 15.638636363636364,
                "pitch": 71,
                "velocity": 40,
                "duration": 0.10000000000000142,
                "tempo": 120.0
            },
            {
                "start_time": 15.659090909090908,
                "end_time": 15.759090909090908,
                "pitch": 76,
                "velocity": 40,
                "duration": 0.09999999999999964,
                "tempo": 120.0
            },
            {
                "start_time": 15.777272727272727,
                "end_time": 15.877272727272727,
                "pitch": 71,
                "velocity": 40,
                "duration": 0.09999999999999964,
                "tempo": 120.0
            },
            {
                "start_time": 15.897727272727272,
                "end_time": 15.997727272727271,
                "pitch": 76,
                "velocity": 40,
                "duration": 0.09999999999999964,
                "tempo": 120.0
            },
            {
                "start_time": 16.018181818181816,
                "end_time": 16.118181818181817,
                "pitch": 71,
                "velocity": 40,
                "duration": 0.10000000000000142,
                "tempo": 120.0
            },
            {
                "start_time": 16.138636363636362,
                "end_time": 16.238636363636363,
                "pitch": 76,
                "velocity": 40,
                "duration": 0.10000000000000142,
                "tempo": 120.0
            },
            {
                "start_time": 16.259090909090908,
                "end_time": 16.35909090909091,
                "pitch": 71,
                "velocity": 40,
                "duration": 0.10000000000000142,
                "tempo": 120.0
            },
            {
                "start_time": 16.377272727272725,
                "end_time": 16.479545454545455,
                "pitch": 76,
                "velocity": 40,
                "duration": 0.10227272727273018,
                "tempo": 120.0
            },
            {
                "start_time": 16.5,
                "end_time": 16.599999999999998,
                "pitch": 71,
                "velocity": 40,
                "duration": 0.09999999999999787,
                "tempo": 120.0
            },
            {
                "start_time": 16.620454545454546,
                "end_time": 16.722727272727273,
                "pitch": 76,
                "velocity": 40,
                "duration": 0.10227272727272663,
                "tempo": 120.0
            },
            {
                "start_time": 16.74090909090909,
                "end_time": 16.84318181818182,
                "pitch": 71,
                "velocity": 40,
                "duration": 0.10227272727273018,
                "tempo": 120.0
            },
            {
                "start_time": 16.863636363636363,
                "end_time": 16.96363636363636,
                "pitch": 76,
                "velocity": 40,
                "duration": 0.09999999999999787,
                "tempo": 120.0
            },
            {
                "start_time": 16.98409090909091,
                "end_time": 17.086363636363636,
                "pitch": 71,
                "velocity": 40,
                "duration": 0.10227272727272663,
                "tempo": 120.0
            },
            {
                "start_time": 17.104545454545455,
                "end_time": 17.204545454545453,
                "pitch": 76,
                "velocity": 40,
                "duration": 0.09999999999999787,
                "tempo": 120.0
            },
            {
                "start_time": 17.224999999999998,
                "end_time": 17.325,
                "pitch": 71,
                "velocity": 40,
                "duration": 0.10000000000000142,
                "tempo": 120.0
            },
            {
                "start_time": 17.345454545454544,
                "end_time": 17.445454545454545,
                "pitch": 76,
                "velocity": 40,
                "duration": 0.10000000000000142,
                "tempo": 120.0
            },
            {
                "start_time": 17.46590909090909,
                "end_time": 17.56590909090909,
                "pitch": 71,
                "velocity": 40,
                "duration": 0.10000000000000142,
                "tempo": 120.0
            },
            {
                "start_time": 17.586363636363636,
                "end_time": 17.686363636363634,
                "pitch": 76,
                "velocity": 40,
                "duration": 0.09999999999999787,
                "tempo": 120.0
            },
            {
                "start_time": 17.704545454545453,
                "end_time": 17.804545454545455,
                "pitch": 71,
                "velocity": 40,
                "duration": 0.10000000000000142,
                "tempo": 120.0
            },
            {
                "start_time": 17.825,
                "end_time": 17.925,
                "pitch": 76,
                "velocity": 40,
                "duration": 0.10000000000000142,
                "tempo": 120.0
            },
            {
                "start_time": 17.945454545454545,
                "end_time": 18.045454545454543,
                "pitch": 71,
                "velocity": 40,
                "duration": 0.09999999999999787,
                "tempo": 120.0
            },
            {
                "start_time": 18.06590909090909,
                "end_time": 18.16590909090909,
                "pitch": 76,
                "velocity": 40,
                "duration": 0.09999999999999787,
                "tempo": 120.0
            },
            {
                "start_time": 18.186363636363634,
                "end_time": 18.286363636363635,
                "pitch": 71,
                "velocity": 40,
                "duration": 0.10000000000000142,
                "tempo": 120.0
            },
            {
                "start_time": 18.304545454545455,
                "end_time": 18.404545454545453,
                "pitch": 76,
                "velocity": 40,
                "duration": 0.09999999999999787,
                "tempo": 120.0
            },
            {
                "start_time": 18.425,
                "end_time": 18.525,
                "pitch": 71,
                "velocity": 40,
                "duration": 0.09999999999999787,
                "tempo": 120.0
            },
            {
                "start_time": 18.545454545454543,
                "end_time": 18.645454545454545,
                "pitch": 76,
                "velocity": 40,
                "duration": 0.10000000000000142,
                "tempo": 120.0
            },
            {
                "start_time": 18.66590909090909,
                "end_time": 18.76590909090909,
                "pitch": 71,
                "velocity": 40,
                "duration": 0.10000000000000142,
                "tempo": 120.0
            },
            {
                "start_time": 18.786363636363635,
                "end_time": 18.886363636363637,
                "pitch": 76,
                "velocity": 40,
                "duration": 0.10000000000000142,
                "tempo": 120.0
            },
            {
                "start_time": 18.904545454545453,
                "end_time": 19.004545454545454,
                "pitch": 71,
                "velocity": 40,
                "duration": 0.10000000000000142,
                "tempo": 120.0
            },
            {
                "start_time": 19.025,
                "end_time": 19.125,
                "pitch": 76,
                "velocity": 40,
                "duration": 0.10000000000000142,
                "tempo": 120.0
            },
            {
                "start_time": 19.145454545454545,
                "end_time": 19.245454545454546,
                "pitch": 71,
                "velocity": 40,
                "duration": 0.10000000000000142,
                "tempo": 120.0
            },
            {
                "start_time": 19.26590909090909,
                "end_time": 19.36590909090909,
                "pitch": 76,
                "velocity": 40,
                "duration": 0.09999999999999787,
                "tempo": 120.0
            },
            {
                "start_time": 19.386363636363637,
                "end_time": 19.486363636363635,
                "pitch": 71,
                "velocity": 40,
                "duration": 0.09999999999999787,
                "tempo": 120.0
            },
            {
                "start_time": 19.504545454545454,
                "end_time": 19.604545454545452,
                "pitch": 76,
                "velocity": 40,
                "duration": 0.09999999999999787,
                "tempo": 120.0
            },
            {
                "start_time": 19.625,
                "end_time": 19.724999999999998,
                "pitch": 71,
                "velocity": 40,
                "duration": 0.09999999999999787,
                "tempo": 120.0
            },
            {
                "start_time": 19.745454545454546,
                "end_time": 19.845454545454544,
                "pitch": 76,
                "velocity": 40,
                "duration": 0.09999999999999787,
                "tempo": 120.0
            },
            {
                "start_time": 19.86590909090909,
                "end_time": 19.96590909090909,
                "pitch": 71,
                "velocity": 40,
                "duration": 0.10000000000000142,
                "tempo": 120.0
            },
            {
                "start_time": 19.986363636363635,
                "end_time": 20.086363636363636,
                "pitch": 76,
                "velocity": 40,
                "duration": 0.10000000000000142,
                "tempo": 120.0
            },
            {
                "start_time": 20.10681818181818,
                "end_time": 20.206818181818182,
                "pitch": 71,
                "velocity": 40,
                "duration": 0.10000000000000142,
                "tempo": 120.0
            },
            {
                "start_time": 20.227272727272727,
                "end_time": 20.329545454545453,
                "pitch": 76,
                "velocity": 40,
                "duration": 0.10227272727272663,
                "tempo": 120.0
            },
            {
                "start_time": 20.349999999999998,
                "end_time": 20.45,
                "pitch": 71,
                "velocity": 40,
                "duration": 0.10000000000000142,
                "tempo": 120.0
            },
            {
                "start_time": 20.470454545454544,
                "end_time": 20.570454545454545,
                "pitch": 76,
                "velocity": 40,
                "duration": 0.10000000000000142,
                "tempo": 120.0
            },
            {
                "start_time": 20.59090909090909,
                "end_time": 20.693181818181817,
                "pitch": 71,
                "velocity": 40,
                "duration": 0.10227272727272663,
                "tempo": 120.0
            },
            {
                "start_time": 20.71363636363636,
                "end_time": 20.813636363636363,
                "pitch": 76,
                "velocity": 40,
                "duration": 0.10000000000000142,
                "tempo": 120.0
            },
            {
                "start_time": 20.831818181818182,
                "end_time": 20.93181818181818,
                "pitch": 71,
                "velocity": 40,
                "duration": 0.09999999999999787,
                "tempo": 120.0
            },
            {
                "start_time": 20.952272727272724,
                "end_time": 21.052272727272726,
                "pitch": 76,
                "velocity": 40,
                "duration": 0.10000000000000142,
                "tempo": 120.0
            },
            {
                "start_time": 21.07272727272727,
                "end_time": 21.172727272727272,
                "pitch": 71,
                "velocity": 40,
                "duration": 0.10000000000000142,
                "tempo": 120.0
            },
            {
                "start_time": 21.193181818181817,
                "end_time": 21.293181818181818,
                "pitch": 76,
                "velocity": 40,
                "duration": 0.10000000000000142,
                "tempo": 120.0
            },
            {
                "start_time": 21.313636363636363,
                "end_time": 21.413636363636364,
                "pitch": 71,
                "velocity": 40,
                "duration": 0.10000000000000142,
                "tempo": 120.0
            },
            {
                "start_time": 21.43181818181818,
                "end_time": 21.534090909090907,
                "pitch": 76,
                "velocity": 40,
                "duration": 0.10227272727272663,
                "tempo": 120.0
            },
            {
                "start_time": 21.554545454545455,
                "end_time": 21.654545454545453,
                "pitch": 71,
                "velocity": 40,
                "duration": 0.09999999999999787,
                "tempo": 120.0
            },
            {
                "start_time": 21.675,
                "end_time": 21.777272727272727,
                "pitch": 76,
                "velocity": 40,
                "duration": 0.10227272727272663,
                "tempo": 120.0
            },
            {
                "start_time": 21.795454545454543,
                "end_time": 21.897727272727273,
                "pitch": 71,
                "velocity": 40,
                "duration": 0.10227272727273018,
                "tempo": 120.0
            },
            {
                "start_time": 21.918181818181818,
                "end_time": 22.018181818181816,
                "pitch": 76,
                "velocity": 40,
                "duration": 0.09999999999999787,
                "tempo": 120.0
            },
            {
                "start_time": 22.038636363636364,
                "end_time": 22.14090909090909,
                "pitch": 71,
                "velocity": 40,
                "duration": 0.10227272727272663,
                "tempo": 120.0
            },
            {
                "start_time": 22.159090909090907,
                "end_time": 22.261363636363637,
                "pitch": 76,
                "velocity": 40,
                "duration": 0.10227272727273018,
                "tempo": 120.0
            },
            {
                "start_time": 22.28181818181818,
                "end_time": 22.38181818181818,
                "pitch": 71,
                "velocity": 40,
                "duration": 0.09999999999999787,
                "tempo": 120.0
            },
            {
                "start_time": 22.402272727272727,
                "end_time": 22.504545454545454,
                "pitch": 76,
                "velocity": 40,
                "duration": 0.10227272727272663,
                "tempo": 120.0
            },
            {
                "start_time": 22.522727272727273,
                "end_time": 22.625,
                "pitch": 71,
                "velocity": 40,
                "duration": 0.10227272727272663,
                "tempo": 120.0
            },
            {
                "start_time": 22.645454545454545,
                "end_time": 22.745454545454546,
                "pitch": 76,
                "velocity": 40,
                "duration": 0.10000000000000142,
                "tempo": 120.0
            },
            {
                "start_time": 22.76590909090909,
                "end_time": 22.868181818181817,
                "pitch": 71,
                "velocity": 40,
                "duration": 0.10227272727272663,
                "tempo": 120.0
            },
            {
                "start_time": 22.886363636363637,
                "end_time": 22.986363636363635,
                "pitch": 76,
                "velocity": 40,
                "duration": 0.09999999999999787,
                "tempo": 120.0
            },
            {
                "start_time": 23.00681818181818,
                "end_time": 23.10681818181818,
                "pitch": 71,
                "velocity": 40,
                "duration": 0.10000000000000142,
                "tempo": 120.0
            },
            {
                "start_time": 23.127272727272725,
                "end_time": 23.227272727272727,
                "pitch": 76,
                "velocity": 40,
                "duration": 0.10000000000000142,
                "tempo": 120.0
            },
            {
                "start_time": 23.24772727272727,
                "end_time": 23.347727272727273,
                "pitch": 71,
                "velocity": 40,
                "duration": 0.10000000000000142,
                "tempo": 120.0
            },
            {
                "start_time": 23.368181818181817,
                "end_time": 23.46818181818182,
                "pitch": 76,
                "velocity": 40,
                "duration": 0.10000000000000142,
                "tempo": 120.0
            },
            {
                "start_time": 23.486363636363635,
                "end_time": 23.586363636363636,
                "pitch": 71,
                "velocity": 40,
                "duration": 0.10000000000000142,
                "tempo": 120.0
            },
            {
                "start_time": 23.60681818181818,
                "end_time": 23.709090909090907,
                "pitch": 76,
                "velocity": 40,
                "duration": 0.10227272727272663,
                "tempo": 120.0
            },
            {
                "start_time": 23.729545454545452,
                "end_time": 23.829545454545453,
                "pitch": 71,
                "velocity": 40,
                "duration": 0.10000000000000142,
                "tempo": 120.0
            },
            {
                "start_time": 23.849999999999998,
                "end_time": 23.95,
                "pitch": 76,
                "velocity": 40,
                "duration": 0.10000000000000142,
                "tempo": 120.0
            },
            {
                "start_time": 23.970454545454544,
                "end_time": 24.07272727272727,
                "pitch": 71,
                "velocity": 40,
                "duration": 0.10227272727272663,
                "tempo": 120.0
            },
            {
                "start_time": 24.09318181818182,
                "end_time": 24.193181818181817,
                "pitch": 76,
                "velocity": 40,
                "duration": 0.09999999999999787,
                "tempo": 120.0
            },
            {
                "start_time": 24.21363636363636,
                "end_time": 24.313636363636363,
                "pitch": 71,
                "velocity": 40,
                "duration": 0.10000000000000142,
                "tempo": 120.0
            },
            {
                "start_time": 24.334090909090907,
                "end_time": 24.43409090909091,
                "pitch": 76,
                "velocity": 40,
                "duration": 0.10000000000000142,
                "tempo": 120.0
            },
            {
                "start_time": 24.454545454545453,
                "end_time": 24.554545454545455,
                "pitch": 71,
                "velocity": 40,
                "duration": 0.10000000000000142,
                "tempo": 120.0
            },
            {
                "start_time": 24.575,
                "end_time": 24.674999999999997,
                "pitch": 76,
                "velocity": 40,
                "duration": 0.09999999999999787,
                "tempo": 120.0
            },
            {
                "start_time": 24.695454545454545,
                "end_time": 24.795454545454543,
                "pitch": 71,
                "velocity": 40,
                "duration": 0.09999999999999787,
                "tempo": 120.0
            },
            {
                "start_time": 24.813636363636363,
                "end_time": 24.913636363636364,
                "pitch": 76,
                "velocity": 40,
                "duration": 0.10000000000000142,
                "tempo": 120.0
            },
            {
                "start_time": 24.93409090909091,
                "end_time": 25.034090909090907,
                "pitch": 71,
                "velocity": 40,
                "duration": 0.09999999999999787,
                "tempo": 120.0
            },
            {
                "start_time": 25.054545454545455,
                "end_time": 25.154545454545453,
                "pitch": 76,
                "velocity": 40,
                "duration": 0.09999999999999787,
                "tempo": 120.0
            },
            {
                "start_time": 25.174999999999997,
                "end_time": 25.277272727272727,
                "pitch": 71,
                "velocity": 40,
                "duration": 0.10227272727273018,
                "tempo": 120.0
            },
            {
                "start_time": 25.297727272727272,
                "end_time": 25.39772727272727,
                "pitch": 76,
                "velocity": 40,
                "duration": 0.09999999999999787,
                "tempo": 120.0
            },
            {
                "start_time": 25.418181818181818,
                "end_time": 25.518181818181816,
                "pitch": 71,
                "velocity": 40,
                "duration": 0.09999999999999787,
                "tempo": 120.0
            },
            {
                "start_time": 25.538636363636364,
                "end_time": 25.64090909090909,
                "pitch": 76,
                "velocity": 40,
                "duration": 0.10227272727272663,
                "tempo": 120.0
            },
            {
                "start_time": 25.661363636363635,
                "end_time": 25.761363636363637,
                "pitch": 71,
                "velocity": 40,
                "duration": 0.10000000000000142,
                "tempo": 120.0
            },
            {
                "start_time": 25.78181818181818,
                "end_time": 25.88181818181818,
                "pitch": 76,
                "velocity": 40,
                "duration": 0.09999999999999787,
                "tempo": 120.0
            },
            {
                "start_time": 25.902272727272727,
                "end_time": 26.004545454545454,
                "pitch": 71,
                "velocity": 40,
                "duration": 0.10227272727272663,
                "tempo": 120.0
            },
            {
                "start_time": 26.025,
                "end_time": 26.125,
                "pitch": 76,
                "velocity": 40,
                "duration": 0.10000000000000142,
                "tempo": 120.0
            },
            {
                "start_time": 26.145454545454545,
                "end_time": 26.245454545454542,
                "pitch": 71,
                "velocity": 40,
                "duration": 0.09999999999999787,
                "tempo": 120.0
            },
            {
                "start_time": 26.26590909090909,
                "end_time": 26.368181818181817,
                "pitch": 76,
                "velocity": 40,
                "duration": 0.10227272727272663,
                "tempo": 120.0
            },
            {
                "start_time": 26.388636363636362,
                "end_time": 26.488636363636363,
                "pitch": 71,
                "velocity": 40,
                "duration": 0.10000000000000142,
                "tempo": 120.0
            },
            {
                "start_time": 26.509090909090908,
                "end_time": 26.60909090909091,
                "pitch": 76,
                "velocity": 40,
                "duration": 0.10000000000000142,
                "tempo": 120.0
            },
            {
                "start_time": 26.629545454545454,
                "end_time": 26.729545454545452,
                "pitch": 71,
                "velocity": 40,
                "duration": 0.09999999999999787,
                "tempo": 120.0
            },
            {
                "start_time": 26.75,
                "end_time": 26.849999999999998,
                "pitch": 76,
                "velocity": 40,
                "duration": 0.09999999999999787,
                "tempo": 120.0
            },
            {
                "start_time": 26.868181818181817,
                "end_time": 26.968181818181815,
                "pitch": 71,
                "velocity": 40,
                "duration": 0.09999999999999787,
                "tempo": 120.0
            },
            {
                "start_time": 26.988636363636363,
                "end_time": 27.08863636363636,
                "pitch": 76,
                "velocity": 40,
                "duration": 0.09999999999999787,
                "tempo": 120.0
            },
            {
                "start_time": 27.10909090909091,
                "end_time": 27.209090909090907,
                "pitch": 71,
                "velocity": 40,
                "duration": 0.09999999999999787,
                "tempo": 120.0
            },
            {
                "start_time": 27.229545454545452,
                "end_time": 27.329545454545453,
                "pitch": 76,
                "velocity": 40,
                "duration": 0.10000000000000142,
                "tempo": 120.0
            },
            {
                "start_time": 27.349999999999998,
                "end_time": 27.452272727272724,
                "pitch": 71,
                "velocity": 40,
                "duration": 0.10227272727272663,
                "tempo": 120.0
            },
            {
                "start_time": 27.472727272727273,
                "end_time": 27.57272727272727,
                "pitch": 76,
                "velocity": 40,
                "duration": 0.09999999999999787,
                "tempo": 120.0
            },
            {
                "start_time": 27.593181818181815,
                "end_time": 27.693181818181817,
                "pitch": 71,
                "velocity": 40,
                "duration": 0.10000000000000142,
                "tempo": 120.0
            },
            {
                "start_time": 27.71363636363636,
                "end_time": 27.815909090909088,
                "pitch": 76,
                "velocity": 40,
                "duration": 0.10227272727272663,
                "tempo": 120.0
            },
            {
                "start_time": 27.836363636363636,
                "end_time": 27.936363636363634,
                "pitch": 71,
                "velocity": 40,
                "duration": 0.09999999999999787,
                "tempo": 120.0
            },
            {
                "start_time": 27.956818181818182,
                "end_time": 28.05681818181818,
                "pitch": 76,
                "velocity": 40,
                "duration": 0.09999999999999787,
                "tempo": 120.0
            },
            {
                "start_time": 28.077272727272724,
                "end_time": 28.177272727272726,
                "pitch": 71,
                "velocity": 40,
                "duration": 0.10000000000000142,
                "tempo": 120.0
            },
            {
                "start_time": 28.195454545454545,
                "end_time": 28.295454545454543,
                "pitch": 76,
                "velocity": 40,
                "duration": 0.09999999999999787,
                "tempo": 120.0
            },
            {
                "start_time": 28.315909090909088,
                "end_time": 28.41590909090909,
                "pitch": 71,
                "velocity": 40,
                "duration": 0.10000000000000142,
                "tempo": 120.0
            },
            {
                "start_time": 28.436363636363634,
                "end_time": 28.536363636363635,
                "pitch": 76,
                "velocity": 40,
                "duration": 0.10000000000000142,
                "tempo": 120.0
            },
            {
                "start_time": 28.55681818181818,
                "end_time": 28.65681818181818,
                "pitch": 71,
                "velocity": 40,
                "duration": 0.10000000000000142,
                "tempo": 120.0
            },
            {
                "start_time": 28.677272727272726,
                "end_time": 28.777272727272727,
                "pitch": 76,
                "velocity": 40,
                "duration": 0.10000000000000142,
                "tempo": 120.0
            },
            {
                "start_time": 28.797727272727272,
                "end_time": 28.89772727272727,
                "pitch": 71,
                "velocity": 40,
                "duration": 0.09999999999999787,
                "tempo": 120.0
            },
            {
                "start_time": 28.918181818181818,
                "end_time": 29.020454545454545,
                "pitch": 76,
                "velocity": 40,
                "duration": 0.10227272727272663,
                "tempo": 120.0
            },
            {
                "start_time": 29.04090909090909,
                "end_time": 29.14090909090909,
                "pitch": 71,
                "velocity": 40,
                "duration": 0.10000000000000142,
                "tempo": 120.0
            },
            {
                "start_time": 29.161363636363635,
                "end_time": 29.261363636363637,
                "pitch": 76,
                "velocity": 40,
                "duration": 0.10000000000000142,
                "tempo": 120.0
            },
            {
                "start_time": 29.28181818181818,
                "end_time": 29.384090909090908,
                "pitch": 71,
                "velocity": 40,
                "duration": 0.10227272727272663,
                "tempo": 120.0
            },
            {
                "start_time": 29.404545454545453,
                "end_time": 29.504545454545454,
                "pitch": 76,
                "velocity": 40,
                "duration": 0.10000000000000142,
                "tempo": 120.0
            },
            {
                "start_time": 29.525,
                "end_time": 29.625,
                "pitch": 71,
                "velocity": 40,
                "duration": 0.10000000000000142,
                "tempo": 120.0
            },
            {
                "start_time": 29.645454545454545,
                "end_time": 29.74772727272727,
                "pitch": 76,
                "velocity": 40,
                "duration": 0.10227272727272663,
                "tempo": 120.0
            },
            {
                "start_time": 29.768181818181816,
                "end_time": 29.868181818181817,
                "pitch": 71,
                "velocity": 40,
                "duration": 0.10000000000000142,
                "tempo": 120.0
            },
            {
                "start_time": 29.888636363636362,
                "end_time": 29.988636363636363,
                "pitch": 76,
                "velocity": 40,
                "duration": 0.10000000000000142,
                "tempo": 120.0
            },
            {
                "start_time": 30.009090909090908,
                "end_time": 30.111363636363635,
                "pitch": 71,
                "velocity": 40,
                "duration": 0.10227272727272663,
                "tempo": 120.0
            },
            {
                "start_time": 30.13181818181818,
                "end_time": 30.23181818181818,
                "pitch": 76,
                "velocity": 40,
                "duration": 0.10000000000000142,
                "tempo": 120.0
            },
            {
                "start_time": 30.25,
                "end_time": 30.349999999999998,
                "pitch": 71,
                "velocity": 40,
                "duration": 0.09999999999999787,
                "tempo": 120.0
            },
            {
                "start_time": 30.370454545454542,
                "end_time": 30.470454545454544,
                "pitch": 76,
                "velocity": 40,
                "duration": 0.10000000000000142,
                "tempo": 120.0
            },
            {
                "start_time": 30.49090909090909,
                "end_time": 30.59090909090909,
                "pitch": 71,
                "velocity": 40,
                "duration": 0.10000000000000142,
                "tempo": 120.0
            },
            {
                "start_time": 30.611363636363635,
                "end_time": 30.711363636363636,
                "pitch": 76,
                "velocity": 40,
                "duration": 0.10000000000000142,
                "tempo": 120.0
            },
            {
                "start_time": 30.73181818181818,
                "end_time": 30.831818181818182,
                "pitch": 71,
                "velocity": 40,
                "duration": 0.10000000000000142,
                "tempo": 120.0
            },
            {
                "start_time": 30.849999999999998,
                "end_time": 30.952272727272724,
                "pitch": 76,
                "velocity": 40,
                "duration": 0.10227272727272663,
                "tempo": 120.0
            },
            {
                "start_time": 30.972727272727273,
                "end_time": 31.07272727272727,
                "pitch": 71,
                "velocity": 40,
                "duration": 0.09999999999999787,
                "tempo": 120.0
            },
            {
                "start_time": 31.093181818181815,
                "end_time": 31.195454545454545,
                "pitch": 76,
                "velocity": 40,
                "duration": 0.10227272727273018,
                "tempo": 120.0
            },
            {
                "start_time": 31.21363636363636,
                "end_time": 31.315909090909088,
                "pitch": 71,
                "velocity": 40,
                "duration": 0.10227272727272663,
                "tempo": 120.0
            },
            {
                "start_time": 31.336363636363636,
                "end_time": 31.436363636363634,
                "pitch": 76,
                "velocity": 40,
                "duration": 0.09999999999999787,
                "tempo": 120.0
            },
            {
                "start_time": 31.456818181818182,
                "end_time": 31.55909090909091,
                "pitch": 71,
                "velocity": 40,
                "duration": 0.10227272727272663,
                "tempo": 120.0
            },
            {
                "start_time": 31.577272727272724,
                "end_time": 31.677272727272726,
                "pitch": 78,
                "velocity": 40,
                "duration": 0.10000000000000142,
                "tempo": 120.0
            },
            {
                "start_time": 31.69772727272727,
                "end_time": 31.797727272727272,
                "pitch": 71,
                "velocity": 40,
                "duration": 0.10000000000000142,
                "tempo": 120.0
            },
            {
                "start_time": 31.818181818181817,
                "end_time": 31.918181818181818,
                "pitch": 78,
                "velocity": 40,
                "duration": 0.10000000000000142,
                "tempo": 120.0
            },
            {
                "start_time": 31.938636363636363,
                "end_time": 32.038636363636364,
                "pitch": 71,
                "velocity": 40,
                "duration": 0.10000000000000142,
                "tempo": 120.0
            },
            {
                "start_time": 32.059090909090905,
                "end_time": 32.15909090909091,
                "pitch": 78,
                "velocity": 40,
                "duration": 0.10000000000000142,
                "tempo": 120.0
            },
            {
                "start_time": 32.17727272727272,
                "end_time": 32.277272727272724,
                "pitch": 71,
                "velocity": 40,
                "duration": 0.10000000000000142,
                "tempo": 120.0
            },
            {
                "start_time": 32.29772727272727,
                "end_time": 32.4,
                "pitch": 78,
                "velocity": 40,
                "duration": 0.10227272727272663,
                "tempo": 120.0
            },
            {
                "start_time": 32.42045454545455,
                "end_time": 32.52045454545454,
                "pitch": 71,
                "velocity": 40,
                "duration": 0.09999999999999432,
                "tempo": 120.0
            },
            {
                "start_time": 32.54090909090909,
                "end_time": 32.64090909090909,
                "pitch": 78,
                "velocity": 40,
                "duration": 0.10000000000000142,
                "tempo": 120.0
            },
            {
                "start_time": 32.66136363636363,
                "end_time": 32.763636363636365,
                "pitch": 71,
                "velocity": 40,
                "duration": 0.10227272727273373,
                "tempo": 120.0
            },
            {
                "start_time": 32.78409090909091,
                "end_time": 32.88409090909091,
                "pitch": 78,
                "velocity": 40,
                "duration": 0.10000000000000142,
                "tempo": 120.0
            },
            {
                "start_time": 32.904545454545456,
                "end_time": 33.00454545454545,
                "pitch": 71,
                "velocity": 40,
                "duration": 0.09999999999999432,
                "tempo": 120.0
            },
            {
                "start_time": 33.025,
                "end_time": 33.127272727272725,
                "pitch": 78,
                "velocity": 40,
                "duration": 0.10227272727272663,
                "tempo": 120.0
            },
            {
                "start_time": 33.14772727272727,
                "end_time": 33.24772727272727,
                "pitch": 71,
                "velocity": 40,
                "duration": 0.09999999999999432,
                "tempo": 120.0
            },
            {
                "start_time": 33.268181818181816,
                "end_time": 33.36818181818182,
                "pitch": 78,
                "velocity": 40,
                "duration": 0.10000000000000142,
                "tempo": 120.0
            },
            {
                "start_time": 33.388636363636365,
                "end_time": 33.49090909090909,
                "pitch": 71,
                "velocity": 40,
                "duration": 0.10227272727272663,
                "tempo": 120.0
            },
            {
                "start_time": 33.51136363636363,
                "end_time": 33.611363636363635,
                "pitch": 78,
                "velocity": 40,
                "duration": 0.10000000000000142,
                "tempo": 120.0
            },
            {
                "start_time": 33.63181818181818,
                "end_time": 33.73181818181818,
                "pitch": 71,
                "velocity": 40,
                "duration": 0.09999999999999432,
                "tempo": 120.0
            },
            {
                "start_time": 33.752272727272725,
                "end_time": 33.85227272727273,
                "pitch": 78,
                "velocity": 40,
                "duration": 0.10000000000000142,
                "tempo": 120.0
            },
            {
                "start_time": 33.87272727272727,
                "end_time": 33.97272727272727,
                "pitch": 71,
                "velocity": 40,
                "duration": 0.10000000000000142,
                "tempo": 120.0
            },
            {
                "start_time": 33.99318181818182,
                "end_time": 34.09318181818182,
                "pitch": 78,
                "velocity": 40,
                "duration": 0.10000000000000142,
                "tempo": 120.0
            },
            {
                "start_time": 34.11363636363636,
                "end_time": 34.21363636363636,
                "pitch": 71,
                "velocity": 40,
                "duration": 0.10000000000000142,
                "tempo": 120.0
            },
            {
                "start_time": 34.23181818181818,
                "end_time": 34.33181818181818,
                "pitch": 78,
                "velocity": 40,
                "duration": 0.10000000000000142,
                "tempo": 120.0
            },
            {
                "start_time": 34.35227272727273,
                "end_time": 34.45227272727273,
                "pitch": 71,
                "velocity": 40,
                "duration": 0.10000000000000142,
                "tempo": 120.0
            },
            {
                "start_time": 34.47272727272727,
                "end_time": 80.05,
                "pitch": 59,
                "velocity": 40,
                "duration": 45.57727272727273,
                "tempo": 120.0
            },
            {
                "start_time": 80.05,
                "end_time": 80.10227272727272,
                "pitch": 64,
                "velocity": 40,
                "duration": 0.052272727272722364,
                "tempo": 120.0
            },
            {
                "start_time": 80.11590909090908,
                "end_time": 80.18181818181817,
                "pitch": 60,
                "velocity": 51,
                "duration": 0.06590909090908781,
                "tempo": 120.0
            },
            {
                "start_time": 80.19545454545454,
                "end_time": 80.26363636363637,
                "pitch": 55,
                "velocity": 51,
                "duration": 0.06818181818182723,
                "tempo": 120.0
            },
            {
                "start_time": 80.27499999999999,
                "end_time": 80.34318181818182,
                "pitch": 60,
                "velocity": 51,
                "duration": 0.06818181818182723,
                "tempo": 120.0
            },
            {
                "start_time": 80.35681818181818,
                "end_time": 80.42272727272727,
                "pitch": 55,
                "velocity": 51,
                "duration": 0.06590909090908781,
                "tempo": 120.0
            },
            {
                "start_time": 80.43636363636364,
                "end_time": 80.50454545454545,
                "pitch": 52,
                "velocity": 51,
                "duration": 0.06818181818181301,
                "tempo": 120.0
            },
            {
                "start_time": 80.51590909090909,
                "end_time": 80.5840909090909,
                "pitch": 64,
                "velocity": 51,
                "duration": 0.06818181818181301,
                "tempo": 120.0
            },
            {
                "start_time": 80.59772727272727,
                "end_time": 80.66363636363636,
                "pitch": 60,
                "velocity": 51,
                "duration": 0.06590909090908781,
                "tempo": 120.0
            },
            {
                "start_time": 80.67727272727272,
                "end_time": 80.74545454545454,
                "pitch": 55,
                "velocity": 51,
                "duration": 0.06818181818181301,
                "tempo": 120.0
            },
            {
                "start_time": 80.7590909090909,
                "end_time": 80.825,
                "pitch": 60,
                "velocity": 51,
                "duration": 0.06590909090910202,
                "tempo": 120.0
            },
            {
                "start_time": 80.83863636363635,
                "end_time": 80.90454545454546,
                "pitch": 55,
                "velocity": 51,
                "duration": 0.06590909090910202,
                "tempo": 120.0
            },
            {
                "start_time": 80.91818181818181,
                "end_time": 80.98409090909091,
                "pitch": 52,
                "velocity": 51,
                "duration": 0.06590909090910202,
                "tempo": 120.0
            },
            {
                "start_time": 80.99772727272727,
                "end_time": 81.06590909090909,
                "pitch": 64,
                "velocity": 51,
                "duration": 0.06818181818181301,
                "tempo": 120.0
            },
            {
                "start_time": 81.07954545454545,
                "end_time": 81.14545454545454,
                "pitch": 60,
                "velocity": 51,
                "duration": 0.06590909090908781,
                "tempo": 120.0
            },
            {
                "start_time": 81.1590909090909,
                "end_time": 81.22727272727272,
                "pitch": 55,
                "velocity": 51,
                "duration": 0.06818181818181301,
                "tempo": 120.0
            },
            {
                "start_time": 81.23863636363636,
                "end_time": 81.30681818181817,
                "pitch": 60,
                "velocity": 51,
                "duration": 0.06818181818181301,
                "tempo": 120.0
            },
            {
                "start_time": 81.32045454545454,
                "end_time": 81.38636363636363,
                "pitch": 55,
                "velocity": 51,
                "duration": 0.06590909090908781,
                "tempo": 120.0
            },
            {
                "start_time": 81.39999999999999,
                "end_time": 81.46818181818182,
                "pitch": 52,
                "velocity": 51,
                "duration": 0.06818181818182723,
                "tempo": 120.0
            },
            {
                "start_time": 81.48181818181818,
                "end_time": 81.54772727272727,
                "pitch": 64,
                "velocity": 51,
                "duration": 0.06590909090908781,
                "tempo": 120.0
            },
            {
                "start_time": 81.56136363636364,
                "end_time": 81.62954545454545,
                "pitch": 60,
                "velocity": 51,
                "duration": 0.06818181818181301,
                "tempo": 120.0
            },
            {
                "start_time": 81.64318181818182,
                "end_time": 81.71136363636363,
                "pitch": 55,
                "velocity": 51,
                "duration": 0.06818181818181301,
                "tempo": 120.0
            },
            {
                "start_time": 81.725,
                "end_time": 81.79318181818181,
                "pitch": 60,
                "velocity": 51,
                "duration": 0.06818181818181301,
                "tempo": 120.0
            },
            {
                "start_time": 81.80681818181817,
                "end_time": 81.875,
                "pitch": 55,
                "velocity": 51,
                "duration": 0.06818181818182723,
                "tempo": 120.0
            },
            {
                "start_time": 81.88863636363637,
                "end_time": 81.95681818181818,
                "pitch": 52,
                "velocity": 51,
                "duration": 0.06818181818181301,
                "tempo": 120.0
            },
            {
                "start_time": 81.97045454545454,
                "end_time": 82.03636363636363,
                "pitch": 66,
                "velocity": 51,
                "duration": 0.06590909090908781,
                "tempo": 120.0
            },
            {
                "start_time": 82.05,
                "end_time": 82.11363636363636,
                "pitch": 62,
                "velocity": 51,
                "duration": 0.0636363636363626,
                "tempo": 120.0
            },
            {
                "start_time": 82.12727272727273,
                "end_time": 82.19318181818181,
                "pitch": 57,
                "velocity": 51,
                "duration": 0.06590909090908781,
                "tempo": 120.0
            },
            {
                "start_time": 82.20681818181818,
                "end_time": 82.27045454545454,
                "pitch": 62,
                "velocity": 51,
                "duration": 0.0636363636363626,
                "tempo": 120.0
            },
            {
                "start_time": 82.2840909090909,
                "end_time": 82.35227272727272,
                "pitch": 57,
                "velocity": 51,
                "duration": 0.06818181818181301,
                "tempo": 120.0
            },
            {
                "start_time": 82.36363636363636,
                "end_time": 82.43181818181817,
                "pitch": 54,
                "velocity": 51,
                "duration": 0.06818181818181301,
                "tempo": 120.0
            },
            {
                "start_time": 82.44545454545454,
                "end_time": 82.51136363636363,
                "pitch": 66,
                "velocity": 51,
                "duration": 0.06590909090908781,
                "tempo": 120.0
            },
            {
                "start_time": 82.52499999999999,
                "end_time": 82.5909090909091,
                "pitch": 62,
                "velocity": 51,
                "duration": 0.06590909090910202,
                "tempo": 120.0
            },
            {
                "start_time": 82.60454545454544,
                "end_time": 82.67272727272727,
                "pitch": 57,
                "velocity": 51,
                "duration": 0.06818181818182723,
                "tempo": 120.0
            },
            {
                "start_time": 82.68636363636364,
                "end_time": 82.75454545454545,
                "pitch": 62,
                "velocity": 51,
                "duration": 0.06818181818181301,
                "tempo": 120.0
            },
            {
                "start_time": 82.76818181818182,
                "end_time": 82.83863636363635,
                "pitch": 57,
                "velocity": 51,
                "duration": 0.07045454545453822,
                "tempo": 120.0
            },
            {
                "start_time": 82.85227272727272,
                "end_time": 82.92045454545455,
                "pitch": 54,
                "velocity": 51,
                "duration": 0.06818181818182723,
                "tempo": 120.0
            },
            {
                "start_time": 82.9340909090909,
                "end_time": 82.99772727272727,
                "pitch": 66,
                "velocity": 51,
                "duration": 0.06363636363637681,
                "tempo": 120.0
            },
            {
                "start_time": 83.01136363636363,
                "end_time": 83.07727272727273,
                "pitch": 62,
                "velocity": 51,
                "duration": 0.06590909090910202,
                "tempo": 120.0
            },
            {
                "start_time": 83.0909090909091,
                "end_time": 83.15454545454546,
                "pitch": 57,
                "velocity": 51,
                "duration": 0.0636363636363626,
                "tempo": 120.0
            },
            {
                "start_time": 83.16818181818181,
                "end_time": 83.23409090909091,
                "pitch": 62,
                "velocity": 51,
                "duration": 0.06590909090910202,
                "tempo": 120.0
            },
            {
                "start_time": 83.24772727272727,
                "end_time": 83.31363636363636,
                "pitch": 57,
                "velocity": 51,
                "duration": 0.06590909090908781,
                "tempo": 120.0
            },
            {
                "start_time": 83.32727272727273,
                "end_time": 83.39318181818182,
                "pitch": 54,
                "velocity": 51,
                "duration": 0.06590909090908781,
                "tempo": 120.0
            },
            {
                "start_time": 83.40681818181818,
                "end_time": 83.47272727272727,
                "pitch": 66,
                "velocity": 51,
                "duration": 0.06590909090908781,
                "tempo": 120.0
            },
            {
                "start_time": 83.48636363636363,
                "end_time": 83.55454545454545,
                "pitch": 62,
                "velocity": 51,
                "duration": 0.06818181818181301,
                "tempo": 120.0
            },
            {
                "start_time": 83.56590909090909,
                "end_time": 83.63636363636363,
                "pitch": 57,
                "velocity": 51,
                "duration": 0.07045454545453822,
                "tempo": 120.0
            },
            {
                "start_time": 83.64999999999999,
                "end_time": 83.71818181818182,
                "pitch": 62,
                "velocity": 51,
                "duration": 0.06818181818182723,
                "tempo": 120.0
            },
            {
                "start_time": 83.73181818181818,
                "end_time": 83.8,
                "pitch": 57,
                "velocity": 51,
                "duration": 0.06818181818181301,
                "tempo": 120.0
            },
            {
                "start_time": 83.81363636363636,
                "end_time": 83.88181818181818,
                "pitch": 54,
                "velocity": 51,
                "duration": 0.06818181818181301,
                "tempo": 120.0
            },
            {
                "start_time": 83.89545454545454,
                "end_time": 83.96136363636363,
                "pitch": 64,
                "velocity": 51,
                "duration": 0.06590909090908781,
                "tempo": 120.0
            },
            {
                "start_time": 83.97272727272727,
                "end_time": 84.03863636363636,
                "pitch": 60,
                "velocity": 51,
                "duration": 0.06590909090908781,
                "tempo": 120.0
            },
            {
                "start_time": 84.05227272727272,
                "end_time": 84.11818181818181,
                "pitch": 57,
                "velocity": 51,
                "duration": 0.06590909090908781,
                "tempo": 120.0
            },
            {
                "start_time": 84.12954545454545,
                "end_time": 84.19545454545454,
                "pitch": 60,
                "velocity": 51,
                "duration": 0.06590909090908781,
                "tempo": 120.0
            },
            {
                "start_time": 84.2090909090909,
                "end_time": 84.27727272727272,
                "pitch": 57,
                "velocity": 51,
                "duration": 0.06818181818181301,
                "tempo": 120.0
            },
            {
                "start_time": 84.28863636363636,
                "end_time": 84.35681818181818,
                "pitch": 52,
                "velocity": 51,
                "duration": 0.06818181818182723,
                "tempo": 120.0
            },
            {
                "start_time": 84.37045454545454,
                "end_time": 84.43636363636364,
                "pitch": 64,
                "velocity": 51,
                "duration": 0.06590909090910202,
                "tempo": 120.0
            },
            {
                "start_time": 84.45,
                "end_time": 84.51818181818182,
                "pitch": 60,
                "velocity": 51,
                "duration": 0.06818181818181301,
                "tempo": 120.0
            },
            {
                "start_time": 84.53181818181818,
                "end_time": 84.6,
                "pitch": 57,
                "velocity": 51,
                "duration": 0.06818181818181301,
                "tempo": 120.0
            },
            {
                "start_time": 84.61363636363636,
                "end_time": 84.68181818181817,
                "pitch": 60,
                "velocity": 51,
                "duration": 0.06818181818181301,
                "tempo": 120.0
            },
            {
                "start_time": 84.69545454545454,
                "end_time": 84.76363636363637,
                "pitch": 57,
                "velocity": 51,
                "duration": 0.06818181818182723,
                "tempo": 120.0
            },
            {
                "start_time": 84.77727272727272,
                "end_time": 84.84545454545454,
                "pitch": 52,
                "velocity": 51,
                "duration": 0.06818181818182723,
                "tempo": 120.0
            },
            {
                "start_time": 84.85909090909091,
                "end_time": 84.925,
                "pitch": 64,
                "velocity": 51,
                "duration": 0.06590909090908781,
                "tempo": 120.0
            },
            {
                "start_time": 84.93863636363636,
                "end_time": 85.00454545454545,
                "pitch": 60,
                "velocity": 51,
                "duration": 0.06590909090908781,
                "tempo": 120.0
            },
            {
                "start_time": 85.01590909090909,
                "end_time": 85.08181818181818,
                "pitch": 57,
                "velocity": 51,
                "duration": 0.06590909090908781,
                "tempo": 120.0
            },
            {
                "start_time": 85.09545454545454,
                "end_time": 85.16136363636363,
                "pitch": 60,
                "velocity": 51,
                "duration": 0.06590909090908781,
                "tempo": 120.0
            },
            {
                "start_time": 85.17272727272727,
                "end_time": 85.24090909090908,
                "pitch": 57,
                "velocity": 51,
                "duration": 0.06818181818181301,
                "tempo": 120.0
            },
            {
                "start_time": 85.25454545454545,
                "end_time": 85.32045454545454,
                "pitch": 52,
                "velocity": 51,
                "duration": 0.06590909090908781,
                "tempo": 120.0
            },
            {
                "start_time": 85.3340909090909,
                "end_time": 85.40227272727272,
                "pitch": 64,
                "velocity": 51,
                "duration": 0.06818181818181301,
                "tempo": 120.0
            },
            {
                "start_time": 85.41590909090908,
                "end_time": 85.48181818181818,
                "pitch": 60,
                "velocity": 51,
                "duration": 0.06590909090910202,
                "tempo": 120.0
            },
            {
                "start_time": 85.49545454545454,
                "end_time": 85.56363636363636,
                "pitch": 57,
                "velocity": 51,
                "duration": 0.06818181818182723,
                "tempo": 120.0
            },
            {
                "start_time": 85.57727272727273,
                "end_time": 85.64545454545454,
                "pitch": 60,
                "velocity": 51,
                "duration": 0.06818181818181301,
                "tempo": 120.0
            },
            {
                "start_time": 85.66136363636363,
                "end_time": 85.72954545454544,
                "pitch": 57,
                "velocity": 51,
                "duration": 0.06818181818181301,
                "tempo": 120.0
            },
            {
                "start_time": 85.74318181818181,
                "end_time": 85.81136363636364,
                "pitch": 52,
                "velocity": 51,
                "duration": 0.06818181818182723,
                "tempo": 120.0
            },
            {
                "start_time": 85.825,
                "end_time": 85.88863636363637,
                "pitch": 66,
                "velocity": 51,
                "duration": 0.0636363636363626,
                "tempo": 120.0
            },
            {
                "start_time": 85.90227272727272,
                "end_time": 85.96818181818182,
                "pitch": 63,
                "velocity": 51,
                "duration": 0.06590909090910202,
                "tempo": 120.0
            },
            {
                "start_time": 85.98181818181818,
                "end_time": 86.04545454545455,
                "pitch": 59,
                "velocity": 51,
                "duration": 0.0636363636363626,
                "tempo": 120.0
            },
            {
                "start_time": 86.0590909090909,
                "end_time": 86.125,
                "pitch": 63,
                "velocity": 51,
                "duration": 0.06590909090910202,
                "tempo": 120.0
            },
            {
                "start_time": 86.13863636363637,
                "end_time": 86.20454545454545,
                "pitch": 59,
                "velocity": 51,
                "duration": 0.06590909090908781,
                "tempo": 120.0
            },
            {
                "start_time": 86.21818181818182,
                "end_time": 86.28636363636363,
                "pitch": 54,
                "velocity": 51,
                "duration": 0.06818181818181301,
                "tempo": 120.0
            },
            {
                "start_time": 86.3,
                "end_time": 86.36590909090908,
                "pitch": 66,
                "velocity": 51,
                "duration": 0.06590909090908781,
                "tempo": 120.0
            },
            {
                "start_time": 86.37954545454545,
                "end_time": 86.44772727272726,
                "pitch": 63,
                "velocity": 51,
                "duration": 0.06818181818181301,
                "tempo": 120.0
            },
            {
                "start_time": 86.46136363636363,
                "end_time": 86.52954545454546,
                "pitch": 59,
                "velocity": 51,
                "duration": 0.06818181818182723,
                "tempo": 120.0
            },
            {
                "start_time": 86.54318181818181,
                "end_time": 86.61136363636363,
                "pitch": 63,
                "velocity": 51,
                "duration": 0.06818181818182723,
                "tempo": 120.0
            },
            {
                "start_time": 86.625,
                "end_time": 86.69318181818181,
                "pitch": 59,
                "velocity": 51,
                "duration": 0.06818181818181301,
                "tempo": 120.0
            },
            {
                "start_time": 86.70681818181818,
                "end_time": 86.77499999999999,
                "pitch": 54,
                "velocity": 51,
                "duration": 0.06818181818181301,
                "tempo": 120.0
            },
            {
                "start_time": 86.78863636363636,
                "end_time": 86.85454545454544,
                "pitch": 66,
                "velocity": 51,
                "duration": 0.06590909090908781,
                "tempo": 120.0
            },
            {
                "start_time": 86.86818181818181,
                "end_time": 86.93181818181817,
                "pitch": 63,
                "velocity": 51,
                "duration": 0.0636363636363626,
                "tempo": 120.0
            },
            {
                "start_time": 86.94545454545454,
                "end_time": 87.01136363636363,
                "pitch": 59,
                "velocity": 51,
                "duration": 0.06590909090908781,
                "tempo": 120.0
            },
            {
                "start_time": 87.02499999999999,
                "end_time": 87.08863636363635,
                "pitch": 63,
                "velocity": 51,
                "duration": 0.0636363636363626,
                "tempo": 120.0
            },
            {
                "start_time": 87.10227272727272,
                "end_time": 87.16818181818181,
                "pitch": 59,
                "velocity": 51,
                "duration": 0.06590909090908781,
                "tempo": 120.0
            },
            {
                "start_time": 87.18181818181817,
                "end_time": 87.25,
                "pitch": 54,
                "velocity": 51,
                "duration": 0.06818181818182723,
                "tempo": 120.0
            },
            {
                "start_time": 87.26363636363637,
                "end_time": 87.32954545454545,
                "pitch": 66,
                "velocity": 51,
                "duration": 0.06590909090908781,
                "tempo": 120.0
            },
            {
                "start_time": 87.34318181818182,
                "end_time": 87.4090909090909,
                "pitch": 63,
                "velocity": 51,
                "duration": 0.06590909090908781,
                "tempo": 120.0
            },
            {
                "start_time": 87.42272727272727,
                "end_time": 87.48863636363636,
                "pitch": 59,
                "velocity": 51,
                "duration": 0.06590909090908781,
                "tempo": 120.0
            },
            {
                "start_time": 87.50227272727273,
                "end_time": 87.57045454545454,
                "pitch": 63,
                "velocity": 51,
                "duration": 0.06818181818181301,
                "tempo": 120.0
            },
            {
                "start_time": 87.5840909090909,
                "end_time": 87.64999999999999,
                "pitch": 59,
                "velocity": 51,
                "duration": 0.06590909090908781,
                "tempo": 120.0
            },
            {
                "start_time": 87.66363636363636,
                "end_time": 87.73181818181818,
                "pitch": 54,
                "velocity": 51,
                "duration": 0.06818181818182723,
                "tempo": 120.0
            },
            {
                "start_time": 87.74545454545454,
                "end_time": 87.81363636363636,
                "pitch": 64,
                "velocity": 51,
                "duration": 0.06818181818182723,
                "tempo": 120.0
            },
            {
                "start_time": 87.82727272727273,
                "end_time": 87.89545454545454,
                "pitch": 60,
                "velocity": 51,
                "duration": 0.06818181818181301,
                "tempo": 120.0
            },
            {
                "start_time": 87.9090909090909,
                "end_time": 87.97727272727272,
                "pitch": 55,
                "velocity": 51,
                "duration": 0.06818181818181301,
                "tempo": 120.0
            },
            {
                "start_time": 87.99090909090908,
                "end_time": 88.0590909090909,
                "pitch": 60,
                "velocity": 51,
                "duration": 0.06818181818181301,
                "tempo": 120.0
            },
            {
                "start_time": 88.07272727272726,
                "end_time": 88.13863636363637,
                "pitch": 55,
                "velocity": 51,
                "duration": 0.06590909090910202,
                "tempo": 120.0
            },
            {
                "start_time": 88.15227272727272,
                "end_time": 88.2159090909091,
                "pitch": 52,
                "velocity": 51,
                "duration": 0.06363636363637681,
                "tempo": 120.0
            },
            {
                "start_time": 88.22954545454544,
                "end_time": 88.29545454545455,
                "pitch": 64,
                "velocity": 51,
                "duration": 0.06590909090910202,
                "tempo": 120.0
            },
            {
                "start_time": 88.3090909090909,
                "end_time": 88.37272727272727,
                "pitch": 60,
                "velocity": 51,
                "duration": 0.06363636363637681,
                "tempo": 120.0
            },
            {
                "start_time": 88.38636363636363,
                "end_time": 88.45454545454545,
                "pitch": 55,
                "velocity": 51,
                "duration": 0.06818181818182723,
                "tempo": 120.0
            },
            {
                "start_time": 88.46818181818182,
                "end_time": 88.53863636363636,
                "pitch": 60,
                "velocity": 51,
                "duration": 0.07045454545453822,
                "tempo": 120.0
            },
            {
                "start_time": 88.55227272727272,
                "end_time": 88.62045454545454,
                "pitch": 55,
                "velocity": 51,
                "duration": 0.06818181818181301,
                "tempo": 120.0
            },
            {
                "start_time": 88.6340909090909,
                "end_time": 88.70227272727273,
                "pitch": 52,
                "velocity": 51,
                "duration": 0.06818181818182723,
                "tempo": 120.0
            },
            {
                "start_time": 88.7159090909091,
                "end_time": 88.78181818181818,
                "pitch": 64,
                "velocity": 51,
                "duration": 0.06590909090908781,
                "tempo": 120.0
            },
            {
                "start_time": 88.79545454545455,
                "end_time": 88.86363636363636,
                "pitch": 60,
                "velocity": 51,
                "duration": 0.06818181818181301,
                "tempo": 120.0
            },
            {
                "start_time": 88.87727272727273,
                "end_time": 88.94318181818181,
                "pitch": 55,
                "velocity": 51,
                "duration": 0.06590909090908781,
                "tempo": 120.0
            },
            {
                "start_time": 88.95681818181818,
                "end_time": 89.02499999999999,
                "pitch": 60,
                "velocity": 51,
                "duration": 0.06818181818181301,
                "tempo": 120.0
            },
            {
                "start_time": 89.03863636363636,
                "end_time": 89.10227272727272,
                "pitch": 55,
                "velocity": 51,
                "duration": 0.0636363636363626,
                "tempo": 120.0
            },
            {
                "start_time": 89.11590909090908,
                "end_time": 89.18181818181817,
                "pitch": 52,
                "velocity": 51,
                "duration": 0.06590909090908781,
                "tempo": 120.0
            },
            {
                "start_time": 89.19545454545454,
                "end_time": 89.2590909090909,
                "pitch": 64,
                "velocity": 51,
                "duration": 0.0636363636363626,
                "tempo": 120.0
            },
            {
                "start_time": 89.27272727272727,
                "end_time": 89.33863636363635,
                "pitch": 60,
                "velocity": 51,
                "duration": 0.06590909090908781,
                "tempo": 120.0
            },
            {
                "start_time": 89.35227272727272,
                "end_time": 89.41818181818181,
                "pitch": 55,
                "velocity": 51,
                "duration": 0.06590909090908781,
                "tempo": 120.0
            },
            {
                "start_time": 89.43181818181817,
                "end_time": 89.5,
                "pitch": 60,
                "velocity": 51,
                "duration": 0.06818181818182723,
                "tempo": 120.0
            },
            {
                "start_time": 89.51363636363637,
                "end_time": 89.57954545454545,
                "pitch": 55,
                "velocity": 51,
                "duration": 0.06590909090908781,
                "tempo": 120.0
            },
            {
                "start_time": 89.59318181818182,
                "end_time": 89.66136363636363,
                "pitch": 52,
                "velocity": 51,
                "duration": 0.06818181818181301,
                "tempo": 120.0
            },
            {
                "start_time": 89.67272727272727,
                "end_time": 89.74318181818181,
                "pitch": 66,
                "velocity": 51,
                "duration": 0.07045454545453822,
                "tempo": 120.0
            },
            {
                "start_time": 89.75681818181818,
                "end_time": 89.82499999999999,
                "pitch": 62,
                "velocity": 51,
                "duration": 0.06818181818181301,
                "tempo": 120.0
            },
            {
                "start_time": 89.83863636363635,
                "end_time": 89.90681818181818,
                "pitch": 57,
                "velocity": 51,
                "duration": 0.06818181818182723,
                "tempo": 120.0
            },
            {
                "start_time": 89.92045454545455,
                "end_time": 89.98863636363636,
                "pitch": 62,
                "velocity": 51,
                "duration": 0.06818181818181301,
                "tempo": 120.0
            },
            {
                "start_time": 90.00227272727273,
                "end_time": 90.06818181818181,
                "pitch": 57,
                "velocity": 51,
                "duration": 0.06590909090908781,
                "tempo": 120.0
            },
            {
                "start_time": 90.07954545454545,
                "end_time": 90.14545454545454,
                "pitch": 62,
                "velocity": 51,
                "duration": 0.06590909090908781,
                "tempo": 120.0
            },
            {
                "start_time": 90.1590909090909,
                "end_time": 90.225,
                "pitch": 66,
                "velocity": 51,
                "duration": 0.06590909090908781,
                "tempo": 120.0
            },
            {
                "start_time": 90.23636363636363,
                "end_time": 90.30227272727272,
                "pitch": 62,
                "velocity": 51,
                "duration": 0.06590909090908781,
                "tempo": 120.0
            },
            {
                "start_time": 90.31590909090909,
                "end_time": 90.3840909090909,
                "pitch": 57,
                "velocity": 51,
                "duration": 0.06818181818181301,
                "tempo": 120.0
            },
            {
                "start_time": 90.39772727272727,
                "end_time": 90.4659090909091,
                "pitch": 62,
                "velocity": 51,
                "duration": 0.06818181818182723,
                "tempo": 120.0
            },
            {
                "start_time": 90.47954545454544,
                "end_time": 90.54772727272727,
                "pitch": 57,
                "velocity": 51,
                "duration": 0.06818181818182723,
                "tempo": 120.0
            },
            {
                "start_time": 90.56136363636364,
                "end_time": 90.63181818181818,
                "pitch": 62,
                "velocity": 51,
                "duration": 0.07045454545453822,
                "tempo": 120.0
            },
            {
                "start_time": 90.64545454545454,
                "end_time": 90.71136363636363,
                "pitch": 66,
                "velocity": 51,
                "duration": 0.06590909090908781,
                "tempo": 120.0
            },
            {
                "start_time": 90.725,
                "end_time": 90.79318181818181,
                "pitch": 62,
                "velocity": 51,
                "duration": 0.06818181818181301,
                "tempo": 120.0
            },
            {
                "start_time": 90.80454545454545,
                "end_time": 90.87272727272727,
                "pitch": 57,
                "velocity": 51,
                "duration": 0.06818181818182723,
                "tempo": 120.0
            },
            {
                "start_time": 90.88636363636363,
                "end_time": 90.95227272727273,
                "pitch": 62,
                "velocity": 51,
                "duration": 0.06590909090910202,
                "tempo": 120.0
            },
            {
                "start_time": 90.9659090909091,
                "end_time": 91.03181818181818,
                "pitch": 57,
                "velocity": 51,
                "duration": 0.06590909090908781,
                "tempo": 120.0
            },
            {
                "start_time": 91.04545454545455,
                "end_time": 91.11136363636363,
                "pitch": 62,
                "velocity": 51,
                "duration": 0.06590909090908781,
                "tempo": 120.0
            },
            {
                "start_time": 91.12272727272727,
                "end_time": 91.18863636363636,
                "pitch": 66,
                "velocity": 51,
                "duration": 0.06590909090908781,
                "tempo": 120.0
            },
            {
                "start_time": 91.20227272727273,
                "end_time": 91.26818181818182,
                "pitch": 62,
                "velocity": 51,
                "duration": 0.06590909090908781,
                "tempo": 120.0
            },
            {
                "start_time": 91.27954545454546,
                "end_time": 91.34772727272727,
                "pitch": 57,
                "velocity": 51,
                "duration": 0.06818181818181301,
                "tempo": 120.0
            },
            {
                "start_time": 91.36136363636363,
                "end_time": 91.43181818181817,
                "pitch": 62,
                "velocity": 51,
                "duration": 0.07045454545453822,
                "tempo": 120.0
            },
            {
                "start_time": 91.44545454545454,
                "end_time": 91.51363636363637,
                "pitch": 57,
                "velocity": 51,
                "duration": 0.06818181818182723,
                "tempo": 120.0
            },
            {
                "start_time": 91.52727272727272,
                "end_time": 91.59545454545454,
                "pitch": 62,
                "velocity": 51,
                "duration": 0.06818181818182723,
                "tempo": 120.0
            },
            {
                "start_time": 92.57272727272726,
                "end_time": 92.88636363636363,
                "pitch": 55,
                "velocity": 51,
                "duration": 0.3136363636363626,
                "tempo": 120.0
            },
            {
                "start_time": 92.88636363636363,
                "end_time": 92.95454545454545,
                "pitch": 55,
                "velocity": 51,
                "duration": 0.06818181818182723,
                "tempo": 120.0
            },
            {
                "start_time": 92.95454545454545,
                "end_time": 93.03636363636363,
                "pitch": 55,
                "velocity": 51,
                "duration": 0.08181818181817846,
                "tempo": 120.0
            },
            {
                "start_time": 93.05227272727272,
                "end_time": 93.52272727272727,
                "pitch": 57,
                "velocity": 51,
                "duration": 0.4704545454545439,
                "tempo": 120.0
            }
        ],
        "French Horn": [
            {
                "start_time": 12.770454545454545,
                "end_time": 14.197727272727272,
                "pitch": 66,
                "velocity": 64,
                "duration": 1.4272727272727277,
                "tempo": 120.0
            },
            {
                "start_time": 14.218181818181817,
                "end_time": 15.638636363636364,
                "pitch": 67,
                "velocity": 64,
                "duration": 1.4204545454545467,
                "tempo": 120.0
            },
            {
                "start_time": 15.659090909090908,
                "end_time": 17.086363636363636,
                "pitch": 71,
                "velocity": 64,
                "duration": 1.4272727272727277,
                "tempo": 120.0
            },
            {
                "start_time": 17.104545454545455,
                "end_time": 18.525,
                "pitch": 62,
                "velocity": 64,
                "duration": 1.4204545454545432,
                "tempo": 120.0
            },
            {
                "start_time": 18.545454545454543,
                "end_time": 19.96590909090909,
                "pitch": 64,
                "velocity": 64,
                "duration": 1.4204545454545467,
                "tempo": 120.0
            },
            {
                "start_time": 19.986363636363635,
                "end_time": 21.413636363636364,
                "pitch": 66,
                "velocity": 64,
                "duration": 1.4272727272727295,
                "tempo": 120.0
            },
            {
                "start_time": 21.43181818181818,
                "end_time": 22.868181818181817,
                "pitch": 74,
                "velocity": 64,
                "duration": 1.4363636363636374,
                "tempo": 120.0
            },
            {
                "start_time": 22.886363636363637,
                "end_time": 24.313636363636363,
                "pitch": 72,
                "velocity": 64,
                "duration": 1.427272727272726,
                "tempo": 120.0
            },
            {
                "start_time": 24.334090909090907,
                "end_time": 25.761363636363637,
                "pitch": 74,
                "velocity": 64,
                "duration": 1.4272727272727295,
                "tempo": 120.0
            },
            {
                "start_time": 25.78181818181818,
                "end_time": 27.209090909090907,
                "pitch": 76,
                "velocity": 64,
                "duration": 1.427272727272726,
                "tempo": 120.0
            },
            {
                "start_time": 27.229545454545452,
                "end_time": 28.65681818181818,
                "pitch": 78,
                "velocity": 64,
                "duration": 1.4272727272727295,
                "tempo": 120.0
            },
            {
                "start_time": 28.677272727272726,
                "end_time": 31.55909090909091,
                "pitch": 76,
                "velocity": 64,
                "duration": 2.8818181818181827,
                "tempo": 120.0
            },
            {
                "start_time": 31.577272727272724,
                "end_time": 34.45227272727273,
                "pitch": 75,
                "velocity": 64,
                "duration": 2.8750000000000036,
                "tempo": 120.0
            },
            {
                "start_time": 59.11363636363636,
                "end_time": 60.570454545454545,
                "pitch": 62,
                "velocity": 64,
                "duration": 1.4568181818181856,
                "tempo": 120.0
            },
            {
                "start_time": 60.590909090909086,
                "end_time": 62.00454545454545,
                "pitch": 67,
                "velocity": 64,
                "duration": 1.413636363636364,
                "tempo": 120.0
            },
            {
                "start_time": 62.025,
                "end_time": 63.45227272727272,
                "pitch": 64,
                "velocity": 64,
                "duration": 1.4272727272727224,
                "tempo": 120.0
            },
            {
                "start_time": 63.47272727272727,
                "end_time": 64.89999999999999,
                "pitch": 60,
                "velocity": 64,
                "duration": 1.4272727272727224,
                "tempo": 120.0
            },
            {
                "start_time": 64.91818181818182,
                "end_time": 66.36136363636363,
                "pitch": 57,
                "velocity": 64,
                "duration": 1.443181818181813,
                "tempo": 120.0
            },
            {
                "start_time": 66.37954545454545,
                "end_time": 67.8,
                "pitch": 59,
                "velocity": 64,
                "duration": 1.4204545454545467,
                "tempo": 120.0
            },
            {
                "start_time": 67.82045454545454,
                "end_time": 68.04545454545455,
                "pitch": 52,
                "velocity": 64,
                "duration": 0.22500000000000853,
                "tempo": 120.0
            },
            {
                "start_time": 68.06590909090909,
                "end_time": 68.29090909090908,
                "pitch": 55,
                "velocity": 64,
                "duration": 0.22499999999999432,
                "tempo": 120.0
            },
            {
                "start_time": 68.30909090909091,
                "end_time": 68.5340909090909,
                "pitch": 59,
                "velocity": 64,
                "duration": 0.22499999999999432,
                "tempo": 120.0
            },
            {
                "start_time": 68.55454545454545,
                "end_time": 68.77272727272727,
                "pitch": 64,
                "velocity": 64,
                "duration": 0.2181818181818187,
                "tempo": 120.0
            },
            {
                "start_time": 68.79318181818182,
                "end_time": 69.01136363636363,
                "pitch": 67,
                "velocity": 64,
                "duration": 0.2181818181818045,
                "tempo": 120.0
            },
            {
                "start_time": 69.02954545454546,
                "end_time": 69.24772727272727,
                "pitch": 71,
                "velocity": 64,
                "duration": 0.2181818181818187,
                "tempo": 120.0
            },
            {
                "start_time": 69.26818181818182,
                "end_time": 69.49318181818181,
                "pitch": 72,
                "velocity": 64,
                "duration": 0.22499999999999432,
                "tempo": 120.0
            },
            {
                "start_time": 69.51136363636363,
                "end_time": 69.73636363636363,
                "pitch": 67,
                "velocity": 64,
                "duration": 0.22500000000000853,
                "tempo": 120.0
            },
            {
                "start_time": 69.75681818181818,
                "end_time": 69.98181818181818,
                "pitch": 64,
                "velocity": 64,
                "duration": 0.22500000000000853,
                "tempo": 120.0
            },
            {
                "start_time": 70.00227272727273,
                "end_time": 70.22045454545454,
                "pitch": 72,
                "velocity": 64,
                "duration": 0.2181818181818187,
                "tempo": 120.0
            },
            {
                "start_time": 70.24090909090908,
                "end_time": 70.45681818181818,
                "pitch": 67,
                "velocity": 64,
                "duration": 0.2159090909090935,
                "tempo": 120.0
            },
            {
                "start_time": 70.47727272727272,
                "end_time": 70.69545454545454,
                "pitch": 64,
                "velocity": 64,
                "duration": 0.2181818181818187,
                "tempo": 120.0
            },
            {
                "start_time": 70.7159090909091,
                "end_time": 70.93863636363636,
                "pitch": 69,
                "velocity": 64,
                "duration": 0.2227272727272691,
                "tempo": 120.0
            },
            {
                "start_time": 70.9590909090909,
                "end_time": 71.18409090909091,
                "pitch": 66,
                "velocity": 64,
                "duration": 0.22500000000000853,
                "tempo": 120.0
            },
            {
                "start_time": 71.20454545454545,
                "end_time": 71.42954545454545,
                "pitch": 62,
                "velocity": 64,
                "duration": 0.22499999999999432,
                "tempo": 120.0
            },
            {
                "start_time": 71.45,
                "end_time": 71.67045454545455,
                "pitch": 69,
                "velocity": 64,
                "duration": 0.2204545454545439,
                "tempo": 120.0
            },
            {
                "start_time": 71.68863636363636,
                "end_time": 71.9090909090909,
                "pitch": 66,
                "velocity": 64,
                "duration": 0.2204545454545439,
                "tempo": 120.0
            },
            {
                "start_time": 71.92954545454545,
                "end_time": 72.14999999999999,
                "pitch": 62,
                "velocity": 64,
                "duration": 0.2204545454545439,
                "tempo": 120.0
            },
            {
                "start_time": 72.17045454545455,
                "end_time": 72.39090909090909,
                "pitch": 71,
                "velocity": 64,
                "duration": 0.2204545454545439,
                "tempo": 120.0
            },
            {
                "start_time": 72.41136363636363,
                "end_time": 72.6340909090909,
                "pitch": 67,
                "velocity": 64,
                "duration": 0.2227272727272691,
                "tempo": 120.0
            },
            {
                "start_time": 72.65454545454546,
                "end_time": 72.87727272727273,
                "pitch": 62,
                "velocity": 64,
                "duration": 0.2227272727272691,
                "tempo": 120.0
            },
            {
                "start_time": 72.89772727272727,
                "end_time": 73.11818181818181,
                "pitch": 71,
                "velocity": 64,
                "duration": 0.2204545454545439,
                "tempo": 120.0
            },
            {
                "start_time": 73.13863636363637,
                "end_time": 73.36136363636363,
                "pitch": 67,
                "velocity": 64,
                "duration": 0.2227272727272691,
                "tempo": 120.0
            },
            {
                "start_time": 73.38181818181818,
                "end_time": 73.60454545454544,
                "pitch": 62,
                "velocity": 64,
                "duration": 0.2227272727272691,
                "tempo": 120.0
            },
            {
                "start_time": 73.625,
                "end_time": 73.84545454545454,
                "pitch": 71,
                "velocity": 64,
                "duration": 0.2204545454545439,
                "tempo": 120.0
            },
            {
                "start_time": 73.86590909090908,
                "end_time": 74.08863636363635,
                "pitch": 67,
                "velocity": 64,
                "duration": 0.2227272727272691,
                "tempo": 120.0
            },
            {
                "start_time": 74.10909090909091,
                "end_time": 74.33181818181818,
                "pitch": 64,
                "velocity": 64,
                "duration": 0.2227272727272691,
                "tempo": 120.0
            },
            {
                "start_time": 74.35227272727272,
                "end_time": 74.57272727272726,
                "pitch": 71,
                "velocity": 64,
                "duration": 0.2204545454545439,
                "tempo": 120.0
            },
            {
                "start_time": 74.59318181818182,
                "end_time": 74.81590909090909,
                "pitch": 67,
                "velocity": 64,
                "duration": 0.2227272727272691,
                "tempo": 120.0
            },
            {
                "start_time": 74.83636363636363,
                "end_time": 75.05909090909091,
                "pitch": 64,
                "velocity": 64,
                "duration": 0.22272727272728332,
                "tempo": 120.0
            },
            {
                "start_time": 75.07954545454545,
                "end_time": 75.29772727272727,
                "pitch": 72,
                "velocity": 64,
                "duration": 0.2181818181818187,
                "tempo": 120.0
            },
            {
                "start_time": 75.31818181818181,
                "end_time": 75.53863636363636,
                "pitch": 67,
                "velocity": 64,
                "duration": 0.2204545454545439,
                "tempo": 120.0
            },
            {
                "start_time": 75.55909090909091,
                "end_time": 75.77954545454546,
                "pitch": 64,
                "velocity": 64,
                "duration": 0.2204545454545439,
                "tempo": 120.0
            },
            {
                "start_time": 75.79772727272727,
                "end_time": 76.01136363636363,
                "pitch": 72,
                "velocity": 64,
                "duration": 0.21363636363635408,
                "tempo": 120.0
            },
            {
                "start_time": 76.03181818181818,
                "end_time": 76.24545454545454,
                "pitch": 67,
                "velocity": 64,
                "duration": 0.21363636363635408,
                "tempo": 120.0
            },
            {
                "start_time": 76.26363636363637,
                "end_time": 76.47727272727272,
                "pitch": 64,
                "velocity": 64,
                "duration": 0.21363636363635408,
                "tempo": 120.0
            },
            {
                "start_time": 76.49772727272727,
                "end_time": 76.725,
                "pitch": 69,
                "velocity": 64,
                "duration": 0.22727272727271952,
                "tempo": 120.0
            },
            {
                "start_time": 76.74772727272727,
                "end_time": 76.975,
                "pitch": 66,
                "velocity": 64,
                "duration": 0.22727272727271952,
                "tempo": 120.0
            },
            {
                "start_time": 76.99772727272727,
                "end_time": 77.225,
                "pitch": 62,
                "velocity": 64,
                "duration": 0.22727272727271952,
                "tempo": 120.0
            },
            {
                "start_time": 77.24772727272727,
                "end_time": 77.46363636363635,
                "pitch": 69,
                "velocity": 64,
                "duration": 0.21590909090907928,
                "tempo": 120.0
            },
            {
                "start_time": 77.48409090909091,
                "end_time": 77.70227272727273,
                "pitch": 66,
                "velocity": 64,
                "duration": 0.2181818181818187,
                "tempo": 120.0
            },
            {
                "start_time": 77.72272727272727,
                "end_time": 77.93863636363636,
                "pitch": 62,
                "velocity": 64,
                "duration": 0.2159090909090935,
                "tempo": 120.0
            },
            {
                "start_time": 77.9590909090909,
                "end_time": 78.17954545454545,
                "pitch": 67,
                "velocity": 64,
                "duration": 0.2204545454545439,
                "tempo": 120.0
            },
            {
                "start_time": 78.2,
                "end_time": 78.42045454545455,
                "pitch": 64,
                "velocity": 64,
                "duration": 0.2204545454545439,
                "tempo": 120.0
            },
            {
                "start_time": 78.43636363636364,
                "end_time": 78.57954545454545,
                "pitch": 59,
                "velocity": 64,
                "duration": 0.14318181818181586,
                "tempo": 120.0
            },
            {
                "start_time": 78.59318181818182,
                "end_time": 78.73636363636363,
                "pitch": 64,
                "velocity": 64,
                "duration": 0.14318181818181586,
                "tempo": 120.0
            },
            {
                "start_time": 78.75,
                "end_time": 78.89772727272727,
                "pitch": 59,
                "velocity": 64,
                "duration": 0.14772727272726627,
                "tempo": 120.0
            },
            {
                "start_time": 78.91136363636363,
                "end_time": 79.05909090909091,
                "pitch": 55,
                "velocity": 64,
                "duration": 0.14772727272728048,
                "tempo": 120.0
            },
            {
                "start_time": 79.07045454545454,
                "end_time": 79.22272727272727,
                "pitch": 67,
                "velocity": 64,
                "duration": 0.1522727272727309,
                "tempo": 120.0
            },
            {
                "start_time": 79.23636363636363,
                "end_time": 79.38636363636363,
                "pitch": 64,
                "velocity": 64,
                "duration": 0.14999999999999147,
                "tempo": 120.0
            },
            {
                "start_time": 79.39999999999999,
                "end_time": 79.54318181818181,
                "pitch": 59,
                "velocity": 64,
                "duration": 0.14318181818181586,
                "tempo": 120.0
            },
            {
                "start_time": 79.55681818181817,
                "end_time": 79.7,
                "pitch": 64,
                "velocity": 64,
                "duration": 0.14318181818183007,
                "tempo": 120.0
            },
            {
                "start_time": 79.71363636363635,
                "end_time": 79.86136363636363,
                "pitch": 59,
                "velocity": 64,
                "duration": 0.14772727272728048,
                "tempo": 120.0
            },
            {
                "start_time": 79.875,
                "end_time": 80.02272727272727,
                "pitch": 55,
                "velocity": 64,
                "duration": 0.14772727272726627,
                "tempo": 120.0
            },
            {
                "start_time": 80.03636363636363,
                "end_time": 80.98409090909091,
                "pitch": 72,
                "velocity": 64,
                "duration": 0.9477272727272776,
                "tempo": 120.0
            },
            {
                "start_time": 80.99772727272727,
                "end_time": 81.46818181818182,
                "pitch": 74,
                "velocity": 64,
                "duration": 0.4704545454545439,
                "tempo": 120.0
            },
            {
                "start_time": 81.48181818181818,
                "end_time": 81.95681818181818,
                "pitch": 76,
                "velocity": 64,
                "duration": 0.4749999999999943,
                "tempo": 120.0
            },
            {
                "start_time": 81.97045454545454,
                "end_time": 82.92045454545455,
                "pitch": 74,
                "velocity": 64,
                "duration": 0.9500000000000028,
                "tempo": 120.0
            },
            {
                "start_time": 82.9340909090909,
                "end_time": 83.39318181818182,
                "pitch": 72,
                "velocity": 64,
                "duration": 0.4590909090909179,
                "tempo": 120.0
            },
            {
                "start_time": 83.40681818181818,
                "end_time": 83.88181818181818,
                "pitch": 71,
                "velocity": 64,
                "duration": 0.4749999999999943,
                "tempo": 120.0
            },
            {
                "start_time": 83.89545454545454,
                "end_time": 84.84545454545454,
                "pitch": 69,
                "velocity": 64,
                "duration": 0.9500000000000028,
                "tempo": 120.0
            },
            {
                "start_time": 84.85909090909091,
                "end_time": 85.32045454545454,
                "pitch": 71,
                "velocity": 64,
                "duration": 0.46136363636362887,
                "tempo": 120.0
            },
            {
                "start_time": 85.3340909090909,
                "end_time": 85.81136363636364,
                "pitch": 72,
                "velocity": 64,
                "duration": 0.47727272727273373,
                "tempo": 120.0
            },
            {
                "start_time": 85.825,
                "end_time": 86.77499999999999,
                "pitch": 72,
                "velocity": 64,
                "duration": 0.9499999999999886,
                "tempo": 120.0
            },
            {
                "start_time": 86.78863636363636,
                "end_time": 87.73181818181818,
                "pitch": 71,
                "velocity": 64,
                "duration": 0.9431818181818272,
                "tempo": 120.0
            },
            {
                "start_time": 87.74545454545454,
                "end_time": 88.70227272727273,
                "pitch": 72,
                "velocity": 64,
                "duration": 0.9568181818181927,
                "tempo": 120.0
            },
            {
                "start_time": 88.7159090909091,
                "end_time": 89.18181818181817,
                "pitch": 74,
                "velocity": 64,
                "duration": 0.4659090909090793,
                "tempo": 120.0
            },
            {
                "start_time": 89.19545454545454,
                "end_time": 89.66136363636363,
                "pitch": 76,
                "velocity": 64,
                "duration": 0.4659090909090935,
                "tempo": 120.0
            },
            {
                "start_time": 89.67272727272727,
                "end_time": 90.63181818181818,
                "pitch": 74,
                "velocity": 64,
                "duration": 0.9590909090909037,
                "tempo": 120.0
            },
            {
                "start_time": 90.64545454545454,
                "end_time": 91.11136363636363,
                "pitch": 76,
                "velocity": 64,
                "duration": 0.4659090909090935,
                "tempo": 120.0
            },
            {
                "start_time": 91.12272727272727,
                "end_time": 91.59545454545454,
                "pitch": 78,
                "velocity": 64,
                "duration": 0.4727272727272691,
                "tempo": 120.0
            },
            {
                "start_time": 91.60909090909091,
                "end_time": 92.5590909090909,
                "pitch": 76,
                "velocity": 64,
                "duration": 0.9499999999999886,
                "tempo": 120.0
            },
            {
                "start_time": 92.57272727272726,
                "end_time": 93.03636363636363,
                "pitch": 67,
                "velocity": 64,
                "duration": 0.4636363636363683,
                "tempo": 120.0
            },
            {
                "start_time": 93.05227272727272,
                "end_time": 93.52272727272727,
                "pitch": 69,
                "velocity": 64,
                "duration": 0.4704545454545439,
                "tempo": 120.0
            }
        ]
    }
}