{
    "track_id": "Ys (FM) - 17 - See You Again",
    "mood": "happy",
    "instruments": {
        "Trumpet": [
            {
                "start_time": 1.1954545454545453,
                "end_time": 1.2772727272727271,
                "pitch": 57,
                "velocity": 51,
                "duration": 0.08181818181818179,
                "tempo": 120.0
            },
            {
                "start_time": 1.5954545454545455,
                "end_time": 2.202272727272727,
                "pitch": 57,
                "velocity": 51,
                "duration": 0.6068181818181817,
                "tempo": 120.0
            },
            {
                "start_time": 2.425,
                "end_time": 3.018181818181818,
                "pitch": 59,
                "velocity": 51,
                "duration": 0.5931818181818183,
                "tempo": 120.0
            },
            {
                "start_time": 3.036363636363636,
                "end_time": 3.815909090909091,
                "pitch": 57,
                "velocity": 51,
                "duration": 0.7795454545454548,
                "tempo": 120.0
            },
            {
                "start_time": 4.454545454545454,
                "end_time": 4.543181818181818,
                "pitch": 55,
                "velocity": 51,
                "duration": 0.08863636363636385,
                "tempo": 120.0
            },
            {
                "start_time": 4.877272727272727,
                "end_time": 5.468181818181818,
                "pitch": 57,
                "velocity": 51,
                "duration": 0.5909090909090908,
                "tempo": 120.0
            },
            {
                "start_time": 5.681818181818182,
                "end_time": 6.261363636363636,
                "pitch": 55,
                "velocity": 51,
                "duration": 0.5795454545454541,
                "tempo": 120.0
            },
            {
                "start_time": 6.279545454545454,
                "end_time": 7.097727272727273,
                "pitch": 55,
                "velocity": 51,
                "duration": 0.8181818181818183,
                "tempo": 120.0
            },
            {
                "start_time": 7.718181818181818,
                "end_time": 7.802272727272727,
                "pitch": 57,
                "velocity": 51,
                "duration": 0.084090909090909,
                "tempo": 120.0
            },
            {
                "start_time": 8.118181818181817,
                "end_time": 8.722727272727273,
                "pitch": 57,
                "velocity": 51,
                "duration": 0.6045454545454554,
                "tempo": 120.0
            },
            {
                "start_time": 8.945454545454545,
                "end_time": 9.540909090909091,
                "pitch": 59,
                "velocity": 51,
                "duration": 0.5954545454545457,
                "tempo": 120.0
            },
            {
                "start_time": 9.559090909090909,
                "end_time": 10.338636363636363,
                "pitch": 57,
                "velocity": 51,
                "duration": 0.7795454545454543,
                "tempo": 120.0
            },
            {
                "start_time": 10.979545454545454,
                "end_time": 11.06590909090909,
                "pitch": 57,
                "velocity": 51,
                "duration": 0.08636363636363598,
                "tempo": 120.0
            },
            {
                "start_time": 11.402272727272727,
                "end_time": 11.993181818181817,
                "pitch": 57,
                "velocity": 51,
                "duration": 0.5909090909090899,
                "tempo": 120.0
            },
            {
                "start_time": 12.204545454545453,
                "end_time": 12.786363636363635,
                "pitch": 59,
                "velocity": 51,
                "duration": 0.581818181818182,
                "tempo": 120.0
            },
            {
                "start_time": 12.802272727272726,
                "end_time": 13.620454545454544,
                "pitch": 55,
                "velocity": 51,
                "duration": 0.8181818181818183,
                "tempo": 120.0
            },
            {
                "start_time": 39.929545454545455,
                "end_time": 40.90681818181818,
                "pitch": 60,
                "velocity": 51,
                "duration": 0.9772727272727266,
                "tempo": 120.0
            },
            {
                "start_time": 41.14090909090909,
                "end_time": 41.334090909090904,
                "pitch": 62,
                "velocity": 51,
                "duration": 0.19318181818181301,
                "tempo": 120.0
            },
            {
                "start_time": 41.35227272727273,
                "end_time": 42.33863636363636,
                "pitch": 64,
                "velocity": 51,
                "duration": 0.9863636363636346,
                "tempo": 120.0
            },
            {
                "start_time": 42.55227272727272,
                "end_time": 42.73181818181818,
                "pitch": 64,
                "velocity": 51,
                "duration": 0.17954545454545467,
                "tempo": 120.0
            },
            {
                "start_time": 42.74772727272727,
                "end_time": 42.94090909090909,
                "pitch": 62,
                "velocity": 51,
                "duration": 0.19318181818182012,
                "tempo": 120.0
            },
            {
                "start_time": 42.959090909090904,
                "end_time": 44.79545454545455,
                "pitch": 64,
                "velocity": 51,
                "duration": 1.836363636363643,
                "tempo": 120.0
            },
            {
                "start_time": 45.00909090909091,
                "end_time": 45.18863636363636,
                "pitch": 62,
                "velocity": 51,
                "duration": 0.17954545454545467,
                "tempo": 120.0
            },
            {
                "start_time": 45.42727272727272,
                "end_time": 45.61590909090909,
                "pitch": 62,
                "velocity": 51,
                "duration": 0.1886363636363697,
                "tempo": 120.0
            },
            {
                "start_time": 45.83863636363636,
                "end_time": 46.025,
                "pitch": 60,
                "velocity": 51,
                "duration": 0.1863636363636374,
                "tempo": 120.0
            },
            {
                "start_time": 46.043181818181814,
                "end_time": 46.43636363636364,
                "pitch": 59,
                "velocity": 51,
                "duration": 0.39318181818182296,
                "tempo": 120.0
            },
            {
                "start_time": 46.45454545454545,
                "end_time": 47.445454545454545,
                "pitch": 60,
                "velocity": 51,
                "duration": 0.9909090909090921,
                "tempo": 120.0
            },
            {
                "start_time": 47.663636363636364,
                "end_time": 47.85681818181818,
                "pitch": 62,
                "velocity": 51,
                "duration": 0.19318181818181301,
                "tempo": 120.0
            },
            {
                "start_time": 47.875,
                "end_time": 48.85227272727273,
                "pitch": 64,
                "velocity": 51,
                "duration": 0.9772727272727266,
                "tempo": 120.0
            },
            {
                "start_time": 49.06818181818181,
                "end_time": 49.252272727272725,
                "pitch": 64,
                "velocity": 51,
                "duration": 0.1840909090909122,
                "tempo": 120.0
            },
            {
                "start_time": 49.268181818181816,
                "end_time": 49.461363636363636,
                "pitch": 62,
                "velocity": 51,
                "duration": 0.19318181818182012,
                "tempo": 120.0
            },
            {
                "start_time": 49.47954545454545,
                "end_time": 51.31818181818181,
                "pitch": 64,
                "velocity": 51,
                "duration": 1.8386363636363612,
                "tempo": 120.0
            },
            {
                "start_time": 51.53181818181818,
                "end_time": 51.711363636363636,
                "pitch": 62,
                "velocity": 51,
                "duration": 0.17954545454545467,
                "tempo": 120.0
            },
            {
                "start_time": 51.949999999999996,
                "end_time": 52.13863636363636,
                "pitch": 62,
                "velocity": 51,
                "duration": 0.1886363636363626,
                "tempo": 120.0
            },
            {
                "start_time": 52.361363636363635,
                "end_time": 52.55,
                "pitch": 60,
                "velocity": 51,
                "duration": 0.1886363636363626,
                "tempo": 120.0
            },
            {
                "start_time": 52.56590909090909,
                "end_time": 52.959090909090904,
                "pitch": 59,
                "velocity": 51,
                "duration": 0.39318181818181586,
                "tempo": 120.0
            }
        ],
        "Acoustic Bass": [
            {
                "start_time": 0.7954545454545454,
                "end_time": 0.9772727272727272,
                "pitch": 36,
                "velocity": 80,
                "duration": 0.18181818181818177,
                "tempo": 120.0
            },
            {
                "start_time": 0.9954545454545454,
                "end_time": 1.0772727272727272,
                "pitch": 48,
                "velocity": 80,
                "duration": 0.08181818181818179,
                "tempo": 120.0
            },
            {
                "start_time": 1.0954545454545455,
                "end_time": 1.1772727272727272,
                "pitch": 48,
                "velocity": 80,
                "duration": 0.08181818181818179,
                "tempo": 120.0
            },
            {
                "start_time": 1.1954545454545453,
                "end_time": 1.3772727272727272,
                "pitch": 36,
                "velocity": 80,
                "duration": 0.18181818181818188,
                "tempo": 120.0
            },
            {
                "start_time": 1.3954545454545453,
                "end_time": 1.4772727272727273,
                "pitch": 48,
                "velocity": 80,
                "duration": 0.08181818181818201,
                "tempo": 120.0
            },
            {
                "start_time": 1.4954545454545454,
                "end_time": 1.5772727272727272,
                "pitch": 48,
                "velocity": 80,
                "duration": 0.08181818181818179,
                "tempo": 120.0
            },
            {
                "start_time": 1.5954545454545455,
                "end_time": 1.7795454545454545,
                "pitch": 36,
                "velocity": 80,
                "duration": 0.18409090909090908,
                "tempo": 120.0
            },
            {
                "start_time": 1.7954545454545454,
                "end_time": 1.8795454545454544,
                "pitch": 48,
                "velocity": 80,
                "duration": 0.084090909090909,
                "tempo": 120.0
            },
            {
                "start_time": 1.8954545454545453,
                "end_time": 1.9795454545454545,
                "pitch": 48,
                "velocity": 80,
                "duration": 0.08409090909090922,
                "tempo": 120.0
            },
            {
                "start_time": 1.9977272727272726,
                "end_time": 2.202272727272727,
                "pitch": 36,
                "velocity": 80,
                "duration": 0.20454545454545459,
                "tempo": 120.0
            },
            {
                "start_time": 2.2204545454545452,
                "end_time": 2.3045454545454542,
                "pitch": 48,
                "velocity": 80,
                "duration": 0.084090909090909,
                "tempo": 120.0
            },
            {
                "start_time": 2.3227272727272728,
                "end_time": 2.4068181818181817,
                "pitch": 48,
                "velocity": 80,
                "duration": 0.084090909090909,
                "tempo": 120.0
            },
            {
                "start_time": 2.425,
                "end_time": 2.6136363636363633,
                "pitch": 36,
                "velocity": 80,
                "duration": 0.1886363636363635,
                "tempo": 120.0
            },
            {
                "start_time": 2.6295454545454544,
                "end_time": 2.715909090909091,
                "pitch": 48,
                "velocity": 80,
                "duration": 0.08636363636363642,
                "tempo": 120.0
            },
            {
                "start_time": 2.734090909090909,
                "end_time": 2.818181818181818,
                "pitch": 48,
                "velocity": 80,
                "duration": 0.084090909090909,
                "tempo": 120.0
            },
            {
                "start_time": 2.8363636363636364,
                "end_time": 3.018181818181818,
                "pitch": 36,
                "velocity": 80,
                "duration": 0.18181818181818166,
                "tempo": 120.0
            },
            {
                "start_time": 3.036363636363636,
                "end_time": 3.118181818181818,
                "pitch": 48,
                "velocity": 80,
                "duration": 0.08181818181818201,
                "tempo": 120.0
            },
            {
                "start_time": 3.1363636363636362,
                "end_time": 3.218181818181818,
                "pitch": 48,
                "velocity": 80,
                "duration": 0.08181818181818157,
                "tempo": 120.0
            },
            {
                "start_time": 3.2363636363636363,
                "end_time": 3.4159090909090906,
                "pitch": 36,
                "velocity": 80,
                "duration": 0.17954545454545423,
                "tempo": 120.0
            },
            {
                "start_time": 3.4318181818181817,
                "end_time": 3.5136363636363637,
                "pitch": 48,
                "velocity": 80,
                "duration": 0.08181818181818201,
                "tempo": 120.0
            },
            {
                "start_time": 3.5295454545454543,
                "end_time": 3.6113636363636363,
                "pitch": 48,
                "velocity": 80,
                "duration": 0.08181818181818201,
                "tempo": 120.0
            },
            {
                "start_time": 3.627272727272727,
                "end_time": 3.815909090909091,
                "pitch": 45,
                "velocity": 80,
                "duration": 0.18863636363636394,
                "tempo": 120.0
            },
            {
                "start_time": 3.834090909090909,
                "end_time": 3.918181818181818,
                "pitch": 43,
                "velocity": 80,
                "duration": 0.084090909090909,
                "tempo": 120.0
            },
            {
                "start_time": 3.936363636363636,
                "end_time": 4.0227272727272725,
                "pitch": 43,
                "velocity": 80,
                "duration": 0.08636363636363642,
                "tempo": 120.0
            },
            {
                "start_time": 4.038636363636363,
                "end_time": 4.222727272727273,
                "pitch": 36,
                "velocity": 80,
                "duration": 0.18409090909090953,
                "tempo": 120.0
            },
            {
                "start_time": 4.238636363636363,
                "end_time": 4.338636363636364,
                "pitch": 48,
                "velocity": 80,
                "duration": 0.10000000000000053,
                "tempo": 120.0
            },
            {
                "start_time": 4.3545454545454545,
                "end_time": 4.4386363636363635,
                "pitch": 48,
                "velocity": 80,
                "duration": 0.084090909090909,
                "tempo": 120.0
            },
            {
                "start_time": 4.454545454545454,
                "end_time": 4.6499999999999995,
                "pitch": 36,
                "velocity": 80,
                "duration": 0.19545454545454533,
                "tempo": 120.0
            },
            {
                "start_time": 4.665909090909091,
                "end_time": 4.754545454545454,
                "pitch": 48,
                "velocity": 80,
                "duration": 0.08863636363636296,
                "tempo": 120.0
            },
            {
                "start_time": 4.7727272727272725,
                "end_time": 4.861363636363636,
                "pitch": 48,
                "velocity": 80,
                "duration": 0.08863636363636385,
                "tempo": 120.0
            },
            {
                "start_time": 4.877272727272727,
                "end_time": 5.0659090909090905,
                "pitch": 36,
                "velocity": 80,
                "duration": 0.1886363636363635,
                "tempo": 120.0
            },
            {
                "start_time": 5.084090909090909,
                "end_time": 5.170454545454545,
                "pitch": 48,
                "velocity": 80,
                "duration": 0.08636363636363598,
                "tempo": 120.0
            },
            {
                "start_time": 5.1863636363636365,
                "end_time": 5.2727272727272725,
                "pitch": 48,
                "velocity": 80,
                "duration": 0.08636363636363598,
                "tempo": 120.0
            },
            {
                "start_time": 5.288636363636363,
                "end_time": 5.468181818181818,
                "pitch": 36,
                "velocity": 80,
                "duration": 0.17954545454545467,
                "tempo": 120.0
            },
            {
                "start_time": 5.486363636363636,
                "end_time": 5.568181818181818,
                "pitch": 48,
                "velocity": 80,
                "duration": 0.08181818181818201,
                "tempo": 120.0
            },
            {
                "start_time": 5.584090909090909,
                "end_time": 5.665909090909091,
                "pitch": 48,
                "velocity": 80,
                "duration": 0.08181818181818201,
                "tempo": 120.0
            },
            {
                "start_time": 5.681818181818182,
                "end_time": 5.861363636363636,
                "pitch": 36,
                "velocity": 80,
                "duration": 0.17954545454545467,
                "tempo": 120.0
            },
            {
                "start_time": 5.877272727272727,
                "end_time": 5.959090909090909,
                "pitch": 48,
                "velocity": 80,
                "duration": 0.08181818181818201,
                "tempo": 120.0
            },
            {
                "start_time": 5.975,
                "end_time": 6.056818181818182,
                "pitch": 48,
                "velocity": 80,
                "duration": 0.08181818181818201,
                "tempo": 120.0
            },
            {
                "start_time": 6.072727272727272,
                "end_time": 6.261363636363636,
                "pitch": 36,
                "velocity": 80,
                "duration": 0.1886363636363635,
                "tempo": 120.0
            },
            {
                "start_time": 6.279545454545454,
                "end_time": 6.363636363636363,
                "pitch": 48,
                "velocity": 80,
                "duration": 0.084090909090909,
                "tempo": 120.0
            },
            {
                "start_time": 6.381818181818182,
                "end_time": 6.4840909090909085,
                "pitch": 48,
                "velocity": 80,
                "duration": 0.10227272727272663,
                "tempo": 120.0
            },
            {
                "start_time": 6.502272727272727,
                "end_time": 6.6909090909090905,
                "pitch": 36,
                "velocity": 80,
                "duration": 0.1886363636363635,
                "tempo": 120.0
            },
            {
                "start_time": 6.706818181818181,
                "end_time": 6.793181818181818,
                "pitch": 48,
                "velocity": 80,
                "duration": 0.08636363636363686,
                "tempo": 120.0
            },
            {
                "start_time": 6.809090909090909,
                "end_time": 6.8954545454545455,
                "pitch": 48,
                "velocity": 80,
                "duration": 0.08636363636363686,
                "tempo": 120.0
            },
            {
                "start_time": 6.913636363636363,
                "end_time": 7.097727272727273,
                "pitch": 45,
                "velocity": 80,
                "duration": 0.18409090909090953,
                "tempo": 120.0
            },
            {
                "start_time": 7.113636363636363,
                "end_time": 7.197727272727272,
                "pitch": 43,
                "velocity": 80,
                "duration": 0.084090909090909,
                "tempo": 120.0
            },
            {
                "start_time": 7.213636363636363,
                "end_time": 7.297727272727272,
                "pitch": 43,
                "velocity": 80,
                "duration": 0.084090909090909,
                "tempo": 120.0
            },
            {
                "start_time": 7.3159090909090905,
                "end_time": 7.5,
                "pitch": 36,
                "velocity": 80,
                "duration": 0.18409090909090953,
                "tempo": 120.0
            },
            {
                "start_time": 7.515909090909091,
                "end_time": 7.6,
                "pitch": 48,
                "velocity": 80,
                "duration": 0.084090909090909,
                "tempo": 120.0
            },
            {
                "start_time": 7.618181818181818,
                "end_time": 7.699999999999999,
                "pitch": 48,
                "velocity": 80,
                "duration": 0.08181818181818112,
                "tempo": 120.0
            },
            {
                "start_time": 7.718181818181818,
                "end_time": 7.9022727272727264,
                "pitch": 36,
                "velocity": 80,
                "duration": 0.18409090909090864,
                "tempo": 120.0
            },
            {
                "start_time": 7.918181818181818,
                "end_time": 8.002272727272727,
                "pitch": 48,
                "velocity": 80,
                "duration": 0.084090909090909,
                "tempo": 120.0
            },
            {
                "start_time": 8.018181818181818,
                "end_time": 8.102272727272727,
                "pitch": 48,
                "velocity": 80,
                "duration": 0.084090909090909,
                "tempo": 120.0
            },
            {
                "start_time": 8.118181818181817,
                "end_time": 8.302272727272728,
                "pitch": 36,
                "velocity": 80,
                "duration": 0.18409090909091042,
                "tempo": 120.0
            },
            {
                "start_time": 8.318181818181818,
                "end_time": 8.402272727272727,
                "pitch": 48,
                "velocity": 80,
                "duration": 0.084090909090909,
                "tempo": 120.0
            },
            {
                "start_time": 8.418181818181818,
                "end_time": 8.502272727272727,
                "pitch": 48,
                "velocity": 80,
                "duration": 0.084090909090909,
                "tempo": 120.0
            },
            {
                "start_time": 8.518181818181818,
                "end_time": 8.722727272727273,
                "pitch": 36,
                "velocity": 80,
                "duration": 0.20454545454545503,
                "tempo": 120.0
            },
            {
                "start_time": 8.74090909090909,
                "end_time": 8.825,
                "pitch": 48,
                "velocity": 80,
                "duration": 0.084090909090909,
                "tempo": 120.0
            },
            {
                "start_time": 8.843181818181817,
                "end_time": 8.929545454545455,
                "pitch": 48,
                "velocity": 80,
                "duration": 0.08636363636363775,
                "tempo": 120.0
            },
            {
                "start_time": 8.945454545454545,
                "end_time": 9.134090909090908,
                "pitch": 36,
                "velocity": 80,
                "duration": 0.1886363636363626,
                "tempo": 120.0
            },
            {
                "start_time": 9.152272727272727,
                "end_time": 9.236363636363636,
                "pitch": 48,
                "velocity": 80,
                "duration": 0.084090909090909,
                "tempo": 120.0
            },
            {
                "start_time": 9.254545454545454,
                "end_time": 9.338636363636363,
                "pitch": 48,
                "velocity": 80,
                "duration": 0.084090909090909,
                "tempo": 120.0
            },
            {
                "start_time": 9.35681818181818,
                "end_time": 9.540909090909091,
                "pitch": 36,
                "velocity": 80,
                "duration": 0.18409090909091042,
                "tempo": 120.0
            },
            {
                "start_time": 9.559090909090909,
                "end_time": 9.64090909090909,
                "pitch": 48,
                "velocity": 80,
                "duration": 0.08181818181818201,
                "tempo": 120.0
            },
            {
                "start_time": 9.659090909090908,
                "end_time": 9.743181818181817,
                "pitch": 48,
                "velocity": 80,
                "duration": 0.084090909090909,
                "tempo": 120.0
            },
            {
                "start_time": 9.759090909090908,
                "end_time": 9.938636363636363,
                "pitch": 36,
                "velocity": 80,
                "duration": 0.17954545454545467,
                "tempo": 120.0
            },
            {
                "start_time": 9.954545454545453,
                "end_time": 10.036363636363635,
                "pitch": 48,
                "velocity": 80,
                "duration": 0.08181818181818201,
                "tempo": 120.0
            },
            {
                "start_time": 10.052272727272726,
                "end_time": 10.134090909090908,
                "pitch": 48,
                "velocity": 80,
                "duration": 0.08181818181818201,
                "tempo": 120.0
            },
            {
                "start_time": 10.152272727272727,
                "end_time": 10.338636363636363,
                "pitch": 45,
                "velocity": 80,
                "duration": 0.18636363636363562,
                "tempo": 120.0
            },
            {
                "start_time": 10.35681818181818,
                "end_time": 10.443181818181818,
                "pitch": 43,
                "velocity": 80,
                "duration": 0.08636363636363775,
                "tempo": 120.0
            },
            {
                "start_time": 10.459090909090909,
                "end_time": 10.545454545454545,
                "pitch": 43,
                "velocity": 80,
                "duration": 0.08636363636363598,
                "tempo": 120.0
            },
            {
                "start_time": 10.561363636363636,
                "end_time": 10.745454545454544,
                "pitch": 36,
                "velocity": 80,
                "duration": 0.18409090909090864,
                "tempo": 120.0
            },
            {
                "start_time": 10.779545454545454,
                "end_time": 10.861363636363636,
                "pitch": 48,
                "velocity": 80,
                "duration": 0.08181818181818201,
                "tempo": 120.0
            },
            {
                "start_time": 10.879545454545454,
                "end_time": 10.961363636363636,
                "pitch": 48,
                "velocity": 80,
                "duration": 0.08181818181818201,
                "tempo": 120.0
            },
            {
                "start_time": 10.979545454545454,
                "end_time": 11.172727272727272,
                "pitch": 36,
                "velocity": 80,
                "duration": 0.19318181818181834,
                "tempo": 120.0
            },
            {
                "start_time": 11.19090909090909,
                "end_time": 11.277272727272727,
                "pitch": 48,
                "velocity": 80,
                "duration": 0.08636363636363775,
                "tempo": 120.0
            },
            {
                "start_time": 11.295454545454545,
                "end_time": 11.384090909090908,
                "pitch": 48,
                "velocity": 80,
                "duration": 0.08863636363636296,
                "tempo": 120.0
            },
            {
                "start_time": 11.402272727272727,
                "end_time": 11.59090909090909,
                "pitch": 36,
                "velocity": 80,
                "duration": 0.1886363636363626,
                "tempo": 120.0
            },
            {
                "start_time": 11.60681818181818,
                "end_time": 11.693181818181818,
                "pitch": 48,
                "velocity": 80,
                "duration": 0.08636363636363775,
                "tempo": 120.0
            },
            {
                "start_time": 11.709090909090909,
                "end_time": 11.795454545454545,
                "pitch": 48,
                "velocity": 80,
                "duration": 0.08636363636363598,
                "tempo": 120.0
            },
            {
                "start_time": 11.813636363636363,
                "end_time": 11.993181818181817,
                "pitch": 36,
                "velocity": 80,
                "duration": 0.17954545454545467,
                "tempo": 120.0
            },
            {
                "start_time": 12.009090909090908,
                "end_time": 12.09090909090909,
                "pitch": 48,
                "velocity": 80,
                "duration": 0.08181818181818201,
                "tempo": 120.0
            },
            {
                "start_time": 12.10681818181818,
                "end_time": 12.188636363636363,
                "pitch": 48,
                "velocity": 80,
                "duration": 0.08181818181818201,
                "tempo": 120.0
            },
            {
                "start_time": 12.204545454545453,
                "end_time": 12.384090909090908,
                "pitch": 36,
                "velocity": 80,
                "duration": 0.17954545454545467,
                "tempo": 120.0
            },
            {
                "start_time": 12.399999999999999,
                "end_time": 12.48181818181818,
                "pitch": 48,
                "velocity": 80,
                "duration": 0.08181818181818201,
                "tempo": 120.0
            },
            {
                "start_time": 12.5,
                "end_time": 12.581818181818182,
                "pitch": 48,
                "velocity": 80,
                "duration": 0.08181818181818201,
                "tempo": 120.0
            },
            {
                "start_time": 12.597727272727273,
                "end_time": 12.786363636363635,
                "pitch": 36,
                "velocity": 80,
                "duration": 0.1886363636363626,
                "tempo": 120.0
            },
            {
                "start_time": 12.802272727272726,
                "end_time": 12.888636363636364,
                "pitch": 48,
                "velocity": 80,
                "duration": 0.08636363636363775,
                "tempo": 120.0
            },
            {
                "start_time": 12.904545454545454,
                "end_time": 13.006818181818181,
                "pitch": 48,
                "velocity": 80,
                "duration": 0.10227272727272663,
                "tempo": 120.0
            },
            {
                "start_time": 13.024999999999999,
                "end_time": 13.218181818181817,
                "pitch": 36,
                "velocity": 80,
                "duration": 0.19318181818181834,
                "tempo": 120.0
            },
            {
                "start_time": 13.236363636363636,
                "end_time": 13.325,
                "pitch": 48,
                "velocity": 80,
                "duration": 0.08863636363636296,
                "tempo": 120.0
            },
            {
                "start_time": 13.34090909090909,
                "end_time": 13.429545454545455,
                "pitch": 48,
                "velocity": 80,
                "duration": 0.08863636363636473,
                "tempo": 120.0
            },
            {
                "start_time": 13.445454545454545,
                "end_time": 13.620454545454544,
                "pitch": 36,
                "velocity": 80,
                "duration": 0.17499999999999893,
                "tempo": 120.0
            },
            {
                "start_time": 13.636363636363635,
                "end_time": 13.71590909090909,
                "pitch": 48,
                "velocity": 80,
                "duration": 0.07954545454545503,
                "tempo": 120.0
            },
            {
                "start_time": 13.73181818181818,
                "end_time": 13.811363636363636,
                "pitch": 48,
                "velocity": 80,
                "duration": 0.07954545454545503,
                "tempo": 120.0
            },
            {
                "start_time": 13.829545454545453,
                "end_time": 14.01590909090909,
                "pitch": 36,
                "velocity": 80,
                "duration": 0.1863636363636374,
                "tempo": 120.0
            },
            {
                "start_time": 14.034090909090908,
                "end_time": 14.222727272727273,
                "pitch": 48,
                "velocity": 80,
                "duration": 0.18863636363636438,
                "tempo": 120.0
            },
            {
                "start_time": 14.238636363636363,
                "end_time": 14.427272727272726,
                "pitch": 36,
                "velocity": 80,
                "duration": 0.1886363636363626,
                "tempo": 120.0
            },
            {
                "start_time": 14.445454545454545,
                "end_time": 14.634090909090908,
                "pitch": 48,
                "velocity": 80,
                "duration": 0.1886363636363626,
                "tempo": 120.0
            },
            {
                "start_time": 14.649999999999999,
                "end_time": 14.825,
                "pitch": 36,
                "velocity": 80,
                "duration": 0.1750000000000007,
                "tempo": 120.0
            },
            {
                "start_time": 14.84090909090909,
                "end_time": 15.01590909090909,
                "pitch": 48,
                "velocity": 80,
                "duration": 0.1750000000000007,
                "tempo": 120.0
            },
            {
                "start_time": 15.031818181818181,
                "end_time": 15.243181818181817,
                "pitch": 36,
                "velocity": 80,
                "duration": 0.21136363636363598,
                "tempo": 120.0
            },
            {
                "start_time": 15.259090909090908,
                "end_time": 15.454545454545453,
                "pitch": 48,
                "velocity": 80,
                "duration": 0.19545454545454533,
                "tempo": 120.0
            },
            {
                "start_time": 15.470454545454544,
                "end_time": 15.659090909090908,
                "pitch": 35,
                "velocity": 80,
                "duration": 0.18863636363636438,
                "tempo": 120.0
            },
            {
                "start_time": 15.677272727272726,
                "end_time": 15.86590909090909,
                "pitch": 47,
                "velocity": 80,
                "duration": 0.18863636363636438,
                "tempo": 120.0
            },
            {
                "start_time": 15.881818181818181,
                "end_time": 16.06590909090909,
                "pitch": 35,
                "velocity": 80,
                "duration": 0.18409090909091042,
                "tempo": 120.0
            },
            {
                "start_time": 16.081818181818182,
                "end_time": 16.26590909090909,
                "pitch": 47,
                "velocity": 80,
                "duration": 0.18409090909090864,
                "tempo": 120.0
            },
            {
                "start_time": 16.28181818181818,
                "end_time": 16.470454545454544,
                "pitch": 35,
                "velocity": 80,
                "duration": 0.1886363636363626,
                "tempo": 120.0
            },
            {
                "start_time": 16.486363636363635,
                "end_time": 16.675,
                "pitch": 47,
                "velocity": 80,
                "duration": 0.18863636363636616,
                "tempo": 120.0
            },
            {
                "start_time": 16.693181818181817,
                "end_time": 16.87272727272727,
                "pitch": 35,
                "velocity": 80,
                "duration": 0.17954545454545467,
                "tempo": 120.0
            },
            {
                "start_time": 16.888636363636362,
                "end_time": 17.068181818181817,
                "pitch": 47,
                "velocity": 80,
                "duration": 0.17954545454545467,
                "tempo": 120.0
            },
            {
                "start_time": 17.084090909090907,
                "end_time": 17.284090909090907,
                "pitch": 33,
                "velocity": 80,
                "duration": 0.1999999999999993,
                "tempo": 120.0
            },
            {
                "start_time": 17.302272727272726,
                "end_time": 17.48409090909091,
                "pitch": 45,
                "velocity": 80,
                "duration": 0.18181818181818343,
                "tempo": 120.0
            },
            {
                "start_time": 17.502272727272725,
                "end_time": 17.695454545454545,
                "pitch": 33,
                "velocity": 80,
                "duration": 0.19318181818182012,
                "tempo": 120.0
            },
            {
                "start_time": 17.71363636363636,
                "end_time": 17.90681818181818,
                "pitch": 45,
                "velocity": 80,
                "duration": 0.19318181818182012,
                "tempo": 120.0
            },
            {
                "start_time": 17.922727272727272,
                "end_time": 18.10681818181818,
                "pitch": 33,
                "velocity": 80,
                "duration": 0.18409090909090864,
                "tempo": 120.0
            },
            {
                "start_time": 18.125,
                "end_time": 18.30681818181818,
                "pitch": 45,
                "velocity": 80,
                "duration": 0.18181818181817988,
                "tempo": 120.0
            },
            {
                "start_time": 18.325,
                "end_time": 18.509090909090908,
                "pitch": 33,
                "velocity": 80,
                "duration": 0.18409090909090864,
                "tempo": 120.0
            },
            {
                "start_time": 18.525,
                "end_time": 18.709090909090907,
                "pitch": 45,
                "velocity": 80,
                "duration": 0.18409090909090864,
                "tempo": 120.0
            },
            {
                "start_time": 18.727272727272727,
                "end_time": 18.90681818181818,
                "pitch": 31,
                "velocity": 80,
                "duration": 0.17954545454545467,
                "tempo": 120.0
            },
            {
                "start_time": 18.922727272727272,
                "end_time": 19.102272727272727,
                "pitch": 43,
                "velocity": 80,
                "duration": 0.17954545454545467,
                "tempo": 120.0
            },
            {
                "start_time": 19.118181818181817,
                "end_time": 19.30681818181818,
                "pitch": 31,
                "velocity": 80,
                "duration": 0.1886363636363626,
                "tempo": 120.0
            },
            {
                "start_time": 19.325,
                "end_time": 19.529545454545453,
                "pitch": 43,
                "velocity": 80,
                "duration": 0.20454545454545325,
                "tempo": 120.0
            },
            {
                "start_time": 19.545454545454543,
                "end_time": 19.729545454545452,
                "pitch": 31,
                "velocity": 80,
                "duration": 0.18409090909090864,
                "tempo": 120.0
            },
            {
                "start_time": 19.745454545454546,
                "end_time": 19.929545454545455,
                "pitch": 43,
                "velocity": 80,
                "duration": 0.18409090909090864,
                "tempo": 120.0
            },
            {
                "start_time": 19.945454545454545,
                "end_time": 20.134090909090908,
                "pitch": 31,
                "velocity": 80,
                "duration": 0.1886363636363626,
                "tempo": 120.0
            },
            {
                "start_time": 20.152272727272727,
                "end_time": 20.34090909090909,
                "pitch": 43,
                "velocity": 80,
                "duration": 0.1886363636363626,
                "tempo": 120.0
            },
            {
                "start_time": 20.35681818181818,
                "end_time": 20.54090909090909,
                "pitch": 29,
                "velocity": 80,
                "duration": 0.18409090909090864,
                "tempo": 120.0
            },
            {
                "start_time": 20.55681818181818,
                "end_time": 20.74090909090909,
                "pitch": 41,
                "velocity": 80,
                "duration": 0.18409090909090864,
                "tempo": 120.0
            },
            {
                "start_time": 20.75681818181818,
                "end_time": 20.945454545454545,
                "pitch": 29,
                "velocity": 80,
                "duration": 0.18863636363636616,
                "tempo": 120.0
            },
            {
                "start_time": 20.961363636363636,
                "end_time": 21.15,
                "pitch": 41,
                "velocity": 80,
                "duration": 0.1886363636363626,
                "tempo": 120.0
            },
            {
                "start_time": 21.168181818181818,
                "end_time": 21.352272727272727,
                "pitch": 29,
                "velocity": 80,
                "duration": 0.18409090909090864,
                "tempo": 120.0
            },
            {
                "start_time": 21.370454545454546,
                "end_time": 21.570454545454545,
                "pitch": 41,
                "velocity": 80,
                "duration": 0.1999999999999993,
                "tempo": 120.0
            },
            {
                "start_time": 21.58863636363636,
                "end_time": 21.775,
                "pitch": 29,
                "velocity": 80,
                "duration": 0.1863636363636374,
                "tempo": 120.0
            },
            {
                "start_time": 21.793181818181818,
                "end_time": 21.98181818181818,
                "pitch": 41,
                "velocity": 80,
                "duration": 0.1886363636363626,
                "tempo": 120.0
            },
            {
                "start_time": 21.99772727272727,
                "end_time": 22.18181818181818,
                "pitch": 28,
                "velocity": 80,
                "duration": 0.18409090909090864,
                "tempo": 120.0
            },
            {
                "start_time": 22.19772727272727,
                "end_time": 22.38181818181818,
                "pitch": 40,
                "velocity": 80,
                "duration": 0.18409090909090864,
                "tempo": 120.0
            },
            {
                "start_time": 22.397727272727273,
                "end_time": 22.581818181818182,
                "pitch": 28,
                "velocity": 80,
                "duration": 0.18409090909090864,
                "tempo": 120.0
            },
            {
                "start_time": 22.597727272727273,
                "end_time": 22.78181818181818,
                "pitch": 40,
                "velocity": 80,
                "duration": 0.18409090909090864,
                "tempo": 120.0
            },
            {
                "start_time": 22.797727272727272,
                "end_time": 22.977272727272727,
                "pitch": 28,
                "velocity": 80,
                "duration": 0.17954545454545467,
                "tempo": 120.0
            },
            {
                "start_time": 22.995454545454546,
                "end_time": 23.174999999999997,
                "pitch": 40,
                "velocity": 80,
                "duration": 0.17954545454545112,
                "tempo": 120.0
            },
            {
                "start_time": 23.19090909090909,
                "end_time": 23.379545454545454,
                "pitch": 28,
                "velocity": 80,
                "duration": 0.1886363636363626,
                "tempo": 120.0
            },
            {
                "start_time": 23.395454545454545,
                "end_time": 23.584090909090907,
                "pitch": 40,
                "velocity": 80,
                "duration": 0.1886363636363626,
                "tempo": 120.0
            },
            {
                "start_time": 23.602272727272727,
                "end_time": 23.802272727272726,
                "pitch": 26,
                "velocity": 80,
                "duration": 0.1999999999999993,
                "tempo": 120.0
            },
            {
                "start_time": 23.820454545454545,
                "end_time": 24.004545454545454,
                "pitch": 38,
                "velocity": 80,
                "duration": 0.18409090909090864,
                "tempo": 120.0
            },
            {
                "start_time": 24.020454545454545,
                "end_time": 24.21363636363636,
                "pitch": 26,
                "velocity": 80,
                "duration": 0.19318181818181657,
                "tempo": 120.0
            },
            {
                "start_time": 24.23181818181818,
                "end_time": 24.424999999999997,
                "pitch": 38,
                "velocity": 80,
                "duration": 0.19318181818181657,
                "tempo": 120.0
            },
            {
                "start_time": 24.443181818181817,
                "end_time": 24.62272727272727,
                "pitch": 26,
                "velocity": 80,
                "duration": 0.17954545454545467,
                "tempo": 120.0
            },
            {
                "start_time": 24.638636363636362,
                "end_time": 24.818181818181817,
                "pitch": 38,
                "velocity": 80,
                "duration": 0.17954545454545467,
                "tempo": 120.0
            },
            {
                "start_time": 24.834090909090907,
                "end_time": 25.02272727272727,
                "pitch": 26,
                "velocity": 80,
                "duration": 0.1886363636363626,
                "tempo": 120.0
            },
            {
                "start_time": 25.04090909090909,
                "end_time": 25.229545454545452,
                "pitch": 38,
                "velocity": 80,
                "duration": 0.1886363636363626,
                "tempo": 120.0
            },
            {
                "start_time": 25.245454545454542,
                "end_time": 25.429545454545455,
                "pitch": 31,
                "velocity": 80,
                "duration": 0.1840909090909122,
                "tempo": 120.0
            },
            {
                "start_time": 25.445454545454545,
                "end_time": 25.629545454545454,
                "pitch": 43,
                "velocity": 80,
                "duration": 0.18409090909090864,
                "tempo": 120.0
            },
            {
                "start_time": 25.645454545454545,
                "end_time": 25.829545454545453,
                "pitch": 31,
                "velocity": 80,
                "duration": 0.18409090909090864,
                "tempo": 120.0
            },
            {
                "start_time": 25.847727272727273,
                "end_time": 26.047727272727272,
                "pitch": 43,
                "velocity": 80,
                "duration": 0.1999999999999993,
                "tempo": 120.0
            },
            {
                "start_time": 26.06590909090909,
                "end_time": 26.24772727272727,
                "pitch": 31,
                "velocity": 80,
                "duration": 0.18181818181817988,
                "tempo": 120.0
            },
            {
                "start_time": 26.26590909090909,
                "end_time": 26.44772727272727,
                "pitch": 43,
                "velocity": 80,
                "duration": 0.18181818181817988,
                "tempo": 120.0
            },
            {
                "start_time": 26.46590909090909,
                "end_time": 26.654545454545453,
                "pitch": 31,
                "velocity": 80,
                "duration": 0.1886363636363626,
                "tempo": 120.0
            },
            {
                "start_time": 26.670454545454543,
                "end_time": 26.85909090909091,
                "pitch": 43,
                "velocity": 80,
                "duration": 0.18863636363636616,
                "tempo": 120.0
            },
            {
                "start_time": 26.877272727272725,
                "end_time": 27.05909090909091,
                "pitch": 36,
                "velocity": 80,
                "duration": 0.18181818181818343,
                "tempo": 120.0
            },
            {
                "start_time": 27.077272727272724,
                "end_time": 27.259090909090908,
                "pitch": 36,
                "velocity": 80,
                "duration": 0.18181818181818343,
                "tempo": 120.0
            },
            {
                "start_time": 27.277272727272727,
                "end_time": 27.46363636363636,
                "pitch": 36,
                "velocity": 80,
                "duration": 0.18636363636363384,
                "tempo": 120.0
            },
            {
                "start_time": 27.48181818181818,
                "end_time": 27.670454545454543,
                "pitch": 36,
                "velocity": 80,
                "duration": 0.1886363636363626,
                "tempo": 120.0
            },
            {
                "start_time": 27.686363636363634,
                "end_time": 27.87272727272727,
                "pitch": 36,
                "velocity": 80,
                "duration": 0.1863636363636374,
                "tempo": 120.0
            },
            {
                "start_time": 27.888636363636362,
                "end_time": 28.08863636363636,
                "pitch": 36,
                "velocity": 80,
                "duration": 0.1999999999999993,
                "tempo": 120.0
            },
            {
                "start_time": 28.10681818181818,
                "end_time": 28.295454545454543,
                "pitch": 36,
                "velocity": 80,
                "duration": 0.1886363636363626,
                "tempo": 120.0
            },
            {
                "start_time": 28.311363636363634,
                "end_time": 28.5,
                "pitch": 36,
                "velocity": 80,
                "duration": 0.18863636363636616,
                "tempo": 120.0
            },
            {
                "start_time": 28.518181818181816,
                "end_time": 28.7,
                "pitch": 35,
                "velocity": 80,
                "duration": 0.18181818181818343,
                "tempo": 120.0
            },
            {
                "start_time": 28.718181818181815,
                "end_time": 28.9,
                "pitch": 35,
                "velocity": 80,
                "duration": 0.18181818181818343,
                "tempo": 120.0
            },
            {
                "start_time": 28.918181818181818,
                "end_time": 29.102272727272727,
                "pitch": 35,
                "velocity": 80,
                "duration": 0.18409090909090864,
                "tempo": 120.0
            },
            {
                "start_time": 29.118181818181817,
                "end_time": 29.302272727272726,
                "pitch": 35,
                "velocity": 80,
                "duration": 0.18409090909090864,
                "tempo": 120.0
            },
            {
                "start_time": 29.320454545454545,
                "end_time": 29.509090909090908,
                "pitch": 35,
                "velocity": 80,
                "duration": 0.1886363636363626,
                "tempo": 120.0
            },
            {
                "start_time": 29.525,
                "end_time": 29.71363636363636,
                "pitch": 35,
                "velocity": 80,
                "duration": 0.1886363636363626,
                "tempo": 120.0
            },
            {
                "start_time": 29.73181818181818,
                "end_time": 29.911363636363635,
                "pitch": 35,
                "velocity": 80,
                "duration": 0.17954545454545467,
                "tempo": 120.0
            },
            {
                "start_time": 29.927272727272726,
                "end_time": 30.10681818181818,
                "pitch": 35,
                "velocity": 80,
                "duration": 0.17954545454545467,
                "tempo": 120.0
            },
            {
                "start_time": 30.12272727272727,
                "end_time": 30.325,
                "pitch": 33,
                "velocity": 80,
                "duration": 0.20227272727272805,
                "tempo": 120.0
            },
            {
                "start_time": 30.34090909090909,
                "end_time": 30.525,
                "pitch": 33,
                "velocity": 80,
                "duration": 0.18409090909090864,
                "tempo": 120.0
            },
            {
                "start_time": 30.543181818181818,
                "end_time": 30.736363636363635,
                "pitch": 33,
                "velocity": 80,
                "duration": 0.19318181818181657,
                "tempo": 120.0
            },
            {
                "start_time": 30.754545454545454,
                "end_time": 30.94772727272727,
                "pitch": 33,
                "velocity": 80,
                "duration": 0.19318181818181657,
                "tempo": 120.0
            },
            {
                "start_time": 30.96590909090909,
                "end_time": 31.154545454545453,
                "pitch": 33,
                "velocity": 80,
                "duration": 0.1886363636363626,
                "tempo": 120.0
            },
            {
                "start_time": 31.170454545454543,
                "end_time": 31.359090909090906,
                "pitch": 33,
                "velocity": 80,
                "duration": 0.1886363636363626,
                "tempo": 120.0
            },
            {
                "start_time": 31.377272727272725,
                "end_time": 31.55681818181818,
                "pitch": 33,
                "velocity": 80,
                "duration": 0.17954545454545467,
                "tempo": 120.0
            },
            {
                "start_time": 31.57272727272727,
                "end_time": 31.752272727272725,
                "pitch": 33,
                "velocity": 80,
                "duration": 0.17954545454545467,
                "tempo": 120.0
            },
            {
                "start_time": 31.768181818181816,
                "end_time": 31.952272727272724,
                "pitch": 31,
                "velocity": 80,
                "duration": 0.18409090909090864,
                "tempo": 120.0
            },
            {
                "start_time": 31.970454545454544,
                "end_time": 32.154545454545456,
                "pitch": 31,
                "velocity": 80,
                "duration": 0.1840909090909122,
                "tempo": 120.0
            },
            {
                "start_time": 32.17045454545455,
                "end_time": 32.37045454545454,
                "pitch": 31,
                "velocity": 80,
                "duration": 0.19999999999999574,
                "tempo": 120.0
            },
            {
                "start_time": 32.388636363636365,
                "end_time": 32.570454545454545,
                "pitch": 31,
                "velocity": 80,
                "duration": 0.18181818181817988,
                "tempo": 120.0
            },
            {
                "start_time": 32.58863636363636,
                "end_time": 32.777272727272724,
                "pitch": 31,
                "velocity": 80,
                "duration": 0.1886363636363626,
                "tempo": 120.0
            },
            {
                "start_time": 32.793181818181814,
                "end_time": 32.98181818181818,
                "pitch": 31,
                "velocity": 80,
                "duration": 0.1886363636363626,
                "tempo": 120.0
            },
            {
                "start_time": 32.99772727272727,
                "end_time": 33.184090909090905,
                "pitch": 31,
                "velocity": 80,
                "duration": 0.1863636363636374,
                "tempo": 120.0
            },
            {
                "start_time": 33.199999999999996,
                "end_time": 33.38409090909091,
                "pitch": 31,
                "velocity": 80,
                "duration": 0.1840909090909122,
                "tempo": 120.0
            },
            {
                "start_time": 33.402272727272724,
                "end_time": 33.58409090909091,
                "pitch": 29,
                "velocity": 80,
                "duration": 0.18181818181818699,
                "tempo": 120.0
            },
            {
                "start_time": 33.60227272727273,
                "end_time": 33.78409090909091,
                "pitch": 29,
                "velocity": 80,
                "duration": 0.18181818181817988,
                "tempo": 120.0
            },
            {
                "start_time": 33.80227272727272,
                "end_time": 33.98863636363636,
                "pitch": 29,
                "velocity": 80,
                "duration": 0.1863636363636374,
                "tempo": 120.0
            },
            {
                "start_time": 34.00681818181818,
                "end_time": 34.195454545454545,
                "pitch": 29,
                "velocity": 80,
                "duration": 0.1886363636363626,
                "tempo": 120.0
            },
            {
                "start_time": 34.211363636363636,
                "end_time": 34.4,
                "pitch": 29,
                "velocity": 80,
                "duration": 0.1886363636363626,
                "tempo": 120.0
            },
            {
                "start_time": 34.418181818181814,
                "end_time": 34.62272727272727,
                "pitch": 29,
                "velocity": 80,
                "duration": 0.20454545454545325,
                "tempo": 120.0
            },
            {
                "start_time": 34.64090909090909,
                "end_time": 34.82272727272727,
                "pitch": 29,
                "velocity": 80,
                "duration": 0.18181818181817988,
                "tempo": 120.0
            },
            {
                "start_time": 34.840909090909086,
                "end_time": 35.02272727272727,
                "pitch": 29,
                "velocity": 80,
                "duration": 0.18181818181818699,
                "tempo": 120.0
            },
            {
                "start_time": 35.04090909090909,
                "end_time": 35.22272727272727,
                "pitch": 29,
                "velocity": 80,
                "duration": 0.18181818181817988,
                "tempo": 120.0
            },
            {
                "start_time": 35.24090909090909,
                "end_time": 35.42272727272727,
                "pitch": 29,
                "velocity": 80,
                "duration": 0.18181818181817988,
                "tempo": 120.0
            },
            {
                "start_time": 35.44090909090909,
                "end_time": 35.62272727272727,
                "pitch": 29,
                "velocity": 80,
                "duration": 0.18181818181817988,
                "tempo": 120.0
            },
            {
                "start_time": 35.64090909090909,
                "end_time": 35.82272727272727,
                "pitch": 29,
                "velocity": 80,
                "duration": 0.18181818181817988,
                "tempo": 120.0
            },
            {
                "start_time": 35.840909090909086,
                "end_time": 36.029545454545456,
                "pitch": 29,
                "velocity": 80,
                "duration": 0.1886363636363697,
                "tempo": 120.0
            },
            {
                "start_time": 36.04545454545455,
                "end_time": 36.23409090909091,
                "pitch": 29,
                "velocity": 80,
                "duration": 0.1886363636363626,
                "tempo": 120.0
            },
            {
                "start_time": 36.25,
                "end_time": 36.43181818181818,
                "pitch": 29,
                "velocity": 80,
                "duration": 0.18181818181817988,
                "tempo": 120.0
            },
            {
                "start_time": 36.44772727272727,
                "end_time": 36.627272727272725,
                "pitch": 29,
                "velocity": 80,
                "duration": 0.17954545454545467,
                "tempo": 120.0
            },
            {
                "start_time": 36.65909090909091,
                "end_time": 36.85227272727273,
                "pitch": 31,
                "velocity": 80,
                "duration": 0.19318181818182012,
                "tempo": 120.0
            },
            {
                "start_time": 36.87045454545454,
                "end_time": 37.06363636363636,
                "pitch": 31,
                "velocity": 80,
                "duration": 0.19318181818182012,
                "tempo": 120.0
            },
            {
                "start_time": 37.08181818181818,
                "end_time": 37.26590909090909,
                "pitch": 31,
                "velocity": 80,
                "duration": 0.1840909090909122,
                "tempo": 120.0
            },
            {
                "start_time": 37.28181818181818,
                "end_time": 37.465909090909086,
                "pitch": 31,
                "velocity": 80,
                "duration": 0.18409090909090509,
                "tempo": 120.0
            },
            {
                "start_time": 37.48181818181818,
                "end_time": 37.67045454545455,
                "pitch": 31,
                "velocity": 80,
                "duration": 0.1886363636363697,
                "tempo": 120.0
            },
            {
                "start_time": 37.68636363636364,
                "end_time": 37.875,
                "pitch": 31,
                "velocity": 80,
                "duration": 0.1886363636363626,
                "tempo": 120.0
            },
            {
                "start_time": 37.893181818181816,
                "end_time": 38.07272727272727,
                "pitch": 31,
                "velocity": 80,
                "duration": 0.17954545454545467,
                "tempo": 120.0
            },
            {
                "start_time": 38.08863636363636,
                "end_time": 38.268181818181816,
                "pitch": 31,
                "velocity": 80,
                "duration": 0.17954545454545467,
                "tempo": 120.0
            },
            {
                "start_time": 38.28409090909091,
                "end_time": 38.46818181818182,
                "pitch": 31,
                "velocity": 80,
                "duration": 0.1840909090909122,
                "tempo": 120.0
            },
            {
                "start_time": 38.48409090909091,
                "end_time": 38.668181818181814,
                "pitch": 31,
                "velocity": 80,
                "duration": 0.18409090909090509,
                "tempo": 120.0
            },
            {
                "start_time": 38.684090909090905,
                "end_time": 38.88636363636363,
                "pitch": 31,
                "velocity": 80,
                "duration": 0.20227272727272805,
                "tempo": 120.0
            },
            {
                "start_time": 38.902272727272724,
                "end_time": 39.08863636363636,
                "pitch": 31,
                "velocity": 80,
                "duration": 0.1863636363636374,
                "tempo": 120.0
            },
            {
                "start_time": 39.10454545454545,
                "end_time": 39.29772727272727,
                "pitch": 31,
                "velocity": 80,
                "duration": 0.19318181818182012,
                "tempo": 120.0
            },
            {
                "start_time": 39.31590909090909,
                "end_time": 39.50909090909091,
                "pitch": 31,
                "velocity": 80,
                "duration": 0.19318181818182012,
                "tempo": 120.0
            },
            {
                "start_time": 39.527272727272724,
                "end_time": 39.711363636363636,
                "pitch": 31,
                "velocity": 80,
                "duration": 0.1840909090909122,
                "tempo": 120.0
            },
            {
                "start_time": 39.72727272727273,
                "end_time": 39.913636363636364,
                "pitch": 31,
                "velocity": 80,
                "duration": 0.1863636363636374,
                "tempo": 120.0
            },
            {
                "start_time": 39.929545454545455,
                "end_time": 40.01136363636363,
                "pitch": 45,
                "velocity": 80,
                "duration": 0.08181818181817846,
                "tempo": 120.0
            },
            {
                "start_time": 40.027272727272724,
                "end_time": 40.10909090909091,
                "pitch": 45,
                "velocity": 80,
                "duration": 0.08181818181818556,
                "tempo": 120.0
            },
            {
                "start_time": 40.125,
                "end_time": 40.20681818181818,
                "pitch": 57,
                "velocity": 80,
                "duration": 0.08181818181817846,
                "tempo": 120.0
            },
            {
                "start_time": 40.22272727272727,
                "end_time": 40.304545454545455,
                "pitch": 57,
                "velocity": 80,
                "duration": 0.08181818181818556,
                "tempo": 120.0
            },
            {
                "start_time": 40.32272727272727,
                "end_time": 40.404545454545456,
                "pitch": 45,
                "velocity": 80,
                "duration": 0.08181818181818556,
                "tempo": 120.0
            },
            {
                "start_time": 40.42272727272727,
                "end_time": 40.50681818181818,
                "pitch": 45,
                "velocity": 80,
                "duration": 0.08409090909091077,
                "tempo": 120.0
            },
            {
                "start_time": 40.52272727272727,
                "end_time": 40.60681818181818,
                "pitch": 57,
                "velocity": 80,
                "duration": 0.08409090909090366,
                "tempo": 120.0
            },
            {
                "start_time": 40.62272727272727,
                "end_time": 40.70681818181818,
                "pitch": 57,
                "velocity": 80,
                "duration": 0.08409090909091077,
                "tempo": 120.0
            },
            {
                "start_time": 40.725,
                "end_time": 40.80681818181818,
                "pitch": 45,
                "velocity": 80,
                "duration": 0.08181818181817846,
                "tempo": 120.0
            },
            {
                "start_time": 40.824999999999996,
                "end_time": 40.90681818181818,
                "pitch": 45,
                "velocity": 80,
                "duration": 0.08181818181818556,
                "tempo": 120.0
            },
            {
                "start_time": 40.925,
                "end_time": 41.025,
                "pitch": 57,
                "velocity": 80,
                "duration": 0.10000000000000142,
                "tempo": 120.0
            },
            {
                "start_time": 41.04090909090909,
                "end_time": 41.125,
                "pitch": 57,
                "velocity": 80,
                "duration": 0.08409090909091077,
                "tempo": 120.0
            },
            {
                "start_time": 41.14090909090909,
                "end_time": 41.22954545454545,
                "pitch": 45,
                "velocity": 80,
                "duration": 0.08863636363636118,
                "tempo": 120.0
            },
            {
                "start_time": 41.24772727272727,
                "end_time": 41.334090909090904,
                "pitch": 45,
                "velocity": 80,
                "duration": 0.08636363636363598,
                "tempo": 120.0
            },
            {
                "start_time": 41.35227272727273,
                "end_time": 41.44090909090909,
                "pitch": 57,
                "velocity": 80,
                "duration": 0.08863636363636118,
                "tempo": 120.0
            },
            {
                "start_time": 41.45681818181818,
                "end_time": 41.54545454545455,
                "pitch": 57,
                "velocity": 80,
                "duration": 0.08863636363636829,
                "tempo": 120.0
            },
            {
                "start_time": 41.56363636363636,
                "end_time": 41.64772727272727,
                "pitch": 43,
                "velocity": 80,
                "duration": 0.08409090909091077,
                "tempo": 120.0
            },
            {
                "start_time": 41.663636363636364,
                "end_time": 41.74772727272727,
                "pitch": 43,
                "velocity": 80,
                "duration": 0.08409090909090366,
                "tempo": 120.0
            },
            {
                "start_time": 41.76363636363636,
                "end_time": 41.84772727272727,
                "pitch": 55,
                "velocity": 80,
                "duration": 0.08409090909091077,
                "tempo": 120.0
            },
            {
                "start_time": 41.86363636363636,
                "end_time": 41.94772727272727,
                "pitch": 55,
                "velocity": 80,
                "duration": 0.08409090909091077,
                "tempo": 120.0
            },
            {
                "start_time": 41.96363636363636,
                "end_time": 42.04545454545455,
                "pitch": 43,
                "velocity": 80,
                "duration": 0.08181818181818556,
                "tempo": 120.0
            },
            {
                "start_time": 42.06136363636364,
                "end_time": 42.143181818181816,
                "pitch": 43,
                "velocity": 80,
                "duration": 0.08181818181817846,
                "tempo": 120.0
            },
            {
                "start_time": 42.15909090909091,
                "end_time": 42.24090909090909,
                "pitch": 55,
                "velocity": 80,
                "duration": 0.08181818181818556,
                "tempo": 120.0
            },
            {
                "start_time": 42.25681818181818,
                "end_time": 42.33863636363636,
                "pitch": 55,
                "velocity": 80,
                "duration": 0.08181818181817846,
                "tempo": 120.0
            },
            {
                "start_time": 42.35454545454545,
                "end_time": 42.43636363636364,
                "pitch": 43,
                "velocity": 80,
                "duration": 0.08181818181818556,
                "tempo": 120.0
            },
            {
                "start_time": 42.45454545454545,
                "end_time": 42.53409090909091,
                "pitch": 43,
                "velocity": 80,
                "duration": 0.07954545454545325,
                "tempo": 120.0
            },
            {
                "start_time": 42.55227272727272,
                "end_time": 42.63409090909091,
                "pitch": 55,
                "velocity": 80,
                "duration": 0.08181818181818556,
                "tempo": 120.0
            },
            {
                "start_time": 42.65,
                "end_time": 42.73181818181818,
                "pitch": 55,
                "velocity": 80,
                "duration": 0.08181818181817846,
                "tempo": 120.0
            },
            {
                "start_time": 42.74772727272727,
                "end_time": 42.836363636363636,
                "pitch": 43,
                "velocity": 80,
                "duration": 0.08863636363636829,
                "tempo": 120.0
            },
            {
                "start_time": 42.85227272727273,
                "end_time": 42.94090909090909,
                "pitch": 43,
                "velocity": 80,
                "duration": 0.08863636363636118,
                "tempo": 120.0
            },
            {
                "start_time": 42.959090909090904,
                "end_time": 43.04772727272727,
                "pitch": 55,
                "velocity": 80,
                "duration": 0.08863636363636829,
                "tempo": 120.0
            },
            {
                "start_time": 43.06363636363636,
                "end_time": 43.17045454545455,
                "pitch": 55,
                "velocity": 80,
                "duration": 0.10681818181818414,
                "tempo": 120.0
            },
            {
                "start_time": 43.18863636363636,
                "end_time": 43.27272727272727,
                "pitch": 41,
                "velocity": 80,
                "duration": 0.08409090909091077,
                "tempo": 120.0
            },
            {
                "start_time": 43.29090909090909,
                "end_time": 43.375,
                "pitch": 41,
                "velocity": 80,
                "duration": 0.08409090909091077,
                "tempo": 120.0
            },
            {
                "start_time": 43.393181818181816,
                "end_time": 43.47954545454545,
                "pitch": 53,
                "velocity": 80,
                "duration": 0.08636363636363598,
                "tempo": 120.0
            },
            {
                "start_time": 43.49545454545454,
                "end_time": 43.58181818181818,
                "pitch": 53,
                "velocity": 80,
                "duration": 0.08636363636363598,
                "tempo": 120.0
            },
            {
                "start_time": 43.59772727272727,
                "end_time": 43.679545454545455,
                "pitch": 41,
                "velocity": 80,
                "duration": 0.08181818181818556,
                "tempo": 120.0
            },
            {
                "start_time": 43.695454545454545,
                "end_time": 43.777272727272724,
                "pitch": 41,
                "velocity": 80,
                "duration": 0.08181818181817846,
                "tempo": 120.0
            },
            {
                "start_time": 43.793181818181814,
                "end_time": 43.875,
                "pitch": 53,
                "velocity": 80,
                "duration": 0.08181818181818556,
                "tempo": 120.0
            },
            {
                "start_time": 43.89090909090909,
                "end_time": 43.97272727272727,
                "pitch": 53,
                "velocity": 80,
                "duration": 0.08181818181817846,
                "tempo": 120.0
            },
            {
                "start_time": 43.99090909090909,
                "end_time": 44.07272727272727,
                "pitch": 41,
                "velocity": 80,
                "duration": 0.08181818181817846,
                "tempo": 120.0
            },
            {
                "start_time": 44.090909090909086,
                "end_time": 44.17272727272727,
                "pitch": 41,
                "velocity": 80,
                "duration": 0.08181818181818556,
                "tempo": 120.0
            },
            {
                "start_time": 44.19090909090909,
                "end_time": 44.27272727272727,
                "pitch": 53,
                "velocity": 80,
                "duration": 0.08181818181818556,
                "tempo": 120.0
            },
            {
                "start_time": 44.29090909090909,
                "end_time": 44.37272727272727,
                "pitch": 53,
                "velocity": 80,
                "duration": 0.08181818181817846,
                "tempo": 120.0
            },
            {
                "start_time": 44.39090909090909,
                "end_time": 44.47727272727273,
                "pitch": 41,
                "velocity": 80,
                "duration": 0.08636363636363598,
                "tempo": 120.0
            },
            {
                "start_time": 44.49545454545454,
                "end_time": 44.584090909090904,
                "pitch": 41,
                "velocity": 80,
                "duration": 0.08863636363636118,
                "tempo": 120.0
            },
            {
                "start_time": 44.60227272727273,
                "end_time": 44.68863636363636,
                "pitch": 53,
                "velocity": 80,
                "duration": 0.08636363636363598,
                "tempo": 120.0
            },
            {
                "start_time": 44.70681818181818,
                "end_time": 44.79545454545455,
                "pitch": 53,
                "velocity": 80,
                "duration": 0.08863636363636829,
                "tempo": 120.0
            },
            {
                "start_time": 44.81136363636364,
                "end_time": 44.893181818181816,
                "pitch": 43,
                "velocity": 80,
                "duration": 0.08181818181817846,
                "tempo": 120.0
            },
            {
                "start_time": 44.90909090909091,
                "end_time": 44.99090909090909,
                "pitch": 43,
                "velocity": 80,
                "duration": 0.08181818181818556,
                "tempo": 120.0
            },
            {
                "start_time": 45.00909090909091,
                "end_time": 45.090909090909086,
                "pitch": 55,
                "velocity": 80,
                "duration": 0.08181818181817846,
                "tempo": 120.0
            },
            {
                "start_time": 45.10681818181818,
                "end_time": 45.18863636363636,
                "pitch": 55,
                "velocity": 80,
                "duration": 0.08181818181818556,
                "tempo": 120.0
            },
            {
                "start_time": 45.20454545454545,
                "end_time": 45.30681818181818,
                "pitch": 43,
                "velocity": 80,
                "duration": 0.10227272727272663,
                "tempo": 120.0
            },
            {
                "start_time": 45.324999999999996,
                "end_time": 45.40909090909091,
                "pitch": 43,
                "velocity": 80,
                "duration": 0.08409090909091077,
                "tempo": 120.0
            },
            {
                "start_time": 45.42727272727272,
                "end_time": 45.51136363636363,
                "pitch": 55,
                "velocity": 80,
                "duration": 0.08409090909091077,
                "tempo": 120.0
            },
            {
                "start_time": 45.52954545454545,
                "end_time": 45.61590909090909,
                "pitch": 55,
                "velocity": 80,
                "duration": 0.08636363636364308,
                "tempo": 120.0
            },
            {
                "start_time": 45.63181818181818,
                "end_time": 45.71818181818182,
                "pitch": 43,
                "velocity": 80,
                "duration": 0.08636363636363598,
                "tempo": 120.0
            },
            {
                "start_time": 45.73409090909091,
                "end_time": 45.820454545454545,
                "pitch": 43,
                "velocity": 80,
                "duration": 0.08636363636363598,
                "tempo": 120.0
            },
            {
                "start_time": 45.83863636363636,
                "end_time": 45.92272727272727,
                "pitch": 55,
                "velocity": 80,
                "duration": 0.08409090909091077,
                "tempo": 120.0
            },
            {
                "start_time": 45.94090909090909,
                "end_time": 46.025,
                "pitch": 55,
                "velocity": 80,
                "duration": 0.08409090909091077,
                "tempo": 120.0
            },
            {
                "start_time": 46.043181818181814,
                "end_time": 46.12954545454545,
                "pitch": 43,
                "velocity": 80,
                "duration": 0.08636363636363598,
                "tempo": 120.0
            },
            {
                "start_time": 46.14545454545454,
                "end_time": 46.23181818181818,
                "pitch": 43,
                "velocity": 80,
                "duration": 0.08636363636363598,
                "tempo": 120.0
            },
            {
                "start_time": 46.24772727272727,
                "end_time": 46.334090909090904,
                "pitch": 55,
                "velocity": 80,
                "duration": 0.08636363636363598,
                "tempo": 120.0
            },
            {
                "start_time": 46.35227272727273,
                "end_time": 46.43636363636364,
                "pitch": 55,
                "velocity": 80,
                "duration": 0.08409090909091077,
                "tempo": 120.0
            },
            {
                "start_time": 46.45454545454545,
                "end_time": 46.538636363636364,
                "pitch": 45,
                "velocity": 80,
                "duration": 0.08409090909091077,
                "tempo": 120.0
            },
            {
                "start_time": 46.554545454545455,
                "end_time": 46.63863636363636,
                "pitch": 45,
                "velocity": 80,
                "duration": 0.08409090909090366,
                "tempo": 120.0
            },
            {
                "start_time": 46.65454545454545,
                "end_time": 46.73863636363636,
                "pitch": 57,
                "velocity": 80,
                "duration": 0.08409090909091077,
                "tempo": 120.0
            },
            {
                "start_time": 46.75454545454545,
                "end_time": 46.83863636363636,
                "pitch": 57,
                "velocity": 80,
                "duration": 0.08409090909091077,
                "tempo": 120.0
            },
            {
                "start_time": 46.85454545454545,
                "end_time": 46.93636363636364,
                "pitch": 45,
                "velocity": 80,
                "duration": 0.08181818181818556,
                "tempo": 120.0
            },
            {
                "start_time": 46.95227272727273,
                "end_time": 47.03409090909091,
                "pitch": 45,
                "velocity": 80,
                "duration": 0.08181818181817846,
                "tempo": 120.0
            },
            {
                "start_time": 47.05,
                "end_time": 47.13181818181818,
                "pitch": 57,
                "velocity": 80,
                "duration": 0.08181818181818556,
                "tempo": 120.0
            },
            {
                "start_time": 47.14772727272727,
                "end_time": 47.22954545454545,
                "pitch": 57,
                "velocity": 80,
                "duration": 0.08181818181817846,
                "tempo": 120.0
            },
            {
                "start_time": 47.24545454545454,
                "end_time": 47.32954545454545,
                "pitch": 45,
                "velocity": 80,
                "duration": 0.08409090909091077,
                "tempo": 120.0
            },
            {
                "start_time": 47.345454545454544,
                "end_time": 47.445454545454545,
                "pitch": 45,
                "velocity": 80,
                "duration": 0.10000000000000142,
                "tempo": 120.0
            },
            {
                "start_time": 47.46363636363636,
                "end_time": 47.54545454545454,
                "pitch": 57,
                "velocity": 80,
                "duration": 0.08181818181817846,
                "tempo": 120.0
            },
            {
                "start_time": 47.56363636363636,
                "end_time": 47.64545454545454,
                "pitch": 57,
                "velocity": 80,
                "duration": 0.08181818181817846,
                "tempo": 120.0
            },
            {
                "start_time": 47.663636363636364,
                "end_time": 47.75,
                "pitch": 45,
                "velocity": 80,
                "duration": 0.08636363636363598,
                "tempo": 120.0
            },
            {
                "start_time": 47.768181818181816,
                "end_time": 47.85681818181818,
                "pitch": 45,
                "velocity": 80,
                "duration": 0.08863636363636118,
                "tempo": 120.0
            },
            {
                "start_time": 47.875,
                "end_time": 47.961363636363636,
                "pitch": 57,
                "velocity": 80,
                "duration": 0.08636363636363598,
                "tempo": 120.0
            },
            {
                "start_time": 47.97954545454545,
                "end_time": 48.06818181818181,
                "pitch": 57,
                "velocity": 80,
                "duration": 0.08863636363636118,
                "tempo": 120.0
            },
            {
                "start_time": 48.086363636363636,
                "end_time": 48.168181818181814,
                "pitch": 43,
                "velocity": 80,
                "duration": 0.08181818181817846,
                "tempo": 120.0
            },
            {
                "start_time": 48.18636363636364,
                "end_time": 48.268181818181816,
                "pitch": 43,
                "velocity": 80,
                "duration": 0.08181818181817846,
                "tempo": 120.0
            },
            {
                "start_time": 48.28636363636363,
                "end_time": 48.36818181818182,
                "pitch": 55,
                "velocity": 80,
                "duration": 0.08181818181818556,
                "tempo": 120.0
            },
            {
                "start_time": 48.38636363636363,
                "end_time": 48.46818181818182,
                "pitch": 55,
                "velocity": 80,
                "duration": 0.08181818181818556,
                "tempo": 120.0
            },
            {
                "start_time": 48.48409090909091,
                "end_time": 48.56363636363636,
                "pitch": 43,
                "velocity": 80,
                "duration": 0.07954545454545325,
                "tempo": 120.0
            },
            {
                "start_time": 48.57954545454545,
                "end_time": 48.65909090909091,
                "pitch": 43,
                "velocity": 80,
                "duration": 0.07954545454545325,
                "tempo": 120.0
            },
            {
                "start_time": 48.675,
                "end_time": 48.75454545454545,
                "pitch": 55,
                "velocity": 80,
                "duration": 0.07954545454545325,
                "tempo": 120.0
            },
            {
                "start_time": 48.77045454545454,
                "end_time": 48.85227272727273,
                "pitch": 55,
                "velocity": 80,
                "duration": 0.08181818181818556,
                "tempo": 120.0
            },
            {
                "start_time": 48.86818181818182,
                "end_time": 48.95227272727273,
                "pitch": 43,
                "velocity": 80,
                "duration": 0.08409090909091077,
                "tempo": 120.0
            },
            {
                "start_time": 48.96818181818182,
                "end_time": 49.05227272727272,
                "pitch": 43,
                "velocity": 80,
                "duration": 0.08409090909090366,
                "tempo": 120.0
            },
            {
                "start_time": 49.06818181818181,
                "end_time": 49.152272727272724,
                "pitch": 55,
                "velocity": 80,
                "duration": 0.08409090909091077,
                "tempo": 120.0
            },
            {
                "start_time": 49.168181818181814,
                "end_time": 49.252272727272725,
                "pitch": 55,
                "velocity": 80,
                "duration": 0.08409090909091077,
                "tempo": 120.0
            },
            {
                "start_time": 49.268181818181816,
                "end_time": 49.35681818181818,
                "pitch": 43,
                "velocity": 80,
                "duration": 0.08863636363636118,
                "tempo": 120.0
            },
            {
                "start_time": 49.37272727272727,
                "end_time": 49.461363636363636,
                "pitch": 43,
                "velocity": 80,
                "duration": 0.08863636363636829,
                "tempo": 120.0
            },
            {
                "start_time": 49.47954545454545,
                "end_time": 49.56818181818181,
                "pitch": 55,
                "velocity": 80,
                "duration": 0.08863636363636118,
                "tempo": 120.0
            },
            {
                "start_time": 49.60227272727273,
                "end_time": 49.69090909090909,
                "pitch": 55,
                "velocity": 80,
                "duration": 0.08863636363636118,
                "tempo": 120.0
            },
            {
                "start_time": 49.70681818181818,
                "end_time": 49.793181818181814,
                "pitch": 41,
                "velocity": 80,
                "duration": 0.08636363636363598,
                "tempo": 120.0
            },
            {
                "start_time": 49.81136363636364,
                "end_time": 49.89545454545454,
                "pitch": 41,
                "velocity": 80,
                "duration": 0.08409090909090366,
                "tempo": 120.0
            },
            {
                "start_time": 49.913636363636364,
                "end_time": 49.99772727272727,
                "pitch": 53,
                "velocity": 80,
                "duration": 0.08409090909090366,
                "tempo": 120.0
            },
            {
                "start_time": 50.01590909090909,
                "end_time": 50.10227272727273,
                "pitch": 53,
                "velocity": 80,
                "duration": 0.08636363636363598,
                "tempo": 120.0
            },
            {
                "start_time": 50.11818181818182,
                "end_time": 50.199999999999996,
                "pitch": 41,
                "velocity": 80,
                "duration": 0.08181818181817846,
                "tempo": 120.0
            },
            {
                "start_time": 50.215909090909086,
                "end_time": 50.29772727272727,
                "pitch": 41,
                "velocity": 80,
                "duration": 0.08181818181818556,
                "tempo": 120.0
            },
            {
                "start_time": 50.31363636363636,
                "end_time": 50.39545454545454,
                "pitch": 53,
                "velocity": 80,
                "duration": 0.08181818181817846,
                "tempo": 120.0
            },
            {
                "start_time": 50.41136363636363,
                "end_time": 50.49318181818182,
                "pitch": 53,
                "velocity": 80,
                "duration": 0.08181818181818556,
                "tempo": 120.0
            },
            {
                "start_time": 50.51136363636363,
                "end_time": 50.595454545454544,
                "pitch": 41,
                "velocity": 80,
                "duration": 0.08409090909091077,
                "tempo": 120.0
            },
            {
                "start_time": 50.611363636363635,
                "end_time": 50.695454545454545,
                "pitch": 41,
                "velocity": 80,
                "duration": 0.08409090909091077,
                "tempo": 120.0
            },
            {
                "start_time": 50.711363636363636,
                "end_time": 50.79545454545454,
                "pitch": 53,
                "velocity": 80,
                "duration": 0.08409090909090366,
                "tempo": 120.0
            },
            {
                "start_time": 50.81363636363636,
                "end_time": 50.89545454545454,
                "pitch": 53,
                "velocity": 80,
                "duration": 0.08181818181817846,
                "tempo": 120.0
            },
            {
                "start_time": 50.913636363636364,
                "end_time": 51.0,
                "pitch": 41,
                "velocity": 80,
                "duration": 0.08636363636363598,
                "tempo": 120.0
            },
            {
                "start_time": 51.018181818181816,
                "end_time": 51.10681818181818,
                "pitch": 41,
                "velocity": 80,
                "duration": 0.08863636363636118,
                "tempo": 120.0
            },
            {
                "start_time": 51.125,
                "end_time": 51.211363636363636,
                "pitch": 53,
                "velocity": 80,
                "duration": 0.08636363636363598,
                "tempo": 120.0
            },
            {
                "start_time": 51.22954545454545,
                "end_time": 51.31818181818181,
                "pitch": 53,
                "velocity": 80,
                "duration": 0.08863636363636118,
                "tempo": 120.0
            },
            {
                "start_time": 51.334090909090904,
                "end_time": 51.41590909090909,
                "pitch": 43,
                "velocity": 80,
                "duration": 0.08181818181818556,
                "tempo": 120.0
            },
            {
                "start_time": 51.434090909090905,
                "end_time": 51.51590909090909,
                "pitch": 43,
                "velocity": 80,
                "duration": 0.08181818181818556,
                "tempo": 120.0
            },
            {
                "start_time": 51.53181818181818,
                "end_time": 51.61363636363636,
                "pitch": 55,
                "velocity": 80,
                "duration": 0.08181818181817846,
                "tempo": 120.0
            },
            {
                "start_time": 51.62954545454545,
                "end_time": 51.711363636363636,
                "pitch": 55,
                "velocity": 80,
                "duration": 0.08181818181818556,
                "tempo": 120.0
            },
            {
                "start_time": 51.72727272727273,
                "end_time": 51.82954545454545,
                "pitch": 43,
                "velocity": 80,
                "duration": 0.10227272727272663,
                "tempo": 120.0
            },
            {
                "start_time": 51.84772727272727,
                "end_time": 51.93181818181818,
                "pitch": 43,
                "velocity": 80,
                "duration": 0.08409090909091077,
                "tempo": 120.0
            },
            {
                "start_time": 51.949999999999996,
                "end_time": 52.03636363636363,
                "pitch": 55,
                "velocity": 80,
                "duration": 0.08636363636363598,
                "tempo": 120.0
            },
            {
                "start_time": 52.05227272727272,
                "end_time": 52.13863636363636,
                "pitch": 55,
                "velocity": 80,
                "duration": 0.08636363636363598,
                "tempo": 120.0
            },
            {
                "start_time": 52.15454545454545,
                "end_time": 52.240909090909085,
                "pitch": 43,
                "velocity": 80,
                "duration": 0.08636363636363598,
                "tempo": 120.0
            },
            {
                "start_time": 52.25681818181818,
                "end_time": 52.34318181818182,
                "pitch": 43,
                "velocity": 80,
                "duration": 0.08636363636363598,
                "tempo": 120.0
            },
            {
                "start_time": 52.361363636363635,
                "end_time": 52.445454545454545,
                "pitch": 55,
                "velocity": 80,
                "duration": 0.08409090909091077,
                "tempo": 120.0
            },
            {
                "start_time": 52.46363636363636,
                "end_time": 52.55,
                "pitch": 55,
                "velocity": 80,
                "duration": 0.08636363636363598,
                "tempo": 120.0
            },
            {
                "start_time": 52.56590909090909,
                "end_time": 52.652272727272724,
                "pitch": 43,
                "velocity": 80,
                "duration": 0.08636363636363598,
                "tempo": 120.0
            },
            {
                "start_time": 52.668181818181814,
                "end_time": 52.75454545454545,
                "pitch": 43,
                "velocity": 80,
                "duration": 0.08636363636363598,
                "tempo": 120.0
            },
            {
                "start_time": 52.77272727272727,
                "end_time": 52.85681818181818,
                "pitch": 55,
                "velocity": 80,
                "duration": 0.08409090909090366,
                "tempo": 120.0
            },
            {
                "start_time": 52.875,
                "end_time": 52.959090909090904,
                "pitch": 55,
                "velocity": 80,
                "duration": 0.08409090909090366,
                "tempo": 120.0
            },
            {
                "start_time": 52.97727272727273,
                "end_time": 53.16136363636363,
                "pitch": 45,
                "velocity": 80,
                "duration": 0.18409090909090509,
                "tempo": 120.0
            },
            {
                "start_time": 53.17727272727272,
                "end_time": 53.26136363636363,
                "pitch": 57,
                "velocity": 80,
                "duration": 0.08409090909091077,
                "tempo": 120.0
            },
            {
                "start_time": 53.277272727272724,
                "end_time": 53.361363636363635,
                "pitch": 57,
                "velocity": 80,
                "duration": 0.08409090909091077,
                "tempo": 120.0
            },
            {
                "start_time": 53.377272727272725,
                "end_time": 53.56136363636363,
                "pitch": 45,
                "velocity": 80,
                "duration": 0.18409090909090509,
                "tempo": 120.0
            },
            {
                "start_time": 53.57727272727273,
                "end_time": 53.66136363636363,
                "pitch": 57,
                "velocity": 80,
                "duration": 0.08409090909090366,
                "tempo": 120.0
            },
            {
                "start_time": 53.67727272727272,
                "end_time": 53.76136363636363,
                "pitch": 57,
                "velocity": 80,
                "duration": 0.08409090909091077,
                "tempo": 120.0
            },
            {
                "start_time": 53.777272727272724,
                "end_time": 53.97727272727273,
                "pitch": 45,
                "velocity": 80,
                "duration": 0.20000000000000284,
                "tempo": 120.0
            },
            {
                "start_time": 53.99318181818182,
                "end_time": 54.07727272727273,
                "pitch": 57,
                "velocity": 80,
                "duration": 0.08409090909091077,
                "tempo": 120.0
            },
            {
                "start_time": 54.09318181818182,
                "end_time": 54.17727272727272,
                "pitch": 57,
                "velocity": 80,
                "duration": 0.08409090909090366,
                "tempo": 120.0
            },
            {
                "start_time": 54.19318181818181,
                "end_time": 54.38181818181818,
                "pitch": 45,
                "velocity": 80,
                "duration": 0.1886363636363697,
                "tempo": 120.0
            },
            {
                "start_time": 54.4,
                "end_time": 54.48409090909091,
                "pitch": 57,
                "velocity": 80,
                "duration": 0.08409090909091077,
                "tempo": 120.0
            },
            {
                "start_time": 54.502272727272725,
                "end_time": 54.58863636363636,
                "pitch": 57,
                "velocity": 80,
                "duration": 0.08636363636363598,
                "tempo": 120.0
            },
            {
                "start_time": 54.60454545454545,
                "end_time": 54.788636363636364,
                "pitch": 43,
                "velocity": 80,
                "duration": 0.1840909090909122,
                "tempo": 120.0
            },
            {
                "start_time": 54.804545454545455,
                "end_time": 54.88863636363636,
                "pitch": 55,
                "velocity": 80,
                "duration": 0.08409090909090366,
                "tempo": 120.0
            },
            {
                "start_time": 54.90454545454545,
                "end_time": 54.98863636363636,
                "pitch": 55,
                "velocity": 80,
                "duration": 0.08409090909091077,
                "tempo": 120.0
            },
            {
                "start_time": 55.00454545454545,
                "end_time": 55.18863636363636,
                "pitch": 43,
                "velocity": 80,
                "duration": 0.1840909090909122,
                "tempo": 120.0
            },
            {
                "start_time": 55.20454545454545,
                "end_time": 55.288636363636364,
                "pitch": 55,
                "velocity": 80,
                "duration": 0.08409090909091077,
                "tempo": 120.0
            },
            {
                "start_time": 55.304545454545455,
                "end_time": 55.38863636363636,
                "pitch": 55,
                "velocity": 80,
                "duration": 0.08409090909090366,
                "tempo": 120.0
            },
            {
                "start_time": 55.40454545454545,
                "end_time": 55.59318181818182,
                "pitch": 43,
                "velocity": 80,
                "duration": 0.1886363636363697,
                "tempo": 120.0
            },
            {
                "start_time": 55.60909090909091,
                "end_time": 55.695454545454545,
                "pitch": 55,
                "velocity": 80,
                "duration": 0.08636363636363598,
                "tempo": 120.0
            },
            {
                "start_time": 55.71363636363636,
                "end_time": 55.79772727272727,
                "pitch": 55,
                "velocity": 80,
                "duration": 0.08409090909091077,
                "tempo": 120.0
            },
            {
                "start_time": 55.81590909090909,
                "end_time": 55.99545454545454,
                "pitch": 43,
                "velocity": 80,
                "duration": 0.17954545454545467,
                "tempo": 120.0
            },
            {
                "start_time": 56.01136363636363,
                "end_time": 56.10909090909091,
                "pitch": 55,
                "velocity": 80,
                "duration": 0.09772727272727622,
                "tempo": 120.0
            },
            {
                "start_time": 56.125,
                "end_time": 56.20681818181818,
                "pitch": 55,
                "velocity": 80,
                "duration": 0.08181818181817846,
                "tempo": 120.0
            },
            {
                "start_time": 56.224999999999994,
                "end_time": 56.413636363636364,
                "pitch": 41,
                "velocity": 80,
                "duration": 0.1886363636363697,
                "tempo": 120.0
            },
            {
                "start_time": 56.429545454545455,
                "end_time": 56.51590909090909,
                "pitch": 53,
                "velocity": 80,
                "duration": 0.08636363636363598,
                "tempo": 120.0
            },
            {
                "start_time": 56.53181818181818,
                "end_time": 56.61818181818182,
                "pitch": 53,
                "velocity": 80,
                "duration": 0.08636363636363598,
                "tempo": 120.0
            },
            {
                "start_time": 56.63636363636363,
                "end_time": 56.82272727272727,
                "pitch": 41,
                "velocity": 80,
                "duration": 0.1863636363636374,
                "tempo": 120.0
            },
            {
                "start_time": 56.840909090909086,
                "end_time": 56.92727272727272,
                "pitch": 53,
                "velocity": 80,
                "duration": 0.08636363636363598,
                "tempo": 120.0
            },
            {
                "start_time": 56.94318181818181,
                "end_time": 57.02954545454545,
                "pitch": 53,
                "velocity": 80,
                "duration": 0.08636363636363598,
                "tempo": 120.0
            },
            {
                "start_time": 57.04545454545454,
                "end_time": 57.224999999999994,
                "pitch": 41,
                "velocity": 80,
                "duration": 0.17954545454545467,
                "tempo": 120.0
            },
            {
                "start_time": 57.24318181818182,
                "end_time": 57.32272727272727,
                "pitch": 53,
                "velocity": 80,
                "duration": 0.07954545454545325,
                "tempo": 120.0
            },
            {
                "start_time": 57.340909090909086,
                "end_time": 57.42272727272727,
                "pitch": 53,
                "velocity": 80,
                "duration": 0.08181818181818556,
                "tempo": 120.0
            },
            {
                "start_time": 57.43863636363636,
                "end_time": 57.627272727272725,
                "pitch": 41,
                "velocity": 80,
                "duration": 0.1886363636363626,
                "tempo": 120.0
            },
            {
                "start_time": 57.643181818181816,
                "end_time": 57.72954545454545,
                "pitch": 53,
                "velocity": 80,
                "duration": 0.08636363636363598,
                "tempo": 120.0
            },
            {
                "start_time": 57.74545454545454,
                "end_time": 57.83181818181818,
                "pitch": 53,
                "velocity": 80,
                "duration": 0.08636363636363598,
                "tempo": 120.0
            },
            {
                "start_time": 57.84772727272727,
                "end_time": 58.027272727272724,
                "pitch": 43,
                "velocity": 80,
                "duration": 0.17954545454545467,
                "tempo": 120.0
            },
            {
                "start_time": 58.04545454545454,
                "end_time": 58.127272727272725,
                "pitch": 55,
                "velocity": 80,
                "duration": 0.08181818181818556,
                "tempo": 120.0
            },
            {
                "start_time": 58.143181818181816,
                "end_time": 58.240909090909085,
                "pitch": 55,
                "velocity": 80,
                "duration": 0.09772727272726911,
                "tempo": 120.0
            },
            {
                "start_time": 58.256818181818176,
                "end_time": 58.45454545454545,
                "pitch": 43,
                "velocity": 80,
                "duration": 0.19772727272727764,
                "tempo": 120.0
            },
            {
                "start_time": 58.47272727272727,
                "end_time": 58.56136363636363,
                "pitch": 55,
                "velocity": 80,
                "duration": 0.08863636363636118,
                "tempo": 120.0
            },
            {
                "start_time": 58.57954545454545,
                "end_time": 58.67045454545454,
                "pitch": 55,
                "velocity": 80,
                "duration": 0.09090909090908639,
                "tempo": 120.0
            },
            {
                "start_time": 58.68636363636363,
                "end_time": 58.861363636363635,
                "pitch": 43,
                "velocity": 80,
                "duration": 0.17500000000000426,
                "tempo": 120.0
            },
            {
                "start_time": 58.877272727272725,
                "end_time": 58.95681818181818,
                "pitch": 55,
                "velocity": 80,
                "duration": 0.07954545454545325,
                "tempo": 120.0
            },
            {
                "start_time": 58.97272727272727,
                "end_time": 59.05227272727272,
                "pitch": 55,
                "velocity": 80,
                "duration": 0.07954545454545325,
                "tempo": 120.0
            },
            {
                "start_time": 59.06818181818181,
                "end_time": 59.256818181818176,
                "pitch": 43,
                "velocity": 80,
                "duration": 0.1886363636363626,
                "tempo": 120.0
            },
            {
                "start_time": 59.275,
                "end_time": 59.35909090909091,
                "pitch": 55,
                "velocity": 80,
                "duration": 0.08409090909091077,
                "tempo": 120.0
            },
            {
                "start_time": 59.377272727272725,
                "end_time": 59.46363636363636,
                "pitch": 55,
                "velocity": 80,
                "duration": 0.08636363636363598,
                "tempo": 120.0
            },
            {
                "start_time": 59.47954545454545,
                "end_time": 59.663636363636364,
                "pitch": 45,
                "velocity": 80,
                "duration": 0.1840909090909122,
                "tempo": 120.0
            },
            {
                "start_time": 59.679545454545455,
                "end_time": 59.76363636363636,
                "pitch": 57,
                "velocity": 80,
                "duration": 0.08409090909090366,
                "tempo": 120.0
            },
            {
                "start_time": 59.77954545454545,
                "end_time": 59.86363636363636,
                "pitch": 57,
                "velocity": 80,
                "duration": 0.08409090909091077,
                "tempo": 120.0
            },
            {
                "start_time": 59.87954545454545,
                "end_time": 60.06363636363636,
                "pitch": 45,
                "velocity": 80,
                "duration": 0.1840909090909122,
                "tempo": 120.0
            },
            {
                "start_time": 60.07954545454545,
                "end_time": 60.163636363636364,
                "pitch": 57,
                "velocity": 80,
                "duration": 0.08409090909091077,
                "tempo": 120.0
            },
            {
                "start_time": 60.179545454545455,
                "end_time": 60.26363636363636,
                "pitch": 57,
                "velocity": 80,
                "duration": 0.08409090909090366,
                "tempo": 120.0
            },
            {
                "start_time": 60.27954545454545,
                "end_time": 60.48409090909091,
                "pitch": 45,
                "velocity": 80,
                "duration": 0.20454545454546036,
                "tempo": 120.0
            },
            {
                "start_time": 60.502272727272725,
                "end_time": 60.58863636363636,
                "pitch": 57,
                "velocity": 80,
                "duration": 0.08636363636363598,
                "tempo": 120.0
            },
            {
                "start_time": 60.60454545454545,
                "end_time": 60.69090909090909,
                "pitch": 57,
                "velocity": 80,
                "duration": 0.08636363636363598,
                "tempo": 120.0
            },
            {
                "start_time": 60.70681818181818,
                "end_time": 60.89545454545454,
                "pitch": 45,
                "velocity": 80,
                "duration": 0.1886363636363626,
                "tempo": 120.0
            },
            {
                "start_time": 60.913636363636364,
                "end_time": 60.99772727272727,
                "pitch": 57,
                "velocity": 80,
                "duration": 0.08409090909090366,
                "tempo": 120.0
            },
            {
                "start_time": 61.01590909090909,
                "end_time": 61.10227272727273,
                "pitch": 57,
                "velocity": 80,
                "duration": 0.08636363636363598,
                "tempo": 120.0
            },
            {
                "start_time": 61.11818181818182,
                "end_time": 61.30227272727272,
                "pitch": 43,
                "velocity": 80,
                "duration": 0.18409090909090509,
                "tempo": 120.0
            },
            {
                "start_time": 61.320454545454545,
                "end_time": 61.40454545454545,
                "pitch": 55,
                "velocity": 80,
                "duration": 0.08409090909090366,
                "tempo": 120.0
            },
            {
                "start_time": 61.42045454545454,
                "end_time": 61.50454545454545,
                "pitch": 55,
                "velocity": 80,
                "duration": 0.08409090909091077,
                "tempo": 120.0
            },
            {
                "start_time": 61.52045454545454,
                "end_time": 61.70454545454545,
                "pitch": 43,
                "velocity": 80,
                "duration": 0.1840909090909122,
                "tempo": 120.0
            },
            {
                "start_time": 61.720454545454544,
                "end_time": 61.804545454545455,
                "pitch": 55,
                "velocity": 80,
                "duration": 0.08409090909091077,
                "tempo": 120.0
            },
            {
                "start_time": 61.820454545454545,
                "end_time": 61.90454545454545,
                "pitch": 55,
                "velocity": 80,
                "duration": 0.08409090909090366,
                "tempo": 120.0
            },
            {
                "start_time": 61.92045454545454,
                "end_time": 62.10909090909091,
                "pitch": 43,
                "velocity": 80,
                "duration": 0.1886363636363697,
                "tempo": 120.0
            },
            {
                "start_time": 62.127272727272725,
                "end_time": 62.211363636363636,
                "pitch": 55,
                "velocity": 80,
                "duration": 0.08409090909091077,
                "tempo": 120.0
            },
            {
                "start_time": 62.22954545454545,
                "end_time": 62.31590909090909,
                "pitch": 55,
                "velocity": 80,
                "duration": 0.08636363636363598,
                "tempo": 120.0
            },
            {
                "start_time": 62.33181818181818,
                "end_time": 62.51136363636363,
                "pitch": 43,
                "velocity": 80,
                "duration": 0.17954545454545467,
                "tempo": 120.0
            },
            {
                "start_time": 62.54545454545454,
                "end_time": 62.625,
                "pitch": 55,
                "velocity": 80,
                "duration": 0.07954545454546036,
                "tempo": 120.0
            },
            {
                "start_time": 62.643181818181816,
                "end_time": 62.724999999999994,
                "pitch": 55,
                "velocity": 80,
                "duration": 0.08181818181817846,
                "tempo": 120.0
            },
            {
                "start_time": 62.740909090909085,
                "end_time": 62.929545454545455,
                "pitch": 41,
                "velocity": 80,
                "duration": 0.1886363636363697,
                "tempo": 120.0
            },
            {
                "start_time": 62.945454545454545,
                "end_time": 63.03181818181818,
                "pitch": 53,
                "velocity": 80,
                "duration": 0.08636363636363598,
                "tempo": 120.0
            },
            {
                "start_time": 63.05,
                "end_time": 63.13409090909091,
                "pitch": 53,
                "velocity": 80,
                "duration": 0.08409090909091077,
                "tempo": 120.0
            },
            {
                "start_time": 63.152272727272724,
                "end_time": 63.340909090909086,
                "pitch": 41,
                "velocity": 80,
                "duration": 0.1886363636363626,
                "tempo": 120.0
            },
            {
                "start_time": 63.35681818181818,
                "end_time": 63.44318181818181,
                "pitch": 53,
                "velocity": 80,
                "duration": 0.08636363636363598,
                "tempo": 120.0
            },
            {
                "start_time": 63.459090909090904,
                "end_time": 63.54545454545454,
                "pitch": 53,
                "velocity": 80,
                "duration": 0.08636363636363598,
                "tempo": 120.0
            },
            {
                "start_time": 63.56363636363636,
                "end_time": 63.75,
                "pitch": 41,
                "velocity": 80,
                "duration": 0.1863636363636374,
                "tempo": 120.0
            },
            {
                "start_time": 63.768181818181816,
                "end_time": 63.85454545454545,
                "pitch": 53,
                "velocity": 80,
                "duration": 0.08636363636363598,
                "tempo": 120.0
            },
            {
                "start_time": 63.87045454545454,
                "end_time": 63.95681818181818,
                "pitch": 53,
                "velocity": 80,
                "duration": 0.08636363636363598,
                "tempo": 120.0
            },
            {
                "start_time": 63.97272727272727,
                "end_time": 64.15454545454546,
                "pitch": 41,
                "velocity": 80,
                "duration": 0.18181818181818699,
                "tempo": 120.0
            },
            {
                "start_time": 64.17045454545455,
                "end_time": 64.25227272727273,
                "pitch": 53,
                "velocity": 80,
                "duration": 0.08181818181817846,
                "tempo": 120.0
            },
            {
                "start_time": 64.26818181818182,
                "end_time": 64.35,
                "pitch": 53,
                "velocity": 80,
                "duration": 0.08181818181817846,
                "tempo": 120.0
            },
            {
                "start_time": 64.36590909090908,
                "end_time": 64.54545454545455,
                "pitch": 43,
                "velocity": 80,
                "duration": 0.17954545454546178,
                "tempo": 120.0
            },
            {
                "start_time": 64.56136363636364,
                "end_time": 64.64318181818182,
                "pitch": 55,
                "velocity": 80,
                "duration": 0.08181818181817846,
                "tempo": 120.0
            },
            {
                "start_time": 64.6590909090909,
                "end_time": 64.7590909090909,
                "pitch": 55,
                "velocity": 80,
                "duration": 0.09999999999999432,
                "tempo": 120.0
            },
            {
                "start_time": 64.77499999999999,
                "end_time": 64.97272727272727,
                "pitch": 43,
                "velocity": 80,
                "duration": 0.19772727272727764,
                "tempo": 120.0
            },
            {
                "start_time": 64.98863636363636,
                "end_time": 65.07954545454545,
                "pitch": 55,
                "velocity": 80,
                "duration": 0.09090909090909349,
                "tempo": 120.0
            },
            {
                "start_time": 65.09772727272727,
                "end_time": 65.18636363636364,
                "pitch": 55,
                "velocity": 80,
                "duration": 0.08863636363636829,
                "tempo": 120.0
            },
            {
                "start_time": 65.20454545454545,
                "end_time": 65.38863636363637,
                "pitch": 43,
                "velocity": 80,
                "duration": 0.1840909090909122,
                "tempo": 120.0
            },
            {
                "start_time": 65.40681818181818,
                "end_time": 65.48863636363636,
                "pitch": 55,
                "velocity": 80,
                "duration": 0.08181818181817846,
                "tempo": 120.0
            },
            {
                "start_time": 65.50681818181818,
                "end_time": 65.58863636363635,
                "pitch": 55,
                "velocity": 80,
                "duration": 0.08181818181817846,
                "tempo": 120.0
            },
            {
                "start_time": 65.60681818181818,
                "end_time": 65.78636363636363,
                "pitch": 43,
                "velocity": 80,
                "duration": 0.17954545454544757,
                "tempo": 120.0
            },
            {
                "start_time": 65.80227272727272,
                "end_time": 65.8840909090909,
                "pitch": 55,
                "velocity": 80,
                "duration": 0.08181818181817846,
                "tempo": 120.0
            },
            {
                "start_time": 65.89999999999999,
                "end_time": 65.98181818181818,
                "pitch": 55,
                "velocity": 80,
                "duration": 0.08181818181819267,
                "tempo": 120.0
            },
            {
                "start_time": 65.99772727272727,
                "end_time": 66.18181818181817,
                "pitch": 45,
                "velocity": 80,
                "duration": 0.18409090909089798,
                "tempo": 120.0
            },
            {
                "start_time": 66.2,
                "end_time": 66.2840909090909,
                "pitch": 57,
                "velocity": 80,
                "duration": 0.08409090909090366,
                "tempo": 120.0
            },
            {
                "start_time": 66.3,
                "end_time": 66.3840909090909,
                "pitch": 57,
                "velocity": 80,
                "duration": 0.08409090909090366,
                "tempo": 120.0
            },
            {
                "start_time": 66.39999999999999,
                "end_time": 66.58863636363635,
                "pitch": 45,
                "velocity": 80,
                "duration": 0.1886363636363626,
                "tempo": 120.0
            },
            {
                "start_time": 66.60681818181818,
                "end_time": 66.69090909090909,
                "pitch": 57,
                "velocity": 80,
                "duration": 0.08409090909090366,
                "tempo": 120.0
            },
            {
                "start_time": 66.7090909090909,
                "end_time": 66.79545454545455,
                "pitch": 57,
                "velocity": 80,
                "duration": 0.08636363636364308,
                "tempo": 120.0
            },
            {
                "start_time": 66.81136363636364,
                "end_time": 67.01363636363637,
                "pitch": 45,
                "velocity": 80,
                "duration": 0.20227272727272805,
                "tempo": 120.0
            },
            {
                "start_time": 67.02954545454546,
                "end_time": 67.11363636363636,
                "pitch": 57,
                "velocity": 80,
                "duration": 0.08409090909090366,
                "tempo": 120.0
            },
            {
                "start_time": 67.12954545454545,
                "end_time": 67.21363636363635,
                "pitch": 57,
                "velocity": 80,
                "duration": 0.08409090909090366,
                "tempo": 120.0
            },
            {
                "start_time": 67.23181818181818,
                "end_time": 67.42045454545455,
                "pitch": 45,
                "velocity": 80,
                "duration": 0.1886363636363626,
                "tempo": 120.0
            },
            {
                "start_time": 67.43636363636364,
                "end_time": 67.52272727272727,
                "pitch": 57,
                "velocity": 80,
                "duration": 0.08636363636362887,
                "tempo": 120.0
            },
            {
                "start_time": 67.53863636363636,
                "end_time": 67.625,
                "pitch": 57,
                "velocity": 80,
                "duration": 0.08636363636364308,
                "tempo": 120.0
            },
            {
                "start_time": 67.64318181818182,
                "end_time": 67.82727272727273,
                "pitch": 43,
                "velocity": 80,
                "duration": 0.1840909090909122,
                "tempo": 120.0
            },
            {
                "start_time": 67.84318181818182,
                "end_time": 67.92727272727272,
                "pitch": 55,
                "velocity": 80,
                "duration": 0.08409090909090366,
                "tempo": 120.0
            },
            {
                "start_time": 67.94318181818181,
                "end_time": 68.02727272727273,
                "pitch": 55,
                "velocity": 80,
                "duration": 0.08409090909091788,
                "tempo": 120.0
            },
            {
                "start_time": 68.04545454545455,
                "end_time": 68.22727272727272,
                "pitch": 43,
                "velocity": 80,
                "duration": 0.18181818181817277,
                "tempo": 120.0
            },
            {
                "start_time": 68.24545454545454,
                "end_time": 68.32727272727273,
                "pitch": 55,
                "velocity": 80,
                "duration": 0.08181818181819267,
                "tempo": 120.0
            },
            {
                "start_time": 68.34545454545454,
                "end_time": 68.42727272727272,
                "pitch": 55,
                "velocity": 80,
                "duration": 0.08181818181817846,
                "tempo": 120.0
            },
            {
                "start_time": 68.44545454545454,
                "end_time": 68.625,
                "pitch": 43,
                "velocity": 80,
                "duration": 0.17954545454546178,
                "tempo": 120.0
            },
            {
                "start_time": 68.64090909090909,
                "end_time": 68.72272727272727,
                "pitch": 55,
                "velocity": 80,
                "duration": 0.08181818181817846,
                "tempo": 120.0
            },
            {
                "start_time": 68.73863636363636,
                "end_time": 68.82045454545454,
                "pitch": 55,
                "velocity": 80,
                "duration": 0.08181818181817846,
                "tempo": 120.0
            },
            {
                "start_time": 68.83636363636363,
                "end_time": 69.04318181818182,
                "pitch": 43,
                "velocity": 80,
                "duration": 0.20681818181819267,
                "tempo": 120.0
            },
            {
                "start_time": 69.05909090909091,
                "end_time": 69.14545454545454,
                "pitch": 55,
                "velocity": 80,
                "duration": 0.08636363636362887,
                "tempo": 120.0
            },
            {
                "start_time": 69.16136363636363,
                "end_time": 69.24772727272727,
                "pitch": 55,
                "velocity": 80,
                "duration": 0.08636363636364308,
                "tempo": 120.0
            },
            {
                "start_time": 69.26590909090909,
                "end_time": 69.45227272727273,
                "pitch": 41,
                "velocity": 80,
                "duration": 0.1863636363636374,
                "tempo": 120.0
            },
            {
                "start_time": 69.47045454545454,
                "end_time": 69.55681818181817,
                "pitch": 53,
                "velocity": 80,
                "duration": 0.08636363636362887,
                "tempo": 120.0
            },
            {
                "start_time": 69.57272727272726,
                "end_time": 69.6590909090909,
                "pitch": 53,
                "velocity": 80,
                "duration": 0.08636363636364308,
                "tempo": 120.0
            },
            {
                "start_time": 69.675,
                "end_time": 69.86363636363636,
                "pitch": 41,
                "velocity": 80,
                "duration": 0.1886363636363626,
                "tempo": 120.0
            },
            {
                "start_time": 69.88181818181818,
                "end_time": 69.9659090909091,
                "pitch": 53,
                "velocity": 80,
                "duration": 0.08409090909091788,
                "tempo": 120.0
            },
            {
                "start_time": 69.98409090909091,
                "end_time": 70.07045454545454,
                "pitch": 53,
                "velocity": 80,
                "duration": 0.08636363636362887,
                "tempo": 120.0
            },
            {
                "start_time": 70.08636363636363,
                "end_time": 70.26590909090909,
                "pitch": 41,
                "velocity": 80,
                "duration": 0.17954545454546178,
                "tempo": 120.0
            },
            {
                "start_time": 70.28181818181818,
                "end_time": 70.36363636363636,
                "pitch": 53,
                "velocity": 80,
                "duration": 0.08181818181817846,
                "tempo": 120.0
            },
            {
                "start_time": 70.38181818181818,
                "end_time": 70.46136363636363,
                "pitch": 53,
                "velocity": 80,
                "duration": 0.07954545454545325,
                "tempo": 120.0
            },
            {
                "start_time": 70.47954545454544,
                "end_time": 70.66590909090908,
                "pitch": 41,
                "velocity": 80,
                "duration": 0.1863636363636374,
                "tempo": 120.0
            },
            {
                "start_time": 70.68409090909091,
                "end_time": 70.77045454545454,
                "pitch": 53,
                "velocity": 80,
                "duration": 0.08636363636362887,
                "tempo": 120.0
            },
            {
                "start_time": 70.78636363636363,
                "end_time": 70.87272727272727,
                "pitch": 53,
                "velocity": 80,
                "duration": 0.08636363636364308,
                "tempo": 120.0
            },
            {
                "start_time": 70.88863636363637,
                "end_time": 71.06818181818181,
                "pitch": 43,
                "velocity": 80,
                "duration": 0.17954545454544757,
                "tempo": 120.0
            },
            {
                "start_time": 71.08636363636363,
                "end_time": 71.18409090909091,
                "pitch": 55,
                "velocity": 80,
                "duration": 0.09772727272728332,
                "tempo": 120.0
            },
            {
                "start_time": 71.2,
                "end_time": 71.28181818181818,
                "pitch": 55,
                "velocity": 80,
                "duration": 0.08181818181817846,
                "tempo": 120.0
            },
            {
                "start_time": 71.29772727272727,
                "end_time": 71.49090909090908,
                "pitch": 43,
                "velocity": 80,
                "duration": 0.19318181818181301,
                "tempo": 120.0
            },
            {
                "start_time": 71.5090909090909,
                "end_time": 71.59772727272727,
                "pitch": 55,
                "velocity": 80,
                "duration": 0.08863636363636829,
                "tempo": 120.0
            },
            {
                "start_time": 71.61590909090908,
                "end_time": 71.70227272727273,
                "pitch": 55,
                "velocity": 80,
                "duration": 0.08636363636364308,
                "tempo": 120.0
            },
            {
                "start_time": 71.72045454545454,
                "end_time": 71.9090909090909,
                "pitch": 43,
                "velocity": 80,
                "duration": 0.1886363636363626,
                "tempo": 120.0
            },
            {
                "start_time": 71.92727272727272,
                "end_time": 72.01136363636363,
                "pitch": 55,
                "velocity": 80,
                "duration": 0.08409090909090366,
                "tempo": 120.0
            },
            {
                "start_time": 72.02954545454546,
                "end_time": 72.11363636363636,
                "pitch": 55,
                "velocity": 80,
                "duration": 0.08409090909090366,
                "tempo": 120.0
            },
            {
                "start_time": 72.13181818181818,
                "end_time": 72.31136363636364,
                "pitch": 43,
                "velocity": 80,
                "duration": 0.17954545454546178,
                "tempo": 120.0
            },
            {
                "start_time": 72.32727272727273,
                "end_time": 72.4090909090909,
                "pitch": 55,
                "velocity": 80,
                "duration": 0.08181818181817846,
                "tempo": 120.0
            },
            {
                "start_time": 72.425,
                "end_time": 72.50681818181818,
                "pitch": 55,
                "velocity": 80,
                "duration": 0.08181818181817846,
                "tempo": 120.0
            },
            {
                "start_time": 72.52272727272727,
                "end_time": 72.7090909090909,
                "pitch": 45,
                "velocity": 80,
                "duration": 0.1863636363636374,
                "tempo": 120.0
            },
            {
                "start_time": 72.725,
                "end_time": 72.80909090909091,
                "pitch": 57,
                "velocity": 80,
                "duration": 0.08409090909091788,
                "tempo": 120.0
            },
            {
                "start_time": 72.825,
                "end_time": 72.9090909090909,
                "pitch": 57,
                "velocity": 80,
                "duration": 0.08409090909090366,
                "tempo": 120.0
            },
            {
                "start_time": 72.92727272727272,
                "end_time": 73.11363636363636,
                "pitch": 45,
                "velocity": 80,
                "duration": 0.1863636363636374,
                "tempo": 120.0
            },
            {
                "start_time": 73.13181818181818,
                "end_time": 73.21818181818182,
                "pitch": 57,
                "velocity": 80,
                "duration": 0.08636363636364308,
                "tempo": 120.0
            },
            {
                "start_time": 73.23409090909091,
                "end_time": 73.33636363636363,
                "pitch": 57,
                "velocity": 80,
                "duration": 0.10227272727271952,
                "tempo": 120.0
            },
            {
                "start_time": 73.35454545454544,
                "end_time": 73.5340909090909,
                "pitch": 45,
                "velocity": 80,
                "duration": 0.17954545454546178,
                "tempo": 120.0
            },
            {
                "start_time": 73.55,
                "end_time": 73.63181818181818,
                "pitch": 57,
                "velocity": 80,
                "duration": 0.08181818181817846,
                "tempo": 120.0
            },
            {
                "start_time": 73.64772727272727,
                "end_time": 73.72954545454544,
                "pitch": 57,
                "velocity": 80,
                "duration": 0.08181818181817846,
                "tempo": 120.0
            },
            {
                "start_time": 73.74545454545454,
                "end_time": 73.93863636363636,
                "pitch": 45,
                "velocity": 80,
                "duration": 0.19318181818182723,
                "tempo": 120.0
            },
            {
                "start_time": 73.95681818181818,
                "end_time": 74.04545454545455,
                "pitch": 57,
                "velocity": 80,
                "duration": 0.08863636363636829,
                "tempo": 120.0
            },
            {
                "start_time": 74.06136363636364,
                "end_time": 74.14999999999999,
                "pitch": 57,
                "velocity": 80,
                "duration": 0.08863636363635408,
                "tempo": 120.0
            },
            {
                "start_time": 74.16818181818182,
                "end_time": 74.35227272727272,
                "pitch": 43,
                "velocity": 80,
                "duration": 0.18409090909089798,
                "tempo": 120.0
            },
            {
                "start_time": 74.36818181818181,
                "end_time": 74.45227272727273,
                "pitch": 55,
                "velocity": 80,
                "duration": 0.08409090909091788,
                "tempo": 120.0
            },
            {
                "start_time": 74.46818181818182,
                "end_time": 74.55227272727272,
                "pitch": 55,
                "velocity": 80,
                "duration": 0.08409090909090366,
                "tempo": 120.0
            },
            {
                "start_time": 74.56818181818181,
                "end_time": 74.75227272727273,
                "pitch": 43,
                "velocity": 80,
                "duration": 0.1840909090909122,
                "tempo": 120.0
            },
            {
                "start_time": 74.77045454545454,
                "end_time": 74.85227272727272,
                "pitch": 55,
                "velocity": 80,
                "duration": 0.08181818181817846,
                "tempo": 120.0
            },
            {
                "start_time": 74.87045454545454,
                "end_time": 74.95454545454545,
                "pitch": 55,
                "velocity": 80,
                "duration": 0.08409090909091788,
                "tempo": 120.0
            },
            {
                "start_time": 74.97045454545454,
                "end_time": 75.14999999999999,
                "pitch": 43,
                "velocity": 80,
                "duration": 0.17954545454544757,
                "tempo": 120.0
            },
            {
                "start_time": 75.16590909090908,
                "end_time": 75.24772727272727,
                "pitch": 55,
                "velocity": 80,
                "duration": 0.08181818181819267,
                "tempo": 120.0
            },
            {
                "start_time": 75.26363636363637,
                "end_time": 75.34545454545454,
                "pitch": 55,
                "velocity": 80,
                "duration": 0.08181818181817846,
                "tempo": 120.0
            },
            {
                "start_time": 75.36363636363636,
                "end_time": 75.56818181818181,
                "pitch": 43,
                "velocity": 80,
                "duration": 0.20454545454545325,
                "tempo": 120.0
            },
            {
                "start_time": 75.58636363636363,
                "end_time": 75.67045454545455,
                "pitch": 55,
                "velocity": 80,
                "duration": 0.08409090909091788,
                "tempo": 120.0
            },
            {
                "start_time": 75.68863636363636,
                "end_time": 75.77272727272727,
                "pitch": 55,
                "velocity": 80,
                "duration": 0.08409090909090366,
                "tempo": 120.0
            },
            {
                "start_time": 75.79090909090908,
                "end_time": 75.97954545454544,
                "pitch": 41,
                "velocity": 80,
                "duration": 0.1886363636363626,
                "tempo": 120.0
            },
            {
                "start_time": 75.99545454545454,
                "end_time": 76.08181818181818,
                "pitch": 53,
                "velocity": 80,
                "duration": 0.08636363636364308,
                "tempo": 120.0
            },
            {
                "start_time": 76.1,
                "end_time": 76.18409090909091,
                "pitch": 53,
                "velocity": 80,
                "duration": 0.08409090909091788,
                "tempo": 120.0
            },
            {
                "start_time": 76.20227272727273,
                "end_time": 76.39090909090909,
                "pitch": 41,
                "velocity": 80,
                "duration": 0.1886363636363626,
                "tempo": 120.0
            },
            {
                "start_time": 76.40681818181818,
                "end_time": 76.49318181818181,
                "pitch": 53,
                "velocity": 80,
                "duration": 0.08636363636362887,
                "tempo": 120.0
            },
            {
                "start_time": 76.5090909090909,
                "end_time": 76.59545454545454,
                "pitch": 53,
                "velocity": 80,
                "duration": 0.08636363636364308,
                "tempo": 120.0
            },
            {
                "start_time": 76.61136363636363,
                "end_time": 76.79318181818182,
                "pitch": 41,
                "velocity": 80,
                "duration": 0.18181818181818699,
                "tempo": 120.0
            },
            {
                "start_time": 76.80909090909091,
                "end_time": 76.89090909090909,
                "pitch": 53,
                "velocity": 80,
                "duration": 0.08181818181817846,
                "tempo": 120.0
            },
            {
                "start_time": 76.90681818181818,
                "end_time": 76.98863636363636,
                "pitch": 53,
                "velocity": 80,
                "duration": 0.08181818181817846,
                "tempo": 120.0
            },
            {
                "start_time": 77.00454545454545,
                "end_time": 77.19318181818181,
                "pitch": 41,
                "velocity": 80,
                "duration": 0.1886363636363626,
                "tempo": 120.0
            },
            {
                "start_time": 77.2090909090909,
                "end_time": 77.29545454545455,
                "pitch": 53,
                "velocity": 80,
                "duration": 0.08636363636364308,
                "tempo": 120.0
            },
            {
                "start_time": 77.31363636363636,
                "end_time": 77.39772727272727,
                "pitch": 53,
                "velocity": 80,
                "duration": 0.08409090909090366,
                "tempo": 120.0
            },
            {
                "start_time": 77.41590909090908,
                "end_time": 77.59545454545454,
                "pitch": 43,
                "velocity": 80,
                "duration": 0.17954545454546178,
                "tempo": 120.0
            },
            {
                "start_time": 77.61136363636363,
                "end_time": 77.7090909090909,
                "pitch": 55,
                "velocity": 80,
                "duration": 0.09772727272726911,
                "tempo": 120.0
            },
            {
                "start_time": 77.725,
                "end_time": 77.80681818181817,
                "pitch": 55,
                "velocity": 80,
                "duration": 0.08181818181817846,
                "tempo": 120.0
            },
            {
                "start_time": 77.82272727272726,
                "end_time": 78.01818181818182,
                "pitch": 43,
                "velocity": 80,
                "duration": 0.19545454545455243,
                "tempo": 120.0
            },
            {
                "start_time": 78.0340909090909,
                "end_time": 78.12272727272727,
                "pitch": 55,
                "velocity": 80,
                "duration": 0.08863636363636829,
                "tempo": 120.0
            },
            {
                "start_time": 78.14090909090909,
                "end_time": 78.22954545454544,
                "pitch": 55,
                "velocity": 80,
                "duration": 0.08863636363635408,
                "tempo": 120.0
            },
            {
                "start_time": 78.24545454545454,
                "end_time": 78.42954545454545,
                "pitch": 43,
                "velocity": 80,
                "duration": 0.1840909090909122,
                "tempo": 120.0
            },
            {
                "start_time": 78.44545454545454,
                "end_time": 78.52954545454546,
                "pitch": 55,
                "velocity": 80,
                "duration": 0.08409090909091788,
                "tempo": 120.0
            },
            {
                "start_time": 78.54545454545455,
                "end_time": 78.62954545454545,
                "pitch": 55,
                "velocity": 80,
                "duration": 0.08409090909090366,
                "tempo": 120.0
            },
            {
                "start_time": 78.64545454545454,
                "end_time": 78.83181818181818,
                "pitch": 43,
                "velocity": 80,
                "duration": 0.1863636363636374,
                "tempo": 120.0
            },
            {
                "start_time": 78.84772727272727,
                "end_time": 78.93181818181817,
                "pitch": 55,
                "velocity": 80,
                "duration": 0.08409090909090366,
                "tempo": 120.0
            },
            {
                "start_time": 78.94772727272726,
                "end_time": 79.03181818181818,
                "pitch": 55,
                "velocity": 80,
                "duration": 0.08409090909091788,
                "tempo": 120.0
            },
            {
                "start_time": 79.04772727272727,
                "end_time": 79.23409090909091,
                "pitch": 45,
                "velocity": 80,
                "duration": 0.1863636363636374,
                "tempo": 120.0
            },
            {
                "start_time": 79.25,
                "end_time": 79.3340909090909,
                "pitch": 57,
                "velocity": 80,
                "duration": 0.08409090909090366,
                "tempo": 120.0
            },
            {
                "start_time": 79.35,
                "end_time": 79.43409090909091,
                "pitch": 57,
                "velocity": 80,
                "duration": 0.08409090909091788,
                "tempo": 120.0
            },
            {
                "start_time": 79.45227272727273,
                "end_time": 79.63863636363637,
                "pitch": 45,
                "velocity": 80,
                "duration": 0.1863636363636374,
                "tempo": 120.0
            },
            {
                "start_time": 79.65681818181818,
                "end_time": 79.74318181818181,
                "pitch": 57,
                "velocity": 80,
                "duration": 0.08636363636362887,
                "tempo": 120.0
            },
            {
                "start_time": 79.7590909090909,
                "end_time": 79.86136363636363,
                "pitch": 57,
                "velocity": 80,
                "duration": 0.10227272727273373,
                "tempo": 120.0
            },
            {
                "start_time": 79.87954545454545,
                "end_time": 80.06363636363636,
                "pitch": 45,
                "velocity": 80,
                "duration": 0.1840909090909122,
                "tempo": 120.0
            },
            {
                "start_time": 80.07954545454545,
                "end_time": 80.16363636363636,
                "pitch": 57,
                "velocity": 80,
                "duration": 0.08409090909090366,
                "tempo": 120.0
            },
            {
                "start_time": 80.17954545454545,
                "end_time": 80.26363636363637,
                "pitch": 57,
                "velocity": 80,
                "duration": 0.08409090909091788,
                "tempo": 120.0
            },
            {
                "start_time": 80.27954545454546,
                "end_time": 80.46818181818182,
                "pitch": 45,
                "velocity": 80,
                "duration": 0.1886363636363626,
                "tempo": 120.0
            },
            {
                "start_time": 80.48409090909091,
                "end_time": 80.57045454545454,
                "pitch": 57,
                "velocity": 80,
                "duration": 0.08636363636362887,
                "tempo": 120.0
            },
            {
                "start_time": 80.58636363636363,
                "end_time": 80.67272727272727,
                "pitch": 57,
                "velocity": 80,
                "duration": 0.08636363636364308,
                "tempo": 120.0
            },
            {
                "start_time": 80.68863636363636,
                "end_time": 80.87045454545454,
                "pitch": 45,
                "velocity": 80,
                "duration": 0.18181818181817277,
                "tempo": 120.0
            },
            {
                "start_time": 80.88636363636363,
                "end_time": 80.96818181818182,
                "pitch": 57,
                "velocity": 80,
                "duration": 0.08181818181819267,
                "tempo": 120.0
            },
            {
                "start_time": 80.98409090909091,
                "end_time": 81.06590909090909,
                "pitch": 57,
                "velocity": 80,
                "duration": 0.08181818181817846,
                "tempo": 120.0
            },
            {
                "start_time": 81.08181818181818,
                "end_time": 81.27045454545454,
                "pitch": 45,
                "velocity": 80,
                "duration": 0.1886363636363626,
                "tempo": 120.0
            },
            {
                "start_time": 81.28636363636363,
                "end_time": 81.37272727272727,
                "pitch": 57,
                "velocity": 80,
                "duration": 0.08636363636364308,
                "tempo": 120.0
            },
            {
                "start_time": 81.39090909090909,
                "end_time": 81.475,
                "pitch": 57,
                "velocity": 80,
                "duration": 0.08409090909090366,
                "tempo": 120.0
            },
            {
                "start_time": 81.49318181818181,
                "end_time": 81.68181818181817,
                "pitch": 45,
                "velocity": 80,
                "duration": 0.1886363636363626,
                "tempo": 120.0
            },
            {
                "start_time": 81.69772727272726,
                "end_time": 81.7840909090909,
                "pitch": 57,
                "velocity": 80,
                "duration": 0.08636363636364308,
                "tempo": 120.0
            },
            {
                "start_time": 81.8,
                "end_time": 81.88636363636363,
                "pitch": 57,
                "velocity": 80,
                "duration": 0.08636363636362887,
                "tempo": 120.0
            },
            {
                "start_time": 81.90454545454546,
                "end_time": 82.1,
                "pitch": 45,
                "velocity": 80,
                "duration": 0.19545454545453822,
                "tempo": 120.0
            },
            {
                "start_time": 82.11590909090908,
                "end_time": 82.19772727272726,
                "pitch": 57,
                "velocity": 80,
                "duration": 0.08181818181817846,
                "tempo": 120.0
            },
            {
                "start_time": 82.21363636363635,
                "end_time": 82.29545454545455,
                "pitch": 57,
                "velocity": 80,
                "duration": 0.08181818181819267,
                "tempo": 120.0
            },
            {
                "start_time": 82.31363636363636,
                "end_time": 82.5,
                "pitch": 43,
                "velocity": 80,
                "duration": 0.1863636363636374,
                "tempo": 120.0
            },
            {
                "start_time": 82.51818181818182,
                "end_time": 82.60454545454544,
                "pitch": 55,
                "velocity": 80,
                "duration": 0.08636363636362887,
                "tempo": 120.0
            },
            {
                "start_time": 82.62045454545454,
                "end_time": 82.70681818181818,
                "pitch": 55,
                "velocity": 80,
                "duration": 0.08636363636364308,
                "tempo": 120.0
            },
            {
                "start_time": 82.72272727272727,
                "end_time": 82.91136363636363,
                "pitch": 43,
                "velocity": 80,
                "duration": 0.1886363636363626,
                "tempo": 120.0
            },
            {
                "start_time": 82.92954545454545,
                "end_time": 83.01363636363637,
                "pitch": 55,
                "velocity": 80,
                "duration": 0.08409090909091788,
                "tempo": 120.0
            },
            {
                "start_time": 83.03181818181818,
                "end_time": 83.11818181818181,
                "pitch": 55,
                "velocity": 80,
                "duration": 0.08636363636362887,
                "tempo": 120.0
            },
            {
                "start_time": 83.1340909090909,
                "end_time": 83.32272727272726,
                "pitch": 43,
                "velocity": 80,
                "duration": 0.1886363636363626,
                "tempo": 120.0
            },
            {
                "start_time": 83.3409090909091,
                "end_time": 83.425,
                "pitch": 55,
                "velocity": 80,
                "duration": 0.08409090909090366,
                "tempo": 120.0
            },
            {
                "start_time": 83.44318181818181,
                "end_time": 83.52727272727272,
                "pitch": 55,
                "velocity": 80,
                "duration": 0.08409090909090366,
                "tempo": 120.0
            },
            {
                "start_time": 83.54545454545455,
                "end_time": 83.725,
                "pitch": 43,
                "velocity": 80,
                "duration": 0.17954545454544757,
                "tempo": 120.0
            },
            {
                "start_time": 83.74090909090908,
                "end_time": 83.82272727272726,
                "pitch": 55,
                "velocity": 80,
                "duration": 0.08181818181817846,
                "tempo": 120.0
            },
            {
                "start_time": 83.83863636363635,
                "end_time": 83.92045454545455,
                "pitch": 55,
                "velocity": 80,
                "duration": 0.08181818181819267,
                "tempo": 120.0
            },
            {
                "start_time": 83.93863636363636,
                "end_time": 84.1340909090909,
                "pitch": 43,
                "velocity": 80,
                "duration": 0.19545454545453822,
                "tempo": 120.0
            },
            {
                "start_time": 84.14999999999999,
                "end_time": 84.23181818181818,
                "pitch": 55,
                "velocity": 80,
                "duration": 0.08181818181819267,
                "tempo": 120.0
            },
            {
                "start_time": 84.24772727272727,
                "end_time": 84.32954545454545,
                "pitch": 55,
                "velocity": 80,
                "duration": 0.08181818181817846,
                "tempo": 120.0
            },
            {
                "start_time": 84.34545454545454,
                "end_time": 84.54090909090908,
                "pitch": 43,
                "velocity": 80,
                "duration": 0.19545454545453822,
                "tempo": 120.0
            },
            {
                "start_time": 84.55681818181817,
                "end_time": 84.64545454545454,
                "pitch": 55,
                "velocity": 80,
                "duration": 0.08863636363636829,
                "tempo": 120.0
            },
            {
                "start_time": 84.66363636363636,
                "end_time": 84.75227272727273,
                "pitch": 55,
                "velocity": 80,
                "duration": 0.08863636363636829,
                "tempo": 120.0
            },
            {
                "start_time": 84.76818181818182,
                "end_time": 84.95681818181818,
                "pitch": 43,
                "velocity": 80,
                "duration": 0.1886363636363626,
                "tempo": 120.0
            },
            {
                "start_time": 84.975,
                "end_time": 85.06136363636364,
                "pitch": 55,
                "velocity": 80,
                "duration": 0.08636363636364308,
                "tempo": 120.0
            },
            {
                "start_time": 85.07727272727273,
                "end_time": 85.16363636363636,
                "pitch": 55,
                "velocity": 80,
                "duration": 0.08636363636362887,
                "tempo": 120.0
            },
            {
                "start_time": 85.17954545454545,
                "end_time": 85.36363636363636,
                "pitch": 43,
                "velocity": 80,
                "duration": 0.1840909090909122,
                "tempo": 120.0
            },
            {
                "start_time": 85.37954545454545,
                "end_time": 85.46363636363635,
                "pitch": 55,
                "velocity": 80,
                "duration": 0.08409090909090366,
                "tempo": 120.0
            },
            {
                "start_time": 85.47954545454544,
                "end_time": 85.56363636363636,
                "pitch": 55,
                "velocity": 80,
                "duration": 0.08409090909091788,
                "tempo": 120.0
            },
            {
                "start_time": 85.57954545454545,
                "end_time": 85.7590909090909,
                "pitch": 36,
                "velocity": 80,
                "duration": 0.17954545454544757,
                "tempo": 120.0
            },
            {
                "start_time": 85.77727272727272,
                "end_time": 85.85909090909091,
                "pitch": 48,
                "velocity": 80,
                "duration": 0.08181818181819267,
                "tempo": 120.0
            },
            {
                "start_time": 85.875,
                "end_time": 85.96136363636363,
                "pitch": 48,
                "velocity": 80,
                "duration": 0.08636363636362887,
                "tempo": 120.0
            }
        ],
        "Violin": [
            {
                "start_time": 1.2954545454545454,
                "end_time": 1.3772727272727272,
                "pitch": 64,
                "velocity": 80,
                "duration": 0.08181818181818179,
                "tempo": 120.0
            },
            {
                "start_time": 1.6954545454545453,
                "end_time": 2.3045454545454542,
                "pitch": 65,
                "velocity": 80,
                "duration": 0.6090909090909089,
                "tempo": 120.0
            },
            {
                "start_time": 2.5272727272727273,
                "end_time": 3.118181818181818,
                "pitch": 67,
                "velocity": 80,
                "duration": 0.5909090909090908,
                "tempo": 120.0
            },
            {
                "start_time": 3.1363636363636362,
                "end_time": 3.918181818181818,
                "pitch": 65,
                "velocity": 80,
                "duration": 0.7818181818181817,
                "tempo": 120.0
            },
            {
                "start_time": 4.5613636363636365,
                "end_time": 4.6499999999999995,
                "pitch": 64,
                "velocity": 80,
                "duration": 0.08863636363636296,
                "tempo": 120.0
            },
            {
                "start_time": 4.9818181818181815,
                "end_time": 5.568181818181818,
                "pitch": 65,
                "velocity": 80,
                "duration": 0.5863636363636369,
                "tempo": 120.0
            },
            {
                "start_time": 5.779545454545454,
                "end_time": 6.363636363636363,
                "pitch": 62,
                "velocity": 80,
                "duration": 0.584090909090909,
                "tempo": 120.0
            },
            {
                "start_time": 6.381818181818182,
                "end_time": 7.197727272727272,
                "pitch": 64,
                "velocity": 80,
                "duration": 0.8159090909090905,
                "tempo": 120.0
            },
            {
                "start_time": 7.8181818181818175,
                "end_time": 7.9022727272727264,
                "pitch": 64,
                "velocity": 80,
                "duration": 0.084090909090909,
                "tempo": 120.0
            },
            {
                "start_time": 8.218181818181817,
                "end_time": 8.825,
                "pitch": 65,
                "velocity": 80,
                "duration": 0.6068181818181824,
                "tempo": 120.0
            },
            {
                "start_time": 9.047727272727272,
                "end_time": 9.64090909090909,
                "pitch": 67,
                "velocity": 80,
                "duration": 0.5931818181818187,
                "tempo": 120.0
            },
            {
                "start_time": 9.659090909090908,
                "end_time": 10.443181818181818,
                "pitch": 65,
                "velocity": 80,
                "duration": 0.7840909090909101,
                "tempo": 120.0
            },
            {
                "start_time": 11.084090909090909,
                "end_time": 11.172727272727272,
                "pitch": 64,
                "velocity": 80,
                "duration": 0.08863636363636296,
                "tempo": 120.0
            },
            {
                "start_time": 11.504545454545454,
                "end_time": 12.09090909090909,
                "pitch": 65,
                "velocity": 80,
                "duration": 0.586363636363636,
                "tempo": 120.0
            },
            {
                "start_time": 12.302272727272726,
                "end_time": 12.888636363636364,
                "pitch": 55,
                "velocity": 80,
                "duration": 0.5863636363636378,
                "tempo": 120.0
            },
            {
                "start_time": 12.904545454545454,
                "end_time": 13.71590909090909,
                "pitch": 64,
                "velocity": 80,
                "duration": 0.8113636363636356,
                "tempo": 120.0
            },
            {
                "start_time": 13.931818181818182,
                "end_time": 14.120454545454544,
                "pitch": 62,
                "velocity": 80,
                "duration": 0.1886363636363626,
                "tempo": 120.0
            },
            {
                "start_time": 14.136363636363635,
                "end_time": 14.325,
                "pitch": 64,
                "velocity": 80,
                "duration": 0.18863636363636438,
                "tempo": 120.0
            },
            {
                "start_time": 14.547727272727272,
                "end_time": 14.729545454545454,
                "pitch": 64,
                "velocity": 80,
                "duration": 0.18181818181818166,
                "tempo": 120.0
            },
            {
                "start_time": 14.936363636363636,
                "end_time": 15.136363636363635,
                "pitch": 62,
                "velocity": 80,
                "duration": 0.1999999999999993,
                "tempo": 120.0
            },
            {
                "start_time": 15.154545454545454,
                "end_time": 15.347727272727273,
                "pitch": 60,
                "velocity": 80,
                "duration": 0.19318181818181834,
                "tempo": 120.0
            },
            {
                "start_time": 15.36590909090909,
                "end_time": 16.16590909090909,
                "pitch": 67,
                "velocity": 80,
                "duration": 0.7999999999999989,
                "tempo": 120.0
            },
            {
                "start_time": 16.384090909090908,
                "end_time": 16.775,
                "pitch": 69,
                "velocity": 80,
                "duration": 0.39090909090909065,
                "tempo": 120.0
            },
            {
                "start_time": 16.79090909090909,
                "end_time": 17.168181818181818,
                "pitch": 67,
                "velocity": 80,
                "duration": 0.37727272727272876,
                "tempo": 120.0
            },
            {
                "start_time": 17.18409090909091,
                "end_time": 17.58863636363636,
                "pitch": 72,
                "velocity": 80,
                "duration": 0.40454545454545254,
                "tempo": 120.0
            },
            {
                "start_time": 17.818181818181817,
                "end_time": 18.206818181818182,
                "pitch": 69,
                "velocity": 80,
                "duration": 0.38863636363636545,
                "tempo": 120.0
            },
            {
                "start_time": 18.224999999999998,
                "end_time": 18.60909090909091,
                "pitch": 67,
                "velocity": 80,
                "duration": 0.3840909090909115,
                "tempo": 120.0
            },
            {
                "start_time": 18.825,
                "end_time": 19.204545454545453,
                "pitch": 64,
                "velocity": 80,
                "duration": 0.37954545454545396,
                "tempo": 120.0
            },
            {
                "start_time": 19.220454545454544,
                "end_time": 19.427272727272726,
                "pitch": 62,
                "velocity": 80,
                "duration": 0.206818181818182,
                "tempo": 120.0
            },
            {
                "start_time": 19.443181818181817,
                "end_time": 19.629545454545454,
                "pitch": 60,
                "velocity": 80,
                "duration": 0.1863636363636374,
                "tempo": 120.0
            },
            {
                "start_time": 19.845454545454544,
                "end_time": 20.03181818181818,
                "pitch": 64,
                "velocity": 80,
                "duration": 0.1863636363636374,
                "tempo": 120.0
            },
            {
                "start_time": 20.254545454545454,
                "end_time": 20.44090909090909,
                "pitch": 55,
                "velocity": 80,
                "duration": 0.1863636363636374,
                "tempo": 120.0
            },
            {
                "start_time": 20.456818181818182,
                "end_time": 21.252272727272725,
                "pitch": 57,
                "velocity": 80,
                "duration": 0.7954545454545432,
                "tempo": 120.0
            },
            {
                "start_time": 21.470454545454544,
                "end_time": 21.672727272727272,
                "pitch": 57,
                "velocity": 80,
                "duration": 0.20227272727272805,
                "tempo": 120.0
            },
            {
                "start_time": 21.69090909090909,
                "end_time": 21.879545454545454,
                "pitch": 60,
                "velocity": 80,
                "duration": 0.1886363636363626,
                "tempo": 120.0
            },
            {
                "start_time": 21.895454545454545,
                "end_time": 22.081818181818182,
                "pitch": 65,
                "velocity": 80,
                "duration": 0.1863636363636374,
                "tempo": 120.0
            },
            {
                "start_time": 22.297727272727272,
                "end_time": 22.48181818181818,
                "pitch": 64,
                "velocity": 80,
                "duration": 0.18409090909090864,
                "tempo": 120.0
            },
            {
                "start_time": 22.69772727272727,
                "end_time": 22.879545454545454,
                "pitch": 67,
                "velocity": 80,
                "duration": 0.18181818181818343,
                "tempo": 120.0
            },
            {
                "start_time": 23.09318181818182,
                "end_time": 23.275,
                "pitch": 64,
                "velocity": 80,
                "duration": 0.18181818181817988,
                "tempo": 120.0
            },
            {
                "start_time": 23.293181818181818,
                "end_time": 23.48181818181818,
                "pitch": 62,
                "velocity": 80,
                "duration": 0.1886363636363626,
                "tempo": 120.0
            },
            {
                "start_time": 23.49772727272727,
                "end_time": 23.686363636363634,
                "pitch": 60,
                "velocity": 80,
                "duration": 0.1886363636363626,
                "tempo": 120.0
            },
            {
                "start_time": 23.71818181818182,
                "end_time": 24.10909090909091,
                "pitch": 62,
                "velocity": 80,
                "duration": 0.39090909090909065,
                "tempo": 120.0
            },
            {
                "start_time": 24.33863636363636,
                "end_time": 24.720454545454544,
                "pitch": 57,
                "velocity": 80,
                "duration": 0.3818181818181827,
                "tempo": 120.0
            },
            {
                "start_time": 24.938636363636363,
                "end_time": 25.125,
                "pitch": 60,
                "velocity": 80,
                "duration": 0.1863636363636374,
                "tempo": 120.0
            },
            {
                "start_time": 25.345454545454544,
                "end_time": 25.729545454545452,
                "pitch": 59,
                "velocity": 80,
                "duration": 0.38409090909090793,
                "tempo": 120.0
            },
            {
                "start_time": 25.745454545454542,
                "end_time": 25.94772727272727,
                "pitch": 60,
                "velocity": 80,
                "duration": 0.20227272727272805,
                "tempo": 120.0
            },
            {
                "start_time": 25.96363636363636,
                "end_time": 26.14772727272727,
                "pitch": 62,
                "velocity": 80,
                "duration": 0.18409090909090864,
                "tempo": 120.0
            },
            {
                "start_time": 26.36590909090909,
                "end_time": 26.75681818181818,
                "pitch": 55,
                "velocity": 80,
                "duration": 0.39090909090909065,
                "tempo": 120.0
            },
            {
                "start_time": 26.977272727272727,
                "end_time": 27.159090909090907,
                "pitch": 62,
                "velocity": 80,
                "duration": 0.18181818181817988,
                "tempo": 120.0
            },
            {
                "start_time": 27.177272727272726,
                "end_time": 27.361363636363635,
                "pitch": 64,
                "velocity": 80,
                "duration": 0.18409090909090864,
                "tempo": 120.0
            },
            {
                "start_time": 27.584090909090907,
                "end_time": 27.770454545454545,
                "pitch": 64,
                "velocity": 80,
                "duration": 0.1863636363636374,
                "tempo": 120.0
            },
            {
                "start_time": 27.988636363636363,
                "end_time": 28.193181818181817,
                "pitch": 62,
                "velocity": 80,
                "duration": 0.20454545454545325,
                "tempo": 120.0
            },
            {
                "start_time": 28.209090909090907,
                "end_time": 28.39772727272727,
                "pitch": 60,
                "velocity": 80,
                "duration": 0.1886363636363626,
                "tempo": 120.0
            },
            {
                "start_time": 28.413636363636364,
                "end_time": 29.202272727272724,
                "pitch": 67,
                "velocity": 80,
                "duration": 0.7886363636363605,
                "tempo": 120.0
            },
            {
                "start_time": 29.422727272727272,
                "end_time": 29.813636363636363,
                "pitch": 69,
                "velocity": 80,
                "duration": 0.39090909090909065,
                "tempo": 120.0
            },
            {
                "start_time": 29.829545454545453,
                "end_time": 30.222727272727273,
                "pitch": 67,
                "velocity": 80,
                "duration": 0.3931818181818194,
                "tempo": 120.0
            },
            {
                "start_time": 30.24090909090909,
                "end_time": 30.629545454545454,
                "pitch": 72,
                "velocity": 80,
                "duration": 0.38863636363636545,
                "tempo": 120.0
            },
            {
                "start_time": 30.85909090909091,
                "end_time": 31.25681818181818,
                "pitch": 69,
                "velocity": 80,
                "duration": 0.3977272727272698,
                "tempo": 120.0
            },
            {
                "start_time": 31.27272727272727,
                "end_time": 31.654545454545453,
                "pitch": 67,
                "velocity": 80,
                "duration": 0.3818181818181827,
                "tempo": 120.0
            },
            {
                "start_time": 31.868181818181817,
                "end_time": 32.25454545454545,
                "pitch": 64,
                "velocity": 80,
                "duration": 0.38636363636363313,
                "tempo": 120.0
            },
            {
                "start_time": 32.27045454545454,
                "end_time": 32.470454545454544,
                "pitch": 62,
                "velocity": 80,
                "duration": 0.20000000000000284,
                "tempo": 120.0
            },
            {
                "start_time": 32.48863636363636,
                "end_time": 32.67272727272727,
                "pitch": 60,
                "velocity": 80,
                "duration": 0.1840909090909122,
                "tempo": 120.0
            },
            {
                "start_time": 32.89545454545454,
                "end_time": 33.08181818181818,
                "pitch": 64,
                "velocity": 80,
                "duration": 0.1863636363636374,
                "tempo": 120.0
            },
            {
                "start_time": 33.3,
                "end_time": 33.48409090909091,
                "pitch": 55,
                "velocity": 80,
                "duration": 0.1840909090909122,
                "tempo": 120.0
            },
            {
                "start_time": 33.502272727272725,
                "end_time": 33.88636363636363,
                "pitch": 57,
                "velocity": 80,
                "duration": 0.38409090909090793,
                "tempo": 120.0
            },
            {
                "start_time": 34.10909090909091,
                "end_time": 34.29772727272727,
                "pitch": 60,
                "velocity": 80,
                "duration": 0.1886363636363626,
                "tempo": 120.0
            },
            {
                "start_time": 34.538636363636364,
                "end_time": 34.72272727272727,
                "pitch": 65,
                "velocity": 80,
                "duration": 0.18409090909090509,
                "tempo": 120.0
            },
            {
                "start_time": 34.74090909090909,
                "end_time": 34.92272727272727,
                "pitch": 67,
                "velocity": 80,
                "duration": 0.18181818181817988,
                "tempo": 120.0
            },
            {
                "start_time": 34.94090909090909,
                "end_time": 35.12272727272727,
                "pitch": 65,
                "velocity": 80,
                "duration": 0.18181818181817988,
                "tempo": 120.0
            },
            {
                "start_time": 35.14090909090909,
                "end_time": 35.52272727272727,
                "pitch": 56,
                "velocity": 80,
                "duration": 0.3818181818181827,
                "tempo": 120.0
            },
            {
                "start_time": 35.74090909090909,
                "end_time": 35.925,
                "pitch": 60,
                "velocity": 80,
                "duration": 0.18409090909090509,
                "tempo": 120.0
            },
            {
                "start_time": 36.14772727272727,
                "end_time": 36.33181818181818,
                "pitch": 65,
                "velocity": 80,
                "duration": 0.18409090909090509,
                "tempo": 120.0
            },
            {
                "start_time": 36.35,
                "end_time": 36.529545454545456,
                "pitch": 67,
                "velocity": 80,
                "duration": 0.17954545454545467,
                "tempo": 120.0
            },
            {
                "start_time": 36.54545454545455,
                "end_time": 36.74772727272727,
                "pitch": 65,
                "velocity": 80,
                "duration": 0.20227272727272094,
                "tempo": 120.0
            },
            {
                "start_time": 36.76590909090909,
                "end_time": 37.77272727272727,
                "pitch": 64,
                "velocity": 80,
                "duration": 1.0068181818181827,
                "tempo": 120.0
            },
            {
                "start_time": 37.79090909090909,
                "end_time": 37.975,
                "pitch": 62,
                "velocity": 80,
                "duration": 0.1840909090909122,
                "tempo": 120.0
            },
            {
                "start_time": 37.99090909090909,
                "end_time": 38.17045454545455,
                "pitch": 55,
                "velocity": 80,
                "duration": 0.17954545454545467,
                "tempo": 120.0
            },
            {
                "start_time": 38.18636363636364,
                "end_time": 39.611363636363635,
                "pitch": 67,
                "velocity": 80,
                "duration": 1.4249999999999972,
                "tempo": 120.0
            },
            {
                "start_time": 40.027272727272724,
                "end_time": 41.025,
                "pitch": 69,
                "velocity": 80,
                "duration": 0.9977272727272748,
                "tempo": 120.0
            },
            {
                "start_time": 41.24772727272727,
                "end_time": 41.44090909090909,
                "pitch": 69,
                "velocity": 80,
                "duration": 0.19318181818182012,
                "tempo": 120.0
            },
            {
                "start_time": 41.45681818181818,
                "end_time": 42.43636363636364,
                "pitch": 72,
                "velocity": 80,
                "duration": 0.9795454545454589,
                "tempo": 120.0
            },
            {
                "start_time": 42.65,
                "end_time": 42.836363636363636,
                "pitch": 72,
                "velocity": 80,
                "duration": 0.1863636363636374,
                "tempo": 120.0
            },
            {
                "start_time": 42.85227272727273,
                "end_time": 43.04772727272727,
                "pitch": 71,
                "velocity": 80,
                "duration": 0.19545454545454533,
                "tempo": 120.0
            },
            {
                "start_time": 43.06363636363636,
                "end_time": 44.893181818181816,
                "pitch": 72,
                "velocity": 80,
                "duration": 1.8295454545454533,
                "tempo": 120.0
            },
            {
                "start_time": 45.10681818181818,
                "end_time": 45.30681818181818,
                "pitch": 71,
                "velocity": 80,
                "duration": 0.20000000000000284,
                "tempo": 120.0
            },
            {
                "start_time": 45.52954545454545,
                "end_time": 45.71818181818182,
                "pitch": 71,
                "velocity": 80,
                "duration": 0.1886363636363697,
                "tempo": 120.0
            },
            {
                "start_time": 45.94090909090909,
                "end_time": 46.12954545454545,
                "pitch": 69,
                "velocity": 80,
                "duration": 0.1886363636363626,
                "tempo": 120.0
            },
            {
                "start_time": 46.14545454545454,
                "end_time": 46.538636363636364,
                "pitch": 67,
                "velocity": 80,
                "duration": 0.39318181818182296,
                "tempo": 120.0
            },
            {
                "start_time": 46.554545454545455,
                "end_time": 47.54545454545454,
                "pitch": 69,
                "velocity": 80,
                "duration": 0.990909090909085,
                "tempo": 120.0
            },
            {
                "start_time": 47.768181818181816,
                "end_time": 47.961363636363636,
                "pitch": 69,
                "velocity": 80,
                "duration": 0.19318181818182012,
                "tempo": 120.0
            },
            {
                "start_time": 47.97954545454545,
                "end_time": 48.95227272727273,
                "pitch": 72,
                "velocity": 80,
                "duration": 0.9727272727272762,
                "tempo": 120.0
            },
            {
                "start_time": 49.168181818181814,
                "end_time": 49.35681818181818,
                "pitch": 72,
                "velocity": 80,
                "duration": 0.1886363636363626,
                "tempo": 120.0
            },
            {
                "start_time": 49.37272727272727,
                "end_time": 49.56818181818181,
                "pitch": 71,
                "velocity": 80,
                "duration": 0.19545454545454533,
                "tempo": 120.0
            },
            {
                "start_time": 49.60227272727273,
                "end_time": 51.41590909090909,
                "pitch": 72,
                "velocity": 80,
                "duration": 1.8136363636363626,
                "tempo": 120.0
            },
            {
                "start_time": 51.62954545454545,
                "end_time": 51.82954545454545,
                "pitch": 71,
                "velocity": 80,
                "duration": 0.20000000000000284,
                "tempo": 120.0
            },
            {
                "start_time": 52.05227272727272,
                "end_time": 52.240909090909085,
                "pitch": 71,
                "velocity": 80,
                "duration": 0.1886363636363626,
                "tempo": 120.0
            },
            {
                "start_time": 52.46363636363636,
                "end_time": 52.652272727272724,
                "pitch": 69,
                "velocity": 80,
                "duration": 0.1886363636363626,
                "tempo": 120.0
            },
            {
                "start_time": 52.668181818181814,
                "end_time": 53.06136363636363,
                "pitch": 67,
                "velocity": 80,
                "duration": 0.39318181818181586,
                "tempo": 120.0
            },
            {
                "start_time": 53.07727272727273,
                "end_time": 54.27954545454545,
                "pitch": 69,
                "velocity": 80,
                "duration": 1.202272727272721,
                "tempo": 120.0
            },
            {
                "start_time": 54.29772727272727,
                "end_time": 54.48409090909091,
                "pitch": 71,
                "velocity": 80,
                "duration": 0.1863636363636374,
                "tempo": 120.0
            },
            {
                "start_time": 54.502272727272725,
                "end_time": 55.08863636363636,
                "pitch": 72,
                "velocity": 80,
                "duration": 0.586363636363636,
                "tempo": 120.0
            },
            {
                "start_time": 55.10454545454545,
                "end_time": 55.490909090909085,
                "pitch": 62,
                "velocity": 80,
                "duration": 0.38636363636363313,
                "tempo": 120.0
            },
            {
                "start_time": 55.506818181818176,
                "end_time": 55.89772727272727,
                "pitch": 64,
                "velocity": 80,
                "duration": 0.39090909090909776,
                "tempo": 120.0
            },
            {
                "start_time": 55.913636363636364,
                "end_time": 56.309090909090905,
                "pitch": 67,
                "velocity": 80,
                "duration": 0.39545454545454106,
                "tempo": 120.0
            },
            {
                "start_time": 56.32727272727273,
                "end_time": 56.92727272727272,
                "pitch": 64,
                "velocity": 80,
                "duration": 0.5999999999999943,
                "tempo": 120.0
            },
            {
                "start_time": 56.94318181818181,
                "end_time": 57.52272727272727,
                "pitch": 57,
                "velocity": 80,
                "duration": 0.5795454545454604,
                "tempo": 120.0
            },
            {
                "start_time": 57.54090909090909,
                "end_time": 57.929545454545455,
                "pitch": 64,
                "velocity": 80,
                "duration": 0.38863636363636545,
                "tempo": 120.0
            },
            {
                "start_time": 57.94772727272727,
                "end_time": 58.56136363636363,
                "pitch": 64,
                "velocity": 80,
                "duration": 0.6136363636363598,
                "tempo": 120.0
            },
            {
                "start_time": 58.57954545454545,
                "end_time": 59.15454545454545,
                "pitch": 55,
                "velocity": 80,
                "duration": 0.5749999999999957,
                "tempo": 120.0
            },
            {
                "start_time": 59.17272727272727,
                "end_time": 59.56363636363636,
                "pitch": 64,
                "velocity": 80,
                "duration": 0.39090909090909065,
                "tempo": 120.0
            },
            {
                "start_time": 59.57954545454545,
                "end_time": 60.793181818181814,
                "pitch": 59,
                "velocity": 80,
                "duration": 1.2136363636363612,
                "tempo": 120.0
            },
            {
                "start_time": 60.81136363636363,
                "end_time": 60.99772727272727,
                "pitch": 55,
                "velocity": 80,
                "duration": 0.1863636363636374,
                "tempo": 120.0
            },
            {
                "start_time": 61.01590909090909,
                "end_time": 61.60454545454545,
                "pitch": 57,
                "velocity": 80,
                "duration": 0.5886363636363612,
                "tempo": 120.0
            },
            {
                "start_time": 61.62045454545454,
                "end_time": 62.006818181818176,
                "pitch": 55,
                "velocity": 80,
                "duration": 0.38636363636363313,
                "tempo": 120.0
            },
            {
                "start_time": 62.022727272727266,
                "end_time": 62.413636363636364,
                "pitch": 52,
                "velocity": 80,
                "duration": 0.39090909090909776,
                "tempo": 120.0
            },
            {
                "start_time": 62.429545454545455,
                "end_time": 62.82727272727272,
                "pitch": 55,
                "velocity": 80,
                "duration": 0.39772727272726627,
                "tempo": 120.0
            },
            {
                "start_time": 62.84318181818181,
                "end_time": 63.647727272727266,
                "pitch": 52,
                "velocity": 80,
                "duration": 0.8045454545454547,
                "tempo": 120.0
            },
            {
                "start_time": 63.66590909090909,
                "end_time": 64.05454545454545,
                "pitch": 57,
                "velocity": 80,
                "duration": 0.38863636363635834,
                "tempo": 120.0
            },
            {
                "start_time": 64.07272727272726,
                "end_time": 64.25227272727273,
                "pitch": 59,
                "velocity": 80,
                "duration": 0.17954545454546178,
                "tempo": 120.0
            },
            {
                "start_time": 64.26818181818182,
                "end_time": 64.86363636363636,
                "pitch": 55,
                "velocity": 80,
                "duration": 0.5954545454545439,
                "tempo": 120.0
            },
            {
                "start_time": 64.88181818181818,
                "end_time": 65.48863636363636,
                "pitch": 50,
                "velocity": 80,
                "duration": 0.6068181818181841,
                "tempo": 120.0
            },
            {
                "start_time": 65.50681818181818,
                "end_time": 66.08181818181818,
                "pitch": 52,
                "velocity": 80,
                "duration": 0.5750000000000028,
                "tempo": 120.0
            },
            {
                "start_time": 66.09772727272727,
                "end_time": 66.48636363636363,
                "pitch": 59,
                "velocity": 80,
                "duration": 0.38863636363636545,
                "tempo": 120.0
            },
            {
                "start_time": 66.50454545454545,
                "end_time": 66.69090909090909,
                "pitch": 60,
                "velocity": 80,
                "duration": 0.1863636363636374,
                "tempo": 120.0
            },
            {
                "start_time": 66.7090909090909,
                "end_time": 67.11363636363636,
                "pitch": 59,
                "velocity": 80,
                "duration": 0.4045454545454561,
                "tempo": 120.0
            },
            {
                "start_time": 67.12954545454545,
                "end_time": 67.52272727272727,
                "pitch": 57,
                "velocity": 80,
                "duration": 0.39318181818181586,
                "tempo": 120.0
            },
            {
                "start_time": 67.53863636363636,
                "end_time": 67.725,
                "pitch": 52,
                "velocity": 80,
                "duration": 0.1863636363636374,
                "tempo": 120.0
            },
            {
                "start_time": 67.74318181818181,
                "end_time": 68.12727272727273,
                "pitch": 59,
                "velocity": 80,
                "duration": 0.38409090909091503,
                "tempo": 120.0
            },
            {
                "start_time": 68.14545454545454,
                "end_time": 68.32727272727273,
                "pitch": 60,
                "velocity": 80,
                "duration": 0.18181818181818699,
                "tempo": 120.0
            },
            {
                "start_time": 68.34545454545454,
                "end_time": 68.72272727272727,
                "pitch": 59,
                "velocity": 80,
                "duration": 0.3772727272727252,
                "tempo": 120.0
            },
            {
                "start_time": 68.73863636363636,
                "end_time": 69.14545454545454,
                "pitch": 57,
                "velocity": 80,
                "duration": 0.4068181818181813,
                "tempo": 120.0
            },
            {
                "start_time": 69.16136363636363,
                "end_time": 69.35,
                "pitch": 52,
                "velocity": 80,
                "duration": 0.1886363636363626,
                "tempo": 120.0
            },
            {
                "start_time": 69.36818181818181,
                "end_time": 69.76136363636363,
                "pitch": 59,
                "velocity": 80,
                "duration": 0.39318181818181586,
                "tempo": 120.0
            },
            {
                "start_time": 69.77954545454546,
                "end_time": 69.9659090909091,
                "pitch": 60,
                "velocity": 80,
                "duration": 0.1863636363636374,
                "tempo": 120.0
            },
            {
                "start_time": 69.98409090909091,
                "end_time": 70.36363636363636,
                "pitch": 59,
                "velocity": 80,
                "duration": 0.3795454545454504,
                "tempo": 120.0
            },
            {
                "start_time": 70.38181818181818,
                "end_time": 70.77045454545454,
                "pitch": 57,
                "velocity": 80,
                "duration": 0.38863636363636545,
                "tempo": 120.0
            },
            {
                "start_time": 70.78636363636363,
                "end_time": 71.38636363636363,
                "pitch": 62,
                "velocity": 80,
                "duration": 0.5999999999999943,
                "tempo": 120.0
            },
            {
                "start_time": 71.40454545454546,
                "end_time": 71.80681818181817,
                "pitch": 60,
                "velocity": 80,
                "duration": 0.4022727272727167,
                "tempo": 120.0
            },
            {
                "start_time": 71.82272727272726,
                "end_time": 72.21363636363635,
                "pitch": 59,
                "velocity": 80,
                "duration": 0.39090909090909065,
                "tempo": 120.0
            },
            {
                "start_time": 72.22954545454544,
                "end_time": 72.60681818181818,
                "pitch": 60,
                "velocity": 80,
                "duration": 0.3772727272727394,
                "tempo": 120.0
            },
            {
                "start_time": 72.625,
                "end_time": 73.01136363636363,
                "pitch": 59,
                "velocity": 80,
                "duration": 0.38636363636362603,
                "tempo": 120.0
            },
            {
                "start_time": 73.02954545454546,
                "end_time": 73.21818181818182,
                "pitch": 60,
                "velocity": 80,
                "duration": 0.1886363636363626,
                "tempo": 120.0
            },
            {
                "start_time": 73.23409090909091,
                "end_time": 73.63181818181818,
                "pitch": 59,
                "velocity": 80,
                "duration": 0.39772727272726627,
                "tempo": 120.0
            },
            {
                "start_time": 73.64772727272727,
                "end_time": 74.04545454545455,
                "pitch": 57,
                "velocity": 80,
                "duration": 0.3977272727272805,
                "tempo": 120.0
            },
            {
                "start_time": 74.06136363636364,
                "end_time": 74.25227272727273,
                "pitch": 52,
                "velocity": 80,
                "duration": 0.1909090909090878,
                "tempo": 120.0
            },
            {
                "start_time": 74.26818181818182,
                "end_time": 74.65227272727272,
                "pitch": 59,
                "velocity": 80,
                "duration": 0.3840909090909008,
                "tempo": 120.0
            },
            {
                "start_time": 74.66818181818182,
                "end_time": 74.85227272727272,
                "pitch": 60,
                "velocity": 80,
                "duration": 0.18409090909089798,
                "tempo": 120.0
            },
            {
                "start_time": 74.87045454545454,
                "end_time": 75.24772727272727,
                "pitch": 59,
                "velocity": 80,
                "duration": 0.3772727272727394,
                "tempo": 120.0
            },
            {
                "start_time": 75.26363636363637,
                "end_time": 75.67045454545455,
                "pitch": 57,
                "velocity": 80,
                "duration": 0.4068181818181813,
                "tempo": 120.0
            },
            {
                "start_time": 75.68863636363636,
                "end_time": 75.87727272727273,
                "pitch": 52,
                "velocity": 80,
                "duration": 0.1886363636363626,
                "tempo": 120.0
            },
            {
                "start_time": 75.89318181818182,
                "end_time": 76.28636363636363,
                "pitch": 59,
                "velocity": 80,
                "duration": 0.39318181818181586,
                "tempo": 120.0
            },
            {
                "start_time": 76.30454545454545,
                "end_time": 76.49318181818181,
                "pitch": 60,
                "velocity": 80,
                "duration": 0.1886363636363626,
                "tempo": 120.0
            },
            {
                "start_time": 76.5090909090909,
                "end_time": 76.89090909090909,
                "pitch": 59,
                "velocity": 80,
                "duration": 0.38181818181818983,
                "tempo": 120.0
            },
            {
                "start_time": 76.90681818181818,
                "end_time": 77.29545454545455,
                "pitch": 57,
                "velocity": 80,
                "duration": 0.38863636363636545,
                "tempo": 120.0
            },
            {
                "start_time": 77.31363636363636,
                "end_time": 77.91136363636363,
                "pitch": 62,
                "velocity": 80,
                "duration": 0.5977272727272691,
                "tempo": 120.0
            },
            {
                "start_time": 77.92954545454545,
                "end_time": 78.32954545454545,
                "pitch": 67,
                "velocity": 80,
                "duration": 0.4000000000000057,
                "tempo": 120.0
            },
            {
                "start_time": 78.34545454545454,
                "end_time": 78.72954545454544,
                "pitch": 71,
                "velocity": 80,
                "duration": 0.3840909090909008,
                "tempo": 120.0
            },
            {
                "start_time": 78.74772727272727,
                "end_time": 79.13181818181818,
                "pitch": 74,
                "velocity": 80,
                "duration": 0.3840909090909008,
                "tempo": 120.0
            },
            {
                "start_time": 79.14999999999999,
                "end_time": 80.57045454545454,
                "pitch": 71,
                "velocity": 80,
                "duration": 1.4204545454545467,
                "tempo": 120.0
            },
            {
                "start_time": 80.58636363636363,
                "end_time": 80.77045454545454,
                "pitch": 72,
                "velocity": 80,
                "duration": 0.1840909090909122,
                "tempo": 120.0
            },
            {
                "start_time": 80.78863636363636,
                "end_time": 82.00227272727273,
                "pitch": 72,
                "velocity": 80,
                "duration": 1.2136363636363683,
                "tempo": 120.0
            },
            {
                "start_time": 82.41590909090908,
                "end_time": 82.5,
                "pitch": 62,
                "velocity": 80,
                "duration": 0.08409090909091788,
                "tempo": 120.0
            },
            {
                "start_time": 82.51818181818182,
                "end_time": 82.60454545454544,
                "pitch": 55,
                "velocity": 80,
                "duration": 0.08636363636362887,
                "tempo": 120.0
            },
            {
                "start_time": 82.62045454545454,
                "end_time": 82.70681818181818,
                "pitch": 59,
                "velocity": 80,
                "duration": 0.08636363636364308,
                "tempo": 120.0
            },
            {
                "start_time": 82.72272727272727,
                "end_time": 82.8090909090909,
                "pitch": 62,
                "velocity": 80,
                "duration": 0.08636363636362887,
                "tempo": 120.0
            },
            {
                "start_time": 82.82727272727273,
                "end_time": 82.91136363636363,
                "pitch": 67,
                "velocity": 80,
                "duration": 0.08409090909090366,
                "tempo": 120.0
            },
            {
                "start_time": 82.92954545454545,
                "end_time": 83.01363636363637,
                "pitch": 59,
                "velocity": 80,
                "duration": 0.08409090909091788,
                "tempo": 120.0
            },
            {
                "start_time": 83.03181818181818,
                "end_time": 83.11818181818181,
                "pitch": 62,
                "velocity": 80,
                "duration": 0.08636363636362887,
                "tempo": 120.0
            },
            {
                "start_time": 83.1340909090909,
                "end_time": 83.22045454545454,
                "pitch": 67,
                "velocity": 80,
                "duration": 0.08636363636364308,
                "tempo": 120.0
            },
            {
                "start_time": 83.23636363636363,
                "end_time": 83.32272727272726,
                "pitch": 71,
                "velocity": 80,
                "duration": 0.08636363636362887,
                "tempo": 120.0
            },
            {
                "start_time": 83.3409090909091,
                "end_time": 83.425,
                "pitch": 62,
                "velocity": 80,
                "duration": 0.08409090909090366,
                "tempo": 120.0
            },
            {
                "start_time": 83.44318181818181,
                "end_time": 83.52727272727272,
                "pitch": 67,
                "velocity": 80,
                "duration": 0.08409090909090366,
                "tempo": 120.0
            },
            {
                "start_time": 83.54545454545455,
                "end_time": 83.62727272727273,
                "pitch": 71,
                "velocity": 80,
                "duration": 0.08181818181817846,
                "tempo": 120.0
            },
            {
                "start_time": 83.64318181818182,
                "end_time": 83.725,
                "pitch": 74,
                "velocity": 80,
                "duration": 0.08181818181817846,
                "tempo": 120.0
            },
            {
                "start_time": 83.74090909090908,
                "end_time": 83.82272727272726,
                "pitch": 67,
                "velocity": 80,
                "duration": 0.08181818181817846,
                "tempo": 120.0
            },
            {
                "start_time": 83.83863636363635,
                "end_time": 83.92045454545455,
                "pitch": 71,
                "velocity": 80,
                "duration": 0.08181818181819267,
                "tempo": 120.0
            },
            {
                "start_time": 83.93863636363636,
                "end_time": 84.02045454545454,
                "pitch": 74,
                "velocity": 80,
                "duration": 0.08181818181817846,
                "tempo": 120.0
            },
            {
                "start_time": 84.03636363636363,
                "end_time": 84.1340909090909,
                "pitch": 67,
                "velocity": 80,
                "duration": 0.09772727272726911,
                "tempo": 120.0
            },
            {
                "start_time": 84.14999999999999,
                "end_time": 84.23181818181818,
                "pitch": 59,
                "velocity": 80,
                "duration": 0.08181818181819267,
                "tempo": 120.0
            },
            {
                "start_time": 84.24772727272727,
                "end_time": 84.32954545454545,
                "pitch": 62,
                "velocity": 80,
                "duration": 0.08181818181817846,
                "tempo": 120.0
            },
            {
                "start_time": 84.34545454545454,
                "end_time": 84.4340909090909,
                "pitch": 67,
                "velocity": 80,
                "duration": 0.08863636363635408,
                "tempo": 120.0
            },
            {
                "start_time": 84.45227272727273,
                "end_time": 84.54090909090908,
                "pitch": 71,
                "velocity": 80,
                "duration": 0.08863636363635408,
                "tempo": 120.0
            },
            {
                "start_time": 84.55681818181817,
                "end_time": 84.64545454545454,
                "pitch": 62,
                "velocity": 80,
                "duration": 0.08863636363636829,
                "tempo": 120.0
            },
            {
                "start_time": 84.66363636363636,
                "end_time": 84.75227272727273,
                "pitch": 67,
                "velocity": 80,
                "duration": 0.08863636363636829,
                "tempo": 120.0
            },
            {
                "start_time": 84.76818181818182,
                "end_time": 84.85454545454544,
                "pitch": 71,
                "velocity": 80,
                "duration": 0.08636363636362887,
                "tempo": 120.0
            },
            {
                "start_time": 84.87272727272727,
                "end_time": 84.95681818181818,
                "pitch": 74,
                "velocity": 80,
                "duration": 0.08409090909090366,
                "tempo": 120.0
            },
            {
                "start_time": 84.975,
                "end_time": 85.06136363636364,
                "pitch": 67,
                "velocity": 80,
                "duration": 0.08636363636364308,
                "tempo": 120.0
            },
            {
                "start_time": 85.07727272727273,
                "end_time": 85.16363636363636,
                "pitch": 71,
                "velocity": 80,
                "duration": 0.08636363636362887,
                "tempo": 120.0
            },
            {
                "start_time": 85.17954545454545,
                "end_time": 85.26363636363637,
                "pitch": 74,
                "velocity": 80,
                "duration": 0.08409090909091788,
                "tempo": 120.0
            },
            {
                "start_time": 85.27954545454546,
                "end_time": 85.36363636363636,
                "pitch": 79,
                "velocity": 80,
                "duration": 0.08409090909090366,
                "tempo": 120.0
            },
            {
                "start_time": 85.37954545454545,
                "end_time": 85.46363636363635,
                "pitch": 71,
                "velocity": 80,
                "duration": 0.08409090909090366,
                "tempo": 120.0
            },
            {
                "start_time": 85.47954545454544,
                "end_time": 85.56363636363636,
                "pitch": 74,
                "velocity": 80,
                "duration": 0.08409090909091788,
                "tempo": 120.0
            },
            {
                "start_time": 85.57954545454545,
                "end_time": 85.66136363636363,
                "pitch": 79,
                "velocity": 80,
                "duration": 0.08181818181817846,
                "tempo": 120.0
            }
        ]
    }
}