{
    "track_id": "Ys (FM) - 02 - Fountain of Love",
    "mood": "happy",
    "instruments": {
        "Vibraphone": [
            {
                "start_time": 0.015909090909090907,
                "end_time": 0.6022727272727273,
                "pitch": 64,
                "velocity": 64,
                "duration": 0.5863636363636364,
                "tempo": 120.0
            },
            {
                "start_time": 0.6181818181818182,
                "end_time": 1.2113636363636362,
                "pitch": 67,
                "velocity": 64,
                "duration": 0.593181818181818,
                "tempo": 120.0
            },
            {
                "start_time": 1.2272727272727273,
                "end_time": 1.6409090909090909,
                "pitch": 72,
                "velocity": 64,
                "duration": 0.4136363636363636,
                "tempo": 120.0
            },
            {
                "start_time": 1.6568181818181817,
                "end_time": 2.2659090909090907,
                "pitch": 64,
                "velocity": 64,
                "duration": 0.6090909090909089,
                "tempo": 120.0
            },
            {
                "start_time": 2.2818181818181817,
                "end_time": 2.8886363636363637,
                "pitch": 67,
                "velocity": 64,
                "duration": 0.6068181818181819,
                "tempo": 120.0
            },
            {
                "start_time": 2.9045454545454543,
                "end_time": 3.3068181818181817,
                "pitch": 72,
                "velocity": 64,
                "duration": 0.40227272727272734,
                "tempo": 120.0
            },
            {
                "start_time": 3.3227272727272728,
                "end_time": 3.718181818181818,
                "pitch": 72,
                "velocity": 64,
                "duration": 0.39545454545454506,
                "tempo": 120.0
            },
            {
                "start_time": 3.7363636363636363,
                "end_time": 4.127272727272727,
                "pitch": 76,
                "velocity": 64,
                "duration": 0.39090909090909065,
                "tempo": 120.0
            },
            {
                "start_time": 4.1454545454545455,
                "end_time": 4.345454545454546,
                "pitch": 74,
                "velocity": 64,
                "duration": 0.20000000000000018,
                "tempo": 120.0
            },
            {
                "start_time": 4.361363636363636,
                "end_time": 4.752272727272727,
                "pitch": 72,
                "velocity": 64,
                "duration": 0.39090909090909065,
                "tempo": 120.0
            },
            {
                "start_time": 4.768181818181818,
                "end_time": 5.404545454545454,
                "pitch": 69,
                "velocity": 64,
                "duration": 0.6363636363636367,
                "tempo": 120.0
            },
            {
                "start_time": 5.420454545454545,
                "end_time": 5.804545454545455,
                "pitch": 69,
                "velocity": 64,
                "duration": 0.3840909090909097,
                "tempo": 120.0
            },
            {
                "start_time": 5.822727272727272,
                "end_time": 6.211363636363636,
                "pitch": 71,
                "velocity": 64,
                "duration": 0.38863636363636367,
                "tempo": 120.0
            },
            {
                "start_time": 6.2295454545454545,
                "end_time": 6.640909090909091,
                "pitch": 72,
                "velocity": 64,
                "duration": 0.41136363636363615,
                "tempo": 120.0
            },
            {
                "start_time": 6.659090909090909,
                "end_time": 7.277272727272727,
                "pitch": 65,
                "velocity": 64,
                "duration": 0.6181818181818182,
                "tempo": 120.0
            },
            {
                "start_time": 7.293181818181818,
                "end_time": 7.893181818181818,
                "pitch": 72,
                "velocity": 64,
                "duration": 0.5999999999999996,
                "tempo": 120.0
            },
            {
                "start_time": 7.909090909090908,
                "end_time": 8.311363636363636,
                "pitch": 74,
                "velocity": 64,
                "duration": 0.40227272727272734,
                "tempo": 120.0
            },
            {
                "start_time": 8.327272727272726,
                "end_time": 8.940909090909091,
                "pitch": 65,
                "velocity": 64,
                "duration": 0.6136363636363651,
                "tempo": 120.0
            },
            {
                "start_time": 8.956818181818182,
                "end_time": 9.568181818181818,
                "pitch": 69,
                "velocity": 64,
                "duration": 0.6113636363636363,
                "tempo": 120.0
            },
            {
                "start_time": 9.586363636363636,
                "end_time": 9.979545454545454,
                "pitch": 74,
                "velocity": 64,
                "duration": 0.39318181818181763,
                "tempo": 120.0
            },
            {
                "start_time": 9.995454545454544,
                "end_time": 10.406818181818181,
                "pitch": 67,
                "velocity": 64,
                "duration": 0.41136363636363704,
                "tempo": 120.0
            },
            {
                "start_time": 10.424999999999999,
                "end_time": 10.836363636363636,
                "pitch": 79,
                "velocity": 64,
                "duration": 0.41136363636363704,
                "tempo": 120.0
            },
            {
                "start_time": 10.854545454545454,
                "end_time": 11.038636363636362,
                "pitch": 77,
                "velocity": 64,
                "duration": 0.18409090909090864,
                "tempo": 120.0
            },
            {
                "start_time": 11.054545454545455,
                "end_time": 11.452272727272726,
                "pitch": 76,
                "velocity": 64,
                "duration": 0.3977272727272716,
                "tempo": 120.0
            },
            {
                "start_time": 11.468181818181817,
                "end_time": 12.06590909090909,
                "pitch": 74,
                "velocity": 64,
                "duration": 0.5977272727272727,
                "tempo": 120.0
            },
            {
                "start_time": 12.081818181818182,
                "end_time": 12.495454545454544,
                "pitch": 74,
                "velocity": 64,
                "duration": 0.41363636363636225,
                "tempo": 120.0
            },
            {
                "start_time": 12.511363636363635,
                "end_time": 12.906818181818181,
                "pitch": 76,
                "velocity": 64,
                "duration": 0.3954545454545464,
                "tempo": 120.0
            },
            {
                "start_time": 12.922727272727272,
                "end_time": 13.313636363636363,
                "pitch": 77,
                "velocity": 64,
                "duration": 0.39090909090909065,
                "tempo": 120.0
            },
            {
                "start_time": 13.329545454545453,
                "end_time": 13.947727272727272,
                "pitch": 64,
                "velocity": 64,
                "duration": 0.618181818181819,
                "tempo": 120.0
            },
            {
                "start_time": 13.96590909090909,
                "end_time": 14.59090909090909,
                "pitch": 67,
                "velocity": 64,
                "duration": 0.625,
                "tempo": 120.0
            },
            {
                "start_time": 14.60681818181818,
                "end_time": 15.002272727272727,
                "pitch": 72,
                "velocity": 64,
                "duration": 0.3954545454545464,
                "tempo": 120.0
            },
            {
                "start_time": 15.018181818181818,
                "end_time": 15.611363636363636,
                "pitch": 64,
                "velocity": 64,
                "duration": 0.5931818181818187,
                "tempo": 120.0
            },
            {
                "start_time": 15.645454545454545,
                "end_time": 16.24772727272727,
                "pitch": 67,
                "velocity": 64,
                "duration": 0.6022727272727266,
                "tempo": 120.0
            },
            {
                "start_time": 16.263636363636362,
                "end_time": 16.668181818181818,
                "pitch": 72,
                "velocity": 64,
                "duration": 0.4045454545454561,
                "tempo": 120.0
            },
            {
                "start_time": 16.68409090909091,
                "end_time": 17.075,
                "pitch": 72,
                "velocity": 64,
                "duration": 0.39090909090909065,
                "tempo": 120.0
            },
            {
                "start_time": 17.09090909090909,
                "end_time": 17.504545454545454,
                "pitch": 76,
                "velocity": 64,
                "duration": 0.413636363636364,
                "tempo": 120.0
            },
            {
                "start_time": 17.520454545454545,
                "end_time": 17.69772727272727,
                "pitch": 74,
                "velocity": 64,
                "duration": 0.17727272727272592,
                "tempo": 120.0
            },
            {
                "start_time": 17.71590909090909,
                "end_time": 18.120454545454546,
                "pitch": 72,
                "velocity": 64,
                "duration": 0.4045454545454561,
                "tempo": 120.0
            },
            {
                "start_time": 18.136363636363637,
                "end_time": 18.75,
                "pitch": 69,
                "velocity": 64,
                "duration": 0.6136363636363633,
                "tempo": 120.0
            },
            {
                "start_time": 18.76590909090909,
                "end_time": 19.15681818181818,
                "pitch": 69,
                "velocity": 64,
                "duration": 0.39090909090909065,
                "tempo": 120.0
            },
            {
                "start_time": 19.172727272727272,
                "end_time": 19.584090909090907,
                "pitch": 71,
                "velocity": 64,
                "duration": 0.41136363636363527,
                "tempo": 120.0
            },
            {
                "start_time": 19.602272727272727,
                "end_time": 20.013636363636362,
                "pitch": 72,
                "velocity": 64,
                "duration": 0.41136363636363527,
                "tempo": 120.0
            },
            {
                "start_time": 20.03181818181818,
                "end_time": 20.63181818181818,
                "pitch": 65,
                "velocity": 64,
                "duration": 0.5999999999999979,
                "tempo": 120.0
            },
            {
                "start_time": 20.65,
                "end_time": 21.25,
                "pitch": 69,
                "velocity": 64,
                "duration": 0.6000000000000014,
                "tempo": 120.0
            },
            {
                "start_time": 21.268181818181816,
                "end_time": 21.679545454545455,
                "pitch": 74,
                "velocity": 64,
                "duration": 0.4113636363636388,
                "tempo": 120.0
            },
            {
                "start_time": 21.695454545454545,
                "end_time": 21.879545454545454,
                "pitch": 67,
                "velocity": 64,
                "duration": 0.18409090909090864,
                "tempo": 120.0
            },
            {
                "start_time": 22.320454545454545,
                "end_time": 22.509090909090908,
                "pitch": 67,
                "velocity": 64,
                "duration": 0.1886363636363626,
                "tempo": 120.0
            },
            {
                "start_time": 22.936363636363634,
                "end_time": 23.347727272727273,
                "pitch": 67,
                "velocity": 64,
                "duration": 0.4113636363636388,
                "tempo": 120.0
            },
            {
                "start_time": 23.36590909090909,
                "end_time": 23.547727272727272,
                "pitch": 72,
                "velocity": 64,
                "duration": 0.18181818181818343,
                "tempo": 120.0
            },
            {
                "start_time": 23.56590909090909,
                "end_time": 23.76590909090909,
                "pitch": 72,
                "velocity": 64,
                "duration": 0.1999999999999993,
                "tempo": 120.0
            },
            {
                "start_time": 23.78181818181818,
                "end_time": 23.96590909090909,
                "pitch": 72,
                "velocity": 64,
                "duration": 0.18409090909090864,
                "tempo": 120.0
            },
            {
                "start_time": 23.98409090909091,
                "end_time": 24.16590909090909,
                "pitch": 72,
                "velocity": 64,
                "duration": 0.18181818181817988,
                "tempo": 120.0
            },
            {
                "start_time": 24.4,
                "end_time": 24.584090909090907,
                "pitch": 72,
                "velocity": 64,
                "duration": 0.18409090909090864,
                "tempo": 120.0
            },
            {
                "start_time": 24.825,
                "end_time": 25.013636363636362,
                "pitch": 72,
                "velocity": 64,
                "duration": 0.1886363636363626,
                "tempo": 120.0
            },
            {
                "start_time": 25.23181818181818,
                "end_time": 25.43181818181818,
                "pitch": 72,
                "velocity": 64,
                "duration": 0.1999999999999993,
                "tempo": 120.0
            },
            {
                "start_time": 25.654545454545453,
                "end_time": 25.84318181818182,
                "pitch": 72,
                "velocity": 64,
                "duration": 0.18863636363636616,
                "tempo": 120.0
            },
            {
                "start_time": 25.861363636363635,
                "end_time": 26.061363636363634,
                "pitch": 72,
                "velocity": 64,
                "duration": 0.1999999999999993,
                "tempo": 120.0
            },
            {
                "start_time": 26.077272727272724,
                "end_time": 26.261363636363637,
                "pitch": 72,
                "velocity": 64,
                "duration": 0.1840909090909122,
                "tempo": 120.0
            },
            {
                "start_time": 26.277272727272727,
                "end_time": 26.479545454545452,
                "pitch": 72,
                "velocity": 64,
                "duration": 0.2022727272727245,
                "tempo": 120.0
            },
            {
                "start_time": 26.495454545454542,
                "end_time": 26.679545454545455,
                "pitch": 72,
                "velocity": 64,
                "duration": 0.1840909090909122,
                "tempo": 120.0
            }
        ],
        "Acoustic Bass": [
            {
                "start_time": 0.0,
                "end_time": 0.18863636363636363,
                "pitch": 36,
                "velocity": 64,
                "duration": 0.18863636363636363,
                "tempo": 120.0
            },
            {
                "start_time": 0.6181818181818182,
                "end_time": 0.7931818181818181,
                "pitch": 36,
                "velocity": 64,
                "duration": 0.17499999999999993,
                "tempo": 120.0
            },
            {
                "start_time": 1.6568181818181817,
                "end_time": 1.8454545454545455,
                "pitch": 36,
                "velocity": 64,
                "duration": 0.1886363636363637,
                "tempo": 120.0
            },
            {
                "start_time": 2.2818181818181817,
                "end_time": 2.459090909090909,
                "pitch": 36,
                "velocity": 64,
                "duration": 0.17727272727272725,
                "tempo": 120.0
            },
            {
                "start_time": 2.6999999999999997,
                "end_time": 2.8886363636363637,
                "pitch": 36,
                "velocity": 64,
                "duration": 0.18863636363636394,
                "tempo": 120.0
            },
            {
                "start_time": 2.9045454545454543,
                "end_time": 3.0886363636363634,
                "pitch": 38,
                "velocity": 64,
                "duration": 0.18409090909090908,
                "tempo": 120.0
            },
            {
                "start_time": 3.1068181818181815,
                "end_time": 3.3068181818181817,
                "pitch": 40,
                "velocity": 64,
                "duration": 0.20000000000000018,
                "tempo": 120.0
            },
            {
                "start_time": 3.3227272727272728,
                "end_time": 3.5113636363636362,
                "pitch": 41,
                "velocity": 64,
                "duration": 0.1886363636363635,
                "tempo": 120.0
            },
            {
                "start_time": 3.9477272727272728,
                "end_time": 4.127272727272727,
                "pitch": 41,
                "velocity": 64,
                "duration": 0.17954545454545423,
                "tempo": 120.0
            },
            {
                "start_time": 4.99090909090909,
                "end_time": 5.181818181818182,
                "pitch": 41,
                "velocity": 64,
                "duration": 0.19090909090909136,
                "tempo": 120.0
            },
            {
                "start_time": 5.622727272727272,
                "end_time": 5.804545454545455,
                "pitch": 41,
                "velocity": 64,
                "duration": 0.18181818181818254,
                "tempo": 120.0
            },
            {
                "start_time": 6.034090909090909,
                "end_time": 6.211363636363636,
                "pitch": 41,
                "velocity": 64,
                "duration": 0.1772727272727268,
                "tempo": 120.0
            },
            {
                "start_time": 6.2295454545454545,
                "end_time": 6.418181818181818,
                "pitch": 40,
                "velocity": 64,
                "duration": 0.1886363636363635,
                "tempo": 120.0
            },
            {
                "start_time": 6.434090909090909,
                "end_time": 6.640909090909091,
                "pitch": 40,
                "velocity": 64,
                "duration": 0.206818181818182,
                "tempo": 120.0
            },
            {
                "start_time": 6.659090909090909,
                "end_time": 6.847727272727273,
                "pitch": 38,
                "velocity": 64,
                "duration": 0.1886363636363635,
                "tempo": 120.0
            },
            {
                "start_time": 7.293181818181818,
                "end_time": 7.4818181818181815,
                "pitch": 38,
                "velocity": 64,
                "duration": 0.1886363636363635,
                "tempo": 120.0
            },
            {
                "start_time": 8.327272727272726,
                "end_time": 8.51590909090909,
                "pitch": 38,
                "velocity": 64,
                "duration": 0.18863636363636438,
                "tempo": 120.0
            },
            {
                "start_time": 8.956818181818182,
                "end_time": 9.14090909090909,
                "pitch": 38,
                "velocity": 64,
                "duration": 0.18409090909090864,
                "tempo": 120.0
            },
            {
                "start_time": 9.379545454545454,
                "end_time": 9.568181818181818,
                "pitch": 38,
                "velocity": 64,
                "duration": 0.18863636363636438,
                "tempo": 120.0
            },
            {
                "start_time": 9.586363636363636,
                "end_time": 9.781818181818181,
                "pitch": 40,
                "velocity": 64,
                "duration": 0.19545454545454533,
                "tempo": 120.0
            },
            {
                "start_time": 9.799999999999999,
                "end_time": 9.979545454545454,
                "pitch": 41,
                "velocity": 64,
                "duration": 0.17954545454545467,
                "tempo": 120.0
            },
            {
                "start_time": 9.995454545454544,
                "end_time": 10.184090909090909,
                "pitch": 43,
                "velocity": 64,
                "duration": 0.18863636363636438,
                "tempo": 120.0
            },
            {
                "start_time": 10.631818181818181,
                "end_time": 10.836363636363636,
                "pitch": 43,
                "velocity": 64,
                "duration": 0.20454545454545503,
                "tempo": 120.0
            },
            {
                "start_time": 11.663636363636362,
                "end_time": 11.86590909090909,
                "pitch": 43,
                "velocity": 64,
                "duration": 0.20227272727272805,
                "tempo": 120.0
            },
            {
                "start_time": 12.288636363636362,
                "end_time": 12.495454545454544,
                "pitch": 43,
                "velocity": 64,
                "duration": 0.206818181818182,
                "tempo": 120.0
            },
            {
                "start_time": 12.718181818181817,
                "end_time": 12.906818181818181,
                "pitch": 31,
                "velocity": 64,
                "duration": 0.18863636363636438,
                "tempo": 120.0
            },
            {
                "start_time": 12.922727272727272,
                "end_time": 13.118181818181817,
                "pitch": 33,
                "velocity": 64,
                "duration": 0.19545454545454533,
                "tempo": 120.0
            },
            {
                "start_time": 13.134090909090908,
                "end_time": 13.313636363636363,
                "pitch": 35,
                "velocity": 64,
                "duration": 0.17954545454545467,
                "tempo": 120.0
            },
            {
                "start_time": 13.329545454545453,
                "end_time": 13.536363636363635,
                "pitch": 36,
                "velocity": 64,
                "duration": 0.206818181818182,
                "tempo": 120.0
            },
            {
                "start_time": 13.96590909090909,
                "end_time": 14.172727272727272,
                "pitch": 36,
                "velocity": 64,
                "duration": 0.206818181818182,
                "tempo": 120.0
            },
            {
                "start_time": 15.018181818181818,
                "end_time": 15.21590909090909,
                "pitch": 36,
                "velocity": 64,
                "duration": 0.1977272727272723,
                "tempo": 120.0
            },
            {
                "start_time": 15.645454545454545,
                "end_time": 15.829545454545453,
                "pitch": 36,
                "velocity": 64,
                "duration": 0.18409090909090864,
                "tempo": 120.0
            },
            {
                "start_time": 16.045454545454543,
                "end_time": 16.24772727272727,
                "pitch": 36,
                "velocity": 64,
                "duration": 0.20227272727272805,
                "tempo": 120.0
            },
            {
                "start_time": 16.263636363636362,
                "end_time": 16.456818181818182,
                "pitch": 38,
                "velocity": 64,
                "duration": 0.19318181818182012,
                "tempo": 120.0
            },
            {
                "start_time": 16.474999999999998,
                "end_time": 16.668181818181818,
                "pitch": 40,
                "velocity": 64,
                "duration": 0.19318181818182012,
                "tempo": 120.0
            },
            {
                "start_time": 16.68409090909091,
                "end_time": 16.879545454545454,
                "pitch": 41,
                "velocity": 64,
                "duration": 0.19545454545454533,
                "tempo": 120.0
            },
            {
                "start_time": 17.313636363636363,
                "end_time": 17.504545454545454,
                "pitch": 41,
                "velocity": 64,
                "duration": 0.19090909090909136,
                "tempo": 120.0
            },
            {
                "start_time": 18.36590909090909,
                "end_time": 18.547727272727272,
                "pitch": 41,
                "velocity": 64,
                "duration": 0.18181818181818343,
                "tempo": 120.0
            },
            {
                "start_time": 18.977272727272727,
                "end_time": 19.15681818181818,
                "pitch": 41,
                "velocity": 64,
                "duration": 0.17954545454545467,
                "tempo": 120.0
            },
            {
                "start_time": 19.377272727272725,
                "end_time": 19.584090909090907,
                "pitch": 41,
                "velocity": 64,
                "duration": 0.206818181818182,
                "tempo": 120.0
            },
            {
                "start_time": 19.602272727272727,
                "end_time": 19.79090909090909,
                "pitch": 40,
                "velocity": 64,
                "duration": 0.1886363636363626,
                "tempo": 120.0
            },
            {
                "start_time": 19.80681818181818,
                "end_time": 20.013636363636362,
                "pitch": 40,
                "velocity": 64,
                "duration": 0.206818181818182,
                "tempo": 120.0
            },
            {
                "start_time": 20.03181818181818,
                "end_time": 20.21363636363636,
                "pitch": 38,
                "velocity": 64,
                "duration": 0.18181818181817988,
                "tempo": 120.0
            },
            {
                "start_time": 20.65,
                "end_time": 20.831818181818182,
                "pitch": 38,
                "velocity": 64,
                "duration": 0.18181818181818343,
                "tempo": 120.0
            },
            {
                "start_time": 21.06590909090909,
                "end_time": 21.25,
                "pitch": 38,
                "velocity": 64,
                "duration": 0.18409090909090864,
                "tempo": 120.0
            },
            {
                "start_time": 21.268181818181816,
                "end_time": 21.456818181818182,
                "pitch": 40,
                "velocity": 64,
                "duration": 0.18863636363636616,
                "tempo": 120.0
            },
            {
                "start_time": 21.472727272727273,
                "end_time": 21.679545454545455,
                "pitch": 41,
                "velocity": 64,
                "duration": 0.206818181818182,
                "tempo": 120.0
            },
            {
                "start_time": 21.695454545454545,
                "end_time": 21.879545454545454,
                "pitch": 43,
                "velocity": 64,
                "duration": 0.18409090909090864,
                "tempo": 120.0
            },
            {
                "start_time": 22.320454545454545,
                "end_time": 22.509090909090908,
                "pitch": 43,
                "velocity": 64,
                "duration": 0.1886363636363626,
                "tempo": 120.0
            },
            {
                "start_time": 22.738636363636363,
                "end_time": 22.918181818181818,
                "pitch": 31,
                "velocity": 64,
                "duration": 0.17954545454545467,
                "tempo": 120.0
            },
            {
                "start_time": 22.936363636363634,
                "end_time": 23.125,
                "pitch": 33,
                "velocity": 64,
                "duration": 0.18863636363636616,
                "tempo": 120.0
            },
            {
                "start_time": 23.14090909090909,
                "end_time": 23.347727272727273,
                "pitch": 35,
                "velocity": 64,
                "duration": 0.206818181818182,
                "tempo": 120.0
            },
            {
                "start_time": 23.36590909090909,
                "end_time": 23.547727272727272,
                "pitch": 34,
                "velocity": 64,
                "duration": 0.18181818181818343,
                "tempo": 120.0
            },
            {
                "start_time": 23.98409090909091,
                "end_time": 24.16590909090909,
                "pitch": 34,
                "velocity": 64,
                "duration": 0.18181818181817988,
                "tempo": 120.0
            },
            {
                "start_time": 24.599999999999998,
                "end_time": 24.80681818181818,
                "pitch": 34,
                "velocity": 64,
                "duration": 0.206818181818182,
                "tempo": 120.0
            },
            {
                "start_time": 25.029545454545453,
                "end_time": 25.21363636363636,
                "pitch": 34,
                "velocity": 64,
                "duration": 0.18409090909090864,
                "tempo": 120.0
            },
            {
                "start_time": 25.654545454545453,
                "end_time": 25.84318181818182,
                "pitch": 34,
                "velocity": 64,
                "duration": 0.18863636363636616,
                "tempo": 120.0
            },
            {
                "start_time": 25.861363636363635,
                "end_time": 26.061363636363634,
                "pitch": 34,
                "velocity": 64,
                "duration": 0.1999999999999993,
                "tempo": 120.0
            },
            {
                "start_time": 26.077272727272724,
                "end_time": 26.261363636363637,
                "pitch": 34,
                "velocity": 64,
                "duration": 0.1840909090909122,
                "tempo": 120.0
            },
            {
                "start_time": 26.277272727272727,
                "end_time": 26.479545454545452,
                "pitch": 34,
                "velocity": 64,
                "duration": 0.2022727272727245,
                "tempo": 120.0
            },
            {
                "start_time": 26.495454545454542,
                "end_time": 26.679545454545455,
                "pitch": 34,
                "velocity": 64,
                "duration": 0.1840909090909122,
                "tempo": 120.0
            }
        ],
        "Church Organ": [
            {
                "start_time": 23.36590909090909,
                "end_time": 23.547727272727272,
                "pitch": 46,
                "velocity": 51,
                "duration": 0.18181818181818343,
                "tempo": 120.0
            },
            {
                "start_time": 23.56590909090909,
                "end_time": 23.76590909090909,
                "pitch": 46,
                "velocity": 51,
                "duration": 0.1999999999999993,
                "tempo": 120.0
            },
            {
                "start_time": 23.78181818181818,
                "end_time": 23.96590909090909,
                "pitch": 46,
                "velocity": 51,
                "duration": 0.18409090909090864,
                "tempo": 120.0
            },
            {
                "start_time": 23.98409090909091,
                "end_time": 24.16590909090909,
                "pitch": 46,
                "velocity": 51,
                "duration": 0.18181818181817988,
                "tempo": 120.0
            },
            {
                "start_time": 24.4,
                "end_time": 24.584090909090907,
                "pitch": 46,
                "velocity": 51,
                "duration": 0.18409090909090864,
                "tempo": 120.0
            },
            {
                "start_time": 24.825,
                "end_time": 25.013636363636362,
                "pitch": 46,
                "velocity": 51,
                "duration": 0.1886363636363626,
                "tempo": 120.0
            },
            {
                "start_time": 25.23181818181818,
                "end_time": 25.43181818181818,
                "pitch": 46,
                "velocity": 51,
                "duration": 0.1999999999999993,
                "tempo": 120.0
            },
            {
                "start_time": 25.654545454545453,
                "end_time": 25.84318181818182,
                "pitch": 46,
                "velocity": 51,
                "duration": 0.18863636363636616,
                "tempo": 120.0
            },
            {
                "start_time": 25.861363636363635,
                "end_time": 26.061363636363634,
                "pitch": 46,
                "velocity": 51,
                "duration": 0.1999999999999993,
                "tempo": 120.0
            },
            {
                "start_time": 26.077272727272724,
                "end_time": 26.261363636363637,
                "pitch": 46,
                "velocity": 51,
                "duration": 0.1840909090909122,
                "tempo": 120.0
            },
            {
                "start_time": 26.277272727272727,
                "end_time": 26.479545454545452,
                "pitch": 46,
                "velocity": 51,
                "duration": 0.2022727272727245,
                "tempo": 120.0
            },
            {
                "start_time": 26.495454545454542,
                "end_time": 26.679545454545455,
                "pitch": 46,
                "velocity": 51,
                "duration": 0.1840909090909122,
                "tempo": 120.0
            }
        ]
    }
}