{
    "track_id": "Zaxxon 3-D (FM) - 02 - Outer Space",
    "mood": "happy",
    "instruments": {
        "Acoustic Bass": [
            {
                "start_time": 0.0,
                "end_time": 0.056818181818181816,
                "pitch": 39,
                "velocity": 64,
                "duration": 0.056818181818181816,
                "tempo": 120.0
            },
            {
                "start_time": 0.08409090909090909,
                "end_time": 0.16818181818181818,
                "pitch": 39,
                "velocity": 64,
                "duration": 0.08409090909090909,
                "tempo": 120.0
            },
            {
                "start_time": 0.18181818181818182,
                "end_time": 0.2772727272727273,
                "pitch": 44,
                "velocity": 64,
                "duration": 0.09545454545454546,
                "tempo": 120.0
            },
            {
                "start_time": 0.29318181818181815,
                "end_time": 0.3931818181818182,
                "pitch": 46,
                "velocity": 64,
                "duration": 0.10000000000000003,
                "tempo": 120.0
            },
            {
                "start_time": 0.40909090909090906,
                "end_time": 0.5068181818181818,
                "pitch": 51,
                "velocity": 64,
                "duration": 0.09772727272727277,
                "tempo": 120.0
            },
            {
                "start_time": 0.5227272727272727,
                "end_time": 0.7522727272727272,
                "pitch": 49,
                "velocity": 64,
                "duration": 0.2295454545454545,
                "tempo": 120.0
            },
            {
                "start_time": 0.7704545454545454,
                "end_time": 0.9818181818181818,
                "pitch": 51,
                "velocity": 64,
                "duration": 0.21136363636363642,
                "tempo": 120.0
            },
            {
                "start_time": 1.0,
                "end_time": 1.0977272727272727,
                "pitch": 49,
                "velocity": 64,
                "duration": 0.09772727272727266,
                "tempo": 120.0
            },
            {
                "start_time": 1.1136363636363635,
                "end_time": 1.459090909090909,
                "pitch": 46,
                "velocity": 64,
                "duration": 0.34545454545454546,
                "tempo": 120.0
            },
            {
                "start_time": 1.4749999999999999,
                "end_time": 1.5727272727272728,
                "pitch": 44,
                "velocity": 64,
                "duration": 0.09772727272727288,
                "tempo": 120.0
            },
            {
                "start_time": 1.5909090909090908,
                "end_time": 1.6931818181818181,
                "pitch": 46,
                "velocity": 64,
                "duration": 0.10227272727272729,
                "tempo": 120.0
            },
            {
                "start_time": 1.7113636363636362,
                "end_time": 1.8136363636363635,
                "pitch": 49,
                "velocity": 64,
                "duration": 0.10227272727272729,
                "tempo": 120.0
            },
            {
                "start_time": 1.8499999999999999,
                "end_time": 1.9522727272727272,
                "pitch": 39,
                "velocity": 64,
                "duration": 0.10227272727272729,
                "tempo": 120.0
            },
            {
                "start_time": 1.9704545454545455,
                "end_time": 2.0749999999999997,
                "pitch": 39,
                "velocity": 64,
                "duration": 0.10454545454545427,
                "tempo": 120.0
            },
            {
                "start_time": 2.090909090909091,
                "end_time": 2.1886363636363635,
                "pitch": 44,
                "velocity": 64,
                "duration": 0.09772727272727266,
                "tempo": 120.0
            },
            {
                "start_time": 2.2045454545454546,
                "end_time": 2.3,
                "pitch": 46,
                "velocity": 64,
                "duration": 0.09545454545454524,
                "tempo": 120.0
            },
            {
                "start_time": 2.315909090909091,
                "end_time": 2.411363636363636,
                "pitch": 51,
                "velocity": 64,
                "duration": 0.09545454545454524,
                "tempo": 120.0
            },
            {
                "start_time": 2.4454545454545453,
                "end_time": 2.659090909090909,
                "pitch": 49,
                "velocity": 64,
                "duration": 0.21363636363636385,
                "tempo": 120.0
            },
            {
                "start_time": 2.675,
                "end_time": 2.8977272727272725,
                "pitch": 51,
                "velocity": 64,
                "duration": 0.22272727272727266,
                "tempo": 120.0
            },
            {
                "start_time": 2.9159090909090906,
                "end_time": 3.018181818181818,
                "pitch": 49,
                "velocity": 64,
                "duration": 0.10227272727272751,
                "tempo": 120.0
            },
            {
                "start_time": 3.0522727272727272,
                "end_time": 3.384090909090909,
                "pitch": 46,
                "velocity": 64,
                "duration": 0.33181818181818157,
                "tempo": 120.0
            },
            {
                "start_time": 3.402272727272727,
                "end_time": 3.502272727272727,
                "pitch": 44,
                "velocity": 64,
                "duration": 0.10000000000000009,
                "tempo": 120.0
            },
            {
                "start_time": 3.518181818181818,
                "end_time": 3.618181818181818,
                "pitch": 46,
                "velocity": 64,
                "duration": 0.10000000000000009,
                "tempo": 120.0
            },
            {
                "start_time": 3.652272727272727,
                "end_time": 3.752272727272727,
                "pitch": 49,
                "velocity": 64,
                "duration": 0.10000000000000009,
                "tempo": 120.0
            },
            {
                "start_time": 3.768181818181818,
                "end_time": 3.868181818181818,
                "pitch": 39,
                "velocity": 64,
                "duration": 0.10000000000000009,
                "tempo": 120.0
            },
            {
                "start_time": 3.884090909090909,
                "end_time": 3.984090909090909,
                "pitch": 39,
                "velocity": 64,
                "duration": 0.10000000000000009,
                "tempo": 120.0
            },
            {
                "start_time": 4.002272727272727,
                "end_time": 4.1022727272727275,
                "pitch": 44,
                "velocity": 64,
                "duration": 0.10000000000000053,
                "tempo": 120.0
            },
            {
                "start_time": 4.118181818181818,
                "end_time": 4.218181818181818,
                "pitch": 46,
                "velocity": 64,
                "duration": 0.09999999999999964,
                "tempo": 120.0
            },
            {
                "start_time": 4.252272727272727,
                "end_time": 4.352272727272727,
                "pitch": 51,
                "velocity": 64,
                "duration": 0.09999999999999964,
                "tempo": 120.0
            },
            {
                "start_time": 4.368181818181818,
                "end_time": 4.586363636363636,
                "pitch": 49,
                "velocity": 64,
                "duration": 0.2181818181818178,
                "tempo": 120.0
            },
            {
                "start_time": 4.602272727272727,
                "end_time": 4.820454545454545,
                "pitch": 51,
                "velocity": 64,
                "duration": 0.2181818181818187,
                "tempo": 120.0
            },
            {
                "start_time": 4.8545454545454545,
                "end_time": 4.954545454545454,
                "pitch": 49,
                "velocity": 64,
                "duration": 0.09999999999999964,
                "tempo": 120.0
            },
            {
                "start_time": 4.972727272727273,
                "end_time": 5.3136363636363635,
                "pitch": 46,
                "velocity": 64,
                "duration": 0.34090909090909083,
                "tempo": 120.0
            },
            {
                "start_time": 5.329545454545454,
                "end_time": 5.431818181818182,
                "pitch": 44,
                "velocity": 64,
                "duration": 0.10227272727272751,
                "tempo": 120.0
            },
            {
                "start_time": 5.465909090909091,
                "end_time": 5.5659090909090905,
                "pitch": 46,
                "velocity": 64,
                "duration": 0.09999999999999964,
                "tempo": 120.0
            },
            {
                "start_time": 5.581818181818181,
                "end_time": 5.679545454545455,
                "pitch": 49,
                "velocity": 64,
                "duration": 0.09772727272727355,
                "tempo": 120.0
            },
            {
                "start_time": 5.695454545454545,
                "end_time": 5.795454545454545,
                "pitch": 39,
                "velocity": 64,
                "duration": 0.09999999999999964,
                "tempo": 120.0
            },
            {
                "start_time": 5.8113636363636365,
                "end_time": 5.909090909090909,
                "pitch": 39,
                "velocity": 64,
                "duration": 0.09772727272727266,
                "tempo": 120.0
            },
            {
                "start_time": 5.925,
                "end_time": 6.0249999999999995,
                "pitch": 49,
                "velocity": 64,
                "duration": 0.09999999999999964,
                "tempo": 120.0
            },
            {
                "start_time": 6.056818181818182,
                "end_time": 6.156818181818181,
                "pitch": 39,
                "velocity": 64,
                "duration": 0.09999999999999964,
                "tempo": 120.0
            },
            {
                "start_time": 6.172727272727273,
                "end_time": 6.2704545454545455,
                "pitch": 44,
                "velocity": 64,
                "duration": 0.09772727272727266,
                "tempo": 120.0
            },
            {
                "start_time": 6.286363636363636,
                "end_time": 6.502272727272727,
                "pitch": 43,
                "velocity": 64,
                "duration": 0.21590909090909083,
                "tempo": 120.0
            },
            {
                "start_time": 6.5204545454545455,
                "end_time": 6.620454545454545,
                "pitch": 44,
                "velocity": 64,
                "duration": 0.09999999999999964,
                "tempo": 120.0
            },
            {
                "start_time": 6.654545454545454,
                "end_time": 6.754545454545454,
                "pitch": 44,
                "velocity": 64,
                "duration": 0.09999999999999964,
                "tempo": 120.0
            },
            {
                "start_time": 6.7704545454545455,
                "end_time": 6.872727272727272,
                "pitch": 44,
                "velocity": 64,
                "duration": 0.10227272727272663,
                "tempo": 120.0
            },
            {
                "start_time": 6.888636363636364,
                "end_time": 7.111363636363636,
                "pitch": 43,
                "velocity": 64,
                "duration": 0.22272727272727266,
                "tempo": 120.0
            },
            {
                "start_time": 7.127272727272727,
                "end_time": 7.36590909090909,
                "pitch": 39,
                "velocity": 64,
                "duration": 0.2386363636363633,
                "tempo": 120.0
            },
            {
                "start_time": 7.384090909090909,
                "end_time": 7.486363636363636,
                "pitch": 49,
                "velocity": 64,
                "duration": 0.10227272727272751,
                "tempo": 120.0
            },
            {
                "start_time": 7.504545454545454,
                "end_time": 7.6068181818181815,
                "pitch": 49,
                "velocity": 64,
                "duration": 0.10227272727272751,
                "tempo": 120.0
            },
            {
                "start_time": 7.622727272727272,
                "end_time": 7.725,
                "pitch": 37,
                "velocity": 64,
                "duration": 0.10227272727272751,
                "tempo": 120.0
            },
            {
                "start_time": 7.743181818181818,
                "end_time": 7.845454545454545,
                "pitch": 49,
                "velocity": 64,
                "duration": 0.10227272727272663,
                "tempo": 120.0
            },
            {
                "start_time": 7.879545454545454,
                "end_time": 7.977272727272727,
                "pitch": 37,
                "velocity": 64,
                "duration": 0.09772727272727266,
                "tempo": 120.0
            },
            {
                "start_time": 7.993181818181818,
                "end_time": 8.093181818181817,
                "pitch": 37,
                "velocity": 64,
                "duration": 0.09999999999999876,
                "tempo": 120.0
            },
            {
                "start_time": 8.10909090909091,
                "end_time": 8.206818181818182,
                "pitch": 39,
                "velocity": 64,
                "duration": 0.09772727272727266,
                "tempo": 120.0
            },
            {
                "start_time": 8.222727272727273,
                "end_time": 8.322727272727272,
                "pitch": 51,
                "velocity": 64,
                "duration": 0.09999999999999964,
                "tempo": 120.0
            },
            {
                "start_time": 8.338636363636363,
                "end_time": 8.436363636363636,
                "pitch": 39,
                "velocity": 64,
                "duration": 0.09772727272727266,
                "tempo": 120.0
            },
            {
                "start_time": 8.470454545454546,
                "end_time": 8.568181818181818,
                "pitch": 39,
                "velocity": 64,
                "duration": 0.09772727272727266,
                "tempo": 120.0
            },
            {
                "start_time": 8.584090909090909,
                "end_time": 8.681818181818182,
                "pitch": 40,
                "velocity": 64,
                "duration": 0.09772727272727266,
                "tempo": 120.0
            },
            {
                "start_time": 8.7,
                "end_time": 8.797727272727272,
                "pitch": 52,
                "velocity": 64,
                "duration": 0.09772727272727266,
                "tempo": 120.0
            },
            {
                "start_time": 8.813636363636363,
                "end_time": 8.918181818181818,
                "pitch": 40,
                "velocity": 64,
                "duration": 0.10454545454545539,
                "tempo": 120.0
            },
            {
                "start_time": 8.934090909090909,
                "end_time": 9.038636363636364,
                "pitch": 40,
                "velocity": 64,
                "duration": 0.10454545454545539,
                "tempo": 120.0
            },
            {
                "start_time": 9.072727272727272,
                "end_time": 9.177272727272728,
                "pitch": 54,
                "velocity": 64,
                "duration": 0.10454545454545539,
                "tempo": 120.0
            },
            {
                "start_time": 9.195454545454545,
                "end_time": 9.299999999999999,
                "pitch": 54,
                "velocity": 64,
                "duration": 0.10454545454545361,
                "tempo": 120.0
            },
            {
                "start_time": 9.31590909090909,
                "end_time": 9.415909090909091,
                "pitch": 52,
                "velocity": 64,
                "duration": 0.10000000000000142,
                "tempo": 120.0
            },
            {
                "start_time": 9.431818181818182,
                "end_time": 9.529545454545454,
                "pitch": 52,
                "velocity": 64,
                "duration": 0.09772727272727266,
                "tempo": 120.0
            },
            {
                "start_time": 9.545454545454545,
                "end_time": 9.645454545454545,
                "pitch": 37,
                "velocity": 64,
                "duration": 0.09999999999999964,
                "tempo": 120.0
            },
            {
                "start_time": 9.677272727272726,
                "end_time": 9.775,
                "pitch": 49,
                "velocity": 64,
                "duration": 0.09772727272727444,
                "tempo": 120.0
            },
            {
                "start_time": 9.793181818181818,
                "end_time": 9.893181818181818,
                "pitch": 37,
                "velocity": 64,
                "duration": 0.09999999999999964,
                "tempo": 120.0
            },
            {
                "start_time": 9.909090909090908,
                "end_time": 10.011363636363637,
                "pitch": 37,
                "velocity": 64,
                "duration": 0.1022727272727284,
                "tempo": 120.0
            },
            {
                "start_time": 10.027272727272727,
                "end_time": 10.127272727272727,
                "pitch": 39,
                "velocity": 64,
                "duration": 0.09999999999999964,
                "tempo": 120.0
            },
            {
                "start_time": 10.145454545454545,
                "end_time": 10.245454545454544,
                "pitch": 51,
                "velocity": 64,
                "duration": 0.09999999999999964,
                "tempo": 120.0
            },
            {
                "start_time": 10.279545454545454,
                "end_time": 10.379545454545454,
                "pitch": 39,
                "velocity": 64,
                "duration": 0.09999999999999964,
                "tempo": 120.0
            },
            {
                "start_time": 10.397727272727272,
                "end_time": 10.497727272727273,
                "pitch": 39,
                "velocity": 64,
                "duration": 0.10000000000000142,
                "tempo": 120.0
            },
            {
                "start_time": 10.513636363636364,
                "end_time": 10.61590909090909,
                "pitch": 40,
                "velocity": 64,
                "duration": 0.10227272727272663,
                "tempo": 120.0
            },
            {
                "start_time": 10.631818181818181,
                "end_time": 10.73409090909091,
                "pitch": 52,
                "velocity": 64,
                "duration": 0.1022727272727284,
                "tempo": 120.0
            },
            {
                "start_time": 10.75,
                "end_time": 10.847727272727273,
                "pitch": 40,
                "velocity": 64,
                "duration": 0.09772727272727266,
                "tempo": 120.0
            },
            {
                "start_time": 10.881818181818181,
                "end_time": 10.979545454545454,
                "pitch": 40,
                "velocity": 64,
                "duration": 0.09772727272727266,
                "tempo": 120.0
            },
            {
                "start_time": 10.995454545454544,
                "end_time": 11.095454545454546,
                "pitch": 54,
                "velocity": 64,
                "duration": 0.10000000000000142,
                "tempo": 120.0
            },
            {
                "start_time": 11.111363636363636,
                "end_time": 11.209090909090909,
                "pitch": 54,
                "velocity": 64,
                "duration": 0.09772727272727266,
                "tempo": 120.0
            },
            {
                "start_time": 11.225,
                "end_time": 11.329545454545453,
                "pitch": 52,
                "velocity": 64,
                "duration": 0.10454545454545361,
                "tempo": 120.0
            },
            {
                "start_time": 11.345454545454546,
                "end_time": 11.45,
                "pitch": 52,
                "velocity": 64,
                "duration": 0.10454545454545361,
                "tempo": 120.0
            },
            {
                "start_time": 11.48409090909091,
                "end_time": 11.588636363636363,
                "pitch": 37,
                "velocity": 64,
                "duration": 0.10454545454545361,
                "tempo": 120.0
            },
            {
                "start_time": 11.60681818181818,
                "end_time": 11.711363636363636,
                "pitch": 49,
                "velocity": 64,
                "duration": 0.10454545454545539,
                "tempo": 120.0
            },
            {
                "start_time": 11.727272727272727,
                "end_time": 11.827272727272726,
                "pitch": 37,
                "velocity": 64,
                "duration": 0.09999999999999964,
                "tempo": 120.0
            },
            {
                "start_time": 11.843181818181817,
                "end_time": 11.94090909090909,
                "pitch": 37,
                "velocity": 64,
                "duration": 0.09772727272727266,
                "tempo": 120.0
            },
            {
                "start_time": 11.959090909090909,
                "end_time": 12.056818181818182,
                "pitch": 39,
                "velocity": 64,
                "duration": 0.09772727272727266,
                "tempo": 120.0
            },
            {
                "start_time": 12.088636363636363,
                "end_time": 12.188636363636363,
                "pitch": 51,
                "velocity": 64,
                "duration": 0.09999999999999964,
                "tempo": 120.0
            },
            {
                "start_time": 12.204545454545453,
                "end_time": 12.304545454545455,
                "pitch": 39,
                "velocity": 64,
                "duration": 0.10000000000000142,
                "tempo": 120.0
            },
            {
                "start_time": 12.320454545454545,
                "end_time": 12.422727272727272,
                "pitch": 39,
                "velocity": 64,
                "duration": 0.10227272727272663,
                "tempo": 120.0
            },
            {
                "start_time": 12.438636363636363,
                "end_time": 12.540909090909091,
                "pitch": 40,
                "velocity": 64,
                "duration": 0.1022727272727284,
                "tempo": 120.0
            },
            {
                "start_time": 12.556818181818182,
                "end_time": 12.656818181818181,
                "pitch": 52,
                "velocity": 64,
                "duration": 0.09999999999999964,
                "tempo": 120.0
            },
            {
                "start_time": 12.69090909090909,
                "end_time": 12.790909090909091,
                "pitch": 40,
                "velocity": 64,
                "duration": 0.10000000000000142,
                "tempo": 120.0
            },
            {
                "start_time": 12.806818181818182,
                "end_time": 12.906818181818181,
                "pitch": 40,
                "velocity": 64,
                "duration": 0.09999999999999964,
                "tempo": 120.0
            },
            {
                "start_time": 12.924999999999999,
                "end_time": 13.024999999999999,
                "pitch": 54,
                "velocity": 64,
                "duration": 0.09999999999999964,
                "tempo": 120.0
            },
            {
                "start_time": 13.040909090909091,
                "end_time": 13.14090909090909,
                "pitch": 54,
                "velocity": 64,
                "duration": 0.09999999999999964,
                "tempo": 120.0
            },
            {
                "start_time": 13.156818181818181,
                "end_time": 13.259090909090908,
                "pitch": 52,
                "velocity": 64,
                "duration": 0.10227272727272663,
                "tempo": 120.0
            },
            {
                "start_time": 13.293181818181818,
                "end_time": 13.393181818181818,
                "pitch": 52,
                "velocity": 64,
                "duration": 0.09999999999999964,
                "tempo": 120.0
            },
            {
                "start_time": 13.409090909090908,
                "end_time": 13.511363636363635,
                "pitch": 44,
                "velocity": 64,
                "duration": 0.10227272727272663,
                "tempo": 120.0
            },
            {
                "start_time": 13.527272727272727,
                "end_time": 13.627272727272727,
                "pitch": 51,
                "velocity": 64,
                "duration": 0.09999999999999964,
                "tempo": 120.0
            },
            {
                "start_time": 13.645454545454545,
                "end_time": 13.743181818181817,
                "pitch": 51,
                "velocity": 64,
                "duration": 0.09772727272727266,
                "tempo": 120.0
            },
            {
                "start_time": 13.759090909090908,
                "end_time": 13.859090909090908,
                "pitch": 37,
                "velocity": 64,
                "duration": 0.09999999999999964,
                "tempo": 120.0
            },
            {
                "start_time": 13.89090909090909,
                "end_time": 13.988636363636363,
                "pitch": 37,
                "velocity": 64,
                "duration": 0.09772727272727266,
                "tempo": 120.0
            },
            {
                "start_time": 14.006818181818181,
                "end_time": 14.104545454545454,
                "pitch": 49,
                "velocity": 64,
                "duration": 0.09772727272727266,
                "tempo": 120.0
            },
            {
                "start_time": 14.120454545454544,
                "end_time": 14.222727272727273,
                "pitch": 47,
                "velocity": 64,
                "duration": 0.1022727272727284,
                "tempo": 120.0
            },
            {
                "start_time": 14.24090909090909,
                "end_time": 14.343181818181817,
                "pitch": 46,
                "velocity": 64,
                "duration": 0.10227272727272663,
                "tempo": 120.0
            },
            {
                "start_time": 14.359090909090908,
                "end_time": 14.461363636363636,
                "pitch": 46,
                "velocity": 64,
                "duration": 0.1022727272727284,
                "tempo": 120.0
            },
            {
                "start_time": 14.495454545454544,
                "end_time": 14.597727272727273,
                "pitch": 46,
                "velocity": 64,
                "duration": 0.1022727272727284,
                "tempo": 120.0
            },
            {
                "start_time": 14.61590909090909,
                "end_time": 14.71590909090909,
                "pitch": 51,
                "velocity": 64,
                "duration": 0.09999999999999964,
                "tempo": 120.0
            },
            {
                "start_time": 14.73181818181818,
                "end_time": 14.83181818181818,
                "pitch": 46,
                "velocity": 64,
                "duration": 0.09999999999999964,
                "tempo": 120.0
            },
            {
                "start_time": 14.847727272727273,
                "end_time": 14.947727272727272,
                "pitch": 42,
                "velocity": 64,
                "duration": 0.09999999999999964,
                "tempo": 120.0
            },
            {
                "start_time": 14.96590909090909,
                "end_time": 15.06590909090909,
                "pitch": 42,
                "velocity": 64,
                "duration": 0.09999999999999964,
                "tempo": 120.0
            },
            {
                "start_time": 15.097727272727273,
                "end_time": 15.2,
                "pitch": 44,
                "velocity": 64,
                "duration": 0.10227272727272663,
                "tempo": 120.0
            },
            {
                "start_time": 15.218181818181817,
                "end_time": 15.320454545454545,
                "pitch": 44,
                "velocity": 64,
                "duration": 0.1022727272727284,
                "tempo": 120.0
            },
            {
                "start_time": 15.338636363636363,
                "end_time": 15.44090909090909,
                "pitch": 37,
                "velocity": 64,
                "duration": 0.10227272727272663,
                "tempo": 120.0
            },
            {
                "start_time": 15.45681818181818,
                "end_time": 15.559090909090909,
                "pitch": 49,
                "velocity": 64,
                "duration": 0.1022727272727284,
                "tempo": 120.0
            },
            {
                "start_time": 15.577272727272726,
                "end_time": 15.672727272727272,
                "pitch": 37,
                "velocity": 64,
                "duration": 0.09545454545454568,
                "tempo": 120.0
            },
            {
                "start_time": 15.704545454545453,
                "end_time": 15.802272727272726,
                "pitch": 37,
                "velocity": 64,
                "duration": 0.09772727272727266,
                "tempo": 120.0
            },
            {
                "start_time": 15.818181818181817,
                "end_time": 15.913636363636362,
                "pitch": 39,
                "velocity": 64,
                "duration": 0.09545454545454568,
                "tempo": 120.0
            },
            {
                "start_time": 15.929545454545453,
                "end_time": 16.025,
                "pitch": 51,
                "velocity": 64,
                "duration": 0.09545454545454568,
                "tempo": 120.0
            },
            {
                "start_time": 16.04090909090909,
                "end_time": 16.143181818181816,
                "pitch": 39,
                "velocity": 64,
                "duration": 0.10227272727272663,
                "tempo": 120.0
            },
            {
                "start_time": 16.161363636363635,
                "end_time": 16.263636363636362,
                "pitch": 39,
                "velocity": 64,
                "duration": 0.10227272727272663,
                "tempo": 120.0
            },
            {
                "start_time": 16.297727272727272,
                "end_time": 16.4,
                "pitch": 40,
                "velocity": 64,
                "duration": 0.10227272727272663,
                "tempo": 120.0
            },
            {
                "start_time": 16.41590909090909,
                "end_time": 16.518181818181816,
                "pitch": 52,
                "velocity": 64,
                "duration": 0.10227272727272663,
                "tempo": 120.0
            },
            {
                "start_time": 16.536363636363635,
                "end_time": 16.636363636363637,
                "pitch": 40,
                "velocity": 64,
                "duration": 0.10000000000000142,
                "tempo": 120.0
            },
            {
                "start_time": 16.654545454545453,
                "end_time": 16.754545454545454,
                "pitch": 40,
                "velocity": 64,
                "duration": 0.10000000000000142,
                "tempo": 120.0
            },
            {
                "start_time": 16.770454545454545,
                "end_time": 16.87272727272727,
                "pitch": 54,
                "velocity": 64,
                "duration": 0.10227272727272663,
                "tempo": 120.0
            },
            {
                "start_time": 16.90681818181818,
                "end_time": 17.006818181818183,
                "pitch": 54,
                "velocity": 64,
                "duration": 0.10000000000000142,
                "tempo": 120.0
            },
            {
                "start_time": 17.022727272727273,
                "end_time": 17.125,
                "pitch": 52,
                "velocity": 64,
                "duration": 0.10227272727272663,
                "tempo": 120.0
            },
            {
                "start_time": 17.143181818181816,
                "end_time": 17.245454545454546,
                "pitch": 52,
                "velocity": 64,
                "duration": 0.10227272727273018,
                "tempo": 120.0
            },
            {
                "start_time": 17.261363636363637,
                "end_time": 17.363636363636363,
                "pitch": 37,
                "velocity": 64,
                "duration": 0.10227272727272663,
                "tempo": 120.0
            },
            {
                "start_time": 17.381818181818183,
                "end_time": 17.48409090909091,
                "pitch": 49,
                "velocity": 64,
                "duration": 0.10227272727272663,
                "tempo": 120.0
            },
            {
                "start_time": 17.518181818181816,
                "end_time": 17.61590909090909,
                "pitch": 37,
                "velocity": 64,
                "duration": 0.09772727272727266,
                "tempo": 120.0
            },
            {
                "start_time": 17.634090909090908,
                "end_time": 17.73181818181818,
                "pitch": 37,
                "velocity": 64,
                "duration": 0.09772727272727266,
                "tempo": 120.0
            },
            {
                "start_time": 17.74772727272727,
                "end_time": 17.845454545454544,
                "pitch": 39,
                "velocity": 64,
                "duration": 0.09772727272727266,
                "tempo": 120.0
            },
            {
                "start_time": 17.863636363636363,
                "end_time": 17.961363636363636,
                "pitch": 51,
                "velocity": 64,
                "duration": 0.09772727272727266,
                "tempo": 120.0
            },
            {
                "start_time": 17.977272727272727,
                "end_time": 18.075,
                "pitch": 39,
                "velocity": 64,
                "duration": 0.09772727272727266,
                "tempo": 120.0
            },
            {
                "start_time": 18.10909090909091,
                "end_time": 18.206818181818182,
                "pitch": 39,
                "velocity": 64,
                "duration": 0.09772727272727266,
                "tempo": 120.0
            },
            {
                "start_time": 18.222727272727273,
                "end_time": 18.32272727272727,
                "pitch": 40,
                "velocity": 64,
                "duration": 0.09999999999999787,
                "tempo": 120.0
            },
            {
                "start_time": 18.33863636363636,
                "end_time": 18.436363636363634,
                "pitch": 52,
                "velocity": 64,
                "duration": 0.09772727272727266,
                "tempo": 120.0
            },
            {
                "start_time": 18.452272727272728,
                "end_time": 18.55681818181818,
                "pitch": 40,
                "velocity": 64,
                "duration": 0.10454545454545183,
                "tempo": 120.0
            },
            {
                "start_time": 18.57272727272727,
                "end_time": 18.677272727272726,
                "pitch": 40,
                "velocity": 64,
                "duration": 0.10454545454545539,
                "tempo": 120.0
            },
            {
                "start_time": 18.71363636363636,
                "end_time": 18.81590909090909,
                "pitch": 54,
                "velocity": 64,
                "duration": 0.10227272727273018,
                "tempo": 120.0
            },
            {
                "start_time": 18.834090909090907,
                "end_time": 18.938636363636363,
                "pitch": 54,
                "velocity": 64,
                "duration": 0.10454545454545539,
                "tempo": 120.0
            },
            {
                "start_time": 18.954545454545453,
                "end_time": 19.054545454545455,
                "pitch": 52,
                "velocity": 64,
                "duration": 0.10000000000000142,
                "tempo": 120.0
            },
            {
                "start_time": 19.070454545454545,
                "end_time": 19.168181818181818,
                "pitch": 52,
                "velocity": 64,
                "duration": 0.09772727272727266,
                "tempo": 120.0
            },
            {
                "start_time": 19.186363636363634,
                "end_time": 19.284090909090907,
                "pitch": 37,
                "velocity": 64,
                "duration": 0.09772727272727266,
                "tempo": 120.0
            },
            {
                "start_time": 19.31590909090909,
                "end_time": 19.41590909090909,
                "pitch": 49,
                "velocity": 64,
                "duration": 0.09999999999999787,
                "tempo": 120.0
            },
            {
                "start_time": 19.43181818181818,
                "end_time": 19.53181818181818,
                "pitch": 37,
                "velocity": 64,
                "duration": 0.10000000000000142,
                "tempo": 120.0
            },
            {
                "start_time": 19.55,
                "end_time": 19.65,
                "pitch": 37,
                "velocity": 64,
                "duration": 0.09999999999999787,
                "tempo": 120.0
            },
            {
                "start_time": 19.66590909090909,
                "end_time": 19.768181818181816,
                "pitch": 39,
                "velocity": 64,
                "duration": 0.10227272727272663,
                "tempo": 120.0
            },
            {
                "start_time": 19.784090909090907,
                "end_time": 19.884090909090908,
                "pitch": 51,
                "velocity": 64,
                "duration": 0.10000000000000142,
                "tempo": 120.0
            },
            {
                "start_time": 19.918181818181818,
                "end_time": 20.018181818181816,
                "pitch": 39,
                "velocity": 64,
                "duration": 0.09999999999999787,
                "tempo": 120.0
            },
            {
                "start_time": 20.036363636363635,
                "end_time": 20.136363636363637,
                "pitch": 39,
                "velocity": 64,
                "duration": 0.10000000000000142,
                "tempo": 120.0
            },
            {
                "start_time": 20.152272727272727,
                "end_time": 20.252272727272725,
                "pitch": 40,
                "velocity": 64,
                "duration": 0.09999999999999787,
                "tempo": 120.0
            },
            {
                "start_time": 20.268181818181816,
                "end_time": 20.368181818181817,
                "pitch": 52,
                "velocity": 64,
                "duration": 0.10000000000000142,
                "tempo": 120.0
            },
            {
                "start_time": 20.386363636363637,
                "end_time": 20.48409090909091,
                "pitch": 40,
                "velocity": 64,
                "duration": 0.09772727272727266,
                "tempo": 120.0
            },
            {
                "start_time": 20.51590909090909,
                "end_time": 20.61590909090909,
                "pitch": 40,
                "velocity": 64,
                "duration": 0.09999999999999787,
                "tempo": 120.0
            },
            {
                "start_time": 20.63181818181818,
                "end_time": 20.729545454545452,
                "pitch": 54,
                "velocity": 64,
                "duration": 0.09772727272727266,
                "tempo": 120.0
            },
            {
                "start_time": 20.745454545454546,
                "end_time": 20.845454545454544,
                "pitch": 54,
                "velocity": 64,
                "duration": 0.09999999999999787,
                "tempo": 120.0
            },
            {
                "start_time": 20.861363636363635,
                "end_time": 20.96363636363636,
                "pitch": 52,
                "velocity": 64,
                "duration": 0.10227272727272663,
                "tempo": 120.0
            },
            {
                "start_time": 20.98181818181818,
                "end_time": 21.086363636363636,
                "pitch": 52,
                "velocity": 64,
                "duration": 0.10454545454545539,
                "tempo": 120.0
            },
            {
                "start_time": 21.120454545454546,
                "end_time": 21.224999999999998,
                "pitch": 37,
                "velocity": 64,
                "duration": 0.10454545454545183,
                "tempo": 120.0
            },
            {
                "start_time": 21.24090909090909,
                "end_time": 21.345454545454544,
                "pitch": 49,
                "velocity": 64,
                "duration": 0.10454545454545539,
                "tempo": 120.0
            },
            {
                "start_time": 21.363636363636363,
                "end_time": 21.461363636363636,
                "pitch": 39,
                "velocity": 64,
                "duration": 0.09772727272727266,
                "tempo": 120.0
            },
            {
                "start_time": 21.479545454545452,
                "end_time": 21.577272727272724,
                "pitch": 51,
                "velocity": 64,
                "duration": 0.09772727272727266,
                "tempo": 120.0
            },
            {
                "start_time": 21.59318181818182,
                "end_time": 21.69090909090909,
                "pitch": 40,
                "velocity": 64,
                "duration": 0.09772727272727266,
                "tempo": 120.0
            },
            {
                "start_time": 21.724999999999998,
                "end_time": 21.82272727272727,
                "pitch": 52,
                "velocity": 64,
                "duration": 0.09772727272727266,
                "tempo": 120.0
            },
            {
                "start_time": 21.83863636363636,
                "end_time": 21.94090909090909,
                "pitch": 42,
                "velocity": 64,
                "duration": 0.10227272727273018,
                "tempo": 120.0
            },
            {
                "start_time": 21.959090909090907,
                "end_time": 22.061363636363634,
                "pitch": 54,
                "velocity": 64,
                "duration": 0.10227272727272663,
                "tempo": 120.0
            },
            {
                "start_time": 22.077272727272724,
                "end_time": 22.179545454545455,
                "pitch": 49,
                "velocity": 64,
                "duration": 0.10227272727273018,
                "tempo": 120.0
            },
            {
                "start_time": 22.19772727272727,
                "end_time": 22.299999999999997,
                "pitch": 37,
                "velocity": 64,
                "duration": 0.10227272727272663,
                "tempo": 120.0
            },
            {
                "start_time": 22.334090909090907,
                "end_time": 22.43181818181818,
                "pitch": 37,
                "velocity": 64,
                "duration": 0.09772727272727266,
                "tempo": 120.0
            },
            {
                "start_time": 22.45,
                "end_time": 22.547727272727272,
                "pitch": 49,
                "velocity": 64,
                "duration": 0.09772727272727266,
                "tempo": 120.0
            },
            {
                "start_time": 22.563636363636363,
                "end_time": 22.661363636363635,
                "pitch": 37,
                "velocity": 64,
                "duration": 0.09772727272727266,
                "tempo": 120.0
            },
            {
                "start_time": 22.679545454545455,
                "end_time": 22.777272727272727,
                "pitch": 37,
                "velocity": 64,
                "duration": 0.09772727272727266,
                "tempo": 120.0
            },
            {
                "start_time": 22.793181818181818,
                "end_time": 22.893181818181816,
                "pitch": 49,
                "velocity": 64,
                "duration": 0.09999999999999787,
                "tempo": 120.0
            },
            {
                "start_time": 22.927272727272726,
                "end_time": 23.027272727272727,
                "pitch": 37,
                "velocity": 64,
                "duration": 0.10000000000000142,
                "tempo": 120.0
            },
            {
                "start_time": 23.045454545454543,
                "end_time": 23.145454545454545,
                "pitch": 39,
                "velocity": 64,
                "duration": 0.10000000000000142,
                "tempo": 120.0
            },
            {
                "start_time": 23.163636363636364,
                "end_time": 23.195454545454545,
                "pitch": 39,
                "velocity": 64,
                "duration": 0.0318181818181813,
                "tempo": 120.0
            },
            {
                "start_time": 23.229545454545452,
                "end_time": 23.263636363636362,
                "pitch": 39,
                "velocity": 64,
                "duration": 0.03409090909091006,
                "tempo": 120.0
            },
            {
                "start_time": 23.279545454545453,
                "end_time": 23.329545454545453,
                "pitch": 39,
                "velocity": 64,
                "duration": 0.05000000000000071,
                "tempo": 120.0
            },
            {
                "start_time": 23.347727272727273,
                "end_time": 23.49772727272727,
                "pitch": 49,
                "velocity": 64,
                "duration": 0.14999999999999858,
                "tempo": 120.0
            },
            {
                "start_time": 23.53181818181818,
                "end_time": 23.75,
                "pitch": 47,
                "velocity": 64,
                "duration": 0.2181818181818187,
                "tempo": 120.0
            },
            {
                "start_time": 23.768181818181816,
                "end_time": 23.868181818181817,
                "pitch": 44,
                "velocity": 64,
                "duration": 0.10000000000000142,
                "tempo": 120.0
            },
            {
                "start_time": 23.884090909090908,
                "end_time": 23.98409090909091,
                "pitch": 47,
                "velocity": 64,
                "duration": 0.10000000000000142,
                "tempo": 120.0
            },
            {
                "start_time": 24.0,
                "end_time": 24.099999999999998,
                "pitch": 39,
                "velocity": 64,
                "duration": 0.09999999999999787,
                "tempo": 120.0
            },
            {
                "start_time": 24.134090909090908,
                "end_time": 24.168181818181818,
                "pitch": 39,
                "velocity": 64,
                "duration": 0.03409090909091006,
                "tempo": 120.0
            },
            {
                "start_time": 24.18409090909091,
                "end_time": 24.23409090909091,
                "pitch": 39,
                "velocity": 64,
                "duration": 0.05000000000000071,
                "tempo": 120.0
            },
            {
                "start_time": 24.25,
                "end_time": 24.284090909090907,
                "pitch": 39,
                "velocity": 64,
                "duration": 0.03409090909090651,
                "tempo": 120.0
            },
            {
                "start_time": 24.299999999999997,
                "end_time": 24.46818181818182,
                "pitch": 49,
                "velocity": 64,
                "duration": 0.16818181818182154,
                "tempo": 120.0
            },
            {
                "start_time": 24.486363636363635,
                "end_time": 24.704545454545453,
                "pitch": 47,
                "velocity": 64,
                "duration": 0.2181818181818187,
                "tempo": 120.0
            },
            {
                "start_time": 24.738636363636363,
                "end_time": 24.83863636363636,
                "pitch": 44,
                "velocity": 64,
                "duration": 0.09999999999999787,
                "tempo": 120.0
            },
            {
                "start_time": 24.854545454545452,
                "end_time": 24.956818181818182,
                "pitch": 47,
                "velocity": 64,
                "duration": 0.10227272727273018,
                "tempo": 120.0
            },
            {
                "start_time": 24.972727272727273,
                "end_time": 25.075,
                "pitch": 42,
                "velocity": 64,
                "duration": 0.10227272727272663,
                "tempo": 120.0
            },
            {
                "start_time": 25.09090909090909,
                "end_time": 25.14090909090909,
                "pitch": 42,
                "velocity": 64,
                "duration": 0.05000000000000071,
                "tempo": 120.0
            },
            {
                "start_time": 25.15681818181818,
                "end_time": 25.19090909090909,
                "pitch": 42,
                "velocity": 64,
                "duration": 0.03409090909091006,
                "tempo": 120.0
            },
            {
                "start_time": 25.209090909090907,
                "end_time": 25.25681818181818,
                "pitch": 42,
                "velocity": 64,
                "duration": 0.04772727272727195,
                "tempo": 120.0
            },
            {
                "start_time": 25.275,
                "end_time": 25.438636363636363,
                "pitch": 51,
                "velocity": 64,
                "duration": 0.16363636363636402,
                "tempo": 120.0
            },
            {
                "start_time": 25.454545454545453,
                "end_time": 25.668181818181818,
                "pitch": 49,
                "velocity": 64,
                "duration": 0.21363636363636473,
                "tempo": 120.0
            },
            {
                "start_time": 25.68409090909091,
                "end_time": 25.784090909090907,
                "pitch": 46,
                "velocity": 64,
                "duration": 0.09999999999999787,
                "tempo": 120.0
            },
            {
                "start_time": 25.799999999999997,
                "end_time": 25.9,
                "pitch": 49,
                "velocity": 64,
                "duration": 0.10000000000000142,
                "tempo": 120.0
            },
            {
                "start_time": 25.93409090909091,
                "end_time": 26.034090909090907,
                "pitch": 42,
                "velocity": 64,
                "duration": 0.09999999999999787,
                "tempo": 120.0
            },
            {
                "start_time": 26.049999999999997,
                "end_time": 26.084090909090907,
                "pitch": 42,
                "velocity": 64,
                "duration": 0.03409090909091006,
                "tempo": 120.0
            },
            {
                "start_time": 26.099999999999998,
                "end_time": 26.15,
                "pitch": 42,
                "velocity": 64,
                "duration": 0.05000000000000071,
                "tempo": 120.0
            },
            {
                "start_time": 26.168181818181818,
                "end_time": 26.202272727272724,
                "pitch": 42,
                "velocity": 64,
                "duration": 0.03409090909090651,
                "tempo": 120.0
            },
            {
                "start_time": 26.236363636363635,
                "end_time": 26.388636363636362,
                "pitch": 51,
                "velocity": 64,
                "duration": 0.15227272727272734,
                "tempo": 120.0
            },
            {
                "start_time": 26.40681818181818,
                "end_time": 26.645454545454545,
                "pitch": 49,
                "velocity": 64,
                "duration": 0.2386363636363633,
                "tempo": 120.0
            },
            {
                "start_time": 26.661363636363635,
                "end_time": 26.76590909090909,
                "pitch": 46,
                "velocity": 64,
                "duration": 0.10454545454545539,
                "tempo": 120.0
            },
            {
                "start_time": 26.78181818181818,
                "end_time": 26.884090909090908,
                "pitch": 49,
                "velocity": 64,
                "duration": 0.10227272727272663,
                "tempo": 120.0
            },
            {
                "start_time": 26.902272727272727,
                "end_time": 27.004545454545454,
                "pitch": 39,
                "velocity": 64,
                "duration": 0.10227272727272663,
                "tempo": 120.0
            },
            {
                "start_time": 27.020454545454545,
                "end_time": 27.07272727272727,
                "pitch": 39,
                "velocity": 64,
                "duration": 0.052272727272725916,
                "tempo": 120.0
            },
            {
                "start_time": 27.08863636363636,
                "end_time": 27.12272727272727,
                "pitch": 39,
                "velocity": 64,
                "duration": 0.03409090909091006,
                "tempo": 120.0
            },
            {
                "start_time": 27.15681818181818,
                "end_time": 27.19090909090909,
                "pitch": 39,
                "velocity": 64,
                "duration": 0.03409090909091006,
                "tempo": 120.0
            },
            {
                "start_time": 27.206818181818182,
                "end_time": 27.370454545454542,
                "pitch": 49,
                "velocity": 64,
                "duration": 0.16363636363636047,
                "tempo": 120.0
            },
            {
                "start_time": 27.386363636363637,
                "end_time": 27.599999999999998,
                "pitch": 47,
                "velocity": 64,
                "duration": 0.21363636363636118,
                "tempo": 120.0
            },
            {
                "start_time": 27.61590909090909,
                "end_time": 27.71590909090909,
                "pitch": 44,
                "velocity": 64,
                "duration": 0.10000000000000142,
                "tempo": 120.0
            },
            {
                "start_time": 27.74772727272727,
                "end_time": 27.845454545454544,
                "pitch": 47,
                "velocity": 64,
                "duration": 0.09772727272727266,
                "tempo": 120.0
            },
            {
                "start_time": 27.863636363636363,
                "end_time": 27.961363636363636,
                "pitch": 39,
                "velocity": 64,
                "duration": 0.09772727272727266,
                "tempo": 120.0
            },
            {
                "start_time": 27.977272727272727,
                "end_time": 28.011363636363637,
                "pitch": 39,
                "velocity": 64,
                "duration": 0.03409090909091006,
                "tempo": 120.0
            },
            {
                "start_time": 28.043181818181818,
                "end_time": 28.075,
                "pitch": 39,
                "velocity": 64,
                "duration": 0.0318181818181813,
                "tempo": 120.0
            },
            {
                "start_time": 28.093181818181815,
                "end_time": 28.143181818181816,
                "pitch": 39,
                "velocity": 64,
                "duration": 0.05000000000000071,
                "tempo": 120.0
            },
            {
                "start_time": 28.159090909090907,
                "end_time": 28.311363636363634,
                "pitch": 49,
                "velocity": 64,
                "duration": 0.15227272727272734,
                "tempo": 120.0
            },
            {
                "start_time": 28.345454545454544,
                "end_time": 28.563636363636363,
                "pitch": 47,
                "velocity": 64,
                "duration": 0.2181818181818187,
                "tempo": 120.0
            },
            {
                "start_time": 28.579545454545453,
                "end_time": 28.68181818181818,
                "pitch": 44,
                "velocity": 64,
                "duration": 0.10227272727272663,
                "tempo": 120.0
            },
            {
                "start_time": 28.7,
                "end_time": 28.802272727272726,
                "pitch": 47,
                "velocity": 64,
                "duration": 0.10227272727272663,
                "tempo": 120.0
            },
            {
                "start_time": 28.818181818181817,
                "end_time": 28.920454545454543,
                "pitch": 42,
                "velocity": 64,
                "duration": 0.10227272727272663,
                "tempo": 120.0
            },
            {
                "start_time": 28.954545454545453,
                "end_time": 28.988636363636363,
                "pitch": 42,
                "velocity": 64,
                "duration": 0.03409090909091006,
                "tempo": 120.0
            },
            {
                "start_time": 29.00681818181818,
                "end_time": 29.05681818181818,
                "pitch": 42,
                "velocity": 64,
                "duration": 0.05000000000000071,
                "tempo": 120.0
            },
            {
                "start_time": 29.075,
                "end_time": 29.10909090909091,
                "pitch": 42,
                "velocity": 64,
                "duration": 0.03409090909091006,
                "tempo": 120.0
            },
            {
                "start_time": 29.125,
                "end_time": 29.293181818181818,
                "pitch": 51,
                "velocity": 64,
                "duration": 0.168181818181818,
                "tempo": 120.0
            },
            {
                "start_time": 29.30909090909091,
                "end_time": 29.527272727272727,
                "pitch": 49,
                "velocity": 64,
                "duration": 0.2181818181818187,
                "tempo": 120.0
            },
            {
                "start_time": 29.561363636363634,
                "end_time": 29.66363636363636,
                "pitch": 46,
                "velocity": 64,
                "duration": 0.10227272727272663,
                "tempo": 120.0
            },
            {
                "start_time": 29.679545454545455,
                "end_time": 29.779545454545453,
                "pitch": 49,
                "velocity": 64,
                "duration": 0.09999999999999787,
                "tempo": 120.0
            },
            {
                "start_time": 29.797727272727272,
                "end_time": 29.89772727272727,
                "pitch": 42,
                "velocity": 64,
                "duration": 0.09999999999999787,
                "tempo": 120.0
            },
            {
                "start_time": 29.91363636363636,
                "end_time": 29.96590909090909,
                "pitch": 42,
                "velocity": 64,
                "duration": 0.05227272727272947,
                "tempo": 120.0
            },
            {
                "start_time": 29.98181818181818,
                "end_time": 30.01590909090909,
                "pitch": 42,
                "velocity": 64,
                "duration": 0.03409090909091006,
                "tempo": 120.0
            },
            {
                "start_time": 30.03181818181818,
                "end_time": 30.081818181818182,
                "pitch": 42,
                "velocity": 64,
                "duration": 0.05000000000000071,
                "tempo": 120.0
            },
            {
                "start_time": 30.099999999999998,
                "end_time": 30.268181818181816,
                "pitch": 51,
                "velocity": 64,
                "duration": 0.168181818181818,
                "tempo": 120.0
            },
            {
                "start_time": 30.284090909090907,
                "end_time": 30.502272727272725,
                "pitch": 49,
                "velocity": 64,
                "duration": 0.2181818181818187,
                "tempo": 120.0
            },
            {
                "start_time": 30.520454545454545,
                "end_time": 30.62272727272727,
                "pitch": 46,
                "velocity": 64,
                "duration": 0.10227272727272663,
                "tempo": 120.0
            },
            {
                "start_time": 30.638636363636362,
                "end_time": 30.74090909090909,
                "pitch": 49,
                "velocity": 64,
                "duration": 0.10227272727272663,
                "tempo": 120.0
            },
            {
                "start_time": 30.775,
                "end_time": 30.877272727272725,
                "pitch": 39,
                "velocity": 64,
                "duration": 0.10227272727272663,
                "tempo": 120.0
            },
            {
                "start_time": 30.895454545454545,
                "end_time": 30.929545454545455,
                "pitch": 39,
                "velocity": 64,
                "duration": 0.03409090909091006,
                "tempo": 120.0
            },
            {
                "start_time": 30.945454545454545,
                "end_time": 30.99772727272727,
                "pitch": 39,
                "velocity": 64,
                "duration": 0.052272727272725916,
                "tempo": 120.0
            },
            {
                "start_time": 31.013636363636362,
                "end_time": 31.047727272727272,
                "pitch": 39,
                "velocity": 64,
                "duration": 0.03409090909091006,
                "tempo": 120.0
            },
            {
                "start_time": 31.079545454545453,
                "end_time": 31.227272727272727,
                "pitch": 49,
                "velocity": 64,
                "duration": 0.14772727272727337,
                "tempo": 120.0
            },
            {
                "start_time": 31.243181818181817,
                "end_time": 31.474999999999998,
                "pitch": 47,
                "velocity": 64,
                "duration": 0.2318181818181806,
                "tempo": 120.0
            },
            {
                "start_time": 31.49090909090909,
                "end_time": 31.59090909090909,
                "pitch": 44,
                "velocity": 64,
                "duration": 0.10000000000000142,
                "tempo": 120.0
            },
            {
                "start_time": 31.60681818181818,
                "end_time": 31.709090909090907,
                "pitch": 47,
                "velocity": 64,
                "duration": 0.10227272727272663,
                "tempo": 120.0
            },
            {
                "start_time": 31.724999999999998,
                "end_time": 31.827272727272724,
                "pitch": 39,
                "velocity": 64,
                "duration": 0.10227272727272663,
                "tempo": 120.0
            },
            {
                "start_time": 31.843181818181815,
                "end_time": 31.893181818181816,
                "pitch": 39,
                "velocity": 64,
                "duration": 0.05000000000000071,
                "tempo": 120.0
            },
            {
                "start_time": 31.909090909090907,
                "end_time": 31.943181818181817,
                "pitch": 39,
                "velocity": 64,
                "duration": 0.03409090909091006,
                "tempo": 120.0
            },
            {
                "start_time": 31.977272727272727,
                "end_time": 32.01136363636363,
                "pitch": 39,
                "velocity": 64,
                "duration": 0.03409090909090651,
                "tempo": 120.0
            },
            {
                "start_time": 32.027272727272724,
                "end_time": 32.19318181818182,
                "pitch": 49,
                "velocity": 64,
                "duration": 0.16590909090909634,
                "tempo": 120.0
            },
            {
                "start_time": 32.211363636363636,
                "end_time": 32.42727272727272,
                "pitch": 47,
                "velocity": 64,
                "duration": 0.2159090909090864,
                "tempo": 120.0
            },
            {
                "start_time": 32.44318181818182,
                "end_time": 32.543181818181814,
                "pitch": 44,
                "velocity": 64,
                "duration": 0.09999999999999432,
                "tempo": 120.0
            },
            {
                "start_time": 32.574999999999996,
                "end_time": 32.67272727272727,
                "pitch": 47,
                "velocity": 64,
                "duration": 0.09772727272727622,
                "tempo": 120.0
            },
            {
                "start_time": 32.69090909090909,
                "end_time": 32.788636363636364,
                "pitch": 42,
                "velocity": 64,
                "duration": 0.09772727272727622,
                "tempo": 120.0
            },
            {
                "start_time": 32.804545454545455,
                "end_time": 32.83863636363636,
                "pitch": 42,
                "velocity": 64,
                "duration": 0.03409090909090651,
                "tempo": 120.0
            },
            {
                "start_time": 32.87045454545454,
                "end_time": 32.902272727272724,
                "pitch": 42,
                "velocity": 64,
                "duration": 0.0318181818181813,
                "tempo": 120.0
            },
            {
                "start_time": 32.92045454545455,
                "end_time": 32.970454545454544,
                "pitch": 42,
                "velocity": 64,
                "duration": 0.04999999999999716,
                "tempo": 120.0
            },
            {
                "start_time": 32.986363636363635,
                "end_time": 33.138636363636365,
                "pitch": 51,
                "velocity": 64,
                "duration": 0.1522727272727309,
                "tempo": 120.0
            },
            {
                "start_time": 33.17272727272727,
                "end_time": 33.39090909090909,
                "pitch": 49,
                "velocity": 64,
                "duration": 0.2181818181818187,
                "tempo": 120.0
            },
            {
                "start_time": 33.40681818181818,
                "end_time": 33.50909090909091,
                "pitch": 46,
                "velocity": 64,
                "duration": 0.10227272727272663,
                "tempo": 120.0
            },
            {
                "start_time": 33.527272727272724,
                "end_time": 33.62954545454545,
                "pitch": 49,
                "velocity": 64,
                "duration": 0.10227272727272663,
                "tempo": 120.0
            },
            {
                "start_time": 33.64545454545454,
                "end_time": 33.74772727272727,
                "pitch": 42,
                "velocity": 64,
                "duration": 0.10227272727272663,
                "tempo": 120.0
            },
            {
                "start_time": 33.78181818181818,
                "end_time": 33.81590909090909,
                "pitch": 42,
                "velocity": 64,
                "duration": 0.03409090909090651,
                "tempo": 120.0
            },
            {
                "start_time": 33.83409090909091,
                "end_time": 33.88409090909091,
                "pitch": 42,
                "velocity": 64,
                "duration": 0.04999999999999716,
                "tempo": 120.0
            },
            {
                "start_time": 33.902272727272724,
                "end_time": 33.93636363636364,
                "pitch": 42,
                "velocity": 64,
                "duration": 0.03409090909091361,
                "tempo": 120.0
            },
            {
                "start_time": 33.95227272727273,
                "end_time": 34.11818181818182,
                "pitch": 51,
                "velocity": 64,
                "duration": 0.16590909090908923,
                "tempo": 120.0
            },
            {
                "start_time": 34.13636363636363,
                "end_time": 34.35227272727273,
                "pitch": 49,
                "velocity": 64,
                "duration": 0.2159090909090935,
                "tempo": 120.0
            },
            {
                "start_time": 34.38636363636363,
                "end_time": 34.486363636363635,
                "pitch": 46,
                "velocity": 64,
                "duration": 0.10000000000000142,
                "tempo": 120.0
            },
            {
                "start_time": 34.502272727272725,
                "end_time": 34.60227272727273,
                "pitch": 49,
                "velocity": 64,
                "duration": 0.10000000000000142,
                "tempo": 120.0
            },
            {
                "start_time": 34.61818181818182,
                "end_time": 34.71818181818182,
                "pitch": 39,
                "velocity": 64,
                "duration": 0.10000000000000142,
                "tempo": 120.0
            },
            {
                "start_time": 34.736363636363635,
                "end_time": 34.78636363636363,
                "pitch": 39,
                "velocity": 64,
                "duration": 0.04999999999999716,
                "tempo": 120.0
            },
            {
                "start_time": 34.80227272727272,
                "end_time": 34.836363636363636,
                "pitch": 39,
                "velocity": 64,
                "duration": 0.03409090909091361,
                "tempo": 120.0
            },
            {
                "start_time": 34.85227272727273,
                "end_time": 34.902272727272724,
                "pitch": 39,
                "velocity": 64,
                "duration": 0.04999999999999716,
                "tempo": 120.0
            },
            {
                "start_time": 34.918181818181814,
                "end_time": 35.08181818181818,
                "pitch": 49,
                "velocity": 64,
                "duration": 0.16363636363636402,
                "tempo": 120.0
            },
            {
                "start_time": 35.09772727272727,
                "end_time": 35.31136363636364,
                "pitch": 47,
                "velocity": 64,
                "duration": 0.2136363636363683,
                "tempo": 120.0
            },
            {
                "start_time": 35.32727272727273,
                "end_time": 35.42727272727272,
                "pitch": 44,
                "velocity": 64,
                "duration": 0.09999999999999432,
                "tempo": 120.0
            },
            {
                "start_time": 35.445454545454545,
                "end_time": 35.54545454545455,
                "pitch": 47,
                "velocity": 64,
                "duration": 0.10000000000000142,
                "tempo": 120.0
            },
            {
                "start_time": 35.57727272727273,
                "end_time": 35.67727272727272,
                "pitch": 39,
                "velocity": 64,
                "duration": 0.09999999999999432,
                "tempo": 120.0
            },
            {
                "start_time": 35.695454545454545,
                "end_time": 35.72727272727273,
                "pitch": 39,
                "velocity": 64,
                "duration": 0.0318181818181813,
                "tempo": 120.0
            },
            {
                "start_time": 35.74545454545454,
                "end_time": 35.79545454545455,
                "pitch": 39,
                "velocity": 64,
                "duration": 0.05000000000000426,
                "tempo": 120.0
            },
            {
                "start_time": 35.81136363636364,
                "end_time": 35.845454545454544,
                "pitch": 39,
                "velocity": 64,
                "duration": 0.03409090909090651,
                "tempo": 120.0
            },
            {
                "start_time": 35.87954545454545,
                "end_time": 36.03181818181818,
                "pitch": 49,
                "velocity": 64,
                "duration": 0.1522727272727309,
                "tempo": 120.0
            },
            {
                "start_time": 36.05,
                "end_time": 36.288636363636364,
                "pitch": 47,
                "velocity": 64,
                "duration": 0.23863636363636687,
                "tempo": 120.0
            },
            {
                "start_time": 36.30681818181818,
                "end_time": 36.40681818181818,
                "pitch": 44,
                "velocity": 64,
                "duration": 0.10000000000000142,
                "tempo": 120.0
            },
            {
                "start_time": 36.42272727272727,
                "end_time": 36.52272727272727,
                "pitch": 47,
                "velocity": 64,
                "duration": 0.10000000000000142,
                "tempo": 120.0
            },
            {
                "start_time": 36.538636363636364,
                "end_time": 36.63863636363636,
                "pitch": 42,
                "velocity": 64,
                "duration": 0.09999999999999432,
                "tempo": 120.0
            },
            {
                "start_time": 36.65681818181818,
                "end_time": 36.70681818181818,
                "pitch": 42,
                "velocity": 64,
                "duration": 0.04999999999999716,
                "tempo": 120.0
            },
            {
                "start_time": 36.72272727272727,
                "end_time": 36.75681818181818,
                "pitch": 42,
                "velocity": 64,
                "duration": 0.03409090909091361,
                "tempo": 120.0
            },
            {
                "start_time": 36.788636363636364,
                "end_time": 36.82272727272727,
                "pitch": 42,
                "velocity": 64,
                "duration": 0.03409090909090651,
                "tempo": 120.0
            },
            {
                "start_time": 36.840909090909086,
                "end_time": 37.00681818181818,
                "pitch": 51,
                "velocity": 64,
                "duration": 0.16590909090909634,
                "tempo": 120.0
            },
            {
                "start_time": 37.025,
                "end_time": 37.24318181818182,
                "pitch": 49,
                "velocity": 64,
                "duration": 0.2181818181818187,
                "tempo": 120.0
            },
            {
                "start_time": 37.25909090909091,
                "end_time": 37.35909090909091,
                "pitch": 46,
                "velocity": 64,
                "duration": 0.10000000000000142,
                "tempo": 120.0
            },
            {
                "start_time": 37.39090909090909,
                "end_time": 37.48863636363636,
                "pitch": 49,
                "velocity": 64,
                "duration": 0.09772727272726911,
                "tempo": 120.0
            },
            {
                "start_time": 37.50681818181818,
                "end_time": 37.60454545454545,
                "pitch": 42,
                "velocity": 64,
                "duration": 0.09772727272726911,
                "tempo": 120.0
            },
            {
                "start_time": 37.62045454545454,
                "end_time": 37.654545454545456,
                "pitch": 42,
                "velocity": 64,
                "duration": 0.03409090909091361,
                "tempo": 120.0
            },
            {
                "start_time": 37.68636363636364,
                "end_time": 37.71818181818182,
                "pitch": 42,
                "velocity": 64,
                "duration": 0.0318181818181813,
                "tempo": 120.0
            },
            {
                "start_time": 37.736363636363635,
                "end_time": 37.78636363636363,
                "pitch": 42,
                "velocity": 64,
                "duration": 0.04999999999999716,
                "tempo": 120.0
            },
            {
                "start_time": 37.80227272727272,
                "end_time": 37.95227272727273,
                "pitch": 51,
                "velocity": 64,
                "duration": 0.15000000000000568,
                "tempo": 120.0
            },
            {
                "start_time": 37.986363636363635,
                "end_time": 38.20227272727273,
                "pitch": 49,
                "velocity": 64,
                "duration": 0.2159090909090935,
                "tempo": 120.0
            },
            {
                "start_time": 38.21818181818182,
                "end_time": 38.320454545454545,
                "pitch": 46,
                "velocity": 64,
                "duration": 0.10227272727272663,
                "tempo": 120.0
            },
            {
                "start_time": 38.33863636363636,
                "end_time": 38.44090909090909,
                "pitch": 49,
                "velocity": 64,
                "duration": 0.10227272727272663,
                "tempo": 120.0
            },
            {
                "start_time": 38.45681818181818,
                "end_time": 38.559090909090905,
                "pitch": 39,
                "velocity": 64,
                "duration": 0.10227272727272663,
                "tempo": 120.0
            },
            {
                "start_time": 38.595454545454544,
                "end_time": 38.69772727272727,
                "pitch": 39,
                "velocity": 64,
                "duration": 0.10227272727272663,
                "tempo": 120.0
            },
            {
                "start_time": 38.71363636363636,
                "end_time": 38.81590909090909,
                "pitch": 44,
                "velocity": 64,
                "duration": 0.10227272727272663,
                "tempo": 120.0
            },
            {
                "start_time": 38.834090909090904,
                "end_time": 38.93636363636364,
                "pitch": 46,
                "velocity": 64,
                "duration": 0.10227272727273373,
                "tempo": 120.0
            },
            {
                "start_time": 38.95227272727273,
                "end_time": 39.054545454545455,
                "pitch": 51,
                "velocity": 64,
                "duration": 0.10227272727272663,
                "tempo": 120.0
            },
            {
                "start_time": 39.07272727272727,
                "end_time": 39.30681818181818,
                "pitch": 49,
                "velocity": 64,
                "duration": 0.23409090909090935,
                "tempo": 120.0
            },
            {
                "start_time": 39.32272727272727,
                "end_time": 39.53636363636363,
                "pitch": 51,
                "velocity": 64,
                "duration": 0.21363636363636118,
                "tempo": 120.0
            },
            {
                "start_time": 39.554545454545455,
                "end_time": 39.652272727272724,
                "pitch": 49,
                "velocity": 64,
                "duration": 0.09772727272726911,
                "tempo": 120.0
            },
            {
                "start_time": 39.668181818181814,
                "end_time": 40.03409090909091,
                "pitch": 46,
                "velocity": 64,
                "duration": 0.36590909090909207,
                "tempo": 120.0
            }
        ],
        "Trumpet": [
            {
                "start_time": 0.0,
                "end_time": 0.056818181818181816,
                "pitch": 87,
                "velocity": 64,
                "duration": 0.056818181818181816,
                "tempo": 120.0
            },
            {
                "start_time": 0.08409090909090909,
                "end_time": 0.16818181818181818,
                "pitch": 87,
                "velocity": 64,
                "duration": 0.08409090909090909,
                "tempo": 120.0
            },
            {
                "start_time": 0.18181818181818182,
                "end_time": 0.2772727272727273,
                "pitch": 94,
                "velocity": 64,
                "duration": 0.09545454545454546,
                "tempo": 120.0
            },
            {
                "start_time": 0.29318181818181815,
                "end_time": 0.3931818181818182,
                "pitch": 87,
                "velocity": 64,
                "duration": 0.10000000000000003,
                "tempo": 120.0
            },
            {
                "start_time": 0.40909090909090906,
                "end_time": 0.5068181818181818,
                "pitch": 87,
                "velocity": 64,
                "duration": 0.09772727272727277,
                "tempo": 120.0
            },
            {
                "start_time": 0.5227272727272727,
                "end_time": 0.6227272727272727,
                "pitch": 92,
                "velocity": 64,
                "duration": 0.09999999999999998,
                "tempo": 120.0
            },
            {
                "start_time": 0.6545454545454545,
                "end_time": 0.7522727272727272,
                "pitch": 91,
                "velocity": 64,
                "duration": 0.09772727272727266,
                "tempo": 120.0
            },
            {
                "start_time": 0.7704545454545454,
                "end_time": 0.8681818181818182,
                "pitch": 92,
                "velocity": 64,
                "duration": 0.09772727272727277,
                "tempo": 120.0
            },
            {
                "start_time": 0.884090909090909,
                "end_time": 0.9818181818181818,
                "pitch": 87,
                "velocity": 64,
                "duration": 0.09772727272727277,
                "tempo": 120.0
            },
            {
                "start_time": 1.0,
                "end_time": 1.0977272727272727,
                "pitch": 87,
                "velocity": 64,
                "duration": 0.09772727272727266,
                "tempo": 120.0
            },
            {
                "start_time": 1.1136363636363635,
                "end_time": 1.2136363636363636,
                "pitch": 94,
                "velocity": 64,
                "duration": 0.10000000000000009,
                "tempo": 120.0
            },
            {
                "start_time": 1.2454545454545454,
                "end_time": 1.343181818181818,
                "pitch": 87,
                "velocity": 64,
                "duration": 0.09772727272727266,
                "tempo": 120.0
            },
            {
                "start_time": 1.3590909090909091,
                "end_time": 1.459090909090909,
                "pitch": 87,
                "velocity": 64,
                "duration": 0.09999999999999987,
                "tempo": 120.0
            },
            {
                "start_time": 1.4749999999999999,
                "end_time": 1.5727272727272728,
                "pitch": 92,
                "velocity": 64,
                "duration": 0.09772727272727288,
                "tempo": 120.0
            },
            {
                "start_time": 1.5909090909090908,
                "end_time": 1.6931818181818181,
                "pitch": 91,
                "velocity": 64,
                "duration": 0.10227272727272729,
                "tempo": 120.0
            },
            {
                "start_time": 1.7113636363636362,
                "end_time": 1.8136363636363635,
                "pitch": 92,
                "velocity": 64,
                "duration": 0.10227272727272729,
                "tempo": 120.0
            },
            {
                "start_time": 1.8499999999999999,
                "end_time": 1.9522727272727272,
                "pitch": 87,
                "velocity": 64,
                "duration": 0.10227272727272729,
                "tempo": 120.0
            },
            {
                "start_time": 1.9704545454545455,
                "end_time": 2.0749999999999997,
                "pitch": 87,
                "velocity": 64,
                "duration": 0.10454545454545427,
                "tempo": 120.0
            },
            {
                "start_time": 2.090909090909091,
                "end_time": 2.1886363636363635,
                "pitch": 94,
                "velocity": 64,
                "duration": 0.09772727272727266,
                "tempo": 120.0
            },
            {
                "start_time": 2.2045454545454546,
                "end_time": 2.3,
                "pitch": 87,
                "velocity": 64,
                "duration": 0.09545454545454524,
                "tempo": 120.0
            },
            {
                "start_time": 2.315909090909091,
                "end_time": 2.411363636363636,
                "pitch": 87,
                "velocity": 64,
                "duration": 0.09545454545454524,
                "tempo": 120.0
            },
            {
                "start_time": 2.4454545454545453,
                "end_time": 2.540909090909091,
                "pitch": 92,
                "velocity": 64,
                "duration": 0.09545454545454568,
                "tempo": 120.0
            },
            {
                "start_time": 2.5568181818181817,
                "end_time": 2.659090909090909,
                "pitch": 91,
                "velocity": 64,
                "duration": 0.10227272727272751,
                "tempo": 120.0
            },
            {
                "start_time": 2.675,
                "end_time": 2.7772727272727273,
                "pitch": 92,
                "velocity": 64,
                "duration": 0.10227272727272751,
                "tempo": 120.0
            },
            {
                "start_time": 2.7954545454545454,
                "end_time": 2.8977272727272725,
                "pitch": 87,
                "velocity": 64,
                "duration": 0.10227272727272707,
                "tempo": 120.0
            },
            {
                "start_time": 2.9159090909090906,
                "end_time": 3.018181818181818,
                "pitch": 87,
                "velocity": 64,
                "duration": 0.10227272727272751,
                "tempo": 120.0
            },
            {
                "start_time": 3.0522727272727272,
                "end_time": 3.1522727272727273,
                "pitch": 94,
                "velocity": 64,
                "duration": 0.10000000000000009,
                "tempo": 120.0
            },
            {
                "start_time": 3.168181818181818,
                "end_time": 3.268181818181818,
                "pitch": 87,
                "velocity": 64,
                "duration": 0.10000000000000009,
                "tempo": 120.0
            },
            {
                "start_time": 3.2840909090909087,
                "end_time": 3.384090909090909,
                "pitch": 87,
                "velocity": 64,
                "duration": 0.10000000000000009,
                "tempo": 120.0
            },
            {
                "start_time": 3.402272727272727,
                "end_time": 3.502272727272727,
                "pitch": 92,
                "velocity": 64,
                "duration": 0.10000000000000009,
                "tempo": 120.0
            },
            {
                "start_time": 3.518181818181818,
                "end_time": 3.618181818181818,
                "pitch": 91,
                "velocity": 64,
                "duration": 0.10000000000000009,
                "tempo": 120.0
            },
            {
                "start_time": 3.652272727272727,
                "end_time": 3.752272727272727,
                "pitch": 92,
                "velocity": 64,
                "duration": 0.10000000000000009,
                "tempo": 120.0
            },
            {
                "start_time": 3.768181818181818,
                "end_time": 3.868181818181818,
                "pitch": 87,
                "velocity": 64,
                "duration": 0.10000000000000009,
                "tempo": 120.0
            },
            {
                "start_time": 3.884090909090909,
                "end_time": 3.984090909090909,
                "pitch": 87,
                "velocity": 64,
                "duration": 0.10000000000000009,
                "tempo": 120.0
            },
            {
                "start_time": 4.002272727272727,
                "end_time": 4.1022727272727275,
                "pitch": 94,
                "velocity": 64,
                "duration": 0.10000000000000053,
                "tempo": 120.0
            },
            {
                "start_time": 4.118181818181818,
                "end_time": 4.218181818181818,
                "pitch": 87,
                "velocity": 64,
                "duration": 0.09999999999999964,
                "tempo": 120.0
            },
            {
                "start_time": 4.252272727272727,
                "end_time": 4.352272727272727,
                "pitch": 87,
                "velocity": 64,
                "duration": 0.09999999999999964,
                "tempo": 120.0
            },
            {
                "start_time": 4.368181818181818,
                "end_time": 4.468181818181818,
                "pitch": 92,
                "velocity": 64,
                "duration": 0.09999999999999964,
                "tempo": 120.0
            },
            {
                "start_time": 4.4840909090909085,
                "end_time": 4.586363636363636,
                "pitch": 91,
                "velocity": 64,
                "duration": 0.10227272727272751,
                "tempo": 120.0
            },
            {
                "start_time": 4.602272727272727,
                "end_time": 4.702272727272727,
                "pitch": 92,
                "velocity": 64,
                "duration": 0.10000000000000053,
                "tempo": 120.0
            },
            {
                "start_time": 4.720454545454545,
                "end_time": 4.820454545454545,
                "pitch": 87,
                "velocity": 64,
                "duration": 0.10000000000000053,
                "tempo": 120.0
            },
            {
                "start_time": 4.8545454545454545,
                "end_time": 4.954545454545454,
                "pitch": 87,
                "velocity": 64,
                "duration": 0.09999999999999964,
                "tempo": 120.0
            },
            {
                "start_time": 4.972727272727273,
                "end_time": 5.075,
                "pitch": 94,
                "velocity": 64,
                "duration": 0.10227272727272751,
                "tempo": 120.0
            },
            {
                "start_time": 5.090909090909091,
                "end_time": 5.193181818181818,
                "pitch": 87,
                "velocity": 64,
                "duration": 0.10227272727272751,
                "tempo": 120.0
            },
            {
                "start_time": 5.211363636363636,
                "end_time": 5.3136363636363635,
                "pitch": 87,
                "velocity": 64,
                "duration": 0.10227272727272751,
                "tempo": 120.0
            },
            {
                "start_time": 5.329545454545454,
                "end_time": 5.431818181818182,
                "pitch": 92,
                "velocity": 64,
                "duration": 0.10227272727272751,
                "tempo": 120.0
            },
            {
                "start_time": 5.465909090909091,
                "end_time": 5.5659090909090905,
                "pitch": 91,
                "velocity": 64,
                "duration": 0.09999999999999964,
                "tempo": 120.0
            },
            {
                "start_time": 5.581818181818181,
                "end_time": 5.679545454545455,
                "pitch": 92,
                "velocity": 64,
                "duration": 0.09772727272727355,
                "tempo": 120.0
            },
            {
                "start_time": 5.695454545454545,
                "end_time": 5.795454545454545,
                "pitch": 87,
                "velocity": 64,
                "duration": 0.09999999999999964,
                "tempo": 120.0
            },
            {
                "start_time": 5.8113636363636365,
                "end_time": 5.909090909090909,
                "pitch": 87,
                "velocity": 64,
                "duration": 0.09772727272727266,
                "tempo": 120.0
            },
            {
                "start_time": 5.925,
                "end_time": 6.0249999999999995,
                "pitch": 94,
                "velocity": 64,
                "duration": 0.09999999999999964,
                "tempo": 120.0
            },
            {
                "start_time": 6.056818181818182,
                "end_time": 6.156818181818181,
                "pitch": 87,
                "velocity": 64,
                "duration": 0.09999999999999964,
                "tempo": 120.0
            },
            {
                "start_time": 6.172727272727273,
                "end_time": 6.2704545454545455,
                "pitch": 87,
                "velocity": 64,
                "duration": 0.09772727272727266,
                "tempo": 120.0
            },
            {
                "start_time": 6.286363636363636,
                "end_time": 6.386363636363636,
                "pitch": 92,
                "velocity": 64,
                "duration": 0.09999999999999964,
                "tempo": 120.0
            },
            {
                "start_time": 6.402272727272727,
                "end_time": 6.502272727272727,
                "pitch": 91,
                "velocity": 64,
                "duration": 0.09999999999999964,
                "tempo": 120.0
            },
            {
                "start_time": 6.5204545454545455,
                "end_time": 6.620454545454545,
                "pitch": 92,
                "velocity": 64,
                "duration": 0.09999999999999964,
                "tempo": 120.0
            },
            {
                "start_time": 6.654545454545454,
                "end_time": 6.754545454545454,
                "pitch": 87,
                "velocity": 64,
                "duration": 0.09999999999999964,
                "tempo": 120.0
            },
            {
                "start_time": 6.7704545454545455,
                "end_time": 6.872727272727272,
                "pitch": 87,
                "velocity": 64,
                "duration": 0.10227272727272663,
                "tempo": 120.0
            },
            {
                "start_time": 6.888636363636364,
                "end_time": 6.99090909090909,
                "pitch": 94,
                "velocity": 64,
                "duration": 0.10227272727272663,
                "tempo": 120.0
            },
            {
                "start_time": 7.009090909090909,
                "end_time": 7.111363636363636,
                "pitch": 87,
                "velocity": 64,
                "duration": 0.10227272727272751,
                "tempo": 120.0
            },
            {
                "start_time": 7.127272727272727,
                "end_time": 7.2295454545454545,
                "pitch": 87,
                "velocity": 64,
                "duration": 0.10227272727272751,
                "tempo": 120.0
            },
            {
                "start_time": 7.263636363636364,
                "end_time": 7.36590909090909,
                "pitch": 92,
                "velocity": 64,
                "duration": 0.10227272727272663,
                "tempo": 120.0
            },
            {
                "start_time": 7.384090909090909,
                "end_time": 7.486363636363636,
                "pitch": 91,
                "velocity": 64,
                "duration": 0.10227272727272751,
                "tempo": 120.0
            },
            {
                "start_time": 7.504545454545454,
                "end_time": 7.6068181818181815,
                "pitch": 92,
                "velocity": 64,
                "duration": 0.10227272727272751,
                "tempo": 120.0
            },
            {
                "start_time": 7.622727272727272,
                "end_time": 7.725,
                "pitch": 68,
                "velocity": 64,
                "duration": 0.10227272727272751,
                "tempo": 120.0
            },
            {
                "start_time": 7.743181818181818,
                "end_time": 7.845454545454545,
                "pitch": 73,
                "velocity": 64,
                "duration": 0.10227272727272663,
                "tempo": 120.0
            },
            {
                "start_time": 7.879545454545454,
                "end_time": 7.977272727272727,
                "pitch": 78,
                "velocity": 64,
                "duration": 0.09772727272727266,
                "tempo": 120.0
            },
            {
                "start_time": 7.993181818181818,
                "end_time": 8.093181818181817,
                "pitch": 73,
                "velocity": 64,
                "duration": 0.09999999999999876,
                "tempo": 120.0
            },
            {
                "start_time": 8.10909090909091,
                "end_time": 8.206818181818182,
                "pitch": 68,
                "velocity": 64,
                "duration": 0.09772727272727266,
                "tempo": 120.0
            },
            {
                "start_time": 8.222727272727273,
                "end_time": 8.322727272727272,
                "pitch": 73,
                "velocity": 64,
                "duration": 0.09999999999999964,
                "tempo": 120.0
            },
            {
                "start_time": 8.338636363636363,
                "end_time": 8.436363636363636,
                "pitch": 78,
                "velocity": 64,
                "duration": 0.09772727272727266,
                "tempo": 120.0
            },
            {
                "start_time": 8.470454545454546,
                "end_time": 8.568181818181818,
                "pitch": 73,
                "velocity": 64,
                "duration": 0.09772727272727266,
                "tempo": 120.0
            },
            {
                "start_time": 8.584090909090909,
                "end_time": 8.681818181818182,
                "pitch": 68,
                "velocity": 64,
                "duration": 0.09772727272727266,
                "tempo": 120.0
            },
            {
                "start_time": 8.7,
                "end_time": 8.797727272727272,
                "pitch": 73,
                "velocity": 64,
                "duration": 0.09772727272727266,
                "tempo": 120.0
            },
            {
                "start_time": 8.813636363636363,
                "end_time": 8.918181818181818,
                "pitch": 78,
                "velocity": 64,
                "duration": 0.10454545454545539,
                "tempo": 120.0
            },
            {
                "start_time": 8.934090909090909,
                "end_time": 9.038636363636364,
                "pitch": 73,
                "velocity": 64,
                "duration": 0.10454545454545539,
                "tempo": 120.0
            },
            {
                "start_time": 9.072727272727272,
                "end_time": 9.177272727272728,
                "pitch": 68,
                "velocity": 64,
                "duration": 0.10454545454545539,
                "tempo": 120.0
            },
            {
                "start_time": 9.195454545454545,
                "end_time": 9.299999999999999,
                "pitch": 73,
                "velocity": 64,
                "duration": 0.10454545454545361,
                "tempo": 120.0
            },
            {
                "start_time": 9.31590909090909,
                "end_time": 9.415909090909091,
                "pitch": 78,
                "velocity": 64,
                "duration": 0.10000000000000142,
                "tempo": 120.0
            },
            {
                "start_time": 9.431818181818182,
                "end_time": 9.529545454545454,
                "pitch": 73,
                "velocity": 64,
                "duration": 0.09772727272727266,
                "tempo": 120.0
            },
            {
                "start_time": 9.545454545454545,
                "end_time": 9.645454545454545,
                "pitch": 68,
                "velocity": 64,
                "duration": 0.09999999999999964,
                "tempo": 120.0
            },
            {
                "start_time": 9.677272727272726,
                "end_time": 9.775,
                "pitch": 73,
                "velocity": 64,
                "duration": 0.09772727272727444,
                "tempo": 120.0
            },
            {
                "start_time": 9.793181818181818,
                "end_time": 9.893181818181818,
                "pitch": 78,
                "velocity": 64,
                "duration": 0.09999999999999964,
                "tempo": 120.0
            },
            {
                "start_time": 9.909090909090908,
                "end_time": 10.011363636363637,
                "pitch": 73,
                "velocity": 64,
                "duration": 0.1022727272727284,
                "tempo": 120.0
            },
            {
                "start_time": 10.027272727272727,
                "end_time": 10.127272727272727,
                "pitch": 68,
                "velocity": 64,
                "duration": 0.09999999999999964,
                "tempo": 120.0
            },
            {
                "start_time": 10.145454545454545,
                "end_time": 10.245454545454544,
                "pitch": 73,
                "velocity": 64,
                "duration": 0.09999999999999964,
                "tempo": 120.0
            },
            {
                "start_time": 10.279545454545454,
                "end_time": 10.379545454545454,
                "pitch": 78,
                "velocity": 64,
                "duration": 0.09999999999999964,
                "tempo": 120.0
            },
            {
                "start_time": 10.397727272727272,
                "end_time": 10.497727272727273,
                "pitch": 73,
                "velocity": 64,
                "duration": 0.10000000000000142,
                "tempo": 120.0
            },
            {
                "start_time": 10.513636363636364,
                "end_time": 10.61590909090909,
                "pitch": 68,
                "velocity": 64,
                "duration": 0.10227272727272663,
                "tempo": 120.0
            },
            {
                "start_time": 10.631818181818181,
                "end_time": 10.73409090909091,
                "pitch": 73,
                "velocity": 64,
                "duration": 0.1022727272727284,
                "tempo": 120.0
            },
            {
                "start_time": 10.75,
                "end_time": 10.847727272727273,
                "pitch": 78,
                "velocity": 64,
                "duration": 0.09772727272727266,
                "tempo": 120.0
            },
            {
                "start_time": 10.881818181818181,
                "end_time": 10.979545454545454,
                "pitch": 73,
                "velocity": 64,
                "duration": 0.09772727272727266,
                "tempo": 120.0
            },
            {
                "start_time": 10.995454545454544,
                "end_time": 11.095454545454546,
                "pitch": 70,
                "velocity": 64,
                "duration": 0.10000000000000142,
                "tempo": 120.0
            },
            {
                "start_time": 11.111363636363636,
                "end_time": 11.209090909090909,
                "pitch": 71,
                "velocity": 64,
                "duration": 0.09772727272727266,
                "tempo": 120.0
            },
            {
                "start_time": 11.225,
                "end_time": 11.329545454545453,
                "pitch": 75,
                "velocity": 64,
                "duration": 0.10454545454545361,
                "tempo": 120.0
            },
            {
                "start_time": 11.345454545454546,
                "end_time": 11.45,
                "pitch": 76,
                "velocity": 64,
                "duration": 0.10454545454545361,
                "tempo": 120.0
            },
            {
                "start_time": 11.48409090909091,
                "end_time": 11.588636363636363,
                "pitch": 68,
                "velocity": 64,
                "duration": 0.10454545454545361,
                "tempo": 120.0
            },
            {
                "start_time": 11.60681818181818,
                "end_time": 11.711363636363636,
                "pitch": 73,
                "velocity": 64,
                "duration": 0.10454545454545539,
                "tempo": 120.0
            },
            {
                "start_time": 11.727272727272727,
                "end_time": 11.827272727272726,
                "pitch": 78,
                "velocity": 64,
                "duration": 0.09999999999999964,
                "tempo": 120.0
            },
            {
                "start_time": 11.843181818181817,
                "end_time": 11.94090909090909,
                "pitch": 73,
                "velocity": 64,
                "duration": 0.09772727272727266,
                "tempo": 120.0
            },
            {
                "start_time": 11.959090909090909,
                "end_time": 12.056818181818182,
                "pitch": 68,
                "velocity": 64,
                "duration": 0.09772727272727266,
                "tempo": 120.0
            },
            {
                "start_time": 12.088636363636363,
                "end_time": 12.188636363636363,
                "pitch": 73,
                "velocity": 64,
                "duration": 0.09999999999999964,
                "tempo": 120.0
            },
            {
                "start_time": 12.204545454545453,
                "end_time": 12.304545454545455,
                "pitch": 78,
                "velocity": 64,
                "duration": 0.10000000000000142,
                "tempo": 120.0
            },
            {
                "start_time": 12.320454545454545,
                "end_time": 12.422727272727272,
                "pitch": 73,
                "velocity": 64,
                "duration": 0.10227272727272663,
                "tempo": 120.0
            },
            {
                "start_time": 12.438636363636363,
                "end_time": 12.540909090909091,
                "pitch": 68,
                "velocity": 64,
                "duration": 0.1022727272727284,
                "tempo": 120.0
            },
            {
                "start_time": 12.556818181818182,
                "end_time": 12.656818181818181,
                "pitch": 73,
                "velocity": 64,
                "duration": 0.09999999999999964,
                "tempo": 120.0
            },
            {
                "start_time": 12.69090909090909,
                "end_time": 12.790909090909091,
                "pitch": 78,
                "velocity": 64,
                "duration": 0.10000000000000142,
                "tempo": 120.0
            },
            {
                "start_time": 12.806818181818182,
                "end_time": 12.906818181818181,
                "pitch": 73,
                "velocity": 64,
                "duration": 0.09999999999999964,
                "tempo": 120.0
            },
            {
                "start_time": 12.924999999999999,
                "end_time": 13.024999999999999,
                "pitch": 68,
                "velocity": 64,
                "duration": 0.09999999999999964,
                "tempo": 120.0
            },
            {
                "start_time": 13.040909090909091,
                "end_time": 13.14090909090909,
                "pitch": 73,
                "velocity": 64,
                "duration": 0.09999999999999964,
                "tempo": 120.0
            },
            {
                "start_time": 13.156818181818181,
                "end_time": 13.259090909090908,
                "pitch": 78,
                "velocity": 64,
                "duration": 0.10227272727272663,
                "tempo": 120.0
            },
            {
                "start_time": 13.293181818181818,
                "end_time": 13.393181818181818,
                "pitch": 73,
                "velocity": 64,
                "duration": 0.09999999999999964,
                "tempo": 120.0
            },
            {
                "start_time": 13.409090909090908,
                "end_time": 13.511363636363635,
                "pitch": 80,
                "velocity": 64,
                "duration": 0.10227272727272663,
                "tempo": 120.0
            },
            {
                "start_time": 13.527272727272727,
                "end_time": 13.743181818181817,
                "pitch": 75,
                "velocity": 64,
                "duration": 0.21590909090908994,
                "tempo": 120.0
            },
            {
                "start_time": 13.759090909090908,
                "end_time": 13.988636363636363,
                "pitch": 75,
                "velocity": 64,
                "duration": 0.22954545454545539,
                "tempo": 120.0
            },
            {
                "start_time": 14.006818181818181,
                "end_time": 14.104545454545454,
                "pitch": 71,
                "velocity": 64,
                "duration": 0.09772727272727266,
                "tempo": 120.0
            },
            {
                "start_time": 14.120454545454544,
                "end_time": 14.222727272727273,
                "pitch": 73,
                "velocity": 64,
                "duration": 0.1022727272727284,
                "tempo": 120.0
            },
            {
                "start_time": 14.24090909090909,
                "end_time": 14.83181818181818,
                "pitch": 70,
                "velocity": 64,
                "duration": 0.5909090909090899,
                "tempo": 120.0
            },
            {
                "start_time": 14.847727272727273,
                "end_time": 15.06590909090909,
                "pitch": 78,
                "velocity": 64,
                "duration": 0.21818181818181692,
                "tempo": 120.0
            },
            {
                "start_time": 15.097727272727273,
                "end_time": 15.320454545454545,
                "pitch": 68,
                "velocity": 64,
                "duration": 0.22272727272727266,
                "tempo": 120.0
            },
            {
                "start_time": 15.338636363636363,
                "end_time": 15.44090909090909,
                "pitch": 68,
                "velocity": 64,
                "duration": 0.10227272727272663,
                "tempo": 120.0
            },
            {
                "start_time": 15.45681818181818,
                "end_time": 15.559090909090909,
                "pitch": 73,
                "velocity": 64,
                "duration": 0.1022727272727284,
                "tempo": 120.0
            },
            {
                "start_time": 15.577272727272726,
                "end_time": 15.672727272727272,
                "pitch": 78,
                "velocity": 64,
                "duration": 0.09545454545454568,
                "tempo": 120.0
            },
            {
                "start_time": 15.704545454545453,
                "end_time": 15.802272727272726,
                "pitch": 73,
                "velocity": 64,
                "duration": 0.09772727272727266,
                "tempo": 120.0
            },
            {
                "start_time": 15.818181818181817,
                "end_time": 15.913636363636362,
                "pitch": 70,
                "velocity": 64,
                "duration": 0.09545454545454568,
                "tempo": 120.0
            },
            {
                "start_time": 15.929545454545453,
                "end_time": 16.025,
                "pitch": 71,
                "velocity": 64,
                "duration": 0.09545454545454568,
                "tempo": 120.0
            },
            {
                "start_time": 16.04090909090909,
                "end_time": 16.143181818181816,
                "pitch": 75,
                "velocity": 64,
                "duration": 0.10227272727272663,
                "tempo": 120.0
            },
            {
                "start_time": 16.161363636363635,
                "end_time": 16.263636363636362,
                "pitch": 76,
                "velocity": 64,
                "duration": 0.10227272727272663,
                "tempo": 120.0
            },
            {
                "start_time": 16.297727272727272,
                "end_time": 16.4,
                "pitch": 68,
                "velocity": 64,
                "duration": 0.10227272727272663,
                "tempo": 120.0
            },
            {
                "start_time": 16.41590909090909,
                "end_time": 16.518181818181816,
                "pitch": 73,
                "velocity": 64,
                "duration": 0.10227272727272663,
                "tempo": 120.0
            },
            {
                "start_time": 16.536363636363635,
                "end_time": 16.636363636363637,
                "pitch": 78,
                "velocity": 64,
                "duration": 0.10000000000000142,
                "tempo": 120.0
            },
            {
                "start_time": 16.654545454545453,
                "end_time": 16.754545454545454,
                "pitch": 73,
                "velocity": 64,
                "duration": 0.10000000000000142,
                "tempo": 120.0
            },
            {
                "start_time": 16.770454545454545,
                "end_time": 16.87272727272727,
                "pitch": 68,
                "velocity": 64,
                "duration": 0.10227272727272663,
                "tempo": 120.0
            },
            {
                "start_time": 16.90681818181818,
                "end_time": 17.006818181818183,
                "pitch": 73,
                "velocity": 64,
                "duration": 0.10000000000000142,
                "tempo": 120.0
            },
            {
                "start_time": 17.022727272727273,
                "end_time": 17.125,
                "pitch": 78,
                "velocity": 64,
                "duration": 0.10227272727272663,
                "tempo": 120.0
            },
            {
                "start_time": 17.143181818181816,
                "end_time": 17.245454545454546,
                "pitch": 73,
                "velocity": 64,
                "duration": 0.10227272727273018,
                "tempo": 120.0
            },
            {
                "start_time": 17.261363636363637,
                "end_time": 17.363636363636363,
                "pitch": 68,
                "velocity": 64,
                "duration": 0.10227272727272663,
                "tempo": 120.0
            },
            {
                "start_time": 17.381818181818183,
                "end_time": 17.48409090909091,
                "pitch": 73,
                "velocity": 64,
                "duration": 0.10227272727272663,
                "tempo": 120.0
            },
            {
                "start_time": 17.518181818181816,
                "end_time": 17.61590909090909,
                "pitch": 78,
                "velocity": 64,
                "duration": 0.09772727272727266,
                "tempo": 120.0
            },
            {
                "start_time": 17.634090909090908,
                "end_time": 17.73181818181818,
                "pitch": 73,
                "velocity": 64,
                "duration": 0.09772727272727266,
                "tempo": 120.0
            },
            {
                "start_time": 17.74772727272727,
                "end_time": 17.845454545454544,
                "pitch": 68,
                "velocity": 64,
                "duration": 0.09772727272727266,
                "tempo": 120.0
            },
            {
                "start_time": 17.863636363636363,
                "end_time": 17.961363636363636,
                "pitch": 73,
                "velocity": 64,
                "duration": 0.09772727272727266,
                "tempo": 120.0
            },
            {
                "start_time": 17.977272727272727,
                "end_time": 18.075,
                "pitch": 78,
                "velocity": 64,
                "duration": 0.09772727272727266,
                "tempo": 120.0
            },
            {
                "start_time": 18.10909090909091,
                "end_time": 18.206818181818182,
                "pitch": 73,
                "velocity": 64,
                "duration": 0.09772727272727266,
                "tempo": 120.0
            },
            {
                "start_time": 18.222727272727273,
                "end_time": 18.32272727272727,
                "pitch": 68,
                "velocity": 64,
                "duration": 0.09999999999999787,
                "tempo": 120.0
            },
            {
                "start_time": 18.33863636363636,
                "end_time": 18.436363636363634,
                "pitch": 73,
                "velocity": 64,
                "duration": 0.09772727272727266,
                "tempo": 120.0
            },
            {
                "start_time": 18.452272727272728,
                "end_time": 18.55681818181818,
                "pitch": 78,
                "velocity": 64,
                "duration": 0.10454545454545183,
                "tempo": 120.0
            },
            {
                "start_time": 18.57272727272727,
                "end_time": 18.677272727272726,
                "pitch": 73,
                "velocity": 64,
                "duration": 0.10454545454545539,
                "tempo": 120.0
            },
            {
                "start_time": 18.71363636363636,
                "end_time": 18.81590909090909,
                "pitch": 68,
                "velocity": 64,
                "duration": 0.10227272727273018,
                "tempo": 120.0
            },
            {
                "start_time": 18.834090909090907,
                "end_time": 18.938636363636363,
                "pitch": 73,
                "velocity": 64,
                "duration": 0.10454545454545539,
                "tempo": 120.0
            },
            {
                "start_time": 18.954545454545453,
                "end_time": 19.054545454545455,
                "pitch": 78,
                "velocity": 64,
                "duration": 0.10000000000000142,
                "tempo": 120.0
            },
            {
                "start_time": 19.070454545454545,
                "end_time": 19.168181818181818,
                "pitch": 73,
                "velocity": 64,
                "duration": 0.09772727272727266,
                "tempo": 120.0
            },
            {
                "start_time": 19.186363636363634,
                "end_time": 19.284090909090907,
                "pitch": 68,
                "velocity": 64,
                "duration": 0.09772727272727266,
                "tempo": 120.0
            },
            {
                "start_time": 19.31590909090909,
                "end_time": 19.41590909090909,
                "pitch": 73,
                "velocity": 64,
                "duration": 0.09999999999999787,
                "tempo": 120.0
            },
            {
                "start_time": 19.43181818181818,
                "end_time": 19.53181818181818,
                "pitch": 78,
                "velocity": 64,
                "duration": 0.10000000000000142,
                "tempo": 120.0
            },
            {
                "start_time": 19.55,
                "end_time": 19.65,
                "pitch": 73,
                "velocity": 64,
                "duration": 0.09999999999999787,
                "tempo": 120.0
            },
            {
                "start_time": 19.66590909090909,
                "end_time": 19.768181818181816,
                "pitch": 70,
                "velocity": 64,
                "duration": 0.10227272727272663,
                "tempo": 120.0
            },
            {
                "start_time": 19.784090909090907,
                "end_time": 19.884090909090908,
                "pitch": 71,
                "velocity": 64,
                "duration": 0.10000000000000142,
                "tempo": 120.0
            },
            {
                "start_time": 19.918181818181818,
                "end_time": 20.018181818181816,
                "pitch": 75,
                "velocity": 64,
                "duration": 0.09999999999999787,
                "tempo": 120.0
            },
            {
                "start_time": 20.036363636363635,
                "end_time": 20.136363636363637,
                "pitch": 76,
                "velocity": 64,
                "duration": 0.10000000000000142,
                "tempo": 120.0
            },
            {
                "start_time": 20.152272727272727,
                "end_time": 20.252272727272725,
                "pitch": 68,
                "velocity": 64,
                "duration": 0.09999999999999787,
                "tempo": 120.0
            },
            {
                "start_time": 20.268181818181816,
                "end_time": 20.368181818181817,
                "pitch": 73,
                "velocity": 64,
                "duration": 0.10000000000000142,
                "tempo": 120.0
            },
            {
                "start_time": 20.386363636363637,
                "end_time": 20.48409090909091,
                "pitch": 78,
                "velocity": 64,
                "duration": 0.09772727272727266,
                "tempo": 120.0
            },
            {
                "start_time": 20.51590909090909,
                "end_time": 20.61590909090909,
                "pitch": 73,
                "velocity": 64,
                "duration": 0.09999999999999787,
                "tempo": 120.0
            },
            {
                "start_time": 20.63181818181818,
                "end_time": 20.729545454545452,
                "pitch": 68,
                "velocity": 64,
                "duration": 0.09772727272727266,
                "tempo": 120.0
            },
            {
                "start_time": 20.745454545454546,
                "end_time": 20.845454545454544,
                "pitch": 73,
                "velocity": 64,
                "duration": 0.09999999999999787,
                "tempo": 120.0
            },
            {
                "start_time": 20.861363636363635,
                "end_time": 20.96363636363636,
                "pitch": 78,
                "velocity": 64,
                "duration": 0.10227272727272663,
                "tempo": 120.0
            },
            {
                "start_time": 20.98181818181818,
                "end_time": 21.086363636363636,
                "pitch": 73,
                "velocity": 64,
                "duration": 0.10454545454545539,
                "tempo": 120.0
            },
            {
                "start_time": 21.120454545454546,
                "end_time": 21.224999999999998,
                "pitch": 73,
                "velocity": 64,
                "duration": 0.10454545454545183,
                "tempo": 120.0
            },
            {
                "start_time": 21.24090909090909,
                "end_time": 21.345454545454544,
                "pitch": 73,
                "velocity": 64,
                "duration": 0.10454545454545539,
                "tempo": 120.0
            },
            {
                "start_time": 21.363636363636363,
                "end_time": 21.577272727272724,
                "pitch": 75,
                "velocity": 64,
                "duration": 0.21363636363636118,
                "tempo": 120.0
            },
            {
                "start_time": 21.59318181818182,
                "end_time": 21.82272727272727,
                "pitch": 76,
                "velocity": 64,
                "duration": 0.22954545454545183,
                "tempo": 120.0
            },
            {
                "start_time": 21.83863636363636,
                "end_time": 21.94090909090909,
                "pitch": 78,
                "velocity": 64,
                "duration": 0.10227272727273018,
                "tempo": 120.0
            },
            {
                "start_time": 21.959090909090907,
                "end_time": 22.061363636363634,
                "pitch": 78,
                "velocity": 64,
                "duration": 0.10227272727272663,
                "tempo": 120.0
            },
            {
                "start_time": 22.077272727272724,
                "end_time": 22.179545454545455,
                "pitch": 80,
                "velocity": 64,
                "duration": 0.10227272727273018,
                "tempo": 120.0
            },
            {
                "start_time": 22.19772727272727,
                "end_time": 22.299999999999997,
                "pitch": 80,
                "velocity": 64,
                "duration": 0.10227272727272663,
                "tempo": 120.0
            },
            {
                "start_time": 22.334090909090907,
                "end_time": 22.43181818181818,
                "pitch": 80,
                "velocity": 64,
                "duration": 0.09772727272727266,
                "tempo": 120.0
            },
            {
                "start_time": 22.45,
                "end_time": 22.547727272727272,
                "pitch": 85,
                "velocity": 64,
                "duration": 0.09772727272727266,
                "tempo": 120.0
            },
            {
                "start_time": 22.563636363636363,
                "end_time": 22.661363636363635,
                "pitch": 78,
                "velocity": 64,
                "duration": 0.09772727272727266,
                "tempo": 120.0
            },
            {
                "start_time": 22.679545454545455,
                "end_time": 22.777272727272727,
                "pitch": 78,
                "velocity": 64,
                "duration": 0.09772727272727266,
                "tempo": 120.0
            },
            {
                "start_time": 22.793181818181818,
                "end_time": 22.893181818181816,
                "pitch": 78,
                "velocity": 64,
                "duration": 0.09999999999999787,
                "tempo": 120.0
            },
            {
                "start_time": 22.927272727272726,
                "end_time": 23.027272727272727,
                "pitch": 78,
                "velocity": 64,
                "duration": 0.10000000000000142,
                "tempo": 120.0
            },
            {
                "start_time": 23.045454545454543,
                "end_time": 23.145454545454545,
                "pitch": 87,
                "velocity": 64,
                "duration": 0.10000000000000142,
                "tempo": 120.0
            },
            {
                "start_time": 23.163636363636364,
                "end_time": 23.263636363636362,
                "pitch": 87,
                "velocity": 64,
                "duration": 0.09999999999999787,
                "tempo": 120.0
            },
            {
                "start_time": 23.279545454545453,
                "end_time": 23.38181818181818,
                "pitch": 92,
                "velocity": 64,
                "duration": 0.10227272727272663,
                "tempo": 120.0
            },
            {
                "start_time": 23.39772727272727,
                "end_time": 23.49772727272727,
                "pitch": 87,
                "velocity": 64,
                "duration": 0.10000000000000142,
                "tempo": 120.0
            },
            {
                "start_time": 23.53181818181818,
                "end_time": 23.634090909090908,
                "pitch": 87,
                "velocity": 64,
                "duration": 0.10227272727272663,
                "tempo": 120.0
            },
            {
                "start_time": 23.65,
                "end_time": 23.75,
                "pitch": 87,
                "velocity": 64,
                "duration": 0.10000000000000142,
                "tempo": 120.0
            },
            {
                "start_time": 23.768181818181816,
                "end_time": 23.868181818181817,
                "pitch": 92,
                "velocity": 64,
                "duration": 0.10000000000000142,
                "tempo": 120.0
            },
            {
                "start_time": 23.884090909090908,
                "end_time": 23.98409090909091,
                "pitch": 87,
                "velocity": 64,
                "duration": 0.10000000000000142,
                "tempo": 120.0
            },
            {
                "start_time": 24.0,
                "end_time": 24.099999999999998,
                "pitch": 87,
                "velocity": 64,
                "duration": 0.09999999999999787,
                "tempo": 120.0
            },
            {
                "start_time": 24.134090909090908,
                "end_time": 24.23409090909091,
                "pitch": 87,
                "velocity": 64,
                "duration": 0.10000000000000142,
                "tempo": 120.0
            },
            {
                "start_time": 24.25,
                "end_time": 24.352272727272727,
                "pitch": 92,
                "velocity": 64,
                "duration": 0.10227272727272663,
                "tempo": 120.0
            },
            {
                "start_time": 24.368181818181817,
                "end_time": 24.46818181818182,
                "pitch": 87,
                "velocity": 64,
                "duration": 0.10000000000000142,
                "tempo": 120.0
            },
            {
                "start_time": 24.486363636363635,
                "end_time": 24.586363636363636,
                "pitch": 87,
                "velocity": 64,
                "duration": 0.10000000000000142,
                "tempo": 120.0
            },
            {
                "start_time": 24.604545454545452,
                "end_time": 24.704545454545453,
                "pitch": 87,
                "velocity": 64,
                "duration": 0.10000000000000142,
                "tempo": 120.0
            },
            {
                "start_time": 24.738636363636363,
                "end_time": 24.83863636363636,
                "pitch": 92,
                "velocity": 64,
                "duration": 0.09999999999999787,
                "tempo": 120.0
            },
            {
                "start_time": 24.854545454545452,
                "end_time": 24.956818181818182,
                "pitch": 87,
                "velocity": 64,
                "duration": 0.10227272727273018,
                "tempo": 120.0
            },
            {
                "start_time": 24.972727272727273,
                "end_time": 25.075,
                "pitch": 90,
                "velocity": 64,
                "duration": 0.10227272727272663,
                "tempo": 120.0
            },
            {
                "start_time": 25.09090909090909,
                "end_time": 25.19090909090909,
                "pitch": 90,
                "velocity": 64,
                "duration": 0.10000000000000142,
                "tempo": 120.0
            },
            {
                "start_time": 25.209090909090907,
                "end_time": 25.30681818181818,
                "pitch": 95,
                "velocity": 64,
                "duration": 0.09772727272727266,
                "tempo": 120.0
            },
            {
                "start_time": 25.33863636363636,
                "end_time": 25.438636363636363,
                "pitch": 90,
                "velocity": 64,
                "duration": 0.10000000000000142,
                "tempo": 120.0
            },
            {
                "start_time": 25.454545454545453,
                "end_time": 25.552272727272726,
                "pitch": 90,
                "velocity": 64,
                "duration": 0.09772727272727266,
                "tempo": 120.0
            },
            {
                "start_time": 25.568181818181817,
                "end_time": 25.668181818181818,
                "pitch": 90,
                "velocity": 64,
                "duration": 0.10000000000000142,
                "tempo": 120.0
            },
            {
                "start_time": 25.68409090909091,
                "end_time": 25.784090909090907,
                "pitch": 95,
                "velocity": 64,
                "duration": 0.09999999999999787,
                "tempo": 120.0
            },
            {
                "start_time": 25.799999999999997,
                "end_time": 25.9,
                "pitch": 90,
                "velocity": 64,
                "duration": 0.10000000000000142,
                "tempo": 120.0
            },
            {
                "start_time": 25.93409090909091,
                "end_time": 26.034090909090907,
                "pitch": 90,
                "velocity": 64,
                "duration": 0.09999999999999787,
                "tempo": 120.0
            },
            {
                "start_time": 26.049999999999997,
                "end_time": 26.15,
                "pitch": 90,
                "velocity": 64,
                "duration": 0.10000000000000142,
                "tempo": 120.0
            },
            {
                "start_time": 26.168181818181818,
                "end_time": 26.270454545454545,
                "pitch": 95,
                "velocity": 64,
                "duration": 0.10227272727272663,
                "tempo": 120.0
            },
            {
                "start_time": 26.286363636363635,
                "end_time": 26.388636363636362,
                "pitch": 90,
                "velocity": 64,
                "duration": 0.10227272727272663,
                "tempo": 120.0
            },
            {
                "start_time": 26.40681818181818,
                "end_time": 26.509090909090908,
                "pitch": 90,
                "velocity": 64,
                "duration": 0.10227272727272663,
                "tempo": 120.0
            },
            {
                "start_time": 26.543181818181818,
                "end_time": 26.645454545454545,
                "pitch": 90,
                "velocity": 64,
                "duration": 0.10227272727272663,
                "tempo": 120.0
            },
            {
                "start_time": 26.661363636363635,
                "end_time": 26.76590909090909,
                "pitch": 95,
                "velocity": 64,
                "duration": 0.10454545454545539,
                "tempo": 120.0
            },
            {
                "start_time": 26.78181818181818,
                "end_time": 26.884090909090908,
                "pitch": 90,
                "velocity": 64,
                "duration": 0.10227272727272663,
                "tempo": 120.0
            },
            {
                "start_time": 26.902272727272727,
                "end_time": 27.004545454545454,
                "pitch": 87,
                "velocity": 64,
                "duration": 0.10227272727272663,
                "tempo": 120.0
            },
            {
                "start_time": 27.020454545454545,
                "end_time": 27.12272727272727,
                "pitch": 87,
                "velocity": 64,
                "duration": 0.10227272727272663,
                "tempo": 120.0
            },
            {
                "start_time": 27.15681818181818,
                "end_time": 27.25681818181818,
                "pitch": 92,
                "velocity": 64,
                "duration": 0.09999999999999787,
                "tempo": 120.0
            },
            {
                "start_time": 27.27272727272727,
                "end_time": 27.370454545454542,
                "pitch": 87,
                "velocity": 64,
                "duration": 0.09772727272727266,
                "tempo": 120.0
            },
            {
                "start_time": 27.386363636363637,
                "end_time": 27.486363636363635,
                "pitch": 87,
                "velocity": 64,
                "duration": 0.09999999999999787,
                "tempo": 120.0
            },
            {
                "start_time": 27.502272727272725,
                "end_time": 27.599999999999998,
                "pitch": 87,
                "velocity": 64,
                "duration": 0.09772727272727266,
                "tempo": 120.0
            },
            {
                "start_time": 27.61590909090909,
                "end_time": 27.71590909090909,
                "pitch": 92,
                "velocity": 64,
                "duration": 0.10000000000000142,
                "tempo": 120.0
            },
            {
                "start_time": 27.74772727272727,
                "end_time": 27.845454545454544,
                "pitch": 87,
                "velocity": 64,
                "duration": 0.09772727272727266,
                "tempo": 120.0
            },
            {
                "start_time": 27.863636363636363,
                "end_time": 27.961363636363636,
                "pitch": 87,
                "velocity": 64,
                "duration": 0.09772727272727266,
                "tempo": 120.0
            },
            {
                "start_time": 27.977272727272727,
                "end_time": 28.075,
                "pitch": 87,
                "velocity": 64,
                "duration": 0.09772727272727266,
                "tempo": 120.0
            },
            {
                "start_time": 28.093181818181815,
                "end_time": 28.193181818181817,
                "pitch": 92,
                "velocity": 64,
                "duration": 0.10000000000000142,
                "tempo": 120.0
            },
            {
                "start_time": 28.209090909090907,
                "end_time": 28.311363636363634,
                "pitch": 87,
                "velocity": 64,
                "duration": 0.10227272727272663,
                "tempo": 120.0
            },
            {
                "start_time": 28.345454545454544,
                "end_time": 28.445454545454545,
                "pitch": 87,
                "velocity": 64,
                "duration": 0.10000000000000142,
                "tempo": 120.0
            },
            {
                "start_time": 28.461363636363636,
                "end_time": 28.563636363636363,
                "pitch": 87,
                "velocity": 64,
                "duration": 0.10227272727272663,
                "tempo": 120.0
            },
            {
                "start_time": 28.579545454545453,
                "end_time": 28.68181818181818,
                "pitch": 92,
                "velocity": 64,
                "duration": 0.10227272727272663,
                "tempo": 120.0
            },
            {
                "start_time": 28.7,
                "end_time": 28.802272727272726,
                "pitch": 87,
                "velocity": 64,
                "duration": 0.10227272727272663,
                "tempo": 120.0
            },
            {
                "start_time": 28.818181818181817,
                "end_time": 28.920454545454543,
                "pitch": 90,
                "velocity": 64,
                "duration": 0.10227272727272663,
                "tempo": 120.0
            },
            {
                "start_time": 28.954545454545453,
                "end_time": 29.05681818181818,
                "pitch": 90,
                "velocity": 64,
                "duration": 0.10227272727272663,
                "tempo": 120.0
            },
            {
                "start_time": 29.075,
                "end_time": 29.174999999999997,
                "pitch": 95,
                "velocity": 64,
                "duration": 0.09999999999999787,
                "tempo": 120.0
            },
            {
                "start_time": 29.193181818181817,
                "end_time": 29.293181818181818,
                "pitch": 90,
                "velocity": 64,
                "duration": 0.10000000000000142,
                "tempo": 120.0
            },
            {
                "start_time": 29.30909090909091,
                "end_time": 29.411363636363635,
                "pitch": 90,
                "velocity": 64,
                "duration": 0.10227272727272663,
                "tempo": 120.0
            },
            {
                "start_time": 29.427272727272726,
                "end_time": 29.527272727272727,
                "pitch": 90,
                "velocity": 64,
                "duration": 0.10000000000000142,
                "tempo": 120.0
            },
            {
                "start_time": 29.561363636363634,
                "end_time": 29.66363636363636,
                "pitch": 95,
                "velocity": 64,
                "duration": 0.10227272727272663,
                "tempo": 120.0
            },
            {
                "start_time": 29.679545454545455,
                "end_time": 29.779545454545453,
                "pitch": 90,
                "velocity": 64,
                "duration": 0.09999999999999787,
                "tempo": 120.0
            },
            {
                "start_time": 29.797727272727272,
                "end_time": 29.89772727272727,
                "pitch": 90,
                "velocity": 64,
                "duration": 0.09999999999999787,
                "tempo": 120.0
            },
            {
                "start_time": 29.91363636363636,
                "end_time": 30.01590909090909,
                "pitch": 90,
                "velocity": 64,
                "duration": 0.10227272727273018,
                "tempo": 120.0
            },
            {
                "start_time": 30.03181818181818,
                "end_time": 30.134090909090908,
                "pitch": 95,
                "velocity": 64,
                "duration": 0.10227272727272663,
                "tempo": 120.0
            },
            {
                "start_time": 30.16590909090909,
                "end_time": 30.268181818181816,
                "pitch": 90,
                "velocity": 64,
                "duration": 0.10227272727272663,
                "tempo": 120.0
            },
            {
                "start_time": 30.284090909090907,
                "end_time": 30.384090909090908,
                "pitch": 90,
                "velocity": 64,
                "duration": 0.10000000000000142,
                "tempo": 120.0
            },
            {
                "start_time": 30.402272727272727,
                "end_time": 30.502272727272725,
                "pitch": 90,
                "velocity": 64,
                "duration": 0.09999999999999787,
                "tempo": 120.0
            },
            {
                "start_time": 30.520454545454545,
                "end_time": 30.62272727272727,
                "pitch": 95,
                "velocity": 64,
                "duration": 0.10227272727272663,
                "tempo": 120.0
            },
            {
                "start_time": 30.638636363636362,
                "end_time": 30.74090909090909,
                "pitch": 90,
                "velocity": 64,
                "duration": 0.10227272727272663,
                "tempo": 120.0
            },
            {
                "start_time": 30.775,
                "end_time": 30.877272727272725,
                "pitch": 87,
                "velocity": 64,
                "duration": 0.10227272727272663,
                "tempo": 120.0
            },
            {
                "start_time": 30.895454545454545,
                "end_time": 30.99772727272727,
                "pitch": 87,
                "velocity": 64,
                "duration": 0.10227272727272663,
                "tempo": 120.0
            },
            {
                "start_time": 31.013636363636362,
                "end_time": 31.113636363636363,
                "pitch": 92,
                "velocity": 64,
                "duration": 0.10000000000000142,
                "tempo": 120.0
            },
            {
                "start_time": 31.129545454545454,
                "end_time": 31.227272727272727,
                "pitch": 87,
                "velocity": 64,
                "duration": 0.09772727272727266,
                "tempo": 120.0
            },
            {
                "start_time": 31.243181818181817,
                "end_time": 31.343181818181815,
                "pitch": 87,
                "velocity": 64,
                "duration": 0.09999999999999787,
                "tempo": 120.0
            },
            {
                "start_time": 31.375,
                "end_time": 31.474999999999998,
                "pitch": 87,
                "velocity": 64,
                "duration": 0.09999999999999787,
                "tempo": 120.0
            },
            {
                "start_time": 31.49090909090909,
                "end_time": 31.59090909090909,
                "pitch": 92,
                "velocity": 64,
                "duration": 0.10000000000000142,
                "tempo": 120.0
            },
            {
                "start_time": 31.60681818181818,
                "end_time": 31.709090909090907,
                "pitch": 87,
                "velocity": 64,
                "duration": 0.10227272727272663,
                "tempo": 120.0
            },
            {
                "start_time": 31.724999999999998,
                "end_time": 31.827272727272724,
                "pitch": 87,
                "velocity": 64,
                "duration": 0.10227272727272663,
                "tempo": 120.0
            },
            {
                "start_time": 31.843181818181815,
                "end_time": 31.943181818181817,
                "pitch": 87,
                "velocity": 64,
                "duration": 0.10000000000000142,
                "tempo": 120.0
            },
            {
                "start_time": 31.977272727272727,
                "end_time": 32.07727272727273,
                "pitch": 92,
                "velocity": 64,
                "duration": 0.10000000000000142,
                "tempo": 120.0
            },
            {
                "start_time": 32.09318181818182,
                "end_time": 32.19318181818182,
                "pitch": 87,
                "velocity": 64,
                "duration": 0.10000000000000142,
                "tempo": 120.0
            },
            {
                "start_time": 32.211363636363636,
                "end_time": 32.31136363636364,
                "pitch": 87,
                "velocity": 64,
                "duration": 0.10000000000000142,
                "tempo": 120.0
            },
            {
                "start_time": 32.32727272727273,
                "end_time": 32.42727272727272,
                "pitch": 87,
                "velocity": 64,
                "duration": 0.09999999999999432,
                "tempo": 120.0
            },
            {
                "start_time": 32.44318181818182,
                "end_time": 32.543181818181814,
                "pitch": 92,
                "velocity": 64,
                "duration": 0.09999999999999432,
                "tempo": 120.0
            },
            {
                "start_time": 32.574999999999996,
                "end_time": 32.67272727272727,
                "pitch": 87,
                "velocity": 64,
                "duration": 0.09772727272727622,
                "tempo": 120.0
            },
            {
                "start_time": 32.69090909090909,
                "end_time": 32.788636363636364,
                "pitch": 90,
                "velocity": 64,
                "duration": 0.09772727272727622,
                "tempo": 120.0
            },
            {
                "start_time": 32.804545454545455,
                "end_time": 32.902272727272724,
                "pitch": 90,
                "velocity": 64,
                "duration": 0.09772727272726911,
                "tempo": 120.0
            },
            {
                "start_time": 32.92045454545455,
                "end_time": 33.02045454545454,
                "pitch": 95,
                "velocity": 64,
                "duration": 0.09999999999999432,
                "tempo": 120.0
            },
            {
                "start_time": 33.03636363636363,
                "end_time": 33.138636363636365,
                "pitch": 90,
                "velocity": 64,
                "duration": 0.10227272727273373,
                "tempo": 120.0
            },
            {
                "start_time": 33.17272727272727,
                "end_time": 33.27272727272727,
                "pitch": 90,
                "velocity": 64,
                "duration": 0.10000000000000142,
                "tempo": 120.0
            },
            {
                "start_time": 33.288636363636364,
                "end_time": 33.39090909090909,
                "pitch": 90,
                "velocity": 64,
                "duration": 0.10227272727272663,
                "tempo": 120.0
            },
            {
                "start_time": 33.40681818181818,
                "end_time": 33.50909090909091,
                "pitch": 95,
                "velocity": 64,
                "duration": 0.10227272727272663,
                "tempo": 120.0
            },
            {
                "start_time": 33.527272727272724,
                "end_time": 33.62954545454545,
                "pitch": 90,
                "velocity": 64,
                "duration": 0.10227272727272663,
                "tempo": 120.0
            },
            {
                "start_time": 33.64545454545454,
                "end_time": 33.74772727272727,
                "pitch": 90,
                "velocity": 64,
                "duration": 0.10227272727272663,
                "tempo": 120.0
            },
            {
                "start_time": 33.78181818181818,
                "end_time": 33.88409090909091,
                "pitch": 90,
                "velocity": 64,
                "duration": 0.10227272727272663,
                "tempo": 120.0
            },
            {
                "start_time": 33.902272727272724,
                "end_time": 34.002272727272725,
                "pitch": 95,
                "velocity": 64,
                "duration": 0.10000000000000142,
                "tempo": 120.0
            },
            {
                "start_time": 34.018181818181816,
                "end_time": 34.11818181818182,
                "pitch": 90,
                "velocity": 64,
                "duration": 0.10000000000000142,
                "tempo": 120.0
            },
            {
                "start_time": 34.13636363636363,
                "end_time": 34.236363636363635,
                "pitch": 90,
                "velocity": 64,
                "duration": 0.10000000000000142,
                "tempo": 120.0
            },
            {
                "start_time": 34.252272727272725,
                "end_time": 34.35227272727273,
                "pitch": 90,
                "velocity": 64,
                "duration": 0.10000000000000142,
                "tempo": 120.0
            },
            {
                "start_time": 34.38636363636363,
                "end_time": 34.486363636363635,
                "pitch": 95,
                "velocity": 64,
                "duration": 0.10000000000000142,
                "tempo": 120.0
            },
            {
                "start_time": 34.502272727272725,
                "end_time": 34.60227272727273,
                "pitch": 90,
                "velocity": 64,
                "duration": 0.10000000000000142,
                "tempo": 120.0
            },
            {
                "start_time": 34.61818181818182,
                "end_time": 34.71818181818182,
                "pitch": 87,
                "velocity": 64,
                "duration": 0.10000000000000142,
                "tempo": 120.0
            },
            {
                "start_time": 34.736363636363635,
                "end_time": 34.836363636363636,
                "pitch": 87,
                "velocity": 64,
                "duration": 0.10000000000000142,
                "tempo": 120.0
            },
            {
                "start_time": 34.85227272727273,
                "end_time": 34.949999999999996,
                "pitch": 92,
                "velocity": 64,
                "duration": 0.09772727272726911,
                "tempo": 120.0
            },
            {
                "start_time": 34.98409090909091,
                "end_time": 35.08181818181818,
                "pitch": 87,
                "velocity": 64,
                "duration": 0.09772727272726911,
                "tempo": 120.0
            },
            {
                "start_time": 35.09772727272727,
                "end_time": 35.195454545454545,
                "pitch": 87,
                "velocity": 64,
                "duration": 0.09772727272727622,
                "tempo": 120.0
            },
            {
                "start_time": 35.21363636363636,
                "end_time": 35.31136363636364,
                "pitch": 87,
                "velocity": 64,
                "duration": 0.09772727272727622,
                "tempo": 120.0
            },
            {
                "start_time": 35.32727272727273,
                "end_time": 35.42727272727272,
                "pitch": 92,
                "velocity": 64,
                "duration": 0.09999999999999432,
                "tempo": 120.0
            },
            {
                "start_time": 35.445454545454545,
                "end_time": 35.54545454545455,
                "pitch": 87,
                "velocity": 64,
                "duration": 0.10000000000000142,
                "tempo": 120.0
            },
            {
                "start_time": 35.57727272727273,
                "end_time": 35.67727272727272,
                "pitch": 87,
                "velocity": 64,
                "duration": 0.09999999999999432,
                "tempo": 120.0
            },
            {
                "start_time": 35.695454545454545,
                "end_time": 35.79545454545455,
                "pitch": 87,
                "velocity": 64,
                "duration": 0.10000000000000142,
                "tempo": 120.0
            },
            {
                "start_time": 35.81136363636364,
                "end_time": 35.913636363636364,
                "pitch": 92,
                "velocity": 64,
                "duration": 0.10227272727272663,
                "tempo": 120.0
            },
            {
                "start_time": 35.929545454545455,
                "end_time": 36.03181818181818,
                "pitch": 87,
                "velocity": 64,
                "duration": 0.10227272727272663,
                "tempo": 120.0
            },
            {
                "start_time": 36.05,
                "end_time": 36.152272727272724,
                "pitch": 87,
                "velocity": 64,
                "duration": 0.10227272727272663,
                "tempo": 120.0
            },
            {
                "start_time": 36.18636363636364,
                "end_time": 36.288636363636364,
                "pitch": 87,
                "velocity": 64,
                "duration": 0.10227272727272663,
                "tempo": 120.0
            },
            {
                "start_time": 36.30681818181818,
                "end_time": 36.40681818181818,
                "pitch": 92,
                "velocity": 64,
                "duration": 0.10000000000000142,
                "tempo": 120.0
            },
            {
                "start_time": 36.42272727272727,
                "end_time": 36.52272727272727,
                "pitch": 87,
                "velocity": 64,
                "duration": 0.10000000000000142,
                "tempo": 120.0
            },
            {
                "start_time": 36.538636363636364,
                "end_time": 36.63863636363636,
                "pitch": 90,
                "velocity": 64,
                "duration": 0.09999999999999432,
                "tempo": 120.0
            },
            {
                "start_time": 36.65681818181818,
                "end_time": 36.75681818181818,
                "pitch": 90,
                "velocity": 64,
                "duration": 0.10000000000000142,
                "tempo": 120.0
            },
            {
                "start_time": 36.788636363636364,
                "end_time": 36.89090909090909,
                "pitch": 95,
                "velocity": 64,
                "duration": 0.10227272727272663,
                "tempo": 120.0
            },
            {
                "start_time": 36.90681818181818,
                "end_time": 37.00681818181818,
                "pitch": 90,
                "velocity": 64,
                "duration": 0.10000000000000142,
                "tempo": 120.0
            },
            {
                "start_time": 37.025,
                "end_time": 37.125,
                "pitch": 90,
                "velocity": 64,
                "duration": 0.10000000000000142,
                "tempo": 120.0
            },
            {
                "start_time": 37.143181818181816,
                "end_time": 37.24318181818182,
                "pitch": 90,
                "velocity": 64,
                "duration": 0.10000000000000142,
                "tempo": 120.0
            },
            {
                "start_time": 37.25909090909091,
                "end_time": 37.340909090909086,
                "pitch": 95,
                "velocity": 64,
                "duration": 0.08181818181817846,
                "tempo": 120.0
            },
            {
                "start_time": 37.35909090909091,
                "end_time": 37.48863636363636,
                "pitch": 90,
                "velocity": 64,
                "duration": 0.1295454545454504,
                "tempo": 120.0
            },
            {
                "start_time": 37.50681818181818,
                "end_time": 37.60454545454545,
                "pitch": 90,
                "velocity": 64,
                "duration": 0.09772727272726911,
                "tempo": 120.0
            },
            {
                "start_time": 37.62045454545454,
                "end_time": 37.71818181818182,
                "pitch": 90,
                "velocity": 64,
                "duration": 0.09772727272727622,
                "tempo": 120.0
            },
            {
                "start_time": 37.736363636363635,
                "end_time": 37.836363636363636,
                "pitch": 95,
                "velocity": 64,
                "duration": 0.10000000000000142,
                "tempo": 120.0
            },
            {
                "start_time": 37.85227272727273,
                "end_time": 37.95227272727273,
                "pitch": 90,
                "velocity": 64,
                "duration": 0.10000000000000142,
                "tempo": 120.0
            },
            {
                "start_time": 37.986363636363635,
                "end_time": 38.086363636363636,
                "pitch": 90,
                "velocity": 64,
                "duration": 0.10000000000000142,
                "tempo": 120.0
            },
            {
                "start_time": 38.10227272727273,
                "end_time": 38.20227272727273,
                "pitch": 90,
                "velocity": 64,
                "duration": 0.10000000000000142,
                "tempo": 120.0
            },
            {
                "start_time": 38.21818181818182,
                "end_time": 38.320454545454545,
                "pitch": 95,
                "velocity": 64,
                "duration": 0.10227272727272663,
                "tempo": 120.0
            },
            {
                "start_time": 38.33863636363636,
                "end_time": 38.44090909090909,
                "pitch": 90,
                "velocity": 64,
                "duration": 0.10227272727272663,
                "tempo": 120.0
            },
            {
                "start_time": 38.45681818181818,
                "end_time": 38.559090909090905,
                "pitch": 87,
                "velocity": 64,
                "duration": 0.10227272727272663,
                "tempo": 120.0
            },
            {
                "start_time": 38.595454545454544,
                "end_time": 38.69772727272727,
                "pitch": 87,
                "velocity": 64,
                "duration": 0.10227272727272663,
                "tempo": 120.0
            },
            {
                "start_time": 38.71363636363636,
                "end_time": 38.81590909090909,
                "pitch": 94,
                "velocity": 64,
                "duration": 0.10227272727272663,
                "tempo": 120.0
            },
            {
                "start_time": 38.834090909090904,
                "end_time": 38.93636363636364,
                "pitch": 87,
                "velocity": 64,
                "duration": 0.10227272727273373,
                "tempo": 120.0
            },
            {
                "start_time": 38.95227272727273,
                "end_time": 39.054545454545455,
                "pitch": 87,
                "velocity": 64,
                "duration": 0.10227272727272663,
                "tempo": 120.0
            },
            {
                "start_time": 39.07272727272727,
                "end_time": 39.175,
                "pitch": 92,
                "velocity": 64,
                "duration": 0.10227272727272663,
                "tempo": 120.0
            },
            {
                "start_time": 39.209090909090904,
                "end_time": 39.30681818181818,
                "pitch": 91,
                "velocity": 64,
                "duration": 0.09772727272727622,
                "tempo": 120.0
            },
            {
                "start_time": 39.32272727272727,
                "end_time": 39.42272727272727,
                "pitch": 92,
                "velocity": 64,
                "duration": 0.10000000000000142,
                "tempo": 120.0
            },
            {
                "start_time": 39.43863636363636,
                "end_time": 39.53636363636363,
                "pitch": 87,
                "velocity": 64,
                "duration": 0.09772727272726911,
                "tempo": 120.0
            },
            {
                "start_time": 39.554545454545455,
                "end_time": 39.652272727272724,
                "pitch": 87,
                "velocity": 64,
                "duration": 0.09772727272726911,
                "tempo": 120.0
            },
            {
                "start_time": 39.668181818181814,
                "end_time": 39.768181818181816,
                "pitch": 94,
                "velocity": 64,
                "duration": 0.10000000000000142,
                "tempo": 120.0
            },
            {
                "start_time": 39.80227272727272,
                "end_time": 39.902272727272724,
                "pitch": 87,
                "velocity": 64,
                "duration": 0.10000000000000142,
                "tempo": 120.0
            },
            {
                "start_time": 39.918181818181814,
                "end_time": 40.03409090909091,
                "pitch": 87,
                "velocity": 64,
                "duration": 0.11590909090909207,
                "tempo": 120.0
            }
        ],
        "Harpsichord": [
            {
                "start_time": 0.013636363636363636,
                "end_time": 0.09772727272727272,
                "pitch": 75,
                "velocity": 20,
                "duration": 0.08409090909090908,
                "tempo": 120.0
            },
            {
                "start_time": 0.11136363636363636,
                "end_time": 0.19545454545454544,
                "pitch": 75,
                "velocity": 20,
                "duration": 0.08409090909090908,
                "tempo": 120.0
            },
            {
                "start_time": 0.21136363636363636,
                "end_time": 0.31136363636363634,
                "pitch": 82,
                "velocity": 20,
                "duration": 0.09999999999999998,
                "tempo": 120.0
            },
            {
                "start_time": 0.32727272727272727,
                "end_time": 0.425,
                "pitch": 75,
                "velocity": 20,
                "duration": 0.09772727272727272,
                "tempo": 120.0
            },
            {
                "start_time": 0.45909090909090905,
                "end_time": 0.5568181818181818,
                "pitch": 80,
                "velocity": 20,
                "duration": 0.09772727272727272,
                "tempo": 120.0
            },
            {
                "start_time": 0.5727272727272728,
                "end_time": 0.7863636363636364,
                "pitch": 79,
                "velocity": 20,
                "duration": 0.21363636363636362,
                "tempo": 120.0
            },
            {
                "start_time": 0.8022727272727272,
                "end_time": 1.0159090909090909,
                "pitch": 80,
                "velocity": 20,
                "duration": 0.21363636363636362,
                "tempo": 120.0
            },
            {
                "start_time": 1.0477272727272726,
                "end_time": 1.1477272727272727,
                "pitch": 75,
                "velocity": 20,
                "duration": 0.10000000000000009,
                "tempo": 120.0
            },
            {
                "start_time": 1.1636363636363636,
                "end_time": 1.4727272727272727,
                "pitch": 73,
                "velocity": 20,
                "duration": 0.3090909090909091,
                "tempo": 120.0
            },
            {
                "start_time": 1.4727272727272727,
                "end_time": 1.4909090909090907,
                "pitch": 73,
                "velocity": 20,
                "duration": 0.018181818181818077,
                "tempo": 120.0
            },
            {
                "start_time": 1.5068181818181818,
                "end_time": 1.6068181818181817,
                "pitch": 68,
                "velocity": 20,
                "duration": 0.09999999999999987,
                "tempo": 120.0
            },
            {
                "start_time": 1.6409090909090909,
                "end_time": 1.7454545454545454,
                "pitch": 70,
                "velocity": 20,
                "duration": 0.1045454545454545,
                "tempo": 120.0
            },
            {
                "start_time": 1.7613636363636362,
                "end_time": 1.8659090909090907,
                "pitch": 73,
                "velocity": 20,
                "duration": 0.1045454545454545,
                "tempo": 120.0
            },
            {
                "start_time": 1.884090909090909,
                "end_time": 1.9886363636363635,
                "pitch": 75,
                "velocity": 20,
                "duration": 0.1045454545454545,
                "tempo": 120.0
            },
            {
                "start_time": 2.0045454545454544,
                "end_time": 2.106818181818182,
                "pitch": 75,
                "velocity": 20,
                "duration": 0.10227272727272751,
                "tempo": 120.0
            },
            {
                "start_time": 2.125,
                "end_time": 2.2204545454545452,
                "pitch": 82,
                "velocity": 20,
                "duration": 0.09545454545454524,
                "tempo": 120.0
            },
            {
                "start_time": 2.252272727272727,
                "end_time": 2.3477272727272727,
                "pitch": 75,
                "velocity": 20,
                "duration": 0.09545454545454568,
                "tempo": 120.0
            },
            {
                "start_time": 2.3636363636363633,
                "end_time": 2.4613636363636364,
                "pitch": 80,
                "velocity": 20,
                "duration": 0.0977272727272731,
                "tempo": 120.0
            },
            {
                "start_time": 2.477272727272727,
                "end_time": 2.693181818181818,
                "pitch": 79,
                "velocity": 20,
                "duration": 0.21590909090909083,
                "tempo": 120.0
            },
            {
                "start_time": 2.709090909090909,
                "end_time": 2.9499999999999997,
                "pitch": 80,
                "velocity": 20,
                "duration": 0.24090909090909074,
                "tempo": 120.0
            },
            {
                "start_time": 2.965909090909091,
                "end_time": 3.068181818181818,
                "pitch": 75,
                "velocity": 20,
                "duration": 0.10227272727272707,
                "tempo": 120.0
            },
            {
                "start_time": 3.084090909090909,
                "end_time": 3.418181818181818,
                "pitch": 73,
                "velocity": 20,
                "duration": 0.334090909090909,
                "tempo": 120.0
            },
            {
                "start_time": 3.452272727272727,
                "end_time": 3.5522727272727272,
                "pitch": 68,
                "velocity": 20,
                "duration": 0.10000000000000009,
                "tempo": 120.0
            },
            {
                "start_time": 3.568181818181818,
                "end_time": 3.668181818181818,
                "pitch": 70,
                "velocity": 20,
                "duration": 0.10000000000000009,
                "tempo": 120.0
            },
            {
                "start_time": 3.684090909090909,
                "end_time": 3.7840909090909087,
                "pitch": 73,
                "velocity": 20,
                "duration": 0.09999999999999964,
                "tempo": 120.0
            },
            {
                "start_time": 3.8022727272727272,
                "end_time": 3.902272727272727,
                "pitch": 75,
                "velocity": 20,
                "duration": 0.09999999999999964,
                "tempo": 120.0
            },
            {
                "start_time": 3.918181818181818,
                "end_time": 4.018181818181818,
                "pitch": 75,
                "velocity": 20,
                "duration": 0.09999999999999964,
                "tempo": 120.0
            },
            {
                "start_time": 4.052272727272727,
                "end_time": 4.152272727272727,
                "pitch": 82,
                "velocity": 20,
                "duration": 0.10000000000000053,
                "tempo": 120.0
            },
            {
                "start_time": 4.168181818181818,
                "end_time": 4.268181818181818,
                "pitch": 75,
                "velocity": 20,
                "duration": 0.09999999999999964,
                "tempo": 120.0
            },
            {
                "start_time": 4.284090909090909,
                "end_time": 4.384090909090909,
                "pitch": 80,
                "velocity": 20,
                "duration": 0.09999999999999964,
                "tempo": 120.0
            },
            {
                "start_time": 4.402272727272727,
                "end_time": 4.618181818181818,
                "pitch": 79,
                "velocity": 20,
                "duration": 0.21590909090909083,
                "tempo": 120.0
            },
            {
                "start_time": 4.652272727272727,
                "end_time": 4.870454545454545,
                "pitch": 80,
                "velocity": 20,
                "duration": 0.2181818181818178,
                "tempo": 120.0
            },
            {
                "start_time": 4.888636363636364,
                "end_time": 4.988636363636363,
                "pitch": 75,
                "velocity": 20,
                "duration": 0.09999999999999964,
                "tempo": 120.0
            },
            {
                "start_time": 5.006818181818182,
                "end_time": 5.363636363636363,
                "pitch": 73,
                "velocity": 20,
                "duration": 0.3568181818181815,
                "tempo": 120.0
            },
            {
                "start_time": 5.381818181818182,
                "end_time": 5.4840909090909085,
                "pitch": 68,
                "velocity": 20,
                "duration": 0.10227272727272663,
                "tempo": 120.0
            },
            {
                "start_time": 5.5,
                "end_time": 5.597727272727273,
                "pitch": 70,
                "velocity": 20,
                "duration": 0.09772727272727266,
                "tempo": 120.0
            },
            {
                "start_time": 5.613636363636363,
                "end_time": 5.713636363636363,
                "pitch": 73,
                "velocity": 20,
                "duration": 0.09999999999999964,
                "tempo": 120.0
            },
            {
                "start_time": 5.7295454545454545,
                "end_time": 5.827272727272727,
                "pitch": 75,
                "velocity": 20,
                "duration": 0.09772727272727266,
                "tempo": 120.0
            },
            {
                "start_time": 5.861363636363636,
                "end_time": 5.959090909090909,
                "pitch": 75,
                "velocity": 20,
                "duration": 0.09772727272727266,
                "tempo": 120.0
            },
            {
                "start_time": 5.975,
                "end_time": 6.072727272727272,
                "pitch": 82,
                "velocity": 20,
                "duration": 0.09772727272727266,
                "tempo": 120.0
            },
            {
                "start_time": 6.090909090909091,
                "end_time": 6.1886363636363635,
                "pitch": 75,
                "velocity": 20,
                "duration": 0.09772727272727266,
                "tempo": 120.0
            },
            {
                "start_time": 6.204545454545454,
                "end_time": 6.302272727272727,
                "pitch": 80,
                "velocity": 20,
                "duration": 0.09772727272727266,
                "tempo": 120.0
            },
            {
                "start_time": 6.320454545454545,
                "end_time": 6.552272727272727,
                "pitch": 79,
                "velocity": 20,
                "duration": 0.23181818181818148,
                "tempo": 120.0
            },
            {
                "start_time": 6.570454545454545,
                "end_time": 6.670454545454545,
                "pitch": 80,
                "velocity": 20,
                "duration": 0.09999999999999964,
                "tempo": 120.0
            },
            {
                "start_time": 6.686363636363636,
                "end_time": 6.788636363636363,
                "pitch": 80,
                "velocity": 20,
                "duration": 0.10227272727272751,
                "tempo": 120.0
            },
            {
                "start_time": 6.804545454545454,
                "end_time": 6.906818181818181,
                "pitch": 80,
                "velocity": 20,
                "duration": 0.10227272727272751,
                "tempo": 120.0
            },
            {
                "start_time": 6.922727272727272,
                "end_time": 7.161363636363636,
                "pitch": 79,
                "velocity": 20,
                "duration": 0.2386363636363642,
                "tempo": 120.0
            },
            {
                "start_time": 7.179545454545454,
                "end_time": 7.3999999999999995,
                "pitch": 75,
                "velocity": 20,
                "duration": 0.22045454545454568,
                "tempo": 120.0
            },
            {
                "start_time": 7.418181818181818,
                "end_time": 7.5204545454545455,
                "pitch": 85,
                "velocity": 20,
                "duration": 0.10227272727272751,
                "tempo": 120.0
            },
            {
                "start_time": 7.538636363636363,
                "end_time": 7.640909090909091,
                "pitch": 85,
                "velocity": 20,
                "duration": 0.10227272727272751,
                "tempo": 120.0
            },
            {
                "start_time": 7.675,
                "end_time": 8.011363636363637,
                "pitch": 80,
                "velocity": 20,
                "duration": 0.33636363636363686,
                "tempo": 120.0
            },
            {
                "start_time": 8.027272727272727,
                "end_time": 8.125,
                "pitch": 87,
                "velocity": 20,
                "duration": 0.09772727272727266,
                "tempo": 120.0
            },
            {
                "start_time": 8.14090909090909,
                "end_time": 8.24090909090909,
                "pitch": 85,
                "velocity": 20,
                "duration": 0.09999999999999964,
                "tempo": 120.0
            },
            {
                "start_time": 8.272727272727272,
                "end_time": 8.486363636363636,
                "pitch": 83,
                "velocity": 20,
                "duration": 0.21363636363636473,
                "tempo": 120.0
            },
            {
                "start_time": 8.502272727272727,
                "end_time": 8.71590909090909,
                "pitch": 83,
                "velocity": 20,
                "duration": 0.21363636363636296,
                "tempo": 120.0
            },
            {
                "start_time": 8.73181818181818,
                "end_time": 8.829545454545453,
                "pitch": 78,
                "velocity": 20,
                "duration": 0.09772727272727266,
                "tempo": 120.0
            },
            {
                "start_time": 8.86590909090909,
                "end_time": 8.968181818181817,
                "pitch": 80,
                "velocity": 20,
                "duration": 0.10227272727272663,
                "tempo": 120.0
            },
            {
                "start_time": 8.986363636363636,
                "end_time": 9.09090909090909,
                "pitch": 82,
                "velocity": 20,
                "duration": 0.10454545454545361,
                "tempo": 120.0
            },
            {
                "start_time": 9.10909090909091,
                "end_time": 9.334090909090909,
                "pitch": 95,
                "velocity": 20,
                "duration": 0.22499999999999964,
                "tempo": 120.0
            },
            {
                "start_time": 9.35,
                "end_time": 9.579545454545453,
                "pitch": 94,
                "velocity": 20,
                "duration": 0.2295454545454536,
                "tempo": 120.0
            },
            {
                "start_time": 9.595454545454546,
                "end_time": 9.927272727272726,
                "pitch": 80,
                "velocity": 20,
                "duration": 0.33181818181818024,
                "tempo": 120.0
            },
            {
                "start_time": 9.943181818181818,
                "end_time": 10.045454545454545,
                "pitch": 87,
                "velocity": 20,
                "duration": 0.10227272727272663,
                "tempo": 120.0
            },
            {
                "start_time": 10.077272727272726,
                "end_time": 10.179545454545455,
                "pitch": 85,
                "velocity": 20,
                "duration": 0.1022727272727284,
                "tempo": 120.0
            },
            {
                "start_time": 10.195454545454545,
                "end_time": 10.413636363636362,
                "pitch": 83,
                "velocity": 20,
                "duration": 0.21818181818181692,
                "tempo": 120.0
            },
            {
                "start_time": 10.431818181818182,
                "end_time": 10.65,
                "pitch": 82,
                "velocity": 20,
                "duration": 0.2181818181818187,
                "tempo": 120.0
            },
            {
                "start_time": 10.681818181818182,
                "end_time": 10.897727272727272,
                "pitch": 94,
                "velocity": 20,
                "duration": 0.21590909090908994,
                "tempo": 120.0
            },
            {
                "start_time": 10.913636363636362,
                "end_time": 11.127272727272727,
                "pitch": 92,
                "velocity": 20,
                "duration": 0.21363636363636473,
                "tempo": 120.0
            },
            {
                "start_time": 11.143181818181818,
                "end_time": 11.243181818181817,
                "pitch": 95,
                "velocity": 20,
                "duration": 0.09999999999999964,
                "tempo": 120.0
            },
            {
                "start_time": 11.277272727272727,
                "end_time": 11.502272727272727,
                "pitch": 94,
                "velocity": 20,
                "duration": 0.22499999999999964,
                "tempo": 120.0
            },
            {
                "start_time": 11.520454545454545,
                "end_time": 11.85909090909091,
                "pitch": 80,
                "velocity": 20,
                "duration": 0.33863636363636473,
                "tempo": 120.0
            },
            {
                "start_time": 11.893181818181818,
                "end_time": 11.99090909090909,
                "pitch": 87,
                "velocity": 20,
                "duration": 0.09772727272727266,
                "tempo": 120.0
            },
            {
                "start_time": 12.006818181818181,
                "end_time": 12.104545454545454,
                "pitch": 85,
                "velocity": 20,
                "duration": 0.09772727272727266,
                "tempo": 120.0
            },
            {
                "start_time": 12.122727272727273,
                "end_time": 12.338636363636363,
                "pitch": 83,
                "velocity": 20,
                "duration": 0.21590909090908994,
                "tempo": 120.0
            },
            {
                "start_time": 12.354545454545454,
                "end_time": 12.59090909090909,
                "pitch": 83,
                "velocity": 20,
                "duration": 0.23636363636363633,
                "tempo": 120.0
            },
            {
                "start_time": 12.60681818181818,
                "end_time": 12.706818181818182,
                "pitch": 78,
                "velocity": 20,
                "duration": 0.10000000000000142,
                "tempo": 120.0
            },
            {
                "start_time": 12.725,
                "end_time": 12.825,
                "pitch": 80,
                "velocity": 20,
                "duration": 0.09999999999999964,
                "tempo": 120.0
            },
            {
                "start_time": 12.84090909090909,
                "end_time": 12.94090909090909,
                "pitch": 82,
                "velocity": 20,
                "duration": 0.09999999999999964,
                "tempo": 120.0
            },
            {
                "start_time": 12.956818181818182,
                "end_time": 13.19090909090909,
                "pitch": 95,
                "velocity": 20,
                "duration": 0.23409090909090757,
                "tempo": 120.0
            },
            {
                "start_time": 13.209090909090909,
                "end_time": 13.427272727272726,
                "pitch": 94,
                "velocity": 20,
                "duration": 0.21818181818181692,
                "tempo": 120.0
            },
            {
                "start_time": 13.443181818181818,
                "end_time": 13.543181818181818,
                "pitch": 92,
                "velocity": 20,
                "duration": 0.09999999999999964,
                "tempo": 120.0
            },
            {
                "start_time": 13.561363636363636,
                "end_time": 13.793181818181818,
                "pitch": 87,
                "velocity": 20,
                "duration": 0.23181818181818237,
                "tempo": 120.0
            },
            {
                "start_time": 13.809090909090909,
                "end_time": 14.022727272727272,
                "pitch": 85,
                "velocity": 20,
                "duration": 0.21363636363636296,
                "tempo": 120.0
            },
            {
                "start_time": 14.038636363636362,
                "end_time": 14.136363636363635,
                "pitch": 83,
                "velocity": 20,
                "duration": 0.09772727272727266,
                "tempo": 120.0
            },
            {
                "start_time": 14.154545454545454,
                "end_time": 14.256818181818181,
                "pitch": 83,
                "velocity": 20,
                "duration": 0.10227272727272663,
                "tempo": 120.0
            },
            {
                "start_time": 14.290909090909091,
                "end_time": 14.86590909090909,
                "pitch": 82,
                "velocity": 20,
                "duration": 0.5749999999999993,
                "tempo": 120.0
            },
            {
                "start_time": 14.897727272727272,
                "end_time": 15.11590909090909,
                "pitch": 78,
                "velocity": 20,
                "duration": 0.2181818181818187,
                "tempo": 120.0
            },
            {
                "start_time": 15.131818181818181,
                "end_time": 15.354545454545454,
                "pitch": 80,
                "velocity": 20,
                "duration": 0.22272727272727266,
                "tempo": 120.0
            },
            {
                "start_time": 15.372727272727271,
                "end_time": 15.720454545454544,
                "pitch": 80,
                "velocity": 20,
                "duration": 0.34772727272727266,
                "tempo": 120.0
            },
            {
                "start_time": 15.736363636363636,
                "end_time": 15.834090909090909,
                "pitch": 87,
                "velocity": 20,
                "duration": 0.09772727272727266,
                "tempo": 120.0
            },
            {
                "start_time": 15.85,
                "end_time": 15.945454545454545,
                "pitch": 85,
                "velocity": 20,
                "duration": 0.09545454545454568,
                "tempo": 120.0
            },
            {
                "start_time": 15.961363636363636,
                "end_time": 16.195454545454545,
                "pitch": 83,
                "velocity": 20,
                "duration": 0.23409090909090935,
                "tempo": 120.0
            },
            {
                "start_time": 16.211363636363636,
                "end_time": 16.43409090909091,
                "pitch": 83,
                "velocity": 20,
                "duration": 0.22272727272727266,
                "tempo": 120.0
            },
            {
                "start_time": 16.45,
                "end_time": 16.552272727272726,
                "pitch": 78,
                "velocity": 20,
                "duration": 0.10227272727272663,
                "tempo": 120.0
            },
            {
                "start_time": 16.570454545454545,
                "end_time": 16.670454545454543,
                "pitch": 80,
                "velocity": 20,
                "duration": 0.09999999999999787,
                "tempo": 120.0
            },
            {
                "start_time": 16.704545454545453,
                "end_time": 16.804545454545455,
                "pitch": 82,
                "velocity": 20,
                "duration": 0.10000000000000142,
                "tempo": 120.0
            },
            {
                "start_time": 16.82272727272727,
                "end_time": 17.04090909090909,
                "pitch": 95,
                "velocity": 20,
                "duration": 0.2181818181818187,
                "tempo": 120.0
            },
            {
                "start_time": 17.05681818181818,
                "end_time": 17.279545454545453,
                "pitch": 94,
                "velocity": 20,
                "duration": 0.22272727272727266,
                "tempo": 120.0
            },
            {
                "start_time": 17.313636363636363,
                "end_time": 17.65,
                "pitch": 80,
                "velocity": 20,
                "duration": 0.336363636363636,
                "tempo": 120.0
            },
            {
                "start_time": 17.66590909090909,
                "end_time": 17.763636363636362,
                "pitch": 87,
                "velocity": 20,
                "duration": 0.09772727272727266,
                "tempo": 120.0
            },
            {
                "start_time": 17.78181818181818,
                "end_time": 17.879545454545454,
                "pitch": 85,
                "velocity": 20,
                "duration": 0.09772727272727266,
                "tempo": 120.0
            },
            {
                "start_time": 17.911363636363635,
                "end_time": 18.125,
                "pitch": 83,
                "velocity": 20,
                "duration": 0.21363636363636473,
                "tempo": 120.0
            },
            {
                "start_time": 18.14090909090909,
                "end_time": 18.470454545454544,
                "pitch": 82,
                "velocity": 20,
                "duration": 0.32954545454545325,
                "tempo": 120.0
            },
            {
                "start_time": 18.504545454545454,
                "end_time": 18.60909090909091,
                "pitch": 94,
                "velocity": 20,
                "duration": 0.10454545454545539,
                "tempo": 120.0
            },
            {
                "start_time": 18.625,
                "end_time": 18.852272727272727,
                "pitch": 92,
                "velocity": 20,
                "duration": 0.22727272727272663,
                "tempo": 120.0
            },
            {
                "start_time": 18.868181818181817,
                "end_time": 18.972727272727273,
                "pitch": 95,
                "velocity": 20,
                "duration": 0.10454545454545539,
                "tempo": 120.0
            },
            {
                "start_time": 18.988636363636363,
                "end_time": 19.21818181818182,
                "pitch": 94,
                "velocity": 20,
                "duration": 0.22954545454545539,
                "tempo": 120.0
            },
            {
                "start_time": 19.23409090909091,
                "end_time": 19.56590909090909,
                "pitch": 80,
                "velocity": 20,
                "duration": 0.331818181818182,
                "tempo": 120.0
            },
            {
                "start_time": 19.581818181818182,
                "end_time": 19.68409090909091,
                "pitch": 87,
                "velocity": 20,
                "duration": 0.10227272727272663,
                "tempo": 120.0
            },
            {
                "start_time": 19.71818181818182,
                "end_time": 19.818181818181817,
                "pitch": 85,
                "velocity": 20,
                "duration": 0.09999999999999787,
                "tempo": 120.0
            },
            {
                "start_time": 19.834090909090907,
                "end_time": 20.052272727272726,
                "pitch": 83,
                "velocity": 20,
                "duration": 0.2181818181818187,
                "tempo": 120.0
            },
            {
                "start_time": 20.068181818181817,
                "end_time": 20.286363636363635,
                "pitch": 83,
                "velocity": 20,
                "duration": 0.2181818181818187,
                "tempo": 120.0
            },
            {
                "start_time": 20.318181818181817,
                "end_time": 20.418181818181818,
                "pitch": 78,
                "velocity": 20,
                "duration": 0.10000000000000142,
                "tempo": 120.0
            },
            {
                "start_time": 20.43409090909091,
                "end_time": 20.534090909090907,
                "pitch": 80,
                "velocity": 20,
                "duration": 0.09999999999999787,
                "tempo": 120.0
            },
            {
                "start_time": 20.55,
                "end_time": 20.647727272727273,
                "pitch": 82,
                "velocity": 20,
                "duration": 0.09772727272727266,
                "tempo": 120.0
            },
            {
                "start_time": 20.663636363636364,
                "end_time": 20.877272727272725,
                "pitch": 95,
                "velocity": 20,
                "duration": 0.21363636363636118,
                "tempo": 120.0
            },
            {
                "start_time": 20.911363636363635,
                "end_time": 21.138636363636362,
                "pitch": 94,
                "velocity": 20,
                "duration": 0.22727272727272663,
                "tempo": 120.0
            },
            {
                "start_time": 21.154545454545453,
                "end_time": 21.259090909090908,
                "pitch": 68,
                "velocity": 20,
                "duration": 0.10454545454545539,
                "tempo": 120.0
            },
            {
                "start_time": 21.277272727272727,
                "end_time": 21.379545454545454,
                "pitch": 68,
                "velocity": 20,
                "duration": 0.10227272727272663,
                "tempo": 120.0
            },
            {
                "start_time": 21.395454545454545,
                "end_time": 21.627272727272725,
                "pitch": 70,
                "velocity": 20,
                "duration": 0.2318181818181806,
                "tempo": 120.0
            },
            {
                "start_time": 21.643181818181816,
                "end_time": 21.85681818181818,
                "pitch": 71,
                "velocity": 20,
                "duration": 0.21363636363636473,
                "tempo": 120.0
            },
            {
                "start_time": 21.87272727272727,
                "end_time": 21.974999999999998,
                "pitch": 73,
                "velocity": 20,
                "duration": 0.10227272727272663,
                "tempo": 120.0
            },
            {
                "start_time": 21.993181818181817,
                "end_time": 22.095454545454544,
                "pitch": 73,
                "velocity": 20,
                "duration": 0.10227272727272663,
                "tempo": 120.0
            },
            {
                "start_time": 22.129545454545454,
                "end_time": 22.23181818181818,
                "pitch": 75,
                "velocity": 20,
                "duration": 0.10227272727272663,
                "tempo": 120.0
            },
            {
                "start_time": 22.24772727272727,
                "end_time": 22.349999999999998,
                "pitch": 75,
                "velocity": 20,
                "duration": 0.10227272727272663,
                "tempo": 120.0
            },
            {
                "start_time": 22.36590909090909,
                "end_time": 22.46590909090909,
                "pitch": 75,
                "velocity": 20,
                "duration": 0.10000000000000142,
                "tempo": 120.0
            },
            {
                "start_time": 22.48181818181818,
                "end_time": 22.579545454545453,
                "pitch": 80,
                "velocity": 20,
                "duration": 0.09772727272727266,
                "tempo": 120.0
            },
            {
                "start_time": 22.595454545454544,
                "end_time": 22.695454545454545,
                "pitch": 73,
                "velocity": 20,
                "duration": 0.10000000000000142,
                "tempo": 120.0
            },
            {
                "start_time": 22.727272727272727,
                "end_time": 22.827272727272724,
                "pitch": 73,
                "velocity": 20,
                "duration": 0.09999999999999787,
                "tempo": 120.0
            },
            {
                "start_time": 22.84318181818182,
                "end_time": 22.943181818181817,
                "pitch": 73,
                "velocity": 20,
                "duration": 0.09999999999999787,
                "tempo": 120.0
            },
            {
                "start_time": 22.961363636363636,
                "end_time": 23.061363636363634,
                "pitch": 73,
                "velocity": 20,
                "duration": 0.09999999999999787,
                "tempo": 120.0
            },
            {
                "start_time": 23.079545454545453,
                "end_time": 23.43181818181818,
                "pitch": 75,
                "velocity": 20,
                "duration": 0.3522727272727266,
                "tempo": 120.0
            },
            {
                "start_time": 23.44772727272727,
                "end_time": 23.549999999999997,
                "pitch": 83,
                "velocity": 20,
                "duration": 0.10227272727272663,
                "tempo": 120.0
            },
            {
                "start_time": 23.56590909090909,
                "end_time": 23.66590909090909,
                "pitch": 82,
                "velocity": 20,
                "duration": 0.09999999999999787,
                "tempo": 120.0
            },
            {
                "start_time": 23.68409090909091,
                "end_time": 23.9,
                "pitch": 80,
                "velocity": 20,
                "duration": 0.21590909090908994,
                "tempo": 120.0
            },
            {
                "start_time": 23.93409090909091,
                "end_time": 24.15,
                "pitch": 78,
                "velocity": 20,
                "duration": 0.21590909090908994,
                "tempo": 120.0
            },
            {
                "start_time": 24.168181818181818,
                "end_time": 24.99090909090909,
                "pitch": 77,
                "velocity": 20,
                "duration": 0.8227272727272705,
                "tempo": 120.0
            },
            {
                "start_time": 25.00681818181818,
                "end_time": 25.35681818181818,
                "pitch": 77,
                "velocity": 20,
                "duration": 0.3500000000000014,
                "tempo": 120.0
            },
            {
                "start_time": 25.37272727272727,
                "end_time": 25.470454545454544,
                "pitch": 85,
                "velocity": 20,
                "duration": 0.09772727272727266,
                "tempo": 120.0
            },
            {
                "start_time": 25.486363636363635,
                "end_time": 25.586363636363636,
                "pitch": 83,
                "velocity": 20,
                "duration": 0.10000000000000142,
                "tempo": 120.0
            },
            {
                "start_time": 25.602272727272727,
                "end_time": 25.834090909090907,
                "pitch": 82,
                "velocity": 20,
                "duration": 0.2318181818181806,
                "tempo": 120.0
            },
            {
                "start_time": 25.849999999999998,
                "end_time": 26.068181818181817,
                "pitch": 85,
                "velocity": 20,
                "duration": 0.2181818181818187,
                "tempo": 120.0
            },
            {
                "start_time": 26.084090909090907,
                "end_time": 26.18409090909091,
                "pitch": 82,
                "velocity": 20,
                "duration": 0.10000000000000142,
                "tempo": 120.0
            },
            {
                "start_time": 26.202272727272724,
                "end_time": 26.304545454545455,
                "pitch": 83,
                "velocity": 20,
                "duration": 0.10227272727273018,
                "tempo": 120.0
            },
            {
                "start_time": 26.33863636363636,
                "end_time": 26.44090909090909,
                "pitch": 85,
                "velocity": 20,
                "duration": 0.10227272727273018,
                "tempo": 120.0
            },
            {
                "start_time": 26.456818181818182,
                "end_time": 26.679545454545455,
                "pitch": 83,
                "velocity": 20,
                "duration": 0.22272727272727266,
                "tempo": 120.0
            },
            {
                "start_time": 26.695454545454545,
                "end_time": 26.918181818181818,
                "pitch": 82,
                "velocity": 20,
                "duration": 0.22272727272727266,
                "tempo": 120.0
            },
            {
                "start_time": 26.952272727272724,
                "end_time": 27.288636363636364,
                "pitch": 75,
                "velocity": 20,
                "duration": 0.33636363636363953,
                "tempo": 120.0
            },
            {
                "start_time": 27.304545454545455,
                "end_time": 27.404545454545453,
                "pitch": 75,
                "velocity": 20,
                "duration": 0.09999999999999787,
                "tempo": 120.0
            },
            {
                "start_time": 27.420454545454543,
                "end_time": 27.518181818181816,
                "pitch": 80,
                "velocity": 20,
                "duration": 0.09772727272727266,
                "tempo": 120.0
            },
            {
                "start_time": 27.552272727272726,
                "end_time": 27.763636363636362,
                "pitch": 78,
                "velocity": 20,
                "duration": 0.21136363636363598,
                "tempo": 120.0
            },
            {
                "start_time": 27.78181818181818,
                "end_time": 28.852272727272727,
                "pitch": 77,
                "velocity": 20,
                "duration": 1.0704545454545453,
                "tempo": 120.0
            },
            {
                "start_time": 28.870454545454542,
                "end_time": 29.209090909090907,
                "pitch": 78,
                "velocity": 20,
                "duration": 0.33863636363636473,
                "tempo": 120.0
            },
            {
                "start_time": 29.224999999999998,
                "end_time": 29.327272727272724,
                "pitch": 85,
                "velocity": 20,
                "duration": 0.10227272727272663,
                "tempo": 120.0
            },
            {
                "start_time": 29.361363636363635,
                "end_time": 29.461363636363636,
                "pitch": 83,
                "velocity": 20,
                "duration": 0.10000000000000142,
                "tempo": 120.0
            },
            {
                "start_time": 29.477272727272727,
                "end_time": 29.695454545454545,
                "pitch": 82,
                "velocity": 20,
                "duration": 0.2181818181818187,
                "tempo": 120.0
            },
            {
                "start_time": 29.71363636363636,
                "end_time": 29.93181818181818,
                "pitch": 82,
                "velocity": 20,
                "duration": 0.2181818181818187,
                "tempo": 120.0
            },
            {
                "start_time": 29.96590909090909,
                "end_time": 30.065909090909088,
                "pitch": 80,
                "velocity": 20,
                "duration": 0.09999999999999787,
                "tempo": 120.0
            },
            {
                "start_time": 30.081818181818182,
                "end_time": 30.18409090909091,
                "pitch": 82,
                "velocity": 20,
                "duration": 0.10227272727272663,
                "tempo": 120.0
            },
            {
                "start_time": 30.2,
                "end_time": 30.299999999999997,
                "pitch": 83,
                "velocity": 20,
                "duration": 0.09999999999999787,
                "tempo": 120.0
            },
            {
                "start_time": 30.318181818181817,
                "end_time": 30.536363636363635,
                "pitch": 85,
                "velocity": 20,
                "duration": 0.2181818181818187,
                "tempo": 120.0
            },
            {
                "start_time": 30.570454545454545,
                "end_time": 30.793181818181818,
                "pitch": 83,
                "velocity": 20,
                "duration": 0.22272727272727266,
                "tempo": 120.0
            },
            {
                "start_time": 30.80909090909091,
                "end_time": 31.145454545454545,
                "pitch": 75,
                "velocity": 20,
                "duration": 0.336363636363636,
                "tempo": 120.0
            },
            {
                "start_time": 31.179545454545455,
                "end_time": 31.277272727272727,
                "pitch": 82,
                "velocity": 20,
                "duration": 0.09772727272727266,
                "tempo": 120.0
            },
            {
                "start_time": 31.293181818181818,
                "end_time": 31.39090909090909,
                "pitch": 80,
                "velocity": 20,
                "duration": 0.09772727272727266,
                "tempo": 120.0
            },
            {
                "start_time": 31.409090909090907,
                "end_time": 31.625,
                "pitch": 78,
                "velocity": 20,
                "duration": 0.2159090909090935,
                "tempo": 120.0
            },
            {
                "start_time": 31.64090909090909,
                "end_time": 32.70681818181818,
                "pitch": 77,
                "velocity": 20,
                "duration": 1.0659090909090878,
                "tempo": 120.0
            },
            {
                "start_time": 32.72272727272727,
                "end_time": 33.070454545454545,
                "pitch": 78,
                "velocity": 20,
                "duration": 0.3477272727272762,
                "tempo": 120.0
            },
            {
                "start_time": 33.08863636363636,
                "end_time": 33.18863636363636,
                "pitch": 85,
                "velocity": 20,
                "duration": 0.10000000000000142,
                "tempo": 120.0
            },
            {
                "start_time": 33.20454545454545,
                "end_time": 33.30681818181818,
                "pitch": 83,
                "velocity": 20,
                "duration": 0.10227272727272663,
                "tempo": 120.0
            },
            {
                "start_time": 33.32272727272727,
                "end_time": 33.543181818181814,
                "pitch": 82,
                "velocity": 20,
                "duration": 0.2204545454545439,
                "tempo": 120.0
            },
            {
                "start_time": 33.57727272727273,
                "end_time": 33.8,
                "pitch": 82,
                "velocity": 20,
                "duration": 0.2227272727272691,
                "tempo": 120.0
            },
            {
                "start_time": 33.81590909090909,
                "end_time": 34.03636363636363,
                "pitch": 80,
                "velocity": 20,
                "duration": 0.2204545454545439,
                "tempo": 120.0
            },
            {
                "start_time": 34.05227272727272,
                "end_time": 34.28636363636363,
                "pitch": 82,
                "velocity": 20,
                "duration": 0.23409090909090935,
                "tempo": 120.0
            },
            {
                "start_time": 34.30227272727272,
                "end_time": 34.402272727272724,
                "pitch": 80,
                "velocity": 20,
                "duration": 0.10000000000000142,
                "tempo": 120.0
            },
            {
                "start_time": 34.418181818181814,
                "end_time": 34.518181818181816,
                "pitch": 82,
                "velocity": 20,
                "duration": 0.10000000000000142,
                "tempo": 120.0
            },
            {
                "start_time": 34.53636363636363,
                "end_time": 34.63636363636363,
                "pitch": 83,
                "velocity": 20,
                "duration": 0.10000000000000142,
                "tempo": 120.0
            },
            {
                "start_time": 34.652272727272724,
                "end_time": 35.0,
                "pitch": 75,
                "velocity": 20,
                "duration": 0.3477272727272762,
                "tempo": 120.0
            },
            {
                "start_time": 35.01590909090909,
                "end_time": 35.11363636363636,
                "pitch": 75,
                "velocity": 20,
                "duration": 0.09772727272726911,
                "tempo": 120.0
            },
            {
                "start_time": 35.13181818181818,
                "end_time": 35.22954545454545,
                "pitch": 80,
                "velocity": 20,
                "duration": 0.09772727272726911,
                "tempo": 120.0
            },
            {
                "start_time": 35.24545454545454,
                "end_time": 35.47727272727273,
                "pitch": 78,
                "velocity": 20,
                "duration": 0.23181818181818414,
                "tempo": 120.0
            },
            {
                "start_time": 35.49545454545454,
                "end_time": 36.55681818181818,
                "pitch": 77,
                "velocity": 20,
                "duration": 1.0613636363636374,
                "tempo": 120.0
            },
            {
                "start_time": 36.58863636363636,
                "end_time": 36.92272727272727,
                "pitch": 78,
                "velocity": 20,
                "duration": 0.33409090909091077,
                "tempo": 120.0
            },
            {
                "start_time": 36.94090909090909,
                "end_time": 37.04090909090909,
                "pitch": 85,
                "velocity": 20,
                "duration": 0.10000000000000142,
                "tempo": 120.0
            },
            {
                "start_time": 37.059090909090905,
                "end_time": 37.15909090909091,
                "pitch": 83,
                "velocity": 20,
                "duration": 0.10000000000000142,
                "tempo": 120.0
            },
            {
                "start_time": 37.19318181818181,
                "end_time": 37.40681818181818,
                "pitch": 85,
                "velocity": 20,
                "duration": 0.2136363636363683,
                "tempo": 120.0
            },
            {
                "start_time": 37.425,
                "end_time": 37.63636363636363,
                "pitch": 82,
                "velocity": 20,
                "duration": 0.21136363636363598,
                "tempo": 120.0
            },
            {
                "start_time": 37.654545454545456,
                "end_time": 37.88636363636363,
                "pitch": 83,
                "velocity": 20,
                "duration": 0.23181818181817704,
                "tempo": 120.0
            },
            {
                "start_time": 37.902272727272724,
                "end_time": 38.11818181818182,
                "pitch": 85,
                "velocity": 20,
                "duration": 0.2159090909090935,
                "tempo": 120.0
            },
            {
                "start_time": 38.13636363636363,
                "end_time": 38.236363636363635,
                "pitch": 80,
                "velocity": 20,
                "duration": 0.10000000000000142,
                "tempo": 120.0
            },
            {
                "start_time": 38.252272727272725,
                "end_time": 38.49090909090909,
                "pitch": 80,
                "velocity": 20,
                "duration": 0.23863636363636687,
                "tempo": 120.0
            },
            {
                "start_time": 38.50909090909091,
                "end_time": 38.611363636363635,
                "pitch": 75,
                "velocity": 20,
                "duration": 0.10227272727272663,
                "tempo": 120.0
            },
            {
                "start_time": 38.62954545454545,
                "end_time": 38.73181818181818,
                "pitch": 75,
                "velocity": 20,
                "duration": 0.10227272727272663,
                "tempo": 120.0
            },
            {
                "start_time": 38.74772727272727,
                "end_time": 38.85,
                "pitch": 82,
                "velocity": 20,
                "duration": 0.10227272727273373,
                "tempo": 120.0
            },
            {
                "start_time": 38.86818181818182,
                "end_time": 38.970454545454544,
                "pitch": 75,
                "velocity": 20,
                "duration": 0.10227272727272663,
                "tempo": 120.0
            },
            {
                "start_time": 39.00454545454545,
                "end_time": 39.10681818181818,
                "pitch": 80,
                "velocity": 20,
                "duration": 0.10227272727272663,
                "tempo": 120.0
            },
            {
                "start_time": 39.12272727272727,
                "end_time": 39.340909090909086,
                "pitch": 79,
                "velocity": 20,
                "duration": 0.2181818181818187,
                "tempo": 120.0
            },
            {
                "start_time": 39.35681818181818,
                "end_time": 39.570454545454545,
                "pitch": 80,
                "velocity": 20,
                "duration": 0.2136363636363683,
                "tempo": 120.0
            },
            {
                "start_time": 39.60227272727273,
                "end_time": 39.70227272727273,
                "pitch": 75,
                "velocity": 20,
                "duration": 0.10000000000000142,
                "tempo": 120.0
            },
            {
                "start_time": 39.71818181818182,
                "end_time": 40.03409090909091,
                "pitch": 73,
                "velocity": 20,
                "duration": 0.3159090909090878,
                "tempo": 120.0
            }
        ]
    }
}