{
    "track_id": "Zillion II (FM) - 03 - Inside Base",
    "mood": "happy",
    "instruments": {
        "Acoustic Bass": [
            {
                "start_time": 0.5386363636363636,
                "end_time": 0.8568181818181818,
                "pitch": 31,
                "velocity": 64,
                "duration": 0.31818181818181823,
                "tempo": 120.0
            },
            {
                "start_time": 0.8727272727272727,
                "end_time": 1.2,
                "pitch": 31,
                "velocity": 64,
                "duration": 0.32727272727272727,
                "tempo": 120.0
            },
            {
                "start_time": 1.2159090909090908,
                "end_time": 1.534090909090909,
                "pitch": 31,
                "velocity": 64,
                "duration": 0.3181818181818181,
                "tempo": 120.0
            },
            {
                "start_time": 1.5522727272727272,
                "end_time": 1.8954545454545453,
                "pitch": 31,
                "velocity": 64,
                "duration": 0.34318181818181803,
                "tempo": 120.0
            },
            {
                "start_time": 1.9136363636363636,
                "end_time": 2.2409090909090907,
                "pitch": 31,
                "velocity": 64,
                "duration": 0.32727272727272716,
                "tempo": 120.0
            },
            {
                "start_time": 2.256818181818182,
                "end_time": 2.4136363636363636,
                "pitch": 43,
                "velocity": 64,
                "duration": 0.15681818181818175,
                "tempo": 120.0
            },
            {
                "start_time": 2.4295454545454542,
                "end_time": 2.752272727272727,
                "pitch": 31,
                "velocity": 64,
                "duration": 0.32272727272727275,
                "tempo": 120.0
            },
            {
                "start_time": 2.7704545454545455,
                "end_time": 2.9204545454545454,
                "pitch": 31,
                "velocity": 64,
                "duration": 0.1499999999999999,
                "tempo": 120.0
            },
            {
                "start_time": 2.936363636363636,
                "end_time": 3.090909090909091,
                "pitch": 43,
                "velocity": 64,
                "duration": 0.15454545454545476,
                "tempo": 120.0
            },
            {
                "start_time": 3.109090909090909,
                "end_time": 3.2636363636363637,
                "pitch": 31,
                "velocity": 64,
                "duration": 0.15454545454545476,
                "tempo": 120.0
            },
            {
                "start_time": 3.2818181818181817,
                "end_time": 3.5886363636363634,
                "pitch": 31,
                "velocity": 64,
                "duration": 0.30681818181818166,
                "tempo": 120.0
            },
            {
                "start_time": 3.6045454545454545,
                "end_time": 3.9318181818181817,
                "pitch": 31,
                "velocity": 64,
                "duration": 0.32727272727272716,
                "tempo": 120.0
            },
            {
                "start_time": 3.9499999999999997,
                "end_time": 4.268181818181818,
                "pitch": 31,
                "velocity": 64,
                "duration": 0.3181818181818179,
                "tempo": 120.0
            },
            {
                "start_time": 4.284090909090909,
                "end_time": 4.611363636363636,
                "pitch": 31,
                "velocity": 64,
                "duration": 0.32727272727272716,
                "tempo": 120.0
            },
            {
                "start_time": 4.629545454545454,
                "end_time": 4.947727272727272,
                "pitch": 31,
                "velocity": 64,
                "duration": 0.31818181818181834,
                "tempo": 120.0
            },
            {
                "start_time": 4.963636363636363,
                "end_time": 5.118181818181818,
                "pitch": 43,
                "velocity": 64,
                "duration": 0.1545454545454552,
                "tempo": 120.0
            },
            {
                "start_time": 5.136363636363636,
                "end_time": 5.459090909090909,
                "pitch": 31,
                "velocity": 64,
                "duration": 0.3227272727272732,
                "tempo": 120.0
            },
            {
                "start_time": 5.475,
                "end_time": 5.625,
                "pitch": 31,
                "velocity": 64,
                "duration": 0.15000000000000036,
                "tempo": 120.0
            },
            {
                "start_time": 5.643181818181818,
                "end_time": 5.793181818181818,
                "pitch": 43,
                "velocity": 64,
                "duration": 0.15000000000000036,
                "tempo": 120.0
            },
            {
                "start_time": 5.809090909090909,
                "end_time": 5.961363636363636,
                "pitch": 31,
                "velocity": 64,
                "duration": 0.15227272727272734,
                "tempo": 120.0
            },
            {
                "start_time": 5.977272727272727,
                "end_time": 6.295454545454545,
                "pitch": 29,
                "velocity": 64,
                "duration": 0.31818181818181834,
                "tempo": 120.0
            },
            {
                "start_time": 6.3136363636363635,
                "end_time": 6.638636363636364,
                "pitch": 29,
                "velocity": 64,
                "duration": 0.3250000000000002,
                "tempo": 120.0
            },
            {
                "start_time": 6.656818181818181,
                "end_time": 6.975,
                "pitch": 29,
                "velocity": 64,
                "duration": 0.31818181818181834,
                "tempo": 120.0
            },
            {
                "start_time": 6.99090909090909,
                "end_time": 7.309090909090909,
                "pitch": 29,
                "velocity": 64,
                "duration": 0.31818181818181834,
                "tempo": 120.0
            },
            {
                "start_time": 7.327272727272727,
                "end_time": 7.6454545454545455,
                "pitch": 29,
                "velocity": 64,
                "duration": 0.31818181818181834,
                "tempo": 120.0
            },
            {
                "start_time": 7.661363636363636,
                "end_time": 7.8159090909090905,
                "pitch": 41,
                "velocity": 64,
                "duration": 0.15454545454545432,
                "tempo": 120.0
            },
            {
                "start_time": 7.834090909090909,
                "end_time": 8.156818181818181,
                "pitch": 29,
                "velocity": 64,
                "duration": 0.3227272727272723,
                "tempo": 120.0
            },
            {
                "start_time": 8.172727272727272,
                "end_time": 8.325,
                "pitch": 29,
                "velocity": 64,
                "duration": 0.15227272727272734,
                "tempo": 120.0
            },
            {
                "start_time": 8.34090909090909,
                "end_time": 8.495454545454544,
                "pitch": 41,
                "velocity": 64,
                "duration": 0.15454545454545432,
                "tempo": 120.0
            },
            {
                "start_time": 8.513636363636364,
                "end_time": 8.668181818181818,
                "pitch": 29,
                "velocity": 64,
                "duration": 0.15454545454545432,
                "tempo": 120.0
            },
            {
                "start_time": 8.684090909090909,
                "end_time": 9.002272727272727,
                "pitch": 31,
                "velocity": 64,
                "duration": 0.31818181818181834,
                "tempo": 120.0
            },
            {
                "start_time": 9.020454545454545,
                "end_time": 9.338636363636363,
                "pitch": 31,
                "velocity": 64,
                "duration": 0.31818181818181834,
                "tempo": 120.0
            },
            {
                "start_time": 9.354545454545454,
                "end_time": 9.672727272727272,
                "pitch": 31,
                "velocity": 64,
                "duration": 0.31818181818181834,
                "tempo": 120.0
            },
            {
                "start_time": 9.69090909090909,
                "end_time": 10.01590909090909,
                "pitch": 31,
                "velocity": 64,
                "duration": 0.32500000000000107,
                "tempo": 120.0
            },
            {
                "start_time": 10.034090909090908,
                "end_time": 10.352272727272727,
                "pitch": 31,
                "velocity": 64,
                "duration": 0.31818181818181834,
                "tempo": 120.0
            },
            {
                "start_time": 10.368181818181817,
                "end_time": 10.525,
                "pitch": 43,
                "velocity": 64,
                "duration": 0.15681818181818308,
                "tempo": 120.0
            },
            {
                "start_time": 10.540909090909091,
                "end_time": 10.863636363636363,
                "pitch": 31,
                "velocity": 64,
                "duration": 0.3227272727272723,
                "tempo": 120.0
            },
            {
                "start_time": 10.881818181818181,
                "end_time": 11.031818181818181,
                "pitch": 26,
                "velocity": 64,
                "duration": 0.15000000000000036,
                "tempo": 120.0
            },
            {
                "start_time": 11.047727272727272,
                "end_time": 11.2,
                "pitch": 29,
                "velocity": 64,
                "duration": 0.15227272727272734,
                "tempo": 120.0
            },
            {
                "start_time": 11.21590909090909,
                "end_time": 11.36590909090909,
                "pitch": 31,
                "velocity": 64,
                "duration": 0.15000000000000036,
                "tempo": 120.0
            },
            {
                "start_time": 11.384090909090908,
                "end_time": 11.711363636363636,
                "pitch": 31,
                "velocity": 64,
                "duration": 0.32727272727272805,
                "tempo": 120.0
            },
            {
                "start_time": 11.727272727272727,
                "end_time": 12.045454545454545,
                "pitch": 31,
                "velocity": 64,
                "duration": 0.31818181818181834,
                "tempo": 120.0
            },
            {
                "start_time": 12.063636363636363,
                "end_time": 12.381818181818181,
                "pitch": 31,
                "velocity": 64,
                "duration": 0.31818181818181834,
                "tempo": 120.0
            },
            {
                "start_time": 12.397727272727272,
                "end_time": 12.725,
                "pitch": 31,
                "velocity": 64,
                "duration": 0.32727272727272805,
                "tempo": 120.0
            },
            {
                "start_time": 12.74090909090909,
                "end_time": 13.059090909090909,
                "pitch": 31,
                "velocity": 64,
                "duration": 0.31818181818181834,
                "tempo": 120.0
            },
            {
                "start_time": 13.077272727272726,
                "end_time": 13.23181818181818,
                "pitch": 43,
                "velocity": 64,
                "duration": 0.15454545454545432,
                "tempo": 120.0
            },
            {
                "start_time": 13.247727272727271,
                "end_time": 13.572727272727272,
                "pitch": 31,
                "velocity": 64,
                "duration": 0.32500000000000107,
                "tempo": 120.0
            },
            {
                "start_time": 13.588636363636363,
                "end_time": 13.738636363636363,
                "pitch": 31,
                "velocity": 64,
                "duration": 0.15000000000000036,
                "tempo": 120.0
            },
            {
                "start_time": 13.756818181818181,
                "end_time": 13.906818181818181,
                "pitch": 43,
                "velocity": 64,
                "duration": 0.15000000000000036,
                "tempo": 120.0
            },
            {
                "start_time": 13.922727272727272,
                "end_time": 14.075,
                "pitch": 31,
                "velocity": 64,
                "duration": 0.15227272727272734,
                "tempo": 120.0
            },
            {
                "start_time": 14.09090909090909,
                "end_time": 14.409090909090908,
                "pitch": 31,
                "velocity": 64,
                "duration": 0.31818181818181834,
                "tempo": 120.0
            },
            {
                "start_time": 14.424999999999999,
                "end_time": 14.752272727272727,
                "pitch": 31,
                "velocity": 64,
                "duration": 0.32727272727272805,
                "tempo": 120.0
            },
            {
                "start_time": 14.770454545454545,
                "end_time": 15.088636363636363,
                "pitch": 31,
                "velocity": 64,
                "duration": 0.31818181818181834,
                "tempo": 120.0
            },
            {
                "start_time": 15.104545454545454,
                "end_time": 15.422727272727272,
                "pitch": 31,
                "velocity": 64,
                "duration": 0.31818181818181834,
                "tempo": 120.0
            },
            {
                "start_time": 15.44090909090909,
                "end_time": 15.76590909090909,
                "pitch": 31,
                "velocity": 64,
                "duration": 0.32500000000000107,
                "tempo": 120.0
            },
            {
                "start_time": 15.784090909090908,
                "end_time": 15.934090909090909,
                "pitch": 43,
                "velocity": 64,
                "duration": 0.15000000000000036,
                "tempo": 120.0
            },
            {
                "start_time": 15.952272727272726,
                "end_time": 16.270454545454545,
                "pitch": 31,
                "velocity": 64,
                "duration": 0.31818181818181834,
                "tempo": 120.0
            },
            {
                "start_time": 16.286363636363635,
                "end_time": 16.436363636363634,
                "pitch": 31,
                "velocity": 64,
                "duration": 0.14999999999999858,
                "tempo": 120.0
            },
            {
                "start_time": 16.454545454545453,
                "end_time": 16.60909090909091,
                "pitch": 43,
                "velocity": 64,
                "duration": 0.1545454545454561,
                "tempo": 120.0
            },
            {
                "start_time": 16.625,
                "end_time": 16.78181818181818,
                "pitch": 31,
                "velocity": 64,
                "duration": 0.1568181818181813,
                "tempo": 120.0
            },
            {
                "start_time": 16.797727272727272,
                "end_time": 17.11590909090909,
                "pitch": 29,
                "velocity": 64,
                "duration": 0.31818181818181657,
                "tempo": 120.0
            },
            {
                "start_time": 17.134090909090908,
                "end_time": 17.452272727272728,
                "pitch": 29,
                "velocity": 64,
                "duration": 0.3181818181818201,
                "tempo": 120.0
            },
            {
                "start_time": 17.46818181818182,
                "end_time": 17.786363636363635,
                "pitch": 29,
                "velocity": 64,
                "duration": 0.31818181818181657,
                "tempo": 120.0
            },
            {
                "start_time": 17.802272727272726,
                "end_time": 18.129545454545454,
                "pitch": 29,
                "velocity": 64,
                "duration": 0.32727272727272805,
                "tempo": 120.0
            },
            {
                "start_time": 18.147727272727273,
                "end_time": 18.46590909090909,
                "pitch": 29,
                "velocity": 64,
                "duration": 0.31818181818181657,
                "tempo": 120.0
            },
            {
                "start_time": 18.48181818181818,
                "end_time": 18.636363636363637,
                "pitch": 41,
                "velocity": 64,
                "duration": 0.1545454545454561,
                "tempo": 120.0
            },
            {
                "start_time": 18.654545454545453,
                "end_time": 18.977272727272727,
                "pitch": 29,
                "velocity": 64,
                "duration": 0.3227272727272741,
                "tempo": 120.0
            },
            {
                "start_time": 18.993181818181817,
                "end_time": 19.145454545454545,
                "pitch": 29,
                "velocity": 64,
                "duration": 0.15227272727272734,
                "tempo": 120.0
            },
            {
                "start_time": 19.161363636363635,
                "end_time": 19.311363636363634,
                "pitch": 41,
                "velocity": 64,
                "duration": 0.14999999999999858,
                "tempo": 120.0
            },
            {
                "start_time": 19.329545454545453,
                "end_time": 19.479545454545452,
                "pitch": 29,
                "velocity": 64,
                "duration": 0.14999999999999858,
                "tempo": 120.0
            },
            {
                "start_time": 19.495454545454546,
                "end_time": 19.813636363636363,
                "pitch": 31,
                "velocity": 64,
                "duration": 0.31818181818181657,
                "tempo": 120.0
            },
            {
                "start_time": 19.831818181818182,
                "end_time": 20.159090909090907,
                "pitch": 31,
                "velocity": 64,
                "duration": 0.3272727272727245,
                "tempo": 120.0
            },
            {
                "start_time": 20.175,
                "end_time": 20.493181818181817,
                "pitch": 31,
                "velocity": 64,
                "duration": 0.31818181818181657,
                "tempo": 120.0
            },
            {
                "start_time": 20.511363636363637,
                "end_time": 20.83863636363636,
                "pitch": 31,
                "velocity": 64,
                "duration": 0.3272727272727245,
                "tempo": 120.0
            },
            {
                "start_time": 20.854545454545452,
                "end_time": 21.172727272727272,
                "pitch": 31,
                "velocity": 64,
                "duration": 0.3181818181818201,
                "tempo": 120.0
            },
            {
                "start_time": 21.19090909090909,
                "end_time": 21.345454545454544,
                "pitch": 43,
                "velocity": 64,
                "duration": 0.15454545454545254,
                "tempo": 120.0
            },
            {
                "start_time": 21.361363636363635,
                "end_time": 21.68409090909091,
                "pitch": 31,
                "velocity": 64,
                "duration": 0.3227272727272741,
                "tempo": 120.0
            },
            {
                "start_time": 21.702272727272724,
                "end_time": 21.852272727272727,
                "pitch": 26,
                "velocity": 64,
                "duration": 0.15000000000000213,
                "tempo": 120.0
            },
            {
                "start_time": 21.868181818181817,
                "end_time": 22.020454545454545,
                "pitch": 29,
                "velocity": 64,
                "duration": 0.15227272727272734,
                "tempo": 120.0
            },
            {
                "start_time": 22.036363636363635,
                "end_time": 22.186363636363634,
                "pitch": 31,
                "velocity": 64,
                "duration": 0.14999999999999858,
                "tempo": 120.0
            },
            {
                "start_time": 22.204545454545453,
                "end_time": 22.522727272727273,
                "pitch": 31,
                "velocity": 64,
                "duration": 0.3181818181818201,
                "tempo": 120.0
            },
            {
                "start_time": 22.538636363636364,
                "end_time": 22.86590909090909,
                "pitch": 31,
                "velocity": 64,
                "duration": 0.3272727272727245,
                "tempo": 120.0
            },
            {
                "start_time": 22.884090909090908,
                "end_time": 23.202272727272724,
                "pitch": 31,
                "velocity": 64,
                "duration": 0.31818181818181657,
                "tempo": 120.0
            },
            {
                "start_time": 23.21818181818182,
                "end_time": 23.536363636363635,
                "pitch": 31,
                "velocity": 64,
                "duration": 0.31818181818181657,
                "tempo": 120.0
            },
            {
                "start_time": 23.552272727272726,
                "end_time": 23.879545454545454,
                "pitch": 31,
                "velocity": 64,
                "duration": 0.32727272727272805,
                "tempo": 120.0
            },
            {
                "start_time": 23.89772727272727,
                "end_time": 24.047727272727272,
                "pitch": 43,
                "velocity": 64,
                "duration": 0.15000000000000213,
                "tempo": 120.0
            },
            {
                "start_time": 24.06590909090909,
                "end_time": 24.386363636363637,
                "pitch": 31,
                "velocity": 64,
                "duration": 0.3204545454545453,
                "tempo": 120.0
            },
            {
                "start_time": 24.404545454545453,
                "end_time": 24.55909090909091,
                "pitch": 31,
                "velocity": 64,
                "duration": 0.1545454545454561,
                "tempo": 120.0
            },
            {
                "start_time": 24.577272727272724,
                "end_time": 24.727272727272727,
                "pitch": 43,
                "velocity": 64,
                "duration": 0.15000000000000213,
                "tempo": 120.0
            },
            {
                "start_time": 24.743181818181817,
                "end_time": 24.895454545454545,
                "pitch": 31,
                "velocity": 64,
                "duration": 0.15227272727272734,
                "tempo": 120.0
            },
            {
                "start_time": 24.911363636363635,
                "end_time": 25.229545454545452,
                "pitch": 31,
                "velocity": 64,
                "duration": 0.31818181818181657,
                "tempo": 120.0
            },
            {
                "start_time": 25.245454545454542,
                "end_time": 25.563636363636363,
                "pitch": 31,
                "velocity": 64,
                "duration": 0.3181818181818201,
                "tempo": 120.0
            },
            {
                "start_time": 25.581818181818182,
                "end_time": 25.909090909090907,
                "pitch": 31,
                "velocity": 64,
                "duration": 0.3272727272727245,
                "tempo": 120.0
            },
            {
                "start_time": 25.924999999999997,
                "end_time": 26.243181818181817,
                "pitch": 31,
                "velocity": 64,
                "duration": 0.3181818181818201,
                "tempo": 120.0
            },
            {
                "start_time": 26.261363636363637,
                "end_time": 26.579545454545453,
                "pitch": 31,
                "velocity": 64,
                "duration": 0.31818181818181657,
                "tempo": 120.0
            },
            {
                "start_time": 26.595454545454544,
                "end_time": 26.75,
                "pitch": 43,
                "velocity": 64,
                "duration": 0.1545454545454561,
                "tempo": 120.0
            },
            {
                "start_time": 26.768181818181816,
                "end_time": 27.09090909090909,
                "pitch": 31,
                "velocity": 64,
                "duration": 0.3227272727272741,
                "tempo": 120.0
            },
            {
                "start_time": 27.10681818181818,
                "end_time": 27.259090909090908,
                "pitch": 31,
                "velocity": 64,
                "duration": 0.15227272727272734,
                "tempo": 120.0
            },
            {
                "start_time": 27.275,
                "end_time": 27.429545454545455,
                "pitch": 43,
                "velocity": 64,
                "duration": 0.1545454545454561,
                "tempo": 120.0
            },
            {
                "start_time": 27.44772727272727,
                "end_time": 27.602272727272727,
                "pitch": 31,
                "velocity": 64,
                "duration": 0.1545454545454561,
                "tempo": 120.0
            },
            {
                "start_time": 27.618181818181817,
                "end_time": 27.936363636363634,
                "pitch": 29,
                "velocity": 64,
                "duration": 0.31818181818181657,
                "tempo": 120.0
            },
            {
                "start_time": 27.954545454545453,
                "end_time": 28.27272727272727,
                "pitch": 29,
                "velocity": 64,
                "duration": 0.31818181818181657,
                "tempo": 120.0
            },
            {
                "start_time": 28.288636363636364,
                "end_time": 28.60681818181818,
                "pitch": 29,
                "velocity": 64,
                "duration": 0.31818181818181657,
                "tempo": 120.0
            },
            {
                "start_time": 28.62272727272727,
                "end_time": 28.95,
                "pitch": 29,
                "velocity": 64,
                "duration": 0.32727272727272805,
                "tempo": 120.0
            },
            {
                "start_time": 28.968181818181815,
                "end_time": 29.286363636363635,
                "pitch": 29,
                "velocity": 64,
                "duration": 0.3181818181818201,
                "tempo": 120.0
            },
            {
                "start_time": 29.302272727272726,
                "end_time": 29.454545454545453,
                "pitch": 41,
                "velocity": 64,
                "duration": 0.15227272727272734,
                "tempo": 120.0
            },
            {
                "start_time": 29.470454545454544,
                "end_time": 29.793181818181818,
                "pitch": 29,
                "velocity": 64,
                "duration": 0.3227272727272741,
                "tempo": 120.0
            },
            {
                "start_time": 29.80909090909091,
                "end_time": 29.96590909090909,
                "pitch": 29,
                "velocity": 64,
                "duration": 0.1568181818181813,
                "tempo": 120.0
            },
            {
                "start_time": 29.98181818181818,
                "end_time": 30.134090909090908,
                "pitch": 41,
                "velocity": 64,
                "duration": 0.15227272727272734,
                "tempo": 120.0
            },
            {
                "start_time": 30.15,
                "end_time": 30.299999999999997,
                "pitch": 29,
                "velocity": 64,
                "duration": 0.14999999999999858,
                "tempo": 120.0
            },
            {
                "start_time": 30.318181818181817,
                "end_time": 30.636363636363633,
                "pitch": 31,
                "velocity": 64,
                "duration": 0.31818181818181657,
                "tempo": 120.0
            },
            {
                "start_time": 30.652272727272727,
                "end_time": 30.979545454545452,
                "pitch": 31,
                "velocity": 64,
                "duration": 0.3272727272727245,
                "tempo": 120.0
            },
            {
                "start_time": 30.995454545454542,
                "end_time": 31.313636363636363,
                "pitch": 31,
                "velocity": 64,
                "duration": 0.3181818181818201,
                "tempo": 120.0
            },
            {
                "start_time": 31.331818181818182,
                "end_time": 31.65,
                "pitch": 31,
                "velocity": 64,
                "duration": 0.31818181818181657,
                "tempo": 120.0
            },
            {
                "start_time": 31.66590909090909,
                "end_time": 31.993181818181817,
                "pitch": 31,
                "velocity": 64,
                "duration": 0.32727272727272805,
                "tempo": 120.0
            },
            {
                "start_time": 32.01136363636363,
                "end_time": 32.16136363636363,
                "pitch": 43,
                "velocity": 64,
                "duration": 0.14999999999999858,
                "tempo": 120.0
            },
            {
                "start_time": 32.17727272727272,
                "end_time": 32.5,
                "pitch": 31,
                "velocity": 64,
                "duration": 0.32272727272727764,
                "tempo": 120.0
            },
            {
                "start_time": 32.518181818181816,
                "end_time": 32.67272727272727,
                "pitch": 26,
                "velocity": 64,
                "duration": 0.1545454545454561,
                "tempo": 120.0
            },
            {
                "start_time": 32.68863636363636,
                "end_time": 32.840909090909086,
                "pitch": 29,
                "velocity": 64,
                "duration": 0.15227272727272378,
                "tempo": 120.0
            },
            {
                "start_time": 32.85681818181818,
                "end_time": 33.00909090909091,
                "pitch": 31,
                "velocity": 64,
                "duration": 0.1522727272727309,
                "tempo": 120.0
            },
            {
                "start_time": 33.025,
                "end_time": 33.34318181818182,
                "pitch": 31,
                "velocity": 64,
                "duration": 0.3181818181818201,
                "tempo": 120.0
            },
            {
                "start_time": 33.35909090909091,
                "end_time": 33.67727272727272,
                "pitch": 31,
                "velocity": 64,
                "duration": 0.318181818181813,
                "tempo": 120.0
            },
            {
                "start_time": 33.695454545454545,
                "end_time": 34.013636363636365,
                "pitch": 31,
                "velocity": 64,
                "duration": 0.3181818181818201,
                "tempo": 120.0
            },
            {
                "start_time": 34.029545454545456,
                "end_time": 34.35681818181818,
                "pitch": 31,
                "velocity": 64,
                "duration": 0.32727272727272094,
                "tempo": 120.0
            },
            {
                "start_time": 34.37272727272727,
                "end_time": 34.69090909090909,
                "pitch": 31,
                "velocity": 64,
                "duration": 0.3181818181818201,
                "tempo": 120.0
            },
            {
                "start_time": 34.70909090909091,
                "end_time": 34.86363636363636,
                "pitch": 43,
                "velocity": 64,
                "duration": 0.154545454545449,
                "tempo": 120.0
            },
            {
                "start_time": 34.88181818181818,
                "end_time": 35.20454545454545,
                "pitch": 31,
                "velocity": 64,
                "duration": 0.32272727272727053,
                "tempo": 120.0
            },
            {
                "start_time": 35.220454545454544,
                "end_time": 35.37045454545454,
                "pitch": 31,
                "velocity": 64,
                "duration": 0.14999999999999858,
                "tempo": 120.0
            },
            {
                "start_time": 35.388636363636365,
                "end_time": 35.543181818181814,
                "pitch": 43,
                "velocity": 64,
                "duration": 0.154545454545449,
                "tempo": 120.0
            },
            {
                "start_time": 35.559090909090905,
                "end_time": 35.715909090909086,
                "pitch": 31,
                "velocity": 64,
                "duration": 0.1568181818181813,
                "tempo": 120.0
            },
            {
                "start_time": 35.73181818181818,
                "end_time": 36.05,
                "pitch": 31,
                "velocity": 64,
                "duration": 0.3181818181818201,
                "tempo": 120.0
            },
            {
                "start_time": 36.06818181818181,
                "end_time": 36.38636363636363,
                "pitch": 31,
                "velocity": 64,
                "duration": 0.3181818181818201,
                "tempo": 120.0
            },
            {
                "start_time": 36.402272727272724,
                "end_time": 36.720454545454544,
                "pitch": 31,
                "velocity": 64,
                "duration": 0.3181818181818201,
                "tempo": 120.0
            },
            {
                "start_time": 36.736363636363635,
                "end_time": 37.06363636363636,
                "pitch": 31,
                "velocity": 64,
                "duration": 0.32727272727272805,
                "tempo": 120.0
            },
            {
                "start_time": 37.08181818181818,
                "end_time": 37.4,
                "pitch": 31,
                "velocity": 64,
                "duration": 0.3181818181818201,
                "tempo": 120.0
            },
            {
                "start_time": 37.41590909090909,
                "end_time": 37.56590909090909,
                "pitch": 43,
                "velocity": 64,
                "duration": 0.14999999999999858,
                "tempo": 120.0
            },
            {
                "start_time": 37.58409090909091,
                "end_time": 37.90681818181818,
                "pitch": 31,
                "velocity": 64,
                "duration": 0.32272727272727053,
                "tempo": 120.0
            },
            {
                "start_time": 37.92272727272727,
                "end_time": 38.07727272727273,
                "pitch": 31,
                "velocity": 64,
                "duration": 0.1545454545454561,
                "tempo": 120.0
            },
            {
                "start_time": 38.095454545454544,
                "end_time": 38.24545454545454,
                "pitch": 43,
                "velocity": 64,
                "duration": 0.14999999999999858,
                "tempo": 120.0
            },
            {
                "start_time": 38.26363636363636,
                "end_time": 38.413636363636364,
                "pitch": 31,
                "velocity": 64,
                "duration": 0.15000000000000568,
                "tempo": 120.0
            },
            {
                "start_time": 38.429545454545455,
                "end_time": 38.74772727272727,
                "pitch": 29,
                "velocity": 64,
                "duration": 0.318181818181813,
                "tempo": 120.0
            },
            {
                "start_time": 38.76590909090909,
                "end_time": 39.09318181818182,
                "pitch": 29,
                "velocity": 64,
                "duration": 0.32727272727272805,
                "tempo": 120.0
            },
            {
                "start_time": 39.10909090909091,
                "end_time": 39.42727272727272,
                "pitch": 29,
                "velocity": 64,
                "duration": 0.318181818181813,
                "tempo": 120.0
            },
            {
                "start_time": 39.445454545454545,
                "end_time": 39.76363636363636,
                "pitch": 29,
                "velocity": 64,
                "duration": 0.318181818181813,
                "tempo": 120.0
            },
            {
                "start_time": 39.779545454545456,
                "end_time": 40.09772727272727,
                "pitch": 29,
                "velocity": 64,
                "duration": 0.318181818181813,
                "tempo": 120.0
            },
            {
                "start_time": 40.11363636363636,
                "end_time": 40.268181818181816,
                "pitch": 41,
                "velocity": 64,
                "duration": 0.1545454545454561,
                "tempo": 120.0
            },
            {
                "start_time": 40.28636363636363,
                "end_time": 40.60909090909091,
                "pitch": 29,
                "velocity": 64,
                "duration": 0.32272727272727764,
                "tempo": 120.0
            },
            {
                "start_time": 40.625,
                "end_time": 40.777272727272724,
                "pitch": 29,
                "velocity": 64,
                "duration": 0.15227272727272378,
                "tempo": 120.0
            },
            {
                "start_time": 40.793181818181814,
                "end_time": 40.94772727272727,
                "pitch": 41,
                "velocity": 64,
                "duration": 0.1545454545454561,
                "tempo": 120.0
            },
            {
                "start_time": 40.965909090909086,
                "end_time": 41.12045454545454,
                "pitch": 29,
                "velocity": 64,
                "duration": 0.1545454545454561,
                "tempo": 120.0
            },
            {
                "start_time": 41.13863636363636,
                "end_time": 41.45681818181818,
                "pitch": 31,
                "velocity": 64,
                "duration": 0.3181818181818201,
                "tempo": 120.0
            },
            {
                "start_time": 41.47272727272727,
                "end_time": 41.79090909090909,
                "pitch": 31,
                "velocity": 64,
                "duration": 0.3181818181818201,
                "tempo": 120.0
            },
            {
                "start_time": 41.80681818181818,
                "end_time": 42.13409090909091,
                "pitch": 31,
                "velocity": 64,
                "duration": 0.32727272727272805,
                "tempo": 120.0
            },
            {
                "start_time": 42.152272727272724,
                "end_time": 42.470454545454544,
                "pitch": 31,
                "velocity": 64,
                "duration": 0.3181818181818201,
                "tempo": 120.0
            },
            {
                "start_time": 42.486363636363635,
                "end_time": 42.804545454545455,
                "pitch": 31,
                "velocity": 64,
                "duration": 0.3181818181818201,
                "tempo": 120.0
            },
            {
                "start_time": 42.82272727272727,
                "end_time": 42.97727272727273,
                "pitch": 43,
                "velocity": 64,
                "duration": 0.1545454545454561,
                "tempo": 120.0
            },
            {
                "start_time": 42.99318181818182,
                "end_time": 43.31590909090909,
                "pitch": 31,
                "velocity": 64,
                "duration": 0.32272727272727053,
                "tempo": 120.0
            },
            {
                "start_time": 43.334090909090904,
                "end_time": 43.48409090909091,
                "pitch": 26,
                "velocity": 64,
                "duration": 0.15000000000000568,
                "tempo": 120.0
            },
            {
                "start_time": 43.5,
                "end_time": 43.652272727272724,
                "pitch": 29,
                "velocity": 64,
                "duration": 0.15227272727272378,
                "tempo": 120.0
            },
            {
                "start_time": 43.668181818181814,
                "end_time": 43.81818181818181,
                "pitch": 31,
                "velocity": 64,
                "duration": 0.14999999999999858,
                "tempo": 120.0
            },
            {
                "start_time": 43.836363636363636,
                "end_time": 44.33181818181818,
                "pitch": 27,
                "velocity": 64,
                "duration": 0.4954545454545425,
                "tempo": 120.0
            },
            {
                "start_time": 44.34772727272727,
                "end_time": 44.49772727272727,
                "pitch": 27,
                "velocity": 64,
                "duration": 0.14999999999999858,
                "tempo": 120.0
            },
            {
                "start_time": 45.184090909090905,
                "end_time": 45.679545454545455,
                "pitch": 29,
                "velocity": 64,
                "duration": 0.4954545454545496,
                "tempo": 120.0
            },
            {
                "start_time": 45.69772727272727,
                "end_time": 46.018181818181816,
                "pitch": 29,
                "velocity": 64,
                "duration": 0.3204545454545453,
                "tempo": 120.0
            },
            {
                "start_time": 46.03636363636363,
                "end_time": 46.19090909090909,
                "pitch": 36,
                "velocity": 64,
                "duration": 0.1545454545454561,
                "tempo": 120.0
            },
            {
                "start_time": 46.209090909090904,
                "end_time": 46.527272727272724,
                "pitch": 29,
                "velocity": 64,
                "duration": 0.3181818181818201,
                "tempo": 120.0
            },
            {
                "start_time": 46.543181818181814,
                "end_time": 47.03409090909091,
                "pitch": 27,
                "velocity": 64,
                "duration": 0.49090909090909207,
                "tempo": 120.0
            },
            {
                "start_time": 47.05,
                "end_time": 47.20454545454545,
                "pitch": 27,
                "velocity": 64,
                "duration": 0.1545454545454561,
                "tempo": 120.0
            },
            {
                "start_time": 47.893181818181816,
                "end_time": 48.38181818181818,
                "pitch": 29,
                "velocity": 64,
                "duration": 0.48863636363636687,
                "tempo": 120.0
            },
            {
                "start_time": 48.4,
                "end_time": 48.89090909090909,
                "pitch": 36,
                "velocity": 64,
                "duration": 0.49090909090909207,
                "tempo": 120.0
            },
            {
                "start_time": 48.90681818181818,
                "end_time": 49.23409090909091,
                "pitch": 29,
                "velocity": 64,
                "duration": 0.32727272727272805,
                "tempo": 120.0
            },
            {
                "start_time": 49.25,
                "end_time": 49.736363636363635,
                "pitch": 27,
                "velocity": 64,
                "duration": 0.48636363636363455,
                "tempo": 120.0
            },
            {
                "start_time": 49.75454545454545,
                "end_time": 49.90454545454545,
                "pitch": 27,
                "velocity": 64,
                "duration": 0.14999999999999858,
                "tempo": 120.0
            },
            {
                "start_time": 50.599999999999994,
                "end_time": 51.090909090909086,
                "pitch": 29,
                "velocity": 64,
                "duration": 0.49090909090909207,
                "tempo": 120.0
            },
            {
                "start_time": 51.10681818181818,
                "end_time": 51.429545454545455,
                "pitch": 29,
                "velocity": 64,
                "duration": 0.32272727272727764,
                "tempo": 120.0
            },
            {
                "start_time": 51.44772727272727,
                "end_time": 51.59772727272727,
                "pitch": 36,
                "velocity": 64,
                "duration": 0.14999999999999858,
                "tempo": 120.0
            },
            {
                "start_time": 51.61363636363636,
                "end_time": 51.93181818181818,
                "pitch": 29,
                "velocity": 64,
                "duration": 0.3181818181818201,
                "tempo": 120.0
            },
            {
                "start_time": 51.949999999999996,
                "end_time": 52.43863636363636,
                "pitch": 27,
                "velocity": 64,
                "duration": 0.48863636363636687,
                "tempo": 120.0
            },
            {
                "start_time": 52.45681818181818,
                "end_time": 52.611363636363635,
                "pitch": 27,
                "velocity": 64,
                "duration": 0.1545454545454561,
                "tempo": 120.0
            },
            {
                "start_time": 53.29772727272727,
                "end_time": 54.64090909090909,
                "pitch": 26,
                "velocity": 64,
                "duration": 1.3431818181818187,
                "tempo": 120.0
            },
            {
                "start_time": 54.65681818181818,
                "end_time": 54.67272727272727,
                "pitch": 31,
                "velocity": 64,
                "duration": 0.01590909090909065,
                "tempo": 120.0
            }
        ],
        "Acoustic Grand Piano": [
            {
                "start_time": 0.5386363636363636,
                "end_time": 0.6886363636363636,
                "pitch": 62,
                "velocity": 40,
                "duration": 0.15000000000000002,
                "tempo": 120.0
            },
            {
                "start_time": 0.7045454545454545,
                "end_time": 0.8568181818181818,
                "pitch": 62,
                "velocity": 40,
                "duration": 0.15227272727272734,
                "tempo": 120.0
            },
            {
                "start_time": 0.8727272727272727,
                "end_time": 1.0272727272727271,
                "pitch": 62,
                "velocity": 40,
                "duration": 0.15454545454545443,
                "tempo": 120.0
            },
            {
                "start_time": 1.0454545454545454,
                "end_time": 1.2,
                "pitch": 62,
                "velocity": 40,
                "duration": 0.15454545454545454,
                "tempo": 120.0
            },
            {
                "start_time": 1.2159090909090908,
                "end_time": 1.3681818181818182,
                "pitch": 62,
                "velocity": 40,
                "duration": 0.15227272727272734,
                "tempo": 120.0
            },
            {
                "start_time": 1.384090909090909,
                "end_time": 1.534090909090909,
                "pitch": 62,
                "velocity": 40,
                "duration": 0.1499999999999999,
                "tempo": 120.0
            },
            {
                "start_time": 1.5522727272727272,
                "end_time": 1.7068181818181818,
                "pitch": 62,
                "velocity": 40,
                "duration": 0.15454545454545454,
                "tempo": 120.0
            },
            {
                "start_time": 1.7227272727272727,
                "end_time": 1.8954545454545453,
                "pitch": 62,
                "velocity": 40,
                "duration": 0.17272727272727262,
                "tempo": 120.0
            },
            {
                "start_time": 1.9136363636363636,
                "end_time": 2.068181818181818,
                "pitch": 62,
                "velocity": 40,
                "duration": 0.15454545454545432,
                "tempo": 120.0
            },
            {
                "start_time": 2.0863636363636364,
                "end_time": 2.2409090909090907,
                "pitch": 62,
                "velocity": 40,
                "duration": 0.15454545454545432,
                "tempo": 120.0
            },
            {
                "start_time": 2.256818181818182,
                "end_time": 2.4136363636363636,
                "pitch": 62,
                "velocity": 40,
                "duration": 0.15681818181818175,
                "tempo": 120.0
            },
            {
                "start_time": 2.4295454545454542,
                "end_time": 2.584090909090909,
                "pitch": 62,
                "velocity": 40,
                "duration": 0.15454545454545476,
                "tempo": 120.0
            },
            {
                "start_time": 2.602272727272727,
                "end_time": 2.752272727272727,
                "pitch": 62,
                "velocity": 40,
                "duration": 0.1499999999999999,
                "tempo": 120.0
            },
            {
                "start_time": 2.7704545454545455,
                "end_time": 2.9204545454545454,
                "pitch": 62,
                "velocity": 40,
                "duration": 0.1499999999999999,
                "tempo": 120.0
            },
            {
                "start_time": 2.936363636363636,
                "end_time": 3.090909090909091,
                "pitch": 62,
                "velocity": 40,
                "duration": 0.15454545454545476,
                "tempo": 120.0
            },
            {
                "start_time": 3.109090909090909,
                "end_time": 3.2636363636363637,
                "pitch": 62,
                "velocity": 40,
                "duration": 0.15454545454545476,
                "tempo": 120.0
            },
            {
                "start_time": 3.2818181818181817,
                "end_time": 3.4272727272727272,
                "pitch": 62,
                "velocity": 40,
                "duration": 0.1454545454545455,
                "tempo": 120.0
            },
            {
                "start_time": 3.443181818181818,
                "end_time": 3.5886363636363634,
                "pitch": 62,
                "velocity": 40,
                "duration": 0.1454545454545455,
                "tempo": 120.0
            },
            {
                "start_time": 3.6045454545454545,
                "end_time": 3.759090909090909,
                "pitch": 62,
                "velocity": 40,
                "duration": 0.15454545454545432,
                "tempo": 120.0
            },
            {
                "start_time": 3.777272727272727,
                "end_time": 3.9318181818181817,
                "pitch": 62,
                "velocity": 40,
                "duration": 0.15454545454545476,
                "tempo": 120.0
            },
            {
                "start_time": 3.9499999999999997,
                "end_time": 4.1,
                "pitch": 62,
                "velocity": 40,
                "duration": 0.1499999999999999,
                "tempo": 120.0
            },
            {
                "start_time": 4.11590909090909,
                "end_time": 4.268181818181818,
                "pitch": 62,
                "velocity": 40,
                "duration": 0.15227272727272734,
                "tempo": 120.0
            },
            {
                "start_time": 4.284090909090909,
                "end_time": 4.4386363636363635,
                "pitch": 62,
                "velocity": 40,
                "duration": 0.15454545454545432,
                "tempo": 120.0
            },
            {
                "start_time": 4.456818181818182,
                "end_time": 4.611363636363636,
                "pitch": 62,
                "velocity": 40,
                "duration": 0.15454545454545432,
                "tempo": 120.0
            },
            {
                "start_time": 4.629545454545454,
                "end_time": 4.779545454545454,
                "pitch": 62,
                "velocity": 40,
                "duration": 0.15000000000000036,
                "tempo": 120.0
            },
            {
                "start_time": 4.795454545454545,
                "end_time": 4.947727272727272,
                "pitch": 62,
                "velocity": 40,
                "duration": 0.15227272727272734,
                "tempo": 120.0
            },
            {
                "start_time": 4.963636363636363,
                "end_time": 5.118181818181818,
                "pitch": 62,
                "velocity": 40,
                "duration": 0.1545454545454552,
                "tempo": 120.0
            },
            {
                "start_time": 5.136363636363636,
                "end_time": 5.290909090909091,
                "pitch": 62,
                "velocity": 40,
                "duration": 0.1545454545454552,
                "tempo": 120.0
            },
            {
                "start_time": 5.306818181818182,
                "end_time": 5.459090909090909,
                "pitch": 62,
                "velocity": 40,
                "duration": 0.15227272727272734,
                "tempo": 120.0
            },
            {
                "start_time": 5.475,
                "end_time": 5.625,
                "pitch": 62,
                "velocity": 40,
                "duration": 0.15000000000000036,
                "tempo": 120.0
            },
            {
                "start_time": 5.643181818181818,
                "end_time": 5.793181818181818,
                "pitch": 62,
                "velocity": 40,
                "duration": 0.15000000000000036,
                "tempo": 120.0
            },
            {
                "start_time": 5.809090909090909,
                "end_time": 5.961363636363636,
                "pitch": 62,
                "velocity": 40,
                "duration": 0.15227272727272734,
                "tempo": 120.0
            },
            {
                "start_time": 5.977272727272727,
                "end_time": 6.127272727272727,
                "pitch": 60,
                "velocity": 40,
                "duration": 0.15000000000000036,
                "tempo": 120.0
            },
            {
                "start_time": 6.1454545454545455,
                "end_time": 6.295454545454545,
                "pitch": 60,
                "velocity": 40,
                "duration": 0.14999999999999947,
                "tempo": 120.0
            },
            {
                "start_time": 6.3136363636363635,
                "end_time": 6.468181818181818,
                "pitch": 60,
                "velocity": 40,
                "duration": 0.15454545454545432,
                "tempo": 120.0
            },
            {
                "start_time": 6.4840909090909085,
                "end_time": 6.638636363636364,
                "pitch": 60,
                "velocity": 40,
                "duration": 0.1545454545454552,
                "tempo": 120.0
            },
            {
                "start_time": 6.656818181818181,
                "end_time": 6.806818181818182,
                "pitch": 60,
                "velocity": 40,
                "duration": 0.15000000000000036,
                "tempo": 120.0
            },
            {
                "start_time": 6.824999999999999,
                "end_time": 6.975,
                "pitch": 60,
                "velocity": 40,
                "duration": 0.15000000000000036,
                "tempo": 120.0
            },
            {
                "start_time": 6.99090909090909,
                "end_time": 7.143181818181818,
                "pitch": 60,
                "velocity": 40,
                "duration": 0.15227272727272734,
                "tempo": 120.0
            },
            {
                "start_time": 7.159090909090909,
                "end_time": 7.309090909090909,
                "pitch": 60,
                "velocity": 40,
                "duration": 0.14999999999999947,
                "tempo": 120.0
            },
            {
                "start_time": 7.327272727272727,
                "end_time": 7.477272727272727,
                "pitch": 60,
                "velocity": 40,
                "duration": 0.14999999999999947,
                "tempo": 120.0
            },
            {
                "start_time": 7.493181818181818,
                "end_time": 7.6454545454545455,
                "pitch": 60,
                "velocity": 40,
                "duration": 0.15227272727272734,
                "tempo": 120.0
            },
            {
                "start_time": 7.661363636363636,
                "end_time": 7.8159090909090905,
                "pitch": 60,
                "velocity": 40,
                "duration": 0.15454545454545432,
                "tempo": 120.0
            },
            {
                "start_time": 7.834090909090909,
                "end_time": 7.988636363636363,
                "pitch": 60,
                "velocity": 40,
                "duration": 0.15454545454545432,
                "tempo": 120.0
            },
            {
                "start_time": 8.006818181818181,
                "end_time": 8.156818181818181,
                "pitch": 60,
                "velocity": 40,
                "duration": 0.15000000000000036,
                "tempo": 120.0
            },
            {
                "start_time": 8.172727272727272,
                "end_time": 8.325,
                "pitch": 60,
                "velocity": 40,
                "duration": 0.15227272727272734,
                "tempo": 120.0
            },
            {
                "start_time": 8.34090909090909,
                "end_time": 8.495454545454544,
                "pitch": 60,
                "velocity": 40,
                "duration": 0.15454545454545432,
                "tempo": 120.0
            },
            {
                "start_time": 8.513636363636364,
                "end_time": 8.668181818181818,
                "pitch": 60,
                "velocity": 40,
                "duration": 0.15454545454545432,
                "tempo": 120.0
            },
            {
                "start_time": 8.684090909090909,
                "end_time": 8.836363636363636,
                "pitch": 62,
                "velocity": 40,
                "duration": 0.15227272727272734,
                "tempo": 120.0
            },
            {
                "start_time": 8.852272727272727,
                "end_time": 9.002272727272727,
                "pitch": 62,
                "velocity": 40,
                "duration": 0.15000000000000036,
                "tempo": 120.0
            },
            {
                "start_time": 9.020454545454545,
                "end_time": 9.170454545454545,
                "pitch": 62,
                "velocity": 40,
                "duration": 0.15000000000000036,
                "tempo": 120.0
            },
            {
                "start_time": 9.188636363636363,
                "end_time": 9.338636363636363,
                "pitch": 62,
                "velocity": 40,
                "duration": 0.15000000000000036,
                "tempo": 120.0
            },
            {
                "start_time": 9.354545454545454,
                "end_time": 9.506818181818181,
                "pitch": 62,
                "velocity": 40,
                "duration": 0.15227272727272734,
                "tempo": 120.0
            },
            {
                "start_time": 9.522727272727272,
                "end_time": 9.672727272727272,
                "pitch": 62,
                "velocity": 40,
                "duration": 0.15000000000000036,
                "tempo": 120.0
            },
            {
                "start_time": 9.69090909090909,
                "end_time": 9.845454545454546,
                "pitch": 62,
                "velocity": 40,
                "duration": 0.1545454545454561,
                "tempo": 120.0
            },
            {
                "start_time": 9.861363636363636,
                "end_time": 10.01590909090909,
                "pitch": 62,
                "velocity": 40,
                "duration": 0.15454545454545432,
                "tempo": 120.0
            },
            {
                "start_time": 10.034090909090908,
                "end_time": 10.184090909090909,
                "pitch": 62,
                "velocity": 40,
                "duration": 0.15000000000000036,
                "tempo": 120.0
            },
            {
                "start_time": 10.202272727272726,
                "end_time": 10.352272727272727,
                "pitch": 62,
                "velocity": 40,
                "duration": 0.15000000000000036,
                "tempo": 120.0
            },
            {
                "start_time": 10.368181818181817,
                "end_time": 10.525,
                "pitch": 62,
                "velocity": 40,
                "duration": 0.15681818181818308,
                "tempo": 120.0
            },
            {
                "start_time": 10.540909090909091,
                "end_time": 10.695454545454545,
                "pitch": 62,
                "velocity": 40,
                "duration": 0.15454545454545432,
                "tempo": 120.0
            },
            {
                "start_time": 10.713636363636363,
                "end_time": 10.863636363636363,
                "pitch": 62,
                "velocity": 40,
                "duration": 0.15000000000000036,
                "tempo": 120.0
            },
            {
                "start_time": 10.881818181818181,
                "end_time": 11.031818181818181,
                "pitch": 62,
                "velocity": 40,
                "duration": 0.15000000000000036,
                "tempo": 120.0
            },
            {
                "start_time": 11.047727272727272,
                "end_time": 11.2,
                "pitch": 62,
                "velocity": 40,
                "duration": 0.15227272727272734,
                "tempo": 120.0
            },
            {
                "start_time": 11.21590909090909,
                "end_time": 11.36590909090909,
                "pitch": 62,
                "velocity": 40,
                "duration": 0.15000000000000036,
                "tempo": 120.0
            },
            {
                "start_time": 11.384090909090908,
                "end_time": 11.538636363636362,
                "pitch": 62,
                "velocity": 40,
                "duration": 0.15454545454545432,
                "tempo": 120.0
            },
            {
                "start_time": 11.554545454545455,
                "end_time": 11.711363636363636,
                "pitch": 62,
                "velocity": 40,
                "duration": 0.1568181818181813,
                "tempo": 120.0
            },
            {
                "start_time": 11.727272727272727,
                "end_time": 11.877272727272727,
                "pitch": 62,
                "velocity": 40,
                "duration": 0.15000000000000036,
                "tempo": 120.0
            },
            {
                "start_time": 11.895454545454545,
                "end_time": 12.045454545454545,
                "pitch": 62,
                "velocity": 40,
                "duration": 0.15000000000000036,
                "tempo": 120.0
            },
            {
                "start_time": 12.063636363636363,
                "end_time": 12.213636363636363,
                "pitch": 62,
                "velocity": 40,
                "duration": 0.15000000000000036,
                "tempo": 120.0
            },
            {
                "start_time": 12.229545454545454,
                "end_time": 12.381818181818181,
                "pitch": 62,
                "velocity": 40,
                "duration": 0.15227272727272734,
                "tempo": 120.0
            },
            {
                "start_time": 12.397727272727272,
                "end_time": 12.552272727272726,
                "pitch": 62,
                "velocity": 40,
                "duration": 0.15454545454545432,
                "tempo": 120.0
            },
            {
                "start_time": 12.570454545454545,
                "end_time": 12.725,
                "pitch": 62,
                "velocity": 40,
                "duration": 0.15454545454545432,
                "tempo": 120.0
            },
            {
                "start_time": 12.74090909090909,
                "end_time": 12.893181818181818,
                "pitch": 62,
                "velocity": 40,
                "duration": 0.15227272727272734,
                "tempo": 120.0
            },
            {
                "start_time": 12.909090909090908,
                "end_time": 13.059090909090909,
                "pitch": 62,
                "velocity": 40,
                "duration": 0.15000000000000036,
                "tempo": 120.0
            },
            {
                "start_time": 13.077272727272726,
                "end_time": 13.23181818181818,
                "pitch": 62,
                "velocity": 40,
                "duration": 0.15454545454545432,
                "tempo": 120.0
            },
            {
                "start_time": 13.247727272727271,
                "end_time": 13.404545454545454,
                "pitch": 62,
                "velocity": 40,
                "duration": 0.15681818181818308,
                "tempo": 120.0
            },
            {
                "start_time": 13.420454545454545,
                "end_time": 13.572727272727272,
                "pitch": 62,
                "velocity": 40,
                "duration": 0.15227272727272734,
                "tempo": 120.0
            },
            {
                "start_time": 13.588636363636363,
                "end_time": 13.738636363636363,
                "pitch": 62,
                "velocity": 40,
                "duration": 0.15000000000000036,
                "tempo": 120.0
            },
            {
                "start_time": 13.756818181818181,
                "end_time": 13.906818181818181,
                "pitch": 62,
                "velocity": 40,
                "duration": 0.15000000000000036,
                "tempo": 120.0
            },
            {
                "start_time": 13.922727272727272,
                "end_time": 14.075,
                "pitch": 62,
                "velocity": 40,
                "duration": 0.15227272727272734,
                "tempo": 120.0
            },
            {
                "start_time": 14.09090909090909,
                "end_time": 14.24090909090909,
                "pitch": 62,
                "velocity": 40,
                "duration": 0.15000000000000036,
                "tempo": 120.0
            },
            {
                "start_time": 14.259090909090908,
                "end_time": 14.409090909090908,
                "pitch": 62,
                "velocity": 40,
                "duration": 0.15000000000000036,
                "tempo": 120.0
            },
            {
                "start_time": 14.424999999999999,
                "end_time": 14.579545454545453,
                "pitch": 62,
                "velocity": 40,
                "duration": 0.15454545454545432,
                "tempo": 120.0
            },
            {
                "start_time": 14.597727272727273,
                "end_time": 14.752272727272727,
                "pitch": 62,
                "velocity": 40,
                "duration": 0.15454545454545432,
                "tempo": 120.0
            },
            {
                "start_time": 14.770454545454545,
                "end_time": 14.920454545454545,
                "pitch": 62,
                "velocity": 40,
                "duration": 0.15000000000000036,
                "tempo": 120.0
            },
            {
                "start_time": 14.938636363636363,
                "end_time": 15.088636363636363,
                "pitch": 62,
                "velocity": 40,
                "duration": 0.15000000000000036,
                "tempo": 120.0
            },
            {
                "start_time": 15.104545454545454,
                "end_time": 15.254545454545454,
                "pitch": 62,
                "velocity": 40,
                "duration": 0.15000000000000036,
                "tempo": 120.0
            },
            {
                "start_time": 15.272727272727272,
                "end_time": 15.422727272727272,
                "pitch": 62,
                "velocity": 40,
                "duration": 0.15000000000000036,
                "tempo": 120.0
            },
            {
                "start_time": 15.44090909090909,
                "end_time": 15.595454545454544,
                "pitch": 62,
                "velocity": 40,
                "duration": 0.15454545454545432,
                "tempo": 120.0
            },
            {
                "start_time": 15.611363636363636,
                "end_time": 15.76590909090909,
                "pitch": 62,
                "velocity": 40,
                "duration": 0.15454545454545432,
                "tempo": 120.0
            },
            {
                "start_time": 15.784090909090908,
                "end_time": 15.934090909090909,
                "pitch": 62,
                "velocity": 40,
                "duration": 0.15000000000000036,
                "tempo": 120.0
            },
            {
                "start_time": 15.952272727272726,
                "end_time": 16.102272727272727,
                "pitch": 62,
                "velocity": 40,
                "duration": 0.15000000000000036,
                "tempo": 120.0
            },
            {
                "start_time": 16.118181818181817,
                "end_time": 16.270454545454545,
                "pitch": 62,
                "velocity": 40,
                "duration": 0.15227272727272734,
                "tempo": 120.0
            },
            {
                "start_time": 16.286363636363635,
                "end_time": 16.436363636363634,
                "pitch": 62,
                "velocity": 40,
                "duration": 0.14999999999999858,
                "tempo": 120.0
            },
            {
                "start_time": 16.454545454545453,
                "end_time": 16.60909090909091,
                "pitch": 62,
                "velocity": 40,
                "duration": 0.1545454545454561,
                "tempo": 120.0
            },
            {
                "start_time": 16.625,
                "end_time": 16.78181818181818,
                "pitch": 62,
                "velocity": 40,
                "duration": 0.1568181818181813,
                "tempo": 120.0
            },
            {
                "start_time": 16.797727272727272,
                "end_time": 16.95,
                "pitch": 60,
                "velocity": 40,
                "duration": 0.15227272727272734,
                "tempo": 120.0
            },
            {
                "start_time": 16.96590909090909,
                "end_time": 17.11590909090909,
                "pitch": 60,
                "velocity": 40,
                "duration": 0.14999999999999858,
                "tempo": 120.0
            },
            {
                "start_time": 17.134090909090908,
                "end_time": 17.284090909090907,
                "pitch": 60,
                "velocity": 40,
                "duration": 0.14999999999999858,
                "tempo": 120.0
            },
            {
                "start_time": 17.3,
                "end_time": 17.452272727272728,
                "pitch": 60,
                "velocity": 40,
                "duration": 0.15227272727272734,
                "tempo": 120.0
            },
            {
                "start_time": 17.46818181818182,
                "end_time": 17.618181818181817,
                "pitch": 60,
                "velocity": 40,
                "duration": 0.14999999999999858,
                "tempo": 120.0
            },
            {
                "start_time": 17.636363636363637,
                "end_time": 17.786363636363635,
                "pitch": 60,
                "velocity": 40,
                "duration": 0.14999999999999858,
                "tempo": 120.0
            },
            {
                "start_time": 17.802272727272726,
                "end_time": 17.959090909090907,
                "pitch": 60,
                "velocity": 40,
                "duration": 0.1568181818181813,
                "tempo": 120.0
            },
            {
                "start_time": 17.974999999999998,
                "end_time": 18.129545454545454,
                "pitch": 60,
                "velocity": 40,
                "duration": 0.1545454545454561,
                "tempo": 120.0
            },
            {
                "start_time": 18.147727272727273,
                "end_time": 18.297727272727272,
                "pitch": 60,
                "velocity": 40,
                "duration": 0.14999999999999858,
                "tempo": 120.0
            },
            {
                "start_time": 18.31590909090909,
                "end_time": 18.46590909090909,
                "pitch": 60,
                "velocity": 40,
                "duration": 0.14999999999999858,
                "tempo": 120.0
            },
            {
                "start_time": 18.48181818181818,
                "end_time": 18.636363636363637,
                "pitch": 60,
                "velocity": 40,
                "duration": 0.1545454545454561,
                "tempo": 120.0
            },
            {
                "start_time": 18.654545454545453,
                "end_time": 18.80909090909091,
                "pitch": 60,
                "velocity": 40,
                "duration": 0.1545454545454561,
                "tempo": 120.0
            },
            {
                "start_time": 18.827272727272728,
                "end_time": 18.977272727272727,
                "pitch": 60,
                "velocity": 40,
                "duration": 0.14999999999999858,
                "tempo": 120.0
            },
            {
                "start_time": 18.993181818181817,
                "end_time": 19.145454545454545,
                "pitch": 60,
                "velocity": 40,
                "duration": 0.15227272727272734,
                "tempo": 120.0
            },
            {
                "start_time": 19.161363636363635,
                "end_time": 19.311363636363634,
                "pitch": 60,
                "velocity": 40,
                "duration": 0.14999999999999858,
                "tempo": 120.0
            },
            {
                "start_time": 19.329545454545453,
                "end_time": 19.479545454545452,
                "pitch": 60,
                "velocity": 40,
                "duration": 0.14999999999999858,
                "tempo": 120.0
            },
            {
                "start_time": 19.495454545454546,
                "end_time": 19.647727272727273,
                "pitch": 62,
                "velocity": 40,
                "duration": 0.15227272727272734,
                "tempo": 120.0
            },
            {
                "start_time": 19.663636363636364,
                "end_time": 19.813636363636363,
                "pitch": 62,
                "velocity": 40,
                "duration": 0.14999999999999858,
                "tempo": 120.0
            },
            {
                "start_time": 19.831818181818182,
                "end_time": 19.986363636363635,
                "pitch": 62,
                "velocity": 40,
                "duration": 0.15454545454545254,
                "tempo": 120.0
            },
            {
                "start_time": 20.004545454545454,
                "end_time": 20.159090909090907,
                "pitch": 62,
                "velocity": 40,
                "duration": 0.15454545454545254,
                "tempo": 120.0
            },
            {
                "start_time": 20.175,
                "end_time": 20.327272727272728,
                "pitch": 62,
                "velocity": 40,
                "duration": 0.15227272727272734,
                "tempo": 120.0
            },
            {
                "start_time": 20.34318181818182,
                "end_time": 20.493181818181817,
                "pitch": 62,
                "velocity": 40,
                "duration": 0.14999999999999858,
                "tempo": 120.0
            },
            {
                "start_time": 20.511363636363637,
                "end_time": 20.66590909090909,
                "pitch": 62,
                "velocity": 40,
                "duration": 0.15454545454545254,
                "tempo": 120.0
            },
            {
                "start_time": 20.68181818181818,
                "end_time": 20.83863636363636,
                "pitch": 62,
                "velocity": 40,
                "duration": 0.1568181818181813,
                "tempo": 120.0
            },
            {
                "start_time": 20.854545454545452,
                "end_time": 21.004545454545454,
                "pitch": 62,
                "velocity": 40,
                "duration": 0.15000000000000213,
                "tempo": 120.0
            },
            {
                "start_time": 21.022727272727273,
                "end_time": 21.172727272727272,
                "pitch": 62,
                "velocity": 40,
                "duration": 0.14999999999999858,
                "tempo": 120.0
            },
            {
                "start_time": 21.19090909090909,
                "end_time": 21.345454545454544,
                "pitch": 62,
                "velocity": 40,
                "duration": 0.15454545454545254,
                "tempo": 120.0
            },
            {
                "start_time": 21.361363636363635,
                "end_time": 21.51590909090909,
                "pitch": 62,
                "velocity": 40,
                "duration": 0.1545454545454561,
                "tempo": 120.0
            },
            {
                "start_time": 21.534090909090907,
                "end_time": 21.68409090909091,
                "pitch": 62,
                "velocity": 40,
                "duration": 0.15000000000000213,
                "tempo": 120.0
            },
            {
                "start_time": 21.702272727272724,
                "end_time": 21.852272727272727,
                "pitch": 62,
                "velocity": 40,
                "duration": 0.15000000000000213,
                "tempo": 120.0
            },
            {
                "start_time": 21.868181818181817,
                "end_time": 22.020454545454545,
                "pitch": 62,
                "velocity": 40,
                "duration": 0.15227272727272734,
                "tempo": 120.0
            },
            {
                "start_time": 22.036363636363635,
                "end_time": 22.186363636363634,
                "pitch": 62,
                "velocity": 40,
                "duration": 0.14999999999999858,
                "tempo": 120.0
            },
            {
                "start_time": 22.538636363636364,
                "end_time": 22.86590909090909,
                "pitch": 62,
                "velocity": 40,
                "duration": 0.3272727272727245,
                "tempo": 120.0
            },
            {
                "start_time": 23.049999999999997,
                "end_time": 23.202272727272724,
                "pitch": 64,
                "velocity": 40,
                "duration": 0.15227272727272734,
                "tempo": 120.0
            },
            {
                "start_time": 23.552272727272726,
                "end_time": 23.879545454545454,
                "pitch": 65,
                "velocity": 40,
                "duration": 0.32727272727272805,
                "tempo": 120.0
            },
            {
                "start_time": 24.06590909090909,
                "end_time": 24.386363636363637,
                "pitch": 64,
                "velocity": 40,
                "duration": 0.3204545454545453,
                "tempo": 120.0
            },
            {
                "start_time": 24.404545454545453,
                "end_time": 24.55909090909091,
                "pitch": 64,
                "velocity": 40,
                "duration": 0.1545454545454561,
                "tempo": 120.0
            },
            {
                "start_time": 24.577272727272724,
                "end_time": 24.727272727272727,
                "pitch": 62,
                "velocity": 40,
                "duration": 0.15000000000000213,
                "tempo": 120.0
            },
            {
                "start_time": 25.245454545454542,
                "end_time": 25.563636363636363,
                "pitch": 62,
                "velocity": 40,
                "duration": 0.3181818181818201,
                "tempo": 120.0
            },
            {
                "start_time": 25.752272727272725,
                "end_time": 25.909090909090907,
                "pitch": 64,
                "velocity": 40,
                "duration": 0.1568181818181813,
                "tempo": 120.0
            },
            {
                "start_time": 26.261363636363637,
                "end_time": 26.579545454545453,
                "pitch": 65,
                "velocity": 40,
                "duration": 0.31818181818181657,
                "tempo": 120.0
            },
            {
                "start_time": 26.768181818181816,
                "end_time": 27.09090909090909,
                "pitch": 64,
                "velocity": 40,
                "duration": 0.3227272727272741,
                "tempo": 120.0
            },
            {
                "start_time": 27.10681818181818,
                "end_time": 27.259090909090908,
                "pitch": 64,
                "velocity": 40,
                "duration": 0.15227272727272734,
                "tempo": 120.0
            },
            {
                "start_time": 27.275,
                "end_time": 27.429545454545455,
                "pitch": 62,
                "velocity": 40,
                "duration": 0.1545454545454561,
                "tempo": 120.0
            },
            {
                "start_time": 27.954545454545453,
                "end_time": 28.27272727272727,
                "pitch": 60,
                "velocity": 40,
                "duration": 0.31818181818181657,
                "tempo": 120.0
            },
            {
                "start_time": 28.456818181818182,
                "end_time": 28.60681818181818,
                "pitch": 62,
                "velocity": 40,
                "duration": 0.14999999999999858,
                "tempo": 120.0
            },
            {
                "start_time": 28.968181818181815,
                "end_time": 29.286363636363635,
                "pitch": 63,
                "velocity": 40,
                "duration": 0.3181818181818201,
                "tempo": 120.0
            },
            {
                "start_time": 29.470454545454544,
                "end_time": 29.793181818181818,
                "pitch": 62,
                "velocity": 40,
                "duration": 0.3227272727272741,
                "tempo": 120.0
            },
            {
                "start_time": 29.80909090909091,
                "end_time": 29.96590909090909,
                "pitch": 62,
                "velocity": 40,
                "duration": 0.1568181818181813,
                "tempo": 120.0
            },
            {
                "start_time": 29.98181818181818,
                "end_time": 30.134090909090908,
                "pitch": 60,
                "velocity": 40,
                "duration": 0.15227272727272734,
                "tempo": 120.0
            },
            {
                "start_time": 30.652272727272727,
                "end_time": 30.979545454545452,
                "pitch": 62,
                "velocity": 40,
                "duration": 0.3272727272727245,
                "tempo": 120.0
            },
            {
                "start_time": 31.16363636363636,
                "end_time": 31.313636363636363,
                "pitch": 64,
                "velocity": 40,
                "duration": 0.15000000000000213,
                "tempo": 120.0
            },
            {
                "start_time": 31.66590909090909,
                "end_time": 33.00909090909091,
                "pitch": 65,
                "velocity": 40,
                "duration": 1.3431818181818187,
                "tempo": 120.0
            },
            {
                "start_time": 33.35909090909091,
                "end_time": 33.67727272727272,
                "pitch": 62,
                "velocity": 40,
                "duration": 0.318181818181813,
                "tempo": 120.0
            },
            {
                "start_time": 33.861363636363635,
                "end_time": 34.013636363636365,
                "pitch": 64,
                "velocity": 40,
                "duration": 0.1522727272727309,
                "tempo": 120.0
            },
            {
                "start_time": 34.37272727272727,
                "end_time": 34.69090909090909,
                "pitch": 65,
                "velocity": 40,
                "duration": 0.3181818181818201,
                "tempo": 120.0
            },
            {
                "start_time": 34.88181818181818,
                "end_time": 35.20454545454545,
                "pitch": 64,
                "velocity": 40,
                "duration": 0.32272727272727053,
                "tempo": 120.0
            },
            {
                "start_time": 35.220454545454544,
                "end_time": 35.37045454545454,
                "pitch": 64,
                "velocity": 40,
                "duration": 0.14999999999999858,
                "tempo": 120.0
            },
            {
                "start_time": 35.388636363636365,
                "end_time": 35.543181818181814,
                "pitch": 62,
                "velocity": 40,
                "duration": 0.154545454545449,
                "tempo": 120.0
            },
            {
                "start_time": 36.06818181818181,
                "end_time": 36.38636363636363,
                "pitch": 62,
                "velocity": 40,
                "duration": 0.3181818181818201,
                "tempo": 120.0
            },
            {
                "start_time": 36.570454545454545,
                "end_time": 36.720454545454544,
                "pitch": 64,
                "velocity": 40,
                "duration": 0.14999999999999858,
                "tempo": 120.0
            },
            {
                "start_time": 37.08181818181818,
                "end_time": 37.4,
                "pitch": 65,
                "velocity": 40,
                "duration": 0.3181818181818201,
                "tempo": 120.0
            },
            {
                "start_time": 37.58409090909091,
                "end_time": 37.90681818181818,
                "pitch": 64,
                "velocity": 40,
                "duration": 0.32272727272727053,
                "tempo": 120.0
            },
            {
                "start_time": 37.92272727272727,
                "end_time": 38.07727272727273,
                "pitch": 64,
                "velocity": 40,
                "duration": 0.1545454545454561,
                "tempo": 120.0
            },
            {
                "start_time": 38.095454545454544,
                "end_time": 38.24545454545454,
                "pitch": 62,
                "velocity": 40,
                "duration": 0.14999999999999858,
                "tempo": 120.0
            },
            {
                "start_time": 38.76590909090909,
                "end_time": 39.09318181818182,
                "pitch": 60,
                "velocity": 40,
                "duration": 0.32727272727272805,
                "tempo": 120.0
            },
            {
                "start_time": 39.277272727272724,
                "end_time": 39.42727272727272,
                "pitch": 62,
                "velocity": 40,
                "duration": 0.14999999999999858,
                "tempo": 120.0
            },
            {
                "start_time": 39.779545454545456,
                "end_time": 40.09772727272727,
                "pitch": 63,
                "velocity": 40,
                "duration": 0.318181818181813,
                "tempo": 120.0
            },
            {
                "start_time": 40.28636363636363,
                "end_time": 40.60909090909091,
                "pitch": 62,
                "velocity": 40,
                "duration": 0.32272727272727764,
                "tempo": 120.0
            },
            {
                "start_time": 40.625,
                "end_time": 40.777272727272724,
                "pitch": 62,
                "velocity": 40,
                "duration": 0.15227272727272378,
                "tempo": 120.0
            },
            {
                "start_time": 40.793181818181814,
                "end_time": 40.94772727272727,
                "pitch": 60,
                "velocity": 40,
                "duration": 0.1545454545454561,
                "tempo": 120.0
            },
            {
                "start_time": 41.47272727272727,
                "end_time": 41.79090909090909,
                "pitch": 62,
                "velocity": 40,
                "duration": 0.3181818181818201,
                "tempo": 120.0
            },
            {
                "start_time": 41.97954545454545,
                "end_time": 42.13409090909091,
                "pitch": 64,
                "velocity": 40,
                "duration": 0.1545454545454561,
                "tempo": 120.0
            },
            {
                "start_time": 42.486363636363635,
                "end_time": 43.81818181818181,
                "pitch": 65,
                "velocity": 40,
                "duration": 1.3318181818181785,
                "tempo": 120.0
            },
            {
                "start_time": 44.00909090909091,
                "end_time": 44.163636363636364,
                "pitch": 63,
                "velocity": 40,
                "duration": 0.1545454545454561,
                "tempo": 120.0
            },
            {
                "start_time": 44.179545454545455,
                "end_time": 44.33181818181818,
                "pitch": 58,
                "velocity": 40,
                "duration": 0.15227272727272378,
                "tempo": 120.0
            },
            {
                "start_time": 44.34772727272727,
                "end_time": 44.49772727272727,
                "pitch": 56,
                "velocity": 40,
                "duration": 0.14999999999999858,
                "tempo": 120.0
            },
            {
                "start_time": 44.51590909090909,
                "end_time": 44.66590909090909,
                "pitch": 63,
                "velocity": 40,
                "duration": 0.14999999999999858,
                "tempo": 120.0
            },
            {
                "start_time": 44.68181818181818,
                "end_time": 44.834090909090904,
                "pitch": 58,
                "velocity": 40,
                "duration": 0.15227272727272378,
                "tempo": 120.0
            },
            {
                "start_time": 44.849999999999994,
                "end_time": 45.0,
                "pitch": 56,
                "velocity": 40,
                "duration": 0.15000000000000568,
                "tempo": 120.0
            },
            {
                "start_time": 45.018181818181816,
                "end_time": 45.168181818181814,
                "pitch": 58,
                "velocity": 40,
                "duration": 0.14999999999999858,
                "tempo": 120.0
            },
            {
                "start_time": 45.184090909090905,
                "end_time": 45.340909090909086,
                "pitch": 65,
                "velocity": 40,
                "duration": 0.1568181818181813,
                "tempo": 120.0
            },
            {
                "start_time": 45.35681818181818,
                "end_time": 45.51136363636363,
                "pitch": 60,
                "velocity": 40,
                "duration": 0.1545454545454561,
                "tempo": 120.0
            },
            {
                "start_time": 45.52954545454545,
                "end_time": 45.679545454545455,
                "pitch": 58,
                "velocity": 40,
                "duration": 0.15000000000000568,
                "tempo": 120.0
            },
            {
                "start_time": 45.69772727272727,
                "end_time": 45.84772727272727,
                "pitch": 65,
                "velocity": 40,
                "duration": 0.14999999999999858,
                "tempo": 120.0
            },
            {
                "start_time": 45.86363636363636,
                "end_time": 46.018181818181816,
                "pitch": 60,
                "velocity": 40,
                "duration": 0.1545454545454561,
                "tempo": 120.0
            },
            {
                "start_time": 46.03636363636363,
                "end_time": 46.19090909090909,
                "pitch": 58,
                "velocity": 40,
                "duration": 0.1545454545454561,
                "tempo": 120.0
            },
            {
                "start_time": 46.209090909090904,
                "end_time": 46.35909090909091,
                "pitch": 65,
                "velocity": 40,
                "duration": 0.15000000000000568,
                "tempo": 120.0
            },
            {
                "start_time": 46.375,
                "end_time": 46.527272727272724,
                "pitch": 70,
                "velocity": 40,
                "duration": 0.15227272727272378,
                "tempo": 120.0
            },
            {
                "start_time": 46.711363636363636,
                "end_time": 46.861363636363635,
                "pitch": 63,
                "velocity": 40,
                "duration": 0.14999999999999858,
                "tempo": 120.0
            },
            {
                "start_time": 46.87954545454545,
                "end_time": 47.03409090909091,
                "pitch": 58,
                "velocity": 40,
                "duration": 0.1545454545454561,
                "tempo": 120.0
            },
            {
                "start_time": 47.05,
                "end_time": 47.20454545454545,
                "pitch": 56,
                "velocity": 40,
                "duration": 0.1545454545454561,
                "tempo": 120.0
            },
            {
                "start_time": 47.22272727272727,
                "end_time": 47.37272727272727,
                "pitch": 63,
                "velocity": 40,
                "duration": 0.14999999999999858,
                "tempo": 120.0
            },
            {
                "start_time": 47.39090909090909,
                "end_time": 47.54090909090909,
                "pitch": 58,
                "velocity": 40,
                "duration": 0.14999999999999858,
                "tempo": 120.0
            },
            {
                "start_time": 47.55681818181818,
                "end_time": 47.709090909090904,
                "pitch": 56,
                "velocity": 40,
                "duration": 0.15227272727272378,
                "tempo": 120.0
            },
            {
                "start_time": 47.724999999999994,
                "end_time": 47.875,
                "pitch": 58,
                "velocity": 40,
                "duration": 0.15000000000000568,
                "tempo": 120.0
            },
            {
                "start_time": 47.893181818181816,
                "end_time": 48.043181818181814,
                "pitch": 65,
                "velocity": 40,
                "duration": 0.14999999999999858,
                "tempo": 120.0
            },
            {
                "start_time": 48.059090909090905,
                "end_time": 48.211363636363636,
                "pitch": 60,
                "velocity": 40,
                "duration": 0.1522727272727309,
                "tempo": 120.0
            },
            {
                "start_time": 48.22727272727273,
                "end_time": 48.38181818181818,
                "pitch": 58,
                "velocity": 40,
                "duration": 0.1545454545454561,
                "tempo": 120.0
            },
            {
                "start_time": 48.4,
                "end_time": 48.554545454545455,
                "pitch": 65,
                "velocity": 40,
                "duration": 0.1545454545454561,
                "tempo": 120.0
            },
            {
                "start_time": 48.57272727272727,
                "end_time": 48.72272727272727,
                "pitch": 60,
                "velocity": 40,
                "duration": 0.14999999999999858,
                "tempo": 120.0
            },
            {
                "start_time": 48.73863636363636,
                "end_time": 48.89090909090909,
                "pitch": 58,
                "velocity": 40,
                "duration": 0.1522727272727309,
                "tempo": 120.0
            },
            {
                "start_time": 48.90681818181818,
                "end_time": 49.06136363636364,
                "pitch": 65,
                "velocity": 40,
                "duration": 0.1545454545454561,
                "tempo": 120.0
            },
            {
                "start_time": 49.07954545454545,
                "end_time": 49.23409090909091,
                "pitch": 70,
                "velocity": 40,
                "duration": 0.1545454545454561,
                "tempo": 120.0
            },
            {
                "start_time": 49.418181818181814,
                "end_time": 49.56818181818181,
                "pitch": 63,
                "velocity": 40,
                "duration": 0.14999999999999858,
                "tempo": 120.0
            },
            {
                "start_time": 49.586363636363636,
                "end_time": 49.736363636363635,
                "pitch": 58,
                "velocity": 40,
                "duration": 0.14999999999999858,
                "tempo": 120.0
            },
            {
                "start_time": 49.75454545454545,
                "end_time": 49.90454545454545,
                "pitch": 56,
                "velocity": 40,
                "duration": 0.14999999999999858,
                "tempo": 120.0
            },
            {
                "start_time": 49.92045454545454,
                "end_time": 50.070454545454545,
                "pitch": 63,
                "velocity": 40,
                "duration": 0.15000000000000568,
                "tempo": 120.0
            },
            {
                "start_time": 50.08863636363636,
                "end_time": 50.23863636363636,
                "pitch": 58,
                "velocity": 40,
                "duration": 0.14999999999999858,
                "tempo": 120.0
            },
            {
                "start_time": 50.25681818181818,
                "end_time": 50.41136363636363,
                "pitch": 56,
                "velocity": 40,
                "duration": 0.154545454545449,
                "tempo": 120.0
            },
            {
                "start_time": 50.42727272727272,
                "end_time": 50.58181818181818,
                "pitch": 58,
                "velocity": 40,
                "duration": 0.1545454545454561,
                "tempo": 120.0
            },
            {
                "start_time": 50.599999999999994,
                "end_time": 50.75,
                "pitch": 65,
                "velocity": 40,
                "duration": 0.15000000000000568,
                "tempo": 120.0
            },
            {
                "start_time": 50.768181818181816,
                "end_time": 50.918181818181814,
                "pitch": 60,
                "velocity": 40,
                "duration": 0.14999999999999858,
                "tempo": 120.0
            },
            {
                "start_time": 50.934090909090905,
                "end_time": 51.090909090909086,
                "pitch": 58,
                "velocity": 40,
                "duration": 0.1568181818181813,
                "tempo": 120.0
            },
            {
                "start_time": 51.10681818181818,
                "end_time": 51.26136363636363,
                "pitch": 65,
                "velocity": 40,
                "duration": 0.1545454545454561,
                "tempo": 120.0
            },
            {
                "start_time": 51.27954545454545,
                "end_time": 51.429545454545455,
                "pitch": 60,
                "velocity": 40,
                "duration": 0.15000000000000568,
                "tempo": 120.0
            },
            {
                "start_time": 51.44772727272727,
                "end_time": 51.59772727272727,
                "pitch": 58,
                "velocity": 40,
                "duration": 0.14999999999999858,
                "tempo": 120.0
            },
            {
                "start_time": 51.61363636363636,
                "end_time": 51.76590909090909,
                "pitch": 65,
                "velocity": 40,
                "duration": 0.1522727272727309,
                "tempo": 120.0
            },
            {
                "start_time": 51.78181818181818,
                "end_time": 51.93181818181818,
                "pitch": 70,
                "velocity": 40,
                "duration": 0.14999999999999858,
                "tempo": 120.0
            },
            {
                "start_time": 52.115909090909085,
                "end_time": 52.268181818181816,
                "pitch": 63,
                "velocity": 40,
                "duration": 0.1522727272727309,
                "tempo": 120.0
            },
            {
                "start_time": 52.28409090909091,
                "end_time": 52.43863636363636,
                "pitch": 58,
                "velocity": 40,
                "duration": 0.1545454545454561,
                "tempo": 120.0
            },
            {
                "start_time": 52.45681818181818,
                "end_time": 52.611363636363635,
                "pitch": 56,
                "velocity": 40,
                "duration": 0.1545454545454561,
                "tempo": 120.0
            },
            {
                "start_time": 52.62954545454545,
                "end_time": 52.77954545454545,
                "pitch": 63,
                "velocity": 40,
                "duration": 0.14999999999999858,
                "tempo": 120.0
            },
            {
                "start_time": 52.79545454545454,
                "end_time": 52.945454545454545,
                "pitch": 58,
                "velocity": 40,
                "duration": 0.15000000000000568,
                "tempo": 120.0
            },
            {
                "start_time": 52.96363636363636,
                "end_time": 53.11363636363636,
                "pitch": 56,
                "velocity": 40,
                "duration": 0.14999999999999858,
                "tempo": 120.0
            },
            {
                "start_time": 53.13181818181818,
                "end_time": 53.28181818181818,
                "pitch": 58,
                "velocity": 40,
                "duration": 0.14999999999999858,
                "tempo": 120.0
            },
            {
                "start_time": 53.29772727272727,
                "end_time": 54.64090909090909,
                "pitch": 60,
                "velocity": 40,
                "duration": 1.3431818181818187,
                "tempo": 120.0
            },
            {
                "start_time": 54.65681818181818,
                "end_time": 54.67272727272727,
                "pitch": 62,
                "velocity": 40,
                "duration": 0.01590909090909065,
                "tempo": 120.0
            }
        ],
        "Church Organ": [
            {
                "start_time": 0.9249999999999999,
                "end_time": 1.25,
                "pitch": 62,
                "velocity": 51,
                "duration": 0.32500000000000007,
                "tempo": 120.0
            },
            {
                "start_time": 1.434090909090909,
                "end_time": 1.5863636363636362,
                "pitch": 64,
                "velocity": 51,
                "duration": 0.15227272727272712,
                "tempo": 120.0
            },
            {
                "start_time": 1.9659090909090908,
                "end_time": 2.290909090909091,
                "pitch": 65,
                "velocity": 51,
                "duration": 0.3250000000000002,
                "tempo": 120.0
            },
            {
                "start_time": 2.4818181818181815,
                "end_time": 2.8022727272727272,
                "pitch": 64,
                "velocity": 51,
                "duration": 0.32045454545454577,
                "tempo": 120.0
            },
            {
                "start_time": 2.8204545454545453,
                "end_time": 2.9704545454545452,
                "pitch": 64,
                "velocity": 51,
                "duration": 0.1499999999999999,
                "tempo": 120.0
            },
            {
                "start_time": 2.9886363636363633,
                "end_time": 3.143181818181818,
                "pitch": 62,
                "velocity": 51,
                "duration": 0.15454545454545476,
                "tempo": 120.0
            },
            {
                "start_time": 3.6568181818181817,
                "end_time": 3.9818181818181815,
                "pitch": 62,
                "velocity": 51,
                "duration": 0.32499999999999973,
                "tempo": 120.0
            },
            {
                "start_time": 4.165909090909091,
                "end_time": 4.318181818181818,
                "pitch": 64,
                "velocity": 51,
                "duration": 0.15227272727272734,
                "tempo": 120.0
            },
            {
                "start_time": 4.679545454545455,
                "end_time": 4.997727272727272,
                "pitch": 65,
                "velocity": 51,
                "duration": 0.31818181818181746,
                "tempo": 120.0
            },
            {
                "start_time": 5.1863636363636365,
                "end_time": 5.509090909090909,
                "pitch": 64,
                "velocity": 51,
                "duration": 0.3227272727272723,
                "tempo": 120.0
            },
            {
                "start_time": 5.5249999999999995,
                "end_time": 5.677272727272727,
                "pitch": 64,
                "velocity": 51,
                "duration": 0.15227272727272734,
                "tempo": 120.0
            },
            {
                "start_time": 5.693181818181818,
                "end_time": 5.843181818181818,
                "pitch": 62,
                "velocity": 51,
                "duration": 0.14999999999999947,
                "tempo": 120.0
            },
            {
                "start_time": 6.363636363636363,
                "end_time": 6.6909090909090905,
                "pitch": 60,
                "velocity": 51,
                "duration": 0.32727272727272716,
                "tempo": 120.0
            },
            {
                "start_time": 6.875,
                "end_time": 7.0249999999999995,
                "pitch": 62,
                "velocity": 51,
                "duration": 0.14999999999999947,
                "tempo": 120.0
            },
            {
                "start_time": 7.377272727272727,
                "end_time": 7.695454545454545,
                "pitch": 63,
                "velocity": 51,
                "duration": 0.31818181818181834,
                "tempo": 120.0
            },
            {
                "start_time": 7.886363636363636,
                "end_time": 8.206818181818182,
                "pitch": 62,
                "velocity": 51,
                "duration": 0.3204545454545462,
                "tempo": 120.0
            },
            {
                "start_time": 8.222727272727273,
                "end_time": 8.375,
                "pitch": 62,
                "velocity": 51,
                "duration": 0.15227272727272734,
                "tempo": 120.0
            },
            {
                "start_time": 8.393181818181818,
                "end_time": 8.547727272727272,
                "pitch": 60,
                "velocity": 51,
                "duration": 0.15454545454545432,
                "tempo": 120.0
            },
            {
                "start_time": 9.070454545454545,
                "end_time": 9.388636363636364,
                "pitch": 62,
                "velocity": 51,
                "duration": 0.31818181818181834,
                "tempo": 120.0
            },
            {
                "start_time": 9.572727272727272,
                "end_time": 9.725,
                "pitch": 64,
                "velocity": 51,
                "duration": 0.15227272727272734,
                "tempo": 120.0
            },
            {
                "start_time": 10.084090909090909,
                "end_time": 11.384090909090908,
                "pitch": 65,
                "velocity": 51,
                "duration": 1.299999999999999,
                "tempo": 120.0
            },
            {
                "start_time": 11.384090909090908,
                "end_time": 11.418181818181818,
                "pitch": 65,
                "velocity": 51,
                "duration": 0.03409090909091006,
                "tempo": 120.0
            },
            {
                "start_time": 11.777272727272727,
                "end_time": 12.095454545454546,
                "pitch": 62,
                "velocity": 51,
                "duration": 0.31818181818181834,
                "tempo": 120.0
            },
            {
                "start_time": 12.279545454545454,
                "end_time": 12.431818181818182,
                "pitch": 64,
                "velocity": 51,
                "duration": 0.15227272727272734,
                "tempo": 120.0
            },
            {
                "start_time": 12.790909090909091,
                "end_time": 13.111363636363636,
                "pitch": 65,
                "velocity": 51,
                "duration": 0.3204545454545453,
                "tempo": 120.0
            },
            {
                "start_time": 13.299999999999999,
                "end_time": 13.622727272727271,
                "pitch": 64,
                "velocity": 51,
                "duration": 0.3227272727272723,
                "tempo": 120.0
            },
            {
                "start_time": 13.638636363636364,
                "end_time": 13.788636363636362,
                "pitch": 64,
                "velocity": 51,
                "duration": 0.14999999999999858,
                "tempo": 120.0
            },
            {
                "start_time": 13.806818181818182,
                "end_time": 13.956818181818182,
                "pitch": 62,
                "velocity": 51,
                "duration": 0.15000000000000036,
                "tempo": 120.0
            },
            {
                "start_time": 14.477272727272727,
                "end_time": 14.804545454545455,
                "pitch": 62,
                "velocity": 51,
                "duration": 0.32727272727272805,
                "tempo": 120.0
            },
            {
                "start_time": 14.988636363636363,
                "end_time": 15.138636363636364,
                "pitch": 64,
                "velocity": 51,
                "duration": 0.15000000000000036,
                "tempo": 120.0
            },
            {
                "start_time": 15.49090909090909,
                "end_time": 15.818181818181817,
                "pitch": 65,
                "velocity": 51,
                "duration": 0.32727272727272627,
                "tempo": 120.0
            },
            {
                "start_time": 16.002272727272725,
                "end_time": 16.320454545454545,
                "pitch": 64,
                "velocity": 51,
                "duration": 0.3181818181818201,
                "tempo": 120.0
            },
            {
                "start_time": 16.336363636363636,
                "end_time": 16.488636363636363,
                "pitch": 64,
                "velocity": 51,
                "duration": 0.15227272727272734,
                "tempo": 120.0
            },
            {
                "start_time": 16.504545454545454,
                "end_time": 16.661363636363635,
                "pitch": 62,
                "velocity": 51,
                "duration": 0.1568181818181813,
                "tempo": 120.0
            },
            {
                "start_time": 17.18409090909091,
                "end_time": 17.502272727272725,
                "pitch": 60,
                "velocity": 51,
                "duration": 0.31818181818181657,
                "tempo": 120.0
            },
            {
                "start_time": 17.686363636363634,
                "end_time": 17.836363636363636,
                "pitch": 62,
                "velocity": 51,
                "duration": 0.15000000000000213,
                "tempo": 120.0
            },
            {
                "start_time": 18.19772727272727,
                "end_time": 18.51590909090909,
                "pitch": 63,
                "velocity": 51,
                "duration": 0.3181818181818201,
                "tempo": 120.0
            },
            {
                "start_time": 18.706818181818182,
                "end_time": 19.027272727272727,
                "pitch": 62,
                "velocity": 51,
                "duration": 0.3204545454545453,
                "tempo": 120.0
            },
            {
                "start_time": 19.045454545454543,
                "end_time": 19.195454545454545,
                "pitch": 62,
                "velocity": 51,
                "duration": 0.15000000000000213,
                "tempo": 120.0
            },
            {
                "start_time": 19.211363636363636,
                "end_time": 19.361363636363635,
                "pitch": 60,
                "velocity": 51,
                "duration": 0.14999999999999858,
                "tempo": 120.0
            },
            {
                "start_time": 19.88181818181818,
                "end_time": 20.209090909090907,
                "pitch": 62,
                "velocity": 51,
                "duration": 0.32727272727272805,
                "tempo": 120.0
            },
            {
                "start_time": 20.393181818181816,
                "end_time": 20.545454545454543,
                "pitch": 64,
                "velocity": 51,
                "duration": 0.15227272727272734,
                "tempo": 120.0
            },
            {
                "start_time": 20.904545454545453,
                "end_time": 21.395454545454545,
                "pitch": 65,
                "velocity": 51,
                "duration": 0.49090909090909207,
                "tempo": 120.0
            },
            {
                "start_time": 21.413636363636364,
                "end_time": 21.568181818181817,
                "pitch": 62,
                "velocity": 51,
                "duration": 0.15454545454545254,
                "tempo": 120.0
            },
            {
                "start_time": 21.584090909090907,
                "end_time": 21.73409090909091,
                "pitch": 65,
                "velocity": 51,
                "duration": 0.15000000000000213,
                "tempo": 120.0
            },
            {
                "start_time": 21.752272727272725,
                "end_time": 21.902272727272727,
                "pitch": 67,
                "velocity": 51,
                "duration": 0.15000000000000213,
                "tempo": 120.0
            },
            {
                "start_time": 21.920454545454543,
                "end_time": 22.236363636363635,
                "pitch": 70,
                "velocity": 51,
                "duration": 0.31590909090909136,
                "tempo": 120.0
            },
            {
                "start_time": 22.254545454545454,
                "end_time": 23.586363636363636,
                "pitch": 67,
                "velocity": 51,
                "duration": 1.331818181818182,
                "tempo": 120.0
            },
            {
                "start_time": 24.11590909090909,
                "end_time": 24.26590909090909,
                "pitch": 62,
                "velocity": 51,
                "duration": 0.15000000000000213,
                "tempo": 120.0
            },
            {
                "start_time": 24.284090909090907,
                "end_time": 24.438636363636363,
                "pitch": 65,
                "velocity": 51,
                "duration": 0.1545454545454561,
                "tempo": 120.0
            },
            {
                "start_time": 24.456818181818182,
                "end_time": 24.60909090909091,
                "pitch": 67,
                "velocity": 51,
                "duration": 0.15227272727272734,
                "tempo": 120.0
            },
            {
                "start_time": 24.627272727272725,
                "end_time": 24.945454545454545,
                "pitch": 70,
                "velocity": 51,
                "duration": 0.3181818181818201,
                "tempo": 120.0
            },
            {
                "start_time": 24.961363636363636,
                "end_time": 26.293181818181818,
                "pitch": 67,
                "velocity": 51,
                "duration": 1.331818181818182,
                "tempo": 120.0
            },
            {
                "start_time": 26.818181818181817,
                "end_time": 26.972727272727273,
                "pitch": 62,
                "velocity": 51,
                "duration": 0.1545454545454561,
                "tempo": 120.0
            },
            {
                "start_time": 26.99090909090909,
                "end_time": 27.14090909090909,
                "pitch": 65,
                "velocity": 51,
                "duration": 0.15000000000000213,
                "tempo": 120.0
            },
            {
                "start_time": 27.15681818181818,
                "end_time": 27.30909090909091,
                "pitch": 67,
                "velocity": 51,
                "duration": 0.15227272727272734,
                "tempo": 120.0
            },
            {
                "start_time": 27.325,
                "end_time": 27.652272727272727,
                "pitch": 70,
                "velocity": 51,
                "duration": 0.32727272727272805,
                "tempo": 120.0
            },
            {
                "start_time": 27.668181818181818,
                "end_time": 29.002272727272725,
                "pitch": 72,
                "velocity": 51,
                "duration": 1.3340909090909072,
                "tempo": 120.0
            },
            {
                "start_time": 29.018181818181816,
                "end_time": 29.504545454545454,
                "pitch": 72,
                "velocity": 51,
                "duration": 0.4863636363636381,
                "tempo": 120.0
            },
            {
                "start_time": 29.520454545454545,
                "end_time": 29.845454545454544,
                "pitch": 70,
                "velocity": 51,
                "duration": 0.3249999999999993,
                "tempo": 120.0
            },
            {
                "start_time": 29.861363636363635,
                "end_time": 30.01590909090909,
                "pitch": 62,
                "velocity": 51,
                "duration": 0.1545454545454561,
                "tempo": 120.0
            },
            {
                "start_time": 30.03181818181818,
                "end_time": 30.349999999999998,
                "pitch": 65,
                "velocity": 51,
                "duration": 0.31818181818181657,
                "tempo": 120.0
            },
            {
                "start_time": 30.368181818181817,
                "end_time": 31.7,
                "pitch": 67,
                "velocity": 51,
                "duration": 1.331818181818182,
                "tempo": 120.0
            },
            {
                "start_time": 32.22727272727273,
                "end_time": 32.37954545454545,
                "pitch": 62,
                "velocity": 51,
                "duration": 0.15227272727272378,
                "tempo": 120.0
            },
            {
                "start_time": 32.39772727272727,
                "end_time": 32.55227272727272,
                "pitch": 65,
                "velocity": 51,
                "duration": 0.154545454545449,
                "tempo": 120.0
            },
            {
                "start_time": 32.56818181818182,
                "end_time": 32.72272727272727,
                "pitch": 67,
                "velocity": 51,
                "duration": 0.154545454545449,
                "tempo": 120.0
            },
            {
                "start_time": 32.74090909090909,
                "end_time": 33.059090909090905,
                "pitch": 70,
                "velocity": 51,
                "duration": 0.318181818181813,
                "tempo": 120.0
            },
            {
                "start_time": 33.074999999999996,
                "end_time": 34.40681818181818,
                "pitch": 67,
                "velocity": 51,
                "duration": 1.3318181818181856,
                "tempo": 120.0
            },
            {
                "start_time": 34.93181818181818,
                "end_time": 35.086363636363636,
                "pitch": 62,
                "velocity": 51,
                "duration": 0.1545454545454561,
                "tempo": 120.0
            },
            {
                "start_time": 35.10227272727273,
                "end_time": 35.25454545454545,
                "pitch": 65,
                "velocity": 51,
                "duration": 0.15227272727272378,
                "tempo": 120.0
            },
            {
                "start_time": 35.27045454545454,
                "end_time": 35.42272727272727,
                "pitch": 67,
                "velocity": 51,
                "duration": 0.1522727272727309,
                "tempo": 120.0
            },
            {
                "start_time": 35.43863636363636,
                "end_time": 35.76590909090909,
                "pitch": 70,
                "velocity": 51,
                "duration": 0.32727272727272805,
                "tempo": 120.0
            },
            {
                "start_time": 35.78181818181818,
                "end_time": 37.11590909090909,
                "pitch": 67,
                "velocity": 51,
                "duration": 1.3340909090909108,
                "tempo": 120.0
            },
            {
                "start_time": 37.63409090909091,
                "end_time": 37.78636363636363,
                "pitch": 62,
                "velocity": 51,
                "duration": 0.15227272727272378,
                "tempo": 120.0
            },
            {
                "start_time": 37.80227272727272,
                "end_time": 37.95681818181818,
                "pitch": 65,
                "velocity": 51,
                "duration": 0.1545454545454561,
                "tempo": 120.0
            },
            {
                "start_time": 37.975,
                "end_time": 38.12954545454545,
                "pitch": 67,
                "velocity": 51,
                "duration": 0.154545454545449,
                "tempo": 120.0
            },
            {
                "start_time": 38.14545454545454,
                "end_time": 38.46363636363636,
                "pitch": 70,
                "velocity": 51,
                "duration": 0.3181818181818201,
                "tempo": 120.0
            },
            {
                "start_time": 38.47954545454545,
                "end_time": 39.81363636363636,
                "pitch": 72,
                "velocity": 51,
                "duration": 1.3340909090909108,
                "tempo": 120.0
            },
            {
                "start_time": 39.82954545454545,
                "end_time": 40.320454545454545,
                "pitch": 72,
                "velocity": 51,
                "duration": 0.49090909090909207,
                "tempo": 120.0
            },
            {
                "start_time": 40.33863636363636,
                "end_time": 40.65909090909091,
                "pitch": 70,
                "velocity": 51,
                "duration": 0.3204545454545453,
                "tempo": 120.0
            },
            {
                "start_time": 40.67727272727272,
                "end_time": 40.82727272727273,
                "pitch": 62,
                "velocity": 51,
                "duration": 0.15000000000000568,
                "tempo": 120.0
            },
            {
                "start_time": 40.845454545454544,
                "end_time": 41.17045454545455,
                "pitch": 65,
                "velocity": 51,
                "duration": 0.32500000000000284,
                "tempo": 120.0
            },
            {
                "start_time": 41.18863636363636,
                "end_time": 43.87045454545454,
                "pitch": 67,
                "velocity": 51,
                "duration": 2.68181818181818,
                "tempo": 120.0
            },
            {
                "start_time": 43.88636363636363,
                "end_time": 45.236363636363635,
                "pitch": 63,
                "velocity": 51,
                "duration": 1.3500000000000014,
                "tempo": 120.0
            },
            {
                "start_time": 45.40909090909091,
                "end_time": 45.56363636363636,
                "pitch": 65,
                "velocity": 80,
                "duration": 0.1545454545454561,
                "tempo": 120.0
            },
            {
                "start_time": 45.91590909090909,
                "end_time": 46.24318181818182,
                "pitch": 65,
                "velocity": 80,
                "duration": 0.32727272727272805,
                "tempo": 120.0
            },
            {
                "start_time": 46.59318181818182,
                "end_time": 47.94318181818181,
                "pitch": 63,
                "velocity": 80,
                "duration": 1.3499999999999943,
                "tempo": 120.0
            },
            {
                "start_time": 48.111363636363635,
                "end_time": 48.26136363636363,
                "pitch": 65,
                "velocity": 80,
                "duration": 0.14999999999999858,
                "tempo": 120.0
            },
            {
                "start_time": 48.27954545454545,
                "end_time": 48.434090909090905,
                "pitch": 65,
                "velocity": 80,
                "duration": 0.1545454545454561,
                "tempo": 120.0
            },
            {
                "start_time": 48.62272727272727,
                "end_time": 48.77272727272727,
                "pitch": 65,
                "velocity": 80,
                "duration": 0.15000000000000568,
                "tempo": 120.0
            },
            {
                "start_time": 48.788636363636364,
                "end_time": 48.94090909090909,
                "pitch": 65,
                "velocity": 80,
                "duration": 0.15227272727272378,
                "tempo": 120.0
            },
            {
                "start_time": 49.30227272727272,
                "end_time": 50.63409090909091,
                "pitch": 63,
                "velocity": 80,
                "duration": 1.3318181818181856,
                "tempo": 120.0
            },
            {
                "start_time": 50.81818181818181,
                "end_time": 50.96818181818182,
                "pitch": 65,
                "velocity": 80,
                "duration": 0.15000000000000568,
                "tempo": 120.0
            },
            {
                "start_time": 51.32954545454545,
                "end_time": 51.64772727272727,
                "pitch": 65,
                "velocity": 80,
                "duration": 0.3181818181818201,
                "tempo": 120.0
            },
            {
                "start_time": 52.0,
                "end_time": 53.33181818181818,
                "pitch": 63,
                "velocity": 80,
                "duration": 1.3318181818181785,
                "tempo": 120.0
            },
            {
                "start_time": 53.349999999999994,
                "end_time": 54.67272727272727,
                "pitch": 64,
                "velocity": 80,
                "duration": 1.3227272727272776,
                "tempo": 120.0
            }
        ]
    }
}