{
    "track_id": "Zillion II (FM) - 05 - Push!",
    "mood": "happy",
    "instruments": {
        "Acoustic Guitar (nylon)": [
            {
                "start_time": 0.0,
                "end_time": 0.175,
                "pitch": 77,
                "velocity": 51,
                "duration": 0.175,
                "tempo": 120.0
            },
            {
                "start_time": 0.4568181818181818,
                "end_time": 0.7068181818181818,
                "pitch": 78,
                "velocity": 51,
                "duration": 0.25,
                "tempo": 120.0
            },
            {
                "start_time": 0.9954545454545454,
                "end_time": 1.384090909090909,
                "pitch": 77,
                "velocity": 51,
                "duration": 0.38863636363636367,
                "tempo": 120.0
            },
            {
                "start_time": 1.4,
                "end_time": 2.0522727272727272,
                "pitch": 72,
                "velocity": 51,
                "duration": 0.6522727272727273,
                "tempo": 120.0
            },
            {
                "start_time": 2.068181818181818,
                "end_time": 3.1295454545454544,
                "pitch": 61,
                "velocity": 51,
                "duration": 1.0613636363636365,
                "tempo": 120.0
            },
            {
                "start_time": 3.1477272727272725,
                "end_time": 4.202272727272727,
                "pitch": 63,
                "velocity": 51,
                "duration": 1.0545454545454547,
                "tempo": 120.0
            },
            {
                "start_time": 4.220454545454546,
                "end_time": 4.475,
                "pitch": 77,
                "velocity": 51,
                "duration": 0.25454545454545396,
                "tempo": 120.0
            },
            {
                "start_time": 4.759090909090909,
                "end_time": 5.009090909090909,
                "pitch": 78,
                "velocity": 51,
                "duration": 0.25,
                "tempo": 120.0
            },
            {
                "start_time": 5.293181818181818,
                "end_time": 5.677272727272727,
                "pitch": 77,
                "velocity": 51,
                "duration": 0.3840909090909088,
                "tempo": 120.0
            },
            {
                "start_time": 5.695454545454545,
                "end_time": 6.35,
                "pitch": 72,
                "velocity": 51,
                "duration": 0.6545454545454543,
                "tempo": 120.0
            },
            {
                "start_time": 6.368181818181818,
                "end_time": 7.429545454545454,
                "pitch": 61,
                "velocity": 51,
                "duration": 1.0613636363636356,
                "tempo": 120.0
            },
            {
                "start_time": 7.445454545454545,
                "end_time": 8.502272727272727,
                "pitch": 63,
                "velocity": 51,
                "duration": 1.0568181818181817,
                "tempo": 120.0
            },
            {
                "start_time": 8.786363636363635,
                "end_time": 9.313636363636363,
                "pitch": 68,
                "velocity": 51,
                "duration": 0.5272727272727273,
                "tempo": 120.0
            },
            {
                "start_time": 9.597727272727273,
                "end_time": 9.98181818181818,
                "pitch": 66,
                "velocity": 51,
                "duration": 0.38409090909090793,
                "tempo": 120.0
            },
            {
                "start_time": 9.997727272727273,
                "end_time": 10.381818181818181,
                "pitch": 66,
                "velocity": 51,
                "duration": 0.38409090909090793,
                "tempo": 120.0
            },
            {
                "start_time": 10.4,
                "end_time": 10.654545454545454,
                "pitch": 66,
                "velocity": 51,
                "duration": 0.25454545454545396,
                "tempo": 120.0
            },
            {
                "start_time": 10.943181818181818,
                "end_time": 11.461363636363636,
                "pitch": 68,
                "velocity": 51,
                "duration": 0.5181818181818176,
                "tempo": 120.0
            },
            {
                "start_time": 11.745454545454544,
                "end_time": 12.129545454545454,
                "pitch": 66,
                "velocity": 51,
                "duration": 0.3840909090909097,
                "tempo": 120.0
            },
            {
                "start_time": 12.145454545454545,
                "end_time": 12.631818181818181,
                "pitch": 66,
                "velocity": 51,
                "duration": 0.48636363636363633,
                "tempo": 120.0
            },
            {
                "start_time": 12.654545454545454,
                "end_time": 12.972727272727273,
                "pitch": 63,
                "velocity": 51,
                "duration": 0.31818181818181834,
                "tempo": 120.0
            },
            {
                "start_time": 13.331818181818182,
                "end_time": 13.649999999999999,
                "pitch": 58,
                "velocity": 80,
                "duration": 0.31818181818181657,
                "tempo": 120.0
            },
            {
                "start_time": 13.670454545454545,
                "end_time": 13.922727272727272,
                "pitch": 61,
                "velocity": 80,
                "duration": 0.252272727272727,
                "tempo": 120.0
            },
            {
                "start_time": 13.938636363636363,
                "end_time": 14.19090909090909,
                "pitch": 63,
                "velocity": 80,
                "duration": 0.252272727272727,
                "tempo": 120.0
            },
            {
                "start_time": 14.206818181818182,
                "end_time": 14.59090909090909,
                "pitch": 65,
                "velocity": 80,
                "duration": 0.38409090909090793,
                "tempo": 120.0
            },
            {
                "start_time": 14.60681818181818,
                "end_time": 15.259090909090908,
                "pitch": 63,
                "velocity": 80,
                "duration": 0.6522727272727273,
                "tempo": 120.0
            },
            {
                "start_time": 15.547727272727272,
                "end_time": 15.802272727272726,
                "pitch": 58,
                "velocity": 80,
                "duration": 0.25454545454545396,
                "tempo": 120.0
            },
            {
                "start_time": 15.820454545454545,
                "end_time": 16.070454545454545,
                "pitch": 61,
                "velocity": 80,
                "duration": 0.25,
                "tempo": 120.0
            },
            {
                "start_time": 16.086363636363636,
                "end_time": 16.336363636363636,
                "pitch": 63,
                "velocity": 80,
                "duration": 0.25,
                "tempo": 120.0
            },
            {
                "start_time": 16.354545454545455,
                "end_time": 16.60909090909091,
                "pitch": 65,
                "velocity": 80,
                "duration": 0.25454545454545396,
                "tempo": 120.0
            },
            {
                "start_time": 16.625,
                "end_time": 16.745454545454546,
                "pitch": 65,
                "velocity": 80,
                "duration": 0.12045454545454604,
                "tempo": 120.0
            },
            {
                "start_time": 16.761363636363637,
                "end_time": 17.013636363636362,
                "pitch": 63,
                "velocity": 80,
                "duration": 0.2522727272727252,
                "tempo": 120.0
            },
            {
                "start_time": 17.03181818181818,
                "end_time": 17.147727272727273,
                "pitch": 61,
                "velocity": 80,
                "duration": 0.11590909090909207,
                "tempo": 120.0
            },
            {
                "start_time": 17.16590909090909,
                "end_time": 17.41590909090909,
                "pitch": 58,
                "velocity": 80,
                "duration": 0.25,
                "tempo": 120.0
            },
            {
                "start_time": 17.7,
                "end_time": 17.95,
                "pitch": 58,
                "velocity": 80,
                "duration": 0.25,
                "tempo": 120.0
            },
            {
                "start_time": 17.96590909090909,
                "end_time": 18.220454545454544,
                "pitch": 61,
                "velocity": 80,
                "duration": 0.25454545454545396,
                "tempo": 120.0
            },
            {
                "start_time": 18.238636363636363,
                "end_time": 18.493181818181817,
                "pitch": 63,
                "velocity": 80,
                "duration": 0.25454545454545396,
                "tempo": 120.0
            },
            {
                "start_time": 18.511363636363637,
                "end_time": 18.895454545454545,
                "pitch": 65,
                "velocity": 80,
                "duration": 0.38409090909090793,
                "tempo": 120.0
            },
            {
                "start_time": 18.911363636363635,
                "end_time": 19.561363636363634,
                "pitch": 63,
                "velocity": 80,
                "duration": 0.6499999999999986,
                "tempo": 120.0
            },
            {
                "start_time": 19.849999999999998,
                "end_time": 20.10681818181818,
                "pitch": 58,
                "velocity": 80,
                "duration": 0.2568181818181827,
                "tempo": 120.0
            },
            {
                "start_time": 20.12272727272727,
                "end_time": 20.37272727272727,
                "pitch": 61,
                "velocity": 80,
                "duration": 0.25,
                "tempo": 120.0
            },
            {
                "start_time": 20.39090909090909,
                "end_time": 20.64090909090909,
                "pitch": 58,
                "velocity": 80,
                "duration": 0.25,
                "tempo": 120.0
            },
            {
                "start_time": 20.65681818181818,
                "end_time": 21.04090909090909,
                "pitch": 70,
                "velocity": 80,
                "duration": 0.38409090909090793,
                "tempo": 120.0
            },
            {
                "start_time": 21.05909090909091,
                "end_time": 21.709090909090907,
                "pitch": 68,
                "velocity": 80,
                "duration": 0.6499999999999986,
                "tempo": 120.0
            },
            {
                "start_time": 22.804545454545455,
                "end_time": 23.054545454545455,
                "pitch": 65,
                "velocity": 80,
                "duration": 0.25,
                "tempo": 120.0
            },
            {
                "start_time": 23.07272727272727,
                "end_time": 23.188636363636363,
                "pitch": 65,
                "velocity": 80,
                "duration": 0.11590909090909207,
                "tempo": 120.0
            },
            {
                "start_time": 23.204545454545453,
                "end_time": 23.32272727272727,
                "pitch": 65,
                "velocity": 80,
                "duration": 0.11818181818181728,
                "tempo": 120.0
            },
            {
                "start_time": 23.60681818181818,
                "end_time": 23.722727272727273,
                "pitch": 63,
                "velocity": 80,
                "duration": 0.11590909090909207,
                "tempo": 120.0
            },
            {
                "start_time": 23.738636363636363,
                "end_time": 23.85681818181818,
                "pitch": 61,
                "velocity": 80,
                "duration": 0.11818181818181728,
                "tempo": 120.0
            },
            {
                "start_time": 23.87272727272727,
                "end_time": 24.127272727272725,
                "pitch": 63,
                "velocity": 80,
                "duration": 0.25454545454545396,
                "tempo": 120.0
            },
            {
                "start_time": 24.145454545454545,
                "end_time": 24.263636363636362,
                "pitch": 65,
                "velocity": 80,
                "duration": 0.11818181818181728,
                "tempo": 120.0
            },
            {
                "start_time": 24.28181818181818,
                "end_time": 24.945454545454545,
                "pitch": 61,
                "velocity": 80,
                "duration": 0.663636363636364,
                "tempo": 120.0
            },
            {
                "start_time": 25.229545454545452,
                "end_time": 25.479545454545452,
                "pitch": 61,
                "velocity": 80,
                "duration": 0.25,
                "tempo": 120.0
            },
            {
                "start_time": 25.495454545454542,
                "end_time": 25.613636363636363,
                "pitch": 63,
                "velocity": 80,
                "duration": 0.11818181818182083,
                "tempo": 120.0
            },
            {
                "start_time": 25.629545454545454,
                "end_time": 25.879545454545454,
                "pitch": 61,
                "velocity": 80,
                "duration": 0.25,
                "tempo": 120.0
            },
            {
                "start_time": 25.895454545454545,
                "end_time": 26.14772727272727,
                "pitch": 65,
                "velocity": 80,
                "duration": 0.2522727272727252,
                "tempo": 120.0
            },
            {
                "start_time": 26.163636363636364,
                "end_time": 26.279545454545453,
                "pitch": 63,
                "velocity": 80,
                "duration": 0.11590909090908852,
                "tempo": 120.0
            },
            {
                "start_time": 26.297727272727272,
                "end_time": 26.413636363636364,
                "pitch": 61,
                "velocity": 80,
                "duration": 0.11590909090909207,
                "tempo": 120.0
            },
            {
                "start_time": 26.43181818181818,
                "end_time": 26.68409090909091,
                "pitch": 63,
                "velocity": 80,
                "duration": 0.25227272727272876,
                "tempo": 120.0
            },
            {
                "start_time": 26.7,
                "end_time": 27.09090909090909,
                "pitch": 58,
                "velocity": 80,
                "duration": 0.39090909090909065,
                "tempo": 120.0
            },
            {
                "start_time": 27.10909090909091,
                "end_time": 27.35909090909091,
                "pitch": 65,
                "velocity": 80,
                "duration": 0.25,
                "tempo": 120.0
            },
            {
                "start_time": 27.375,
                "end_time": 27.493181818181817,
                "pitch": 65,
                "velocity": 80,
                "duration": 0.11818181818181728,
                "tempo": 120.0
            },
            {
                "start_time": 27.509090909090908,
                "end_time": 27.627272727272725,
                "pitch": 65,
                "velocity": 80,
                "duration": 0.11818181818181728,
                "tempo": 120.0
            },
            {
                "start_time": 27.909090909090907,
                "end_time": 28.027272727272727,
                "pitch": 63,
                "velocity": 80,
                "duration": 0.11818181818182083,
                "tempo": 120.0
            },
            {
                "start_time": 28.043181818181818,
                "end_time": 28.161363636363635,
                "pitch": 61,
                "velocity": 80,
                "duration": 0.11818181818181728,
                "tempo": 120.0
            },
            {
                "start_time": 28.177272727272726,
                "end_time": 28.43181818181818,
                "pitch": 63,
                "velocity": 80,
                "duration": 0.25454545454545396,
                "tempo": 120.0
            },
            {
                "start_time": 28.45,
                "end_time": 28.568181818181817,
                "pitch": 65,
                "velocity": 80,
                "duration": 0.11818181818181728,
                "tempo": 120.0
            },
            {
                "start_time": 28.584090909090907,
                "end_time": 29.229545454545452,
                "pitch": 61,
                "velocity": 80,
                "duration": 0.6454545454545446,
                "tempo": 120.0
            },
            {
                "start_time": 29.245454545454542,
                "end_time": 29.78181818181818,
                "pitch": 59,
                "velocity": 80,
                "duration": 0.5363636363636388,
                "tempo": 120.0
            },
            {
                "start_time": 29.799999999999997,
                "end_time": 30.318181818181817,
                "pitch": 63,
                "velocity": 80,
                "duration": 0.5181818181818194,
                "tempo": 120.0
            },
            {
                "start_time": 30.334090909090907,
                "end_time": 30.852272727272727,
                "pitch": 66,
                "velocity": 80,
                "duration": 0.5181818181818194,
                "tempo": 120.0
            },
            {
                "start_time": 30.868181818181817,
                "end_time": 30.986363636363635,
                "pitch": 66,
                "velocity": 80,
                "duration": 0.11818181818181728,
                "tempo": 120.0
            },
            {
                "start_time": 31.004545454545454,
                "end_time": 31.259090909090908,
                "pitch": 66,
                "velocity": 80,
                "duration": 0.25454545454545396,
                "tempo": 120.0
            },
            {
                "start_time": 31.277272727272727,
                "end_time": 33.543181818181814,
                "pitch": 68,
                "velocity": 80,
                "duration": 2.265909090909087,
                "tempo": 120.0
            },
            {
                "start_time": 33.559090909090905,
                "end_time": 33.94318181818181,
                "pitch": 68,
                "velocity": 80,
                "duration": 0.38409090909090793,
                "tempo": 120.0
            },
            {
                "start_time": 33.961363636363636,
                "end_time": 34.07727272727273,
                "pitch": 66,
                "velocity": 80,
                "duration": 0.11590909090909207,
                "tempo": 120.0
            },
            {
                "start_time": 34.09318181818182,
                "end_time": 34.34772727272727,
                "pitch": 66,
                "velocity": 80,
                "duration": 0.2545454545454504,
                "tempo": 120.0
            },
            {
                "start_time": 34.36590909090909,
                "end_time": 34.62045454545454,
                "pitch": 65,
                "velocity": 80,
                "duration": 0.2545454545454504,
                "tempo": 120.0
            },
            {
                "start_time": 34.638636363636365,
                "end_time": 34.888636363636365,
                "pitch": 65,
                "velocity": 80,
                "duration": 0.25,
                "tempo": 120.0
            },
            {
                "start_time": 34.904545454545456,
                "end_time": 35.02272727272727,
                "pitch": 63,
                "velocity": 80,
                "duration": 0.11818181818181728,
                "tempo": 120.0
            },
            {
                "start_time": 35.038636363636364,
                "end_time": 35.154545454545456,
                "pitch": 63,
                "velocity": 80,
                "duration": 0.11590909090909207,
                "tempo": 120.0
            },
            {
                "start_time": 35.57272727272727,
                "end_time": 35.82272727272727,
                "pitch": 61,
                "velocity": 80,
                "duration": 0.25,
                "tempo": 120.0
            },
            {
                "start_time": 35.840909090909086,
                "end_time": 35.95681818181818,
                "pitch": 61,
                "velocity": 80,
                "duration": 0.11590909090909207,
                "tempo": 120.0
            },
            {
                "start_time": 35.97272727272727,
                "end_time": 36.225,
                "pitch": 63,
                "velocity": 80,
                "duration": 0.2522727272727323,
                "tempo": 120.0
            },
            {
                "start_time": 36.24090909090909,
                "end_time": 36.49545454545454,
                "pitch": 65,
                "velocity": 80,
                "duration": 0.2545454545454504,
                "tempo": 120.0
            },
            {
                "start_time": 36.51363636363636,
                "end_time": 36.768181818181816,
                "pitch": 66,
                "velocity": 80,
                "duration": 0.2545454545454575,
                "tempo": 120.0
            },
            {
                "start_time": 36.78409090909091,
                "end_time": 37.03636363636363,
                "pitch": 65,
                "velocity": 80,
                "duration": 0.2522727272727252,
                "tempo": 120.0
            },
            {
                "start_time": 37.05227272727272,
                "end_time": 37.168181818181814,
                "pitch": 63,
                "velocity": 80,
                "duration": 0.11590909090909207,
                "tempo": 120.0
            },
            {
                "start_time": 37.18636363636364,
                "end_time": 37.30227272727272,
                "pitch": 63,
                "velocity": 80,
                "duration": 0.11590909090908497,
                "tempo": 120.0
            },
            {
                "start_time": 37.85454545454545,
                "end_time": 38.24545454545454,
                "pitch": 68,
                "velocity": 80,
                "duration": 0.39090909090909065,
                "tempo": 120.0
            },
            {
                "start_time": 38.26136363636363,
                "end_time": 38.37954545454545,
                "pitch": 66,
                "velocity": 80,
                "duration": 0.11818181818181728,
                "tempo": 120.0
            },
            {
                "start_time": 38.39772727272727,
                "end_time": 38.64772727272727,
                "pitch": 66,
                "velocity": 80,
                "duration": 0.25,
                "tempo": 120.0
            },
            {
                "start_time": 38.66590909090909,
                "end_time": 38.91590909090909,
                "pitch": 65,
                "velocity": 80,
                "duration": 0.25,
                "tempo": 120.0
            },
            {
                "start_time": 38.93181818181818,
                "end_time": 39.18636363636364,
                "pitch": 65,
                "velocity": 80,
                "duration": 0.2545454545454575,
                "tempo": 120.0
            },
            {
                "start_time": 39.20454545454545,
                "end_time": 39.32272727272727,
                "pitch": 63,
                "velocity": 80,
                "duration": 0.11818181818181728,
                "tempo": 120.0
            },
            {
                "start_time": 39.340909090909086,
                "end_time": 39.459090909090904,
                "pitch": 63,
                "velocity": 80,
                "duration": 0.11818181818181728,
                "tempo": 120.0
            },
            {
                "start_time": 39.877272727272725,
                "end_time": 40.127272727272725,
                "pitch": 61,
                "velocity": 80,
                "duration": 0.25,
                "tempo": 120.0
            },
            {
                "start_time": 40.143181818181816,
                "end_time": 40.26136363636363,
                "pitch": 61,
                "velocity": 80,
                "duration": 0.11818181818181728,
                "tempo": 120.0
            },
            {
                "start_time": 40.277272727272724,
                "end_time": 40.527272727272724,
                "pitch": 63,
                "velocity": 80,
                "duration": 0.25,
                "tempo": 120.0
            },
            {
                "start_time": 40.54545454545455,
                "end_time": 40.8,
                "pitch": 65,
                "velocity": 80,
                "duration": 0.2545454545454504,
                "tempo": 120.0
            },
            {
                "start_time": 40.81590909090909,
                "end_time": 41.07272727272727,
                "pitch": 66,
                "velocity": 80,
                "duration": 0.2568181818181827,
                "tempo": 120.0
            },
            {
                "start_time": 41.08863636363636,
                "end_time": 41.60681818181818,
                "pitch": 68,
                "velocity": 80,
                "duration": 0.5181818181818159,
                "tempo": 120.0
            },
            {
                "start_time": 41.75909090909091,
                "end_time": 41.877272727272725,
                "pitch": 70,
                "velocity": 80,
                "duration": 0.11818181818181728,
                "tempo": 120.0
            },
            {
                "start_time": 41.89545454545454,
                "end_time": 42.01363636363636,
                "pitch": 68,
                "velocity": 80,
                "duration": 0.11818181818181728,
                "tempo": 120.0
            },
            {
                "start_time": 42.03181818181818,
                "end_time": 42.15,
                "pitch": 66,
                "velocity": 80,
                "duration": 0.11818181818181728,
                "tempo": 120.0
            },
            {
                "start_time": 42.16590909090909,
                "end_time": 43.21818181818182,
                "pitch": 68,
                "velocity": 80,
                "duration": 1.0522727272727295,
                "tempo": 120.0
            }
        ],
        "Electric Guitar (clean)": [
            {
                "start_time": 0.0,
                "end_time": 2.0522727272727272,
                "pitch": 37,
                "velocity": 64,
                "duration": 2.0522727272727272,
                "tempo": 120.0
            },
            {
                "start_time": 2.068181818181818,
                "end_time": 2.4545454545454546,
                "pitch": 30,
                "velocity": 64,
                "duration": 0.3863636363636367,
                "tempo": 120.0
            },
            {
                "start_time": 2.4727272727272727,
                "end_time": 3.1295454545454544,
                "pitch": 30,
                "velocity": 64,
                "duration": 0.6568181818181817,
                "tempo": 120.0
            },
            {
                "start_time": 3.1477272727272725,
                "end_time": 3.5318181818181817,
                "pitch": 32,
                "velocity": 64,
                "duration": 0.38409090909090926,
                "tempo": 120.0
            },
            {
                "start_time": 3.5477272727272724,
                "end_time": 4.202272727272727,
                "pitch": 32,
                "velocity": 64,
                "duration": 0.6545454545454548,
                "tempo": 120.0
            },
            {
                "start_time": 4.220454545454546,
                "end_time": 6.35,
                "pitch": 37,
                "velocity": 64,
                "duration": 2.129545454545454,
                "tempo": 120.0
            },
            {
                "start_time": 6.368181818181818,
                "end_time": 6.756818181818182,
                "pitch": 30,
                "velocity": 64,
                "duration": 0.38863636363636367,
                "tempo": 120.0
            },
            {
                "start_time": 6.7727272727272725,
                "end_time": 7.429545454545454,
                "pitch": 30,
                "velocity": 64,
                "duration": 0.6568181818181813,
                "tempo": 120.0
            },
            {
                "start_time": 7.445454545454545,
                "end_time": 7.834090909090909,
                "pitch": 32,
                "velocity": 64,
                "duration": 0.38863636363636367,
                "tempo": 120.0
            },
            {
                "start_time": 7.852272727272727,
                "end_time": 8.502272727272727,
                "pitch": 32,
                "velocity": 64,
                "duration": 0.6500000000000004,
                "tempo": 120.0
            },
            {
                "start_time": 8.520454545454545,
                "end_time": 8.636363636363637,
                "pitch": 37,
                "velocity": 64,
                "duration": 0.11590909090909207,
                "tempo": 120.0
            },
            {
                "start_time": 8.786363636363635,
                "end_time": 9.313636363636363,
                "pitch": 37,
                "velocity": 64,
                "duration": 0.5272727272727273,
                "tempo": 120.0
            },
            {
                "start_time": 9.329545454545453,
                "end_time": 9.447727272727272,
                "pitch": 32,
                "velocity": 64,
                "duration": 0.11818181818181905,
                "tempo": 120.0
            },
            {
                "start_time": 9.463636363636363,
                "end_time": 9.581818181818182,
                "pitch": 34,
                "velocity": 64,
                "duration": 0.11818181818181905,
                "tempo": 120.0
            },
            {
                "start_time": 9.597727272727273,
                "end_time": 9.98181818181818,
                "pitch": 35,
                "velocity": 64,
                "duration": 0.38409090909090793,
                "tempo": 120.0
            },
            {
                "start_time": 9.997727272727273,
                "end_time": 10.381818181818181,
                "pitch": 34,
                "velocity": 64,
                "duration": 0.38409090909090793,
                "tempo": 120.0
            },
            {
                "start_time": 10.4,
                "end_time": 10.654545454545454,
                "pitch": 35,
                "velocity": 64,
                "duration": 0.25454545454545396,
                "tempo": 120.0
            },
            {
                "start_time": 10.670454545454545,
                "end_time": 10.790909090909091,
                "pitch": 37,
                "velocity": 64,
                "duration": 0.12045454545454604,
                "tempo": 120.0
            },
            {
                "start_time": 10.943181818181818,
                "end_time": 11.461363636363636,
                "pitch": 37,
                "velocity": 64,
                "duration": 0.5181818181818176,
                "tempo": 120.0
            },
            {
                "start_time": 11.477272727272727,
                "end_time": 11.595454545454546,
                "pitch": 32,
                "velocity": 64,
                "duration": 0.11818181818181905,
                "tempo": 120.0
            },
            {
                "start_time": 11.611363636363636,
                "end_time": 11.727272727272727,
                "pitch": 34,
                "velocity": 64,
                "duration": 0.1159090909090903,
                "tempo": 120.0
            },
            {
                "start_time": 11.745454545454544,
                "end_time": 12.129545454545454,
                "pitch": 35,
                "velocity": 64,
                "duration": 0.3840909090909097,
                "tempo": 120.0
            },
            {
                "start_time": 12.145454545454545,
                "end_time": 12.631818181818181,
                "pitch": 34,
                "velocity": 64,
                "duration": 0.48636363636363633,
                "tempo": 120.0
            },
            {
                "start_time": 12.654545454545454,
                "end_time": 12.972727272727273,
                "pitch": 32,
                "velocity": 64,
                "duration": 0.31818181818181834,
                "tempo": 120.0
            },
            {
                "start_time": 12.993181818181817,
                "end_time": 13.479545454545454,
                "pitch": 30,
                "velocity": 64,
                "duration": 0.48636363636363633,
                "tempo": 120.0
            },
            {
                "start_time": 13.502272727272727,
                "end_time": 13.649999999999999,
                "pitch": 30,
                "velocity": 64,
                "duration": 0.1477272727272716,
                "tempo": 120.0
            },
            {
                "start_time": 13.670454545454545,
                "end_time": 14.19090909090909,
                "pitch": 30,
                "velocity": 64,
                "duration": 0.5204545454545446,
                "tempo": 120.0
            },
            {
                "start_time": 14.206818181818182,
                "end_time": 14.45681818181818,
                "pitch": 32,
                "velocity": 64,
                "duration": 0.24999999999999822,
                "tempo": 120.0
            },
            {
                "start_time": 14.60681818181818,
                "end_time": 15.259090909090908,
                "pitch": 32,
                "velocity": 64,
                "duration": 0.6522727272727273,
                "tempo": 120.0
            },
            {
                "start_time": 15.274999999999999,
                "end_time": 15.665909090909091,
                "pitch": 30,
                "velocity": 64,
                "duration": 0.3909090909090924,
                "tempo": 120.0
            },
            {
                "start_time": 15.684090909090909,
                "end_time": 15.802272727272726,
                "pitch": 30,
                "velocity": 64,
                "duration": 0.11818181818181728,
                "tempo": 120.0
            },
            {
                "start_time": 15.820454545454545,
                "end_time": 16.336363636363636,
                "pitch": 30,
                "velocity": 64,
                "duration": 0.5159090909090907,
                "tempo": 120.0
            },
            {
                "start_time": 16.354545454545455,
                "end_time": 16.60909090909091,
                "pitch": 32,
                "velocity": 64,
                "duration": 0.25454545454545396,
                "tempo": 120.0
            },
            {
                "start_time": 16.761363636363637,
                "end_time": 17.41590909090909,
                "pitch": 32,
                "velocity": 64,
                "duration": 0.6545454545454525,
                "tempo": 120.0
            },
            {
                "start_time": 17.43181818181818,
                "end_time": 17.81590909090909,
                "pitch": 30,
                "velocity": 64,
                "duration": 0.3840909090909115,
                "tempo": 120.0
            },
            {
                "start_time": 17.831818181818182,
                "end_time": 17.95,
                "pitch": 30,
                "velocity": 64,
                "duration": 0.11818181818181728,
                "tempo": 120.0
            },
            {
                "start_time": 17.96590909090909,
                "end_time": 18.493181818181817,
                "pitch": 30,
                "velocity": 64,
                "duration": 0.5272727272727273,
                "tempo": 120.0
            },
            {
                "start_time": 18.511363636363637,
                "end_time": 18.761363636363637,
                "pitch": 32,
                "velocity": 64,
                "duration": 0.25,
                "tempo": 120.0
            },
            {
                "start_time": 18.911363636363635,
                "end_time": 19.561363636363634,
                "pitch": 32,
                "velocity": 64,
                "duration": 0.6499999999999986,
                "tempo": 120.0
            },
            {
                "start_time": 19.579545454545453,
                "end_time": 19.970454545454544,
                "pitch": 30,
                "velocity": 64,
                "duration": 0.39090909090909065,
                "tempo": 120.0
            },
            {
                "start_time": 19.986363636363635,
                "end_time": 20.10681818181818,
                "pitch": 30,
                "velocity": 64,
                "duration": 0.12045454545454604,
                "tempo": 120.0
            },
            {
                "start_time": 20.12272727272727,
                "end_time": 20.64090909090909,
                "pitch": 30,
                "velocity": 64,
                "duration": 0.5181818181818194,
                "tempo": 120.0
            },
            {
                "start_time": 20.65681818181818,
                "end_time": 20.909090909090907,
                "pitch": 32,
                "velocity": 64,
                "duration": 0.2522727272727252,
                "tempo": 120.0
            },
            {
                "start_time": 21.05909090909091,
                "end_time": 21.709090909090907,
                "pitch": 32,
                "velocity": 64,
                "duration": 0.6499999999999986,
                "tempo": 120.0
            },
            {
                "start_time": 21.727272727272727,
                "end_time": 21.98181818181818,
                "pitch": 32,
                "velocity": 64,
                "duration": 0.25454545454545396,
                "tempo": 120.0
            },
            {
                "start_time": 22.134090909090908,
                "end_time": 22.788636363636364,
                "pitch": 33,
                "velocity": 64,
                "duration": 0.6545454545454561,
                "tempo": 120.0
            },
            {
                "start_time": 22.804545454545455,
                "end_time": 23.054545454545455,
                "pitch": 34,
                "velocity": 64,
                "duration": 0.25,
                "tempo": 120.0
            },
            {
                "start_time": 23.204545454545453,
                "end_time": 23.456818181818182,
                "pitch": 37,
                "velocity": 64,
                "duration": 0.25227272727272876,
                "tempo": 120.0
            },
            {
                "start_time": 23.60681818181818,
                "end_time": 23.85681818181818,
                "pitch": 41,
                "velocity": 64,
                "duration": 0.25,
                "tempo": 120.0
            },
            {
                "start_time": 23.87272727272727,
                "end_time": 24.127272727272725,
                "pitch": 30,
                "velocity": 64,
                "duration": 0.25454545454545396,
                "tempo": 120.0
            },
            {
                "start_time": 24.28181818181818,
                "end_time": 24.945454545454545,
                "pitch": 30,
                "velocity": 64,
                "duration": 0.663636363636364,
                "tempo": 120.0
            },
            {
                "start_time": 24.961363636363636,
                "end_time": 25.211363636363636,
                "pitch": 37,
                "velocity": 64,
                "duration": 0.25,
                "tempo": 120.0
            },
            {
                "start_time": 25.361363636363635,
                "end_time": 25.613636363636363,
                "pitch": 41,
                "velocity": 64,
                "duration": 0.25227272727272876,
                "tempo": 120.0
            },
            {
                "start_time": 25.763636363636362,
                "end_time": 26.013636363636362,
                "pitch": 44,
                "velocity": 64,
                "duration": 0.25,
                "tempo": 120.0
            },
            {
                "start_time": 26.029545454545453,
                "end_time": 26.279545454545453,
                "pitch": 39,
                "velocity": 64,
                "duration": 0.25,
                "tempo": 120.0
            },
            {
                "start_time": 26.43181818181818,
                "end_time": 27.09090909090909,
                "pitch": 39,
                "velocity": 64,
                "duration": 0.6590909090909101,
                "tempo": 120.0
            },
            {
                "start_time": 27.10909090909091,
                "end_time": 27.35909090909091,
                "pitch": 34,
                "velocity": 64,
                "duration": 0.25,
                "tempo": 120.0
            },
            {
                "start_time": 27.509090909090908,
                "end_time": 27.759090909090908,
                "pitch": 37,
                "velocity": 64,
                "duration": 0.25,
                "tempo": 120.0
            },
            {
                "start_time": 27.909090909090907,
                "end_time": 28.161363636363635,
                "pitch": 41,
                "velocity": 64,
                "duration": 0.25227272727272876,
                "tempo": 120.0
            },
            {
                "start_time": 28.177272727272726,
                "end_time": 28.43181818181818,
                "pitch": 30,
                "velocity": 64,
                "duration": 0.25454545454545396,
                "tempo": 120.0
            },
            {
                "start_time": 28.584090909090907,
                "end_time": 29.229545454545452,
                "pitch": 30,
                "velocity": 64,
                "duration": 0.6454545454545446,
                "tempo": 120.0
            },
            {
                "start_time": 29.245454545454542,
                "end_time": 29.36590909090909,
                "pitch": 35,
                "velocity": 64,
                "duration": 0.12045454545454604,
                "tempo": 120.0
            },
            {
                "start_time": 29.384090909090908,
                "end_time": 29.504545454545454,
                "pitch": 35,
                "velocity": 64,
                "duration": 0.12045454545454604,
                "tempo": 120.0
            },
            {
                "start_time": 29.52272727272727,
                "end_time": 29.643181818181816,
                "pitch": 35,
                "velocity": 64,
                "duration": 0.12045454545454604,
                "tempo": 120.0
            },
            {
                "start_time": 29.661363636363635,
                "end_time": 29.78181818181818,
                "pitch": 35,
                "velocity": 64,
                "duration": 0.12045454545454604,
                "tempo": 120.0
            },
            {
                "start_time": 29.799999999999997,
                "end_time": 29.91590909090909,
                "pitch": 35,
                "velocity": 64,
                "duration": 0.11590909090909207,
                "tempo": 120.0
            },
            {
                "start_time": 29.93409090909091,
                "end_time": 30.049999999999997,
                "pitch": 35,
                "velocity": 64,
                "duration": 0.11590909090908852,
                "tempo": 120.0
            },
            {
                "start_time": 30.065909090909088,
                "end_time": 30.18409090909091,
                "pitch": 35,
                "velocity": 64,
                "duration": 0.11818181818182083,
                "tempo": 120.0
            },
            {
                "start_time": 30.2,
                "end_time": 30.318181818181817,
                "pitch": 35,
                "velocity": 64,
                "duration": 0.11818181818181728,
                "tempo": 120.0
            },
            {
                "start_time": 30.334090909090907,
                "end_time": 30.45,
                "pitch": 35,
                "velocity": 64,
                "duration": 0.11590909090909207,
                "tempo": 120.0
            },
            {
                "start_time": 30.468181818181815,
                "end_time": 30.584090909090907,
                "pitch": 35,
                "velocity": 64,
                "duration": 0.11590909090909207,
                "tempo": 120.0
            },
            {
                "start_time": 30.602272727272727,
                "end_time": 30.718181818181815,
                "pitch": 35,
                "velocity": 64,
                "duration": 0.11590909090908852,
                "tempo": 120.0
            },
            {
                "start_time": 30.73409090909091,
                "end_time": 30.852272727272727,
                "pitch": 35,
                "velocity": 64,
                "duration": 0.11818181818181728,
                "tempo": 120.0
            },
            {
                "start_time": 30.868181818181817,
                "end_time": 30.986363636363635,
                "pitch": 35,
                "velocity": 64,
                "duration": 0.11818181818181728,
                "tempo": 120.0
            },
            {
                "start_time": 31.004545454545454,
                "end_time": 31.12272727272727,
                "pitch": 35,
                "velocity": 64,
                "duration": 0.11818181818181728,
                "tempo": 120.0
            },
            {
                "start_time": 31.14090909090909,
                "end_time": 31.259090909090908,
                "pitch": 35,
                "velocity": 64,
                "duration": 0.11818181818181728,
                "tempo": 120.0
            },
            {
                "start_time": 31.277272727272727,
                "end_time": 31.395454545454545,
                "pitch": 35,
                "velocity": 64,
                "duration": 0.11818181818181728,
                "tempo": 120.0
            },
            {
                "start_time": 31.411363636363635,
                "end_time": 31.529545454545453,
                "pitch": 31,
                "velocity": 64,
                "duration": 0.11818181818181728,
                "tempo": 120.0
            },
            {
                "start_time": 31.545454545454543,
                "end_time": 31.66363636363636,
                "pitch": 32,
                "velocity": 64,
                "duration": 0.11818181818181728,
                "tempo": 120.0
            },
            {
                "start_time": 31.679545454545455,
                "end_time": 31.795454545454543,
                "pitch": 32,
                "velocity": 64,
                "duration": 0.11590909090908852,
                "tempo": 120.0
            },
            {
                "start_time": 31.813636363636363,
                "end_time": 31.929545454545455,
                "pitch": 31,
                "velocity": 64,
                "duration": 0.11590909090909207,
                "tempo": 120.0
            },
            {
                "start_time": 31.94772727272727,
                "end_time": 32.06363636363636,
                "pitch": 32,
                "velocity": 64,
                "duration": 0.11590909090909207,
                "tempo": 120.0
            },
            {
                "start_time": 32.07954545454545,
                "end_time": 32.19772727272727,
                "pitch": 32,
                "velocity": 64,
                "duration": 0.11818181818181728,
                "tempo": 120.0
            },
            {
                "start_time": 32.21363636363636,
                "end_time": 32.33181818181818,
                "pitch": 31,
                "velocity": 64,
                "duration": 0.11818181818181728,
                "tempo": 120.0
            },
            {
                "start_time": 32.34772727272727,
                "end_time": 32.46363636363636,
                "pitch": 32,
                "velocity": 64,
                "duration": 0.11590909090909207,
                "tempo": 120.0
            },
            {
                "start_time": 32.48181818181818,
                "end_time": 32.6,
                "pitch": 32,
                "velocity": 64,
                "duration": 0.11818181818182438,
                "tempo": 120.0
            },
            {
                "start_time": 32.61818181818182,
                "end_time": 32.736363636363635,
                "pitch": 31,
                "velocity": 64,
                "duration": 0.11818181818181728,
                "tempo": 120.0
            },
            {
                "start_time": 32.752272727272725,
                "end_time": 32.87272727272727,
                "pitch": 32,
                "velocity": 64,
                "duration": 0.12045454545454248,
                "tempo": 120.0
            },
            {
                "start_time": 32.888636363636365,
                "end_time": 33.00909090909091,
                "pitch": 32,
                "velocity": 64,
                "duration": 0.12045454545454248,
                "tempo": 120.0
            },
            {
                "start_time": 33.025,
                "end_time": 33.14090909090909,
                "pitch": 31,
                "velocity": 64,
                "duration": 0.11590909090909207,
                "tempo": 120.0
            },
            {
                "start_time": 33.15909090909091,
                "end_time": 33.275,
                "pitch": 32,
                "velocity": 64,
                "duration": 0.11590909090909207,
                "tempo": 120.0
            },
            {
                "start_time": 33.293181818181814,
                "end_time": 33.40909090909091,
                "pitch": 32,
                "velocity": 64,
                "duration": 0.11590909090909207,
                "tempo": 120.0
            },
            {
                "start_time": 33.559090909090905,
                "end_time": 33.809090909090905,
                "pitch": 37,
                "velocity": 64,
                "duration": 0.25,
                "tempo": 120.0
            },
            {
                "start_time": 33.961363636363636,
                "end_time": 34.07727272727273,
                "pitch": 37,
                "velocity": 64,
                "duration": 0.11590909090909207,
                "tempo": 120.0
            },
            {
                "start_time": 34.09318181818182,
                "end_time": 34.34772727272727,
                "pitch": 37,
                "velocity": 64,
                "duration": 0.2545454545454504,
                "tempo": 120.0
            },
            {
                "start_time": 34.502272727272725,
                "end_time": 34.62045454545454,
                "pitch": 37,
                "velocity": 64,
                "duration": 0.11818181818181728,
                "tempo": 120.0
            },
            {
                "start_time": 34.77045454545454,
                "end_time": 34.888636363636365,
                "pitch": 37,
                "velocity": 64,
                "duration": 0.11818181818182438,
                "tempo": 120.0
            },
            {
                "start_time": 35.038636363636364,
                "end_time": 35.154545454545456,
                "pitch": 37,
                "velocity": 64,
                "duration": 0.11590909090909207,
                "tempo": 120.0
            },
            {
                "start_time": 35.17272727272727,
                "end_time": 35.42272727272727,
                "pitch": 37,
                "velocity": 64,
                "duration": 0.25,
                "tempo": 120.0
            },
            {
                "start_time": 35.70681818181818,
                "end_time": 35.95681818181818,
                "pitch": 30,
                "velocity": 64,
                "duration": 0.25,
                "tempo": 120.0
            },
            {
                "start_time": 36.10681818181818,
                "end_time": 36.225,
                "pitch": 30,
                "velocity": 64,
                "duration": 0.11818181818182438,
                "tempo": 120.0
            },
            {
                "start_time": 36.24090909090909,
                "end_time": 36.768181818181816,
                "pitch": 30,
                "velocity": 64,
                "duration": 0.5272727272727238,
                "tempo": 120.0
            },
            {
                "start_time": 36.78409090909091,
                "end_time": 37.03636363636363,
                "pitch": 32,
                "velocity": 64,
                "duration": 0.2522727272727252,
                "tempo": 120.0
            },
            {
                "start_time": 37.18636363636364,
                "end_time": 37.836363636363636,
                "pitch": 32,
                "velocity": 64,
                "duration": 0.6499999999999986,
                "tempo": 120.0
            },
            {
                "start_time": 37.85454545454545,
                "end_time": 38.10909090909091,
                "pitch": 37,
                "velocity": 64,
                "duration": 0.2545454545454575,
                "tempo": 120.0
            },
            {
                "start_time": 38.26136363636363,
                "end_time": 38.37954545454545,
                "pitch": 37,
                "velocity": 64,
                "duration": 0.11818181818181728,
                "tempo": 120.0
            },
            {
                "start_time": 38.39772727272727,
                "end_time": 38.64772727272727,
                "pitch": 37,
                "velocity": 64,
                "duration": 0.25,
                "tempo": 120.0
            },
            {
                "start_time": 38.79772727272727,
                "end_time": 38.91590909090909,
                "pitch": 37,
                "velocity": 64,
                "duration": 0.11818181818181728,
                "tempo": 120.0
            },
            {
                "start_time": 39.06818181818181,
                "end_time": 39.18636363636364,
                "pitch": 37,
                "velocity": 64,
                "duration": 0.11818181818182438,
                "tempo": 120.0
            },
            {
                "start_time": 39.340909090909086,
                "end_time": 39.459090909090904,
                "pitch": 37,
                "velocity": 64,
                "duration": 0.11818181818181728,
                "tempo": 120.0
            },
            {
                "start_time": 39.475,
                "end_time": 39.72727272727273,
                "pitch": 37,
                "velocity": 64,
                "duration": 0.2522727272727252,
                "tempo": 120.0
            },
            {
                "start_time": 40.01136363636363,
                "end_time": 40.26136363636363,
                "pitch": 30,
                "velocity": 64,
                "duration": 0.25,
                "tempo": 120.0
            },
            {
                "start_time": 40.41136363636363,
                "end_time": 40.527272727272724,
                "pitch": 30,
                "velocity": 64,
                "duration": 0.11590909090909207,
                "tempo": 120.0
            },
            {
                "start_time": 40.54545454545455,
                "end_time": 41.07272727272727,
                "pitch": 30,
                "velocity": 64,
                "duration": 0.5272727272727238,
                "tempo": 120.0
            },
            {
                "start_time": 41.08863636363636,
                "end_time": 42.15,
                "pitch": 32,
                "velocity": 64,
                "duration": 1.0613636363636374,
                "tempo": 120.0
            },
            {
                "start_time": 42.16590909090909,
                "end_time": 42.28409090909091,
                "pitch": 37,
                "velocity": 64,
                "duration": 0.11818181818181728,
                "tempo": 120.0
            },
            {
                "start_time": 42.434090909090905,
                "end_time": 42.95227272727273,
                "pitch": 37,
                "velocity": 64,
                "duration": 0.518181818181823,
                "tempo": 120.0
            },
            {
                "start_time": 42.96818181818182,
                "end_time": 43.086363636363636,
                "pitch": 32,
                "velocity": 64,
                "duration": 0.11818181818181728,
                "tempo": 120.0
            },
            {
                "start_time": 43.10227272727273,
                "end_time": 43.21818181818182,
                "pitch": 34,
                "velocity": 64,
                "duration": 0.11590909090909207,
                "tempo": 120.0
            }
        ],
        "Vibraphone": [
            {
                "start_time": 0.0,
                "end_time": 0.175,
                "pitch": 80,
                "velocity": 51,
                "duration": 0.175,
                "tempo": 120.0
            },
            {
                "start_time": 0.3227272727272727,
                "end_time": 0.4386363636363636,
                "pitch": 68,
                "velocity": 51,
                "duration": 0.1159090909090909,
                "tempo": 120.0
            },
            {
                "start_time": 0.4568181818181818,
                "end_time": 0.7068181818181818,
                "pitch": 78,
                "velocity": 51,
                "duration": 0.25,
                "tempo": 120.0
            },
            {
                "start_time": 0.859090909090909,
                "end_time": 0.9772727272727272,
                "pitch": 68,
                "velocity": 51,
                "duration": 0.11818181818181817,
                "tempo": 120.0
            },
            {
                "start_time": 0.9954545454545454,
                "end_time": 1.384090909090909,
                "pitch": 77,
                "velocity": 51,
                "duration": 0.38863636363636367,
                "tempo": 120.0
            },
            {
                "start_time": 1.4,
                "end_time": 2.0522727272727272,
                "pitch": 75,
                "velocity": 51,
                "duration": 0.6522727272727273,
                "tempo": 120.0
            },
            {
                "start_time": 2.068181818181818,
                "end_time": 2.186363636363636,
                "pitch": 73,
                "velocity": 51,
                "duration": 0.11818181818181817,
                "tempo": 120.0
            },
            {
                "start_time": 2.202272727272727,
                "end_time": 2.318181818181818,
                "pitch": 72,
                "velocity": 51,
                "duration": 0.11590909090909074,
                "tempo": 120.0
            },
            {
                "start_time": 2.3363636363636364,
                "end_time": 2.4545454545454546,
                "pitch": 68,
                "velocity": 51,
                "duration": 0.11818181818181817,
                "tempo": 120.0
            },
            {
                "start_time": 2.4727272727272727,
                "end_time": 2.590909090909091,
                "pitch": 73,
                "velocity": 51,
                "duration": 0.11818181818181817,
                "tempo": 120.0
            },
            {
                "start_time": 2.6068181818181815,
                "end_time": 2.727272727272727,
                "pitch": 72,
                "velocity": 51,
                "duration": 0.12045454545454559,
                "tempo": 120.0
            },
            {
                "start_time": 2.743181818181818,
                "end_time": 2.8636363636363633,
                "pitch": 68,
                "velocity": 51,
                "duration": 0.12045454545454515,
                "tempo": 120.0
            },
            {
                "start_time": 2.8795454545454544,
                "end_time": 2.9977272727272726,
                "pitch": 73,
                "velocity": 51,
                "duration": 0.11818181818181817,
                "tempo": 120.0
            },
            {
                "start_time": 3.0136363636363637,
                "end_time": 3.1295454545454544,
                "pitch": 72,
                "velocity": 51,
                "duration": 0.11590909090909074,
                "tempo": 120.0
            },
            {
                "start_time": 3.1477272727272725,
                "end_time": 3.2636363636363637,
                "pitch": 73,
                "velocity": 51,
                "duration": 0.11590909090909118,
                "tempo": 120.0
            },
            {
                "start_time": 3.2795454545454543,
                "end_time": 3.3977272727272725,
                "pitch": 72,
                "velocity": 51,
                "duration": 0.11818181818181817,
                "tempo": 120.0
            },
            {
                "start_time": 3.4136363636363636,
                "end_time": 3.5318181818181817,
                "pitch": 68,
                "velocity": 51,
                "duration": 0.11818181818181817,
                "tempo": 120.0
            },
            {
                "start_time": 3.5477272727272724,
                "end_time": 4.202272727272727,
                "pitch": 75,
                "velocity": 51,
                "duration": 0.6545454545454548,
                "tempo": 120.0
            },
            {
                "start_time": 4.220454545454546,
                "end_time": 4.475,
                "pitch": 80,
                "velocity": 51,
                "duration": 0.25454545454545396,
                "tempo": 120.0
            },
            {
                "start_time": 4.625,
                "end_time": 4.743181818181818,
                "pitch": 68,
                "velocity": 51,
                "duration": 0.11818181818181817,
                "tempo": 120.0
            },
            {
                "start_time": 4.759090909090909,
                "end_time": 5.009090909090909,
                "pitch": 78,
                "velocity": 51,
                "duration": 0.25,
                "tempo": 120.0
            },
            {
                "start_time": 5.161363636363636,
                "end_time": 5.277272727272727,
                "pitch": 68,
                "velocity": 51,
                "duration": 0.11590909090909118,
                "tempo": 120.0
            },
            {
                "start_time": 5.293181818181818,
                "end_time": 5.677272727272727,
                "pitch": 77,
                "velocity": 51,
                "duration": 0.3840909090909088,
                "tempo": 120.0
            },
            {
                "start_time": 5.695454545454545,
                "end_time": 6.35,
                "pitch": 75,
                "velocity": 51,
                "duration": 0.6545454545454543,
                "tempo": 120.0
            },
            {
                "start_time": 6.368181818181818,
                "end_time": 6.486363636363636,
                "pitch": 73,
                "velocity": 51,
                "duration": 0.11818181818181817,
                "tempo": 120.0
            },
            {
                "start_time": 6.504545454545454,
                "end_time": 6.622727272727272,
                "pitch": 72,
                "velocity": 51,
                "duration": 0.11818181818181817,
                "tempo": 120.0
            },
            {
                "start_time": 6.638636363636364,
                "end_time": 6.756818181818182,
                "pitch": 68,
                "velocity": 51,
                "duration": 0.11818181818181817,
                "tempo": 120.0
            },
            {
                "start_time": 6.7727272727272725,
                "end_time": 6.890909090909091,
                "pitch": 73,
                "velocity": 51,
                "duration": 0.11818181818181817,
                "tempo": 120.0
            },
            {
                "start_time": 6.906818181818181,
                "end_time": 7.0227272727272725,
                "pitch": 72,
                "velocity": 51,
                "duration": 0.11590909090909118,
                "tempo": 120.0
            },
            {
                "start_time": 7.040909090909091,
                "end_time": 7.156818181818181,
                "pitch": 68,
                "velocity": 51,
                "duration": 0.1159090909090903,
                "tempo": 120.0
            },
            {
                "start_time": 7.175,
                "end_time": 7.293181818181818,
                "pitch": 73,
                "velocity": 51,
                "duration": 0.11818181818181817,
                "tempo": 120.0
            },
            {
                "start_time": 7.309090909090909,
                "end_time": 7.429545454545454,
                "pitch": 72,
                "velocity": 51,
                "duration": 0.12045454545454515,
                "tempo": 120.0
            },
            {
                "start_time": 7.445454545454545,
                "end_time": 7.5659090909090905,
                "pitch": 73,
                "velocity": 51,
                "duration": 0.12045454545454515,
                "tempo": 120.0
            },
            {
                "start_time": 7.581818181818181,
                "end_time": 7.699999999999999,
                "pitch": 72,
                "velocity": 51,
                "duration": 0.11818181818181817,
                "tempo": 120.0
            },
            {
                "start_time": 7.718181818181818,
                "end_time": 7.834090909090909,
                "pitch": 68,
                "velocity": 51,
                "duration": 0.11590909090909118,
                "tempo": 120.0
            },
            {
                "start_time": 7.852272727272727,
                "end_time": 8.502272727272727,
                "pitch": 75,
                "velocity": 51,
                "duration": 0.6500000000000004,
                "tempo": 120.0
            },
            {
                "start_time": 8.520454545454545,
                "end_time": 8.636363636363637,
                "pitch": 61,
                "velocity": 51,
                "duration": 0.11590909090909207,
                "tempo": 120.0
            },
            {
                "start_time": 8.652272727272727,
                "end_time": 8.770454545454545,
                "pitch": 68,
                "velocity": 51,
                "duration": 0.11818181818181728,
                "tempo": 120.0
            },
            {
                "start_time": 8.786363636363635,
                "end_time": 9.581818181818182,
                "pitch": 73,
                "velocity": 51,
                "duration": 0.7954545454545467,
                "tempo": 120.0
            },
            {
                "start_time": 9.597727272727273,
                "end_time": 9.713636363636363,
                "pitch": 71,
                "velocity": 51,
                "duration": 0.1159090909090903,
                "tempo": 120.0
            },
            {
                "start_time": 9.73181818181818,
                "end_time": 9.847727272727273,
                "pitch": 66,
                "velocity": 51,
                "duration": 0.11590909090909207,
                "tempo": 120.0
            },
            {
                "start_time": 9.86590909090909,
                "end_time": 9.98181818181818,
                "pitch": 61,
                "velocity": 51,
                "duration": 0.1159090909090903,
                "tempo": 120.0
            },
            {
                "start_time": 9.997727272727273,
                "end_time": 10.11590909090909,
                "pitch": 70,
                "velocity": 51,
                "duration": 0.11818181818181728,
                "tempo": 120.0
            },
            {
                "start_time": 10.131818181818181,
                "end_time": 10.25,
                "pitch": 66,
                "velocity": 51,
                "duration": 0.11818181818181905,
                "tempo": 120.0
            },
            {
                "start_time": 10.26590909090909,
                "end_time": 10.381818181818181,
                "pitch": 61,
                "velocity": 51,
                "duration": 0.1159090909090903,
                "tempo": 120.0
            },
            {
                "start_time": 10.4,
                "end_time": 10.518181818181818,
                "pitch": 71,
                "velocity": 51,
                "duration": 0.11818181818181728,
                "tempo": 120.0
            },
            {
                "start_time": 10.536363636363635,
                "end_time": 10.654545454545454,
                "pitch": 66,
                "velocity": 51,
                "duration": 0.11818181818181905,
                "tempo": 120.0
            },
            {
                "start_time": 10.670454545454545,
                "end_time": 10.790909090909091,
                "pitch": 61,
                "velocity": 51,
                "duration": 0.12045454545454604,
                "tempo": 120.0
            },
            {
                "start_time": 10.806818181818182,
                "end_time": 10.927272727272726,
                "pitch": 68,
                "velocity": 51,
                "duration": 0.12045454545454426,
                "tempo": 120.0
            },
            {
                "start_time": 10.943181818181818,
                "end_time": 11.727272727272727,
                "pitch": 73,
                "velocity": 51,
                "duration": 0.7840909090909083,
                "tempo": 120.0
            },
            {
                "start_time": 11.745454545454544,
                "end_time": 11.861363636363636,
                "pitch": 71,
                "velocity": 51,
                "duration": 0.11590909090909207,
                "tempo": 120.0
            },
            {
                "start_time": 11.879545454545454,
                "end_time": 11.995454545454544,
                "pitch": 66,
                "velocity": 51,
                "duration": 0.1159090909090903,
                "tempo": 120.0
            },
            {
                "start_time": 12.011363636363635,
                "end_time": 12.129545454545454,
                "pitch": 61,
                "velocity": 51,
                "duration": 0.11818181818181905,
                "tempo": 120.0
            },
            {
                "start_time": 12.145454545454545,
                "end_time": 12.293181818181818,
                "pitch": 70,
                "velocity": 51,
                "duration": 0.14772727272727337,
                "tempo": 120.0
            },
            {
                "start_time": 12.313636363636363,
                "end_time": 12.463636363636363,
                "pitch": 66,
                "velocity": 51,
                "duration": 0.15000000000000036,
                "tempo": 120.0
            },
            {
                "start_time": 12.48409090909091,
                "end_time": 12.631818181818181,
                "pitch": 61,
                "velocity": 51,
                "duration": 0.1477272727272716,
                "tempo": 120.0
            },
            {
                "start_time": 12.654545454545454,
                "end_time": 12.972727272727273,
                "pitch": 68,
                "velocity": 51,
                "duration": 0.31818181818181834,
                "tempo": 120.0
            },
            {
                "start_time": 12.993181818181817,
                "end_time": 13.14090909090909,
                "pitch": 66,
                "velocity": 51,
                "duration": 0.14772727272727337,
                "tempo": 120.0
            },
            {
                "start_time": 13.161363636363635,
                "end_time": 13.311363636363636,
                "pitch": 66,
                "velocity": 51,
                "duration": 0.15000000000000036,
                "tempo": 120.0
            },
            {
                "start_time": 13.331818181818182,
                "end_time": 13.479545454545454,
                "pitch": 66,
                "velocity": 51,
                "duration": 0.1477272727272716,
                "tempo": 120.0
            },
            {
                "start_time": 13.502272727272727,
                "end_time": 13.649999999999999,
                "pitch": 66,
                "velocity": 51,
                "duration": 0.1477272727272716,
                "tempo": 120.0
            },
            {
                "start_time": 13.670454545454545,
                "end_time": 13.788636363636362,
                "pitch": 66,
                "velocity": 51,
                "duration": 0.11818181818181728,
                "tempo": 120.0
            },
            {
                "start_time": 13.806818181818182,
                "end_time": 13.922727272727272,
                "pitch": 66,
                "velocity": 51,
                "duration": 0.1159090909090903,
                "tempo": 120.0
            },
            {
                "start_time": 13.938636363636363,
                "end_time": 14.056818181818182,
                "pitch": 66,
                "velocity": 51,
                "duration": 0.11818181818181905,
                "tempo": 120.0
            },
            {
                "start_time": 14.072727272727272,
                "end_time": 14.19090909090909,
                "pitch": 66,
                "velocity": 51,
                "duration": 0.11818181818181728,
                "tempo": 120.0
            },
            {
                "start_time": 14.206818181818182,
                "end_time": 14.45681818181818,
                "pitch": 68,
                "velocity": 51,
                "duration": 0.24999999999999822,
                "tempo": 120.0
            },
            {
                "start_time": 14.60681818181818,
                "end_time": 15.259090909090908,
                "pitch": 68,
                "velocity": 51,
                "duration": 0.6522727272727273,
                "tempo": 120.0
            },
            {
                "start_time": 15.274999999999999,
                "end_time": 15.395454545454545,
                "pitch": 66,
                "velocity": 51,
                "duration": 0.12045454545454604,
                "tempo": 120.0
            },
            {
                "start_time": 15.411363636363635,
                "end_time": 15.529545454545454,
                "pitch": 66,
                "velocity": 51,
                "duration": 0.11818181818181905,
                "tempo": 120.0
            },
            {
                "start_time": 15.547727272727272,
                "end_time": 15.665909090909091,
                "pitch": 66,
                "velocity": 51,
                "duration": 0.11818181818181905,
                "tempo": 120.0
            },
            {
                "start_time": 15.684090909090909,
                "end_time": 15.802272727272726,
                "pitch": 66,
                "velocity": 51,
                "duration": 0.11818181818181728,
                "tempo": 120.0
            },
            {
                "start_time": 15.820454545454545,
                "end_time": 15.936363636363636,
                "pitch": 66,
                "velocity": 51,
                "duration": 0.1159090909090903,
                "tempo": 120.0
            },
            {
                "start_time": 15.952272727272726,
                "end_time": 16.070454545454545,
                "pitch": 66,
                "velocity": 51,
                "duration": 0.11818181818181905,
                "tempo": 120.0
            },
            {
                "start_time": 16.086363636363636,
                "end_time": 16.204545454545453,
                "pitch": 66,
                "velocity": 51,
                "duration": 0.11818181818181728,
                "tempo": 120.0
            },
            {
                "start_time": 16.220454545454544,
                "end_time": 16.336363636363636,
                "pitch": 66,
                "velocity": 51,
                "duration": 0.11590909090909207,
                "tempo": 120.0
            },
            {
                "start_time": 16.354545454545455,
                "end_time": 16.60909090909091,
                "pitch": 68,
                "velocity": 51,
                "duration": 0.25454545454545396,
                "tempo": 120.0
            },
            {
                "start_time": 16.761363636363637,
                "end_time": 17.41590909090909,
                "pitch": 68,
                "velocity": 51,
                "duration": 0.6545454545454525,
                "tempo": 120.0
            },
            {
                "start_time": 17.43181818181818,
                "end_time": 17.55,
                "pitch": 66,
                "velocity": 51,
                "duration": 0.11818181818182083,
                "tempo": 120.0
            },
            {
                "start_time": 17.56590909090909,
                "end_time": 17.68181818181818,
                "pitch": 66,
                "velocity": 51,
                "duration": 0.11590909090908852,
                "tempo": 120.0
            },
            {
                "start_time": 17.7,
                "end_time": 17.81590909090909,
                "pitch": 66,
                "velocity": 51,
                "duration": 0.11590909090909207,
                "tempo": 120.0
            },
            {
                "start_time": 17.831818181818182,
                "end_time": 17.95,
                "pitch": 66,
                "velocity": 51,
                "duration": 0.11818181818181728,
                "tempo": 120.0
            },
            {
                "start_time": 17.96590909090909,
                "end_time": 18.086363636363636,
                "pitch": 66,
                "velocity": 51,
                "duration": 0.12045454545454604,
                "tempo": 120.0
            },
            {
                "start_time": 18.102272727272727,
                "end_time": 18.220454545454544,
                "pitch": 66,
                "velocity": 51,
                "duration": 0.11818181818181728,
                "tempo": 120.0
            },
            {
                "start_time": 18.238636363636363,
                "end_time": 18.35681818181818,
                "pitch": 66,
                "velocity": 51,
                "duration": 0.11818181818181728,
                "tempo": 120.0
            },
            {
                "start_time": 18.375,
                "end_time": 18.493181818181817,
                "pitch": 66,
                "velocity": 51,
                "duration": 0.11818181818181728,
                "tempo": 120.0
            },
            {
                "start_time": 18.511363636363637,
                "end_time": 18.761363636363637,
                "pitch": 68,
                "velocity": 51,
                "duration": 0.25,
                "tempo": 120.0
            },
            {
                "start_time": 18.911363636363635,
                "end_time": 19.561363636363634,
                "pitch": 68,
                "velocity": 51,
                "duration": 0.6499999999999986,
                "tempo": 120.0
            },
            {
                "start_time": 19.579545454545453,
                "end_time": 19.69772727272727,
                "pitch": 66,
                "velocity": 51,
                "duration": 0.11818181818181728,
                "tempo": 120.0
            },
            {
                "start_time": 19.71590909090909,
                "end_time": 19.834090909090907,
                "pitch": 66,
                "velocity": 51,
                "duration": 0.11818181818181728,
                "tempo": 120.0
            },
            {
                "start_time": 19.849999999999998,
                "end_time": 19.970454545454544,
                "pitch": 66,
                "velocity": 51,
                "duration": 0.12045454545454604,
                "tempo": 120.0
            },
            {
                "start_time": 19.986363636363635,
                "end_time": 20.10681818181818,
                "pitch": 66,
                "velocity": 51,
                "duration": 0.12045454545454604,
                "tempo": 120.0
            },
            {
                "start_time": 20.12272727272727,
                "end_time": 20.24090909090909,
                "pitch": 66,
                "velocity": 51,
                "duration": 0.11818181818181728,
                "tempo": 120.0
            },
            {
                "start_time": 20.25681818181818,
                "end_time": 20.37272727272727,
                "pitch": 66,
                "velocity": 51,
                "duration": 0.11590909090909207,
                "tempo": 120.0
            },
            {
                "start_time": 20.39090909090909,
                "end_time": 20.50681818181818,
                "pitch": 66,
                "velocity": 51,
                "duration": 0.11590909090908852,
                "tempo": 120.0
            },
            {
                "start_time": 20.525,
                "end_time": 20.64090909090909,
                "pitch": 66,
                "velocity": 51,
                "duration": 0.11590909090909207,
                "tempo": 120.0
            },
            {
                "start_time": 20.65681818181818,
                "end_time": 20.909090909090907,
                "pitch": 68,
                "velocity": 51,
                "duration": 0.2522727272727252,
                "tempo": 120.0
            },
            {
                "start_time": 21.05909090909091,
                "end_time": 21.709090909090907,
                "pitch": 68,
                "velocity": 51,
                "duration": 0.6499999999999986,
                "tempo": 120.0
            },
            {
                "start_time": 21.861363636363635,
                "end_time": 21.98181818181818,
                "pitch": 75,
                "velocity": 51,
                "duration": 0.12045454545454604,
                "tempo": 120.0
            },
            {
                "start_time": 21.99772727272727,
                "end_time": 22.118181818181817,
                "pitch": 72,
                "velocity": 51,
                "duration": 0.12045454545454604,
                "tempo": 120.0
            },
            {
                "start_time": 22.134090909090908,
                "end_time": 22.252272727272725,
                "pitch": 68,
                "velocity": 51,
                "duration": 0.11818181818181728,
                "tempo": 120.0
            },
            {
                "start_time": 22.270454545454545,
                "end_time": 22.386363636363637,
                "pitch": 66,
                "velocity": 51,
                "duration": 0.11590909090909207,
                "tempo": 120.0
            },
            {
                "start_time": 22.404545454545453,
                "end_time": 22.520454545454545,
                "pitch": 63,
                "velocity": 51,
                "duration": 0.11590909090909207,
                "tempo": 120.0
            },
            {
                "start_time": 22.536363636363635,
                "end_time": 22.654545454545453,
                "pitch": 60,
                "velocity": 51,
                "duration": 0.11818181818181728,
                "tempo": 120.0
            },
            {
                "start_time": 22.670454545454543,
                "end_time": 22.788636363636364,
                "pitch": 57,
                "velocity": 51,
                "duration": 0.11818181818182083,
                "tempo": 120.0
            },
            {
                "start_time": 22.804545454545455,
                "end_time": 22.920454545454543,
                "pitch": 77,
                "velocity": 51,
                "duration": 0.11590909090908852,
                "tempo": 120.0
            },
            {
                "start_time": 23.204545454545453,
                "end_time": 23.32272727272727,
                "pitch": 73,
                "velocity": 51,
                "duration": 0.11818181818181728,
                "tempo": 120.0
            },
            {
                "start_time": 23.87272727272727,
                "end_time": 23.993181818181817,
                "pitch": 78,
                "velocity": 51,
                "duration": 0.12045454545454604,
                "tempo": 120.0
            },
            {
                "start_time": 24.28181818181818,
                "end_time": 24.4,
                "pitch": 73,
                "velocity": 51,
                "duration": 0.11818181818181728,
                "tempo": 120.0
            },
            {
                "start_time": 24.961363636363636,
                "end_time": 25.077272727272724,
                "pitch": 77,
                "velocity": 51,
                "duration": 0.11590909090908852,
                "tempo": 120.0
            },
            {
                "start_time": 25.361363636363635,
                "end_time": 25.479545454545452,
                "pitch": 73,
                "velocity": 51,
                "duration": 0.11818181818181728,
                "tempo": 120.0
            },
            {
                "start_time": 26.029545454545453,
                "end_time": 26.14772727272727,
                "pitch": 75,
                "velocity": 51,
                "duration": 0.11818181818181728,
                "tempo": 120.0
            },
            {
                "start_time": 26.43181818181818,
                "end_time": 26.547727272727272,
                "pitch": 70,
                "velocity": 51,
                "duration": 0.11590909090909207,
                "tempo": 120.0
            },
            {
                "start_time": 27.10909090909091,
                "end_time": 27.224999999999998,
                "pitch": 77,
                "velocity": 51,
                "duration": 0.11590909090908852,
                "tempo": 120.0
            },
            {
                "start_time": 27.509090909090908,
                "end_time": 27.627272727272725,
                "pitch": 73,
                "velocity": 51,
                "duration": 0.11818181818181728,
                "tempo": 120.0
            },
            {
                "start_time": 28.177272727272726,
                "end_time": 28.295454545454543,
                "pitch": 78,
                "velocity": 51,
                "duration": 0.11818181818181728,
                "tempo": 120.0
            },
            {
                "start_time": 28.584090909090907,
                "end_time": 28.704545454545453,
                "pitch": 73,
                "velocity": 51,
                "duration": 0.12045454545454604,
                "tempo": 120.0
            },
            {
                "start_time": 29.245454545454542,
                "end_time": 29.78181818181818,
                "pitch": 63,
                "velocity": 51,
                "duration": 0.5363636363636388,
                "tempo": 120.0
            },
            {
                "start_time": 29.799999999999997,
                "end_time": 30.318181818181817,
                "pitch": 66,
                "velocity": 51,
                "duration": 0.5181818181818194,
                "tempo": 120.0
            },
            {
                "start_time": 30.334090909090907,
                "end_time": 30.852272727272727,
                "pitch": 70,
                "velocity": 51,
                "duration": 0.5181818181818194,
                "tempo": 120.0
            },
            {
                "start_time": 30.868181818181817,
                "end_time": 30.986363636363635,
                "pitch": 71,
                "velocity": 51,
                "duration": 0.11818181818181728,
                "tempo": 120.0
            },
            {
                "start_time": 31.004545454545454,
                "end_time": 31.259090909090908,
                "pitch": 71,
                "velocity": 51,
                "duration": 0.25454545454545396,
                "tempo": 120.0
            },
            {
                "start_time": 31.277272727272727,
                "end_time": 31.395454545454545,
                "pitch": 71,
                "velocity": 51,
                "duration": 0.11818181818181728,
                "tempo": 120.0
            },
            {
                "start_time": 31.411363636363635,
                "end_time": 31.529545454545453,
                "pitch": 67,
                "velocity": 51,
                "duration": 0.11818181818181728,
                "tempo": 120.0
            },
            {
                "start_time": 31.545454545454543,
                "end_time": 31.66363636363636,
                "pitch": 68,
                "velocity": 51,
                "duration": 0.11818181818181728,
                "tempo": 120.0
            },
            {
                "start_time": 31.679545454545455,
                "end_time": 31.795454545454543,
                "pitch": 68,
                "velocity": 51,
                "duration": 0.11590909090908852,
                "tempo": 120.0
            },
            {
                "start_time": 31.813636363636363,
                "end_time": 31.929545454545455,
                "pitch": 67,
                "velocity": 51,
                "duration": 0.11590909090909207,
                "tempo": 120.0
            },
            {
                "start_time": 31.94772727272727,
                "end_time": 32.06363636363636,
                "pitch": 68,
                "velocity": 51,
                "duration": 0.11590909090909207,
                "tempo": 120.0
            },
            {
                "start_time": 32.07954545454545,
                "end_time": 32.19772727272727,
                "pitch": 68,
                "velocity": 51,
                "duration": 0.11818181818181728,
                "tempo": 120.0
            },
            {
                "start_time": 32.21363636363636,
                "end_time": 32.33181818181818,
                "pitch": 67,
                "velocity": 51,
                "duration": 0.11818181818181728,
                "tempo": 120.0
            },
            {
                "start_time": 32.34772727272727,
                "end_time": 32.46363636363636,
                "pitch": 68,
                "velocity": 51,
                "duration": 0.11590909090909207,
                "tempo": 120.0
            },
            {
                "start_time": 32.48181818181818,
                "end_time": 32.6,
                "pitch": 68,
                "velocity": 51,
                "duration": 0.11818181818182438,
                "tempo": 120.0
            },
            {
                "start_time": 32.61818181818182,
                "end_time": 32.736363636363635,
                "pitch": 67,
                "velocity": 51,
                "duration": 0.11818181818181728,
                "tempo": 120.0
            },
            {
                "start_time": 32.752272727272725,
                "end_time": 32.87272727272727,
                "pitch": 68,
                "velocity": 51,
                "duration": 0.12045454545454248,
                "tempo": 120.0
            },
            {
                "start_time": 32.888636363636365,
                "end_time": 33.00909090909091,
                "pitch": 68,
                "velocity": 51,
                "duration": 0.12045454545454248,
                "tempo": 120.0
            },
            {
                "start_time": 33.025,
                "end_time": 33.14090909090909,
                "pitch": 67,
                "velocity": 51,
                "duration": 0.11590909090909207,
                "tempo": 120.0
            },
            {
                "start_time": 33.15909090909091,
                "end_time": 33.275,
                "pitch": 68,
                "velocity": 51,
                "duration": 0.11590909090909207,
                "tempo": 120.0
            },
            {
                "start_time": 33.293181818181814,
                "end_time": 33.40909090909091,
                "pitch": 68,
                "velocity": 51,
                "duration": 0.11590909090909207,
                "tempo": 120.0
            },
            {
                "start_time": 33.559090909090905,
                "end_time": 33.94318181818181,
                "pitch": 80,
                "velocity": 51,
                "duration": 0.38409090909090793,
                "tempo": 120.0
            },
            {
                "start_time": 33.961363636363636,
                "end_time": 34.07727272727273,
                "pitch": 78,
                "velocity": 51,
                "duration": 0.11590909090909207,
                "tempo": 120.0
            },
            {
                "start_time": 34.09318181818182,
                "end_time": 34.34772727272727,
                "pitch": 78,
                "velocity": 51,
                "duration": 0.2545454545454504,
                "tempo": 120.0
            },
            {
                "start_time": 34.36590909090909,
                "end_time": 34.62045454545454,
                "pitch": 77,
                "velocity": 51,
                "duration": 0.2545454545454504,
                "tempo": 120.0
            },
            {
                "start_time": 34.638636363636365,
                "end_time": 34.888636363636365,
                "pitch": 77,
                "velocity": 51,
                "duration": 0.25,
                "tempo": 120.0
            },
            {
                "start_time": 34.904545454545456,
                "end_time": 35.02272727272727,
                "pitch": 75,
                "velocity": 51,
                "duration": 0.11818181818181728,
                "tempo": 120.0
            },
            {
                "start_time": 35.038636363636364,
                "end_time": 35.154545454545456,
                "pitch": 75,
                "velocity": 51,
                "duration": 0.11590909090909207,
                "tempo": 120.0
            },
            {
                "start_time": 35.70681818181818,
                "end_time": 36.768181818181816,
                "pitch": 73,
                "velocity": 51,
                "duration": 1.0613636363636374,
                "tempo": 120.0
            },
            {
                "start_time": 36.78409090909091,
                "end_time": 37.836363636363636,
                "pitch": 75,
                "velocity": 51,
                "duration": 1.0522727272727295,
                "tempo": 120.0
            },
            {
                "start_time": 37.85454545454545,
                "end_time": 38.24545454545454,
                "pitch": 80,
                "velocity": 51,
                "duration": 0.39090909090909065,
                "tempo": 120.0
            },
            {
                "start_time": 38.26136363636363,
                "end_time": 38.37954545454545,
                "pitch": 78,
                "velocity": 51,
                "duration": 0.11818181818181728,
                "tempo": 120.0
            },
            {
                "start_time": 38.39772727272727,
                "end_time": 38.64772727272727,
                "pitch": 78,
                "velocity": 51,
                "duration": 0.25,
                "tempo": 120.0
            },
            {
                "start_time": 38.66590909090909,
                "end_time": 38.91590909090909,
                "pitch": 77,
                "velocity": 51,
                "duration": 0.25,
                "tempo": 120.0
            },
            {
                "start_time": 38.93181818181818,
                "end_time": 39.18636363636364,
                "pitch": 77,
                "velocity": 51,
                "duration": 0.2545454545454575,
                "tempo": 120.0
            },
            {
                "start_time": 39.20454545454545,
                "end_time": 39.32272727272727,
                "pitch": 75,
                "velocity": 51,
                "duration": 0.11818181818181728,
                "tempo": 120.0
            },
            {
                "start_time": 39.340909090909086,
                "end_time": 39.459090909090904,
                "pitch": 75,
                "velocity": 51,
                "duration": 0.11818181818181728,
                "tempo": 120.0
            },
            {
                "start_time": 40.01136363636363,
                "end_time": 41.07272727272727,
                "pitch": 73,
                "velocity": 51,
                "duration": 1.0613636363636374,
                "tempo": 120.0
            },
            {
                "start_time": 41.08863636363636,
                "end_time": 42.15,
                "pitch": 75,
                "velocity": 51,
                "duration": 1.0613636363636374,
                "tempo": 120.0
            },
            {
                "start_time": 42.16590909090909,
                "end_time": 42.28409090909091,
                "pitch": 61,
                "velocity": 51,
                "duration": 0.11818181818181728,
                "tempo": 120.0
            },
            {
                "start_time": 42.3,
                "end_time": 42.418181818181814,
                "pitch": 68,
                "velocity": 80,
                "duration": 0.11818181818181728,
                "tempo": 120.0
            },
            {
                "start_time": 42.434090909090905,
                "end_time": 43.21818181818182,
                "pitch": 73,
                "velocity": 80,
                "duration": 0.7840909090909136,
                "tempo": 120.0
            }
        ]
    }
}