{
    "track_id": "Zillion II (FM) - 04 - Boss",
    "mood": "happy",
    "instruments": {
        "Lead 2 (sawtooth)": [
            {
                "start_time": 0.0,
                "end_time": 0.16136363636363635,
                "pitch": 57,
                "velocity": 80,
                "duration": 0.16136363636363635,
                "tempo": 120.0
            },
            {
                "start_time": 0.18181818181818182,
                "end_time": 0.36363636363636365,
                "pitch": 57,
                "velocity": 80,
                "duration": 0.18181818181818182,
                "tempo": 120.0
            },
            {
                "start_time": 0.3840909090909091,
                "end_time": 0.5363636363636364,
                "pitch": 60,
                "velocity": 80,
                "duration": 0.15227272727272728,
                "tempo": 120.0
            },
            {
                "start_time": 0.5522727272727272,
                "end_time": 0.7022727272727273,
                "pitch": 57,
                "velocity": 80,
                "duration": 0.15000000000000002,
                "tempo": 120.0
            },
            {
                "start_time": 0.7204545454545455,
                "end_time": 0.8704545454545454,
                "pitch": 63,
                "velocity": 80,
                "duration": 0.1499999999999999,
                "tempo": 120.0
            },
            {
                "start_time": 0.8863636363636364,
                "end_time": 1.0386363636363636,
                "pitch": 62,
                "velocity": 80,
                "duration": 0.15227272727272723,
                "tempo": 120.0
            },
            {
                "start_time": 1.0545454545454545,
                "end_time": 1.2272727272727273,
                "pitch": 60,
                "velocity": 80,
                "duration": 0.17272727272727284,
                "tempo": 120.0
            },
            {
                "start_time": 1.2431818181818182,
                "end_time": 1.5704545454545453,
                "pitch": 57,
                "velocity": 80,
                "duration": 0.32727272727272716,
                "tempo": 120.0
            },
            {
                "start_time": 1.5886363636363636,
                "end_time": 1.7431818181818182,
                "pitch": 57,
                "velocity": 80,
                "duration": 0.15454545454545454,
                "tempo": 120.0
            },
            {
                "start_time": 1.7613636363636362,
                "end_time": 1.9159090909090908,
                "pitch": 60,
                "velocity": 80,
                "duration": 0.15454545454545454,
                "tempo": 120.0
            },
            {
                "start_time": 1.9318181818181817,
                "end_time": 2.0886363636363634,
                "pitch": 57,
                "velocity": 80,
                "duration": 0.15681818181818175,
                "tempo": 120.0
            },
            {
                "start_time": 2.1045454545454545,
                "end_time": 2.4227272727272724,
                "pitch": 53,
                "velocity": 80,
                "duration": 0.3181818181818179,
                "tempo": 120.0
            },
            {
                "start_time": 2.4386363636363635,
                "end_time": 2.7659090909090907,
                "pitch": 52,
                "velocity": 80,
                "duration": 0.32727272727272716,
                "tempo": 120.0
            },
            {
                "start_time": 2.784090909090909,
                "end_time": 2.934090909090909,
                "pitch": 57,
                "velocity": 80,
                "duration": 0.1499999999999999,
                "tempo": 120.0
            },
            {
                "start_time": 2.952272727272727,
                "end_time": 3.102272727272727,
                "pitch": 57,
                "velocity": 80,
                "duration": 0.1499999999999999,
                "tempo": 120.0
            },
            {
                "start_time": 3.118181818181818,
                "end_time": 3.2704545454545455,
                "pitch": 60,
                "velocity": 80,
                "duration": 0.15227272727272734,
                "tempo": 120.0
            },
            {
                "start_time": 3.286363636363636,
                "end_time": 3.436363636363636,
                "pitch": 57,
                "velocity": 80,
                "duration": 0.1499999999999999,
                "tempo": 120.0
            },
            {
                "start_time": 3.4545454545454546,
                "end_time": 3.6045454545454545,
                "pitch": 63,
                "velocity": 80,
                "duration": 0.1499999999999999,
                "tempo": 120.0
            },
            {
                "start_time": 3.620454545454545,
                "end_time": 3.7727272727272725,
                "pitch": 62,
                "velocity": 80,
                "duration": 0.15227272727272734,
                "tempo": 120.0
            },
            {
                "start_time": 3.7886363636363636,
                "end_time": 3.943181818181818,
                "pitch": 60,
                "velocity": 80,
                "duration": 0.15454545454545432,
                "tempo": 120.0
            },
            {
                "start_time": 3.961363636363636,
                "end_time": 4.284090909090909,
                "pitch": 57,
                "velocity": 80,
                "duration": 0.3227272727272732,
                "tempo": 120.0
            },
            {
                "start_time": 4.3,
                "end_time": 4.452272727272727,
                "pitch": 57,
                "velocity": 80,
                "duration": 0.15227272727272734,
                "tempo": 120.0
            },
            {
                "start_time": 4.468181818181818,
                "end_time": 4.622727272727272,
                "pitch": 60,
                "velocity": 80,
                "duration": 0.15454545454545432,
                "tempo": 120.0
            },
            {
                "start_time": 4.640909090909091,
                "end_time": 4.795454545454545,
                "pitch": 57,
                "velocity": 80,
                "duration": 0.15454545454545432,
                "tempo": 120.0
            },
            {
                "start_time": 4.8113636363636365,
                "end_time": 5.129545454545454,
                "pitch": 55,
                "velocity": 80,
                "duration": 0.31818181818181746,
                "tempo": 120.0
            },
            {
                "start_time": 5.1477272727272725,
                "end_time": 5.465909090909091,
                "pitch": 56,
                "velocity": 80,
                "duration": 0.31818181818181834,
                "tempo": 120.0
            },
            {
                "start_time": 5.4818181818181815,
                "end_time": 5.636363636363636,
                "pitch": 57,
                "velocity": 80,
                "duration": 0.15454545454545432,
                "tempo": 120.0
            },
            {
                "start_time": 5.654545454545454,
                "end_time": 5.809090909090909,
                "pitch": 57,
                "velocity": 80,
                "duration": 0.15454545454545432,
                "tempo": 120.0
            },
            {
                "start_time": 5.827272727272727,
                "end_time": 5.977272727272727,
                "pitch": 60,
                "velocity": 80,
                "duration": 0.14999999999999947,
                "tempo": 120.0
            },
            {
                "start_time": 5.993181818181818,
                "end_time": 6.1454545454545455,
                "pitch": 57,
                "velocity": 80,
                "duration": 0.15227272727272734,
                "tempo": 120.0
            },
            {
                "start_time": 6.161363636363636,
                "end_time": 6.311363636363636,
                "pitch": 63,
                "velocity": 80,
                "duration": 0.14999999999999947,
                "tempo": 120.0
            },
            {
                "start_time": 6.329545454545454,
                "end_time": 6.4795454545454545,
                "pitch": 62,
                "velocity": 80,
                "duration": 0.15000000000000036,
                "tempo": 120.0
            },
            {
                "start_time": 6.495454545454545,
                "end_time": 6.6499999999999995,
                "pitch": 60,
                "velocity": 80,
                "duration": 0.15454545454545432,
                "tempo": 120.0
            },
            {
                "start_time": 6.668181818181818,
                "end_time": 6.99090909090909,
                "pitch": 57,
                "velocity": 80,
                "duration": 0.3227272727272723,
                "tempo": 120.0
            },
            {
                "start_time": 7.009090909090909,
                "end_time": 7.159090909090909,
                "pitch": 57,
                "velocity": 80,
                "duration": 0.15000000000000036,
                "tempo": 120.0
            },
            {
                "start_time": 7.175,
                "end_time": 7.327272727272727,
                "pitch": 60,
                "velocity": 80,
                "duration": 0.15227272727272734,
                "tempo": 120.0
            },
            {
                "start_time": 7.343181818181818,
                "end_time": 7.493181818181818,
                "pitch": 57,
                "velocity": 80,
                "duration": 0.15000000000000036,
                "tempo": 120.0
            },
            {
                "start_time": 7.511363636363636,
                "end_time": 7.836363636363636,
                "pitch": 53,
                "velocity": 80,
                "duration": 0.3250000000000002,
                "tempo": 120.0
            },
            {
                "start_time": 7.8545454545454545,
                "end_time": 8.172727272727272,
                "pitch": 52,
                "velocity": 80,
                "duration": 0.31818181818181746,
                "tempo": 120.0
            },
            {
                "start_time": 8.188636363636363,
                "end_time": 8.34090909090909,
                "pitch": 57,
                "velocity": 80,
                "duration": 0.15227272727272734,
                "tempo": 120.0
            },
            {
                "start_time": 8.35681818181818,
                "end_time": 8.506818181818181,
                "pitch": 57,
                "velocity": 80,
                "duration": 0.15000000000000036,
                "tempo": 120.0
            },
            {
                "start_time": 8.525,
                "end_time": 8.679545454545455,
                "pitch": 60,
                "velocity": 80,
                "duration": 0.15454545454545432,
                "tempo": 120.0
            },
            {
                "start_time": 8.695454545454545,
                "end_time": 8.852272727272727,
                "pitch": 57,
                "velocity": 80,
                "duration": 0.1568181818181813,
                "tempo": 120.0
            },
            {
                "start_time": 8.868181818181817,
                "end_time": 9.020454545454545,
                "pitch": 63,
                "velocity": 80,
                "duration": 0.15227272727272734,
                "tempo": 120.0
            },
            {
                "start_time": 9.036363636363635,
                "end_time": 9.186363636363636,
                "pitch": 62,
                "velocity": 80,
                "duration": 0.15000000000000036,
                "tempo": 120.0
            },
            {
                "start_time": 9.204545454545453,
                "end_time": 9.354545454545454,
                "pitch": 60,
                "velocity": 80,
                "duration": 0.15000000000000036,
                "tempo": 120.0
            },
            {
                "start_time": 9.370454545454544,
                "end_time": 9.688636363636363,
                "pitch": 57,
                "velocity": 80,
                "duration": 0.31818181818181834,
                "tempo": 120.0
            },
            {
                "start_time": 9.706818181818182,
                "end_time": 9.85681818181818,
                "pitch": 57,
                "velocity": 80,
                "duration": 0.14999999999999858,
                "tempo": 120.0
            },
            {
                "start_time": 9.872727272727273,
                "end_time": 10.029545454545454,
                "pitch": 60,
                "velocity": 80,
                "duration": 0.1568181818181813,
                "tempo": 120.0
            },
            {
                "start_time": 10.045454545454545,
                "end_time": 10.2,
                "pitch": 57,
                "velocity": 80,
                "duration": 0.15454545454545432,
                "tempo": 120.0
            },
            {
                "start_time": 10.218181818181817,
                "end_time": 10.536363636363635,
                "pitch": 55,
                "velocity": 80,
                "duration": 0.31818181818181834,
                "tempo": 120.0
            },
            {
                "start_time": 10.552272727272726,
                "end_time": 10.879545454545454,
                "pitch": 56,
                "velocity": 80,
                "duration": 0.32727272727272805,
                "tempo": 120.0
            },
            {
                "start_time": 10.897727272727272,
                "end_time": 11.047727272727272,
                "pitch": 57,
                "velocity": 80,
                "duration": 0.15000000000000036,
                "tempo": 120.0
            },
            {
                "start_time": 11.063636363636363,
                "end_time": 11.21590909090909,
                "pitch": 57,
                "velocity": 80,
                "duration": 0.15227272727272734,
                "tempo": 120.0
            },
            {
                "start_time": 11.23181818181818,
                "end_time": 11.381818181818181,
                "pitch": 60,
                "velocity": 80,
                "duration": 0.15000000000000036,
                "tempo": 120.0
            },
            {
                "start_time": 11.399999999999999,
                "end_time": 11.549999999999999,
                "pitch": 57,
                "velocity": 80,
                "duration": 0.15000000000000036,
                "tempo": 120.0
            },
            {
                "start_time": 11.56590909090909,
                "end_time": 11.718181818181817,
                "pitch": 63,
                "velocity": 80,
                "duration": 0.15227272727272734,
                "tempo": 120.0
            },
            {
                "start_time": 11.73409090909091,
                "end_time": 11.884090909090908,
                "pitch": 62,
                "velocity": 80,
                "duration": 0.14999999999999858,
                "tempo": 120.0
            },
            {
                "start_time": 11.902272727272727,
                "end_time": 12.056818181818182,
                "pitch": 60,
                "velocity": 80,
                "duration": 0.15454545454545432,
                "tempo": 120.0
            },
            {
                "start_time": 12.075,
                "end_time": 12.397727272727272,
                "pitch": 57,
                "velocity": 80,
                "duration": 0.3227272727272723,
                "tempo": 120.0
            },
            {
                "start_time": 12.413636363636362,
                "end_time": 12.563636363636363,
                "pitch": 57,
                "velocity": 80,
                "duration": 0.15000000000000036,
                "tempo": 120.0
            },
            {
                "start_time": 12.581818181818182,
                "end_time": 12.736363636363636,
                "pitch": 60,
                "velocity": 80,
                "duration": 0.15454545454545432,
                "tempo": 120.0
            },
            {
                "start_time": 12.752272727272727,
                "end_time": 12.909090909090908,
                "pitch": 57,
                "velocity": 80,
                "duration": 0.1568181818181813,
                "tempo": 120.0
            },
            {
                "start_time": 12.924999999999999,
                "end_time": 13.243181818181817,
                "pitch": 53,
                "velocity": 80,
                "duration": 0.31818181818181834,
                "tempo": 120.0
            },
            {
                "start_time": 13.261363636363635,
                "end_time": 13.579545454545453,
                "pitch": 52,
                "velocity": 80,
                "duration": 0.31818181818181834,
                "tempo": 120.0
            },
            {
                "start_time": 13.595454545454546,
                "end_time": 13.745454545454544,
                "pitch": 57,
                "velocity": 80,
                "duration": 0.14999999999999858,
                "tempo": 120.0
            },
            {
                "start_time": 13.763636363636364,
                "end_time": 13.913636363636362,
                "pitch": 57,
                "velocity": 80,
                "duration": 0.14999999999999858,
                "tempo": 120.0
            },
            {
                "start_time": 13.929545454545455,
                "end_time": 14.084090909090909,
                "pitch": 60,
                "velocity": 80,
                "duration": 0.15454545454545432,
                "tempo": 120.0
            },
            {
                "start_time": 14.102272727272727,
                "end_time": 14.256818181818181,
                "pitch": 57,
                "velocity": 80,
                "duration": 0.15454545454545432,
                "tempo": 120.0
            },
            {
                "start_time": 14.274999999999999,
                "end_time": 14.424999999999999,
                "pitch": 63,
                "velocity": 80,
                "duration": 0.15000000000000036,
                "tempo": 120.0
            },
            {
                "start_time": 14.44090909090909,
                "end_time": 14.593181818181817,
                "pitch": 62,
                "velocity": 80,
                "duration": 0.15227272727272734,
                "tempo": 120.0
            },
            {
                "start_time": 14.609090909090908,
                "end_time": 14.763636363636364,
                "pitch": 60,
                "velocity": 80,
                "duration": 0.1545454545454561,
                "tempo": 120.0
            },
            {
                "start_time": 14.781818181818181,
                "end_time": 15.104545454545454,
                "pitch": 57,
                "velocity": 80,
                "duration": 0.3227272727272723,
                "tempo": 120.0
            },
            {
                "start_time": 15.120454545454544,
                "end_time": 15.272727272727272,
                "pitch": 57,
                "velocity": 80,
                "duration": 0.15227272727272734,
                "tempo": 120.0
            },
            {
                "start_time": 15.288636363636362,
                "end_time": 15.438636363636363,
                "pitch": 60,
                "velocity": 80,
                "duration": 0.15000000000000036,
                "tempo": 120.0
            },
            {
                "start_time": 15.45681818181818,
                "end_time": 15.60681818181818,
                "pitch": 57,
                "velocity": 80,
                "duration": 0.15000000000000036,
                "tempo": 120.0
            },
            {
                "start_time": 15.622727272727271,
                "end_time": 15.94090909090909,
                "pitch": 55,
                "velocity": 80,
                "duration": 0.31818181818181834,
                "tempo": 120.0
            },
            {
                "start_time": 15.959090909090909,
                "end_time": 16.286363636363635,
                "pitch": 56,
                "velocity": 80,
                "duration": 0.32727272727272627,
                "tempo": 120.0
            },
            {
                "start_time": 16.302272727272726,
                "end_time": 16.454545454545453,
                "pitch": 57,
                "velocity": 80,
                "duration": 0.15227272727272734,
                "tempo": 120.0
            },
            {
                "start_time": 16.470454545454544,
                "end_time": 16.620454545454546,
                "pitch": 57,
                "velocity": 80,
                "duration": 0.15000000000000213,
                "tempo": 120.0
            },
            {
                "start_time": 16.638636363636362,
                "end_time": 16.793181818181818,
                "pitch": 60,
                "velocity": 80,
                "duration": 0.1545454545454561,
                "tempo": 120.0
            },
            {
                "start_time": 16.80909090909091,
                "end_time": 16.96363636363636,
                "pitch": 57,
                "velocity": 80,
                "duration": 0.15454545454545254,
                "tempo": 120.0
            },
            {
                "start_time": 16.98181818181818,
                "end_time": 17.131818181818183,
                "pitch": 63,
                "velocity": 80,
                "duration": 0.15000000000000213,
                "tempo": 120.0
            },
            {
                "start_time": 17.15,
                "end_time": 17.3,
                "pitch": 62,
                "velocity": 80,
                "duration": 0.15000000000000213,
                "tempo": 120.0
            },
            {
                "start_time": 17.31590909090909,
                "end_time": 17.472727272727273,
                "pitch": 60,
                "velocity": 80,
                "duration": 0.1568181818181813,
                "tempo": 120.0
            },
            {
                "start_time": 17.488636363636363,
                "end_time": 17.80681818181818,
                "pitch": 57,
                "velocity": 80,
                "duration": 0.31818181818181657,
                "tempo": 120.0
            },
            {
                "start_time": 17.82272727272727,
                "end_time": 17.96818181818182,
                "pitch": 57,
                "velocity": 80,
                "duration": 0.14545454545454817,
                "tempo": 120.0
            },
            {
                "start_time": 17.98409090909091,
                "end_time": 18.14090909090909,
                "pitch": 60,
                "velocity": 80,
                "duration": 0.1568181818181813,
                "tempo": 120.0
            },
            {
                "start_time": 18.15681818181818,
                "end_time": 18.311363636363634,
                "pitch": 57,
                "velocity": 80,
                "duration": 0.15454545454545254,
                "tempo": 120.0
            },
            {
                "start_time": 18.329545454545453,
                "end_time": 18.647727272727273,
                "pitch": 53,
                "velocity": 80,
                "duration": 0.3181818181818201,
                "tempo": 120.0
            },
            {
                "start_time": 18.663636363636364,
                "end_time": 18.99090909090909,
                "pitch": 52,
                "velocity": 80,
                "duration": 0.3272727272727245,
                "tempo": 120.0
            },
            {
                "start_time": 19.009090909090908,
                "end_time": 19.159090909090907,
                "pitch": 57,
                "velocity": 80,
                "duration": 0.14999999999999858,
                "tempo": 120.0
            },
            {
                "start_time": 19.175,
                "end_time": 19.327272727272728,
                "pitch": 57,
                "velocity": 80,
                "duration": 0.15227272727272734,
                "tempo": 120.0
            },
            {
                "start_time": 19.34318181818182,
                "end_time": 19.493181818181817,
                "pitch": 60,
                "velocity": 80,
                "duration": 0.14999999999999858,
                "tempo": 120.0
            },
            {
                "start_time": 19.511363636363637,
                "end_time": 19.661363636363635,
                "pitch": 57,
                "velocity": 80,
                "duration": 0.14999999999999858,
                "tempo": 120.0
            },
            {
                "start_time": 19.677272727272726,
                "end_time": 19.829545454545453,
                "pitch": 63,
                "velocity": 80,
                "duration": 0.15227272727272734,
                "tempo": 120.0
            },
            {
                "start_time": 19.845454545454544,
                "end_time": 19.995454545454546,
                "pitch": 62,
                "velocity": 80,
                "duration": 0.15000000000000213,
                "tempo": 120.0
            },
            {
                "start_time": 20.013636363636362,
                "end_time": 20.168181818181818,
                "pitch": 60,
                "velocity": 80,
                "duration": 0.1545454545454561,
                "tempo": 120.0
            },
            {
                "start_time": 20.186363636363634,
                "end_time": 20.509090909090908,
                "pitch": 57,
                "velocity": 80,
                "duration": 0.3227272727272741,
                "tempo": 120.0
            },
            {
                "start_time": 20.525,
                "end_time": 20.675,
                "pitch": 57,
                "velocity": 80,
                "duration": 0.15000000000000213,
                "tempo": 120.0
            },
            {
                "start_time": 20.693181818181817,
                "end_time": 20.847727272727273,
                "pitch": 60,
                "velocity": 80,
                "duration": 0.1545454545454561,
                "tempo": 120.0
            },
            {
                "start_time": 20.863636363636363,
                "end_time": 21.020454545454545,
                "pitch": 57,
                "velocity": 80,
                "duration": 0.1568181818181813,
                "tempo": 120.0
            },
            {
                "start_time": 21.036363636363635,
                "end_time": 21.34318181818182,
                "pitch": 55,
                "velocity": 80,
                "duration": 0.30681818181818343,
                "tempo": 120.0
            },
            {
                "start_time": 21.361363636363635,
                "end_time": 21.688636363636363,
                "pitch": 56,
                "velocity": 80,
                "duration": 0.32727272727272805,
                "tempo": 120.0
            },
            {
                "start_time": 22.038636363636364,
                "end_time": 22.19090909090909,
                "pitch": 75,
                "velocity": 80,
                "duration": 0.15227272727272734,
                "tempo": 120.0
            },
            {
                "start_time": 22.206818181818182,
                "end_time": 22.35681818181818,
                "pitch": 75,
                "velocity": 80,
                "duration": 0.14999999999999858,
                "tempo": 120.0
            },
            {
                "start_time": 23.052272727272726,
                "end_time": 23.202272727272724,
                "pitch": 74,
                "velocity": 80,
                "duration": 0.14999999999999858,
                "tempo": 120.0
            },
            {
                "start_time": 23.220454545454544,
                "end_time": 23.370454545454546,
                "pitch": 74,
                "velocity": 80,
                "duration": 0.15000000000000213,
                "tempo": 120.0
            },
            {
                "start_time": 24.402272727272727,
                "end_time": 24.552272727272726,
                "pitch": 75,
                "velocity": 80,
                "duration": 0.14999999999999858,
                "tempo": 120.0
            },
            {
                "start_time": 24.568181818181817,
                "end_time": 24.720454545454544,
                "pitch": 75,
                "velocity": 80,
                "duration": 0.15227272727272734,
                "tempo": 120.0
            },
            {
                "start_time": 25.41590909090909,
                "end_time": 25.570454545454545,
                "pitch": 74,
                "velocity": 80,
                "duration": 0.1545454545454561,
                "tempo": 120.0
            },
            {
                "start_time": 25.58863636363636,
                "end_time": 25.743181818181817,
                "pitch": 74,
                "velocity": 80,
                "duration": 0.1545454545454561,
                "tempo": 120.0
            },
            {
                "start_time": 26.763636363636362,
                "end_time": 26.918181818181818,
                "pitch": 78,
                "velocity": 80,
                "duration": 0.1545454545454561,
                "tempo": 120.0
            },
            {
                "start_time": 26.936363636363634,
                "end_time": 27.09090909090909,
                "pitch": 78,
                "velocity": 80,
                "duration": 0.1545454545454561,
                "tempo": 120.0
            },
            {
                "start_time": 27.784090909090907,
                "end_time": 27.936363636363634,
                "pitch": 77,
                "velocity": 80,
                "duration": 0.15227272727272734,
                "tempo": 120.0
            },
            {
                "start_time": 27.952272727272724,
                "end_time": 28.102272727272727,
                "pitch": 77,
                "velocity": 80,
                "duration": 0.15000000000000213,
                "tempo": 120.0
            },
            {
                "start_time": 29.134090909090908,
                "end_time": 29.284090909090907,
                "pitch": 78,
                "velocity": 80,
                "duration": 0.14999999999999858,
                "tempo": 120.0
            },
            {
                "start_time": 29.302272727272726,
                "end_time": 29.452272727272724,
                "pitch": 78,
                "velocity": 80,
                "duration": 0.14999999999999858,
                "tempo": 120.0
            },
            {
                "start_time": 30.14772727272727,
                "end_time": 30.304545454545455,
                "pitch": 77,
                "velocity": 80,
                "duration": 0.15681818181818485,
                "tempo": 120.0
            },
            {
                "start_time": 30.320454545454545,
                "end_time": 30.474999999999998,
                "pitch": 77,
                "velocity": 80,
                "duration": 0.15454545454545254,
                "tempo": 120.0
            },
            {
                "start_time": 31.495454545454542,
                "end_time": 31.64772727272727,
                "pitch": 75,
                "velocity": 80,
                "duration": 0.15227272727272734,
                "tempo": 120.0
            },
            {
                "start_time": 31.66363636363636,
                "end_time": 31.813636363636363,
                "pitch": 75,
                "velocity": 80,
                "duration": 0.15000000000000213,
                "tempo": 120.0
            },
            {
                "start_time": 32.51136363636363,
                "end_time": 32.66590909090909,
                "pitch": 74,
                "velocity": 80,
                "duration": 0.1545454545454561,
                "tempo": 120.0
            },
            {
                "start_time": 32.68181818181818,
                "end_time": 32.83863636363636,
                "pitch": 74,
                "velocity": 80,
                "duration": 0.1568181818181813,
                "tempo": 120.0
            },
            {
                "start_time": 33.85681818181818,
                "end_time": 34.00909090909091,
                "pitch": 75,
                "velocity": 80,
                "duration": 0.1522727272727309,
                "tempo": 120.0
            },
            {
                "start_time": 34.025,
                "end_time": 34.175,
                "pitch": 75,
                "velocity": 80,
                "duration": 0.14999999999999858,
                "tempo": 120.0
            },
            {
                "start_time": 34.88181818181818,
                "end_time": 35.03181818181818,
                "pitch": 74,
                "velocity": 80,
                "duration": 0.14999999999999858,
                "tempo": 120.0
            },
            {
                "start_time": 35.05,
                "end_time": 35.199999999999996,
                "pitch": 74,
                "velocity": 80,
                "duration": 0.14999999999999858,
                "tempo": 120.0
            },
            {
                "start_time": 36.23181818181818,
                "end_time": 36.38181818181818,
                "pitch": 78,
                "velocity": 80,
                "duration": 0.15000000000000568,
                "tempo": 120.0
            },
            {
                "start_time": 36.39772727272727,
                "end_time": 36.55,
                "pitch": 78,
                "velocity": 80,
                "duration": 0.15227272727272378,
                "tempo": 120.0
            },
            {
                "start_time": 37.24545454545454,
                "end_time": 37.4,
                "pitch": 77,
                "velocity": 80,
                "duration": 0.1545454545454561,
                "tempo": 120.0
            },
            {
                "start_time": 37.418181818181814,
                "end_time": 37.57272727272727,
                "pitch": 77,
                "velocity": 80,
                "duration": 0.1545454545454561,
                "tempo": 120.0
            },
            {
                "start_time": 38.59318181818182,
                "end_time": 38.74318181818182,
                "pitch": 78,
                "velocity": 80,
                "duration": 0.14999999999999858,
                "tempo": 120.0
            },
            {
                "start_time": 38.75909090909091,
                "end_time": 38.91136363636363,
                "pitch": 78,
                "velocity": 80,
                "duration": 0.15227272727272378,
                "tempo": 120.0
            },
            {
                "start_time": 39.60681818181818,
                "end_time": 39.76136363636363,
                "pitch": 77,
                "velocity": 80,
                "duration": 0.1545454545454561,
                "tempo": 120.0
            },
            {
                "start_time": 39.779545454545456,
                "end_time": 39.934090909090905,
                "pitch": 77,
                "velocity": 80,
                "duration": 0.154545454545449,
                "tempo": 120.0
            }
        ],
        "Acoustic Bass": [
            {
                "start_time": 0.0,
                "end_time": 0.16136363636363635,
                "pitch": 45,
                "velocity": 64,
                "duration": 0.16136363636363635,
                "tempo": 120.0
            },
            {
                "start_time": 0.18181818181818182,
                "end_time": 0.36363636363636365,
                "pitch": 45,
                "velocity": 64,
                "duration": 0.18181818181818182,
                "tempo": 120.0
            },
            {
                "start_time": 0.3840909090909091,
                "end_time": 0.5363636363636364,
                "pitch": 48,
                "velocity": 64,
                "duration": 0.15227272727272728,
                "tempo": 120.0
            },
            {
                "start_time": 0.5522727272727272,
                "end_time": 0.7022727272727273,
                "pitch": 45,
                "velocity": 64,
                "duration": 0.15000000000000002,
                "tempo": 120.0
            },
            {
                "start_time": 0.7204545454545455,
                "end_time": 0.8704545454545454,
                "pitch": 51,
                "velocity": 64,
                "duration": 0.1499999999999999,
                "tempo": 120.0
            },
            {
                "start_time": 0.8863636363636364,
                "end_time": 1.0386363636363636,
                "pitch": 50,
                "velocity": 64,
                "duration": 0.15227272727272723,
                "tempo": 120.0
            },
            {
                "start_time": 1.0545454545454545,
                "end_time": 1.2272727272727273,
                "pitch": 48,
                "velocity": 64,
                "duration": 0.17272727272727284,
                "tempo": 120.0
            },
            {
                "start_time": 1.2431818181818182,
                "end_time": 1.5704545454545453,
                "pitch": 45,
                "velocity": 64,
                "duration": 0.32727272727272716,
                "tempo": 120.0
            },
            {
                "start_time": 1.5886363636363636,
                "end_time": 1.7431818181818182,
                "pitch": 45,
                "velocity": 64,
                "duration": 0.15454545454545454,
                "tempo": 120.0
            },
            {
                "start_time": 1.7613636363636362,
                "end_time": 1.9159090909090908,
                "pitch": 48,
                "velocity": 64,
                "duration": 0.15454545454545454,
                "tempo": 120.0
            },
            {
                "start_time": 1.9318181818181817,
                "end_time": 2.0886363636363634,
                "pitch": 45,
                "velocity": 64,
                "duration": 0.15681818181818175,
                "tempo": 120.0
            },
            {
                "start_time": 2.1045454545454545,
                "end_time": 2.4227272727272724,
                "pitch": 53,
                "velocity": 64,
                "duration": 0.3181818181818179,
                "tempo": 120.0
            },
            {
                "start_time": 2.4386363636363635,
                "end_time": 2.7659090909090907,
                "pitch": 52,
                "velocity": 64,
                "duration": 0.32727272727272716,
                "tempo": 120.0
            },
            {
                "start_time": 2.784090909090909,
                "end_time": 2.934090909090909,
                "pitch": 45,
                "velocity": 64,
                "duration": 0.1499999999999999,
                "tempo": 120.0
            },
            {
                "start_time": 2.952272727272727,
                "end_time": 3.102272727272727,
                "pitch": 45,
                "velocity": 64,
                "duration": 0.1499999999999999,
                "tempo": 120.0
            },
            {
                "start_time": 3.118181818181818,
                "end_time": 3.2704545454545455,
                "pitch": 48,
                "velocity": 64,
                "duration": 0.15227272727272734,
                "tempo": 120.0
            },
            {
                "start_time": 3.286363636363636,
                "end_time": 3.436363636363636,
                "pitch": 45,
                "velocity": 64,
                "duration": 0.1499999999999999,
                "tempo": 120.0
            },
            {
                "start_time": 3.4545454545454546,
                "end_time": 3.6045454545454545,
                "pitch": 51,
                "velocity": 64,
                "duration": 0.1499999999999999,
                "tempo": 120.0
            },
            {
                "start_time": 3.620454545454545,
                "end_time": 3.7727272727272725,
                "pitch": 50,
                "velocity": 64,
                "duration": 0.15227272727272734,
                "tempo": 120.0
            },
            {
                "start_time": 3.7886363636363636,
                "end_time": 3.943181818181818,
                "pitch": 48,
                "velocity": 64,
                "duration": 0.15454545454545432,
                "tempo": 120.0
            },
            {
                "start_time": 3.961363636363636,
                "end_time": 4.284090909090909,
                "pitch": 45,
                "velocity": 64,
                "duration": 0.3227272727272732,
                "tempo": 120.0
            },
            {
                "start_time": 4.3,
                "end_time": 4.452272727272727,
                "pitch": 45,
                "velocity": 64,
                "duration": 0.15227272727272734,
                "tempo": 120.0
            },
            {
                "start_time": 4.468181818181818,
                "end_time": 4.622727272727272,
                "pitch": 48,
                "velocity": 64,
                "duration": 0.15454545454545432,
                "tempo": 120.0
            },
            {
                "start_time": 4.640909090909091,
                "end_time": 4.795454545454545,
                "pitch": 45,
                "velocity": 64,
                "duration": 0.15454545454545432,
                "tempo": 120.0
            },
            {
                "start_time": 4.8113636363636365,
                "end_time": 5.129545454545454,
                "pitch": 43,
                "velocity": 64,
                "duration": 0.31818181818181746,
                "tempo": 120.0
            },
            {
                "start_time": 5.1477272727272725,
                "end_time": 5.465909090909091,
                "pitch": 44,
                "velocity": 64,
                "duration": 0.31818181818181834,
                "tempo": 120.0
            },
            {
                "start_time": 5.4818181818181815,
                "end_time": 5.636363636363636,
                "pitch": 45,
                "velocity": 64,
                "duration": 0.15454545454545432,
                "tempo": 120.0
            },
            {
                "start_time": 5.654545454545454,
                "end_time": 5.809090909090909,
                "pitch": 45,
                "velocity": 64,
                "duration": 0.15454545454545432,
                "tempo": 120.0
            },
            {
                "start_time": 5.827272727272727,
                "end_time": 5.977272727272727,
                "pitch": 48,
                "velocity": 64,
                "duration": 0.14999999999999947,
                "tempo": 120.0
            },
            {
                "start_time": 5.993181818181818,
                "end_time": 6.1454545454545455,
                "pitch": 45,
                "velocity": 64,
                "duration": 0.15227272727272734,
                "tempo": 120.0
            },
            {
                "start_time": 6.161363636363636,
                "end_time": 6.311363636363636,
                "pitch": 51,
                "velocity": 64,
                "duration": 0.14999999999999947,
                "tempo": 120.0
            },
            {
                "start_time": 6.329545454545454,
                "end_time": 6.4795454545454545,
                "pitch": 50,
                "velocity": 64,
                "duration": 0.15000000000000036,
                "tempo": 120.0
            },
            {
                "start_time": 6.495454545454545,
                "end_time": 6.6499999999999995,
                "pitch": 48,
                "velocity": 64,
                "duration": 0.15454545454545432,
                "tempo": 120.0
            },
            {
                "start_time": 6.668181818181818,
                "end_time": 6.99090909090909,
                "pitch": 45,
                "velocity": 64,
                "duration": 0.3227272727272723,
                "tempo": 120.0
            },
            {
                "start_time": 7.009090909090909,
                "end_time": 7.159090909090909,
                "pitch": 45,
                "velocity": 64,
                "duration": 0.15000000000000036,
                "tempo": 120.0
            },
            {
                "start_time": 7.175,
                "end_time": 7.327272727272727,
                "pitch": 48,
                "velocity": 64,
                "duration": 0.15227272727272734,
                "tempo": 120.0
            },
            {
                "start_time": 7.343181818181818,
                "end_time": 7.493181818181818,
                "pitch": 45,
                "velocity": 64,
                "duration": 0.15000000000000036,
                "tempo": 120.0
            },
            {
                "start_time": 7.511363636363636,
                "end_time": 7.836363636363636,
                "pitch": 53,
                "velocity": 64,
                "duration": 0.3250000000000002,
                "tempo": 120.0
            },
            {
                "start_time": 7.8545454545454545,
                "end_time": 8.172727272727272,
                "pitch": 52,
                "velocity": 64,
                "duration": 0.31818181818181746,
                "tempo": 120.0
            },
            {
                "start_time": 8.188636363636363,
                "end_time": 8.34090909090909,
                "pitch": 45,
                "velocity": 64,
                "duration": 0.15227272727272734,
                "tempo": 120.0
            },
            {
                "start_time": 8.35681818181818,
                "end_time": 8.506818181818181,
                "pitch": 45,
                "velocity": 64,
                "duration": 0.15000000000000036,
                "tempo": 120.0
            },
            {
                "start_time": 8.525,
                "end_time": 8.679545454545455,
                "pitch": 48,
                "velocity": 64,
                "duration": 0.15454545454545432,
                "tempo": 120.0
            },
            {
                "start_time": 8.695454545454545,
                "end_time": 8.852272727272727,
                "pitch": 45,
                "velocity": 64,
                "duration": 0.1568181818181813,
                "tempo": 120.0
            },
            {
                "start_time": 8.868181818181817,
                "end_time": 9.020454545454545,
                "pitch": 51,
                "velocity": 64,
                "duration": 0.15227272727272734,
                "tempo": 120.0
            },
            {
                "start_time": 9.036363636363635,
                "end_time": 9.186363636363636,
                "pitch": 50,
                "velocity": 64,
                "duration": 0.15000000000000036,
                "tempo": 120.0
            },
            {
                "start_time": 9.204545454545453,
                "end_time": 9.354545454545454,
                "pitch": 48,
                "velocity": 64,
                "duration": 0.15000000000000036,
                "tempo": 120.0
            },
            {
                "start_time": 9.370454545454544,
                "end_time": 9.688636363636363,
                "pitch": 45,
                "velocity": 64,
                "duration": 0.31818181818181834,
                "tempo": 120.0
            },
            {
                "start_time": 9.706818181818182,
                "end_time": 9.85681818181818,
                "pitch": 45,
                "velocity": 64,
                "duration": 0.14999999999999858,
                "tempo": 120.0
            },
            {
                "start_time": 9.872727272727273,
                "end_time": 10.029545454545454,
                "pitch": 48,
                "velocity": 64,
                "duration": 0.1568181818181813,
                "tempo": 120.0
            },
            {
                "start_time": 10.045454545454545,
                "end_time": 10.2,
                "pitch": 45,
                "velocity": 64,
                "duration": 0.15454545454545432,
                "tempo": 120.0
            },
            {
                "start_time": 10.218181818181817,
                "end_time": 10.536363636363635,
                "pitch": 43,
                "velocity": 64,
                "duration": 0.31818181818181834,
                "tempo": 120.0
            },
            {
                "start_time": 10.552272727272726,
                "end_time": 10.879545454545454,
                "pitch": 44,
                "velocity": 64,
                "duration": 0.32727272727272805,
                "tempo": 120.0
            },
            {
                "start_time": 10.897727272727272,
                "end_time": 11.047727272727272,
                "pitch": 45,
                "velocity": 64,
                "duration": 0.15000000000000036,
                "tempo": 120.0
            },
            {
                "start_time": 11.063636363636363,
                "end_time": 11.21590909090909,
                "pitch": 45,
                "velocity": 64,
                "duration": 0.15227272727272734,
                "tempo": 120.0
            },
            {
                "start_time": 11.23181818181818,
                "end_time": 11.381818181818181,
                "pitch": 48,
                "velocity": 64,
                "duration": 0.15000000000000036,
                "tempo": 120.0
            },
            {
                "start_time": 11.399999999999999,
                "end_time": 11.549999999999999,
                "pitch": 45,
                "velocity": 64,
                "duration": 0.15000000000000036,
                "tempo": 120.0
            },
            {
                "start_time": 11.56590909090909,
                "end_time": 11.718181818181817,
                "pitch": 51,
                "velocity": 64,
                "duration": 0.15227272727272734,
                "tempo": 120.0
            },
            {
                "start_time": 11.73409090909091,
                "end_time": 11.884090909090908,
                "pitch": 50,
                "velocity": 64,
                "duration": 0.14999999999999858,
                "tempo": 120.0
            },
            {
                "start_time": 11.902272727272727,
                "end_time": 12.056818181818182,
                "pitch": 48,
                "velocity": 64,
                "duration": 0.15454545454545432,
                "tempo": 120.0
            },
            {
                "start_time": 12.075,
                "end_time": 12.397727272727272,
                "pitch": 45,
                "velocity": 64,
                "duration": 0.3227272727272723,
                "tempo": 120.0
            },
            {
                "start_time": 12.413636363636362,
                "end_time": 12.563636363636363,
                "pitch": 45,
                "velocity": 64,
                "duration": 0.15000000000000036,
                "tempo": 120.0
            },
            {
                "start_time": 12.581818181818182,
                "end_time": 12.736363636363636,
                "pitch": 48,
                "velocity": 64,
                "duration": 0.15454545454545432,
                "tempo": 120.0
            },
            {
                "start_time": 12.752272727272727,
                "end_time": 12.909090909090908,
                "pitch": 45,
                "velocity": 64,
                "duration": 0.1568181818181813,
                "tempo": 120.0
            },
            {
                "start_time": 12.924999999999999,
                "end_time": 13.243181818181817,
                "pitch": 53,
                "velocity": 64,
                "duration": 0.31818181818181834,
                "tempo": 120.0
            },
            {
                "start_time": 13.261363636363635,
                "end_time": 13.579545454545453,
                "pitch": 52,
                "velocity": 64,
                "duration": 0.31818181818181834,
                "tempo": 120.0
            },
            {
                "start_time": 13.595454545454546,
                "end_time": 13.745454545454544,
                "pitch": 45,
                "velocity": 64,
                "duration": 0.14999999999999858,
                "tempo": 120.0
            },
            {
                "start_time": 13.763636363636364,
                "end_time": 13.913636363636362,
                "pitch": 45,
                "velocity": 64,
                "duration": 0.14999999999999858,
                "tempo": 120.0
            },
            {
                "start_time": 13.929545454545455,
                "end_time": 14.084090909090909,
                "pitch": 48,
                "velocity": 64,
                "duration": 0.15454545454545432,
                "tempo": 120.0
            },
            {
                "start_time": 14.102272727272727,
                "end_time": 14.256818181818181,
                "pitch": 45,
                "velocity": 64,
                "duration": 0.15454545454545432,
                "tempo": 120.0
            },
            {
                "start_time": 14.274999999999999,
                "end_time": 14.424999999999999,
                "pitch": 51,
                "velocity": 64,
                "duration": 0.15000000000000036,
                "tempo": 120.0
            },
            {
                "start_time": 14.44090909090909,
                "end_time": 14.593181818181817,
                "pitch": 50,
                "velocity": 64,
                "duration": 0.15227272727272734,
                "tempo": 120.0
            },
            {
                "start_time": 14.609090909090908,
                "end_time": 14.763636363636364,
                "pitch": 48,
                "velocity": 64,
                "duration": 0.1545454545454561,
                "tempo": 120.0
            },
            {
                "start_time": 14.781818181818181,
                "end_time": 15.104545454545454,
                "pitch": 45,
                "velocity": 64,
                "duration": 0.3227272727272723,
                "tempo": 120.0
            },
            {
                "start_time": 15.120454545454544,
                "end_time": 15.272727272727272,
                "pitch": 45,
                "velocity": 64,
                "duration": 0.15227272727272734,
                "tempo": 120.0
            },
            {
                "start_time": 15.288636363636362,
                "end_time": 15.438636363636363,
                "pitch": 48,
                "velocity": 64,
                "duration": 0.15000000000000036,
                "tempo": 120.0
            },
            {
                "start_time": 15.45681818181818,
                "end_time": 15.60681818181818,
                "pitch": 45,
                "velocity": 64,
                "duration": 0.15000000000000036,
                "tempo": 120.0
            },
            {
                "start_time": 15.622727272727271,
                "end_time": 15.94090909090909,
                "pitch": 43,
                "velocity": 64,
                "duration": 0.31818181818181834,
                "tempo": 120.0
            },
            {
                "start_time": 15.959090909090909,
                "end_time": 16.286363636363635,
                "pitch": 44,
                "velocity": 64,
                "duration": 0.32727272727272627,
                "tempo": 120.0
            },
            {
                "start_time": 16.302272727272726,
                "end_time": 16.454545454545453,
                "pitch": 45,
                "velocity": 64,
                "duration": 0.15227272727272734,
                "tempo": 120.0
            },
            {
                "start_time": 16.470454545454544,
                "end_time": 16.620454545454546,
                "pitch": 45,
                "velocity": 64,
                "duration": 0.15000000000000213,
                "tempo": 120.0
            },
            {
                "start_time": 16.638636363636362,
                "end_time": 16.793181818181818,
                "pitch": 48,
                "velocity": 64,
                "duration": 0.1545454545454561,
                "tempo": 120.0
            },
            {
                "start_time": 16.80909090909091,
                "end_time": 16.96363636363636,
                "pitch": 45,
                "velocity": 64,
                "duration": 0.15454545454545254,
                "tempo": 120.0
            },
            {
                "start_time": 16.98181818181818,
                "end_time": 17.131818181818183,
                "pitch": 51,
                "velocity": 64,
                "duration": 0.15000000000000213,
                "tempo": 120.0
            },
            {
                "start_time": 17.15,
                "end_time": 17.3,
                "pitch": 50,
                "velocity": 64,
                "duration": 0.15000000000000213,
                "tempo": 120.0
            },
            {
                "start_time": 17.31590909090909,
                "end_time": 17.472727272727273,
                "pitch": 48,
                "velocity": 64,
                "duration": 0.1568181818181813,
                "tempo": 120.0
            },
            {
                "start_time": 17.488636363636363,
                "end_time": 17.80681818181818,
                "pitch": 45,
                "velocity": 64,
                "duration": 0.31818181818181657,
                "tempo": 120.0
            },
            {
                "start_time": 17.82272727272727,
                "end_time": 17.96818181818182,
                "pitch": 45,
                "velocity": 64,
                "duration": 0.14545454545454817,
                "tempo": 120.0
            },
            {
                "start_time": 17.98409090909091,
                "end_time": 18.14090909090909,
                "pitch": 48,
                "velocity": 64,
                "duration": 0.1568181818181813,
                "tempo": 120.0
            },
            {
                "start_time": 18.15681818181818,
                "end_time": 18.311363636363634,
                "pitch": 45,
                "velocity": 64,
                "duration": 0.15454545454545254,
                "tempo": 120.0
            },
            {
                "start_time": 18.329545454545453,
                "end_time": 18.647727272727273,
                "pitch": 53,
                "velocity": 64,
                "duration": 0.3181818181818201,
                "tempo": 120.0
            },
            {
                "start_time": 18.663636363636364,
                "end_time": 18.99090909090909,
                "pitch": 52,
                "velocity": 64,
                "duration": 0.3272727272727245,
                "tempo": 120.0
            },
            {
                "start_time": 19.009090909090908,
                "end_time": 19.159090909090907,
                "pitch": 45,
                "velocity": 64,
                "duration": 0.14999999999999858,
                "tempo": 120.0
            },
            {
                "start_time": 19.175,
                "end_time": 19.327272727272728,
                "pitch": 45,
                "velocity": 64,
                "duration": 0.15227272727272734,
                "tempo": 120.0
            },
            {
                "start_time": 19.34318181818182,
                "end_time": 19.493181818181817,
                "pitch": 48,
                "velocity": 64,
                "duration": 0.14999999999999858,
                "tempo": 120.0
            },
            {
                "start_time": 19.511363636363637,
                "end_time": 19.661363636363635,
                "pitch": 45,
                "velocity": 64,
                "duration": 0.14999999999999858,
                "tempo": 120.0
            },
            {
                "start_time": 19.677272727272726,
                "end_time": 19.829545454545453,
                "pitch": 51,
                "velocity": 64,
                "duration": 0.15227272727272734,
                "tempo": 120.0
            },
            {
                "start_time": 19.845454545454544,
                "end_time": 19.995454545454546,
                "pitch": 50,
                "velocity": 64,
                "duration": 0.15000000000000213,
                "tempo": 120.0
            },
            {
                "start_time": 20.013636363636362,
                "end_time": 20.168181818181818,
                "pitch": 48,
                "velocity": 64,
                "duration": 0.1545454545454561,
                "tempo": 120.0
            },
            {
                "start_time": 20.186363636363634,
                "end_time": 20.509090909090908,
                "pitch": 45,
                "velocity": 64,
                "duration": 0.3227272727272741,
                "tempo": 120.0
            },
            {
                "start_time": 20.525,
                "end_time": 20.675,
                "pitch": 45,
                "velocity": 64,
                "duration": 0.15000000000000213,
                "tempo": 120.0
            },
            {
                "start_time": 20.693181818181817,
                "end_time": 20.847727272727273,
                "pitch": 48,
                "velocity": 64,
                "duration": 0.1545454545454561,
                "tempo": 120.0
            },
            {
                "start_time": 20.863636363636363,
                "end_time": 21.020454545454545,
                "pitch": 45,
                "velocity": 64,
                "duration": 0.1568181818181813,
                "tempo": 120.0
            },
            {
                "start_time": 21.036363636363635,
                "end_time": 21.34318181818182,
                "pitch": 43,
                "velocity": 64,
                "duration": 0.30681818181818343,
                "tempo": 120.0
            },
            {
                "start_time": 21.361363636363635,
                "end_time": 21.688636363636363,
                "pitch": 44,
                "velocity": 64,
                "duration": 0.32727272727272805,
                "tempo": 120.0
            },
            {
                "start_time": 21.704545454545453,
                "end_time": 21.854545454545452,
                "pitch": 45,
                "velocity": 64,
                "duration": 0.14999999999999858,
                "tempo": 120.0
            },
            {
                "start_time": 21.87272727272727,
                "end_time": 22.022727272727273,
                "pitch": 53,
                "velocity": 64,
                "duration": 0.15000000000000213,
                "tempo": 120.0
            },
            {
                "start_time": 22.038636363636364,
                "end_time": 22.19090909090909,
                "pitch": 57,
                "velocity": 64,
                "duration": 0.15227272727272734,
                "tempo": 120.0
            },
            {
                "start_time": 22.206818181818182,
                "end_time": 22.35681818181818,
                "pitch": 57,
                "velocity": 64,
                "duration": 0.14999999999999858,
                "tempo": 120.0
            },
            {
                "start_time": 22.69772727272727,
                "end_time": 22.85681818181818,
                "pitch": 45,
                "velocity": 64,
                "duration": 0.15909090909091006,
                "tempo": 120.0
            },
            {
                "start_time": 22.875,
                "end_time": 23.034090909090907,
                "pitch": 52,
                "velocity": 64,
                "duration": 0.1590909090909065,
                "tempo": 120.0
            },
            {
                "start_time": 23.052272727272726,
                "end_time": 23.202272727272724,
                "pitch": 56,
                "velocity": 64,
                "duration": 0.14999999999999858,
                "tempo": 120.0
            },
            {
                "start_time": 23.220454545454544,
                "end_time": 23.370454545454546,
                "pitch": 56,
                "velocity": 64,
                "duration": 0.15000000000000213,
                "tempo": 120.0
            },
            {
                "start_time": 24.06590909090909,
                "end_time": 24.21818181818182,
                "pitch": 45,
                "velocity": 64,
                "duration": 0.15227272727272734,
                "tempo": 120.0
            },
            {
                "start_time": 24.23409090909091,
                "end_time": 24.384090909090908,
                "pitch": 53,
                "velocity": 64,
                "duration": 0.14999999999999858,
                "tempo": 120.0
            },
            {
                "start_time": 24.402272727272727,
                "end_time": 24.552272727272726,
                "pitch": 57,
                "velocity": 64,
                "duration": 0.14999999999999858,
                "tempo": 120.0
            },
            {
                "start_time": 24.568181818181817,
                "end_time": 24.720454545454544,
                "pitch": 57,
                "velocity": 64,
                "duration": 0.15227272727272734,
                "tempo": 120.0
            },
            {
                "start_time": 25.07272727272727,
                "end_time": 25.227272727272727,
                "pitch": 45,
                "velocity": 64,
                "duration": 0.1545454545454561,
                "tempo": 120.0
            },
            {
                "start_time": 25.243181818181817,
                "end_time": 25.39772727272727,
                "pitch": 52,
                "velocity": 64,
                "duration": 0.15454545454545254,
                "tempo": 120.0
            },
            {
                "start_time": 25.41590909090909,
                "end_time": 25.570454545454545,
                "pitch": 56,
                "velocity": 64,
                "duration": 0.1545454545454561,
                "tempo": 120.0
            },
            {
                "start_time": 25.58863636363636,
                "end_time": 25.743181818181817,
                "pitch": 56,
                "velocity": 64,
                "duration": 0.1545454545454561,
                "tempo": 120.0
            },
            {
                "start_time": 26.427272727272726,
                "end_time": 26.579545454545453,
                "pitch": 48,
                "velocity": 64,
                "duration": 0.15227272727272734,
                "tempo": 120.0
            },
            {
                "start_time": 26.595454545454544,
                "end_time": 26.745454545454542,
                "pitch": 56,
                "velocity": 64,
                "duration": 0.14999999999999858,
                "tempo": 120.0
            },
            {
                "start_time": 26.763636363636362,
                "end_time": 26.918181818181818,
                "pitch": 60,
                "velocity": 64,
                "duration": 0.1545454545454561,
                "tempo": 120.0
            },
            {
                "start_time": 26.936363636363634,
                "end_time": 27.09090909090909,
                "pitch": 60,
                "velocity": 64,
                "duration": 0.1545454545454561,
                "tempo": 120.0
            },
            {
                "start_time": 27.43181818181818,
                "end_time": 27.59090909090909,
                "pitch": 48,
                "velocity": 64,
                "duration": 0.15909090909091006,
                "tempo": 120.0
            },
            {
                "start_time": 27.60909090909091,
                "end_time": 27.768181818181816,
                "pitch": 57,
                "velocity": 64,
                "duration": 0.1590909090909065,
                "tempo": 120.0
            },
            {
                "start_time": 27.784090909090907,
                "end_time": 27.936363636363634,
                "pitch": 59,
                "velocity": 64,
                "duration": 0.15227272727272734,
                "tempo": 120.0
            },
            {
                "start_time": 27.952272727272724,
                "end_time": 28.102272727272727,
                "pitch": 59,
                "velocity": 64,
                "duration": 0.15000000000000213,
                "tempo": 120.0
            },
            {
                "start_time": 28.799999999999997,
                "end_time": 28.95,
                "pitch": 48,
                "velocity": 64,
                "duration": 0.15000000000000213,
                "tempo": 120.0
            },
            {
                "start_time": 28.96590909090909,
                "end_time": 29.118181818181817,
                "pitch": 56,
                "velocity": 64,
                "duration": 0.15227272727272734,
                "tempo": 120.0
            },
            {
                "start_time": 29.134090909090908,
                "end_time": 29.284090909090907,
                "pitch": 60,
                "velocity": 64,
                "duration": 0.14999999999999858,
                "tempo": 120.0
            },
            {
                "start_time": 29.302272727272726,
                "end_time": 29.452272727272724,
                "pitch": 60,
                "velocity": 64,
                "duration": 0.14999999999999858,
                "tempo": 120.0
            },
            {
                "start_time": 29.804545454545455,
                "end_time": 29.959090909090907,
                "pitch": 48,
                "velocity": 64,
                "duration": 0.15454545454545254,
                "tempo": 120.0
            },
            {
                "start_time": 29.977272727272727,
                "end_time": 30.13181818181818,
                "pitch": 57,
                "velocity": 64,
                "duration": 0.15454545454545254,
                "tempo": 120.0
            },
            {
                "start_time": 30.14772727272727,
                "end_time": 30.304545454545455,
                "pitch": 59,
                "velocity": 64,
                "duration": 0.15681818181818485,
                "tempo": 120.0
            },
            {
                "start_time": 30.320454545454545,
                "end_time": 30.474999999999998,
                "pitch": 59,
                "velocity": 64,
                "duration": 0.15454545454545254,
                "tempo": 120.0
            },
            {
                "start_time": 31.161363636363635,
                "end_time": 31.311363636363634,
                "pitch": 45,
                "velocity": 64,
                "duration": 0.14999999999999858,
                "tempo": 120.0
            },
            {
                "start_time": 31.329545454545453,
                "end_time": 31.479545454545452,
                "pitch": 53,
                "velocity": 64,
                "duration": 0.14999999999999858,
                "tempo": 120.0
            },
            {
                "start_time": 31.495454545454542,
                "end_time": 31.64772727272727,
                "pitch": 57,
                "velocity": 64,
                "duration": 0.15227272727272734,
                "tempo": 120.0
            },
            {
                "start_time": 31.66363636363636,
                "end_time": 31.813636363636363,
                "pitch": 57,
                "velocity": 64,
                "duration": 0.15000000000000213,
                "tempo": 120.0
            },
            {
                "start_time": 32.16590909090909,
                "end_time": 32.320454545454545,
                "pitch": 45,
                "velocity": 64,
                "duration": 0.1545454545454561,
                "tempo": 120.0
            },
            {
                "start_time": 32.33863636363636,
                "end_time": 32.49318181818182,
                "pitch": 52,
                "velocity": 64,
                "duration": 0.1545454545454561,
                "tempo": 120.0
            },
            {
                "start_time": 32.51136363636363,
                "end_time": 32.66590909090909,
                "pitch": 56,
                "velocity": 64,
                "duration": 0.1545454545454561,
                "tempo": 120.0
            },
            {
                "start_time": 32.68181818181818,
                "end_time": 32.83863636363636,
                "pitch": 56,
                "velocity": 64,
                "duration": 0.1568181818181813,
                "tempo": 120.0
            },
            {
                "start_time": 33.52272727272727,
                "end_time": 33.67272727272727,
                "pitch": 45,
                "velocity": 64,
                "duration": 0.14999999999999858,
                "tempo": 120.0
            },
            {
                "start_time": 33.69090909090909,
                "end_time": 33.840909090909086,
                "pitch": 53,
                "velocity": 64,
                "duration": 0.14999999999999858,
                "tempo": 120.0
            },
            {
                "start_time": 33.85681818181818,
                "end_time": 34.00909090909091,
                "pitch": 57,
                "velocity": 64,
                "duration": 0.1522727272727309,
                "tempo": 120.0
            },
            {
                "start_time": 34.025,
                "end_time": 34.175,
                "pitch": 57,
                "velocity": 64,
                "duration": 0.14999999999999858,
                "tempo": 120.0
            },
            {
                "start_time": 34.527272727272724,
                "end_time": 34.68636363636364,
                "pitch": 45,
                "velocity": 64,
                "duration": 0.1590909090909136,
                "tempo": 120.0
            },
            {
                "start_time": 34.70454545454545,
                "end_time": 34.86363636363636,
                "pitch": 52,
                "velocity": 64,
                "duration": 0.1590909090909065,
                "tempo": 120.0
            },
            {
                "start_time": 34.88181818181818,
                "end_time": 35.03181818181818,
                "pitch": 56,
                "velocity": 64,
                "duration": 0.14999999999999858,
                "tempo": 120.0
            },
            {
                "start_time": 35.05,
                "end_time": 35.199999999999996,
                "pitch": 56,
                "velocity": 64,
                "duration": 0.14999999999999858,
                "tempo": 120.0
            },
            {
                "start_time": 35.89545454545454,
                "end_time": 36.04545454545455,
                "pitch": 48,
                "velocity": 64,
                "duration": 0.15000000000000568,
                "tempo": 120.0
            },
            {
                "start_time": 36.06363636363636,
                "end_time": 36.21363636363636,
                "pitch": 56,
                "velocity": 64,
                "duration": 0.14999999999999858,
                "tempo": 120.0
            },
            {
                "start_time": 36.23181818181818,
                "end_time": 36.38181818181818,
                "pitch": 60,
                "velocity": 64,
                "duration": 0.15000000000000568,
                "tempo": 120.0
            },
            {
                "start_time": 36.39772727272727,
                "end_time": 36.55,
                "pitch": 60,
                "velocity": 64,
                "duration": 0.15227272727272378,
                "tempo": 120.0
            },
            {
                "start_time": 36.9,
                "end_time": 37.054545454545455,
                "pitch": 48,
                "velocity": 64,
                "duration": 0.1545454545454561,
                "tempo": 120.0
            },
            {
                "start_time": 37.07272727272727,
                "end_time": 37.22727272727273,
                "pitch": 57,
                "velocity": 64,
                "duration": 0.1545454545454561,
                "tempo": 120.0
            },
            {
                "start_time": 37.24545454545454,
                "end_time": 37.4,
                "pitch": 59,
                "velocity": 64,
                "duration": 0.1545454545454561,
                "tempo": 120.0
            },
            {
                "start_time": 37.418181818181814,
                "end_time": 37.57272727272727,
                "pitch": 59,
                "velocity": 64,
                "duration": 0.1545454545454561,
                "tempo": 120.0
            },
            {
                "start_time": 38.25681818181818,
                "end_time": 38.40909090909091,
                "pitch": 48,
                "velocity": 64,
                "duration": 0.15227272727272378,
                "tempo": 120.0
            },
            {
                "start_time": 38.425,
                "end_time": 38.574999999999996,
                "pitch": 56,
                "velocity": 64,
                "duration": 0.14999999999999858,
                "tempo": 120.0
            },
            {
                "start_time": 38.59318181818182,
                "end_time": 38.74318181818182,
                "pitch": 60,
                "velocity": 64,
                "duration": 0.14999999999999858,
                "tempo": 120.0
            },
            {
                "start_time": 38.75909090909091,
                "end_time": 38.91136363636363,
                "pitch": 60,
                "velocity": 64,
                "duration": 0.15227272727272378,
                "tempo": 120.0
            },
            {
                "start_time": 39.26136363636363,
                "end_time": 39.418181818181814,
                "pitch": 48,
                "velocity": 64,
                "duration": 0.1568181818181813,
                "tempo": 120.0
            },
            {
                "start_time": 39.434090909090905,
                "end_time": 39.58863636363636,
                "pitch": 57,
                "velocity": 64,
                "duration": 0.1545454545454561,
                "tempo": 120.0
            },
            {
                "start_time": 39.60681818181818,
                "end_time": 39.76136363636363,
                "pitch": 59,
                "velocity": 64,
                "duration": 0.1545454545454561,
                "tempo": 120.0
            },
            {
                "start_time": 39.779545454545456,
                "end_time": 39.934090909090905,
                "pitch": 59,
                "velocity": 64,
                "duration": 0.154545454545449,
                "tempo": 120.0
            }
        ],
        "Flute": [
            {
                "start_time": 0.0,
                "end_time": 0.16136363636363635,
                "pitch": 45,
                "velocity": 64,
                "duration": 0.16136363636363635,
                "tempo": 120.0
            },
            {
                "start_time": 0.18181818181818182,
                "end_time": 0.36363636363636365,
                "pitch": 45,
                "velocity": 64,
                "duration": 0.18181818181818182,
                "tempo": 120.0
            },
            {
                "start_time": 0.3840909090909091,
                "end_time": 0.5363636363636364,
                "pitch": 48,
                "velocity": 64,
                "duration": 0.15227272727272728,
                "tempo": 120.0
            },
            {
                "start_time": 0.5522727272727272,
                "end_time": 0.7022727272727273,
                "pitch": 45,
                "velocity": 64,
                "duration": 0.15000000000000002,
                "tempo": 120.0
            },
            {
                "start_time": 0.7204545454545455,
                "end_time": 0.8704545454545454,
                "pitch": 51,
                "velocity": 64,
                "duration": 0.1499999999999999,
                "tempo": 120.0
            },
            {
                "start_time": 0.8863636363636364,
                "end_time": 1.0386363636363636,
                "pitch": 50,
                "velocity": 64,
                "duration": 0.15227272727272723,
                "tempo": 120.0
            },
            {
                "start_time": 1.0545454545454545,
                "end_time": 1.2272727272727273,
                "pitch": 48,
                "velocity": 64,
                "duration": 0.17272727272727284,
                "tempo": 120.0
            },
            {
                "start_time": 1.2431818181818182,
                "end_time": 1.5704545454545453,
                "pitch": 45,
                "velocity": 64,
                "duration": 0.32727272727272716,
                "tempo": 120.0
            },
            {
                "start_time": 1.5886363636363636,
                "end_time": 1.7431818181818182,
                "pitch": 45,
                "velocity": 64,
                "duration": 0.15454545454545454,
                "tempo": 120.0
            },
            {
                "start_time": 1.7613636363636362,
                "end_time": 1.9159090909090908,
                "pitch": 48,
                "velocity": 64,
                "duration": 0.15454545454545454,
                "tempo": 120.0
            },
            {
                "start_time": 1.9318181818181817,
                "end_time": 2.0886363636363634,
                "pitch": 45,
                "velocity": 64,
                "duration": 0.15681818181818175,
                "tempo": 120.0
            },
            {
                "start_time": 2.1045454545454545,
                "end_time": 2.4227272727272724,
                "pitch": 69,
                "velocity": 64,
                "duration": 0.3181818181818179,
                "tempo": 120.0
            },
            {
                "start_time": 2.4386363636363635,
                "end_time": 2.7659090909090907,
                "pitch": 68,
                "velocity": 64,
                "duration": 0.32727272727272716,
                "tempo": 120.0
            },
            {
                "start_time": 2.784090909090909,
                "end_time": 2.934090909090909,
                "pitch": 45,
                "velocity": 64,
                "duration": 0.1499999999999999,
                "tempo": 120.0
            },
            {
                "start_time": 2.952272727272727,
                "end_time": 3.102272727272727,
                "pitch": 45,
                "velocity": 64,
                "duration": 0.1499999999999999,
                "tempo": 120.0
            },
            {
                "start_time": 3.118181818181818,
                "end_time": 3.2704545454545455,
                "pitch": 48,
                "velocity": 64,
                "duration": 0.15227272727272734,
                "tempo": 120.0
            },
            {
                "start_time": 3.286363636363636,
                "end_time": 3.436363636363636,
                "pitch": 45,
                "velocity": 64,
                "duration": 0.1499999999999999,
                "tempo": 120.0
            },
            {
                "start_time": 3.4545454545454546,
                "end_time": 3.6045454545454545,
                "pitch": 51,
                "velocity": 64,
                "duration": 0.1499999999999999,
                "tempo": 120.0
            },
            {
                "start_time": 3.620454545454545,
                "end_time": 3.7727272727272725,
                "pitch": 50,
                "velocity": 64,
                "duration": 0.15227272727272734,
                "tempo": 120.0
            },
            {
                "start_time": 3.7886363636363636,
                "end_time": 3.943181818181818,
                "pitch": 48,
                "velocity": 64,
                "duration": 0.15454545454545432,
                "tempo": 120.0
            },
            {
                "start_time": 3.961363636363636,
                "end_time": 4.284090909090909,
                "pitch": 45,
                "velocity": 64,
                "duration": 0.3227272727272732,
                "tempo": 120.0
            },
            {
                "start_time": 4.3,
                "end_time": 4.452272727272727,
                "pitch": 45,
                "velocity": 64,
                "duration": 0.15227272727272734,
                "tempo": 120.0
            },
            {
                "start_time": 4.468181818181818,
                "end_time": 4.622727272727272,
                "pitch": 48,
                "velocity": 64,
                "duration": 0.15454545454545432,
                "tempo": 120.0
            },
            {
                "start_time": 4.640909090909091,
                "end_time": 4.795454545454545,
                "pitch": 45,
                "velocity": 64,
                "duration": 0.15454545454545432,
                "tempo": 120.0
            },
            {
                "start_time": 4.8113636363636365,
                "end_time": 5.129545454545454,
                "pitch": 60,
                "velocity": 64,
                "duration": 0.31818181818181746,
                "tempo": 120.0
            },
            {
                "start_time": 5.1477272727272725,
                "end_time": 5.465909090909091,
                "pitch": 61,
                "velocity": 64,
                "duration": 0.31818181818181834,
                "tempo": 120.0
            },
            {
                "start_time": 5.4818181818181815,
                "end_time": 5.636363636363636,
                "pitch": 45,
                "velocity": 64,
                "duration": 0.15454545454545432,
                "tempo": 120.0
            },
            {
                "start_time": 5.654545454545454,
                "end_time": 5.809090909090909,
                "pitch": 45,
                "velocity": 64,
                "duration": 0.15454545454545432,
                "tempo": 120.0
            },
            {
                "start_time": 5.827272727272727,
                "end_time": 5.977272727272727,
                "pitch": 48,
                "velocity": 64,
                "duration": 0.14999999999999947,
                "tempo": 120.0
            },
            {
                "start_time": 5.993181818181818,
                "end_time": 6.1454545454545455,
                "pitch": 45,
                "velocity": 64,
                "duration": 0.15227272727272734,
                "tempo": 120.0
            },
            {
                "start_time": 6.161363636363636,
                "end_time": 6.311363636363636,
                "pitch": 51,
                "velocity": 64,
                "duration": 0.14999999999999947,
                "tempo": 120.0
            },
            {
                "start_time": 6.329545454545454,
                "end_time": 6.4795454545454545,
                "pitch": 50,
                "velocity": 64,
                "duration": 0.15000000000000036,
                "tempo": 120.0
            },
            {
                "start_time": 6.495454545454545,
                "end_time": 6.6499999999999995,
                "pitch": 48,
                "velocity": 64,
                "duration": 0.15454545454545432,
                "tempo": 120.0
            },
            {
                "start_time": 6.668181818181818,
                "end_time": 6.99090909090909,
                "pitch": 45,
                "velocity": 64,
                "duration": 0.3227272727272723,
                "tempo": 120.0
            },
            {
                "start_time": 7.009090909090909,
                "end_time": 7.159090909090909,
                "pitch": 45,
                "velocity": 64,
                "duration": 0.15000000000000036,
                "tempo": 120.0
            },
            {
                "start_time": 7.175,
                "end_time": 7.327272727272727,
                "pitch": 48,
                "velocity": 64,
                "duration": 0.15227272727272734,
                "tempo": 120.0
            },
            {
                "start_time": 7.343181818181818,
                "end_time": 7.493181818181818,
                "pitch": 45,
                "velocity": 64,
                "duration": 0.15000000000000036,
                "tempo": 120.0
            },
            {
                "start_time": 7.511363636363636,
                "end_time": 7.836363636363636,
                "pitch": 69,
                "velocity": 64,
                "duration": 0.3250000000000002,
                "tempo": 120.0
            },
            {
                "start_time": 7.8545454545454545,
                "end_time": 8.172727272727272,
                "pitch": 68,
                "velocity": 64,
                "duration": 0.31818181818181746,
                "tempo": 120.0
            },
            {
                "start_time": 8.188636363636363,
                "end_time": 8.34090909090909,
                "pitch": 45,
                "velocity": 64,
                "duration": 0.15227272727272734,
                "tempo": 120.0
            },
            {
                "start_time": 8.35681818181818,
                "end_time": 8.506818181818181,
                "pitch": 45,
                "velocity": 64,
                "duration": 0.15000000000000036,
                "tempo": 120.0
            },
            {
                "start_time": 8.525,
                "end_time": 8.679545454545455,
                "pitch": 48,
                "velocity": 64,
                "duration": 0.15454545454545432,
                "tempo": 120.0
            },
            {
                "start_time": 8.695454545454545,
                "end_time": 8.852272727272727,
                "pitch": 45,
                "velocity": 64,
                "duration": 0.1568181818181813,
                "tempo": 120.0
            },
            {
                "start_time": 8.868181818181817,
                "end_time": 9.020454545454545,
                "pitch": 51,
                "velocity": 64,
                "duration": 0.15227272727272734,
                "tempo": 120.0
            },
            {
                "start_time": 9.036363636363635,
                "end_time": 9.186363636363636,
                "pitch": 50,
                "velocity": 64,
                "duration": 0.15000000000000036,
                "tempo": 120.0
            },
            {
                "start_time": 9.204545454545453,
                "end_time": 9.354545454545454,
                "pitch": 48,
                "velocity": 64,
                "duration": 0.15000000000000036,
                "tempo": 120.0
            },
            {
                "start_time": 9.370454545454544,
                "end_time": 9.688636363636363,
                "pitch": 45,
                "velocity": 64,
                "duration": 0.31818181818181834,
                "tempo": 120.0
            },
            {
                "start_time": 9.706818181818182,
                "end_time": 9.85681818181818,
                "pitch": 45,
                "velocity": 64,
                "duration": 0.14999999999999858,
                "tempo": 120.0
            },
            {
                "start_time": 9.872727272727273,
                "end_time": 10.029545454545454,
                "pitch": 48,
                "velocity": 64,
                "duration": 0.1568181818181813,
                "tempo": 120.0
            },
            {
                "start_time": 10.045454545454545,
                "end_time": 10.2,
                "pitch": 45,
                "velocity": 64,
                "duration": 0.15454545454545432,
                "tempo": 120.0
            },
            {
                "start_time": 10.218181818181817,
                "end_time": 10.536363636363635,
                "pitch": 60,
                "velocity": 64,
                "duration": 0.31818181818181834,
                "tempo": 120.0
            },
            {
                "start_time": 10.552272727272726,
                "end_time": 10.879545454545454,
                "pitch": 61,
                "velocity": 64,
                "duration": 0.32727272727272805,
                "tempo": 120.0
            },
            {
                "start_time": 10.897727272727272,
                "end_time": 11.047727272727272,
                "pitch": 68,
                "velocity": 64,
                "duration": 0.15000000000000036,
                "tempo": 120.0
            },
            {
                "start_time": 11.063636363636363,
                "end_time": 12.229545454545454,
                "pitch": 62,
                "velocity": 64,
                "duration": 1.165909090909091,
                "tempo": 120.0
            },
            {
                "start_time": 12.924999999999999,
                "end_time": 13.243181818181817,
                "pitch": 69,
                "velocity": 64,
                "duration": 0.31818181818181834,
                "tempo": 120.0
            },
            {
                "start_time": 13.261363636363635,
                "end_time": 13.579545454545453,
                "pitch": 68,
                "velocity": 64,
                "duration": 0.31818181818181834,
                "tempo": 120.0
            },
            {
                "start_time": 15.622727272727271,
                "end_time": 15.94090909090909,
                "pitch": 60,
                "velocity": 64,
                "duration": 0.31818181818181834,
                "tempo": 120.0
            },
            {
                "start_time": 15.959090909090909,
                "end_time": 16.286363636363635,
                "pitch": 61,
                "velocity": 64,
                "duration": 0.32727272727272627,
                "tempo": 120.0
            },
            {
                "start_time": 16.302272727272726,
                "end_time": 16.454545454545453,
                "pitch": 68,
                "velocity": 64,
                "duration": 0.15227272727272734,
                "tempo": 120.0
            },
            {
                "start_time": 16.470454545454544,
                "end_time": 17.643181818181816,
                "pitch": 62,
                "velocity": 64,
                "duration": 1.172727272727272,
                "tempo": 120.0
            },
            {
                "start_time": 18.329545454545453,
                "end_time": 18.647727272727273,
                "pitch": 69,
                "velocity": 64,
                "duration": 0.3181818181818201,
                "tempo": 120.0
            },
            {
                "start_time": 18.663636363636364,
                "end_time": 18.99090909090909,
                "pitch": 68,
                "velocity": 64,
                "duration": 0.3272727272727245,
                "tempo": 120.0
            },
            {
                "start_time": 21.036363636363635,
                "end_time": 21.34318181818182,
                "pitch": 60,
                "velocity": 64,
                "duration": 0.30681818181818343,
                "tempo": 120.0
            },
            {
                "start_time": 21.361363636363635,
                "end_time": 21.688636363636363,
                "pitch": 61,
                "velocity": 64,
                "duration": 0.32727272727272805,
                "tempo": 120.0
            },
            {
                "start_time": 22.038636363636364,
                "end_time": 22.19090909090909,
                "pitch": 66,
                "velocity": 64,
                "duration": 0.15227272727272734,
                "tempo": 120.0
            },
            {
                "start_time": 22.206818181818182,
                "end_time": 22.35681818181818,
                "pitch": 66,
                "velocity": 64,
                "duration": 0.14999999999999858,
                "tempo": 120.0
            },
            {
                "start_time": 23.052272727272726,
                "end_time": 23.202272727272724,
                "pitch": 65,
                "velocity": 64,
                "duration": 0.14999999999999858,
                "tempo": 120.0
            },
            {
                "start_time": 23.220454545454544,
                "end_time": 23.370454545454546,
                "pitch": 65,
                "velocity": 64,
                "duration": 0.15000000000000213,
                "tempo": 120.0
            },
            {
                "start_time": 24.402272727272727,
                "end_time": 24.552272727272726,
                "pitch": 66,
                "velocity": 64,
                "duration": 0.14999999999999858,
                "tempo": 120.0
            },
            {
                "start_time": 24.568181818181817,
                "end_time": 24.720454545454544,
                "pitch": 66,
                "velocity": 64,
                "duration": 0.15227272727272734,
                "tempo": 120.0
            },
            {
                "start_time": 25.41590909090909,
                "end_time": 25.570454545454545,
                "pitch": 65,
                "velocity": 64,
                "duration": 0.1545454545454561,
                "tempo": 120.0
            },
            {
                "start_time": 25.58863636363636,
                "end_time": 25.743181818181817,
                "pitch": 65,
                "velocity": 64,
                "duration": 0.1545454545454561,
                "tempo": 120.0
            },
            {
                "start_time": 26.763636363636362,
                "end_time": 26.918181818181818,
                "pitch": 69,
                "velocity": 64,
                "duration": 0.1545454545454561,
                "tempo": 120.0
            },
            {
                "start_time": 26.936363636363634,
                "end_time": 27.09090909090909,
                "pitch": 69,
                "velocity": 64,
                "duration": 0.1545454545454561,
                "tempo": 120.0
            },
            {
                "start_time": 27.784090909090907,
                "end_time": 27.936363636363634,
                "pitch": 68,
                "velocity": 64,
                "duration": 0.15227272727272734,
                "tempo": 120.0
            },
            {
                "start_time": 27.952272727272724,
                "end_time": 28.102272727272727,
                "pitch": 68,
                "velocity": 64,
                "duration": 0.15000000000000213,
                "tempo": 120.0
            },
            {
                "start_time": 29.134090909090908,
                "end_time": 29.284090909090907,
                "pitch": 69,
                "velocity": 64,
                "duration": 0.14999999999999858,
                "tempo": 120.0
            },
            {
                "start_time": 29.302272727272726,
                "end_time": 29.452272727272724,
                "pitch": 69,
                "velocity": 64,
                "duration": 0.14999999999999858,
                "tempo": 120.0
            },
            {
                "start_time": 30.14772727272727,
                "end_time": 30.304545454545455,
                "pitch": 68,
                "velocity": 64,
                "duration": 0.15681818181818485,
                "tempo": 120.0
            },
            {
                "start_time": 30.320454545454545,
                "end_time": 30.474999999999998,
                "pitch": 68,
                "velocity": 64,
                "duration": 0.15454545454545254,
                "tempo": 120.0
            },
            {
                "start_time": 31.495454545454542,
                "end_time": 31.64772727272727,
                "pitch": 66,
                "velocity": 64,
                "duration": 0.15227272727272734,
                "tempo": 120.0
            },
            {
                "start_time": 31.66363636363636,
                "end_time": 31.813636363636363,
                "pitch": 66,
                "velocity": 64,
                "duration": 0.15000000000000213,
                "tempo": 120.0
            },
            {
                "start_time": 32.51136363636363,
                "end_time": 32.66590909090909,
                "pitch": 65,
                "velocity": 64,
                "duration": 0.1545454545454561,
                "tempo": 120.0
            },
            {
                "start_time": 32.68181818181818,
                "end_time": 32.83863636363636,
                "pitch": 65,
                "velocity": 64,
                "duration": 0.1568181818181813,
                "tempo": 120.0
            },
            {
                "start_time": 33.85681818181818,
                "end_time": 34.00909090909091,
                "pitch": 66,
                "velocity": 64,
                "duration": 0.1522727272727309,
                "tempo": 120.0
            },
            {
                "start_time": 34.025,
                "end_time": 34.175,
                "pitch": 66,
                "velocity": 64,
                "duration": 0.14999999999999858,
                "tempo": 120.0
            },
            {
                "start_time": 34.88181818181818,
                "end_time": 35.03181818181818,
                "pitch": 65,
                "velocity": 64,
                "duration": 0.14999999999999858,
                "tempo": 120.0
            },
            {
                "start_time": 35.05,
                "end_time": 35.199999999999996,
                "pitch": 65,
                "velocity": 64,
                "duration": 0.14999999999999858,
                "tempo": 120.0
            },
            {
                "start_time": 36.23181818181818,
                "end_time": 36.38181818181818,
                "pitch": 69,
                "velocity": 64,
                "duration": 0.15000000000000568,
                "tempo": 120.0
            },
            {
                "start_time": 36.39772727272727,
                "end_time": 36.55,
                "pitch": 69,
                "velocity": 64,
                "duration": 0.15227272727272378,
                "tempo": 120.0
            },
            {
                "start_time": 37.24545454545454,
                "end_time": 37.4,
                "pitch": 68,
                "velocity": 64,
                "duration": 0.1545454545454561,
                "tempo": 120.0
            },
            {
                "start_time": 37.418181818181814,
                "end_time": 37.57272727272727,
                "pitch": 68,
                "velocity": 64,
                "duration": 0.1545454545454561,
                "tempo": 120.0
            },
            {
                "start_time": 38.59318181818182,
                "end_time": 38.74318181818182,
                "pitch": 69,
                "velocity": 64,
                "duration": 0.14999999999999858,
                "tempo": 120.0
            },
            {
                "start_time": 38.75909090909091,
                "end_time": 38.91136363636363,
                "pitch": 69,
                "velocity": 64,
                "duration": 0.15227272727272378,
                "tempo": 120.0
            },
            {
                "start_time": 39.60681818181818,
                "end_time": 39.76136363636363,
                "pitch": 68,
                "velocity": 64,
                "duration": 0.1545454545454561,
                "tempo": 120.0
            },
            {
                "start_time": 39.779545454545456,
                "end_time": 39.934090909090905,
                "pitch": 68,
                "velocity": 64,
                "duration": 0.154545454545449,
                "tempo": 120.0
            }
        ]
    }
}