{
    "track_id": "Zillion II (FM) - 02 - Pure Stone",
    "mood": "happy",
    "instruments": {
        "Church Organ": [
            {
                "start_time": 1.2818181818181817,
                "end_time": 1.4022727272727271,
                "pitch": 58,
                "velocity": 80,
                "duration": 0.12045454545454537,
                "tempo": 120.0
            },
            {
                "start_time": 1.4181818181818182,
                "end_time": 1.5363636363636364,
                "pitch": 58,
                "velocity": 80,
                "duration": 0.11818181818181817,
                "tempo": 120.0
            },
            {
                "start_time": 1.5545454545454545,
                "end_time": 1.809090909090909,
                "pitch": 58,
                "velocity": 80,
                "duration": 0.25454545454545463,
                "tempo": 120.0
            },
            {
                "start_time": 1.8272727272727272,
                "end_time": 2.0818181818181816,
                "pitch": 58,
                "velocity": 80,
                "duration": 0.2545454545454544,
                "tempo": 120.0
            },
            {
                "start_time": 2.0977272727272727,
                "end_time": 2.352272727272727,
                "pitch": 58,
                "velocity": 80,
                "duration": 0.2545454545454544,
                "tempo": 120.0
            },
            {
                "start_time": 2.370454545454545,
                "end_time": 2.4863636363636363,
                "pitch": 59,
                "velocity": 80,
                "duration": 0.11590909090909118,
                "tempo": 120.0
            },
            {
                "start_time": 2.5045454545454544,
                "end_time": 3.1545454545454543,
                "pitch": 59,
                "velocity": 80,
                "duration": 0.6499999999999999,
                "tempo": 120.0
            },
            {
                "start_time": 5.586363636363636,
                "end_time": 5.704545454545454,
                "pitch": 58,
                "velocity": 80,
                "duration": 0.11818181818181817,
                "tempo": 120.0
            },
            {
                "start_time": 5.722727272727273,
                "end_time": 5.840909090909091,
                "pitch": 58,
                "velocity": 80,
                "duration": 0.11818181818181817,
                "tempo": 120.0
            },
            {
                "start_time": 5.8590909090909085,
                "end_time": 6.113636363636363,
                "pitch": 61,
                "velocity": 80,
                "duration": 0.25454545454545485,
                "tempo": 120.0
            },
            {
                "start_time": 6.129545454545454,
                "end_time": 6.379545454545454,
                "pitch": 58,
                "velocity": 80,
                "duration": 0.25,
                "tempo": 120.0
            },
            {
                "start_time": 6.3977272727272725,
                "end_time": 6.6477272727272725,
                "pitch": 61,
                "velocity": 80,
                "duration": 0.25,
                "tempo": 120.0
            },
            {
                "start_time": 6.663636363636363,
                "end_time": 6.784090909090909,
                "pitch": 63,
                "velocity": 80,
                "duration": 0.12045454545454604,
                "tempo": 120.0
            },
            {
                "start_time": 6.8,
                "end_time": 6.920454545454545,
                "pitch": 58,
                "velocity": 80,
                "duration": 0.12045454545454515,
                "tempo": 120.0
            },
            {
                "start_time": 7.209090909090909,
                "end_time": 7.454545454545454,
                "pitch": 61,
                "velocity": 80,
                "duration": 0.24545454545454515,
                "tempo": 120.0
            },
            {
                "start_time": 7.470454545454545,
                "end_time": 7.586363636363636,
                "pitch": 63,
                "velocity": 80,
                "duration": 0.11590909090909118,
                "tempo": 120.0
            },
            {
                "start_time": 7.602272727272727,
                "end_time": 7.715909090909091,
                "pitch": 58,
                "velocity": 80,
                "duration": 0.1136363636363642,
                "tempo": 120.0
            },
            {
                "start_time": 9.89090909090909,
                "end_time": 10.006818181818181,
                "pitch": 58,
                "velocity": 80,
                "duration": 0.1159090909090903,
                "tempo": 120.0
            },
            {
                "start_time": 10.022727272727272,
                "end_time": 10.14090909090909,
                "pitch": 58,
                "velocity": 80,
                "duration": 0.11818181818181905,
                "tempo": 120.0
            },
            {
                "start_time": 10.156818181818181,
                "end_time": 10.406818181818181,
                "pitch": 58,
                "velocity": 80,
                "duration": 0.25,
                "tempo": 120.0
            },
            {
                "start_time": 10.424999999999999,
                "end_time": 10.679545454545455,
                "pitch": 58,
                "velocity": 80,
                "duration": 0.25454545454545574,
                "tempo": 120.0
            },
            {
                "start_time": 10.695454545454545,
                "end_time": 10.952272727272726,
                "pitch": 58,
                "velocity": 80,
                "duration": 0.25681818181818095,
                "tempo": 120.0
            },
            {
                "start_time": 10.968181818181817,
                "end_time": 11.084090909090909,
                "pitch": 59,
                "velocity": 80,
                "duration": 0.11590909090909207,
                "tempo": 120.0
            },
            {
                "start_time": 11.102272727272727,
                "end_time": 11.752272727272727,
                "pitch": 59,
                "velocity": 80,
                "duration": 0.6500000000000004,
                "tempo": 120.0
            },
            {
                "start_time": 14.184090909090909,
                "end_time": 14.302272727272726,
                "pitch": 58,
                "velocity": 80,
                "duration": 0.11818181818181728,
                "tempo": 120.0
            },
            {
                "start_time": 14.320454545454545,
                "end_time": 14.438636363636363,
                "pitch": 58,
                "velocity": 80,
                "duration": 0.11818181818181728,
                "tempo": 120.0
            },
            {
                "start_time": 14.45681818181818,
                "end_time": 14.711363636363636,
                "pitch": 61,
                "velocity": 80,
                "duration": 0.25454545454545574,
                "tempo": 120.0
            },
            {
                "start_time": 14.727272727272727,
                "end_time": 14.984090909090908,
                "pitch": 58,
                "velocity": 80,
                "duration": 0.25681818181818095,
                "tempo": 120.0
            },
            {
                "start_time": 15.0,
                "end_time": 15.254545454545454,
                "pitch": 61,
                "velocity": 80,
                "duration": 0.25454545454545396,
                "tempo": 120.0
            },
            {
                "start_time": 15.272727272727272,
                "end_time": 15.388636363636364,
                "pitch": 63,
                "velocity": 80,
                "duration": 0.11590909090909207,
                "tempo": 120.0
            },
            {
                "start_time": 15.406818181818181,
                "end_time": 15.522727272727272,
                "pitch": 58,
                "velocity": 80,
                "duration": 0.1159090909090903,
                "tempo": 120.0
            },
            {
                "start_time": 15.538636363636362,
                "end_time": 16.325,
                "pitch": 58,
                "velocity": 80,
                "duration": 0.786363636363637,
                "tempo": 120.0
            },
            {
                "start_time": 16.60909090909091,
                "end_time": 16.85909090909091,
                "pitch": 58,
                "velocity": 80,
                "duration": 0.25,
                "tempo": 120.0
            },
            {
                "start_time": 16.875,
                "end_time": 17.129545454545454,
                "pitch": 61,
                "velocity": 80,
                "duration": 0.25454545454545396,
                "tempo": 120.0
            },
            {
                "start_time": 17.147727272727273,
                "end_time": 17.536363636363635,
                "pitch": 63,
                "velocity": 80,
                "duration": 0.3886363636363619,
                "tempo": 120.0
            },
            {
                "start_time": 17.552272727272726,
                "end_time": 18.204545454545453,
                "pitch": 61,
                "velocity": 80,
                "duration": 0.6522727272727273,
                "tempo": 120.0
            },
            {
                "start_time": 18.754545454545454,
                "end_time": 19.00681818181818,
                "pitch": 61,
                "velocity": 80,
                "duration": 0.2522727272727252,
                "tempo": 120.0
            },
            {
                "start_time": 19.022727272727273,
                "end_time": 19.277272727272727,
                "pitch": 63,
                "velocity": 80,
                "duration": 0.25454545454545396,
                "tempo": 120.0
            },
            {
                "start_time": 19.295454545454543,
                "end_time": 19.68409090909091,
                "pitch": 56,
                "velocity": 80,
                "duration": 0.38863636363636545,
                "tempo": 120.0
            },
            {
                "start_time": 19.7,
                "end_time": 20.352272727272727,
                "pitch": 54,
                "velocity": 80,
                "duration": 0.6522727272727273,
                "tempo": 120.0
            },
            {
                "start_time": 20.770454545454545,
                "end_time": 21.161363636363635,
                "pitch": 58,
                "velocity": 80,
                "duration": 0.39090909090909065,
                "tempo": 120.0
            },
            {
                "start_time": 21.179545454545455,
                "end_time": 21.429545454545455,
                "pitch": 61,
                "velocity": 80,
                "duration": 0.25,
                "tempo": 120.0
            },
            {
                "start_time": 21.445454545454545,
                "end_time": 21.829545454545453,
                "pitch": 63,
                "velocity": 80,
                "duration": 0.38409090909090793,
                "tempo": 120.0
            },
            {
                "start_time": 21.847727272727273,
                "end_time": 22.502272727272725,
                "pitch": 61,
                "velocity": 80,
                "duration": 0.6545454545454525,
                "tempo": 120.0
            },
            {
                "start_time": 23.59318181818182,
                "end_time": 23.84318181818182,
                "pitch": 63,
                "velocity": 80,
                "duration": 0.25,
                "tempo": 120.0
            },
            {
                "start_time": 23.861363636363635,
                "end_time": 24.11590909090909,
                "pitch": 63,
                "velocity": 80,
                "duration": 0.25454545454545396,
                "tempo": 120.0
            },
            {
                "start_time": 24.13181818181818,
                "end_time": 24.388636363636362,
                "pitch": 63,
                "velocity": 80,
                "duration": 0.2568181818181827,
                "tempo": 120.0
            },
            {
                "start_time": 24.404545454545453,
                "end_time": 24.520454545454545,
                "pitch": 63,
                "velocity": 80,
                "duration": 0.11590909090909207,
                "tempo": 120.0
            },
            {
                "start_time": 24.538636363636364,
                "end_time": 25.46590909090909,
                "pitch": 65,
                "velocity": 80,
                "duration": 0.9272727272727259,
                "tempo": 120.0
            },
            {
                "start_time": 25.75,
                "end_time": 26.134090909090908,
                "pitch": 70,
                "velocity": 80,
                "duration": 0.38409090909090793,
                "tempo": 120.0
            },
            {
                "start_time": 26.15,
                "end_time": 26.534090909090907,
                "pitch": 68,
                "velocity": 80,
                "duration": 0.38409090909090793,
                "tempo": 120.0
            },
            {
                "start_time": 26.552272727272726,
                "end_time": 27.079545454545453,
                "pitch": 71,
                "velocity": 80,
                "duration": 0.5272727272727273,
                "tempo": 120.0
            },
            {
                "start_time": 27.095454545454544,
                "end_time": 27.345454545454544,
                "pitch": 70,
                "velocity": 80,
                "duration": 0.25,
                "tempo": 120.0
            },
            {
                "start_time": 27.363636363636363,
                "end_time": 27.613636363636363,
                "pitch": 68,
                "velocity": 80,
                "duration": 0.25,
                "tempo": 120.0
            },
            {
                "start_time": 27.629545454545454,
                "end_time": 27.879545454545454,
                "pitch": 66,
                "velocity": 80,
                "duration": 0.25,
                "tempo": 120.0
            },
            {
                "start_time": 27.89772727272727,
                "end_time": 28.284090909090907,
                "pitch": 68,
                "velocity": 80,
                "duration": 0.3863636363636367,
                "tempo": 120.0
            },
            {
                "start_time": 28.299999999999997,
                "end_time": 28.690909090909088,
                "pitch": 66,
                "velocity": 80,
                "duration": 0.39090909090909065,
                "tempo": 120.0
            },
            {
                "start_time": 28.709090909090907,
                "end_time": 30.03181818181818,
                "pitch": 70,
                "velocity": 80,
                "duration": 1.322727272727274,
                "tempo": 120.0
            },
            {
                "start_time": 30.049999999999997,
                "end_time": 30.438636363636363,
                "pitch": 63,
                "velocity": 80,
                "duration": 0.38863636363636545,
                "tempo": 120.0
            },
            {
                "start_time": 30.454545454545453,
                "end_time": 30.83863636363636,
                "pitch": 66,
                "velocity": 80,
                "duration": 0.38409090909090793,
                "tempo": 120.0
            },
            {
                "start_time": 30.854545454545452,
                "end_time": 31.38181818181818,
                "pitch": 68,
                "velocity": 80,
                "duration": 0.5272727272727273,
                "tempo": 120.0
            },
            {
                "start_time": 31.4,
                "end_time": 31.65,
                "pitch": 68,
                "velocity": 80,
                "duration": 0.25,
                "tempo": 120.0
            },
            {
                "start_time": 31.66590909090909,
                "end_time": 31.91590909090909,
                "pitch": 68,
                "velocity": 80,
                "duration": 0.25,
                "tempo": 120.0
            },
            {
                "start_time": 31.93409090909091,
                "end_time": 32.05,
                "pitch": 66,
                "velocity": 80,
                "duration": 0.11590909090908852,
                "tempo": 120.0
            },
            {
                "start_time": 32.06818181818182,
                "end_time": 33.25681818181818,
                "pitch": 70,
                "velocity": 80,
                "duration": 1.1886363636363626,
                "tempo": 120.0
            },
            {
                "start_time": 34.34772727272727,
                "end_time": 34.73863636363636,
                "pitch": 70,
                "velocity": 80,
                "duration": 0.39090909090909065,
                "tempo": 120.0
            },
            {
                "start_time": 34.75681818181818,
                "end_time": 35.13409090909091,
                "pitch": 68,
                "velocity": 80,
                "duration": 0.3772727272727252,
                "tempo": 120.0
            },
            {
                "start_time": 35.15,
                "end_time": 35.67727272727272,
                "pitch": 71,
                "velocity": 80,
                "duration": 0.5272727272727238,
                "tempo": 120.0
            },
            {
                "start_time": 35.69318181818181,
                "end_time": 35.94318181818181,
                "pitch": 70,
                "velocity": 80,
                "duration": 0.25,
                "tempo": 120.0
            },
            {
                "start_time": 35.961363636363636,
                "end_time": 36.211363636363636,
                "pitch": 68,
                "velocity": 80,
                "duration": 0.25,
                "tempo": 120.0
            },
            {
                "start_time": 36.22727272727273,
                "end_time": 36.48181818181818,
                "pitch": 66,
                "velocity": 80,
                "duration": 0.2545454545454504,
                "tempo": 120.0
            },
            {
                "start_time": 36.5,
                "end_time": 36.88863636363636,
                "pitch": 68,
                "velocity": 80,
                "duration": 0.38863636363635834,
                "tempo": 120.0
            },
            {
                "start_time": 36.904545454545456,
                "end_time": 37.288636363636364,
                "pitch": 66,
                "velocity": 80,
                "duration": 0.38409090909090793,
                "tempo": 120.0
            },
            {
                "start_time": 37.30681818181818,
                "end_time": 38.63409090909091,
                "pitch": 70,
                "velocity": 80,
                "duration": 1.327272727272728,
                "tempo": 120.0
            },
            {
                "start_time": 38.652272727272724,
                "end_time": 39.03636363636363,
                "pitch": 63,
                "velocity": 80,
                "duration": 0.38409090909090793,
                "tempo": 120.0
            },
            {
                "start_time": 39.05227272727272,
                "end_time": 39.43636363636364,
                "pitch": 66,
                "velocity": 80,
                "duration": 0.38409090909091503,
                "tempo": 120.0
            },
            {
                "start_time": 39.45227272727273,
                "end_time": 40.51590909090909,
                "pitch": 68,
                "velocity": 80,
                "duration": 1.0636363636363626,
                "tempo": 120.0
            },
            {
                "start_time": 40.53181818181818,
                "end_time": 40.64772727272727,
                "pitch": 66,
                "velocity": 80,
                "duration": 0.11590909090909207,
                "tempo": 120.0
            },
            {
                "start_time": 40.66590909090909,
                "end_time": 41.861363636363635,
                "pitch": 66,
                "velocity": 80,
                "duration": 1.1954545454545453,
                "tempo": 120.0
            }
        ],
        "Acoustic Bass": [
            {
                "start_time": 0.0,
                "end_time": 0.16363636363636364,
                "pitch": 44,
                "velocity": 64,
                "duration": 0.16363636363636364,
                "tempo": 120.0
            },
            {
                "start_time": 0.31136363636363634,
                "end_time": 0.42727272727272725,
                "pitch": 44,
                "velocity": 64,
                "duration": 0.1159090909090909,
                "tempo": 120.0
            },
            {
                "start_time": 0.8659090909090909,
                "end_time": 0.9886363636363635,
                "pitch": 44,
                "velocity": 64,
                "duration": 0.12272727272727268,
                "tempo": 120.0
            },
            {
                "start_time": 1.5545454545454545,
                "end_time": 1.6727272727272726,
                "pitch": 44,
                "velocity": 64,
                "duration": 0.11818181818181817,
                "tempo": 120.0
            },
            {
                "start_time": 1.690909090909091,
                "end_time": 1.809090909090909,
                "pitch": 44,
                "velocity": 64,
                "duration": 0.11818181818181817,
                "tempo": 120.0
            },
            {
                "start_time": 1.8272727272727272,
                "end_time": 1.9454545454545453,
                "pitch": 56,
                "velocity": 64,
                "duration": 0.11818181818181817,
                "tempo": 120.0
            },
            {
                "start_time": 1.9613636363636362,
                "end_time": 2.0818181818181816,
                "pitch": 44,
                "velocity": 64,
                "duration": 0.12045454545454537,
                "tempo": 120.0
            },
            {
                "start_time": 2.0977272727272727,
                "end_time": 2.352272727272727,
                "pitch": 44,
                "velocity": 64,
                "duration": 0.2545454545454544,
                "tempo": 120.0
            },
            {
                "start_time": 2.5045454545454544,
                "end_time": 2.620454545454545,
                "pitch": 44,
                "velocity": 64,
                "duration": 0.11590909090909074,
                "tempo": 120.0
            },
            {
                "start_time": 3.0386363636363636,
                "end_time": 3.1545454545454543,
                "pitch": 44,
                "velocity": 64,
                "duration": 0.11590909090909074,
                "tempo": 120.0
            },
            {
                "start_time": 3.1727272727272724,
                "end_time": 3.2886363636363636,
                "pitch": 44,
                "velocity": 64,
                "duration": 0.11590909090909118,
                "tempo": 120.0
            },
            {
                "start_time": 3.3045454545454542,
                "end_time": 3.4227272727272724,
                "pitch": 44,
                "velocity": 64,
                "duration": 0.11818181818181817,
                "tempo": 120.0
            },
            {
                "start_time": 3.4386363636363635,
                "end_time": 3.5568181818181817,
                "pitch": 56,
                "velocity": 64,
                "duration": 0.11818181818181817,
                "tempo": 120.0
            },
            {
                "start_time": 3.5727272727272728,
                "end_time": 3.6886363636363635,
                "pitch": 44,
                "velocity": 64,
                "duration": 0.11590909090909074,
                "tempo": 120.0
            },
            {
                "start_time": 3.7068181818181816,
                "end_time": 3.8227272727272728,
                "pitch": 65,
                "velocity": 64,
                "duration": 0.11590909090909118,
                "tempo": 120.0
            },
            {
                "start_time": 3.840909090909091,
                "end_time": 3.9568181818181816,
                "pitch": 61,
                "velocity": 64,
                "duration": 0.11590909090909074,
                "tempo": 120.0
            },
            {
                "start_time": 3.9727272727272727,
                "end_time": 4.090909090909091,
                "pitch": 56,
                "velocity": 64,
                "duration": 0.11818181818181817,
                "tempo": 120.0
            },
            {
                "start_time": 4.1068181818181815,
                "end_time": 4.225,
                "pitch": 54,
                "velocity": 64,
                "duration": 0.11818181818181817,
                "tempo": 120.0
            },
            {
                "start_time": 4.24090909090909,
                "end_time": 4.49090909090909,
                "pitch": 39,
                "velocity": 64,
                "duration": 0.25,
                "tempo": 120.0
            },
            {
                "start_time": 4.643181818181818,
                "end_time": 4.763636363636364,
                "pitch": 39,
                "velocity": 64,
                "duration": 0.12045454545454604,
                "tempo": 120.0
            },
            {
                "start_time": 5.1863636363636365,
                "end_time": 5.302272727272727,
                "pitch": 39,
                "velocity": 64,
                "duration": 0.1159090909090903,
                "tempo": 120.0
            },
            {
                "start_time": 5.8590909090909085,
                "end_time": 5.977272727272727,
                "pitch": 39,
                "velocity": 64,
                "duration": 0.11818181818181817,
                "tempo": 120.0
            },
            {
                "start_time": 5.993181818181818,
                "end_time": 6.113636363636363,
                "pitch": 39,
                "velocity": 64,
                "duration": 0.12045454545454515,
                "tempo": 120.0
            },
            {
                "start_time": 6.129545454545454,
                "end_time": 6.247727272727272,
                "pitch": 51,
                "velocity": 64,
                "duration": 0.11818181818181817,
                "tempo": 120.0
            },
            {
                "start_time": 6.263636363636364,
                "end_time": 6.379545454545454,
                "pitch": 39,
                "velocity": 64,
                "duration": 0.1159090909090903,
                "tempo": 120.0
            },
            {
                "start_time": 6.3977272727272725,
                "end_time": 6.6477272727272725,
                "pitch": 39,
                "velocity": 64,
                "duration": 0.25,
                "tempo": 120.0
            },
            {
                "start_time": 6.8,
                "end_time": 6.920454545454545,
                "pitch": 39,
                "velocity": 64,
                "duration": 0.12045454545454515,
                "tempo": 120.0
            },
            {
                "start_time": 7.338636363636363,
                "end_time": 7.454545454545454,
                "pitch": 39,
                "velocity": 64,
                "duration": 0.11590909090909118,
                "tempo": 120.0
            },
            {
                "start_time": 7.470454545454545,
                "end_time": 7.586363636363636,
                "pitch": 39,
                "velocity": 64,
                "duration": 0.11590909090909118,
                "tempo": 120.0
            },
            {
                "start_time": 7.602272727272727,
                "end_time": 7.715909090909091,
                "pitch": 39,
                "velocity": 64,
                "duration": 0.1136363636363642,
                "tempo": 120.0
            },
            {
                "start_time": 7.7340909090909085,
                "end_time": 7.852272727272727,
                "pitch": 51,
                "velocity": 64,
                "duration": 0.11818181818181817,
                "tempo": 120.0
            },
            {
                "start_time": 7.868181818181818,
                "end_time": 7.988636363636363,
                "pitch": 39,
                "velocity": 64,
                "duration": 0.12045454545454515,
                "tempo": 120.0
            },
            {
                "start_time": 8.14090909090909,
                "end_time": 8.259090909090908,
                "pitch": 42,
                "velocity": 64,
                "duration": 0.11818181818181728,
                "tempo": 120.0
            },
            {
                "start_time": 8.277272727272727,
                "end_time": 8.527272727272727,
                "pitch": 39,
                "velocity": 64,
                "duration": 0.25,
                "tempo": 120.0
            },
            {
                "start_time": 8.545454545454545,
                "end_time": 8.795454545454545,
                "pitch": 44,
                "velocity": 64,
                "duration": 0.25,
                "tempo": 120.0
            },
            {
                "start_time": 8.945454545454545,
                "end_time": 9.061363636363636,
                "pitch": 44,
                "velocity": 64,
                "duration": 0.1159090909090903,
                "tempo": 120.0
            },
            {
                "start_time": 9.48181818181818,
                "end_time": 9.6,
                "pitch": 44,
                "velocity": 64,
                "duration": 0.11818181818181905,
                "tempo": 120.0
            },
            {
                "start_time": 10.156818181818181,
                "end_time": 10.275,
                "pitch": 44,
                "velocity": 64,
                "duration": 0.11818181818181905,
                "tempo": 120.0
            },
            {
                "start_time": 10.290909090909091,
                "end_time": 10.406818181818181,
                "pitch": 44,
                "velocity": 64,
                "duration": 0.1159090909090903,
                "tempo": 120.0
            },
            {
                "start_time": 10.424999999999999,
                "end_time": 10.543181818181818,
                "pitch": 56,
                "velocity": 64,
                "duration": 0.11818181818181905,
                "tempo": 120.0
            },
            {
                "start_time": 10.559090909090909,
                "end_time": 10.679545454545455,
                "pitch": 44,
                "velocity": 64,
                "duration": 0.12045454545454604,
                "tempo": 120.0
            },
            {
                "start_time": 10.695454545454545,
                "end_time": 10.952272727272726,
                "pitch": 44,
                "velocity": 64,
                "duration": 0.25681818181818095,
                "tempo": 120.0
            },
            {
                "start_time": 11.102272727272727,
                "end_time": 11.218181818181817,
                "pitch": 44,
                "velocity": 64,
                "duration": 0.1159090909090903,
                "tempo": 120.0
            },
            {
                "start_time": 11.636363636363637,
                "end_time": 11.752272727272727,
                "pitch": 44,
                "velocity": 64,
                "duration": 0.1159090909090903,
                "tempo": 120.0
            },
            {
                "start_time": 11.770454545454545,
                "end_time": 11.886363636363635,
                "pitch": 44,
                "velocity": 64,
                "duration": 0.1159090909090903,
                "tempo": 120.0
            },
            {
                "start_time": 11.904545454545454,
                "end_time": 12.020454545454545,
                "pitch": 44,
                "velocity": 64,
                "duration": 0.1159090909090903,
                "tempo": 120.0
            },
            {
                "start_time": 12.036363636363635,
                "end_time": 12.154545454545454,
                "pitch": 56,
                "velocity": 64,
                "duration": 0.11818181818181905,
                "tempo": 120.0
            },
            {
                "start_time": 12.170454545454545,
                "end_time": 12.288636363636362,
                "pitch": 44,
                "velocity": 64,
                "duration": 0.11818181818181728,
                "tempo": 120.0
            },
            {
                "start_time": 12.304545454545455,
                "end_time": 12.420454545454545,
                "pitch": 65,
                "velocity": 64,
                "duration": 0.1159090909090903,
                "tempo": 120.0
            },
            {
                "start_time": 12.438636363636363,
                "end_time": 12.554545454545455,
                "pitch": 61,
                "velocity": 64,
                "duration": 0.11590909090909207,
                "tempo": 120.0
            },
            {
                "start_time": 12.570454545454545,
                "end_time": 12.69090909090909,
                "pitch": 56,
                "velocity": 64,
                "duration": 0.12045454545454426,
                "tempo": 120.0
            },
            {
                "start_time": 12.706818181818182,
                "end_time": 12.827272727272726,
                "pitch": 54,
                "velocity": 64,
                "duration": 0.12045454545454426,
                "tempo": 120.0
            },
            {
                "start_time": 12.843181818181817,
                "end_time": 13.097727272727273,
                "pitch": 39,
                "velocity": 64,
                "duration": 0.25454545454545574,
                "tempo": 120.0
            },
            {
                "start_time": 13.25,
                "end_time": 13.36590909090909,
                "pitch": 39,
                "velocity": 64,
                "duration": 0.1159090909090903,
                "tempo": 120.0
            },
            {
                "start_time": 13.784090909090908,
                "end_time": 13.899999999999999,
                "pitch": 39,
                "velocity": 64,
                "duration": 0.1159090909090903,
                "tempo": 120.0
            },
            {
                "start_time": 14.45681818181818,
                "end_time": 14.575,
                "pitch": 39,
                "velocity": 64,
                "duration": 0.11818181818181905,
                "tempo": 120.0
            },
            {
                "start_time": 14.593181818181817,
                "end_time": 14.711363636363636,
                "pitch": 39,
                "velocity": 64,
                "duration": 0.11818181818181905,
                "tempo": 120.0
            },
            {
                "start_time": 14.727272727272727,
                "end_time": 14.847727272727273,
                "pitch": 51,
                "velocity": 64,
                "duration": 0.12045454545454604,
                "tempo": 120.0
            },
            {
                "start_time": 14.863636363636363,
                "end_time": 14.984090909090908,
                "pitch": 39,
                "velocity": 64,
                "duration": 0.12045454545454426,
                "tempo": 120.0
            },
            {
                "start_time": 15.0,
                "end_time": 15.254545454545454,
                "pitch": 39,
                "velocity": 64,
                "duration": 0.25454545454545396,
                "tempo": 120.0
            },
            {
                "start_time": 15.406818181818181,
                "end_time": 15.522727272727272,
                "pitch": 39,
                "velocity": 64,
                "duration": 0.1159090909090903,
                "tempo": 120.0
            },
            {
                "start_time": 15.94090909090909,
                "end_time": 16.05681818181818,
                "pitch": 39,
                "velocity": 64,
                "duration": 0.1159090909090903,
                "tempo": 120.0
            },
            {
                "start_time": 16.07272727272727,
                "end_time": 16.19090909090909,
                "pitch": 39,
                "velocity": 64,
                "duration": 0.11818181818182083,
                "tempo": 120.0
            },
            {
                "start_time": 16.206818181818182,
                "end_time": 16.325,
                "pitch": 39,
                "velocity": 64,
                "duration": 0.11818181818181728,
                "tempo": 120.0
            },
            {
                "start_time": 16.34090909090909,
                "end_time": 16.456818181818182,
                "pitch": 51,
                "velocity": 64,
                "duration": 0.11590909090909207,
                "tempo": 120.0
            },
            {
                "start_time": 16.474999999999998,
                "end_time": 16.59090909090909,
                "pitch": 39,
                "velocity": 64,
                "duration": 0.11590909090909207,
                "tempo": 120.0
            },
            {
                "start_time": 17.147727272727273,
                "end_time": 17.402272727272727,
                "pitch": 46,
                "velocity": 64,
                "duration": 0.25454545454545396,
                "tempo": 120.0
            },
            {
                "start_time": 17.552272727272726,
                "end_time": 17.670454545454543,
                "pitch": 46,
                "velocity": 64,
                "duration": 0.11818181818181728,
                "tempo": 120.0
            },
            {
                "start_time": 18.086363636363636,
                "end_time": 18.204545454545453,
                "pitch": 41,
                "velocity": 64,
                "duration": 0.11818181818181728,
                "tempo": 120.0
            },
            {
                "start_time": 18.220454545454544,
                "end_time": 18.33863636363636,
                "pitch": 46,
                "velocity": 64,
                "duration": 0.11818181818181728,
                "tempo": 120.0
            },
            {
                "start_time": 18.354545454545455,
                "end_time": 18.470454545454544,
                "pitch": 46,
                "velocity": 64,
                "duration": 0.11590909090908852,
                "tempo": 120.0
            },
            {
                "start_time": 18.488636363636363,
                "end_time": 18.604545454545455,
                "pitch": 58,
                "velocity": 64,
                "duration": 0.11590909090909207,
                "tempo": 120.0
            },
            {
                "start_time": 18.62272727272727,
                "end_time": 18.738636363636363,
                "pitch": 46,
                "velocity": 64,
                "duration": 0.11590909090909207,
                "tempo": 120.0
            },
            {
                "start_time": 19.295454545454543,
                "end_time": 19.55,
                "pitch": 47,
                "velocity": 64,
                "duration": 0.2545454545454575,
                "tempo": 120.0
            },
            {
                "start_time": 19.7,
                "end_time": 19.81590909090909,
                "pitch": 47,
                "velocity": 64,
                "duration": 0.11590909090909207,
                "tempo": 120.0
            },
            {
                "start_time": 20.23409090909091,
                "end_time": 20.352272727272727,
                "pitch": 42,
                "velocity": 64,
                "duration": 0.11818181818181728,
                "tempo": 120.0
            },
            {
                "start_time": 20.368181818181817,
                "end_time": 20.48409090909091,
                "pitch": 47,
                "velocity": 64,
                "duration": 0.11590909090909207,
                "tempo": 120.0
            },
            {
                "start_time": 20.502272727272725,
                "end_time": 20.618181818181817,
                "pitch": 47,
                "velocity": 64,
                "duration": 0.11590909090909207,
                "tempo": 120.0
            },
            {
                "start_time": 20.634090909090908,
                "end_time": 20.754545454545454,
                "pitch": 59,
                "velocity": 64,
                "duration": 0.12045454545454604,
                "tempo": 120.0
            },
            {
                "start_time": 20.770454545454545,
                "end_time": 20.89090909090909,
                "pitch": 47,
                "velocity": 64,
                "duration": 0.12045454545454604,
                "tempo": 120.0
            },
            {
                "start_time": 21.445454545454545,
                "end_time": 21.69772727272727,
                "pitch": 46,
                "velocity": 64,
                "duration": 0.2522727272727252,
                "tempo": 120.0
            },
            {
                "start_time": 21.847727272727273,
                "end_time": 21.96363636363636,
                "pitch": 46,
                "velocity": 64,
                "duration": 0.11590909090908852,
                "tempo": 120.0
            },
            {
                "start_time": 22.384090909090908,
                "end_time": 22.502272727272725,
                "pitch": 41,
                "velocity": 64,
                "duration": 0.11818181818181728,
                "tempo": 120.0
            },
            {
                "start_time": 22.520454545454545,
                "end_time": 22.638636363636362,
                "pitch": 46,
                "velocity": 64,
                "duration": 0.11818181818181728,
                "tempo": 120.0
            },
            {
                "start_time": 22.65681818181818,
                "end_time": 22.775,
                "pitch": 46,
                "velocity": 64,
                "duration": 0.11818181818181728,
                "tempo": 120.0
            },
            {
                "start_time": 22.79090909090909,
                "end_time": 22.909090909090907,
                "pitch": 58,
                "velocity": 64,
                "duration": 0.11818181818181728,
                "tempo": 120.0
            },
            {
                "start_time": 22.924999999999997,
                "end_time": 23.043181818181818,
                "pitch": 46,
                "velocity": 64,
                "duration": 0.11818181818182083,
                "tempo": 120.0
            },
            {
                "start_time": 23.59318181818182,
                "end_time": 23.84318181818182,
                "pitch": 44,
                "velocity": 64,
                "duration": 0.25,
                "tempo": 120.0
            },
            {
                "start_time": 23.995454545454546,
                "end_time": 24.11590909090909,
                "pitch": 44,
                "velocity": 64,
                "duration": 0.12045454545454248,
                "tempo": 120.0
            },
            {
                "start_time": 24.404545454545453,
                "end_time": 24.520454545454545,
                "pitch": 44,
                "velocity": 64,
                "duration": 0.11590909090909207,
                "tempo": 120.0
            },
            {
                "start_time": 24.538636363636364,
                "end_time": 25.329545454545453,
                "pitch": 46,
                "velocity": 64,
                "duration": 0.7909090909090892,
                "tempo": 120.0
            },
            {
                "start_time": 25.347727272727273,
                "end_time": 25.46590909090909,
                "pitch": 47,
                "velocity": 64,
                "duration": 0.11818181818181728,
                "tempo": 120.0
            },
            {
                "start_time": 25.48181818181818,
                "end_time": 25.73409090909091,
                "pitch": 49,
                "velocity": 64,
                "duration": 0.25227272727272876,
                "tempo": 120.0
            },
            {
                "start_time": 25.75,
                "end_time": 26.0,
                "pitch": 42,
                "velocity": 64,
                "duration": 0.25,
                "tempo": 120.0
            },
            {
                "start_time": 26.15,
                "end_time": 26.268181818181816,
                "pitch": 42,
                "velocity": 64,
                "duration": 0.11818181818181728,
                "tempo": 120.0
            },
            {
                "start_time": 26.552272727272726,
                "end_time": 27.879545454545454,
                "pitch": 46,
                "velocity": 64,
                "duration": 1.327272727272728,
                "tempo": 120.0
            },
            {
                "start_time": 27.89772727272727,
                "end_time": 28.14772727272727,
                "pitch": 39,
                "velocity": 64,
                "duration": 0.25,
                "tempo": 120.0
            },
            {
                "start_time": 28.299999999999997,
                "end_time": 28.418181818181818,
                "pitch": 39,
                "velocity": 64,
                "duration": 0.11818181818182083,
                "tempo": 120.0
            },
            {
                "start_time": 28.709090909090907,
                "end_time": 30.03181818181818,
                "pitch": 42,
                "velocity": 64,
                "duration": 1.322727272727274,
                "tempo": 120.0
            },
            {
                "start_time": 30.049999999999997,
                "end_time": 30.304545454545455,
                "pitch": 44,
                "velocity": 64,
                "duration": 0.2545454545454575,
                "tempo": 120.0
            },
            {
                "start_time": 30.454545454545453,
                "end_time": 30.570454545454545,
                "pitch": 44,
                "velocity": 64,
                "duration": 0.11590909090909207,
                "tempo": 120.0
            },
            {
                "start_time": 30.854545454545452,
                "end_time": 32.184090909090905,
                "pitch": 46,
                "velocity": 64,
                "duration": 1.3295454545454533,
                "tempo": 120.0
            },
            {
                "start_time": 32.199999999999996,
                "end_time": 32.45227272727273,
                "pitch": 39,
                "velocity": 64,
                "duration": 0.2522727272727323,
                "tempo": 120.0
            },
            {
                "start_time": 32.60227272727273,
                "end_time": 33.25681818181818,
                "pitch": 39,
                "velocity": 64,
                "duration": 0.6545454545454561,
                "tempo": 120.0
            },
            {
                "start_time": 33.275,
                "end_time": 33.66136363636363,
                "pitch": 42,
                "velocity": 64,
                "duration": 0.38636363636363313,
                "tempo": 120.0
            },
            {
                "start_time": 33.67727272727272,
                "end_time": 34.054545454545455,
                "pitch": 42,
                "velocity": 64,
                "duration": 0.3772727272727323,
                "tempo": 120.0
            },
            {
                "start_time": 34.070454545454545,
                "end_time": 34.32954545454545,
                "pitch": 44,
                "velocity": 64,
                "duration": 0.25909090909090793,
                "tempo": 120.0
            },
            {
                "start_time": 34.34772727272727,
                "end_time": 34.60681818181818,
                "pitch": 46,
                "velocity": 64,
                "duration": 0.25909090909090793,
                "tempo": 120.0
            },
            {
                "start_time": 34.75681818181818,
                "end_time": 34.87045454545454,
                "pitch": 46,
                "velocity": 64,
                "duration": 0.11363636363635976,
                "tempo": 120.0
            },
            {
                "start_time": 35.15,
                "end_time": 36.48181818181818,
                "pitch": 44,
                "velocity": 64,
                "duration": 1.3318181818181785,
                "tempo": 120.0
            },
            {
                "start_time": 36.5,
                "end_time": 36.75454545454545,
                "pitch": 39,
                "velocity": 64,
                "duration": 0.2545454545454504,
                "tempo": 120.0
            },
            {
                "start_time": 36.904545454545456,
                "end_time": 37.02272727272727,
                "pitch": 39,
                "velocity": 64,
                "duration": 0.11818181818181728,
                "tempo": 120.0
            },
            {
                "start_time": 37.30681818181818,
                "end_time": 38.63409090909091,
                "pitch": 42,
                "velocity": 64,
                "duration": 1.327272727272728,
                "tempo": 120.0
            },
            {
                "start_time": 38.652272727272724,
                "end_time": 38.902272727272724,
                "pitch": 47,
                "velocity": 64,
                "duration": 0.25,
                "tempo": 120.0
            },
            {
                "start_time": 39.05227272727272,
                "end_time": 39.17045454545455,
                "pitch": 47,
                "velocity": 64,
                "duration": 0.11818181818182438,
                "tempo": 120.0
            },
            {
                "start_time": 39.45227272727273,
                "end_time": 40.78181818181818,
                "pitch": 49,
                "velocity": 64,
                "duration": 1.3295454545454533,
                "tempo": 120.0
            },
            {
                "start_time": 40.79772727272727,
                "end_time": 41.05,
                "pitch": 44,
                "velocity": 64,
                "duration": 0.2522727272727252,
                "tempo": 120.0
            },
            {
                "start_time": 41.20227272727273,
                "end_time": 41.320454545454545,
                "pitch": 44,
                "velocity": 64,
                "duration": 0.11818181818181728,
                "tempo": 120.0
            },
            {
                "start_time": 41.74318181818182,
                "end_time": 41.861363636363635,
                "pitch": 44,
                "velocity": 64,
                "duration": 0.11818181818181728,
                "tempo": 120.0
            }
        ],
        "Vibraphone": [
            {
                "start_time": 0.0,
                "end_time": 0.29318181818181815,
                "pitch": 58,
                "velocity": 64,
                "duration": 0.29318181818181815,
                "tempo": 120.0
            },
            {
                "start_time": 0.31136363636363634,
                "end_time": 0.9886363636363635,
                "pitch": 59,
                "velocity": 64,
                "duration": 0.6772727272727272,
                "tempo": 120.0
            },
            {
                "start_time": 1.0045454545454544,
                "end_time": 1.2659090909090909,
                "pitch": 54,
                "velocity": 64,
                "duration": 0.26136363636363646,
                "tempo": 120.0
            },
            {
                "start_time": 1.2818181818181817,
                "end_time": 1.5363636363636364,
                "pitch": 58,
                "velocity": 64,
                "duration": 0.25454545454545463,
                "tempo": 120.0
            },
            {
                "start_time": 2.0977272727272727,
                "end_time": 2.4863636363636363,
                "pitch": 58,
                "velocity": 64,
                "duration": 0.38863636363636367,
                "tempo": 120.0
            },
            {
                "start_time": 2.5045454545454544,
                "end_time": 4.225,
                "pitch": 59,
                "velocity": 64,
                "duration": 1.7204545454545452,
                "tempo": 120.0
            },
            {
                "start_time": 4.24090909090909,
                "end_time": 4.627272727272727,
                "pitch": 56,
                "velocity": 64,
                "duration": 0.3863636363636367,
                "tempo": 120.0
            },
            {
                "start_time": 4.643181818181818,
                "end_time": 4.763636363636364,
                "pitch": 54,
                "velocity": 64,
                "duration": 0.12045454545454604,
                "tempo": 120.0
            },
            {
                "start_time": 4.779545454545454,
                "end_time": 4.8977272727272725,
                "pitch": 56,
                "velocity": 64,
                "duration": 0.11818181818181817,
                "tempo": 120.0
            },
            {
                "start_time": 4.915909090909091,
                "end_time": 5.034090909090909,
                "pitch": 56,
                "velocity": 64,
                "duration": 0.11818181818181817,
                "tempo": 120.0
            },
            {
                "start_time": 5.052272727272727,
                "end_time": 5.168181818181818,
                "pitch": 58,
                "velocity": 64,
                "duration": 0.11590909090909118,
                "tempo": 120.0
            },
            {
                "start_time": 5.1863636363636365,
                "end_time": 5.302272727272727,
                "pitch": 56,
                "velocity": 64,
                "duration": 0.1159090909090903,
                "tempo": 120.0
            },
            {
                "start_time": 5.318181818181818,
                "end_time": 5.570454545454545,
                "pitch": 58,
                "velocity": 64,
                "duration": 0.252272727272727,
                "tempo": 120.0
            },
            {
                "start_time": 6.3977272727272725,
                "end_time": 6.784090909090909,
                "pitch": 56,
                "velocity": 64,
                "duration": 0.3863636363636367,
                "tempo": 120.0
            },
            {
                "start_time": 6.8,
                "end_time": 7.1909090909090905,
                "pitch": 54,
                "velocity": 64,
                "duration": 0.39090909090909065,
                "tempo": 120.0
            },
            {
                "start_time": 7.209090909090909,
                "end_time": 7.586363636363636,
                "pitch": 56,
                "velocity": 64,
                "duration": 0.377272727272727,
                "tempo": 120.0
            },
            {
                "start_time": 7.602272727272727,
                "end_time": 7.988636363636363,
                "pitch": 54,
                "velocity": 64,
                "duration": 0.3863636363636367,
                "tempo": 120.0
            },
            {
                "start_time": 8.545454545454545,
                "end_time": 8.929545454545455,
                "pitch": 58,
                "velocity": 64,
                "duration": 0.3840909090909097,
                "tempo": 120.0
            },
            {
                "start_time": 8.945454545454545,
                "end_time": 9.6,
                "pitch": 59,
                "velocity": 64,
                "duration": 0.6545454545454543,
                "tempo": 120.0
            },
            {
                "start_time": 9.618181818181817,
                "end_time": 9.872727272727273,
                "pitch": 54,
                "velocity": 64,
                "duration": 0.25454545454545574,
                "tempo": 120.0
            },
            {
                "start_time": 9.89090909090909,
                "end_time": 10.14090909090909,
                "pitch": 58,
                "velocity": 64,
                "duration": 0.25,
                "tempo": 120.0
            },
            {
                "start_time": 10.695454545454545,
                "end_time": 11.084090909090909,
                "pitch": 58,
                "velocity": 64,
                "duration": 0.38863636363636367,
                "tempo": 120.0
            },
            {
                "start_time": 11.102272727272727,
                "end_time": 12.827272727272726,
                "pitch": 59,
                "velocity": 64,
                "duration": 1.7249999999999996,
                "tempo": 120.0
            },
            {
                "start_time": 12.843181818181817,
                "end_time": 13.23181818181818,
                "pitch": 56,
                "velocity": 64,
                "duration": 0.38863636363636367,
                "tempo": 120.0
            },
            {
                "start_time": 13.25,
                "end_time": 13.36590909090909,
                "pitch": 54,
                "velocity": 64,
                "duration": 0.1159090909090903,
                "tempo": 120.0
            },
            {
                "start_time": 13.381818181818181,
                "end_time": 13.5,
                "pitch": 56,
                "velocity": 64,
                "duration": 0.11818181818181905,
                "tempo": 120.0
            },
            {
                "start_time": 13.51590909090909,
                "end_time": 13.634090909090908,
                "pitch": 56,
                "velocity": 64,
                "duration": 0.11818181818181728,
                "tempo": 120.0
            },
            {
                "start_time": 13.649999999999999,
                "end_time": 13.76590909090909,
                "pitch": 58,
                "velocity": 64,
                "duration": 0.11590909090909207,
                "tempo": 120.0
            },
            {
                "start_time": 13.784090909090908,
                "end_time": 13.899999999999999,
                "pitch": 56,
                "velocity": 64,
                "duration": 0.1159090909090903,
                "tempo": 120.0
            },
            {
                "start_time": 13.915909090909091,
                "end_time": 14.168181818181818,
                "pitch": 58,
                "velocity": 64,
                "duration": 0.252272727272727,
                "tempo": 120.0
            },
            {
                "start_time": 15.0,
                "end_time": 15.388636363636364,
                "pitch": 53,
                "velocity": 64,
                "duration": 0.38863636363636367,
                "tempo": 120.0
            },
            {
                "start_time": 15.406818181818181,
                "end_time": 15.790909090909091,
                "pitch": 54,
                "velocity": 64,
                "duration": 0.3840909090909097,
                "tempo": 120.0
            },
            {
                "start_time": 15.806818181818182,
                "end_time": 16.19090909090909,
                "pitch": 53,
                "velocity": 64,
                "duration": 0.3840909090909097,
                "tempo": 120.0
            },
            {
                "start_time": 16.206818181818182,
                "end_time": 16.59090909090909,
                "pitch": 54,
                "velocity": 64,
                "duration": 0.38409090909090793,
                "tempo": 120.0
            },
            {
                "start_time": 17.147727272727273,
                "end_time": 17.536363636363635,
                "pitch": 51,
                "velocity": 64,
                "duration": 0.3886363636363619,
                "tempo": 120.0
            },
            {
                "start_time": 17.552272727272726,
                "end_time": 18.204545454545453,
                "pitch": 49,
                "velocity": 64,
                "duration": 0.6522727272727273,
                "tempo": 120.0
            },
            {
                "start_time": 18.220454545454544,
                "end_time": 18.604545454545455,
                "pitch": 58,
                "velocity": 64,
                "duration": 0.3840909090909115,
                "tempo": 120.0
            },
            {
                "start_time": 18.62272727272727,
                "end_time": 19.277272727272727,
                "pitch": 56,
                "velocity": 64,
                "duration": 0.6545454545454561,
                "tempo": 120.0
            },
            {
                "start_time": 19.295454545454543,
                "end_time": 19.68409090909091,
                "pitch": 56,
                "velocity": 64,
                "duration": 0.38863636363636545,
                "tempo": 120.0
            },
            {
                "start_time": 19.7,
                "end_time": 20.352272727272727,
                "pitch": 54,
                "velocity": 64,
                "duration": 0.6522727272727273,
                "tempo": 120.0
            },
            {
                "start_time": 20.368181818181817,
                "end_time": 20.89090909090909,
                "pitch": 54,
                "velocity": 64,
                "duration": 0.5227272727272734,
                "tempo": 120.0
            },
            {
                "start_time": 20.90681818181818,
                "end_time": 21.429545454545455,
                "pitch": 61,
                "velocity": 64,
                "duration": 0.5227272727272734,
                "tempo": 120.0
            },
            {
                "start_time": 21.445454545454545,
                "end_time": 21.829545454545453,
                "pitch": 63,
                "velocity": 64,
                "duration": 0.38409090909090793,
                "tempo": 120.0
            },
            {
                "start_time": 21.847727272727273,
                "end_time": 22.502272727272725,
                "pitch": 61,
                "velocity": 64,
                "duration": 0.6545454545454525,
                "tempo": 120.0
            },
            {
                "start_time": 22.79090909090909,
                "end_time": 23.043181818181818,
                "pitch": 58,
                "velocity": 64,
                "duration": 0.25227272727272876,
                "tempo": 120.0
            },
            {
                "start_time": 23.05909090909091,
                "end_time": 23.30909090909091,
                "pitch": 56,
                "velocity": 64,
                "duration": 0.25,
                "tempo": 120.0
            },
            {
                "start_time": 23.327272727272724,
                "end_time": 23.577272727272724,
                "pitch": 49,
                "velocity": 64,
                "duration": 0.25,
                "tempo": 120.0
            },
            {
                "start_time": 23.59318181818182,
                "end_time": 23.84318181818182,
                "pitch": 59,
                "velocity": 64,
                "duration": 0.25,
                "tempo": 120.0
            },
            {
                "start_time": 23.861363636363635,
                "end_time": 24.11590909090909,
                "pitch": 59,
                "velocity": 64,
                "duration": 0.25454545454545396,
                "tempo": 120.0
            },
            {
                "start_time": 24.13181818181818,
                "end_time": 24.388636363636362,
                "pitch": 59,
                "velocity": 64,
                "duration": 0.2568181818181827,
                "tempo": 120.0
            },
            {
                "start_time": 24.404545454545453,
                "end_time": 24.520454545454545,
                "pitch": 59,
                "velocity": 64,
                "duration": 0.11590909090909207,
                "tempo": 120.0
            },
            {
                "start_time": 24.538636363636364,
                "end_time": 25.46590909090909,
                "pitch": 61,
                "velocity": 64,
                "duration": 0.9272727272727259,
                "tempo": 120.0
            },
            {
                "start_time": 25.75,
                "end_time": 26.0,
                "pitch": 54,
                "velocity": 64,
                "duration": 0.25,
                "tempo": 120.0
            },
            {
                "start_time": 26.15,
                "end_time": 26.268181818181816,
                "pitch": 54,
                "velocity": 64,
                "duration": 0.11818181818181728,
                "tempo": 120.0
            },
            {
                "start_time": 26.552272727272726,
                "end_time": 27.879545454545454,
                "pitch": 49,
                "velocity": 64,
                "duration": 1.327272727272728,
                "tempo": 120.0
            },
            {
                "start_time": 27.89772727272727,
                "end_time": 28.14772727272727,
                "pitch": 53,
                "velocity": 64,
                "duration": 0.25,
                "tempo": 120.0
            },
            {
                "start_time": 28.299999999999997,
                "end_time": 28.418181818181818,
                "pitch": 53,
                "velocity": 64,
                "duration": 0.11818181818182083,
                "tempo": 120.0
            },
            {
                "start_time": 28.709090909090907,
                "end_time": 29.224999999999998,
                "pitch": 51,
                "velocity": 64,
                "duration": 0.5159090909090907,
                "tempo": 120.0
            },
            {
                "start_time": 29.243181818181817,
                "end_time": 29.493181818181817,
                "pitch": 58,
                "velocity": 64,
                "duration": 0.25,
                "tempo": 120.0
            },
            {
                "start_time": 29.509090909090908,
                "end_time": 29.761363636363637,
                "pitch": 54,
                "velocity": 64,
                "duration": 0.25227272727272876,
                "tempo": 120.0
            },
            {
                "start_time": 29.777272727272727,
                "end_time": 30.03181818181818,
                "pitch": 51,
                "velocity": 64,
                "duration": 0.25454545454545396,
                "tempo": 120.0
            },
            {
                "start_time": 30.049999999999997,
                "end_time": 30.304545454545455,
                "pitch": 47,
                "velocity": 64,
                "duration": 0.2545454545454575,
                "tempo": 120.0
            },
            {
                "start_time": 30.454545454545453,
                "end_time": 30.570454545454545,
                "pitch": 47,
                "velocity": 64,
                "duration": 0.11590909090909207,
                "tempo": 120.0
            },
            {
                "start_time": 30.854545454545452,
                "end_time": 32.184090909090905,
                "pitch": 49,
                "velocity": 64,
                "duration": 1.3295454545454533,
                "tempo": 120.0
            },
            {
                "start_time": 32.199999999999996,
                "end_time": 32.45227272727273,
                "pitch": 54,
                "velocity": 64,
                "duration": 0.2522727272727323,
                "tempo": 120.0
            },
            {
                "start_time": 32.60227272727273,
                "end_time": 33.25681818181818,
                "pitch": 54,
                "velocity": 64,
                "duration": 0.6545454545454561,
                "tempo": 120.0
            },
            {
                "start_time": 33.275,
                "end_time": 33.66136363636363,
                "pitch": 58,
                "velocity": 64,
                "duration": 0.38636363636363313,
                "tempo": 120.0
            },
            {
                "start_time": 33.67727272727272,
                "end_time": 34.054545454545455,
                "pitch": 59,
                "velocity": 64,
                "duration": 0.3772727272727323,
                "tempo": 120.0
            },
            {
                "start_time": 34.070454545454545,
                "end_time": 34.32954545454545,
                "pitch": 61,
                "velocity": 64,
                "duration": 0.25909090909090793,
                "tempo": 120.0
            },
            {
                "start_time": 34.34772727272727,
                "end_time": 34.60681818181818,
                "pitch": 54,
                "velocity": 64,
                "duration": 0.25909090909090793,
                "tempo": 120.0
            },
            {
                "start_time": 34.75681818181818,
                "end_time": 34.87045454545454,
                "pitch": 54,
                "velocity": 64,
                "duration": 0.11363636363635976,
                "tempo": 120.0
            },
            {
                "start_time": 35.15,
                "end_time": 36.48181818181818,
                "pitch": 49,
                "velocity": 64,
                "duration": 1.3318181818181785,
                "tempo": 120.0
            },
            {
                "start_time": 36.5,
                "end_time": 36.75454545454545,
                "pitch": 53,
                "velocity": 64,
                "duration": 0.2545454545454504,
                "tempo": 120.0
            },
            {
                "start_time": 36.904545454545456,
                "end_time": 37.02272727272727,
                "pitch": 53,
                "velocity": 64,
                "duration": 0.11818181818181728,
                "tempo": 120.0
            },
            {
                "start_time": 37.30681818181818,
                "end_time": 38.63409090909091,
                "pitch": 51,
                "velocity": 64,
                "duration": 1.327272727272728,
                "tempo": 120.0
            },
            {
                "start_time": 38.652272727272724,
                "end_time": 38.902272727272724,
                "pitch": 47,
                "velocity": 64,
                "duration": 0.25,
                "tempo": 120.0
            },
            {
                "start_time": 39.05227272727272,
                "end_time": 39.17045454545455,
                "pitch": 47,
                "velocity": 64,
                "duration": 0.11818181818182438,
                "tempo": 120.0
            },
            {
                "start_time": 39.45227272727273,
                "end_time": 40.78181818181818,
                "pitch": 49,
                "velocity": 64,
                "duration": 1.3295454545454533,
                "tempo": 120.0
            },
            {
                "start_time": 40.79772727272727,
                "end_time": 41.184090909090905,
                "pitch": 58,
                "velocity": 64,
                "duration": 0.38636363636363313,
                "tempo": 120.0
            },
            {
                "start_time": 41.20227272727273,
                "end_time": 41.861363636363635,
                "pitch": 59,
                "velocity": 64,
                "duration": 0.6590909090909065,
                "tempo": 120.0
            },
            {
                "start_time": 41.877272727272725,
                "end_time": 42.127272727272725,
                "pitch": 54,
                "velocity": 64,
                "duration": 0.25,
                "tempo": 120.0
            }
        ],
        "Lead 2 (sawtooth)": [
            {
                "start_time": 1.315909090909091,
                "end_time": 1.434090909090909,
                "pitch": 70,
                "velocity": 64,
                "duration": 0.11818181818181817,
                "tempo": 120.0
            },
            {
                "start_time": 1.4522727272727272,
                "end_time": 1.5704545454545453,
                "pitch": 70,
                "velocity": 64,
                "duration": 0.11818181818181817,
                "tempo": 120.0
            },
            {
                "start_time": 1.5886363636363636,
                "end_time": 1.843181818181818,
                "pitch": 70,
                "velocity": 64,
                "duration": 0.2545454545454544,
                "tempo": 120.0
            },
            {
                "start_time": 1.859090909090909,
                "end_time": 2.1159090909090907,
                "pitch": 70,
                "velocity": 64,
                "duration": 0.25681818181818183,
                "tempo": 120.0
            },
            {
                "start_time": 2.131818181818182,
                "end_time": 2.3863636363636362,
                "pitch": 70,
                "velocity": 64,
                "duration": 0.2545454545454544,
                "tempo": 120.0
            },
            {
                "start_time": 2.4045454545454543,
                "end_time": 2.5204545454545455,
                "pitch": 71,
                "velocity": 64,
                "duration": 0.11590909090909118,
                "tempo": 120.0
            },
            {
                "start_time": 2.536363636363636,
                "end_time": 3.1886363636363635,
                "pitch": 71,
                "velocity": 64,
                "duration": 0.6522727272727273,
                "tempo": 120.0
            },
            {
                "start_time": 5.620454545454545,
                "end_time": 5.738636363636363,
                "pitch": 70,
                "velocity": 64,
                "duration": 0.11818181818181817,
                "tempo": 120.0
            },
            {
                "start_time": 5.756818181818182,
                "end_time": 5.875,
                "pitch": 70,
                "velocity": 64,
                "duration": 0.11818181818181817,
                "tempo": 120.0
            },
            {
                "start_time": 5.893181818181818,
                "end_time": 6.1477272727272725,
                "pitch": 73,
                "velocity": 64,
                "duration": 0.25454545454545485,
                "tempo": 120.0
            },
            {
                "start_time": 6.163636363636363,
                "end_time": 6.413636363636363,
                "pitch": 70,
                "velocity": 64,
                "duration": 0.25,
                "tempo": 120.0
            },
            {
                "start_time": 6.431818181818182,
                "end_time": 6.681818181818182,
                "pitch": 73,
                "velocity": 64,
                "duration": 0.25,
                "tempo": 120.0
            },
            {
                "start_time": 6.697727272727272,
                "end_time": 6.8181818181818175,
                "pitch": 75,
                "velocity": 64,
                "duration": 0.12045454545454515,
                "tempo": 120.0
            },
            {
                "start_time": 6.834090909090909,
                "end_time": 6.952272727272727,
                "pitch": 70,
                "velocity": 64,
                "duration": 0.11818181818181817,
                "tempo": 120.0
            },
            {
                "start_time": 7.24090909090909,
                "end_time": 7.486363636363636,
                "pitch": 73,
                "velocity": 64,
                "duration": 0.24545454545454604,
                "tempo": 120.0
            },
            {
                "start_time": 7.504545454545454,
                "end_time": 7.618181818181818,
                "pitch": 75,
                "velocity": 64,
                "duration": 0.1136363636363642,
                "tempo": 120.0
            },
            {
                "start_time": 7.634090909090909,
                "end_time": 7.75,
                "pitch": 70,
                "velocity": 64,
                "duration": 0.11590909090909118,
                "tempo": 120.0
            },
            {
                "start_time": 9.922727272727272,
                "end_time": 10.040909090909091,
                "pitch": 70,
                "velocity": 64,
                "duration": 0.11818181818181905,
                "tempo": 120.0
            },
            {
                "start_time": 10.056818181818182,
                "end_time": 10.172727272727272,
                "pitch": 70,
                "velocity": 64,
                "duration": 0.1159090909090903,
                "tempo": 120.0
            },
            {
                "start_time": 10.19090909090909,
                "end_time": 10.44090909090909,
                "pitch": 70,
                "velocity": 64,
                "duration": 0.25,
                "tempo": 120.0
            },
            {
                "start_time": 10.459090909090909,
                "end_time": 10.713636363636363,
                "pitch": 70,
                "velocity": 64,
                "duration": 0.25454545454545396,
                "tempo": 120.0
            },
            {
                "start_time": 10.729545454545454,
                "end_time": 10.98409090909091,
                "pitch": 70,
                "velocity": 64,
                "duration": 0.25454545454545574,
                "tempo": 120.0
            },
            {
                "start_time": 11.002272727272727,
                "end_time": 11.118181818181817,
                "pitch": 71,
                "velocity": 64,
                "duration": 0.1159090909090903,
                "tempo": 120.0
            },
            {
                "start_time": 11.136363636363637,
                "end_time": 11.786363636363635,
                "pitch": 71,
                "velocity": 64,
                "duration": 0.6499999999999986,
                "tempo": 120.0
            },
            {
                "start_time": 14.218181818181817,
                "end_time": 14.336363636363636,
                "pitch": 70,
                "velocity": 64,
                "duration": 0.11818181818181905,
                "tempo": 120.0
            },
            {
                "start_time": 14.354545454545454,
                "end_time": 14.472727272727273,
                "pitch": 70,
                "velocity": 64,
                "duration": 0.11818181818181905,
                "tempo": 120.0
            },
            {
                "start_time": 14.49090909090909,
                "end_time": 14.745454545454544,
                "pitch": 73,
                "velocity": 64,
                "duration": 0.25454545454545396,
                "tempo": 120.0
            },
            {
                "start_time": 14.761363636363635,
                "end_time": 15.018181818181818,
                "pitch": 70,
                "velocity": 64,
                "duration": 0.2568181818181827,
                "tempo": 120.0
            },
            {
                "start_time": 15.034090909090908,
                "end_time": 15.288636363636362,
                "pitch": 73,
                "velocity": 64,
                "duration": 0.25454545454545396,
                "tempo": 120.0
            },
            {
                "start_time": 15.304545454545455,
                "end_time": 15.422727272727272,
                "pitch": 75,
                "velocity": 64,
                "duration": 0.11818181818181728,
                "tempo": 120.0
            },
            {
                "start_time": 15.438636363636363,
                "end_time": 15.556818181818182,
                "pitch": 70,
                "velocity": 64,
                "duration": 0.11818181818181905,
                "tempo": 120.0
            },
            {
                "start_time": 15.572727272727272,
                "end_time": 16.35681818181818,
                "pitch": 70,
                "velocity": 64,
                "duration": 0.7840909090909083,
                "tempo": 120.0
            },
            {
                "start_time": 16.64090909090909,
                "end_time": 16.893181818181816,
                "pitch": 70,
                "velocity": 64,
                "duration": 0.2522727272727252,
                "tempo": 120.0
            },
            {
                "start_time": 16.909090909090907,
                "end_time": 17.163636363636364,
                "pitch": 73,
                "velocity": 64,
                "duration": 0.2545454545454575,
                "tempo": 120.0
            },
            {
                "start_time": 17.18181818181818,
                "end_time": 17.570454545454545,
                "pitch": 75,
                "velocity": 64,
                "duration": 0.38863636363636545,
                "tempo": 120.0
            },
            {
                "start_time": 17.586363636363636,
                "end_time": 18.238636363636363,
                "pitch": 73,
                "velocity": 64,
                "duration": 0.6522727272727273,
                "tempo": 120.0
            },
            {
                "start_time": 18.788636363636364,
                "end_time": 19.038636363636364,
                "pitch": 73,
                "velocity": 64,
                "duration": 0.25,
                "tempo": 120.0
            },
            {
                "start_time": 19.05681818181818,
                "end_time": 19.311363636363634,
                "pitch": 75,
                "velocity": 64,
                "duration": 0.25454545454545396,
                "tempo": 120.0
            },
            {
                "start_time": 19.327272727272728,
                "end_time": 19.71590909090909,
                "pitch": 68,
                "velocity": 64,
                "duration": 0.3886363636363619,
                "tempo": 120.0
            },
            {
                "start_time": 19.73409090909091,
                "end_time": 20.384090909090908,
                "pitch": 66,
                "velocity": 64,
                "duration": 0.6499999999999986,
                "tempo": 120.0
            },
            {
                "start_time": 20.804545454545455,
                "end_time": 21.195454545454545,
                "pitch": 70,
                "velocity": 64,
                "duration": 0.39090909090909065,
                "tempo": 120.0
            },
            {
                "start_time": 21.21363636363636,
                "end_time": 21.46363636363636,
                "pitch": 73,
                "velocity": 64,
                "duration": 0.25,
                "tempo": 120.0
            },
            {
                "start_time": 21.479545454545452,
                "end_time": 21.863636363636363,
                "pitch": 75,
                "velocity": 64,
                "duration": 0.3840909090909115,
                "tempo": 120.0
            },
            {
                "start_time": 21.879545454545454,
                "end_time": 22.536363636363635,
                "pitch": 73,
                "velocity": 64,
                "duration": 0.6568181818181813,
                "tempo": 120.0
            },
            {
                "start_time": 23.627272727272725,
                "end_time": 23.877272727272725,
                "pitch": 75,
                "velocity": 64,
                "duration": 0.25,
                "tempo": 120.0
            },
            {
                "start_time": 23.895454545454545,
                "end_time": 24.15,
                "pitch": 75,
                "velocity": 64,
                "duration": 0.25454545454545396,
                "tempo": 120.0
            },
            {
                "start_time": 24.16590909090909,
                "end_time": 24.420454545454543,
                "pitch": 75,
                "velocity": 64,
                "duration": 0.25454545454545396,
                "tempo": 120.0
            },
            {
                "start_time": 24.438636363636363,
                "end_time": 24.554545454545455,
                "pitch": 75,
                "velocity": 64,
                "duration": 0.11590909090909207,
                "tempo": 120.0
            },
            {
                "start_time": 24.570454545454545,
                "end_time": 25.5,
                "pitch": 77,
                "velocity": 64,
                "duration": 0.9295454545454547,
                "tempo": 120.0
            },
            {
                "start_time": 25.784090909090907,
                "end_time": 26.168181818181818,
                "pitch": 82,
                "velocity": 64,
                "duration": 0.3840909090909115,
                "tempo": 120.0
            },
            {
                "start_time": 26.18409090909091,
                "end_time": 26.568181818181817,
                "pitch": 80,
                "velocity": 64,
                "duration": 0.38409090909090793,
                "tempo": 120.0
            },
            {
                "start_time": 26.586363636363636,
                "end_time": 27.111363636363635,
                "pitch": 83,
                "velocity": 64,
                "duration": 0.5249999999999986,
                "tempo": 120.0
            },
            {
                "start_time": 27.129545454545454,
                "end_time": 27.379545454545454,
                "pitch": 82,
                "velocity": 64,
                "duration": 0.25,
                "tempo": 120.0
            },
            {
                "start_time": 27.395454545454545,
                "end_time": 27.64772727272727,
                "pitch": 80,
                "velocity": 64,
                "duration": 0.2522727272727252,
                "tempo": 120.0
            },
            {
                "start_time": 27.663636363636364,
                "end_time": 27.913636363636364,
                "pitch": 78,
                "velocity": 64,
                "duration": 0.25,
                "tempo": 120.0
            },
            {
                "start_time": 27.929545454545455,
                "end_time": 28.318181818181817,
                "pitch": 80,
                "velocity": 64,
                "duration": 0.3886363636363619,
                "tempo": 120.0
            },
            {
                "start_time": 28.334090909090907,
                "end_time": 28.724999999999998,
                "pitch": 78,
                "velocity": 64,
                "duration": 0.39090909090909065,
                "tempo": 120.0
            },
            {
                "start_time": 28.74090909090909,
                "end_time": 30.065909090909088,
                "pitch": 82,
                "velocity": 64,
                "duration": 1.3249999999999993,
                "tempo": 120.0
            },
            {
                "start_time": 30.081818181818182,
                "end_time": 30.470454545454544,
                "pitch": 75,
                "velocity": 64,
                "duration": 0.3886363636363619,
                "tempo": 120.0
            },
            {
                "start_time": 30.488636363636363,
                "end_time": 30.87272727272727,
                "pitch": 78,
                "velocity": 64,
                "duration": 0.38409090909090793,
                "tempo": 120.0
            },
            {
                "start_time": 30.888636363636362,
                "end_time": 31.41590909090909,
                "pitch": 80,
                "velocity": 64,
                "duration": 0.5272727272727273,
                "tempo": 120.0
            },
            {
                "start_time": 31.43181818181818,
                "end_time": 31.68409090909091,
                "pitch": 80,
                "velocity": 64,
                "duration": 0.25227272727272876,
                "tempo": 120.0
            },
            {
                "start_time": 31.7,
                "end_time": 31.95,
                "pitch": 80,
                "velocity": 64,
                "duration": 0.25,
                "tempo": 120.0
            },
            {
                "start_time": 31.968181818181815,
                "end_time": 32.08409090909091,
                "pitch": 78,
                "velocity": 64,
                "duration": 0.11590909090909562,
                "tempo": 120.0
            },
            {
                "start_time": 32.1,
                "end_time": 33.29090909090909,
                "pitch": 82,
                "velocity": 64,
                "duration": 1.1909090909090878,
                "tempo": 120.0
            },
            {
                "start_time": 34.38181818181818,
                "end_time": 34.77272727272727,
                "pitch": 82,
                "velocity": 64,
                "duration": 0.39090909090909065,
                "tempo": 120.0
            },
            {
                "start_time": 34.788636363636364,
                "end_time": 35.16590909090909,
                "pitch": 80,
                "velocity": 64,
                "duration": 0.3772727272727252,
                "tempo": 120.0
            },
            {
                "start_time": 35.184090909090905,
                "end_time": 35.70909090909091,
                "pitch": 83,
                "velocity": 64,
                "duration": 0.5250000000000057,
                "tempo": 120.0
            },
            {
                "start_time": 35.72727272727273,
                "end_time": 35.97727272727273,
                "pitch": 82,
                "velocity": 64,
                "duration": 0.25,
                "tempo": 120.0
            },
            {
                "start_time": 35.99318181818182,
                "end_time": 36.24545454545454,
                "pitch": 80,
                "velocity": 64,
                "duration": 0.2522727272727252,
                "tempo": 120.0
            },
            {
                "start_time": 36.26136363636363,
                "end_time": 36.51590909090909,
                "pitch": 78,
                "velocity": 64,
                "duration": 0.2545454545454575,
                "tempo": 120.0
            },
            {
                "start_time": 36.53409090909091,
                "end_time": 36.92272727272727,
                "pitch": 80,
                "velocity": 64,
                "duration": 0.38863636363636545,
                "tempo": 120.0
            },
            {
                "start_time": 36.93863636363636,
                "end_time": 37.32272727272727,
                "pitch": 78,
                "velocity": 64,
                "duration": 0.38409090909090793,
                "tempo": 120.0
            },
            {
                "start_time": 37.33863636363636,
                "end_time": 38.668181818181814,
                "pitch": 82,
                "velocity": 64,
                "duration": 1.3295454545454533,
                "tempo": 120.0
            },
            {
                "start_time": 38.684090909090905,
                "end_time": 39.06818181818181,
                "pitch": 75,
                "velocity": 64,
                "duration": 0.38409090909090793,
                "tempo": 120.0
            },
            {
                "start_time": 39.086363636363636,
                "end_time": 39.470454545454544,
                "pitch": 78,
                "velocity": 64,
                "duration": 0.38409090909090793,
                "tempo": 120.0
            },
            {
                "start_time": 39.486363636363635,
                "end_time": 40.54772727272727,
                "pitch": 80,
                "velocity": 64,
                "duration": 1.0613636363636374,
                "tempo": 120.0
            },
            {
                "start_time": 40.56590909090909,
                "end_time": 40.68181818181818,
                "pitch": 78,
                "velocity": 64,
                "duration": 0.11590909090909207,
                "tempo": 120.0
            },
            {
                "start_time": 40.69772727272727,
                "end_time": 41.893181818181816,
                "pitch": 78,
                "velocity": 64,
                "duration": 1.1954545454545453,
                "tempo": 120.0
            }
        ]
    }
}