{
    "mood": "angry",
    "instruments": {
        "Electric Piano 1": [
            {
                "start_time": 0.0477273,
                "end_time": 0.2613636,
                "pitch": 62,
                "velocity": 40,
                "duration": 0.2136364,
                "tempo": 120.0
            },
            {
                "start_time": 0.2613636,
                "end_time": 0.3613636,
                "pitch": 60,
                "velocity": 40,
                "duration": 0.1,
                "tempo": 120.0
            },
            {
                "start_time": 0.3613636,
                "end_time": 0.4772727,
                "pitch": 57,
                "velocity": 40,
                "duration": 0.1159091,
                "tempo": 120.0
            },
            {
                "start_time": 0.4795455,
                "end_time": 0.5795455,
                "pitch": 60,
                "velocity": 40,
                "duration": 0.1,
                "tempo": 120.0
            },
            {
                "start_time": 0.7,
                "end_time": 0.8022727,
                "pitch": 57,
                "velocity": 40,
                "duration": 0.1022727,
                "tempo": 120.0
            },
            {
                "start_time": 0.8022727,
                "end_time": 0.9045455,
                "pitch": 60,
                "velocity": 40,
                "duration": 0.1022727,
                "tempo": 120.0
            },
            {
                "start_time": 1.0204545,
                "end_time": 1.1159091,
                "pitch": 57,
                "velocity": 40,
                "duration": 0.0954545,
                "tempo": 120.0
            },
            {
                "start_time": 1.1181818,
                "end_time": 1.2318182,
                "pitch": 64,
                "velocity": 40,
                "duration": 0.1136364,
                "tempo": 120.0
            },
            {
                "start_time": 1.3318182,
                "end_time": 1.4454545,
                "pitch": 57,
                "velocity": 40,
                "duration": 0.1136364,
                "tempo": 120.0
            },
            {
                "start_time": 1.4477273,
                "end_time": 1.5454545,
                "pitch": 60,
                "velocity": 40,
                "duration": 0.0977273,
                "tempo": 120.0
            },
            {
                "start_time": 1.6477273,
                "end_time": 1.7636364,
                "pitch": 57,
                "velocity": 40,
                "duration": 0.1159091,
                "tempo": 120.0
            },
            {
                "start_time": 1.7659091,
                "end_time": 1.8636364,
                "pitch": 60,
                "velocity": 40,
                "duration": 0.0977273,
                "tempo": 120.0
            },
            {
                "start_time": 1.9818182,
                "end_time": 2.0795455,
                "pitch": 62,
                "velocity": 40,
                "duration": 0.0977273,
                "tempo": 120.0
            },
            {
                "start_time": 2.0818182,
                "end_time": 2.1977273,
                "pitch": 59,
                "velocity": 40,
                "duration": 0.1159091,
                "tempo": 120.0
            },
            {
                "start_time": 2.1977273,
                "end_time": 2.2977273,
                "pitch": 62,
                "velocity": 40,
                "duration": 0.1,
                "tempo": 120.0
            },
            {
                "start_time": 2.3977273,
                "end_time": 2.5136364,
                "pitch": 59,
                "velocity": 40,
                "duration": 0.1159091,
                "tempo": 120.0
            },
            {
                "start_time": 2.5159091,
                "end_time": 2.6136364,
                "pitch": 62,
                "velocity": 40,
                "duration": 0.0977273,
                "tempo": 120.0
            },
            {
                "start_time": 2.7295455,
                "end_time": 2.8272727,
                "pitch": 59,
                "velocity": 40,
                "duration": 0.0977273,
                "tempo": 120.0
            },
            {
                "start_time": 2.8272727,
                "end_time": 2.9409091,
                "pitch": 66,
                "velocity": 40,
                "duration": 0.1136364,
                "tempo": 120.0
            },
            {
                "start_time": 3.0409091,
                "end_time": 3.1386364,
                "pitch": 59,
                "velocity": 40,
                "duration": 0.0977273,
                "tempo": 120.0
            },
            {
                "start_time": 3.1409091,
                "end_time": 3.2568182,
                "pitch": 62,
                "velocity": 40,
                "duration": 0.1159091,
                "tempo": 120.0
            },
            {
                "start_time": 3.3568182,
                "end_time": 3.4727273,
                "pitch": 59,
                "velocity": 40,
                "duration": 0.1159091,
                "tempo": 120.0
            },
            {
                "start_time": 3.475,
                "end_time": 3.5727273,
                "pitch": 62,
                "velocity": 40,
                "duration": 0.0977273,
                "tempo": 120.0
            },
            {
                "start_time": 3.6909091,
                "end_time": 3.7909091,
                "pitch": 64,
                "velocity": 40,
                "duration": 0.1,
                "tempo": 120.0
            },
            {
                "start_time": 3.7909091,
                "end_time": 3.8909091,
                "pitch": 60,
                "velocity": 40,
                "duration": 0.1,
                "tempo": 120.0
            },
            {
                "start_time": 3.8909091,
                "end_time": 4.0045455,
                "pitch": 64,
                "velocity": 40,
                "duration": 0.1136364,
                "tempo": 120.0
            },
            {
                "start_time": 4.1045455,
                "end_time": 4.2181818,
                "pitch": 60,
                "velocity": 40,
                "duration": 0.1136364,
                "tempo": 120.0
            },
            {
                "start_time": 4.2181818,
                "end_time": 4.3159091,
                "pitch": 64,
                "velocity": 40,
                "duration": 0.0977273,
                "tempo": 120.0
            },
            {
                "start_time": 4.4318182,
                "end_time": 4.5318182,
                "pitch": 60,
                "velocity": 40,
                "duration": 0.1,
                "tempo": 120.0
            },
            {
                "start_time": 4.5340909,
                "end_time": 4.6318182,
                "pitch": 67,
                "velocity": 40,
                "duration": 0.0977273,
                "tempo": 120.0
            },
            {
                "start_time": 4.75,
                "end_time": 4.85,
                "pitch": 60,
                "velocity": 40,
                "duration": 0.1,
                "tempo": 120.0
            },
            {
                "start_time": 4.85,
                "end_time": 4.9659091,
                "pitch": 64,
                "velocity": 40,
                "duration": 0.1159091,
                "tempo": 120.0
            },
            {
                "start_time": 5.0659091,
                "end_time": 5.1840909,
                "pitch": 60,
                "velocity": 40,
                "duration": 0.1181818,
                "tempo": 120.0
            },
            {
                "start_time": 5.1840909,
                "end_time": 5.2840909,
                "pitch": 64,
                "velocity": 40,
                "duration": 0.1,
                "tempo": 120.0
            },
            {
                "start_time": 5.3886364,
                "end_time": 5.5068182,
                "pitch": 62,
                "velocity": 40,
                "duration": 0.1181818,
                "tempo": 120.0
            },
            {
                "start_time": 5.5068182,
                "end_time": 5.6090909,
                "pitch": 59,
                "velocity": 40,
                "duration": 0.1022727,
                "tempo": 120.0
            },
            {
                "start_time": 5.6113636,
                "end_time": 5.7204545,
                "pitch": 62,
                "velocity": 40,
                "duration": 0.1090909,
                "tempo": 120.0
            },
            {
                "start_time": 5.8159091,
                "end_time": 5.9272727,
                "pitch": 59,
                "velocity": 40,
                "duration": 0.1113636,
                "tempo": 120.0
            },
            {
                "start_time": 5.9272727,
                "end_time": 6.0227273,
                "pitch": 62,
                "velocity": 40,
                "duration": 0.0954545,
                "tempo": 120.0
            },
            {
                "start_time": 6.1227273,
                "end_time": 6.2386364,
                "pitch": 59,
                "velocity": 40,
                "duration": 0.1159091,
                "tempo": 120.0
            },
            {
                "start_time": 6.2409091,
                "end_time": 6.3386364,
                "pitch": 66,
                "velocity": 40,
                "duration": 0.0977273,
                "tempo": 120.0
            },
            {
                "start_time": 6.4568182,
                "end_time": 6.5568182,
                "pitch": 59,
                "velocity": 40,
                "duration": 0.1,
                "tempo": 120.0
            },
            {
                "start_time": 6.5568182,
                "end_time": 6.6727273,
                "pitch": 62,
                "velocity": 40,
                "duration": 0.1159091,
                "tempo": 120.0
            },
            {
                "start_time": 6.775,
                "end_time": 6.875,
                "pitch": 59,
                "velocity": 40,
                "duration": 0.1,
                "tempo": 120.0
            },
            {
                "start_time": 6.875,
                "end_time": 6.9886364,
                "pitch": 62,
                "velocity": 40,
                "duration": 0.1136364,
                "tempo": 120.0
            },
            {
                "start_time": 7.0863636,
                "end_time": 7.2,
                "pitch": 64,
                "velocity": 40,
                "duration": 0.1136364,
                "tempo": 120.0
            },
            {
                "start_time": 7.2,
                "end_time": 7.2977273,
                "pitch": 60,
                "velocity": 40,
                "duration": 0.0977273,
                "tempo": 120.0
            },
            {
                "start_time": 7.3,
                "end_time": 7.4159091,
                "pitch": 64,
                "velocity": 40,
                "duration": 0.1159091,
                "tempo": 120.0
            },
            {
                "start_time": 7.5159091,
                "end_time": 7.6159091,
                "pitch": 60,
                "velocity": 40,
                "duration": 0.1,
                "tempo": 120.0
            },
            {
                "start_time": 7.6159091,
                "end_time": 7.7318182,
                "pitch": 64,
                "velocity": 40,
                "duration": 0.1159091,
                "tempo": 120.0
            },
            {
                "start_time": 7.8340909,
                "end_time": 7.95,
                "pitch": 60,
                "velocity": 40,
                "duration": 0.1159091,
                "tempo": 120.0
            },
            {
                "start_time": 7.95,
                "end_time": 8.05,
                "pitch": 67,
                "velocity": 40,
                "duration": 0.1,
                "tempo": 120.0
            },
            {
                "start_time": 8.1681818,
                "end_time": 8.2681818,
                "pitch": 60,
                "velocity": 40,
                "duration": 0.1,
                "tempo": 120.0
            },
            {
                "start_time": 8.2704545,
                "end_time": 8.3704545,
                "pitch": 64,
                "velocity": 40,
                "duration": 0.1,
                "tempo": 120.0
            },
            {
                "start_time": 8.4909091,
                "end_time": 8.5931818,
                "pitch": 60,
                "velocity": 40,
                "duration": 0.1022727,
                "tempo": 120.0
            },
            {
                "start_time": 8.5931818,
                "end_time": 8.7068182,
                "pitch": 64,
                "velocity": 40,
                "duration": 0.1136364,
                "tempo": 120.0
            },
            {
                "start_time": 8.8068182,
                "end_time": 8.9204545,
                "pitch": 66,
                "velocity": 40,
                "duration": 0.1136364,
                "tempo": 120.0
            },
            {
                "start_time": 8.9204545,
                "end_time": 9.0181818,
                "pitch": 62,
                "velocity": 40,
                "duration": 0.0977273,
                "tempo": 120.0
            },
            {
                "start_time": 9.0181818,
                "end_time": 9.1181818,
                "pitch": 66,
                "velocity": 40,
                "duration": 0.1,
                "tempo": 120.0
            },
            {
                "start_time": 9.2340909,
                "end_time": 9.3340909,
                "pitch": 62,
                "velocity": 40,
                "duration": 0.1,
                "tempo": 120.0
            },
            {
                "start_time": 9.3363636,
                "end_time": 9.4522727,
                "pitch": 66,
                "velocity": 40,
                "duration": 0.1159091,
                "tempo": 120.0
            },
            {
                "start_time": 9.5522727,
                "end_time": 9.6681818,
                "pitch": 62,
                "velocity": 40,
                "duration": 0.1159091,
                "tempo": 120.0
            },
            {
                "start_time": 9.6704545,
                "end_time": 9.7681818,
                "pitch": 69,
                "velocity": 40,
                "duration": 0.0977273,
                "tempo": 120.0
            },
            {
                "start_time": 9.8704545,
                "end_time": 9.9795455,
                "pitch": 62,
                "velocity": 40,
                "duration": 0.1090909,
                "tempo": 120.0
            },
            {
                "start_time": 9.9818182,
                "end_time": 10.075,
                "pitch": 66,
                "velocity": 40,
                "duration": 0.0931818,
                "tempo": 120.0
            },
            {
                "start_time": 10.1863636,
                "end_time": 10.2818182,
                "pitch": 62,
                "velocity": 40,
                "duration": 0.0954545,
                "tempo": 120.0
            },
            {
                "start_time": 10.2840909,
                "end_time": 10.3977273,
                "pitch": 66,
                "velocity": 40,
                "duration": 0.1136364,
                "tempo": 120.0
            },
            {
                "start_time": 10.5,
                "end_time": 10.5977273,
                "pitch": 67,
                "velocity": 40,
                "duration": 0.0977273,
                "tempo": 120.0
            },
            {
                "start_time": 10.6,
                "end_time": 10.7159091,
                "pitch": 64,
                "velocity": 40,
                "duration": 0.1159091,
                "tempo": 120.0
            },
            {
                "start_time": 10.7181818,
                "end_time": 10.8181818,
                "pitch": 67,
                "velocity": 40,
                "duration": 0.1,
                "tempo": 120.0
            },
            {
                "start_time": 10.9386364,
                "end_time": 11.0409091,
                "pitch": 64,
                "velocity": 40,
                "duration": 0.1022727,
                "tempo": 120.0
            },
            {
                "start_time": 11.0409091,
                "end_time": 11.1590909,
                "pitch": 67,
                "velocity": 40,
                "duration": 0.1181818,
                "tempo": 120.0
            },
            {
                "start_time": 11.2590909,
                "end_time": 11.3590909,
                "pitch": 64,
                "velocity": 40,
                "duration": 0.1,
                "tempo": 120.0
            },
            {
                "start_time": 11.3613636,
                "end_time": 11.4772727,
                "pitch": 71,
                "velocity": 40,
                "duration": 0.1159091,
                "tempo": 120.0
            },
            {
                "start_time": 11.5772727,
                "end_time": 11.6863636,
                "pitch": 64,
                "velocity": 40,
                "duration": 0.1090909,
                "tempo": 120.0
            },
            {
                "start_time": 11.6886364,
                "end_time": 11.7840909,
                "pitch": 67,
                "velocity": 40,
                "duration": 0.0954545,
                "tempo": 120.0
            },
            {
                "start_time": 11.8954545,
                "end_time": 11.9909091,
                "pitch": 64,
                "velocity": 40,
                "duration": 0.0954545,
                "tempo": 120.0
            },
            {
                "start_time": 11.9909091,
                "end_time": 12.0909091,
                "pitch": 67,
                "velocity": 40,
                "duration": 0.1,
                "tempo": 120.0
            },
            {
                "start_time": 12.2113636,
                "end_time": 12.3136364,
                "pitch": 66,
                "velocity": 40,
                "duration": 0.1022727,
                "tempo": 120.0
            },
            {
                "start_time": 12.3136364,
                "end_time": 12.4318182,
                "pitch": 62,
                "velocity": 40,
                "duration": 0.1181818,
                "tempo": 120.0
            },
            {
                "start_time": 12.4340909,
                "end_time": 12.5318182,
                "pitch": 66,
                "velocity": 40,
                "duration": 0.0977273,
                "tempo": 120.0
            },
            {
                "start_time": 12.65,
                "end_time": 12.75,
                "pitch": 62,
                "velocity": 40,
                "duration": 0.1,
                "tempo": 120.0
            },
            {
                "start_time": 12.75,
                "end_time": 12.85,
                "pitch": 66,
                "velocity": 40,
                "duration": 0.1,
                "tempo": 120.0
            },
            {
                "start_time": 12.9613636,
                "end_time": 13.0568182,
                "pitch": 62,
                "velocity": 40,
                "duration": 0.0954545,
                "tempo": 120.0
            },
            {
                "start_time": 13.0568182,
                "end_time": 13.1681818,
                "pitch": 69,
                "velocity": 40,
                "duration": 0.1113636,
                "tempo": 120.0
            },
            {
                "start_time": 13.2636364,
                "end_time": 13.3818182,
                "pitch": 62,
                "velocity": 40,
                "duration": 0.1181818,
                "tempo": 120.0
            },
            {
                "start_time": 13.3818182,
                "end_time": 13.4840909,
                "pitch": 66,
                "velocity": 40,
                "duration": 0.1022727,
                "tempo": 120.0
            },
            {
                "start_time": 13.5863636,
                "end_time": 13.7068182,
                "pitch": 62,
                "velocity": 40,
                "duration": 0.1204545,
                "tempo": 120.0
            },
            {
                "start_time": 13.7090909,
                "end_time": 13.8068182,
                "pitch": 66,
                "velocity": 40,
                "duration": 0.0977273,
                "tempo": 120.0
            },
            {
                "start_time": 13.925,
                "end_time": 14.0227273,
                "pitch": 64,
                "velocity": 40,
                "duration": 0.0977273,
                "tempo": 120.0
            },
            {
                "start_time": 14.0227273,
                "end_time": 14.1227273,
                "pitch": 66,
                "velocity": 40,
                "duration": 0.1,
                "tempo": 120.0
            },
            {
                "start_time": 14.1227273,
                "end_time": 14.2409091,
                "pitch": 59,
                "velocity": 40,
                "duration": 0.1181818,
                "tempo": 120.0
            },
            {
                "start_time": 14.3409091,
                "end_time": 14.4568182,
                "pitch": 64,
                "velocity": 40,
                "duration": 0.1159091,
                "tempo": 120.0
            },
            {
                "start_time": 14.4590909,
                "end_time": 14.5568182,
                "pitch": 59,
                "velocity": 40,
                "duration": 0.0977273,
                "tempo": 120.0
            },
            {
                "start_time": 14.6727273,
                "end_time": 14.7704545,
                "pitch": 64,
                "velocity": 40,
                "duration": 0.0977273,
                "tempo": 120.0
            },
            {
                "start_time": 14.8681818,
                "end_time": 14.9818182,
                "pitch": 59,
                "velocity": 40,
                "duration": 0.1136364,
                "tempo": 120.0
            },
            {
                "start_time": 14.9840909,
                "end_time": 15.0818182,
                "pitch": 64,
                "velocity": 40,
                "duration": 0.0977273,
                "tempo": 120.0
            },
            {
                "start_time": 15.0840909,
                "end_time": 15.2,
                "pitch": 66,
                "velocity": 40,
                "duration": 0.1159091,
                "tempo": 120.0
            },
            {
                "start_time": 15.2,
                "end_time": 15.2977273,
                "pitch": 67,
                "velocity": 40,
                "duration": 0.0977273,
                "tempo": 120.0
            },
            {
                "start_time": 15.3,
                "end_time": 15.4159091,
                "pitch": 66,
                "velocity": 40,
                "duration": 0.1159091,
                "tempo": 120.0
            },
            {
                "start_time": 15.4181818,
                "end_time": 15.5159091,
                "pitch": 64,
                "velocity": 40,
                "duration": 0.0977273,
                "tempo": 120.0
            },
            {
                "start_time": 15.5159091,
                "end_time": 15.6159091,
                "pitch": 62,
                "velocity": 40,
                "duration": 0.1,
                "tempo": 120.0
            },
            {
                "start_time": 15.6159091,
                "end_time": 15.7318182,
                "pitch": 66,
                "velocity": 40,
                "duration": 0.1159091,
                "tempo": 120.0
            },
            {
                "start_time": 15.7340909,
                "end_time": 15.8340909,
                "pitch": 67,
                "velocity": 40,
                "duration": 0.1,
                "tempo": 120.0
            },
            {
                "start_time": 15.8340909,
                "end_time": 15.9477273,
                "pitch": 66,
                "velocity": 40,
                "duration": 0.1136364,
                "tempo": 120.0
            },
            {
                "start_time": 16.0454545,
                "end_time": 16.1590909,
                "pitch": 64,
                "velocity": 40,
                "duration": 0.1136364,
                "tempo": 120.0
            },
            {
                "start_time": 16.1613636,
                "end_time": 16.2590909,
                "pitch": 62,
                "velocity": 40,
                "duration": 0.0977273,
                "tempo": 120.0
            },
            {
                "start_time": 16.3590909,
                "end_time": 16.9090909,
                "pitch": 64,
                "velocity": 40,
                "duration": 0.55,
                "tempo": 120.0
            },
            {
                "start_time": 17.3272727,
                "end_time": 17.4431818,
                "pitch": 64,
                "velocity": 40,
                "duration": 0.1159091,
                "tempo": 120.0
            },
            {
                "start_time": 17.4431818,
                "end_time": 17.5431818,
                "pitch": 66,
                "velocity": 40,
                "duration": 0.1,
                "tempo": 120.0
            },
            {
                "start_time": 17.5454545,
                "end_time": 17.6568182,
                "pitch": 60,
                "velocity": 40,
                "duration": 0.1113636,
                "tempo": 120.0
            },
            {
                "start_time": 17.7568182,
                "end_time": 17.8522727,
                "pitch": 64,
                "velocity": 40,
                "duration": 0.0954545,
                "tempo": 120.0
            },
            {
                "start_time": 17.8545455,
                "end_time": 17.9681818,
                "pitch": 60,
                "velocity": 40,
                "duration": 0.1136364,
                "tempo": 120.0
            },
            {
                "start_time": 18.0681818,
                "end_time": 18.1840909,
                "pitch": 64,
                "velocity": 40,
                "duration": 0.1159091,
                "tempo": 120.0
            },
            {
                "start_time": 18.2863636,
                "end_time": 18.4022727,
                "pitch": 60,
                "velocity": 40,
                "duration": 0.1159091,
                "tempo": 120.0
            },
            {
                "start_time": 18.4022727,
                "end_time": 18.5022727,
                "pitch": 64,
                "velocity": 40,
                "duration": 0.1,
                "tempo": 120.0
            },
            {
                "start_time": 18.5022727,
                "end_time": 18.6022727,
                "pitch": 66,
                "velocity": 40,
                "duration": 0.1,
                "tempo": 120.0
            },
            {
                "start_time": 18.6022727,
                "end_time": 18.7181818,
                "pitch": 67,
                "velocity": 40,
                "duration": 0.1159091,
                "tempo": 120.0
            },
            {
                "start_time": 18.7204545,
                "end_time": 18.8181818,
                "pitch": 69,
                "velocity": 40,
                "duration": 0.0977273,
                "tempo": 120.0
            },
            {
                "start_time": 18.8204545,
                "end_time": 18.9340909,
                "pitch": 71,
                "velocity": 40,
                "duration": 0.1136364,
                "tempo": 120.0
            },
            {
                "start_time": 18.9340909,
                "end_time": 19.0318182,
                "pitch": 67,
                "velocity": 40,
                "duration": 0.0977273,
                "tempo": 120.0
            },
            {
                "start_time": 19.0318182,
                "end_time": 19.1454545,
                "pitch": 71,
                "velocity": 40,
                "duration": 0.1136364,
                "tempo": 120.0
            },
            {
                "start_time": 19.1454545,
                "end_time": 19.2431818,
                "pitch": 72,
                "velocity": 40,
                "duration": 0.0977273,
                "tempo": 120.0
            },
            {
                "start_time": 19.2454545,
                "end_time": 19.3431818,
                "pitch": 71,
                "velocity": 40,
                "duration": 0.0977273,
                "tempo": 120.0
            },
            {
                "start_time": 19.4613636,
                "end_time": 19.5613636,
                "pitch": 69,
                "velocity": 40,
                "duration": 0.1,
                "tempo": 120.0
            },
            {
                "start_time": 19.5613636,
                "end_time": 19.6772727,
                "pitch": 67,
                "velocity": 40,
                "duration": 0.1159091,
                "tempo": 120.0
            },
            {
                "start_time": 19.7772727,
                "end_time": 20.3159091,
                "pitch": 69,
                "velocity": 40,
                "duration": 0.5386364,
                "tempo": 120.0
            },
            {
                "start_time": 20.7454545,
                "end_time": 20.8386364,
                "pitch": 64,
                "velocity": 40,
                "duration": 0.0931818,
                "tempo": 120.0
            },
            {
                "start_time": 20.8409091,
                "end_time": 20.9340909,
                "pitch": 66,
                "velocity": 40,
                "duration": 0.0931818,
                "tempo": 120.0
            },
            {
                "start_time": 20.9363636,
                "end_time": 21.0522727,
                "pitch": 59,
                "velocity": 40,
                "duration": 0.1159091,
                "tempo": 120.0
            },
            {
                "start_time": 21.1522727,
                "end_time": 21.2681818,
                "pitch": 64,
                "velocity": 40,
                "duration": 0.1159091,
                "tempo": 120.0
            },
            {
                "start_time": 21.2681818,
                "end_time": 21.3681818,
                "pitch": 59,
                "velocity": 40,
                "duration": 0.1,
                "tempo": 120.0
            },
            {
                "start_time": 21.4840909,
                "end_time": 21.5795455,
                "pitch": 64,
                "velocity": 40,
                "duration": 0.0954545,
                "tempo": 120.0
            },
            {
                "start_time": 21.6795455,
                "end_time": 21.7931818,
                "pitch": 59,
                "velocity": 40,
                "duration": 0.1136364,
                "tempo": 120.0
            },
            {
                "start_time": 21.7954545,
                "end_time": 21.8931818,
                "pitch": 64,
                "velocity": 40,
                "duration": 0.0977273,
                "tempo": 120.0
            },
            {
                "start_time": 21.8931818,
                "end_time": 22.0090909,
                "pitch": 66,
                "velocity": 40,
                "duration": 0.1159091,
                "tempo": 120.0
            },
            {
                "start_time": 22.0113636,
                "end_time": 22.1090909,
                "pitch": 67,
                "velocity": 40,
                "duration": 0.0977273,
                "tempo": 120.0
            },
            {
                "start_time": 22.1113636,
                "end_time": 22.2272727,
                "pitch": 66,
                "velocity": 40,
                "duration": 0.1159091,
                "tempo": 120.0
            },
            {
                "start_time": 22.2295455,
                "end_time": 22.3272727,
                "pitch": 64,
                "velocity": 40,
                "duration": 0.0977273,
                "tempo": 120.0
            },
            {
                "start_time": 22.3272727,
                "end_time": 22.4272727,
                "pitch": 62,
                "velocity": 40,
                "duration": 0.1,
                "tempo": 120.0
            },
            {
                "start_time": 22.4272727,
                "end_time": 22.5431818,
                "pitch": 66,
                "velocity": 40,
                "duration": 0.1159091,
                "tempo": 120.0
            },
            {
                "start_time": 22.5454545,
                "end_time": 22.6454545,
                "pitch": 67,
                "velocity": 40,
                "duration": 0.1,
                "tempo": 120.0
            },
            {
                "start_time": 22.6454545,
                "end_time": 22.7590909,
                "pitch": 66,
                "velocity": 40,
                "duration": 0.1136364,
                "tempo": 120.0
            },
            {
                "start_time": 22.8568182,
                "end_time": 22.9704545,
                "pitch": 64,
                "velocity": 40,
                "duration": 0.1136364,
                "tempo": 120.0
            },
            {
                "start_time": 22.9727273,
                "end_time": 23.0681818,
                "pitch": 62,
                "velocity": 40,
                "duration": 0.0954545,
                "tempo": 120.0
            },
            {
                "start_time": 23.1704545,
                "end_time": 23.7204545,
                "pitch": 64,
                "velocity": 40,
                "duration": 0.55,
                "tempo": 120.0
            },
            {
                "start_time": 24.1386364,
                "end_time": 24.2545455,
                "pitch": 64,
                "velocity": 40,
                "duration": 0.1159091,
                "tempo": 120.0
            },
            {
                "start_time": 24.2545455,
                "end_time": 24.3545455,
                "pitch": 66,
                "velocity": 40,
                "duration": 0.1,
                "tempo": 120.0
            },
            {
                "start_time": 24.3545455,
                "end_time": 24.4681818,
                "pitch": 60,
                "velocity": 40,
                "duration": 0.1136364,
                "tempo": 120.0
            },
            {
                "start_time": 24.5659091,
                "end_time": 24.6636364,
                "pitch": 64,
                "velocity": 40,
                "duration": 0.0977273,
                "tempo": 120.0
            },
            {
                "start_time": 24.6659091,
                "end_time": 24.7795455,
                "pitch": 60,
                "velocity": 40,
                "duration": 0.1136364,
                "tempo": 120.0
            },
            {
                "start_time": 24.8795455,
                "end_time": 24.9954545,
                "pitch": 64,
                "velocity": 40,
                "duration": 0.1159091,
                "tempo": 120.0
            },
            {
                "start_time": 25.0977273,
                "end_time": 25.2136364,
                "pitch": 60,
                "velocity": 40,
                "duration": 0.1159091,
                "tempo": 120.0
            },
            {
                "start_time": 25.2136364,
                "end_time": 25.3136364,
                "pitch": 64,
                "velocity": 40,
                "duration": 0.1,
                "tempo": 120.0
            },
            {
                "start_time": 25.3159091,
                "end_time": 25.4159091,
                "pitch": 66,
                "velocity": 40,
                "duration": 0.1,
                "tempo": 120.0
            },
            {
                "start_time": 25.4181818,
                "end_time": 25.5363636,
                "pitch": 67,
                "velocity": 40,
                "duration": 0.1181818,
                "tempo": 120.0
            },
            {
                "start_time": 25.5363636,
                "end_time": 25.6386364,
                "pitch": 69,
                "velocity": 40,
                "duration": 0.1022727,
                "tempo": 120.0
            },
            {
                "start_time": 25.6409091,
                "end_time": 25.75,
                "pitch": 71,
                "velocity": 40,
                "duration": 0.1090909,
                "tempo": 120.0
            },
            {
                "start_time": 25.75,
                "end_time": 25.8454545,
                "pitch": 67,
                "velocity": 40,
                "duration": 0.0954545,
                "tempo": 120.0
            },
            {
                "start_time": 25.8477273,
                "end_time": 25.9568182,
                "pitch": 71,
                "velocity": 40,
                "duration": 0.1090909,
                "tempo": 120.0
            },
            {
                "start_time": 25.9568182,
                "end_time": 26.0522727,
                "pitch": 72,
                "velocity": 40,
                "duration": 0.0954545,
                "tempo": 120.0
            },
            {
                "start_time": 26.0545455,
                "end_time": 26.1522727,
                "pitch": 71,
                "velocity": 40,
                "duration": 0.0977273,
                "tempo": 120.0
            },
            {
                "start_time": 26.2704545,
                "end_time": 26.3704545,
                "pitch": 69,
                "velocity": 40,
                "duration": 0.1,
                "tempo": 120.0
            },
            {
                "start_time": 26.3704545,
                "end_time": 26.4863636,
                "pitch": 67,
                "velocity": 40,
                "duration": 0.1159091,
                "tempo": 120.0
            },
            {
                "start_time": 26.5863636,
                "end_time": 27.125,
                "pitch": 69,
                "velocity": 40,
                "duration": 0.5386364,
                "tempo": 120.0
            },
            {
                "start_time": 27.5545455,
                "end_time": 27.6795455,
                "pitch": 67,
                "velocity": 40,
                "duration": 0.125,
                "tempo": 120.0
            },
            {
                "start_time": 27.6795455,
                "end_time": 27.7590909,
                "pitch": 67,
                "velocity": 40,
                "duration": 0.0795455,
                "tempo": 120.0
            },
            {
                "start_time": 27.7613636,
                "end_time": 27.9795455,
                "pitch": 64,
                "velocity": 40,
                "duration": 0.2181818,
                "tempo": 120.0
            },
            {
                "start_time": 27.9818182,
                "end_time": 28.2022727,
                "pitch": 66,
                "velocity": 40,
                "duration": 0.2204545,
                "tempo": 120.0
            },
            {
                "start_time": 28.2045455,
                "end_time": 28.3022727,
                "pitch": 76,
                "velocity": 40,
                "duration": 0.0977273,
                "tempo": 120.0
            },
            {
                "start_time": 28.3022727,
                "end_time": 28.6204545,
                "pitch": 74,
                "velocity": 40,
                "duration": 0.3181818,
                "tempo": 120.0
            },
            {
                "start_time": 28.6204545,
                "end_time": 28.7477273,
                "pitch": 72,
                "velocity": 40,
                "duration": 0.1272727,
                "tempo": 120.0
            },
            {
                "start_time": 28.7477273,
                "end_time": 28.825,
                "pitch": 72,
                "velocity": 40,
                "duration": 0.0772727,
                "tempo": 120.0
            },
            {
                "start_time": 28.8272727,
                "end_time": 29.0340909,
                "pitch": 71,
                "velocity": 40,
                "duration": 0.2068182,
                "tempo": 120.0
            },
            {
                "start_time": 29.0340909,
                "end_time": 29.1318182,
                "pitch": 69,
                "velocity": 40,
                "duration": 0.0977273,
                "tempo": 120.0
            },
            {
                "start_time": 29.1340909,
                "end_time": 30.1090909,
                "pitch": 71,
                "velocity": 40,
                "duration": 0.975,
                "tempo": 120.0
            },
            {
                "start_time": 30.5340909,
                "end_time": 30.7409091,
                "pitch": 71,
                "velocity": 40,
                "duration": 0.2068182,
                "tempo": 120.0
            },
            {
                "start_time": 30.7409091,
                "end_time": 30.9613636,
                "pitch": 69,
                "velocity": 40,
                "duration": 0.2204545,
                "tempo": 120.0
            },
            {
                "start_time": 30.9636364,
                "end_time": 31.1840909,
                "pitch": 64,
                "velocity": 40,
                "duration": 0.2204545,
                "tempo": 120.0
            },
            {
                "start_time": 31.1840909,
                "end_time": 31.3840909,
                "pitch": 66,
                "velocity": 40,
                "duration": 0.2,
                "tempo": 120.0
            },
            {
                "start_time": 31.3840909,
                "end_time": 31.5181818,
                "pitch": 67,
                "velocity": 40,
                "duration": 0.1340909,
                "tempo": 120.0
            },
            {
                "start_time": 27.6795455,
                "end_time": 31.5181818,
                "pitch": 79,
                "velocity": 40,
                "duration": 3.8386364,
                "tempo": 120.0
            },
            {
                "start_time": 31.5181818,
                "end_time": 31.6022727,
                "pitch": 67,
                "velocity": 40,
                "duration": 0.0840909,
                "tempo": 120.0
            },
            {
                "start_time": 31.6022727,
                "end_time": 31.7159091,
                "pitch": 69,
                "velocity": 40,
                "duration": 0.1136364,
                "tempo": 120.0
            },
            {
                "start_time": 31.7159091,
                "end_time": 32.0272727,
                "pitch": 71,
                "velocity": 40,
                "duration": 0.3113636,
                "tempo": 120.0
            },
            {
                "start_time": 32.0272727,
                "end_time": 32.2431818,
                "pitch": 69,
                "velocity": 40,
                "duration": 0.2159091,
                "tempo": 120.0
            },
            {
                "start_time": 32.2431818,
                "end_time": 32.375,
                "pitch": 67,
                "velocity": 40,
                "duration": 0.1318182,
                "tempo": 120.0
            },
            {
                "start_time": 32.375,
                "end_time": 32.4590909,
                "pitch": 67,
                "velocity": 40,
                "duration": 0.0840909,
                "tempo": 120.0
            },
            {
                "start_time": 32.4613636,
                "end_time": 32.5590909,
                "pitch": 69,
                "velocity": 40,
                "duration": 0.0977273,
                "tempo": 120.0
            },
            {
                "start_time": 32.5590909,
                "end_time": 33.5159091,
                "pitch": 66,
                "velocity": 40,
                "duration": 0.9568182,
                "tempo": 120.0
            },
            {
                "start_time": 34.3681818,
                "end_time": 34.5,
                "pitch": 67,
                "velocity": 40,
                "duration": 0.1318182,
                "tempo": 120.0
            },
            {
                "start_time": 31.5181818,
                "end_time": 34.5,
                "pitch": 79,
                "velocity": 40,
                "duration": 2.9818182,
                "tempo": 120.0
            },
            {
                "start_time": 34.5,
                "end_time": 34.5840909,
                "pitch": 67,
                "velocity": 40,
                "duration": 0.0840909,
                "tempo": 120.0
            },
            {
                "start_time": 34.5863636,
                "end_time": 34.7954545,
                "pitch": 64,
                "velocity": 40,
                "duration": 0.2090909,
                "tempo": 120.0
            },
            {
                "start_time": 34.7977273,
                "end_time": 35.0090909,
                "pitch": 66,
                "velocity": 40,
                "duration": 0.2113636,
                "tempo": 120.0
            },
            {
                "start_time": 35.0113636,
                "end_time": 35.1090909,
                "pitch": 76,
                "velocity": 40,
                "duration": 0.0977273,
                "tempo": 120.0
            },
            {
                "start_time": 35.1090909,
                "end_time": 35.4431818,
                "pitch": 74,
                "velocity": 40,
                "duration": 0.3340909,
                "tempo": 120.0
            },
            {
                "start_time": 35.4454545,
                "end_time": 35.5772727,
                "pitch": 72,
                "velocity": 40,
                "duration": 0.1318182,
                "tempo": 120.0
            },
            {
                "start_time": 35.5772727,
                "end_time": 35.6590909,
                "pitch": 72,
                "velocity": 40,
                "duration": 0.0818182,
                "tempo": 120.0
            },
            {
                "start_time": 35.6613636,
                "end_time": 35.8590909,
                "pitch": 71,
                "velocity": 40,
                "duration": 0.1977273,
                "tempo": 120.0
            },
            {
                "start_time": 35.8613636,
                "end_time": 35.9772727,
                "pitch": 69,
                "velocity": 40,
                "duration": 0.1159091,
                "tempo": 120.0
            },
            {
                "start_time": 35.9772727,
                "end_time": 36.9363636,
                "pitch": 71,
                "velocity": 40,
                "duration": 0.9590909,
                "tempo": 120.0
            },
            {
                "start_time": 37.3545455,
                "end_time": 37.5704545,
                "pitch": 71,
                "velocity": 40,
                "duration": 0.2159091,
                "tempo": 120.0
            },
            {
                "start_time": 37.5704545,
                "end_time": 37.7818182,
                "pitch": 69,
                "velocity": 40,
                "duration": 0.2113636,
                "tempo": 120.0
            },
            {
                "start_time": 37.7840909,
                "end_time": 37.9954545,
                "pitch": 64,
                "velocity": 40,
                "duration": 0.2113636,
                "tempo": 120.0
            },
            {
                "start_time": 37.9954545,
                "end_time": 38.2113636,
                "pitch": 66,
                "velocity": 40,
                "duration": 0.2159091,
                "tempo": 120.0
            },
            {
                "start_time": 38.2113636,
                "end_time": 38.3454545,
                "pitch": 67,
                "velocity": 40,
                "duration": 0.1340909,
                "tempo": 120.0
            },
            {
                "start_time": 34.5,
                "end_time": 38.3454545,
                "pitch": 79,
                "velocity": 40,
                "duration": 3.8454545,
                "tempo": 120.0
            },
            {
                "start_time": 38.3454545,
                "end_time": 38.4295455,
                "pitch": 67,
                "velocity": 40,
                "duration": 0.0840909,
                "tempo": 120.0
            },
            {
                "start_time": 38.4295455,
                "end_time": 38.5272727,
                "pitch": 69,
                "velocity": 40,
                "duration": 0.0977273,
                "tempo": 120.0
            },
            {
                "start_time": 38.5295455,
                "end_time": 38.8454545,
                "pitch": 71,
                "velocity": 40,
                "duration": 0.3159091,
                "tempo": 120.0
            },
            {
                "start_time": 38.8477273,
                "end_time": 39.0590909,
                "pitch": 69,
                "velocity": 40,
                "duration": 0.2113636,
                "tempo": 120.0
            },
            {
                "start_time": 39.0590909,
                "end_time": 39.1886364,
                "pitch": 67,
                "velocity": 40,
                "duration": 0.1295455,
                "tempo": 120.0
            },
            {
                "start_time": 38.3454545,
                "end_time": 39.1886364,
                "pitch": 79,
                "velocity": 40,
                "duration": 0.8431818,
                "tempo": 120.0
            },
            {
                "start_time": 39.1886364,
                "end_time": 39.2704545,
                "pitch": 67,
                "velocity": 40,
                "duration": 0.0818182,
                "tempo": 120.0
            },
            {
                "start_time": 39.2727273,
                "end_time": 39.3863636,
                "pitch": 69,
                "velocity": 40,
                "duration": 0.1136364,
                "tempo": 120.0
            },
            {
                "start_time": 39.3886364,
                "end_time": 40.3386364,
                "pitch": 66,
                "velocity": 40,
                "duration": 0.95,
                "tempo": 120.0
            },
            {
                "start_time": 40.7681818,
                "end_time": 40.8977273,
                "pitch": 67,
                "velocity": 40,
                "duration": 0.1295455,
                "tempo": 120.0
            },
            {
                "start_time": 39.1886364,
                "end_time": 40.8977273,
                "pitch": 79,
                "velocity": 40,
                "duration": 1.7090909,
                "tempo": 120.0
            },
            {
                "start_time": 40.8977273,
                "end_time": 41.1636364,
                "pitch": 67,
                "velocity": 40,
                "duration": 0.2659091,
                "tempo": 120.0
            },
            {
                "start_time": 40.8977273,
                "end_time": 41.1636364,
                "pitch": 79,
                "velocity": 40,
                "duration": 0.2659091,
                "tempo": 120.0
            },
            {
                "start_time": 41.1636364,
                "end_time": 41.1977273,
                "pitch": 67,
                "velocity": 40,
                "duration": 0.0340909,
                "tempo": 120.0
            },
            {
                "start_time": 41.1977273,
                "end_time": 41.2977273,
                "pitch": 64,
                "velocity": 40,
                "duration": 0.1,
                "tempo": 120.0
            },
            {
                "start_time": 41.2977273,
                "end_time": 41.4136364,
                "pitch": 66,
                "velocity": 40,
                "duration": 0.1159091,
                "tempo": 120.0
            },
            {
                "start_time": 41.4159091,
                "end_time": 41.6363636,
                "pitch": 59,
                "velocity": 40,
                "duration": 0.2204545,
                "tempo": 120.0
            },
            {
                "start_time": 41.6363636,
                "end_time": 41.7386364,
                "pitch": 64,
                "velocity": 40,
                "duration": 0.1022727,
                "tempo": 120.0
            },
            {
                "start_time": 41.7386364,
                "end_time": 41.9522727,
                "pitch": 59,
                "velocity": 40,
                "duration": 0.2136364,
                "tempo": 120.0
            },
            {
                "start_time": 41.9522727,
                "end_time": 42.0477273,
                "pitch": 64,
                "velocity": 40,
                "duration": 0.0954545,
                "tempo": 120.0
            },
            {
                "start_time": 42.1590909,
                "end_time": 42.2545455,
                "pitch": 59,
                "velocity": 40,
                "duration": 0.0954545,
                "tempo": 120.0
            },
            {
                "start_time": 42.2545455,
                "end_time": 42.3727273,
                "pitch": 64,
                "velocity": 40,
                "duration": 0.1181818,
                "tempo": 120.0
            },
            {
                "start_time": 42.3727273,
                "end_time": 42.475,
                "pitch": 66,
                "velocity": 40,
                "duration": 0.1022727,
                "tempo": 120.0
            },
            {
                "start_time": 42.475,
                "end_time": 42.5772727,
                "pitch": 67,
                "velocity": 40,
                "duration": 0.1022727,
                "tempo": 120.0
            },
            {
                "start_time": 42.5772727,
                "end_time": 42.6977273,
                "pitch": 66,
                "velocity": 40,
                "duration": 0.1204545,
                "tempo": 120.0
            },
            {
                "start_time": 42.6977273,
                "end_time": 42.7954545,
                "pitch": 64,
                "velocity": 40,
                "duration": 0.0977273,
                "tempo": 120.0
            },
            {
                "start_time": 42.7954545,
                "end_time": 42.9090909,
                "pitch": 62,
                "velocity": 40,
                "duration": 0.1136364,
                "tempo": 120.0
            },
            {
                "start_time": 42.9090909,
                "end_time": 43.0068182,
                "pitch": 66,
                "velocity": 40,
                "duration": 0.0977273,
                "tempo": 120.0
            },
            {
                "start_time": 43.0068182,
                "end_time": 43.1227273,
                "pitch": 67,
                "velocity": 40,
                "duration": 0.1159091,
                "tempo": 120.0
            },
            {
                "start_time": 43.1227273,
                "end_time": 43.325,
                "pitch": 66,
                "velocity": 40,
                "duration": 0.2022727,
                "tempo": 120.0
            },
            {
                "start_time": 43.3272727,
                "end_time": 43.4454545,
                "pitch": 64,
                "velocity": 40,
                "duration": 0.1181818,
                "tempo": 120.0
            },
            {
                "start_time": 43.4454545,
                "end_time": 43.6590909,
                "pitch": 62,
                "velocity": 40,
                "duration": 0.2136364,
                "tempo": 120.0
            },
            {
                "start_time": 43.6590909,
                "end_time": 44.1818182,
                "pitch": 64,
                "velocity": 40,
                "duration": 0.5227273,
                "tempo": 120.0
            },
            {
                "start_time": 44.6159091,
                "end_time": 44.7136364,
                "pitch": 64,
                "velocity": 40,
                "duration": 0.0977273,
                "tempo": 120.0
            },
            {
                "start_time": 44.7136364,
                "end_time": 44.8113636,
                "pitch": 66,
                "velocity": 40,
                "duration": 0.0977273,
                "tempo": 120.0
            },
            {
                "start_time": 35.5772727,
                "end_time": 44.9431818,
                "pitch": 60,
                "velocity": 40,
                "duration": 9.3659091,
                "tempo": 120.0
            },
            {
                "start_time": 44.8136364,
                "end_time": 44.9431818,
                "pitch": 60,
                "velocity": 40,
                "duration": 0.1295455,
                "tempo": 120.0
            },
            {
                "start_time": 44.9431818,
                "end_time": 45.0227273,
                "pitch": 60,
                "velocity": 40,
                "duration": 0.0795455,
                "tempo": 120.0
            },
            {
                "start_time": 45.025,
                "end_time": 45.1386364,
                "pitch": 64,
                "velocity": 40,
                "duration": 0.1136364,
                "tempo": 120.0
            },
            {
                "start_time": 45.1386364,
                "end_time": 45.2704545,
                "pitch": 60,
                "velocity": 40,
                "duration": 0.1318182,
                "tempo": 120.0
            },
            {
                "start_time": 45.2704545,
                "end_time": 45.3522727,
                "pitch": 60,
                "velocity": 40,
                "duration": 0.0818182,
                "tempo": 120.0
            },
            {
                "start_time": 45.3545455,
                "end_time": 45.4545455,
                "pitch": 64,
                "velocity": 40,
                "duration": 0.1,
                "tempo": 120.0
            },
            {
                "start_time": 45.5545455,
                "end_time": 45.6704545,
                "pitch": 60,
                "velocity": 40,
                "duration": 0.1159091,
                "tempo": 120.0
            },
            {
                "start_time": 45.6727273,
                "end_time": 45.7727273,
                "pitch": 64,
                "velocity": 40,
                "duration": 0.1,
                "tempo": 120.0
            },
            {
                "start_time": 45.7727273,
                "end_time": 45.8931818,
                "pitch": 66,
                "velocity": 40,
                "duration": 0.1204545,
                "tempo": 120.0
            },
            {
                "start_time": 45.8931818,
                "end_time": 45.9931818,
                "pitch": 67,
                "velocity": 40,
                "duration": 0.1,
                "tempo": 120.0
            },
            {
                "start_time": 45.9954545,
                "end_time": 46.1136364,
                "pitch": 69,
                "velocity": 40,
                "duration": 0.1181818,
                "tempo": 120.0
            },
            {
                "start_time": 46.1159091,
                "end_time": 46.2136364,
                "pitch": 71,
                "velocity": 40,
                "duration": 0.0977273,
                "tempo": 120.0
            },
            {
                "start_time": 46.2136364,
                "end_time": 46.3136364,
                "pitch": 67,
                "velocity": 40,
                "duration": 0.1,
                "tempo": 120.0
            },
            {
                "start_time": 46.3159091,
                "end_time": 46.4295455,
                "pitch": 71,
                "velocity": 40,
                "duration": 0.1136364,
                "tempo": 120.0
            },
            {
                "start_time": 46.4318182,
                "end_time": 46.5318182,
                "pitch": 72,
                "velocity": 40,
                "duration": 0.1,
                "tempo": 120.0
            },
            {
                "start_time": 46.5318182,
                "end_time": 46.7363636,
                "pitch": 71,
                "velocity": 40,
                "duration": 0.2045455,
                "tempo": 120.0
            },
            {
                "start_time": 46.7386364,
                "end_time": 46.85,
                "pitch": 69,
                "velocity": 40,
                "duration": 0.1113636,
                "tempo": 120.0
            },
            {
                "start_time": 46.85,
                "end_time": 46.9772727,
                "pitch": 67,
                "velocity": 40,
                "duration": 0.1272727,
                "tempo": 120.0
            },
            {
                "start_time": 41.1636364,
                "end_time": 46.9772727,
                "pitch": 79,
                "velocity": 40,
                "duration": 5.8136364,
                "tempo": 120.0
            },
            {
                "start_time": 46.9772727,
                "end_time": 47.0454545,
                "pitch": 67,
                "velocity": 40,
                "duration": 0.0681818,
                "tempo": 120.0
            },
            {
                "start_time": 47.0454545,
                "end_time": 47.6045455,
                "pitch": 69,
                "velocity": 40,
                "duration": 0.5590909,
                "tempo": 120.0
            },
            {
                "start_time": 48.0113636,
                "end_time": 48.1068182,
                "pitch": 64,
                "velocity": 40,
                "duration": 0.0954545,
                "tempo": 120.0
            },
            {
                "start_time": 48.1068182,
                "end_time": 48.2181818,
                "pitch": 66,
                "velocity": 40,
                "duration": 0.1113636,
                "tempo": 120.0
            },
            {
                "start_time": 48.2181818,
                "end_time": 48.4386364,
                "pitch": 59,
                "velocity": 40,
                "duration": 0.2204545,
                "tempo": 120.0
            },
            {
                "start_time": 48.4386364,
                "end_time": 48.5409091,
                "pitch": 64,
                "velocity": 40,
                "duration": 0.1022727,
                "tempo": 120.0
            },
            {
                "start_time": 48.5431818,
                "end_time": 48.7545455,
                "pitch": 59,
                "velocity": 40,
                "duration": 0.2113636,
                "tempo": 120.0
            },
            {
                "start_time": 48.7545455,
                "end_time": 48.85,
                "pitch": 64,
                "velocity": 40,
                "duration": 0.0954545,
                "tempo": 120.0
            },
            {
                "start_time": 48.9613636,
                "end_time": 49.0568182,
                "pitch": 59,
                "velocity": 40,
                "duration": 0.0954545,
                "tempo": 120.0
            },
            {
                "start_time": 49.0568182,
                "end_time": 49.175,
                "pitch": 64,
                "velocity": 40,
                "duration": 0.1181818,
                "tempo": 120.0
            },
            {
                "start_time": 49.1772727,
                "end_time": 49.2772727,
                "pitch": 66,
                "velocity": 40,
                "duration": 0.1,
                "tempo": 120.0
            },
            {
                "start_time": 49.2795455,
                "end_time": 49.3795455,
                "pitch": 67,
                "velocity": 40,
                "duration": 0.1,
                "tempo": 120.0
            },
            {
                "start_time": 49.3818182,
                "end_time": 49.5,
                "pitch": 66,
                "velocity": 40,
                "duration": 0.1181818,
                "tempo": 120.0
            },
            {
                "start_time": 49.5,
                "end_time": 49.5977273,
                "pitch": 64,
                "velocity": 40,
                "duration": 0.0977273,
                "tempo": 120.0
            },
            {
                "start_time": 49.5977273,
                "end_time": 49.7113636,
                "pitch": 62,
                "velocity": 40,
                "duration": 0.1136364,
                "tempo": 120.0
            },
            {
                "start_time": 49.7136364,
                "end_time": 49.8090909,
                "pitch": 66,
                "velocity": 40,
                "duration": 0.0954545,
                "tempo": 120.0
            },
            {
                "start_time": 49.8113636,
                "end_time": 49.925,
                "pitch": 67,
                "velocity": 40,
                "duration": 0.1136364,
                "tempo": 120.0
            },
            {
                "start_time": 49.925,
                "end_time": 50.1272727,
                "pitch": 66,
                "velocity": 40,
                "duration": 0.2022727,
                "tempo": 120.0
            },
            {
                "start_time": 50.1295455,
                "end_time": 50.2477273,
                "pitch": 64,
                "velocity": 40,
                "duration": 0.1181818,
                "tempo": 120.0
            },
            {
                "start_time": 50.25,
                "end_time": 50.4613636,
                "pitch": 62,
                "velocity": 40,
                "duration": 0.2113636,
                "tempo": 120.0
            },
            {
                "start_time": 50.4613636,
                "end_time": 50.9840909,
                "pitch": 64,
                "velocity": 40,
                "duration": 0.5227273,
                "tempo": 120.0
            },
            {
                "start_time": 51.425,
                "end_time": 51.5227273,
                "pitch": 64,
                "velocity": 40,
                "duration": 0.0977273,
                "tempo": 120.0
            },
            {
                "start_time": 51.525,
                "end_time": 51.6227273,
                "pitch": 66,
                "velocity": 40,
                "duration": 0.0977273,
                "tempo": 120.0
            },
            {
                "start_time": 51.625,
                "end_time": 51.7545455,
                "pitch": 60,
                "velocity": 40,
                "duration": 0.1295455,
                "tempo": 120.0
            },
            {
                "start_time": 51.7545455,
                "end_time": 51.8363636,
                "pitch": 60,
                "velocity": 40,
                "duration": 0.0818182,
                "tempo": 120.0
            },
            {
                "start_time": 51.8363636,
                "end_time": 51.95,
                "pitch": 64,
                "velocity": 40,
                "duration": 0.1136364,
                "tempo": 120.0
            },
            {
                "start_time": 51.7545455,
                "end_time": 52.0818182,
                "pitch": 48,
                "velocity": 40,
                "duration": 0.3272727,
                "tempo": 120.0
            },
            {
                "start_time": 51.9522727,
                "end_time": 52.0818182,
                "pitch": 60,
                "velocity": 40,
                "duration": 0.1295455,
                "tempo": 120.0
            },
            {
                "start_time": 52.0818182,
                "end_time": 52.1659091,
                "pitch": 60,
                "velocity": 40,
                "duration": 0.0840909,
                "tempo": 120.0
            },
            {
                "start_time": 52.1659091,
                "end_time": 52.2659091,
                "pitch": 64,
                "velocity": 40,
                "duration": 0.1,
                "tempo": 120.0
            },
            {
                "start_time": 52.3659091,
                "end_time": 52.4818182,
                "pitch": 60,
                "velocity": 40,
                "duration": 0.1159091,
                "tempo": 120.0
            },
            {
                "start_time": 52.4840909,
                "end_time": 52.5818182,
                "pitch": 64,
                "velocity": 40,
                "duration": 0.0977273,
                "tempo": 120.0
            },
            {
                "start_time": 52.5840909,
                "end_time": 52.7,
                "pitch": 66,
                "velocity": 40,
                "duration": 0.1159091,
                "tempo": 120.0
            },
            {
                "start_time": 52.7,
                "end_time": 52.8,
                "pitch": 67,
                "velocity": 40,
                "duration": 0.1,
                "tempo": 120.0
            },
            {
                "start_time": 52.8,
                "end_time": 52.9159091,
                "pitch": 69,
                "velocity": 40,
                "duration": 0.1159091,
                "tempo": 120.0
            },
            {
                "start_time": 52.9181818,
                "end_time": 53.0159091,
                "pitch": 71,
                "velocity": 40,
                "duration": 0.0977273,
                "tempo": 120.0
            },
            {
                "start_time": 53.0181818,
                "end_time": 53.1159091,
                "pitch": 67,
                "velocity": 40,
                "duration": 0.0977273,
                "tempo": 120.0
            },
            {
                "start_time": 53.1181818,
                "end_time": 53.2340909,
                "pitch": 71,
                "velocity": 40,
                "duration": 0.1159091,
                "tempo": 120.0
            },
            {
                "start_time": 53.2340909,
                "end_time": 53.3340909,
                "pitch": 72,
                "velocity": 40,
                "duration": 0.1,
                "tempo": 120.0
            },
            {
                "start_time": 53.3340909,
                "end_time": 53.5454545,
                "pitch": 71,
                "velocity": 40,
                "duration": 0.2113636,
                "tempo": 120.0
            },
            {
                "start_time": 53.5477273,
                "end_time": 53.6613636,
                "pitch": 69,
                "velocity": 40,
                "duration": 0.1136364,
                "tempo": 120.0
            },
            {
                "start_time": 53.6613636,
                "end_time": 53.7909091,
                "pitch": 67,
                "velocity": 40,
                "duration": 0.1295455,
                "tempo": 120.0
            },
            {
                "start_time": 46.9772727,
                "end_time": 53.7909091,
                "pitch": 79,
                "velocity": 40,
                "duration": 6.8136364,
                "tempo": 120.0
            },
            {
                "start_time": 53.7909091,
                "end_time": 53.8590909,
                "pitch": 67,
                "velocity": 40,
                "duration": 0.0681818,
                "tempo": 120.0
            },
            {
                "start_time": 53.8590909,
                "end_time": 54.4090909,
                "pitch": 69,
                "velocity": 40,
                "duration": 0.55,
                "tempo": 120.0
            },
            {
                "start_time": 54.8159091,
                "end_time": 54.9431818,
                "pitch": 67,
                "velocity": 40,
                "duration": 0.1272727,
                "tempo": 120.0
            },
            {
                "start_time": 53.7909091,
                "end_time": 54.9431818,
                "pitch": 79,
                "velocity": 40,
                "duration": 1.1522727,
                "tempo": 120.0
            },
            {
                "start_time": 54.9431818,
                "end_time": 55.0227273,
                "pitch": 67,
                "velocity": 40,
                "duration": 0.0795455,
                "tempo": 120.0
            },
            {
                "start_time": 55.0227273,
                "end_time": 55.2431818,
                "pitch": 64,
                "velocity": 40,
                "duration": 0.2204545,
                "tempo": 120.0
            },
            {
                "start_time": 55.2454545,
                "end_time": 55.4659091,
                "pitch": 66,
                "velocity": 40,
                "duration": 0.2204545,
                "tempo": 120.0
            },
            {
                "start_time": 55.4659091,
                "end_time": 55.5659091,
                "pitch": 76,
                "velocity": 40,
                "duration": 0.1,
                "tempo": 120.0
            },
            {
                "start_time": 55.5659091,
                "end_time": 55.9,
                "pitch": 74,
                "velocity": 40,
                "duration": 0.3340909,
                "tempo": 120.0
            },
            {
                "start_time": 55.9,
                "end_time": 56.0340909,
                "pitch": 72,
                "velocity": 40,
                "duration": 0.1340909,
                "tempo": 120.0
            },
            {
                "start_time": 56.0340909,
                "end_time": 56.1,
                "pitch": 72,
                "velocity": 40,
                "duration": 0.0659091,
                "tempo": 120.0
            },
            {
                "start_time": 56.1,
                "end_time": 56.3159091,
                "pitch": 71,
                "velocity": 40,
                "duration": 0.2159091,
                "tempo": 120.0
            },
            {
                "start_time": 56.3181818,
                "end_time": 56.4318182,
                "pitch": 69,
                "velocity": 40,
                "duration": 0.1136364,
                "tempo": 120.0
            },
            {
                "start_time": 56.4318182,
                "end_time": 57.3931818,
                "pitch": 71,
                "velocity": 40,
                "duration": 0.9613636,
                "tempo": 120.0
            },
            {
                "start_time": 57.8068182,
                "end_time": 58.0181818,
                "pitch": 71,
                "velocity": 40,
                "duration": 0.2113636,
                "tempo": 120.0
            },
            {
                "start_time": 58.0181818,
                "end_time": 58.2340909,
                "pitch": 69,
                "velocity": 40,
                "duration": 0.2159091,
                "tempo": 120.0
            },
            {
                "start_time": 58.2363636,
                "end_time": 58.4522727,
                "pitch": 64,
                "velocity": 40,
                "duration": 0.2159091,
                "tempo": 120.0
            },
            {
                "start_time": 58.4522727,
                "end_time": 58.6681818,
                "pitch": 66,
                "velocity": 40,
                "duration": 0.2159091,
                "tempo": 120.0
            },
            {
                "start_time": 58.6681818,
                "end_time": 58.8022727,
                "pitch": 67,
                "velocity": 40,
                "duration": 0.1340909,
                "tempo": 120.0
            },
            {
                "start_time": 54.9431818,
                "end_time": 58.8022727,
                "pitch": 79,
                "velocity": 40,
                "duration": 3.8590909,
                "tempo": 120.0
            },
            {
                "start_time": 58.8022727,
                "end_time": 58.8863636,
                "pitch": 67,
                "velocity": 40,
                "duration": 0.0840909,
                "tempo": 120.0
            },
            {
                "start_time": 58.8863636,
                "end_time": 58.9863636,
                "pitch": 69,
                "velocity": 40,
                "duration": 0.1,
                "tempo": 120.0
            },
            {
                "start_time": 58.9863636,
                "end_time": 59.3022727,
                "pitch": 71,
                "velocity": 40,
                "duration": 0.3159091,
                "tempo": 120.0
            },
            {
                "start_time": 59.3045455,
                "end_time": 59.5159091,
                "pitch": 69,
                "velocity": 40,
                "duration": 0.2113636,
                "tempo": 120.0
            },
            {
                "start_time": 59.5159091,
                "end_time": 59.6454545,
                "pitch": 67,
                "velocity": 40,
                "duration": 0.1295455,
                "tempo": 120.0
            },
            {
                "start_time": 58.8022727,
                "end_time": 59.6454545,
                "pitch": 79,
                "velocity": 40,
                "duration": 0.8431818,
                "tempo": 120.0
            },
            {
                "start_time": 59.6454545,
                "end_time": 59.7272727,
                "pitch": 67,
                "velocity": 40,
                "duration": 0.0818182,
                "tempo": 120.0
            },
            {
                "start_time": 59.7272727,
                "end_time": 59.8272727,
                "pitch": 69,
                "velocity": 40,
                "duration": 0.1,
                "tempo": 120.0
            },
            {
                "start_time": 59.8272727,
                "end_time": 60.7909091,
                "pitch": 66,
                "velocity": 40,
                "duration": 0.9636364,
                "tempo": 120.0
            },
            {
                "start_time": 61.6545455,
                "end_time": 61.7886364,
                "pitch": 67,
                "velocity": 40,
                "duration": 0.1340909,
                "tempo": 120.0
            },
            {
                "start_time": 59.6454545,
                "end_time": 61.7886364,
                "pitch": 79,
                "velocity": 40,
                "duration": 2.1431818,
                "tempo": 120.0
            },
            {
                "start_time": 61.7886364,
                "end_time": 61.8704545,
                "pitch": 67,
                "velocity": 40,
                "duration": 0.0818182,
                "tempo": 120.0
            },
            {
                "start_time": 61.8727273,
                "end_time": 62.075,
                "pitch": 64,
                "velocity": 40,
                "duration": 0.2022727,
                "tempo": 120.0
            },
            {
                "start_time": 62.0772727,
                "end_time": 62.2977273,
                "pitch": 66,
                "velocity": 40,
                "duration": 0.2204545,
                "tempo": 120.0
            },
            {
                "start_time": 62.2977273,
                "end_time": 62.4090909,
                "pitch": 76,
                "velocity": 40,
                "duration": 0.1113636,
                "tempo": 120.0
            },
            {
                "start_time": 62.4090909,
                "end_time": 62.7113636,
                "pitch": 74,
                "velocity": 40,
                "duration": 0.3022727,
                "tempo": 120.0
            },
            {
                "start_time": 56.0340909,
                "end_time": 62.8477273,
                "pitch": 60,
                "velocity": 40,
                "duration": 6.8136364,
                "tempo": 120.0
            },
            {
                "start_time": 62.7113636,
                "end_time": 62.8477273,
                "pitch": 72,
                "velocity": 40,
                "duration": 0.1363636,
                "tempo": 120.0
            },
            {
                "start_time": 62.8477273,
                "end_time": 62.9318182,
                "pitch": 72,
                "velocity": 40,
                "duration": 0.0840909,
                "tempo": 120.0
            },
            {
                "start_time": 62.9318182,
                "end_time": 63.1545455,
                "pitch": 71,
                "velocity": 40,
                "duration": 0.2227273,
                "tempo": 120.0
            },
            {
                "start_time": 63.1545455,
                "end_time": 63.2545455,
                "pitch": 69,
                "velocity": 40,
                "duration": 0.1,
                "tempo": 120.0
            },
            {
                "start_time": 63.2545455,
                "end_time": 64.2,
                "pitch": 71,
                "velocity": 40,
                "duration": 0.9454545,
                "tempo": 120.0
            },
            {
                "start_time": 64.6409091,
                "end_time": 64.8613636,
                "pitch": 71,
                "velocity": 40,
                "duration": 0.2204545,
                "tempo": 120.0
            },
            {
                "start_time": 64.8636364,
                "end_time": 65.0613636,
                "pitch": 69,
                "velocity": 40,
                "duration": 0.1977273,
                "tempo": 120.0
            },
            {
                "start_time": 65.0636364,
                "end_time": 65.2795455,
                "pitch": 64,
                "velocity": 40,
                "duration": 0.2159091,
                "tempo": 120.0
            },
            {
                "start_time": 65.2795455,
                "end_time": 65.4909091,
                "pitch": 66,
                "velocity": 40,
                "duration": 0.2113636,
                "tempo": 120.0
            },
            {
                "start_time": 65.4909091,
                "end_time": 65.6227273,
                "pitch": 67,
                "velocity": 40,
                "duration": 0.1318182,
                "tempo": 120.0
            },
            {
                "start_time": 61.7886364,
                "end_time": 65.6227273,
                "pitch": 79,
                "velocity": 40,
                "duration": 3.8340909,
                "tempo": 120.0
            },
            {
                "start_time": 65.6227273,
                "end_time": 65.7045455,
                "pitch": 67,
                "velocity": 40,
                "duration": 0.0818182,
                "tempo": 120.0
            },
            {
                "start_time": 65.7045455,
                "end_time": 65.8022727,
                "pitch": 69,
                "velocity": 40,
                "duration": 0.0977273,
                "tempo": 120.0
            },
            {
                "start_time": 65.8045455,
                "end_time": 66.1363636,
                "pitch": 71,
                "velocity": 40,
                "duration": 0.3318182,
                "tempo": 120.0
            },
            {
                "start_time": 66.1386364,
                "end_time": 66.3545455,
                "pitch": 69,
                "velocity": 40,
                "duration": 0.2159091,
                "tempo": 120.0
            },
            {
                "start_time": 66.3545455,
                "end_time": 66.4886364,
                "pitch": 67,
                "velocity": 40,
                "duration": 0.1340909,
                "tempo": 120.0
            },
            {
                "start_time": 65.6227273,
                "end_time": 66.4886364,
                "pitch": 79,
                "velocity": 40,
                "duration": 0.8659091,
                "tempo": 120.0
            },
            {
                "start_time": 66.4886364,
                "end_time": 66.5545455,
                "pitch": 67,
                "velocity": 40,
                "duration": 0.0659091,
                "tempo": 120.0
            },
            {
                "start_time": 66.5545455,
                "end_time": 66.6659091,
                "pitch": 69,
                "velocity": 40,
                "duration": 0.1113636,
                "tempo": 120.0
            },
            {
                "start_time": 66.6659091,
                "end_time": 67.6272727,
                "pitch": 66,
                "velocity": 40,
                "duration": 0.9613636,
                "tempo": 120.0
            },
            {
                "start_time": 67.6295455,
                "end_time": 67.7272727,
                "pitch": 64,
                "velocity": 40,
                "duration": 0.0977273,
                "tempo": 120.0
            },
            {
                "start_time": 62.8477273,
                "end_time": 67.8454545,
                "pitch": 60,
                "velocity": 40,
                "duration": 4.9977273,
                "tempo": 120.0
            },
            {
                "start_time": 67.7295455,
                "end_time": 67.8454545,
                "pitch": 60,
                "velocity": 40,
                "duration": 0.1159091,
                "tempo": 120.0
            },
            {
                "start_time": 67.8454545,
                "end_time": 68.0454545,
                "pitch": 64,
                "velocity": 40,
                "duration": 0.2,
                "tempo": 120.0
            },
            {
                "start_time": 68.0454545,
                "end_time": 68.1613636,
                "pitch": 62,
                "velocity": 40,
                "duration": 0.1159091,
                "tempo": 120.0
            },
            {
                "start_time": 68.1613636,
                "end_time": 68.2613636,
                "pitch": 59,
                "velocity": 40,
                "duration": 0.1,
                "tempo": 120.0
            }
        ],
        "Acoustic Bass": [
            {
                "start_time": 0.0454545,
                "end_time": 0.1954545,
                "pitch": 33,
                "velocity": 80,
                "duration": 0.15,
                "tempo": 120.0
            },
            {
                "start_time": 0.2613636,
                "end_time": 0.4113636,
                "pitch": 33,
                "velocity": 80,
                "duration": 0.15,
                "tempo": 120.0
            },
            {
                "start_time": 0.5818182,
                "end_time": 0.7340909,
                "pitch": 45,
                "velocity": 80,
                "duration": 0.1522727,
                "tempo": 120.0
            },
            {
                "start_time": 0.8022727,
                "end_time": 0.8704545,
                "pitch": 43,
                "velocity": 80,
                "duration": 0.0681818,
                "tempo": 120.0
            },
            {
                "start_time": 0.9045455,
                "end_time": 1.15,
                "pitch": 33,
                "velocity": 80,
                "duration": 0.2454545,
                "tempo": 120.0
            },
            {
                "start_time": 1.2318182,
                "end_time": 1.2977273,
                "pitch": 33,
                "velocity": 80,
                "duration": 0.0659091,
                "tempo": 120.0
            },
            {
                "start_time": 1.3295455,
                "end_time": 1.4795455,
                "pitch": 31,
                "velocity": 80,
                "duration": 0.15,
                "tempo": 120.0
            },
            {
                "start_time": 1.5477273,
                "end_time": 1.6954545,
                "pitch": 36,
                "velocity": 80,
                "duration": 0.1477273,
                "tempo": 120.0
            },
            {
                "start_time": 1.9818182,
                "end_time": 2.1295455,
                "pitch": 33,
                "velocity": 80,
                "duration": 0.1477273,
                "tempo": 120.0
            },
            {
                "start_time": 2.2977273,
                "end_time": 2.4477273,
                "pitch": 45,
                "velocity": 80,
                "duration": 0.15,
                "tempo": 120.0
            },
            {
                "start_time": 2.5159091,
                "end_time": 2.5818182,
                "pitch": 43,
                "velocity": 80,
                "duration": 0.0659091,
                "tempo": 120.0
            },
            {
                "start_time": 2.6159091,
                "end_time": 2.8590909,
                "pitch": 33,
                "velocity": 80,
                "duration": 0.2431818,
                "tempo": 120.0
            },
            {
                "start_time": 2.9431818,
                "end_time": 3.0068182,
                "pitch": 33,
                "velocity": 80,
                "duration": 0.0636364,
                "tempo": 120.0
            },
            {
                "start_time": 3.0409091,
                "end_time": 3.1886364,
                "pitch": 31,
                "velocity": 80,
                "duration": 0.1477273,
                "tempo": 120.0
            },
            {
                "start_time": 3.2568182,
                "end_time": 3.4068182,
                "pitch": 36,
                "velocity": 80,
                "duration": 0.15,
                "tempo": 120.0
            },
            {
                "start_time": 3.475,
                "end_time": 3.6227273,
                "pitch": 33,
                "velocity": 80,
                "duration": 0.1477273,
                "tempo": 120.0
            },
            {
                "start_time": 3.6909091,
                "end_time": 3.8409091,
                "pitch": 33,
                "velocity": 80,
                "duration": 0.15,
                "tempo": 120.0
            },
            {
                "start_time": 4.0068182,
                "end_time": 4.1522727,
                "pitch": 45,
                "velocity": 80,
                "duration": 0.1454545,
                "tempo": 120.0
            },
            {
                "start_time": 4.2181818,
                "end_time": 4.2818182,
                "pitch": 43,
                "velocity": 80,
                "duration": 0.0636364,
                "tempo": 120.0
            },
            {
                "start_time": 4.3159091,
                "end_time": 4.5477273,
                "pitch": 33,
                "velocity": 80,
                "duration": 0.2318182,
                "tempo": 120.0
            },
            {
                "start_time": 4.6340909,
                "end_time": 4.7159091,
                "pitch": 33,
                "velocity": 80,
                "duration": 0.0818182,
                "tempo": 120.0
            },
            {
                "start_time": 4.75,
                "end_time": 4.9,
                "pitch": 31,
                "velocity": 80,
                "duration": 0.15,
                "tempo": 120.0
            },
            {
                "start_time": 4.9681818,
                "end_time": 5.1159091,
                "pitch": 36,
                "velocity": 80,
                "duration": 0.1477273,
                "tempo": 120.0
            },
            {
                "start_time": 5.3886364,
                "end_time": 5.5409091,
                "pitch": 33,
                "velocity": 80,
                "duration": 0.1522727,
                "tempo": 120.0
            },
            {
                "start_time": 5.7204545,
                "end_time": 5.8636364,
                "pitch": 45,
                "velocity": 80,
                "duration": 0.1431818,
                "tempo": 120.0
            },
            {
                "start_time": 5.9272727,
                "end_time": 5.9909091,
                "pitch": 43,
                "velocity": 80,
                "duration": 0.0636364,
                "tempo": 120.0
            },
            {
                "start_time": 6.0227273,
                "end_time": 6.2568182,
                "pitch": 33,
                "velocity": 80,
                "duration": 0.2340909,
                "tempo": 120.0
            },
            {
                "start_time": 6.3409091,
                "end_time": 6.4227273,
                "pitch": 33,
                "velocity": 80,
                "duration": 0.0818182,
                "tempo": 120.0
            },
            {
                "start_time": 6.4568182,
                "end_time": 6.6068182,
                "pitch": 31,
                "velocity": 80,
                "duration": 0.15,
                "tempo": 120.0
            },
            {
                "start_time": 6.675,
                "end_time": 6.8227273,
                "pitch": 36,
                "velocity": 80,
                "duration": 0.1477273,
                "tempo": 120.0
            },
            {
                "start_time": 6.875,
                "end_time": 7.0204545,
                "pitch": 33,
                "velocity": 80,
                "duration": 0.1454545,
                "tempo": 120.0
            },
            {
                "start_time": 7.0863636,
                "end_time": 7.2340909,
                "pitch": 33,
                "velocity": 80,
                "duration": 0.1477273,
                "tempo": 120.0
            },
            {
                "start_time": 7.4159091,
                "end_time": 7.5659091,
                "pitch": 45,
                "velocity": 80,
                "duration": 0.15,
                "tempo": 120.0
            },
            {
                "start_time": 7.6159091,
                "end_time": 7.7,
                "pitch": 43,
                "velocity": 80,
                "duration": 0.0840909,
                "tempo": 120.0
            },
            {
                "start_time": 7.7340909,
                "end_time": 7.9659091,
                "pitch": 33,
                "velocity": 80,
                "duration": 0.2318182,
                "tempo": 120.0
            },
            {
                "start_time": 8.05,
                "end_time": 8.1318182,
                "pitch": 33,
                "velocity": 80,
                "duration": 0.0818182,
                "tempo": 120.0
            },
            {
                "start_time": 8.1681818,
                "end_time": 8.3204545,
                "pitch": 31,
                "velocity": 80,
                "duration": 0.1522727,
                "tempo": 120.0
            },
            {
                "start_time": 8.3727273,
                "end_time": 8.525,
                "pitch": 36,
                "velocity": 80,
                "duration": 0.1522727,
                "tempo": 120.0
            },
            {
                "start_time": 8.8068182,
                "end_time": 8.9522727,
                "pitch": 33,
                "velocity": 80,
                "duration": 0.1454545,
                "tempo": 120.0
            },
            {
                "start_time": 9.1181818,
                "end_time": 9.2681818,
                "pitch": 45,
                "velocity": 80,
                "duration": 0.15,
                "tempo": 120.0
            },
            {
                "start_time": 9.3363636,
                "end_time": 9.4181818,
                "pitch": 43,
                "velocity": 80,
                "duration": 0.0818182,
                "tempo": 120.0
            },
            {
                "start_time": 9.4522727,
                "end_time": 9.6840909,
                "pitch": 33,
                "velocity": 80,
                "duration": 0.2318182,
                "tempo": 120.0
            },
            {
                "start_time": 9.7704545,
                "end_time": 9.8363636,
                "pitch": 33,
                "velocity": 80,
                "duration": 0.0659091,
                "tempo": 120.0
            },
            {
                "start_time": 9.8704545,
                "end_time": 10.0113636,
                "pitch": 31,
                "velocity": 80,
                "duration": 0.1409091,
                "tempo": 120.0
            },
            {
                "start_time": 10.0772727,
                "end_time": 10.2181818,
                "pitch": 36,
                "velocity": 80,
                "duration": 0.1409091,
                "tempo": 120.0
            },
            {
                "start_time": 10.2840909,
                "end_time": 10.4318182,
                "pitch": 33,
                "velocity": 80,
                "duration": 0.1477273,
                "tempo": 120.0
            },
            {
                "start_time": 10.5,
                "end_time": 10.65,
                "pitch": 33,
                "velocity": 80,
                "duration": 0.15,
                "tempo": 120.0
            },
            {
                "start_time": 10.8181818,
                "end_time": 10.9704545,
                "pitch": 45,
                "velocity": 80,
                "duration": 0.1522727,
                "tempo": 120.0
            },
            {
                "start_time": 11.0409091,
                "end_time": 11.125,
                "pitch": 43,
                "velocity": 80,
                "duration": 0.0840909,
                "tempo": 120.0
            },
            {
                "start_time": 11.1613636,
                "end_time": 11.3931818,
                "pitch": 33,
                "velocity": 80,
                "duration": 0.2318182,
                "tempo": 120.0
            },
            {
                "start_time": 11.4772727,
                "end_time": 11.5431818,
                "pitch": 33,
                "velocity": 80,
                "duration": 0.0659091,
                "tempo": 120.0
            },
            {
                "start_time": 11.5772727,
                "end_time": 11.7204545,
                "pitch": 31,
                "velocity": 80,
                "duration": 0.1431818,
                "tempo": 120.0
            },
            {
                "start_time": 11.7840909,
                "end_time": 11.925,
                "pitch": 36,
                "velocity": 80,
                "duration": 0.1409091,
                "tempo": 120.0
            },
            {
                "start_time": 12.2113636,
                "end_time": 12.3636364,
                "pitch": 33,
                "velocity": 80,
                "duration": 0.1522727,
                "tempo": 120.0
            },
            {
                "start_time": 12.5340909,
                "end_time": 12.6840909,
                "pitch": 45,
                "velocity": 80,
                "duration": 0.15,
                "tempo": 120.0
            },
            {
                "start_time": 12.75,
                "end_time": 12.8159091,
                "pitch": 43,
                "velocity": 80,
                "duration": 0.0659091,
                "tempo": 120.0
            },
            {
                "start_time": 12.85,
                "end_time": 13.0886364,
                "pitch": 33,
                "velocity": 80,
                "duration": 0.2386364,
                "tempo": 120.0
            },
            {
                "start_time": 13.1681818,
                "end_time": 13.2318182,
                "pitch": 33,
                "velocity": 80,
                "duration": 0.0636364,
                "tempo": 120.0
            },
            {
                "start_time": 13.2636364,
                "end_time": 13.4159091,
                "pitch": 31,
                "velocity": 80,
                "duration": 0.1522727,
                "tempo": 120.0
            },
            {
                "start_time": 13.4863636,
                "end_time": 13.6386364,
                "pitch": 36,
                "velocity": 80,
                "duration": 0.1522727,
                "tempo": 120.0
            },
            {
                "start_time": 13.7068182,
                "end_time": 13.8568182,
                "pitch": 40,
                "velocity": 80,
                "duration": 0.15,
                "tempo": 120.0
            },
            {
                "start_time": 13.925,
                "end_time": 14.0727273,
                "pitch": 40,
                "velocity": 80,
                "duration": 0.1477273,
                "tempo": 120.0
            },
            {
                "start_time": 14.2409091,
                "end_time": 14.3909091,
                "pitch": 52,
                "velocity": 80,
                "duration": 0.15,
                "tempo": 120.0
            },
            {
                "start_time": 14.4590909,
                "end_time": 14.5227273,
                "pitch": 40,
                "velocity": 80,
                "duration": 0.0636364,
                "tempo": 120.0
            },
            {
                "start_time": 14.5590909,
                "end_time": 14.8022727,
                "pitch": 40,
                "velocity": 80,
                "duration": 0.2431818,
                "tempo": 120.0
            },
            {
                "start_time": 14.8840909,
                "end_time": 14.95,
                "pitch": 40,
                "velocity": 80,
                "duration": 0.0659091,
                "tempo": 120.0
            },
            {
                "start_time": 14.9840909,
                "end_time": 15.1318182,
                "pitch": 38,
                "velocity": 80,
                "duration": 0.1477273,
                "tempo": 120.0
            },
            {
                "start_time": 15.2,
                "end_time": 15.35,
                "pitch": 43,
                "velocity": 80,
                "duration": 0.15,
                "tempo": 120.0
            },
            {
                "start_time": 15.4181818,
                "end_time": 15.5659091,
                "pitch": 36,
                "velocity": 80,
                "duration": 0.1477273,
                "tempo": 120.0
            },
            {
                "start_time": 15.6340909,
                "end_time": 15.7840909,
                "pitch": 36,
                "velocity": 80,
                "duration": 0.15,
                "tempo": 120.0
            },
            {
                "start_time": 15.9477273,
                "end_time": 16.0954545,
                "pitch": 48,
                "velocity": 80,
                "duration": 0.1477273,
                "tempo": 120.0
            },
            {
                "start_time": 16.1613636,
                "end_time": 16.225,
                "pitch": 36,
                "velocity": 80,
                "duration": 0.0636364,
                "tempo": 120.0
            },
            {
                "start_time": 16.2590909,
                "end_time": 16.4090909,
                "pitch": 36,
                "velocity": 80,
                "duration": 0.15,
                "tempo": 120.0
            },
            {
                "start_time": 16.475,
                "end_time": 16.625,
                "pitch": 48,
                "velocity": 80,
                "duration": 0.15,
                "tempo": 120.0
            },
            {
                "start_time": 16.6931818,
                "end_time": 16.8409091,
                "pitch": 35,
                "velocity": 80,
                "duration": 0.1477273,
                "tempo": 120.0
            },
            {
                "start_time": 16.9090909,
                "end_time": 17.0590909,
                "pitch": 47,
                "velocity": 80,
                "duration": 0.15,
                "tempo": 120.0
            },
            {
                "start_time": 17.1272727,
                "end_time": 17.275,
                "pitch": 33,
                "velocity": 80,
                "duration": 0.1477273,
                "tempo": 120.0
            },
            {
                "start_time": 17.3272727,
                "end_time": 17.4772727,
                "pitch": 33,
                "velocity": 80,
                "duration": 0.15,
                "tempo": 120.0
            },
            {
                "start_time": 17.6590909,
                "end_time": 17.8045455,
                "pitch": 45,
                "velocity": 80,
                "duration": 0.1454545,
                "tempo": 120.0
            },
            {
                "start_time": 17.8704545,
                "end_time": 17.9340909,
                "pitch": 33,
                "velocity": 80,
                "duration": 0.0636364,
                "tempo": 120.0
            },
            {
                "start_time": 17.9681818,
                "end_time": 18.2022727,
                "pitch": 33,
                "velocity": 80,
                "duration": 0.2340909,
                "tempo": 120.0
            },
            {
                "start_time": 18.2863636,
                "end_time": 18.3681818,
                "pitch": 33,
                "velocity": 80,
                "duration": 0.0818182,
                "tempo": 120.0
            },
            {
                "start_time": 18.4022727,
                "end_time": 18.5522727,
                "pitch": 33,
                "velocity": 80,
                "duration": 0.15,
                "tempo": 120.0
            },
            {
                "start_time": 18.6181818,
                "end_time": 18.7681818,
                "pitch": 45,
                "velocity": 80,
                "duration": 0.15,
                "tempo": 120.0
            },
            {
                "start_time": 18.8204545,
                "end_time": 18.9659091,
                "pitch": 31,
                "velocity": 80,
                "duration": 0.1454545,
                "tempo": 120.0
            },
            {
                "start_time": 19.0318182,
                "end_time": 19.1772727,
                "pitch": 31,
                "velocity": 80,
                "duration": 0.1454545,
                "tempo": 120.0
            },
            {
                "start_time": 19.3613636,
                "end_time": 19.5113636,
                "pitch": 43,
                "velocity": 80,
                "duration": 0.15,
                "tempo": 120.0
            },
            {
                "start_time": 19.5613636,
                "end_time": 19.6431818,
                "pitch": 31,
                "velocity": 80,
                "duration": 0.0818182,
                "tempo": 120.0
            },
            {
                "start_time": 19.6795455,
                "end_time": 19.8272727,
                "pitch": 30,
                "velocity": 80,
                "duration": 0.1477273,
                "tempo": 120.0
            },
            {
                "start_time": 19.8954545,
                "end_time": 20.0454545,
                "pitch": 42,
                "velocity": 80,
                "duration": 0.15,
                "tempo": 120.0
            },
            {
                "start_time": 20.1113636,
                "end_time": 20.2659091,
                "pitch": 29,
                "velocity": 80,
                "duration": 0.1545455,
                "tempo": 120.0
            },
            {
                "start_time": 20.3159091,
                "end_time": 20.4704545,
                "pitch": 41,
                "velocity": 80,
                "duration": 0.1545455,
                "tempo": 120.0
            },
            {
                "start_time": 20.5386364,
                "end_time": 20.6818182,
                "pitch": 40,
                "velocity": 80,
                "duration": 0.1431818,
                "tempo": 120.0
            },
            {
                "start_time": 20.7454545,
                "end_time": 20.8863636,
                "pitch": 40,
                "velocity": 80,
                "duration": 0.1409091,
                "tempo": 120.0
            },
            {
                "start_time": 21.0522727,
                "end_time": 21.2022727,
                "pitch": 52,
                "velocity": 80,
                "duration": 0.15,
                "tempo": 120.0
            },
            {
                "start_time": 21.2681818,
                "end_time": 21.3340909,
                "pitch": 40,
                "velocity": 80,
                "duration": 0.0659091,
                "tempo": 120.0
            },
            {
                "start_time": 21.3704545,
                "end_time": 21.6136364,
                "pitch": 40,
                "velocity": 80,
                "duration": 0.2431818,
                "tempo": 120.0
            },
            {
                "start_time": 21.6954545,
                "end_time": 21.7613636,
                "pitch": 40,
                "velocity": 80,
                "duration": 0.0659091,
                "tempo": 120.0
            },
            {
                "start_time": 21.7954545,
                "end_time": 21.9431818,
                "pitch": 38,
                "velocity": 80,
                "duration": 0.1477273,
                "tempo": 120.0
            },
            {
                "start_time": 22.0113636,
                "end_time": 22.1590909,
                "pitch": 43,
                "velocity": 80,
                "duration": 0.1477273,
                "tempo": 120.0
            },
            {
                "start_time": 22.2272727,
                "end_time": 22.3772727,
                "pitch": 36,
                "velocity": 80,
                "duration": 0.15,
                "tempo": 120.0
            },
            {
                "start_time": 22.4454545,
                "end_time": 22.5931818,
                "pitch": 36,
                "velocity": 80,
                "duration": 0.1477273,
                "tempo": 120.0
            },
            {
                "start_time": 22.7590909,
                "end_time": 22.9045455,
                "pitch": 48,
                "velocity": 80,
                "duration": 0.1454545,
                "tempo": 120.0
            },
            {
                "start_time": 22.9727273,
                "end_time": 23.0363636,
                "pitch": 36,
                "velocity": 80,
                "duration": 0.0636364,
                "tempo": 120.0
            },
            {
                "start_time": 23.0704545,
                "end_time": 23.2181818,
                "pitch": 36,
                "velocity": 80,
                "duration": 0.1477273,
                "tempo": 120.0
            },
            {
                "start_time": 23.2863636,
                "end_time": 23.4363636,
                "pitch": 48,
                "velocity": 80,
                "duration": 0.15,
                "tempo": 120.0
            },
            {
                "start_time": 23.5045455,
                "end_time": 23.6522727,
                "pitch": 35,
                "velocity": 80,
                "duration": 0.1477273,
                "tempo": 120.0
            },
            {
                "start_time": 23.7204545,
                "end_time": 23.8704545,
                "pitch": 47,
                "velocity": 80,
                "duration": 0.15,
                "tempo": 120.0
            },
            {
                "start_time": 23.9386364,
                "end_time": 24.0863636,
                "pitch": 33,
                "velocity": 80,
                "duration": 0.1477273,
                "tempo": 120.0
            },
            {
                "start_time": 24.1386364,
                "end_time": 24.2863636,
                "pitch": 33,
                "velocity": 80,
                "duration": 0.1477273,
                "tempo": 120.0
            },
            {
                "start_time": 24.4704545,
                "end_time": 24.6159091,
                "pitch": 45,
                "velocity": 80,
                "duration": 0.1454545,
                "tempo": 120.0
            },
            {
                "start_time": 24.6818182,
                "end_time": 24.7454545,
                "pitch": 33,
                "velocity": 80,
                "duration": 0.0636364,
                "tempo": 120.0
            },
            {
                "start_time": 24.7795455,
                "end_time": 25.0113636,
                "pitch": 33,
                "velocity": 80,
                "duration": 0.2318182,
                "tempo": 120.0
            },
            {
                "start_time": 25.0977273,
                "end_time": 25.1795455,
                "pitch": 33,
                "velocity": 80,
                "duration": 0.0818182,
                "tempo": 120.0
            },
            {
                "start_time": 25.2136364,
                "end_time": 25.3659091,
                "pitch": 33,
                "velocity": 80,
                "duration": 0.1522727,
                "tempo": 120.0
            },
            {
                "start_time": 25.4340909,
                "end_time": 25.5886364,
                "pitch": 45,
                "velocity": 80,
                "duration": 0.1545455,
                "tempo": 120.0
            },
            {
                "start_time": 25.6409091,
                "end_time": 25.7818182,
                "pitch": 31,
                "velocity": 80,
                "duration": 0.1409091,
                "tempo": 120.0
            },
            {
                "start_time": 25.8477273,
                "end_time": 25.9886364,
                "pitch": 31,
                "velocity": 80,
                "duration": 0.1409091,
                "tempo": 120.0
            },
            {
                "start_time": 26.1704545,
                "end_time": 26.3181818,
                "pitch": 43,
                "velocity": 80,
                "duration": 0.1477273,
                "tempo": 120.0
            },
            {
                "start_time": 26.3704545,
                "end_time": 26.4522727,
                "pitch": 31,
                "velocity": 80,
                "duration": 0.0818182,
                "tempo": 120.0
            },
            {
                "start_time": 26.4863636,
                "end_time": 26.6363636,
                "pitch": 30,
                "velocity": 80,
                "duration": 0.15,
                "tempo": 120.0
            },
            {
                "start_time": 26.7045455,
                "end_time": 26.8522727,
                "pitch": 42,
                "velocity": 80,
                "duration": 0.1477273,
                "tempo": 120.0
            },
            {
                "start_time": 26.9204545,
                "end_time": 27.0727273,
                "pitch": 29,
                "velocity": 80,
                "duration": 0.1522727,
                "tempo": 120.0
            },
            {
                "start_time": 27.125,
                "end_time": 27.2772727,
                "pitch": 41,
                "velocity": 80,
                "duration": 0.1522727,
                "tempo": 120.0
            },
            {
                "start_time": 27.3477273,
                "end_time": 27.4886364,
                "pitch": 36,
                "velocity": 80,
                "duration": 0.1409091,
                "tempo": 120.0
            },
            {
                "start_time": 27.5545455,
                "end_time": 27.6954545,
                "pitch": 36,
                "velocity": 80,
                "duration": 0.1409091,
                "tempo": 120.0
            },
            {
                "start_time": 27.8613636,
                "end_time": 28.0159091,
                "pitch": 48,
                "velocity": 80,
                "duration": 0.1545455,
                "tempo": 120.0
            },
            {
                "start_time": 28.0840909,
                "end_time": 28.1681818,
                "pitch": 36,
                "velocity": 80,
                "duration": 0.0840909,
                "tempo": 120.0
            },
            {
                "start_time": 28.2045455,
                "end_time": 28.5022727,
                "pitch": 35,
                "velocity": 80,
                "duration": 0.2977273,
                "tempo": 120.0
            },
            {
                "start_time": 28.6204545,
                "end_time": 28.9204545,
                "pitch": 39,
                "velocity": 80,
                "duration": 0.3,
                "tempo": 120.0
            },
            {
                "start_time": 29.0340909,
                "end_time": 29.1840909,
                "pitch": 40,
                "velocity": 80,
                "duration": 0.15,
                "tempo": 120.0
            },
            {
                "start_time": 29.25,
                "end_time": 29.4,
                "pitch": 40,
                "velocity": 80,
                "duration": 0.15,
                "tempo": 120.0
            },
            {
                "start_time": 29.5704545,
                "end_time": 29.7227273,
                "pitch": 52,
                "velocity": 80,
                "duration": 0.1522727,
                "tempo": 120.0
            },
            {
                "start_time": 29.7909091,
                "end_time": 29.875,
                "pitch": 51,
                "velocity": 80,
                "duration": 0.0840909,
                "tempo": 120.0
            },
            {
                "start_time": 29.9113636,
                "end_time": 30.1431818,
                "pitch": 38,
                "velocity": 80,
                "duration": 0.2318182,
                "tempo": 120.0
            },
            {
                "start_time": 30.2272727,
                "end_time": 30.2931818,
                "pitch": 38,
                "velocity": 80,
                "duration": 0.0659091,
                "tempo": 120.0
            },
            {
                "start_time": 30.3272727,
                "end_time": 30.4704545,
                "pitch": 50,
                "velocity": 80,
                "duration": 0.1431818,
                "tempo": 120.0
            },
            {
                "start_time": 30.5340909,
                "end_time": 30.6772727,
                "pitch": 38,
                "velocity": 80,
                "duration": 0.1431818,
                "tempo": 120.0
            },
            {
                "start_time": 30.7409091,
                "end_time": 30.8931818,
                "pitch": 37,
                "velocity": 80,
                "duration": 0.1522727,
                "tempo": 120.0
            },
            {
                "start_time": 30.9636364,
                "end_time": 31.1159091,
                "pitch": 37,
                "velocity": 80,
                "duration": 0.1522727,
                "tempo": 120.0
            },
            {
                "start_time": 31.2840909,
                "end_time": 31.4340909,
                "pitch": 49,
                "velocity": 80,
                "duration": 0.15,
                "tempo": 120.0
            },
            {
                "start_time": 31.5022727,
                "end_time": 31.5681818,
                "pitch": 37,
                "velocity": 80,
                "duration": 0.0659091,
                "tempo": 120.0
            },
            {
                "start_time": 31.6022727,
                "end_time": 31.8454545,
                "pitch": 36,
                "velocity": 80,
                "duration": 0.2431818,
                "tempo": 120.0
            },
            {
                "start_time": 31.9272727,
                "end_time": 31.9931818,
                "pitch": 36,
                "velocity": 80,
                "duration": 0.0659091,
                "tempo": 120.0
            },
            {
                "start_time": 32.0272727,
                "end_time": 32.175,
                "pitch": 48,
                "velocity": 80,
                "duration": 0.1477273,
                "tempo": 120.0
            },
            {
                "start_time": 32.2431818,
                "end_time": 32.3931818,
                "pitch": 36,
                "velocity": 80,
                "duration": 0.15,
                "tempo": 120.0
            },
            {
                "start_time": 32.4613636,
                "end_time": 32.6090909,
                "pitch": 35,
                "velocity": 80,
                "duration": 0.1477273,
                "tempo": 120.0
            },
            {
                "start_time": 32.6772727,
                "end_time": 32.8272727,
                "pitch": 35,
                "velocity": 80,
                "duration": 0.15,
                "tempo": 120.0
            },
            {
                "start_time": 32.9931818,
                "end_time": 33.1431818,
                "pitch": 47,
                "velocity": 80,
                "duration": 0.15,
                "tempo": 120.0
            },
            {
                "start_time": 33.2113636,
                "end_time": 33.2772727,
                "pitch": 35,
                "velocity": 80,
                "duration": 0.0659091,
                "tempo": 120.0
            },
            {
                "start_time": 33.3113636,
                "end_time": 33.4545455,
                "pitch": 36,
                "velocity": 80,
                "duration": 0.1431818,
                "tempo": 120.0
            },
            {
                "start_time": 33.5181818,
                "end_time": 33.6590909,
                "pitch": 48,
                "velocity": 80,
                "duration": 0.1409091,
                "tempo": 120.0
            },
            {
                "start_time": 33.725,
                "end_time": 33.8772727,
                "pitch": 35,
                "velocity": 80,
                "duration": 0.1522727,
                "tempo": 120.0
            },
            {
                "start_time": 33.9454545,
                "end_time": 34.0977273,
                "pitch": 47,
                "velocity": 80,
                "duration": 0.1522727,
                "tempo": 120.0
            },
            {
                "start_time": 34.1681818,
                "end_time": 34.3181818,
                "pitch": 36,
                "velocity": 80,
                "duration": 0.15,
                "tempo": 120.0
            },
            {
                "start_time": 34.3840909,
                "end_time": 34.5340909,
                "pitch": 36,
                "velocity": 80,
                "duration": 0.15,
                "tempo": 120.0
            },
            {
                "start_time": 34.7,
                "end_time": 34.8454545,
                "pitch": 48,
                "velocity": 80,
                "duration": 0.1454545,
                "tempo": 120.0
            },
            {
                "start_time": 34.9113636,
                "end_time": 34.9772727,
                "pitch": 36,
                "velocity": 80,
                "duration": 0.0659091,
                "tempo": 120.0
            },
            {
                "start_time": 35.0113636,
                "end_time": 35.3272727,
                "pitch": 35,
                "velocity": 80,
                "duration": 0.3159091,
                "tempo": 120.0
            },
            {
                "start_time": 35.4454545,
                "end_time": 35.7590909,
                "pitch": 39,
                "velocity": 80,
                "duration": 0.3136364,
                "tempo": 120.0
            },
            {
                "start_time": 35.8772727,
                "end_time": 36.0272727,
                "pitch": 40,
                "velocity": 80,
                "duration": 0.15,
                "tempo": 120.0
            },
            {
                "start_time": 36.0772727,
                "end_time": 36.2272727,
                "pitch": 40,
                "velocity": 80,
                "duration": 0.15,
                "tempo": 120.0
            },
            {
                "start_time": 36.4090909,
                "end_time": 36.5545455,
                "pitch": 52,
                "velocity": 80,
                "duration": 0.1454545,
                "tempo": 120.0
            },
            {
                "start_time": 36.6204545,
                "end_time": 36.6863636,
                "pitch": 51,
                "velocity": 80,
                "duration": 0.0659091,
                "tempo": 120.0
            },
            {
                "start_time": 36.7204545,
                "end_time": 36.9522727,
                "pitch": 38,
                "velocity": 80,
                "duration": 0.2318182,
                "tempo": 120.0
            },
            {
                "start_time": 37.0363636,
                "end_time": 37.1204545,
                "pitch": 38,
                "velocity": 80,
                "duration": 0.0840909,
                "tempo": 120.0
            },
            {
                "start_time": 37.1545455,
                "end_time": 37.3022727,
                "pitch": 50,
                "velocity": 80,
                "duration": 0.1477273,
                "tempo": 120.0
            },
            {
                "start_time": 37.3704545,
                "end_time": 37.5204545,
                "pitch": 38,
                "velocity": 80,
                "duration": 0.15,
                "tempo": 120.0
            },
            {
                "start_time": 37.5704545,
                "end_time": 37.7159091,
                "pitch": 37,
                "velocity": 80,
                "duration": 0.1454545,
                "tempo": 120.0
            },
            {
                "start_time": 37.7840909,
                "end_time": 37.9295455,
                "pitch": 37,
                "velocity": 80,
                "duration": 0.1454545,
                "tempo": 120.0
            },
            {
                "start_time": 38.1113636,
                "end_time": 38.2613636,
                "pitch": 49,
                "velocity": 80,
                "duration": 0.15,
                "tempo": 120.0
            },
            {
                "start_time": 38.3136364,
                "end_time": 38.3954545,
                "pitch": 37,
                "velocity": 80,
                "duration": 0.0818182,
                "tempo": 120.0
            },
            {
                "start_time": 38.4295455,
                "end_time": 38.6613636,
                "pitch": 36,
                "velocity": 80,
                "duration": 0.2318182,
                "tempo": 120.0
            },
            {
                "start_time": 38.7454545,
                "end_time": 38.8295455,
                "pitch": 36,
                "velocity": 80,
                "duration": 0.0840909,
                "tempo": 120.0
            },
            {
                "start_time": 38.8636364,
                "end_time": 39.0090909,
                "pitch": 48,
                "velocity": 80,
                "duration": 0.1454545,
                "tempo": 120.0
            },
            {
                "start_time": 39.0590909,
                "end_time": 39.2045455,
                "pitch": 36,
                "velocity": 80,
                "duration": 0.1454545,
                "tempo": 120.0
            },
            {
                "start_time": 39.2727273,
                "end_time": 39.4204545,
                "pitch": 35,
                "velocity": 80,
                "duration": 0.1477273,
                "tempo": 120.0
            },
            {
                "start_time": 39.4886364,
                "end_time": 39.6386364,
                "pitch": 35,
                "velocity": 80,
                "duration": 0.15,
                "tempo": 120.0
            },
            {
                "start_time": 39.8045455,
                "end_time": 39.9545455,
                "pitch": 47,
                "velocity": 80,
                "duration": 0.15,
                "tempo": 120.0
            },
            {
                "start_time": 40.0227273,
                "end_time": 40.1045455,
                "pitch": 35,
                "velocity": 80,
                "duration": 0.0818182,
                "tempo": 120.0
            },
            {
                "start_time": 40.1386364,
                "end_time": 40.2886364,
                "pitch": 36,
                "velocity": 80,
                "duration": 0.15,
                "tempo": 120.0
            },
            {
                "start_time": 40.3545455,
                "end_time": 40.5045455,
                "pitch": 48,
                "velocity": 80,
                "duration": 0.15,
                "tempo": 120.0
            },
            {
                "start_time": 40.5568182,
                "end_time": 40.7022727,
                "pitch": 31,
                "velocity": 80,
                "duration": 0.1454545,
                "tempo": 120.0
            },
            {
                "start_time": 40.7681818,
                "end_time": 40.9159091,
                "pitch": 43,
                "velocity": 80,
                "duration": 0.1477273,
                "tempo": 120.0
            },
            {
                "start_time": 40.9818182,
                "end_time": 41.1295455,
                "pitch": 40,
                "velocity": 80,
                "duration": 0.1477273,
                "tempo": 120.0
            },
            {
                "start_time": 41.1977273,
                "end_time": 41.3477273,
                "pitch": 40,
                "velocity": 80,
                "duration": 0.15,
                "tempo": 120.0
            },
            {
                "start_time": 41.5181818,
                "end_time": 41.6704545,
                "pitch": 52,
                "velocity": 80,
                "duration": 0.1522727,
                "tempo": 120.0
            },
            {
                "start_time": 41.7386364,
                "end_time": 41.8227273,
                "pitch": 40,
                "velocity": 80,
                "duration": 0.0840909,
                "tempo": 120.0
            },
            {
                "start_time": 41.8568182,
                "end_time": 42.0795455,
                "pitch": 40,
                "velocity": 80,
                "duration": 0.2227273,
                "tempo": 120.0
            },
            {
                "start_time": 42.1590909,
                "end_time": 42.2227273,
                "pitch": 40,
                "velocity": 80,
                "duration": 0.0636364,
                "tempo": 120.0
            },
            {
                "start_time": 42.2545455,
                "end_time": 42.4068182,
                "pitch": 38,
                "velocity": 80,
                "duration": 0.1522727,
                "tempo": 120.0
            },
            {
                "start_time": 42.475,
                "end_time": 42.6295455,
                "pitch": 43,
                "velocity": 80,
                "duration": 0.1545455,
                "tempo": 120.0
            },
            {
                "start_time": 42.6977273,
                "end_time": 42.8431818,
                "pitch": 36,
                "velocity": 80,
                "duration": 0.1454545,
                "tempo": 120.0
            },
            {
                "start_time": 42.9090909,
                "end_time": 43.0568182,
                "pitch": 36,
                "velocity": 80,
                "duration": 0.1477273,
                "tempo": 120.0
            },
            {
                "start_time": 43.225,
                "end_time": 43.3772727,
                "pitch": 48,
                "velocity": 80,
                "duration": 0.1522727,
                "tempo": 120.0
            },
            {
                "start_time": 43.4454545,
                "end_time": 43.5136364,
                "pitch": 36,
                "velocity": 80,
                "duration": 0.0681818,
                "tempo": 120.0
            },
            {
                "start_time": 43.5477273,
                "end_time": 43.6909091,
                "pitch": 36,
                "velocity": 80,
                "duration": 0.1431818,
                "tempo": 120.0
            },
            {
                "start_time": 43.7545455,
                "end_time": 43.8977273,
                "pitch": 48,
                "velocity": 80,
                "duration": 0.1431818,
                "tempo": 120.0
            },
            {
                "start_time": 43.9613636,
                "end_time": 44.1136364,
                "pitch": 35,
                "velocity": 80,
                "duration": 0.1522727,
                "tempo": 120.0
            },
            {
                "start_time": 44.1818182,
                "end_time": 44.3363636,
                "pitch": 47,
                "velocity": 80,
                "duration": 0.1545455,
                "tempo": 120.0
            },
            {
                "start_time": 44.4045455,
                "end_time": 44.55,
                "pitch": 33,
                "velocity": 80,
                "duration": 0.1454545,
                "tempo": 120.0
            },
            {
                "start_time": 44.6159091,
                "end_time": 44.7636364,
                "pitch": 33,
                "velocity": 80,
                "duration": 0.1477273,
                "tempo": 120.0
            },
            {
                "start_time": 44.9272727,
                "end_time": 45.0727273,
                "pitch": 45,
                "velocity": 80,
                "duration": 0.1454545,
                "tempo": 120.0
            },
            {
                "start_time": 45.1386364,
                "end_time": 45.2045455,
                "pitch": 33,
                "velocity": 80,
                "duration": 0.0659091,
                "tempo": 120.0
            },
            {
                "start_time": 45.2386364,
                "end_time": 45.4863636,
                "pitch": 33,
                "velocity": 80,
                "duration": 0.2477273,
                "tempo": 120.0
            },
            {
                "start_time": 45.5704545,
                "end_time": 45.6363636,
                "pitch": 33,
                "velocity": 80,
                "duration": 0.0659091,
                "tempo": 120.0
            },
            {
                "start_time": 45.6727273,
                "end_time": 45.825,
                "pitch": 33,
                "velocity": 80,
                "duration": 0.1522727,
                "tempo": 120.0
            },
            {
                "start_time": 45.8931818,
                "end_time": 46.0454545,
                "pitch": 45,
                "velocity": 80,
                "duration": 0.1522727,
                "tempo": 120.0
            },
            {
                "start_time": 46.1159091,
                "end_time": 46.2636364,
                "pitch": 31,
                "velocity": 80,
                "duration": 0.1477273,
                "tempo": 120.0
            },
            {
                "start_time": 46.3318182,
                "end_time": 46.4818182,
                "pitch": 31,
                "velocity": 80,
                "duration": 0.15,
                "tempo": 120.0
            },
            {
                "start_time": 46.6431818,
                "end_time": 46.7863636,
                "pitch": 43,
                "velocity": 80,
                "duration": 0.1431818,
                "tempo": 120.0
            },
            {
                "start_time": 46.85,
                "end_time": 46.9113636,
                "pitch": 31,
                "velocity": 80,
                "duration": 0.0613636,
                "tempo": 120.0
            },
            {
                "start_time": 46.9454545,
                "end_time": 47.0977273,
                "pitch": 30,
                "velocity": 80,
                "duration": 0.1522727,
                "tempo": 120.0
            },
            {
                "start_time": 47.1659091,
                "end_time": 47.3181818,
                "pitch": 42,
                "velocity": 80,
                "duration": 0.1522727,
                "tempo": 120.0
            },
            {
                "start_time": 47.3886364,
                "end_time": 47.5386364,
                "pitch": 29,
                "velocity": 80,
                "duration": 0.15,
                "tempo": 120.0
            },
            {
                "start_time": 47.6045455,
                "end_time": 47.7545455,
                "pitch": 41,
                "velocity": 80,
                "duration": 0.15,
                "tempo": 120.0
            },
            {
                "start_time": 47.8204545,
                "end_time": 47.9636364,
                "pitch": 40,
                "velocity": 80,
                "duration": 0.1431818,
                "tempo": 120.0
            },
            {
                "start_time": 48.0272727,
                "end_time": 48.1704545,
                "pitch": 40,
                "velocity": 80,
                "duration": 0.1431818,
                "tempo": 120.0
            },
            {
                "start_time": 48.3363636,
                "end_time": 48.4909091,
                "pitch": 52,
                "velocity": 80,
                "duration": 0.1545455,
                "tempo": 120.0
            },
            {
                "start_time": 48.5590909,
                "end_time": 48.6431818,
                "pitch": 40,
                "velocity": 80,
                "duration": 0.0840909,
                "tempo": 120.0
            },
            {
                "start_time": 48.675,
                "end_time": 48.8977273,
                "pitch": 40,
                "velocity": 80,
                "duration": 0.2227273,
                "tempo": 120.0
            },
            {
                "start_time": 48.9772727,
                "end_time": 49.0409091,
                "pitch": 40,
                "velocity": 80,
                "duration": 0.0636364,
                "tempo": 120.0
            },
            {
                "start_time": 49.075,
                "end_time": 49.2272727,
                "pitch": 38,
                "velocity": 80,
                "duration": 0.1522727,
                "tempo": 120.0
            },
            {
                "start_time": 49.2954545,
                "end_time": 49.4477273,
                "pitch": 43,
                "velocity": 80,
                "duration": 0.1522727,
                "tempo": 120.0
            },
            {
                "start_time": 49.5159091,
                "end_time": 49.6636364,
                "pitch": 36,
                "velocity": 80,
                "duration": 0.1477273,
                "tempo": 120.0
            },
            {
                "start_time": 49.7272727,
                "end_time": 49.875,
                "pitch": 36,
                "velocity": 80,
                "duration": 0.1477273,
                "tempo": 120.0
            },
            {
                "start_time": 50.0431818,
                "end_time": 50.1977273,
                "pitch": 48,
                "velocity": 80,
                "duration": 0.1545455,
                "tempo": 120.0
            },
            {
                "start_time": 50.2659091,
                "end_time": 50.3340909,
                "pitch": 36,
                "velocity": 80,
                "duration": 0.0681818,
                "tempo": 120.0
            },
            {
                "start_time": 50.3659091,
                "end_time": 50.5090909,
                "pitch": 36,
                "velocity": 80,
                "duration": 0.1431818,
                "tempo": 120.0
            },
            {
                "start_time": 50.5727273,
                "end_time": 50.7159091,
                "pitch": 48,
                "velocity": 80,
                "duration": 0.1431818,
                "tempo": 120.0
            },
            {
                "start_time": 50.7818182,
                "end_time": 50.9340909,
                "pitch": 35,
                "velocity": 80,
                "duration": 0.1522727,
                "tempo": 120.0
            },
            {
                "start_time": 51.0022727,
                "end_time": 51.1545455,
                "pitch": 47,
                "velocity": 80,
                "duration": 0.1522727,
                "tempo": 120.0
            },
            {
                "start_time": 51.225,
                "end_time": 51.3727273,
                "pitch": 33,
                "velocity": 80,
                "duration": 0.1477273,
                "tempo": 120.0
            },
            {
                "start_time": 51.4409091,
                "end_time": 51.5909091,
                "pitch": 33,
                "velocity": 80,
                "duration": 0.15,
                "tempo": 120.0
            },
            {
                "start_time": 51.7545455,
                "end_time": 51.9022727,
                "pitch": 45,
                "velocity": 80,
                "duration": 0.1477273,
                "tempo": 120.0
            },
            {
                "start_time": 51.9681818,
                "end_time": 52.0318182,
                "pitch": 33,
                "velocity": 80,
                "duration": 0.0636364,
                "tempo": 120.0
            },
            {
                "start_time": 52.0659091,
                "end_time": 52.3159091,
                "pitch": 33,
                "velocity": 80,
                "duration": 0.25,
                "tempo": 120.0
            },
            {
                "start_time": 52.4,
                "end_time": 52.4659091,
                "pitch": 33,
                "velocity": 80,
                "duration": 0.0659091,
                "tempo": 120.0
            },
            {
                "start_time": 52.5,
                "end_time": 52.65,
                "pitch": 33,
                "velocity": 80,
                "duration": 0.15,
                "tempo": 120.0
            },
            {
                "start_time": 52.7159091,
                "end_time": 52.8659091,
                "pitch": 45,
                "velocity": 80,
                "duration": 0.15,
                "tempo": 120.0
            },
            {
                "start_time": 52.9340909,
                "end_time": 53.0840909,
                "pitch": 31,
                "velocity": 80,
                "duration": 0.15,
                "tempo": 120.0
            },
            {
                "start_time": 53.15,
                "end_time": 53.3,
                "pitch": 31,
                "velocity": 80,
                "duration": 0.15,
                "tempo": 120.0
            },
            {
                "start_time": 53.4636364,
                "end_time": 53.6113636,
                "pitch": 43,
                "velocity": 80,
                "duration": 0.1477273,
                "tempo": 120.0
            },
            {
                "start_time": 53.6772727,
                "end_time": 53.7431818,
                "pitch": 31,
                "velocity": 80,
                "duration": 0.0659091,
                "tempo": 120.0
            },
            {
                "start_time": 53.775,
                "end_time": 53.925,
                "pitch": 30,
                "velocity": 80,
                "duration": 0.15,
                "tempo": 120.0
            },
            {
                "start_time": 53.9931818,
                "end_time": 54.1431818,
                "pitch": 42,
                "velocity": 80,
                "duration": 0.15,
                "tempo": 120.0
            },
            {
                "start_time": 54.2090909,
                "end_time": 54.3590909,
                "pitch": 29,
                "velocity": 80,
                "duration": 0.15,
                "tempo": 120.0
            },
            {
                "start_time": 54.4272727,
                "end_time": 54.5772727,
                "pitch": 41,
                "velocity": 80,
                "duration": 0.15,
                "tempo": 120.0
            },
            {
                "start_time": 54.6431818,
                "end_time": 54.7840909,
                "pitch": 36,
                "velocity": 80,
                "duration": 0.1409091,
                "tempo": 120.0
            },
            {
                "start_time": 54.8318182,
                "end_time": 54.975,
                "pitch": 36,
                "velocity": 80,
                "duration": 0.1431818,
                "tempo": 120.0
            },
            {
                "start_time": 55.1590909,
                "end_time": 55.3113636,
                "pitch": 48,
                "velocity": 80,
                "duration": 0.1522727,
                "tempo": 120.0
            },
            {
                "start_time": 55.3818182,
                "end_time": 55.45,
                "pitch": 36,
                "velocity": 80,
                "duration": 0.0681818,
                "tempo": 120.0
            },
            {
                "start_time": 55.4840909,
                "end_time": 55.8,
                "pitch": 35,
                "velocity": 80,
                "duration": 0.3159091,
                "tempo": 120.0
            },
            {
                "start_time": 55.9181818,
                "end_time": 56.2181818,
                "pitch": 39,
                "velocity": 80,
                "duration": 0.3,
                "tempo": 120.0
            },
            {
                "start_time": 56.3340909,
                "end_time": 56.4795455,
                "pitch": 40,
                "velocity": 80,
                "duration": 0.1454545,
                "tempo": 120.0
            },
            {
                "start_time": 56.5454545,
                "end_time": 56.6931818,
                "pitch": 40,
                "velocity": 80,
                "duration": 0.1477273,
                "tempo": 120.0
            },
            {
                "start_time": 56.875,
                "end_time": 57.025,
                "pitch": 52,
                "velocity": 80,
                "duration": 0.15,
                "tempo": 120.0
            },
            {
                "start_time": 57.075,
                "end_time": 57.1590909,
                "pitch": 51,
                "velocity": 80,
                "duration": 0.0840909,
                "tempo": 120.0
            },
            {
                "start_time": 57.1931818,
                "end_time": 57.425,
                "pitch": 38,
                "velocity": 80,
                "duration": 0.2318182,
                "tempo": 120.0
            },
            {
                "start_time": 57.5090909,
                "end_time": 57.5772727,
                "pitch": 38,
                "velocity": 80,
                "duration": 0.0681818,
                "tempo": 120.0
            },
            {
                "start_time": 57.6090909,
                "end_time": 57.7568182,
                "pitch": 50,
                "velocity": 80,
                "duration": 0.1477273,
                "tempo": 120.0
            },
            {
                "start_time": 57.8227273,
                "end_time": 57.9681818,
                "pitch": 38,
                "velocity": 80,
                "duration": 0.1454545,
                "tempo": 120.0
            },
            {
                "start_time": 58.0340909,
                "end_time": 58.1840909,
                "pitch": 37,
                "velocity": 80,
                "duration": 0.15,
                "tempo": 120.0
            },
            {
                "start_time": 58.2522727,
                "end_time": 58.4022727,
                "pitch": 37,
                "velocity": 80,
                "duration": 0.15,
                "tempo": 120.0
            },
            {
                "start_time": 58.5681818,
                "end_time": 58.7181818,
                "pitch": 49,
                "velocity": 80,
                "duration": 0.15,
                "tempo": 120.0
            },
            {
                "start_time": 58.7863636,
                "end_time": 58.8681818,
                "pitch": 37,
                "velocity": 80,
                "duration": 0.0818182,
                "tempo": 120.0
            },
            {
                "start_time": 58.9022727,
                "end_time": 59.1363636,
                "pitch": 36,
                "velocity": 80,
                "duration": 0.2340909,
                "tempo": 120.0
            },
            {
                "start_time": 59.2204545,
                "end_time": 59.2863636,
                "pitch": 36,
                "velocity": 80,
                "duration": 0.0659091,
                "tempo": 120.0
            },
            {
                "start_time": 59.3204545,
                "end_time": 59.4659091,
                "pitch": 48,
                "velocity": 80,
                "duration": 0.1454545,
                "tempo": 120.0
            },
            {
                "start_time": 59.5318182,
                "end_time": 59.6795455,
                "pitch": 36,
                "velocity": 80,
                "duration": 0.1477273,
                "tempo": 120.0
            },
            {
                "start_time": 59.7454545,
                "end_time": 59.8954545,
                "pitch": 35,
                "velocity": 80,
                "duration": 0.15,
                "tempo": 120.0
            },
            {
                "start_time": 59.9613636,
                "end_time": 60.1113636,
                "pitch": 35,
                "velocity": 80,
                "duration": 0.15,
                "tempo": 120.0
            },
            {
                "start_time": 60.2795455,
                "end_time": 60.4295455,
                "pitch": 47,
                "velocity": 80,
                "duration": 0.15,
                "tempo": 120.0
            },
            {
                "start_time": 60.4954545,
                "end_time": 60.5613636,
                "pitch": 35,
                "velocity": 80,
                "duration": 0.0659091,
                "tempo": 120.0
            },
            {
                "start_time": 60.5954545,
                "end_time": 60.7431818,
                "pitch": 36,
                "velocity": 80,
                "duration": 0.1477273,
                "tempo": 120.0
            },
            {
                "start_time": 60.8068182,
                "end_time": 60.9545455,
                "pitch": 48,
                "velocity": 80,
                "duration": 0.1477273,
                "tempo": 120.0
            },
            {
                "start_time": 61.0204545,
                "end_time": 61.1704545,
                "pitch": 35,
                "velocity": 80,
                "duration": 0.15,
                "tempo": 120.0
            },
            {
                "start_time": 61.2363636,
                "end_time": 61.3863636,
                "pitch": 47,
                "velocity": 80,
                "duration": 0.15,
                "tempo": 120.0
            },
            {
                "start_time": 61.4545455,
                "end_time": 61.6045455,
                "pitch": 36,
                "velocity": 80,
                "duration": 0.15,
                "tempo": 120.0
            },
            {
                "start_time": 61.6704545,
                "end_time": 61.8204545,
                "pitch": 36,
                "velocity": 80,
                "duration": 0.15,
                "tempo": 120.0
            },
            {
                "start_time": 61.9909091,
                "end_time": 62.1431818,
                "pitch": 48,
                "velocity": 80,
                "duration": 0.1522727,
                "tempo": 120.0
            },
            {
                "start_time": 62.2136364,
                "end_time": 62.2795455,
                "pitch": 36,
                "velocity": 80,
                "duration": 0.0659091,
                "tempo": 120.0
            },
            {
                "start_time": 62.3136364,
                "end_time": 62.6159091,
                "pitch": 35,
                "velocity": 80,
                "duration": 0.3022727,
                "tempo": 120.0
            },
            {
                "start_time": 62.7272727,
                "end_time": 63.0522727,
                "pitch": 39,
                "velocity": 80,
                "duration": 0.325,
                "tempo": 120.0
            },
            {
                "start_time": 63.1704545,
                "end_time": 63.3204545,
                "pitch": 40,
                "velocity": 80,
                "duration": 0.15,
                "tempo": 120.0
            },
            {
                "start_time": 63.3886364,
                "end_time": 63.5386364,
                "pitch": 40,
                "velocity": 80,
                "duration": 0.15,
                "tempo": 120.0
            },
            {
                "start_time": 63.6977273,
                "end_time": 63.8409091,
                "pitch": 52,
                "velocity": 80,
                "duration": 0.1431818,
                "tempo": 120.0
            },
            {
                "start_time": 63.9045455,
                "end_time": 63.9681818,
                "pitch": 51,
                "velocity": 80,
                "duration": 0.0636364,
                "tempo": 120.0
            },
            {
                "start_time": 64.0022727,
                "end_time": 64.2340909,
                "pitch": 38,
                "velocity": 80,
                "duration": 0.2318182,
                "tempo": 120.0
            },
            {
                "start_time": 64.3181818,
                "end_time": 64.4022727,
                "pitch": 38,
                "velocity": 80,
                "duration": 0.0840909,
                "tempo": 120.0
            },
            {
                "start_time": 64.4363636,
                "end_time": 64.5886364,
                "pitch": 50,
                "velocity": 80,
                "duration": 0.1522727,
                "tempo": 120.0
            },
            {
                "start_time": 64.6568182,
                "end_time": 64.8113636,
                "pitch": 38,
                "velocity": 80,
                "duration": 0.1545455,
                "tempo": 120.0
            },
            {
                "start_time": 64.8795455,
                "end_time": 65.0295455,
                "pitch": 37,
                "velocity": 80,
                "duration": 0.15,
                "tempo": 120.0
            },
            {
                "start_time": 65.0795455,
                "end_time": 65.2295455,
                "pitch": 37,
                "velocity": 80,
                "duration": 0.15,
                "tempo": 120.0
            },
            {
                "start_time": 65.4090909,
                "end_time": 65.5568182,
                "pitch": 49,
                "velocity": 80,
                "duration": 0.1477273,
                "tempo": 120.0
            },
            {
                "start_time": 65.6227273,
                "end_time": 65.6863636,
                "pitch": 37,
                "velocity": 80,
                "duration": 0.0636364,
                "tempo": 120.0
            },
            {
                "start_time": 65.7204545,
                "end_time": 65.9545455,
                "pitch": 36,
                "velocity": 80,
                "duration": 0.2340909,
                "tempo": 120.0
            },
            {
                "start_time": 66.0386364,
                "end_time": 66.1204545,
                "pitch": 36,
                "velocity": 80,
                "duration": 0.0818182,
                "tempo": 120.0
            },
            {
                "start_time": 66.1545455,
                "end_time": 66.3045455,
                "pitch": 48,
                "velocity": 80,
                "duration": 0.15,
                "tempo": 120.0
            },
            {
                "start_time": 66.3704545,
                "end_time": 66.5204545,
                "pitch": 36,
                "velocity": 80,
                "duration": 0.15,
                "tempo": 120.0
            },
            {
                "start_time": 66.5704545,
                "end_time": 66.7136364,
                "pitch": 35,
                "velocity": 80,
                "duration": 0.1431818,
                "tempo": 120.0
            },
            {
                "start_time": 66.7772727,
                "end_time": 66.9204545,
                "pitch": 35,
                "velocity": 80,
                "duration": 0.1431818,
                "tempo": 120.0
            },
            {
                "start_time": 67.1045455,
                "end_time": 67.2568182,
                "pitch": 47,
                "velocity": 80,
                "duration": 0.1522727,
                "tempo": 120.0
            },
            {
                "start_time": 67.3090909,
                "end_time": 67.3931818,
                "pitch": 35,
                "velocity": 80,
                "duration": 0.0840909,
                "tempo": 120.0
            },
            {
                "start_time": 67.4272727,
                "end_time": 67.5772727,
                "pitch": 36,
                "velocity": 80,
                "duration": 0.15,
                "tempo": 120.0
            },
            {
                "start_time": 67.6454545,
                "end_time": 67.7954545,
                "pitch": 48,
                "velocity": 80,
                "duration": 0.15,
                "tempo": 120.0
            },
            {
                "start_time": 67.8613636,
                "end_time": 68.0113636,
                "pitch": 35,
                "velocity": 80,
                "duration": 0.15,
                "tempo": 120.0
            },
            {
                "start_time": 68.0613636,
                "end_time": 68.2113636,
                "pitch": 47,
                "velocity": 80,
                "duration": 0.15,
                "tempo": 120.0
            }
        ]
    }
}