{
    "mood": "angry",
    "instruments": {
        "French Horn": [
            {
                "start_time": 0.0090909,
                "end_time": 0.2068182,
                "pitch": 33,
                "velocity": 64,
                "duration": 0.1977273,
                "tempo": 120.0
            },
            {
                "start_time": 0.2068182,
                "end_time": 0.4159091,
                "pitch": 36,
                "velocity": 64,
                "duration": 0.2090909,
                "tempo": 120.0
            }
        ],
        "Electric Guitar (clean)": [
            {
                "start_time": 0.4181818,
                "end_time": 3.0227273,
                "pitch": 38,
                "velocity": 64,
                "duration": 2.6045455,
                "tempo": 120.0
            },
            {
                "start_time": 3.225,
                "end_time": 3.4227273,
                "pitch": 38,
                "velocity": 64,
                "duration": 0.1977273,
                "tempo": 120.0
            },
            {
                "start_time": 3.425,
                "end_time": 3.6295455,
                "pitch": 36,
                "velocity": 64,
                "duration": 0.2045455,
                "tempo": 120.0
            },
            {
                "start_time": 3.6295455,
                "end_time": 6.2340909,
                "pitch": 34,
                "velocity": 64,
                "duration": 2.6045455,
                "tempo": 120.0
            },
            {
                "start_time": 6.4386364,
                "end_time": 6.6386364,
                "pitch": 34,
                "velocity": 64,
                "duration": 0.2,
                "tempo": 120.0
            },
            {
                "start_time": 6.6386364,
                "end_time": 6.8431818,
                "pitch": 33,
                "velocity": 64,
                "duration": 0.2045455,
                "tempo": 120.0
            },
            {
                "start_time": 6.8454545,
                "end_time": 9.4636364,
                "pitch": 31,
                "velocity": 64,
                "duration": 2.6181818,
                "tempo": 120.0
            },
            {
                "start_time": 9.6659091,
                "end_time": 9.8659091,
                "pitch": 31,
                "velocity": 64,
                "duration": 0.2,
                "tempo": 120.0
            },
            {
                "start_time": 9.8681818,
                "end_time": 10.0681818,
                "pitch": 33,
                "velocity": 64,
                "duration": 0.2,
                "tempo": 120.0
            },
            {
                "start_time": 10.0704545,
                "end_time": 12.6863636,
                "pitch": 34,
                "velocity": 64,
                "duration": 2.6159091,
                "tempo": 120.0
            },
            {
                "start_time": 12.8886364,
                "end_time": 13.0863636,
                "pitch": 33,
                "velocity": 64,
                "duration": 0.1977273,
                "tempo": 120.0
            },
            {
                "start_time": 13.0886364,
                "end_time": 13.2931818,
                "pitch": 36,
                "velocity": 64,
                "duration": 0.2045455,
                "tempo": 120.0
            },
            {
                "start_time": 13.2931818,
                "end_time": 13.6954545,
                "pitch": 38,
                "velocity": 64,
                "duration": 0.4022727,
                "tempo": 120.0
            },
            {
                "start_time": 13.6977273,
                "end_time": 13.8954545,
                "pitch": 50,
                "velocity": 64,
                "duration": 0.1977273,
                "tempo": 120.0
            },
            {
                "start_time": 13.8954545,
                "end_time": 14.3045455,
                "pitch": 38,
                "velocity": 64,
                "duration": 0.4090909,
                "tempo": 120.0
            },
            {
                "start_time": 14.3045455,
                "end_time": 14.7068182,
                "pitch": 38,
                "velocity": 64,
                "duration": 0.4022727,
                "tempo": 120.0
            },
            {
                "start_time": 14.7068182,
                "end_time": 15.1090909,
                "pitch": 38,
                "velocity": 64,
                "duration": 0.4022727,
                "tempo": 120.0
            },
            {
                "start_time": 15.1113636,
                "end_time": 15.3113636,
                "pitch": 38,
                "velocity": 64,
                "duration": 0.2,
                "tempo": 120.0
            },
            {
                "start_time": 15.3136364,
                "end_time": 15.5113636,
                "pitch": 50,
                "velocity": 64,
                "duration": 0.1977273,
                "tempo": 120.0
            },
            {
                "start_time": 15.5136364,
                "end_time": 15.9136364,
                "pitch": 38,
                "velocity": 64,
                "duration": 0.4,
                "tempo": 120.0
            },
            {
                "start_time": 15.9159091,
                "end_time": 16.1181818,
                "pitch": 38,
                "velocity": 64,
                "duration": 0.2022727,
                "tempo": 120.0
            },
            {
                "start_time": 16.1181818,
                "end_time": 16.3159091,
                "pitch": 38,
                "velocity": 64,
                "duration": 0.1977273,
                "tempo": 120.0
            },
            {
                "start_time": 16.3181818,
                "end_time": 16.5159091,
                "pitch": 36,
                "velocity": 64,
                "duration": 0.1977273,
                "tempo": 120.0
            },
            {
                "start_time": 16.5181818,
                "end_time": 16.9204545,
                "pitch": 34,
                "velocity": 64,
                "duration": 0.4022727,
                "tempo": 120.0
            },
            {
                "start_time": 16.9227273,
                "end_time": 17.1227273,
                "pitch": 46,
                "velocity": 64,
                "duration": 0.2,
                "tempo": 120.0
            },
            {
                "start_time": 17.1227273,
                "end_time": 17.525,
                "pitch": 34,
                "velocity": 64,
                "duration": 0.4022727,
                "tempo": 120.0
            },
            {
                "start_time": 17.5272727,
                "end_time": 17.9227273,
                "pitch": 34,
                "velocity": 64,
                "duration": 0.3954545,
                "tempo": 120.0
            },
            {
                "start_time": 17.925,
                "end_time": 18.3227273,
                "pitch": 34,
                "velocity": 64,
                "duration": 0.3977273,
                "tempo": 120.0
            },
            {
                "start_time": 18.325,
                "end_time": 18.525,
                "pitch": 34,
                "velocity": 64,
                "duration": 0.2,
                "tempo": 120.0
            },
            {
                "start_time": 18.5272727,
                "end_time": 18.7272727,
                "pitch": 46,
                "velocity": 64,
                "duration": 0.2,
                "tempo": 120.0
            },
            {
                "start_time": 18.7295455,
                "end_time": 19.1272727,
                "pitch": 34,
                "velocity": 64,
                "duration": 0.3977273,
                "tempo": 120.0
            },
            {
                "start_time": 19.1295455,
                "end_time": 19.3295455,
                "pitch": 34,
                "velocity": 64,
                "duration": 0.2,
                "tempo": 120.0
            },
            {
                "start_time": 19.3318182,
                "end_time": 19.5295455,
                "pitch": 34,
                "velocity": 64,
                "duration": 0.1977273,
                "tempo": 120.0
            },
            {
                "start_time": 19.5295455,
                "end_time": 19.7272727,
                "pitch": 33,
                "velocity": 64,
                "duration": 0.1977273,
                "tempo": 120.0
            },
            {
                "start_time": 19.7295455,
                "end_time": 20.1318182,
                "pitch": 31,
                "velocity": 64,
                "duration": 0.4022727,
                "tempo": 120.0
            },
            {
                "start_time": 20.1318182,
                "end_time": 20.3318182,
                "pitch": 43,
                "velocity": 64,
                "duration": 0.2,
                "tempo": 120.0
            },
            {
                "start_time": 20.3340909,
                "end_time": 20.7340909,
                "pitch": 31,
                "velocity": 64,
                "duration": 0.4,
                "tempo": 120.0
            },
            {
                "start_time": 20.7363636,
                "end_time": 20.9363636,
                "pitch": 31,
                "velocity": 64,
                "duration": 0.2,
                "tempo": 120.0
            },
            {
                "start_time": 20.9386364,
                "end_time": 21.1363636,
                "pitch": 33,
                "velocity": 64,
                "duration": 0.1977273,
                "tempo": 120.0
            },
            {
                "start_time": 21.1386364,
                "end_time": 21.3454545,
                "pitch": 34,
                "velocity": 64,
                "duration": 0.2068182,
                "tempo": 120.0
            },
            {
                "start_time": 21.3454545,
                "end_time": 21.7454545,
                "pitch": 36,
                "velocity": 64,
                "duration": 0.4,
                "tempo": 120.0
            },
            {
                "start_time": 21.7454545,
                "end_time": 21.9409091,
                "pitch": 48,
                "velocity": 64,
                "duration": 0.1954545,
                "tempo": 120.0
            },
            {
                "start_time": 21.9431818,
                "end_time": 22.3522727,
                "pitch": 36,
                "velocity": 64,
                "duration": 0.4090909,
                "tempo": 120.0
            },
            {
                "start_time": 22.3545455,
                "end_time": 22.5545455,
                "pitch": 34,
                "velocity": 64,
                "duration": 0.2,
                "tempo": 120.0
            },
            {
                "start_time": 22.5545455,
                "end_time": 22.7522727,
                "pitch": 38,
                "velocity": 64,
                "duration": 0.1977273,
                "tempo": 120.0
            },
            {
                "start_time": 22.7522727,
                "end_time": 22.9568182,
                "pitch": 40,
                "velocity": 64,
                "duration": 0.2045455,
                "tempo": 120.0
            },
            {
                "start_time": 22.9568182,
                "end_time": 23.3568182,
                "pitch": 41,
                "velocity": 64,
                "duration": 0.4,
                "tempo": 120.0
            },
            {
                "start_time": 23.3568182,
                "end_time": 23.5568182,
                "pitch": 53,
                "velocity": 64,
                "duration": 0.2,
                "tempo": 120.0
            },
            {
                "start_time": 23.5590909,
                "end_time": 23.9590909,
                "pitch": 41,
                "velocity": 64,
                "duration": 0.4,
                "tempo": 120.0
            },
            {
                "start_time": 23.9613636,
                "end_time": 24.1613636,
                "pitch": 41,
                "velocity": 64,
                "duration": 0.2,
                "tempo": 120.0
            },
            {
                "start_time": 24.1613636,
                "end_time": 24.3590909,
                "pitch": 53,
                "velocity": 64,
                "duration": 0.1977273,
                "tempo": 120.0
            },
            {
                "start_time": 24.3613636,
                "end_time": 24.5613636,
                "pitch": 43,
                "velocity": 64,
                "duration": 0.2,
                "tempo": 120.0
            },
            {
                "start_time": 24.5613636,
                "end_time": 24.9590909,
                "pitch": 40,
                "velocity": 64,
                "duration": 0.3977273,
                "tempo": 120.0
            },
            {
                "start_time": 24.9613636,
                "end_time": 25.1613636,
                "pitch": 52,
                "velocity": 64,
                "duration": 0.2,
                "tempo": 120.0
            },
            {
                "start_time": 25.1613636,
                "end_time": 25.3636364,
                "pitch": 40,
                "velocity": 64,
                "duration": 0.2022727,
                "tempo": 120.0
            },
            {
                "start_time": 25.3636364,
                "end_time": 25.5613636,
                "pitch": 33,
                "velocity": 64,
                "duration": 0.1977273,
                "tempo": 120.0
            },
            {
                "start_time": 25.7636364,
                "end_time": 25.9636364,
                "pitch": 33,
                "velocity": 64,
                "duration": 0.2,
                "tempo": 120.0
            },
            {
                "start_time": 25.9659091,
                "end_time": 26.1636364,
                "pitch": 36,
                "velocity": 64,
                "duration": 0.1977273,
                "tempo": 120.0
            },
            {
                "start_time": 26.1659091,
                "end_time": 26.5681818,
                "pitch": 38,
                "velocity": 64,
                "duration": 0.4022727,
                "tempo": 120.0
            },
            {
                "start_time": 26.5704545,
                "end_time": 26.7704545,
                "pitch": 50,
                "velocity": 64,
                "duration": 0.2,
                "tempo": 120.0
            },
            {
                "start_time": 26.7727273,
                "end_time": 27.1727273,
                "pitch": 38,
                "velocity": 64,
                "duration": 0.4,
                "tempo": 120.0
            },
            {
                "start_time": 27.1727273,
                "end_time": 27.5704545,
                "pitch": 38,
                "velocity": 64,
                "duration": 0.3977273,
                "tempo": 120.0
            },
            {
                "start_time": 27.5727273,
                "end_time": 27.9818182,
                "pitch": 38,
                "velocity": 64,
                "duration": 0.4090909,
                "tempo": 120.0
            },
            {
                "start_time": 27.9840909,
                "end_time": 28.1818182,
                "pitch": 38,
                "velocity": 64,
                "duration": 0.1977273,
                "tempo": 120.0
            },
            {
                "start_time": 28.1818182,
                "end_time": 28.3772727,
                "pitch": 50,
                "velocity": 64,
                "duration": 0.1954545,
                "tempo": 120.0
            },
            {
                "start_time": 28.3795455,
                "end_time": 28.7886364,
                "pitch": 38,
                "velocity": 64,
                "duration": 0.4090909,
                "tempo": 120.0
            },
            {
                "start_time": 28.7886364,
                "end_time": 28.9886364,
                "pitch": 38,
                "velocity": 64,
                "duration": 0.2,
                "tempo": 120.0
            },
            {
                "start_time": 28.9909091,
                "end_time": 29.1863636,
                "pitch": 38,
                "velocity": 64,
                "duration": 0.1954545,
                "tempo": 120.0
            },
            {
                "start_time": 29.1886364,
                "end_time": 29.3863636,
                "pitch": 36,
                "velocity": 64,
                "duration": 0.1977273,
                "tempo": 120.0
            },
            {
                "start_time": 29.3886364,
                "end_time": 29.7886364,
                "pitch": 34,
                "velocity": 64,
                "duration": 0.4,
                "tempo": 120.0
            },
            {
                "start_time": 29.7886364,
                "end_time": 29.9840909,
                "pitch": 46,
                "velocity": 64,
                "duration": 0.1954545,
                "tempo": 120.0
            },
            {
                "start_time": 29.9863636,
                "end_time": 30.3954545,
                "pitch": 34,
                "velocity": 64,
                "duration": 0.4090909,
                "tempo": 120.0
            },
            {
                "start_time": 30.3977273,
                "end_time": 30.7954545,
                "pitch": 34,
                "velocity": 64,
                "duration": 0.3977273,
                "tempo": 120.0
            },
            {
                "start_time": 30.7954545,
                "end_time": 31.1931818,
                "pitch": 34,
                "velocity": 64,
                "duration": 0.3977273,
                "tempo": 120.0
            },
            {
                "start_time": 31.1954545,
                "end_time": 31.3954545,
                "pitch": 34,
                "velocity": 64,
                "duration": 0.2,
                "tempo": 120.0
            },
            {
                "start_time": 31.3977273,
                "end_time": 31.5977273,
                "pitch": 46,
                "velocity": 64,
                "duration": 0.2,
                "tempo": 120.0
            },
            {
                "start_time": 31.6,
                "end_time": 31.9977273,
                "pitch": 34,
                "velocity": 64,
                "duration": 0.3977273,
                "tempo": 120.0
            },
            {
                "start_time": 32.0,
                "end_time": 32.2,
                "pitch": 34,
                "velocity": 64,
                "duration": 0.2,
                "tempo": 120.0
            },
            {
                "start_time": 32.2022727,
                "end_time": 32.4,
                "pitch": 34,
                "velocity": 64,
                "duration": 0.1977273,
                "tempo": 120.0
            },
            {
                "start_time": 32.4022727,
                "end_time": 32.5977273,
                "pitch": 33,
                "velocity": 64,
                "duration": 0.1954545,
                "tempo": 120.0
            },
            {
                "start_time": 32.6,
                "end_time": 33.0022727,
                "pitch": 31,
                "velocity": 64,
                "duration": 0.4022727,
                "tempo": 120.0
            },
            {
                "start_time": 33.0045455,
                "end_time": 33.2022727,
                "pitch": 43,
                "velocity": 64,
                "duration": 0.1977273,
                "tempo": 120.0
            },
            {
                "start_time": 33.2045455,
                "end_time": 33.6022727,
                "pitch": 31,
                "velocity": 64,
                "duration": 0.3977273,
                "tempo": 120.0
            },
            {
                "start_time": 33.6045455,
                "end_time": 33.8068182,
                "pitch": 31,
                "velocity": 64,
                "duration": 0.2022727,
                "tempo": 120.0
            },
            {
                "start_time": 33.8090909,
                "end_time": 34.0068182,
                "pitch": 33,
                "velocity": 64,
                "duration": 0.1977273,
                "tempo": 120.0
            },
            {
                "start_time": 34.0090909,
                "end_time": 34.2090909,
                "pitch": 34,
                "velocity": 64,
                "duration": 0.2,
                "tempo": 120.0
            },
            {
                "start_time": 34.2113636,
                "end_time": 34.6090909,
                "pitch": 36,
                "velocity": 64,
                "duration": 0.3977273,
                "tempo": 120.0
            },
            {
                "start_time": 34.6090909,
                "end_time": 34.8090909,
                "pitch": 48,
                "velocity": 64,
                "duration": 0.2,
                "tempo": 120.0
            },
            {
                "start_time": 34.8113636,
                "end_time": 35.0068182,
                "pitch": 36,
                "velocity": 64,
                "duration": 0.1954545,
                "tempo": 120.0
            },
            {
                "start_time": 35.0090909,
                "end_time": 35.4090909,
                "pitch": 33,
                "velocity": 64,
                "duration": 0.4,
                "tempo": 120.0
            },
            {
                "start_time": 35.4113636,
                "end_time": 35.6090909,
                "pitch": 34,
                "velocity": 64,
                "duration": 0.1977273,
                "tempo": 120.0
            },
            {
                "start_time": 35.6090909,
                "end_time": 35.8136364,
                "pitch": 36,
                "velocity": 64,
                "duration": 0.2045455,
                "tempo": 120.0
            },
            {
                "start_time": 35.8136364,
                "end_time": 36.2136364,
                "pitch": 38,
                "velocity": 64,
                "duration": 0.4,
                "tempo": 120.0
            },
            {
                "start_time": 36.2159091,
                "end_time": 36.4136364,
                "pitch": 50,
                "velocity": 64,
                "duration": 0.1977273,
                "tempo": 120.0
            },
            {
                "start_time": 36.4159091,
                "end_time": 36.825,
                "pitch": 38,
                "velocity": 64,
                "duration": 0.4090909,
                "tempo": 120.0
            },
            {
                "start_time": 36.825,
                "end_time": 37.0227273,
                "pitch": 38,
                "velocity": 64,
                "duration": 0.1977273,
                "tempo": 120.0
            },
            {
                "start_time": 37.025,
                "end_time": 37.2159091,
                "pitch": 50,
                "velocity": 64,
                "duration": 0.1909091,
                "tempo": 120.0
            },
            {
                "start_time": 37.2181818,
                "end_time": 37.425,
                "pitch": 38,
                "velocity": 64,
                "duration": 0.2068182,
                "tempo": 120.0
            },
            {
                "start_time": 37.425,
                "end_time": 37.8227273,
                "pitch": 38,
                "velocity": 64,
                "duration": 0.3977273,
                "tempo": 120.0
            },
            {
                "start_time": 37.825,
                "end_time": 38.0181818,
                "pitch": 50,
                "velocity": 64,
                "duration": 0.1931818,
                "tempo": 120.0
            },
            {
                "start_time": 38.0204545,
                "end_time": 38.2272727,
                "pitch": 38,
                "velocity": 64,
                "duration": 0.2068182,
                "tempo": 120.0
            },
            {
                "start_time": 38.2295455,
                "end_time": 39.2363636,
                "pitch": 26,
                "velocity": 64,
                "duration": 1.0068182,
                "tempo": 120.0
            },
            {
                "start_time": 39.2363636,
                "end_time": 39.4340909,
                "pitch": 34,
                "velocity": 64,
                "duration": 0.1977273,
                "tempo": 120.0
            },
            {
                "start_time": 39.4340909,
                "end_time": 39.6340909,
                "pitch": 34,
                "velocity": 64,
                "duration": 0.2,
                "tempo": 120.0
            },
            {
                "start_time": 39.8318182,
                "end_time": 40.0272727,
                "pitch": 36,
                "velocity": 64,
                "duration": 0.1954545,
                "tempo": 120.0
            },
            {
                "start_time": 40.0295455,
                "end_time": 40.2318182,
                "pitch": 31,
                "velocity": 64,
                "duration": 0.2022727,
                "tempo": 120.0
            },
            {
                "start_time": 40.2340909,
                "end_time": 40.4386364,
                "pitch": 33,
                "velocity": 64,
                "duration": 0.2045455,
                "tempo": 120.0
            },
            {
                "start_time": 40.4409091,
                "end_time": 40.6386364,
                "pitch": 29,
                "velocity": 64,
                "duration": 0.1977273,
                "tempo": 120.0
            },
            {
                "start_time": 40.6409091,
                "end_time": 40.8431818,
                "pitch": 31,
                "velocity": 64,
                "duration": 0.2022727,
                "tempo": 120.0
            },
            {
                "start_time": 40.8431818,
                "end_time": 41.0409091,
                "pitch": 24,
                "velocity": 64,
                "duration": 0.1977273,
                "tempo": 120.0
            },
            {
                "start_time": 41.0409091,
                "end_time": 41.2409091,
                "pitch": 24,
                "velocity": 64,
                "duration": 0.2,
                "tempo": 120.0
            },
            {
                "start_time": 41.4431818,
                "end_time": 41.8477273,
                "pitch": 36,
                "velocity": 64,
                "duration": 0.4045455,
                "tempo": 120.0
            },
            {
                "start_time": 41.85,
                "end_time": 42.45,
                "pitch": 24,
                "velocity": 64,
                "duration": 0.6,
                "tempo": 120.0
            },
            {
                "start_time": 42.45,
                "end_time": 42.6522727,
                "pitch": 29,
                "velocity": 64,
                "duration": 0.2022727,
                "tempo": 120.0
            },
            {
                "start_time": 42.6545455,
                "end_time": 42.8590909,
                "pitch": 29,
                "velocity": 64,
                "duration": 0.2045455,
                "tempo": 120.0
            },
            {
                "start_time": 43.0590909,
                "end_time": 43.4545455,
                "pitch": 41,
                "velocity": 64,
                "duration": 0.3954545,
                "tempo": 120.0
            },
            {
                "start_time": 43.4568182,
                "end_time": 43.8545455,
                "pitch": 40,
                "velocity": 64,
                "duration": 0.3977273,
                "tempo": 120.0
            },
            {
                "start_time": 43.8568182,
                "end_time": 44.2522727,
                "pitch": 39,
                "velocity": 64,
                "duration": 0.3954545,
                "tempo": 120.0
            },
            {
                "start_time": 44.2545455,
                "end_time": 44.4522727,
                "pitch": 36,
                "velocity": 64,
                "duration": 0.1977273,
                "tempo": 120.0
            },
            {
                "start_time": 44.4545455,
                "end_time": 44.6590909,
                "pitch": 33,
                "velocity": 64,
                "duration": 0.2045455,
                "tempo": 120.0
            },
            {
                "start_time": 44.6613636,
                "end_time": 45.0636364,
                "pitch": 29,
                "velocity": 64,
                "duration": 0.4022727,
                "tempo": 120.0
            },
            {
                "start_time": 45.0659091,
                "end_time": 45.6681818,
                "pitch": 27,
                "velocity": 64,
                "duration": 0.6022727,
                "tempo": 120.0
            },
            {
                "start_time": 45.6681818,
                "end_time": 45.8659091,
                "pitch": 34,
                "velocity": 64,
                "duration": 0.1977273,
                "tempo": 120.0
            },
            {
                "start_time": 45.8659091,
                "end_time": 46.0659091,
                "pitch": 34,
                "velocity": 64,
                "duration": 0.2,
                "tempo": 120.0
            },
            {
                "start_time": 46.2681818,
                "end_time": 46.4659091,
                "pitch": 36,
                "velocity": 64,
                "duration": 0.1977273,
                "tempo": 120.0
            },
            {
                "start_time": 46.4681818,
                "end_time": 46.6681818,
                "pitch": 31,
                "velocity": 64,
                "duration": 0.2,
                "tempo": 120.0
            },
            {
                "start_time": 46.6681818,
                "end_time": 46.8704545,
                "pitch": 33,
                "velocity": 64,
                "duration": 0.2022727,
                "tempo": 120.0
            },
            {
                "start_time": 46.8704545,
                "end_time": 47.0704545,
                "pitch": 29,
                "velocity": 64,
                "duration": 0.2,
                "tempo": 120.0
            },
            {
                "start_time": 47.0704545,
                "end_time": 47.2727273,
                "pitch": 31,
                "velocity": 64,
                "duration": 0.2022727,
                "tempo": 120.0
            },
            {
                "start_time": 47.275,
                "end_time": 47.4704545,
                "pitch": 28,
                "velocity": 64,
                "duration": 0.1954545,
                "tempo": 120.0
            },
            {
                "start_time": 47.4704545,
                "end_time": 47.6704545,
                "pitch": 28,
                "velocity": 64,
                "duration": 0.2,
                "tempo": 120.0
            },
            {
                "start_time": 47.8704545,
                "end_time": 48.0727273,
                "pitch": 40,
                "velocity": 64,
                "duration": 0.2022727,
                "tempo": 120.0
            },
            {
                "start_time": 48.075,
                "end_time": 48.2772727,
                "pitch": 28,
                "velocity": 64,
                "duration": 0.2022727,
                "tempo": 120.0
            },
            {
                "start_time": 48.2772727,
                "end_time": 48.4818182,
                "pitch": 29,
                "velocity": 64,
                "duration": 0.2045455,
                "tempo": 120.0
            },
            {
                "start_time": 48.4840909,
                "end_time": 48.6772727,
                "pitch": 31,
                "velocity": 64,
                "duration": 0.1931818,
                "tempo": 120.0
            },
            {
                "start_time": 48.6795455,
                "end_time": 48.8772727,
                "pitch": 28,
                "velocity": 64,
                "duration": 0.1977273,
                "tempo": 120.0
            },
            {
                "start_time": 48.8795455,
                "end_time": 49.075,
                "pitch": 33,
                "velocity": 64,
                "duration": 0.1954545,
                "tempo": 120.0
            },
            {
                "start_time": 49.0772727,
                "end_time": 49.275,
                "pitch": 33,
                "velocity": 64,
                "duration": 0.1977273,
                "tempo": 120.0
            },
            {
                "start_time": 49.2772727,
                "end_time": 49.4795455,
                "pitch": 37,
                "velocity": 64,
                "duration": 0.2022727,
                "tempo": 120.0
            },
            {
                "start_time": 49.4818182,
                "end_time": 49.6863636,
                "pitch": 40,
                "velocity": 64,
                "duration": 0.2045455,
                "tempo": 120.0
            },
            {
                "start_time": 49.8840909,
                "end_time": 50.0795455,
                "pitch": 43,
                "velocity": 64,
                "duration": 0.1954545,
                "tempo": 120.0
            },
            {
                "start_time": 50.0795455,
                "end_time": 50.2818182,
                "pitch": 41,
                "velocity": 64,
                "duration": 0.2022727,
                "tempo": 120.0
            },
            {
                "start_time": 50.2840909,
                "end_time": 51.0840909,
                "pitch": 40,
                "velocity": 64,
                "duration": 0.8,
                "tempo": 120.0
            },
            {
                "start_time": 51.0840909,
                "end_time": 51.2818182,
                "pitch": 37,
                "velocity": 64,
                "duration": 0.1977273,
                "tempo": 120.0
            },
            {
                "start_time": 51.2840909,
                "end_time": 51.4818182,
                "pitch": 25,
                "velocity": 64,
                "duration": 0.1977273,
                "tempo": 120.0
            },
            {
                "start_time": 51.4840909,
                "end_time": 51.6818182,
                "pitch": 33,
                "velocity": 64,
                "duration": 0.1977273,
                "tempo": 120.0
            },
            {
                "start_time": 51.6840909,
                "end_time": 51.8977273,
                "pitch": 36,
                "velocity": 64,
                "duration": 0.2136364,
                "tempo": 120.0
            },
            {
                "start_time": 51.9,
                "end_time": 52.2954545,
                "pitch": 38,
                "velocity": 64,
                "duration": 0.3954545,
                "tempo": 120.0
            },
            {
                "start_time": 52.2954545,
                "end_time": 52.4931818,
                "pitch": 50,
                "velocity": 64,
                "duration": 0.1977273,
                "tempo": 120.0
            },
            {
                "start_time": 52.4931818,
                "end_time": 52.6954545,
                "pitch": 38,
                "velocity": 64,
                "duration": 0.2022727,
                "tempo": 120.0
            },
            {
                "start_time": 52.6977273,
                "end_time": 52.9022727,
                "pitch": 38,
                "velocity": 64,
                "duration": 0.2045455,
                "tempo": 120.0
            },
            {
                "start_time": 52.9045455,
                "end_time": 53.1022727,
                "pitch": 38,
                "velocity": 64,
                "duration": 0.1977273,
                "tempo": 120.0
            },
            {
                "start_time": 53.1045455,
                "end_time": 53.3022727,
                "pitch": 38,
                "velocity": 64,
                "duration": 0.1977273,
                "tempo": 120.0
            },
            {
                "start_time": 53.3045455,
                "end_time": 53.5045455,
                "pitch": 38,
                "velocity": 64,
                "duration": 0.2,
                "tempo": 120.0
            },
            {
                "start_time": 53.5045455,
                "end_time": 53.9045455,
                "pitch": 38,
                "velocity": 64,
                "duration": 0.4,
                "tempo": 120.0
            },
            {
                "start_time": 53.9045455,
                "end_time": 54.1045455,
                "pitch": 38,
                "velocity": 64,
                "duration": 0.2,
                "tempo": 120.0
            },
            {
                "start_time": 54.1068182,
                "end_time": 54.3045455,
                "pitch": 38,
                "velocity": 64,
                "duration": 0.1977273,
                "tempo": 120.0
            },
            {
                "start_time": 54.3045455,
                "end_time": 54.5068182,
                "pitch": 38,
                "velocity": 64,
                "duration": 0.2022727,
                "tempo": 120.0
            },
            {
                "start_time": 54.7045455,
                "end_time": 54.8977273,
                "pitch": 38,
                "velocity": 64,
                "duration": 0.1931818,
                "tempo": 120.0
            },
            {
                "start_time": 54.8977273,
                "end_time": 55.1068182,
                "pitch": 36,
                "velocity": 64,
                "duration": 0.2090909,
                "tempo": 120.0
            },
            {
                "start_time": 55.1068182,
                "end_time": 55.5113636,
                "pitch": 34,
                "velocity": 64,
                "duration": 0.4045455,
                "tempo": 120.0
            },
            {
                "start_time": 55.5113636,
                "end_time": 55.7136364,
                "pitch": 46,
                "velocity": 64,
                "duration": 0.2022727,
                "tempo": 120.0
            },
            {
                "start_time": 55.7136364,
                "end_time": 55.9113636,
                "pitch": 34,
                "velocity": 64,
                "duration": 0.1977273,
                "tempo": 120.0
            },
            {
                "start_time": 55.9113636,
                "end_time": 56.1136364,
                "pitch": 34,
                "velocity": 64,
                "duration": 0.2022727,
                "tempo": 120.0
            },
            {
                "start_time": 56.1136364,
                "end_time": 56.3136364,
                "pitch": 34,
                "velocity": 64,
                "duration": 0.2,
                "tempo": 120.0
            },
            {
                "start_time": 56.3159091,
                "end_time": 56.5136364,
                "pitch": 34,
                "velocity": 64,
                "duration": 0.1977273,
                "tempo": 120.0
            },
            {
                "start_time": 56.5159091,
                "end_time": 56.7159091,
                "pitch": 34,
                "velocity": 64,
                "duration": 0.2,
                "tempo": 120.0
            },
            {
                "start_time": 56.7181818,
                "end_time": 57.1159091,
                "pitch": 34,
                "velocity": 64,
                "duration": 0.3977273,
                "tempo": 120.0
            },
            {
                "start_time": 57.1181818,
                "end_time": 57.3181818,
                "pitch": 34,
                "velocity": 64,
                "duration": 0.2,
                "tempo": 120.0
            },
            {
                "start_time": 57.3181818,
                "end_time": 57.5159091,
                "pitch": 34,
                "velocity": 64,
                "duration": 0.1977273,
                "tempo": 120.0
            },
            {
                "start_time": 57.5159091,
                "end_time": 57.7159091,
                "pitch": 34,
                "velocity": 64,
                "duration": 0.2,
                "tempo": 120.0
            },
            {
                "start_time": 57.9181818,
                "end_time": 58.1136364,
                "pitch": 34,
                "velocity": 64,
                "duration": 0.1954545,
                "tempo": 120.0
            },
            {
                "start_time": 58.1159091,
                "end_time": 58.3204545,
                "pitch": 33,
                "velocity": 64,
                "duration": 0.2045455,
                "tempo": 120.0
            },
            {
                "start_time": 58.3227273,
                "end_time": 58.7204545,
                "pitch": 31,
                "velocity": 64,
                "duration": 0.3977273,
                "tempo": 120.0
            },
            {
                "start_time": 58.7227273,
                "end_time": 58.9227273,
                "pitch": 43,
                "velocity": 64,
                "duration": 0.2,
                "tempo": 120.0
            },
            {
                "start_time": 58.9227273,
                "end_time": 59.1204545,
                "pitch": 31,
                "velocity": 64,
                "duration": 0.1977273,
                "tempo": 120.0
            },
            {
                "start_time": 59.1204545,
                "end_time": 59.3227273,
                "pitch": 31,
                "velocity": 64,
                "duration": 0.2022727,
                "tempo": 120.0
            },
            {
                "start_time": 59.3227273,
                "end_time": 59.5272727,
                "pitch": 31,
                "velocity": 64,
                "duration": 0.2045455,
                "tempo": 120.0
            },
            {
                "start_time": 59.5295455,
                "end_time": 59.7318182,
                "pitch": 31,
                "velocity": 64,
                "duration": 0.2022727,
                "tempo": 120.0
            },
            {
                "start_time": 59.7340909,
                "end_time": 59.9340909,
                "pitch": 31,
                "velocity": 64,
                "duration": 0.2,
                "tempo": 120.0
            },
            {
                "start_time": 59.9363636,
                "end_time": 60.3295455,
                "pitch": 33,
                "velocity": 64,
                "duration": 0.3931818,
                "tempo": 120.0
            },
            {
                "start_time": 60.3318182,
                "end_time": 60.525,
                "pitch": 45,
                "velocity": 64,
                "duration": 0.1931818,
                "tempo": 120.0
            },
            {
                "start_time": 60.5272727,
                "end_time": 60.7295455,
                "pitch": 33,
                "velocity": 64,
                "duration": 0.2022727,
                "tempo": 120.0
            },
            {
                "start_time": 60.7318182,
                "end_time": 60.9386364,
                "pitch": 33,
                "velocity": 64,
                "duration": 0.2068182,
                "tempo": 120.0
            },
            {
                "start_time": 61.1409091,
                "end_time": 61.3363636,
                "pitch": 31,
                "velocity": 64,
                "duration": 0.1954545,
                "tempo": 120.0
            },
            {
                "start_time": 61.3386364,
                "end_time": 61.5409091,
                "pitch": 33,
                "velocity": 64,
                "duration": 0.2022727,
                "tempo": 120.0
            },
            {
                "start_time": 61.5431818,
                "end_time": 61.9409091,
                "pitch": 34,
                "velocity": 64,
                "duration": 0.3977273,
                "tempo": 120.0
            },
            {
                "start_time": 61.9431818,
                "end_time": 62.1431818,
                "pitch": 46,
                "velocity": 64,
                "duration": 0.2,
                "tempo": 120.0
            },
            {
                "start_time": 62.1431818,
                "end_time": 62.3409091,
                "pitch": 34,
                "velocity": 64,
                "duration": 0.1977273,
                "tempo": 120.0
            },
            {
                "start_time": 62.3431818,
                "end_time": 62.5431818,
                "pitch": 34,
                "velocity": 64,
                "duration": 0.2,
                "tempo": 120.0
            },
            {
                "start_time": 62.5454545,
                "end_time": 62.7431818,
                "pitch": 34,
                "velocity": 64,
                "duration": 0.1977273,
                "tempo": 120.0
            },
            {
                "start_time": 62.7454545,
                "end_time": 62.9409091,
                "pitch": 34,
                "velocity": 64,
                "duration": 0.1954545,
                "tempo": 120.0
            },
            {
                "start_time": 62.9431818,
                "end_time": 63.1431818,
                "pitch": 34,
                "velocity": 64,
                "duration": 0.2,
                "tempo": 120.0
            },
            {
                "start_time": 63.1454545,
                "end_time": 63.5454545,
                "pitch": 33,
                "velocity": 64,
                "duration": 0.4,
                "tempo": 120.0
            },
            {
                "start_time": 63.5454545,
                "end_time": 63.7454545,
                "pitch": 45,
                "velocity": 64,
                "duration": 0.2,
                "tempo": 120.0
            },
            {
                "start_time": 63.7477273,
                "end_time": 63.9454545,
                "pitch": 43,
                "velocity": 64,
                "duration": 0.1977273,
                "tempo": 120.0
            },
            {
                "start_time": 63.9477273,
                "end_time": 64.1454545,
                "pitch": 40,
                "velocity": 64,
                "duration": 0.1977273,
                "tempo": 120.0
            },
            {
                "start_time": 64.1454545,
                "end_time": 64.3454545,
                "pitch": 25,
                "velocity": 64,
                "duration": 0.2,
                "tempo": 120.0
            },
            {
                "start_time": 64.3477273,
                "end_time": 64.5454545,
                "pitch": 33,
                "velocity": 64,
                "duration": 0.1977273,
                "tempo": 120.0
            },
            {
                "start_time": 64.5477273,
                "end_time": 64.7545455,
                "pitch": 36,
                "velocity": 64,
                "duration": 0.2068182,
                "tempo": 120.0
            },
            {
                "start_time": 64.7545455,
                "end_time": 65.15,
                "pitch": 38,
                "velocity": 64,
                "duration": 0.3954545,
                "tempo": 120.0
            },
            {
                "start_time": 65.1522727,
                "end_time": 65.3522727,
                "pitch": 50,
                "velocity": 64,
                "duration": 0.2,
                "tempo": 120.0
            },
            {
                "start_time": 65.3545455,
                "end_time": 65.5522727,
                "pitch": 38,
                "velocity": 64,
                "duration": 0.1977273,
                "tempo": 120.0
            },
            {
                "start_time": 65.5545455,
                "end_time": 65.7545455,
                "pitch": 38,
                "velocity": 64,
                "duration": 0.2,
                "tempo": 120.0
            },
            {
                "start_time": 65.7568182,
                "end_time": 65.9545455,
                "pitch": 38,
                "velocity": 64,
                "duration": 0.1977273,
                "tempo": 120.0
            },
            {
                "start_time": 65.9568182,
                "end_time": 66.1545455,
                "pitch": 38,
                "velocity": 64,
                "duration": 0.1977273,
                "tempo": 120.0
            },
            {
                "start_time": 66.1545455,
                "end_time": 66.3613636,
                "pitch": 38,
                "velocity": 64,
                "duration": 0.2068182,
                "tempo": 120.0
            },
            {
                "start_time": 66.3636364,
                "end_time": 66.7636364,
                "pitch": 38,
                "velocity": 64,
                "duration": 0.4,
                "tempo": 120.0
            },
            {
                "start_time": 66.7636364,
                "end_time": 66.9590909,
                "pitch": 38,
                "velocity": 64,
                "duration": 0.1954545,
                "tempo": 120.0
            },
            {
                "start_time": 66.9613636,
                "end_time": 67.1613636,
                "pitch": 38,
                "velocity": 64,
                "duration": 0.2,
                "tempo": 120.0
            },
            {
                "start_time": 67.1636364,
                "end_time": 67.3704545,
                "pitch": 38,
                "velocity": 64,
                "duration": 0.2068182,
                "tempo": 120.0
            },
            {
                "start_time": 67.5659091,
                "end_time": 67.7590909,
                "pitch": 38,
                "velocity": 64,
                "duration": 0.1931818,
                "tempo": 120.0
            },
            {
                "start_time": 67.7613636,
                "end_time": 67.9681818,
                "pitch": 36,
                "velocity": 64,
                "duration": 0.2068182,
                "tempo": 120.0
            },
            {
                "start_time": 67.9704545,
                "end_time": 68.3681818,
                "pitch": 34,
                "velocity": 64,
                "duration": 0.3977273,
                "tempo": 120.0
            },
            {
                "start_time": 68.3704545,
                "end_time": 68.5681818,
                "pitch": 46,
                "velocity": 64,
                "duration": 0.1977273,
                "tempo": 120.0
            },
            {
                "start_time": 68.5681818,
                "end_time": 68.7704545,
                "pitch": 34,
                "velocity": 64,
                "duration": 0.2022727,
                "tempo": 120.0
            },
            {
                "start_time": 68.7727273,
                "end_time": 68.9772727,
                "pitch": 34,
                "velocity": 64,
                "duration": 0.2045455,
                "tempo": 120.0
            },
            {
                "start_time": 68.9795455,
                "end_time": 69.1795455,
                "pitch": 34,
                "velocity": 64,
                "duration": 0.2,
                "tempo": 120.0
            },
            {
                "start_time": 69.1795455,
                "end_time": 69.3795455,
                "pitch": 34,
                "velocity": 64,
                "duration": 0.2,
                "tempo": 120.0
            },
            {
                "start_time": 69.3818182,
                "end_time": 69.5818182,
                "pitch": 34,
                "velocity": 64,
                "duration": 0.2,
                "tempo": 120.0
            },
            {
                "start_time": 69.5840909,
                "end_time": 69.9840909,
                "pitch": 34,
                "velocity": 64,
                "duration": 0.4,
                "tempo": 120.0
            },
            {
                "start_time": 69.9840909,
                "end_time": 70.1863636,
                "pitch": 34,
                "velocity": 64,
                "duration": 0.2022727,
                "tempo": 120.0
            },
            {
                "start_time": 70.1863636,
                "end_time": 70.3840909,
                "pitch": 34,
                "velocity": 64,
                "duration": 0.1977273,
                "tempo": 120.0
            },
            {
                "start_time": 70.3863636,
                "end_time": 70.5863636,
                "pitch": 34,
                "velocity": 64,
                "duration": 0.2,
                "tempo": 120.0
            },
            {
                "start_time": 70.7840909,
                "end_time": 70.9772727,
                "pitch": 34,
                "velocity": 64,
                "duration": 0.1931818,
                "tempo": 120.0
            },
            {
                "start_time": 70.9795455,
                "end_time": 71.1863636,
                "pitch": 33,
                "velocity": 64,
                "duration": 0.2068182,
                "tempo": 120.0
            },
            {
                "start_time": 71.1886364,
                "end_time": 71.5909091,
                "pitch": 31,
                "velocity": 64,
                "duration": 0.4022727,
                "tempo": 120.0
            },
            {
                "start_time": 71.5931818,
                "end_time": 71.7931818,
                "pitch": 43,
                "velocity": 64,
                "duration": 0.2,
                "tempo": 120.0
            },
            {
                "start_time": 71.7931818,
                "end_time": 71.9931818,
                "pitch": 31,
                "velocity": 64,
                "duration": 0.2,
                "tempo": 120.0
            },
            {
                "start_time": 71.9931818,
                "end_time": 72.1954545,
                "pitch": 31,
                "velocity": 64,
                "duration": 0.2022727,
                "tempo": 120.0
            },
            {
                "start_time": 72.1977273,
                "end_time": 72.3977273,
                "pitch": 31,
                "velocity": 64,
                "duration": 0.2,
                "tempo": 120.0
            },
            {
                "start_time": 72.3977273,
                "end_time": 72.5977273,
                "pitch": 31,
                "velocity": 64,
                "duration": 0.2,
                "tempo": 120.0
            },
            {
                "start_time": 72.5977273,
                "end_time": 72.8,
                "pitch": 31,
                "velocity": 64,
                "duration": 0.2022727,
                "tempo": 120.0
            },
            {
                "start_time": 72.8,
                "end_time": 73.2,
                "pitch": 33,
                "velocity": 64,
                "duration": 0.4,
                "tempo": 120.0
            },
            {
                "start_time": 73.2022727,
                "end_time": 73.4022727,
                "pitch": 45,
                "velocity": 64,
                "duration": 0.2,
                "tempo": 120.0
            },
            {
                "start_time": 73.4045455,
                "end_time": 73.6022727,
                "pitch": 33,
                "velocity": 64,
                "duration": 0.1977273,
                "tempo": 120.0
            },
            {
                "start_time": 73.6022727,
                "end_time": 73.8022727,
                "pitch": 33,
                "velocity": 64,
                "duration": 0.2,
                "tempo": 120.0
            },
            {
                "start_time": 74.0068182,
                "end_time": 74.2045455,
                "pitch": 31,
                "velocity": 64,
                "duration": 0.1977273,
                "tempo": 120.0
            },
            {
                "start_time": 74.2068182,
                "end_time": 74.4090909,
                "pitch": 33,
                "velocity": 64,
                "duration": 0.2022727,
                "tempo": 120.0
            },
            {
                "start_time": 74.4090909,
                "end_time": 74.8090909,
                "pitch": 34,
                "velocity": 64,
                "duration": 0.4,
                "tempo": 120.0
            },
            {
                "start_time": 74.8113636,
                "end_time": 75.0090909,
                "pitch": 30,
                "velocity": 64,
                "duration": 0.1977273,
                "tempo": 120.0
            },
            {
                "start_time": 75.0113636,
                "end_time": 75.2136364,
                "pitch": 34,
                "velocity": 64,
                "duration": 0.2022727,
                "tempo": 120.0
            },
            {
                "start_time": 75.2159091,
                "end_time": 75.4204545,
                "pitch": 38,
                "velocity": 64,
                "duration": 0.2045455,
                "tempo": 120.0
            },
            {
                "start_time": 75.6181818,
                "end_time": 75.8113636,
                "pitch": 33,
                "velocity": 64,
                "duration": 0.1931818,
                "tempo": 120.0
            },
            {
                "start_time": 75.8136364,
                "end_time": 76.0181818,
                "pitch": 36,
                "velocity": 64,
                "duration": 0.2045455,
                "tempo": 120.0
            },
            {
                "start_time": 76.0181818,
                "end_time": 78.6340909,
                "pitch": 38,
                "velocity": 64,
                "duration": 2.6159091,
                "tempo": 120.0
            },
            {
                "start_time": 78.8363636,
                "end_time": 79.0386364,
                "pitch": 38,
                "velocity": 64,
                "duration": 0.2022727,
                "tempo": 120.0
            },
            {
                "start_time": 79.0386364,
                "end_time": 79.2363636,
                "pitch": 36,
                "velocity": 64,
                "duration": 0.1977273,
                "tempo": 120.0
            },
            {
                "start_time": 79.2386364,
                "end_time": 81.8545455,
                "pitch": 34,
                "velocity": 64,
                "duration": 2.6159091,
                "tempo": 120.0
            },
            {
                "start_time": 82.0590909,
                "end_time": 82.2568182,
                "pitch": 34,
                "velocity": 64,
                "duration": 0.1977273,
                "tempo": 120.0
            },
            {
                "start_time": 82.2568182,
                "end_time": 82.4636364,
                "pitch": 33,
                "velocity": 64,
                "duration": 0.2068182,
                "tempo": 120.0
            },
            {
                "start_time": 82.4636364,
                "end_time": 85.0772727,
                "pitch": 31,
                "velocity": 64,
                "duration": 2.6136364,
                "tempo": 120.0
            },
            {
                "start_time": 85.275,
                "end_time": 85.4704545,
                "pitch": 31,
                "velocity": 64,
                "duration": 0.1954545,
                "tempo": 120.0
            },
            {
                "start_time": 85.4704545,
                "end_time": 85.675,
                "pitch": 33,
                "velocity": 64,
                "duration": 0.2045455,
                "tempo": 120.0
            },
            {
                "start_time": 85.6772727,
                "end_time": 88.2931818,
                "pitch": 34,
                "velocity": 64,
                "duration": 2.6159091,
                "tempo": 120.0
            },
            {
                "start_time": 88.4954545,
                "end_time": 88.6954545,
                "pitch": 33,
                "velocity": 64,
                "duration": 0.2,
                "tempo": 120.0
            },
            {
                "start_time": 88.6977273,
                "end_time": 88.8954545,
                "pitch": 36,
                "velocity": 64,
                "duration": 0.1977273,
                "tempo": 120.0
            }
        ],
        "Violin": [
            {
                "start_time": 0.8136364,
                "end_time": 0.9068182,
                "pitch": 69,
                "velocity": 40,
                "duration": 0.0931818,
                "tempo": 120.0
            },
            {
                "start_time": 0.9090909,
                "end_time": 0.9727273,
                "pitch": 70,
                "velocity": 40,
                "duration": 0.0636364,
                "tempo": 120.0
            },
            {
                "start_time": 0.9727273,
                "end_time": 1.0409091,
                "pitch": 72,
                "velocity": 40,
                "duration": 0.0681818,
                "tempo": 120.0
            },
            {
                "start_time": 1.0409091,
                "end_time": 1.1090909,
                "pitch": 74,
                "velocity": 40,
                "duration": 0.0681818,
                "tempo": 120.0
            },
            {
                "start_time": 1.1090909,
                "end_time": 1.1772727,
                "pitch": 76,
                "velocity": 40,
                "duration": 0.0681818,
                "tempo": 120.0
            },
            {
                "start_time": 1.1772727,
                "end_time": 1.2136364,
                "pitch": 78,
                "velocity": 40,
                "duration": 0.0363636,
                "tempo": 120.0
            },
            {
                "start_time": 1.2136364,
                "end_time": 4.0318182,
                "pitch": 79,
                "velocity": 40,
                "duration": 2.8181818,
                "tempo": 120.0
            },
            {
                "start_time": 4.0340909,
                "end_time": 4.0954545,
                "pitch": 82,
                "velocity": 40,
                "duration": 0.0613636,
                "tempo": 120.0
            },
            {
                "start_time": 4.0954545,
                "end_time": 4.1613636,
                "pitch": 84,
                "velocity": 40,
                "duration": 0.0659091,
                "tempo": 120.0
            },
            {
                "start_time": 4.1613636,
                "end_time": 4.2295455,
                "pitch": 86,
                "velocity": 40,
                "duration": 0.0681818,
                "tempo": 120.0
            },
            {
                "start_time": 4.2295455,
                "end_time": 4.2931818,
                "pitch": 88,
                "velocity": 40,
                "duration": 0.0636364,
                "tempo": 120.0
            },
            {
                "start_time": 4.2931818,
                "end_time": 4.3272727,
                "pitch": 90,
                "velocity": 40,
                "duration": 0.0340909,
                "tempo": 120.0
            },
            {
                "start_time": 4.3272727,
                "end_time": 7.1454545,
                "pitch": 91,
                "velocity": 40,
                "duration": 2.8181818,
                "tempo": 120.0
            },
            {
                "start_time": 7.1477273,
                "end_time": 7.1977273,
                "pitch": 92,
                "velocity": 4,
                "duration": 0.05,
                "tempo": 120.0
            },
            {
                "start_time": 7.1977273,
                "end_time": 7.25,
                "pitch": 91,
                "velocity": 4,
                "duration": 0.0522727,
                "tempo": 120.0
            },
            {
                "start_time": 7.2522727,
                "end_time": 7.3159091,
                "pitch": 70,
                "velocity": 40,
                "duration": 0.0636364,
                "tempo": 120.0
            },
            {
                "start_time": 7.3159091,
                "end_time": 7.3840909,
                "pitch": 72,
                "velocity": 40,
                "duration": 0.0681818,
                "tempo": 120.0
            },
            {
                "start_time": 7.3840909,
                "end_time": 7.4522727,
                "pitch": 74,
                "velocity": 40,
                "duration": 0.0681818,
                "tempo": 120.0
            },
            {
                "start_time": 7.4522727,
                "end_time": 7.5181818,
                "pitch": 76,
                "velocity": 40,
                "duration": 0.0659091,
                "tempo": 120.0
            },
            {
                "start_time": 1.2136364,
                "end_time": 7.5522727,
                "pitch": 67,
                "velocity": 40,
                "duration": 6.3386364,
                "tempo": 120.0
            },
            {
                "start_time": 7.5181818,
                "end_time": 7.5522727,
                "pitch": 78,
                "velocity": 40,
                "duration": 0.0340909,
                "tempo": 120.0
            },
            {
                "start_time": 4.3272727,
                "end_time": 10.4727273,
                "pitch": 79,
                "velocity": 40,
                "duration": 6.1454545,
                "tempo": 120.0
            },
            {
                "start_time": 7.5522727,
                "end_time": 10.4727273,
                "pitch": 79,
                "velocity": 40,
                "duration": 2.9204545,
                "tempo": 120.0
            },
            {
                "start_time": 10.475,
                "end_time": 10.5386364,
                "pitch": 82,
                "velocity": 40,
                "duration": 0.0636364,
                "tempo": 120.0
            },
            {
                "start_time": 10.5386364,
                "end_time": 10.6045455,
                "pitch": 84,
                "velocity": 40,
                "duration": 0.0659091,
                "tempo": 120.0
            },
            {
                "start_time": 10.6045455,
                "end_time": 10.675,
                "pitch": 86,
                "velocity": 40,
                "duration": 0.0704545,
                "tempo": 120.0
            },
            {
                "start_time": 10.675,
                "end_time": 10.7409091,
                "pitch": 88,
                "velocity": 40,
                "duration": 0.0659091,
                "tempo": 120.0
            },
            {
                "start_time": 10.7409091,
                "end_time": 10.7727273,
                "pitch": 90,
                "velocity": 40,
                "duration": 0.0318182,
                "tempo": 120.0
            },
            {
                "start_time": 10.7727273,
                "end_time": 13.4977273,
                "pitch": 91,
                "velocity": 40,
                "duration": 2.725,
                "tempo": 120.0
            },
            {
                "start_time": 76.2227273,
                "end_time": 76.3181818,
                "pitch": 69,
                "velocity": 51,
                "duration": 0.0954545,
                "tempo": 120.0
            },
            {
                "start_time": 76.3204545,
                "end_time": 79.4340909,
                "pitch": 81,
                "velocity": 51,
                "duration": 3.1136364,
                "tempo": 120.0
            },
            {
                "start_time": 79.4386364,
                "end_time": 79.5022727,
                "pitch": 82,
                "velocity": 51,
                "duration": 0.0636364,
                "tempo": 120.0
            },
            {
                "start_time": 79.5022727,
                "end_time": 79.5681818,
                "pitch": 84,
                "velocity": 51,
                "duration": 0.0659091,
                "tempo": 120.0
            },
            {
                "start_time": 79.5681818,
                "end_time": 79.6409091,
                "pitch": 86,
                "velocity": 51,
                "duration": 0.0727273,
                "tempo": 120.0
            },
            {
                "start_time": 79.6409091,
                "end_time": 79.7045455,
                "pitch": 88,
                "velocity": 51,
                "duration": 0.0636364,
                "tempo": 120.0
            },
            {
                "start_time": 10.7727273,
                "end_time": 79.7386364,
                "pitch": 79,
                "velocity": 40,
                "duration": 68.9659091,
                "tempo": 120.0
            },
            {
                "start_time": 79.7045455,
                "end_time": 79.7386364,
                "pitch": 90,
                "velocity": 51,
                "duration": 0.0340909,
                "tempo": 120.0
            },
            {
                "start_time": 79.7386364,
                "end_time": 79.875,
                "pitch": 91,
                "velocity": 51,
                "duration": 0.1363636,
                "tempo": 120.0
            },
            {
                "start_time": 79.875,
                "end_time": 82.5659091,
                "pitch": 93,
                "velocity": 51,
                "duration": 2.6909091,
                "tempo": 120.0
            },
            {
                "start_time": 82.5681818,
                "end_time": 82.6181818,
                "pitch": 92,
                "velocity": 4,
                "duration": 0.05,
                "tempo": 120.0
            },
            {
                "start_time": 7.1977273,
                "end_time": 82.6181818,
                "pitch": 103,
                "velocity": 4,
                "duration": 75.4204545,
                "tempo": 120.0
            },
            {
                "start_time": 82.6181818,
                "end_time": 82.6681818,
                "pitch": 91,
                "velocity": 4,
                "duration": 0.05,
                "tempo": 120.0
            },
            {
                "start_time": 82.7659091,
                "end_time": 82.8363636,
                "pitch": 70,
                "velocity": 40,
                "duration": 0.0704545,
                "tempo": 120.0
            },
            {
                "start_time": 82.8363636,
                "end_time": 82.9045455,
                "pitch": 72,
                "velocity": 40,
                "duration": 0.0681818,
                "tempo": 120.0
            },
            {
                "start_time": 82.9045455,
                "end_time": 82.9681818,
                "pitch": 74,
                "velocity": 40,
                "duration": 0.0636364,
                "tempo": 120.0
            },
            {
                "start_time": 82.9681818,
                "end_time": 83.0363636,
                "pitch": 76,
                "velocity": 40,
                "duration": 0.0681818,
                "tempo": 120.0
            },
            {
                "start_time": 83.0363636,
                "end_time": 83.0727273,
                "pitch": 78,
                "velocity": 40,
                "duration": 0.0363636,
                "tempo": 120.0
            },
            {
                "start_time": 7.5522727,
                "end_time": 83.075,
                "pitch": 67,
                "velocity": 40,
                "duration": 75.5227273,
                "tempo": 120.0
            },
            {
                "start_time": 83.0727273,
                "end_time": 83.075,
                "pitch": 67,
                "velocity": 40,
                "duration": 0.0022727,
                "tempo": 120.0
            },
            {
                "start_time": 79.7386364,
                "end_time": 83.2568182,
                "pitch": 79,
                "velocity": 51,
                "duration": 3.5181818,
                "tempo": 120.0
            },
            {
                "start_time": 83.075,
                "end_time": 83.2568182,
                "pitch": 79,
                "velocity": 40,
                "duration": 0.1818182,
                "tempo": 120.0
            },
            {
                "start_time": 83.2568182,
                "end_time": 85.9772727,
                "pitch": 81,
                "velocity": 40,
                "duration": 2.7204545,
                "tempo": 120.0
            },
            {
                "start_time": 85.9795455,
                "end_time": 86.0454545,
                "pitch": 82,
                "velocity": 40,
                "duration": 0.0659091,
                "tempo": 120.0
            },
            {
                "start_time": 86.0454545,
                "end_time": 86.1136364,
                "pitch": 84,
                "velocity": 40,
                "duration": 0.0681818,
                "tempo": 120.0
            },
            {
                "start_time": 86.1136364,
                "end_time": 86.1818182,
                "pitch": 86,
                "velocity": 40,
                "duration": 0.0681818,
                "tempo": 120.0
            },
            {
                "start_time": 86.1818182,
                "end_time": 86.2477273,
                "pitch": 88,
                "velocity": 40,
                "duration": 0.0659091,
                "tempo": 120.0
            },
            {
                "start_time": 86.2477273,
                "end_time": 86.2840909,
                "pitch": 90,
                "velocity": 40,
                "duration": 0.0363636,
                "tempo": 120.0
            },
            {
                "start_time": 86.2840909,
                "end_time": 86.45,
                "pitch": 91,
                "velocity": 40,
                "duration": 0.1659091,
                "tempo": 120.0
            },
            {
                "start_time": 86.45,
                "end_time": 88.7931818,
                "pitch": 93,
                "velocity": 40,
                "duration": 2.3431818,
                "tempo": 120.0
            },
            {
                "start_time": 88.7954545,
                "end_time": 88.8977273,
                "pitch": 93,
                "velocity": 40,
                "duration": 0.1022727,
                "tempo": 120.0
            }
        ],
        "Electric Piano 1": [
            {
                "start_time": 13.6954545,
                "end_time": 13.8909091,
                "pitch": 65,
                "velocity": 127,
                "duration": 0.1954545,
                "tempo": 120.0
            },
            {
                "start_time": 13.8931818,
                "end_time": 14.0954545,
                "pitch": 64,
                "velocity": 127,
                "duration": 0.2022727,
                "tempo": 120.0
            },
            {
                "start_time": 14.0977273,
                "end_time": 14.5045455,
                "pitch": 67,
                "velocity": 127,
                "duration": 0.4068182,
                "tempo": 120.0
            },
            {
                "start_time": 14.5068182,
                "end_time": 14.9068182,
                "pitch": 64,
                "velocity": 127,
                "duration": 0.4,
                "tempo": 120.0
            },
            {
                "start_time": 14.9090909,
                "end_time": 15.3090909,
                "pitch": 65,
                "velocity": 127,
                "duration": 0.4,
                "tempo": 120.0
            },
            {
                "start_time": 15.3113636,
                "end_time": 15.7090909,
                "pitch": 64,
                "velocity": 127,
                "duration": 0.3977273,
                "tempo": 120.0
            },
            {
                "start_time": 15.7113636,
                "end_time": 16.1136364,
                "pitch": 67,
                "velocity": 127,
                "duration": 0.4022727,
                "tempo": 120.0
            },
            {
                "start_time": 16.1159091,
                "end_time": 16.5136364,
                "pitch": 65,
                "velocity": 127,
                "duration": 0.3977273,
                "tempo": 120.0
            },
            {
                "start_time": 16.5159091,
                "end_time": 17.3181818,
                "pitch": 64,
                "velocity": 127,
                "duration": 0.8022727,
                "tempo": 120.0
            },
            {
                "start_time": 17.3204545,
                "end_time": 17.4204545,
                "pitch": 65,
                "velocity": 127,
                "duration": 0.1,
                "tempo": 120.0
            },
            {
                "start_time": 17.4227273,
                "end_time": 17.5227273,
                "pitch": 64,
                "velocity": 127,
                "duration": 0.1,
                "tempo": 120.0
            },
            {
                "start_time": 17.525,
                "end_time": 18.3227273,
                "pitch": 62,
                "velocity": 127,
                "duration": 0.7977273,
                "tempo": 120.0
            },
            {
                "start_time": 20.9363636,
                "end_time": 21.1340909,
                "pitch": 65,
                "velocity": 127,
                "duration": 0.1977273,
                "tempo": 120.0
            },
            {
                "start_time": 21.1340909,
                "end_time": 21.3409091,
                "pitch": 67,
                "velocity": 127,
                "duration": 0.2068182,
                "tempo": 120.0
            },
            {
                "start_time": 21.3431818,
                "end_time": 22.35,
                "pitch": 60,
                "velocity": 127,
                "duration": 1.0068182,
                "tempo": 120.0
            },
            {
                "start_time": 22.3522727,
                "end_time": 22.55,
                "pitch": 70,
                "velocity": 127,
                "duration": 0.1977273,
                "tempo": 120.0
            },
            {
                "start_time": 22.5522727,
                "end_time": 22.9522727,
                "pitch": 72,
                "velocity": 127,
                "duration": 0.4,
                "tempo": 120.0
            },
            {
                "start_time": 22.9545455,
                "end_time": 24.7568182,
                "pitch": 69,
                "velocity": 127,
                "duration": 1.8022727,
                "tempo": 120.0
            },
            {
                "start_time": 26.5681818,
                "end_time": 26.7681818,
                "pitch": 65,
                "velocity": 127,
                "duration": 0.2,
                "tempo": 120.0
            },
            {
                "start_time": 26.7681818,
                "end_time": 26.9659091,
                "pitch": 64,
                "velocity": 127,
                "duration": 0.1977273,
                "tempo": 120.0
            },
            {
                "start_time": 26.9681818,
                "end_time": 27.3522727,
                "pitch": 67,
                "velocity": 127,
                "duration": 0.3840909,
                "tempo": 120.0
            },
            {
                "start_time": 27.3522727,
                "end_time": 27.3704545,
                "pitch": 67,
                "velocity": 127,
                "duration": 0.0181818,
                "tempo": 120.0
            },
            {
                "start_time": 27.3727273,
                "end_time": 27.775,
                "pitch": 64,
                "velocity": 127,
                "duration": 0.4022727,
                "tempo": 120.0
            },
            {
                "start_time": 27.7772727,
                "end_time": 28.1772727,
                "pitch": 65,
                "velocity": 127,
                "duration": 0.4,
                "tempo": 120.0
            },
            {
                "start_time": 28.1795455,
                "end_time": 28.5772727,
                "pitch": 64,
                "velocity": 127,
                "duration": 0.3977273,
                "tempo": 120.0
            },
            {
                "start_time": 28.5795455,
                "end_time": 28.9863636,
                "pitch": 67,
                "velocity": 127,
                "duration": 0.4068182,
                "tempo": 120.0
            },
            {
                "start_time": 28.9886364,
                "end_time": 29.3840909,
                "pitch": 65,
                "velocity": 127,
                "duration": 0.3954545,
                "tempo": 120.0
            },
            {
                "start_time": 29.3863636,
                "end_time": 30.1863636,
                "pitch": 64,
                "velocity": 127,
                "duration": 0.8,
                "tempo": 120.0
            },
            {
                "start_time": 30.1886364,
                "end_time": 30.2886364,
                "pitch": 65,
                "velocity": 127,
                "duration": 0.1,
                "tempo": 120.0
            },
            {
                "start_time": 30.2909091,
                "end_time": 30.3931818,
                "pitch": 64,
                "velocity": 127,
                "duration": 0.1022727,
                "tempo": 120.0
            },
            {
                "start_time": 30.3954545,
                "end_time": 31.1931818,
                "pitch": 62,
                "velocity": 127,
                "duration": 0.7977273,
                "tempo": 120.0
            },
            {
                "start_time": 33.8068182,
                "end_time": 34.0045455,
                "pitch": 65,
                "velocity": 127,
                "duration": 0.1977273,
                "tempo": 120.0
            },
            {
                "start_time": 34.0068182,
                "end_time": 34.2068182,
                "pitch": 67,
                "velocity": 127,
                "duration": 0.2,
                "tempo": 120.0
            },
            {
                "start_time": 34.2090909,
                "end_time": 35.2068182,
                "pitch": 64,
                "velocity": 127,
                "duration": 0.9977273,
                "tempo": 120.0
            },
            {
                "start_time": 35.2090909,
                "end_time": 35.8090909,
                "pitch": 60,
                "velocity": 127,
                "duration": 0.6,
                "tempo": 120.0
            },
            {
                "start_time": 35.8113636,
                "end_time": 36.2113636,
                "pitch": 67,
                "velocity": 127,
                "duration": 0.4,
                "tempo": 120.0
            },
            {
                "start_time": 27.3522727,
                "end_time": 36.2136364,
                "pitch": 79,
                "velocity": 127,
                "duration": 8.8613636,
                "tempo": 120.0
            },
            {
                "start_time": 36.2113636,
                "end_time": 36.2136364,
                "pitch": 79,
                "velocity": 127,
                "duration": 0.0022727,
                "tempo": 120.0
            },
            {
                "start_time": 36.2136364,
                "end_time": 36.2613636,
                "pitch": 67,
                "velocity": 127,
                "duration": 0.0477273,
                "tempo": 120.0
            },
            {
                "start_time": 36.2613636,
                "end_time": 36.3772727,
                "pitch": 67,
                "velocity": 127,
                "duration": 0.1159091,
                "tempo": 120.0
            },
            {
                "start_time": 36.2613636,
                "end_time": 36.4272727,
                "pitch": 55,
                "velocity": 127,
                "duration": 0.1659091,
                "tempo": 120.0
            },
            {
                "start_time": 36.3772727,
                "end_time": 36.4272727,
                "pitch": 67,
                "velocity": 127,
                "duration": 0.05,
                "tempo": 120.0
            },
            {
                "start_time": 36.4272727,
                "end_time": 36.5477273,
                "pitch": 67,
                "velocity": 127,
                "duration": 0.1204545,
                "tempo": 120.0
            },
            {
                "start_time": 36.3772727,
                "end_time": 36.5477273,
                "pitch": 79,
                "velocity": 127,
                "duration": 0.1704545,
                "tempo": 120.0
            },
            {
                "start_time": 36.4272727,
                "end_time": 36.6,
                "pitch": 55,
                "velocity": 127,
                "duration": 0.1727273,
                "tempo": 120.0
            },
            {
                "start_time": 36.5477273,
                "end_time": 36.6,
                "pitch": 67,
                "velocity": 127,
                "duration": 0.0522727,
                "tempo": 120.0
            },
            {
                "start_time": 36.6,
                "end_time": 36.7181818,
                "pitch": 67,
                "velocity": 127,
                "duration": 0.1181818,
                "tempo": 120.0
            },
            {
                "start_time": 36.5477273,
                "end_time": 36.7181818,
                "pitch": 79,
                "velocity": 127,
                "duration": 0.1704545,
                "tempo": 120.0
            },
            {
                "start_time": 36.6,
                "end_time": 36.7704545,
                "pitch": 55,
                "velocity": 127,
                "duration": 0.1704545,
                "tempo": 120.0
            },
            {
                "start_time": 36.7181818,
                "end_time": 36.7704545,
                "pitch": 67,
                "velocity": 127,
                "duration": 0.0522727,
                "tempo": 120.0
            },
            {
                "start_time": 36.7704545,
                "end_time": 36.8863636,
                "pitch": 67,
                "velocity": 127,
                "duration": 0.1159091,
                "tempo": 120.0
            },
            {
                "start_time": 36.7181818,
                "end_time": 36.8863636,
                "pitch": 79,
                "velocity": 127,
                "duration": 0.1681818,
                "tempo": 120.0
            },
            {
                "start_time": 36.7704545,
                "end_time": 36.9363636,
                "pitch": 55,
                "velocity": 127,
                "duration": 0.1659091,
                "tempo": 120.0
            },
            {
                "start_time": 36.8863636,
                "end_time": 36.9363636,
                "pitch": 67,
                "velocity": 127,
                "duration": 0.05,
                "tempo": 120.0
            },
            {
                "start_time": 36.9363636,
                "end_time": 37.0181818,
                "pitch": 67,
                "velocity": 127,
                "duration": 0.0818182,
                "tempo": 120.0
            },
            {
                "start_time": 37.0204545,
                "end_time": 37.2136364,
                "pitch": 65,
                "velocity": 127,
                "duration": 0.1931818,
                "tempo": 120.0
            },
            {
                "start_time": 37.2159091,
                "end_time": 37.4204545,
                "pitch": 64,
                "velocity": 127,
                "duration": 0.2045455,
                "tempo": 120.0
            },
            {
                "start_time": 37.4227273,
                "end_time": 38.8295455,
                "pitch": 62,
                "velocity": 127,
                "duration": 1.4068182,
                "tempo": 120.0
            },
            {
                "start_time": 38.8318182,
                "end_time": 38.9295455,
                "pitch": 58,
                "velocity": 101,
                "duration": 0.0977273,
                "tempo": 120.0
            },
            {
                "start_time": 38.9318182,
                "end_time": 39.0295455,
                "pitch": 60,
                "velocity": 101,
                "duration": 0.0977273,
                "tempo": 120.0
            },
            {
                "start_time": 39.0318182,
                "end_time": 39.1295455,
                "pitch": 61,
                "velocity": 101,
                "duration": 0.0977273,
                "tempo": 120.0
            },
            {
                "start_time": 39.1318182,
                "end_time": 39.2318182,
                "pitch": 63,
                "velocity": 101,
                "duration": 0.1,
                "tempo": 120.0
            },
            {
                "start_time": 39.2340909,
                "end_time": 40.8386364,
                "pitch": 65,
                "velocity": 101,
                "duration": 1.6045455,
                "tempo": 120.0
            },
            {
                "start_time": 40.8409091,
                "end_time": 41.6409091,
                "pitch": 64,
                "velocity": 101,
                "duration": 0.8,
                "tempo": 120.0
            },
            {
                "start_time": 41.6431818,
                "end_time": 41.675,
                "pitch": 63,
                "velocity": 101,
                "duration": 0.0318182,
                "tempo": 120.0
            },
            {
                "start_time": 41.675,
                "end_time": 42.4454545,
                "pitch": 61,
                "velocity": 101,
                "duration": 0.7704545,
                "tempo": 120.0
            },
            {
                "start_time": 42.4477273,
                "end_time": 42.4772727,
                "pitch": 61,
                "velocity": 101,
                "duration": 0.0295455,
                "tempo": 120.0
            },
            {
                "start_time": 42.4772727,
                "end_time": 43.85,
                "pitch": 64,
                "velocity": 101,
                "duration": 1.3727273,
                "tempo": 120.0
            },
            {
                "start_time": 43.8522727,
                "end_time": 45.6636364,
                "pitch": 63,
                "velocity": 101,
                "duration": 1.8113636,
                "tempo": 120.0
            },
            {
                "start_time": 45.6659091,
                "end_time": 47.2681818,
                "pitch": 62,
                "velocity": 101,
                "duration": 1.6022727,
                "tempo": 120.0
            },
            {
                "start_time": 47.2704545,
                "end_time": 47.3,
                "pitch": 63,
                "velocity": 101,
                "duration": 0.0295455,
                "tempo": 120.0
            },
            {
                "start_time": 36.9363636,
                "end_time": 47.3340909,
                "pitch": 55,
                "velocity": 127,
                "duration": 10.3977273,
                "tempo": 120.0
            },
            {
                "start_time": 47.3,
                "end_time": 47.3340909,
                "pitch": 66,
                "velocity": 101,
                "duration": 0.0340909,
                "tempo": 120.0
            },
            {
                "start_time": 47.3340909,
                "end_time": 47.5681818,
                "pitch": 67,
                "velocity": 101,
                "duration": 0.2340909,
                "tempo": 120.0
            },
            {
                "start_time": 36.8863636,
                "end_time": 47.5681818,
                "pitch": 79,
                "velocity": 127,
                "duration": 10.6818182,
                "tempo": 120.0
            },
            {
                "start_time": 47.3340909,
                "end_time": 47.6181818,
                "pitch": 55,
                "velocity": 101,
                "duration": 0.2840909,
                "tempo": 120.0
            },
            {
                "start_time": 47.5681818,
                "end_time": 47.6181818,
                "pitch": 67,
                "velocity": 101,
                "duration": 0.05,
                "tempo": 120.0
            },
            {
                "start_time": 47.6181818,
                "end_time": 47.7340909,
                "pitch": 67,
                "velocity": 101,
                "duration": 0.1159091,
                "tempo": 120.0
            },
            {
                "start_time": 47.5681818,
                "end_time": 47.7340909,
                "pitch": 79,
                "velocity": 101,
                "duration": 0.1659091,
                "tempo": 120.0
            },
            {
                "start_time": 47.6181818,
                "end_time": 47.7840909,
                "pitch": 55,
                "velocity": 101,
                "duration": 0.1659091,
                "tempo": 120.0
            },
            {
                "start_time": 47.7340909,
                "end_time": 47.7840909,
                "pitch": 67,
                "velocity": 101,
                "duration": 0.05,
                "tempo": 120.0
            },
            {
                "start_time": 47.7840909,
                "end_time": 47.9,
                "pitch": 67,
                "velocity": 101,
                "duration": 0.1159091,
                "tempo": 120.0
            },
            {
                "start_time": 47.7340909,
                "end_time": 47.9,
                "pitch": 79,
                "velocity": 101,
                "duration": 0.1659091,
                "tempo": 120.0
            },
            {
                "start_time": 47.7840909,
                "end_time": 47.95,
                "pitch": 55,
                "velocity": 101,
                "duration": 0.1659091,
                "tempo": 120.0
            },
            {
                "start_time": 47.9,
                "end_time": 47.95,
                "pitch": 67,
                "velocity": 101,
                "duration": 0.05,
                "tempo": 120.0
            },
            {
                "start_time": 47.95,
                "end_time": 48.0704545,
                "pitch": 67,
                "velocity": 101,
                "duration": 0.1204545,
                "tempo": 120.0
            },
            {
                "start_time": 48.0727273,
                "end_time": 48.8727273,
                "pitch": 66,
                "velocity": 101,
                "duration": 0.8,
                "tempo": 120.0
            },
            {
                "start_time": 48.8772727,
                "end_time": 50.2772727,
                "pitch": 65,
                "velocity": 101,
                "duration": 1.4,
                "tempo": 120.0
            },
            {
                "start_time": 50.2818182,
                "end_time": 51.2795455,
                "pitch": 64,
                "velocity": 101,
                "duration": 0.9977273,
                "tempo": 120.0
            },
            {
                "start_time": 51.8954545,
                "end_time": 52.1909091,
                "pitch": 65,
                "velocity": 127,
                "duration": 0.2954545,
                "tempo": 120.0
            },
            {
                "start_time": 52.1931818,
                "end_time": 52.2386364,
                "pitch": 67,
                "velocity": 127,
                "duration": 0.0454545,
                "tempo": 120.0
            },
            {
                "start_time": 52.2409091,
                "end_time": 52.4886364,
                "pitch": 65,
                "velocity": 127,
                "duration": 0.2477273,
                "tempo": 120.0
            },
            {
                "start_time": 52.4886364,
                "end_time": 52.6909091,
                "pitch": 64,
                "velocity": 127,
                "duration": 0.2022727,
                "tempo": 120.0
            },
            {
                "start_time": 52.6931818,
                "end_time": 52.8977273,
                "pitch": 65,
                "velocity": 127,
                "duration": 0.2045455,
                "tempo": 120.0
            },
            {
                "start_time": 52.9,
                "end_time": 53.2977273,
                "pitch": 67,
                "velocity": 127,
                "duration": 0.3977273,
                "tempo": 120.0
            },
            {
                "start_time": 53.3,
                "end_time": 53.5,
                "pitch": 65,
                "velocity": 127,
                "duration": 0.2,
                "tempo": 120.0
            },
            {
                "start_time": 53.5022727,
                "end_time": 53.9,
                "pitch": 64,
                "velocity": 127,
                "duration": 0.3977273,
                "tempo": 120.0
            },
            {
                "start_time": 53.9022727,
                "end_time": 54.1,
                "pitch": 62,
                "velocity": 127,
                "duration": 0.1977273,
                "tempo": 120.0
            },
            {
                "start_time": 54.1022727,
                "end_time": 54.7,
                "pitch": 62,
                "velocity": 127,
                "duration": 0.5977273,
                "tempo": 120.0
            },
            {
                "start_time": 55.1045455,
                "end_time": 55.4045455,
                "pitch": 65,
                "velocity": 127,
                "duration": 0.3,
                "tempo": 120.0
            },
            {
                "start_time": 55.4068182,
                "end_time": 55.4545455,
                "pitch": 67,
                "velocity": 127,
                "duration": 0.0477273,
                "tempo": 120.0
            },
            {
                "start_time": 55.4568182,
                "end_time": 55.7090909,
                "pitch": 65,
                "velocity": 127,
                "duration": 0.2522727,
                "tempo": 120.0
            },
            {
                "start_time": 55.7113636,
                "end_time": 55.9068182,
                "pitch": 64,
                "velocity": 127,
                "duration": 0.1954545,
                "tempo": 120.0
            },
            {
                "start_time": 55.9090909,
                "end_time": 56.1090909,
                "pitch": 65,
                "velocity": 127,
                "duration": 0.2,
                "tempo": 120.0
            },
            {
                "start_time": 56.1090909,
                "end_time": 56.5090909,
                "pitch": 67,
                "velocity": 127,
                "duration": 0.4,
                "tempo": 120.0
            },
            {
                "start_time": 56.5113636,
                "end_time": 56.7113636,
                "pitch": 65,
                "velocity": 127,
                "duration": 0.2,
                "tempo": 120.0
            },
            {
                "start_time": 56.7136364,
                "end_time": 57.1113636,
                "pitch": 64,
                "velocity": 127,
                "duration": 0.3977273,
                "tempo": 120.0
            },
            {
                "start_time": 57.1136364,
                "end_time": 57.3136364,
                "pitch": 62,
                "velocity": 127,
                "duration": 0.2,
                "tempo": 120.0
            },
            {
                "start_time": 57.3159091,
                "end_time": 57.9136364,
                "pitch": 62,
                "velocity": 127,
                "duration": 0.5977273,
                "tempo": 120.0
            },
            {
                "start_time": 58.3181818,
                "end_time": 58.6159091,
                "pitch": 65,
                "velocity": 127,
                "duration": 0.2977273,
                "tempo": 120.0
            },
            {
                "start_time": 58.6159091,
                "end_time": 58.6659091,
                "pitch": 67,
                "velocity": 127,
                "duration": 0.05,
                "tempo": 120.0
            },
            {
                "start_time": 58.6659091,
                "end_time": 58.9181818,
                "pitch": 65,
                "velocity": 127,
                "duration": 0.2522727,
                "tempo": 120.0
            },
            {
                "start_time": 58.9181818,
                "end_time": 59.1159091,
                "pitch": 64,
                "velocity": 127,
                "duration": 0.1977273,
                "tempo": 120.0
            },
            {
                "start_time": 59.1181818,
                "end_time": 59.3181818,
                "pitch": 65,
                "velocity": 127,
                "duration": 0.2,
                "tempo": 120.0
            },
            {
                "start_time": 59.3204545,
                "end_time": 59.7272727,
                "pitch": 67,
                "velocity": 127,
                "duration": 0.4068182,
                "tempo": 120.0
            },
            {
                "start_time": 59.7295455,
                "end_time": 59.9295455,
                "pitch": 65,
                "velocity": 127,
                "duration": 0.2,
                "tempo": 120.0
            },
            {
                "start_time": 59.9318182,
                "end_time": 60.725,
                "pitch": 64,
                "velocity": 127,
                "duration": 0.7931818,
                "tempo": 120.0
            },
            {
                "start_time": 60.7272727,
                "end_time": 60.9340909,
                "pitch": 64,
                "velocity": 127,
                "duration": 0.2068182,
                "tempo": 120.0
            },
            {
                "start_time": 60.9363636,
                "end_time": 61.1340909,
                "pitch": 65,
                "velocity": 127,
                "duration": 0.1977273,
                "tempo": 120.0
            },
            {
                "start_time": 61.1363636,
                "end_time": 61.3318182,
                "pitch": 64,
                "velocity": 127,
                "duration": 0.1954545,
                "tempo": 120.0
            },
            {
                "start_time": 61.3340909,
                "end_time": 61.5363636,
                "pitch": 61,
                "velocity": 127,
                "duration": 0.2022727,
                "tempo": 120.0
            },
            {
                "start_time": 61.5386364,
                "end_time": 61.7363636,
                "pitch": 57,
                "velocity": 127,
                "duration": 0.1977273,
                "tempo": 120.0
            },
            {
                "start_time": 61.7386364,
                "end_time": 61.9386364,
                "pitch": 58,
                "velocity": 127,
                "duration": 0.2,
                "tempo": 120.0
            },
            {
                "start_time": 47.95,
                "end_time": 62.1386364,
                "pitch": 55,
                "velocity": 101,
                "duration": 14.1886364,
                "tempo": 120.0
            },
            {
                "start_time": 61.9386364,
                "end_time": 62.1386364,
                "pitch": 55,
                "velocity": 127,
                "duration": 0.2,
                "tempo": 120.0
            },
            {
                "start_time": 62.1409091,
                "end_time": 62.3363636,
                "pitch": 58,
                "velocity": 127,
                "duration": 0.1954545,
                "tempo": 120.0
            },
            {
                "start_time": 62.3386364,
                "end_time": 62.5386364,
                "pitch": 62,
                "velocity": 127,
                "duration": 0.2,
                "tempo": 120.0
            },
            {
                "start_time": 62.5409091,
                "end_time": 62.7386364,
                "pitch": 65,
                "velocity": 127,
                "duration": 0.1977273,
                "tempo": 120.0
            },
            {
                "start_time": 62.7409091,
                "end_time": 62.9363636,
                "pitch": 67,
                "velocity": 127,
                "duration": 0.1954545,
                "tempo": 120.0
            },
            {
                "start_time": 62.9386364,
                "end_time": 63.1386364,
                "pitch": 65,
                "velocity": 127,
                "duration": 0.2,
                "tempo": 120.0
            },
            {
                "start_time": 63.1409091,
                "end_time": 63.9409091,
                "pitch": 64,
                "velocity": 127,
                "duration": 0.8,
                "tempo": 120.0
            },
            {
                "start_time": 63.9431818,
                "end_time": 64.7477273,
                "pitch": 61,
                "velocity": 127,
                "duration": 0.8045455,
                "tempo": 120.0
            },
            {
                "start_time": 64.75,
                "end_time": 65.0454545,
                "pitch": 65,
                "velocity": 127,
                "duration": 0.2954545,
                "tempo": 120.0
            },
            {
                "start_time": 65.0477273,
                "end_time": 65.0954545,
                "pitch": 67,
                "velocity": 127,
                "duration": 0.0477273,
                "tempo": 120.0
            },
            {
                "start_time": 65.0977273,
                "end_time": 65.3477273,
                "pitch": 65,
                "velocity": 127,
                "duration": 0.25,
                "tempo": 120.0
            },
            {
                "start_time": 65.35,
                "end_time": 65.5477273,
                "pitch": 64,
                "velocity": 127,
                "duration": 0.1977273,
                "tempo": 120.0
            },
            {
                "start_time": 65.55,
                "end_time": 65.75,
                "pitch": 65,
                "velocity": 127,
                "duration": 0.2,
                "tempo": 120.0
            },
            {
                "start_time": 65.7522727,
                "end_time": 66.15,
                "pitch": 67,
                "velocity": 127,
                "duration": 0.3977273,
                "tempo": 120.0
            },
            {
                "start_time": 66.1522727,
                "end_time": 66.3568182,
                "pitch": 65,
                "velocity": 127,
                "duration": 0.2045455,
                "tempo": 120.0
            },
            {
                "start_time": 66.3590909,
                "end_time": 66.7590909,
                "pitch": 64,
                "velocity": 127,
                "duration": 0.4,
                "tempo": 120.0
            },
            {
                "start_time": 66.7613636,
                "end_time": 66.9545455,
                "pitch": 62,
                "velocity": 127,
                "duration": 0.1931818,
                "tempo": 120.0
            },
            {
                "start_time": 66.9568182,
                "end_time": 67.5636364,
                "pitch": 62,
                "velocity": 127,
                "duration": 0.6068182,
                "tempo": 120.0
            },
            {
                "start_time": 67.9659091,
                "end_time": 68.2659091,
                "pitch": 65,
                "velocity": 127,
                "duration": 0.3,
                "tempo": 120.0
            },
            {
                "start_time": 68.2681818,
                "end_time": 68.3136364,
                "pitch": 67,
                "velocity": 127,
                "duration": 0.0454545,
                "tempo": 120.0
            },
            {
                "start_time": 68.3159091,
                "end_time": 68.5636364,
                "pitch": 65,
                "velocity": 127,
                "duration": 0.2477273,
                "tempo": 120.0
            },
            {
                "start_time": 68.5636364,
                "end_time": 68.7659091,
                "pitch": 64,
                "velocity": 127,
                "duration": 0.2022727,
                "tempo": 120.0
            },
            {
                "start_time": 68.7681818,
                "end_time": 68.9727273,
                "pitch": 65,
                "velocity": 127,
                "duration": 0.2045455,
                "tempo": 120.0
            },
            {
                "start_time": 68.975,
                "end_time": 69.375,
                "pitch": 67,
                "velocity": 127,
                "duration": 0.4,
                "tempo": 120.0
            },
            {
                "start_time": 69.3772727,
                "end_time": 69.5772727,
                "pitch": 65,
                "velocity": 127,
                "duration": 0.2,
                "tempo": 120.0
            },
            {
                "start_time": 69.5795455,
                "end_time": 69.9795455,
                "pitch": 64,
                "velocity": 127,
                "duration": 0.4,
                "tempo": 120.0
            },
            {
                "start_time": 69.9818182,
                "end_time": 70.1818182,
                "pitch": 62,
                "velocity": 127,
                "duration": 0.2,
                "tempo": 120.0
            },
            {
                "start_time": 70.1840909,
                "end_time": 70.7795455,
                "pitch": 62,
                "velocity": 127,
                "duration": 0.5954545,
                "tempo": 120.0
            },
            {
                "start_time": 71.1840909,
                "end_time": 71.4863636,
                "pitch": 65,
                "velocity": 127,
                "duration": 0.3022727,
                "tempo": 120.0
            },
            {
                "start_time": 71.4886364,
                "end_time": 71.5363636,
                "pitch": 67,
                "velocity": 127,
                "duration": 0.0477273,
                "tempo": 120.0
            },
            {
                "start_time": 71.5386364,
                "end_time": 71.7886364,
                "pitch": 65,
                "velocity": 127,
                "duration": 0.25,
                "tempo": 120.0
            },
            {
                "start_time": 71.7909091,
                "end_time": 71.9886364,
                "pitch": 64,
                "velocity": 127,
                "duration": 0.1977273,
                "tempo": 120.0
            },
            {
                "start_time": 71.9909091,
                "end_time": 72.1909091,
                "pitch": 65,
                "velocity": 127,
                "duration": 0.2,
                "tempo": 120.0
            },
            {
                "start_time": 72.1931818,
                "end_time": 72.5931818,
                "pitch": 67,
                "velocity": 127,
                "duration": 0.4,
                "tempo": 120.0
            },
            {
                "start_time": 72.5954545,
                "end_time": 72.7954545,
                "pitch": 65,
                "velocity": 127,
                "duration": 0.2,
                "tempo": 120.0
            },
            {
                "start_time": 72.7977273,
                "end_time": 73.5977273,
                "pitch": 64,
                "velocity": 127,
                "duration": 0.8,
                "tempo": 120.0
            },
            {
                "start_time": 73.5977273,
                "end_time": 73.7977273,
                "pitch": 64,
                "velocity": 127,
                "duration": 0.2,
                "tempo": 120.0
            },
            {
                "start_time": 73.8,
                "end_time": 74.0,
                "pitch": 65,
                "velocity": 127,
                "duration": 0.2,
                "tempo": 120.0
            },
            {
                "start_time": 74.0022727,
                "end_time": 74.2,
                "pitch": 64,
                "velocity": 127,
                "duration": 0.1977273,
                "tempo": 120.0
            },
            {
                "start_time": 74.2022727,
                "end_time": 74.4045455,
                "pitch": 61,
                "velocity": 127,
                "duration": 0.2022727,
                "tempo": 120.0
            },
            {
                "start_time": 74.4068182,
                "end_time": 74.6045455,
                "pitch": 57,
                "velocity": 127,
                "duration": 0.1977273,
                "tempo": 120.0
            },
            {
                "start_time": 74.6045455,
                "end_time": 74.8045455,
                "pitch": 58,
                "velocity": 127,
                "duration": 0.2,
                "tempo": 120.0
            },
            {
                "start_time": 74.8068182,
                "end_time": 75.0068182,
                "pitch": 55,
                "velocity": 127,
                "duration": 0.2,
                "tempo": 120.0
            },
            {
                "start_time": 75.0068182,
                "end_time": 75.2090909,
                "pitch": 58,
                "velocity": 127,
                "duration": 0.2022727,
                "tempo": 120.0
            },
            {
                "start_time": 75.2113636,
                "end_time": 75.6113636,
                "pitch": 62,
                "velocity": 127,
                "duration": 0.4,
                "tempo": 120.0
            },
            {
                "start_time": 75.6136364,
                "end_time": 75.8068182,
                "pitch": 65,
                "velocity": 127,
                "duration": 0.1931818,
                "tempo": 120.0
            },
            {
                "start_time": 75.8090909,
                "end_time": 75.9090909,
                "pitch": 64,
                "velocity": 127,
                "duration": 0.1,
                "tempo": 120.0
            },
            {
                "start_time": 75.9113636,
                "end_time": 76.0136364,
                "pitch": 65,
                "velocity": 127,
                "duration": 0.1022727,
                "tempo": 120.0
            },
            {
                "start_time": 76.0159091,
                "end_time": 76.2181818,
                "pitch": 67,
                "velocity": 127,
                "duration": 0.2022727,
                "tempo": 120.0
            },
            {
                "start_time": 76.2204545,
                "end_time": 82.2522727,
                "pitch": 69,
                "velocity": 127,
                "duration": 6.0318182,
                "tempo": 120.0
            },
            {
                "start_time": 82.2545455,
                "end_time": 82.6636364,
                "pitch": 69,
                "velocity": 4,
                "duration": 0.4090909,
                "tempo": 120.0
            }
        ],
        "Trumpet": [
            {
                "start_time": 0.4113636,
                "end_time": 0.4409091,
                "pitch": 25,
                "velocity": 4,
                "duration": 0.0295455,
                "tempo": 120.0
            },
            {
                "start_time": 0.4409091,
                "end_time": 0.475,
                "pitch": 27,
                "velocity": 4,
                "duration": 0.0340909,
                "tempo": 120.0
            },
            {
                "start_time": 0.475,
                "end_time": 0.5090909,
                "pitch": 30,
                "velocity": 4,
                "duration": 0.0340909,
                "tempo": 120.0
            },
            {
                "start_time": 0.5090909,
                "end_time": 0.5431818,
                "pitch": 32,
                "velocity": 4,
                "duration": 0.0340909,
                "tempo": 120.0
            },
            {
                "start_time": 0.5431818,
                "end_time": 0.575,
                "pitch": 34,
                "velocity": 4,
                "duration": 0.0318182,
                "tempo": 120.0
            },
            {
                "start_time": 0.575,
                "end_time": 0.6090909,
                "pitch": 37,
                "velocity": 4,
                "duration": 0.0340909,
                "tempo": 120.0
            },
            {
                "start_time": 0.6090909,
                "end_time": 0.6431818,
                "pitch": 39,
                "velocity": 4,
                "duration": 0.0340909,
                "tempo": 120.0
            },
            {
                "start_time": 0.6431818,
                "end_time": 0.675,
                "pitch": 41,
                "velocity": 4,
                "duration": 0.0318182,
                "tempo": 120.0
            },
            {
                "start_time": 0.675,
                "end_time": 0.7068182,
                "pitch": 44,
                "velocity": 4,
                "duration": 0.0318182,
                "tempo": 120.0
            },
            {
                "start_time": 0.7068182,
                "end_time": 0.7409091,
                "pitch": 46,
                "velocity": 4,
                "duration": 0.0340909,
                "tempo": 120.0
            },
            {
                "start_time": 0.7409091,
                "end_time": 0.7727273,
                "pitch": 48,
                "velocity": 4,
                "duration": 0.0318182,
                "tempo": 120.0
            },
            {
                "start_time": 0.7727273,
                "end_time": 0.8045455,
                "pitch": 51,
                "velocity": 4,
                "duration": 0.0318182,
                "tempo": 120.0
            },
            {
                "start_time": 0.8068182,
                "end_time": 1.0022727,
                "pitch": 65,
                "velocity": 51,
                "duration": 0.1954545,
                "tempo": 120.0
            },
            {
                "start_time": 1.0022727,
                "end_time": 1.4136364,
                "pitch": 64,
                "velocity": 51,
                "duration": 0.4113636,
                "tempo": 120.0
            },
            {
                "start_time": 1.4136364,
                "end_time": 1.6136364,
                "pitch": 64,
                "velocity": 51,
                "duration": 0.2,
                "tempo": 120.0
            },
            {
                "start_time": 1.6159091,
                "end_time": 2.0159091,
                "pitch": 65,
                "velocity": 51,
                "duration": 0.4,
                "tempo": 120.0
            },
            {
                "start_time": 2.0159091,
                "end_time": 2.4159091,
                "pitch": 64,
                "velocity": 51,
                "duration": 0.4,
                "tempo": 120.0
            },
            {
                "start_time": 2.4181818,
                "end_time": 2.6181818,
                "pitch": 63,
                "velocity": 51,
                "duration": 0.2,
                "tempo": 120.0
            },
            {
                "start_time": 2.6181818,
                "end_time": 3.8295455,
                "pitch": 62,
                "velocity": 51,
                "duration": 1.2113636,
                "tempo": 120.0
            },
            {
                "start_time": 4.0272727,
                "end_time": 4.2227273,
                "pitch": 63,
                "velocity": 51,
                "duration": 0.1954545,
                "tempo": 120.0
            },
            {
                "start_time": 4.225,
                "end_time": 4.6227273,
                "pitch": 64,
                "velocity": 51,
                "duration": 0.3977273,
                "tempo": 120.0
            },
            {
                "start_time": 4.625,
                "end_time": 4.825,
                "pitch": 64,
                "velocity": 51,
                "duration": 0.2,
                "tempo": 120.0
            },
            {
                "start_time": 4.825,
                "end_time": 5.2272727,
                "pitch": 65,
                "velocity": 51,
                "duration": 0.4022727,
                "tempo": 120.0
            },
            {
                "start_time": 5.2272727,
                "end_time": 5.6272727,
                "pitch": 64,
                "velocity": 51,
                "duration": 0.4,
                "tempo": 120.0
            },
            {
                "start_time": 5.6295455,
                "end_time": 5.8295455,
                "pitch": 63,
                "velocity": 51,
                "duration": 0.2,
                "tempo": 120.0
            },
            {
                "start_time": 5.8318182,
                "end_time": 7.0454545,
                "pitch": 62,
                "velocity": 51,
                "duration": 1.2136364,
                "tempo": 120.0
            },
            {
                "start_time": 7.2454545,
                "end_time": 7.4454545,
                "pitch": 63,
                "velocity": 51,
                "duration": 0.2,
                "tempo": 120.0
            },
            {
                "start_time": 7.4477273,
                "end_time": 7.8477273,
                "pitch": 64,
                "velocity": 51,
                "duration": 0.4,
                "tempo": 120.0
            },
            {
                "start_time": 7.85,
                "end_time": 8.05,
                "pitch": 64,
                "velocity": 51,
                "duration": 0.2,
                "tempo": 120.0
            },
            {
                "start_time": 8.0522727,
                "end_time": 8.4522727,
                "pitch": 65,
                "velocity": 51,
                "duration": 0.4,
                "tempo": 120.0
            },
            {
                "start_time": 8.4545455,
                "end_time": 8.8545455,
                "pitch": 64,
                "velocity": 51,
                "duration": 0.4,
                "tempo": 120.0
            },
            {
                "start_time": 8.8568182,
                "end_time": 9.0545455,
                "pitch": 63,
                "velocity": 51,
                "duration": 0.1977273,
                "tempo": 120.0
            },
            {
                "start_time": 9.0568182,
                "end_time": 10.2659091,
                "pitch": 62,
                "velocity": 51,
                "duration": 1.2090909,
                "tempo": 120.0
            },
            {
                "start_time": 10.4681818,
                "end_time": 10.6681818,
                "pitch": 63,
                "velocity": 51,
                "duration": 0.2,
                "tempo": 120.0
            },
            {
                "start_time": 10.6704545,
                "end_time": 11.0681818,
                "pitch": 64,
                "velocity": 51,
                "duration": 0.3977273,
                "tempo": 120.0
            },
            {
                "start_time": 11.0704545,
                "end_time": 11.2704545,
                "pitch": 64,
                "velocity": 51,
                "duration": 0.2,
                "tempo": 120.0
            },
            {
                "start_time": 11.2727273,
                "end_time": 11.6727273,
                "pitch": 65,
                "velocity": 51,
                "duration": 0.4,
                "tempo": 120.0
            },
            {
                "start_time": 11.675,
                "end_time": 12.0772727,
                "pitch": 64,
                "velocity": 51,
                "duration": 0.4022727,
                "tempo": 120.0
            },
            {
                "start_time": 12.0795455,
                "end_time": 12.2795455,
                "pitch": 63,
                "velocity": 51,
                "duration": 0.2,
                "tempo": 120.0
            },
            {
                "start_time": 12.2795455,
                "end_time": 13.4931818,
                "pitch": 62,
                "velocity": 51,
                "duration": 1.2136364,
                "tempo": 120.0
            },
            {
                "start_time": 13.6909091,
                "end_time": 13.8863636,
                "pitch": 63,
                "velocity": 40,
                "duration": 0.1954545,
                "tempo": 120.0
            },
            {
                "start_time": 13.8886364,
                "end_time": 14.2977273,
                "pitch": 64,
                "velocity": 40,
                "duration": 0.4090909,
                "tempo": 120.0
            },
            {
                "start_time": 14.2977273,
                "end_time": 14.5,
                "pitch": 65,
                "velocity": 40,
                "duration": 0.2022727,
                "tempo": 120.0
            },
            {
                "start_time": 14.5,
                "end_time": 14.9022727,
                "pitch": 64,
                "velocity": 40,
                "duration": 0.4022727,
                "tempo": 120.0
            },
            {
                "start_time": 14.9045455,
                "end_time": 15.3045455,
                "pitch": 65,
                "velocity": 40,
                "duration": 0.4,
                "tempo": 120.0
            },
            {
                "start_time": 15.3045455,
                "end_time": 15.5045455,
                "pitch": 65,
                "velocity": 40,
                "duration": 0.2,
                "tempo": 120.0
            },
            {
                "start_time": 15.5068182,
                "end_time": 15.9068182,
                "pitch": 64,
                "velocity": 40,
                "duration": 0.4,
                "tempo": 120.0
            },
            {
                "start_time": 15.9090909,
                "end_time": 16.1090909,
                "pitch": 65,
                "velocity": 40,
                "duration": 0.2,
                "tempo": 120.0
            },
            {
                "start_time": 16.1113636,
                "end_time": 16.5113636,
                "pitch": 64,
                "velocity": 40,
                "duration": 0.4,
                "tempo": 120.0
            },
            {
                "start_time": 16.9159091,
                "end_time": 17.1136364,
                "pitch": 65,
                "velocity": 40,
                "duration": 0.1977273,
                "tempo": 120.0
            },
            {
                "start_time": 17.1159091,
                "end_time": 17.5181818,
                "pitch": 64,
                "velocity": 40,
                "duration": 0.4022727,
                "tempo": 120.0
            },
            {
                "start_time": 17.5181818,
                "end_time": 17.7181818,
                "pitch": 65,
                "velocity": 40,
                "duration": 0.2,
                "tempo": 120.0
            },
            {
                "start_time": 17.7204545,
                "end_time": 18.1181818,
                "pitch": 64,
                "velocity": 40,
                "duration": 0.3977273,
                "tempo": 120.0
            },
            {
                "start_time": 18.1204545,
                "end_time": 18.5204545,
                "pitch": 65,
                "velocity": 40,
                "duration": 0.4,
                "tempo": 120.0
            },
            {
                "start_time": 18.5227273,
                "end_time": 18.7227273,
                "pitch": 65,
                "velocity": 40,
                "duration": 0.2,
                "tempo": 120.0
            },
            {
                "start_time": 18.7227273,
                "end_time": 19.1227273,
                "pitch": 64,
                "velocity": 40,
                "duration": 0.4,
                "tempo": 120.0
            },
            {
                "start_time": 19.1227273,
                "end_time": 19.325,
                "pitch": 65,
                "velocity": 40,
                "duration": 0.2022727,
                "tempo": 120.0
            },
            {
                "start_time": 19.325,
                "end_time": 19.725,
                "pitch": 64,
                "velocity": 40,
                "duration": 0.4,
                "tempo": 120.0
            },
            {
                "start_time": 20.1272727,
                "end_time": 20.3272727,
                "pitch": 65,
                "velocity": 40,
                "duration": 0.2,
                "tempo": 120.0
            },
            {
                "start_time": 20.3272727,
                "end_time": 20.7295455,
                "pitch": 64,
                "velocity": 40,
                "duration": 0.4022727,
                "tempo": 120.0
            },
            {
                "start_time": 20.7318182,
                "end_time": 20.9295455,
                "pitch": 64,
                "velocity": 40,
                "duration": 0.1977273,
                "tempo": 120.0
            },
            {
                "start_time": 20.9318182,
                "end_time": 21.3363636,
                "pitch": 65,
                "velocity": 40,
                "duration": 0.4045455,
                "tempo": 120.0
            },
            {
                "start_time": 21.3386364,
                "end_time": 21.7386364,
                "pitch": 64,
                "velocity": 40,
                "duration": 0.4,
                "tempo": 120.0
            },
            {
                "start_time": 21.7386364,
                "end_time": 21.9340909,
                "pitch": 64,
                "velocity": 40,
                "duration": 0.1954545,
                "tempo": 120.0
            },
            {
                "start_time": 21.9363636,
                "end_time": 22.3454545,
                "pitch": 64,
                "velocity": 40,
                "duration": 0.4090909,
                "tempo": 120.0
            },
            {
                "start_time": 22.3477273,
                "end_time": 22.5454545,
                "pitch": 64,
                "velocity": 40,
                "duration": 0.1977273,
                "tempo": 120.0
            },
            {
                "start_time": 22.5477273,
                "end_time": 22.9477273,
                "pitch": 64,
                "velocity": 40,
                "duration": 0.4,
                "tempo": 120.0
            },
            {
                "start_time": 22.95,
                "end_time": 23.35,
                "pitch": 65,
                "velocity": 40,
                "duration": 0.4,
                "tempo": 120.0
            },
            {
                "start_time": 23.35,
                "end_time": 23.55,
                "pitch": 65,
                "velocity": 40,
                "duration": 0.2,
                "tempo": 120.0
            },
            {
                "start_time": 23.5522727,
                "end_time": 23.9522727,
                "pitch": 64,
                "velocity": 40,
                "duration": 0.4,
                "tempo": 120.0
            },
            {
                "start_time": 23.9545455,
                "end_time": 24.1522727,
                "pitch": 65,
                "velocity": 40,
                "duration": 0.1977273,
                "tempo": 120.0
            },
            {
                "start_time": 24.1545455,
                "end_time": 24.5545455,
                "pitch": 64,
                "velocity": 40,
                "duration": 0.4,
                "tempo": 120.0
            },
            {
                "start_time": 24.5545455,
                "end_time": 25.3568182,
                "pitch": 65,
                "velocity": 40,
                "duration": 0.8022727,
                "tempo": 120.0
            },
            {
                "start_time": 25.3590909,
                "end_time": 26.3613636,
                "pitch": 64,
                "velocity": 40,
                "duration": 1.0022727,
                "tempo": 120.0
            },
            {
                "start_time": 26.5636364,
                "end_time": 26.7613636,
                "pitch": 65,
                "velocity": 40,
                "duration": 0.1977273,
                "tempo": 120.0
            },
            {
                "start_time": 26.7636364,
                "end_time": 27.1659091,
                "pitch": 64,
                "velocity": 40,
                "duration": 0.4022727,
                "tempo": 120.0
            },
            {
                "start_time": 27.1659091,
                "end_time": 27.3659091,
                "pitch": 65,
                "velocity": 40,
                "duration": 0.2,
                "tempo": 120.0
            },
            {
                "start_time": 27.3659091,
                "end_time": 27.7704545,
                "pitch": 64,
                "velocity": 40,
                "duration": 0.4045455,
                "tempo": 120.0
            },
            {
                "start_time": 27.7727273,
                "end_time": 28.1727273,
                "pitch": 65,
                "velocity": 40,
                "duration": 0.4,
                "tempo": 120.0
            },
            {
                "start_time": 28.175,
                "end_time": 28.3704545,
                "pitch": 65,
                "velocity": 40,
                "duration": 0.1954545,
                "tempo": 120.0
            },
            {
                "start_time": 28.3704545,
                "end_time": 28.7795455,
                "pitch": 64,
                "velocity": 40,
                "duration": 0.4090909,
                "tempo": 120.0
            },
            {
                "start_time": 28.7818182,
                "end_time": 28.9818182,
                "pitch": 65,
                "velocity": 40,
                "duration": 0.2,
                "tempo": 120.0
            },
            {
                "start_time": 28.9818182,
                "end_time": 29.3818182,
                "pitch": 64,
                "velocity": 40,
                "duration": 0.4,
                "tempo": 120.0
            },
            {
                "start_time": 29.7818182,
                "end_time": 29.9772727,
                "pitch": 65,
                "velocity": 40,
                "duration": 0.1954545,
                "tempo": 120.0
            },
            {
                "start_time": 29.9795455,
                "end_time": 30.3886364,
                "pitch": 64,
                "velocity": 40,
                "duration": 0.4090909,
                "tempo": 120.0
            },
            {
                "start_time": 30.3886364,
                "end_time": 30.5886364,
                "pitch": 65,
                "velocity": 40,
                "duration": 0.2,
                "tempo": 120.0
            },
            {
                "start_time": 30.5909091,
                "end_time": 30.9886364,
                "pitch": 64,
                "velocity": 40,
                "duration": 0.3977273,
                "tempo": 120.0
            },
            {
                "start_time": 30.9909091,
                "end_time": 31.3909091,
                "pitch": 65,
                "velocity": 40,
                "duration": 0.4,
                "tempo": 120.0
            },
            {
                "start_time": 31.3931818,
                "end_time": 31.5931818,
                "pitch": 65,
                "velocity": 40,
                "duration": 0.2,
                "tempo": 120.0
            },
            {
                "start_time": 31.5931818,
                "end_time": 31.9931818,
                "pitch": 64,
                "velocity": 40,
                "duration": 0.4,
                "tempo": 120.0
            },
            {
                "start_time": 31.9954545,
                "end_time": 32.1954545,
                "pitch": 65,
                "velocity": 40,
                "duration": 0.2,
                "tempo": 120.0
            },
            {
                "start_time": 32.1954545,
                "end_time": 32.5954545,
                "pitch": 64,
                "velocity": 40,
                "duration": 0.4,
                "tempo": 120.0
            },
            {
                "start_time": 32.9977273,
                "end_time": 33.1977273,
                "pitch": 65,
                "velocity": 40,
                "duration": 0.2,
                "tempo": 120.0
            },
            {
                "start_time": 33.2,
                "end_time": 33.5977273,
                "pitch": 64,
                "velocity": 40,
                "duration": 0.3977273,
                "tempo": 120.0
            },
            {
                "start_time": 33.6,
                "end_time": 33.8,
                "pitch": 64,
                "velocity": 40,
                "duration": 0.2,
                "tempo": 120.0
            },
            {
                "start_time": 33.8,
                "end_time": 34.2022727,
                "pitch": 65,
                "velocity": 40,
                "duration": 0.4022727,
                "tempo": 120.0
            },
            {
                "start_time": 34.2022727,
                "end_time": 34.6022727,
                "pitch": 64,
                "velocity": 40,
                "duration": 0.4,
                "tempo": 120.0
            },
            {
                "start_time": 34.6022727,
                "end_time": 34.8022727,
                "pitch": 64,
                "velocity": 40,
                "duration": 0.2,
                "tempo": 120.0
            },
            {
                "start_time": 34.8045455,
                "end_time": 35.2022727,
                "pitch": 64,
                "velocity": 40,
                "duration": 0.3977273,
                "tempo": 120.0
            },
            {
                "start_time": 35.2045455,
                "end_time": 35.4022727,
                "pitch": 64,
                "velocity": 40,
                "duration": 0.1977273,
                "tempo": 120.0
            },
            {
                "start_time": 35.4045455,
                "end_time": 35.8045455,
                "pitch": 64,
                "velocity": 40,
                "duration": 0.4,
                "tempo": 120.0
            },
            {
                "start_time": 35.8068182,
                "end_time": 36.2068182,
                "pitch": 65,
                "velocity": 40,
                "duration": 0.4,
                "tempo": 120.0
            },
            {
                "start_time": 36.2068182,
                "end_time": 36.4068182,
                "pitch": 65,
                "velocity": 40,
                "duration": 0.2,
                "tempo": 120.0
            },
            {
                "start_time": 36.4090909,
                "end_time": 36.8181818,
                "pitch": 64,
                "velocity": 40,
                "duration": 0.4090909,
                "tempo": 120.0
            },
            {
                "start_time": 36.8181818,
                "end_time": 37.0136364,
                "pitch": 65,
                "velocity": 40,
                "duration": 0.1954545,
                "tempo": 120.0
            },
            {
                "start_time": 37.0159091,
                "end_time": 37.4159091,
                "pitch": 64,
                "velocity": 40,
                "duration": 0.4,
                "tempo": 120.0
            },
            {
                "start_time": 37.4181818,
                "end_time": 38.2204545,
                "pitch": 64,
                "velocity": 40,
                "duration": 0.8022727,
                "tempo": 120.0
            },
            {
                "start_time": 38.2204545,
                "end_time": 39.2272727,
                "pitch": 63,
                "velocity": 40,
                "duration": 1.0068182,
                "tempo": 120.0
            },
            {
                "start_time": 51.8863636,
                "end_time": 52.2863636,
                "pitch": 65,
                "velocity": 40,
                "duration": 0.4,
                "tempo": 120.0
            },
            {
                "start_time": 52.2886364,
                "end_time": 52.4818182,
                "pitch": 65,
                "velocity": 40,
                "duration": 0.1931818,
                "tempo": 120.0
            },
            {
                "start_time": 52.4840909,
                "end_time": 52.8931818,
                "pitch": 64,
                "velocity": 40,
                "duration": 0.4090909,
                "tempo": 120.0
            },
            {
                "start_time": 52.8954545,
                "end_time": 53.0931818,
                "pitch": 65,
                "velocity": 40,
                "duration": 0.1977273,
                "tempo": 120.0
            },
            {
                "start_time": 53.0954545,
                "end_time": 53.4954545,
                "pitch": 64,
                "velocity": 40,
                "duration": 0.4,
                "tempo": 120.0
            },
            {
                "start_time": 53.4954545,
                "end_time": 53.8954545,
                "pitch": 65,
                "velocity": 40,
                "duration": 0.4,
                "tempo": 120.0
            },
            {
                "start_time": 53.8954545,
                "end_time": 54.0954545,
                "pitch": 65,
                "velocity": 40,
                "duration": 0.2,
                "tempo": 120.0
            },
            {
                "start_time": 54.0977273,
                "end_time": 54.4977273,
                "pitch": 64,
                "velocity": 40,
                "duration": 0.4,
                "tempo": 120.0
            },
            {
                "start_time": 54.5,
                "end_time": 54.6954545,
                "pitch": 65,
                "velocity": 40,
                "duration": 0.1954545,
                "tempo": 120.0
            },
            {
                "start_time": 54.6954545,
                "end_time": 55.0977273,
                "pitch": 64,
                "velocity": 40,
                "duration": 0.4022727,
                "tempo": 120.0
            },
            {
                "start_time": 55.0977273,
                "end_time": 55.5022727,
                "pitch": 65,
                "velocity": 40,
                "duration": 0.4045455,
                "tempo": 120.0
            },
            {
                "start_time": 55.5045455,
                "end_time": 55.7022727,
                "pitch": 65,
                "velocity": 40,
                "duration": 0.1977273,
                "tempo": 120.0
            },
            {
                "start_time": 55.7045455,
                "end_time": 56.1045455,
                "pitch": 64,
                "velocity": 40,
                "duration": 0.4,
                "tempo": 120.0
            },
            {
                "start_time": 56.1045455,
                "end_time": 56.3045455,
                "pitch": 65,
                "velocity": 40,
                "duration": 0.2,
                "tempo": 120.0
            },
            {
                "start_time": 56.3068182,
                "end_time": 56.7068182,
                "pitch": 64,
                "velocity": 40,
                "duration": 0.4,
                "tempo": 120.0
            },
            {
                "start_time": 56.7090909,
                "end_time": 57.1068182,
                "pitch": 65,
                "velocity": 40,
                "duration": 0.3977273,
                "tempo": 120.0
            },
            {
                "start_time": 57.1090909,
                "end_time": 57.3068182,
                "pitch": 65,
                "velocity": 40,
                "duration": 0.1977273,
                "tempo": 120.0
            },
            {
                "start_time": 57.3090909,
                "end_time": 57.7090909,
                "pitch": 64,
                "velocity": 40,
                "duration": 0.4,
                "tempo": 120.0
            },
            {
                "start_time": 57.7090909,
                "end_time": 57.9090909,
                "pitch": 65,
                "velocity": 40,
                "duration": 0.2,
                "tempo": 120.0
            },
            {
                "start_time": 57.9090909,
                "end_time": 58.3113636,
                "pitch": 64,
                "velocity": 40,
                "duration": 0.4022727,
                "tempo": 120.0
            },
            {
                "start_time": 58.3113636,
                "end_time": 58.7113636,
                "pitch": 65,
                "velocity": 40,
                "duration": 0.4,
                "tempo": 120.0
            },
            {
                "start_time": 58.7136364,
                "end_time": 58.9136364,
                "pitch": 65,
                "velocity": 40,
                "duration": 0.2,
                "tempo": 120.0
            },
            {
                "start_time": 58.9136364,
                "end_time": 59.3136364,
                "pitch": 65,
                "velocity": 40,
                "duration": 0.4,
                "tempo": 120.0
            },
            {
                "start_time": 59.3136364,
                "end_time": 59.5181818,
                "pitch": 65,
                "velocity": 40,
                "duration": 0.2045455,
                "tempo": 120.0
            },
            {
                "start_time": 59.5204545,
                "end_time": 59.925,
                "pitch": 65,
                "velocity": 40,
                "duration": 0.4045455,
                "tempo": 120.0
            },
            {
                "start_time": 59.9272727,
                "end_time": 60.3204545,
                "pitch": 64,
                "velocity": 40,
                "duration": 0.3931818,
                "tempo": 120.0
            },
            {
                "start_time": 60.3227273,
                "end_time": 60.5181818,
                "pitch": 64,
                "velocity": 40,
                "duration": 0.1954545,
                "tempo": 120.0
            },
            {
                "start_time": 60.5181818,
                "end_time": 60.9295455,
                "pitch": 64,
                "velocity": 40,
                "duration": 0.4113636,
                "tempo": 120.0
            },
            {
                "start_time": 60.9295455,
                "end_time": 61.1295455,
                "pitch": 64,
                "velocity": 40,
                "duration": 0.2,
                "tempo": 120.0
            },
            {
                "start_time": 61.1295455,
                "end_time": 61.5318182,
                "pitch": 64,
                "velocity": 40,
                "duration": 0.4022727,
                "tempo": 120.0
            },
            {
                "start_time": 61.5318182,
                "end_time": 61.9318182,
                "pitch": 65,
                "velocity": 40,
                "duration": 0.4,
                "tempo": 120.0
            },
            {
                "start_time": 61.9340909,
                "end_time": 62.1340909,
                "pitch": 65,
                "velocity": 40,
                "duration": 0.2,
                "tempo": 120.0
            },
            {
                "start_time": 62.1340909,
                "end_time": 62.5340909,
                "pitch": 65,
                "velocity": 40,
                "duration": 0.4,
                "tempo": 120.0
            },
            {
                "start_time": 62.5340909,
                "end_time": 62.7340909,
                "pitch": 65,
                "velocity": 40,
                "duration": 0.2,
                "tempo": 120.0
            },
            {
                "start_time": 62.7363636,
                "end_time": 63.1340909,
                "pitch": 65,
                "velocity": 40,
                "duration": 0.3977273,
                "tempo": 120.0
            },
            {
                "start_time": 63.1363636,
                "end_time": 63.5363636,
                "pitch": 64,
                "velocity": 40,
                "duration": 0.4,
                "tempo": 120.0
            },
            {
                "start_time": 63.5386364,
                "end_time": 63.7386364,
                "pitch": 64,
                "velocity": 40,
                "duration": 0.2,
                "tempo": 120.0
            },
            {
                "start_time": 63.7386364,
                "end_time": 64.7409091,
                "pitch": 64,
                "velocity": 40,
                "duration": 1.0022727,
                "tempo": 120.0
            },
            {
                "start_time": 64.7431818,
                "end_time": 65.1431818,
                "pitch": 65,
                "velocity": 40,
                "duration": 0.4,
                "tempo": 120.0
            },
            {
                "start_time": 65.1431818,
                "end_time": 65.3431818,
                "pitch": 65,
                "velocity": 40,
                "duration": 0.2,
                "tempo": 120.0
            },
            {
                "start_time": 65.3454545,
                "end_time": 65.7454545,
                "pitch": 64,
                "velocity": 40,
                "duration": 0.4,
                "tempo": 120.0
            },
            {
                "start_time": 65.7477273,
                "end_time": 65.9454545,
                "pitch": 65,
                "velocity": 40,
                "duration": 0.1977273,
                "tempo": 120.0
            },
            {
                "start_time": 65.9477273,
                "end_time": 66.3522727,
                "pitch": 64,
                "velocity": 40,
                "duration": 0.4045455,
                "tempo": 120.0
            },
            {
                "start_time": 66.3545455,
                "end_time": 66.7545455,
                "pitch": 65,
                "velocity": 40,
                "duration": 0.4,
                "tempo": 120.0
            },
            {
                "start_time": 66.7545455,
                "end_time": 66.95,
                "pitch": 65,
                "velocity": 40,
                "duration": 0.1954545,
                "tempo": 120.0
            },
            {
                "start_time": 66.9522727,
                "end_time": 67.3613636,
                "pitch": 64,
                "velocity": 40,
                "duration": 0.4090909,
                "tempo": 120.0
            },
            {
                "start_time": 67.3636364,
                "end_time": 67.5568182,
                "pitch": 65,
                "velocity": 40,
                "duration": 0.1931818,
                "tempo": 120.0
            },
            {
                "start_time": 67.5590909,
                "end_time": 67.9590909,
                "pitch": 64,
                "velocity": 40,
                "duration": 0.4,
                "tempo": 120.0
            },
            {
                "start_time": 67.9613636,
                "end_time": 68.3613636,
                "pitch": 65,
                "velocity": 40,
                "duration": 0.4,
                "tempo": 120.0
            },
            {
                "start_time": 68.3636364,
                "end_time": 68.5568182,
                "pitch": 65,
                "velocity": 40,
                "duration": 0.1931818,
                "tempo": 120.0
            },
            {
                "start_time": 68.5590909,
                "end_time": 68.9681818,
                "pitch": 64,
                "velocity": 40,
                "duration": 0.4090909,
                "tempo": 120.0
            },
            {
                "start_time": 68.9704545,
                "end_time": 69.1704545,
                "pitch": 65,
                "velocity": 40,
                "duration": 0.2,
                "tempo": 120.0
            },
            {
                "start_time": 69.1727273,
                "end_time": 69.5727273,
                "pitch": 64,
                "velocity": 40,
                "duration": 0.4,
                "tempo": 120.0
            },
            {
                "start_time": 69.5727273,
                "end_time": 69.975,
                "pitch": 65,
                "velocity": 40,
                "duration": 0.4022727,
                "tempo": 120.0
            },
            {
                "start_time": 69.975,
                "end_time": 70.175,
                "pitch": 65,
                "velocity": 40,
                "duration": 0.2,
                "tempo": 120.0
            },
            {
                "start_time": 70.1772727,
                "end_time": 70.5795455,
                "pitch": 64,
                "velocity": 40,
                "duration": 0.4022727,
                "tempo": 120.0
            },
            {
                "start_time": 70.5795455,
                "end_time": 70.775,
                "pitch": 65,
                "velocity": 40,
                "duration": 0.1954545,
                "tempo": 120.0
            },
            {
                "start_time": 70.7772727,
                "end_time": 71.1772727,
                "pitch": 64,
                "velocity": 40,
                "duration": 0.4,
                "tempo": 120.0
            },
            {
                "start_time": 71.1795455,
                "end_time": 71.5840909,
                "pitch": 65,
                "velocity": 40,
                "duration": 0.4045455,
                "tempo": 120.0
            },
            {
                "start_time": 71.5840909,
                "end_time": 71.7840909,
                "pitch": 65,
                "velocity": 40,
                "duration": 0.2,
                "tempo": 120.0
            },
            {
                "start_time": 71.7840909,
                "end_time": 72.1863636,
                "pitch": 65,
                "velocity": 40,
                "duration": 0.4022727,
                "tempo": 120.0
            },
            {
                "start_time": 72.1886364,
                "end_time": 72.3886364,
                "pitch": 65,
                "velocity": 40,
                "duration": 0.2,
                "tempo": 120.0
            },
            {
                "start_time": 72.3886364,
                "end_time": 72.7909091,
                "pitch": 65,
                "velocity": 40,
                "duration": 0.4022727,
                "tempo": 120.0
            },
            {
                "start_time": 72.7909091,
                "end_time": 73.1909091,
                "pitch": 64,
                "velocity": 40,
                "duration": 0.4,
                "tempo": 120.0
            },
            {
                "start_time": 73.1931818,
                "end_time": 73.3931818,
                "pitch": 64,
                "velocity": 40,
                "duration": 0.2,
                "tempo": 120.0
            },
            {
                "start_time": 73.3954545,
                "end_time": 73.7931818,
                "pitch": 64,
                "velocity": 40,
                "duration": 0.3977273,
                "tempo": 120.0
            },
            {
                "start_time": 73.7954545,
                "end_time": 73.9954545,
                "pitch": 64,
                "velocity": 40,
                "duration": 0.2,
                "tempo": 120.0
            },
            {
                "start_time": 73.9977273,
                "end_time": 74.4,
                "pitch": 64,
                "velocity": 40,
                "duration": 0.4022727,
                "tempo": 120.0
            },
            {
                "start_time": 74.4,
                "end_time": 74.8,
                "pitch": 65,
                "velocity": 40,
                "duration": 0.4,
                "tempo": 120.0
            },
            {
                "start_time": 74.8022727,
                "end_time": 75.0,
                "pitch": 65,
                "velocity": 40,
                "duration": 0.1977273,
                "tempo": 120.0
            },
            {
                "start_time": 75.0022727,
                "end_time": 75.4113636,
                "pitch": 65,
                "velocity": 40,
                "duration": 0.4090909,
                "tempo": 120.0
            },
            {
                "start_time": 75.4136364,
                "end_time": 76.2159091,
                "pitch": 65,
                "velocity": 40,
                "duration": 0.8022727,
                "tempo": 120.0
            },
            {
                "start_time": 76.4181818,
                "end_time": 76.6159091,
                "pitch": 65,
                "velocity": 51,
                "duration": 0.1977273,
                "tempo": 120.0
            },
            {
                "start_time": 76.6181818,
                "end_time": 77.0090909,
                "pitch": 64,
                "velocity": 51,
                "duration": 0.3909091,
                "tempo": 120.0
            },
            {
                "start_time": 77.0113636,
                "end_time": 77.2113636,
                "pitch": 64,
                "velocity": 51,
                "duration": 0.2,
                "tempo": 120.0
            },
            {
                "start_time": 77.2113636,
                "end_time": 77.6181818,
                "pitch": 65,
                "velocity": 51,
                "duration": 0.4068182,
                "tempo": 120.0
            },
            {
                "start_time": 77.6204545,
                "end_time": 78.0204545,
                "pitch": 64,
                "velocity": 51,
                "duration": 0.4,
                "tempo": 120.0
            },
            {
                "start_time": 78.0227273,
                "end_time": 78.2159091,
                "pitch": 63,
                "velocity": 51,
                "duration": 0.1931818,
                "tempo": 120.0
            },
            {
                "start_time": 78.2181818,
                "end_time": 79.4318182,
                "pitch": 62,
                "velocity": 51,
                "duration": 1.2136364,
                "tempo": 120.0
            },
            {
                "start_time": 79.6340909,
                "end_time": 79.8340909,
                "pitch": 63,
                "velocity": 51,
                "duration": 0.2,
                "tempo": 120.0
            },
            {
                "start_time": 79.8363636,
                "end_time": 80.2386364,
                "pitch": 64,
                "velocity": 51,
                "duration": 0.4022727,
                "tempo": 120.0
            },
            {
                "start_time": 80.2386364,
                "end_time": 80.4386364,
                "pitch": 64,
                "velocity": 51,
                "duration": 0.2,
                "tempo": 120.0
            },
            {
                "start_time": 80.4386364,
                "end_time": 80.8409091,
                "pitch": 65,
                "velocity": 51,
                "duration": 0.4022727,
                "tempo": 120.0
            },
            {
                "start_time": 80.8409091,
                "end_time": 81.2409091,
                "pitch": 64,
                "velocity": 51,
                "duration": 0.4,
                "tempo": 120.0
            },
            {
                "start_time": 81.2431818,
                "end_time": 81.4431818,
                "pitch": 63,
                "velocity": 51,
                "duration": 0.2,
                "tempo": 120.0
            },
            {
                "start_time": 81.4431818,
                "end_time": 82.6636364,
                "pitch": 62,
                "velocity": 51,
                "duration": 1.2204545,
                "tempo": 120.0
            },
            {
                "start_time": 82.8636364,
                "end_time": 83.0659091,
                "pitch": 63,
                "velocity": 51,
                "duration": 0.2022727,
                "tempo": 120.0
            },
            {
                "start_time": 83.0659091,
                "end_time": 83.4636364,
                "pitch": 64,
                "velocity": 51,
                "duration": 0.3977273,
                "tempo": 120.0
            },
            {
                "start_time": 83.4659091,
                "end_time": 83.6613636,
                "pitch": 64,
                "velocity": 51,
                "duration": 0.1954545,
                "tempo": 120.0
            },
            {
                "start_time": 83.6636364,
                "end_time": 84.0613636,
                "pitch": 65,
                "velocity": 51,
                "duration": 0.3977273,
                "tempo": 120.0
            },
            {
                "start_time": 84.0636364,
                "end_time": 84.4636364,
                "pitch": 64,
                "velocity": 51,
                "duration": 0.4,
                "tempo": 120.0
            },
            {
                "start_time": 84.4659091,
                "end_time": 84.6590909,
                "pitch": 63,
                "velocity": 51,
                "duration": 0.1931818,
                "tempo": 120.0
            },
            {
                "start_time": 84.6613636,
                "end_time": 85.875,
                "pitch": 62,
                "velocity": 51,
                "duration": 1.2136364,
                "tempo": 120.0
            },
            {
                "start_time": 86.0772727,
                "end_time": 86.275,
                "pitch": 63,
                "velocity": 51,
                "duration": 0.1977273,
                "tempo": 120.0
            },
            {
                "start_time": 86.2772727,
                "end_time": 86.6795455,
                "pitch": 64,
                "velocity": 51,
                "duration": 0.4022727,
                "tempo": 120.0
            },
            {
                "start_time": 86.6795455,
                "end_time": 86.8795455,
                "pitch": 64,
                "velocity": 51,
                "duration": 0.2,
                "tempo": 120.0
            },
            {
                "start_time": 86.8795455,
                "end_time": 87.2818182,
                "pitch": 65,
                "velocity": 51,
                "duration": 0.4022727,
                "tempo": 120.0
            },
            {
                "start_time": 87.2818182,
                "end_time": 87.6840909,
                "pitch": 64,
                "velocity": 51,
                "duration": 0.4022727,
                "tempo": 120.0
            },
            {
                "start_time": 87.6863636,
                "end_time": 87.8863636,
                "pitch": 63,
                "velocity": 51,
                "duration": 0.2,
                "tempo": 120.0
            },
            {
                "start_time": 87.8863636,
                "end_time": 88.8886364,
                "pitch": 62,
                "velocity": 51,
                "duration": 1.0022727,
                "tempo": 120.0
            },
            {
                "start_time": 88.8909091,
                "end_time": 88.8954545,
                "pitch": 62,
                "velocity": 51,
                "duration": 0.0045455,
                "tempo": 120.0
            },
            {
                "start_time": 88.9,
                "end_time": 88.9022727,
                "pitch": 25,
                "velocity": 4,
                "duration": 0.0022727,
                "tempo": 120.0
            }
        ],
        "Harpsichord": [
            {
                "start_time": 39.2318182,
                "end_time": 39.2772727,
                "pitch": 46,
                "velocity": 51,
                "duration": 0.0454545,
                "tempo": 120.0
            },
            {
                "start_time": 39.2795455,
                "end_time": 39.3272727,
                "pitch": 58,
                "velocity": 51,
                "duration": 0.0477273,
                "tempo": 120.0
            },
            {
                "start_time": 39.3295455,
                "end_time": 39.3772727,
                "pitch": 50,
                "velocity": 51,
                "duration": 0.0477273,
                "tempo": 120.0
            },
            {
                "start_time": 39.3795455,
                "end_time": 39.4295455,
                "pitch": 62,
                "velocity": 51,
                "duration": 0.05,
                "tempo": 120.0
            },
            {
                "start_time": 39.4295455,
                "end_time": 39.4795455,
                "pitch": 53,
                "velocity": 51,
                "duration": 0.05,
                "tempo": 120.0
            },
            {
                "start_time": 39.4795455,
                "end_time": 39.5295455,
                "pitch": 65,
                "velocity": 51,
                "duration": 0.05,
                "tempo": 120.0
            },
            {
                "start_time": 39.5295455,
                "end_time": 39.5795455,
                "pitch": 57,
                "velocity": 51,
                "duration": 0.05,
                "tempo": 120.0
            },
            {
                "start_time": 39.5818182,
                "end_time": 39.6295455,
                "pitch": 69,
                "velocity": 51,
                "duration": 0.0477273,
                "tempo": 120.0
            },
            {
                "start_time": 39.6318182,
                "end_time": 39.6795455,
                "pitch": 70,
                "velocity": 51,
                "duration": 0.0477273,
                "tempo": 120.0
            },
            {
                "start_time": 39.6795455,
                "end_time": 39.7272727,
                "pitch": 82,
                "velocity": 51,
                "duration": 0.0477273,
                "tempo": 120.0
            },
            {
                "start_time": 39.7295455,
                "end_time": 39.7772727,
                "pitch": 74,
                "velocity": 51,
                "duration": 0.0477273,
                "tempo": 120.0
            },
            {
                "start_time": 39.7795455,
                "end_time": 39.8272727,
                "pitch": 86,
                "velocity": 51,
                "duration": 0.0477273,
                "tempo": 120.0
            },
            {
                "start_time": 39.8272727,
                "end_time": 39.875,
                "pitch": 77,
                "velocity": 51,
                "duration": 0.0477273,
                "tempo": 120.0
            },
            {
                "start_time": 39.8772727,
                "end_time": 39.925,
                "pitch": 89,
                "velocity": 51,
                "duration": 0.0477273,
                "tempo": 120.0
            },
            {
                "start_time": 39.925,
                "end_time": 39.9727273,
                "pitch": 81,
                "velocity": 51,
                "duration": 0.0477273,
                "tempo": 120.0
            },
            {
                "start_time": 39.975,
                "end_time": 40.0227273,
                "pitch": 93,
                "velocity": 51,
                "duration": 0.0477273,
                "tempo": 120.0
            },
            {
                "start_time": 40.025,
                "end_time": 40.075,
                "pitch": 94,
                "velocity": 51,
                "duration": 0.05,
                "tempo": 120.0
            },
            {
                "start_time": 40.075,
                "end_time": 40.125,
                "pitch": 106,
                "velocity": 51,
                "duration": 0.05,
                "tempo": 120.0
            },
            {
                "start_time": 40.1272727,
                "end_time": 40.1772727,
                "pitch": 98,
                "velocity": 51,
                "duration": 0.05,
                "tempo": 120.0
            },
            {
                "start_time": 40.1772727,
                "end_time": 40.2272727,
                "pitch": 98,
                "velocity": 51,
                "duration": 0.05,
                "tempo": 120.0
            },
            {
                "start_time": 40.2295455,
                "end_time": 40.2795455,
                "pitch": 89,
                "velocity": 51,
                "duration": 0.05,
                "tempo": 120.0
            },
            {
                "start_time": 40.2818182,
                "end_time": 40.3318182,
                "pitch": 101,
                "velocity": 51,
                "duration": 0.05,
                "tempo": 120.0
            },
            {
                "start_time": 40.3318182,
                "end_time": 40.3818182,
                "pitch": 93,
                "velocity": 51,
                "duration": 0.05,
                "tempo": 120.0
            },
            {
                "start_time": 40.3840909,
                "end_time": 40.4340909,
                "pitch": 105,
                "velocity": 51,
                "duration": 0.05,
                "tempo": 120.0
            },
            {
                "start_time": 40.4363636,
                "end_time": 40.4840909,
                "pitch": 106,
                "velocity": 51,
                "duration": 0.0477273,
                "tempo": 120.0
            },
            {
                "start_time": 40.4863636,
                "end_time": 40.5340909,
                "pitch": 106,
                "velocity": 51,
                "duration": 0.0477273,
                "tempo": 120.0
            },
            {
                "start_time": 40.5363636,
                "end_time": 40.5840909,
                "pitch": 98,
                "velocity": 51,
                "duration": 0.0477273,
                "tempo": 120.0
            },
            {
                "start_time": 40.5863636,
                "end_time": 40.6340909,
                "pitch": 98,
                "velocity": 51,
                "duration": 0.0477273,
                "tempo": 120.0
            },
            {
                "start_time": 40.6363636,
                "end_time": 40.6840909,
                "pitch": 89,
                "velocity": 51,
                "duration": 0.0477273,
                "tempo": 120.0
            },
            {
                "start_time": 40.6863636,
                "end_time": 40.7340909,
                "pitch": 101,
                "velocity": 51,
                "duration": 0.0477273,
                "tempo": 120.0
            },
            {
                "start_time": 40.7363636,
                "end_time": 40.7840909,
                "pitch": 93,
                "velocity": 51,
                "duration": 0.0477273,
                "tempo": 120.0
            },
            {
                "start_time": 40.7863636,
                "end_time": 40.8363636,
                "pitch": 105,
                "velocity": 51,
                "duration": 0.05,
                "tempo": 120.0
            },
            {
                "start_time": 40.8386364,
                "end_time": 40.8840909,
                "pitch": 106,
                "velocity": 51,
                "duration": 0.0454545,
                "tempo": 120.0
            },
            {
                "start_time": 40.8863636,
                "end_time": 40.9340909,
                "pitch": 106,
                "velocity": 51,
                "duration": 0.0477273,
                "tempo": 120.0
            },
            {
                "start_time": 40.9363636,
                "end_time": 40.9840909,
                "pitch": 91,
                "velocity": 51,
                "duration": 0.0477273,
                "tempo": 120.0
            },
            {
                "start_time": 40.9863636,
                "end_time": 41.0363636,
                "pitch": 103,
                "velocity": 51,
                "duration": 0.05,
                "tempo": 120.0
            },
            {
                "start_time": 41.0363636,
                "end_time": 41.0840909,
                "pitch": 88,
                "velocity": 51,
                "duration": 0.0477273,
                "tempo": 120.0
            },
            {
                "start_time": 41.0863636,
                "end_time": 41.1340909,
                "pitch": 100,
                "velocity": 51,
                "duration": 0.0477273,
                "tempo": 120.0
            },
            {
                "start_time": 41.1363636,
                "end_time": 41.1840909,
                "pitch": 84,
                "velocity": 51,
                "duration": 0.0477273,
                "tempo": 120.0
            },
            {
                "start_time": 41.1863636,
                "end_time": 41.2363636,
                "pitch": 96,
                "velocity": 51,
                "duration": 0.05,
                "tempo": 120.0
            },
            {
                "start_time": 41.2363636,
                "end_time": 41.2863636,
                "pitch": 82,
                "velocity": 51,
                "duration": 0.05,
                "tempo": 120.0
            },
            {
                "start_time": 41.2863636,
                "end_time": 41.3363636,
                "pitch": 94,
                "velocity": 51,
                "duration": 0.05,
                "tempo": 120.0
            },
            {
                "start_time": 41.3363636,
                "end_time": 41.3863636,
                "pitch": 79,
                "velocity": 51,
                "duration": 0.05,
                "tempo": 120.0
            },
            {
                "start_time": 41.3886364,
                "end_time": 41.4363636,
                "pitch": 91,
                "velocity": 51,
                "duration": 0.0477273,
                "tempo": 120.0
            },
            {
                "start_time": 41.4386364,
                "end_time": 41.4863636,
                "pitch": 76,
                "velocity": 51,
                "duration": 0.0477273,
                "tempo": 120.0
            },
            {
                "start_time": 41.4886364,
                "end_time": 41.5363636,
                "pitch": 88,
                "velocity": 51,
                "duration": 0.0477273,
                "tempo": 120.0
            },
            {
                "start_time": 41.5386364,
                "end_time": 41.5886364,
                "pitch": 72,
                "velocity": 51,
                "duration": 0.05,
                "tempo": 120.0
            },
            {
                "start_time": 41.5886364,
                "end_time": 41.6386364,
                "pitch": 84,
                "velocity": 51,
                "duration": 0.05,
                "tempo": 120.0
            },
            {
                "start_time": 41.6409091,
                "end_time": 41.6886364,
                "pitch": 70,
                "velocity": 51,
                "duration": 0.0477273,
                "tempo": 120.0
            },
            {
                "start_time": 41.6909091,
                "end_time": 41.7409091,
                "pitch": 82,
                "velocity": 51,
                "duration": 0.05,
                "tempo": 120.0
            },
            {
                "start_time": 41.7431818,
                "end_time": 41.7931818,
                "pitch": 67,
                "velocity": 51,
                "duration": 0.05,
                "tempo": 120.0
            },
            {
                "start_time": 41.7931818,
                "end_time": 41.8431818,
                "pitch": 79,
                "velocity": 51,
                "duration": 0.05,
                "tempo": 120.0
            },
            {
                "start_time": 41.8454545,
                "end_time": 41.8954545,
                "pitch": 64,
                "velocity": 51,
                "duration": 0.05,
                "tempo": 120.0
            },
            {
                "start_time": 41.8954545,
                "end_time": 41.9477273,
                "pitch": 76,
                "velocity": 51,
                "duration": 0.0522727,
                "tempo": 120.0
            },
            {
                "start_time": 41.9477273,
                "end_time": 41.9977273,
                "pitch": 60,
                "velocity": 51,
                "duration": 0.05,
                "tempo": 120.0
            },
            {
                "start_time": 42.0,
                "end_time": 42.05,
                "pitch": 72,
                "velocity": 51,
                "duration": 0.05,
                "tempo": 120.0
            },
            {
                "start_time": 42.0522727,
                "end_time": 42.0977273,
                "pitch": 58,
                "velocity": 51,
                "duration": 0.0454545,
                "tempo": 120.0
            },
            {
                "start_time": 42.1,
                "end_time": 42.1477273,
                "pitch": 70,
                "velocity": 51,
                "duration": 0.0477273,
                "tempo": 120.0
            },
            {
                "start_time": 42.15,
                "end_time": 42.1977273,
                "pitch": 55,
                "velocity": 51,
                "duration": 0.0477273,
                "tempo": 120.0
            },
            {
                "start_time": 42.1977273,
                "end_time": 42.2454545,
                "pitch": 67,
                "velocity": 51,
                "duration": 0.0477273,
                "tempo": 120.0
            },
            {
                "start_time": 42.2477273,
                "end_time": 42.2954545,
                "pitch": 52,
                "velocity": 51,
                "duration": 0.0477273,
                "tempo": 120.0
            },
            {
                "start_time": 42.2954545,
                "end_time": 42.3431818,
                "pitch": 64,
                "velocity": 51,
                "duration": 0.0477273,
                "tempo": 120.0
            },
            {
                "start_time": 42.3454545,
                "end_time": 42.3931818,
                "pitch": 48,
                "velocity": 51,
                "duration": 0.0477273,
                "tempo": 120.0
            },
            {
                "start_time": 42.3954545,
                "end_time": 42.4431818,
                "pitch": 60,
                "velocity": 51,
                "duration": 0.0477273,
                "tempo": 120.0
            },
            {
                "start_time": 42.4454545,
                "end_time": 42.4931818,
                "pitch": 53,
                "velocity": 51,
                "duration": 0.0477273,
                "tempo": 120.0
            },
            {
                "start_time": 42.4954545,
                "end_time": 42.5454545,
                "pitch": 65,
                "velocity": 51,
                "duration": 0.05,
                "tempo": 120.0
            },
            {
                "start_time": 42.5454545,
                "end_time": 42.5954545,
                "pitch": 57,
                "velocity": 51,
                "duration": 0.05,
                "tempo": 120.0
            },
            {
                "start_time": 42.5977273,
                "end_time": 42.6477273,
                "pitch": 69,
                "velocity": 51,
                "duration": 0.05,
                "tempo": 120.0
            },
            {
                "start_time": 42.65,
                "end_time": 42.7,
                "pitch": 60,
                "velocity": 51,
                "duration": 0.05,
                "tempo": 120.0
            },
            {
                "start_time": 42.7,
                "end_time": 42.75,
                "pitch": 72,
                "velocity": 51,
                "duration": 0.05,
                "tempo": 120.0
            },
            {
                "start_time": 42.7522727,
                "end_time": 42.8022727,
                "pitch": 64,
                "velocity": 51,
                "duration": 0.05,
                "tempo": 120.0
            },
            {
                "start_time": 42.8022727,
                "end_time": 42.8545455,
                "pitch": 76,
                "velocity": 51,
                "duration": 0.0522727,
                "tempo": 120.0
            },
            {
                "start_time": 42.8545455,
                "end_time": 42.9045455,
                "pitch": 65,
                "velocity": 51,
                "duration": 0.05,
                "tempo": 120.0
            },
            {
                "start_time": 42.9045455,
                "end_time": 42.9545455,
                "pitch": 77,
                "velocity": 51,
                "duration": 0.05,
                "tempo": 120.0
            },
            {
                "start_time": 42.9545455,
                "end_time": 43.0045455,
                "pitch": 69,
                "velocity": 51,
                "duration": 0.05,
                "tempo": 120.0
            },
            {
                "start_time": 43.0045455,
                "end_time": 43.0545455,
                "pitch": 81,
                "velocity": 51,
                "duration": 0.05,
                "tempo": 120.0
            },
            {
                "start_time": 43.0545455,
                "end_time": 43.1045455,
                "pitch": 72,
                "velocity": 51,
                "duration": 0.05,
                "tempo": 120.0
            },
            {
                "start_time": 43.1045455,
                "end_time": 43.1545455,
                "pitch": 84,
                "velocity": 51,
                "duration": 0.05,
                "tempo": 120.0
            },
            {
                "start_time": 43.1545455,
                "end_time": 43.2045455,
                "pitch": 76,
                "velocity": 51,
                "duration": 0.05,
                "tempo": 120.0
            },
            {
                "start_time": 43.2045455,
                "end_time": 43.2545455,
                "pitch": 88,
                "velocity": 51,
                "duration": 0.05,
                "tempo": 120.0
            },
            {
                "start_time": 43.2568182,
                "end_time": 43.3022727,
                "pitch": 77,
                "velocity": 51,
                "duration": 0.0454545,
                "tempo": 120.0
            },
            {
                "start_time": 43.3045455,
                "end_time": 43.3522727,
                "pitch": 89,
                "velocity": 51,
                "duration": 0.0477273,
                "tempo": 120.0
            },
            {
                "start_time": 43.3545455,
                "end_time": 43.4022727,
                "pitch": 81,
                "velocity": 51,
                "duration": 0.0477273,
                "tempo": 120.0
            },
            {
                "start_time": 43.4022727,
                "end_time": 43.45,
                "pitch": 93,
                "velocity": 51,
                "duration": 0.0477273,
                "tempo": 120.0
            },
            {
                "start_time": 43.4522727,
                "end_time": 43.5,
                "pitch": 84,
                "velocity": 51,
                "duration": 0.0477273,
                "tempo": 120.0
            },
            {
                "start_time": 43.5,
                "end_time": 43.5477273,
                "pitch": 96,
                "velocity": 51,
                "duration": 0.0477273,
                "tempo": 120.0
            },
            {
                "start_time": 43.55,
                "end_time": 43.5977273,
                "pitch": 88,
                "velocity": 51,
                "duration": 0.0477273,
                "tempo": 120.0
            },
            {
                "start_time": 43.6,
                "end_time": 43.6477273,
                "pitch": 100,
                "velocity": 51,
                "duration": 0.0477273,
                "tempo": 120.0
            },
            {
                "start_time": 43.6477273,
                "end_time": 43.6977273,
                "pitch": 89,
                "velocity": 51,
                "duration": 0.05,
                "tempo": 120.0
            },
            {
                "start_time": 43.6977273,
                "end_time": 43.7477273,
                "pitch": 101,
                "velocity": 51,
                "duration": 0.05,
                "tempo": 120.0
            },
            {
                "start_time": 43.7477273,
                "end_time": 43.7977273,
                "pitch": 93,
                "velocity": 51,
                "duration": 0.05,
                "tempo": 120.0
            },
            {
                "start_time": 43.7977273,
                "end_time": 43.8477273,
                "pitch": 105,
                "velocity": 51,
                "duration": 0.05,
                "tempo": 120.0
            },
            {
                "start_time": 43.85,
                "end_time": 43.8977273,
                "pitch": 96,
                "velocity": 51,
                "duration": 0.0477273,
                "tempo": 120.0
            },
            {
                "start_time": 43.8977273,
                "end_time": 43.9477273,
                "pitch": 96,
                "velocity": 51,
                "duration": 0.05,
                "tempo": 120.0
            },
            {
                "start_time": 43.9477273,
                "end_time": 43.9977273,
                "pitch": 88,
                "velocity": 51,
                "duration": 0.05,
                "tempo": 120.0
            },
            {
                "start_time": 43.9977273,
                "end_time": 44.0477273,
                "pitch": 100,
                "velocity": 51,
                "duration": 0.05,
                "tempo": 120.0
            },
            {
                "start_time": 44.05,
                "end_time": 44.0977273,
                "pitch": 84,
                "velocity": 51,
                "duration": 0.0477273,
                "tempo": 120.0
            },
            {
                "start_time": 44.0977273,
                "end_time": 44.1477273,
                "pitch": 96,
                "velocity": 51,
                "duration": 0.05,
                "tempo": 120.0
            },
            {
                "start_time": 44.1477273,
                "end_time": 44.1977273,
                "pitch": 81,
                "velocity": 51,
                "duration": 0.05,
                "tempo": 120.0
            },
            {
                "start_time": 44.1977273,
                "end_time": 44.2477273,
                "pitch": 93,
                "velocity": 51,
                "duration": 0.05,
                "tempo": 120.0
            },
            {
                "start_time": 44.25,
                "end_time": 44.2977273,
                "pitch": 77,
                "velocity": 51,
                "duration": 0.0477273,
                "tempo": 120.0
            },
            {
                "start_time": 44.2977273,
                "end_time": 44.3477273,
                "pitch": 89,
                "velocity": 51,
                "duration": 0.05,
                "tempo": 120.0
            },
            {
                "start_time": 44.35,
                "end_time": 44.3977273,
                "pitch": 75,
                "velocity": 51,
                "duration": 0.0477273,
                "tempo": 120.0
            },
            {
                "start_time": 44.4,
                "end_time": 44.4477273,
                "pitch": 87,
                "velocity": 51,
                "duration": 0.0477273,
                "tempo": 120.0
            },
            {
                "start_time": 44.45,
                "end_time": 44.5,
                "pitch": 72,
                "velocity": 51,
                "duration": 0.05,
                "tempo": 120.0
            },
            {
                "start_time": 44.5,
                "end_time": 44.55,
                "pitch": 84,
                "velocity": 51,
                "duration": 0.05,
                "tempo": 120.0
            },
            {
                "start_time": 44.5522727,
                "end_time": 44.6022727,
                "pitch": 69,
                "velocity": 51,
                "duration": 0.05,
                "tempo": 120.0
            },
            {
                "start_time": 44.6022727,
                "end_time": 44.6545455,
                "pitch": 81,
                "velocity": 51,
                "duration": 0.0522727,
                "tempo": 120.0
            },
            {
                "start_time": 44.6568182,
                "end_time": 44.7045455,
                "pitch": 65,
                "velocity": 51,
                "duration": 0.0477273,
                "tempo": 120.0
            },
            {
                "start_time": 44.7068182,
                "end_time": 44.7568182,
                "pitch": 77,
                "velocity": 51,
                "duration": 0.05,
                "tempo": 120.0
            },
            {
                "start_time": 44.7568182,
                "end_time": 44.8068182,
                "pitch": 63,
                "velocity": 51,
                "duration": 0.05,
                "tempo": 120.0
            },
            {
                "start_time": 44.8090909,
                "end_time": 44.8590909,
                "pitch": 75,
                "velocity": 51,
                "duration": 0.05,
                "tempo": 120.0
            },
            {
                "start_time": 44.8613636,
                "end_time": 44.9090909,
                "pitch": 60,
                "velocity": 51,
                "duration": 0.0477273,
                "tempo": 120.0
            },
            {
                "start_time": 44.9113636,
                "end_time": 44.9590909,
                "pitch": 72,
                "velocity": 51,
                "duration": 0.0477273,
                "tempo": 120.0
            },
            {
                "start_time": 44.9613636,
                "end_time": 45.0090909,
                "pitch": 57,
                "velocity": 51,
                "duration": 0.0477273,
                "tempo": 120.0
            },
            {
                "start_time": 45.0113636,
                "end_time": 45.0590909,
                "pitch": 69,
                "velocity": 51,
                "duration": 0.0477273,
                "tempo": 120.0
            },
            {
                "start_time": 45.0613636,
                "end_time": 45.1090909,
                "pitch": 53,
                "velocity": 51,
                "duration": 0.0477273,
                "tempo": 120.0
            },
            {
                "start_time": 45.1113636,
                "end_time": 45.1590909,
                "pitch": 65,
                "velocity": 51,
                "duration": 0.0477273,
                "tempo": 120.0
            },
            {
                "start_time": 45.1613636,
                "end_time": 45.2090909,
                "pitch": 51,
                "velocity": 51,
                "duration": 0.0477273,
                "tempo": 120.0
            },
            {
                "start_time": 45.2113636,
                "end_time": 45.2590909,
                "pitch": 63,
                "velocity": 51,
                "duration": 0.0477273,
                "tempo": 120.0
            },
            {
                "start_time": 45.2613636,
                "end_time": 45.3090909,
                "pitch": 48,
                "velocity": 51,
                "duration": 0.0477273,
                "tempo": 120.0
            },
            {
                "start_time": 45.3113636,
                "end_time": 45.3590909,
                "pitch": 60,
                "velocity": 51,
                "duration": 0.0477273,
                "tempo": 120.0
            },
            {
                "start_time": 45.3613636,
                "end_time": 45.4090909,
                "pitch": 45,
                "velocity": 51,
                "duration": 0.0477273,
                "tempo": 120.0
            },
            {
                "start_time": 45.4113636,
                "end_time": 45.4613636,
                "pitch": 57,
                "velocity": 51,
                "duration": 0.05,
                "tempo": 120.0
            },
            {
                "start_time": 45.4613636,
                "end_time": 45.5090909,
                "pitch": 41,
                "velocity": 51,
                "duration": 0.0477273,
                "tempo": 120.0
            },
            {
                "start_time": 45.5113636,
                "end_time": 45.5590909,
                "pitch": 53,
                "velocity": 51,
                "duration": 0.0477273,
                "tempo": 120.0
            },
            {
                "start_time": 45.5613636,
                "end_time": 45.6090909,
                "pitch": 39,
                "velocity": 51,
                "duration": 0.0477273,
                "tempo": 120.0
            },
            {
                "start_time": 45.6113636,
                "end_time": 45.6613636,
                "pitch": 51,
                "velocity": 51,
                "duration": 0.05,
                "tempo": 120.0
            },
            {
                "start_time": 45.6636364,
                "end_time": 45.7113636,
                "pitch": 46,
                "velocity": 51,
                "duration": 0.0477273,
                "tempo": 120.0
            },
            {
                "start_time": 45.7113636,
                "end_time": 45.7613636,
                "pitch": 58,
                "velocity": 51,
                "duration": 0.05,
                "tempo": 120.0
            },
            {
                "start_time": 45.7613636,
                "end_time": 45.8113636,
                "pitch": 50,
                "velocity": 51,
                "duration": 0.05,
                "tempo": 120.0
            },
            {
                "start_time": 45.8113636,
                "end_time": 45.8613636,
                "pitch": 62,
                "velocity": 51,
                "duration": 0.05,
                "tempo": 120.0
            },
            {
                "start_time": 45.8613636,
                "end_time": 45.9113636,
                "pitch": 53,
                "velocity": 51,
                "duration": 0.05,
                "tempo": 120.0
            },
            {
                "start_time": 45.9113636,
                "end_time": 45.9613636,
                "pitch": 65,
                "velocity": 51,
                "duration": 0.05,
                "tempo": 120.0
            },
            {
                "start_time": 45.9613636,
                "end_time": 46.0113636,
                "pitch": 57,
                "velocity": 51,
                "duration": 0.05,
                "tempo": 120.0
            },
            {
                "start_time": 46.0113636,
                "end_time": 46.0613636,
                "pitch": 69,
                "velocity": 51,
                "duration": 0.05,
                "tempo": 120.0
            },
            {
                "start_time": 46.0636364,
                "end_time": 46.1113636,
                "pitch": 58,
                "velocity": 51,
                "duration": 0.0477273,
                "tempo": 120.0
            },
            {
                "start_time": 46.1113636,
                "end_time": 46.1613636,
                "pitch": 70,
                "velocity": 51,
                "duration": 0.05,
                "tempo": 120.0
            },
            {
                "start_time": 46.1613636,
                "end_time": 46.2113636,
                "pitch": 62,
                "velocity": 51,
                "duration": 0.05,
                "tempo": 120.0
            },
            {
                "start_time": 46.2113636,
                "end_time": 46.2613636,
                "pitch": 74,
                "velocity": 51,
                "duration": 0.05,
                "tempo": 120.0
            },
            {
                "start_time": 46.2613636,
                "end_time": 46.3113636,
                "pitch": 65,
                "velocity": 51,
                "duration": 0.05,
                "tempo": 120.0
            },
            {
                "start_time": 46.3113636,
                "end_time": 46.3613636,
                "pitch": 77,
                "velocity": 51,
                "duration": 0.05,
                "tempo": 120.0
            },
            {
                "start_time": 46.3613636,
                "end_time": 46.4113636,
                "pitch": 69,
                "velocity": 51,
                "duration": 0.05,
                "tempo": 120.0
            },
            {
                "start_time": 46.4113636,
                "end_time": 46.4613636,
                "pitch": 81,
                "velocity": 51,
                "duration": 0.05,
                "tempo": 120.0
            },
            {
                "start_time": 46.4636364,
                "end_time": 46.5113636,
                "pitch": 70,
                "velocity": 51,
                "duration": 0.0477273,
                "tempo": 120.0
            },
            {
                "start_time": 46.5136364,
                "end_time": 46.5613636,
                "pitch": 82,
                "velocity": 51,
                "duration": 0.0477273,
                "tempo": 120.0
            },
            {
                "start_time": 46.5636364,
                "end_time": 46.6113636,
                "pitch": 74,
                "velocity": 51,
                "duration": 0.0477273,
                "tempo": 120.0
            },
            {
                "start_time": 46.6136364,
                "end_time": 46.6636364,
                "pitch": 86,
                "velocity": 51,
                "duration": 0.05,
                "tempo": 120.0
            },
            {
                "start_time": 46.6636364,
                "end_time": 46.7136364,
                "pitch": 77,
                "velocity": 51,
                "duration": 0.05,
                "tempo": 120.0
            },
            {
                "start_time": 46.7136364,
                "end_time": 46.7636364,
                "pitch": 89,
                "velocity": 51,
                "duration": 0.05,
                "tempo": 120.0
            },
            {
                "start_time": 46.7659091,
                "end_time": 46.8136364,
                "pitch": 81,
                "velocity": 51,
                "duration": 0.0477273,
                "tempo": 120.0
            },
            {
                "start_time": 46.8159091,
                "end_time": 46.8659091,
                "pitch": 93,
                "velocity": 51,
                "duration": 0.05,
                "tempo": 120.0
            },
            {
                "start_time": 46.8659091,
                "end_time": 46.9136364,
                "pitch": 82,
                "velocity": 51,
                "duration": 0.0477273,
                "tempo": 120.0
            },
            {
                "start_time": 46.9159091,
                "end_time": 46.9636364,
                "pitch": 94,
                "velocity": 51,
                "duration": 0.0477273,
                "tempo": 120.0
            },
            {
                "start_time": 46.9659091,
                "end_time": 47.0136364,
                "pitch": 86,
                "velocity": 51,
                "duration": 0.0477273,
                "tempo": 120.0
            },
            {
                "start_time": 47.0159091,
                "end_time": 47.0659091,
                "pitch": 98,
                "velocity": 51,
                "duration": 0.05,
                "tempo": 120.0
            },
            {
                "start_time": 47.0659091,
                "end_time": 47.1136364,
                "pitch": 89,
                "velocity": 51,
                "duration": 0.0477273,
                "tempo": 120.0
            },
            {
                "start_time": 47.1159091,
                "end_time": 47.1636364,
                "pitch": 101,
                "velocity": 51,
                "duration": 0.0477273,
                "tempo": 120.0
            },
            {
                "start_time": 47.1659091,
                "end_time": 47.2159091,
                "pitch": 93,
                "velocity": 51,
                "duration": 0.05,
                "tempo": 120.0
            },
            {
                "start_time": 47.2159091,
                "end_time": 47.2681818,
                "pitch": 105,
                "velocity": 51,
                "duration": 0.0522727,
                "tempo": 120.0
            },
            {
                "start_time": 47.2681818,
                "end_time": 47.3159091,
                "pitch": 98,
                "velocity": 51,
                "duration": 0.0477273,
                "tempo": 120.0
            },
            {
                "start_time": 47.3159091,
                "end_time": 47.3659091,
                "pitch": 98,
                "velocity": 51,
                "duration": 0.05,
                "tempo": 120.0
            },
            {
                "start_time": 47.3659091,
                "end_time": 47.4159091,
                "pitch": 82,
                "velocity": 51,
                "duration": 0.05,
                "tempo": 120.0
            },
            {
                "start_time": 47.4159091,
                "end_time": 47.4659091,
                "pitch": 94,
                "velocity": 51,
                "duration": 0.05,
                "tempo": 120.0
            },
            {
                "start_time": 47.4681818,
                "end_time": 47.5159091,
                "pitch": 79,
                "velocity": 51,
                "duration": 0.0477273,
                "tempo": 120.0
            },
            {
                "start_time": 47.5159091,
                "end_time": 47.5659091,
                "pitch": 91,
                "velocity": 51,
                "duration": 0.05,
                "tempo": 120.0
            },
            {
                "start_time": 47.5659091,
                "end_time": 47.6159091,
                "pitch": 76,
                "velocity": 51,
                "duration": 0.05,
                "tempo": 120.0
            },
            {
                "start_time": 47.6159091,
                "end_time": 47.6659091,
                "pitch": 88,
                "velocity": 51,
                "duration": 0.05,
                "tempo": 120.0
            },
            {
                "start_time": 47.6681818,
                "end_time": 47.7159091,
                "pitch": 74,
                "velocity": 51,
                "duration": 0.0477273,
                "tempo": 120.0
            },
            {
                "start_time": 47.7159091,
                "end_time": 47.7659091,
                "pitch": 86,
                "velocity": 51,
                "duration": 0.05,
                "tempo": 120.0
            },
            {
                "start_time": 47.7659091,
                "end_time": 47.8159091,
                "pitch": 70,
                "velocity": 51,
                "duration": 0.05,
                "tempo": 120.0
            },
            {
                "start_time": 47.8159091,
                "end_time": 47.8659091,
                "pitch": 82,
                "velocity": 51,
                "duration": 0.05,
                "tempo": 120.0
            },
            {
                "start_time": 47.8659091,
                "end_time": 47.9159091,
                "pitch": 67,
                "velocity": 51,
                "duration": 0.05,
                "tempo": 120.0
            },
            {
                "start_time": 47.9181818,
                "end_time": 47.9659091,
                "pitch": 79,
                "velocity": 51,
                "duration": 0.0477273,
                "tempo": 120.0
            },
            {
                "start_time": 47.9681818,
                "end_time": 48.0159091,
                "pitch": 64,
                "velocity": 51,
                "duration": 0.0477273,
                "tempo": 120.0
            },
            {
                "start_time": 48.0181818,
                "end_time": 48.0681818,
                "pitch": 76,
                "velocity": 51,
                "duration": 0.05,
                "tempo": 120.0
            },
            {
                "start_time": 48.0704545,
                "end_time": 48.1159091,
                "pitch": 62,
                "velocity": 51,
                "duration": 0.0454545,
                "tempo": 120.0
            },
            {
                "start_time": 48.1181818,
                "end_time": 48.1681818,
                "pitch": 74,
                "velocity": 51,
                "duration": 0.05,
                "tempo": 120.0
            },
            {
                "start_time": 48.1704545,
                "end_time": 48.2204545,
                "pitch": 58,
                "velocity": 51,
                "duration": 0.05,
                "tempo": 120.0
            },
            {
                "start_time": 48.2204545,
                "end_time": 48.2704545,
                "pitch": 70,
                "velocity": 51,
                "duration": 0.05,
                "tempo": 120.0
            },
            {
                "start_time": 48.2727273,
                "end_time": 48.3227273,
                "pitch": 55,
                "velocity": 51,
                "duration": 0.05,
                "tempo": 120.0
            },
            {
                "start_time": 48.325,
                "end_time": 48.375,
                "pitch": 67,
                "velocity": 51,
                "duration": 0.05,
                "tempo": 120.0
            },
            {
                "start_time": 48.375,
                "end_time": 48.425,
                "pitch": 52,
                "velocity": 51,
                "duration": 0.05,
                "tempo": 120.0
            },
            {
                "start_time": 48.4272727,
                "end_time": 48.4772727,
                "pitch": 64,
                "velocity": 51,
                "duration": 0.05,
                "tempo": 120.0
            },
            {
                "start_time": 48.4795455,
                "end_time": 48.5272727,
                "pitch": 50,
                "velocity": 51,
                "duration": 0.0477273,
                "tempo": 120.0
            },
            {
                "start_time": 48.5272727,
                "end_time": 48.575,
                "pitch": 62,
                "velocity": 51,
                "duration": 0.0477273,
                "tempo": 120.0
            },
            {
                "start_time": 48.5772727,
                "end_time": 48.625,
                "pitch": 46,
                "velocity": 51,
                "duration": 0.0477273,
                "tempo": 120.0
            },
            {
                "start_time": 48.625,
                "end_time": 48.675,
                "pitch": 58,
                "velocity": 51,
                "duration": 0.05,
                "tempo": 120.0
            },
            {
                "start_time": 48.675,
                "end_time": 48.7227273,
                "pitch": 43,
                "velocity": 51,
                "duration": 0.0477273,
                "tempo": 120.0
            },
            {
                "start_time": 48.725,
                "end_time": 48.7727273,
                "pitch": 55,
                "velocity": 51,
                "duration": 0.0477273,
                "tempo": 120.0
            },
            {
                "start_time": 48.7727273,
                "end_time": 48.8204545,
                "pitch": 40,
                "velocity": 51,
                "duration": 0.0477273,
                "tempo": 120.0
            },
            {
                "start_time": 48.8227273,
                "end_time": 48.8727273,
                "pitch": 52,
                "velocity": 51,
                "duration": 0.05,
                "tempo": 120.0
            },
            {
                "start_time": 48.8727273,
                "end_time": 48.9204545,
                "pitch": 45,
                "velocity": 51,
                "duration": 0.0477273,
                "tempo": 120.0
            },
            {
                "start_time": 48.9204545,
                "end_time": 48.9704545,
                "pitch": 57,
                "velocity": 51,
                "duration": 0.05,
                "tempo": 120.0
            },
            {
                "start_time": 48.9704545,
                "end_time": 49.0204545,
                "pitch": 49,
                "velocity": 51,
                "duration": 0.05,
                "tempo": 120.0
            },
            {
                "start_time": 49.0204545,
                "end_time": 49.0704545,
                "pitch": 61,
                "velocity": 51,
                "duration": 0.05,
                "tempo": 120.0
            },
            {
                "start_time": 49.0727273,
                "end_time": 49.1204545,
                "pitch": 52,
                "velocity": 51,
                "duration": 0.0477273,
                "tempo": 120.0
            },
            {
                "start_time": 49.1204545,
                "end_time": 49.1704545,
                "pitch": 64,
                "velocity": 51,
                "duration": 0.05,
                "tempo": 120.0
            },
            {
                "start_time": 49.1704545,
                "end_time": 49.2204545,
                "pitch": 53,
                "velocity": 51,
                "duration": 0.05,
                "tempo": 120.0
            },
            {
                "start_time": 49.2227273,
                "end_time": 49.2704545,
                "pitch": 65,
                "velocity": 51,
                "duration": 0.0477273,
                "tempo": 120.0
            },
            {
                "start_time": 49.2727273,
                "end_time": 49.3204545,
                "pitch": 57,
                "velocity": 51,
                "duration": 0.0477273,
                "tempo": 120.0
            },
            {
                "start_time": 49.3227273,
                "end_time": 49.3727273,
                "pitch": 69,
                "velocity": 51,
                "duration": 0.05,
                "tempo": 120.0
            },
            {
                "start_time": 49.375,
                "end_time": 49.425,
                "pitch": 61,
                "velocity": 51,
                "duration": 0.05,
                "tempo": 120.0
            },
            {
                "start_time": 49.425,
                "end_time": 49.475,
                "pitch": 73,
                "velocity": 51,
                "duration": 0.05,
                "tempo": 120.0
            },
            {
                "start_time": 49.4772727,
                "end_time": 49.5272727,
                "pitch": 64,
                "velocity": 51,
                "duration": 0.05,
                "tempo": 120.0
            },
            {
                "start_time": 49.5295455,
                "end_time": 49.5795455,
                "pitch": 76,
                "velocity": 51,
                "duration": 0.05,
                "tempo": 120.0
            },
            {
                "start_time": 49.5795455,
                "end_time": 49.6295455,
                "pitch": 65,
                "velocity": 51,
                "duration": 0.05,
                "tempo": 120.0
            },
            {
                "start_time": 49.6318182,
                "end_time": 49.6818182,
                "pitch": 77,
                "velocity": 51,
                "duration": 0.05,
                "tempo": 120.0
            },
            {
                "start_time": 49.6840909,
                "end_time": 49.7295455,
                "pitch": 69,
                "velocity": 51,
                "duration": 0.0454545,
                "tempo": 120.0
            },
            {
                "start_time": 49.7318182,
                "end_time": 49.7795455,
                "pitch": 81,
                "velocity": 51,
                "duration": 0.0477273,
                "tempo": 120.0
            },
            {
                "start_time": 49.7818182,
                "end_time": 49.8295455,
                "pitch": 73,
                "velocity": 51,
                "duration": 0.0477273,
                "tempo": 120.0
            },
            {
                "start_time": 49.8295455,
                "end_time": 49.8772727,
                "pitch": 85,
                "velocity": 51,
                "duration": 0.0477273,
                "tempo": 120.0
            },
            {
                "start_time": 49.8795455,
                "end_time": 49.9272727,
                "pitch": 76,
                "velocity": 51,
                "duration": 0.0477273,
                "tempo": 120.0
            },
            {
                "start_time": 49.9272727,
                "end_time": 49.975,
                "pitch": 88,
                "velocity": 51,
                "duration": 0.0477273,
                "tempo": 120.0
            },
            {
                "start_time": 49.9772727,
                "end_time": 50.025,
                "pitch": 77,
                "velocity": 51,
                "duration": 0.0477273,
                "tempo": 120.0
            },
            {
                "start_time": 50.0272727,
                "end_time": 50.075,
                "pitch": 89,
                "velocity": 51,
                "duration": 0.0477273,
                "tempo": 120.0
            },
            {
                "start_time": 50.0772727,
                "end_time": 50.125,
                "pitch": 81,
                "velocity": 51,
                "duration": 0.0477273,
                "tempo": 120.0
            },
            {
                "start_time": 50.125,
                "end_time": 50.175,
                "pitch": 93,
                "velocity": 51,
                "duration": 0.05,
                "tempo": 120.0
            },
            {
                "start_time": 50.175,
                "end_time": 50.225,
                "pitch": 85,
                "velocity": 51,
                "duration": 0.05,
                "tempo": 120.0
            },
            {
                "start_time": 50.225,
                "end_time": 50.2772727,
                "pitch": 97,
                "velocity": 51,
                "duration": 0.0522727,
                "tempo": 120.0
            },
            {
                "start_time": 50.2772727,
                "end_time": 50.325,
                "pitch": 88,
                "velocity": 51,
                "duration": 0.0477273,
                "tempo": 120.0
            },
            {
                "start_time": 50.325,
                "end_time": 50.375,
                "pitch": 100,
                "velocity": 51,
                "duration": 0.05,
                "tempo": 120.0
            },
            {
                "start_time": 50.375,
                "end_time": 50.425,
                "pitch": 89,
                "velocity": 51,
                "duration": 0.05,
                "tempo": 120.0
            },
            {
                "start_time": 50.425,
                "end_time": 50.475,
                "pitch": 101,
                "velocity": 51,
                "duration": 0.05,
                "tempo": 120.0
            },
            {
                "start_time": 50.4772727,
                "end_time": 50.525,
                "pitch": 91,
                "velocity": 51,
                "duration": 0.0477273,
                "tempo": 120.0
            },
            {
                "start_time": 50.5272727,
                "end_time": 50.575,
                "pitch": 103,
                "velocity": 51,
                "duration": 0.0477273,
                "tempo": 120.0
            },
            {
                "start_time": 50.5772727,
                "end_time": 50.625,
                "pitch": 88,
                "velocity": 51,
                "duration": 0.0477273,
                "tempo": 120.0
            },
            {
                "start_time": 50.6272727,
                "end_time": 50.6772727,
                "pitch": 100,
                "velocity": 51,
                "duration": 0.05,
                "tempo": 120.0
            },
            {
                "start_time": 50.6772727,
                "end_time": 50.7272727,
                "pitch": 85,
                "velocity": 51,
                "duration": 0.05,
                "tempo": 120.0
            },
            {
                "start_time": 50.7272727,
                "end_time": 50.7772727,
                "pitch": 97,
                "velocity": 51,
                "duration": 0.05,
                "tempo": 120.0
            },
            {
                "start_time": 50.7795455,
                "end_time": 50.8272727,
                "pitch": 81,
                "velocity": 51,
                "duration": 0.0477273,
                "tempo": 120.0
            },
            {
                "start_time": 50.8295455,
                "end_time": 50.8795455,
                "pitch": 93,
                "velocity": 51,
                "duration": 0.05,
                "tempo": 120.0
            },
            {
                "start_time": 50.8795455,
                "end_time": 50.9272727,
                "pitch": 79,
                "velocity": 51,
                "duration": 0.0477273,
                "tempo": 120.0
            },
            {
                "start_time": 50.9295455,
                "end_time": 50.9772727,
                "pitch": 91,
                "velocity": 51,
                "duration": 0.0477273,
                "tempo": 120.0
            },
            {
                "start_time": 50.9795455,
                "end_time": 51.0272727,
                "pitch": 76,
                "velocity": 51,
                "duration": 0.0477273,
                "tempo": 120.0
            },
            {
                "start_time": 51.0295455,
                "end_time": 51.0795455,
                "pitch": 88,
                "velocity": 51,
                "duration": 0.05,
                "tempo": 120.0
            },
            {
                "start_time": 51.0795455,
                "end_time": 51.1272727,
                "pitch": 73,
                "velocity": 51,
                "duration": 0.0477273,
                "tempo": 120.0
            },
            {
                "start_time": 51.1295455,
                "end_time": 51.1772727,
                "pitch": 85,
                "velocity": 51,
                "duration": 0.0477273,
                "tempo": 120.0
            },
            {
                "start_time": 51.1795455,
                "end_time": 51.2272727,
                "pitch": 69,
                "velocity": 51,
                "duration": 0.0477273,
                "tempo": 120.0
            },
            {
                "start_time": 51.2295455,
                "end_time": 51.2795455,
                "pitch": 81,
                "velocity": 51,
                "duration": 0.05,
                "tempo": 120.0
            },
            {
                "start_time": 51.2795455,
                "end_time": 51.3295455,
                "pitch": 67,
                "velocity": 51,
                "duration": 0.05,
                "tempo": 120.0
            },
            {
                "start_time": 51.3295455,
                "end_time": 51.3795455,
                "pitch": 79,
                "velocity": 51,
                "duration": 0.05,
                "tempo": 120.0
            },
            {
                "start_time": 51.3795455,
                "end_time": 51.4295455,
                "pitch": 64,
                "velocity": 51,
                "duration": 0.05,
                "tempo": 120.0
            },
            {
                "start_time": 51.4295455,
                "end_time": 51.4795455,
                "pitch": 76,
                "velocity": 51,
                "duration": 0.05,
                "tempo": 120.0
            },
            {
                "start_time": 51.4795455,
                "end_time": 51.5295455,
                "pitch": 61,
                "velocity": 51,
                "duration": 0.05,
                "tempo": 120.0
            },
            {
                "start_time": 51.5295455,
                "end_time": 51.5795455,
                "pitch": 73,
                "velocity": 51,
                "duration": 0.05,
                "tempo": 120.0
            },
            {
                "start_time": 51.5818182,
                "end_time": 51.6295455,
                "pitch": 57,
                "velocity": 51,
                "duration": 0.0477273,
                "tempo": 120.0
            },
            {
                "start_time": 51.6295455,
                "end_time": 51.6795455,
                "pitch": 69,
                "velocity": 51,
                "duration": 0.05,
                "tempo": 120.0
            },
            {
                "start_time": 51.6818182,
                "end_time": 51.7477273,
                "pitch": 55,
                "velocity": 51,
                "duration": 0.0659091,
                "tempo": 120.0
            }
        ],
        "Vibraphone": [
            {
                "start_time": 39.2272727,
                "end_time": 40.8340909,
                "pitch": 69,
                "velocity": 51,
                "duration": 1.6068182,
                "tempo": 120.0
            },
            {
                "start_time": 40.8363636,
                "end_time": 42.4409091,
                "pitch": 67,
                "velocity": 51,
                "duration": 1.6045455,
                "tempo": 120.0
            },
            {
                "start_time": 42.4431818,
                "end_time": 43.8477273,
                "pitch": 64,
                "velocity": 51,
                "duration": 1.4045455,
                "tempo": 120.0
            },
            {
                "start_time": 43.8477273,
                "end_time": 44.6522727,
                "pitch": 65,
                "velocity": 51,
                "duration": 0.8045455,
                "tempo": 120.0
            },
            {
                "start_time": 44.6545455,
                "end_time": 45.6590909,
                "pitch": 69,
                "velocity": 51,
                "duration": 1.0045455,
                "tempo": 120.0
            },
            {
                "start_time": 45.6613636,
                "end_time": 47.2659091,
                "pitch": 65,
                "velocity": 51,
                "duration": 1.6045455,
                "tempo": 120.0
            },
            {
                "start_time": 47.2659091,
                "end_time": 48.0659091,
                "pitch": 62,
                "velocity": 51,
                "duration": 0.8,
                "tempo": 120.0
            },
            {
                "start_time": 48.0659091,
                "end_time": 48.8704545,
                "pitch": 62,
                "velocity": 51,
                "duration": 0.8045455,
                "tempo": 120.0
            },
            {
                "start_time": 48.8704545,
                "end_time": 50.275,
                "pitch": 64,
                "velocity": 51,
                "duration": 1.4045455,
                "tempo": 120.0
            },
            {
                "start_time": 50.275,
                "end_time": 51.8840909,
                "pitch": 64,
                "velocity": 51,
                "duration": 1.6090909,
                "tempo": 120.0
            }
        ]
    }
}