{
    "mood": "angry",
    "instruments": {
        "Church Organ": [
            {
                "start_time": 0.0068182,
                "end_time": 0.9704545,
                "pitch": 67,
                "velocity": 80,
                "duration": 0.9636364,
                "tempo": 120.0
            },
            {
                "start_time": 1.0090909,
                "end_time": 2.9886364,
                "pitch": 69,
                "velocity": 80,
                "duration": 1.9795455,
                "tempo": 120.0
            },
            {
                "start_time": 3.0954545,
                "end_time": 5.175,
                "pitch": 71,
                "velocity": 80,
                "duration": 2.0795455,
                "tempo": 120.0
            },
            {
                "start_time": 5.2886364,
                "end_time": 7.3704545,
                "pitch": 72,
                "velocity": 80,
                "duration": 2.0818182,
                "tempo": 120.0
            },
            {
                "start_time": 7.4818182,
                "end_time": 10.6090909,
                "pitch": 74,
                "velocity": 80,
                "duration": 3.1272727,
                "tempo": 120.0
            },
            {
                "start_time": 10.7159091,
                "end_time": 11.1318182,
                "pitch": 72,
                "velocity": 80,
                "duration": 0.4159091,
                "tempo": 120.0
            },
            {
                "start_time": 11.2363636,
                "end_time": 11.6863636,
                "pitch": 71,
                "velocity": 80,
                "duration": 0.45,
                "tempo": 120.0
            },
            {
                "start_time": 11.7613636,
                "end_time": 32.9363636,
                "pitch": 67,
                "velocity": 80,
                "duration": 21.175,
                "tempo": 120.0
            },
            {
                "start_time": 33.0113636,
                "end_time": 33.4863636,
                "pitch": 72,
                "velocity": 80,
                "duration": 0.475,
                "tempo": 120.0
            },
            {
                "start_time": 33.6022727,
                "end_time": 35.0227273,
                "pitch": 74,
                "velocity": 80,
                "duration": 1.4204545,
                "tempo": 120.0
            },
            {
                "start_time": 35.0886364,
                "end_time": 35.5181818,
                "pitch": 72,
                "velocity": 80,
                "duration": 0.4295455,
                "tempo": 120.0
            },
            {
                "start_time": 35.5886364,
                "end_time": 37.0795455,
                "pitch": 74,
                "velocity": 80,
                "duration": 1.4909091,
                "tempo": 120.0
            },
            {
                "start_time": 37.1840909,
                "end_time": 37.6363636,
                "pitch": 72,
                "velocity": 80,
                "duration": 0.4522727,
                "tempo": 120.0
            },
            {
                "start_time": 37.7090909,
                "end_time": 39.25,
                "pitch": 74,
                "velocity": 80,
                "duration": 1.5409091,
                "tempo": 120.0
            },
            {
                "start_time": 39.3590909,
                "end_time": 39.7886364,
                "pitch": 72,
                "velocity": 80,
                "duration": 0.4295455,
                "tempo": 120.0
            },
            {
                "start_time": 39.9022727,
                "end_time": 40.5454545,
                "pitch": 71,
                "velocity": 80,
                "duration": 0.6431818,
                "tempo": 120.0
            },
            {
                "start_time": 40.6181818,
                "end_time": 41.2636364,
                "pitch": 69,
                "velocity": 80,
                "duration": 0.6454545,
                "tempo": 120.0
            },
            {
                "start_time": 41.3727273,
                "end_time": 41.9840909,
                "pitch": 65,
                "velocity": 80,
                "duration": 0.6113636,
                "tempo": 120.0
            },
            {
                "start_time": 42.0977273,
                "end_time": 48.2363636,
                "pitch": 67,
                "velocity": 80,
                "duration": 6.1386364,
                "tempo": 120.0
            },
            {
                "start_time": 48.2863636,
                "end_time": 48.7045455,
                "pitch": 67,
                "velocity": 80,
                "duration": 0.4181818,
                "tempo": 120.0
            },
            {
                "start_time": 48.7772727,
                "end_time": 49.1931818,
                "pitch": 67,
                "velocity": 80,
                "duration": 0.4159091,
                "tempo": 120.0
            },
            {
                "start_time": 49.2659091,
                "end_time": 49.7068182,
                "pitch": 67,
                "velocity": 80,
                "duration": 0.4409091,
                "tempo": 120.0
            },
            {
                "start_time": 49.7613636,
                "end_time": 53.3181818,
                "pitch": 65,
                "velocity": 80,
                "duration": 3.5568182,
                "tempo": 120.0
            },
            {
                "start_time": 53.3704545,
                "end_time": 53.6704545,
                "pitch": 65,
                "velocity": 80,
                "duration": 0.3,
                "tempo": 120.0
            },
            {
                "start_time": 53.7227273,
                "end_time": 54.0431818,
                "pitch": 65,
                "velocity": 80,
                "duration": 0.3204545,
                "tempo": 120.0
            },
            {
                "start_time": 54.0795455,
                "end_time": 54.4181818,
                "pitch": 65,
                "velocity": 80,
                "duration": 0.3386364,
                "tempo": 120.0
            }
        ],
        "Synth Bass 1": [
            {
                "start_time": 58.7590909,
                "end_time": 72.2045455,
                "pitch": 28,
                "velocity": 127,
                "duration": 13.4454545,
                "tempo": 120.0
            }
        ],
        "Violin": [
            {
                "start_time": 7.4795455,
                "end_time": 33.4863636,
                "pitch": 67,
                "velocity": 32,
                "duration": 26.0068182,
                "tempo": 120.0
            },
            {
                "start_time": 42.0931818,
                "end_time": 58.7045455,
                "pitch": 67,
                "velocity": 32,
                "duration": 16.6113636,
                "tempo": 120.0
            }
        ],
        "Electric Piano 1": [
            {
                "start_time": 126.5363636,
                "end_time": 127.9886364,
                "pitch": 28,
                "velocity": 127,
                "duration": 1.4522727,
                "tempo": 120.0
            },
            {
                "start_time": 127.9886364,
                "end_time": 128.725,
                "pitch": 26,
                "velocity": 127,
                "duration": 0.7363636,
                "tempo": 120.0
            },
            {
                "start_time": 128.725,
                "end_time": 129.2795455,
                "pitch": 24,
                "velocity": 127,
                "duration": 0.5545455,
                "tempo": 120.0
            },
            {
                "start_time": 129.2795455,
                "end_time": 129.2818182,
                "pitch": 7,
                "velocity": 127,
                "duration": 0.0022727,
                "tempo": 120.0
            },
            {
                "start_time": 129.2818182,
                "end_time": 130.8068182,
                "pitch": 23,
                "velocity": 127,
                "duration": 1.525,
                "tempo": 120.0
            },
            {
                "start_time": 130.8068182,
                "end_time": 131.0409091,
                "pitch": 19,
                "velocity": 127,
                "duration": 0.2340909,
                "tempo": 120.0
            },
            {
                "start_time": 131.0409091,
                "end_time": 131.2704545,
                "pitch": 18,
                "velocity": 127,
                "duration": 0.2295455,
                "tempo": 120.0
            },
            {
                "start_time": 131.2704545,
                "end_time": 131.7204545,
                "pitch": 15,
                "velocity": 127,
                "duration": 0.45,
                "tempo": 120.0
            }
        ],
        "Acoustic Bass": [
            {
                "start_time": 58.7636364,
                "end_time": 58.8113636,
                "pitch": 28,
                "velocity": 127,
                "duration": 0.0477273,
                "tempo": 120.0
            },
            {
                "start_time": 58.8318182,
                "end_time": 58.8659091,
                "pitch": 28,
                "velocity": 127,
                "duration": 0.0340909,
                "tempo": 120.0
            },
            {
                "start_time": 58.8863636,
                "end_time": 58.9363636,
                "pitch": 30,
                "velocity": 127,
                "duration": 0.05,
                "tempo": 120.0
            },
            {
                "start_time": 58.9545455,
                "end_time": 58.9886364,
                "pitch": 31,
                "velocity": 127,
                "duration": 0.0340909,
                "tempo": 120.0
            },
            {
                "start_time": 59.0227273,
                "end_time": 59.0568182,
                "pitch": 28,
                "velocity": 127,
                "duration": 0.0340909,
                "tempo": 120.0
            },
            {
                "start_time": 59.075,
                "end_time": 59.125,
                "pitch": 28,
                "velocity": 127,
                "duration": 0.05,
                "tempo": 120.0
            },
            {
                "start_time": 59.1431818,
                "end_time": 59.1772727,
                "pitch": 34,
                "velocity": 127,
                "duration": 0.0340909,
                "tempo": 120.0
            },
            {
                "start_time": 59.1954545,
                "end_time": 59.2454545,
                "pitch": 34,
                "velocity": 127,
                "duration": 0.05,
                "tempo": 120.0
            }
        ],
        "Vibraphone": [
            {
                "start_time": 72.225,
                "end_time": 72.675,
                "pitch": 67,
                "velocity": 64,
                "duration": 0.45,
                "tempo": 120.0
            },
            {
                "start_time": 72.7090909,
                "end_time": 73.1704545,
                "pitch": 69,
                "velocity": 64,
                "duration": 0.4613636,
                "tempo": 120.0
            },
            {
                "start_time": 73.2045455,
                "end_time": 73.6545455,
                "pitch": 71,
                "velocity": 64,
                "duration": 0.45,
                "tempo": 120.0
            },
            {
                "start_time": 73.6727273,
                "end_time": 74.1318182,
                "pitch": 72,
                "velocity": 64,
                "duration": 0.4590909,
                "tempo": 120.0
            },
            {
                "start_time": 74.15,
                "end_time": 74.8522727,
                "pitch": 74,
                "velocity": 64,
                "duration": 0.7022727,
                "tempo": 120.0
            },
            {
                "start_time": 74.8704545,
                "end_time": 74.9863636,
                "pitch": 72,
                "velocity": 64,
                "duration": 0.1159091,
                "tempo": 120.0
            },
            {
                "start_time": 75.0045455,
                "end_time": 75.1022727,
                "pitch": 71,
                "velocity": 64,
                "duration": 0.0977273,
                "tempo": 120.0
            },
            {
                "start_time": 75.1204545,
                "end_time": 79.9454545,
                "pitch": 67,
                "velocity": 64,
                "duration": 4.825,
                "tempo": 120.0
            },
            {
                "start_time": 79.9636364,
                "end_time": 80.4204545,
                "pitch": 67,
                "velocity": 64,
                "duration": 0.4568182,
                "tempo": 120.0
            },
            {
                "start_time": 80.4386364,
                "end_time": 80.9159091,
                "pitch": 69,
                "velocity": 64,
                "duration": 0.4772727,
                "tempo": 120.0
            },
            {
                "start_time": 80.9340909,
                "end_time": 81.4,
                "pitch": 71,
                "velocity": 64,
                "duration": 0.4659091,
                "tempo": 120.0
            },
            {
                "start_time": 81.4181818,
                "end_time": 81.8954545,
                "pitch": 72,
                "velocity": 64,
                "duration": 0.4772727,
                "tempo": 120.0
            },
            {
                "start_time": 81.9136364,
                "end_time": 82.6181818,
                "pitch": 74,
                "velocity": 64,
                "duration": 0.7045455,
                "tempo": 120.0
            },
            {
                "start_time": 82.6340909,
                "end_time": 82.7340909,
                "pitch": 72,
                "velocity": 64,
                "duration": 0.1,
                "tempo": 120.0
            },
            {
                "start_time": 82.75,
                "end_time": 82.85,
                "pitch": 71,
                "velocity": 64,
                "duration": 0.1,
                "tempo": 120.0
            },
            {
                "start_time": 82.8681818,
                "end_time": 87.5704545,
                "pitch": 67,
                "velocity": 64,
                "duration": 4.7022727,
                "tempo": 120.0
            },
            {
                "start_time": 87.6045455,
                "end_time": 87.7045455,
                "pitch": 72,
                "velocity": 64,
                "duration": 0.1,
                "tempo": 120.0
            },
            {
                "start_time": 87.7227273,
                "end_time": 88.4318182,
                "pitch": 74,
                "velocity": 64,
                "duration": 0.7090909,
                "tempo": 120.0
            },
            {
                "start_time": 88.4477273,
                "end_time": 88.6613636,
                "pitch": 72,
                "velocity": 64,
                "duration": 0.2136364,
                "tempo": 120.0
            },
            {
                "start_time": 88.6954545,
                "end_time": 89.4022727,
                "pitch": 74,
                "velocity": 64,
                "duration": 0.7068182,
                "tempo": 120.0
            },
            {
                "start_time": 89.4204545,
                "end_time": 89.6318182,
                "pitch": 72,
                "velocity": 64,
                "duration": 0.2113636,
                "tempo": 120.0
            },
            {
                "start_time": 89.65,
                "end_time": 90.3568182,
                "pitch": 74,
                "velocity": 64,
                "duration": 0.7068182,
                "tempo": 120.0
            },
            {
                "start_time": 90.3909091,
                "end_time": 90.6045455,
                "pitch": 72,
                "velocity": 64,
                "duration": 0.2136364,
                "tempo": 120.0
            },
            {
                "start_time": 90.6204545,
                "end_time": 90.9272727,
                "pitch": 71,
                "velocity": 64,
                "duration": 0.3068182,
                "tempo": 120.0
            },
            {
                "start_time": 90.9454545,
                "end_time": 91.25,
                "pitch": 69,
                "velocity": 64,
                "duration": 0.3045455,
                "tempo": 120.0
            },
            {
                "start_time": 91.2681818,
                "end_time": 91.5704545,
                "pitch": 65,
                "velocity": 64,
                "duration": 0.3022727,
                "tempo": 120.0
            },
            {
                "start_time": 91.6045455,
                "end_time": 95.4636364,
                "pitch": 67,
                "velocity": 64,
                "duration": 3.8590909,
                "tempo": 120.0
            },
            {
                "start_time": 95.4840909,
                "end_time": 95.9409091,
                "pitch": 67,
                "velocity": 64,
                "duration": 0.4568182,
                "tempo": 120.0
            },
            {
                "start_time": 95.9568182,
                "end_time": 96.4272727,
                "pitch": 69,
                "velocity": 64,
                "duration": 0.4704545,
                "tempo": 120.0
            },
            {
                "start_time": 96.4454545,
                "end_time": 96.9227273,
                "pitch": 71,
                "velocity": 64,
                "duration": 0.4772727,
                "tempo": 120.0
            },
            {
                "start_time": 96.9409091,
                "end_time": 97.4113636,
                "pitch": 72,
                "velocity": 64,
                "duration": 0.4704545,
                "tempo": 120.0
            },
            {
                "start_time": 97.4295455,
                "end_time": 98.1318182,
                "pitch": 74,
                "velocity": 64,
                "duration": 0.7022727,
                "tempo": 120.0
            },
            {
                "start_time": 98.1477273,
                "end_time": 98.2477273,
                "pitch": 72,
                "velocity": 64,
                "duration": 0.1,
                "tempo": 120.0
            },
            {
                "start_time": 98.2659091,
                "end_time": 98.3659091,
                "pitch": 71,
                "velocity": 64,
                "duration": 0.1,
                "tempo": 120.0
            },
            {
                "start_time": 98.3840909,
                "end_time": 103.2272727,
                "pitch": 67,
                "velocity": 64,
                "duration": 4.8431818,
                "tempo": 120.0
            },
            {
                "start_time": 103.2477273,
                "end_time": 103.7227273,
                "pitch": 67,
                "velocity": 64,
                "duration": 0.475,
                "tempo": 120.0
            },
            {
                "start_time": 103.7409091,
                "end_time": 104.1954545,
                "pitch": 69,
                "velocity": 64,
                "duration": 0.4545455,
                "tempo": 120.0
            },
            {
                "start_time": 104.2295455,
                "end_time": 104.6909091,
                "pitch": 71,
                "velocity": 64,
                "duration": 0.4613636,
                "tempo": 120.0
            },
            {
                "start_time": 104.7068182,
                "end_time": 105.1568182,
                "pitch": 72,
                "velocity": 64,
                "duration": 0.45,
                "tempo": 120.0
            },
            {
                "start_time": 105.1727273,
                "end_time": 105.8863636,
                "pitch": 74,
                "velocity": 64,
                "duration": 0.7136364,
                "tempo": 120.0
            },
            {
                "start_time": 105.9204545,
                "end_time": 106.0204545,
                "pitch": 72,
                "velocity": 64,
                "duration": 0.1,
                "tempo": 120.0
            },
            {
                "start_time": 106.0386364,
                "end_time": 106.1386364,
                "pitch": 71,
                "velocity": 64,
                "duration": 0.1,
                "tempo": 120.0
            },
            {
                "start_time": 106.1568182,
                "end_time": 110.8659091,
                "pitch": 67,
                "velocity": 64,
                "duration": 4.7090909,
                "tempo": 120.0
            },
            {
                "start_time": 110.8840909,
                "end_time": 110.9840909,
                "pitch": 72,
                "velocity": 64,
                "duration": 0.1,
                "tempo": 120.0
            },
            {
                "start_time": 111.0022727,
                "end_time": 111.7136364,
                "pitch": 74,
                "velocity": 64,
                "duration": 0.7113636,
                "tempo": 120.0
            },
            {
                "start_time": 111.7295455,
                "end_time": 111.9477273,
                "pitch": 72,
                "velocity": 64,
                "duration": 0.2181818,
                "tempo": 120.0
            },
            {
                "start_time": 111.9659091,
                "end_time": 112.6772727,
                "pitch": 74,
                "velocity": 64,
                "duration": 0.7113636,
                "tempo": 120.0
            },
            {
                "start_time": 112.6954545,
                "end_time": 112.9272727,
                "pitch": 72,
                "velocity": 64,
                "duration": 0.2318182,
                "tempo": 120.0
            },
            {
                "start_time": 112.9454545,
                "end_time": 113.6568182,
                "pitch": 74,
                "velocity": 64,
                "duration": 0.7113636,
                "tempo": 120.0
            },
            {
                "start_time": 113.675,
                "end_time": 113.8909091,
                "pitch": 72,
                "velocity": 64,
                "duration": 0.2159091,
                "tempo": 120.0
            },
            {
                "start_time": 113.925,
                "end_time": 114.2318182,
                "pitch": 71,
                "velocity": 64,
                "duration": 0.3068182,
                "tempo": 120.0
            },
            {
                "start_time": 114.25,
                "end_time": 114.5477273,
                "pitch": 69,
                "velocity": 64,
                "duration": 0.2977273,
                "tempo": 120.0
            },
            {
                "start_time": 114.5636364,
                "end_time": 114.8522727,
                "pitch": 65,
                "velocity": 64,
                "duration": 0.2886364,
                "tempo": 120.0
            },
            {
                "start_time": 114.8704545,
                "end_time": 118.7477273,
                "pitch": 67,
                "velocity": 64,
                "duration": 3.8772727,
                "tempo": 120.0
            }
        ],
        "Flute": [
            {
                "start_time": 126.5340909,
                "end_time": 126.8045455,
                "pitch": 28,
                "velocity": 40,
                "duration": 0.2704545,
                "tempo": 120.0
            },
            {
                "start_time": 126.8045455,
                "end_time": 126.8863636,
                "pitch": 31,
                "velocity": 40,
                "duration": 0.0818182,
                "tempo": 120.0
            },
            {
                "start_time": 126.8863636,
                "end_time": 126.9340909,
                "pitch": 34,
                "velocity": 40,
                "duration": 0.0477273,
                "tempo": 120.0
            },
            {
                "start_time": 126.9340909,
                "end_time": 126.9977273,
                "pitch": 36,
                "velocity": 40,
                "duration": 0.0636364,
                "tempo": 120.0
            },
            {
                "start_time": 126.9977273,
                "end_time": 127.0795455,
                "pitch": 38,
                "velocity": 40,
                "duration": 0.0818182,
                "tempo": 120.0
            },
            {
                "start_time": 126.8045455,
                "end_time": 127.2227273,
                "pitch": 0,
                "velocity": 40,
                "duration": 0.4181818,
                "tempo": 120.0
            },
            {
                "start_time": 126.9340909,
                "end_time": 127.2227273,
                "pitch": 40,
                "velocity": 40,
                "duration": 0.2886364,
                "tempo": 120.0
            },
            {
                "start_time": 127.0795455,
                "end_time": 127.2227273,
                "pitch": 40,
                "velocity": 40,
                "duration": 0.1431818,
                "tempo": 120.0
            },
            {
                "start_time": 127.2227273,
                "end_time": 127.35,
                "pitch": 43,
                "velocity": 40,
                "duration": 0.1272727,
                "tempo": 120.0
            },
            {
                "start_time": 127.35,
                "end_time": 127.4,
                "pitch": 47,
                "velocity": 40,
                "duration": 0.05,
                "tempo": 120.0
            },
            {
                "start_time": 127.4,
                "end_time": 127.4931818,
                "pitch": 48,
                "velocity": 40,
                "duration": 0.0931818,
                "tempo": 120.0
            },
            {
                "start_time": 127.4931818,
                "end_time": 127.5863636,
                "pitch": 50,
                "velocity": 40,
                "duration": 0.0931818,
                "tempo": 120.0
            },
            {
                "start_time": 127.2227273,
                "end_time": 127.8863636,
                "pitch": 0,
                "velocity": 40,
                "duration": 0.6636364,
                "tempo": 120.0
            },
            {
                "start_time": 127.4,
                "end_time": 127.8863636,
                "pitch": 52,
                "velocity": 40,
                "duration": 0.4863636,
                "tempo": 120.0
            },
            {
                "start_time": 127.5863636,
                "end_time": 127.8863636,
                "pitch": 52,
                "velocity": 40,
                "duration": 0.3,
                "tempo": 120.0
            },
            {
                "start_time": 127.8863636,
                "end_time": 128.0386364,
                "pitch": 55,
                "velocity": 40,
                "duration": 0.1522727,
                "tempo": 120.0
            },
            {
                "start_time": 128.0386364,
                "end_time": 128.2227273,
                "pitch": 58,
                "velocity": 40,
                "duration": 0.1840909,
                "tempo": 120.0
            },
            {
                "start_time": 128.2227273,
                "end_time": 128.325,
                "pitch": 60,
                "velocity": 40,
                "duration": 0.1022727,
                "tempo": 120.0
            },
            {
                "start_time": 128.325,
                "end_time": 128.4045455,
                "pitch": 62,
                "velocity": 40,
                "duration": 0.0795455,
                "tempo": 120.0
            },
            {
                "start_time": 128.2227273,
                "end_time": 128.725,
                "pitch": 64,
                "velocity": 40,
                "duration": 0.5022727,
                "tempo": 120.0
            },
            {
                "start_time": 128.4045455,
                "end_time": 128.725,
                "pitch": 64,
                "velocity": 40,
                "duration": 0.3204545,
                "tempo": 120.0
            },
            {
                "start_time": 128.725,
                "end_time": 128.8363636,
                "pitch": 67,
                "velocity": 40,
                "duration": 0.1113636,
                "tempo": 120.0
            },
            {
                "start_time": 128.8363636,
                "end_time": 129.1340909,
                "pitch": 70,
                "velocity": 40,
                "duration": 0.2977273,
                "tempo": 120.0
            },
            {
                "start_time": 129.1340909,
                "end_time": 129.2068182,
                "pitch": 72,
                "velocity": 40,
                "duration": 0.0727273,
                "tempo": 120.0
            },
            {
                "start_time": 129.2068182,
                "end_time": 129.2795455,
                "pitch": 74,
                "velocity": 40,
                "duration": 0.0727273,
                "tempo": 120.0
            },
            {
                "start_time": 129.1340909,
                "end_time": 129.5636364,
                "pitch": 76,
                "velocity": 40,
                "duration": 0.4295455,
                "tempo": 120.0
            },
            {
                "start_time": 129.2795455,
                "end_time": 129.5636364,
                "pitch": 76,
                "velocity": 40,
                "duration": 0.2840909,
                "tempo": 120.0
            },
            {
                "start_time": 129.5636364,
                "end_time": 129.7681818,
                "pitch": 79,
                "velocity": 40,
                "duration": 0.2045455,
                "tempo": 120.0
            },
            {
                "start_time": 129.7681818,
                "end_time": 129.8431818,
                "pitch": 82,
                "velocity": 40,
                "duration": 0.075,
                "tempo": 120.0
            },
            {
                "start_time": 129.8431818,
                "end_time": 130.1113636,
                "pitch": 84,
                "velocity": 40,
                "duration": 0.2681818,
                "tempo": 120.0
            }
        ],
        "Clarinet": [
            {
                "start_time": 0.0068182,
                "end_time": 15.8931818,
                "pitch": 93,
                "velocity": 40,
                "duration": 15.8863636,
                "tempo": 120.0
            },
            {
                "start_time": 24.7431818,
                "end_time": 26.1886364,
                "pitch": 100,
                "velocity": 40,
                "duration": 1.4454545,
                "tempo": 120.0
            },
            {
                "start_time": 26.1886364,
                "end_time": 26.5431818,
                "pitch": 98,
                "velocity": 40,
                "duration": 0.3545455,
                "tempo": 120.0
            },
            {
                "start_time": 26.5431818,
                "end_time": 26.7181818,
                "pitch": 96,
                "velocity": 40,
                "duration": 0.175,
                "tempo": 120.0
            },
            {
                "start_time": 26.7181818,
                "end_time": 27.425,
                "pitch": 95,
                "velocity": 40,
                "duration": 0.7068182,
                "tempo": 120.0
            },
            {
                "start_time": 27.425,
                "end_time": 28.3454545,
                "pitch": 93,
                "velocity": 40,
                "duration": 0.9204545,
                "tempo": 120.0
            },
            {
                "start_time": 28.3454545,
                "end_time": 29.2318182,
                "pitch": 90,
                "velocity": 40,
                "duration": 0.8863636,
                "tempo": 120.0
            },
            {
                "start_time": 29.2318182,
                "end_time": 29.8022727,
                "pitch": 87,
                "velocity": 40,
                "duration": 0.5704545,
                "tempo": 120.0
            },
            {
                "start_time": 29.8022727,
                "end_time": 29.9909091,
                "pitch": 84,
                "velocity": 40,
                "duration": 0.1886364,
                "tempo": 120.0
            },
            {
                "start_time": 29.9909091,
                "end_time": 30.75,
                "pitch": 83,
                "velocity": 40,
                "duration": 0.7590909,
                "tempo": 120.0
            },
            {
                "start_time": 30.75,
                "end_time": 31.5454545,
                "pitch": 81,
                "velocity": 40,
                "duration": 0.7954545,
                "tempo": 120.0
            },
            {
                "start_time": 31.5454545,
                "end_time": 32.6431818,
                "pitch": 78,
                "velocity": 40,
                "duration": 1.0977273,
                "tempo": 120.0
            },
            {
                "start_time": 32.6431818,
                "end_time": 33.4863636,
                "pitch": 75,
                "velocity": 40,
                "duration": 0.8431818,
                "tempo": 120.0
            },
            {
                "start_time": 33.6022727,
                "end_time": 33.9295455,
                "pitch": 76,
                "velocity": 40,
                "duration": 0.3272727,
                "tempo": 120.0
            },
            {
                "start_time": 33.9295455,
                "end_time": 34.0954545,
                "pitch": 81,
                "velocity": 40,
                "duration": 0.1659091,
                "tempo": 120.0
            },
            {
                "start_time": 34.0954545,
                "end_time": 34.2590909,
                "pitch": 83,
                "velocity": 40,
                "duration": 0.1636364,
                "tempo": 120.0
            },
            {
                "start_time": 34.2590909,
                "end_time": 34.2613636,
                "pitch": 88,
                "velocity": 40,
                "duration": 0.0022727,
                "tempo": 120.0
            },
            {
                "start_time": 34.2613636,
                "end_time": 34.5909091,
                "pitch": 85,
                "velocity": 40,
                "duration": 0.3295455,
                "tempo": 120.0
            },
            {
                "start_time": 34.5909091,
                "end_time": 34.9227273,
                "pitch": 89,
                "velocity": 40,
                "duration": 0.3318182,
                "tempo": 120.0
            },
            {
                "start_time": 34.9227273,
                "end_time": 35.0886364,
                "pitch": 93,
                "velocity": 40,
                "duration": 0.1659091,
                "tempo": 120.0
            },
            {
                "start_time": 35.0886364,
                "end_time": 35.2522727,
                "pitch": 95,
                "velocity": 40,
                "duration": 0.1636364,
                "tempo": 120.0
            },
            {
                "start_time": 35.2522727,
                "end_time": 35.2545455,
                "pitch": 100,
                "velocity": 40,
                "duration": 0.0022727,
                "tempo": 120.0
            },
            {
                "start_time": 35.2545455,
                "end_time": 35.5886364,
                "pitch": 97,
                "velocity": 40,
                "duration": 0.3340909,
                "tempo": 120.0
            },
            {
                "start_time": 35.5886364,
                "end_time": 35.7568182,
                "pitch": 101,
                "velocity": 40,
                "duration": 0.1681818,
                "tempo": 120.0
            },
            {
                "start_time": 35.7568182,
                "end_time": 35.7590909,
                "pitch": 7,
                "velocity": 40,
                "duration": 0.0022727,
                "tempo": 120.0
            },
            {
                "start_time": 35.7590909,
                "end_time": 41.9840909,
                "pitch": 103,
                "velocity": 40,
                "duration": 6.225,
                "tempo": 120.0
            },
            {
                "start_time": 54.475,
                "end_time": 55.1636364,
                "pitch": 76,
                "velocity": 40,
                "duration": 0.6886364,
                "tempo": 120.0
            },
            {
                "start_time": 55.1636364,
                "end_time": 55.3454545,
                "pitch": 74,
                "velocity": 40,
                "duration": 0.1818182,
                "tempo": 120.0
            },
            {
                "start_time": 55.3454545,
                "end_time": 55.4363636,
                "pitch": 72,
                "velocity": 40,
                "duration": 0.0909091,
                "tempo": 120.0
            },
            {
                "start_time": 55.4363636,
                "end_time": 55.8090909,
                "pitch": 71,
                "velocity": 40,
                "duration": 0.3727273,
                "tempo": 120.0
            },
            {
                "start_time": 55.8090909,
                "end_time": 56.2363636,
                "pitch": 69,
                "velocity": 40,
                "duration": 0.4272727,
                "tempo": 120.0
            },
            {
                "start_time": 56.2363636,
                "end_time": 56.6704545,
                "pitch": 66,
                "velocity": 40,
                "duration": 0.4340909,
                "tempo": 120.0
            },
            {
                "start_time": 56.6704545,
                "end_time": 56.85,
                "pitch": 63,
                "velocity": 40,
                "duration": 0.1795455,
                "tempo": 120.0
            },
            {
                "start_time": 56.85,
                "end_time": 57.05,
                "pitch": 61,
                "velocity": 40,
                "duration": 0.2,
                "tempo": 120.0
            },
            {
                "start_time": 57.05,
                "end_time": 57.4090909,
                "pitch": 59,
                "velocity": 40,
                "duration": 0.3590909,
                "tempo": 120.0
            },
            {
                "start_time": 57.4090909,
                "end_time": 57.7659091,
                "pitch": 57,
                "velocity": 40,
                "duration": 0.3568182,
                "tempo": 120.0
            },
            {
                "start_time": 57.7659091,
                "end_time": 58.2886364,
                "pitch": 54,
                "velocity": 40,
                "duration": 0.5227273,
                "tempo": 120.0
            },
            {
                "start_time": 58.2886364,
                "end_time": 58.7045455,
                "pitch": 51,
                "velocity": 40,
                "duration": 0.4159091,
                "tempo": 120.0
            },
            {
                "start_time": 118.7681818,
                "end_time": 119.7045455,
                "pitch": 93,
                "velocity": 40,
                "duration": 0.9363636,
                "tempo": 120.0
            },
            {
                "start_time": 122.6477273,
                "end_time": 123.5863636,
                "pitch": 93,
                "velocity": 40,
                "duration": 0.9386364,
                "tempo": 120.0
            },
            {
                "start_time": 124.575,
                "end_time": 124.9045455,
                "pitch": 100,
                "velocity": 40,
                "duration": 0.3295455,
                "tempo": 120.0
            },
            {
                "start_time": 124.9045455,
                "end_time": 124.9909091,
                "pitch": 98,
                "velocity": 40,
                "duration": 0.0863636,
                "tempo": 120.0
            },
            {
                "start_time": 26.7181818,
                "end_time": 125.0431818,
                "pitch": 80,
                "velocity": 40,
                "duration": 98.325,
                "tempo": 120.0
            },
            {
                "start_time": 124.9909091,
                "end_time": 125.0431818,
                "pitch": 96,
                "velocity": 40,
                "duration": 0.0522727,
                "tempo": 120.0
            },
            {
                "start_time": 125.0431818,
                "end_time": 125.1954545,
                "pitch": 95,
                "velocity": 40,
                "duration": 0.1522727,
                "tempo": 120.0
            },
            {
                "start_time": 125.1954545,
                "end_time": 125.3977273,
                "pitch": 93,
                "velocity": 40,
                "duration": 0.2022727,
                "tempo": 120.0
            },
            {
                "start_time": 28.3454545,
                "end_time": 125.3977273,
                "pitch": 102,
                "velocity": 40,
                "duration": 97.0522727,
                "tempo": 120.0
            },
            {
                "start_time": 31.5454545,
                "end_time": 125.6,
                "pitch": 90,
                "velocity": 40,
                "duration": 94.0545455,
                "tempo": 120.0
            },
            {
                "start_time": 125.3977273,
                "end_time": 125.6,
                "pitch": 90,
                "velocity": 40,
                "duration": 0.2022727,
                "tempo": 120.0
            },
            {
                "start_time": 125.6,
                "end_time": 125.7181818,
                "pitch": 87,
                "velocity": 40,
                "duration": 0.1181818,
                "tempo": 120.0
            },
            {
                "start_time": 29.9909091,
                "end_time": 125.7681818,
                "pitch": 68,
                "velocity": 40,
                "duration": 95.7772727,
                "tempo": 120.0
            },
            {
                "start_time": 125.7181818,
                "end_time": 125.7681818,
                "pitch": 84,
                "velocity": 40,
                "duration": 0.05,
                "tempo": 120.0
            },
            {
                "start_time": 125.7681818,
                "end_time": 125.9181818,
                "pitch": 83,
                "velocity": 40,
                "duration": 0.15,
                "tempo": 120.0
            },
            {
                "start_time": 125.9181818,
                "end_time": 126.0886364,
                "pitch": 81,
                "velocity": 40,
                "duration": 0.1704545,
                "tempo": 120.0
            },
            {
                "start_time": 56.2363636,
                "end_time": 126.3272727,
                "pitch": 78,
                "velocity": 40,
                "duration": 70.0909091,
                "tempo": 120.0
            },
            {
                "start_time": 126.0886364,
                "end_time": 126.3272727,
                "pitch": 78,
                "velocity": 40,
                "duration": 0.2386364,
                "tempo": 120.0
            },
            {
                "start_time": 126.3272727,
                "end_time": 126.5159091,
                "pitch": 75,
                "velocity": 40,
                "duration": 0.1886364,
                "tempo": 120.0
            }
        ],
        "Acoustic Guitar (nylon)": [
            {
                "start_time": 42.0954545,
                "end_time": 42.2681818,
                "pitch": 89,
                "velocity": 40,
                "duration": 0.1727273,
                "tempo": 120.0
            },
            {
                "start_time": 42.3386364,
                "end_time": 42.55,
                "pitch": 93,
                "velocity": 40,
                "duration": 0.2113636,
                "tempo": 120.0
            },
            {
                "start_time": 42.6227273,
                "end_time": 42.7977273,
                "pitch": 95,
                "velocity": 40,
                "duration": 0.175,
                "tempo": 120.0
            },
            {
                "start_time": 42.9045455,
                "end_time": 43.0818182,
                "pitch": 96,
                "velocity": 40,
                "duration": 0.1772727,
                "tempo": 120.0
            },
            {
                "start_time": 43.1522727,
                "end_time": 43.3272727,
                "pitch": 89,
                "velocity": 32,
                "duration": 0.175,
                "tempo": 120.0
            },
            {
                "start_time": 43.4340909,
                "end_time": 43.6113636,
                "pitch": 93,
                "velocity": 32,
                "duration": 0.1772727,
                "tempo": 120.0
            },
            {
                "start_time": 43.6818182,
                "end_time": 43.8931818,
                "pitch": 95,
                "velocity": 32,
                "duration": 0.2113636,
                "tempo": 120.0
            },
            {
                "start_time": 43.9659091,
                "end_time": 44.1409091,
                "pitch": 96,
                "velocity": 32,
                "duration": 0.175,
                "tempo": 120.0
            },
            {
                "start_time": 44.25,
                "end_time": 44.425,
                "pitch": 89,
                "velocity": 32,
                "duration": 0.175,
                "tempo": 120.0
            },
            {
                "start_time": 44.4954545,
                "end_time": 44.6727273,
                "pitch": 93,
                "velocity": 32,
                "duration": 0.1772727,
                "tempo": 120.0
            },
            {
                "start_time": 44.7795455,
                "end_time": 44.9545455,
                "pitch": 95,
                "velocity": 32,
                "duration": 0.175,
                "tempo": 120.0
            },
            {
                "start_time": 45.0613636,
                "end_time": 45.2386364,
                "pitch": 96,
                "velocity": 32,
                "duration": 0.1772727,
                "tempo": 120.0
            },
            {
                "start_time": 45.3090909,
                "end_time": 45.4840909,
                "pitch": 89,
                "velocity": 25,
                "duration": 0.175,
                "tempo": 120.0
            },
            {
                "start_time": 45.5909091,
                "end_time": 45.7681818,
                "pitch": 93,
                "velocity": 25,
                "duration": 0.1772727,
                "tempo": 120.0
            },
            {
                "start_time": 45.8386364,
                "end_time": 46.0159091,
                "pitch": 95,
                "velocity": 25,
                "duration": 0.1772727,
                "tempo": 120.0
            },
            {
                "start_time": 46.1227273,
                "end_time": 46.2977273,
                "pitch": 96,
                "velocity": 25,
                "duration": 0.175,
                "tempo": 120.0
            },
            {
                "start_time": 46.4090909,
                "end_time": 46.5818182,
                "pitch": 89,
                "velocity": 25,
                "duration": 0.1727273,
                "tempo": 120.0
            },
            {
                "start_time": 46.6522727,
                "end_time": 46.8272727,
                "pitch": 93,
                "velocity": 25,
                "duration": 0.175,
                "tempo": 120.0
            },
            {
                "start_time": 46.9340909,
                "end_time": 47.1113636,
                "pitch": 95,
                "velocity": 25,
                "duration": 0.1772727,
                "tempo": 120.0
            },
            {
                "start_time": 47.1818182,
                "end_time": 47.3590909,
                "pitch": 96,
                "velocity": 25,
                "duration": 0.1772727,
                "tempo": 120.0
            },
            {
                "start_time": 47.4659091,
                "end_time": 47.6409091,
                "pitch": 89,
                "velocity": 20,
                "duration": 0.175,
                "tempo": 120.0
            },
            {
                "start_time": 47.7477273,
                "end_time": 47.8840909,
                "pitch": 93,
                "velocity": 20,
                "duration": 0.1363636,
                "tempo": 120.0
            },
            {
                "start_time": 47.9318182,
                "end_time": 48.05,
                "pitch": 95,
                "velocity": 20,
                "duration": 0.1181818,
                "tempo": 120.0
            },
            {
                "start_time": 48.1204545,
                "end_time": 48.2363636,
                "pitch": 96,
                "velocity": 20,
                "duration": 0.1159091,
                "tempo": 120.0
            },
            {
                "start_time": 48.2840909,
                "end_time": 48.4,
                "pitch": 89,
                "velocity": 20,
                "duration": 0.1159091,
                "tempo": 120.0
            },
            {
                "start_time": 48.4704545,
                "end_time": 48.5886364,
                "pitch": 93,
                "velocity": 20,
                "duration": 0.1181818,
                "tempo": 120.0
            },
            {
                "start_time": 48.6590909,
                "end_time": 48.775,
                "pitch": 95,
                "velocity": 20,
                "duration": 0.1159091,
                "tempo": 120.0
            },
            {
                "start_time": 48.825,
                "end_time": 48.9454545,
                "pitch": 96,
                "velocity": 20,
                "duration": 0.1204545,
                "tempo": 120.0
            },
            {
                "start_time": 49.0204545,
                "end_time": 49.1431818,
                "pitch": 89,
                "velocity": 16,
                "duration": 0.1227273,
                "tempo": 120.0
            },
            {
                "start_time": 49.1931818,
                "end_time": 49.3136364,
                "pitch": 93,
                "velocity": 16,
                "duration": 0.1204545,
                "tempo": 120.0
            },
            {
                "start_time": 49.3886364,
                "end_time": 49.5113636,
                "pitch": 95,
                "velocity": 16,
                "duration": 0.1227273,
                "tempo": 120.0
            },
            {
                "start_time": 49.5840909,
                "end_time": 49.7068182,
                "pitch": 96,
                "velocity": 16,
                "duration": 0.1227273,
                "tempo": 120.0
            }
        ],
        "Lead 2 (sawtooth)": [
            {
                "start_time": 49.7590909,
                "end_time": 49.875,
                "pitch": 26,
                "velocity": 25,
                "duration": 0.1159091,
                "tempo": 120.0
            },
            {
                "start_time": 49.9454545,
                "end_time": 50.0613636,
                "pitch": 26,
                "velocity": 25,
                "duration": 0.1159091,
                "tempo": 120.0
            },
            {
                "start_time": 50.1090909,
                "end_time": 50.225,
                "pitch": 26,
                "velocity": 32,
                "duration": 0.1159091,
                "tempo": 120.0
            },
            {
                "start_time": 50.2977273,
                "end_time": 50.6,
                "pitch": 26,
                "velocity": 40,
                "duration": 0.3022727,
                "tempo": 120.0
            },
            {
                "start_time": 50.6477273,
                "end_time": 50.9409091,
                "pitch": 26,
                "velocity": 51,
                "duration": 0.2931818,
                "tempo": 120.0
            },
            {
                "start_time": 50.9863636,
                "end_time": 51.0977273,
                "pitch": 26,
                "velocity": 64,
                "duration": 0.1113636,
                "tempo": 120.0
            },
            {
                "start_time": 51.1659091,
                "end_time": 51.2772727,
                "pitch": 26,
                "velocity": 64,
                "duration": 0.1113636,
                "tempo": 120.0
            },
            {
                "start_time": 51.3454545,
                "end_time": 51.4363636,
                "pitch": 26,
                "velocity": 80,
                "duration": 0.0909091,
                "tempo": 120.0
            },
            {
                "start_time": 51.4727273,
                "end_time": 51.5613636,
                "pitch": 26,
                "velocity": 80,
                "duration": 0.0886364,
                "tempo": 120.0
            },
            {
                "start_time": 51.6159091,
                "end_time": 51.8454545,
                "pitch": 26,
                "velocity": 101,
                "duration": 0.2295455,
                "tempo": 120.0
            },
            {
                "start_time": 51.8818182,
                "end_time": 52.1136364,
                "pitch": 26,
                "velocity": 127,
                "duration": 0.2318182,
                "tempo": 120.0
            },
            {
                "start_time": 52.15,
                "end_time": 52.2386364,
                "pitch": 26,
                "velocity": 101,
                "duration": 0.0886364,
                "tempo": 120.0
            },
            {
                "start_time": 52.2931818,
                "end_time": 52.3818182,
                "pitch": 26,
                "velocity": 101,
                "duration": 0.0886364,
                "tempo": 120.0
            },
            {
                "start_time": 52.4181818,
                "end_time": 52.525,
                "pitch": 26,
                "velocity": 101,
                "duration": 0.1068182,
                "tempo": 120.0
            },
            {
                "start_time": 52.5590909,
                "end_time": 52.6477273,
                "pitch": 26,
                "velocity": 101,
                "duration": 0.0886364,
                "tempo": 120.0
            },
            {
                "start_time": 52.7022727,
                "end_time": 52.9159091,
                "pitch": 26,
                "velocity": 80,
                "duration": 0.2136364,
                "tempo": 120.0
            },
            {
                "start_time": 52.9704545,
                "end_time": 53.1954545,
                "pitch": 26,
                "velocity": 80,
                "duration": 0.225,
                "tempo": 120.0
            },
            {
                "start_time": 53.2318182,
                "end_time": 53.3181818,
                "pitch": 26,
                "velocity": 80,
                "duration": 0.0863636,
                "tempo": 120.0
            },
            {
                "start_time": 53.3704545,
                "end_time": 53.4568182,
                "pitch": 26,
                "velocity": 64,
                "duration": 0.0863636,
                "tempo": 120.0
            },
            {
                "start_time": 53.4909091,
                "end_time": 53.5795455,
                "pitch": 26,
                "velocity": 64,
                "duration": 0.0886364,
                "tempo": 120.0
            },
            {
                "start_time": 53.6340909,
                "end_time": 53.7227273,
                "pitch": 26,
                "velocity": 64,
                "duration": 0.0886364,
                "tempo": 120.0
            },
            {
                "start_time": 53.7590909,
                "end_time": 53.9909091,
                "pitch": 26,
                "velocity": 51,
                "duration": 0.2318182,
                "tempo": 120.0
            },
            {
                "start_time": 54.0431818,
                "end_time": 54.2659091,
                "pitch": 26,
                "velocity": 51,
                "duration": 0.2227273,
                "tempo": 120.0
            },
            {
                "start_time": 54.3227273,
                "end_time": 54.4159091,
                "pitch": 26,
                "velocity": 40,
                "duration": 0.0931818,
                "tempo": 120.0
            },
            {
                "start_time": 58.7613636,
                "end_time": 60.6386364,
                "pitch": 24,
                "velocity": 80,
                "duration": 1.8772727,
                "tempo": 120.0
            }
        ]
    }
}