{
    "mood": "angry",
    "instruments": {
        "Acoustic Grand Piano": [
            {
                "start_time": 0.0204545,
                "end_time": 0.2681818,
                "pitch": 50,
                "velocity": 64,
                "duration": 0.2477273,
                "tempo": 120.0
            },
            {
                "start_time": 0.2704545,
                "end_time": 0.5181818,
                "pitch": 53,
                "velocity": 64,
                "duration": 0.2477273,
                "tempo": 120.0
            },
            {
                "start_time": 0.5204545,
                "end_time": 0.7545455,
                "pitch": 55,
                "velocity": 64,
                "duration": 0.2340909,
                "tempo": 120.0
            },
            {
                "start_time": 0.7568182,
                "end_time": 5.1272727,
                "pitch": 58,
                "velocity": 64,
                "duration": 4.3704545,
                "tempo": 120.0
            },
            {
                "start_time": 5.1295455,
                "end_time": 5.6204545,
                "pitch": 48,
                "velocity": 64,
                "duration": 0.4909091,
                "tempo": 120.0
            },
            {
                "start_time": 5.6227273,
                "end_time": 6.1159091,
                "pitch": 51,
                "velocity": 64,
                "duration": 0.4931818,
                "tempo": 120.0
            },
            {
                "start_time": 6.1181818,
                "end_time": 10.9522727,
                "pitch": 55,
                "velocity": 64,
                "duration": 4.8340909,
                "tempo": 120.0
            },
            {
                "start_time": 10.9545455,
                "end_time": 11.4522727,
                "pitch": 50,
                "velocity": 64,
                "duration": 0.4977273,
                "tempo": 120.0
            },
            {
                "start_time": 11.4545455,
                "end_time": 11.9545455,
                "pitch": 53,
                "velocity": 64,
                "duration": 0.5,
                "tempo": 120.0
            },
            {
                "start_time": 11.9568182,
                "end_time": 12.4204545,
                "pitch": 55,
                "velocity": 64,
                "duration": 0.4636364,
                "tempo": 120.0
            },
            {
                "start_time": 12.425,
                "end_time": 16.7954545,
                "pitch": 58,
                "velocity": 64,
                "duration": 4.3704545,
                "tempo": 120.0
            },
            {
                "start_time": 16.7977273,
                "end_time": 17.2954545,
                "pitch": 48,
                "velocity": 64,
                "duration": 0.4977273,
                "tempo": 120.0
            },
            {
                "start_time": 17.2977273,
                "end_time": 17.7954545,
                "pitch": 51,
                "velocity": 64,
                "duration": 0.4977273,
                "tempo": 120.0
            },
            {
                "start_time": 17.7977273,
                "end_time": 22.6386364,
                "pitch": 55,
                "velocity": 64,
                "duration": 4.8409091,
                "tempo": 120.0
            },
            {
                "start_time": 22.6409091,
                "end_time": 23.1318182,
                "pitch": 57,
                "velocity": 64,
                "duration": 0.4909091,
                "tempo": 120.0
            },
            {
                "start_time": 23.1340909,
                "end_time": 23.6272727,
                "pitch": 60,
                "velocity": 64,
                "duration": 0.4931818,
                "tempo": 120.0
            },
            {
                "start_time": 23.6295455,
                "end_time": 24.0886364,
                "pitch": 62,
                "velocity": 64,
                "duration": 0.4590909,
                "tempo": 120.0
            },
            {
                "start_time": 24.0931818,
                "end_time": 28.4818182,
                "pitch": 65,
                "velocity": 64,
                "duration": 4.3886364,
                "tempo": 120.0
            },
            {
                "start_time": 28.4840909,
                "end_time": 28.975,
                "pitch": 55,
                "velocity": 64,
                "duration": 0.4909091,
                "tempo": 120.0
            },
            {
                "start_time": 28.9772727,
                "end_time": 29.4704545,
                "pitch": 58,
                "velocity": 64,
                "duration": 0.4931818,
                "tempo": 120.0
            },
            {
                "start_time": 29.4727273,
                "end_time": 34.3068182,
                "pitch": 62,
                "velocity": 64,
                "duration": 4.8340909,
                "tempo": 120.0
            },
            {
                "start_time": 34.3090909,
                "end_time": 34.8068182,
                "pitch": 57,
                "velocity": 64,
                "duration": 0.4977273,
                "tempo": 120.0
            },
            {
                "start_time": 34.8090909,
                "end_time": 35.3068182,
                "pitch": 60,
                "velocity": 64,
                "duration": 0.4977273,
                "tempo": 120.0
            },
            {
                "start_time": 35.3090909,
                "end_time": 35.775,
                "pitch": 62,
                "velocity": 64,
                "duration": 0.4659091,
                "tempo": 120.0
            },
            {
                "start_time": 35.7772727,
                "end_time": 40.15,
                "pitch": 65,
                "velocity": 64,
                "duration": 4.3727273,
                "tempo": 120.0
            },
            {
                "start_time": 40.1522727,
                "end_time": 40.6431818,
                "pitch": 55,
                "velocity": 64,
                "duration": 0.4909091,
                "tempo": 120.0
            },
            {
                "start_time": 40.6454545,
                "end_time": 41.1386364,
                "pitch": 58,
                "velocity": 64,
                "duration": 0.4931818,
                "tempo": 120.0
            },
            {
                "start_time": 41.1409091,
                "end_time": 45.9931818,
                "pitch": 62,
                "velocity": 64,
                "duration": 4.8522727,
                "tempo": 120.0
            },
            {
                "start_time": 45.9954545,
                "end_time": 46.4863636,
                "pitch": 50,
                "velocity": 64,
                "duration": 0.4909091,
                "tempo": 120.0
            },
            {
                "start_time": 46.4886364,
                "end_time": 46.9818182,
                "pitch": 53,
                "velocity": 64,
                "duration": 0.4931818,
                "tempo": 120.0
            },
            {
                "start_time": 46.9840909,
                "end_time": 47.4431818,
                "pitch": 55,
                "velocity": 64,
                "duration": 0.4590909,
                "tempo": 120.0
            },
            {
                "start_time": 47.4454545,
                "end_time": 51.8181818,
                "pitch": 58,
                "velocity": 64,
                "duration": 4.3727273,
                "tempo": 120.0
            },
            {
                "start_time": 51.8204545,
                "end_time": 52.3181818,
                "pitch": 48,
                "velocity": 64,
                "duration": 0.4977273,
                "tempo": 120.0
            },
            {
                "start_time": 52.3204545,
                "end_time": 52.8181818,
                "pitch": 51,
                "velocity": 64,
                "duration": 0.4977273,
                "tempo": 120.0
            },
            {
                "start_time": 52.8204545,
                "end_time": 57.6613636,
                "pitch": 55,
                "velocity": 64,
                "duration": 4.8409091,
                "tempo": 120.0
            },
            {
                "start_time": 57.6636364,
                "end_time": 58.1613636,
                "pitch": 50,
                "velocity": 64,
                "duration": 0.4977273,
                "tempo": 120.0
            },
            {
                "start_time": 58.1636364,
                "end_time": 58.6613636,
                "pitch": 53,
                "velocity": 64,
                "duration": 0.4977273,
                "tempo": 120.0
            },
            {
                "start_time": 58.6636364,
                "end_time": 59.1295455,
                "pitch": 55,
                "velocity": 64,
                "duration": 0.4659091,
                "tempo": 120.0
            },
            {
                "start_time": 59.1318182,
                "end_time": 63.5022727,
                "pitch": 58,
                "velocity": 64,
                "duration": 4.3704545,
                "tempo": 120.0
            },
            {
                "start_time": 63.5068182,
                "end_time": 63.9977273,
                "pitch": 48,
                "velocity": 64,
                "duration": 0.4909091,
                "tempo": 120.0
            },
            {
                "start_time": 64.0,
                "end_time": 64.4931818,
                "pitch": 51,
                "velocity": 64,
                "duration": 0.4931818,
                "tempo": 120.0
            },
            {
                "start_time": 64.4954545,
                "end_time": 69.3454545,
                "pitch": 55,
                "velocity": 64,
                "duration": 4.85,
                "tempo": 120.0
            },
            {
                "start_time": 69.35,
                "end_time": 69.8409091,
                "pitch": 57,
                "velocity": 64,
                "duration": 0.4909091,
                "tempo": 120.0
            },
            {
                "start_time": 69.8431818,
                "end_time": 70.3363636,
                "pitch": 60,
                "velocity": 64,
                "duration": 0.4931818,
                "tempo": 120.0
            },
            {
                "start_time": 70.3386364,
                "end_time": 70.7977273,
                "pitch": 62,
                "velocity": 64,
                "duration": 0.4590909,
                "tempo": 120.0
            },
            {
                "start_time": 70.8,
                "end_time": 75.1704545,
                "pitch": 65,
                "velocity": 64,
                "duration": 4.3704545,
                "tempo": 120.0
            },
            {
                "start_time": 75.175,
                "end_time": 75.6727273,
                "pitch": 55,
                "velocity": 64,
                "duration": 0.4977273,
                "tempo": 120.0
            },
            {
                "start_time": 75.675,
                "end_time": 76.1727273,
                "pitch": 58,
                "velocity": 64,
                "duration": 0.4977273,
                "tempo": 120.0
            },
            {
                "start_time": 76.175,
                "end_time": 81.0136364,
                "pitch": 62,
                "velocity": 64,
                "duration": 4.8386364,
                "tempo": 120.0
            },
            {
                "start_time": 81.0181818,
                "end_time": 81.5090909,
                "pitch": 57,
                "velocity": 64,
                "duration": 0.4909091,
                "tempo": 120.0
            },
            {
                "start_time": 81.5113636,
                "end_time": 82.0045455,
                "pitch": 60,
                "velocity": 64,
                "duration": 0.4931818,
                "tempo": 120.0
            },
            {
                "start_time": 82.0068182,
                "end_time": 82.4659091,
                "pitch": 62,
                "velocity": 64,
                "duration": 0.4590909,
                "tempo": 120.0
            },
            {
                "start_time": 82.4681818,
                "end_time": 86.8568182,
                "pitch": 65,
                "velocity": 64,
                "duration": 4.3886364,
                "tempo": 120.0
            },
            {
                "start_time": 86.8590909,
                "end_time": 87.3522727,
                "pitch": 55,
                "velocity": 64,
                "duration": 0.4931818,
                "tempo": 120.0
            },
            {
                "start_time": 87.3545455,
                "end_time": 87.8454545,
                "pitch": 58,
                "velocity": 64,
                "duration": 0.4909091,
                "tempo": 120.0
            },
            {
                "start_time": 87.85,
                "end_time": 92.6818182,
                "pitch": 62,
                "velocity": 64,
                "duration": 4.8318182,
                "tempo": 120.0
            },
            {
                "start_time": 92.6863636,
                "end_time": 93.1818182,
                "pitch": 50,
                "velocity": 64,
                "duration": 0.4954545,
                "tempo": 120.0
            },
            {
                "start_time": 93.1863636,
                "end_time": 93.6840909,
                "pitch": 53,
                "velocity": 64,
                "duration": 0.4977273,
                "tempo": 120.0
            },
            {
                "start_time": 93.6863636,
                "end_time": 94.1522727,
                "pitch": 55,
                "velocity": 64,
                "duration": 0.4659091,
                "tempo": 120.0
            },
            {
                "start_time": 94.1545455,
                "end_time": 98.525,
                "pitch": 58,
                "velocity": 64,
                "duration": 4.3704545,
                "tempo": 120.0
            },
            {
                "start_time": 98.5272727,
                "end_time": 99.025,
                "pitch": 48,
                "velocity": 64,
                "duration": 0.4977273,
                "tempo": 120.0
            },
            {
                "start_time": 99.0272727,
                "end_time": 99.5272727,
                "pitch": 51,
                "velocity": 64,
                "duration": 0.5,
                "tempo": 120.0
            },
            {
                "start_time": 99.5295455,
                "end_time": 104.3681818,
                "pitch": 55,
                "velocity": 64,
                "duration": 4.8386364,
                "tempo": 120.0
            },
            {
                "start_time": 104.3704545,
                "end_time": 104.8636364,
                "pitch": 50,
                "velocity": 64,
                "duration": 0.4931818,
                "tempo": 120.0
            },
            {
                "start_time": 104.8659091,
                "end_time": 105.3568182,
                "pitch": 53,
                "velocity": 64,
                "duration": 0.4909091,
                "tempo": 120.0
            },
            {
                "start_time": 105.3590909,
                "end_time": 105.8204545,
                "pitch": 55,
                "velocity": 64,
                "duration": 0.4613636,
                "tempo": 120.0
            },
            {
                "start_time": 105.8227273,
                "end_time": 110.2113636,
                "pitch": 58,
                "velocity": 64,
                "duration": 4.3886364,
                "tempo": 120.0
            },
            {
                "start_time": 110.2136364,
                "end_time": 110.7045455,
                "pitch": 48,
                "velocity": 64,
                "duration": 0.4909091,
                "tempo": 120.0
            },
            {
                "start_time": 110.7090909,
                "end_time": 111.2,
                "pitch": 51,
                "velocity": 64,
                "duration": 0.4909091,
                "tempo": 120.0
            },
            {
                "start_time": 111.2022727,
                "end_time": 116.0363636,
                "pitch": 55,
                "velocity": 64,
                "duration": 4.8340909,
                "tempo": 120.0
            },
            {
                "start_time": 116.0386364,
                "end_time": 116.5363636,
                "pitch": 57,
                "velocity": 64,
                "duration": 0.4977273,
                "tempo": 120.0
            },
            {
                "start_time": 116.5386364,
                "end_time": 117.0386364,
                "pitch": 60,
                "velocity": 64,
                "duration": 0.5,
                "tempo": 120.0
            },
            {
                "start_time": 117.0409091,
                "end_time": 117.5068182,
                "pitch": 62,
                "velocity": 64,
                "duration": 0.4659091,
                "tempo": 120.0
            },
            {
                "start_time": 117.5090909,
                "end_time": 121.8795455,
                "pitch": 65,
                "velocity": 64,
                "duration": 4.3704545,
                "tempo": 120.0
            },
            {
                "start_time": 121.8818182,
                "end_time": 122.3795455,
                "pitch": 55,
                "velocity": 64,
                "duration": 0.4977273,
                "tempo": 120.0
            },
            {
                "start_time": 122.3818182,
                "end_time": 122.8818182,
                "pitch": 58,
                "velocity": 64,
                "duration": 0.5,
                "tempo": 120.0
            },
            {
                "start_time": 122.8840909,
                "end_time": 127.7227273,
                "pitch": 62,
                "velocity": 64,
                "duration": 4.8386364,
                "tempo": 120.0
            },
            {
                "start_time": 127.725,
                "end_time": 128.2159091,
                "pitch": 57,
                "velocity": 64,
                "duration": 0.4909091,
                "tempo": 120.0
            },
            {
                "start_time": 128.2204545,
                "end_time": 128.7113636,
                "pitch": 60,
                "velocity": 64,
                "duration": 0.4909091,
                "tempo": 120.0
            },
            {
                "start_time": 128.7136364,
                "end_time": 129.175,
                "pitch": 62,
                "velocity": 64,
                "duration": 0.4613636,
                "tempo": 120.0
            },
            {
                "start_time": 129.1772727,
                "end_time": 133.5477273,
                "pitch": 65,
                "velocity": 64,
                "duration": 4.3704545,
                "tempo": 120.0
            },
            {
                "start_time": 133.55,
                "end_time": 135.0181818,
                "pitch": 67,
                "velocity": 80,
                "duration": 1.4681818,
                "tempo": 120.0
            },
            {
                "start_time": 135.0181818,
                "end_time": 136.4704545,
                "pitch": 70,
                "velocity": 80,
                "duration": 1.4522727,
                "tempo": 120.0
            },
            {
                "start_time": 136.4704545,
                "end_time": 137.9386364,
                "pitch": 69,
                "velocity": 80,
                "duration": 1.4681818,
                "tempo": 120.0
            },
            {
                "start_time": 137.9409091,
                "end_time": 139.3909091,
                "pitch": 65,
                "velocity": 80,
                "duration": 1.45,
                "tempo": 120.0
            },
            {
                "start_time": 139.3931818,
                "end_time": 145.2340909,
                "pitch": 67,
                "velocity": 80,
                "duration": 5.8409091,
                "tempo": 120.0
            }
        ],
        "Harpsichord": [
            {
                "start_time": 92.6931818,
                "end_time": 97.0772727,
                "pitch": 67,
                "velocity": 80,
                "duration": 4.3840909,
                "tempo": 120.0
            },
            {
                "start_time": 97.0795455,
                "end_time": 98.5318182,
                "pitch": 70,
                "velocity": 80,
                "duration": 1.4522727,
                "tempo": 120.0
            },
            {
                "start_time": 98.5340909,
                "end_time": 104.375,
                "pitch": 63,
                "velocity": 80,
                "duration": 5.8409091,
                "tempo": 120.0
            },
            {
                "start_time": 104.3772727,
                "end_time": 108.7454545,
                "pitch": 67,
                "velocity": 80,
                "duration": 4.3681818,
                "tempo": 120.0
            },
            {
                "start_time": 108.7477273,
                "end_time": 110.2181818,
                "pitch": 74,
                "velocity": 80,
                "duration": 1.4704545,
                "tempo": 120.0
            },
            {
                "start_time": 110.2204545,
                "end_time": 116.0431818,
                "pitch": 70,
                "velocity": 80,
                "duration": 5.8227273,
                "tempo": 120.0
            },
            {
                "start_time": 116.0454545,
                "end_time": 120.4318182,
                "pitch": 72,
                "velocity": 80,
                "duration": 4.3863636,
                "tempo": 120.0
            },
            {
                "start_time": 120.4340909,
                "end_time": 121.1545455,
                "pitch": 70,
                "velocity": 80,
                "duration": 0.7204545,
                "tempo": 120.0
            },
            {
                "start_time": 121.1568182,
                "end_time": 121.8863636,
                "pitch": 69,
                "velocity": 80,
                "duration": 0.7295455,
                "tempo": 120.0
            },
            {
                "start_time": 121.8886364,
                "end_time": 122.2477273,
                "pitch": 70,
                "velocity": 80,
                "duration": 0.3590909,
                "tempo": 120.0
            },
            {
                "start_time": 122.25,
                "end_time": 122.6159091,
                "pitch": 69,
                "velocity": 80,
                "duration": 0.3659091,
                "tempo": 120.0
            },
            {
                "start_time": 122.6181818,
                "end_time": 126.2545455,
                "pitch": 67,
                "velocity": 80,
                "duration": 3.6363636,
                "tempo": 120.0
            },
            {
                "start_time": 126.2568182,
                "end_time": 126.9886364,
                "pitch": 69,
                "velocity": 80,
                "duration": 0.7318182,
                "tempo": 120.0
            },
            {
                "start_time": 126.9909091,
                "end_time": 127.7295455,
                "pitch": 70,
                "velocity": 80,
                "duration": 0.7386364,
                "tempo": 120.0
            },
            {
                "start_time": 127.7318182,
                "end_time": 130.6522727,
                "pitch": 69,
                "velocity": 64,
                "duration": 2.9204545,
                "tempo": 120.0
            },
            {
                "start_time": 130.6545455,
                "end_time": 133.5568182,
                "pitch": 65,
                "velocity": 40,
                "duration": 2.9022727,
                "tempo": 120.0
            }
        ],
        "Acoustic Bass": [
            {
                "start_time": 149.2409091,
                "end_time": 149.4159091,
                "pitch": 43,
                "velocity": 101,
                "duration": 0.175,
                "tempo": 120.0
            },
            {
                "start_time": 149.4181818,
                "end_time": 149.5954545,
                "pitch": 43,
                "velocity": 101,
                "duration": 0.1772727,
                "tempo": 120.0
            },
            {
                "start_time": 149.5977273,
                "end_time": 149.7795455,
                "pitch": 43,
                "velocity": 101,
                "duration": 0.1818182,
                "tempo": 120.0
            },
            {
                "start_time": 149.7818182,
                "end_time": 149.9636364,
                "pitch": 43,
                "velocity": 101,
                "duration": 0.1818182,
                "tempo": 120.0
            },
            {
                "start_time": 149.9659091,
                "end_time": 150.1477273,
                "pitch": 43,
                "velocity": 101,
                "duration": 0.1818182,
                "tempo": 120.0
            },
            {
                "start_time": 150.1477273,
                "end_time": 150.3318182,
                "pitch": 43,
                "velocity": 101,
                "duration": 0.1840909,
                "tempo": 120.0
            },
            {
                "start_time": 150.3318182,
                "end_time": 150.5090909,
                "pitch": 43,
                "velocity": 101,
                "duration": 0.1772727,
                "tempo": 120.0
            },
            {
                "start_time": 150.5113636,
                "end_time": 150.6909091,
                "pitch": 43,
                "velocity": 101,
                "duration": 0.1795455,
                "tempo": 120.0
            },
            {
                "start_time": 150.6931818,
                "end_time": 150.8727273,
                "pitch": 43,
                "velocity": 101,
                "duration": 0.1795455,
                "tempo": 120.0
            },
            {
                "start_time": 150.875,
                "end_time": 151.0568182,
                "pitch": 43,
                "velocity": 101,
                "duration": 0.1818182,
                "tempo": 120.0
            },
            {
                "start_time": 151.0590909,
                "end_time": 151.2409091,
                "pitch": 43,
                "velocity": 101,
                "duration": 0.1818182,
                "tempo": 120.0
            },
            {
                "start_time": 151.2431818,
                "end_time": 151.425,
                "pitch": 43,
                "velocity": 101,
                "duration": 0.1818182,
                "tempo": 120.0
            },
            {
                "start_time": 151.425,
                "end_time": 151.6045455,
                "pitch": 43,
                "velocity": 101,
                "duration": 0.1795455,
                "tempo": 120.0
            },
            {
                "start_time": 151.6045455,
                "end_time": 151.7818182,
                "pitch": 43,
                "velocity": 101,
                "duration": 0.1772727,
                "tempo": 120.0
            },
            {
                "start_time": 151.7840909,
                "end_time": 151.9727273,
                "pitch": 43,
                "velocity": 101,
                "duration": 0.1886364,
                "tempo": 120.0
            },
            {
                "start_time": 151.9727273,
                "end_time": 152.1613636,
                "pitch": 43,
                "velocity": 101,
                "duration": 0.1886364,
                "tempo": 120.0
            },
            {
                "start_time": 152.1636364,
                "end_time": 152.3409091,
                "pitch": 41,
                "velocity": 101,
                "duration": 0.1772727,
                "tempo": 120.0
            },
            {
                "start_time": 152.3431818,
                "end_time": 152.5204545,
                "pitch": 41,
                "velocity": 101,
                "duration": 0.1772727,
                "tempo": 120.0
            },
            {
                "start_time": 152.5227273,
                "end_time": 152.7045455,
                "pitch": 41,
                "velocity": 101,
                "duration": 0.1818182,
                "tempo": 120.0
            },
            {
                "start_time": 152.7045455,
                "end_time": 152.8863636,
                "pitch": 41,
                "velocity": 101,
                "duration": 0.1818182,
                "tempo": 120.0
            },
            {
                "start_time": 152.8886364,
                "end_time": 153.0659091,
                "pitch": 41,
                "velocity": 101,
                "duration": 0.1772727,
                "tempo": 120.0
            },
            {
                "start_time": 153.0681818,
                "end_time": 153.2454545,
                "pitch": 41,
                "velocity": 101,
                "duration": 0.1772727,
                "tempo": 120.0
            },
            {
                "start_time": 153.2477273,
                "end_time": 153.4295455,
                "pitch": 41,
                "velocity": 101,
                "duration": 0.1818182,
                "tempo": 120.0
            },
            {
                "start_time": 153.4318182,
                "end_time": 153.6136364,
                "pitch": 41,
                "velocity": 101,
                "duration": 0.1818182,
                "tempo": 120.0
            },
            {
                "start_time": 153.6159091,
                "end_time": 153.7977273,
                "pitch": 41,
                "velocity": 101,
                "duration": 0.1818182,
                "tempo": 120.0
            },
            {
                "start_time": 153.7977273,
                "end_time": 153.9818182,
                "pitch": 41,
                "velocity": 101,
                "duration": 0.1840909,
                "tempo": 120.0
            },
            {
                "start_time": 153.9818182,
                "end_time": 154.1636364,
                "pitch": 41,
                "velocity": 101,
                "duration": 0.1818182,
                "tempo": 120.0
            },
            {
                "start_time": 154.1659091,
                "end_time": 154.3477273,
                "pitch": 41,
                "velocity": 101,
                "duration": 0.1818182,
                "tempo": 120.0
            },
            {
                "start_time": 154.35,
                "end_time": 154.5272727,
                "pitch": 41,
                "velocity": 101,
                "duration": 0.1772727,
                "tempo": 120.0
            },
            {
                "start_time": 154.5295455,
                "end_time": 154.7068182,
                "pitch": 41,
                "velocity": 101,
                "duration": 0.1772727,
                "tempo": 120.0
            },
            {
                "start_time": 154.7090909,
                "end_time": 154.8909091,
                "pitch": 41,
                "velocity": 101,
                "duration": 0.1818182,
                "tempo": 120.0
            },
            {
                "start_time": 154.8931818,
                "end_time": 155.075,
                "pitch": 41,
                "velocity": 101,
                "duration": 0.1818182,
                "tempo": 120.0
            },
            {
                "start_time": 155.0772727,
                "end_time": 155.2568182,
                "pitch": 39,
                "velocity": 101,
                "duration": 0.1795455,
                "tempo": 120.0
            },
            {
                "start_time": 155.2590909,
                "end_time": 155.4409091,
                "pitch": 39,
                "velocity": 101,
                "duration": 0.1818182,
                "tempo": 120.0
            },
            {
                "start_time": 155.4431818,
                "end_time": 155.6204545,
                "pitch": 39,
                "velocity": 101,
                "duration": 0.1772727,
                "tempo": 120.0
            },
            {
                "start_time": 155.6227273,
                "end_time": 155.8,
                "pitch": 39,
                "velocity": 101,
                "duration": 0.1772727,
                "tempo": 120.0
            },
            {
                "start_time": 155.8022727,
                "end_time": 155.9840909,
                "pitch": 39,
                "velocity": 101,
                "duration": 0.1818182,
                "tempo": 120.0
            },
            {
                "start_time": 155.9863636,
                "end_time": 156.1681818,
                "pitch": 39,
                "velocity": 101,
                "duration": 0.1818182,
                "tempo": 120.0
            },
            {
                "start_time": 156.1704545,
                "end_time": 156.3522727,
                "pitch": 39,
                "velocity": 101,
                "duration": 0.1818182,
                "tempo": 120.0
            },
            {
                "start_time": 156.3522727,
                "end_time": 156.5363636,
                "pitch": 39,
                "velocity": 101,
                "duration": 0.1840909,
                "tempo": 120.0
            },
            {
                "start_time": 156.5363636,
                "end_time": 156.7136364,
                "pitch": 39,
                "velocity": 101,
                "duration": 0.1772727,
                "tempo": 120.0
            },
            {
                "start_time": 156.7159091,
                "end_time": 156.8931818,
                "pitch": 39,
                "velocity": 101,
                "duration": 0.1772727,
                "tempo": 120.0
            },
            {
                "start_time": 156.8954545,
                "end_time": 157.0772727,
                "pitch": 39,
                "velocity": 101,
                "duration": 0.1818182,
                "tempo": 120.0
            },
            {
                "start_time": 157.0795455,
                "end_time": 157.2613636,
                "pitch": 39,
                "velocity": 101,
                "duration": 0.1818182,
                "tempo": 120.0
            },
            {
                "start_time": 157.2636364,
                "end_time": 157.4454545,
                "pitch": 39,
                "velocity": 101,
                "duration": 0.1818182,
                "tempo": 120.0
            },
            {
                "start_time": 157.4477273,
                "end_time": 157.6272727,
                "pitch": 39,
                "velocity": 101,
                "duration": 0.1795455,
                "tempo": 120.0
            },
            {
                "start_time": 157.6295455,
                "end_time": 157.8136364,
                "pitch": 39,
                "velocity": 101,
                "duration": 0.1840909,
                "tempo": 120.0
            },
            {
                "start_time": 157.8136364,
                "end_time": 157.9954545,
                "pitch": 39,
                "velocity": 101,
                "duration": 0.1818182,
                "tempo": 120.0
            },
            {
                "start_time": 157.9977273,
                "end_time": 158.5386364,
                "pitch": 43,
                "velocity": 101,
                "duration": 0.5409091,
                "tempo": 120.0
            },
            {
                "start_time": 158.5386364,
                "end_time": 158.5886364,
                "pitch": 43,
                "velocity": 101,
                "duration": 0.05,
                "tempo": 120.0
            },
            {
                "start_time": 158.5886364,
                "end_time": 158.7068182,
                "pitch": 43,
                "velocity": 101,
                "duration": 0.1181818,
                "tempo": 120.0
            },
            {
                "start_time": 158.5386364,
                "end_time": 158.7068182,
                "pitch": 55,
                "velocity": 101,
                "duration": 0.1681818,
                "tempo": 120.0
            },
            {
                "start_time": 158.7068182,
                "end_time": 158.7227273,
                "pitch": 43,
                "velocity": 101,
                "duration": 0.0159091,
                "tempo": 120.0
            },
            {
                "start_time": 158.725,
                "end_time": 159.4477273,
                "pitch": 45,
                "velocity": 101,
                "duration": 0.7227273,
                "tempo": 120.0
            },
            {
                "start_time": 159.45,
                "end_time": 160.0,
                "pitch": 46,
                "velocity": 101,
                "duration": 0.55,
                "tempo": 120.0
            },
            {
                "start_time": 160.0022727,
                "end_time": 160.9090909,
                "pitch": 48,
                "velocity": 101,
                "duration": 0.9068182,
                "tempo": 120.0
            },
            {
                "start_time": 160.9113636,
                "end_time": 161.0931818,
                "pitch": 43,
                "velocity": 101,
                "duration": 0.1818182,
                "tempo": 120.0
            },
            {
                "start_time": 161.0931818,
                "end_time": 161.2772727,
                "pitch": 43,
                "velocity": 101,
                "duration": 0.1840909,
                "tempo": 120.0
            },
            {
                "start_time": 161.2772727,
                "end_time": 161.4590909,
                "pitch": 43,
                "velocity": 101,
                "duration": 0.1818182,
                "tempo": 120.0
            },
            {
                "start_time": 161.4613636,
                "end_time": 161.6431818,
                "pitch": 43,
                "velocity": 101,
                "duration": 0.1818182,
                "tempo": 120.0
            },
            {
                "start_time": 161.6454545,
                "end_time": 161.8227273,
                "pitch": 43,
                "velocity": 101,
                "duration": 0.1772727,
                "tempo": 120.0
            },
            {
                "start_time": 161.825,
                "end_time": 162.0022727,
                "pitch": 43,
                "velocity": 101,
                "duration": 0.1772727,
                "tempo": 120.0
            },
            {
                "start_time": 162.0045455,
                "end_time": 162.1863636,
                "pitch": 43,
                "velocity": 101,
                "duration": 0.1818182,
                "tempo": 120.0
            },
            {
                "start_time": 162.1863636,
                "end_time": 162.3704545,
                "pitch": 43,
                "velocity": 101,
                "duration": 0.1840909,
                "tempo": 120.0
            },
            {
                "start_time": 162.3727273,
                "end_time": 162.5522727,
                "pitch": 43,
                "velocity": 101,
                "duration": 0.1795455,
                "tempo": 120.0
            },
            {
                "start_time": 162.5545455,
                "end_time": 162.7363636,
                "pitch": 43,
                "velocity": 101,
                "duration": 0.1818182,
                "tempo": 120.0
            },
            {
                "start_time": 162.7386364,
                "end_time": 162.9204545,
                "pitch": 43,
                "velocity": 101,
                "duration": 0.1818182,
                "tempo": 120.0
            },
            {
                "start_time": 162.9227273,
                "end_time": 163.1045455,
                "pitch": 43,
                "velocity": 101,
                "duration": 0.1818182,
                "tempo": 120.0
            },
            {
                "start_time": 163.1068182,
                "end_time": 163.2840909,
                "pitch": 43,
                "velocity": 101,
                "duration": 0.1772727,
                "tempo": 120.0
            },
            {
                "start_time": 163.2863636,
                "end_time": 163.4636364,
                "pitch": 43,
                "velocity": 101,
                "duration": 0.1772727,
                "tempo": 120.0
            },
            {
                "start_time": 163.4636364,
                "end_time": 163.6454545,
                "pitch": 43,
                "velocity": 101,
                "duration": 0.1818182,
                "tempo": 120.0
            },
            {
                "start_time": 163.6477273,
                "end_time": 163.8318182,
                "pitch": 43,
                "velocity": 101,
                "duration": 0.1840909,
                "tempo": 120.0
            },
            {
                "start_time": 163.8340909,
                "end_time": 164.0136364,
                "pitch": 41,
                "velocity": 101,
                "duration": 0.1795455,
                "tempo": 120.0
            },
            {
                "start_time": 164.0159091,
                "end_time": 164.1977273,
                "pitch": 41,
                "velocity": 101,
                "duration": 0.1818182,
                "tempo": 120.0
            },
            {
                "start_time": 164.2,
                "end_time": 164.3772727,
                "pitch": 41,
                "velocity": 101,
                "duration": 0.1772727,
                "tempo": 120.0
            },
            {
                "start_time": 164.3795455,
                "end_time": 164.5568182,
                "pitch": 41,
                "velocity": 101,
                "duration": 0.1772727,
                "tempo": 120.0
            },
            {
                "start_time": 164.5590909,
                "end_time": 164.7409091,
                "pitch": 41,
                "velocity": 101,
                "duration": 0.1818182,
                "tempo": 120.0
            },
            {
                "start_time": 164.7409091,
                "end_time": 164.925,
                "pitch": 41,
                "velocity": 101,
                "duration": 0.1840909,
                "tempo": 120.0
            },
            {
                "start_time": 164.925,
                "end_time": 165.1068182,
                "pitch": 41,
                "velocity": 101,
                "duration": 0.1818182,
                "tempo": 120.0
            },
            {
                "start_time": 165.1090909,
                "end_time": 165.2909091,
                "pitch": 41,
                "velocity": 101,
                "duration": 0.1818182,
                "tempo": 120.0
            },
            {
                "start_time": 165.2931818,
                "end_time": 165.4704545,
                "pitch": 41,
                "velocity": 101,
                "duration": 0.1772727,
                "tempo": 120.0
            },
            {
                "start_time": 165.4727273,
                "end_time": 165.65,
                "pitch": 41,
                "velocity": 101,
                "duration": 0.1772727,
                "tempo": 120.0
            },
            {
                "start_time": 165.6522727,
                "end_time": 165.8340909,
                "pitch": 41,
                "velocity": 101,
                "duration": 0.1818182,
                "tempo": 120.0
            },
            {
                "start_time": 165.8340909,
                "end_time": 166.0181818,
                "pitch": 41,
                "velocity": 101,
                "duration": 0.1840909,
                "tempo": 120.0
            },
            {
                "start_time": 166.0181818,
                "end_time": 166.2,
                "pitch": 41,
                "velocity": 101,
                "duration": 0.1818182,
                "tempo": 120.0
            },
            {
                "start_time": 166.2022727,
                "end_time": 166.3840909,
                "pitch": 41,
                "velocity": 101,
                "duration": 0.1818182,
                "tempo": 120.0
            },
            {
                "start_time": 166.3863636,
                "end_time": 166.5681818,
                "pitch": 41,
                "velocity": 101,
                "duration": 0.1818182,
                "tempo": 120.0
            },
            {
                "start_time": 166.5704545,
                "end_time": 166.7522727,
                "pitch": 41,
                "velocity": 101,
                "duration": 0.1818182,
                "tempo": 120.0
            },
            {
                "start_time": 166.7545455,
                "end_time": 166.9318182,
                "pitch": 39,
                "velocity": 101,
                "duration": 0.1772727,
                "tempo": 120.0
            },
            {
                "start_time": 166.9318182,
                "end_time": 167.1113636,
                "pitch": 39,
                "velocity": 101,
                "duration": 0.1795455,
                "tempo": 120.0
            },
            {
                "start_time": 167.1136364,
                "end_time": 167.2931818,
                "pitch": 39,
                "velocity": 101,
                "duration": 0.1795455,
                "tempo": 120.0
            },
            {
                "start_time": 167.2954545,
                "end_time": 167.4772727,
                "pitch": 39,
                "velocity": 101,
                "duration": 0.1818182,
                "tempo": 120.0
            },
            {
                "start_time": 167.4795455,
                "end_time": 167.6613636,
                "pitch": 39,
                "velocity": 101,
                "duration": 0.1818182,
                "tempo": 120.0
            },
            {
                "start_time": 167.6636364,
                "end_time": 167.8454545,
                "pitch": 39,
                "velocity": 101,
                "duration": 0.1818182,
                "tempo": 120.0
            },
            {
                "start_time": 167.8477273,
                "end_time": 168.0295455,
                "pitch": 39,
                "velocity": 101,
                "duration": 0.1818182,
                "tempo": 120.0
            },
            {
                "start_time": 168.0318182,
                "end_time": 168.2136364,
                "pitch": 39,
                "velocity": 101,
                "duration": 0.1818182,
                "tempo": 120.0
            },
            {
                "start_time": 168.2159091,
                "end_time": 168.3909091,
                "pitch": 39,
                "velocity": 101,
                "duration": 0.175,
                "tempo": 120.0
            },
            {
                "start_time": 168.3931818,
                "end_time": 168.5727273,
                "pitch": 39,
                "velocity": 101,
                "duration": 0.1795455,
                "tempo": 120.0
            },
            {
                "start_time": 168.5727273,
                "end_time": 168.7545455,
                "pitch": 39,
                "velocity": 101,
                "duration": 0.1818182,
                "tempo": 120.0
            },
            {
                "start_time": 168.7568182,
                "end_time": 168.9386364,
                "pitch": 39,
                "velocity": 101,
                "duration": 0.1818182,
                "tempo": 120.0
            },
            {
                "start_time": 168.9409091,
                "end_time": 169.1227273,
                "pitch": 39,
                "velocity": 101,
                "duration": 0.1818182,
                "tempo": 120.0
            },
            {
                "start_time": 169.125,
                "end_time": 169.3068182,
                "pitch": 39,
                "velocity": 101,
                "duration": 0.1818182,
                "tempo": 120.0
            },
            {
                "start_time": 169.3068182,
                "end_time": 169.4909091,
                "pitch": 39,
                "velocity": 101,
                "duration": 0.1840909,
                "tempo": 120.0
            },
            {
                "start_time": 169.4931818,
                "end_time": 169.675,
                "pitch": 39,
                "velocity": 101,
                "duration": 0.1818182,
                "tempo": 120.0
            },
            {
                "start_time": 169.675,
                "end_time": 170.4,
                "pitch": 45,
                "velocity": 101,
                "duration": 0.725,
                "tempo": 120.0
            },
            {
                "start_time": 170.4022727,
                "end_time": 171.125,
                "pitch": 46,
                "velocity": 101,
                "duration": 0.7227273,
                "tempo": 120.0
            },
            {
                "start_time": 171.1272727,
                "end_time": 171.6772727,
                "pitch": 41,
                "velocity": 101,
                "duration": 0.55,
                "tempo": 120.0
            },
            {
                "start_time": 171.6795455,
                "end_time": 172.1545455,
                "pitch": 43,
                "velocity": 101,
                "duration": 0.475,
                "tempo": 120.0
            },
            {
                "start_time": 158.7068182,
                "end_time": 172.1545455,
                "pitch": 55,
                "velocity": 101,
                "duration": 13.4477273,
                "tempo": 120.0
            },
            {
                "start_time": 158.5886364,
                "end_time": 172.1863636,
                "pitch": 31,
                "velocity": 101,
                "duration": 13.5977273,
                "tempo": 120.0
            },
            {
                "start_time": 172.1545455,
                "end_time": 172.1863636,
                "pitch": 42,
                "velocity": 101,
                "duration": 0.0318182,
                "tempo": 120.0
            },
            {
                "start_time": 172.1863636,
                "end_time": 172.3022727,
                "pitch": 43,
                "velocity": 101,
                "duration": 0.1159091,
                "tempo": 120.0
            },
            {
                "start_time": 172.1545455,
                "end_time": 172.3045455,
                "pitch": 55,
                "velocity": 101,
                "duration": 0.15,
                "tempo": 120.0
            },
            {
                "start_time": 172.3022727,
                "end_time": 172.3045455,
                "pitch": 55,
                "velocity": 101,
                "duration": 0.0022727,
                "tempo": 120.0
            },
            {
                "start_time": 172.1863636,
                "end_time": 172.3545455,
                "pitch": 31,
                "velocity": 101,
                "duration": 0.1681818,
                "tempo": 120.0
            },
            {
                "start_time": 172.3045455,
                "end_time": 172.3545455,
                "pitch": 43,
                "velocity": 101,
                "duration": 0.05,
                "tempo": 120.0
            },
            {
                "start_time": 172.3545455,
                "end_time": 172.4704545,
                "pitch": 43,
                "velocity": 101,
                "duration": 0.1159091,
                "tempo": 120.0
            },
            {
                "start_time": 172.3545455,
                "end_time": 172.5204545,
                "pitch": 31,
                "velocity": 101,
                "duration": 0.1659091,
                "tempo": 120.0
            },
            {
                "start_time": 172.4704545,
                "end_time": 172.5204545,
                "pitch": 43,
                "velocity": 101,
                "duration": 0.05,
                "tempo": 120.0
            },
            {
                "start_time": 172.5204545,
                "end_time": 172.5886364,
                "pitch": 43,
                "velocity": 101,
                "duration": 0.0681818,
                "tempo": 120.0
            },
            {
                "start_time": 172.5909091,
                "end_time": 172.7681818,
                "pitch": 43,
                "velocity": 101,
                "duration": 0.1772727,
                "tempo": 120.0
            },
            {
                "start_time": 172.7704545,
                "end_time": 172.9545455,
                "pitch": 43,
                "velocity": 101,
                "duration": 0.1840909,
                "tempo": 120.0
            },
            {
                "start_time": 172.9545455,
                "end_time": 173.1363636,
                "pitch": 43,
                "velocity": 101,
                "duration": 0.1818182,
                "tempo": 120.0
            },
            {
                "start_time": 173.1386364,
                "end_time": 173.3204545,
                "pitch": 43,
                "velocity": 101,
                "duration": 0.1818182,
                "tempo": 120.0
            },
            {
                "start_time": 173.3227273,
                "end_time": 173.5,
                "pitch": 43,
                "velocity": 101,
                "duration": 0.1772727,
                "tempo": 120.0
            },
            {
                "start_time": 173.5022727,
                "end_time": 173.6795455,
                "pitch": 43,
                "velocity": 101,
                "duration": 0.1772727,
                "tempo": 120.0
            },
            {
                "start_time": 173.6818182,
                "end_time": 173.8636364,
                "pitch": 43,
                "velocity": 101,
                "duration": 0.1818182,
                "tempo": 120.0
            },
            {
                "start_time": 173.8636364,
                "end_time": 174.0477273,
                "pitch": 43,
                "velocity": 101,
                "duration": 0.1840909,
                "tempo": 120.0
            },
            {
                "start_time": 174.05,
                "end_time": 174.2295455,
                "pitch": 43,
                "velocity": 101,
                "duration": 0.1795455,
                "tempo": 120.0
            },
            {
                "start_time": 174.2318182,
                "end_time": 174.4136364,
                "pitch": 43,
                "velocity": 101,
                "duration": 0.1818182,
                "tempo": 120.0
            },
            {
                "start_time": 174.4159091,
                "end_time": 174.5931818,
                "pitch": 43,
                "velocity": 101,
                "duration": 0.1772727,
                "tempo": 120.0
            },
            {
                "start_time": 174.5954545,
                "end_time": 174.7727273,
                "pitch": 43,
                "velocity": 101,
                "duration": 0.1772727,
                "tempo": 120.0
            },
            {
                "start_time": 174.775,
                "end_time": 174.9568182,
                "pitch": 43,
                "velocity": 101,
                "duration": 0.1818182,
                "tempo": 120.0
            },
            {
                "start_time": 174.9590909,
                "end_time": 175.1409091,
                "pitch": 43,
                "velocity": 101,
                "duration": 0.1818182,
                "tempo": 120.0
            },
            {
                "start_time": 175.1431818,
                "end_time": 175.325,
                "pitch": 43,
                "velocity": 101,
                "duration": 0.1818182,
                "tempo": 120.0
            },
            {
                "start_time": 175.325,
                "end_time": 175.5068182,
                "pitch": 43,
                "velocity": 101,
                "duration": 0.1818182,
                "tempo": 120.0
            },
            {
                "start_time": 175.5090909,
                "end_time": 175.6909091,
                "pitch": 43,
                "velocity": 101,
                "duration": 0.1818182,
                "tempo": 120.0
            },
            {
                "start_time": 175.6931818,
                "end_time": 175.875,
                "pitch": 43,
                "velocity": 101,
                "duration": 0.1818182,
                "tempo": 120.0
            },
            {
                "start_time": 175.8772727,
                "end_time": 176.0545455,
                "pitch": 43,
                "velocity": 101,
                "duration": 0.1772727,
                "tempo": 120.0
            },
            {
                "start_time": 176.0568182,
                "end_time": 176.2340909,
                "pitch": 43,
                "velocity": 101,
                "duration": 0.1772727,
                "tempo": 120.0
            },
            {
                "start_time": 176.2340909,
                "end_time": 176.4181818,
                "pitch": 43,
                "velocity": 101,
                "duration": 0.1840909,
                "tempo": 120.0
            },
            {
                "start_time": 176.4181818,
                "end_time": 176.6,
                "pitch": 43,
                "velocity": 101,
                "duration": 0.1818182,
                "tempo": 120.0
            },
            {
                "start_time": 176.6022727,
                "end_time": 176.7840909,
                "pitch": 43,
                "velocity": 101,
                "duration": 0.1818182,
                "tempo": 120.0
            },
            {
                "start_time": 176.7863636,
                "end_time": 176.9681818,
                "pitch": 43,
                "velocity": 101,
                "duration": 0.1818182,
                "tempo": 120.0
            },
            {
                "start_time": 176.9704545,
                "end_time": 177.1454545,
                "pitch": 43,
                "velocity": 101,
                "duration": 0.175,
                "tempo": 120.0
            },
            {
                "start_time": 177.1477273,
                "end_time": 177.325,
                "pitch": 43,
                "velocity": 101,
                "duration": 0.1772727,
                "tempo": 120.0
            },
            {
                "start_time": 177.3272727,
                "end_time": 177.5090909,
                "pitch": 43,
                "velocity": 101,
                "duration": 0.1818182,
                "tempo": 120.0
            },
            {
                "start_time": 177.5113636,
                "end_time": 177.6931818,
                "pitch": 43,
                "velocity": 101,
                "duration": 0.1818182,
                "tempo": 120.0
            },
            {
                "start_time": 177.6954545,
                "end_time": 177.8772727,
                "pitch": 43,
                "velocity": 101,
                "duration": 0.1818182,
                "tempo": 120.0
            },
            {
                "start_time": 177.8795455,
                "end_time": 178.0613636,
                "pitch": 43,
                "velocity": 101,
                "duration": 0.1818182,
                "tempo": 120.0
            },
            {
                "start_time": 178.0613636,
                "end_time": 178.2454545,
                "pitch": 43,
                "velocity": 101,
                "duration": 0.1840909,
                "tempo": 120.0
            },
            {
                "start_time": 178.2454545,
                "end_time": 178.4295455,
                "pitch": 43,
                "velocity": 101,
                "duration": 0.1840909,
                "tempo": 120.0
            },
            {
                "start_time": 178.4318182,
                "end_time": 178.6068182,
                "pitch": 43,
                "velocity": 101,
                "duration": 0.175,
                "tempo": 120.0
            },
            {
                "start_time": 178.6090909,
                "end_time": 178.7886364,
                "pitch": 43,
                "velocity": 101,
                "duration": 0.1795455,
                "tempo": 120.0
            },
            {
                "start_time": 178.7909091,
                "end_time": 178.9704545,
                "pitch": 43,
                "velocity": 101,
                "duration": 0.1795455,
                "tempo": 120.0
            },
            {
                "start_time": 178.9727273,
                "end_time": 179.1545455,
                "pitch": 43,
                "velocity": 101,
                "duration": 0.1818182,
                "tempo": 120.0
            },
            {
                "start_time": 179.1568182,
                "end_time": 179.3386364,
                "pitch": 43,
                "velocity": 101,
                "duration": 0.1818182,
                "tempo": 120.0
            },
            {
                "start_time": 179.3409091,
                "end_time": 179.5227273,
                "pitch": 43,
                "velocity": 101,
                "duration": 0.1818182,
                "tempo": 120.0
            },
            {
                "start_time": 179.525,
                "end_time": 179.7022727,
                "pitch": 43,
                "velocity": 101,
                "duration": 0.1772727,
                "tempo": 120.0
            },
            {
                "start_time": 179.7045455,
                "end_time": 179.8818182,
                "pitch": 43,
                "velocity": 101,
                "duration": 0.1772727,
                "tempo": 120.0
            }
        ],
        "French Horn": [
            {
                "start_time": 172.5931818,
                "end_time": 173.1409091,
                "pitch": 55,
                "velocity": 64,
                "duration": 0.5477273,
                "tempo": 120.0
            },
            {
                "start_time": 173.1409091,
                "end_time": 173.1886364,
                "pitch": 55,
                "velocity": 64,
                "duration": 0.0477273,
                "tempo": 120.0
            },
            {
                "start_time": 173.1886364,
                "end_time": 173.1909091,
                "pitch": 43,
                "velocity": 64,
                "duration": 0.0022727,
                "tempo": 120.0
            },
            {
                "start_time": 173.1909091,
                "end_time": 173.3068182,
                "pitch": 55,
                "velocity": 64,
                "duration": 0.1159091,
                "tempo": 120.0
            },
            {
                "start_time": 173.1409091,
                "end_time": 173.3068182,
                "pitch": 67,
                "velocity": 64,
                "duration": 0.1659091,
                "tempo": 120.0
            },
            {
                "start_time": 173.3068182,
                "end_time": 173.3227273,
                "pitch": 55,
                "velocity": 64,
                "duration": 0.0159091,
                "tempo": 120.0
            },
            {
                "start_time": 173.325,
                "end_time": 174.05,
                "pitch": 57,
                "velocity": 64,
                "duration": 0.725,
                "tempo": 120.0
            },
            {
                "start_time": 174.0522727,
                "end_time": 174.775,
                "pitch": 58,
                "velocity": 64,
                "duration": 0.7227273,
                "tempo": 120.0
            },
            {
                "start_time": 174.7772727,
                "end_time": 175.5090909,
                "pitch": 60,
                "velocity": 64,
                "duration": 0.7318182,
                "tempo": 120.0
            },
            {
                "start_time": 175.5113636,
                "end_time": 175.9909091,
                "pitch": 55,
                "velocity": 64,
                "duration": 0.4795455,
                "tempo": 120.0
            },
            {
                "start_time": 173.3068182,
                "end_time": 175.9909091,
                "pitch": 67,
                "velocity": 64,
                "duration": 2.6840909,
                "tempo": 120.0
            },
            {
                "start_time": 175.9909091,
                "end_time": 176.0068182,
                "pitch": 55,
                "velocity": 64,
                "duration": 0.0159091,
                "tempo": 120.0
            },
            {
                "start_time": 176.0068182,
                "end_time": 176.1227273,
                "pitch": 55,
                "velocity": 64,
                "duration": 0.1159091,
                "tempo": 120.0
            },
            {
                "start_time": 175.9909091,
                "end_time": 176.1227273,
                "pitch": 67,
                "velocity": 64,
                "duration": 0.1318182,
                "tempo": 120.0
            },
            {
                "start_time": 176.0068182,
                "end_time": 176.1704545,
                "pitch": 43,
                "velocity": 64,
                "duration": 0.1636364,
                "tempo": 120.0
            },
            {
                "start_time": 176.1227273,
                "end_time": 176.1704545,
                "pitch": 55,
                "velocity": 64,
                "duration": 0.0477273,
                "tempo": 120.0
            },
            {
                "start_time": 176.1704545,
                "end_time": 176.2863636,
                "pitch": 55,
                "velocity": 64,
                "duration": 0.1159091,
                "tempo": 120.0
            },
            {
                "start_time": 176.1227273,
                "end_time": 176.2863636,
                "pitch": 67,
                "velocity": 64,
                "duration": 0.1636364,
                "tempo": 120.0
            },
            {
                "start_time": 176.1704545,
                "end_time": 176.3363636,
                "pitch": 43,
                "velocity": 64,
                "duration": 0.1659091,
                "tempo": 120.0
            },
            {
                "start_time": 176.2863636,
                "end_time": 176.3363636,
                "pitch": 55,
                "velocity": 64,
                "duration": 0.05,
                "tempo": 120.0
            },
            {
                "start_time": 176.3363636,
                "end_time": 176.4522727,
                "pitch": 55,
                "velocity": 64,
                "duration": 0.1159091,
                "tempo": 120.0
            },
            {
                "start_time": 176.2863636,
                "end_time": 176.4522727,
                "pitch": 67,
                "velocity": 64,
                "duration": 0.1659091,
                "tempo": 120.0
            },
            {
                "start_time": 176.4522727,
                "end_time": 176.5022727,
                "pitch": 55,
                "velocity": 64,
                "duration": 0.05,
                "tempo": 120.0
            },
            {
                "start_time": 176.3363636,
                "end_time": 176.5045455,
                "pitch": 43,
                "velocity": 64,
                "duration": 0.1681818,
                "tempo": 120.0
            },
            {
                "start_time": 176.5022727,
                "end_time": 176.5045455,
                "pitch": 43,
                "velocity": 64,
                "duration": 0.0022727,
                "tempo": 120.0
            },
            {
                "start_time": 176.5045455,
                "end_time": 176.6204545,
                "pitch": 55,
                "velocity": 64,
                "duration": 0.1159091,
                "tempo": 120.0
            },
            {
                "start_time": 176.4522727,
                "end_time": 176.6204545,
                "pitch": 67,
                "velocity": 64,
                "duration": 0.1681818,
                "tempo": 120.0
            },
            {
                "start_time": 176.6204545,
                "end_time": 176.6704545,
                "pitch": 55,
                "velocity": 64,
                "duration": 0.05,
                "tempo": 120.0
            },
            {
                "start_time": 176.6704545,
                "end_time": 176.7886364,
                "pitch": 55,
                "velocity": 64,
                "duration": 0.1181818,
                "tempo": 120.0
            },
            {
                "start_time": 176.6204545,
                "end_time": 176.7886364,
                "pitch": 67,
                "velocity": 64,
                "duration": 0.1681818,
                "tempo": 120.0
            },
            {
                "start_time": 176.6704545,
                "end_time": 176.8363636,
                "pitch": 43,
                "velocity": 64,
                "duration": 0.1659091,
                "tempo": 120.0
            },
            {
                "start_time": 176.7886364,
                "end_time": 176.8363636,
                "pitch": 55,
                "velocity": 64,
                "duration": 0.0477273,
                "tempo": 120.0
            },
            {
                "start_time": 176.8363636,
                "end_time": 176.9545455,
                "pitch": 55,
                "velocity": 64,
                "duration": 0.1181818,
                "tempo": 120.0
            },
            {
                "start_time": 176.7886364,
                "end_time": 176.9545455,
                "pitch": 67,
                "velocity": 64,
                "duration": 0.1659091,
                "tempo": 120.0
            },
            {
                "start_time": 176.9545455,
                "end_time": 176.9704545,
                "pitch": 55,
                "velocity": 64,
                "duration": 0.0159091,
                "tempo": 120.0
            },
            {
                "start_time": 178.4318182,
                "end_time": 178.9409091,
                "pitch": 55,
                "velocity": 64,
                "duration": 0.5090909,
                "tempo": 120.0
            },
            {
                "start_time": 176.9545455,
                "end_time": 178.9409091,
                "pitch": 67,
                "velocity": 64,
                "duration": 1.9863636,
                "tempo": 120.0
            },
            {
                "start_time": 176.8363636,
                "end_time": 178.9909091,
                "pitch": 43,
                "velocity": 64,
                "duration": 2.1545455,
                "tempo": 120.0
            },
            {
                "start_time": 178.9409091,
                "end_time": 178.9909091,
                "pitch": 55,
                "velocity": 64,
                "duration": 0.05,
                "tempo": 120.0
            },
            {
                "start_time": 178.9909091,
                "end_time": 179.1068182,
                "pitch": 55,
                "velocity": 64,
                "duration": 0.1159091,
                "tempo": 120.0
            },
            {
                "start_time": 178.9409091,
                "end_time": 179.1068182,
                "pitch": 67,
                "velocity": 64,
                "duration": 0.1659091,
                "tempo": 120.0
            },
            {
                "start_time": 179.1068182,
                "end_time": 179.1568182,
                "pitch": 55,
                "velocity": 64,
                "duration": 0.05,
                "tempo": 120.0
            },
            {
                "start_time": 179.1590909,
                "end_time": 179.8840909,
                "pitch": 57,
                "velocity": 64,
                "duration": 0.725,
                "tempo": 120.0
            }
        ],
        "Electric Piano 1": [
            {
                "start_time": 145.6,
                "end_time": 145.9590909,
                "pitch": 67,
                "velocity": 20,
                "duration": 0.3590909,
                "tempo": 120.0
            },
            {
                "start_time": 145.9613636,
                "end_time": 146.3227273,
                "pitch": 67,
                "velocity": 25,
                "duration": 0.3613636,
                "tempo": 120.0
            },
            {
                "start_time": 146.325,
                "end_time": 146.6659091,
                "pitch": 67,
                "velocity": 32,
                "duration": 0.3409091,
                "tempo": 120.0
            },
            {
                "start_time": 146.6704545,
                "end_time": 146.9886364,
                "pitch": 67,
                "velocity": 40,
                "duration": 0.3181818,
                "tempo": 120.0
            },
            {
                "start_time": 146.9931818,
                "end_time": 147.3136364,
                "pitch": 67,
                "velocity": 40,
                "duration": 0.3204545,
                "tempo": 120.0
            },
            {
                "start_time": 147.3159091,
                "end_time": 147.5454545,
                "pitch": 67,
                "velocity": 51,
                "duration": 0.2295455,
                "tempo": 120.0
            },
            {
                "start_time": 147.5477273,
                "end_time": 147.7727273,
                "pitch": 67,
                "velocity": 51,
                "duration": 0.225,
                "tempo": 120.0
            },
            {
                "start_time": 147.775,
                "end_time": 147.9522727,
                "pitch": 67,
                "velocity": 64,
                "duration": 0.1772727,
                "tempo": 120.0
            },
            {
                "start_time": 147.9545455,
                "end_time": 148.1318182,
                "pitch": 67,
                "velocity": 64,
                "duration": 0.1772727,
                "tempo": 120.0
            },
            {
                "start_time": 148.1318182,
                "end_time": 148.3204545,
                "pitch": 67,
                "velocity": 64,
                "duration": 0.1886364,
                "tempo": 120.0
            },
            {
                "start_time": 148.3227273,
                "end_time": 148.5090909,
                "pitch": 67,
                "velocity": 64,
                "duration": 0.1863636,
                "tempo": 120.0
            },
            {
                "start_time": 148.5113636,
                "end_time": 148.6886364,
                "pitch": 67,
                "velocity": 80,
                "duration": 0.1772727,
                "tempo": 120.0
            },
            {
                "start_time": 148.6909091,
                "end_time": 148.8681818,
                "pitch": 67,
                "velocity": 80,
                "duration": 0.1772727,
                "tempo": 120.0
            },
            {
                "start_time": 148.8704545,
                "end_time": 149.0522727,
                "pitch": 67,
                "velocity": 80,
                "duration": 0.1818182,
                "tempo": 120.0
            },
            {
                "start_time": 149.0545455,
                "end_time": 149.2363636,
                "pitch": 67,
                "velocity": 80,
                "duration": 0.1818182,
                "tempo": 120.0
            },
            {
                "start_time": 149.2386364,
                "end_time": 149.5954545,
                "pitch": 67,
                "velocity": 101,
                "duration": 0.3568182,
                "tempo": 120.0
            },
            {
                "start_time": 149.5954545,
                "end_time": 149.9613636,
                "pitch": 75,
                "velocity": 101,
                "duration": 0.3659091,
                "tempo": 120.0
            },
            {
                "start_time": 149.9636364,
                "end_time": 150.3295455,
                "pitch": 74,
                "velocity": 101,
                "duration": 0.3659091,
                "tempo": 120.0
            },
            {
                "start_time": 150.3318182,
                "end_time": 150.6886364,
                "pitch": 72,
                "velocity": 101,
                "duration": 0.3568182,
                "tempo": 120.0
            },
            {
                "start_time": 150.6909091,
                "end_time": 151.0545455,
                "pitch": 70,
                "velocity": 101,
                "duration": 0.3636364,
                "tempo": 120.0
            },
            {
                "start_time": 151.0568182,
                "end_time": 151.4227273,
                "pitch": 72,
                "velocity": 101,
                "duration": 0.3659091,
                "tempo": 120.0
            },
            {
                "start_time": 151.425,
                "end_time": 151.6022727,
                "pitch": 74,
                "velocity": 101,
                "duration": 0.1772727,
                "tempo": 120.0
            },
            {
                "start_time": 151.6045455,
                "end_time": 152.1613636,
                "pitch": 75,
                "velocity": 101,
                "duration": 0.5568182,
                "tempo": 120.0
            },
            {
                "start_time": 152.1613636,
                "end_time": 152.5181818,
                "pitch": 67,
                "velocity": 101,
                "duration": 0.3568182,
                "tempo": 120.0
            },
            {
                "start_time": 152.5204545,
                "end_time": 152.8863636,
                "pitch": 74,
                "velocity": 101,
                "duration": 0.3659091,
                "tempo": 120.0
            },
            {
                "start_time": 152.8863636,
                "end_time": 153.2431818,
                "pitch": 72,
                "velocity": 101,
                "duration": 0.3568182,
                "tempo": 120.0
            },
            {
                "start_time": 153.2454545,
                "end_time": 153.6113636,
                "pitch": 70,
                "velocity": 101,
                "duration": 0.3659091,
                "tempo": 120.0
            },
            {
                "start_time": 153.6136364,
                "end_time": 153.9795455,
                "pitch": 69,
                "velocity": 101,
                "duration": 0.3659091,
                "tempo": 120.0
            },
            {
                "start_time": 153.9818182,
                "end_time": 154.3454545,
                "pitch": 70,
                "velocity": 101,
                "duration": 0.3636364,
                "tempo": 120.0
            },
            {
                "start_time": 154.3477273,
                "end_time": 154.525,
                "pitch": 72,
                "velocity": 101,
                "duration": 0.1772727,
                "tempo": 120.0
            },
            {
                "start_time": 154.5272727,
                "end_time": 155.0727273,
                "pitch": 74,
                "velocity": 101,
                "duration": 0.5454545,
                "tempo": 120.0
            },
            {
                "start_time": 155.075,
                "end_time": 155.4409091,
                "pitch": 65,
                "velocity": 101,
                "duration": 0.3659091,
                "tempo": 120.0
            },
            {
                "start_time": 155.4409091,
                "end_time": 155.7977273,
                "pitch": 72,
                "velocity": 101,
                "duration": 0.3568182,
                "tempo": 120.0
            },
            {
                "start_time": 155.8,
                "end_time": 156.1659091,
                "pitch": 70,
                "velocity": 101,
                "duration": 0.3659091,
                "tempo": 120.0
            },
            {
                "start_time": 156.1681818,
                "end_time": 156.5340909,
                "pitch": 69,
                "velocity": 101,
                "duration": 0.3659091,
                "tempo": 120.0
            },
            {
                "start_time": 156.5340909,
                "end_time": 156.8909091,
                "pitch": 67,
                "velocity": 101,
                "duration": 0.3568182,
                "tempo": 120.0
            },
            {
                "start_time": 156.8931818,
                "end_time": 157.2590909,
                "pitch": 69,
                "velocity": 101,
                "duration": 0.3659091,
                "tempo": 120.0
            },
            {
                "start_time": 157.2613636,
                "end_time": 157.4431818,
                "pitch": 70,
                "velocity": 101,
                "duration": 0.1818182,
                "tempo": 120.0
            },
            {
                "start_time": 157.4454545,
                "end_time": 157.8113636,
                "pitch": 72,
                "velocity": 101,
                "duration": 0.3659091,
                "tempo": 120.0
            },
            {
                "start_time": 157.8136364,
                "end_time": 157.9954545,
                "pitch": 65,
                "velocity": 101,
                "duration": 0.1818182,
                "tempo": 120.0
            },
            {
                "start_time": 157.9954545,
                "end_time": 158.4704545,
                "pitch": 67,
                "velocity": 101,
                "duration": 0.475,
                "tempo": 120.0
            },
            {
                "start_time": 158.4704545,
                "end_time": 158.5045455,
                "pitch": 67,
                "velocity": 101,
                "duration": 0.0340909,
                "tempo": 120.0
            },
            {
                "start_time": 158.5045455,
                "end_time": 158.6204545,
                "pitch": 67,
                "velocity": 101,
                "duration": 0.1159091,
                "tempo": 120.0
            },
            {
                "start_time": 158.4704545,
                "end_time": 158.6204545,
                "pitch": 79,
                "velocity": 101,
                "duration": 0.15,
                "tempo": 120.0
            },
            {
                "start_time": 158.5045455,
                "end_time": 158.6704545,
                "pitch": 55,
                "velocity": 101,
                "duration": 0.1659091,
                "tempo": 120.0
            },
            {
                "start_time": 158.6204545,
                "end_time": 158.6704545,
                "pitch": 67,
                "velocity": 101,
                "duration": 0.05,
                "tempo": 120.0
            },
            {
                "start_time": 158.6704545,
                "end_time": 158.7204545,
                "pitch": 67,
                "velocity": 101,
                "duration": 0.05,
                "tempo": 120.0
            },
            {
                "start_time": 158.7227273,
                "end_time": 159.4454545,
                "pitch": 69,
                "velocity": 101,
                "duration": 0.7227273,
                "tempo": 120.0
            },
            {
                "start_time": 159.4477273,
                "end_time": 159.9977273,
                "pitch": 70,
                "velocity": 101,
                "duration": 0.55,
                "tempo": 120.0
            },
            {
                "start_time": 160.0,
                "end_time": 160.5477273,
                "pitch": 72,
                "velocity": 101,
                "duration": 0.5477273,
                "tempo": 120.0
            },
            {
                "start_time": 160.55,
                "end_time": 160.7272727,
                "pitch": 67,
                "velocity": 101,
                "duration": 0.1772727,
                "tempo": 120.0
            },
            {
                "start_time": 160.9090909,
                "end_time": 161.275,
                "pitch": 67,
                "velocity": 101,
                "duration": 0.3659091,
                "tempo": 120.0
            },
            {
                "start_time": 161.2772727,
                "end_time": 161.6409091,
                "pitch": 75,
                "velocity": 101,
                "duration": 0.3636364,
                "tempo": 120.0
            },
            {
                "start_time": 161.6431818,
                "end_time": 162.0,
                "pitch": 74,
                "velocity": 101,
                "duration": 0.3568182,
                "tempo": 120.0
            },
            {
                "start_time": 162.0022727,
                "end_time": 162.3681818,
                "pitch": 72,
                "velocity": 101,
                "duration": 0.3659091,
                "tempo": 120.0
            },
            {
                "start_time": 162.3704545,
                "end_time": 162.7340909,
                "pitch": 70,
                "velocity": 101,
                "duration": 0.3636364,
                "tempo": 120.0
            },
            {
                "start_time": 162.7363636,
                "end_time": 163.1022727,
                "pitch": 72,
                "velocity": 101,
                "duration": 0.3659091,
                "tempo": 120.0
            },
            {
                "start_time": 163.1045455,
                "end_time": 163.2818182,
                "pitch": 74,
                "velocity": 101,
                "duration": 0.1772727,
                "tempo": 120.0
            },
            {
                "start_time": 163.2840909,
                "end_time": 163.8295455,
                "pitch": 75,
                "velocity": 101,
                "duration": 0.5454545,
                "tempo": 120.0
            },
            {
                "start_time": 163.8318182,
                "end_time": 164.1954545,
                "pitch": 67,
                "velocity": 101,
                "duration": 0.3636364,
                "tempo": 120.0
            },
            {
                "start_time": 164.1977273,
                "end_time": 164.5545455,
                "pitch": 74,
                "velocity": 101,
                "duration": 0.3568182,
                "tempo": 120.0
            },
            {
                "start_time": 164.5568182,
                "end_time": 164.9227273,
                "pitch": 72,
                "velocity": 101,
                "duration": 0.3659091,
                "tempo": 120.0
            },
            {
                "start_time": 164.925,
                "end_time": 165.2886364,
                "pitch": 70,
                "velocity": 101,
                "duration": 0.3636364,
                "tempo": 120.0
            },
            {
                "start_time": 165.2909091,
                "end_time": 165.6477273,
                "pitch": 69,
                "velocity": 101,
                "duration": 0.3568182,
                "tempo": 120.0
            },
            {
                "start_time": 165.65,
                "end_time": 166.0159091,
                "pitch": 70,
                "velocity": 101,
                "duration": 0.3659091,
                "tempo": 120.0
            },
            {
                "start_time": 166.0181818,
                "end_time": 166.2,
                "pitch": 72,
                "velocity": 101,
                "duration": 0.1818182,
                "tempo": 120.0
            },
            {
                "start_time": 166.2,
                "end_time": 166.75,
                "pitch": 74,
                "velocity": 101,
                "duration": 0.55,
                "tempo": 120.0
            },
            {
                "start_time": 166.7522727,
                "end_time": 167.1090909,
                "pitch": 65,
                "velocity": 101,
                "duration": 0.3568182,
                "tempo": 120.0
            },
            {
                "start_time": 167.1113636,
                "end_time": 167.4772727,
                "pitch": 72,
                "velocity": 101,
                "duration": 0.3659091,
                "tempo": 120.0
            },
            {
                "start_time": 167.4772727,
                "end_time": 167.8431818,
                "pitch": 70,
                "velocity": 101,
                "duration": 0.3659091,
                "tempo": 120.0
            },
            {
                "start_time": 167.8454545,
                "end_time": 168.2113636,
                "pitch": 69,
                "velocity": 101,
                "duration": 0.3659091,
                "tempo": 120.0
            },
            {
                "start_time": 168.2136364,
                "end_time": 168.5704545,
                "pitch": 67,
                "velocity": 101,
                "duration": 0.3568182,
                "tempo": 120.0
            },
            {
                "start_time": 168.5704545,
                "end_time": 168.9363636,
                "pitch": 69,
                "velocity": 101,
                "duration": 0.3659091,
                "tempo": 120.0
            },
            {
                "start_time": 168.9386364,
                "end_time": 169.1204545,
                "pitch": 70,
                "velocity": 101,
                "duration": 0.1818182,
                "tempo": 120.0
            },
            {
                "start_time": 169.1227273,
                "end_time": 169.4886364,
                "pitch": 72,
                "velocity": 101,
                "duration": 0.3659091,
                "tempo": 120.0
            },
            {
                "start_time": 169.4909091,
                "end_time": 169.6727273,
                "pitch": 67,
                "velocity": 101,
                "duration": 0.1818182,
                "tempo": 120.0
            },
            {
                "start_time": 169.675,
                "end_time": 170.3977273,
                "pitch": 69,
                "velocity": 101,
                "duration": 0.7227273,
                "tempo": 120.0
            },
            {
                "start_time": 170.4,
                "end_time": 170.675,
                "pitch": 70,
                "velocity": 101,
                "duration": 0.275,
                "tempo": 120.0
            },
            {
                "start_time": 170.6772727,
                "end_time": 170.9409091,
                "pitch": 69,
                "velocity": 101,
                "duration": 0.2636364,
                "tempo": 120.0
            },
            {
                "start_time": 170.9431818,
                "end_time": 171.125,
                "pitch": 67,
                "velocity": 101,
                "duration": 0.1818182,
                "tempo": 120.0
            },
            {
                "start_time": 171.125,
                "end_time": 171.675,
                "pitch": 65,
                "velocity": 101,
                "duration": 0.55,
                "tempo": 120.0
            },
            {
                "start_time": 171.6772727,
                "end_time": 172.2181818,
                "pitch": 67,
                "velocity": 101,
                "duration": 0.5409091,
                "tempo": 120.0
            },
            {
                "start_time": 158.6204545,
                "end_time": 172.2181818,
                "pitch": 79,
                "velocity": 101,
                "duration": 13.5977273,
                "tempo": 120.0
            },
            {
                "start_time": 158.6704545,
                "end_time": 172.2681818,
                "pitch": 55,
                "velocity": 101,
                "duration": 13.5977273,
                "tempo": 120.0
            },
            {
                "start_time": 172.2181818,
                "end_time": 172.2681818,
                "pitch": 67,
                "velocity": 101,
                "duration": 0.05,
                "tempo": 120.0
            },
            {
                "start_time": 172.2681818,
                "end_time": 172.3863636,
                "pitch": 67,
                "velocity": 101,
                "duration": 0.1181818,
                "tempo": 120.0
            },
            {
                "start_time": 172.2181818,
                "end_time": 172.3863636,
                "pitch": 79,
                "velocity": 101,
                "duration": 0.1681818,
                "tempo": 120.0
            },
            {
                "start_time": 172.2681818,
                "end_time": 172.4363636,
                "pitch": 55,
                "velocity": 101,
                "duration": 0.1681818,
                "tempo": 120.0
            },
            {
                "start_time": 172.3863636,
                "end_time": 172.4363636,
                "pitch": 67,
                "velocity": 101,
                "duration": 0.05,
                "tempo": 120.0
            },
            {
                "start_time": 172.4363636,
                "end_time": 172.5522727,
                "pitch": 67,
                "velocity": 101,
                "duration": 0.1159091,
                "tempo": 120.0
            },
            {
                "start_time": 172.3863636,
                "end_time": 172.5522727,
                "pitch": 79,
                "velocity": 101,
                "duration": 0.1659091,
                "tempo": 120.0
            },
            {
                "start_time": 172.5522727,
                "end_time": 172.5863636,
                "pitch": 67,
                "velocity": 101,
                "duration": 0.0340909,
                "tempo": 120.0
            },
            {
                "start_time": 172.4363636,
                "end_time": 173.3204545,
                "pitch": 55,
                "velocity": 101,
                "duration": 0.8840909,
                "tempo": 120.0
            },
            {
                "start_time": 172.9545455,
                "end_time": 173.3204545,
                "pitch": 55,
                "velocity": 101,
                "duration": 0.3659091,
                "tempo": 120.0
            },
            {
                "start_time": 173.3204545,
                "end_time": 173.6772727,
                "pitch": 57,
                "velocity": 101,
                "duration": 0.3568182,
                "tempo": 120.0
            },
            {
                "start_time": 173.6795455,
                "end_time": 174.0454545,
                "pitch": 58,
                "velocity": 101,
                "duration": 0.3659091,
                "tempo": 120.0
            },
            {
                "start_time": 174.0477273,
                "end_time": 174.4136364,
                "pitch": 60,
                "velocity": 101,
                "duration": 0.3659091,
                "tempo": 120.0
            },
            {
                "start_time": 174.4136364,
                "end_time": 174.7704545,
                "pitch": 63,
                "velocity": 101,
                "duration": 0.3568182,
                "tempo": 120.0
            },
            {
                "start_time": 174.7727273,
                "end_time": 175.1386364,
                "pitch": 62,
                "velocity": 101,
                "duration": 0.3659091,
                "tempo": 120.0
            },
            {
                "start_time": 175.1409091,
                "end_time": 175.3227273,
                "pitch": 60,
                "velocity": 101,
                "duration": 0.1818182,
                "tempo": 120.0
            },
            {
                "start_time": 175.325,
                "end_time": 176.9681818,
                "pitch": 58,
                "velocity": 101,
                "duration": 1.6431818,
                "tempo": 120.0
            },
            {
                "start_time": 178.7886364,
                "end_time": 179.1545455,
                "pitch": 55,
                "velocity": 101,
                "duration": 0.3659091,
                "tempo": 120.0
            },
            {
                "start_time": 179.1545455,
                "end_time": 179.5204545,
                "pitch": 57,
                "velocity": 101,
                "duration": 0.3659091,
                "tempo": 120.0
            },
            {
                "start_time": 179.5227273,
                "end_time": 179.8795455,
                "pitch": 58,
                "velocity": 101,
                "duration": 0.3568182,
                "tempo": 120.0
            }
        ]
    }
}