{
    "mood": "angry",
    "instruments": {
        "Acoustic Bass": [
            {
                "start_time": 0.0159091,
                "end_time": 0.2795455,
                "pitch": 43,
                "velocity": 80,
                "duration": 0.2636364,
                "tempo": 120.0
            },
            {
                "start_time": 0.2795455,
                "end_time": 0.5295455,
                "pitch": 43,
                "velocity": 80,
                "duration": 0.25,
                "tempo": 120.0
            },
            {
                "start_time": 0.5295455,
                "end_time": 0.7840909,
                "pitch": 43,
                "velocity": 80,
                "duration": 0.2545455,
                "tempo": 120.0
            },
            {
                "start_time": 0.7840909,
                "end_time": 1.0409091,
                "pitch": 43,
                "velocity": 80,
                "duration": 0.2568182,
                "tempo": 120.0
            },
            {
                "start_time": 1.0409091,
                "end_time": 1.2954545,
                "pitch": 43,
                "velocity": 80,
                "duration": 0.2545455,
                "tempo": 120.0
            },
            {
                "start_time": 1.2954545,
                "end_time": 1.5522727,
                "pitch": 43,
                "velocity": 80,
                "duration": 0.2568182,
                "tempo": 120.0
            },
            {
                "start_time": 1.5522727,
                "end_time": 1.7977273,
                "pitch": 43,
                "velocity": 80,
                "duration": 0.2454545,
                "tempo": 120.0
            },
            {
                "start_time": 1.7977273,
                "end_time": 2.0409091,
                "pitch": 43,
                "velocity": 80,
                "duration": 0.2431818,
                "tempo": 120.0
            },
            {
                "start_time": 2.0409091,
                "end_time": 2.2909091,
                "pitch": 43,
                "velocity": 80,
                "duration": 0.25,
                "tempo": 120.0
            },
            {
                "start_time": 2.2909091,
                "end_time": 2.5409091,
                "pitch": 43,
                "velocity": 80,
                "duration": 0.25,
                "tempo": 120.0
            },
            {
                "start_time": 2.5409091,
                "end_time": 2.7886364,
                "pitch": 43,
                "velocity": 80,
                "duration": 0.2477273,
                "tempo": 120.0
            },
            {
                "start_time": 2.7886364,
                "end_time": 3.0386364,
                "pitch": 43,
                "velocity": 80,
                "duration": 0.25,
                "tempo": 120.0
            },
            {
                "start_time": 3.0386364,
                "end_time": 3.2886364,
                "pitch": 43,
                "velocity": 80,
                "duration": 0.25,
                "tempo": 120.0
            },
            {
                "start_time": 3.2886364,
                "end_time": 3.5363636,
                "pitch": 38,
                "velocity": 80,
                "duration": 0.2477273,
                "tempo": 120.0
            },
            {
                "start_time": 3.5363636,
                "end_time": 3.7863636,
                "pitch": 41,
                "velocity": 80,
                "duration": 0.25,
                "tempo": 120.0
            },
            {
                "start_time": 3.7863636,
                "end_time": 4.0363636,
                "pitch": 41,
                "velocity": 80,
                "duration": 0.25,
                "tempo": 120.0
            },
            {
                "start_time": 4.0363636,
                "end_time": 4.2863636,
                "pitch": 43,
                "velocity": 80,
                "duration": 0.25,
                "tempo": 120.0
            },
            {
                "start_time": 4.2863636,
                "end_time": 4.5545455,
                "pitch": 43,
                "velocity": 80,
                "duration": 0.2681818,
                "tempo": 120.0
            },
            {
                "start_time": 4.5545455,
                "end_time": 4.8090909,
                "pitch": 43,
                "velocity": 80,
                "duration": 0.2545455,
                "tempo": 120.0
            },
            {
                "start_time": 4.8090909,
                "end_time": 5.0659091,
                "pitch": 43,
                "velocity": 80,
                "duration": 0.2568182,
                "tempo": 120.0
            },
            {
                "start_time": 3.2886364,
                "end_time": 5.3159091,
                "pitch": 31,
                "velocity": 80,
                "duration": 2.0272727,
                "tempo": 120.0
            },
            {
                "start_time": 5.0659091,
                "end_time": 5.3159091,
                "pitch": 43,
                "velocity": 80,
                "duration": 0.25,
                "tempo": 120.0
            },
            {
                "start_time": 3.5363636,
                "end_time": 5.5636364,
                "pitch": 38,
                "velocity": 80,
                "duration": 2.0272727,
                "tempo": 120.0
            },
            {
                "start_time": 5.3159091,
                "end_time": 5.5636364,
                "pitch": 38,
                "velocity": 80,
                "duration": 0.2477273,
                "tempo": 120.0
            },
            {
                "start_time": 5.5636364,
                "end_time": 5.8136364,
                "pitch": 41,
                "velocity": 80,
                "duration": 0.25,
                "tempo": 120.0
            },
            {
                "start_time": 5.8136364,
                "end_time": 6.0613636,
                "pitch": 41,
                "velocity": 80,
                "duration": 0.2477273,
                "tempo": 120.0
            },
            {
                "start_time": 6.0613636,
                "end_time": 6.3113636,
                "pitch": 43,
                "velocity": 80,
                "duration": 0.25,
                "tempo": 120.0
            },
            {
                "start_time": 6.3113636,
                "end_time": 6.5613636,
                "pitch": 43,
                "velocity": 80,
                "duration": 0.25,
                "tempo": 120.0
            },
            {
                "start_time": 6.5613636,
                "end_time": 6.8045455,
                "pitch": 43,
                "velocity": 80,
                "duration": 0.2431818,
                "tempo": 120.0
            },
            {
                "start_time": 6.8045455,
                "end_time": 7.05,
                "pitch": 43,
                "velocity": 80,
                "duration": 0.2454545,
                "tempo": 120.0
            },
            {
                "start_time": 7.05,
                "end_time": 7.3045455,
                "pitch": 43,
                "velocity": 80,
                "duration": 0.2545455,
                "tempo": 120.0
            },
            {
                "start_time": 7.3045455,
                "end_time": 7.5613636,
                "pitch": 43,
                "velocity": 80,
                "duration": 0.2568182,
                "tempo": 120.0
            },
            {
                "start_time": 7.5613636,
                "end_time": 7.8068182,
                "pitch": 43,
                "velocity": 80,
                "duration": 0.2454545,
                "tempo": 120.0
            },
            {
                "start_time": 5.3159091,
                "end_time": 8.0522727,
                "pitch": 31,
                "velocity": 80,
                "duration": 2.7363636,
                "tempo": 120.0
            },
            {
                "start_time": 7.8068182,
                "end_time": 8.0522727,
                "pitch": 43,
                "velocity": 80,
                "duration": 0.2454545,
                "tempo": 120.0
            },
            {
                "start_time": 8.0522727,
                "end_time": 8.3,
                "pitch": 41,
                "velocity": 80,
                "duration": 0.2477273,
                "tempo": 120.0
            },
            {
                "start_time": 8.3,
                "end_time": 8.55,
                "pitch": 41,
                "velocity": 80,
                "duration": 0.25,
                "tempo": 120.0
            },
            {
                "start_time": 8.55,
                "end_time": 8.8113636,
                "pitch": 41,
                "velocity": 80,
                "duration": 0.2613636,
                "tempo": 120.0
            },
            {
                "start_time": 8.8113636,
                "end_time": 9.0568182,
                "pitch": 41,
                "velocity": 80,
                "duration": 0.2454545,
                "tempo": 120.0
            },
            {
                "start_time": 9.0568182,
                "end_time": 9.3159091,
                "pitch": 41,
                "velocity": 80,
                "duration": 0.2590909,
                "tempo": 120.0
            },
            {
                "start_time": 9.3159091,
                "end_time": 9.575,
                "pitch": 41,
                "velocity": 80,
                "duration": 0.2590909,
                "tempo": 120.0
            },
            {
                "start_time": 9.575,
                "end_time": 9.825,
                "pitch": 41,
                "velocity": 80,
                "duration": 0.25,
                "tempo": 120.0
            },
            {
                "start_time": 9.825,
                "end_time": 10.075,
                "pitch": 41,
                "velocity": 80,
                "duration": 0.25,
                "tempo": 120.0
            },
            {
                "start_time": 10.075,
                "end_time": 10.3227273,
                "pitch": 41,
                "velocity": 80,
                "duration": 0.2477273,
                "tempo": 120.0
            },
            {
                "start_time": 10.3227273,
                "end_time": 10.5727273,
                "pitch": 40,
                "velocity": 80,
                "duration": 0.25,
                "tempo": 120.0
            },
            {
                "start_time": 10.5727273,
                "end_time": 10.8227273,
                "pitch": 40,
                "velocity": 80,
                "duration": 0.25,
                "tempo": 120.0
            },
            {
                "start_time": 10.8227273,
                "end_time": 11.0704545,
                "pitch": 40,
                "velocity": 80,
                "duration": 0.2477273,
                "tempo": 120.0
            },
            {
                "start_time": 11.0704545,
                "end_time": 11.3204545,
                "pitch": 40,
                "velocity": 80,
                "duration": 0.25,
                "tempo": 120.0
            },
            {
                "start_time": 11.3204545,
                "end_time": 11.5704545,
                "pitch": 40,
                "velocity": 80,
                "duration": 0.25,
                "tempo": 120.0
            },
            {
                "start_time": 11.5704545,
                "end_time": 11.8136364,
                "pitch": 40,
                "velocity": 80,
                "duration": 0.2431818,
                "tempo": 120.0
            },
            {
                "start_time": 11.8136364,
                "end_time": 12.0590909,
                "pitch": 40,
                "velocity": 80,
                "duration": 0.2454545,
                "tempo": 120.0
            },
            {
                "start_time": 12.0590909,
                "end_time": 12.3090909,
                "pitch": 40,
                "velocity": 80,
                "duration": 0.25,
                "tempo": 120.0
            },
            {
                "start_time": 12.3090909,
                "end_time": 12.5590909,
                "pitch": 39,
                "velocity": 80,
                "duration": 0.25,
                "tempo": 120.0
            },
            {
                "start_time": 12.5590909,
                "end_time": 12.8068182,
                "pitch": 39,
                "velocity": 80,
                "duration": 0.2477273,
                "tempo": 120.0
            },
            {
                "start_time": 12.8068182,
                "end_time": 13.0727273,
                "pitch": 39,
                "velocity": 80,
                "duration": 0.2659091,
                "tempo": 120.0
            },
            {
                "start_time": 13.0727273,
                "end_time": 13.3318182,
                "pitch": 39,
                "velocity": 80,
                "duration": 0.2590909,
                "tempo": 120.0
            },
            {
                "start_time": 13.3318182,
                "end_time": 13.5931818,
                "pitch": 39,
                "velocity": 80,
                "duration": 0.2613636,
                "tempo": 120.0
            },
            {
                "start_time": 13.5931818,
                "end_time": 13.8386364,
                "pitch": 39,
                "velocity": 80,
                "duration": 0.2454545,
                "tempo": 120.0
            },
            {
                "start_time": 13.8386364,
                "end_time": 14.0840909,
                "pitch": 39,
                "velocity": 80,
                "duration": 0.2454545,
                "tempo": 120.0
            },
            {
                "start_time": 14.0840909,
                "end_time": 14.3318182,
                "pitch": 39,
                "velocity": 80,
                "duration": 0.2477273,
                "tempo": 120.0
            },
            {
                "start_time": 5.5636364,
                "end_time": 14.5818182,
                "pitch": 38,
                "velocity": 80,
                "duration": 9.0181818,
                "tempo": 120.0
            },
            {
                "start_time": 14.3318182,
                "end_time": 14.5818182,
                "pitch": 38,
                "velocity": 80,
                "duration": 0.25,
                "tempo": 120.0
            },
            {
                "start_time": 14.5818182,
                "end_time": 14.8295455,
                "pitch": 38,
                "velocity": 80,
                "duration": 0.2477273,
                "tempo": 120.0
            },
            {
                "start_time": 14.8295455,
                "end_time": 15.0795455,
                "pitch": 38,
                "velocity": 80,
                "duration": 0.25,
                "tempo": 120.0
            },
            {
                "start_time": 15.0795455,
                "end_time": 15.3295455,
                "pitch": 38,
                "velocity": 80,
                "duration": 0.25,
                "tempo": 120.0
            },
            {
                "start_time": 15.3295455,
                "end_time": 15.5772727,
                "pitch": 38,
                "velocity": 80,
                "duration": 0.2477273,
                "tempo": 120.0
            },
            {
                "start_time": 15.5772727,
                "end_time": 15.8272727,
                "pitch": 38,
                "velocity": 80,
                "duration": 0.25,
                "tempo": 120.0
            },
            {
                "start_time": 15.8272727,
                "end_time": 16.0772727,
                "pitch": 38,
                "velocity": 80,
                "duration": 0.25,
                "tempo": 120.0
            },
            {
                "start_time": 16.0772727,
                "end_time": 16.325,
                "pitch": 40,
                "velocity": 80,
                "duration": 0.2477273,
                "tempo": 120.0
            },
            {
                "start_time": 16.325,
                "end_time": 16.575,
                "pitch": 40,
                "velocity": 80,
                "duration": 0.25,
                "tempo": 120.0
            },
            {
                "start_time": 16.575,
                "end_time": 16.8227273,
                "pitch": 40,
                "velocity": 80,
                "duration": 0.2477273,
                "tempo": 120.0
            },
            {
                "start_time": 16.8227273,
                "end_time": 17.0727273,
                "pitch": 40,
                "velocity": 80,
                "duration": 0.25,
                "tempo": 120.0
            },
            {
                "start_time": 17.0727273,
                "end_time": 17.3386364,
                "pitch": 40,
                "velocity": 80,
                "duration": 0.2659091,
                "tempo": 120.0
            },
            {
                "start_time": 17.3386364,
                "end_time": 17.5886364,
                "pitch": 40,
                "velocity": 80,
                "duration": 0.25,
                "tempo": 120.0
            },
            {
                "start_time": 17.5886364,
                "end_time": 17.8363636,
                "pitch": 40,
                "velocity": 80,
                "duration": 0.2477273,
                "tempo": 120.0
            },
            {
                "start_time": 17.8363636,
                "end_time": 18.0863636,
                "pitch": 40,
                "velocity": 80,
                "duration": 0.25,
                "tempo": 120.0
            },
            {
                "start_time": 18.0863636,
                "end_time": 18.3409091,
                "pitch": 40,
                "velocity": 80,
                "duration": 0.2545455,
                "tempo": 120.0
            },
            {
                "start_time": 18.3409091,
                "end_time": 18.5977273,
                "pitch": 40,
                "velocity": 80,
                "duration": 0.2568182,
                "tempo": 120.0
            },
            {
                "start_time": 18.5977273,
                "end_time": 18.8431818,
                "pitch": 40,
                "velocity": 80,
                "duration": 0.2454545,
                "tempo": 120.0
            },
            {
                "start_time": 18.8431818,
                "end_time": 19.0863636,
                "pitch": 40,
                "velocity": 80,
                "duration": 0.2431818,
                "tempo": 120.0
            },
            {
                "start_time": 19.0863636,
                "end_time": 19.3431818,
                "pitch": 40,
                "velocity": 80,
                "duration": 0.2568182,
                "tempo": 120.0
            },
            {
                "start_time": 19.3431818,
                "end_time": 19.5977273,
                "pitch": 40,
                "velocity": 80,
                "duration": 0.2545455,
                "tempo": 120.0
            },
            {
                "start_time": 19.5977273,
                "end_time": 19.8431818,
                "pitch": 40,
                "velocity": 80,
                "duration": 0.2454545,
                "tempo": 120.0
            },
            {
                "start_time": 19.8431818,
                "end_time": 20.0886364,
                "pitch": 40,
                "velocity": 80,
                "duration": 0.2454545,
                "tempo": 120.0
            },
            {
                "start_time": 20.0886364,
                "end_time": 20.3363636,
                "pitch": 40,
                "velocity": 80,
                "duration": 0.2477273,
                "tempo": 120.0
            },
            {
                "start_time": 20.3363636,
                "end_time": 20.5863636,
                "pitch": 39,
                "velocity": 80,
                "duration": 0.25,
                "tempo": 120.0
            },
            {
                "start_time": 20.5863636,
                "end_time": 20.8363636,
                "pitch": 51,
                "velocity": 80,
                "duration": 0.25,
                "tempo": 120.0
            },
            {
                "start_time": 20.8363636,
                "end_time": 21.0840909,
                "pitch": 39,
                "velocity": 80,
                "duration": 0.2477273,
                "tempo": 120.0
            },
            {
                "start_time": 21.0840909,
                "end_time": 21.3340909,
                "pitch": 39,
                "velocity": 80,
                "duration": 0.25,
                "tempo": 120.0
            },
            {
                "start_time": 21.3340909,
                "end_time": 21.6,
                "pitch": 51,
                "velocity": 80,
                "duration": 0.2659091,
                "tempo": 120.0
            },
            {
                "start_time": 21.6,
                "end_time": 21.8545455,
                "pitch": 39,
                "velocity": 80,
                "duration": 0.2545455,
                "tempo": 120.0
            },
            {
                "start_time": 21.8545455,
                "end_time": 22.1113636,
                "pitch": 39,
                "velocity": 80,
                "duration": 0.2568182,
                "tempo": 120.0
            },
            {
                "start_time": 22.1113636,
                "end_time": 22.3590909,
                "pitch": 39,
                "velocity": 80,
                "duration": 0.2477273,
                "tempo": 120.0
            },
            {
                "start_time": 22.3590909,
                "end_time": 22.6090909,
                "pitch": 39,
                "velocity": 80,
                "duration": 0.25,
                "tempo": 120.0
            },
            {
                "start_time": 22.6090909,
                "end_time": 22.8590909,
                "pitch": 51,
                "velocity": 80,
                "duration": 0.25,
                "tempo": 120.0
            },
            {
                "start_time": 22.8590909,
                "end_time": 23.1068182,
                "pitch": 39,
                "velocity": 80,
                "duration": 0.2477273,
                "tempo": 120.0
            },
            {
                "start_time": 23.1068182,
                "end_time": 23.3568182,
                "pitch": 51,
                "velocity": 80,
                "duration": 0.25,
                "tempo": 120.0
            },
            {
                "start_time": 23.3568182,
                "end_time": 23.6068182,
                "pitch": 39,
                "velocity": 80,
                "duration": 0.25,
                "tempo": 120.0
            },
            {
                "start_time": 23.6068182,
                "end_time": 23.85,
                "pitch": 39,
                "velocity": 80,
                "duration": 0.2431818,
                "tempo": 120.0
            },
            {
                "start_time": 23.8522727,
                "end_time": 24.0977273,
                "pitch": 51,
                "velocity": 80,
                "duration": 0.2454545,
                "tempo": 120.0
            },
            {
                "start_time": 24.0977273,
                "end_time": 24.3522727,
                "pitch": 42,
                "velocity": 80,
                "duration": 0.2545455,
                "tempo": 120.0
            },
            {
                "start_time": 24.3522727,
                "end_time": 24.6068182,
                "pitch": 42,
                "velocity": 80,
                "duration": 0.2545455,
                "tempo": 120.0
            },
            {
                "start_time": 24.6068182,
                "end_time": 24.8522727,
                "pitch": 54,
                "velocity": 80,
                "duration": 0.2454545,
                "tempo": 120.0
            },
            {
                "start_time": 24.8522727,
                "end_time": 25.0977273,
                "pitch": 42,
                "velocity": 80,
                "duration": 0.2454545,
                "tempo": 120.0
            },
            {
                "start_time": 25.0977273,
                "end_time": 25.3477273,
                "pitch": 42,
                "velocity": 80,
                "duration": 0.25,
                "tempo": 120.0
            },
            {
                "start_time": 25.3477273,
                "end_time": 25.5954545,
                "pitch": 54,
                "velocity": 80,
                "duration": 0.2477273,
                "tempo": 120.0
            },
            {
                "start_time": 25.5954545,
                "end_time": 25.8613636,
                "pitch": 42,
                "velocity": 80,
                "duration": 0.2659091,
                "tempo": 120.0
            },
            {
                "start_time": 25.8613636,
                "end_time": 26.1113636,
                "pitch": 42,
                "velocity": 80,
                "duration": 0.25,
                "tempo": 120.0
            },
            {
                "start_time": 26.1113636,
                "end_time": 26.3659091,
                "pitch": 42,
                "velocity": 80,
                "duration": 0.2545455,
                "tempo": 120.0
            },
            {
                "start_time": 26.3659091,
                "end_time": 26.6227273,
                "pitch": 42,
                "velocity": 80,
                "duration": 0.2568182,
                "tempo": 120.0
            },
            {
                "start_time": 26.6227273,
                "end_time": 26.8704545,
                "pitch": 54,
                "velocity": 80,
                "duration": 0.2477273,
                "tempo": 120.0
            },
            {
                "start_time": 26.8704545,
                "end_time": 27.1204545,
                "pitch": 42,
                "velocity": 80,
                "duration": 0.25,
                "tempo": 120.0
            },
            {
                "start_time": 27.1204545,
                "end_time": 27.3704545,
                "pitch": 54,
                "velocity": 80,
                "duration": 0.25,
                "tempo": 120.0
            },
            {
                "start_time": 27.3704545,
                "end_time": 27.6181818,
                "pitch": 42,
                "velocity": 80,
                "duration": 0.2477273,
                "tempo": 120.0
            },
            {
                "start_time": 27.6181818,
                "end_time": 27.8681818,
                "pitch": 42,
                "velocity": 80,
                "duration": 0.25,
                "tempo": 120.0
            },
            {
                "start_time": 27.8681818,
                "end_time": 28.1181818,
                "pitch": 54,
                "velocity": 80,
                "duration": 0.25,
                "tempo": 120.0
            },
            {
                "start_time": 28.1181818,
                "end_time": 28.3659091,
                "pitch": 44,
                "velocity": 80,
                "duration": 0.2477273,
                "tempo": 120.0
            },
            {
                "start_time": 28.3659091,
                "end_time": 28.6159091,
                "pitch": 44,
                "velocity": 80,
                "duration": 0.25,
                "tempo": 120.0
            },
            {
                "start_time": 28.6159091,
                "end_time": 28.8636364,
                "pitch": 56,
                "velocity": 80,
                "duration": 0.2477273,
                "tempo": 120.0
            },
            {
                "start_time": 28.8636364,
                "end_time": 29.1136364,
                "pitch": 44,
                "velocity": 80,
                "duration": 0.25,
                "tempo": 120.0
            },
            {
                "start_time": 29.1136364,
                "end_time": 29.3636364,
                "pitch": 44,
                "velocity": 80,
                "duration": 0.25,
                "tempo": 120.0
            },
            {
                "start_time": 29.3636364,
                "end_time": 29.6113636,
                "pitch": 56,
                "velocity": 80,
                "duration": 0.2477273,
                "tempo": 120.0
            },
            {
                "start_time": 29.6113636,
                "end_time": 29.8568182,
                "pitch": 44,
                "velocity": 80,
                "duration": 0.2454545,
                "tempo": 120.0
            },
            {
                "start_time": 29.8568182,
                "end_time": 30.1181818,
                "pitch": 44,
                "velocity": 80,
                "duration": 0.2613636,
                "tempo": 120.0
            },
            {
                "start_time": 30.1181818,
                "end_time": 30.3772727,
                "pitch": 44,
                "velocity": 80,
                "duration": 0.2590909,
                "tempo": 120.0
            },
            {
                "start_time": 30.3772727,
                "end_time": 30.6386364,
                "pitch": 44,
                "velocity": 80,
                "duration": 0.2613636,
                "tempo": 120.0
            },
            {
                "start_time": 30.6386364,
                "end_time": 30.8840909,
                "pitch": 56,
                "velocity": 80,
                "duration": 0.2454545,
                "tempo": 120.0
            },
            {
                "start_time": 30.8840909,
                "end_time": 31.1295455,
                "pitch": 44,
                "velocity": 80,
                "duration": 0.2454545,
                "tempo": 120.0
            },
            {
                "start_time": 31.1295455,
                "end_time": 31.3772727,
                "pitch": 56,
                "velocity": 80,
                "duration": 0.2477273,
                "tempo": 120.0
            },
            {
                "start_time": 31.3772727,
                "end_time": 31.6272727,
                "pitch": 44,
                "velocity": 80,
                "duration": 0.25,
                "tempo": 120.0
            },
            {
                "start_time": 31.6272727,
                "end_time": 31.8772727,
                "pitch": 44,
                "velocity": 80,
                "duration": 0.25,
                "tempo": 120.0
            },
            {
                "start_time": 31.8772727,
                "end_time": 32.125,
                "pitch": 56,
                "velocity": 80,
                "duration": 0.2477273,
                "tempo": 120.0
            },
            {
                "start_time": 32.125,
                "end_time": 32.375,
                "pitch": 46,
                "velocity": 80,
                "duration": 0.25,
                "tempo": 120.0
            },
            {
                "start_time": 32.375,
                "end_time": 32.6227273,
                "pitch": 46,
                "velocity": 80,
                "duration": 0.2477273,
                "tempo": 120.0
            },
            {
                "start_time": 32.6227273,
                "end_time": 32.8727273,
                "pitch": 58,
                "velocity": 80,
                "duration": 0.25,
                "tempo": 120.0
            },
            {
                "start_time": 32.8727273,
                "end_time": 33.1227273,
                "pitch": 46,
                "velocity": 80,
                "duration": 0.25,
                "tempo": 120.0
            },
            {
                "start_time": 33.1227273,
                "end_time": 33.3704545,
                "pitch": 46,
                "velocity": 80,
                "duration": 0.2477273,
                "tempo": 120.0
            },
            {
                "start_time": 33.3704545,
                "end_time": 33.6204545,
                "pitch": 58,
                "velocity": 80,
                "duration": 0.25,
                "tempo": 120.0
            },
            {
                "start_time": 33.6204545,
                "end_time": 33.8659091,
                "pitch": 46,
                "velocity": 80,
                "duration": 0.2454545,
                "tempo": 120.0
            },
            {
                "start_time": 33.8659091,
                "end_time": 34.1113636,
                "pitch": 46,
                "velocity": 80,
                "duration": 0.2454545,
                "tempo": 120.0
            },
            {
                "start_time": 34.1113636,
                "end_time": 34.3818182,
                "pitch": 46,
                "velocity": 80,
                "duration": 0.2704545,
                "tempo": 120.0
            },
            {
                "start_time": 34.3818182,
                "end_time": 34.6386364,
                "pitch": 46,
                "velocity": 80,
                "duration": 0.2568182,
                "tempo": 120.0
            },
            {
                "start_time": 34.6386364,
                "end_time": 34.8931818,
                "pitch": 46,
                "velocity": 80,
                "duration": 0.2545455,
                "tempo": 120.0
            },
            {
                "start_time": 34.8931818,
                "end_time": 35.15,
                "pitch": 58,
                "velocity": 80,
                "duration": 0.2568182,
                "tempo": 120.0
            },
            {
                "start_time": 35.15,
                "end_time": 35.4,
                "pitch": 46,
                "velocity": 80,
                "duration": 0.25,
                "tempo": 120.0
            },
            {
                "start_time": 35.4,
                "end_time": 35.6477273,
                "pitch": 46,
                "velocity": 80,
                "duration": 0.2477273,
                "tempo": 120.0
            },
            {
                "start_time": 35.6477273,
                "end_time": 35.8931818,
                "pitch": 45,
                "velocity": 80,
                "duration": 0.2454545,
                "tempo": 120.0
            },
            {
                "start_time": 32.125,
                "end_time": 36.1136364,
                "pitch": 44,
                "velocity": 80,
                "duration": 3.9886364,
                "tempo": 120.0
            },
            {
                "start_time": 35.8931818,
                "end_time": 36.1136364,
                "pitch": 44,
                "velocity": 80,
                "duration": 0.2204545,
                "tempo": 120.0
            }
        ],
        "Harpsichord": [
            {
                "start_time": 0.0159091,
                "end_time": 0.2795455,
                "pitch": 43,
                "velocity": 25,
                "duration": 0.2636364,
                "tempo": 120.0
            },
            {
                "start_time": 0.2795455,
                "end_time": 0.5295455,
                "pitch": 43,
                "velocity": 25,
                "duration": 0.25,
                "tempo": 120.0
            },
            {
                "start_time": 0.5295455,
                "end_time": 0.7840909,
                "pitch": 43,
                "velocity": 25,
                "duration": 0.2545455,
                "tempo": 120.0
            },
            {
                "start_time": 0.7840909,
                "end_time": 1.0409091,
                "pitch": 43,
                "velocity": 25,
                "duration": 0.2568182,
                "tempo": 120.0
            },
            {
                "start_time": 1.0409091,
                "end_time": 1.2954545,
                "pitch": 43,
                "velocity": 25,
                "duration": 0.2545455,
                "tempo": 120.0
            },
            {
                "start_time": 1.2954545,
                "end_time": 1.5522727,
                "pitch": 43,
                "velocity": 25,
                "duration": 0.2568182,
                "tempo": 120.0
            },
            {
                "start_time": 1.5522727,
                "end_time": 1.7977273,
                "pitch": 43,
                "velocity": 25,
                "duration": 0.2454545,
                "tempo": 120.0
            },
            {
                "start_time": 1.7977273,
                "end_time": 2.0431818,
                "pitch": 43,
                "velocity": 25,
                "duration": 0.2454545,
                "tempo": 120.0
            },
            {
                "start_time": 2.0431818,
                "end_time": 2.2909091,
                "pitch": 43,
                "velocity": 25,
                "duration": 0.2477273,
                "tempo": 120.0
            },
            {
                "start_time": 2.2909091,
                "end_time": 2.5409091,
                "pitch": 43,
                "velocity": 25,
                "duration": 0.25,
                "tempo": 120.0
            },
            {
                "start_time": 2.5409091,
                "end_time": 2.7886364,
                "pitch": 43,
                "velocity": 25,
                "duration": 0.2477273,
                "tempo": 120.0
            },
            {
                "start_time": 2.7886364,
                "end_time": 3.0386364,
                "pitch": 43,
                "velocity": 25,
                "duration": 0.25,
                "tempo": 120.0
            },
            {
                "start_time": 3.0386364,
                "end_time": 3.2886364,
                "pitch": 43,
                "velocity": 25,
                "duration": 0.25,
                "tempo": 120.0
            },
            {
                "start_time": 3.2886364,
                "end_time": 3.5363636,
                "pitch": 38,
                "velocity": 25,
                "duration": 0.2477273,
                "tempo": 120.0
            },
            {
                "start_time": 3.5363636,
                "end_time": 3.7863636,
                "pitch": 41,
                "velocity": 25,
                "duration": 0.25,
                "tempo": 120.0
            },
            {
                "start_time": 3.7863636,
                "end_time": 4.0363636,
                "pitch": 41,
                "velocity": 25,
                "duration": 0.25,
                "tempo": 120.0
            },
            {
                "start_time": 4.0363636,
                "end_time": 4.2863636,
                "pitch": 43,
                "velocity": 25,
                "duration": 0.25,
                "tempo": 120.0
            },
            {
                "start_time": 4.2863636,
                "end_time": 4.5545455,
                "pitch": 43,
                "velocity": 25,
                "duration": 0.2681818,
                "tempo": 120.0
            },
            {
                "start_time": 4.5545455,
                "end_time": 4.8090909,
                "pitch": 43,
                "velocity": 25,
                "duration": 0.2545455,
                "tempo": 120.0
            },
            {
                "start_time": 4.8090909,
                "end_time": 5.0659091,
                "pitch": 43,
                "velocity": 25,
                "duration": 0.2568182,
                "tempo": 120.0
            },
            {
                "start_time": 5.0659091,
                "end_time": 5.3159091,
                "pitch": 43,
                "velocity": 25,
                "duration": 0.25,
                "tempo": 120.0
            },
            {
                "start_time": 5.3159091,
                "end_time": 5.5636364,
                "pitch": 38,
                "velocity": 25,
                "duration": 0.2477273,
                "tempo": 120.0
            },
            {
                "start_time": 5.5636364,
                "end_time": 5.8136364,
                "pitch": 41,
                "velocity": 25,
                "duration": 0.25,
                "tempo": 120.0
            },
            {
                "start_time": 5.8136364,
                "end_time": 6.0636364,
                "pitch": 41,
                "velocity": 25,
                "duration": 0.25,
                "tempo": 120.0
            },
            {
                "start_time": 4.0363636,
                "end_time": 6.0636364,
                "pitch": 54,
                "velocity": 25,
                "duration": 2.0272727,
                "tempo": 120.0
            },
            {
                "start_time": 6.0636364,
                "end_time": 6.3113636,
                "pitch": 43,
                "velocity": 25,
                "duration": 0.2477273,
                "tempo": 120.0
            },
            {
                "start_time": 6.3113636,
                "end_time": 6.5613636,
                "pitch": 43,
                "velocity": 25,
                "duration": 0.25,
                "tempo": 120.0
            },
            {
                "start_time": 6.5613636,
                "end_time": 6.8045455,
                "pitch": 43,
                "velocity": 25,
                "duration": 0.2431818,
                "tempo": 120.0
            },
            {
                "start_time": 6.8045455,
                "end_time": 7.05,
                "pitch": 43,
                "velocity": 25,
                "duration": 0.2454545,
                "tempo": 120.0
            },
            {
                "start_time": 7.05,
                "end_time": 7.3045455,
                "pitch": 43,
                "velocity": 25,
                "duration": 0.2545455,
                "tempo": 120.0
            },
            {
                "start_time": 7.3045455,
                "end_time": 7.5613636,
                "pitch": 43,
                "velocity": 25,
                "duration": 0.2568182,
                "tempo": 120.0
            },
            {
                "start_time": 7.5613636,
                "end_time": 7.8068182,
                "pitch": 43,
                "velocity": 25,
                "duration": 0.2454545,
                "tempo": 120.0
            },
            {
                "start_time": 7.8068182,
                "end_time": 8.0522727,
                "pitch": 43,
                "velocity": 25,
                "duration": 0.2454545,
                "tempo": 120.0
            },
            {
                "start_time": 8.0522727,
                "end_time": 8.3,
                "pitch": 41,
                "velocity": 25,
                "duration": 0.2477273,
                "tempo": 120.0
            },
            {
                "start_time": 8.3,
                "end_time": 8.55,
                "pitch": 41,
                "velocity": 25,
                "duration": 0.25,
                "tempo": 120.0
            },
            {
                "start_time": 8.55,
                "end_time": 8.8113636,
                "pitch": 41,
                "velocity": 25,
                "duration": 0.2613636,
                "tempo": 120.0
            },
            {
                "start_time": 8.8113636,
                "end_time": 9.0568182,
                "pitch": 41,
                "velocity": 25,
                "duration": 0.2454545,
                "tempo": 120.0
            },
            {
                "start_time": 9.0568182,
                "end_time": 9.3159091,
                "pitch": 41,
                "velocity": 25,
                "duration": 0.2590909,
                "tempo": 120.0
            },
            {
                "start_time": 9.3159091,
                "end_time": 9.575,
                "pitch": 41,
                "velocity": 25,
                "duration": 0.2590909,
                "tempo": 120.0
            },
            {
                "start_time": 9.575,
                "end_time": 9.825,
                "pitch": 41,
                "velocity": 25,
                "duration": 0.25,
                "tempo": 120.0
            },
            {
                "start_time": 9.825,
                "end_time": 10.075,
                "pitch": 41,
                "velocity": 25,
                "duration": 0.25,
                "tempo": 120.0
            },
            {
                "start_time": 10.075,
                "end_time": 10.3227273,
                "pitch": 41,
                "velocity": 25,
                "duration": 0.2477273,
                "tempo": 120.0
            },
            {
                "start_time": 10.3227273,
                "end_time": 10.5727273,
                "pitch": 40,
                "velocity": 25,
                "duration": 0.25,
                "tempo": 120.0
            },
            {
                "start_time": 10.5727273,
                "end_time": 10.8227273,
                "pitch": 40,
                "velocity": 25,
                "duration": 0.25,
                "tempo": 120.0
            },
            {
                "start_time": 10.8227273,
                "end_time": 11.0704545,
                "pitch": 40,
                "velocity": 25,
                "duration": 0.2477273,
                "tempo": 120.0
            },
            {
                "start_time": 11.0704545,
                "end_time": 11.3204545,
                "pitch": 40,
                "velocity": 25,
                "duration": 0.25,
                "tempo": 120.0
            },
            {
                "start_time": 11.3204545,
                "end_time": 11.5704545,
                "pitch": 40,
                "velocity": 25,
                "duration": 0.25,
                "tempo": 120.0
            },
            {
                "start_time": 11.5704545,
                "end_time": 11.8136364,
                "pitch": 40,
                "velocity": 25,
                "duration": 0.2431818,
                "tempo": 120.0
            },
            {
                "start_time": 11.8136364,
                "end_time": 12.0590909,
                "pitch": 40,
                "velocity": 25,
                "duration": 0.2454545,
                "tempo": 120.0
            },
            {
                "start_time": 12.0590909,
                "end_time": 12.3090909,
                "pitch": 40,
                "velocity": 25,
                "duration": 0.25,
                "tempo": 120.0
            },
            {
                "start_time": 12.3090909,
                "end_time": 12.5590909,
                "pitch": 39,
                "velocity": 25,
                "duration": 0.25,
                "tempo": 120.0
            },
            {
                "start_time": 12.5590909,
                "end_time": 12.8068182,
                "pitch": 39,
                "velocity": 25,
                "duration": 0.2477273,
                "tempo": 120.0
            },
            {
                "start_time": 12.8068182,
                "end_time": 13.0727273,
                "pitch": 39,
                "velocity": 25,
                "duration": 0.2659091,
                "tempo": 120.0
            },
            {
                "start_time": 13.0727273,
                "end_time": 13.3318182,
                "pitch": 39,
                "velocity": 25,
                "duration": 0.2590909,
                "tempo": 120.0
            },
            {
                "start_time": 13.3318182,
                "end_time": 13.5931818,
                "pitch": 39,
                "velocity": 25,
                "duration": 0.2613636,
                "tempo": 120.0
            },
            {
                "start_time": 13.5931818,
                "end_time": 13.8386364,
                "pitch": 39,
                "velocity": 25,
                "duration": 0.2454545,
                "tempo": 120.0
            },
            {
                "start_time": 13.8386364,
                "end_time": 14.0840909,
                "pitch": 39,
                "velocity": 25,
                "duration": 0.2454545,
                "tempo": 120.0
            },
            {
                "start_time": 14.0840909,
                "end_time": 14.3318182,
                "pitch": 39,
                "velocity": 25,
                "duration": 0.2477273,
                "tempo": 120.0
            },
            {
                "start_time": 14.3318182,
                "end_time": 14.5818182,
                "pitch": 38,
                "velocity": 25,
                "duration": 0.25,
                "tempo": 120.0
            },
            {
                "start_time": 14.5818182,
                "end_time": 14.8295455,
                "pitch": 38,
                "velocity": 25,
                "duration": 0.2477273,
                "tempo": 120.0
            },
            {
                "start_time": 14.8295455,
                "end_time": 15.0795455,
                "pitch": 38,
                "velocity": 25,
                "duration": 0.25,
                "tempo": 120.0
            },
            {
                "start_time": 15.0795455,
                "end_time": 15.3295455,
                "pitch": 38,
                "velocity": 25,
                "duration": 0.25,
                "tempo": 120.0
            },
            {
                "start_time": 15.3295455,
                "end_time": 15.5772727,
                "pitch": 38,
                "velocity": 25,
                "duration": 0.2477273,
                "tempo": 120.0
            },
            {
                "start_time": 15.5772727,
                "end_time": 15.8272727,
                "pitch": 38,
                "velocity": 25,
                "duration": 0.25,
                "tempo": 120.0
            },
            {
                "start_time": 15.8272727,
                "end_time": 16.0772727,
                "pitch": 38,
                "velocity": 25,
                "duration": 0.25,
                "tempo": 120.0
            },
            {
                "start_time": 16.0772727,
                "end_time": 16.325,
                "pitch": 40,
                "velocity": 25,
                "duration": 0.2477273,
                "tempo": 120.0
            },
            {
                "start_time": 16.325,
                "end_time": 16.575,
                "pitch": 40,
                "velocity": 25,
                "duration": 0.25,
                "tempo": 120.0
            },
            {
                "start_time": 16.575,
                "end_time": 16.8227273,
                "pitch": 40,
                "velocity": 25,
                "duration": 0.2477273,
                "tempo": 120.0
            },
            {
                "start_time": 16.8227273,
                "end_time": 17.0727273,
                "pitch": 40,
                "velocity": 25,
                "duration": 0.25,
                "tempo": 120.0
            },
            {
                "start_time": 17.0727273,
                "end_time": 17.3386364,
                "pitch": 40,
                "velocity": 25,
                "duration": 0.2659091,
                "tempo": 120.0
            },
            {
                "start_time": 17.3386364,
                "end_time": 17.5886364,
                "pitch": 40,
                "velocity": 25,
                "duration": 0.25,
                "tempo": 120.0
            },
            {
                "start_time": 17.5886364,
                "end_time": 17.8363636,
                "pitch": 40,
                "velocity": 25,
                "duration": 0.2477273,
                "tempo": 120.0
            },
            {
                "start_time": 17.8363636,
                "end_time": 18.0863636,
                "pitch": 40,
                "velocity": 25,
                "duration": 0.25,
                "tempo": 120.0
            },
            {
                "start_time": 18.0863636,
                "end_time": 18.3409091,
                "pitch": 40,
                "velocity": 25,
                "duration": 0.2545455,
                "tempo": 120.0
            },
            {
                "start_time": 18.3409091,
                "end_time": 18.5977273,
                "pitch": 40,
                "velocity": 25,
                "duration": 0.2568182,
                "tempo": 120.0
            },
            {
                "start_time": 18.5977273,
                "end_time": 18.8431818,
                "pitch": 40,
                "velocity": 25,
                "duration": 0.2454545,
                "tempo": 120.0
            },
            {
                "start_time": 18.8431818,
                "end_time": 19.0863636,
                "pitch": 40,
                "velocity": 25,
                "duration": 0.2431818,
                "tempo": 120.0
            },
            {
                "start_time": 19.0863636,
                "end_time": 19.3431818,
                "pitch": 40,
                "velocity": 25,
                "duration": 0.2568182,
                "tempo": 120.0
            },
            {
                "start_time": 19.3431818,
                "end_time": 19.5977273,
                "pitch": 40,
                "velocity": 25,
                "duration": 0.2545455,
                "tempo": 120.0
            },
            {
                "start_time": 19.5977273,
                "end_time": 19.8431818,
                "pitch": 40,
                "velocity": 25,
                "duration": 0.2454545,
                "tempo": 120.0
            },
            {
                "start_time": 19.8431818,
                "end_time": 20.0886364,
                "pitch": 40,
                "velocity": 25,
                "duration": 0.2454545,
                "tempo": 120.0
            },
            {
                "start_time": 20.0886364,
                "end_time": 20.3363636,
                "pitch": 40,
                "velocity": 25,
                "duration": 0.2477273,
                "tempo": 120.0
            },
            {
                "start_time": 20.3363636,
                "end_time": 20.5863636,
                "pitch": 39,
                "velocity": 25,
                "duration": 0.25,
                "tempo": 120.0
            },
            {
                "start_time": 20.5863636,
                "end_time": 20.8363636,
                "pitch": 51,
                "velocity": 25,
                "duration": 0.25,
                "tempo": 120.0
            },
            {
                "start_time": 20.8363636,
                "end_time": 21.0840909,
                "pitch": 39,
                "velocity": 25,
                "duration": 0.2477273,
                "tempo": 120.0
            },
            {
                "start_time": 21.0840909,
                "end_time": 21.3340909,
                "pitch": 39,
                "velocity": 25,
                "duration": 0.25,
                "tempo": 120.0
            },
            {
                "start_time": 21.3340909,
                "end_time": 21.6,
                "pitch": 51,
                "velocity": 25,
                "duration": 0.2659091,
                "tempo": 120.0
            },
            {
                "start_time": 21.6,
                "end_time": 21.8545455,
                "pitch": 39,
                "velocity": 25,
                "duration": 0.2545455,
                "tempo": 120.0
            },
            {
                "start_time": 21.8545455,
                "end_time": 22.1113636,
                "pitch": 39,
                "velocity": 25,
                "duration": 0.2568182,
                "tempo": 120.0
            },
            {
                "start_time": 22.1113636,
                "end_time": 22.3590909,
                "pitch": 39,
                "velocity": 25,
                "duration": 0.2477273,
                "tempo": 120.0
            },
            {
                "start_time": 22.3590909,
                "end_time": 22.6090909,
                "pitch": 39,
                "velocity": 25,
                "duration": 0.25,
                "tempo": 120.0
            },
            {
                "start_time": 22.6090909,
                "end_time": 22.8590909,
                "pitch": 51,
                "velocity": 25,
                "duration": 0.25,
                "tempo": 120.0
            },
            {
                "start_time": 22.8590909,
                "end_time": 23.1068182,
                "pitch": 39,
                "velocity": 25,
                "duration": 0.2477273,
                "tempo": 120.0
            },
            {
                "start_time": 23.1068182,
                "end_time": 23.3568182,
                "pitch": 51,
                "velocity": 25,
                "duration": 0.25,
                "tempo": 120.0
            },
            {
                "start_time": 23.3568182,
                "end_time": 23.6068182,
                "pitch": 39,
                "velocity": 25,
                "duration": 0.25,
                "tempo": 120.0
            },
            {
                "start_time": 23.6068182,
                "end_time": 23.8522727,
                "pitch": 39,
                "velocity": 25,
                "duration": 0.2454545,
                "tempo": 120.0
            },
            {
                "start_time": 23.8522727,
                "end_time": 24.0977273,
                "pitch": 51,
                "velocity": 25,
                "duration": 0.2454545,
                "tempo": 120.0
            },
            {
                "start_time": 24.0977273,
                "end_time": 24.3522727,
                "pitch": 42,
                "velocity": 25,
                "duration": 0.2545455,
                "tempo": 120.0
            },
            {
                "start_time": 24.3522727,
                "end_time": 24.6068182,
                "pitch": 42,
                "velocity": 25,
                "duration": 0.2545455,
                "tempo": 120.0
            },
            {
                "start_time": 6.0636364,
                "end_time": 24.8522727,
                "pitch": 54,
                "velocity": 25,
                "duration": 18.7886364,
                "tempo": 120.0
            },
            {
                "start_time": 24.6068182,
                "end_time": 24.8522727,
                "pitch": 54,
                "velocity": 25,
                "duration": 0.2454545,
                "tempo": 120.0
            },
            {
                "start_time": 24.8522727,
                "end_time": 25.0977273,
                "pitch": 42,
                "velocity": 25,
                "duration": 0.2454545,
                "tempo": 120.0
            },
            {
                "start_time": 25.0977273,
                "end_time": 25.3477273,
                "pitch": 42,
                "velocity": 25,
                "duration": 0.25,
                "tempo": 120.0
            },
            {
                "start_time": 25.3477273,
                "end_time": 25.5954545,
                "pitch": 54,
                "velocity": 25,
                "duration": 0.2477273,
                "tempo": 120.0
            },
            {
                "start_time": 25.5954545,
                "end_time": 25.8613636,
                "pitch": 42,
                "velocity": 25,
                "duration": 0.2659091,
                "tempo": 120.0
            },
            {
                "start_time": 25.8613636,
                "end_time": 26.1113636,
                "pitch": 42,
                "velocity": 25,
                "duration": 0.25,
                "tempo": 120.0
            },
            {
                "start_time": 26.1113636,
                "end_time": 26.3659091,
                "pitch": 42,
                "velocity": 25,
                "duration": 0.2545455,
                "tempo": 120.0
            },
            {
                "start_time": 26.3659091,
                "end_time": 26.6227273,
                "pitch": 42,
                "velocity": 25,
                "duration": 0.2568182,
                "tempo": 120.0
            },
            {
                "start_time": 26.6227273,
                "end_time": 26.8704545,
                "pitch": 54,
                "velocity": 25,
                "duration": 0.2477273,
                "tempo": 120.0
            },
            {
                "start_time": 26.8704545,
                "end_time": 27.1204545,
                "pitch": 42,
                "velocity": 25,
                "duration": 0.25,
                "tempo": 120.0
            },
            {
                "start_time": 27.1204545,
                "end_time": 27.3704545,
                "pitch": 54,
                "velocity": 25,
                "duration": 0.25,
                "tempo": 120.0
            },
            {
                "start_time": 27.3704545,
                "end_time": 27.6181818,
                "pitch": 42,
                "velocity": 25,
                "duration": 0.2477273,
                "tempo": 120.0
            },
            {
                "start_time": 27.6181818,
                "end_time": 27.8681818,
                "pitch": 42,
                "velocity": 25,
                "duration": 0.25,
                "tempo": 120.0
            },
            {
                "start_time": 27.8681818,
                "end_time": 28.1181818,
                "pitch": 54,
                "velocity": 25,
                "duration": 0.25,
                "tempo": 120.0
            },
            {
                "start_time": 28.1181818,
                "end_time": 28.3659091,
                "pitch": 44,
                "velocity": 25,
                "duration": 0.2477273,
                "tempo": 120.0
            },
            {
                "start_time": 28.3659091,
                "end_time": 28.6159091,
                "pitch": 44,
                "velocity": 25,
                "duration": 0.25,
                "tempo": 120.0
            },
            {
                "start_time": 28.6159091,
                "end_time": 28.8636364,
                "pitch": 56,
                "velocity": 25,
                "duration": 0.2477273,
                "tempo": 120.0
            },
            {
                "start_time": 28.8636364,
                "end_time": 29.1136364,
                "pitch": 44,
                "velocity": 25,
                "duration": 0.25,
                "tempo": 120.0
            },
            {
                "start_time": 29.1136364,
                "end_time": 29.3636364,
                "pitch": 44,
                "velocity": 25,
                "duration": 0.25,
                "tempo": 120.0
            },
            {
                "start_time": 29.3636364,
                "end_time": 29.6113636,
                "pitch": 56,
                "velocity": 25,
                "duration": 0.2477273,
                "tempo": 120.0
            },
            {
                "start_time": 29.6113636,
                "end_time": 29.8568182,
                "pitch": 44,
                "velocity": 25,
                "duration": 0.2454545,
                "tempo": 120.0
            },
            {
                "start_time": 29.8568182,
                "end_time": 30.1181818,
                "pitch": 44,
                "velocity": 25,
                "duration": 0.2613636,
                "tempo": 120.0
            },
            {
                "start_time": 30.1181818,
                "end_time": 30.3772727,
                "pitch": 44,
                "velocity": 25,
                "duration": 0.2590909,
                "tempo": 120.0
            },
            {
                "start_time": 30.3772727,
                "end_time": 30.6386364,
                "pitch": 44,
                "velocity": 25,
                "duration": 0.2613636,
                "tempo": 120.0
            },
            {
                "start_time": 30.6386364,
                "end_time": 30.8840909,
                "pitch": 56,
                "velocity": 25,
                "duration": 0.2454545,
                "tempo": 120.0
            },
            {
                "start_time": 30.8840909,
                "end_time": 31.1295455,
                "pitch": 44,
                "velocity": 25,
                "duration": 0.2454545,
                "tempo": 120.0
            },
            {
                "start_time": 31.1295455,
                "end_time": 31.3772727,
                "pitch": 56,
                "velocity": 25,
                "duration": 0.2477273,
                "tempo": 120.0
            },
            {
                "start_time": 31.3772727,
                "end_time": 31.6272727,
                "pitch": 44,
                "velocity": 25,
                "duration": 0.25,
                "tempo": 120.0
            },
            {
                "start_time": 31.6272727,
                "end_time": 31.8772727,
                "pitch": 44,
                "velocity": 25,
                "duration": 0.25,
                "tempo": 120.0
            },
            {
                "start_time": 31.8772727,
                "end_time": 32.125,
                "pitch": 56,
                "velocity": 25,
                "duration": 0.2477273,
                "tempo": 120.0
            },
            {
                "start_time": 32.125,
                "end_time": 32.375,
                "pitch": 46,
                "velocity": 25,
                "duration": 0.25,
                "tempo": 120.0
            },
            {
                "start_time": 32.375,
                "end_time": 32.6227273,
                "pitch": 46,
                "velocity": 25,
                "duration": 0.2477273,
                "tempo": 120.0
            },
            {
                "start_time": 32.6227273,
                "end_time": 32.8727273,
                "pitch": 58,
                "velocity": 25,
                "duration": 0.25,
                "tempo": 120.0
            },
            {
                "start_time": 32.8727273,
                "end_time": 33.1227273,
                "pitch": 46,
                "velocity": 25,
                "duration": 0.25,
                "tempo": 120.0
            },
            {
                "start_time": 33.1227273,
                "end_time": 33.3704545,
                "pitch": 46,
                "velocity": 25,
                "duration": 0.2477273,
                "tempo": 120.0
            },
            {
                "start_time": 33.3704545,
                "end_time": 33.6204545,
                "pitch": 58,
                "velocity": 25,
                "duration": 0.25,
                "tempo": 120.0
            },
            {
                "start_time": 33.6204545,
                "end_time": 33.8659091,
                "pitch": 46,
                "velocity": 25,
                "duration": 0.2454545,
                "tempo": 120.0
            },
            {
                "start_time": 33.8659091,
                "end_time": 34.1113636,
                "pitch": 46,
                "velocity": 25,
                "duration": 0.2454545,
                "tempo": 120.0
            },
            {
                "start_time": 34.1113636,
                "end_time": 34.3818182,
                "pitch": 46,
                "velocity": 25,
                "duration": 0.2704545,
                "tempo": 120.0
            },
            {
                "start_time": 34.3840909,
                "end_time": 34.6386364,
                "pitch": 46,
                "velocity": 25,
                "duration": 0.2545455,
                "tempo": 120.0
            },
            {
                "start_time": 34.6386364,
                "end_time": 34.8931818,
                "pitch": 46,
                "velocity": 25,
                "duration": 0.2545455,
                "tempo": 120.0
            },
            {
                "start_time": 34.8931818,
                "end_time": 35.15,
                "pitch": 58,
                "velocity": 25,
                "duration": 0.2568182,
                "tempo": 120.0
            },
            {
                "start_time": 35.15,
                "end_time": 35.4,
                "pitch": 46,
                "velocity": 25,
                "duration": 0.25,
                "tempo": 120.0
            },
            {
                "start_time": 35.4,
                "end_time": 35.6477273,
                "pitch": 46,
                "velocity": 25,
                "duration": 0.2477273,
                "tempo": 120.0
            },
            {
                "start_time": 35.6477273,
                "end_time": 35.8931818,
                "pitch": 45,
                "velocity": 25,
                "duration": 0.2454545,
                "tempo": 120.0
            },
            {
                "start_time": 32.125,
                "end_time": 36.1136364,
                "pitch": 44,
                "velocity": 25,
                "duration": 3.9886364,
                "tempo": 120.0
            },
            {
                "start_time": 35.8931818,
                "end_time": 36.1136364,
                "pitch": 44,
                "velocity": 25,
                "duration": 0.2204545,
                "tempo": 120.0
            }
        ]
    }
}