{
    "mood": "angry",
    "instruments": {
        "Electric Piano 1": [
            {
                "start_time": 0.4818182,
                "end_time": 0.6409091,
                "pitch": 53,
                "velocity": 51,
                "duration": 0.1590909,
                "tempo": 120.0
            },
            {
                "start_time": 0.6409091,
                "end_time": 0.9454545,
                "pitch": 51,
                "velocity": 51,
                "duration": 0.3045455,
                "tempo": 120.0
            },
            {
                "start_time": 0.9477273,
                "end_time": 1.3545455,
                "pitch": 53,
                "velocity": 51,
                "duration": 0.4068182,
                "tempo": 120.0
            },
            {
                "start_time": 1.3568182,
                "end_time": 1.4409091,
                "pitch": 51,
                "velocity": 51,
                "duration": 0.0840909,
                "tempo": 120.0
            },
            {
                "start_time": 2.4113636,
                "end_time": 2.6477273,
                "pitch": 65,
                "velocity": 51,
                "duration": 0.2363636,
                "tempo": 120.0
            },
            {
                "start_time": 2.6477273,
                "end_time": 2.8886364,
                "pitch": 63,
                "velocity": 51,
                "duration": 0.2409091,
                "tempo": 120.0
            },
            {
                "start_time": 2.8886364,
                "end_time": 3.1340909,
                "pitch": 77,
                "velocity": 51,
                "duration": 0.2454545,
                "tempo": 120.0
            },
            {
                "start_time": 3.1340909,
                "end_time": 3.3659091,
                "pitch": 75,
                "velocity": 51,
                "duration": 0.2318182,
                "tempo": 120.0
            },
            {
                "start_time": 3.3659091,
                "end_time": 3.5318182,
                "pitch": 74,
                "velocity": 51,
                "duration": 0.1659091,
                "tempo": 120.0
            },
            {
                "start_time": 3.5318182,
                "end_time": 3.6159091,
                "pitch": 75,
                "velocity": 51,
                "duration": 0.0840909,
                "tempo": 120.0
            },
            {
                "start_time": 3.6159091,
                "end_time": 3.7636364,
                "pitch": 77,
                "velocity": 51,
                "duration": 0.1477273,
                "tempo": 120.0
            },
            {
                "start_time": 3.7636364,
                "end_time": 3.85,
                "pitch": 77,
                "velocity": 51,
                "duration": 0.0863636,
                "tempo": 120.0
            },
            {
                "start_time": 4.3340909,
                "end_time": 4.4863636,
                "pitch": 53,
                "velocity": 51,
                "duration": 0.1522727,
                "tempo": 120.0
            },
            {
                "start_time": 4.4863636,
                "end_time": 4.8295455,
                "pitch": 51,
                "velocity": 51,
                "duration": 0.3431818,
                "tempo": 120.0
            },
            {
                "start_time": 4.8295455,
                "end_time": 5.2318182,
                "pitch": 53,
                "velocity": 51,
                "duration": 0.4022727,
                "tempo": 120.0
            },
            {
                "start_time": 5.2318182,
                "end_time": 5.3,
                "pitch": 51,
                "velocity": 51,
                "duration": 0.0681818,
                "tempo": 120.0
            },
            {
                "start_time": 6.2590909,
                "end_time": 6.4977273,
                "pitch": 65,
                "velocity": 51,
                "duration": 0.2386364,
                "tempo": 120.0
            },
            {
                "start_time": 6.4977273,
                "end_time": 6.7545455,
                "pitch": 63,
                "velocity": 51,
                "duration": 0.2568182,
                "tempo": 120.0
            },
            {
                "start_time": 6.7545455,
                "end_time": 6.9909091,
                "pitch": 77,
                "velocity": 51,
                "duration": 0.2363636,
                "tempo": 120.0
            },
            {
                "start_time": 6.9909091,
                "end_time": 7.2431818,
                "pitch": 75,
                "velocity": 51,
                "duration": 0.2522727,
                "tempo": 120.0
            },
            {
                "start_time": 7.2431818,
                "end_time": 7.3931818,
                "pitch": 74,
                "velocity": 51,
                "duration": 0.15,
                "tempo": 120.0
            },
            {
                "start_time": 7.3931818,
                "end_time": 7.4772727,
                "pitch": 75,
                "velocity": 51,
                "duration": 0.0840909,
                "tempo": 120.0
            },
            {
                "start_time": 7.4772727,
                "end_time": 7.6431818,
                "pitch": 77,
                "velocity": 51,
                "duration": 0.1659091,
                "tempo": 120.0
            },
            {
                "start_time": 7.6431818,
                "end_time": 7.7113636,
                "pitch": 77,
                "velocity": 51,
                "duration": 0.0681818,
                "tempo": 120.0
            },
            {
                "start_time": 8.1863636,
                "end_time": 8.3522727,
                "pitch": 56,
                "velocity": 51,
                "duration": 0.1659091,
                "tempo": 120.0
            },
            {
                "start_time": 8.3522727,
                "end_time": 8.6704545,
                "pitch": 54,
                "velocity": 51,
                "duration": 0.3181818,
                "tempo": 120.0
            },
            {
                "start_time": 8.6704545,
                "end_time": 9.0795455,
                "pitch": 56,
                "velocity": 51,
                "duration": 0.4090909,
                "tempo": 120.0
            },
            {
                "start_time": 9.0795455,
                "end_time": 9.1659091,
                "pitch": 54,
                "velocity": 51,
                "duration": 0.0863636,
                "tempo": 120.0
            },
            {
                "start_time": 10.1340909,
                "end_time": 10.3795455,
                "pitch": 68,
                "velocity": 51,
                "duration": 0.2454545,
                "tempo": 120.0
            },
            {
                "start_time": 10.3795455,
                "end_time": 10.6090909,
                "pitch": 66,
                "velocity": 51,
                "duration": 0.2295455,
                "tempo": 120.0
            },
            {
                "start_time": 10.6090909,
                "end_time": 10.8613636,
                "pitch": 80,
                "velocity": 51,
                "duration": 0.2522727,
                "tempo": 120.0
            },
            {
                "start_time": 10.8613636,
                "end_time": 11.0977273,
                "pitch": 78,
                "velocity": 51,
                "duration": 0.2363636,
                "tempo": 120.0
            },
            {
                "start_time": 11.0977273,
                "end_time": 11.2636364,
                "pitch": 77,
                "velocity": 51,
                "duration": 0.1659091,
                "tempo": 120.0
            },
            {
                "start_time": 11.2636364,
                "end_time": 11.3318182,
                "pitch": 78,
                "velocity": 51,
                "duration": 0.0681818,
                "tempo": 120.0
            },
            {
                "start_time": 11.3340909,
                "end_time": 11.5,
                "pitch": 80,
                "velocity": 51,
                "duration": 0.1659091,
                "tempo": 120.0
            },
            {
                "start_time": 11.5,
                "end_time": 11.5863636,
                "pitch": 80,
                "velocity": 51,
                "duration": 0.0863636,
                "tempo": 120.0
            },
            {
                "start_time": 12.0681818,
                "end_time": 12.2227273,
                "pitch": 56,
                "velocity": 51,
                "duration": 0.1545455,
                "tempo": 120.0
            },
            {
                "start_time": 12.2227273,
                "end_time": 12.5477273,
                "pitch": 54,
                "velocity": 51,
                "duration": 0.325,
                "tempo": 120.0
            },
            {
                "start_time": 12.5477273,
                "end_time": 12.9409091,
                "pitch": 56,
                "velocity": 51,
                "duration": 0.3931818,
                "tempo": 120.0
            },
            {
                "start_time": 12.9409091,
                "end_time": 13.025,
                "pitch": 54,
                "velocity": 51,
                "duration": 0.0840909,
                "tempo": 120.0
            },
            {
                "start_time": 14.0,
                "end_time": 14.2386364,
                "pitch": 68,
                "velocity": 51,
                "duration": 0.2386364,
                "tempo": 120.0
            },
            {
                "start_time": 14.2386364,
                "end_time": 14.4954545,
                "pitch": 66,
                "velocity": 51,
                "duration": 0.2568182,
                "tempo": 120.0
            },
            {
                "start_time": 14.4954545,
                "end_time": 14.7318182,
                "pitch": 80,
                "velocity": 51,
                "duration": 0.2363636,
                "tempo": 120.0
            },
            {
                "start_time": 14.7318182,
                "end_time": 14.9659091,
                "pitch": 78,
                "velocity": 51,
                "duration": 0.2340909,
                "tempo": 120.0
            },
            {
                "start_time": 14.9659091,
                "end_time": 15.1295455,
                "pitch": 77,
                "velocity": 51,
                "duration": 0.1636364,
                "tempo": 120.0
            },
            {
                "start_time": 15.1295455,
                "end_time": 15.2136364,
                "pitch": 78,
                "velocity": 51,
                "duration": 0.0840909,
                "tempo": 120.0
            },
            {
                "start_time": 15.2136364,
                "end_time": 15.3590909,
                "pitch": 80,
                "velocity": 51,
                "duration": 0.1454545,
                "tempo": 120.0
            },
            {
                "start_time": 15.3590909,
                "end_time": 15.4431818,
                "pitch": 80,
                "velocity": 51,
                "duration": 0.0840909,
                "tempo": 120.0
            }
        ],
        "Lead 2 (sawtooth)": [
            {
                "start_time": 1.675,
                "end_time": 1.8409091,
                "pitch": 77,
                "velocity": 64,
                "duration": 0.1659091,
                "tempo": 120.0
            },
            {
                "start_time": 1.8409091,
                "end_time": 1.925,
                "pitch": 77,
                "velocity": 64,
                "duration": 0.0840909,
                "tempo": 120.0
            },
            {
                "start_time": 5.5454545,
                "end_time": 5.6931818,
                "pitch": 77,
                "velocity": 64,
                "duration": 0.1477273,
                "tempo": 120.0
            },
            {
                "start_time": 5.6931818,
                "end_time": 5.775,
                "pitch": 77,
                "velocity": 64,
                "duration": 0.0818182,
                "tempo": 120.0
            },
            {
                "start_time": 9.4022727,
                "end_time": 9.5681818,
                "pitch": 80,
                "velocity": 64,
                "duration": 0.1659091,
                "tempo": 120.0
            },
            {
                "start_time": 9.5704545,
                "end_time": 9.6545455,
                "pitch": 80,
                "velocity": 64,
                "duration": 0.0840909,
                "tempo": 120.0
            },
            {
                "start_time": 13.2772727,
                "end_time": 13.4272727,
                "pitch": 80,
                "velocity": 64,
                "duration": 0.15,
                "tempo": 120.0
            },
            {
                "start_time": 13.4272727,
                "end_time": 13.5113636,
                "pitch": 80,
                "velocity": 64,
                "duration": 0.0840909,
                "tempo": 120.0
            }
        ],
        "Harpsichord": [
            {
                "start_time": 0.0136364,
                "end_time": 0.6409091,
                "pitch": 34,
                "velocity": 51,
                "duration": 0.6272727,
                "tempo": 120.0
            },
            {
                "start_time": 0.6409091,
                "end_time": 0.7204545,
                "pitch": 27,
                "velocity": 51,
                "duration": 0.0795455,
                "tempo": 120.0
            },
            {
                "start_time": 0.7204545,
                "end_time": 0.8659091,
                "pitch": 34,
                "velocity": 51,
                "duration": 0.1454545,
                "tempo": 120.0
            },
            {
                "start_time": 0.8659091,
                "end_time": 0.9477273,
                "pitch": 34,
                "velocity": 51,
                "duration": 0.0818182,
                "tempo": 120.0
            },
            {
                "start_time": 1.6068182,
                "end_time": 1.6772727,
                "pitch": 27,
                "velocity": 51,
                "duration": 0.0704545,
                "tempo": 120.0
            },
            {
                "start_time": 1.6772727,
                "end_time": 1.8409091,
                "pitch": 32,
                "velocity": 51,
                "duration": 0.1636364,
                "tempo": 120.0
            },
            {
                "start_time": 1.8431818,
                "end_time": 2.075,
                "pitch": 34,
                "velocity": 51,
                "duration": 0.2318182,
                "tempo": 120.0
            },
            {
                "start_time": 2.075,
                "end_time": 2.1590909,
                "pitch": 34,
                "velocity": 51,
                "duration": 0.0840909,
                "tempo": 120.0
            },
            {
                "start_time": 2.1590909,
                "end_time": 2.325,
                "pitch": 46,
                "velocity": 51,
                "duration": 0.1659091,
                "tempo": 120.0
            },
            {
                "start_time": 2.325,
                "end_time": 2.4113636,
                "pitch": 34,
                "velocity": 51,
                "duration": 0.0863636,
                "tempo": 120.0
            },
            {
                "start_time": 2.4113636,
                "end_time": 2.5613636,
                "pitch": 44,
                "velocity": 51,
                "duration": 0.15,
                "tempo": 120.0
            },
            {
                "start_time": 2.5613636,
                "end_time": 2.6477273,
                "pitch": 34,
                "velocity": 51,
                "duration": 0.0863636,
                "tempo": 120.0
            },
            {
                "start_time": 2.65,
                "end_time": 2.6636364,
                "pitch": 29,
                "velocity": 51,
                "duration": 0.0136364,
                "tempo": 120.0
            },
            {
                "start_time": 2.6636364,
                "end_time": 2.7159091,
                "pitch": 31,
                "velocity": 51,
                "duration": 0.0522727,
                "tempo": 120.0
            },
            {
                "start_time": 2.7159091,
                "end_time": 2.7340909,
                "pitch": 35,
                "velocity": 51,
                "duration": 0.0181818,
                "tempo": 120.0
            },
            {
                "start_time": 2.7340909,
                "end_time": 2.75,
                "pitch": 36,
                "velocity": 51,
                "duration": 0.0159091,
                "tempo": 120.0
            },
            {
                "start_time": 2.75,
                "end_time": 2.7681818,
                "pitch": 39,
                "velocity": 51,
                "duration": 0.0181818,
                "tempo": 120.0
            },
            {
                "start_time": 2.7681818,
                "end_time": 2.7840909,
                "pitch": 41,
                "velocity": 51,
                "duration": 0.0159091,
                "tempo": 120.0
            },
            {
                "start_time": 2.7840909,
                "end_time": 2.8181818,
                "pitch": 43,
                "velocity": 51,
                "duration": 0.0340909,
                "tempo": 120.0
            },
            {
                "start_time": 2.8204545,
                "end_time": 2.8886364,
                "pitch": 34,
                "velocity": 51,
                "duration": 0.0681818,
                "tempo": 120.0
            },
            {
                "start_time": 2.8886364,
                "end_time": 3.0522727,
                "pitch": 41,
                "velocity": 51,
                "duration": 0.1636364,
                "tempo": 120.0
            },
            {
                "start_time": 3.0522727,
                "end_time": 3.1363636,
                "pitch": 34,
                "velocity": 51,
                "duration": 0.0840909,
                "tempo": 120.0
            },
            {
                "start_time": 3.1363636,
                "end_time": 3.2818182,
                "pitch": 43,
                "velocity": 51,
                "duration": 0.1454545,
                "tempo": 120.0
            },
            {
                "start_time": 3.2818182,
                "end_time": 3.3659091,
                "pitch": 34,
                "velocity": 51,
                "duration": 0.0840909,
                "tempo": 120.0
            },
            {
                "start_time": 3.3659091,
                "end_time": 3.5318182,
                "pitch": 41,
                "velocity": 51,
                "duration": 0.1659091,
                "tempo": 120.0
            },
            {
                "start_time": 3.5318182,
                "end_time": 3.6159091,
                "pitch": 34,
                "velocity": 51,
                "duration": 0.0840909,
                "tempo": 120.0
            },
            {
                "start_time": 3.6159091,
                "end_time": 3.7659091,
                "pitch": 36,
                "velocity": 51,
                "duration": 0.15,
                "tempo": 120.0
            },
            {
                "start_time": 3.7659091,
                "end_time": 3.85,
                "pitch": 34,
                "velocity": 51,
                "duration": 0.0840909,
                "tempo": 120.0
            },
            {
                "start_time": 3.85,
                "end_time": 4.4863636,
                "pitch": 34,
                "velocity": 51,
                "duration": 0.6363636,
                "tempo": 120.0
            },
            {
                "start_time": 4.4863636,
                "end_time": 4.5704545,
                "pitch": 27,
                "velocity": 51,
                "duration": 0.0840909,
                "tempo": 120.0
            },
            {
                "start_time": 4.5727273,
                "end_time": 4.7409091,
                "pitch": 34,
                "velocity": 51,
                "duration": 0.1681818,
                "tempo": 120.0
            },
            {
                "start_time": 4.7409091,
                "end_time": 4.8295455,
                "pitch": 34,
                "velocity": 51,
                "duration": 0.0886364,
                "tempo": 120.0
            },
            {
                "start_time": 5.4636364,
                "end_time": 5.5477273,
                "pitch": 27,
                "velocity": 51,
                "duration": 0.0840909,
                "tempo": 120.0
            },
            {
                "start_time": 5.5477273,
                "end_time": 5.6931818,
                "pitch": 32,
                "velocity": 51,
                "duration": 0.1454545,
                "tempo": 120.0
            },
            {
                "start_time": 5.6931818,
                "end_time": 5.9409091,
                "pitch": 34,
                "velocity": 51,
                "duration": 0.2477273,
                "tempo": 120.0
            },
            {
                "start_time": 5.9409091,
                "end_time": 6.025,
                "pitch": 34,
                "velocity": 51,
                "duration": 0.0840909,
                "tempo": 120.0
            },
            {
                "start_time": 6.0272727,
                "end_time": 6.175,
                "pitch": 46,
                "velocity": 51,
                "duration": 0.1477273,
                "tempo": 120.0
            },
            {
                "start_time": 6.175,
                "end_time": 6.2613636,
                "pitch": 34,
                "velocity": 51,
                "duration": 0.0863636,
                "tempo": 120.0
            },
            {
                "start_time": 6.2613636,
                "end_time": 6.4295455,
                "pitch": 44,
                "velocity": 51,
                "duration": 0.1681818,
                "tempo": 120.0
            },
            {
                "start_time": 6.4295455,
                "end_time": 6.4977273,
                "pitch": 34,
                "velocity": 51,
                "duration": 0.0681818,
                "tempo": 120.0
            },
            {
                "start_time": 6.4977273,
                "end_time": 6.5318182,
                "pitch": 29,
                "velocity": 51,
                "duration": 0.0340909,
                "tempo": 120.0
            },
            {
                "start_time": 6.5318182,
                "end_time": 6.5659091,
                "pitch": 31,
                "velocity": 51,
                "duration": 0.0340909,
                "tempo": 120.0
            },
            {
                "start_time": 2.7340909,
                "end_time": 6.5818182,
                "pitch": 24,
                "velocity": 51,
                "duration": 3.8477273,
                "tempo": 120.0
            },
            {
                "start_time": 6.5659091,
                "end_time": 6.5818182,
                "pitch": 35,
                "velocity": 51,
                "duration": 0.0159091,
                "tempo": 120.0
            },
            {
                "start_time": 6.5818182,
                "end_time": 6.6,
                "pitch": 36,
                "velocity": 51,
                "duration": 0.0181818,
                "tempo": 120.0
            },
            {
                "start_time": 6.6,
                "end_time": 6.6340909,
                "pitch": 39,
                "velocity": 51,
                "duration": 0.0340909,
                "tempo": 120.0
            },
            {
                "start_time": 6.6340909,
                "end_time": 6.6522727,
                "pitch": 41,
                "velocity": 51,
                "duration": 0.0181818,
                "tempo": 120.0
            },
            {
                "start_time": 6.6522727,
                "end_time": 6.6681818,
                "pitch": 43,
                "velocity": 51,
                "duration": 0.0159091,
                "tempo": 120.0
            },
            {
                "start_time": 6.6681818,
                "end_time": 6.7568182,
                "pitch": 34,
                "velocity": 51,
                "duration": 0.0886364,
                "tempo": 120.0
            },
            {
                "start_time": 6.7568182,
                "end_time": 6.9068182,
                "pitch": 41,
                "velocity": 51,
                "duration": 0.15,
                "tempo": 120.0
            },
            {
                "start_time": 6.9068182,
                "end_time": 6.9909091,
                "pitch": 34,
                "velocity": 51,
                "duration": 0.0840909,
                "tempo": 120.0
            },
            {
                "start_time": 6.9909091,
                "end_time": 7.1590909,
                "pitch": 43,
                "velocity": 51,
                "duration": 0.1681818,
                "tempo": 120.0
            },
            {
                "start_time": 7.1590909,
                "end_time": 7.2431818,
                "pitch": 34,
                "velocity": 51,
                "duration": 0.0840909,
                "tempo": 120.0
            },
            {
                "start_time": 7.2431818,
                "end_time": 7.3931818,
                "pitch": 41,
                "velocity": 51,
                "duration": 0.15,
                "tempo": 120.0
            },
            {
                "start_time": 7.3931818,
                "end_time": 7.4772727,
                "pitch": 34,
                "velocity": 51,
                "duration": 0.0840909,
                "tempo": 120.0
            },
            {
                "start_time": 7.4772727,
                "end_time": 7.6431818,
                "pitch": 36,
                "velocity": 51,
                "duration": 0.1659091,
                "tempo": 120.0
            },
            {
                "start_time": 7.6431818,
                "end_time": 7.7113636,
                "pitch": 34,
                "velocity": 51,
                "duration": 0.0681818,
                "tempo": 120.0
            },
            {
                "start_time": 7.7113636,
                "end_time": 8.3522727,
                "pitch": 37,
                "velocity": 51,
                "duration": 0.6409091,
                "tempo": 120.0
            },
            {
                "start_time": 8.3545455,
                "end_time": 8.4363636,
                "pitch": 30,
                "velocity": 51,
                "duration": 0.0818182,
                "tempo": 120.0
            },
            {
                "start_time": 8.4363636,
                "end_time": 8.5863636,
                "pitch": 37,
                "velocity": 51,
                "duration": 0.15,
                "tempo": 120.0
            },
            {
                "start_time": 8.5863636,
                "end_time": 8.6704545,
                "pitch": 37,
                "velocity": 51,
                "duration": 0.0840909,
                "tempo": 120.0
            },
            {
                "start_time": 9.3159091,
                "end_time": 9.4022727,
                "pitch": 30,
                "velocity": 51,
                "duration": 0.0863636,
                "tempo": 120.0
            },
            {
                "start_time": 9.4022727,
                "end_time": 9.5704545,
                "pitch": 35,
                "velocity": 51,
                "duration": 0.1681818,
                "tempo": 120.0
            },
            {
                "start_time": 9.5704545,
                "end_time": 9.8068182,
                "pitch": 37,
                "velocity": 51,
                "duration": 0.2363636,
                "tempo": 120.0
            },
            {
                "start_time": 9.8068182,
                "end_time": 9.8931818,
                "pitch": 37,
                "velocity": 51,
                "duration": 0.0863636,
                "tempo": 120.0
            },
            {
                "start_time": 9.8931818,
                "end_time": 10.0636364,
                "pitch": 49,
                "velocity": 51,
                "duration": 0.1704545,
                "tempo": 120.0
            },
            {
                "start_time": 10.0636364,
                "end_time": 10.1340909,
                "pitch": 37,
                "velocity": 51,
                "duration": 0.0704545,
                "tempo": 120.0
            },
            {
                "start_time": 10.1340909,
                "end_time": 10.2954545,
                "pitch": 47,
                "velocity": 51,
                "duration": 0.1613636,
                "tempo": 120.0
            },
            {
                "start_time": 10.2954545,
                "end_time": 10.3795455,
                "pitch": 37,
                "velocity": 51,
                "duration": 0.0840909,
                "tempo": 120.0
            },
            {
                "start_time": 10.3795455,
                "end_time": 10.4113636,
                "pitch": 32,
                "velocity": 51,
                "duration": 0.0318182,
                "tempo": 120.0
            },
            {
                "start_time": 10.4113636,
                "end_time": 10.4272727,
                "pitch": 35,
                "velocity": 51,
                "duration": 0.0159091,
                "tempo": 120.0
            },
            {
                "start_time": 10.4272727,
                "end_time": 10.4590909,
                "pitch": 37,
                "velocity": 51,
                "duration": 0.0318182,
                "tempo": 120.0
            },
            {
                "start_time": 10.4590909,
                "end_time": 10.4772727,
                "pitch": 40,
                "velocity": 51,
                "duration": 0.0181818,
                "tempo": 120.0
            },
            {
                "start_time": 10.4772727,
                "end_time": 10.5090909,
                "pitch": 42,
                "velocity": 51,
                "duration": 0.0318182,
                "tempo": 120.0
            },
            {
                "start_time": 10.5090909,
                "end_time": 10.5272727,
                "pitch": 46,
                "velocity": 51,
                "duration": 0.0181818,
                "tempo": 120.0
            },
            {
                "start_time": 10.5272727,
                "end_time": 10.6090909,
                "pitch": 37,
                "velocity": 51,
                "duration": 0.0818182,
                "tempo": 120.0
            },
            {
                "start_time": 10.6113636,
                "end_time": 10.7772727,
                "pitch": 44,
                "velocity": 51,
                "duration": 0.1659091,
                "tempo": 120.0
            },
            {
                "start_time": 10.7772727,
                "end_time": 10.8613636,
                "pitch": 37,
                "velocity": 51,
                "duration": 0.0840909,
                "tempo": 120.0
            },
            {
                "start_time": 10.8613636,
                "end_time": 11.0113636,
                "pitch": 46,
                "velocity": 51,
                "duration": 0.15,
                "tempo": 120.0
            },
            {
                "start_time": 11.0113636,
                "end_time": 11.0977273,
                "pitch": 37,
                "velocity": 51,
                "duration": 0.0863636,
                "tempo": 120.0
            },
            {
                "start_time": 11.0977273,
                "end_time": 11.2659091,
                "pitch": 44,
                "velocity": 51,
                "duration": 0.1681818,
                "tempo": 120.0
            },
            {
                "start_time": 11.2659091,
                "end_time": 11.3340909,
                "pitch": 37,
                "velocity": 51,
                "duration": 0.0681818,
                "tempo": 120.0
            },
            {
                "start_time": 11.3340909,
                "end_time": 11.5,
                "pitch": 39,
                "velocity": 51,
                "duration": 0.1659091,
                "tempo": 120.0
            },
            {
                "start_time": 11.5,
                "end_time": 11.5863636,
                "pitch": 37,
                "velocity": 51,
                "duration": 0.0863636,
                "tempo": 120.0
            },
            {
                "start_time": 11.5863636,
                "end_time": 12.2227273,
                "pitch": 37,
                "velocity": 51,
                "duration": 0.6363636,
                "tempo": 120.0
            },
            {
                "start_time": 12.2227273,
                "end_time": 12.3068182,
                "pitch": 30,
                "velocity": 51,
                "duration": 0.0840909,
                "tempo": 120.0
            },
            {
                "start_time": 12.3068182,
                "end_time": 12.4772727,
                "pitch": 37,
                "velocity": 51,
                "duration": 0.1704545,
                "tempo": 120.0
            },
            {
                "start_time": 12.4772727,
                "end_time": 12.5477273,
                "pitch": 37,
                "velocity": 51,
                "duration": 0.0704545,
                "tempo": 120.0
            },
            {
                "start_time": 13.1909091,
                "end_time": 13.2772727,
                "pitch": 30,
                "velocity": 51,
                "duration": 0.0863636,
                "tempo": 120.0
            },
            {
                "start_time": 13.2772727,
                "end_time": 13.4272727,
                "pitch": 35,
                "velocity": 51,
                "duration": 0.15,
                "tempo": 120.0
            },
            {
                "start_time": 13.4272727,
                "end_time": 13.6795455,
                "pitch": 37,
                "velocity": 51,
                "duration": 0.2522727,
                "tempo": 120.0
            },
            {
                "start_time": 13.6795455,
                "end_time": 13.7477273,
                "pitch": 37,
                "velocity": 51,
                "duration": 0.0681818,
                "tempo": 120.0
            },
            {
                "start_time": 13.7477273,
                "end_time": 13.9136364,
                "pitch": 49,
                "velocity": 51,
                "duration": 0.1659091,
                "tempo": 120.0
            },
            {
                "start_time": 13.9159091,
                "end_time": 14.0,
                "pitch": 37,
                "velocity": 51,
                "duration": 0.0840909,
                "tempo": 120.0
            },
            {
                "start_time": 14.0,
                "end_time": 14.1522727,
                "pitch": 47,
                "velocity": 51,
                "duration": 0.1522727,
                "tempo": 120.0
            },
            {
                "start_time": 14.1522727,
                "end_time": 14.2386364,
                "pitch": 37,
                "velocity": 51,
                "duration": 0.0863636,
                "tempo": 120.0
            },
            {
                "start_time": 14.2386364,
                "end_time": 14.2886364,
                "pitch": 32,
                "velocity": 51,
                "duration": 0.05,
                "tempo": 120.0
            },
            {
                "start_time": 10.4272727,
                "end_time": 14.3068182,
                "pitch": 25,
                "velocity": 51,
                "duration": 3.8795455,
                "tempo": 120.0
            },
            {
                "start_time": 14.2886364,
                "end_time": 14.3068182,
                "pitch": 35,
                "velocity": 51,
                "duration": 0.0181818,
                "tempo": 120.0
            },
            {
                "start_time": 14.3068182,
                "end_time": 14.3227273,
                "pitch": 37,
                "velocity": 51,
                "duration": 0.0159091,
                "tempo": 120.0
            },
            {
                "start_time": 14.3227273,
                "end_time": 14.3409091,
                "pitch": 40,
                "velocity": 51,
                "duration": 0.0181818,
                "tempo": 120.0
            },
            {
                "start_time": 14.3409091,
                "end_time": 14.3909091,
                "pitch": 42,
                "velocity": 51,
                "duration": 0.05,
                "tempo": 120.0
            },
            {
                "start_time": 14.3909091,
                "end_time": 14.4090909,
                "pitch": 46,
                "velocity": 51,
                "duration": 0.0181818,
                "tempo": 120.0
            },
            {
                "start_time": 14.4090909,
                "end_time": 14.4954545,
                "pitch": 37,
                "velocity": 51,
                "duration": 0.0863636,
                "tempo": 120.0
            },
            {
                "start_time": 14.4954545,
                "end_time": 14.6454545,
                "pitch": 44,
                "velocity": 51,
                "duration": 0.15,
                "tempo": 120.0
            },
            {
                "start_time": 14.6454545,
                "end_time": 14.7318182,
                "pitch": 37,
                "velocity": 51,
                "duration": 0.0863636,
                "tempo": 120.0
            },
            {
                "start_time": 14.7318182,
                "end_time": 14.8977273,
                "pitch": 46,
                "velocity": 51,
                "duration": 0.1659091,
                "tempo": 120.0
            },
            {
                "start_time": 14.8977273,
                "end_time": 14.9681818,
                "pitch": 37,
                "velocity": 51,
                "duration": 0.0704545,
                "tempo": 120.0
            },
            {
                "start_time": 14.9681818,
                "end_time": 15.1295455,
                "pitch": 44,
                "velocity": 51,
                "duration": 0.1613636,
                "tempo": 120.0
            },
            {
                "start_time": 15.1295455,
                "end_time": 15.2136364,
                "pitch": 37,
                "velocity": 51,
                "duration": 0.0840909,
                "tempo": 120.0
            },
            {
                "start_time": 15.2136364,
                "end_time": 15.3613636,
                "pitch": 39,
                "velocity": 51,
                "duration": 0.1477273,
                "tempo": 120.0
            },
            {
                "start_time": 15.3613636,
                "end_time": 15.4431818,
                "pitch": 37,
                "velocity": 51,
                "duration": 0.0818182,
                "tempo": 120.0
            },
            {
                "start_time": 15.4454545,
                "end_time": 15.4590909,
                "pitch": 34,
                "velocity": 51,
                "duration": 0.0136364,
                "tempo": 120.0
            }
        ],
        "Acoustic Bass": [
            {
                "start_time": 0.0136364,
                "end_time": 0.6409091,
                "pitch": 34,
                "velocity": 64,
                "duration": 0.6272727,
                "tempo": 120.0
            },
            {
                "start_time": 0.6409091,
                "end_time": 0.7227273,
                "pitch": 27,
                "velocity": 64,
                "duration": 0.0818182,
                "tempo": 120.0
            },
            {
                "start_time": 0.7227273,
                "end_time": 0.8659091,
                "pitch": 34,
                "velocity": 64,
                "duration": 0.1431818,
                "tempo": 120.0
            },
            {
                "start_time": 0.8659091,
                "end_time": 0.9477273,
                "pitch": 34,
                "velocity": 64,
                "duration": 0.0818182,
                "tempo": 120.0
            },
            {
                "start_time": 1.6090909,
                "end_time": 1.6772727,
                "pitch": 27,
                "velocity": 64,
                "duration": 0.0681818,
                "tempo": 120.0
            },
            {
                "start_time": 1.6772727,
                "end_time": 1.8431818,
                "pitch": 32,
                "velocity": 64,
                "duration": 0.1659091,
                "tempo": 120.0
            },
            {
                "start_time": 1.8431818,
                "end_time": 2.075,
                "pitch": 34,
                "velocity": 64,
                "duration": 0.2318182,
                "tempo": 120.0
            },
            {
                "start_time": 2.075,
                "end_time": 2.1590909,
                "pitch": 34,
                "velocity": 64,
                "duration": 0.0840909,
                "tempo": 120.0
            },
            {
                "start_time": 2.1613636,
                "end_time": 2.325,
                "pitch": 46,
                "velocity": 64,
                "duration": 0.1636364,
                "tempo": 120.0
            },
            {
                "start_time": 2.3272727,
                "end_time": 2.4113636,
                "pitch": 34,
                "velocity": 64,
                "duration": 0.0840909,
                "tempo": 120.0
            },
            {
                "start_time": 2.4113636,
                "end_time": 2.5636364,
                "pitch": 44,
                "velocity": 64,
                "duration": 0.1522727,
                "tempo": 120.0
            },
            {
                "start_time": 2.5636364,
                "end_time": 2.65,
                "pitch": 34,
                "velocity": 64,
                "duration": 0.0863636,
                "tempo": 120.0
            },
            {
                "start_time": 2.65,
                "end_time": 2.6818182,
                "pitch": 29,
                "velocity": 64,
                "duration": 0.0318182,
                "tempo": 120.0
            },
            {
                "start_time": 2.6818182,
                "end_time": 2.7340909,
                "pitch": 33,
                "velocity": 64,
                "duration": 0.0522727,
                "tempo": 120.0
            },
            {
                "start_time": 2.7340909,
                "end_time": 2.75,
                "pitch": 36,
                "velocity": 64,
                "duration": 0.0159091,
                "tempo": 120.0
            },
            {
                "start_time": 2.75,
                "end_time": 2.7681818,
                "pitch": 39,
                "velocity": 64,
                "duration": 0.0181818,
                "tempo": 120.0
            },
            {
                "start_time": 2.7681818,
                "end_time": 2.8204545,
                "pitch": 41,
                "velocity": 64,
                "duration": 0.0522727,
                "tempo": 120.0
            },
            {
                "start_time": 2.8204545,
                "end_time": 2.8886364,
                "pitch": 34,
                "velocity": 64,
                "duration": 0.0681818,
                "tempo": 120.0
            },
            {
                "start_time": 2.8909091,
                "end_time": 3.0522727,
                "pitch": 41,
                "velocity": 64,
                "duration": 0.1613636,
                "tempo": 120.0
            },
            {
                "start_time": 3.0522727,
                "end_time": 3.1363636,
                "pitch": 34,
                "velocity": 64,
                "duration": 0.0840909,
                "tempo": 120.0
            },
            {
                "start_time": 3.1363636,
                "end_time": 3.2818182,
                "pitch": 43,
                "velocity": 64,
                "duration": 0.1454545,
                "tempo": 120.0
            },
            {
                "start_time": 3.2818182,
                "end_time": 3.3659091,
                "pitch": 34,
                "velocity": 64,
                "duration": 0.0840909,
                "tempo": 120.0
            },
            {
                "start_time": 3.3659091,
                "end_time": 3.5318182,
                "pitch": 41,
                "velocity": 64,
                "duration": 0.1659091,
                "tempo": 120.0
            },
            {
                "start_time": 3.5318182,
                "end_time": 3.6159091,
                "pitch": 34,
                "velocity": 64,
                "duration": 0.0840909,
                "tempo": 120.0
            },
            {
                "start_time": 3.6159091,
                "end_time": 3.7659091,
                "pitch": 36,
                "velocity": 64,
                "duration": 0.15,
                "tempo": 120.0
            },
            {
                "start_time": 3.7659091,
                "end_time": 3.85,
                "pitch": 34,
                "velocity": 64,
                "duration": 0.0840909,
                "tempo": 120.0
            },
            {
                "start_time": 3.85,
                "end_time": 4.4863636,
                "pitch": 34,
                "velocity": 64,
                "duration": 0.6363636,
                "tempo": 120.0
            },
            {
                "start_time": 4.4863636,
                "end_time": 4.5727273,
                "pitch": 27,
                "velocity": 64,
                "duration": 0.0863636,
                "tempo": 120.0
            },
            {
                "start_time": 4.5727273,
                "end_time": 4.7431818,
                "pitch": 34,
                "velocity": 64,
                "duration": 0.1704545,
                "tempo": 120.0
            },
            {
                "start_time": 4.7431818,
                "end_time": 4.8295455,
                "pitch": 34,
                "velocity": 64,
                "duration": 0.0863636,
                "tempo": 120.0
            },
            {
                "start_time": 5.4636364,
                "end_time": 5.5477273,
                "pitch": 27,
                "velocity": 64,
                "duration": 0.0840909,
                "tempo": 120.0
            },
            {
                "start_time": 5.5477273,
                "end_time": 5.6931818,
                "pitch": 32,
                "velocity": 64,
                "duration": 0.1454545,
                "tempo": 120.0
            },
            {
                "start_time": 5.6931818,
                "end_time": 5.9431818,
                "pitch": 34,
                "velocity": 64,
                "duration": 0.25,
                "tempo": 120.0
            },
            {
                "start_time": 5.9431818,
                "end_time": 6.0272727,
                "pitch": 34,
                "velocity": 64,
                "duration": 0.0840909,
                "tempo": 120.0
            },
            {
                "start_time": 6.0272727,
                "end_time": 6.175,
                "pitch": 46,
                "velocity": 64,
                "duration": 0.1477273,
                "tempo": 120.0
            },
            {
                "start_time": 6.1772727,
                "end_time": 6.2613636,
                "pitch": 34,
                "velocity": 64,
                "duration": 0.0840909,
                "tempo": 120.0
            },
            {
                "start_time": 6.2613636,
                "end_time": 6.4295455,
                "pitch": 44,
                "velocity": 64,
                "duration": 0.1681818,
                "tempo": 120.0
            },
            {
                "start_time": 6.4295455,
                "end_time": 6.5,
                "pitch": 34,
                "velocity": 64,
                "duration": 0.0704545,
                "tempo": 120.0
            },
            {
                "start_time": 6.5,
                "end_time": 6.55,
                "pitch": 29,
                "velocity": 64,
                "duration": 0.05,
                "tempo": 120.0
            },
            {
                "start_time": 2.7340909,
                "end_time": 6.5840909,
                "pitch": 24,
                "velocity": 64,
                "duration": 3.85,
                "tempo": 120.0
            },
            {
                "start_time": 6.55,
                "end_time": 6.5840909,
                "pitch": 33,
                "velocity": 64,
                "duration": 0.0340909,
                "tempo": 120.0
            },
            {
                "start_time": 6.5840909,
                "end_time": 6.6,
                "pitch": 36,
                "velocity": 64,
                "duration": 0.0159091,
                "tempo": 120.0
            },
            {
                "start_time": 6.6,
                "end_time": 6.6340909,
                "pitch": 39,
                "velocity": 64,
                "duration": 0.0340909,
                "tempo": 120.0
            },
            {
                "start_time": 6.6340909,
                "end_time": 6.6704545,
                "pitch": 41,
                "velocity": 64,
                "duration": 0.0363636,
                "tempo": 120.0
            },
            {
                "start_time": 6.6704545,
                "end_time": 6.7568182,
                "pitch": 34,
                "velocity": 64,
                "duration": 0.0863636,
                "tempo": 120.0
            },
            {
                "start_time": 6.7568182,
                "end_time": 6.9068182,
                "pitch": 41,
                "velocity": 64,
                "duration": 0.15,
                "tempo": 120.0
            },
            {
                "start_time": 6.9068182,
                "end_time": 6.9909091,
                "pitch": 34,
                "velocity": 64,
                "duration": 0.0840909,
                "tempo": 120.0
            },
            {
                "start_time": 6.9931818,
                "end_time": 7.1590909,
                "pitch": 43,
                "velocity": 64,
                "duration": 0.1659091,
                "tempo": 120.0
            },
            {
                "start_time": 7.1590909,
                "end_time": 7.2454545,
                "pitch": 34,
                "velocity": 64,
                "duration": 0.0863636,
                "tempo": 120.0
            },
            {
                "start_time": 7.2454545,
                "end_time": 7.3931818,
                "pitch": 41,
                "velocity": 64,
                "duration": 0.1477273,
                "tempo": 120.0
            },
            {
                "start_time": 7.3931818,
                "end_time": 7.4772727,
                "pitch": 34,
                "velocity": 64,
                "duration": 0.0840909,
                "tempo": 120.0
            },
            {
                "start_time": 7.4772727,
                "end_time": 7.6431818,
                "pitch": 36,
                "velocity": 64,
                "duration": 0.1659091,
                "tempo": 120.0
            },
            {
                "start_time": 7.6431818,
                "end_time": 7.7113636,
                "pitch": 34,
                "velocity": 64,
                "duration": 0.0681818,
                "tempo": 120.0
            },
            {
                "start_time": 7.7136364,
                "end_time": 8.3545455,
                "pitch": 37,
                "velocity": 64,
                "duration": 0.6409091,
                "tempo": 120.0
            },
            {
                "start_time": 8.3545455,
                "end_time": 8.4363636,
                "pitch": 30,
                "velocity": 64,
                "duration": 0.0818182,
                "tempo": 120.0
            },
            {
                "start_time": 8.4363636,
                "end_time": 8.5863636,
                "pitch": 37,
                "velocity": 64,
                "duration": 0.15,
                "tempo": 120.0
            },
            {
                "start_time": 8.5863636,
                "end_time": 8.6727273,
                "pitch": 37,
                "velocity": 64,
                "duration": 0.0863636,
                "tempo": 120.0
            },
            {
                "start_time": 9.3181818,
                "end_time": 9.4022727,
                "pitch": 30,
                "velocity": 64,
                "duration": 0.0840909,
                "tempo": 120.0
            },
            {
                "start_time": 9.4045455,
                "end_time": 9.5704545,
                "pitch": 35,
                "velocity": 64,
                "duration": 0.1659091,
                "tempo": 120.0
            },
            {
                "start_time": 9.5704545,
                "end_time": 9.8068182,
                "pitch": 37,
                "velocity": 64,
                "duration": 0.2363636,
                "tempo": 120.0
            },
            {
                "start_time": 9.8068182,
                "end_time": 9.8931818,
                "pitch": 37,
                "velocity": 64,
                "duration": 0.0863636,
                "tempo": 120.0
            },
            {
                "start_time": 9.8954545,
                "end_time": 10.0636364,
                "pitch": 49,
                "velocity": 64,
                "duration": 0.1681818,
                "tempo": 120.0
            },
            {
                "start_time": 10.0636364,
                "end_time": 10.1340909,
                "pitch": 37,
                "velocity": 64,
                "duration": 0.0704545,
                "tempo": 120.0
            },
            {
                "start_time": 10.1340909,
                "end_time": 10.2954545,
                "pitch": 47,
                "velocity": 64,
                "duration": 0.1613636,
                "tempo": 120.0
            },
            {
                "start_time": 10.2977273,
                "end_time": 10.3795455,
                "pitch": 37,
                "velocity": 64,
                "duration": 0.0818182,
                "tempo": 120.0
            },
            {
                "start_time": 10.3795455,
                "end_time": 10.4113636,
                "pitch": 32,
                "velocity": 64,
                "duration": 0.0318182,
                "tempo": 120.0
            },
            {
                "start_time": 10.4113636,
                "end_time": 10.4272727,
                "pitch": 35,
                "velocity": 64,
                "duration": 0.0159091,
                "tempo": 120.0
            },
            {
                "start_time": 10.4272727,
                "end_time": 10.4613636,
                "pitch": 38,
                "velocity": 64,
                "duration": 0.0340909,
                "tempo": 120.0
            },
            {
                "start_time": 10.4613636,
                "end_time": 10.4772727,
                "pitch": 40,
                "velocity": 64,
                "duration": 0.0159091,
                "tempo": 120.0
            },
            {
                "start_time": 10.4772727,
                "end_time": 10.5090909,
                "pitch": 42,
                "velocity": 64,
                "duration": 0.0318182,
                "tempo": 120.0
            },
            {
                "start_time": 10.5090909,
                "end_time": 10.5272727,
                "pitch": 46,
                "velocity": 64,
                "duration": 0.0181818,
                "tempo": 120.0
            },
            {
                "start_time": 10.5272727,
                "end_time": 10.6113636,
                "pitch": 37,
                "velocity": 64,
                "duration": 0.0840909,
                "tempo": 120.0
            },
            {
                "start_time": 10.6113636,
                "end_time": 10.7772727,
                "pitch": 44,
                "velocity": 64,
                "duration": 0.1659091,
                "tempo": 120.0
            },
            {
                "start_time": 10.7772727,
                "end_time": 10.8636364,
                "pitch": 37,
                "velocity": 64,
                "duration": 0.0863636,
                "tempo": 120.0
            },
            {
                "start_time": 10.8636364,
                "end_time": 11.0136364,
                "pitch": 46,
                "velocity": 64,
                "duration": 0.15,
                "tempo": 120.0
            },
            {
                "start_time": 11.0136364,
                "end_time": 11.0977273,
                "pitch": 37,
                "velocity": 64,
                "duration": 0.0840909,
                "tempo": 120.0
            },
            {
                "start_time": 11.0977273,
                "end_time": 11.2659091,
                "pitch": 44,
                "velocity": 64,
                "duration": 0.1681818,
                "tempo": 120.0
            },
            {
                "start_time": 11.2659091,
                "end_time": 11.3340909,
                "pitch": 37,
                "velocity": 64,
                "duration": 0.0681818,
                "tempo": 120.0
            },
            {
                "start_time": 11.3340909,
                "end_time": 11.5022727,
                "pitch": 39,
                "velocity": 64,
                "duration": 0.1681818,
                "tempo": 120.0
            },
            {
                "start_time": 11.5022727,
                "end_time": 11.5863636,
                "pitch": 37,
                "velocity": 64,
                "duration": 0.0840909,
                "tempo": 120.0
            },
            {
                "start_time": 11.5863636,
                "end_time": 12.2227273,
                "pitch": 37,
                "velocity": 64,
                "duration": 0.6363636,
                "tempo": 120.0
            },
            {
                "start_time": 12.2227273,
                "end_time": 12.3090909,
                "pitch": 30,
                "velocity": 64,
                "duration": 0.0863636,
                "tempo": 120.0
            },
            {
                "start_time": 12.3090909,
                "end_time": 12.4772727,
                "pitch": 37,
                "velocity": 64,
                "duration": 0.1681818,
                "tempo": 120.0
            },
            {
                "start_time": 12.4795455,
                "end_time": 12.5477273,
                "pitch": 37,
                "velocity": 64,
                "duration": 0.0681818,
                "tempo": 120.0
            },
            {
                "start_time": 13.1909091,
                "end_time": 13.2772727,
                "pitch": 30,
                "velocity": 64,
                "duration": 0.0863636,
                "tempo": 120.0
            },
            {
                "start_time": 13.2772727,
                "end_time": 13.4272727,
                "pitch": 35,
                "velocity": 64,
                "duration": 0.15,
                "tempo": 120.0
            },
            {
                "start_time": 13.4272727,
                "end_time": 13.6795455,
                "pitch": 37,
                "velocity": 64,
                "duration": 0.2522727,
                "tempo": 120.0
            },
            {
                "start_time": 13.6795455,
                "end_time": 13.7477273,
                "pitch": 37,
                "velocity": 64,
                "duration": 0.0681818,
                "tempo": 120.0
            },
            {
                "start_time": 13.7477273,
                "end_time": 13.9159091,
                "pitch": 49,
                "velocity": 64,
                "duration": 0.1681818,
                "tempo": 120.0
            },
            {
                "start_time": 13.9159091,
                "end_time": 14.0,
                "pitch": 37,
                "velocity": 64,
                "duration": 0.0840909,
                "tempo": 120.0
            },
            {
                "start_time": 14.0022727,
                "end_time": 14.1522727,
                "pitch": 47,
                "velocity": 64,
                "duration": 0.15,
                "tempo": 120.0
            },
            {
                "start_time": 14.1522727,
                "end_time": 14.2386364,
                "pitch": 37,
                "velocity": 64,
                "duration": 0.0863636,
                "tempo": 120.0
            },
            {
                "start_time": 14.2386364,
                "end_time": 14.2886364,
                "pitch": 32,
                "velocity": 64,
                "duration": 0.05,
                "tempo": 120.0
            },
            {
                "start_time": 10.4272727,
                "end_time": 14.3068182,
                "pitch": 26,
                "velocity": 64,
                "duration": 3.8795455,
                "tempo": 120.0
            },
            {
                "start_time": 14.2886364,
                "end_time": 14.3068182,
                "pitch": 35,
                "velocity": 64,
                "duration": 0.0181818,
                "tempo": 120.0
            },
            {
                "start_time": 14.3068182,
                "end_time": 14.3227273,
                "pitch": 38,
                "velocity": 64,
                "duration": 0.0159091,
                "tempo": 120.0
            },
            {
                "start_time": 14.3227273,
                "end_time": 14.3409091,
                "pitch": 40,
                "velocity": 64,
                "duration": 0.0181818,
                "tempo": 120.0
            },
            {
                "start_time": 14.3409091,
                "end_time": 14.3909091,
                "pitch": 42,
                "velocity": 64,
                "duration": 0.05,
                "tempo": 120.0
            },
            {
                "start_time": 14.3909091,
                "end_time": 14.4090909,
                "pitch": 46,
                "velocity": 64,
                "duration": 0.0181818,
                "tempo": 120.0
            },
            {
                "start_time": 14.4090909,
                "end_time": 14.4954545,
                "pitch": 37,
                "velocity": 64,
                "duration": 0.0863636,
                "tempo": 120.0
            },
            {
                "start_time": 14.4977273,
                "end_time": 14.6454545,
                "pitch": 44,
                "velocity": 64,
                "duration": 0.1477273,
                "tempo": 120.0
            },
            {
                "start_time": 14.6477273,
                "end_time": 14.7318182,
                "pitch": 37,
                "velocity": 64,
                "duration": 0.0840909,
                "tempo": 120.0
            },
            {
                "start_time": 14.7318182,
                "end_time": 14.8977273,
                "pitch": 46,
                "velocity": 64,
                "duration": 0.1659091,
                "tempo": 120.0
            },
            {
                "start_time": 14.9,
                "end_time": 14.9681818,
                "pitch": 37,
                "velocity": 64,
                "duration": 0.0681818,
                "tempo": 120.0
            },
            {
                "start_time": 14.9681818,
                "end_time": 15.1318182,
                "pitch": 44,
                "velocity": 64,
                "duration": 0.1636364,
                "tempo": 120.0
            },
            {
                "start_time": 15.1318182,
                "end_time": 15.2136364,
                "pitch": 37,
                "velocity": 64,
                "duration": 0.0818182,
                "tempo": 120.0
            },
            {
                "start_time": 15.2136364,
                "end_time": 15.3613636,
                "pitch": 39,
                "velocity": 64,
                "duration": 0.1477273,
                "tempo": 120.0
            },
            {
                "start_time": 15.3613636,
                "end_time": 15.4454545,
                "pitch": 37,
                "velocity": 64,
                "duration": 0.0840909,
                "tempo": 120.0
            },
            {
                "start_time": 15.4454545,
                "end_time": 15.4590909,
                "pitch": 34,
                "velocity": 64,
                "duration": 0.0136364,
                "tempo": 120.0
            }
        ]
    }
}