{
    "mood": "angry",
    "instruments": {
        "Lead 2 (sawtooth)": [
            {
                "start_time": 0.0022727,
                "end_time": 0.0545455,
                "pitch": 38,
                "velocity": 25,
                "duration": 0.0522727,
                "tempo": 120.0
            },
            {
                "start_time": 0.0954545,
                "end_time": 0.1772727,
                "pitch": 38,
                "velocity": 25,
                "duration": 0.0818182,
                "tempo": 120.0
            },
            {
                "start_time": 0.2113636,
                "end_time": 0.3136364,
                "pitch": 38,
                "velocity": 32,
                "duration": 0.1022727,
                "tempo": 120.0
            },
            {
                "start_time": 0.3477273,
                "end_time": 0.5704545,
                "pitch": 38,
                "velocity": 32,
                "duration": 0.2227273,
                "tempo": 120.0
            },
            {
                "start_time": 0.6045455,
                "end_time": 0.8295455,
                "pitch": 38,
                "velocity": 32,
                "duration": 0.225,
                "tempo": 120.0
            },
            {
                "start_time": 0.8659091,
                "end_time": 0.9681818,
                "pitch": 38,
                "velocity": 32,
                "duration": 0.1022727,
                "tempo": 120.0
            },
            {
                "start_time": 1.0045455,
                "end_time": 1.0909091,
                "pitch": 38,
                "velocity": 40,
                "duration": 0.0863636,
                "tempo": 120.0
            },
            {
                "start_time": 1.1431818,
                "end_time": 1.2318182,
                "pitch": 38,
                "velocity": 40,
                "duration": 0.0886364,
                "tempo": 120.0
            },
            {
                "start_time": 1.2681818,
                "end_time": 1.3568182,
                "pitch": 38,
                "velocity": 40,
                "duration": 0.0886364,
                "tempo": 120.0
            },
            {
                "start_time": 1.4090909,
                "end_time": 1.6409091,
                "pitch": 38,
                "velocity": 40,
                "duration": 0.2318182,
                "tempo": 120.0
            },
            {
                "start_time": 1.6772727,
                "end_time": 1.9090909,
                "pitch": 38,
                "velocity": 51,
                "duration": 0.2318182,
                "tempo": 120.0
            },
            {
                "start_time": 1.9454545,
                "end_time": 2.0340909,
                "pitch": 38,
                "velocity": 51,
                "duration": 0.0886364,
                "tempo": 120.0
            },
            {
                "start_time": 2.0863636,
                "end_time": 2.1772727,
                "pitch": 38,
                "velocity": 51,
                "duration": 0.0909091,
                "tempo": 120.0
            },
            {
                "start_time": 2.2113636,
                "end_time": 2.3159091,
                "pitch": 38,
                "velocity": 51,
                "duration": 0.1045455,
                "tempo": 120.0
            },
            {
                "start_time": 2.35,
                "end_time": 2.4340909,
                "pitch": 38,
                "velocity": 51,
                "duration": 0.0840909,
                "tempo": 120.0
            },
            {
                "start_time": 2.4863636,
                "end_time": 2.6909091,
                "pitch": 38,
                "velocity": 64,
                "duration": 0.2045455,
                "tempo": 120.0
            },
            {
                "start_time": 2.7431818,
                "end_time": 2.9772727,
                "pitch": 38,
                "velocity": 64,
                "duration": 0.2340909,
                "tempo": 120.0
            },
            {
                "start_time": 3.0136364,
                "end_time": 3.1045455,
                "pitch": 38,
                "velocity": 64,
                "duration": 0.0909091,
                "tempo": 120.0
            },
            {
                "start_time": 3.1590909,
                "end_time": 3.25,
                "pitch": 38,
                "velocity": 80,
                "duration": 0.0909091,
                "tempo": 120.0
            },
            {
                "start_time": 3.2863636,
                "end_time": 3.3681818,
                "pitch": 38,
                "velocity": 80,
                "duration": 0.0818182,
                "tempo": 120.0
            },
            {
                "start_time": 3.4181818,
                "end_time": 3.5022727,
                "pitch": 38,
                "velocity": 80,
                "duration": 0.0840909,
                "tempo": 120.0
            },
            {
                "start_time": 3.5522727,
                "end_time": 3.7522727,
                "pitch": 38,
                "velocity": 101,
                "duration": 0.2,
                "tempo": 120.0
            },
            {
                "start_time": 3.8022727,
                "end_time": 4.0204545,
                "pitch": 38,
                "velocity": 101,
                "duration": 0.2181818,
                "tempo": 120.0
            },
            {
                "start_time": 4.075,
                "end_time": 4.1659091,
                "pitch": 38,
                "velocity": 127,
                "duration": 0.0909091,
                "tempo": 120.0
            },
            {
                "start_time": 4.2204545,
                "end_time": 6.2840909,
                "pitch": 28,
                "velocity": 127,
                "duration": 2.0636364,
                "tempo": 120.0
            },
            {
                "start_time": 6.3181818,
                "end_time": 6.4204545,
                "pitch": 28,
                "velocity": 127,
                "duration": 0.1022727,
                "tempo": 120.0
            },
            {
                "start_time": 6.4386364,
                "end_time": 6.5409091,
                "pitch": 28,
                "velocity": 127,
                "duration": 0.1022727,
                "tempo": 120.0
            },
            {
                "start_time": 6.5590909,
                "end_time": 6.7795455,
                "pitch": 28,
                "velocity": 127,
                "duration": 0.2204545,
                "tempo": 120.0
            },
            {
                "start_time": 6.7977273,
                "end_time": 7.0272727,
                "pitch": 28,
                "velocity": 127,
                "duration": 0.2295455,
                "tempo": 120.0
            },
            {
                "start_time": 7.0431818,
                "end_time": 7.1431818,
                "pitch": 28,
                "velocity": 127,
                "duration": 0.1,
                "tempo": 120.0
            },
            {
                "start_time": 7.1590909,
                "end_time": 7.2568182,
                "pitch": 28,
                "velocity": 127,
                "duration": 0.0977273,
                "tempo": 120.0
            },
            {
                "start_time": 7.275,
                "end_time": 7.3727273,
                "pitch": 28,
                "velocity": 127,
                "duration": 0.0977273,
                "tempo": 120.0
            },
            {
                "start_time": 7.4045455,
                "end_time": 7.5045455,
                "pitch": 28,
                "velocity": 127,
                "duration": 0.1,
                "tempo": 120.0
            },
            {
                "start_time": 7.5204545,
                "end_time": 7.7340909,
                "pitch": 28,
                "velocity": 127,
                "duration": 0.2136364,
                "tempo": 120.0
            },
            {
                "start_time": 7.75,
                "end_time": 7.9681818,
                "pitch": 28,
                "velocity": 127,
                "duration": 0.2181818,
                "tempo": 120.0
            },
            {
                "start_time": 8.0022727,
                "end_time": 8.1045455,
                "pitch": 28,
                "velocity": 127,
                "duration": 0.1022727,
                "tempo": 120.0
            },
            {
                "start_time": 8.1204545,
                "end_time": 10.1795455,
                "pitch": 28,
                "velocity": 127,
                "duration": 2.0590909,
                "tempo": 120.0
            },
            {
                "start_time": 10.1954545,
                "end_time": 10.2977273,
                "pitch": 28,
                "velocity": 127,
                "duration": 0.1022727,
                "tempo": 120.0
            },
            {
                "start_time": 10.3318182,
                "end_time": 10.4318182,
                "pitch": 28,
                "velocity": 127,
                "duration": 0.1,
                "tempo": 120.0
            },
            {
                "start_time": 10.45,
                "end_time": 10.6681818,
                "pitch": 28,
                "velocity": 127,
                "duration": 0.2181818,
                "tempo": 120.0
            },
            {
                "start_time": 10.6840909,
                "end_time": 10.8977273,
                "pitch": 28,
                "velocity": 127,
                "duration": 0.2136364,
                "tempo": 120.0
            },
            {
                "start_time": 10.9318182,
                "end_time": 11.0295455,
                "pitch": 28,
                "velocity": 127,
                "duration": 0.0977273,
                "tempo": 120.0
            },
            {
                "start_time": 11.0454545,
                "end_time": 11.1431818,
                "pitch": 28,
                "velocity": 127,
                "duration": 0.0977273,
                "tempo": 120.0
            },
            {
                "start_time": 11.1590909,
                "end_time": 11.25,
                "pitch": 28,
                "velocity": 127,
                "duration": 0.0909091,
                "tempo": 120.0
            },
            {
                "start_time": 11.2659091,
                "end_time": 11.3568182,
                "pitch": 28,
                "velocity": 127,
                "duration": 0.0909091,
                "tempo": 120.0
            },
            {
                "start_time": 11.3886364,
                "end_time": 11.5840909,
                "pitch": 28,
                "velocity": 127,
                "duration": 0.1954545,
                "tempo": 120.0
            },
            {
                "start_time": 11.5977273,
                "end_time": 11.7886364,
                "pitch": 28,
                "velocity": 127,
                "duration": 0.1909091,
                "tempo": 120.0
            },
            {
                "start_time": 11.8045455,
                "end_time": 11.8931818,
                "pitch": 28,
                "velocity": 127,
                "duration": 0.0886364,
                "tempo": 120.0
            },
            {
                "start_time": 75.8954545,
                "end_time": 75.9977273,
                "pitch": 47,
                "velocity": 32,
                "duration": 0.1022727,
                "tempo": 120.0
            },
            {
                "start_time": 76.0136364,
                "end_time": 76.1136364,
                "pitch": 47,
                "velocity": 32,
                "duration": 0.1,
                "tempo": 120.0
            },
            {
                "start_time": 76.1477273,
                "end_time": 76.25,
                "pitch": 47,
                "velocity": 40,
                "duration": 0.1022727,
                "tempo": 120.0
            },
            {
                "start_time": 76.2659091,
                "end_time": 76.3659091,
                "pitch": 47,
                "velocity": 40,
                "duration": 0.1,
                "tempo": 120.0
            },
            {
                "start_time": 76.3840909,
                "end_time": 76.4863636,
                "pitch": 47,
                "velocity": 51,
                "duration": 0.1022727,
                "tempo": 120.0
            },
            {
                "start_time": 76.5022727,
                "end_time": 76.6068182,
                "pitch": 47,
                "velocity": 51,
                "duration": 0.1045455,
                "tempo": 120.0
            },
            {
                "start_time": 76.6227273,
                "end_time": 76.725,
                "pitch": 47,
                "velocity": 64,
                "duration": 0.1022727,
                "tempo": 120.0
            },
            {
                "start_time": 76.7590909,
                "end_time": 76.8613636,
                "pitch": 47,
                "velocity": 64,
                "duration": 0.1022727,
                "tempo": 120.0
            },
            {
                "start_time": 76.8795455,
                "end_time": 76.9795455,
                "pitch": 47,
                "velocity": 80,
                "duration": 0.1,
                "tempo": 120.0
            },
            {
                "start_time": 76.9954545,
                "end_time": 77.0954545,
                "pitch": 47,
                "velocity": 80,
                "duration": 0.1,
                "tempo": 120.0
            },
            {
                "start_time": 77.1136364,
                "end_time": 77.2136364,
                "pitch": 47,
                "velocity": 101,
                "duration": 0.1,
                "tempo": 120.0
            },
            {
                "start_time": 77.2295455,
                "end_time": 77.3295455,
                "pitch": 47,
                "velocity": 101,
                "duration": 0.1,
                "tempo": 120.0
            },
            {
                "start_time": 77.3636364,
                "end_time": 77.4659091,
                "pitch": 47,
                "velocity": 127,
                "duration": 0.1022727,
                "tempo": 120.0
            },
            {
                "start_time": 77.4818182,
                "end_time": 77.5863636,
                "pitch": 47,
                "velocity": 127,
                "duration": 0.1045455,
                "tempo": 120.0
            },
            {
                "start_time": 77.6022727,
                "end_time": 77.7045455,
                "pitch": 47,
                "velocity": 127,
                "duration": 0.1022727,
                "tempo": 120.0
            },
            {
                "start_time": 77.7227273,
                "end_time": 77.825,
                "pitch": 47,
                "velocity": 127,
                "duration": 0.1022727,
                "tempo": 120.0
            },
            {
                "start_time": 77.8590909,
                "end_time": 79.8772727,
                "pitch": 28,
                "velocity": 127,
                "duration": 2.0181818,
                "tempo": 120.0
            },
            {
                "start_time": 79.8931818,
                "end_time": 79.9954545,
                "pitch": 28,
                "velocity": 127,
                "duration": 0.1022727,
                "tempo": 120.0
            },
            {
                "start_time": 80.0136364,
                "end_time": 80.1159091,
                "pitch": 28,
                "velocity": 127,
                "duration": 0.1022727,
                "tempo": 120.0
            },
            {
                "start_time": 80.15,
                "end_time": 80.3681818,
                "pitch": 28,
                "velocity": 127,
                "duration": 0.2181818,
                "tempo": 120.0
            },
            {
                "start_time": 80.3840909,
                "end_time": 80.5977273,
                "pitch": 28,
                "velocity": 127,
                "duration": 0.2136364,
                "tempo": 120.0
            },
            {
                "start_time": 80.6159091,
                "end_time": 80.7136364,
                "pitch": 28,
                "velocity": 127,
                "duration": 0.0977273,
                "tempo": 120.0
            },
            {
                "start_time": 80.7454545,
                "end_time": 80.8477273,
                "pitch": 28,
                "velocity": 127,
                "duration": 0.1022727,
                "tempo": 120.0
            },
            {
                "start_time": 80.8659091,
                "end_time": 80.9681818,
                "pitch": 28,
                "velocity": 127,
                "duration": 0.1022727,
                "tempo": 120.0
            },
            {
                "start_time": 80.9863636,
                "end_time": 81.0886364,
                "pitch": 28,
                "velocity": 127,
                "duration": 0.1022727,
                "tempo": 120.0
            },
            {
                "start_time": 81.1045455,
                "end_time": 81.3227273,
                "pitch": 28,
                "velocity": 127,
                "duration": 0.2181818,
                "tempo": 120.0
            },
            {
                "start_time": 81.3568182,
                "end_time": 81.5704545,
                "pitch": 28,
                "velocity": 127,
                "duration": 0.2136364,
                "tempo": 120.0
            },
            {
                "start_time": 81.5863636,
                "end_time": 81.6840909,
                "pitch": 28,
                "velocity": 127,
                "duration": 0.0977273,
                "tempo": 120.0
            },
            {
                "start_time": 81.7022727,
                "end_time": 83.7454545,
                "pitch": 28,
                "velocity": 127,
                "duration": 2.0431818,
                "tempo": 120.0
            },
            {
                "start_time": 83.7636364,
                "end_time": 83.8659091,
                "pitch": 28,
                "velocity": 127,
                "duration": 0.1022727,
                "tempo": 120.0
            },
            {
                "start_time": 83.8840909,
                "end_time": 83.9886364,
                "pitch": 28,
                "velocity": 127,
                "duration": 0.1045455,
                "tempo": 120.0
            },
            {
                "start_time": 84.0068182,
                "end_time": 84.2227273,
                "pitch": 28,
                "velocity": 127,
                "duration": 0.2159091,
                "tempo": 120.0
            },
            {
                "start_time": 84.2568182,
                "end_time": 84.4636364,
                "pitch": 28,
                "velocity": 127,
                "duration": 0.2068182,
                "tempo": 120.0
            },
            {
                "start_time": 84.4795455,
                "end_time": 84.5772727,
                "pitch": 28,
                "velocity": 127,
                "duration": 0.0977273,
                "tempo": 120.0
            },
            {
                "start_time": 114.6863636,
                "end_time": 114.7886364,
                "pitch": 47,
                "velocity": 32,
                "duration": 0.1022727,
                "tempo": 120.0
            },
            {
                "start_time": 114.8068182,
                "end_time": 114.9090909,
                "pitch": 47,
                "velocity": 32,
                "duration": 0.1022727,
                "tempo": 120.0
            },
            {
                "start_time": 114.925,
                "end_time": 115.0272727,
                "pitch": 47,
                "velocity": 40,
                "duration": 0.1022727,
                "tempo": 120.0
            },
            {
                "start_time": 115.0454545,
                "end_time": 115.1477273,
                "pitch": 47,
                "velocity": 40,
                "duration": 0.1022727,
                "tempo": 120.0
            },
            {
                "start_time": 115.1818182,
                "end_time": 115.2840909,
                "pitch": 47,
                "velocity": 51,
                "duration": 0.1022727,
                "tempo": 120.0
            },
            {
                "start_time": 115.3,
                "end_time": 115.4,
                "pitch": 47,
                "velocity": 51,
                "duration": 0.1,
                "tempo": 120.0
            },
            {
                "start_time": 115.4181818,
                "end_time": 115.5181818,
                "pitch": 47,
                "velocity": 64,
                "duration": 0.1,
                "tempo": 120.0
            },
            {
                "start_time": 115.5363636,
                "end_time": 115.6363636,
                "pitch": 47,
                "velocity": 64,
                "duration": 0.1,
                "tempo": 120.0
            },
            {
                "start_time": 115.6545455,
                "end_time": 115.7522727,
                "pitch": 47,
                "velocity": 80,
                "duration": 0.0977273,
                "tempo": 120.0
            },
            {
                "start_time": 115.7840909,
                "end_time": 115.8840909,
                "pitch": 47,
                "velocity": 80,
                "duration": 0.1,
                "tempo": 120.0
            },
            {
                "start_time": 115.9,
                "end_time": 115.9977273,
                "pitch": 47,
                "velocity": 101,
                "duration": 0.0977273,
                "tempo": 120.0
            },
            {
                "start_time": 116.0159091,
                "end_time": 116.1136364,
                "pitch": 47,
                "velocity": 101,
                "duration": 0.0977273,
                "tempo": 120.0
            },
            {
                "start_time": 116.1295455,
                "end_time": 116.2318182,
                "pitch": 47,
                "velocity": 127,
                "duration": 0.1022727,
                "tempo": 120.0
            },
            {
                "start_time": 116.25,
                "end_time": 116.3522727,
                "pitch": 47,
                "velocity": 127,
                "duration": 0.1022727,
                "tempo": 120.0
            },
            {
                "start_time": 116.3863636,
                "end_time": 116.4886364,
                "pitch": 47,
                "velocity": 127,
                "duration": 0.1022727,
                "tempo": 120.0
            },
            {
                "start_time": 116.5045455,
                "end_time": 116.6068182,
                "pitch": 47,
                "velocity": 127,
                "duration": 0.1022727,
                "tempo": 120.0
            },
            {
                "start_time": 116.625,
                "end_time": 118.7704545,
                "pitch": 28,
                "velocity": 127,
                "duration": 2.1454545,
                "tempo": 120.0
            },
            {
                "start_time": 118.8090909,
                "end_time": 118.9136364,
                "pitch": 28,
                "velocity": 127,
                "duration": 0.1045455,
                "tempo": 120.0
            },
            {
                "start_time": 118.9295455,
                "end_time": 119.0318182,
                "pitch": 28,
                "velocity": 127,
                "duration": 0.1022727,
                "tempo": 120.0
            },
            {
                "start_time": 119.05,
                "end_time": 119.2727273,
                "pitch": 28,
                "velocity": 127,
                "duration": 0.2227273,
                "tempo": 120.0
            },
            {
                "start_time": 119.3068182,
                "end_time": 119.5227273,
                "pitch": 28,
                "velocity": 127,
                "duration": 0.2159091,
                "tempo": 120.0
            },
            {
                "start_time": 119.5409091,
                "end_time": 119.6409091,
                "pitch": 28,
                "velocity": 127,
                "duration": 0.1,
                "tempo": 120.0
            },
            {
                "start_time": 119.6568182,
                "end_time": 119.7568182,
                "pitch": 28,
                "velocity": 127,
                "duration": 0.1,
                "tempo": 120.0
            },
            {
                "start_time": 119.775,
                "end_time": 119.8727273,
                "pitch": 28,
                "velocity": 127,
                "duration": 0.0977273,
                "tempo": 120.0
            },
            {
                "start_time": 119.9045455,
                "end_time": 120.0045455,
                "pitch": 28,
                "velocity": 127,
                "duration": 0.1,
                "tempo": 120.0
            },
            {
                "start_time": 120.0204545,
                "end_time": 120.2340909,
                "pitch": 28,
                "velocity": 127,
                "duration": 0.2136364,
                "tempo": 120.0
            },
            {
                "start_time": 120.25,
                "end_time": 120.4681818,
                "pitch": 28,
                "velocity": 127,
                "duration": 0.2181818,
                "tempo": 120.0
            },
            {
                "start_time": 120.5022727,
                "end_time": 120.6022727,
                "pitch": 28,
                "velocity": 127,
                "duration": 0.1,
                "tempo": 120.0
            },
            {
                "start_time": 120.6204545,
                "end_time": 122.5522727,
                "pitch": 28,
                "velocity": 127,
                "duration": 1.9318182,
                "tempo": 120.0
            },
            {
                "start_time": 124.5136364,
                "end_time": 124.6159091,
                "pitch": 28,
                "velocity": 127,
                "duration": 0.1022727,
                "tempo": 120.0
            },
            {
                "start_time": 124.6318182,
                "end_time": 124.7340909,
                "pitch": 28,
                "velocity": 127,
                "duration": 0.1022727,
                "tempo": 120.0
            },
            {
                "start_time": 124.75,
                "end_time": 124.85,
                "pitch": 28,
                "velocity": 127,
                "duration": 0.1,
                "tempo": 120.0
            },
            {
                "start_time": 124.8681818,
                "end_time": 124.9681818,
                "pitch": 28,
                "velocity": 127,
                "duration": 0.1,
                "tempo": 120.0
            },
            {
                "start_time": 124.9863636,
                "end_time": 125.0863636,
                "pitch": 28,
                "velocity": 127,
                "duration": 0.1,
                "tempo": 120.0
            },
            {
                "start_time": 125.1204545,
                "end_time": 125.2227273,
                "pitch": 28,
                "velocity": 127,
                "duration": 0.1022727,
                "tempo": 120.0
            },
            {
                "start_time": 125.2409091,
                "end_time": 125.3431818,
                "pitch": 28,
                "velocity": 127,
                "duration": 0.1022727,
                "tempo": 120.0
            },
            {
                "start_time": 125.3590909,
                "end_time": 125.4613636,
                "pitch": 28,
                "velocity": 127,
                "duration": 0.1022727,
                "tempo": 120.0
            }
        ],
        "Trumpet": [
            {
                "start_time": 12.1568182,
                "end_time": 12.2568182,
                "pitch": 71,
                "velocity": 64,
                "duration": 0.1,
                "tempo": 120.0
            },
            {
                "start_time": 12.275,
                "end_time": 12.375,
                "pitch": 76,
                "velocity": 64,
                "duration": 0.1,
                "tempo": 120.0
            },
            {
                "start_time": 12.3931818,
                "end_time": 12.4909091,
                "pitch": 79,
                "velocity": 64,
                "duration": 0.0977273,
                "tempo": 120.0
            },
            {
                "start_time": 12.6386364,
                "end_time": 12.7363636,
                "pitch": 71,
                "velocity": 64,
                "duration": 0.0977273,
                "tempo": 120.0
            },
            {
                "start_time": 12.7545455,
                "end_time": 12.8522727,
                "pitch": 76,
                "velocity": 64,
                "duration": 0.0977273,
                "tempo": 120.0
            },
            {
                "start_time": 12.8681818,
                "end_time": 13.8227273,
                "pitch": 79,
                "velocity": 64,
                "duration": 0.9545455,
                "tempo": 120.0
            },
            {
                "start_time": 14.0795455,
                "end_time": 14.4363636,
                "pitch": 84,
                "velocity": 64,
                "duration": 0.3568182,
                "tempo": 120.0
            },
            {
                "start_time": 14.4545455,
                "end_time": 14.7909091,
                "pitch": 83,
                "velocity": 64,
                "duration": 0.3363636,
                "tempo": 120.0
            },
            {
                "start_time": 14.8227273,
                "end_time": 15.1659091,
                "pitch": 81,
                "velocity": 64,
                "duration": 0.3431818,
                "tempo": 120.0
            },
            {
                "start_time": 15.1818182,
                "end_time": 15.5272727,
                "pitch": 79,
                "velocity": 64,
                "duration": 0.3454545,
                "tempo": 120.0
            },
            {
                "start_time": 15.5431818,
                "end_time": 15.7522727,
                "pitch": 78,
                "velocity": 64,
                "duration": 0.2090909,
                "tempo": 120.0
            },
            {
                "start_time": 16.0227273,
                "end_time": 16.125,
                "pitch": 74,
                "velocity": 64,
                "duration": 0.1022727,
                "tempo": 120.0
            },
            {
                "start_time": 16.1431818,
                "end_time": 16.2454545,
                "pitch": 78,
                "velocity": 64,
                "duration": 0.1022727,
                "tempo": 120.0
            },
            {
                "start_time": 16.2636364,
                "end_time": 16.3636364,
                "pitch": 81,
                "velocity": 64,
                "duration": 0.1,
                "tempo": 120.0
            },
            {
                "start_time": 16.5159091,
                "end_time": 16.6159091,
                "pitch": 74,
                "velocity": 64,
                "duration": 0.1,
                "tempo": 120.0
            },
            {
                "start_time": 16.6340909,
                "end_time": 16.7340909,
                "pitch": 78,
                "velocity": 64,
                "duration": 0.1,
                "tempo": 120.0
            },
            {
                "start_time": 16.75,
                "end_time": 17.7181818,
                "pitch": 81,
                "velocity": 64,
                "duration": 0.9681818,
                "tempo": 120.0
            },
            {
                "start_time": 18.7022727,
                "end_time": 19.0386364,
                "pitch": 83,
                "velocity": 64,
                "duration": 0.3363636,
                "tempo": 120.0
            },
            {
                "start_time": 19.0545455,
                "end_time": 19.3886364,
                "pitch": 81,
                "velocity": 64,
                "duration": 0.3340909,
                "tempo": 120.0
            },
            {
                "start_time": 19.4227273,
                "end_time": 19.525,
                "pitch": 79,
                "velocity": 64,
                "duration": 0.1022727,
                "tempo": 120.0
            },
            {
                "start_time": 19.5409091,
                "end_time": 19.6431818,
                "pitch": 78,
                "velocity": 64,
                "duration": 0.1022727,
                "tempo": 120.0
            },
            {
                "start_time": 19.6613636,
                "end_time": 20.6204545,
                "pitch": 79,
                "velocity": 64,
                "duration": 0.9590909,
                "tempo": 120.0
            },
            {
                "start_time": 20.6363636,
                "end_time": 21.5863636,
                "pitch": 86,
                "velocity": 64,
                "duration": 0.95,
                "tempo": 120.0
            },
            {
                "start_time": 21.6045455,
                "end_time": 22.0636364,
                "pitch": 84,
                "velocity": 64,
                "duration": 0.4590909,
                "tempo": 120.0
            },
            {
                "start_time": 22.0795455,
                "end_time": 22.3181818,
                "pitch": 83,
                "velocity": 64,
                "duration": 0.2386364,
                "tempo": 120.0
            },
            {
                "start_time": 22.3363636,
                "end_time": 22.7954545,
                "pitch": 81,
                "velocity": 64,
                "duration": 0.4590909,
                "tempo": 120.0
            },
            {
                "start_time": 22.8272727,
                "end_time": 23.2795455,
                "pitch": 79,
                "velocity": 64,
                "duration": 0.4522727,
                "tempo": 120.0
            },
            {
                "start_time": 23.2977273,
                "end_time": 23.5318182,
                "pitch": 78,
                "velocity": 64,
                "duration": 0.2340909,
                "tempo": 120.0
            },
            {
                "start_time": 23.5477273,
                "end_time": 25.4613636,
                "pitch": 79,
                "velocity": 64,
                "duration": 1.9136364,
                "tempo": 120.0
            },
            {
                "start_time": 31.5704545,
                "end_time": 31.6727273,
                "pitch": 71,
                "velocity": 64,
                "duration": 0.1022727,
                "tempo": 120.0
            },
            {
                "start_time": 31.6886364,
                "end_time": 31.7886364,
                "pitch": 76,
                "velocity": 64,
                "duration": 0.1,
                "tempo": 120.0
            },
            {
                "start_time": 31.8068182,
                "end_time": 31.9045455,
                "pitch": 79,
                "velocity": 64,
                "duration": 0.0977273,
                "tempo": 120.0
            },
            {
                "start_time": 32.0522727,
                "end_time": 32.1522727,
                "pitch": 71,
                "velocity": 64,
                "duration": 0.1,
                "tempo": 120.0
            },
            {
                "start_time": 32.1681818,
                "end_time": 32.2659091,
                "pitch": 76,
                "velocity": 64,
                "duration": 0.0977273,
                "tempo": 120.0
            },
            {
                "start_time": 32.2818182,
                "end_time": 33.25,
                "pitch": 79,
                "velocity": 64,
                "duration": 0.9681818,
                "tempo": 120.0
            },
            {
                "start_time": 33.5,
                "end_time": 33.8522727,
                "pitch": 84,
                "velocity": 64,
                "duration": 0.3522727,
                "tempo": 120.0
            },
            {
                "start_time": 33.8704545,
                "end_time": 34.2113636,
                "pitch": 83,
                "velocity": 64,
                "duration": 0.3409091,
                "tempo": 120.0
            },
            {
                "start_time": 34.2295455,
                "end_time": 34.5727273,
                "pitch": 81,
                "velocity": 64,
                "duration": 0.3431818,
                "tempo": 120.0
            },
            {
                "start_time": 34.5909091,
                "end_time": 34.9409091,
                "pitch": 79,
                "velocity": 64,
                "duration": 0.35,
                "tempo": 120.0
            },
            {
                "start_time": 34.9568182,
                "end_time": 35.175,
                "pitch": 78,
                "velocity": 64,
                "duration": 0.2181818,
                "tempo": 120.0
            },
            {
                "start_time": 35.4431818,
                "end_time": 35.5431818,
                "pitch": 74,
                "velocity": 64,
                "duration": 0.1,
                "tempo": 120.0
            },
            {
                "start_time": 35.5590909,
                "end_time": 35.6590909,
                "pitch": 78,
                "velocity": 64,
                "duration": 0.1,
                "tempo": 120.0
            },
            {
                "start_time": 35.6772727,
                "end_time": 35.7795455,
                "pitch": 81,
                "velocity": 64,
                "duration": 0.1022727,
                "tempo": 120.0
            },
            {
                "start_time": 35.9159091,
                "end_time": 36.0181818,
                "pitch": 74,
                "velocity": 64,
                "duration": 0.1022727,
                "tempo": 120.0
            },
            {
                "start_time": 36.0522727,
                "end_time": 36.1545455,
                "pitch": 78,
                "velocity": 64,
                "duration": 0.1022727,
                "tempo": 120.0
            },
            {
                "start_time": 36.1727273,
                "end_time": 37.1181818,
                "pitch": 81,
                "velocity": 64,
                "duration": 0.9454545,
                "tempo": 120.0
            },
            {
                "start_time": 38.0954545,
                "end_time": 38.4454545,
                "pitch": 83,
                "velocity": 64,
                "duration": 0.35,
                "tempo": 120.0
            },
            {
                "start_time": 38.4636364,
                "end_time": 38.7954545,
                "pitch": 81,
                "velocity": 64,
                "duration": 0.3318182,
                "tempo": 120.0
            },
            {
                "start_time": 38.8136364,
                "end_time": 38.9136364,
                "pitch": 79,
                "velocity": 64,
                "duration": 0.1,
                "tempo": 120.0
            },
            {
                "start_time": 38.9477273,
                "end_time": 39.0477273,
                "pitch": 78,
                "velocity": 64,
                "duration": 0.1,
                "tempo": 120.0
            },
            {
                "start_time": 39.0636364,
                "end_time": 40.0136364,
                "pitch": 79,
                "velocity": 64,
                "duration": 0.95,
                "tempo": 120.0
            },
            {
                "start_time": 40.0477273,
                "end_time": 40.975,
                "pitch": 86,
                "velocity": 64,
                "duration": 0.9272727,
                "tempo": 120.0
            },
            {
                "start_time": 40.9909091,
                "end_time": 41.4681818,
                "pitch": 84,
                "velocity": 64,
                "duration": 0.4772727,
                "tempo": 120.0
            },
            {
                "start_time": 41.4863636,
                "end_time": 41.7022727,
                "pitch": 83,
                "velocity": 64,
                "duration": 0.2159091,
                "tempo": 120.0
            },
            {
                "start_time": 41.7363636,
                "end_time": 42.1886364,
                "pitch": 81,
                "velocity": 64,
                "duration": 0.4522727,
                "tempo": 120.0
            },
            {
                "start_time": 42.2068182,
                "end_time": 42.6795455,
                "pitch": 79,
                "velocity": 64,
                "duration": 0.4727273,
                "tempo": 120.0
            },
            {
                "start_time": 42.6977273,
                "end_time": 42.9204545,
                "pitch": 78,
                "velocity": 64,
                "duration": 0.2227273,
                "tempo": 120.0
            },
            {
                "start_time": 42.9545455,
                "end_time": 44.8636364,
                "pitch": 79,
                "velocity": 64,
                "duration": 1.9090909,
                "tempo": 120.0
            }
        ],
        "Electric Piano 1": [
            {
                "start_time": 3.1613636,
                "end_time": 3.1772727,
                "pitch": 36,
                "velocity": 127,
                "duration": 0.0159091,
                "tempo": 120.0
            },
            {
                "start_time": 3.1772727,
                "end_time": 3.2136364,
                "pitch": 33,
                "velocity": 127,
                "duration": 0.0363636,
                "tempo": 120.0
            },
            {
                "start_time": 3.2136364,
                "end_time": 3.25,
                "pitch": 31,
                "velocity": 127,
                "duration": 0.0363636,
                "tempo": 120.0
            },
            {
                "start_time": 3.2863636,
                "end_time": 3.3022727,
                "pitch": 32,
                "velocity": 127,
                "duration": 0.0159091,
                "tempo": 120.0
            },
            {
                "start_time": 3.3022727,
                "end_time": 3.3363636,
                "pitch": 30,
                "velocity": 127,
                "duration": 0.0340909,
                "tempo": 120.0
            },
            {
                "start_time": 3.3363636,
                "end_time": 3.3704545,
                "pitch": 27,
                "velocity": 127,
                "duration": 0.0340909,
                "tempo": 120.0
            },
            {
                "start_time": 3.3704545,
                "end_time": 3.4022727,
                "pitch": 24,
                "velocity": 127,
                "duration": 0.0318182,
                "tempo": 120.0
            },
            {
                "start_time": 3.4022727,
                "end_time": 3.4204545,
                "pitch": 21,
                "velocity": 127,
                "duration": 0.0181818,
                "tempo": 120.0
            },
            {
                "start_time": 3.4204545,
                "end_time": 3.4363636,
                "pitch": 19,
                "velocity": 127,
                "duration": 0.0159091,
                "tempo": 120.0
            },
            {
                "start_time": 3.4363636,
                "end_time": 3.4522727,
                "pitch": 16,
                "velocity": 127,
                "duration": 0.0159091,
                "tempo": 120.0
            },
            {
                "start_time": 3.4522727,
                "end_time": 3.4681818,
                "pitch": 14,
                "velocity": 127,
                "duration": 0.0159091,
                "tempo": 120.0
            },
            {
                "start_time": 3.4681818,
                "end_time": 3.4863636,
                "pitch": 11,
                "velocity": 127,
                "duration": 0.0181818,
                "tempo": 120.0
            },
            {
                "start_time": 3.4863636,
                "end_time": 3.5022727,
                "pitch": 7,
                "velocity": 127,
                "duration": 0.0159091,
                "tempo": 120.0
            },
            {
                "start_time": 3.5545455,
                "end_time": 3.5704545,
                "pitch": 32,
                "velocity": 127,
                "duration": 0.0159091,
                "tempo": 120.0
            },
            {
                "start_time": 3.3022727,
                "end_time": 3.5704545,
                "pitch": 42,
                "velocity": 127,
                "duration": 0.2681818,
                "tempo": 120.0
            },
            {
                "start_time": 3.5704545,
                "end_time": 3.6022727,
                "pitch": 30,
                "velocity": 127,
                "duration": 0.0318182,
                "tempo": 120.0
            },
            {
                "start_time": 3.6022727,
                "end_time": 3.6363636,
                "pitch": 27,
                "velocity": 127,
                "duration": 0.0340909,
                "tempo": 120.0
            },
            {
                "start_time": 3.6363636,
                "end_time": 3.6704545,
                "pitch": 24,
                "velocity": 127,
                "duration": 0.0340909,
                "tempo": 120.0
            },
            {
                "start_time": 3.6704545,
                "end_time": 3.6863636,
                "pitch": 21,
                "velocity": 127,
                "duration": 0.0159091,
                "tempo": 120.0
            },
            {
                "start_time": 3.6863636,
                "end_time": 3.7022727,
                "pitch": 19,
                "velocity": 127,
                "duration": 0.0159091,
                "tempo": 120.0
            },
            {
                "start_time": 3.7022727,
                "end_time": 3.7204545,
                "pitch": 16,
                "velocity": 127,
                "duration": 0.0181818,
                "tempo": 120.0
            },
            {
                "start_time": 3.7204545,
                "end_time": 3.7363636,
                "pitch": 14,
                "velocity": 127,
                "duration": 0.0159091,
                "tempo": 120.0
            },
            {
                "start_time": 3.7363636,
                "end_time": 3.7545455,
                "pitch": 11,
                "velocity": 127,
                "duration": 0.0181818,
                "tempo": 120.0
            },
            {
                "start_time": 3.8045455,
                "end_time": 3.8204545,
                "pitch": 32,
                "velocity": 127,
                "duration": 0.0159091,
                "tempo": 120.0
            },
            {
                "start_time": 3.5704545,
                "end_time": 3.8204545,
                "pitch": 42,
                "velocity": 127,
                "duration": 0.25,
                "tempo": 120.0
            },
            {
                "start_time": 3.8204545,
                "end_time": 3.8568182,
                "pitch": 30,
                "velocity": 127,
                "duration": 0.0363636,
                "tempo": 120.0
            },
            {
                "start_time": 3.8568182,
                "end_time": 3.8931818,
                "pitch": 27,
                "velocity": 127,
                "duration": 0.0363636,
                "tempo": 120.0
            },
            {
                "start_time": 3.9318182,
                "end_time": 3.9477273,
                "pitch": 28,
                "velocity": 127,
                "duration": 0.0159091,
                "tempo": 120.0
            },
            {
                "start_time": 3.9477273,
                "end_time": 3.9840909,
                "pitch": 26,
                "velocity": 127,
                "duration": 0.0363636,
                "tempo": 120.0
            },
            {
                "start_time": 3.9840909,
                "end_time": 4.0204545,
                "pitch": 23,
                "velocity": 127,
                "duration": 0.0363636,
                "tempo": 120.0
            },
            {
                "start_time": 4.075,
                "end_time": 4.0931818,
                "pitch": 28,
                "velocity": 127,
                "duration": 0.0181818,
                "tempo": 120.0
            },
            {
                "start_time": 4.0931818,
                "end_time": 4.1295455,
                "pitch": 26,
                "velocity": 127,
                "duration": 0.0363636,
                "tempo": 120.0
            },
            {
                "start_time": 4.1295455,
                "end_time": 4.1659091,
                "pitch": 23,
                "velocity": 127,
                "duration": 0.0363636,
                "tempo": 120.0
            },
            {
                "start_time": 122.8181818,
                "end_time": 122.8340909,
                "pitch": 36,
                "velocity": 101,
                "duration": 0.0159091,
                "tempo": 120.0
            },
            {
                "start_time": 122.8340909,
                "end_time": 122.8659091,
                "pitch": 33,
                "velocity": 101,
                "duration": 0.0318182,
                "tempo": 120.0
            },
            {
                "start_time": 122.8659091,
                "end_time": 122.8977273,
                "pitch": 31,
                "velocity": 101,
                "duration": 0.0318182,
                "tempo": 120.0
            },
            {
                "start_time": 122.8977273,
                "end_time": 122.9136364,
                "pitch": 27,
                "velocity": 101,
                "duration": 0.0159091,
                "tempo": 120.0
            },
            {
                "start_time": 122.9295455,
                "end_time": 122.9454545,
                "pitch": 36,
                "velocity": 101,
                "duration": 0.0159091,
                "tempo": 120.0
            },
            {
                "start_time": 122.9454545,
                "end_time": 122.9772727,
                "pitch": 33,
                "velocity": 101,
                "duration": 0.0318182,
                "tempo": 120.0
            },
            {
                "start_time": 122.9772727,
                "end_time": 123.0090909,
                "pitch": 31,
                "velocity": 101,
                "duration": 0.0318182,
                "tempo": 120.0
            },
            {
                "start_time": 123.0090909,
                "end_time": 123.025,
                "pitch": 27,
                "velocity": 101,
                "duration": 0.0159091,
                "tempo": 120.0
            },
            {
                "start_time": 123.1545455,
                "end_time": 123.1704545,
                "pitch": 36,
                "velocity": 101,
                "duration": 0.0159091,
                "tempo": 120.0
            },
            {
                "start_time": 123.1704545,
                "end_time": 123.2045455,
                "pitch": 33,
                "velocity": 101,
                "duration": 0.0340909,
                "tempo": 120.0
            },
            {
                "start_time": 123.2045455,
                "end_time": 123.2386364,
                "pitch": 31,
                "velocity": 101,
                "duration": 0.0340909,
                "tempo": 120.0
            },
            {
                "start_time": 123.2386364,
                "end_time": 123.2568182,
                "pitch": 27,
                "velocity": 101,
                "duration": 0.0181818,
                "tempo": 120.0
            },
            {
                "start_time": 123.2568182,
                "end_time": 123.2727273,
                "pitch": 25,
                "velocity": 101,
                "duration": 0.0159091,
                "tempo": 120.0
            },
            {
                "start_time": 123.2727273,
                "end_time": 123.2909091,
                "pitch": 23,
                "velocity": 101,
                "duration": 0.0181818,
                "tempo": 120.0
            },
            {
                "start_time": 123.2909091,
                "end_time": 123.3068182,
                "pitch": 21,
                "velocity": 101,
                "duration": 0.0159091,
                "tempo": 120.0
            },
            {
                "start_time": 123.3068182,
                "end_time": 123.325,
                "pitch": 18,
                "velocity": 101,
                "duration": 0.0181818,
                "tempo": 120.0
            },
            {
                "start_time": 123.325,
                "end_time": 123.3409091,
                "pitch": 15,
                "velocity": 101,
                "duration": 0.0159091,
                "tempo": 120.0
            },
            {
                "start_time": 123.3409091,
                "end_time": 123.3590909,
                "pitch": 11,
                "velocity": 101,
                "duration": 0.0181818,
                "tempo": 120.0
            },
            {
                "start_time": 123.3590909,
                "end_time": 123.3931818,
                "pitch": 5,
                "velocity": 101,
                "duration": 0.0340909,
                "tempo": 120.0
            },
            {
                "start_time": 123.4113636,
                "end_time": 123.4272727,
                "pitch": 36,
                "velocity": 101,
                "duration": 0.0159091,
                "tempo": 120.0
            },
            {
                "start_time": 123.4272727,
                "end_time": 123.4431818,
                "pitch": 33,
                "velocity": 101,
                "duration": 0.0159091,
                "tempo": 120.0
            },
            {
                "start_time": 123.4613636,
                "end_time": 123.4772727,
                "pitch": 36,
                "velocity": 101,
                "duration": 0.0159091,
                "tempo": 120.0
            },
            {
                "start_time": 123.4772727,
                "end_time": 123.5136364,
                "pitch": 33,
                "velocity": 101,
                "duration": 0.0363636,
                "tempo": 120.0
            },
            {
                "start_time": 123.5295455,
                "end_time": 123.5477273,
                "pitch": 36,
                "velocity": 101,
                "duration": 0.0181818,
                "tempo": 120.0
            },
            {
                "start_time": 123.5477273,
                "end_time": 123.5818182,
                "pitch": 33,
                "velocity": 101,
                "duration": 0.0340909,
                "tempo": 120.0
            },
            {
                "start_time": 123.5818182,
                "end_time": 123.6159091,
                "pitch": 31,
                "velocity": 101,
                "duration": 0.0340909,
                "tempo": 120.0
            },
            {
                "start_time": 123.6159091,
                "end_time": 123.6318182,
                "pitch": 27,
                "velocity": 101,
                "duration": 0.0159091,
                "tempo": 120.0
            },
            {
                "start_time": 123.65,
                "end_time": 123.6659091,
                "pitch": 36,
                "velocity": 101,
                "duration": 0.0159091,
                "tempo": 120.0
            },
            {
                "start_time": 123.6659091,
                "end_time": 123.7,
                "pitch": 33,
                "velocity": 101,
                "duration": 0.0340909,
                "tempo": 120.0
            },
            {
                "start_time": 123.7,
                "end_time": 123.7340909,
                "pitch": 31,
                "velocity": 101,
                "duration": 0.0340909,
                "tempo": 120.0
            },
            {
                "start_time": 123.7340909,
                "end_time": 123.75,
                "pitch": 27,
                "velocity": 101,
                "duration": 0.0159091,
                "tempo": 120.0
            },
            {
                "start_time": 123.7681818,
                "end_time": 123.7840909,
                "pitch": 32,
                "velocity": 101,
                "duration": 0.0159091,
                "tempo": 120.0
            },
            {
                "start_time": 3.8204545,
                "end_time": 123.7840909,
                "pitch": 42,
                "velocity": 127,
                "duration": 119.9636364,
                "tempo": 120.0
            },
            {
                "start_time": 123.7840909,
                "end_time": 123.8181818,
                "pitch": 30,
                "velocity": 101,
                "duration": 0.0340909,
                "tempo": 120.0
            },
            {
                "start_time": 123.8340909,
                "end_time": 123.8522727,
                "pitch": 32,
                "velocity": 101,
                "duration": 0.0181818,
                "tempo": 120.0
            },
            {
                "start_time": 123.7840909,
                "end_time": 123.8522727,
                "pitch": 42,
                "velocity": 101,
                "duration": 0.0681818,
                "tempo": 120.0
            },
            {
                "start_time": 123.8522727,
                "end_time": 123.8681818,
                "pitch": 30,
                "velocity": 101,
                "duration": 0.0159091,
                "tempo": 120.0
            },
            {
                "start_time": 123.9022727,
                "end_time": 123.9181818,
                "pitch": 32,
                "velocity": 101,
                "duration": 0.0159091,
                "tempo": 120.0
            },
            {
                "start_time": 123.8522727,
                "end_time": 123.9181818,
                "pitch": 42,
                "velocity": 101,
                "duration": 0.0659091,
                "tempo": 120.0
            },
            {
                "start_time": 123.9181818,
                "end_time": 123.9522727,
                "pitch": 30,
                "velocity": 101,
                "duration": 0.0340909,
                "tempo": 120.0
            },
            {
                "start_time": 123.9522727,
                "end_time": 123.9863636,
                "pitch": 27,
                "velocity": 101,
                "duration": 0.0340909,
                "tempo": 120.0
            },
            {
                "start_time": 123.9863636,
                "end_time": 124.0022727,
                "pitch": 24,
                "velocity": 101,
                "duration": 0.0159091,
                "tempo": 120.0
            },
            {
                "start_time": 124.0204545,
                "end_time": 124.0363636,
                "pitch": 32,
                "velocity": 101,
                "duration": 0.0159091,
                "tempo": 120.0
            },
            {
                "start_time": 123.9181818,
                "end_time": 124.0363636,
                "pitch": 42,
                "velocity": 101,
                "duration": 0.1181818,
                "tempo": 120.0
            },
            {
                "start_time": 124.0363636,
                "end_time": 124.0704545,
                "pitch": 30,
                "velocity": 101,
                "duration": 0.0340909,
                "tempo": 120.0
            },
            {
                "start_time": 124.0704545,
                "end_time": 124.1045455,
                "pitch": 27,
                "velocity": 101,
                "duration": 0.0340909,
                "tempo": 120.0
            },
            {
                "start_time": 124.1045455,
                "end_time": 124.1204545,
                "pitch": 24,
                "velocity": 101,
                "duration": 0.0159091,
                "tempo": 120.0
            },
            {
                "start_time": 124.1363636,
                "end_time": 124.1545455,
                "pitch": 28,
                "velocity": 101,
                "duration": 0.0181818,
                "tempo": 120.0
            },
            {
                "start_time": 124.1545455,
                "end_time": 124.1704545,
                "pitch": 26,
                "velocity": 101,
                "duration": 0.0159091,
                "tempo": 120.0
            },
            {
                "start_time": 124.2068182,
                "end_time": 124.2227273,
                "pitch": 28,
                "velocity": 101,
                "duration": 0.0159091,
                "tempo": 120.0
            },
            {
                "start_time": 124.2227273,
                "end_time": 124.2386364,
                "pitch": 26,
                "velocity": 101,
                "duration": 0.0159091,
                "tempo": 120.0
            },
            {
                "start_time": 124.2568182,
                "end_time": 124.275,
                "pitch": 28,
                "velocity": 101,
                "duration": 0.0181818,
                "tempo": 120.0
            },
            {
                "start_time": 124.275,
                "end_time": 124.3090909,
                "pitch": 26,
                "velocity": 101,
                "duration": 0.0340909,
                "tempo": 120.0
            },
            {
                "start_time": 124.3090909,
                "end_time": 124.3431818,
                "pitch": 23,
                "velocity": 101,
                "duration": 0.0340909,
                "tempo": 120.0
            },
            {
                "start_time": 124.3431818,
                "end_time": 124.3590909,
                "pitch": 20,
                "velocity": 101,
                "duration": 0.0159091,
                "tempo": 120.0
            },
            {
                "start_time": 124.3772727,
                "end_time": 124.3931818,
                "pitch": 28,
                "velocity": 101,
                "duration": 0.0159091,
                "tempo": 120.0
            },
            {
                "start_time": 124.3931818,
                "end_time": 124.4272727,
                "pitch": 26,
                "velocity": 101,
                "duration": 0.0340909,
                "tempo": 120.0
            },
            {
                "start_time": 124.4272727,
                "end_time": 124.4613636,
                "pitch": 23,
                "velocity": 101,
                "duration": 0.0340909,
                "tempo": 120.0
            },
            {
                "start_time": 124.4613636,
                "end_time": 124.4795455,
                "pitch": 20,
                "velocity": 101,
                "duration": 0.0181818,
                "tempo": 120.0
            },
            {
                "start_time": 124.5159091,
                "end_time": 124.5295455,
                "pitch": 38,
                "velocity": 101,
                "duration": 0.0136364,
                "tempo": 120.0
            },
            {
                "start_time": 124.5295455,
                "end_time": 124.5636364,
                "pitch": 36,
                "velocity": 101,
                "duration": 0.0340909,
                "tempo": 120.0
            },
            {
                "start_time": 124.5636364,
                "end_time": 124.5977273,
                "pitch": 33,
                "velocity": 101,
                "duration": 0.0340909,
                "tempo": 120.0
            },
            {
                "start_time": 124.5977273,
                "end_time": 124.6159091,
                "pitch": 30,
                "velocity": 101,
                "duration": 0.0181818,
                "tempo": 120.0
            },
            {
                "start_time": 124.6340909,
                "end_time": 124.65,
                "pitch": 40,
                "velocity": 101,
                "duration": 0.0159091,
                "tempo": 120.0
            },
            {
                "start_time": 124.65,
                "end_time": 124.6840909,
                "pitch": 38,
                "velocity": 101,
                "duration": 0.0340909,
                "tempo": 120.0
            },
            {
                "start_time": 124.6840909,
                "end_time": 124.7181818,
                "pitch": 35,
                "velocity": 101,
                "duration": 0.0340909,
                "tempo": 120.0
            },
            {
                "start_time": 124.7181818,
                "end_time": 124.7340909,
                "pitch": 32,
                "velocity": 101,
                "duration": 0.0159091,
                "tempo": 120.0
            },
            {
                "start_time": 124.7522727,
                "end_time": 124.7681818,
                "pitch": 33,
                "velocity": 101,
                "duration": 0.0159091,
                "tempo": 120.0
            },
            {
                "start_time": 124.7681818,
                "end_time": 124.8,
                "pitch": 31,
                "velocity": 101,
                "duration": 0.0318182,
                "tempo": 120.0
            },
            {
                "start_time": 124.8,
                "end_time": 124.8363636,
                "pitch": 28,
                "velocity": 101,
                "duration": 0.0363636,
                "tempo": 120.0
            },
            {
                "start_time": 124.8363636,
                "end_time": 124.8522727,
                "pitch": 25,
                "velocity": 101,
                "duration": 0.0159091,
                "tempo": 120.0
            },
            {
                "start_time": 124.8704545,
                "end_time": 124.8863636,
                "pitch": 35,
                "velocity": 101,
                "duration": 0.0159091,
                "tempo": 120.0
            },
            {
                "start_time": 124.8863636,
                "end_time": 124.9204545,
                "pitch": 33,
                "velocity": 101,
                "duration": 0.0340909,
                "tempo": 120.0
            },
            {
                "start_time": 124.0363636,
                "end_time": 124.9204545,
                "pitch": 42,
                "velocity": 101,
                "duration": 0.8840909,
                "tempo": 120.0
            },
            {
                "start_time": 124.9204545,
                "end_time": 124.9522727,
                "pitch": 30,
                "velocity": 101,
                "duration": 0.0318182,
                "tempo": 120.0
            },
            {
                "start_time": 124.9522727,
                "end_time": 124.9704545,
                "pitch": 27,
                "velocity": 101,
                "duration": 0.0181818,
                "tempo": 120.0
            },
            {
                "start_time": 124.9886364,
                "end_time": 125.0022727,
                "pitch": 28,
                "velocity": 101,
                "duration": 0.0136364,
                "tempo": 120.0
            },
            {
                "start_time": 125.0022727,
                "end_time": 125.0363636,
                "pitch": 26,
                "velocity": 101,
                "duration": 0.0340909,
                "tempo": 120.0
            },
            {
                "start_time": 125.0363636,
                "end_time": 125.0704545,
                "pitch": 23,
                "velocity": 101,
                "duration": 0.0340909,
                "tempo": 120.0
            },
            {
                "start_time": 125.0704545,
                "end_time": 125.0886364,
                "pitch": 20,
                "velocity": 101,
                "duration": 0.0181818,
                "tempo": 120.0
            },
            {
                "start_time": 124.9204545,
                "end_time": 125.1227273,
                "pitch": 42,
                "velocity": 101,
                "duration": 0.2022727,
                "tempo": 120.0
            },
            {
                "start_time": 125.1227273,
                "end_time": 125.1545455,
                "pitch": 30,
                "velocity": 101,
                "duration": 0.0318182,
                "tempo": 120.0
            },
            {
                "start_time": 125.1545455,
                "end_time": 125.1886364,
                "pitch": 27,
                "velocity": 101,
                "duration": 0.0340909,
                "tempo": 120.0
            },
            {
                "start_time": 125.1886364,
                "end_time": 125.225,
                "pitch": 25,
                "velocity": 101,
                "duration": 0.0363636,
                "tempo": 120.0
            },
            {
                "start_time": 125.2431818,
                "end_time": 125.2590909,
                "pitch": 28,
                "velocity": 101,
                "duration": 0.0159091,
                "tempo": 120.0
            },
            {
                "start_time": 125.2590909,
                "end_time": 125.2909091,
                "pitch": 26,
                "velocity": 101,
                "duration": 0.0318182,
                "tempo": 120.0
            },
            {
                "start_time": 125.2909091,
                "end_time": 125.3272727,
                "pitch": 23,
                "velocity": 101,
                "duration": 0.0363636,
                "tempo": 120.0
            },
            {
                "start_time": 125.3272727,
                "end_time": 125.3431818,
                "pitch": 20,
                "velocity": 101,
                "duration": 0.0159091,
                "tempo": 120.0
            },
            {
                "start_time": 125.3613636,
                "end_time": 125.3772727,
                "pitch": 28,
                "velocity": 101,
                "duration": 0.0159091,
                "tempo": 120.0
            },
            {
                "start_time": 125.3772727,
                "end_time": 125.4113636,
                "pitch": 26,
                "velocity": 101,
                "duration": 0.0340909,
                "tempo": 120.0
            },
            {
                "start_time": 125.4113636,
                "end_time": 125.4454545,
                "pitch": 23,
                "velocity": 101,
                "duration": 0.0340909,
                "tempo": 120.0
            },
            {
                "start_time": 125.4454545,
                "end_time": 125.4636364,
                "pitch": 20,
                "velocity": 101,
                "duration": 0.0181818,
                "tempo": 120.0
            }
        ],
        "Church Organ": [
            {
                "start_time": 0.0045455,
                "end_time": 4.1659091,
                "pitch": 67,
                "velocity": 16,
                "duration": 4.1613636,
                "tempo": 120.0
            },
            {
                "start_time": 11.925,
                "end_time": 13.825,
                "pitch": 60,
                "velocity": 80,
                "duration": 1.9,
                "tempo": 120.0
            },
            {
                "start_time": 13.8409091,
                "end_time": 15.7522727,
                "pitch": 62,
                "velocity": 80,
                "duration": 1.9113636,
                "tempo": 120.0
            },
            {
                "start_time": 15.7681818,
                "end_time": 17.7181818,
                "pitch": 64,
                "velocity": 80,
                "duration": 1.95,
                "tempo": 120.0
            },
            {
                "start_time": 17.7363636,
                "end_time": 19.6454545,
                "pitch": 66,
                "velocity": 80,
                "duration": 1.9090909,
                "tempo": 120.0
            },
            {
                "start_time": 19.6636364,
                "end_time": 21.5886364,
                "pitch": 60,
                "velocity": 80,
                "duration": 1.925,
                "tempo": 120.0
            },
            {
                "start_time": 21.6045455,
                "end_time": 23.5318182,
                "pitch": 62,
                "velocity": 80,
                "duration": 1.9272727,
                "tempo": 120.0
            },
            {
                "start_time": 31.3204545,
                "end_time": 33.25,
                "pitch": 60,
                "velocity": 80,
                "duration": 1.9295455,
                "tempo": 120.0
            },
            {
                "start_time": 33.2681818,
                "end_time": 35.1772727,
                "pitch": 62,
                "velocity": 80,
                "duration": 1.9090909,
                "tempo": 120.0
            },
            {
                "start_time": 35.1954545,
                "end_time": 37.1181818,
                "pitch": 64,
                "velocity": 80,
                "duration": 1.9227273,
                "tempo": 120.0
            },
            {
                "start_time": 37.1545455,
                "end_time": 39.0477273,
                "pitch": 66,
                "velocity": 80,
                "duration": 1.8931818,
                "tempo": 120.0
            },
            {
                "start_time": 39.0659091,
                "end_time": 40.975,
                "pitch": 60,
                "velocity": 80,
                "duration": 1.9090909,
                "tempo": 120.0
            },
            {
                "start_time": 40.9931818,
                "end_time": 42.9204545,
                "pitch": 62,
                "velocity": 80,
                "duration": 1.9272727,
                "tempo": 120.0
            }
        ],
        "Clarinet": [
            {
                "start_time": 0.0068182,
                "end_time": 0.6568182,
                "pitch": 100,
                "velocity": 13,
                "duration": 0.65,
                "tempo": 120.0
            },
            {
                "start_time": 0.6568182,
                "end_time": 0.8295455,
                "pitch": 98,
                "velocity": 13,
                "duration": 0.1727273,
                "tempo": 120.0
            },
            {
                "start_time": 0.8295455,
                "end_time": 0.9181818,
                "pitch": 96,
                "velocity": 13,
                "duration": 0.0886364,
                "tempo": 120.0
            },
            {
                "start_time": 0.9181818,
                "end_time": 1.2681818,
                "pitch": 95,
                "velocity": 13,
                "duration": 0.35,
                "tempo": 120.0
            },
            {
                "start_time": 1.2681818,
                "end_time": 1.7318182,
                "pitch": 93,
                "velocity": 13,
                "duration": 0.4636364,
                "tempo": 120.0
            },
            {
                "start_time": 1.7318182,
                "end_time": 2.1772727,
                "pitch": 90,
                "velocity": 13,
                "duration": 0.4454545,
                "tempo": 120.0
            },
            {
                "start_time": 2.1772727,
                "end_time": 2.4363636,
                "pitch": 87,
                "velocity": 13,
                "duration": 0.2590909,
                "tempo": 120.0
            },
            {
                "start_time": 2.4363636,
                "end_time": 2.5204545,
                "pitch": 84,
                "velocity": 13,
                "duration": 0.0840909,
                "tempo": 120.0
            },
            {
                "start_time": 2.5204545,
                "end_time": 2.8863636,
                "pitch": 83,
                "velocity": 13,
                "duration": 0.3659091,
                "tempo": 120.0
            },
            {
                "start_time": 2.8863636,
                "end_time": 3.25,
                "pitch": 81,
                "velocity": 13,
                "duration": 0.3636364,
                "tempo": 120.0
            },
            {
                "start_time": 3.25,
                "end_time": 3.7522727,
                "pitch": 78,
                "velocity": 13,
                "duration": 0.5022727,
                "tempo": 120.0
            },
            {
                "start_time": 3.7522727,
                "end_time": 4.1659091,
                "pitch": 75,
                "velocity": 13,
                "duration": 0.4136364,
                "tempo": 120.0
            }
        ],
        "Violin": [
            {
                "start_time": 11.0477273,
                "end_time": 11.3568182,
                "pitch": 76,
                "velocity": 127,
                "duration": 0.3090909,
                "tempo": 120.0
            },
            {
                "start_time": 11.3886364,
                "end_time": 11.6863636,
                "pitch": 75,
                "velocity": 127,
                "duration": 0.2977273,
                "tempo": 120.0
            },
            {
                "start_time": 11.7022727,
                "end_time": 11.7909091,
                "pitch": 73,
                "velocity": 127,
                "duration": 0.0886364,
                "tempo": 120.0
            },
            {
                "start_time": 11.8045455,
                "end_time": 11.8931818,
                "pitch": 71,
                "velocity": 127,
                "duration": 0.0886364,
                "tempo": 120.0
            },
            {
                "start_time": 11.9227273,
                "end_time": 13.2227273,
                "pitch": 70,
                "velocity": 127,
                "duration": 1.3,
                "tempo": 120.0
            },
            {
                "start_time": 13.2386364,
                "end_time": 13.2727273,
                "pitch": 70,
                "velocity": 127,
                "duration": 0.0340909,
                "tempo": 120.0
            },
            {
                "start_time": 13.2727273,
                "end_time": 13.3227273,
                "pitch": 72,
                "velocity": 127,
                "duration": 0.05,
                "tempo": 120.0
            },
            {
                "start_time": 13.3227273,
                "end_time": 13.3568182,
                "pitch": 74,
                "velocity": 127,
                "duration": 0.0340909,
                "tempo": 120.0
            },
            {
                "start_time": 13.2727273,
                "end_time": 13.5727273,
                "pitch": 76,
                "velocity": 127,
                "duration": 0.3,
                "tempo": 120.0
            },
            {
                "start_time": 13.3568182,
                "end_time": 13.5727273,
                "pitch": 76,
                "velocity": 127,
                "duration": 0.2159091,
                "tempo": 120.0
            },
            {
                "start_time": 13.6068182,
                "end_time": 13.825,
                "pitch": 79,
                "velocity": 127,
                "duration": 0.2181818,
                "tempo": 120.0
            },
            {
                "start_time": 13.8409091,
                "end_time": 13.9090909,
                "pitch": 78,
                "velocity": 127,
                "duration": 0.0681818,
                "tempo": 120.0
            },
            {
                "start_time": 13.9090909,
                "end_time": 14.7909091,
                "pitch": 75,
                "velocity": 127,
                "duration": 0.8818182,
                "tempo": 120.0
            },
            {
                "start_time": 14.825,
                "end_time": 14.9431818,
                "pitch": 75,
                "velocity": 127,
                "duration": 0.1181818,
                "tempo": 120.0
            },
            {
                "start_time": 14.9431818,
                "end_time": 15.0454545,
                "pitch": 78,
                "velocity": 127,
                "duration": 0.1022727,
                "tempo": 120.0
            },
            {
                "start_time": 15.0636364,
                "end_time": 15.2863636,
                "pitch": 78,
                "velocity": 127,
                "duration": 0.2227273,
                "tempo": 120.0
            },
            {
                "start_time": 15.3022727,
                "end_time": 15.5272727,
                "pitch": 76,
                "velocity": 127,
                "duration": 0.225,
                "tempo": 120.0
            },
            {
                "start_time": 15.5431818,
                "end_time": 15.7522727,
                "pitch": 74,
                "velocity": 127,
                "duration": 0.2090909,
                "tempo": 120.0
            },
            {
                "start_time": 15.7681818,
                "end_time": 16.7340909,
                "pitch": 72,
                "velocity": 127,
                "duration": 0.9659091,
                "tempo": 120.0
            },
            {
                "start_time": 16.7522727,
                "end_time": 16.8181818,
                "pitch": 73,
                "velocity": 127,
                "duration": 0.0659091,
                "tempo": 120.0
            },
            {
                "start_time": 16.8181818,
                "end_time": 16.8681818,
                "pitch": 76,
                "velocity": 127,
                "duration": 0.05,
                "tempo": 120.0
            },
            {
                "start_time": 16.8681818,
                "end_time": 16.9363636,
                "pitch": 79,
                "velocity": 127,
                "duration": 0.0681818,
                "tempo": 120.0
            },
            {
                "start_time": 16.9363636,
                "end_time": 17.7181818,
                "pitch": 82,
                "velocity": 127,
                "duration": 0.7818182,
                "tempo": 120.0
            },
            {
                "start_time": 17.7363636,
                "end_time": 17.8181818,
                "pitch": 82,
                "velocity": 127,
                "duration": 0.0818182,
                "tempo": 120.0
            },
            {
                "start_time": 17.8181818,
                "end_time": 17.8863636,
                "pitch": 80,
                "velocity": 127,
                "duration": 0.0681818,
                "tempo": 120.0
            },
            {
                "start_time": 17.8863636,
                "end_time": 18.6840909,
                "pitch": 78,
                "velocity": 127,
                "duration": 0.7977273,
                "tempo": 120.0
            },
            {
                "start_time": 18.7022727,
                "end_time": 19.0386364,
                "pitch": 76,
                "velocity": 127,
                "duration": 0.3363636,
                "tempo": 120.0
            },
            {
                "start_time": 19.0545455,
                "end_time": 19.3886364,
                "pitch": 75,
                "velocity": 127,
                "duration": 0.3340909,
                "tempo": 120.0
            },
            {
                "start_time": 19.4227273,
                "end_time": 19.525,
                "pitch": 73,
                "velocity": 127,
                "duration": 0.1022727,
                "tempo": 120.0
            },
            {
                "start_time": 19.5431818,
                "end_time": 19.6454545,
                "pitch": 71,
                "velocity": 127,
                "duration": 0.1022727,
                "tempo": 120.0
            },
            {
                "start_time": 19.6636364,
                "end_time": 20.6204545,
                "pitch": 70,
                "velocity": 127,
                "duration": 0.9568182,
                "tempo": 120.0
            },
            {
                "start_time": 20.6386364,
                "end_time": 20.6545455,
                "pitch": 71,
                "velocity": 127,
                "duration": 0.0159091,
                "tempo": 120.0
            },
            {
                "start_time": 20.6545455,
                "end_time": 20.6886364,
                "pitch": 72,
                "velocity": 127,
                "duration": 0.0340909,
                "tempo": 120.0
            },
            {
                "start_time": 20.6886364,
                "end_time": 20.7409091,
                "pitch": 74,
                "velocity": 127,
                "duration": 0.0522727,
                "tempo": 120.0
            },
            {
                "start_time": 20.6545455,
                "end_time": 20.7909091,
                "pitch": 76,
                "velocity": 127,
                "duration": 0.1363636,
                "tempo": 120.0
            },
            {
                "start_time": 20.7409091,
                "end_time": 20.7909091,
                "pitch": 76,
                "velocity": 127,
                "duration": 0.05,
                "tempo": 120.0
            },
            {
                "start_time": 20.7909091,
                "end_time": 21.5863636,
                "pitch": 79,
                "velocity": 127,
                "duration": 0.7954545,
                "tempo": 120.0
            },
            {
                "start_time": 21.6045455,
                "end_time": 22.0636364,
                "pitch": 78,
                "velocity": 127,
                "duration": 0.4590909,
                "tempo": 120.0
            },
            {
                "start_time": 22.0818182,
                "end_time": 22.3204545,
                "pitch": 76,
                "velocity": 127,
                "duration": 0.2386364,
                "tempo": 120.0
            },
            {
                "start_time": 22.3363636,
                "end_time": 22.7954545,
                "pitch": 74,
                "velocity": 127,
                "duration": 0.4590909,
                "tempo": 120.0
            },
            {
                "start_time": 22.8295455,
                "end_time": 23.2818182,
                "pitch": 72,
                "velocity": 127,
                "duration": 0.4522727,
                "tempo": 120.0
            },
            {
                "start_time": 23.2977273,
                "end_time": 23.5318182,
                "pitch": 69,
                "velocity": 127,
                "duration": 0.2340909,
                "tempo": 120.0
            },
            {
                "start_time": 23.5477273,
                "end_time": 23.5818182,
                "pitch": 69,
                "velocity": 127,
                "duration": 0.0340909,
                "tempo": 120.0
            },
            {
                "start_time": 23.5818182,
                "end_time": 25.4613636,
                "pitch": 71,
                "velocity": 127,
                "duration": 1.8795455,
                "tempo": 120.0
            },
            {
                "start_time": 30.3545455,
                "end_time": 30.6931818,
                "pitch": 76,
                "velocity": 127,
                "duration": 0.3386364,
                "tempo": 120.0
            },
            {
                "start_time": 30.7113636,
                "end_time": 31.0659091,
                "pitch": 75,
                "velocity": 127,
                "duration": 0.3545455,
                "tempo": 120.0
            },
            {
                "start_time": 31.0840909,
                "end_time": 31.1840909,
                "pitch": 73,
                "velocity": 127,
                "duration": 0.1,
                "tempo": 120.0
            },
            {
                "start_time": 31.2022727,
                "end_time": 31.3022727,
                "pitch": 71,
                "velocity": 127,
                "duration": 0.1,
                "tempo": 120.0
            },
            {
                "start_time": 31.3204545,
                "end_time": 32.625,
                "pitch": 70,
                "velocity": 127,
                "duration": 1.3045455,
                "tempo": 120.0
            },
            {
                "start_time": 32.6590909,
                "end_time": 32.6931818,
                "pitch": 70,
                "velocity": 127,
                "duration": 0.0340909,
                "tempo": 120.0
            },
            {
                "start_time": 32.6931818,
                "end_time": 32.7454545,
                "pitch": 72,
                "velocity": 127,
                "duration": 0.0522727,
                "tempo": 120.0
            },
            {
                "start_time": 32.7454545,
                "end_time": 32.7795455,
                "pitch": 74,
                "velocity": 127,
                "duration": 0.0340909,
                "tempo": 120.0
            },
            {
                "start_time": 32.6931818,
                "end_time": 32.9977273,
                "pitch": 76,
                "velocity": 127,
                "duration": 0.3045455,
                "tempo": 120.0
            },
            {
                "start_time": 32.7795455,
                "end_time": 32.9977273,
                "pitch": 76,
                "velocity": 127,
                "duration": 0.2181818,
                "tempo": 120.0
            },
            {
                "start_time": 33.0136364,
                "end_time": 33.25,
                "pitch": 79,
                "velocity": 127,
                "duration": 0.2363636,
                "tempo": 120.0
            },
            {
                "start_time": 33.2681818,
                "end_time": 33.3159091,
                "pitch": 78,
                "velocity": 127,
                "duration": 0.0477273,
                "tempo": 120.0
            },
            {
                "start_time": 33.3159091,
                "end_time": 34.2113636,
                "pitch": 75,
                "velocity": 127,
                "duration": 0.8954545,
                "tempo": 120.0
            },
            {
                "start_time": 34.2295455,
                "end_time": 34.3613636,
                "pitch": 75,
                "velocity": 127,
                "duration": 0.1318182,
                "tempo": 120.0
            },
            {
                "start_time": 34.3613636,
                "end_time": 34.4590909,
                "pitch": 78,
                "velocity": 127,
                "duration": 0.0977273,
                "tempo": 120.0
            },
            {
                "start_time": 34.475,
                "end_time": 34.6886364,
                "pitch": 78,
                "velocity": 127,
                "duration": 0.2136364,
                "tempo": 120.0
            },
            {
                "start_time": 34.7068182,
                "end_time": 34.9409091,
                "pitch": 76,
                "velocity": 127,
                "duration": 0.2340909,
                "tempo": 120.0
            },
            {
                "start_time": 34.9590909,
                "end_time": 35.1772727,
                "pitch": 74,
                "velocity": 127,
                "duration": 0.2181818,
                "tempo": 120.0
            },
            {
                "start_time": 35.1931818,
                "end_time": 36.1568182,
                "pitch": 72,
                "velocity": 127,
                "duration": 0.9636364,
                "tempo": 120.0
            },
            {
                "start_time": 36.1727273,
                "end_time": 36.2227273,
                "pitch": 73,
                "velocity": 127,
                "duration": 0.05,
                "tempo": 120.0
            },
            {
                "start_time": 36.2227273,
                "end_time": 36.2909091,
                "pitch": 76,
                "velocity": 127,
                "duration": 0.0681818,
                "tempo": 120.0
            },
            {
                "start_time": 36.2909091,
                "end_time": 36.3568182,
                "pitch": 79,
                "velocity": 127,
                "duration": 0.0659091,
                "tempo": 120.0
            },
            {
                "start_time": 36.3568182,
                "end_time": 37.1181818,
                "pitch": 82,
                "velocity": 127,
                "duration": 0.7613636,
                "tempo": 120.0
            },
            {
                "start_time": 37.1545455,
                "end_time": 37.2204545,
                "pitch": 82,
                "velocity": 127,
                "duration": 0.0659091,
                "tempo": 120.0
            },
            {
                "start_time": 37.2204545,
                "end_time": 37.3022727,
                "pitch": 80,
                "velocity": 127,
                "duration": 0.0818182,
                "tempo": 120.0
            },
            {
                "start_time": 17.8863636,
                "end_time": 37.3022727,
                "pitch": 90,
                "velocity": 127,
                "duration": 19.4159091,
                "tempo": 120.0
            },
            {
                "start_time": 37.3022727,
                "end_time": 38.0795455,
                "pitch": 78,
                "velocity": 127,
                "duration": 0.7772727,
                "tempo": 120.0
            },
            {
                "start_time": 38.0977273,
                "end_time": 38.4454545,
                "pitch": 76,
                "velocity": 127,
                "duration": 0.3477273,
                "tempo": 120.0
            },
            {
                "start_time": 38.4636364,
                "end_time": 38.7977273,
                "pitch": 75,
                "velocity": 127,
                "duration": 0.3340909,
                "tempo": 120.0
            },
            {
                "start_time": 38.8136364,
                "end_time": 38.9136364,
                "pitch": 73,
                "velocity": 127,
                "duration": 0.1,
                "tempo": 120.0
            },
            {
                "start_time": 38.9477273,
                "end_time": 39.0477273,
                "pitch": 71,
                "velocity": 127,
                "duration": 0.1,
                "tempo": 120.0
            },
            {
                "start_time": 39.0636364,
                "end_time": 40.0136364,
                "pitch": 70,
                "velocity": 127,
                "duration": 0.95,
                "tempo": 120.0
            },
            {
                "start_time": 40.0477273,
                "end_time": 40.0659091,
                "pitch": 71,
                "velocity": 127,
                "duration": 0.0181818,
                "tempo": 120.0
            },
            {
                "start_time": 40.0659091,
                "end_time": 40.1,
                "pitch": 72,
                "velocity": 127,
                "duration": 0.0340909,
                "tempo": 120.0
            },
            {
                "start_time": 40.1,
                "end_time": 40.15,
                "pitch": 74,
                "velocity": 127,
                "duration": 0.05,
                "tempo": 120.0
            },
            {
                "start_time": 40.0659091,
                "end_time": 40.2022727,
                "pitch": 76,
                "velocity": 127,
                "duration": 0.1363636,
                "tempo": 120.0
            },
            {
                "start_time": 40.15,
                "end_time": 40.2022727,
                "pitch": 76,
                "velocity": 127,
                "duration": 0.0522727,
                "tempo": 120.0
            },
            {
                "start_time": 40.2022727,
                "end_time": 40.975,
                "pitch": 79,
                "velocity": 127,
                "duration": 0.7727273,
                "tempo": 120.0
            },
            {
                "start_time": 40.9909091,
                "end_time": 41.4704545,
                "pitch": 78,
                "velocity": 127,
                "duration": 0.4795455,
                "tempo": 120.0
            },
            {
                "start_time": 41.4886364,
                "end_time": 41.7045455,
                "pitch": 76,
                "velocity": 127,
                "duration": 0.2159091,
                "tempo": 120.0
            },
            {
                "start_time": 41.7386364,
                "end_time": 42.1886364,
                "pitch": 74,
                "velocity": 127,
                "duration": 0.45,
                "tempo": 120.0
            },
            {
                "start_time": 42.2068182,
                "end_time": 42.6818182,
                "pitch": 72,
                "velocity": 127,
                "duration": 0.475,
                "tempo": 120.0
            },
            {
                "start_time": 42.6977273,
                "end_time": 42.9204545,
                "pitch": 69,
                "velocity": 127,
                "duration": 0.2227273,
                "tempo": 120.0
            },
            {
                "start_time": 42.9545455,
                "end_time": 42.9886364,
                "pitch": 69,
                "velocity": 127,
                "duration": 0.0340909,
                "tempo": 120.0
            },
            {
                "start_time": 42.9886364,
                "end_time": 44.8659091,
                "pitch": 71,
                "velocity": 127,
                "duration": 1.8772727,
                "tempo": 120.0
            },
            {
                "start_time": 124.5136364,
                "end_time": 124.6159091,
                "pitch": 52,
                "velocity": 127,
                "duration": 0.1022727,
                "tempo": 120.0
            },
            {
                "start_time": 124.6340909,
                "end_time": 124.6659091,
                "pitch": 53,
                "velocity": 127,
                "duration": 0.0318182,
                "tempo": 120.0
            },
            {
                "start_time": 124.6659091,
                "end_time": 124.7340909,
                "pitch": 55,
                "velocity": 127,
                "duration": 0.0681818,
                "tempo": 120.0
            },
            {
                "start_time": 124.7522727,
                "end_time": 124.7840909,
                "pitch": 57,
                "velocity": 127,
                "duration": 0.0318182,
                "tempo": 120.0
            },
            {
                "start_time": 124.7840909,
                "end_time": 124.8522727,
                "pitch": 59,
                "velocity": 127,
                "duration": 0.0681818,
                "tempo": 120.0
            },
            {
                "start_time": 124.8681818,
                "end_time": 124.9181818,
                "pitch": 60,
                "velocity": 127,
                "duration": 0.05,
                "tempo": 120.0
            },
            {
                "start_time": 124.9181818,
                "end_time": 124.9522727,
                "pitch": 62,
                "velocity": 127,
                "duration": 0.0340909,
                "tempo": 120.0
            },
            {
                "start_time": 124.9522727,
                "end_time": 124.9681818,
                "pitch": 64,
                "velocity": 127,
                "duration": 0.0159091,
                "tempo": 120.0
            },
            {
                "start_time": 124.9863636,
                "end_time": 125.0204545,
                "pitch": 62,
                "velocity": 127,
                "duration": 0.0340909,
                "tempo": 120.0
            },
            {
                "start_time": 125.0204545,
                "end_time": 125.0363636,
                "pitch": 60,
                "velocity": 127,
                "duration": 0.0159091,
                "tempo": 120.0
            },
            {
                "start_time": 125.0363636,
                "end_time": 125.0522727,
                "pitch": 58,
                "velocity": 127,
                "duration": 0.0159091,
                "tempo": 120.0
            },
            {
                "start_time": 125.0522727,
                "end_time": 125.0704545,
                "pitch": 56,
                "velocity": 127,
                "duration": 0.0181818,
                "tempo": 120.0
            },
            {
                "start_time": 124.6659091,
                "end_time": 125.1545455,
                "pitch": 0,
                "velocity": 127,
                "duration": 0.4886364,
                "tempo": 120.0
            },
            {
                "start_time": 125.0704545,
                "end_time": 125.1545455,
                "pitch": 54,
                "velocity": 127,
                "duration": 0.0840909,
                "tempo": 120.0
            },
            {
                "start_time": 125.1545455,
                "end_time": 125.2227273,
                "pitch": 55,
                "velocity": 127,
                "duration": 0.0681818,
                "tempo": 120.0
            },
            {
                "start_time": 125.2409091,
                "end_time": 125.3431818,
                "pitch": 54,
                "velocity": 127,
                "duration": 0.1022727,
                "tempo": 120.0
            },
            {
                "start_time": 125.3613636,
                "end_time": 125.4613636,
                "pitch": 52,
                "velocity": 127,
                "duration": 0.1,
                "tempo": 120.0
            }
        ],
        "Vibraphone": [
            {
                "start_time": 46.825,
                "end_time": 46.9181818,
                "pitch": 83,
                "velocity": 64,
                "duration": 0.0931818,
                "tempo": 120.0
            },
            {
                "start_time": 46.9522727,
                "end_time": 47.05,
                "pitch": 76,
                "velocity": 64,
                "duration": 0.0977273,
                "tempo": 120.0
            },
            {
                "start_time": 47.0659091,
                "end_time": 47.1659091,
                "pitch": 72,
                "velocity": 64,
                "duration": 0.1,
                "tempo": 120.0
            },
            {
                "start_time": 47.1818182,
                "end_time": 47.2795455,
                "pitch": 79,
                "velocity": 64,
                "duration": 0.0977273,
                "tempo": 120.0
            },
            {
                "start_time": 47.2954545,
                "end_time": 47.3977273,
                "pitch": 76,
                "velocity": 64,
                "duration": 0.1022727,
                "tempo": 120.0
            },
            {
                "start_time": 47.4159091,
                "end_time": 47.5181818,
                "pitch": 72,
                "velocity": 64,
                "duration": 0.1022727,
                "tempo": 120.0
            },
            {
                "start_time": 47.5522727,
                "end_time": 47.6545455,
                "pitch": 79,
                "velocity": 64,
                "duration": 0.1022727,
                "tempo": 120.0
            },
            {
                "start_time": 47.6727273,
                "end_time": 47.775,
                "pitch": 76,
                "velocity": 64,
                "duration": 0.1022727,
                "tempo": 120.0
            },
            {
                "start_time": 47.7909091,
                "end_time": 47.8931818,
                "pitch": 79,
                "velocity": 64,
                "duration": 0.1022727,
                "tempo": 120.0
            },
            {
                "start_time": 47.9090909,
                "end_time": 48.0113636,
                "pitch": 76,
                "velocity": 64,
                "duration": 0.1022727,
                "tempo": 120.0
            },
            {
                "start_time": 48.0454545,
                "end_time": 48.1454545,
                "pitch": 72,
                "velocity": 64,
                "duration": 0.1,
                "tempo": 120.0
            },
            {
                "start_time": 48.1613636,
                "end_time": 48.2636364,
                "pitch": 79,
                "velocity": 64,
                "duration": 0.1022727,
                "tempo": 120.0
            },
            {
                "start_time": 48.2795455,
                "end_time": 48.3795455,
                "pitch": 76,
                "velocity": 64,
                "duration": 0.1,
                "tempo": 120.0
            },
            {
                "start_time": 48.3977273,
                "end_time": 48.4977273,
                "pitch": 72,
                "velocity": 64,
                "duration": 0.1,
                "tempo": 120.0
            },
            {
                "start_time": 48.5136364,
                "end_time": 48.6136364,
                "pitch": 79,
                "velocity": 64,
                "duration": 0.1,
                "tempo": 120.0
            },
            {
                "start_time": 48.6477273,
                "end_time": 48.7477273,
                "pitch": 76,
                "velocity": 64,
                "duration": 0.1,
                "tempo": 120.0
            },
            {
                "start_time": 48.7636364,
                "end_time": 48.8659091,
                "pitch": 81,
                "velocity": 64,
                "duration": 0.1022727,
                "tempo": 120.0
            },
            {
                "start_time": 48.8840909,
                "end_time": 48.9863636,
                "pitch": 78,
                "velocity": 64,
                "duration": 0.1022727,
                "tempo": 120.0
            },
            {
                "start_time": 49.0045455,
                "end_time": 49.1045455,
                "pitch": 74,
                "velocity": 64,
                "duration": 0.1,
                "tempo": 120.0
            },
            {
                "start_time": 49.1227273,
                "end_time": 49.225,
                "pitch": 81,
                "velocity": 64,
                "duration": 0.1022727,
                "tempo": 120.0
            },
            {
                "start_time": 49.2613636,
                "end_time": 49.3590909,
                "pitch": 78,
                "velocity": 64,
                "duration": 0.0977273,
                "tempo": 120.0
            },
            {
                "start_time": 49.3772727,
                "end_time": 49.4772727,
                "pitch": 74,
                "velocity": 64,
                "duration": 0.1,
                "tempo": 120.0
            },
            {
                "start_time": 49.4931818,
                "end_time": 49.5931818,
                "pitch": 81,
                "velocity": 64,
                "duration": 0.1,
                "tempo": 120.0
            },
            {
                "start_time": 49.6090909,
                "end_time": 49.7090909,
                "pitch": 78,
                "velocity": 64,
                "duration": 0.1,
                "tempo": 120.0
            },
            {
                "start_time": 49.7272727,
                "end_time": 49.825,
                "pitch": 81,
                "velocity": 64,
                "duration": 0.0977273,
                "tempo": 120.0
            },
            {
                "start_time": 49.8590909,
                "end_time": 49.9568182,
                "pitch": 78,
                "velocity": 64,
                "duration": 0.0977273,
                "tempo": 120.0
            },
            {
                "start_time": 49.9727273,
                "end_time": 50.0704545,
                "pitch": 74,
                "velocity": 64,
                "duration": 0.0977273,
                "tempo": 120.0
            },
            {
                "start_time": 50.0886364,
                "end_time": 50.1863636,
                "pitch": 81,
                "velocity": 64,
                "duration": 0.0977273,
                "tempo": 120.0
            },
            {
                "start_time": 50.2022727,
                "end_time": 50.3045455,
                "pitch": 78,
                "velocity": 64,
                "duration": 0.1022727,
                "tempo": 120.0
            },
            {
                "start_time": 50.3386364,
                "end_time": 50.4386364,
                "pitch": 74,
                "velocity": 64,
                "duration": 0.1,
                "tempo": 120.0
            },
            {
                "start_time": 50.4568182,
                "end_time": 50.5568182,
                "pitch": 81,
                "velocity": 64,
                "duration": 0.1,
                "tempo": 120.0
            },
            {
                "start_time": 50.5727273,
                "end_time": 50.675,
                "pitch": 78,
                "velocity": 64,
                "duration": 0.1022727,
                "tempo": 120.0
            },
            {
                "start_time": 50.6931818,
                "end_time": 50.7931818,
                "pitch": 83,
                "velocity": 64,
                "duration": 0.1,
                "tempo": 120.0
            },
            {
                "start_time": 50.8113636,
                "end_time": 50.9136364,
                "pitch": 79,
                "velocity": 64,
                "duration": 0.1022727,
                "tempo": 120.0
            },
            {
                "start_time": 50.9477273,
                "end_time": 51.05,
                "pitch": 76,
                "velocity": 64,
                "duration": 0.1022727,
                "tempo": 120.0
            },
            {
                "start_time": 51.0659091,
                "end_time": 51.1681818,
                "pitch": 83,
                "velocity": 64,
                "duration": 0.1022727,
                "tempo": 120.0
            },
            {
                "start_time": 51.1863636,
                "end_time": 51.2863636,
                "pitch": 79,
                "velocity": 64,
                "duration": 0.1,
                "tempo": 120.0
            },
            {
                "start_time": 51.3022727,
                "end_time": 51.4022727,
                "pitch": 76,
                "velocity": 64,
                "duration": 0.1,
                "tempo": 120.0
            },
            {
                "start_time": 51.4204545,
                "end_time": 51.5204545,
                "pitch": 83,
                "velocity": 64,
                "duration": 0.1,
                "tempo": 120.0
            },
            {
                "start_time": 51.5545455,
                "end_time": 51.6545455,
                "pitch": 79,
                "velocity": 64,
                "duration": 0.1,
                "tempo": 120.0
            },
            {
                "start_time": 51.6704545,
                "end_time": 51.7704545,
                "pitch": 83,
                "velocity": 64,
                "duration": 0.1,
                "tempo": 120.0
            },
            {
                "start_time": 51.7863636,
                "end_time": 51.8886364,
                "pitch": 79,
                "velocity": 64,
                "duration": 0.1022727,
                "tempo": 120.0
            },
            {
                "start_time": 51.9045455,
                "end_time": 52.0045455,
                "pitch": 76,
                "velocity": 64,
                "duration": 0.1,
                "tempo": 120.0
            },
            {
                "start_time": 52.0386364,
                "end_time": 52.1386364,
                "pitch": 83,
                "velocity": 64,
                "duration": 0.1,
                "tempo": 120.0
            },
            {
                "start_time": 52.1545455,
                "end_time": 52.2568182,
                "pitch": 79,
                "velocity": 64,
                "duration": 0.1022727,
                "tempo": 120.0
            },
            {
                "start_time": 52.275,
                "end_time": 52.3772727,
                "pitch": 76,
                "velocity": 64,
                "duration": 0.1022727,
                "tempo": 120.0
            },
            {
                "start_time": 52.3954545,
                "end_time": 52.4954545,
                "pitch": 83,
                "velocity": 64,
                "duration": 0.1,
                "tempo": 120.0
            },
            {
                "start_time": 52.5136364,
                "end_time": 52.6159091,
                "pitch": 79,
                "velocity": 64,
                "duration": 0.1022727,
                "tempo": 120.0
            },
            {
                "start_time": 52.6522727,
                "end_time": 52.7522727,
                "pitch": 84,
                "velocity": 64,
                "duration": 0.1,
                "tempo": 120.0
            },
            {
                "start_time": 52.7704545,
                "end_time": 52.8727273,
                "pitch": 81,
                "velocity": 64,
                "duration": 0.1022727,
                "tempo": 120.0
            },
            {
                "start_time": 52.8886364,
                "end_time": 52.9931818,
                "pitch": 78,
                "velocity": 64,
                "duration": 0.1045455,
                "tempo": 120.0
            },
            {
                "start_time": 53.0090909,
                "end_time": 53.1113636,
                "pitch": 84,
                "velocity": 64,
                "duration": 0.1022727,
                "tempo": 120.0
            },
            {
                "start_time": 53.1295455,
                "end_time": 53.225,
                "pitch": 81,
                "velocity": 64,
                "duration": 0.0954545,
                "tempo": 120.0
            },
            {
                "start_time": 53.2568182,
                "end_time": 53.3545455,
                "pitch": 78,
                "velocity": 64,
                "duration": 0.0977273,
                "tempo": 120.0
            },
            {
                "start_time": 53.3704545,
                "end_time": 53.4659091,
                "pitch": 84,
                "velocity": 64,
                "duration": 0.0954545,
                "tempo": 120.0
            },
            {
                "start_time": 53.4818182,
                "end_time": 53.5772727,
                "pitch": 81,
                "velocity": 64,
                "duration": 0.0954545,
                "tempo": 120.0
            },
            {
                "start_time": 53.5954545,
                "end_time": 53.6931818,
                "pitch": 84,
                "velocity": 64,
                "duration": 0.0977273,
                "tempo": 120.0
            },
            {
                "start_time": 53.7113636,
                "end_time": 53.8113636,
                "pitch": 81,
                "velocity": 64,
                "duration": 0.1,
                "tempo": 120.0
            },
            {
                "start_time": 53.8454545,
                "end_time": 53.9454545,
                "pitch": 78,
                "velocity": 64,
                "duration": 0.1,
                "tempo": 120.0
            },
            {
                "start_time": 53.9613636,
                "end_time": 54.0613636,
                "pitch": 84,
                "velocity": 64,
                "duration": 0.1,
                "tempo": 120.0
            },
            {
                "start_time": 54.0772727,
                "end_time": 54.1795455,
                "pitch": 81,
                "velocity": 64,
                "duration": 0.1022727,
                "tempo": 120.0
            },
            {
                "start_time": 54.1977273,
                "end_time": 54.3,
                "pitch": 78,
                "velocity": 64,
                "duration": 0.1022727,
                "tempo": 120.0
            },
            {
                "start_time": 54.3340909,
                "end_time": 54.4363636,
                "pitch": 84,
                "velocity": 64,
                "duration": 0.1022727,
                "tempo": 120.0
            },
            {
                "start_time": 54.4545455,
                "end_time": 54.5568182,
                "pitch": 81,
                "velocity": 64,
                "duration": 0.1022727,
                "tempo": 120.0
            },
            {
                "start_time": 54.575,
                "end_time": 54.6772727,
                "pitch": 83,
                "velocity": 64,
                "duration": 0.1022727,
                "tempo": 120.0
            },
            {
                "start_time": 54.6931818,
                "end_time": 54.7954545,
                "pitch": 76,
                "velocity": 64,
                "duration": 0.1022727,
                "tempo": 120.0
            },
            {
                "start_time": 54.8136364,
                "end_time": 54.9159091,
                "pitch": 72,
                "velocity": 64,
                "duration": 0.1022727,
                "tempo": 120.0
            },
            {
                "start_time": 54.95,
                "end_time": 55.0522727,
                "pitch": 79,
                "velocity": 64,
                "duration": 0.1022727,
                "tempo": 120.0
            },
            {
                "start_time": 55.0704545,
                "end_time": 55.1704545,
                "pitch": 76,
                "velocity": 64,
                "duration": 0.1,
                "tempo": 120.0
            },
            {
                "start_time": 55.1863636,
                "end_time": 55.2863636,
                "pitch": 72,
                "velocity": 64,
                "duration": 0.1,
                "tempo": 120.0
            },
            {
                "start_time": 55.3045455,
                "end_time": 55.4045455,
                "pitch": 79,
                "velocity": 64,
                "duration": 0.1,
                "tempo": 120.0
            },
            {
                "start_time": 55.4204545,
                "end_time": 55.5204545,
                "pitch": 76,
                "velocity": 64,
                "duration": 0.1,
                "tempo": 120.0
            },
            {
                "start_time": 55.5545455,
                "end_time": 55.6545455,
                "pitch": 79,
                "velocity": 64,
                "duration": 0.1,
                "tempo": 120.0
            },
            {
                "start_time": 55.6704545,
                "end_time": 55.7727273,
                "pitch": 76,
                "velocity": 64,
                "duration": 0.1022727,
                "tempo": 120.0
            },
            {
                "start_time": 55.7909091,
                "end_time": 55.8909091,
                "pitch": 72,
                "velocity": 64,
                "duration": 0.1,
                "tempo": 120.0
            },
            {
                "start_time": 55.9068182,
                "end_time": 56.0090909,
                "pitch": 79,
                "velocity": 64,
                "duration": 0.1022727,
                "tempo": 120.0
            },
            {
                "start_time": 56.025,
                "end_time": 56.1227273,
                "pitch": 76,
                "velocity": 64,
                "duration": 0.0977273,
                "tempo": 120.0
            },
            {
                "start_time": 56.1568182,
                "end_time": 56.2545455,
                "pitch": 72,
                "velocity": 64,
                "duration": 0.0977273,
                "tempo": 120.0
            },
            {
                "start_time": 56.2727273,
                "end_time": 56.3704545,
                "pitch": 79,
                "velocity": 64,
                "duration": 0.0977273,
                "tempo": 120.0
            },
            {
                "start_time": 56.3863636,
                "end_time": 56.4840909,
                "pitch": 76,
                "velocity": 64,
                "duration": 0.0977273,
                "tempo": 120.0
            },
            {
                "start_time": 56.5022727,
                "end_time": 56.6,
                "pitch": 81,
                "velocity": 64,
                "duration": 0.0977273,
                "tempo": 120.0
            },
            {
                "start_time": 56.6340909,
                "end_time": 56.7340909,
                "pitch": 78,
                "velocity": 64,
                "duration": 0.1,
                "tempo": 120.0
            },
            {
                "start_time": 56.7522727,
                "end_time": 56.8522727,
                "pitch": 74,
                "velocity": 64,
                "duration": 0.1,
                "tempo": 120.0
            },
            {
                "start_time": 56.8681818,
                "end_time": 56.9681818,
                "pitch": 81,
                "velocity": 64,
                "duration": 0.1,
                "tempo": 120.0
            },
            {
                "start_time": 56.9863636,
                "end_time": 57.0863636,
                "pitch": 78,
                "velocity": 64,
                "duration": 0.1,
                "tempo": 120.0
            },
            {
                "start_time": 57.1045455,
                "end_time": 57.2068182,
                "pitch": 74,
                "velocity": 64,
                "duration": 0.1022727,
                "tempo": 120.0
            },
            {
                "start_time": 57.2409091,
                "end_time": 57.3431818,
                "pitch": 81,
                "velocity": 64,
                "duration": 0.1022727,
                "tempo": 120.0
            },
            {
                "start_time": 57.3613636,
                "end_time": 57.4636364,
                "pitch": 78,
                "velocity": 64,
                "duration": 0.1022727,
                "tempo": 120.0
            },
            {
                "start_time": 57.4818182,
                "end_time": 57.5818182,
                "pitch": 81,
                "velocity": 64,
                "duration": 0.1,
                "tempo": 120.0
            },
            {
                "start_time": 57.5977273,
                "end_time": 57.6977273,
                "pitch": 78,
                "velocity": 64,
                "duration": 0.1,
                "tempo": 120.0
            },
            {
                "start_time": 57.7159091,
                "end_time": 57.8136364,
                "pitch": 74,
                "velocity": 64,
                "duration": 0.0977273,
                "tempo": 120.0
            },
            {
                "start_time": 57.8477273,
                "end_time": 57.9477273,
                "pitch": 81,
                "velocity": 64,
                "duration": 0.1,
                "tempo": 120.0
            },
            {
                "start_time": 57.9636364,
                "end_time": 58.0659091,
                "pitch": 78,
                "velocity": 64,
                "duration": 0.1022727,
                "tempo": 120.0
            },
            {
                "start_time": 58.0818182,
                "end_time": 58.1840909,
                "pitch": 74,
                "velocity": 64,
                "duration": 0.1022727,
                "tempo": 120.0
            },
            {
                "start_time": 58.2022727,
                "end_time": 58.3,
                "pitch": 81,
                "velocity": 64,
                "duration": 0.0977273,
                "tempo": 120.0
            },
            {
                "start_time": 58.3181818,
                "end_time": 58.4181818,
                "pitch": 78,
                "velocity": 64,
                "duration": 0.1,
                "tempo": 120.0
            },
            {
                "start_time": 58.4545455,
                "end_time": 58.5545455,
                "pitch": 64,
                "velocity": 64,
                "duration": 0.1,
                "tempo": 120.0
            },
            {
                "start_time": 58.5727273,
                "end_time": 58.675,
                "pitch": 64,
                "velocity": 64,
                "duration": 0.1022727,
                "tempo": 120.0
            },
            {
                "start_time": 58.6909091,
                "end_time": 58.7931818,
                "pitch": 64,
                "velocity": 64,
                "duration": 0.1022727,
                "tempo": 120.0
            },
            {
                "start_time": 58.8113636,
                "end_time": 58.9136364,
                "pitch": 64,
                "velocity": 64,
                "duration": 0.1022727,
                "tempo": 120.0
            },
            {
                "start_time": 58.9477273,
                "end_time": 58.9659091,
                "pitch": 67,
                "velocity": 64,
                "duration": 0.0181818,
                "tempo": 120.0
            },
            {
                "start_time": 58.9659091,
                "end_time": 58.9818182,
                "pitch": 70,
                "velocity": 64,
                "duration": 0.0159091,
                "tempo": 120.0
            },
            {
                "start_time": 58.9818182,
                "end_time": 58.9977273,
                "pitch": 73,
                "velocity": 64,
                "duration": 0.0159091,
                "tempo": 120.0
            },
            {
                "start_time": 58.9818182,
                "end_time": 59.0159091,
                "pitch": 76,
                "velocity": 64,
                "duration": 0.0340909,
                "tempo": 120.0
            },
            {
                "start_time": 58.9977273,
                "end_time": 59.0159091,
                "pitch": 76,
                "velocity": 64,
                "duration": 0.0181818,
                "tempo": 120.0
            },
            {
                "start_time": 59.0159091,
                "end_time": 59.0659091,
                "pitch": 79,
                "velocity": 64,
                "duration": 0.05,
                "tempo": 120.0
            },
            {
                "start_time": 59.0659091,
                "end_time": 59.1659091,
                "pitch": 82,
                "velocity": 64,
                "duration": 0.1,
                "tempo": 120.0
            },
            {
                "start_time": 59.1840909,
                "end_time": 59.2681818,
                "pitch": 84,
                "velocity": 64,
                "duration": 0.0840909,
                "tempo": 120.0
            },
            {
                "start_time": 59.2681818,
                "end_time": 59.2840909,
                "pitch": 86,
                "velocity": 64,
                "duration": 0.0159091,
                "tempo": 120.0
            },
            {
                "start_time": 59.3022727,
                "end_time": 59.4022727,
                "pitch": 87,
                "velocity": 64,
                "duration": 0.1,
                "tempo": 120.0
            },
            {
                "start_time": 59.4204545,
                "end_time": 59.5181818,
                "pitch": 64,
                "velocity": 64,
                "duration": 0.0977273,
                "tempo": 120.0
            },
            {
                "start_time": 59.55,
                "end_time": 59.65,
                "pitch": 64,
                "velocity": 64,
                "duration": 0.1,
                "tempo": 120.0
            },
            {
                "start_time": 59.6659091,
                "end_time": 59.7636364,
                "pitch": 64,
                "velocity": 64,
                "duration": 0.0977273,
                "tempo": 120.0
            },
            {
                "start_time": 59.7818182,
                "end_time": 59.8795455,
                "pitch": 64,
                "velocity": 64,
                "duration": 0.0977273,
                "tempo": 120.0
            },
            {
                "start_time": 59.8954545,
                "end_time": 59.9113636,
                "pitch": 67,
                "velocity": 64,
                "duration": 0.0159091,
                "tempo": 120.0
            },
            {
                "start_time": 59.9113636,
                "end_time": 59.9454545,
                "pitch": 70,
                "velocity": 64,
                "duration": 0.0340909,
                "tempo": 120.0
            },
            {
                "start_time": 59.9454545,
                "end_time": 59.9613636,
                "pitch": 73,
                "velocity": 64,
                "duration": 0.0159091,
                "tempo": 120.0
            },
            {
                "start_time": 59.9454545,
                "end_time": 59.9795455,
                "pitch": 76,
                "velocity": 64,
                "duration": 0.0340909,
                "tempo": 120.0
            },
            {
                "start_time": 59.9613636,
                "end_time": 59.9795455,
                "pitch": 76,
                "velocity": 64,
                "duration": 0.0181818,
                "tempo": 120.0
            },
            {
                "start_time": 59.9795455,
                "end_time": 60.0136364,
                "pitch": 79,
                "velocity": 64,
                "duration": 0.0340909,
                "tempo": 120.0
            },
            {
                "start_time": 60.0136364,
                "end_time": 60.1113636,
                "pitch": 82,
                "velocity": 64,
                "duration": 0.0977273,
                "tempo": 120.0
            },
            {
                "start_time": 60.1454545,
                "end_time": 60.2136364,
                "pitch": 84,
                "velocity": 64,
                "duration": 0.0681818,
                "tempo": 120.0
            },
            {
                "start_time": 60.2136364,
                "end_time": 60.2454545,
                "pitch": 86,
                "velocity": 64,
                "duration": 0.0318182,
                "tempo": 120.0
            },
            {
                "start_time": 60.2636364,
                "end_time": 60.3636364,
                "pitch": 87,
                "velocity": 64,
                "duration": 0.1,
                "tempo": 120.0
            },
            {
                "start_time": 60.3795455,
                "end_time": 60.4795455,
                "pitch": 64,
                "velocity": 64,
                "duration": 0.1,
                "tempo": 120.0
            },
            {
                "start_time": 60.4977273,
                "end_time": 60.5977273,
                "pitch": 64,
                "velocity": 64,
                "duration": 0.1,
                "tempo": 120.0
            },
            {
                "start_time": 60.6318182,
                "end_time": 60.7318182,
                "pitch": 64,
                "velocity": 64,
                "duration": 0.1,
                "tempo": 120.0
            },
            {
                "start_time": 60.75,
                "end_time": 60.85,
                "pitch": 64,
                "velocity": 64,
                "duration": 0.1,
                "tempo": 120.0
            },
            {
                "start_time": 60.8681818,
                "end_time": 60.8840909,
                "pitch": 67,
                "velocity": 64,
                "duration": 0.0159091,
                "tempo": 120.0
            },
            {
                "start_time": 60.8840909,
                "end_time": 60.9022727,
                "pitch": 70,
                "velocity": 64,
                "duration": 0.0181818,
                "tempo": 120.0
            },
            {
                "start_time": 60.9022727,
                "end_time": 60.9363636,
                "pitch": 73,
                "velocity": 64,
                "duration": 0.0340909,
                "tempo": 120.0
            },
            {
                "start_time": 60.9022727,
                "end_time": 60.9522727,
                "pitch": 76,
                "velocity": 64,
                "duration": 0.05,
                "tempo": 120.0
            },
            {
                "start_time": 60.9363636,
                "end_time": 60.9522727,
                "pitch": 76,
                "velocity": 64,
                "duration": 0.0159091,
                "tempo": 120.0
            },
            {
                "start_time": 60.9522727,
                "end_time": 60.9863636,
                "pitch": 79,
                "velocity": 64,
                "duration": 0.0340909,
                "tempo": 120.0
            },
            {
                "start_time": 60.9863636,
                "end_time": 61.0886364,
                "pitch": 82,
                "velocity": 64,
                "duration": 0.1022727,
                "tempo": 120.0
            },
            {
                "start_time": 61.1068182,
                "end_time": 61.1931818,
                "pitch": 84,
                "velocity": 64,
                "duration": 0.0863636,
                "tempo": 120.0
            },
            {
                "start_time": 61.1931818,
                "end_time": 61.2090909,
                "pitch": 86,
                "velocity": 64,
                "duration": 0.0159091,
                "tempo": 120.0
            },
            {
                "start_time": 61.2431818,
                "end_time": 61.3454545,
                "pitch": 87,
                "velocity": 64,
                "duration": 0.1022727,
                "tempo": 120.0
            },
            {
                "start_time": 61.3636364,
                "end_time": 61.4636364,
                "pitch": 64,
                "velocity": 64,
                "duration": 0.1,
                "tempo": 120.0
            },
            {
                "start_time": 61.4795455,
                "end_time": 61.5795455,
                "pitch": 64,
                "velocity": 64,
                "duration": 0.1,
                "tempo": 120.0
            },
            {
                "start_time": 61.5977273,
                "end_time": 61.6977273,
                "pitch": 64,
                "velocity": 64,
                "duration": 0.1,
                "tempo": 120.0
            },
            {
                "start_time": 61.7136364,
                "end_time": 61.8136364,
                "pitch": 64,
                "velocity": 64,
                "duration": 0.1,
                "tempo": 120.0
            },
            {
                "start_time": 61.8477273,
                "end_time": 61.95,
                "pitch": 79,
                "velocity": 64,
                "duration": 0.1022727,
                "tempo": 120.0
            },
            {
                "start_time": 61.9659091,
                "end_time": 62.0681818,
                "pitch": 78,
                "velocity": 64,
                "duration": 0.1022727,
                "tempo": 120.0
            },
            {
                "start_time": 62.0863636,
                "end_time": 62.1886364,
                "pitch": 76,
                "velocity": 64,
                "duration": 0.1022727,
                "tempo": 120.0
            },
            {
                "start_time": 62.2068182,
                "end_time": 62.3090909,
                "pitch": 74,
                "velocity": 64,
                "duration": 0.1022727,
                "tempo": 120.0
            },
            {
                "start_time": 62.3272727,
                "end_time": 62.425,
                "pitch": 83,
                "velocity": 64,
                "duration": 0.0977273,
                "tempo": 120.0
            },
            {
                "start_time": 62.4568182,
                "end_time": 62.5568182,
                "pitch": 76,
                "velocity": 64,
                "duration": 0.1,
                "tempo": 120.0
            },
            {
                "start_time": 62.5727273,
                "end_time": 62.6704545,
                "pitch": 72,
                "velocity": 64,
                "duration": 0.0977273,
                "tempo": 120.0
            },
            {
                "start_time": 62.6863636,
                "end_time": 62.7863636,
                "pitch": 79,
                "velocity": 64,
                "duration": 0.1,
                "tempo": 120.0
            },
            {
                "start_time": 62.8022727,
                "end_time": 62.9022727,
                "pitch": 76,
                "velocity": 64,
                "duration": 0.1,
                "tempo": 120.0
            },
            {
                "start_time": 62.9363636,
                "end_time": 63.0363636,
                "pitch": 72,
                "velocity": 64,
                "duration": 0.1,
                "tempo": 120.0
            },
            {
                "start_time": 63.0522727,
                "end_time": 63.1522727,
                "pitch": 79,
                "velocity": 64,
                "duration": 0.1,
                "tempo": 120.0
            },
            {
                "start_time": 63.1704545,
                "end_time": 63.2681818,
                "pitch": 76,
                "velocity": 64,
                "duration": 0.0977273,
                "tempo": 120.0
            },
            {
                "start_time": 63.2863636,
                "end_time": 63.3863636,
                "pitch": 79,
                "velocity": 64,
                "duration": 0.1,
                "tempo": 120.0
            },
            {
                "start_time": 63.4045455,
                "end_time": 63.5045455,
                "pitch": 76,
                "velocity": 64,
                "duration": 0.1,
                "tempo": 120.0
            },
            {
                "start_time": 63.5386364,
                "end_time": 63.6386364,
                "pitch": 72,
                "velocity": 64,
                "duration": 0.1,
                "tempo": 120.0
            },
            {
                "start_time": 63.6568182,
                "end_time": 63.7568182,
                "pitch": 79,
                "velocity": 64,
                "duration": 0.1,
                "tempo": 120.0
            },
            {
                "start_time": 63.775,
                "end_time": 63.8772727,
                "pitch": 76,
                "velocity": 64,
                "duration": 0.1022727,
                "tempo": 120.0
            },
            {
                "start_time": 63.8931818,
                "end_time": 63.9954545,
                "pitch": 72,
                "velocity": 64,
                "duration": 0.1022727,
                "tempo": 120.0
            },
            {
                "start_time": 64.0136364,
                "end_time": 64.1159091,
                "pitch": 79,
                "velocity": 64,
                "duration": 0.1022727,
                "tempo": 120.0
            },
            {
                "start_time": 64.15,
                "end_time": 64.2522727,
                "pitch": 76,
                "velocity": 64,
                "duration": 0.1022727,
                "tempo": 120.0
            },
            {
                "start_time": 64.2704545,
                "end_time": 64.3704545,
                "pitch": 81,
                "velocity": 64,
                "duration": 0.1,
                "tempo": 120.0
            },
            {
                "start_time": 64.3863636,
                "end_time": 64.4863636,
                "pitch": 78,
                "velocity": 64,
                "duration": 0.1,
                "tempo": 120.0
            },
            {
                "start_time": 64.5045455,
                "end_time": 64.6022727,
                "pitch": 74,
                "velocity": 64,
                "duration": 0.0977273,
                "tempo": 120.0
            },
            {
                "start_time": 64.6204545,
                "end_time": 64.7204545,
                "pitch": 81,
                "velocity": 64,
                "duration": 0.1,
                "tempo": 120.0
            },
            {
                "start_time": 64.7545455,
                "end_time": 64.8568182,
                "pitch": 78,
                "velocity": 64,
                "duration": 0.1022727,
                "tempo": 120.0
            },
            {
                "start_time": 64.8727273,
                "end_time": 64.975,
                "pitch": 74,
                "velocity": 64,
                "duration": 0.1022727,
                "tempo": 120.0
            },
            {
                "start_time": 64.9931818,
                "end_time": 65.0954545,
                "pitch": 81,
                "velocity": 64,
                "duration": 0.1022727,
                "tempo": 120.0
            },
            {
                "start_time": 65.1113636,
                "end_time": 65.2159091,
                "pitch": 78,
                "velocity": 64,
                "duration": 0.1045455,
                "tempo": 120.0
            },
            {
                "start_time": 65.25,
                "end_time": 65.35,
                "pitch": 81,
                "velocity": 64,
                "duration": 0.1,
                "tempo": 120.0
            },
            {
                "start_time": 65.3681818,
                "end_time": 65.4681818,
                "pitch": 78,
                "velocity": 64,
                "duration": 0.1,
                "tempo": 120.0
            },
            {
                "start_time": 65.4840909,
                "end_time": 65.5863636,
                "pitch": 74,
                "velocity": 64,
                "duration": 0.1022727,
                "tempo": 120.0
            },
            {
                "start_time": 65.6022727,
                "end_time": 65.7022727,
                "pitch": 81,
                "velocity": 64,
                "duration": 0.1,
                "tempo": 120.0
            },
            {
                "start_time": 65.7204545,
                "end_time": 65.8181818,
                "pitch": 78,
                "velocity": 64,
                "duration": 0.0977273,
                "tempo": 120.0
            },
            {
                "start_time": 65.8522727,
                "end_time": 65.95,
                "pitch": 74,
                "velocity": 64,
                "duration": 0.0977273,
                "tempo": 120.0
            },
            {
                "start_time": 65.9681818,
                "end_time": 66.0659091,
                "pitch": 81,
                "velocity": 64,
                "duration": 0.0977273,
                "tempo": 120.0
            },
            {
                "start_time": 66.0818182,
                "end_time": 66.1795455,
                "pitch": 78,
                "velocity": 64,
                "duration": 0.0977273,
                "tempo": 120.0
            },
            {
                "start_time": 66.1977273,
                "end_time": 66.2977273,
                "pitch": 83,
                "velocity": 64,
                "duration": 0.1,
                "tempo": 120.0
            },
            {
                "start_time": 66.3136364,
                "end_time": 66.4159091,
                "pitch": 79,
                "velocity": 64,
                "duration": 0.1022727,
                "tempo": 120.0
            },
            {
                "start_time": 66.45,
                "end_time": 66.55,
                "pitch": 76,
                "velocity": 64,
                "duration": 0.1,
                "tempo": 120.0
            },
            {
                "start_time": 66.5659091,
                "end_time": 66.6681818,
                "pitch": 83,
                "velocity": 64,
                "duration": 0.1022727,
                "tempo": 120.0
            },
            {
                "start_time": 66.6840909,
                "end_time": 66.7840909,
                "pitch": 79,
                "velocity": 64,
                "duration": 0.1,
                "tempo": 120.0
            },
            {
                "start_time": 66.8022727,
                "end_time": 66.9022727,
                "pitch": 76,
                "velocity": 64,
                "duration": 0.1,
                "tempo": 120.0
            },
            {
                "start_time": 66.9204545,
                "end_time": 67.0204545,
                "pitch": 83,
                "velocity": 64,
                "duration": 0.1,
                "tempo": 120.0
            },
            {
                "start_time": 67.0545455,
                "end_time": 67.1545455,
                "pitch": 79,
                "velocity": 64,
                "duration": 0.1,
                "tempo": 120.0
            },
            {
                "start_time": 67.1727273,
                "end_time": 67.275,
                "pitch": 83,
                "velocity": 64,
                "duration": 0.1022727,
                "tempo": 120.0
            },
            {
                "start_time": 67.2909091,
                "end_time": 67.3954545,
                "pitch": 79,
                "velocity": 64,
                "duration": 0.1045455,
                "tempo": 120.0
            },
            {
                "start_time": 67.4113636,
                "end_time": 67.5136364,
                "pitch": 76,
                "velocity": 64,
                "duration": 0.1022727,
                "tempo": 120.0
            },
            {
                "start_time": 67.5477273,
                "end_time": 67.65,
                "pitch": 83,
                "velocity": 64,
                "duration": 0.1022727,
                "tempo": 120.0
            },
            {
                "start_time": 67.6681818,
                "end_time": 67.7681818,
                "pitch": 79,
                "velocity": 64,
                "duration": 0.1,
                "tempo": 120.0
            },
            {
                "start_time": 67.7863636,
                "end_time": 67.8863636,
                "pitch": 76,
                "velocity": 64,
                "duration": 0.1,
                "tempo": 120.0
            },
            {
                "start_time": 67.9045455,
                "end_time": 68.0045455,
                "pitch": 83,
                "velocity": 64,
                "duration": 0.1,
                "tempo": 120.0
            },
            {
                "start_time": 68.0204545,
                "end_time": 68.1227273,
                "pitch": 79,
                "velocity": 64,
                "duration": 0.1022727,
                "tempo": 120.0
            },
            {
                "start_time": 68.1568182,
                "end_time": 68.2590909,
                "pitch": 84,
                "velocity": 64,
                "duration": 0.1022727,
                "tempo": 120.0
            },
            {
                "start_time": 68.275,
                "end_time": 68.3772727,
                "pitch": 81,
                "velocity": 64,
                "duration": 0.1022727,
                "tempo": 120.0
            },
            {
                "start_time": 68.3954545,
                "end_time": 68.4977273,
                "pitch": 78,
                "velocity": 64,
                "duration": 0.1022727,
                "tempo": 120.0
            },
            {
                "start_time": 68.5159091,
                "end_time": 68.6181818,
                "pitch": 84,
                "velocity": 64,
                "duration": 0.1022727,
                "tempo": 120.0
            },
            {
                "start_time": 68.6363636,
                "end_time": 68.7295455,
                "pitch": 81,
                "velocity": 64,
                "duration": 0.0931818,
                "tempo": 120.0
            },
            {
                "start_time": 68.7636364,
                "end_time": 68.8590909,
                "pitch": 78,
                "velocity": 64,
                "duration": 0.0954545,
                "tempo": 120.0
            },
            {
                "start_time": 68.875,
                "end_time": 68.9704545,
                "pitch": 84,
                "velocity": 64,
                "duration": 0.0954545,
                "tempo": 120.0
            },
            {
                "start_time": 68.9886364,
                "end_time": 69.0840909,
                "pitch": 81,
                "velocity": 64,
                "duration": 0.0954545,
                "tempo": 120.0
            },
            {
                "start_time": 69.1,
                "end_time": 69.2022727,
                "pitch": 84,
                "velocity": 64,
                "duration": 0.1022727,
                "tempo": 120.0
            },
            {
                "start_time": 69.2363636,
                "end_time": 69.3386364,
                "pitch": 81,
                "velocity": 64,
                "duration": 0.1022727,
                "tempo": 120.0
            },
            {
                "start_time": 69.3568182,
                "end_time": 69.4590909,
                "pitch": 78,
                "velocity": 64,
                "duration": 0.1022727,
                "tempo": 120.0
            },
            {
                "start_time": 69.475,
                "end_time": 69.5772727,
                "pitch": 84,
                "velocity": 64,
                "duration": 0.1022727,
                "tempo": 120.0
            },
            {
                "start_time": 69.5954545,
                "end_time": 69.6954545,
                "pitch": 81,
                "velocity": 64,
                "duration": 0.1,
                "tempo": 120.0
            },
            {
                "start_time": 69.7136364,
                "end_time": 69.8136364,
                "pitch": 78,
                "velocity": 64,
                "duration": 0.1,
                "tempo": 120.0
            },
            {
                "start_time": 69.8477273,
                "end_time": 69.9477273,
                "pitch": 84,
                "velocity": 64,
                "duration": 0.1,
                "tempo": 120.0
            },
            {
                "start_time": 69.9659091,
                "end_time": 70.0659091,
                "pitch": 81,
                "velocity": 64,
                "duration": 0.1,
                "tempo": 120.0
            },
            {
                "start_time": 70.0840909,
                "end_time": 70.1863636,
                "pitch": 83,
                "velocity": 64,
                "duration": 0.1022727,
                "tempo": 120.0
            },
            {
                "start_time": 70.2022727,
                "end_time": 70.3045455,
                "pitch": 76,
                "velocity": 64,
                "duration": 0.1022727,
                "tempo": 120.0
            },
            {
                "start_time": 70.3227273,
                "end_time": 70.425,
                "pitch": 72,
                "velocity": 64,
                "duration": 0.1022727,
                "tempo": 120.0
            },
            {
                "start_time": 70.4590909,
                "end_time": 70.5613636,
                "pitch": 79,
                "velocity": 64,
                "duration": 0.1022727,
                "tempo": 120.0
            },
            {
                "start_time": 70.5795455,
                "end_time": 70.6795455,
                "pitch": 76,
                "velocity": 64,
                "duration": 0.1,
                "tempo": 120.0
            },
            {
                "start_time": 70.6954545,
                "end_time": 70.7977273,
                "pitch": 72,
                "velocity": 64,
                "duration": 0.1022727,
                "tempo": 120.0
            },
            {
                "start_time": 70.8136364,
                "end_time": 70.9159091,
                "pitch": 79,
                "velocity": 64,
                "duration": 0.1022727,
                "tempo": 120.0
            },
            {
                "start_time": 70.9318182,
                "end_time": 71.0318182,
                "pitch": 76,
                "velocity": 64,
                "duration": 0.1,
                "tempo": 120.0
            },
            {
                "start_time": 71.0659091,
                "end_time": 71.1659091,
                "pitch": 79,
                "velocity": 64,
                "duration": 0.1,
                "tempo": 120.0
            },
            {
                "start_time": 71.1840909,
                "end_time": 71.2840909,
                "pitch": 76,
                "velocity": 64,
                "duration": 0.1,
                "tempo": 120.0
            },
            {
                "start_time": 71.3022727,
                "end_time": 71.4,
                "pitch": 72,
                "velocity": 64,
                "duration": 0.0977273,
                "tempo": 120.0
            },
            {
                "start_time": 71.4159091,
                "end_time": 71.5181818,
                "pitch": 79,
                "velocity": 64,
                "duration": 0.1022727,
                "tempo": 120.0
            },
            {
                "start_time": 71.55,
                "end_time": 71.6522727,
                "pitch": 76,
                "velocity": 64,
                "duration": 0.1022727,
                "tempo": 120.0
            },
            {
                "start_time": 71.6704545,
                "end_time": 71.7727273,
                "pitch": 72,
                "velocity": 64,
                "duration": 0.1022727,
                "tempo": 120.0
            },
            {
                "start_time": 71.7909091,
                "end_time": 71.8931818,
                "pitch": 79,
                "velocity": 64,
                "duration": 0.1022727,
                "tempo": 120.0
            },
            {
                "start_time": 71.9090909,
                "end_time": 72.0113636,
                "pitch": 76,
                "velocity": 64,
                "duration": 0.1022727,
                "tempo": 120.0
            },
            {
                "start_time": 72.0295455,
                "end_time": 72.125,
                "pitch": 81,
                "velocity": 64,
                "duration": 0.0954545,
                "tempo": 120.0
            },
            {
                "start_time": 72.1568182,
                "end_time": 72.2545455,
                "pitch": 78,
                "velocity": 64,
                "duration": 0.0977273,
                "tempo": 120.0
            },
            {
                "start_time": 72.2704545,
                "end_time": 72.3659091,
                "pitch": 74,
                "velocity": 64,
                "duration": 0.0954545,
                "tempo": 120.0
            },
            {
                "start_time": 72.3818182,
                "end_time": 72.4772727,
                "pitch": 81,
                "velocity": 64,
                "duration": 0.0954545,
                "tempo": 120.0
            },
            {
                "start_time": 72.4954545,
                "end_time": 72.5954545,
                "pitch": 78,
                "velocity": 64,
                "duration": 0.1,
                "tempo": 120.0
            },
            {
                "start_time": 72.6136364,
                "end_time": 72.7159091,
                "pitch": 74,
                "velocity": 64,
                "duration": 0.1022727,
                "tempo": 120.0
            },
            {
                "start_time": 72.75,
                "end_time": 72.8522727,
                "pitch": 81,
                "velocity": 64,
                "duration": 0.1022727,
                "tempo": 120.0
            },
            {
                "start_time": 72.8704545,
                "end_time": 72.9727273,
                "pitch": 78,
                "velocity": 64,
                "duration": 0.1022727,
                "tempo": 120.0
            },
            {
                "start_time": 72.9909091,
                "end_time": 73.0886364,
                "pitch": 81,
                "velocity": 64,
                "duration": 0.0977273,
                "tempo": 120.0
            },
            {
                "start_time": 73.1068182,
                "end_time": 73.2068182,
                "pitch": 78,
                "velocity": 64,
                "duration": 0.1,
                "tempo": 120.0
            },
            {
                "start_time": 73.225,
                "end_time": 73.3227273,
                "pitch": 74,
                "velocity": 64,
                "duration": 0.0977273,
                "tempo": 120.0
            },
            {
                "start_time": 73.3568182,
                "end_time": 73.4568182,
                "pitch": 81,
                "velocity": 64,
                "duration": 0.1,
                "tempo": 120.0
            },
            {
                "start_time": 73.4727273,
                "end_time": 73.575,
                "pitch": 78,
                "velocity": 64,
                "duration": 0.1022727,
                "tempo": 120.0
            },
            {
                "start_time": 73.5931818,
                "end_time": 73.6954545,
                "pitch": 74,
                "velocity": 64,
                "duration": 0.1022727,
                "tempo": 120.0
            },
            {
                "start_time": 73.7136364,
                "end_time": 73.8159091,
                "pitch": 81,
                "velocity": 64,
                "duration": 0.1022727,
                "tempo": 120.0
            },
            {
                "start_time": 73.85,
                "end_time": 73.9522727,
                "pitch": 78,
                "velocity": 64,
                "duration": 0.1022727,
                "tempo": 120.0
            },
            {
                "start_time": 73.9727273,
                "end_time": 74.0704545,
                "pitch": 78,
                "velocity": 64,
                "duration": 0.0977273,
                "tempo": 120.0
            },
            {
                "start_time": 74.0863636,
                "end_time": 74.1863636,
                "pitch": 75,
                "velocity": 64,
                "duration": 0.1,
                "tempo": 120.0
            },
            {
                "start_time": 74.2022727,
                "end_time": 74.3022727,
                "pitch": 71,
                "velocity": 64,
                "duration": 0.1,
                "tempo": 120.0
            },
            {
                "start_time": 74.3204545,
                "end_time": 74.4204545,
                "pitch": 78,
                "velocity": 64,
                "duration": 0.1,
                "tempo": 120.0
            },
            {
                "start_time": 74.4545455,
                "end_time": 74.5545455,
                "pitch": 75,
                "velocity": 64,
                "duration": 0.1,
                "tempo": 120.0
            },
            {
                "start_time": 74.5727273,
                "end_time": 74.6727273,
                "pitch": 71,
                "velocity": 64,
                "duration": 0.1,
                "tempo": 120.0
            },
            {
                "start_time": 74.6886364,
                "end_time": 74.7886364,
                "pitch": 78,
                "velocity": 64,
                "duration": 0.1,
                "tempo": 120.0
            },
            {
                "start_time": 74.8068182,
                "end_time": 74.9068182,
                "pitch": 75,
                "velocity": 64,
                "duration": 0.1,
                "tempo": 120.0
            },
            {
                "start_time": 74.925,
                "end_time": 75.0227273,
                "pitch": 78,
                "velocity": 64,
                "duration": 0.0977273,
                "tempo": 120.0
            },
            {
                "start_time": 75.0568182,
                "end_time": 75.1545455,
                "pitch": 75,
                "velocity": 64,
                "duration": 0.0977273,
                "tempo": 120.0
            },
            {
                "start_time": 75.1704545,
                "end_time": 75.2681818,
                "pitch": 71,
                "velocity": 64,
                "duration": 0.0977273,
                "tempo": 120.0
            },
            {
                "start_time": 75.2863636,
                "end_time": 75.3840909,
                "pitch": 78,
                "velocity": 64,
                "duration": 0.0977273,
                "tempo": 120.0
            },
            {
                "start_time": 75.4,
                "end_time": 75.5022727,
                "pitch": 75,
                "velocity": 64,
                "duration": 0.1022727,
                "tempo": 120.0
            },
            {
                "start_time": 75.5204545,
                "end_time": 75.6227273,
                "pitch": 71,
                "velocity": 64,
                "duration": 0.1022727,
                "tempo": 120.0
            },
            {
                "start_time": 75.6568182,
                "end_time": 75.7590909,
                "pitch": 78,
                "velocity": 64,
                "duration": 0.1022727,
                "tempo": 120.0
            },
            {
                "start_time": 75.7772727,
                "end_time": 75.8795455,
                "pitch": 75,
                "velocity": 64,
                "duration": 0.1022727,
                "tempo": 120.0
            },
            {
                "start_time": 75.8977273,
                "end_time": 75.9977273,
                "pitch": 75,
                "velocity": 64,
                "duration": 0.1,
                "tempo": 120.0
            },
            {
                "start_time": 76.0136364,
                "end_time": 76.1159091,
                "pitch": 71,
                "velocity": 64,
                "duration": 0.1022727,
                "tempo": 120.0
            },
            {
                "start_time": 76.15,
                "end_time": 76.25,
                "pitch": 78,
                "velocity": 64,
                "duration": 0.1,
                "tempo": 120.0
            },
            {
                "start_time": 76.2659091,
                "end_time": 76.3681818,
                "pitch": 71,
                "velocity": 64,
                "duration": 0.1022727,
                "tempo": 120.0
            },
            {
                "start_time": 76.3840909,
                "end_time": 76.4863636,
                "pitch": 81,
                "velocity": 64,
                "duration": 0.1022727,
                "tempo": 120.0
            },
            {
                "start_time": 76.5045455,
                "end_time": 76.6068182,
                "pitch": 75,
                "velocity": 64,
                "duration": 0.1022727,
                "tempo": 120.0
            },
            {
                "start_time": 76.6227273,
                "end_time": 76.725,
                "pitch": 82,
                "velocity": 64,
                "duration": 0.1022727,
                "tempo": 120.0
            },
            {
                "start_time": 76.7613636,
                "end_time": 76.8636364,
                "pitch": 75,
                "velocity": 64,
                "duration": 0.1022727,
                "tempo": 120.0
            },
            {
                "start_time": 76.8818182,
                "end_time": 77.0977273,
                "pitch": 83,
                "velocity": 64,
                "duration": 0.2159091,
                "tempo": 120.0
            },
            {
                "start_time": 85.5886364,
                "end_time": 85.6863636,
                "pitch": 83,
                "velocity": 64,
                "duration": 0.0977273,
                "tempo": 120.0
            },
            {
                "start_time": 85.7022727,
                "end_time": 85.8022727,
                "pitch": 76,
                "velocity": 64,
                "duration": 0.1,
                "tempo": 120.0
            },
            {
                "start_time": 85.8204545,
                "end_time": 85.9204545,
                "pitch": 72,
                "velocity": 64,
                "duration": 0.1,
                "tempo": 120.0
            },
            {
                "start_time": 85.9545455,
                "end_time": 86.0545455,
                "pitch": 79,
                "velocity": 64,
                "duration": 0.1,
                "tempo": 120.0
            },
            {
                "start_time": 86.0727273,
                "end_time": 86.1727273,
                "pitch": 76,
                "velocity": 64,
                "duration": 0.1,
                "tempo": 120.0
            },
            {
                "start_time": 86.1886364,
                "end_time": 86.2886364,
                "pitch": 72,
                "velocity": 64,
                "duration": 0.1,
                "tempo": 120.0
            },
            {
                "start_time": 86.3068182,
                "end_time": 86.4068182,
                "pitch": 79,
                "velocity": 64,
                "duration": 0.1,
                "tempo": 120.0
            },
            {
                "start_time": 86.4386364,
                "end_time": 86.5386364,
                "pitch": 76,
                "velocity": 64,
                "duration": 0.1,
                "tempo": 120.0
            },
            {
                "start_time": 86.5568182,
                "end_time": 86.6568182,
                "pitch": 79,
                "velocity": 64,
                "duration": 0.1,
                "tempo": 120.0
            },
            {
                "start_time": 86.675,
                "end_time": 86.775,
                "pitch": 76,
                "velocity": 64,
                "duration": 0.1,
                "tempo": 120.0
            },
            {
                "start_time": 86.7931818,
                "end_time": 86.8931818,
                "pitch": 72,
                "velocity": 64,
                "duration": 0.1,
                "tempo": 120.0
            },
            {
                "start_time": 86.9090909,
                "end_time": 87.0113636,
                "pitch": 79,
                "velocity": 64,
                "duration": 0.1022727,
                "tempo": 120.0
            },
            {
                "start_time": 87.0431818,
                "end_time": 87.1454545,
                "pitch": 76,
                "velocity": 64,
                "duration": 0.1022727,
                "tempo": 120.0
            },
            {
                "start_time": 87.1636364,
                "end_time": 87.2659091,
                "pitch": 72,
                "velocity": 64,
                "duration": 0.1022727,
                "tempo": 120.0
            },
            {
                "start_time": 87.2840909,
                "end_time": 87.3863636,
                "pitch": 79,
                "velocity": 64,
                "duration": 0.1022727,
                "tempo": 120.0
            },
            {
                "start_time": 87.4022727,
                "end_time": 87.5068182,
                "pitch": 76,
                "velocity": 64,
                "duration": 0.1045455,
                "tempo": 120.0
            },
            {
                "start_time": 87.5227273,
                "end_time": 87.6204545,
                "pitch": 81,
                "velocity": 64,
                "duration": 0.0977273,
                "tempo": 120.0
            },
            {
                "start_time": 87.6545455,
                "end_time": 87.7522727,
                "pitch": 78,
                "velocity": 64,
                "duration": 0.0977273,
                "tempo": 120.0
            },
            {
                "start_time": 87.7704545,
                "end_time": 87.8681818,
                "pitch": 74,
                "velocity": 64,
                "duration": 0.0977273,
                "tempo": 120.0
            },
            {
                "start_time": 87.8840909,
                "end_time": 87.9840909,
                "pitch": 81,
                "velocity": 64,
                "duration": 0.1,
                "tempo": 120.0
            },
            {
                "start_time": 88.0,
                "end_time": 88.1,
                "pitch": 78,
                "velocity": 64,
                "duration": 0.1,
                "tempo": 120.0
            },
            {
                "start_time": 88.1181818,
                "end_time": 88.2181818,
                "pitch": 74,
                "velocity": 64,
                "duration": 0.1,
                "tempo": 120.0
            },
            {
                "start_time": 88.2522727,
                "end_time": 88.3522727,
                "pitch": 81,
                "velocity": 64,
                "duration": 0.1,
                "tempo": 120.0
            },
            {
                "start_time": 88.3704545,
                "end_time": 88.4704545,
                "pitch": 78,
                "velocity": 64,
                "duration": 0.1,
                "tempo": 120.0
            },
            {
                "start_time": 88.4863636,
                "end_time": 88.5886364,
                "pitch": 81,
                "velocity": 64,
                "duration": 0.1022727,
                "tempo": 120.0
            },
            {
                "start_time": 88.6045455,
                "end_time": 88.7068182,
                "pitch": 78,
                "velocity": 64,
                "duration": 0.1022727,
                "tempo": 120.0
            },
            {
                "start_time": 88.7409091,
                "end_time": 88.8409091,
                "pitch": 74,
                "velocity": 64,
                "duration": 0.1,
                "tempo": 120.0
            },
            {
                "start_time": 88.8568182,
                "end_time": 88.9590909,
                "pitch": 81,
                "velocity": 64,
                "duration": 0.1022727,
                "tempo": 120.0
            },
            {
                "start_time": 88.975,
                "end_time": 89.0772727,
                "pitch": 78,
                "velocity": 64,
                "duration": 0.1022727,
                "tempo": 120.0
            },
            {
                "start_time": 89.0954545,
                "end_time": 89.1977273,
                "pitch": 74,
                "velocity": 64,
                "duration": 0.1022727,
                "tempo": 120.0
            },
            {
                "start_time": 89.2136364,
                "end_time": 89.3159091,
                "pitch": 81,
                "velocity": 64,
                "duration": 0.1022727,
                "tempo": 120.0
            },
            {
                "start_time": 89.35,
                "end_time": 89.4545455,
                "pitch": 78,
                "velocity": 64,
                "duration": 0.1045455,
                "tempo": 120.0
            },
            {
                "start_time": 89.4727273,
                "end_time": 89.5704545,
                "pitch": 83,
                "velocity": 64,
                "duration": 0.0977273,
                "tempo": 120.0
            },
            {
                "start_time": 89.5886364,
                "end_time": 89.6886364,
                "pitch": 79,
                "velocity": 64,
                "duration": 0.1,
                "tempo": 120.0
            },
            {
                "start_time": 89.7068182,
                "end_time": 89.8068182,
                "pitch": 76,
                "velocity": 64,
                "duration": 0.1,
                "tempo": 120.0
            },
            {
                "start_time": 89.825,
                "end_time": 89.925,
                "pitch": 83,
                "velocity": 64,
                "duration": 0.1,
                "tempo": 120.0
            },
            {
                "start_time": 89.9590909,
                "end_time": 90.0613636,
                "pitch": 79,
                "velocity": 64,
                "duration": 0.1022727,
                "tempo": 120.0
            },
            {
                "start_time": 90.0772727,
                "end_time": 90.1795455,
                "pitch": 76,
                "velocity": 64,
                "duration": 0.1022727,
                "tempo": 120.0
            },
            {
                "start_time": 90.1977273,
                "end_time": 90.3,
                "pitch": 83,
                "velocity": 64,
                "duration": 0.1022727,
                "tempo": 120.0
            },
            {
                "start_time": 90.3181818,
                "end_time": 90.4204545,
                "pitch": 79,
                "velocity": 64,
                "duration": 0.1022727,
                "tempo": 120.0
            },
            {
                "start_time": 90.4363636,
                "end_time": 90.5340909,
                "pitch": 83,
                "velocity": 64,
                "duration": 0.0977273,
                "tempo": 120.0
            },
            {
                "start_time": 90.5659091,
                "end_time": 90.6613636,
                "pitch": 79,
                "velocity": 64,
                "duration": 0.0954545,
                "tempo": 120.0
            },
            {
                "start_time": 90.6795455,
                "end_time": 90.775,
                "pitch": 76,
                "velocity": 64,
                "duration": 0.0954545,
                "tempo": 120.0
            },
            {
                "start_time": 90.7909091,
                "end_time": 90.8863636,
                "pitch": 83,
                "velocity": 64,
                "duration": 0.0954545,
                "tempo": 120.0
            },
            {
                "start_time": 90.9022727,
                "end_time": 91.0045455,
                "pitch": 79,
                "velocity": 64,
                "duration": 0.1022727,
                "tempo": 120.0
            },
            {
                "start_time": 91.0386364,
                "end_time": 91.1409091,
                "pitch": 76,
                "velocity": 64,
                "duration": 0.1022727,
                "tempo": 120.0
            },
            {
                "start_time": 91.1590909,
                "end_time": 91.2613636,
                "pitch": 83,
                "velocity": 64,
                "duration": 0.1022727,
                "tempo": 120.0
            },
            {
                "start_time": 91.2772727,
                "end_time": 91.3818182,
                "pitch": 79,
                "velocity": 64,
                "duration": 0.1045455,
                "tempo": 120.0
            },
            {
                "start_time": 91.4,
                "end_time": 91.5,
                "pitch": 84,
                "velocity": 64,
                "duration": 0.1,
                "tempo": 120.0
            },
            {
                "start_time": 91.5181818,
                "end_time": 91.6204545,
                "pitch": 81,
                "velocity": 64,
                "duration": 0.1022727,
                "tempo": 120.0
            },
            {
                "start_time": 91.6545455,
                "end_time": 91.7568182,
                "pitch": 78,
                "velocity": 64,
                "duration": 0.1022727,
                "tempo": 120.0
            },
            {
                "start_time": 91.775,
                "end_time": 91.8772727,
                "pitch": 84,
                "velocity": 64,
                "duration": 0.1022727,
                "tempo": 120.0
            },
            {
                "start_time": 91.8954545,
                "end_time": 91.9954545,
                "pitch": 81,
                "velocity": 64,
                "duration": 0.1,
                "tempo": 120.0
            },
            {
                "start_time": 92.0113636,
                "end_time": 92.1113636,
                "pitch": 78,
                "velocity": 64,
                "duration": 0.1,
                "tempo": 120.0
            },
            {
                "start_time": 92.1295455,
                "end_time": 92.2295455,
                "pitch": 84,
                "velocity": 64,
                "duration": 0.1,
                "tempo": 120.0
            },
            {
                "start_time": 92.2636364,
                "end_time": 92.3636364,
                "pitch": 81,
                "velocity": 64,
                "duration": 0.1,
                "tempo": 120.0
            },
            {
                "start_time": 92.3818182,
                "end_time": 92.4818182,
                "pitch": 84,
                "velocity": 64,
                "duration": 0.1,
                "tempo": 120.0
            },
            {
                "start_time": 92.5,
                "end_time": 92.6,
                "pitch": 81,
                "velocity": 64,
                "duration": 0.1,
                "tempo": 120.0
            },
            {
                "start_time": 92.6181818,
                "end_time": 92.7181818,
                "pitch": 78,
                "velocity": 64,
                "duration": 0.1,
                "tempo": 120.0
            },
            {
                "start_time": 92.7340909,
                "end_time": 92.8363636,
                "pitch": 84,
                "velocity": 64,
                "duration": 0.1022727,
                "tempo": 120.0
            },
            {
                "start_time": 92.8704545,
                "end_time": 92.9704545,
                "pitch": 81,
                "velocity": 64,
                "duration": 0.1,
                "tempo": 120.0
            },
            {
                "start_time": 92.9863636,
                "end_time": 93.0886364,
                "pitch": 78,
                "velocity": 64,
                "duration": 0.1022727,
                "tempo": 120.0
            },
            {
                "start_time": 93.1045455,
                "end_time": 93.2068182,
                "pitch": 84,
                "velocity": 64,
                "duration": 0.1022727,
                "tempo": 120.0
            },
            {
                "start_time": 93.2227273,
                "end_time": 93.325,
                "pitch": 81,
                "velocity": 64,
                "duration": 0.1022727,
                "tempo": 120.0
            },
            {
                "start_time": 93.3590909,
                "end_time": 93.4590909,
                "pitch": 83,
                "velocity": 64,
                "duration": 0.1,
                "tempo": 120.0
            },
            {
                "start_time": 93.4772727,
                "end_time": 93.5795455,
                "pitch": 76,
                "velocity": 64,
                "duration": 0.1022727,
                "tempo": 120.0
            },
            {
                "start_time": 93.5954545,
                "end_time": 93.7,
                "pitch": 72,
                "velocity": 64,
                "duration": 0.1045455,
                "tempo": 120.0
            },
            {
                "start_time": 93.7159091,
                "end_time": 93.8181818,
                "pitch": 79,
                "velocity": 64,
                "duration": 0.1022727,
                "tempo": 120.0
            },
            {
                "start_time": 93.8363636,
                "end_time": 93.9340909,
                "pitch": 76,
                "velocity": 64,
                "duration": 0.0977273,
                "tempo": 120.0
            },
            {
                "start_time": 93.9681818,
                "end_time": 94.0659091,
                "pitch": 72,
                "velocity": 64,
                "duration": 0.0977273,
                "tempo": 120.0
            },
            {
                "start_time": 94.0818182,
                "end_time": 94.1818182,
                "pitch": 79,
                "velocity": 64,
                "duration": 0.1,
                "tempo": 120.0
            },
            {
                "start_time": 94.1977273,
                "end_time": 94.2954545,
                "pitch": 76,
                "velocity": 64,
                "duration": 0.0977273,
                "tempo": 120.0
            },
            {
                "start_time": 94.3136364,
                "end_time": 94.4136364,
                "pitch": 79,
                "velocity": 64,
                "duration": 0.1,
                "tempo": 120.0
            },
            {
                "start_time": 94.4295455,
                "end_time": 94.5318182,
                "pitch": 76,
                "velocity": 64,
                "duration": 0.1022727,
                "tempo": 120.0
            },
            {
                "start_time": 94.5659091,
                "end_time": 94.6659091,
                "pitch": 72,
                "velocity": 64,
                "duration": 0.1,
                "tempo": 120.0
            },
            {
                "start_time": 94.6818182,
                "end_time": 94.7840909,
                "pitch": 79,
                "velocity": 64,
                "duration": 0.1022727,
                "tempo": 120.0
            },
            {
                "start_time": 94.8,
                "end_time": 94.9,
                "pitch": 76,
                "velocity": 64,
                "duration": 0.1,
                "tempo": 120.0
            },
            {
                "start_time": 94.9181818,
                "end_time": 95.0181818,
                "pitch": 72,
                "velocity": 64,
                "duration": 0.1,
                "tempo": 120.0
            },
            {
                "start_time": 95.0522727,
                "end_time": 95.15,
                "pitch": 79,
                "velocity": 64,
                "duration": 0.0977273,
                "tempo": 120.0
            },
            {
                "start_time": 95.1681818,
                "end_time": 95.2681818,
                "pitch": 76,
                "velocity": 64,
                "duration": 0.1,
                "tempo": 120.0
            },
            {
                "start_time": 95.2840909,
                "end_time": 95.3863636,
                "pitch": 81,
                "velocity": 64,
                "duration": 0.1022727,
                "tempo": 120.0
            },
            {
                "start_time": 95.4045455,
                "end_time": 95.5068182,
                "pitch": 78,
                "velocity": 64,
                "duration": 0.1022727,
                "tempo": 120.0
            },
            {
                "start_time": 95.525,
                "end_time": 95.625,
                "pitch": 74,
                "velocity": 64,
                "duration": 0.1,
                "tempo": 120.0
            },
            {
                "start_time": 95.6590909,
                "end_time": 95.7636364,
                "pitch": 81,
                "velocity": 64,
                "duration": 0.1045455,
                "tempo": 120.0
            },
            {
                "start_time": 95.7818182,
                "end_time": 95.8795455,
                "pitch": 78,
                "velocity": 64,
                "duration": 0.0977273,
                "tempo": 120.0
            },
            {
                "start_time": 95.8977273,
                "end_time": 95.9977273,
                "pitch": 74,
                "velocity": 64,
                "duration": 0.1,
                "tempo": 120.0
            },
            {
                "start_time": 96.0159091,
                "end_time": 96.1159091,
                "pitch": 81,
                "velocity": 64,
                "duration": 0.1,
                "tempo": 120.0
            },
            {
                "start_time": 96.1340909,
                "end_time": 96.2340909,
                "pitch": 78,
                "velocity": 64,
                "duration": 0.1,
                "tempo": 120.0
            },
            {
                "start_time": 96.2681818,
                "end_time": 96.3681818,
                "pitch": 81,
                "velocity": 64,
                "duration": 0.1,
                "tempo": 120.0
            },
            {
                "start_time": 96.3840909,
                "end_time": 96.4840909,
                "pitch": 78,
                "velocity": 64,
                "duration": 0.1,
                "tempo": 120.0
            },
            {
                "start_time": 96.5022727,
                "end_time": 96.6022727,
                "pitch": 74,
                "velocity": 64,
                "duration": 0.1,
                "tempo": 120.0
            },
            {
                "start_time": 96.6181818,
                "end_time": 96.7181818,
                "pitch": 81,
                "velocity": 64,
                "duration": 0.1,
                "tempo": 120.0
            },
            {
                "start_time": 96.7340909,
                "end_time": 96.8340909,
                "pitch": 78,
                "velocity": 64,
                "duration": 0.1,
                "tempo": 120.0
            },
            {
                "start_time": 96.8659091,
                "end_time": 96.9659091,
                "pitch": 74,
                "velocity": 64,
                "duration": 0.1,
                "tempo": 120.0
            },
            {
                "start_time": 96.9818182,
                "end_time": 97.0795455,
                "pitch": 81,
                "velocity": 64,
                "duration": 0.0977273,
                "tempo": 120.0
            },
            {
                "start_time": 97.0954545,
                "end_time": 97.1954545,
                "pitch": 78,
                "velocity": 64,
                "duration": 0.1,
                "tempo": 120.0
            },
            {
                "start_time": 97.2136364,
                "end_time": 97.3136364,
                "pitch": 64,
                "velocity": 64,
                "duration": 0.1,
                "tempo": 120.0
            },
            {
                "start_time": 97.3477273,
                "end_time": 97.45,
                "pitch": 64,
                "velocity": 64,
                "duration": 0.1022727,
                "tempo": 120.0
            },
            {
                "start_time": 97.4681818,
                "end_time": 97.5704545,
                "pitch": 64,
                "velocity": 64,
                "duration": 0.1022727,
                "tempo": 120.0
            },
            {
                "start_time": 97.5863636,
                "end_time": 97.6886364,
                "pitch": 64,
                "velocity": 64,
                "duration": 0.1022727,
                "tempo": 120.0
            },
            {
                "start_time": 97.7068182,
                "end_time": 97.7227273,
                "pitch": 67,
                "velocity": 64,
                "duration": 0.0159091,
                "tempo": 120.0
            },
            {
                "start_time": 97.7227273,
                "end_time": 97.7568182,
                "pitch": 70,
                "velocity": 64,
                "duration": 0.0340909,
                "tempo": 120.0
            },
            {
                "start_time": 97.7568182,
                "end_time": 97.7727273,
                "pitch": 73,
                "velocity": 64,
                "duration": 0.0159091,
                "tempo": 120.0
            },
            {
                "start_time": 97.7568182,
                "end_time": 97.7909091,
                "pitch": 76,
                "velocity": 64,
                "duration": 0.0340909,
                "tempo": 120.0
            },
            {
                "start_time": 97.7727273,
                "end_time": 97.7909091,
                "pitch": 76,
                "velocity": 64,
                "duration": 0.0181818,
                "tempo": 120.0
            },
            {
                "start_time": 97.7909091,
                "end_time": 97.8227273,
                "pitch": 79,
                "velocity": 64,
                "duration": 0.0318182,
                "tempo": 120.0
            },
            {
                "start_time": 97.8227273,
                "end_time": 97.9227273,
                "pitch": 82,
                "velocity": 64,
                "duration": 0.1,
                "tempo": 120.0
            },
            {
                "start_time": 97.9568182,
                "end_time": 98.0227273,
                "pitch": 84,
                "velocity": 64,
                "duration": 0.0659091,
                "tempo": 120.0
            },
            {
                "start_time": 98.0227273,
                "end_time": 98.0568182,
                "pitch": 86,
                "velocity": 64,
                "duration": 0.0340909,
                "tempo": 120.0
            },
            {
                "start_time": 98.075,
                "end_time": 98.1727273,
                "pitch": 87,
                "velocity": 64,
                "duration": 0.0977273,
                "tempo": 120.0
            },
            {
                "start_time": 98.1909091,
                "end_time": 98.2909091,
                "pitch": 64,
                "velocity": 64,
                "duration": 0.1,
                "tempo": 120.0
            },
            {
                "start_time": 98.3090909,
                "end_time": 98.4090909,
                "pitch": 64,
                "velocity": 64,
                "duration": 0.1,
                "tempo": 120.0
            },
            {
                "start_time": 98.4272727,
                "end_time": 98.5272727,
                "pitch": 64,
                "velocity": 64,
                "duration": 0.1,
                "tempo": 120.0
            },
            {
                "start_time": 98.5613636,
                "end_time": 98.6613636,
                "pitch": 64,
                "velocity": 64,
                "duration": 0.1,
                "tempo": 120.0
            },
            {
                "start_time": 98.6795455,
                "end_time": 98.6954545,
                "pitch": 67,
                "velocity": 64,
                "duration": 0.0159091,
                "tempo": 120.0
            },
            {
                "start_time": 98.6954545,
                "end_time": 98.7136364,
                "pitch": 70,
                "velocity": 64,
                "duration": 0.0181818,
                "tempo": 120.0
            },
            {
                "start_time": 98.7136364,
                "end_time": 98.7295455,
                "pitch": 73,
                "velocity": 64,
                "duration": 0.0159091,
                "tempo": 120.0
            },
            {
                "start_time": 98.7136364,
                "end_time": 98.7636364,
                "pitch": 76,
                "velocity": 64,
                "duration": 0.05,
                "tempo": 120.0
            },
            {
                "start_time": 98.7295455,
                "end_time": 98.7636364,
                "pitch": 76,
                "velocity": 64,
                "duration": 0.0340909,
                "tempo": 120.0
            },
            {
                "start_time": 98.7636364,
                "end_time": 98.7977273,
                "pitch": 79,
                "velocity": 64,
                "duration": 0.0340909,
                "tempo": 120.0
            },
            {
                "start_time": 98.7977273,
                "end_time": 98.9,
                "pitch": 82,
                "velocity": 64,
                "duration": 0.1022727,
                "tempo": 120.0
            },
            {
                "start_time": 98.9181818,
                "end_time": 99.0022727,
                "pitch": 84,
                "velocity": 64,
                "duration": 0.0840909,
                "tempo": 120.0
            },
            {
                "start_time": 99.0022727,
                "end_time": 99.0204545,
                "pitch": 86,
                "velocity": 64,
                "duration": 0.0181818,
                "tempo": 120.0
            },
            {
                "start_time": 99.0363636,
                "end_time": 99.1409091,
                "pitch": 87,
                "velocity": 64,
                "duration": 0.1045455,
                "tempo": 120.0
            },
            {
                "start_time": 99.175,
                "end_time": 99.275,
                "pitch": 64,
                "velocity": 64,
                "duration": 0.1,
                "tempo": 120.0
            },
            {
                "start_time": 99.2909091,
                "end_time": 99.3909091,
                "pitch": 64,
                "velocity": 64,
                "duration": 0.1,
                "tempo": 120.0
            },
            {
                "start_time": 99.4068182,
                "end_time": 99.5068182,
                "pitch": 64,
                "velocity": 64,
                "duration": 0.1,
                "tempo": 120.0
            },
            {
                "start_time": 99.525,
                "end_time": 99.625,
                "pitch": 64,
                "velocity": 64,
                "duration": 0.1,
                "tempo": 120.0
            },
            {
                "start_time": 99.6590909,
                "end_time": 99.675,
                "pitch": 67,
                "velocity": 64,
                "duration": 0.0159091,
                "tempo": 120.0
            },
            {
                "start_time": 99.675,
                "end_time": 99.6931818,
                "pitch": 70,
                "velocity": 64,
                "duration": 0.0181818,
                "tempo": 120.0
            },
            {
                "start_time": 99.6931818,
                "end_time": 99.7090909,
                "pitch": 73,
                "velocity": 64,
                "duration": 0.0159091,
                "tempo": 120.0
            },
            {
                "start_time": 99.6931818,
                "end_time": 99.7272727,
                "pitch": 76,
                "velocity": 64,
                "duration": 0.0340909,
                "tempo": 120.0
            },
            {
                "start_time": 99.7090909,
                "end_time": 99.7272727,
                "pitch": 76,
                "velocity": 64,
                "duration": 0.0181818,
                "tempo": 120.0
            },
            {
                "start_time": 99.7272727,
                "end_time": 99.7772727,
                "pitch": 79,
                "velocity": 64,
                "duration": 0.05,
                "tempo": 120.0
            },
            {
                "start_time": 99.7772727,
                "end_time": 99.8795455,
                "pitch": 82,
                "velocity": 64,
                "duration": 0.1022727,
                "tempo": 120.0
            },
            {
                "start_time": 99.8977273,
                "end_time": 99.9818182,
                "pitch": 84,
                "velocity": 64,
                "duration": 0.0840909,
                "tempo": 120.0
            },
            {
                "start_time": 99.9818182,
                "end_time": 100.0,
                "pitch": 86,
                "velocity": 64,
                "duration": 0.0181818,
                "tempo": 120.0
            },
            {
                "start_time": 100.0181818,
                "end_time": 100.1204545,
                "pitch": 87,
                "velocity": 64,
                "duration": 0.1022727,
                "tempo": 120.0
            },
            {
                "start_time": 100.1363636,
                "end_time": 100.2318182,
                "pitch": 64,
                "velocity": 64,
                "duration": 0.0954545,
                "tempo": 120.0
            },
            {
                "start_time": 100.2659091,
                "end_time": 100.3613636,
                "pitch": 64,
                "velocity": 64,
                "duration": 0.0954545,
                "tempo": 120.0
            },
            {
                "start_time": 100.3772727,
                "end_time": 100.4727273,
                "pitch": 64,
                "velocity": 64,
                "duration": 0.0954545,
                "tempo": 120.0
            },
            {
                "start_time": 100.4886364,
                "end_time": 100.5863636,
                "pitch": 64,
                "velocity": 64,
                "duration": 0.0977273,
                "tempo": 120.0
            },
            {
                "start_time": 100.6022727,
                "end_time": 100.7045455,
                "pitch": 79,
                "velocity": 64,
                "duration": 0.1022727,
                "tempo": 120.0
            },
            {
                "start_time": 100.7204545,
                "end_time": 100.825,
                "pitch": 78,
                "velocity": 64,
                "duration": 0.1045455,
                "tempo": 120.0
            },
            {
                "start_time": 100.8590909,
                "end_time": 100.9613636,
                "pitch": 76,
                "velocity": 64,
                "duration": 0.1022727,
                "tempo": 120.0
            },
            {
                "start_time": 100.9772727,
                "end_time": 101.0818182,
                "pitch": 74,
                "velocity": 64,
                "duration": 0.1045455,
                "tempo": 120.0
            },
            {
                "start_time": 101.1,
                "end_time": 101.2,
                "pitch": 83,
                "velocity": 64,
                "duration": 0.1,
                "tempo": 120.0
            },
            {
                "start_time": 101.2181818,
                "end_time": 101.3204545,
                "pitch": 76,
                "velocity": 64,
                "duration": 0.1022727,
                "tempo": 120.0
            },
            {
                "start_time": 101.3363636,
                "end_time": 101.4386364,
                "pitch": 72,
                "velocity": 64,
                "duration": 0.1022727,
                "tempo": 120.0
            },
            {
                "start_time": 101.4727273,
                "end_time": 101.575,
                "pitch": 79,
                "velocity": 64,
                "duration": 0.1022727,
                "tempo": 120.0
            },
            {
                "start_time": 101.5931818,
                "end_time": 101.6931818,
                "pitch": 76,
                "velocity": 64,
                "duration": 0.1,
                "tempo": 120.0
            },
            {
                "start_time": 101.7113636,
                "end_time": 101.8090909,
                "pitch": 72,
                "velocity": 64,
                "duration": 0.0977273,
                "tempo": 120.0
            },
            {
                "start_time": 101.8272727,
                "end_time": 101.9272727,
                "pitch": 79,
                "velocity": 64,
                "duration": 0.1,
                "tempo": 120.0
            },
            {
                "start_time": 101.9613636,
                "end_time": 102.0613636,
                "pitch": 76,
                "velocity": 64,
                "duration": 0.1,
                "tempo": 120.0
            },
            {
                "start_time": 102.0772727,
                "end_time": 102.1772727,
                "pitch": 79,
                "velocity": 64,
                "duration": 0.1,
                "tempo": 120.0
            },
            {
                "start_time": 102.1954545,
                "end_time": 102.2954545,
                "pitch": 76,
                "velocity": 64,
                "duration": 0.1,
                "tempo": 120.0
            },
            {
                "start_time": 102.3136364,
                "end_time": 102.4136364,
                "pitch": 72,
                "velocity": 64,
                "duration": 0.1,
                "tempo": 120.0
            },
            {
                "start_time": 102.4295455,
                "end_time": 102.5318182,
                "pitch": 79,
                "velocity": 64,
                "duration": 0.1022727,
                "tempo": 120.0
            },
            {
                "start_time": 102.5659091,
                "end_time": 102.6659091,
                "pitch": 76,
                "velocity": 64,
                "duration": 0.1,
                "tempo": 120.0
            },
            {
                "start_time": 102.6818182,
                "end_time": 102.7840909,
                "pitch": 72,
                "velocity": 64,
                "duration": 0.1022727,
                "tempo": 120.0
            },
            {
                "start_time": 102.8022727,
                "end_time": 102.9022727,
                "pitch": 79,
                "velocity": 64,
                "duration": 0.1,
                "tempo": 120.0
            },
            {
                "start_time": 102.9181818,
                "end_time": 103.0181818,
                "pitch": 76,
                "velocity": 64,
                "duration": 0.1,
                "tempo": 120.0
            },
            {
                "start_time": 103.0363636,
                "end_time": 103.1340909,
                "pitch": 81,
                "velocity": 64,
                "duration": 0.0977273,
                "tempo": 120.0
            },
            {
                "start_time": 103.1681818,
                "end_time": 103.2659091,
                "pitch": 78,
                "velocity": 64,
                "duration": 0.0977273,
                "tempo": 120.0
            },
            {
                "start_time": 103.2840909,
                "end_time": 103.3818182,
                "pitch": 74,
                "velocity": 64,
                "duration": 0.0977273,
                "tempo": 120.0
            },
            {
                "start_time": 103.3977273,
                "end_time": 103.4954545,
                "pitch": 81,
                "velocity": 64,
                "duration": 0.0977273,
                "tempo": 120.0
            },
            {
                "start_time": 103.5136364,
                "end_time": 103.6136364,
                "pitch": 78,
                "velocity": 64,
                "duration": 0.1,
                "tempo": 120.0
            },
            {
                "start_time": 103.65,
                "end_time": 103.7522727,
                "pitch": 74,
                "velocity": 64,
                "duration": 0.1022727,
                "tempo": 120.0
            },
            {
                "start_time": 103.7681818,
                "end_time": 103.8704545,
                "pitch": 81,
                "velocity": 64,
                "duration": 0.1022727,
                "tempo": 120.0
            },
            {
                "start_time": 103.8886364,
                "end_time": 103.9909091,
                "pitch": 78,
                "velocity": 64,
                "duration": 0.1022727,
                "tempo": 120.0
            },
            {
                "start_time": 104.0090909,
                "end_time": 104.1090909,
                "pitch": 81,
                "velocity": 64,
                "duration": 0.1,
                "tempo": 120.0
            },
            {
                "start_time": 104.125,
                "end_time": 104.2272727,
                "pitch": 78,
                "velocity": 64,
                "duration": 0.1022727,
                "tempo": 120.0
            },
            {
                "start_time": 104.2613636,
                "end_time": 104.3613636,
                "pitch": 74,
                "velocity": 64,
                "duration": 0.1,
                "tempo": 120.0
            },
            {
                "start_time": 104.3772727,
                "end_time": 104.4795455,
                "pitch": 81,
                "velocity": 64,
                "duration": 0.1022727,
                "tempo": 120.0
            },
            {
                "start_time": 104.4954545,
                "end_time": 104.5954545,
                "pitch": 78,
                "velocity": 64,
                "duration": 0.1,
                "tempo": 120.0
            },
            {
                "start_time": 104.6136364,
                "end_time": 104.7136364,
                "pitch": 74,
                "velocity": 64,
                "duration": 0.1,
                "tempo": 120.0
            },
            {
                "start_time": 104.7318182,
                "end_time": 104.8318182,
                "pitch": 81,
                "velocity": 64,
                "duration": 0.1,
                "tempo": 120.0
            },
            {
                "start_time": 104.8659091,
                "end_time": 104.9681818,
                "pitch": 78,
                "velocity": 64,
                "duration": 0.1022727,
                "tempo": 120.0
            },
            {
                "start_time": 104.9840909,
                "end_time": 105.0863636,
                "pitch": 83,
                "velocity": 64,
                "duration": 0.1022727,
                "tempo": 120.0
            },
            {
                "start_time": 105.1022727,
                "end_time": 105.2045455,
                "pitch": 79,
                "velocity": 64,
                "duration": 0.1022727,
                "tempo": 120.0
            },
            {
                "start_time": 105.2227273,
                "end_time": 105.325,
                "pitch": 76,
                "velocity": 64,
                "duration": 0.1022727,
                "tempo": 120.0
            },
            {
                "start_time": 105.3431818,
                "end_time": 105.4454545,
                "pitch": 83,
                "velocity": 64,
                "duration": 0.1022727,
                "tempo": 120.0
            },
            {
                "start_time": 105.4795455,
                "end_time": 105.5795455,
                "pitch": 79,
                "velocity": 64,
                "duration": 0.1,
                "tempo": 120.0
            },
            {
                "start_time": 105.5977273,
                "end_time": 105.6977273,
                "pitch": 76,
                "velocity": 64,
                "duration": 0.1,
                "tempo": 120.0
            },
            {
                "start_time": 105.7159091,
                "end_time": 105.8159091,
                "pitch": 83,
                "velocity": 64,
                "duration": 0.1,
                "tempo": 120.0
            },
            {
                "start_time": 105.8318182,
                "end_time": 105.9340909,
                "pitch": 79,
                "velocity": 64,
                "duration": 0.1022727,
                "tempo": 120.0
            },
            {
                "start_time": 105.9681818,
                "end_time": 106.0681818,
                "pitch": 83,
                "velocity": 64,
                "duration": 0.1,
                "tempo": 120.0
            },
            {
                "start_time": 106.0840909,
                "end_time": 106.1863636,
                "pitch": 79,
                "velocity": 64,
                "duration": 0.1022727,
                "tempo": 120.0
            },
            {
                "start_time": 106.2045455,
                "end_time": 106.3045455,
                "pitch": 76,
                "velocity": 64,
                "duration": 0.1,
                "tempo": 120.0
            },
            {
                "start_time": 106.3204545,
                "end_time": 106.4204545,
                "pitch": 83,
                "velocity": 64,
                "duration": 0.1,
                "tempo": 120.0
            },
            {
                "start_time": 106.4386364,
                "end_time": 106.5363636,
                "pitch": 79,
                "velocity": 64,
                "duration": 0.0977273,
                "tempo": 120.0
            },
            {
                "start_time": 106.5704545,
                "end_time": 106.6681818,
                "pitch": 76,
                "velocity": 64,
                "duration": 0.0977273,
                "tempo": 120.0
            },
            {
                "start_time": 106.6863636,
                "end_time": 106.7818182,
                "pitch": 83,
                "velocity": 64,
                "duration": 0.0954545,
                "tempo": 120.0
            },
            {
                "start_time": 106.8,
                "end_time": 106.8977273,
                "pitch": 79,
                "velocity": 64,
                "duration": 0.0977273,
                "tempo": 120.0
            },
            {
                "start_time": 106.9159091,
                "end_time": 107.0159091,
                "pitch": 84,
                "velocity": 64,
                "duration": 0.1,
                "tempo": 120.0
            },
            {
                "start_time": 107.0340909,
                "end_time": 107.1363636,
                "pitch": 81,
                "velocity": 64,
                "duration": 0.1022727,
                "tempo": 120.0
            },
            {
                "start_time": 107.1704545,
                "end_time": 107.2727273,
                "pitch": 78,
                "velocity": 64,
                "duration": 0.1022727,
                "tempo": 120.0
            },
            {
                "start_time": 107.2909091,
                "end_time": 107.3931818,
                "pitch": 84,
                "velocity": 64,
                "duration": 0.1022727,
                "tempo": 120.0
            },
            {
                "start_time": 107.4113636,
                "end_time": 107.5113636,
                "pitch": 81,
                "velocity": 64,
                "duration": 0.1,
                "tempo": 120.0
            },
            {
                "start_time": 107.5272727,
                "end_time": 107.6295455,
                "pitch": 78,
                "velocity": 64,
                "duration": 0.1022727,
                "tempo": 120.0
            },
            {
                "start_time": 107.6454545,
                "end_time": 107.7454545,
                "pitch": 84,
                "velocity": 64,
                "duration": 0.1,
                "tempo": 120.0
            },
            {
                "start_time": 107.7795455,
                "end_time": 107.8818182,
                "pitch": 81,
                "velocity": 64,
                "duration": 0.1022727,
                "tempo": 120.0
            },
            {
                "start_time": 107.8977273,
                "end_time": 107.9977273,
                "pitch": 84,
                "velocity": 64,
                "duration": 0.1,
                "tempo": 120.0
            },
            {
                "start_time": 108.0159091,
                "end_time": 108.1136364,
                "pitch": 81,
                "velocity": 64,
                "duration": 0.0977273,
                "tempo": 120.0
            },
            {
                "start_time": 108.1318182,
                "end_time": 108.2318182,
                "pitch": 78,
                "velocity": 64,
                "duration": 0.1,
                "tempo": 120.0
            },
            {
                "start_time": 108.2659091,
                "end_time": 108.3659091,
                "pitch": 84,
                "velocity": 64,
                "duration": 0.1,
                "tempo": 120.0
            },
            {
                "start_time": 108.3818182,
                "end_time": 108.4840909,
                "pitch": 81,
                "velocity": 64,
                "duration": 0.1022727,
                "tempo": 120.0
            },
            {
                "start_time": 108.5022727,
                "end_time": 108.6045455,
                "pitch": 78,
                "velocity": 64,
                "duration": 0.1022727,
                "tempo": 120.0
            },
            {
                "start_time": 108.6204545,
                "end_time": 108.7227273,
                "pitch": 84,
                "velocity": 64,
                "duration": 0.1022727,
                "tempo": 120.0
            },
            {
                "start_time": 108.7409091,
                "end_time": 108.8431818,
                "pitch": 81,
                "velocity": 64,
                "duration": 0.1022727,
                "tempo": 120.0
            },
            {
                "start_time": 108.8795455,
                "end_time": 108.9772727,
                "pitch": 83,
                "velocity": 64,
                "duration": 0.0977273,
                "tempo": 120.0
            },
            {
                "start_time": 108.9954545,
                "end_time": 109.0954545,
                "pitch": 76,
                "velocity": 64,
                "duration": 0.1,
                "tempo": 120.0
            },
            {
                "start_time": 109.1136364,
                "end_time": 109.2136364,
                "pitch": 72,
                "velocity": 64,
                "duration": 0.1,
                "tempo": 120.0
            },
            {
                "start_time": 109.2318182,
                "end_time": 109.3318182,
                "pitch": 79,
                "velocity": 64,
                "duration": 0.1,
                "tempo": 120.0
            },
            {
                "start_time": 109.3477273,
                "end_time": 109.4477273,
                "pitch": 76,
                "velocity": 64,
                "duration": 0.1,
                "tempo": 120.0
            },
            {
                "start_time": 109.4795455,
                "end_time": 109.5772727,
                "pitch": 72,
                "velocity": 64,
                "duration": 0.0977273,
                "tempo": 120.0
            },
            {
                "start_time": 109.5954545,
                "end_time": 109.6931818,
                "pitch": 79,
                "velocity": 64,
                "duration": 0.0977273,
                "tempo": 120.0
            },
            {
                "start_time": 109.7090909,
                "end_time": 109.8090909,
                "pitch": 76,
                "velocity": 64,
                "duration": 0.1,
                "tempo": 120.0
            },
            {
                "start_time": 109.825,
                "end_time": 109.925,
                "pitch": 79,
                "velocity": 64,
                "duration": 0.1,
                "tempo": 120.0
            },
            {
                "start_time": 109.9409091,
                "end_time": 110.0431818,
                "pitch": 76,
                "velocity": 64,
                "duration": 0.1022727,
                "tempo": 120.0
            },
            {
                "start_time": 110.0772727,
                "end_time": 110.175,
                "pitch": 72,
                "velocity": 64,
                "duration": 0.0977273,
                "tempo": 120.0
            },
            {
                "start_time": 110.1909091,
                "end_time": 110.2931818,
                "pitch": 79,
                "velocity": 64,
                "duration": 0.1022727,
                "tempo": 120.0
            },
            {
                "start_time": 110.3090909,
                "end_time": 110.4113636,
                "pitch": 76,
                "velocity": 64,
                "duration": 0.1022727,
                "tempo": 120.0
            },
            {
                "start_time": 110.4272727,
                "end_time": 110.5318182,
                "pitch": 72,
                "velocity": 64,
                "duration": 0.1045455,
                "tempo": 120.0
            },
            {
                "start_time": 110.5659091,
                "end_time": 110.6681818,
                "pitch": 79,
                "velocity": 64,
                "duration": 0.1022727,
                "tempo": 120.0
            },
            {
                "start_time": 110.6840909,
                "end_time": 110.7863636,
                "pitch": 76,
                "velocity": 64,
                "duration": 0.1022727,
                "tempo": 120.0
            },
            {
                "start_time": 110.8045455,
                "end_time": 110.9045455,
                "pitch": 81,
                "velocity": 64,
                "duration": 0.1,
                "tempo": 120.0
            },
            {
                "start_time": 110.9204545,
                "end_time": 111.0227273,
                "pitch": 78,
                "velocity": 64,
                "duration": 0.1022727,
                "tempo": 120.0
            },
            {
                "start_time": 111.0386364,
                "end_time": 111.1386364,
                "pitch": 74,
                "velocity": 64,
                "duration": 0.1,
                "tempo": 120.0
            },
            {
                "start_time": 111.1727273,
                "end_time": 111.2727273,
                "pitch": 81,
                "velocity": 64,
                "duration": 0.1,
                "tempo": 120.0
            },
            {
                "start_time": 111.2886364,
                "end_time": 111.3909091,
                "pitch": 78,
                "velocity": 64,
                "duration": 0.1022727,
                "tempo": 120.0
            },
            {
                "start_time": 111.4068182,
                "end_time": 111.5113636,
                "pitch": 74,
                "velocity": 64,
                "duration": 0.1045455,
                "tempo": 120.0
            },
            {
                "start_time": 111.5272727,
                "end_time": 111.6295455,
                "pitch": 81,
                "velocity": 64,
                "duration": 0.1022727,
                "tempo": 120.0
            },
            {
                "start_time": 111.6477273,
                "end_time": 111.75,
                "pitch": 78,
                "velocity": 64,
                "duration": 0.1022727,
                "tempo": 120.0
            },
            {
                "start_time": 111.7840909,
                "end_time": 111.8840909,
                "pitch": 81,
                "velocity": 64,
                "duration": 0.1,
                "tempo": 120.0
            },
            {
                "start_time": 111.9022727,
                "end_time": 112.0022727,
                "pitch": 78,
                "velocity": 64,
                "duration": 0.1,
                "tempo": 120.0
            },
            {
                "start_time": 112.0204545,
                "end_time": 112.1204545,
                "pitch": 74,
                "velocity": 64,
                "duration": 0.1,
                "tempo": 120.0
            },
            {
                "start_time": 112.1363636,
                "end_time": 112.2386364,
                "pitch": 81,
                "velocity": 64,
                "duration": 0.1022727,
                "tempo": 120.0
            },
            {
                "start_time": 112.2727273,
                "end_time": 112.3727273,
                "pitch": 78,
                "velocity": 64,
                "duration": 0.1,
                "tempo": 120.0
            },
            {
                "start_time": 112.3886364,
                "end_time": 112.4886364,
                "pitch": 74,
                "velocity": 64,
                "duration": 0.1,
                "tempo": 120.0
            },
            {
                "start_time": 112.5068182,
                "end_time": 112.6045455,
                "pitch": 81,
                "velocity": 64,
                "duration": 0.0977273,
                "tempo": 120.0
            },
            {
                "start_time": 112.6227273,
                "end_time": 112.7227273,
                "pitch": 78,
                "velocity": 64,
                "duration": 0.1,
                "tempo": 120.0
            },
            {
                "start_time": 112.7409091,
                "end_time": 112.8386364,
                "pitch": 78,
                "velocity": 64,
                "duration": 0.0977273,
                "tempo": 120.0
            },
            {
                "start_time": 112.8704545,
                "end_time": 112.9681818,
                "pitch": 75,
                "velocity": 64,
                "duration": 0.0977273,
                "tempo": 120.0
            },
            {
                "start_time": 112.9863636,
                "end_time": 113.0840909,
                "pitch": 71,
                "velocity": 64,
                "duration": 0.0977273,
                "tempo": 120.0
            },
            {
                "start_time": 113.1,
                "end_time": 113.2,
                "pitch": 78,
                "velocity": 64,
                "duration": 0.1,
                "tempo": 120.0
            },
            {
                "start_time": 113.2159091,
                "end_time": 113.3159091,
                "pitch": 75,
                "velocity": 64,
                "duration": 0.1,
                "tempo": 120.0
            },
            {
                "start_time": 113.3340909,
                "end_time": 113.4340909,
                "pitch": 71,
                "velocity": 64,
                "duration": 0.1,
                "tempo": 120.0
            },
            {
                "start_time": 113.4681818,
                "end_time": 113.5681818,
                "pitch": 78,
                "velocity": 64,
                "duration": 0.1,
                "tempo": 120.0
            },
            {
                "start_time": 113.5863636,
                "end_time": 113.6863636,
                "pitch": 75,
                "velocity": 64,
                "duration": 0.1,
                "tempo": 120.0
            },
            {
                "start_time": 113.7045455,
                "end_time": 113.8068182,
                "pitch": 78,
                "velocity": 64,
                "duration": 0.1022727,
                "tempo": 120.0
            },
            {
                "start_time": 113.8227273,
                "end_time": 113.925,
                "pitch": 75,
                "velocity": 64,
                "duration": 0.1022727,
                "tempo": 120.0
            },
            {
                "start_time": 113.9431818,
                "end_time": 114.0454545,
                "pitch": 71,
                "velocity": 64,
                "duration": 0.1022727,
                "tempo": 120.0
            },
            {
                "start_time": 114.0795455,
                "end_time": 114.1818182,
                "pitch": 78,
                "velocity": 64,
                "duration": 0.1022727,
                "tempo": 120.0
            },
            {
                "start_time": 114.2,
                "end_time": 114.3,
                "pitch": 75,
                "velocity": 64,
                "duration": 0.1,
                "tempo": 120.0
            },
            {
                "start_time": 114.3159091,
                "end_time": 114.4181818,
                "pitch": 71,
                "velocity": 64,
                "duration": 0.1022727,
                "tempo": 120.0
            },
            {
                "start_time": 114.4340909,
                "end_time": 114.5363636,
                "pitch": 78,
                "velocity": 64,
                "duration": 0.1022727,
                "tempo": 120.0
            },
            {
                "start_time": 114.5681818,
                "end_time": 114.6704545,
                "pitch": 75,
                "velocity": 64,
                "duration": 0.1022727,
                "tempo": 120.0
            },
            {
                "start_time": 114.6886364,
                "end_time": 114.7886364,
                "pitch": 75,
                "velocity": 64,
                "duration": 0.1,
                "tempo": 120.0
            },
            {
                "start_time": 114.8068182,
                "end_time": 114.9090909,
                "pitch": 71,
                "velocity": 64,
                "duration": 0.1022727,
                "tempo": 120.0
            },
            {
                "start_time": 114.9272727,
                "end_time": 115.0295455,
                "pitch": 78,
                "velocity": 64,
                "duration": 0.1022727,
                "tempo": 120.0
            },
            {
                "start_time": 115.0454545,
                "end_time": 115.1477273,
                "pitch": 71,
                "velocity": 64,
                "duration": 0.1022727,
                "tempo": 120.0
            },
            {
                "start_time": 115.1840909,
                "end_time": 115.2840909,
                "pitch": 81,
                "velocity": 64,
                "duration": 0.1,
                "tempo": 120.0
            },
            {
                "start_time": 115.3,
                "end_time": 115.4022727,
                "pitch": 75,
                "velocity": 64,
                "duration": 0.1022727,
                "tempo": 120.0
            },
            {
                "start_time": 115.4181818,
                "end_time": 115.5181818,
                "pitch": 82,
                "velocity": 64,
                "duration": 0.1,
                "tempo": 120.0
            },
            {
                "start_time": 115.5363636,
                "end_time": 115.6363636,
                "pitch": 75,
                "velocity": 64,
                "duration": 0.1,
                "tempo": 120.0
            },
            {
                "start_time": 115.6545455,
                "end_time": 115.8840909,
                "pitch": 83,
                "velocity": 64,
                "duration": 0.2295455,
                "tempo": 120.0
            }
        ],
        "Acoustic Bass": [
            {
                "start_time": 4.2272727,
                "end_time": 4.4522727,
                "pitch": 52,
                "velocity": 101,
                "duration": 0.225,
                "tempo": 120.0
            },
            {
                "start_time": 4.4704545,
                "end_time": 4.7136364,
                "pitch": 35,
                "velocity": 101,
                "duration": 0.2431818,
                "tempo": 120.0
            },
            {
                "start_time": 4.7295455,
                "end_time": 4.8340909,
                "pitch": 38,
                "velocity": 101,
                "duration": 0.1045455,
                "tempo": 120.0
            },
            {
                "start_time": 4.8522727,
                "end_time": 5.075,
                "pitch": 33,
                "velocity": 101,
                "duration": 0.2227273,
                "tempo": 120.0
            },
            {
                "start_time": 5.1090909,
                "end_time": 5.2113636,
                "pitch": 35,
                "velocity": 101,
                "duration": 0.1022727,
                "tempo": 120.0
            },
            {
                "start_time": 5.2272727,
                "end_time": 5.4454545,
                "pitch": 27,
                "velocity": 101,
                "duration": 0.2181818,
                "tempo": 120.0
            },
            {
                "start_time": 5.4636364,
                "end_time": 5.5613636,
                "pitch": 33,
                "velocity": 101,
                "duration": 0.0977273,
                "tempo": 120.0
            },
            {
                "start_time": 5.5772727,
                "end_time": 5.8068182,
                "pitch": 52,
                "velocity": 101,
                "duration": 0.2295455,
                "tempo": 120.0
            },
            {
                "start_time": 5.825,
                "end_time": 6.0454545,
                "pitch": 50,
                "velocity": 101,
                "duration": 0.2204545,
                "tempo": 120.0
            },
            {
                "start_time": 6.0636364,
                "end_time": 6.1659091,
                "pitch": 35,
                "velocity": 101,
                "duration": 0.1022727,
                "tempo": 120.0
            },
            {
                "start_time": 6.1863636,
                "end_time": 6.4227273,
                "pitch": 52,
                "velocity": 101,
                "duration": 0.2363636,
                "tempo": 120.0
            },
            {
                "start_time": 6.4409091,
                "end_time": 6.6613636,
                "pitch": 35,
                "velocity": 101,
                "duration": 0.2204545,
                "tempo": 120.0
            },
            {
                "start_time": 6.6772727,
                "end_time": 6.7818182,
                "pitch": 38,
                "velocity": 101,
                "duration": 0.1045455,
                "tempo": 120.0
            },
            {
                "start_time": 6.7977273,
                "end_time": 7.0272727,
                "pitch": 33,
                "velocity": 101,
                "duration": 0.2295455,
                "tempo": 120.0
            },
            {
                "start_time": 7.0454545,
                "end_time": 7.1431818,
                "pitch": 35,
                "velocity": 101,
                "duration": 0.0977273,
                "tempo": 120.0
            },
            {
                "start_time": 7.1613636,
                "end_time": 7.3727273,
                "pitch": 27,
                "velocity": 101,
                "duration": 0.2113636,
                "tempo": 120.0
            },
            {
                "start_time": 7.4068182,
                "end_time": 7.5045455,
                "pitch": 33,
                "velocity": 101,
                "duration": 0.0977273,
                "tempo": 120.0
            },
            {
                "start_time": 7.5227273,
                "end_time": 7.7363636,
                "pitch": 52,
                "velocity": 101,
                "duration": 0.2136364,
                "tempo": 120.0
            },
            {
                "start_time": 7.7522727,
                "end_time": 7.9704545,
                "pitch": 50,
                "velocity": 101,
                "duration": 0.2181818,
                "tempo": 120.0
            },
            {
                "start_time": 8.0045455,
                "end_time": 8.1068182,
                "pitch": 35,
                "velocity": 101,
                "duration": 0.1022727,
                "tempo": 120.0
            },
            {
                "start_time": 8.1227273,
                "end_time": 8.3409091,
                "pitch": 52,
                "velocity": 101,
                "duration": 0.2181818,
                "tempo": 120.0
            },
            {
                "start_time": 8.3590909,
                "end_time": 8.5818182,
                "pitch": 35,
                "velocity": 101,
                "duration": 0.2227273,
                "tempo": 120.0
            },
            {
                "start_time": 8.6159091,
                "end_time": 8.7181818,
                "pitch": 38,
                "velocity": 101,
                "duration": 0.1022727,
                "tempo": 120.0
            },
            {
                "start_time": 8.7363636,
                "end_time": 8.9568182,
                "pitch": 33,
                "velocity": 101,
                "duration": 0.2204545,
                "tempo": 120.0
            },
            {
                "start_time": 8.975,
                "end_time": 9.0772727,
                "pitch": 35,
                "velocity": 101,
                "duration": 0.1022727,
                "tempo": 120.0
            },
            {
                "start_time": 9.1113636,
                "end_time": 9.3318182,
                "pitch": 27,
                "velocity": 101,
                "duration": 0.2204545,
                "tempo": 120.0
            },
            {
                "start_time": 9.3477273,
                "end_time": 9.45,
                "pitch": 33,
                "velocity": 101,
                "duration": 0.1022727,
                "tempo": 120.0
            },
            {
                "start_time": 9.4659091,
                "end_time": 9.6840909,
                "pitch": 52,
                "velocity": 101,
                "duration": 0.2181818,
                "tempo": 120.0
            },
            {
                "start_time": 9.7181818,
                "end_time": 9.9409091,
                "pitch": 50,
                "velocity": 101,
                "duration": 0.2227273,
                "tempo": 120.0
            },
            {
                "start_time": 9.9590909,
                "end_time": 10.0613636,
                "pitch": 35,
                "velocity": 101,
                "duration": 0.1022727,
                "tempo": 120.0
            },
            {
                "start_time": 10.0795455,
                "end_time": 10.3,
                "pitch": 52,
                "velocity": 101,
                "duration": 0.2204545,
                "tempo": 120.0
            },
            {
                "start_time": 10.3340909,
                "end_time": 10.55,
                "pitch": 35,
                "velocity": 101,
                "duration": 0.2159091,
                "tempo": 120.0
            },
            {
                "start_time": 10.5681818,
                "end_time": 10.6681818,
                "pitch": 38,
                "velocity": 101,
                "duration": 0.1,
                "tempo": 120.0
            },
            {
                "start_time": 10.6863636,
                "end_time": 10.8977273,
                "pitch": 33,
                "velocity": 101,
                "duration": 0.2113636,
                "tempo": 120.0
            },
            {
                "start_time": 10.9318182,
                "end_time": 11.0295455,
                "pitch": 35,
                "velocity": 101,
                "duration": 0.0977273,
                "tempo": 120.0
            },
            {
                "start_time": 11.05,
                "end_time": 11.3590909,
                "pitch": 31,
                "velocity": 101,
                "duration": 0.3090909,
                "tempo": 120.0
            },
            {
                "start_time": 11.3886364,
                "end_time": 11.6863636,
                "pitch": 33,
                "velocity": 101,
                "duration": 0.2977273,
                "tempo": 120.0
            },
            {
                "start_time": 11.7022727,
                "end_time": 11.8931818,
                "pitch": 35,
                "velocity": 101,
                "duration": 0.1909091,
                "tempo": 120.0
            },
            {
                "start_time": 11.9272727,
                "end_time": 12.1409091,
                "pitch": 36,
                "velocity": 101,
                "duration": 0.2136364,
                "tempo": 120.0
            },
            {
                "start_time": 12.1568182,
                "end_time": 12.375,
                "pitch": 36,
                "velocity": 101,
                "duration": 0.2181818,
                "tempo": 120.0
            },
            {
                "start_time": 12.3931818,
                "end_time": 12.4909091,
                "pitch": 36,
                "velocity": 101,
                "duration": 0.0977273,
                "tempo": 120.0
            },
            {
                "start_time": 12.525,
                "end_time": 12.7386364,
                "pitch": 48,
                "velocity": 101,
                "duration": 0.2136364,
                "tempo": 120.0
            },
            {
                "start_time": 12.7545455,
                "end_time": 12.8522727,
                "pitch": 35,
                "velocity": 101,
                "duration": 0.0977273,
                "tempo": 120.0
            },
            {
                "start_time": 12.8704545,
                "end_time": 12.9704545,
                "pitch": 36,
                "velocity": 101,
                "duration": 0.1,
                "tempo": 120.0
            },
            {
                "start_time": 12.9863636,
                "end_time": 13.0886364,
                "pitch": 36,
                "velocity": 101,
                "duration": 0.1022727,
                "tempo": 120.0
            },
            {
                "start_time": 13.2409091,
                "end_time": 13.3409091,
                "pitch": 48,
                "velocity": 101,
                "duration": 0.1,
                "tempo": 120.0
            },
            {
                "start_time": 13.3590909,
                "end_time": 13.575,
                "pitch": 36,
                "velocity": 101,
                "duration": 0.2159091,
                "tempo": 120.0
            },
            {
                "start_time": 13.6090909,
                "end_time": 13.825,
                "pitch": 48,
                "velocity": 101,
                "duration": 0.2159091,
                "tempo": 120.0
            },
            {
                "start_time": 13.8431818,
                "end_time": 14.0636364,
                "pitch": 38,
                "velocity": 101,
                "duration": 0.2204545,
                "tempo": 120.0
            },
            {
                "start_time": 14.0818182,
                "end_time": 14.3181818,
                "pitch": 38,
                "velocity": 101,
                "duration": 0.2363636,
                "tempo": 120.0
            },
            {
                "start_time": 14.3363636,
                "end_time": 14.4363636,
                "pitch": 38,
                "velocity": 101,
                "duration": 0.1,
                "tempo": 120.0
            },
            {
                "start_time": 14.4545455,
                "end_time": 14.6727273,
                "pitch": 50,
                "velocity": 101,
                "duration": 0.2181818,
                "tempo": 120.0
            },
            {
                "start_time": 14.6909091,
                "end_time": 14.7909091,
                "pitch": 37,
                "velocity": 101,
                "duration": 0.1,
                "tempo": 120.0
            },
            {
                "start_time": 14.825,
                "end_time": 14.9272727,
                "pitch": 38,
                "velocity": 101,
                "duration": 0.1022727,
                "tempo": 120.0
            },
            {
                "start_time": 14.9454545,
                "end_time": 15.0477273,
                "pitch": 38,
                "velocity": 101,
                "duration": 0.1022727,
                "tempo": 120.0
            },
            {
                "start_time": 15.1840909,
                "end_time": 15.2863636,
                "pitch": 50,
                "velocity": 101,
                "duration": 0.1022727,
                "tempo": 120.0
            },
            {
                "start_time": 15.3045455,
                "end_time": 15.4,
                "pitch": 38,
                "velocity": 101,
                "duration": 0.0954545,
                "tempo": 120.0
            },
            {
                "start_time": 15.4318182,
                "end_time": 15.5272727,
                "pitch": 38,
                "velocity": 101,
                "duration": 0.0954545,
                "tempo": 120.0
            },
            {
                "start_time": 15.5454545,
                "end_time": 15.7522727,
                "pitch": 39,
                "velocity": 101,
                "duration": 0.2068182,
                "tempo": 120.0
            },
            {
                "start_time": 15.7704545,
                "end_time": 16.0068182,
                "pitch": 36,
                "velocity": 101,
                "duration": 0.2363636,
                "tempo": 120.0
            },
            {
                "start_time": 16.025,
                "end_time": 16.2454545,
                "pitch": 36,
                "velocity": 101,
                "duration": 0.2204545,
                "tempo": 120.0
            },
            {
                "start_time": 16.2636364,
                "end_time": 16.3636364,
                "pitch": 36,
                "velocity": 101,
                "duration": 0.1,
                "tempo": 120.0
            },
            {
                "start_time": 16.3818182,
                "end_time": 16.6159091,
                "pitch": 48,
                "velocity": 101,
                "duration": 0.2340909,
                "tempo": 120.0
            },
            {
                "start_time": 16.6340909,
                "end_time": 16.7340909,
                "pitch": 35,
                "velocity": 101,
                "duration": 0.1,
                "tempo": 120.0
            },
            {
                "start_time": 16.7522727,
                "end_time": 16.8522727,
                "pitch": 36,
                "velocity": 101,
                "duration": 0.1,
                "tempo": 120.0
            },
            {
                "start_time": 16.8704545,
                "end_time": 16.9704545,
                "pitch": 36,
                "velocity": 101,
                "duration": 0.1,
                "tempo": 120.0
            },
            {
                "start_time": 17.1227273,
                "end_time": 17.2227273,
                "pitch": 48,
                "velocity": 101,
                "duration": 0.1,
                "tempo": 120.0
            },
            {
                "start_time": 17.2386364,
                "end_time": 17.4613636,
                "pitch": 36,
                "velocity": 101,
                "duration": 0.2227273,
                "tempo": 120.0
            },
            {
                "start_time": 17.4795455,
                "end_time": 17.7181818,
                "pitch": 48,
                "velocity": 101,
                "duration": 0.2386364,
                "tempo": 120.0
            },
            {
                "start_time": 17.7386364,
                "end_time": 17.9545455,
                "pitch": 38,
                "velocity": 101,
                "duration": 0.2159091,
                "tempo": 120.0
            },
            {
                "start_time": 17.9704545,
                "end_time": 18.1886364,
                "pitch": 38,
                "velocity": 101,
                "duration": 0.2181818,
                "tempo": 120.0
            },
            {
                "start_time": 18.2227273,
                "end_time": 18.325,
                "pitch": 38,
                "velocity": 101,
                "duration": 0.1022727,
                "tempo": 120.0
            },
            {
                "start_time": 18.3431818,
                "end_time": 18.5636364,
                "pitch": 50,
                "velocity": 101,
                "duration": 0.2204545,
                "tempo": 120.0
            },
            {
                "start_time": 18.5818182,
                "end_time": 18.6840909,
                "pitch": 37,
                "velocity": 101,
                "duration": 0.1022727,
                "tempo": 120.0
            },
            {
                "start_time": 18.7022727,
                "end_time": 18.7977273,
                "pitch": 38,
                "velocity": 101,
                "duration": 0.0954545,
                "tempo": 120.0
            },
            {
                "start_time": 18.8295455,
                "end_time": 18.925,
                "pitch": 38,
                "velocity": 101,
                "duration": 0.0954545,
                "tempo": 120.0
            },
            {
                "start_time": 19.0568182,
                "end_time": 19.15,
                "pitch": 50,
                "velocity": 101,
                "duration": 0.0931818,
                "tempo": 120.0
            },
            {
                "start_time": 19.1681818,
                "end_time": 19.2681818,
                "pitch": 38,
                "velocity": 101,
                "duration": 0.1,
                "tempo": 120.0
            },
            {
                "start_time": 19.2863636,
                "end_time": 19.3886364,
                "pitch": 38,
                "velocity": 101,
                "duration": 0.1022727,
                "tempo": 120.0
            },
            {
                "start_time": 19.425,
                "end_time": 19.6454545,
                "pitch": 39,
                "velocity": 101,
                "duration": 0.2204545,
                "tempo": 120.0
            },
            {
                "start_time": 19.6636364,
                "end_time": 19.8818182,
                "pitch": 36,
                "velocity": 101,
                "duration": 0.2181818,
                "tempo": 120.0
            },
            {
                "start_time": 19.9159091,
                "end_time": 20.1340909,
                "pitch": 36,
                "velocity": 101,
                "duration": 0.2181818,
                "tempo": 120.0
            },
            {
                "start_time": 20.15,
                "end_time": 20.25,
                "pitch": 36,
                "velocity": 101,
                "duration": 0.1,
                "tempo": 120.0
            },
            {
                "start_time": 20.2681818,
                "end_time": 20.4863636,
                "pitch": 48,
                "velocity": 101,
                "duration": 0.2181818,
                "tempo": 120.0
            },
            {
                "start_time": 20.5204545,
                "end_time": 20.6204545,
                "pitch": 35,
                "velocity": 101,
                "duration": 0.1,
                "tempo": 120.0
            },
            {
                "start_time": 20.6386364,
                "end_time": 20.7409091,
                "pitch": 36,
                "velocity": 101,
                "duration": 0.1022727,
                "tempo": 120.0
            },
            {
                "start_time": 20.7590909,
                "end_time": 20.8590909,
                "pitch": 36,
                "velocity": 101,
                "duration": 0.1,
                "tempo": 120.0
            },
            {
                "start_time": 20.9977273,
                "end_time": 21.1,
                "pitch": 48,
                "velocity": 101,
                "duration": 0.1022727,
                "tempo": 120.0
            },
            {
                "start_time": 21.1340909,
                "end_time": 21.3522727,
                "pitch": 36,
                "velocity": 101,
                "duration": 0.2181818,
                "tempo": 120.0
            },
            {
                "start_time": 21.3704545,
                "end_time": 21.5886364,
                "pitch": 48,
                "velocity": 101,
                "duration": 0.2181818,
                "tempo": 120.0
            },
            {
                "start_time": 21.6068182,
                "end_time": 21.8340909,
                "pitch": 38,
                "velocity": 101,
                "duration": 0.2272727,
                "tempo": 120.0
            },
            {
                "start_time": 21.8522727,
                "end_time": 22.0659091,
                "pitch": 38,
                "velocity": 101,
                "duration": 0.2136364,
                "tempo": 120.0
            },
            {
                "start_time": 22.0818182,
                "end_time": 22.1840909,
                "pitch": 38,
                "velocity": 101,
                "duration": 0.1022727,
                "tempo": 120.0
            },
            {
                "start_time": 22.2181818,
                "end_time": 22.4386364,
                "pitch": 50,
                "velocity": 101,
                "duration": 0.2204545,
                "tempo": 120.0
            },
            {
                "start_time": 22.4568182,
                "end_time": 22.5590909,
                "pitch": 37,
                "velocity": 101,
                "duration": 0.1022727,
                "tempo": 120.0
            },
            {
                "start_time": 22.5772727,
                "end_time": 22.6772727,
                "pitch": 38,
                "velocity": 101,
                "duration": 0.1,
                "tempo": 120.0
            },
            {
                "start_time": 22.6954545,
                "end_time": 22.7954545,
                "pitch": 38,
                "velocity": 101,
                "duration": 0.1,
                "tempo": 120.0
            },
            {
                "start_time": 22.9477273,
                "end_time": 23.0477273,
                "pitch": 50,
                "velocity": 101,
                "duration": 0.1,
                "tempo": 120.0
            },
            {
                "start_time": 23.0636364,
                "end_time": 23.1636364,
                "pitch": 38,
                "velocity": 101,
                "duration": 0.1,
                "tempo": 120.0
            },
            {
                "start_time": 23.1818182,
                "end_time": 23.2818182,
                "pitch": 38,
                "velocity": 101,
                "duration": 0.1,
                "tempo": 120.0
            },
            {
                "start_time": 23.3,
                "end_time": 23.5318182,
                "pitch": 39,
                "velocity": 101,
                "duration": 0.2318182,
                "tempo": 120.0
            },
            {
                "start_time": 23.5522727,
                "end_time": 23.7704545,
                "pitch": 28,
                "velocity": 101,
                "duration": 0.2181818,
                "tempo": 120.0
            },
            {
                "start_time": 23.7886364,
                "end_time": 23.8909091,
                "pitch": 40,
                "velocity": 101,
                "duration": 0.1022727,
                "tempo": 120.0
            },
            {
                "start_time": 23.9068182,
                "end_time": 24.0090909,
                "pitch": 28,
                "velocity": 101,
                "duration": 0.1022727,
                "tempo": 120.0
            },
            {
                "start_time": 24.0454545,
                "end_time": 24.1454545,
                "pitch": 38,
                "velocity": 101,
                "duration": 0.1,
                "tempo": 120.0
            },
            {
                "start_time": 24.1613636,
                "end_time": 24.3795455,
                "pitch": 28,
                "velocity": 101,
                "duration": 0.2181818,
                "tempo": 120.0
            },
            {
                "start_time": 24.3977273,
                "end_time": 24.6318182,
                "pitch": 36,
                "velocity": 101,
                "duration": 0.2340909,
                "tempo": 120.0
            },
            {
                "start_time": 24.65,
                "end_time": 24.8681818,
                "pitch": 28,
                "velocity": 101,
                "duration": 0.2181818,
                "tempo": 120.0
            },
            {
                "start_time": 24.8840909,
                "end_time": 24.9863636,
                "pitch": 30,
                "velocity": 101,
                "duration": 0.1022727,
                "tempo": 120.0
            },
            {
                "start_time": 25.0022727,
                "end_time": 25.1,
                "pitch": 33,
                "velocity": 101,
                "duration": 0.0977273,
                "tempo": 120.0
            },
            {
                "start_time": 25.1340909,
                "end_time": 25.2318182,
                "pitch": 31,
                "velocity": 101,
                "duration": 0.0977273,
                "tempo": 120.0
            },
            {
                "start_time": 25.25,
                "end_time": 25.3477273,
                "pitch": 30,
                "velocity": 101,
                "duration": 0.0977273,
                "tempo": 120.0
            },
            {
                "start_time": 25.3636364,
                "end_time": 25.4636364,
                "pitch": 26,
                "velocity": 101,
                "duration": 0.1,
                "tempo": 120.0
            },
            {
                "start_time": 25.4818182,
                "end_time": 25.7,
                "pitch": 28,
                "velocity": 101,
                "duration": 0.2181818,
                "tempo": 120.0
            },
            {
                "start_time": 25.7363636,
                "end_time": 25.8386364,
                "pitch": 40,
                "velocity": 101,
                "duration": 0.1022727,
                "tempo": 120.0
            },
            {
                "start_time": 25.8545455,
                "end_time": 25.9568182,
                "pitch": 28,
                "velocity": 101,
                "duration": 0.1022727,
                "tempo": 120.0
            },
            {
                "start_time": 25.975,
                "end_time": 26.075,
                "pitch": 38,
                "velocity": 101,
                "duration": 0.1,
                "tempo": 120.0
            },
            {
                "start_time": 26.0931818,
                "end_time": 26.3272727,
                "pitch": 28,
                "velocity": 101,
                "duration": 0.2340909,
                "tempo": 120.0
            },
            {
                "start_time": 26.3454545,
                "end_time": 26.5636364,
                "pitch": 36,
                "velocity": 101,
                "duration": 0.2181818,
                "tempo": 120.0
            },
            {
                "start_time": 26.5818182,
                "end_time": 26.8045455,
                "pitch": 28,
                "velocity": 101,
                "duration": 0.2227273,
                "tempo": 120.0
            },
            {
                "start_time": 26.8386364,
                "end_time": 26.9409091,
                "pitch": 30,
                "velocity": 101,
                "duration": 0.1022727,
                "tempo": 120.0
            },
            {
                "start_time": 26.9590909,
                "end_time": 27.0590909,
                "pitch": 33,
                "velocity": 101,
                "duration": 0.1,
                "tempo": 120.0
            },
            {
                "start_time": 27.0772727,
                "end_time": 27.1772727,
                "pitch": 31,
                "velocity": 101,
                "duration": 0.1,
                "tempo": 120.0
            },
            {
                "start_time": 27.1931818,
                "end_time": 27.2954545,
                "pitch": 30,
                "velocity": 101,
                "duration": 0.1022727,
                "tempo": 120.0
            },
            {
                "start_time": 27.3113636,
                "end_time": 27.4113636,
                "pitch": 26,
                "velocity": 101,
                "duration": 0.1,
                "tempo": 120.0
            },
            {
                "start_time": 27.4477273,
                "end_time": 27.6636364,
                "pitch": 28,
                "velocity": 101,
                "duration": 0.2159091,
                "tempo": 120.0
            },
            {
                "start_time": 27.6818182,
                "end_time": 27.7818182,
                "pitch": 40,
                "velocity": 101,
                "duration": 0.1,
                "tempo": 120.0
            },
            {
                "start_time": 27.8,
                "end_time": 27.9,
                "pitch": 28,
                "velocity": 101,
                "duration": 0.1,
                "tempo": 120.0
            },
            {
                "start_time": 27.9181818,
                "end_time": 28.0159091,
                "pitch": 38,
                "velocity": 101,
                "duration": 0.0977273,
                "tempo": 120.0
            },
            {
                "start_time": 28.05,
                "end_time": 28.2613636,
                "pitch": 28,
                "velocity": 101,
                "duration": 0.2113636,
                "tempo": 120.0
            },
            {
                "start_time": 28.2795455,
                "end_time": 28.4931818,
                "pitch": 36,
                "velocity": 101,
                "duration": 0.2136364,
                "tempo": 120.0
            },
            {
                "start_time": 28.5272727,
                "end_time": 28.7454545,
                "pitch": 28,
                "velocity": 101,
                "duration": 0.2181818,
                "tempo": 120.0
            },
            {
                "start_time": 28.7636364,
                "end_time": 28.8636364,
                "pitch": 30,
                "velocity": 101,
                "duration": 0.1,
                "tempo": 120.0
            },
            {
                "start_time": 28.8818182,
                "end_time": 28.9840909,
                "pitch": 33,
                "velocity": 101,
                "duration": 0.1022727,
                "tempo": 120.0
            },
            {
                "start_time": 29.0,
                "end_time": 29.1022727,
                "pitch": 31,
                "velocity": 101,
                "duration": 0.1022727,
                "tempo": 120.0
            },
            {
                "start_time": 29.1386364,
                "end_time": 29.2409091,
                "pitch": 30,
                "velocity": 101,
                "duration": 0.1022727,
                "tempo": 120.0
            },
            {
                "start_time": 29.2568182,
                "end_time": 29.3590909,
                "pitch": 26,
                "velocity": 101,
                "duration": 0.1022727,
                "tempo": 120.0
            },
            {
                "start_time": 29.3772727,
                "end_time": 29.5954545,
                "pitch": 28,
                "velocity": 101,
                "duration": 0.2181818,
                "tempo": 120.0
            },
            {
                "start_time": 29.6136364,
                "end_time": 29.7136364,
                "pitch": 40,
                "velocity": 101,
                "duration": 0.1,
                "tempo": 120.0
            },
            {
                "start_time": 29.7477273,
                "end_time": 29.8477273,
                "pitch": 28,
                "velocity": 101,
                "duration": 0.1,
                "tempo": 120.0
            },
            {
                "start_time": 29.8659091,
                "end_time": 29.9659091,
                "pitch": 38,
                "velocity": 101,
                "duration": 0.1,
                "tempo": 120.0
            },
            {
                "start_time": 29.9840909,
                "end_time": 30.2,
                "pitch": 28,
                "velocity": 101,
                "duration": 0.2159091,
                "tempo": 120.0
            },
            {
                "start_time": 30.2181818,
                "end_time": 30.4545455,
                "pitch": 36,
                "velocity": 101,
                "duration": 0.2363636,
                "tempo": 120.0
            },
            {
                "start_time": 30.4727273,
                "end_time": 30.6954545,
                "pitch": 28,
                "velocity": 101,
                "duration": 0.2227273,
                "tempo": 120.0
            },
            {
                "start_time": 30.7136364,
                "end_time": 30.8136364,
                "pitch": 30,
                "velocity": 101,
                "duration": 0.1,
                "tempo": 120.0
            },
            {
                "start_time": 30.8477273,
                "end_time": 30.95,
                "pitch": 33,
                "velocity": 101,
                "duration": 0.1022727,
                "tempo": 120.0
            },
            {
                "start_time": 30.9659091,
                "end_time": 31.0681818,
                "pitch": 31,
                "velocity": 101,
                "duration": 0.1022727,
                "tempo": 120.0
            },
            {
                "start_time": 31.0840909,
                "end_time": 31.1840909,
                "pitch": 33,
                "velocity": 101,
                "duration": 0.1,
                "tempo": 120.0
            },
            {
                "start_time": 31.2022727,
                "end_time": 31.3022727,
                "pitch": 35,
                "velocity": 101,
                "duration": 0.1,
                "tempo": 120.0
            },
            {
                "start_time": 31.3227273,
                "end_time": 31.5545455,
                "pitch": 36,
                "velocity": 101,
                "duration": 0.2318182,
                "tempo": 120.0
            },
            {
                "start_time": 31.5727273,
                "end_time": 31.7909091,
                "pitch": 36,
                "velocity": 101,
                "duration": 0.2181818,
                "tempo": 120.0
            },
            {
                "start_time": 31.8068182,
                "end_time": 31.9045455,
                "pitch": 36,
                "velocity": 101,
                "duration": 0.0977273,
                "tempo": 120.0
            },
            {
                "start_time": 31.9227273,
                "end_time": 32.1522727,
                "pitch": 48,
                "velocity": 101,
                "duration": 0.2295455,
                "tempo": 120.0
            },
            {
                "start_time": 32.1681818,
                "end_time": 32.2659091,
                "pitch": 35,
                "velocity": 101,
                "duration": 0.0977273,
                "tempo": 120.0
            },
            {
                "start_time": 32.2840909,
                "end_time": 32.3863636,
                "pitch": 36,
                "velocity": 101,
                "duration": 0.1022727,
                "tempo": 120.0
            },
            {
                "start_time": 32.4022727,
                "end_time": 32.5045455,
                "pitch": 36,
                "velocity": 101,
                "duration": 0.1022727,
                "tempo": 120.0
            },
            {
                "start_time": 32.6613636,
                "end_time": 32.7636364,
                "pitch": 48,
                "velocity": 101,
                "duration": 0.1022727,
                "tempo": 120.0
            },
            {
                "start_time": 32.7795455,
                "end_time": 32.9977273,
                "pitch": 36,
                "velocity": 101,
                "duration": 0.2181818,
                "tempo": 120.0
            },
            {
                "start_time": 33.0159091,
                "end_time": 33.25,
                "pitch": 48,
                "velocity": 101,
                "duration": 0.2340909,
                "tempo": 120.0
            },
            {
                "start_time": 33.2681818,
                "end_time": 33.4840909,
                "pitch": 38,
                "velocity": 101,
                "duration": 0.2159091,
                "tempo": 120.0
            },
            {
                "start_time": 33.5022727,
                "end_time": 33.7181818,
                "pitch": 38,
                "velocity": 101,
                "duration": 0.2159091,
                "tempo": 120.0
            },
            {
                "start_time": 33.75,
                "end_time": 33.8522727,
                "pitch": 38,
                "velocity": 101,
                "duration": 0.1022727,
                "tempo": 120.0
            },
            {
                "start_time": 33.8704545,
                "end_time": 34.0931818,
                "pitch": 50,
                "velocity": 101,
                "duration": 0.2227273,
                "tempo": 120.0
            },
            {
                "start_time": 34.1090909,
                "end_time": 34.2136364,
                "pitch": 37,
                "velocity": 101,
                "duration": 0.1045455,
                "tempo": 120.0
            },
            {
                "start_time": 34.2318182,
                "end_time": 34.3272727,
                "pitch": 38,
                "velocity": 101,
                "duration": 0.0954545,
                "tempo": 120.0
            },
            {
                "start_time": 34.3613636,
                "end_time": 34.4590909,
                "pitch": 38,
                "velocity": 101,
                "duration": 0.0977273,
                "tempo": 120.0
            },
            {
                "start_time": 34.5909091,
                "end_time": 34.6886364,
                "pitch": 50,
                "velocity": 101,
                "duration": 0.0977273,
                "tempo": 120.0
            },
            {
                "start_time": 34.7068182,
                "end_time": 34.8068182,
                "pitch": 38,
                "velocity": 101,
                "duration": 0.1,
                "tempo": 120.0
            },
            {
                "start_time": 34.8409091,
                "end_time": 34.9409091,
                "pitch": 38,
                "velocity": 101,
                "duration": 0.1,
                "tempo": 120.0
            },
            {
                "start_time": 34.9590909,
                "end_time": 35.1772727,
                "pitch": 39,
                "velocity": 101,
                "duration": 0.2181818,
                "tempo": 120.0
            },
            {
                "start_time": 35.1954545,
                "end_time": 35.4113636,
                "pitch": 36,
                "velocity": 101,
                "duration": 0.2159091,
                "tempo": 120.0
            },
            {
                "start_time": 35.4454545,
                "end_time": 35.6613636,
                "pitch": 36,
                "velocity": 101,
                "duration": 0.2159091,
                "tempo": 120.0
            },
            {
                "start_time": 35.6772727,
                "end_time": 35.7795455,
                "pitch": 36,
                "velocity": 101,
                "duration": 0.1022727,
                "tempo": 120.0
            },
            {
                "start_time": 35.7977273,
                "end_time": 36.0181818,
                "pitch": 48,
                "velocity": 101,
                "duration": 0.2204545,
                "tempo": 120.0
            },
            {
                "start_time": 36.0545455,
                "end_time": 36.1568182,
                "pitch": 35,
                "velocity": 101,
                "duration": 0.1022727,
                "tempo": 120.0
            },
            {
                "start_time": 36.175,
                "end_time": 36.275,
                "pitch": 36,
                "velocity": 101,
                "duration": 0.1,
                "tempo": 120.0
            },
            {
                "start_time": 36.2909091,
                "end_time": 36.3909091,
                "pitch": 36,
                "velocity": 101,
                "duration": 0.1,
                "tempo": 120.0
            },
            {
                "start_time": 36.525,
                "end_time": 36.6227273,
                "pitch": 48,
                "velocity": 101,
                "duration": 0.0977273,
                "tempo": 120.0
            },
            {
                "start_time": 36.6568182,
                "end_time": 36.8795455,
                "pitch": 36,
                "velocity": 101,
                "duration": 0.2227273,
                "tempo": 120.0
            },
            {
                "start_time": 36.8977273,
                "end_time": 37.1181818,
                "pitch": 48,
                "velocity": 101,
                "duration": 0.2204545,
                "tempo": 120.0
            },
            {
                "start_time": 37.1545455,
                "end_time": 37.3704545,
                "pitch": 38,
                "velocity": 101,
                "duration": 0.2159091,
                "tempo": 120.0
            },
            {
                "start_time": 37.3863636,
                "end_time": 37.6022727,
                "pitch": 38,
                "velocity": 101,
                "duration": 0.2159091,
                "tempo": 120.0
            },
            {
                "start_time": 37.6204545,
                "end_time": 37.7181818,
                "pitch": 38,
                "velocity": 101,
                "duration": 0.0977273,
                "tempo": 120.0
            },
            {
                "start_time": 37.7522727,
                "end_time": 37.9659091,
                "pitch": 50,
                "velocity": 101,
                "duration": 0.2136364,
                "tempo": 120.0
            },
            {
                "start_time": 37.9818182,
                "end_time": 38.0795455,
                "pitch": 37,
                "velocity": 101,
                "duration": 0.0977273,
                "tempo": 120.0
            },
            {
                "start_time": 38.0977273,
                "end_time": 38.1954545,
                "pitch": 38,
                "velocity": 101,
                "duration": 0.0977273,
                "tempo": 120.0
            },
            {
                "start_time": 38.2136364,
                "end_time": 38.3136364,
                "pitch": 38,
                "velocity": 101,
                "duration": 0.1,
                "tempo": 120.0
            },
            {
                "start_time": 38.4659091,
                "end_time": 38.5636364,
                "pitch": 50,
                "velocity": 101,
                "duration": 0.0977273,
                "tempo": 120.0
            },
            {
                "start_time": 38.5795455,
                "end_time": 38.6795455,
                "pitch": 38,
                "velocity": 101,
                "duration": 0.1,
                "tempo": 120.0
            },
            {
                "start_time": 38.6977273,
                "end_time": 38.7977273,
                "pitch": 38,
                "velocity": 101,
                "duration": 0.1,
                "tempo": 120.0
            },
            {
                "start_time": 38.8159091,
                "end_time": 39.0477273,
                "pitch": 39,
                "velocity": 101,
                "duration": 0.2318182,
                "tempo": 120.0
            },
            {
                "start_time": 39.0659091,
                "end_time": 39.2863636,
                "pitch": 36,
                "velocity": 101,
                "duration": 0.2204545,
                "tempo": 120.0
            },
            {
                "start_time": 39.3045455,
                "end_time": 39.5431818,
                "pitch": 36,
                "velocity": 101,
                "duration": 0.2386364,
                "tempo": 120.0
            },
            {
                "start_time": 39.5590909,
                "end_time": 39.6613636,
                "pitch": 36,
                "velocity": 101,
                "duration": 0.1022727,
                "tempo": 120.0
            },
            {
                "start_time": 39.6772727,
                "end_time": 39.8954545,
                "pitch": 48,
                "velocity": 101,
                "duration": 0.2181818,
                "tempo": 120.0
            },
            {
                "start_time": 39.9136364,
                "end_time": 40.0136364,
                "pitch": 35,
                "velocity": 101,
                "duration": 0.1,
                "tempo": 120.0
            },
            {
                "start_time": 40.05,
                "end_time": 40.15,
                "pitch": 36,
                "velocity": 101,
                "duration": 0.1,
                "tempo": 120.0
            },
            {
                "start_time": 40.1681818,
                "end_time": 40.2704545,
                "pitch": 36,
                "velocity": 101,
                "duration": 0.1022727,
                "tempo": 120.0
            },
            {
                "start_time": 40.4068182,
                "end_time": 40.5090909,
                "pitch": 48,
                "velocity": 101,
                "duration": 0.1022727,
                "tempo": 120.0
            },
            {
                "start_time": 40.5272727,
                "end_time": 40.75,
                "pitch": 36,
                "velocity": 101,
                "duration": 0.2227273,
                "tempo": 120.0
            },
            {
                "start_time": 40.7681818,
                "end_time": 40.975,
                "pitch": 48,
                "velocity": 101,
                "duration": 0.2068182,
                "tempo": 120.0
            },
            {
                "start_time": 40.9931818,
                "end_time": 41.2136364,
                "pitch": 38,
                "velocity": 101,
                "duration": 0.2204545,
                "tempo": 120.0
            },
            {
                "start_time": 41.2477273,
                "end_time": 41.4704545,
                "pitch": 38,
                "velocity": 101,
                "duration": 0.2227273,
                "tempo": 120.0
            },
            {
                "start_time": 41.4886364,
                "end_time": 41.5863636,
                "pitch": 38,
                "velocity": 101,
                "duration": 0.0977273,
                "tempo": 120.0
            },
            {
                "start_time": 41.6045455,
                "end_time": 41.8363636,
                "pitch": 50,
                "velocity": 101,
                "duration": 0.2318182,
                "tempo": 120.0
            },
            {
                "start_time": 41.8545455,
                "end_time": 41.9545455,
                "pitch": 37,
                "velocity": 101,
                "duration": 0.1,
                "tempo": 120.0
            },
            {
                "start_time": 41.9704545,
                "end_time": 42.0727273,
                "pitch": 38,
                "velocity": 101,
                "duration": 0.1022727,
                "tempo": 120.0
            },
            {
                "start_time": 42.0886364,
                "end_time": 42.1909091,
                "pitch": 38,
                "velocity": 101,
                "duration": 0.1022727,
                "tempo": 120.0
            },
            {
                "start_time": 42.3409091,
                "end_time": 42.4409091,
                "pitch": 50,
                "velocity": 101,
                "duration": 0.1,
                "tempo": 120.0
            },
            {
                "start_time": 42.4590909,
                "end_time": 42.5613636,
                "pitch": 38,
                "velocity": 101,
                "duration": 0.1022727,
                "tempo": 120.0
            },
            {
                "start_time": 42.5795455,
                "end_time": 42.6818182,
                "pitch": 38,
                "velocity": 101,
                "duration": 0.1022727,
                "tempo": 120.0
            },
            {
                "start_time": 42.7,
                "end_time": 42.9204545,
                "pitch": 39,
                "velocity": 101,
                "duration": 0.2204545,
                "tempo": 120.0
            },
            {
                "start_time": 42.9590909,
                "end_time": 43.1772727,
                "pitch": 28,
                "velocity": 101,
                "duration": 0.2181818,
                "tempo": 120.0
            },
            {
                "start_time": 43.1954545,
                "end_time": 43.2954545,
                "pitch": 40,
                "velocity": 101,
                "duration": 0.1,
                "tempo": 120.0
            },
            {
                "start_time": 43.3136364,
                "end_time": 43.4159091,
                "pitch": 28,
                "velocity": 101,
                "duration": 0.1022727,
                "tempo": 120.0
            },
            {
                "start_time": 43.4522727,
                "end_time": 43.5522727,
                "pitch": 38,
                "velocity": 101,
                "duration": 0.1,
                "tempo": 120.0
            },
            {
                "start_time": 43.5681818,
                "end_time": 43.7863636,
                "pitch": 28,
                "velocity": 101,
                "duration": 0.2181818,
                "tempo": 120.0
            },
            {
                "start_time": 43.8045455,
                "end_time": 44.0204545,
                "pitch": 36,
                "velocity": 101,
                "duration": 0.2159091,
                "tempo": 120.0
            },
            {
                "start_time": 44.0545455,
                "end_time": 44.2659091,
                "pitch": 28,
                "velocity": 101,
                "duration": 0.2113636,
                "tempo": 120.0
            },
            {
                "start_time": 44.2840909,
                "end_time": 44.3818182,
                "pitch": 30,
                "velocity": 101,
                "duration": 0.0977273,
                "tempo": 120.0
            },
            {
                "start_time": 44.3977273,
                "end_time": 44.4977273,
                "pitch": 33,
                "velocity": 101,
                "duration": 0.1,
                "tempo": 120.0
            },
            {
                "start_time": 44.5159091,
                "end_time": 44.6136364,
                "pitch": 31,
                "velocity": 101,
                "duration": 0.0977273,
                "tempo": 120.0
            },
            {
                "start_time": 44.6477273,
                "end_time": 44.7477273,
                "pitch": 30,
                "velocity": 101,
                "duration": 0.1,
                "tempo": 120.0
            },
            {
                "start_time": 44.7659091,
                "end_time": 44.8659091,
                "pitch": 26,
                "velocity": 101,
                "duration": 0.1,
                "tempo": 120.0
            },
            {
                "start_time": 44.8840909,
                "end_time": 45.1,
                "pitch": 28,
                "velocity": 101,
                "duration": 0.2159091,
                "tempo": 120.0
            },
            {
                "start_time": 45.1181818,
                "end_time": 45.2181818,
                "pitch": 40,
                "velocity": 101,
                "duration": 0.1,
                "tempo": 120.0
            },
            {
                "start_time": 45.2522727,
                "end_time": 45.3522727,
                "pitch": 28,
                "velocity": 101,
                "duration": 0.1,
                "tempo": 120.0
            },
            {
                "start_time": 45.3704545,
                "end_time": 45.4727273,
                "pitch": 38,
                "velocity": 101,
                "duration": 0.1022727,
                "tempo": 120.0
            },
            {
                "start_time": 45.4909091,
                "end_time": 45.7113636,
                "pitch": 28,
                "velocity": 101,
                "duration": 0.2204545,
                "tempo": 120.0
            },
            {
                "start_time": 45.7454545,
                "end_time": 45.9659091,
                "pitch": 36,
                "velocity": 101,
                "duration": 0.2204545,
                "tempo": 120.0
            },
            {
                "start_time": 45.9840909,
                "end_time": 46.2022727,
                "pitch": 28,
                "velocity": 101,
                "duration": 0.2181818,
                "tempo": 120.0
            },
            {
                "start_time": 46.2204545,
                "end_time": 46.3204545,
                "pitch": 30,
                "velocity": 101,
                "duration": 0.1,
                "tempo": 120.0
            },
            {
                "start_time": 46.3545455,
                "end_time": 46.4522727,
                "pitch": 33,
                "velocity": 101,
                "duration": 0.0977273,
                "tempo": 120.0
            },
            {
                "start_time": 46.4704545,
                "end_time": 46.5704545,
                "pitch": 31,
                "velocity": 101,
                "duration": 0.1,
                "tempo": 120.0
            },
            {
                "start_time": 46.5863636,
                "end_time": 46.6863636,
                "pitch": 30,
                "velocity": 101,
                "duration": 0.1,
                "tempo": 120.0
            },
            {
                "start_time": 46.7045455,
                "end_time": 46.8045455,
                "pitch": 26,
                "velocity": 101,
                "duration": 0.1,
                "tempo": 120.0
            },
            {
                "start_time": 46.825,
                "end_time": 47.05,
                "pitch": 33,
                "velocity": 101,
                "duration": 0.225,
                "tempo": 120.0
            },
            {
                "start_time": 47.0681818,
                "end_time": 47.1659091,
                "pitch": 33,
                "velocity": 101,
                "duration": 0.0977273,
                "tempo": 120.0
            },
            {
                "start_time": 47.1818182,
                "end_time": 47.2795455,
                "pitch": 33,
                "velocity": 101,
                "duration": 0.0977273,
                "tempo": 120.0
            },
            {
                "start_time": 47.2977273,
                "end_time": 47.3977273,
                "pitch": 33,
                "velocity": 101,
                "duration": 0.1,
                "tempo": 120.0
            },
            {
                "start_time": 47.4159091,
                "end_time": 47.5181818,
                "pitch": 33,
                "velocity": 101,
                "duration": 0.1022727,
                "tempo": 120.0
            },
            {
                "start_time": 47.5522727,
                "end_time": 47.6545455,
                "pitch": 33,
                "velocity": 101,
                "duration": 0.1022727,
                "tempo": 120.0
            },
            {
                "start_time": 47.6727273,
                "end_time": 47.775,
                "pitch": 33,
                "velocity": 101,
                "duration": 0.1022727,
                "tempo": 120.0
            },
            {
                "start_time": 47.7931818,
                "end_time": 48.0113636,
                "pitch": 33,
                "velocity": 101,
                "duration": 0.2181818,
                "tempo": 120.0
            },
            {
                "start_time": 48.0454545,
                "end_time": 48.1454545,
                "pitch": 33,
                "velocity": 101,
                "duration": 0.1,
                "tempo": 120.0
            },
            {
                "start_time": 48.1636364,
                "end_time": 48.2636364,
                "pitch": 33,
                "velocity": 101,
                "duration": 0.1,
                "tempo": 120.0
            },
            {
                "start_time": 48.2818182,
                "end_time": 48.3795455,
                "pitch": 33,
                "velocity": 101,
                "duration": 0.0977273,
                "tempo": 120.0
            },
            {
                "start_time": 48.3977273,
                "end_time": 48.4977273,
                "pitch": 33,
                "velocity": 101,
                "duration": 0.1,
                "tempo": 120.0
            },
            {
                "start_time": 48.5159091,
                "end_time": 48.6136364,
                "pitch": 33,
                "velocity": 101,
                "duration": 0.0977273,
                "tempo": 120.0
            },
            {
                "start_time": 48.6477273,
                "end_time": 48.7477273,
                "pitch": 33,
                "velocity": 101,
                "duration": 0.1,
                "tempo": 120.0
            },
            {
                "start_time": 48.7659091,
                "end_time": 48.9863636,
                "pitch": 35,
                "velocity": 101,
                "duration": 0.2204545,
                "tempo": 120.0
            },
            {
                "start_time": 49.0045455,
                "end_time": 49.1045455,
                "pitch": 35,
                "velocity": 101,
                "duration": 0.1,
                "tempo": 120.0
            },
            {
                "start_time": 49.1227273,
                "end_time": 49.225,
                "pitch": 35,
                "velocity": 101,
                "duration": 0.1022727,
                "tempo": 120.0
            },
            {
                "start_time": 49.2613636,
                "end_time": 49.3590909,
                "pitch": 35,
                "velocity": 101,
                "duration": 0.0977273,
                "tempo": 120.0
            },
            {
                "start_time": 49.3772727,
                "end_time": 49.4772727,
                "pitch": 35,
                "velocity": 101,
                "duration": 0.1,
                "tempo": 120.0
            },
            {
                "start_time": 49.4931818,
                "end_time": 49.5931818,
                "pitch": 35,
                "velocity": 101,
                "duration": 0.1,
                "tempo": 120.0
            },
            {
                "start_time": 49.6113636,
                "end_time": 49.7090909,
                "pitch": 35,
                "velocity": 101,
                "duration": 0.0977273,
                "tempo": 120.0
            },
            {
                "start_time": 49.7272727,
                "end_time": 49.9568182,
                "pitch": 35,
                "velocity": 101,
                "duration": 0.2295455,
                "tempo": 120.0
            },
            {
                "start_time": 49.975,
                "end_time": 50.0727273,
                "pitch": 35,
                "velocity": 101,
                "duration": 0.0977273,
                "tempo": 120.0
            },
            {
                "start_time": 50.0886364,
                "end_time": 50.1863636,
                "pitch": 35,
                "velocity": 101,
                "duration": 0.0977273,
                "tempo": 120.0
            },
            {
                "start_time": 50.2045455,
                "end_time": 50.3045455,
                "pitch": 35,
                "velocity": 101,
                "duration": 0.1,
                "tempo": 120.0
            },
            {
                "start_time": 50.3386364,
                "end_time": 50.4386364,
                "pitch": 35,
                "velocity": 101,
                "duration": 0.1,
                "tempo": 120.0
            },
            {
                "start_time": 50.4568182,
                "end_time": 50.5568182,
                "pitch": 35,
                "velocity": 101,
                "duration": 0.1,
                "tempo": 120.0
            },
            {
                "start_time": 50.5727273,
                "end_time": 50.675,
                "pitch": 35,
                "velocity": 101,
                "duration": 0.1022727,
                "tempo": 120.0
            },
            {
                "start_time": 50.6931818,
                "end_time": 50.9136364,
                "pitch": 36,
                "velocity": 101,
                "duration": 0.2204545,
                "tempo": 120.0
            },
            {
                "start_time": 50.9477273,
                "end_time": 51.05,
                "pitch": 36,
                "velocity": 101,
                "duration": 0.1022727,
                "tempo": 120.0
            },
            {
                "start_time": 51.0681818,
                "end_time": 51.1704545,
                "pitch": 36,
                "velocity": 101,
                "duration": 0.1022727,
                "tempo": 120.0
            },
            {
                "start_time": 51.1863636,
                "end_time": 51.2863636,
                "pitch": 36,
                "velocity": 101,
                "duration": 0.1,
                "tempo": 120.0
            },
            {
                "start_time": 51.3045455,
                "end_time": 51.4045455,
                "pitch": 36,
                "velocity": 101,
                "duration": 0.1,
                "tempo": 120.0
            },
            {
                "start_time": 51.4204545,
                "end_time": 51.5204545,
                "pitch": 36,
                "velocity": 101,
                "duration": 0.1,
                "tempo": 120.0
            },
            {
                "start_time": 51.5545455,
                "end_time": 51.6545455,
                "pitch": 36,
                "velocity": 101,
                "duration": 0.1,
                "tempo": 120.0
            },
            {
                "start_time": 51.6704545,
                "end_time": 51.8886364,
                "pitch": 36,
                "velocity": 101,
                "duration": 0.2181818,
                "tempo": 120.0
            },
            {
                "start_time": 51.9045455,
                "end_time": 52.0045455,
                "pitch": 36,
                "velocity": 101,
                "duration": 0.1,
                "tempo": 120.0
            },
            {
                "start_time": 52.0386364,
                "end_time": 52.1386364,
                "pitch": 36,
                "velocity": 101,
                "duration": 0.1,
                "tempo": 120.0
            },
            {
                "start_time": 52.1545455,
                "end_time": 52.2568182,
                "pitch": 36,
                "velocity": 101,
                "duration": 0.1022727,
                "tempo": 120.0
            },
            {
                "start_time": 52.275,
                "end_time": 52.3772727,
                "pitch": 36,
                "velocity": 101,
                "duration": 0.1022727,
                "tempo": 120.0
            },
            {
                "start_time": 52.3954545,
                "end_time": 52.4954545,
                "pitch": 36,
                "velocity": 101,
                "duration": 0.1,
                "tempo": 120.0
            },
            {
                "start_time": 52.5136364,
                "end_time": 52.6159091,
                "pitch": 36,
                "velocity": 101,
                "duration": 0.1022727,
                "tempo": 120.0
            },
            {
                "start_time": 52.6522727,
                "end_time": 52.8727273,
                "pitch": 38,
                "velocity": 101,
                "duration": 0.2204545,
                "tempo": 120.0
            },
            {
                "start_time": 52.8909091,
                "end_time": 52.9931818,
                "pitch": 38,
                "velocity": 101,
                "duration": 0.1022727,
                "tempo": 120.0
            },
            {
                "start_time": 53.0113636,
                "end_time": 53.1113636,
                "pitch": 38,
                "velocity": 101,
                "duration": 0.1,
                "tempo": 120.0
            },
            {
                "start_time": 53.1295455,
                "end_time": 53.225,
                "pitch": 38,
                "velocity": 101,
                "duration": 0.0954545,
                "tempo": 120.0
            },
            {
                "start_time": 53.2568182,
                "end_time": 53.3545455,
                "pitch": 38,
                "velocity": 101,
                "duration": 0.0977273,
                "tempo": 120.0
            },
            {
                "start_time": 53.3704545,
                "end_time": 53.4659091,
                "pitch": 38,
                "velocity": 101,
                "duration": 0.0954545,
                "tempo": 120.0
            },
            {
                "start_time": 53.4818182,
                "end_time": 53.5795455,
                "pitch": 38,
                "velocity": 101,
                "duration": 0.0977273,
                "tempo": 120.0
            },
            {
                "start_time": 53.5954545,
                "end_time": 53.8113636,
                "pitch": 38,
                "velocity": 101,
                "duration": 0.2159091,
                "tempo": 120.0
            },
            {
                "start_time": 53.8454545,
                "end_time": 53.9454545,
                "pitch": 38,
                "velocity": 101,
                "duration": 0.1,
                "tempo": 120.0
            },
            {
                "start_time": 53.9613636,
                "end_time": 54.0613636,
                "pitch": 38,
                "velocity": 101,
                "duration": 0.1,
                "tempo": 120.0
            },
            {
                "start_time": 54.0795455,
                "end_time": 54.1818182,
                "pitch": 38,
                "velocity": 101,
                "duration": 0.1022727,
                "tempo": 120.0
            },
            {
                "start_time": 54.1977273,
                "end_time": 54.3,
                "pitch": 38,
                "velocity": 101,
                "duration": 0.1022727,
                "tempo": 120.0
            },
            {
                "start_time": 54.3363636,
                "end_time": 54.4386364,
                "pitch": 38,
                "velocity": 101,
                "duration": 0.1022727,
                "tempo": 120.0
            },
            {
                "start_time": 54.4545455,
                "end_time": 54.5568182,
                "pitch": 38,
                "velocity": 101,
                "duration": 0.1022727,
                "tempo": 120.0
            },
            {
                "start_time": 54.5772727,
                "end_time": 54.7954545,
                "pitch": 33,
                "velocity": 101,
                "duration": 0.2181818,
                "tempo": 120.0
            },
            {
                "start_time": 54.8136364,
                "end_time": 54.9159091,
                "pitch": 33,
                "velocity": 101,
                "duration": 0.1022727,
                "tempo": 120.0
            },
            {
                "start_time": 54.95,
                "end_time": 55.0522727,
                "pitch": 33,
                "velocity": 101,
                "duration": 0.1022727,
                "tempo": 120.0
            },
            {
                "start_time": 55.0704545,
                "end_time": 55.1704545,
                "pitch": 33,
                "velocity": 101,
                "duration": 0.1,
                "tempo": 120.0
            },
            {
                "start_time": 55.1863636,
                "end_time": 55.2863636,
                "pitch": 33,
                "velocity": 101,
                "duration": 0.1,
                "tempo": 120.0
            },
            {
                "start_time": 55.3045455,
                "end_time": 55.4045455,
                "pitch": 33,
                "velocity": 101,
                "duration": 0.1,
                "tempo": 120.0
            },
            {
                "start_time": 55.4204545,
                "end_time": 55.5204545,
                "pitch": 33,
                "velocity": 101,
                "duration": 0.1,
                "tempo": 120.0
            },
            {
                "start_time": 55.5545455,
                "end_time": 55.7727273,
                "pitch": 33,
                "velocity": 101,
                "duration": 0.2181818,
                "tempo": 120.0
            },
            {
                "start_time": 55.7909091,
                "end_time": 55.8909091,
                "pitch": 33,
                "velocity": 101,
                "duration": 0.1,
                "tempo": 120.0
            },
            {
                "start_time": 55.9068182,
                "end_time": 56.0090909,
                "pitch": 33,
                "velocity": 101,
                "duration": 0.1022727,
                "tempo": 120.0
            },
            {
                "start_time": 56.0272727,
                "end_time": 56.1227273,
                "pitch": 33,
                "velocity": 101,
                "duration": 0.0954545,
                "tempo": 120.0
            },
            {
                "start_time": 56.1568182,
                "end_time": 56.2568182,
                "pitch": 33,
                "velocity": 101,
                "duration": 0.1,
                "tempo": 120.0
            },
            {
                "start_time": 56.2727273,
                "end_time": 56.3704545,
                "pitch": 33,
                "velocity": 101,
                "duration": 0.0977273,
                "tempo": 120.0
            },
            {
                "start_time": 56.3863636,
                "end_time": 56.4840909,
                "pitch": 33,
                "velocity": 101,
                "duration": 0.0977273,
                "tempo": 120.0
            },
            {
                "start_time": 56.5022727,
                "end_time": 56.7363636,
                "pitch": 35,
                "velocity": 101,
                "duration": 0.2340909,
                "tempo": 120.0
            },
            {
                "start_time": 56.7522727,
                "end_time": 56.8522727,
                "pitch": 35,
                "velocity": 101,
                "duration": 0.1,
                "tempo": 120.0
            },
            {
                "start_time": 56.8681818,
                "end_time": 56.9681818,
                "pitch": 35,
                "velocity": 101,
                "duration": 0.1,
                "tempo": 120.0
            },
            {
                "start_time": 56.9863636,
                "end_time": 57.0886364,
                "pitch": 35,
                "velocity": 101,
                "duration": 0.1022727,
                "tempo": 120.0
            },
            {
                "start_time": 57.1045455,
                "end_time": 57.2068182,
                "pitch": 35,
                "velocity": 101,
                "duration": 0.1022727,
                "tempo": 120.0
            },
            {
                "start_time": 57.2409091,
                "end_time": 57.3431818,
                "pitch": 35,
                "velocity": 101,
                "duration": 0.1022727,
                "tempo": 120.0
            },
            {
                "start_time": 57.3613636,
                "end_time": 57.4636364,
                "pitch": 35,
                "velocity": 101,
                "duration": 0.1022727,
                "tempo": 120.0
            },
            {
                "start_time": 57.4818182,
                "end_time": 57.6977273,
                "pitch": 35,
                "velocity": 101,
                "duration": 0.2159091,
                "tempo": 120.0
            },
            {
                "start_time": 57.7159091,
                "end_time": 57.8136364,
                "pitch": 35,
                "velocity": 101,
                "duration": 0.0977273,
                "tempo": 120.0
            },
            {
                "start_time": 57.8477273,
                "end_time": 57.9477273,
                "pitch": 35,
                "velocity": 101,
                "duration": 0.1,
                "tempo": 120.0
            },
            {
                "start_time": 57.9659091,
                "end_time": 58.0659091,
                "pitch": 35,
                "velocity": 101,
                "duration": 0.1,
                "tempo": 120.0
            },
            {
                "start_time": 58.0840909,
                "end_time": 58.1840909,
                "pitch": 35,
                "velocity": 101,
                "duration": 0.1,
                "tempo": 120.0
            },
            {
                "start_time": 58.2022727,
                "end_time": 58.3022727,
                "pitch": 35,
                "velocity": 101,
                "duration": 0.1,
                "tempo": 120.0
            },
            {
                "start_time": 58.3181818,
                "end_time": 58.4204545,
                "pitch": 35,
                "velocity": 101,
                "duration": 0.1022727,
                "tempo": 120.0
            },
            {
                "start_time": 58.4568182,
                "end_time": 58.5545455,
                "pitch": 28,
                "velocity": 101,
                "duration": 0.0977273,
                "tempo": 120.0
            },
            {
                "start_time": 58.5727273,
                "end_time": 58.675,
                "pitch": 28,
                "velocity": 101,
                "duration": 0.1022727,
                "tempo": 120.0
            },
            {
                "start_time": 58.6931818,
                "end_time": 58.7954545,
                "pitch": 28,
                "velocity": 101,
                "duration": 0.1022727,
                "tempo": 120.0
            },
            {
                "start_time": 58.8113636,
                "end_time": 58.9136364,
                "pitch": 28,
                "velocity": 101,
                "duration": 0.1022727,
                "tempo": 120.0
            },
            {
                "start_time": 58.95,
                "end_time": 59.4022727,
                "pitch": 28,
                "velocity": 101,
                "duration": 0.4522727,
                "tempo": 120.0
            },
            {
                "start_time": 59.4204545,
                "end_time": 59.5181818,
                "pitch": 28,
                "velocity": 101,
                "duration": 0.0977273,
                "tempo": 120.0
            },
            {
                "start_time": 59.5522727,
                "end_time": 59.65,
                "pitch": 28,
                "velocity": 101,
                "duration": 0.0977273,
                "tempo": 120.0
            },
            {
                "start_time": 59.6659091,
                "end_time": 59.7636364,
                "pitch": 28,
                "velocity": 101,
                "duration": 0.0977273,
                "tempo": 120.0
            },
            {
                "start_time": 59.7818182,
                "end_time": 59.8795455,
                "pitch": 28,
                "velocity": 101,
                "duration": 0.0977273,
                "tempo": 120.0
            },
            {
                "start_time": 59.8954545,
                "end_time": 60.3636364,
                "pitch": 28,
                "velocity": 101,
                "duration": 0.4681818,
                "tempo": 120.0
            },
            {
                "start_time": 60.3818182,
                "end_time": 60.4818182,
                "pitch": 28,
                "velocity": 101,
                "duration": 0.1,
                "tempo": 120.0
            },
            {
                "start_time": 60.4977273,
                "end_time": 60.5977273,
                "pitch": 28,
                "velocity": 101,
                "duration": 0.1,
                "tempo": 120.0
            },
            {
                "start_time": 60.6340909,
                "end_time": 60.7340909,
                "pitch": 28,
                "velocity": 101,
                "duration": 0.1,
                "tempo": 120.0
            },
            {
                "start_time": 60.75,
                "end_time": 60.85,
                "pitch": 28,
                "velocity": 101,
                "duration": 0.1,
                "tempo": 120.0
            },
            {
                "start_time": 60.8681818,
                "end_time": 61.3454545,
                "pitch": 28,
                "velocity": 101,
                "duration": 0.4772727,
                "tempo": 120.0
            },
            {
                "start_time": 61.3636364,
                "end_time": 61.5795455,
                "pitch": 28,
                "velocity": 101,
                "duration": 0.2159091,
                "tempo": 120.0
            },
            {
                "start_time": 61.5977273,
                "end_time": 61.8136364,
                "pitch": 28,
                "velocity": 101,
                "duration": 0.2159091,
                "tempo": 120.0
            },
            {
                "start_time": 61.8477273,
                "end_time": 61.95,
                "pitch": 33,
                "velocity": 101,
                "duration": 0.1022727,
                "tempo": 120.0
            },
            {
                "start_time": 61.9681818,
                "end_time": 62.0704545,
                "pitch": 31,
                "velocity": 101,
                "duration": 0.1022727,
                "tempo": 120.0
            },
            {
                "start_time": 62.0886364,
                "end_time": 62.1886364,
                "pitch": 30,
                "velocity": 101,
                "duration": 0.1,
                "tempo": 120.0
            },
            {
                "start_time": 62.2068182,
                "end_time": 62.3090909,
                "pitch": 26,
                "velocity": 101,
                "duration": 0.1022727,
                "tempo": 120.0
            },
            {
                "start_time": 62.3295455,
                "end_time": 62.5568182,
                "pitch": 33,
                "velocity": 101,
                "duration": 0.2272727,
                "tempo": 120.0
            },
            {
                "start_time": 62.5727273,
                "end_time": 62.6704545,
                "pitch": 33,
                "velocity": 101,
                "duration": 0.0977273,
                "tempo": 120.0
            },
            {
                "start_time": 62.6886364,
                "end_time": 62.7863636,
                "pitch": 33,
                "velocity": 101,
                "duration": 0.0977273,
                "tempo": 120.0
            },
            {
                "start_time": 62.8022727,
                "end_time": 62.9022727,
                "pitch": 33,
                "velocity": 101,
                "duration": 0.1,
                "tempo": 120.0
            },
            {
                "start_time": 62.9363636,
                "end_time": 63.0363636,
                "pitch": 33,
                "velocity": 101,
                "duration": 0.1,
                "tempo": 120.0
            },
            {
                "start_time": 63.0522727,
                "end_time": 63.1522727,
                "pitch": 33,
                "velocity": 101,
                "duration": 0.1,
                "tempo": 120.0
            },
            {
                "start_time": 63.1704545,
                "end_time": 63.2704545,
                "pitch": 33,
                "velocity": 101,
                "duration": 0.1,
                "tempo": 120.0
            },
            {
                "start_time": 63.2863636,
                "end_time": 63.5045455,
                "pitch": 33,
                "velocity": 101,
                "duration": 0.2181818,
                "tempo": 120.0
            },
            {
                "start_time": 63.5409091,
                "end_time": 63.6386364,
                "pitch": 33,
                "velocity": 101,
                "duration": 0.0977273,
                "tempo": 120.0
            },
            {
                "start_time": 63.6568182,
                "end_time": 63.7568182,
                "pitch": 33,
                "velocity": 101,
                "duration": 0.1,
                "tempo": 120.0
            },
            {
                "start_time": 63.775,
                "end_time": 63.8772727,
                "pitch": 33,
                "velocity": 101,
                "duration": 0.1022727,
                "tempo": 120.0
            },
            {
                "start_time": 63.8931818,
                "end_time": 63.9977273,
                "pitch": 33,
                "velocity": 101,
                "duration": 0.1045455,
                "tempo": 120.0
            },
            {
                "start_time": 64.0159091,
                "end_time": 64.1159091,
                "pitch": 33,
                "velocity": 101,
                "duration": 0.1,
                "tempo": 120.0
            },
            {
                "start_time": 64.15,
                "end_time": 64.2522727,
                "pitch": 33,
                "velocity": 101,
                "duration": 0.1022727,
                "tempo": 120.0
            },
            {
                "start_time": 64.2704545,
                "end_time": 64.4863636,
                "pitch": 35,
                "velocity": 101,
                "duration": 0.2159091,
                "tempo": 120.0
            },
            {
                "start_time": 64.5045455,
                "end_time": 64.6045455,
                "pitch": 35,
                "velocity": 101,
                "duration": 0.1,
                "tempo": 120.0
            },
            {
                "start_time": 64.6204545,
                "end_time": 64.7204545,
                "pitch": 35,
                "velocity": 101,
                "duration": 0.1,
                "tempo": 120.0
            },
            {
                "start_time": 64.7545455,
                "end_time": 64.8568182,
                "pitch": 35,
                "velocity": 101,
                "duration": 0.1022727,
                "tempo": 120.0
            },
            {
                "start_time": 64.8727273,
                "end_time": 64.975,
                "pitch": 35,
                "velocity": 101,
                "duration": 0.1022727,
                "tempo": 120.0
            },
            {
                "start_time": 64.9931818,
                "end_time": 65.0954545,
                "pitch": 35,
                "velocity": 101,
                "duration": 0.1022727,
                "tempo": 120.0
            },
            {
                "start_time": 65.1136364,
                "end_time": 65.2159091,
                "pitch": 35,
                "velocity": 101,
                "duration": 0.1022727,
                "tempo": 120.0
            },
            {
                "start_time": 65.25,
                "end_time": 65.4681818,
                "pitch": 35,
                "velocity": 101,
                "duration": 0.2181818,
                "tempo": 120.0
            },
            {
                "start_time": 65.4863636,
                "end_time": 65.5863636,
                "pitch": 35,
                "velocity": 101,
                "duration": 0.1,
                "tempo": 120.0
            },
            {
                "start_time": 65.6022727,
                "end_time": 65.7045455,
                "pitch": 35,
                "velocity": 101,
                "duration": 0.1022727,
                "tempo": 120.0
            },
            {
                "start_time": 65.7204545,
                "end_time": 65.8181818,
                "pitch": 35,
                "velocity": 101,
                "duration": 0.0977273,
                "tempo": 120.0
            },
            {
                "start_time": 65.8522727,
                "end_time": 65.95,
                "pitch": 35,
                "velocity": 101,
                "duration": 0.0977273,
                "tempo": 120.0
            },
            {
                "start_time": 65.9681818,
                "end_time": 66.0659091,
                "pitch": 35,
                "velocity": 101,
                "duration": 0.0977273,
                "tempo": 120.0
            },
            {
                "start_time": 66.0818182,
                "end_time": 66.1818182,
                "pitch": 35,
                "velocity": 101,
                "duration": 0.1,
                "tempo": 120.0
            },
            {
                "start_time": 66.2,
                "end_time": 66.4159091,
                "pitch": 36,
                "velocity": 101,
                "duration": 0.2159091,
                "tempo": 120.0
            },
            {
                "start_time": 66.45,
                "end_time": 66.55,
                "pitch": 36,
                "velocity": 101,
                "duration": 0.1,
                "tempo": 120.0
            },
            {
                "start_time": 66.5681818,
                "end_time": 66.6681818,
                "pitch": 36,
                "velocity": 101,
                "duration": 0.1,
                "tempo": 120.0
            },
            {
                "start_time": 66.6840909,
                "end_time": 66.7863636,
                "pitch": 36,
                "velocity": 101,
                "duration": 0.1022727,
                "tempo": 120.0
            },
            {
                "start_time": 66.8022727,
                "end_time": 66.9022727,
                "pitch": 36,
                "velocity": 101,
                "duration": 0.1,
                "tempo": 120.0
            },
            {
                "start_time": 66.9204545,
                "end_time": 67.0204545,
                "pitch": 36,
                "velocity": 101,
                "duration": 0.1,
                "tempo": 120.0
            },
            {
                "start_time": 67.0545455,
                "end_time": 67.1545455,
                "pitch": 36,
                "velocity": 101,
                "duration": 0.1,
                "tempo": 120.0
            },
            {
                "start_time": 67.1727273,
                "end_time": 67.3954545,
                "pitch": 36,
                "velocity": 101,
                "duration": 0.2227273,
                "tempo": 120.0
            },
            {
                "start_time": 67.4136364,
                "end_time": 67.5136364,
                "pitch": 36,
                "velocity": 101,
                "duration": 0.1,
                "tempo": 120.0
            },
            {
                "start_time": 67.55,
                "end_time": 67.65,
                "pitch": 36,
                "velocity": 101,
                "duration": 0.1,
                "tempo": 120.0
            },
            {
                "start_time": 67.6681818,
                "end_time": 67.7681818,
                "pitch": 36,
                "velocity": 101,
                "duration": 0.1,
                "tempo": 120.0
            },
            {
                "start_time": 67.7863636,
                "end_time": 67.8863636,
                "pitch": 36,
                "velocity": 101,
                "duration": 0.1,
                "tempo": 120.0
            },
            {
                "start_time": 67.9045455,
                "end_time": 68.0045455,
                "pitch": 36,
                "velocity": 101,
                "duration": 0.1,
                "tempo": 120.0
            },
            {
                "start_time": 68.0227273,
                "end_time": 68.1227273,
                "pitch": 36,
                "velocity": 101,
                "duration": 0.1,
                "tempo": 120.0
            },
            {
                "start_time": 68.1568182,
                "end_time": 68.3772727,
                "pitch": 38,
                "velocity": 101,
                "duration": 0.2204545,
                "tempo": 120.0
            },
            {
                "start_time": 68.3954545,
                "end_time": 68.4977273,
                "pitch": 38,
                "velocity": 101,
                "duration": 0.1022727,
                "tempo": 120.0
            },
            {
                "start_time": 68.5159091,
                "end_time": 68.6181818,
                "pitch": 38,
                "velocity": 101,
                "duration": 0.1022727,
                "tempo": 120.0
            },
            {
                "start_time": 68.6363636,
                "end_time": 68.7318182,
                "pitch": 38,
                "velocity": 101,
                "duration": 0.0954545,
                "tempo": 120.0
            },
            {
                "start_time": 68.7636364,
                "end_time": 68.8590909,
                "pitch": 38,
                "velocity": 101,
                "duration": 0.0954545,
                "tempo": 120.0
            },
            {
                "start_time": 68.875,
                "end_time": 68.9704545,
                "pitch": 38,
                "velocity": 101,
                "duration": 0.0954545,
                "tempo": 120.0
            },
            {
                "start_time": 68.9886364,
                "end_time": 69.0840909,
                "pitch": 38,
                "velocity": 101,
                "duration": 0.0954545,
                "tempo": 120.0
            },
            {
                "start_time": 69.1,
                "end_time": 69.3386364,
                "pitch": 38,
                "velocity": 101,
                "duration": 0.2386364,
                "tempo": 120.0
            },
            {
                "start_time": 69.3568182,
                "end_time": 69.4590909,
                "pitch": 38,
                "velocity": 101,
                "duration": 0.1022727,
                "tempo": 120.0
            },
            {
                "start_time": 69.4772727,
                "end_time": 69.5772727,
                "pitch": 38,
                "velocity": 101,
                "duration": 0.1,
                "tempo": 120.0
            },
            {
                "start_time": 69.5954545,
                "end_time": 69.6954545,
                "pitch": 38,
                "velocity": 101,
                "duration": 0.1,
                "tempo": 120.0
            },
            {
                "start_time": 69.7136364,
                "end_time": 69.8136364,
                "pitch": 38,
                "velocity": 101,
                "duration": 0.1,
                "tempo": 120.0
            },
            {
                "start_time": 69.8477273,
                "end_time": 69.9477273,
                "pitch": 38,
                "velocity": 101,
                "duration": 0.1,
                "tempo": 120.0
            },
            {
                "start_time": 69.9659091,
                "end_time": 70.0681818,
                "pitch": 38,
                "velocity": 101,
                "duration": 0.1022727,
                "tempo": 120.0
            },
            {
                "start_time": 70.0863636,
                "end_time": 70.3045455,
                "pitch": 33,
                "velocity": 101,
                "duration": 0.2181818,
                "tempo": 120.0
            },
            {
                "start_time": 70.3227273,
                "end_time": 70.425,
                "pitch": 33,
                "velocity": 101,
                "duration": 0.1022727,
                "tempo": 120.0
            },
            {
                "start_time": 70.4590909,
                "end_time": 70.5613636,
                "pitch": 33,
                "velocity": 101,
                "duration": 0.1022727,
                "tempo": 120.0
            },
            {
                "start_time": 70.5795455,
                "end_time": 70.6795455,
                "pitch": 33,
                "velocity": 101,
                "duration": 0.1,
                "tempo": 120.0
            },
            {
                "start_time": 70.6977273,
                "end_time": 70.7977273,
                "pitch": 33,
                "velocity": 101,
                "duration": 0.1,
                "tempo": 120.0
            },
            {
                "start_time": 70.8159091,
                "end_time": 70.9159091,
                "pitch": 33,
                "velocity": 101,
                "duration": 0.1,
                "tempo": 120.0
            },
            {
                "start_time": 70.9318182,
                "end_time": 71.0340909,
                "pitch": 33,
                "velocity": 101,
                "duration": 0.1022727,
                "tempo": 120.0
            },
            {
                "start_time": 71.0681818,
                "end_time": 71.2840909,
                "pitch": 33,
                "velocity": 101,
                "duration": 0.2159091,
                "tempo": 120.0
            },
            {
                "start_time": 71.3022727,
                "end_time": 71.4,
                "pitch": 33,
                "velocity": 101,
                "duration": 0.0977273,
                "tempo": 120.0
            },
            {
                "start_time": 71.4181818,
                "end_time": 71.5181818,
                "pitch": 33,
                "velocity": 101,
                "duration": 0.1,
                "tempo": 120.0
            },
            {
                "start_time": 71.5522727,
                "end_time": 71.6522727,
                "pitch": 33,
                "velocity": 101,
                "duration": 0.1,
                "tempo": 120.0
            },
            {
                "start_time": 71.6704545,
                "end_time": 71.7727273,
                "pitch": 33,
                "velocity": 101,
                "duration": 0.1022727,
                "tempo": 120.0
            },
            {
                "start_time": 71.7909091,
                "end_time": 71.8931818,
                "pitch": 33,
                "velocity": 101,
                "duration": 0.1022727,
                "tempo": 120.0
            },
            {
                "start_time": 71.9090909,
                "end_time": 72.0113636,
                "pitch": 33,
                "velocity": 101,
                "duration": 0.1022727,
                "tempo": 120.0
            },
            {
                "start_time": 72.0295455,
                "end_time": 72.2545455,
                "pitch": 35,
                "velocity": 101,
                "duration": 0.225,
                "tempo": 120.0
            },
            {
                "start_time": 72.2704545,
                "end_time": 72.3659091,
                "pitch": 35,
                "velocity": 101,
                "duration": 0.0954545,
                "tempo": 120.0
            },
            {
                "start_time": 72.3818182,
                "end_time": 72.4795455,
                "pitch": 35,
                "velocity": 101,
                "duration": 0.0977273,
                "tempo": 120.0
            },
            {
                "start_time": 72.4954545,
                "end_time": 72.5977273,
                "pitch": 35,
                "velocity": 101,
                "duration": 0.1022727,
                "tempo": 120.0
            },
            {
                "start_time": 72.6136364,
                "end_time": 72.7159091,
                "pitch": 35,
                "velocity": 101,
                "duration": 0.1022727,
                "tempo": 120.0
            },
            {
                "start_time": 72.75,
                "end_time": 72.8522727,
                "pitch": 35,
                "velocity": 101,
                "duration": 0.1022727,
                "tempo": 120.0
            },
            {
                "start_time": 72.8704545,
                "end_time": 72.9727273,
                "pitch": 35,
                "velocity": 101,
                "duration": 0.1022727,
                "tempo": 120.0
            },
            {
                "start_time": 72.9909091,
                "end_time": 73.2068182,
                "pitch": 35,
                "velocity": 101,
                "duration": 0.2159091,
                "tempo": 120.0
            },
            {
                "start_time": 73.225,
                "end_time": 73.3227273,
                "pitch": 35,
                "velocity": 101,
                "duration": 0.0977273,
                "tempo": 120.0
            },
            {
                "start_time": 73.3568182,
                "end_time": 73.4568182,
                "pitch": 35,
                "velocity": 101,
                "duration": 0.1,
                "tempo": 120.0
            },
            {
                "start_time": 73.475,
                "end_time": 73.5772727,
                "pitch": 35,
                "velocity": 101,
                "duration": 0.1022727,
                "tempo": 120.0
            },
            {
                "start_time": 73.5931818,
                "end_time": 73.6954545,
                "pitch": 35,
                "velocity": 101,
                "duration": 0.1022727,
                "tempo": 120.0
            },
            {
                "start_time": 73.7136364,
                "end_time": 73.8159091,
                "pitch": 35,
                "velocity": 101,
                "duration": 0.1022727,
                "tempo": 120.0
            },
            {
                "start_time": 73.85,
                "end_time": 73.9522727,
                "pitch": 35,
                "velocity": 101,
                "duration": 0.1022727,
                "tempo": 120.0
            },
            {
                "start_time": 73.9727273,
                "end_time": 74.0704545,
                "pitch": 35,
                "velocity": 101,
                "duration": 0.0977273,
                "tempo": 120.0
            },
            {
                "start_time": 74.0863636,
                "end_time": 74.1863636,
                "pitch": 35,
                "velocity": 101,
                "duration": 0.1,
                "tempo": 120.0
            },
            {
                "start_time": 74.2045455,
                "end_time": 74.3022727,
                "pitch": 35,
                "velocity": 101,
                "duration": 0.0977273,
                "tempo": 120.0
            },
            {
                "start_time": 74.3204545,
                "end_time": 74.4204545,
                "pitch": 35,
                "velocity": 101,
                "duration": 0.1,
                "tempo": 120.0
            },
            {
                "start_time": 74.4545455,
                "end_time": 74.5545455,
                "pitch": 35,
                "velocity": 101,
                "duration": 0.1,
                "tempo": 120.0
            },
            {
                "start_time": 74.5727273,
                "end_time": 74.6727273,
                "pitch": 35,
                "velocity": 101,
                "duration": 0.1,
                "tempo": 120.0
            },
            {
                "start_time": 74.6909091,
                "end_time": 74.7909091,
                "pitch": 35,
                "velocity": 101,
                "duration": 0.1,
                "tempo": 120.0
            },
            {
                "start_time": 74.8090909,
                "end_time": 74.9090909,
                "pitch": 35,
                "velocity": 101,
                "duration": 0.1,
                "tempo": 120.0
            },
            {
                "start_time": 74.925,
                "end_time": 75.0227273,
                "pitch": 35,
                "velocity": 101,
                "duration": 0.0977273,
                "tempo": 120.0
            },
            {
                "start_time": 75.0568182,
                "end_time": 75.1545455,
                "pitch": 35,
                "velocity": 101,
                "duration": 0.0977273,
                "tempo": 120.0
            },
            {
                "start_time": 75.1727273,
                "end_time": 75.2704545,
                "pitch": 35,
                "velocity": 101,
                "duration": 0.0977273,
                "tempo": 120.0
            },
            {
                "start_time": 75.2863636,
                "end_time": 75.3840909,
                "pitch": 35,
                "velocity": 101,
                "duration": 0.0977273,
                "tempo": 120.0
            },
            {
                "start_time": 75.4022727,
                "end_time": 75.5022727,
                "pitch": 35,
                "velocity": 101,
                "duration": 0.1,
                "tempo": 120.0
            },
            {
                "start_time": 75.5204545,
                "end_time": 75.6227273,
                "pitch": 33,
                "velocity": 101,
                "duration": 0.1022727,
                "tempo": 120.0
            },
            {
                "start_time": 75.6568182,
                "end_time": 75.7590909,
                "pitch": 31,
                "velocity": 101,
                "duration": 0.1022727,
                "tempo": 120.0
            },
            {
                "start_time": 75.7772727,
                "end_time": 75.8795455,
                "pitch": 30,
                "velocity": 101,
                "duration": 0.1022727,
                "tempo": 120.0
            },
            {
                "start_time": 75.8977273,
                "end_time": 75.9977273,
                "pitch": 39,
                "velocity": 101,
                "duration": 0.1,
                "tempo": 120.0
            },
            {
                "start_time": 76.0159091,
                "end_time": 76.1159091,
                "pitch": 35,
                "velocity": 101,
                "duration": 0.1,
                "tempo": 120.0
            },
            {
                "start_time": 76.15,
                "end_time": 76.25,
                "pitch": 42,
                "velocity": 101,
                "duration": 0.1,
                "tempo": 120.0
            },
            {
                "start_time": 76.2681818,
                "end_time": 76.3681818,
                "pitch": 35,
                "velocity": 101,
                "duration": 0.1,
                "tempo": 120.0
            },
            {
                "start_time": 76.3863636,
                "end_time": 76.4863636,
                "pitch": 45,
                "velocity": 101,
                "duration": 0.1,
                "tempo": 120.0
            },
            {
                "start_time": 76.5045455,
                "end_time": 76.6068182,
                "pitch": 38,
                "velocity": 101,
                "duration": 0.1022727,
                "tempo": 120.0
            },
            {
                "start_time": 76.625,
                "end_time": 76.7272727,
                "pitch": 46,
                "velocity": 101,
                "duration": 0.1022727,
                "tempo": 120.0
            },
            {
                "start_time": 76.7613636,
                "end_time": 76.8636364,
                "pitch": 38,
                "velocity": 101,
                "duration": 0.1022727,
                "tempo": 120.0
            },
            {
                "start_time": 76.8818182,
                "end_time": 77.0977273,
                "pitch": 47,
                "velocity": 101,
                "duration": 0.2159091,
                "tempo": 120.0
            },
            {
                "start_time": 77.8659091,
                "end_time": 78.0772727,
                "pitch": 52,
                "velocity": 101,
                "duration": 0.2113636,
                "tempo": 120.0
            },
            {
                "start_time": 78.0931818,
                "end_time": 78.3113636,
                "pitch": 35,
                "velocity": 101,
                "duration": 0.2181818,
                "tempo": 120.0
            },
            {
                "start_time": 78.3272727,
                "end_time": 78.4272727,
                "pitch": 38,
                "velocity": 101,
                "duration": 0.1,
                "tempo": 120.0
            },
            {
                "start_time": 78.4613636,
                "end_time": 78.6795455,
                "pitch": 33,
                "velocity": 101,
                "duration": 0.2181818,
                "tempo": 120.0
            },
            {
                "start_time": 78.6977273,
                "end_time": 78.7977273,
                "pitch": 35,
                "velocity": 101,
                "duration": 0.1,
                "tempo": 120.0
            },
            {
                "start_time": 78.8159091,
                "end_time": 79.0363636,
                "pitch": 27,
                "velocity": 101,
                "duration": 0.2204545,
                "tempo": 120.0
            },
            {
                "start_time": 79.0704545,
                "end_time": 79.1727273,
                "pitch": 33,
                "velocity": 101,
                "duration": 0.1022727,
                "tempo": 120.0
            },
            {
                "start_time": 79.1909091,
                "end_time": 79.4068182,
                "pitch": 52,
                "velocity": 101,
                "duration": 0.2159091,
                "tempo": 120.0
            },
            {
                "start_time": 79.4227273,
                "end_time": 79.6318182,
                "pitch": 50,
                "velocity": 101,
                "duration": 0.2090909,
                "tempo": 120.0
            },
            {
                "start_time": 79.6636364,
                "end_time": 79.7590909,
                "pitch": 35,
                "velocity": 101,
                "duration": 0.0954545,
                "tempo": 120.0
            },
            {
                "start_time": 79.7795455,
                "end_time": 79.9977273,
                "pitch": 52,
                "velocity": 101,
                "duration": 0.2181818,
                "tempo": 120.0
            },
            {
                "start_time": 80.0159091,
                "end_time": 80.2522727,
                "pitch": 35,
                "velocity": 101,
                "duration": 0.2363636,
                "tempo": 120.0
            },
            {
                "start_time": 80.2704545,
                "end_time": 80.3681818,
                "pitch": 38,
                "velocity": 101,
                "duration": 0.0977273,
                "tempo": 120.0
            },
            {
                "start_time": 80.3863636,
                "end_time": 80.6,
                "pitch": 33,
                "velocity": 101,
                "duration": 0.2136364,
                "tempo": 120.0
            },
            {
                "start_time": 80.6159091,
                "end_time": 80.7136364,
                "pitch": 35,
                "velocity": 101,
                "duration": 0.0977273,
                "tempo": 120.0
            },
            {
                "start_time": 80.7477273,
                "end_time": 80.9704545,
                "pitch": 27,
                "velocity": 101,
                "duration": 0.2227273,
                "tempo": 120.0
            },
            {
                "start_time": 80.9863636,
                "end_time": 81.0886364,
                "pitch": 33,
                "velocity": 101,
                "duration": 0.1022727,
                "tempo": 120.0
            },
            {
                "start_time": 81.1068182,
                "end_time": 81.325,
                "pitch": 52,
                "velocity": 101,
                "duration": 0.2181818,
                "tempo": 120.0
            },
            {
                "start_time": 81.3590909,
                "end_time": 81.5704545,
                "pitch": 50,
                "velocity": 101,
                "duration": 0.2113636,
                "tempo": 120.0
            },
            {
                "start_time": 81.5886364,
                "end_time": 81.6863636,
                "pitch": 35,
                "velocity": 101,
                "duration": 0.0977273,
                "tempo": 120.0
            },
            {
                "start_time": 81.7022727,
                "end_time": 81.9181818,
                "pitch": 52,
                "velocity": 101,
                "duration": 0.2159091,
                "tempo": 120.0
            },
            {
                "start_time": 81.9545455,
                "end_time": 82.1681818,
                "pitch": 35,
                "velocity": 101,
                "duration": 0.2136364,
                "tempo": 120.0
            },
            {
                "start_time": 82.1863636,
                "end_time": 82.2886364,
                "pitch": 38,
                "velocity": 101,
                "duration": 0.1022727,
                "tempo": 120.0
            },
            {
                "start_time": 82.3068182,
                "end_time": 82.55,
                "pitch": 33,
                "velocity": 101,
                "duration": 0.2431818,
                "tempo": 120.0
            },
            {
                "start_time": 82.5681818,
                "end_time": 82.6727273,
                "pitch": 35,
                "velocity": 101,
                "duration": 0.1045455,
                "tempo": 120.0
            },
            {
                "start_time": 82.6886364,
                "end_time": 82.9022727,
                "pitch": 27,
                "velocity": 101,
                "duration": 0.2136364,
                "tempo": 120.0
            },
            {
                "start_time": 82.9204545,
                "end_time": 83.0181818,
                "pitch": 33,
                "velocity": 101,
                "duration": 0.0977273,
                "tempo": 120.0
            },
            {
                "start_time": 83.0522727,
                "end_time": 83.2636364,
                "pitch": 52,
                "velocity": 101,
                "duration": 0.2113636,
                "tempo": 120.0
            },
            {
                "start_time": 83.2795455,
                "end_time": 83.4954545,
                "pitch": 50,
                "velocity": 101,
                "duration": 0.2159091,
                "tempo": 120.0
            },
            {
                "start_time": 83.5113636,
                "end_time": 83.6090909,
                "pitch": 35,
                "velocity": 101,
                "duration": 0.0977273,
                "tempo": 120.0
            },
            {
                "start_time": 83.6431818,
                "end_time": 83.8681818,
                "pitch": 52,
                "velocity": 101,
                "duration": 0.225,
                "tempo": 120.0
            },
            {
                "start_time": 83.8863636,
                "end_time": 84.1113636,
                "pitch": 35,
                "velocity": 101,
                "duration": 0.225,
                "tempo": 120.0
            },
            {
                "start_time": 84.1295455,
                "end_time": 84.225,
                "pitch": 38,
                "velocity": 101,
                "duration": 0.0954545,
                "tempo": 120.0
            },
            {
                "start_time": 84.2568182,
                "end_time": 84.4659091,
                "pitch": 33,
                "velocity": 101,
                "duration": 0.2090909,
                "tempo": 120.0
            },
            {
                "start_time": 84.4818182,
                "end_time": 84.5772727,
                "pitch": 35,
                "velocity": 101,
                "duration": 0.0954545,
                "tempo": 120.0
            },
            {
                "start_time": 84.7295455,
                "end_time": 84.9522727,
                "pitch": 28,
                "velocity": 101,
                "duration": 0.2227273,
                "tempo": 120.0
            },
            {
                "start_time": 84.9704545,
                "end_time": 85.0727273,
                "pitch": 30,
                "velocity": 101,
                "duration": 0.1022727,
                "tempo": 120.0
            },
            {
                "start_time": 85.0909091,
                "end_time": 85.1909091,
                "pitch": 33,
                "velocity": 101,
                "duration": 0.1,
                "tempo": 120.0
            },
            {
                "start_time": 85.2090909,
                "end_time": 85.3113636,
                "pitch": 31,
                "velocity": 101,
                "duration": 0.1022727,
                "tempo": 120.0
            },
            {
                "start_time": 85.3454545,
                "end_time": 85.4477273,
                "pitch": 30,
                "velocity": 101,
                "duration": 0.1022727,
                "tempo": 120.0
            },
            {
                "start_time": 85.4659091,
                "end_time": 85.5681818,
                "pitch": 26,
                "velocity": 101,
                "duration": 0.1022727,
                "tempo": 120.0
            },
            {
                "start_time": 85.5909091,
                "end_time": 85.8045455,
                "pitch": 33,
                "velocity": 101,
                "duration": 0.2136364,
                "tempo": 120.0
            },
            {
                "start_time": 85.8204545,
                "end_time": 85.9204545,
                "pitch": 33,
                "velocity": 101,
                "duration": 0.1,
                "tempo": 120.0
            },
            {
                "start_time": 85.9545455,
                "end_time": 86.0568182,
                "pitch": 33,
                "velocity": 101,
                "duration": 0.1022727,
                "tempo": 120.0
            },
            {
                "start_time": 86.0727273,
                "end_time": 86.1727273,
                "pitch": 33,
                "velocity": 101,
                "duration": 0.1,
                "tempo": 120.0
            },
            {
                "start_time": 86.1909091,
                "end_time": 86.2886364,
                "pitch": 33,
                "velocity": 101,
                "duration": 0.0977273,
                "tempo": 120.0
            },
            {
                "start_time": 86.3068182,
                "end_time": 86.4068182,
                "pitch": 33,
                "velocity": 101,
                "duration": 0.1,
                "tempo": 120.0
            },
            {
                "start_time": 86.4409091,
                "end_time": 86.5409091,
                "pitch": 33,
                "velocity": 101,
                "duration": 0.1,
                "tempo": 120.0
            },
            {
                "start_time": 86.5568182,
                "end_time": 86.775,
                "pitch": 33,
                "velocity": 101,
                "duration": 0.2181818,
                "tempo": 120.0
            },
            {
                "start_time": 86.7931818,
                "end_time": 86.8931818,
                "pitch": 33,
                "velocity": 101,
                "duration": 0.1,
                "tempo": 120.0
            },
            {
                "start_time": 86.9113636,
                "end_time": 87.0113636,
                "pitch": 33,
                "velocity": 101,
                "duration": 0.1,
                "tempo": 120.0
            },
            {
                "start_time": 87.0454545,
                "end_time": 87.1477273,
                "pitch": 33,
                "velocity": 101,
                "duration": 0.1022727,
                "tempo": 120.0
            },
            {
                "start_time": 87.1636364,
                "end_time": 87.2681818,
                "pitch": 33,
                "velocity": 101,
                "duration": 0.1045455,
                "tempo": 120.0
            },
            {
                "start_time": 87.2863636,
                "end_time": 87.3863636,
                "pitch": 33,
                "velocity": 101,
                "duration": 0.1,
                "tempo": 120.0
            },
            {
                "start_time": 87.4045455,
                "end_time": 87.5068182,
                "pitch": 33,
                "velocity": 101,
                "duration": 0.1022727,
                "tempo": 120.0
            },
            {
                "start_time": 87.525,
                "end_time": 87.7545455,
                "pitch": 35,
                "velocity": 101,
                "duration": 0.2295455,
                "tempo": 120.0
            },
            {
                "start_time": 87.7704545,
                "end_time": 87.8681818,
                "pitch": 35,
                "velocity": 101,
                "duration": 0.0977273,
                "tempo": 120.0
            },
            {
                "start_time": 87.8840909,
                "end_time": 87.9840909,
                "pitch": 35,
                "velocity": 101,
                "duration": 0.1,
                "tempo": 120.0
            },
            {
                "start_time": 88.0,
                "end_time": 88.1,
                "pitch": 35,
                "velocity": 101,
                "duration": 0.1,
                "tempo": 120.0
            },
            {
                "start_time": 88.1181818,
                "end_time": 88.2181818,
                "pitch": 35,
                "velocity": 101,
                "duration": 0.1,
                "tempo": 120.0
            },
            {
                "start_time": 88.2522727,
                "end_time": 88.3522727,
                "pitch": 35,
                "velocity": 101,
                "duration": 0.1,
                "tempo": 120.0
            },
            {
                "start_time": 88.3704545,
                "end_time": 88.4704545,
                "pitch": 35,
                "velocity": 101,
                "duration": 0.1,
                "tempo": 120.0
            },
            {
                "start_time": 88.4886364,
                "end_time": 88.7068182,
                "pitch": 35,
                "velocity": 101,
                "duration": 0.2181818,
                "tempo": 120.0
            },
            {
                "start_time": 88.7409091,
                "end_time": 88.8409091,
                "pitch": 35,
                "velocity": 101,
                "duration": 0.1,
                "tempo": 120.0
            },
            {
                "start_time": 88.8568182,
                "end_time": 88.9590909,
                "pitch": 35,
                "velocity": 101,
                "duration": 0.1022727,
                "tempo": 120.0
            },
            {
                "start_time": 88.975,
                "end_time": 89.0772727,
                "pitch": 35,
                "velocity": 101,
                "duration": 0.1022727,
                "tempo": 120.0
            },
            {
                "start_time": 89.0954545,
                "end_time": 89.1977273,
                "pitch": 35,
                "velocity": 101,
                "duration": 0.1022727,
                "tempo": 120.0
            },
            {
                "start_time": 89.2159091,
                "end_time": 89.3159091,
                "pitch": 35,
                "velocity": 101,
                "duration": 0.1,
                "tempo": 120.0
            },
            {
                "start_time": 89.3522727,
                "end_time": 89.4545455,
                "pitch": 35,
                "velocity": 101,
                "duration": 0.1022727,
                "tempo": 120.0
            },
            {
                "start_time": 89.4727273,
                "end_time": 89.6886364,
                "pitch": 36,
                "velocity": 101,
                "duration": 0.2159091,
                "tempo": 120.0
            },
            {
                "start_time": 89.7068182,
                "end_time": 89.8068182,
                "pitch": 36,
                "velocity": 101,
                "duration": 0.1,
                "tempo": 120.0
            },
            {
                "start_time": 89.825,
                "end_time": 89.925,
                "pitch": 36,
                "velocity": 101,
                "duration": 0.1,
                "tempo": 120.0
            },
            {
                "start_time": 89.9590909,
                "end_time": 90.0613636,
                "pitch": 36,
                "velocity": 101,
                "duration": 0.1022727,
                "tempo": 120.0
            },
            {
                "start_time": 90.0795455,
                "end_time": 90.1818182,
                "pitch": 36,
                "velocity": 101,
                "duration": 0.1022727,
                "tempo": 120.0
            },
            {
                "start_time": 90.1977273,
                "end_time": 90.3,
                "pitch": 36,
                "velocity": 101,
                "duration": 0.1022727,
                "tempo": 120.0
            },
            {
                "start_time": 90.3181818,
                "end_time": 90.4204545,
                "pitch": 36,
                "velocity": 101,
                "duration": 0.1022727,
                "tempo": 120.0
            },
            {
                "start_time": 90.4386364,
                "end_time": 90.6613636,
                "pitch": 36,
                "velocity": 101,
                "duration": 0.2227273,
                "tempo": 120.0
            },
            {
                "start_time": 90.6795455,
                "end_time": 90.775,
                "pitch": 36,
                "velocity": 101,
                "duration": 0.0954545,
                "tempo": 120.0
            },
            {
                "start_time": 90.7909091,
                "end_time": 90.8863636,
                "pitch": 36,
                "velocity": 101,
                "duration": 0.0954545,
                "tempo": 120.0
            },
            {
                "start_time": 90.9022727,
                "end_time": 91.0045455,
                "pitch": 36,
                "velocity": 101,
                "duration": 0.1022727,
                "tempo": 120.0
            },
            {
                "start_time": 91.0386364,
                "end_time": 91.1409091,
                "pitch": 36,
                "velocity": 101,
                "duration": 0.1022727,
                "tempo": 120.0
            },
            {
                "start_time": 91.1590909,
                "end_time": 91.2613636,
                "pitch": 36,
                "velocity": 101,
                "duration": 0.1022727,
                "tempo": 120.0
            },
            {
                "start_time": 91.2795455,
                "end_time": 91.3818182,
                "pitch": 36,
                "velocity": 101,
                "duration": 0.1022727,
                "tempo": 120.0
            },
            {
                "start_time": 91.4,
                "end_time": 91.6204545,
                "pitch": 38,
                "velocity": 101,
                "duration": 0.2204545,
                "tempo": 120.0
            },
            {
                "start_time": 91.6545455,
                "end_time": 91.7568182,
                "pitch": 38,
                "velocity": 101,
                "duration": 0.1022727,
                "tempo": 120.0
            },
            {
                "start_time": 91.775,
                "end_time": 91.8772727,
                "pitch": 38,
                "velocity": 101,
                "duration": 0.1022727,
                "tempo": 120.0
            },
            {
                "start_time": 91.8954545,
                "end_time": 91.9954545,
                "pitch": 38,
                "velocity": 101,
                "duration": 0.1,
                "tempo": 120.0
            },
            {
                "start_time": 92.0113636,
                "end_time": 92.1136364,
                "pitch": 38,
                "velocity": 101,
                "duration": 0.1022727,
                "tempo": 120.0
            },
            {
                "start_time": 92.1295455,
                "end_time": 92.2295455,
                "pitch": 38,
                "velocity": 101,
                "duration": 0.1,
                "tempo": 120.0
            },
            {
                "start_time": 92.2636364,
                "end_time": 92.3659091,
                "pitch": 38,
                "velocity": 101,
                "duration": 0.1022727,
                "tempo": 120.0
            },
            {
                "start_time": 92.3818182,
                "end_time": 92.6,
                "pitch": 38,
                "velocity": 101,
                "duration": 0.2181818,
                "tempo": 120.0
            },
            {
                "start_time": 92.6181818,
                "end_time": 92.7181818,
                "pitch": 38,
                "velocity": 101,
                "duration": 0.1,
                "tempo": 120.0
            },
            {
                "start_time": 92.7363636,
                "end_time": 92.8363636,
                "pitch": 38,
                "velocity": 101,
                "duration": 0.1,
                "tempo": 120.0
            },
            {
                "start_time": 92.8704545,
                "end_time": 92.9704545,
                "pitch": 38,
                "velocity": 101,
                "duration": 0.1,
                "tempo": 120.0
            },
            {
                "start_time": 92.9886364,
                "end_time": 93.0886364,
                "pitch": 38,
                "velocity": 101,
                "duration": 0.1,
                "tempo": 120.0
            },
            {
                "start_time": 93.1068182,
                "end_time": 93.2068182,
                "pitch": 38,
                "velocity": 101,
                "duration": 0.1,
                "tempo": 120.0
            },
            {
                "start_time": 93.225,
                "end_time": 93.325,
                "pitch": 38,
                "velocity": 101,
                "duration": 0.1,
                "tempo": 120.0
            },
            {
                "start_time": 93.3590909,
                "end_time": 93.5795455,
                "pitch": 33,
                "velocity": 101,
                "duration": 0.2204545,
                "tempo": 120.0
            },
            {
                "start_time": 93.5977273,
                "end_time": 93.7,
                "pitch": 33,
                "velocity": 101,
                "duration": 0.1022727,
                "tempo": 120.0
            },
            {
                "start_time": 93.7159091,
                "end_time": 93.8181818,
                "pitch": 33,
                "velocity": 101,
                "duration": 0.1022727,
                "tempo": 120.0
            },
            {
                "start_time": 93.8363636,
                "end_time": 93.9340909,
                "pitch": 33,
                "velocity": 101,
                "duration": 0.0977273,
                "tempo": 120.0
            },
            {
                "start_time": 93.9681818,
                "end_time": 94.0659091,
                "pitch": 33,
                "velocity": 101,
                "duration": 0.0977273,
                "tempo": 120.0
            },
            {
                "start_time": 94.0840909,
                "end_time": 94.1818182,
                "pitch": 33,
                "velocity": 101,
                "duration": 0.0977273,
                "tempo": 120.0
            },
            {
                "start_time": 94.1977273,
                "end_time": 94.2954545,
                "pitch": 33,
                "velocity": 101,
                "duration": 0.0977273,
                "tempo": 120.0
            },
            {
                "start_time": 94.3136364,
                "end_time": 94.5318182,
                "pitch": 33,
                "velocity": 101,
                "duration": 0.2181818,
                "tempo": 120.0
            },
            {
                "start_time": 94.5659091,
                "end_time": 94.6659091,
                "pitch": 33,
                "velocity": 101,
                "duration": 0.1,
                "tempo": 120.0
            },
            {
                "start_time": 94.6840909,
                "end_time": 94.7840909,
                "pitch": 33,
                "velocity": 101,
                "duration": 0.1,
                "tempo": 120.0
            },
            {
                "start_time": 94.8022727,
                "end_time": 94.9,
                "pitch": 33,
                "velocity": 101,
                "duration": 0.0977273,
                "tempo": 120.0
            },
            {
                "start_time": 94.9181818,
                "end_time": 95.0181818,
                "pitch": 33,
                "velocity": 101,
                "duration": 0.1,
                "tempo": 120.0
            },
            {
                "start_time": 95.0522727,
                "end_time": 95.15,
                "pitch": 33,
                "velocity": 101,
                "duration": 0.0977273,
                "tempo": 120.0
            },
            {
                "start_time": 95.1681818,
                "end_time": 95.2681818,
                "pitch": 33,
                "velocity": 101,
                "duration": 0.1,
                "tempo": 120.0
            },
            {
                "start_time": 95.2840909,
                "end_time": 95.5068182,
                "pitch": 35,
                "velocity": 101,
                "duration": 0.2227273,
                "tempo": 120.0
            },
            {
                "start_time": 95.525,
                "end_time": 95.625,
                "pitch": 35,
                "velocity": 101,
                "duration": 0.1,
                "tempo": 120.0
            },
            {
                "start_time": 95.6613636,
                "end_time": 95.7636364,
                "pitch": 35,
                "velocity": 101,
                "duration": 0.1022727,
                "tempo": 120.0
            },
            {
                "start_time": 95.7818182,
                "end_time": 95.8818182,
                "pitch": 35,
                "velocity": 101,
                "duration": 0.1,
                "tempo": 120.0
            },
            {
                "start_time": 95.8977273,
                "end_time": 95.9977273,
                "pitch": 35,
                "velocity": 101,
                "duration": 0.1,
                "tempo": 120.0
            },
            {
                "start_time": 96.0159091,
                "end_time": 96.1159091,
                "pitch": 35,
                "velocity": 101,
                "duration": 0.1,
                "tempo": 120.0
            },
            {
                "start_time": 96.1340909,
                "end_time": 96.2340909,
                "pitch": 35,
                "velocity": 101,
                "duration": 0.1,
                "tempo": 120.0
            },
            {
                "start_time": 96.2681818,
                "end_time": 96.4863636,
                "pitch": 35,
                "velocity": 101,
                "duration": 0.2181818,
                "tempo": 120.0
            },
            {
                "start_time": 96.5022727,
                "end_time": 96.6022727,
                "pitch": 35,
                "velocity": 101,
                "duration": 0.1,
                "tempo": 120.0
            },
            {
                "start_time": 96.6181818,
                "end_time": 96.7181818,
                "pitch": 35,
                "velocity": 101,
                "duration": 0.1,
                "tempo": 120.0
            },
            {
                "start_time": 96.7363636,
                "end_time": 96.8340909,
                "pitch": 35,
                "velocity": 101,
                "duration": 0.0977273,
                "tempo": 120.0
            },
            {
                "start_time": 96.8659091,
                "end_time": 96.9659091,
                "pitch": 35,
                "velocity": 101,
                "duration": 0.1,
                "tempo": 120.0
            },
            {
                "start_time": 96.9840909,
                "end_time": 97.0795455,
                "pitch": 35,
                "velocity": 101,
                "duration": 0.0954545,
                "tempo": 120.0
            },
            {
                "start_time": 97.0977273,
                "end_time": 97.1954545,
                "pitch": 35,
                "velocity": 101,
                "duration": 0.0977273,
                "tempo": 120.0
            },
            {
                "start_time": 97.2136364,
                "end_time": 97.3136364,
                "pitch": 28,
                "velocity": 101,
                "duration": 0.1,
                "tempo": 120.0
            },
            {
                "start_time": 97.3477273,
                "end_time": 97.45,
                "pitch": 28,
                "velocity": 101,
                "duration": 0.1022727,
                "tempo": 120.0
            },
            {
                "start_time": 97.4681818,
                "end_time": 97.5704545,
                "pitch": 28,
                "velocity": 101,
                "duration": 0.1022727,
                "tempo": 120.0
            },
            {
                "start_time": 97.5886364,
                "end_time": 97.6886364,
                "pitch": 28,
                "velocity": 101,
                "duration": 0.1,
                "tempo": 120.0
            },
            {
                "start_time": 97.7068182,
                "end_time": 98.175,
                "pitch": 28,
                "velocity": 101,
                "duration": 0.4681818,
                "tempo": 120.0
            },
            {
                "start_time": 98.1909091,
                "end_time": 98.2909091,
                "pitch": 28,
                "velocity": 101,
                "duration": 0.1,
                "tempo": 120.0
            },
            {
                "start_time": 98.3090909,
                "end_time": 98.4090909,
                "pitch": 28,
                "velocity": 101,
                "duration": 0.1,
                "tempo": 120.0
            },
            {
                "start_time": 98.4272727,
                "end_time": 98.5272727,
                "pitch": 28,
                "velocity": 101,
                "duration": 0.1,
                "tempo": 120.0
            },
            {
                "start_time": 98.5613636,
                "end_time": 98.6613636,
                "pitch": 28,
                "velocity": 101,
                "duration": 0.1,
                "tempo": 120.0
            },
            {
                "start_time": 98.6795455,
                "end_time": 99.1409091,
                "pitch": 28,
                "velocity": 101,
                "duration": 0.4613636,
                "tempo": 120.0
            },
            {
                "start_time": 99.175,
                "end_time": 99.275,
                "pitch": 28,
                "velocity": 101,
                "duration": 0.1,
                "tempo": 120.0
            },
            {
                "start_time": 99.2909091,
                "end_time": 99.3909091,
                "pitch": 28,
                "velocity": 101,
                "duration": 0.1,
                "tempo": 120.0
            },
            {
                "start_time": 99.4090909,
                "end_time": 99.5090909,
                "pitch": 28,
                "velocity": 101,
                "duration": 0.1,
                "tempo": 120.0
            },
            {
                "start_time": 99.525,
                "end_time": 99.625,
                "pitch": 28,
                "velocity": 101,
                "duration": 0.1,
                "tempo": 120.0
            },
            {
                "start_time": 99.6590909,
                "end_time": 100.1204545,
                "pitch": 28,
                "velocity": 101,
                "duration": 0.4613636,
                "tempo": 120.0
            },
            {
                "start_time": 100.1386364,
                "end_time": 100.3613636,
                "pitch": 28,
                "velocity": 101,
                "duration": 0.2227273,
                "tempo": 120.0
            },
            {
                "start_time": 100.3772727,
                "end_time": 100.5863636,
                "pitch": 28,
                "velocity": 101,
                "duration": 0.2090909,
                "tempo": 120.0
            },
            {
                "start_time": 100.6022727,
                "end_time": 100.7045455,
                "pitch": 33,
                "velocity": 101,
                "duration": 0.1022727,
                "tempo": 120.0
            },
            {
                "start_time": 100.7227273,
                "end_time": 100.825,
                "pitch": 31,
                "velocity": 101,
                "duration": 0.1022727,
                "tempo": 120.0
            },
            {
                "start_time": 100.8590909,
                "end_time": 100.9613636,
                "pitch": 30,
                "velocity": 101,
                "duration": 0.1022727,
                "tempo": 120.0
            },
            {
                "start_time": 100.9795455,
                "end_time": 101.0818182,
                "pitch": 26,
                "velocity": 101,
                "duration": 0.1022727,
                "tempo": 120.0
            },
            {
                "start_time": 101.1022727,
                "end_time": 101.3204545,
                "pitch": 33,
                "velocity": 101,
                "duration": 0.2181818,
                "tempo": 120.0
            },
            {
                "start_time": 101.3386364,
                "end_time": 101.4386364,
                "pitch": 33,
                "velocity": 101,
                "duration": 0.1,
                "tempo": 120.0
            },
            {
                "start_time": 101.475,
                "end_time": 101.5772727,
                "pitch": 33,
                "velocity": 101,
                "duration": 0.1022727,
                "tempo": 120.0
            },
            {
                "start_time": 101.5931818,
                "end_time": 101.6931818,
                "pitch": 33,
                "velocity": 101,
                "duration": 0.1,
                "tempo": 120.0
            },
            {
                "start_time": 101.7113636,
                "end_time": 101.8113636,
                "pitch": 33,
                "velocity": 101,
                "duration": 0.1,
                "tempo": 120.0
            },
            {
                "start_time": 101.8272727,
                "end_time": 101.9272727,
                "pitch": 33,
                "velocity": 101,
                "duration": 0.1,
                "tempo": 120.0
            },
            {
                "start_time": 101.9613636,
                "end_time": 102.0613636,
                "pitch": 33,
                "velocity": 101,
                "duration": 0.1,
                "tempo": 120.0
            },
            {
                "start_time": 102.0772727,
                "end_time": 102.2977273,
                "pitch": 33,
                "velocity": 101,
                "duration": 0.2204545,
                "tempo": 120.0
            },
            {
                "start_time": 102.3136364,
                "end_time": 102.4136364,
                "pitch": 33,
                "velocity": 101,
                "duration": 0.1,
                "tempo": 120.0
            },
            {
                "start_time": 102.4318182,
                "end_time": 102.5318182,
                "pitch": 33,
                "velocity": 101,
                "duration": 0.1,
                "tempo": 120.0
            },
            {
                "start_time": 102.5659091,
                "end_time": 102.6659091,
                "pitch": 33,
                "velocity": 101,
                "duration": 0.1,
                "tempo": 120.0
            },
            {
                "start_time": 102.6840909,
                "end_time": 102.7840909,
                "pitch": 33,
                "velocity": 101,
                "duration": 0.1,
                "tempo": 120.0
            },
            {
                "start_time": 102.8022727,
                "end_time": 102.9022727,
                "pitch": 33,
                "velocity": 101,
                "duration": 0.1,
                "tempo": 120.0
            },
            {
                "start_time": 102.9181818,
                "end_time": 103.0204545,
                "pitch": 33,
                "velocity": 101,
                "duration": 0.1022727,
                "tempo": 120.0
            },
            {
                "start_time": 103.0386364,
                "end_time": 103.2659091,
                "pitch": 35,
                "velocity": 101,
                "duration": 0.2272727,
                "tempo": 120.0
            },
            {
                "start_time": 103.2840909,
                "end_time": 103.3818182,
                "pitch": 35,
                "velocity": 101,
                "duration": 0.0977273,
                "tempo": 120.0
            },
            {
                "start_time": 103.3977273,
                "end_time": 103.4954545,
                "pitch": 35,
                "velocity": 101,
                "duration": 0.0977273,
                "tempo": 120.0
            },
            {
                "start_time": 103.5136364,
                "end_time": 103.6159091,
                "pitch": 35,
                "velocity": 101,
                "duration": 0.1022727,
                "tempo": 120.0
            },
            {
                "start_time": 103.65,
                "end_time": 103.7522727,
                "pitch": 35,
                "velocity": 101,
                "duration": 0.1022727,
                "tempo": 120.0
            },
            {
                "start_time": 103.7681818,
                "end_time": 103.8704545,
                "pitch": 35,
                "velocity": 101,
                "duration": 0.1022727,
                "tempo": 120.0
            },
            {
                "start_time": 103.8886364,
                "end_time": 103.9909091,
                "pitch": 35,
                "velocity": 101,
                "duration": 0.1022727,
                "tempo": 120.0
            },
            {
                "start_time": 104.0090909,
                "end_time": 104.2272727,
                "pitch": 35,
                "velocity": 101,
                "duration": 0.2181818,
                "tempo": 120.0
            },
            {
                "start_time": 104.2613636,
                "end_time": 104.3613636,
                "pitch": 35,
                "velocity": 101,
                "duration": 0.1,
                "tempo": 120.0
            },
            {
                "start_time": 104.3795455,
                "end_time": 104.4795455,
                "pitch": 35,
                "velocity": 101,
                "duration": 0.1,
                "tempo": 120.0
            },
            {
                "start_time": 104.4977273,
                "end_time": 104.5977273,
                "pitch": 35,
                "velocity": 101,
                "duration": 0.1,
                "tempo": 120.0
            },
            {
                "start_time": 104.6136364,
                "end_time": 104.7159091,
                "pitch": 35,
                "velocity": 101,
                "duration": 0.1022727,
                "tempo": 120.0
            },
            {
                "start_time": 104.7318182,
                "end_time": 104.8318182,
                "pitch": 35,
                "velocity": 101,
                "duration": 0.1,
                "tempo": 120.0
            },
            {
                "start_time": 104.8659091,
                "end_time": 104.9681818,
                "pitch": 35,
                "velocity": 101,
                "duration": 0.1022727,
                "tempo": 120.0
            },
            {
                "start_time": 104.9863636,
                "end_time": 105.2068182,
                "pitch": 36,
                "velocity": 101,
                "duration": 0.2204545,
                "tempo": 120.0
            },
            {
                "start_time": 105.225,
                "end_time": 105.325,
                "pitch": 36,
                "velocity": 101,
                "duration": 0.1,
                "tempo": 120.0
            },
            {
                "start_time": 105.3431818,
                "end_time": 105.4454545,
                "pitch": 36,
                "velocity": 101,
                "duration": 0.1022727,
                "tempo": 120.0
            },
            {
                "start_time": 105.4795455,
                "end_time": 105.5795455,
                "pitch": 36,
                "velocity": 101,
                "duration": 0.1,
                "tempo": 120.0
            },
            {
                "start_time": 105.5977273,
                "end_time": 105.6977273,
                "pitch": 36,
                "velocity": 101,
                "duration": 0.1,
                "tempo": 120.0
            },
            {
                "start_time": 105.7159091,
                "end_time": 105.8159091,
                "pitch": 36,
                "velocity": 101,
                "duration": 0.1,
                "tempo": 120.0
            },
            {
                "start_time": 105.8340909,
                "end_time": 105.9340909,
                "pitch": 36,
                "velocity": 101,
                "duration": 0.1,
                "tempo": 120.0
            },
            {
                "start_time": 105.9681818,
                "end_time": 106.1863636,
                "pitch": 36,
                "velocity": 101,
                "duration": 0.2181818,
                "tempo": 120.0
            },
            {
                "start_time": 106.2045455,
                "end_time": 106.3045455,
                "pitch": 36,
                "velocity": 101,
                "duration": 0.1,
                "tempo": 120.0
            },
            {
                "start_time": 106.3204545,
                "end_time": 106.4204545,
                "pitch": 36,
                "velocity": 101,
                "duration": 0.1,
                "tempo": 120.0
            },
            {
                "start_time": 106.4386364,
                "end_time": 106.5363636,
                "pitch": 36,
                "velocity": 101,
                "duration": 0.0977273,
                "tempo": 120.0
            },
            {
                "start_time": 106.5704545,
                "end_time": 106.6681818,
                "pitch": 36,
                "velocity": 101,
                "duration": 0.0977273,
                "tempo": 120.0
            },
            {
                "start_time": 106.6863636,
                "end_time": 106.7840909,
                "pitch": 36,
                "velocity": 101,
                "duration": 0.0977273,
                "tempo": 120.0
            },
            {
                "start_time": 106.8,
                "end_time": 106.8977273,
                "pitch": 36,
                "velocity": 101,
                "duration": 0.0977273,
                "tempo": 120.0
            },
            {
                "start_time": 106.9159091,
                "end_time": 107.1363636,
                "pitch": 38,
                "velocity": 101,
                "duration": 0.2204545,
                "tempo": 120.0
            },
            {
                "start_time": 107.1704545,
                "end_time": 107.2727273,
                "pitch": 38,
                "velocity": 101,
                "duration": 0.1022727,
                "tempo": 120.0
            },
            {
                "start_time": 107.2909091,
                "end_time": 107.3931818,
                "pitch": 38,
                "velocity": 101,
                "duration": 0.1022727,
                "tempo": 120.0
            },
            {
                "start_time": 107.4113636,
                "end_time": 107.5113636,
                "pitch": 38,
                "velocity": 101,
                "duration": 0.1,
                "tempo": 120.0
            },
            {
                "start_time": 107.5295455,
                "end_time": 107.6295455,
                "pitch": 38,
                "velocity": 101,
                "duration": 0.1,
                "tempo": 120.0
            },
            {
                "start_time": 107.6454545,
                "end_time": 107.7477273,
                "pitch": 38,
                "velocity": 101,
                "duration": 0.1022727,
                "tempo": 120.0
            },
            {
                "start_time": 107.7818182,
                "end_time": 107.8818182,
                "pitch": 38,
                "velocity": 101,
                "duration": 0.1,
                "tempo": 120.0
            },
            {
                "start_time": 107.8977273,
                "end_time": 108.1159091,
                "pitch": 38,
                "velocity": 101,
                "duration": 0.2181818,
                "tempo": 120.0
            },
            {
                "start_time": 108.1318182,
                "end_time": 108.2318182,
                "pitch": 38,
                "velocity": 101,
                "duration": 0.1,
                "tempo": 120.0
            },
            {
                "start_time": 108.2659091,
                "end_time": 108.3659091,
                "pitch": 38,
                "velocity": 101,
                "duration": 0.1,
                "tempo": 120.0
            },
            {
                "start_time": 108.3818182,
                "end_time": 108.4840909,
                "pitch": 38,
                "velocity": 101,
                "duration": 0.1022727,
                "tempo": 120.0
            },
            {
                "start_time": 108.5022727,
                "end_time": 108.6045455,
                "pitch": 38,
                "velocity": 101,
                "duration": 0.1022727,
                "tempo": 120.0
            },
            {
                "start_time": 108.6227273,
                "end_time": 108.725,
                "pitch": 38,
                "velocity": 101,
                "duration": 0.1022727,
                "tempo": 120.0
            },
            {
                "start_time": 108.7409091,
                "end_time": 108.8431818,
                "pitch": 38,
                "velocity": 101,
                "duration": 0.1022727,
                "tempo": 120.0
            },
            {
                "start_time": 108.8795455,
                "end_time": 109.0954545,
                "pitch": 33,
                "velocity": 101,
                "duration": 0.2159091,
                "tempo": 120.0
            },
            {
                "start_time": 109.1136364,
                "end_time": 109.2136364,
                "pitch": 33,
                "velocity": 101,
                "duration": 0.1,
                "tempo": 120.0
            },
            {
                "start_time": 109.2318182,
                "end_time": 109.3318182,
                "pitch": 33,
                "velocity": 101,
                "duration": 0.1,
                "tempo": 120.0
            },
            {
                "start_time": 109.35,
                "end_time": 109.4477273,
                "pitch": 33,
                "velocity": 101,
                "duration": 0.0977273,
                "tempo": 120.0
            },
            {
                "start_time": 109.4795455,
                "end_time": 109.5795455,
                "pitch": 33,
                "velocity": 101,
                "duration": 0.1,
                "tempo": 120.0
            },
            {
                "start_time": 109.5954545,
                "end_time": 109.6931818,
                "pitch": 33,
                "velocity": 101,
                "duration": 0.0977273,
                "tempo": 120.0
            },
            {
                "start_time": 109.7113636,
                "end_time": 109.8090909,
                "pitch": 33,
                "velocity": 101,
                "duration": 0.0977273,
                "tempo": 120.0
            },
            {
                "start_time": 109.825,
                "end_time": 110.0431818,
                "pitch": 33,
                "velocity": 101,
                "duration": 0.2181818,
                "tempo": 120.0
            },
            {
                "start_time": 110.0772727,
                "end_time": 110.175,
                "pitch": 33,
                "velocity": 101,
                "duration": 0.0977273,
                "tempo": 120.0
            },
            {
                "start_time": 110.1931818,
                "end_time": 110.2931818,
                "pitch": 33,
                "velocity": 101,
                "duration": 0.1,
                "tempo": 120.0
            },
            {
                "start_time": 110.3090909,
                "end_time": 110.4113636,
                "pitch": 33,
                "velocity": 101,
                "duration": 0.1022727,
                "tempo": 120.0
            },
            {
                "start_time": 110.4295455,
                "end_time": 110.5318182,
                "pitch": 33,
                "velocity": 101,
                "duration": 0.1022727,
                "tempo": 120.0
            },
            {
                "start_time": 110.5681818,
                "end_time": 110.6681818,
                "pitch": 33,
                "velocity": 101,
                "duration": 0.1,
                "tempo": 120.0
            },
            {
                "start_time": 110.6863636,
                "end_time": 110.7886364,
                "pitch": 33,
                "velocity": 101,
                "duration": 0.1022727,
                "tempo": 120.0
            },
            {
                "start_time": 110.8045455,
                "end_time": 111.0227273,
                "pitch": 35,
                "velocity": 101,
                "duration": 0.2181818,
                "tempo": 120.0
            },
            {
                "start_time": 111.0386364,
                "end_time": 111.1386364,
                "pitch": 35,
                "velocity": 101,
                "duration": 0.1,
                "tempo": 120.0
            },
            {
                "start_time": 111.1727273,
                "end_time": 111.2727273,
                "pitch": 35,
                "velocity": 101,
                "duration": 0.1,
                "tempo": 120.0
            },
            {
                "start_time": 111.2909091,
                "end_time": 111.3909091,
                "pitch": 35,
                "velocity": 101,
                "duration": 0.1,
                "tempo": 120.0
            },
            {
                "start_time": 111.4090909,
                "end_time": 111.5113636,
                "pitch": 35,
                "velocity": 101,
                "duration": 0.1022727,
                "tempo": 120.0
            },
            {
                "start_time": 111.5272727,
                "end_time": 111.6295455,
                "pitch": 35,
                "velocity": 101,
                "duration": 0.1022727,
                "tempo": 120.0
            },
            {
                "start_time": 111.6477273,
                "end_time": 111.75,
                "pitch": 35,
                "velocity": 101,
                "duration": 0.1022727,
                "tempo": 120.0
            },
            {
                "start_time": 111.7840909,
                "end_time": 112.0045455,
                "pitch": 35,
                "velocity": 101,
                "duration": 0.2204545,
                "tempo": 120.0
            },
            {
                "start_time": 112.0204545,
                "end_time": 112.1204545,
                "pitch": 35,
                "velocity": 101,
                "duration": 0.1,
                "tempo": 120.0
            },
            {
                "start_time": 112.1386364,
                "end_time": 112.2386364,
                "pitch": 35,
                "velocity": 101,
                "duration": 0.1,
                "tempo": 120.0
            },
            {
                "start_time": 112.2727273,
                "end_time": 112.3727273,
                "pitch": 35,
                "velocity": 101,
                "duration": 0.1,
                "tempo": 120.0
            },
            {
                "start_time": 112.3886364,
                "end_time": 112.4886364,
                "pitch": 35,
                "velocity": 101,
                "duration": 0.1,
                "tempo": 120.0
            },
            {
                "start_time": 112.5068182,
                "end_time": 112.6068182,
                "pitch": 35,
                "velocity": 101,
                "duration": 0.1,
                "tempo": 120.0
            },
            {
                "start_time": 112.6227273,
                "end_time": 112.7227273,
                "pitch": 35,
                "velocity": 101,
                "duration": 0.1,
                "tempo": 120.0
            },
            {
                "start_time": 112.7431818,
                "end_time": 112.8386364,
                "pitch": 35,
                "velocity": 101,
                "duration": 0.0954545,
                "tempo": 120.0
            },
            {
                "start_time": 112.8704545,
                "end_time": 112.9704545,
                "pitch": 35,
                "velocity": 101,
                "duration": 0.1,
                "tempo": 120.0
            },
            {
                "start_time": 112.9863636,
                "end_time": 113.0840909,
                "pitch": 35,
                "velocity": 101,
                "duration": 0.0977273,
                "tempo": 120.0
            },
            {
                "start_time": 113.1022727,
                "end_time": 113.2,
                "pitch": 35,
                "velocity": 101,
                "duration": 0.0977273,
                "tempo": 120.0
            },
            {
                "start_time": 113.2159091,
                "end_time": 113.3159091,
                "pitch": 35,
                "velocity": 101,
                "duration": 0.1,
                "tempo": 120.0
            },
            {
                "start_time": 113.3340909,
                "end_time": 113.4340909,
                "pitch": 35,
                "velocity": 101,
                "duration": 0.1,
                "tempo": 120.0
            },
            {
                "start_time": 113.4681818,
                "end_time": 113.5681818,
                "pitch": 35,
                "velocity": 101,
                "duration": 0.1,
                "tempo": 120.0
            },
            {
                "start_time": 113.5863636,
                "end_time": 113.6863636,
                "pitch": 35,
                "velocity": 101,
                "duration": 0.1,
                "tempo": 120.0
            },
            {
                "start_time": 113.7045455,
                "end_time": 113.8068182,
                "pitch": 35,
                "velocity": 101,
                "duration": 0.1022727,
                "tempo": 120.0
            },
            {
                "start_time": 113.825,
                "end_time": 113.925,
                "pitch": 35,
                "velocity": 101,
                "duration": 0.1,
                "tempo": 120.0
            },
            {
                "start_time": 113.9431818,
                "end_time": 114.0454545,
                "pitch": 35,
                "velocity": 101,
                "duration": 0.1022727,
                "tempo": 120.0
            },
            {
                "start_time": 114.0818182,
                "end_time": 114.1818182,
                "pitch": 35,
                "velocity": 101,
                "duration": 0.1,
                "tempo": 120.0
            },
            {
                "start_time": 114.2,
                "end_time": 114.3,
                "pitch": 35,
                "velocity": 101,
                "duration": 0.1,
                "tempo": 120.0
            },
            {
                "start_time": 114.3181818,
                "end_time": 114.4181818,
                "pitch": 33,
                "velocity": 101,
                "duration": 0.1,
                "tempo": 120.0
            },
            {
                "start_time": 114.4363636,
                "end_time": 114.5363636,
                "pitch": 31,
                "velocity": 101,
                "duration": 0.1,
                "tempo": 120.0
            },
            {
                "start_time": 114.5704545,
                "end_time": 114.6704545,
                "pitch": 30,
                "velocity": 101,
                "duration": 0.1,
                "tempo": 120.0
            },
            {
                "start_time": 114.6886364,
                "end_time": 114.7886364,
                "pitch": 39,
                "velocity": 101,
                "duration": 0.1,
                "tempo": 120.0
            },
            {
                "start_time": 114.8068182,
                "end_time": 114.9090909,
                "pitch": 35,
                "velocity": 101,
                "duration": 0.1022727,
                "tempo": 120.0
            },
            {
                "start_time": 114.9272727,
                "end_time": 115.0295455,
                "pitch": 42,
                "velocity": 101,
                "duration": 0.1022727,
                "tempo": 120.0
            },
            {
                "start_time": 115.0477273,
                "end_time": 115.15,
                "pitch": 35,
                "velocity": 101,
                "duration": 0.1022727,
                "tempo": 120.0
            },
            {
                "start_time": 115.1840909,
                "end_time": 115.2840909,
                "pitch": 45,
                "velocity": 101,
                "duration": 0.1,
                "tempo": 120.0
            },
            {
                "start_time": 115.3022727,
                "end_time": 115.4022727,
                "pitch": 38,
                "velocity": 101,
                "duration": 0.1,
                "tempo": 120.0
            },
            {
                "start_time": 115.4204545,
                "end_time": 115.5204545,
                "pitch": 46,
                "velocity": 101,
                "duration": 0.1,
                "tempo": 120.0
            },
            {
                "start_time": 115.5363636,
                "end_time": 115.6386364,
                "pitch": 38,
                "velocity": 101,
                "duration": 0.1022727,
                "tempo": 120.0
            },
            {
                "start_time": 115.6568182,
                "end_time": 115.8840909,
                "pitch": 47,
                "velocity": 101,
                "duration": 0.2272727,
                "tempo": 120.0
            },
            {
                "start_time": 116.6318182,
                "end_time": 116.8431818,
                "pitch": 52,
                "velocity": 101,
                "duration": 0.2113636,
                "tempo": 120.0
            },
            {
                "start_time": 116.8772727,
                "end_time": 117.0931818,
                "pitch": 35,
                "velocity": 101,
                "duration": 0.2159091,
                "tempo": 120.0
            },
            {
                "start_time": 117.1113636,
                "end_time": 117.2113636,
                "pitch": 38,
                "velocity": 101,
                "duration": 0.1,
                "tempo": 120.0
            },
            {
                "start_time": 117.2295455,
                "end_time": 117.4522727,
                "pitch": 33,
                "velocity": 101,
                "duration": 0.2227273,
                "tempo": 120.0
            },
            {
                "start_time": 117.4863636,
                "end_time": 117.5886364,
                "pitch": 35,
                "velocity": 101,
                "duration": 0.1022727,
                "tempo": 120.0
            },
            {
                "start_time": 117.6068182,
                "end_time": 117.8363636,
                "pitch": 27,
                "velocity": 101,
                "duration": 0.2295455,
                "tempo": 120.0
            },
            {
                "start_time": 117.8545455,
                "end_time": 117.9613636,
                "pitch": 33,
                "velocity": 101,
                "duration": 0.1068182,
                "tempo": 120.0
            },
            {
                "start_time": 117.9795455,
                "end_time": 118.2272727,
                "pitch": 52,
                "velocity": 101,
                "duration": 0.2477273,
                "tempo": 120.0
            },
            {
                "start_time": 118.2454545,
                "end_time": 118.5,
                "pitch": 50,
                "velocity": 101,
                "duration": 0.2545455,
                "tempo": 120.0
            },
            {
                "start_time": 118.5181818,
                "end_time": 118.6363636,
                "pitch": 35,
                "velocity": 101,
                "duration": 0.1181818,
                "tempo": 120.0
            },
            {
                "start_time": 118.6590909,
                "end_time": 118.9159091,
                "pitch": 52,
                "velocity": 101,
                "duration": 0.2568182,
                "tempo": 120.0
            },
            {
                "start_time": 118.9340909,
                "end_time": 119.1545455,
                "pitch": 35,
                "velocity": 101,
                "duration": 0.2204545,
                "tempo": 120.0
            },
            {
                "start_time": 119.1704545,
                "end_time": 119.2727273,
                "pitch": 38,
                "velocity": 101,
                "duration": 0.1022727,
                "tempo": 120.0
            },
            {
                "start_time": 119.3090909,
                "end_time": 119.525,
                "pitch": 33,
                "velocity": 101,
                "duration": 0.2159091,
                "tempo": 120.0
            },
            {
                "start_time": 119.5409091,
                "end_time": 119.6409091,
                "pitch": 35,
                "velocity": 101,
                "duration": 0.1,
                "tempo": 120.0
            },
            {
                "start_time": 119.6590909,
                "end_time": 119.8727273,
                "pitch": 27,
                "velocity": 101,
                "duration": 0.2136364,
                "tempo": 120.0
            },
            {
                "start_time": 119.9068182,
                "end_time": 120.0045455,
                "pitch": 33,
                "velocity": 101,
                "duration": 0.0977273,
                "tempo": 120.0
            },
            {
                "start_time": 120.0227273,
                "end_time": 120.2363636,
                "pitch": 52,
                "velocity": 101,
                "duration": 0.2136364,
                "tempo": 120.0
            },
            {
                "start_time": 120.2522727,
                "end_time": 120.4704545,
                "pitch": 50,
                "velocity": 101,
                "duration": 0.2181818,
                "tempo": 120.0
            },
            {
                "start_time": 120.5045455,
                "end_time": 120.6068182,
                "pitch": 35,
                "velocity": 101,
                "duration": 0.1022727,
                "tempo": 120.0
            },
            {
                "start_time": 120.6227273,
                "end_time": 120.8409091,
                "pitch": 52,
                "velocity": 101,
                "duration": 0.2181818,
                "tempo": 120.0
            },
            {
                "start_time": 120.8590909,
                "end_time": 121.0931818,
                "pitch": 35,
                "velocity": 101,
                "duration": 0.2340909,
                "tempo": 120.0
            },
            {
                "start_time": 121.1090909,
                "end_time": 121.2090909,
                "pitch": 38,
                "velocity": 101,
                "duration": 0.1,
                "tempo": 120.0
            },
            {
                "start_time": 121.2272727,
                "end_time": 121.45,
                "pitch": 33,
                "velocity": 101,
                "duration": 0.2227273,
                "tempo": 120.0
            },
            {
                "start_time": 121.4681818,
                "end_time": 121.5681818,
                "pitch": 35,
                "velocity": 101,
                "duration": 0.1,
                "tempo": 120.0
            },
            {
                "start_time": 121.6022727,
                "end_time": 121.8227273,
                "pitch": 27,
                "velocity": 101,
                "duration": 0.2204545,
                "tempo": 120.0
            },
            {
                "start_time": 121.8409091,
                "end_time": 121.9409091,
                "pitch": 33,
                "velocity": 101,
                "duration": 0.1,
                "tempo": 120.0
            },
            {
                "start_time": 121.9590909,
                "end_time": 122.1772727,
                "pitch": 52,
                "velocity": 101,
                "duration": 0.2181818,
                "tempo": 120.0
            },
            {
                "start_time": 122.2113636,
                "end_time": 122.4318182,
                "pitch": 50,
                "velocity": 101,
                "duration": 0.2204545,
                "tempo": 120.0
            },
            {
                "start_time": 122.45,
                "end_time": 122.5522727,
                "pitch": 35,
                "velocity": 101,
                "duration": 0.1022727,
                "tempo": 120.0
            }
        ]
    }
}