{
    "mood": "angry",
    "instruments": {
        "Trumpet": [
            {
                "start_time": 0.0090909,
                "end_time": 0.2022727,
                "pitch": 72,
                "velocity": 64,
                "duration": 0.1931818,
                "tempo": 120.0
            },
            {
                "start_time": 0.2022727,
                "end_time": 0.3022727,
                "pitch": 72,
                "velocity": 64,
                "duration": 0.1,
                "tempo": 120.0
            },
            {
                "start_time": 0.3022727,
                "end_time": 0.4022727,
                "pitch": 74,
                "velocity": 64,
                "duration": 0.1,
                "tempo": 120.0
            },
            {
                "start_time": 0.4022727,
                "end_time": 1.2045455,
                "pitch": 75,
                "velocity": 64,
                "duration": 0.8022727,
                "tempo": 120.0
            },
            {
                "start_time": 1.2045455,
                "end_time": 1.6045455,
                "pitch": 79,
                "velocity": 64,
                "duration": 0.4,
                "tempo": 120.0
            },
            {
                "start_time": 1.6045455,
                "end_time": 1.8068182,
                "pitch": 72,
                "velocity": 64,
                "duration": 0.2022727,
                "tempo": 120.0
            },
            {
                "start_time": 1.8068182,
                "end_time": 1.9068182,
                "pitch": 72,
                "velocity": 64,
                "duration": 0.1,
                "tempo": 120.0
            },
            {
                "start_time": 1.9068182,
                "end_time": 2.0068182,
                "pitch": 74,
                "velocity": 64,
                "duration": 0.1,
                "tempo": 120.0
            },
            {
                "start_time": 2.0090909,
                "end_time": 2.8090909,
                "pitch": 75,
                "velocity": 64,
                "duration": 0.8,
                "tempo": 120.0
            },
            {
                "start_time": 2.8090909,
                "end_time": 3.2090909,
                "pitch": 79,
                "velocity": 64,
                "duration": 0.4,
                "tempo": 120.0
            },
            {
                "start_time": 3.2113636,
                "end_time": 3.4113636,
                "pitch": 72,
                "velocity": 64,
                "duration": 0.2,
                "tempo": 120.0
            },
            {
                "start_time": 3.4113636,
                "end_time": 3.5113636,
                "pitch": 72,
                "velocity": 64,
                "duration": 0.1,
                "tempo": 120.0
            },
            {
                "start_time": 3.5113636,
                "end_time": 3.6136364,
                "pitch": 74,
                "velocity": 64,
                "duration": 0.1022727,
                "tempo": 120.0
            },
            {
                "start_time": 3.6136364,
                "end_time": 4.4136364,
                "pitch": 75,
                "velocity": 64,
                "duration": 0.8,
                "tempo": 120.0
            },
            {
                "start_time": 4.4136364,
                "end_time": 4.8181818,
                "pitch": 79,
                "velocity": 64,
                "duration": 0.4045455,
                "tempo": 120.0
            },
            {
                "start_time": 4.8181818,
                "end_time": 5.6204545,
                "pitch": 77,
                "velocity": 64,
                "duration": 0.8022727,
                "tempo": 120.0
            },
            {
                "start_time": 5.6204545,
                "end_time": 6.0204545,
                "pitch": 75,
                "velocity": 64,
                "duration": 0.4,
                "tempo": 120.0
            },
            {
                "start_time": 6.0227273,
                "end_time": 6.425,
                "pitch": 74,
                "velocity": 64,
                "duration": 0.4022727,
                "tempo": 120.0
            },
            {
                "start_time": 6.425,
                "end_time": 6.6295455,
                "pitch": 72,
                "velocity": 64,
                "duration": 0.2045455,
                "tempo": 120.0
            },
            {
                "start_time": 6.6295455,
                "end_time": 6.7318182,
                "pitch": 72,
                "velocity": 64,
                "duration": 0.1022727,
                "tempo": 120.0
            },
            {
                "start_time": 6.7318182,
                "end_time": 6.8363636,
                "pitch": 74,
                "velocity": 64,
                "duration": 0.1045455,
                "tempo": 120.0
            },
            {
                "start_time": 6.8363636,
                "end_time": 7.6409091,
                "pitch": 75,
                "velocity": 64,
                "duration": 0.8045455,
                "tempo": 120.0
            },
            {
                "start_time": 7.6409091,
                "end_time": 8.0431818,
                "pitch": 79,
                "velocity": 64,
                "duration": 0.4022727,
                "tempo": 120.0
            },
            {
                "start_time": 8.0431818,
                "end_time": 8.2431818,
                "pitch": 72,
                "velocity": 64,
                "duration": 0.2,
                "tempo": 120.0
            },
            {
                "start_time": 8.2431818,
                "end_time": 8.3431818,
                "pitch": 72,
                "velocity": 64,
                "duration": 0.1,
                "tempo": 120.0
            },
            {
                "start_time": 8.3431818,
                "end_time": 8.4431818,
                "pitch": 74,
                "velocity": 64,
                "duration": 0.1,
                "tempo": 120.0
            },
            {
                "start_time": 8.4431818,
                "end_time": 9.25,
                "pitch": 75,
                "velocity": 64,
                "duration": 0.8068182,
                "tempo": 120.0
            },
            {
                "start_time": 9.25,
                "end_time": 9.6545455,
                "pitch": 79,
                "velocity": 64,
                "duration": 0.4045455,
                "tempo": 120.0
            },
            {
                "start_time": 9.6545455,
                "end_time": 9.8545455,
                "pitch": 72,
                "velocity": 64,
                "duration": 0.2,
                "tempo": 120.0
            },
            {
                "start_time": 9.8545455,
                "end_time": 9.9522727,
                "pitch": 72,
                "velocity": 64,
                "duration": 0.0977273,
                "tempo": 120.0
            },
            {
                "start_time": 9.9522727,
                "end_time": 10.0545455,
                "pitch": 74,
                "velocity": 64,
                "duration": 0.1022727,
                "tempo": 120.0
            },
            {
                "start_time": 10.0545455,
                "end_time": 10.8613636,
                "pitch": 75,
                "velocity": 64,
                "duration": 0.8068182,
                "tempo": 120.0
            },
            {
                "start_time": 10.8613636,
                "end_time": 11.2636364,
                "pitch": 79,
                "velocity": 64,
                "duration": 0.4022727,
                "tempo": 120.0
            },
            {
                "start_time": 11.2636364,
                "end_time": 12.0681818,
                "pitch": 77,
                "velocity": 64,
                "duration": 0.8045455,
                "tempo": 120.0
            },
            {
                "start_time": 12.0681818,
                "end_time": 12.4704545,
                "pitch": 75,
                "velocity": 64,
                "duration": 0.4022727,
                "tempo": 120.0
            },
            {
                "start_time": 12.4704545,
                "end_time": 12.875,
                "pitch": 74,
                "velocity": 64,
                "duration": 0.4045455,
                "tempo": 120.0
            },
            {
                "start_time": 12.875,
                "end_time": 13.6886364,
                "pitch": 72,
                "velocity": 64,
                "duration": 0.8136364,
                "tempo": 120.0
            },
            {
                "start_time": 13.6886364,
                "end_time": 14.0909091,
                "pitch": 76,
                "velocity": 64,
                "duration": 0.4022727,
                "tempo": 120.0
            },
            {
                "start_time": 14.0909091,
                "end_time": 14.2909091,
                "pitch": 77,
                "velocity": 64,
                "duration": 0.2,
                "tempo": 120.0
            },
            {
                "start_time": 14.2909091,
                "end_time": 15.3,
                "pitch": 79,
                "velocity": 64,
                "duration": 1.0090909,
                "tempo": 120.0
            },
            {
                "start_time": 15.3,
                "end_time": 15.7022727,
                "pitch": 82,
                "velocity": 64,
                "duration": 0.4022727,
                "tempo": 120.0
            },
            {
                "start_time": 15.7022727,
                "end_time": 15.9022727,
                "pitch": 79,
                "velocity": 64,
                "duration": 0.2,
                "tempo": 120.0
            },
            {
                "start_time": 15.9022727,
                "end_time": 16.9090909,
                "pitch": 81,
                "velocity": 64,
                "duration": 1.0068182,
                "tempo": 120.0
            },
            {
                "start_time": 16.9090909,
                "end_time": 17.3113636,
                "pitch": 77,
                "velocity": 64,
                "duration": 0.4022727,
                "tempo": 120.0
            },
            {
                "start_time": 17.3113636,
                "end_time": 17.5090909,
                "pitch": 81,
                "velocity": 64,
                "duration": 0.1977273,
                "tempo": 120.0
            },
            {
                "start_time": 17.5090909,
                "end_time": 18.5136364,
                "pitch": 79,
                "velocity": 64,
                "duration": 1.0045455,
                "tempo": 120.0
            },
            {
                "start_time": 18.5136364,
                "end_time": 18.9181818,
                "pitch": 77,
                "velocity": 64,
                "duration": 0.4045455,
                "tempo": 120.0
            },
            {
                "start_time": 18.9181818,
                "end_time": 19.1181818,
                "pitch": 75,
                "velocity": 64,
                "duration": 0.2,
                "tempo": 120.0
            },
            {
                "start_time": 19.1181818,
                "end_time": 19.3181818,
                "pitch": 74,
                "velocity": 64,
                "duration": 0.2,
                "tempo": 120.0
            },
            {
                "start_time": 19.3181818,
                "end_time": 20.1295455,
                "pitch": 72,
                "velocity": 64,
                "duration": 0.8113636,
                "tempo": 120.0
            },
            {
                "start_time": 20.1295455,
                "end_time": 20.5340909,
                "pitch": 76,
                "velocity": 64,
                "duration": 0.4045455,
                "tempo": 120.0
            },
            {
                "start_time": 20.5340909,
                "end_time": 20.7340909,
                "pitch": 77,
                "velocity": 64,
                "duration": 0.2,
                "tempo": 120.0
            },
            {
                "start_time": 20.7340909,
                "end_time": 21.7386364,
                "pitch": 79,
                "velocity": 64,
                "duration": 1.0045455,
                "tempo": 120.0
            },
            {
                "start_time": 21.7386364,
                "end_time": 22.1386364,
                "pitch": 82,
                "velocity": 64,
                "duration": 0.4,
                "tempo": 120.0
            },
            {
                "start_time": 22.1386364,
                "end_time": 22.3386364,
                "pitch": 79,
                "velocity": 64,
                "duration": 0.2,
                "tempo": 120.0
            },
            {
                "start_time": 22.3386364,
                "end_time": 23.3431818,
                "pitch": 81,
                "velocity": 64,
                "duration": 1.0045455,
                "tempo": 120.0
            },
            {
                "start_time": 23.3431818,
                "end_time": 23.7454545,
                "pitch": 77,
                "velocity": 64,
                "duration": 0.4022727,
                "tempo": 120.0
            },
            {
                "start_time": 23.7454545,
                "end_time": 23.9454545,
                "pitch": 81,
                "velocity": 64,
                "duration": 0.2,
                "tempo": 120.0
            },
            {
                "start_time": 23.9454545,
                "end_time": 24.95,
                "pitch": 79,
                "velocity": 64,
                "duration": 1.0045455,
                "tempo": 120.0
            },
            {
                "start_time": 24.95,
                "end_time": 25.35,
                "pitch": 77,
                "velocity": 64,
                "duration": 0.4,
                "tempo": 120.0
            },
            {
                "start_time": 25.35,
                "end_time": 25.5522727,
                "pitch": 75,
                "velocity": 64,
                "duration": 0.2022727,
                "tempo": 120.0
            },
            {
                "start_time": 25.5522727,
                "end_time": 25.7545455,
                "pitch": 74,
                "velocity": 64,
                "duration": 0.2022727,
                "tempo": 120.0
            },
            {
                "start_time": 25.7545455,
                "end_time": 25.8886364,
                "pitch": 67,
                "velocity": 64,
                "duration": 0.1340909,
                "tempo": 120.0
            },
            {
                "start_time": 25.8886364,
                "end_time": 26.0227273,
                "pitch": 63,
                "velocity": 64,
                "duration": 0.1340909,
                "tempo": 120.0
            },
            {
                "start_time": 26.0227273,
                "end_time": 26.1545455,
                "pitch": 67,
                "velocity": 64,
                "duration": 0.1318182,
                "tempo": 120.0
            },
            {
                "start_time": 26.1545455,
                "end_time": 26.2931818,
                "pitch": 65,
                "velocity": 64,
                "duration": 0.1386364,
                "tempo": 120.0
            },
            {
                "start_time": 26.2931818,
                "end_time": 26.4295455,
                "pitch": 62,
                "velocity": 64,
                "duration": 0.1363636,
                "tempo": 120.0
            },
            {
                "start_time": 26.4295455,
                "end_time": 26.5659091,
                "pitch": 65,
                "velocity": 64,
                "duration": 0.1363636,
                "tempo": 120.0
            },
            {
                "start_time": 26.5659091,
                "end_time": 26.7,
                "pitch": 63,
                "velocity": 64,
                "duration": 0.1340909,
                "tempo": 120.0
            },
            {
                "start_time": 26.7022727,
                "end_time": 26.8363636,
                "pitch": 60,
                "velocity": 64,
                "duration": 0.1340909,
                "tempo": 120.0
            },
            {
                "start_time": 26.8363636,
                "end_time": 26.9704545,
                "pitch": 63,
                "velocity": 64,
                "duration": 0.1340909,
                "tempo": 120.0
            },
            {
                "start_time": 26.9704545,
                "end_time": 27.1045455,
                "pitch": 62,
                "velocity": 64,
                "duration": 0.1340909,
                "tempo": 120.0
            },
            {
                "start_time": 27.1045455,
                "end_time": 27.2363636,
                "pitch": 63,
                "velocity": 64,
                "duration": 0.1318182,
                "tempo": 120.0
            },
            {
                "start_time": 27.2363636,
                "end_time": 27.3704545,
                "pitch": 65,
                "velocity": 64,
                "duration": 0.1340909,
                "tempo": 120.0
            },
            {
                "start_time": 27.3704545,
                "end_time": 27.5045455,
                "pitch": 67,
                "velocity": 64,
                "duration": 0.1340909,
                "tempo": 120.0
            },
            {
                "start_time": 27.5045455,
                "end_time": 27.6386364,
                "pitch": 63,
                "velocity": 64,
                "duration": 0.1340909,
                "tempo": 120.0
            },
            {
                "start_time": 27.6386364,
                "end_time": 27.7704545,
                "pitch": 67,
                "velocity": 64,
                "duration": 0.1318182,
                "tempo": 120.0
            },
            {
                "start_time": 27.7704545,
                "end_time": 27.9045455,
                "pitch": 65,
                "velocity": 64,
                "duration": 0.1340909,
                "tempo": 120.0
            },
            {
                "start_time": 27.9045455,
                "end_time": 28.0409091,
                "pitch": 62,
                "velocity": 64,
                "duration": 0.1363636,
                "tempo": 120.0
            },
            {
                "start_time": 28.0409091,
                "end_time": 28.175,
                "pitch": 65,
                "velocity": 64,
                "duration": 0.1340909,
                "tempo": 120.0
            },
            {
                "start_time": 28.175,
                "end_time": 28.3068182,
                "pitch": 63,
                "velocity": 64,
                "duration": 0.1318182,
                "tempo": 120.0
            },
            {
                "start_time": 28.3090909,
                "end_time": 28.4409091,
                "pitch": 60,
                "velocity": 64,
                "duration": 0.1318182,
                "tempo": 120.0
            },
            {
                "start_time": 28.4409091,
                "end_time": 28.575,
                "pitch": 63,
                "velocity": 64,
                "duration": 0.1340909,
                "tempo": 120.0
            },
            {
                "start_time": 28.575,
                "end_time": 28.7090909,
                "pitch": 62,
                "velocity": 64,
                "duration": 0.1340909,
                "tempo": 120.0
            },
            {
                "start_time": 28.7090909,
                "end_time": 28.8431818,
                "pitch": 63,
                "velocity": 64,
                "duration": 0.1340909,
                "tempo": 120.0
            },
            {
                "start_time": 28.8431818,
                "end_time": 28.9772727,
                "pitch": 65,
                "velocity": 64,
                "duration": 0.1340909,
                "tempo": 120.0
            },
            {
                "start_time": 28.9772727,
                "end_time": 29.7795455,
                "pitch": 68,
                "velocity": 64,
                "duration": 0.8022727,
                "tempo": 120.0
            },
            {
                "start_time": 29.7795455,
                "end_time": 30.1818182,
                "pitch": 75,
                "velocity": 64,
                "duration": 0.4022727,
                "tempo": 120.0
            },
            {
                "start_time": 30.1818182,
                "end_time": 30.5818182,
                "pitch": 68,
                "velocity": 64,
                "duration": 0.4,
                "tempo": 120.0
            },
            {
                "start_time": 30.5840909,
                "end_time": 31.3863636,
                "pitch": 70,
                "velocity": 64,
                "duration": 0.8022727,
                "tempo": 120.0
            },
            {
                "start_time": 31.3863636,
                "end_time": 31.7863636,
                "pitch": 77,
                "velocity": 64,
                "duration": 0.4,
                "tempo": 120.0
            },
            {
                "start_time": 31.7863636,
                "end_time": 32.1886364,
                "pitch": 70,
                "velocity": 64,
                "duration": 0.4022727,
                "tempo": 120.0
            }
        ],
        "Lead 2 (sawtooth)": [
            {
                "start_time": 25.7522727,
                "end_time": 25.8863636,
                "pitch": 79,
                "velocity": 64,
                "duration": 0.1340909,
                "tempo": 120.0
            },
            {
                "start_time": 25.8863636,
                "end_time": 26.0181818,
                "pitch": 75,
                "velocity": 64,
                "duration": 0.1318182,
                "tempo": 120.0
            },
            {
                "start_time": 26.0204545,
                "end_time": 26.1522727,
                "pitch": 79,
                "velocity": 64,
                "duration": 0.1318182,
                "tempo": 120.0
            },
            {
                "start_time": 26.1522727,
                "end_time": 26.2886364,
                "pitch": 77,
                "velocity": 64,
                "duration": 0.1363636,
                "tempo": 120.0
            },
            {
                "start_time": 26.2909091,
                "end_time": 26.4272727,
                "pitch": 74,
                "velocity": 64,
                "duration": 0.1363636,
                "tempo": 120.0
            },
            {
                "start_time": 26.4272727,
                "end_time": 26.5636364,
                "pitch": 77,
                "velocity": 64,
                "duration": 0.1363636,
                "tempo": 120.0
            },
            {
                "start_time": 26.5636364,
                "end_time": 26.6977273,
                "pitch": 75,
                "velocity": 64,
                "duration": 0.1340909,
                "tempo": 120.0
            },
            {
                "start_time": 26.6977273,
                "end_time": 26.8340909,
                "pitch": 72,
                "velocity": 64,
                "duration": 0.1363636,
                "tempo": 120.0
            },
            {
                "start_time": 26.8340909,
                "end_time": 26.9681818,
                "pitch": 75,
                "velocity": 64,
                "duration": 0.1340909,
                "tempo": 120.0
            },
            {
                "start_time": 26.9681818,
                "end_time": 27.1,
                "pitch": 74,
                "velocity": 64,
                "duration": 0.1318182,
                "tempo": 120.0
            },
            {
                "start_time": 27.1022727,
                "end_time": 27.2340909,
                "pitch": 75,
                "velocity": 64,
                "duration": 0.1318182,
                "tempo": 120.0
            },
            {
                "start_time": 27.2340909,
                "end_time": 27.3681818,
                "pitch": 77,
                "velocity": 64,
                "duration": 0.1340909,
                "tempo": 120.0
            },
            {
                "start_time": 27.3681818,
                "end_time": 27.5022727,
                "pitch": 91,
                "velocity": 64,
                "duration": 0.1340909,
                "tempo": 120.0
            },
            {
                "start_time": 27.5022727,
                "end_time": 27.6340909,
                "pitch": 87,
                "velocity": 64,
                "duration": 0.1318182,
                "tempo": 120.0
            },
            {
                "start_time": 27.6340909,
                "end_time": 27.7681818,
                "pitch": 91,
                "velocity": 64,
                "duration": 0.1340909,
                "tempo": 120.0
            },
            {
                "start_time": 27.7681818,
                "end_time": 27.9022727,
                "pitch": 89,
                "velocity": 64,
                "duration": 0.1340909,
                "tempo": 120.0
            },
            {
                "start_time": 27.9022727,
                "end_time": 28.0363636,
                "pitch": 86,
                "velocity": 64,
                "duration": 0.1340909,
                "tempo": 120.0
            },
            {
                "start_time": 28.0386364,
                "end_time": 28.1727273,
                "pitch": 89,
                "velocity": 64,
                "duration": 0.1340909,
                "tempo": 120.0
            },
            {
                "start_time": 28.1727273,
                "end_time": 28.3045455,
                "pitch": 87,
                "velocity": 64,
                "duration": 0.1318182,
                "tempo": 120.0
            },
            {
                "start_time": 28.3045455,
                "end_time": 28.4386364,
                "pitch": 84,
                "velocity": 64,
                "duration": 0.1340909,
                "tempo": 120.0
            },
            {
                "start_time": 28.4386364,
                "end_time": 28.5727273,
                "pitch": 87,
                "velocity": 64,
                "duration": 0.1340909,
                "tempo": 120.0
            },
            {
                "start_time": 28.5727273,
                "end_time": 28.7068182,
                "pitch": 86,
                "velocity": 64,
                "duration": 0.1340909,
                "tempo": 120.0
            },
            {
                "start_time": 28.7068182,
                "end_time": 28.8409091,
                "pitch": 87,
                "velocity": 64,
                "duration": 0.1340909,
                "tempo": 120.0
            },
            {
                "start_time": 28.8409091,
                "end_time": 28.975,
                "pitch": 89,
                "velocity": 64,
                "duration": 0.1340909,
                "tempo": 120.0
            },
            {
                "start_time": 28.975,
                "end_time": 29.175,
                "pitch": 68,
                "velocity": 80,
                "duration": 0.2,
                "tempo": 120.0
            },
            {
                "start_time": 29.175,
                "end_time": 29.375,
                "pitch": 51,
                "velocity": 80,
                "duration": 0.2,
                "tempo": 120.0
            },
            {
                "start_time": 29.3772727,
                "end_time": 29.5772727,
                "pitch": 56,
                "velocity": 80,
                "duration": 0.2,
                "tempo": 120.0
            },
            {
                "start_time": 29.5772727,
                "end_time": 29.7772727,
                "pitch": 60,
                "velocity": 80,
                "duration": 0.2,
                "tempo": 120.0
            },
            {
                "start_time": 29.7772727,
                "end_time": 29.9772727,
                "pitch": 63,
                "velocity": 80,
                "duration": 0.2,
                "tempo": 120.0
            },
            {
                "start_time": 29.9795455,
                "end_time": 30.1795455,
                "pitch": 68,
                "velocity": 80,
                "duration": 0.2,
                "tempo": 120.0
            },
            {
                "start_time": 30.1795455,
                "end_time": 30.3795455,
                "pitch": 72,
                "velocity": 80,
                "duration": 0.2,
                "tempo": 120.0
            },
            {
                "start_time": 30.3795455,
                "end_time": 30.5795455,
                "pitch": 75,
                "velocity": 80,
                "duration": 0.2,
                "tempo": 120.0
            },
            {
                "start_time": 30.5795455,
                "end_time": 30.7818182,
                "pitch": 70,
                "velocity": 80,
                "duration": 0.2022727,
                "tempo": 120.0
            },
            {
                "start_time": 30.7818182,
                "end_time": 30.9840909,
                "pitch": 53,
                "velocity": 80,
                "duration": 0.2022727,
                "tempo": 120.0
            },
            {
                "start_time": 30.9840909,
                "end_time": 31.1840909,
                "pitch": 58,
                "velocity": 80,
                "duration": 0.2,
                "tempo": 120.0
            },
            {
                "start_time": 31.1840909,
                "end_time": 31.3840909,
                "pitch": 62,
                "velocity": 80,
                "duration": 0.2,
                "tempo": 120.0
            },
            {
                "start_time": 31.3840909,
                "end_time": 31.5840909,
                "pitch": 65,
                "velocity": 80,
                "duration": 0.2,
                "tempo": 120.0
            },
            {
                "start_time": 31.5840909,
                "end_time": 31.7840909,
                "pitch": 70,
                "velocity": 80,
                "duration": 0.2,
                "tempo": 120.0
            },
            {
                "start_time": 31.7840909,
                "end_time": 31.9863636,
                "pitch": 74,
                "velocity": 80,
                "duration": 0.2022727,
                "tempo": 120.0
            },
            {
                "start_time": 31.9863636,
                "end_time": 32.1886364,
                "pitch": 77,
                "velocity": 80,
                "duration": 0.2022727,
                "tempo": 120.0
            }
        ],
        "Acoustic Guitar (nylon)": [
            {
                "start_time": 12.875,
                "end_time": 13.2840909,
                "pitch": 64,
                "velocity": 80,
                "duration": 0.4090909,
                "tempo": 120.0
            },
            {
                "start_time": 13.2840909,
                "end_time": 13.6886364,
                "pitch": 67,
                "velocity": 80,
                "duration": 0.4045455,
                "tempo": 120.0
            },
            {
                "start_time": 13.6886364,
                "end_time": 14.0886364,
                "pitch": 72,
                "velocity": 80,
                "duration": 0.4,
                "tempo": 120.0
            },
            {
                "start_time": 14.0886364,
                "end_time": 14.4931818,
                "pitch": 76,
                "velocity": 80,
                "duration": 0.4045455,
                "tempo": 120.0
            },
            {
                "start_time": 14.4931818,
                "end_time": 14.8954545,
                "pitch": 62,
                "velocity": 80,
                "duration": 0.4022727,
                "tempo": 120.0
            },
            {
                "start_time": 14.8954545,
                "end_time": 15.2977273,
                "pitch": 65,
                "velocity": 80,
                "duration": 0.4022727,
                "tempo": 120.0
            },
            {
                "start_time": 15.3,
                "end_time": 15.7022727,
                "pitch": 70,
                "velocity": 80,
                "duration": 0.4022727,
                "tempo": 120.0
            },
            {
                "start_time": 15.7022727,
                "end_time": 16.1022727,
                "pitch": 74,
                "velocity": 80,
                "duration": 0.4,
                "tempo": 120.0
            },
            {
                "start_time": 16.1022727,
                "end_time": 16.5045455,
                "pitch": 60,
                "velocity": 80,
                "duration": 0.4022727,
                "tempo": 120.0
            },
            {
                "start_time": 16.5045455,
                "end_time": 16.9090909,
                "pitch": 65,
                "velocity": 80,
                "duration": 0.4045455,
                "tempo": 120.0
            },
            {
                "start_time": 16.9090909,
                "end_time": 17.3090909,
                "pitch": 69,
                "velocity": 80,
                "duration": 0.4,
                "tempo": 120.0
            },
            {
                "start_time": 17.3090909,
                "end_time": 17.7090909,
                "pitch": 72,
                "velocity": 80,
                "duration": 0.4,
                "tempo": 120.0
            },
            {
                "start_time": 17.7113636,
                "end_time": 18.1136364,
                "pitch": 59,
                "velocity": 80,
                "duration": 0.4022727,
                "tempo": 120.0
            },
            {
                "start_time": 18.1136364,
                "end_time": 18.5136364,
                "pitch": 62,
                "velocity": 80,
                "duration": 0.4,
                "tempo": 120.0
            },
            {
                "start_time": 18.5136364,
                "end_time": 18.9181818,
                "pitch": 65,
                "velocity": 80,
                "duration": 0.4045455,
                "tempo": 120.0
            },
            {
                "start_time": 18.9181818,
                "end_time": 19.3181818,
                "pitch": 71,
                "velocity": 80,
                "duration": 0.4,
                "tempo": 120.0
            },
            {
                "start_time": 19.3181818,
                "end_time": 19.7295455,
                "pitch": 64,
                "velocity": 80,
                "duration": 0.4113636,
                "tempo": 120.0
            },
            {
                "start_time": 19.7295455,
                "end_time": 20.1295455,
                "pitch": 67,
                "velocity": 80,
                "duration": 0.4,
                "tempo": 120.0
            },
            {
                "start_time": 20.1295455,
                "end_time": 20.5340909,
                "pitch": 72,
                "velocity": 80,
                "duration": 0.4045455,
                "tempo": 120.0
            },
            {
                "start_time": 20.5340909,
                "end_time": 20.9340909,
                "pitch": 76,
                "velocity": 80,
                "duration": 0.4,
                "tempo": 120.0
            },
            {
                "start_time": 20.9340909,
                "end_time": 21.3340909,
                "pitch": 62,
                "velocity": 80,
                "duration": 0.4,
                "tempo": 120.0
            },
            {
                "start_time": 21.3340909,
                "end_time": 21.7363636,
                "pitch": 65,
                "velocity": 80,
                "duration": 0.4022727,
                "tempo": 120.0
            },
            {
                "start_time": 21.7363636,
                "end_time": 22.1386364,
                "pitch": 70,
                "velocity": 80,
                "duration": 0.4022727,
                "tempo": 120.0
            },
            {
                "start_time": 22.1386364,
                "end_time": 22.5409091,
                "pitch": 74,
                "velocity": 80,
                "duration": 0.4022727,
                "tempo": 120.0
            },
            {
                "start_time": 22.5409091,
                "end_time": 22.9409091,
                "pitch": 60,
                "velocity": 80,
                "duration": 0.4,
                "tempo": 120.0
            },
            {
                "start_time": 22.9409091,
                "end_time": 23.3431818,
                "pitch": 65,
                "velocity": 80,
                "duration": 0.4022727,
                "tempo": 120.0
            },
            {
                "start_time": 23.3431818,
                "end_time": 23.7454545,
                "pitch": 69,
                "velocity": 80,
                "duration": 0.4022727,
                "tempo": 120.0
            },
            {
                "start_time": 23.7454545,
                "end_time": 24.1454545,
                "pitch": 72,
                "velocity": 80,
                "duration": 0.4,
                "tempo": 120.0
            },
            {
                "start_time": 24.1454545,
                "end_time": 24.5477273,
                "pitch": 59,
                "velocity": 80,
                "duration": 0.4022727,
                "tempo": 120.0
            },
            {
                "start_time": 24.55,
                "end_time": 24.95,
                "pitch": 62,
                "velocity": 80,
                "duration": 0.4,
                "tempo": 120.0
            },
            {
                "start_time": 24.95,
                "end_time": 25.35,
                "pitch": 65,
                "velocity": 80,
                "duration": 0.4,
                "tempo": 120.0
            },
            {
                "start_time": 25.35,
                "end_time": 25.7545455,
                "pitch": 71,
                "velocity": 80,
                "duration": 0.4045455,
                "tempo": 120.0
            }
        ],
        "Electric Piano 1": [
            {
                "start_time": 0.0045455,
                "end_time": 0.1,
                "pitch": 36,
                "velocity": 64,
                "duration": 0.0954545,
                "tempo": 120.0
            },
            {
                "start_time": 0.2022727,
                "end_time": 0.3022727,
                "pitch": 36,
                "velocity": 64,
                "duration": 0.1,
                "tempo": 120.0
            },
            {
                "start_time": 0.4022727,
                "end_time": 0.5022727,
                "pitch": 36,
                "velocity": 64,
                "duration": 0.1,
                "tempo": 120.0
            },
            {
                "start_time": 0.6022727,
                "end_time": 0.7022727,
                "pitch": 36,
                "velocity": 64,
                "duration": 0.1,
                "tempo": 120.0
            },
            {
                "start_time": 0.8022727,
                "end_time": 0.9022727,
                "pitch": 36,
                "velocity": 64,
                "duration": 0.1,
                "tempo": 120.0
            },
            {
                "start_time": 1.0022727,
                "end_time": 1.1022727,
                "pitch": 36,
                "velocity": 64,
                "duration": 0.1,
                "tempo": 120.0
            },
            {
                "start_time": 1.2022727,
                "end_time": 1.3022727,
                "pitch": 36,
                "velocity": 64,
                "duration": 0.1,
                "tempo": 120.0
            },
            {
                "start_time": 1.4045455,
                "end_time": 1.5022727,
                "pitch": 36,
                "velocity": 64,
                "duration": 0.0977273,
                "tempo": 120.0
            },
            {
                "start_time": 1.6045455,
                "end_time": 1.7045455,
                "pitch": 34,
                "velocity": 64,
                "duration": 0.1,
                "tempo": 120.0
            },
            {
                "start_time": 1.8045455,
                "end_time": 1.9045455,
                "pitch": 34,
                "velocity": 64,
                "duration": 0.1,
                "tempo": 120.0
            },
            {
                "start_time": 2.0068182,
                "end_time": 2.1068182,
                "pitch": 34,
                "velocity": 64,
                "duration": 0.1,
                "tempo": 120.0
            },
            {
                "start_time": 2.2068182,
                "end_time": 2.3068182,
                "pitch": 34,
                "velocity": 64,
                "duration": 0.1,
                "tempo": 120.0
            },
            {
                "start_time": 2.4068182,
                "end_time": 2.5068182,
                "pitch": 34,
                "velocity": 64,
                "duration": 0.1,
                "tempo": 120.0
            },
            {
                "start_time": 2.6068182,
                "end_time": 2.7068182,
                "pitch": 34,
                "velocity": 64,
                "duration": 0.1,
                "tempo": 120.0
            },
            {
                "start_time": 2.8090909,
                "end_time": 2.9068182,
                "pitch": 34,
                "velocity": 64,
                "duration": 0.0977273,
                "tempo": 120.0
            },
            {
                "start_time": 3.0090909,
                "end_time": 3.1068182,
                "pitch": 34,
                "velocity": 64,
                "duration": 0.0977273,
                "tempo": 120.0
            },
            {
                "start_time": 3.2090909,
                "end_time": 3.3090909,
                "pitch": 32,
                "velocity": 64,
                "duration": 0.1,
                "tempo": 120.0
            },
            {
                "start_time": 3.4113636,
                "end_time": 3.5113636,
                "pitch": 32,
                "velocity": 64,
                "duration": 0.1,
                "tempo": 120.0
            },
            {
                "start_time": 3.6113636,
                "end_time": 3.7113636,
                "pitch": 32,
                "velocity": 64,
                "duration": 0.1,
                "tempo": 120.0
            },
            {
                "start_time": 3.8113636,
                "end_time": 3.9113636,
                "pitch": 32,
                "velocity": 64,
                "duration": 0.1,
                "tempo": 120.0
            },
            {
                "start_time": 4.0113636,
                "end_time": 4.1113636,
                "pitch": 32,
                "velocity": 64,
                "duration": 0.1,
                "tempo": 120.0
            },
            {
                "start_time": 4.2136364,
                "end_time": 4.3113636,
                "pitch": 32,
                "velocity": 64,
                "duration": 0.0977273,
                "tempo": 120.0
            },
            {
                "start_time": 4.4136364,
                "end_time": 4.5136364,
                "pitch": 32,
                "velocity": 64,
                "duration": 0.1,
                "tempo": 120.0
            },
            {
                "start_time": 4.6136364,
                "end_time": 4.7136364,
                "pitch": 32,
                "velocity": 64,
                "duration": 0.1,
                "tempo": 120.0
            },
            {
                "start_time": 4.8159091,
                "end_time": 4.9159091,
                "pitch": 34,
                "velocity": 64,
                "duration": 0.1,
                "tempo": 120.0
            },
            {
                "start_time": 5.0159091,
                "end_time": 5.1159091,
                "pitch": 34,
                "velocity": 64,
                "duration": 0.1,
                "tempo": 120.0
            },
            {
                "start_time": 5.2159091,
                "end_time": 5.3159091,
                "pitch": 34,
                "velocity": 64,
                "duration": 0.1,
                "tempo": 120.0
            },
            {
                "start_time": 5.4181818,
                "end_time": 5.5181818,
                "pitch": 34,
                "velocity": 64,
                "duration": 0.1,
                "tempo": 120.0
            },
            {
                "start_time": 5.6204545,
                "end_time": 5.7181818,
                "pitch": 31,
                "velocity": 64,
                "duration": 0.0977273,
                "tempo": 120.0
            },
            {
                "start_time": 5.8204545,
                "end_time": 5.9204545,
                "pitch": 31,
                "velocity": 64,
                "duration": 0.1,
                "tempo": 120.0
            },
            {
                "start_time": 6.0204545,
                "end_time": 6.1204545,
                "pitch": 31,
                "velocity": 64,
                "duration": 0.1,
                "tempo": 120.0
            },
            {
                "start_time": 6.2227273,
                "end_time": 6.3227273,
                "pitch": 31,
                "velocity": 64,
                "duration": 0.1,
                "tempo": 120.0
            },
            {
                "start_time": 6.425,
                "end_time": 6.525,
                "pitch": 36,
                "velocity": 64,
                "duration": 0.1,
                "tempo": 120.0
            },
            {
                "start_time": 6.6295455,
                "end_time": 6.7318182,
                "pitch": 36,
                "velocity": 64,
                "duration": 0.1022727,
                "tempo": 120.0
            },
            {
                "start_time": 6.8363636,
                "end_time": 6.9340909,
                "pitch": 36,
                "velocity": 64,
                "duration": 0.0977273,
                "tempo": 120.0
            },
            {
                "start_time": 7.0363636,
                "end_time": 7.1340909,
                "pitch": 36,
                "velocity": 64,
                "duration": 0.0977273,
                "tempo": 120.0
            },
            {
                "start_time": 7.2363636,
                "end_time": 7.3363636,
                "pitch": 36,
                "velocity": 64,
                "duration": 0.1,
                "tempo": 120.0
            },
            {
                "start_time": 7.4363636,
                "end_time": 7.5363636,
                "pitch": 36,
                "velocity": 64,
                "duration": 0.1,
                "tempo": 120.0
            },
            {
                "start_time": 7.6386364,
                "end_time": 7.7386364,
                "pitch": 36,
                "velocity": 64,
                "duration": 0.1,
                "tempo": 120.0
            },
            {
                "start_time": 7.8409091,
                "end_time": 7.9409091,
                "pitch": 36,
                "velocity": 64,
                "duration": 0.1,
                "tempo": 120.0
            },
            {
                "start_time": 8.0431818,
                "end_time": 8.1409091,
                "pitch": 34,
                "velocity": 64,
                "duration": 0.0977273,
                "tempo": 120.0
            },
            {
                "start_time": 8.2431818,
                "end_time": 8.3409091,
                "pitch": 34,
                "velocity": 64,
                "duration": 0.0977273,
                "tempo": 120.0
            },
            {
                "start_time": 8.4431818,
                "end_time": 8.5431818,
                "pitch": 34,
                "velocity": 64,
                "duration": 0.1,
                "tempo": 120.0
            },
            {
                "start_time": 8.6454545,
                "end_time": 8.7454545,
                "pitch": 34,
                "velocity": 64,
                "duration": 0.1,
                "tempo": 120.0
            },
            {
                "start_time": 8.8454545,
                "end_time": 8.9454545,
                "pitch": 34,
                "velocity": 64,
                "duration": 0.1,
                "tempo": 120.0
            },
            {
                "start_time": 9.0477273,
                "end_time": 9.1477273,
                "pitch": 34,
                "velocity": 64,
                "duration": 0.1,
                "tempo": 120.0
            },
            {
                "start_time": 9.25,
                "end_time": 9.35,
                "pitch": 34,
                "velocity": 64,
                "duration": 0.1,
                "tempo": 120.0
            },
            {
                "start_time": 9.45,
                "end_time": 9.55,
                "pitch": 34,
                "velocity": 64,
                "duration": 0.1,
                "tempo": 120.0
            },
            {
                "start_time": 9.6522727,
                "end_time": 9.7522727,
                "pitch": 32,
                "velocity": 64,
                "duration": 0.1,
                "tempo": 120.0
            },
            {
                "start_time": 9.8522727,
                "end_time": 9.9522727,
                "pitch": 32,
                "velocity": 64,
                "duration": 0.1,
                "tempo": 120.0
            },
            {
                "start_time": 10.0522727,
                "end_time": 10.1522727,
                "pitch": 32,
                "velocity": 64,
                "duration": 0.1,
                "tempo": 120.0
            },
            {
                "start_time": 10.2545455,
                "end_time": 10.3545455,
                "pitch": 32,
                "velocity": 64,
                "duration": 0.1,
                "tempo": 120.0
            },
            {
                "start_time": 10.4568182,
                "end_time": 10.5568182,
                "pitch": 32,
                "velocity": 64,
                "duration": 0.1,
                "tempo": 120.0
            },
            {
                "start_time": 10.6590909,
                "end_time": 10.7568182,
                "pitch": 32,
                "velocity": 64,
                "duration": 0.0977273,
                "tempo": 120.0
            },
            {
                "start_time": 10.8590909,
                "end_time": 10.9590909,
                "pitch": 32,
                "velocity": 64,
                "duration": 0.1,
                "tempo": 120.0
            },
            {
                "start_time": 11.0613636,
                "end_time": 11.1613636,
                "pitch": 32,
                "velocity": 64,
                "duration": 0.1,
                "tempo": 120.0
            },
            {
                "start_time": 11.2636364,
                "end_time": 11.3636364,
                "pitch": 34,
                "velocity": 64,
                "duration": 0.1,
                "tempo": 120.0
            },
            {
                "start_time": 11.4636364,
                "end_time": 11.5636364,
                "pitch": 34,
                "velocity": 64,
                "duration": 0.1,
                "tempo": 120.0
            },
            {
                "start_time": 11.6659091,
                "end_time": 11.7659091,
                "pitch": 34,
                "velocity": 64,
                "duration": 0.1,
                "tempo": 120.0
            },
            {
                "start_time": 11.8659091,
                "end_time": 11.9659091,
                "pitch": 34,
                "velocity": 64,
                "duration": 0.1,
                "tempo": 120.0
            },
            {
                "start_time": 12.0659091,
                "end_time": 12.1681818,
                "pitch": 31,
                "velocity": 64,
                "duration": 0.1022727,
                "tempo": 120.0
            },
            {
                "start_time": 12.2681818,
                "end_time": 12.3681818,
                "pitch": 31,
                "velocity": 64,
                "duration": 0.1,
                "tempo": 120.0
            },
            {
                "start_time": 12.4704545,
                "end_time": 12.5704545,
                "pitch": 31,
                "velocity": 64,
                "duration": 0.1,
                "tempo": 120.0
            },
            {
                "start_time": 12.6704545,
                "end_time": 12.7704545,
                "pitch": 31,
                "velocity": 64,
                "duration": 0.1,
                "tempo": 120.0
            },
            {
                "start_time": 12.875,
                "end_time": 12.975,
                "pitch": 36,
                "velocity": 64,
                "duration": 0.1,
                "tempo": 120.0
            },
            {
                "start_time": 13.0795455,
                "end_time": 13.1818182,
                "pitch": 36,
                "velocity": 64,
                "duration": 0.1022727,
                "tempo": 120.0
            },
            {
                "start_time": 13.2840909,
                "end_time": 13.3840909,
                "pitch": 36,
                "velocity": 64,
                "duration": 0.1,
                "tempo": 120.0
            },
            {
                "start_time": 13.4863636,
                "end_time": 13.5863636,
                "pitch": 36,
                "velocity": 64,
                "duration": 0.1,
                "tempo": 120.0
            },
            {
                "start_time": 13.6886364,
                "end_time": 13.7863636,
                "pitch": 36,
                "velocity": 64,
                "duration": 0.0977273,
                "tempo": 120.0
            },
            {
                "start_time": 13.8886364,
                "end_time": 13.9863636,
                "pitch": 36,
                "velocity": 64,
                "duration": 0.0977273,
                "tempo": 120.0
            },
            {
                "start_time": 14.0886364,
                "end_time": 14.1886364,
                "pitch": 36,
                "velocity": 64,
                "duration": 0.1,
                "tempo": 120.0
            },
            {
                "start_time": 14.2909091,
                "end_time": 14.3909091,
                "pitch": 36,
                "velocity": 64,
                "duration": 0.1,
                "tempo": 120.0
            },
            {
                "start_time": 14.4909091,
                "end_time": 14.5909091,
                "pitch": 34,
                "velocity": 64,
                "duration": 0.1,
                "tempo": 120.0
            },
            {
                "start_time": 14.6931818,
                "end_time": 14.7931818,
                "pitch": 34,
                "velocity": 64,
                "duration": 0.1,
                "tempo": 120.0
            },
            {
                "start_time": 14.8954545,
                "end_time": 14.9954545,
                "pitch": 34,
                "velocity": 64,
                "duration": 0.1,
                "tempo": 120.0
            },
            {
                "start_time": 15.0954545,
                "end_time": 15.1954545,
                "pitch": 34,
                "velocity": 64,
                "duration": 0.1,
                "tempo": 120.0
            },
            {
                "start_time": 15.2977273,
                "end_time": 15.3977273,
                "pitch": 34,
                "velocity": 64,
                "duration": 0.1,
                "tempo": 120.0
            },
            {
                "start_time": 15.5,
                "end_time": 15.6,
                "pitch": 34,
                "velocity": 64,
                "duration": 0.1,
                "tempo": 120.0
            },
            {
                "start_time": 15.7022727,
                "end_time": 15.8,
                "pitch": 34,
                "velocity": 64,
                "duration": 0.0977273,
                "tempo": 120.0
            },
            {
                "start_time": 15.9022727,
                "end_time": 16.0,
                "pitch": 34,
                "velocity": 64,
                "duration": 0.0977273,
                "tempo": 120.0
            },
            {
                "start_time": 16.1022727,
                "end_time": 16.2022727,
                "pitch": 33,
                "velocity": 64,
                "duration": 0.1,
                "tempo": 120.0
            },
            {
                "start_time": 16.3045455,
                "end_time": 16.4022727,
                "pitch": 33,
                "velocity": 64,
                "duration": 0.0977273,
                "tempo": 120.0
            },
            {
                "start_time": 16.5045455,
                "end_time": 16.6045455,
                "pitch": 33,
                "velocity": 64,
                "duration": 0.1,
                "tempo": 120.0
            },
            {
                "start_time": 16.7068182,
                "end_time": 16.8068182,
                "pitch": 33,
                "velocity": 64,
                "duration": 0.1,
                "tempo": 120.0
            },
            {
                "start_time": 16.9090909,
                "end_time": 17.0068182,
                "pitch": 33,
                "velocity": 64,
                "duration": 0.0977273,
                "tempo": 120.0
            },
            {
                "start_time": 17.1090909,
                "end_time": 17.2068182,
                "pitch": 33,
                "velocity": 64,
                "duration": 0.0977273,
                "tempo": 120.0
            },
            {
                "start_time": 17.3090909,
                "end_time": 17.4090909,
                "pitch": 33,
                "velocity": 64,
                "duration": 0.1,
                "tempo": 120.0
            },
            {
                "start_time": 17.5090909,
                "end_time": 17.6090909,
                "pitch": 33,
                "velocity": 64,
                "duration": 0.1,
                "tempo": 120.0
            },
            {
                "start_time": 17.7090909,
                "end_time": 17.8090909,
                "pitch": 31,
                "velocity": 64,
                "duration": 0.1,
                "tempo": 120.0
            },
            {
                "start_time": 17.9113636,
                "end_time": 18.0113636,
                "pitch": 31,
                "velocity": 64,
                "duration": 0.1,
                "tempo": 120.0
            },
            {
                "start_time": 18.1136364,
                "end_time": 18.2113636,
                "pitch": 31,
                "velocity": 64,
                "duration": 0.0977273,
                "tempo": 120.0
            },
            {
                "start_time": 18.3136364,
                "end_time": 18.4113636,
                "pitch": 31,
                "velocity": 64,
                "duration": 0.0977273,
                "tempo": 120.0
            },
            {
                "start_time": 18.5136364,
                "end_time": 18.6136364,
                "pitch": 34,
                "velocity": 64,
                "duration": 0.1,
                "tempo": 120.0
            },
            {
                "start_time": 18.7159091,
                "end_time": 18.8136364,
                "pitch": 34,
                "velocity": 64,
                "duration": 0.0977273,
                "tempo": 120.0
            },
            {
                "start_time": 18.9159091,
                "end_time": 19.0159091,
                "pitch": 35,
                "velocity": 64,
                "duration": 0.1,
                "tempo": 120.0
            },
            {
                "start_time": 19.1181818,
                "end_time": 19.2159091,
                "pitch": 35,
                "velocity": 64,
                "duration": 0.0977273,
                "tempo": 120.0
            },
            {
                "start_time": 19.3181818,
                "end_time": 19.4181818,
                "pitch": 36,
                "velocity": 64,
                "duration": 0.1,
                "tempo": 120.0
            },
            {
                "start_time": 19.5227273,
                "end_time": 19.625,
                "pitch": 36,
                "velocity": 64,
                "duration": 0.1022727,
                "tempo": 120.0
            },
            {
                "start_time": 19.7272727,
                "end_time": 19.8272727,
                "pitch": 36,
                "velocity": 64,
                "duration": 0.1,
                "tempo": 120.0
            },
            {
                "start_time": 19.9295455,
                "end_time": 20.0272727,
                "pitch": 36,
                "velocity": 64,
                "duration": 0.0977273,
                "tempo": 120.0
            },
            {
                "start_time": 20.1295455,
                "end_time": 20.2295455,
                "pitch": 36,
                "velocity": 64,
                "duration": 0.1,
                "tempo": 120.0
            },
            {
                "start_time": 20.3295455,
                "end_time": 20.4295455,
                "pitch": 36,
                "velocity": 64,
                "duration": 0.1,
                "tempo": 120.0
            },
            {
                "start_time": 20.5340909,
                "end_time": 20.6318182,
                "pitch": 36,
                "velocity": 64,
                "duration": 0.0977273,
                "tempo": 120.0
            },
            {
                "start_time": 20.7318182,
                "end_time": 20.8318182,
                "pitch": 36,
                "velocity": 64,
                "duration": 0.1,
                "tempo": 120.0
            },
            {
                "start_time": 20.9340909,
                "end_time": 21.0318182,
                "pitch": 34,
                "velocity": 64,
                "duration": 0.0977273,
                "tempo": 120.0
            },
            {
                "start_time": 21.1340909,
                "end_time": 21.2318182,
                "pitch": 34,
                "velocity": 64,
                "duration": 0.0977273,
                "tempo": 120.0
            },
            {
                "start_time": 21.3340909,
                "end_time": 21.4340909,
                "pitch": 34,
                "velocity": 64,
                "duration": 0.1,
                "tempo": 120.0
            },
            {
                "start_time": 21.5340909,
                "end_time": 21.6340909,
                "pitch": 34,
                "velocity": 64,
                "duration": 0.1,
                "tempo": 120.0
            },
            {
                "start_time": 21.7363636,
                "end_time": 21.8363636,
                "pitch": 34,
                "velocity": 64,
                "duration": 0.1,
                "tempo": 120.0
            },
            {
                "start_time": 21.9363636,
                "end_time": 22.0363636,
                "pitch": 34,
                "velocity": 64,
                "duration": 0.1,
                "tempo": 120.0
            },
            {
                "start_time": 22.1386364,
                "end_time": 22.2363636,
                "pitch": 34,
                "velocity": 64,
                "duration": 0.0977273,
                "tempo": 120.0
            },
            {
                "start_time": 22.3386364,
                "end_time": 22.4386364,
                "pitch": 34,
                "velocity": 64,
                "duration": 0.1,
                "tempo": 120.0
            },
            {
                "start_time": 22.5409091,
                "end_time": 22.6386364,
                "pitch": 33,
                "velocity": 64,
                "duration": 0.0977273,
                "tempo": 120.0
            },
            {
                "start_time": 22.7409091,
                "end_time": 22.8409091,
                "pitch": 33,
                "velocity": 64,
                "duration": 0.1,
                "tempo": 120.0
            },
            {
                "start_time": 22.9409091,
                "end_time": 23.0409091,
                "pitch": 33,
                "velocity": 64,
                "duration": 0.1,
                "tempo": 120.0
            },
            {
                "start_time": 23.1409091,
                "end_time": 23.2409091,
                "pitch": 33,
                "velocity": 64,
                "duration": 0.1,
                "tempo": 120.0
            },
            {
                "start_time": 23.3409091,
                "end_time": 23.4409091,
                "pitch": 33,
                "velocity": 64,
                "duration": 0.1,
                "tempo": 120.0
            },
            {
                "start_time": 23.5431818,
                "end_time": 23.6431818,
                "pitch": 33,
                "velocity": 64,
                "duration": 0.1,
                "tempo": 120.0
            },
            {
                "start_time": 23.7454545,
                "end_time": 23.8431818,
                "pitch": 33,
                "velocity": 64,
                "duration": 0.0977273,
                "tempo": 120.0
            },
            {
                "start_time": 23.9454545,
                "end_time": 24.0431818,
                "pitch": 33,
                "velocity": 64,
                "duration": 0.0977273,
                "tempo": 120.0
            },
            {
                "start_time": 24.1454545,
                "end_time": 24.2454545,
                "pitch": 31,
                "velocity": 64,
                "duration": 0.1,
                "tempo": 120.0
            },
            {
                "start_time": 24.3477273,
                "end_time": 24.4477273,
                "pitch": 31,
                "velocity": 64,
                "duration": 0.1,
                "tempo": 120.0
            },
            {
                "start_time": 24.5477273,
                "end_time": 24.6477273,
                "pitch": 31,
                "velocity": 64,
                "duration": 0.1,
                "tempo": 120.0
            },
            {
                "start_time": 24.7477273,
                "end_time": 24.8477273,
                "pitch": 31,
                "velocity": 64,
                "duration": 0.1,
                "tempo": 120.0
            },
            {
                "start_time": 24.95,
                "end_time": 25.0477273,
                "pitch": 34,
                "velocity": 64,
                "duration": 0.0977273,
                "tempo": 120.0
            },
            {
                "start_time": 25.15,
                "end_time": 25.2477273,
                "pitch": 34,
                "velocity": 64,
                "duration": 0.0977273,
                "tempo": 120.0
            },
            {
                "start_time": 25.35,
                "end_time": 25.45,
                "pitch": 35,
                "velocity": 64,
                "duration": 0.1,
                "tempo": 120.0
            },
            {
                "start_time": 25.5522727,
                "end_time": 25.65,
                "pitch": 35,
                "velocity": 64,
                "duration": 0.0977273,
                "tempo": 120.0
            },
            {
                "start_time": 25.7545455,
                "end_time": 25.8181818,
                "pitch": 36,
                "velocity": 64,
                "duration": 0.0636364,
                "tempo": 120.0
            },
            {
                "start_time": 25.8863636,
                "end_time": 25.9522727,
                "pitch": 36,
                "velocity": 64,
                "duration": 0.0659091,
                "tempo": 120.0
            },
            {
                "start_time": 26.0204545,
                "end_time": 26.0863636,
                "pitch": 36,
                "velocity": 64,
                "duration": 0.0659091,
                "tempo": 120.0
            },
            {
                "start_time": 26.1545455,
                "end_time": 26.2204545,
                "pitch": 34,
                "velocity": 64,
                "duration": 0.0659091,
                "tempo": 120.0
            },
            {
                "start_time": 26.2909091,
                "end_time": 26.3590909,
                "pitch": 34,
                "velocity": 64,
                "duration": 0.0681818,
                "tempo": 120.0
            },
            {
                "start_time": 26.4295455,
                "end_time": 26.4954545,
                "pitch": 34,
                "velocity": 64,
                "duration": 0.0659091,
                "tempo": 120.0
            },
            {
                "start_time": 26.5659091,
                "end_time": 26.6318182,
                "pitch": 32,
                "velocity": 64,
                "duration": 0.0659091,
                "tempo": 120.0
            },
            {
                "start_time": 26.7,
                "end_time": 26.7659091,
                "pitch": 32,
                "velocity": 64,
                "duration": 0.0659091,
                "tempo": 120.0
            },
            {
                "start_time": 26.8340909,
                "end_time": 26.9,
                "pitch": 32,
                "velocity": 64,
                "duration": 0.0659091,
                "tempo": 120.0
            },
            {
                "start_time": 26.9681818,
                "end_time": 27.0340909,
                "pitch": 31,
                "velocity": 64,
                "duration": 0.0659091,
                "tempo": 120.0
            },
            {
                "start_time": 27.1022727,
                "end_time": 27.1681818,
                "pitch": 31,
                "velocity": 64,
                "duration": 0.0659091,
                "tempo": 120.0
            },
            {
                "start_time": 27.2363636,
                "end_time": 27.3,
                "pitch": 31,
                "velocity": 64,
                "duration": 0.0636364,
                "tempo": 120.0
            },
            {
                "start_time": 27.3704545,
                "end_time": 27.4340909,
                "pitch": 36,
                "velocity": 64,
                "duration": 0.0636364,
                "tempo": 120.0
            },
            {
                "start_time": 27.5022727,
                "end_time": 27.5681818,
                "pitch": 36,
                "velocity": 64,
                "duration": 0.0659091,
                "tempo": 120.0
            },
            {
                "start_time": 27.6363636,
                "end_time": 27.7022727,
                "pitch": 36,
                "velocity": 64,
                "duration": 0.0659091,
                "tempo": 120.0
            },
            {
                "start_time": 27.7704545,
                "end_time": 27.8363636,
                "pitch": 34,
                "velocity": 64,
                "duration": 0.0659091,
                "tempo": 120.0
            },
            {
                "start_time": 27.9045455,
                "end_time": 27.9704545,
                "pitch": 34,
                "velocity": 64,
                "duration": 0.0659091,
                "tempo": 120.0
            },
            {
                "start_time": 28.0386364,
                "end_time": 28.1045455,
                "pitch": 34,
                "velocity": 64,
                "duration": 0.0659091,
                "tempo": 120.0
            },
            {
                "start_time": 28.1727273,
                "end_time": 28.2386364,
                "pitch": 32,
                "velocity": 64,
                "duration": 0.0659091,
                "tempo": 120.0
            },
            {
                "start_time": 28.3068182,
                "end_time": 28.3727273,
                "pitch": 32,
                "velocity": 64,
                "duration": 0.0659091,
                "tempo": 120.0
            },
            {
                "start_time": 28.4409091,
                "end_time": 28.5045455,
                "pitch": 32,
                "velocity": 64,
                "duration": 0.0636364,
                "tempo": 120.0
            },
            {
                "start_time": 28.575,
                "end_time": 28.6386364,
                "pitch": 31,
                "velocity": 64,
                "duration": 0.0636364,
                "tempo": 120.0
            },
            {
                "start_time": 28.7090909,
                "end_time": 28.7727273,
                "pitch": 31,
                "velocity": 64,
                "duration": 0.0636364,
                "tempo": 120.0
            },
            {
                "start_time": 28.8431818,
                "end_time": 28.9090909,
                "pitch": 31,
                "velocity": 64,
                "duration": 0.0659091,
                "tempo": 120.0
            },
            {
                "start_time": 28.9772727,
                "end_time": 29.075,
                "pitch": 32,
                "velocity": 64,
                "duration": 0.0977273,
                "tempo": 120.0
            },
            {
                "start_time": 29.1772727,
                "end_time": 29.275,
                "pitch": 32,
                "velocity": 64,
                "duration": 0.0977273,
                "tempo": 120.0
            },
            {
                "start_time": 29.3772727,
                "end_time": 29.475,
                "pitch": 32,
                "velocity": 64,
                "duration": 0.0977273,
                "tempo": 120.0
            },
            {
                "start_time": 29.5772727,
                "end_time": 29.6772727,
                "pitch": 32,
                "velocity": 64,
                "duration": 0.1,
                "tempo": 120.0
            },
            {
                "start_time": 29.7772727,
                "end_time": 29.8772727,
                "pitch": 32,
                "velocity": 64,
                "duration": 0.1,
                "tempo": 120.0
            },
            {
                "start_time": 29.9795455,
                "end_time": 30.0795455,
                "pitch": 32,
                "velocity": 64,
                "duration": 0.1,
                "tempo": 120.0
            },
            {
                "start_time": 30.1818182,
                "end_time": 30.2795455,
                "pitch": 32,
                "velocity": 64,
                "duration": 0.0977273,
                "tempo": 120.0
            },
            {
                "start_time": 30.3818182,
                "end_time": 30.4795455,
                "pitch": 32,
                "velocity": 64,
                "duration": 0.0977273,
                "tempo": 120.0
            },
            {
                "start_time": 30.5818182,
                "end_time": 30.6818182,
                "pitch": 34,
                "velocity": 64,
                "duration": 0.1,
                "tempo": 120.0
            },
            {
                "start_time": 30.7840909,
                "end_time": 30.8818182,
                "pitch": 34,
                "velocity": 64,
                "duration": 0.0977273,
                "tempo": 120.0
            },
            {
                "start_time": 30.9840909,
                "end_time": 31.0840909,
                "pitch": 34,
                "velocity": 64,
                "duration": 0.1,
                "tempo": 120.0
            },
            {
                "start_time": 31.1840909,
                "end_time": 31.2840909,
                "pitch": 34,
                "velocity": 64,
                "duration": 0.1,
                "tempo": 120.0
            },
            {
                "start_time": 31.3863636,
                "end_time": 31.4840909,
                "pitch": 34,
                "velocity": 64,
                "duration": 0.0977273,
                "tempo": 120.0
            },
            {
                "start_time": 31.5863636,
                "end_time": 31.6840909,
                "pitch": 34,
                "velocity": 64,
                "duration": 0.0977273,
                "tempo": 120.0
            },
            {
                "start_time": 31.7863636,
                "end_time": 31.8863636,
                "pitch": 34,
                "velocity": 64,
                "duration": 0.1,
                "tempo": 120.0
            },
            {
                "start_time": 31.9886364,
                "end_time": 32.0886364,
                "pitch": 34,
                "velocity": 64,
                "duration": 0.1,
                "tempo": 120.0
            }
        ],
        "Harpsichord": [
            {
                "start_time": 28.9772727,
                "end_time": 29.1772727,
                "pitch": 75,
                "velocity": 80,
                "duration": 0.2,
                "tempo": 120.0
            },
            {
                "start_time": 29.1772727,
                "end_time": 29.3772727,
                "pitch": 72,
                "velocity": 80,
                "duration": 0.2,
                "tempo": 120.0
            },
            {
                "start_time": 29.3772727,
                "end_time": 29.5772727,
                "pitch": 80,
                "velocity": 80,
                "duration": 0.2,
                "tempo": 120.0
            },
            {
                "start_time": 29.5772727,
                "end_time": 29.7772727,
                "pitch": 79,
                "velocity": 80,
                "duration": 0.2,
                "tempo": 120.0
            },
            {
                "start_time": 29.7772727,
                "end_time": 29.9795455,
                "pitch": 77,
                "velocity": 80,
                "duration": 0.2022727,
                "tempo": 120.0
            },
            {
                "start_time": 29.9795455,
                "end_time": 30.1795455,
                "pitch": 75,
                "velocity": 80,
                "duration": 0.2,
                "tempo": 120.0
            },
            {
                "start_time": 30.1795455,
                "end_time": 30.3795455,
                "pitch": 74,
                "velocity": 80,
                "duration": 0.2,
                "tempo": 120.0
            },
            {
                "start_time": 30.3818182,
                "end_time": 30.5818182,
                "pitch": 72,
                "velocity": 80,
                "duration": 0.2,
                "tempo": 120.0
            },
            {
                "start_time": 30.5818182,
                "end_time": 30.7818182,
                "pitch": 77,
                "velocity": 80,
                "duration": 0.2,
                "tempo": 120.0
            },
            {
                "start_time": 30.7818182,
                "end_time": 30.9840909,
                "pitch": 74,
                "velocity": 80,
                "duration": 0.2022727,
                "tempo": 120.0
            },
            {
                "start_time": 30.9840909,
                "end_time": 31.1840909,
                "pitch": 82,
                "velocity": 80,
                "duration": 0.2,
                "tempo": 120.0
            },
            {
                "start_time": 31.1840909,
                "end_time": 31.3840909,
                "pitch": 80,
                "velocity": 80,
                "duration": 0.2,
                "tempo": 120.0
            },
            {
                "start_time": 31.3840909,
                "end_time": 31.5840909,
                "pitch": 79,
                "velocity": 80,
                "duration": 0.2,
                "tempo": 120.0
            },
            {
                "start_time": 31.5840909,
                "end_time": 31.7840909,
                "pitch": 77,
                "velocity": 80,
                "duration": 0.2,
                "tempo": 120.0
            },
            {
                "start_time": 31.7863636,
                "end_time": 31.9863636,
                "pitch": 75,
                "velocity": 80,
                "duration": 0.2,
                "tempo": 120.0
            },
            {
                "start_time": 31.9863636,
                "end_time": 32.1886364,
                "pitch": 74,
                "velocity": 80,
                "duration": 0.2022727,
                "tempo": 120.0
            }
        ]
    }
}