{
    "mood": "angry",
    "instruments": {
        "Acoustic Bass": [
            {
                "start_time": 0.3227273,
                "end_time": 0.4636364,
                "pitch": 33,
                "velocity": 80,
                "duration": 0.1409091,
                "tempo": 120.0
            },
            {
                "start_time": 0.4659091,
                "end_time": 0.6181818,
                "pitch": 33,
                "velocity": 80,
                "duration": 0.1522727,
                "tempo": 120.0
            },
            {
                "start_time": 0.6204545,
                "end_time": 0.7659091,
                "pitch": 33,
                "velocity": 80,
                "duration": 0.1454545,
                "tempo": 120.0
            },
            {
                "start_time": 0.7659091,
                "end_time": 0.9159091,
                "pitch": 33,
                "velocity": 80,
                "duration": 0.15,
                "tempo": 120.0
            },
            {
                "start_time": 0.9159091,
                "end_time": 1.0704545,
                "pitch": 33,
                "velocity": 80,
                "duration": 0.1545455,
                "tempo": 120.0
            },
            {
                "start_time": 1.0704545,
                "end_time": 1.2159091,
                "pitch": 33,
                "velocity": 80,
                "duration": 0.1454545,
                "tempo": 120.0
            },
            {
                "start_time": 1.2159091,
                "end_time": 1.3659091,
                "pitch": 33,
                "velocity": 80,
                "duration": 0.15,
                "tempo": 120.0
            },
            {
                "start_time": 1.3659091,
                "end_time": 1.5204545,
                "pitch": 33,
                "velocity": 80,
                "duration": 0.1545455,
                "tempo": 120.0
            },
            {
                "start_time": 1.5204545,
                "end_time": 1.6659091,
                "pitch": 33,
                "velocity": 80,
                "duration": 0.1454545,
                "tempo": 120.0
            },
            {
                "start_time": 1.6659091,
                "end_time": 1.8159091,
                "pitch": 33,
                "velocity": 80,
                "duration": 0.15,
                "tempo": 120.0
            },
            {
                "start_time": 1.8181818,
                "end_time": 1.9727273,
                "pitch": 33,
                "velocity": 80,
                "duration": 0.1545455,
                "tempo": 120.0
            },
            {
                "start_time": 1.9727273,
                "end_time": 2.1204545,
                "pitch": 33,
                "velocity": 80,
                "duration": 0.1477273,
                "tempo": 120.0
            },
            {
                "start_time": 2.1204545,
                "end_time": 2.2704545,
                "pitch": 33,
                "velocity": 80,
                "duration": 0.15,
                "tempo": 120.0
            },
            {
                "start_time": 2.2727273,
                "end_time": 2.4272727,
                "pitch": 33,
                "velocity": 80,
                "duration": 0.1545455,
                "tempo": 120.0
            },
            {
                "start_time": 2.4272727,
                "end_time": 2.575,
                "pitch": 33,
                "velocity": 80,
                "duration": 0.1477273,
                "tempo": 120.0
            },
            {
                "start_time": 2.575,
                "end_time": 2.725,
                "pitch": 33,
                "velocity": 80,
                "duration": 0.15,
                "tempo": 120.0
            },
            {
                "start_time": 2.7272727,
                "end_time": 2.875,
                "pitch": 33,
                "velocity": 80,
                "duration": 0.1477273,
                "tempo": 120.0
            },
            {
                "start_time": 2.875,
                "end_time": 3.0295455,
                "pitch": 33,
                "velocity": 80,
                "duration": 0.1545455,
                "tempo": 120.0
            },
            {
                "start_time": 3.0295455,
                "end_time": 3.175,
                "pitch": 33,
                "velocity": 80,
                "duration": 0.1454545,
                "tempo": 120.0
            },
            {
                "start_time": 3.1772727,
                "end_time": 3.3272727,
                "pitch": 33,
                "velocity": 80,
                "duration": 0.15,
                "tempo": 120.0
            },
            {
                "start_time": 3.3272727,
                "end_time": 3.4840909,
                "pitch": 33,
                "velocity": 80,
                "duration": 0.1568182,
                "tempo": 120.0
            },
            {
                "start_time": 3.4840909,
                "end_time": 3.6318182,
                "pitch": 33,
                "velocity": 80,
                "duration": 0.1477273,
                "tempo": 120.0
            },
            {
                "start_time": 3.6318182,
                "end_time": 3.7818182,
                "pitch": 33,
                "velocity": 80,
                "duration": 0.15,
                "tempo": 120.0
            },
            {
                "start_time": 3.7840909,
                "end_time": 3.9386364,
                "pitch": 33,
                "velocity": 80,
                "duration": 0.1545455,
                "tempo": 120.0
            },
            {
                "start_time": 3.9409091,
                "end_time": 4.0863636,
                "pitch": 33,
                "velocity": 80,
                "duration": 0.1454545,
                "tempo": 120.0
            },
            {
                "start_time": 4.0863636,
                "end_time": 4.2386364,
                "pitch": 33,
                "velocity": 80,
                "duration": 0.1522727,
                "tempo": 120.0
            },
            {
                "start_time": 4.2386364,
                "end_time": 4.3931818,
                "pitch": 33,
                "velocity": 80,
                "duration": 0.1545455,
                "tempo": 120.0
            },
            {
                "start_time": 4.3931818,
                "end_time": 4.5386364,
                "pitch": 33,
                "velocity": 80,
                "duration": 0.1454545,
                "tempo": 120.0
            },
            {
                "start_time": 4.5386364,
                "end_time": 4.6886364,
                "pitch": 33,
                "velocity": 80,
                "duration": 0.15,
                "tempo": 120.0
            },
            {
                "start_time": 4.6886364,
                "end_time": 4.8431818,
                "pitch": 33,
                "velocity": 80,
                "duration": 0.1545455,
                "tempo": 120.0
            },
            {
                "start_time": 4.8431818,
                "end_time": 4.9909091,
                "pitch": 33,
                "velocity": 80,
                "duration": 0.1477273,
                "tempo": 120.0
            },
            {
                "start_time": 4.9931818,
                "end_time": 5.1431818,
                "pitch": 33,
                "velocity": 80,
                "duration": 0.15,
                "tempo": 120.0
            },
            {
                "start_time": 5.1454545,
                "end_time": 5.2931818,
                "pitch": 35,
                "velocity": 80,
                "duration": 0.1477273,
                "tempo": 120.0
            },
            {
                "start_time": 5.2954545,
                "end_time": 5.45,
                "pitch": 35,
                "velocity": 80,
                "duration": 0.1545455,
                "tempo": 120.0
            },
            {
                "start_time": 5.45,
                "end_time": 5.5954545,
                "pitch": 35,
                "velocity": 80,
                "duration": 0.1454545,
                "tempo": 120.0
            },
            {
                "start_time": 5.5954545,
                "end_time": 5.7454545,
                "pitch": 35,
                "velocity": 80,
                "duration": 0.15,
                "tempo": 120.0
            },
            {
                "start_time": 5.7477273,
                "end_time": 5.9,
                "pitch": 35,
                "velocity": 80,
                "duration": 0.1522727,
                "tempo": 120.0
            },
            {
                "start_time": 5.9,
                "end_time": 6.0454545,
                "pitch": 35,
                "velocity": 80,
                "duration": 0.1454545,
                "tempo": 120.0
            },
            {
                "start_time": 6.0477273,
                "end_time": 6.2,
                "pitch": 35,
                "velocity": 80,
                "duration": 0.1522727,
                "tempo": 120.0
            },
            {
                "start_time": 6.2,
                "end_time": 6.3568182,
                "pitch": 35,
                "velocity": 80,
                "duration": 0.1568182,
                "tempo": 120.0
            },
            {
                "start_time": 6.3590909,
                "end_time": 6.5068182,
                "pitch": 35,
                "velocity": 80,
                "duration": 0.1477273,
                "tempo": 120.0
            },
            {
                "start_time": 6.5068182,
                "end_time": 6.6590909,
                "pitch": 35,
                "velocity": 80,
                "duration": 0.1522727,
                "tempo": 120.0
            },
            {
                "start_time": 6.6590909,
                "end_time": 6.8113636,
                "pitch": 35,
                "velocity": 80,
                "duration": 0.1522727,
                "tempo": 120.0
            },
            {
                "start_time": 6.8113636,
                "end_time": 6.9568182,
                "pitch": 35,
                "velocity": 80,
                "duration": 0.1454545,
                "tempo": 120.0
            },
            {
                "start_time": 6.9568182,
                "end_time": 7.1045455,
                "pitch": 35,
                "velocity": 80,
                "duration": 0.1477273,
                "tempo": 120.0
            },
            {
                "start_time": 7.1068182,
                "end_time": 7.2590909,
                "pitch": 35,
                "velocity": 80,
                "duration": 0.1522727,
                "tempo": 120.0
            },
            {
                "start_time": 7.2590909,
                "end_time": 7.4090909,
                "pitch": 35,
                "velocity": 80,
                "duration": 0.15,
                "tempo": 120.0
            },
            {
                "start_time": 7.4090909,
                "end_time": 7.5613636,
                "pitch": 35,
                "velocity": 80,
                "duration": 0.1522727,
                "tempo": 120.0
            },
            {
                "start_time": 7.5636364,
                "end_time": 7.7136364,
                "pitch": 35,
                "velocity": 80,
                "duration": 0.15,
                "tempo": 120.0
            },
            {
                "start_time": 7.7136364,
                "end_time": 7.8704545,
                "pitch": 35,
                "velocity": 80,
                "duration": 0.1568182,
                "tempo": 120.0
            },
            {
                "start_time": 7.8704545,
                "end_time": 8.0159091,
                "pitch": 35,
                "velocity": 80,
                "duration": 0.1454545,
                "tempo": 120.0
            },
            {
                "start_time": 8.0181818,
                "end_time": 8.1681818,
                "pitch": 35,
                "velocity": 80,
                "duration": 0.15,
                "tempo": 120.0
            },
            {
                "start_time": 8.1681818,
                "end_time": 8.3227273,
                "pitch": 35,
                "velocity": 80,
                "duration": 0.1545455,
                "tempo": 120.0
            },
            {
                "start_time": 8.3227273,
                "end_time": 8.4681818,
                "pitch": 35,
                "velocity": 80,
                "duration": 0.1454545,
                "tempo": 120.0
            },
            {
                "start_time": 8.4681818,
                "end_time": 8.6181818,
                "pitch": 35,
                "velocity": 80,
                "duration": 0.15,
                "tempo": 120.0
            },
            {
                "start_time": 8.6181818,
                "end_time": 8.7727273,
                "pitch": 35,
                "velocity": 80,
                "duration": 0.1545455,
                "tempo": 120.0
            },
            {
                "start_time": 8.7727273,
                "end_time": 8.9181818,
                "pitch": 35,
                "velocity": 80,
                "duration": 0.1454545,
                "tempo": 120.0
            },
            {
                "start_time": 8.9181818,
                "end_time": 9.0681818,
                "pitch": 35,
                "velocity": 80,
                "duration": 0.15,
                "tempo": 120.0
            },
            {
                "start_time": 9.0681818,
                "end_time": 9.2227273,
                "pitch": 35,
                "velocity": 80,
                "duration": 0.1545455,
                "tempo": 120.0
            },
            {
                "start_time": 9.2227273,
                "end_time": 9.3681818,
                "pitch": 35,
                "velocity": 80,
                "duration": 0.1454545,
                "tempo": 120.0
            },
            {
                "start_time": 9.3704545,
                "end_time": 9.5181818,
                "pitch": 35,
                "velocity": 80,
                "duration": 0.1477273,
                "tempo": 120.0
            },
            {
                "start_time": 9.5204545,
                "end_time": 9.675,
                "pitch": 35,
                "velocity": 80,
                "duration": 0.1545455,
                "tempo": 120.0
            },
            {
                "start_time": 9.675,
                "end_time": 9.8204545,
                "pitch": 35,
                "velocity": 80,
                "duration": 0.1454545,
                "tempo": 120.0
            },
            {
                "start_time": 9.8227273,
                "end_time": 9.975,
                "pitch": 35,
                "velocity": 80,
                "duration": 0.1522727,
                "tempo": 120.0
            },
            {
                "start_time": 9.9909091,
                "end_time": 10.1181818,
                "pitch": 33,
                "velocity": 80,
                "duration": 0.1272727,
                "tempo": 120.0
            }
        ],
        "Electric Piano 1": [
            {
                "start_time": 0.3136364,
                "end_time": 0.4590909,
                "pitch": 45,
                "velocity": 64,
                "duration": 0.1454545,
                "tempo": 120.0
            },
            {
                "start_time": 0.4613636,
                "end_time": 0.6090909,
                "pitch": 45,
                "velocity": 64,
                "duration": 0.1477273,
                "tempo": 120.0
            },
            {
                "start_time": 0.6113636,
                "end_time": 0.7590909,
                "pitch": 45,
                "velocity": 64,
                "duration": 0.1477273,
                "tempo": 120.0
            },
            {
                "start_time": 0.7613636,
                "end_time": 0.9090909,
                "pitch": 45,
                "velocity": 64,
                "duration": 0.1477273,
                "tempo": 120.0
            },
            {
                "start_time": 0.9113636,
                "end_time": 1.0590909,
                "pitch": 45,
                "velocity": 64,
                "duration": 0.1477273,
                "tempo": 120.0
            },
            {
                "start_time": 1.0613636,
                "end_time": 1.2090909,
                "pitch": 45,
                "velocity": 64,
                "duration": 0.1477273,
                "tempo": 120.0
            },
            {
                "start_time": 1.2113636,
                "end_time": 1.3590909,
                "pitch": 45,
                "velocity": 64,
                "duration": 0.1477273,
                "tempo": 120.0
            },
            {
                "start_time": 1.3613636,
                "end_time": 1.5113636,
                "pitch": 45,
                "velocity": 64,
                "duration": 0.15,
                "tempo": 120.0
            },
            {
                "start_time": 1.5136364,
                "end_time": 1.6613636,
                "pitch": 45,
                "velocity": 64,
                "duration": 0.1477273,
                "tempo": 120.0
            },
            {
                "start_time": 1.6636364,
                "end_time": 1.8113636,
                "pitch": 45,
                "velocity": 64,
                "duration": 0.1477273,
                "tempo": 120.0
            },
            {
                "start_time": 1.8136364,
                "end_time": 1.9613636,
                "pitch": 45,
                "velocity": 64,
                "duration": 0.1477273,
                "tempo": 120.0
            },
            {
                "start_time": 1.9659091,
                "end_time": 2.1136364,
                "pitch": 45,
                "velocity": 64,
                "duration": 0.1477273,
                "tempo": 120.0
            },
            {
                "start_time": 2.1159091,
                "end_time": 2.2659091,
                "pitch": 45,
                "velocity": 64,
                "duration": 0.15,
                "tempo": 120.0
            },
            {
                "start_time": 2.2681818,
                "end_time": 2.4181818,
                "pitch": 45,
                "velocity": 64,
                "duration": 0.15,
                "tempo": 120.0
            },
            {
                "start_time": 2.4204545,
                "end_time": 2.7181818,
                "pitch": 45,
                "velocity": 64,
                "duration": 0.2977273,
                "tempo": 120.0
            },
            {
                "start_time": 2.7204545,
                "end_time": 2.8681818,
                "pitch": 45,
                "velocity": 64,
                "duration": 0.1477273,
                "tempo": 120.0
            },
            {
                "start_time": 2.8704545,
                "end_time": 3.0181818,
                "pitch": 45,
                "velocity": 64,
                "duration": 0.1477273,
                "tempo": 120.0
            },
            {
                "start_time": 3.0204545,
                "end_time": 3.1704545,
                "pitch": 45,
                "velocity": 64,
                "duration": 0.15,
                "tempo": 120.0
            },
            {
                "start_time": 3.1727273,
                "end_time": 3.3227273,
                "pitch": 45,
                "velocity": 64,
                "duration": 0.15,
                "tempo": 120.0
            },
            {
                "start_time": 3.325,
                "end_time": 3.4727273,
                "pitch": 45,
                "velocity": 64,
                "duration": 0.1477273,
                "tempo": 120.0
            },
            {
                "start_time": 3.475,
                "end_time": 3.625,
                "pitch": 45,
                "velocity": 64,
                "duration": 0.15,
                "tempo": 120.0
            },
            {
                "start_time": 3.6272727,
                "end_time": 3.7772727,
                "pitch": 45,
                "velocity": 64,
                "duration": 0.15,
                "tempo": 120.0
            },
            {
                "start_time": 3.7795455,
                "end_time": 3.9295455,
                "pitch": 45,
                "velocity": 64,
                "duration": 0.15,
                "tempo": 120.0
            },
            {
                "start_time": 3.9318182,
                "end_time": 4.0795455,
                "pitch": 45,
                "velocity": 64,
                "duration": 0.1477273,
                "tempo": 120.0
            },
            {
                "start_time": 4.0818182,
                "end_time": 4.2318182,
                "pitch": 45,
                "velocity": 64,
                "duration": 0.15,
                "tempo": 120.0
            },
            {
                "start_time": 4.2340909,
                "end_time": 4.3818182,
                "pitch": 45,
                "velocity": 64,
                "duration": 0.1477273,
                "tempo": 120.0
            },
            {
                "start_time": 4.3840909,
                "end_time": 4.5318182,
                "pitch": 45,
                "velocity": 64,
                "duration": 0.1477273,
                "tempo": 120.0
            },
            {
                "start_time": 4.5340909,
                "end_time": 4.6818182,
                "pitch": 45,
                "velocity": 64,
                "duration": 0.1477273,
                "tempo": 120.0
            },
            {
                "start_time": 4.6840909,
                "end_time": 4.8318182,
                "pitch": 45,
                "velocity": 64,
                "duration": 0.1477273,
                "tempo": 120.0
            },
            {
                "start_time": 4.8340909,
                "end_time": 5.1363636,
                "pitch": 45,
                "velocity": 64,
                "duration": 0.3022727,
                "tempo": 120.0
            },
            {
                "start_time": 5.1386364,
                "end_time": 5.2886364,
                "pitch": 47,
                "velocity": 64,
                "duration": 0.15,
                "tempo": 120.0
            },
            {
                "start_time": 5.2909091,
                "end_time": 5.4386364,
                "pitch": 47,
                "velocity": 64,
                "duration": 0.1477273,
                "tempo": 120.0
            },
            {
                "start_time": 5.4409091,
                "end_time": 5.5909091,
                "pitch": 47,
                "velocity": 64,
                "duration": 0.15,
                "tempo": 120.0
            },
            {
                "start_time": 5.5909091,
                "end_time": 5.7409091,
                "pitch": 47,
                "velocity": 64,
                "duration": 0.15,
                "tempo": 120.0
            },
            {
                "start_time": 5.7431818,
                "end_time": 5.8909091,
                "pitch": 47,
                "velocity": 64,
                "duration": 0.1477273,
                "tempo": 120.0
            },
            {
                "start_time": 5.8931818,
                "end_time": 6.0409091,
                "pitch": 47,
                "velocity": 64,
                "duration": 0.1477273,
                "tempo": 120.0
            },
            {
                "start_time": 6.0431818,
                "end_time": 6.1931818,
                "pitch": 47,
                "velocity": 64,
                "duration": 0.15,
                "tempo": 120.0
            },
            {
                "start_time": 6.1954545,
                "end_time": 6.3477273,
                "pitch": 47,
                "velocity": 64,
                "duration": 0.1522727,
                "tempo": 120.0
            },
            {
                "start_time": 6.35,
                "end_time": 6.5,
                "pitch": 47,
                "velocity": 64,
                "duration": 0.15,
                "tempo": 120.0
            },
            {
                "start_time": 6.5022727,
                "end_time": 6.6522727,
                "pitch": 47,
                "velocity": 64,
                "duration": 0.15,
                "tempo": 120.0
            },
            {
                "start_time": 6.6545455,
                "end_time": 6.8022727,
                "pitch": 47,
                "velocity": 64,
                "duration": 0.1477273,
                "tempo": 120.0
            },
            {
                "start_time": 6.8045455,
                "end_time": 6.95,
                "pitch": 47,
                "velocity": 64,
                "duration": 0.1454545,
                "tempo": 120.0
            },
            {
                "start_time": 6.9522727,
                "end_time": 7.1,
                "pitch": 47,
                "velocity": 64,
                "duration": 0.1477273,
                "tempo": 120.0
            },
            {
                "start_time": 7.1022727,
                "end_time": 7.2477273,
                "pitch": 47,
                "velocity": 64,
                "duration": 0.1454545,
                "tempo": 120.0
            },
            {
                "start_time": 7.25,
                "end_time": 7.5545455,
                "pitch": 47,
                "velocity": 64,
                "duration": 0.3045455,
                "tempo": 120.0
            },
            {
                "start_time": 7.5568182,
                "end_time": 7.7068182,
                "pitch": 47,
                "velocity": 64,
                "duration": 0.15,
                "tempo": 120.0
            },
            {
                "start_time": 7.7090909,
                "end_time": 7.8613636,
                "pitch": 47,
                "velocity": 64,
                "duration": 0.1522727,
                "tempo": 120.0
            },
            {
                "start_time": 7.8636364,
                "end_time": 8.0113636,
                "pitch": 47,
                "velocity": 64,
                "duration": 0.1477273,
                "tempo": 120.0
            },
            {
                "start_time": 8.0136364,
                "end_time": 8.1613636,
                "pitch": 47,
                "velocity": 64,
                "duration": 0.1477273,
                "tempo": 120.0
            },
            {
                "start_time": 8.1636364,
                "end_time": 8.3113636,
                "pitch": 47,
                "velocity": 64,
                "duration": 0.1477273,
                "tempo": 120.0
            },
            {
                "start_time": 8.3136364,
                "end_time": 8.4613636,
                "pitch": 47,
                "velocity": 64,
                "duration": 0.1477273,
                "tempo": 120.0
            },
            {
                "start_time": 8.4636364,
                "end_time": 8.6113636,
                "pitch": 47,
                "velocity": 64,
                "duration": 0.1477273,
                "tempo": 120.0
            },
            {
                "start_time": 8.6136364,
                "end_time": 8.7636364,
                "pitch": 47,
                "velocity": 64,
                "duration": 0.15,
                "tempo": 120.0
            },
            {
                "start_time": 8.7659091,
                "end_time": 8.9113636,
                "pitch": 47,
                "velocity": 64,
                "duration": 0.1454545,
                "tempo": 120.0
            },
            {
                "start_time": 8.9136364,
                "end_time": 9.0636364,
                "pitch": 47,
                "velocity": 64,
                "duration": 0.15,
                "tempo": 120.0
            },
            {
                "start_time": 9.0636364,
                "end_time": 9.2136364,
                "pitch": 47,
                "velocity": 64,
                "duration": 0.15,
                "tempo": 120.0
            },
            {
                "start_time": 9.2159091,
                "end_time": 9.3636364,
                "pitch": 47,
                "velocity": 64,
                "duration": 0.1477273,
                "tempo": 120.0
            },
            {
                "start_time": 9.3659091,
                "end_time": 9.5136364,
                "pitch": 47,
                "velocity": 64,
                "duration": 0.1477273,
                "tempo": 120.0
            },
            {
                "start_time": 9.5159091,
                "end_time": 9.6636364,
                "pitch": 47,
                "velocity": 64,
                "duration": 0.1477273,
                "tempo": 120.0
            },
            {
                "start_time": 9.6659091,
                "end_time": 9.9659091,
                "pitch": 47,
                "velocity": 64,
                "duration": 0.3,
                "tempo": 120.0
            },
            {
                "start_time": 9.9681818,
                "end_time": 9.975,
                "pitch": 47,
                "velocity": 64,
                "duration": 0.0068182,
                "tempo": 120.0
            },
            {
                "start_time": 9.9840909,
                "end_time": 10.1181818,
                "pitch": 45,
                "velocity": 64,
                "duration": 0.1340909,
                "tempo": 120.0
            }
        ]
    }
}