{
    "mood": "angry",
    "instruments": {
        "Electric Piano 1": [
            {
                "start_time": 0.0295455,
                "end_time": 0.2454545,
                "pitch": 36,
                "velocity": 64,
                "duration": 0.2159091,
                "tempo": 120.0
            },
            {
                "start_time": 0.2454545,
                "end_time": 0.2954545,
                "pitch": 36,
                "velocity": 64,
                "duration": 0.05,
                "tempo": 120.0
            },
            {
                "start_time": 0.2954545,
                "end_time": 0.3113636,
                "pitch": 36,
                "velocity": 64,
                "duration": 0.0159091,
                "tempo": 120.0
            },
            {
                "start_time": 0.3136364,
                "end_time": 0.4636364,
                "pitch": 36,
                "velocity": 64,
                "duration": 0.15,
                "tempo": 120.0
            },
            {
                "start_time": 0.4636364,
                "end_time": 0.6,
                "pitch": 48,
                "velocity": 64,
                "duration": 0.1363636,
                "tempo": 120.0
            },
            {
                "start_time": 0.6,
                "end_time": 0.7545455,
                "pitch": 36,
                "velocity": 64,
                "duration": 0.1545455,
                "tempo": 120.0
            },
            {
                "start_time": 0.7545455,
                "end_time": 0.8909091,
                "pitch": 48,
                "velocity": 64,
                "duration": 0.1363636,
                "tempo": 120.0
            },
            {
                "start_time": 0.8909091,
                "end_time": 1.0363636,
                "pitch": 46,
                "velocity": 64,
                "duration": 0.1454545,
                "tempo": 120.0
            },
            {
                "start_time": 1.0363636,
                "end_time": 1.1840909,
                "pitch": 47,
                "velocity": 64,
                "duration": 0.1477273,
                "tempo": 120.0
            },
            {
                "start_time": 1.1840909,
                "end_time": 1.3159091,
                "pitch": 48,
                "velocity": 64,
                "duration": 0.1318182,
                "tempo": 120.0
            },
            {
                "start_time": 1.3159091,
                "end_time": 1.4659091,
                "pitch": 39,
                "velocity": 64,
                "duration": 0.15,
                "tempo": 120.0
            },
            {
                "start_time": 1.4659091,
                "end_time": 1.6,
                "pitch": 41,
                "velocity": 64,
                "duration": 0.1340909,
                "tempo": 120.0
            },
            {
                "start_time": 1.6,
                "end_time": 1.75,
                "pitch": 43,
                "velocity": 64,
                "duration": 0.15,
                "tempo": 120.0
            },
            {
                "start_time": 0.2454545,
                "end_time": 1.9659091,
                "pitch": 24,
                "velocity": 64,
                "duration": 1.7204545,
                "tempo": 120.0
            },
            {
                "start_time": 1.75,
                "end_time": 1.9659091,
                "pitch": 36,
                "velocity": 64,
                "duration": 0.2159091,
                "tempo": 120.0
            },
            {
                "start_time": 1.9659091,
                "end_time": 2.0159091,
                "pitch": 36,
                "velocity": 64,
                "duration": 0.05,
                "tempo": 120.0
            },
            {
                "start_time": 0.2954545,
                "end_time": 2.0159091,
                "pitch": 40,
                "velocity": 64,
                "duration": 1.7204545,
                "tempo": 120.0
            },
            {
                "start_time": 2.0159091,
                "end_time": 2.0318182,
                "pitch": 36,
                "velocity": 64,
                "duration": 0.0159091,
                "tempo": 120.0
            },
            {
                "start_time": 2.0340909,
                "end_time": 2.1840909,
                "pitch": 36,
                "velocity": 64,
                "duration": 0.15,
                "tempo": 120.0
            },
            {
                "start_time": 2.1840909,
                "end_time": 2.3204545,
                "pitch": 48,
                "velocity": 64,
                "duration": 0.1363636,
                "tempo": 120.0
            },
            {
                "start_time": 2.3204545,
                "end_time": 2.4727273,
                "pitch": 36,
                "velocity": 64,
                "duration": 0.1522727,
                "tempo": 120.0
            },
            {
                "start_time": 2.475,
                "end_time": 2.6090909,
                "pitch": 48,
                "velocity": 64,
                "duration": 0.1340909,
                "tempo": 120.0
            },
            {
                "start_time": 2.6113636,
                "end_time": 2.7522727,
                "pitch": 46,
                "velocity": 64,
                "duration": 0.1409091,
                "tempo": 120.0
            },
            {
                "start_time": 2.7545455,
                "end_time": 2.8795455,
                "pitch": 47,
                "velocity": 64,
                "duration": 0.125,
                "tempo": 120.0
            },
            {
                "start_time": 2.8795455,
                "end_time": 3.0227273,
                "pitch": 48,
                "velocity": 64,
                "duration": 0.1431818,
                "tempo": 120.0
            },
            {
                "start_time": 3.025,
                "end_time": 3.2454545,
                "pitch": 43,
                "velocity": 64,
                "duration": 0.2204545,
                "tempo": 120.0
            },
            {
                "start_time": 3.2454545,
                "end_time": 3.2954545,
                "pitch": 43,
                "velocity": 64,
                "duration": 0.05,
                "tempo": 120.0
            },
            {
                "start_time": 3.2954545,
                "end_time": 3.3818182,
                "pitch": 43,
                "velocity": 64,
                "duration": 0.0863636,
                "tempo": 120.0
            },
            {
                "start_time": 3.2954545,
                "end_time": 3.4318182,
                "pitch": 0,
                "velocity": 64,
                "duration": 0.1363636,
                "tempo": 120.0
            },
            {
                "start_time": 3.3818182,
                "end_time": 3.4318182,
                "pitch": 43,
                "velocity": 64,
                "duration": 0.05,
                "tempo": 120.0
            },
            {
                "start_time": 3.4318182,
                "end_time": 3.4659091,
                "pitch": 43,
                "velocity": 64,
                "duration": 0.0340909,
                "tempo": 120.0
            },
            {
                "start_time": 3.4681818,
                "end_time": 3.6840909,
                "pitch": 36,
                "velocity": 64,
                "duration": 0.2159091,
                "tempo": 120.0
            },
            {
                "start_time": 3.6840909,
                "end_time": 3.7340909,
                "pitch": 36,
                "velocity": 64,
                "duration": 0.05,
                "tempo": 120.0
            },
            {
                "start_time": 2.0159091,
                "end_time": 3.7340909,
                "pitch": 40,
                "velocity": 64,
                "duration": 1.7181818,
                "tempo": 120.0
            },
            {
                "start_time": 3.7340909,
                "end_time": 3.75,
                "pitch": 36,
                "velocity": 64,
                "duration": 0.0159091,
                "tempo": 120.0
            },
            {
                "start_time": 3.75,
                "end_time": 3.8840909,
                "pitch": 36,
                "velocity": 64,
                "duration": 0.1340909,
                "tempo": 120.0
            },
            {
                "start_time": 3.8863636,
                "end_time": 4.0272727,
                "pitch": 48,
                "velocity": 64,
                "duration": 0.1409091,
                "tempo": 120.0
            },
            {
                "start_time": 4.0272727,
                "end_time": 4.1704545,
                "pitch": 36,
                "velocity": 64,
                "duration": 0.1431818,
                "tempo": 120.0
            },
            {
                "start_time": 4.1704545,
                "end_time": 4.2977273,
                "pitch": 48,
                "velocity": 64,
                "duration": 0.1272727,
                "tempo": 120.0
            },
            {
                "start_time": 4.3,
                "end_time": 4.4477273,
                "pitch": 46,
                "velocity": 64,
                "duration": 0.1477273,
                "tempo": 120.0
            },
            {
                "start_time": 4.4477273,
                "end_time": 4.5818182,
                "pitch": 47,
                "velocity": 64,
                "duration": 0.1340909,
                "tempo": 120.0
            },
            {
                "start_time": 4.5818182,
                "end_time": 4.7318182,
                "pitch": 48,
                "velocity": 64,
                "duration": 0.15,
                "tempo": 120.0
            },
            {
                "start_time": 4.7340909,
                "end_time": 4.8681818,
                "pitch": 39,
                "velocity": 64,
                "duration": 0.1340909,
                "tempo": 120.0
            },
            {
                "start_time": 4.8704545,
                "end_time": 5.0227273,
                "pitch": 41,
                "velocity": 64,
                "duration": 0.1522727,
                "tempo": 120.0
            },
            {
                "start_time": 5.0227273,
                "end_time": 5.175,
                "pitch": 43,
                "velocity": 64,
                "duration": 0.1522727,
                "tempo": 120.0
            },
            {
                "start_time": 1.9659091,
                "end_time": 5.3931818,
                "pitch": 24,
                "velocity": 64,
                "duration": 3.4272727,
                "tempo": 120.0
            },
            {
                "start_time": 5.1772727,
                "end_time": 5.3931818,
                "pitch": 36,
                "velocity": 64,
                "duration": 0.2159091,
                "tempo": 120.0
            },
            {
                "start_time": 5.3931818,
                "end_time": 5.4431818,
                "pitch": 36,
                "velocity": 64,
                "duration": 0.05,
                "tempo": 120.0
            },
            {
                "start_time": 3.7340909,
                "end_time": 5.4431818,
                "pitch": 40,
                "velocity": 64,
                "duration": 1.7090909,
                "tempo": 120.0
            },
            {
                "start_time": 5.4431818,
                "end_time": 5.4590909,
                "pitch": 36,
                "velocity": 64,
                "duration": 0.0159091,
                "tempo": 120.0
            },
            {
                "start_time": 5.4590909,
                "end_time": 5.5931818,
                "pitch": 36,
                "velocity": 64,
                "duration": 0.1340909,
                "tempo": 120.0
            },
            {
                "start_time": 5.5954545,
                "end_time": 5.7409091,
                "pitch": 48,
                "velocity": 64,
                "duration": 0.1454545,
                "tempo": 120.0
            },
            {
                "start_time": 5.7409091,
                "end_time": 5.8704545,
                "pitch": 36,
                "velocity": 64,
                "duration": 0.1295455,
                "tempo": 120.0
            },
            {
                "start_time": 5.8727273,
                "end_time": 6.0181818,
                "pitch": 48,
                "velocity": 64,
                "duration": 0.1454545,
                "tempo": 120.0
            },
            {
                "start_time": 6.0204545,
                "end_time": 6.1681818,
                "pitch": 43,
                "velocity": 64,
                "duration": 0.1477273,
                "tempo": 120.0
            },
            {
                "start_time": 6.1681818,
                "end_time": 6.3022727,
                "pitch": 46,
                "velocity": 64,
                "duration": 0.1340909,
                "tempo": 120.0
            },
            {
                "start_time": 6.3022727,
                "end_time": 6.4522727,
                "pitch": 48,
                "velocity": 64,
                "duration": 0.15,
                "tempo": 120.0
            },
            {
                "start_time": 6.4522727,
                "end_time": 6.5863636,
                "pitch": 51,
                "velocity": 64,
                "duration": 0.1340909,
                "tempo": 120.0
            },
            {
                "start_time": 6.5863636,
                "end_time": 6.7363636,
                "pitch": 48,
                "velocity": 64,
                "duration": 0.15,
                "tempo": 120.0
            },
            {
                "start_time": 6.7363636,
                "end_time": 6.8704545,
                "pitch": 46,
                "velocity": 64,
                "duration": 0.1340909,
                "tempo": 120.0
            },
            {
                "start_time": 5.3931818,
                "end_time": 7.0818182,
                "pitch": 24,
                "velocity": 64,
                "duration": 1.6886364,
                "tempo": 120.0
            },
            {
                "start_time": 6.8704545,
                "end_time": 7.0818182,
                "pitch": 36,
                "velocity": 64,
                "duration": 0.2113636,
                "tempo": 120.0
            },
            {
                "start_time": 7.0818182,
                "end_time": 7.1318182,
                "pitch": 36,
                "velocity": 64,
                "duration": 0.05,
                "tempo": 120.0
            },
            {
                "start_time": 5.4431818,
                "end_time": 7.1318182,
                "pitch": 40,
                "velocity": 64,
                "duration": 1.6886364,
                "tempo": 120.0
            },
            {
                "start_time": 7.0818182,
                "end_time": 7.2136364,
                "pitch": 24,
                "velocity": 64,
                "duration": 0.1318182,
                "tempo": 120.0
            },
            {
                "start_time": 7.1318182,
                "end_time": 7.2136364,
                "pitch": 36,
                "velocity": 64,
                "duration": 0.0818182,
                "tempo": 120.0
            },
            {
                "start_time": 7.2136364,
                "end_time": 7.2636364,
                "pitch": 36,
                "velocity": 64,
                "duration": 0.05,
                "tempo": 120.0
            },
            {
                "start_time": 7.1318182,
                "end_time": 7.2636364,
                "pitch": 40,
                "velocity": 64,
                "duration": 0.1318182,
                "tempo": 120.0
            },
            {
                "start_time": 7.2136364,
                "end_time": 7.3454545,
                "pitch": 24,
                "velocity": 64,
                "duration": 0.1318182,
                "tempo": 120.0
            },
            {
                "start_time": 7.2636364,
                "end_time": 7.3454545,
                "pitch": 36,
                "velocity": 64,
                "duration": 0.0818182,
                "tempo": 120.0
            },
            {
                "start_time": 7.3454545,
                "end_time": 7.3954545,
                "pitch": 36,
                "velocity": 64,
                "duration": 0.05,
                "tempo": 120.0
            },
            {
                "start_time": 7.2636364,
                "end_time": 7.3954545,
                "pitch": 40,
                "velocity": 64,
                "duration": 0.1318182,
                "tempo": 120.0
            },
            {
                "start_time": 7.3454545,
                "end_time": 7.4795455,
                "pitch": 24,
                "velocity": 64,
                "duration": 0.1340909,
                "tempo": 120.0
            },
            {
                "start_time": 7.3954545,
                "end_time": 7.4795455,
                "pitch": 36,
                "velocity": 64,
                "duration": 0.0840909,
                "tempo": 120.0
            },
            {
                "start_time": 7.4795455,
                "end_time": 7.5295455,
                "pitch": 36,
                "velocity": 64,
                "duration": 0.05,
                "tempo": 120.0
            },
            {
                "start_time": 7.3954545,
                "end_time": 7.5295455,
                "pitch": 40,
                "velocity": 64,
                "duration": 0.1340909,
                "tempo": 120.0
            },
            {
                "start_time": 7.4795455,
                "end_time": 7.6136364,
                "pitch": 24,
                "velocity": 64,
                "duration": 0.1340909,
                "tempo": 120.0
            },
            {
                "start_time": 7.5295455,
                "end_time": 7.6136364,
                "pitch": 36,
                "velocity": 64,
                "duration": 0.0840909,
                "tempo": 120.0
            },
            {
                "start_time": 7.6136364,
                "end_time": 7.6636364,
                "pitch": 36,
                "velocity": 64,
                "duration": 0.05,
                "tempo": 120.0
            },
            {
                "start_time": 7.5295455,
                "end_time": 7.6636364,
                "pitch": 40,
                "velocity": 64,
                "duration": 0.1340909,
                "tempo": 120.0
            },
            {
                "start_time": 7.6636364,
                "end_time": 7.7295455,
                "pitch": 36,
                "velocity": 64,
                "duration": 0.0659091,
                "tempo": 120.0
            },
            {
                "start_time": 7.6136364,
                "end_time": 7.9454545,
                "pitch": 24,
                "velocity": 64,
                "duration": 0.3318182,
                "tempo": 120.0
            },
            {
                "start_time": 7.7295455,
                "end_time": 7.9454545,
                "pitch": 36,
                "velocity": 64,
                "duration": 0.2159091,
                "tempo": 120.0
            },
            {
                "start_time": 7.9454545,
                "end_time": 7.9977273,
                "pitch": 36,
                "velocity": 64,
                "duration": 0.0522727,
                "tempo": 120.0
            },
            {
                "start_time": 7.6636364,
                "end_time": 7.9977273,
                "pitch": 40,
                "velocity": 64,
                "duration": 0.3340909,
                "tempo": 120.0
            },
            {
                "start_time": 7.9977273,
                "end_time": 8.0795455,
                "pitch": 36,
                "velocity": 64,
                "duration": 0.0818182,
                "tempo": 120.0
            },
            {
                "start_time": 8.0795455,
                "end_time": 8.1295455,
                "pitch": 36,
                "velocity": 64,
                "duration": 0.05,
                "tempo": 120.0
            },
            {
                "start_time": 7.9977273,
                "end_time": 8.1295455,
                "pitch": 40,
                "velocity": 64,
                "duration": 0.1318182,
                "tempo": 120.0
            },
            {
                "start_time": 7.9454545,
                "end_time": 8.2136364,
                "pitch": 24,
                "velocity": 64,
                "duration": 0.2681818,
                "tempo": 120.0
            },
            {
                "start_time": 8.1295455,
                "end_time": 8.2136364,
                "pitch": 36,
                "velocity": 64,
                "duration": 0.0840909,
                "tempo": 120.0
            },
            {
                "start_time": 8.2136364,
                "end_time": 8.2659091,
                "pitch": 36,
                "velocity": 64,
                "duration": 0.0522727,
                "tempo": 120.0
            },
            {
                "start_time": 8.1295455,
                "end_time": 8.2659091,
                "pitch": 40,
                "velocity": 64,
                "duration": 0.1363636,
                "tempo": 120.0
            },
            {
                "start_time": 8.2136364,
                "end_time": 8.3522727,
                "pitch": 24,
                "velocity": 64,
                "duration": 0.1386364,
                "tempo": 120.0
            },
            {
                "start_time": 8.2659091,
                "end_time": 8.3522727,
                "pitch": 36,
                "velocity": 64,
                "duration": 0.0863636,
                "tempo": 120.0
            },
            {
                "start_time": 8.3522727,
                "end_time": 8.4022727,
                "pitch": 36,
                "velocity": 64,
                "duration": 0.05,
                "tempo": 120.0
            },
            {
                "start_time": 8.2659091,
                "end_time": 8.4022727,
                "pitch": 40,
                "velocity": 64,
                "duration": 0.1363636,
                "tempo": 120.0
            },
            {
                "start_time": 8.3522727,
                "end_time": 8.4886364,
                "pitch": 24,
                "velocity": 64,
                "duration": 0.1363636,
                "tempo": 120.0
            },
            {
                "start_time": 8.4022727,
                "end_time": 8.4886364,
                "pitch": 36,
                "velocity": 64,
                "duration": 0.0863636,
                "tempo": 120.0
            },
            {
                "start_time": 8.4886364,
                "end_time": 8.5386364,
                "pitch": 36,
                "velocity": 64,
                "duration": 0.05,
                "tempo": 120.0
            },
            {
                "start_time": 8.4022727,
                "end_time": 8.5386364,
                "pitch": 40,
                "velocity": 64,
                "duration": 0.1363636,
                "tempo": 120.0
            },
            {
                "start_time": 8.5386364,
                "end_time": 8.5909091,
                "pitch": 36,
                "velocity": 64,
                "duration": 0.0522727,
                "tempo": 120.0
            },
            {
                "start_time": 8.5909091,
                "end_time": 8.7340909,
                "pitch": 39,
                "velocity": 64,
                "duration": 0.1431818,
                "tempo": 120.0
            },
            {
                "start_time": 8.7340909,
                "end_time": 8.8613636,
                "pitch": 51,
                "velocity": 64,
                "duration": 0.1272727,
                "tempo": 120.0
            },
            {
                "start_time": 8.8613636,
                "end_time": 9.0045455,
                "pitch": 39,
                "velocity": 64,
                "duration": 0.1431818,
                "tempo": 120.0
            },
            {
                "start_time": 9.0045455,
                "end_time": 9.1568182,
                "pitch": 44,
                "velocity": 64,
                "duration": 0.1522727,
                "tempo": 120.0
            },
            {
                "start_time": 9.1568182,
                "end_time": 9.2931818,
                "pitch": 56,
                "velocity": 64,
                "duration": 0.1363636,
                "tempo": 120.0
            },
            {
                "start_time": 9.2931818,
                "end_time": 9.4477273,
                "pitch": 44,
                "velocity": 64,
                "duration": 0.1545455,
                "tempo": 120.0
            },
            {
                "start_time": 9.4477273,
                "end_time": 9.5772727,
                "pitch": 43,
                "velocity": 64,
                "duration": 0.1295455,
                "tempo": 120.0
            },
            {
                "start_time": 3.2454545,
                "end_time": 9.725,
                "pitch": 55,
                "velocity": 64,
                "duration": 6.4795455,
                "tempo": 120.0
            },
            {
                "start_time": 9.5772727,
                "end_time": 9.725,
                "pitch": 55,
                "velocity": 64,
                "duration": 0.1477273,
                "tempo": 120.0
            },
            {
                "start_time": 9.725,
                "end_time": 9.8545455,
                "pitch": 43,
                "velocity": 64,
                "duration": 0.1295455,
                "tempo": 120.0
            },
            {
                "start_time": 9.8568182,
                "end_time": 10.0022727,
                "pitch": 39,
                "velocity": 64,
                "duration": 0.1454545,
                "tempo": 120.0
            },
            {
                "start_time": 10.0022727,
                "end_time": 10.15,
                "pitch": 51,
                "velocity": 64,
                "duration": 0.1477273,
                "tempo": 120.0
            },
            {
                "start_time": 10.15,
                "end_time": 10.2795455,
                "pitch": 39,
                "velocity": 64,
                "duration": 0.1295455,
                "tempo": 120.0
            },
            {
                "start_time": 10.2818182,
                "end_time": 10.4977273,
                "pitch": 36,
                "velocity": 64,
                "duration": 0.2159091,
                "tempo": 120.0
            },
            {
                "start_time": 10.4977273,
                "end_time": 10.5477273,
                "pitch": 36,
                "velocity": 64,
                "duration": 0.05,
                "tempo": 120.0
            },
            {
                "start_time": 8.5386364,
                "end_time": 10.5477273,
                "pitch": 40,
                "velocity": 64,
                "duration": 2.0090909,
                "tempo": 120.0
            },
            {
                "start_time": 10.5477273,
                "end_time": 10.6318182,
                "pitch": 36,
                "velocity": 64,
                "duration": 0.0840909,
                "tempo": 120.0
            },
            {
                "start_time": 10.6318182,
                "end_time": 10.6818182,
                "pitch": 36,
                "velocity": 64,
                "duration": 0.05,
                "tempo": 120.0
            },
            {
                "start_time": 10.5477273,
                "end_time": 10.6818182,
                "pitch": 40,
                "velocity": 64,
                "duration": 0.1340909,
                "tempo": 120.0
            },
            {
                "start_time": 10.6818182,
                "end_time": 10.7659091,
                "pitch": 36,
                "velocity": 64,
                "duration": 0.0840909,
                "tempo": 120.0
            },
            {
                "start_time": 10.7659091,
                "end_time": 10.8159091,
                "pitch": 36,
                "velocity": 64,
                "duration": 0.05,
                "tempo": 120.0
            },
            {
                "start_time": 10.6818182,
                "end_time": 10.8159091,
                "pitch": 40,
                "velocity": 64,
                "duration": 0.1340909,
                "tempo": 120.0
            },
            {
                "start_time": 10.8159091,
                "end_time": 10.9022727,
                "pitch": 36,
                "velocity": 64,
                "duration": 0.0863636,
                "tempo": 120.0
            },
            {
                "start_time": 10.9022727,
                "end_time": 10.9545455,
                "pitch": 36,
                "velocity": 64,
                "duration": 0.0522727,
                "tempo": 120.0
            },
            {
                "start_time": 10.8159091,
                "end_time": 10.9545455,
                "pitch": 40,
                "velocity": 64,
                "duration": 0.1386364,
                "tempo": 120.0
            },
            {
                "start_time": 10.9545455,
                "end_time": 11.0386364,
                "pitch": 36,
                "velocity": 64,
                "duration": 0.0840909,
                "tempo": 120.0
            },
            {
                "start_time": 11.0386364,
                "end_time": 11.0909091,
                "pitch": 36,
                "velocity": 64,
                "duration": 0.0522727,
                "tempo": 120.0
            },
            {
                "start_time": 10.9545455,
                "end_time": 11.0909091,
                "pitch": 40,
                "velocity": 64,
                "duration": 0.1363636,
                "tempo": 120.0
            },
            {
                "start_time": 11.0909091,
                "end_time": 11.1590909,
                "pitch": 36,
                "velocity": 64,
                "duration": 0.0681818,
                "tempo": 120.0
            },
            {
                "start_time": 8.4886364,
                "end_time": 11.375,
                "pitch": 24,
                "velocity": 64,
                "duration": 2.8863636,
                "tempo": 120.0
            },
            {
                "start_time": 11.1590909,
                "end_time": 11.375,
                "pitch": 36,
                "velocity": 64,
                "duration": 0.2159091,
                "tempo": 120.0
            },
            {
                "start_time": 11.375,
                "end_time": 11.425,
                "pitch": 36,
                "velocity": 64,
                "duration": 0.05,
                "tempo": 120.0
            },
            {
                "start_time": 11.425,
                "end_time": 11.5090909,
                "pitch": 36,
                "velocity": 64,
                "duration": 0.0840909,
                "tempo": 120.0
            },
            {
                "start_time": 11.5090909,
                "end_time": 11.5590909,
                "pitch": 36,
                "velocity": 64,
                "duration": 0.05,
                "tempo": 120.0
            },
            {
                "start_time": 11.0909091,
                "end_time": 11.5590909,
                "pitch": 40,
                "velocity": 64,
                "duration": 0.4681818,
                "tempo": 120.0
            },
            {
                "start_time": 11.375,
                "end_time": 11.6409091,
                "pitch": 24,
                "velocity": 64,
                "duration": 0.2659091,
                "tempo": 120.0
            },
            {
                "start_time": 11.5590909,
                "end_time": 11.6409091,
                "pitch": 36,
                "velocity": 64,
                "duration": 0.0818182,
                "tempo": 120.0
            },
            {
                "start_time": 11.6409091,
                "end_time": 11.6909091,
                "pitch": 36,
                "velocity": 64,
                "duration": 0.05,
                "tempo": 120.0
            },
            {
                "start_time": 11.5590909,
                "end_time": 11.6909091,
                "pitch": 40,
                "velocity": 64,
                "duration": 0.1318182,
                "tempo": 120.0
            },
            {
                "start_time": 11.6409091,
                "end_time": 11.7727273,
                "pitch": 24,
                "velocity": 64,
                "duration": 0.1318182,
                "tempo": 120.0
            },
            {
                "start_time": 11.6909091,
                "end_time": 11.7727273,
                "pitch": 36,
                "velocity": 64,
                "duration": 0.0818182,
                "tempo": 120.0
            },
            {
                "start_time": 11.7727273,
                "end_time": 11.8204545,
                "pitch": 36,
                "velocity": 64,
                "duration": 0.0477273,
                "tempo": 120.0
            },
            {
                "start_time": 11.6909091,
                "end_time": 11.8204545,
                "pitch": 40,
                "velocity": 64,
                "duration": 0.1295455,
                "tempo": 120.0
            },
            {
                "start_time": 11.8204545,
                "end_time": 11.9022727,
                "pitch": 36,
                "velocity": 64,
                "duration": 0.0818182,
                "tempo": 120.0
            },
            {
                "start_time": 11.9022727,
                "end_time": 11.9522727,
                "pitch": 36,
                "velocity": 64,
                "duration": 0.05,
                "tempo": 120.0
            },
            {
                "start_time": 11.8204545,
                "end_time": 11.9522727,
                "pitch": 40,
                "velocity": 64,
                "duration": 0.1318182,
                "tempo": 120.0
            },
            {
                "start_time": 11.9522727,
                "end_time": 12.0022727,
                "pitch": 36,
                "velocity": 64,
                "duration": 0.05,
                "tempo": 120.0
            },
            {
                "start_time": 12.0022727,
                "end_time": 12.1522727,
                "pitch": 39,
                "velocity": 64,
                "duration": 0.15,
                "tempo": 120.0
            },
            {
                "start_time": 12.1522727,
                "end_time": 12.2840909,
                "pitch": 51,
                "velocity": 64,
                "duration": 0.1318182,
                "tempo": 120.0
            },
            {
                "start_time": 12.2863636,
                "end_time": 12.4363636,
                "pitch": 39,
                "velocity": 64,
                "duration": 0.15,
                "tempo": 120.0
            },
            {
                "start_time": 12.4363636,
                "end_time": 12.5681818,
                "pitch": 44,
                "velocity": 64,
                "duration": 0.1318182,
                "tempo": 120.0
            },
            {
                "start_time": 12.5704545,
                "end_time": 12.7181818,
                "pitch": 56,
                "velocity": 64,
                "duration": 0.1477273,
                "tempo": 120.0
            },
            {
                "start_time": 12.7204545,
                "end_time": 12.8522727,
                "pitch": 44,
                "velocity": 64,
                "duration": 0.1318182,
                "tempo": 120.0
            },
            {
                "start_time": 12.8545455,
                "end_time": 13.0,
                "pitch": 38,
                "velocity": 64,
                "duration": 0.1454545,
                "tempo": 120.0
            },
            {
                "start_time": 13.0,
                "end_time": 13.1477273,
                "pitch": 50,
                "velocity": 64,
                "duration": 0.1477273,
                "tempo": 120.0
            },
            {
                "start_time": 13.1477273,
                "end_time": 13.2772727,
                "pitch": 38,
                "velocity": 64,
                "duration": 0.1295455,
                "tempo": 120.0
            },
            {
                "start_time": 13.2795455,
                "end_time": 13.4272727,
                "pitch": 43,
                "velocity": 64,
                "duration": 0.1477273,
                "tempo": 120.0
            },
            {
                "start_time": 13.4295455,
                "end_time": 13.5613636,
                "pitch": 55,
                "velocity": 64,
                "duration": 0.1318182,
                "tempo": 120.0
            },
            {
                "start_time": 13.5636364,
                "end_time": 13.7113636,
                "pitch": 43,
                "velocity": 64,
                "duration": 0.1477273,
                "tempo": 120.0
            }
        ]
    }
}