{
    "mood": "angry",
    "instruments": {
        "Electric Guitar (clean)": [
            {
                "start_time": 0.15,
                "end_time": 0.2636364,
                "pitch": 33,
                "velocity": 51,
                "duration": 0.1136364,
                "tempo": 120.0
            },
            {
                "start_time": 0.3818182,
                "end_time": 0.4977273,
                "pitch": 33,
                "velocity": 51,
                "duration": 0.1159091,
                "tempo": 120.0
            },
            {
                "start_time": 0.6159091,
                "end_time": 0.7340909,
                "pitch": 33,
                "velocity": 51,
                "duration": 0.1181818,
                "tempo": 120.0
            },
            {
                "start_time": 0.8545455,
                "end_time": 0.9727273,
                "pitch": 33,
                "velocity": 51,
                "duration": 0.1181818,
                "tempo": 120.0
            },
            {
                "start_time": 1.0931818,
                "end_time": 1.2045455,
                "pitch": 33,
                "velocity": 51,
                "duration": 0.1113636,
                "tempo": 120.0
            },
            {
                "start_time": 1.3227273,
                "end_time": 1.4340909,
                "pitch": 33,
                "velocity": 51,
                "duration": 0.1113636,
                "tempo": 120.0
            },
            {
                "start_time": 1.55,
                "end_time": 1.6659091,
                "pitch": 33,
                "velocity": 51,
                "duration": 0.1159091,
                "tempo": 120.0
            },
            {
                "start_time": 1.7863636,
                "end_time": 1.9,
                "pitch": 33,
                "velocity": 51,
                "duration": 0.1136364,
                "tempo": 120.0
            },
            {
                "start_time": 2.0204545,
                "end_time": 2.1363636,
                "pitch": 33,
                "velocity": 51,
                "duration": 0.1159091,
                "tempo": 120.0
            },
            {
                "start_time": 2.2522727,
                "end_time": 2.3704545,
                "pitch": 33,
                "velocity": 51,
                "duration": 0.1181818,
                "tempo": 120.0
            },
            {
                "start_time": 2.4886364,
                "end_time": 2.6022727,
                "pitch": 33,
                "velocity": 51,
                "duration": 0.1136364,
                "tempo": 120.0
            },
            {
                "start_time": 2.7181818,
                "end_time": 2.8318182,
                "pitch": 33,
                "velocity": 51,
                "duration": 0.1136364,
                "tempo": 120.0
            },
            {
                "start_time": 2.9477273,
                "end_time": 3.0613636,
                "pitch": 33,
                "velocity": 51,
                "duration": 0.1136364,
                "tempo": 120.0
            },
            {
                "start_time": 3.1818182,
                "end_time": 3.2977273,
                "pitch": 33,
                "velocity": 51,
                "duration": 0.1159091,
                "tempo": 120.0
            },
            {
                "start_time": 3.4181818,
                "end_time": 3.5318182,
                "pitch": 33,
                "velocity": 51,
                "duration": 0.1136364,
                "tempo": 120.0
            },
            {
                "start_time": 3.6522727,
                "end_time": 3.7681818,
                "pitch": 33,
                "velocity": 51,
                "duration": 0.1159091,
                "tempo": 120.0
            },
            {
                "start_time": 3.8863636,
                "end_time": 3.9977273,
                "pitch": 34,
                "velocity": 51,
                "duration": 0.1113636,
                "tempo": 120.0
            },
            {
                "start_time": 4.1136364,
                "end_time": 4.2272727,
                "pitch": 34,
                "velocity": 51,
                "duration": 0.1136364,
                "tempo": 120.0
            },
            {
                "start_time": 4.3431818,
                "end_time": 4.4590909,
                "pitch": 34,
                "velocity": 51,
                "duration": 0.1159091,
                "tempo": 120.0
            },
            {
                "start_time": 4.5795455,
                "end_time": 4.6954545,
                "pitch": 34,
                "velocity": 51,
                "duration": 0.1159091,
                "tempo": 120.0
            },
            {
                "start_time": 4.8136364,
                "end_time": 4.9295455,
                "pitch": 34,
                "velocity": 51,
                "duration": 0.1159091,
                "tempo": 120.0
            },
            {
                "start_time": 5.0477273,
                "end_time": 5.1636364,
                "pitch": 34,
                "velocity": 51,
                "duration": 0.1159091,
                "tempo": 120.0
            },
            {
                "start_time": 5.2818182,
                "end_time": 5.3954545,
                "pitch": 34,
                "velocity": 51,
                "duration": 0.1136364,
                "tempo": 120.0
            },
            {
                "start_time": 5.5113636,
                "end_time": 5.6227273,
                "pitch": 34,
                "velocity": 51,
                "duration": 0.1113636,
                "tempo": 120.0
            },
            {
                "start_time": 5.7409091,
                "end_time": 5.8545455,
                "pitch": 34,
                "velocity": 51,
                "duration": 0.1136364,
                "tempo": 120.0
            },
            {
                "start_time": 5.9727273,
                "end_time": 6.0909091,
                "pitch": 34,
                "velocity": 51,
                "duration": 0.1181818,
                "tempo": 120.0
            },
            {
                "start_time": 6.2090909,
                "end_time": 6.325,
                "pitch": 34,
                "velocity": 51,
                "duration": 0.1159091,
                "tempo": 120.0
            },
            {
                "start_time": 6.4454545,
                "end_time": 6.5613636,
                "pitch": 34,
                "velocity": 51,
                "duration": 0.1159091,
                "tempo": 120.0
            },
            {
                "start_time": 6.6795455,
                "end_time": 6.7909091,
                "pitch": 34,
                "velocity": 51,
                "duration": 0.1113636,
                "tempo": 120.0
            },
            {
                "start_time": 6.9068182,
                "end_time": 7.0204545,
                "pitch": 34,
                "velocity": 51,
                "duration": 0.1136364,
                "tempo": 120.0
            },
            {
                "start_time": 7.1363636,
                "end_time": 7.2522727,
                "pitch": 34,
                "velocity": 51,
                "duration": 0.1159091,
                "tempo": 120.0
            },
            {
                "start_time": 7.3704545,
                "end_time": 7.4863636,
                "pitch": 34,
                "velocity": 51,
                "duration": 0.1159091,
                "tempo": 120.0
            },
            {
                "start_time": 7.6068182,
                "end_time": 7.7204545,
                "pitch": 33,
                "velocity": 51,
                "duration": 0.1136364,
                "tempo": 120.0
            },
            {
                "start_time": 7.8386364,
                "end_time": 7.9545455,
                "pitch": 33,
                "velocity": 51,
                "duration": 0.1159091,
                "tempo": 120.0
            },
            {
                "start_time": 8.0727273,
                "end_time": 8.1886364,
                "pitch": 33,
                "velocity": 51,
                "duration": 0.1159091,
                "tempo": 120.0
            },
            {
                "start_time": 8.3090909,
                "end_time": 8.425,
                "pitch": 33,
                "velocity": 51,
                "duration": 0.1159091,
                "tempo": 120.0
            },
            {
                "start_time": 8.5431818,
                "end_time": 8.6545455,
                "pitch": 33,
                "velocity": 51,
                "duration": 0.1113636,
                "tempo": 120.0
            },
            {
                "start_time": 8.7727273,
                "end_time": 8.8840909,
                "pitch": 33,
                "velocity": 51,
                "duration": 0.1113636,
                "tempo": 120.0
            },
            {
                "start_time": 9.0,
                "end_time": 9.1159091,
                "pitch": 33,
                "velocity": 51,
                "duration": 0.1159091,
                "tempo": 120.0
            },
            {
                "start_time": 9.2363636,
                "end_time": 9.35,
                "pitch": 33,
                "velocity": 51,
                "duration": 0.1136364,
                "tempo": 120.0
            },
            {
                "start_time": 9.4704545,
                "end_time": 9.5818182,
                "pitch": 33,
                "velocity": 51,
                "duration": 0.1113636,
                "tempo": 120.0
            },
            {
                "start_time": 9.6977273,
                "end_time": 9.8113636,
                "pitch": 33,
                "velocity": 51,
                "duration": 0.1136364,
                "tempo": 120.0
            },
            {
                "start_time": 9.9272727,
                "end_time": 10.0431818,
                "pitch": 33,
                "velocity": 51,
                "duration": 0.1159091,
                "tempo": 120.0
            },
            {
                "start_time": 10.1636364,
                "end_time": 10.2795455,
                "pitch": 33,
                "velocity": 51,
                "duration": 0.1159091,
                "tempo": 120.0
            },
            {
                "start_time": 10.3977273,
                "end_time": 10.5113636,
                "pitch": 33,
                "velocity": 51,
                "duration": 0.1136364,
                "tempo": 120.0
            },
            {
                "start_time": 10.6318182,
                "end_time": 10.7477273,
                "pitch": 33,
                "velocity": 51,
                "duration": 0.1159091,
                "tempo": 120.0
            },
            {
                "start_time": 10.8681818,
                "end_time": 10.9795455,
                "pitch": 33,
                "velocity": 51,
                "duration": 0.1113636,
                "tempo": 120.0
            },
            {
                "start_time": 11.0954545,
                "end_time": 11.2090909,
                "pitch": 33,
                "velocity": 51,
                "duration": 0.1136364,
                "tempo": 120.0
            },
            {
                "start_time": 11.325,
                "end_time": 11.4409091,
                "pitch": 34,
                "velocity": 51,
                "duration": 0.1159091,
                "tempo": 120.0
            },
            {
                "start_time": 11.5590909,
                "end_time": 11.675,
                "pitch": 34,
                "velocity": 51,
                "duration": 0.1159091,
                "tempo": 120.0
            },
            {
                "start_time": 11.7931818,
                "end_time": 11.9090909,
                "pitch": 34,
                "velocity": 51,
                "duration": 0.1159091,
                "tempo": 120.0
            },
            {
                "start_time": 12.0295455,
                "end_time": 12.1454545,
                "pitch": 34,
                "velocity": 51,
                "duration": 0.1159091,
                "tempo": 120.0
            },
            {
                "start_time": 12.2636364,
                "end_time": 12.375,
                "pitch": 34,
                "velocity": 51,
                "duration": 0.1113636,
                "tempo": 120.0
            },
            {
                "start_time": 12.4931818,
                "end_time": 12.6045455,
                "pitch": 34,
                "velocity": 51,
                "duration": 0.1113636,
                "tempo": 120.0
            },
            {
                "start_time": 12.7204545,
                "end_time": 12.8363636,
                "pitch": 34,
                "velocity": 51,
                "duration": 0.1159091,
                "tempo": 120.0
            },
            {
                "start_time": 12.9568182,
                "end_time": 13.0704545,
                "pitch": 34,
                "velocity": 51,
                "duration": 0.1136364,
                "tempo": 120.0
            },
            {
                "start_time": 13.1909091,
                "end_time": 13.3045455,
                "pitch": 34,
                "velocity": 51,
                "duration": 0.1136364,
                "tempo": 120.0
            },
            {
                "start_time": 13.4227273,
                "end_time": 13.5409091,
                "pitch": 34,
                "velocity": 51,
                "duration": 0.1181818,
                "tempo": 120.0
            },
            {
                "start_time": 13.6590909,
                "end_time": 13.7704545,
                "pitch": 34,
                "velocity": 51,
                "duration": 0.1113636,
                "tempo": 120.0
            },
            {
                "start_time": 13.8886364,
                "end_time": 14.0022727,
                "pitch": 34,
                "velocity": 51,
                "duration": 0.1136364,
                "tempo": 120.0
            },
            {
                "start_time": 14.1181818,
                "end_time": 14.2318182,
                "pitch": 34,
                "velocity": 51,
                "duration": 0.1136364,
                "tempo": 120.0
            },
            {
                "start_time": 14.3522727,
                "end_time": 14.4659091,
                "pitch": 34,
                "velocity": 51,
                "duration": 0.1136364,
                "tempo": 120.0
            },
            {
                "start_time": 14.5863636,
                "end_time": 14.7022727,
                "pitch": 34,
                "velocity": 51,
                "duration": 0.1159091,
                "tempo": 120.0
            },
            {
                "start_time": 14.8204545,
                "end_time": 14.9363636,
                "pitch": 34,
                "velocity": 51,
                "duration": 0.1159091,
                "tempo": 120.0
            },
            {
                "start_time": 15.5136364,
                "end_time": 15.9818182,
                "pitch": 33,
                "velocity": 51,
                "duration": 0.4681818,
                "tempo": 120.0
            },
            {
                "start_time": 16.4522727,
                "end_time": 16.9090909,
                "pitch": 33,
                "velocity": 51,
                "duration": 0.4568182,
                "tempo": 120.0
            },
            {
                "start_time": 17.3795455,
                "end_time": 17.8477273,
                "pitch": 33,
                "velocity": 51,
                "duration": 0.4681818,
                "tempo": 120.0
            },
            {
                "start_time": 18.3068182,
                "end_time": 18.775,
                "pitch": 33,
                "velocity": 51,
                "duration": 0.4681818,
                "tempo": 120.0
            },
            {
                "start_time": 18.775,
                "end_time": 19.4772727,
                "pitch": 34,
                "velocity": 51,
                "duration": 0.7022727,
                "tempo": 120.0
            },
            {
                "start_time": 19.4772727,
                "end_time": 19.5931818,
                "pitch": 34,
                "velocity": 51,
                "duration": 0.1159091,
                "tempo": 120.0
            },
            {
                "start_time": 19.5931818,
                "end_time": 19.7136364,
                "pitch": 34,
                "velocity": 51,
                "duration": 0.1204545,
                "tempo": 120.0
            },
            {
                "start_time": 19.7136364,
                "end_time": 20.4045455,
                "pitch": 34,
                "velocity": 51,
                "duration": 0.6909091,
                "tempo": 120.0
            },
            {
                "start_time": 20.4045455,
                "end_time": 20.5204545,
                "pitch": 34,
                "velocity": 51,
                "duration": 0.1159091,
                "tempo": 120.0
            },
            {
                "start_time": 20.5204545,
                "end_time": 20.6409091,
                "pitch": 34,
                "velocity": 51,
                "duration": 0.1204545,
                "tempo": 120.0
            },
            {
                "start_time": 20.6409091,
                "end_time": 21.3318182,
                "pitch": 34,
                "velocity": 51,
                "duration": 0.6909091,
                "tempo": 120.0
            },
            {
                "start_time": 21.3340909,
                "end_time": 21.4477273,
                "pitch": 33,
                "velocity": 51,
                "duration": 0.1136364,
                "tempo": 120.0
            },
            {
                "start_time": 21.4477273,
                "end_time": 21.5681818,
                "pitch": 33,
                "velocity": 51,
                "duration": 0.1204545,
                "tempo": 120.0
            },
            {
                "start_time": 21.5681818,
                "end_time": 22.0363636,
                "pitch": 34,
                "velocity": 51,
                "duration": 0.4681818,
                "tempo": 120.0
            },
            {
                "start_time": 22.0363636,
                "end_time": 22.4954545,
                "pitch": 36,
                "velocity": 51,
                "duration": 0.4590909,
                "tempo": 120.0
            },
            {
                "start_time": 22.9636364,
                "end_time": 23.4318182,
                "pitch": 33,
                "velocity": 51,
                "duration": 0.4681818,
                "tempo": 120.0
            },
            {
                "start_time": 23.8909091,
                "end_time": 24.3590909,
                "pitch": 33,
                "velocity": 51,
                "duration": 0.4681818,
                "tempo": 120.0
            },
            {
                "start_time": 24.8181818,
                "end_time": 25.2863636,
                "pitch": 33,
                "velocity": 51,
                "duration": 0.4681818,
                "tempo": 120.0
            },
            {
                "start_time": 25.7568182,
                "end_time": 26.225,
                "pitch": 33,
                "velocity": 51,
                "duration": 0.4681818,
                "tempo": 120.0
            },
            {
                "start_time": 26.225,
                "end_time": 26.9159091,
                "pitch": 34,
                "velocity": 51,
                "duration": 0.6909091,
                "tempo": 120.0
            },
            {
                "start_time": 26.9181818,
                "end_time": 27.0318182,
                "pitch": 34,
                "velocity": 51,
                "duration": 0.1136364,
                "tempo": 120.0
            },
            {
                "start_time": 27.0318182,
                "end_time": 27.1522727,
                "pitch": 34,
                "velocity": 51,
                "duration": 0.1204545,
                "tempo": 120.0
            },
            {
                "start_time": 27.1522727,
                "end_time": 27.85,
                "pitch": 34,
                "velocity": 51,
                "duration": 0.6977273,
                "tempo": 120.0
            },
            {
                "start_time": 27.85,
                "end_time": 27.9613636,
                "pitch": 34,
                "velocity": 51,
                "duration": 0.1113636,
                "tempo": 120.0
            },
            {
                "start_time": 27.9613636,
                "end_time": 28.0795455,
                "pitch": 34,
                "velocity": 51,
                "duration": 0.1181818,
                "tempo": 120.0
            },
            {
                "start_time": 28.0795455,
                "end_time": 28.7818182,
                "pitch": 34,
                "velocity": 51,
                "duration": 0.7022727,
                "tempo": 120.0
            },
            {
                "start_time": 28.7818182,
                "end_time": 28.8977273,
                "pitch": 33,
                "velocity": 51,
                "duration": 0.1159091,
                "tempo": 120.0
            },
            {
                "start_time": 28.8977273,
                "end_time": 29.0159091,
                "pitch": 33,
                "velocity": 51,
                "duration": 0.1181818,
                "tempo": 120.0
            },
            {
                "start_time": 29.0181818,
                "end_time": 29.475,
                "pitch": 34,
                "velocity": 51,
                "duration": 0.4568182,
                "tempo": 120.0
            },
            {
                "start_time": 29.475,
                "end_time": 29.9454545,
                "pitch": 36,
                "velocity": 51,
                "duration": 0.4704545,
                "tempo": 120.0
            },
            {
                "start_time": 29.9454545,
                "end_time": 30.0590909,
                "pitch": 33,
                "velocity": 51,
                "duration": 0.1136364,
                "tempo": 120.0
            },
            {
                "start_time": 30.4113636,
                "end_time": 30.4590909,
                "pitch": 33,
                "velocity": 51,
                "duration": 0.0477273,
                "tempo": 120.0
            },
            {
                "start_time": 30.5272727,
                "end_time": 30.575,
                "pitch": 33,
                "velocity": 51,
                "duration": 0.0477273,
                "tempo": 120.0
            },
            {
                "start_time": 30.6409091,
                "end_time": 30.6886364,
                "pitch": 33,
                "velocity": 51,
                "duration": 0.0477273,
                "tempo": 120.0
            },
            {
                "start_time": 30.7568182,
                "end_time": 30.8022727,
                "pitch": 33,
                "velocity": 51,
                "duration": 0.0454545,
                "tempo": 120.0
            },
            {
                "start_time": 30.8704545,
                "end_time": 30.9863636,
                "pitch": 33,
                "velocity": 51,
                "duration": 0.1159091,
                "tempo": 120.0
            },
            {
                "start_time": 31.3386364,
                "end_time": 31.3886364,
                "pitch": 33,
                "velocity": 51,
                "duration": 0.05,
                "tempo": 120.0
            },
            {
                "start_time": 31.4568182,
                "end_time": 31.5045455,
                "pitch": 33,
                "velocity": 51,
                "duration": 0.0477273,
                "tempo": 120.0
            },
            {
                "start_time": 31.5727273,
                "end_time": 31.6227273,
                "pitch": 33,
                "velocity": 51,
                "duration": 0.05,
                "tempo": 120.0
            },
            {
                "start_time": 31.6909091,
                "end_time": 31.7386364,
                "pitch": 33,
                "velocity": 51,
                "duration": 0.0477273,
                "tempo": 120.0
            },
            {
                "start_time": 31.8090909,
                "end_time": 31.9204545,
                "pitch": 34,
                "velocity": 51,
                "duration": 0.1113636,
                "tempo": 120.0
            },
            {
                "start_time": 32.2659091,
                "end_time": 32.3159091,
                "pitch": 34,
                "velocity": 51,
                "duration": 0.05,
                "tempo": 120.0
            },
            {
                "start_time": 32.3840909,
                "end_time": 32.4318182,
                "pitch": 34,
                "velocity": 51,
                "duration": 0.0477273,
                "tempo": 120.0
            },
            {
                "start_time": 32.5022727,
                "end_time": 32.55,
                "pitch": 34,
                "velocity": 51,
                "duration": 0.0477273,
                "tempo": 120.0
            },
            {
                "start_time": 32.6181818,
                "end_time": 32.6659091,
                "pitch": 34,
                "velocity": 51,
                "duration": 0.0477273,
                "tempo": 120.0
            },
            {
                "start_time": 32.7363636,
                "end_time": 32.85,
                "pitch": 34,
                "velocity": 51,
                "duration": 0.1136364,
                "tempo": 120.0
            },
            {
                "start_time": 33.2045455,
                "end_time": 33.2522727,
                "pitch": 34,
                "velocity": 51,
                "duration": 0.0477273,
                "tempo": 120.0
            },
            {
                "start_time": 33.3181818,
                "end_time": 33.3659091,
                "pitch": 34,
                "velocity": 51,
                "duration": 0.0477273,
                "tempo": 120.0
            },
            {
                "start_time": 33.4340909,
                "end_time": 33.4818182,
                "pitch": 34,
                "velocity": 51,
                "duration": 0.0477273,
                "tempo": 120.0
            },
            {
                "start_time": 33.5477273,
                "end_time": 33.5954545,
                "pitch": 34,
                "velocity": 51,
                "duration": 0.0477273,
                "tempo": 120.0
            },
            {
                "start_time": 33.6636364,
                "end_time": 33.7772727,
                "pitch": 33,
                "velocity": 51,
                "duration": 0.1136364,
                "tempo": 120.0
            },
            {
                "start_time": 34.1318182,
                "end_time": 34.1795455,
                "pitch": 33,
                "velocity": 51,
                "duration": 0.0477273,
                "tempo": 120.0
            },
            {
                "start_time": 34.25,
                "end_time": 34.2977273,
                "pitch": 33,
                "velocity": 51,
                "duration": 0.0477273,
                "tempo": 120.0
            },
            {
                "start_time": 34.3659091,
                "end_time": 34.4136364,
                "pitch": 33,
                "velocity": 51,
                "duration": 0.0477273,
                "tempo": 120.0
            },
            {
                "start_time": 34.4840909,
                "end_time": 34.5318182,
                "pitch": 33,
                "velocity": 51,
                "duration": 0.0477273,
                "tempo": 120.0
            },
            {
                "start_time": 34.6,
                "end_time": 34.7136364,
                "pitch": 33,
                "velocity": 51,
                "duration": 0.1136364,
                "tempo": 120.0
            },
            {
                "start_time": 35.0590909,
                "end_time": 35.1068182,
                "pitch": 33,
                "velocity": 51,
                "duration": 0.0477273,
                "tempo": 120.0
            },
            {
                "start_time": 35.175,
                "end_time": 35.225,
                "pitch": 33,
                "velocity": 51,
                "duration": 0.05,
                "tempo": 120.0
            },
            {
                "start_time": 35.2931818,
                "end_time": 35.3409091,
                "pitch": 33,
                "velocity": 51,
                "duration": 0.0477273,
                "tempo": 120.0
            },
            {
                "start_time": 35.4113636,
                "end_time": 35.4590909,
                "pitch": 33,
                "velocity": 51,
                "duration": 0.0477273,
                "tempo": 120.0
            },
            {
                "start_time": 35.5295455,
                "end_time": 35.6431818,
                "pitch": 34,
                "velocity": 51,
                "duration": 0.1136364,
                "tempo": 120.0
            },
            {
                "start_time": 35.9977273,
                "end_time": 36.0431818,
                "pitch": 34,
                "velocity": 51,
                "duration": 0.0454545,
                "tempo": 120.0
            },
            {
                "start_time": 36.1113636,
                "end_time": 36.1590909,
                "pitch": 34,
                "velocity": 51,
                "duration": 0.0477273,
                "tempo": 120.0
            },
            {
                "start_time": 36.225,
                "end_time": 36.2727273,
                "pitch": 34,
                "velocity": 51,
                "duration": 0.0477273,
                "tempo": 120.0
            },
            {
                "start_time": 36.3409091,
                "end_time": 36.3886364,
                "pitch": 34,
                "velocity": 51,
                "duration": 0.0477273,
                "tempo": 120.0
            },
            {
                "start_time": 36.4545455,
                "end_time": 36.5704545,
                "pitch": 34,
                "velocity": 51,
                "duration": 0.1159091,
                "tempo": 120.0
            },
            {
                "start_time": 36.925,
                "end_time": 36.9704545,
                "pitch": 34,
                "velocity": 51,
                "duration": 0.0454545,
                "tempo": 120.0
            },
            {
                "start_time": 37.0386364,
                "end_time": 37.0863636,
                "pitch": 34,
                "velocity": 51,
                "duration": 0.0477273,
                "tempo": 120.0
            },
            {
                "start_time": 37.1522727,
                "end_time": 37.2,
                "pitch": 34,
                "velocity": 51,
                "duration": 0.0477273,
                "tempo": 120.0
            },
            {
                "start_time": 37.2681818,
                "end_time": 37.3136364,
                "pitch": 34,
                "velocity": 51,
                "duration": 0.0454545,
                "tempo": 120.0
            },
            {
                "start_time": 37.3840909,
                "end_time": 37.5818182,
                "pitch": 28,
                "velocity": 51,
                "duration": 0.1977273,
                "tempo": 120.0
            },
            {
                "start_time": 37.6159091,
                "end_time": 37.8159091,
                "pitch": 28,
                "velocity": 51,
                "duration": 0.2,
                "tempo": 120.0
            },
            {
                "start_time": 37.85,
                "end_time": 38.05,
                "pitch": 28,
                "velocity": 51,
                "duration": 0.2,
                "tempo": 120.0
            },
            {
                "start_time": 38.0863636,
                "end_time": 38.2840909,
                "pitch": 28,
                "velocity": 51,
                "duration": 0.1977273,
                "tempo": 120.0
            },
            {
                "start_time": 38.3204545,
                "end_time": 38.5204545,
                "pitch": 28,
                "velocity": 51,
                "duration": 0.2,
                "tempo": 120.0
            },
            {
                "start_time": 38.5545455,
                "end_time": 38.7545455,
                "pitch": 28,
                "velocity": 51,
                "duration": 0.2,
                "tempo": 120.0
            },
            {
                "start_time": 38.7909091,
                "end_time": 38.9840909,
                "pitch": 28,
                "velocity": 51,
                "duration": 0.1931818,
                "tempo": 120.0
            },
            {
                "start_time": 39.0181818,
                "end_time": 39.2136364,
                "pitch": 28,
                "velocity": 51,
                "duration": 0.1954545,
                "tempo": 120.0
            },
            {
                "start_time": 39.2477273,
                "end_time": 39.4477273,
                "pitch": 28,
                "velocity": 51,
                "duration": 0.2,
                "tempo": 120.0
            },
            {
                "start_time": 39.4818182,
                "end_time": 39.6818182,
                "pitch": 28,
                "velocity": 51,
                "duration": 0.2,
                "tempo": 120.0
            },
            {
                "start_time": 39.7159091,
                "end_time": 39.9159091,
                "pitch": 28,
                "velocity": 51,
                "duration": 0.2,
                "tempo": 120.0
            },
            {
                "start_time": 39.9522727,
                "end_time": 40.15,
                "pitch": 28,
                "velocity": 51,
                "duration": 0.1977273,
                "tempo": 120.0
            },
            {
                "start_time": 40.1863636,
                "end_time": 40.3795455,
                "pitch": 28,
                "velocity": 51,
                "duration": 0.1931818,
                "tempo": 120.0
            },
            {
                "start_time": 40.4136364,
                "end_time": 40.6090909,
                "pitch": 28,
                "velocity": 51,
                "duration": 0.1954545,
                "tempo": 120.0
            },
            {
                "start_time": 40.6454545,
                "end_time": 40.8431818,
                "pitch": 28,
                "velocity": 51,
                "duration": 0.1977273,
                "tempo": 120.0
            },
            {
                "start_time": 40.8772727,
                "end_time": 41.0772727,
                "pitch": 28,
                "velocity": 51,
                "duration": 0.2,
                "tempo": 120.0
            },
            {
                "start_time": 41.1159091,
                "end_time": 41.3113636,
                "pitch": 33,
                "velocity": 51,
                "duration": 0.1954545,
                "tempo": 120.0
            },
            {
                "start_time": 41.3477273,
                "end_time": 41.5454545,
                "pitch": 33,
                "velocity": 51,
                "duration": 0.1977273,
                "tempo": 120.0
            },
            {
                "start_time": 41.5818182,
                "end_time": 41.7795455,
                "pitch": 33,
                "velocity": 51,
                "duration": 0.1977273,
                "tempo": 120.0
            },
            {
                "start_time": 41.8181818,
                "end_time": 42.0159091,
                "pitch": 33,
                "velocity": 51,
                "duration": 0.1977273,
                "tempo": 120.0
            },
            {
                "start_time": 42.0522727,
                "end_time": 42.2454545,
                "pitch": 33,
                "velocity": 51,
                "duration": 0.1931818,
                "tempo": 120.0
            },
            {
                "start_time": 42.2795455,
                "end_time": 42.475,
                "pitch": 33,
                "velocity": 51,
                "duration": 0.1954545,
                "tempo": 120.0
            },
            {
                "start_time": 42.5090909,
                "end_time": 42.7068182,
                "pitch": 33,
                "velocity": 51,
                "duration": 0.1977273,
                "tempo": 120.0
            },
            {
                "start_time": 42.7431818,
                "end_time": 42.9431818,
                "pitch": 33,
                "velocity": 51,
                "duration": 0.2,
                "tempo": 120.0
            },
            {
                "start_time": 42.9795455,
                "end_time": 43.1727273,
                "pitch": 35,
                "velocity": 51,
                "duration": 0.1931818,
                "tempo": 120.0
            },
            {
                "start_time": 43.2068182,
                "end_time": 43.4022727,
                "pitch": 35,
                "velocity": 51,
                "duration": 0.1954545,
                "tempo": 120.0
            },
            {
                "start_time": 43.4363636,
                "end_time": 43.6340909,
                "pitch": 35,
                "velocity": 51,
                "duration": 0.1977273,
                "tempo": 120.0
            },
            {
                "start_time": 43.6727273,
                "end_time": 43.8704545,
                "pitch": 35,
                "velocity": 51,
                "duration": 0.1977273,
                "tempo": 120.0
            },
            {
                "start_time": 43.9068182,
                "end_time": 44.1045455,
                "pitch": 35,
                "velocity": 51,
                "duration": 0.1977273,
                "tempo": 120.0
            },
            {
                "start_time": 44.1386364,
                "end_time": 44.3386364,
                "pitch": 35,
                "velocity": 51,
                "duration": 0.2,
                "tempo": 120.0
            },
            {
                "start_time": 44.3727273,
                "end_time": 44.5727273,
                "pitch": 35,
                "velocity": 51,
                "duration": 0.2,
                "tempo": 120.0
            },
            {
                "start_time": 44.6090909,
                "end_time": 44.8068182,
                "pitch": 35,
                "velocity": 51,
                "duration": 0.1977273,
                "tempo": 120.0
            },
            {
                "start_time": 44.8454545,
                "end_time": 45.0363636,
                "pitch": 36,
                "velocity": 51,
                "duration": 0.1909091,
                "tempo": 120.0
            },
            {
                "start_time": 45.0727273,
                "end_time": 45.2659091,
                "pitch": 36,
                "velocity": 51,
                "duration": 0.1931818,
                "tempo": 120.0
            },
            {
                "start_time": 45.3,
                "end_time": 45.5,
                "pitch": 36,
                "velocity": 51,
                "duration": 0.2,
                "tempo": 120.0
            },
            {
                "start_time": 45.5363636,
                "end_time": 45.7340909,
                "pitch": 36,
                "velocity": 51,
                "duration": 0.1977273,
                "tempo": 120.0
            },
            {
                "start_time": 45.7704545,
                "end_time": 45.9636364,
                "pitch": 36,
                "velocity": 51,
                "duration": 0.1931818,
                "tempo": 120.0
            },
            {
                "start_time": 45.9977273,
                "end_time": 46.1931818,
                "pitch": 36,
                "velocity": 51,
                "duration": 0.1954545,
                "tempo": 120.0
            },
            {
                "start_time": 46.2272727,
                "end_time": 46.4272727,
                "pitch": 36,
                "velocity": 51,
                "duration": 0.2,
                "tempo": 120.0
            },
            {
                "start_time": 46.4613636,
                "end_time": 46.6613636,
                "pitch": 36,
                "velocity": 51,
                "duration": 0.2,
                "tempo": 120.0
            },
            {
                "start_time": 46.6977273,
                "end_time": 46.8954545,
                "pitch": 28,
                "velocity": 51,
                "duration": 0.1977273,
                "tempo": 120.0
            },
            {
                "start_time": 46.9318182,
                "end_time": 47.1318182,
                "pitch": 28,
                "velocity": 51,
                "duration": 0.2,
                "tempo": 120.0
            },
            {
                "start_time": 47.1659091,
                "end_time": 47.3659091,
                "pitch": 28,
                "velocity": 51,
                "duration": 0.2,
                "tempo": 120.0
            },
            {
                "start_time": 47.4,
                "end_time": 47.6,
                "pitch": 28,
                "velocity": 51,
                "duration": 0.2,
                "tempo": 120.0
            },
            {
                "start_time": 47.6363636,
                "end_time": 47.8295455,
                "pitch": 28,
                "velocity": 51,
                "duration": 0.1931818,
                "tempo": 120.0
            },
            {
                "start_time": 47.8636364,
                "end_time": 48.0590909,
                "pitch": 28,
                "velocity": 51,
                "duration": 0.1954545,
                "tempo": 120.0
            },
            {
                "start_time": 48.0931818,
                "end_time": 48.2931818,
                "pitch": 28,
                "velocity": 51,
                "duration": 0.2,
                "tempo": 120.0
            },
            {
                "start_time": 48.3272727,
                "end_time": 48.5272727,
                "pitch": 28,
                "velocity": 51,
                "duration": 0.2,
                "tempo": 120.0
            },
            {
                "start_time": 48.5636364,
                "end_time": 50.4159091,
                "pitch": 33,
                "velocity": 51,
                "duration": 1.8522727,
                "tempo": 120.0
            }
        ],
        "Violin": [
            {
                "start_time": 0.1477273,
                "end_time": 1.0909091,
                "pitch": 81,
                "velocity": 127,
                "duration": 0.9431818,
                "tempo": 120.0
            },
            {
                "start_time": 1.0909091,
                "end_time": 2.0181818,
                "pitch": 79,
                "velocity": 127,
                "duration": 0.9272727,
                "tempo": 120.0
            },
            {
                "start_time": 2.0181818,
                "end_time": 3.4136364,
                "pitch": 77,
                "velocity": 127,
                "duration": 1.3954545,
                "tempo": 120.0
            },
            {
                "start_time": 3.4136364,
                "end_time": 3.6477273,
                "pitch": 76,
                "velocity": 127,
                "duration": 0.2340909,
                "tempo": 120.0
            },
            {
                "start_time": 3.7659091,
                "end_time": 3.8840909,
                "pitch": 77,
                "velocity": 127,
                "duration": 0.1181818,
                "tempo": 120.0
            },
            {
                "start_time": 3.8840909,
                "end_time": 3.9977273,
                "pitch": 77,
                "velocity": 127,
                "duration": 0.1136364,
                "tempo": 120.0
            },
            {
                "start_time": 3.9977273,
                "end_time": 4.1113636,
                "pitch": 70,
                "velocity": 127,
                "duration": 0.1136364,
                "tempo": 120.0
            },
            {
                "start_time": 4.1136364,
                "end_time": 4.2272727,
                "pitch": 74,
                "velocity": 127,
                "duration": 0.1136364,
                "tempo": 120.0
            },
            {
                "start_time": 4.2272727,
                "end_time": 4.3409091,
                "pitch": 76,
                "velocity": 127,
                "duration": 0.1136364,
                "tempo": 120.0
            },
            {
                "start_time": 4.3409091,
                "end_time": 4.4590909,
                "pitch": 77,
                "velocity": 127,
                "duration": 0.1181818,
                "tempo": 120.0
            },
            {
                "start_time": 4.5772727,
                "end_time": 4.6931818,
                "pitch": 79,
                "velocity": 127,
                "duration": 0.1159091,
                "tempo": 120.0
            },
            {
                "start_time": 4.8113636,
                "end_time": 4.9272727,
                "pitch": 81,
                "velocity": 127,
                "duration": 0.1159091,
                "tempo": 120.0
            },
            {
                "start_time": 4.9272727,
                "end_time": 5.0454545,
                "pitch": 81,
                "velocity": 127,
                "duration": 0.1181818,
                "tempo": 120.0
            },
            {
                "start_time": 5.0454545,
                "end_time": 5.1613636,
                "pitch": 79,
                "velocity": 127,
                "duration": 0.1159091,
                "tempo": 120.0
            },
            {
                "start_time": 5.2795455,
                "end_time": 5.3931818,
                "pitch": 81,
                "velocity": 127,
                "duration": 0.1136364,
                "tempo": 120.0
            },
            {
                "start_time": 5.5090909,
                "end_time": 5.6227273,
                "pitch": 82,
                "velocity": 127,
                "duration": 0.1136364,
                "tempo": 120.0
            },
            {
                "start_time": 5.7386364,
                "end_time": 5.9727273,
                "pitch": 81,
                "velocity": 127,
                "duration": 0.2340909,
                "tempo": 120.0
            },
            {
                "start_time": 5.9727273,
                "end_time": 6.0886364,
                "pitch": 79,
                "velocity": 127,
                "duration": 0.1159091,
                "tempo": 120.0
            },
            {
                "start_time": 6.0886364,
                "end_time": 6.2068182,
                "pitch": 81,
                "velocity": 127,
                "duration": 0.1181818,
                "tempo": 120.0
            },
            {
                "start_time": 6.2068182,
                "end_time": 6.3227273,
                "pitch": 77,
                "velocity": 127,
                "duration": 0.1159091,
                "tempo": 120.0
            },
            {
                "start_time": 6.325,
                "end_time": 6.4409091,
                "pitch": 79,
                "velocity": 127,
                "duration": 0.1159091,
                "tempo": 120.0
            },
            {
                "start_time": 6.4409091,
                "end_time": 6.5590909,
                "pitch": 76,
                "velocity": 127,
                "duration": 0.1181818,
                "tempo": 120.0
            },
            {
                "start_time": 6.5590909,
                "end_time": 6.675,
                "pitch": 77,
                "velocity": 127,
                "duration": 0.1159091,
                "tempo": 120.0
            },
            {
                "start_time": 6.675,
                "end_time": 6.9045455,
                "pitch": 79,
                "velocity": 127,
                "duration": 0.2295455,
                "tempo": 120.0
            },
            {
                "start_time": 6.9045455,
                "end_time": 7.0181818,
                "pitch": 81,
                "velocity": 127,
                "duration": 0.1136364,
                "tempo": 120.0
            },
            {
                "start_time": 7.1340909,
                "end_time": 7.25,
                "pitch": 82,
                "velocity": 127,
                "duration": 0.1159091,
                "tempo": 120.0
            },
            {
                "start_time": 7.3681818,
                "end_time": 7.4863636,
                "pitch": 84,
                "velocity": 127,
                "duration": 0.1181818,
                "tempo": 120.0
            },
            {
                "start_time": 7.6022727,
                "end_time": 8.5409091,
                "pitch": 81,
                "velocity": 127,
                "duration": 0.9386364,
                "tempo": 120.0
            },
            {
                "start_time": 8.5409091,
                "end_time": 9.4681818,
                "pitch": 79,
                "velocity": 127,
                "duration": 0.9272727,
                "tempo": 120.0
            },
            {
                "start_time": 9.4681818,
                "end_time": 10.8636364,
                "pitch": 77,
                "velocity": 127,
                "duration": 1.3954545,
                "tempo": 120.0
            },
            {
                "start_time": 10.8636364,
                "end_time": 11.0931818,
                "pitch": 76,
                "velocity": 127,
                "duration": 0.2295455,
                "tempo": 120.0
            },
            {
                "start_time": 11.2068182,
                "end_time": 11.3227273,
                "pitch": 77,
                "velocity": 127,
                "duration": 0.1159091,
                "tempo": 120.0
            },
            {
                "start_time": 11.3227273,
                "end_time": 11.4386364,
                "pitch": 77,
                "velocity": 127,
                "duration": 0.1159091,
                "tempo": 120.0
            },
            {
                "start_time": 11.4386364,
                "end_time": 11.5568182,
                "pitch": 70,
                "velocity": 127,
                "duration": 0.1181818,
                "tempo": 120.0
            },
            {
                "start_time": 11.5568182,
                "end_time": 11.6727273,
                "pitch": 74,
                "velocity": 127,
                "duration": 0.1159091,
                "tempo": 120.0
            },
            {
                "start_time": 11.675,
                "end_time": 11.7909091,
                "pitch": 76,
                "velocity": 127,
                "duration": 0.1159091,
                "tempo": 120.0
            },
            {
                "start_time": 11.7909091,
                "end_time": 11.9090909,
                "pitch": 77,
                "velocity": 127,
                "duration": 0.1181818,
                "tempo": 120.0
            },
            {
                "start_time": 12.025,
                "end_time": 12.1431818,
                "pitch": 79,
                "velocity": 127,
                "duration": 0.1181818,
                "tempo": 120.0
            },
            {
                "start_time": 12.2613636,
                "end_time": 12.375,
                "pitch": 81,
                "velocity": 127,
                "duration": 0.1136364,
                "tempo": 120.0
            },
            {
                "start_time": 12.375,
                "end_time": 12.4886364,
                "pitch": 81,
                "velocity": 127,
                "duration": 0.1136364,
                "tempo": 120.0
            },
            {
                "start_time": 12.4886364,
                "end_time": 12.6045455,
                "pitch": 79,
                "velocity": 127,
                "duration": 0.1159091,
                "tempo": 120.0
            },
            {
                "start_time": 12.7181818,
                "end_time": 12.8363636,
                "pitch": 81,
                "velocity": 127,
                "duration": 0.1181818,
                "tempo": 120.0
            },
            {
                "start_time": 12.9522727,
                "end_time": 13.0704545,
                "pitch": 82,
                "velocity": 127,
                "duration": 0.1181818,
                "tempo": 120.0
            },
            {
                "start_time": 13.1886364,
                "end_time": 13.4227273,
                "pitch": 81,
                "velocity": 127,
                "duration": 0.2340909,
                "tempo": 120.0
            },
            {
                "start_time": 13.4227273,
                "end_time": 13.5386364,
                "pitch": 79,
                "velocity": 127,
                "duration": 0.1159091,
                "tempo": 120.0
            },
            {
                "start_time": 13.5386364,
                "end_time": 13.6568182,
                "pitch": 81,
                "velocity": 127,
                "duration": 0.1181818,
                "tempo": 120.0
            },
            {
                "start_time": 13.6568182,
                "end_time": 13.7704545,
                "pitch": 77,
                "velocity": 127,
                "duration": 0.1136364,
                "tempo": 120.0
            },
            {
                "start_time": 13.7704545,
                "end_time": 13.8863636,
                "pitch": 79,
                "velocity": 127,
                "duration": 0.1159091,
                "tempo": 120.0
            },
            {
                "start_time": 13.8863636,
                "end_time": 14.0,
                "pitch": 76,
                "velocity": 127,
                "duration": 0.1136364,
                "tempo": 120.0
            },
            {
                "start_time": 14.0,
                "end_time": 14.1136364,
                "pitch": 77,
                "velocity": 127,
                "duration": 0.1136364,
                "tempo": 120.0
            },
            {
                "start_time": 14.1159091,
                "end_time": 14.35,
                "pitch": 79,
                "velocity": 127,
                "duration": 0.2340909,
                "tempo": 120.0
            },
            {
                "start_time": 14.35,
                "end_time": 14.4659091,
                "pitch": 81,
                "velocity": 127,
                "duration": 0.1159091,
                "tempo": 120.0
            },
            {
                "start_time": 14.5840909,
                "end_time": 14.7,
                "pitch": 82,
                "velocity": 127,
                "duration": 0.1159091,
                "tempo": 120.0
            },
            {
                "start_time": 14.8181818,
                "end_time": 14.9340909,
                "pitch": 84,
                "velocity": 127,
                "duration": 0.1159091,
                "tempo": 120.0
            },
            {
                "start_time": 15.0522727,
                "end_time": 15.5113636,
                "pitch": 81,
                "velocity": 127,
                "duration": 0.4590909,
                "tempo": 120.0
            },
            {
                "start_time": 15.5113636,
                "end_time": 15.6272727,
                "pitch": 88,
                "velocity": 127,
                "duration": 0.1159091,
                "tempo": 120.0
            },
            {
                "start_time": 15.8613636,
                "end_time": 15.9795455,
                "pitch": 86,
                "velocity": 127,
                "duration": 0.1181818,
                "tempo": 120.0
            },
            {
                "start_time": 15.9795455,
                "end_time": 16.6772727,
                "pitch": 88,
                "velocity": 127,
                "duration": 0.6977273,
                "tempo": 120.0
            },
            {
                "start_time": 16.6772727,
                "end_time": 16.7909091,
                "pitch": 86,
                "velocity": 127,
                "duration": 0.1136364,
                "tempo": 120.0
            },
            {
                "start_time": 16.7931818,
                "end_time": 16.9068182,
                "pitch": 88,
                "velocity": 127,
                "duration": 0.1136364,
                "tempo": 120.0
            },
            {
                "start_time": 16.9068182,
                "end_time": 17.6090909,
                "pitch": 91,
                "velocity": 127,
                "duration": 0.7022727,
                "tempo": 120.0
            },
            {
                "start_time": 17.6113636,
                "end_time": 17.7272727,
                "pitch": 89,
                "velocity": 127,
                "duration": 0.1159091,
                "tempo": 120.0
            },
            {
                "start_time": 17.7272727,
                "end_time": 17.8454545,
                "pitch": 88,
                "velocity": 127,
                "duration": 0.1181818,
                "tempo": 120.0
            },
            {
                "start_time": 17.8454545,
                "end_time": 18.3022727,
                "pitch": 89,
                "velocity": 127,
                "duration": 0.4568182,
                "tempo": 120.0
            },
            {
                "start_time": 18.3045455,
                "end_time": 18.6545455,
                "pitch": 88,
                "velocity": 127,
                "duration": 0.35,
                "tempo": 120.0
            },
            {
                "start_time": 18.6545455,
                "end_time": 18.7727273,
                "pitch": 86,
                "velocity": 127,
                "duration": 0.1181818,
                "tempo": 120.0
            },
            {
                "start_time": 18.7727273,
                "end_time": 19.7090909,
                "pitch": 82,
                "velocity": 127,
                "duration": 0.9363636,
                "tempo": 120.0
            },
            {
                "start_time": 19.7113636,
                "end_time": 20.6363636,
                "pitch": 81,
                "velocity": 127,
                "duration": 0.925,
                "tempo": 120.0
            },
            {
                "start_time": 20.6386364,
                "end_time": 20.7522727,
                "pitch": 86,
                "velocity": 127,
                "duration": 0.1136364,
                "tempo": 120.0
            },
            {
                "start_time": 20.7522727,
                "end_time": 20.8659091,
                "pitch": 84,
                "velocity": 127,
                "duration": 0.1136364,
                "tempo": 120.0
            },
            {
                "start_time": 20.8659091,
                "end_time": 20.9818182,
                "pitch": 84,
                "velocity": 127,
                "duration": 0.1159091,
                "tempo": 120.0
            },
            {
                "start_time": 20.9818182,
                "end_time": 21.0954545,
                "pitch": 84,
                "velocity": 127,
                "duration": 0.1136364,
                "tempo": 120.0
            },
            {
                "start_time": 21.0954545,
                "end_time": 21.2113636,
                "pitch": 81,
                "velocity": 127,
                "duration": 0.1159091,
                "tempo": 120.0
            },
            {
                "start_time": 21.3295455,
                "end_time": 21.4477273,
                "pitch": 81,
                "velocity": 127,
                "duration": 0.1181818,
                "tempo": 120.0
            },
            {
                "start_time": 21.4477273,
                "end_time": 21.5636364,
                "pitch": 82,
                "velocity": 127,
                "duration": 0.1159091,
                "tempo": 120.0
            },
            {
                "start_time": 21.5659091,
                "end_time": 21.6818182,
                "pitch": 84,
                "velocity": 127,
                "duration": 0.1159091,
                "tempo": 120.0
            },
            {
                "start_time": 21.8,
                "end_time": 21.9159091,
                "pitch": 81,
                "velocity": 127,
                "duration": 0.1159091,
                "tempo": 120.0
            },
            {
                "start_time": 21.9159091,
                "end_time": 22.0340909,
                "pitch": 82,
                "velocity": 127,
                "duration": 0.1181818,
                "tempo": 120.0
            },
            {
                "start_time": 22.0340909,
                "end_time": 22.1477273,
                "pitch": 79,
                "velocity": 127,
                "duration": 0.1136364,
                "tempo": 120.0
            },
            {
                "start_time": 22.1477273,
                "end_time": 22.2613636,
                "pitch": 81,
                "velocity": 127,
                "duration": 0.1136364,
                "tempo": 120.0
            },
            {
                "start_time": 22.2636364,
                "end_time": 22.3772727,
                "pitch": 77,
                "velocity": 127,
                "duration": 0.1136364,
                "tempo": 120.0
            },
            {
                "start_time": 22.3772727,
                "end_time": 22.4909091,
                "pitch": 79,
                "velocity": 127,
                "duration": 0.1136364,
                "tempo": 120.0
            },
            {
                "start_time": 22.4909091,
                "end_time": 22.9613636,
                "pitch": 81,
                "velocity": 127,
                "duration": 0.4704545,
                "tempo": 120.0
            },
            {
                "start_time": 22.9613636,
                "end_time": 23.0772727,
                "pitch": 88,
                "velocity": 127,
                "duration": 0.1159091,
                "tempo": 120.0
            },
            {
                "start_time": 23.3113636,
                "end_time": 23.4295455,
                "pitch": 86,
                "velocity": 127,
                "duration": 0.1181818,
                "tempo": 120.0
            },
            {
                "start_time": 23.4295455,
                "end_time": 24.1227273,
                "pitch": 88,
                "velocity": 127,
                "duration": 0.6931818,
                "tempo": 120.0
            },
            {
                "start_time": 24.1227273,
                "end_time": 24.2386364,
                "pitch": 86,
                "velocity": 127,
                "duration": 0.1159091,
                "tempo": 120.0
            },
            {
                "start_time": 24.2386364,
                "end_time": 24.3568182,
                "pitch": 88,
                "velocity": 127,
                "duration": 0.1181818,
                "tempo": 120.0
            },
            {
                "start_time": 24.3568182,
                "end_time": 25.05,
                "pitch": 91,
                "velocity": 127,
                "duration": 0.6931818,
                "tempo": 120.0
            },
            {
                "start_time": 25.05,
                "end_time": 25.1659091,
                "pitch": 89,
                "velocity": 127,
                "duration": 0.1159091,
                "tempo": 120.0
            },
            {
                "start_time": 25.1659091,
                "end_time": 25.2840909,
                "pitch": 88,
                "velocity": 127,
                "duration": 0.1181818,
                "tempo": 120.0
            },
            {
                "start_time": 25.2840909,
                "end_time": 25.7522727,
                "pitch": 89,
                "velocity": 127,
                "duration": 0.4681818,
                "tempo": 120.0
            },
            {
                "start_time": 25.7522727,
                "end_time": 26.1045455,
                "pitch": 88,
                "velocity": 127,
                "duration": 0.3522727,
                "tempo": 120.0
            },
            {
                "start_time": 26.1045455,
                "end_time": 26.2227273,
                "pitch": 86,
                "velocity": 127,
                "duration": 0.1181818,
                "tempo": 120.0
            },
            {
                "start_time": 26.2227273,
                "end_time": 27.15,
                "pitch": 82,
                "velocity": 127,
                "duration": 0.9272727,
                "tempo": 120.0
            },
            {
                "start_time": 27.15,
                "end_time": 28.075,
                "pitch": 84,
                "velocity": 127,
                "duration": 0.925,
                "tempo": 120.0
            },
            {
                "start_time": 28.0772727,
                "end_time": 28.5454545,
                "pitch": 86,
                "velocity": 127,
                "duration": 0.4681818,
                "tempo": 120.0
            },
            {
                "start_time": 28.5454545,
                "end_time": 29.0136364,
                "pitch": 88,
                "velocity": 127,
                "duration": 0.4681818,
                "tempo": 120.0
            },
            {
                "start_time": 29.0136364,
                "end_time": 29.4727273,
                "pitch": 89,
                "velocity": 127,
                "duration": 0.4590909,
                "tempo": 120.0
            },
            {
                "start_time": 29.4727273,
                "end_time": 29.9409091,
                "pitch": 91,
                "velocity": 127,
                "duration": 0.4681818,
                "tempo": 120.0
            },
            {
                "start_time": 41.1113636,
                "end_time": 41.2272727,
                "pitch": 83,
                "velocity": 101,
                "duration": 0.1159091,
                "tempo": 120.0
            },
            {
                "start_time": 41.2272727,
                "end_time": 41.3454545,
                "pitch": 76,
                "velocity": 101,
                "duration": 0.1181818,
                "tempo": 120.0
            },
            {
                "start_time": 41.3454545,
                "end_time": 41.4613636,
                "pitch": 72,
                "velocity": 101,
                "duration": 0.1159091,
                "tempo": 120.0
            },
            {
                "start_time": 41.4636364,
                "end_time": 41.5795455,
                "pitch": 76,
                "velocity": 101,
                "duration": 0.1159091,
                "tempo": 120.0
            },
            {
                "start_time": 41.5795455,
                "end_time": 41.6977273,
                "pitch": 83,
                "velocity": 101,
                "duration": 0.1181818,
                "tempo": 120.0
            },
            {
                "start_time": 41.6977273,
                "end_time": 41.8136364,
                "pitch": 76,
                "velocity": 101,
                "duration": 0.1159091,
                "tempo": 120.0
            },
            {
                "start_time": 41.8136364,
                "end_time": 41.9318182,
                "pitch": 72,
                "velocity": 101,
                "duration": 0.1181818,
                "tempo": 120.0
            },
            {
                "start_time": 41.9318182,
                "end_time": 42.0477273,
                "pitch": 76,
                "velocity": 101,
                "duration": 0.1159091,
                "tempo": 120.0
            },
            {
                "start_time": 42.05,
                "end_time": 42.1636364,
                "pitch": 83,
                "velocity": 101,
                "duration": 0.1136364,
                "tempo": 120.0
            },
            {
                "start_time": 42.1636364,
                "end_time": 42.2772727,
                "pitch": 76,
                "velocity": 101,
                "duration": 0.1136364,
                "tempo": 120.0
            },
            {
                "start_time": 42.2772727,
                "end_time": 42.3931818,
                "pitch": 72,
                "velocity": 101,
                "duration": 0.1159091,
                "tempo": 120.0
            },
            {
                "start_time": 42.3931818,
                "end_time": 42.5068182,
                "pitch": 76,
                "velocity": 101,
                "duration": 0.1136364,
                "tempo": 120.0
            },
            {
                "start_time": 42.5068182,
                "end_time": 42.625,
                "pitch": 83,
                "velocity": 101,
                "duration": 0.1181818,
                "tempo": 120.0
            },
            {
                "start_time": 42.625,
                "end_time": 42.7409091,
                "pitch": 76,
                "velocity": 101,
                "duration": 0.1159091,
                "tempo": 120.0
            },
            {
                "start_time": 42.7409091,
                "end_time": 42.8590909,
                "pitch": 72,
                "velocity": 101,
                "duration": 0.1181818,
                "tempo": 120.0
            },
            {
                "start_time": 42.8590909,
                "end_time": 42.975,
                "pitch": 76,
                "velocity": 101,
                "duration": 0.1159091,
                "tempo": 120.0
            },
            {
                "start_time": 42.9772727,
                "end_time": 43.0909091,
                "pitch": 81,
                "velocity": 101,
                "duration": 0.1136364,
                "tempo": 120.0
            },
            {
                "start_time": 43.0909091,
                "end_time": 43.2045455,
                "pitch": 74,
                "velocity": 101,
                "duration": 0.1136364,
                "tempo": 120.0
            },
            {
                "start_time": 43.2045455,
                "end_time": 43.3204545,
                "pitch": 71,
                "velocity": 101,
                "duration": 0.1159091,
                "tempo": 120.0
            },
            {
                "start_time": 43.3204545,
                "end_time": 43.4340909,
                "pitch": 74,
                "velocity": 101,
                "duration": 0.1136364,
                "tempo": 120.0
            },
            {
                "start_time": 43.4340909,
                "end_time": 43.55,
                "pitch": 81,
                "velocity": 101,
                "duration": 0.1159091,
                "tempo": 120.0
            },
            {
                "start_time": 43.5522727,
                "end_time": 43.6681818,
                "pitch": 74,
                "velocity": 101,
                "duration": 0.1159091,
                "tempo": 120.0
            },
            {
                "start_time": 43.6681818,
                "end_time": 43.7863636,
                "pitch": 71,
                "velocity": 101,
                "duration": 0.1181818,
                "tempo": 120.0
            },
            {
                "start_time": 43.7863636,
                "end_time": 43.9022727,
                "pitch": 74,
                "velocity": 101,
                "duration": 0.1159091,
                "tempo": 120.0
            },
            {
                "start_time": 43.9045455,
                "end_time": 44.0204545,
                "pitch": 81,
                "velocity": 101,
                "duration": 0.1159091,
                "tempo": 120.0
            },
            {
                "start_time": 44.0204545,
                "end_time": 44.1363636,
                "pitch": 74,
                "velocity": 101,
                "duration": 0.1159091,
                "tempo": 120.0
            },
            {
                "start_time": 44.1386364,
                "end_time": 44.2545455,
                "pitch": 71,
                "velocity": 101,
                "duration": 0.1159091,
                "tempo": 120.0
            },
            {
                "start_time": 44.2545455,
                "end_time": 44.3727273,
                "pitch": 74,
                "velocity": 101,
                "duration": 0.1181818,
                "tempo": 120.0
            },
            {
                "start_time": 44.3727273,
                "end_time": 44.4886364,
                "pitch": 81,
                "velocity": 101,
                "duration": 0.1159091,
                "tempo": 120.0
            },
            {
                "start_time": 44.4886364,
                "end_time": 44.6068182,
                "pitch": 74,
                "velocity": 101,
                "duration": 0.1181818,
                "tempo": 120.0
            },
            {
                "start_time": 44.6068182,
                "end_time": 44.7227273,
                "pitch": 71,
                "velocity": 101,
                "duration": 0.1159091,
                "tempo": 120.0
            },
            {
                "start_time": 44.725,
                "end_time": 44.8409091,
                "pitch": 74,
                "velocity": 101,
                "duration": 0.1159091,
                "tempo": 120.0
            },
            {
                "start_time": 44.8409091,
                "end_time": 44.9545455,
                "pitch": 79,
                "velocity": 101,
                "duration": 0.1136364,
                "tempo": 120.0
            },
            {
                "start_time": 44.9568182,
                "end_time": 45.0704545,
                "pitch": 72,
                "velocity": 101,
                "duration": 0.1136364,
                "tempo": 120.0
            },
            {
                "start_time": 45.0704545,
                "end_time": 45.1840909,
                "pitch": 69,
                "velocity": 101,
                "duration": 0.1136364,
                "tempo": 120.0
            },
            {
                "start_time": 45.1840909,
                "end_time": 45.3,
                "pitch": 72,
                "velocity": 101,
                "duration": 0.1159091,
                "tempo": 120.0
            },
            {
                "start_time": 45.3,
                "end_time": 45.4159091,
                "pitch": 79,
                "velocity": 101,
                "duration": 0.1159091,
                "tempo": 120.0
            },
            {
                "start_time": 45.4159091,
                "end_time": 45.5340909,
                "pitch": 72,
                "velocity": 101,
                "duration": 0.1181818,
                "tempo": 120.0
            },
            {
                "start_time": 45.5340909,
                "end_time": 45.65,
                "pitch": 69,
                "velocity": 101,
                "duration": 0.1159091,
                "tempo": 120.0
            },
            {
                "start_time": 45.6522727,
                "end_time": 45.7681818,
                "pitch": 72,
                "velocity": 101,
                "duration": 0.1159091,
                "tempo": 120.0
            },
            {
                "start_time": 45.7681818,
                "end_time": 45.8818182,
                "pitch": 77,
                "velocity": 101,
                "duration": 0.1136364,
                "tempo": 120.0
            },
            {
                "start_time": 45.8840909,
                "end_time": 45.9977273,
                "pitch": 72,
                "velocity": 101,
                "duration": 0.1136364,
                "tempo": 120.0
            },
            {
                "start_time": 45.9977273,
                "end_time": 46.1113636,
                "pitch": 69,
                "velocity": 101,
                "duration": 0.1136364,
                "tempo": 120.0
            },
            {
                "start_time": 46.1113636,
                "end_time": 46.2272727,
                "pitch": 72,
                "velocity": 101,
                "duration": 0.1159091,
                "tempo": 120.0
            },
            {
                "start_time": 46.2272727,
                "end_time": 46.3431818,
                "pitch": 77,
                "velocity": 101,
                "duration": 0.1159091,
                "tempo": 120.0
            },
            {
                "start_time": 46.3431818,
                "end_time": 46.4613636,
                "pitch": 72,
                "velocity": 101,
                "duration": 0.1181818,
                "tempo": 120.0
            },
            {
                "start_time": 46.4613636,
                "end_time": 46.5772727,
                "pitch": 69,
                "velocity": 101,
                "duration": 0.1159091,
                "tempo": 120.0
            },
            {
                "start_time": 46.5795455,
                "end_time": 46.6954545,
                "pitch": 72,
                "velocity": 101,
                "duration": 0.1159091,
                "tempo": 120.0
            },
            {
                "start_time": 46.6954545,
                "end_time": 46.8113636,
                "pitch": 80,
                "velocity": 101,
                "duration": 0.1159091,
                "tempo": 120.0
            },
            {
                "start_time": 46.8136364,
                "end_time": 46.9295455,
                "pitch": 74,
                "velocity": 101,
                "duration": 0.1159091,
                "tempo": 120.0
            },
            {
                "start_time": 46.9295455,
                "end_time": 47.0477273,
                "pitch": 71,
                "velocity": 101,
                "duration": 0.1181818,
                "tempo": 120.0
            },
            {
                "start_time": 47.0477273,
                "end_time": 47.1636364,
                "pitch": 74,
                "velocity": 101,
                "duration": 0.1159091,
                "tempo": 120.0
            },
            {
                "start_time": 47.1659091,
                "end_time": 47.2818182,
                "pitch": 80,
                "velocity": 101,
                "duration": 0.1159091,
                "tempo": 120.0
            },
            {
                "start_time": 47.2818182,
                "end_time": 47.3977273,
                "pitch": 74,
                "velocity": 101,
                "duration": 0.1159091,
                "tempo": 120.0
            },
            {
                "start_time": 47.4,
                "end_time": 47.5159091,
                "pitch": 71,
                "velocity": 101,
                "duration": 0.1159091,
                "tempo": 120.0
            },
            {
                "start_time": 47.5159091,
                "end_time": 47.6340909,
                "pitch": 74,
                "velocity": 101,
                "duration": 0.1181818,
                "tempo": 120.0
            },
            {
                "start_time": 47.6340909,
                "end_time": 47.7477273,
                "pitch": 80,
                "velocity": 101,
                "duration": 0.1136364,
                "tempo": 120.0
            },
            {
                "start_time": 47.7477273,
                "end_time": 47.8613636,
                "pitch": 74,
                "velocity": 101,
                "duration": 0.1136364,
                "tempo": 120.0
            },
            {
                "start_time": 47.8636364,
                "end_time": 47.9772727,
                "pitch": 71,
                "velocity": 101,
                "duration": 0.1136364,
                "tempo": 120.0
            },
            {
                "start_time": 47.9772727,
                "end_time": 48.0909091,
                "pitch": 74,
                "velocity": 101,
                "duration": 0.1136364,
                "tempo": 120.0
            },
            {
                "start_time": 48.0931818,
                "end_time": 48.2090909,
                "pitch": 80,
                "velocity": 101,
                "duration": 0.1159091,
                "tempo": 120.0
            },
            {
                "start_time": 48.2090909,
                "end_time": 48.325,
                "pitch": 74,
                "velocity": 101,
                "duration": 0.1159091,
                "tempo": 120.0
            },
            {
                "start_time": 48.3272727,
                "end_time": 48.4431818,
                "pitch": 71,
                "velocity": 101,
                "duration": 0.1159091,
                "tempo": 120.0
            },
            {
                "start_time": 48.4431818,
                "end_time": 48.5613636,
                "pitch": 74,
                "velocity": 101,
                "duration": 0.1181818,
                "tempo": 120.0
            },
            {
                "start_time": 48.5613636,
                "end_time": 50.4136364,
                "pitch": 83,
                "velocity": 101,
                "duration": 1.8522727,
                "tempo": 120.0
            },
            {
                "start_time": 50.4204545,
                "end_time": 50.425,
                "pitch": 81,
                "velocity": 127,
                "duration": 0.0045455,
                "tempo": 120.0
            }
        ],
        "Trumpet": [
            {
                "start_time": 29.9431818,
                "end_time": 31.8068182,
                "pitch": 76,
                "velocity": 51,
                "duration": 1.8636364,
                "tempo": 120.0
            },
            {
                "start_time": 31.8068182,
                "end_time": 33.6613636,
                "pitch": 77,
                "velocity": 51,
                "duration": 1.8545455,
                "tempo": 120.0
            },
            {
                "start_time": 33.6613636,
                "end_time": 35.5272727,
                "pitch": 76,
                "velocity": 51,
                "duration": 1.8659091,
                "tempo": 120.0
            },
            {
                "start_time": 35.5272727,
                "end_time": 37.3818182,
                "pitch": 77,
                "velocity": 51,
                "duration": 1.8545455,
                "tempo": 120.0
            },
            {
                "start_time": 37.3818182,
                "end_time": 38.3181818,
                "pitch": 59,
                "velocity": 80,
                "duration": 0.9363636,
                "tempo": 120.0
            },
            {
                "start_time": 38.3204545,
                "end_time": 38.7886364,
                "pitch": 64,
                "velocity": 80,
                "duration": 0.4681818,
                "tempo": 120.0
            },
            {
                "start_time": 38.7886364,
                "end_time": 39.2454545,
                "pitch": 64,
                "velocity": 80,
                "duration": 0.4568182,
                "tempo": 120.0
            },
            {
                "start_time": 39.2477273,
                "end_time": 40.1840909,
                "pitch": 64,
                "velocity": 80,
                "duration": 0.9363636,
                "tempo": 120.0
            },
            {
                "start_time": 40.1840909,
                "end_time": 40.6431818,
                "pitch": 64,
                "velocity": 80,
                "duration": 0.4590909,
                "tempo": 120.0
            },
            {
                "start_time": 40.6431818,
                "end_time": 41.1113636,
                "pitch": 64,
                "velocity": 80,
                "duration": 0.4681818,
                "tempo": 120.0
            }
        ],
        "French Horn": [
            {
                "start_time": 29.9431818,
                "end_time": 30.4090909,
                "pitch": 64,
                "velocity": 101,
                "duration": 0.4659091,
                "tempo": 120.0
            },
            {
                "start_time": 30.4113636,
                "end_time": 30.525,
                "pitch": 64,
                "velocity": 101,
                "duration": 0.1136364,
                "tempo": 120.0
            },
            {
                "start_time": 30.525,
                "end_time": 30.6386364,
                "pitch": 62,
                "velocity": 101,
                "duration": 0.1136364,
                "tempo": 120.0
            },
            {
                "start_time": 30.6409091,
                "end_time": 30.7545455,
                "pitch": 67,
                "velocity": 101,
                "duration": 0.1136364,
                "tempo": 120.0
            },
            {
                "start_time": 30.7545455,
                "end_time": 30.8681818,
                "pitch": 65,
                "velocity": 101,
                "duration": 0.1136364,
                "tempo": 120.0
            },
            {
                "start_time": 30.8681818,
                "end_time": 31.3363636,
                "pitch": 64,
                "velocity": 101,
                "duration": 0.4681818,
                "tempo": 120.0
            },
            {
                "start_time": 31.3386364,
                "end_time": 31.4545455,
                "pitch": 62,
                "velocity": 101,
                "duration": 0.1159091,
                "tempo": 120.0
            },
            {
                "start_time": 31.6886364,
                "end_time": 31.8068182,
                "pitch": 64,
                "velocity": 101,
                "duration": 0.1181818,
                "tempo": 120.0
            },
            {
                "start_time": 31.8068182,
                "end_time": 32.2636364,
                "pitch": 65,
                "velocity": 101,
                "duration": 0.4568182,
                "tempo": 120.0
            },
            {
                "start_time": 32.2659091,
                "end_time": 32.3818182,
                "pitch": 65,
                "velocity": 101,
                "duration": 0.1159091,
                "tempo": 120.0
            },
            {
                "start_time": 32.3818182,
                "end_time": 32.5,
                "pitch": 67,
                "velocity": 101,
                "duration": 0.1181818,
                "tempo": 120.0
            },
            {
                "start_time": 32.5,
                "end_time": 32.6159091,
                "pitch": 65,
                "velocity": 101,
                "duration": 0.1159091,
                "tempo": 120.0
            },
            {
                "start_time": 32.6159091,
                "end_time": 32.7340909,
                "pitch": 64,
                "velocity": 101,
                "duration": 0.1181818,
                "tempo": 120.0
            },
            {
                "start_time": 32.7340909,
                "end_time": 33.2022727,
                "pitch": 65,
                "velocity": 101,
                "duration": 0.4681818,
                "tempo": 120.0
            },
            {
                "start_time": 33.2022727,
                "end_time": 33.3181818,
                "pitch": 67,
                "velocity": 101,
                "duration": 0.1159091,
                "tempo": 120.0
            },
            {
                "start_time": 33.5454545,
                "end_time": 33.6613636,
                "pitch": 65,
                "velocity": 101,
                "duration": 0.1159091,
                "tempo": 120.0
            },
            {
                "start_time": 33.6613636,
                "end_time": 34.1295455,
                "pitch": 64,
                "velocity": 101,
                "duration": 0.4681818,
                "tempo": 120.0
            },
            {
                "start_time": 34.1295455,
                "end_time": 34.2477273,
                "pitch": 64,
                "velocity": 101,
                "duration": 0.1181818,
                "tempo": 120.0
            },
            {
                "start_time": 34.2477273,
                "end_time": 34.3636364,
                "pitch": 62,
                "velocity": 101,
                "duration": 0.1159091,
                "tempo": 120.0
            },
            {
                "start_time": 34.3659091,
                "end_time": 34.4818182,
                "pitch": 67,
                "velocity": 101,
                "duration": 0.1159091,
                "tempo": 120.0
            },
            {
                "start_time": 34.4818182,
                "end_time": 34.5977273,
                "pitch": 65,
                "velocity": 101,
                "duration": 0.1159091,
                "tempo": 120.0
            },
            {
                "start_time": 34.6,
                "end_time": 35.0568182,
                "pitch": 64,
                "velocity": 101,
                "duration": 0.4568182,
                "tempo": 120.0
            },
            {
                "start_time": 35.0568182,
                "end_time": 35.175,
                "pitch": 62,
                "velocity": 101,
                "duration": 0.1181818,
                "tempo": 120.0
            },
            {
                "start_time": 35.4090909,
                "end_time": 35.525,
                "pitch": 64,
                "velocity": 101,
                "duration": 0.1159091,
                "tempo": 120.0
            },
            {
                "start_time": 35.5272727,
                "end_time": 35.9954545,
                "pitch": 65,
                "velocity": 101,
                "duration": 0.4681818,
                "tempo": 120.0
            },
            {
                "start_time": 35.9954545,
                "end_time": 36.1090909,
                "pitch": 65,
                "velocity": 101,
                "duration": 0.1136364,
                "tempo": 120.0
            },
            {
                "start_time": 36.1090909,
                "end_time": 36.225,
                "pitch": 67,
                "velocity": 101,
                "duration": 0.1159091,
                "tempo": 120.0
            },
            {
                "start_time": 36.225,
                "end_time": 36.3386364,
                "pitch": 65,
                "velocity": 101,
                "duration": 0.1136364,
                "tempo": 120.0
            },
            {
                "start_time": 36.3386364,
                "end_time": 36.4522727,
                "pitch": 64,
                "velocity": 101,
                "duration": 0.1136364,
                "tempo": 120.0
            },
            {
                "start_time": 36.4545455,
                "end_time": 36.9227273,
                "pitch": 65,
                "velocity": 101,
                "duration": 0.4681818,
                "tempo": 120.0
            },
            {
                "start_time": 36.9227273,
                "end_time": 37.0363636,
                "pitch": 67,
                "velocity": 101,
                "duration": 0.1136364,
                "tempo": 120.0
            },
            {
                "start_time": 37.2659091,
                "end_time": 37.3795455,
                "pitch": 65,
                "velocity": 101,
                "duration": 0.1136364,
                "tempo": 120.0
            },
            {
                "start_time": 37.3818182,
                "end_time": 38.3181818,
                "pitch": 64,
                "velocity": 80,
                "duration": 0.9363636,
                "tempo": 120.0
            },
            {
                "start_time": 38.3181818,
                "end_time": 38.7863636,
                "pitch": 71,
                "velocity": 80,
                "duration": 0.4681818,
                "tempo": 120.0
            },
            {
                "start_time": 38.7886364,
                "end_time": 39.2454545,
                "pitch": 69,
                "velocity": 80,
                "duration": 0.4568182,
                "tempo": 120.0
            },
            {
                "start_time": 39.2454545,
                "end_time": 40.1840909,
                "pitch": 68,
                "velocity": 80,
                "duration": 0.9386364,
                "tempo": 120.0
            },
            {
                "start_time": 40.1840909,
                "end_time": 40.6409091,
                "pitch": 74,
                "velocity": 80,
                "duration": 0.4568182,
                "tempo": 120.0
            },
            {
                "start_time": 40.6431818,
                "end_time": 41.1113636,
                "pitch": 71,
                "velocity": 80,
                "duration": 0.4681818,
                "tempo": 120.0
            }
        ]
    }
}