{
    "mood": "angry",
    "instruments": {
        "Oboe": [
            {
                "start_time": 0.0022727,
                "end_time": 0.0136364,
                "pitch": 48,
                "velocity": 80,
                "duration": 0.0113636,
                "tempo": 120.0
            },
            {
                "start_time": 0.0136364,
                "end_time": 0.0431818,
                "pitch": 50,
                "velocity": 80,
                "duration": 0.0295455,
                "tempo": 120.0
            },
            {
                "start_time": 0.0431818,
                "end_time": 0.0886364,
                "pitch": 52,
                "velocity": 80,
                "duration": 0.0454545,
                "tempo": 120.0
            },
            {
                "start_time": 0.0886364,
                "end_time": 0.1363636,
                "pitch": 55,
                "velocity": 80,
                "duration": 0.0477273,
                "tempo": 120.0
            },
            {
                "start_time": 0.1363636,
                "end_time": 0.1659091,
                "pitch": 58,
                "velocity": 80,
                "duration": 0.0295455,
                "tempo": 120.0
            },
            {
                "start_time": 0.1659091,
                "end_time": 0.1977273,
                "pitch": 60,
                "velocity": 80,
                "duration": 0.0318182,
                "tempo": 120.0
            },
            {
                "start_time": 0.1977273,
                "end_time": 0.2272727,
                "pitch": 62,
                "velocity": 80,
                "duration": 0.0295455,
                "tempo": 120.0
            },
            {
                "start_time": 0.1659091,
                "end_time": 0.275,
                "pitch": 64,
                "velocity": 80,
                "duration": 0.1090909,
                "tempo": 120.0
            },
            {
                "start_time": 0.2272727,
                "end_time": 0.275,
                "pitch": 64,
                "velocity": 80,
                "duration": 0.0477273,
                "tempo": 120.0
            },
            {
                "start_time": 0.275,
                "end_time": 0.3204545,
                "pitch": 67,
                "velocity": 80,
                "duration": 0.0454545,
                "tempo": 120.0
            },
            {
                "start_time": 0.3204545,
                "end_time": 0.35,
                "pitch": 70,
                "velocity": 80,
                "duration": 0.0295455,
                "tempo": 120.0
            },
            {
                "start_time": 0.3522727,
                "end_time": 0.3818182,
                "pitch": 49,
                "velocity": 80,
                "duration": 0.0295455,
                "tempo": 120.0
            },
            {
                "start_time": 0.3818182,
                "end_time": 0.4113636,
                "pitch": 51,
                "velocity": 80,
                "duration": 0.0295455,
                "tempo": 120.0
            },
            {
                "start_time": 0.0886364,
                "end_time": 0.4431818,
                "pitch": 0,
                "velocity": 80,
                "duration": 0.3545455,
                "tempo": 120.0
            },
            {
                "start_time": 0.4113636,
                "end_time": 0.4431818,
                "pitch": 53,
                "velocity": 80,
                "duration": 0.0318182,
                "tempo": 120.0
            },
            {
                "start_time": 0.4431818,
                "end_time": 0.4886364,
                "pitch": 55,
                "velocity": 80,
                "duration": 0.0454545,
                "tempo": 120.0
            },
            {
                "start_time": 0.4886364,
                "end_time": 0.5204545,
                "pitch": 58,
                "velocity": 80,
                "duration": 0.0318182,
                "tempo": 120.0
            },
            {
                "start_time": 0.5204545,
                "end_time": 0.55,
                "pitch": 60,
                "velocity": 80,
                "duration": 0.0295455,
                "tempo": 120.0
            },
            {
                "start_time": 0.55,
                "end_time": 0.5818182,
                "pitch": 62,
                "velocity": 80,
                "duration": 0.0318182,
                "tempo": 120.0
            },
            {
                "start_time": 0.5204545,
                "end_time": 0.6272727,
                "pitch": 64,
                "velocity": 80,
                "duration": 0.1068182,
                "tempo": 120.0
            },
            {
                "start_time": 0.5818182,
                "end_time": 0.6272727,
                "pitch": 64,
                "velocity": 80,
                "duration": 0.0454545,
                "tempo": 120.0
            },
            {
                "start_time": 0.6272727,
                "end_time": 0.675,
                "pitch": 67,
                "velocity": 80,
                "duration": 0.0477273,
                "tempo": 120.0
            },
            {
                "start_time": 0.675,
                "end_time": 0.7045455,
                "pitch": 70,
                "velocity": 80,
                "duration": 0.0295455,
                "tempo": 120.0
            },
            {
                "start_time": 0.7045455,
                "end_time": 0.7409091,
                "pitch": 50,
                "velocity": 80,
                "duration": 0.0363636,
                "tempo": 120.0
            },
            {
                "start_time": 0.4431818,
                "end_time": 0.7954545,
                "pitch": 0,
                "velocity": 80,
                "duration": 0.3522727,
                "tempo": 120.0
            },
            {
                "start_time": 0.7409091,
                "end_time": 0.7954545,
                "pitch": 52,
                "velocity": 80,
                "duration": 0.0545455,
                "tempo": 120.0
            },
            {
                "start_time": 0.7954545,
                "end_time": 0.8477273,
                "pitch": 55,
                "velocity": 80,
                "duration": 0.0522727,
                "tempo": 120.0
            },
            {
                "start_time": 0.8477273,
                "end_time": 0.8840909,
                "pitch": 58,
                "velocity": 80,
                "duration": 0.0363636,
                "tempo": 120.0
            },
            {
                "start_time": 0.8840909,
                "end_time": 0.9204545,
                "pitch": 60,
                "velocity": 80,
                "duration": 0.0363636,
                "tempo": 120.0
            },
            {
                "start_time": 0.9204545,
                "end_time": 0.9545455,
                "pitch": 62,
                "velocity": 80,
                "duration": 0.0340909,
                "tempo": 120.0
            },
            {
                "start_time": 0.8840909,
                "end_time": 1.0090909,
                "pitch": 64,
                "velocity": 80,
                "duration": 0.125,
                "tempo": 120.0
            },
            {
                "start_time": 0.9545455,
                "end_time": 1.0090909,
                "pitch": 64,
                "velocity": 80,
                "duration": 0.0545455,
                "tempo": 120.0
            },
            {
                "start_time": 1.0090909,
                "end_time": 1.0636364,
                "pitch": 67,
                "velocity": 80,
                "duration": 0.0545455,
                "tempo": 120.0
            },
            {
                "start_time": 1.0636364,
                "end_time": 1.0977273,
                "pitch": 70,
                "velocity": 80,
                "duration": 0.0340909,
                "tempo": 120.0
            },
            {
                "start_time": 0.7045455,
                "end_time": 1.0977273,
                "pitch": 77,
                "velocity": 80,
                "duration": 0.3931818,
                "tempo": 120.0
            },
            {
                "start_time": 1.0977273,
                "end_time": 1.1340909,
                "pitch": 51,
                "velocity": 80,
                "duration": 0.0363636,
                "tempo": 120.0
            },
            {
                "start_time": 0.7954545,
                "end_time": 1.1704545,
                "pitch": 0,
                "velocity": 80,
                "duration": 0.375,
                "tempo": 120.0
            },
            {
                "start_time": 1.1340909,
                "end_time": 1.1704545,
                "pitch": 53,
                "velocity": 80,
                "duration": 0.0363636,
                "tempo": 120.0
            },
            {
                "start_time": 1.1704545,
                "end_time": 1.2227273,
                "pitch": 55,
                "velocity": 80,
                "duration": 0.0522727,
                "tempo": 120.0
            },
            {
                "start_time": 1.2227273,
                "end_time": 1.2590909,
                "pitch": 58,
                "velocity": 80,
                "duration": 0.0363636,
                "tempo": 120.0
            },
            {
                "start_time": 1.2590909,
                "end_time": 1.2954545,
                "pitch": 60,
                "velocity": 80,
                "duration": 0.0363636,
                "tempo": 120.0
            },
            {
                "start_time": 1.2954545,
                "end_time": 1.3318182,
                "pitch": 62,
                "velocity": 80,
                "duration": 0.0363636,
                "tempo": 120.0
            },
            {
                "start_time": 1.2590909,
                "end_time": 1.3840909,
                "pitch": 64,
                "velocity": 80,
                "duration": 0.125,
                "tempo": 120.0
            },
            {
                "start_time": 1.3318182,
                "end_time": 1.3840909,
                "pitch": 64,
                "velocity": 80,
                "duration": 0.0522727,
                "tempo": 120.0
            },
            {
                "start_time": 1.3840909,
                "end_time": 1.4386364,
                "pitch": 67,
                "velocity": 80,
                "duration": 0.0545455,
                "tempo": 120.0
            },
            {
                "start_time": 1.4386364,
                "end_time": 1.4727273,
                "pitch": 70,
                "velocity": 80,
                "duration": 0.0340909,
                "tempo": 120.0
            },
            {
                "start_time": 1.1704545,
                "end_time": 1.5227273,
                "pitch": 0,
                "velocity": 80,
                "duration": 0.3522727,
                "tempo": 120.0
            },
            {
                "start_time": 1.4727273,
                "end_time": 1.5227273,
                "pitch": 52,
                "velocity": 80,
                "duration": 0.05,
                "tempo": 120.0
            },
            {
                "start_time": 1.5227273,
                "end_time": 1.5727273,
                "pitch": 55,
                "velocity": 80,
                "duration": 0.05,
                "tempo": 120.0
            },
            {
                "start_time": 1.5727273,
                "end_time": 1.6068182,
                "pitch": 58,
                "velocity": 80,
                "duration": 0.0340909,
                "tempo": 120.0
            },
            {
                "start_time": 1.6068182,
                "end_time": 1.6409091,
                "pitch": 60,
                "velocity": 80,
                "duration": 0.0340909,
                "tempo": 120.0
            },
            {
                "start_time": 1.6409091,
                "end_time": 1.675,
                "pitch": 62,
                "velocity": 80,
                "duration": 0.0340909,
                "tempo": 120.0
            },
            {
                "start_time": 1.6068182,
                "end_time": 1.725,
                "pitch": 64,
                "velocity": 80,
                "duration": 0.1181818,
                "tempo": 120.0
            },
            {
                "start_time": 1.675,
                "end_time": 1.725,
                "pitch": 64,
                "velocity": 80,
                "duration": 0.05,
                "tempo": 120.0
            },
            {
                "start_time": 1.725,
                "end_time": 1.775,
                "pitch": 67,
                "velocity": 80,
                "duration": 0.05,
                "tempo": 120.0
            },
            {
                "start_time": 1.775,
                "end_time": 1.8090909,
                "pitch": 70,
                "velocity": 80,
                "duration": 0.0340909,
                "tempo": 120.0
            },
            {
                "start_time": 1.4727273,
                "end_time": 1.8090909,
                "pitch": 78,
                "velocity": 80,
                "duration": 0.3363636,
                "tempo": 120.0
            },
            {
                "start_time": 1.5227273,
                "end_time": 1.8431818,
                "pitch": 0,
                "velocity": 80,
                "duration": 0.3204545,
                "tempo": 120.0
            },
            {
                "start_time": 1.8090909,
                "end_time": 1.8431818,
                "pitch": 53,
                "velocity": 80,
                "duration": 0.0340909,
                "tempo": 120.0
            },
            {
                "start_time": 1.8431818,
                "end_time": 1.8931818,
                "pitch": 55,
                "velocity": 80,
                "duration": 0.05,
                "tempo": 120.0
            },
            {
                "start_time": 1.8931818,
                "end_time": 1.9272727,
                "pitch": 58,
                "velocity": 80,
                "duration": 0.0340909,
                "tempo": 120.0
            },
            {
                "start_time": 1.9272727,
                "end_time": 1.9613636,
                "pitch": 60,
                "velocity": 80,
                "duration": 0.0340909,
                "tempo": 120.0
            },
            {
                "start_time": 1.9613636,
                "end_time": 1.9954545,
                "pitch": 62,
                "velocity": 80,
                "duration": 0.0340909,
                "tempo": 120.0
            },
            {
                "start_time": 1.9272727,
                "end_time": 2.0454545,
                "pitch": 64,
                "velocity": 80,
                "duration": 0.1181818,
                "tempo": 120.0
            },
            {
                "start_time": 1.9954545,
                "end_time": 2.0454545,
                "pitch": 64,
                "velocity": 80,
                "duration": 0.05,
                "tempo": 120.0
            },
            {
                "start_time": 2.0454545,
                "end_time": 2.0954545,
                "pitch": 67,
                "velocity": 80,
                "duration": 0.05,
                "tempo": 120.0
            },
            {
                "start_time": 2.0954545,
                "end_time": 2.1295455,
                "pitch": 70,
                "velocity": 80,
                "duration": 0.0340909,
                "tempo": 120.0
            },
            {
                "start_time": 1.8090909,
                "end_time": 2.1295455,
                "pitch": 78,
                "velocity": 80,
                "duration": 0.3204545,
                "tempo": 120.0
            },
            {
                "start_time": 1.8431818,
                "end_time": 2.1454545,
                "pitch": 0,
                "velocity": 80,
                "duration": 0.3022727,
                "tempo": 120.0
            },
            {
                "start_time": 2.1295455,
                "end_time": 2.1454545,
                "pitch": 54,
                "velocity": 80,
                "duration": 0.0159091,
                "tempo": 120.0
            },
            {
                "start_time": 2.1454545,
                "end_time": 2.1954545,
                "pitch": 55,
                "velocity": 80,
                "duration": 0.05,
                "tempo": 120.0
            },
            {
                "start_time": 2.1954545,
                "end_time": 2.2318182,
                "pitch": 58,
                "velocity": 80,
                "duration": 0.0363636,
                "tempo": 120.0
            },
            {
                "start_time": 2.2318182,
                "end_time": 2.2659091,
                "pitch": 60,
                "velocity": 80,
                "duration": 0.0340909,
                "tempo": 120.0
            },
            {
                "start_time": 2.2659091,
                "end_time": 2.3022727,
                "pitch": 62,
                "velocity": 80,
                "duration": 0.0363636,
                "tempo": 120.0
            },
            {
                "start_time": 2.2318182,
                "end_time": 2.3545455,
                "pitch": 64,
                "velocity": 80,
                "duration": 0.1227273,
                "tempo": 120.0
            },
            {
                "start_time": 2.3022727,
                "end_time": 2.3545455,
                "pitch": 64,
                "velocity": 80,
                "duration": 0.0522727,
                "tempo": 120.0
            },
            {
                "start_time": 2.3545455,
                "end_time": 2.4068182,
                "pitch": 67,
                "velocity": 80,
                "duration": 0.0522727,
                "tempo": 120.0
            },
            {
                "start_time": 2.4068182,
                "end_time": 2.4409091,
                "pitch": 70,
                "velocity": 80,
                "duration": 0.0340909,
                "tempo": 120.0
            },
            {
                "start_time": 2.4409091,
                "end_time": 2.4931818,
                "pitch": 55,
                "velocity": 80,
                "duration": 0.0522727,
                "tempo": 120.0
            },
            {
                "start_time": 2.4931818,
                "end_time": 2.5272727,
                "pitch": 58,
                "velocity": 80,
                "duration": 0.0340909,
                "tempo": 120.0
            },
            {
                "start_time": 2.5272727,
                "end_time": 2.5636364,
                "pitch": 60,
                "velocity": 80,
                "duration": 0.0363636,
                "tempo": 120.0
            },
            {
                "start_time": 2.5636364,
                "end_time": 2.5977273,
                "pitch": 62,
                "velocity": 80,
                "duration": 0.0340909,
                "tempo": 120.0
            },
            {
                "start_time": 2.5272727,
                "end_time": 2.65,
                "pitch": 64,
                "velocity": 80,
                "duration": 0.1227273,
                "tempo": 120.0
            },
            {
                "start_time": 2.5977273,
                "end_time": 2.65,
                "pitch": 64,
                "velocity": 80,
                "duration": 0.0522727,
                "tempo": 120.0
            },
            {
                "start_time": 2.4409091,
                "end_time": 2.7022727,
                "pitch": 67,
                "velocity": 80,
                "duration": 0.2613636,
                "tempo": 120.0
            },
            {
                "start_time": 2.65,
                "end_time": 2.7022727,
                "pitch": 67,
                "velocity": 80,
                "duration": 0.0522727,
                "tempo": 120.0
            },
            {
                "start_time": 2.7022727,
                "end_time": 2.7363636,
                "pitch": 70,
                "velocity": 80,
                "duration": 0.0340909,
                "tempo": 120.0
            },
            {
                "start_time": 2.7386364,
                "end_time": 2.7886364,
                "pitch": 56,
                "velocity": 80,
                "duration": 0.05,
                "tempo": 120.0
            },
            {
                "start_time": 2.7886364,
                "end_time": 2.8068182,
                "pitch": 59,
                "velocity": 80,
                "duration": 0.0181818,
                "tempo": 120.0
            },
            {
                "start_time": 2.8068182,
                "end_time": 2.8409091,
                "pitch": 60,
                "velocity": 80,
                "duration": 0.0340909,
                "tempo": 120.0
            },
            {
                "start_time": 2.8409091,
                "end_time": 2.8772727,
                "pitch": 62,
                "velocity": 80,
                "duration": 0.0363636,
                "tempo": 120.0
            },
            {
                "start_time": 2.8068182,
                "end_time": 2.9295455,
                "pitch": 64,
                "velocity": 80,
                "duration": 0.1227273,
                "tempo": 120.0
            },
            {
                "start_time": 2.8772727,
                "end_time": 2.9295455,
                "pitch": 64,
                "velocity": 80,
                "duration": 0.0522727,
                "tempo": 120.0
            },
            {
                "start_time": 2.9295455,
                "end_time": 2.9818182,
                "pitch": 67,
                "velocity": 80,
                "duration": 0.0522727,
                "tempo": 120.0
            },
            {
                "start_time": 2.9818182,
                "end_time": 3.0181818,
                "pitch": 70,
                "velocity": 80,
                "duration": 0.0363636,
                "tempo": 120.0
            },
            {
                "start_time": 3.0181818,
                "end_time": 3.0545455,
                "pitch": 57,
                "velocity": 80,
                "duration": 0.0363636,
                "tempo": 120.0
            },
            {
                "start_time": 3.0545455,
                "end_time": 3.0727273,
                "pitch": 59,
                "velocity": 80,
                "duration": 0.0181818,
                "tempo": 120.0
            },
            {
                "start_time": 3.0727273,
                "end_time": 3.1090909,
                "pitch": 60,
                "velocity": 80,
                "duration": 0.0363636,
                "tempo": 120.0
            },
            {
                "start_time": 3.1090909,
                "end_time": 3.1454545,
                "pitch": 62,
                "velocity": 80,
                "duration": 0.0363636,
                "tempo": 120.0
            },
            {
                "start_time": 3.0727273,
                "end_time": 3.2022727,
                "pitch": 64,
                "velocity": 80,
                "duration": 0.1295455,
                "tempo": 120.0
            },
            {
                "start_time": 3.1454545,
                "end_time": 3.2022727,
                "pitch": 64,
                "velocity": 80,
                "duration": 0.0568182,
                "tempo": 120.0
            },
            {
                "start_time": 3.2022727,
                "end_time": 3.2568182,
                "pitch": 67,
                "velocity": 80,
                "duration": 0.0545455,
                "tempo": 120.0
            },
            {
                "start_time": 3.2568182,
                "end_time": 3.2931818,
                "pitch": 70,
                "velocity": 80,
                "duration": 0.0363636,
                "tempo": 120.0
            },
            {
                "start_time": 3.2931818,
                "end_time": 3.3295455,
                "pitch": 58,
                "velocity": 80,
                "duration": 0.0363636,
                "tempo": 120.0
            },
            {
                "start_time": 3.3295455,
                "end_time": 3.3659091,
                "pitch": 60,
                "velocity": 80,
                "duration": 0.0363636,
                "tempo": 120.0
            },
            {
                "start_time": 3.3659091,
                "end_time": 3.4022727,
                "pitch": 62,
                "velocity": 80,
                "duration": 0.0363636,
                "tempo": 120.0
            },
            {
                "start_time": 3.3295455,
                "end_time": 3.4590909,
                "pitch": 64,
                "velocity": 80,
                "duration": 0.1295455,
                "tempo": 120.0
            },
            {
                "start_time": 3.4022727,
                "end_time": 3.4590909,
                "pitch": 64,
                "velocity": 80,
                "duration": 0.0568182,
                "tempo": 120.0
            },
            {
                "start_time": 3.4590909,
                "end_time": 3.5136364,
                "pitch": 67,
                "velocity": 80,
                "duration": 0.0545455,
                "tempo": 120.0
            },
            {
                "start_time": 3.5136364,
                "end_time": 3.55,
                "pitch": 70,
                "velocity": 80,
                "duration": 0.0363636,
                "tempo": 120.0
            },
            {
                "start_time": 3.55,
                "end_time": 3.5681818,
                "pitch": 59,
                "velocity": 80,
                "duration": 0.0181818,
                "tempo": 120.0
            },
            {
                "start_time": 3.5681818,
                "end_time": 3.6045455,
                "pitch": 60,
                "velocity": 80,
                "duration": 0.0363636,
                "tempo": 120.0
            },
            {
                "start_time": 3.6045455,
                "end_time": 3.6409091,
                "pitch": 62,
                "velocity": 80,
                "duration": 0.0363636,
                "tempo": 120.0
            },
            {
                "start_time": 3.5681818,
                "end_time": 3.6977273,
                "pitch": 64,
                "velocity": 80,
                "duration": 0.1295455,
                "tempo": 120.0
            },
            {
                "start_time": 3.6409091,
                "end_time": 3.6977273,
                "pitch": 64,
                "velocity": 80,
                "duration": 0.0568182,
                "tempo": 120.0
            },
            {
                "start_time": 3.6977273,
                "end_time": 3.7522727,
                "pitch": 67,
                "velocity": 80,
                "duration": 0.0545455,
                "tempo": 120.0
            },
            {
                "start_time": 3.7522727,
                "end_time": 3.7886364,
                "pitch": 70,
                "velocity": 80,
                "duration": 0.0363636,
                "tempo": 120.0
            },
            {
                "start_time": 0.35,
                "end_time": 3.7886364,
                "pitch": 76,
                "velocity": 80,
                "duration": 3.4386364,
                "tempo": 120.0
            },
            {
                "start_time": 3.7886364,
                "end_time": 3.8227273,
                "pitch": 60,
                "velocity": 80,
                "duration": 0.0340909,
                "tempo": 120.0
            },
            {
                "start_time": 3.8227273,
                "end_time": 3.8568182,
                "pitch": 62,
                "velocity": 80,
                "duration": 0.0340909,
                "tempo": 120.0
            },
            {
                "start_time": 3.8568182,
                "end_time": 3.9090909,
                "pitch": 64,
                "velocity": 80,
                "duration": 0.0522727,
                "tempo": 120.0
            },
            {
                "start_time": 3.9090909,
                "end_time": 3.9590909,
                "pitch": 67,
                "velocity": 80,
                "duration": 0.05,
                "tempo": 120.0
            },
            {
                "start_time": 3.9590909,
                "end_time": 3.9954545,
                "pitch": 70,
                "velocity": 80,
                "duration": 0.0363636,
                "tempo": 120.0
            },
            {
                "start_time": 3.7886364,
                "end_time": 3.9954545,
                "pitch": 76,
                "velocity": 80,
                "duration": 0.2068182,
                "tempo": 120.0
            },
            {
                "start_time": 3.9954545,
                "end_time": 4.0295455,
                "pitch": 61,
                "velocity": 80,
                "duration": 0.0340909,
                "tempo": 120.0
            },
            {
                "start_time": 4.0295455,
                "end_time": 4.0795455,
                "pitch": 63,
                "velocity": 80,
                "duration": 0.05,
                "tempo": 120.0
            },
            {
                "start_time": 4.0795455,
                "end_time": 4.1159091,
                "pitch": 66,
                "velocity": 80,
                "duration": 0.0363636,
                "tempo": 120.0
            },
            {
                "start_time": 4.1159091,
                "end_time": 4.1659091,
                "pitch": 68,
                "velocity": 80,
                "duration": 0.05,
                "tempo": 120.0
            },
            {
                "start_time": 4.1659091,
                "end_time": 4.1840909,
                "pitch": 71,
                "velocity": 80,
                "duration": 0.0181818,
                "tempo": 120.0
            },
            {
                "start_time": 1.0977273,
                "end_time": 4.1840909,
                "pitch": 77,
                "velocity": 80,
                "duration": 3.0863636,
                "tempo": 120.0
            },
            {
                "start_time": 4.1840909,
                "end_time": 4.2181818,
                "pitch": 62,
                "velocity": 80,
                "duration": 0.0340909,
                "tempo": 120.0
            },
            {
                "start_time": 4.2181818,
                "end_time": 4.2704545,
                "pitch": 64,
                "velocity": 80,
                "duration": 0.0522727,
                "tempo": 120.0
            },
            {
                "start_time": 4.2704545,
                "end_time": 4.3227273,
                "pitch": 67,
                "velocity": 80,
                "duration": 0.0522727,
                "tempo": 120.0
            },
            {
                "start_time": 4.3227273,
                "end_time": 4.3568182,
                "pitch": 70,
                "velocity": 80,
                "duration": 0.0340909,
                "tempo": 120.0
            },
            {
                "start_time": 4.1840909,
                "end_time": 4.3568182,
                "pitch": 77,
                "velocity": 80,
                "duration": 0.1727273,
                "tempo": 120.0
            },
            {
                "start_time": 4.3568182,
                "end_time": 4.4068182,
                "pitch": 63,
                "velocity": 80,
                "duration": 0.05,
                "tempo": 120.0
            },
            {
                "start_time": 4.4068182,
                "end_time": 4.4431818,
                "pitch": 66,
                "velocity": 80,
                "duration": 0.0363636,
                "tempo": 120.0
            },
            {
                "start_time": 4.4431818,
                "end_time": 4.4931818,
                "pitch": 68,
                "velocity": 80,
                "duration": 0.05,
                "tempo": 120.0
            },
            {
                "start_time": 4.4931818,
                "end_time": 4.5113636,
                "pitch": 71,
                "velocity": 80,
                "duration": 0.0181818,
                "tempo": 120.0
            },
            {
                "start_time": 2.1295455,
                "end_time": 4.5113636,
                "pitch": 78,
                "velocity": 80,
                "duration": 2.3818182,
                "tempo": 120.0
            },
            {
                "start_time": 4.5113636,
                "end_time": 4.5613636,
                "pitch": 64,
                "velocity": 80,
                "duration": 0.05,
                "tempo": 120.0
            },
            {
                "start_time": 4.5613636,
                "end_time": 4.6136364,
                "pitch": 67,
                "velocity": 80,
                "duration": 0.0522727,
                "tempo": 120.0
            },
            {
                "start_time": 4.6136364,
                "end_time": 4.6477273,
                "pitch": 70,
                "velocity": 80,
                "duration": 0.0340909,
                "tempo": 120.0
            },
            {
                "start_time": 4.5113636,
                "end_time": 4.6477273,
                "pitch": 78,
                "velocity": 80,
                "duration": 0.1363636,
                "tempo": 120.0
            },
            {
                "start_time": 4.6477273,
                "end_time": 4.6818182,
                "pitch": 65,
                "velocity": 80,
                "duration": 0.0340909,
                "tempo": 120.0
            },
            {
                "start_time": 4.6818182,
                "end_time": 4.7318182,
                "pitch": 67,
                "velocity": 80,
                "duration": 0.05,
                "tempo": 120.0
            },
            {
                "start_time": 4.7318182,
                "end_time": 4.7659091,
                "pitch": 70,
                "velocity": 80,
                "duration": 0.0340909,
                "tempo": 120.0
            },
            {
                "start_time": 4.6477273,
                "end_time": 4.7659091,
                "pitch": 78,
                "velocity": 80,
                "duration": 0.1181818,
                "tempo": 120.0
            },
            {
                "start_time": 4.7659091,
                "end_time": 4.8,
                "pitch": 66,
                "velocity": 80,
                "duration": 0.0340909,
                "tempo": 120.0
            },
            {
                "start_time": 4.8,
                "end_time": 4.8522727,
                "pitch": 68,
                "velocity": 80,
                "duration": 0.0522727,
                "tempo": 120.0
            },
            {
                "start_time": 4.8522727,
                "end_time": 4.8704545,
                "pitch": 71,
                "velocity": 80,
                "duration": 0.0181818,
                "tempo": 120.0
            },
            {
                "start_time": 4.8704545,
                "end_time": 4.9204545,
                "pitch": 67,
                "velocity": 80,
                "duration": 0.05,
                "tempo": 120.0
            },
            {
                "start_time": 4.8704545,
                "end_time": 4.9204545,
                "pitch": 67,
                "velocity": 80,
                "duration": 0.05,
                "tempo": 120.0
            },
            {
                "start_time": 4.9204545,
                "end_time": 4.9545455,
                "pitch": 70,
                "velocity": 80,
                "duration": 0.0340909,
                "tempo": 120.0
            },
            {
                "start_time": 4.9545455,
                "end_time": 5.0045455,
                "pitch": 67,
                "velocity": 80,
                "duration": 0.05,
                "tempo": 120.0
            },
            {
                "start_time": 5.0045455,
                "end_time": 5.0386364,
                "pitch": 70,
                "velocity": 80,
                "duration": 0.0340909,
                "tempo": 120.0
            },
            {
                "start_time": 5.0386364,
                "end_time": 5.0909091,
                "pitch": 67,
                "velocity": 80,
                "duration": 0.0522727,
                "tempo": 120.0
            },
            {
                "start_time": 5.0909091,
                "end_time": 5.125,
                "pitch": 70,
                "velocity": 80,
                "duration": 0.0340909,
                "tempo": 120.0
            },
            {
                "start_time": 5.125,
                "end_time": 5.175,
                "pitch": 67,
                "velocity": 80,
                "duration": 0.05,
                "tempo": 120.0
            },
            {
                "start_time": 5.175,
                "end_time": 5.2090909,
                "pitch": 70,
                "velocity": 80,
                "duration": 0.0340909,
                "tempo": 120.0
            },
            {
                "start_time": 5.2090909,
                "end_time": 5.2613636,
                "pitch": 67,
                "velocity": 80,
                "duration": 0.0522727,
                "tempo": 120.0
            },
            {
                "start_time": 5.2613636,
                "end_time": 5.2954545,
                "pitch": 70,
                "velocity": 80,
                "duration": 0.0340909,
                "tempo": 120.0
            },
            {
                "start_time": 5.2954545,
                "end_time": 5.3477273,
                "pitch": 67,
                "velocity": 80,
                "duration": 0.0522727,
                "tempo": 120.0
            },
            {
                "start_time": 5.3477273,
                "end_time": 5.3840909,
                "pitch": 70,
                "velocity": 80,
                "duration": 0.0363636,
                "tempo": 120.0
            },
            {
                "start_time": 5.3840909,
                "end_time": 5.4363636,
                "pitch": 67,
                "velocity": 80,
                "duration": 0.0522727,
                "tempo": 120.0
            },
            {
                "start_time": 5.4363636,
                "end_time": 5.4727273,
                "pitch": 70,
                "velocity": 80,
                "duration": 0.0363636,
                "tempo": 120.0
            },
            {
                "start_time": 5.4727273,
                "end_time": 5.525,
                "pitch": 67,
                "velocity": 80,
                "duration": 0.0522727,
                "tempo": 120.0
            },
            {
                "start_time": 5.525,
                "end_time": 5.5613636,
                "pitch": 70,
                "velocity": 80,
                "duration": 0.0363636,
                "tempo": 120.0
            },
            {
                "start_time": 5.5613636,
                "end_time": 5.6136364,
                "pitch": 67,
                "velocity": 80,
                "duration": 0.0522727,
                "tempo": 120.0
            },
            {
                "start_time": 5.6136364,
                "end_time": 5.65,
                "pitch": 70,
                "velocity": 80,
                "duration": 0.0363636,
                "tempo": 120.0
            },
            {
                "start_time": 5.65,
                "end_time": 5.7022727,
                "pitch": 67,
                "velocity": 80,
                "duration": 0.0522727,
                "tempo": 120.0
            },
            {
                "start_time": 5.7022727,
                "end_time": 5.7386364,
                "pitch": 70,
                "velocity": 80,
                "duration": 0.0363636,
                "tempo": 120.0
            },
            {
                "start_time": 5.7386364,
                "end_time": 5.7909091,
                "pitch": 67,
                "velocity": 80,
                "duration": 0.0522727,
                "tempo": 120.0
            },
            {
                "start_time": 5.7909091,
                "end_time": 5.825,
                "pitch": 70,
                "velocity": 80,
                "duration": 0.0340909,
                "tempo": 120.0
            },
            {
                "start_time": 5.825,
                "end_time": 5.8795455,
                "pitch": 67,
                "velocity": 80,
                "duration": 0.0545455,
                "tempo": 120.0
            },
            {
                "start_time": 5.8795455,
                "end_time": 5.9136364,
                "pitch": 70,
                "velocity": 80,
                "duration": 0.0340909,
                "tempo": 120.0
            },
            {
                "start_time": 5.9136364,
                "end_time": 5.9659091,
                "pitch": 67,
                "velocity": 80,
                "duration": 0.0522727,
                "tempo": 120.0
            },
            {
                "start_time": 5.9659091,
                "end_time": 6.0022727,
                "pitch": 70,
                "velocity": 80,
                "duration": 0.0363636,
                "tempo": 120.0
            },
            {
                "start_time": 6.0022727,
                "end_time": 6.0545455,
                "pitch": 67,
                "velocity": 80,
                "duration": 0.0522727,
                "tempo": 120.0
            },
            {
                "start_time": 6.0545455,
                "end_time": 6.0909091,
                "pitch": 70,
                "velocity": 80,
                "duration": 0.0363636,
                "tempo": 120.0
            },
            {
                "start_time": 6.0909091,
                "end_time": 6.1454545,
                "pitch": 67,
                "velocity": 80,
                "duration": 0.0545455,
                "tempo": 120.0
            },
            {
                "start_time": 6.1454545,
                "end_time": 6.1840909,
                "pitch": 70,
                "velocity": 80,
                "duration": 0.0386364,
                "tempo": 120.0
            },
            {
                "start_time": 6.1840909,
                "end_time": 6.2409091,
                "pitch": 67,
                "velocity": 80,
                "duration": 0.0568182,
                "tempo": 120.0
            },
            {
                "start_time": 6.2409091,
                "end_time": 6.2795455,
                "pitch": 70,
                "velocity": 80,
                "duration": 0.0386364,
                "tempo": 120.0
            },
            {
                "start_time": 6.2795455,
                "end_time": 6.3363636,
                "pitch": 67,
                "velocity": 80,
                "duration": 0.0568182,
                "tempo": 120.0
            },
            {
                "start_time": 6.3363636,
                "end_time": 6.375,
                "pitch": 70,
                "velocity": 80,
                "duration": 0.0386364,
                "tempo": 120.0
            },
            {
                "start_time": 6.375,
                "end_time": 6.4318182,
                "pitch": 67,
                "velocity": 80,
                "duration": 0.0568182,
                "tempo": 120.0
            },
            {
                "start_time": 6.4318182,
                "end_time": 6.4704545,
                "pitch": 70,
                "velocity": 80,
                "duration": 0.0386364,
                "tempo": 120.0
            },
            {
                "start_time": 6.4704545,
                "end_time": 6.5272727,
                "pitch": 67,
                "velocity": 80,
                "duration": 0.0568182,
                "tempo": 120.0
            },
            {
                "start_time": 6.5272727,
                "end_time": 6.5659091,
                "pitch": 70,
                "velocity": 80,
                "duration": 0.0386364,
                "tempo": 120.0
            },
            {
                "start_time": 6.5659091,
                "end_time": 6.6227273,
                "pitch": 67,
                "velocity": 80,
                "duration": 0.0568182,
                "tempo": 120.0
            },
            {
                "start_time": 6.6227273,
                "end_time": 6.6613636,
                "pitch": 70,
                "velocity": 80,
                "duration": 0.0386364,
                "tempo": 120.0
            },
            {
                "start_time": 6.6613636,
                "end_time": 6.7181818,
                "pitch": 67,
                "velocity": 80,
                "duration": 0.0568182,
                "tempo": 120.0
            },
            {
                "start_time": 6.7181818,
                "end_time": 6.7568182,
                "pitch": 70,
                "velocity": 80,
                "duration": 0.0386364,
                "tempo": 120.0
            },
            {
                "start_time": 6.7568182,
                "end_time": 6.8136364,
                "pitch": 67,
                "velocity": 80,
                "duration": 0.0568182,
                "tempo": 120.0
            },
            {
                "start_time": 6.8136364,
                "end_time": 6.8522727,
                "pitch": 70,
                "velocity": 80,
                "duration": 0.0386364,
                "tempo": 120.0
            },
            {
                "start_time": 6.8522727,
                "end_time": 6.9090909,
                "pitch": 67,
                "velocity": 80,
                "duration": 0.0568182,
                "tempo": 120.0
            },
            {
                "start_time": 6.9090909,
                "end_time": 6.9477273,
                "pitch": 70,
                "velocity": 80,
                "duration": 0.0386364,
                "tempo": 120.0
            },
            {
                "start_time": 6.9477273,
                "end_time": 7.0045455,
                "pitch": 67,
                "velocity": 80,
                "duration": 0.0568182,
                "tempo": 120.0
            },
            {
                "start_time": 7.0045455,
                "end_time": 7.0409091,
                "pitch": 70,
                "velocity": 80,
                "duration": 0.0363636,
                "tempo": 120.0
            },
            {
                "start_time": 7.0409091,
                "end_time": 7.0954545,
                "pitch": 67,
                "velocity": 80,
                "duration": 0.0545455,
                "tempo": 120.0
            },
            {
                "start_time": 7.0954545,
                "end_time": 7.1318182,
                "pitch": 70,
                "velocity": 80,
                "duration": 0.0363636,
                "tempo": 120.0
            },
            {
                "start_time": 7.1318182,
                "end_time": 7.1863636,
                "pitch": 67,
                "velocity": 80,
                "duration": 0.0545455,
                "tempo": 120.0
            },
            {
                "start_time": 7.1863636,
                "end_time": 7.225,
                "pitch": 70,
                "velocity": 80,
                "duration": 0.0386364,
                "tempo": 120.0
            },
            {
                "start_time": 7.225,
                "end_time": 7.2795455,
                "pitch": 67,
                "velocity": 80,
                "duration": 0.0545455,
                "tempo": 120.0
            },
            {
                "start_time": 7.2795455,
                "end_time": 7.3159091,
                "pitch": 70,
                "velocity": 80,
                "duration": 0.0363636,
                "tempo": 120.0
            },
            {
                "start_time": 7.3159091,
                "end_time": 7.3704545,
                "pitch": 67,
                "velocity": 80,
                "duration": 0.0545455,
                "tempo": 120.0
            },
            {
                "start_time": 7.3704545,
                "end_time": 7.4068182,
                "pitch": 70,
                "velocity": 80,
                "duration": 0.0363636,
                "tempo": 120.0
            },
            {
                "start_time": 7.4068182,
                "end_time": 7.4613636,
                "pitch": 67,
                "velocity": 80,
                "duration": 0.0545455,
                "tempo": 120.0
            },
            {
                "start_time": 7.4613636,
                "end_time": 7.5,
                "pitch": 70,
                "velocity": 80,
                "duration": 0.0386364,
                "tempo": 120.0
            },
            {
                "start_time": 7.5,
                "end_time": 7.5545455,
                "pitch": 67,
                "velocity": 80,
                "duration": 0.0545455,
                "tempo": 120.0
            },
            {
                "start_time": 7.5545455,
                "end_time": 7.5909091,
                "pitch": 70,
                "velocity": 80,
                "duration": 0.0363636,
                "tempo": 120.0
            },
            {
                "start_time": 7.5909091,
                "end_time": 7.6454545,
                "pitch": 67,
                "velocity": 80,
                "duration": 0.0545455,
                "tempo": 120.0
            },
            {
                "start_time": 7.6454545,
                "end_time": 7.6818182,
                "pitch": 70,
                "velocity": 80,
                "duration": 0.0363636,
                "tempo": 120.0
            },
            {
                "start_time": 7.6818182,
                "end_time": 7.7363636,
                "pitch": 67,
                "velocity": 80,
                "duration": 0.0545455,
                "tempo": 120.0
            }
        ],
        "Violin": [
            {
                "start_time": 9.5431818,
                "end_time": 20.5045455,
                "pitch": 41,
                "velocity": 127,
                "duration": 10.9613636,
                "tempo": 120.0
            }
        ]
    }
}