{
    "mood": "angry",
    "instruments": {
        "Acoustic Bass": [
            {
                "start_time": 0.0477273,
                "end_time": 0.1477273,
                "pitch": 33,
                "velocity": 101,
                "duration": 0.1,
                "tempo": 120.0
            },
            {
                "start_time": 0.1477273,
                "end_time": 0.2477273,
                "pitch": 33,
                "velocity": 101,
                "duration": 0.1,
                "tempo": 120.0
            },
            {
                "start_time": 0.2477273,
                "end_time": 0.3659091,
                "pitch": 36,
                "velocity": 101,
                "duration": 0.1181818,
                "tempo": 120.0
            },
            {
                "start_time": 0.3659091,
                "end_time": 0.4863636,
                "pitch": 33,
                "velocity": 101,
                "duration": 0.1204545,
                "tempo": 120.0
            },
            {
                "start_time": 0.4863636,
                "end_time": 0.6068182,
                "pitch": 38,
                "velocity": 101,
                "duration": 0.1204545,
                "tempo": 120.0
            },
            {
                "start_time": 0.6068182,
                "end_time": 0.7295455,
                "pitch": 33,
                "velocity": 101,
                "duration": 0.1227273,
                "tempo": 120.0
            },
            {
                "start_time": 0.2477273,
                "end_time": 0.7295455,
                "pitch": 40,
                "velocity": 101,
                "duration": 0.4818182,
                "tempo": 120.0
            },
            {
                "start_time": 0.6068182,
                "end_time": 0.85,
                "pitch": 7,
                "velocity": 101,
                "duration": 0.2431818,
                "tempo": 120.0
            },
            {
                "start_time": 0.7295455,
                "end_time": 0.85,
                "pitch": 36,
                "velocity": 101,
                "duration": 0.1204545,
                "tempo": 120.0
            },
            {
                "start_time": 0.85,
                "end_time": 0.9704545,
                "pitch": 33,
                "velocity": 101,
                "duration": 0.1204545,
                "tempo": 120.0
            },
            {
                "start_time": 1.0909091,
                "end_time": 1.2113636,
                "pitch": 33,
                "velocity": 101,
                "duration": 0.1204545,
                "tempo": 120.0
            },
            {
                "start_time": 0.7295455,
                "end_time": 1.2113636,
                "pitch": 40,
                "velocity": 101,
                "duration": 0.4818182,
                "tempo": 120.0
            },
            {
                "start_time": 1.2113636,
                "end_time": 1.3295455,
                "pitch": 36,
                "velocity": 101,
                "duration": 0.1181818,
                "tempo": 120.0
            },
            {
                "start_time": 1.3295455,
                "end_time": 1.45,
                "pitch": 33,
                "velocity": 101,
                "duration": 0.1204545,
                "tempo": 120.0
            },
            {
                "start_time": 0.85,
                "end_time": 1.5704545,
                "pitch": 7,
                "velocity": 101,
                "duration": 0.7204545,
                "tempo": 120.0
            },
            {
                "start_time": 1.45,
                "end_time": 1.5704545,
                "pitch": 38,
                "velocity": 101,
                "duration": 0.1204545,
                "tempo": 120.0
            },
            {
                "start_time": 1.5704545,
                "end_time": 1.6886364,
                "pitch": 33,
                "velocity": 101,
                "duration": 0.1181818,
                "tempo": 120.0
            },
            {
                "start_time": 1.6886364,
                "end_time": 1.9295455,
                "pitch": 31,
                "velocity": 101,
                "duration": 0.2409091,
                "tempo": 120.0
            },
            {
                "start_time": 1.6886364,
                "end_time": 1.9295455,
                "pitch": 31,
                "velocity": 101,
                "duration": 0.2409091,
                "tempo": 120.0
            },
            {
                "start_time": 1.9295455,
                "end_time": 2.0477273,
                "pitch": 33,
                "velocity": 101,
                "duration": 0.1181818,
                "tempo": 120.0
            },
            {
                "start_time": 2.0477273,
                "end_time": 2.1681818,
                "pitch": 33,
                "velocity": 101,
                "duration": 0.1204545,
                "tempo": 120.0
            },
            {
                "start_time": 1.2113636,
                "end_time": 2.1681818,
                "pitch": 40,
                "velocity": 101,
                "duration": 0.9568182,
                "tempo": 120.0
            },
            {
                "start_time": 1.5704545,
                "end_time": 2.2886364,
                "pitch": 7,
                "velocity": 101,
                "duration": 0.7181818,
                "tempo": 120.0
            },
            {
                "start_time": 2.1681818,
                "end_time": 2.2886364,
                "pitch": 36,
                "velocity": 101,
                "duration": 0.1204545,
                "tempo": 120.0
            },
            {
                "start_time": 2.2886364,
                "end_time": 2.4090909,
                "pitch": 33,
                "velocity": 101,
                "duration": 0.1204545,
                "tempo": 120.0
            },
            {
                "start_time": 2.2886364,
                "end_time": 2.5295455,
                "pitch": 7,
                "velocity": 101,
                "duration": 0.2409091,
                "tempo": 120.0
            },
            {
                "start_time": 2.4090909,
                "end_time": 2.5295455,
                "pitch": 38,
                "velocity": 101,
                "duration": 0.1204545,
                "tempo": 120.0
            },
            {
                "start_time": 2.5295455,
                "end_time": 2.65,
                "pitch": 33,
                "velocity": 101,
                "duration": 0.1204545,
                "tempo": 120.0
            },
            {
                "start_time": 2.1681818,
                "end_time": 2.65,
                "pitch": 40,
                "velocity": 101,
                "duration": 0.4818182,
                "tempo": 120.0
            },
            {
                "start_time": 2.5295455,
                "end_time": 2.7681818,
                "pitch": 7,
                "velocity": 101,
                "duration": 0.2386364,
                "tempo": 120.0
            },
            {
                "start_time": 2.65,
                "end_time": 2.7681818,
                "pitch": 36,
                "velocity": 101,
                "duration": 0.1181818,
                "tempo": 120.0
            },
            {
                "start_time": 2.7681818,
                "end_time": 2.8863636,
                "pitch": 33,
                "velocity": 101,
                "duration": 0.1181818,
                "tempo": 120.0
            },
            {
                "start_time": 2.8863636,
                "end_time": 3.0022727,
                "pitch": 28,
                "velocity": 101,
                "duration": 0.1159091,
                "tempo": 120.0
            },
            {
                "start_time": 3.0022727,
                "end_time": 3.1204545,
                "pitch": 33,
                "velocity": 101,
                "duration": 0.1181818,
                "tempo": 120.0
            },
            {
                "start_time": 2.65,
                "end_time": 3.1204545,
                "pitch": 40,
                "velocity": 101,
                "duration": 0.4704545,
                "tempo": 120.0
            },
            {
                "start_time": 2.7681818,
                "end_time": 3.2409091,
                "pitch": 7,
                "velocity": 101,
                "duration": 0.4727273,
                "tempo": 120.0
            },
            {
                "start_time": 3.1204545,
                "end_time": 3.2409091,
                "pitch": 36,
                "velocity": 101,
                "duration": 0.1204545,
                "tempo": 120.0
            },
            {
                "start_time": 3.2409091,
                "end_time": 3.3590909,
                "pitch": 33,
                "velocity": 101,
                "duration": 0.1181818,
                "tempo": 120.0
            },
            {
                "start_time": 3.1204545,
                "end_time": 3.3590909,
                "pitch": 40,
                "velocity": 101,
                "duration": 0.2386364,
                "tempo": 120.0
            },
            {
                "start_time": 3.3590909,
                "end_time": 3.4795455,
                "pitch": 36,
                "velocity": 101,
                "duration": 0.1204545,
                "tempo": 120.0
            },
            {
                "start_time": 3.4795455,
                "end_time": 3.6,
                "pitch": 38,
                "velocity": 101,
                "duration": 0.1204545,
                "tempo": 120.0
            },
            {
                "start_time": 3.6,
                "end_time": 3.7181818,
                "pitch": 39,
                "velocity": 101,
                "duration": 0.1181818,
                "tempo": 120.0
            },
            {
                "start_time": 3.2409091,
                "end_time": 3.8386364,
                "pitch": 7,
                "velocity": 101,
                "duration": 0.5977273,
                "tempo": 120.0
            },
            {
                "start_time": 3.3590909,
                "end_time": 3.8386364,
                "pitch": 40,
                "velocity": 101,
                "duration": 0.4795455,
                "tempo": 120.0
            },
            {
                "start_time": 3.7181818,
                "end_time": 3.8386364,
                "pitch": 40,
                "velocity": 101,
                "duration": 0.1204545,
                "tempo": 120.0
            },
            {
                "start_time": 3.8386364,
                "end_time": 3.9590909,
                "pitch": 33,
                "velocity": 101,
                "duration": 0.1204545,
                "tempo": 120.0
            },
            {
                "start_time": 3.9590909,
                "end_time": 4.0772727,
                "pitch": 33,
                "velocity": 101,
                "duration": 0.1181818,
                "tempo": 120.0
            },
            {
                "start_time": 3.8386364,
                "end_time": 4.1977273,
                "pitch": 7,
                "velocity": 101,
                "duration": 0.3590909,
                "tempo": 120.0
            },
            {
                "start_time": 4.0772727,
                "end_time": 4.1977273,
                "pitch": 36,
                "velocity": 101,
                "duration": 0.1204545,
                "tempo": 120.0
            },
            {
                "start_time": 4.1977273,
                "end_time": 4.3181818,
                "pitch": 33,
                "velocity": 101,
                "duration": 0.1204545,
                "tempo": 120.0
            },
            {
                "start_time": 0.4863636,
                "end_time": 4.3181818,
                "pitch": 41,
                "velocity": 101,
                "duration": 3.8318182,
                "tempo": 120.0
            },
            {
                "start_time": 4.1977273,
                "end_time": 4.4363636,
                "pitch": 7,
                "velocity": 101,
                "duration": 0.2386364,
                "tempo": 120.0
            },
            {
                "start_time": 4.3181818,
                "end_time": 4.4363636,
                "pitch": 38,
                "velocity": 101,
                "duration": 0.1181818,
                "tempo": 120.0
            },
            {
                "start_time": 4.4363636,
                "end_time": 4.5568182,
                "pitch": 33,
                "velocity": 101,
                "duration": 0.1204545,
                "tempo": 120.0
            },
            {
                "start_time": 4.5568182,
                "end_time": 4.6772727,
                "pitch": 36,
                "velocity": 101,
                "duration": 0.1204545,
                "tempo": 120.0
            },
            {
                "start_time": 4.6772727,
                "end_time": 4.7977273,
                "pitch": 33,
                "velocity": 101,
                "duration": 0.1204545,
                "tempo": 120.0
            },
            {
                "start_time": 4.9181818,
                "end_time": 5.0386364,
                "pitch": 33,
                "velocity": 101,
                "duration": 0.1204545,
                "tempo": 120.0
            },
            {
                "start_time": 4.0772727,
                "end_time": 5.0386364,
                "pitch": 40,
                "velocity": 101,
                "duration": 0.9613636,
                "tempo": 120.0
            },
            {
                "start_time": 5.0386364,
                "end_time": 5.1590909,
                "pitch": 36,
                "velocity": 101,
                "duration": 0.1204545,
                "tempo": 120.0
            },
            {
                "start_time": 5.1590909,
                "end_time": 5.2772727,
                "pitch": 33,
                "velocity": 101,
                "duration": 0.1181818,
                "tempo": 120.0
            },
            {
                "start_time": 4.4363636,
                "end_time": 5.3977273,
                "pitch": 7,
                "velocity": 101,
                "duration": 0.9613636,
                "tempo": 120.0
            },
            {
                "start_time": 5.2772727,
                "end_time": 5.3977273,
                "pitch": 38,
                "velocity": 101,
                "duration": 0.1204545,
                "tempo": 120.0
            },
            {
                "start_time": 5.3977273,
                "end_time": 5.5181818,
                "pitch": 33,
                "velocity": 101,
                "duration": 0.1204545,
                "tempo": 120.0
            },
            {
                "start_time": 5.5181818,
                "end_time": 5.7522727,
                "pitch": 31,
                "velocity": 101,
                "duration": 0.2340909,
                "tempo": 120.0
            },
            {
                "start_time": 5.7522727,
                "end_time": 5.8704545,
                "pitch": 33,
                "velocity": 101,
                "duration": 0.1181818,
                "tempo": 120.0
            },
            {
                "start_time": 5.7522727,
                "end_time": 5.8704545,
                "pitch": 33,
                "velocity": 101,
                "duration": 0.1181818,
                "tempo": 120.0
            },
            {
                "start_time": 5.8704545,
                "end_time": 5.9886364,
                "pitch": 33,
                "velocity": 101,
                "duration": 0.1181818,
                "tempo": 120.0
            },
            {
                "start_time": 5.9886364,
                "end_time": 6.1090909,
                "pitch": 36,
                "velocity": 101,
                "duration": 0.1204545,
                "tempo": 120.0
            },
            {
                "start_time": 6.1090909,
                "end_time": 6.2295455,
                "pitch": 33,
                "velocity": 101,
                "duration": 0.1204545,
                "tempo": 120.0
            },
            {
                "start_time": 5.3977273,
                "end_time": 6.35,
                "pitch": 7,
                "velocity": 101,
                "duration": 0.9522727,
                "tempo": 120.0
            },
            {
                "start_time": 6.2295455,
                "end_time": 6.35,
                "pitch": 38,
                "velocity": 101,
                "duration": 0.1204545,
                "tempo": 120.0
            },
            {
                "start_time": 6.35,
                "end_time": 6.4704545,
                "pitch": 33,
                "velocity": 101,
                "duration": 0.1204545,
                "tempo": 120.0
            },
            {
                "start_time": 5.0386364,
                "end_time": 6.4704545,
                "pitch": 40,
                "velocity": 101,
                "duration": 1.4318182,
                "tempo": 120.0
            },
            {
                "start_time": 6.35,
                "end_time": 6.5909091,
                "pitch": 7,
                "velocity": 101,
                "duration": 0.2409091,
                "tempo": 120.0
            },
            {
                "start_time": 6.4704545,
                "end_time": 6.5909091,
                "pitch": 36,
                "velocity": 101,
                "duration": 0.1204545,
                "tempo": 120.0
            },
            {
                "start_time": 6.5909091,
                "end_time": 6.7090909,
                "pitch": 33,
                "velocity": 101,
                "duration": 0.1181818,
                "tempo": 120.0
            },
            {
                "start_time": 2.8863636,
                "end_time": 6.7090909,
                "pitch": 42,
                "velocity": 101,
                "duration": 3.8227273,
                "tempo": 120.0
            },
            {
                "start_time": 6.7090909,
                "end_time": 6.8295455,
                "pitch": 28,
                "velocity": 101,
                "duration": 0.1204545,
                "tempo": 120.0
            },
            {
                "start_time": 6.8295455,
                "end_time": 6.9477273,
                "pitch": 33,
                "velocity": 101,
                "duration": 0.1181818,
                "tempo": 120.0
            },
            {
                "start_time": 6.4704545,
                "end_time": 6.9477273,
                "pitch": 40,
                "velocity": 101,
                "duration": 0.4772727,
                "tempo": 120.0
            },
            {
                "start_time": 6.9477273,
                "end_time": 7.0681818,
                "pitch": 36,
                "velocity": 101,
                "duration": 0.1204545,
                "tempo": 120.0
            },
            {
                "start_time": 7.0681818,
                "end_time": 7.1886364,
                "pitch": 33,
                "velocity": 101,
                "duration": 0.1204545,
                "tempo": 120.0
            },
            {
                "start_time": 6.9477273,
                "end_time": 7.1886364,
                "pitch": 40,
                "velocity": 101,
                "duration": 0.2409091,
                "tempo": 120.0
            },
            {
                "start_time": 7.1886364,
                "end_time": 7.3090909,
                "pitch": 36,
                "velocity": 101,
                "duration": 0.1204545,
                "tempo": 120.0
            },
            {
                "start_time": 7.3090909,
                "end_time": 7.4318182,
                "pitch": 38,
                "velocity": 101,
                "duration": 0.1227273,
                "tempo": 120.0
            },
            {
                "start_time": 7.3090909,
                "end_time": 7.4318182,
                "pitch": 38,
                "velocity": 101,
                "duration": 0.1227273,
                "tempo": 120.0
            },
            {
                "start_time": 7.4318182,
                "end_time": 7.5522727,
                "pitch": 39,
                "velocity": 101,
                "duration": 0.1204545,
                "tempo": 120.0
            },
            {
                "start_time": 7.1886364,
                "end_time": 7.6727273,
                "pitch": 40,
                "velocity": 101,
                "duration": 0.4840909,
                "tempo": 120.0
            },
            {
                "start_time": 7.5522727,
                "end_time": 7.6727273,
                "pitch": 40,
                "velocity": 101,
                "duration": 0.1204545,
                "tempo": 120.0
            },
            {
                "start_time": 7.6727273,
                "end_time": 7.7931818,
                "pitch": 26,
                "velocity": 101,
                "duration": 0.1204545,
                "tempo": 120.0
            },
            {
                "start_time": 7.7931818,
                "end_time": 7.9136364,
                "pitch": 26,
                "velocity": 101,
                "duration": 0.1204545,
                "tempo": 120.0
            },
            {
                "start_time": 7.9136364,
                "end_time": 8.0318182,
                "pitch": 38,
                "velocity": 101,
                "duration": 0.1181818,
                "tempo": 120.0
            },
            {
                "start_time": 8.0318182,
                "end_time": 8.15,
                "pitch": 26,
                "velocity": 101,
                "duration": 0.1181818,
                "tempo": 120.0
            },
            {
                "start_time": 8.15,
                "end_time": 8.2659091,
                "pitch": 29,
                "velocity": 101,
                "duration": 0.1159091,
                "tempo": 120.0
            },
            {
                "start_time": 8.15,
                "end_time": 8.2659091,
                "pitch": 29,
                "velocity": 101,
                "duration": 0.1159091,
                "tempo": 120.0
            },
            {
                "start_time": 8.2659091,
                "end_time": 8.3840909,
                "pitch": 31,
                "velocity": 101,
                "duration": 0.1181818,
                "tempo": 120.0
            },
            {
                "start_time": 8.3840909,
                "end_time": 8.5068182,
                "pitch": 32,
                "velocity": 101,
                "duration": 0.1227273,
                "tempo": 120.0
            },
            {
                "start_time": 8.5068182,
                "end_time": 8.6295455,
                "pitch": 33,
                "velocity": 101,
                "duration": 0.1227273,
                "tempo": 120.0
            },
            {
                "start_time": 4.3181818,
                "end_time": 8.6295455,
                "pitch": 41,
                "velocity": 101,
                "duration": 4.3113636,
                "tempo": 120.0
            },
            {
                "start_time": 8.6295455,
                "end_time": 8.7522727,
                "pitch": 26,
                "velocity": 101,
                "duration": 0.1227273,
                "tempo": 120.0
            },
            {
                "start_time": 8.7522727,
                "end_time": 8.875,
                "pitch": 26,
                "velocity": 101,
                "duration": 0.1227273,
                "tempo": 120.0
            },
            {
                "start_time": 8.875,
                "end_time": 8.9931818,
                "pitch": 38,
                "velocity": 101,
                "duration": 0.1181818,
                "tempo": 120.0
            },
            {
                "start_time": 8.9931818,
                "end_time": 9.1090909,
                "pitch": 26,
                "velocity": 101,
                "duration": 0.1159091,
                "tempo": 120.0
            },
            {
                "start_time": 9.1090909,
                "end_time": 9.2272727,
                "pitch": 29,
                "velocity": 101,
                "duration": 0.1181818,
                "tempo": 120.0
            },
            {
                "start_time": 9.1090909,
                "end_time": 9.2272727,
                "pitch": 29,
                "velocity": 101,
                "duration": 0.1181818,
                "tempo": 120.0
            },
            {
                "start_time": 9.2272727,
                "end_time": 9.3454545,
                "pitch": 31,
                "velocity": 101,
                "duration": 0.1181818,
                "tempo": 120.0
            },
            {
                "start_time": 9.3454545,
                "end_time": 9.4659091,
                "pitch": 32,
                "velocity": 101,
                "duration": 0.1204545,
                "tempo": 120.0
            },
            {
                "start_time": 9.4659091,
                "end_time": 9.5863636,
                "pitch": 33,
                "velocity": 101,
                "duration": 0.1204545,
                "tempo": 120.0
            },
            {
                "start_time": 8.6295455,
                "end_time": 9.5863636,
                "pitch": 41,
                "velocity": 101,
                "duration": 0.9568182,
                "tempo": 120.0
            },
            {
                "start_time": 9.5863636,
                "end_time": 9.7068182,
                "pitch": 26,
                "velocity": 101,
                "duration": 0.1204545,
                "tempo": 120.0
            },
            {
                "start_time": 9.7068182,
                "end_time": 9.8272727,
                "pitch": 26,
                "velocity": 101,
                "duration": 0.1204545,
                "tempo": 120.0
            },
            {
                "start_time": 9.8272727,
                "end_time": 9.9477273,
                "pitch": 38,
                "velocity": 101,
                "duration": 0.1204545,
                "tempo": 120.0
            },
            {
                "start_time": 9.9477273,
                "end_time": 10.0659091,
                "pitch": 26,
                "velocity": 101,
                "duration": 0.1181818,
                "tempo": 120.0
            },
            {
                "start_time": 9.2272727,
                "end_time": 10.1863636,
                "pitch": 0,
                "velocity": 101,
                "duration": 0.9590909,
                "tempo": 120.0
            },
            {
                "start_time": 10.0659091,
                "end_time": 10.1863636,
                "pitch": 29,
                "velocity": 101,
                "duration": 0.1204545,
                "tempo": 120.0
            },
            {
                "start_time": 10.0659091,
                "end_time": 10.1863636,
                "pitch": 29,
                "velocity": 101,
                "duration": 0.1204545,
                "tempo": 120.0
            },
            {
                "start_time": 10.1863636,
                "end_time": 10.3068182,
                "pitch": 31,
                "velocity": 101,
                "duration": 0.1204545,
                "tempo": 120.0
            },
            {
                "start_time": 10.3068182,
                "end_time": 10.4272727,
                "pitch": 32,
                "velocity": 101,
                "duration": 0.1204545,
                "tempo": 120.0
            },
            {
                "start_time": 10.4272727,
                "end_time": 10.5477273,
                "pitch": 33,
                "velocity": 101,
                "duration": 0.1204545,
                "tempo": 120.0
            },
            {
                "start_time": 9.5863636,
                "end_time": 10.5477273,
                "pitch": 41,
                "velocity": 101,
                "duration": 0.9613636,
                "tempo": 120.0
            },
            {
                "start_time": 10.5477273,
                "end_time": 10.6681818,
                "pitch": 26,
                "velocity": 101,
                "duration": 0.1204545,
                "tempo": 120.0
            },
            {
                "start_time": 10.6681818,
                "end_time": 10.7886364,
                "pitch": 26,
                "velocity": 101,
                "duration": 0.1204545,
                "tempo": 120.0
            },
            {
                "start_time": 10.7886364,
                "end_time": 10.9090909,
                "pitch": 38,
                "velocity": 101,
                "duration": 0.1204545,
                "tempo": 120.0
            },
            {
                "start_time": 10.9090909,
                "end_time": 11.0295455,
                "pitch": 26,
                "velocity": 101,
                "duration": 0.1204545,
                "tempo": 120.0
            },
            {
                "start_time": 10.1863636,
                "end_time": 11.15,
                "pitch": 0,
                "velocity": 101,
                "duration": 0.9636364,
                "tempo": 120.0
            },
            {
                "start_time": 11.0295455,
                "end_time": 11.15,
                "pitch": 29,
                "velocity": 101,
                "duration": 0.1204545,
                "tempo": 120.0
            },
            {
                "start_time": 11.0295455,
                "end_time": 11.15,
                "pitch": 29,
                "velocity": 101,
                "duration": 0.1204545,
                "tempo": 120.0
            },
            {
                "start_time": 11.15,
                "end_time": 11.2704545,
                "pitch": 31,
                "velocity": 101,
                "duration": 0.1204545,
                "tempo": 120.0
            },
            {
                "start_time": 11.2704545,
                "end_time": 11.3886364,
                "pitch": 32,
                "velocity": 101,
                "duration": 0.1181818,
                "tempo": 120.0
            },
            {
                "start_time": 11.3886364,
                "end_time": 11.5045455,
                "pitch": 33,
                "velocity": 101,
                "duration": 0.1159091,
                "tempo": 120.0
            },
            {
                "start_time": 11.5045455,
                "end_time": 11.6227273,
                "pitch": 33,
                "velocity": 101,
                "duration": 0.1181818,
                "tempo": 120.0
            },
            {
                "start_time": 11.6227273,
                "end_time": 11.7409091,
                "pitch": 33,
                "velocity": 101,
                "duration": 0.1181818,
                "tempo": 120.0
            },
            {
                "start_time": 6.5909091,
                "end_time": 11.8613636,
                "pitch": 7,
                "velocity": 101,
                "duration": 5.2704545,
                "tempo": 120.0
            },
            {
                "start_time": 11.7409091,
                "end_time": 11.8613636,
                "pitch": 36,
                "velocity": 101,
                "duration": 0.1204545,
                "tempo": 120.0
            },
            {
                "start_time": 11.8613636,
                "end_time": 11.9795455,
                "pitch": 33,
                "velocity": 101,
                "duration": 0.1181818,
                "tempo": 120.0
            },
            {
                "start_time": 10.5477273,
                "end_time": 11.9795455,
                "pitch": 41,
                "velocity": 101,
                "duration": 1.4318182,
                "tempo": 120.0
            },
            {
                "start_time": 11.9795455,
                "end_time": 12.1,
                "pitch": 38,
                "velocity": 101,
                "duration": 0.1204545,
                "tempo": 120.0
            },
            {
                "start_time": 12.1,
                "end_time": 12.2204545,
                "pitch": 33,
                "velocity": 101,
                "duration": 0.1204545,
                "tempo": 120.0
            },
            {
                "start_time": 11.7409091,
                "end_time": 12.2204545,
                "pitch": 40,
                "velocity": 101,
                "duration": 0.4795455,
                "tempo": 120.0
            },
            {
                "start_time": 11.8613636,
                "end_time": 12.3409091,
                "pitch": 7,
                "velocity": 101,
                "duration": 0.4795455,
                "tempo": 120.0
            },
            {
                "start_time": 12.2204545,
                "end_time": 12.3409091,
                "pitch": 36,
                "velocity": 101,
                "duration": 0.1204545,
                "tempo": 120.0
            },
            {
                "start_time": 12.3409091,
                "end_time": 12.4613636,
                "pitch": 33,
                "velocity": 101,
                "duration": 0.1204545,
                "tempo": 120.0
            },
            {
                "start_time": 12.5818182,
                "end_time": 12.7022727,
                "pitch": 33,
                "velocity": 101,
                "duration": 0.1204545,
                "tempo": 120.0
            },
            {
                "start_time": 12.2204545,
                "end_time": 12.7022727,
                "pitch": 40,
                "velocity": 101,
                "duration": 0.4818182,
                "tempo": 120.0
            },
            {
                "start_time": 12.3409091,
                "end_time": 12.8227273,
                "pitch": 7,
                "velocity": 101,
                "duration": 0.4818182,
                "tempo": 120.0
            },
            {
                "start_time": 12.7022727,
                "end_time": 12.8227273,
                "pitch": 36,
                "velocity": 101,
                "duration": 0.1204545,
                "tempo": 120.0
            },
            {
                "start_time": 12.8227273,
                "end_time": 12.9431818,
                "pitch": 33,
                "velocity": 101,
                "duration": 0.1204545,
                "tempo": 120.0
            },
            {
                "start_time": 12.8227273,
                "end_time": 13.0636364,
                "pitch": 7,
                "velocity": 101,
                "duration": 0.2409091,
                "tempo": 120.0
            },
            {
                "start_time": 12.9431818,
                "end_time": 13.0636364,
                "pitch": 38,
                "velocity": 101,
                "duration": 0.1204545,
                "tempo": 120.0
            },
            {
                "start_time": 13.0636364,
                "end_time": 13.1840909,
                "pitch": 33,
                "velocity": 101,
                "duration": 0.1204545,
                "tempo": 120.0
            },
            {
                "start_time": 13.1840909,
                "end_time": 13.425,
                "pitch": 31,
                "velocity": 101,
                "duration": 0.2409091,
                "tempo": 120.0
            },
            {
                "start_time": 13.1840909,
                "end_time": 13.425,
                "pitch": 31,
                "velocity": 101,
                "duration": 0.2409091,
                "tempo": 120.0
            },
            {
                "start_time": 13.425,
                "end_time": 13.5454545,
                "pitch": 33,
                "velocity": 101,
                "duration": 0.1204545,
                "tempo": 120.0
            },
            {
                "start_time": 13.5454545,
                "end_time": 13.6659091,
                "pitch": 33,
                "velocity": 101,
                "duration": 0.1204545,
                "tempo": 120.0
            },
            {
                "start_time": 13.0636364,
                "end_time": 13.7863636,
                "pitch": 7,
                "velocity": 101,
                "duration": 0.7227273,
                "tempo": 120.0
            },
            {
                "start_time": 13.6659091,
                "end_time": 13.7863636,
                "pitch": 36,
                "velocity": 101,
                "duration": 0.1204545,
                "tempo": 120.0
            },
            {
                "start_time": 13.7863636,
                "end_time": 13.9045455,
                "pitch": 33,
                "velocity": 101,
                "duration": 0.1181818,
                "tempo": 120.0
            },
            {
                "start_time": 11.9795455,
                "end_time": 13.9045455,
                "pitch": 41,
                "velocity": 101,
                "duration": 1.925,
                "tempo": 120.0
            },
            {
                "start_time": 13.7863636,
                "end_time": 14.025,
                "pitch": 7,
                "velocity": 101,
                "duration": 0.2386364,
                "tempo": 120.0
            },
            {
                "start_time": 13.9045455,
                "end_time": 14.025,
                "pitch": 38,
                "velocity": 101,
                "duration": 0.1204545,
                "tempo": 120.0
            },
            {
                "start_time": 14.025,
                "end_time": 14.1454545,
                "pitch": 33,
                "velocity": 101,
                "duration": 0.1204545,
                "tempo": 120.0
            },
            {
                "start_time": 12.7022727,
                "end_time": 14.1454545,
                "pitch": 40,
                "velocity": 101,
                "duration": 1.4431818,
                "tempo": 120.0
            },
            {
                "start_time": 14.025,
                "end_time": 14.2659091,
                "pitch": 7,
                "velocity": 101,
                "duration": 0.2409091,
                "tempo": 120.0
            },
            {
                "start_time": 14.1454545,
                "end_time": 14.2659091,
                "pitch": 36,
                "velocity": 101,
                "duration": 0.1204545,
                "tempo": 120.0
            },
            {
                "start_time": 14.2659091,
                "end_time": 14.3863636,
                "pitch": 33,
                "velocity": 101,
                "duration": 0.1204545,
                "tempo": 120.0
            },
            {
                "start_time": 6.7090909,
                "end_time": 14.3863636,
                "pitch": 42,
                "velocity": 101,
                "duration": 7.6772727,
                "tempo": 120.0
            },
            {
                "start_time": 14.3863636,
                "end_time": 14.5068182,
                "pitch": 28,
                "velocity": 101,
                "duration": 0.1204545,
                "tempo": 120.0
            },
            {
                "start_time": 14.5068182,
                "end_time": 14.6272727,
                "pitch": 33,
                "velocity": 101,
                "duration": 0.1204545,
                "tempo": 120.0
            },
            {
                "start_time": 14.1454545,
                "end_time": 14.6272727,
                "pitch": 40,
                "velocity": 101,
                "duration": 0.4818182,
                "tempo": 120.0
            },
            {
                "start_time": 14.2659091,
                "end_time": 14.7477273,
                "pitch": 7,
                "velocity": 101,
                "duration": 0.4818182,
                "tempo": 120.0
            },
            {
                "start_time": 14.6272727,
                "end_time": 14.7477273,
                "pitch": 36,
                "velocity": 101,
                "duration": 0.1204545,
                "tempo": 120.0
            },
            {
                "start_time": 14.7477273,
                "end_time": 14.8681818,
                "pitch": 33,
                "velocity": 101,
                "duration": 0.1204545,
                "tempo": 120.0
            },
            {
                "start_time": 14.6272727,
                "end_time": 14.8681818,
                "pitch": 40,
                "velocity": 101,
                "duration": 0.2409091,
                "tempo": 120.0
            },
            {
                "start_time": 14.8681818,
                "end_time": 14.9886364,
                "pitch": 36,
                "velocity": 101,
                "duration": 0.1204545,
                "tempo": 120.0
            },
            {
                "start_time": 14.9886364,
                "end_time": 15.1090909,
                "pitch": 38,
                "velocity": 101,
                "duration": 0.1204545,
                "tempo": 120.0
            },
            {
                "start_time": 15.1090909,
                "end_time": 15.2272727,
                "pitch": 39,
                "velocity": 101,
                "duration": 0.1181818,
                "tempo": 120.0
            },
            {
                "start_time": 14.8681818,
                "end_time": 15.3454545,
                "pitch": 40,
                "velocity": 101,
                "duration": 0.4772727,
                "tempo": 120.0
            },
            {
                "start_time": 15.2272727,
                "end_time": 15.3454545,
                "pitch": 40,
                "velocity": 101,
                "duration": 0.1181818,
                "tempo": 120.0
            },
            {
                "start_time": 15.3454545,
                "end_time": 15.4613636,
                "pitch": 24,
                "velocity": 101,
                "duration": 0.1159091,
                "tempo": 120.0
            },
            {
                "start_time": 15.4613636,
                "end_time": 15.5795455,
                "pitch": 24,
                "velocity": 101,
                "duration": 0.1181818,
                "tempo": 120.0
            },
            {
                "start_time": 15.5795455,
                "end_time": 15.7,
                "pitch": 36,
                "velocity": 101,
                "duration": 0.1204545,
                "tempo": 120.0
            },
            {
                "start_time": 15.7,
                "end_time": 15.8204545,
                "pitch": 24,
                "velocity": 101,
                "duration": 0.1204545,
                "tempo": 120.0
            },
            {
                "start_time": 15.9386364,
                "end_time": 16.0590909,
                "pitch": 24,
                "velocity": 101,
                "duration": 0.1204545,
                "tempo": 120.0
            },
            {
                "start_time": 16.0590909,
                "end_time": 16.1795455,
                "pitch": 36,
                "velocity": 101,
                "duration": 0.1204545,
                "tempo": 120.0
            },
            {
                "start_time": 16.3,
                "end_time": 16.4204545,
                "pitch": 26,
                "velocity": 101,
                "duration": 0.1204545,
                "tempo": 120.0
            },
            {
                "start_time": 16.4204545,
                "end_time": 16.5409091,
                "pitch": 26,
                "velocity": 101,
                "duration": 0.1204545,
                "tempo": 120.0
            },
            {
                "start_time": 16.5409091,
                "end_time": 16.6613636,
                "pitch": 38,
                "velocity": 101,
                "duration": 0.1204545,
                "tempo": 120.0
            },
            {
                "start_time": 16.6613636,
                "end_time": 16.7818182,
                "pitch": 26,
                "velocity": 101,
                "duration": 0.1204545,
                "tempo": 120.0
            },
            {
                "start_time": 11.15,
                "end_time": 16.9022727,
                "pitch": 0,
                "velocity": 101,
                "duration": 5.7522727,
                "tempo": 120.0
            },
            {
                "start_time": 16.7818182,
                "end_time": 16.9022727,
                "pitch": 29,
                "velocity": 101,
                "duration": 0.1204545,
                "tempo": 120.0
            },
            {
                "start_time": 16.7818182,
                "end_time": 16.9022727,
                "pitch": 29,
                "velocity": 101,
                "duration": 0.1204545,
                "tempo": 120.0
            },
            {
                "start_time": 16.9022727,
                "end_time": 17.0227273,
                "pitch": 31,
                "velocity": 101,
                "duration": 0.1204545,
                "tempo": 120.0
            },
            {
                "start_time": 17.0227273,
                "end_time": 17.1431818,
                "pitch": 32,
                "velocity": 101,
                "duration": 0.1204545,
                "tempo": 120.0
            },
            {
                "start_time": 17.1431818,
                "end_time": 17.2636364,
                "pitch": 33,
                "velocity": 101,
                "duration": 0.1204545,
                "tempo": 120.0
            },
            {
                "start_time": 17.2636364,
                "end_time": 17.3840909,
                "pitch": 33,
                "velocity": 101,
                "duration": 0.1204545,
                "tempo": 120.0
            },
            {
                "start_time": 17.3840909,
                "end_time": 17.5068182,
                "pitch": 33,
                "velocity": 101,
                "duration": 0.1227273,
                "tempo": 120.0
            },
            {
                "start_time": 17.5068182,
                "end_time": 17.6272727,
                "pitch": 45,
                "velocity": 101,
                "duration": 0.1204545,
                "tempo": 120.0
            },
            {
                "start_time": 17.6272727,
                "end_time": 17.7477273,
                "pitch": 33,
                "velocity": 101,
                "duration": 0.1204545,
                "tempo": 120.0
            },
            {
                "start_time": 17.8681818,
                "end_time": 17.9886364,
                "pitch": 31,
                "velocity": 101,
                "duration": 0.1204545,
                "tempo": 120.0
            },
            {
                "start_time": 18.1068182,
                "end_time": 18.2227273,
                "pitch": 33,
                "velocity": 101,
                "duration": 0.1159091,
                "tempo": 120.0
            },
            {
                "start_time": 18.2227273,
                "end_time": 18.3409091,
                "pitch": 33,
                "velocity": 101,
                "duration": 0.1181818,
                "tempo": 120.0
            },
            {
                "start_time": 18.3409091,
                "end_time": 18.4590909,
                "pitch": 33,
                "velocity": 101,
                "duration": 0.1181818,
                "tempo": 120.0
            },
            {
                "start_time": 18.4590909,
                "end_time": 18.5795455,
                "pitch": 33,
                "velocity": 101,
                "duration": 0.1204545,
                "tempo": 120.0
            },
            {
                "start_time": 18.5795455,
                "end_time": 18.7,
                "pitch": 33,
                "velocity": 101,
                "duration": 0.1204545,
                "tempo": 120.0
            },
            {
                "start_time": 18.7,
                "end_time": 18.8204545,
                "pitch": 33,
                "velocity": 101,
                "duration": 0.1204545,
                "tempo": 120.0
            },
            {
                "start_time": 18.8204545,
                "end_time": 18.9409091,
                "pitch": 31,
                "velocity": 101,
                "duration": 0.1204545,
                "tempo": 120.0
            },
            {
                "start_time": 18.8204545,
                "end_time": 18.9409091,
                "pitch": 31,
                "velocity": 101,
                "duration": 0.1204545,
                "tempo": 120.0
            },
            {
                "start_time": 18.9409091,
                "end_time": 19.0613636,
                "pitch": 33,
                "velocity": 101,
                "duration": 0.1204545,
                "tempo": 120.0
            },
            {
                "start_time": 18.9409091,
                "end_time": 19.0613636,
                "pitch": 33,
                "velocity": 101,
                "duration": 0.1204545,
                "tempo": 120.0
            },
            {
                "start_time": 19.0613636,
                "end_time": 19.1818182,
                "pitch": 31,
                "velocity": 101,
                "duration": 0.1204545,
                "tempo": 120.0
            },
            {
                "start_time": 19.1818182,
                "end_time": 19.3022727,
                "pitch": 24,
                "velocity": 101,
                "duration": 0.1204545,
                "tempo": 120.0
            },
            {
                "start_time": 19.3022727,
                "end_time": 19.4227273,
                "pitch": 24,
                "velocity": 101,
                "duration": 0.1204545,
                "tempo": 120.0
            },
            {
                "start_time": 19.4227273,
                "end_time": 19.5431818,
                "pitch": 36,
                "velocity": 101,
                "duration": 0.1204545,
                "tempo": 120.0
            },
            {
                "start_time": 19.5431818,
                "end_time": 19.6636364,
                "pitch": 24,
                "velocity": 101,
                "duration": 0.1204545,
                "tempo": 120.0
            },
            {
                "start_time": 19.7863636,
                "end_time": 19.9068182,
                "pitch": 24,
                "velocity": 101,
                "duration": 0.1204545,
                "tempo": 120.0
            },
            {
                "start_time": 19.9068182,
                "end_time": 20.0272727,
                "pitch": 36,
                "velocity": 101,
                "duration": 0.1204545,
                "tempo": 120.0
            },
            {
                "start_time": 20.1454545,
                "end_time": 20.2659091,
                "pitch": 26,
                "velocity": 101,
                "duration": 0.1204545,
                "tempo": 120.0
            },
            {
                "start_time": 20.2659091,
                "end_time": 20.3886364,
                "pitch": 26,
                "velocity": 101,
                "duration": 0.1227273,
                "tempo": 120.0
            },
            {
                "start_time": 20.3886364,
                "end_time": 20.5068182,
                "pitch": 38,
                "velocity": 101,
                "duration": 0.1181818,
                "tempo": 120.0
            },
            {
                "start_time": 20.5068182,
                "end_time": 20.6272727,
                "pitch": 26,
                "velocity": 101,
                "duration": 0.1204545,
                "tempo": 120.0
            },
            {
                "start_time": 20.6272727,
                "end_time": 20.7477273,
                "pitch": 29,
                "velocity": 101,
                "duration": 0.1204545,
                "tempo": 120.0
            },
            {
                "start_time": 20.6272727,
                "end_time": 20.7477273,
                "pitch": 29,
                "velocity": 101,
                "duration": 0.1204545,
                "tempo": 120.0
            },
            {
                "start_time": 20.7477273,
                "end_time": 20.8659091,
                "pitch": 31,
                "velocity": 101,
                "duration": 0.1181818,
                "tempo": 120.0
            },
            {
                "start_time": 20.8659091,
                "end_time": 20.9840909,
                "pitch": 32,
                "velocity": 101,
                "duration": 0.1181818,
                "tempo": 120.0
            },
            {
                "start_time": 20.9840909,
                "end_time": 21.1022727,
                "pitch": 33,
                "velocity": 101,
                "duration": 0.1181818,
                "tempo": 120.0
            },
            {
                "start_time": 21.1022727,
                "end_time": 21.2181818,
                "pitch": 33,
                "velocity": 101,
                "duration": 0.1159091,
                "tempo": 120.0
            },
            {
                "start_time": 21.2204545,
                "end_time": 21.3363636,
                "pitch": 33,
                "velocity": 101,
                "duration": 0.1159091,
                "tempo": 120.0
            },
            {
                "start_time": 21.3363636,
                "end_time": 21.4590909,
                "pitch": 45,
                "velocity": 101,
                "duration": 0.1227273,
                "tempo": 120.0
            },
            {
                "start_time": 21.4590909,
                "end_time": 21.5795455,
                "pitch": 33,
                "velocity": 101,
                "duration": 0.1204545,
                "tempo": 120.0
            },
            {
                "start_time": 21.7,
                "end_time": 21.8204545,
                "pitch": 31,
                "velocity": 101,
                "duration": 0.1204545,
                "tempo": 120.0
            },
            {
                "start_time": 21.9386364,
                "end_time": 22.0590909,
                "pitch": 33,
                "velocity": 101,
                "duration": 0.1204545,
                "tempo": 120.0
            },
            {
                "start_time": 22.0590909,
                "end_time": 22.1795455,
                "pitch": 33,
                "velocity": 101,
                "duration": 0.1204545,
                "tempo": 120.0
            },
            {
                "start_time": 22.1795455,
                "end_time": 22.2977273,
                "pitch": 33,
                "velocity": 101,
                "duration": 0.1181818,
                "tempo": 120.0
            },
            {
                "start_time": 22.2977273,
                "end_time": 22.4181818,
                "pitch": 45,
                "velocity": 101,
                "duration": 0.1204545,
                "tempo": 120.0
            },
            {
                "start_time": 22.4181818,
                "end_time": 22.5386364,
                "pitch": 33,
                "velocity": 101,
                "duration": 0.1204545,
                "tempo": 120.0
            },
            {
                "start_time": 22.6590909,
                "end_time": 22.7795455,
                "pitch": 33,
                "velocity": 101,
                "duration": 0.1204545,
                "tempo": 120.0
            },
            {
                "start_time": 22.7795455,
                "end_time": 22.9,
                "pitch": 45,
                "velocity": 101,
                "duration": 0.1204545,
                "tempo": 120.0
            },
            {
                "start_time": 23.0204545,
                "end_time": 23.1409091,
                "pitch": 35,
                "velocity": 101,
                "duration": 0.1204545,
                "tempo": 120.0
            },
            {
                "start_time": 23.1409091,
                "end_time": 23.2636364,
                "pitch": 35,
                "velocity": 101,
                "duration": 0.1227273,
                "tempo": 120.0
            },
            {
                "start_time": 13.9045455,
                "end_time": 23.2636364,
                "pitch": 41,
                "velocity": 101,
                "duration": 9.3590909,
                "tempo": 120.0
            },
            {
                "start_time": 23.2636364,
                "end_time": 23.3840909,
                "pitch": 38,
                "velocity": 101,
                "duration": 0.1204545,
                "tempo": 120.0
            },
            {
                "start_time": 23.3840909,
                "end_time": 23.5045455,
                "pitch": 35,
                "velocity": 101,
                "duration": 0.1204545,
                "tempo": 120.0
            },
            {
                "start_time": 14.3863636,
                "end_time": 23.5045455,
                "pitch": 42,
                "velocity": 101,
                "duration": 9.1181818,
                "tempo": 120.0
            },
            {
                "start_time": 23.3840909,
                "end_time": 23.625,
                "pitch": 20,
                "velocity": 101,
                "duration": 0.2409091,
                "tempo": 120.0
            },
            {
                "start_time": 19.1818182,
                "end_time": 23.625,
                "pitch": 40,
                "velocity": 101,
                "duration": 4.4431818,
                "tempo": 120.0
            },
            {
                "start_time": 23.5045455,
                "end_time": 23.625,
                "pitch": 40,
                "velocity": 101,
                "duration": 0.1204545,
                "tempo": 120.0
            },
            {
                "start_time": 23.625,
                "end_time": 23.7454545,
                "pitch": 35,
                "velocity": 101,
                "duration": 0.1204545,
                "tempo": 120.0
            },
            {
                "start_time": 23.2636364,
                "end_time": 23.7454545,
                "pitch": 41,
                "velocity": 101,
                "duration": 0.4818182,
                "tempo": 120.0
            },
            {
                "start_time": 23.625,
                "end_time": 23.8613636,
                "pitch": 20,
                "velocity": 101,
                "duration": 0.2363636,
                "tempo": 120.0
            },
            {
                "start_time": 23.7454545,
                "end_time": 23.8613636,
                "pitch": 38,
                "velocity": 101,
                "duration": 0.1159091,
                "tempo": 120.0
            },
            {
                "start_time": 23.8613636,
                "end_time": 23.9795455,
                "pitch": 35,
                "velocity": 101,
                "duration": 0.1181818,
                "tempo": 120.0
            },
            {
                "start_time": 24.0977273,
                "end_time": 24.2159091,
                "pitch": 35,
                "velocity": 101,
                "duration": 0.1181818,
                "tempo": 120.0
            },
            {
                "start_time": 23.7454545,
                "end_time": 24.2159091,
                "pitch": 41,
                "velocity": 101,
                "duration": 0.4704545,
                "tempo": 120.0
            },
            {
                "start_time": 23.8613636,
                "end_time": 24.3363636,
                "pitch": 20,
                "velocity": 101,
                "duration": 0.475,
                "tempo": 120.0
            },
            {
                "start_time": 24.2159091,
                "end_time": 24.3363636,
                "pitch": 38,
                "velocity": 101,
                "duration": 0.1204545,
                "tempo": 120.0
            },
            {
                "start_time": 24.3363636,
                "end_time": 24.4568182,
                "pitch": 35,
                "velocity": 101,
                "duration": 0.1204545,
                "tempo": 120.0
            },
            {
                "start_time": 23.5045455,
                "end_time": 24.4568182,
                "pitch": 42,
                "velocity": 101,
                "duration": 0.9522727,
                "tempo": 120.0
            },
            {
                "start_time": 24.3363636,
                "end_time": 24.5772727,
                "pitch": 20,
                "velocity": 101,
                "duration": 0.2409091,
                "tempo": 120.0
            },
            {
                "start_time": 24.4568182,
                "end_time": 24.5772727,
                "pitch": 40,
                "velocity": 101,
                "duration": 0.1204545,
                "tempo": 120.0
            },
            {
                "start_time": 24.5772727,
                "end_time": 24.6977273,
                "pitch": 35,
                "velocity": 101,
                "duration": 0.1204545,
                "tempo": 120.0
            },
            {
                "start_time": 24.6977273,
                "end_time": 24.9386364,
                "pitch": 33,
                "velocity": 101,
                "duration": 0.2409091,
                "tempo": 120.0
            },
            {
                "start_time": 24.6977273,
                "end_time": 24.9386364,
                "pitch": 33,
                "velocity": 101,
                "duration": 0.2409091,
                "tempo": 120.0
            },
            {
                "start_time": 24.9386364,
                "end_time": 25.0590909,
                "pitch": 35,
                "velocity": 101,
                "duration": 0.1204545,
                "tempo": 120.0
            },
            {
                "start_time": 24.9386364,
                "end_time": 25.0590909,
                "pitch": 35,
                "velocity": 101,
                "duration": 0.1204545,
                "tempo": 120.0
            },
            {
                "start_time": 25.0590909,
                "end_time": 25.1795455,
                "pitch": 35,
                "velocity": 101,
                "duration": 0.1204545,
                "tempo": 120.0
            },
            {
                "start_time": 24.2159091,
                "end_time": 25.1795455,
                "pitch": 41,
                "velocity": 101,
                "duration": 0.9636364,
                "tempo": 120.0
            },
            {
                "start_time": 25.1795455,
                "end_time": 25.3,
                "pitch": 38,
                "velocity": 101,
                "duration": 0.1204545,
                "tempo": 120.0
            },
            {
                "start_time": 25.3,
                "end_time": 25.4204545,
                "pitch": 35,
                "velocity": 101,
                "duration": 0.1204545,
                "tempo": 120.0
            },
            {
                "start_time": 24.4568182,
                "end_time": 25.4204545,
                "pitch": 42,
                "velocity": 101,
                "duration": 0.9636364,
                "tempo": 120.0
            },
            {
                "start_time": 24.5772727,
                "end_time": 25.5409091,
                "pitch": 20,
                "velocity": 101,
                "duration": 0.9636364,
                "tempo": 120.0
            },
            {
                "start_time": 25.4204545,
                "end_time": 25.5409091,
                "pitch": 40,
                "velocity": 101,
                "duration": 0.1204545,
                "tempo": 120.0
            },
            {
                "start_time": 25.5409091,
                "end_time": 25.6613636,
                "pitch": 35,
                "velocity": 101,
                "duration": 0.1204545,
                "tempo": 120.0
            },
            {
                "start_time": 25.1795455,
                "end_time": 25.6636364,
                "pitch": 41,
                "velocity": 101,
                "duration": 0.4840909,
                "tempo": 120.0
            },
            {
                "start_time": 25.6613636,
                "end_time": 25.6636364,
                "pitch": 41,
                "velocity": 101,
                "duration": 0.0022727,
                "tempo": 120.0
            },
            {
                "start_time": 25.6636364,
                "end_time": 25.7840909,
                "pitch": 38,
                "velocity": 101,
                "duration": 0.1204545,
                "tempo": 120.0
            },
            {
                "start_time": 25.7840909,
                "end_time": 25.9045455,
                "pitch": 35,
                "velocity": 101,
                "duration": 0.1204545,
                "tempo": 120.0
            },
            {
                "start_time": 25.4204545,
                "end_time": 25.9045455,
                "pitch": 42,
                "velocity": 101,
                "duration": 0.4840909,
                "tempo": 120.0
            },
            {
                "start_time": 25.9045455,
                "end_time": 26.025,
                "pitch": 30,
                "velocity": 101,
                "duration": 0.1204545,
                "tempo": 120.0
            },
            {
                "start_time": 26.025,
                "end_time": 26.1454545,
                "pitch": 35,
                "velocity": 101,
                "duration": 0.1204545,
                "tempo": 120.0
            },
            {
                "start_time": 26.1454545,
                "end_time": 26.2659091,
                "pitch": 38,
                "velocity": 101,
                "duration": 0.1204545,
                "tempo": 120.0
            },
            {
                "start_time": 26.2659091,
                "end_time": 26.3863636,
                "pitch": 35,
                "velocity": 101,
                "duration": 0.1204545,
                "tempo": 120.0
            },
            {
                "start_time": 26.1454545,
                "end_time": 26.3863636,
                "pitch": 41,
                "velocity": 101,
                "duration": 0.2409091,
                "tempo": 120.0
            },
            {
                "start_time": 26.3863636,
                "end_time": 26.5068182,
                "pitch": 38,
                "velocity": 101,
                "duration": 0.1204545,
                "tempo": 120.0
            },
            {
                "start_time": 26.5068182,
                "end_time": 26.6272727,
                "pitch": 40,
                "velocity": 101,
                "duration": 0.1204545,
                "tempo": 120.0
            },
            {
                "start_time": 26.3863636,
                "end_time": 26.7477273,
                "pitch": 41,
                "velocity": 101,
                "duration": 0.3613636,
                "tempo": 120.0
            },
            {
                "start_time": 26.6272727,
                "end_time": 26.7477273,
                "pitch": 41,
                "velocity": 101,
                "duration": 0.1204545,
                "tempo": 120.0
            },
            {
                "start_time": 25.9045455,
                "end_time": 26.8681818,
                "pitch": 42,
                "velocity": 101,
                "duration": 0.9636364,
                "tempo": 120.0
            },
            {
                "start_time": 26.7477273,
                "end_time": 26.8681818,
                "pitch": 42,
                "velocity": 101,
                "duration": 0.1204545,
                "tempo": 120.0
            },
            {
                "start_time": 26.8681818,
                "end_time": 26.9886364,
                "pitch": 28,
                "velocity": 101,
                "duration": 0.1204545,
                "tempo": 120.0
            },
            {
                "start_time": 26.9886364,
                "end_time": 27.1090909,
                "pitch": 28,
                "velocity": 101,
                "duration": 0.1204545,
                "tempo": 120.0
            },
            {
                "start_time": 26.8681818,
                "end_time": 27.2272727,
                "pitch": 40,
                "velocity": 101,
                "duration": 0.3590909,
                "tempo": 120.0
            },
            {
                "start_time": 27.1090909,
                "end_time": 27.2272727,
                "pitch": 40,
                "velocity": 101,
                "duration": 0.1181818,
                "tempo": 120.0
            },
            {
                "start_time": 27.2272727,
                "end_time": 27.3454545,
                "pitch": 28,
                "velocity": 101,
                "duration": 0.1181818,
                "tempo": 120.0
            },
            {
                "start_time": 27.3454545,
                "end_time": 27.4636364,
                "pitch": 31,
                "velocity": 101,
                "duration": 0.1181818,
                "tempo": 120.0
            },
            {
                "start_time": 27.4636364,
                "end_time": 27.5795455,
                "pitch": 33,
                "velocity": 101,
                "duration": 0.1159091,
                "tempo": 120.0
            },
            {
                "start_time": 27.5795455,
                "end_time": 27.7,
                "pitch": 34,
                "velocity": 101,
                "duration": 0.1204545,
                "tempo": 120.0
            },
            {
                "start_time": 27.7,
                "end_time": 27.8227273,
                "pitch": 35,
                "velocity": 101,
                "duration": 0.1227273,
                "tempo": 120.0
            },
            {
                "start_time": 27.8227273,
                "end_time": 27.9431818,
                "pitch": 28,
                "velocity": 101,
                "duration": 0.1204545,
                "tempo": 120.0
            },
            {
                "start_time": 27.9431818,
                "end_time": 28.0636364,
                "pitch": 28,
                "velocity": 101,
                "duration": 0.1204545,
                "tempo": 120.0
            },
            {
                "start_time": 28.0636364,
                "end_time": 28.1840909,
                "pitch": 40,
                "velocity": 101,
                "duration": 0.1204545,
                "tempo": 120.0
            },
            {
                "start_time": 16.9022727,
                "end_time": 28.3045455,
                "pitch": 0,
                "velocity": 101,
                "duration": 11.4022727,
                "tempo": 120.0
            },
            {
                "start_time": 28.1840909,
                "end_time": 28.3045455,
                "pitch": 28,
                "velocity": 101,
                "duration": 0.1204545,
                "tempo": 120.0
            },
            {
                "start_time": 28.3045455,
                "end_time": 28.425,
                "pitch": 31,
                "velocity": 101,
                "duration": 0.1204545,
                "tempo": 120.0
            },
            {
                "start_time": 28.425,
                "end_time": 28.5454545,
                "pitch": 33,
                "velocity": 101,
                "duration": 0.1204545,
                "tempo": 120.0
            },
            {
                "start_time": 28.5454545,
                "end_time": 28.6659091,
                "pitch": 34,
                "velocity": 101,
                "duration": 0.1204545,
                "tempo": 120.0
            },
            {
                "start_time": 28.6659091,
                "end_time": 28.7863636,
                "pitch": 35,
                "velocity": 101,
                "duration": 0.1204545,
                "tempo": 120.0
            },
            {
                "start_time": 27.8227273,
                "end_time": 28.7863636,
                "pitch": 42,
                "velocity": 101,
                "duration": 0.9636364,
                "tempo": 120.0
            },
            {
                "start_time": 28.7863636,
                "end_time": 28.9068182,
                "pitch": 28,
                "velocity": 101,
                "duration": 0.1204545,
                "tempo": 120.0
            },
            {
                "start_time": 28.9068182,
                "end_time": 29.0272727,
                "pitch": 28,
                "velocity": 101,
                "duration": 0.1204545,
                "tempo": 120.0
            },
            {
                "start_time": 29.0272727,
                "end_time": 29.1477273,
                "pitch": 40,
                "velocity": 101,
                "duration": 0.1204545,
                "tempo": 120.0
            },
            {
                "start_time": 28.3045455,
                "end_time": 29.2681818,
                "pitch": 0,
                "velocity": 101,
                "duration": 0.9636364,
                "tempo": 120.0
            },
            {
                "start_time": 29.1477273,
                "end_time": 29.2681818,
                "pitch": 28,
                "velocity": 101,
                "duration": 0.1204545,
                "tempo": 120.0
            },
            {
                "start_time": 29.2681818,
                "end_time": 29.3886364,
                "pitch": 31,
                "velocity": 101,
                "duration": 0.1204545,
                "tempo": 120.0
            },
            {
                "start_time": 29.3886364,
                "end_time": 29.5090909,
                "pitch": 33,
                "velocity": 101,
                "duration": 0.1204545,
                "tempo": 120.0
            },
            {
                "start_time": 29.3886364,
                "end_time": 29.5090909,
                "pitch": 33,
                "velocity": 101,
                "duration": 0.1204545,
                "tempo": 120.0
            },
            {
                "start_time": 29.5090909,
                "end_time": 29.6295455,
                "pitch": 34,
                "velocity": 101,
                "duration": 0.1204545,
                "tempo": 120.0
            },
            {
                "start_time": 29.6295455,
                "end_time": 29.75,
                "pitch": 35,
                "velocity": 101,
                "duration": 0.1204545,
                "tempo": 120.0
            },
            {
                "start_time": 28.7863636,
                "end_time": 29.75,
                "pitch": 42,
                "velocity": 101,
                "duration": 0.9636364,
                "tempo": 120.0
            },
            {
                "start_time": 29.75,
                "end_time": 29.8681818,
                "pitch": 28,
                "velocity": 101,
                "duration": 0.1181818,
                "tempo": 120.0
            },
            {
                "start_time": 29.8681818,
                "end_time": 29.9886364,
                "pitch": 28,
                "velocity": 101,
                "duration": 0.1204545,
                "tempo": 120.0
            },
            {
                "start_time": 29.9886364,
                "end_time": 30.1045455,
                "pitch": 40,
                "velocity": 101,
                "duration": 0.1159091,
                "tempo": 120.0
            },
            {
                "start_time": 29.2681818,
                "end_time": 30.2227273,
                "pitch": 0,
                "velocity": 101,
                "duration": 0.9545455,
                "tempo": 120.0
            },
            {
                "start_time": 30.1045455,
                "end_time": 30.2227273,
                "pitch": 28,
                "velocity": 101,
                "duration": 0.1181818,
                "tempo": 120.0
            },
            {
                "start_time": 30.2227273,
                "end_time": 30.3409091,
                "pitch": 31,
                "velocity": 101,
                "duration": 0.1181818,
                "tempo": 120.0
            },
            {
                "start_time": 30.3409091,
                "end_time": 30.4590909,
                "pitch": 33,
                "velocity": 101,
                "duration": 0.1181818,
                "tempo": 120.0
            },
            {
                "start_time": 30.3409091,
                "end_time": 30.4590909,
                "pitch": 33,
                "velocity": 101,
                "duration": 0.1181818,
                "tempo": 120.0
            },
            {
                "start_time": 30.4590909,
                "end_time": 30.5795455,
                "pitch": 34,
                "velocity": 101,
                "duration": 0.1204545,
                "tempo": 120.0
            },
            {
                "start_time": 30.5795455,
                "end_time": 30.7,
                "pitch": 35,
                "velocity": 101,
                "duration": 0.1204545,
                "tempo": 120.0
            },
            {
                "start_time": 30.7,
                "end_time": 30.8204545,
                "pitch": 35,
                "velocity": 101,
                "duration": 0.1204545,
                "tempo": 120.0
            },
            {
                "start_time": 30.8204545,
                "end_time": 30.9409091,
                "pitch": 35,
                "velocity": 101,
                "duration": 0.1204545,
                "tempo": 120.0
            },
            {
                "start_time": 25.5409091,
                "end_time": 31.0613636,
                "pitch": 20,
                "velocity": 101,
                "duration": 5.5204545,
                "tempo": 120.0
            },
            {
                "start_time": 30.9409091,
                "end_time": 31.0613636,
                "pitch": 38,
                "velocity": 101,
                "duration": 0.1204545,
                "tempo": 120.0
            },
            {
                "start_time": 31.0613636,
                "end_time": 31.1818182,
                "pitch": 35,
                "velocity": 101,
                "duration": 0.1204545,
                "tempo": 120.0
            },
            {
                "start_time": 29.75,
                "end_time": 31.1818182,
                "pitch": 42,
                "velocity": 101,
                "duration": 1.4318182,
                "tempo": 120.0
            },
            {
                "start_time": 31.0613636,
                "end_time": 31.3022727,
                "pitch": 20,
                "velocity": 101,
                "duration": 0.2409091,
                "tempo": 120.0
            },
            {
                "start_time": 31.1818182,
                "end_time": 31.3022727,
                "pitch": 40,
                "velocity": 101,
                "duration": 0.1204545,
                "tempo": 120.0
            },
            {
                "start_time": 31.3022727,
                "end_time": 31.4227273,
                "pitch": 35,
                "velocity": 101,
                "duration": 0.1204545,
                "tempo": 120.0
            },
            {
                "start_time": 30.9409091,
                "end_time": 31.4227273,
                "pitch": 41,
                "velocity": 101,
                "duration": 0.4818182,
                "tempo": 120.0
            },
            {
                "start_time": 31.3022727,
                "end_time": 31.5431818,
                "pitch": 20,
                "velocity": 101,
                "duration": 0.2409091,
                "tempo": 120.0
            },
            {
                "start_time": 31.4227273,
                "end_time": 31.5431818,
                "pitch": 38,
                "velocity": 101,
                "duration": 0.1204545,
                "tempo": 120.0
            },
            {
                "start_time": 31.5431818,
                "end_time": 31.6636364,
                "pitch": 35,
                "velocity": 101,
                "duration": 0.1204545,
                "tempo": 120.0
            },
            {
                "start_time": 31.7818182,
                "end_time": 31.9022727,
                "pitch": 35,
                "velocity": 101,
                "duration": 0.1204545,
                "tempo": 120.0
            },
            {
                "start_time": 31.4227273,
                "end_time": 31.9022727,
                "pitch": 41,
                "velocity": 101,
                "duration": 0.4795455,
                "tempo": 120.0
            },
            {
                "start_time": 31.9022727,
                "end_time": 32.0227273,
                "pitch": 38,
                "velocity": 101,
                "duration": 0.1204545,
                "tempo": 120.0
            },
            {
                "start_time": 32.0227273,
                "end_time": 32.1431818,
                "pitch": 35,
                "velocity": 101,
                "duration": 0.1204545,
                "tempo": 120.0
            },
            {
                "start_time": 31.1818182,
                "end_time": 32.1431818,
                "pitch": 42,
                "velocity": 101,
                "duration": 0.9613636,
                "tempo": 120.0
            },
            {
                "start_time": 31.5431818,
                "end_time": 32.2636364,
                "pitch": 20,
                "velocity": 101,
                "duration": 0.7204545,
                "tempo": 120.0
            },
            {
                "start_time": 32.1431818,
                "end_time": 32.2636364,
                "pitch": 40,
                "velocity": 101,
                "duration": 0.1204545,
                "tempo": 120.0
            },
            {
                "start_time": 32.2636364,
                "end_time": 32.3840909,
                "pitch": 35,
                "velocity": 101,
                "duration": 0.1204545,
                "tempo": 120.0
            },
            {
                "start_time": 32.3840909,
                "end_time": 32.625,
                "pitch": 33,
                "velocity": 101,
                "duration": 0.2409091,
                "tempo": 120.0
            },
            {
                "start_time": 32.3840909,
                "end_time": 32.625,
                "pitch": 33,
                "velocity": 101,
                "duration": 0.2409091,
                "tempo": 120.0
            },
            {
                "start_time": 32.625,
                "end_time": 32.7454545,
                "pitch": 35,
                "velocity": 101,
                "duration": 0.1204545,
                "tempo": 120.0
            },
            {
                "start_time": 32.625,
                "end_time": 32.7454545,
                "pitch": 35,
                "velocity": 101,
                "duration": 0.1204545,
                "tempo": 120.0
            },
            {
                "start_time": 32.7454545,
                "end_time": 32.8659091,
                "pitch": 35,
                "velocity": 101,
                "duration": 0.1204545,
                "tempo": 120.0
            },
            {
                "start_time": 31.9022727,
                "end_time": 32.8659091,
                "pitch": 41,
                "velocity": 101,
                "duration": 0.9636364,
                "tempo": 120.0
            },
            {
                "start_time": 32.2636364,
                "end_time": 32.9863636,
                "pitch": 20,
                "velocity": 101,
                "duration": 0.7227273,
                "tempo": 120.0
            },
            {
                "start_time": 32.8659091,
                "end_time": 32.9863636,
                "pitch": 38,
                "velocity": 101,
                "duration": 0.1204545,
                "tempo": 120.0
            },
            {
                "start_time": 32.9863636,
                "end_time": 33.1068182,
                "pitch": 35,
                "velocity": 101,
                "duration": 0.1204545,
                "tempo": 120.0
            },
            {
                "start_time": 32.1431818,
                "end_time": 33.1068182,
                "pitch": 42,
                "velocity": 101,
                "duration": 0.9636364,
                "tempo": 120.0
            },
            {
                "start_time": 32.9863636,
                "end_time": 33.2272727,
                "pitch": 20,
                "velocity": 101,
                "duration": 0.2409091,
                "tempo": 120.0
            },
            {
                "start_time": 33.1068182,
                "end_time": 33.2272727,
                "pitch": 40,
                "velocity": 101,
                "duration": 0.1204545,
                "tempo": 120.0
            },
            {
                "start_time": 33.2272727,
                "end_time": 33.35,
                "pitch": 35,
                "velocity": 101,
                "duration": 0.1227273,
                "tempo": 120.0
            },
            {
                "start_time": 32.8659091,
                "end_time": 33.35,
                "pitch": 41,
                "velocity": 101,
                "duration": 0.4840909,
                "tempo": 120.0
            },
            {
                "start_time": 33.2272727,
                "end_time": 33.4681818,
                "pitch": 20,
                "velocity": 101,
                "duration": 0.2409091,
                "tempo": 120.0
            },
            {
                "start_time": 33.35,
                "end_time": 33.4681818,
                "pitch": 38,
                "velocity": 101,
                "duration": 0.1181818,
                "tempo": 120.0
            },
            {
                "start_time": 33.4681818,
                "end_time": 33.5886364,
                "pitch": 35,
                "velocity": 101,
                "duration": 0.1204545,
                "tempo": 120.0
            },
            {
                "start_time": 33.1068182,
                "end_time": 33.5886364,
                "pitch": 42,
                "velocity": 101,
                "duration": 0.4818182,
                "tempo": 120.0
            },
            {
                "start_time": 33.5886364,
                "end_time": 33.7068182,
                "pitch": 30,
                "velocity": 101,
                "duration": 0.1181818,
                "tempo": 120.0
            },
            {
                "start_time": 33.7068182,
                "end_time": 33.8272727,
                "pitch": 35,
                "velocity": 101,
                "duration": 0.1204545,
                "tempo": 120.0
            },
            {
                "start_time": 33.35,
                "end_time": 33.8272727,
                "pitch": 41,
                "velocity": 101,
                "duration": 0.4772727,
                "tempo": 120.0
            },
            {
                "start_time": 33.4681818,
                "end_time": 33.9454545,
                "pitch": 20,
                "velocity": 101,
                "duration": 0.4772727,
                "tempo": 120.0
            },
            {
                "start_time": 33.8272727,
                "end_time": 33.9454545,
                "pitch": 38,
                "velocity": 101,
                "duration": 0.1181818,
                "tempo": 120.0
            },
            {
                "start_time": 33.9454545,
                "end_time": 34.0636364,
                "pitch": 35,
                "velocity": 101,
                "duration": 0.1181818,
                "tempo": 120.0
            },
            {
                "start_time": 33.8272727,
                "end_time": 34.0636364,
                "pitch": 41,
                "velocity": 101,
                "duration": 0.2363636,
                "tempo": 120.0
            },
            {
                "start_time": 34.0636364,
                "end_time": 34.1795455,
                "pitch": 38,
                "velocity": 101,
                "duration": 0.1159091,
                "tempo": 120.0
            },
            {
                "start_time": 34.1795455,
                "end_time": 34.2977273,
                "pitch": 40,
                "velocity": 101,
                "duration": 0.1181818,
                "tempo": 120.0
            },
            {
                "start_time": 34.0636364,
                "end_time": 34.4181818,
                "pitch": 41,
                "velocity": 101,
                "duration": 0.3545455,
                "tempo": 120.0
            },
            {
                "start_time": 34.2977273,
                "end_time": 34.4181818,
                "pitch": 41,
                "velocity": 101,
                "duration": 0.1204545,
                "tempo": 120.0
            },
            {
                "start_time": 33.5886364,
                "end_time": 34.5386364,
                "pitch": 42,
                "velocity": 101,
                "duration": 0.95,
                "tempo": 120.0
            },
            {
                "start_time": 34.4181818,
                "end_time": 34.5386364,
                "pitch": 42,
                "velocity": 101,
                "duration": 0.1204545,
                "tempo": 120.0
            },
            {
                "start_time": 34.5386364,
                "end_time": 34.6590909,
                "pitch": 26,
                "velocity": 101,
                "duration": 0.1204545,
                "tempo": 120.0
            },
            {
                "start_time": 34.6590909,
                "end_time": 34.7795455,
                "pitch": 26,
                "velocity": 101,
                "duration": 0.1204545,
                "tempo": 120.0
            },
            {
                "start_time": 34.7795455,
                "end_time": 34.9,
                "pitch": 38,
                "velocity": 101,
                "duration": 0.1204545,
                "tempo": 120.0
            },
            {
                "start_time": 34.9,
                "end_time": 35.0204545,
                "pitch": 26,
                "velocity": 101,
                "duration": 0.1204545,
                "tempo": 120.0
            },
            {
                "start_time": 35.1386364,
                "end_time": 35.2590909,
                "pitch": 26,
                "velocity": 101,
                "duration": 0.1204545,
                "tempo": 120.0
            },
            {
                "start_time": 35.2590909,
                "end_time": 35.3795455,
                "pitch": 38,
                "velocity": 101,
                "duration": 0.1204545,
                "tempo": 120.0
            },
            {
                "start_time": 35.4977273,
                "end_time": 35.6181818,
                "pitch": 28,
                "velocity": 101,
                "duration": 0.1204545,
                "tempo": 120.0
            },
            {
                "start_time": 35.6181818,
                "end_time": 35.7363636,
                "pitch": 28,
                "velocity": 101,
                "duration": 0.1181818,
                "tempo": 120.0
            },
            {
                "start_time": 35.7363636,
                "end_time": 35.8590909,
                "pitch": 40,
                "velocity": 101,
                "duration": 0.1227273,
                "tempo": 120.0
            },
            {
                "start_time": 30.2227273,
                "end_time": 35.9795455,
                "pitch": 0,
                "velocity": 101,
                "duration": 5.7568182,
                "tempo": 120.0
            },
            {
                "start_time": 35.8590909,
                "end_time": 35.9795455,
                "pitch": 28,
                "velocity": 101,
                "duration": 0.1204545,
                "tempo": 120.0
            },
            {
                "start_time": 35.9795455,
                "end_time": 36.1,
                "pitch": 31,
                "velocity": 101,
                "duration": 0.1204545,
                "tempo": 120.0
            },
            {
                "start_time": 36.1,
                "end_time": 36.2204545,
                "pitch": 33,
                "velocity": 101,
                "duration": 0.1204545,
                "tempo": 120.0
            },
            {
                "start_time": 36.1,
                "end_time": 36.2204545,
                "pitch": 33,
                "velocity": 101,
                "duration": 0.1204545,
                "tempo": 120.0
            },
            {
                "start_time": 36.2204545,
                "end_time": 36.3386364,
                "pitch": 34,
                "velocity": 101,
                "duration": 0.1181818,
                "tempo": 120.0
            },
            {
                "start_time": 36.3386364,
                "end_time": 36.4590909,
                "pitch": 35,
                "velocity": 101,
                "duration": 0.1204545,
                "tempo": 120.0
            },
            {
                "start_time": 36.4590909,
                "end_time": 36.5772727,
                "pitch": 35,
                "velocity": 101,
                "duration": 0.1181818,
                "tempo": 120.0
            },
            {
                "start_time": 36.5772727,
                "end_time": 36.6977273,
                "pitch": 35,
                "velocity": 101,
                "duration": 0.1204545,
                "tempo": 120.0
            },
            {
                "start_time": 36.6977273,
                "end_time": 36.8159091,
                "pitch": 47,
                "velocity": 101,
                "duration": 0.1181818,
                "tempo": 120.0
            },
            {
                "start_time": 36.8159091,
                "end_time": 36.9340909,
                "pitch": 35,
                "velocity": 101,
                "duration": 0.1181818,
                "tempo": 120.0
            },
            {
                "start_time": 37.0522727,
                "end_time": 37.1681818,
                "pitch": 33,
                "velocity": 101,
                "duration": 0.1159091,
                "tempo": 120.0
            },
            {
                "start_time": 37.2886364,
                "end_time": 37.4113636,
                "pitch": 35,
                "velocity": 101,
                "duration": 0.1227273,
                "tempo": 120.0
            },
            {
                "start_time": 37.4113636,
                "end_time": 37.5318182,
                "pitch": 35,
                "velocity": 101,
                "duration": 0.1204545,
                "tempo": 120.0
            },
            {
                "start_time": 37.5318182,
                "end_time": 37.65,
                "pitch": 35,
                "velocity": 101,
                "duration": 0.1181818,
                "tempo": 120.0
            },
            {
                "start_time": 37.6522727,
                "end_time": 37.7704545,
                "pitch": 35,
                "velocity": 101,
                "duration": 0.1181818,
                "tempo": 120.0
            },
            {
                "start_time": 37.7704545,
                "end_time": 37.8909091,
                "pitch": 35,
                "velocity": 101,
                "duration": 0.1204545,
                "tempo": 120.0
            },
            {
                "start_time": 37.8909091,
                "end_time": 38.0090909,
                "pitch": 35,
                "velocity": 101,
                "duration": 0.1181818,
                "tempo": 120.0
            },
            {
                "start_time": 38.0090909,
                "end_time": 38.1295455,
                "pitch": 33,
                "velocity": 101,
                "duration": 0.1204545,
                "tempo": 120.0
            },
            {
                "start_time": 38.0090909,
                "end_time": 38.1295455,
                "pitch": 33,
                "velocity": 101,
                "duration": 0.1204545,
                "tempo": 120.0
            },
            {
                "start_time": 38.1295455,
                "end_time": 38.25,
                "pitch": 35,
                "velocity": 101,
                "duration": 0.1204545,
                "tempo": 120.0
            },
            {
                "start_time": 38.1295455,
                "end_time": 38.25,
                "pitch": 35,
                "velocity": 101,
                "duration": 0.1204545,
                "tempo": 120.0
            },
            {
                "start_time": 38.25,
                "end_time": 38.3704545,
                "pitch": 33,
                "velocity": 101,
                "duration": 0.1204545,
                "tempo": 120.0
            },
            {
                "start_time": 38.3704545,
                "end_time": 38.4909091,
                "pitch": 26,
                "velocity": 101,
                "duration": 0.1204545,
                "tempo": 120.0
            },
            {
                "start_time": 38.4909091,
                "end_time": 38.6113636,
                "pitch": 26,
                "velocity": 101,
                "duration": 0.1204545,
                "tempo": 120.0
            },
            {
                "start_time": 38.6113636,
                "end_time": 38.7318182,
                "pitch": 38,
                "velocity": 101,
                "duration": 0.1204545,
                "tempo": 120.0
            },
            {
                "start_time": 38.7318182,
                "end_time": 38.8522727,
                "pitch": 26,
                "velocity": 101,
                "duration": 0.1204545,
                "tempo": 120.0
            },
            {
                "start_time": 38.9704545,
                "end_time": 39.0909091,
                "pitch": 26,
                "velocity": 101,
                "duration": 0.1204545,
                "tempo": 120.0
            },
            {
                "start_time": 39.0909091,
                "end_time": 39.2113636,
                "pitch": 38,
                "velocity": 101,
                "duration": 0.1204545,
                "tempo": 120.0
            },
            {
                "start_time": 39.3318182,
                "end_time": 39.4522727,
                "pitch": 28,
                "velocity": 101,
                "duration": 0.1204545,
                "tempo": 120.0
            },
            {
                "start_time": 39.4522727,
                "end_time": 39.5727273,
                "pitch": 28,
                "velocity": 101,
                "duration": 0.1204545,
                "tempo": 120.0
            },
            {
                "start_time": 39.5727273,
                "end_time": 39.6909091,
                "pitch": 40,
                "velocity": 101,
                "duration": 0.1181818,
                "tempo": 120.0
            },
            {
                "start_time": 39.6909091,
                "end_time": 39.8090909,
                "pitch": 28,
                "velocity": 101,
                "duration": 0.1181818,
                "tempo": 120.0
            },
            {
                "start_time": 39.8090909,
                "end_time": 39.925,
                "pitch": 31,
                "velocity": 101,
                "duration": 0.1159091,
                "tempo": 120.0
            },
            {
                "start_time": 39.925,
                "end_time": 40.0431818,
                "pitch": 33,
                "velocity": 101,
                "duration": 0.1181818,
                "tempo": 120.0
            },
            {
                "start_time": 39.925,
                "end_time": 40.0431818,
                "pitch": 33,
                "velocity": 101,
                "duration": 0.1181818,
                "tempo": 120.0
            },
            {
                "start_time": 40.0431818,
                "end_time": 40.1636364,
                "pitch": 34,
                "velocity": 101,
                "duration": 0.1204545,
                "tempo": 120.0
            },
            {
                "start_time": 40.1636364,
                "end_time": 40.2818182,
                "pitch": 35,
                "velocity": 101,
                "duration": 0.1181818,
                "tempo": 120.0
            },
            {
                "start_time": 40.2818182,
                "end_time": 40.4022727,
                "pitch": 35,
                "velocity": 101,
                "duration": 0.1204545,
                "tempo": 120.0
            },
            {
                "start_time": 40.4022727,
                "end_time": 40.5227273,
                "pitch": 35,
                "velocity": 101,
                "duration": 0.1204545,
                "tempo": 120.0
            },
            {
                "start_time": 40.5227273,
                "end_time": 40.6431818,
                "pitch": 47,
                "velocity": 101,
                "duration": 0.1204545,
                "tempo": 120.0
            },
            {
                "start_time": 40.6431818,
                "end_time": 40.7636364,
                "pitch": 35,
                "velocity": 101,
                "duration": 0.1204545,
                "tempo": 120.0
            },
            {
                "start_time": 40.8840909,
                "end_time": 41.0045455,
                "pitch": 33,
                "velocity": 101,
                "duration": 0.1204545,
                "tempo": 120.0
            },
            {
                "start_time": 41.125,
                "end_time": 41.2431818,
                "pitch": 35,
                "velocity": 101,
                "duration": 0.1181818,
                "tempo": 120.0
            },
            {
                "start_time": 41.2431818,
                "end_time": 41.3636364,
                "pitch": 35,
                "velocity": 101,
                "duration": 0.1204545,
                "tempo": 120.0
            },
            {
                "start_time": 41.3636364,
                "end_time": 41.4818182,
                "pitch": 35,
                "velocity": 101,
                "duration": 0.1181818,
                "tempo": 120.0
            },
            {
                "start_time": 41.4818182,
                "end_time": 41.6045455,
                "pitch": 47,
                "velocity": 101,
                "duration": 0.1227273,
                "tempo": 120.0
            },
            {
                "start_time": 41.6045455,
                "end_time": 41.725,
                "pitch": 35,
                "velocity": 101,
                "duration": 0.1204545,
                "tempo": 120.0
            },
            {
                "start_time": 41.8454545,
                "end_time": 41.9659091,
                "pitch": 35,
                "velocity": 101,
                "duration": 0.1204545,
                "tempo": 120.0
            },
            {
                "start_time": 41.9659091,
                "end_time": 42.0840909,
                "pitch": 47,
                "velocity": 101,
                "duration": 0.1181818,
                "tempo": 120.0
            },
            {
                "start_time": 42.2045455,
                "end_time": 42.3227273,
                "pitch": 35,
                "velocity": 101,
                "duration": 0.1181818,
                "tempo": 120.0
            },
            {
                "start_time": 42.3227273,
                "end_time": 42.4431818,
                "pitch": 35,
                "velocity": 101,
                "duration": 0.1204545,
                "tempo": 120.0
            },
            {
                "start_time": 42.4431818,
                "end_time": 42.5636364,
                "pitch": 35,
                "velocity": 101,
                "duration": 0.1204545,
                "tempo": 120.0
            },
            {
                "start_time": 42.5636364,
                "end_time": 42.6818182,
                "pitch": 35,
                "velocity": 101,
                "duration": 0.1181818,
                "tempo": 120.0
            },
            {
                "start_time": 42.6818182,
                "end_time": 42.8022727,
                "pitch": 38,
                "velocity": 101,
                "duration": 0.1204545,
                "tempo": 120.0
            },
            {
                "start_time": 42.8022727,
                "end_time": 42.9227273,
                "pitch": 38,
                "velocity": 101,
                "duration": 0.1204545,
                "tempo": 120.0
            },
            {
                "start_time": 42.9227273,
                "end_time": 43.0386364,
                "pitch": 38,
                "velocity": 101,
                "duration": 0.1159091,
                "tempo": 120.0
            },
            {
                "start_time": 43.0386364,
                "end_time": 43.1568182,
                "pitch": 38,
                "velocity": 101,
                "duration": 0.1181818,
                "tempo": 120.0
            },
            {
                "start_time": 43.1568182,
                "end_time": 43.275,
                "pitch": 40,
                "velocity": 101,
                "duration": 0.1181818,
                "tempo": 120.0
            },
            {
                "start_time": 43.275,
                "end_time": 43.3931818,
                "pitch": 40,
                "velocity": 101,
                "duration": 0.1181818,
                "tempo": 120.0
            },
            {
                "start_time": 43.3931818,
                "end_time": 43.5113636,
                "pitch": 40,
                "velocity": 101,
                "duration": 0.1181818,
                "tempo": 120.0
            },
            {
                "start_time": 43.5113636,
                "end_time": 43.7522727,
                "pitch": 43,
                "velocity": 101,
                "duration": 0.2409091,
                "tempo": 120.0
            },
            {
                "start_time": 43.7522727,
                "end_time": 43.8704545,
                "pitch": 43,
                "velocity": 101,
                "duration": 0.1181818,
                "tempo": 120.0
            },
            {
                "start_time": 43.8704545,
                "end_time": 43.9909091,
                "pitch": 43,
                "velocity": 101,
                "duration": 0.1204545,
                "tempo": 120.0
            },
            {
                "start_time": 43.9909091,
                "end_time": 44.1113636,
                "pitch": 43,
                "velocity": 101,
                "duration": 0.1204545,
                "tempo": 120.0
            },
            {
                "start_time": 44.1113636,
                "end_time": 44.2318182,
                "pitch": 35,
                "velocity": 101,
                "duration": 0.1204545,
                "tempo": 120.0
            },
            {
                "start_time": 44.2318182,
                "end_time": 44.3522727,
                "pitch": 35,
                "velocity": 101,
                "duration": 0.1204545,
                "tempo": 120.0
            },
            {
                "start_time": 44.3522727,
                "end_time": 44.4727273,
                "pitch": 35,
                "velocity": 101,
                "duration": 0.1204545,
                "tempo": 120.0
            },
            {
                "start_time": 44.4727273,
                "end_time": 44.5931818,
                "pitch": 35,
                "velocity": 101,
                "duration": 0.1204545,
                "tempo": 120.0
            },
            {
                "start_time": 38.3704545,
                "end_time": 44.5931818,
                "pitch": 41,
                "velocity": 101,
                "duration": 6.2227273,
                "tempo": 120.0
            },
            {
                "start_time": 44.5931818,
                "end_time": 44.7113636,
                "pitch": 38,
                "velocity": 101,
                "duration": 0.1181818,
                "tempo": 120.0
            },
            {
                "start_time": 44.7113636,
                "end_time": 44.8318182,
                "pitch": 38,
                "velocity": 101,
                "duration": 0.1204545,
                "tempo": 120.0
            },
            {
                "start_time": 44.8318182,
                "end_time": 44.9522727,
                "pitch": 38,
                "velocity": 101,
                "duration": 0.1204545,
                "tempo": 120.0
            },
            {
                "start_time": 44.9522727,
                "end_time": 45.0704545,
                "pitch": 38,
                "velocity": 101,
                "duration": 0.1181818,
                "tempo": 120.0
            },
            {
                "start_time": 45.0704545,
                "end_time": 45.1909091,
                "pitch": 40,
                "velocity": 101,
                "duration": 0.1204545,
                "tempo": 120.0
            },
            {
                "start_time": 45.1909091,
                "end_time": 45.3113636,
                "pitch": 40,
                "velocity": 101,
                "duration": 0.1204545,
                "tempo": 120.0
            },
            {
                "start_time": 45.3113636,
                "end_time": 45.4295455,
                "pitch": 40,
                "velocity": 101,
                "duration": 0.1181818,
                "tempo": 120.0
            },
            {
                "start_time": 45.4295455,
                "end_time": 45.6727273,
                "pitch": 43,
                "velocity": 101,
                "duration": 0.2431818,
                "tempo": 120.0
            },
            {
                "start_time": 45.6727273,
                "end_time": 45.7931818,
                "pitch": 43,
                "velocity": 101,
                "duration": 0.1204545,
                "tempo": 120.0
            },
            {
                "start_time": 45.7931818,
                "end_time": 45.9090909,
                "pitch": 43,
                "velocity": 101,
                "duration": 0.1159091,
                "tempo": 120.0
            },
            {
                "start_time": 45.9090909,
                "end_time": 46.0272727,
                "pitch": 43,
                "velocity": 101,
                "duration": 0.1181818,
                "tempo": 120.0
            },
            {
                "start_time": 44.1113636,
                "end_time": 46.0272727,
                "pitch": 47,
                "velocity": 101,
                "duration": 1.9159091,
                "tempo": 120.0
            },
            {
                "start_time": 46.0272727,
                "end_time": 46.1454545,
                "pitch": 35,
                "velocity": 101,
                "duration": 0.1181818,
                "tempo": 120.0
            },
            {
                "start_time": 46.1454545,
                "end_time": 46.2636364,
                "pitch": 35,
                "velocity": 101,
                "duration": 0.1181818,
                "tempo": 120.0
            },
            {
                "start_time": 46.2636364,
                "end_time": 46.3818182,
                "pitch": 35,
                "velocity": 101,
                "duration": 0.1181818,
                "tempo": 120.0
            },
            {
                "start_time": 46.3840909,
                "end_time": 46.5022727,
                "pitch": 35,
                "velocity": 101,
                "duration": 0.1181818,
                "tempo": 120.0
            },
            {
                "start_time": 44.5931818,
                "end_time": 46.5022727,
                "pitch": 41,
                "velocity": 101,
                "duration": 1.9090909,
                "tempo": 120.0
            },
            {
                "start_time": 46.5022727,
                "end_time": 46.6227273,
                "pitch": 38,
                "velocity": 101,
                "duration": 0.1204545,
                "tempo": 120.0
            },
            {
                "start_time": 46.6227273,
                "end_time": 46.7409091,
                "pitch": 38,
                "velocity": 101,
                "duration": 0.1181818,
                "tempo": 120.0
            },
            {
                "start_time": 46.7409091,
                "end_time": 46.8613636,
                "pitch": 38,
                "velocity": 101,
                "duration": 0.1204545,
                "tempo": 120.0
            },
            {
                "start_time": 46.8613636,
                "end_time": 46.9818182,
                "pitch": 38,
                "velocity": 101,
                "duration": 0.1204545,
                "tempo": 120.0
            },
            {
                "start_time": 46.9818182,
                "end_time": 47.1022727,
                "pitch": 40,
                "velocity": 101,
                "duration": 0.1204545,
                "tempo": 120.0
            },
            {
                "start_time": 47.1022727,
                "end_time": 47.225,
                "pitch": 40,
                "velocity": 101,
                "duration": 0.1227273,
                "tempo": 120.0
            },
            {
                "start_time": 47.225,
                "end_time": 47.3431818,
                "pitch": 40,
                "velocity": 101,
                "duration": 0.1181818,
                "tempo": 120.0
            },
            {
                "start_time": 47.3431818,
                "end_time": 47.5818182,
                "pitch": 36,
                "velocity": 101,
                "duration": 0.2386364,
                "tempo": 120.0
            },
            {
                "start_time": 47.5818182,
                "end_time": 47.7022727,
                "pitch": 36,
                "velocity": 101,
                "duration": 0.1204545,
                "tempo": 120.0
            },
            {
                "start_time": 47.7022727,
                "end_time": 47.8227273,
                "pitch": 36,
                "velocity": 101,
                "duration": 0.1204545,
                "tempo": 120.0
            },
            {
                "start_time": 33.9454545,
                "end_time": 47.9431818,
                "pitch": 20,
                "velocity": 101,
                "duration": 13.9977273,
                "tempo": 120.0
            },
            {
                "start_time": 47.8227273,
                "end_time": 47.9431818,
                "pitch": 36,
                "velocity": 101,
                "duration": 0.1204545,
                "tempo": 120.0
            },
            {
                "start_time": 47.9431818,
                "end_time": 48.0636364,
                "pitch": 35,
                "velocity": 101,
                "duration": 0.1204545,
                "tempo": 120.0
            },
            {
                "start_time": 48.0636364,
                "end_time": 48.1840909,
                "pitch": 35,
                "velocity": 101,
                "duration": 0.1204545,
                "tempo": 120.0
            },
            {
                "start_time": 48.1840909,
                "end_time": 48.3045455,
                "pitch": 35,
                "velocity": 101,
                "duration": 0.1204545,
                "tempo": 120.0
            },
            {
                "start_time": 48.3045455,
                "end_time": 48.4227273,
                "pitch": 35,
                "velocity": 101,
                "duration": 0.1181818,
                "tempo": 120.0
            },
            {
                "start_time": 48.4227273,
                "end_time": 48.5431818,
                "pitch": 38,
                "velocity": 101,
                "duration": 0.1204545,
                "tempo": 120.0
            },
            {
                "start_time": 48.5431818,
                "end_time": 48.6636364,
                "pitch": 38,
                "velocity": 101,
                "duration": 0.1204545,
                "tempo": 120.0
            },
            {
                "start_time": 48.6636364,
                "end_time": 48.7840909,
                "pitch": 38,
                "velocity": 101,
                "duration": 0.1204545,
                "tempo": 120.0
            },
            {
                "start_time": 48.7840909,
                "end_time": 48.9045455,
                "pitch": 38,
                "velocity": 101,
                "duration": 0.1204545,
                "tempo": 120.0
            },
            {
                "start_time": 48.9045455,
                "end_time": 49.025,
                "pitch": 40,
                "velocity": 101,
                "duration": 0.1204545,
                "tempo": 120.0
            },
            {
                "start_time": 49.025,
                "end_time": 49.1454545,
                "pitch": 40,
                "velocity": 101,
                "duration": 0.1204545,
                "tempo": 120.0
            },
            {
                "start_time": 49.1454545,
                "end_time": 49.2659091,
                "pitch": 40,
                "velocity": 101,
                "duration": 0.1204545,
                "tempo": 120.0
            },
            {
                "start_time": 49.2659091,
                "end_time": 49.5045455,
                "pitch": 36,
                "velocity": 101,
                "duration": 0.2386364,
                "tempo": 120.0
            },
            {
                "start_time": 49.2659091,
                "end_time": 49.5045455,
                "pitch": 36,
                "velocity": 101,
                "duration": 0.2386364,
                "tempo": 120.0
            },
            {
                "start_time": 49.5045455,
                "end_time": 49.625,
                "pitch": 36,
                "velocity": 101,
                "duration": 0.1204545,
                "tempo": 120.0
            },
            {
                "start_time": 49.625,
                "end_time": 49.7409091,
                "pitch": 36,
                "velocity": 101,
                "duration": 0.1159091,
                "tempo": 120.0
            },
            {
                "start_time": 49.7409091,
                "end_time": 49.8590909,
                "pitch": 36,
                "velocity": 101,
                "duration": 0.1181818,
                "tempo": 120.0
            },
            {
                "start_time": 49.8590909,
                "end_time": 49.9772727,
                "pitch": 34,
                "velocity": 101,
                "duration": 0.1181818,
                "tempo": 120.0
            },
            {
                "start_time": 49.9772727,
                "end_time": 50.0954545,
                "pitch": 34,
                "velocity": 101,
                "duration": 0.1181818,
                "tempo": 120.0
            },
            {
                "start_time": 50.0954545,
                "end_time": 50.2159091,
                "pitch": 37,
                "velocity": 101,
                "duration": 0.1204545,
                "tempo": 120.0
            },
            {
                "start_time": 50.2159091,
                "end_time": 50.3363636,
                "pitch": 34,
                "velocity": 101,
                "duration": 0.1204545,
                "tempo": 120.0
            },
            {
                "start_time": 46.5022727,
                "end_time": 50.3363636,
                "pitch": 41,
                "velocity": 101,
                "duration": 3.8340909,
                "tempo": 120.0
            },
            {
                "start_time": 50.3363636,
                "end_time": 50.4568182,
                "pitch": 39,
                "velocity": 101,
                "duration": 0.1204545,
                "tempo": 120.0
            },
            {
                "start_time": 50.4568182,
                "end_time": 50.5772727,
                "pitch": 34,
                "velocity": 101,
                "duration": 0.1204545,
                "tempo": 120.0
            },
            {
                "start_time": 50.2159091,
                "end_time": 50.6977273,
                "pitch": 15,
                "velocity": 101,
                "duration": 0.4818182,
                "tempo": 120.0
            },
            {
                "start_time": 50.5772727,
                "end_time": 50.6977273,
                "pitch": 37,
                "velocity": 101,
                "duration": 0.1204545,
                "tempo": 120.0
            },
            {
                "start_time": 50.6977273,
                "end_time": 50.8159091,
                "pitch": 34,
                "velocity": 101,
                "duration": 0.1181818,
                "tempo": 120.0
            },
            {
                "start_time": 50.9363636,
                "end_time": 51.0568182,
                "pitch": 34,
                "velocity": 101,
                "duration": 0.1204545,
                "tempo": 120.0
            },
            {
                "start_time": 50.0954545,
                "end_time": 51.0568182,
                "pitch": 40,
                "velocity": 101,
                "duration": 0.9613636,
                "tempo": 120.0
            },
            {
                "start_time": 51.0568182,
                "end_time": 51.1772727,
                "pitch": 37,
                "velocity": 101,
                "duration": 0.1204545,
                "tempo": 120.0
            },
            {
                "start_time": 51.1772727,
                "end_time": 51.2977273,
                "pitch": 34,
                "velocity": 101,
                "duration": 0.1204545,
                "tempo": 120.0
            },
            {
                "start_time": 50.3363636,
                "end_time": 51.2977273,
                "pitch": 41,
                "velocity": 101,
                "duration": 0.9613636,
                "tempo": 120.0
            },
            {
                "start_time": 50.6977273,
                "end_time": 51.4181818,
                "pitch": 15,
                "velocity": 101,
                "duration": 0.7204545,
                "tempo": 120.0
            },
            {
                "start_time": 51.2977273,
                "end_time": 51.4181818,
                "pitch": 39,
                "velocity": 101,
                "duration": 0.1204545,
                "tempo": 120.0
            },
            {
                "start_time": 51.4181818,
                "end_time": 51.5386364,
                "pitch": 34,
                "velocity": 101,
                "duration": 0.1204545,
                "tempo": 120.0
            },
            {
                "start_time": 51.5386364,
                "end_time": 51.7772727,
                "pitch": 32,
                "velocity": 101,
                "duration": 0.2386364,
                "tempo": 120.0
            },
            {
                "start_time": 51.7772727,
                "end_time": 51.8977273,
                "pitch": 34,
                "velocity": 101,
                "duration": 0.1204545,
                "tempo": 120.0
            },
            {
                "start_time": 51.8977273,
                "end_time": 52.0159091,
                "pitch": 34,
                "velocity": 101,
                "duration": 0.1181818,
                "tempo": 120.0
            },
            {
                "start_time": 51.0568182,
                "end_time": 52.0159091,
                "pitch": 40,
                "velocity": 101,
                "duration": 0.9590909,
                "tempo": 120.0
            },
            {
                "start_time": 52.0159091,
                "end_time": 52.1363636,
                "pitch": 37,
                "velocity": 101,
                "duration": 0.1204545,
                "tempo": 120.0
            },
            {
                "start_time": 52.1363636,
                "end_time": 52.2545455,
                "pitch": 34,
                "velocity": 101,
                "duration": 0.1181818,
                "tempo": 120.0
            },
            {
                "start_time": 51.2977273,
                "end_time": 52.2545455,
                "pitch": 41,
                "velocity": 101,
                "duration": 0.9568182,
                "tempo": 120.0
            },
            {
                "start_time": 51.4181818,
                "end_time": 52.375,
                "pitch": 15,
                "velocity": 101,
                "duration": 0.9568182,
                "tempo": 120.0
            },
            {
                "start_time": 52.2545455,
                "end_time": 52.375,
                "pitch": 39,
                "velocity": 101,
                "duration": 0.1204545,
                "tempo": 120.0
            },
            {
                "start_time": 52.375,
                "end_time": 52.4954545,
                "pitch": 34,
                "velocity": 101,
                "duration": 0.1204545,
                "tempo": 120.0
            },
            {
                "start_time": 52.0159091,
                "end_time": 52.4954545,
                "pitch": 40,
                "velocity": 101,
                "duration": 0.4795455,
                "tempo": 120.0
            },
            {
                "start_time": 52.4954545,
                "end_time": 52.6113636,
                "pitch": 37,
                "velocity": 101,
                "duration": 0.1159091,
                "tempo": 120.0
            },
            {
                "start_time": 52.6136364,
                "end_time": 52.7295455,
                "pitch": 34,
                "velocity": 101,
                "duration": 0.1159091,
                "tempo": 120.0
            },
            {
                "start_time": 52.7295455,
                "end_time": 52.8477273,
                "pitch": 29,
                "velocity": 101,
                "duration": 0.1181818,
                "tempo": 120.0
            },
            {
                "start_time": 52.8477273,
                "end_time": 52.9659091,
                "pitch": 34,
                "velocity": 101,
                "duration": 0.1181818,
                "tempo": 120.0
            },
            {
                "start_time": 52.4954545,
                "end_time": 52.9659091,
                "pitch": 40,
                "velocity": 101,
                "duration": 0.4704545,
                "tempo": 120.0
            },
            {
                "start_time": 52.9659091,
                "end_time": 53.0840909,
                "pitch": 37,
                "velocity": 101,
                "duration": 0.1181818,
                "tempo": 120.0
            },
            {
                "start_time": 53.0840909,
                "end_time": 53.2045455,
                "pitch": 34,
                "velocity": 101,
                "duration": 0.1204545,
                "tempo": 120.0
            },
            {
                "start_time": 52.9659091,
                "end_time": 53.2045455,
                "pitch": 40,
                "velocity": 101,
                "duration": 0.2386364,
                "tempo": 120.0
            },
            {
                "start_time": 53.2045455,
                "end_time": 53.325,
                "pitch": 37,
                "velocity": 101,
                "duration": 0.1204545,
                "tempo": 120.0
            },
            {
                "start_time": 53.325,
                "end_time": 53.4431818,
                "pitch": 39,
                "velocity": 101,
                "duration": 0.1181818,
                "tempo": 120.0
            },
            {
                "start_time": 53.325,
                "end_time": 53.4431818,
                "pitch": 39,
                "velocity": 101,
                "duration": 0.1181818,
                "tempo": 120.0
            },
            {
                "start_time": 53.2045455,
                "end_time": 53.5636364,
                "pitch": 40,
                "velocity": 101,
                "duration": 0.3590909,
                "tempo": 120.0
            },
            {
                "start_time": 53.4431818,
                "end_time": 53.5636364,
                "pitch": 40,
                "velocity": 101,
                "duration": 0.1204545,
                "tempo": 120.0
            },
            {
                "start_time": 52.2545455,
                "end_time": 53.6840909,
                "pitch": 41,
                "velocity": 101,
                "duration": 1.4295455,
                "tempo": 120.0
            },
            {
                "start_time": 53.5636364,
                "end_time": 53.6840909,
                "pitch": 41,
                "velocity": 101,
                "duration": 0.1204545,
                "tempo": 120.0
            },
            {
                "start_time": 53.6840909,
                "end_time": 53.8022727,
                "pitch": 27,
                "velocity": 101,
                "duration": 0.1181818,
                "tempo": 120.0
            },
            {
                "start_time": 53.8022727,
                "end_time": 53.9227273,
                "pitch": 27,
                "velocity": 101,
                "duration": 0.1204545,
                "tempo": 120.0
            },
            {
                "start_time": 53.9227273,
                "end_time": 54.0431818,
                "pitch": 39,
                "velocity": 101,
                "duration": 0.1204545,
                "tempo": 120.0
            },
            {
                "start_time": 54.0431818,
                "end_time": 54.1636364,
                "pitch": 27,
                "velocity": 101,
                "duration": 0.1204545,
                "tempo": 120.0
            },
            {
                "start_time": 54.1636364,
                "end_time": 54.2840909,
                "pitch": 30,
                "velocity": 101,
                "duration": 0.1204545,
                "tempo": 120.0
            },
            {
                "start_time": 54.1636364,
                "end_time": 54.2840909,
                "pitch": 30,
                "velocity": 101,
                "duration": 0.1204545,
                "tempo": 120.0
            },
            {
                "start_time": 54.2840909,
                "end_time": 54.4045455,
                "pitch": 32,
                "velocity": 101,
                "duration": 0.1204545,
                "tempo": 120.0
            },
            {
                "start_time": 54.4045455,
                "end_time": 54.525,
                "pitch": 33,
                "velocity": 101,
                "duration": 0.1204545,
                "tempo": 120.0
            },
            {
                "start_time": 54.525,
                "end_time": 54.6431818,
                "pitch": 34,
                "velocity": 101,
                "duration": 0.1181818,
                "tempo": 120.0
            },
            {
                "start_time": 54.6431818,
                "end_time": 54.6454545,
                "pitch": 41,
                "velocity": 101,
                "duration": 0.0022727,
                "tempo": 120.0
            },
            {
                "start_time": 54.6454545,
                "end_time": 54.7636364,
                "pitch": 27,
                "velocity": 101,
                "duration": 0.1181818,
                "tempo": 120.0
            },
            {
                "start_time": 54.7636364,
                "end_time": 54.8840909,
                "pitch": 27,
                "velocity": 101,
                "duration": 0.1204545,
                "tempo": 120.0
            },
            {
                "start_time": 54.8840909,
                "end_time": 55.0045455,
                "pitch": 39,
                "velocity": 101,
                "duration": 0.1204545,
                "tempo": 120.0
            },
            {
                "start_time": 55.0045455,
                "end_time": 55.125,
                "pitch": 27,
                "velocity": 101,
                "duration": 0.1204545,
                "tempo": 120.0
            },
            {
                "start_time": 55.125,
                "end_time": 55.2454545,
                "pitch": 30,
                "velocity": 101,
                "duration": 0.1204545,
                "tempo": 120.0
            },
            {
                "start_time": 55.125,
                "end_time": 55.2454545,
                "pitch": 30,
                "velocity": 101,
                "duration": 0.1204545,
                "tempo": 120.0
            },
            {
                "start_time": 55.2454545,
                "end_time": 55.3659091,
                "pitch": 32,
                "velocity": 101,
                "duration": 0.1204545,
                "tempo": 120.0
            },
            {
                "start_time": 55.3659091,
                "end_time": 55.4840909,
                "pitch": 33,
                "velocity": 101,
                "duration": 0.1181818,
                "tempo": 120.0
            },
            {
                "start_time": 55.4840909,
                "end_time": 55.6022727,
                "pitch": 34,
                "velocity": 101,
                "duration": 0.1181818,
                "tempo": 120.0
            },
            {
                "start_time": 55.6022727,
                "end_time": 55.7181818,
                "pitch": 27,
                "velocity": 101,
                "duration": 0.1159091,
                "tempo": 120.0
            },
            {
                "start_time": 55.7181818,
                "end_time": 55.8363636,
                "pitch": 27,
                "velocity": 101,
                "duration": 0.1181818,
                "tempo": 120.0
            },
            {
                "start_time": 55.8363636,
                "end_time": 55.9568182,
                "pitch": 39,
                "velocity": 101,
                "duration": 0.1204545,
                "tempo": 120.0
            },
            {
                "start_time": 55.9568182,
                "end_time": 56.075,
                "pitch": 27,
                "velocity": 101,
                "duration": 0.1181818,
                "tempo": 120.0
            },
            {
                "start_time": 56.075,
                "end_time": 56.1954545,
                "pitch": 30,
                "velocity": 101,
                "duration": 0.1204545,
                "tempo": 120.0
            },
            {
                "start_time": 56.075,
                "end_time": 56.1954545,
                "pitch": 30,
                "velocity": 101,
                "duration": 0.1204545,
                "tempo": 120.0
            },
            {
                "start_time": 56.1954545,
                "end_time": 56.3159091,
                "pitch": 32,
                "velocity": 101,
                "duration": 0.1204545,
                "tempo": 120.0
            },
            {
                "start_time": 56.3159091,
                "end_time": 56.4363636,
                "pitch": 33,
                "velocity": 101,
                "duration": 0.1204545,
                "tempo": 120.0
            },
            {
                "start_time": 56.4363636,
                "end_time": 56.5568182,
                "pitch": 34,
                "velocity": 101,
                "duration": 0.1204545,
                "tempo": 120.0
            },
            {
                "start_time": 55.6022727,
                "end_time": 56.5568182,
                "pitch": 41,
                "velocity": 101,
                "duration": 0.9545455,
                "tempo": 120.0
            },
            {
                "start_time": 56.5568182,
                "end_time": 56.6772727,
                "pitch": 27,
                "velocity": 101,
                "duration": 0.1204545,
                "tempo": 120.0
            },
            {
                "start_time": 56.6772727,
                "end_time": 56.7977273,
                "pitch": 27,
                "velocity": 101,
                "duration": 0.1204545,
                "tempo": 120.0
            },
            {
                "start_time": 56.7977273,
                "end_time": 56.9159091,
                "pitch": 39,
                "velocity": 101,
                "duration": 0.1181818,
                "tempo": 120.0
            },
            {
                "start_time": 56.9159091,
                "end_time": 57.0363636,
                "pitch": 27,
                "velocity": 101,
                "duration": 0.1204545,
                "tempo": 120.0
            },
            {
                "start_time": 57.0363636,
                "end_time": 57.1568182,
                "pitch": 30,
                "velocity": 101,
                "duration": 0.1204545,
                "tempo": 120.0
            },
            {
                "start_time": 57.0363636,
                "end_time": 57.1568182,
                "pitch": 30,
                "velocity": 101,
                "duration": 0.1204545,
                "tempo": 120.0
            },
            {
                "start_time": 57.1568182,
                "end_time": 57.275,
                "pitch": 32,
                "velocity": 101,
                "duration": 0.1181818,
                "tempo": 120.0
            },
            {
                "start_time": 57.275,
                "end_time": 57.3954545,
                "pitch": 33,
                "velocity": 101,
                "duration": 0.1204545,
                "tempo": 120.0
            },
            {
                "start_time": 57.3954545,
                "end_time": 57.5159091,
                "pitch": 34,
                "velocity": 101,
                "duration": 0.1204545,
                "tempo": 120.0
            },
            {
                "start_time": 57.5159091,
                "end_time": 57.6363636,
                "pitch": 34,
                "velocity": 101,
                "duration": 0.1204545,
                "tempo": 120.0
            },
            {
                "start_time": 57.6363636,
                "end_time": 57.7590909,
                "pitch": 34,
                "velocity": 101,
                "duration": 0.1227273,
                "tempo": 120.0
            },
            {
                "start_time": 52.375,
                "end_time": 57.8772727,
                "pitch": 15,
                "velocity": 101,
                "duration": 5.5022727,
                "tempo": 120.0
            },
            {
                "start_time": 57.7590909,
                "end_time": 57.8772727,
                "pitch": 37,
                "velocity": 101,
                "duration": 0.1181818,
                "tempo": 120.0
            },
            {
                "start_time": 57.8772727,
                "end_time": 57.9977273,
                "pitch": 34,
                "velocity": 101,
                "duration": 0.1204545,
                "tempo": 120.0
            },
            {
                "start_time": 56.5568182,
                "end_time": 57.9977273,
                "pitch": 41,
                "velocity": 101,
                "duration": 1.4409091,
                "tempo": 120.0
            },
            {
                "start_time": 57.8772727,
                "end_time": 58.1159091,
                "pitch": 15,
                "velocity": 101,
                "duration": 0.2386364,
                "tempo": 120.0
            },
            {
                "start_time": 57.9977273,
                "end_time": 58.1159091,
                "pitch": 39,
                "velocity": 101,
                "duration": 0.1181818,
                "tempo": 120.0
            },
            {
                "start_time": 58.1159091,
                "end_time": 58.2363636,
                "pitch": 34,
                "velocity": 101,
                "duration": 0.1204545,
                "tempo": 120.0
            },
            {
                "start_time": 57.7590909,
                "end_time": 58.2363636,
                "pitch": 40,
                "velocity": 101,
                "duration": 0.4772727,
                "tempo": 120.0
            },
            {
                "start_time": 58.1159091,
                "end_time": 58.3568182,
                "pitch": 15,
                "velocity": 101,
                "duration": 0.2409091,
                "tempo": 120.0
            },
            {
                "start_time": 58.2363636,
                "end_time": 58.3568182,
                "pitch": 37,
                "velocity": 101,
                "duration": 0.1204545,
                "tempo": 120.0
            },
            {
                "start_time": 58.3568182,
                "end_time": 58.4772727,
                "pitch": 34,
                "velocity": 101,
                "duration": 0.1204545,
                "tempo": 120.0
            },
            {
                "start_time": 58.5977273,
                "end_time": 58.7181818,
                "pitch": 34,
                "velocity": 101,
                "duration": 0.1204545,
                "tempo": 120.0
            },
            {
                "start_time": 58.2363636,
                "end_time": 58.7181818,
                "pitch": 40,
                "velocity": 101,
                "duration": 0.4818182,
                "tempo": 120.0
            },
            {
                "start_time": 58.3568182,
                "end_time": 58.8363636,
                "pitch": 15,
                "velocity": 101,
                "duration": 0.4795455,
                "tempo": 120.0
            },
            {
                "start_time": 58.7181818,
                "end_time": 58.8363636,
                "pitch": 37,
                "velocity": 101,
                "duration": 0.1181818,
                "tempo": 120.0
            },
            {
                "start_time": 58.8363636,
                "end_time": 58.9545455,
                "pitch": 34,
                "velocity": 101,
                "duration": 0.1181818,
                "tempo": 120.0
            },
            {
                "start_time": 57.9977273,
                "end_time": 58.9545455,
                "pitch": 41,
                "velocity": 101,
                "duration": 0.9568182,
                "tempo": 120.0
            },
            {
                "start_time": 58.8363636,
                "end_time": 59.0727273,
                "pitch": 15,
                "velocity": 101,
                "duration": 0.2363636,
                "tempo": 120.0
            },
            {
                "start_time": 58.9545455,
                "end_time": 59.0727273,
                "pitch": 39,
                "velocity": 101,
                "duration": 0.1181818,
                "tempo": 120.0
            },
            {
                "start_time": 59.0727273,
                "end_time": 59.1886364,
                "pitch": 34,
                "velocity": 101,
                "duration": 0.1159091,
                "tempo": 120.0
            },
            {
                "start_time": 59.1886364,
                "end_time": 59.4295455,
                "pitch": 32,
                "velocity": 101,
                "duration": 0.2409091,
                "tempo": 120.0
            },
            {
                "start_time": 59.4295455,
                "end_time": 59.5477273,
                "pitch": 34,
                "velocity": 101,
                "duration": 0.1181818,
                "tempo": 120.0
            },
            {
                "start_time": 59.5477273,
                "end_time": 59.6681818,
                "pitch": 34,
                "velocity": 101,
                "duration": 0.1204545,
                "tempo": 120.0
            },
            {
                "start_time": 58.7181818,
                "end_time": 59.6681818,
                "pitch": 40,
                "velocity": 101,
                "duration": 0.95,
                "tempo": 120.0
            },
            {
                "start_time": 59.0727273,
                "end_time": 59.7886364,
                "pitch": 15,
                "velocity": 101,
                "duration": 0.7159091,
                "tempo": 120.0
            },
            {
                "start_time": 59.6681818,
                "end_time": 59.7886364,
                "pitch": 37,
                "velocity": 101,
                "duration": 0.1204545,
                "tempo": 120.0
            },
            {
                "start_time": 59.7886364,
                "end_time": 59.9090909,
                "pitch": 34,
                "velocity": 101,
                "duration": 0.1204545,
                "tempo": 120.0
            },
            {
                "start_time": 58.9545455,
                "end_time": 59.9090909,
                "pitch": 41,
                "velocity": 101,
                "duration": 0.9545455,
                "tempo": 120.0
            },
            {
                "start_time": 59.7886364,
                "end_time": 60.0295455,
                "pitch": 15,
                "velocity": 101,
                "duration": 0.2409091,
                "tempo": 120.0
            },
            {
                "start_time": 59.9090909,
                "end_time": 60.0295455,
                "pitch": 39,
                "velocity": 101,
                "duration": 0.1204545,
                "tempo": 120.0
            },
            {
                "start_time": 60.0295455,
                "end_time": 60.15,
                "pitch": 34,
                "velocity": 101,
                "duration": 0.1204545,
                "tempo": 120.0
            },
            {
                "start_time": 59.6681818,
                "end_time": 60.15,
                "pitch": 40,
                "velocity": 101,
                "duration": 0.4818182,
                "tempo": 120.0
            },
            {
                "start_time": 60.0295455,
                "end_time": 60.2704545,
                "pitch": 15,
                "velocity": 101,
                "duration": 0.2409091,
                "tempo": 120.0
            },
            {
                "start_time": 60.15,
                "end_time": 60.2704545,
                "pitch": 37,
                "velocity": 101,
                "duration": 0.1204545,
                "tempo": 120.0
            },
            {
                "start_time": 60.2704545,
                "end_time": 60.3886364,
                "pitch": 34,
                "velocity": 101,
                "duration": 0.1181818,
                "tempo": 120.0
            },
            {
                "start_time": 52.7295455,
                "end_time": 60.3886364,
                "pitch": 42,
                "velocity": 101,
                "duration": 7.6590909,
                "tempo": 120.0
            },
            {
                "start_time": 60.3886364,
                "end_time": 60.5090909,
                "pitch": 29,
                "velocity": 101,
                "duration": 0.1204545,
                "tempo": 120.0
            },
            {
                "start_time": 60.5090909,
                "end_time": 60.6295455,
                "pitch": 34,
                "velocity": 101,
                "duration": 0.1204545,
                "tempo": 120.0
            },
            {
                "start_time": 60.15,
                "end_time": 60.6295455,
                "pitch": 40,
                "velocity": 101,
                "duration": 0.4795455,
                "tempo": 120.0
            },
            {
                "start_time": 60.2704545,
                "end_time": 60.75,
                "pitch": 15,
                "velocity": 101,
                "duration": 0.4795455,
                "tempo": 120.0
            },
            {
                "start_time": 60.6295455,
                "end_time": 60.75,
                "pitch": 37,
                "velocity": 101,
                "duration": 0.1204545,
                "tempo": 120.0
            },
            {
                "start_time": 60.75,
                "end_time": 60.8704545,
                "pitch": 34,
                "velocity": 101,
                "duration": 0.1204545,
                "tempo": 120.0
            },
            {
                "start_time": 60.8704545,
                "end_time": 60.9909091,
                "pitch": 37,
                "velocity": 101,
                "duration": 0.1204545,
                "tempo": 120.0
            },
            {
                "start_time": 60.9909091,
                "end_time": 61.1113636,
                "pitch": 39,
                "velocity": 101,
                "duration": 0.1204545,
                "tempo": 120.0
            },
            {
                "start_time": 60.6295455,
                "end_time": 61.2295455,
                "pitch": 40,
                "velocity": 101,
                "duration": 0.6,
                "tempo": 120.0
            },
            {
                "start_time": 61.1113636,
                "end_time": 61.2295455,
                "pitch": 40,
                "velocity": 101,
                "duration": 0.1181818,
                "tempo": 120.0
            },
            {
                "start_time": 59.9090909,
                "end_time": 61.35,
                "pitch": 41,
                "velocity": 101,
                "duration": 1.4409091,
                "tempo": 120.0
            },
            {
                "start_time": 61.2295455,
                "end_time": 61.35,
                "pitch": 41,
                "velocity": 101,
                "duration": 0.1204545,
                "tempo": 120.0
            },
            {
                "start_time": 61.35,
                "end_time": 61.4704545,
                "pitch": 25,
                "velocity": 101,
                "duration": 0.1204545,
                "tempo": 120.0
            },
            {
                "start_time": 61.4704545,
                "end_time": 61.5886364,
                "pitch": 25,
                "velocity": 101,
                "duration": 0.1181818,
                "tempo": 120.0
            },
            {
                "start_time": 61.35,
                "end_time": 61.7068182,
                "pitch": 37,
                "velocity": 101,
                "duration": 0.3568182,
                "tempo": 120.0
            },
            {
                "start_time": 61.5886364,
                "end_time": 61.7068182,
                "pitch": 37,
                "velocity": 101,
                "duration": 0.1181818,
                "tempo": 120.0
            },
            {
                "start_time": 61.7068182,
                "end_time": 61.825,
                "pitch": 25,
                "velocity": 101,
                "duration": 0.1181818,
                "tempo": 120.0
            },
            {
                "start_time": 61.9431818,
                "end_time": 62.0613636,
                "pitch": 25,
                "velocity": 101,
                "duration": 0.1181818,
                "tempo": 120.0
            },
            {
                "start_time": 62.0613636,
                "end_time": 62.1818182,
                "pitch": 37,
                "velocity": 101,
                "duration": 0.1204545,
                "tempo": 120.0
            },
            {
                "start_time": 62.3022727,
                "end_time": 62.4227273,
                "pitch": 27,
                "velocity": 101,
                "duration": 0.1204545,
                "tempo": 120.0
            },
            {
                "start_time": 62.4227273,
                "end_time": 62.5431818,
                "pitch": 27,
                "velocity": 101,
                "duration": 0.1204545,
                "tempo": 120.0
            },
            {
                "start_time": 62.5431818,
                "end_time": 62.6613636,
                "pitch": 39,
                "velocity": 101,
                "duration": 0.1181818,
                "tempo": 120.0
            },
            {
                "start_time": 62.6613636,
                "end_time": 62.7818182,
                "pitch": 27,
                "velocity": 101,
                "duration": 0.1204545,
                "tempo": 120.0
            },
            {
                "start_time": 62.7818182,
                "end_time": 62.9022727,
                "pitch": 30,
                "velocity": 101,
                "duration": 0.1204545,
                "tempo": 120.0
            },
            {
                "start_time": 62.7818182,
                "end_time": 62.9022727,
                "pitch": 30,
                "velocity": 101,
                "duration": 0.1204545,
                "tempo": 120.0
            },
            {
                "start_time": 62.9022727,
                "end_time": 63.0204545,
                "pitch": 32,
                "velocity": 101,
                "duration": 0.1181818,
                "tempo": 120.0
            },
            {
                "start_time": 63.0204545,
                "end_time": 63.1409091,
                "pitch": 33,
                "velocity": 101,
                "duration": 0.1204545,
                "tempo": 120.0
            },
            {
                "start_time": 63.1409091,
                "end_time": 63.2590909,
                "pitch": 34,
                "velocity": 101,
                "duration": 0.1181818,
                "tempo": 120.0
            },
            {
                "start_time": 63.2590909,
                "end_time": 63.3795455,
                "pitch": 34,
                "velocity": 101,
                "duration": 0.1204545,
                "tempo": 120.0
            },
            {
                "start_time": 63.3795455,
                "end_time": 63.5,
                "pitch": 34,
                "velocity": 101,
                "duration": 0.1204545,
                "tempo": 120.0
            },
            {
                "start_time": 63.5,
                "end_time": 63.6204545,
                "pitch": 46,
                "velocity": 101,
                "duration": 0.1204545,
                "tempo": 120.0
            },
            {
                "start_time": 63.6204545,
                "end_time": 63.7409091,
                "pitch": 34,
                "velocity": 101,
                "duration": 0.1204545,
                "tempo": 120.0
            },
            {
                "start_time": 63.8613636,
                "end_time": 63.9818182,
                "pitch": 32,
                "velocity": 101,
                "duration": 0.1204545,
                "tempo": 120.0
            },
            {
                "start_time": 64.1022727,
                "end_time": 64.2204545,
                "pitch": 34,
                "velocity": 101,
                "duration": 0.1181818,
                "tempo": 120.0
            },
            {
                "start_time": 64.2204545,
                "end_time": 64.3409091,
                "pitch": 34,
                "velocity": 101,
                "duration": 0.1204545,
                "tempo": 120.0
            },
            {
                "start_time": 64.3409091,
                "end_time": 64.4590909,
                "pitch": 34,
                "velocity": 101,
                "duration": 0.1181818,
                "tempo": 120.0
            },
            {
                "start_time": 64.4590909,
                "end_time": 64.5795455,
                "pitch": 34,
                "velocity": 101,
                "duration": 0.1204545,
                "tempo": 120.0
            },
            {
                "start_time": 64.5795455,
                "end_time": 64.7022727,
                "pitch": 34,
                "velocity": 101,
                "duration": 0.1227273,
                "tempo": 120.0
            },
            {
                "start_time": 64.7022727,
                "end_time": 64.8227273,
                "pitch": 34,
                "velocity": 101,
                "duration": 0.1204545,
                "tempo": 120.0
            },
            {
                "start_time": 64.8227273,
                "end_time": 64.9431818,
                "pitch": 32,
                "velocity": 101,
                "duration": 0.1204545,
                "tempo": 120.0
            },
            {
                "start_time": 64.9431818,
                "end_time": 65.0590909,
                "pitch": 34,
                "velocity": 101,
                "duration": 0.1159091,
                "tempo": 120.0
            },
            {
                "start_time": 65.0590909,
                "end_time": 65.1772727,
                "pitch": 32,
                "velocity": 101,
                "duration": 0.1181818,
                "tempo": 120.0
            },
            {
                "start_time": 65.1772727,
                "end_time": 65.2954545,
                "pitch": 25,
                "velocity": 101,
                "duration": 0.1181818,
                "tempo": 120.0
            },
            {
                "start_time": 65.2954545,
                "end_time": 65.4136364,
                "pitch": 25,
                "velocity": 101,
                "duration": 0.1181818,
                "tempo": 120.0
            },
            {
                "start_time": 65.4136364,
                "end_time": 65.5340909,
                "pitch": 37,
                "velocity": 101,
                "duration": 0.1204545,
                "tempo": 120.0
            },
            {
                "start_time": 65.5340909,
                "end_time": 65.6545455,
                "pitch": 25,
                "velocity": 101,
                "duration": 0.1204545,
                "tempo": 120.0
            },
            {
                "start_time": 65.775,
                "end_time": 65.8954545,
                "pitch": 25,
                "velocity": 101,
                "duration": 0.1204545,
                "tempo": 120.0
            },
            {
                "start_time": 65.8954545,
                "end_time": 66.0159091,
                "pitch": 37,
                "velocity": 101,
                "duration": 0.1204545,
                "tempo": 120.0
            },
            {
                "start_time": 66.1340909,
                "end_time": 66.2545455,
                "pitch": 27,
                "velocity": 101,
                "duration": 0.1204545,
                "tempo": 120.0
            },
            {
                "start_time": 66.2545455,
                "end_time": 66.375,
                "pitch": 27,
                "velocity": 101,
                "duration": 0.1204545,
                "tempo": 120.0
            },
            {
                "start_time": 66.375,
                "end_time": 66.4954545,
                "pitch": 39,
                "velocity": 101,
                "duration": 0.1204545,
                "tempo": 120.0
            },
            {
                "start_time": 66.4954545,
                "end_time": 66.6159091,
                "pitch": 27,
                "velocity": 101,
                "duration": 0.1204545,
                "tempo": 120.0
            },
            {
                "start_time": 66.6159091,
                "end_time": 66.7363636,
                "pitch": 30,
                "velocity": 101,
                "duration": 0.1204545,
                "tempo": 120.0
            },
            {
                "start_time": 66.7363636,
                "end_time": 66.8568182,
                "pitch": 32,
                "velocity": 101,
                "duration": 0.1204545,
                "tempo": 120.0
            },
            {
                "start_time": 66.8568182,
                "end_time": 66.9772727,
                "pitch": 33,
                "velocity": 101,
                "duration": 0.1204545,
                "tempo": 120.0
            },
            {
                "start_time": 66.9772727,
                "end_time": 67.0977273,
                "pitch": 34,
                "velocity": 101,
                "duration": 0.1204545,
                "tempo": 120.0
            },
            {
                "start_time": 67.0977273,
                "end_time": 67.2181818,
                "pitch": 34,
                "velocity": 101,
                "duration": 0.1204545,
                "tempo": 120.0
            },
            {
                "start_time": 67.2181818,
                "end_time": 67.3386364,
                "pitch": 34,
                "velocity": 101,
                "duration": 0.1204545,
                "tempo": 120.0
            },
            {
                "start_time": 67.3386364,
                "end_time": 67.4590909,
                "pitch": 46,
                "velocity": 101,
                "duration": 0.1204545,
                "tempo": 120.0
            },
            {
                "start_time": 67.4590909,
                "end_time": 67.5795455,
                "pitch": 34,
                "velocity": 101,
                "duration": 0.1204545,
                "tempo": 120.0
            },
            {
                "start_time": 67.7,
                "end_time": 67.8204545,
                "pitch": 32,
                "velocity": 101,
                "duration": 0.1204545,
                "tempo": 120.0
            },
            {
                "start_time": 67.9386364,
                "end_time": 68.0568182,
                "pitch": 34,
                "velocity": 101,
                "duration": 0.1181818,
                "tempo": 120.0
            },
            {
                "start_time": 68.0568182,
                "end_time": 68.175,
                "pitch": 34,
                "velocity": 101,
                "duration": 0.1181818,
                "tempo": 120.0
            },
            {
                "start_time": 68.175,
                "end_time": 68.2909091,
                "pitch": 34,
                "velocity": 101,
                "duration": 0.1159091,
                "tempo": 120.0
            },
            {
                "start_time": 68.2909091,
                "end_time": 68.4113636,
                "pitch": 46,
                "velocity": 101,
                "duration": 0.1204545,
                "tempo": 120.0
            },
            {
                "start_time": 68.4113636,
                "end_time": 68.5318182,
                "pitch": 34,
                "velocity": 101,
                "duration": 0.1204545,
                "tempo": 120.0
            },
            {
                "start_time": 68.65,
                "end_time": 68.7704545,
                "pitch": 34,
                "velocity": 101,
                "duration": 0.1204545,
                "tempo": 120.0
            },
            {
                "start_time": 68.7704545,
                "end_time": 68.8909091,
                "pitch": 46,
                "velocity": 101,
                "duration": 0.1204545,
                "tempo": 120.0
            },
            {
                "start_time": 69.0113636,
                "end_time": 69.1318182,
                "pitch": 35,
                "velocity": 101,
                "duration": 0.1204545,
                "tempo": 120.0
            }
        ],
        "Synth Bass 1": [
            {
                "start_time": 0.0477273,
                "end_time": 0.1477273,
                "pitch": 45,
                "velocity": 101,
                "duration": 0.1,
                "tempo": 120.0
            },
            {
                "start_time": 0.1477273,
                "end_time": 0.2477273,
                "pitch": 45,
                "velocity": 101,
                "duration": 0.1,
                "tempo": 120.0
            },
            {
                "start_time": 0.2477273,
                "end_time": 0.3659091,
                "pitch": 48,
                "velocity": 101,
                "duration": 0.1181818,
                "tempo": 120.0
            },
            {
                "start_time": 0.3659091,
                "end_time": 0.4886364,
                "pitch": 45,
                "velocity": 101,
                "duration": 0.1227273,
                "tempo": 120.0
            },
            {
                "start_time": 0.3659091,
                "end_time": 0.6090909,
                "pitch": 19,
                "velocity": 101,
                "duration": 0.2431818,
                "tempo": 120.0
            },
            {
                "start_time": 0.4886364,
                "end_time": 0.6090909,
                "pitch": 50,
                "velocity": 101,
                "duration": 0.1204545,
                "tempo": 120.0
            },
            {
                "start_time": 0.6090909,
                "end_time": 0.7295455,
                "pitch": 45,
                "velocity": 101,
                "duration": 0.1204545,
                "tempo": 120.0
            },
            {
                "start_time": 0.2477273,
                "end_time": 0.7295455,
                "pitch": 52,
                "velocity": 101,
                "duration": 0.4818182,
                "tempo": 120.0
            },
            {
                "start_time": 0.6090909,
                "end_time": 0.85,
                "pitch": 19,
                "velocity": 101,
                "duration": 0.2409091,
                "tempo": 120.0
            },
            {
                "start_time": 0.7295455,
                "end_time": 0.85,
                "pitch": 48,
                "velocity": 101,
                "duration": 0.1204545,
                "tempo": 120.0
            },
            {
                "start_time": 0.85,
                "end_time": 0.9704545,
                "pitch": 45,
                "velocity": 101,
                "duration": 0.1204545,
                "tempo": 120.0
            },
            {
                "start_time": 1.0909091,
                "end_time": 1.2113636,
                "pitch": 45,
                "velocity": 101,
                "duration": 0.1204545,
                "tempo": 120.0
            },
            {
                "start_time": 0.85,
                "end_time": 1.3295455,
                "pitch": 19,
                "velocity": 101,
                "duration": 0.4795455,
                "tempo": 120.0
            },
            {
                "start_time": 1.2113636,
                "end_time": 1.3295455,
                "pitch": 48,
                "velocity": 101,
                "duration": 0.1181818,
                "tempo": 120.0
            },
            {
                "start_time": 1.3295455,
                "end_time": 1.45,
                "pitch": 45,
                "velocity": 101,
                "duration": 0.1204545,
                "tempo": 120.0
            },
            {
                "start_time": 0.4886364,
                "end_time": 1.45,
                "pitch": 53,
                "velocity": 101,
                "duration": 0.9613636,
                "tempo": 120.0
            },
            {
                "start_time": 1.3295455,
                "end_time": 1.5704545,
                "pitch": 19,
                "velocity": 101,
                "duration": 0.2409091,
                "tempo": 120.0
            },
            {
                "start_time": 1.45,
                "end_time": 1.5704545,
                "pitch": 50,
                "velocity": 101,
                "duration": 0.1204545,
                "tempo": 120.0
            },
            {
                "start_time": 1.5704545,
                "end_time": 1.6886364,
                "pitch": 45,
                "velocity": 101,
                "duration": 0.1181818,
                "tempo": 120.0
            },
            {
                "start_time": 1.6886364,
                "end_time": 1.9295455,
                "pitch": 43,
                "velocity": 101,
                "duration": 0.2409091,
                "tempo": 120.0
            },
            {
                "start_time": 1.9295455,
                "end_time": 2.0477273,
                "pitch": 45,
                "velocity": 101,
                "duration": 0.1181818,
                "tempo": 120.0
            },
            {
                "start_time": 1.9295455,
                "end_time": 2.0477273,
                "pitch": 45,
                "velocity": 101,
                "duration": 0.1181818,
                "tempo": 120.0
            },
            {
                "start_time": 2.0477273,
                "end_time": 2.1681818,
                "pitch": 45,
                "velocity": 101,
                "duration": 0.1204545,
                "tempo": 120.0
            },
            {
                "start_time": 2.1681818,
                "end_time": 2.2886364,
                "pitch": 48,
                "velocity": 101,
                "duration": 0.1204545,
                "tempo": 120.0
            },
            {
                "start_time": 2.2886364,
                "end_time": 2.4090909,
                "pitch": 45,
                "velocity": 101,
                "duration": 0.1204545,
                "tempo": 120.0
            },
            {
                "start_time": 1.45,
                "end_time": 2.4090909,
                "pitch": 53,
                "velocity": 101,
                "duration": 0.9590909,
                "tempo": 120.0
            },
            {
                "start_time": 1.5704545,
                "end_time": 2.5295455,
                "pitch": 19,
                "velocity": 101,
                "duration": 0.9590909,
                "tempo": 120.0
            },
            {
                "start_time": 2.4090909,
                "end_time": 2.5295455,
                "pitch": 50,
                "velocity": 101,
                "duration": 0.1204545,
                "tempo": 120.0
            },
            {
                "start_time": 2.5295455,
                "end_time": 2.65,
                "pitch": 45,
                "velocity": 101,
                "duration": 0.1204545,
                "tempo": 120.0
            },
            {
                "start_time": 2.5295455,
                "end_time": 2.7681818,
                "pitch": 19,
                "velocity": 101,
                "duration": 0.2386364,
                "tempo": 120.0
            },
            {
                "start_time": 2.65,
                "end_time": 2.7681818,
                "pitch": 48,
                "velocity": 101,
                "duration": 0.1181818,
                "tempo": 120.0
            },
            {
                "start_time": 2.7681818,
                "end_time": 2.8863636,
                "pitch": 45,
                "velocity": 101,
                "duration": 0.1181818,
                "tempo": 120.0
            },
            {
                "start_time": 2.8863636,
                "end_time": 3.0022727,
                "pitch": 40,
                "velocity": 101,
                "duration": 0.1159091,
                "tempo": 120.0
            },
            {
                "start_time": 3.0022727,
                "end_time": 3.1204545,
                "pitch": 45,
                "velocity": 101,
                "duration": 0.1181818,
                "tempo": 120.0
            },
            {
                "start_time": 0.7295455,
                "end_time": 3.1204545,
                "pitch": 52,
                "velocity": 101,
                "duration": 2.3909091,
                "tempo": 120.0
            },
            {
                "start_time": 3.1204545,
                "end_time": 3.2409091,
                "pitch": 48,
                "velocity": 101,
                "duration": 0.1204545,
                "tempo": 120.0
            },
            {
                "start_time": 3.2409091,
                "end_time": 3.3590909,
                "pitch": 45,
                "velocity": 101,
                "duration": 0.1181818,
                "tempo": 120.0
            },
            {
                "start_time": 3.1204545,
                "end_time": 3.3613636,
                "pitch": 52,
                "velocity": 101,
                "duration": 0.2409091,
                "tempo": 120.0
            },
            {
                "start_time": 3.3590909,
                "end_time": 3.3613636,
                "pitch": 52,
                "velocity": 101,
                "duration": 0.0022727,
                "tempo": 120.0
            },
            {
                "start_time": 3.3613636,
                "end_time": 3.4795455,
                "pitch": 48,
                "velocity": 101,
                "duration": 0.1181818,
                "tempo": 120.0
            },
            {
                "start_time": 3.4795455,
                "end_time": 3.6,
                "pitch": 50,
                "velocity": 101,
                "duration": 0.1204545,
                "tempo": 120.0
            },
            {
                "start_time": 3.4795455,
                "end_time": 3.6,
                "pitch": 50,
                "velocity": 101,
                "duration": 0.1204545,
                "tempo": 120.0
            },
            {
                "start_time": 3.6,
                "end_time": 3.7181818,
                "pitch": 51,
                "velocity": 101,
                "duration": 0.1181818,
                "tempo": 120.0
            },
            {
                "start_time": 3.7181818,
                "end_time": 3.8386364,
                "pitch": 52,
                "velocity": 101,
                "duration": 0.1204545,
                "tempo": 120.0
            },
            {
                "start_time": 3.8386364,
                "end_time": 3.9590909,
                "pitch": 45,
                "velocity": 101,
                "duration": 0.1204545,
                "tempo": 120.0
            },
            {
                "start_time": 3.9590909,
                "end_time": 4.0772727,
                "pitch": 45,
                "velocity": 101,
                "duration": 0.1181818,
                "tempo": 120.0
            },
            {
                "start_time": 2.7681818,
                "end_time": 4.1977273,
                "pitch": 19,
                "velocity": 101,
                "duration": 1.4295455,
                "tempo": 120.0
            },
            {
                "start_time": 4.0772727,
                "end_time": 4.1977273,
                "pitch": 48,
                "velocity": 101,
                "duration": 0.1204545,
                "tempo": 120.0
            },
            {
                "start_time": 4.1977273,
                "end_time": 4.3181818,
                "pitch": 45,
                "velocity": 101,
                "duration": 0.1204545,
                "tempo": 120.0
            },
            {
                "start_time": 4.1977273,
                "end_time": 4.4363636,
                "pitch": 19,
                "velocity": 101,
                "duration": 0.2386364,
                "tempo": 120.0
            },
            {
                "start_time": 4.3181818,
                "end_time": 4.4363636,
                "pitch": 50,
                "velocity": 101,
                "duration": 0.1181818,
                "tempo": 120.0
            },
            {
                "start_time": 4.4363636,
                "end_time": 4.5568182,
                "pitch": 45,
                "velocity": 101,
                "duration": 0.1204545,
                "tempo": 120.0
            },
            {
                "start_time": 4.0772727,
                "end_time": 4.5568182,
                "pitch": 52,
                "velocity": 101,
                "duration": 0.4795455,
                "tempo": 120.0
            },
            {
                "start_time": 4.4363636,
                "end_time": 4.6772727,
                "pitch": 19,
                "velocity": 101,
                "duration": 0.2409091,
                "tempo": 120.0
            },
            {
                "start_time": 4.5568182,
                "end_time": 4.6772727,
                "pitch": 48,
                "velocity": 101,
                "duration": 0.1204545,
                "tempo": 120.0
            },
            {
                "start_time": 4.6772727,
                "end_time": 4.7977273,
                "pitch": 45,
                "velocity": 101,
                "duration": 0.1204545,
                "tempo": 120.0
            },
            {
                "start_time": 4.9181818,
                "end_time": 5.0386364,
                "pitch": 45,
                "velocity": 101,
                "duration": 0.1204545,
                "tempo": 120.0
            },
            {
                "start_time": 4.5568182,
                "end_time": 5.0386364,
                "pitch": 52,
                "velocity": 101,
                "duration": 0.4818182,
                "tempo": 120.0
            },
            {
                "start_time": 4.6772727,
                "end_time": 5.1590909,
                "pitch": 19,
                "velocity": 101,
                "duration": 0.4818182,
                "tempo": 120.0
            },
            {
                "start_time": 5.0386364,
                "end_time": 5.1590909,
                "pitch": 48,
                "velocity": 101,
                "duration": 0.1204545,
                "tempo": 120.0
            },
            {
                "start_time": 5.1590909,
                "end_time": 5.2772727,
                "pitch": 45,
                "velocity": 101,
                "duration": 0.1181818,
                "tempo": 120.0
            },
            {
                "start_time": 2.4090909,
                "end_time": 5.2795455,
                "pitch": 53,
                "velocity": 101,
                "duration": 2.8704545,
                "tempo": 120.0
            },
            {
                "start_time": 5.2772727,
                "end_time": 5.2795455,
                "pitch": 53,
                "velocity": 101,
                "duration": 0.0022727,
                "tempo": 120.0
            },
            {
                "start_time": 5.1590909,
                "end_time": 5.3977273,
                "pitch": 19,
                "velocity": 101,
                "duration": 0.2386364,
                "tempo": 120.0
            },
            {
                "start_time": 5.2795455,
                "end_time": 5.3977273,
                "pitch": 50,
                "velocity": 101,
                "duration": 0.1181818,
                "tempo": 120.0
            },
            {
                "start_time": 5.3977273,
                "end_time": 5.5181818,
                "pitch": 45,
                "velocity": 101,
                "duration": 0.1204545,
                "tempo": 120.0
            },
            {
                "start_time": 5.5181818,
                "end_time": 5.7522727,
                "pitch": 43,
                "velocity": 101,
                "duration": 0.2340909,
                "tempo": 120.0
            },
            {
                "start_time": 5.5181818,
                "end_time": 5.7522727,
                "pitch": 43,
                "velocity": 101,
                "duration": 0.2340909,
                "tempo": 120.0
            },
            {
                "start_time": 5.7522727,
                "end_time": 5.8704545,
                "pitch": 45,
                "velocity": 101,
                "duration": 0.1181818,
                "tempo": 120.0
            },
            {
                "start_time": 5.7522727,
                "end_time": 5.8704545,
                "pitch": 45,
                "velocity": 101,
                "duration": 0.1181818,
                "tempo": 120.0
            },
            {
                "start_time": 5.8704545,
                "end_time": 5.9886364,
                "pitch": 45,
                "velocity": 101,
                "duration": 0.1181818,
                "tempo": 120.0
            },
            {
                "start_time": 5.0386364,
                "end_time": 5.9886364,
                "pitch": 52,
                "velocity": 101,
                "duration": 0.95,
                "tempo": 120.0
            },
            {
                "start_time": 5.3977273,
                "end_time": 6.1090909,
                "pitch": 19,
                "velocity": 101,
                "duration": 0.7113636,
                "tempo": 120.0
            },
            {
                "start_time": 5.9886364,
                "end_time": 6.1090909,
                "pitch": 48,
                "velocity": 101,
                "duration": 0.1204545,
                "tempo": 120.0
            },
            {
                "start_time": 6.1090909,
                "end_time": 6.2295455,
                "pitch": 45,
                "velocity": 101,
                "duration": 0.1204545,
                "tempo": 120.0
            },
            {
                "start_time": 6.2295455,
                "end_time": 6.35,
                "pitch": 50,
                "velocity": 101,
                "duration": 0.1204545,
                "tempo": 120.0
            },
            {
                "start_time": 6.35,
                "end_time": 6.4704545,
                "pitch": 45,
                "velocity": 101,
                "duration": 0.1204545,
                "tempo": 120.0
            },
            {
                "start_time": 6.1090909,
                "end_time": 6.5909091,
                "pitch": 19,
                "velocity": 101,
                "duration": 0.4818182,
                "tempo": 120.0
            },
            {
                "start_time": 6.4704545,
                "end_time": 6.5909091,
                "pitch": 48,
                "velocity": 101,
                "duration": 0.1204545,
                "tempo": 120.0
            },
            {
                "start_time": 6.5909091,
                "end_time": 6.7090909,
                "pitch": 45,
                "velocity": 101,
                "duration": 0.1181818,
                "tempo": 120.0
            },
            {
                "start_time": 2.8863636,
                "end_time": 6.7090909,
                "pitch": 54,
                "velocity": 101,
                "duration": 3.8227273,
                "tempo": 120.0
            },
            {
                "start_time": 6.7090909,
                "end_time": 6.8295455,
                "pitch": 40,
                "velocity": 101,
                "duration": 0.1204545,
                "tempo": 120.0
            },
            {
                "start_time": 6.8295455,
                "end_time": 6.9477273,
                "pitch": 45,
                "velocity": 101,
                "duration": 0.1181818,
                "tempo": 120.0
            },
            {
                "start_time": 5.9886364,
                "end_time": 6.9477273,
                "pitch": 52,
                "velocity": 101,
                "duration": 0.9590909,
                "tempo": 120.0
            },
            {
                "start_time": 6.5909091,
                "end_time": 7.0681818,
                "pitch": 19,
                "velocity": 101,
                "duration": 0.4772727,
                "tempo": 120.0
            },
            {
                "start_time": 6.9477273,
                "end_time": 7.0681818,
                "pitch": 48,
                "velocity": 101,
                "duration": 0.1204545,
                "tempo": 120.0
            },
            {
                "start_time": 7.0681818,
                "end_time": 7.1886364,
                "pitch": 45,
                "velocity": 101,
                "duration": 0.1204545,
                "tempo": 120.0
            },
            {
                "start_time": 6.9477273,
                "end_time": 7.1886364,
                "pitch": 52,
                "velocity": 101,
                "duration": 0.2409091,
                "tempo": 120.0
            },
            {
                "start_time": 7.1886364,
                "end_time": 7.3113636,
                "pitch": 48,
                "velocity": 101,
                "duration": 0.1227273,
                "tempo": 120.0
            },
            {
                "start_time": 7.3113636,
                "end_time": 7.4318182,
                "pitch": 50,
                "velocity": 101,
                "duration": 0.1204545,
                "tempo": 120.0
            },
            {
                "start_time": 7.4318182,
                "end_time": 7.5522727,
                "pitch": 51,
                "velocity": 101,
                "duration": 0.1204545,
                "tempo": 120.0
            },
            {
                "start_time": 7.1886364,
                "end_time": 7.6727273,
                "pitch": 52,
                "velocity": 101,
                "duration": 0.4840909,
                "tempo": 120.0
            },
            {
                "start_time": 7.5522727,
                "end_time": 7.6727273,
                "pitch": 52,
                "velocity": 101,
                "duration": 0.1204545,
                "tempo": 120.0
            },
            {
                "start_time": 7.6727273,
                "end_time": 7.7931818,
                "pitch": 38,
                "velocity": 101,
                "duration": 0.1204545,
                "tempo": 120.0
            },
            {
                "start_time": 7.7931818,
                "end_time": 7.9136364,
                "pitch": 38,
                "velocity": 101,
                "duration": 0.1204545,
                "tempo": 120.0
            },
            {
                "start_time": 7.9136364,
                "end_time": 8.0318182,
                "pitch": 50,
                "velocity": 101,
                "duration": 0.1181818,
                "tempo": 120.0
            },
            {
                "start_time": 8.0318182,
                "end_time": 8.15,
                "pitch": 38,
                "velocity": 101,
                "duration": 0.1181818,
                "tempo": 120.0
            },
            {
                "start_time": 8.15,
                "end_time": 8.2659091,
                "pitch": 41,
                "velocity": 101,
                "duration": 0.1159091,
                "tempo": 120.0
            },
            {
                "start_time": 8.15,
                "end_time": 8.2659091,
                "pitch": 41,
                "velocity": 101,
                "duration": 0.1159091,
                "tempo": 120.0
            },
            {
                "start_time": 8.2659091,
                "end_time": 8.3840909,
                "pitch": 43,
                "velocity": 101,
                "duration": 0.1181818,
                "tempo": 120.0
            },
            {
                "start_time": 8.3840909,
                "end_time": 8.5068182,
                "pitch": 44,
                "velocity": 101,
                "duration": 0.1227273,
                "tempo": 120.0
            },
            {
                "start_time": 8.5068182,
                "end_time": 8.6295455,
                "pitch": 45,
                "velocity": 101,
                "duration": 0.1227273,
                "tempo": 120.0
            },
            {
                "start_time": 8.6295455,
                "end_time": 8.7522727,
                "pitch": 38,
                "velocity": 101,
                "duration": 0.1227273,
                "tempo": 120.0
            },
            {
                "start_time": 8.7522727,
                "end_time": 8.875,
                "pitch": 38,
                "velocity": 101,
                "duration": 0.1227273,
                "tempo": 120.0
            },
            {
                "start_time": 8.875,
                "end_time": 8.9931818,
                "pitch": 50,
                "velocity": 101,
                "duration": 0.1181818,
                "tempo": 120.0
            },
            {
                "start_time": 8.9931818,
                "end_time": 9.1090909,
                "pitch": 38,
                "velocity": 101,
                "duration": 0.1159091,
                "tempo": 120.0
            },
            {
                "start_time": 9.1090909,
                "end_time": 9.2272727,
                "pitch": 41,
                "velocity": 101,
                "duration": 0.1181818,
                "tempo": 120.0
            },
            {
                "start_time": 9.2272727,
                "end_time": 9.3454545,
                "pitch": 43,
                "velocity": 101,
                "duration": 0.1181818,
                "tempo": 120.0
            },
            {
                "start_time": 9.3454545,
                "end_time": 9.4659091,
                "pitch": 44,
                "velocity": 101,
                "duration": 0.1204545,
                "tempo": 120.0
            },
            {
                "start_time": 9.4659091,
                "end_time": 9.5863636,
                "pitch": 45,
                "velocity": 101,
                "duration": 0.1204545,
                "tempo": 120.0
            },
            {
                "start_time": 9.5863636,
                "end_time": 9.7068182,
                "pitch": 38,
                "velocity": 101,
                "duration": 0.1204545,
                "tempo": 120.0
            },
            {
                "start_time": 9.7068182,
                "end_time": 9.8272727,
                "pitch": 38,
                "velocity": 101,
                "duration": 0.1204545,
                "tempo": 120.0
            },
            {
                "start_time": 9.8272727,
                "end_time": 9.9477273,
                "pitch": 50,
                "velocity": 101,
                "duration": 0.1204545,
                "tempo": 120.0
            },
            {
                "start_time": 9.9477273,
                "end_time": 10.0659091,
                "pitch": 38,
                "velocity": 101,
                "duration": 0.1181818,
                "tempo": 120.0
            },
            {
                "start_time": 10.0659091,
                "end_time": 10.1863636,
                "pitch": 41,
                "velocity": 101,
                "duration": 0.1204545,
                "tempo": 120.0
            },
            {
                "start_time": 10.1863636,
                "end_time": 10.3068182,
                "pitch": 43,
                "velocity": 101,
                "duration": 0.1204545,
                "tempo": 120.0
            },
            {
                "start_time": 10.3068182,
                "end_time": 10.4272727,
                "pitch": 44,
                "velocity": 101,
                "duration": 0.1204545,
                "tempo": 120.0
            },
            {
                "start_time": 10.4272727,
                "end_time": 10.5477273,
                "pitch": 45,
                "velocity": 101,
                "duration": 0.1204545,
                "tempo": 120.0
            },
            {
                "start_time": 6.2295455,
                "end_time": 10.5477273,
                "pitch": 53,
                "velocity": 101,
                "duration": 4.3181818,
                "tempo": 120.0
            },
            {
                "start_time": 10.5477273,
                "end_time": 10.6681818,
                "pitch": 38,
                "velocity": 101,
                "duration": 0.1204545,
                "tempo": 120.0
            },
            {
                "start_time": 10.6681818,
                "end_time": 10.7886364,
                "pitch": 38,
                "velocity": 101,
                "duration": 0.1204545,
                "tempo": 120.0
            },
            {
                "start_time": 10.7886364,
                "end_time": 10.9090909,
                "pitch": 50,
                "velocity": 101,
                "duration": 0.1204545,
                "tempo": 120.0
            },
            {
                "start_time": 10.9090909,
                "end_time": 11.0295455,
                "pitch": 38,
                "velocity": 101,
                "duration": 0.1204545,
                "tempo": 120.0
            },
            {
                "start_time": 11.0295455,
                "end_time": 11.15,
                "pitch": 41,
                "velocity": 101,
                "duration": 0.1204545,
                "tempo": 120.0
            },
            {
                "start_time": 11.15,
                "end_time": 11.2704545,
                "pitch": 43,
                "velocity": 101,
                "duration": 0.1204545,
                "tempo": 120.0
            },
            {
                "start_time": 11.2704545,
                "end_time": 11.3886364,
                "pitch": 44,
                "velocity": 101,
                "duration": 0.1181818,
                "tempo": 120.0
            },
            {
                "start_time": 11.3886364,
                "end_time": 11.5045455,
                "pitch": 45,
                "velocity": 101,
                "duration": 0.1159091,
                "tempo": 120.0
            },
            {
                "start_time": 11.5045455,
                "end_time": 11.6227273,
                "pitch": 45,
                "velocity": 101,
                "duration": 0.1181818,
                "tempo": 120.0
            },
            {
                "start_time": 11.6227273,
                "end_time": 11.7409091,
                "pitch": 45,
                "velocity": 101,
                "duration": 0.1181818,
                "tempo": 120.0
            },
            {
                "start_time": 11.7409091,
                "end_time": 11.8613636,
                "pitch": 48,
                "velocity": 101,
                "duration": 0.1204545,
                "tempo": 120.0
            },
            {
                "start_time": 11.8613636,
                "end_time": 11.9795455,
                "pitch": 45,
                "velocity": 101,
                "duration": 0.1181818,
                "tempo": 120.0
            },
            {
                "start_time": 7.0681818,
                "end_time": 12.1,
                "pitch": 19,
                "velocity": 101,
                "duration": 5.0318182,
                "tempo": 120.0
            },
            {
                "start_time": 11.9795455,
                "end_time": 12.1,
                "pitch": 50,
                "velocity": 101,
                "duration": 0.1204545,
                "tempo": 120.0
            },
            {
                "start_time": 12.1,
                "end_time": 12.2204545,
                "pitch": 45,
                "velocity": 101,
                "duration": 0.1204545,
                "tempo": 120.0
            },
            {
                "start_time": 12.1,
                "end_time": 12.3409091,
                "pitch": 19,
                "velocity": 101,
                "duration": 0.2409091,
                "tempo": 120.0
            },
            {
                "start_time": 12.2204545,
                "end_time": 12.3409091,
                "pitch": 48,
                "velocity": 101,
                "duration": 0.1204545,
                "tempo": 120.0
            },
            {
                "start_time": 12.3409091,
                "end_time": 12.4613636,
                "pitch": 45,
                "velocity": 101,
                "duration": 0.1204545,
                "tempo": 120.0
            },
            {
                "start_time": 12.5818182,
                "end_time": 12.7022727,
                "pitch": 45,
                "velocity": 101,
                "duration": 0.1204545,
                "tempo": 120.0
            },
            {
                "start_time": 12.3409091,
                "end_time": 12.8227273,
                "pitch": 19,
                "velocity": 101,
                "duration": 0.4818182,
                "tempo": 120.0
            },
            {
                "start_time": 12.7022727,
                "end_time": 12.8227273,
                "pitch": 48,
                "velocity": 101,
                "duration": 0.1204545,
                "tempo": 120.0
            },
            {
                "start_time": 12.8227273,
                "end_time": 12.9431818,
                "pitch": 45,
                "velocity": 101,
                "duration": 0.1204545,
                "tempo": 120.0
            },
            {
                "start_time": 10.5477273,
                "end_time": 12.9431818,
                "pitch": 53,
                "velocity": 101,
                "duration": 2.3954545,
                "tempo": 120.0
            },
            {
                "start_time": 12.8227273,
                "end_time": 13.0636364,
                "pitch": 19,
                "velocity": 101,
                "duration": 0.2409091,
                "tempo": 120.0
            },
            {
                "start_time": 12.9431818,
                "end_time": 13.0636364,
                "pitch": 50,
                "velocity": 101,
                "duration": 0.1204545,
                "tempo": 120.0
            },
            {
                "start_time": 13.0636364,
                "end_time": 13.1840909,
                "pitch": 45,
                "velocity": 101,
                "duration": 0.1204545,
                "tempo": 120.0
            },
            {
                "start_time": 13.1840909,
                "end_time": 13.425,
                "pitch": 43,
                "velocity": 101,
                "duration": 0.2409091,
                "tempo": 120.0
            },
            {
                "start_time": 13.425,
                "end_time": 13.5454545,
                "pitch": 45,
                "velocity": 101,
                "duration": 0.1204545,
                "tempo": 120.0
            },
            {
                "start_time": 13.425,
                "end_time": 13.5454545,
                "pitch": 45,
                "velocity": 101,
                "duration": 0.1204545,
                "tempo": 120.0
            },
            {
                "start_time": 13.5454545,
                "end_time": 13.6659091,
                "pitch": 45,
                "velocity": 101,
                "duration": 0.1204545,
                "tempo": 120.0
            },
            {
                "start_time": 11.7409091,
                "end_time": 13.6659091,
                "pitch": 52,
                "velocity": 101,
                "duration": 1.925,
                "tempo": 120.0
            },
            {
                "start_time": 13.0636364,
                "end_time": 13.7863636,
                "pitch": 19,
                "velocity": 101,
                "duration": 0.7227273,
                "tempo": 120.0
            },
            {
                "start_time": 13.6659091,
                "end_time": 13.7863636,
                "pitch": 48,
                "velocity": 101,
                "duration": 0.1204545,
                "tempo": 120.0
            },
            {
                "start_time": 13.7863636,
                "end_time": 13.9068182,
                "pitch": 45,
                "velocity": 101,
                "duration": 0.1204545,
                "tempo": 120.0
            },
            {
                "start_time": 12.9431818,
                "end_time": 13.9068182,
                "pitch": 53,
                "velocity": 101,
                "duration": 0.9636364,
                "tempo": 120.0
            },
            {
                "start_time": 13.7863636,
                "end_time": 14.025,
                "pitch": 19,
                "velocity": 101,
                "duration": 0.2386364,
                "tempo": 120.0
            },
            {
                "start_time": 13.9068182,
                "end_time": 14.025,
                "pitch": 50,
                "velocity": 101,
                "duration": 0.1181818,
                "tempo": 120.0
            },
            {
                "start_time": 14.025,
                "end_time": 14.1454545,
                "pitch": 45,
                "velocity": 101,
                "duration": 0.1204545,
                "tempo": 120.0
            },
            {
                "start_time": 13.6659091,
                "end_time": 14.1454545,
                "pitch": 52,
                "velocity": 101,
                "duration": 0.4795455,
                "tempo": 120.0
            },
            {
                "start_time": 14.1454545,
                "end_time": 14.2659091,
                "pitch": 48,
                "velocity": 101,
                "duration": 0.1204545,
                "tempo": 120.0
            },
            {
                "start_time": 14.2659091,
                "end_time": 14.3863636,
                "pitch": 45,
                "velocity": 101,
                "duration": 0.1204545,
                "tempo": 120.0
            },
            {
                "start_time": 3.0022727,
                "end_time": 14.5068182,
                "pitch": 7,
                "velocity": 101,
                "duration": 11.5045455,
                "tempo": 120.0
            },
            {
                "start_time": 14.3863636,
                "end_time": 14.5068182,
                "pitch": 40,
                "velocity": 101,
                "duration": 0.1204545,
                "tempo": 120.0
            },
            {
                "start_time": 14.5068182,
                "end_time": 14.6272727,
                "pitch": 45,
                "velocity": 101,
                "duration": 0.1204545,
                "tempo": 120.0
            },
            {
                "start_time": 14.1454545,
                "end_time": 14.6272727,
                "pitch": 52,
                "velocity": 101,
                "duration": 0.4818182,
                "tempo": 120.0
            },
            {
                "start_time": 14.6272727,
                "end_time": 14.7477273,
                "pitch": 48,
                "velocity": 101,
                "duration": 0.1204545,
                "tempo": 120.0
            },
            {
                "start_time": 14.7477273,
                "end_time": 14.8681818,
                "pitch": 45,
                "velocity": 101,
                "duration": 0.1204545,
                "tempo": 120.0
            },
            {
                "start_time": 14.6272727,
                "end_time": 14.8681818,
                "pitch": 52,
                "velocity": 101,
                "duration": 0.2409091,
                "tempo": 120.0
            },
            {
                "start_time": 14.8681818,
                "end_time": 14.9886364,
                "pitch": 48,
                "velocity": 101,
                "duration": 0.1204545,
                "tempo": 120.0
            },
            {
                "start_time": 14.9886364,
                "end_time": 15.1090909,
                "pitch": 50,
                "velocity": 101,
                "duration": 0.1204545,
                "tempo": 120.0
            },
            {
                "start_time": 14.9886364,
                "end_time": 15.1090909,
                "pitch": 50,
                "velocity": 101,
                "duration": 0.1204545,
                "tempo": 120.0
            },
            {
                "start_time": 15.1090909,
                "end_time": 15.2272727,
                "pitch": 51,
                "velocity": 101,
                "duration": 0.1181818,
                "tempo": 120.0
            },
            {
                "start_time": 14.8681818,
                "end_time": 15.3454545,
                "pitch": 52,
                "velocity": 101,
                "duration": 0.4772727,
                "tempo": 120.0
            },
            {
                "start_time": 15.2272727,
                "end_time": 15.3454545,
                "pitch": 52,
                "velocity": 101,
                "duration": 0.1181818,
                "tempo": 120.0
            },
            {
                "start_time": 15.3454545,
                "end_time": 15.4613636,
                "pitch": 36,
                "velocity": 101,
                "duration": 0.1159091,
                "tempo": 120.0
            },
            {
                "start_time": 15.4613636,
                "end_time": 15.5795455,
                "pitch": 36,
                "velocity": 101,
                "duration": 0.1181818,
                "tempo": 120.0
            },
            {
                "start_time": 15.3454545,
                "end_time": 15.7,
                "pitch": 48,
                "velocity": 101,
                "duration": 0.3545455,
                "tempo": 120.0
            },
            {
                "start_time": 15.5795455,
                "end_time": 15.7,
                "pitch": 48,
                "velocity": 101,
                "duration": 0.1204545,
                "tempo": 120.0
            },
            {
                "start_time": 15.7,
                "end_time": 15.8204545,
                "pitch": 36,
                "velocity": 101,
                "duration": 0.1204545,
                "tempo": 120.0
            },
            {
                "start_time": 15.9386364,
                "end_time": 16.0590909,
                "pitch": 36,
                "velocity": 101,
                "duration": 0.1204545,
                "tempo": 120.0
            },
            {
                "start_time": 16.0590909,
                "end_time": 16.1795455,
                "pitch": 48,
                "velocity": 101,
                "duration": 0.1204545,
                "tempo": 120.0
            },
            {
                "start_time": 16.3,
                "end_time": 16.4204545,
                "pitch": 38,
                "velocity": 101,
                "duration": 0.1204545,
                "tempo": 120.0
            },
            {
                "start_time": 16.4204545,
                "end_time": 16.5409091,
                "pitch": 38,
                "velocity": 101,
                "duration": 0.1204545,
                "tempo": 120.0
            },
            {
                "start_time": 16.5409091,
                "end_time": 16.6613636,
                "pitch": 50,
                "velocity": 101,
                "duration": 0.1204545,
                "tempo": 120.0
            },
            {
                "start_time": 16.6613636,
                "end_time": 16.7818182,
                "pitch": 38,
                "velocity": 101,
                "duration": 0.1204545,
                "tempo": 120.0
            },
            {
                "start_time": 16.7818182,
                "end_time": 16.9022727,
                "pitch": 41,
                "velocity": 101,
                "duration": 0.1204545,
                "tempo": 120.0
            },
            {
                "start_time": 16.9022727,
                "end_time": 17.0227273,
                "pitch": 43,
                "velocity": 101,
                "duration": 0.1204545,
                "tempo": 120.0
            },
            {
                "start_time": 17.0227273,
                "end_time": 17.1431818,
                "pitch": 44,
                "velocity": 101,
                "duration": 0.1204545,
                "tempo": 120.0
            },
            {
                "start_time": 17.1431818,
                "end_time": 17.2636364,
                "pitch": 45,
                "velocity": 101,
                "duration": 0.1204545,
                "tempo": 120.0
            },
            {
                "start_time": 17.2636364,
                "end_time": 17.3840909,
                "pitch": 45,
                "velocity": 101,
                "duration": 0.1204545,
                "tempo": 120.0
            },
            {
                "start_time": 17.3840909,
                "end_time": 17.5068182,
                "pitch": 45,
                "velocity": 101,
                "duration": 0.1227273,
                "tempo": 120.0
            },
            {
                "start_time": 17.5068182,
                "end_time": 17.6272727,
                "pitch": 57,
                "velocity": 101,
                "duration": 0.1204545,
                "tempo": 120.0
            },
            {
                "start_time": 17.6272727,
                "end_time": 17.7477273,
                "pitch": 45,
                "velocity": 101,
                "duration": 0.1204545,
                "tempo": 120.0
            },
            {
                "start_time": 17.8681818,
                "end_time": 17.9886364,
                "pitch": 43,
                "velocity": 101,
                "duration": 0.1204545,
                "tempo": 120.0
            },
            {
                "start_time": 18.1068182,
                "end_time": 18.2227273,
                "pitch": 45,
                "velocity": 101,
                "duration": 0.1159091,
                "tempo": 120.0
            },
            {
                "start_time": 18.2227273,
                "end_time": 18.3409091,
                "pitch": 45,
                "velocity": 101,
                "duration": 0.1181818,
                "tempo": 120.0
            },
            {
                "start_time": 18.3409091,
                "end_time": 18.4590909,
                "pitch": 45,
                "velocity": 101,
                "duration": 0.1181818,
                "tempo": 120.0
            },
            {
                "start_time": 18.4590909,
                "end_time": 18.5795455,
                "pitch": 45,
                "velocity": 101,
                "duration": 0.1204545,
                "tempo": 120.0
            },
            {
                "start_time": 18.5795455,
                "end_time": 18.7,
                "pitch": 45,
                "velocity": 101,
                "duration": 0.1204545,
                "tempo": 120.0
            },
            {
                "start_time": 18.7,
                "end_time": 18.8204545,
                "pitch": 45,
                "velocity": 101,
                "duration": 0.1204545,
                "tempo": 120.0
            },
            {
                "start_time": 18.8204545,
                "end_time": 18.9409091,
                "pitch": 43,
                "velocity": 101,
                "duration": 0.1204545,
                "tempo": 120.0
            },
            {
                "start_time": 18.9409091,
                "end_time": 19.0613636,
                "pitch": 45,
                "velocity": 101,
                "duration": 0.1204545,
                "tempo": 120.0
            },
            {
                "start_time": 18.9409091,
                "end_time": 19.0613636,
                "pitch": 45,
                "velocity": 101,
                "duration": 0.1204545,
                "tempo": 120.0
            },
            {
                "start_time": 19.0613636,
                "end_time": 19.1818182,
                "pitch": 43,
                "velocity": 101,
                "duration": 0.1204545,
                "tempo": 120.0
            },
            {
                "start_time": 19.0613636,
                "end_time": 19.1818182,
                "pitch": 43,
                "velocity": 101,
                "duration": 0.1204545,
                "tempo": 120.0
            },
            {
                "start_time": 19.1818182,
                "end_time": 19.3022727,
                "pitch": 36,
                "velocity": 101,
                "duration": 0.1204545,
                "tempo": 120.0
            },
            {
                "start_time": 19.3022727,
                "end_time": 19.4227273,
                "pitch": 36,
                "velocity": 101,
                "duration": 0.1204545,
                "tempo": 120.0
            },
            {
                "start_time": 19.4227273,
                "end_time": 19.5431818,
                "pitch": 48,
                "velocity": 101,
                "duration": 0.1204545,
                "tempo": 120.0
            },
            {
                "start_time": 19.5431818,
                "end_time": 19.6659091,
                "pitch": 36,
                "velocity": 101,
                "duration": 0.1227273,
                "tempo": 120.0
            },
            {
                "start_time": 19.7863636,
                "end_time": 19.9068182,
                "pitch": 36,
                "velocity": 101,
                "duration": 0.1204545,
                "tempo": 120.0
            },
            {
                "start_time": 19.9068182,
                "end_time": 20.0272727,
                "pitch": 48,
                "velocity": 101,
                "duration": 0.1204545,
                "tempo": 120.0
            },
            {
                "start_time": 20.1477273,
                "end_time": 20.2681818,
                "pitch": 38,
                "velocity": 101,
                "duration": 0.1204545,
                "tempo": 120.0
            },
            {
                "start_time": 20.2681818,
                "end_time": 20.3886364,
                "pitch": 38,
                "velocity": 101,
                "duration": 0.1204545,
                "tempo": 120.0
            },
            {
                "start_time": 20.3886364,
                "end_time": 20.5090909,
                "pitch": 50,
                "velocity": 101,
                "duration": 0.1204545,
                "tempo": 120.0
            },
            {
                "start_time": 20.5090909,
                "end_time": 20.6272727,
                "pitch": 38,
                "velocity": 101,
                "duration": 0.1181818,
                "tempo": 120.0
            },
            {
                "start_time": 20.6272727,
                "end_time": 20.7477273,
                "pitch": 41,
                "velocity": 101,
                "duration": 0.1204545,
                "tempo": 120.0
            },
            {
                "start_time": 20.6272727,
                "end_time": 20.7477273,
                "pitch": 41,
                "velocity": 101,
                "duration": 0.1204545,
                "tempo": 120.0
            },
            {
                "start_time": 20.7477273,
                "end_time": 20.8659091,
                "pitch": 43,
                "velocity": 101,
                "duration": 0.1181818,
                "tempo": 120.0
            },
            {
                "start_time": 20.8659091,
                "end_time": 20.9840909,
                "pitch": 44,
                "velocity": 101,
                "duration": 0.1181818,
                "tempo": 120.0
            },
            {
                "start_time": 20.9840909,
                "end_time": 21.1022727,
                "pitch": 45,
                "velocity": 101,
                "duration": 0.1181818,
                "tempo": 120.0
            },
            {
                "start_time": 21.1022727,
                "end_time": 21.2204545,
                "pitch": 45,
                "velocity": 101,
                "duration": 0.1181818,
                "tempo": 120.0
            },
            {
                "start_time": 21.2204545,
                "end_time": 21.3386364,
                "pitch": 45,
                "velocity": 101,
                "duration": 0.1181818,
                "tempo": 120.0
            },
            {
                "start_time": 21.3386364,
                "end_time": 21.4590909,
                "pitch": 57,
                "velocity": 101,
                "duration": 0.1204545,
                "tempo": 120.0
            },
            {
                "start_time": 21.4590909,
                "end_time": 21.5795455,
                "pitch": 45,
                "velocity": 101,
                "duration": 0.1204545,
                "tempo": 120.0
            },
            {
                "start_time": 21.7,
                "end_time": 21.8204545,
                "pitch": 43,
                "velocity": 101,
                "duration": 0.1204545,
                "tempo": 120.0
            },
            {
                "start_time": 21.9386364,
                "end_time": 22.0590909,
                "pitch": 45,
                "velocity": 101,
                "duration": 0.1204545,
                "tempo": 120.0
            },
            {
                "start_time": 22.0590909,
                "end_time": 22.1795455,
                "pitch": 45,
                "velocity": 101,
                "duration": 0.1204545,
                "tempo": 120.0
            },
            {
                "start_time": 22.1795455,
                "end_time": 22.2977273,
                "pitch": 45,
                "velocity": 101,
                "duration": 0.1181818,
                "tempo": 120.0
            },
            {
                "start_time": 22.2977273,
                "end_time": 22.4181818,
                "pitch": 57,
                "velocity": 101,
                "duration": 0.1204545,
                "tempo": 120.0
            },
            {
                "start_time": 22.4181818,
                "end_time": 22.5386364,
                "pitch": 45,
                "velocity": 101,
                "duration": 0.1204545,
                "tempo": 120.0
            },
            {
                "start_time": 22.6590909,
                "end_time": 22.7795455,
                "pitch": 45,
                "velocity": 101,
                "duration": 0.1204545,
                "tempo": 120.0
            },
            {
                "start_time": 22.7795455,
                "end_time": 22.9022727,
                "pitch": 45,
                "velocity": 101,
                "duration": 0.1227273,
                "tempo": 120.0
            },
            {
                "start_time": 23.0204545,
                "end_time": 23.1409091,
                "pitch": 47,
                "velocity": 101,
                "duration": 0.1204545,
                "tempo": 120.0
            },
            {
                "start_time": 23.1409091,
                "end_time": 23.2636364,
                "pitch": 47,
                "velocity": 101,
                "duration": 0.1227273,
                "tempo": 120.0
            },
            {
                "start_time": 23.2636364,
                "end_time": 23.3840909,
                "pitch": 50,
                "velocity": 101,
                "duration": 0.1204545,
                "tempo": 120.0
            },
            {
                "start_time": 23.3840909,
                "end_time": 23.5045455,
                "pitch": 47,
                "velocity": 101,
                "duration": 0.1204545,
                "tempo": 120.0
            },
            {
                "start_time": 23.3840909,
                "end_time": 23.625,
                "pitch": 32,
                "velocity": 101,
                "duration": 0.2409091,
                "tempo": 120.0
            },
            {
                "start_time": 23.5045455,
                "end_time": 23.625,
                "pitch": 52,
                "velocity": 101,
                "duration": 0.1204545,
                "tempo": 120.0
            },
            {
                "start_time": 23.625,
                "end_time": 23.7454545,
                "pitch": 47,
                "velocity": 101,
                "duration": 0.1204545,
                "tempo": 120.0
            },
            {
                "start_time": 13.9068182,
                "end_time": 23.7454545,
                "pitch": 53,
                "velocity": 101,
                "duration": 9.8386364,
                "tempo": 120.0
            },
            {
                "start_time": 23.625,
                "end_time": 23.8636364,
                "pitch": 32,
                "velocity": 101,
                "duration": 0.2386364,
                "tempo": 120.0
            },
            {
                "start_time": 23.7454545,
                "end_time": 23.8636364,
                "pitch": 50,
                "velocity": 101,
                "duration": 0.1181818,
                "tempo": 120.0
            },
            {
                "start_time": 23.8636364,
                "end_time": 23.9795455,
                "pitch": 47,
                "velocity": 101,
                "duration": 0.1159091,
                "tempo": 120.0
            },
            {
                "start_time": 24.0977273,
                "end_time": 24.2159091,
                "pitch": 47,
                "velocity": 101,
                "duration": 0.1181818,
                "tempo": 120.0
            },
            {
                "start_time": 23.7454545,
                "end_time": 24.2159091,
                "pitch": 53,
                "velocity": 101,
                "duration": 0.4704545,
                "tempo": 120.0
            },
            {
                "start_time": 23.8636364,
                "end_time": 24.3363636,
                "pitch": 32,
                "velocity": 101,
                "duration": 0.4727273,
                "tempo": 120.0
            },
            {
                "start_time": 24.2159091,
                "end_time": 24.3363636,
                "pitch": 50,
                "velocity": 101,
                "duration": 0.1204545,
                "tempo": 120.0
            },
            {
                "start_time": 24.3363636,
                "end_time": 24.4568182,
                "pitch": 47,
                "velocity": 101,
                "duration": 0.1204545,
                "tempo": 120.0
            },
            {
                "start_time": 6.7090909,
                "end_time": 24.4568182,
                "pitch": 54,
                "velocity": 101,
                "duration": 17.7477273,
                "tempo": 120.0
            },
            {
                "start_time": 24.4568182,
                "end_time": 24.5772727,
                "pitch": 52,
                "velocity": 101,
                "duration": 0.1204545,
                "tempo": 120.0
            },
            {
                "start_time": 24.5772727,
                "end_time": 24.6977273,
                "pitch": 47,
                "velocity": 101,
                "duration": 0.1204545,
                "tempo": 120.0
            },
            {
                "start_time": 24.6977273,
                "end_time": 24.9386364,
                "pitch": 45,
                "velocity": 101,
                "duration": 0.2409091,
                "tempo": 120.0
            },
            {
                "start_time": 24.6977273,
                "end_time": 24.9386364,
                "pitch": 45,
                "velocity": 101,
                "duration": 0.2409091,
                "tempo": 120.0
            },
            {
                "start_time": 24.9386364,
                "end_time": 25.0590909,
                "pitch": 47,
                "velocity": 101,
                "duration": 0.1204545,
                "tempo": 120.0
            },
            {
                "start_time": 25.0590909,
                "end_time": 25.1795455,
                "pitch": 47,
                "velocity": 101,
                "duration": 0.1204545,
                "tempo": 120.0
            },
            {
                "start_time": 24.2159091,
                "end_time": 25.1795455,
                "pitch": 53,
                "velocity": 101,
                "duration": 0.9636364,
                "tempo": 120.0
            },
            {
                "start_time": 24.3363636,
                "end_time": 25.3,
                "pitch": 32,
                "velocity": 101,
                "duration": 0.9636364,
                "tempo": 120.0
            },
            {
                "start_time": 25.1795455,
                "end_time": 25.3,
                "pitch": 50,
                "velocity": 101,
                "duration": 0.1204545,
                "tempo": 120.0
            },
            {
                "start_time": 25.3,
                "end_time": 25.4204545,
                "pitch": 47,
                "velocity": 101,
                "duration": 0.1204545,
                "tempo": 120.0
            },
            {
                "start_time": 24.4568182,
                "end_time": 25.4204545,
                "pitch": 54,
                "velocity": 101,
                "duration": 0.9636364,
                "tempo": 120.0
            },
            {
                "start_time": 25.4204545,
                "end_time": 25.5431818,
                "pitch": 52,
                "velocity": 101,
                "duration": 0.1227273,
                "tempo": 120.0
            },
            {
                "start_time": 25.5431818,
                "end_time": 25.6636364,
                "pitch": 47,
                "velocity": 101,
                "duration": 0.1204545,
                "tempo": 120.0
            },
            {
                "start_time": 25.1795455,
                "end_time": 25.6636364,
                "pitch": 53,
                "velocity": 101,
                "duration": 0.4840909,
                "tempo": 120.0
            },
            {
                "start_time": 25.3,
                "end_time": 25.7840909,
                "pitch": 32,
                "velocity": 101,
                "duration": 0.4840909,
                "tempo": 120.0
            },
            {
                "start_time": 25.6636364,
                "end_time": 25.7840909,
                "pitch": 50,
                "velocity": 101,
                "duration": 0.1204545,
                "tempo": 120.0
            },
            {
                "start_time": 25.7840909,
                "end_time": 25.9045455,
                "pitch": 47,
                "velocity": 101,
                "duration": 0.1204545,
                "tempo": 120.0
            },
            {
                "start_time": 25.4204545,
                "end_time": 25.9045455,
                "pitch": 54,
                "velocity": 101,
                "duration": 0.4840909,
                "tempo": 120.0
            },
            {
                "start_time": 25.9045455,
                "end_time": 26.025,
                "pitch": 42,
                "velocity": 101,
                "duration": 0.1204545,
                "tempo": 120.0
            },
            {
                "start_time": 26.025,
                "end_time": 26.1454545,
                "pitch": 47,
                "velocity": 101,
                "duration": 0.1204545,
                "tempo": 120.0
            },
            {
                "start_time": 25.6636364,
                "end_time": 26.1454545,
                "pitch": 53,
                "velocity": 101,
                "duration": 0.4818182,
                "tempo": 120.0
            },
            {
                "start_time": 25.7840909,
                "end_time": 26.2659091,
                "pitch": 32,
                "velocity": 101,
                "duration": 0.4818182,
                "tempo": 120.0
            },
            {
                "start_time": 26.1454545,
                "end_time": 26.2659091,
                "pitch": 50,
                "velocity": 101,
                "duration": 0.1204545,
                "tempo": 120.0
            },
            {
                "start_time": 26.2659091,
                "end_time": 26.3863636,
                "pitch": 47,
                "velocity": 101,
                "duration": 0.1204545,
                "tempo": 120.0
            },
            {
                "start_time": 26.1454545,
                "end_time": 26.3863636,
                "pitch": 53,
                "velocity": 101,
                "duration": 0.2409091,
                "tempo": 120.0
            },
            {
                "start_time": 26.3863636,
                "end_time": 26.5068182,
                "pitch": 50,
                "velocity": 101,
                "duration": 0.1204545,
                "tempo": 120.0
            },
            {
                "start_time": 26.5068182,
                "end_time": 26.6272727,
                "pitch": 52,
                "velocity": 101,
                "duration": 0.1204545,
                "tempo": 120.0
            },
            {
                "start_time": 26.3863636,
                "end_time": 26.7477273,
                "pitch": 53,
                "velocity": 101,
                "duration": 0.3613636,
                "tempo": 120.0
            },
            {
                "start_time": 26.6272727,
                "end_time": 26.7477273,
                "pitch": 53,
                "velocity": 101,
                "duration": 0.1204545,
                "tempo": 120.0
            },
            {
                "start_time": 25.9045455,
                "end_time": 26.8681818,
                "pitch": 54,
                "velocity": 101,
                "duration": 0.9636364,
                "tempo": 120.0
            },
            {
                "start_time": 26.7477273,
                "end_time": 26.8681818,
                "pitch": 54,
                "velocity": 101,
                "duration": 0.1204545,
                "tempo": 120.0
            },
            {
                "start_time": 26.8681818,
                "end_time": 26.9886364,
                "pitch": 40,
                "velocity": 101,
                "duration": 0.1204545,
                "tempo": 120.0
            },
            {
                "start_time": 26.9886364,
                "end_time": 27.1090909,
                "pitch": 40,
                "velocity": 101,
                "duration": 0.1204545,
                "tempo": 120.0
            },
            {
                "start_time": 26.8681818,
                "end_time": 27.2272727,
                "pitch": 52,
                "velocity": 101,
                "duration": 0.3590909,
                "tempo": 120.0
            },
            {
                "start_time": 27.1090909,
                "end_time": 27.2272727,
                "pitch": 52,
                "velocity": 101,
                "duration": 0.1181818,
                "tempo": 120.0
            },
            {
                "start_time": 27.2272727,
                "end_time": 27.3454545,
                "pitch": 40,
                "velocity": 101,
                "duration": 0.1181818,
                "tempo": 120.0
            },
            {
                "start_time": 27.3454545,
                "end_time": 27.4636364,
                "pitch": 43,
                "velocity": 101,
                "duration": 0.1181818,
                "tempo": 120.0
            },
            {
                "start_time": 27.4636364,
                "end_time": 27.5818182,
                "pitch": 45,
                "velocity": 101,
                "duration": 0.1181818,
                "tempo": 120.0
            },
            {
                "start_time": 27.4636364,
                "end_time": 27.5818182,
                "pitch": 45,
                "velocity": 101,
                "duration": 0.1181818,
                "tempo": 120.0
            },
            {
                "start_time": 27.5818182,
                "end_time": 27.7022727,
                "pitch": 46,
                "velocity": 101,
                "duration": 0.1204545,
                "tempo": 120.0
            },
            {
                "start_time": 27.7022727,
                "end_time": 27.8227273,
                "pitch": 47,
                "velocity": 101,
                "duration": 0.1204545,
                "tempo": 120.0
            },
            {
                "start_time": 27.8227273,
                "end_time": 27.9431818,
                "pitch": 40,
                "velocity": 101,
                "duration": 0.1204545,
                "tempo": 120.0
            },
            {
                "start_time": 27.9431818,
                "end_time": 28.0636364,
                "pitch": 40,
                "velocity": 101,
                "duration": 0.1204545,
                "tempo": 120.0
            },
            {
                "start_time": 28.0636364,
                "end_time": 28.1840909,
                "pitch": 52,
                "velocity": 101,
                "duration": 0.1204545,
                "tempo": 120.0
            },
            {
                "start_time": 28.1840909,
                "end_time": 28.3045455,
                "pitch": 40,
                "velocity": 101,
                "duration": 0.1204545,
                "tempo": 120.0
            },
            {
                "start_time": 28.3045455,
                "end_time": 28.425,
                "pitch": 43,
                "velocity": 101,
                "duration": 0.1204545,
                "tempo": 120.0
            },
            {
                "start_time": 28.425,
                "end_time": 28.5454545,
                "pitch": 45,
                "velocity": 101,
                "duration": 0.1204545,
                "tempo": 120.0
            },
            {
                "start_time": 28.425,
                "end_time": 28.5454545,
                "pitch": 45,
                "velocity": 101,
                "duration": 0.1204545,
                "tempo": 120.0
            },
            {
                "start_time": 28.5454545,
                "end_time": 28.6659091,
                "pitch": 46,
                "velocity": 101,
                "duration": 0.1204545,
                "tempo": 120.0
            },
            {
                "start_time": 28.6659091,
                "end_time": 28.7863636,
                "pitch": 47,
                "velocity": 101,
                "duration": 0.1204545,
                "tempo": 120.0
            },
            {
                "start_time": 28.7863636,
                "end_time": 28.9068182,
                "pitch": 40,
                "velocity": 101,
                "duration": 0.1204545,
                "tempo": 120.0
            },
            {
                "start_time": 28.9068182,
                "end_time": 29.0272727,
                "pitch": 40,
                "velocity": 101,
                "duration": 0.1204545,
                "tempo": 120.0
            },
            {
                "start_time": 29.0272727,
                "end_time": 29.1477273,
                "pitch": 52,
                "velocity": 101,
                "duration": 0.1204545,
                "tempo": 120.0
            },
            {
                "start_time": 29.1477273,
                "end_time": 29.2681818,
                "pitch": 40,
                "velocity": 101,
                "duration": 0.1204545,
                "tempo": 120.0
            },
            {
                "start_time": 29.2681818,
                "end_time": 29.3886364,
                "pitch": 43,
                "velocity": 101,
                "duration": 0.1204545,
                "tempo": 120.0
            },
            {
                "start_time": 29.3886364,
                "end_time": 29.5090909,
                "pitch": 45,
                "velocity": 101,
                "duration": 0.1204545,
                "tempo": 120.0
            },
            {
                "start_time": 29.3886364,
                "end_time": 29.5090909,
                "pitch": 45,
                "velocity": 101,
                "duration": 0.1204545,
                "tempo": 120.0
            },
            {
                "start_time": 29.5090909,
                "end_time": 29.6295455,
                "pitch": 46,
                "velocity": 101,
                "duration": 0.1204545,
                "tempo": 120.0
            },
            {
                "start_time": 29.6295455,
                "end_time": 29.75,
                "pitch": 47,
                "velocity": 101,
                "duration": 0.1204545,
                "tempo": 120.0
            },
            {
                "start_time": 29.75,
                "end_time": 29.8681818,
                "pitch": 40,
                "velocity": 101,
                "duration": 0.1181818,
                "tempo": 120.0
            },
            {
                "start_time": 29.8681818,
                "end_time": 29.9886364,
                "pitch": 40,
                "velocity": 101,
                "duration": 0.1204545,
                "tempo": 120.0
            },
            {
                "start_time": 29.9886364,
                "end_time": 30.1045455,
                "pitch": 52,
                "velocity": 101,
                "duration": 0.1159091,
                "tempo": 120.0
            },
            {
                "start_time": 30.1045455,
                "end_time": 30.2227273,
                "pitch": 40,
                "velocity": 101,
                "duration": 0.1181818,
                "tempo": 120.0
            },
            {
                "start_time": 30.2227273,
                "end_time": 30.3409091,
                "pitch": 43,
                "velocity": 101,
                "duration": 0.1181818,
                "tempo": 120.0
            },
            {
                "start_time": 30.3409091,
                "end_time": 30.4590909,
                "pitch": 45,
                "velocity": 101,
                "duration": 0.1181818,
                "tempo": 120.0
            },
            {
                "start_time": 30.4590909,
                "end_time": 30.5795455,
                "pitch": 46,
                "velocity": 101,
                "duration": 0.1204545,
                "tempo": 120.0
            },
            {
                "start_time": 30.5795455,
                "end_time": 30.7,
                "pitch": 47,
                "velocity": 101,
                "duration": 0.1204545,
                "tempo": 120.0
            },
            {
                "start_time": 30.7,
                "end_time": 30.8204545,
                "pitch": 47,
                "velocity": 101,
                "duration": 0.1204545,
                "tempo": 120.0
            },
            {
                "start_time": 30.8204545,
                "end_time": 30.9409091,
                "pitch": 47,
                "velocity": 101,
                "duration": 0.1204545,
                "tempo": 120.0
            },
            {
                "start_time": 30.9409091,
                "end_time": 31.0613636,
                "pitch": 50,
                "velocity": 101,
                "duration": 0.1204545,
                "tempo": 120.0
            },
            {
                "start_time": 31.0613636,
                "end_time": 31.1818182,
                "pitch": 47,
                "velocity": 101,
                "duration": 0.1204545,
                "tempo": 120.0
            },
            {
                "start_time": 26.2659091,
                "end_time": 31.3022727,
                "pitch": 32,
                "velocity": 101,
                "duration": 5.0363636,
                "tempo": 120.0
            },
            {
                "start_time": 31.1818182,
                "end_time": 31.3022727,
                "pitch": 52,
                "velocity": 101,
                "duration": 0.1204545,
                "tempo": 120.0
            },
            {
                "start_time": 31.3022727,
                "end_time": 31.4227273,
                "pitch": 47,
                "velocity": 101,
                "duration": 0.1204545,
                "tempo": 120.0
            },
            {
                "start_time": 30.9409091,
                "end_time": 31.4227273,
                "pitch": 53,
                "velocity": 101,
                "duration": 0.4818182,
                "tempo": 120.0
            },
            {
                "start_time": 31.4227273,
                "end_time": 31.5431818,
                "pitch": 50,
                "velocity": 101,
                "duration": 0.1204545,
                "tempo": 120.0
            },
            {
                "start_time": 31.5431818,
                "end_time": 31.6636364,
                "pitch": 47,
                "velocity": 101,
                "duration": 0.1204545,
                "tempo": 120.0
            },
            {
                "start_time": 31.7818182,
                "end_time": 31.9022727,
                "pitch": 47,
                "velocity": 101,
                "duration": 0.1204545,
                "tempo": 120.0
            },
            {
                "start_time": 31.4227273,
                "end_time": 31.9022727,
                "pitch": 53,
                "velocity": 101,
                "duration": 0.4795455,
                "tempo": 120.0
            },
            {
                "start_time": 31.3022727,
                "end_time": 32.0227273,
                "pitch": 32,
                "velocity": 101,
                "duration": 0.7204545,
                "tempo": 120.0
            },
            {
                "start_time": 31.9022727,
                "end_time": 32.0227273,
                "pitch": 50,
                "velocity": 101,
                "duration": 0.1204545,
                "tempo": 120.0
            },
            {
                "start_time": 32.0227273,
                "end_time": 32.1431818,
                "pitch": 47,
                "velocity": 101,
                "duration": 0.1204545,
                "tempo": 120.0
            },
            {
                "start_time": 27.8227273,
                "end_time": 32.1431818,
                "pitch": 54,
                "velocity": 101,
                "duration": 4.3204545,
                "tempo": 120.0
            },
            {
                "start_time": 32.0227273,
                "end_time": 32.2636364,
                "pitch": 32,
                "velocity": 101,
                "duration": 0.2409091,
                "tempo": 120.0
            },
            {
                "start_time": 32.1431818,
                "end_time": 32.2636364,
                "pitch": 52,
                "velocity": 101,
                "duration": 0.1204545,
                "tempo": 120.0
            },
            {
                "start_time": 32.2636364,
                "end_time": 32.3840909,
                "pitch": 47,
                "velocity": 101,
                "duration": 0.1204545,
                "tempo": 120.0
            },
            {
                "start_time": 32.3840909,
                "end_time": 32.625,
                "pitch": 45,
                "velocity": 101,
                "duration": 0.2409091,
                "tempo": 120.0
            },
            {
                "start_time": 32.625,
                "end_time": 32.7454545,
                "pitch": 47,
                "velocity": 101,
                "duration": 0.1204545,
                "tempo": 120.0
            },
            {
                "start_time": 32.625,
                "end_time": 32.7454545,
                "pitch": 47,
                "velocity": 101,
                "duration": 0.1204545,
                "tempo": 120.0
            },
            {
                "start_time": 32.7454545,
                "end_time": 32.8659091,
                "pitch": 47,
                "velocity": 101,
                "duration": 0.1204545,
                "tempo": 120.0
            },
            {
                "start_time": 31.9022727,
                "end_time": 32.8659091,
                "pitch": 53,
                "velocity": 101,
                "duration": 0.9636364,
                "tempo": 120.0
            },
            {
                "start_time": 32.2636364,
                "end_time": 32.9863636,
                "pitch": 32,
                "velocity": 101,
                "duration": 0.7227273,
                "tempo": 120.0
            },
            {
                "start_time": 32.8659091,
                "end_time": 32.9863636,
                "pitch": 50,
                "velocity": 101,
                "duration": 0.1204545,
                "tempo": 120.0
            },
            {
                "start_time": 32.9863636,
                "end_time": 33.1068182,
                "pitch": 47,
                "velocity": 101,
                "duration": 0.1204545,
                "tempo": 120.0
            },
            {
                "start_time": 32.1431818,
                "end_time": 33.1068182,
                "pitch": 54,
                "velocity": 101,
                "duration": 0.9636364,
                "tempo": 120.0
            },
            {
                "start_time": 33.1068182,
                "end_time": 33.2272727,
                "pitch": 52,
                "velocity": 101,
                "duration": 0.1204545,
                "tempo": 120.0
            },
            {
                "start_time": 32.9863636,
                "end_time": 33.2295455,
                "pitch": 32,
                "velocity": 101,
                "duration": 0.2431818,
                "tempo": 120.0
            },
            {
                "start_time": 33.2272727,
                "end_time": 33.2295455,
                "pitch": 32,
                "velocity": 101,
                "duration": 0.0022727,
                "tempo": 120.0
            },
            {
                "start_time": 33.2295455,
                "end_time": 33.35,
                "pitch": 47,
                "velocity": 101,
                "duration": 0.1204545,
                "tempo": 120.0
            },
            {
                "start_time": 33.35,
                "end_time": 33.4681818,
                "pitch": 50,
                "velocity": 101,
                "duration": 0.1181818,
                "tempo": 120.0
            },
            {
                "start_time": 33.4681818,
                "end_time": 33.5886364,
                "pitch": 47,
                "velocity": 101,
                "duration": 0.1204545,
                "tempo": 120.0
            },
            {
                "start_time": 33.5886364,
                "end_time": 33.7068182,
                "pitch": 42,
                "velocity": 101,
                "duration": 0.1181818,
                "tempo": 120.0
            },
            {
                "start_time": 33.7068182,
                "end_time": 33.8272727,
                "pitch": 47,
                "velocity": 101,
                "duration": 0.1204545,
                "tempo": 120.0
            },
            {
                "start_time": 32.8659091,
                "end_time": 33.8272727,
                "pitch": 53,
                "velocity": 101,
                "duration": 0.9613636,
                "tempo": 120.0
            },
            {
                "start_time": 33.8272727,
                "end_time": 33.9454545,
                "pitch": 50,
                "velocity": 101,
                "duration": 0.1181818,
                "tempo": 120.0
            },
            {
                "start_time": 33.9454545,
                "end_time": 34.0636364,
                "pitch": 47,
                "velocity": 101,
                "duration": 0.1181818,
                "tempo": 120.0
            },
            {
                "start_time": 33.8272727,
                "end_time": 34.0636364,
                "pitch": 53,
                "velocity": 101,
                "duration": 0.2363636,
                "tempo": 120.0
            },
            {
                "start_time": 34.0636364,
                "end_time": 34.1818182,
                "pitch": 50,
                "velocity": 101,
                "duration": 0.1181818,
                "tempo": 120.0
            },
            {
                "start_time": 34.1818182,
                "end_time": 34.2977273,
                "pitch": 52,
                "velocity": 101,
                "duration": 0.1159091,
                "tempo": 120.0
            },
            {
                "start_time": 34.0636364,
                "end_time": 34.4181818,
                "pitch": 53,
                "velocity": 101,
                "duration": 0.3545455,
                "tempo": 120.0
            },
            {
                "start_time": 34.2977273,
                "end_time": 34.4181818,
                "pitch": 53,
                "velocity": 101,
                "duration": 0.1204545,
                "tempo": 120.0
            },
            {
                "start_time": 33.1068182,
                "end_time": 34.5386364,
                "pitch": 54,
                "velocity": 101,
                "duration": 1.4318182,
                "tempo": 120.0
            },
            {
                "start_time": 34.4181818,
                "end_time": 34.5386364,
                "pitch": 54,
                "velocity": 101,
                "duration": 0.1204545,
                "tempo": 120.0
            },
            {
                "start_time": 34.5386364,
                "end_time": 34.6590909,
                "pitch": 38,
                "velocity": 101,
                "duration": 0.1204545,
                "tempo": 120.0
            },
            {
                "start_time": 34.6590909,
                "end_time": 34.7795455,
                "pitch": 38,
                "velocity": 101,
                "duration": 0.1204545,
                "tempo": 120.0
            },
            {
                "start_time": 34.5386364,
                "end_time": 34.9,
                "pitch": 50,
                "velocity": 101,
                "duration": 0.3613636,
                "tempo": 120.0
            },
            {
                "start_time": 34.7795455,
                "end_time": 34.9,
                "pitch": 50,
                "velocity": 101,
                "duration": 0.1204545,
                "tempo": 120.0
            },
            {
                "start_time": 34.9,
                "end_time": 35.0204545,
                "pitch": 38,
                "velocity": 101,
                "duration": 0.1204545,
                "tempo": 120.0
            },
            {
                "start_time": 35.1386364,
                "end_time": 35.2590909,
                "pitch": 38,
                "velocity": 101,
                "duration": 0.1204545,
                "tempo": 120.0
            },
            {
                "start_time": 35.2590909,
                "end_time": 35.3795455,
                "pitch": 50,
                "velocity": 101,
                "duration": 0.1204545,
                "tempo": 120.0
            },
            {
                "start_time": 35.4977273,
                "end_time": 35.6181818,
                "pitch": 40,
                "velocity": 101,
                "duration": 0.1204545,
                "tempo": 120.0
            },
            {
                "start_time": 35.6181818,
                "end_time": 35.7386364,
                "pitch": 40,
                "velocity": 101,
                "duration": 0.1204545,
                "tempo": 120.0
            },
            {
                "start_time": 35.7386364,
                "end_time": 35.8590909,
                "pitch": 52,
                "velocity": 101,
                "duration": 0.1204545,
                "tempo": 120.0
            },
            {
                "start_time": 35.8590909,
                "end_time": 35.9795455,
                "pitch": 40,
                "velocity": 101,
                "duration": 0.1204545,
                "tempo": 120.0
            },
            {
                "start_time": 35.9795455,
                "end_time": 36.1,
                "pitch": 43,
                "velocity": 101,
                "duration": 0.1204545,
                "tempo": 120.0
            },
            {
                "start_time": 36.1,
                "end_time": 36.2204545,
                "pitch": 45,
                "velocity": 101,
                "duration": 0.1204545,
                "tempo": 120.0
            },
            {
                "start_time": 36.1,
                "end_time": 36.2204545,
                "pitch": 45,
                "velocity": 101,
                "duration": 0.1204545,
                "tempo": 120.0
            },
            {
                "start_time": 36.2204545,
                "end_time": 36.3386364,
                "pitch": 46,
                "velocity": 101,
                "duration": 0.1181818,
                "tempo": 120.0
            },
            {
                "start_time": 36.3386364,
                "end_time": 36.4590909,
                "pitch": 47,
                "velocity": 101,
                "duration": 0.1204545,
                "tempo": 120.0
            },
            {
                "start_time": 36.4590909,
                "end_time": 36.5795455,
                "pitch": 47,
                "velocity": 101,
                "duration": 0.1204545,
                "tempo": 120.0
            },
            {
                "start_time": 36.5795455,
                "end_time": 36.6977273,
                "pitch": 47,
                "velocity": 101,
                "duration": 0.1181818,
                "tempo": 120.0
            },
            {
                "start_time": 36.6977273,
                "end_time": 36.8159091,
                "pitch": 59,
                "velocity": 101,
                "duration": 0.1181818,
                "tempo": 120.0
            },
            {
                "start_time": 36.8159091,
                "end_time": 36.9340909,
                "pitch": 47,
                "velocity": 101,
                "duration": 0.1181818,
                "tempo": 120.0
            },
            {
                "start_time": 37.0522727,
                "end_time": 37.1681818,
                "pitch": 45,
                "velocity": 101,
                "duration": 0.1159091,
                "tempo": 120.0
            },
            {
                "start_time": 37.2909091,
                "end_time": 37.4113636,
                "pitch": 47,
                "velocity": 101,
                "duration": 0.1204545,
                "tempo": 120.0
            },
            {
                "start_time": 37.4113636,
                "end_time": 37.5318182,
                "pitch": 47,
                "velocity": 101,
                "duration": 0.1204545,
                "tempo": 120.0
            },
            {
                "start_time": 37.5318182,
                "end_time": 37.6522727,
                "pitch": 47,
                "velocity": 101,
                "duration": 0.1204545,
                "tempo": 120.0
            },
            {
                "start_time": 37.6522727,
                "end_time": 37.7704545,
                "pitch": 47,
                "velocity": 101,
                "duration": 0.1181818,
                "tempo": 120.0
            },
            {
                "start_time": 37.7704545,
                "end_time": 37.8909091,
                "pitch": 47,
                "velocity": 101,
                "duration": 0.1204545,
                "tempo": 120.0
            },
            {
                "start_time": 37.8909091,
                "end_time": 38.0090909,
                "pitch": 47,
                "velocity": 101,
                "duration": 0.1181818,
                "tempo": 120.0
            },
            {
                "start_time": 38.0090909,
                "end_time": 38.1295455,
                "pitch": 45,
                "velocity": 101,
                "duration": 0.1204545,
                "tempo": 120.0
            },
            {
                "start_time": 38.1295455,
                "end_time": 38.25,
                "pitch": 47,
                "velocity": 101,
                "duration": 0.1204545,
                "tempo": 120.0
            },
            {
                "start_time": 38.1295455,
                "end_time": 38.25,
                "pitch": 47,
                "velocity": 101,
                "duration": 0.1204545,
                "tempo": 120.0
            },
            {
                "start_time": 38.25,
                "end_time": 38.3704545,
                "pitch": 45,
                "velocity": 101,
                "duration": 0.1204545,
                "tempo": 120.0
            },
            {
                "start_time": 38.25,
                "end_time": 38.3704545,
                "pitch": 45,
                "velocity": 101,
                "duration": 0.1204545,
                "tempo": 120.0
            },
            {
                "start_time": 38.3704545,
                "end_time": 38.4909091,
                "pitch": 38,
                "velocity": 101,
                "duration": 0.1204545,
                "tempo": 120.0
            },
            {
                "start_time": 38.4909091,
                "end_time": 38.6113636,
                "pitch": 38,
                "velocity": 101,
                "duration": 0.1204545,
                "tempo": 120.0
            },
            {
                "start_time": 38.6113636,
                "end_time": 38.7318182,
                "pitch": 50,
                "velocity": 101,
                "duration": 0.1204545,
                "tempo": 120.0
            },
            {
                "start_time": 38.7318182,
                "end_time": 38.8522727,
                "pitch": 38,
                "velocity": 101,
                "duration": 0.1204545,
                "tempo": 120.0
            },
            {
                "start_time": 38.9704545,
                "end_time": 39.0909091,
                "pitch": 38,
                "velocity": 101,
                "duration": 0.1204545,
                "tempo": 120.0
            },
            {
                "start_time": 39.0909091,
                "end_time": 39.2113636,
                "pitch": 50,
                "velocity": 101,
                "duration": 0.1204545,
                "tempo": 120.0
            },
            {
                "start_time": 39.3318182,
                "end_time": 39.4522727,
                "pitch": 40,
                "velocity": 101,
                "duration": 0.1204545,
                "tempo": 120.0
            },
            {
                "start_time": 39.4522727,
                "end_time": 39.5727273,
                "pitch": 40,
                "velocity": 101,
                "duration": 0.1204545,
                "tempo": 120.0
            },
            {
                "start_time": 39.5727273,
                "end_time": 39.6909091,
                "pitch": 52,
                "velocity": 101,
                "duration": 0.1181818,
                "tempo": 120.0
            },
            {
                "start_time": 39.6909091,
                "end_time": 39.8090909,
                "pitch": 40,
                "velocity": 101,
                "duration": 0.1181818,
                "tempo": 120.0
            },
            {
                "start_time": 39.8090909,
                "end_time": 39.925,
                "pitch": 43,
                "velocity": 101,
                "duration": 0.1159091,
                "tempo": 120.0
            },
            {
                "start_time": 39.925,
                "end_time": 39.9272727,
                "pitch": 45,
                "velocity": 101,
                "duration": 0.0022727,
                "tempo": 120.0
            },
            {
                "start_time": 39.9272727,
                "end_time": 40.0431818,
                "pitch": 45,
                "velocity": 101,
                "duration": 0.1159091,
                "tempo": 120.0
            },
            {
                "start_time": 40.0431818,
                "end_time": 40.1636364,
                "pitch": 46,
                "velocity": 101,
                "duration": 0.1204545,
                "tempo": 120.0
            },
            {
                "start_time": 40.1636364,
                "end_time": 40.2818182,
                "pitch": 47,
                "velocity": 101,
                "duration": 0.1181818,
                "tempo": 120.0
            },
            {
                "start_time": 40.2818182,
                "end_time": 40.4022727,
                "pitch": 47,
                "velocity": 101,
                "duration": 0.1204545,
                "tempo": 120.0
            },
            {
                "start_time": 40.4022727,
                "end_time": 40.5227273,
                "pitch": 47,
                "velocity": 101,
                "duration": 0.1204545,
                "tempo": 120.0
            },
            {
                "start_time": 40.5227273,
                "end_time": 40.6431818,
                "pitch": 59,
                "velocity": 101,
                "duration": 0.1204545,
                "tempo": 120.0
            },
            {
                "start_time": 40.6431818,
                "end_time": 40.7636364,
                "pitch": 47,
                "velocity": 101,
                "duration": 0.1204545,
                "tempo": 120.0
            },
            {
                "start_time": 40.8840909,
                "end_time": 41.0045455,
                "pitch": 45,
                "velocity": 101,
                "duration": 0.1204545,
                "tempo": 120.0
            },
            {
                "start_time": 41.125,
                "end_time": 41.2431818,
                "pitch": 47,
                "velocity": 101,
                "duration": 0.1181818,
                "tempo": 120.0
            },
            {
                "start_time": 41.2431818,
                "end_time": 41.3636364,
                "pitch": 47,
                "velocity": 101,
                "duration": 0.1204545,
                "tempo": 120.0
            },
            {
                "start_time": 41.3636364,
                "end_time": 41.4840909,
                "pitch": 47,
                "velocity": 101,
                "duration": 0.1204545,
                "tempo": 120.0
            },
            {
                "start_time": 41.4840909,
                "end_time": 41.6045455,
                "pitch": 59,
                "velocity": 101,
                "duration": 0.1204545,
                "tempo": 120.0
            },
            {
                "start_time": 41.6045455,
                "end_time": 41.725,
                "pitch": 47,
                "velocity": 101,
                "duration": 0.1204545,
                "tempo": 120.0
            },
            {
                "start_time": 41.8454545,
                "end_time": 41.9659091,
                "pitch": 47,
                "velocity": 101,
                "duration": 0.1204545,
                "tempo": 120.0
            },
            {
                "start_time": 41.9659091,
                "end_time": 42.0840909,
                "pitch": 47,
                "velocity": 101,
                "duration": 0.1181818,
                "tempo": 120.0
            },
            {
                "start_time": 42.2045455,
                "end_time": 42.3227273,
                "pitch": 47,
                "velocity": 101,
                "duration": 0.1181818,
                "tempo": 120.0
            },
            {
                "start_time": 42.3227273,
                "end_time": 42.4431818,
                "pitch": 47,
                "velocity": 101,
                "duration": 0.1204545,
                "tempo": 120.0
            },
            {
                "start_time": 42.4431818,
                "end_time": 42.5636364,
                "pitch": 47,
                "velocity": 101,
                "duration": 0.1204545,
                "tempo": 120.0
            },
            {
                "start_time": 42.5636364,
                "end_time": 42.6818182,
                "pitch": 47,
                "velocity": 101,
                "duration": 0.1181818,
                "tempo": 120.0
            },
            {
                "start_time": 42.6818182,
                "end_time": 42.8022727,
                "pitch": 50,
                "velocity": 101,
                "duration": 0.1204545,
                "tempo": 120.0
            },
            {
                "start_time": 42.8022727,
                "end_time": 42.9227273,
                "pitch": 50,
                "velocity": 101,
                "duration": 0.1204545,
                "tempo": 120.0
            },
            {
                "start_time": 42.9227273,
                "end_time": 43.0386364,
                "pitch": 50,
                "velocity": 101,
                "duration": 0.1159091,
                "tempo": 120.0
            },
            {
                "start_time": 43.0386364,
                "end_time": 43.1568182,
                "pitch": 50,
                "velocity": 101,
                "duration": 0.1181818,
                "tempo": 120.0
            },
            {
                "start_time": 43.1568182,
                "end_time": 43.275,
                "pitch": 52,
                "velocity": 101,
                "duration": 0.1181818,
                "tempo": 120.0
            },
            {
                "start_time": 43.275,
                "end_time": 43.3931818,
                "pitch": 52,
                "velocity": 101,
                "duration": 0.1181818,
                "tempo": 120.0
            },
            {
                "start_time": 43.3931818,
                "end_time": 43.5113636,
                "pitch": 52,
                "velocity": 101,
                "duration": 0.1181818,
                "tempo": 120.0
            },
            {
                "start_time": 43.5113636,
                "end_time": 43.7522727,
                "pitch": 55,
                "velocity": 101,
                "duration": 0.2409091,
                "tempo": 120.0
            },
            {
                "start_time": 43.7522727,
                "end_time": 43.8704545,
                "pitch": 55,
                "velocity": 101,
                "duration": 0.1181818,
                "tempo": 120.0
            },
            {
                "start_time": 43.8704545,
                "end_time": 43.9909091,
                "pitch": 55,
                "velocity": 101,
                "duration": 0.1204545,
                "tempo": 120.0
            },
            {
                "start_time": 43.9909091,
                "end_time": 44.1113636,
                "pitch": 55,
                "velocity": 101,
                "duration": 0.1204545,
                "tempo": 120.0
            },
            {
                "start_time": 44.1113636,
                "end_time": 44.2318182,
                "pitch": 47,
                "velocity": 101,
                "duration": 0.1204545,
                "tempo": 120.0
            },
            {
                "start_time": 44.2318182,
                "end_time": 44.3545455,
                "pitch": 47,
                "velocity": 101,
                "duration": 0.1227273,
                "tempo": 120.0
            },
            {
                "start_time": 44.3545455,
                "end_time": 44.4727273,
                "pitch": 47,
                "velocity": 101,
                "duration": 0.1181818,
                "tempo": 120.0
            },
            {
                "start_time": 44.4727273,
                "end_time": 44.5931818,
                "pitch": 47,
                "velocity": 101,
                "duration": 0.1204545,
                "tempo": 120.0
            },
            {
                "start_time": 44.5931818,
                "end_time": 44.7113636,
                "pitch": 50,
                "velocity": 101,
                "duration": 0.1181818,
                "tempo": 120.0
            },
            {
                "start_time": 44.7113636,
                "end_time": 44.8318182,
                "pitch": 50,
                "velocity": 101,
                "duration": 0.1204545,
                "tempo": 120.0
            },
            {
                "start_time": 44.8318182,
                "end_time": 44.9522727,
                "pitch": 50,
                "velocity": 101,
                "duration": 0.1204545,
                "tempo": 120.0
            },
            {
                "start_time": 44.9522727,
                "end_time": 45.0704545,
                "pitch": 50,
                "velocity": 101,
                "duration": 0.1181818,
                "tempo": 120.0
            },
            {
                "start_time": 45.0704545,
                "end_time": 45.1909091,
                "pitch": 52,
                "velocity": 101,
                "duration": 0.1204545,
                "tempo": 120.0
            },
            {
                "start_time": 45.1909091,
                "end_time": 45.3113636,
                "pitch": 52,
                "velocity": 101,
                "duration": 0.1204545,
                "tempo": 120.0
            },
            {
                "start_time": 45.3113636,
                "end_time": 45.4295455,
                "pitch": 52,
                "velocity": 101,
                "duration": 0.1181818,
                "tempo": 120.0
            },
            {
                "start_time": 45.4295455,
                "end_time": 45.6727273,
                "pitch": 55,
                "velocity": 101,
                "duration": 0.2431818,
                "tempo": 120.0
            },
            {
                "start_time": 45.6727273,
                "end_time": 45.7931818,
                "pitch": 55,
                "velocity": 101,
                "duration": 0.1204545,
                "tempo": 120.0
            },
            {
                "start_time": 45.7931818,
                "end_time": 45.9113636,
                "pitch": 55,
                "velocity": 101,
                "duration": 0.1181818,
                "tempo": 120.0
            },
            {
                "start_time": 45.9113636,
                "end_time": 46.0272727,
                "pitch": 55,
                "velocity": 101,
                "duration": 0.1159091,
                "tempo": 120.0
            },
            {
                "start_time": 46.0272727,
                "end_time": 46.1454545,
                "pitch": 47,
                "velocity": 101,
                "duration": 0.1181818,
                "tempo": 120.0
            },
            {
                "start_time": 46.1454545,
                "end_time": 46.2636364,
                "pitch": 47,
                "velocity": 101,
                "duration": 0.1181818,
                "tempo": 120.0
            },
            {
                "start_time": 46.2636364,
                "end_time": 46.3840909,
                "pitch": 47,
                "velocity": 101,
                "duration": 0.1204545,
                "tempo": 120.0
            },
            {
                "start_time": 46.3840909,
                "end_time": 46.5022727,
                "pitch": 47,
                "velocity": 101,
                "duration": 0.1181818,
                "tempo": 120.0
            },
            {
                "start_time": 42.6818182,
                "end_time": 46.5022727,
                "pitch": 53,
                "velocity": 101,
                "duration": 3.8204545,
                "tempo": 120.0
            },
            {
                "start_time": 46.5022727,
                "end_time": 46.6227273,
                "pitch": 50,
                "velocity": 101,
                "duration": 0.1204545,
                "tempo": 120.0
            },
            {
                "start_time": 46.6227273,
                "end_time": 46.7409091,
                "pitch": 50,
                "velocity": 101,
                "duration": 0.1181818,
                "tempo": 120.0
            },
            {
                "start_time": 46.7409091,
                "end_time": 46.8636364,
                "pitch": 50,
                "velocity": 101,
                "duration": 0.1227273,
                "tempo": 120.0
            },
            {
                "start_time": 46.8636364,
                "end_time": 46.9818182,
                "pitch": 50,
                "velocity": 101,
                "duration": 0.1181818,
                "tempo": 120.0
            },
            {
                "start_time": 46.9818182,
                "end_time": 47.1022727,
                "pitch": 52,
                "velocity": 101,
                "duration": 0.1204545,
                "tempo": 120.0
            },
            {
                "start_time": 47.1022727,
                "end_time": 47.225,
                "pitch": 52,
                "velocity": 101,
                "duration": 0.1227273,
                "tempo": 120.0
            },
            {
                "start_time": 47.225,
                "end_time": 47.3431818,
                "pitch": 52,
                "velocity": 101,
                "duration": 0.1181818,
                "tempo": 120.0
            },
            {
                "start_time": 47.3431818,
                "end_time": 47.5840909,
                "pitch": 48,
                "velocity": 101,
                "duration": 0.2409091,
                "tempo": 120.0
            },
            {
                "start_time": 47.3431818,
                "end_time": 47.5840909,
                "pitch": 48,
                "velocity": 101,
                "duration": 0.2409091,
                "tempo": 120.0
            },
            {
                "start_time": 47.5840909,
                "end_time": 47.7022727,
                "pitch": 48,
                "velocity": 101,
                "duration": 0.1181818,
                "tempo": 120.0
            },
            {
                "start_time": 47.7022727,
                "end_time": 47.8227273,
                "pitch": 48,
                "velocity": 101,
                "duration": 0.1204545,
                "tempo": 120.0
            },
            {
                "start_time": 33.4681818,
                "end_time": 47.9431818,
                "pitch": 32,
                "velocity": 101,
                "duration": 14.475,
                "tempo": 120.0
            },
            {
                "start_time": 47.8227273,
                "end_time": 47.9431818,
                "pitch": 48,
                "velocity": 101,
                "duration": 0.1204545,
                "tempo": 120.0
            },
            {
                "start_time": 47.9431818,
                "end_time": 48.0636364,
                "pitch": 47,
                "velocity": 101,
                "duration": 0.1204545,
                "tempo": 120.0
            },
            {
                "start_time": 48.0636364,
                "end_time": 48.1840909,
                "pitch": 47,
                "velocity": 101,
                "duration": 0.1204545,
                "tempo": 120.0
            },
            {
                "start_time": 48.1840909,
                "end_time": 48.3045455,
                "pitch": 47,
                "velocity": 101,
                "duration": 0.1204545,
                "tempo": 120.0
            },
            {
                "start_time": 48.3045455,
                "end_time": 48.425,
                "pitch": 47,
                "velocity": 101,
                "duration": 0.1204545,
                "tempo": 120.0
            },
            {
                "start_time": 46.5022727,
                "end_time": 48.425,
                "pitch": 53,
                "velocity": 101,
                "duration": 1.9227273,
                "tempo": 120.0
            },
            {
                "start_time": 48.425,
                "end_time": 48.5431818,
                "pitch": 50,
                "velocity": 101,
                "duration": 0.1181818,
                "tempo": 120.0
            },
            {
                "start_time": 48.5431818,
                "end_time": 48.6636364,
                "pitch": 50,
                "velocity": 101,
                "duration": 0.1204545,
                "tempo": 120.0
            },
            {
                "start_time": 48.6636364,
                "end_time": 48.7840909,
                "pitch": 50,
                "velocity": 101,
                "duration": 0.1204545,
                "tempo": 120.0
            },
            {
                "start_time": 48.7840909,
                "end_time": 48.9045455,
                "pitch": 50,
                "velocity": 101,
                "duration": 0.1204545,
                "tempo": 120.0
            },
            {
                "start_time": 48.9045455,
                "end_time": 49.025,
                "pitch": 52,
                "velocity": 101,
                "duration": 0.1204545,
                "tempo": 120.0
            },
            {
                "start_time": 49.025,
                "end_time": 49.1454545,
                "pitch": 52,
                "velocity": 101,
                "duration": 0.1204545,
                "tempo": 120.0
            },
            {
                "start_time": 49.1454545,
                "end_time": 49.2659091,
                "pitch": 52,
                "velocity": 101,
                "duration": 0.1204545,
                "tempo": 120.0
            },
            {
                "start_time": 49.2659091,
                "end_time": 49.5045455,
                "pitch": 48,
                "velocity": 101,
                "duration": 0.2386364,
                "tempo": 120.0
            },
            {
                "start_time": 49.2659091,
                "end_time": 49.5045455,
                "pitch": 48,
                "velocity": 101,
                "duration": 0.2386364,
                "tempo": 120.0
            },
            {
                "start_time": 49.5045455,
                "end_time": 49.625,
                "pitch": 48,
                "velocity": 101,
                "duration": 0.1204545,
                "tempo": 120.0
            },
            {
                "start_time": 49.625,
                "end_time": 49.7409091,
                "pitch": 48,
                "velocity": 101,
                "duration": 0.1159091,
                "tempo": 120.0
            },
            {
                "start_time": 49.7409091,
                "end_time": 49.8590909,
                "pitch": 48,
                "velocity": 101,
                "duration": 0.1181818,
                "tempo": 120.0
            },
            {
                "start_time": 49.8590909,
                "end_time": 49.9772727,
                "pitch": 46,
                "velocity": 101,
                "duration": 0.1181818,
                "tempo": 120.0
            },
            {
                "start_time": 49.9772727,
                "end_time": 50.0954545,
                "pitch": 46,
                "velocity": 101,
                "duration": 0.1181818,
                "tempo": 120.0
            },
            {
                "start_time": 49.8590909,
                "end_time": 50.2159091,
                "pitch": 27,
                "velocity": 101,
                "duration": 0.3568182,
                "tempo": 120.0
            },
            {
                "start_time": 50.0954545,
                "end_time": 50.2159091,
                "pitch": 49,
                "velocity": 101,
                "duration": 0.1204545,
                "tempo": 120.0
            },
            {
                "start_time": 50.2159091,
                "end_time": 50.3363636,
                "pitch": 46,
                "velocity": 101,
                "duration": 0.1204545,
                "tempo": 120.0
            },
            {
                "start_time": 50.2159091,
                "end_time": 50.4568182,
                "pitch": 27,
                "velocity": 101,
                "duration": 0.2409091,
                "tempo": 120.0
            },
            {
                "start_time": 50.3363636,
                "end_time": 50.4568182,
                "pitch": 51,
                "velocity": 101,
                "duration": 0.1204545,
                "tempo": 120.0
            },
            {
                "start_time": 50.4568182,
                "end_time": 50.5772727,
                "pitch": 46,
                "velocity": 101,
                "duration": 0.1204545,
                "tempo": 120.0
            },
            {
                "start_time": 50.4568182,
                "end_time": 50.6977273,
                "pitch": 27,
                "velocity": 101,
                "duration": 0.2409091,
                "tempo": 120.0
            },
            {
                "start_time": 50.5772727,
                "end_time": 50.6977273,
                "pitch": 49,
                "velocity": 101,
                "duration": 0.1204545,
                "tempo": 120.0
            },
            {
                "start_time": 50.6977273,
                "end_time": 50.8159091,
                "pitch": 46,
                "velocity": 101,
                "duration": 0.1181818,
                "tempo": 120.0
            },
            {
                "start_time": 50.9363636,
                "end_time": 51.0568182,
                "pitch": 46,
                "velocity": 101,
                "duration": 0.1204545,
                "tempo": 120.0
            },
            {
                "start_time": 50.5772727,
                "end_time": 51.0568182,
                "pitch": 52,
                "velocity": 101,
                "duration": 0.4795455,
                "tempo": 120.0
            },
            {
                "start_time": 50.6977273,
                "end_time": 51.1772727,
                "pitch": 27,
                "velocity": 101,
                "duration": 0.4795455,
                "tempo": 120.0
            },
            {
                "start_time": 51.0568182,
                "end_time": 51.1772727,
                "pitch": 49,
                "velocity": 101,
                "duration": 0.1204545,
                "tempo": 120.0
            },
            {
                "start_time": 51.1772727,
                "end_time": 51.2977273,
                "pitch": 46,
                "velocity": 101,
                "duration": 0.1204545,
                "tempo": 120.0
            },
            {
                "start_time": 48.425,
                "end_time": 51.2977273,
                "pitch": 53,
                "velocity": 101,
                "duration": 2.8727273,
                "tempo": 120.0
            },
            {
                "start_time": 51.2977273,
                "end_time": 51.4181818,
                "pitch": 51,
                "velocity": 101,
                "duration": 0.1204545,
                "tempo": 120.0
            },
            {
                "start_time": 51.4181818,
                "end_time": 51.5386364,
                "pitch": 46,
                "velocity": 101,
                "duration": 0.1204545,
                "tempo": 120.0
            },
            {
                "start_time": 51.5386364,
                "end_time": 51.7772727,
                "pitch": 44,
                "velocity": 101,
                "duration": 0.2386364,
                "tempo": 120.0
            },
            {
                "start_time": 51.5386364,
                "end_time": 51.7772727,
                "pitch": 44,
                "velocity": 101,
                "duration": 0.2386364,
                "tempo": 120.0
            },
            {
                "start_time": 51.7772727,
                "end_time": 51.8977273,
                "pitch": 46,
                "velocity": 101,
                "duration": 0.1204545,
                "tempo": 120.0
            },
            {
                "start_time": 51.8977273,
                "end_time": 52.0159091,
                "pitch": 46,
                "velocity": 101,
                "duration": 0.1181818,
                "tempo": 120.0
            },
            {
                "start_time": 51.0568182,
                "end_time": 52.0159091,
                "pitch": 52,
                "velocity": 101,
                "duration": 0.9590909,
                "tempo": 120.0
            },
            {
                "start_time": 51.1772727,
                "end_time": 52.1363636,
                "pitch": 27,
                "velocity": 101,
                "duration": 0.9590909,
                "tempo": 120.0
            },
            {
                "start_time": 52.0159091,
                "end_time": 52.1363636,
                "pitch": 49,
                "velocity": 101,
                "duration": 0.1204545,
                "tempo": 120.0
            },
            {
                "start_time": 52.1363636,
                "end_time": 52.2568182,
                "pitch": 46,
                "velocity": 101,
                "duration": 0.1204545,
                "tempo": 120.0
            },
            {
                "start_time": 51.2977273,
                "end_time": 52.2568182,
                "pitch": 53,
                "velocity": 101,
                "duration": 0.9590909,
                "tempo": 120.0
            },
            {
                "start_time": 52.2568182,
                "end_time": 52.375,
                "pitch": 51,
                "velocity": 101,
                "duration": 0.1181818,
                "tempo": 120.0
            },
            {
                "start_time": 52.375,
                "end_time": 52.4954545,
                "pitch": 46,
                "velocity": 101,
                "duration": 0.1204545,
                "tempo": 120.0
            },
            {
                "start_time": 52.0159091,
                "end_time": 52.4954545,
                "pitch": 52,
                "velocity": 101,
                "duration": 0.4795455,
                "tempo": 120.0
            },
            {
                "start_time": 52.1363636,
                "end_time": 52.6136364,
                "pitch": 27,
                "velocity": 101,
                "duration": 0.4772727,
                "tempo": 120.0
            },
            {
                "start_time": 52.4954545,
                "end_time": 52.6136364,
                "pitch": 49,
                "velocity": 101,
                "duration": 0.1181818,
                "tempo": 120.0
            },
            {
                "start_time": 52.6136364,
                "end_time": 52.7295455,
                "pitch": 46,
                "velocity": 101,
                "duration": 0.1159091,
                "tempo": 120.0
            },
            {
                "start_time": 52.7295455,
                "end_time": 52.8477273,
                "pitch": 41,
                "velocity": 101,
                "duration": 0.1181818,
                "tempo": 120.0
            },
            {
                "start_time": 52.8477273,
                "end_time": 52.9659091,
                "pitch": 46,
                "velocity": 101,
                "duration": 0.1181818,
                "tempo": 120.0
            },
            {
                "start_time": 52.4954545,
                "end_time": 52.9659091,
                "pitch": 52,
                "velocity": 101,
                "duration": 0.4704545,
                "tempo": 120.0
            },
            {
                "start_time": 52.6136364,
                "end_time": 53.0840909,
                "pitch": 27,
                "velocity": 101,
                "duration": 0.4704545,
                "tempo": 120.0
            },
            {
                "start_time": 52.9659091,
                "end_time": 53.0840909,
                "pitch": 49,
                "velocity": 101,
                "duration": 0.1181818,
                "tempo": 120.0
            },
            {
                "start_time": 53.0840909,
                "end_time": 53.2045455,
                "pitch": 46,
                "velocity": 101,
                "duration": 0.1204545,
                "tempo": 120.0
            },
            {
                "start_time": 52.9659091,
                "end_time": 53.2045455,
                "pitch": 52,
                "velocity": 101,
                "duration": 0.2386364,
                "tempo": 120.0
            },
            {
                "start_time": 53.2045455,
                "end_time": 53.325,
                "pitch": 49,
                "velocity": 101,
                "duration": 0.1204545,
                "tempo": 120.0
            },
            {
                "start_time": 53.325,
                "end_time": 53.4431818,
                "pitch": 51,
                "velocity": 101,
                "duration": 0.1181818,
                "tempo": 120.0
            },
            {
                "start_time": 53.2045455,
                "end_time": 53.5636364,
                "pitch": 52,
                "velocity": 101,
                "duration": 0.3590909,
                "tempo": 120.0
            },
            {
                "start_time": 53.4431818,
                "end_time": 53.5636364,
                "pitch": 52,
                "velocity": 101,
                "duration": 0.1204545,
                "tempo": 120.0
            },
            {
                "start_time": 52.2568182,
                "end_time": 53.6840909,
                "pitch": 53,
                "velocity": 101,
                "duration": 1.4272727,
                "tempo": 120.0
            },
            {
                "start_time": 53.5636364,
                "end_time": 53.6840909,
                "pitch": 53,
                "velocity": 101,
                "duration": 0.1204545,
                "tempo": 120.0
            },
            {
                "start_time": 53.6840909,
                "end_time": 53.8022727,
                "pitch": 39,
                "velocity": 101,
                "duration": 0.1181818,
                "tempo": 120.0
            },
            {
                "start_time": 53.8022727,
                "end_time": 53.9227273,
                "pitch": 39,
                "velocity": 101,
                "duration": 0.1204545,
                "tempo": 120.0
            },
            {
                "start_time": 53.9227273,
                "end_time": 54.0431818,
                "pitch": 51,
                "velocity": 101,
                "duration": 0.1204545,
                "tempo": 120.0
            },
            {
                "start_time": 54.0431818,
                "end_time": 54.1636364,
                "pitch": 39,
                "velocity": 101,
                "duration": 0.1204545,
                "tempo": 120.0
            },
            {
                "start_time": 54.1636364,
                "end_time": 54.2840909,
                "pitch": 42,
                "velocity": 101,
                "duration": 0.1204545,
                "tempo": 120.0
            },
            {
                "start_time": 54.1636364,
                "end_time": 54.2840909,
                "pitch": 42,
                "velocity": 101,
                "duration": 0.1204545,
                "tempo": 120.0
            },
            {
                "start_time": 54.2840909,
                "end_time": 54.4045455,
                "pitch": 44,
                "velocity": 101,
                "duration": 0.1204545,
                "tempo": 120.0
            },
            {
                "start_time": 54.4045455,
                "end_time": 54.525,
                "pitch": 45,
                "velocity": 101,
                "duration": 0.1204545,
                "tempo": 120.0
            },
            {
                "start_time": 54.525,
                "end_time": 54.6454545,
                "pitch": 46,
                "velocity": 101,
                "duration": 0.1204545,
                "tempo": 120.0
            },
            {
                "start_time": 54.6454545,
                "end_time": 54.7636364,
                "pitch": 39,
                "velocity": 101,
                "duration": 0.1181818,
                "tempo": 120.0
            },
            {
                "start_time": 54.7636364,
                "end_time": 54.8840909,
                "pitch": 39,
                "velocity": 101,
                "duration": 0.1204545,
                "tempo": 120.0
            },
            {
                "start_time": 54.8840909,
                "end_time": 55.0045455,
                "pitch": 51,
                "velocity": 101,
                "duration": 0.1204545,
                "tempo": 120.0
            },
            {
                "start_time": 55.0045455,
                "end_time": 55.125,
                "pitch": 39,
                "velocity": 101,
                "duration": 0.1204545,
                "tempo": 120.0
            },
            {
                "start_time": 55.125,
                "end_time": 55.2454545,
                "pitch": 42,
                "velocity": 101,
                "duration": 0.1204545,
                "tempo": 120.0
            },
            {
                "start_time": 55.125,
                "end_time": 55.2454545,
                "pitch": 42,
                "velocity": 101,
                "duration": 0.1204545,
                "tempo": 120.0
            },
            {
                "start_time": 55.2454545,
                "end_time": 55.3659091,
                "pitch": 44,
                "velocity": 101,
                "duration": 0.1204545,
                "tempo": 120.0
            },
            {
                "start_time": 55.3659091,
                "end_time": 55.4840909,
                "pitch": 45,
                "velocity": 101,
                "duration": 0.1181818,
                "tempo": 120.0
            },
            {
                "start_time": 55.4840909,
                "end_time": 55.6022727,
                "pitch": 46,
                "velocity": 101,
                "duration": 0.1181818,
                "tempo": 120.0
            },
            {
                "start_time": 55.6022727,
                "end_time": 55.7181818,
                "pitch": 39,
                "velocity": 101,
                "duration": 0.1159091,
                "tempo": 120.0
            },
            {
                "start_time": 55.7181818,
                "end_time": 55.8363636,
                "pitch": 39,
                "velocity": 101,
                "duration": 0.1181818,
                "tempo": 120.0
            },
            {
                "start_time": 55.8363636,
                "end_time": 55.9568182,
                "pitch": 51,
                "velocity": 101,
                "duration": 0.1204545,
                "tempo": 120.0
            },
            {
                "start_time": 55.9568182,
                "end_time": 56.075,
                "pitch": 39,
                "velocity": 101,
                "duration": 0.1181818,
                "tempo": 120.0
            },
            {
                "start_time": 56.075,
                "end_time": 56.1954545,
                "pitch": 42,
                "velocity": 101,
                "duration": 0.1204545,
                "tempo": 120.0
            },
            {
                "start_time": 56.1954545,
                "end_time": 56.3159091,
                "pitch": 44,
                "velocity": 101,
                "duration": 0.1204545,
                "tempo": 120.0
            },
            {
                "start_time": 56.3159091,
                "end_time": 56.4363636,
                "pitch": 45,
                "velocity": 101,
                "duration": 0.1204545,
                "tempo": 120.0
            },
            {
                "start_time": 56.4363636,
                "end_time": 56.5568182,
                "pitch": 46,
                "velocity": 101,
                "duration": 0.1204545,
                "tempo": 120.0
            },
            {
                "start_time": 56.5568182,
                "end_time": 56.6772727,
                "pitch": 39,
                "velocity": 101,
                "duration": 0.1204545,
                "tempo": 120.0
            },
            {
                "start_time": 56.6772727,
                "end_time": 56.7977273,
                "pitch": 39,
                "velocity": 101,
                "duration": 0.1204545,
                "tempo": 120.0
            },
            {
                "start_time": 56.7977273,
                "end_time": 56.9159091,
                "pitch": 51,
                "velocity": 101,
                "duration": 0.1181818,
                "tempo": 120.0
            },
            {
                "start_time": 56.9159091,
                "end_time": 57.0363636,
                "pitch": 39,
                "velocity": 101,
                "duration": 0.1204545,
                "tempo": 120.0
            },
            {
                "start_time": 57.0363636,
                "end_time": 57.1568182,
                "pitch": 42,
                "velocity": 101,
                "duration": 0.1204545,
                "tempo": 120.0
            },
            {
                "start_time": 57.0363636,
                "end_time": 57.1568182,
                "pitch": 42,
                "velocity": 101,
                "duration": 0.1204545,
                "tempo": 120.0
            },
            {
                "start_time": 57.1568182,
                "end_time": 57.275,
                "pitch": 44,
                "velocity": 101,
                "duration": 0.1181818,
                "tempo": 120.0
            },
            {
                "start_time": 57.275,
                "end_time": 57.3954545,
                "pitch": 45,
                "velocity": 101,
                "duration": 0.1204545,
                "tempo": 120.0
            },
            {
                "start_time": 57.3954545,
                "end_time": 57.5159091,
                "pitch": 46,
                "velocity": 101,
                "duration": 0.1204545,
                "tempo": 120.0
            },
            {
                "start_time": 57.5159091,
                "end_time": 57.6386364,
                "pitch": 46,
                "velocity": 101,
                "duration": 0.1227273,
                "tempo": 120.0
            },
            {
                "start_time": 57.6386364,
                "end_time": 57.7590909,
                "pitch": 46,
                "velocity": 101,
                "duration": 0.1204545,
                "tempo": 120.0
            },
            {
                "start_time": 57.7590909,
                "end_time": 57.8772727,
                "pitch": 49,
                "velocity": 101,
                "duration": 0.1181818,
                "tempo": 120.0
            },
            {
                "start_time": 57.8772727,
                "end_time": 57.9977273,
                "pitch": 46,
                "velocity": 101,
                "duration": 0.1204545,
                "tempo": 120.0
            },
            {
                "start_time": 53.0840909,
                "end_time": 58.1159091,
                "pitch": 27,
                "velocity": 101,
                "duration": 5.0318182,
                "tempo": 120.0
            },
            {
                "start_time": 57.9977273,
                "end_time": 58.1159091,
                "pitch": 51,
                "velocity": 101,
                "duration": 0.1181818,
                "tempo": 120.0
            },
            {
                "start_time": 58.1159091,
                "end_time": 58.2363636,
                "pitch": 46,
                "velocity": 101,
                "duration": 0.1204545,
                "tempo": 120.0
            },
            {
                "start_time": 57.7590909,
                "end_time": 58.2363636,
                "pitch": 52,
                "velocity": 101,
                "duration": 0.4772727,
                "tempo": 120.0
            },
            {
                "start_time": 58.2363636,
                "end_time": 58.3568182,
                "pitch": 49,
                "velocity": 101,
                "duration": 0.1204545,
                "tempo": 120.0
            },
            {
                "start_time": 58.3568182,
                "end_time": 58.4772727,
                "pitch": 46,
                "velocity": 101,
                "duration": 0.1204545,
                "tempo": 120.0
            },
            {
                "start_time": 58.5977273,
                "end_time": 58.7181818,
                "pitch": 46,
                "velocity": 101,
                "duration": 0.1204545,
                "tempo": 120.0
            },
            {
                "start_time": 58.2363636,
                "end_time": 58.7181818,
                "pitch": 52,
                "velocity": 101,
                "duration": 0.4818182,
                "tempo": 120.0
            },
            {
                "start_time": 58.1159091,
                "end_time": 58.8363636,
                "pitch": 27,
                "velocity": 101,
                "duration": 0.7204545,
                "tempo": 120.0
            },
            {
                "start_time": 58.7181818,
                "end_time": 58.8363636,
                "pitch": 49,
                "velocity": 101,
                "duration": 0.1181818,
                "tempo": 120.0
            },
            {
                "start_time": 58.8363636,
                "end_time": 58.9545455,
                "pitch": 46,
                "velocity": 101,
                "duration": 0.1181818,
                "tempo": 120.0
            },
            {
                "start_time": 54.6454545,
                "end_time": 58.9545455,
                "pitch": 53,
                "velocity": 101,
                "duration": 4.3090909,
                "tempo": 120.0
            },
            {
                "start_time": 58.9545455,
                "end_time": 59.0727273,
                "pitch": 51,
                "velocity": 101,
                "duration": 0.1181818,
                "tempo": 120.0
            },
            {
                "start_time": 59.0727273,
                "end_time": 59.1909091,
                "pitch": 46,
                "velocity": 101,
                "duration": 0.1181818,
                "tempo": 120.0
            },
            {
                "start_time": 59.1909091,
                "end_time": 59.4295455,
                "pitch": 44,
                "velocity": 101,
                "duration": 0.2386364,
                "tempo": 120.0
            },
            {
                "start_time": 59.4295455,
                "end_time": 59.5477273,
                "pitch": 46,
                "velocity": 101,
                "duration": 0.1181818,
                "tempo": 120.0
            },
            {
                "start_time": 59.4295455,
                "end_time": 59.5477273,
                "pitch": 46,
                "velocity": 101,
                "duration": 0.1181818,
                "tempo": 120.0
            },
            {
                "start_time": 59.5477273,
                "end_time": 59.6681818,
                "pitch": 46,
                "velocity": 101,
                "duration": 0.1204545,
                "tempo": 120.0
            },
            {
                "start_time": 58.7181818,
                "end_time": 59.6681818,
                "pitch": 52,
                "velocity": 101,
                "duration": 0.95,
                "tempo": 120.0
            },
            {
                "start_time": 58.8363636,
                "end_time": 59.7886364,
                "pitch": 27,
                "velocity": 101,
                "duration": 0.9522727,
                "tempo": 120.0
            },
            {
                "start_time": 59.6681818,
                "end_time": 59.7886364,
                "pitch": 49,
                "velocity": 101,
                "duration": 0.1204545,
                "tempo": 120.0
            },
            {
                "start_time": 59.7886364,
                "end_time": 59.9090909,
                "pitch": 46,
                "velocity": 101,
                "duration": 0.1204545,
                "tempo": 120.0
            },
            {
                "start_time": 58.9545455,
                "end_time": 59.9090909,
                "pitch": 53,
                "velocity": 101,
                "duration": 0.9545455,
                "tempo": 120.0
            },
            {
                "start_time": 59.7886364,
                "end_time": 60.0295455,
                "pitch": 27,
                "velocity": 101,
                "duration": 0.2409091,
                "tempo": 120.0
            },
            {
                "start_time": 59.9090909,
                "end_time": 60.0295455,
                "pitch": 51,
                "velocity": 101,
                "duration": 0.1204545,
                "tempo": 120.0
            },
            {
                "start_time": 60.0295455,
                "end_time": 60.15,
                "pitch": 46,
                "velocity": 101,
                "duration": 0.1204545,
                "tempo": 120.0
            },
            {
                "start_time": 60.15,
                "end_time": 60.2704545,
                "pitch": 49,
                "velocity": 101,
                "duration": 0.1204545,
                "tempo": 120.0
            },
            {
                "start_time": 60.2704545,
                "end_time": 60.3886364,
                "pitch": 46,
                "velocity": 101,
                "duration": 0.1181818,
                "tempo": 120.0
            },
            {
                "start_time": 52.8477273,
                "end_time": 60.5090909,
                "pitch": 15,
                "velocity": 101,
                "duration": 7.6613636,
                "tempo": 120.0
            },
            {
                "start_time": 60.3886364,
                "end_time": 60.5090909,
                "pitch": 41,
                "velocity": 101,
                "duration": 0.1204545,
                "tempo": 120.0
            },
            {
                "start_time": 60.5090909,
                "end_time": 60.6295455,
                "pitch": 46,
                "velocity": 101,
                "duration": 0.1204545,
                "tempo": 120.0
            },
            {
                "start_time": 60.6295455,
                "end_time": 60.75,
                "pitch": 49,
                "velocity": 101,
                "duration": 0.1204545,
                "tempo": 120.0
            },
            {
                "start_time": 60.75,
                "end_time": 60.8704545,
                "pitch": 46,
                "velocity": 101,
                "duration": 0.1204545,
                "tempo": 120.0
            },
            {
                "start_time": 59.6681818,
                "end_time": 60.8704545,
                "pitch": 52,
                "velocity": 101,
                "duration": 1.2022727,
                "tempo": 120.0
            },
            {
                "start_time": 60.8704545,
                "end_time": 60.9909091,
                "pitch": 49,
                "velocity": 101,
                "duration": 0.1204545,
                "tempo": 120.0
            },
            {
                "start_time": 60.9909091,
                "end_time": 61.1113636,
                "pitch": 51,
                "velocity": 101,
                "duration": 0.1204545,
                "tempo": 120.0
            },
            {
                "start_time": 60.8704545,
                "end_time": 61.2295455,
                "pitch": 52,
                "velocity": 101,
                "duration": 0.3590909,
                "tempo": 120.0
            },
            {
                "start_time": 61.1113636,
                "end_time": 61.2295455,
                "pitch": 52,
                "velocity": 101,
                "duration": 0.1181818,
                "tempo": 120.0
            },
            {
                "start_time": 59.9090909,
                "end_time": 61.35,
                "pitch": 53,
                "velocity": 101,
                "duration": 1.4409091,
                "tempo": 120.0
            },
            {
                "start_time": 61.2295455,
                "end_time": 61.35,
                "pitch": 53,
                "velocity": 101,
                "duration": 0.1204545,
                "tempo": 120.0
            },
            {
                "start_time": 61.35,
                "end_time": 61.4704545,
                "pitch": 37,
                "velocity": 101,
                "duration": 0.1204545,
                "tempo": 120.0
            },
            {
                "start_time": 61.4704545,
                "end_time": 61.5886364,
                "pitch": 37,
                "velocity": 101,
                "duration": 0.1181818,
                "tempo": 120.0
            },
            {
                "start_time": 61.35,
                "end_time": 61.7068182,
                "pitch": 49,
                "velocity": 101,
                "duration": 0.3568182,
                "tempo": 120.0
            },
            {
                "start_time": 61.5886364,
                "end_time": 61.7068182,
                "pitch": 49,
                "velocity": 101,
                "duration": 0.1181818,
                "tempo": 120.0
            },
            {
                "start_time": 61.7068182,
                "end_time": 61.825,
                "pitch": 37,
                "velocity": 101,
                "duration": 0.1181818,
                "tempo": 120.0
            },
            {
                "start_time": 61.9431818,
                "end_time": 62.0613636,
                "pitch": 37,
                "velocity": 101,
                "duration": 0.1181818,
                "tempo": 120.0
            },
            {
                "start_time": 62.0613636,
                "end_time": 62.1818182,
                "pitch": 49,
                "velocity": 101,
                "duration": 0.1204545,
                "tempo": 120.0
            },
            {
                "start_time": 62.3022727,
                "end_time": 62.4227273,
                "pitch": 39,
                "velocity": 101,
                "duration": 0.1204545,
                "tempo": 120.0
            },
            {
                "start_time": 62.4227273,
                "end_time": 62.5431818,
                "pitch": 39,
                "velocity": 101,
                "duration": 0.1204545,
                "tempo": 120.0
            },
            {
                "start_time": 62.5431818,
                "end_time": 62.6636364,
                "pitch": 51,
                "velocity": 101,
                "duration": 0.1204545,
                "tempo": 120.0
            },
            {
                "start_time": 62.6636364,
                "end_time": 62.7818182,
                "pitch": 39,
                "velocity": 101,
                "duration": 0.1181818,
                "tempo": 120.0
            },
            {
                "start_time": 62.7818182,
                "end_time": 62.9022727,
                "pitch": 42,
                "velocity": 101,
                "duration": 0.1204545,
                "tempo": 120.0
            },
            {
                "start_time": 62.9022727,
                "end_time": 63.0204545,
                "pitch": 44,
                "velocity": 101,
                "duration": 0.1181818,
                "tempo": 120.0
            },
            {
                "start_time": 63.0204545,
                "end_time": 63.1409091,
                "pitch": 45,
                "velocity": 101,
                "duration": 0.1204545,
                "tempo": 120.0
            },
            {
                "start_time": 63.1409091,
                "end_time": 63.2613636,
                "pitch": 46,
                "velocity": 101,
                "duration": 0.1204545,
                "tempo": 120.0
            },
            {
                "start_time": 63.2613636,
                "end_time": 63.3795455,
                "pitch": 46,
                "velocity": 101,
                "duration": 0.1181818,
                "tempo": 120.0
            },
            {
                "start_time": 63.3795455,
                "end_time": 63.5,
                "pitch": 46,
                "velocity": 101,
                "duration": 0.1204545,
                "tempo": 120.0
            },
            {
                "start_time": 63.5,
                "end_time": 63.6204545,
                "pitch": 58,
                "velocity": 101,
                "duration": 0.1204545,
                "tempo": 120.0
            },
            {
                "start_time": 63.6204545,
                "end_time": 63.7409091,
                "pitch": 46,
                "velocity": 101,
                "duration": 0.1204545,
                "tempo": 120.0
            },
            {
                "start_time": 63.8613636,
                "end_time": 63.9818182,
                "pitch": 44,
                "velocity": 101,
                "duration": 0.1204545,
                "tempo": 120.0
            },
            {
                "start_time": 64.1022727,
                "end_time": 64.2204545,
                "pitch": 46,
                "velocity": 101,
                "duration": 0.1181818,
                "tempo": 120.0
            },
            {
                "start_time": 64.2204545,
                "end_time": 64.3409091,
                "pitch": 46,
                "velocity": 101,
                "duration": 0.1204545,
                "tempo": 120.0
            },
            {
                "start_time": 64.3409091,
                "end_time": 64.4613636,
                "pitch": 46,
                "velocity": 101,
                "duration": 0.1204545,
                "tempo": 120.0
            },
            {
                "start_time": 64.4613636,
                "end_time": 64.5818182,
                "pitch": 46,
                "velocity": 101,
                "duration": 0.1204545,
                "tempo": 120.0
            },
            {
                "start_time": 64.5818182,
                "end_time": 64.7022727,
                "pitch": 46,
                "velocity": 101,
                "duration": 0.1204545,
                "tempo": 120.0
            },
            {
                "start_time": 64.7022727,
                "end_time": 64.8227273,
                "pitch": 46,
                "velocity": 101,
                "duration": 0.1204545,
                "tempo": 120.0
            },
            {
                "start_time": 64.8227273,
                "end_time": 64.9431818,
                "pitch": 44,
                "velocity": 101,
                "duration": 0.1204545,
                "tempo": 120.0
            },
            {
                "start_time": 64.9431818,
                "end_time": 65.0590909,
                "pitch": 46,
                "velocity": 101,
                "duration": 0.1159091,
                "tempo": 120.0
            },
            {
                "start_time": 64.9431818,
                "end_time": 65.0590909,
                "pitch": 46,
                "velocity": 101,
                "duration": 0.1159091,
                "tempo": 120.0
            },
            {
                "start_time": 65.0590909,
                "end_time": 65.1772727,
                "pitch": 44,
                "velocity": 101,
                "duration": 0.1181818,
                "tempo": 120.0
            },
            {
                "start_time": 65.0590909,
                "end_time": 65.1772727,
                "pitch": 44,
                "velocity": 101,
                "duration": 0.1181818,
                "tempo": 120.0
            },
            {
                "start_time": 65.1772727,
                "end_time": 65.2954545,
                "pitch": 37,
                "velocity": 101,
                "duration": 0.1181818,
                "tempo": 120.0
            },
            {
                "start_time": 65.2954545,
                "end_time": 65.4136364,
                "pitch": 37,
                "velocity": 101,
                "duration": 0.1181818,
                "tempo": 120.0
            },
            {
                "start_time": 65.4136364,
                "end_time": 65.5340909,
                "pitch": 49,
                "velocity": 101,
                "duration": 0.1204545,
                "tempo": 120.0
            },
            {
                "start_time": 65.5340909,
                "end_time": 65.6545455,
                "pitch": 37,
                "velocity": 101,
                "duration": 0.1204545,
                "tempo": 120.0
            },
            {
                "start_time": 65.775,
                "end_time": 65.8954545,
                "pitch": 37,
                "velocity": 101,
                "duration": 0.1204545,
                "tempo": 120.0
            },
            {
                "start_time": 65.8954545,
                "end_time": 66.0159091,
                "pitch": 49,
                "velocity": 101,
                "duration": 0.1204545,
                "tempo": 120.0
            },
            {
                "start_time": 66.1340909,
                "end_time": 66.2545455,
                "pitch": 39,
                "velocity": 101,
                "duration": 0.1204545,
                "tempo": 120.0
            },
            {
                "start_time": 66.2545455,
                "end_time": 66.375,
                "pitch": 39,
                "velocity": 101,
                "duration": 0.1204545,
                "tempo": 120.0
            },
            {
                "start_time": 66.375,
                "end_time": 66.4954545,
                "pitch": 51,
                "velocity": 101,
                "duration": 0.1204545,
                "tempo": 120.0
            },
            {
                "start_time": 66.4954545,
                "end_time": 66.6159091,
                "pitch": 39,
                "velocity": 101,
                "duration": 0.1204545,
                "tempo": 120.0
            },
            {
                "start_time": 66.6159091,
                "end_time": 66.7363636,
                "pitch": 42,
                "velocity": 101,
                "duration": 0.1204545,
                "tempo": 120.0
            },
            {
                "start_time": 66.6159091,
                "end_time": 66.7363636,
                "pitch": 42,
                "velocity": 101,
                "duration": 0.1204545,
                "tempo": 120.0
            },
            {
                "start_time": 66.7363636,
                "end_time": 66.8568182,
                "pitch": 44,
                "velocity": 101,
                "duration": 0.1204545,
                "tempo": 120.0
            },
            {
                "start_time": 66.8568182,
                "end_time": 66.9772727,
                "pitch": 45,
                "velocity": 101,
                "duration": 0.1204545,
                "tempo": 120.0
            },
            {
                "start_time": 66.9772727,
                "end_time": 67.0977273,
                "pitch": 46,
                "velocity": 101,
                "duration": 0.1204545,
                "tempo": 120.0
            },
            {
                "start_time": 67.0977273,
                "end_time": 67.2181818,
                "pitch": 46,
                "velocity": 101,
                "duration": 0.1204545,
                "tempo": 120.0
            },
            {
                "start_time": 67.2181818,
                "end_time": 67.3386364,
                "pitch": 46,
                "velocity": 101,
                "duration": 0.1204545,
                "tempo": 120.0
            },
            {
                "start_time": 67.3386364,
                "end_time": 67.4590909,
                "pitch": 58,
                "velocity": 101,
                "duration": 0.1204545,
                "tempo": 120.0
            },
            {
                "start_time": 67.4590909,
                "end_time": 67.5795455,
                "pitch": 46,
                "velocity": 101,
                "duration": 0.1204545,
                "tempo": 120.0
            },
            {
                "start_time": 67.7,
                "end_time": 67.8204545,
                "pitch": 44,
                "velocity": 101,
                "duration": 0.1204545,
                "tempo": 120.0
            },
            {
                "start_time": 67.9386364,
                "end_time": 68.0568182,
                "pitch": 46,
                "velocity": 101,
                "duration": 0.1181818,
                "tempo": 120.0
            },
            {
                "start_time": 68.0568182,
                "end_time": 68.175,
                "pitch": 46,
                "velocity": 101,
                "duration": 0.1181818,
                "tempo": 120.0
            },
            {
                "start_time": 68.175,
                "end_time": 68.2931818,
                "pitch": 46,
                "velocity": 101,
                "duration": 0.1181818,
                "tempo": 120.0
            },
            {
                "start_time": 68.2931818,
                "end_time": 68.4113636,
                "pitch": 58,
                "velocity": 101,
                "duration": 0.1181818,
                "tempo": 120.0
            },
            {
                "start_time": 68.4113636,
                "end_time": 68.5318182,
                "pitch": 46,
                "velocity": 101,
                "duration": 0.1204545,
                "tempo": 120.0
            },
            {
                "start_time": 68.65,
                "end_time": 68.7704545,
                "pitch": 46,
                "velocity": 101,
                "duration": 0.1204545,
                "tempo": 120.0
            },
            {
                "start_time": 68.7704545,
                "end_time": 68.8909091,
                "pitch": 46,
                "velocity": 101,
                "duration": 0.1204545,
                "tempo": 120.0
            },
            {
                "start_time": 69.0113636,
                "end_time": 69.1318182,
                "pitch": 47,
                "velocity": 101,
                "duration": 0.1204545,
                "tempo": 120.0
            }
        ],
        "Electric Piano 1": [
            {
                "start_time": 3.9590909,
                "end_time": 4.3181818,
                "pitch": 69,
                "velocity": 64,
                "duration": 0.3590909,
                "tempo": 120.0
            },
            {
                "start_time": 4.3181818,
                "end_time": 4.5568182,
                "pitch": 72,
                "velocity": 64,
                "duration": 0.2386364,
                "tempo": 120.0
            },
            {
                "start_time": 4.5568182,
                "end_time": 4.6772727,
                "pitch": 74,
                "velocity": 64,
                "duration": 0.1204545,
                "tempo": 120.0
            },
            {
                "start_time": 4.6772727,
                "end_time": 4.7977273,
                "pitch": 72,
                "velocity": 64,
                "duration": 0.1204545,
                "tempo": 120.0
            },
            {
                "start_time": 4.7977273,
                "end_time": 5.6340909,
                "pitch": 75,
                "velocity": 64,
                "duration": 0.8363636,
                "tempo": 120.0
            },
            {
                "start_time": 4.7977273,
                "end_time": 5.6340909,
                "pitch": 75,
                "velocity": 64,
                "duration": 0.8363636,
                "tempo": 120.0
            },
            {
                "start_time": 5.6340909,
                "end_time": 5.7522727,
                "pitch": 69,
                "velocity": 64,
                "duration": 0.1181818,
                "tempo": 120.0
            },
            {
                "start_time": 5.7522727,
                "end_time": 6.1090909,
                "pitch": 81,
                "velocity": 64,
                "duration": 0.3568182,
                "tempo": 120.0
            },
            {
                "start_time": 6.1090909,
                "end_time": 6.35,
                "pitch": 76,
                "velocity": 64,
                "duration": 0.2409091,
                "tempo": 120.0
            },
            {
                "start_time": 6.35,
                "end_time": 6.4704545,
                "pitch": 74,
                "velocity": 64,
                "duration": 0.1204545,
                "tempo": 120.0
            },
            {
                "start_time": 6.4704545,
                "end_time": 6.5909091,
                "pitch": 72,
                "velocity": 64,
                "duration": 0.1204545,
                "tempo": 120.0
            },
            {
                "start_time": 6.5909091,
                "end_time": 6.65,
                "pitch": 74,
                "velocity": 64,
                "duration": 0.0590909,
                "tempo": 120.0
            },
            {
                "start_time": 6.7090909,
                "end_time": 6.8295455,
                "pitch": 75,
                "velocity": 64,
                "duration": 0.1204545,
                "tempo": 120.0
            },
            {
                "start_time": 6.95,
                "end_time": 7.0704545,
                "pitch": 76,
                "velocity": 64,
                "duration": 0.1204545,
                "tempo": 120.0
            },
            {
                "start_time": 7.1909091,
                "end_time": 7.3113636,
                "pitch": 74,
                "velocity": 64,
                "duration": 0.1204545,
                "tempo": 120.0
            },
            {
                "start_time": 7.4318182,
                "end_time": 7.5522727,
                "pitch": 72,
                "velocity": 64,
                "duration": 0.1204545,
                "tempo": 120.0
            },
            {
                "start_time": 7.6727273,
                "end_time": 10.7886364,
                "pitch": 73,
                "velocity": 64,
                "duration": 3.1159091,
                "tempo": 120.0
            },
            {
                "start_time": 10.7886364,
                "end_time": 10.9090909,
                "pitch": 72,
                "velocity": 64,
                "duration": 0.1204545,
                "tempo": 120.0
            },
            {
                "start_time": 10.9090909,
                "end_time": 11.0295455,
                "pitch": 74,
                "velocity": 64,
                "duration": 0.1204545,
                "tempo": 120.0
            },
            {
                "start_time": 11.0295455,
                "end_time": 11.2886364,
                "pitch": 75,
                "velocity": 64,
                "duration": 0.2590909,
                "tempo": 120.0
            },
            {
                "start_time": 11.2886364,
                "end_time": 11.3886364,
                "pitch": 76,
                "velocity": 64,
                "duration": 0.1,
                "tempo": 120.0
            },
            {
                "start_time": 11.3886364,
                "end_time": 11.5068182,
                "pitch": 74,
                "velocity": 64,
                "duration": 0.1181818,
                "tempo": 120.0
            },
            {
                "start_time": 11.5068182,
                "end_time": 11.9795455,
                "pitch": 81,
                "velocity": 64,
                "duration": 0.4727273,
                "tempo": 120.0
            },
            {
                "start_time": 11.9818182,
                "end_time": 12.4613636,
                "pitch": 76,
                "velocity": 64,
                "duration": 0.4795455,
                "tempo": 120.0
            },
            {
                "start_time": 12.4613636,
                "end_time": 13.425,
                "pitch": 84,
                "velocity": 64,
                "duration": 0.9636364,
                "tempo": 120.0
            },
            {
                "start_time": 13.425,
                "end_time": 13.4863636,
                "pitch": 86,
                "velocity": 64,
                "duration": 0.0613636,
                "tempo": 120.0
            },
            {
                "start_time": 13.5454545,
                "end_time": 13.7863636,
                "pitch": 87,
                "velocity": 64,
                "duration": 0.2409091,
                "tempo": 120.0
            },
            {
                "start_time": 13.7863636,
                "end_time": 13.8659091,
                "pitch": 91,
                "velocity": 64,
                "duration": 0.0795455,
                "tempo": 120.0
            },
            {
                "start_time": 13.8659091,
                "end_time": 13.9068182,
                "pitch": 91,
                "velocity": 64,
                "duration": 0.0409091,
                "tempo": 120.0
            },
            {
                "start_time": 13.9068182,
                "end_time": 14.5068182,
                "pitch": 87,
                "velocity": 64,
                "duration": 0.6,
                "tempo": 120.0
            },
            {
                "start_time": 14.5068182,
                "end_time": 14.6272727,
                "pitch": 93,
                "velocity": 64,
                "duration": 0.1204545,
                "tempo": 120.0
            },
            {
                "start_time": 14.5068182,
                "end_time": 14.7477273,
                "pitch": 56,
                "velocity": 64,
                "duration": 0.2409091,
                "tempo": 120.0
            },
            {
                "start_time": 14.6272727,
                "end_time": 14.7477273,
                "pitch": 88,
                "velocity": 64,
                "duration": 0.1204545,
                "tempo": 120.0
            },
            {
                "start_time": 14.7477273,
                "end_time": 14.8681818,
                "pitch": 93,
                "velocity": 64,
                "duration": 0.1204545,
                "tempo": 120.0
            },
            {
                "start_time": 14.6272727,
                "end_time": 14.8681818,
                "pitch": 102,
                "velocity": 64,
                "duration": 0.2409091,
                "tempo": 120.0
            },
            {
                "start_time": 14.7477273,
                "end_time": 14.9886364,
                "pitch": 56,
                "velocity": 64,
                "duration": 0.2409091,
                "tempo": 120.0
            },
            {
                "start_time": 14.8681818,
                "end_time": 14.9886364,
                "pitch": 88,
                "velocity": 64,
                "duration": 0.1204545,
                "tempo": 120.0
            },
            {
                "start_time": 14.9886364,
                "end_time": 15.1090909,
                "pitch": 93,
                "velocity": 64,
                "duration": 0.1204545,
                "tempo": 120.0
            },
            {
                "start_time": 14.8681818,
                "end_time": 15.1090909,
                "pitch": 102,
                "velocity": 64,
                "duration": 0.2409091,
                "tempo": 120.0
            },
            {
                "start_time": 15.1090909,
                "end_time": 15.2272727,
                "pitch": 88,
                "velocity": 64,
                "duration": 0.1181818,
                "tempo": 120.0
            },
            {
                "start_time": 14.9886364,
                "end_time": 15.3454545,
                "pitch": 56,
                "velocity": 64,
                "duration": 0.3568182,
                "tempo": 120.0
            },
            {
                "start_time": 15.2272727,
                "end_time": 15.3454545,
                "pitch": 86,
                "velocity": 64,
                "duration": 0.1181818,
                "tempo": 120.0
            },
            {
                "start_time": 15.3454545,
                "end_time": 15.4636364,
                "pitch": 81,
                "velocity": 64,
                "duration": 0.1181818,
                "tempo": 120.0
            },
            {
                "start_time": 15.4636364,
                "end_time": 16.4204545,
                "pitch": 84,
                "velocity": 64,
                "duration": 0.9568182,
                "tempo": 120.0
            },
            {
                "start_time": 16.4204545,
                "end_time": 17.4659091,
                "pitch": 85,
                "velocity": 64,
                "duration": 1.0454545,
                "tempo": 120.0
            },
            {
                "start_time": 17.4659091,
                "end_time": 18.4590909,
                "pitch": 87,
                "velocity": 64,
                "duration": 0.9931818,
                "tempo": 120.0
            },
            {
                "start_time": 18.4590909,
                "end_time": 18.5181818,
                "pitch": 84,
                "velocity": 64,
                "duration": 0.0590909,
                "tempo": 120.0
            },
            {
                "start_time": 18.4590909,
                "end_time": 18.5181818,
                "pitch": 84,
                "velocity": 64,
                "duration": 0.0590909,
                "tempo": 120.0
            },
            {
                "start_time": 18.5795455,
                "end_time": 18.6386364,
                "pitch": 86,
                "velocity": 64,
                "duration": 0.0590909,
                "tempo": 120.0
            },
            {
                "start_time": 18.7,
                "end_time": 18.7613636,
                "pitch": 84,
                "velocity": 64,
                "duration": 0.0613636,
                "tempo": 120.0
            },
            {
                "start_time": 18.8204545,
                "end_time": 18.9409091,
                "pitch": 87,
                "velocity": 64,
                "duration": 0.1204545,
                "tempo": 120.0
            },
            {
                "start_time": 18.9409091,
                "end_time": 19.0204545,
                "pitch": 86,
                "velocity": 64,
                "duration": 0.0795455,
                "tempo": 120.0
            },
            {
                "start_time": 19.0204545,
                "end_time": 19.0613636,
                "pitch": 86,
                "velocity": 64,
                "duration": 0.0409091,
                "tempo": 120.0
            },
            {
                "start_time": 19.0613636,
                "end_time": 19.1227273,
                "pitch": 84,
                "velocity": 64,
                "duration": 0.0613636,
                "tempo": 120.0
            },
            {
                "start_time": 19.1818182,
                "end_time": 19.3022727,
                "pitch": 83,
                "velocity": 64,
                "duration": 0.1204545,
                "tempo": 120.0
            },
            {
                "start_time": 15.4636364,
                "end_time": 19.3022727,
                "pitch": 88,
                "velocity": 64,
                "duration": 3.8386364,
                "tempo": 120.0
            },
            {
                "start_time": 19.3022727,
                "end_time": 20.2681818,
                "pitch": 84,
                "velocity": 64,
                "duration": 0.9659091,
                "tempo": 120.0
            },
            {
                "start_time": 20.2681818,
                "end_time": 21.0022727,
                "pitch": 85,
                "velocity": 64,
                "duration": 0.7340909,
                "tempo": 120.0
            },
            {
                "start_time": 21.0022727,
                "end_time": 21.2204545,
                "pitch": 86,
                "velocity": 64,
                "duration": 0.2181818,
                "tempo": 120.0
            },
            {
                "start_time": 21.2204545,
                "end_time": 23.1409091,
                "pitch": 81,
                "velocity": 64,
                "duration": 1.9204545,
                "tempo": 120.0
            },
            {
                "start_time": 23.1409091,
                "end_time": 23.1431818,
                "pitch": 83,
                "velocity": 64,
                "duration": 0.0022727,
                "tempo": 120.0
            },
            {
                "start_time": 23.1431818,
                "end_time": 23.5045455,
                "pitch": 71,
                "velocity": 64,
                "duration": 0.3613636,
                "tempo": 120.0
            },
            {
                "start_time": 23.5045455,
                "end_time": 23.7454545,
                "pitch": 74,
                "velocity": 64,
                "duration": 0.2409091,
                "tempo": 120.0
            },
            {
                "start_time": 23.7454545,
                "end_time": 23.8636364,
                "pitch": 76,
                "velocity": 64,
                "duration": 0.1181818,
                "tempo": 120.0
            },
            {
                "start_time": 23.8636364,
                "end_time": 23.9795455,
                "pitch": 74,
                "velocity": 64,
                "duration": 0.1159091,
                "tempo": 120.0
            },
            {
                "start_time": 23.9795455,
                "end_time": 24.8181818,
                "pitch": 77,
                "velocity": 64,
                "duration": 0.8386364,
                "tempo": 120.0
            },
            {
                "start_time": 23.9795455,
                "end_time": 24.8181818,
                "pitch": 77,
                "velocity": 64,
                "duration": 0.8386364,
                "tempo": 120.0
            },
            {
                "start_time": 24.8181818,
                "end_time": 24.9386364,
                "pitch": 71,
                "velocity": 64,
                "duration": 0.1204545,
                "tempo": 120.0
            },
            {
                "start_time": 24.9386364,
                "end_time": 25.3022727,
                "pitch": 83,
                "velocity": 64,
                "duration": 0.3636364,
                "tempo": 120.0
            },
            {
                "start_time": 25.3022727,
                "end_time": 25.5431818,
                "pitch": 78,
                "velocity": 64,
                "duration": 0.2409091,
                "tempo": 120.0
            },
            {
                "start_time": 25.5431818,
                "end_time": 25.6636364,
                "pitch": 76,
                "velocity": 64,
                "duration": 0.1204545,
                "tempo": 120.0
            },
            {
                "start_time": 25.6636364,
                "end_time": 25.7840909,
                "pitch": 74,
                "velocity": 64,
                "duration": 0.1204545,
                "tempo": 120.0
            },
            {
                "start_time": 25.7840909,
                "end_time": 25.8431818,
                "pitch": 76,
                "velocity": 64,
                "duration": 0.0590909,
                "tempo": 120.0
            },
            {
                "start_time": 25.9045455,
                "end_time": 26.025,
                "pitch": 77,
                "velocity": 64,
                "duration": 0.1204545,
                "tempo": 120.0
            },
            {
                "start_time": 26.1454545,
                "end_time": 26.2659091,
                "pitch": 78,
                "velocity": 64,
                "duration": 0.1204545,
                "tempo": 120.0
            },
            {
                "start_time": 26.3863636,
                "end_time": 26.5068182,
                "pitch": 76,
                "velocity": 64,
                "duration": 0.1204545,
                "tempo": 120.0
            },
            {
                "start_time": 26.6272727,
                "end_time": 26.7477273,
                "pitch": 74,
                "velocity": 64,
                "duration": 0.1204545,
                "tempo": 120.0
            },
            {
                "start_time": 26.8681818,
                "end_time": 29.9886364,
                "pitch": 75,
                "velocity": 64,
                "duration": 3.1204545,
                "tempo": 120.0
            },
            {
                "start_time": 29.9886364,
                "end_time": 30.1068182,
                "pitch": 74,
                "velocity": 64,
                "duration": 0.1181818,
                "tempo": 120.0
            },
            {
                "start_time": 30.1068182,
                "end_time": 30.2227273,
                "pitch": 76,
                "velocity": 64,
                "duration": 0.1159091,
                "tempo": 120.0
            },
            {
                "start_time": 30.2227273,
                "end_time": 30.5795455,
                "pitch": 77,
                "velocity": 64,
                "duration": 0.3568182,
                "tempo": 120.0
            },
            {
                "start_time": 30.5795455,
                "end_time": 30.7,
                "pitch": 76,
                "velocity": 64,
                "duration": 0.1204545,
                "tempo": 120.0
            },
            {
                "start_time": 30.7,
                "end_time": 31.1818182,
                "pitch": 83,
                "velocity": 64,
                "duration": 0.4818182,
                "tempo": 120.0
            },
            {
                "start_time": 31.1818182,
                "end_time": 31.6636364,
                "pitch": 78,
                "velocity": 64,
                "duration": 0.4818182,
                "tempo": 120.0
            },
            {
                "start_time": 31.6636364,
                "end_time": 32.625,
                "pitch": 86,
                "velocity": 64,
                "duration": 0.9613636,
                "tempo": 120.0
            },
            {
                "start_time": 19.3022727,
                "end_time": 32.6863636,
                "pitch": 88,
                "velocity": 64,
                "duration": 13.3840909,
                "tempo": 120.0
            },
            {
                "start_time": 32.625,
                "end_time": 32.6863636,
                "pitch": 88,
                "velocity": 64,
                "duration": 0.0613636,
                "tempo": 120.0
            },
            {
                "start_time": 15.3454545,
                "end_time": 32.9886364,
                "pitch": 56,
                "velocity": 64,
                "duration": 17.6431818,
                "tempo": 120.0
            },
            {
                "start_time": 32.7454545,
                "end_time": 32.9886364,
                "pitch": 89,
                "velocity": 64,
                "duration": 0.2431818,
                "tempo": 120.0
            },
            {
                "start_time": 32.9886364,
                "end_time": 33.1068182,
                "pitch": 93,
                "velocity": 64,
                "duration": 0.1181818,
                "tempo": 120.0
            },
            {
                "start_time": 15.1090909,
                "end_time": 33.1068182,
                "pitch": 102,
                "velocity": 64,
                "duration": 17.9977273,
                "tempo": 120.0
            },
            {
                "start_time": 33.1068182,
                "end_time": 33.7090909,
                "pitch": 89,
                "velocity": 64,
                "duration": 0.6022727,
                "tempo": 120.0
            },
            {
                "start_time": 33.7090909,
                "end_time": 33.8272727,
                "pitch": 95,
                "velocity": 64,
                "duration": 0.1181818,
                "tempo": 120.0
            },
            {
                "start_time": 6.1090909,
                "end_time": 33.9454545,
                "pitch": 90,
                "velocity": 64,
                "duration": 27.8363636,
                "tempo": 120.0
            },
            {
                "start_time": 33.8272727,
                "end_time": 33.9454545,
                "pitch": 90,
                "velocity": 64,
                "duration": 0.1181818,
                "tempo": 120.0
            },
            {
                "start_time": 33.9454545,
                "end_time": 34.0636364,
                "pitch": 95,
                "velocity": 64,
                "duration": 0.1181818,
                "tempo": 120.0
            },
            {
                "start_time": 33.8272727,
                "end_time": 34.0636364,
                "pitch": 103,
                "velocity": 64,
                "duration": 0.2363636,
                "tempo": 120.0
            },
            {
                "start_time": 34.0636364,
                "end_time": 34.1818182,
                "pitch": 90,
                "velocity": 64,
                "duration": 0.1181818,
                "tempo": 120.0
            },
            {
                "start_time": 34.1818182,
                "end_time": 34.2977273,
                "pitch": 95,
                "velocity": 64,
                "duration": 0.1159091,
                "tempo": 120.0
            },
            {
                "start_time": 34.0636364,
                "end_time": 34.2977273,
                "pitch": 103,
                "velocity": 64,
                "duration": 0.2340909,
                "tempo": 120.0
            },
            {
                "start_time": 34.2977273,
                "end_time": 34.4181818,
                "pitch": 90,
                "velocity": 64,
                "duration": 0.1204545,
                "tempo": 120.0
            },
            {
                "start_time": 33.7090909,
                "end_time": 34.5386364,
                "pitch": 69,
                "velocity": 64,
                "duration": 0.8295455,
                "tempo": 120.0
            },
            {
                "start_time": 34.4181818,
                "end_time": 34.5386364,
                "pitch": 88,
                "velocity": 64,
                "duration": 0.1204545,
                "tempo": 120.0
            },
            {
                "start_time": 34.5386364,
                "end_time": 34.6590909,
                "pitch": 83,
                "velocity": 64,
                "duration": 0.1204545,
                "tempo": 120.0
            },
            {
                "start_time": 34.6590909,
                "end_time": 35.6181818,
                "pitch": 86,
                "velocity": 64,
                "duration": 0.9590909,
                "tempo": 120.0
            },
            {
                "start_time": 35.6181818,
                "end_time": 36.6568182,
                "pitch": 87,
                "velocity": 64,
                "duration": 1.0386364,
                "tempo": 120.0
            },
            {
                "start_time": 36.6568182,
                "end_time": 37.6522727,
                "pitch": 89,
                "velocity": 64,
                "duration": 0.9954545,
                "tempo": 120.0
            },
            {
                "start_time": 37.6522727,
                "end_time": 37.7113636,
                "pitch": 86,
                "velocity": 64,
                "duration": 0.0590909,
                "tempo": 120.0
            },
            {
                "start_time": 37.6522727,
                "end_time": 37.7113636,
                "pitch": 86,
                "velocity": 64,
                "duration": 0.0590909,
                "tempo": 120.0
            },
            {
                "start_time": 37.7704545,
                "end_time": 37.8318182,
                "pitch": 88,
                "velocity": 64,
                "duration": 0.0613636,
                "tempo": 120.0
            },
            {
                "start_time": 37.8909091,
                "end_time": 37.95,
                "pitch": 86,
                "velocity": 64,
                "duration": 0.0590909,
                "tempo": 120.0
            },
            {
                "start_time": 38.0113636,
                "end_time": 38.1295455,
                "pitch": 89,
                "velocity": 64,
                "duration": 0.1181818,
                "tempo": 120.0
            },
            {
                "start_time": 38.1295455,
                "end_time": 38.2090909,
                "pitch": 88,
                "velocity": 64,
                "duration": 0.0795455,
                "tempo": 120.0
            },
            {
                "start_time": 38.2090909,
                "end_time": 38.25,
                "pitch": 88,
                "velocity": 64,
                "duration": 0.0409091,
                "tempo": 120.0
            },
            {
                "start_time": 38.25,
                "end_time": 38.3113636,
                "pitch": 86,
                "velocity": 64,
                "duration": 0.0613636,
                "tempo": 120.0
            },
            {
                "start_time": 38.2090909,
                "end_time": 38.4909091,
                "pitch": 85,
                "velocity": 64,
                "duration": 0.2818182,
                "tempo": 120.0
            },
            {
                "start_time": 38.3704545,
                "end_time": 38.4909091,
                "pitch": 85,
                "velocity": 64,
                "duration": 0.1204545,
                "tempo": 120.0
            },
            {
                "start_time": 38.4909091,
                "end_time": 39.4522727,
                "pitch": 86,
                "velocity": 64,
                "duration": 0.9613636,
                "tempo": 120.0
            },
            {
                "start_time": 39.4522727,
                "end_time": 40.1818182,
                "pitch": 87,
                "velocity": 64,
                "duration": 0.7295455,
                "tempo": 120.0
            },
            {
                "start_time": 40.1818182,
                "end_time": 40.4022727,
                "pitch": 88,
                "velocity": 64,
                "duration": 0.2204545,
                "tempo": 120.0
            },
            {
                "start_time": 40.4022727,
                "end_time": 42.2045455,
                "pitch": 83,
                "velocity": 64,
                "duration": 1.8022727,
                "tempo": 120.0
            },
            {
                "start_time": 49.9772727,
                "end_time": 50.3363636,
                "pitch": 70,
                "velocity": 64,
                "duration": 0.3590909,
                "tempo": 120.0
            },
            {
                "start_time": 50.3363636,
                "end_time": 50.5772727,
                "pitch": 73,
                "velocity": 64,
                "duration": 0.2409091,
                "tempo": 120.0
            },
            {
                "start_time": 50.5772727,
                "end_time": 50.6977273,
                "pitch": 75,
                "velocity": 64,
                "duration": 0.1204545,
                "tempo": 120.0
            },
            {
                "start_time": 50.6977273,
                "end_time": 50.8159091,
                "pitch": 73,
                "velocity": 64,
                "duration": 0.1181818,
                "tempo": 120.0
            },
            {
                "start_time": 50.3363636,
                "end_time": 50.8159091,
                "pitch": 76,
                "velocity": 64,
                "duration": 0.4795455,
                "tempo": 120.0
            },
            {
                "start_time": 50.8159091,
                "end_time": 51.6568182,
                "pitch": 76,
                "velocity": 64,
                "duration": 0.8409091,
                "tempo": 120.0
            },
            {
                "start_time": 50.8159091,
                "end_time": 51.6568182,
                "pitch": 76,
                "velocity": 64,
                "duration": 0.8409091,
                "tempo": 120.0
            },
            {
                "start_time": 51.6568182,
                "end_time": 51.7772727,
                "pitch": 70,
                "velocity": 64,
                "duration": 0.1204545,
                "tempo": 120.0
            },
            {
                "start_time": 51.7772727,
                "end_time": 52.1363636,
                "pitch": 82,
                "velocity": 64,
                "duration": 0.3590909,
                "tempo": 120.0
            },
            {
                "start_time": 52.1363636,
                "end_time": 52.375,
                "pitch": 77,
                "velocity": 64,
                "duration": 0.2386364,
                "tempo": 120.0
            },
            {
                "start_time": 52.375,
                "end_time": 52.4954545,
                "pitch": 75,
                "velocity": 64,
                "duration": 0.1204545,
                "tempo": 120.0
            },
            {
                "start_time": 52.4954545,
                "end_time": 52.6136364,
                "pitch": 73,
                "velocity": 64,
                "duration": 0.1181818,
                "tempo": 120.0
            },
            {
                "start_time": 52.6136364,
                "end_time": 52.6727273,
                "pitch": 75,
                "velocity": 64,
                "duration": 0.0590909,
                "tempo": 120.0
            },
            {
                "start_time": 52.7318182,
                "end_time": 52.8477273,
                "pitch": 76,
                "velocity": 64,
                "duration": 0.1159091,
                "tempo": 120.0
            },
            {
                "start_time": 52.9659091,
                "end_time": 53.0863636,
                "pitch": 77,
                "velocity": 64,
                "duration": 0.1204545,
                "tempo": 120.0
            },
            {
                "start_time": 53.2045455,
                "end_time": 53.325,
                "pitch": 75,
                "velocity": 64,
                "duration": 0.1204545,
                "tempo": 120.0
            },
            {
                "start_time": 53.4431818,
                "end_time": 53.5636364,
                "pitch": 73,
                "velocity": 64,
                "duration": 0.1204545,
                "tempo": 120.0
            },
            {
                "start_time": 31.6636364,
                "end_time": 56.7977273,
                "pitch": 74,
                "velocity": 64,
                "duration": 25.1340909,
                "tempo": 120.0
            },
            {
                "start_time": 53.6840909,
                "end_time": 56.7977273,
                "pitch": 74,
                "velocity": 64,
                "duration": 3.1136364,
                "tempo": 120.0
            },
            {
                "start_time": 56.7977273,
                "end_time": 56.9159091,
                "pitch": 73,
                "velocity": 64,
                "duration": 0.1181818,
                "tempo": 120.0
            },
            {
                "start_time": 56.9159091,
                "end_time": 57.0363636,
                "pitch": 75,
                "velocity": 64,
                "duration": 0.1204545,
                "tempo": 120.0
            },
            {
                "start_time": 57.0363636,
                "end_time": 57.3954545,
                "pitch": 76,
                "velocity": 64,
                "duration": 0.3590909,
                "tempo": 120.0
            },
            {
                "start_time": 57.3954545,
                "end_time": 57.5159091,
                "pitch": 75,
                "velocity": 64,
                "duration": 0.1204545,
                "tempo": 120.0
            },
            {
                "start_time": 57.5159091,
                "end_time": 57.9977273,
                "pitch": 82,
                "velocity": 64,
                "duration": 0.4818182,
                "tempo": 120.0
            },
            {
                "start_time": 57.9977273,
                "end_time": 58.4772727,
                "pitch": 77,
                "velocity": 64,
                "duration": 0.4795455,
                "tempo": 120.0
            },
            {
                "start_time": 58.4772727,
                "end_time": 59.4295455,
                "pitch": 85,
                "velocity": 64,
                "duration": 0.9522727,
                "tempo": 120.0
            },
            {
                "start_time": 59.4295455,
                "end_time": 59.4886364,
                "pitch": 87,
                "velocity": 64,
                "duration": 0.0590909,
                "tempo": 120.0
            },
            {
                "start_time": 59.5477273,
                "end_time": 59.7886364,
                "pitch": 88,
                "velocity": 64,
                "duration": 0.2409091,
                "tempo": 120.0
            },
            {
                "start_time": 59.7886364,
                "end_time": 59.9090909,
                "pitch": 92,
                "velocity": 64,
                "duration": 0.1204545,
                "tempo": 120.0
            },
            {
                "start_time": 33.1068182,
                "end_time": 59.9090909,
                "pitch": 102,
                "velocity": 64,
                "duration": 26.8022727,
                "tempo": 120.0
            },
            {
                "start_time": 59.9090909,
                "end_time": 60.5090909,
                "pitch": 88,
                "velocity": 64,
                "duration": 0.6,
                "tempo": 120.0
            },
            {
                "start_time": 60.5090909,
                "end_time": 60.6295455,
                "pitch": 94,
                "velocity": 64,
                "duration": 0.1204545,
                "tempo": 120.0
            },
            {
                "start_time": 59.9090909,
                "end_time": 60.6295455,
                "pitch": 102,
                "velocity": 64,
                "duration": 0.7204545,
                "tempo": 120.0
            },
            {
                "start_time": 60.5090909,
                "end_time": 60.75,
                "pitch": 64,
                "velocity": 64,
                "duration": 0.2409091,
                "tempo": 120.0
            },
            {
                "start_time": 60.6295455,
                "end_time": 60.75,
                "pitch": 89,
                "velocity": 64,
                "duration": 0.1204545,
                "tempo": 120.0
            },
            {
                "start_time": 60.75,
                "end_time": 60.8704545,
                "pitch": 94,
                "velocity": 64,
                "duration": 0.1204545,
                "tempo": 120.0
            },
            {
                "start_time": 60.6295455,
                "end_time": 60.8704545,
                "pitch": 102,
                "velocity": 64,
                "duration": 0.2409091,
                "tempo": 120.0
            },
            {
                "start_time": 60.75,
                "end_time": 60.9909091,
                "pitch": 64,
                "velocity": 64,
                "duration": 0.2409091,
                "tempo": 120.0
            },
            {
                "start_time": 60.8704545,
                "end_time": 60.9909091,
                "pitch": 89,
                "velocity": 64,
                "duration": 0.1204545,
                "tempo": 120.0
            },
            {
                "start_time": 60.9909091,
                "end_time": 61.1113636,
                "pitch": 94,
                "velocity": 64,
                "duration": 0.1204545,
                "tempo": 120.0
            },
            {
                "start_time": 60.8704545,
                "end_time": 61.1113636,
                "pitch": 102,
                "velocity": 64,
                "duration": 0.2409091,
                "tempo": 120.0
            },
            {
                "start_time": 61.1113636,
                "end_time": 61.2318182,
                "pitch": 89,
                "velocity": 64,
                "duration": 0.1204545,
                "tempo": 120.0
            },
            {
                "start_time": 60.9909091,
                "end_time": 61.35,
                "pitch": 64,
                "velocity": 64,
                "duration": 0.3590909,
                "tempo": 120.0
            },
            {
                "start_time": 61.2318182,
                "end_time": 61.35,
                "pitch": 87,
                "velocity": 64,
                "duration": 0.1181818,
                "tempo": 120.0
            },
            {
                "start_time": 61.35,
                "end_time": 61.4704545,
                "pitch": 82,
                "velocity": 64,
                "duration": 0.1204545,
                "tempo": 120.0
            },
            {
                "start_time": 61.4704545,
                "end_time": 62.4227273,
                "pitch": 85,
                "velocity": 64,
                "duration": 0.9522727,
                "tempo": 120.0
            },
            {
                "start_time": 62.4227273,
                "end_time": 63.4590909,
                "pitch": 86,
                "velocity": 64,
                "duration": 1.0363636,
                "tempo": 120.0
            },
            {
                "start_time": 63.4590909,
                "end_time": 64.4613636,
                "pitch": 88,
                "velocity": 64,
                "duration": 1.0022727,
                "tempo": 120.0
            },
            {
                "start_time": 64.4613636,
                "end_time": 64.5204545,
                "pitch": 85,
                "velocity": 64,
                "duration": 0.0590909,
                "tempo": 120.0
            },
            {
                "start_time": 64.4613636,
                "end_time": 64.5204545,
                "pitch": 85,
                "velocity": 64,
                "duration": 0.0590909,
                "tempo": 120.0
            },
            {
                "start_time": 64.5818182,
                "end_time": 64.6409091,
                "pitch": 87,
                "velocity": 64,
                "duration": 0.0590909,
                "tempo": 120.0
            },
            {
                "start_time": 64.7022727,
                "end_time": 64.7613636,
                "pitch": 85,
                "velocity": 64,
                "duration": 0.0590909,
                "tempo": 120.0
            },
            {
                "start_time": 64.8227273,
                "end_time": 64.9431818,
                "pitch": 88,
                "velocity": 64,
                "duration": 0.1204545,
                "tempo": 120.0
            },
            {
                "start_time": 64.9431818,
                "end_time": 65.0204545,
                "pitch": 87,
                "velocity": 64,
                "duration": 0.0772727,
                "tempo": 120.0
            },
            {
                "start_time": 65.0204545,
                "end_time": 65.0613636,
                "pitch": 87,
                "velocity": 64,
                "duration": 0.0409091,
                "tempo": 120.0
            },
            {
                "start_time": 65.0613636,
                "end_time": 65.1181818,
                "pitch": 85,
                "velocity": 64,
                "duration": 0.0568182,
                "tempo": 120.0
            },
            {
                "start_time": 65.1772727,
                "end_time": 65.2954545,
                "pitch": 84,
                "velocity": 64,
                "duration": 0.1181818,
                "tempo": 120.0
            },
            {
                "start_time": 65.2954545,
                "end_time": 66.2545455,
                "pitch": 85,
                "velocity": 64,
                "duration": 0.9590909,
                "tempo": 120.0
            },
            {
                "start_time": 66.2545455,
                "end_time": 66.9954545,
                "pitch": 86,
                "velocity": 64,
                "duration": 0.7409091,
                "tempo": 120.0
            },
            {
                "start_time": 66.9954545,
                "end_time": 67.2181818,
                "pitch": 87,
                "velocity": 64,
                "duration": 0.2227273,
                "tempo": 120.0
            },
            {
                "start_time": 65.0204545,
                "end_time": 69.1318182,
                "pitch": 82,
                "velocity": 64,
                "duration": 4.1113636,
                "tempo": 120.0
            },
            {
                "start_time": 67.2181818,
                "end_time": 69.1318182,
                "pitch": 82,
                "velocity": 64,
                "duration": 1.9136364,
                "tempo": 120.0
            }
        ],
        "Church Organ": [
            {
                "start_time": 3.8386364,
                "end_time": 6.8295455,
                "pitch": 64,
                "velocity": 101,
                "duration": 2.9909091,
                "tempo": 120.0
            },
            {
                "start_time": 6.8295455,
                "end_time": 6.95,
                "pitch": 64,
                "velocity": 101,
                "duration": 0.1204545,
                "tempo": 120.0
            },
            {
                "start_time": 7.0704545,
                "end_time": 7.1909091,
                "pitch": 60,
                "velocity": 101,
                "duration": 0.1204545,
                "tempo": 120.0
            },
            {
                "start_time": 7.3113636,
                "end_time": 7.4318182,
                "pitch": 57,
                "velocity": 101,
                "duration": 0.1204545,
                "tempo": 120.0
            },
            {
                "start_time": 7.5522727,
                "end_time": 10.9090909,
                "pitch": 69,
                "velocity": 101,
                "duration": 3.3568182,
                "tempo": 120.0
            },
            {
                "start_time": 10.9090909,
                "end_time": 11.0295455,
                "pitch": 69,
                "velocity": 101,
                "duration": 0.1204545,
                "tempo": 120.0
            },
            {
                "start_time": 11.15,
                "end_time": 11.2704545,
                "pitch": 69,
                "velocity": 101,
                "duration": 0.1204545,
                "tempo": 120.0
            },
            {
                "start_time": 11.3886364,
                "end_time": 15.3454545,
                "pitch": 72,
                "velocity": 101,
                "duration": 3.9568182,
                "tempo": 120.0
            },
            {
                "start_time": 15.3454545,
                "end_time": 16.3,
                "pitch": 76,
                "velocity": 101,
                "duration": 0.9545455,
                "tempo": 120.0
            },
            {
                "start_time": 15.3454545,
                "end_time": 16.3,
                "pitch": 76,
                "velocity": 101,
                "duration": 0.9545455,
                "tempo": 120.0
            },
            {
                "start_time": 16.3,
                "end_time": 17.2659091,
                "pitch": 78,
                "velocity": 101,
                "duration": 0.9659091,
                "tempo": 120.0
            },
            {
                "start_time": 16.3,
                "end_time": 17.2659091,
                "pitch": 78,
                "velocity": 101,
                "duration": 0.9659091,
                "tempo": 120.0
            },
            {
                "start_time": 17.2659091,
                "end_time": 19.1818182,
                "pitch": 76,
                "velocity": 101,
                "duration": 1.9159091,
                "tempo": 120.0
            },
            {
                "start_time": 17.2659091,
                "end_time": 19.1818182,
                "pitch": 76,
                "velocity": 101,
                "duration": 1.9159091,
                "tempo": 120.0
            },
            {
                "start_time": 19.1818182,
                "end_time": 20.1477273,
                "pitch": 76,
                "velocity": 101,
                "duration": 0.9659091,
                "tempo": 120.0
            },
            {
                "start_time": 20.1477273,
                "end_time": 21.1022727,
                "pitch": 78,
                "velocity": 101,
                "duration": 0.9545455,
                "tempo": 120.0
            },
            {
                "start_time": 20.1477273,
                "end_time": 21.1022727,
                "pitch": 78,
                "velocity": 101,
                "duration": 0.9545455,
                "tempo": 120.0
            },
            {
                "start_time": 21.1022727,
                "end_time": 23.0227273,
                "pitch": 72,
                "velocity": 101,
                "duration": 1.9204545,
                "tempo": 120.0
            },
            {
                "start_time": 21.1022727,
                "end_time": 23.0227273,
                "pitch": 72,
                "velocity": 101,
                "duration": 1.9204545,
                "tempo": 120.0
            },
            {
                "start_time": 23.0227273,
                "end_time": 26.025,
                "pitch": 66,
                "velocity": 101,
                "duration": 3.0022727,
                "tempo": 120.0
            },
            {
                "start_time": 26.025,
                "end_time": 26.1454545,
                "pitch": 66,
                "velocity": 101,
                "duration": 0.1204545,
                "tempo": 120.0
            },
            {
                "start_time": 26.2659091,
                "end_time": 26.3863636,
                "pitch": 62,
                "velocity": 101,
                "duration": 0.1204545,
                "tempo": 120.0
            },
            {
                "start_time": 26.5068182,
                "end_time": 26.6272727,
                "pitch": 59,
                "velocity": 101,
                "duration": 0.1204545,
                "tempo": 120.0
            },
            {
                "start_time": 26.7477273,
                "end_time": 30.1068182,
                "pitch": 71,
                "velocity": 101,
                "duration": 3.3590909,
                "tempo": 120.0
            },
            {
                "start_time": 30.1068182,
                "end_time": 30.2227273,
                "pitch": 71,
                "velocity": 101,
                "duration": 0.1159091,
                "tempo": 120.0
            },
            {
                "start_time": 30.3409091,
                "end_time": 30.4590909,
                "pitch": 71,
                "velocity": 101,
                "duration": 0.1181818,
                "tempo": 120.0
            },
            {
                "start_time": 30.5795455,
                "end_time": 34.5386364,
                "pitch": 74,
                "velocity": 101,
                "duration": 3.9590909,
                "tempo": 120.0
            },
            {
                "start_time": 34.5386364,
                "end_time": 35.4977273,
                "pitch": 78,
                "velocity": 101,
                "duration": 0.9590909,
                "tempo": 120.0
            },
            {
                "start_time": 34.5386364,
                "end_time": 35.4977273,
                "pitch": 78,
                "velocity": 101,
                "duration": 0.9590909,
                "tempo": 120.0
            },
            {
                "start_time": 35.4977273,
                "end_time": 36.4590909,
                "pitch": 80,
                "velocity": 101,
                "duration": 0.9613636,
                "tempo": 120.0
            },
            {
                "start_time": 36.4590909,
                "end_time": 38.3704545,
                "pitch": 78,
                "velocity": 101,
                "duration": 1.9113636,
                "tempo": 120.0
            },
            {
                "start_time": 38.3704545,
                "end_time": 39.3318182,
                "pitch": 78,
                "velocity": 101,
                "duration": 0.9613636,
                "tempo": 120.0
            },
            {
                "start_time": 39.3318182,
                "end_time": 40.2840909,
                "pitch": 80,
                "velocity": 101,
                "duration": 0.9522727,
                "tempo": 120.0
            },
            {
                "start_time": 40.2840909,
                "end_time": 42.2045455,
                "pitch": 74,
                "velocity": 101,
                "duration": 1.9204545,
                "tempo": 120.0
            },
            {
                "start_time": 42.2045455,
                "end_time": 42.6818182,
                "pitch": 66,
                "velocity": 101,
                "duration": 0.4772727,
                "tempo": 120.0
            },
            {
                "start_time": 42.6818182,
                "end_time": 43.1568182,
                "pitch": 66,
                "velocity": 101,
                "duration": 0.475,
                "tempo": 120.0
            },
            {
                "start_time": 43.1568182,
                "end_time": 43.5136364,
                "pitch": 68,
                "velocity": 101,
                "duration": 0.3568182,
                "tempo": 120.0
            },
            {
                "start_time": 43.5136364,
                "end_time": 43.7909091,
                "pitch": 67,
                "velocity": 101,
                "duration": 0.2772727,
                "tempo": 120.0
            },
            {
                "start_time": 43.7909091,
                "end_time": 43.9909091,
                "pitch": 67,
                "velocity": 101,
                "duration": 0.2,
                "tempo": 120.0
            },
            {
                "start_time": 43.7909091,
                "end_time": 43.9909091,
                "pitch": 79,
                "velocity": 101,
                "duration": 0.2,
                "tempo": 120.0
            },
            {
                "start_time": 43.9909091,
                "end_time": 44.1136364,
                "pitch": 67,
                "velocity": 101,
                "duration": 0.1227273,
                "tempo": 120.0
            },
            {
                "start_time": 43.9909091,
                "end_time": 44.1136364,
                "pitch": 79,
                "velocity": 101,
                "duration": 0.1227273,
                "tempo": 120.0
            },
            {
                "start_time": 44.1136364,
                "end_time": 44.5931818,
                "pitch": 66,
                "velocity": 101,
                "duration": 0.4795455,
                "tempo": 120.0
            },
            {
                "start_time": 44.5931818,
                "end_time": 45.0704545,
                "pitch": 66,
                "velocity": 101,
                "duration": 0.4772727,
                "tempo": 120.0
            },
            {
                "start_time": 45.0704545,
                "end_time": 45.4318182,
                "pitch": 68,
                "velocity": 101,
                "duration": 0.3613636,
                "tempo": 120.0
            },
            {
                "start_time": 45.4318182,
                "end_time": 45.7113636,
                "pitch": 67,
                "velocity": 101,
                "duration": 0.2795455,
                "tempo": 120.0
            },
            {
                "start_time": 45.7113636,
                "end_time": 45.9090909,
                "pitch": 67,
                "velocity": 101,
                "duration": 0.1977273,
                "tempo": 120.0
            },
            {
                "start_time": 45.9090909,
                "end_time": 46.0272727,
                "pitch": 67,
                "velocity": 101,
                "duration": 0.1181818,
                "tempo": 120.0
            },
            {
                "start_time": 44.1136364,
                "end_time": 46.0295455,
                "pitch": 79,
                "velocity": 101,
                "duration": 1.9159091,
                "tempo": 120.0
            },
            {
                "start_time": 46.0272727,
                "end_time": 46.0295455,
                "pitch": 79,
                "velocity": 101,
                "duration": 0.0022727,
                "tempo": 120.0
            },
            {
                "start_time": 46.0295455,
                "end_time": 46.5022727,
                "pitch": 66,
                "velocity": 101,
                "duration": 0.4727273,
                "tempo": 120.0
            },
            {
                "start_time": 46.5022727,
                "end_time": 46.9840909,
                "pitch": 74,
                "velocity": 101,
                "duration": 0.4818182,
                "tempo": 120.0
            },
            {
                "start_time": 46.9840909,
                "end_time": 47.3431818,
                "pitch": 76,
                "velocity": 101,
                "duration": 0.3590909,
                "tempo": 120.0
            },
            {
                "start_time": 47.3431818,
                "end_time": 47.6227273,
                "pitch": 79,
                "velocity": 101,
                "duration": 0.2795455,
                "tempo": 120.0
            },
            {
                "start_time": 36.4590909,
                "end_time": 47.6227273,
                "pitch": 91,
                "velocity": 101,
                "duration": 11.1636364,
                "tempo": 120.0
            },
            {
                "start_time": 47.6227273,
                "end_time": 47.8227273,
                "pitch": 79,
                "velocity": 101,
                "duration": 0.2,
                "tempo": 120.0
            },
            {
                "start_time": 47.8227273,
                "end_time": 47.9431818,
                "pitch": 79,
                "velocity": 101,
                "duration": 0.1204545,
                "tempo": 120.0
            },
            {
                "start_time": 47.9431818,
                "end_time": 48.425,
                "pitch": 66,
                "velocity": 101,
                "duration": 0.4818182,
                "tempo": 120.0
            },
            {
                "start_time": 48.425,
                "end_time": 48.9045455,
                "pitch": 74,
                "velocity": 101,
                "duration": 0.4795455,
                "tempo": 120.0
            },
            {
                "start_time": 48.9045455,
                "end_time": 49.2659091,
                "pitch": 76,
                "velocity": 101,
                "duration": 0.3613636,
                "tempo": 120.0
            },
            {
                "start_time": 49.2659091,
                "end_time": 49.5431818,
                "pitch": 79,
                "velocity": 101,
                "duration": 0.2772727,
                "tempo": 120.0
            },
            {
                "start_time": 47.6227273,
                "end_time": 49.5431818,
                "pitch": 91,
                "velocity": 101,
                "duration": 1.9204545,
                "tempo": 120.0
            },
            {
                "start_time": 49.5431818,
                "end_time": 49.7409091,
                "pitch": 79,
                "velocity": 101,
                "duration": 0.1977273,
                "tempo": 120.0
            },
            {
                "start_time": 49.5431818,
                "end_time": 49.7409091,
                "pitch": 91,
                "velocity": 101,
                "duration": 0.1977273,
                "tempo": 120.0
            },
            {
                "start_time": 49.7409091,
                "end_time": 49.8590909,
                "pitch": 79,
                "velocity": 101,
                "duration": 0.1181818,
                "tempo": 120.0
            },
            {
                "start_time": 49.8590909,
                "end_time": 52.8477273,
                "pitch": 65,
                "velocity": 101,
                "duration": 2.9886364,
                "tempo": 120.0
            },
            {
                "start_time": 52.8477273,
                "end_time": 52.9659091,
                "pitch": 65,
                "velocity": 101,
                "duration": 0.1181818,
                "tempo": 120.0
            },
            {
                "start_time": 53.0863636,
                "end_time": 53.2045455,
                "pitch": 61,
                "velocity": 101,
                "duration": 0.1181818,
                "tempo": 120.0
            },
            {
                "start_time": 53.325,
                "end_time": 53.4454545,
                "pitch": 58,
                "velocity": 101,
                "duration": 0.1204545,
                "tempo": 120.0
            },
            {
                "start_time": 53.5636364,
                "end_time": 56.9181818,
                "pitch": 70,
                "velocity": 101,
                "duration": 3.3545455,
                "tempo": 120.0
            },
            {
                "start_time": 56.9181818,
                "end_time": 57.0363636,
                "pitch": 70,
                "velocity": 101,
                "duration": 0.1181818,
                "tempo": 120.0
            },
            {
                "start_time": 57.1568182,
                "end_time": 57.2772727,
                "pitch": 70,
                "velocity": 101,
                "duration": 0.1204545,
                "tempo": 120.0
            },
            {
                "start_time": 57.3977273,
                "end_time": 61.35,
                "pitch": 73,
                "velocity": 101,
                "duration": 3.9522727,
                "tempo": 120.0
            },
            {
                "start_time": 49.2659091,
                "end_time": 62.3022727,
                "pitch": 2,
                "velocity": 101,
                "duration": 13.0363636,
                "tempo": 120.0
            },
            {
                "start_time": 61.35,
                "end_time": 62.3022727,
                "pitch": 77,
                "velocity": 101,
                "duration": 0.9522727,
                "tempo": 120.0
            },
            {
                "start_time": 61.35,
                "end_time": 62.3022727,
                "pitch": 77,
                "velocity": 101,
                "duration": 0.9522727,
                "tempo": 120.0
            },
            {
                "start_time": 62.3022727,
                "end_time": 62.5818182,
                "pitch": 79,
                "velocity": 101,
                "duration": 0.2795455,
                "tempo": 120.0
            },
            {
                "start_time": 49.7409091,
                "end_time": 62.5818182,
                "pitch": 91,
                "velocity": 101,
                "duration": 12.8409091,
                "tempo": 120.0
            },
            {
                "start_time": 62.5818182,
                "end_time": 62.7818182,
                "pitch": 79,
                "velocity": 101,
                "duration": 0.2,
                "tempo": 120.0
            },
            {
                "start_time": 62.5818182,
                "end_time": 62.7818182,
                "pitch": 91,
                "velocity": 101,
                "duration": 0.2,
                "tempo": 120.0
            },
            {
                "start_time": 62.7818182,
                "end_time": 62.9818182,
                "pitch": 79,
                "velocity": 101,
                "duration": 0.2,
                "tempo": 120.0
            },
            {
                "start_time": 62.7818182,
                "end_time": 62.9818182,
                "pitch": 91,
                "velocity": 101,
                "duration": 0.2,
                "tempo": 120.0
            },
            {
                "start_time": 62.9818182,
                "end_time": 63.1795455,
                "pitch": 79,
                "velocity": 101,
                "duration": 0.1977273,
                "tempo": 120.0
            },
            {
                "start_time": 62.9818182,
                "end_time": 63.1795455,
                "pitch": 91,
                "velocity": 101,
                "duration": 0.1977273,
                "tempo": 120.0
            },
            {
                "start_time": 63.1795455,
                "end_time": 63.2613636,
                "pitch": 79,
                "velocity": 101,
                "duration": 0.0818182,
                "tempo": 120.0
            },
            {
                "start_time": 49.8590909,
                "end_time": 63.2613636,
                "pitch": 90,
                "velocity": 101,
                "duration": 13.4022727,
                "tempo": 120.0
            },
            {
                "start_time": 63.2613636,
                "end_time": 65.1772727,
                "pitch": 77,
                "velocity": 101,
                "duration": 1.9159091,
                "tempo": 120.0
            },
            {
                "start_time": 65.1772727,
                "end_time": 66.1340909,
                "pitch": 77,
                "velocity": 101,
                "duration": 0.9568182,
                "tempo": 120.0
            },
            {
                "start_time": 66.1363636,
                "end_time": 66.4136364,
                "pitch": 79,
                "velocity": 101,
                "duration": 0.2772727,
                "tempo": 120.0
            },
            {
                "start_time": 66.4136364,
                "end_time": 66.6159091,
                "pitch": 79,
                "velocity": 101,
                "duration": 0.2022727,
                "tempo": 120.0
            },
            {
                "start_time": 66.6159091,
                "end_time": 66.8159091,
                "pitch": 79,
                "velocity": 101,
                "duration": 0.2,
                "tempo": 120.0
            },
            {
                "start_time": 66.8159091,
                "end_time": 67.0159091,
                "pitch": 79,
                "velocity": 101,
                "duration": 0.2,
                "tempo": 120.0
            },
            {
                "start_time": 63.1795455,
                "end_time": 67.0159091,
                "pitch": 91,
                "velocity": 101,
                "duration": 3.8363636,
                "tempo": 120.0
            },
            {
                "start_time": 67.0159091,
                "end_time": 67.0977273,
                "pitch": 79,
                "velocity": 101,
                "duration": 0.0818182,
                "tempo": 120.0
            },
            {
                "start_time": 67.0977273,
                "end_time": 69.0113636,
                "pitch": 73,
                "velocity": 101,
                "duration": 1.9136364,
                "tempo": 120.0
            },
            {
                "start_time": 69.0113636,
                "end_time": 69.1318182,
                "pitch": 66,
                "velocity": 101,
                "duration": 0.1204545,
                "tempo": 120.0
            }
        ]
    }
}