{
    "mood": "angry",
    "instruments": {
        "Electric Piano 1": [
            {
                "start_time": 29.3204545,
                "end_time": 30.3318182,
                "pitch": 83,
                "velocity": 101,
                "duration": 1.0113636,
                "tempo": 120.0
            },
            {
                "start_time": 30.5363636,
                "end_time": 31.5568182,
                "pitch": 83,
                "velocity": 101,
                "duration": 1.0204545,
                "tempo": 120.0
            },
            {
                "start_time": 31.7613636,
                "end_time": 31.8363636,
                "pitch": 75,
                "velocity": 101,
                "duration": 0.075,
                "tempo": 120.0
            },
            {
                "start_time": 31.8613636,
                "end_time": 31.9386364,
                "pitch": 75,
                "velocity": 101,
                "duration": 0.0772727,
                "tempo": 120.0
            },
            {
                "start_time": 31.9636364,
                "end_time": 32.0409091,
                "pitch": 76,
                "velocity": 101,
                "duration": 0.0772727,
                "tempo": 120.0
            },
            {
                "start_time": 29.3204545,
                "end_time": 32.0659091,
                "pitch": 90,
                "velocity": 101,
                "duration": 2.7454545,
                "tempo": 120.0
            },
            {
                "start_time": 32.0659091,
                "end_time": 35.2295455,
                "pitch": 80,
                "velocity": 101,
                "duration": 3.1636364,
                "tempo": 120.0
            },
            {
                "start_time": 35.4340909,
                "end_time": 36.4522727,
                "pitch": 73,
                "velocity": 80,
                "duration": 1.0181818,
                "tempo": 120.0
            },
            {
                "start_time": 36.6590909,
                "end_time": 38.9022727,
                "pitch": 78,
                "velocity": 80,
                "duration": 2.2431818,
                "tempo": 120.0
            }
        ],
        "Oboe": [
            {
                "start_time": 0.0295455,
                "end_time": 0.9409091,
                "pitch": 39,
                "velocity": 127,
                "duration": 0.9113636,
                "tempo": 120.0
            },
            {
                "start_time": 1.1454545,
                "end_time": 2.1659091,
                "pitch": 39,
                "velocity": 127,
                "duration": 1.0204545,
                "tempo": 120.0
            },
            {
                "start_time": 2.3704545,
                "end_time": 3.3886364,
                "pitch": 39,
                "velocity": 127,
                "duration": 1.0181818,
                "tempo": 120.0
            },
            {
                "start_time": 3.5931818,
                "end_time": 4.6136364,
                "pitch": 40,
                "velocity": 127,
                "duration": 1.0204545,
                "tempo": 120.0
            },
            {
                "start_time": 4.8181818,
                "end_time": 5.8386364,
                "pitch": 40,
                "velocity": 127,
                "duration": 1.0204545,
                "tempo": 120.0
            },
            {
                "start_time": 6.0431818,
                "end_time": 7.0613636,
                "pitch": 39,
                "velocity": 127,
                "duration": 1.0181818,
                "tempo": 120.0
            },
            {
                "start_time": 7.2681818,
                "end_time": 8.2863636,
                "pitch": 39,
                "velocity": 127,
                "duration": 1.0181818,
                "tempo": 120.0
            },
            {
                "start_time": 8.4909091,
                "end_time": 9.5113636,
                "pitch": 40,
                "velocity": 127,
                "duration": 1.0204545,
                "tempo": 120.0
            },
            {
                "start_time": 9.7159091,
                "end_time": 10.7363636,
                "pitch": 40,
                "velocity": 127,
                "duration": 1.0204545,
                "tempo": 120.0
            },
            {
                "start_time": 10.9409091,
                "end_time": 11.9590909,
                "pitch": 39,
                "velocity": 127,
                "duration": 1.0181818,
                "tempo": 120.0
            },
            {
                "start_time": 12.1636364,
                "end_time": 13.1840909,
                "pitch": 39,
                "velocity": 127,
                "duration": 1.0204545,
                "tempo": 120.0
            },
            {
                "start_time": 13.3886364,
                "end_time": 14.4090909,
                "pitch": 40,
                "velocity": 127,
                "duration": 1.0204545,
                "tempo": 120.0
            },
            {
                "start_time": 14.6136364,
                "end_time": 15.6318182,
                "pitch": 40,
                "velocity": 127,
                "duration": 1.0181818,
                "tempo": 120.0
            },
            {
                "start_time": 15.8363636,
                "end_time": 16.8568182,
                "pitch": 39,
                "velocity": 127,
                "duration": 1.0204545,
                "tempo": 120.0
            },
            {
                "start_time": 17.0613636,
                "end_time": 18.0818182,
                "pitch": 39,
                "velocity": 127,
                "duration": 1.0204545,
                "tempo": 120.0
            },
            {
                "start_time": 18.2863636,
                "end_time": 19.3045455,
                "pitch": 40,
                "velocity": 127,
                "duration": 1.0181818,
                "tempo": 120.0
            },
            {
                "start_time": 19.5113636,
                "end_time": 20.5295455,
                "pitch": 40,
                "velocity": 127,
                "duration": 1.0181818,
                "tempo": 120.0
            },
            {
                "start_time": 20.7340909,
                "end_time": 21.7522727,
                "pitch": 39,
                "velocity": 127,
                "duration": 1.0181818,
                "tempo": 120.0
            },
            {
                "start_time": 21.9545455,
                "end_time": 22.9840909,
                "pitch": 39,
                "velocity": 127,
                "duration": 1.0295455,
                "tempo": 120.0
            },
            {
                "start_time": 23.1886364,
                "end_time": 24.2068182,
                "pitch": 40,
                "velocity": 127,
                "duration": 1.0181818,
                "tempo": 120.0
            },
            {
                "start_time": 24.4090909,
                "end_time": 25.4227273,
                "pitch": 40,
                "velocity": 127,
                "duration": 1.0136364,
                "tempo": 120.0
            },
            {
                "start_time": 25.6318182,
                "end_time": 26.6522727,
                "pitch": 39,
                "velocity": 127,
                "duration": 1.0204545,
                "tempo": 120.0
            },
            {
                "start_time": 26.8568182,
                "end_time": 27.8772727,
                "pitch": 39,
                "velocity": 127,
                "duration": 1.0204545,
                "tempo": 120.0
            },
            {
                "start_time": 28.0863636,
                "end_time": 29.1136364,
                "pitch": 40,
                "velocity": 127,
                "duration": 1.0272727,
                "tempo": 120.0
            },
            {
                "start_time": 29.3181818,
                "end_time": 30.3318182,
                "pitch": 40,
                "velocity": 127,
                "duration": 1.0136364,
                "tempo": 120.0
            },
            {
                "start_time": 30.5363636,
                "end_time": 31.5545455,
                "pitch": 39,
                "velocity": 127,
                "duration": 1.0181818,
                "tempo": 120.0
            },
            {
                "start_time": 31.7590909,
                "end_time": 32.7795455,
                "pitch": 39,
                "velocity": 127,
                "duration": 1.0204545,
                "tempo": 120.0
            },
            {
                "start_time": 32.9840909,
                "end_time": 34.0045455,
                "pitch": 40,
                "velocity": 127,
                "duration": 1.0204545,
                "tempo": 120.0
            }
        ],
        "Vibraphone": [
            {
                "start_time": 29.3227273,
                "end_time": 30.3318182,
                "pitch": 39,
                "velocity": 127,
                "duration": 1.0090909,
                "tempo": 120.0
            },
            {
                "start_time": 30.5386364,
                "end_time": 31.5568182,
                "pitch": 39,
                "velocity": 127,
                "duration": 1.0181818,
                "tempo": 120.0
            },
            {
                "start_time": 31.7613636,
                "end_time": 32.7795455,
                "pitch": 39,
                "velocity": 127,
                "duration": 1.0181818,
                "tempo": 120.0
            },
            {
                "start_time": 32.9863636,
                "end_time": 34.0045455,
                "pitch": 40,
                "velocity": 127,
                "duration": 1.0181818,
                "tempo": 120.0
            }
        ],
        "Trumpet": [
            {
                "start_time": 3.2909091,
                "end_time": 3.5431818,
                "pitch": 39,
                "velocity": 127,
                "duration": 0.2522727,
                "tempo": 120.0
            },
            {
                "start_time": 3.5977273,
                "end_time": 3.9386364,
                "pitch": 47,
                "velocity": 127,
                "duration": 0.3409091,
                "tempo": 120.0
            },
            {
                "start_time": 4.0545455,
                "end_time": 4.3977273,
                "pitch": 52,
                "velocity": 127,
                "duration": 0.3431818,
                "tempo": 120.0
            },
            {
                "start_time": 4.5136364,
                "end_time": 4.7681818,
                "pitch": 40,
                "velocity": 127,
                "duration": 0.2545455,
                "tempo": 120.0
            }
        ],
        "French Horn": [
            {
                "start_time": 6.9613636,
                "end_time": 7.0363636,
                "pitch": 56,
                "velocity": 127,
                "duration": 0.075,
                "tempo": 120.0
            },
            {
                "start_time": 7.0636364,
                "end_time": 7.1386364,
                "pitch": 59,
                "velocity": 127,
                "duration": 0.075,
                "tempo": 120.0
            },
            {
                "start_time": 7.1659091,
                "end_time": 7.2409091,
                "pitch": 63,
                "velocity": 127,
                "duration": 0.075,
                "tempo": 120.0
            },
            {
                "start_time": 7.2681818,
                "end_time": 9.5113636,
                "pitch": 63,
                "velocity": 127,
                "duration": 2.2431818,
                "tempo": 120.0
            }
        ],
        "Church Organ": [
            {
                "start_time": 9.7159091,
                "end_time": 10.7363636,
                "pitch": 62,
                "velocity": 101,
                "duration": 1.0204545,
                "tempo": 120.0
            },
            {
                "start_time": 10.9409091,
                "end_time": 11.9590909,
                "pitch": 63,
                "velocity": 101,
                "duration": 1.0181818,
                "tempo": 120.0
            },
            {
                "start_time": 12.1659091,
                "end_time": 13.1840909,
                "pitch": 59,
                "velocity": 101,
                "duration": 1.0181818,
                "tempo": 120.0
            },
            {
                "start_time": 13.3886364,
                "end_time": 13.8977273,
                "pitch": 59,
                "velocity": 101,
                "duration": 0.5090909,
                "tempo": 120.0
            },
            {
                "start_time": 14.0,
                "end_time": 14.5113636,
                "pitch": 52,
                "velocity": 101,
                "duration": 0.5113636,
                "tempo": 120.0
            },
            {
                "start_time": 14.6136364,
                "end_time": 16.8568182,
                "pitch": 56,
                "velocity": 101,
                "duration": 2.2431818,
                "tempo": 120.0
            }
        ],
        "Acoustic Bass": [
            {
                "start_time": 8.4931818,
                "end_time": 8.8363636,
                "pitch": 40,
                "velocity": 101,
                "duration": 0.3431818,
                "tempo": 120.0
            },
            {
                "start_time": 8.9522727,
                "end_time": 9.2954545,
                "pitch": 52,
                "velocity": 101,
                "duration": 0.3431818,
                "tempo": 120.0
            },
            {
                "start_time": 9.4113636,
                "end_time": 9.6636364,
                "pitch": 40,
                "velocity": 101,
                "duration": 0.2522727,
                "tempo": 120.0
            },
            {
                "start_time": 13.0840909,
                "end_time": 13.3363636,
                "pitch": 51,
                "velocity": 127,
                "duration": 0.2522727,
                "tempo": 120.0
            },
            {
                "start_time": 13.3909091,
                "end_time": 13.7318182,
                "pitch": 52,
                "velocity": 127,
                "duration": 0.3409091,
                "tempo": 120.0
            },
            {
                "start_time": 13.85,
                "end_time": 14.1909091,
                "pitch": 64,
                "velocity": 127,
                "duration": 0.3409091,
                "tempo": 120.0
            },
            {
                "start_time": 14.3090909,
                "end_time": 14.5613636,
                "pitch": 52,
                "velocity": 127,
                "duration": 0.2522727,
                "tempo": 120.0
            },
            {
                "start_time": 17.9818182,
                "end_time": 18.2340909,
                "pitch": 51,
                "velocity": 127,
                "duration": 0.2522727,
                "tempo": 120.0
            },
            {
                "start_time": 18.2886364,
                "end_time": 18.6295455,
                "pitch": 52,
                "velocity": 127,
                "duration": 0.3409091,
                "tempo": 120.0
            },
            {
                "start_time": 18.7477273,
                "end_time": 19.0886364,
                "pitch": 64,
                "velocity": 127,
                "duration": 0.3409091,
                "tempo": 120.0
            },
            {
                "start_time": 19.2068182,
                "end_time": 19.4590909,
                "pitch": 52,
                "velocity": 127,
                "duration": 0.2522727,
                "tempo": 120.0
            },
            {
                "start_time": 19.5136364,
                "end_time": 19.8545455,
                "pitch": 49,
                "velocity": 127,
                "duration": 0.3409091,
                "tempo": 120.0
            },
            {
                "start_time": 19.9704545,
                "end_time": 20.3136364,
                "pitch": 49,
                "velocity": 127,
                "duration": 0.3431818,
                "tempo": 120.0
            },
            {
                "start_time": 20.4295455,
                "end_time": 20.5568182,
                "pitch": 46,
                "velocity": 127,
                "duration": 0.1272727,
                "tempo": 120.0
            },
            {
                "start_time": 20.7363636,
                "end_time": 21.0795455,
                "pitch": 51,
                "velocity": 127,
                "duration": 0.3431818,
                "tempo": 120.0
            },
            {
                "start_time": 21.1954545,
                "end_time": 21.4477273,
                "pitch": 49,
                "velocity": 127,
                "duration": 0.2522727,
                "tempo": 120.0
            },
            {
                "start_time": 21.5,
                "end_time": 21.6272727,
                "pitch": 39,
                "velocity": 127,
                "duration": 0.1272727,
                "tempo": 120.0
            },
            {
                "start_time": 20.4295455,
                "end_time": 21.6522727,
                "pitch": 53,
                "velocity": 127,
                "duration": 1.2227273,
                "tempo": 120.0
            },
            {
                "start_time": 21.6522727,
                "end_time": 21.9045455,
                "pitch": 46,
                "velocity": 127,
                "duration": 0.2522727,
                "tempo": 120.0
            },
            {
                "start_time": 21.9590909,
                "end_time": 22.2977273,
                "pitch": 40,
                "velocity": 127,
                "duration": 0.3386364,
                "tempo": 120.0
            },
            {
                "start_time": 19.5136364,
                "end_time": 22.7659091,
                "pitch": 52,
                "velocity": 127,
                "duration": 3.2522727,
                "tempo": 120.0
            },
            {
                "start_time": 22.4159091,
                "end_time": 22.7659091,
                "pitch": 52,
                "velocity": 127,
                "duration": 0.35,
                "tempo": 120.0
            },
            {
                "start_time": 22.8863636,
                "end_time": 23.0113636,
                "pitch": 40,
                "velocity": 127,
                "duration": 0.125,
                "tempo": 120.0
            },
            {
                "start_time": 21.6522727,
                "end_time": 23.1909091,
                "pitch": 53,
                "velocity": 127,
                "duration": 1.5386364,
                "tempo": 120.0
            },
            {
                "start_time": 23.1909091,
                "end_time": 23.5340909,
                "pitch": 47,
                "velocity": 127,
                "duration": 0.3431818,
                "tempo": 120.0
            },
            {
                "start_time": 23.65,
                "end_time": 23.9045455,
                "pitch": 52,
                "velocity": 127,
                "duration": 0.2545455,
                "tempo": 120.0
            },
            {
                "start_time": 23.9545455,
                "end_time": 24.0818182,
                "pitch": 40,
                "velocity": 127,
                "duration": 0.1272727,
                "tempo": 120.0
            },
            {
                "start_time": 24.1090909,
                "end_time": 24.3568182,
                "pitch": 52,
                "velocity": 127,
                "duration": 0.2477273,
                "tempo": 120.0
            },
            {
                "start_time": 24.4113636,
                "end_time": 24.7454545,
                "pitch": 49,
                "velocity": 127,
                "duration": 0.3340909,
                "tempo": 120.0
            },
            {
                "start_time": 24.8613636,
                "end_time": 25.2045455,
                "pitch": 49,
                "velocity": 127,
                "duration": 0.3431818,
                "tempo": 120.0
            },
            {
                "start_time": 23.1909091,
                "end_time": 25.3227273,
                "pitch": 53,
                "velocity": 127,
                "duration": 2.1318182,
                "tempo": 120.0
            },
            {
                "start_time": 25.3227273,
                "end_time": 25.45,
                "pitch": 46,
                "velocity": 127,
                "duration": 0.1272727,
                "tempo": 120.0
            },
            {
                "start_time": 25.6340909,
                "end_time": 25.9818182,
                "pitch": 51,
                "velocity": 127,
                "duration": 0.3477273,
                "tempo": 120.0
            },
            {
                "start_time": 26.0977273,
                "end_time": 26.3477273,
                "pitch": 49,
                "velocity": 127,
                "duration": 0.25,
                "tempo": 120.0
            },
            {
                "start_time": 26.4,
                "end_time": 26.525,
                "pitch": 39,
                "velocity": 127,
                "duration": 0.125,
                "tempo": 120.0
            },
            {
                "start_time": 25.3227273,
                "end_time": 26.5522727,
                "pitch": 53,
                "velocity": 127,
                "duration": 1.2295455,
                "tempo": 120.0
            },
            {
                "start_time": 26.5522727,
                "end_time": 26.8045455,
                "pitch": 46,
                "velocity": 127,
                "duration": 0.2522727,
                "tempo": 120.0
            },
            {
                "start_time": 21.9590909,
                "end_time": 26.8590909,
                "pitch": 14,
                "velocity": 127,
                "duration": 4.9,
                "tempo": 120.0
            },
            {
                "start_time": 26.8590909,
                "end_time": 27.2,
                "pitch": 40,
                "velocity": 127,
                "duration": 0.3409091,
                "tempo": 120.0
            },
            {
                "start_time": 24.4113636,
                "end_time": 27.6590909,
                "pitch": 52,
                "velocity": 127,
                "duration": 3.2477273,
                "tempo": 120.0
            },
            {
                "start_time": 27.3159091,
                "end_time": 27.6590909,
                "pitch": 52,
                "velocity": 127,
                "duration": 0.3431818,
                "tempo": 120.0
            },
            {
                "start_time": 27.7772727,
                "end_time": 27.9045455,
                "pitch": 40,
                "velocity": 127,
                "duration": 0.1272727,
                "tempo": 120.0
            },
            {
                "start_time": 26.5522727,
                "end_time": 28.0886364,
                "pitch": 53,
                "velocity": 127,
                "duration": 1.5363636,
                "tempo": 120.0
            },
            {
                "start_time": 28.0886364,
                "end_time": 28.4386364,
                "pitch": 47,
                "velocity": 127,
                "duration": 0.35,
                "tempo": 120.0
            },
            {
                "start_time": 23.65,
                "end_time": 28.5545455,
                "pitch": 32,
                "velocity": 127,
                "duration": 4.9045455,
                "tempo": 120.0
            },
            {
                "start_time": 28.5545455,
                "end_time": 28.8068182,
                "pitch": 52,
                "velocity": 127,
                "duration": 0.2522727,
                "tempo": 120.0
            },
            {
                "start_time": 28.8590909,
                "end_time": 28.9863636,
                "pitch": 40,
                "velocity": 127,
                "duration": 0.1272727,
                "tempo": 120.0
            },
            {
                "start_time": 29.0136364,
                "end_time": 29.2659091,
                "pitch": 52,
                "velocity": 127,
                "duration": 0.2522727,
                "tempo": 120.0
            },
            {
                "start_time": 29.3227273,
                "end_time": 29.6613636,
                "pitch": 44,
                "velocity": 127,
                "duration": 0.3386364,
                "tempo": 120.0
            },
            {
                "start_time": 29.775,
                "end_time": 29.7772727,
                "pitch": 7,
                "velocity": 127,
                "duration": 0.0022727,
                "tempo": 120.0
            },
            {
                "start_time": 29.7772727,
                "end_time": 30.0272727,
                "pitch": 51,
                "velocity": 127,
                "duration": 0.25,
                "tempo": 120.0
            },
            {
                "start_time": 30.0795455,
                "end_time": 30.2045455,
                "pitch": 39,
                "velocity": 127,
                "duration": 0.125,
                "tempo": 120.0
            },
            {
                "start_time": 28.0886364,
                "end_time": 30.2295455,
                "pitch": 53,
                "velocity": 127,
                "duration": 2.1409091,
                "tempo": 120.0
            },
            {
                "start_time": 30.2295455,
                "end_time": 30.4840909,
                "pitch": 46,
                "velocity": 127,
                "duration": 0.2545455,
                "tempo": 120.0
            },
            {
                "start_time": 30.5386364,
                "end_time": 30.8795455,
                "pitch": 44,
                "velocity": 127,
                "duration": 0.3409091,
                "tempo": 120.0
            },
            {
                "start_time": 30.9954545,
                "end_time": 31.25,
                "pitch": 51,
                "velocity": 127,
                "duration": 0.2545455,
                "tempo": 120.0
            },
            {
                "start_time": 31.3022727,
                "end_time": 31.4295455,
                "pitch": 39,
                "velocity": 127,
                "duration": 0.1272727,
                "tempo": 120.0
            },
            {
                "start_time": 30.2295455,
                "end_time": 31.4545455,
                "pitch": 53,
                "velocity": 127,
                "duration": 1.225,
                "tempo": 120.0
            },
            {
                "start_time": 30.5386364,
                "end_time": 31.7090909,
                "pitch": 46,
                "velocity": 127,
                "duration": 1.1704545,
                "tempo": 120.0
            },
            {
                "start_time": 31.4545455,
                "end_time": 31.7090909,
                "pitch": 46,
                "velocity": 127,
                "duration": 0.2545455,
                "tempo": 120.0
            },
            {
                "start_time": 26.8590909,
                "end_time": 31.7636364,
                "pitch": 14,
                "velocity": 127,
                "duration": 4.9045455,
                "tempo": 120.0
            },
            {
                "start_time": 31.7636364,
                "end_time": 32.1045455,
                "pitch": 40,
                "velocity": 127,
                "duration": 0.3409091,
                "tempo": 120.0
            },
            {
                "start_time": 32.2204545,
                "end_time": 32.5636364,
                "pitch": 52,
                "velocity": 127,
                "duration": 0.3431818,
                "tempo": 120.0
            },
            {
                "start_time": 32.6795455,
                "end_time": 32.9340909,
                "pitch": 40,
                "velocity": 127,
                "duration": 0.2545455,
                "tempo": 120.0
            },
            {
                "start_time": 32.9863636,
                "end_time": 33.3295455,
                "pitch": 40,
                "velocity": 127,
                "duration": 0.3431818,
                "tempo": 120.0
            },
            {
                "start_time": 33.4454545,
                "end_time": 33.7886364,
                "pitch": 52,
                "velocity": 127,
                "duration": 0.3431818,
                "tempo": 120.0
            },
            {
                "start_time": 33.9022727,
                "end_time": 34.1568182,
                "pitch": 40,
                "velocity": 127,
                "duration": 0.2545455,
                "tempo": 120.0
            },
            {
                "start_time": 29.3227273,
                "end_time": 34.2113636,
                "pitch": 54,
                "velocity": 127,
                "duration": 4.8886364,
                "tempo": 120.0
            },
            {
                "start_time": 34.2113636,
                "end_time": 34.5522727,
                "pitch": 44,
                "velocity": 127,
                "duration": 0.3409091,
                "tempo": 120.0
            },
            {
                "start_time": 30.9954545,
                "end_time": 34.6681818,
                "pitch": 7,
                "velocity": 127,
                "duration": 3.6727273,
                "tempo": 120.0
            },
            {
                "start_time": 34.6681818,
                "end_time": 35.0113636,
                "pitch": 51,
                "velocity": 127,
                "duration": 0.3431818,
                "tempo": 120.0
            },
            {
                "start_time": 35.1295455,
                "end_time": 35.2545455,
                "pitch": 27,
                "velocity": 127,
                "duration": 0.125,
                "tempo": 120.0
            },
            {
                "start_time": 35.4363636,
                "end_time": 35.7772727,
                "pitch": 44,
                "velocity": 127,
                "duration": 0.3409091,
                "tempo": 120.0
            },
            {
                "start_time": 34.6681818,
                "end_time": 35.8931818,
                "pitch": 7,
                "velocity": 127,
                "duration": 1.225,
                "tempo": 120.0
            },
            {
                "start_time": 35.8931818,
                "end_time": 36.1477273,
                "pitch": 51,
                "velocity": 127,
                "duration": 0.2545455,
                "tempo": 120.0
            },
            {
                "start_time": 36.3522727,
                "end_time": 36.6068182,
                "pitch": 42,
                "velocity": 127,
                "duration": 0.2545455,
                "tempo": 120.0
            },
            {
                "start_time": 36.6590909,
                "end_time": 37.0022727,
                "pitch": 42,
                "velocity": 127,
                "duration": 0.3431818,
                "tempo": 120.0
            },
            {
                "start_time": 37.1181818,
                "end_time": 37.4613636,
                "pitch": 52,
                "velocity": 127,
                "duration": 0.3431818,
                "tempo": 120.0
            },
            {
                "start_time": 37.5772727,
                "end_time": 37.7022727,
                "pitch": 40,
                "velocity": 127,
                "duration": 0.125,
                "tempo": 120.0
            },
            {
                "start_time": 37.8840909,
                "end_time": 38.225,
                "pitch": 40,
                "velocity": 127,
                "duration": 0.3409091,
                "tempo": 120.0
            },
            {
                "start_time": 38.3409091,
                "end_time": 38.6840909,
                "pitch": 52,
                "velocity": 127,
                "duration": 0.3431818,
                "tempo": 120.0
            },
            {
                "start_time": 38.8,
                "end_time": 39.0545455,
                "pitch": 40,
                "velocity": 127,
                "duration": 0.2545455,
                "tempo": 120.0
            }
        ],
        "Lead 2 (sawtooth)": [
            {
                "start_time": 0.0318182,
                "end_time": 0.2659091,
                "pitch": 54,
                "velocity": 101,
                "duration": 0.2340909,
                "tempo": 120.0
            },
            {
                "start_time": 0.3818182,
                "end_time": 0.725,
                "pitch": 54,
                "velocity": 101,
                "duration": 0.3431818,
                "tempo": 120.0
            },
            {
                "start_time": 0.8409091,
                "end_time": 1.2727273,
                "pitch": 54,
                "velocity": 101,
                "duration": 0.4318182,
                "tempo": 120.0
            },
            {
                "start_time": 1.3,
                "end_time": 1.6431818,
                "pitch": 56,
                "velocity": 101,
                "duration": 0.3431818,
                "tempo": 120.0
            },
            {
                "start_time": 2.2181818,
                "end_time": 3.0590909,
                "pitch": 51,
                "velocity": 101,
                "duration": 0.8409091,
                "tempo": 120.0
            },
            {
                "start_time": 4.8227273,
                "end_time": 5.1636364,
                "pitch": 52,
                "velocity": 101,
                "duration": 0.3409091,
                "tempo": 120.0
            },
            {
                "start_time": 5.2795455,
                "end_time": 5.6227273,
                "pitch": 54,
                "velocity": 101,
                "duration": 0.3431818,
                "tempo": 120.0
            },
            {
                "start_time": 5.7386364,
                "end_time": 6.1704545,
                "pitch": 54,
                "velocity": 101,
                "duration": 0.4318182,
                "tempo": 120.0
            },
            {
                "start_time": 1.3,
                "end_time": 6.1977273,
                "pitch": 66,
                "velocity": 101,
                "duration": 4.8977273,
                "tempo": 120.0
            },
            {
                "start_time": 6.1977273,
                "end_time": 6.5409091,
                "pitch": 56,
                "velocity": 101,
                "duration": 0.3431818,
                "tempo": 120.0
            },
            {
                "start_time": 9.7204545,
                "end_time": 10.0590909,
                "pitch": 64,
                "velocity": 101,
                "duration": 0.3386364,
                "tempo": 120.0
            },
            {
                "start_time": 6.1977273,
                "end_time": 10.5181818,
                "pitch": 66,
                "velocity": 101,
                "duration": 4.3204545,
                "tempo": 120.0
            },
            {
                "start_time": 10.1772727,
                "end_time": 10.5181818,
                "pitch": 66,
                "velocity": 101,
                "duration": 0.3409091,
                "tempo": 120.0
            },
            {
                "start_time": 10.6363636,
                "end_time": 11.0681818,
                "pitch": 66,
                "velocity": 101,
                "duration": 0.4318182,
                "tempo": 120.0
            },
            {
                "start_time": 11.0954545,
                "end_time": 11.4363636,
                "pitch": 68,
                "velocity": 101,
                "duration": 0.3409091,
                "tempo": 120.0
            },
            {
                "start_time": 12.0136364,
                "end_time": 12.8522727,
                "pitch": 63,
                "velocity": 101,
                "duration": 0.8386364,
                "tempo": 120.0
            },
            {
                "start_time": 14.6159091,
                "end_time": 14.9568182,
                "pitch": 64,
                "velocity": 101,
                "duration": 0.3409091,
                "tempo": 120.0
            },
            {
                "start_time": 15.0727273,
                "end_time": 15.4159091,
                "pitch": 66,
                "velocity": 101,
                "duration": 0.3431818,
                "tempo": 120.0
            },
            {
                "start_time": 15.5318182,
                "end_time": 15.9659091,
                "pitch": 66,
                "velocity": 101,
                "duration": 0.4340909,
                "tempo": 120.0
            },
            {
                "start_time": 11.0954545,
                "end_time": 15.9909091,
                "pitch": 78,
                "velocity": 101,
                "duration": 4.8954545,
                "tempo": 120.0
            },
            {
                "start_time": 15.9909091,
                "end_time": 16.3340909,
                "pitch": 68,
                "velocity": 101,
                "duration": 0.3431818,
                "tempo": 120.0
            },
            {
                "start_time": 12.0136364,
                "end_time": 16.9113636,
                "pitch": 19,
                "velocity": 101,
                "duration": 4.8977273,
                "tempo": 120.0
            },
            {
                "start_time": 16.9113636,
                "end_time": 17.75,
                "pitch": 63,
                "velocity": 101,
                "duration": 0.8386364,
                "tempo": 120.0
            },
            {
                "start_time": 20.5840909,
                "end_time": 20.7090909,
                "pitch": 75,
                "velocity": 127,
                "duration": 0.125,
                "tempo": 120.0
            },
            {
                "start_time": 23.0386364,
                "end_time": 23.1636364,
                "pitch": 76,
                "velocity": 127,
                "duration": 0.125,
                "tempo": 120.0
            },
            {
                "start_time": 20.5840909,
                "end_time": 25.4772727,
                "pitch": 50,
                "velocity": 127,
                "duration": 4.8931818,
                "tempo": 120.0
            },
            {
                "start_time": 25.4772727,
                "end_time": 25.6068182,
                "pitch": 75,
                "velocity": 127,
                "duration": 0.1295455,
                "tempo": 120.0
            },
            {
                "start_time": 27.9318182,
                "end_time": 28.0613636,
                "pitch": 76,
                "velocity": 127,
                "duration": 0.1295455,
                "tempo": 120.0
            },
            {
                "start_time": 35.2818182,
                "end_time": 35.4068182,
                "pitch": 83,
                "velocity": 127,
                "duration": 0.125,
                "tempo": 120.0
            },
            {
                "start_time": 37.7295455,
                "end_time": 37.8568182,
                "pitch": 83,
                "velocity": 127,
                "duration": 0.1272727,
                "tempo": 120.0
            },
            {
                "start_time": 39.1113636,
                "end_time": 39.1136364,
                "pitch": 52,
                "velocity": 101,
                "duration": 0.0022727,
                "tempo": 120.0
            }
        ],
        "Harpsichord": [
            {
                "start_time": 6.9636364,
                "end_time": 7.0386364,
                "pitch": 44,
                "velocity": 101,
                "duration": 0.075,
                "tempo": 120.0
            },
            {
                "start_time": 7.0636364,
                "end_time": 7.1386364,
                "pitch": 47,
                "velocity": 101,
                "duration": 0.075,
                "tempo": 120.0
            },
            {
                "start_time": 7.1659091,
                "end_time": 7.2409091,
                "pitch": 51,
                "velocity": 101,
                "duration": 0.075,
                "tempo": 120.0
            },
            {
                "start_time": 7.3045455,
                "end_time": 8.4022727,
                "pitch": 51,
                "velocity": 101,
                "duration": 1.0977273,
                "tempo": 120.0
            }
        ]
    }
}