{
    "mood": "angry",
    "instruments": {
        "Acoustic Bass": [
            {
                "start_time": 0.0227273,
                "end_time": 0.1181818,
                "pitch": 36,
                "velocity": 80,
                "duration": 0.0954545,
                "tempo": 120.0
            },
            {
                "start_time": 0.1181818,
                "end_time": 0.2204545,
                "pitch": 36,
                "velocity": 80,
                "duration": 0.1022727,
                "tempo": 120.0
            },
            {
                "start_time": 0.2204545,
                "end_time": 0.3704545,
                "pitch": 36,
                "velocity": 80,
                "duration": 0.15,
                "tempo": 120.0
            },
            {
                "start_time": 0.3704545,
                "end_time": 0.5204545,
                "pitch": 36,
                "velocity": 80,
                "duration": 0.15,
                "tempo": 120.0
            },
            {
                "start_time": 0.5227273,
                "end_time": 0.675,
                "pitch": 36,
                "velocity": 80,
                "duration": 0.1522727,
                "tempo": 120.0
            },
            {
                "start_time": 0.675,
                "end_time": 0.825,
                "pitch": 36,
                "velocity": 80,
                "duration": 0.15,
                "tempo": 120.0
            },
            {
                "start_time": 0.825,
                "end_time": 0.9772727,
                "pitch": 36,
                "velocity": 80,
                "duration": 0.1522727,
                "tempo": 120.0
            },
            {
                "start_time": 0.9772727,
                "end_time": 1.1295455,
                "pitch": 36,
                "velocity": 80,
                "duration": 0.1522727,
                "tempo": 120.0
            },
            {
                "start_time": 1.1318182,
                "end_time": 1.2795455,
                "pitch": 36,
                "velocity": 80,
                "duration": 0.1477273,
                "tempo": 120.0
            },
            {
                "start_time": 1.2818182,
                "end_time": 1.4318182,
                "pitch": 36,
                "velocity": 80,
                "duration": 0.15,
                "tempo": 120.0
            },
            {
                "start_time": 1.4318182,
                "end_time": 1.5840909,
                "pitch": 36,
                "velocity": 80,
                "duration": 0.1522727,
                "tempo": 120.0
            },
            {
                "start_time": 1.5840909,
                "end_time": 1.7318182,
                "pitch": 36,
                "velocity": 80,
                "duration": 0.1477273,
                "tempo": 120.0
            },
            {
                "start_time": 1.7340909,
                "end_time": 1.8840909,
                "pitch": 36,
                "velocity": 80,
                "duration": 0.15,
                "tempo": 120.0
            },
            {
                "start_time": 1.8840909,
                "end_time": 2.0340909,
                "pitch": 36,
                "velocity": 80,
                "duration": 0.15,
                "tempo": 120.0
            },
            {
                "start_time": 2.0340909,
                "end_time": 2.1840909,
                "pitch": 36,
                "velocity": 80,
                "duration": 0.15,
                "tempo": 120.0
            },
            {
                "start_time": 2.1840909,
                "end_time": 2.3340909,
                "pitch": 36,
                "velocity": 80,
                "duration": 0.15,
                "tempo": 120.0
            },
            {
                "start_time": 2.3363636,
                "end_time": 2.4818182,
                "pitch": 36,
                "velocity": 80,
                "duration": 0.1454545,
                "tempo": 120.0
            },
            {
                "start_time": 2.4840909,
                "end_time": 2.6340909,
                "pitch": 36,
                "velocity": 80,
                "duration": 0.15,
                "tempo": 120.0
            },
            {
                "start_time": 2.6363636,
                "end_time": 2.7863636,
                "pitch": 36,
                "velocity": 80,
                "duration": 0.15,
                "tempo": 120.0
            },
            {
                "start_time": 2.7863636,
                "end_time": 2.9363636,
                "pitch": 36,
                "velocity": 80,
                "duration": 0.15,
                "tempo": 120.0
            },
            {
                "start_time": 2.9363636,
                "end_time": 3.0909091,
                "pitch": 36,
                "velocity": 80,
                "duration": 0.1545455,
                "tempo": 120.0
            },
            {
                "start_time": 3.0909091,
                "end_time": 3.2409091,
                "pitch": 36,
                "velocity": 80,
                "duration": 0.15,
                "tempo": 120.0
            },
            {
                "start_time": 3.2409091,
                "end_time": 3.3909091,
                "pitch": 36,
                "velocity": 80,
                "duration": 0.15,
                "tempo": 120.0
            },
            {
                "start_time": 3.3931818,
                "end_time": 3.5454545,
                "pitch": 36,
                "velocity": 80,
                "duration": 0.1522727,
                "tempo": 120.0
            },
            {
                "start_time": 3.5454545,
                "end_time": 3.6954545,
                "pitch": 36,
                "velocity": 80,
                "duration": 0.15,
                "tempo": 120.0
            },
            {
                "start_time": 3.6977273,
                "end_time": 3.8477273,
                "pitch": 36,
                "velocity": 80,
                "duration": 0.15,
                "tempo": 120.0
            },
            {
                "start_time": 3.8477273,
                "end_time": 4.0,
                "pitch": 36,
                "velocity": 80,
                "duration": 0.1522727,
                "tempo": 120.0
            },
            {
                "start_time": 4.0,
                "end_time": 4.15,
                "pitch": 36,
                "velocity": 80,
                "duration": 0.15,
                "tempo": 120.0
            },
            {
                "start_time": 4.1522727,
                "end_time": 4.3022727,
                "pitch": 36,
                "velocity": 80,
                "duration": 0.15,
                "tempo": 120.0
            },
            {
                "start_time": 4.3022727,
                "end_time": 4.4545455,
                "pitch": 36,
                "velocity": 80,
                "duration": 0.1522727,
                "tempo": 120.0
            },
            {
                "start_time": 4.4568182,
                "end_time": 4.6068182,
                "pitch": 36,
                "velocity": 80,
                "duration": 0.15,
                "tempo": 120.0
            },
            {
                "start_time": 4.6068182,
                "end_time": 4.7590909,
                "pitch": 36,
                "velocity": 80,
                "duration": 0.1522727,
                "tempo": 120.0
            },
            {
                "start_time": 4.7590909,
                "end_time": 4.9090909,
                "pitch": 36,
                "velocity": 80,
                "duration": 0.15,
                "tempo": 120.0
            },
            {
                "start_time": 4.9090909,
                "end_time": 5.0613636,
                "pitch": 36,
                "velocity": 80,
                "duration": 0.1522727,
                "tempo": 120.0
            },
            {
                "start_time": 5.0636364,
                "end_time": 5.2113636,
                "pitch": 36,
                "velocity": 80,
                "duration": 0.1477273,
                "tempo": 120.0
            },
            {
                "start_time": 5.2113636,
                "end_time": 5.3613636,
                "pitch": 36,
                "velocity": 80,
                "duration": 0.15,
                "tempo": 120.0
            },
            {
                "start_time": 5.3613636,
                "end_time": 5.5113636,
                "pitch": 36,
                "velocity": 80,
                "duration": 0.15,
                "tempo": 120.0
            },
            {
                "start_time": 5.5136364,
                "end_time": 5.6613636,
                "pitch": 36,
                "velocity": 80,
                "duration": 0.1477273,
                "tempo": 120.0
            },
            {
                "start_time": 5.6636364,
                "end_time": 5.8136364,
                "pitch": 36,
                "velocity": 80,
                "duration": 0.15,
                "tempo": 120.0
            },
            {
                "start_time": 5.8136364,
                "end_time": 5.9659091,
                "pitch": 36,
                "velocity": 80,
                "duration": 0.1522727,
                "tempo": 120.0
            },
            {
                "start_time": 5.9681818,
                "end_time": 6.1159091,
                "pitch": 36,
                "velocity": 80,
                "duration": 0.1477273,
                "tempo": 120.0
            },
            {
                "start_time": 6.1181818,
                "end_time": 6.2681818,
                "pitch": 36,
                "velocity": 80,
                "duration": 0.15,
                "tempo": 120.0
            },
            {
                "start_time": 6.2681818,
                "end_time": 6.4204545,
                "pitch": 36,
                "velocity": 80,
                "duration": 0.1522727,
                "tempo": 120.0
            },
            {
                "start_time": 6.4204545,
                "end_time": 6.5681818,
                "pitch": 36,
                "velocity": 80,
                "duration": 0.1477273,
                "tempo": 120.0
            },
            {
                "start_time": 6.5704545,
                "end_time": 6.7204545,
                "pitch": 36,
                "velocity": 80,
                "duration": 0.15,
                "tempo": 120.0
            },
            {
                "start_time": 6.7204545,
                "end_time": 6.8704545,
                "pitch": 36,
                "velocity": 80,
                "duration": 0.15,
                "tempo": 120.0
            },
            {
                "start_time": 6.8704545,
                "end_time": 7.0227273,
                "pitch": 36,
                "velocity": 80,
                "duration": 0.1522727,
                "tempo": 120.0
            },
            {
                "start_time": 7.0227273,
                "end_time": 7.1772727,
                "pitch": 36,
                "velocity": 80,
                "duration": 0.1545455,
                "tempo": 120.0
            },
            {
                "start_time": 7.1772727,
                "end_time": 7.3272727,
                "pitch": 36,
                "velocity": 80,
                "duration": 0.15,
                "tempo": 120.0
            },
            {
                "start_time": 7.3295455,
                "end_time": 7.4840909,
                "pitch": 36,
                "velocity": 80,
                "duration": 0.1545455,
                "tempo": 120.0
            },
            {
                "start_time": 7.4840909,
                "end_time": 7.6318182,
                "pitch": 36,
                "velocity": 80,
                "duration": 0.1477273,
                "tempo": 120.0
            },
            {
                "start_time": 7.6340909,
                "end_time": 7.7818182,
                "pitch": 36,
                "velocity": 80,
                "duration": 0.1477273,
                "tempo": 120.0
            },
            {
                "start_time": 7.7840909,
                "end_time": 7.9340909,
                "pitch": 36,
                "velocity": 80,
                "duration": 0.15,
                "tempo": 120.0
            },
            {
                "start_time": 7.9340909,
                "end_time": 8.0840909,
                "pitch": 36,
                "velocity": 80,
                "duration": 0.15,
                "tempo": 120.0
            },
            {
                "start_time": 8.0840909,
                "end_time": 8.2340909,
                "pitch": 36,
                "velocity": 80,
                "duration": 0.15,
                "tempo": 120.0
            },
            {
                "start_time": 8.2340909,
                "end_time": 8.3886364,
                "pitch": 36,
                "velocity": 80,
                "duration": 0.1545455,
                "tempo": 120.0
            },
            {
                "start_time": 8.3886364,
                "end_time": 8.5386364,
                "pitch": 36,
                "velocity": 80,
                "duration": 0.15,
                "tempo": 120.0
            },
            {
                "start_time": 8.5386364,
                "end_time": 8.6886364,
                "pitch": 36,
                "velocity": 80,
                "duration": 0.15,
                "tempo": 120.0
            },
            {
                "start_time": 8.6909091,
                "end_time": 8.8409091,
                "pitch": 36,
                "velocity": 80,
                "duration": 0.15,
                "tempo": 120.0
            },
            {
                "start_time": 8.8431818,
                "end_time": 8.9909091,
                "pitch": 36,
                "velocity": 80,
                "duration": 0.1477273,
                "tempo": 120.0
            },
            {
                "start_time": 8.9909091,
                "end_time": 9.1409091,
                "pitch": 36,
                "velocity": 80,
                "duration": 0.15,
                "tempo": 120.0
            },
            {
                "start_time": 9.1409091,
                "end_time": 9.2909091,
                "pitch": 36,
                "velocity": 80,
                "duration": 0.15,
                "tempo": 120.0
            },
            {
                "start_time": 9.2931818,
                "end_time": 9.4409091,
                "pitch": 36,
                "velocity": 80,
                "duration": 0.1477273,
                "tempo": 120.0
            },
            {
                "start_time": 9.4409091,
                "end_time": 9.5931818,
                "pitch": 36,
                "velocity": 80,
                "duration": 0.1522727,
                "tempo": 120.0
            },
            {
                "start_time": 9.5954545,
                "end_time": 9.7431818,
                "pitch": 45,
                "velocity": 80,
                "duration": 0.1477273,
                "tempo": 120.0
            },
            {
                "start_time": 9.7431818,
                "end_time": 9.8909091,
                "pitch": 45,
                "velocity": 80,
                "duration": 0.1477273,
                "tempo": 120.0
            },
            {
                "start_time": 9.8931818,
                "end_time": 10.0431818,
                "pitch": 45,
                "velocity": 80,
                "duration": 0.15,
                "tempo": 120.0
            },
            {
                "start_time": 10.0431818,
                "end_time": 10.1931818,
                "pitch": 45,
                "velocity": 80,
                "duration": 0.15,
                "tempo": 120.0
            },
            {
                "start_time": 10.1931818,
                "end_time": 10.3431818,
                "pitch": 45,
                "velocity": 80,
                "duration": 0.15,
                "tempo": 120.0
            },
            {
                "start_time": 10.3431818,
                "end_time": 10.4931818,
                "pitch": 45,
                "velocity": 80,
                "duration": 0.15,
                "tempo": 120.0
            },
            {
                "start_time": 10.4931818,
                "end_time": 10.6431818,
                "pitch": 45,
                "velocity": 80,
                "duration": 0.15,
                "tempo": 120.0
            },
            {
                "start_time": 10.6431818,
                "end_time": 10.7931818,
                "pitch": 45,
                "velocity": 80,
                "duration": 0.15,
                "tempo": 120.0
            },
            {
                "start_time": 10.7954545,
                "end_time": 10.9431818,
                "pitch": 45,
                "velocity": 80,
                "duration": 0.1477273,
                "tempo": 120.0
            },
            {
                "start_time": 10.9454545,
                "end_time": 11.0931818,
                "pitch": 45,
                "velocity": 80,
                "duration": 0.1477273,
                "tempo": 120.0
            },
            {
                "start_time": 11.0954545,
                "end_time": 11.2454545,
                "pitch": 45,
                "velocity": 80,
                "duration": 0.15,
                "tempo": 120.0
            },
            {
                "start_time": 11.2454545,
                "end_time": 11.3977273,
                "pitch": 45,
                "velocity": 80,
                "duration": 0.1522727,
                "tempo": 120.0
            },
            {
                "start_time": 11.3977273,
                "end_time": 11.55,
                "pitch": 45,
                "velocity": 80,
                "duration": 0.1522727,
                "tempo": 120.0
            },
            {
                "start_time": 11.55,
                "end_time": 11.7,
                "pitch": 45,
                "velocity": 80,
                "duration": 0.15,
                "tempo": 120.0
            },
            {
                "start_time": 11.7022727,
                "end_time": 11.85,
                "pitch": 45,
                "velocity": 80,
                "duration": 0.1477273,
                "tempo": 120.0
            },
            {
                "start_time": 11.8522727,
                "end_time": 12.0022727,
                "pitch": 45,
                "velocity": 80,
                "duration": 0.15,
                "tempo": 120.0
            },
            {
                "start_time": 12.0022727,
                "end_time": 12.15,
                "pitch": 45,
                "velocity": 80,
                "duration": 0.1477273,
                "tempo": 120.0
            },
            {
                "start_time": 12.1522727,
                "end_time": 12.3022727,
                "pitch": 45,
                "velocity": 80,
                "duration": 0.15,
                "tempo": 120.0
            },
            {
                "start_time": 12.3022727,
                "end_time": 12.4522727,
                "pitch": 45,
                "velocity": 80,
                "duration": 0.15,
                "tempo": 120.0
            },
            {
                "start_time": 12.4522727,
                "end_time": 12.6022727,
                "pitch": 45,
                "velocity": 80,
                "duration": 0.15,
                "tempo": 120.0
            },
            {
                "start_time": 12.6022727,
                "end_time": 12.7522727,
                "pitch": 45,
                "velocity": 80,
                "duration": 0.15,
                "tempo": 120.0
            },
            {
                "start_time": 12.7522727,
                "end_time": 12.9022727,
                "pitch": 45,
                "velocity": 80,
                "duration": 0.15,
                "tempo": 120.0
            },
            {
                "start_time": 12.9022727,
                "end_time": 13.0522727,
                "pitch": 45,
                "velocity": 80,
                "duration": 0.15,
                "tempo": 120.0
            },
            {
                "start_time": 13.0522727,
                "end_time": 13.2045455,
                "pitch": 45,
                "velocity": 80,
                "duration": 0.1522727,
                "tempo": 120.0
            },
            {
                "start_time": 13.2045455,
                "end_time": 13.3522727,
                "pitch": 43,
                "velocity": 80,
                "duration": 0.1477273,
                "tempo": 120.0
            },
            {
                "start_time": 13.3522727,
                "end_time": 13.5022727,
                "pitch": 43,
                "velocity": 80,
                "duration": 0.15,
                "tempo": 120.0
            },
            {
                "start_time": 13.5045455,
                "end_time": 13.6522727,
                "pitch": 43,
                "velocity": 80,
                "duration": 0.1477273,
                "tempo": 120.0
            },
            {
                "start_time": 13.6545455,
                "end_time": 13.8022727,
                "pitch": 43,
                "velocity": 80,
                "duration": 0.1477273,
                "tempo": 120.0
            },
            {
                "start_time": 13.8045455,
                "end_time": 13.9522727,
                "pitch": 43,
                "velocity": 80,
                "duration": 0.1477273,
                "tempo": 120.0
            },
            {
                "start_time": 13.9545455,
                "end_time": 14.1045455,
                "pitch": 43,
                "velocity": 80,
                "duration": 0.15,
                "tempo": 120.0
            },
            {
                "start_time": 14.1045455,
                "end_time": 14.2545455,
                "pitch": 43,
                "velocity": 80,
                "duration": 0.15,
                "tempo": 120.0
            },
            {
                "start_time": 14.2568182,
                "end_time": 14.4090909,
                "pitch": 43,
                "velocity": 80,
                "duration": 0.1522727,
                "tempo": 120.0
            },
            {
                "start_time": 14.4090909,
                "end_time": 14.5590909,
                "pitch": 41,
                "velocity": 80,
                "duration": 0.15,
                "tempo": 120.0
            },
            {
                "start_time": 14.5590909,
                "end_time": 14.7113636,
                "pitch": 41,
                "velocity": 80,
                "duration": 0.1522727,
                "tempo": 120.0
            },
            {
                "start_time": 14.7113636,
                "end_time": 14.8636364,
                "pitch": 41,
                "velocity": 80,
                "duration": 0.1522727,
                "tempo": 120.0
            },
            {
                "start_time": 14.8659091,
                "end_time": 15.0181818,
                "pitch": 41,
                "velocity": 80,
                "duration": 0.1522727,
                "tempo": 120.0
            },
            {
                "start_time": 15.0181818,
                "end_time": 15.1704545,
                "pitch": 41,
                "velocity": 80,
                "duration": 0.1522727,
                "tempo": 120.0
            },
            {
                "start_time": 15.1704545,
                "end_time": 15.3227273,
                "pitch": 41,
                "velocity": 80,
                "duration": 0.1522727,
                "tempo": 120.0
            },
            {
                "start_time": 15.325,
                "end_time": 15.4727273,
                "pitch": 41,
                "velocity": 80,
                "duration": 0.1477273,
                "tempo": 120.0
            },
            {
                "start_time": 15.475,
                "end_time": 15.625,
                "pitch": 41,
                "velocity": 80,
                "duration": 0.15,
                "tempo": 120.0
            },
            {
                "start_time": 15.625,
                "end_time": 15.775,
                "pitch": 40,
                "velocity": 80,
                "duration": 0.15,
                "tempo": 120.0
            },
            {
                "start_time": 15.775,
                "end_time": 15.925,
                "pitch": 40,
                "velocity": 80,
                "duration": 0.15,
                "tempo": 120.0
            },
            {
                "start_time": 15.925,
                "end_time": 16.075,
                "pitch": 40,
                "velocity": 80,
                "duration": 0.15,
                "tempo": 120.0
            },
            {
                "start_time": 16.075,
                "end_time": 16.225,
                "pitch": 40,
                "velocity": 80,
                "duration": 0.15,
                "tempo": 120.0
            },
            {
                "start_time": 16.225,
                "end_time": 16.375,
                "pitch": 40,
                "velocity": 80,
                "duration": 0.15,
                "tempo": 120.0
            },
            {
                "start_time": 16.375,
                "end_time": 16.525,
                "pitch": 40,
                "velocity": 80,
                "duration": 0.15,
                "tempo": 120.0
            },
            {
                "start_time": 16.5272727,
                "end_time": 16.6772727,
                "pitch": 40,
                "velocity": 80,
                "duration": 0.15,
                "tempo": 120.0
            },
            {
                "start_time": 16.6772727,
                "end_time": 16.8295455,
                "pitch": 40,
                "velocity": 80,
                "duration": 0.1522727,
                "tempo": 120.0
            },
            {
                "start_time": 16.8295455,
                "end_time": 16.9795455,
                "pitch": 40,
                "velocity": 80,
                "duration": 0.15,
                "tempo": 120.0
            },
            {
                "start_time": 16.9818182,
                "end_time": 17.1318182,
                "pitch": 40,
                "velocity": 80,
                "duration": 0.15,
                "tempo": 120.0
            },
            {
                "start_time": 17.1318182,
                "end_time": 17.2818182,
                "pitch": 40,
                "velocity": 80,
                "duration": 0.15,
                "tempo": 120.0
            },
            {
                "start_time": 17.2840909,
                "end_time": 17.4318182,
                "pitch": 40,
                "velocity": 80,
                "duration": 0.1477273,
                "tempo": 120.0
            },
            {
                "start_time": 17.4318182,
                "end_time": 17.5818182,
                "pitch": 40,
                "velocity": 80,
                "duration": 0.15,
                "tempo": 120.0
            },
            {
                "start_time": 17.5818182,
                "end_time": 17.7318182,
                "pitch": 40,
                "velocity": 80,
                "duration": 0.15,
                "tempo": 120.0
            },
            {
                "start_time": 17.7340909,
                "end_time": 17.8840909,
                "pitch": 40,
                "velocity": 80,
                "duration": 0.15,
                "tempo": 120.0
            },
            {
                "start_time": 17.8840909,
                "end_time": 18.0363636,
                "pitch": 40,
                "velocity": 80,
                "duration": 0.1522727,
                "tempo": 120.0
            },
            {
                "start_time": 18.0386364,
                "end_time": 18.1886364,
                "pitch": 40,
                "velocity": 80,
                "duration": 0.15,
                "tempo": 120.0
            },
            {
                "start_time": 18.1886364,
                "end_time": 18.3386364,
                "pitch": 40,
                "velocity": 80,
                "duration": 0.15,
                "tempo": 120.0
            },
            {
                "start_time": 18.3409091,
                "end_time": 18.4909091,
                "pitch": 40,
                "velocity": 80,
                "duration": 0.15,
                "tempo": 120.0
            },
            {
                "start_time": 18.4931818,
                "end_time": 18.6431818,
                "pitch": 40,
                "velocity": 80,
                "duration": 0.15,
                "tempo": 120.0
            },
            {
                "start_time": 18.6431818,
                "end_time": 18.7931818,
                "pitch": 40,
                "velocity": 80,
                "duration": 0.15,
                "tempo": 120.0
            },
            {
                "start_time": 18.7954545,
                "end_time": 18.9454545,
                "pitch": 40,
                "velocity": 80,
                "duration": 0.15,
                "tempo": 120.0
            },
            {
                "start_time": 18.9477273,
                "end_time": 19.0954545,
                "pitch": 40,
                "velocity": 80,
                "duration": 0.1477273,
                "tempo": 120.0
            },
            {
                "start_time": 19.0977273,
                "end_time": 19.2477273,
                "pitch": 40,
                "velocity": 80,
                "duration": 0.15,
                "tempo": 120.0
            },
            {
                "start_time": 19.2477273,
                "end_time": 19.3977273,
                "pitch": 40,
                "velocity": 80,
                "duration": 0.15,
                "tempo": 120.0
            },
            {
                "start_time": 19.3977273,
                "end_time": 19.5477273,
                "pitch": 40,
                "velocity": 80,
                "duration": 0.15,
                "tempo": 120.0
            },
            {
                "start_time": 19.5477273,
                "end_time": 19.6977273,
                "pitch": 40,
                "velocity": 80,
                "duration": 0.15,
                "tempo": 120.0
            },
            {
                "start_time": 19.7,
                "end_time": 19.85,
                "pitch": 40,
                "velocity": 80,
                "duration": 0.15,
                "tempo": 120.0
            },
            {
                "start_time": 19.8522727,
                "end_time": 20.0022727,
                "pitch": 40,
                "velocity": 80,
                "duration": 0.15,
                "tempo": 120.0
            },
            {
                "start_time": 20.0022727,
                "end_time": 20.1545455,
                "pitch": 40,
                "velocity": 80,
                "duration": 0.1522727,
                "tempo": 120.0
            },
            {
                "start_time": 20.1545455,
                "end_time": 20.3045455,
                "pitch": 40,
                "velocity": 80,
                "duration": 0.15,
                "tempo": 120.0
            },
            {
                "start_time": 20.3045455,
                "end_time": 20.4545455,
                "pitch": 40,
                "velocity": 80,
                "duration": 0.15,
                "tempo": 120.0
            },
            {
                "start_time": 20.4568182,
                "end_time": 20.6045455,
                "pitch": 45,
                "velocity": 80,
                "duration": 0.1477273,
                "tempo": 120.0
            },
            {
                "start_time": 20.6045455,
                "end_time": 20.7545455,
                "pitch": 45,
                "velocity": 80,
                "duration": 0.15,
                "tempo": 120.0
            },
            {
                "start_time": 20.7568182,
                "end_time": 20.9068182,
                "pitch": 45,
                "velocity": 80,
                "duration": 0.15,
                "tempo": 120.0
            },
            {
                "start_time": 20.9068182,
                "end_time": 21.0590909,
                "pitch": 45,
                "velocity": 80,
                "duration": 0.1522727,
                "tempo": 120.0
            },
            {
                "start_time": 21.0590909,
                "end_time": 21.2090909,
                "pitch": 45,
                "velocity": 80,
                "duration": 0.15,
                "tempo": 120.0
            },
            {
                "start_time": 21.2113636,
                "end_time": 21.3613636,
                "pitch": 45,
                "velocity": 80,
                "duration": 0.15,
                "tempo": 120.0
            },
            {
                "start_time": 21.3613636,
                "end_time": 21.5136364,
                "pitch": 45,
                "velocity": 80,
                "duration": 0.1522727,
                "tempo": 120.0
            },
            {
                "start_time": 21.5136364,
                "end_time": 21.6659091,
                "pitch": 45,
                "velocity": 80,
                "duration": 0.1522727,
                "tempo": 120.0
            },
            {
                "start_time": 21.6659091,
                "end_time": 21.8159091,
                "pitch": 45,
                "velocity": 80,
                "duration": 0.15,
                "tempo": 120.0
            },
            {
                "start_time": 21.8181818,
                "end_time": 21.9681818,
                "pitch": 45,
                "velocity": 80,
                "duration": 0.15,
                "tempo": 120.0
            },
            {
                "start_time": 21.9704545,
                "end_time": 22.1181818,
                "pitch": 45,
                "velocity": 80,
                "duration": 0.1477273,
                "tempo": 120.0
            },
            {
                "start_time": 22.1204545,
                "end_time": 22.2681818,
                "pitch": 45,
                "velocity": 80,
                "duration": 0.1477273,
                "tempo": 120.0
            },
            {
                "start_time": 22.2704545,
                "end_time": 22.4181818,
                "pitch": 45,
                "velocity": 80,
                "duration": 0.1477273,
                "tempo": 120.0
            },
            {
                "start_time": 22.4204545,
                "end_time": 22.5681818,
                "pitch": 45,
                "velocity": 80,
                "duration": 0.1477273,
                "tempo": 120.0
            },
            {
                "start_time": 22.5704545,
                "end_time": 22.7227273,
                "pitch": 45,
                "velocity": 80,
                "duration": 0.1522727,
                "tempo": 120.0
            },
            {
                "start_time": 22.7227273,
                "end_time": 22.8772727,
                "pitch": 45,
                "velocity": 80,
                "duration": 0.1545455,
                "tempo": 120.0
            },
            {
                "start_time": 22.8772727,
                "end_time": 23.0295455,
                "pitch": 45,
                "velocity": 80,
                "duration": 0.1522727,
                "tempo": 120.0
            },
            {
                "start_time": 23.0295455,
                "end_time": 23.1818182,
                "pitch": 45,
                "velocity": 80,
                "duration": 0.1522727,
                "tempo": 120.0
            },
            {
                "start_time": 23.1840909,
                "end_time": 23.3340909,
                "pitch": 45,
                "velocity": 80,
                "duration": 0.15,
                "tempo": 120.0
            },
            {
                "start_time": 23.3340909,
                "end_time": 23.4863636,
                "pitch": 45,
                "velocity": 80,
                "duration": 0.1522727,
                "tempo": 120.0
            },
            {
                "start_time": 23.4863636,
                "end_time": 23.6386364,
                "pitch": 45,
                "velocity": 80,
                "duration": 0.1522727,
                "tempo": 120.0
            },
            {
                "start_time": 23.6386364,
                "end_time": 23.7886364,
                "pitch": 45,
                "velocity": 80,
                "duration": 0.15,
                "tempo": 120.0
            },
            {
                "start_time": 23.7909091,
                "end_time": 23.9409091,
                "pitch": 45,
                "velocity": 80,
                "duration": 0.15,
                "tempo": 120.0
            },
            {
                "start_time": 23.9409091,
                "end_time": 24.0931818,
                "pitch": 45,
                "velocity": 80,
                "duration": 0.1522727,
                "tempo": 120.0
            },
            {
                "start_time": 24.0954545,
                "end_time": 24.2454545,
                "pitch": 43,
                "velocity": 80,
                "duration": 0.15,
                "tempo": 120.0
            },
            {
                "start_time": 24.2454545,
                "end_time": 24.3954545,
                "pitch": 43,
                "velocity": 80,
                "duration": 0.15,
                "tempo": 120.0
            },
            {
                "start_time": 24.3977273,
                "end_time": 24.5454545,
                "pitch": 43,
                "velocity": 80,
                "duration": 0.1477273,
                "tempo": 120.0
            },
            {
                "start_time": 24.5477273,
                "end_time": 24.6954545,
                "pitch": 43,
                "velocity": 80,
                "duration": 0.1477273,
                "tempo": 120.0
            },
            {
                "start_time": 24.6977273,
                "end_time": 24.8454545,
                "pitch": 43,
                "velocity": 80,
                "duration": 0.1477273,
                "tempo": 120.0
            },
            {
                "start_time": 24.8477273,
                "end_time": 24.9977273,
                "pitch": 43,
                "velocity": 80,
                "duration": 0.15,
                "tempo": 120.0
            },
            {
                "start_time": 24.9977273,
                "end_time": 25.1477273,
                "pitch": 43,
                "velocity": 80,
                "duration": 0.15,
                "tempo": 120.0
            },
            {
                "start_time": 25.15,
                "end_time": 25.3,
                "pitch": 43,
                "velocity": 80,
                "duration": 0.15,
                "tempo": 120.0
            },
            {
                "start_time": 25.3022727,
                "end_time": 25.4522727,
                "pitch": 41,
                "velocity": 80,
                "duration": 0.15,
                "tempo": 120.0
            },
            {
                "start_time": 25.4522727,
                "end_time": 25.6022727,
                "pitch": 41,
                "velocity": 80,
                "duration": 0.15,
                "tempo": 120.0
            },
            {
                "start_time": 25.6045455,
                "end_time": 25.7545455,
                "pitch": 41,
                "velocity": 80,
                "duration": 0.15,
                "tempo": 120.0
            },
            {
                "start_time": 25.7545455,
                "end_time": 25.9045455,
                "pitch": 41,
                "velocity": 80,
                "duration": 0.15,
                "tempo": 120.0
            },
            {
                "start_time": 25.9045455,
                "end_time": 26.0545455,
                "pitch": 41,
                "velocity": 80,
                "duration": 0.15,
                "tempo": 120.0
            },
            {
                "start_time": 26.0545455,
                "end_time": 26.2045455,
                "pitch": 41,
                "velocity": 80,
                "duration": 0.15,
                "tempo": 120.0
            },
            {
                "start_time": 26.2045455,
                "end_time": 26.3568182,
                "pitch": 41,
                "velocity": 80,
                "duration": 0.1522727,
                "tempo": 120.0
            },
            {
                "start_time": 26.3568182,
                "end_time": 26.5090909,
                "pitch": 41,
                "velocity": 80,
                "duration": 0.1522727,
                "tempo": 120.0
            },
            {
                "start_time": 26.5090909,
                "end_time": 26.6590909,
                "pitch": 40,
                "velocity": 80,
                "duration": 0.15,
                "tempo": 120.0
            },
            {
                "start_time": 26.6590909,
                "end_time": 26.8113636,
                "pitch": 40,
                "velocity": 80,
                "duration": 0.1522727,
                "tempo": 120.0
            },
            {
                "start_time": 26.8113636,
                "end_time": 26.9636364,
                "pitch": 40,
                "velocity": 80,
                "duration": 0.1522727,
                "tempo": 120.0
            },
            {
                "start_time": 26.9636364,
                "end_time": 27.1136364,
                "pitch": 40,
                "velocity": 80,
                "duration": 0.15,
                "tempo": 120.0
            },
            {
                "start_time": 27.1159091,
                "end_time": 27.2659091,
                "pitch": 40,
                "velocity": 80,
                "duration": 0.15,
                "tempo": 120.0
            },
            {
                "start_time": 27.2681818,
                "end_time": 27.4181818,
                "pitch": 40,
                "velocity": 80,
                "duration": 0.15,
                "tempo": 120.0
            },
            {
                "start_time": 27.4181818,
                "end_time": 27.5681818,
                "pitch": 40,
                "velocity": 80,
                "duration": 0.15,
                "tempo": 120.0
            },
            {
                "start_time": 27.5681818,
                "end_time": 27.7181818,
                "pitch": 40,
                "velocity": 80,
                "duration": 0.15,
                "tempo": 120.0
            },
            {
                "start_time": 27.7204545,
                "end_time": 27.8681818,
                "pitch": 40,
                "velocity": 80,
                "duration": 0.1477273,
                "tempo": 120.0
            },
            {
                "start_time": 27.8681818,
                "end_time": 28.0181818,
                "pitch": 40,
                "velocity": 80,
                "duration": 0.15,
                "tempo": 120.0
            },
            {
                "start_time": 28.0204545,
                "end_time": 28.1704545,
                "pitch": 40,
                "velocity": 80,
                "duration": 0.15,
                "tempo": 120.0
            },
            {
                "start_time": 28.1704545,
                "end_time": 28.3227273,
                "pitch": 40,
                "velocity": 80,
                "duration": 0.1522727,
                "tempo": 120.0
            },
            {
                "start_time": 28.3227273,
                "end_time": 28.4727273,
                "pitch": 40,
                "velocity": 80,
                "duration": 0.15,
                "tempo": 120.0
            },
            {
                "start_time": 28.475,
                "end_time": 28.625,
                "pitch": 40,
                "velocity": 80,
                "duration": 0.15,
                "tempo": 120.0
            },
            {
                "start_time": 28.6272727,
                "end_time": 28.775,
                "pitch": 40,
                "velocity": 80,
                "duration": 0.1477273,
                "tempo": 120.0
            },
            {
                "start_time": 28.7772727,
                "end_time": 28.9272727,
                "pitch": 40,
                "velocity": 80,
                "duration": 0.15,
                "tempo": 120.0
            },
            {
                "start_time": 28.9272727,
                "end_time": 29.075,
                "pitch": 40,
                "velocity": 80,
                "duration": 0.1477273,
                "tempo": 120.0
            },
            {
                "start_time": 29.0772727,
                "end_time": 29.225,
                "pitch": 40,
                "velocity": 80,
                "duration": 0.1477273,
                "tempo": 120.0
            },
            {
                "start_time": 29.2272727,
                "end_time": 29.3772727,
                "pitch": 40,
                "velocity": 80,
                "duration": 0.15,
                "tempo": 120.0
            },
            {
                "start_time": 29.3795455,
                "end_time": 29.5295455,
                "pitch": 40,
                "velocity": 80,
                "duration": 0.15,
                "tempo": 120.0
            },
            {
                "start_time": 29.5295455,
                "end_time": 29.6818182,
                "pitch": 40,
                "velocity": 80,
                "duration": 0.1522727,
                "tempo": 120.0
            },
            {
                "start_time": 29.6818182,
                "end_time": 29.8340909,
                "pitch": 40,
                "velocity": 80,
                "duration": 0.1522727,
                "tempo": 120.0
            },
            {
                "start_time": 29.8340909,
                "end_time": 29.9840909,
                "pitch": 40,
                "velocity": 80,
                "duration": 0.15,
                "tempo": 120.0
            },
            {
                "start_time": 29.9863636,
                "end_time": 30.1363636,
                "pitch": 40,
                "velocity": 80,
                "duration": 0.15,
                "tempo": 120.0
            },
            {
                "start_time": 30.1386364,
                "end_time": 30.2886364,
                "pitch": 40,
                "velocity": 80,
                "duration": 0.15,
                "tempo": 120.0
            },
            {
                "start_time": 30.2886364,
                "end_time": 30.4386364,
                "pitch": 40,
                "velocity": 80,
                "duration": 0.15,
                "tempo": 120.0
            },
            {
                "start_time": 30.4409091,
                "end_time": 30.5931818,
                "pitch": 40,
                "velocity": 80,
                "duration": 0.1522727,
                "tempo": 120.0
            },
            {
                "start_time": 30.5931818,
                "end_time": 30.7454545,
                "pitch": 40,
                "velocity": 80,
                "duration": 0.1522727,
                "tempo": 120.0
            },
            {
                "start_time": 30.7477273,
                "end_time": 30.9,
                "pitch": 40,
                "velocity": 80,
                "duration": 0.1522727,
                "tempo": 120.0
            },
            {
                "start_time": 30.9,
                "end_time": 31.0522727,
                "pitch": 40,
                "velocity": 80,
                "duration": 0.1522727,
                "tempo": 120.0
            },
            {
                "start_time": 31.0545455,
                "end_time": 31.2022727,
                "pitch": 40,
                "velocity": 80,
                "duration": 0.1477273,
                "tempo": 120.0
            },
            {
                "start_time": 31.2045455,
                "end_time": 31.3545455,
                "pitch": 40,
                "velocity": 80,
                "duration": 0.15,
                "tempo": 120.0
            },
            {
                "start_time": 31.3568182,
                "end_time": 31.5045455,
                "pitch": 45,
                "velocity": 80,
                "duration": 0.1477273,
                "tempo": 120.0
            },
            {
                "start_time": 31.5045455,
                "end_time": 31.6545455,
                "pitch": 45,
                "velocity": 80,
                "duration": 0.15,
                "tempo": 120.0
            },
            {
                "start_time": 31.6545455,
                "end_time": 31.8045455,
                "pitch": 45,
                "velocity": 80,
                "duration": 0.15,
                "tempo": 120.0
            },
            {
                "start_time": 31.8068182,
                "end_time": 31.9568182,
                "pitch": 45,
                "velocity": 80,
                "duration": 0.15,
                "tempo": 120.0
            },
            {
                "start_time": 31.9568182,
                "end_time": 32.1090909,
                "pitch": 45,
                "velocity": 80,
                "duration": 0.1522727,
                "tempo": 120.0
            },
            {
                "start_time": 32.1090909,
                "end_time": 32.2590909,
                "pitch": 45,
                "velocity": 80,
                "duration": 0.15,
                "tempo": 120.0
            },
            {
                "start_time": 32.2613636,
                "end_time": 32.4113636,
                "pitch": 45,
                "velocity": 80,
                "duration": 0.15,
                "tempo": 120.0
            },
            {
                "start_time": 32.4136364,
                "end_time": 32.5636364,
                "pitch": 45,
                "velocity": 80,
                "duration": 0.15,
                "tempo": 120.0
            },
            {
                "start_time": 32.5659091,
                "end_time": 32.7159091,
                "pitch": 45,
                "velocity": 80,
                "duration": 0.15,
                "tempo": 120.0
            },
            {
                "start_time": 32.7159091,
                "end_time": 32.8681818,
                "pitch": 45,
                "velocity": 80,
                "duration": 0.1522727,
                "tempo": 120.0
            },
            {
                "start_time": 32.8681818,
                "end_time": 33.0181818,
                "pitch": 45,
                "velocity": 80,
                "duration": 0.15,
                "tempo": 120.0
            },
            {
                "start_time": 33.0204545,
                "end_time": 33.1704545,
                "pitch": 45,
                "velocity": 80,
                "duration": 0.15,
                "tempo": 120.0
            },
            {
                "start_time": 33.1704545,
                "end_time": 33.3227273,
                "pitch": 45,
                "velocity": 80,
                "duration": 0.1522727,
                "tempo": 120.0
            },
            {
                "start_time": 33.3227273,
                "end_time": 33.4727273,
                "pitch": 45,
                "velocity": 80,
                "duration": 0.15,
                "tempo": 120.0
            },
            {
                "start_time": 33.475,
                "end_time": 33.6227273,
                "pitch": 45,
                "velocity": 80,
                "duration": 0.1477273,
                "tempo": 120.0
            },
            {
                "start_time": 33.625,
                "end_time": 33.775,
                "pitch": 45,
                "velocity": 80,
                "duration": 0.15,
                "tempo": 120.0
            },
            {
                "start_time": 33.7772727,
                "end_time": 33.925,
                "pitch": 43,
                "velocity": 80,
                "duration": 0.1477273,
                "tempo": 120.0
            },
            {
                "start_time": 33.925,
                "end_time": 34.075,
                "pitch": 43,
                "velocity": 80,
                "duration": 0.15,
                "tempo": 120.0
            },
            {
                "start_time": 34.075,
                "end_time": 34.2272727,
                "pitch": 43,
                "velocity": 80,
                "duration": 0.1522727,
                "tempo": 120.0
            },
            {
                "start_time": 34.2272727,
                "end_time": 34.3795455,
                "pitch": 43,
                "velocity": 80,
                "duration": 0.1522727,
                "tempo": 120.0
            },
            {
                "start_time": 34.3795455,
                "end_time": 34.5295455,
                "pitch": 43,
                "velocity": 80,
                "duration": 0.15,
                "tempo": 120.0
            },
            {
                "start_time": 34.5318182,
                "end_time": 34.6818182,
                "pitch": 43,
                "velocity": 80,
                "duration": 0.15,
                "tempo": 120.0
            },
            {
                "start_time": 34.6818182,
                "end_time": 34.8340909,
                "pitch": 43,
                "velocity": 80,
                "duration": 0.1522727,
                "tempo": 120.0
            },
            {
                "start_time": 34.8340909,
                "end_time": 34.9863636,
                "pitch": 43,
                "velocity": 80,
                "duration": 0.1522727,
                "tempo": 120.0
            },
            {
                "start_time": 34.9863636,
                "end_time": 35.1363636,
                "pitch": 43,
                "velocity": 80,
                "duration": 0.15,
                "tempo": 120.0
            },
            {
                "start_time": 35.1386364,
                "end_time": 35.2886364,
                "pitch": 43,
                "velocity": 80,
                "duration": 0.15,
                "tempo": 120.0
            },
            {
                "start_time": 35.2886364,
                "end_time": 35.4409091,
                "pitch": 43,
                "velocity": 80,
                "duration": 0.1522727,
                "tempo": 120.0
            },
            {
                "start_time": 35.4409091,
                "end_time": 35.5931818,
                "pitch": 43,
                "velocity": 80,
                "duration": 0.1522727,
                "tempo": 120.0
            },
            {
                "start_time": 35.5931818,
                "end_time": 35.7431818,
                "pitch": 43,
                "velocity": 80,
                "duration": 0.15,
                "tempo": 120.0
            },
            {
                "start_time": 35.7454545,
                "end_time": 35.8954545,
                "pitch": 43,
                "velocity": 80,
                "duration": 0.15,
                "tempo": 120.0
            },
            {
                "start_time": 35.8954545,
                "end_time": 36.0477273,
                "pitch": 43,
                "velocity": 80,
                "duration": 0.1522727,
                "tempo": 120.0
            },
            {
                "start_time": 36.0477273,
                "end_time": 36.2,
                "pitch": 43,
                "velocity": 80,
                "duration": 0.1522727,
                "tempo": 120.0
            },
            {
                "start_time": 36.2,
                "end_time": 36.35,
                "pitch": 41,
                "velocity": 80,
                "duration": 0.15,
                "tempo": 120.0
            },
            {
                "start_time": 36.3522727,
                "end_time": 36.5022727,
                "pitch": 41,
                "velocity": 80,
                "duration": 0.15,
                "tempo": 120.0
            },
            {
                "start_time": 36.5022727,
                "end_time": 36.6522727,
                "pitch": 41,
                "velocity": 80,
                "duration": 0.15,
                "tempo": 120.0
            },
            {
                "start_time": 36.6522727,
                "end_time": 36.8022727,
                "pitch": 41,
                "velocity": 80,
                "duration": 0.15,
                "tempo": 120.0
            },
            {
                "start_time": 36.8045455,
                "end_time": 36.9522727,
                "pitch": 41,
                "velocity": 80,
                "duration": 0.1477273,
                "tempo": 120.0
            },
            {
                "start_time": 36.9522727,
                "end_time": 37.1022727,
                "pitch": 41,
                "velocity": 80,
                "duration": 0.15,
                "tempo": 120.0
            },
            {
                "start_time": 37.1045455,
                "end_time": 37.2545455,
                "pitch": 41,
                "velocity": 80,
                "duration": 0.15,
                "tempo": 120.0
            },
            {
                "start_time": 37.2568182,
                "end_time": 37.4068182,
                "pitch": 41,
                "velocity": 80,
                "duration": 0.15,
                "tempo": 120.0
            },
            {
                "start_time": 37.4090909,
                "end_time": 37.5590909,
                "pitch": 41,
                "velocity": 80,
                "duration": 0.15,
                "tempo": 120.0
            },
            {
                "start_time": 37.5590909,
                "end_time": 37.7090909,
                "pitch": 41,
                "velocity": 80,
                "duration": 0.15,
                "tempo": 120.0
            },
            {
                "start_time": 37.7113636,
                "end_time": 37.8613636,
                "pitch": 41,
                "velocity": 80,
                "duration": 0.15,
                "tempo": 120.0
            },
            {
                "start_time": 37.8613636,
                "end_time": 38.0136364,
                "pitch": 41,
                "velocity": 80,
                "duration": 0.1522727,
                "tempo": 120.0
            },
            {
                "start_time": 38.0136364,
                "end_time": 38.1659091,
                "pitch": 41,
                "velocity": 80,
                "duration": 0.1522727,
                "tempo": 120.0
            },
            {
                "start_time": 38.1659091,
                "end_time": 38.3159091,
                "pitch": 41,
                "velocity": 80,
                "duration": 0.15,
                "tempo": 120.0
            },
            {
                "start_time": 38.3181818,
                "end_time": 38.4681818,
                "pitch": 41,
                "velocity": 80,
                "duration": 0.15,
                "tempo": 120.0
            },
            {
                "start_time": 38.4681818,
                "end_time": 38.6204545,
                "pitch": 41,
                "velocity": 80,
                "duration": 0.1522727,
                "tempo": 120.0
            },
            {
                "start_time": 38.6227273,
                "end_time": 38.7727273,
                "pitch": 40,
                "velocity": 80,
                "duration": 0.15,
                "tempo": 120.0
            },
            {
                "start_time": 38.7727273,
                "end_time": 38.9227273,
                "pitch": 40,
                "velocity": 80,
                "duration": 0.15,
                "tempo": 120.0
            },
            {
                "start_time": 38.925,
                "end_time": 39.0772727,
                "pitch": 40,
                "velocity": 80,
                "duration": 0.1522727,
                "tempo": 120.0
            },
            {
                "start_time": 39.0772727,
                "end_time": 39.2295455,
                "pitch": 40,
                "velocity": 80,
                "duration": 0.1522727,
                "tempo": 120.0
            },
            {
                "start_time": 39.2318182,
                "end_time": 39.3840909,
                "pitch": 40,
                "velocity": 80,
                "duration": 0.1522727,
                "tempo": 120.0
            },
            {
                "start_time": 39.3840909,
                "end_time": 39.5363636,
                "pitch": 40,
                "velocity": 80,
                "duration": 0.1522727,
                "tempo": 120.0
            },
            {
                "start_time": 39.5386364,
                "end_time": 39.6886364,
                "pitch": 40,
                "velocity": 80,
                "duration": 0.15,
                "tempo": 120.0
            },
            {
                "start_time": 39.6886364,
                "end_time": 39.8409091,
                "pitch": 40,
                "velocity": 80,
                "duration": 0.1522727,
                "tempo": 120.0
            },
            {
                "start_time": 39.8409091,
                "end_time": 39.9909091,
                "pitch": 40,
                "velocity": 80,
                "duration": 0.15,
                "tempo": 120.0
            },
            {
                "start_time": 39.9931818,
                "end_time": 40.1431818,
                "pitch": 40,
                "velocity": 80,
                "duration": 0.15,
                "tempo": 120.0
            },
            {
                "start_time": 40.1431818,
                "end_time": 40.2931818,
                "pitch": 40,
                "velocity": 80,
                "duration": 0.15,
                "tempo": 120.0
            },
            {
                "start_time": 40.2954545,
                "end_time": 40.4431818,
                "pitch": 40,
                "velocity": 80,
                "duration": 0.1477273,
                "tempo": 120.0
            },
            {
                "start_time": 40.4454545,
                "end_time": 40.5931818,
                "pitch": 40,
                "velocity": 80,
                "duration": 0.1477273,
                "tempo": 120.0
            },
            {
                "start_time": 40.5954545,
                "end_time": 40.7454545,
                "pitch": 40,
                "velocity": 80,
                "duration": 0.15,
                "tempo": 120.0
            },
            {
                "start_time": 40.7454545,
                "end_time": 40.8954545,
                "pitch": 40,
                "velocity": 80,
                "duration": 0.15,
                "tempo": 120.0
            },
            {
                "start_time": 40.8954545,
                "end_time": 41.0477273,
                "pitch": 40,
                "velocity": 80,
                "duration": 0.1522727,
                "tempo": 120.0
            },
            {
                "start_time": 41.05,
                "end_time": 41.2,
                "pitch": 45,
                "velocity": 80,
                "duration": 0.15,
                "tempo": 120.0
            },
            {
                "start_time": 41.2,
                "end_time": 41.35,
                "pitch": 45,
                "velocity": 80,
                "duration": 0.15,
                "tempo": 120.0
            },
            {
                "start_time": 41.3522727,
                "end_time": 41.5022727,
                "pitch": 45,
                "velocity": 80,
                "duration": 0.15,
                "tempo": 120.0
            },
            {
                "start_time": 41.5022727,
                "end_time": 41.6545455,
                "pitch": 45,
                "velocity": 80,
                "duration": 0.1522727,
                "tempo": 120.0
            },
            {
                "start_time": 41.6545455,
                "end_time": 41.8068182,
                "pitch": 45,
                "velocity": 80,
                "duration": 0.1522727,
                "tempo": 120.0
            },
            {
                "start_time": 41.8068182,
                "end_time": 41.9568182,
                "pitch": 45,
                "velocity": 80,
                "duration": 0.15,
                "tempo": 120.0
            },
            {
                "start_time": 41.9590909,
                "end_time": 42.1090909,
                "pitch": 45,
                "velocity": 80,
                "duration": 0.15,
                "tempo": 120.0
            },
            {
                "start_time": 42.1113636,
                "end_time": 42.2613636,
                "pitch": 45,
                "velocity": 80,
                "duration": 0.15,
                "tempo": 120.0
            },
            {
                "start_time": 42.2636364,
                "end_time": 42.4136364,
                "pitch": 45,
                "velocity": 80,
                "duration": 0.15,
                "tempo": 120.0
            },
            {
                "start_time": 42.4136364,
                "end_time": 42.5636364,
                "pitch": 45,
                "velocity": 80,
                "duration": 0.15,
                "tempo": 120.0
            },
            {
                "start_time": 42.5659091,
                "end_time": 42.7159091,
                "pitch": 45,
                "velocity": 80,
                "duration": 0.15,
                "tempo": 120.0
            },
            {
                "start_time": 42.7181818,
                "end_time": 42.8681818,
                "pitch": 45,
                "velocity": 80,
                "duration": 0.15,
                "tempo": 120.0
            },
            {
                "start_time": 42.8681818,
                "end_time": 43.0204545,
                "pitch": 45,
                "velocity": 80,
                "duration": 0.1522727,
                "tempo": 120.0
            },
            {
                "start_time": 43.0204545,
                "end_time": 43.1704545,
                "pitch": 45,
                "velocity": 80,
                "duration": 0.15,
                "tempo": 120.0
            },
            {
                "start_time": 43.1727273,
                "end_time": 43.3204545,
                "pitch": 45,
                "velocity": 80,
                "duration": 0.1477273,
                "tempo": 120.0
            },
            {
                "start_time": 43.3227273,
                "end_time": 43.4727273,
                "pitch": 45,
                "velocity": 80,
                "duration": 0.15,
                "tempo": 120.0
            },
            {
                "start_time": 43.475,
                "end_time": 43.6227273,
                "pitch": 43,
                "velocity": 80,
                "duration": 0.1477273,
                "tempo": 120.0
            },
            {
                "start_time": 43.6227273,
                "end_time": 43.7727273,
                "pitch": 43,
                "velocity": 80,
                "duration": 0.15,
                "tempo": 120.0
            },
            {
                "start_time": 43.7727273,
                "end_time": 43.925,
                "pitch": 43,
                "velocity": 80,
                "duration": 0.1522727,
                "tempo": 120.0
            },
            {
                "start_time": 43.925,
                "end_time": 44.075,
                "pitch": 43,
                "velocity": 80,
                "duration": 0.15,
                "tempo": 120.0
            },
            {
                "start_time": 44.0772727,
                "end_time": 44.2272727,
                "pitch": 43,
                "velocity": 80,
                "duration": 0.15,
                "tempo": 120.0
            },
            {
                "start_time": 44.2272727,
                "end_time": 44.3795455,
                "pitch": 43,
                "velocity": 80,
                "duration": 0.1522727,
                "tempo": 120.0
            },
            {
                "start_time": 44.3795455,
                "end_time": 44.5295455,
                "pitch": 43,
                "velocity": 80,
                "duration": 0.15,
                "tempo": 120.0
            },
            {
                "start_time": 44.5318182,
                "end_time": 44.6840909,
                "pitch": 43,
                "velocity": 80,
                "duration": 0.1522727,
                "tempo": 120.0
            },
            {
                "start_time": 44.6840909,
                "end_time": 44.8340909,
                "pitch": 43,
                "velocity": 80,
                "duration": 0.15,
                "tempo": 120.0
            },
            {
                "start_time": 44.8340909,
                "end_time": 44.9863636,
                "pitch": 43,
                "velocity": 80,
                "duration": 0.1522727,
                "tempo": 120.0
            },
            {
                "start_time": 44.9863636,
                "end_time": 45.1386364,
                "pitch": 43,
                "velocity": 80,
                "duration": 0.1522727,
                "tempo": 120.0
            },
            {
                "start_time": 45.1386364,
                "end_time": 45.2886364,
                "pitch": 43,
                "velocity": 80,
                "duration": 0.15,
                "tempo": 120.0
            },
            {
                "start_time": 45.2909091,
                "end_time": 45.4409091,
                "pitch": 43,
                "velocity": 80,
                "duration": 0.15,
                "tempo": 120.0
            },
            {
                "start_time": 45.4409091,
                "end_time": 45.5931818,
                "pitch": 43,
                "velocity": 80,
                "duration": 0.1522727,
                "tempo": 120.0
            },
            {
                "start_time": 45.5931818,
                "end_time": 45.7431818,
                "pitch": 43,
                "velocity": 80,
                "duration": 0.15,
                "tempo": 120.0
            },
            {
                "start_time": 45.7454545,
                "end_time": 45.8977273,
                "pitch": 43,
                "velocity": 80,
                "duration": 0.1522727,
                "tempo": 120.0
            },
            {
                "start_time": 45.8977273,
                "end_time": 46.0477273,
                "pitch": 41,
                "velocity": 80,
                "duration": 0.15,
                "tempo": 120.0
            },
            {
                "start_time": 46.0477273,
                "end_time": 46.2,
                "pitch": 41,
                "velocity": 80,
                "duration": 0.1522727,
                "tempo": 120.0
            },
            {
                "start_time": 46.2,
                "end_time": 46.35,
                "pitch": 41,
                "velocity": 80,
                "duration": 0.15,
                "tempo": 120.0
            },
            {
                "start_time": 46.35,
                "end_time": 46.5,
                "pitch": 41,
                "velocity": 80,
                "duration": 0.15,
                "tempo": 120.0
            },
            {
                "start_time": 46.5,
                "end_time": 46.65,
                "pitch": 41,
                "velocity": 80,
                "duration": 0.15,
                "tempo": 120.0
            },
            {
                "start_time": 46.65,
                "end_time": 46.8022727,
                "pitch": 41,
                "velocity": 80,
                "duration": 0.1522727,
                "tempo": 120.0
            },
            {
                "start_time": 46.8022727,
                "end_time": 46.9522727,
                "pitch": 41,
                "velocity": 80,
                "duration": 0.15,
                "tempo": 120.0
            },
            {
                "start_time": 46.9545455,
                "end_time": 47.1045455,
                "pitch": 41,
                "velocity": 80,
                "duration": 0.15,
                "tempo": 120.0
            },
            {
                "start_time": 47.1045455,
                "end_time": 47.2545455,
                "pitch": 41,
                "velocity": 80,
                "duration": 0.15,
                "tempo": 120.0
            },
            {
                "start_time": 47.2568182,
                "end_time": 47.4068182,
                "pitch": 41,
                "velocity": 80,
                "duration": 0.15,
                "tempo": 120.0
            },
            {
                "start_time": 47.4090909,
                "end_time": 47.5613636,
                "pitch": 41,
                "velocity": 80,
                "duration": 0.1522727,
                "tempo": 120.0
            },
            {
                "start_time": 47.5613636,
                "end_time": 47.7136364,
                "pitch": 41,
                "velocity": 80,
                "duration": 0.1522727,
                "tempo": 120.0
            },
            {
                "start_time": 47.7136364,
                "end_time": 47.8681818,
                "pitch": 41,
                "velocity": 80,
                "duration": 0.1545455,
                "tempo": 120.0
            },
            {
                "start_time": 47.8681818,
                "end_time": 48.0204545,
                "pitch": 41,
                "velocity": 80,
                "duration": 0.1522727,
                "tempo": 120.0
            },
            {
                "start_time": 48.0204545,
                "end_time": 48.1727273,
                "pitch": 41,
                "velocity": 80,
                "duration": 0.1522727,
                "tempo": 120.0
            },
            {
                "start_time": 48.1727273,
                "end_time": 48.325,
                "pitch": 41,
                "velocity": 80,
                "duration": 0.1522727,
                "tempo": 120.0
            },
            {
                "start_time": 48.325,
                "end_time": 48.475,
                "pitch": 40,
                "velocity": 80,
                "duration": 0.15,
                "tempo": 120.0
            },
            {
                "start_time": 48.4772727,
                "end_time": 48.6272727,
                "pitch": 40,
                "velocity": 80,
                "duration": 0.15,
                "tempo": 120.0
            },
            {
                "start_time": 48.6272727,
                "end_time": 48.7795455,
                "pitch": 40,
                "velocity": 80,
                "duration": 0.1522727,
                "tempo": 120.0
            },
            {
                "start_time": 48.7795455,
                "end_time": 48.9318182,
                "pitch": 40,
                "velocity": 80,
                "duration": 0.1522727,
                "tempo": 120.0
            },
            {
                "start_time": 48.9318182,
                "end_time": 49.0818182,
                "pitch": 40,
                "velocity": 80,
                "duration": 0.15,
                "tempo": 120.0
            },
            {
                "start_time": 49.0840909,
                "end_time": 49.2340909,
                "pitch": 40,
                "velocity": 80,
                "duration": 0.15,
                "tempo": 120.0
            },
            {
                "start_time": 49.2340909,
                "end_time": 49.3863636,
                "pitch": 40,
                "velocity": 80,
                "duration": 0.1522727,
                "tempo": 120.0
            },
            {
                "start_time": 49.3863636,
                "end_time": 49.5386364,
                "pitch": 40,
                "velocity": 80,
                "duration": 0.1522727,
                "tempo": 120.0
            },
            {
                "start_time": 49.5386364,
                "end_time": 49.6886364,
                "pitch": 40,
                "velocity": 80,
                "duration": 0.15,
                "tempo": 120.0
            },
            {
                "start_time": 49.6909091,
                "end_time": 49.8409091,
                "pitch": 40,
                "velocity": 80,
                "duration": 0.15,
                "tempo": 120.0
            },
            {
                "start_time": 49.8409091,
                "end_time": 49.9931818,
                "pitch": 40,
                "velocity": 80,
                "duration": 0.1522727,
                "tempo": 120.0
            },
            {
                "start_time": 49.9931818,
                "end_time": 50.1454545,
                "pitch": 40,
                "velocity": 80,
                "duration": 0.1522727,
                "tempo": 120.0
            },
            {
                "start_time": 50.1454545,
                "end_time": 50.2954545,
                "pitch": 40,
                "velocity": 80,
                "duration": 0.15,
                "tempo": 120.0
            },
            {
                "start_time": 50.2954545,
                "end_time": 50.4477273,
                "pitch": 40,
                "velocity": 80,
                "duration": 0.1522727,
                "tempo": 120.0
            },
            {
                "start_time": 50.4477273,
                "end_time": 50.5977273,
                "pitch": 40,
                "velocity": 80,
                "duration": 0.15,
                "tempo": 120.0
            },
            {
                "start_time": 50.5977273,
                "end_time": 50.75,
                "pitch": 40,
                "velocity": 80,
                "duration": 0.1522727,
                "tempo": 120.0
            },
            {
                "start_time": 50.75,
                "end_time": 50.8977273,
                "pitch": 45,
                "velocity": 80,
                "duration": 0.1477273,
                "tempo": 120.0
            },
            {
                "start_time": 50.9,
                "end_time": 51.0477273,
                "pitch": 45,
                "velocity": 80,
                "duration": 0.1477273,
                "tempo": 120.0
            },
            {
                "start_time": 51.05,
                "end_time": 51.2,
                "pitch": 45,
                "velocity": 80,
                "duration": 0.15,
                "tempo": 120.0
            },
            {
                "start_time": 51.2,
                "end_time": 51.3522727,
                "pitch": 45,
                "velocity": 80,
                "duration": 0.1522727,
                "tempo": 120.0
            },
            {
                "start_time": 51.3522727,
                "end_time": 51.5045455,
                "pitch": 45,
                "velocity": 80,
                "duration": 0.1522727,
                "tempo": 120.0
            },
            {
                "start_time": 51.5045455,
                "end_time": 51.6545455,
                "pitch": 45,
                "velocity": 80,
                "duration": 0.15,
                "tempo": 120.0
            },
            {
                "start_time": 51.6568182,
                "end_time": 51.8068182,
                "pitch": 45,
                "velocity": 80,
                "duration": 0.15,
                "tempo": 120.0
            },
            {
                "start_time": 51.8068182,
                "end_time": 51.9590909,
                "pitch": 45,
                "velocity": 80,
                "duration": 0.1522727,
                "tempo": 120.0
            },
            {
                "start_time": 51.9590909,
                "end_time": 52.1113636,
                "pitch": 41,
                "velocity": 80,
                "duration": 0.1522727,
                "tempo": 120.0
            },
            {
                "start_time": 52.1113636,
                "end_time": 52.2613636,
                "pitch": 41,
                "velocity": 80,
                "duration": 0.15,
                "tempo": 120.0
            },
            {
                "start_time": 52.2636364,
                "end_time": 52.4136364,
                "pitch": 41,
                "velocity": 80,
                "duration": 0.15,
                "tempo": 120.0
            },
            {
                "start_time": 52.4136364,
                "end_time": 52.5659091,
                "pitch": 41,
                "velocity": 80,
                "duration": 0.1522727,
                "tempo": 120.0
            },
            {
                "start_time": 52.5659091,
                "end_time": 52.7181818,
                "pitch": 41,
                "velocity": 80,
                "duration": 0.1522727,
                "tempo": 120.0
            },
            {
                "start_time": 52.7181818,
                "end_time": 52.8681818,
                "pitch": 41,
                "velocity": 80,
                "duration": 0.15,
                "tempo": 120.0
            },
            {
                "start_time": 52.8704545,
                "end_time": 53.0204545,
                "pitch": 41,
                "velocity": 80,
                "duration": 0.15,
                "tempo": 120.0
            },
            {
                "start_time": 53.0204545,
                "end_time": 53.1727273,
                "pitch": 41,
                "velocity": 80,
                "duration": 0.1522727,
                "tempo": 120.0
            },
            {
                "start_time": 53.175,
                "end_time": 53.325,
                "pitch": 43,
                "velocity": 80,
                "duration": 0.15,
                "tempo": 120.0
            },
            {
                "start_time": 53.325,
                "end_time": 53.475,
                "pitch": 43,
                "velocity": 80,
                "duration": 0.15,
                "tempo": 120.0
            },
            {
                "start_time": 53.4772727,
                "end_time": 53.625,
                "pitch": 43,
                "velocity": 80,
                "duration": 0.1477273,
                "tempo": 120.0
            },
            {
                "start_time": 53.6272727,
                "end_time": 53.775,
                "pitch": 43,
                "velocity": 80,
                "duration": 0.1477273,
                "tempo": 120.0
            },
            {
                "start_time": 53.7772727,
                "end_time": 53.9272727,
                "pitch": 43,
                "velocity": 80,
                "duration": 0.15,
                "tempo": 120.0
            },
            {
                "start_time": 53.9272727,
                "end_time": 54.0772727,
                "pitch": 43,
                "velocity": 80,
                "duration": 0.15,
                "tempo": 120.0
            },
            {
                "start_time": 54.0772727,
                "end_time": 54.2295455,
                "pitch": 43,
                "velocity": 80,
                "duration": 0.1522727,
                "tempo": 120.0
            },
            {
                "start_time": 54.2295455,
                "end_time": 54.3840909,
                "pitch": 43,
                "velocity": 80,
                "duration": 0.1545455,
                "tempo": 120.0
            },
            {
                "start_time": 54.3840909,
                "end_time": 54.5363636,
                "pitch": 40,
                "velocity": 80,
                "duration": 0.1522727,
                "tempo": 120.0
            },
            {
                "start_time": 54.5363636,
                "end_time": 54.6886364,
                "pitch": 40,
                "velocity": 80,
                "duration": 0.1522727,
                "tempo": 120.0
            },
            {
                "start_time": 54.6909091,
                "end_time": 54.8409091,
                "pitch": 40,
                "velocity": 80,
                "duration": 0.15,
                "tempo": 120.0
            },
            {
                "start_time": 54.8409091,
                "end_time": 54.9931818,
                "pitch": 40,
                "velocity": 80,
                "duration": 0.1522727,
                "tempo": 120.0
            },
            {
                "start_time": 54.9931818,
                "end_time": 55.1454545,
                "pitch": 40,
                "velocity": 80,
                "duration": 0.1522727,
                "tempo": 120.0
            },
            {
                "start_time": 55.1454545,
                "end_time": 55.2954545,
                "pitch": 40,
                "velocity": 80,
                "duration": 0.15,
                "tempo": 120.0
            },
            {
                "start_time": 55.2977273,
                "end_time": 55.4477273,
                "pitch": 40,
                "velocity": 80,
                "duration": 0.15,
                "tempo": 120.0
            },
            {
                "start_time": 55.4477273,
                "end_time": 55.6,
                "pitch": 40,
                "velocity": 80,
                "duration": 0.1522727,
                "tempo": 120.0
            },
            {
                "start_time": 55.6022727,
                "end_time": 55.7522727,
                "pitch": 45,
                "velocity": 80,
                "duration": 0.15,
                "tempo": 120.0
            },
            {
                "start_time": 55.7522727,
                "end_time": 55.9022727,
                "pitch": 45,
                "velocity": 80,
                "duration": 0.15,
                "tempo": 120.0
            },
            {
                "start_time": 55.9045455,
                "end_time": 56.0545455,
                "pitch": 45,
                "velocity": 80,
                "duration": 0.15,
                "tempo": 120.0
            },
            {
                "start_time": 56.0545455,
                "end_time": 56.2068182,
                "pitch": 45,
                "velocity": 80,
                "duration": 0.1522727,
                "tempo": 120.0
            },
            {
                "start_time": 56.2068182,
                "end_time": 56.3590909,
                "pitch": 45,
                "velocity": 80,
                "duration": 0.1522727,
                "tempo": 120.0
            },
            {
                "start_time": 56.3590909,
                "end_time": 56.5090909,
                "pitch": 45,
                "velocity": 80,
                "duration": 0.15,
                "tempo": 120.0
            },
            {
                "start_time": 56.5113636,
                "end_time": 56.6613636,
                "pitch": 45,
                "velocity": 80,
                "duration": 0.15,
                "tempo": 120.0
            },
            {
                "start_time": 56.6613636,
                "end_time": 56.8136364,
                "pitch": 45,
                "velocity": 80,
                "duration": 0.1522727,
                "tempo": 120.0
            },
            {
                "start_time": 56.8136364,
                "end_time": 56.9659091,
                "pitch": 41,
                "velocity": 80,
                "duration": 0.1522727,
                "tempo": 120.0
            },
            {
                "start_time": 56.9659091,
                "end_time": 57.1159091,
                "pitch": 41,
                "velocity": 80,
                "duration": 0.15,
                "tempo": 120.0
            },
            {
                "start_time": 57.1181818,
                "end_time": 57.2659091,
                "pitch": 41,
                "velocity": 80,
                "duration": 0.1477273,
                "tempo": 120.0
            },
            {
                "start_time": 57.2681818,
                "end_time": 57.4181818,
                "pitch": 41,
                "velocity": 80,
                "duration": 0.15,
                "tempo": 120.0
            },
            {
                "start_time": 57.4181818,
                "end_time": 57.5681818,
                "pitch": 42,
                "velocity": 80,
                "duration": 0.15,
                "tempo": 120.0
            },
            {
                "start_time": 57.5681818,
                "end_time": 57.7181818,
                "pitch": 43,
                "velocity": 80,
                "duration": 0.15,
                "tempo": 120.0
            },
            {
                "start_time": 57.7181818,
                "end_time": 57.8704545,
                "pitch": 44,
                "velocity": 80,
                "duration": 0.1522727,
                "tempo": 120.0
            },
            {
                "start_time": 57.8704545,
                "end_time": 58.0204545,
                "pitch": 45,
                "velocity": 80,
                "duration": 0.15,
                "tempo": 120.0
            },
            {
                "start_time": 58.325,
                "end_time": 58.475,
                "pitch": 45,
                "velocity": 80,
                "duration": 0.15,
                "tempo": 120.0
            },
            {
                "start_time": 58.7795455,
                "end_time": 58.9295455,
                "pitch": 43,
                "velocity": 80,
                "duration": 0.15,
                "tempo": 120.0
            },
            {
                "start_time": 59.2340909,
                "end_time": 59.3840909,
                "pitch": 45,
                "velocity": 80,
                "duration": 0.15,
                "tempo": 120.0
            },
            {
                "start_time": 59.6886364,
                "end_time": 59.8386364,
                "pitch": 43,
                "velocity": 80,
                "duration": 0.15,
                "tempo": 120.0
            },
            {
                "start_time": 60.1454545,
                "end_time": 60.2931818,
                "pitch": 45,
                "velocity": 80,
                "duration": 0.1477273,
                "tempo": 120.0
            },
            {
                "start_time": 60.7454545,
                "end_time": 60.8954545,
                "pitch": 45,
                "velocity": 80,
                "duration": 0.15,
                "tempo": 120.0
            },
            {
                "start_time": 61.2,
                "end_time": 61.35,
                "pitch": 43,
                "velocity": 80,
                "duration": 0.15,
                "tempo": 120.0
            },
            {
                "start_time": 61.6568182,
                "end_time": 61.8068182,
                "pitch": 45,
                "velocity": 80,
                "duration": 0.15,
                "tempo": 120.0
            },
            {
                "start_time": 62.1113636,
                "end_time": 62.2613636,
                "pitch": 43,
                "velocity": 80,
                "duration": 0.15,
                "tempo": 120.0
            },
            {
                "start_time": 62.5659091,
                "end_time": 62.7159091,
                "pitch": 45,
                "velocity": 80,
                "duration": 0.15,
                "tempo": 120.0
            },
            {
                "start_time": 63.1727273,
                "end_time": 63.3204545,
                "pitch": 45,
                "velocity": 80,
                "duration": 0.1477273,
                "tempo": 120.0
            },
            {
                "start_time": 63.6227273,
                "end_time": 63.7727273,
                "pitch": 43,
                "velocity": 80,
                "duration": 0.15,
                "tempo": 120.0
            },
            {
                "start_time": 64.0818182,
                "end_time": 64.2318182,
                "pitch": 45,
                "velocity": 80,
                "duration": 0.15,
                "tempo": 120.0
            },
            {
                "start_time": 64.5386364,
                "end_time": 64.6886364,
                "pitch": 43,
                "velocity": 80,
                "duration": 0.15,
                "tempo": 120.0
            },
            {
                "start_time": 64.9931818,
                "end_time": 65.1409091,
                "pitch": 45,
                "velocity": 80,
                "duration": 0.1477273,
                "tempo": 120.0
            },
            {
                "start_time": 65.5954545,
                "end_time": 65.7431818,
                "pitch": 45,
                "velocity": 80,
                "duration": 0.1477273,
                "tempo": 120.0
            },
            {
                "start_time": 66.0454545,
                "end_time": 66.1931818,
                "pitch": 43,
                "velocity": 80,
                "duration": 0.1477273,
                "tempo": 120.0
            },
            {
                "start_time": 66.4977273,
                "end_time": 66.95,
                "pitch": 38,
                "velocity": 80,
                "duration": 0.4522727,
                "tempo": 120.0
            },
            {
                "start_time": 66.95,
                "end_time": 67.4,
                "pitch": 39,
                "velocity": 80,
                "duration": 0.45,
                "tempo": 120.0
            },
            {
                "start_time": 67.4022727,
                "end_time": 67.5522727,
                "pitch": 40,
                "velocity": 80,
                "duration": 0.15,
                "tempo": 120.0
            }
        ],
        "Electric Piano 1": [
            {
                "start_time": 0.0204545,
                "end_time": 0.1181818,
                "pitch": 60,
                "velocity": 80,
                "duration": 0.0977273,
                "tempo": 120.0
            },
            {
                "start_time": 0.1181818,
                "end_time": 0.2181818,
                "pitch": 60,
                "velocity": 80,
                "duration": 0.1,
                "tempo": 120.0
            },
            {
                "start_time": 0.2181818,
                "end_time": 0.5181818,
                "pitch": 60,
                "velocity": 80,
                "duration": 0.3,
                "tempo": 120.0
            },
            {
                "start_time": 0.5204545,
                "end_time": 0.6704545,
                "pitch": 60,
                "velocity": 80,
                "duration": 0.15,
                "tempo": 120.0
            },
            {
                "start_time": 0.6727273,
                "end_time": 0.975,
                "pitch": 59,
                "velocity": 80,
                "duration": 0.3022727,
                "tempo": 120.0
            },
            {
                "start_time": 0.975,
                "end_time": 1.1272727,
                "pitch": 59,
                "velocity": 80,
                "duration": 0.1522727,
                "tempo": 120.0
            },
            {
                "start_time": 1.1272727,
                "end_time": 1.4295455,
                "pitch": 62,
                "velocity": 80,
                "duration": 0.3022727,
                "tempo": 120.0
            },
            {
                "start_time": 1.4318182,
                "end_time": 1.5795455,
                "pitch": 60,
                "velocity": 80,
                "duration": 0.1477273,
                "tempo": 120.0
            },
            {
                "start_time": 1.5818182,
                "end_time": 2.0295455,
                "pitch": 60,
                "velocity": 80,
                "duration": 0.4477273,
                "tempo": 120.0
            },
            {
                "start_time": 2.0318182,
                "end_time": 2.3318182,
                "pitch": 60,
                "velocity": 80,
                "duration": 0.3,
                "tempo": 120.0
            },
            {
                "start_time": 2.3340909,
                "end_time": 2.4818182,
                "pitch": 60,
                "velocity": 80,
                "duration": 0.1477273,
                "tempo": 120.0
            },
            {
                "start_time": 2.4818182,
                "end_time": 2.6318182,
                "pitch": 60,
                "velocity": 80,
                "duration": 0.15,
                "tempo": 120.0
            },
            {
                "start_time": 2.6318182,
                "end_time": 2.9340909,
                "pitch": 60,
                "velocity": 80,
                "duration": 0.3022727,
                "tempo": 120.0
            },
            {
                "start_time": 2.9363636,
                "end_time": 3.0863636,
                "pitch": 60,
                "velocity": 80,
                "duration": 0.15,
                "tempo": 120.0
            },
            {
                "start_time": 3.0886364,
                "end_time": 3.3886364,
                "pitch": 59,
                "velocity": 80,
                "duration": 0.3,
                "tempo": 120.0
            },
            {
                "start_time": 3.3909091,
                "end_time": 3.5409091,
                "pitch": 59,
                "velocity": 80,
                "duration": 0.15,
                "tempo": 120.0
            },
            {
                "start_time": 3.5431818,
                "end_time": 3.8454545,
                "pitch": 62,
                "velocity": 80,
                "duration": 0.3022727,
                "tempo": 120.0
            },
            {
                "start_time": 3.8454545,
                "end_time": 3.9954545,
                "pitch": 60,
                "velocity": 80,
                "duration": 0.15,
                "tempo": 120.0
            },
            {
                "start_time": 3.9977273,
                "end_time": 4.4522727,
                "pitch": 60,
                "velocity": 80,
                "duration": 0.4545455,
                "tempo": 120.0
            },
            {
                "start_time": 4.4522727,
                "end_time": 4.7545455,
                "pitch": 60,
                "velocity": 80,
                "duration": 0.3022727,
                "tempo": 120.0
            },
            {
                "start_time": 4.7568182,
                "end_time": 4.9068182,
                "pitch": 60,
                "velocity": 80,
                "duration": 0.15,
                "tempo": 120.0
            },
            {
                "start_time": 4.9090909,
                "end_time": 5.0590909,
                "pitch": 60,
                "velocity": 80,
                "duration": 0.15,
                "tempo": 120.0
            },
            {
                "start_time": 5.0590909,
                "end_time": 5.3590909,
                "pitch": 60,
                "velocity": 80,
                "duration": 0.3,
                "tempo": 120.0
            },
            {
                "start_time": 5.3613636,
                "end_time": 5.5090909,
                "pitch": 60,
                "velocity": 80,
                "duration": 0.1477273,
                "tempo": 120.0
            },
            {
                "start_time": 5.5113636,
                "end_time": 5.8113636,
                "pitch": 59,
                "velocity": 80,
                "duration": 0.3,
                "tempo": 120.0
            },
            {
                "start_time": 5.8136364,
                "end_time": 5.9636364,
                "pitch": 59,
                "velocity": 80,
                "duration": 0.15,
                "tempo": 120.0
            },
            {
                "start_time": 5.9636364,
                "end_time": 6.2659091,
                "pitch": 62,
                "velocity": 80,
                "duration": 0.3022727,
                "tempo": 120.0
            },
            {
                "start_time": 6.2681818,
                "end_time": 6.4159091,
                "pitch": 60,
                "velocity": 80,
                "duration": 0.1477273,
                "tempo": 120.0
            },
            {
                "start_time": 6.4181818,
                "end_time": 6.8659091,
                "pitch": 60,
                "velocity": 80,
                "duration": 0.4477273,
                "tempo": 120.0
            },
            {
                "start_time": 6.8681818,
                "end_time": 7.1727273,
                "pitch": 60,
                "velocity": 80,
                "duration": 0.3045455,
                "tempo": 120.0
            },
            {
                "start_time": 7.175,
                "end_time": 7.3272727,
                "pitch": 60,
                "velocity": 80,
                "duration": 0.1522727,
                "tempo": 120.0
            },
            {
                "start_time": 7.3272727,
                "end_time": 7.4795455,
                "pitch": 60,
                "velocity": 80,
                "duration": 0.1522727,
                "tempo": 120.0
            },
            {
                "start_time": 7.4818182,
                "end_time": 7.7795455,
                "pitch": 60,
                "velocity": 80,
                "duration": 0.2977273,
                "tempo": 120.0
            },
            {
                "start_time": 7.7818182,
                "end_time": 7.9295455,
                "pitch": 60,
                "velocity": 80,
                "duration": 0.1477273,
                "tempo": 120.0
            },
            {
                "start_time": 7.9318182,
                "end_time": 8.2318182,
                "pitch": 59,
                "velocity": 80,
                "duration": 0.3,
                "tempo": 120.0
            },
            {
                "start_time": 8.2340909,
                "end_time": 8.3840909,
                "pitch": 59,
                "velocity": 80,
                "duration": 0.15,
                "tempo": 120.0
            },
            {
                "start_time": 8.3863636,
                "end_time": 8.6863636,
                "pitch": 62,
                "velocity": 80,
                "duration": 0.3,
                "tempo": 120.0
            },
            {
                "start_time": 8.6886364,
                "end_time": 8.8386364,
                "pitch": 60,
                "velocity": 80,
                "duration": 0.15,
                "tempo": 120.0
            },
            {
                "start_time": 8.8386364,
                "end_time": 9.2886364,
                "pitch": 60,
                "velocity": 80,
                "duration": 0.45,
                "tempo": 120.0
            },
            {
                "start_time": 9.2909091,
                "end_time": 9.5886364,
                "pitch": 60,
                "velocity": 80,
                "duration": 0.2977273,
                "tempo": 120.0
            },
            {
                "start_time": 9.5909091,
                "end_time": 9.7386364,
                "pitch": 57,
                "velocity": 80,
                "duration": 0.1477273,
                "tempo": 120.0
            },
            {
                "start_time": 9.7409091,
                "end_time": 9.8886364,
                "pitch": 59,
                "velocity": 80,
                "duration": 0.1477273,
                "tempo": 120.0
            },
            {
                "start_time": 9.8909091,
                "end_time": 10.0386364,
                "pitch": 60,
                "velocity": 80,
                "duration": 0.1477273,
                "tempo": 120.0
            },
            {
                "start_time": 10.0409091,
                "end_time": 10.1886364,
                "pitch": 62,
                "velocity": 80,
                "duration": 0.1477273,
                "tempo": 120.0
            },
            {
                "start_time": 10.1909091,
                "end_time": 10.3386364,
                "pitch": 64,
                "velocity": 80,
                "duration": 0.1477273,
                "tempo": 120.0
            },
            {
                "start_time": 10.3409091,
                "end_time": 10.4886364,
                "pitch": 65,
                "velocity": 80,
                "duration": 0.1477273,
                "tempo": 120.0
            },
            {
                "start_time": 10.4909091,
                "end_time": 10.6409091,
                "pitch": 67,
                "velocity": 80,
                "duration": 0.15,
                "tempo": 120.0
            },
            {
                "start_time": 10.6409091,
                "end_time": 10.9409091,
                "pitch": 69,
                "velocity": 80,
                "duration": 0.3,
                "tempo": 120.0
            },
            {
                "start_time": 10.9409091,
                "end_time": 11.0909091,
                "pitch": 71,
                "velocity": 80,
                "duration": 0.15,
                "tempo": 120.0
            },
            {
                "start_time": 11.0909091,
                "end_time": 11.2431818,
                "pitch": 69,
                "velocity": 80,
                "duration": 0.1522727,
                "tempo": 120.0
            },
            {
                "start_time": 11.2431818,
                "end_time": 11.3931818,
                "pitch": 64,
                "velocity": 80,
                "duration": 0.15,
                "tempo": 120.0
            },
            {
                "start_time": 11.3954545,
                "end_time": 11.5454545,
                "pitch": 69,
                "velocity": 80,
                "duration": 0.15,
                "tempo": 120.0
            },
            {
                "start_time": 11.5477273,
                "end_time": 11.6977273,
                "pitch": 64,
                "velocity": 80,
                "duration": 0.15,
                "tempo": 120.0
            },
            {
                "start_time": 11.6977273,
                "end_time": 11.8477273,
                "pitch": 62,
                "velocity": 80,
                "duration": 0.15,
                "tempo": 120.0
            },
            {
                "start_time": 11.85,
                "end_time": 11.9977273,
                "pitch": 64,
                "velocity": 80,
                "duration": 0.1477273,
                "tempo": 120.0
            },
            {
                "start_time": 12.0,
                "end_time": 12.1477273,
                "pitch": 64,
                "velocity": 80,
                "duration": 0.1477273,
                "tempo": 120.0
            },
            {
                "start_time": 12.15,
                "end_time": 12.2977273,
                "pitch": 71,
                "velocity": 80,
                "duration": 0.1477273,
                "tempo": 120.0
            },
            {
                "start_time": 12.3,
                "end_time": 12.4477273,
                "pitch": 69,
                "velocity": 80,
                "duration": 0.1477273,
                "tempo": 120.0
            },
            {
                "start_time": 12.45,
                "end_time": 12.5977273,
                "pitch": 64,
                "velocity": 80,
                "duration": 0.1477273,
                "tempo": 120.0
            },
            {
                "start_time": 12.6,
                "end_time": 12.7477273,
                "pitch": 69,
                "velocity": 80,
                "duration": 0.1477273,
                "tempo": 120.0
            },
            {
                "start_time": 12.75,
                "end_time": 12.9,
                "pitch": 64,
                "velocity": 80,
                "duration": 0.15,
                "tempo": 120.0
            },
            {
                "start_time": 12.9,
                "end_time": 13.05,
                "pitch": 62,
                "velocity": 80,
                "duration": 0.15,
                "tempo": 120.0
            },
            {
                "start_time": 13.05,
                "end_time": 13.2,
                "pitch": 64,
                "velocity": 80,
                "duration": 0.15,
                "tempo": 120.0
            },
            {
                "start_time": 13.2,
                "end_time": 13.35,
                "pitch": 62,
                "velocity": 80,
                "duration": 0.15,
                "tempo": 120.0
            },
            {
                "start_time": 13.35,
                "end_time": 13.5,
                "pitch": 69,
                "velocity": 80,
                "duration": 0.15,
                "tempo": 120.0
            },
            {
                "start_time": 13.5,
                "end_time": 13.65,
                "pitch": 67,
                "velocity": 80,
                "duration": 0.15,
                "tempo": 120.0
            },
            {
                "start_time": 13.6522727,
                "end_time": 13.8,
                "pitch": 65,
                "velocity": 80,
                "duration": 0.1477273,
                "tempo": 120.0
            },
            {
                "start_time": 13.8022727,
                "end_time": 13.95,
                "pitch": 67,
                "velocity": 80,
                "duration": 0.1477273,
                "tempo": 120.0
            },
            {
                "start_time": 13.9522727,
                "end_time": 14.1,
                "pitch": 65,
                "velocity": 80,
                "duration": 0.1477273,
                "tempo": 120.0
            },
            {
                "start_time": 14.1022727,
                "end_time": 14.2522727,
                "pitch": 62,
                "velocity": 80,
                "duration": 0.15,
                "tempo": 120.0
            },
            {
                "start_time": 14.2545455,
                "end_time": 14.4045455,
                "pitch": 64,
                "velocity": 80,
                "duration": 0.15,
                "tempo": 120.0
            },
            {
                "start_time": 14.4068182,
                "end_time": 14.5545455,
                "pitch": 65,
                "velocity": 80,
                "duration": 0.1477273,
                "tempo": 120.0
            },
            {
                "start_time": 14.5568182,
                "end_time": 14.7068182,
                "pitch": 64,
                "velocity": 80,
                "duration": 0.15,
                "tempo": 120.0
            },
            {
                "start_time": 14.7090909,
                "end_time": 14.8613636,
                "pitch": 62,
                "velocity": 80,
                "duration": 0.1522727,
                "tempo": 120.0
            },
            {
                "start_time": 14.8613636,
                "end_time": 15.0136364,
                "pitch": 64,
                "velocity": 80,
                "duration": 0.1522727,
                "tempo": 120.0
            },
            {
                "start_time": 15.0159091,
                "end_time": 15.1659091,
                "pitch": 62,
                "velocity": 80,
                "duration": 0.15,
                "tempo": 120.0
            },
            {
                "start_time": 15.1681818,
                "end_time": 15.3204545,
                "pitch": 60,
                "velocity": 80,
                "duration": 0.1522727,
                "tempo": 120.0
            },
            {
                "start_time": 15.3227273,
                "end_time": 15.4704545,
                "pitch": 62,
                "velocity": 80,
                "duration": 0.1477273,
                "tempo": 120.0
            },
            {
                "start_time": 15.4727273,
                "end_time": 15.6204545,
                "pitch": 64,
                "velocity": 80,
                "duration": 0.1477273,
                "tempo": 120.0
            },
            {
                "start_time": 15.6227273,
                "end_time": 15.9204545,
                "pitch": 64,
                "velocity": 80,
                "duration": 0.2977273,
                "tempo": 120.0
            },
            {
                "start_time": 15.9227273,
                "end_time": 16.0704545,
                "pitch": 59,
                "velocity": 80,
                "duration": 0.1477273,
                "tempo": 120.0
            },
            {
                "start_time": 16.0727273,
                "end_time": 16.3727273,
                "pitch": 64,
                "velocity": 80,
                "duration": 0.3,
                "tempo": 120.0
            },
            {
                "start_time": 16.3727273,
                "end_time": 16.5227273,
                "pitch": 59,
                "velocity": 80,
                "duration": 0.15,
                "tempo": 120.0
            },
            {
                "start_time": 16.5227273,
                "end_time": 16.825,
                "pitch": 62,
                "velocity": 80,
                "duration": 0.3022727,
                "tempo": 120.0
            },
            {
                "start_time": 16.8272727,
                "end_time": 17.2795455,
                "pitch": 64,
                "velocity": 80,
                "duration": 0.4522727,
                "tempo": 120.0
            },
            {
                "start_time": 17.2795455,
                "end_time": 17.6977273,
                "pitch": 67,
                "velocity": 80,
                "duration": 0.4181818,
                "tempo": 120.0
            },
            {
                "start_time": 17.6977273,
                "end_time": 17.7136364,
                "pitch": 67,
                "velocity": 80,
                "duration": 0.0159091,
                "tempo": 120.0
            },
            {
                "start_time": 17.7136364,
                "end_time": 17.7295455,
                "pitch": 67,
                "velocity": 80,
                "duration": 0.0159091,
                "tempo": 120.0
            },
            {
                "start_time": 17.7318182,
                "end_time": 18.0340909,
                "pitch": 66,
                "velocity": 80,
                "duration": 0.3022727,
                "tempo": 120.0
            },
            {
                "start_time": 18.0340909,
                "end_time": 18.4886364,
                "pitch": 65,
                "velocity": 80,
                "duration": 0.4545455,
                "tempo": 120.0
            },
            {
                "start_time": 18.4886364,
                "end_time": 18.9431818,
                "pitch": 60,
                "velocity": 80,
                "duration": 0.4545455,
                "tempo": 120.0
            },
            {
                "start_time": 18.9454545,
                "end_time": 19.2431818,
                "pitch": 62,
                "velocity": 80,
                "duration": 0.2977273,
                "tempo": 120.0
            },
            {
                "start_time": 19.2454545,
                "end_time": 20.4522727,
                "pitch": 64,
                "velocity": 80,
                "duration": 1.2068182,
                "tempo": 120.0
            },
            {
                "start_time": 20.4522727,
                "end_time": 20.6022727,
                "pitch": 57,
                "velocity": 80,
                "duration": 0.15,
                "tempo": 120.0
            },
            {
                "start_time": 20.6022727,
                "end_time": 20.7522727,
                "pitch": 59,
                "velocity": 80,
                "duration": 0.15,
                "tempo": 120.0
            },
            {
                "start_time": 20.7522727,
                "end_time": 20.9022727,
                "pitch": 60,
                "velocity": 80,
                "duration": 0.15,
                "tempo": 120.0
            },
            {
                "start_time": 20.9045455,
                "end_time": 21.0545455,
                "pitch": 62,
                "velocity": 80,
                "duration": 0.15,
                "tempo": 120.0
            },
            {
                "start_time": 21.0568182,
                "end_time": 21.2068182,
                "pitch": 64,
                "velocity": 80,
                "duration": 0.15,
                "tempo": 120.0
            },
            {
                "start_time": 21.2090909,
                "end_time": 21.3590909,
                "pitch": 65,
                "velocity": 80,
                "duration": 0.15,
                "tempo": 120.0
            },
            {
                "start_time": 21.3590909,
                "end_time": 21.5090909,
                "pitch": 67,
                "velocity": 80,
                "duration": 0.15,
                "tempo": 120.0
            },
            {
                "start_time": 21.5113636,
                "end_time": 21.8136364,
                "pitch": 69,
                "velocity": 80,
                "duration": 0.3022727,
                "tempo": 120.0
            },
            {
                "start_time": 21.8159091,
                "end_time": 21.9659091,
                "pitch": 71,
                "velocity": 80,
                "duration": 0.15,
                "tempo": 120.0
            },
            {
                "start_time": 21.9659091,
                "end_time": 22.1159091,
                "pitch": 69,
                "velocity": 80,
                "duration": 0.15,
                "tempo": 120.0
            },
            {
                "start_time": 22.1159091,
                "end_time": 22.2659091,
                "pitch": 64,
                "velocity": 80,
                "duration": 0.15,
                "tempo": 120.0
            },
            {
                "start_time": 22.2659091,
                "end_time": 22.4159091,
                "pitch": 69,
                "velocity": 80,
                "duration": 0.15,
                "tempo": 120.0
            },
            {
                "start_time": 22.4181818,
                "end_time": 22.5659091,
                "pitch": 64,
                "velocity": 80,
                "duration": 0.1477273,
                "tempo": 120.0
            },
            {
                "start_time": 22.5681818,
                "end_time": 22.7181818,
                "pitch": 62,
                "velocity": 80,
                "duration": 0.15,
                "tempo": 120.0
            },
            {
                "start_time": 22.7204545,
                "end_time": 22.8727273,
                "pitch": 64,
                "velocity": 80,
                "duration": 0.1522727,
                "tempo": 120.0
            },
            {
                "start_time": 22.875,
                "end_time": 23.025,
                "pitch": 64,
                "velocity": 80,
                "duration": 0.15,
                "tempo": 120.0
            },
            {
                "start_time": 23.0272727,
                "end_time": 23.1795455,
                "pitch": 71,
                "velocity": 80,
                "duration": 0.1522727,
                "tempo": 120.0
            },
            {
                "start_time": 23.1795455,
                "end_time": 23.3318182,
                "pitch": 69,
                "velocity": 80,
                "duration": 0.1522727,
                "tempo": 120.0
            },
            {
                "start_time": 23.3318182,
                "end_time": 23.4818182,
                "pitch": 64,
                "velocity": 80,
                "duration": 0.15,
                "tempo": 120.0
            },
            {
                "start_time": 23.4840909,
                "end_time": 23.6340909,
                "pitch": 69,
                "velocity": 80,
                "duration": 0.15,
                "tempo": 120.0
            },
            {
                "start_time": 23.6363636,
                "end_time": 23.7863636,
                "pitch": 64,
                "velocity": 80,
                "duration": 0.15,
                "tempo": 120.0
            },
            {
                "start_time": 23.7863636,
                "end_time": 23.9386364,
                "pitch": 62,
                "velocity": 80,
                "duration": 0.1522727,
                "tempo": 120.0
            },
            {
                "start_time": 23.9386364,
                "end_time": 24.0886364,
                "pitch": 64,
                "velocity": 80,
                "duration": 0.15,
                "tempo": 120.0
            },
            {
                "start_time": 24.0909091,
                "end_time": 24.2409091,
                "pitch": 62,
                "velocity": 80,
                "duration": 0.15,
                "tempo": 120.0
            },
            {
                "start_time": 24.2431818,
                "end_time": 24.3931818,
                "pitch": 69,
                "velocity": 80,
                "duration": 0.15,
                "tempo": 120.0
            },
            {
                "start_time": 24.3931818,
                "end_time": 24.5431818,
                "pitch": 67,
                "velocity": 80,
                "duration": 0.15,
                "tempo": 120.0
            },
            {
                "start_time": 24.5454545,
                "end_time": 24.6931818,
                "pitch": 65,
                "velocity": 80,
                "duration": 0.1477273,
                "tempo": 120.0
            },
            {
                "start_time": 24.6954545,
                "end_time": 24.8431818,
                "pitch": 67,
                "velocity": 80,
                "duration": 0.1477273,
                "tempo": 120.0
            },
            {
                "start_time": 24.8454545,
                "end_time": 24.9931818,
                "pitch": 65,
                "velocity": 80,
                "duration": 0.1477273,
                "tempo": 120.0
            },
            {
                "start_time": 24.9954545,
                "end_time": 25.1454545,
                "pitch": 62,
                "velocity": 80,
                "duration": 0.15,
                "tempo": 120.0
            },
            {
                "start_time": 25.1454545,
                "end_time": 25.2977273,
                "pitch": 64,
                "velocity": 80,
                "duration": 0.1522727,
                "tempo": 120.0
            },
            {
                "start_time": 25.2977273,
                "end_time": 25.4477273,
                "pitch": 65,
                "velocity": 80,
                "duration": 0.15,
                "tempo": 120.0
            },
            {
                "start_time": 25.45,
                "end_time": 25.6,
                "pitch": 64,
                "velocity": 80,
                "duration": 0.15,
                "tempo": 120.0
            },
            {
                "start_time": 25.6022727,
                "end_time": 25.75,
                "pitch": 62,
                "velocity": 80,
                "duration": 0.1477273,
                "tempo": 120.0
            },
            {
                "start_time": 25.7522727,
                "end_time": 25.9,
                "pitch": 64,
                "velocity": 80,
                "duration": 0.1477273,
                "tempo": 120.0
            },
            {
                "start_time": 25.9022727,
                "end_time": 26.05,
                "pitch": 62,
                "velocity": 80,
                "duration": 0.1477273,
                "tempo": 120.0
            },
            {
                "start_time": 26.0522727,
                "end_time": 26.2,
                "pitch": 60,
                "velocity": 80,
                "duration": 0.1477273,
                "tempo": 120.0
            },
            {
                "start_time": 26.2022727,
                "end_time": 26.3522727,
                "pitch": 62,
                "velocity": 80,
                "duration": 0.15,
                "tempo": 120.0
            },
            {
                "start_time": 26.3545455,
                "end_time": 26.5045455,
                "pitch": 64,
                "velocity": 80,
                "duration": 0.15,
                "tempo": 120.0
            },
            {
                "start_time": 26.5068182,
                "end_time": 26.8068182,
                "pitch": 64,
                "velocity": 80,
                "duration": 0.3,
                "tempo": 120.0
            },
            {
                "start_time": 26.8090909,
                "end_time": 26.9590909,
                "pitch": 59,
                "velocity": 80,
                "duration": 0.15,
                "tempo": 120.0
            },
            {
                "start_time": 26.9613636,
                "end_time": 27.2636364,
                "pitch": 64,
                "velocity": 80,
                "duration": 0.3022727,
                "tempo": 120.0
            },
            {
                "start_time": 27.2636364,
                "end_time": 27.4159091,
                "pitch": 59,
                "velocity": 80,
                "duration": 0.1522727,
                "tempo": 120.0
            },
            {
                "start_time": 27.4159091,
                "end_time": 27.7159091,
                "pitch": 62,
                "velocity": 80,
                "duration": 0.3,
                "tempo": 120.0
            },
            {
                "start_time": 27.7159091,
                "end_time": 28.1681818,
                "pitch": 64,
                "velocity": 80,
                "duration": 0.4522727,
                "tempo": 120.0
            },
            {
                "start_time": 28.1681818,
                "end_time": 28.5227273,
                "pitch": 67,
                "velocity": 80,
                "duration": 0.3545455,
                "tempo": 120.0
            },
            {
                "start_time": 17.6977273,
                "end_time": 28.5227273,
                "pitch": 79,
                "velocity": 80,
                "duration": 10.825,
                "tempo": 120.0
            },
            {
                "start_time": 17.7136364,
                "end_time": 28.5386364,
                "pitch": 55,
                "velocity": 80,
                "duration": 10.825,
                "tempo": 120.0
            },
            {
                "start_time": 28.5227273,
                "end_time": 28.5386364,
                "pitch": 67,
                "velocity": 80,
                "duration": 0.0159091,
                "tempo": 120.0
            },
            {
                "start_time": 28.5386364,
                "end_time": 28.6227273,
                "pitch": 67,
                "velocity": 80,
                "duration": 0.0840909,
                "tempo": 120.0
            },
            {
                "start_time": 28.6227273,
                "end_time": 28.9227273,
                "pitch": 66,
                "velocity": 80,
                "duration": 0.3,
                "tempo": 120.0
            },
            {
                "start_time": 28.925,
                "end_time": 29.375,
                "pitch": 65,
                "velocity": 80,
                "duration": 0.45,
                "tempo": 120.0
            },
            {
                "start_time": 29.3772727,
                "end_time": 29.8295455,
                "pitch": 60,
                "velocity": 80,
                "duration": 0.4522727,
                "tempo": 120.0
            },
            {
                "start_time": 29.8318182,
                "end_time": 30.1340909,
                "pitch": 62,
                "velocity": 80,
                "duration": 0.3022727,
                "tempo": 120.0
            },
            {
                "start_time": 30.1340909,
                "end_time": 31.35,
                "pitch": 64,
                "velocity": 80,
                "duration": 1.2159091,
                "tempo": 120.0
            },
            {
                "start_time": 31.3522727,
                "end_time": 32.5613636,
                "pitch": 81,
                "velocity": 127,
                "duration": 1.2090909,
                "tempo": 120.0
            },
            {
                "start_time": 32.5636364,
                "end_time": 33.7727273,
                "pitch": 76,
                "velocity": 127,
                "duration": 1.2090909,
                "tempo": 120.0
            },
            {
                "start_time": 28.5227273,
                "end_time": 34.1909091,
                "pitch": 79,
                "velocity": 80,
                "duration": 5.6681818,
                "tempo": 120.0
            },
            {
                "start_time": 33.7727273,
                "end_time": 34.1909091,
                "pitch": 79,
                "velocity": 127,
                "duration": 0.4181818,
                "tempo": 120.0
            },
            {
                "start_time": 34.1909091,
                "end_time": 34.2068182,
                "pitch": 79,
                "velocity": 127,
                "duration": 0.0159091,
                "tempo": 120.0
            },
            {
                "start_time": 34.2068182,
                "end_time": 34.3590909,
                "pitch": 79,
                "velocity": 127,
                "duration": 0.1522727,
                "tempo": 120.0
            },
            {
                "start_time": 34.1909091,
                "end_time": 34.3590909,
                "pitch": 91,
                "velocity": 127,
                "duration": 0.1681818,
                "tempo": 120.0
            },
            {
                "start_time": 34.3590909,
                "end_time": 34.375,
                "pitch": 79,
                "velocity": 127,
                "duration": 0.0159091,
                "tempo": 120.0
            },
            {
                "start_time": 34.3772727,
                "end_time": 34.9818182,
                "pitch": 81,
                "velocity": 127,
                "duration": 0.6045455,
                "tempo": 120.0
            },
            {
                "start_time": 34.9840909,
                "end_time": 35.5886364,
                "pitch": 83,
                "velocity": 127,
                "duration": 0.6045455,
                "tempo": 120.0
            },
            {
                "start_time": 34.3590909,
                "end_time": 36.0454545,
                "pitch": 91,
                "velocity": 127,
                "duration": 1.6863636,
                "tempo": 120.0
            },
            {
                "start_time": 35.5909091,
                "end_time": 36.0454545,
                "pitch": 91,
                "velocity": 127,
                "duration": 0.4545455,
                "tempo": 120.0
            },
            {
                "start_time": 36.0454545,
                "end_time": 36.0613636,
                "pitch": 91,
                "velocity": 127,
                "duration": 0.0159091,
                "tempo": 120.0
            },
            {
                "start_time": 36.0613636,
                "end_time": 36.1954545,
                "pitch": 91,
                "velocity": 127,
                "duration": 0.1340909,
                "tempo": 120.0
            },
            {
                "start_time": 36.1977273,
                "end_time": 36.55,
                "pitch": 91,
                "velocity": 127,
                "duration": 0.3522727,
                "tempo": 120.0
            },
            {
                "start_time": 36.0454545,
                "end_time": 36.55,
                "pitch": 103,
                "velocity": 127,
                "duration": 0.5045455,
                "tempo": 120.0
            },
            {
                "start_time": 36.0613636,
                "end_time": 36.5659091,
                "pitch": 79,
                "velocity": 127,
                "duration": 0.5045455,
                "tempo": 120.0
            },
            {
                "start_time": 36.55,
                "end_time": 36.5659091,
                "pitch": 91,
                "velocity": 127,
                "duration": 0.0159091,
                "tempo": 120.0
            },
            {
                "start_time": 36.5659091,
                "end_time": 36.7159091,
                "pitch": 91,
                "velocity": 127,
                "duration": 0.15,
                "tempo": 120.0
            },
            {
                "start_time": 36.55,
                "end_time": 36.7181818,
                "pitch": 103,
                "velocity": 127,
                "duration": 0.1681818,
                "tempo": 120.0
            },
            {
                "start_time": 36.7159091,
                "end_time": 36.7181818,
                "pitch": 103,
                "velocity": 127,
                "duration": 0.0022727,
                "tempo": 120.0
            },
            {
                "start_time": 36.5659091,
                "end_time": 36.7340909,
                "pitch": 79,
                "velocity": 127,
                "duration": 0.1681818,
                "tempo": 120.0
            },
            {
                "start_time": 36.7181818,
                "end_time": 36.7340909,
                "pitch": 91,
                "velocity": 127,
                "duration": 0.0159091,
                "tempo": 120.0
            },
            {
                "start_time": 36.7340909,
                "end_time": 36.8840909,
                "pitch": 91,
                "velocity": 127,
                "duration": 0.15,
                "tempo": 120.0
            },
            {
                "start_time": 36.7340909,
                "end_time": 36.9,
                "pitch": 79,
                "velocity": 127,
                "duration": 0.1659091,
                "tempo": 120.0
            },
            {
                "start_time": 36.8840909,
                "end_time": 36.9,
                "pitch": 91,
                "velocity": 127,
                "duration": 0.0159091,
                "tempo": 120.0
            },
            {
                "start_time": 36.9,
                "end_time": 37.05,
                "pitch": 91,
                "velocity": 127,
                "duration": 0.15,
                "tempo": 120.0
            },
            {
                "start_time": 36.8840909,
                "end_time": 37.05,
                "pitch": 103,
                "velocity": 127,
                "duration": 0.1659091,
                "tempo": 120.0
            },
            {
                "start_time": 36.9,
                "end_time": 37.0681818,
                "pitch": 79,
                "velocity": 127,
                "duration": 0.1681818,
                "tempo": 120.0
            },
            {
                "start_time": 37.05,
                "end_time": 37.0681818,
                "pitch": 91,
                "velocity": 127,
                "duration": 0.0181818,
                "tempo": 120.0
            },
            {
                "start_time": 37.0681818,
                "end_time": 37.1,
                "pitch": 91,
                "velocity": 127,
                "duration": 0.0318182,
                "tempo": 120.0
            },
            {
                "start_time": 37.1022727,
                "end_time": 37.2522727,
                "pitch": 89,
                "velocity": 127,
                "duration": 0.15,
                "tempo": 120.0
            },
            {
                "start_time": 37.2522727,
                "end_time": 37.4045455,
                "pitch": 88,
                "velocity": 127,
                "duration": 0.1522727,
                "tempo": 120.0
            },
            {
                "start_time": 37.4045455,
                "end_time": 38.6181818,
                "pitch": 89,
                "velocity": 127,
                "duration": 1.2136364,
                "tempo": 120.0
            },
            {
                "start_time": 38.6181818,
                "end_time": 39.2272727,
                "pitch": 88,
                "velocity": 127,
                "duration": 0.6090909,
                "tempo": 120.0
            },
            {
                "start_time": 39.2295455,
                "end_time": 39.8363636,
                "pitch": 86,
                "velocity": 127,
                "duration": 0.6068182,
                "tempo": 120.0
            },
            {
                "start_time": 39.8386364,
                "end_time": 40.4409091,
                "pitch": 84,
                "velocity": 127,
                "duration": 0.6022727,
                "tempo": 120.0
            },
            {
                "start_time": 40.4431818,
                "end_time": 41.0454545,
                "pitch": 83,
                "velocity": 127,
                "duration": 0.6022727,
                "tempo": 120.0
            },
            {
                "start_time": 41.0454545,
                "end_time": 42.2590909,
                "pitch": 81,
                "velocity": 127,
                "duration": 1.2136364,
                "tempo": 120.0
            },
            {
                "start_time": 42.2613636,
                "end_time": 43.4704545,
                "pitch": 76,
                "velocity": 127,
                "duration": 1.2090909,
                "tempo": 120.0
            },
            {
                "start_time": 37.0681818,
                "end_time": 43.7863636,
                "pitch": 79,
                "velocity": 127,
                "duration": 6.7181818,
                "tempo": 120.0
            },
            {
                "start_time": 43.4704545,
                "end_time": 43.7863636,
                "pitch": 79,
                "velocity": 127,
                "duration": 0.3159091,
                "tempo": 120.0
            },
            {
                "start_time": 34.2068182,
                "end_time": 43.8045455,
                "pitch": 67,
                "velocity": 127,
                "duration": 9.5977273,
                "tempo": 120.0
            },
            {
                "start_time": 43.7863636,
                "end_time": 43.8045455,
                "pitch": 79,
                "velocity": 127,
                "duration": 0.0181818,
                "tempo": 120.0
            },
            {
                "start_time": 43.8045455,
                "end_time": 43.9545455,
                "pitch": 79,
                "velocity": 127,
                "duration": 0.15,
                "tempo": 120.0
            },
            {
                "start_time": 43.7863636,
                "end_time": 43.9568182,
                "pitch": 91,
                "velocity": 127,
                "duration": 0.1704545,
                "tempo": 120.0
            },
            {
                "start_time": 43.9545455,
                "end_time": 43.9568182,
                "pitch": 91,
                "velocity": 127,
                "duration": 0.0022727,
                "tempo": 120.0
            },
            {
                "start_time": 43.8045455,
                "end_time": 43.9727273,
                "pitch": 67,
                "velocity": 127,
                "duration": 0.1681818,
                "tempo": 120.0
            },
            {
                "start_time": 43.9568182,
                "end_time": 43.9727273,
                "pitch": 79,
                "velocity": 127,
                "duration": 0.0159091,
                "tempo": 120.0
            },
            {
                "start_time": 43.9727273,
                "end_time": 44.0727273,
                "pitch": 79,
                "velocity": 127,
                "duration": 0.1,
                "tempo": 120.0
            },
            {
                "start_time": 44.075,
                "end_time": 44.6795455,
                "pitch": 81,
                "velocity": 127,
                "duration": 0.6045455,
                "tempo": 120.0
            },
            {
                "start_time": 44.6818182,
                "end_time": 45.2863636,
                "pitch": 83,
                "velocity": 127,
                "duration": 0.6045455,
                "tempo": 120.0
            },
            {
                "start_time": 45.2886364,
                "end_time": 45.6409091,
                "pitch": 91,
                "velocity": 127,
                "duration": 0.3522727,
                "tempo": 120.0
            },
            {
                "start_time": 37.05,
                "end_time": 45.6409091,
                "pitch": 103,
                "velocity": 127,
                "duration": 8.5909091,
                "tempo": 120.0
            },
            {
                "start_time": 45.6409091,
                "end_time": 45.6590909,
                "pitch": 91,
                "velocity": 127,
                "duration": 0.0181818,
                "tempo": 120.0
            },
            {
                "start_time": 45.6590909,
                "end_time": 45.8090909,
                "pitch": 91,
                "velocity": 127,
                "duration": 0.15,
                "tempo": 120.0
            },
            {
                "start_time": 45.6409091,
                "end_time": 45.8090909,
                "pitch": 103,
                "velocity": 127,
                "duration": 0.1681818,
                "tempo": 120.0
            },
            {
                "start_time": 45.6590909,
                "end_time": 45.8272727,
                "pitch": 79,
                "velocity": 127,
                "duration": 0.1681818,
                "tempo": 120.0
            },
            {
                "start_time": 45.8090909,
                "end_time": 45.8272727,
                "pitch": 91,
                "velocity": 127,
                "duration": 0.0181818,
                "tempo": 120.0
            },
            {
                "start_time": 45.8272727,
                "end_time": 45.8931818,
                "pitch": 91,
                "velocity": 127,
                "duration": 0.0659091,
                "tempo": 120.0
            },
            {
                "start_time": 45.8954545,
                "end_time": 46.3136364,
                "pitch": 91,
                "velocity": 127,
                "duration": 0.4181818,
                "tempo": 120.0
            },
            {
                "start_time": 45.8090909,
                "end_time": 46.3136364,
                "pitch": 103,
                "velocity": 127,
                "duration": 0.5045455,
                "tempo": 120.0
            },
            {
                "start_time": 45.8272727,
                "end_time": 46.3318182,
                "pitch": 79,
                "velocity": 127,
                "duration": 0.5045455,
                "tempo": 120.0
            },
            {
                "start_time": 46.3136364,
                "end_time": 46.3318182,
                "pitch": 91,
                "velocity": 127,
                "duration": 0.0181818,
                "tempo": 120.0
            },
            {
                "start_time": 46.3318182,
                "end_time": 46.4818182,
                "pitch": 91,
                "velocity": 127,
                "duration": 0.15,
                "tempo": 120.0
            },
            {
                "start_time": 46.3136364,
                "end_time": 46.4818182,
                "pitch": 103,
                "velocity": 127,
                "duration": 0.1681818,
                "tempo": 120.0
            },
            {
                "start_time": 46.3318182,
                "end_time": 46.4977273,
                "pitch": 79,
                "velocity": 127,
                "duration": 0.1659091,
                "tempo": 120.0
            },
            {
                "start_time": 46.4818182,
                "end_time": 46.4977273,
                "pitch": 91,
                "velocity": 127,
                "duration": 0.0159091,
                "tempo": 120.0
            },
            {
                "start_time": 46.4977273,
                "end_time": 46.6477273,
                "pitch": 91,
                "velocity": 127,
                "duration": 0.15,
                "tempo": 120.0
            },
            {
                "start_time": 46.4818182,
                "end_time": 46.6477273,
                "pitch": 103,
                "velocity": 127,
                "duration": 0.1659091,
                "tempo": 120.0
            },
            {
                "start_time": 46.6477273,
                "end_time": 46.6636364,
                "pitch": 91,
                "velocity": 127,
                "duration": 0.0159091,
                "tempo": 120.0
            },
            {
                "start_time": 46.4977273,
                "end_time": 46.6659091,
                "pitch": 79,
                "velocity": 127,
                "duration": 0.1681818,
                "tempo": 120.0
            },
            {
                "start_time": 46.6636364,
                "end_time": 46.6659091,
                "pitch": 79,
                "velocity": 127,
                "duration": 0.0022727,
                "tempo": 120.0
            },
            {
                "start_time": 46.6659091,
                "end_time": 46.7977273,
                "pitch": 91,
                "velocity": 127,
                "duration": 0.1318182,
                "tempo": 120.0
            },
            {
                "start_time": 46.8,
                "end_time": 46.95,
                "pitch": 89,
                "velocity": 127,
                "duration": 0.15,
                "tempo": 120.0
            },
            {
                "start_time": 46.95,
                "end_time": 47.1022727,
                "pitch": 88,
                "velocity": 127,
                "duration": 0.1522727,
                "tempo": 120.0
            },
            {
                "start_time": 47.1022727,
                "end_time": 48.3204545,
                "pitch": 89,
                "velocity": 127,
                "duration": 1.2181818,
                "tempo": 120.0
            },
            {
                "start_time": 48.3227273,
                "end_time": 48.9272727,
                "pitch": 88,
                "velocity": 127,
                "duration": 0.6045455,
                "tempo": 120.0
            },
            {
                "start_time": 48.9295455,
                "end_time": 49.35,
                "pitch": 91,
                "velocity": 127,
                "duration": 0.4204545,
                "tempo": 120.0
            },
            {
                "start_time": 46.6477273,
                "end_time": 49.35,
                "pitch": 103,
                "velocity": 127,
                "duration": 2.7022727,
                "tempo": 120.0
            },
            {
                "start_time": 49.35,
                "end_time": 49.3659091,
                "pitch": 91,
                "velocity": 127,
                "duration": 0.0159091,
                "tempo": 120.0
            },
            {
                "start_time": 49.3659091,
                "end_time": 49.5181818,
                "pitch": 91,
                "velocity": 127,
                "duration": 0.1522727,
                "tempo": 120.0
            },
            {
                "start_time": 49.35,
                "end_time": 49.5181818,
                "pitch": 103,
                "velocity": 127,
                "duration": 0.1681818,
                "tempo": 120.0
            },
            {
                "start_time": 49.5181818,
                "end_time": 49.5340909,
                "pitch": 91,
                "velocity": 127,
                "duration": 0.0159091,
                "tempo": 120.0
            },
            {
                "start_time": 49.5363636,
                "end_time": 50.1409091,
                "pitch": 96,
                "velocity": 127,
                "duration": 0.6045455,
                "tempo": 120.0
            },
            {
                "start_time": 50.1431818,
                "end_time": 50.7454545,
                "pitch": 95,
                "velocity": 127,
                "duration": 0.6022727,
                "tempo": 120.0
            },
            {
                "start_time": 50.7477273,
                "end_time": 50.8954545,
                "pitch": 69,
                "velocity": 80,
                "duration": 0.1477273,
                "tempo": 120.0
            },
            {
                "start_time": 50.8954545,
                "end_time": 51.0454545,
                "pitch": 65,
                "velocity": 80,
                "duration": 0.15,
                "tempo": 120.0
            },
            {
                "start_time": 51.0477273,
                "end_time": 51.1977273,
                "pitch": 62,
                "velocity": 80,
                "duration": 0.15,
                "tempo": 120.0
            },
            {
                "start_time": 51.1977273,
                "end_time": 51.35,
                "pitch": 69,
                "velocity": 80,
                "duration": 0.1522727,
                "tempo": 120.0
            },
            {
                "start_time": 51.35,
                "end_time": 51.5,
                "pitch": 65,
                "velocity": 80,
                "duration": 0.15,
                "tempo": 120.0
            },
            {
                "start_time": 51.5022727,
                "end_time": 51.6522727,
                "pitch": 62,
                "velocity": 80,
                "duration": 0.15,
                "tempo": 120.0
            },
            {
                "start_time": 51.6545455,
                "end_time": 51.8045455,
                "pitch": 69,
                "velocity": 80,
                "duration": 0.15,
                "tempo": 120.0
            },
            {
                "start_time": 51.8045455,
                "end_time": 51.9568182,
                "pitch": 65,
                "velocity": 80,
                "duration": 0.1522727,
                "tempo": 120.0
            },
            {
                "start_time": 51.9568182,
                "end_time": 52.1068182,
                "pitch": 62,
                "velocity": 80,
                "duration": 0.15,
                "tempo": 120.0
            },
            {
                "start_time": 52.1090909,
                "end_time": 52.2590909,
                "pitch": 69,
                "velocity": 80,
                "duration": 0.15,
                "tempo": 120.0
            },
            {
                "start_time": 52.2613636,
                "end_time": 52.4113636,
                "pitch": 65,
                "velocity": 80,
                "duration": 0.15,
                "tempo": 120.0
            },
            {
                "start_time": 52.4113636,
                "end_time": 52.5636364,
                "pitch": 62,
                "velocity": 80,
                "duration": 0.1522727,
                "tempo": 120.0
            },
            {
                "start_time": 52.5636364,
                "end_time": 52.7136364,
                "pitch": 69,
                "velocity": 80,
                "duration": 0.15,
                "tempo": 120.0
            },
            {
                "start_time": 52.7159091,
                "end_time": 52.8659091,
                "pitch": 65,
                "velocity": 80,
                "duration": 0.15,
                "tempo": 120.0
            },
            {
                "start_time": 52.8681818,
                "end_time": 53.0181818,
                "pitch": 62,
                "velocity": 80,
                "duration": 0.15,
                "tempo": 120.0
            },
            {
                "start_time": 53.0181818,
                "end_time": 53.1704545,
                "pitch": 65,
                "velocity": 80,
                "duration": 0.1522727,
                "tempo": 120.0
            },
            {
                "start_time": 43.9727273,
                "end_time": 53.3204545,
                "pitch": 67,
                "velocity": 127,
                "duration": 9.3477273,
                "tempo": 120.0
            },
            {
                "start_time": 53.1704545,
                "end_time": 53.3204545,
                "pitch": 67,
                "velocity": 80,
                "duration": 0.15,
                "tempo": 120.0
            },
            {
                "start_time": 53.3227273,
                "end_time": 53.4727273,
                "pitch": 64,
                "velocity": 80,
                "duration": 0.15,
                "tempo": 120.0
            },
            {
                "start_time": 53.475,
                "end_time": 53.6227273,
                "pitch": 60,
                "velocity": 80,
                "duration": 0.1477273,
                "tempo": 120.0
            },
            {
                "start_time": 53.625,
                "end_time": 53.7727273,
                "pitch": 67,
                "velocity": 80,
                "duration": 0.1477273,
                "tempo": 120.0
            },
            {
                "start_time": 53.775,
                "end_time": 53.9227273,
                "pitch": 64,
                "velocity": 80,
                "duration": 0.1477273,
                "tempo": 120.0
            },
            {
                "start_time": 53.925,
                "end_time": 54.0727273,
                "pitch": 60,
                "velocity": 80,
                "duration": 0.1477273,
                "tempo": 120.0
            },
            {
                "start_time": 54.075,
                "end_time": 54.2272727,
                "pitch": 67,
                "velocity": 80,
                "duration": 0.1522727,
                "tempo": 120.0
            },
            {
                "start_time": 54.2272727,
                "end_time": 54.3795455,
                "pitch": 64,
                "velocity": 80,
                "duration": 0.1522727,
                "tempo": 120.0
            },
            {
                "start_time": 54.3818182,
                "end_time": 54.5340909,
                "pitch": 60,
                "velocity": 80,
                "duration": 0.1522727,
                "tempo": 120.0
            },
            {
                "start_time": 54.5340909,
                "end_time": 54.6863636,
                "pitch": 67,
                "velocity": 80,
                "duration": 0.1522727,
                "tempo": 120.0
            },
            {
                "start_time": 54.6886364,
                "end_time": 54.8386364,
                "pitch": 64,
                "velocity": 80,
                "duration": 0.15,
                "tempo": 120.0
            },
            {
                "start_time": 54.8386364,
                "end_time": 54.9909091,
                "pitch": 60,
                "velocity": 80,
                "duration": 0.1522727,
                "tempo": 120.0
            },
            {
                "start_time": 54.9909091,
                "end_time": 55.1409091,
                "pitch": 67,
                "velocity": 80,
                "duration": 0.15,
                "tempo": 120.0
            },
            {
                "start_time": 55.1431818,
                "end_time": 55.2931818,
                "pitch": 64,
                "velocity": 80,
                "duration": 0.15,
                "tempo": 120.0
            },
            {
                "start_time": 55.2954545,
                "end_time": 55.4454545,
                "pitch": 67,
                "velocity": 80,
                "duration": 0.15,
                "tempo": 120.0
            },
            {
                "start_time": 55.4454545,
                "end_time": 55.5977273,
                "pitch": 69,
                "velocity": 80,
                "duration": 0.1522727,
                "tempo": 120.0
            },
            {
                "start_time": 55.5977273,
                "end_time": 55.7477273,
                "pitch": 69,
                "velocity": 80,
                "duration": 0.15,
                "tempo": 120.0
            },
            {
                "start_time": 55.75,
                "end_time": 55.9,
                "pitch": 65,
                "velocity": 80,
                "duration": 0.15,
                "tempo": 120.0
            },
            {
                "start_time": 55.9022727,
                "end_time": 56.0522727,
                "pitch": 62,
                "velocity": 80,
                "duration": 0.15,
                "tempo": 120.0
            },
            {
                "start_time": 56.0522727,
                "end_time": 56.2045455,
                "pitch": 69,
                "velocity": 80,
                "duration": 0.1522727,
                "tempo": 120.0
            },
            {
                "start_time": 56.2045455,
                "end_time": 56.3545455,
                "pitch": 65,
                "velocity": 80,
                "duration": 0.15,
                "tempo": 120.0
            },
            {
                "start_time": 56.3568182,
                "end_time": 56.5068182,
                "pitch": 62,
                "velocity": 80,
                "duration": 0.15,
                "tempo": 120.0
            },
            {
                "start_time": 56.5090909,
                "end_time": 56.6590909,
                "pitch": 69,
                "velocity": 80,
                "duration": 0.15,
                "tempo": 120.0
            },
            {
                "start_time": 56.6590909,
                "end_time": 56.8113636,
                "pitch": 65,
                "velocity": 80,
                "duration": 0.1522727,
                "tempo": 120.0
            },
            {
                "start_time": 56.8113636,
                "end_time": 56.9613636,
                "pitch": 62,
                "velocity": 80,
                "duration": 0.15,
                "tempo": 120.0
            },
            {
                "start_time": 56.9636364,
                "end_time": 57.1136364,
                "pitch": 69,
                "velocity": 80,
                "duration": 0.15,
                "tempo": 120.0
            },
            {
                "start_time": 57.1159091,
                "end_time": 57.2636364,
                "pitch": 65,
                "velocity": 80,
                "duration": 0.1477273,
                "tempo": 120.0
            },
            {
                "start_time": 57.2659091,
                "end_time": 57.4136364,
                "pitch": 62,
                "velocity": 80,
                "duration": 0.1477273,
                "tempo": 120.0
            },
            {
                "start_time": 57.4159091,
                "end_time": 57.5636364,
                "pitch": 69,
                "velocity": 80,
                "duration": 0.1477273,
                "tempo": 120.0
            },
            {
                "start_time": 57.5659091,
                "end_time": 57.7159091,
                "pitch": 65,
                "velocity": 80,
                "duration": 0.15,
                "tempo": 120.0
            },
            {
                "start_time": 57.7159091,
                "end_time": 57.8659091,
                "pitch": 62,
                "velocity": 80,
                "duration": 0.15,
                "tempo": 120.0
            },
            {
                "start_time": 57.8681818,
                "end_time": 58.0181818,
                "pitch": 65,
                "velocity": 80,
                "duration": 0.15,
                "tempo": 120.0
            },
            {
                "start_time": 58.3227273,
                "end_time": 58.4727273,
                "pitch": 57,
                "velocity": 64,
                "duration": 0.15,
                "tempo": 120.0
            },
            {
                "start_time": 28.5386364,
                "end_time": 58.9295455,
                "pitch": 55,
                "velocity": 80,
                "duration": 30.3909091,
                "tempo": 120.0
            },
            {
                "start_time": 58.7772727,
                "end_time": 58.9295455,
                "pitch": 55,
                "velocity": 64,
                "duration": 0.1522727,
                "tempo": 120.0
            },
            {
                "start_time": 59.2340909,
                "end_time": 59.3840909,
                "pitch": 57,
                "velocity": 64,
                "duration": 0.15,
                "tempo": 120.0
            },
            {
                "start_time": 59.6886364,
                "end_time": 59.8386364,
                "pitch": 55,
                "velocity": 64,
                "duration": 0.15,
                "tempo": 120.0
            },
            {
                "start_time": 60.1431818,
                "end_time": 60.2931818,
                "pitch": 57,
                "velocity": 64,
                "duration": 0.15,
                "tempo": 120.0
            },
            {
                "start_time": 60.7431818,
                "end_time": 60.8954545,
                "pitch": 57,
                "velocity": 64,
                "duration": 0.1522727,
                "tempo": 120.0
            },
            {
                "start_time": 61.2,
                "end_time": 61.35,
                "pitch": 55,
                "velocity": 64,
                "duration": 0.15,
                "tempo": 120.0
            },
            {
                "start_time": 61.6545455,
                "end_time": 61.8045455,
                "pitch": 57,
                "velocity": 64,
                "duration": 0.15,
                "tempo": 120.0
            },
            {
                "start_time": 62.1090909,
                "end_time": 62.2590909,
                "pitch": 55,
                "velocity": 64,
                "duration": 0.15,
                "tempo": 120.0
            },
            {
                "start_time": 62.5636364,
                "end_time": 62.7159091,
                "pitch": 57,
                "velocity": 64,
                "duration": 0.1522727,
                "tempo": 120.0
            },
            {
                "start_time": 63.1704545,
                "end_time": 63.3204545,
                "pitch": 57,
                "velocity": 64,
                "duration": 0.15,
                "tempo": 120.0
            },
            {
                "start_time": 63.6227273,
                "end_time": 63.7704545,
                "pitch": 55,
                "velocity": 64,
                "duration": 0.1477273,
                "tempo": 120.0
            },
            {
                "start_time": 64.0795455,
                "end_time": 64.2318182,
                "pitch": 57,
                "velocity": 64,
                "duration": 0.1522727,
                "tempo": 120.0
            },
            {
                "start_time": 64.5363636,
                "end_time": 64.6886364,
                "pitch": 55,
                "velocity": 64,
                "duration": 0.1522727,
                "tempo": 120.0
            },
            {
                "start_time": 64.9909091,
                "end_time": 65.1409091,
                "pitch": 57,
                "velocity": 64,
                "duration": 0.15,
                "tempo": 120.0
            },
            {
                "start_time": 65.5931818,
                "end_time": 65.7409091,
                "pitch": 57,
                "velocity": 64,
                "duration": 0.1477273,
                "tempo": 120.0
            },
            {
                "start_time": 66.0431818,
                "end_time": 66.1931818,
                "pitch": 55,
                "velocity": 64,
                "duration": 0.15,
                "tempo": 120.0
            }
        ],
        "Acoustic Guitar (nylon)": [
            {
                "start_time": 9.5931818,
                "end_time": 9.7409091,
                "pitch": 60,
                "velocity": 80,
                "duration": 0.1477273,
                "tempo": 120.0
            },
            {
                "start_time": 9.7409091,
                "end_time": 9.8909091,
                "pitch": 64,
                "velocity": 80,
                "duration": 0.15,
                "tempo": 120.0
            },
            {
                "start_time": 9.8909091,
                "end_time": 10.0409091,
                "pitch": 69,
                "velocity": 80,
                "duration": 0.15,
                "tempo": 120.0
            },
            {
                "start_time": 10.0409091,
                "end_time": 10.1909091,
                "pitch": 60,
                "velocity": 80,
                "duration": 0.15,
                "tempo": 120.0
            },
            {
                "start_time": 10.1931818,
                "end_time": 10.3409091,
                "pitch": 64,
                "velocity": 80,
                "duration": 0.1477273,
                "tempo": 120.0
            },
            {
                "start_time": 10.3431818,
                "end_time": 10.4909091,
                "pitch": 69,
                "velocity": 80,
                "duration": 0.1477273,
                "tempo": 120.0
            },
            {
                "start_time": 10.4931818,
                "end_time": 10.6409091,
                "pitch": 60,
                "velocity": 80,
                "duration": 0.1477273,
                "tempo": 120.0
            },
            {
                "start_time": 10.6431818,
                "end_time": 10.7909091,
                "pitch": 64,
                "velocity": 80,
                "duration": 0.1477273,
                "tempo": 120.0
            },
            {
                "start_time": 10.7931818,
                "end_time": 10.9409091,
                "pitch": 60,
                "velocity": 80,
                "duration": 0.1477273,
                "tempo": 120.0
            },
            {
                "start_time": 10.9431818,
                "end_time": 11.0909091,
                "pitch": 64,
                "velocity": 80,
                "duration": 0.1477273,
                "tempo": 120.0
            },
            {
                "start_time": 11.0931818,
                "end_time": 11.2431818,
                "pitch": 69,
                "velocity": 80,
                "duration": 0.15,
                "tempo": 120.0
            },
            {
                "start_time": 11.2454545,
                "end_time": 11.3954545,
                "pitch": 60,
                "velocity": 80,
                "duration": 0.15,
                "tempo": 120.0
            },
            {
                "start_time": 11.3977273,
                "end_time": 11.5477273,
                "pitch": 64,
                "velocity": 80,
                "duration": 0.15,
                "tempo": 120.0
            },
            {
                "start_time": 11.55,
                "end_time": 11.6977273,
                "pitch": 69,
                "velocity": 80,
                "duration": 0.1477273,
                "tempo": 120.0
            },
            {
                "start_time": 11.7,
                "end_time": 11.85,
                "pitch": 60,
                "velocity": 80,
                "duration": 0.15,
                "tempo": 120.0
            },
            {
                "start_time": 11.85,
                "end_time": 12.0,
                "pitch": 64,
                "velocity": 80,
                "duration": 0.15,
                "tempo": 120.0
            },
            {
                "start_time": 12.0022727,
                "end_time": 12.15,
                "pitch": 60,
                "velocity": 80,
                "duration": 0.1477273,
                "tempo": 120.0
            },
            {
                "start_time": 12.15,
                "end_time": 12.3,
                "pitch": 64,
                "velocity": 80,
                "duration": 0.15,
                "tempo": 120.0
            },
            {
                "start_time": 12.3022727,
                "end_time": 12.45,
                "pitch": 69,
                "velocity": 80,
                "duration": 0.1477273,
                "tempo": 120.0
            },
            {
                "start_time": 12.4522727,
                "end_time": 12.6,
                "pitch": 60,
                "velocity": 80,
                "duration": 0.1477273,
                "tempo": 120.0
            },
            {
                "start_time": 12.6022727,
                "end_time": 12.75,
                "pitch": 64,
                "velocity": 80,
                "duration": 0.1477273,
                "tempo": 120.0
            },
            {
                "start_time": 12.7522727,
                "end_time": 12.9,
                "pitch": 69,
                "velocity": 80,
                "duration": 0.1477273,
                "tempo": 120.0
            },
            {
                "start_time": 12.9022727,
                "end_time": 13.05,
                "pitch": 60,
                "velocity": 80,
                "duration": 0.1477273,
                "tempo": 120.0
            },
            {
                "start_time": 13.0522727,
                "end_time": 13.2022727,
                "pitch": 64,
                "velocity": 80,
                "duration": 0.15,
                "tempo": 120.0
            },
            {
                "start_time": 13.2022727,
                "end_time": 13.35,
                "pitch": 59,
                "velocity": 80,
                "duration": 0.1477273,
                "tempo": 120.0
            },
            {
                "start_time": 13.3522727,
                "end_time": 13.5022727,
                "pitch": 62,
                "velocity": 80,
                "duration": 0.15,
                "tempo": 120.0
            },
            {
                "start_time": 13.5022727,
                "end_time": 13.6522727,
                "pitch": 67,
                "velocity": 80,
                "duration": 0.15,
                "tempo": 120.0
            },
            {
                "start_time": 13.6522727,
                "end_time": 13.8022727,
                "pitch": 59,
                "velocity": 80,
                "duration": 0.15,
                "tempo": 120.0
            },
            {
                "start_time": 13.8022727,
                "end_time": 13.9522727,
                "pitch": 62,
                "velocity": 80,
                "duration": 0.15,
                "tempo": 120.0
            },
            {
                "start_time": 13.9522727,
                "end_time": 14.1022727,
                "pitch": 67,
                "velocity": 80,
                "duration": 0.15,
                "tempo": 120.0
            },
            {
                "start_time": 14.1045455,
                "end_time": 14.2545455,
                "pitch": 59,
                "velocity": 80,
                "duration": 0.15,
                "tempo": 120.0
            },
            {
                "start_time": 14.2545455,
                "end_time": 14.4068182,
                "pitch": 62,
                "velocity": 80,
                "duration": 0.1522727,
                "tempo": 120.0
            },
            {
                "start_time": 14.4068182,
                "end_time": 14.5568182,
                "pitch": 57,
                "velocity": 80,
                "duration": 0.15,
                "tempo": 120.0
            },
            {
                "start_time": 14.5590909,
                "end_time": 14.7090909,
                "pitch": 60,
                "velocity": 80,
                "duration": 0.15,
                "tempo": 120.0
            },
            {
                "start_time": 14.7090909,
                "end_time": 14.8613636,
                "pitch": 65,
                "velocity": 80,
                "duration": 0.1522727,
                "tempo": 120.0
            },
            {
                "start_time": 14.8636364,
                "end_time": 15.0159091,
                "pitch": 57,
                "velocity": 80,
                "duration": 0.1522727,
                "tempo": 120.0
            },
            {
                "start_time": 15.0159091,
                "end_time": 15.1681818,
                "pitch": 60,
                "velocity": 80,
                "duration": 0.1522727,
                "tempo": 120.0
            },
            {
                "start_time": 15.1704545,
                "end_time": 15.3227273,
                "pitch": 65,
                "velocity": 80,
                "duration": 0.1522727,
                "tempo": 120.0
            },
            {
                "start_time": 15.3227273,
                "end_time": 15.4727273,
                "pitch": 57,
                "velocity": 80,
                "duration": 0.15,
                "tempo": 120.0
            },
            {
                "start_time": 15.4727273,
                "end_time": 15.6227273,
                "pitch": 60,
                "velocity": 80,
                "duration": 0.15,
                "tempo": 120.0
            },
            {
                "start_time": 15.625,
                "end_time": 15.7727273,
                "pitch": 59,
                "velocity": 80,
                "duration": 0.1477273,
                "tempo": 120.0
            },
            {
                "start_time": 15.775,
                "end_time": 15.9227273,
                "pitch": 64,
                "velocity": 80,
                "duration": 0.1477273,
                "tempo": 120.0
            },
            {
                "start_time": 15.925,
                "end_time": 16.0727273,
                "pitch": 67,
                "velocity": 80,
                "duration": 0.1477273,
                "tempo": 120.0
            },
            {
                "start_time": 16.075,
                "end_time": 16.2227273,
                "pitch": 59,
                "velocity": 80,
                "duration": 0.1477273,
                "tempo": 120.0
            },
            {
                "start_time": 16.225,
                "end_time": 16.3727273,
                "pitch": 64,
                "velocity": 80,
                "duration": 0.1477273,
                "tempo": 120.0
            },
            {
                "start_time": 16.375,
                "end_time": 16.5227273,
                "pitch": 67,
                "velocity": 80,
                "duration": 0.1477273,
                "tempo": 120.0
            },
            {
                "start_time": 16.525,
                "end_time": 16.675,
                "pitch": 59,
                "velocity": 80,
                "duration": 0.15,
                "tempo": 120.0
            },
            {
                "start_time": 16.6772727,
                "end_time": 16.8272727,
                "pitch": 64,
                "velocity": 80,
                "duration": 0.15,
                "tempo": 120.0
            },
            {
                "start_time": 16.8295455,
                "end_time": 16.9772727,
                "pitch": 59,
                "velocity": 80,
                "duration": 0.1477273,
                "tempo": 120.0
            },
            {
                "start_time": 16.9795455,
                "end_time": 17.1295455,
                "pitch": 64,
                "velocity": 80,
                "duration": 0.15,
                "tempo": 120.0
            },
            {
                "start_time": 17.1318182,
                "end_time": 17.2795455,
                "pitch": 67,
                "velocity": 80,
                "duration": 0.1477273,
                "tempo": 120.0
            },
            {
                "start_time": 17.2818182,
                "end_time": 17.4295455,
                "pitch": 59,
                "velocity": 80,
                "duration": 0.1477273,
                "tempo": 120.0
            },
            {
                "start_time": 17.4318182,
                "end_time": 17.5795455,
                "pitch": 64,
                "velocity": 80,
                "duration": 0.1477273,
                "tempo": 120.0
            },
            {
                "start_time": 17.5818182,
                "end_time": 17.7318182,
                "pitch": 67,
                "velocity": 80,
                "duration": 0.15,
                "tempo": 120.0
            },
            {
                "start_time": 17.7318182,
                "end_time": 17.8818182,
                "pitch": 59,
                "velocity": 80,
                "duration": 0.15,
                "tempo": 120.0
            },
            {
                "start_time": 17.8840909,
                "end_time": 18.0340909,
                "pitch": 64,
                "velocity": 80,
                "duration": 0.15,
                "tempo": 120.0
            },
            {
                "start_time": 18.0363636,
                "end_time": 18.1863636,
                "pitch": 59,
                "velocity": 80,
                "duration": 0.15,
                "tempo": 120.0
            },
            {
                "start_time": 18.1863636,
                "end_time": 18.3363636,
                "pitch": 64,
                "velocity": 80,
                "duration": 0.15,
                "tempo": 120.0
            },
            {
                "start_time": 18.3386364,
                "end_time": 18.4886364,
                "pitch": 67,
                "velocity": 80,
                "duration": 0.15,
                "tempo": 120.0
            },
            {
                "start_time": 18.4909091,
                "end_time": 18.6409091,
                "pitch": 59,
                "velocity": 80,
                "duration": 0.15,
                "tempo": 120.0
            },
            {
                "start_time": 18.6431818,
                "end_time": 18.7931818,
                "pitch": 64,
                "velocity": 80,
                "duration": 0.15,
                "tempo": 120.0
            },
            {
                "start_time": 18.7931818,
                "end_time": 18.9454545,
                "pitch": 67,
                "velocity": 80,
                "duration": 0.1522727,
                "tempo": 120.0
            },
            {
                "start_time": 18.9454545,
                "end_time": 19.0954545,
                "pitch": 59,
                "velocity": 80,
                "duration": 0.15,
                "tempo": 120.0
            },
            {
                "start_time": 19.0954545,
                "end_time": 19.2454545,
                "pitch": 64,
                "velocity": 80,
                "duration": 0.15,
                "tempo": 120.0
            },
            {
                "start_time": 19.2477273,
                "end_time": 19.3954545,
                "pitch": 59,
                "velocity": 80,
                "duration": 0.1477273,
                "tempo": 120.0
            },
            {
                "start_time": 19.3977273,
                "end_time": 19.5454545,
                "pitch": 64,
                "velocity": 80,
                "duration": 0.1477273,
                "tempo": 120.0
            },
            {
                "start_time": 19.5477273,
                "end_time": 19.6977273,
                "pitch": 67,
                "velocity": 80,
                "duration": 0.15,
                "tempo": 120.0
            },
            {
                "start_time": 19.6977273,
                "end_time": 19.8477273,
                "pitch": 59,
                "velocity": 80,
                "duration": 0.15,
                "tempo": 120.0
            },
            {
                "start_time": 19.85,
                "end_time": 20.0,
                "pitch": 64,
                "velocity": 80,
                "duration": 0.15,
                "tempo": 120.0
            },
            {
                "start_time": 20.0022727,
                "end_time": 20.1522727,
                "pitch": 67,
                "velocity": 80,
                "duration": 0.15,
                "tempo": 120.0
            },
            {
                "start_time": 20.1545455,
                "end_time": 20.3022727,
                "pitch": 59,
                "velocity": 80,
                "duration": 0.1477273,
                "tempo": 120.0
            },
            {
                "start_time": 20.3045455,
                "end_time": 20.4522727,
                "pitch": 64,
                "velocity": 80,
                "duration": 0.1477273,
                "tempo": 120.0
            },
            {
                "start_time": 20.4545455,
                "end_time": 20.6022727,
                "pitch": 60,
                "velocity": 80,
                "duration": 0.1477273,
                "tempo": 120.0
            },
            {
                "start_time": 20.6045455,
                "end_time": 20.7522727,
                "pitch": 64,
                "velocity": 80,
                "duration": 0.1477273,
                "tempo": 120.0
            },
            {
                "start_time": 20.7545455,
                "end_time": 20.9045455,
                "pitch": 69,
                "velocity": 80,
                "duration": 0.15,
                "tempo": 120.0
            },
            {
                "start_time": 20.9068182,
                "end_time": 21.0568182,
                "pitch": 60,
                "velocity": 80,
                "duration": 0.15,
                "tempo": 120.0
            },
            {
                "start_time": 21.0590909,
                "end_time": 21.2090909,
                "pitch": 64,
                "velocity": 80,
                "duration": 0.15,
                "tempo": 120.0
            },
            {
                "start_time": 21.2090909,
                "end_time": 21.3590909,
                "pitch": 69,
                "velocity": 80,
                "duration": 0.15,
                "tempo": 120.0
            },
            {
                "start_time": 21.3613636,
                "end_time": 21.5113636,
                "pitch": 60,
                "velocity": 80,
                "duration": 0.15,
                "tempo": 120.0
            },
            {
                "start_time": 21.5136364,
                "end_time": 21.6636364,
                "pitch": 64,
                "velocity": 80,
                "duration": 0.15,
                "tempo": 120.0
            },
            {
                "start_time": 21.6659091,
                "end_time": 21.8159091,
                "pitch": 60,
                "velocity": 80,
                "duration": 0.15,
                "tempo": 120.0
            },
            {
                "start_time": 21.8159091,
                "end_time": 21.9659091,
                "pitch": 64,
                "velocity": 80,
                "duration": 0.15,
                "tempo": 120.0
            },
            {
                "start_time": 21.9681818,
                "end_time": 22.1159091,
                "pitch": 69,
                "velocity": 80,
                "duration": 0.1477273,
                "tempo": 120.0
            },
            {
                "start_time": 22.1181818,
                "end_time": 22.2659091,
                "pitch": 60,
                "velocity": 80,
                "duration": 0.1477273,
                "tempo": 120.0
            },
            {
                "start_time": 22.2681818,
                "end_time": 22.4181818,
                "pitch": 64,
                "velocity": 80,
                "duration": 0.15,
                "tempo": 120.0
            },
            {
                "start_time": 22.4181818,
                "end_time": 22.5681818,
                "pitch": 69,
                "velocity": 80,
                "duration": 0.15,
                "tempo": 120.0
            },
            {
                "start_time": 22.5681818,
                "end_time": 22.7204545,
                "pitch": 60,
                "velocity": 80,
                "duration": 0.1522727,
                "tempo": 120.0
            },
            {
                "start_time": 22.7227273,
                "end_time": 22.875,
                "pitch": 64,
                "velocity": 80,
                "duration": 0.1522727,
                "tempo": 120.0
            },
            {
                "start_time": 22.8772727,
                "end_time": 23.0272727,
                "pitch": 60,
                "velocity": 80,
                "duration": 0.15,
                "tempo": 120.0
            },
            {
                "start_time": 23.0295455,
                "end_time": 23.1795455,
                "pitch": 64,
                "velocity": 80,
                "duration": 0.15,
                "tempo": 120.0
            },
            {
                "start_time": 23.1818182,
                "end_time": 23.3318182,
                "pitch": 69,
                "velocity": 80,
                "duration": 0.15,
                "tempo": 120.0
            },
            {
                "start_time": 23.3340909,
                "end_time": 23.4840909,
                "pitch": 60,
                "velocity": 80,
                "duration": 0.15,
                "tempo": 120.0
            },
            {
                "start_time": 23.4863636,
                "end_time": 23.6363636,
                "pitch": 64,
                "velocity": 80,
                "duration": 0.15,
                "tempo": 120.0
            },
            {
                "start_time": 23.6363636,
                "end_time": 23.7863636,
                "pitch": 69,
                "velocity": 80,
                "duration": 0.15,
                "tempo": 120.0
            },
            {
                "start_time": 23.7886364,
                "end_time": 23.9386364,
                "pitch": 60,
                "velocity": 80,
                "duration": 0.15,
                "tempo": 120.0
            },
            {
                "start_time": 23.9409091,
                "end_time": 24.0909091,
                "pitch": 64,
                "velocity": 80,
                "duration": 0.15,
                "tempo": 120.0
            },
            {
                "start_time": 24.0931818,
                "end_time": 24.2431818,
                "pitch": 59,
                "velocity": 80,
                "duration": 0.15,
                "tempo": 120.0
            },
            {
                "start_time": 24.2454545,
                "end_time": 24.3931818,
                "pitch": 62,
                "velocity": 80,
                "duration": 0.1477273,
                "tempo": 120.0
            },
            {
                "start_time": 24.3954545,
                "end_time": 24.5454545,
                "pitch": 67,
                "velocity": 80,
                "duration": 0.15,
                "tempo": 120.0
            },
            {
                "start_time": 24.5454545,
                "end_time": 24.6954545,
                "pitch": 59,
                "velocity": 80,
                "duration": 0.15,
                "tempo": 120.0
            },
            {
                "start_time": 24.6954545,
                "end_time": 24.8454545,
                "pitch": 62,
                "velocity": 80,
                "duration": 0.15,
                "tempo": 120.0
            },
            {
                "start_time": 24.8454545,
                "end_time": 24.9954545,
                "pitch": 67,
                "velocity": 80,
                "duration": 0.15,
                "tempo": 120.0
            },
            {
                "start_time": 24.9977273,
                "end_time": 25.1454545,
                "pitch": 59,
                "velocity": 80,
                "duration": 0.1477273,
                "tempo": 120.0
            },
            {
                "start_time": 25.1477273,
                "end_time": 25.2977273,
                "pitch": 62,
                "velocity": 80,
                "duration": 0.15,
                "tempo": 120.0
            },
            {
                "start_time": 25.3,
                "end_time": 25.45,
                "pitch": 57,
                "velocity": 80,
                "duration": 0.15,
                "tempo": 120.0
            },
            {
                "start_time": 25.4522727,
                "end_time": 25.6022727,
                "pitch": 60,
                "velocity": 80,
                "duration": 0.15,
                "tempo": 120.0
            },
            {
                "start_time": 25.6022727,
                "end_time": 25.7522727,
                "pitch": 65,
                "velocity": 80,
                "duration": 0.15,
                "tempo": 120.0
            },
            {
                "start_time": 25.7545455,
                "end_time": 25.9022727,
                "pitch": 57,
                "velocity": 80,
                "duration": 0.1477273,
                "tempo": 120.0
            },
            {
                "start_time": 25.9045455,
                "end_time": 26.0522727,
                "pitch": 60,
                "velocity": 80,
                "duration": 0.1477273,
                "tempo": 120.0
            },
            {
                "start_time": 26.0545455,
                "end_time": 26.2022727,
                "pitch": 65,
                "velocity": 80,
                "duration": 0.1477273,
                "tempo": 120.0
            },
            {
                "start_time": 26.2045455,
                "end_time": 26.3545455,
                "pitch": 57,
                "velocity": 80,
                "duration": 0.15,
                "tempo": 120.0
            },
            {
                "start_time": 26.3568182,
                "end_time": 26.5068182,
                "pitch": 60,
                "velocity": 80,
                "duration": 0.15,
                "tempo": 120.0
            },
            {
                "start_time": 26.5090909,
                "end_time": 26.6568182,
                "pitch": 59,
                "velocity": 80,
                "duration": 0.1477273,
                "tempo": 120.0
            },
            {
                "start_time": 26.6590909,
                "end_time": 26.8090909,
                "pitch": 64,
                "velocity": 80,
                "duration": 0.15,
                "tempo": 120.0
            },
            {
                "start_time": 26.8113636,
                "end_time": 26.9613636,
                "pitch": 67,
                "velocity": 80,
                "duration": 0.15,
                "tempo": 120.0
            },
            {
                "start_time": 26.9636364,
                "end_time": 27.1136364,
                "pitch": 59,
                "velocity": 80,
                "duration": 0.15,
                "tempo": 120.0
            },
            {
                "start_time": 27.1136364,
                "end_time": 27.2636364,
                "pitch": 64,
                "velocity": 80,
                "duration": 0.15,
                "tempo": 120.0
            },
            {
                "start_time": 27.2659091,
                "end_time": 27.4159091,
                "pitch": 67,
                "velocity": 80,
                "duration": 0.15,
                "tempo": 120.0
            },
            {
                "start_time": 27.4181818,
                "end_time": 27.5659091,
                "pitch": 59,
                "velocity": 80,
                "duration": 0.1477273,
                "tempo": 120.0
            },
            {
                "start_time": 27.5681818,
                "end_time": 27.7159091,
                "pitch": 64,
                "velocity": 80,
                "duration": 0.1477273,
                "tempo": 120.0
            },
            {
                "start_time": 27.7181818,
                "end_time": 27.8659091,
                "pitch": 59,
                "velocity": 80,
                "duration": 0.1477273,
                "tempo": 120.0
            },
            {
                "start_time": 27.8681818,
                "end_time": 28.0159091,
                "pitch": 64,
                "velocity": 80,
                "duration": 0.1477273,
                "tempo": 120.0
            },
            {
                "start_time": 28.0181818,
                "end_time": 28.1681818,
                "pitch": 67,
                "velocity": 80,
                "duration": 0.15,
                "tempo": 120.0
            },
            {
                "start_time": 28.1704545,
                "end_time": 28.3204545,
                "pitch": 59,
                "velocity": 80,
                "duration": 0.15,
                "tempo": 120.0
            },
            {
                "start_time": 28.3227273,
                "end_time": 28.4727273,
                "pitch": 64,
                "velocity": 80,
                "duration": 0.15,
                "tempo": 120.0
            },
            {
                "start_time": 28.4727273,
                "end_time": 28.6227273,
                "pitch": 67,
                "velocity": 80,
                "duration": 0.15,
                "tempo": 120.0
            },
            {
                "start_time": 28.625,
                "end_time": 28.7727273,
                "pitch": 59,
                "velocity": 80,
                "duration": 0.1477273,
                "tempo": 120.0
            },
            {
                "start_time": 28.775,
                "end_time": 28.925,
                "pitch": 64,
                "velocity": 80,
                "duration": 0.15,
                "tempo": 120.0
            },
            {
                "start_time": 28.9272727,
                "end_time": 29.075,
                "pitch": 59,
                "velocity": 80,
                "duration": 0.1477273,
                "tempo": 120.0
            },
            {
                "start_time": 29.075,
                "end_time": 29.225,
                "pitch": 64,
                "velocity": 80,
                "duration": 0.15,
                "tempo": 120.0
            },
            {
                "start_time": 29.225,
                "end_time": 29.3772727,
                "pitch": 67,
                "velocity": 80,
                "duration": 0.1522727,
                "tempo": 120.0
            },
            {
                "start_time": 29.3772727,
                "end_time": 29.5272727,
                "pitch": 59,
                "velocity": 80,
                "duration": 0.15,
                "tempo": 120.0
            },
            {
                "start_time": 29.5295455,
                "end_time": 29.6795455,
                "pitch": 64,
                "velocity": 80,
                "duration": 0.15,
                "tempo": 120.0
            },
            {
                "start_time": 29.6818182,
                "end_time": 29.8318182,
                "pitch": 67,
                "velocity": 80,
                "duration": 0.15,
                "tempo": 120.0
            },
            {
                "start_time": 29.8340909,
                "end_time": 29.9818182,
                "pitch": 59,
                "velocity": 80,
                "duration": 0.1477273,
                "tempo": 120.0
            },
            {
                "start_time": 29.9840909,
                "end_time": 30.1340909,
                "pitch": 64,
                "velocity": 80,
                "duration": 0.15,
                "tempo": 120.0
            },
            {
                "start_time": 30.1363636,
                "end_time": 30.2863636,
                "pitch": 59,
                "velocity": 80,
                "duration": 0.15,
                "tempo": 120.0
            },
            {
                "start_time": 30.2886364,
                "end_time": 30.4386364,
                "pitch": 64,
                "velocity": 80,
                "duration": 0.15,
                "tempo": 120.0
            },
            {
                "start_time": 30.4386364,
                "end_time": 30.5909091,
                "pitch": 67,
                "velocity": 80,
                "duration": 0.1522727,
                "tempo": 120.0
            },
            {
                "start_time": 30.5931818,
                "end_time": 30.7431818,
                "pitch": 59,
                "velocity": 80,
                "duration": 0.15,
                "tempo": 120.0
            },
            {
                "start_time": 30.7454545,
                "end_time": 30.8977273,
                "pitch": 64,
                "velocity": 80,
                "duration": 0.1522727,
                "tempo": 120.0
            },
            {
                "start_time": 30.9,
                "end_time": 31.05,
                "pitch": 67,
                "velocity": 80,
                "duration": 0.15,
                "tempo": 120.0
            },
            {
                "start_time": 31.0522727,
                "end_time": 31.2,
                "pitch": 59,
                "velocity": 80,
                "duration": 0.1477273,
                "tempo": 120.0
            },
            {
                "start_time": 31.2022727,
                "end_time": 31.3522727,
                "pitch": 64,
                "velocity": 80,
                "duration": 0.15,
                "tempo": 120.0
            }
        ],
        "Vibraphone": [
            {
                "start_time": 31.3545455,
                "end_time": 31.5022727,
                "pitch": 69,
                "velocity": 101,
                "duration": 0.1477273,
                "tempo": 120.0
            },
            {
                "start_time": 31.5022727,
                "end_time": 31.6522727,
                "pitch": 64,
                "velocity": 101,
                "duration": 0.15,
                "tempo": 120.0
            },
            {
                "start_time": 31.6545455,
                "end_time": 31.8045455,
                "pitch": 57,
                "velocity": 101,
                "duration": 0.15,
                "tempo": 120.0
            },
            {
                "start_time": 31.8045455,
                "end_time": 31.9545455,
                "pitch": 64,
                "velocity": 101,
                "duration": 0.15,
                "tempo": 120.0
            },
            {
                "start_time": 31.9568182,
                "end_time": 32.1068182,
                "pitch": 69,
                "velocity": 101,
                "duration": 0.15,
                "tempo": 120.0
            },
            {
                "start_time": 32.1090909,
                "end_time": 32.2590909,
                "pitch": 64,
                "velocity": 101,
                "duration": 0.15,
                "tempo": 120.0
            },
            {
                "start_time": 32.2590909,
                "end_time": 32.4090909,
                "pitch": 57,
                "velocity": 101,
                "duration": 0.15,
                "tempo": 120.0
            },
            {
                "start_time": 32.4113636,
                "end_time": 32.5636364,
                "pitch": 64,
                "velocity": 101,
                "duration": 0.1522727,
                "tempo": 120.0
            },
            {
                "start_time": 32.5636364,
                "end_time": 32.7136364,
                "pitch": 69,
                "velocity": 101,
                "duration": 0.15,
                "tempo": 120.0
            },
            {
                "start_time": 32.7159091,
                "end_time": 32.8659091,
                "pitch": 64,
                "velocity": 101,
                "duration": 0.15,
                "tempo": 120.0
            },
            {
                "start_time": 32.8681818,
                "end_time": 33.0181818,
                "pitch": 69,
                "velocity": 101,
                "duration": 0.15,
                "tempo": 120.0
            },
            {
                "start_time": 33.0181818,
                "end_time": 33.3204545,
                "pitch": 76,
                "velocity": 101,
                "duration": 0.3022727,
                "tempo": 120.0
            },
            {
                "start_time": 33.3227273,
                "end_time": 33.4727273,
                "pitch": 74,
                "velocity": 101,
                "duration": 0.15,
                "tempo": 120.0
            },
            {
                "start_time": 33.4727273,
                "end_time": 33.7727273,
                "pitch": 72,
                "velocity": 101,
                "duration": 0.3,
                "tempo": 120.0
            },
            {
                "start_time": 33.775,
                "end_time": 33.9227273,
                "pitch": 67,
                "velocity": 101,
                "duration": 0.1477273,
                "tempo": 120.0
            },
            {
                "start_time": 33.925,
                "end_time": 34.0727273,
                "pitch": 62,
                "velocity": 101,
                "duration": 0.1477273,
                "tempo": 120.0
            },
            {
                "start_time": 34.075,
                "end_time": 34.225,
                "pitch": 55,
                "velocity": 101,
                "duration": 0.15,
                "tempo": 120.0
            },
            {
                "start_time": 34.2272727,
                "end_time": 34.3772727,
                "pitch": 62,
                "velocity": 101,
                "duration": 0.15,
                "tempo": 120.0
            },
            {
                "start_time": 34.3795455,
                "end_time": 34.5272727,
                "pitch": 67,
                "velocity": 101,
                "duration": 0.1477273,
                "tempo": 120.0
            },
            {
                "start_time": 34.5295455,
                "end_time": 34.6795455,
                "pitch": 62,
                "velocity": 101,
                "duration": 0.15,
                "tempo": 120.0
            },
            {
                "start_time": 34.6818182,
                "end_time": 34.8318182,
                "pitch": 55,
                "velocity": 101,
                "duration": 0.15,
                "tempo": 120.0
            },
            {
                "start_time": 34.8340909,
                "end_time": 34.9840909,
                "pitch": 62,
                "velocity": 101,
                "duration": 0.15,
                "tempo": 120.0
            },
            {
                "start_time": 34.9863636,
                "end_time": 35.1340909,
                "pitch": 67,
                "velocity": 101,
                "duration": 0.1477273,
                "tempo": 120.0
            },
            {
                "start_time": 35.1363636,
                "end_time": 35.2863636,
                "pitch": 62,
                "velocity": 101,
                "duration": 0.15,
                "tempo": 120.0
            },
            {
                "start_time": 35.2886364,
                "end_time": 35.4386364,
                "pitch": 67,
                "velocity": 101,
                "duration": 0.15,
                "tempo": 120.0
            },
            {
                "start_time": 35.4409091,
                "end_time": 35.7409091,
                "pitch": 79,
                "velocity": 101,
                "duration": 0.3,
                "tempo": 120.0
            },
            {
                "start_time": 35.7431818,
                "end_time": 35.8931818,
                "pitch": 77,
                "velocity": 101,
                "duration": 0.15,
                "tempo": 120.0
            },
            {
                "start_time": 35.8954545,
                "end_time": 36.0454545,
                "pitch": 76,
                "velocity": 101,
                "duration": 0.15,
                "tempo": 120.0
            },
            {
                "start_time": 36.0477273,
                "end_time": 36.1977273,
                "pitch": 74,
                "velocity": 101,
                "duration": 0.15,
                "tempo": 120.0
            },
            {
                "start_time": 36.2,
                "end_time": 36.3477273,
                "pitch": 65,
                "velocity": 101,
                "duration": 0.1477273,
                "tempo": 120.0
            },
            {
                "start_time": 36.35,
                "end_time": 36.5,
                "pitch": 60,
                "velocity": 101,
                "duration": 0.15,
                "tempo": 120.0
            },
            {
                "start_time": 36.5022727,
                "end_time": 36.65,
                "pitch": 53,
                "velocity": 101,
                "duration": 0.1477273,
                "tempo": 120.0
            },
            {
                "start_time": 36.6522727,
                "end_time": 36.8,
                "pitch": 60,
                "velocity": 101,
                "duration": 0.1477273,
                "tempo": 120.0
            },
            {
                "start_time": 36.8022727,
                "end_time": 36.95,
                "pitch": 65,
                "velocity": 101,
                "duration": 0.1477273,
                "tempo": 120.0
            },
            {
                "start_time": 36.9522727,
                "end_time": 37.1022727,
                "pitch": 60,
                "velocity": 101,
                "duration": 0.15,
                "tempo": 120.0
            },
            {
                "start_time": 37.1022727,
                "end_time": 37.2545455,
                "pitch": 53,
                "velocity": 101,
                "duration": 0.1522727,
                "tempo": 120.0
            },
            {
                "start_time": 37.2545455,
                "end_time": 37.4068182,
                "pitch": 60,
                "velocity": 101,
                "duration": 0.1522727,
                "tempo": 120.0
            },
            {
                "start_time": 37.4068182,
                "end_time": 37.5568182,
                "pitch": 65,
                "velocity": 101,
                "duration": 0.15,
                "tempo": 120.0
            },
            {
                "start_time": 37.5568182,
                "end_time": 37.7090909,
                "pitch": 60,
                "velocity": 101,
                "duration": 0.1522727,
                "tempo": 120.0
            },
            {
                "start_time": 37.7090909,
                "end_time": 37.8590909,
                "pitch": 65,
                "velocity": 101,
                "duration": 0.15,
                "tempo": 120.0
            },
            {
                "start_time": 37.8613636,
                "end_time": 38.1636364,
                "pitch": 77,
                "velocity": 101,
                "duration": 0.3022727,
                "tempo": 120.0
            },
            {
                "start_time": 38.1659091,
                "end_time": 38.3159091,
                "pitch": 76,
                "velocity": 101,
                "duration": 0.15,
                "tempo": 120.0
            },
            {
                "start_time": 38.3159091,
                "end_time": 38.6181818,
                "pitch": 74,
                "velocity": 101,
                "duration": 0.3022727,
                "tempo": 120.0
            },
            {
                "start_time": 38.6204545,
                "end_time": 38.7704545,
                "pitch": 76,
                "velocity": 101,
                "duration": 0.15,
                "tempo": 120.0
            },
            {
                "start_time": 38.7727273,
                "end_time": 38.9227273,
                "pitch": 74,
                "velocity": 101,
                "duration": 0.15,
                "tempo": 120.0
            },
            {
                "start_time": 38.9227273,
                "end_time": 39.075,
                "pitch": 72,
                "velocity": 101,
                "duration": 0.1522727,
                "tempo": 120.0
            },
            {
                "start_time": 39.0772727,
                "end_time": 39.2295455,
                "pitch": 74,
                "velocity": 101,
                "duration": 0.1522727,
                "tempo": 120.0
            },
            {
                "start_time": 39.2295455,
                "end_time": 39.3818182,
                "pitch": 72,
                "velocity": 101,
                "duration": 0.1522727,
                "tempo": 120.0
            },
            {
                "start_time": 39.3840909,
                "end_time": 39.5340909,
                "pitch": 71,
                "velocity": 101,
                "duration": 0.15,
                "tempo": 120.0
            },
            {
                "start_time": 39.5363636,
                "end_time": 39.6863636,
                "pitch": 72,
                "velocity": 101,
                "duration": 0.15,
                "tempo": 120.0
            },
            {
                "start_time": 39.6886364,
                "end_time": 39.8386364,
                "pitch": 71,
                "velocity": 101,
                "duration": 0.15,
                "tempo": 120.0
            },
            {
                "start_time": 39.8409091,
                "end_time": 39.9886364,
                "pitch": 69,
                "velocity": 101,
                "duration": 0.1477273,
                "tempo": 120.0
            },
            {
                "start_time": 39.9909091,
                "end_time": 40.1409091,
                "pitch": 71,
                "velocity": 101,
                "duration": 0.15,
                "tempo": 120.0
            },
            {
                "start_time": 40.1431818,
                "end_time": 40.2909091,
                "pitch": 69,
                "velocity": 101,
                "duration": 0.1477273,
                "tempo": 120.0
            },
            {
                "start_time": 40.2931818,
                "end_time": 40.4431818,
                "pitch": 67,
                "velocity": 101,
                "duration": 0.15,
                "tempo": 120.0
            },
            {
                "start_time": 40.4431818,
                "end_time": 40.7431818,
                "pitch": 64,
                "velocity": 101,
                "duration": 0.3,
                "tempo": 120.0
            },
            {
                "start_time": 40.7431818,
                "end_time": 41.0454545,
                "pitch": 67,
                "velocity": 101,
                "duration": 0.3022727,
                "tempo": 120.0
            },
            {
                "start_time": 41.0477273,
                "end_time": 41.1977273,
                "pitch": 69,
                "velocity": 101,
                "duration": 0.15,
                "tempo": 120.0
            },
            {
                "start_time": 41.2,
                "end_time": 41.35,
                "pitch": 64,
                "velocity": 101,
                "duration": 0.15,
                "tempo": 120.0
            },
            {
                "start_time": 41.35,
                "end_time": 41.5,
                "pitch": 57,
                "velocity": 101,
                "duration": 0.15,
                "tempo": 120.0
            },
            {
                "start_time": 41.5022727,
                "end_time": 41.6522727,
                "pitch": 64,
                "velocity": 101,
                "duration": 0.15,
                "tempo": 120.0
            },
            {
                "start_time": 41.6545455,
                "end_time": 41.8045455,
                "pitch": 69,
                "velocity": 101,
                "duration": 0.15,
                "tempo": 120.0
            },
            {
                "start_time": 41.8068182,
                "end_time": 41.9568182,
                "pitch": 64,
                "velocity": 101,
                "duration": 0.15,
                "tempo": 120.0
            },
            {
                "start_time": 41.9568182,
                "end_time": 42.1068182,
                "pitch": 57,
                "velocity": 101,
                "duration": 0.15,
                "tempo": 120.0
            },
            {
                "start_time": 42.1090909,
                "end_time": 42.2613636,
                "pitch": 64,
                "velocity": 101,
                "duration": 0.1522727,
                "tempo": 120.0
            },
            {
                "start_time": 42.2613636,
                "end_time": 42.4113636,
                "pitch": 69,
                "velocity": 101,
                "duration": 0.15,
                "tempo": 120.0
            },
            {
                "start_time": 42.4136364,
                "end_time": 42.5636364,
                "pitch": 64,
                "velocity": 101,
                "duration": 0.15,
                "tempo": 120.0
            },
            {
                "start_time": 42.5636364,
                "end_time": 42.7136364,
                "pitch": 69,
                "velocity": 101,
                "duration": 0.15,
                "tempo": 120.0
            },
            {
                "start_time": 42.7159091,
                "end_time": 43.0181818,
                "pitch": 76,
                "velocity": 101,
                "duration": 0.3022727,
                "tempo": 120.0
            },
            {
                "start_time": 43.0204545,
                "end_time": 43.1704545,
                "pitch": 74,
                "velocity": 101,
                "duration": 0.15,
                "tempo": 120.0
            },
            {
                "start_time": 43.1704545,
                "end_time": 43.4704545,
                "pitch": 72,
                "velocity": 101,
                "duration": 0.3,
                "tempo": 120.0
            },
            {
                "start_time": 43.4727273,
                "end_time": 43.6204545,
                "pitch": 67,
                "velocity": 101,
                "duration": 0.1477273,
                "tempo": 120.0
            },
            {
                "start_time": 43.6227273,
                "end_time": 43.7704545,
                "pitch": 62,
                "velocity": 101,
                "duration": 0.1477273,
                "tempo": 120.0
            },
            {
                "start_time": 43.7727273,
                "end_time": 43.9227273,
                "pitch": 55,
                "velocity": 101,
                "duration": 0.15,
                "tempo": 120.0
            },
            {
                "start_time": 43.925,
                "end_time": 44.075,
                "pitch": 62,
                "velocity": 101,
                "duration": 0.15,
                "tempo": 120.0
            },
            {
                "start_time": 44.075,
                "end_time": 44.225,
                "pitch": 67,
                "velocity": 101,
                "duration": 0.15,
                "tempo": 120.0
            },
            {
                "start_time": 44.2272727,
                "end_time": 44.3772727,
                "pitch": 62,
                "velocity": 101,
                "duration": 0.15,
                "tempo": 120.0
            },
            {
                "start_time": 44.3795455,
                "end_time": 44.5295455,
                "pitch": 55,
                "velocity": 101,
                "duration": 0.15,
                "tempo": 120.0
            },
            {
                "start_time": 44.5295455,
                "end_time": 44.6818182,
                "pitch": 62,
                "velocity": 101,
                "duration": 0.1522727,
                "tempo": 120.0
            },
            {
                "start_time": 44.6840909,
                "end_time": 44.8318182,
                "pitch": 67,
                "velocity": 101,
                "duration": 0.1477273,
                "tempo": 120.0
            },
            {
                "start_time": 44.8340909,
                "end_time": 44.9840909,
                "pitch": 62,
                "velocity": 101,
                "duration": 0.15,
                "tempo": 120.0
            },
            {
                "start_time": 44.9863636,
                "end_time": 45.1363636,
                "pitch": 67,
                "velocity": 101,
                "duration": 0.15,
                "tempo": 120.0
            },
            {
                "start_time": 45.1386364,
                "end_time": 45.4386364,
                "pitch": 79,
                "velocity": 101,
                "duration": 0.3,
                "tempo": 120.0
            },
            {
                "start_time": 45.4409091,
                "end_time": 45.5909091,
                "pitch": 77,
                "velocity": 101,
                "duration": 0.15,
                "tempo": 120.0
            },
            {
                "start_time": 45.5931818,
                "end_time": 45.7431818,
                "pitch": 76,
                "velocity": 101,
                "duration": 0.15,
                "tempo": 120.0
            },
            {
                "start_time": 45.7431818,
                "end_time": 45.8954545,
                "pitch": 74,
                "velocity": 101,
                "duration": 0.1522727,
                "tempo": 120.0
            },
            {
                "start_time": 45.8977273,
                "end_time": 46.0454545,
                "pitch": 65,
                "velocity": 101,
                "duration": 0.1477273,
                "tempo": 120.0
            },
            {
                "start_time": 46.0477273,
                "end_time": 46.1977273,
                "pitch": 60,
                "velocity": 101,
                "duration": 0.15,
                "tempo": 120.0
            },
            {
                "start_time": 46.2,
                "end_time": 46.3477273,
                "pitch": 53,
                "velocity": 101,
                "duration": 0.1477273,
                "tempo": 120.0
            },
            {
                "start_time": 46.35,
                "end_time": 46.4977273,
                "pitch": 60,
                "velocity": 101,
                "duration": 0.1477273,
                "tempo": 120.0
            },
            {
                "start_time": 46.5,
                "end_time": 46.6477273,
                "pitch": 65,
                "velocity": 101,
                "duration": 0.1477273,
                "tempo": 120.0
            },
            {
                "start_time": 46.65,
                "end_time": 46.8,
                "pitch": 60,
                "velocity": 101,
                "duration": 0.15,
                "tempo": 120.0
            },
            {
                "start_time": 46.8,
                "end_time": 46.95,
                "pitch": 53,
                "velocity": 101,
                "duration": 0.15,
                "tempo": 120.0
            },
            {
                "start_time": 46.9522727,
                "end_time": 47.1022727,
                "pitch": 60,
                "velocity": 101,
                "duration": 0.15,
                "tempo": 120.0
            },
            {
                "start_time": 47.1045455,
                "end_time": 47.2545455,
                "pitch": 65,
                "velocity": 101,
                "duration": 0.15,
                "tempo": 120.0
            },
            {
                "start_time": 47.2545455,
                "end_time": 47.4045455,
                "pitch": 60,
                "velocity": 101,
                "duration": 0.15,
                "tempo": 120.0
            },
            {
                "start_time": 47.4068182,
                "end_time": 47.5590909,
                "pitch": 65,
                "velocity": 101,
                "duration": 0.1522727,
                "tempo": 120.0
            },
            {
                "start_time": 47.5613636,
                "end_time": 47.8659091,
                "pitch": 77,
                "velocity": 101,
                "duration": 0.3045455,
                "tempo": 120.0
            },
            {
                "start_time": 47.8681818,
                "end_time": 48.0181818,
                "pitch": 76,
                "velocity": 101,
                "duration": 0.15,
                "tempo": 120.0
            },
            {
                "start_time": 48.0204545,
                "end_time": 48.3227273,
                "pitch": 74,
                "velocity": 101,
                "duration": 0.3022727,
                "tempo": 120.0
            },
            {
                "start_time": 48.325,
                "end_time": 48.4727273,
                "pitch": 76,
                "velocity": 101,
                "duration": 0.1477273,
                "tempo": 120.0
            },
            {
                "start_time": 48.475,
                "end_time": 48.625,
                "pitch": 74,
                "velocity": 101,
                "duration": 0.15,
                "tempo": 120.0
            },
            {
                "start_time": 48.6272727,
                "end_time": 48.7772727,
                "pitch": 72,
                "velocity": 101,
                "duration": 0.15,
                "tempo": 120.0
            },
            {
                "start_time": 48.7795455,
                "end_time": 48.9295455,
                "pitch": 74,
                "velocity": 101,
                "duration": 0.15,
                "tempo": 120.0
            },
            {
                "start_time": 48.9318182,
                "end_time": 49.0795455,
                "pitch": 72,
                "velocity": 101,
                "duration": 0.1477273,
                "tempo": 120.0
            },
            {
                "start_time": 49.0818182,
                "end_time": 49.2318182,
                "pitch": 71,
                "velocity": 101,
                "duration": 0.15,
                "tempo": 120.0
            },
            {
                "start_time": 49.2340909,
                "end_time": 49.3840909,
                "pitch": 72,
                "velocity": 101,
                "duration": 0.15,
                "tempo": 120.0
            },
            {
                "start_time": 49.3863636,
                "end_time": 49.5363636,
                "pitch": 71,
                "velocity": 101,
                "duration": 0.15,
                "tempo": 120.0
            },
            {
                "start_time": 49.5386364,
                "end_time": 49.6863636,
                "pitch": 69,
                "velocity": 101,
                "duration": 0.1477273,
                "tempo": 120.0
            },
            {
                "start_time": 49.6886364,
                "end_time": 49.8386364,
                "pitch": 71,
                "velocity": 101,
                "duration": 0.15,
                "tempo": 120.0
            },
            {
                "start_time": 49.8409091,
                "end_time": 49.9909091,
                "pitch": 69,
                "velocity": 101,
                "duration": 0.15,
                "tempo": 120.0
            },
            {
                "start_time": 49.9931818,
                "end_time": 50.1431818,
                "pitch": 67,
                "velocity": 101,
                "duration": 0.15,
                "tempo": 120.0
            },
            {
                "start_time": 50.1454545,
                "end_time": 50.4454545,
                "pitch": 64,
                "velocity": 101,
                "duration": 0.3,
                "tempo": 120.0
            },
            {
                "start_time": 50.4477273,
                "end_time": 50.7477273,
                "pitch": 67,
                "velocity": 101,
                "duration": 0.3,
                "tempo": 120.0
            }
        ]
    }
}