{
    "mood": "angry",
    "instruments": {
        "Electric Guitar (clean)": [
            {
                "start_time": 0.025,
                "end_time": 0.1181818,
                "pitch": 33,
                "velocity": 64,
                "duration": 0.0931818,
                "tempo": 120.0
            },
            {
                "start_time": 0.1181818,
                "end_time": 0.2204545,
                "pitch": 28,
                "velocity": 64,
                "duration": 0.1022727,
                "tempo": 120.0
            },
            {
                "start_time": 0.2204545,
                "end_time": 0.3318182,
                "pitch": 33,
                "velocity": 64,
                "duration": 0.1113636,
                "tempo": 120.0
            },
            {
                "start_time": 0.3318182,
                "end_time": 0.4522727,
                "pitch": 31,
                "velocity": 64,
                "duration": 0.1204545,
                "tempo": 120.0
            },
            {
                "start_time": 0.5727273,
                "end_time": 0.6840909,
                "pitch": 29,
                "velocity": 64,
                "duration": 0.1113636,
                "tempo": 120.0
            },
            {
                "start_time": 0.6840909,
                "end_time": 0.8022727,
                "pitch": 31,
                "velocity": 64,
                "duration": 0.1181818,
                "tempo": 120.0
            },
            {
                "start_time": 0.8022727,
                "end_time": 0.9181818,
                "pitch": 33,
                "velocity": 64,
                "duration": 0.1159091,
                "tempo": 120.0
            },
            {
                "start_time": 1.0272727,
                "end_time": 1.1454545,
                "pitch": 36,
                "velocity": 64,
                "duration": 0.1181818,
                "tempo": 120.0
            },
            {
                "start_time": 1.1454545,
                "end_time": 1.2659091,
                "pitch": 35,
                "velocity": 64,
                "duration": 0.1204545,
                "tempo": 120.0
            },
            {
                "start_time": 1.2659091,
                "end_time": 1.3772727,
                "pitch": 31,
                "velocity": 64,
                "duration": 0.1113636,
                "tempo": 120.0
            },
            {
                "start_time": 1.3772727,
                "end_time": 1.4977273,
                "pitch": 29,
                "velocity": 64,
                "duration": 0.1204545,
                "tempo": 120.0
            },
            {
                "start_time": 1.4977273,
                "end_time": 1.6181818,
                "pitch": 26,
                "velocity": 64,
                "duration": 0.1204545,
                "tempo": 120.0
            },
            {
                "start_time": 1.6181818,
                "end_time": 1.7272727,
                "pitch": 31,
                "velocity": 64,
                "duration": 0.1090909,
                "tempo": 120.0
            },
            {
                "start_time": 1.7272727,
                "end_time": 1.8477273,
                "pitch": 32,
                "velocity": 64,
                "duration": 0.1204545,
                "tempo": 120.0
            },
            {
                "start_time": 1.8477273,
                "end_time": 1.9681818,
                "pitch": 33,
                "velocity": 64,
                "duration": 0.1204545,
                "tempo": 120.0
            },
            {
                "start_time": 1.9681818,
                "end_time": 2.0795455,
                "pitch": 28,
                "velocity": 64,
                "duration": 0.1113636,
                "tempo": 120.0
            },
            {
                "start_time": 2.0795455,
                "end_time": 2.1977273,
                "pitch": 33,
                "velocity": 64,
                "duration": 0.1181818,
                "tempo": 120.0
            },
            {
                "start_time": 2.1977273,
                "end_time": 2.3159091,
                "pitch": 31,
                "velocity": 64,
                "duration": 0.1181818,
                "tempo": 120.0
            },
            {
                "start_time": 2.4227273,
                "end_time": 2.5409091,
                "pitch": 30,
                "velocity": 64,
                "duration": 0.1181818,
                "tempo": 120.0
            },
            {
                "start_time": 2.5409091,
                "end_time": 2.6613636,
                "pitch": 31,
                "velocity": 64,
                "duration": 0.1204545,
                "tempo": 120.0
            },
            {
                "start_time": 2.6613636,
                "end_time": 2.7727273,
                "pitch": 33,
                "velocity": 64,
                "duration": 0.1113636,
                "tempo": 120.0
            },
            {
                "start_time": 2.8931818,
                "end_time": 3.0136364,
                "pitch": 36,
                "velocity": 64,
                "duration": 0.1204545,
                "tempo": 120.0
            },
            {
                "start_time": 3.0136364,
                "end_time": 3.125,
                "pitch": 35,
                "velocity": 64,
                "duration": 0.1113636,
                "tempo": 120.0
            },
            {
                "start_time": 3.125,
                "end_time": 3.2454545,
                "pitch": 31,
                "velocity": 64,
                "duration": 0.1204545,
                "tempo": 120.0
            },
            {
                "start_time": 3.2454545,
                "end_time": 3.3659091,
                "pitch": 29,
                "velocity": 64,
                "duration": 0.1204545,
                "tempo": 120.0
            },
            {
                "start_time": 3.3659091,
                "end_time": 3.475,
                "pitch": 26,
                "velocity": 64,
                "duration": 0.1090909,
                "tempo": 120.0
            },
            {
                "start_time": 3.475,
                "end_time": 3.5931818,
                "pitch": 31,
                "velocity": 64,
                "duration": 0.1181818,
                "tempo": 120.0
            },
            {
                "start_time": 3.5931818,
                "end_time": 3.7113636,
                "pitch": 32,
                "velocity": 64,
                "duration": 0.1181818,
                "tempo": 120.0
            },
            {
                "start_time": 3.7113636,
                "end_time": 3.8204545,
                "pitch": 33,
                "velocity": 64,
                "duration": 0.1090909,
                "tempo": 120.0
            },
            {
                "start_time": 3.8204545,
                "end_time": 3.9363636,
                "pitch": 28,
                "velocity": 64,
                "duration": 0.1159091,
                "tempo": 120.0
            },
            {
                "start_time": 3.9363636,
                "end_time": 4.0590909,
                "pitch": 33,
                "velocity": 64,
                "duration": 0.1227273,
                "tempo": 120.0
            },
            {
                "start_time": 4.0590909,
                "end_time": 4.1681818,
                "pitch": 31,
                "velocity": 64,
                "duration": 0.1090909,
                "tempo": 120.0
            },
            {
                "start_time": 4.2886364,
                "end_time": 4.4090909,
                "pitch": 29,
                "velocity": 64,
                "duration": 0.1204545,
                "tempo": 120.0
            },
            {
                "start_time": 4.4090909,
                "end_time": 4.5204545,
                "pitch": 31,
                "velocity": 64,
                "duration": 0.1113636,
                "tempo": 120.0
            },
            {
                "start_time": 4.5204545,
                "end_time": 4.6409091,
                "pitch": 33,
                "velocity": 64,
                "duration": 0.1204545,
                "tempo": 120.0
            },
            {
                "start_time": 4.7613636,
                "end_time": 4.8727273,
                "pitch": 36,
                "velocity": 64,
                "duration": 0.1113636,
                "tempo": 120.0
            },
            {
                "start_time": 4.8727273,
                "end_time": 4.9909091,
                "pitch": 35,
                "velocity": 64,
                "duration": 0.1181818,
                "tempo": 120.0
            },
            {
                "start_time": 4.9909091,
                "end_time": 5.1068182,
                "pitch": 31,
                "velocity": 64,
                "duration": 0.1159091,
                "tempo": 120.0
            },
            {
                "start_time": 5.1068182,
                "end_time": 5.2159091,
                "pitch": 29,
                "velocity": 64,
                "duration": 0.1090909,
                "tempo": 120.0
            },
            {
                "start_time": 5.2159091,
                "end_time": 5.3340909,
                "pitch": 26,
                "velocity": 64,
                "duration": 0.1181818,
                "tempo": 120.0
            },
            {
                "start_time": 5.3340909,
                "end_time": 5.4545455,
                "pitch": 31,
                "velocity": 64,
                "duration": 0.1204545,
                "tempo": 120.0
            },
            {
                "start_time": 5.4545455,
                "end_time": 5.5636364,
                "pitch": 32,
                "velocity": 64,
                "duration": 0.1090909,
                "tempo": 120.0
            },
            {
                "start_time": 5.5636364,
                "end_time": 5.6863636,
                "pitch": 33,
                "velocity": 64,
                "duration": 0.1227273,
                "tempo": 120.0
            },
            {
                "start_time": 5.6863636,
                "end_time": 5.8068182,
                "pitch": 28,
                "velocity": 64,
                "duration": 0.1204545,
                "tempo": 120.0
            },
            {
                "start_time": 5.8068182,
                "end_time": 5.9159091,
                "pitch": 33,
                "velocity": 64,
                "duration": 0.1090909,
                "tempo": 120.0
            },
            {
                "start_time": 5.9159091,
                "end_time": 6.0363636,
                "pitch": 31,
                "velocity": 64,
                "duration": 0.1204545,
                "tempo": 120.0
            },
            {
                "start_time": 6.1568182,
                "end_time": 6.2681818,
                "pitch": 30,
                "velocity": 64,
                "duration": 0.1113636,
                "tempo": 120.0
            },
            {
                "start_time": 6.2681818,
                "end_time": 6.3863636,
                "pitch": 31,
                "velocity": 64,
                "duration": 0.1181818,
                "tempo": 120.0
            },
            {
                "start_time": 6.3863636,
                "end_time": 6.5045455,
                "pitch": 33,
                "velocity": 64,
                "duration": 0.1181818,
                "tempo": 120.0
            },
            {
                "start_time": 6.6113636,
                "end_time": 6.7295455,
                "pitch": 36,
                "velocity": 64,
                "duration": 0.1181818,
                "tempo": 120.0
            },
            {
                "start_time": 6.7295455,
                "end_time": 6.85,
                "pitch": 35,
                "velocity": 64,
                "duration": 0.1204545,
                "tempo": 120.0
            },
            {
                "start_time": 6.85,
                "end_time": 6.9613636,
                "pitch": 31,
                "velocity": 64,
                "duration": 0.1113636,
                "tempo": 120.0
            },
            {
                "start_time": 6.9613636,
                "end_time": 7.0818182,
                "pitch": 29,
                "velocity": 64,
                "duration": 0.1204545,
                "tempo": 120.0
            },
            {
                "start_time": 7.0818182,
                "end_time": 7.2022727,
                "pitch": 26,
                "velocity": 64,
                "duration": 0.1204545,
                "tempo": 120.0
            },
            {
                "start_time": 7.2022727,
                "end_time": 7.3136364,
                "pitch": 31,
                "velocity": 64,
                "duration": 0.1113636,
                "tempo": 120.0
            },
            {
                "start_time": 7.3136364,
                "end_time": 7.4340909,
                "pitch": 32,
                "velocity": 64,
                "duration": 0.1204545,
                "tempo": 120.0
            },
            {
                "start_time": 7.4340909,
                "end_time": 7.5545455,
                "pitch": 45,
                "velocity": 64,
                "duration": 0.1204545,
                "tempo": 120.0
            },
            {
                "start_time": 7.5545455,
                "end_time": 7.6636364,
                "pitch": 29,
                "velocity": 64,
                "duration": 0.1090909,
                "tempo": 120.0
            },
            {
                "start_time": 7.6636364,
                "end_time": 7.7818182,
                "pitch": 29,
                "velocity": 64,
                "duration": 0.1181818,
                "tempo": 120.0
            },
            {
                "start_time": 7.7818182,
                "end_time": 7.9,
                "pitch": 29,
                "velocity": 64,
                "duration": 0.1181818,
                "tempo": 120.0
            },
            {
                "start_time": 8.0090909,
                "end_time": 8.125,
                "pitch": 29,
                "velocity": 64,
                "duration": 0.1159091,
                "tempo": 120.0
            },
            {
                "start_time": 8.125,
                "end_time": 8.2454545,
                "pitch": 29,
                "velocity": 64,
                "duration": 0.1204545,
                "tempo": 120.0
            },
            {
                "start_time": 8.2454545,
                "end_time": 8.3568182,
                "pitch": 29,
                "velocity": 64,
                "duration": 0.1113636,
                "tempo": 120.0
            },
            {
                "start_time": 8.3568182,
                "end_time": 8.4772727,
                "pitch": 48,
                "velocity": 64,
                "duration": 0.1204545,
                "tempo": 120.0
            },
            {
                "start_time": 8.4772727,
                "end_time": 8.5977273,
                "pitch": 29,
                "velocity": 64,
                "duration": 0.1204545,
                "tempo": 120.0
            },
            {
                "start_time": 8.5977273,
                "end_time": 8.7090909,
                "pitch": 29,
                "velocity": 64,
                "duration": 0.1113636,
                "tempo": 120.0
            },
            {
                "start_time": 8.7090909,
                "end_time": 8.8295455,
                "pitch": 29,
                "velocity": 64,
                "duration": 0.1204545,
                "tempo": 120.0
            },
            {
                "start_time": 8.8295455,
                "end_time": 8.95,
                "pitch": 47,
                "velocity": 64,
                "duration": 0.1204545,
                "tempo": 120.0
            },
            {
                "start_time": 8.95,
                "end_time": 9.0613636,
                "pitch": 29,
                "velocity": 64,
                "duration": 0.1113636,
                "tempo": 120.0
            },
            {
                "start_time": 9.0613636,
                "end_time": 9.1772727,
                "pitch": 48,
                "velocity": 64,
                "duration": 0.1159091,
                "tempo": 120.0
            },
            {
                "start_time": 9.1772727,
                "end_time": 9.2954545,
                "pitch": 29,
                "velocity": 64,
                "duration": 0.1181818,
                "tempo": 120.0
            },
            {
                "start_time": 9.2954545,
                "end_time": 9.4045455,
                "pitch": 50,
                "velocity": 64,
                "duration": 0.1090909,
                "tempo": 120.0
            },
            {
                "start_time": 9.4045455,
                "end_time": 9.5227273,
                "pitch": 29,
                "velocity": 64,
                "duration": 0.1181818,
                "tempo": 120.0
            },
            {
                "start_time": 9.5227273,
                "end_time": 9.6431818,
                "pitch": 29,
                "velocity": 64,
                "duration": 0.1204545,
                "tempo": 120.0
            },
            {
                "start_time": 9.6431818,
                "end_time": 9.7522727,
                "pitch": 29,
                "velocity": 64,
                "duration": 0.1090909,
                "tempo": 120.0
            },
            {
                "start_time": 9.7522727,
                "end_time": 9.8727273,
                "pitch": 48,
                "velocity": 64,
                "duration": 0.1204545,
                "tempo": 120.0
            },
            {
                "start_time": 9.8727273,
                "end_time": 9.9954545,
                "pitch": 29,
                "velocity": 64,
                "duration": 0.1227273,
                "tempo": 120.0
            },
            {
                "start_time": 9.9954545,
                "end_time": 10.1045455,
                "pitch": 29,
                "velocity": 64,
                "duration": 0.1090909,
                "tempo": 120.0
            },
            {
                "start_time": 10.1045455,
                "end_time": 10.225,
                "pitch": 29,
                "velocity": 64,
                "duration": 0.1204545,
                "tempo": 120.0
            },
            {
                "start_time": 10.225,
                "end_time": 10.3454545,
                "pitch": 47,
                "velocity": 64,
                "duration": 0.1204545,
                "tempo": 120.0
            },
            {
                "start_time": 10.3454545,
                "end_time": 10.4568182,
                "pitch": 29,
                "velocity": 64,
                "duration": 0.1113636,
                "tempo": 120.0
            },
            {
                "start_time": 10.4568182,
                "end_time": 10.575,
                "pitch": 45,
                "velocity": 64,
                "duration": 0.1181818,
                "tempo": 120.0
            },
            {
                "start_time": 10.575,
                "end_time": 10.6931818,
                "pitch": 29,
                "velocity": 64,
                "duration": 0.1181818,
                "tempo": 120.0
            },
            {
                "start_time": 10.6931818,
                "end_time": 10.8,
                "pitch": 29,
                "velocity": 64,
                "duration": 0.1068182,
                "tempo": 120.0
            },
            {
                "start_time": 10.8,
                "end_time": 10.9181818,
                "pitch": 29,
                "velocity": 64,
                "duration": 0.1181818,
                "tempo": 120.0
            },
            {
                "start_time": 10.9181818,
                "end_time": 11.0386364,
                "pitch": 48,
                "velocity": 64,
                "duration": 0.1204545,
                "tempo": 120.0
            },
            {
                "start_time": 11.0386364,
                "end_time": 11.15,
                "pitch": 29,
                "velocity": 64,
                "duration": 0.1113636,
                "tempo": 120.0
            },
            {
                "start_time": 11.1590909,
                "end_time": 11.2704545,
                "pitch": 45,
                "velocity": 64,
                "duration": 0.1113636,
                "tempo": 120.0
            },
            {
                "start_time": 11.2704545,
                "end_time": 11.3909091,
                "pitch": 33,
                "velocity": 64,
                "duration": 0.1204545,
                "tempo": 120.0
            },
            {
                "start_time": 11.3909091,
                "end_time": 11.5,
                "pitch": 33,
                "velocity": 64,
                "duration": 0.1090909,
                "tempo": 120.0
            },
            {
                "start_time": 11.5,
                "end_time": 11.6227273,
                "pitch": 33,
                "velocity": 64,
                "duration": 0.1227273,
                "tempo": 120.0
            },
            {
                "start_time": 11.6227273,
                "end_time": 11.7431818,
                "pitch": 45,
                "velocity": 64,
                "duration": 0.1204545,
                "tempo": 120.0
            },
            {
                "start_time": 11.7431818,
                "end_time": 11.8522727,
                "pitch": 33,
                "velocity": 64,
                "duration": 0.1090909,
                "tempo": 120.0
            },
            {
                "start_time": 11.8522727,
                "end_time": 11.9704545,
                "pitch": 33,
                "velocity": 64,
                "duration": 0.1181818,
                "tempo": 120.0
            },
            {
                "start_time": 11.9704545,
                "end_time": 12.0886364,
                "pitch": 33,
                "velocity": 64,
                "duration": 0.1181818,
                "tempo": 120.0
            },
            {
                "start_time": 12.0886364,
                "end_time": 12.1954545,
                "pitch": 45,
                "velocity": 64,
                "duration": 0.1068182,
                "tempo": 120.0
            },
            {
                "start_time": 12.1954545,
                "end_time": 12.3136364,
                "pitch": 33,
                "velocity": 64,
                "duration": 0.1181818,
                "tempo": 120.0
            },
            {
                "start_time": 12.3136364,
                "end_time": 12.4340909,
                "pitch": 33,
                "velocity": 64,
                "duration": 0.1204545,
                "tempo": 120.0
            },
            {
                "start_time": 12.4340909,
                "end_time": 12.5454545,
                "pitch": 45,
                "velocity": 64,
                "duration": 0.1113636,
                "tempo": 120.0
            },
            {
                "start_time": 12.6659091,
                "end_time": 12.7863636,
                "pitch": 33,
                "velocity": 64,
                "duration": 0.1204545,
                "tempo": 120.0
            },
            {
                "start_time": 12.8977273,
                "end_time": 13.0181818,
                "pitch": 33,
                "velocity": 64,
                "duration": 0.1204545,
                "tempo": 120.0
            },
            {
                "start_time": 13.0181818,
                "end_time": 13.1386364,
                "pitch": 45,
                "velocity": 64,
                "duration": 0.1204545,
                "tempo": 120.0
            },
            {
                "start_time": 13.1386364,
                "end_time": 13.25,
                "pitch": 33,
                "velocity": 64,
                "duration": 0.1113636,
                "tempo": 120.0
            },
            {
                "start_time": 13.25,
                "end_time": 13.3659091,
                "pitch": 33,
                "velocity": 64,
                "duration": 0.1159091,
                "tempo": 120.0
            },
            {
                "start_time": 13.3659091,
                "end_time": 13.4840909,
                "pitch": 33,
                "velocity": 64,
                "duration": 0.1181818,
                "tempo": 120.0
            },
            {
                "start_time": 13.4840909,
                "end_time": 13.5931818,
                "pitch": 45,
                "velocity": 64,
                "duration": 0.1090909,
                "tempo": 120.0
            },
            {
                "start_time": 13.5931818,
                "end_time": 13.7113636,
                "pitch": 33,
                "velocity": 64,
                "duration": 0.1181818,
                "tempo": 120.0
            },
            {
                "start_time": 13.7113636,
                "end_time": 13.8318182,
                "pitch": 33,
                "velocity": 64,
                "duration": 0.1204545,
                "tempo": 120.0
            },
            {
                "start_time": 13.8318182,
                "end_time": 13.9409091,
                "pitch": 33,
                "velocity": 64,
                "duration": 0.1090909,
                "tempo": 120.0
            },
            {
                "start_time": 13.9409091,
                "end_time": 14.0613636,
                "pitch": 45,
                "velocity": 64,
                "duration": 0.1204545,
                "tempo": 120.0
            },
            {
                "start_time": 14.0613636,
                "end_time": 14.1818182,
                "pitch": 33,
                "velocity": 64,
                "duration": 0.1204545,
                "tempo": 120.0
            },
            {
                "start_time": 14.1818182,
                "end_time": 14.2931818,
                "pitch": 33,
                "velocity": 64,
                "duration": 0.1113636,
                "tempo": 120.0
            },
            {
                "start_time": 14.2931818,
                "end_time": 14.4136364,
                "pitch": 45,
                "velocity": 64,
                "duration": 0.1204545,
                "tempo": 120.0
            },
            {
                "start_time": 14.5340909,
                "end_time": 14.6454545,
                "pitch": 33,
                "velocity": 64,
                "duration": 0.1113636,
                "tempo": 120.0
            },
            {
                "start_time": 14.7636364,
                "end_time": 14.8818182,
                "pitch": 33,
                "velocity": 64,
                "duration": 0.1181818,
                "tempo": 120.0
            },
            {
                "start_time": 14.8818182,
                "end_time": 14.9886364,
                "pitch": 45,
                "velocity": 64,
                "duration": 0.1068182,
                "tempo": 120.0
            },
            {
                "start_time": 14.9886364,
                "end_time": 15.1068182,
                "pitch": 29,
                "velocity": 64,
                "duration": 0.1181818,
                "tempo": 120.0
            },
            {
                "start_time": 15.1068182,
                "end_time": 15.2272727,
                "pitch": 29,
                "velocity": 64,
                "duration": 0.1204545,
                "tempo": 120.0
            },
            {
                "start_time": 15.2272727,
                "end_time": 15.3386364,
                "pitch": 29,
                "velocity": 64,
                "duration": 0.1113636,
                "tempo": 120.0
            },
            {
                "start_time": 15.4590909,
                "end_time": 15.5795455,
                "pitch": 29,
                "velocity": 64,
                "duration": 0.1204545,
                "tempo": 120.0
            },
            {
                "start_time": 15.5795455,
                "end_time": 15.6886364,
                "pitch": 29,
                "velocity": 64,
                "duration": 0.1090909,
                "tempo": 120.0
            },
            {
                "start_time": 15.6886364,
                "end_time": 15.8113636,
                "pitch": 29,
                "velocity": 64,
                "duration": 0.1227273,
                "tempo": 120.0
            },
            {
                "start_time": 15.8113636,
                "end_time": 15.9318182,
                "pitch": 48,
                "velocity": 64,
                "duration": 0.1204545,
                "tempo": 120.0
            },
            {
                "start_time": 15.9318182,
                "end_time": 16.0409091,
                "pitch": 29,
                "velocity": 64,
                "duration": 0.1090909,
                "tempo": 120.0
            },
            {
                "start_time": 16.0409091,
                "end_time": 16.1590909,
                "pitch": 29,
                "velocity": 64,
                "duration": 0.1181818,
                "tempo": 120.0
            },
            {
                "start_time": 16.1590909,
                "end_time": 16.2772727,
                "pitch": 29,
                "velocity": 64,
                "duration": 0.1181818,
                "tempo": 120.0
            },
            {
                "start_time": 16.2772727,
                "end_time": 16.3840909,
                "pitch": 47,
                "velocity": 64,
                "duration": 0.1068182,
                "tempo": 120.0
            },
            {
                "start_time": 16.3840909,
                "end_time": 16.5022727,
                "pitch": 29,
                "velocity": 64,
                "duration": 0.1181818,
                "tempo": 120.0
            },
            {
                "start_time": 16.5022727,
                "end_time": 16.6227273,
                "pitch": 48,
                "velocity": 64,
                "duration": 0.1204545,
                "tempo": 120.0
            },
            {
                "start_time": 16.6227273,
                "end_time": 16.7340909,
                "pitch": 29,
                "velocity": 64,
                "duration": 0.1113636,
                "tempo": 120.0
            },
            {
                "start_time": 16.7340909,
                "end_time": 16.8545455,
                "pitch": 50,
                "velocity": 64,
                "duration": 0.1204545,
                "tempo": 120.0
            },
            {
                "start_time": 16.8545455,
                "end_time": 16.975,
                "pitch": 29,
                "velocity": 64,
                "duration": 0.1204545,
                "tempo": 120.0
            },
            {
                "start_time": 16.975,
                "end_time": 17.0863636,
                "pitch": 29,
                "velocity": 64,
                "duration": 0.1113636,
                "tempo": 120.0
            },
            {
                "start_time": 17.0863636,
                "end_time": 17.2068182,
                "pitch": 29,
                "velocity": 64,
                "duration": 0.1204545,
                "tempo": 120.0
            },
            {
                "start_time": 17.2068182,
                "end_time": 17.3272727,
                "pitch": 48,
                "velocity": 64,
                "duration": 0.1204545,
                "tempo": 120.0
            },
            {
                "start_time": 17.3272727,
                "end_time": 17.4386364,
                "pitch": 29,
                "velocity": 64,
                "duration": 0.1113636,
                "tempo": 120.0
            },
            {
                "start_time": 17.4386364,
                "end_time": 17.5545455,
                "pitch": 29,
                "velocity": 64,
                "duration": 0.1159091,
                "tempo": 120.0
            },
            {
                "start_time": 17.5545455,
                "end_time": 17.6727273,
                "pitch": 29,
                "velocity": 64,
                "duration": 0.1181818,
                "tempo": 120.0
            },
            {
                "start_time": 17.6727273,
                "end_time": 17.7818182,
                "pitch": 47,
                "velocity": 64,
                "duration": 0.1090909,
                "tempo": 120.0
            },
            {
                "start_time": 17.7818182,
                "end_time": 17.9,
                "pitch": 29,
                "velocity": 64,
                "duration": 0.1181818,
                "tempo": 120.0
            },
            {
                "start_time": 17.9,
                "end_time": 18.0204545,
                "pitch": 45,
                "velocity": 64,
                "duration": 0.1204545,
                "tempo": 120.0
            },
            {
                "start_time": 18.0204545,
                "end_time": 18.1295455,
                "pitch": 29,
                "velocity": 64,
                "duration": 0.1090909,
                "tempo": 120.0
            },
            {
                "start_time": 18.1295455,
                "end_time": 18.25,
                "pitch": 29,
                "velocity": 64,
                "duration": 0.1204545,
                "tempo": 120.0
            },
            {
                "start_time": 18.25,
                "end_time": 18.3704545,
                "pitch": 29,
                "velocity": 64,
                "duration": 0.1204545,
                "tempo": 120.0
            },
            {
                "start_time": 18.3704545,
                "end_time": 18.4818182,
                "pitch": 48,
                "velocity": 64,
                "duration": 0.1113636,
                "tempo": 120.0
            },
            {
                "start_time": 18.4818182,
                "end_time": 18.6022727,
                "pitch": 29,
                "velocity": 64,
                "duration": 0.1204545,
                "tempo": 120.0
            },
            {
                "start_time": 18.6022727,
                "end_time": 18.7227273,
                "pitch": 35,
                "velocity": 64,
                "duration": 0.1204545,
                "tempo": 120.0
            },
            {
                "start_time": 18.7227273,
                "end_time": 18.8340909,
                "pitch": 30,
                "velocity": 64,
                "duration": 0.1113636,
                "tempo": 120.0
            },
            {
                "start_time": 18.8340909,
                "end_time": 18.9522727,
                "pitch": 33,
                "velocity": 64,
                "duration": 0.1181818,
                "tempo": 120.0
            },
            {
                "start_time": 18.9522727,
                "end_time": 19.0704545,
                "pitch": 35,
                "velocity": 64,
                "duration": 0.1181818,
                "tempo": 120.0
            },
            {
                "start_time": 19.1772727,
                "end_time": 19.2954545,
                "pitch": 35,
                "velocity": 64,
                "duration": 0.1181818,
                "tempo": 120.0
            },
            {
                "start_time": 19.2954545,
                "end_time": 19.4159091,
                "pitch": 30,
                "velocity": 64,
                "duration": 0.1204545,
                "tempo": 120.0
            },
            {
                "start_time": 19.4159091,
                "end_time": 19.5272727,
                "pitch": 33,
                "velocity": 64,
                "duration": 0.1113636,
                "tempo": 120.0
            },
            {
                "start_time": 19.5272727,
                "end_time": 19.6477273,
                "pitch": 35,
                "velocity": 64,
                "duration": 0.1204545,
                "tempo": 120.0
            },
            {
                "start_time": 19.7681818,
                "end_time": 19.8772727,
                "pitch": 35,
                "velocity": 64,
                "duration": 0.1090909,
                "tempo": 120.0
            },
            {
                "start_time": 19.9977273,
                "end_time": 20.1204545,
                "pitch": 35,
                "velocity": 64,
                "duration": 0.1227273,
                "tempo": 120.0
            },
            {
                "start_time": 20.1204545,
                "end_time": 20.3477273,
                "pitch": 35,
                "velocity": 64,
                "duration": 0.2272727,
                "tempo": 120.0
            },
            {
                "start_time": 20.3477273,
                "end_time": 20.4659091,
                "pitch": 35,
                "velocity": 64,
                "duration": 0.1181818,
                "tempo": 120.0
            },
            {
                "start_time": 20.4659091,
                "end_time": 20.5727273,
                "pitch": 35,
                "velocity": 64,
                "duration": 0.1068182,
                "tempo": 120.0
            },
            {
                "start_time": 20.5727273,
                "end_time": 20.6909091,
                "pitch": 35,
                "velocity": 64,
                "duration": 0.1181818,
                "tempo": 120.0
            },
            {
                "start_time": 20.6909091,
                "end_time": 20.8113636,
                "pitch": 35,
                "velocity": 64,
                "duration": 0.1204545,
                "tempo": 120.0
            },
            {
                "start_time": 20.8113636,
                "end_time": 20.9227273,
                "pitch": 35,
                "velocity": 64,
                "duration": 0.1113636,
                "tempo": 120.0
            },
            {
                "start_time": 20.9227273,
                "end_time": 21.0431818,
                "pitch": 35,
                "velocity": 64,
                "duration": 0.1204545,
                "tempo": 120.0
            },
            {
                "start_time": 21.0431818,
                "end_time": 21.1636364,
                "pitch": 35,
                "velocity": 64,
                "duration": 0.1204545,
                "tempo": 120.0
            },
            {
                "start_time": 21.1636364,
                "end_time": 21.275,
                "pitch": 35,
                "velocity": 64,
                "duration": 0.1113636,
                "tempo": 120.0
            },
            {
                "start_time": 21.275,
                "end_time": 21.3954545,
                "pitch": 33,
                "velocity": 64,
                "duration": 0.1204545,
                "tempo": 120.0
            },
            {
                "start_time": 21.3954545,
                "end_time": 21.5159091,
                "pitch": 32,
                "velocity": 64,
                "duration": 0.1204545,
                "tempo": 120.0
            },
            {
                "start_time": 21.5159091,
                "end_time": 21.625,
                "pitch": 29,
                "velocity": 64,
                "duration": 0.1090909,
                "tempo": 120.0
            },
            {
                "start_time": 21.625,
                "end_time": 21.7431818,
                "pitch": 28,
                "velocity": 64,
                "duration": 0.1181818,
                "tempo": 120.0
            },
            {
                "start_time": 21.7431818,
                "end_time": 21.8613636,
                "pitch": 26,
                "velocity": 64,
                "duration": 0.1181818,
                "tempo": 120.0
            },
            {
                "start_time": 21.8613636,
                "end_time": 21.9704545,
                "pitch": 23,
                "velocity": 64,
                "duration": 0.1090909,
                "tempo": 120.0
            },
            {
                "start_time": 22.0886364,
                "end_time": 22.3181818,
                "pitch": 28,
                "velocity": 64,
                "duration": 0.2295455,
                "tempo": 120.0
            }
        ],
        "Electric Piano 1": [
            {
                "start_time": 1.1454545,
                "end_time": 1.2659091,
                "pitch": 67,
                "velocity": 80,
                "duration": 0.1204545,
                "tempo": 120.0
            },
            {
                "start_time": 1.2659091,
                "end_time": 1.3772727,
                "pitch": 69,
                "velocity": 80,
                "duration": 0.1113636,
                "tempo": 120.0
            },
            {
                "start_time": 1.3772727,
                "end_time": 1.4977273,
                "pitch": 72,
                "velocity": 80,
                "duration": 0.1204545,
                "tempo": 120.0
            },
            {
                "start_time": 1.4977273,
                "end_time": 1.6181818,
                "pitch": 67,
                "velocity": 80,
                "duration": 0.1204545,
                "tempo": 120.0
            },
            {
                "start_time": 1.6181818,
                "end_time": 1.7272727,
                "pitch": 69,
                "velocity": 80,
                "duration": 0.1090909,
                "tempo": 120.0
            },
            {
                "start_time": 1.7272727,
                "end_time": 1.8477273,
                "pitch": 72,
                "velocity": 80,
                "duration": 0.1204545,
                "tempo": 120.0
            },
            {
                "start_time": 1.8477273,
                "end_time": 1.9681818,
                "pitch": 67,
                "velocity": 80,
                "duration": 0.1204545,
                "tempo": 120.0
            },
            {
                "start_time": 1.9681818,
                "end_time": 2.0795455,
                "pitch": 69,
                "velocity": 80,
                "duration": 0.1113636,
                "tempo": 120.0
            },
            {
                "start_time": 2.0795455,
                "end_time": 2.1977273,
                "pitch": 72,
                "velocity": 80,
                "duration": 0.1181818,
                "tempo": 120.0
            },
            {
                "start_time": 2.1977273,
                "end_time": 2.3159091,
                "pitch": 67,
                "velocity": 80,
                "duration": 0.1181818,
                "tempo": 120.0
            },
            {
                "start_time": 2.3159091,
                "end_time": 2.4227273,
                "pitch": 69,
                "velocity": 80,
                "duration": 0.1068182,
                "tempo": 120.0
            },
            {
                "start_time": 2.4227273,
                "end_time": 2.5409091,
                "pitch": 72,
                "velocity": 80,
                "duration": 0.1181818,
                "tempo": 120.0
            },
            {
                "start_time": 2.5409091,
                "end_time": 2.6613636,
                "pitch": 67,
                "velocity": 80,
                "duration": 0.1204545,
                "tempo": 120.0
            },
            {
                "start_time": 2.6613636,
                "end_time": 2.7727273,
                "pitch": 69,
                "velocity": 80,
                "duration": 0.1113636,
                "tempo": 120.0
            },
            {
                "start_time": 2.8931818,
                "end_time": 3.0136364,
                "pitch": 67,
                "velocity": 80,
                "duration": 0.1204545,
                "tempo": 120.0
            },
            {
                "start_time": 3.0136364,
                "end_time": 3.125,
                "pitch": 67,
                "velocity": 80,
                "duration": 0.1113636,
                "tempo": 120.0
            },
            {
                "start_time": 3.125,
                "end_time": 3.7113636,
                "pitch": 69,
                "velocity": 80,
                "duration": 0.5863636,
                "tempo": 120.0
            },
            {
                "start_time": 4.8727273,
                "end_time": 4.9909091,
                "pitch": 67,
                "velocity": 80,
                "duration": 0.1181818,
                "tempo": 120.0
            },
            {
                "start_time": 4.9909091,
                "end_time": 5.1068182,
                "pitch": 69,
                "velocity": 80,
                "duration": 0.1159091,
                "tempo": 120.0
            },
            {
                "start_time": 5.1068182,
                "end_time": 5.2159091,
                "pitch": 72,
                "velocity": 80,
                "duration": 0.1090909,
                "tempo": 120.0
            },
            {
                "start_time": 5.2159091,
                "end_time": 5.3340909,
                "pitch": 67,
                "velocity": 80,
                "duration": 0.1181818,
                "tempo": 120.0
            },
            {
                "start_time": 5.3340909,
                "end_time": 5.4545455,
                "pitch": 69,
                "velocity": 80,
                "duration": 0.1204545,
                "tempo": 120.0
            },
            {
                "start_time": 5.4545455,
                "end_time": 5.5636364,
                "pitch": 72,
                "velocity": 80,
                "duration": 0.1090909,
                "tempo": 120.0
            },
            {
                "start_time": 5.5636364,
                "end_time": 5.6863636,
                "pitch": 67,
                "velocity": 80,
                "duration": 0.1227273,
                "tempo": 120.0
            },
            {
                "start_time": 5.6863636,
                "end_time": 5.8068182,
                "pitch": 69,
                "velocity": 80,
                "duration": 0.1204545,
                "tempo": 120.0
            },
            {
                "start_time": 5.8068182,
                "end_time": 5.9159091,
                "pitch": 72,
                "velocity": 80,
                "duration": 0.1090909,
                "tempo": 120.0
            },
            {
                "start_time": 5.9159091,
                "end_time": 6.0363636,
                "pitch": 67,
                "velocity": 80,
                "duration": 0.1204545,
                "tempo": 120.0
            },
            {
                "start_time": 6.0363636,
                "end_time": 6.1568182,
                "pitch": 69,
                "velocity": 80,
                "duration": 0.1204545,
                "tempo": 120.0
            },
            {
                "start_time": 6.1568182,
                "end_time": 6.2681818,
                "pitch": 72,
                "velocity": 80,
                "duration": 0.1113636,
                "tempo": 120.0
            },
            {
                "start_time": 6.2681818,
                "end_time": 6.3863636,
                "pitch": 67,
                "velocity": 80,
                "duration": 0.1181818,
                "tempo": 120.0
            },
            {
                "start_time": 6.3863636,
                "end_time": 6.5045455,
                "pitch": 69,
                "velocity": 80,
                "duration": 0.1181818,
                "tempo": 120.0
            },
            {
                "start_time": 6.6113636,
                "end_time": 6.7295455,
                "pitch": 67,
                "velocity": 80,
                "duration": 0.1181818,
                "tempo": 120.0
            },
            {
                "start_time": 6.7295455,
                "end_time": 6.85,
                "pitch": 67,
                "velocity": 80,
                "duration": 0.1204545,
                "tempo": 120.0
            },
            {
                "start_time": 6.85,
                "end_time": 7.4340909,
                "pitch": 69,
                "velocity": 80,
                "duration": 0.5840909,
                "tempo": 120.0
            },
            {
                "start_time": 7.4340909,
                "end_time": 8.3568182,
                "pitch": 53,
                "velocity": 80,
                "duration": 0.9227273,
                "tempo": 120.0
            },
            {
                "start_time": 8.3568182,
                "end_time": 8.8295455,
                "pitch": 57,
                "velocity": 80,
                "duration": 0.4727273,
                "tempo": 120.0
            },
            {
                "start_time": 8.8295455,
                "end_time": 9.0613636,
                "pitch": 53,
                "velocity": 80,
                "duration": 0.2318182,
                "tempo": 120.0
            },
            {
                "start_time": 9.0613636,
                "end_time": 9.2954545,
                "pitch": 57,
                "velocity": 80,
                "duration": 0.2340909,
                "tempo": 120.0
            },
            {
                "start_time": 9.2954545,
                "end_time": 9.7522727,
                "pitch": 57,
                "velocity": 80,
                "duration": 0.4568182,
                "tempo": 120.0
            },
            {
                "start_time": 9.7522727,
                "end_time": 10.225,
                "pitch": 57,
                "velocity": 80,
                "duration": 0.4727273,
                "tempo": 120.0
            },
            {
                "start_time": 10.225,
                "end_time": 10.4568182,
                "pitch": 53,
                "velocity": 80,
                "duration": 0.2318182,
                "tempo": 120.0
            },
            {
                "start_time": 10.4568182,
                "end_time": 10.9181818,
                "pitch": 53,
                "velocity": 80,
                "duration": 0.4613636,
                "tempo": 120.0
            },
            {
                "start_time": 10.9181818,
                "end_time": 11.15,
                "pitch": 57,
                "velocity": 80,
                "duration": 0.2318182,
                "tempo": 120.0
            },
            {
                "start_time": 11.15,
                "end_time": 11.6227273,
                "pitch": 57,
                "velocity": 80,
                "duration": 0.4727273,
                "tempo": 120.0
            },
            {
                "start_time": 11.6227273,
                "end_time": 12.0886364,
                "pitch": 60,
                "velocity": 80,
                "duration": 0.4659091,
                "tempo": 120.0
            },
            {
                "start_time": 12.0886364,
                "end_time": 13.0181818,
                "pitch": 57,
                "velocity": 80,
                "duration": 0.9295455,
                "tempo": 120.0
            },
            {
                "start_time": 13.25,
                "end_time": 13.7113636,
                "pitch": 60,
                "velocity": 80,
                "duration": 0.4613636,
                "tempo": 120.0
            },
            {
                "start_time": 13.7113636,
                "end_time": 13.9409091,
                "pitch": 59,
                "velocity": 80,
                "duration": 0.2295455,
                "tempo": 120.0
            },
            {
                "start_time": 13.9409091,
                "end_time": 14.8818182,
                "pitch": 57,
                "velocity": 80,
                "duration": 0.9409091,
                "tempo": 120.0
            },
            {
                "start_time": 14.8818182,
                "end_time": 15.8113636,
                "pitch": 53,
                "velocity": 80,
                "duration": 0.9295455,
                "tempo": 120.0
            },
            {
                "start_time": 15.8113636,
                "end_time": 16.2772727,
                "pitch": 57,
                "velocity": 80,
                "duration": 0.4659091,
                "tempo": 120.0
            },
            {
                "start_time": 16.2772727,
                "end_time": 16.5022727,
                "pitch": 53,
                "velocity": 80,
                "duration": 0.225,
                "tempo": 120.0
            },
            {
                "start_time": 16.5022727,
                "end_time": 16.7340909,
                "pitch": 57,
                "velocity": 80,
                "duration": 0.2318182,
                "tempo": 120.0
            },
            {
                "start_time": 16.7340909,
                "end_time": 17.2068182,
                "pitch": 57,
                "velocity": 80,
                "duration": 0.4727273,
                "tempo": 120.0
            },
            {
                "start_time": 17.2068182,
                "end_time": 17.6727273,
                "pitch": 57,
                "velocity": 80,
                "duration": 0.4659091,
                "tempo": 120.0
            },
            {
                "start_time": 17.6727273,
                "end_time": 17.9,
                "pitch": 53,
                "velocity": 80,
                "duration": 0.2272727,
                "tempo": 120.0
            },
            {
                "start_time": 17.9,
                "end_time": 18.3704545,
                "pitch": 53,
                "velocity": 80,
                "duration": 0.4704545,
                "tempo": 120.0
            },
            {
                "start_time": 18.3704545,
                "end_time": 18.6022727,
                "pitch": 57,
                "velocity": 80,
                "duration": 0.2318182,
                "tempo": 120.0
            }
        ],
        "Oboe": [
            {
                "start_time": 0.0159091,
                "end_time": 0.2204545,
                "pitch": 69,
                "velocity": 101,
                "duration": 0.2045455,
                "tempo": 120.0
            },
            {
                "start_time": 0.2204545,
                "end_time": 0.3318182,
                "pitch": 72,
                "velocity": 101,
                "duration": 0.1113636,
                "tempo": 120.0
            },
            {
                "start_time": 0.3318182,
                "end_time": 0.4522727,
                "pitch": 69,
                "velocity": 101,
                "duration": 0.1204545,
                "tempo": 120.0
            },
            {
                "start_time": 0.4522727,
                "end_time": 0.5727273,
                "pitch": 74,
                "velocity": 101,
                "duration": 0.1204545,
                "tempo": 120.0
            },
            {
                "start_time": 0.5727273,
                "end_time": 0.6840909,
                "pitch": 69,
                "velocity": 101,
                "duration": 0.1113636,
                "tempo": 120.0
            },
            {
                "start_time": 0.6840909,
                "end_time": 0.8022727,
                "pitch": 75,
                "velocity": 101,
                "duration": 0.1181818,
                "tempo": 120.0
            },
            {
                "start_time": 0.8022727,
                "end_time": 1.8477273,
                "pitch": 74,
                "velocity": 101,
                "duration": 1.0454545,
                "tempo": 120.0
            },
            {
                "start_time": 2.8931818,
                "end_time": 3.0136364,
                "pitch": 72,
                "velocity": 101,
                "duration": 0.1204545,
                "tempo": 120.0
            },
            {
                "start_time": 3.0136364,
                "end_time": 3.125,
                "pitch": 71,
                "velocity": 101,
                "duration": 0.1113636,
                "tempo": 120.0
            },
            {
                "start_time": 3.125,
                "end_time": 3.7113636,
                "pitch": 72,
                "velocity": 101,
                "duration": 0.5863636,
                "tempo": 120.0
            },
            {
                "start_time": 3.7113636,
                "end_time": 3.9363636,
                "pitch": 69,
                "velocity": 101,
                "duration": 0.225,
                "tempo": 120.0
            },
            {
                "start_time": 3.9363636,
                "end_time": 4.0590909,
                "pitch": 72,
                "velocity": 101,
                "duration": 0.1227273,
                "tempo": 120.0
            },
            {
                "start_time": 4.0590909,
                "end_time": 4.1681818,
                "pitch": 69,
                "velocity": 101,
                "duration": 0.1090909,
                "tempo": 120.0
            },
            {
                "start_time": 4.1681818,
                "end_time": 4.2886364,
                "pitch": 74,
                "velocity": 101,
                "duration": 0.1204545,
                "tempo": 120.0
            },
            {
                "start_time": 4.2886364,
                "end_time": 4.4090909,
                "pitch": 69,
                "velocity": 101,
                "duration": 0.1204545,
                "tempo": 120.0
            },
            {
                "start_time": 4.4090909,
                "end_time": 4.5204545,
                "pitch": 75,
                "velocity": 101,
                "duration": 0.1113636,
                "tempo": 120.0
            },
            {
                "start_time": 4.5204545,
                "end_time": 5.5636364,
                "pitch": 74,
                "velocity": 101,
                "duration": 1.0431818,
                "tempo": 120.0
            },
            {
                "start_time": 6.6113636,
                "end_time": 6.7295455,
                "pitch": 72,
                "velocity": 101,
                "duration": 0.1181818,
                "tempo": 120.0
            },
            {
                "start_time": 6.7295455,
                "end_time": 6.85,
                "pitch": 71,
                "velocity": 101,
                "duration": 0.1204545,
                "tempo": 120.0
            },
            {
                "start_time": 6.85,
                "end_time": 7.4340909,
                "pitch": 72,
                "velocity": 101,
                "duration": 0.5840909,
                "tempo": 120.0
            },
            {
                "start_time": 11.15,
                "end_time": 11.6227273,
                "pitch": 64,
                "velocity": 80,
                "duration": 0.4727273,
                "tempo": 120.0
            },
            {
                "start_time": 11.6227273,
                "end_time": 12.0886364,
                "pitch": 67,
                "velocity": 80,
                "duration": 0.4659091,
                "tempo": 120.0
            },
            {
                "start_time": 12.0886364,
                "end_time": 13.0181818,
                "pitch": 66,
                "velocity": 80,
                "duration": 0.9295455,
                "tempo": 120.0
            },
            {
                "start_time": 13.25,
                "end_time": 13.7113636,
                "pitch": 67,
                "velocity": 80,
                "duration": 0.4613636,
                "tempo": 120.0
            },
            {
                "start_time": 13.7113636,
                "end_time": 13.9409091,
                "pitch": 66,
                "velocity": 80,
                "duration": 0.2295455,
                "tempo": 120.0
            },
            {
                "start_time": 13.9409091,
                "end_time": 14.4136364,
                "pitch": 64,
                "velocity": 80,
                "duration": 0.4727273,
                "tempo": 120.0
            },
            {
                "start_time": 14.4136364,
                "end_time": 14.5340909,
                "pitch": 62,
                "velocity": 80,
                "duration": 0.1204545,
                "tempo": 120.0
            },
            {
                "start_time": 14.5340909,
                "end_time": 14.6454545,
                "pitch": 64,
                "velocity": 80,
                "duration": 0.1113636,
                "tempo": 120.0
            },
            {
                "start_time": 14.6454545,
                "end_time": 14.7636364,
                "pitch": 65,
                "velocity": 80,
                "duration": 0.1181818,
                "tempo": 120.0
            },
            {
                "start_time": 14.7636364,
                "end_time": 14.8818182,
                "pitch": 64,
                "velocity": 80,
                "duration": 0.1181818,
                "tempo": 120.0
            },
            {
                "start_time": 19.7681818,
                "end_time": 19.8772727,
                "pitch": 66,
                "velocity": 101,
                "duration": 0.1090909,
                "tempo": 120.0
            },
            {
                "start_time": 19.8772727,
                "end_time": 19.9977273,
                "pitch": 67,
                "velocity": 101,
                "duration": 0.1204545,
                "tempo": 120.0
            },
            {
                "start_time": 19.9977273,
                "end_time": 20.1204545,
                "pitch": 69,
                "velocity": 101,
                "duration": 0.1227273,
                "tempo": 120.0
            },
            {
                "start_time": 20.1204545,
                "end_time": 20.2295455,
                "pitch": 67,
                "velocity": 101,
                "duration": 0.1090909,
                "tempo": 120.0
            },
            {
                "start_time": 20.2295455,
                "end_time": 20.3477273,
                "pitch": 71,
                "velocity": 101,
                "duration": 0.1181818,
                "tempo": 120.0
            },
            {
                "start_time": 20.3477273,
                "end_time": 20.4659091,
                "pitch": 69,
                "velocity": 101,
                "duration": 0.1181818,
                "tempo": 120.0
            },
            {
                "start_time": 20.4659091,
                "end_time": 20.5727273,
                "pitch": 71,
                "velocity": 101,
                "duration": 0.1068182,
                "tempo": 120.0
            },
            {
                "start_time": 20.5727273,
                "end_time": 20.6909091,
                "pitch": 69,
                "velocity": 101,
                "duration": 0.1181818,
                "tempo": 120.0
            },
            {
                "start_time": 20.6909091,
                "end_time": 20.8113636,
                "pitch": 68,
                "velocity": 101,
                "duration": 0.1204545,
                "tempo": 120.0
            },
            {
                "start_time": 20.8113636,
                "end_time": 20.9227273,
                "pitch": 65,
                "velocity": 101,
                "duration": 0.1113636,
                "tempo": 120.0
            },
            {
                "start_time": 20.9227273,
                "end_time": 21.0431818,
                "pitch": 64,
                "velocity": 101,
                "duration": 0.1204545,
                "tempo": 120.0
            },
            {
                "start_time": 21.0431818,
                "end_time": 21.1636364,
                "pitch": 62,
                "velocity": 101,
                "duration": 0.1204545,
                "tempo": 120.0
            },
            {
                "start_time": 21.1636364,
                "end_time": 21.275,
                "pitch": 59,
                "velocity": 101,
                "duration": 0.1113636,
                "tempo": 120.0
            },
            {
                "start_time": 21.275,
                "end_time": 21.3954545,
                "pitch": 57,
                "velocity": 101,
                "duration": 0.1204545,
                "tempo": 120.0
            },
            {
                "start_time": 21.3954545,
                "end_time": 21.5159091,
                "pitch": 56,
                "velocity": 101,
                "duration": 0.1204545,
                "tempo": 120.0
            },
            {
                "start_time": 21.5159091,
                "end_time": 21.625,
                "pitch": 53,
                "velocity": 101,
                "duration": 0.1090909,
                "tempo": 120.0
            },
            {
                "start_time": 21.625,
                "end_time": 21.7431818,
                "pitch": 52,
                "velocity": 101,
                "duration": 0.1181818,
                "tempo": 120.0
            },
            {
                "start_time": 21.7431818,
                "end_time": 21.8613636,
                "pitch": 50,
                "velocity": 101,
                "duration": 0.1181818,
                "tempo": 120.0
            },
            {
                "start_time": 21.8613636,
                "end_time": 21.9704545,
                "pitch": 59,
                "velocity": 101,
                "duration": 0.1090909,
                "tempo": 120.0
            },
            {
                "start_time": 22.0886364,
                "end_time": 22.3181818,
                "pitch": 64,
                "velocity": 101,
                "duration": 0.2295455,
                "tempo": 120.0
            }
        ],
        "Violin": [
            {
                "start_time": 18.6022727,
                "end_time": 18.7227273,
                "pitch": 83,
                "velocity": 127,
                "duration": 0.1204545,
                "tempo": 120.0
            },
            {
                "start_time": 18.7227273,
                "end_time": 18.8340909,
                "pitch": 81,
                "velocity": 127,
                "duration": 0.1113636,
                "tempo": 120.0
            },
            {
                "start_time": 18.8340909,
                "end_time": 18.9522727,
                "pitch": 83,
                "velocity": 127,
                "duration": 0.1181818,
                "tempo": 120.0
            },
            {
                "start_time": 18.9522727,
                "end_time": 19.0704545,
                "pitch": 84,
                "velocity": 127,
                "duration": 0.1181818,
                "tempo": 120.0
            },
            {
                "start_time": 19.0704545,
                "end_time": 19.2954545,
                "pitch": 83,
                "velocity": 127,
                "duration": 0.225,
                "tempo": 120.0
            },
            {
                "start_time": 19.2954545,
                "end_time": 19.5272727,
                "pitch": 81,
                "velocity": 127,
                "duration": 0.2318182,
                "tempo": 120.0
            },
            {
                "start_time": 19.5272727,
                "end_time": 19.6477273,
                "pitch": 83,
                "velocity": 127,
                "duration": 0.1204545,
                "tempo": 120.0
            }
        ],
        "Harpsichord": [
            {
                "start_time": 7.4340909,
                "end_time": 7.5545455,
                "pitch": 76,
                "velocity": 127,
                "duration": 0.1204545,
                "tempo": 120.0
            },
            {
                "start_time": 7.5545455,
                "end_time": 7.6636364,
                "pitch": 69,
                "velocity": 80,
                "duration": 0.1090909,
                "tempo": 120.0
            },
            {
                "start_time": 7.6636364,
                "end_time": 7.7818182,
                "pitch": 65,
                "velocity": 80,
                "duration": 0.1181818,
                "tempo": 120.0
            },
            {
                "start_time": 7.7818182,
                "end_time": 7.9,
                "pitch": 76,
                "velocity": 127,
                "duration": 0.1181818,
                "tempo": 120.0
            },
            {
                "start_time": 7.9,
                "end_time": 8.0090909,
                "pitch": 69,
                "velocity": 80,
                "duration": 0.1090909,
                "tempo": 120.0
            },
            {
                "start_time": 8.0090909,
                "end_time": 8.125,
                "pitch": 65,
                "velocity": 80,
                "duration": 0.1159091,
                "tempo": 120.0
            },
            {
                "start_time": 8.125,
                "end_time": 8.2454545,
                "pitch": 76,
                "velocity": 127,
                "duration": 0.1204545,
                "tempo": 120.0
            },
            {
                "start_time": 8.2454545,
                "end_time": 8.3568182,
                "pitch": 69,
                "velocity": 80,
                "duration": 0.1113636,
                "tempo": 120.0
            },
            {
                "start_time": 8.3568182,
                "end_time": 8.4772727,
                "pitch": 74,
                "velocity": 127,
                "duration": 0.1204545,
                "tempo": 120.0
            },
            {
                "start_time": 8.4772727,
                "end_time": 8.5977273,
                "pitch": 69,
                "velocity": 80,
                "duration": 0.1204545,
                "tempo": 120.0
            },
            {
                "start_time": 8.5977273,
                "end_time": 8.7090909,
                "pitch": 65,
                "velocity": 80,
                "duration": 0.1113636,
                "tempo": 120.0
            },
            {
                "start_time": 8.7090909,
                "end_time": 8.8295455,
                "pitch": 74,
                "velocity": 127,
                "duration": 0.1204545,
                "tempo": 120.0
            },
            {
                "start_time": 8.8295455,
                "end_time": 8.95,
                "pitch": 69,
                "velocity": 80,
                "duration": 0.1204545,
                "tempo": 120.0
            },
            {
                "start_time": 8.95,
                "end_time": 9.0613636,
                "pitch": 65,
                "velocity": 80,
                "duration": 0.1113636,
                "tempo": 120.0
            },
            {
                "start_time": 9.0613636,
                "end_time": 9.1772727,
                "pitch": 74,
                "velocity": 127,
                "duration": 0.1159091,
                "tempo": 120.0
            },
            {
                "start_time": 9.1772727,
                "end_time": 9.2954545,
                "pitch": 69,
                "velocity": 80,
                "duration": 0.1181818,
                "tempo": 120.0
            },
            {
                "start_time": 9.2954545,
                "end_time": 9.4045455,
                "pitch": 76,
                "velocity": 127,
                "duration": 0.1090909,
                "tempo": 120.0
            },
            {
                "start_time": 9.4045455,
                "end_time": 9.5227273,
                "pitch": 69,
                "velocity": 80,
                "duration": 0.1181818,
                "tempo": 120.0
            },
            {
                "start_time": 9.5227273,
                "end_time": 9.6431818,
                "pitch": 65,
                "velocity": 80,
                "duration": 0.1204545,
                "tempo": 120.0
            },
            {
                "start_time": 9.6431818,
                "end_time": 9.7522727,
                "pitch": 76,
                "velocity": 127,
                "duration": 0.1090909,
                "tempo": 120.0
            },
            {
                "start_time": 9.7522727,
                "end_time": 9.8727273,
                "pitch": 69,
                "velocity": 80,
                "duration": 0.1204545,
                "tempo": 120.0
            },
            {
                "start_time": 9.8727273,
                "end_time": 9.9954545,
                "pitch": 65,
                "velocity": 80,
                "duration": 0.1227273,
                "tempo": 120.0
            },
            {
                "start_time": 9.9954545,
                "end_time": 10.1045455,
                "pitch": 76,
                "velocity": 127,
                "duration": 0.1090909,
                "tempo": 120.0
            },
            {
                "start_time": 10.1045455,
                "end_time": 10.225,
                "pitch": 69,
                "velocity": 80,
                "duration": 0.1204545,
                "tempo": 120.0
            },
            {
                "start_time": 10.225,
                "end_time": 10.3454545,
                "pitch": 74,
                "velocity": 127,
                "duration": 0.1204545,
                "tempo": 120.0
            },
            {
                "start_time": 10.3454545,
                "end_time": 10.4568182,
                "pitch": 69,
                "velocity": 80,
                "duration": 0.1113636,
                "tempo": 120.0
            },
            {
                "start_time": 10.4568182,
                "end_time": 10.575,
                "pitch": 65,
                "velocity": 80,
                "duration": 0.1181818,
                "tempo": 120.0
            },
            {
                "start_time": 10.575,
                "end_time": 10.6931818,
                "pitch": 74,
                "velocity": 127,
                "duration": 0.1181818,
                "tempo": 120.0
            },
            {
                "start_time": 10.6931818,
                "end_time": 10.8,
                "pitch": 69,
                "velocity": 80,
                "duration": 0.1068182,
                "tempo": 120.0
            },
            {
                "start_time": 10.8,
                "end_time": 10.9181818,
                "pitch": 65,
                "velocity": 80,
                "duration": 0.1181818,
                "tempo": 120.0
            },
            {
                "start_time": 10.9181818,
                "end_time": 11.0386364,
                "pitch": 74,
                "velocity": 127,
                "duration": 0.1204545,
                "tempo": 120.0
            },
            {
                "start_time": 11.0386364,
                "end_time": 11.15,
                "pitch": 69,
                "velocity": 80,
                "duration": 0.1113636,
                "tempo": 120.0
            },
            {
                "start_time": 14.8818182,
                "end_time": 14.9886364,
                "pitch": 76,
                "velocity": 127,
                "duration": 0.1068182,
                "tempo": 120.0
            },
            {
                "start_time": 14.9886364,
                "end_time": 15.1068182,
                "pitch": 69,
                "velocity": 80,
                "duration": 0.1181818,
                "tempo": 120.0
            },
            {
                "start_time": 15.1068182,
                "end_time": 15.2272727,
                "pitch": 65,
                "velocity": 80,
                "duration": 0.1204545,
                "tempo": 120.0
            },
            {
                "start_time": 15.2272727,
                "end_time": 15.3386364,
                "pitch": 76,
                "velocity": 127,
                "duration": 0.1113636,
                "tempo": 120.0
            },
            {
                "start_time": 15.3386364,
                "end_time": 15.4590909,
                "pitch": 69,
                "velocity": 80,
                "duration": 0.1204545,
                "tempo": 120.0
            },
            {
                "start_time": 15.4590909,
                "end_time": 15.5795455,
                "pitch": 65,
                "velocity": 80,
                "duration": 0.1204545,
                "tempo": 120.0
            },
            {
                "start_time": 15.5795455,
                "end_time": 15.6886364,
                "pitch": 76,
                "velocity": 127,
                "duration": 0.1090909,
                "tempo": 120.0
            },
            {
                "start_time": 15.6886364,
                "end_time": 15.8113636,
                "pitch": 69,
                "velocity": 80,
                "duration": 0.1227273,
                "tempo": 120.0
            },
            {
                "start_time": 15.8113636,
                "end_time": 15.9318182,
                "pitch": 74,
                "velocity": 127,
                "duration": 0.1204545,
                "tempo": 120.0
            },
            {
                "start_time": 15.9318182,
                "end_time": 16.0409091,
                "pitch": 69,
                "velocity": 80,
                "duration": 0.1090909,
                "tempo": 120.0
            },
            {
                "start_time": 16.0409091,
                "end_time": 16.1590909,
                "pitch": 65,
                "velocity": 80,
                "duration": 0.1181818,
                "tempo": 120.0
            },
            {
                "start_time": 16.1590909,
                "end_time": 16.2772727,
                "pitch": 74,
                "velocity": 127,
                "duration": 0.1181818,
                "tempo": 120.0
            },
            {
                "start_time": 16.2772727,
                "end_time": 16.3840909,
                "pitch": 69,
                "velocity": 80,
                "duration": 0.1068182,
                "tempo": 120.0
            },
            {
                "start_time": 16.3840909,
                "end_time": 16.5022727,
                "pitch": 65,
                "velocity": 80,
                "duration": 0.1181818,
                "tempo": 120.0
            },
            {
                "start_time": 16.5022727,
                "end_time": 16.6227273,
                "pitch": 74,
                "velocity": 127,
                "duration": 0.1204545,
                "tempo": 120.0
            },
            {
                "start_time": 16.6227273,
                "end_time": 16.7340909,
                "pitch": 69,
                "velocity": 80,
                "duration": 0.1113636,
                "tempo": 120.0
            },
            {
                "start_time": 16.7340909,
                "end_time": 16.8545455,
                "pitch": 76,
                "velocity": 127,
                "duration": 0.1204545,
                "tempo": 120.0
            },
            {
                "start_time": 16.8545455,
                "end_time": 16.975,
                "pitch": 69,
                "velocity": 80,
                "duration": 0.1204545,
                "tempo": 120.0
            },
            {
                "start_time": 16.975,
                "end_time": 17.0863636,
                "pitch": 65,
                "velocity": 80,
                "duration": 0.1113636,
                "tempo": 120.0
            },
            {
                "start_time": 17.0863636,
                "end_time": 17.2068182,
                "pitch": 76,
                "velocity": 127,
                "duration": 0.1204545,
                "tempo": 120.0
            },
            {
                "start_time": 17.2068182,
                "end_time": 17.3272727,
                "pitch": 69,
                "velocity": 80,
                "duration": 0.1204545,
                "tempo": 120.0
            },
            {
                "start_time": 17.3272727,
                "end_time": 17.4386364,
                "pitch": 65,
                "velocity": 80,
                "duration": 0.1113636,
                "tempo": 120.0
            },
            {
                "start_time": 17.4386364,
                "end_time": 17.5545455,
                "pitch": 76,
                "velocity": 127,
                "duration": 0.1159091,
                "tempo": 120.0
            },
            {
                "start_time": 17.5545455,
                "end_time": 17.6727273,
                "pitch": 69,
                "velocity": 80,
                "duration": 0.1181818,
                "tempo": 120.0
            },
            {
                "start_time": 17.6727273,
                "end_time": 17.7818182,
                "pitch": 74,
                "velocity": 127,
                "duration": 0.1090909,
                "tempo": 120.0
            },
            {
                "start_time": 17.7818182,
                "end_time": 17.9,
                "pitch": 69,
                "velocity": 80,
                "duration": 0.1181818,
                "tempo": 120.0
            },
            {
                "start_time": 17.9,
                "end_time": 18.0204545,
                "pitch": 65,
                "velocity": 80,
                "duration": 0.1204545,
                "tempo": 120.0
            },
            {
                "start_time": 18.0204545,
                "end_time": 18.1295455,
                "pitch": 74,
                "velocity": 127,
                "duration": 0.1090909,
                "tempo": 120.0
            },
            {
                "start_time": 18.1295455,
                "end_time": 18.25,
                "pitch": 69,
                "velocity": 80,
                "duration": 0.1204545,
                "tempo": 120.0
            },
            {
                "start_time": 18.25,
                "end_time": 18.3704545,
                "pitch": 65,
                "velocity": 80,
                "duration": 0.1204545,
                "tempo": 120.0
            },
            {
                "start_time": 18.3704545,
                "end_time": 18.4818182,
                "pitch": 74,
                "velocity": 127,
                "duration": 0.1113636,
                "tempo": 120.0
            },
            {
                "start_time": 18.4818182,
                "end_time": 18.6022727,
                "pitch": 69,
                "velocity": 80,
                "duration": 0.1204545,
                "tempo": 120.0
            }
        ]
    }
}