{
    "mood": "angry",
    "instruments": {
        "Electric Piano 1": [
            {
                "start_time": 0.7022727,
                "end_time": 1.3909091,
                "pitch": 33,
                "velocity": 51,
                "duration": 0.6886364,
                "tempo": 120.0
            },
            {
                "start_time": 1.3909091,
                "end_time": 1.9022727,
                "pitch": 38,
                "velocity": 51,
                "duration": 0.5113636,
                "tempo": 120.0
            },
            {
                "start_time": 1.9022727,
                "end_time": 6.1318182,
                "pitch": 33,
                "velocity": 51,
                "duration": 4.2295455,
                "tempo": 120.0
            },
            {
                "start_time": 6.1318182,
                "end_time": 6.8227273,
                "pitch": 33,
                "velocity": 64,
                "duration": 0.6909091,
                "tempo": 120.0
            },
            {
                "start_time": 6.8227273,
                "end_time": 7.3295455,
                "pitch": 39,
                "velocity": 64,
                "duration": 0.5068182,
                "tempo": 120.0
            },
            {
                "start_time": 7.3295455,
                "end_time": 11.5522727,
                "pitch": 33,
                "velocity": 64,
                "duration": 4.2227273,
                "tempo": 120.0
            },
            {
                "start_time": 11.5545455,
                "end_time": 12.2318182,
                "pitch": 33,
                "velocity": 64,
                "duration": 0.6772727,
                "tempo": 120.0
            },
            {
                "start_time": 12.2340909,
                "end_time": 12.7454545,
                "pitch": 38,
                "velocity": 64,
                "duration": 0.5113636,
                "tempo": 120.0
            },
            {
                "start_time": 12.7454545,
                "end_time": 16.9727273,
                "pitch": 33,
                "velocity": 64,
                "duration": 4.2272727,
                "tempo": 120.0
            },
            {
                "start_time": 16.975,
                "end_time": 17.6545455,
                "pitch": 33,
                "velocity": 64,
                "duration": 0.6795455,
                "tempo": 120.0
            },
            {
                "start_time": 17.6545455,
                "end_time": 18.1659091,
                "pitch": 39,
                "velocity": 64,
                "duration": 0.5113636,
                "tempo": 120.0
            },
            {
                "start_time": 18.1659091,
                "end_time": 22.3954545,
                "pitch": 33,
                "velocity": 64,
                "duration": 4.2295455,
                "tempo": 120.0
            },
            {
                "start_time": 22.3954545,
                "end_time": 23.075,
                "pitch": 33,
                "velocity": 64,
                "duration": 0.6795455,
                "tempo": 120.0
            },
            {
                "start_time": 23.0772727,
                "end_time": 23.5886364,
                "pitch": 38,
                "velocity": 64,
                "duration": 0.5113636,
                "tempo": 120.0
            },
            {
                "start_time": 23.5886364,
                "end_time": 27.8181818,
                "pitch": 33,
                "velocity": 64,
                "duration": 4.2295455,
                "tempo": 120.0
            },
            {
                "start_time": 27.8181818,
                "end_time": 28.4977273,
                "pitch": 33,
                "velocity": 64,
                "duration": 0.6795455,
                "tempo": 120.0
            },
            {
                "start_time": 28.4977273,
                "end_time": 29.0090909,
                "pitch": 39,
                "velocity": 64,
                "duration": 0.5113636,
                "tempo": 120.0
            },
            {
                "start_time": 29.0113636,
                "end_time": 33.2409091,
                "pitch": 33,
                "velocity": 64,
                "duration": 4.2295455,
                "tempo": 120.0
            },
            {
                "start_time": 33.2409091,
                "end_time": 33.9295455,
                "pitch": 33,
                "velocity": 64,
                "duration": 0.6886364,
                "tempo": 120.0
            },
            {
                "start_time": 33.9295455,
                "end_time": 34.4363636,
                "pitch": 38,
                "velocity": 64,
                "duration": 0.5068182,
                "tempo": 120.0
            },
            {
                "start_time": 34.4363636,
                "end_time": 38.6704545,
                "pitch": 33,
                "velocity": 64,
                "duration": 4.2340909,
                "tempo": 120.0
            },
            {
                "start_time": 38.6704545,
                "end_time": 39.3409091,
                "pitch": 33,
                "velocity": 64,
                "duration": 0.6704545,
                "tempo": 120.0
            },
            {
                "start_time": 39.3409091,
                "end_time": 39.8568182,
                "pitch": 39,
                "velocity": 64,
                "duration": 0.5159091,
                "tempo": 120.0
            },
            {
                "start_time": 39.8568182,
                "end_time": 44.0931818,
                "pitch": 33,
                "velocity": 64,
                "duration": 4.2363636,
                "tempo": 120.0
            },
            {
                "start_time": 44.0931818,
                "end_time": 44.7636364,
                "pitch": 33,
                "velocity": 64,
                "duration": 0.6704545,
                "tempo": 120.0
            },
            {
                "start_time": 44.7636364,
                "end_time": 45.2681818,
                "pitch": 38,
                "velocity": 64,
                "duration": 0.5045455,
                "tempo": 120.0
            },
            {
                "start_time": 45.2704545,
                "end_time": 49.5022727,
                "pitch": 33,
                "velocity": 64,
                "duration": 4.2318182,
                "tempo": 120.0
            },
            {
                "start_time": 49.5022727,
                "end_time": 50.1818182,
                "pitch": 33,
                "velocity": 64,
                "duration": 0.6795455,
                "tempo": 120.0
            },
            {
                "start_time": 50.1818182,
                "end_time": 50.6931818,
                "pitch": 39,
                "velocity": 64,
                "duration": 0.5113636,
                "tempo": 120.0
            },
            {
                "start_time": 50.6954545,
                "end_time": 54.9227273,
                "pitch": 33,
                "velocity": 64,
                "duration": 4.2272727,
                "tempo": 120.0
            },
            {
                "start_time": 54.9227273,
                "end_time": 60.3545455,
                "pitch": 26,
                "velocity": 80,
                "duration": 5.4318182,
                "tempo": 120.0
            },
            {
                "start_time": 60.3545455,
                "end_time": 65.775,
                "pitch": 26,
                "velocity": 80,
                "duration": 5.4204545,
                "tempo": 120.0
            },
            {
                "start_time": 65.775,
                "end_time": 71.1977273,
                "pitch": 34,
                "velocity": 80,
                "duration": 5.4227273,
                "tempo": 120.0
            },
            {
                "start_time": 71.1977273,
                "end_time": 73.9090909,
                "pitch": 31,
                "velocity": 80,
                "duration": 2.7113636,
                "tempo": 120.0
            },
            {
                "start_time": 73.9090909,
                "end_time": 76.6204545,
                "pitch": 33,
                "velocity": 80,
                "duration": 2.7113636,
                "tempo": 120.0
            },
            {
                "start_time": 76.6204545,
                "end_time": 82.0409091,
                "pitch": 26,
                "velocity": 80,
                "duration": 5.4204545,
                "tempo": 120.0
            },
            {
                "start_time": 82.0409091,
                "end_time": 87.4613636,
                "pitch": 26,
                "velocity": 80,
                "duration": 5.4204545,
                "tempo": 120.0
            },
            {
                "start_time": 87.4613636,
                "end_time": 92.8840909,
                "pitch": 34,
                "velocity": 80,
                "duration": 5.4227273,
                "tempo": 120.0
            },
            {
                "start_time": 92.8840909,
                "end_time": 95.5954545,
                "pitch": 31,
                "velocity": 80,
                "duration": 2.7113636,
                "tempo": 120.0
            },
            {
                "start_time": 95.5954545,
                "end_time": 98.3068182,
                "pitch": 33,
                "velocity": 80,
                "duration": 2.7113636,
                "tempo": 120.0
            },
            {
                "start_time": 98.3068182,
                "end_time": 103.7272727,
                "pitch": 26,
                "velocity": 80,
                "duration": 5.4204545,
                "tempo": 120.0
            },
            {
                "start_time": 103.7272727,
                "end_time": 109.15,
                "pitch": 26,
                "velocity": 80,
                "duration": 5.4227273,
                "tempo": 120.0
            },
            {
                "start_time": 109.1522727,
                "end_time": 109.8295455,
                "pitch": 33,
                "velocity": 51,
                "duration": 0.6772727,
                "tempo": 120.0
            },
            {
                "start_time": 109.8295455,
                "end_time": 110.3431818,
                "pitch": 38,
                "velocity": 51,
                "duration": 0.5136364,
                "tempo": 120.0
            },
            {
                "start_time": 110.3431818,
                "end_time": 114.5727273,
                "pitch": 33,
                "velocity": 51,
                "duration": 4.2295455,
                "tempo": 120.0
            },
            {
                "start_time": 114.5727273,
                "end_time": 115.2522727,
                "pitch": 33,
                "velocity": 64,
                "duration": 0.6795455,
                "tempo": 120.0
            },
            {
                "start_time": 115.2522727,
                "end_time": 115.7636364,
                "pitch": 39,
                "velocity": 64,
                "duration": 0.5113636,
                "tempo": 120.0
            },
            {
                "start_time": 115.7659091,
                "end_time": 119.9931818,
                "pitch": 33,
                "velocity": 64,
                "duration": 4.2272727,
                "tempo": 120.0
            },
            {
                "start_time": 119.9931818,
                "end_time": 120.6636364,
                "pitch": 33,
                "velocity": 64,
                "duration": 0.6704545,
                "tempo": 120.0
            },
            {
                "start_time": 120.6636364,
                "end_time": 121.175,
                "pitch": 38,
                "velocity": 64,
                "duration": 0.5113636,
                "tempo": 120.0
            },
            {
                "start_time": 121.175,
                "end_time": 125.4136364,
                "pitch": 33,
                "velocity": 64,
                "duration": 4.2386364,
                "tempo": 120.0
            },
            {
                "start_time": 125.4136364,
                "end_time": 126.0840909,
                "pitch": 33,
                "velocity": 64,
                "duration": 0.6704545,
                "tempo": 120.0
            },
            {
                "start_time": 126.0840909,
                "end_time": 126.6,
                "pitch": 39,
                "velocity": 64,
                "duration": 0.5159091,
                "tempo": 120.0
            },
            {
                "start_time": 126.6,
                "end_time": 130.8340909,
                "pitch": 33,
                "velocity": 64,
                "duration": 4.2340909,
                "tempo": 120.0
            },
            {
                "start_time": 130.8340909,
                "end_time": 131.5136364,
                "pitch": 33,
                "velocity": 64,
                "duration": 0.6795455,
                "tempo": 120.0
            },
            {
                "start_time": 131.5136364,
                "end_time": 132.025,
                "pitch": 38,
                "velocity": 64,
                "duration": 0.5113636,
                "tempo": 120.0
            },
            {
                "start_time": 132.0272727,
                "end_time": 136.2568182,
                "pitch": 33,
                "velocity": 64,
                "duration": 4.2295455,
                "tempo": 120.0
            },
            {
                "start_time": 136.2568182,
                "end_time": 136.9363636,
                "pitch": 33,
                "velocity": 64,
                "duration": 0.6795455,
                "tempo": 120.0
            },
            {
                "start_time": 136.9363636,
                "end_time": 137.4431818,
                "pitch": 39,
                "velocity": 64,
                "duration": 0.5068182,
                "tempo": 120.0
            },
            {
                "start_time": 137.4431818,
                "end_time": 141.6772727,
                "pitch": 33,
                "velocity": 64,
                "duration": 4.2340909,
                "tempo": 120.0
            },
            {
                "start_time": 141.6772727,
                "end_time": 142.3568182,
                "pitch": 33,
                "velocity": 64,
                "duration": 0.6795455,
                "tempo": 120.0
            },
            {
                "start_time": 142.3568182,
                "end_time": 142.8681818,
                "pitch": 38,
                "velocity": 64,
                "duration": 0.5113636,
                "tempo": 120.0
            },
            {
                "start_time": 142.8681818,
                "end_time": 147.0977273,
                "pitch": 33,
                "velocity": 64,
                "duration": 4.2295455,
                "tempo": 120.0
            },
            {
                "start_time": 147.0977273,
                "end_time": 147.7772727,
                "pitch": 33,
                "velocity": 64,
                "duration": 0.6795455,
                "tempo": 120.0
            },
            {
                "start_time": 147.7772727,
                "end_time": 148.2886364,
                "pitch": 39,
                "velocity": 64,
                "duration": 0.5113636,
                "tempo": 120.0
            },
            {
                "start_time": 148.2909091,
                "end_time": 152.5204545,
                "pitch": 33,
                "velocity": 64,
                "duration": 4.2295455,
                "tempo": 120.0
            },
            {
                "start_time": 152.5204545,
                "end_time": 153.1909091,
                "pitch": 33,
                "velocity": 64,
                "duration": 0.6704545,
                "tempo": 120.0
            },
            {
                "start_time": 153.1909091,
                "end_time": 153.7022727,
                "pitch": 38,
                "velocity": 64,
                "duration": 0.5113636,
                "tempo": 120.0
            },
            {
                "start_time": 153.7022727,
                "end_time": 157.9386364,
                "pitch": 33,
                "velocity": 64,
                "duration": 4.2363636,
                "tempo": 120.0
            },
            {
                "start_time": 157.9386364,
                "end_time": 158.6181818,
                "pitch": 33,
                "velocity": 64,
                "duration": 0.6795455,
                "tempo": 120.0
            },
            {
                "start_time": 158.6181818,
                "end_time": 159.1318182,
                "pitch": 39,
                "velocity": 64,
                "duration": 0.5136364,
                "tempo": 120.0
            },
            {
                "start_time": 159.1318182,
                "end_time": 163.3613636,
                "pitch": 33,
                "velocity": 64,
                "duration": 4.2295455,
                "tempo": 120.0
            },
            {
                "start_time": 163.3613636,
                "end_time": 163.3636364,
                "pitch": 26,
                "velocity": 80,
                "duration": 0.0022727,
                "tempo": 120.0
            }
        ],
        "Trumpet": [
            {
                "start_time": 54.925,
                "end_time": 65.7772727,
                "pitch": 26,
                "velocity": 51,
                "duration": 10.8522727,
                "tempo": 120.0
            },
            {
                "start_time": 65.7795455,
                "end_time": 71.2,
                "pitch": 21,
                "velocity": 51,
                "duration": 5.4204545,
                "tempo": 120.0
            },
            {
                "start_time": 71.2,
                "end_time": 71.2295455,
                "pitch": 19,
                "velocity": 51,
                "duration": 0.0295455,
                "tempo": 120.0
            },
            {
                "start_time": 71.2295455,
                "end_time": 71.2818182,
                "pitch": 19,
                "velocity": 51,
                "duration": 0.0522727,
                "tempo": 120.0
            },
            {
                "start_time": 71.2295455,
                "end_time": 71.3977273,
                "pitch": 0,
                "velocity": 51,
                "duration": 0.1681818,
                "tempo": 120.0
            },
            {
                "start_time": 71.2818182,
                "end_time": 71.3977273,
                "pitch": 19,
                "velocity": 51,
                "duration": 0.1159091,
                "tempo": 120.0
            },
            {
                "start_time": 71.3977273,
                "end_time": 71.4477273,
                "pitch": 19,
                "velocity": 51,
                "duration": 0.05,
                "tempo": 120.0
            },
            {
                "start_time": 71.2818182,
                "end_time": 71.4477273,
                "pitch": 31,
                "velocity": 51,
                "duration": 0.1659091,
                "tempo": 120.0
            },
            {
                "start_time": 71.3977273,
                "end_time": 71.5659091,
                "pitch": 0,
                "velocity": 51,
                "duration": 0.1681818,
                "tempo": 120.0
            },
            {
                "start_time": 71.4477273,
                "end_time": 71.5659091,
                "pitch": 19,
                "velocity": 51,
                "duration": 0.1181818,
                "tempo": 120.0
            },
            {
                "start_time": 71.5659091,
                "end_time": 71.6159091,
                "pitch": 19,
                "velocity": 51,
                "duration": 0.05,
                "tempo": 120.0
            },
            {
                "start_time": 71.4477273,
                "end_time": 71.6159091,
                "pitch": 31,
                "velocity": 51,
                "duration": 0.1681818,
                "tempo": 120.0
            },
            {
                "start_time": 71.5659091,
                "end_time": 71.7340909,
                "pitch": 0,
                "velocity": 51,
                "duration": 0.1681818,
                "tempo": 120.0
            },
            {
                "start_time": 71.6159091,
                "end_time": 71.7340909,
                "pitch": 19,
                "velocity": 51,
                "duration": 0.1181818,
                "tempo": 120.0
            },
            {
                "start_time": 71.7340909,
                "end_time": 71.7840909,
                "pitch": 19,
                "velocity": 51,
                "duration": 0.05,
                "tempo": 120.0
            },
            {
                "start_time": 71.6159091,
                "end_time": 71.7840909,
                "pitch": 31,
                "velocity": 51,
                "duration": 0.1681818,
                "tempo": 120.0
            },
            {
                "start_time": 71.7340909,
                "end_time": 71.9022727,
                "pitch": 0,
                "velocity": 51,
                "duration": 0.1681818,
                "tempo": 120.0
            },
            {
                "start_time": 71.7840909,
                "end_time": 71.9022727,
                "pitch": 19,
                "velocity": 51,
                "duration": 0.1181818,
                "tempo": 120.0
            },
            {
                "start_time": 71.9022727,
                "end_time": 71.9545455,
                "pitch": 19,
                "velocity": 51,
                "duration": 0.0522727,
                "tempo": 120.0
            },
            {
                "start_time": 71.7840909,
                "end_time": 71.9545455,
                "pitch": 31,
                "velocity": 51,
                "duration": 0.1704545,
                "tempo": 120.0
            },
            {
                "start_time": 71.9022727,
                "end_time": 72.075,
                "pitch": 0,
                "velocity": 51,
                "duration": 0.1727273,
                "tempo": 120.0
            },
            {
                "start_time": 71.9545455,
                "end_time": 72.075,
                "pitch": 19,
                "velocity": 51,
                "duration": 0.1204545,
                "tempo": 120.0
            },
            {
                "start_time": 72.075,
                "end_time": 72.125,
                "pitch": 19,
                "velocity": 51,
                "duration": 0.05,
                "tempo": 120.0
            },
            {
                "start_time": 71.9545455,
                "end_time": 72.1272727,
                "pitch": 31,
                "velocity": 51,
                "duration": 0.1727273,
                "tempo": 120.0
            },
            {
                "start_time": 72.125,
                "end_time": 72.1272727,
                "pitch": 31,
                "velocity": 51,
                "duration": 0.0022727,
                "tempo": 120.0
            },
            {
                "start_time": 72.075,
                "end_time": 72.2454545,
                "pitch": 0,
                "velocity": 51,
                "duration": 0.1704545,
                "tempo": 120.0
            },
            {
                "start_time": 72.1272727,
                "end_time": 72.2454545,
                "pitch": 19,
                "velocity": 51,
                "duration": 0.1181818,
                "tempo": 120.0
            },
            {
                "start_time": 72.2454545,
                "end_time": 72.2954545,
                "pitch": 19,
                "velocity": 51,
                "duration": 0.05,
                "tempo": 120.0
            },
            {
                "start_time": 72.2454545,
                "end_time": 72.4136364,
                "pitch": 0,
                "velocity": 51,
                "duration": 0.1681818,
                "tempo": 120.0
            },
            {
                "start_time": 72.2954545,
                "end_time": 72.4136364,
                "pitch": 19,
                "velocity": 51,
                "duration": 0.1181818,
                "tempo": 120.0
            },
            {
                "start_time": 72.4136364,
                "end_time": 72.4636364,
                "pitch": 19,
                "velocity": 51,
                "duration": 0.05,
                "tempo": 120.0
            },
            {
                "start_time": 72.2954545,
                "end_time": 72.4636364,
                "pitch": 31,
                "velocity": 51,
                "duration": 0.1681818,
                "tempo": 120.0
            },
            {
                "start_time": 72.4136364,
                "end_time": 72.5818182,
                "pitch": 0,
                "velocity": 51,
                "duration": 0.1681818,
                "tempo": 120.0
            },
            {
                "start_time": 72.4636364,
                "end_time": 72.5818182,
                "pitch": 19,
                "velocity": 51,
                "duration": 0.1181818,
                "tempo": 120.0
            },
            {
                "start_time": 72.5818182,
                "end_time": 72.6340909,
                "pitch": 19,
                "velocity": 51,
                "duration": 0.0522727,
                "tempo": 120.0
            },
            {
                "start_time": 72.4636364,
                "end_time": 72.6340909,
                "pitch": 31,
                "velocity": 51,
                "duration": 0.1704545,
                "tempo": 120.0
            },
            {
                "start_time": 72.5818182,
                "end_time": 72.7545455,
                "pitch": 0,
                "velocity": 51,
                "duration": 0.1727273,
                "tempo": 120.0
            },
            {
                "start_time": 72.6340909,
                "end_time": 72.7545455,
                "pitch": 19,
                "velocity": 51,
                "duration": 0.1204545,
                "tempo": 120.0
            },
            {
                "start_time": 72.7545455,
                "end_time": 72.8068182,
                "pitch": 19,
                "velocity": 51,
                "duration": 0.0522727,
                "tempo": 120.0
            },
            {
                "start_time": 72.6340909,
                "end_time": 72.8068182,
                "pitch": 31,
                "velocity": 51,
                "duration": 0.1727273,
                "tempo": 120.0
            },
            {
                "start_time": 72.7545455,
                "end_time": 72.925,
                "pitch": 0,
                "velocity": 51,
                "duration": 0.1704545,
                "tempo": 120.0
            },
            {
                "start_time": 72.8068182,
                "end_time": 72.925,
                "pitch": 19,
                "velocity": 51,
                "duration": 0.1181818,
                "tempo": 120.0
            },
            {
                "start_time": 72.925,
                "end_time": 72.9772727,
                "pitch": 19,
                "velocity": 51,
                "duration": 0.0522727,
                "tempo": 120.0
            },
            {
                "start_time": 72.8068182,
                "end_time": 72.9772727,
                "pitch": 31,
                "velocity": 51,
                "duration": 0.1704545,
                "tempo": 120.0
            },
            {
                "start_time": 72.925,
                "end_time": 73.0931818,
                "pitch": 0,
                "velocity": 51,
                "duration": 0.1681818,
                "tempo": 120.0
            },
            {
                "start_time": 72.9772727,
                "end_time": 73.0931818,
                "pitch": 19,
                "velocity": 51,
                "duration": 0.1159091,
                "tempo": 120.0
            },
            {
                "start_time": 73.0931818,
                "end_time": 73.1431818,
                "pitch": 19,
                "velocity": 51,
                "duration": 0.05,
                "tempo": 120.0
            },
            {
                "start_time": 72.9772727,
                "end_time": 73.1431818,
                "pitch": 31,
                "velocity": 51,
                "duration": 0.1659091,
                "tempo": 120.0
            },
            {
                "start_time": 73.1431818,
                "end_time": 73.2272727,
                "pitch": 19,
                "velocity": 51,
                "duration": 0.0840909,
                "tempo": 120.0
            },
            {
                "start_time": 73.9113636,
                "end_time": 75.9386364,
                "pitch": 21,
                "velocity": 51,
                "duration": 2.0272727,
                "tempo": 120.0
            },
            {
                "start_time": 76.6227273,
                "end_time": 82.0431818,
                "pitch": 26,
                "velocity": 51,
                "duration": 5.4204545,
                "tempo": 120.0
            },
            {
                "start_time": 82.0431818,
                "end_time": 87.4636364,
                "pitch": 26,
                "velocity": 51,
                "duration": 5.4204545,
                "tempo": 120.0
            },
            {
                "start_time": 87.4636364,
                "end_time": 92.8863636,
                "pitch": 21,
                "velocity": 51,
                "duration": 5.4227273,
                "tempo": 120.0
            },
            {
                "start_time": 73.0931818,
                "end_time": 92.9159091,
                "pitch": 0,
                "velocity": 51,
                "duration": 19.8227273,
                "tempo": 120.0
            },
            {
                "start_time": 92.8863636,
                "end_time": 92.9159091,
                "pitch": 19,
                "velocity": 51,
                "duration": 0.0295455,
                "tempo": 120.0
            },
            {
                "start_time": 92.9159091,
                "end_time": 92.9681818,
                "pitch": 19,
                "velocity": 51,
                "duration": 0.0522727,
                "tempo": 120.0
            },
            {
                "start_time": 73.1431818,
                "end_time": 92.9681818,
                "pitch": 31,
                "velocity": 51,
                "duration": 19.825,
                "tempo": 120.0
            },
            {
                "start_time": 92.9159091,
                "end_time": 93.0840909,
                "pitch": 0,
                "velocity": 51,
                "duration": 0.1681818,
                "tempo": 120.0
            },
            {
                "start_time": 92.9681818,
                "end_time": 93.0840909,
                "pitch": 19,
                "velocity": 51,
                "duration": 0.1159091,
                "tempo": 120.0
            },
            {
                "start_time": 93.0840909,
                "end_time": 93.1340909,
                "pitch": 19,
                "velocity": 51,
                "duration": 0.05,
                "tempo": 120.0
            },
            {
                "start_time": 92.9681818,
                "end_time": 93.1340909,
                "pitch": 31,
                "velocity": 51,
                "duration": 0.1659091,
                "tempo": 120.0
            },
            {
                "start_time": 93.0840909,
                "end_time": 93.2522727,
                "pitch": 0,
                "velocity": 51,
                "duration": 0.1681818,
                "tempo": 120.0
            },
            {
                "start_time": 93.1340909,
                "end_time": 93.2522727,
                "pitch": 19,
                "velocity": 51,
                "duration": 0.1181818,
                "tempo": 120.0
            },
            {
                "start_time": 93.2522727,
                "end_time": 93.3045455,
                "pitch": 19,
                "velocity": 51,
                "duration": 0.0522727,
                "tempo": 120.0
            },
            {
                "start_time": 93.1340909,
                "end_time": 93.3045455,
                "pitch": 31,
                "velocity": 51,
                "duration": 0.1704545,
                "tempo": 120.0
            },
            {
                "start_time": 93.2522727,
                "end_time": 93.425,
                "pitch": 0,
                "velocity": 51,
                "duration": 0.1727273,
                "tempo": 120.0
            },
            {
                "start_time": 93.3045455,
                "end_time": 93.425,
                "pitch": 19,
                "velocity": 51,
                "duration": 0.1204545,
                "tempo": 120.0
            },
            {
                "start_time": 93.425,
                "end_time": 93.4772727,
                "pitch": 19,
                "velocity": 51,
                "duration": 0.0522727,
                "tempo": 120.0
            },
            {
                "start_time": 93.3045455,
                "end_time": 93.4772727,
                "pitch": 31,
                "velocity": 51,
                "duration": 0.1727273,
                "tempo": 120.0
            },
            {
                "start_time": 93.425,
                "end_time": 93.5977273,
                "pitch": 0,
                "velocity": 51,
                "duration": 0.1727273,
                "tempo": 120.0
            },
            {
                "start_time": 93.4772727,
                "end_time": 93.5977273,
                "pitch": 19,
                "velocity": 51,
                "duration": 0.1204545,
                "tempo": 120.0
            },
            {
                "start_time": 93.5977273,
                "end_time": 93.6477273,
                "pitch": 19,
                "velocity": 51,
                "duration": 0.05,
                "tempo": 120.0
            },
            {
                "start_time": 93.4772727,
                "end_time": 93.6477273,
                "pitch": 31,
                "velocity": 51,
                "duration": 0.1704545,
                "tempo": 120.0
            },
            {
                "start_time": 93.5977273,
                "end_time": 93.7636364,
                "pitch": 0,
                "velocity": 51,
                "duration": 0.1659091,
                "tempo": 120.0
            },
            {
                "start_time": 93.6477273,
                "end_time": 93.7636364,
                "pitch": 19,
                "velocity": 51,
                "duration": 0.1159091,
                "tempo": 120.0
            },
            {
                "start_time": 93.7636364,
                "end_time": 93.8159091,
                "pitch": 19,
                "velocity": 51,
                "duration": 0.0522727,
                "tempo": 120.0
            },
            {
                "start_time": 93.6477273,
                "end_time": 93.8159091,
                "pitch": 31,
                "velocity": 51,
                "duration": 0.1681818,
                "tempo": 120.0
            },
            {
                "start_time": 93.7636364,
                "end_time": 93.9318182,
                "pitch": 0,
                "velocity": 51,
                "duration": 0.1681818,
                "tempo": 120.0
            },
            {
                "start_time": 93.8159091,
                "end_time": 93.9318182,
                "pitch": 19,
                "velocity": 51,
                "duration": 0.1159091,
                "tempo": 120.0
            },
            {
                "start_time": 93.9318182,
                "end_time": 93.9818182,
                "pitch": 19,
                "velocity": 51,
                "duration": 0.05,
                "tempo": 120.0
            },
            {
                "start_time": 93.8159091,
                "end_time": 93.9818182,
                "pitch": 31,
                "velocity": 51,
                "duration": 0.1659091,
                "tempo": 120.0
            },
            {
                "start_time": 93.9318182,
                "end_time": 94.1,
                "pitch": 0,
                "velocity": 51,
                "duration": 0.1681818,
                "tempo": 120.0
            },
            {
                "start_time": 93.9818182,
                "end_time": 94.1,
                "pitch": 19,
                "velocity": 51,
                "duration": 0.1181818,
                "tempo": 120.0
            },
            {
                "start_time": 94.1,
                "end_time": 94.15,
                "pitch": 19,
                "velocity": 51,
                "duration": 0.05,
                "tempo": 120.0
            },
            {
                "start_time": 93.9818182,
                "end_time": 94.15,
                "pitch": 31,
                "velocity": 51,
                "duration": 0.1681818,
                "tempo": 120.0
            },
            {
                "start_time": 94.1,
                "end_time": 94.2681818,
                "pitch": 0,
                "velocity": 51,
                "duration": 0.1681818,
                "tempo": 120.0
            },
            {
                "start_time": 94.15,
                "end_time": 94.2681818,
                "pitch": 19,
                "velocity": 51,
                "duration": 0.1181818,
                "tempo": 120.0
            },
            {
                "start_time": 94.2681818,
                "end_time": 94.3204545,
                "pitch": 19,
                "velocity": 51,
                "duration": 0.0522727,
                "tempo": 120.0
            },
            {
                "start_time": 94.15,
                "end_time": 94.3204545,
                "pitch": 31,
                "velocity": 51,
                "duration": 0.1704545,
                "tempo": 120.0
            },
            {
                "start_time": 94.2681818,
                "end_time": 94.4409091,
                "pitch": 0,
                "velocity": 51,
                "duration": 0.1727273,
                "tempo": 120.0
            },
            {
                "start_time": 94.3204545,
                "end_time": 94.4409091,
                "pitch": 19,
                "velocity": 51,
                "duration": 0.1204545,
                "tempo": 120.0
            },
            {
                "start_time": 94.4409091,
                "end_time": 94.4931818,
                "pitch": 19,
                "velocity": 51,
                "duration": 0.0522727,
                "tempo": 120.0
            },
            {
                "start_time": 94.3204545,
                "end_time": 94.4931818,
                "pitch": 31,
                "velocity": 51,
                "duration": 0.1727273,
                "tempo": 120.0
            },
            {
                "start_time": 94.4931818,
                "end_time": 94.6113636,
                "pitch": 19,
                "velocity": 51,
                "duration": 0.1181818,
                "tempo": 120.0
            },
            {
                "start_time": 94.4409091,
                "end_time": 94.6136364,
                "pitch": 0,
                "velocity": 51,
                "duration": 0.1727273,
                "tempo": 120.0
            },
            {
                "start_time": 94.6113636,
                "end_time": 94.6136364,
                "pitch": 0,
                "velocity": 51,
                "duration": 0.0022727,
                "tempo": 120.0
            },
            {
                "start_time": 94.6136364,
                "end_time": 94.6636364,
                "pitch": 19,
                "velocity": 51,
                "duration": 0.05,
                "tempo": 120.0
            },
            {
                "start_time": 94.4931818,
                "end_time": 94.6636364,
                "pitch": 31,
                "velocity": 51,
                "duration": 0.1704545,
                "tempo": 120.0
            },
            {
                "start_time": 94.6636364,
                "end_time": 94.7795455,
                "pitch": 19,
                "velocity": 51,
                "duration": 0.1159091,
                "tempo": 120.0
            },
            {
                "start_time": 94.7795455,
                "end_time": 94.8295455,
                "pitch": 19,
                "velocity": 51,
                "duration": 0.05,
                "tempo": 120.0
            },
            {
                "start_time": 94.6636364,
                "end_time": 94.8295455,
                "pitch": 31,
                "velocity": 51,
                "duration": 0.1659091,
                "tempo": 120.0
            },
            {
                "start_time": 94.8295455,
                "end_time": 94.9136364,
                "pitch": 19,
                "velocity": 51,
                "duration": 0.0840909,
                "tempo": 120.0
            },
            {
                "start_time": 95.5977273,
                "end_time": 97.625,
                "pitch": 21,
                "velocity": 51,
                "duration": 2.0272727,
                "tempo": 120.0
            },
            {
                "start_time": 98.3090909,
                "end_time": 103.7295455,
                "pitch": 26,
                "velocity": 51,
                "duration": 5.4204545,
                "tempo": 120.0
            },
            {
                "start_time": 103.7295455,
                "end_time": 109.1545455,
                "pitch": 26,
                "velocity": 51,
                "duration": 5.425,
                "tempo": 120.0
            }
        ],
        "Lead 2 (sawtooth)": [
            {
                "start_time": 33.2431818,
                "end_time": 33.4454545,
                "pitch": 48,
                "velocity": 32,
                "duration": 0.2022727,
                "tempo": 120.0
            },
            {
                "start_time": 33.4454545,
                "end_time": 33.5840909,
                "pitch": 50,
                "velocity": 32,
                "duration": 0.1386364,
                "tempo": 120.0
            },
            {
                "start_time": 33.5863636,
                "end_time": 33.8431818,
                "pitch": 50,
                "velocity": 32,
                "duration": 0.2568182,
                "tempo": 120.0
            },
            {
                "start_time": 33.9318182,
                "end_time": 34.1795455,
                "pitch": 48,
                "velocity": 32,
                "duration": 0.2477273,
                "tempo": 120.0
            },
            {
                "start_time": 34.2659091,
                "end_time": 34.4704545,
                "pitch": 48,
                "velocity": 32,
                "duration": 0.2045455,
                "tempo": 120.0
            },
            {
                "start_time": 34.4704545,
                "end_time": 34.6090909,
                "pitch": 50,
                "velocity": 32,
                "duration": 0.1386364,
                "tempo": 120.0
            },
            {
                "start_time": 34.6090909,
                "end_time": 34.7386364,
                "pitch": 50,
                "velocity": 32,
                "duration": 0.1295455,
                "tempo": 120.0
            },
            {
                "start_time": 34.7727273,
                "end_time": 34.9681818,
                "pitch": 48,
                "velocity": 32,
                "duration": 0.1954545,
                "tempo": 120.0
            },
            {
                "start_time": 34.9681818,
                "end_time": 35.1068182,
                "pitch": 50,
                "velocity": 32,
                "duration": 0.1386364,
                "tempo": 120.0
            },
            {
                "start_time": 35.1068182,
                "end_time": 35.2431818,
                "pitch": 50,
                "velocity": 32,
                "duration": 0.1363636,
                "tempo": 120.0
            },
            {
                "start_time": 35.2795455,
                "end_time": 35.4795455,
                "pitch": 48,
                "velocity": 32,
                "duration": 0.2,
                "tempo": 120.0
            },
            {
                "start_time": 35.4795455,
                "end_time": 35.6136364,
                "pitch": 50,
                "velocity": 32,
                "duration": 0.1340909,
                "tempo": 120.0
            },
            {
                "start_time": 35.6136364,
                "end_time": 35.8727273,
                "pitch": 50,
                "velocity": 32,
                "duration": 0.2590909,
                "tempo": 120.0
            },
            {
                "start_time": 35.9590909,
                "end_time": 36.1590909,
                "pitch": 48,
                "velocity": 32,
                "duration": 0.2,
                "tempo": 120.0
            },
            {
                "start_time": 36.1590909,
                "end_time": 36.2954545,
                "pitch": 50,
                "velocity": 32,
                "duration": 0.1363636,
                "tempo": 120.0
            },
            {
                "start_time": 36.2954545,
                "end_time": 36.5454545,
                "pitch": 50,
                "velocity": 32,
                "duration": 0.25,
                "tempo": 120.0
            },
            {
                "start_time": 36.6295455,
                "end_time": 36.8863636,
                "pitch": 48,
                "velocity": 32,
                "duration": 0.2568182,
                "tempo": 120.0
            },
            {
                "start_time": 36.975,
                "end_time": 37.1795455,
                "pitch": 48,
                "velocity": 32,
                "duration": 0.2045455,
                "tempo": 120.0
            },
            {
                "start_time": 37.1795455,
                "end_time": 37.3204545,
                "pitch": 50,
                "velocity": 32,
                "duration": 0.1409091,
                "tempo": 120.0
            },
            {
                "start_time": 37.3204545,
                "end_time": 37.4522727,
                "pitch": 50,
                "velocity": 32,
                "duration": 0.1318182,
                "tempo": 120.0
            },
            {
                "start_time": 37.4863636,
                "end_time": 37.6863636,
                "pitch": 48,
                "velocity": 32,
                "duration": 0.2,
                "tempo": 120.0
            },
            {
                "start_time": 37.6863636,
                "end_time": 37.8227273,
                "pitch": 50,
                "velocity": 32,
                "duration": 0.1363636,
                "tempo": 120.0
            },
            {
                "start_time": 37.8227273,
                "end_time": 37.9545455,
                "pitch": 50,
                "velocity": 32,
                "duration": 0.1318182,
                "tempo": 120.0
            },
            {
                "start_time": 37.9909091,
                "end_time": 38.1909091,
                "pitch": 48,
                "velocity": 32,
                "duration": 0.2,
                "tempo": 120.0
            },
            {
                "start_time": 38.1909091,
                "end_time": 38.325,
                "pitch": 50,
                "velocity": 32,
                "duration": 0.1340909,
                "tempo": 120.0
            },
            {
                "start_time": 38.325,
                "end_time": 38.5818182,
                "pitch": 50,
                "velocity": 32,
                "duration": 0.2568182,
                "tempo": 120.0
            },
            {
                "start_time": 141.6795455,
                "end_time": 141.8818182,
                "pitch": 48,
                "velocity": 32,
                "duration": 0.2022727,
                "tempo": 120.0
            },
            {
                "start_time": 141.8818182,
                "end_time": 142.0227273,
                "pitch": 50,
                "velocity": 32,
                "duration": 0.1409091,
                "tempo": 120.0
            },
            {
                "start_time": 142.0227273,
                "end_time": 142.2727273,
                "pitch": 50,
                "velocity": 32,
                "duration": 0.25,
                "tempo": 120.0
            },
            {
                "start_time": 142.3590909,
                "end_time": 142.6136364,
                "pitch": 48,
                "velocity": 32,
                "duration": 0.2545455,
                "tempo": 120.0
            },
            {
                "start_time": 142.7022727,
                "end_time": 142.9022727,
                "pitch": 48,
                "velocity": 32,
                "duration": 0.2,
                "tempo": 120.0
            },
            {
                "start_time": 142.9022727,
                "end_time": 143.0386364,
                "pitch": 50,
                "velocity": 32,
                "duration": 0.1363636,
                "tempo": 120.0
            },
            {
                "start_time": 143.0386364,
                "end_time": 143.1704545,
                "pitch": 50,
                "velocity": 32,
                "duration": 0.1318182,
                "tempo": 120.0
            },
            {
                "start_time": 143.2045455,
                "end_time": 143.4045455,
                "pitch": 48,
                "velocity": 32,
                "duration": 0.2,
                "tempo": 120.0
            },
            {
                "start_time": 143.4045455,
                "end_time": 143.5409091,
                "pitch": 50,
                "velocity": 32,
                "duration": 0.1363636,
                "tempo": 120.0
            },
            {
                "start_time": 143.5409091,
                "end_time": 143.6727273,
                "pitch": 50,
                "velocity": 32,
                "duration": 0.1318182,
                "tempo": 120.0
            },
            {
                "start_time": 143.7090909,
                "end_time": 143.9136364,
                "pitch": 48,
                "velocity": 32,
                "duration": 0.2045455,
                "tempo": 120.0
            },
            {
                "start_time": 143.9136364,
                "end_time": 144.0522727,
                "pitch": 50,
                "velocity": 32,
                "duration": 0.1386364,
                "tempo": 120.0
            },
            {
                "start_time": 144.0545455,
                "end_time": 144.3045455,
                "pitch": 50,
                "velocity": 32,
                "duration": 0.25,
                "tempo": 120.0
            },
            {
                "start_time": 144.3886364,
                "end_time": 144.5886364,
                "pitch": 48,
                "velocity": 32,
                "duration": 0.2,
                "tempo": 120.0
            },
            {
                "start_time": 144.5886364,
                "end_time": 144.7227273,
                "pitch": 50,
                "velocity": 32,
                "duration": 0.1340909,
                "tempo": 120.0
            },
            {
                "start_time": 144.725,
                "end_time": 144.9818182,
                "pitch": 50,
                "velocity": 32,
                "duration": 0.2568182,
                "tempo": 120.0
            },
            {
                "start_time": 145.0681818,
                "end_time": 145.3181818,
                "pitch": 48,
                "velocity": 32,
                "duration": 0.25,
                "tempo": 120.0
            },
            {
                "start_time": 145.4045455,
                "end_time": 145.6090909,
                "pitch": 48,
                "velocity": 32,
                "duration": 0.2045455,
                "tempo": 120.0
            },
            {
                "start_time": 145.6090909,
                "end_time": 145.7477273,
                "pitch": 50,
                "velocity": 32,
                "duration": 0.1386364,
                "tempo": 120.0
            },
            {
                "start_time": 145.75,
                "end_time": 145.8863636,
                "pitch": 50,
                "velocity": 32,
                "duration": 0.1363636,
                "tempo": 120.0
            },
            {
                "start_time": 145.9204545,
                "end_time": 146.125,
                "pitch": 48,
                "velocity": 32,
                "duration": 0.2045455,
                "tempo": 120.0
            },
            {
                "start_time": 146.125,
                "end_time": 146.2545455,
                "pitch": 50,
                "velocity": 32,
                "duration": 0.1295455,
                "tempo": 120.0
            },
            {
                "start_time": 146.2568182,
                "end_time": 146.3840909,
                "pitch": 50,
                "velocity": 32,
                "duration": 0.1272727,
                "tempo": 120.0
            },
            {
                "start_time": 146.4181818,
                "end_time": 146.6227273,
                "pitch": 48,
                "velocity": 32,
                "duration": 0.2045455,
                "tempo": 120.0
            },
            {
                "start_time": 146.6227273,
                "end_time": 146.7636364,
                "pitch": 50,
                "velocity": 32,
                "duration": 0.1409091,
                "tempo": 120.0
            },
            {
                "start_time": 146.7636364,
                "end_time": 147.0136364,
                "pitch": 50,
                "velocity": 32,
                "duration": 0.25,
                "tempo": 120.0
            }
        ],
        "Acoustic Bass": [
            {
                "start_time": 0.7045455,
                "end_time": 0.7522727,
                "pitch": 33,
                "velocity": 64,
                "duration": 0.0477273,
                "tempo": 120.0
            },
            {
                "start_time": 0.7522727,
                "end_time": 0.8727273,
                "pitch": 33,
                "velocity": 4,
                "duration": 0.1204545,
                "tempo": 120.0
            },
            {
                "start_time": 0.8727273,
                "end_time": 0.925,
                "pitch": 33,
                "velocity": 64,
                "duration": 0.0522727,
                "tempo": 120.0
            },
            {
                "start_time": 0.925,
                "end_time": 1.0454545,
                "pitch": 33,
                "velocity": 4,
                "duration": 0.1204545,
                "tempo": 120.0
            },
            {
                "start_time": 1.0454545,
                "end_time": 1.3545455,
                "pitch": 36,
                "velocity": 64,
                "duration": 0.3090909,
                "tempo": 120.0
            },
            {
                "start_time": 1.3931818,
                "end_time": 1.7,
                "pitch": 38,
                "velocity": 64,
                "duration": 0.3068182,
                "tempo": 120.0
            },
            {
                "start_time": 1.7363636,
                "end_time": 1.8181818,
                "pitch": 39,
                "velocity": 64,
                "duration": 0.0818182,
                "tempo": 120.0
            },
            {
                "start_time": 1.9045455,
                "end_time": 1.9363636,
                "pitch": 33,
                "velocity": 64,
                "duration": 0.0318182,
                "tempo": 120.0
            },
            {
                "start_time": 1.9522727,
                "end_time": 2.0204545,
                "pitch": 33,
                "velocity": 4,
                "duration": 0.0681818,
                "tempo": 120.0
            },
            {
                "start_time": 2.2386364,
                "end_time": 2.2704545,
                "pitch": 33,
                "velocity": 64,
                "duration": 0.0318182,
                "tempo": 120.0
            },
            {
                "start_time": 2.2886364,
                "end_time": 2.3545455,
                "pitch": 33,
                "velocity": 4,
                "duration": 0.0659091,
                "tempo": 120.0
            },
            {
                "start_time": 2.4068182,
                "end_time": 2.7068182,
                "pitch": 36,
                "velocity": 64,
                "duration": 0.3,
                "tempo": 120.0
            },
            {
                "start_time": 2.7409091,
                "end_time": 3.05,
                "pitch": 38,
                "velocity": 64,
                "duration": 0.3090909,
                "tempo": 120.0
            },
            {
                "start_time": 3.0863636,
                "end_time": 3.1681818,
                "pitch": 39,
                "velocity": 64,
                "duration": 0.0818182,
                "tempo": 120.0
            },
            {
                "start_time": 6.1340909,
                "end_time": 6.1659091,
                "pitch": 33,
                "velocity": 64,
                "duration": 0.0318182,
                "tempo": 120.0
            },
            {
                "start_time": 6.1840909,
                "end_time": 6.2522727,
                "pitch": 33,
                "velocity": 4,
                "duration": 0.0681818,
                "tempo": 120.0
            },
            {
                "start_time": 6.3045455,
                "end_time": 6.3386364,
                "pitch": 33,
                "velocity": 64,
                "duration": 0.0340909,
                "tempo": 120.0
            },
            {
                "start_time": 6.3568182,
                "end_time": 6.425,
                "pitch": 33,
                "velocity": 4,
                "duration": 0.0681818,
                "tempo": 120.0
            },
            {
                "start_time": 6.4772727,
                "end_time": 6.7863636,
                "pitch": 36,
                "velocity": 64,
                "duration": 0.3090909,
                "tempo": 120.0
            },
            {
                "start_time": 6.825,
                "end_time": 7.1227273,
                "pitch": 38,
                "velocity": 64,
                "duration": 0.2977273,
                "tempo": 120.0
            },
            {
                "start_time": 7.1568182,
                "end_time": 7.2431818,
                "pitch": 39,
                "velocity": 64,
                "duration": 0.0863636,
                "tempo": 120.0
            },
            {
                "start_time": 7.3318182,
                "end_time": 7.4159091,
                "pitch": 33,
                "velocity": 64,
                "duration": 0.0840909,
                "tempo": 120.0
            },
            {
                "start_time": 8.675,
                "end_time": 8.7568182,
                "pitch": 31,
                "velocity": 64,
                "duration": 0.0818182,
                "tempo": 120.0
            },
            {
                "start_time": 8.8431818,
                "end_time": 8.8772727,
                "pitch": 33,
                "velocity": 64,
                "duration": 0.0340909,
                "tempo": 120.0
            },
            {
                "start_time": 8.8931818,
                "end_time": 8.9613636,
                "pitch": 33,
                "velocity": 4,
                "duration": 0.0681818,
                "tempo": 120.0
            },
            {
                "start_time": 9.0136364,
                "end_time": 9.05,
                "pitch": 33,
                "velocity": 64,
                "duration": 0.0363636,
                "tempo": 120.0
            },
            {
                "start_time": 9.0659091,
                "end_time": 9.1340909,
                "pitch": 33,
                "velocity": 4,
                "duration": 0.0681818,
                "tempo": 120.0
            },
            {
                "start_time": 9.1863636,
                "end_time": 9.4886364,
                "pitch": 36,
                "velocity": 64,
                "duration": 0.3022727,
                "tempo": 120.0
            },
            {
                "start_time": 9.5227273,
                "end_time": 9.8318182,
                "pitch": 38,
                "velocity": 64,
                "duration": 0.3090909,
                "tempo": 120.0
            },
            {
                "start_time": 9.8681818,
                "end_time": 9.95,
                "pitch": 39,
                "velocity": 64,
                "duration": 0.0818182,
                "tempo": 120.0
            },
            {
                "start_time": 14.0954545,
                "end_time": 14.2636364,
                "pitch": 31,
                "velocity": 64,
                "duration": 0.1681818,
                "tempo": 120.0
            },
            {
                "start_time": 14.2636364,
                "end_time": 14.3159091,
                "pitch": 33,
                "velocity": 64,
                "duration": 0.0522727,
                "tempo": 120.0
            },
            {
                "start_time": 14.3159091,
                "end_time": 14.4363636,
                "pitch": 33,
                "velocity": 4,
                "duration": 0.1204545,
                "tempo": 120.0
            },
            {
                "start_time": 14.4363636,
                "end_time": 14.4863636,
                "pitch": 33,
                "velocity": 80,
                "duration": 0.05,
                "tempo": 120.0
            },
            {
                "start_time": 14.4886364,
                "end_time": 14.6090909,
                "pitch": 33,
                "velocity": 4,
                "duration": 0.1204545,
                "tempo": 120.0
            },
            {
                "start_time": 14.6090909,
                "end_time": 14.9181818,
                "pitch": 36,
                "velocity": 64,
                "duration": 0.3090909,
                "tempo": 120.0
            },
            {
                "start_time": 14.9545455,
                "end_time": 15.2545455,
                "pitch": 38,
                "velocity": 64,
                "duration": 0.3,
                "tempo": 120.0
            },
            {
                "start_time": 15.2886364,
                "end_time": 15.375,
                "pitch": 39,
                "velocity": 64,
                "duration": 0.0863636,
                "tempo": 120.0
            },
            {
                "start_time": 15.4613636,
                "end_time": 15.5477273,
                "pitch": 33,
                "velocity": 64,
                "duration": 0.0863636,
                "tempo": 120.0
            },
            {
                "start_time": 19.5181818,
                "end_time": 19.8568182,
                "pitch": 31,
                "velocity": 64,
                "duration": 0.3386364,
                "tempo": 120.0
            },
            {
                "start_time": 19.8568182,
                "end_time": 20.0295455,
                "pitch": 31,
                "velocity": 64,
                "duration": 0.1727273,
                "tempo": 120.0
            },
            {
                "start_time": 20.0295455,
                "end_time": 20.5363636,
                "pitch": 27,
                "velocity": 64,
                "duration": 0.5068182,
                "tempo": 120.0
            },
            {
                "start_time": 41.2045455,
                "end_time": 41.5431818,
                "pitch": 31,
                "velocity": 64,
                "duration": 0.3386364,
                "tempo": 120.0
            },
            {
                "start_time": 41.5454545,
                "end_time": 41.7159091,
                "pitch": 31,
                "velocity": 64,
                "duration": 0.1704545,
                "tempo": 120.0
            },
            {
                "start_time": 41.7181818,
                "end_time": 42.2227273,
                "pitch": 27,
                "velocity": 64,
                "duration": 0.5045455,
                "tempo": 120.0
            },
            {
                "start_time": 109.1545455,
                "end_time": 109.1659091,
                "pitch": 33,
                "velocity": 64,
                "duration": 0.0113636,
                "tempo": 120.0
            },
            {
                "start_time": 109.2022727,
                "end_time": 109.2363636,
                "pitch": 33,
                "velocity": 4,
                "duration": 0.0340909,
                "tempo": 120.0
            },
            {
                "start_time": 109.3227273,
                "end_time": 109.3386364,
                "pitch": 33,
                "velocity": 64,
                "duration": 0.0159091,
                "tempo": 120.0
            },
            {
                "start_time": 109.375,
                "end_time": 109.4090909,
                "pitch": 33,
                "velocity": 4,
                "duration": 0.0340909,
                "tempo": 120.0
            },
            {
                "start_time": 109.4954545,
                "end_time": 109.7954545,
                "pitch": 36,
                "velocity": 64,
                "duration": 0.3,
                "tempo": 120.0
            },
            {
                "start_time": 109.8318182,
                "end_time": 110.1409091,
                "pitch": 38,
                "velocity": 64,
                "duration": 0.3090909,
                "tempo": 120.0
            },
            {
                "start_time": 110.175,
                "end_time": 110.2590909,
                "pitch": 39,
                "velocity": 64,
                "duration": 0.0840909,
                "tempo": 120.0
            },
            {
                "start_time": 110.3454545,
                "end_time": 110.3772727,
                "pitch": 33,
                "velocity": 64,
                "duration": 0.0318182,
                "tempo": 120.0
            },
            {
                "start_time": 110.3931818,
                "end_time": 110.4590909,
                "pitch": 33,
                "velocity": 4,
                "duration": 0.0659091,
                "tempo": 120.0
            },
            {
                "start_time": 110.6795455,
                "end_time": 110.7113636,
                "pitch": 33,
                "velocity": 64,
                "duration": 0.0318182,
                "tempo": 120.0
            },
            {
                "start_time": 110.7272727,
                "end_time": 110.7954545,
                "pitch": 33,
                "velocity": 4,
                "duration": 0.0681818,
                "tempo": 120.0
            },
            {
                "start_time": 110.8454545,
                "end_time": 111.1477273,
                "pitch": 36,
                "velocity": 64,
                "duration": 0.3022727,
                "tempo": 120.0
            },
            {
                "start_time": 111.1818182,
                "end_time": 111.4818182,
                "pitch": 38,
                "velocity": 64,
                "duration": 0.3,
                "tempo": 120.0
            },
            {
                "start_time": 111.5159091,
                "end_time": 111.6022727,
                "pitch": 39,
                "velocity": 64,
                "duration": 0.0863636,
                "tempo": 120.0
            },
            {
                "start_time": 114.575,
                "end_time": 114.6045455,
                "pitch": 33,
                "velocity": 64,
                "duration": 0.0295455,
                "tempo": 120.0
            },
            {
                "start_time": 114.6227273,
                "end_time": 114.6886364,
                "pitch": 33,
                "velocity": 4,
                "duration": 0.0659091,
                "tempo": 120.0
            },
            {
                "start_time": 114.7409091,
                "end_time": 114.7727273,
                "pitch": 33,
                "velocity": 64,
                "duration": 0.0318182,
                "tempo": 120.0
            },
            {
                "start_time": 114.7909091,
                "end_time": 114.8568182,
                "pitch": 33,
                "velocity": 4,
                "duration": 0.0659091,
                "tempo": 120.0
            },
            {
                "start_time": 114.9090909,
                "end_time": 115.2181818,
                "pitch": 36,
                "velocity": 64,
                "duration": 0.3090909,
                "tempo": 120.0
            },
            {
                "start_time": 115.2545455,
                "end_time": 115.5613636,
                "pitch": 38,
                "velocity": 64,
                "duration": 0.3068182,
                "tempo": 120.0
            },
            {
                "start_time": 115.5977273,
                "end_time": 115.6818182,
                "pitch": 39,
                "velocity": 64,
                "duration": 0.0840909,
                "tempo": 120.0
            },
            {
                "start_time": 115.7681818,
                "end_time": 115.8477273,
                "pitch": 33,
                "velocity": 64,
                "duration": 0.0795455,
                "tempo": 120.0
            },
            {
                "start_time": 117.1090909,
                "end_time": 117.1954545,
                "pitch": 31,
                "velocity": 64,
                "duration": 0.0863636,
                "tempo": 120.0
            },
            {
                "start_time": 117.2818182,
                "end_time": 117.3159091,
                "pitch": 33,
                "velocity": 64,
                "duration": 0.0340909,
                "tempo": 120.0
            },
            {
                "start_time": 117.3318182,
                "end_time": 117.3977273,
                "pitch": 33,
                "velocity": 4,
                "duration": 0.0659091,
                "tempo": 120.0
            },
            {
                "start_time": 117.45,
                "end_time": 117.4840909,
                "pitch": 33,
                "velocity": 64,
                "duration": 0.0340909,
                "tempo": 120.0
            },
            {
                "start_time": 117.5,
                "end_time": 117.5659091,
                "pitch": 33,
                "velocity": 4,
                "duration": 0.0659091,
                "tempo": 120.0
            },
            {
                "start_time": 117.6181818,
                "end_time": 117.9272727,
                "pitch": 36,
                "velocity": 64,
                "duration": 0.3090909,
                "tempo": 120.0
            },
            {
                "start_time": 117.9613636,
                "end_time": 118.2636364,
                "pitch": 38,
                "velocity": 64,
                "duration": 0.3022727,
                "tempo": 120.0
            },
            {
                "start_time": 118.2977273,
                "end_time": 118.3818182,
                "pitch": 39,
                "velocity": 64,
                "duration": 0.0840909,
                "tempo": 120.0
            },
            {
                "start_time": 122.5318182,
                "end_time": 122.7045455,
                "pitch": 31,
                "velocity": 64,
                "duration": 0.1727273,
                "tempo": 120.0
            },
            {
                "start_time": 122.7045455,
                "end_time": 122.7545455,
                "pitch": 33,
                "velocity": 64,
                "duration": 0.05,
                "tempo": 120.0
            },
            {
                "start_time": 122.7545455,
                "end_time": 122.8704545,
                "pitch": 33,
                "velocity": 4,
                "duration": 0.1159091,
                "tempo": 120.0
            },
            {
                "start_time": 122.8727273,
                "end_time": 122.9204545,
                "pitch": 33,
                "velocity": 80,
                "duration": 0.0477273,
                "tempo": 120.0
            },
            {
                "start_time": 122.9227273,
                "end_time": 123.0386364,
                "pitch": 33,
                "velocity": 4,
                "duration": 0.1159091,
                "tempo": 120.0
            },
            {
                "start_time": 123.0386364,
                "end_time": 123.3477273,
                "pitch": 36,
                "velocity": 64,
                "duration": 0.3090909,
                "tempo": 120.0
            },
            {
                "start_time": 123.3840909,
                "end_time": 123.6931818,
                "pitch": 38,
                "velocity": 64,
                "duration": 0.3090909,
                "tempo": 120.0
            },
            {
                "start_time": 123.7295455,
                "end_time": 123.8113636,
                "pitch": 39,
                "velocity": 64,
                "duration": 0.0818182,
                "tempo": 120.0
            },
            {
                "start_time": 123.8977273,
                "end_time": 123.9795455,
                "pitch": 33,
                "velocity": 64,
                "duration": 0.0818182,
                "tempo": 120.0
            },
            {
                "start_time": 127.95,
                "end_time": 128.2909091,
                "pitch": 31,
                "velocity": 64,
                "duration": 0.3409091,
                "tempo": 120.0
            },
            {
                "start_time": 128.2909091,
                "end_time": 128.4568182,
                "pitch": 31,
                "velocity": 64,
                "duration": 0.1659091,
                "tempo": 120.0
            },
            {
                "start_time": 128.4590909,
                "end_time": 128.9704545,
                "pitch": 27,
                "velocity": 64,
                "duration": 0.5113636,
                "tempo": 120.0
            },
            {
                "start_time": 149.6409091,
                "end_time": 149.9772727,
                "pitch": 31,
                "velocity": 64,
                "duration": 0.3363636,
                "tempo": 120.0
            },
            {
                "start_time": 149.9772727,
                "end_time": 150.1454545,
                "pitch": 31,
                "velocity": 64,
                "duration": 0.1681818,
                "tempo": 120.0
            },
            {
                "start_time": 150.1454545,
                "end_time": 150.6568182,
                "pitch": 27,
                "velocity": 64,
                "duration": 0.5113636,
                "tempo": 120.0
            }
        ],
        "Vibraphone": [
            {
                "start_time": 60.3568182,
                "end_time": 60.4045455,
                "pitch": 81,
                "velocity": 51,
                "duration": 0.0477273,
                "tempo": 120.0
            },
            {
                "start_time": 60.5227273,
                "end_time": 60.5704545,
                "pitch": 74,
                "velocity": 51,
                "duration": 0.0477273,
                "tempo": 120.0
            },
            {
                "start_time": 60.6886364,
                "end_time": 60.7409091,
                "pitch": 74,
                "velocity": 25,
                "duration": 0.0522727,
                "tempo": 120.0
            },
            {
                "start_time": 60.8613636,
                "end_time": 60.9136364,
                "pitch": 74,
                "velocity": 51,
                "duration": 0.0522727,
                "tempo": 120.0
            },
            {
                "start_time": 61.0340909,
                "end_time": 61.0840909,
                "pitch": 79,
                "velocity": 51,
                "duration": 0.05,
                "tempo": 120.0
            },
            {
                "start_time": 61.2022727,
                "end_time": 61.2522727,
                "pitch": 74,
                "velocity": 51,
                "duration": 0.05,
                "tempo": 120.0
            },
            {
                "start_time": 61.3704545,
                "end_time": 61.4181818,
                "pitch": 74,
                "velocity": 25,
                "duration": 0.0477273,
                "tempo": 120.0
            },
            {
                "start_time": 61.5363636,
                "end_time": 61.5863636,
                "pitch": 74,
                "velocity": 51,
                "duration": 0.05,
                "tempo": 120.0
            },
            {
                "start_time": 61.7045455,
                "end_time": 61.7545455,
                "pitch": 77,
                "velocity": 51,
                "duration": 0.05,
                "tempo": 120.0
            },
            {
                "start_time": 61.8772727,
                "end_time": 61.9272727,
                "pitch": 74,
                "velocity": 51,
                "duration": 0.05,
                "tempo": 120.0
            },
            {
                "start_time": 62.05,
                "end_time": 62.1,
                "pitch": 76,
                "velocity": 51,
                "duration": 0.05,
                "tempo": 120.0
            },
            {
                "start_time": 62.2181818,
                "end_time": 62.2659091,
                "pitch": 76,
                "velocity": 40,
                "duration": 0.0477273,
                "tempo": 120.0
            },
            {
                "start_time": 62.3840909,
                "end_time": 62.4340909,
                "pitch": 74,
                "velocity": 40,
                "duration": 0.05,
                "tempo": 120.0
            },
            {
                "start_time": 62.5522727,
                "end_time": 62.6022727,
                "pitch": 74,
                "velocity": 25,
                "duration": 0.05,
                "tempo": 120.0
            },
            {
                "start_time": 64.7613636,
                "end_time": 65.0954545,
                "pitch": 74,
                "velocity": 32,
                "duration": 0.3340909,
                "tempo": 120.0
            },
            {
                "start_time": 65.0954545,
                "end_time": 65.4318182,
                "pitch": 77,
                "velocity": 40,
                "duration": 0.3363636,
                "tempo": 120.0
            },
            {
                "start_time": 65.4318182,
                "end_time": 65.7795455,
                "pitch": 79,
                "velocity": 40,
                "duration": 0.3477273,
                "tempo": 120.0
            },
            {
                "start_time": 65.7795455,
                "end_time": 65.825,
                "pitch": 81,
                "velocity": 51,
                "duration": 0.0454545,
                "tempo": 120.0
            },
            {
                "start_time": 65.9431818,
                "end_time": 65.9931818,
                "pitch": 76,
                "velocity": 51,
                "duration": 0.05,
                "tempo": 120.0
            },
            {
                "start_time": 66.1113636,
                "end_time": 66.1613636,
                "pitch": 76,
                "velocity": 25,
                "duration": 0.05,
                "tempo": 120.0
            },
            {
                "start_time": 66.2795455,
                "end_time": 66.3295455,
                "pitch": 76,
                "velocity": 51,
                "duration": 0.05,
                "tempo": 120.0
            },
            {
                "start_time": 66.4477273,
                "end_time": 66.4977273,
                "pitch": 79,
                "velocity": 51,
                "duration": 0.05,
                "tempo": 120.0
            },
            {
                "start_time": 66.6181818,
                "end_time": 66.6704545,
                "pitch": 76,
                "velocity": 51,
                "duration": 0.0522727,
                "tempo": 120.0
            },
            {
                "start_time": 66.7909091,
                "end_time": 66.8409091,
                "pitch": 76,
                "velocity": 25,
                "duration": 0.05,
                "tempo": 120.0
            },
            {
                "start_time": 66.9590909,
                "end_time": 67.0090909,
                "pitch": 76,
                "velocity": 51,
                "duration": 0.05,
                "tempo": 120.0
            },
            {
                "start_time": 67.1272727,
                "end_time": 67.1772727,
                "pitch": 77,
                "velocity": 51,
                "duration": 0.05,
                "tempo": 120.0
            },
            {
                "start_time": 67.2954545,
                "end_time": 67.3431818,
                "pitch": 76,
                "velocity": 51,
                "duration": 0.0477273,
                "tempo": 120.0
            },
            {
                "start_time": 67.4613636,
                "end_time": 67.5136364,
                "pitch": 77,
                "velocity": 51,
                "duration": 0.0522727,
                "tempo": 120.0
            },
            {
                "start_time": 67.6340909,
                "end_time": 67.6863636,
                "pitch": 77,
                "velocity": 40,
                "duration": 0.0522727,
                "tempo": 120.0
            },
            {
                "start_time": 67.8068182,
                "end_time": 67.8568182,
                "pitch": 76,
                "velocity": 40,
                "duration": 0.05,
                "tempo": 120.0
            },
            {
                "start_time": 67.975,
                "end_time": 68.025,
                "pitch": 76,
                "velocity": 25,
                "duration": 0.05,
                "tempo": 120.0
            },
            {
                "start_time": 70.1818182,
                "end_time": 70.5181818,
                "pitch": 76,
                "velocity": 32,
                "duration": 0.3363636,
                "tempo": 120.0
            },
            {
                "start_time": 70.5181818,
                "end_time": 70.8522727,
                "pitch": 77,
                "velocity": 40,
                "duration": 0.3340909,
                "tempo": 120.0
            },
            {
                "start_time": 70.8522727,
                "end_time": 71.2,
                "pitch": 79,
                "velocity": 40,
                "duration": 0.3477273,
                "tempo": 120.0
            },
            {
                "start_time": 71.2,
                "end_time": 71.2477273,
                "pitch": 81,
                "velocity": 51,
                "duration": 0.0477273,
                "tempo": 120.0
            },
            {
                "start_time": 71.3659091,
                "end_time": 71.4159091,
                "pitch": 74,
                "velocity": 51,
                "duration": 0.05,
                "tempo": 120.0
            },
            {
                "start_time": 71.5340909,
                "end_time": 71.5818182,
                "pitch": 74,
                "velocity": 25,
                "duration": 0.0477273,
                "tempo": 120.0
            },
            {
                "start_time": 71.7,
                "end_time": 71.75,
                "pitch": 74,
                "velocity": 51,
                "duration": 0.05,
                "tempo": 120.0
            },
            {
                "start_time": 71.8681818,
                "end_time": 71.9204545,
                "pitch": 79,
                "velocity": 51,
                "duration": 0.0522727,
                "tempo": 120.0
            },
            {
                "start_time": 72.0409091,
                "end_time": 72.0909091,
                "pitch": 74,
                "velocity": 51,
                "duration": 0.05,
                "tempo": 120.0
            },
            {
                "start_time": 72.2136364,
                "end_time": 72.2636364,
                "pitch": 74,
                "velocity": 25,
                "duration": 0.05,
                "tempo": 120.0
            },
            {
                "start_time": 72.3818182,
                "end_time": 72.4295455,
                "pitch": 74,
                "velocity": 51,
                "duration": 0.0477273,
                "tempo": 120.0
            },
            {
                "start_time": 72.55,
                "end_time": 72.6,
                "pitch": 77,
                "velocity": 51,
                "duration": 0.05,
                "tempo": 120.0
            },
            {
                "start_time": 72.7204545,
                "end_time": 72.7727273,
                "pitch": 74,
                "velocity": 51,
                "duration": 0.0522727,
                "tempo": 120.0
            },
            {
                "start_time": 72.8931818,
                "end_time": 72.9431818,
                "pitch": 76,
                "velocity": 51,
                "duration": 0.05,
                "tempo": 120.0
            },
            {
                "start_time": 73.0613636,
                "end_time": 73.1113636,
                "pitch": 74,
                "velocity": 51,
                "duration": 0.05,
                "tempo": 120.0
            },
            {
                "start_time": 73.2295455,
                "end_time": 73.2772727,
                "pitch": 77,
                "velocity": 51,
                "duration": 0.0477273,
                "tempo": 120.0
            },
            {
                "start_time": 73.3954545,
                "end_time": 73.4454545,
                "pitch": 74,
                "velocity": 51,
                "duration": 0.05,
                "tempo": 120.0
            },
            {
                "start_time": 73.5636364,
                "end_time": 73.6159091,
                "pitch": 79,
                "velocity": 51,
                "duration": 0.0522727,
                "tempo": 120.0
            },
            {
                "start_time": 73.7363636,
                "end_time": 73.7886364,
                "pitch": 74,
                "velocity": 51,
                "duration": 0.0522727,
                "tempo": 120.0
            },
            {
                "start_time": 73.9113636,
                "end_time": 73.9590909,
                "pitch": 81,
                "velocity": 51,
                "duration": 0.0477273,
                "tempo": 120.0
            },
            {
                "start_time": 74.0772727,
                "end_time": 74.1272727,
                "pitch": 74,
                "velocity": 51,
                "duration": 0.05,
                "tempo": 120.0
            },
            {
                "start_time": 74.2454545,
                "end_time": 74.2954545,
                "pitch": 74,
                "velocity": 25,
                "duration": 0.05,
                "tempo": 120.0
            },
            {
                "start_time": 74.4159091,
                "end_time": 74.4681818,
                "pitch": 74,
                "velocity": 51,
                "duration": 0.0522727,
                "tempo": 120.0
            },
            {
                "start_time": 74.5886364,
                "end_time": 74.6386364,
                "pitch": 79,
                "velocity": 51,
                "duration": 0.05,
                "tempo": 120.0
            },
            {
                "start_time": 74.7568182,
                "end_time": 74.8068182,
                "pitch": 74,
                "velocity": 51,
                "duration": 0.05,
                "tempo": 120.0
            },
            {
                "start_time": 74.925,
                "end_time": 74.975,
                "pitch": 74,
                "velocity": 25,
                "duration": 0.05,
                "tempo": 120.0
            },
            {
                "start_time": 75.0931818,
                "end_time": 75.1409091,
                "pitch": 74,
                "velocity": 51,
                "duration": 0.0477273,
                "tempo": 120.0
            },
            {
                "start_time": 75.2590909,
                "end_time": 75.3090909,
                "pitch": 77,
                "velocity": 51,
                "duration": 0.05,
                "tempo": 120.0
            },
            {
                "start_time": 75.4272727,
                "end_time": 75.4772727,
                "pitch": 74,
                "velocity": 51,
                "duration": 0.05,
                "tempo": 120.0
            },
            {
                "start_time": 75.5954545,
                "end_time": 75.6454545,
                "pitch": 76,
                "velocity": 51,
                "duration": 0.05,
                "tempo": 120.0
            },
            {
                "start_time": 75.7681818,
                "end_time": 75.8181818,
                "pitch": 74,
                "velocity": 51,
                "duration": 0.05,
                "tempo": 120.0
            },
            {
                "start_time": 75.9409091,
                "end_time": 75.9886364,
                "pitch": 77,
                "velocity": 51,
                "duration": 0.0477273,
                "tempo": 120.0
            },
            {
                "start_time": 76.1068182,
                "end_time": 76.1568182,
                "pitch": 74,
                "velocity": 51,
                "duration": 0.05,
                "tempo": 120.0
            },
            {
                "start_time": 76.275,
                "end_time": 76.325,
                "pitch": 79,
                "velocity": 51,
                "duration": 0.05,
                "tempo": 120.0
            },
            {
                "start_time": 76.4477273,
                "end_time": 76.4977273,
                "pitch": 74,
                "velocity": 51,
                "duration": 0.05,
                "tempo": 120.0
            },
            {
                "start_time": 76.6227273,
                "end_time": 76.6704545,
                "pitch": 81,
                "velocity": 51,
                "duration": 0.0477273,
                "tempo": 120.0
            },
            {
                "start_time": 76.7886364,
                "end_time": 76.8363636,
                "pitch": 74,
                "velocity": 51,
                "duration": 0.0477273,
                "tempo": 120.0
            },
            {
                "start_time": 76.9545455,
                "end_time": 77.0068182,
                "pitch": 74,
                "velocity": 25,
                "duration": 0.0522727,
                "tempo": 120.0
            },
            {
                "start_time": 77.1272727,
                "end_time": 77.1795455,
                "pitch": 74,
                "velocity": 51,
                "duration": 0.0522727,
                "tempo": 120.0
            },
            {
                "start_time": 77.3,
                "end_time": 77.35,
                "pitch": 79,
                "velocity": 51,
                "duration": 0.05,
                "tempo": 120.0
            },
            {
                "start_time": 77.4681818,
                "end_time": 77.5181818,
                "pitch": 74,
                "velocity": 51,
                "duration": 0.05,
                "tempo": 120.0
            },
            {
                "start_time": 77.6363636,
                "end_time": 77.6840909,
                "pitch": 74,
                "velocity": 25,
                "duration": 0.0477273,
                "tempo": 120.0
            },
            {
                "start_time": 77.8022727,
                "end_time": 77.8522727,
                "pitch": 74,
                "velocity": 51,
                "duration": 0.05,
                "tempo": 120.0
            },
            {
                "start_time": 77.9704545,
                "end_time": 78.0227273,
                "pitch": 77,
                "velocity": 51,
                "duration": 0.0522727,
                "tempo": 120.0
            },
            {
                "start_time": 78.1431818,
                "end_time": 78.1931818,
                "pitch": 74,
                "velocity": 51,
                "duration": 0.05,
                "tempo": 120.0
            },
            {
                "start_time": 78.3159091,
                "end_time": 78.3659091,
                "pitch": 76,
                "velocity": 51,
                "duration": 0.05,
                "tempo": 120.0
            },
            {
                "start_time": 78.4840909,
                "end_time": 78.5318182,
                "pitch": 76,
                "velocity": 40,
                "duration": 0.0477273,
                "tempo": 120.0
            },
            {
                "start_time": 78.65,
                "end_time": 78.7,
                "pitch": 74,
                "velocity": 40,
                "duration": 0.05,
                "tempo": 120.0
            },
            {
                "start_time": 78.8181818,
                "end_time": 78.8681818,
                "pitch": 74,
                "velocity": 25,
                "duration": 0.05,
                "tempo": 120.0
            },
            {
                "start_time": 82.0431818,
                "end_time": 82.0909091,
                "pitch": 81,
                "velocity": 51,
                "duration": 0.0477273,
                "tempo": 120.0
            },
            {
                "start_time": 82.2090909,
                "end_time": 82.2568182,
                "pitch": 74,
                "velocity": 51,
                "duration": 0.0477273,
                "tempo": 120.0
            },
            {
                "start_time": 82.375,
                "end_time": 82.4272727,
                "pitch": 74,
                "velocity": 25,
                "duration": 0.0522727,
                "tempo": 120.0
            },
            {
                "start_time": 82.5477273,
                "end_time": 82.6,
                "pitch": 74,
                "velocity": 51,
                "duration": 0.0522727,
                "tempo": 120.0
            },
            {
                "start_time": 82.7204545,
                "end_time": 82.7704545,
                "pitch": 79,
                "velocity": 51,
                "duration": 0.05,
                "tempo": 120.0
            },
            {
                "start_time": 82.8886364,
                "end_time": 82.9386364,
                "pitch": 74,
                "velocity": 51,
                "duration": 0.05,
                "tempo": 120.0
            },
            {
                "start_time": 83.0568182,
                "end_time": 83.1045455,
                "pitch": 74,
                "velocity": 25,
                "duration": 0.0477273,
                "tempo": 120.0
            },
            {
                "start_time": 83.2227273,
                "end_time": 83.2727273,
                "pitch": 74,
                "velocity": 51,
                "duration": 0.05,
                "tempo": 120.0
            },
            {
                "start_time": 83.3909091,
                "end_time": 83.4409091,
                "pitch": 77,
                "velocity": 51,
                "duration": 0.05,
                "tempo": 120.0
            },
            {
                "start_time": 83.5590909,
                "end_time": 83.6090909,
                "pitch": 74,
                "velocity": 51,
                "duration": 0.05,
                "tempo": 120.0
            },
            {
                "start_time": 83.7272727,
                "end_time": 83.7772727,
                "pitch": 76,
                "velocity": 51,
                "duration": 0.05,
                "tempo": 120.0
            },
            {
                "start_time": 83.9,
                "end_time": 83.95,
                "pitch": 76,
                "velocity": 40,
                "duration": 0.05,
                "tempo": 120.0
            },
            {
                "start_time": 84.0704545,
                "end_time": 84.1204545,
                "pitch": 74,
                "velocity": 40,
                "duration": 0.05,
                "tempo": 120.0
            },
            {
                "start_time": 84.2386364,
                "end_time": 84.2886364,
                "pitch": 74,
                "velocity": 25,
                "duration": 0.05,
                "tempo": 120.0
            },
            {
                "start_time": 86.4477273,
                "end_time": 86.7818182,
                "pitch": 74,
                "velocity": 32,
                "duration": 0.3340909,
                "tempo": 120.0
            },
            {
                "start_time": 86.7818182,
                "end_time": 87.1181818,
                "pitch": 77,
                "velocity": 40,
                "duration": 0.3363636,
                "tempo": 120.0
            },
            {
                "start_time": 87.1181818,
                "end_time": 87.4659091,
                "pitch": 79,
                "velocity": 40,
                "duration": 0.3477273,
                "tempo": 120.0
            },
            {
                "start_time": 87.4659091,
                "end_time": 87.5113636,
                "pitch": 81,
                "velocity": 51,
                "duration": 0.0454545,
                "tempo": 120.0
            },
            {
                "start_time": 87.6295455,
                "end_time": 87.6795455,
                "pitch": 76,
                "velocity": 51,
                "duration": 0.05,
                "tempo": 120.0
            },
            {
                "start_time": 87.7977273,
                "end_time": 87.8477273,
                "pitch": 76,
                "velocity": 25,
                "duration": 0.05,
                "tempo": 120.0
            },
            {
                "start_time": 87.9704545,
                "end_time": 88.0204545,
                "pitch": 76,
                "velocity": 51,
                "duration": 0.05,
                "tempo": 120.0
            },
            {
                "start_time": 88.1431818,
                "end_time": 88.1909091,
                "pitch": 79,
                "velocity": 51,
                "duration": 0.0477273,
                "tempo": 120.0
            },
            {
                "start_time": 88.3090909,
                "end_time": 88.3590909,
                "pitch": 76,
                "velocity": 51,
                "duration": 0.05,
                "tempo": 120.0
            },
            {
                "start_time": 88.4772727,
                "end_time": 88.5272727,
                "pitch": 76,
                "velocity": 25,
                "duration": 0.05,
                "tempo": 120.0
            },
            {
                "start_time": 88.6454545,
                "end_time": 88.6954545,
                "pitch": 76,
                "velocity": 51,
                "duration": 0.05,
                "tempo": 120.0
            },
            {
                "start_time": 88.8136364,
                "end_time": 88.8636364,
                "pitch": 77,
                "velocity": 51,
                "duration": 0.05,
                "tempo": 120.0
            },
            {
                "start_time": 88.9863636,
                "end_time": 89.0363636,
                "pitch": 76,
                "velocity": 51,
                "duration": 0.05,
                "tempo": 120.0
            },
            {
                "start_time": 89.1590909,
                "end_time": 89.2068182,
                "pitch": 77,
                "velocity": 51,
                "duration": 0.0477273,
                "tempo": 120.0
            },
            {
                "start_time": 89.325,
                "end_time": 89.375,
                "pitch": 77,
                "velocity": 40,
                "duration": 0.05,
                "tempo": 120.0
            },
            {
                "start_time": 89.4931818,
                "end_time": 89.5431818,
                "pitch": 76,
                "velocity": 40,
                "duration": 0.05,
                "tempo": 120.0
            },
            {
                "start_time": 89.6613636,
                "end_time": 89.7113636,
                "pitch": 76,
                "velocity": 25,
                "duration": 0.05,
                "tempo": 120.0
            },
            {
                "start_time": 91.8590909,
                "end_time": 92.2045455,
                "pitch": 76,
                "velocity": 32,
                "duration": 0.3454545,
                "tempo": 120.0
            },
            {
                "start_time": 92.2045455,
                "end_time": 92.5386364,
                "pitch": 77,
                "velocity": 40,
                "duration": 0.3340909,
                "tempo": 120.0
            },
            {
                "start_time": 92.5386364,
                "end_time": 92.8863636,
                "pitch": 79,
                "velocity": 40,
                "duration": 0.3477273,
                "tempo": 120.0
            },
            {
                "start_time": 92.8863636,
                "end_time": 92.9340909,
                "pitch": 81,
                "velocity": 51,
                "duration": 0.0477273,
                "tempo": 120.0
            },
            {
                "start_time": 93.0522727,
                "end_time": 93.1022727,
                "pitch": 74,
                "velocity": 51,
                "duration": 0.05,
                "tempo": 120.0
            },
            {
                "start_time": 93.2204545,
                "end_time": 93.2704545,
                "pitch": 74,
                "velocity": 25,
                "duration": 0.05,
                "tempo": 120.0
            },
            {
                "start_time": 93.3909091,
                "end_time": 93.4431818,
                "pitch": 74,
                "velocity": 51,
                "duration": 0.0522727,
                "tempo": 120.0
            },
            {
                "start_time": 93.5636364,
                "end_time": 93.6136364,
                "pitch": 79,
                "velocity": 51,
                "duration": 0.05,
                "tempo": 120.0
            },
            {
                "start_time": 93.7318182,
                "end_time": 93.7818182,
                "pitch": 74,
                "velocity": 51,
                "duration": 0.05,
                "tempo": 120.0
            },
            {
                "start_time": 93.9,
                "end_time": 93.95,
                "pitch": 74,
                "velocity": 25,
                "duration": 0.05,
                "tempo": 120.0
            },
            {
                "start_time": 94.0681818,
                "end_time": 94.1159091,
                "pitch": 74,
                "velocity": 51,
                "duration": 0.0477273,
                "tempo": 120.0
            },
            {
                "start_time": 94.2363636,
                "end_time": 94.2863636,
                "pitch": 77,
                "velocity": 51,
                "duration": 0.05,
                "tempo": 120.0
            },
            {
                "start_time": 94.4068182,
                "end_time": 94.4590909,
                "pitch": 74,
                "velocity": 51,
                "duration": 0.0522727,
                "tempo": 120.0
            },
            {
                "start_time": 94.5795455,
                "end_time": 94.6295455,
                "pitch": 76,
                "velocity": 51,
                "duration": 0.05,
                "tempo": 120.0
            },
            {
                "start_time": 94.7477273,
                "end_time": 94.7977273,
                "pitch": 74,
                "velocity": 51,
                "duration": 0.05,
                "tempo": 120.0
            },
            {
                "start_time": 94.9159091,
                "end_time": 94.9659091,
                "pitch": 77,
                "velocity": 51,
                "duration": 0.05,
                "tempo": 120.0
            },
            {
                "start_time": 95.0818182,
                "end_time": 95.1318182,
                "pitch": 74,
                "velocity": 51,
                "duration": 0.05,
                "tempo": 120.0
            },
            {
                "start_time": 95.25,
                "end_time": 95.3022727,
                "pitch": 79,
                "velocity": 51,
                "duration": 0.0522727,
                "tempo": 120.0
            },
            {
                "start_time": 95.4227273,
                "end_time": 95.475,
                "pitch": 74,
                "velocity": 51,
                "duration": 0.0522727,
                "tempo": 120.0
            },
            {
                "start_time": 95.5977273,
                "end_time": 95.6454545,
                "pitch": 81,
                "velocity": 51,
                "duration": 0.0477273,
                "tempo": 120.0
            },
            {
                "start_time": 95.7636364,
                "end_time": 95.8136364,
                "pitch": 74,
                "velocity": 51,
                "duration": 0.05,
                "tempo": 120.0
            },
            {
                "start_time": 95.9318182,
                "end_time": 95.9818182,
                "pitch": 74,
                "velocity": 25,
                "duration": 0.05,
                "tempo": 120.0
            },
            {
                "start_time": 96.1022727,
                "end_time": 96.1545455,
                "pitch": 74,
                "velocity": 51,
                "duration": 0.0522727,
                "tempo": 120.0
            },
            {
                "start_time": 96.275,
                "end_time": 96.325,
                "pitch": 79,
                "velocity": 51,
                "duration": 0.05,
                "tempo": 120.0
            },
            {
                "start_time": 96.4431818,
                "end_time": 96.4931818,
                "pitch": 74,
                "velocity": 51,
                "duration": 0.05,
                "tempo": 120.0
            },
            {
                "start_time": 96.6113636,
                "end_time": 96.6613636,
                "pitch": 74,
                "velocity": 25,
                "duration": 0.05,
                "tempo": 120.0
            },
            {
                "start_time": 96.7795455,
                "end_time": 96.8272727,
                "pitch": 74,
                "velocity": 51,
                "duration": 0.0477273,
                "tempo": 120.0
            },
            {
                "start_time": 96.9454545,
                "end_time": 96.9977273,
                "pitch": 77,
                "velocity": 51,
                "duration": 0.0522727,
                "tempo": 120.0
            },
            {
                "start_time": 97.1181818,
                "end_time": 97.1704545,
                "pitch": 74,
                "velocity": 51,
                "duration": 0.0522727,
                "tempo": 120.0
            },
            {
                "start_time": 97.2909091,
                "end_time": 97.3409091,
                "pitch": 76,
                "velocity": 51,
                "duration": 0.05,
                "tempo": 120.0
            },
            {
                "start_time": 97.4590909,
                "end_time": 97.5090909,
                "pitch": 74,
                "velocity": 51,
                "duration": 0.05,
                "tempo": 120.0
            },
            {
                "start_time": 97.6272727,
                "end_time": 97.675,
                "pitch": 77,
                "velocity": 51,
                "duration": 0.0477273,
                "tempo": 120.0
            },
            {
                "start_time": 97.7931818,
                "end_time": 97.8431818,
                "pitch": 74,
                "velocity": 51,
                "duration": 0.05,
                "tempo": 120.0
            },
            {
                "start_time": 97.9613636,
                "end_time": 98.0113636,
                "pitch": 79,
                "velocity": 51,
                "duration": 0.05,
                "tempo": 120.0
            },
            {
                "start_time": 98.1340909,
                "end_time": 98.1840909,
                "pitch": 74,
                "velocity": 51,
                "duration": 0.05,
                "tempo": 120.0
            },
            {
                "start_time": 98.3090909,
                "end_time": 98.3568182,
                "pitch": 81,
                "velocity": 51,
                "duration": 0.0477273,
                "tempo": 120.0
            },
            {
                "start_time": 98.475,
                "end_time": 98.5227273,
                "pitch": 74,
                "velocity": 51,
                "duration": 0.0477273,
                "tempo": 120.0
            },
            {
                "start_time": 98.6409091,
                "end_time": 98.6931818,
                "pitch": 74,
                "velocity": 25,
                "duration": 0.0522727,
                "tempo": 120.0
            },
            {
                "start_time": 98.8136364,
                "end_time": 98.8659091,
                "pitch": 74,
                "velocity": 51,
                "duration": 0.0522727,
                "tempo": 120.0
            },
            {
                "start_time": 98.9863636,
                "end_time": 99.0363636,
                "pitch": 79,
                "velocity": 51,
                "duration": 0.05,
                "tempo": 120.0
            },
            {
                "start_time": 99.1545455,
                "end_time": 99.2045455,
                "pitch": 74,
                "velocity": 51,
                "duration": 0.05,
                "tempo": 120.0
            },
            {
                "start_time": 99.3227273,
                "end_time": 99.3704545,
                "pitch": 74,
                "velocity": 25,
                "duration": 0.0477273,
                "tempo": 120.0
            },
            {
                "start_time": 99.4886364,
                "end_time": 99.5386364,
                "pitch": 74,
                "velocity": 51,
                "duration": 0.05,
                "tempo": 120.0
            },
            {
                "start_time": 99.6568182,
                "end_time": 99.7090909,
                "pitch": 77,
                "velocity": 51,
                "duration": 0.0522727,
                "tempo": 120.0
            },
            {
                "start_time": 99.8295455,
                "end_time": 99.8795455,
                "pitch": 74,
                "velocity": 51,
                "duration": 0.05,
                "tempo": 120.0
            },
            {
                "start_time": 100.0022727,
                "end_time": 100.0522727,
                "pitch": 76,
                "velocity": 51,
                "duration": 0.05,
                "tempo": 120.0
            },
            {
                "start_time": 100.1704545,
                "end_time": 100.2181818,
                "pitch": 76,
                "velocity": 40,
                "duration": 0.0477273,
                "tempo": 120.0
            },
            {
                "start_time": 100.3363636,
                "end_time": 100.3863636,
                "pitch": 74,
                "velocity": 40,
                "duration": 0.05,
                "tempo": 120.0
            },
            {
                "start_time": 100.5045455,
                "end_time": 100.5545455,
                "pitch": 74,
                "velocity": 25,
                "duration": 0.05,
                "tempo": 120.0
            }
        ]
    }
}